<svg height="850.394" viewBox="0 0 850.394 850.394" width="850.394" xmlns="http://www.w3.org/2000/svg"><path d="m197.512 309.148h450.602v450.602h-450.602z" fill="none" stroke="#231f20" stroke-width="28"/><path d="m328.598 69.421h183.099v183.094h-183.099z" fill="none"/><g fill="#2f26ed"><circle cx="328.598" cy="215.896" r="15.273"/><circle cx="328.598" cy="179.277" r="15.273"/><circle cx="328.598" cy="142.658" r="15.273"/><circle cx="328.598" cy="106.04" r="15.273"/><circle cx="365.218" cy="69.421" r="15.273"/><circle cx="401.837" cy="69.421" r="15.273"/><circle cx="438.457" cy="69.421" r="15.273"/><circle cx="475.077" cy="69.421" r="15.273"/><circle cx="511.696" cy="106.041" r="15.272"/><circle cx="511.696" cy="142.66" r="15.272"/><circle cx="511.696" cy="179.278" r="15.272"/><circle cx="511.696" cy="215.897" r="15.272"/><circle cx="475.076" cy="252.516" r="15.273"/><circle cx="438.456" cy="252.516" r="15.273"/><circle cx="401.836" cy="252.516" r="15.273"/><circle cx="365.216" cy="252.516" r="15.273"/><circle cx="328.598" cy="69.421" r="15.273"/><circle cx="511.696" cy="69.422" r="15.272"/><circle cx="511.695" cy="252.516" r="15.273"/><circle cx="328.598" cy="252.515" r="15.273"/></g><path d="m0 0h850.394v850.394h-850.394z" fill="none"/></svg>