<svg height="850.394" viewBox="0 0 850.394 850.394" width="850.394" xmlns="http://www.w3.org/2000/svg"><path d="m502.6 401.85 27.69 15.42c14.11 7.86 19.28 25.48 11.56 39.38l-146.98 294.14c-40.33 74.979-145.7 13.57-104.4-58.11l172.56-279.91c7.72-13.89 25.44-18.77 39.57-10.92z" fill="#abd150"/><path d="m568.12 152.9c18.95 59.99 1.8 118.9-38.29 131.57-40.11 12.67-87.99-25.7-106.93-85.7-18.96-60-1.82-118.91 38.28-131.57 40.1-12.67 87.98 25.69 106.94 85.7z" fill="#c8c8c8"/><g fill="none"><g stroke="#231f20"><path d="m394.87 750.79c-40.33 74.979-145.7 13.57-104.4-58.11l172.56-279.91c7.72-13.89 25.439-18.77 39.569-10.92l27.69 15.42c14.11 7.86 19.28 25.48 11.56 39.38zm173.25-597.89c18.95 59.99 1.8 118.9-38.29 131.57-40.11 12.67-87.99-25.7-106.93-85.7-18.96-60-1.82-118.91 38.28-131.57 40.1-12.67 87.98 25.69 106.94 85.7z" stroke-width="21"/><path d="m538 286 16.64 55.21-32.64 60.79" stroke-width="28"/></g><path d="m0 0h850.394v850.394h-850.394z"/></g></svg>