<svg height="850.394" viewBox="0 0 850.394 850.394" width="850.394" xmlns="http://www.w3.org/2000/svg"><path d="m548.34 372.45 1.47.31c-3.699 17.63-3.81 35.27-9.21 35.27l-28.84-16.06c-1.3-.73-2.64-1.35-3.99-1.86-2.579-4.84 3.2-18.84-10.02-38.45v-.01c-489.73-525.65 80.03-122.35 50.59 20.8z" fill="#c8c8c8"/><path d="m540.6 408.03c14.7 8.18 20.091 26.55 12.04 41.02l-153.1 306.38c-42.01 78.101-151.76 14.141-108.74-60.52l179.74-291.57c7.34-13.18 23.31-18.57 37.229-13.23.65 1.22 1.841 1.86 3.99 1.86z" fill="#abd150"/><g fill="none"><g stroke="#231f20"><path d="m540.6 408.03c14.7 8.18 20.091 26.55 12.04 41.02l-153.1 306.38c-42.01 78.101-151.76 14.141-108.74-60.52l179.74-291.57c7.34-13.18 23.31-18.57 37.229-13.23 1.351.51 2.69 1.13 3.99 1.86z" stroke-width="21"/><g stroke-width="18.646"><path d="m497.75 351.66c.87.92 1.74 1.86 2.61 2.79m47.64 19.55c.12-.51.24-1.03.34-1.55 29.44-143.15-540.32-546.45-50.59-20.8"/><path d="m490 342c3.12 3.35 5.67 6.57 7.75 9.65v.01c13.22 19.61 7.44 33.61 10.02 38.45.65 1.22 1.841 1.86 3.99 1.86m40.24-27.97c-.86 2.87-1.58 5.81-2.19 8.76-3.699 17.63-3.81 35.27-9.21 35.27"/></g></g><path d="m0 0h850.394v850.394h-850.394z"/></g></svg>