<svg height="850.394" viewBox="0 0 850.394 850.394" width="850.394" xmlns="http://www.w3.org/2000/svg"><path d="m508.92 393 27.91 15.54c14.229 7.93 19.45 25.7 11.66 39.71l-148.18 296.54c-40.66 75.58-146.89 13.68-105.25-58.58l173.97-282.2c7.79-14 25.64-18.93 39.89-11.01z" fill="#abd150"/><path d="m459.66 69.09 93.729 195.64-28.26 17.41c-47.63-101.91-128.9-90.47-128.9-90.47-22.319-102.28 63.431-122.58 63.431-122.58z" fill="#c8c8c8"/><g fill="none"><path d="m400.31 744.79c-40.66 75.58-146.89 13.68-105.25-58.58l173.97-282.2c7.79-14 25.64-18.93 39.89-11.01l27.91 15.54c14.229 7.93 19.45 25.7 11.66 39.71zm138.49-470.82 22.58 57.9-39.38 66.13m31.39-133.27-93.73-195.64s-85.75 20.3-63.43 122.58c0 0 81.27-11.44 128.9 90.47z" stroke="#231f20" stroke-width="21"/><path d="m0 0h850.394v850.394h-850.394z"/></g></svg>