<svg height="850.394" viewBox="0 0 850.394 850.394" width="850.394" xmlns="http://www.w3.org/2000/svg"><path d="m362.386 541.613h133.03v133.024h-133.03z" fill="none" stroke="#231f20" stroke-width="14"/><path d="m366.567 158.023h133.03v133.024h-133.03z" fill="none"/><g fill="#5668af"><circle cx="366.567" cy="257.791" r="14.292"/><circle cx="366.567" cy="224.535" r="14.292"/><circle cx="366.567" cy="191.279" r="14.292"/><circle cx="399.825" cy="158.023" r="14.292"/><circle cx="433.083" cy="158.023" r="14.292"/><circle cx="466.341" cy="158.023" r="14.292"/><circle cx="499.598" cy="191.28" r="14.292"/><circle cx="499.598" cy="224.536" r="14.292"/><circle cx="499.598" cy="257.792" r="14.292"/><circle cx="466.34" cy="291.047" r="14.292"/><circle cx="433.082" cy="291.047" r="14.292"/><circle cx="399.824" cy="291.047" r="14.292"/><circle cx="366.568" cy="158.023" r="14.292"/><circle cx="499.598" cy="158.024" r="14.292"/><circle cx="499.598" cy="291.047" r="14.292"/><circle cx="366.567" cy="291.047" r="14.292"/></g><path d="m316.554 98.702-220.493 659.226m437.886-659.226 220.496 659.226" fill="none" stroke="#231f20" stroke-width="21"/><path d="m0 0h850.394v850.394h-850.394z" fill="none"/></svg>