<svg height="850.394" viewBox="0 0 850.394 850.394" width="850.394" xmlns="http://www.w3.org/2000/svg"><path d="m310.74 153.37c0 3.41-2.89 6.19-6.46 6.19-3.58 0-6.48-2.78-6.48-6.19 0-1.28-.13-1.61.57-2.59l-.23-.56v-.01c1.81-.78 3.77-1.21 5.86-1.16 2.4.06 4.84.84 6.93 2.14l-.33.53c.4.79.14.7.14 1.65zm-6.53-3.24c-2.18 0-3.94 1.56-3.94 3.48s1.76 3.46 3.94 3.46 3.94-1.54 3.94-3.46-1.76-3.48-3.94-3.48zm55.4 5.13c2.18 0 3.94-1.55 3.94-3.46 0-1.92-1.76-3.47-3.94-3.47s-3.95 1.55-3.95 3.47c0 1.91 1.77 3.46 3.95 3.46zm5.83-6.29c.71.98.58 1.31.58 2.59 0 3.41-2.9 6.18-6.47 6.18s-6.47-2.77-6.47-6.18c0-.95-.26-.86.14-1.66l-.32-.52c2.08-1.31 4.52-2.09 6.92-2.14 2.08-.05 4.04.38 5.85 1.16z" fill="#0071bc"/><path d="m365.67 148.4c2.41 1.02 4.56 2.66 6.4 4.61l-.14.12c-2.55 2.37-5.49 4.48-8.9 5.68-2.05.74-4.88.87-7.04.42-.91-.18-2.04-.41-2.88-.8-.71-.33-1.32-1.09-1.98-1.4-.99-.47-2.1-.05-3.03-.63-1.08-.67-.26-1.43.36-2.52 1.02-1.81 2.59-3.36 4.44-4.5l.32.52c-.4.8-.14.71-.14 1.66 0 3.41 2.9 6.18 6.47 6.18s6.47-2.77 6.47-6.18c0-1.28.13-1.61-.58-2.59zm-54.95 11.84c-.85.39-1.98.62-2.89.81-2.15.44-4.99.31-7.04-.43-3.4-1.21-6.35-3.31-8.9-5.66l-.14-.13c1.84-1.95 3.99-3.59 6.39-4.61l.23.56c-.7.98-.57 1.31-.57 2.59 0 3.41 2.9 6.19 6.48 6.19 3.57 0 6.46-2.78 6.46-6.19 0-.95.26-.86-.14-1.65l.33-.53c1.84 1.15 3.41 2.69 4.43 4.5.62 1.09 1.45 1.86.36 2.53-.92.57-2.04.16-3.03.62-.66.31-1.26 1.08-1.97 1.4z" fill="#fff"/><path d="m354.65 202.42c-2.59 4.24-5.31 8.71-9.92 10.75-6.25 2.76-12.95 2.22-18.1-2.04-1.9-1.57-4.87-3.44-6.22-5.22 5.07 1.49 12.61.63 17.7.23 5.12-.41 9.31-.45 16.54-3.72z" fill="#ef947d"/><path d="m336.5 201.78c2.05-5.11 16.19-1.85 19.96-2.23-.61.92-1.2 1.89-1.81 2.87-7.23 3.27-11.42 3.31-16.54 3.72-5.09.4-12.63 1.26-17.7-.23-1.31-1.72-1.11-3.36 3.03-4.56 2.58-.74 5.66-1.32 8.31-.71 1.41.32 3.47 1.67 4.74 1.14.01.01.01.01.01 0z" fill="#ef947d"/><path d="m291.75 154.83.14.13c2.55 2.35 5.5 4.45 8.9 5.66 2.05.74 4.89.87 7.04.43.91-.19 2.04-.42 2.89-.81.71-.32 1.31-1.09 1.97-1.4.99-.46 2.11-.05 3.03-.62 1.09-.67.26-1.44-.36-2.53-1.02-1.81-2.59-3.35-4.43-4.5-2.09-1.3-4.53-2.08-6.93-2.14-2.09-.05-4.05.38-5.86 1.16v.01c-2.4 1.02-4.55 2.66-6.39 4.61zm80.32-1.82c-1.84-1.95-3.99-3.59-6.4-4.61-1.81-.78-3.77-1.21-5.85-1.16-2.4.05-4.84.83-6.92 2.14-1.85 1.14-3.42 2.69-4.44 4.5-.62 1.09-1.44 1.85-.36 2.52.93.58 2.04.16 3.03.63.66.31 1.27 1.07 1.98 1.4.84.39 1.97.62 2.88.8 2.16.45 4.99.32 7.04-.42 3.41-1.2 6.35-3.31 8.9-5.68zm26.31 49.69c-2.59 3.6-6.25 6.67-9.71 9.67-3.69 3.2-6.8 7.28-9.94 11.28l-.9-.38c.14.08.43.22.84.45-5.56 7.04-11.27 13.8-20.64 14.95-11.05 1.35-24.96 5.38-34.46-2.66-5.92-5-13.32-9.63-18.18-15.75-1.66-2.08-6.96-8.34-11.46-16.12-3.8-6.57-7.03-14.22-7.03-21.38 0-14.25-3.16-17.65-3.4-27.12-.11-4.78.93-9.67 2.91-14.13 2.22-4.98 5.6-9.42 9.86-12.55 6.23-4.57 40.12-20.73 54.6-30.88.21.46.56.76 1.05.9 5.27 5.6 31.63 33.54 45.89 47.79 13.3 13.31 4.25 45.93 3.96 47.94-.41 2.98-1.66 5.6-3.39 7.99zm-41.92-3.15c-3.77.38-17.91-2.88-19.96 2.23 0 .01 0 .01-.01 0-1.27.53-3.33-.82-4.74-1.14-2.65-.61-5.73-.03-8.31.71-4.14 1.2-4.34 2.84-3.03 4.56 1.35 1.78 4.32 3.65 6.22 5.22 5.15 4.26 11.85 4.8 18.1 2.04 4.61-2.04 7.33-6.51 9.92-10.75.61-.98 1.2-1.95 1.81-2.87z" fill="#ffeec8"/><path d="m305.39 220.26c4.86 6.12 12.26 10.75 18.18 15.75 9.5 8.04 23.41 4.01 34.46 2.66 9.37-1.15 15.08-7.91 20.64-14.95 2.1 1.09 7.55 3.99 14.87 8.07l-54.36 84.2-50.6-84.56v-.01zm-148.13 344.32-2.88 6.3c1.82 5.01 3.98 21.54 3.98 37.25 0 13.34-1.55 26.09-6.19 30.72-5.31 0-1.62-10.58-8.88-12.05-4.61 7.17-6.8 29.7-16.36 30.75-8.62 1.021-17.79-9.01-19.77-16.06-3.37-12-1.56-49.78 8.06-80.48 0 0 .8-2.74 2.16-7.479l4.62.469 34 10zm406.14-2.65c9.619 30.67 11.439 68.471 8.08 80.45-1.971 7.08-11.131 17.08-19.78 16.061-9.561-1.03-11.76-23.57-16.38-30.75-7.23 1.51-3.521 12.05-8.86 12.05-4.63-4.61-6.19-17.34-6.19-30.66 0-15.73 2.171-32.28 4-37.29l33.73-15.791 3.41-.94c1.26 4.36 1.99 6.87 1.99 6.87z" fill="#ffeec8"/><path d="m351.92 98.98-.93-.99-.12.09c-14.48 10.15-48.37 26.31-54.6 30.88-4.26 3.13-7.64 7.57-9.86 12.55-1.98 4.46-3.02 9.35-2.91 14.13.24 9.47 3.4 12.87 3.4 27.12 0 7.16 3.23 14.81 7.03 21.38l-27.03 14.22c4.95-9.87 3.23-22.08 3.23-22.08-.19-18.77-2.49-39.25-2.8-43.69-1.33-18.4 5.51-46.35 15.43-62.51 16.7-27.2 43.91-38.93 85.84-34.04 31.14 3.63 59.6 37.69 59.6 80.86 0 15.12-6.72 31.85.84 46.93l-30.66 18.87c1.73-2.39 2.98-5.01 3.39-7.99.29-2.01 9.34-34.63-3.96-47.94-14.26-14.25-40.62-42.19-45.89-47.79z" fill="#9c5c25"/><path d="m690.83 153.74c20.08 11.34 24.01 20.51 16.16 43.65-3.84 11.31-7.891 20.32-11.03 26.58 0 0-23.68 17.4-47.47 0-23.79-17.41-21.75-17.49-45.54-.09-23.8 17.4-47.48 0-47.48 0-3.13-6.26-7.18-15.27-11.02-26.57-7.86-23.14-3.931-32.3 16.149-43.66 9.021-5.1 23.29-7.64 36.271-8.9 15.91-1.54 29.87-1.14 29.87-1.14s12.85-.36 27.84 1.1c12.74 1.25 27.02 3.81 36.25 9.03z" fill="#fff"/><g fill="#797878"><path d="m631.05 315.96c9.26-12.9 39.46-2.95 38.73 16.03v.02c-.721 2.99-1.36 6.06-1.88 9.17-.561 3.37-1.061 6.42-1.511 9.18.74-19.31-29.96-29.83-38.64-15.91l-.2-.03c.37-2.22.76-4.61 1.2-7.19.641-3.8 1.421-7.58 2.301-11.27z"/><path d="m633.64 306.12.15-.54c.53-1.81 1.07-3.59 1.62-5.32 8.46-13.56 39.18-5.29 40.08 13.01-.101.27-.2.55-.3.83-1.99 5.5-3.891 11.54-5.41 17.89.729-18.98-29.471-28.93-38.73-16.03.79-3.34 1.66-6.62 2.57-9.79.01-.02.01-.04.02-.05z"/><path d="m641.46 283.21c8.68-13.92 40.83-3.92 40.1 15.39v.02c-1.92 4.15-4.04 9.11-6.069 14.65-.9-18.3-31.62-26.57-40.08-13.01.6-1.89 1.2-3.72 1.8-5.49 1.459-4.26 2.909-8.16 4.249-11.56z"/><path d="m677.1 253.33c8.37 3.2 14.32 11.31 14.32 20.81 0 3.06-2.89 10.22-4.03 12.91 0 .01-.01.02-.02.04-1.14 2.04-3.29 6.06-5.811 11.51.73-19.31-31.42-29.31-40.1-15.39 3.14-7.99 5.63-13.22 5.96-13.91 2.21-9.97 11.1-17.43 21.74-17.43 2.801 0 5.471.52 7.941 1.46zm-76.44-160.86c-1.04 5.79-1.47 12.86-2.08 21.46-.96 13.5-1.74 30.52-1.74 30.52l.03.3c-12.98 1.26-27.25 3.8-36.271 8.9-20.08 11.36-24.01 20.52-16.149 43.66 3.84 11.3 7.89 20.31 11.02 26.57 3.29 6.56 5.57 10.1 5.57 10.1l-5.24 44.09 4.95 8.53 9.15 15.75s4.729 9.41 2.949 13.33v.01c-1.96 1.01-2.949 1.67-2.949 1.67-7.551 0-13.23-4.81-13.23-4.81-12.939-10.16-16.01-12.48-23.79-32.08-16.37-41.25-12.01-96.52-12.01-96.52 0-44 34.66-80.98 79.79-91.48z"/><path d="m654.6 144.54-.02.17c-14.99-1.46-27.84-1.1-27.84-1.1s-13.96-.4-29.87 1.14l-.03-.3s.78-17.02 1.74-30.52c.61-8.6 1.04-15.67 2.08-21.46 8.39-1.95 17.13-2.99 26.08-2.99l-2.04.09c8.95 0 17.7 1.04 26.08 2.99 1.04 5.79 1.47 12.85 2.069 21.45.961 13.5 1.751 30.53 1.751 30.53z"/><path d="m730.55 184.03s4.37 55.26-12 96.52c-7.78 19.6-10.84 21.92-23.79 32.09 0 0-5.68 4.8-13.22 4.8 0 0-.99-.68-2.97-1.71-1.74-3.94 2.97-13.29 2.97-13.29l14.1-24.29-5.239-44.09s2.279-3.54 5.56-10.09c3.14-6.26 7.19-15.27 11.03-26.58 7.85-23.14 3.92-32.31-16.16-43.65-9.23-5.22-23.51-7.78-36.25-9.03l.02-.17s-.79-17.03-1.75-30.53c-.6-8.6-1.029-15.66-2.069-21.45 45.128 10.51 79.768 47.47 79.768 91.47z"/></g><path d="m569.9 302.35-9.15-15.75 1.59-.92c3.91 6.43 10.98 10.72 19.05 10.72 3.12 0 6.091-.64 8.78-1.8h46.53l.51.17c-.6 1.77-1.2 3.6-1.8 5.49-.55 1.73-1.09 3.51-1.62 5.32l-.15.54c-.01.01-.01.03-.02.05l-.17-.05c-2.061-.01-4.021.02-6.17.12h-.021c-5.76-.33-11.12-.3-16.04-.01-19.95 1.18-32.91 6.65-38.37 9.45 1.781-3.92-2.949-13.33-2.949-13.33z" fill="#c8c8c8"/><path d="m555.8 278.07 5.24-44.09s-2.28-3.54-5.57-10.1c0 0 23.681 17.4 47.48 0 23.79-17.4 21.75-17.32 45.54.09 23.79 17.4 47.47 0 47.47 0-3.28 6.55-5.56 10.09-5.56 10.09l5.239 44.09-14.1 24.29s-4.71 9.35-2.97 13.29c-.84-.44-1.86-.94-3.061-1.49 0-.33 0-.66-.02-.97 2.029-5.54 4.149-10.5 6.069-14.65v-.02c2.521-5.45 4.671-9.47 5.811-11.51.01-.02.02-.03.02-.04 1.141-2.69 4.03-9.85 4.03-12.91 0-9.5-5.95-17.61-14.32-20.81l-50.359-29.45-52.59 29.2c-8.75 3-15.03 11.3-15.03 21.06 0 4.22 1.18 8.17 3.22 11.54l-1.59.92z" fill="#c8c8c8"/><path d="m574.15 253.08a21.95 21.95 0 0 1 7.239-1.21c12.301 0 22.271 9.97 22.271 22.27 0 9.17-5.561 17.06-13.49 20.46a22.12 22.12 0 0 1 -8.78 1.8c-8.069 0-15.14-4.29-19.05-10.72a22.22 22.22 0 0 1 -3.22-11.54c0-9.76 6.28-18.06 15.03-21.06z" fill="#c8c8c8"/><path d="m626.74 223.88 50.359 29.45c-2.47-.94-5.14-1.46-7.939-1.46-10.641 0-19.53 7.46-21.74 17.43-.33.69-2.82 5.92-5.96 13.91-1.34 3.4-2.79 7.3-4.25 11.56l-.51-.17h-46.53c7.93-3.4 13.49-11.29 13.49-20.46 0-12.3-9.97-22.27-22.271-22.27-2.54 0-4.97.42-7.239 1.21z" fill="#c8c8c8"/><path d="m408.1 240.11-.26.45-3.65 61.13-42.04-2.14 39.8-61.99.44-.76c1.85 1.06 3.76 2.16 5.71 3.31zm-124.59-3.7 39.8 61.99-42.04 2.13-3.65-61.12-4.02-.07c1.87-1.01 3.71-2 5.49-2.95zm93.04 96.61h56.05v19.78h-56.05zm-83.76 22.44s.47 18.8-2.2 25.16c-5.03 11.94-15.41 16.66-15.41 16.66s-10.92-4.77-15.95-16.72c-2.68-6.36-2.2-25.16-2.2-25.16z" fill="#abd150"/><path d="m288.58 231.43 50.6 84.56v324.48l-6.87-.029-9.59 155.069-94.1-5.91c-2.99-46.26-5.12-158.13-5.12-177.25 0-66.97 6.5-206.99 6.5-206.99l-72.74 159.22-1.26-.58-34-10-4.62-.47c6.24-21.601 24.33-84.71 32.56-117.95 14.54-58.74 62.6-155.67 62.6-155.67 12.24-12.23 35.82-26.63 56.32-37.97 1.6-.89 3.19-1.75 4.74-2.6l4.02.07 3.65 61.12 42.04-2.13-39.8-61.99-4.42-.02c3.36-1.78 6.55-3.45 9.49-4.96zm2.01 149.19c2.67-6.36 2.2-25.16 2.2-25.16l-35.76-.06s-.48 18.8 2.2 25.16c5.03 11.95 15.95 16.72 15.95 16.72s10.38-4.72 15.41-16.66zm158.05 25.65 8.391 161.96h.01l.31-.021c.78 13.17 1.301 28.24 1.301 44.99 0 18.77-2.061 135.45-4.96 180.649l-94.561 1.66-8.74-154.979-11.21-.061v-324.478l54.36-84.2c2.72 1.51 5.7 3.19 8.85 5.01l-.44.76-39.8 61.99 42.04 2.14 3.65-61.13.26-.45c1.52.88 3.06 1.8 4.63 2.73 19.03 11.34 41.11 25.74 53.35 37.97 0 0 48.08 96.93 62.62 155.68 8.29 33.56 26.649 97.56 32.71 118.569l-3.411.941-33.73 15.79zm-16.04-53.47v-19.78h-56.05v19.78z" fill="#abd150"/><path d="m359.61 150.25c.78 0 1.41.69 1.41 1.55 0 .84-.63 1.54-1.41 1.54s-1.41-.7-1.41-1.54c0-.86.63-1.55 1.41-1.55z" fill="#231f20"/><path d="m359.61 153.34c.78 0 1.41-.7 1.41-1.54 0-.86-.63-1.55-1.41-1.55s-1.41.69-1.41 1.55c0 .84.63 1.54 1.41 1.54zm3.94-1.54c0 1.91-1.76 3.46-3.94 3.46s-3.95-1.55-3.95-3.46c0-1.92 1.77-3.47 3.95-3.47s3.94 1.55 3.94 3.47zm-57.92 1.81c0 .85-.64 1.54-1.42 1.54s-1.41-.69-1.41-1.54.63-1.54 1.41-1.54 1.42.69 1.42 1.54z" fill="#231f20"/><path d="m305.63 153.61c0-.85-.64-1.54-1.42-1.54s-1.41.69-1.41 1.54.63 1.54 1.41 1.54 1.42-.69 1.42-1.54zm-5.36 0c0-1.92 1.76-3.48 3.94-3.48s3.94 1.56 3.94 3.48-1.76 3.46-3.94 3.46-3.94-1.54-3.94-3.46z" fill="#231f20"/><g fill="none" stroke="#231f20"><g stroke-width="14"><path d="m288.58 231.42c10.84-5.58 18.24-9.09 18.24-9.09m-191.6 338.68s.8-2.74 2.16-7.479c6.24-21.601 24.33-84.71 32.56-117.95 14.54-58.74 62.6-155.67 62.6-155.67 12.24-12.23 35.82-26.63 56.32-37.97 1.6-.89 3.19-1.75 4.74-2.6 1.87-1.01 3.71-2 5.49-2.95 3.36-1.78 6.55-3.45 9.49-4.96m-59.96 558.169c-2.99-46.26-5.12-158.13-5.12-177.25 0-66.97 6.5-206.99 6.5-206.99l-72.74 159.22-2.88 6.3c1.82 5.01 3.98 21.54 3.98 37.25 0 13.34-1.55 26.09-6.19 30.72-5.31 0-1.62-10.58-8.88-12.05-4.61 7.17-6.8 29.7-16.36 30.75-8.62 1.021-17.79-9.01-19.77-16.06-3.37-12-1.56-49.78 8.06-80.48m448.18.92s-.73-2.51-1.99-6.87c-6.061-21.01-24.42-85.01-32.71-118.569-14.54-58.75-62.62-155.68-62.62-155.68-12.24-12.23-34.32-26.63-53.35-37.97-1.57-.93-3.11-1.85-4.63-2.73a523.85 523.85 0 0 0 -5.71-3.31c-3.15-1.82-6.13-3.5-8.85-5.01-7.32-4.08-12.77-6.98-14.87-8.07-.41-.23-.7-.37-.84-.45"/><path d="m457.27 572.76-.229-4.529h-.01l-8.391-161.96 75.63 165.52c-1.829 5.01-4 21.56-4 37.29 0 13.32 1.561 26.05 6.19 30.66 5.34 0 1.63-10.54 8.86-12.05 4.62 7.18 6.819 29.72 16.38 30.75 8.649 1.02 17.81-8.98 19.78-16.061 3.359-11.979 1.539-49.78-8.08-80.45"/><path d="m453.69 793.85c2.899-45.199 4.96-161.88 4.96-180.649 0-16.75-.521-31.82-1.301-44.99m-98.219 227.299-8.74-154.98-11.21-.06-6.87-.03-9.59 155.07m-200.72-241.51 34 10m402-8-33.73 15.79m-235.69-340.37v.01l50.6 84.56 54.36-84.2m179.31 83.89c1.78-3.92-2.949-13.33-2.949-13.33l-9.15-15.75-4.95-8.53 5.24-44.09s-2.28-3.54-5.57-10.1c-3.13-6.26-7.18-15.27-11.02-26.57-7.86-23.14-3.931-32.3 16.149-43.66 9.021-5.1 23.29-7.64 36.271-8.9 15.91-1.54 29.87-1.14 29.87-1.14s12.85-.36 27.84 1.1c12.74 1.25 27.02 3.81 36.25 9.03 20.08 11.34 24.01 20.51 16.16 43.65-3.84 11.31-7.891 20.32-11.03 26.58-3.28 6.55-5.56 10.09-5.56 10.09l5.239 44.09-14.1 24.29s-4.71 9.35-2.97 13.29c.46 1.05 1.38 1.71 2.97 1.71 7.54 0 13.22-4.8 13.22-4.8 12.95-10.17 16.01-12.49 23.79-32.09 16.37-41.26 12-96.52 12-96.52 0-44-34.64-80.96-79.77-91.47-8.38-1.95-17.13-2.99-26.08-2.99l2.04-.09c-8.95 0-17.69 1.04-26.08 2.99-45.13 10.5-79.79 47.48-79.79 91.48 0 0-4.36 55.27 12.01 96.52 7.78 19.6 10.851 21.92 23.79 32.08 0 0 5.68 4.81 13.23 4.81 1.56 0 2.479-.65 2.949-1.67"/><path d="m695.96 223.97s-23.68 17.4-47.47 0c-23.79-17.41-21.75-17.49-45.54-.09-23.8 17.4-47.48 0-47.48 0m55.75 82.35c-19.95 1.18-32.91 6.65-38.37 9.45v.01c-1.96 1.01-2.949 1.67-2.949 1.67m57.359-11.12c-5.76-.33-11.12-.3-16.04-.01m22.23-.11c-2.061-.01-4.021.02-6.17.12l-.65.03.63-.03"/></g><path d="m637 306.18c-1.1-.03-2.23-.05-3.36-.06m47.9 11.32s-.99-.68-2.97-1.71c-.84-.44-1.86-.94-3.061-1.49-.1-.04-.21-.09-.319-.14" stroke-width="13.188"/><path d="m654.6 144.54s-.79-17.03-1.75-30.53c-.6-8.6-1.029-15.66-2.069-21.45-1.141-6.32-3.011-11.14-6.66-14.78-4.89-4.9-31.46-5.43-36.811-.08-3.64 3.64-5.51 8.45-6.649 14.77-1.04 5.79-1.47 12.86-2.08 21.46-.96 13.5-1.74 30.52-1.74 30.52m-22.691 108.63a21.95 21.95 0 0 1 7.239-1.21c12.301 0 22.271 9.97 22.271 22.27 0 9.17-5.561 17.06-13.49 20.46a22.12 22.12 0 0 1 -8.78 1.8c-8.069 0-15.14-4.29-19.05-10.72a22.22 22.22 0 0 1 -3.22-11.54c0-9.76 6.28-18.06 15.03-21.06zm72.74 21.06c0-1.66.181-3.28.53-4.84 2.21-9.97 11.1-17.43 21.74-17.43 2.8 0 5.47.52 7.939 1.46 8.37 3.2 14.32 11.31 14.32 20.81 0 3.06-2.89 10.22-4.03 12.91" stroke-width="14"/><path d="m574.11 253.1.04-.02 52.59-29.2 50.36 29.45.06.04m-86.99 41.23h46.53m-2.91 10.98-.15.54c-.01.01-.01.03-.02.05-.91 3.17-1.78 6.45-2.57 9.79-.88 3.69-1.66 7.47-2.3 11.27-.44 2.58-.83 4.97-1.2 7.19-1.109 6.86-1.899 12.08-2.46 16.04" stroke-width="14"/><path d="m647.46 269.22s-.01.03-.04.08c-.33.69-2.82 5.92-5.96 13.91-1.34 3.4-2.79 7.3-4.25 11.56-.6 1.77-1.2 3.6-1.8 5.49-.55 1.73-1.09 3.51-1.62 5.32m32.6 44.79c-.27 1.66-.51 3.21-.739 4.66m4.129-23.02c-.721 2.99-1.36 6.06-1.88 9.17-.561 3.37-1.061 6.42-1.511 9.18m15.171-51.74c-1.92 4.15-4.04 9.11-6.069 14.65-.101.27-.2.55-.3.83-1.99 5.5-3.891 11.54-5.41 17.89m18.449-46.41s-.301.51-.841 1.47c0 .01-.01.02-.02.04-1.14 2.04-3.29 6.06-5.811 11.51" stroke-width="13.188"/><path d="m641.46 283.21c8.68-13.92 40.83-3.92 40.1 15.39v.02m-46.15 1.64c8.46-13.56 39.18-5.29 40.08 13.01.02.31.02.64.02.97 0 .16 0 .33-.01.5m-44.91 1.9c.15-.23.3-.46.46-.68 9.26-12.9 39.46-2.95 38.73 16.03v.02m-42.03 2.44c8.68-13.92 39.38-3.4 38.64 15.91v.01m-289.84-17.35h56.05v19.78h-56.05zm-93.04-96.61 39.8 61.99-42.04 2.13-3.65-61.12m124.33-1.85-39.8 61.99 42.04 2.14 3.65-61.13m-132.66 156.72s10.38-4.72 15.41-16.66c2.67-6.36 2.2-25.16 2.2-25.16l-35.76-.06s-.48 18.8 2.2 25.16c5.03 11.95 15.95 16.72 15.95 16.72zm64-81.29v324.49m-114.48-94.89 57.88-14.74m170.46 14.74-57.88-14.74" stroke-width="14"/><path d="m342.78 143.59c5.47-9.12 18.78-10.58 26.4-7.6 4.08 1.59 6.57 3.48 7.65 4.55m-62.77-.32c-7.25-6.47-21.38-5.47-27.65 1.29-.34.34-.64.71-.92 1.09m37.61 2.96c7.95 5.94 3.74 26.07 1.74 32.07-.63 1.91-3.37 5.31-1.45 7.3.94.95 2.13.44 3.3.62 1.21.19 1.93.31 3.33.83 2.68 1 4.64 1.61 7.07-.16 2.62-1.9 2.42-3.24 6.29-3.06 3.26.16 6.87 1.07 6.7-3.94-.1-3.46-2.7-3.41-4.56-5.85" stroke-width="7"/><path d="m336.5 201.78c.21-.08.4-.22.55-.42m-.79 1.31c.04-.32.11-.62.23-.89.01.01.01.01.01 0 2.05-5.11 16.19-1.85 19.96-2.23-.61.92-1.2 1.89-1.81 2.87-2.59 4.24-5.31 8.71-9.92 10.75-6.25 2.76-12.95 2.22-18.1-2.04-1.9-1.57-4.87-3.44-6.22-5.22-1.31-1.72-1.11-3.36 3.03-4.56 2.58-.74 5.66-1.32 8.31-.71 1.41.32 3.47 1.67 4.74 1.14" stroke-width="4"/><path d="m320.41 205.91c5.07 1.49 12.61.63 17.7.23 5.12-.41 9.31-.45 16.54-3.72" stroke-width="4"/><path d="m351.92 98.98c5.27 5.6 31.63 33.54 45.89 47.79 13.3 13.31 4.25 45.93 3.96 47.94-.41 2.98-1.66 5.6-3.39 7.99-2.59 3.6-6.25 6.67-9.71 9.67-3.69 3.2-6.8 7.28-9.94 11.28-.02.02-.04.05-.06.07-5.56 7.04-11.27 13.8-20.64 14.95-11.05 1.35-24.96 5.38-34.46-2.66-5.92-5-13.32-9.63-18.18-15.75-1.66-2.08-6.96-8.34-11.46-16.12-3.8-6.57-7.03-14.22-7.03-21.38 0-14.25-3.16-17.65-3.4-27.12-.11-4.78.93-9.67 2.91-14.13 2.22-4.98 5.6-9.42 9.86-12.55 6.23-4.57 40.12-20.73 54.6-30.88l.12-.09z" stroke-width="14"/><path d="m293.94 204.14h-.01l-27.03 14.22c4.95-9.87 3.23-22.08 3.23-22.08-.19-18.77-2.49-39.25-2.8-43.69-1.33-18.4 5.51-46.35 15.43-62.51 16.7-27.2 43.91-38.93 85.84-34.04 31.14 3.63 59.6 37.69 59.6 80.86 0 15.12-6.72 31.85.84 46.93l-30.66 18.87-.06.04" stroke-width="14"/><path d="m290.57 156.16c.38-.46.77-.9 1.18-1.33 1.84-1.95 3.99-3.59 6.39-4.61v-.01c1.81-.78 3.77-1.21 5.86-1.16 2.4.06 4.84.84 6.93 2.14 1.84 1.15 3.41 2.69 4.43 4.5.62 1.09 1.45 1.86.36 2.53-.92.57-2.04.16-3.03.62-.66.31-1.26 1.08-1.97 1.4-.85.39-1.98.62-2.89.81-2.15.44-4.99.31-7.04-.43-3.4-1.21-6.35-3.31-8.9-5.66" stroke-linecap="square" stroke-miterlimit="10" stroke-width="3.381"/><path d="m310.6 151.72c.4.79.14.7.14 1.65 0 3.41-2.89 6.19-6.46 6.19-3.58 0-6.48-2.78-6.48-6.19 0-1.28-.13-1.61.57-2.59m74.88 3.56c-.38-.46-.77-.9-1.18-1.33-1.84-1.95-3.99-3.59-6.4-4.61-1.81-.78-3.77-1.21-5.85-1.16-2.4.05-4.84.83-6.92 2.14-1.85 1.14-3.42 2.69-4.44 4.5-.62 1.09-1.44 1.85-.36 2.52.93.58 2.04.16 3.03.63.66.31 1.27 1.07 1.98 1.4.84.39 1.97.62 2.88.8 2.16.45 4.99.32 7.04-.42 3.41-1.2 6.35-3.31 8.9-5.68" stroke-linecap="square" stroke-miterlimit="10" stroke-width="3.381"/><path d="m353.22 149.9c-.4.8-.14.71-.14 1.66 0 3.41 2.9 6.18 6.47 6.18s6.47-2.77 6.47-6.18c0-1.28.13-1.61-.58-2.59" stroke-linecap="square" stroke-miterlimit="10" stroke-width="3.381"/><path d="m352.68 99.07c-.28 0-.53-.03-.76-.09a1.58 1.58 0 0 1 -1.05-.9.757.757 0 0 1 -.09-.18c4.46-4.34 6.65-11.21 7.98-17.07m18.97 142.39.1.05" stroke-width="14"/></g><path d="m0 0h850.394v850.394h-850.394z" fill="none"/></svg>