<svg height="850.394" viewBox="0 0 850.394 850.394" width="850.394" xmlns="http://www.w3.org/2000/svg"><path d="m343.65 250.83-8.36 47.56-37.29-21.39 43.63-51.09.36-.92c1.59.85 3.59 1.92 5.9 3.19l-.39.72zm-89.93 1.49-3.86-21.92c2.11-1.09 4.07-2.09 5.87-2.99l42.27 49.59-35.92 22.89zm163.05 314.3.32-.021c.77 13.141 1.29 28.15 1.29 44.851 0 18.53-2.01 132.79-4.86 178.75l-94.34 2.97-8.71-154.479-18.02-.091-9.56 154.57-93.8-5.89c-2.98-46.12-5.1-157.62-5.1-176.681 0-14.08.29-31.399.74-49.97l4.02.021h224.42l3.28-.17z" fill="#394ea1"/><path d="m253.72 252.32-67.24 40.33-13.41-13.42c12.2-12.19 35.69-26.54 56.13-37.84 7.54-4.17 14.67-7.92 20.66-10.99zm170.08 25.91-12.92 12.92-67.23-40.32 3.85-21.93.39-.72c6.36 3.48 15.15 8.4 24.71 14.1 17.98 10.72 38.7 24.18 51.2 35.95z" fill="#394ea1"/><path d="m472.59 387.03-2.59.97-56 24-2.06.94-3.54-7.76 8.05 155.3-3.28.17h-116.14l.97-283.65 37.29 21.39 8.36-47.56 67.23 40.32 12.92-12.92c.69.64 1.35 1.28 1.98 1.91 0 0 27.19 54.81 46.81 106.89z" fill="#a8d7f4"/><path d="m298 277-.97 283.65h-108.28l-4.02-.021c1.71-69.45 5.74-156.34 5.74-156.34l-2.3 5.04-62.07-22.69c19.62-52.23 46.97-107.41 46.97-107.41l13.41 13.42 67.24-40.33 8.36 47.57z" fill="#a8d7f4"/><path d="m522.79 560.35c9.59 30.57 11.41 68.25 8.05 80.181-1.96 7.06-11.09 17.029-19.71 16.01-9.53-1.03-11.72-23.49-16.33-30.65-7.2 1.511-3.51 12.011-8.83 12.011-4.62-4.601-6.17-17.29-6.17-30.58 0-15.67 2.16-32.16 3.98-37.15l-71.84-157.23 2.06-.942 56-24 2.59-.97c6.42 17.06 12.04 33.83 15.61 48.28 9.97 40.39 34.59 125.04 34.59 125.04zm-334.62-151.02-73.07 159.94c1.82 4.99 3.97 21.461 3.97 37.12 0 13.301-1.55 26.011-6.17 30.62-5.3 0-1.63-10.54-8.86-12-4.59 7.141-6.78 29.601-16.31 30.641-8.59 1.02-17.73-8.98-19.71-16.011-3.35-11.949-1.55-49.609 8.04-80.21 0 0 24.61-84.64 34.61-125.02 3.54-14.31 9.08-30.88 15.43-47.77zm153.82-184.34-.36.92-43.63 51.09-42.27-49.59c5.1-2.57 8.81-4.37 10.42-5.15 5.53 6.43 11.34 11.42 16.78 14.47 6.15 2.72 10.63 2.02 17.63 2.02 7.57 0 12.55.46 19.1-2.7 4.69-2.99 9.79-7.58 14.75-13.39l3.31.07s1.55.81 4.27 2.26z" fill="#ffeec8"/><path d="m273.25 149.29c1.38 0 2.49.99 2.49 2.23 0 1.23-1.11 2.23-2.49 2.23s-2.5-1-2.5-2.23c0-1.24 1.12-2.23 2.5-2.23z" fill="#231f20"/><ellipse cx="330.44" cy="151.5" fill="#231f20" rx="2.5" ry="2.23"/><path d="m337.22 149.4c.25.59.18 1.05.18 2.05 0 3.64-3.1 6.6-6.92 6.6s-6.93-2.96-6.93-6.6c0-.52-.06-.75-.07-.97l-1.98-.01c2.56-2.19 5.96-3.57 9.28-3.65 2.48-.05 4.8.53 6.92 1.55zm-9.28 2.1c0 1.23 1.12 2.23 2.5 2.23s2.5-1 2.5-2.23-1.12-2.23-2.5-2.23-2.5 1-2.5 2.23z" fill="#fff"/><path d="m266.15 222.26c-9.07-10.56-17.37-25.03-22.01-41.23-2.43-8.48-3.85-17.44-3.85-26.56 0-3.02 0-8.32.05-13.43.02-2.87.06-5.67.11-7.99l-.62-.49c6.58-8.42 16.07-18.21 16.07-18.21 5.32-3.9 47.18-17.71 59.58-26.37.14.13.39.23.72.33 2.72 1.68 13.87 9.31 28.6 29.66 2.72 3.76 13.38 12.12 15.81 21.94.16 6.05.22 9.54.22 14.56 0 8.89-1.4 17.64-3.79 25.94-4.77 16.65-13.47 31.53-22.63 42.25-4.96 5.81-10.06 10.4-14.75 13.39-6.55 3.16-11.53 2.7-19.1 2.7-7 0-11.48.7-17.63-2.02-5.44-3.05-11.25-8.04-16.78-14.47zm7.13-64c3.38 0 7.61-4.4 8.53-7.94-2.5-1.99-5.7-3.22-8.84-3.29-2.53-.06-4.88.54-7.03 1.6l.53 1.14c-.18.51-.13.97-.13 1.88 0 3.65 3.11 6.61 6.94 6.61zm64.12-6.81c0-1 .07-1.46-.18-2.05l.48-1.03c-2.12-1.02-4.44-1.6-6.92-1.55-3.32.08-6.72 1.46-9.28 3.65l1.98.01c.01.22.07.45.07.97 0 3.64 3.11 6.6 6.93 6.6s6.92-2.96 6.92-6.6zm-34.23 43.76c-.07.02-.14.03-.22.04l.59-.03c-.13 0-.25 0-.37-.01z" fill="#ffeec8"/><path d="m265.94 148.63c2.15-1.06 4.5-1.66 7.03-1.6 3.14.07 6.34 1.3 8.84 3.29-.92 3.54-5.15 7.94-8.53 7.94-3.83 0-6.94-2.96-6.94-6.61 0-.91-.05-1.37.13-1.88zm7.31.66c-1.38 0-2.5.99-2.5 2.23 0 1.23 1.12 2.23 2.5 2.23s2.49-1 2.49-2.23c0-1.24-1.11-2.23-2.49-2.23z" fill="#fff"/><path d="m255.9 114.35s-9.49 9.79-16.07 18.21c-2.37 3.03-4.36 5.88-5.4 8.04l-.62-20.08c0-32.04 26.15-50.63 26.15-50.63 3.02-2.06 5.05-3.1 5.05-3.1 13.33-7.93 30.58-10.72 52.58-8.16 26.57 3.09 46.95 29.55 50.83 62.48.63 5.35-1.01 13.13-1.93 18.79-1.87-.3-3.57-.12-5.1.43l-.66.14c-.04-.19-.08-.38-.12-.56-2.43-9.82-13.09-18.18-15.81-21.94-14.73-20.35-25.88-27.98-28.6-29.66-.42-.26-.64-.38-.64-.38-.03.02-.05.04-.08.05-12.4 8.66-54.26 22.47-59.58 26.37z" fill="#9c5c25"/><path d="m360.73 140.47.66-.14c1.53-.55 3.23-.73 5.1-.43 7.08 1.13 6.13 9.09 4.18 13.06-4.74 9.65-2.57 13.21-3.17 20.58-.23 2.79-3.43 8.24-10.1 6.97l-.36-.1c2.39-8.3 3.79-17.05 3.79-25.94 0-5.02-.06-8.51-.22-14.56.04.18.08.37.12.56zm-120.44 14c0 9.12 1.42 18.08 3.85 26.56l-.63.18c-6.66 1.27-9.86-4.17-10.09-6.97-.61-7.37 1.56-10.92-3.17-20.58-1.95-3.97-2.9-11.92 4.18-13.06 1.86-.3 3.57-.11 5.09.43l.82.01c-.05 5.11-.05 10.41-.05 13.43z" fill="#ffeec8"/><path d="m784.61 131.84-11.11 4.91h-55.321s13.16-14.3 22.34-14.32h.021zm-215.31-2.07c-1.35 4.18-2.67 8.31-3.88 12.15h-.01l-5.04 1.68c-4.51 0-6.08-6.07-4.271-7.88 1.821-1.81 13.201-5.95 13.201-5.95zm111.68 104.22c1.13 1.64 1.289 4.26.279 5.95-1.17.49-2.149.84-2.91 1-6.119 1.32-8.34-3.72-6.97-7.76l.79.25c2.711-1.65 6.661-2.54 8.811.56zm-67.23-1.86.04.25c-5.48.84-7.55-3.66-6.48-7.49l1.021.27c7.129-5.6 13.429 3 5.419 6.97z" fill="#797878"/><path d="m613.75 232.13c8.01-3.97 1.71-12.57-5.42-6.97l-1.021-.27c.131-.44.29-.88.5-1.29.921-1.85 18-9.91 18-9.91l20.79 3.32c-6.76.04-25.619 13.83-32.199 15.25-.21.05-.41.08-.61.12zm58.01.15c.7-1.39 10.36-6.26 16.4-8.62l19.77 3.16c-8.09 3.35-20.149 10.41-26.67 13.12 1.01-1.69.851-4.31-.279-5.95-2.15-3.1-6.101-2.21-8.811-.56l-.79-.25c.11-.31.23-.61.38-.9z" fill="#797878"/><path d="m707.93 226.82-19.77-3.16-41.561-6.65-20.79-3.32-53.43-8.55v-.01l.87-.23s8.97-9.47 22.66-15.16c13.71-5.69 38.52-6.21 38.52-6.21l147.471 47.7-6.4 6.4zm-148.98-64.22s2.77-9.02 6.46-20.68h.01c1.21-3.84 2.53-7.97 3.88-12.15 5.87-18.18 12.4-37.48 14.21-39.29 3.49-3.49 10.08-6.2 10.08-6.2l9.67 67.42-38.62 10.64c-1.8.42-3.689.88-5.67 1.37z" fill="#a8d7f4"/><path d="m603.26 151.7 95.53-26.32 48.09-52.99 15.25-3.1-23.53 52.73 1.92.41c-9.18.02-22.34 14.32-22.34 14.32h8.021v1.13c-6.15 10.56-16.29 16.62-32.58 23.43-13.25 5.54-59.19 22.22-59.19 22.22s-24.81.52-38.52 6.21c-13.69 5.69-22.66 15.16-22.66 15.16l-.87.23-71.07 18.99s-19.119 0-28.699-1.55c-9.561-1.55-16.141-3.51-7.75-14.74 2.939-3.93 6-7.8 9.17-11.32l.66.6s3.479 3.49 9.689 3.49 13.57-3.23 13.57-3.23l-1.04-2.33s-7.49 1.55-10.73 1.55c-3.22 0-6.33-4.52-6.33-4.52l-.75-.8c4.341-4.11 8.841-7.34 13.431-9.03 9.05-3.33 43.14-12.82 66.439-18.53 1.98-.49 3.87-.95 5.67-1.37z" fill="#c8c8c8"/><g fill="none"><g stroke="#231f20"><path d="m565.42 141.92c1.21-3.84 2.53-7.97 3.88-12.15 5.87-18.18 12.4-37.48 14.21-39.29 3.49-3.49 10.08-6.2 10.08-6.2l9.67 67.42.15 1.08m-44.46 9.82s2.77-9.02 6.46-20.68" stroke-width="14"/><path d="m726.2 137.88c-6.15 10.56-16.29 16.62-32.58 23.43-13.25 5.54-59.19 22.22-59.19 22.22s-24.81.52-38.52 6.21c-13.69 5.69-22.66 15.16-22.66 15.16l-.87.23-71.07 18.99s-19.119 0-28.699-1.55c-9.561-1.55-16.141-3.51-7.75-14.74 2.939-3.93 6-7.8 9.17-11.32 1.66-1.86 3.35-3.62 5.069-5.24 4.341-4.11 8.841-7.34 13.431-9.03 9.05-3.33 43.14-12.82 66.439-18.53 1.98-.49 3.87-.95 5.67-1.37l38.62-10.64 95.53-26.32 48.09-52.99 15.25-3.1-23.53 52.73 1.92.41h.021l44.07 9.41-11.11 4.91h-55.321s13.16-14.3 22.34-14.32" stroke-width="14"/><path d="m634.43 183.53 147.47 47.7-6.4 6.4-67.57-10.81-19.77-3.16-41.56-6.65-20.79-3.32-53.43-8.55" stroke-width="14"/><path d="m569.3 129.77s-11.38 4.14-13.2 5.95c-1.81 1.81-.239 7.88 4.271 7.88l5.04-1.68h.01m60.389 71.77s-17.079 8.06-18 9.91c-.21.41-.369.85-.5 1.29-1.069 3.83 1 8.33 6.48 7.49.2-.04.4-.07.61-.12 6.58-1.42 25.439-15.21 32.199-15.25h.03m41.531 6.65c-6.04 2.36-15.7 7.23-16.4 8.62-.149.29-.27.59-.38.9-1.37 4.04.851 9.08 6.97 7.76.761-.16 1.74-.51 2.91-1 6.521-2.71 18.58-9.77 26.67-13.12.19-.07.37-.15.551-.22m-100.151-1.44c7.13-5.6 13.43 3 5.42 6.97" stroke-width="7"/><path d="m672.17 233.43c2.71-1.65 6.66-2.54 8.811.56 1.13 1.64 1.289 4.26.279 5.95-.16.27-.34.51-.56.72" stroke-width="7"/><path d="m479.85 192.07s3.11 4.52 6.33 4.52c3.24 0 10.73-1.55 10.73-1.55l1.04 2.33s-7.36 3.23-13.57 3.23-9.689-3.49-9.689-3.49" stroke-width="13.146"/><path d="m76.06 559.43s24.61-84.64 34.61-125.02c3.54-14.31 9.08-30.88 15.43-47.77 19.62-52.23 46.97-107.41 46.97-107.41 12.2-12.19 35.69-26.54 56.13-37.84 7.54-4.17 14.67-7.92 20.66-10.99 2.11-1.09 4.07-2.09 5.87-2.99 5.1-2.57 8.81-4.37 10.42-5.15.58-.27.89-.42.89-.42" stroke-width="14"/><path d="m189.09 787.28c-2.98-46.12-5.1-157.62-5.1-176.681 0-14.08.29-31.399.74-49.97 1.71-69.45 5.74-156.34 5.74-156.34l-2.3 5.04-73.07 159.941c1.82 4.99 3.97 21.461 3.97 37.12 0 13.301-1.55 26.011-6.17 30.62-5.3 0-1.63-10.54-8.86-12-4.59 7.141-6.78 29.601-16.31 30.641-8.59 1.02-17.73-8.98-19.71-16.011-3.35-11.949-1.55-49.609 8.04-80.21m446.73.92s-24.62-84.649-34.59-125.04c-3.57-14.45-9.19-31.22-15.61-48.28-19.62-52.08-46.81-106.89-46.81-106.89-.63-.63-1.29-1.27-1.98-1.91-12.5-11.77-33.22-25.23-51.2-35.95a780.188 780.188 0 0 0 -30.61-17.29c-2.72-1.45-4.27-2.26-4.27-2.26" stroke-width="14"/><path d="m417 571.14-.23-4.52-.32-6.14-8.05-155.3 3.54 7.76 71.84 157.23c-1.82 4.99-3.98 21.48-3.98 37.15 0 13.29 1.55 25.979 6.17 30.58 5.32 0 1.63-10.5 8.83-12.011 4.61 7.16 6.8 29.62 16.33 30.65 8.62 1.02 17.75-8.95 19.71-16.01 3.36-11.931 1.54-49.61-8.05-80.181" stroke-width="14"/><path d="m413.43 791.52.09-1.319c2.85-45.96 4.86-160.22 4.86-178.75 0-16.7-.52-31.71-1.29-44.851" stroke-width="19.719"/><path d="m319.18 793.17-8.71-154.48-18.02-.09-9.56 154.57m-94.14-232.52h224.42" stroke-width="14"/><path d="m258.62 154.62c2.05-2.47 4.51-4.62 7.32-5.99 2.15-1.06 4.5-1.66 7.03-1.6 3.14.07 6.34 1.3 8.84 3.29 1.35 1.07 2.5 2.36 3.32 3.8" stroke-linecap="square" stroke-miterlimit="10" stroke-width="6.573"/><path d="m282 149c0 .42-.06.86-.19 1.32-.92 3.54-5.15 7.94-8.53 7.94-3.83 0-6.94-2.96-6.94-6.61 0-.91-.05-1.37.13-1.88" stroke-linecap="square" stroke-miterlimit="10" stroke-width="3.286"/><path d="m345.14 154.42c-2.08-2.51-4.58-4.68-7.44-6.05-2.12-1.02-4.44-1.6-6.92-1.55-3.32.08-6.72 1.46-9.28 3.65-1.16.99-2.15 2.16-2.88 3.45" stroke-linecap="square" stroke-miterlimit="10" stroke-width="6.573"/><path d="m323.48 150.48c.01.22.07.45.07.97 0 3.64 3.11 6.6 6.93 6.6s6.92-2.96 6.92-6.6c0-1 .07-1.46-.18-2.05" stroke-linecap="square" stroke-miterlimit="10" stroke-width="3.286"/><path d="m239.52 141.03c-1.52-.54-3.23-.73-5.09-.43-7.08 1.14-6.13 9.09-4.18 13.06 4.73 9.66 2.56 13.21 3.17 20.58.23 2.8 3.43 8.24 10.09 6.97m117.88-40.88c1.53-.55 3.23-.73 5.1-.43 7.08 1.13 6.13 9.09 4.18 13.06-4.74 9.65-2.57 13.21-3.17 20.58-.23 2.79-3.43 8.24-10.1 6.97m-70.98 32.29c8.71 3.47 22.53 3.06 29.95-.17" stroke-width="6.573"/><path d="m360.59 139.15c.01.26.01.51.02.76.16 6.05.22 9.54.22 14.56 0 8.89-1.4 17.64-3.79 25.94-4.77 16.65-13.47 31.53-22.63 42.25-4.96 5.81-10.06 10.4-14.75 13.39-6.55 3.16-11.53 2.7-19.1 2.7-7 0-11.48.7-17.63-2.02-5.44-3.05-11.25-8.04-16.78-14.47-9.07-10.56-17.37-25.03-22.01-41.23-2.43-8.48-3.85-17.44-3.85-26.56 0-3.02 0-8.32.05-13.43.02-2.87.06-5.67.11-7.99" stroke-width="14"/><path d="m303.17 195.21c3.35-.6 2.74-2.56 6.29-1.71 3.06.74 6.3 2.27 7.05-2.51.54-3.28-1.94-3.71-3.25-6.36m-10.09 10.58c.12.01.24.01.37.01l-.59.03c.08-.01.15-.02.22-.04zm-10.27-40.95c5.47 6.01 3.81 20.13 1.36 27.48l-1.03 2.87c-1.31 2.63-3.78 3.06-3.25 6.35.75 4.77 4 3.24 7.05 2.51 3.5-.85 2.73 1.58 6.14 1.74" stroke-width="6.573"/><path d="m275.74 151.52c0 1.23-1.11 2.23-2.49 2.23s-2.5-1-2.5-2.23c0-1.24 1.12-2.23 2.5-2.23s2.49.99 2.49 2.23z" stroke-width="3.286"/><ellipse cx="330.44" cy="151.5" rx="2.5" ry="2.23" stroke-width="3.286"/><path d="m289.26 143.23c-2.95-6.22-14.5-8.64-20.36-7.48-5.49 1.1-8.22 1.76-13.96 6.21m58.27-.09c2.96-6.22 14.52-8.64 20.36-7.48 5.5 1.1 8.24 1.76 13.96 6.21" stroke-width="6.573"/><g stroke-width="14"><path d="m366.49 139.9c.92-5.66 2.56-13.44 1.93-18.79-3.88-32.93-24.26-59.39-50.83-62.48-22-2.56-39.25.23-52.58 8.16 0 0-2.03 1.04-5.05 3.1 0 0-26.15 18.59-26.15 50.63l.62 20.08c1.04-2.16 3.03-5.01 5.4-8.04 6.58-8.42 16.07-18.21 16.07-18.21 5.32-3.9 47.18-17.71 59.58-26.37.03-.01.05-.03.08-.05 0 0 .22.12.64.38 2.72 1.68 13.87 9.31 28.6 29.66 2.72 3.76 13.38 12.12 15.81 21.94.04.18.08.37.12.56.19.84.3 1.7.35 2.57"/><path d="m320.4 88.85c-.62.01-2.94-.17-4.2-.54-.33-.1-.58-.2-.72-.33a.305.305 0 0 1 -.1-.13c3.8-3.7 6.8-9.75 6.8-15.88m-66.45 155.44 42.27 49.59-35.92 22.89-8.36-47.57-3.86-21.92m48.14 46.6-.97 283.65"/><path d="m173.07 279.23 13.41 13.42 67.24-40.33.77-.46m87.14-25.95-43.63 51.09 37.29 21.39 8.36-47.56 3.85-21.93"/><path d="m424.29 277.74-.49.49-12.92 12.92-67.23-40.32-.78-.47m-216.77 136.28 62.07 22.69 1.83.67m280-22-56 24"/></g></g><path d="m0 0h850.394v850.394h-850.394z"/></g></svg>