<svg height="850.394" viewBox="0 0 850.394 850.394" width="850.394" xmlns="http://www.w3.org/2000/svg"><path d="m268.52 493.27c-18.03 61.171-50.97 241.48-64.98 286.101l-84.16-13.64c8.67-43.391 32.86-224.971 50.62-292.891 24.59-94.01 44.84-121.49 64.49-136.39 12.92-9.8 79.61-16.24 97.78-20.44 18.19-4.21 31.73-34.01 31.73-34.01l1.96-2.66c15.61 11.41 34.18 18.03 54.1 18.03 20.79 0 40.11-7.21 56.13-19.55l4.689 1.53s16.33 35.84 34.521 40.05c18.17 4.21 84.859 10.64 97.779 20.45 19.65 14.89 39.9 42.38 64.49 136.39 16.97 64.89 39.8 233.54 49.37 286.29l-84.46 15.01c-14.78-52-46.04-221.86-63.44-280.88-13.84 13.479-15.229 49.71-16.229 60.32-2.23 23.869.399 175.159.689 211.01l-1.599.01-277.95-1.97c.24-33 2.97-188.24.71-212.45-1-10.62-2.39-46.86-16.24-60.31zm299.6-65.96 46.77-58.689-44.19 29.339-13.24-12.88-36.26 38.94-9.521-13.46-45.729 71.01 44.85-42.98 9.51 13.46 36.271-38.95zm-186.2 56.45-45.73-71.01-9.51 13.47-36.26-38.95-13.24 12.88-44.19-29.34 46.76 58.69 11.55-14.21 36.26 38.95 9.52-13.46z" fill="#ffeec8"/><path d="m365.96 279.34c-27.83-20.36-46.28-55.96-46.28-96.47 0-63.23 44.95-114.49 100.38-114.49 55.44 0 100.38 51.26 100.38 114.49 0 39.53-17.551 74.37-44.25 94.95-16.021 12.34-35.341 19.55-56.13 19.55-19.92 0-38.49-6.62-54.1-18.03z" fill="#ffeec8"/><path d="m336.19 412.75 45.73 71.01-44.84-42.98-9.52 13.46-36.26-38.95-11.55 14.21-46.76-58.69 44.19 29.34 13.24-12.88 36.26 38.95zm278.7-44.13-46.77 58.69-11.54-14.21-36.27 38.95-9.51-13.46-44.85 42.98 45.73-71.01 9.52 13.46 36.26-38.94 13.24 12.88z" fill="#ed1e29"/><g fill="none"><g stroke="#231f20"><g stroke-width="21"><path d="m480.88 279.35s16.33 35.84 34.521 40.05c18.17 4.21 84.859 10.64 97.779 20.45 19.65 14.89 39.9 42.38 64.49 136.39 16.97 64.89 39.8 233.54 49.37 286.29.45 2.46.86 4.67 1.25 6.6m-154.76-288.55c1.64 3.49 3.529 8.979 5.609 16.08 17.4 59.02 48.66 228.88 63.44 280.88.54 1.9 1.05 3.65 1.55 5.229"/><path d="m579.32 496.49c-.061.06-.12.12-.181.17-13.84 13.479-15.229 49.71-16.229 60.32-2.23 23.869.399 175.159.689 211.01.021 2.069.03 3.76.03 5.01m-199.629-491s-13.54 29.8-31.73 34.01c-18.17 4.2-84.86 10.64-97.78 20.44-19.65 14.9-39.9 42.38-64.49 136.39-17.76 67.92-41.95 249.5-50.62 292.891m154.76-288.541c-1.64 3.489-3.53 8.979-5.62 16.079-18.03 61.171-50.97 241.48-64.98 286.101"/><path d="m268.35 493.1c.06.051.11.11.17.17 13.85 13.45 15.24 49.69 16.24 60.311 2.26 24.21-.47 179.45-.71 212.45 0 1.43-.01 2.62-.01 3.569m81.92-490.26c-27.83-20.36-46.28-55.96-46.28-96.47 0-63.23 44.95-114.49 100.38-114.49 55.44 0 100.38 51.26 100.38 114.49 0 39.53-17.551 74.37-44.25 94.95-16.021 12.34-35.341 19.55-56.13 19.55-19.92 0-38.49-6.62-54.1-18.03zm55.61 108.46v283.56"/></g><path d="m614.89 368.62-46.77 58.69-11.54-14.21-36.27 38.95-9.51-13.46-44.85 42.98 45.73-71.01 9.52 13.46 36.26-38.94 13.24 12.88zm-381.9 2.19 46.76 58.69 11.55-14.21 36.26 38.95 9.52-13.46 44.84 42.98-45.73-71.01-9.51 13.47-36.26-38.95-13.24 12.88z" stroke-width="7"/></g><path d="m0 0h850.394v850.394h-850.394z"/></g></svg>