<svg height="850.89" viewBox="0 0 850.89 850.89" width="850.89" xmlns="http://www.w3.org/2000/svg"><path d="m578.16 512.29c-13.75 13.34-15.12 49.3-16.12 59.84-2.23 23.851.43 176.04.69 210.101l-2.48.02-274.81-3.95c.29-35.14 2.91-185.81.69-209.54-1-10.54-2.37-46.479-16.11-59.83-4.1 13.891-8.96 33.96-14.2 57.2l-94.76-25.131c3.88-20.65 7.68-38.78 11.23-52.33 24.4-93.26 44.48-120.52 63.97-135.3 12.82-9.72 78.97-16.1 97-20.28 16.2-3.75 30.91-32.81 33.74-38.69 15.42 12.79 33.72 20.2 53.34 20.2 19.771 0 38.19-7.51 53.67-20.47l4.24.12s18.62 38.04 36.66 42.21c18.03 4.18 84.18 10.56 97 20.28 19.49 14.78 39.57 42.04 63.97 135.3 3.53 13.51 7.32 31.56 11.19 52.13l-2.82.08-90 26-1.65.37c-5.33-23.72-10.29-44.22-14.44-58.33z" fill="#ffeec8"/><path d="m420.34 54.67c55 0 99.58 58.19 99.58 129.97 0 45.98-18.3 86.39-45.91 109.49-15.479 12.96-33.899 20.47-53.67 20.47-19.62 0-37.92-7.41-53.34-20.2-27.79-23.05-46.23-63.59-46.23-109.76 0-71.78 44.58-129.97 99.57-129.97z" fill="#9e5c26"/><g fill="none"><g stroke="#231f20" stroke-width="14"><path d="m478.25 294.25s18.62 38.04 36.66 42.21c18.03 4.18 84.18 10.56 97 20.28 19.49 14.78 39.57 42.04 63.97 135.3 3.53 13.51 7.32 31.56 11.19 52.13.399 2.13.81 4.28 1.21 6.46m-115.7-54.29c1.62 3.46 3.5 8.91 5.58 15.95 4.149 14.11 9.109 34.61 14.439 58.33.431 1.88.851 3.79 1.28 5.71"/><path d="m578.32 512.13c-.051.05-.11.101-.16.16-13.75 13.34-15.12 49.3-16.12 59.84-2.23 23.851.43 176.04.69 210.101.01 1.699.02 3.1.02 4.18m-195.26-493.051s-.17.37-.49 1.04c-2.83 5.88-17.54 34.94-33.74 38.69-18.03 4.18-84.18 10.56-97 20.28-19.49 14.78-39.57 42.04-63.97 135.3-3.55 13.55-7.35 31.68-11.23 52.33-.47 2.47-.93 4.97-1.4 7.5m115.93-55.52c-1.62 3.46-3.49 8.909-5.57 15.949-4.1 13.891-8.96 33.96-14.2 57.2-.57 2.51-1.14 5.061-1.71 7.64"/><path d="m269.85 508.76c.06.05.12.11.17.17 13.74 13.351 15.11 49.29 16.11 59.83 2.22 23.73-.4 174.4-.69 209.54-.01 1.95-.02 3.54-.02 4.74m81.58-488.64c-27.79-23.05-46.23-63.59-46.23-109.76 0-71.78 44.58-129.97 99.57-129.97 55 0 99.58 58.19 99.58 129.97 0 45.98-18.3 86.39-45.91 109.49-15.479 12.96-33.899 20.47-53.67 20.47-19.62 0-37.92-7.41-53.34-20.2z"/><path d="m421.84 563.44v209.56m20.17-302.57s6.73 78.45 73.971 96.38m-112.071-97.51s-6.72 78.46-73.96 96.38" stroke-linecap="round" stroke-linejoin="round"/></g><path d="m.25.25h850.394v850.394h-850.394z"/></g></svg>