<svg height="850.394" viewBox="0 0 850.394 850.394" width="850.394" xmlns="http://www.w3.org/2000/svg"><path d="m603.826 345.062h152.268v152.258h-152.268z" fill="none"/><g fill="#5668af"><circle cx="603.826" cy="466.867" r="14.292"/><circle cx="603.826" cy="436.416" r="14.292"/><circle cx="603.826" cy="405.964" r="14.292"/><circle cx="603.826" cy="375.512" r="14.292"/><circle cx="634.28" cy="345.062" r="14.292"/><circle cx="664.733" cy="345.062" r="14.292"/><circle cx="695.188" cy="345.062" r="14.292"/><circle cx="725.641" cy="345.062" r="14.292"/><circle cx="756.094" cy="375.513" r="14.292"/><circle cx="756.094" cy="405.965" r="14.292"/><circle cx="756.094" cy="436.417" r="14.292"/><circle cx="756.094" cy="466.868" r="14.292"/><circle cx="725.64" cy="497.319" r="14.292"/><circle cx="695.187" cy="497.319" r="14.292"/><circle cx="664.732" cy="497.319" r="14.292"/><circle cx="634.279" cy="497.319" r="14.292"/><circle cx="603.826" cy="345.062" r="14.292"/><circle cx="756.094" cy="345.062" r="14.292"/><circle cx="756.094" cy="497.319" r="14.292"/><circle cx="603.826" cy="497.318" r="14.292"/></g><path d="m97.601 422.195h425.842m-390.4 35.44-45.425-35.481 45.336-35.443" fill="none" stroke="#231f20" stroke-width="21"/><path d="m0 0h850.394v850.394h-850.394z" fill="none"/></svg>