<svg height="850.394" viewBox="0 0 850.394 850.394" width="850.394" xmlns="http://www.w3.org/2000/svg"><path d="m363.28 88.2c6.89 0 12.48 5.59 12.48 12.48 0 6.6-5.11 11.99-11.59 12.44-.29.03-.59.04-.89.04h-78.46c-6.89 0-12.48-5.58-12.48-12.48 0-3.44 1.4-6.56 3.66-8.82s5.38-3.66 8.82-3.66z" fill="#c8c8c8"/><path d="m364.17 113.16v31.21h-79.35v-31.21h78.46c.3 0 .6-.01.89-.04zm173.4-11.59-1.57 40.43v2.37h-72v-.37l1.36-42.43c0-7.87 6.39-14.26 14.26-14.26h43.689c7.881 0 14.261 6.39 14.261 14.26z" fill="#c8c8c8"/><path d="m590.92 158.63v597.93c0 7.881-6.39 14.261-14.27 14.261h-322.14c-7.88 0-14.26-6.38-14.26-14.261v-597.93c0-7.87 6.38-14.26 14.26-14.26h322.14c7.88 0 14.27 6.39 14.27 14.26z" fill="#fbee34"/><g fill="none"><path d="m536 144.37h40.65c7.88 0 14.27 6.39 14.27 14.26v597.93c0 7.881-6.39 14.261-14.27 14.261h-322.14c-7.88 0-14.26-6.38-14.26-14.261v-597.93c0-7.87 6.38-14.26 14.26-14.26zm-72-.37 1.36-42.43c0-7.87 6.39-14.26 14.26-14.26h43.689c7.881 0 14.261 6.39 14.261 14.26l-1.57 40.43m-251.18-28.84c-6.89 0-12.48-5.58-12.48-12.48 0-3.44 1.4-6.56 3.66-8.82s5.38-3.66 8.82-3.66h78.46c6.89 0 12.48 5.59 12.48 12.48 0 6.6-5.11 11.99-11.59 12.44-.29.03-.59.04-.89.04zm0 0v30.32m79.35-30.32v30.32" stroke="#231f20" stroke-width="21.397"/><path d="m0 0h850.394v850.394h-850.394z"/></g></svg>