<svg height="850.394" viewBox="0 0 850.394 850.394" width="850.394" xmlns="http://www.w3.org/2000/svg"><path d="m734.158 450.551c1.172 4.289-.019 7.759-.232 11.918-.688 12.02-220.248 22.374-228.825 22.774l-1.963-1.321c7.964-8.521 14.048-18.021 17.871-28.496 2.605-7.145 4.447-16.699 5.61-27.473l2.177.242 204.265 22.812z" fill="#faa41f"/><path d="m734.158 450.551-1.098.456-204.265-22.812-2.177-.242c3.387-31.436.968-73.162-5.173-94.987l.037-.009c1.87 6.736 3.34 13.89 4.345 21.509 0 0 184.132 68.231 201.046 85.153 4.41 4.42 6.448 7.88 7.285 10.932z" fill="#faa41f"/><path d="m521.446 332.966c6.141 21.826 8.56 63.551 5.173 94.987-1.163 10.773-3.005 20.328-5.61 27.473-3.823 10.476-9.907 19.975-17.871 28.496-18.867 20.16-48.275 34.813-83.302 43.931-34.32 8.949-80.083-2.326-99.062 30.589-13.173 22.821-10.522 70.575-3.061 113.846l-244.566-6.484c-15.574-117.883-3.982-242.669 60.249-340.689 42.125-64.267 137.513-116.022 223.094-112.598 46.805 1.87 89.573 17.825 123.037 51.29 17.509 17.509 33.65 39.167 41.958 69.151zm-106.123 19.044s2.456-9.219-14.374-12.131c-21.993-3.787-34.069 16.671-34.069 16.671s23.63 9.694 35.176 7.638c14.254-2.521 13.267-12.178 13.267-12.178z" fill="#fff"/><path d="m400.95 339.878c16.83 2.912 14.374 12.131 14.374 12.131s.986 9.657-13.267 12.178c-11.545 2.056-35.176-7.638-35.176-7.638s12.076-20.457 34.069-16.671z" fill="#fbee34"/><g fill="none"><g stroke="#231f20"><path d="m366.881 356.55s12.076-20.458 34.069-16.671c16.83 2.912 14.374 12.131 14.374 12.131s.986 9.657-13.267 12.178c-11.546 2.056-35.176-7.638-35.176-7.638z" stroke-width="13.025"/><path d="m504.84 485.252s.084 0 .261-.009c8.577-.4 228.137-10.755 228.825-22.774.214-4.159 1.404-7.629.232-11.918-.837-3.052-2.875-6.512-7.284-10.932-16.914-16.922-201.046-85.153-201.046-85.153-1.005-7.619-2.475-14.773-4.345-21.509-8.308-29.984-24.449-51.643-41.958-69.151-33.464-33.464-76.231-49.419-123.037-51.29-85.581-3.424-180.968 48.331-223.094 112.598-64.23 98.02-75.822 222.806-60.249 340.689" stroke-width="26.049"/><path d="m521.028 331.533c.139.465.278.94.418 1.433 6.141 21.826 8.56 63.551 5.173 94.987-1.163 10.773-3.005 20.328-5.61 27.473-3.823 10.476-9.907 19.975-17.871 28.496-18.867 20.16-48.275 34.813-83.302 43.931-34.32 8.949-80.083-2.326-99.062 30.589-13.173 22.821-10.522 70.575-3.061 113.846.279 1.684.577 3.367.884 5.033" stroke-width="26.049"/><path d="m528.796 428.195 204.265 22.812" stroke-width="13.025"/></g><path d="m0 0h850.394v850.394h-850.394z"/><path d="m671.776 154.347-16.512 180.012m-50.863-66.407 50.959 67.627 62.39-57.335" stroke="#231f20" stroke-width="21"/></g></svg>