<svg height="850.394" viewBox="0 0 850.394 850.394" width="850.394" xmlns="http://www.w3.org/2000/svg"><path d="m422.88 307v.04s-18.81.15-37.3 10.04l-1.07-1.97c.69-6.05 1.45-11.21 2.35-15.7 2.06-10.44 4.8-17.29 8.75-23.36 1.89-2.89 4.05-5.61 6.56-8.44 9.13-10.35 20.69-10.42 20.69-10.42v-.01c2.92.26 12.18 1.77 19.77 10.36 2.19 2.48 4.12 4.87 5.84 7.36 4.34 6.34 7.28 13.37 9.471 24.44.89 4.49 1.659 9.65 2.35 15.7l-1.07 1.97c-16.021-8.58-32.291-9.83-36.341-10.01z" fill="#231f20"/><g fill="#34a047"><path d="m421.32 402.14c-5.87-.07-23.12-.06-44.43 2.18-6.37.67-12.99 2.33-18.22 1.48-9.03-1.44-13.95-10.3-6.44-44.41 5.16-23.41 19.16-36.73 33.35-44.31 18.49-9.89 37.3-10.04 37.3-10.04v-.04c4.05.18 20.32 1.43 36.34 10.01 14.181 7.59 28.181 20.91 33.34 44.31 7.521 34.11 2.601 42.97-6.439 44.41-5.23.85-11.851-.81-18.22-1.48-26.41-2.78-46.581-2.13-46.581-2.13z"/><path d="m421.92 406.99 2.47 327.89c-1.22.04-2.42.04-3.61.03-23.49-.811-55.38-9.74-83.16-40.12-25.28-27.66-32.4-80.9-32.48-131.07-.02-7.38.13-14.689.38-21.85.35-9.51.9-18.74 1.57-27.47.57-7.351 1.22-14.341 1.91-20.86 1.29-12.19 2.72-22.72 3.95-30.76.8-5.19 1.97-9.931 3.42-14.24 2.49-7.4 5.8-13.56 9.48-18.68 13.81-19.19 32.77-23.71 32.77-23.71l.05-.35c5.23.85 11.85-.81 18.22-1.48 21.31-2.24 38.56-2.25 44.43-2.18.24.01.47.01.67.02z"/><path d="m467.9 404.25c6.369.67 12.989 2.33 18.22 1.48l.05.35s17.32 4.12 30.9 21.229c4.42 5.57 8.439 12.521 11.35 21.15 1.45 4.32 2.62 9.05 3.42 14.25 1.24 8.04 2.66 18.57 3.96 30.76.69 6.521 1.34 13.511 1.91 20.86a674.95 674.95 0 0 1 1.56 27.47c.261 7.15.4 14.47.391 21.851-.08 50.17-7.2 103.42-32.48 131.069-27.71 30.32-58.17 39.55-82.79 40.16l-2.47-327.89.07-4.83c-.2-.01-.43-.01-.67-.02v-.02c-.001.001 20.169-.649 46.579 2.131z"/></g><g fill="none" stroke="#231f20" stroke-width="21"><path d="m421.92 306.97s.33 0 .96.03c4.05.18 20.32 1.43 36.34 10.01 14.181 7.59 28.181 20.91 33.34 44.31 7.521 34.11 2.601 42.97-6.439 44.41-5.23.85-11.851-.81-18.22-1.48-26.41-2.78-46.581-2.13-46.581-2.13m64.85 3.96s17.32 4.12 30.9 21.229c4.42 5.57 8.439 12.521 11.35 21.15 1.45 4.32 2.62 9.05 3.42 14.25 1.24 8.04 2.66 18.57 3.96 30.76.69 6.521 1.34 13.511 1.91 20.86a674.95 674.95 0 0 1 1.56 27.47c.261 7.15.4 14.47.391 21.851-.08 50.17-7.2 103.42-32.48 131.069-27.71 30.32-58.17 39.55-82.79 40.16-1.22.04-2.42.04-3.61.03h-.38"/><path d="m432.96 257.19s49.25-73.07 125.37-147.97c22.71-22.35 39.229-37.4 44.95-42.76" stroke-linecap="round" stroke-linejoin="round"/><path d="m421.93 257.12s.33 0 .93.06c2.92.26 12.18 1.77 19.77 10.36 2.19 2.48 4.12 4.87 5.84 7.36 4.34 6.34 7.28 13.37 9.471 24.44.89 4.49 1.659 9.65 2.35 15.7"/><path d="m451.38 273.99c7.351-1.92 14.811 2.18 16.64 9.18 1.841 6.99-2.649 14.23-10 16.15"/><path d="m521.34 427.09s20.82-7.61 58.36 14.311c2.54 1.479 5.16 3.1 7.859 4.869 42.471 27.86 57.41 36.11 81.75 36.99 25.12.92 43.391-1.37 43.391-1.37m-171.27 59.83s37.45 12.33 46.59 26.49c2.25 3.5 4.101 12.61 5.61 24.53 4.62 36.319 6.19 98.68 7.17 107.46 2.29 20.55 52.98 78.56 52.98 78.56m-113.72-215.11s47.96 10.5 52.521 29.229m-55.001-99.599c11.74-2.62 35.14-6.86 46.43-1.92 3.851 1.689 10.53 8.409 18.5 17.68 23.91 27.8 59.4 78.54 65.05 85.3 6.761 8.11 29.45 17.4 50.04 24.53m-176.1-104.83s45.79-17.72 59.93-4.64m-71.11-61.6s31.359-13.7 49.02-5.79" stroke-linecap="round" stroke-linejoin="round"/><path d="m422.88 307.04s-18.81.15-37.3 10.04c-14.19 7.58-28.19 20.9-33.35 44.31-7.51 34.11-2.59 42.97 6.44 44.41 5.23.85 11.85-.81 18.22-1.48 21.31-2.24 38.56-2.25 44.43-2.18.24.01.47.01.67.02.97.01 1.49.03 1.49.03"/><path d="m421.92 406.99 2.47 327.89v.101c-1.18 0-2.38-.021-3.61-.07-23.49-.811-55.38-9.74-83.16-40.12-25.28-27.66-32.4-80.9-32.48-131.07-.02-7.38.13-14.689.38-21.85.35-9.51.9-18.74 1.57-27.47.57-7.351 1.22-14.341 1.91-20.86 1.29-12.19 2.72-22.72 3.95-30.76.8-5.19 1.97-9.931 3.42-14.24 2.49-7.4 5.8-13.56 9.48-18.68 13.81-19.19 32.77-23.71 32.77-23.71"/><path d="m411.83 257.26s-49.24-73.07-125.37-147.97c-22.71-22.35-39.23-37.4-44.95-42.76" stroke-linecap="round" stroke-linejoin="round"/><path d="m422.86 257.19s-11.56.07-20.69 10.42c-2.51 2.83-4.67 5.55-6.56 8.44-3.95 6.07-6.69 12.92-8.75 23.36-.9 4.49-1.66 9.65-2.35 15.7"/><path d="m393.41 274.06c-7.35-1.92-14.8 2.18-16.64 9.18-1.83 6.99 2.66 14.23 10.01 16.15"/><path d="m323.46 427.16s-20.52-7.5-57.53 13.82a177.556 177.556 0 0 0 -8.7 5.359c-42.47 27.86-57.41 36.11-81.75 36.99-25.12.92-43.38-1.37-43.38-1.37m171.26 59.831s-37.45 12.34-46.58 26.49c-2.26 3.5-4.1 12.62-5.62 24.54-4.62 36.319-6.19 98.67-7.17 107.449-2.28 20.561-52.98 78.561-52.98 78.561m113.72-215.11s-47.95 10.5-52.52 29.23m55-99.6c-11.74-2.619-35.13-6.859-46.42-1.92-3.86 1.69-10.54 8.41-18.51 17.67-23.9 27.811-59.39 78.561-65.04 85.32-6.77 8.1-29.46 17.39-50.05 24.521m176.1-104.831s-45.78-17.721-59.93-4.641m71.11-61.599s-30.47-14.08-48.13-6.17" stroke-linecap="round" stroke-linejoin="round"/></g><path d="m0 0h850.394v850.394h-850.394z" fill="none"/></svg>