<svg height="850.394" viewBox="0 0 850.394 850.394" width="850.394" xmlns="http://www.w3.org/2000/svg"><path d="m480.77 549.34c-2.569 10.47-4.93 22.811-6.279 36.38-.76 7.49-1.2 15.37-1.2 23.511 0 21.6-6.6 90.319-9.69 138.079l-1.88-.109c4.46-76.24-10.779-129.351-17.13-146.271-8.09-21.62-25.88-44.229-39.45-59.46 3.05 5.351 5.78 10.91 8.15 16.62-63.19-1.859-118.76-30.54-151.27-73.71l80.47-92.25c-42.94 8.93-80.46 30.44-81.37 91.05-17.58-23.79-28.2-51.88-29.33-82.26-3.37-90.68 79.1-167.35 184.19-171.26 105.09-3.9 193.01 66.44 196.38 157.12 2.67 72.14-48.95 135.4-123.091 160.23-2.609.88-5.25 1.7-7.909 2.48zm-234.15-98.43 81.39-93.3c-43.47 9.03-81.38 30.97-81.39 93.3z" fill="#be0000"/><path d="m342.49 392.13-80.47 92.25c-.31-.399-.61-.8-.9-1.2.91-60.61 38.43-82.12 81.37-91.05zm-14.48-34.52-81.39 93.3c.01-62.33 37.92-84.27 81.39-93.3z" fill="#be0000"/><path d="m262.02 484.38-.92 1.061c0-.761.01-1.511.02-2.261.29.4.59.8.9 1.2z" fill="#fff"/><g fill="none"><g stroke="#231f20"><path d="m261.12 483.18c-17.58-23.79-28.2-51.88-29.33-82.26-3.37-90.68 79.1-167.35 184.19-171.26 105.09-3.9 193.01 66.44 196.38 157.12 2.67 72.14-48.95 135.4-123.091 160.23-2.609.88-5.25 1.7-7.909 2.48m-64.5 8.68c-1.19-.02-2.38-.04-3.57-.08-63.19-1.859-118.76-30.54-151.27-73.71" stroke-width="21"/><path d="m387.58 523.18s7.65 7.181 17.56 18.29c13.57 15.23 31.36 37.84 39.45 59.46 6.351 16.92 21.59 70.03 17.13 146.271a489.635 489.635 0 0 1 -4.08 40.51m34.65-273.701s-6.2 13.66-11.521 35.33c-2.569 10.47-4.93 22.811-6.279 36.38-.76 7.49-1.2 15.37-1.2 23.511 0 21.6-6.6 90.319-9.69 138.079-1.029 15.91-1.67 29.5-1.55 38.24" stroke-linecap="round" stroke-linejoin="round" stroke-width="21"/><path d="m497.72 514.63c-2.77 10.33-5.97 21.29-8.45 32.38-4.569 20.42-6.71 41.3.69 59.58 1.16 2.87 2.55 5.67 4.21 8.4 9.4 15.479 18.28 31.399 17.38 50.359-.81 16.75-5.93 28.62 3.07 43.71m-112.8-173.169c1.14 1.83 2.25 3.69 3.32 5.58 3.05 5.351 5.78 10.91 8.15 16.62 9.69 23.37 13.24 49.3 6.81 74.51-4.48 17.54-8.34 35.36-1.94 53.25 5.65 15.78 14.02 25.641 9.8 42.7m46.56-142.83c4.58 7.33 8.341 14.67 11.25 22.12 8.36 21.36 9.721 43.54 3.391 68.41-4.49 17.54-8.351 35.35-1.96 53.24 5.67 15.8 14.03 25.649 9.819 42.71" stroke-linecap="round" stroke-linejoin="round" stroke-width="14"/><path d="m256.38 127.5s33.28 75.92 73.62 116.5m15.31-169.77 24.69 153.77m35.47-167.18.97 162.81m69.97-120.81s-37.65 104.09-60.41 121.18" stroke-width="28"/><path d="m421.38 568.43c15.59 19.051 31.37 65.33 18.46 89.24m-193.22-206.76c.01-62.33 37.92-84.27 81.39-93.3m-66.91 127.83c0-.761.01-1.511.02-2.261.91-60.61 38.43-82.12 81.37-91.05" stroke-linecap="round" stroke-linejoin="round" stroke-width="14"/></g><path d="m0 0h850.394v850.394h-850.394z"/></g></svg>