<svg height="850.394" viewBox="0 0 850.394 850.394" width="850.394" xmlns="http://www.w3.org/2000/svg"><g fill="#9c5b16"><path d="m401.29 195.67-287.33 16.08-3.15.41-4.36-33.41 2.24-.29 443.51-24.82 1.03-.12 3.83 33.43-73.11 4.09zm-140.18 170.56-29.13 4.04-45.1-10.17-58.47-13.19-3.58-27.37s27.84 11.88 51.31 11.88 61.91-2.02 74.45 10.53c0 0 10.52 2.42 10.52 24.28zm507.45-65.29h-17.81l-149.99-10.25-3.24-24.28s39.931 7.55 69.061 7.55c22.13 0 60.97-2.15 77.7 1.08 16.719 3.24 24.279 14.03 24.279 25.9zm-35.6 79.05.18 13.73h-.04l-491.68 80.92-4.31.23-3.61-68.38 191.11-28.39 77.77-11.55 74.15-11.01 26.12-3.88 129.35 28.34z"/><path d="m557.06 186.95-3.83-33.43-.39-3.36 24-2.01 25.81 203.51-26.12 3.88-.53-3.54zm-319.95 287.92.07 1.31-.41.02-120.46-32.23-.62-20.43 3.79-.12 18.58-2.76 56.13-8.34 39.31-5.83z"/><path d="m115.63 421.44-2.89.09-30.85-245.07 24-2.01.56 4.3 4.36 33.41 14.02 107.38 3.58 27.37 9.42 72.19.23 1.56-18.58 2.76-3.79.12z"/></g><g fill="none"><g stroke="#231f20"><path d="m108.69 178.46 443.51-24.82m-438.24 58.11 287.33-16.08 82.66-4.63 73.11-4.09.4-.02" stroke-width="21"/><path d="m115.57 419.51.06 1.93.06 2.1.62 20.43 3.98 130.37 1.62 53.29" stroke-width="28"/><path d="m124.83 319.54-14.02-107.38-4.36-33.41-.56-4.3-24 2.01 30.85 245.07m25.09-2.43-9.42-72.19" stroke-width="21"/><path d="m732 306 .96 73.99.18 13.73 1.71 131.9.52 40.51m-138.39-138.4v95.5" stroke-width="28"/><path d="m601.84 488.43 133.01 37.19.04.01" stroke-width="28"/><path d="m597.52 266.41s39.931 7.55 69.061 7.55c22.13 0 60.97-2.15 77.7 1.08 16.72 3.24 24.279 14.03 24.279 25.9h-17.81l-149.99-10.25zm-472.69 53.13s27.84 11.88 51.31 11.88 61.91-2.02 74.45 10.53c0 0 10.52 2.42 10.52 24.28l-29.13 4.04-45.1-10.17-58.47-13.19z" stroke-width="21"/><path d="m232 378 1.5 28.49 3.61 68.38.07 1.31 8.5 161.04 3.29 62.44" stroke-width="28"/><path d="m124.34 574.22 121.34 63 .08.04" stroke-width="28"/><path d="m241.42 474.64 491.68-80.92" stroke-width="42"/><path d="m119.48 423.42 18.58-2.76 56.13-8.34 39.31-5.83 191.11-28.39 77.77-11.55 74.15-11.01 26.12-3.88-25.81-203.51-24 2.01.39 3.36 3.83 33.43 18.94 165.05m156 28-129.35-28.34" stroke-width="21"/><path d="m113.12 443.11 3.19.86 120.46 32.23" stroke-width="42"/><path d="m186 364 7.59 44.31m-27.11-198.55 15.52 112.24m62.96-115.08 27.04 187.08m129.27-198.51.02.18 22.71 178.33m-98.41-169.72 22.41 177.72m136-190 18 172" stroke-width="25.898"/></g><path d="m0 0h850.394v850.394h-850.394z"/></g></svg>