<svg height="850.394" viewBox="0 0 850.394 850.394" width="850.394" xmlns="http://www.w3.org/2000/svg"><g fill="#fff400"><path d="m408.29 560.86-.29 117.14.07.52-56.93 7.24v-119z"/><path d="m408.07 678.52 60.29-7.67 55.64-7.08 62-7.88 58-7.38 36.47-4.64-44.28 92.83-353.14 43.5-30.22-81.94 38.29-4.87 60.02-7.63z"/><path d="m408.29 560.86 59.41-6.13v110.94l.66 5.18-60.29 7.67-.07-.52zm272.18 83.01-36.47 4.64-.08-41.24 35.69 24.1 15.71 10.61z"/><path d="m644 648.51-58 7.38.12-87.67 57.8 39.05z"/><path d="m586.12 568.22-.12 87.67-62 7.88.34-114.88 28.76-2.97z"/><path d="m524.34 548.89-.34 114.88-55.64 7.08-.66-5.18v-110.94zm-173.2 17.87v119l-60.02 7.63v-120.44zm-92.33 9.53 32.31-3.34v120.44l-38.29 4.87-36.07-36.81.36-.35v-80.51zm-5.98 121.97 30.22 81.94-1.35 1.35-83.48-86.18-28.4-80.2.81-.79 11.36 11.59 34.77 35.48z"/><path d="m217.12 580.59v80.51l-.36.35-34.77-35.48v-41.75z"/><path d="m181.99 584.22v41.75l-11.36-11.59-23.33-23.81 3.16-3.1 5.92-.61z"/></g><g fill="none"><g stroke="#231f20"><g stroke-width="21"><path d="m680.92 642.93-.45.94-44.28 92.83-353.14 43.5-30.22-81.94-.35-.95m29.22 84.24-83.48-86.18-28.4-80.2"/><path d="m141.55 584.7 5.75 5.87 23.33 23.81 11.36 11.59 34.77 35.48 36.07 36.81 38.29-4.87 60.02-7.63 56.93-7.24 60.29-7.67 55.64-7.08 62-7.88 58-7.38 36.47-4.64 14.85-1.89 11.27-1.43"/><path d="m695.33 641.99-.01-.01-15.71-10.61-35.69-24.1-57.8-39.05-33.02-22.3-28.76 2.97-56.64 5.84-59.41 6.13-57.15 5.9-60.02 6.19-32.31 3.34-41.69 4.3-35.13 3.63-25.61 2.64-5.92.61m66.66-242.49-12.55 8.21-22.58-18.39-14.19-11.56-11.71-9.53-27.33-22.26-36.14-29.44 248.13-158.11 43.98 20.66 12.52 5.88 37.23 17.5 13.65 6.4 35.11 16.5 44.31 20.82 60.33 28.34 55.38 26.02 40.34 18.95 66.5 31.24m-491.29 21.49-41.69 27.27m74-48.41-32.31 21.13"/><path d="m483.24 170.84-17.75 11.62-56.36 36.87-57.99 37.95-60.02 39.27"/></g><path d="m433.51 150.01-265.71 173.23m219.27-200.2-2.34 1.52-255.97 166.89" stroke-width="13.849"/><path d="m681.2 270.09v358.93" stroke-width="21"/><path d="m643.26 245.71v.31l.39 210.51.27 150.74.08 41.24v1.49m-57.43-427.22-.2 148.54-.12 91.49-.13 105.41-.12 87.67v.11m-60.6-459.77-.54 181.97-.28 91.35-.24 79.34-.34 114.88v.23" stroke-width="14"/><path d="m467.7 185.84v479.83" stroke-width="21"/><path d="m291.12 296.55v398.16m-74-349.74v316.13m-35.13-331v295.87m227.14-406.66v.02l-.42 171.85-.23 91.06-.19 78.62-.29 117.14m-56.86-420.72v430.35" stroke-width="14"/><path d="m258.81 317.69v369.03" stroke-width="20.774"/><path d="m156.09 313.71v270.3" stroke-width="21"/><path d="m610.58 368.62-24.21 2.7-61.51 6.88-57.16 6.39-58.99 6.59-57.57 6.43-60.02 6.71-32.31 3.61-41.69 4.66-9.32 1.04" stroke-linecap="round" stroke-linejoin="round" stroke-width="32"/><path d="m450.68 148.91v-64.05l-51.94-19.04v61.45m282.46 325.16-37.55 4.1-57.4 6.28-61.67 6.74-56.88 6.22-59.22 6.47-57.34 6.27-60.02 6.56-32.31 3.53-41.69-26.37-35.13-22.21-25.9-16.38-4.03-2.55" stroke-width="21"/></g><path d="m0 0h850.394v850.394h-850.394z"/></g></svg>