<svg height="850.394" viewBox="0 0 850.394 850.394" width="850.394" xmlns="http://www.w3.org/2000/svg"><path d="m354.37 608.81c-10.82 2.11-21.43 3.721-31.56 4.721h-.01c-32.33 3.229-59.8.359-73.65-11.9a28.286 28.286 0 0 1 -4.35-4.76c-7.94-11-6.87-21.68-.74-29.521l5.94.65c22 10 20 10 46 10 29.67 0 78.71-10.78 132.29-25.71 116.19-32.39 253.76-84.32 261.71-88.29 20-10 91.02-11.88 20.22-66.21-36.22-27.79-72.22-61.79-127.25-117.65-8.66-8.79-18.279-17.29-27.26-25.92l-.95-.3c3.4-10.69 5.95-19.73 7.75-27.41 18.62.03 55.57 40.43 90.46 72.63 28.7 26.49 104.44 81.63 127.25 117.65 22.8 36.02 6 50.42-20.41 58.83-12.949 4.12-348.14 121.25-399.77 132.05-1.9.4-3.79.78-5.67 1.14z" fill="#cc82b7"/><path d="m710.22 397.79c70.8 54.33-.22 56.21-20.22 66.21-7.95 3.97-145.52 55.9-261.71 88.29l-.62-2.24c13.23-3.66 24.87-9.58 31.08-19.03 2.54-3.85 4.18-8.289 4.65-13.399 4.18-11.94 10.859-31.01 18.739-53.57 24.801-70.9 61.551-176.3 70.49-203.54.74-2.26 1.45-4.46 2.13-6.59l.95.3c8.98 8.63 18.6 17.13 27.26 25.92 55.031 55.859 91.031 89.859 127.251 117.649z" fill="#eedceb"/><path d="m562.51 226.51c-1.8 7.68-4.35 16.72-7.75 27.41-.68 2.13-1.39 4.33-2.13 6.59-8.939 27.24-45.689 132.64-70.49 203.54l-.14-.05c-30-62-126-134-136-198l-5.35-1.86c45.84-22.29 145.45-67.04 145.45-67.04s55.841-27.21 73.23-12.01c7 6.12 8.97 16.77 3.18 41.42z" fill="#eedceb"/><path d="m447.68 474.3a186.451 186.451 0 0 0 -6-8.29c-62.2-81.35-88.84-112.85-88.84-112.85s-60.62-64.22-25.81-82.23c1.29-.67 2.69-1.38 4.21-2.15 2.78-1.4 5.94-2.96 9.41-4.64l5.35 1.86c10 64 106 136 136 198l.14.05c-7.88 22.561-14.56 41.63-18.739 53.57 1.029-11.02-3.341-25.18-15.721-43.32z" fill="#cc82b7"/><path d="m447.68 474.3c12.38 18.141 16.75 32.3 15.721 43.32-2.971 8.479-4.69 13.37-4.69 13.37l.04.029c-6.21 9.45-17.85 15.37-31.08 19.03-30.72 8.49-70.03 4.8-70.03 4.8h-85.23c-11.79 0-22.43 4.92-28.35 12.5-6.13 7.841-7.2 18.521.74 29.521 1.25 1.729 2.7 3.32 4.35 4.76-7.57-.61-17.19-9.37-25.69-18.979-7.05-7.96-13.32-16.5-17.02-21.48-2.2-2.96-4.34-5.96-6.43-9l3.989-.171c65.4-79.27 230.95 4.45 243.68-77.7z" fill="#cc82b7"/><path d="m458.71 530.99s1.72-4.891 4.69-13.37c-.471 5.11-2.11 9.55-4.65 13.399z" fill="#ffffc2"/><path d="m441.68 466.01a186.451 186.451 0 0 1 6 8.29c-12.73 82.15-178.28-1.57-243.68 77.7l-3.99.17c-14.63-21.25-26.79-44.27-40.39-66.04-14.55-23.3-32.31-46.46-48.92-68.11-11.48-14.95-45.6-53.4-53.89-18.75h-.03c.08-2.48.33-5.02.74-7.63 6.94-43.65 57.35-61.07 94.59-72.09 27.81-8.24 55.25-14.68 83.42-21.28 27.17-6.37 69.97-16.68 95.68-29.55l.03.06c-1.52.77-2.92 1.48-4.21 2.15-34.81 18.01 25.81 82.23 25.81 82.23s26.64 31.5 88.84 112.85zm-14.01 84.04.62 2.24c-53.58 14.93-102.62 25.71-132.29 25.71-26 0-24 0-46-10l-5.94-.65c5.92-7.58 16.56-12.5 28.35-12.5h85.23s39.31 3.69 70.03-4.8zm-73.3 58.76c-10.76 4.551-32.29 22.15-40.1 30.25-11.85 12.29-24.67 21.5-40.78 27.391-19.61 7.18-38.3 4.649-53.22-6.45l.52-.71c-14.65-24.021 2.74-37.28 25.45-40.58 16.26-2.36 55.9 9.09 76.56-5.18h.01c10.13-1.001 20.74-2.611 31.56-4.721z" fill="#eedceb"/><path d="m249.15 601.63c13.85 12.26 41.32 15.13 73.65 11.9-20.66 14.27-60.3 2.819-76.56 5.18-22.71 3.3-40.1 16.56-25.45 40.58l-.52.71c-4.89-3.64-9.38-8.2-13.36-13.65-7.34-10.029-14.13-20.54-20.64-31.29 2.82-11.38-12.95-17.43 35.73-31.06l1.46-1.35c8.5 9.61 18.12 18.37 25.69 18.98z" fill="#cc82b7"/><path d="m223.46 582.65-1.46 1.35c-48.68 13.63-32.91 19.68-35.73 31.06-16.43-27.119-31.08-55.77-48.12-82.18-15.49-24.01-31.63-46.05-49.45-68.07-16.09-19.89-32.84-39.229-31.92-65.54h.03c8.29-34.65 42.41 3.8 53.89 18.75 16.61 21.65 34.37 44.81 48.92 68.11 13.6 21.771 25.76 44.79 40.39 66.04 2.09 3.04 4.23 6.04 6.43 9 3.7 4.98 9.97 13.52 17.02 21.48z" fill="#eedceb"/><g fill="none"><g stroke="#231f20"><g stroke-width="21.159"><path d="m322.81 613.53c10.13-1 20.74-2.61 31.56-4.721 1.88-.359 3.77-.739 5.67-1.14 51.63-10.8 386.82-127.93 399.77-132.05 26.41-8.41 43.21-22.811 20.41-58.83-22.81-36.02-98.55-91.16-127.25-117.65-34.89-32.2-71.84-72.6-90.46-72.63h-.02"/><path d="m458.71 530.99s1.72-4.891 4.69-13.37c4.18-11.94 10.859-31.01 18.739-53.57 24.801-70.9 61.551-176.3 70.49-203.54.74-2.26 1.45-4.46 2.13-6.59 3.4-10.69 5.95-19.73 7.75-27.41 5.79-24.65 3.82-35.3-3.18-41.42-17.39-15.2-73.23 12.01-73.23 12.01s-99.609 44.75-145.45 67.04c-3.47 1.68-6.63 3.24-9.41 4.64-1.52.77-2.92 1.48-4.21 2.15-34.81 18.01 25.81 82.23 25.81 82.23s26.64 31.5 88.84 112.85a186.451 186.451 0 0 1 6 8.29c12.38 18.141 16.75 32.3 15.721 43.32-.471 5.11-2.11 9.55-4.65 13.399-6.21 9.45-17.85 15.37-31.08 19.03-30.72 8.49-70.03 4.8-70.03 4.8h-85.23c-11.79 0-22.43 4.92-28.35 12.5-6.13 7.841-7.2 18.521.74 29.521 1.25 1.729 2.7 3.32 4.35 4.76 13.85 12.26 41.32 15.13 73.65 11.9"/><path d="m332.42 268.11c-.4.21-.8.41-1.21.61-25.71 12.87-68.51 23.18-95.68 29.55-28.17 6.6-55.61 13.04-83.42 21.28-37.24 11.02-87.65 28.44-94.59 72.09a62.05 62.05 0 0 0 -.74 7.63c-.92 26.31 15.83 45.65 31.92 65.54 17.82 22.021 33.96 44.061 49.45 68.07 17.04 26.41 31.69 55.061 48.12 82.18 6.51 10.75 13.3 21.261 20.64 31.29 3.98 5.45 8.47 10.011 13.36 13.65 14.92 11.1 33.61 13.63 53.22 6.45 16.11-5.891 28.93-15.101 40.78-27.391 7.81-8.1 29.34-25.699 40.1-30.25.04-.02.08-.029.12-.05"/><path d="m220.79 659.29c-14.65-24.021 2.74-37.28 25.45-40.58 16.26-2.36 55.9 9.09 76.56-5.18h.01m-266-214.26c8.29-34.65 42.41 3.8 53.89 18.75 16.61 21.65 34.37 44.81 48.92 68.11 13.6 21.771 25.76 44.79 40.39 66.04 2.09 3.04 4.23 6.04 6.43 9 3.7 4.98 9.97 13.521 17.02 21.48 8.5 9.609 18.12 18.369 25.69 18.979.15.021.3.021.45.03"/></g><path d="m346 266c10 64 106 136 136 198m-34 8c-.09.78-.2 1.55-.32 2.3-12.73 82.15-178.28-1.57-243.68 77.7m18 32c-48.68 13.63-32.91 19.68-35.73 31.06-.07.311-.16.62-.27.94" stroke-width="14"/><path d="m250 568c22 10 20 10 46 10 29.67 0 78.71-10.78 132.29-25.71 116.19-32.39 253.76-84.32 261.71-88.29 20-10 91.02-11.88 20.22-66.21-36.22-27.79-72.22-61.79-127.25-117.65-8.66-8.79-18.279-17.29-27.26-25.92" stroke-linecap="round" stroke-linejoin="round" stroke-width="14"/></g><path d="m0 0h850.394v850.394h-850.394z"/></g></svg>