<svg height="850" viewBox="0 0 850 850" width="850" xmlns="http://www.w3.org/2000/svg"><path d="m415.2 81.5 14.2 1.3 13.3 1.7 12.2 2 11.5 2 10.8 2.5 9.7 2.3 9.3 2.5 8 2.5 7.5 2.5 6.7 2.5 5.8 2.2 5.2 2.3 8 4 5.3 2.7-2 3.8-257.8.2v-5l6-3 8.5-4 5.3-2.2 6-2.3 6.5-2.2 7.5-2.5 8-2.3 8.7-2.2 9.5-2.3 10.3-2.2 11-2 11.7-1.8 12.8-1.5 13.2-1.5z" fill="#c8c8c8"/><path d="m363.7 678.3 1.2.2 1 .3 1 .5 1 .7 1 .8 1 1 1.8 2.5 1.2 2.7 1 3.5.8 3.8.2 4-.2 3.7-.8 3.8-1 3.5-1.2 2.7-1.8 2.5-1 1-1 .8-1 .7-1 .5-1 .3-1.2.2-1.3-.2-1-.3-1-.5-1-.7-1-.8-1-1-1.7-2.5-1.3-2.7-1-3.5-.7-3.8-.3-3.7.3-4 .7-3.8 1-3.5 1.3-2.7 1.7-2.5 1-1 1-.8 1-.7 1-.5 1-.3zm47.5-.3 1.2.3 1 .2 1.3.5 1 .8 1 .7.7 1 1.8 2.5 1.5 2.8 1 3.5.5 3.5.2 4-.2 4-.5 3.7-1 3.5-1.5 2.8-1.8 2.5-.7 1-1 .7-1 .8-1.3.5-1 .2h-2.2l-1.3-.2-1-.5-1-.8-1-.7-1-1-1.5-2.5-1.5-2.8-1-3.5-.7-3.7v-8l.7-3.5 1-3.5 1.5-2.8 1.5-2.5 1-1 1-.7 1-.8 1-.5 1.3-.2zm48.2.3 1 .2 1.3.3 1 .5 1 .7 1 .8 1 1 1.5 2.5 1.5 2.7 1 3.5.5 3.8.2 4-.2 3.7-.5 3.8-1 3.5-1.5 2.7-1.5 2.5-1 1-1 .8-1 .7-1 .5-1.3.3-1 .2-1.2-.2-1-.3-1.3-.5-1-.7-1-.8-.7-1-1.8-2.5-1.5-2.7-1-3.5-.5-3.8-.2-3.7.2-4 .5-3.8 1-3.5 1.5-2.7 1.8-2.5.7-1 1-.8 1-.7 1.3-.5 1-.3z" fill="#7a7878"/><path d="m410.4 505.5 16.3-.3 14.3-.3 12.3-.8 10.8-.8 9-1 7.5-1 6.3-1 4.8-1.3 4-1.3 2.8-1.3 2.3-1 1.3-1.3 1-.8.3-.8.3-.8v.3l52.3 231.8-24.5 38-9.5 1.3-11 1-14.5 1.3-17.3 1.3-19.8 1.3-21.5.8-11.3.3h-11.5l-4.5.3h-11.5l-11.3-.3-21.8-.8-20-1.3-17.5-1.3-14.8-1.3-11.3-1.3-9.8-1-24.5-38 52-231.8.3.8.3.8 1 1 1.3 1 2 1 2.8 1.3 3.8 1.3 4.8 1 6 1.3 7.3 1 8.8 1 10.5 1 12 .5 14 .5h15.4zm60 192.8-.3-4-.5-3.8-1-3.5-1.5-2.8-1.5-2.5-1-1-1-.8-1-.8-1-.5-1.3-.3-1-.3-1.3.3-1 .3-1.3.5-1 .8-1 .8-.8 1-1.8 2.5-1.5 2.8-1 3.5-.5 3.8-.3 4 .3 3.8.5 3.8 1 3.5 1.5 2.8 1.8 2.5.8 1 1 .8 1 .8 1.3.5 1 .3 1.3.3 1-.3 1.3-.3 1-.5 1-.8 1-.8 1-1 1.5-2.5 1.5-2.8 1-3.5.5-3.8zm-48-.5-.3-4-.5-3.5-1-3.5-1.5-2.8-1.8-2.5-.8-1-1-.8-1-.8-1.3-.5-1-.3-1.3-.3-1 .3-1.3.3-1 .5-1 .8-1 .8-1 1-1.5 2.5-1.5 2.8-1 3.5-.8 3.5v8l.8 3.8 1 3.5 1.5 2.8 1.5 2.5 1 1 1 .8 1 .8 1 .5 1.3.3h2.3l1-.3 1.3-.5 1-.8 1-.8.8-1 1.8-2.5 1.5-2.8 1-3.5.5-3.8zm-47.5.5-.3-4-.8-3.8-1-3.5-1.3-2.8-1.8-2.5-1-1-1-.8-1-.8-1-.5-1-.3-1.3-.3-1.3.3-1 .3-1 .5-1 .8-1 .8-1 1-1.8 2.5-1.3 2.8-1 3.5-.8 3.8-.3 4 .3 3.8.8 3.8 1 3.5 1.3 2.8 1.8 2.5 1 1 1 .8 1 .8 1 .5 1 .3 1.3.3 1.3-.3 1-.3 1-.5 1-.8 1-.8 1-1 1.8-2.5 1.3-2.8 1-3.5.8-3.8z" fill="#c8c8c8"/><g fill="none" stroke="#231f20" stroke-linecap="round" stroke-miterlimit="10"><path d="m285.2 143.5h-40.5l48.2 79.3m27 269.5.3.7.2.8 1 1 1.3 1 2 1 2.7 1.2 3.8 1.3 4.7 1 6 1.2 7.3 1 8.7 1 10.5 1 12 .5 14 .5h16l2.5.3" stroke-width="21"/><path d="m503.2 492 10.5-105.2 24.7-247 2.3-21.5-257.8.2h-.2l2.5 25 7.7 79.3 27 269.2m90.5 13.5 16.3-.2 14.2-.3 12.3-.7 10.7-.8 9-1 7.5-1 6.3-1 4.7-1.2 4-1.3 2.8-1.2 2.2-1 1.3-1.3 1-.7.2-.8.3-.7v-.3" stroke-width="21"/><path d="m503.2 492 52.2 231.8-24.5 38-9.5 1.2-11 1-14.5 1.3-17.2 1.2-19.8 1.3-21.5.7-11.2.3h-11.5l-4.5.2h-11.5l-11.3-.2-21.7-.8-20-1.2-17.5-1.3-14.8-1.2-11.2-1.3-9.8-1-24.5-38 52-231.7v-.3m225.8-375.7-3-1.8-5.3-2.7-8-4-5.2-2.3-5.8-2.2-6.7-2.5-7.5-2.5-8-2.5-9.3-2.5-9.7-2.3-10.8-2.5-11.5-2-12.2-2-13.3-1.7-14.2-1.3h-7.3l-13.2 1.5-12.8 1.5-11.7 1.8-11 2-10.3 2.2-9.5 2.3-8.7 2.2-8 2.3-7.5 2.5-6.5 2.2-6 2.3-5.3 2.2-8.5 4-6 3-3.7 2.3-1.3.7m265.8 23.8 2.2-.3 5.5-.7 3.8-.3h4.2l4.5.3 4.8.5 4.7.7 4.5 1.3 2.3 1 2.2 1 2 1 2 1.2 1.8 1.5 1.7 1.8 1.5 1.7 1.3 2.3 1.2 2.2.8 2.5.7 2.5.5 3 4.8 51.5 5.2 61.5 6.3 73.3-33.8 13-32 12-16.7 6.2-16 5.8" stroke-width="21"/><path d="m371.2 508.5-16.8 126.8m96.8-126.3 16.7 126.5" stroke-width="14"/><path d="m374.9 698.3-.2 3.7-.8 3.8-1 3.5-1.2 2.7-1.8 2.5-1 1-1 .8-1 .7-1 .5-1 .3-1.2.2-1.3-.2-1-.3-1-.5-1-.7-1-.8-1-1-1.7-2.5-1.3-2.7-1-3.5-.7-3.8-.3-3.7.3-4 .7-3.8 1-3.5 1.3-2.7 1.7-2.5 1-1 1-.8 1-.7 1-.5 1-.3 1.3-.2 1.2.2 1 .3 1 .5 1 .7 1 .8 1 1 1.8 2.5 1.2 2.7 1 3.5.8 3.8zm47.5-.5-.2 4-.5 3.7-1 3.5-1.5 2.8-1.8 2.5-.7 1-1 .7-1 .8-1.3.5-1 .2h-2.2l-1.3-.2-1-.5-1-.8-1-.7-1-1-1.5-2.5-1.5-2.8-1-3.5-.7-3.7v-8l.7-3.5 1-3.5 1.5-2.8 1.5-2.5 1-1 1-.7 1-.8 1-.5 1.3-.2 1-.3 1.2.3 1 .2 1.3.5 1 .8 1 .7.7 1 1.8 2.5 1.5 2.8 1 3.5.5 3.5zm48 .5-.2 3.7-.5 3.8-1 3.5-1.5 2.7-1.5 2.5-1 1-1 .8-1 .7-1 .5-1.3.3-1 .2-1.2-.2-1-.3-1.3-.5-1-.7-1-.8-.7-1-1.8-2.5-1.5-2.7-1-3.5-.5-3.8-.2-3.7.2-4 .5-3.8 1-3.5 1.5-2.7 1.8-2.5.7-1 1-.8 1-.7 1.3-.5 1-.3 1.2-.2 1 .2 1.3.3 1 .5 1 .7 1 .8 1 1 1.5 2.5 1.5 2.7 1 3.5.5 3.8z" stroke-width="12.5"/></g></svg>