<svg height="850" viewBox="0 0 850 850" width="850" xmlns="http://www.w3.org/2000/svg"><path d="m672.3 577.8 5.8-1.5 5.8-.8 5.5-.5 5.3-.3h18.8l4-.5 4-.5 4-1 3.5-1.3 1.8-1 1.8-1 1.8-1.3 1.5-1.5 1.8-1.5 1.5-1.8 1.5-2 1.5-2.3 1.8-3 1-3 .8-3.3.5-3.5-.3-3.5-.8-3.8-1-3.5-1.8-4-2-4-2.8-4-3-4.3-3.8-4.3-4.3-4.3-4.5-4.5-5.3-4.8-6-4.8-4.3-3.3-7-5-7.5-5.3-8.3-5.3-8.8-5.3-9.5-5.5-10.3-5.8-10.8-5.5-11.5-5.8-8.8-4.3-8.8-4-8.5-3.5-8.5-3.3-8.3-3-8.3-2.8-8-2.5-8-2.3-7.5-2-7.5-1.8-7.3-1.5-7.3-1.5-12.9-1.1-12.5-1.5-11.3-1-10.2-.5-8.8-.3-7.5.3-6 .3-4.3.3-3.8.3-8.5.5-8.8.8-8.5.8-8.5 1.3-8.5 1.3-8.3 1.5-8.3 1.8-8.3 1.8-8 2-7.8 2.3-8 2.3-7.8 2.5-15 5.3-14.5 5.5-14 6-13.3 6-12.8 6.5-12 6.3-11.5 6.5-10.5 6.3-10 6-9 6 .3 2.8.3 4.8 1 6 1.5 7.5.3 2 1.3 4.3 1.5 4.5 1.5 5 2 5 2.3 5.3 2.5 5.3 3 5.5 3.3 5.8 5.3 8 3 4 3.3 4.3 3.3 4 3.5 4 4 4.3 4 4.3 4.3 4 4.3 3.8 5.5 4.5 5.5 4.3 5.8 4 5.8 3.8 5.8 3.8 6 3.3 6 3 6.3 3 6 2.5 6.3 2.5 6.3 2.3 6.3 2 6.3 1.8 6.3 1.8 6.5 1.5 6.3 1.3 6.5 1 6.3 1 6.3.8 6.3.5 12.5.8 12.5.3 12-.3 11.8-1 11.5-1.3 11-1.5 10.3-2 10-2 10.3-2.5 10-2.8 9.8-2.8 9.8-3 9.5-3.3 9.3-3.3 18.3-6.8 17-7 16.3-6.8 14.8-6.3 12.5-5.3 11-4.5 9.8-3.5 4.5-1.5zm89.5-437.8v570.5h-674.8v-570.5z" fill="#ffeec8"/><path d="m706.3 493.8 4.2 3.2-3.7 2z" fill="#ef947d"/><path d="m632.8 450.5 11.5 5.8 10.7 5.5 10.3 5.7 9.5 5.5 8.7 5.3 8.3 5.2 7.5 5.3 7 5 .5 5.2-6.8 3-7 3-7.5 2.8-8 2.7-8.2 2.8-8.8 2.7-9.2 2.5-9.5 2.5-9.8 2.5-10 2.3-10.5 2.2-10.7 2-11.3 2-11.2 2-11.5 1.8-11.8 1.7-20.2 2.5-21 2-18.5 1.5-18.8 1-3.2.3-15.8.5-17.5.5-16 .2h-16.5l-17.2-.2-17-.8-5.8-.2-11.5-.8-11.7-1-11.3-1.2-11-1.3-11.5-2-11-2-10.2-2.5-9.8-2.7-4.5-1.5-11.7-4.3-9.3-4-3.7-1.7-3.5-1.8-2.8-1.7-2.5-1.8-1.2-1-1.5-7.5-1-6-.3-4.7-.2-2.8 9-6 10-6 10.5-6.2 11.5-6.5 12-6.3 12.7-6.5 13.3-6 14-6 14.5-5.5 15-5.2 7.7-2.5 8-2.3 7.8-2.2 8-2 8.2-1.8 8.3-1.7 8.2-1.5 8.5-1.3 8.5-1.2 8.5-.8 8.8-.7 8.5-.5 3.7-.3 4.3-.2 6-.3 7.5-.2 8.7.2 10.3.5 11.2 1 12.5 1.5 13.3 2.3 7.2 1.5 7.3 1.5 7.5 1.7 7.5 2 8 2.3 8 2.5 8.2 2.7 8.3 3 8.5 3.3 8.5 3.5 8.7 4z" fill="#ffeec8"/><path d="m741.8 559.3-1.5 2.2-1.5 2-1.5 1.8-1.8 1.5-1.5 1.5-1.7 1.2-1.8 1-1.7 1-3.5 1.3-4 1-4 .5-4 .5h-18.8l-5.2.2-5.5.5-5.8.8-5.7 1.5-4 1-4.5 1.5-9.8 3.5-11 4.5-12.5 5.2 6.3-3 6-2.7 5.7-3 5.3-3.3 5-3 4.7-3.2 4.3-3.3 4-3.5 3.7-3.2 3.5-3.3 3.3-3.5 3-3.2 2.7-3.5 2.5-3.3 2.3-3.5 2-3.2 2-3.3 1.5-3.2 2.7-6.3 2.3-6.2 1.5-5.5 1-5.5.5-4.8.2-4.2.3-3.8 3.7-2 6 4.8 5.3 4.7 4.5 4.5 4.2 4.3 3.8 4.2 3 4.3 2.7 4 2 4 1.8 4 1 3.5.7 3.7.3 3.5-.5 3.5-.8 3.3-1 3z" fill="#ef947d"/><path d="m630.5 593.5-14.7 6.3-16.3 6.7-17 7-18.2 6.8-9.3 3.2-9.5 3.3-9.7 3-9.8 2.7-10 2.8-10.2 2.5-10 2-10.3 2-11 1.5-11.5 1.2-11.7 1-12 .3-12.5-.3-12.5-.7-6.3-.5-6.2-.8-6.3-1-6.5-1-6.2-1.2-6.5-1.5-6.3-1.8-6.2-1.7-6.3-2-6.2-2.3-6.3-2.5-6-2.5-6.2-3-6-3-6-3.2-5.8-3.8-5.7-3.7-5.8-4-5.5-4.3-5.5-4.5.8-2.2 2.5-7.3 2.7-6.7 2.5-6 2.5-5 2.5-4.8 2.3-4 2.2-3.5 2-3 2-2.5 1.8-2 2.7-2.7 1.8-1.5.7-.5.5-4.3 11 1.3 11.3 1.2 11.7 1 11.5.8 5.8.2-.3 2.8 2.5 5.2 3 4.8 3 4.5 3.3 4 3.2 4 3.8 3.5 3.7 3.2 4.3 3 4 2.5 4 2.3 4.2 2 4.5 2 4.5 1.5 4.8 1.5 5 1 5 1 6.2 1 6.8.7 6.7.5h12l5-.2 5.3-.5 4.7-.8 5-.7 4.8-1 4.5-1 4.5-1.5 4.2-1.5 4.3-1.5 3.7-2 3.8-1.8 3.7-2.2 3.5-2.3 3.3-2.5 3.2-2.7 3-2.8 3-3 2.8-3 2.7-3.5 2.5-3.5 2.3-3.5 2.2-4 2-4 1.8-4.2 1.7-4.5v-.3l11.8-1.7 11.5-1.8 11.2-2 11.3-2 10.7-2 10.5-2.2 10-2.3 9.8-2.5 9.5-2.5 9.2-2.5 8.8-2.7 8.2-2.8 8-2.7 7.5-2.8 7-3 6.8-3-.3 3.8-.2 4.2-.5 4.8-1 5.5-1.5 5.5-2.3 6.2-2.7 6.3-1.5 3.2-2 3.3-2 3.2-2.3 3.5-2.5 3.3-2.7 3.5-3 3.2-3.3 3.5-3.5 3.3-3.7 3.2-4 3.5-4.3 3.3-4.7 3.2-5 3-5.3 3.3-5.7 3-6 2.7z" fill="#fff"/><path d="m555 537.5v.3l-1.7 4.5-1.8 4.2-2 4-2.2 4-2.3 3.5-2.5 3.5-2.7 3.5-2.8 3-3 3-3 2.8-3.2 2.7-3.3 2.5-3.5 2.3-3.7 2.2-3.8 1.8-3.7 2v-9l.5-8.3.5-7.5 1-6.7.7-5.3.8-4 .7-3.5-.2-1 21-2z" fill="#abd153"/><path d="m513.8 542 .2 1-.7 3.5-.8 4-.7 5.3-1 6.7-.5 7.5-.5 8.3v9l-4.3 1.5-4.2 1.5-4.5 1.5-4.5 1-4.8 1-5 .7-4.7.8-5.3.5v-9.5l.3-9 .7-8 .8-7.3.7-5.7 1-4.5.8-3.8-.3-3.5 18.8-1z" fill="#abd153"/><path d="m476.8 548-.8 3.8-1 4.5-.7 5.7-.8 7.3-.7 8-.3 9v9.5l-5 .2h-12l-6.7-.5-6.8-.7-6.2-1 .2-8.5.3-7.8.7-7.2.8-6.3 1.5-9 .7-3.2v-6l17.5-.5 15.8-.5 3.2-.3z" fill="#abd153"/><path d="m399.8 580-4.3-3-3.7-3.2-3.8-3.5-3.2-4-3.3-4-3-4.5-3-4.8-2.5-5.2.3-2.8 17 .8 17.2.2h16.5l16-.2v6l-.7 3.2-1.5 9-.8 6.3-.7 7.2-.3 7.8-.2 8.5-5-1-5-1-4.8-1.5-4.5-1.5-4.5-2-4.2-2-4-2.3z" fill="#abd153"/><path d="m322 540.5-.5 4.3-.7.5-1.8 1.5-2.7 2.7-1.8 2-2 2.5-2 3-2.2 3.5-2.3 4-2.5 4.8-2.5 5-2.5 6-2.7 6.7-2.5 7.3-.8 2.2-4.2-3.7-4.3-4-4-4.3-4-4.2-3.5-4-3.2-4-3.3-4.3-3-4-5.2-8 4-5.7 3.5-5 3.2-4 3-3.3 2.5-2.5 2.3-1.7 2-1.5 1.2-1 9.8 2.7 10.2 2.5 11 2z" fill="#fff"/><path d="m275 529.8 4.5 1.5-1.2 1-2 1.5-2.3 1.7-2.5 2.5-3 3.3-3.2 4-3.5 5-4 5.7-3.3-5.7-3-5.5-2.5-5.3-2.2-5.2-2-5-1.5-5-1.5-4.5-1.3-4.3 1-1 2.5 1.8 2.8 1.7 3.5 1.8 3.7 1.7 9.3 4z" fill="#fff"/><path d="m241.5 514.5-1 1-.2-2z" fill="#fff"/><g fill="none" stroke="#231f20" stroke-linecap="round" stroke-miterlimit="10"><path d="m555 537.8-1.7 4.5-1.8 4.2-2 4-2.2 4-2.3 3.5-2.5 3.5-2.7 3.5-2.8 3-3 3-3 2.8-3.2 2.7-3.3 2.5-3.5 2.3-3.7 2.2-3.8 1.8-3.7 2-4.3 1.5-4.2 1.5-4.5 1.5-4.5 1-4.8 1-5 .7-4.7.8-5.3.5-5 .2h-12l-6.7-.5-6.8-.7-6.2-1-5-1-5-1-4.8-1.5-4.5-1.5-4.5-2-4.2-2-4-2.3-4-2.5-4.3-3-3.7-3.2-3.8-3.5-3.2-4-3.3-4-3-4.5-3-4.8-2.5-5.2" stroke-width="21"/><path d="m199 521 2.5-2.2 7.5-6 12-9 7.8-5.5 8.5-5.8 9-6 10-6 10.5-6.2 11.5-6.5 12-6.3 12.7-6.5 13.3-6 14-6 14.5-5.5 15-5.2 7.7-2.5 8-2.3 7.8-2.2 8-2 8.2-1.8 8.3-1.7 8.2-1.5 8.5-1.3 8.5-1.2 8.5-.8 8.8-.7 8.5-.5 3.7-.3 4.3-.2 6-.3 7.5-.2 8.7.2 10.3.5 11.2 1 12.5 1.5 13.3 2.3 7.2 1.5 7.3 1.5 7.5 1.7 7.5 2 8 2.3 8 2.5 8.2 2.7 8.3 3 8.5 3.3 8.5 3.5 8.7 4 8.8 4.2 11.5 5.8 10.7 5.5 10.3 5.7 9.5 5.5 8.7 5.3 8.3 5.2 7.5 5.3 7 5 4.2 3.2 6 4.8 5.3 4.7 4.5 4.5 4.2 4.3 3.8 4.2 3 4.3 2.7 4 2 4 1.8 4 1 3.5.7 3.7.3 3.5-.5 3.5-.8 3.3-1 3-1.7 3-1.5 2.2-1.5 2-1.5 1.8-1.8 1.5-1.5 1.5-1.7 1.2-1.8 1-1.7 1-3.5 1.3-4 1-4 .5-4 .5h-18.8l-5.2.2-5.5.5-5.8.8-5.7 1.5-4 1-4.5 1.5-9.8 3.5-11 4.5-12.5 5.2-14.7 6.3-16.3 6.7-17 7-18.2 6.8-9.3 3.2-9.5 3.3-9.7 3-9.8 2.7-10 2.8-10.2 2.5-10 2-10.3 2-11 1.5-11.5 1.2-11.7 1-12 .3-12.5-.3-12.5-.7-6.3-.5-6.2-.8-6.3-1-6.5-1-6.2-1.2-6.5-1.5-6.3-1.8-6.2-1.7-6.3-2-6.2-2.3-6.3-2.5-6-2.5-6.2-3-6-3-6-3.2-5.8-3.8-5.7-3.7-5.8-4-5.5-4.3-5.5-4.5-4.2-3.7-4.3-4-4-4.3-4-4.2-3.5-4-3.2-4-3.3-4.3-3-4-5.2-8-3.3-5.7-3-5.5-2.5-5.3-2.2-5.2-2-5-1.5-5-1.5-4.5-1.3-4.3-.2-2-1.5-7.5-1-6-.3-4.7-.2-2.8v-1" stroke-width="21"/><path d="m706 491.5.3 2.3.5 5.2-.3 3.8-.2 4.2-.5 4.8-1 5.5-1.5 5.5-2.3 6.2-2.7 6.3-1.5 3.2-2 3.3-2 3.2-2.3 3.5-2.5 3.3-2.7 3.5-3 3.2-3.3 3.5-3.5 3.3-3.7 3.2-4 3.5-4.3 3.3-4.7 3.2-5 3-5.3 3.3-5.7 3-6 2.7-6.3 3-1.7.5" stroke-width="21"/><path d="m713 495.8-2.5 1.2-3.7 2-6.8 3-7 3-7.5 2.8-8 2.7-8.2 2.8-8.8 2.7-9.2 2.5-9.5 2.5-9.8 2.5-10 2.3-10.5 2.2-10.7 2-11.3 2-11.2 2-11.5 1.8-11.8 1.7-20.2 2.5-21 2-18.5 1.5-18.8 1-3.2.3-15.8.5-17.5.5-16 .2h-16.5l-17.2-.2-17-.8-5.8-.2-11.5-.8-11.7-1-11.3-1.2-11-1.3-11.5-2-11-2-10.2-2.5-9.8-2.7-4.5-1.5-11.7-4.3-9.3-4-3.7-1.7-3.5-1.8-2.8-1.7-2.5-1.8-1.2-1-2-1.5-1.5-1.7-1.3-1.3-.7-1.5-.5-1-.3-1.2v-1l.3-1 .7-1.5.8-1 1.2-1" stroke-width="21"/><path d="m245 511.8-.7.7-1.3.8-1.5 1.2-1 1-1.7 2-2.3 2.8-2.5 3.5-3 4.2-3.2 5.3-3.5 6.2-3.8 7.3-4.2 8.2-4.5 9.5-3.8 8.8-3.2 7.5-2.5 6.5-3.3 9-1 3m82.8-68.5-1.3.5-1.2 1-2 1.5-2.3 1.7-2.5 2.5-3 3.3-3.2 4-3.5 5-4 5.7-2.5 4.3-2.8 4.7-3 5.3-2.7 6-4.5 9.5-3.8 8.5-3.2 7.5-2.5 6.5-3.3 9-1 3m93-75.5-.7.5-1.8 1.5-2.7 2.7-1.8 2-2 2.5-2 3-2.2 3.5-2.3 4-2.5 4.8-2.5 5-2.5 6-2.7 6.7-2.5 7.3-.8 2.2-3 9.5-2.5 8.8-2 7.5-1.7 6.2-2 8.8-.5 3.2m87.5-97.5-.8 1.8-2.7 6.2-2.5 7.3-2.8 8.5-2.7 9.7-2.3 10.3-2 9.2-1.5 8-1.2 6.8-1.3 9.5-.5 3.2m55.5-69.7-.5 1.7-1 5.5-1.2 8.3-.5 5-.5 5.7-.5 8.8v14.2l.5 5 .5 5 .7 5.3m39-66.5-.7 3.2-1.5 9-.8 6.3-.7 7.2-.3 7.8-.2 8.5.2 5.5.3 5.5.5 5.7.7 5.8m39.3-68.3-.8 3.8-1 4.5-.7 5.7-.8 7.3-.7 8-.3 9v9.5l.5 8.2 1.3 8.5m39.7-69.5-.7 3.5-.8 4-.7 5.3-1 6.7-.5 7.5-.5 8.3v9l.2 4.7.3 5 .5 5.3.7 5.2" stroke-width="7.5"/></g><path d="m462 234.3v150.7z" fill="#fff"/><path d="m462 234.3v150.7m45-48.5-45.2 49.5-45-49.7" fill="none" stroke="#231f20" stroke-linecap="round" stroke-miterlimit="10" stroke-width="21"/></svg>