<svg height="850" viewBox="0 0 850 850" width="850" xmlns="http://www.w3.org/2000/svg"><path d="m580.6 292.8h1.8l3-1 3-.3 3.5-.2 3.5.2 3.2.8 2.8 1.2 2.2 1.5 1.8 1.8 1.5 2 1.2 2 .8 2.5.5 2.5.2 2.5.3 2.7-.3 2.5-.5 2.5-.5 2.5-.7 2.5-.8 2.3-1 2-2 4.5-1.7 4.2-1.5 3.8-1 3.5-.8 3.5-.5 3.2-.2 3-.3 3v11.5l.3 6-.5 6.8v1l-.5 1-1 2.5-2 2.7-2 2.8-2.8 2.7-2.7 2.5-3 2-3 1.8-.3-.3 2.3-7.7.7-3.8.8-3.5.2-3.7v-7.5l-.2-3.5-.5-7.5-2-15.3-.8-7.7-.2-7.5-.3-17.5-.2-19z" fill="#ffeec8"/><path d="m580.6 292.8-.5-1-1.2-4.8-2-4.7-2-4.3-2.8-4.5-2.7-4.2-3-4-3-4-3.3-3.8-6.2-6.7-6-6.3-4.8-5.2-2-2.3-1.5-1.7-7-9.5-6.7-8.8-6.5-8-6.3-7.2-6-6.5-5.7-6-5.3-5.5-5-4.8-4.5-4.2-4.2-3.8-7.3-5.7-5.5-4-3.7-2.5-1.8-1v.2l-3.2 2-3.8 2.3-8.2 4.5-9.8 5-10.5 4.7-11.5 5-12 5-24.7 10-23.8 9.3-20.7 8.2-8.8 3.8-7.2 3.2-5.8 2.8-3.5 2-4 4.2-10.2 11.3-6.5 7-7 8-7 8.2-6.8 8.3-4.2 5.7-4 5.5-3 5-2.5 4.5-1.8-51.7.3-7.8.5-7.2 1-7.3 1.2-7 1.5-6.7 1.8-6.8 2-6.2 2.2-6.3 2.5-6 2.8-5.5 2.7-5.5 3-5.2 3-5 3-4.8 3-4.5 3.3-4.5 6.2-7.7 6.3-7 5.5-5.8 5.2-5 4.3-3.7 3.2-2.8 3-2.2 5.3-3.5 4-2.3 3.7-2 6.5-3.7 6.8-3.5 7-3 7.2-2.8 7.8-2.2 7.7-2.3 8-1.7 8.3-1.5 8.5-1.3 9-.7 9-.5 9.2-.3h9.8l10 .5 10 .8 10.5 1 6.5 1 6.2 1.2 6.3 1.8 6 1.7 6 2.3 5.7 2.7 5.8 2.8 5.5 3.2 5.5 3.5 5.2 3.8 5.3 4 5 4.2 4.7 4.5 4.8 4.8 4.5 5 4.5 5.2 4.2 5.5 4 5.8 3.8 5.7 3.7 6.3 3.5 6.2 3.3 6.5 3 6.8 3 6.7 2.5 7 2.5 7 2.2 7.5 2 7.3 1.8 7.7 1.5 7.5 1.5 7.8 1 8 .2 5.5v5.7l-.5 6.3-.7 6.5-2 12.5-2 11.7-3.5-.2-3.5.2-3 .3-3 1z" fill="#9c5c25"/><path d="m502.1 308.3h3.8l3.5.5 3 .8 2.8 1.3 1.3.8 1 1 1 1 .8 1 .5 1.5.5 1.3.3 1.5.3 1.8-.3 1.8-.3 1.8-.5 1.8-.5 1.5-.8 1.5-1 1.5-1 1.3-1.3 1.3-1.3 1.3-1.5 1-1.5.8-1.5.8-1.8.8-1.8.3-1.8.3-2 .3-1.8-.3-2-.3-1.8-.3-1.8-.8-1.5-.8-1.5-.8-1.5-1-1.3-1.3-1.3-1.3-1-1.3-1-1.5-.8-1.5-.5-1.5-.5-1.8-.3-1.8-.3-1.8.3-1.8.3-1.5.5-1.3.5-1.5.8-1 1-1 1-1 1.3-.8 2.8-1.3 3-.8 3.5-.5zm.5 18.2 1.3-.3 1.3-.3 1-.5 1-.8.8-.8.5-1 .5-1v-2.6l-.5-1-.5-1-.8-.8-1-.8-1-.5-1.3-.5h-2.8l-1 .5-1.3.5-1 .8-.8.8-.5 1-.5 1v2.6l.5 1 .5 1 .8.8 1 .8 1.3.5 1 .3z" fill="#fff"/><path d="m510.6 507.3 3.5-4 1.3 1.2.5 6.8 1 7 1.5 8.5 1 4.5 1 4.5 1.5 4.2 1.5 4.3 1.7 3.7 2.3 3.3 1.2 1.5 1 1.2 1.5 1.3 1.3 1 4.2 2.2 6 2.8 8 3 9 3.5 20.5 7.7 21.5 7.5-1 3-130 10h-.2l3.5-9.2 1.2-4 1-3.5.5-3 .3-2.5-.3-1-.2-1-.5-.5-.5-.5-4-2.3-2.8-1.2-2.5-.5-1-.3-.7.3-2 .5-1.8 1.2-4.7 4 10.7-21.5 1.8-3.7 1.2-3.3 1.5.5 8-4.2 4.3-2.5 3.7-2.5 2.8-2.3 2.5-2.2 4.7-5 4-4.5 3.3-4.5 2.7-3.8 2-3z" fill="#ffeec8"/><path d="m508.9 320.8v1.2l-.5 1-.5 1-.8.8-1 .7-1 .5-1.2.3-1.3.2-1.5-.2-1-.3-1.2-.5-1-.7-.8-.8-.5-1-.5-1v-2.5l.5-1 .5-1 .8-.7 1-.8 1.2-.5 1-.5h2.8l1.2.5 1 .5 1 .8.8.7.5 1 .5 1z" fill="#231f20"/><path d="m455.9 572.5 4.7-4 1.8-1.2 2-.5.7-.3 1 .3 2.5.5 2.8 1.2 4 2.3.5.5.5.5.2 1 .3 1-.3 2.5-.5 3-1 3.5-1.2 4-3.5 9.2-3 7.5-3.5 7.8-7.3 16-4 9.2-3.5 8.8-1.7 4-2.5 4.7-3 5.5-3.8 6.3-8.7 14.5-10.5 16-11.3 17.2-11.7 17.3-22.3 32.5-3-1.3-113.2-6 5-9.2 5-9.8 5.5-11.7 5.5-12.3 2.2-6 2.3-5.7 1.5-5.3 1.2-4.7.3-2.3v-3.5l-.3-1.5-1.2-5.7-1.3-7-.7-7.5-.8-8-.2-8.3.2-7.7.3-3.5.5-3.5.7-3.3.8-3 1.2-3.5 1.8-3.5 2-3.7 2.2-3.5 4.8-7.8 2.2-4 2.3-4.2 2.2-5.3 2-5.2.8-2.8.5-3 .5-3 .2-3 .3-1.7.7-1.3 1.3-1 1.5-.5 1.7-.5h2l2 .3 2.3.5 2 1 2 1.5 1.7 1.5 1.8 2.2 1.2 2.5.8 2.8.5 3.2-.3 3.8-.2 2.2-.5 2.5-.8 2.8-1 2.7-1 4.5-.7 4.5-.8 5.3-.2 5.2v2.3l.2 2 .5 1.7.8 1.3.2.5.5.2.8.3h.5l1.2-.5 1.5-1.5 2-2.5 2.3-3 5.7-8.3 7-10.5 8-12.7 8.3-13.8 17-28.2 13.2-22.8 9.3-15.5 2.7-5 1.5-2 2-1.5 2-1.2 2.3-.5h2.2l2.3.2 2.2.8 2.3 1 2 1.5 1.7 1.7 1.5 2 1 2.3.8 2.5v2.7l-.3 2.8-1.2 3 9-15.3 1-1.2 1.2-1 1-.8 1.5-.2 1.5-.3 1.3.3 3 .5 2.5 1 2.2 1 2 1.2 1.8 2.8.7 1.5.5 1.5.5 2.5v2.5l-.2 2.5-.5 3-1 3-1.3 3-1.5 3.5-1.7 3.7 2.2-3.2 1-1.3 1.3-1 1.2-.5 1.3-.5h2.7l2.5.5 2.5.8 2 1 1.8 1 1.5 3.2.5 1.5.5 1.8v1.7l-.3 2-.5 2.3-1 2.7-1.2 3.3-1.8 3.7z" fill="#ffeec8"/><path d="m394.4 492.5-.5-1.2 13-7.8 2.5-1.2 2.5-.8 2.2-.2 2.3.2 1.7.3 1.8.7 2.7 1 3.8 1.3 1.7.5h1.5l1.8-.3 1.5-.2 3.5-1.3 2.7-1 1.8-.7 2-.3 2.2-.2 2.3.2 2.5.8 2.5 1.2 12.7 7.8 3.3 1.7-2.5 4-3 4.8-1.5 2-2 2-3 2.5h-.3l-.5-1.5-.7-1.5-1.8-2.8-2-1.2-2.2-1-2.5-1-3-.5-1.3-.3-1.5.3-1.5.2-1 .8-1.2 1-1 1.2-9 15.3 1.2-3 .3-2.8v-2.7l-.8-2.5-1-2.3-1.5-2-1.7-1.7-2-1.5-2.3-1-2.2-.8-2.3-.2h-2.2l-2.3.5-2 1.2-2 1.5-1.5 2-2.7 5h-.5l-2.3-2-1.5-1.7-1-1.5-3.2-4.8-2.3-4z" fill="#ef947d"/><path d="m393.9 491.3.5 1.2-3.3.5-1.7-3.2-1-2.8-1-2 1.2-1.7 2.3-3 3-3.5 3.7-4 4-3.8 4-3.7 3.5-3 3-2 1.3-.8 1.5-.2 1.2-.3h1.5l3 .8 2.8.7 2.5 1.3 2 1 1.7 1.2 1.8-1.2 2-1 2.5-1.3 2.7-.7 2.8-.8h1.5l1.5.3 1.5.2 1.2.8 3 2 3.5 3 4 3.7 4 3.8 3.5 4 3.3 3.5 2.2 3 1 1.7-.7 2.3-1 2.5-1.5 3.2-3.3-1.7-12.7-7.8-2.5-1.2-2.5-.8-2.3-.2-2.2.2-2 .3-1.8.7-2.7 1-3.5 1.3-1.5.2-1.8.3h-1.5l-1.7-.5-3.8-1.3-2.7-1-1.8-.7-1.7-.3-2.3-.2-2.2.2-2.5.8-2.5 1.2z" fill="#ef947d"/><path d="m374.9 542.8 4.5 2.5-17 28.2-8.3 13.8-8 12.7-7 10.5-5.7 8.3-2.3 3-2 2.5-1.5 1.5-1.2.5h-.5l-.8-.3-.5-.2-.2-.5-.8-1.3-.5-1.7-.2-2v-2.3l.2-5.2.8-5.3.7-4.5 1-4.5 1-2.7.8-2.8.5-2.5.2-2.2.3-3.8-.5-3.2-.8-2.8-1.2-2.5-1.8-2.2-1.7-1.5-2-1.5-2-1-2.3-.5-2-.3h-2l-1.7.5-1.5.5-1.3 1-.7 1.3-.3 1.7-.2 3-.5 3-.5 3-.8 2.8-2 5.2-2.2 5.3-3.8-2.3-55.7-11.7 22.7-7.8 22.5-8.2 9.8-3.8 8.7-3.5 6.8-3 4.5-2.2 1.2-1 1.5-1 2.3-2.8 2-3 2-3.5 1.5-3.5 1.5-3.7 1-4 1-3.8 1.5-7.5.7-6 .5-6h2.3l5 5.5 5.2 5.3 5 4.7 5.3 4.5 5 4.3 5 4 4.7 3.5z" fill="#ffeec8"/><path d="m355.6 309 3.8.3 3.5.5 3 .8 2.8 1.3 1.3.8 1 .8 1 1 .8 1.3.5 1.3.5 1.5.3 1.5.3 1.8-.3 1.8-.3 1.8-.5 1.5-.5 1.8-.8 1.5-1 1.5-1 1.3-1.3 1.3-1.3 1-1.5 1-1.5 1-1.5.8-1.8.5-1.8.5-1.8.3h-3.8l-2-.3-1.8-.5-1.8-.5-1.5-.8-1.5-1-1.5-1-1.3-1-1.3-1.3-1-1.3-1-1.5-.8-1.5-.5-1.8-.5-1.5-.3-1.8-.3-1.8.3-1.8.3-1.5.5-1.5.5-1.3.8-1.3 1-1 1-.8 1.3-.8 2.8-1.3 3-.8 3.5-.5zm-.2 18.3h1.3l1.3-.5 1-.5 1-.8.8-.8.5-1 .5-1v-2.3l-.5-1.3-.5-1-.8-.8-1-.8-1-.5-1.3-.3-1.3-.3-1.5.3-1 .3-1.3.5-1 .8-.8.8-.5 1-.5 1.3v2.3l.5 1 .5 1 .8.8 1 .8 1.3.5 1 .5z" fill="#fff"/><path d="m361.6 321.5v1.3l-.5 1-.5 1-.7.7-1 .8-1 .5-1.3.5h-2.7l-1-.5-1.3-.5-1-.8-.7-.7-.5-1-.5-1v-2.3l.5-1.2.5-1 .7-.8 1-.7 1.3-.5 1-.3 1.5-.2 1.2.2 1.3.3 1 .5 1 .7.7.8.5 1 .5 1.2z" fill="#231f20"/><path d="m334.9 508-5-5.5-5-5.5-4.8-6-4.8-6.3-4.8-6.3-4.5-6.8-4.5-6.8-4.3-6.8-4-7.3-4-7.3-3.8-7.3-3.5-7.5-3.3-7.8-3.3-7.5-2.8-8-2.5-7.8-2.3-8.3-.8-3.8-.5-3.5-.3-3.8-.3-3.8v-3.8l.3-3.8.8-7.5 2-15.5.8-7.5.3-4v-3.8l.3-34.8.3-20.5-1.8-1.3 6.8-8.3 7-8.3 7-8 6.5-7 10.3-11.3 4-4.3 3.5-2 5.8-2.8 7.3-3.3 8.8-3.8 20.8-8.3 23.8-9.3 24.8-10 12-5 11.5-5 10.5-4.8 9.8-5 8.3-4.5 3.8-2.3 3.3-2 .8.5 1 .3 3.8 2.5 5.5 4 7.3 5.8 4.3 3.8 4.5 4.3 5 4.8 5.3 5.5 5.8 6 6 6.5 6.3 7.3 6.5 8 6.8 8.8 7 9.5 1.5 1.8 2 2.3 4.8 5.3 6 6.3 6.3 6.8 3.3 3.8 3 4 3 4 2.8 4.3 2.8 4.5 2 4.3 2 4.8 1.3 4.8.3 1 .3 19 .3 17.5.3 7.5.8 7.8 2 15.3.5 7.5.3 3.5v7.6l-.3 3.8-.8 3.5-.8 3.8-2.3 7.8-2.5 8-3 7.5-3.5 7.5-3.5 7.5-4 7.3-4 7-4.3 7-4.5 6.8-4.5 6.8-4.8 6.5-9.5 12.3-9.5 11.5-9 10.8-3.5 4-1.5 2.8-2 3-2.8 3.8-3.3 4.5-4 4.5-4.8 5-2.5 2.3-2.8 2.3-3.8 2.5-4.3 2.5-8 4.3-1.5-.5 1-2.8.5-2.3.3-2v-1.8l-.5-1.8-.5-1.5-1.5-3.3-1.8-1-2-1-2.5-.8-2.5-.5h-2.8l-1.3.5-1.3.5-1.3 1-1 1.3-2.3 3.3 1.8-3.8 1.5-3.5 1.3-3 1-3 .5-3 .3-2.5v-2.5l-.5-2.5h.3l3-2.5 2-2 1.5-2 3-4.8 2.5-4 1.5-3.3 1-2.5.8-2.3-1-1.8-2.3-3-3.3-3.5-3.5-4-4-3.8-4-3.8-3.5-3-3-2-1.3-.8-1.5-.3-1.5-.3h-1.5l-2.8.8-2.8.8-2.5 1.3-2 1-1.8 1.3-1.8-1.3-2-1-2.5-1.3-2.8-.8-3-.8h-1.5l-1.3.3-1.5.3-1.3.8-3 2-3.5 3-4 3.8-4 3.8-3.8 4-3 3.5-2.3 3-1.3 1.8 1 2 1 2.8 1.8 3.3 2.3 4 3.3 4.8 1 1.5 1.5 1.8 2.3 2h.5l-9.3 15.5-13.3 22.8-4.5-2.5-4.8-3-4.8-3.5-5-4-5-4.3-5.3-4.5-5-4.8-5.3-5.3zm92.5-79-.8.3 1.8-.3zm-71.8-120-3.8.3-3.5.5-3 .8-2.8 1.3-1.3.8-1 .8-1 1-.8 1.3-.5 1.3-.5 1.5-.3 1.5-.3 1.8.3 1.8.3 1.8.5 1.5.5 1.8.8 1.5 1 1.5 1 1.3 1.3 1.3 1.3 1 1.5 1 1.5 1 1.5.8 1.8.5 1.8.5 2 .3h3.8l1.8-.3 1.8-.5 1.8-.5 1.5-.8 1.5-1 1.5-1 1.3-1 1.3-1.3 1-1.3 1-1.5.8-1.5.5-1.8.5-1.5.3-1.8.3-1.8-.3-1.8-.3-1.5-.5-1.5-.5-1.3-.8-1.3-1-1-1-.8-1.3-.8-2.8-1.3-3-.8-3.5-.5zm165 11.5-.3-1.8-.3-1.5-.5-1.3-.5-1.5-.8-1-1-1-1-1-1.3-.8-2.8-1.3-3-.8-3.5-.5h-7.6l-3.5.5-3 .8-2.8 1.3-1.3.8-1 1-1 1-.8 1-.5 1.5-.5 1.3-.3 1.5-.3 1.8.3 1.8.3 1.8.5 1.8.5 1.5.8 1.5 1 1.5 1 1.3 1.3 1.3 1.3 1.3 1.5 1 1.5.8 1.5.8 1.8.8 1.8.3 2 .3 1.8.3 2-.3 1.8-.3 1.8-.3 1.8-.8 1.5-.8 1.5-.8 1.5-1 1.3-1.3 1.3-1.3 1-1.3 1-1.5.8-1.5.5-1.5.5-1.8.3-1.8z" fill="#ffeec8"/><path d="m268.4 294.5h2.2l-.2 34.8v3.7l-.3 4-.7 7.5-2 15.5-.8 7.5-.2 3.8v3.7l.2 3.8.3 3.7.5 3.5.7 3.8 2.3 8.2-.5.3-2-.5-2-.8-1.8-.7-1.7-1-1.5-1-1.3-1.3-2.2-2.5-2-2.7-1.3-2.8-1-2.5-.5-2.5-.2-6.7.2-6v-11.5l-.2-3-.3-3-.5-3.3-.7-3.2-1.3-3.8-1.2-3.7-1.8-4.3-2-4.5-1-2-.7-2.2-.8-2.3-.5-2.5-.5-2.7-.2-2.5v-2.8l.2-2.5.8-2.5.7-2.2 1-2.3 1.8-2 1.7-1.7 2.3-1.5 2.7-1 3.3-.8 3.5-.5 3.2.3 3.3.5z" fill="#ffeec8"/><g fill="none" stroke="#231f20" stroke-linecap="round" stroke-miterlimit="10"><path d="m318.4 322.8 1.7-2 2-1.8 2-1.7 2-1.5 2-1.3 2.3-1.2 2-1 2.5-1 4.7-1.5 5-1 5.3-.3 5.5-.2 4.7.2 4.5.5 4.5.8 4.3 1.2 2.2.8 1.8 1 2 1 1.7 1.2 1.5 1.5 1.5 1.5 1.5 1.8 1 1.7" stroke-width="7"/><path d="m268.4 294.5-3-.7-3.3-.5-3.2-.3-3.5.5-3.3.8-2.7 1-2.3 1.5-1.7 1.7-1.8 2-1 2.3-.7 2.2-.8 2.5-.2 2.5v2.8l.2 2.5.5 2.7.5 2.5.8 2.3.7 2.2 1 2 2 4.5 1.8 4.3 1.2 3.7 1.3 3.8.7 3.2.5 3.3.3 3 .2 3v11.5l-.2 6 .2 6.7.5 2.5 1 2.5 1.3 2.8 2 2.7 2.2 2.5 1.3 1.3 1.5 1 1.7 1 1.8.7 2 .8 2 .5m312.5-105.5 3-1 3-.3 3.5-.2 3.5.2 3.2.8 2.8 1.2 2.2 1.5 1.8 1.8 1.5 2 1.2 2 .8 2.5.5 2.5.2 2.5.3 2.7-.3 2.5-.5 2.5-.5 2.5-.7 2.5-.8 2.3-1 2-2 4.5-1.7 4.2-1.5 3.8-1 3.5-.8 3.5-.5 3.2-.2 3-.3 3v11.5l.3 6-.5 6.8v1l-.5 1-1 2.5-2 2.7-2 2.8-2.8 2.7-2.7 2.5-3 2-3 1.8" stroke-width="14"/><path d="m471.1 544.5 8-4.2 4.3-2.5 3.7-2.5 2.8-2.3 2.5-2.2 4.7-5 4-4.5 3.3-4.5 2.7-3.8 2-3 1.5-2.7 3.5-4 9-10.8 9.5-11.5 9.5-12.2 4.8-6.5 4.5-6.8 4.5-6.7 4.2-7 4-7 4-7.3 3.5-7.5 3.5-7.5 3-7.5 2.5-8 2.3-7.7.7-3.8.8-3.5.2-3.7v-7.5l-.2-3.5-.5-7.5-2-15.3-.8-7.7-.2-7.5-.3-17.5-.2-19-.3-1v-2m-309.2-15.8-.3 20.5-.2 34.8v3.7l-.3 4-.7 7.5-2 15.5-.8 7.5-.2 3.8v3.7l.2 3.8.3 3.7.5 3.5.7 3.8 2.3 8.2 2.5 7.8 2.7 8 3.3 7.5 3.2 7.7 3.5 7.5 3.8 7.3 4 7.2 4 7.3 4.2 6.7 4.5 6.8 4.5 6.7 4.8 6.3 4.7 6.2 4.8 6 5 5.5 5 5.5 5 5.5 5.2 5.3 5 4.7 5.3 4.5 5 4.3 5 4 4.7 3.5 4.8 3" stroke-width="14"/><path d="m427.4 429 2.7-.7 2-.8 1.8-1 1.2-1 1.5-.7 1.8-.5h2.2l3 .5 5.8 1.5 2.7.5h2.8l1.2-.3 1-.2 1-.8 1-.7.8-1.3.7-1.5.5-1.7.5-2 .3-2v-1.5m-34.5 14.2h1l-1.8.3zm-26.5-105.5 1.2 1.5 1.3 1.8 2 3.5 1.5 4 1.2 4.2 1 4.5.8 4.8.2 5 .3 5-.3 5-.5 5-.5 5-.7 4.7-.8 4.5-1 4.5-1 4-1.2 3.8-2.8 7.5-1.2 2.2-1.5 2-3.3 3.3-1.2 1.7-.8 2-.2 1-.3 1.3v1.2l.3 1.5.5 2.3.5 1.7.7 1.5.8 1 1 1 1 .5 1 .5 1.2.3 2.8-.3 2.7-.5 5.8-1.5 3-.5h1.2l1 .3 1.5.7 1.5.8 1.3 1 1.5 1 2.2 1 1.3.2h1.5" stroke-width="7"/><path d="m361.6 321.5v1.3l-.5 1-.5 1-.7.7-1 .8-1 .5-1.3.5h-2.7l-1-.5-1.3-.5-1-.8-.7-.7-.5-1-.5-1v-2.3l.5-1.2.5-1 .7-.8 1-.7 1.3-.5 1-.3 1.5-.2 1.2.2 1.3.3 1 .5 1 .7.7.8.5 1 .5 1.2z" stroke-width="6.25"/><path d="m396.6 285.3-1.7-3-2.3-2.8-2.5-2.2-3-2.3-3-2-3.5-1.7-3.7-1.5-3.8-1.3-4-1.2-3.7-.8-4-.7-3.8-.3-3.7-.2h-3.5l-3.3.2-3 .5-5 1-4.5 1-4.2 1.3-4 1.5-4 1.7-4.5 2.5-4.5 3-5.3 3.8m150 0 1.8-3 2.2-2.8 2.5-2.2 2.8-2.3 3.2-2 3.5-1.7 3.8-1.5 3.7-1.3 3.8-1.2 4-.8 4-.7 3.7-.5h7.3l3.2.2 3 .3 5 1.2 4.5 1 4.3 1.3 4 1.5 4 1.7 4.2 2.5 4.8 3 5.2 3.8" stroke-width="7"/><path d="m595.4 291.5 2-11.7 2-12.5.7-6.5.5-6.3v-5.7l-.2-5.5-1-8-1.5-7.8-1.5-7.5-1.8-7.7-2-7.3-2.2-7.5-2.5-7-2.5-7-3-6.7-3-6.8-3.3-6.5-3.5-6.2-3.7-6.3-3.8-5.7-4-5.8-4.2-5.5-4.5-5.2-4.5-5-4.8-4.8-4.7-4.5-5-4.2-5.3-4-5.2-3.8-5.5-3.5-5.5-3.2-5.8-2.8-5.7-2.7-6-2.3-6-1.7-6.3-1.8-6.2-1.2-6.5-1-10.5-1-10-.8-10-.5h-9.8l-9.2.3-9 .5-9 .7-8.5 1.3-8.3 1.5-8 1.7-7.7 2.3-7.8 2.2-7.2 2.8-7 3-6.8 3.5-6.5 3.7-3.7 2-4 2.3-5.3 3.5-3 2.2-3.2 2.8-4.3 3.7-5.2 5-5.5 5.8-6.3 7-6.2 7.7-3.3 4.5-3 4.5-3 4.8-3 5-3 5.2-2.7 5.5-2.8 5.5-2.5 6-2.2 6.3-2 6.2-1.8 6.8-1.5 6.7-1.2 7-1 7.3-.5 7.2-.3 7.8 1.8 51.7 2.5-4.5 3-5 4-5.5 4.2-5.7 6.8-8.3 7-8.2 7-8 6.5-7 10.2-11.3 4-4.2 3.5-2 5.8-2.8 7.2-3.2 8.8-3.8 20.7-8.2 23.8-9.3 24.7-10 12-5 11.5-5 10.5-4.7 9.8-5 8.2-4.5 3.8-2.3 3.2-2v-.2l1.8 1 3.7 2.5 5.5 4 7.3 5.7 4.2 3.8 4.5 4.2 5 4.8 5.3 5.5 5.7 6 6 6.5 6.3 7.2 6.5 8 6.7 8.8 7 9.5 1.5 1.7 2 2.3 4.8 5.2 6 6.3 6.2 6.7 3.3 3.8 3 4 3 4 2.7 4.2 2.8 4.5 2 4.3 2 4.7 1.2 4.8.5 1 .5 3.5.3 3.5" stroke-width="14"/><path d="m476.6 160.3-4.7-.5-3.3-.3-2.7-.7-1-.3-.8-.5-.2-.5 3.5-3.7 3.2-4.3 3-4.7 2.5-5.3 2.3-5.5 1.5-5.5.7-3 .3-3 .2-2.7.3-3m-148.8 391.2-.5 6-.7 6-1.5 7.5-1 3.8-1 4-1.5 3.7-1.5 3.5-2 3.5-2 3-2.3 2.8-1.5 1-1.2 1-4.5 2.2-6.8 3-8.7 3.5-9.8 3.8-22.5 8.2-22.7 7.8m274.5-77.8.5 6.8 1 7 1.5 8.5 1 4.5 1 4.5 1.5 4.2 1.5 4.3 1.7 3.7 2.3 3.3 1.2 1.5 1 1.2 1.5 1.3 1.3 1 4.2 2.2 6 2.8 8 3 9 3.5 20.5 7.7 21.5 7.5 5.8 1.8" stroke-width="14"/><path d="m374.1 321.5-.2 1.8-.3 1.7-.5 1.5-.5 1.8-.7 1.5-1 1.5-1 1.2-1.3 1.3-1.2 1-1.5 1-1.5 1-1.5.7-1.8.5-1.7.5-1.8.3h-3.7l-2-.3-1.8-.5-1.7-.5-1.5-.7-1.5-1-1.5-1-1.3-1-1.2-1.3-1-1.2-1-1.5-.8-1.5-.5-1.8-.5-1.5-.2-1.7-.3-1.8.3-1.7.2-1.5.5-1.5.5-1.3.8-1.2 1-1 1-.8 1.2-.7 2.8-1.3 3-.7 3.5-.5 3.7-.3 3.8.3 3.5.5 3 .7 2.7 1.3 1.3.7 1 .8 1 1 .7 1.2.5 1.3.5 1.5.3 1.5zm165.3.5-1.8-2-2-1.7-1.7-1.8-2-1.5-2.3-1.5-2-1-2.2-1.2-2.3-.8-5-1.5-5-1-5.2-.5h-5.5l-4.8.3-4.5.5-4.5.7-4.2 1.3-2 .7-2 1-2 1-1.5 1.3-1.8 1.2-1.5 1.5-1.2 1.8-1.3 2" stroke-width="7"/><path d="m496.1 320.8v1.2l.5 1 .5 1 .8.8 1 .7 1.2.5 1 .3 1.5.2 1.3-.2 1.2-.3 1-.5 1-.7.8-.8.5-1 .5-1v-2.5l-.5-1-.5-1-.8-.7-1-.8-1-.5-1.2-.5h-2.8l-1 .5-1.2.5-1 .8-.8.7-.5 1-.5 1z" stroke-width="6.25"/><path d="m483.6 320.5.3 1.8.2 1.7.5 1.8.5 1.5.8 1.5 1 1.5 1 1.2 1.2 1.3 1.3 1.2 1.5 1 1.5.8 1.5.7 1.7.8 1.8.2 2 .3 1.7.2 2-.2 1.8-.3 1.7-.2 1.8-.8 1.5-.7 1.5-.8 1.5-1 1.2-1.2 1.3-1.3 1-1.2 1-1.5.7-1.5.5-1.5.5-1.8.3-1.7.2-1.8-.2-1.7-.3-1.5-.5-1.3-.5-1.5-.7-1-1-1-1-1-1.3-.7-2.7-1.3-3-.7-3.5-.5h-7.5l-3.5.5-3 .7-2.8 1.3-1.2.7-1 1-1 1-.8 1-.5 1.5-.5 1.3-.2 1.5zm-9 27.3.8-.5 2.2-1.8 2-1 2.3-1 2.7-1 3.3-1 3.5-1 4.2-.7 4.5-.5 5-.3h5.8l6 .5 6.7 1 7 1.5m-149 5.8-.7-.5-2.5-1.8-1.8-1-2.5-1-2.7-1-3-1-3.8-1-4-.7-4.7-.5-5-.3h-5.5l-6.3.5-6.5 1-7 1.5m139.5 149.3-12.7-7.8-2.5-1.2-2.5-.8-2.3-.2-2.2.2-2 .3-1.8.7-2.7 1-3.5 1.3-1.5.2-1.8.3h-1.5l-1.7-.5-3.8-1.3-2.7-1-1.8-.7-1.7-.3-2.3-.2-2.2.2-2.5.8-2.5 1.2-13 7.8.5 1.2.2.3" stroke-width="7"/><path d="m401.4 507-2.3-2-1.5-1.7-1-1.5-3.2-4.8-2.3-4-1.7-3.2-1-2.8-1-2 1.2-1.7 2.3-3 3-3.5 3.7-4 4-3.8 4-3.7 3.5-3 3-2 1.3-.8 1.5-.2 1.2-.3h1.5l3 .8 2.8.7 2.5 1.3 2 1 1.7 1.2 1.8-1.2 2-1 2.5-1.3 2.7-.7 2.8-.8h1.5l1.5.3 1.5.2 1.2.8 3 2 3.5 3 4 3.7 4 3.8 3.5 4 3.3 3.5 2.2 3 1 1.7-.7 2.3-1 2.5-1.5 3.2-2.5 4-3 4.8-1.5 2-2 2-3 2.5" stroke-width="7"/><path d="m392.6 522.5 9.3-15.5 2.7-5 1.5-2 2-1.5 2-1.2 2.3-.5h2.2l2.3.2 2.2.8 2.3 1 2 1.5 1.7 1.7 1.5 2 1 2.3.8 2.5v2.7l-.3 2.8-1.2 3m-80.8 82.7 8-12.7 8.3-13.8 17-28.2 13.2-22.8m-64.5 65.8-.2 2.2-.5 2.5-.8 2.8-1 2.7-1 4.5-.7 4.5-.8 5.3-.2 5.2v2.3l.2 2 .5 1.7.8 1.3.2.5.5.2.8.3h.5l1.2-.5 1.5-1.5 2-2.5 2.3-3 5.7-8.3 7-10.5m-88.7 156 5-9.2 5-9.8 5.5-11.7 5.5-12.3 2.2-6 2.3-5.7 1.5-5.3 1.2-4.7.3-2.3v-3.5l-.3-1.5-1.2-5.7-1.3-7-.7-7.5-.8-8-.2-8.3.2-7.7.3-3.5.5-3.5.7-3.3.8-3 1.2-3.5 1.8-3.5 2-3.7 2.2-3.5 4.8-7.8 2.2-4 2.3-4.2 2.2-5.3 2-5.2.8-2.8.5-3 .5-3 .2-3 .3-1.7.7-1.3 1.3-1 1.5-.5 1.7-.5h2l2 .3 2.3.5 2 1 2 1.5 1.7 1.5 1.8 2.2 1.2 2.5.8 2.8.5 3.2-.3 3.8m128.5 39 7.3-16 3.5-7.8 3-7.5 3.5-9.2 1.2-4 1-3.5.5-3 .3-2.5-.3-1-.2-1-.5-.5-.5-.5-4-2.3-2.8-1.2-2.5-.5-1-.3-.7.3-2 .5-1.8 1.2-4.7 4-.5.3m-84.3 194.2 2.5-3.7 22.3-32.5 11.7-17.3 11.3-17.2 10.5-16 8.7-14.5 3.8-6.3 3-5.5 2.5-4.7 1.7-4 3.5-8.8 4-9.2" stroke-width="14"/><path d="m416.1 655.3 13.5-28.5 26.3-54.3 10.7-21.5 1.8-3.7 1.2-3.3 1-2.7.5-2.3.3-2v-1.7l-.5-1.8-.5-1.5-1.5-3.2-1.8-1-2-1-2.5-.8-2.5-.5h-2.7l-1.3.5-1.2.5-1.3 1-1 1.3-2.2 3.2-5.5 9-7 12.3-15.5 27.7-13.3 24.3-5.5 10.5" stroke-width="14"/><path d="m450.4 532.3v-.3l1.7-3.7 1.5-3.5 1.3-3 1-3 .5-3 .2-2.5v-2.5l-.5-2.5-.5-1.5-.7-1.5-1.8-2.8-2-1.2-2.2-1-2.5-1-3-.5-1.3-.3-1.5.3-1.5.2-1 .8-1.2 1-1 1.2-9 15.3-64.3 110" stroke-width="14"/><path d="m510.6 444.5-31.5 27.8m32.5 2.5-28.2 7m-134-36.8 31.5 28m-32.5 2.3 28 7.2" stroke-width="6.25"/></g></svg>