<svg height="850.394" viewBox="0 0 850.394 850.394" width="850.394" xmlns="http://www.w3.org/2000/svg"><path d="m603.59 84.36a25.681 25.681 0 0 0 22.42 13.08c14.181 0 28.26-6.79 28.26-20.88 0 0-1.02-12.75 12.37-12.75 4.181 0-41.14 101.62-41.14 101.62l-54.31 122.45v.01l-115.06 259.44s-10.06 22.58-13.77 44.229c-3.71 21.65-3.71 53.83-34.65 100.23-30.93 46.41-70.53 101.47-70.53 101.47s-152.2-58.16-155.29-61.25c-3.1-3.09 6.49-8.35 43.31-45.16 64.81-64.81 87.99-102.409 92.8-127.46 6.19-32.17 16.71-48.26 16.71-48.26s244.7-438.969 255.52-452.269c10.829-13.3 16.239-3.51 16.239-3.51-3.819 4.46-6.14 10.25-6.14 16.57a25.198 25.198 0 0 0 3.261 12.44z" fill="#6ebe44"/><g fill="none"><g stroke="#231f20" stroke-width="21"><path d="m571.19 287.88 54.31-122.45s45.32-101.62 41.14-101.62c-13.39 0-12.37 12.75-12.37 12.75 0 14.09-14.079 20.88-28.26 20.88-9.63 0-18.029-5.27-22.42-13.08a25.187 25.187 0 0 1 -3.26-12.44c0-6.32 2.32-12.11 6.14-16.57 0 0-5.41-9.79-16.239 3.51-10.821 13.3-255.521 452.27-255.521 452.27s-10.52 16.09-16.71 48.26c-4.81 25.051-27.99 62.65-92.8 127.46-36.82 36.811-46.41 42.07-43.31 45.16 3.09 3.09 155.29 61.25 155.29 61.25s39.6-55.06 70.53-101.47c30.94-46.4 30.94-78.58 34.65-100.23 3.71-21.649 13.77-44.229 13.77-44.229l115.06-259.441"/><path d="m603.6 84.35-.01.01-129.36 249.51" stroke-linecap="round" stroke-linejoin="round"/><path d="m571.19 287.88v269.66"/><path d="m494.64 551.04 143.85 25.06" stroke-linecap="round" stroke-linejoin="round"/></g><path d="m0 0h850.394v850.394h-850.394z"/></g></svg>