<svg height="850.394" viewBox="0 0 850.394 850.394" width="850.394" xmlns="http://www.w3.org/2000/svg"><g fill="#c8c8c8"><path d="m471.14 336.35h-4.16v-185.16h87.08v90.03h-82.92zm-91.04-185.16v91.15h-85.79v95.13h-1.26v-186.28z"/><path d="m380.1 242.34v-91.15h86.88v90.03h-84.25v95.13h-2.63zm0 94.01v347.23h-87.05v-346.11h84.08v-95.13h2.97z"/><path d="m380.1 683.58v-347.23h85.45v-95.13h1.43v442.36zm173.96-317.58v317.58h-87.08v-347.23h86.98v-95.13h.1z"/></g><path d="m789.63 596.92v86.7l-235.57-.04v-317.58l96.41 1.85v229.07zm-496.58-230.92v317.25h-235.11v-86.71h139.15v-229.06l94.91-1.48z" fill="#ed1d31"/><path d="m471.14 241.22h82.82v95.13h-82.82zm-88.41 0h82.82v95.13h-82.82zm-88.42 1.12h82.82v95.13h-82.82z" fill="#ffffc2"/><g fill="none" stroke="#231f20" stroke-width="21"><path d="m466.98 151.19h87.08v532.39h-261.01v-532.39h87.05zm0 532.39v-532.39m-86.88 532.39v-532.39"/><path d="m554 366h.06l96.41 1.85v229.07h139.16v86.7l-235.57-.04m-262.06-317.58-94.91 1.48v229.06h-139.15v86.71h229.41m6.96-440.91h82.82v95.13h-82.82zm88.42-1.12h82.82v95.13h-82.82zm88.41 0h82.82v95.13h-82.82z"/></g><path d="m0 0h850.394v850.394h-850.394z" fill="none"/><path d="m658.931 67.718-.87 220.054m50.232-52.574-50.431 53.612-48.502-55.431m-404.307-162.659-.124 220.063m49.814-52.971-50.005 54.009-48.94-55.045" fill="none" stroke="#23201f" stroke-width="21"/></svg>