<svg height="850" viewBox="0 0 850 850" width="850" xmlns="http://www.w3.org/2000/svg"><path d="m770 191.5.5-.2.5-.3h.5l.8.5.7.8v.7l-.2.8-.5.7-1 1-3.3 2.5 1-.2h.8l.5.5.7 1v.2l-.2.8-1.5 1.7-5 4.5-2.3 2-2 1.8-3.2 2-7.8 4.7-10.2 6 .5-.5-9.8-13.5 3.3-3 1.2-1.5.3-.7.2-.8.8-2 1.2-2.5 1.5-2.5 1.3-1.7 3.5-3.5 1.5-1.5 1-1.3.5-.5h.5l.7.3.5.5.5.5.3.7-.3 1-.2 1-1.3 1.5-1.2 2-.8 1.3v.7l.3.3.5-.3 1-.5 3.2-2 6.5-4.2 6-4.3 3.3-2.2.7-.3h.8l.7.5.5.5.3.8.2.7-.2 1-.8.8 2.5-1.8.5-.2h.3l1 .5.7 1v1.2l-.5 1-.7 1z" fill="#ffeec8"/><path d="m729.5 209 9.8 13.5-.5.5-17.8 17.5-13 13-3.2 1.3-8.5 3.2-6 2-7 2.3-7.8 2.2-8.2 2.3-12.5 3-5.8 1.2-5.2 1-5.3.8-5 .7-5 .3-5-.3h-4l1.3-3.2.7-2.8.5-3.7.8-6 .2-7.3v-9l4.3 1 4.5.5 4.2.3h8l3.5-.5 5.8-.8 4.7-.7 5.5-.5 12-1 6-.8 5-.7 4-1 1.5-.8 1-.7 7.5-6 12-9.5 16-12.8z" fill="#a8d7f4"/><path d="m504.3 317.8-.3-.3 1.8-1.7 1-1 1.2-.5 4-22.8 3.8-20.7 2.2-10.3 2-9.2 1.8-7.8 1.7-5.5 2.8-7.5 1.5-4.2 1.5-3.5.5-1.3 4.5 1.5 5 1 4.7.5h5l2.3-.2 2.5-.5 2.5-.8 2.2-.7 2.5-1.3 2.3-1.2 2.2-1.5 2.3-1.8 2.2-2 2.3 2.8 2.5 2.5 1.2 1.2 1.5.8 1.8.7 1.5.8 2.2.5 2 .5h4.3l2-.3 2.2-.5 2-.7 2-1 1 2 1 2 1.3 2 1.2 1.7 3 3 3.3 2.5 3.2 2.3 3.8 1.7 3.7 1.5 4 1v9l-.2 7.3-.8 6-.5 3.7-.7 2.8-1.3 3.2-3 8-3.7 9.3-8.5 19.2-7.5 15.5-3 6.5-1 3.5-1 3.8-1 4.5-.3 2-1.2-.3-10.3-.5-9.5-.7-8.7-1.3-8-1.7-7.5-2-6.8-2-6-2.3-5.5-2.5-5-2.2-4.2-2.3-3.5-2.5-3.3-2-4.5-3.5z" fill="#a8d7f4"/><path d="m597.5 221.8-2 1-2 .7-2.2.5-2 .3h-4.3l-2-.5-2.2-.5-1.5-.8-1.8-.7-1.5-.8-1.2-1.2-2.5-2.5-2.3-2.8-1.7-3.2-1.3-3.3-1-3.7-.5-4v-4l.3-4.3.7-4.2 1.3-4.3 1.2-3.2 1.5-3 1.5-2.8 2-2.5 1.8-2.5 2.2-2.2 2.3-2 2.2-1.8 2.3-1.2 2.5-1.3 2.5-1 2.5-.5 2.7-.2h2.5l2.5.2 2.5.8 2.3 1 2.2 1.2 2 1.5 2 1.8 1.5 2.2 1.5 2.3 1.3 2.2 1 2.8.7 2.7.5 2.8.3 3.2v6.3l-.5 3.2-.8 3.3-1 3.2-1.5 3.8-1.7 3.2-2 3.3-2.3 3-2.2 2.7-2.8 2.3-2.7 2z" fill="#ffeec8"/><path d="m537.3 371.5-2-.2h-1.8l-1.7.5-1.8.5-1.5.7-1.5 1-1.7 1-1.3 1.3-2.7 3-2.8 3.2-2.5 4-2.2 4.3-2.3 4.2-2.2 4.5-4 9.3-4 8.7-2 3.8-2 3.5-4.3 6.7-3.7 5.3-5.3 7.5-2 2.7-1.5 2.3-1.2 2.5-.8 2.7-1 3.5-1.5 4.3-1.7 4.7-2.5 5h-1.8l-23.2-12.7 2.2-6.3 2-5 2-4.5 2.3-4.5 2-4.2 2-4.3 1-2.7 1-3.8 3-11 4-15.2 4.5-15.8 2.2-7.5 2.3-6.7 2.2-5.8 2-4.5 2-5.2 2-4.3 2.3-5 2.7-5.7 3.5-6 4-6 2.3-3 2.5-3 1.5-1.5 2.2 2.2 4.5 3.5 3.3 2 3.5 2.5 4.2 2.3 5 2.2 5.5 2.5 6 2.3 6.8 2 7.5 2 8 1.7 8.7 1.3 9.5.7 10.3.5 1.2.3.3-2h.2l.8 7.5.2 7.5v7.5l-.2 6.7-.8 11.3-.7 6.2-.8 4.8-1.2 6-2 6.7-2.3 7.5-4.7 15.8-5.3 15-3.7 10.7-1 3.8-.8 2.7-.7 4.8-.5 4.5-.8 5-.7 5-1.3 5.2-1.5 6.3-26.2-2-1.8-.3.8-5.7 1.2-5.3 1-4.5 1-3.5 1-2.7.5-2.8v-6.2l-.5-9-.2-6.5.2-8 .3-4 .2-4.5 1.3-9.8 1.5-10.5 1-10.2.2-4.8.3-4.7-.3-4.3-.5-4-1-3.2-.7-1.5-.8-1.3-.7-1.2-1.3-1-1-.8z" fill="#797878"/><path d="m536.8 492.3 26.2 2-2.5 9-3.5 11.5-2.5 8.7-2.2 8-1.5 7-1.3 6.3-1 5.5-.5 4.5-.5 3.7v2.8l-.2 1.5-.3 1.5-.7 1.5-.8 1.2-.7 1-1 1-1.3.5-1 .5-1.5.3h-1.2l-1.3-.3-1.2-.5-1.3-.7-1.2-1-1-1.5-1-1.8-.8-1.7-.7-1.5-.3-1.5-.2-1.5v-2.3l.2-2.2.5-1.8.3-1.7-.3-2-.2-.8-.5-1-1.3-2-1.7-2-1.5-1.7-1.3-1.8-.2-1-.3-1 .3-1.2.2-1 .8-1.3 1-1.5 1.5-1.2 1.7-1.5 1.3-.5 1-1 1.2-1 1-2 .5-1 .3-1.3.2-1.5v-3.5l-.2-2.2-.3-2.3-.2-2.7v-5.8l.5-6.2.7-6.3z" fill="#ffeec8"/><path d="m456.3 143.5 1.5-.7 8.2 18.7 5.8 14.3 3.7 8.7.5 1.3 1 1.2 3.3 2.8 4 3.2 4.7 3.3 10.3 6.7 4.5 3.3 3.7 2.7 4 3 5.3 3.3 3 1.7 3 1.5 3.5 1.5 3.5 1.5-.5 1.3-1.5 3.5-1.5 4.2-2.8 7.5-1.7 5.5-1.8 7.8-1.2-.3-4.5-2.5-4.3-2.5-4.2-3-4-3-4.3-3.5-4.5-3.7-9.5-8.8-6.2-5.7-5.8-5.8-5-5.2-4.2-4.8-6.3-6.7-2-2.8-5.2-17.7-7.3-23.8-.2-.5z" fill="#a8d7f4"/><path d="m471.8 472-2.8 6-3.2 5.5-3.3 5-1.7 2.3-1.5 2-1.5 1.5-1 1.5-1 1.5-.5 1.2-.5 1.3-.3 1.2v2l.3 1.8.5 1.2.5 1 .7 2.3.5 2v3.2l-.2 1-.8 1-.5.8-1 .7-2 .8-2.2.7-2.3.5-2.2 1-1 .5-.8.8-1.2 1.2-.8 1.8-.7 1.7-.8 2-1.5 2-1 1-1 1-1.5 1-1.5 1-1.7 1-1.8.5-1.5.3h-1.5l-1.5-.3-1-.7-1.2-.5-.8-1-.7-1-.5-1.3-.5-1.2-.3-1.5.3-1.3.2-1.5.5-1.5.8-1.5 3.2-5.5 2-4.2 2.3-5 2.2-5.8 2.8-7 2.5-7.7 2.7-8.8 3.5-11.5 2.8-8.7 23.2 12.7zm-38.8-365.2-.2-1 .2-.8.5-.7.5-.5.8-.3h.7l.8.5.5.5 1.7 3.5 3.5 6.5 3.5 7 2 3.3.5.7.5.5.3-.2.2-.5.3-1.5-.3-2.5-.5-1.5.3-1.3.2-1 .8-.5.5-.2.7-.3.8.3.5.2v.5l.5 1.8.5 2.2 1.2 4.5.5 2.3.3 2.7-.3 2.8-.2 2.2-.3.8v.7l.5 2 1.3 4-15 7.5.2.5-6.2-10-4.5-8-1.8-3.2-1-2.5-1-3-2.2-6.3-.8-2.2v-.8l.5-.2 1-.5.8-.3.5.5.7.8-1.5-3.8-.5-1.5v-1.5l.5-.7 1-.5h.8l.5.2.2.5.5.5-.7-1.5-.3-1.2.3-1.3.5-1 1.2-.5h1l.3.3.5.5z" fill="#ffeec8"/><g fill="none" stroke="#231f20" stroke-linecap="round" stroke-miterlimit="10"><path d="m570 214.5-1.7-3.2-1.3-3.3-1-3.7-.5-4v-4l.3-4.3.7-4.2 1.3-4.3 1.2-3.2 1.5-3 1.5-2.8 2-2.5 1.8-2.5 2.2-2.2 2.3-2 2.2-1.8 2.3-1.2 2.5-1.3 2.5-1 2.5-.5 2.7-.2h2.5l2.5.2 2.5.8 2.3 1 2.2 1.2 2 1.5 2 1.8 1.5 2.2 1.5 2.3 1.3 2.2 1 2.8.7 2.7.5 2.8.3 3.2v6.3l-.5 3.2-.8 3.3-1 3.2-1.5 3.8-1.7 3.2-2 3.3-2.3 3-2.2 2.7-2.8 2.3-2.7 2-2.8 1.5-2 1-2 .7-2.2.5-2 .3h-4.3l-2-.5-2.2-.5-1.5-.8-1.8-.7-1.5-.8-1.2-1.2-2.5-2.5zm-66.2 102.8.2.2.3.3 2.2 2.2 4.5 3.5 3.3 2 3.5 2.5 4.2 2.3 5 2.2 5.5 2.5 6 2.3 6.8 2 7.5 2 8 1.7 8.7 1.3 9.5.7 10.3.5" stroke-width="14"/><path d="m500.5 323.5 2.3-4.2 1.2-1.8 1.8-1.7 1-1 1.2-.5 4-22.8 3.8-20.7 2.2-10.3 2-9.2 1.8-7.8 1.7-5.5 2.8-7.5 1.5-4.2 1.5-3.5m-82.8 236.2.3.3 23.2 12.7" stroke-width="14"/><path d="m538 371.5h-.7l-2-.2h-1.8l-1.7.5-1.8.5-1.5.7-1.5 1-1.7 1-1.3 1.3-2.7 3-2.8 3.2-2.5 4-2.2 4.3-2.3 4.2-2.2 4.5-4 9.3-4 8.7-2 3.8-2 3.5-4.3 6.7-3.7 5.3-5.3 7.5-2 2.7-1.5 2.3-1.2 2.5-.8 2.7-1 3.5-1.5 4.3-1.7 4.7-2.5 5-2.8 6-3.2 5.5-3.3 5-1.7 2.3-1.5 2-1.5 1.5-1 1.5-1 1.5-.5 1.2-.5 1.3-.3 1.2v2l.3 1.8.5 1.2.5 1 .7 2.3.5 2v3.2l-.2 1-.8 1-.5.8-1 .7-2 .8-2.2.7-2.3.5-2.2 1-1 .5-.8.8-1.2 1.2-.8 1.8-.7 1.7-.8 2-1.5 2-1 1-1 1-1.5 1-1.5 1-1.7 1-1.8.5-1.5.3h-1.5l-1.5-.3-1-.7-1.2-.5-.8-1-.7-1-.5-1.3-.5-1.2-.3-1.5.3-1.3.2-1.5.5-1.5.8-1.5 3.2-5.5 2-4.2 2.3-5 2.2-5.8 2.8-7 2.5-7.7 2.7-8.8 3.5-11.5 2.8-8.7 2.2-6.3 2-5 2-4.5 2.3-4.5 2-4.2 2-4.3 1-2.7 1-3.8 3-11 4-15.2 4.5-15.8 2.2-7.5 2.3-6.7 2.2-5.8 2-4.5 2-5.2 2-4.3 2.3-5 2.7-5.7 3.5-6 4-6 2.3-3 2.5-3 1.5-1.5 1-1.3m13.5-65.5-4.5-2.5-4.3-2.5-4.2-3-4-3-4.3-3.5-4.5-3.7-9.5-8.8-6.2-5.7-5.8-5.8-5-5.2-4.2-4.8-6.3-6.7-2-2.8-5.2-17.7-7.3-23.8-.2-.5 15-7.5 1.5-.7 8.2 18.7 5.8 14.3 3.7 8.7.5 1.3 1 1.2 3.3 2.8 4 3.2 4.7 3.3 10.3 6.7 4.5 3.3 3.7 2.7 4 3 5.3 3.3 3 1.7 3 1.5 3.5 1.5 3.5 1.5 4.5 1.5 5 1 4.7.5h5l2.3-.2 2.5-.5 2.5-.8 2.2-.7 2.5-1.3 2.3-1.2 2.2-1.5 2.3-1.8" stroke-width="14"/><path d="m438.5 108-1.7-3.5-.5-.5-.8-.5h-.7l-.8.3-.5.5-.5.7-.2.8.2 1m12.5 14.7-3.5-7-3.5-6.5m10 11.8.5 1.5.3 2.5-.3 1.5-.2.5-.3.2-.5-.5-.5-.7-2-3.3" stroke-width="7"/><path d="m457 145.5-.7-2-1.3-4-.5-2v-.7l.3-.8.2-2.2.3-2.8-.3-2.7-.5-2.3-1.2-4.5-.5-2.2-.5-1.8v-.5l-.5-.2-.8-.3-.7.3-.5.2-.8.5-.2 1-.3 1.3m-21.5 5-2.2-6.3-.8-2.2v-.8l.5-.2 1-.5.8-.3.5.5.7.8h.3m13.7 35.7-6.2-10-4.5-8-1.8-3.2-1-2.5-1-3m2-15.8 4 8.5 2.8 6" stroke-width="7"/><path d="m433.3 129.8-5.8-14-1.5-3.8-.5-1.5v-1.5l.5-.7 1-.5h.8l.5.2.2.5.5.5m0 0-.7-1.5-.3-1.2.3-1.3.5-1 1.2-.5h1l.3.3.5.5 1.2 2.5 9.5 19" stroke-width="7"/><path d="m623.5 273.5 5 .3 5-.3 5-.7 5.3-.8 5.2-1 5.8-1.2 12.5-3 8.2-2.3 7.8-2.2 7-2.3 6-2 8.5-3.2 3.2-1.3 13-13 17.8-17.5.5-.5-9.8-13.5-1-1.5-16 12.8-12 9.5-7.5 6-1 .7-1.5.8-4 1-5 .7-6 .8-12 1-5.5.5-4.7.7-5.8.8-3.5.5h-8l-4.2-.3-4.5-.5-4.3-1-4-1-3.7-1.5-3.8-1.7-3.2-2.3-3.3-2.5-3-3-1.2-1.7-1.3-2-1-2-1-2-.7-1.8" stroke-width="14"/><path d="m762 186 3.3-2.2.7-.3h.8l.7.5.5.5.3.8.2.7-.2 1-.8.8m-18 6.7 6.5-4.2 6-4.3m-14.2 5.5-1.3 1.5-1.2 2-.8 1.3v.7l.3.3.5-.3 1-.5 3.2-2m-21.5 15.8 1.5-1.3 3.3-3 1.2-1.5.3-.7.2-.8.8-2 1.2-2.5 1.5-2.5 1.3-1.7 3.5-3.5 1.5-1.5 1-1.3.5-.5h.5l.7.3.5.5.5.5.3.7-.3 1-.2 1m16.5 15 5-4.5 1.5-1.7.2-.8v-.2l-.7-1-.5-.5h-.8l-1 .2m-29.2 25 10.2-6 7.8-4.7 3.2-2 2-1.8 2.3-2m5.7-15-3.5 2.5-4.2 3-5.3 4" stroke-width="7"/><path d="m756.3 207.8 11.7-9.8 3.3-2.5 1-1 .5-.7.2-.8v-.7l-.7-.8-.8-.5h-.5l-.5.3-.5.2m0 0 1.3-1 .7-1 .5-1v-1.2l-.7-1-1-.5h-.3l-.5.2-2.5 1.8-17.2 12" stroke-width="7"/><path d="m589.8 350.5.7-4.7.3-2 1-4.5 1-3.8 1-3.5 3-6.5 7.5-15.5 8.5-19.2 3.7-9.3 3-8 1.3-3.2.7-2.8.5-3.7.8-6 .2-7.3v-7.2m-59.7 251h-.3l-26.2-2" stroke-width="14"/><path d="m536.8 371.3.5.2 1.2.5 1 .8 1.3 1 .7 1.2.8 1.3.7 1.5 1 3.2.5 4 .3 4.3-.3 4.7-.2 4.8-1 10.2-1.5 10.5-1.3 9.8-.2 4.5-.3 4-.2 8 .2 6.5.5 9v6.2l-.5 2.8-1 2.7-1 3.5-1 4.5-1.2 5.3-.8 5.7-.7 6.3-.5 6.2v5.8l.2 2.7.3 2.3.2 2.2v3.5l-.2 1.5-.3 1.3-.5 1-1 2-1.2 1-1 1-1.3.5-1.7 1.5-1.5 1.2-1 1.5-.8 1.3-.2 1-.3 1.2.3 1 .2 1 1.3 1.8 1.5 1.7 1.7 2 1.3 2 .5 1 .2.8.3 2-.3 1.7-.5 1.8-.2 2.2v2.3l.2 1.5.3 1.5.7 1.5.8 1.7 1 1.8 1 1.5 1.2 1 1.3.7 1.2.5 1.3.3h1.2l1.5-.3 1-.5 1.3-.5 1-1 .7-1 .8-1.2.7-1.5.3-1.5.2-1.5v-2.8l.5-3.7.5-4.5 1-5.5 1.3-6.3 1.5-7 2.2-8 2.5-8.7 3.5-11.5 2.5-9 1.5-6.3 1.3-5.2.7-5 .8-5 .5-4.5.7-4.8.8-2.7 1-3.8 3.7-10.7 5.3-15 4.7-15.8 2.3-7.5 2-6.7 1.2-6 .8-4.8.7-6.2.8-11.3.2-6.7v-7.5l-.2-7.5-.8-7.5m-511.7 398.7-.3-5.2v-10.5l.3-5.3.5-5 .7-5.2.8-5 1-4.8 1.2-5 1.3-4.5 1.5-4.7 1.5-4.3 1.7-4.5 2-4.2 2-4 2.3-3.8 2.2-3.7 2.5-3.8 2.5-3.2 2.8-3.3 2.7-3.2 3-2.8 3-2.7 3-2.5 3.3-2.3 3.2-2 3.3-2 3.5-1.5 3.5-1.5 3.5-1 3.7-1 3.8-.7 3.7-.3 3.8-.2 5.5.2 5.5 1 5.5 1.5 5.2 1.8 5 2.5 4.8 3 4.7 3.5 4.5 3.7 4.3 4.3 4 4.7 3.7 5 3.5 5.5 3.3 5.8 3 6 2.7 6.5 2.3 6.7.2.8-.5-7.3v-14.7l.5-7.5.5-7.3 1-7 1.3-7.2 1.2-6.8 1.8-6.7 1.7-6.8 2.3-6.5 2.2-6.2 2.5-6 2.8-6 2.7-5.8 3.3-5.5 3.2-5.2 3.5-5 3.5-4.8 3.8-4.7 4-4.3 4-4 4.2-3.7 4.3-3.5 4.5-3.3 4.7-3 4.8-2.5 4.7-2.5 5-1.7 5-1.8 5-1.2 5.3-1 5.2-.5 5.5-.3 4 .3 3.8.2 4 .5 3.7.8 4 .7 3.8 1.3 3.5 1.2 3.7 1.5 3.5 1.5 3.8 2 3.2 2 3.5 2 3.3 2.5 3.5 2.3 3 2.7 3.2 2.8 3 3 3 3 2.8 3.2 3 3.5 2.7 3.5 2.5 3.5 5 7.8 4.5 8.2 4.3 8.5 3.7 9 3.3 9.5" stroke-width="14"/></g></svg>