<svg height="850" viewBox="0 0 850 850" width="850" xmlns="http://www.w3.org/2000/svg"><path d="m759.3 259.3h-1l.2 4 .3 3.7-.3 4-.5 4-.7 4.3-1.3 4.2-1.5 4.3-1.7 4-2 3.7-2.3 3.8-2.7 3.7-2.8 3.5-3.2 3.5-3.3 3-3.7 3.3-3.8 3-4 2.7-4.2 2.5-4.5 2.5-4.8 2.3-4.7 2.2-5 2-5.3 1.8-5.2 1.5-5.5 1.5-5.8 1.2-5.7 1-5.8.8-6 .7-6.2.5-6 .3h-6.5l-6.3-.3-6.5-.5-6.5-.7-6.5-.8-6.5-1.2-6.2-1.3-6.3-1.5-6.2-1.7-6-2-5.8-2-5.7-2.3-5.5-2.5-5.3-2.5-5.2-2.7-5-2.8-4.8-3-4.7-3.2-4.3-3.3-4.2-3.5-4-3.5-3.8-3.5-3.5-3.7-3.2-3.8-3-3.7-2.8-4-2.5-4-2.2-4.3-2-4.2-1.8-4-1.2-4.3-1-4.5-.8-4.2-.5-4.3-.2-4.5.2-4.5.5-4.2 1-5-.7-.3 1.7-4.7 2-5 2.3-4.5 2.2-4.8 2.5-4.5 2.8-4.2 2.7-4.3 3-4.2 3-4 3.3-4 3.2-3.8 3.5-3.5 3.8-3.5 3.7-3.5 3.8-3.2 4-3 4.2-3 4-2.8 4.5-2.5 4.3-2.5 4.5-2.2 4.7-2 4.5-2 4.8-1.8 5-1.5 5-1.2 5-1.3 5-1 5-.7 5.2-.5 5.3-.3h11.5l6.2.5 6 .8 6 1 6 1.2 5.8 1.5 5.7 2 5.5 2 5.5 2.3 5.3 2.7 5.2 2.8 5 3 5 3.2 4.8 3.5 4.5 3.8 4.5 3.7 4.2 4.3 4 4.2 4 4.5 3.8 4.5 3.5 5 3.2 5 3.3 5 2.7 5.3 2.8 5.5 2.5 5.5 2.2 5.7 1.8 5.8 1.7 6 1.5 6 1.3 6.2z" fill="#ed1e29"/><path d="m759.3 259.3 1 9v4.7l.2 4.8-.2 7-.5 7-.8 7-1.2 6.7-1.5 6.5-1.8 6.5-2 6.5-2.5 6.3-2.5 6-3 6-3.2 5.7-3.3 5.5-3.7 5.5-4 5-4 5-4.5 5-4.5 4.5-4.8 4.3-5 4-5.2 4-5.3 3.5-5.5 3.2-5.7 3-5.8 2.8-6 2.5-6.2 2.2-6.3 1.8-6.2 1.5-6.5 1.2-6.8 1-6.5.5h-13.7l-6.5-.5-6.8-1-6.5-1.2-6.2-1.5-6.3-1.8-6.2-2.2-6-2.5-5.8-2.8-5.7-3-5.5-3.2-5.3-3.5-5.2-4-5-4-4.8-4.3-4.5-4.5-4.5-5-4-5-4-5-3.7-5.5-3.3-5.5-3.2-5.7-3-6-2.5-6-2.5-6.3-2-6.5-1.8-6.5-1.5-6.5-1.2-6.7-.8-7-.5-7-.2-7 .2-6.3.3-6 .7-6 .8-6 1.2-6 1.3-5.7 1.7-5.8 1.8-5.5.7.3-1 5-.5 4.2-.2 4.5.2 4.5.5 4.3.8 4.2 1 4.5 1.2 4.3 1.8 4 2 4.2 2.2 4.3 2.5 4 2.8 4 3 3.7 3.2 3.8 3.5 3.7 3.8 3.5 4 3.5 4.2 3.5 4.3 3.3 4.7 3.2 4.8 3 5 2.8 5.2 2.7 5.3 2.5 5.5 2.5 5.7 2.3 5.8 2 6 2 6.2 1.7 6.3 1.5 6.2 1.3 6.5 1.2 6.5.8 6.5.7 6.5.5 6.3.3h6.5l6-.3 6.2-.5 6-.7 5.8-.8 5.7-1 5.8-1.2 5.5-1.5 5.2-1.5 5.3-1.8 5-2 4.7-2.2 4.8-2.3 4.5-2.5 4.2-2.5 4-2.7 3.8-3 3.7-3.3 3.3-3 3.2-3.5 2.8-3.5 2.7-3.7 2.3-3.8 2-3.7 1.7-4 1.5-4.3 1.3-4.2.7-4.3.5-4 .3-4-.3-3.7-.2-4z" fill="#ed1e29"/><g fill="none" stroke="#231f20" stroke-linecap="round" stroke-miterlimit="10"><path d="m759.3 259.3 1 9v4.7l.2 4.8-.2 7-.5 7-.8 7-1.2 6.7-1.5 6.5-1.8 6.5-2 6.5-2.5 6.3-2.5 6-3 6-3.2 5.7-3.3 5.5-3.7 5.5-4 5-4 5-4.5 5-4.5 4.5-4.8 4.3-5 4-5.2 4-5.3 3.5-5.5 3.2-5.7 3-5.8 2.8-6 2.5-6.2 2.2-6.3 1.8-6.2 1.5-6.5 1.2-6.8 1-6.5.5h-13.7l-6.5-.5-6.8-1-6.5-1.2-6.2-1.5-6.3-1.8-6.2-2.2-6-2.5-5.8-2.8-5.7-3-5.5-3.2-5.3-3.5-5.2-4-5-4-4.8-4.3-4.5-4.5-4.5-5-4-5-4-5-3.7-5.5-3.3-5.5-3.2-5.7-3-6-2.5-6-2.5-6.3-2-6.5-1.8-6.5-1.5-6.5-1.2-6.7-.8-7-.5-7-.2-7 .2-6.3.3-6 .7-6 .8-6 1.2-6 1.3-5.7 1.7-5.8 1.8-5.5 1.7-4.7 2-5 2.3-4.5 2.2-4.8 2.5-4.5 2.8-4.2 2.7-4.3 3-4.2 3-4 3.3-4 3.2-3.8 3.5-3.5 3.8-3.5 3.7-3.5 3.8-3.2 4-3 4.2-3 4-2.8 4.5-2.5 4.3-2.5 4.5-2.2 4.7-2 4.5-2 4.8-1.8 5-1.5 5-1.2 5-1.3 5-1 5-.7 5.2-.5 5.3-.3h11.5l6.2.5 6 .8 6 1 6 1.2 5.8 1.5 5.7 2 5.5 2 5.5 2.3 5.3 2.7 5.2 2.8 5 3 5 3.2 4.8 3.5 4.5 3.8 4.5 3.7 4.2 4.3 4 4.2 4 4.5 3.8 4.5 3.5 5 3.2 5 3.3 5 2.7 5.3 2.8 5.5 2.5 5.5 2.2 5.7 1.8 5.8 1.7 6 1.5 6 1.3 6.2z" stroke-width="21"/><path d="m758.3 259.3.2 4 .3 3.7-.3 4-.5 4-.2 1.3m-5.3 16-1.7 3.2-2.3 3.8-2.7 3.7-2.8 3.5m-12.5 11.5-1.5 1.3-4 2.7-4.2 2.5-4.5 2.5m-15.5 6.8-4.3 1.5-5.2 1.5-5.5 1.5-1.5.2m-16.8 3-5 .5-6.2.5h-5.5m-17-.2-2.8-.3-6.5-.7-6.5-.8-1.2-.2m-16.5-3.5-1.3-.3-6.2-1.7-6-2-2.8-1m-15.7-6.5-3.8-1.8-5.2-2.7-5-2.8-1-.7m-14-9.8-3-2.5-4-3.5-3.8-3.5-1.7-2m-10.5-13.2h-.3l-2.5-4-2.2-4.3-2-4.2-1-2.5m-4-16.3-.3-2.5-.2-4.5.2-4.5.5-4.2.3-1.3" stroke-width="17.5"/><path d="m89 710.3-.2-6.8-.3-7 .3-7 .2-7 .8-7 .7-6.7 1.3-6.8 1.2-6.5 1.5-6.5 1.8-6.2 2-6 2.2-6 2.3-5.8 2.7-5.7 2.8-5.5 2.7-5 3.3-5 3.2-5 3.3-4.5 3.7-4.3 3.8-4.2 3.7-3.8 4-3.5 4.3-3.5 4.2-3 4.3-2.7 4.5-2.5 4.5-2.3 4.7-1.7 4.8-1.5 5-1.3 4.7-1 5.3-.5h8.7l3.8.3 3.7.5 3.5.7 3.8.8 3.5 1 3.5 1.2 3.5 1.5 3.2 1.5 3.5 1.8 3.3 1.7 3.2 2.3 3.3 2 3 2.5 3 2.5 3 2.5 3 3 2.7 2.7 5.3 6.3 5.2 7 4.5 7.2 4.5 7.5 4 8.3 3.5 8.5 3 9 .3 1.2-.5-9.7-.3-9.8.3-10 .5-10 1-9.7 1-9.5 1.7-9.5 1.8-9.3 2.2-9 2.5-8.7 2.8-8.8 3-8.5 3.5-8 3.5-8 4-7.5 4-7.5 4.5-7 4.5-6.7 5-6.5 5-6 5.2-5.8 5.5-5.5 5.5-5 5.8-4.7 6-4.3 6.2-4 6.3-3.5 6.5-3 6.7-2.7 6.8-2 6.7-1.8 7-1.2 7-.8 7.3-.2h5.2l5.3.5 5.2.7 5 1 5.3 1 5 1.5 5 1.8 4.7 2 4.8 2.2 4.7 2.3 4.8 2.7 4.5 3 4.5 3 4.2 3.3 4.5 3.5 4 3.7 4.3 4 3.7 4.3 4 4.2 3.8 4.5 3.5 4.8 3.5 4.7 3.5 5 3.2 5.3 3 5.5 3 5.5 3 5.5 2.8 6 2.5 5.7 2.5 6.3 2.2 6.2 2 6.3" stroke-width="21"/></g></svg>