<svg height="850.394" viewBox="0 0 850.394 850.394" width="850.394" xmlns="http://www.w3.org/2000/svg"><path d="m200.29 421.87v18.14l-15.76-9.07-15.7-9.07 15.7-9.07 15.76-9.07z" fill="#797878"/><path d="m635.33 454.33h-90.81l-25.88-27.64v-4.97h85.54v3.66zm.66-65.8-31.15 28.95v4.24h-85.54v-5.55l25.88-27.64z" fill="#ed1e29"/><g fill="none"><g stroke="#231f20"><path d="m425.34 781.97s-.56-3.609-1.91-9.18c-3.47-14.21-12.18-41.21-30.26-53.4-25.15-16.97-80.13-43.87-119.32-118.739-9.67-18.49-17.02-41.301-22.55-63.9-12.08-49.41-15.47-97.83-15.47-97.83l-.58-16.09s.02-.38.07-1.11c.55-7.65 4.12-53.85 13.9-100.94 5.8-27.96 13.79-56.22 24.63-76.93 39.19-74.87 94.17-101.77 119.32-118.73 17.29-11.67 26.01-36.88 29.77-51.49 1.71-6.64 2.4-11.1 2.4-11.1" stroke-linecap="round" stroke-linejoin="round" stroke-width="28"/><path d="m425.92 74.23v698.37" stroke-width="21"/><path d="m206.74 421.72h458.57" stroke-linecap="round" stroke-linejoin="round" stroke-width="21"/><path d="m518.64 426.69 25.88 27.64h90.81l-31.15-28.95m-84.88-9.21 25.88-27.64h90.81l-31.15 28.95m-436.01 4.39 15.7-9.07 15.76-9.07v36.28l-15.76-9.07zm86.88 113.82s42.57 8.109 28.08-34.21c-11.4-33.32-13.45-69.29-13.45-69.29-.34-3.73-.51-7.181-.53-10.47-.18-20.37 5.26-34.24 11.64-66.15 8.77-43.87-28.07-34.22-28.07-34.22" stroke-width="14"/></g><path d="m0 0h850.394v850.394h-850.394z"/></g></svg>