<svg height="850" viewBox="0 0 850 850" width="850" xmlns="http://www.w3.org/2000/svg"><path d="m694.6 312-1.3-3.7-2-5-2.7-6-3.5-6.8-4-6.7-2.3-3.3-2.2-3.2-2.5-3-2.8-2.8-2.7-2.7-3-2.3h2.7l2.5-3.7 2.3-3.8 2-4 1.5-4.2 2.7 4 2.3 2.7 2.7 3 3 3 3.8 2.8 1.7 1.2 2 1.3 2.3.7 2 .8 2.7.5 3.3.5 7.7.5 9.3.7 5 .8 5 .7-.5 3.5-1.3 70.8-3-2-3.2-2.3-5.5-4.7-5.3-4.8-4.7-5-4.3-4.7-6.5-7.8-2.5-3z" fill="#a8d7f4"/><path d="m730.3 348.3 1.3-70.8.5-3.5 6 1.5 3 1 3 1 2.7 1.5 2.8 1.3 2.7 1.7 2.5 2 2.5 2 2.3 2.5 2 2.5 1.7 3 1.8 3.3 1.2 3.5 1.3 3.7 1 4.3 1 6 1.7 7.2 4 18 2.3 10 2.2 10.3 2 10.5 1.5 10.5-.5.2-4.2-4.5-4-4-3.8-3.2-3.5-3-3.5-2.5-3.5-2-3-1.8-3.2-1.5-6-2.7-5.8-2.3-6-2.5-2.7-1.5zm-147.7 2-13.8-1.3-12-1.2-10.2-1.8-8.8-1.5-7.2-1.7-6-2-5.3-1.8-4-1.7-3.5-1.8-2.7-1.5-4.8-2.7-2-1.3-2.2-.7-2.3-.8-3-.2-9-.5-8.2-.5-7.8-.8-7-.7-12.2-2-10-1.8-7.5-1.7-5.3-1.5-4-1.3-3-.7.3-1 1.2-.3 1-.7 2-1.5 1.5-2 1.3-2.5 1-2.8.7-2.7.8-3.3.5-3 .2-6 .3-5.2-.3-5.8v-.2l16-.3h17.3l8.5.3 8.2.5 7.5 1 6.8 1 6.5 1.7 6.2 1.8 6.3 1.5 3.5.7 3.5.5 4 .5 4 .3h4.2l4.8-.3 5.2-.7 5.5-.8 6-1.2 6.8-1.8 4.5-1 4.2-1 4-.5 3.8-.5 3.5-.2 3.2-.3 6 .3-6 69.2z" fill="#ffeec8"/><path d="m653.6 513-6.3-1.2-5.7-1.5-5.5-1.3-4.8-1.5-4.2-1.5-4-1.7-3.5-1.5-3-1.8-2.8-1.5-2.2-1.5-2-1.5-1.8-1.5-2.5-2.7-1.5-2.3-.7-1.5-.5-1-.3-.7.8-14 .5-14.8.5-17.2v-26.5l-.3-8-.5-7.5-.7-6.3-1-5.2-.5-2-.8-1.5-5-10.5-5-9.3-4.5-7.7-3.2-6 2.7.2 6-69.2 5.3.7 4.5 1 3.5 1.3 3 1.2 2.2 1.3 1.5 1 1.3 1 .5.2-.8 3.3-.2 3.5.2 3.2.8 3.3 1.5 2.7 1.7 2.8 1 1.2 1.3 1.3 1.5 1 1.5.7 2.2 1.3 2.8 1 6 2.2 13.5 3.8 6.5 2 3 1.2 2.7 1.3 2.5 1.2 2 1.5 1.8 1.8 1 1.7 6.5 12.8 13.2 27.2.8 1 1.5 3.3 2.2 3.5 2.5 3.7 3 4 3.3 4 3.7 4.3 4 4 4 4.2 4.5 4.3 4.8 4 5 3.7 5 3.8 5.2 3.2 5.3 3 5.2 2.8 5.5 2.2v9.5l.3 16.8.2 10 .5 9.5 1 8.5.5 3.5.5 3-4.5 2.5-6.5 3.2-8.7 4-5 2-5.5 2-6 2-6.3 2-6.5 1.8-7 1.5-7 1.2-7.2 1-7.5.5h-7.3l-7.5-.5-4-.5z" fill="#a8d7f4"/><path d="m417.3 387-.2 5.8v5.2l.5 6 .5 3 .5 3 .7 3 1.3 2.8 1.2 2.5 1.5 2 2 1.5 1 .7 1.3.3v1l-2.8.5-4.2 1.5-5.3 1.5-7.5 1.7-9.7 1.8-12.3 2-7.2.7-7.8.8-8.2.5-9 .5-2.8.2-2.5.8-2 .7-2.2 1.3-4.8 2.7-2.7 1.8-3.8 1.7-4.2 1.8-5.3 1.7-6.2 1.8-7.5 1.7-9 1.8-10.8 1.5-12.2 1.5-14.5 1.2-1.3-.2-1.7 4.5-.5-.3v-73.2h5.7l6.3.5 7.2 1 7.8 1.7 6.5 1.8 6 1.2 5.7.8 5 .7 4.8.3h4.5l4-.3 3.7-.5 3.8-.5 3.2-.7 6.5-1.5 6.3-1.8 6.2-1.7 6.8-1 7.7-1 8-.5 8.5-.3 8.8-.2 8.7.2 16 .3z" fill="#ffeec8"/><path d="m246.3 593.8-.2.7-.5 1-.8 1.5-1.7 2.3-2.5 2.7-1.8 1.5-2 1.5-2.2 1.5-2.5 1.5-3.3 1.8-3.5 1.5-3.7 1.5-4.3 1.7-5 1.5-5.2 1.3-5.8 1.5-6.5 1.2-4 .5-4 .5-4 .3-4 .2-8-.2-7.7-.5-7.8-1.3-7.5-1.2-7.2-1.8-6.8-2-6.5-2.2-6-2-5.5-2.3-5.2-2.2-8.3-3.8-5.2-3-2.3-1.2.5-3 .5-3.5.8-8.5.5-9.5.5-10 .2-16.8v-7.2l-5-.8 5.8-1.7 5.7-2.5 5.5-3 5.8-3.3 5.2-3.7 5.5-4 5-4 4.8-4.3 4.5-4.5 4.5-4.5 3.7-4.2 3.8-4.5 3-4.3 3-4 2.2-3.5 1.8-3.5.5-1 12.2-25 7.3-14.5.2-.5 1.3-1.7 1.5-1.8 2-1.5 2.5-1.2 2.7-1.3 3-1.2 6.5-2 13.8-4 6-2 2.5-1 2.5-1.3 1.5-.7 1.2-1.3 1.3-1 1.2-1.2 1.8-2.8 1.2-3 1-3 .3-3.2-.3-3.5-.7-3.3.5-.2 1.2-1 1.8-1.3 2.5-1.2 3.2-1.5 4-1 5-1 2.8-.5h3v73.2l.5.3-2.3 6-2.7 7-3.3 7.5-3.7 8.5-.8 1.5-.5 2-1 5.2-.5 6.3-.5 7.2-.2 8.3-.3 8.5.3 18 .2 17.2.8 14.8z" fill="#a8d7f4"/><path d="m163.1 478-.5 1-1.8 3.5-2.2 3.5-3 4-3 4.3-3.8 4.5-3.7 4.2-4.5 4.5-4.5 4.5-4.8 4.3-5 4-5.5 4-5.2 3.7-5.8 3.3-5.5 3-5.7 2.5-5.8 1.7-3.2 1-3.5.5-3.3.5-3.2.3h-1.5l-1.5-.3-1.5-.2-1.3-.5-1.2-.5-1-.8-2.3-1.7-1.5-2.3-1.5-2.5-1.2-3.2-.8-3.3-.5-4-.5-4v-9l.3-4.7.2-5 1.3-10.5.7.2 3.3-3.7 3-3 3.2-3 2.8-2.5 3-2.3 2.7-2 5-3.2 5-2.5 4.8-2.3 9.2-3.7 5-2.3 5.3-2.7 4.7-3.3 2.5.3 1 1.5 2.8 3 4 4.2 5.2 4.8 2.8 2.2 3 2.3 3.2 2.2 3 1.8 3.3 1.5 3.2 1.2 3.3.8z" fill="#ffeec8"/><path d="m111.6 382.3-4 77.2.2.8-9.2 3.7-4.8 2.3-5 2.5-5 3.2-2.7 2-3 2.3-2.8 2.5-3.2 3-3 3-3.3 3.7-.7-.2 1.7-10.5 2-10.5 2-10.3 2.3-10 4.2-18 1.5-7.2 1.3-6 .7-3.8 1-3.5 1.3-3.2 1.5-3 1.5-2.8 1.7-2.5 1.8-2.2 2.2-2 2-2 2.3-1.8 2.5-1.5 2.5-1.2 2.5-1.3 2.7-1zm60.2-24.5-1.7-6-1.5-6.3-.8-6.5-.2-6.5.2-6.2.8-6.3 1-5.7 1.7-5.5 2-5.5 2.5-5 2.8-4.8 3.2-4.2 3.5-4 3.8-3.5 4-3 4.5-2.5 4.5-2.3 4.7-1.5 2.3-.5 2.5-.2 2.5-.3 2.5-.2 2.5.2 2.5.3 2.5.2 2.5.5 4.7 1.5 4.5 2.3 4.3 2.5 4 3 3.7 3.5 3.5 4 3.3 4.2 2.7 4.8 2.5 5 2 5.5 1.8 5.5 1.2 5.7.8 6.3.2 6.2-.2 4.8-.5 5-.8 4.5-1 4.7-1.2 4.3-1.5 4.2-2 4-2 4-2.3 3.5-2.5 3.5-2.7 3.3-2.8 3-3 2.5-3.2 2.5-3.5 2-3.5 1.7-.3.3-1.5-2-1.7-2-4-4.3-4.3-4.2-2.2-2-2.3-1.8-2.2-1.7-2.5-1.5-2.8-1.3-2.7-1-3-.7-3-.3-3.3.3-3.2.7-3.5 1-4 1.8-2.8 1.7-2.7 2-.8-1.5-2.5-3.7-2.2-3.8-2-4zm504.8-107-1.5 4.2-2 4-2.3 3.8-2.5 3.7h-2.7l-1.8-1.2-2-1-3.7-1.8-3.5-1-3.5-.7-3.3-.3-3 .3-2.7.7-3 1-2.5 1.3-2.5 1.5-2.5 1.7-2.3 1.8-2.2 2.2-4.3 4-4 4.3-1.5 2-1.5 2-.5-.3-3.5-1.7-3.2-2-3.3-2.5-3-2.5-3-3-2.5-3.3-2.5-3.2-2.5-3.8-2-3.7-1.7-4.3-1.5-4.2-1.5-4.3-1-4.5-.8-4.7-.5-5v-4.8l.3-6.2.7-6 1.3-6 1.5-5.5 2-5.5 2.5-5 3-4.8 3-4.2 3.5-4 3.7-3.5 4.3-3 4.2-2.5 4.5-2 4.8-1.5 2.2-.8 2.5-.2 2.5-.3h5l2.5.3 2.5.2 2.5.8 4.8 1.5 4.5 2 4.2 2.5 4 3 3.8 3.5 3.5 4 3.2 4.2 2.8 4.8 2.5 5 2.2 5.5 1.5 5.5 1.3 6 .7 6 .3 6.2-.3 6.5-1 6.5-1.2 6.3zm106.7 130.5 1.3 10.5.5 5 .2 4.7v4.8l-.2 4.2-.3 4-.5 4-1 3.3-1 3.2-1.5 2.5-1.7 2.3-2 1.7-1.3.8-1 .7-1.5.3-1.2.2-1.5.3h-1.8l-4.5-.3-4.5-.7-4.5-1.3-4.5-1.5-5.5-2.2-5.2-2.8-5.3-3-5.2-3.2-5-3.8-5-3.7-4.8-4-4.5-4.3-4-4.2-4-4-3.7-4.3-3.3-4-3-4-2.5-3.7-2.2-3.5-1.5-3.3-.8-1 3.3-.2 3.2-.8 3-1.2 3.3-1.5 3.2-1.8 3-2.2 3-2.3 3-2.2 5-4.8 4.3-4.2 2.7-3 1-1.5.8-1.3 3.2 2.3 3 2 3.3 1.7 2.7 1.5 6 2.5 5.8 2.3 6 2.7 3.2 1.5 3 1.8 3.5 2 3.5 2.5 3.5 3 3.8 3.2 4 4 4.2 4.5z" fill="#ffeec8"/><path d="m180.6 437.5 2 1-7.3 14.5-12.2 25-3-.2-3.3-.8-3.2-1.2-3.3-1.5-3-1.8-3.2-2.2-3-2.3-2.8-2.2-5.2-4.8-4-4.2-2.8-3-1-1.5-2.5-.3 5.8-4.5 5.5-5 5-5.2 4.7-5 6.8-8 2.5-3.3.7-2z" fill="#9c5c25"/><path d="m182.8 438-.2.5-2-1-26.8-18.5 1.3-3.5 2-4.7 2.7-5.8 3-6.5 3.8-6.5 2.2-3.2 2-3 2.5-3 2.5-3 2.5-2.5 2.8-2.3 2.7-2 2.8-1.7 4-1.8 3.5-1 3.2-.7 3.3-.3 3 .3 3 .7 2.7 1 2.8 1.3 2.5 1.5 2.2 1.7 2.3 1.8 2.2 2 4.3 4.2 4 4.3 1.7 2 1.5 2 1.5 2.7 1.3 3 .7 3.3.3 3.5-.3 3.2-1 3-1.2 3-1.8 2.8-1.2 1.2-1.3 1-1.2 1.3-1.5.7-2.5 1.3-2.5 1-6 2-13.8 4-6.5 2-3 1.2-2.7 1.3-2.5 1.2-2 1.5-1.5 1.8zm236.3-51.2 4-.3 4-.2 3.7-.5 3.5-1 3.3-.8 3-1 5.5-2.2.5.7-.3.8-.2 1.2v3.8l.5 4.7 1 5.5.7 3 1 2.8 1.3 2.7 1.2 2.8 1.8 2.5 1.7 2.2 2.3 1.8 2.2 1.7-9 1.5-9 2-14.2 3.3v-1l-1.3-.3-1-.7-2-1.5-1.5-2-1.2-2.5-1.3-2.8-.7-3-.5-3-.5-3-.5-6v-5.2l.2-5.8v-.2z" fill="#9c5c25"/><path d="m446.6 381.5-.5-.7 3.7-2 2.8-1.5 2.5-1.5 1.7-1 5.3-2.5 3.5-1.5 4-1.8 4.5-1.5 5-1.2 5-1 5.2-.5h5.5l2.5.2 2.8.3 2.7.5 2.5.7 2.5 1 2.5 1.3 2.5 1.5 2.3 1.7 2.2 1.8 2 2.2 2 2.5 1.8 2.5 1.5 2.3 1.2 2.5 1 2.2.8 2.3.7 2.2.3 2.3.2 2.2.3 2.3v2l-.3 2-1 4-1.2 3.7-1.8 3.3-2.2 3-2.5 2.7-2.8 2.3-2.7 2-3 1.5-3 .7-3 .5h-3l-2.8-.2-2.5-.5-2.2-.8-2.3-1-2-.7-4-2.3-3.5-2.2-3.5-2-1.7-.8-1.8-.7-1.7-.3-2-.2-2.3.2-3 .3-7.5 1.2-2.2-1.7-2.3-1.8-1.7-2.2-1.8-2.5-1.2-2.8-1.3-2.7-1-2.8-.7-3-1-5.5-.5-4.7v-3.8l.2-1.2z" fill="#9c5c25"/><path d="m724.1 344-.8 1.3-1 1.5-2.7 3-4.3 4.2-5 4.8-3 2.2-3 2.3-3 2.2-3.2 1.8-3.3 1.5-3 1.2-3.2.8-3.3.2-13.2-27.2-6.5-12.8 2.2-.5 26.8-18.5.7 2 2.5 3 6.5 7.8 4.3 4.7 4.7 5 5.3 4.8z" fill="#ed1e29"/><path d="m667.8 330.5-2.2.5-1-1.7-1.8-1.8-2-1.5-2.5-1.2-2.7-1.3-3-1.2-6.5-2-13.5-3.8-6-2.2-2.8-1-2.2-1.3-1.5-.7-1.5-1-1.3-1.3-1-1.2-1.7-2.8-1.5-2.7-.8-3.3-.2-3.2.2-3.5.8-3.3 1-3 1.7-2.7 1.5-2 1.5-2 4-4.3 4.3-4 2.2-2.2 2.3-1.8 2.5-1.7 2.5-1.5 2.5-1.3 3-1 2.7-.7 3-.3 3.3.3 3.5.7 3.5 1 3.7 1.8 2 1 1.8 1.2 3 2.3 2.7 2.7 2.8 2.8 2.5 3 2.2 3.2 2.3 3.3 4 6.7 3.5 6.8 2.7 6 2 5 1.3 3.7zm-236.5-50.5.3 5.8-.3 5.2-.2 6-.5 3-.8 3.3-.7 2.7-1 2.8-1.3 2.5-1.5 2-2 1.5-1 .7-1.2.3-.3 1-14-3.3-9.2-2-9-1.5 2.5-1.7 2.2-2 1.8-2.3 1.7-2.5 1.5-2.7 1-3 1-3 .8-2.8 1-5.7.2-4.8v-3.5l-.2-1-.3-.5.8-.7 5.5 2.2 3 1 3.2 1 3.5.8 3.8.5 3.7.5h6z" fill="#ed1e29"/><path d="m402.6 273.8-.8.7.3.5.2 1v3.5l-.2 4.8-1 5.7-.8 2.8-1 3-1 3-1.5 2.7-1.7 2.5-1.8 2.3-2.2 2-2.5 1.7-7.3-1.2-3-.3-2.5-.2-1.7.2-2 .3-1.8.7-1.7.8-3.5 2-3.5 2.2-3.8 2.3-2.2 1-2 .7-2.5.8-2.5.5-2.8.2h-2.7l-3-.5-3-.7-3-1.5-3-2-2.8-2.3-2.2-2.7-2.3-3-1.7-3.3-1.5-3.7-.8-4-.2-2v-4.3l.2-2.2.5-2.3.8-2.2.7-2.3 1-2.2 1.3-2.5 1.5-2.3 1.7-2.5 1.8-2.2 2.2-2.3 2.3-2 2.2-1.7 2.3-1.5 2.5-1.3 2.7-1 2.5-.7 2.5-.5 2.8-.3 2.7-.2h5.3l5.2.5 5.3 1 4.7 1.5 4.8 1.5 4 1.5 3.5 1.5 5.2 2.5 1.8 1 2.5 1.5 2.7 1.7z" fill="#ed1e29"/><path d="m752.1 493.5.7.5 1 1 1.3 1.3 1.5 1.7 1.7 2.5 1.8 3 1.7 3.8 1.8 4.7 1.7 5.5 1.5 6.5 1.3 7.5 1 8.8.5 9.7.2 11.3-.2 12.5-181.8 1.7v-7l.5-7.2.8-7.3 1-7 1-7 1.2-6.5 2.8-12.7 2.7-11 2.5-9.3 2.3-6.7 1.2-3.8 1.5 2.3 2.5 2.7 1.8 1.5 2 1.5 2.2 1.5 2.8 1.5 3 1.8 3.5 1.5 4 1.7 4.2 1.5 4.8 1.5 5.5 1.3 5.7 1.5 6.3 1.2 3.7.5 4 .5 7.5.5h7.3l7.5-.5 7.2-1 7-1.2 7-1.5 6.5-1.8 6.3-2 6-2 5.5-2 5-2 8.7-4 6.5-3.2z" fill="#231f20"/><path d="m260.8 681.5h-179.2l-2.5.3-.5-12.5.2-11.3.5-10 1-8.7 1.3-7.8 1.5-6.7 1.7-5.5 1.8-4.8 1.7-4 1.8-3 1.7-2.5 1.5-1.7 1.3-1.3 1-1 1-.5.5-1.5 5.2 3 8.3 3.8 5.2 2.2 5.5 2.3 6 2 6.5 2.2 6.8 2 7.2 1.8 7.5 1.2 7.8 1.3 7.7.5 8 .2 4-.2 4-.3 4-.5 4-.5 6.5-1.2 5.8-1.5 5.2-1.3 5-1.5 4.3-1.7 3.7-1.5 3.5-1.5 3.3-1.8 2.5-1.5 2.2-1.5 2-1.5 1.8-1.5 2.5-2.7 1.7-2.3 3.3 10.3 2.5 9 2.7 11 2.8 12.5 1.2 6.7 1 6.8 1 7 .8 7.2.5 7z" fill="#c8c8c8"/><path d="m153.8 419-.7 2-2.5 3.3-6.8 8-4.7 5-5 5.2-5.5 5-5.8 4.5-4.7 3.3-5.3 2.7-5 2.3-.2-.8 4-77.2 5.5-1.3 5.7-1 5.5-.7 5.3-.3 9-.7 3.7-.5 3-.5 2.3-.8 2-1 2-1 2-1.2 3.5-2.8 3.2-3 2.5-3 2.3-2.7 2.7-4 1.8 4.2 2 4 2.2 3.8 2.5 3.7.8 1.5-2.8 2.3-2.5 2.5-2.5 3-2.5 3-2 3-2.2 3.2-3.8 6.5-3 6.5-2.7 5.8-2 4.7z" fill="#a8d7f4"/><g fill="none" stroke="#231f20" stroke-linecap="round" stroke-miterlimit="10" stroke-width="21"><path d="m65.8 488.5 3.3-3.7 3-3 3.2-3 2.8-2.5 3-2.3 2.7-2 5-3.2 5-2.5 4.8-2.3 9.2-3.7 5-2.3 5.3-2.7 4.7-3.3 5.8-4.5 5.5-5 5-5.2 4.7-5 6.8-8 2.5-3.3.7-2 1.3-3.5 2-4.7 2.7-5.8 3-6.5 3.8-6.5 2.2-3.2 2-3 2.5-3 2.5-3 2.5-2.5 2.8-2.3 2.7-2 2.8-1.7 4-1.8 3.5-1 3.2-.7 3.3-.3 3 .3 3 .7 2.7 1 2.8 1.3 2.5 1.5 2.2 1.7 2.3 1.8 2.2 2 4.3 4.2 4 4.3 1.7 2 1.5 2 1.5 2.7 1.3 3 .7 3.3.3 3.5-.3 3.2-1 3-1.2 3-1.8 2.8-1.2 1.2-1.3 1-1.2 1.3-1.5.7-2.5 1.3-2.5 1-6 2-13.8 4-6.5 2-3 1.2-2.7 1.3-2.5 1.2-2 1.5-1.5 1.8-1.3 1.7-.2.5-7.3 14.5-12.2 25-.5 1-1.8 3.5-2.2 3.5-3 4-3 4.3-3.8 4.5-3.7 4.2-4.5 4.5-4.5 4.5-4.8 4.3-5 4-5.5 4-5.2 3.7-5.8 3.3-5.5 3-5.7 2.5-5.8 1.7-3.2 1-3.5.5-3.3.5-3.2.3h-1.5l-1.5-.3-1.5-.2-1.3-.5-1.2-.5-1-.8-2.3-1.7-1.5-2.3-1.5-2.5-1.2-3.2-.8-3.3-.5-4-.5-4v-9l.3-4.7.2-5 1.3-10.5 1.7-10.5 2-10.5 2-10.3 2.3-10 4.2-18 1.5-7.2 1.3-6 .7-3.8 1-3.5 1.3-3.2 1.5-3 1.5-2.8 1.7-2.5 1.8-2.2 2.2-2 2-2 2.3-1.8 2.5-1.5 2.5-1.2 2.5-1.3 2.7-1 5.3-1.7 5.5-1.3 5.7-1 5.5-.7 5.3-.3 9-.7 3.7-.5 3-.5 2.3-.8 2-1 2-1 2-1.2 3.5-2.8 3.2-3 2.5-3 2.3-2.7 2.7-4 .5-.8"/><path d="m125.3 452.3 1 1.5 2.8 3 4 4.2 5.2 4.8 2.8 2.2 3 2.3 3.2 2.2 3 1.8 3.3 1.5 3.2 1.2 3.3.8 3 .2.2-.2m-9.7-59 .2.2 26.8 18.5m-82.8 101.8v7.2l-.2 16.8-.5 10-.5 9.5-.8 8.5-.5 3.5-.5 3 2.3 1.2 5.2 3 8.3 3.8 5.2 2.2 5.5 2.3 6 2 6.5 2.2 6.8 2 7.2 1.8 7.5 1.2 7.8 1.3 7.7.5 8 .2 4-.2 4-.3 4-.5 4-.5 6.5-1.2 5.8-1.5 5.2-1.3 5-1.5 4.3-1.7 3.7-1.5 3.5-1.5 3.3-1.8 2.5-1.5 2.2-1.5 2-1.5 1.8-1.5 2.5-2.7 1.7-2.3.8-1.5.5-1 .2-.7-.7-14-.8-14.8-.2-17.2-.3-18 .3-8.5.2-8.3.5-7.2.5-6.3 1-5.2.5-2 .8-1.5 3.7-8.5 3.3-7.5 2.7-7 2.3-6 1.7-4.5 1.8-5.8"/><path d="m236.1 395.8 1.2-1 1.8-1.3 2.5-1.2 3.2-1.5 4-1 5-1 2.8-.5h8.7l6.3.5 7.2 1 7.8 1.7 6.5 1.8 6 1.2 5.7.8 5 .7 4.8.3h4.5l4-.3 3.7-.5 3.8-.5 3.2-.7 6.5-1.5 6.3-1.8 6.2-1.7 6.8-1 7.7-1 8-.5 8.5-.3 8.8-.2 8.7.2 16 .3h1.8l4-.3 4-.2 3.7-.5 3.5-1 3.3-.8 3-1 5.5-2.2 3.7-2 2.8-1.5 2.5-1.5 1.7-1 5.3-2.5 3.5-1.5 4-1.8 4.5-1.5 5-1.2 5-1 5.2-.5h5.5l2.5.2 2.8.3 2.7.5 2.5.7 2.5 1 2.5 1.3 2.5 1.5 2.3 1.7 2.2 1.8 2 2.2 2 2.5 1.8 2.5 1.5 2.3 1.2 2.5 1 2.2.8 2.3.7 2.2.3 2.3.2 2.2.3 2.3v2l-.3 2-1 4-1.2 3.7-1.8 3.3-2.2 3-2.5 2.7-2.8 2.3-2.7 2-3 1.5-3 .7-3 .5h-3l-2.8-.2-2.5-.5-2.2-.8-2.3-1-2-.7-4-2.3-3.5-2.2-3.5-2-1.7-.8-1.8-.7-1.7-.3-2-.2-2.3.2-3 .3-7.5 1.2-9 1.5-9 2-14.2 3.3-2.8.5-4.2 1.5-5.3 1.5-7.5 1.7-9.7 1.8-12.3 2-7.2.7-7.8.8-8.2.5-9 .5-2.8.2-2.5.8-2 .7-2.2 1.3-4.8 2.7-2.7 1.8-3.8 1.7-4.2 1.8-5.3 1.7-6.2 1.8-7.5 1.7-9 1.8-10.8 1.5-12.2 1.5-14.5 1.2"/><path d="m417.3 387-.2 5.8v5.2l.5 6 .5 3 .5 3 .7 3 1.3 2.8 1.2 2.5 1.5 2 2 1.5 1 .7 1.3.3m19-41.3-.3.8-.2 1.2v3.8l.5 4.7 1 5.5.7 3 1 2.8 1.3 2.7 1.2 2.8 1.8 2.5 1.7 2.2 2.3 1.8 2.2 1.7 1.5.5m-281-44-2.5-3.7-2.2-3.8-2-4-1.8-4.2-1.7-6-1.5-6.3-.8-6.5-.2-6.5.2-6.2.8-6.3 1-5.7 1.7-5.5 2-5.5 2.5-5 2.8-4.8 3.2-4.2 3.5-4 3.8-3.5 4-3 4.5-2.5 4.5-2.3 4.7-1.5 2.3-.5 2.5-.2 2.5-.3 2.5-.2 2.5.2 2.5.3 2.5.2 2.5.5 4.7 1.5 4.5 2.3 4.3 2.5 4 3 3.7 3.5 3.5 4 3.3 4.2 2.7 4.8 2.5 5 2 5.5 1.8 5.5 1.2 5.7.8 6.3.2 6.2-.2 4.8-.5 5-.8 4.5-1 4.7-1.2 4.3-1.5 4.2-2 4-2 4-2.3 3.5-2.5 3.5-2.7 3.3-2.8 3-3 2.5-3.2 2.5-3.5 2-3.5 1.7m11.5 206.3.2.7 3.3 10.3 2.5 9 2.7 11 2.8 12.5 1.2 6.7 1 6.8 1 7 .8 7.2.5 7 .2 7v5.5m-164.2-86.5-1 .5-1 1-1.3 1.3-1.5 1.7-1.7 2.5-1.8 3-1.7 4-1.8 4.8-1.7 5.5-1.5 6.7-1.3 7.8-1 8.7-.5 10-.2 11.3.5 12.5.2 5.2m703.5-305.5-4.2-4.5-4-4-3.8-3.2-3.5-3-3.5-2.5-3.5-2-3-1.8-3.2-1.5-6-2.7-5.8-2.3-6-2.5-2.7-1.5-3.3-1.7-3-2-3.2-2.3-5.5-4.7-5.3-4.8-4.7-5-4.3-4.7-6.5-7.8-2.5-3-.7-2-1.3-3.7-2-5-2.7-6-3.5-6.8-4-6.7-2.3-3.3-2.2-3.2-2.5-3-2.8-2.8-2.7-2.7-3-2.3-1.8-1.2-2-1-3.7-1.8-3.5-1-3.5-.7-3.3-.3-3 .3-2.7.7-3 1-2.5 1.3-2.5 1.5-2.5 1.7-2.3 1.8-2.2 2.2-4.3 4-4 4.3-1.5 2-1.5 2-1.7 2.7-1 3-.8 3.3-.2 3.5.2 3.2.8 3.3 1.5 2.7 1.7 2.8 1 1.2 1.3 1.3 1.5 1 1.5.7 2.2 1.3 2.8 1 6 2.2 13.5 3.8 6.5 2 3 1.2 2.7 1.3 2.5 1.2 2 1.5 1.8 1.8 1 1.7 6.5 12.8 13.2 27.2.8 1 1.5 3.3 2.2 3.5 2.5 3.7 3 4 3.3 4 3.7 4.3 4 4 4 4.2 4.5 4.3 4.8 4 5 3.7 5 3.8 5.2 3.2 5.3 3 5.2 2.8 5.5 2.2 4.5 1.5 4.5 1.3 4.5.7 4.5.3h1.8l1.5-.3 1.2-.2 1.5-.3 1-.7 1.3-.8 2-1.7 1.7-2.3 1.5-2.5 1-3.2 1-3.3.5-4 .3-4 .2-4.2v-4.8l-.2-4.7-.5-5-1.3-10.5-1.5-10.5-2-10.5-2.2-10.3-2.3-10-4-18-1.7-7.2-1-6-1-4.3-1.3-3.7-1.2-3.5-1.8-3.3-1.7-3-2-2.5-2.3-2.5-2.5-2-2.5-2-2.7-1.7-2.8-1.3-2.7-1.5-3-1-3-1-6-1.5-5-.7-5-.8-9.3-.7-7.7-.5-3.3-.5-2.7-.5-2-.8-2.3-.7-2-1.3-1.7-1.2-3.8-2.8-3-3-2.7-3-2.3-2.7-2.7-4-.5-.8"/><path d="m723.3 345.3-1 1.5-2.7 3-4.3 4.2-5 4.8-3 2.2-3 2.3-3 2.2-3.2 1.8-3.3 1.5-3 1.2-3.2.8-3.3.2m9.8-59.2-.5.2-26.8 18.5m83 101.8v7.2l.3 16.8.2 10 .5 9.5 1 8.5.5 3.5.5 3-4.5 2.5-6.5 3.2-8.7 4-5 2-5.5 2-6 2-6.3 2-6.5 1.8-7 1.5-7 1.2-7.2 1-7.5.5h-7.3l-7.5-.5-4-.5-3.7-.5-6.3-1.2-5.7-1.5-5.5-1.3-4.8-1.5-4.2-1.5-4-1.7-3.5-1.5-3-1.8-2.8-1.5-2.2-1.5-2-1.5-1.8-1.5-2.5-2.7-1.5-2.3-.7-1.5-.5-1-.3-.7.8-14 .5-14.8.5-17.2v-26.5l-.3-8-.5-7.5-.7-6.3-1-5.2-.5-2-.8-1.5-5-10.5-5-9.3-4.5-7.7-3.2-6-3-4.8"/><path d="m612.6 288.8-1.3-1-1.5-1-2.2-1.3-3-1.2-3.5-1.3-4.5-1-5.3-.7-6-.3-3.2.3-3.5.2-3.8.5-4 .5-4.2 1-4.5 1-6.8 1.8-6 1.2-5.5.8-5.2.7-4.8.3h-4.2l-4-.3-4-.5-3.5-.5-3.5-.7-6.3-1.5-6.2-1.8-6.5-1.7-6.8-1-7.5-1-8.2-.5-8.5-.3h-17.3l-16 .3h-6l-3.7-.5-3.8-.5-3.5-.8-3.2-1-3-1-5.5-2.2-3.8-1.8-2.7-1.7-2.5-1.5-1.8-1-5.2-2.5-3.5-1.5-4-1.5-4.8-1.5-4.7-1.5-5.3-1-5.2-.5h-5.3l-2.7.2-2.8.3-2.5.5-2.5.7-2.7 1-2.5 1.3-2.3 1.5-2.2 1.7-2.3 2-2.2 2.3-1.8 2.2-1.7 2.5-1.5 2.3-1.3 2.5-1 2.2-.7 2.3-.8 2.2-.5 2.3-.2 2.2v4.3l.2 2 .8 4 1.5 3.7 1.7 3.3 2.3 3 2.2 2.7 2.8 2.3 3 2 3 1.5 3 .7 3 .5h2.7l2.8-.2 2.5-.5 2.5-.8 2-.7 2.2-1 3.8-2.3 3.5-2.2 3.5-2 1.7-.8 1.8-.7 2-.3 1.7-.2 2.5.2 3 .3 7.3 1.2 9 1.5 9.2 2 14 3.3 3 .7 4 1.3 5.3 1.5 7.5 1.7 10 1.8 12.2 2 7 .7 7.8.8 8.2.5 9 .5 3 .2 2.3.8 2.2.7 2 1.3 4.8 2.7 2.7 1.5 3.5 1.8 4 1.7 5.3 1.8 6 2 7.2 1.7 8.8 1.5 10.2 1.8 12 1.2 13.8 1.3 2.7.2"/><path d="m431.3 280 .3 5.8-.3 5.2-.2 6-.5 3-.8 3.3-.7 2.7-1 2.8-1.3 2.5-1.5 2-2 1.5-1 .7-1.2.3m-19.3-41.3.3.5.2 1v3.5l-.2 4.8-1 5.7-.8 2.8-1 3-1 3-1.5 2.7-1.7 2.5-1.8 2.3-2.2 2-2.5 1.7-1.5.5m281.2-44 2.5-3.7 2.3-3.8 2-4 1.5-4.2 2-6 1.2-6.3 1-6.5.3-6.5-.3-6.2-.7-6-1.3-6-1.5-5.5-2.2-5.5-2.5-5-2.8-4.8-3.2-4.2-3.5-4-3.8-3.5-4-3-4.2-2.5-4.5-2-4.8-1.5-2.5-.8-2.5-.2-2.5-.3h-5l-2.5.3-2.5.2-2.2.8-4.8 1.5-4.5 2-4.2 2.5-4.3 3-3.7 3.5-3.5 4-3 4.2-3 4.8-2.5 5-2 5.5-1.5 5.5-1.3 6-.7 6-.3 6.2v4.8l.5 5 .8 4.7 1 4.5 1.5 4.3 1.5 4.2 1.7 4.3 2 3.7 2.5 3.8 2.5 3.2 2.5 3.3 3 3 3 2.5 3.3 2.5 3.2 2 3.5 1.7m-11.2 206.3-.3.7-1.2 3.8-2.3 6.7-2.5 9.3-2.7 11-2.8 12.7-1.2 6.5-1 7-1 7-.8 7.3-.5 7.2v11.5m164.3-86.5.7.5 1 1 1.3 1.3 1.5 1.7 1.7 2.5 1.8 3 1.7 3.8 1.8 4.7 1.7 5.5 1.5 6.5 1.3 7.5 1 8.8.5 9.7.2 11.3-.2 12.5-.3 6.2m-509.7-196.5v78m-148-80v.8l-4 77.2m484-180-.3 1.8-6 69.2m146.3-73-1.3 70.8"/></g></svg>