<svg height="850.394" viewBox="0 0 850.394 850.394" width="850.394" xmlns="http://www.w3.org/2000/svg"><path d="m705.12 129.08v67.56h-447.18v-67.56z" fill="#a3d9ff"/><path d="m487.96 310.31c7.99 0 14.47 6.48 14.47 14.48s-6.479 14.48-14.47 14.48-14.479-6.48-14.479-14.48 6.489-14.48 14.479-14.48z" fill="#0b00ea"/><path d="m456.34 198.56 76.55.74c-.79 21.29-6.43 164.62-15.439 209.67-9.11 45.58-19.21 57.82-28.95 67.56-8.21 8.22-42.9 12.87-42.9 12.87l10.73-289.541zm46.09 126.23c0-8-6.479-14.48-14.47-14.48s-14.479 6.48-14.479 14.48 6.489 14.48 14.479 14.48 14.47-6.48 14.47-14.48z" fill="#a3d9ff"/><path d="m597.62 199.93 103.21 1c47.189 56.84 34.31 213.4 34.31 305.629 0 92.221 16.091 143.7 16.091 143.7s-11.79 11.79-52.54 25.74c-40.75 13.94-241.29 27.87-241.29 27.87v-68.62c0-35.39-8.04-71.31-20.381-58.99-12.33 12.33-33.24 119.04-33.24 119.04s-5.09 0-71.85-5.359c-89.95-7.221-258.44-90.08-258.44-90.08 14.46-14.521 29.97-41.87 37.53-60.92 14.42-36.37 26.02-66.721 37.44-104.141 25.2-82.61 53.57-170.88 109.48-238.16l198.4 1.92-.01 1.3-10.73 289.541s34.69-4.65 42.9-12.87c9.74-9.74 19.84-21.98 28.95-67.56 9.01-45.05 14.649-188.38 15.439-209.67z" fill="#a3d9ff"/><g fill="none"><g stroke="#000"><path d="m597.62 199.93 103.21 1c47.189 56.84 34.31 213.4 34.31 305.629 0 92.221 16.091 143.7 16.091 143.7s-11.79 11.79-52.54 25.74c-40.75 13.94-241.29 27.87-241.29 27.87v-68.62c0-35.39-8.04-71.31-20.381-58.99-12.33 12.33-33.24 119.04-33.24 119.04s-5.09 0-71.85-5.359c-89.95-7.221-258.44-90.08-258.44-90.08 14.46-14.521 29.97-41.87 37.53-60.92 14.42-36.37 26.02-66.721 37.44-104.141 25.2-82.61 53.57-170.88 109.48-238.16l198.4 1.92 76.55.74z" stroke-width="19.303"/><path d="m257.94 196.64v-67.56h447.18v67.56h-172.13zm198.39 3.22-10.73 289.54s34.69-4.65 42.9-12.87c9.74-9.74 19.84-21.98 28.95-67.56 9.01-45.05 14.649-188.38 15.439-209.67.07-1.74.101-2.66.101-2.66" stroke-width="19.303"/><path d="m502.43 324.79c0 8-6.479 14.48-14.47 14.48s-14.479-6.48-14.479-14.48 6.489-14.48 14.479-14.48 14.47 6.48 14.47 14.48z" stroke-width="12.869"/><path d="m331.93 203.08c-11.81 7.14-17.85 22.58-24.67 30.02m74.45-34.52c-6.11 12.38-2.89 28.65-4.63 38.59m269.13-35.52c11.81 7.14 17.84 22.58 24.67 30.02m-74.45-34.52c.45.91.84 1.83 1.19 2.78 4.47 11.95 1.83 26.6 3.439 35.81" stroke-linecap="round" stroke-width="19.303"/></g><path d="m0 0h850.394v850.394h-850.394z"/></g></svg>