<svg height="850.394" viewBox="0 0 850.394 850.394" width="850.394" xmlns="http://www.w3.org/2000/svg"><path d="m145.63 583.09.2-.31s129.38 60.439 194.55 54.779c65.16-5.67 99.83-23.279 132.21-36.829 40.61-17 252.15-107.66 273.87-119.94l.76.37c-27.529 56.85-55.529 78.01-55.529 78.01s-288.991 122.77-318.261 127.5c-29.28 4.72-207.77-4.729-259.71-80.28-23.14-33.649-34.84-68.8-38.78-102.27l1.06-.12c22.4 26.13 32.6 55.75 69.63 79.09z" fill="#ffffc2"/><path d="m145.63 583.09c-37.03-23.34-47.23-52.96-69.63-79.09l-1.06.12c-4.93-41.69 2.18-80.78 14.23-111.16 21.72-54.77 100.96-136.4 201.15-173.76 111.44-41.56 193.6-56.67 193.6-56.67s101.05-16.99 184.16 42.5c83.1 59.5 124.66 160.55 93.49 242.71-4.66 12.3-9.5 23.41-14.351 33.42l-.76-.37c-21.72 12.28-233.26 102.94-273.87 119.94-32.38 13.55-67.05 31.159-132.21 36.829-65.17 5.66-194.55-54.779-194.55-54.779z" fill="#f6cc4b"/><g fill="none"><g stroke="#231f20" stroke-width="21"><path d="m74.94 504.12c-4.93-41.69 2.18-80.78 14.23-111.16 21.72-54.77 100.96-136.4 201.15-173.76 111.44-41.56 193.6-56.67 193.6-56.67s101.05-16.99 184.16 42.5c83.1 59.5 124.66 160.55 93.49 242.71-4.66 12.3-9.5 23.41-14.351 33.42-27.529 56.85-55.529 78.01-55.529 78.01s-288.99 122.77-318.26 127.5c-29.28 4.72-207.77-4.729-259.71-80.28-23.14-33.65-34.84-68.8-38.78-102.27z"/><path d="m145.83 582.78s129.38 60.439 194.55 54.779c65.16-5.67 99.83-23.279 132.21-36.829 40.61-17 252.15-107.66 273.87-119.94"/></g><path d="m0 0h850.394v850.394h-850.394z"/></g></svg>