<svg height="850" viewBox="0 0 850 850" width="850" xmlns="http://www.w3.org/2000/svg"><path d="m567.6 242.1 22 53.5-14.5 16.2-14.8 16.5-14.5 16.8-14 16.2h-214.2l-15.3-17.5-15.7-18.2-16.3-18.3-15.7-17.2 17.2-48z" fill="#faa41a"/><path d="m531.8 361.3 84.8-.2-27-65.5 31.5-34.3 18.2-19.7 118 71.7-5.7 8.8-5.8 9-6.7 11.2-3.3 5.8-3.2 6.2-2.8 6-2.7 5.8-2 5.7-1.5 5-.5 2.5-.3 2.3v4l.3 4 .2 4.2-.2 4.8-.5 5.2-.5 5.3-1 5.5-2 11.5-2.8 11.2-3 11-3.2 9.8-1.5 4.2-1.8 4-3.7 7.8-4.3 8.5-9.5 18-4.5 9-4 8-3.2 7.2-1.3 3.3-1 2.7-.5 1-.5 1-.7.8-.8.7-2 1-2.2.8h-2.5l-2.5-.3-2.8-.5-2.7-1.2-2.5-1.8-2.5-2-2-2.7-.8-1.5-1-1.5-.5-1.8-.5-1.7-.5-2-.2-2v-2.3l.2-2.2.3-2.5.5-2.5.7-3 1.3-3.3 1.5-3.5 1.7-3.5 2-6 2-6 1.8-7 .7-3.5.5-3.2.5-3.3v-3l-.2-2.2-.3-1-.5-1-.5-.5-.5-.5-.7-.5h-1l-.8.2-.7.5-2.5 1.8-3 2.7-3.8 3.8-9.2 10.2-11 12.8-11 13.2v-136.5h-87zm27.8 151.3h47.2l-15.2 18.7-15 19.3-26.8 34.2-19.5 25.8-1.2 1.2-1.3 1.3-1.5 1-1.5.7-1.2.8-1.8.2-1.5.3-1.5.2h-1.5l-1.5-.2-3.2-1-3-1.3-2.5-2-2.5-2.2-2-2.5-1.8-3-.5-1.8-.5-1.5-.2-1.7-.3-1.8.3-2 .2-1.7.3-1.8.7-2 .8-2 1.2-1.7z" fill="#ffeec8"/><path d="m511.6 512.6h48l-56.8 73.5-15 19-1.5 1.7-1.7 1-1.8.8-1.7.2-2-.2-2-.3-1.8-.5-2-.7-3.2-2-3-1.8-2.5-2-1-2-.8-2.2-.5-2-.5-2.3-.2-2 .2-2.2.3-2.3.2-2.5.8-2.2 1-2.5 1-2.8 1.2-2.5 3.3-5.7 4.2-6 7.3-9.3 9.2-12z" fill="#ffeec8"/><path d="m473.8 562.1-3.5 4-1.7 1.5-1.8 1-1.7.7-2 .3h-1.8l-1.7-.5-2-.3-1.5-.7-3.3-1.5-2.5-1.8-2.2-1.7-1-3-.8-2.8-.2-2.7v-1.5l.2-1.5.3-1.5.5-1.8 1.7-4 2.8-4.7 3.7-6 14-21h42.3l-21.3 28.2-9.2 12zm-98.7-.8-7.5-9-9-11.7-21-28h42.2l13.8 20.5 3.7 5.7 2.5 4.8 1.8 4 .5 1.7.5 1.8v1.5l.2 1.5-.5 2.7-.7 2.8-1 3-2.3 1.7-2.5 1.5-3 1.5-1.7.8-1.8.5-2 .2h-1.7l-1.8-.2-2-.8-1.7-1-1.5-1.5z" fill="#ffeec8"/><path d="m375.1 561.3 4 6.3 3.2 5.5 1.3 2.7 1.2 2.5.8 2.5.7 2.5.5 2.3.3 2.2v2.3l-.3 2.2-.2 2-.8 2.3-.7 2-1 2-2.5 2-2.8 2-3.5 1.7-1.7.8-2 .5-2 .5h-1.8l-2-.3-1.7-.5-1.8-1.2-1.5-1.5-14.7-19.3-56.5-72.7h48l21 28 9 11.7z" fill="#ffeec8"/><path d="m346.1 585.3 1 2 .7 1.8.8 2 .5 2 .2 1.7v1.8l-.2 1.7-.3 1.8-.5 1.7-.5 1.5-1.5 3-2 2.8-2.5 2.2-2.7 1.8-3 1.5-3 .7-1.5.3h-3.3l-1.5-.3-1.5-.5-1.5-.5-1.5-1-1.2-1-1.3-1-1.2-1.5-19.8-25.5-26.5-34-15-19-15-18.7h47.3zm-116-220v132.3l-8-9.5-11-13-9.3-10-3.7-4-3-2.8-2.5-1.7-.8-.5-.7-.3-.8.3-.7.2-.8.5-.5.8-.5.7-.2 1-.3 2.5v2.8l.5 3.2.5 3.5.8 3.5 2 7 1.7 6 2.3 5.8 1.7 3.7 1.5 3.3 1 3.2.8 3 .5 2.8.5 2.2v4.5l-.3 2.3-.2 1.7-.5 2-.8 1.5-.7 1.8-1 1.5-2 2.5-2.3 2.2-2.7 1.5-2.5 1.3-2.8.7-2.7.3-2.5-.3-2.3-.5-2-1.2-.7-.8-.8-.7-.5-1-.5-1-.7-2.8-1.3-3-3.2-7.2-4.3-8.3-4.5-8.7-9.5-18.3-4.2-8.5-3.8-7.7-1.5-3.8-1.7-4.5-3.3-9.7-3-10.8-2.5-11.5-2.2-11.2-.8-5.5-.7-5.5-.3-5-.2-4.8v-4.5l.2-3.7.3-2-.3-2-.2-2.3-.5-2.5-1.5-5.2-2-5.5-2.5-6-3-6-3.3-6-3.2-6-6.5-11-5.8-9.3-5.7-8.5 115.7-74 13.8 14.8 15 16.2 18.5 20.3-25.3 71.5 88.3-.3 3.2 4z" fill="#ffeec8"/><path d="m589.6 295.6 27 65.5-84.8.2 14-16.2 14.5-16.8 14.8-16.5z" fill="#faa41a"/><path d="m615.6 501.8v10.8h-8.8z" fill="#fff"/><path d="m559.6 512.6h-90.3l4-6.3-6 4-2.5 1.3-2 1h-4.5l-2.2-1-2.5-1.5-3-2-3.8-2.5-.5-.8-.5-.7-.2-1-.3-1.3.3-2.5.7-3.2 1.5-3.8 1.8-4.2 2-4.5 2.7-5 6-10.8 7-11.5 14.8-24 7-11.7 6.2-11.3 2.3-3.7 3-4.5 3.5-4.8 4-5.5 9.5-12 11-13.5h87v136.5l-8.8 10.8z" fill="#faa41a"/><path d="m320.8 365.3h207.8l-11 13.5-9.5 12-4 5.5-3.5 4.8-3 4.5-2.3 3.7-6.2 11.3-7 11.7-14.8 24-7 11.5-6 10.8-2.7 5-2 4.5-1.8 4.2-1.5 3.8-.7 3.2-.3 2.5.3 1.3.2 1 .5.7.5.8 3.8 2.5 3 2 2.5 1.5 2.2 1h-70v-.5h1.3l1.2-.3 1.3-.5 1.5-.7 3.7-2.5 4.5-3.3.8-.7.2-.8.5-1v-1l-.2-2.7-.8-3.3-1.2-3.7-1.8-4-2.2-4.8-2.5-4.7-6.3-10.8-6.7-11.5-14.8-24.2-7.2-11.8-6.3-11-2.2-3.7-2.8-4.5-3.5-4.8-4-5.2-9.2-12z" fill="#faa41a"/><path d="m473.3 506.3-4 6.3h-6.5l2-1 2.5-1.3z" fill="#fff"/><path d="m375.3 505.8 4.5 6.8h-137.5l-12.2-15v-132.3h90.7l10.8 13.3 9.2 12 4 5.2 3.5 4.8 2.8 4.5 2.2 3.7 6.3 11 7.2 11.8 14.8 24.2 6.7 11.5 6.3 10.8 2.5 4.7 2.2 4.8 1.8 4 1.2 3.7.8 3.3.2 2.7v1l-.5 1-.2.8-.8.7-4.5 3.3-3.7 2.5-1.5.7-1.3.5-1.2.3h-2.8l-1.2-.5-1.3-.5-1.5-.8z" fill="#faa41a"/><path d="m388.3 512.1v.5h-8.5l-4.5-6.8 7.5 4.5 1.5.8 1.3.5 1.2.5z" fill="#fff"/><path d="m317.6 361.3-88.3.3 25.3-71.5 15.7 17.2 16.3 18.3 15.7 18.2z" fill="#faa41a"/><path d="m242.3 512.6h-12.2v-15z" fill="#fff"/><g fill="none" stroke="#231f20" stroke-linecap="round" stroke-miterlimit="10" stroke-width="21"><path d="m298.8 584.3 19.8 25.5 1.2 1.5 1.3 1 1.2 1 1.5 1 1.5.5 1.5.5 1.5.3h3.3l1.5-.3 3-.7 3-1.5 2.7-1.8 2.5-2.2 2-2.8 1.5-3 .5-1.5.5-1.7.3-1.8.2-1.7v-1.8l-.2-1.7-.5-2-.8-2-.7-1.8-1-2m-103.8-72.7 15 18.7 15 19 26.5 34m-76.7-96.2 8 9.5m-30 9.2-.8-3-1-3.2-1.5-3.3-1.7-3.7-2.3-5.8-1.7-6-2-7-.8-3.5-.5-3.5-.5-3.2v-2.8l.3-2.5.2-1 .5-.7.5-.8.8-.5.7-.2.8-.3.7.3.8.5 2.5 1.7 3 2.8 3.7 4 9.3 10 11 13m-130.5-175.3 5.7 8.5 5.8 9.3 6.5 11 3.2 6 3.3 6 3 6 2.5 6 2 5.5 1.5 5.2.5 2.5.2 2.3.3 2-.3 2-.2 3.7v4.5l.2 4.8.3 5 .7 5.5.8 5.5 2.2 11.2 2.5 11.5 3 10.8 3.3 9.7 1.7 4.5 1.5 3.8 3.8 7.7 4.2 8.5 9.5 18.3 4.5 8.7 4.3 8.3 3.2 7.2 1.3 3 .7 2.8.5 1 .5 1 .8.7.7.8 2 1.2 2.3.5 2.5.3 2.7-.3 2.8-.7 2.5-1.3 2.7-1.5 2.3-2.2 2-2.5 1-1.5.7-1.8.8-1.5.5-2 .2-1.7.3-2.3v-4.5l-.5-2.2-.5-2.8m117.5-145.5 3.2 4m-113.5-126.5 13.8 14.8 15 16.2 18.5 20.3m125.2 222.5 13.8 20.5 3.7 5.7 2.5 4.8 1.8 4 .5 1.7.5 1.8v1.5l.2 1.5-.5 2.7-.7 2.8-1 3-2.3 1.7-2.5 1.5-3 1.5-1.7.8-1.8.5-2 .2h-1.7l-1.8-.2-2-.8-1.7-1-1.5-1.5-3.5-4-7.5-9-9-11.7-21-28"/><path d="m374.8 561.3h.3l4 6.3 3.2 5.5 1.3 2.7 1.2 2.5.8 2.5.7 2.5.5 2.3.3 2.2v2.3l-.3 2.2-.2 2-.8 2.3-.7 2-1 2-2.5 2-2.8 2-3.5 1.7-1.7.8-2 .5-2 .5h-1.8l-2-.3-1.7-.5-1.8-1.2-1.5-1.5-14.7-19.3-56.5-72.7m260.2 72.2-19.5 25.8-1.2 1.2-1.3 1.3-1.5 1-1.5.7-1.2.8-1.8.2-1.5.3-1.5.2h-1.5l-1.5-.2-3.2-1-3-1.3-2.5-2-2.5-2.2-2-2.5-1.8-3-.5-1.8-.5-1.5-.2-1.7-.3-1.8.3-2 .2-1.7.3-1.8.7-2 .8-2 1.2-1.7m104-73.5-15.2 18.7-15 19.3-26.8 34.2m76.8-96.2-11 13.2m33 5.8.7-3 1.3-3.3 1.5-3.5 1.7-3.5 2-6 2-6 1.8-7 .7-3.5.5-3.2.5-3.3v-3l-.2-2.2-.3-1-.5-1-.5-.5-.5-.5-.7-.5h-1l-.8.2-.7.5-2.5 1.8-3 2.7-3.8 3.8-9.2 10.2-11 12.8"/><path d="m757.3 313.3-5.7 8.8-5.8 9-6.7 11.2-3.3 5.8-3.2 6.2-2.8 6-2.7 5.8-2 5.7-1.5 5-.5 2.5-.3 2.3v4l.3 4 .2 4.2-.2 4.8-.5 5.2-.5 5.3-1 5.5-2 11.5-2.8 11.2-3 11-3.2 9.8-1.5 4.2-1.8 4-3.7 7.8-4.3 8.5-9.5 18-4.5 9-4 8-3.2 7.2-1.3 3.3-1 2.7-.5 1-.5 1-.7.8-.8.7-2 1-2.2.8h-2.5l-2.5-.3-2.8-.5-2.7-1.2-2.5-1.8-2.5-2-2-2.7-.8-1.5-1-1.5-.5-1.8-.5-1.7-.5-2-.2-2v-2.3l.2-2.2.3-2.5.5-2.5m-190.3 5 1 .2h2.3l1.2-.2m69-151.3-3.2 4m112.7-125.7-2 2-18.2 19.7-31.5 34.3m-120.3 217-14 21-3.7 6-2.8 4.7-1.7 4-.5 1.8-.3 1.5-.2 1.5v1.5l.2 2.7.8 2.8 1 3 2.2 1.7 2.5 1.8 3.3 1.5 1.5.7 2 .3 1.7.5h1.8l2-.3 1.7-.7 1.8-1 1.7-1.5 3.5-4 7.3-9.3 9.2-12 21.3-28.2"/><path d="m473.8 561.8v.3l-4.2 6-3.3 5.7-1.2 2.5-1 2.8-1 2.5-.8 2.2-.2 2.5-.3 2.3-.2 2.2.2 2 .5 2.3.5 2 .8 2.2 1 2 2.5 2 3 1.8 3.2 2 2 .7 1.8.5 2 .3 2 .2 1.7-.2 1.8-.8 1.7-1 1.5-1.7 15-19 56.8-73.5"/><path d="m615.6 501.8v10.8h-385.5v-147.3h385.5zm1-140.7-27-65.5-22-53.5h-295.8l-17.2 48-25.3 71.5"/><path d="m229.3 361.6 88.3-.3h214.2l84.8-.2"/></g></svg>