<svg height="850.394" viewBox="0 0 850.394 850.394" width="850.394" xmlns="http://www.w3.org/2000/svg"><path d="m763.664 184.233h.04v227.187c0 25.778-35.825 46.682-80.007 46.682-44.188 0-80.006-20.903-80.006-46.682h-.007v-227.187s-2.348-32.171 28.238-43.153c0 0 6.3-2.633 16.175-4.417h1.963v10.021l-1.067.265c4.821 8.456 18.304 14.543 34.187 14.543 14.637 0 27.237-5.166 32.895-12.594l-.803-.756v-11.738h1.87c10.419 1.777 17.13 4.583 17.13 4.583 28.762 10.326 29.418 39.764 29.392 43.246zm-30.194 192.774v-180.385s-20.817 12.906-52.743 12.906c-31.933 0-52.04-12.906-52.04-12.906v180.386s18.218 17.243 51.729 17.243c33.516-.001 53.054-17.244 53.054-17.244z" fill="#33a048"/><path d="m733.47 196.622v180.386s-19.538 17.243-53.055 17.243c-33.511 0-51.729-17.243-51.729-17.243v-180.386s20.107 12.906 52.04 12.906c31.926-.001 52.744-12.906 52.744-12.906zm-18.199-48.479.803.756c-5.657 7.428-18.258 12.594-32.895 12.594-15.883 0-29.365-6.088-34.187-14.543l1.067-.265v-62.639c0-1.293.226-2.553.663-3.767l1.777.013c0 5.259 13.734 9.523 30.679 9.523s30.68-4.264 30.68-9.523l.576-.471c.544 1.359.836 2.772.836 4.225v64.097z" fill="#fbee34"/><path d="m714.436 79.822-.576.471c0 5.259-13.735 9.523-30.68 9.523s-30.679-4.264-30.679-9.523l-1.777-.013c3.038-8.522 16.182-14.935 31.939-14.935 15.479 0 28.438 6.187 31.773 14.477z" fill="#fbee34"/><g fill="none" stroke="#000" stroke-width="10.398"><path d="m650.061 146.684v-62.638c0-1.293.226-2.553.663-3.767 3.038-8.522 16.182-14.935 31.939-14.935 15.479 0 28.438 6.188 31.772 14.477.544 1.359.836 2.772.836 4.225v64.096"/><path d="m713.859 80.292c0 5.259-13.735 9.523-30.68 9.523s-30.679-4.264-30.679-9.523m66.764 59.793c0 3.137-1.141 6.121-3.189 8.813-5.657 7.428-18.258 12.594-32.895 12.594-15.883 0-29.365-6.088-34.187-14.543-1.227-2.155-1.896-4.463-1.896-6.864m116.607 275.348v-231.2"/><path d="m648.098 136.663c-9.875 1.784-16.175 4.417-16.175 4.417-30.586 10.982-28.238 43.153-28.238 43.153v230.337m159.972-229.998s.007-.113.007-.338c.026-3.482-.63-32.92-29.393-43.246 0 0-6.711-2.805-17.13-4.583"/><path d="m763.704 411.42c0 25.778-35.825 46.682-80.007 46.682-44.188 0-80.006-20.903-80.006-46.682m24.996-214.798s20.107 12.906 52.04 12.906c31.926 0 52.743-12.906 52.743-12.906v180.386s-19.538 17.243-53.055 17.243c-33.511 0-51.729-17.243-51.729-17.243v-180.386z"/></g><path d="m0 0h850.394v850.394h-850.394z" fill="none"/><path d="m719.117 275.142c6.753 4.313 8.969 12.865 4.952 19.1-3.994 6.21-12.691 7.764-19.421 3.424-6.754-4.311-8.972-12.862-4.955-19.1 3.995-6.235 12.695-7.764 19.424-3.424zm-8.431-39.487c6.731 4.338 8.947 12.893 4.953 19.103-3.992 6.235-12.717 7.764-19.443 3.451-6.731-4.34-8.947-12.89-4.955-19.105 3.993-6.233 12.692-7.762 19.445-3.449zm-29.255 28.025c4.165 2.688 5.521 7.984 3.056 11.83s-7.836 4.785-12.003 2.12c-4.167-2.685-5.546-7.964-3.08-11.805 2.464-3.847 7.862-4.808 12.027-2.145zm-14.605 26.518c2.555 2.552 4.153 6.23 4.153 10.328 0 4.34-1.794 8.211-4.615 10.768a13.065 13.065 0 0 1 -1.492 1.166 12.202 12.202 0 0 1 -2.807 1.391 11.731 11.731 0 0 1 -3.779.625c-1.458 0-2.86-.271-4.167-.771-.064-.025-.129-.049-.193-.077-.108-.044-.22-.089-.328-.138a.745.745 0 0 1 -.084-.037c-.106-.047-.213-.097-.318-.146a11.453 11.453 0 0 1 -.885-.471c-.064-.04-.129-.077-.192-.116a4.263 4.263 0 0 1 -.247-.156c-.055-.037-.111-.071-.166-.111a6.35 6.35 0 0 1 -.333-.23 9.002 9.002 0 0 1 -.349-.259c-.037-.027-.074-.057-.111-.086-.047-.037-.096-.074-.143-.114l-1.208-.615c.714-1.554 1.108-3.426 1.108-5.447 0-3.271-1.094-6.166-2.744-7.88a6.164 6.164 0 0 0 -.645-.585 5.112 5.112 0 0 0 -1.171-.704c.691-2.512 2.008-4.73 3.752-6.433a13.128 13.128 0 0 1 2.023-1.615 12.433 12.433 0 0 1 2.055-1.065 11.65 11.65 0 0 1 4.345-.84 11.675 11.675 0 0 1 3.177.438c.911.259 1.786.625 2.606 1.084.091.052.183.104.271.158a12.61 12.61 0 0 1 2.487 1.938zm-8.539-3.621a11.556 11.556 0 0 1 0 .002 11.645 11.645 0 0 0 0-.002z" fill="#a3d9ff"/><g fill="none"><g stroke="#000"><path d="m653.941 287.419a11.592 11.592 0 0 1 4.345-.842c.877 0 1.734.096 2.562.284m-10.985 3.238a12.95 12.95 0 0 1 2.685-2.013m-4.621 9.735a6.164 6.164 0 0 0 -.645-.585 5.112 5.112 0 0 0 -1.171-.704m4.802 15.345c-.047-.037-.096-.074-.143-.114l-1.208-.615m2.144 1.305a6.35 6.35 0 0 1 -.333-.23 9.002 9.002 0 0 1 -.349-.259m1.095.755a4.263 4.263 0 0 1 -.247-.156m.684.411a10.031 10.031 0 0 1 -.244-.138m1.203.617c-.106-.047-.213-.097-.318-.146m.73.321c-.108-.044-.22-.089-.328-.138m11.274-1.03a12.202 12.202 0 0 1 -2.807 1.391 11.731 11.731 0 0 1 -3.779.625c-1.458 0-2.86-.271-4.167-.771m12.244-2.411c-.155.144-.315.279-.479.415m-1.543-23.45a12.664 12.664 0 0 1 2.484 1.939m-5.362-3.181c.911.257 1.786.622 2.606 1.084m-19.004 8.115c.215.034.425.086.632.155m-4.013 17.932a6.12 6.12 0 0 1 -.534-.439m4.983 1.01a4.235 4.235 0 0 1 -1.723.368 4.397 4.397 0 0 1 -2.018-.499 5.365 5.365 0 0 1 -.57-.342m5.365-.15a5.414 5.414 0 0 1 -.872.539" stroke-linecap="square" stroke-miterlimit="10" stroke-width="4.293"/><path d="m627.009 309.33c.099.022.148.022.223.044.024.025.049.025.073.025" stroke-width="3.22"/><g stroke-width="4.293"><path d="m646.111 296.534c.407.173.8.41 1.171.702.222.175.438.371.645.585 1.65 1.714 2.744 4.609 2.744 7.88 0 2.021-.395 3.893-1.108 5.447-.604 1.309-1.421 2.384-2.374 3.103a5.414 5.414 0 0 1 -.517.346 3.5 3.5 0 0 1 -.355.193c-.062.029-.121.059-.183.084a4.251 4.251 0 0 1 -.559.203 4.127 4.127 0 0 1 -1.164.168 4.387 4.387 0 0 1 -2.018-.501 4.27 4.27 0 0 1 -.289-.161 3.735 3.735 0 0 1 -.281-.181 4.91 4.91 0 0 1 -.41-.309 4.027 4.027 0 0 1 -.263-.229c-1.815-1.672-3.025-4.699-3.025-8.162 0-5.249 2.811-9.538 6.286-9.538.223 0 .44.018.655.052a3.939 3.939 0 0 1 1.045.318zm-1.7 18.71v35.416" stroke-linecap="square" stroke-miterlimit="10"/><path d="m646.111 296.559v-.027c.691-2.512 2.008-4.73 3.752-6.433a13.128 13.128 0 0 1 2.023-1.615 12.433 12.433 0 0 1 2.055-1.065 11.65 11.65 0 0 1 4.345-.84 11.675 11.675 0 0 1 3.177.438c.911.259 1.786.625 2.606 1.084.091.052.183.104.271.158a12.723 12.723 0 0 1 2.484 1.939c2.555 2.552 4.153 6.23 4.153 10.328 0 4.34-1.794 8.211-4.615 10.768a13.065 13.065 0 0 1 -1.492 1.166 12.043 12.043 0 0 1 -2.807 1.391 11.651 11.651 0 0 1 -7.946-.146c-.064-.025-.129-.049-.193-.077a5.544 5.544 0 0 1 -.328-.138.745.745 0 0 1 -.084-.037 11.453 11.453 0 0 1 -1.203-.617c-.064-.04-.129-.077-.192-.116a4.263 4.263 0 0 1 -.247-.156c-.055-.037-.111-.071-.166-.111a6.636 6.636 0 0 1 -.333-.23 6.17 6.17 0 0 1 -.349-.259c-.037-.027-.074-.057-.111-.086-.049-.035-.096-.074-.143-.111" stroke-linecap="square" stroke-miterlimit="10"/><path d="m710.686 235.655c6.731 4.338 8.947 12.893 4.953 19.103-3.992 6.235-12.717 7.764-19.443 3.451-6.731-4.34-8.947-12.89-4.955-19.105 3.993-6.233 12.692-7.762 19.445-3.449zm8.431 39.487c6.753 4.313 8.969 12.865 4.952 19.1-3.994 6.21-12.691 7.764-19.421 3.424-6.754-4.311-8.972-12.862-4.955-19.1 3.995-6.235 12.695-7.764 19.424-3.424zm-37.686-11.462c4.165 2.688 5.521 7.984 3.056 11.83s-7.836 4.785-12.003 2.12c-4.167-2.685-5.546-7.964-3.08-11.805 2.464-3.847 7.862-4.808 12.027-2.145z"/></g></g><path d="m339.344 83.259c27.213 11.549 47.481 50.053 47.481 95.451 0 21.065-4.116 40.562-11.549 56.715-11.806 25.669-31.585 42.62-53.628 42.62-36.189 0-65.46-44.395-65.46-99.334 0-54.657 29.271-99.309 65.46-99.309 6.147-.001 12.038 1.285 17.696 3.857zm-17.696 194.785v368.787" stroke="#000" stroke-linecap="square" stroke-miterlimit="10" stroke-width="21"/><circle cx="321.706" cy="706.176" r="47.824" stroke="#000" stroke-linecap="square" stroke-miterlimit="10" stroke-width="28"/><path d="m0 0h850.394v850.394h-850.394z"/></g></svg>