<svg height="850.394" viewBox="0 0 850.394 850.394" width="850.394" xmlns="http://www.w3.org/2000/svg"><path d="m217.56 568.08v.01c-15.29 4.48-26.56 18.351-27.16 34.94h-.01c-.45.02-.98.029-1.43.029-4.36 0-8.49-.97-12.2-2.72v-53.979c3.71-1.75 7.84-2.73 12.2-2.73 9.4 0 17.77 4.73 23.09 11.91a30.72 30.72 0 0 1 5.51 12.54zm37.48 85c0 1.64-.14 3.35-.39 4.92-25.57-.02-45.23-6.7-58.4-13.28 1.33-4.51 3.7-8.6 6.83-11.979 5.47-5.931 13.28-9.67 21.95-9.67 10.11 0 19.06 5 24.49 12.68a29.773 29.773 0 0 1 5.52 17.329z" fill="#fff"/><path d="m292.18 587.07c-12.8 5.859-21.69 18.79-21.69 33.79 0 14.09 7.92 26.43 19.49 32.72-10.19 2.64-21.98 4.42-35.22 4.42h-.11c.25-1.57.39-3.28.39-4.92 0-6.46-2.04-12.44-5.52-17.33 10.01-6.81 16.59-18.3 16.59-31.32 0-6-1.39-11.67-3.88-16.71 8.58-1.89 16.39-6.529 22.12-12.76l.04-.02a33.04 33.04 0 0 0 7.79 12.13z" fill="#a3d9ff"/><path d="m188.96 603.06c.45 0 .98-.01 1.43-.029h.01c-.02.47-.03.93-.03 1.399 0 11.23 4.89 21.32 12.66 28.261l.05.05c-3.13 3.38-5.5 7.47-6.83 11.979-12.82-6.41-19.49-12.72-19.49-12.72v-31.66c3.71 1.75 7.84 2.72 12.2 2.72z" fill="#fff"/><path d="m334.76 360v128.18c-4.17-2.27-9.1-3.77-14.18-3.77-16.25 0-29.42 13.17-29.42 29.42 0 8.29 3.52 15.87 9.04 21.22a32.56 32.56 0 0 0 -5.74 3.71c-3.78-19.29-20.78-33.96-41.17-33.96-23.17 0-41.95 18.78-41.95 41.95 0 2.9.3 5.94.86 8.68l-.15.11c-5.32-7.18-13.69-11.91-23.09-11.91-4.36 0-8.49.98-12.2 2.73v-186.36s30.32 19.46 78.47 19.46c48.14 0 79.53-19.46 79.53-19.46zm-70.4 53.62c0-5.63-4.57-10.2-10.2-10.2s-10.19 4.57-10.19 10.2 4.56 10.2 10.19 10.2 10.2-4.57 10.2-10.2zm-15.73 46.61c0-9.811-7.96-17.771-17.77-17.771-9.82 0-17.77 7.96-17.77 17.771 0 9.81 7.95 17.77 17.77 17.77 9.81 0 17.77-7.96 17.77-17.77z" fill="#a3d9ff"/><path d="m254.16 403.42c5.63 0 10.2 4.57 10.2 10.2s-4.57 10.2-10.2 10.2-10.19-4.57-10.19-10.2 4.56-10.2 10.19-10.2z" fill="#fff"/><path d="m306.06 183.88-.87.71c0 7.93-20.71 14.36-46.26 14.36s-46.26-6.43-46.26-14.36l-2.68-.02c4.58-12.85 24.4-22.52 48.16-22.52 23.34 0 42.88 9.33 47.91 21.83z" fill="#a3d9ff"/><g fill="#fff"><path d="m648.67 128.94h-92.98c21.319-24.08 28.22-43.27 46.989-47.68 21.451 0 27.251 22.46 45.991 47.68zm-313.91 409.61v57.22c-6.78-7.319-16.38-12.05-27.14-12.05-5.51 0-10.73 1.2-15.44 3.351-3.39-3.351-6.1-7.5-7.79-12.13a31.868 31.868 0 0 1 -1.97-11.011c0-10.17 4.7-19.239 12.04-25.17a32.165 32.165 0 0 1 20.29-7.16c7.52 0 14.52 2.65 20.01 6.95z"/><path d="m334.76 595.77v36.23s-16.05 14.16-44.78 21.58c-11.57-6.29-19.49-18.63-19.49-32.72 0-15 8.89-27.931 21.69-33.79a37.06 37.06 0 0 1 15.44-3.351c10.76.001 20.36 4.731 27.14 12.051zm-40.3-57.01c-7.34 5.931-12.04 15-12.04 25.17 0 3.84.7 7.561 1.97 11.011l-.04.02c-5.73 6.23-13.54 10.87-22.12 12.76-6.17-12.54-19.08-21.16-33.99-21.16-3.71 0-7.29.53-10.68 1.53v-.01a30.72 30.72 0 0 0 -5.51-12.54l.15-.11c-.56-2.739-.86-5.779-.86-8.68 0-23.17 18.78-41.95 41.95-41.95 20.39-.001 37.39 14.669 41.17 33.959zm401.81-409.82h80.89c0 41.04-33.69 79.7-33.69 79.7h-219.729c-23.641-23.63-33.08-50.95-35.88-79.7z"/><path d="m262.23 587.72c2.49 5.04 3.88 10.71 3.88 16.71 0 13.021-6.58 24.511-16.59 31.32-5.43-7.68-14.38-12.68-24.49-12.68-8.67 0-16.48 3.739-21.95 9.67l-.05-.05c-7.77-6.94-12.66-17.03-12.66-28.261 0-.47.01-.93.03-1.399.6-16.59 11.87-30.46 27.16-34.94 3.39-1 6.97-1.53 10.68-1.53 14.91 0 27.82 8.62 33.99 21.16zm72.53-99.54v50.37c-5.49-4.3-12.49-6.95-20.01-6.95-5.23 0-10.18 1.24-14.55 3.45-5.52-5.35-9.04-12.93-9.04-21.22 0-16.25 13.17-29.42 29.42-29.42 5.08 0 10.01 1.5 14.18 3.77z"/></g><path d="m207.38 285.1c7.27 12.75 27.6 21.93 51.55 21.93 22.07 0 41.07-7.79 49.6-18.99l-1.21-1.14v-17.7h2.82c15.71 2.68 25.83 6.91 25.83 6.91 43.37 15.57 44.36 59.96 44.32 65.21h.06v342.57c0 38.87-54.02 70.391-120.64 70.391-66.63 0-120.64-31.521-120.64-70.391h-.01v-342.57s-3.54-48.51 42.58-65.07c0 0 9.5-3.97 24.39-6.66h2.96v15.11zm127.38 346.9v-272s-31.39 19.46-79.53 19.46c-48.15 0-78.47-19.46-78.47-19.46v272s6.67 6.31 19.49 12.72c13.17 6.58 32.83 13.261 58.4 13.28h.11c13.24 0 25.03-1.78 35.22-4.42 28.73-7.42 44.78-21.58 44.78-21.58z" fill="#ffd3f7"/><path d="m230.86 442.46c9.81 0 17.77 7.96 17.77 17.771 0 9.81-7.96 17.77-17.77 17.77-9.82 0-17.77-7.96-17.77-17.77 0-9.811 7.95-17.771 17.77-17.771zm545.71-323.09c.239.05.479.1.71.15v9.42h-80.98c10.391-1.35 34.26-9.14 48.34-11.88-7.29-.83-11.55 2.78-14.609-5.62-2.32-6.36-1.29-11.38-1.46-14.24-15.58 0 5.52-12.78 1.46-24.74 6.01.13 11.95.44 17.16 3.88 7.489 4.95 5.59 8.35 6.63 16.46 1.389 10.73 13.039 24.4 22.749 26.57z" fill="#fff"/><path d="m791.76 72.69c.05 11.54 8.88 23.33 8.811 34.85-.08 11.93-7.301 15.43-23.29 11.98-.23-.05-.471-.1-.71-.15-9.71-2.17-21.36-15.84-22.75-26.57-1.04-8.11.859-11.51-6.63-16.46-5.21-3.44-11.15-3.75-17.16-3.88-.811-.02-1.61-.03-2.42-.05.659-9.81 3.18-18.4 13.42-21.17 9.17-2.48 24.1-1.21 33.489-.3 13.54 1.33 17.18 8.3 17.24 21.75z" fill="#fff"/><path d="m307.32 286.9 1.21 1.14c-8.53 11.2-27.53 18.99-49.6 18.99-23.95 0-44.28-9.18-51.55-21.93l1.61-.4v-94.45c0-1.95.34-3.85 1-5.68l2.68.02c0 7.93 20.71 14.36 46.26 14.36s46.26-6.43 46.26-14.36l.87-.71c.82 2.05 1.26 4.18 1.26 6.37z" fill="#a3d9ff"/><g fill="none" stroke="#000"><path d="m208.99 284.7v-94.45c0-1.95.34-3.85 1-5.68 4.58-12.85 24.4-22.52 48.16-22.52 23.34 0 42.88 9.33 47.91 21.83.82 2.05 1.26 4.18 1.26 6.37v96.65" stroke-width="15.68"/><path d="m305.19 184.59c0 7.93-20.71 14.36-46.26 14.36s-46.26-6.43-46.26-14.36m100.67 90.16c0 4.73-1.72 9.23-4.81 13.29-8.53 11.2-27.53 18.99-49.6 18.99-23.95 0-44.28-9.18-51.55-21.93-1.85-3.25-2.86-6.73-2.86-10.35m175.83 415.19v-348.62" stroke-width="15.68"/><path d="m206.03 269.59c-14.89 2.69-24.39 6.66-24.39 6.66-46.12 16.56-42.58 65.07-42.58 65.07v347.32m241.22-346.81s.01-.17.01-.51c.04-5.25-.95-49.64-44.32-65.21 0 0-10.12-4.23-25.83-6.91" stroke-width="15.68"/><path d="m380.35 683.89c0 38.87-54.02 70.391-120.64 70.391-66.63 0-120.64-31.521-120.64-70.391" stroke-width="15.68"/><g stroke-linecap="round"><path d="m696.3 128.94h88.61m-307.35 0h218.71" stroke-width="16.788"/><path d="m510.06 107.8s-9.159-14.32-23.18-.31c0 7.21.29 14.38.98 21.45 2.8 28.75 12.239 56.07 35.88 79.7h219.729s33.69-38.66 33.69-79.7" stroke-width="11.623"/><path d="m777.28 119.52c15.989 3.45 23.21-.05 23.29-11.98.069-11.52-8.761-23.31-8.811-34.85-.06-13.45-3.7-20.42-17.24-21.75-9.39-.91-24.319-2.18-33.489.3-10.24 2.77-12.761 11.36-13.42 21.17.81.02 1.609.03 2.42.05 6.01.13 11.95.44 17.16 3.88 7.489 4.95 5.59 8.35 6.63 16.46 1.39 10.73 13.04 24.4 22.75 26.57.24.05.48.1.71.15z" stroke-width="6.457"/><path d="m730.03 72.46c4.06 11.96-17.04 24.74-1.46 24.74.17 2.86-.86 7.88 1.46 14.24 3.06 8.4 7.319 4.79 14.609 5.62-14.08 2.74-37.949 10.53-48.34 11.88h-.03c-.14.02-.26.04-.39.05" stroke-width="6.457"/><path d="m734.27 85.94c-3.09-1.93-4.189-2.58-4.329-2.68l.01.01c.02.01.08.04.17.08" stroke-width="7.969"/><path d="m648.67 128.94c-18.74-25.22-24.54-47.68-45.99-47.68-18.77 4.41-25.67 23.6-46.989 47.68" stroke-width="6.457"/><path d="m596.3 127c8.07-4.65 7.24-18.07 7.24-18.47v.01c0 .04.02.16.04.38.5 4.47-1.68 13.93 1.37 16.98" stroke-width="6.457"/></g><path d="m176.76 546.36v-186.36s30.32 19.46 78.47 19.46c48.14 0 79.53-19.46 79.53-19.46v272s-16.05 14.16-44.78 21.58c-10.19 2.64-21.98 4.42-35.22 4.42h-.11c-25.57-.02-45.23-6.7-58.4-13.28-12.82-6.41-19.49-12.72-19.49-12.72z" stroke-width="15.68"/><path d="m176.76 546.36c3.71-1.75 7.84-2.73 12.2-2.73 9.4 0 17.77 4.73 23.09 11.91a30.72 30.72 0 0 1 5.51 12.54m-27.17 34.95c-.45.02-.98.029-1.43.029-4.36 0-8.49-.97-12.2-2.72m107.59-25.379c-5.73 6.23-13.54 10.87-22.12 12.76m-50.03-32.29c-.56-2.739-.86-5.779-.86-8.68 0-23.17 18.78-41.95 41.95-41.95 20.39 0 37.39 14.67 41.17 33.96m-45.83-78.53c0 9.81-7.96 17.77-17.77 17.77-9.82 0-17.77-7.96-17.77-17.77 0-9.811 7.95-17.771 17.77-17.771 9.81.001 17.77 7.961 17.77 17.771z" stroke-width="10"/><path d="m264.36 413.62c0 5.63-4.57 10.2-10.2 10.2s-10.19-4.57-10.19-10.2 4.56-10.2 10.19-10.2 10.2 4.57 10.2 10.2z" stroke-width="9"/><path d="m300.2 535.05c-5.52-5.35-9.04-12.93-9.04-21.22 0-16.25 13.17-29.42 29.42-29.42 5.08 0 10.01 1.5 14.18 3.77" stroke-width="10"/><path d="m292.18 587.07c-3.39-3.351-6.1-7.5-7.79-12.13a31.868 31.868 0 0 1 -1.97-11.011c0-10.17 4.7-19.239 12.04-25.17a32.165 32.165 0 0 1 20.29-7.16c7.52 0 14.52 2.65 20.01 6.95m-138.51 106.171c1.33-4.51 3.7-8.6 6.83-11.979 5.47-5.931 13.28-9.67 21.95-9.67 10.11 0 19.06 5 24.49 12.68a29.778 29.778 0 0 1 5.52 17.33c0 1.64-.14 3.35-.39 4.92" stroke-width="10"/><path d="m203.03 632.69c-7.77-6.94-12.66-17.03-12.66-28.261 0-.47.01-.93.03-1.399.6-16.59 11.87-30.46 27.16-34.94 3.39-1 6.97-1.53 10.68-1.53 14.91 0 27.82 8.62 33.99 21.16 2.49 5.04 3.88 10.71 3.88 16.71 0 13.021-6.58 24.511-16.59 31.32m40.46 17.83c-11.57-6.29-19.49-18.63-19.49-32.72 0-15 8.89-27.931 21.69-33.79m0 0a37.06 37.06 0 0 1 15.44-3.351c10.76 0 20.36 4.73 27.14 12.05" stroke-width="10"/><path d="m777.28 119.54v9.45" stroke-linecap="round" stroke-width="6.457"/></g><path d="m0 0h850.394v850.394h-850.394z" fill="none"/></svg>