<svg height="850" viewBox="0 0 850 850" width="850" xmlns="http://www.w3.org/2000/svg"><path d="m433.1 220.1 3.3-1.2 3-1.8 3-1.7 2.5-2.3h2v3.3l.2 3.5.8 3.5.5 1.5.5 1.5 1 1.5 1 1.2 1.2 1.3 1.3 1 1.5.7 2 .8 2 .2 2.2.3 3.5-.3 3.3-.7 2.7-.8 2.5-1 2.3-1.5 2-1.5 1.7-2 1.8-2 3-4.7 3.2-5.3 3.8-5.7 2-3 2.2-3.3 2.8-3.2 3-3.5 7.5-7.8 8-8 8.2-7.7 14-12.8 5.8-5.2 27.7-8-3.7 2.5-3.5 2.7-3.3 2.8-2.7 3-2.5 3-2.5 3.7-5.8 8.8-6.2 10.2-6.5 10.8-11.8 20.5-4.7 8-3.5 5.7-1 2-.3 2.3v2l.8 1.7 1 1.8 1.5 1.7 1.7 1.5 2.3 1.3 11.7 29-.7 3.2h-297.3l-.7-3 188.5-92h.2l-10.2 18.3v4.7l.2 4.5.5 2.5.8 2.5 1 2.5 1.2 2.3 1.5 2 1 1 1 .7 1.3.5 1.2.5 1.5.3 1.5.2h3.5l2-.5z" fill="#bd2025"/><path d="m400.4 165.1v1.3l.5 1.2.7 1.3 1.3 1.5 1.5 1.2 1.7 1 1.8 1 2.2.8 2.3.2 2.5.3 2.5-.5 2.5-.8 2.7-1.2 2.8-2 2.7-2.5 2.5-3.3-7.5 14h-.2l-62.8-.2v-1l-1.5-2.8-1.5-2.7-1-3-.7-3-.5-3v-3l.2-2.8.5-2.5 1-2.2 1.3-2.3 1.7-1.7 2-1.3 2.5-1 3-.7h3.5l4 .5 8.3 1.2 8.2 1 7.8.3h7.5l-2.3 5.5-2 4.7-1.2 4z" fill="#ffeec8"/><path d="m532.4 294.1v92.8h-297.3v-113.3h297.3z" fill="#bd2025"/><path d="m406.4 148.4 7-15.3 7.7-17 1.3-2.2 2-2.3 2-1.5 2.5-1.5 3-1 2.7-1 3.3-.5 3.2-.5 3.3-.2h3.2l6.3.2 5.2.5 4.5.5-2 1-31 57-2.5 3.3-2.7 2.5-2.8 2-2.7 1.2-2.5.8-2.5.5-2.5-.3-2.3-.2-2.2-.8-1.8-1-1.7-1-1.5-1.2-1.3-1.5-.7-1.3-.5-1.2v-1.3l.5-2.5 1.2-4 2-4.7zm202.2-25.8-6 9.3-2.7 1-7.3 2.7-4.7 2-5.3 2.3-5.2 2.5-5.3 3-27.7 8-5.8 5.2-14 12.8-8.2 7.7-8 8-7.5 7.8-3 3.5-2.8 3.2-2.2 3.3-2 3-3.8 5.7-3.2 5.3-3 4.7-1.8 2-1.7 2-2 1.5-2.3 1.5-2.5 1-2.7.8-3.3.7-3.5.3-2.2-.3-2-.2-2-.8-1.5-.7-1.3-1-1.2-1.3-1-1.2-1-1.5-.5-1.5-.5-1.5-.8-3.5-.2-3.5v-3.3l.2-3 .3-2.5.5-2.2 64-89.3 1.7-1.2 2.3-1.3 3.2-1.7 4-1.8 5.3-2 6.2-2 7.5-1.7 10.5-2.3 9-2.2 5.3-1.3 4.7-.7 4.3-.8h4l2 .3 2 .2 1.7.5 1.8.8 1.5 1 1.7 1 1.8 1.2 1.5 1.8 3.2 3.5 2.8 3.2 2 3 1.7 2.5 2.5 4 1.3 1.5z" fill="#ffeec8"/><path d="m383.4 654.9v113.5h-297v-113.5z" fill="#bd2025"/><path d="m521.4 241.4-2.3-1.3-1.7-1.5-1.5-1.7-1-1.8-.8-1.7v-2l.3-2.3 1-2 3.5-5.7 4.7-8 11.8-20.5 6.5-10.8 6.2-10.2 5.8-8.8 2.5-3.7 2.5-3 2.7-3 3.3-2.8 3.5-2.7 3.7-2.5 5.3-3 5.2-2.5 5.3-2.3 4.7-2 7.3-2.7 2.7-1 6-9.3 1.3.5 1.5.5 6.7.5 4.5.5 2.5.8 2.5.7 2.3 1 2.5 1.5 2.2 1.5 2.3 2.3 2 2.2 1.7 3 1.5 3.5 1.3 4 4.5 16.5 4.5 15.8 4.5 15 4.5 13.5 1 1.7 2 2.3 2.7 3 3.8 3.5 9.5 8.5 11.7 10 29.3 24 32.5 26.7-1.5 2 .7 225.3-6.7-8.8-8-10.5-8.5-12.2-9.5-13.3-20-29-20.8-30.5-20.2-29.7-18-26.3-14.8-21-5.7-7.7-4.3-5.3-2.7-3.2-2.8-2.8-2.7-2.5-3-2.2-2.8-2-3-2-3.2-1.5-3.3-1.5-3.2-1.3-3.3-1.2-3.5-1-3.7-.8-7.5-1.2-8-.8h-.3l-6-.2-6.2-.3h-19v-20.5l.7-3.2z" fill="#ffeec8"/><path d="m422.9 178.6-188.5 92 32.7-92.2h93zm-76.3 381.3 31.5 77h-287.2l27.5-77zm-.5-131.5 37.8 91.7-298.8.3 32.8-92z" fill="#bd2025"/><path d="m378.1 636.9 6.3 14.7-298.8.3 5.3-15z" fill="#fff5b4"/><path d="m383.1 523.4v113.5h-5l-31.5-77h-228.2l-27.5 77h-5v-113.5z" fill="#bd2025"/><path d="m430.6 164.6 31-57 2-1 10-4.7 7.5-3.3 8.5-3.7 9.3-3.8 9.2-3.2 9-3 4.3-1.3 4-.7 4.2-.8h4.3l3.7.3 3.5.7 3.3 1.3 3 1.5 2.5 1.5 2.5 1.7 2 2 2 1.8 2.7 3.2 1.8 2.5.5 1 .2.3-9 2.2-10.5 2.3-7.5 1.7-6.2 2-5.3 2-4 1.8-3.2 1.7-2.3 1.3-1.7 1.2-64 89.3-.5 2.2-.3 2.5-.2 3h-2l-2.5 2.3-3 1.7-3 1.8-3.3 1.2-2 .5-2 .5h-3.5l-1.5-.2-1.5-.3-1.2-.5-1.3-.5-1-.7-1-1-1.5-2-1.2-2.3-1-2.5-.8-2.5-.5-2.5-.2-4.5v-4.7l10.2-18.3z" fill="#ffeec8"/><g fill="none" stroke="#231f20" stroke-linecap="round" stroke-miterlimit="10" stroke-width="14.25"><path d="m532.4 294.1v92.8h-297.3v-113.3h297.3zm-109.5-115.5-62.8-.2h-93l-32.7 92.2m298.7-.2-11.7-29"/><path d="m561.4 99.6-.5-1-1.8-2.5-2.7-3.2-2-1.8-2-2-2.5-1.7-2.5-1.5-3-1.5-3.3-1.3-3.5-.7-3.7-.3h-4.3l-4.2.8-4 .7-4.3 1.3-9 3-9.2 3.2-9.3 3.8-8.5 3.7-7.5 3.3-10 4.7-2 1-31 57-7.5 14-10.2 18.3v4.7l.2 4.5.5 2.5.8 2.5 1 2.5 1.2 2.3 1.5 2 1 1 1 .7 1.3.5 1.2.5 1.5.3 1.5.2h3.5l2-.5 2-.5 3.3-1.2 3-1.8 3-1.7 2.5-2.3"/><path d="m572.1 145.4-27.7 8-5.8 5.2-14 12.8-8.2 7.7-8 8-7.5 7.8-3 3.5-2.8 3.2-2.2 3.3-2 3-3.8 5.7-3.2 5.3-3 4.7-1.8 2-1.7 2-2 1.5-2.3 1.5-2.5 1-2.7.8-3.3.7-3.5.3-2.2-.3-2-.2-2-.8-1.5-.7-1.3-1-1.2-1.3-1-1.2-1-1.5-.5-1.5-.5-1.5-.8-3.5-.2-3.5v-3.3l.2-3 .3-2.5.5-2.2 64-89.3 1.7-1.2 2.3-1.3 3.2-1.7 4-1.8 5.3-2 6.2-2 7.5-1.7 10.5-2.3 9-2.2 5.3-1.3 4.7-.7 4.3-.8h4l2 .3 2 .2 1.7.5 1.8.8 1.5 1 1.7 1 1.8 1.2 1.5 1.8 3.2 3.5 2.8 3.2 2 3 1.7 2.5 2.5 4 1.3 1.5 1.2 1 1.3.5 1.5.5 6.7.5 4.5.5 2.5.8 2.5.7 2.3 1 2.5 1.5 2.2 1.5 2.3 2.3 2 2.2 1.7 3 1.5 3.5 1.3 4 4.5 16.5 4.5 15.8 4.5 15 4.5 13.5 1 1.7 2 2.3 2.7 3 3.8 3.5 9.5 8.5 11.7 10 29.3 24 32.5 26.7 8 6.8"/><path d="m602.6 131.9-2.7 1-7.3 2.7-4.7 2-5.3 2.3-5.2 2.5-5.3 3-3.7 2.5-3.5 2.7-3.3 2.8-2.7 3-2.5 3-2.5 3.7-5.8 8.8-6.2 10.2-6.5 10.8-11.8 20.5-4.7 8-3.5 5.7-1 2-.3 2.3v2l.8 1.7 1 1.8 1.5 1.7 1.7 1.5 2.3 1.3 2.7 1 2.8.5 3.2.2 3.3-.2 3.5-.8 3.2-1.5 1.8-1 1.7-1 1.5-1.2 1.8-1.5 2.2-2.5 2.5-3 6-7 6.3-8.5 6.5-8.5 10.5-14.8 4.5-6.2m-118.5-78.3-3.3-.5-4.5-.5-5.2-.5-6.3-.2h-3.2l-3.3.2-3.2.5-3.3.5-2.7 1-3 1-2.5 1.5-2 1.5-2 2.3-1.3 2.2-7.7 17-7 15.3-2.3 5.5-2 4.7-1.2 4-.5 2.5v1.3l.5 1.2.7 1.3 1.3 1.5 1.5 1.2 1.7 1 1.8 1 2.2.8 2.3.2 2.5.3 2.5-.5 2.5-.8 2.7-1.2 2.8-2 2.7-2.5 2.5-3.3 2.3-3.5m131 133.5 8 .8 7.5 1.2 3.7.8 3.5 1 3.3 1.2 3.2 1.3 3.3 1.5 3.2 1.5 3 2 2.8 2 3 2.2 2.7 2.5 2.8 2.8 2.7 3.2 4.3 5.3 5.7 7.7 14.8 21 18 26.3 20.2 29.7 20.8 30.5 20 29 9.5 13.3 8.5 12.2 8 10.5 6.7 8.8m-215.2-218.8h13.5l6.2.3 6 .2"/><path d="m558.6 294.4h1.3l3.7.2h.3l4.2-.2 5.3-.5 5.7-1 6.8-1.5 3.5-1 3.5-1.3 3.5-1.5 3.7-1.5 3.8-2 3.7-2.2 3.8-2.3 3.5-2.7m-206.3-128.5h-9.7l-7.8-.3-8.2-1-8.3-1.2-4-.5h-3.5l-3 .7-2.5 1-2 1.3-1.7 1.7-1.3 2.3-1 2.2-.5 2.5-.2 2.8v3l.5 3 .7 3 1 3 1.5 2.7 1.5 2.8m23.3 591h-297v-113.5h297zm-292.5-131.5-5.3 15m298.8-.3-6.3-14.7m-287.2 0h-5v-113.5h297.2v113.5h-5zm293-116.8-37.8-91.7h-228.2l-32.8 92"/></g></svg>