<svg height="850.394" viewBox="0 0 850.394 850.394" width="850.394" xmlns="http://www.w3.org/2000/svg"><path d="m581.61 495.82v40.41l-111.99-13.98v-39.4z" fill="#ef947d"/><path d="m581.61 536.23v48.19l-477.15-74.61v-9.32l175.74-37.55 6.11-1.31 183.31 21.22v39.4z" fill="#ef947d"/><path d="m280 462 .2.94-175.74 37.55v-65.28l175.57-35.73zm466.27-14.4v82.37h-4.62l-160.04 54.45v-88.6l160.04-48.22z" fill="#f6cc4b"/><path d="m746.27 529.97v65.65h-4.62l-160.04 54.44v-65.64l160.04-54.45zm-164.66 54.45v65.64l-477.15-74.61v-65.64zm-111.99-463.35v93.63l-189.49-4.94-175.67-4.58v-74.6zm111.99-2.92v99.47l-111.99-2.92v-93.63zm164.66 3.73v84.86l-164.66 10.88v-99.47z" fill="#f6cc4b"/><g fill="none"><g stroke="#231f20" stroke-width="21"><path d="m104.46 649.72v-519.14l365.16-9.51 111.99-2.92 164.66 3.73v552.7m-164.66-556.43v624.09"/><path d="m104.46 509.81 477.15 74.61 160.04-54.45m-637.19 45.48 477.15 74.61 160.04-54.44m-637.19-390.44 175.67 4.58 189.49 4.94 111.99 2.92 164.66-10.88"/><path d="m469.62 121.06v401.19l111.99 13.98m-111.99-117.33 111.99 10.88m-111.99-100.36 111.99 10.88m0 155.52 160.04-48.22m-461.65 14.4.03-62.52.1-189.72"/><path d="m104.46 435.21 175.57-35.73.1-.02m-175.67 101.03 175.74-37.55 6.11-1.31 183.31 21.22 111.99 12.97"/></g><path d="m0 0h850.394v850.394h-850.394z"/></g></svg>