<svg height="850" viewBox="0 0 850 850" width="850" xmlns="http://www.w3.org/2000/svg"><path d="m315.9 773 .3-.3zm.2-.5 3.5-2.5 5.8-5 7.8-6.8 4-4 4.5-4.5 4.3-4.5 4.3-5 4.3-5.3 4-5.3 3.5-5.5 3.3-5.5 2.8-5.8 1-2.8 1-3 1.3-4.3 1-4 .8-4 .8-3.8.5-3.8.3-3.8.3-3.5v-2.8l-.3-3.3-.3-3.3-.5-3-.5-3-1.8-5.5-2-5.3-2.3-4.8-3-4.5-3-4.3-3.5-4-3.8-3.8-3.8-3.5-4-3.3-4.3-3-3.8-2.8-3.5-3-3.3-3-3-3-3-3.3-2.5-3-2.5-3.3-2.3-3.3-4-6.5-3.5-6.5-2.8-6.3-2.3-6-1.8-5.5-1.5-5.3-1-4.8-.5-4-.8-5.8v-2.3l-14 19.8-1 1.8-1 2-1.5 3-1.3 3.5-1.3 4-1 5-.8 5.3v8.8l.3 3.3.5 3.3.8 3.3 1 3.5 1 3.5 1.5 3.5 1.5 3.5 2 3.8 2.3 3.8 2.8 3.8 2.8 3.8 3.5 3.8 3.5 4 10 9.8 4.8 4.8 4.5 4.8 4.3 4.5 3.5 4.8 3.5 4.8 2.8 5.3 1.3 2.5 1 2.8 1 2.8.8 3 .5 2.8.5 3.3.3 3.3v6.8l-.3 3.5-.5 4-.8 3.8-.8 4.3-1.3 4.3-1.3 4.5-1.8 4.5-3 8.5-3 6.8-2.8 5.5-2.5 4.5-2 3.3-1.8 2.3-1.5 1.8h-.9zm73.5-92.7-1.3 6.5-1.5 6-2 6-2.3 5.8-2.5 5.5-2.5 5.3-3 5-3 4.8-3.3 4.5-3.5 4.3-3.5 4.3-3.5 4-3.8 3.5-3.5 3.5-3.8 3.5-3.8 3-7.3 5.5-7 4.8-6.5 4-5.8 3.3-4.8 2.5-3.8 2-3.5 1.5 2.5-4.5 2-4.3 2-4.3 1.5-4.5 1.3-4.5 1-4.5 1-4.3.5-4.5.3-4.5.3-4.5-.3-4.3-.3-4.5-.5-4.3-.8-4.5-1-4.3-1-4.3-1.3-4-1.5-4-1.5-4-1.5-4-2-4-1.8-3.5-4.3-7.3-4.5-6.8-5-6.3-5.3-5.5-5.3-5-10.5-10.3-4.8-4-4.5-4-4.2-4.3-4.3-4.5-4-4.8-3.8-5-3.5-5.5-3.3-5.5-2.8-6-2.3-6.5-1.8-6.8-.8-3.5-.8-3.5-.3-3.8-.5-4v-4l-.3-4 .3-4.3.3-4.3.5-4.5.8-4.8 1.3-6.8 2-6.5 2.3-6.3 2.8-5.8 3.3-5.5 3.8-5.5 3.8-5 4.3-4.8 4.5-4.5 4.8-4 5-4 5-3.8 5.3-3.5 5.3-3.3 5.3-3 5.3-2.8 5.3-2.5 5.3-2.5 10-4 9.3-3.5 8.3-2.5 7-2 5.3-1.3 4.8-1-12.5 16.8-2 2.8-1.8 2.8-1.8 2.8-1.5 3-1.5 2.8-1.3 2.8-1 3-.8 2.8-.8 3-.5 2.8-.5 3-.3 3v5.8l.5 6 1.3 6.3 1.5 6.3 2.3 6.3 2.8 6.3 3 6.5 3.8 6.8 4 6.8 4.5 6.8 3.5 5.3 5 6.5 6.3 8.3 3.8 5 3.5 5 3.5 5.3 3.3 5.3 3.3 5.5 2.8 5.5 2.5 5.8 2.3 5.8 2 5.8 1.8 6 1.3 6 .8 6.3.5 6.3.3 6.3-.5 6.8z" fill="#fbee34"/><path d="m369.9 707.3-1 3-1 2.7-2.8 5.8-3.2 5.5-3.5 5.5-4 5.2-4.3 5.3-4.2 5-4.3 4.5-4.5 4.5-4 4-7.7 6.7-5.8 5-3.5 2.5 1-.7 1.5-1.8 1.8-2.2 2-3.3 2.5-4.5 2.7-5.5 3-6.7 3-8.5 1.8-4.5 1.2-4.5 1.3-4.3.7-4.2.8-3.8.5-4 .2-3.5v-6.7l-.2-3.3-.5-3.2-.5-2.8-.8-3-1-2.7-1-2.8-1.2-2.5-2.8-5.2-3.5-4.8-3.5-4.7-4.2-4.5-4.5-4.8-4.8-4.7-10-9.8-3.5-4-3.5-3.7-2.7-3.8-2.8-3.7-2.2-3.8-2-3.7-1.5-3.5-1.5-3.5-1-3.5-1-3.5-.8-3.3-.5-3.2-.2-3.3v-8.7l.7-5.3 1-5 1.3-4 1.2-3.5 1.5-3 1-2 1-1.7 14-19.8v2.3l.8 5.7.5 4 1 4.8 1.5 5.2 1.7 5.5 2.3 6 2.7 6.3 3.5 6.5 4 6.5 2.3 3.2 2.5 3.3 2.5 3 3 3.2 3 3 3.2 3 3.5 3 3.8 2.8 4.2 3 4 3.2 3.8 3.5 3.7 3.8 3.5 4 3 4.2 3 4.5 2.3 4.8 2 5.2 1.7 5.5.5 3 .5 3 .3 3.3.2 3.2v3.3l-.2 3.5-.3 3.7-.5 3.8-.7 3.7-.8 4-1 4z" fill="#ed1d31"/><path d="m155.6 135.5.3-.5-3.3-1.7-2.7-1.8-2.5-2-2.3-2-1.7-2-1.8-2.2-1.2-2.3-1-2.2-.8-2.5-.5-2.3-.2-2.5v-2.5l.2-2.2.5-2.5.8-2.3 1-2.2 1.2-2 1.3-2.3 1.7-2 1.8-1.7 2-1.8 2-1.5 2.2-1.5 2.5-1.2 2.8-1 2.7-.8 3-.5 3-.5h6.5l3.3.5 3.5.8 32.5 10.5 71.5 23.7 81.7 27 35.5 11.5 27 8.5 13.8 4.3 12.7 3.7 11.5 3.3 10 2.5 8.5 2 6.8 1 2.5.2 2.2.3 1.5-.3 1.3-.2 1-1 .7-1 .5-1.3v-3l-.5-1.5-.7-1.7-1-1.8-2.8-4-3.2-4-3.8-4.2-4.2-4-4.3-4-4.2-4-8-6.5-8-6.3-5.5-3.2-5-3.5-4.3-3.5-4-3.3-2.7-3.2-2.8-3-2-3-2-3-1.5-3-1.2-3-.8-3-.7-3-.3-2.8v-5.5l.5-2.7.5-2.5.8-2.5 1-2.3 1.2-2.2 1.3-2 1.2-1.8 1.5-2 1.5-1.5 1.8-1.5 1.7-1.2 1.8-1 1.7-.8 2-.7 1.8-.5 1.7-.3h1.8l1.7.3 1.8.7 1.5.8 1.5 1 3.7 3 4.5 3 5 3.5 5.8 3.5 12.7 7.7 14 8 28.8 16.5 13.5 8 11.7 7.3 5.5 4 6.3 4.5 6.2 5 6.5 5.5 7 5.7 6.8 6.3 6.7 6.7 6.8 6.5 6.7 7 6.3 6.8 6 7 5.5 6.7 5 6.5 4.5 6.5 3.7 6 3 5.5 1.5 2.8 2 2.7 2.3 3 3 2.8 3 3 3.5 2.7 3.7 3 4 3 8.8 5.8 9.2 5.7 9.5 5.5 9.8 5.3 9.5 4.7 9.2 4.5 16 7.5 11 4.8 4.3 1.7-99 199-5.8 1-27.7-7.2-40.5-10.5-48.8-13-52.7-14.8-26.5-7.7-26-7.5-25-7.8-23.3-7.5-21.2-7-18.5-6.7-8.3-3.3-7.2-3-6.3-3-5.2-2.7-9-4.8-9.5-4.7-20-10-25-12-26-12.8-15.3-7.5-14.5-7.5-13.2-7-12-7-5.3-3.2-4.5-3.3-4.2-3-3.5-3-3-2.7-2-2.5-1.5-2.5-.3-1-.2-1-.3-4.3.5-3.7.8-3.5 1-3 1.5-2.8 2-2.2 2-2 2.5-1.5 3-1.3 3-1 3.2-.5h7.3l3.7.5 4 .8 4 1.2-51.5-22.7-10.5-4.5-8.5-4-3.2-2-3-1.8-2.5-2-2.3-1.7-1.7-1.8-1.3-2-1.2-2-.8-2-.5-2.2-.2-2.5v-5.5l.2-1.3.8-3.2.5-2.3 1-2.2 1-2.5 1.2-2.5 1.5-2.5 2-2.3 2.3-2 2.7-1.5 1.3-.7 1.7-.5 1.5-.5 1.8-.3h4l2 .3 2.2.5 7.5 2.2-10.7-4.5-9.8-4.5-4.5-2-4-2.2-3.7-2.3-3.3-2.2-3-2.5-2.7-2.5-2.3-2.5-2-3-1.5-2.8-1.2-3.2-.8-3.5-.5-3.5.3-1.5.5-3.8.5-2.5 1-2.7 1-3 1.2-2.8 1.8-3 2.2-2.5 2.5-2.2 1.5-1 1.5-1 1.8-.5 2-.8 1.7-.2 2.3-.3 2.2-.2 2.5.2 2.5.3 2.8.7 7.5 2 8.7 2.8z" fill="#ffeec8"/><g fill="none" stroke="#231f20" stroke-linecap="round" stroke-miterlimit="10"><path d="m304.6 778.5 3.5-1.5 3.8-2 4.7-2.5 5.8-3.2 6.5-4 7-4.8 7.2-5.5 3.8-3 3.7-3.5 3.5-3.5 3.8-3.5 3.5-4 3.5-4.2 3.5-4.3 3.2-4.5 3-4.7 3-5 2.5-5.3 2.5-5.5 2.3-5.7 2-6 1.5-6 1.2-6.5 1-6.5.5-6.8-.2-6.2-.5-6.3-.8-6.2-1.2-6-1.8-6-2-5.8-2.2-5.7-2.5-5.8-2.8-5.5-3.2-5.5-3.3-5.2-3.5-5.3-3.5-5-3.7-5-6.3-8.2-5-6.5-3.5-5.3-4.5-6.7-4-6.8-3.7-6.7-3-6.5-2.8-6.3-2.2-6.2-1.5-6.3-1.3-6.2-.5-6v-5.8l.3-3 .5-3 .5-2.7.7-3 .8-2.8 1-3 1.2-2.7 1.5-2.8 1.5-3 1.8-2.7 1.7-2.8 2-2.7 12.5-16.8-4.7 1-5.3 1.3-7 2-8.2 2.5-9.3 3.5-10 4-5.2 2.5-5.3 2.5-5.2 2.7-5.3 3-5.2 3.3-5.3 3.5-5 3.7-5 4-4.7 4-4.5 4.5-4.3 4.8-3.7 5-3.8 5.5-3.2 5.5-2.8 5.7-2.2 6.3-2 6.5-1.3 6.7-.7 4.8-.5 4.5-.3 4.2-.2 4.3.2 4v4l.5 4 .3 3.7.7 3.5.8 3.5 1.7 6.8 2.3 6.5 2.7 6 3.3 5.5 3.5 5.5 3.7 5 4 4.7 4.3 4.5 4.2 4.3 4.5 4 4.8 4 10.5 10.2 5.2 5 5.3 5.5 5 6.3 4.5 6.7 4.2 7.3 1.8 3.5 2 4 1.5 4 1.5 4 1.5 4 1.2 4 1 4.2 1 4.3.8 4.5.5 4.2.2 4.5.3 4.3-.3 4.5-.2 4.5-.5 4.5-1 4.2-1 4.5-1.3 4.5-1.5 4.5-2 4.3-2 4.2z" stroke-width="21"/><path d="m316.1 772.8-.5.2h.3zm0-.3 3.5-2.5 5.8-5 7.7-6.7 4-4 4.5-4.5 4.3-4.5 4.2-5 4.3-5.3 4-5.2 3.5-5.5 3.2-5.5 2.8-5.8 1-2.7 1-3 1.2-4.3 1-4 .8-4 .7-3.7.5-3.8.3-3.7.2-3.5v-3.3l-.2-3.2-.3-3.3-.5-3-.5-3-1.7-5.5-2-5.2-2.3-4.8-3-4.5-3-4.2-3.5-4-3.7-3.8-3.8-3.5-4-3.2-4.2-3-3.8-2.8-3.5-3-3.2-3-3-3-3-3.2-2.5-3-2.5-3.3-2.3-3.2-4-6.5-3.5-6.5-2.7-6.3-2.3-6-1.7-5.5-1.5-5.2-1-4.8-.5-4-.8-5.7v-2.3l-14 19.8-1 1.7-1 2-1.5 3-1.2 3.5-1.3 4-1 5-.7 5.3v8.7l.2 3.3.5 3.2.8 3.3 1 3.5 1 3.5 1.5 3.5 1.5 3.5 2 3.7 2.2 3.8 2.8 3.7 2.7 3.8 3.5 3.7 3.5 4 10 9.8 4.8 4.7 4.5 4.8 4.2 4.5 3.5 4.7 3.5 4.8 2.8 5.2 1.2 2.5 1 2.8 1 2.7.8 3 .5 2.8.5 3.2.2 3.3v6.7l-.2 3.5-.5 4-.8 3.8-.7 4.2-1.3 4.3-1.2 4.5-1.8 4.5-3 8.5-3 6.7-2.7 5.5-2.5 4.5-2 3.3-1.8 2.2-1.5 1.8z" stroke-width="14"/><path d="m428.1 165.5-27-8.5-35.5-11.5-81.7-27-71.5-23.7-32.5-10.5-3.5-.8-3.3-.5h-6.5l-3 .5-3 .5-2.7.8-2.8 1-2.5 1.2-2.2 1.5-2 1.5-2 1.8-1.8 1.7-1.7 2-1.3 2.3-1.2 2-1 2.2-.8 2.3-.5 2.5-.2 2.2v2.5l.2 2.5.5 2.3.8 2.5 1 2.2 1.2 2.3 1.8 2.2 1.7 2 2.3 2 2.5 2 2.7 1.8 3.3 1.7m285.7-14.5 4 3.3 4.3 3.5 5 3.5 5.5 3.2 8 6.3 8 6.5 4.2 4 4.3 4 4.2 4 3.8 4.2 3.2 4 2.8 4 1 1.8.7 1.7.5 1.5v3l-.5 1.3-.7 1-1 1-1.3.2-1.5.3-2.2-.3-2.5-.2-6.8-1-8.5-2-10-2.5-11.5-3.3-12.7-3.7-13.8-4.3m332.3 125-4.3-1.7-11-4.8-16-7.5-9.2-4.5-9.5-4.7-9.8-5.3-9.5-5.5-9.2-5.7-8.8-5.8-4-3-3.7-3-3.5-2.7-3-3-3-2.8-2.3-3-2-2.7-1.5-2.8-3-5.5-3.7-6-4.5-6.5-5-6.5-5.5-6.7-6-7-6.3-6.8-6.7-7-6.8-6.5-6.7-6.7-6.8-6.3-7-5.7-6.5-5.5-6.2-5-6.3-4.5-5.5-4-11.7-7.3-13.5-8-28.8-16.5-14-8-12.7-7.7-5.8-3.5-5-3.5-4.5-3-3.7-3-1.5-1-1.5-.8-1.8-.7-1.7-.3h-1.8l-1.7.3-1.8.5-2 .7-1.7.8-1.8 1-1.7 1.2-1.8 1.5-1.5 1.5-1.5 2-1.2 1.8-1.3 2-1.2 2.2-1 2.3-.8 2.5-.5 2.5-.5 2.7v5.5l.3 2.8.7 3 .8 3 1.2 3 1.5 3 2 3 2 3 2.8 3 2.7 3.2m-212.7 224-15.3-7.5-14.5-7.5-13.2-7-12-7-5.3-3.2-4.5-3.3-4.2-3-3.5-3-3-2.7-2-2.5-1.5-2.5-.3-1-.2-1-.3-4.3.5-3.7.8-3.5 1-3 1.5-2.8 2-2.2 2-2 2.5-1.5 3-1.3 3-1 3.2-.5h7.3l3.7.5 4 .8 4 1.2h.8m91.5 99.3-25-12-26-12.8m438 148.8-11.3-2.8-27.7-7.2-40.5-10.5-48.8-13-52.7-14.8-26.5-7.7-26-7.5-25-7.8-23.3-7.5-21.2-7-18.5-6.7-8.3-3.3-7.2-3-6.3-3-5.2-2.7-9-4.8-9.5-4.7-20-10" stroke-width="21"/><path d="m388.4 359-69.5-31-65.3-29-66-29-51.5-22.7-10.5-4.5-8.5-4-3.2-2-3-1.8-2.5-2-2.3-1.7-1.7-1.8-1.3-2-1.2-2-.8-2-.5-2.2-.2-2.5v-5.5l.2-1.3.8-3.2.5-2.3 1-2.2 1-2.5 1.2-2.5 1.5-2.5 2-2.3 2.3-2 2.7-1.5 1.3-.7 1.7-.5 1.5-.5 1.8-.3h4l2 .3 2.2.5 7.5 2.2 10.8 3.3 12.7 4.5 31.5 11.5 35.8 13.5 36.7 14 63.3 24.7 27 10.8m-216.8-82-1-.3-10.7-4.5-9.8-4.5-4.5-2-4-2.2-3.7-2.3-3.3-2.2-3-2.5-2.7-2.5-2.3-2.5-2-3-1.5-2.8-1.2-3.2-.8-3.5-.5-3.5.3-1.5.5-3.8.5-2.5 1-2.7 1-3 1.2-2.8 1.8-3 2.2-2.5 2.5-2.2 1.5-1 1.5-1 1.8-.5 2-.8 1.7-.2 2.3-.3 2.2-.2 2.5.2 2.5.3 2.8.7 7.5 2 8.7 2.8 22 6.7 39 13 44.5 15.5 47 16.5 46 16.3 75.5 27.2 31 11.5" stroke-width="21"/></g></svg>