<svg height="851.64" viewBox="0 0 853.07 851.64" width="853.07" xmlns="http://www.w3.org/2000/svg"><path d="m808.689 365.17v152.439c0 16.71-10.6 30.12-23.72 30.12h-88.269c-.21-4.6-.801-9.109-1.811-13.41-7.2-32.029-34.42-55.75-66.85-55.75-36.94 0-67.07 30.62-68.67 69.16h-320.179c-.2-4.5-.9-8.8-1.8-13.01-7.21-31.93-34.43-55.65-66.86-55.65-36.73 0-66.76 30.431-68.56 68.66h-23.12c-13.11 0-23.72-6.109-23.72-13.81v-184.769h746.86c2.6 6.01 4.81 11.42 6.699 16.02zm-304.369-50.64h59.56c10.01 0 18.01-8.01 18.01-17.92v-49.04c0-9.91-8-18.02-18.01-18.02h-59.56c-9.9 0-18.011 8.11-18.011 18.02v49.04c.001 9.91 8.111 17.92 18.011 17.92zm-129.71 0h59.66c9.9 0 17.91-8.01 17.91-17.92v-49.04c0-9.91-8.01-18.02-17.91-18.02h-59.66c-9.91 0-17.91 8.11-17.91 18.02v49.04c0 9.91 8 17.92 17.91 17.92zm-127.11 0h59.65c9.91 0 17.92-8.01 17.92-17.92v-49.04c0-9.91-8.01-18.02-17.92-18.02h-59.65c-9.91 0-17.92 8.11-17.92 18.02v49.04c0 9.91 8.01 17.92 17.92 17.92zm-125.51.3h59.65c9.91 0 17.92-8.01 17.92-17.92v-49.04c0-9.91-8.01-18.02-17.92-18.02h-59.65c-9.91 0-17.92 8.11-17.92 18.02v49.04c0 9.91 8.01 17.92 17.92 17.92zm680 34.32h-746.86v-89.77s-.9-44.64 27.83-68.16c12.8-10.61 35.63-11.91 35.63-11.91h563.389s42.54-2.5 53.75 21.12c15.011 32.03 48.151 105.89 66.261 148.72zm-53.051-35.12-43.029-105h-92.58v105z" fill="#fff400"/><path d="m705.91 209.03 43.029 105h-135.609v-105z" fill="#a3d9ff"/><path d="m628.04 478.569c32.43 0 59.649 23.721 66.85 55.75 1.01 4.301 1.601 8.811 1.811 13.41.1 1.101.1 2.301.1 3.5 0 40.141-30.83 72.66-68.76 72.66-38.04 0-68.86-32.52-68.86-72.66 0-1.199 0-2.399.19-3.5 1.599-38.54 31.729-69.16 68.669-69.16zm-45.54 73.16c0 26.03 20.01 47.141 44.729 47.141 24.62 0 44.641-21.11 44.641-47.141 0-3.8-.4-7.51-1.2-11-4.7-20.819-22.42-36.239-43.44-36.239-24.72 0-44.73 21.13-44.73 47.239z" fill="#0b00ea"/><path d="m627.229 504.49c21.021 0 38.74 15.42 43.44 36.239.8 3.49 1.2 7.2 1.2 11 0 26.03-20.021 47.141-44.641 47.141-24.72 0-44.729-21.11-44.729-47.141.001-26.109 20.011-47.239 44.73-47.239z" fill="#c8c8c8"/><path d="m563.88 229.55c10.01 0 18.01 8.11 18.01 18.02v49.04c0 9.91-8 17.92-18.01 17.92h-59.56c-9.9 0-18.011-8.01-18.011-17.92v-49.04c0-9.91 8.11-18.02 18.011-18.02zm-129.61 0c9.9 0 17.91 8.11 17.91 18.02v49.04c0 9.91-8.01 17.92-17.91 17.92h-59.66c-9.91 0-17.91-8.01-17.91-17.92v-49.04c0-9.91 8-18.02 17.91-18.02zm-109.2 18.02v49.04c0 9.91-8.01 17.92-17.92 17.92h-59.65c-9.91 0-17.92-8.01-17.92-17.92v-49.04c0-9.91 8.01-18.02 17.92-18.02h59.65c9.91 0 17.92 8.11 17.92 18.02z" fill="#a3d9ff"/><path d="m124.99 552.13c0 26.13 20.02 47.25 44.74 47.25 24.62 0 44.64-21.12 44.64-47.25 0-3.8-.4-7.5-1.2-11-4.7-20.73-22.42-36.14-43.44-36.14-24.72 0-44.74 21.119-44.74 47.14zm-23.02-4.401c1.8-38.229 31.83-68.66 68.56-68.66 32.43 0 59.65 23.721 66.86 55.65.9 4.21 1.6 8.51 1.8 13.01.1 1.301.1 2.601.1 3.9 0 40.14-30.82 72.67-68.76 72.67-38.03 0-68.76-32.53-68.76-72.67 0-1.299 0-2.599.2-3.9z" fill="#0b00ea"/><path d="m169.73 504.99c21.02 0 38.74 15.409 43.44 36.14.8 3.5 1.2 7.2 1.2 11 0 26.13-20.02 47.25-44.64 47.25-24.72 0-44.74-21.12-44.74-47.25 0-26.021 20.02-47.14 44.74-47.14z" fill="#c8c8c8"/><path d="m181.64 229.85c9.91 0 17.92 8.11 17.92 18.02v49.04c0 9.91-8.01 17.92-17.92 17.92h-59.65c-9.91 0-17.92-8.01-17.92-17.92v-49.04c0-9.91 8.01-18.02 17.92-18.02z" fill="#a3d9ff"/><g fill="none"><g stroke="#000"><path d="m103.37 547.729h-24.52c-13.11 0-23.72-6.109-23.72-13.81v-274.539s-.9-44.64 27.83-68.16c12.8-10.61 35.63-11.91 35.63-11.91h316.07m124.52 368.419h-319.99m195.47-368.419h247.319s42.54-2.5 53.75 21.12c15.011 32.03 48.15 105.89 66.261 148.72 2.6 6.01 4.81 11.42 6.699 16.02v152.439c0 16.71-10.6 30.12-23.72 30.12h-88.269" stroke-width="15.847"/><path d="m705.91 209.03h-92.58v105h135.609zm-468.52 325.69c.9 4.21 1.6 8.51 1.8 13.01.1 1.301.1 2.601.1 3.9 0 40.14-30.82 72.67-68.76 72.67-38.03 0-68.76-32.53-68.76-72.67 0-1.3 0-2.6.2-3.9 1.8-38.229 31.83-68.66 68.56-68.66 32.43-.001 59.65 23.72 66.86 55.65" stroke-width="15.847"/><path d="m213.17 541.13c.8 3.5 1.2 7.2 1.2 11 0 26.13-20.02 47.25-44.64 47.25-24.72 0-44.74-21.12-44.74-47.25 0-26.021 20.02-47.14 44.74-47.14 21.02 0 38.74 15.409 43.44 36.14z" stroke-width="10.565"/><path d="m694.89 534.319c1.01 4.301 1.601 8.811 1.811 13.41.1 1.101.1 2.301.1 3.5 0 40.141-30.83 72.66-68.76 72.66-38.04 0-68.86-32.52-68.86-72.66 0-1.199 0-2.399.19-3.5 1.6-38.54 31.729-69.16 68.67-69.16 32.429 0 59.648 23.721 66.849 55.75" stroke-width="15.847"/><path d="m670.67 540.729c.8 3.49 1.2 7.2 1.2 11 0 26.03-20.021 47.141-44.641 47.141-24.72 0-44.729-21.11-44.729-47.141 0-26.109 20.01-47.239 44.729-47.239 21.021 0 38.741 15.42 43.441 36.239z" stroke-width="10.565"/><path d="m199.56 296.91c0 9.91-8.01 17.92-17.92 17.92h-59.65c-9.91 0-17.92-8.01-17.92-17.92v-49.04c0-9.91 8.01-18.02 17.92-18.02h59.65c9.91 0 17.92 8.11 17.92 18.02zm125.51-.3c0 9.91-8.01 17.92-17.92 17.92h-59.65c-9.91 0-17.92-8.01-17.92-17.92v-49.04c0-9.91 8.01-18.02 17.92-18.02h59.65c9.91 0 17.92 8.11 17.92 18.02zm127.11 0c0 9.91-8.01 17.92-17.91 17.92h-59.66c-9.91 0-17.91-8.01-17.91-17.92v-49.04c0-9.91 8-18.02 17.91-18.02h59.66c9.9 0 17.91 8.11 17.91 18.02zm129.71 0c0 9.91-8 17.92-18.01 17.92h-59.56c-9.9 0-18.011-8.01-18.011-17.92v-49.04c0-9.91 8.11-18.02 18.011-18.02h59.56c10.01 0 18.01 8.11 18.01 18.02zm-526.76 52.54h746.86" stroke-width="15.847"/></g><path d="m.25.25h852.57v851.14h-852.57z"/></g></svg>