<svg height="850.394" viewBox="0 0 850.394 850.394" width="850.394" xmlns="http://www.w3.org/2000/svg"><g fill="#ffeec8"><path d="m718.46 177.25 35.66 35.71-11.68 43.16-.44-.12-49.81-17.67-40.22 53.07-1.08 1.43-24.72-15.55 1.08-1.71 40.07-84.56.79-.49 3.42 5.53z"/><path d="m742.44 256.12-108.77 401.74c-6.58 28.83-30 51.6-72.84 66.06l92.92-431.17-1.78-1.35 40.221-53.07 49.809 17.67zm-95.31-99.54 20.98 33.94-.79.49-40.07 84.56-1.08 1.71-32.98-20.75-46.23 56.46-1.19 1.45-8.15-3.57.38-.87 42.05-136.06 2.66-1.96 1.55 2.1z"/><path d="m653.75 292.75-92.92 431.17c-19.99 6.75-44.2 11.68-72.9 14.58l-.42-4.13 61.12-420.01-1.67-1.37 46.23-56.46 32.979 20.75 24.72 15.55 1.08-1.43zm-71.04-120.77-2.66 1.96-42.05 136.06-.38.87-55.12-24.11 1.17-2.68 17.07-130.16 4.35 3.89 48.19-25.66z"/><path d="m420.5 331.15 60.45-45.07 1.55.68 55.12 24.11 8.149 3.57 1.19-1.45 1.67 1.37-61.12 420.01.42 4.13c-19.67 1.99-41.449 3.02-65.42 3.02-57.23 0-101.02-5.14-134.02-16.84l.39-1.109-89.12-427.76 19.43-12.23 38.27-24.07 47.41 57.91 57.91-25.34 6.91-3.02z"/><path d="m420.5 164.03 48.23-38.76 32.01 28.65-17.07 130.16-1.17 2.68-1.55-.68-60.45 45.07-50.81-42.09-6.91 3.02-17.22-131.3 36.36-32.54z"/><path d="m345.56 160.78 17.22 131.3-57.91 25.34-47.41-57.91-38.27 24.07-40.07-84.56 24.39-39.47 62.88 17.5 30.97-41.93zm-145.8 135.03 89.12 427.76-.39 1.109c-44.22-15.67-69.07-43.1-80.92-85.67l-100.13-381.469 51.02-16.23z"/><path d="m219.19 283.58-19.43 12.23-41.3-54.5-51.02 16.23-10.92-41.61 35.67-35.7 46.93 18.79z"/></g><g fill="none"><g stroke="#231f20" stroke-width="21"><path d="m106 258 1.44-.46 51.02-16.23 41.3 54.5 19.43-12.23 38.27-24.07 47.41 57.91 57.91-25.34 6.91-3.02 50.81 42.09"/><path d="m420.5 164.03 48.23-38.76 32.01 28.65 4.35 3.89 48.19-25.66 29.43 39.83 1.55 2.1 62.87-17.5 20.98 33.94 3.42 5.53 46.93-18.8 35.66 35.71-11.68 43.16-108.77 401.74c-6.58 28.83-30 51.6-72.84 66.06-19.99 6.75-44.2 11.68-72.9 14.58-19.67 1.99-41.449 3.02-65.42 3.02-57.23 0-101.02-5.14-134.02-16.84-44.22-15.67-69.07-43.1-80.92-85.67l-100.13-381.47-10.92-41.61 35.67-35.7 46.93 18.79 24.39-39.47 62.88 17.5 30.97-41.93 48.2 25.66 36.36-32.54z"/><path d="m742 256-49.81-17.67-40.22 53.07-1.08 1.43-24.72-15.55-32.98-20.75-46.23 56.46-1.19 1.45-8.15-3.57-55.12-24.11-1.55-.68-60.45 45.07 2.01 403.02m-222.75-438.36 89.12 427.76m15.99-406.15 61.13 412.65"/><path d="m653.75 292.75-92.92 431.17-.1.48m-12.1-410.04-61.12 420.01m-67.01-575.68v157.95m-241.38-117.62 40.07 84.56m47.2-101.63 39.02 123.67m40.15-144.84 17.22 131.3m304.54-101.07-40.07 84.56m-47.2-101.63-42.05 136.06m-37.11-157.23-.15 1.15-17.07 130.16"/></g><path d="m0 0h850.394v850.394h-850.394z"/></g></svg>