<svg height="850.394" viewBox="0 0 850.394 850.394" width="850.394" xmlns="http://www.w3.org/2000/svg"><g fill="#ffffc2"><path d="m683.28 107.66-8.3 591.01-388.36 83.88v-619.95l-.48-3.69z"/><path d="m684.38 104.14-1.1 3.52-397.14 51.25-2.84.37-116.17-38.18-.68-5.51 397.08-49.25z"/><path d="m167.13 121.1 116.17 38.18 2.84-.37.48 3.69v619.95l-119.49-64.72z"/></g><path d="m286.62 782.55-119.49-64.72v-596.73l116.17 38.18 2.84-.37 397.14-51.25-8.3 591.01zm-128.35-665.95 8.18-1.01 397.08-49.25 120.85 37.8 5.22 1.63m-402.98 56.83v619.95" fill="none" stroke="#231f20" stroke-width="21"/><path d="m0 0h850.394v850.394h-850.394z" fill="none"/><g fill="#9e5b16"><path d="m604.466 239.529a.132.132 0 0 1 -.047-.03z"/><path d="m611 300.751-127-9.194 120.485-52.013c-.005-.005-.015-.01-.02-.015-.014-.01-.027-.02-.047-.03.512 0 5.686.989 6.567.994h.015z"/><path d="m578.71 226.61c-.338-.139-.675-.268-1.018-.402.343.129.68.264 1.018.402z"/></g><path d="m573.174 224.504c-.459-.169-.918-.333-1.378-.497.464.165.924.328 1.378.497z" fill="#fff"/><path d="m512.826 211.308c-.408-.04-.811-.08-1.224-.114.409.034.816.074 1.224.114z" fill="#9e5b16"/><path d="m480.377 226.546c1.659-2.275 8.765.725 10.246 1.619 7.396 4.46 11.132 9.209 11.118 18.442-.005 4.688-2.227 9.74-5.747 13.098-2.873 2.737-6.839 4.242-10.569 5.101-4.477 1.023-10.897.253-15.515-2.578 2.245-11.712 13.86-6.273 20.211-12.998 7.153-7.584-1.059-21.01-9.744-22.684zm9.144 108.889c7.157-7.584-1.06-21.01-9.75-22.684 1.664-2.275 8.775.725 10.251 1.619 7.396 4.465 11.138 9.208 11.123 18.442-.009 4.688-2.227 9.74-5.751 13.098-2.869 2.737-6.839 4.247-10.569 5.101-4.472 1.023-10.894.253-15.511-2.573v-.005c2.246-11.711 13.856-6.272 20.207-12.998z" fill="#ffd3f7"/><path d="m469.91 262.228c-3.229-1.972-5.578-4.962-5.756-9.044-.183-4.003 1.481-7.565 5.165-8.995 2.803-1.088 6.871-.869 8.644-1.56 0 0 4.964-1.301 4.964-5.255 0-3.959-3.75-9.179-2.55-10.828 8.685 1.674 16.897 15.1 9.744 22.684-6.35 6.725-17.966 1.286-20.211 12.998zm-.596 86.21c-3.234-1.977-5.582-4.962-5.761-9.049-.178-4.003 1.486-7.565 5.166-8.995 2.803-1.088 6.871-.869 8.643-1.56 0 0 4.964-1.296 4.964-5.255 0-3.958-3.749-9.179-2.555-10.828 8.69 1.674 16.907 15.1 9.75 22.684-6.352 6.726-17.962 1.287-20.207 12.999zm-68.874-64.147c7.153-7.584-1.059-21.005-9.745-22.684 1.659-2.275 8.77.725 10.247 1.619 7.392 4.465 11.132 9.213 11.118 18.442-.004 4.694-2.222 9.74-5.746 13.098-2.874 2.737-6.839 4.247-10.57 5.101-4.477 1.023-10.898.258-15.515-2.573 2.25-11.711 13.86-6.273 20.211-13.003z" fill="#ffd3f7"/><path d="m380.229 297.294c-3.229-1.977-5.578-4.962-5.756-9.05-.178-4.003 1.481-7.56 5.165-8.995 2.803-1.087 6.872-.864 8.644-1.554 0 0 4.963-1.302 4.963-5.26 0-3.954-3.75-9.174-2.55-10.828 8.686 1.679 16.897 15.099 9.745 22.684-6.351 6.73-17.961 1.292-20.211 13.003z" fill="#ffd3f7"/><path d="m463.554 339.389c.179 4.087 2.526 7.073 5.761 9.049 4.617 2.826 11.039 3.596 15.511 2.573 3.73-.854 7.7-2.364 10.569-5.101 3.524-3.358 5.742-8.409 5.751-13.098.015-9.234-3.727-13.977-11.123-18.442-1.476-.894-8.587-3.894-10.251-1.619-1.194 1.649 2.555 6.869 2.555 10.828s-4.964 5.255-4.964 5.255c-1.771.69-5.84.472-8.643 1.56-3.68 1.43-5.344 4.992-5.166 8.995zm.6-86.205c.178 4.083 2.526 7.073 5.756 9.044 4.617 2.831 11.038 3.601 15.515 2.578 3.73-.859 7.696-2.364 10.569-5.101 3.521-3.358 5.742-8.409 5.747-13.098.014-9.233-3.722-13.982-11.118-18.442-1.481-.894-8.587-3.894-10.246-1.619-1.2 1.649 2.55 6.869 2.55 10.828 0 3.954-4.964 5.255-4.964 5.255-1.772.69-5.841.472-8.644 1.56-3.683 1.43-5.347 4.991-5.165 8.995zm-89.68 35.061c.178 4.088 2.526 7.073 5.756 9.05 4.617 2.831 11.038 3.596 15.515 2.573 3.731-.854 7.696-2.364 10.57-5.101 3.524-3.357 5.742-8.404 5.746-13.098.014-9.229-3.726-13.977-11.118-18.442-1.477-.894-8.587-3.894-10.247-1.619-1.2 1.654 2.55 6.874 2.55 10.828 0 3.958-4.963 5.26-4.963 5.26-1.772.69-5.84.467-8.644 1.554-3.684 1.435-5.344 4.992-5.165 8.995zm-46.132 10.808a43.503 43.503 0 0 1 -.651-7.495c0-45.089 69.985-81.636 156.31-81.636 7.753 0 15.374.293 22.826.864 1.008.074 2.016.159 3.015.248.59.05 1.176.1 1.762.159a257.56 257.56 0 0 1 8.203.884c1.922.229 3.834.487 5.728.755 9.769 1.405 19.152 3.288 28.053 5.603 1.182.308 2.349.626 3.511.944 1.322.367 2.63.74 3.929 1.127a212.19 212.19 0 0 1 12.149 3.998c1.528.551 3.038 1.123 4.519 1.704.343.134.68.264 1.018.402 1.12.442 2.227.899 3.323 1.356 1.068.452 2.128.909 3.173 1.376a162.413 162.413 0 0 1 10.761 5.25c1.468.79 2.906 1.594 4.313 2.409a139.3 139.3 0 0 1 2.775 1.654c.454.283.904.561 1.354.844h.009a.132.132 0 0 0 .047.03c.005.005.015.01.02.015l-120.489 52.014 127 9.194 29.698 2.15.01 1.739-.966.005c-10.631 39.686-76.833 68.548-155.742 68.548-81.488 0-148.417-32.563-155.658-74.141z" fill="#9e5b16"/><path d="m328.342 350.172v-51.119c7.242 41.578 74.17 74.141 155.658 74.141 78.909 0 145.111-28.863 155.742-68.548l.966-.005.263 47.563c-2.016 50.757-73.988 91.684-157.697 91.684-84.915 0-154.932-41.956-154.932-93.716z" fill="#9e5b16"/><path d="m328.342 351.017v-.845c0 51.76 70.018 93.716 154.932 93.716 83.709 0 155.682-40.927 157.697-91.684l.258 47.483c-2.448 54.353-73.046 96.313-157.956 96.313-84.914 0-154.932-41.96-154.932-93.72z" fill="#9e5b16"/><g fill="none" stroke="#000"><path d="m604.419 239.5a.132.132 0 0 0 .047.03m-276.124 110.642c0 51.76 70.018 93.716 154.932 93.716 83.709 0 155.682-40.927 157.697-91.684.027-.725.042-1.456.042-2.186m-30.013-109.604v60.303" stroke-width="10.574"/><path d="m604.41 239.5c-.45-.283-.9-.561-1.354-.844a144.26 144.26 0 0 0 -9.993-5.578 161.475 161.475 0 0 0 -7.856-3.735 171.047 171.047 0 0 0 -3.173-1.376 190.173 190.173 0 0 0 -3.323-1.356 35.855 35.855 0 0 0 -1.018-.402c-1.48-.581-2.99-1.152-4.519-1.704a209.22 209.22 0 0 0 -12.149-3.998 239.72 239.72 0 0 0 -7.44-2.071c-8.9-2.314-18.284-4.197-28.053-5.603a251.13 251.13 0 0 0 -5.728-.755 262.552 262.552 0 0 0 -6.979-.77c-.408-.04-.815-.08-1.224-.114-.586-.06-1.172-.109-1.762-.159a198.616 198.616 0 0 0 -3.015-.248 298.935 298.935 0 0 0 -22.826-.864c-86.325 0-156.31 36.546-156.31 81.636 0 2.528.22 5.026.651 7.495 7.242 41.578 74.17 74.141 155.658 74.141 78.909 0 145.111-28.863 155.742-68.548" stroke-width="10.574"/><path d="m328.342 298.814v104.315-.85c0 51.76 70.018 93.72 154.932 93.72 84.909 0 155.508-41.96 157.955-96.313l-.258-47.483-.263-47.563-.01-1.739-29.698-2.15-127-9.194 120.485-52.013c-.005-.005-.015-.01-.02-.015-.014-.01-.027-.02-.047-.03" stroke-width="10.574"/><g stroke-width="7.049"><path d="m390.696 261.607c1.659-2.275 8.77.725 10.247 1.619 7.392 4.465 11.132 9.213 11.118 18.442-.004 4.694-2.222 9.74-5.746 13.098-2.874 2.737-6.839 4.247-10.57 5.101-4.477 1.023-10.898.258-15.515-2.573-3.229-1.977-5.578-4.962-5.756-9.05-.178-4.003 1.481-7.56 5.165-8.995 2.803-1.087 6.872-.864 8.644-1.554 0 0 4.963-1.302 4.963-5.26 0-3.954-3.75-9.174-2.55-10.828z"/><path d="m380.229 297.294c2.25-11.712 13.86-6.273 20.211-13.003 7.153-7.584-1.059-21.005-9.745-22.684m89.682-35.061c1.659-2.275 8.765.725 10.246 1.619 7.396 4.46 11.132 9.209 11.118 18.442-.005 4.688-2.227 9.74-5.747 13.098-2.873 2.737-6.839 4.242-10.569 5.101-4.477 1.023-10.897.253-15.515-2.578-3.229-1.972-5.578-4.962-5.756-9.044-.183-4.003 1.481-7.565 5.165-8.995 2.803-1.088 6.871-.869 8.644-1.56 0 0 4.964-1.301 4.964-5.255 0-3.959-3.75-9.179-2.55-10.828z"/><path d="m469.91 262.228c2.245-11.712 13.86-6.273 20.211-12.998 7.153-7.584-1.06-21.01-9.744-22.684m-.606 86.205c1.664-2.275 8.775.725 10.251 1.619 7.396 4.465 11.138 9.208 11.123 18.442-.009 4.688-2.227 9.74-5.751 13.098-2.869 2.737-6.839 4.247-10.569 5.101-4.472 1.023-10.894.253-15.511-2.573-3.234-1.977-5.582-4.962-5.761-9.049-.178-4.003 1.486-7.565 5.166-8.995 2.803-1.088 6.871-.869 8.643-1.56 0 0 4.964-1.296 4.964-5.255 0-3.958-3.749-9.179-2.555-10.828z"/><path d="m469.314 348.434c2.245-11.712 13.855-6.273 20.207-12.999 7.157-7.584-1.06-21.01-9.75-22.684"/></g><path d="m604.419 239.5h-.009" stroke-width="10.574"/></g><path d="m355.79 673.234c-10.662-16.028-.621-41.454 22.429-56.787s50.384-14.771 61.047 1.258c10.668 16.037.622 41.465-22.428 56.798-23.049 15.334-50.38 14.768-61.048-1.269z" fill="#f6cc4b"/><path d="m376.884 696.663c-1.931-.172-17.708-1.756-26.085-12.473 0 0-1.992-2.051-3.226-3.905l-1.638-2.463c-1.234-1.855-2.355-4.485-2.355-4.485-6.646-11.868-2.012-27.036-1.419-28.874 6.093-19.094 19.824-31.232 37.542-43.019 0 0 20.843-12.366 35.314-9.457 14.464 2.908 23.364 12.522 35.522 4.434.173-.115.351-.232.528-.351 12.158-8.089 33.134-21.09 33.134-21.09s139.769-93.099 148.742-99.067c10.941-7.278 18.005 1.351 18.005 1.351s5.286 9.642-5.66 16.923c-8.974 5.97-148.854 98.891-148.854 98.891l-33.358 22.19c-12.159 8.088-6.729 20.017-9.637 34.48-2.912 14.467-22.37 28.916-22.37 28.916-17.718 11.786-34.223 19.754-54.185 17.999zm1.335-80.216c-23.05 15.333-33.091 40.759-22.429 56.787 10.668 16.037 37.999 16.603 61.049 1.269 23.05-15.333 33.096-40.761 22.428-56.798-10.663-16.028-37.998-16.591-61.048-1.258z" fill="#ffa500"/><g fill="none" stroke="#231f20"><path d="m453.323 594.569-2.256 1.501-.528.351" stroke-width="10.655"/><path d="m451.067 596.07c12.158-8.089 33.134-21.09 33.134-21.09s139.769-93.099 148.742-99.067c10.941-7.278 18.005 1.351 18.005 1.351s5.286 9.642-5.66 16.923c-8.974 5.97-148.854 98.891-148.854 98.891l-33.358 22.19c-12.159 8.088-6.729 20.017-9.637 34.48-2.912 14.467-22.37 28.916-22.37 28.916-17.719 11.786-34.223 19.754-54.185 17.999-1.931-.172-17.708-1.756-26.085-12.473 0 0-1.992-2.051-3.226-3.905l-1.638-2.463c-1.234-1.855-2.355-4.485-2.355-4.485-6.646-11.868-2.012-27.036-1.419-28.874 6.093-19.094 19.824-31.232 37.542-43.019 0 0 20.843-12.366 35.314-9.457 14.464 2.908 23.364 12.522 35.522 4.434" stroke-width="10.655"/><path d="m378.219 616.447c23.05-15.333 50.384-14.771 61.047 1.258 10.668 16.037.622 41.465-22.428 56.798-23.05 15.334-50.381 14.769-61.049-1.269-10.661-16.028-.62-41.454 22.43-56.787z" stroke-width="7.104"/></g></svg>