<svg height="851.2" viewBox="0 0 851.2 851.2" width="851.2" xmlns="http://www.w3.org/2000/svg"><path d="m608.47 55.97c41.62 0 75.33 35.21 75.33 78.53v590.91c0 43.32-33.71 78.53-75.33 78.53h-365.43c-41.62 0-75.43-35.21-75.43-78.53v-590.91c0-43.32 33.81-78.53 75.43-78.53zm25.41 684.35v-65.53h-73.12v65.53zm0-104.84v-65.52h-73.12v65.521h73.12zm0-105.34v-65.52h-73.12v65.52zm0-105.34v-65.52h-73.12v65.52zm-10.01-195.16v-113.05h-394.54v113.05zm-.8 80.72v-30.71h-75.32v30.71zm-102.44 429.661v-65.521h-73.02v65.521zm0-104.841v-65.52h-73.02v65.52zm0-105.33v-65.53h-73.02v65.529h73.02zm0-105.34v-65.63h-73.02v65.63zm-112.83 315.511v-65.521h-73.13v65.521zm0-104.841v-65.52h-73.13v65.52zm0-105.33v-65.53h-73.13v65.529h73.13zm0-105.34v-65.63h-73.13v65.63zm-112.44 315.511v-65.631h-73.03v65.631zm0-104.941v-65.52h-73.03v65.52zm0-105.34v-65.52h-73.03v65.521h73.03zm0-105.34v-65.52h-73.03v65.52z" fill="#c8c8c8"/><path d="m560.76 674.79h73.12v65.53h-73.12z" fill="#a800d4"/><path d="m560.76 569.96h73.12v65.521h-73.12zm0-105.34h73.12v65.52h-73.12zm0-105.34h73.12v65.52h-73.12z" fill="#0b00ea"/><path d="m229.33 116.59h394.54v113.05h-394.54z" fill="#a3d9ff"/><path d="m547.75 279.65h75.32v30.71h-75.32z"/><path d="m447.61 674.5h73.02v65.521h-73.02z" fill="#f73900"/><path d="m447.61 569.66h73.02v65.52h-73.02zm0-105.34h73.02v65.529h-73.02zm0-105.44h73.02v65.63h-73.02z" fill="#0b00ea"/><path d="m334.67 674.5h73.13v65.521h-73.13z" fill="#f73900"/><path d="m334.67 569.66h73.13v65.52h-73.13zm0-105.34h73.13v65.529h-73.13zm0-105.44h73.13v65.63h-73.13z" fill="#0b00ea"/><path d="m222.33 674.39h73.03v65.631h-73.03zm0-104.829h73.03v65.52h-73.03z" fill="#f73900"/><path d="m222.33 464.22h73.03v65.521h-73.03zm0-105.34h73.03v65.52h-73.03z" fill="#0b00ea"/><g fill="none"><g stroke="#000" stroke-width="27.685"><path d="m683.8 134.5v590.91c0 43.32-33.71 78.53-75.33 78.53h-365.43c-41.62 0-75.43-35.21-75.43-78.53v-590.91c0-43.32 33.81-78.53 75.43-78.53h365.43c41.62 0 75.33 35.21 75.33 78.53z"/><path d="m229.33 116.59h394.54v113.05h-394.54zm318.42 163.06h75.32v30.71h-75.32zm-325.42 79.23h73.03v65.52h-73.03zm112.34 0h73.13v65.63h-73.13zm112.94 0h73.02v65.63h-73.02zm113.15.4h73.12v65.52h-73.12zm-338.43 104.94h73.03v65.521h-73.03zm112.34.1h73.13v65.529h-73.13zm112.94 0h73.02v65.529h-73.02zm113.15.3h73.12v65.52h-73.12zm-338.43 104.941h73.03v65.52h-73.03zm112.34.099h73.13v65.52h-73.13zm112.94 0h73.02v65.52h-73.02zm113.15.3h73.12v65.521h-73.12zm-338.43 104.43h73.03v65.631h-73.03zm112.34.11h73.13v65.521h-73.13zm112.94 0h73.02v65.521h-73.02zm113.15.29h73.12v65.53h-73.12z"/></g><path d="m.25.25h850.7v850.7h-850.7z"/></g></svg>