<svg height="850" viewBox="0 0 850 850" width="850" xmlns="http://www.w3.org/2000/svg"><path d="m448.2 345.3-4.3 2.8-4.8 3-5.5 2.8-3 1.3-3 1.3-5.8 2.3-3.8 2-1.5.8-1 .8-.8.8-.3.8-.3.8-.3.5.3.8.5.5v.3l13.3.3h10.8l8.8-.3 3.8-.3 3-.5 2.3-.8 1.5-.8 1.3-.5v-.3l.5-.5 1-1.8 1.3-3.3.8-2 .3-1.8.3-2-.3-1.8-.3-1.8-.5-1.8-1-3-1.5-2.5-1.3-2-1.3-1.8-2.3 2.3-3 2.5zm19.7 200.5-3.3 1.5-1.3.8-1.3 1-2.5 2-2 2.5-1.8 2.3-1.3 2.8-1 2.5-.8 2.8-.3 2.5v5.8l.5 2.8.5 2.8.8 2.8 1.8 5.3 2.5 5 7.8 9-2 1.5-5.8 4.5-5.5 4.3-5.8 4-5.5 3.5-5.5 3.3-5.5 3.3-5.3 2.8-5.5 2.8-5.3 2.3-5 2.3-5.3 2-5 1.5-5.3 1.5-4.8 1.5-5 1-4.8 1-4.8.5-4.8.8-4.8.3-4.5.3h-8.8l-8.8-.8-8.3-1-8-1.8-7.5-2-7.3-2.5-7-2.8-6.5-3-6-3.3-5.8-3.5-5.5-3.5-5-3.5-4.5-3.5-4-3.5-3.8-3.5-3.3-3.3-2.8-3-2.3-3-1.8-2.5-1.3-2-.8-1.8-.3-1.5h-3.5l1.8-1.5 1.8-1.8 1.5-2 1.5-2 1.3-2.3 1.3-2.5.8-2.8.8-2.8.8-4.5.3-4.5v-4.3l-.5-4.3-.5-4.3-1-4.3-2.3-8.3-2.8-8-2.3-8-1-4-1-4-.5-4-.3-4.3-.3-1.3 2-.8 1.8-.5 1.5-1 1.3-1 1-1 1-1.3.5-1.5.8-1.5 1-3.5.8-4.3 1.3-4.8 1.5-5.3 9.8-32-1.3-3.5-1.5-3.3-1.8-3.3-2-3-2.3-3-2.3-2.8-5-5.8-4.8-6-2.5-3-2-3.3-2-3.3-2-3.5-1.5-3.8-1-4-1-4.8-.5-4.5-.3-4.3.3-4.3.8-4 1-3.5 1.3-3.8 1.8-3.3 2-3 2.3-3 2.5-2.8 2.8-2.5 2.8-2.3 3.3-2 3.3-2 3.5-1.5 3.3-1.3 3.3-.8 2.8-.3 2.8.3 2.5.8 2.5 1 2.3 1.5 2 2 2 2.3 1.8 2.5 2 2.8 1.8 3 3.5 6.8 3.5 7.3.3 1.8.5 1.5.5.8.5.5.5.5h.8l1-.3 1-.8 1.3-1.3 1.5-1.8 1.5-2.3 1.8-3 1.8-3.5 1.5-3.5 1.5-4 1-4 .8-4.3.8-4.3 1-9 1.8-18.5.8-9 .8-4.5.5-4.3 1-4 .8-1.5.8-1.5.8-1.5 1-1.3 1-1 1.3-1 2.5-1.8 3.3-1 3.3-1 4-.8 4.3-.5 4.8-.3 11-.8 6-.8 6.5-.8 7-1 7.5-1.3 14-2.5 11.8-2 10.3-1.3 8.8-1.5 4-.8 3.8-1 3.5-1 3.5-1.3 3.5-1.5 3.8-1.8 3.5-2.3 3.8-2.5 4.3-3.5 3.8-3.5 3.3-3.8 3-4 1.3.3 2.8 2.3 2.5 2.3 2.3 2.8 2 3.3 2 4 2 5 1.8 6 2 7.3 1 6 .8 5 .3 4.5v4.5l-.3 4.3-.3 4.3-1 10.5-.3 5.3v4.8l.5 4.8.3 2.3.5 2 1 2.3.8 2.3 1.3 2.3 1.5 2.3 1.5 2.5 2 2.3 2.3 2.5 2.5 2.5 10.8 9.8 7.3 6.8 6.3 5.3 6.5 5.5 1.5 1.5 1.3 1.8 1 1.8.8 1.8.3 1.8.3 2-.3 1.8-.3 1.8-.5 1.8-.8 1.8-.8 1.5-1 1.5-1 1-1.3 1.3-1.3.8-1.3.5-5.3 1.8-2.8.8-11.3 2-1 .5-1 .5-.8 1-.8 1.3-.5 1.5-.5 1.5-.5 3.3v3.8l.8 3.3.3 1.8.8 1.3.8 1.3.8 1 3.8 3.3 1.8 1.8 1 1.5.3.8v1l-.3.8-.5.8-.8.8-1 .8-1.5 1-2 .8-5.5 2.5-5 2.5-5 2.5-4.8 2.8-10.5 6.5-12.5 8.3 5.3 2 13 4.3 7.5 2.5 7.8 2.3 7 1.8 5.8 1-1.3 5-1.5 7.3-.5 3.8-.5 3.5v3.3l.3 1.3.3 1 1 2.5.5 3.3.3 3.8-.5 3.8-.3 2-.5 2-.8 2-1 2-1 1.8-1.3 1.8-1.8 1.8-1.8 1.5-4.3.3-.8-5.5-.3-2v-6l-.5-2.5-.3-2.5-1.3-3.8-1.5-3-1.8-2.5-2-2.3-2.3-1.5-2.5-1-2.3-.8-2.5-.3-2.3.3-2 .3-2 .8-1.8 1-1.3 1.3-.8 1.3-.5 1.5.3 1.8 1 4.8.8 4.5.3 4.5-.3 4.5-.3 4.3-.8 4.3-1.5 8.3-2.5-.8-4.5 1.3z" fill="#ffeec8"/><path d="m262.4 477.5-1.5 5.3-1.2 4.7-.8 4.3-1 3.5-.7 1.5-.5 1.5-1 1.2-1 1-1.3 1-1.5 1-1.7.5-2 .8-3 .2-3.5.3-3.5.2-3.3-.2-3-.5-3-1-3-1-2.7-1.5-3-1.8-3-2.2-3-2.5-3.5-3-7.5-7.3-20.8-20-3.5-3.5-3.2-3.5-3-3.7-3-3.8-2.8-3.7-2.7-3.8-4.8-8-4.2-8.2-4-8-3.3-8.3-3-8.2-2.5-8-2-8-2-7.5-1.5-7.5-2.5-13.3-1.7-11-.8-5.2-.5-6-.5-6.8-.2-7.2-.3-7.8v-8l.3-8.2.5-8.5.7-8.5 1.3-8.3 1.2-8 1.5-8 2-7.2 2.5-7 1.3-3 1.5-3 1.5-3 1.5-2.5 6.5-9.8 6.5-8.7 5.7-7.8 5.3-6.7 8-9.3 2.7-3.2 2.8-2.3 7.2-6.2 11-8.5 6.8-5 7.2-5 7.8-5 8.2-5 8.3-4.5 8.7-4.3 4.3-1.7 4.2-1.8 4.3-1.5 4.2-1.2 4.3-1 4-1 4.2-.5 4-.3 15.5-.5 15-.7 14.8-.5 14-.3 6.7.3 6.5.2 6.5.5 6 .8 6 1.2 5.8 1.3 5.5 1.7 5 2.3 5.2 2.5 5.5 3 6 3.5 6 3.7 6 4.3 6.3 4.2 12.5 9.3 11.7 9.5 11 9.5 9.3 8.5 4 4 3.2 3.7 2 2.5 1.8 2.5 1.5 2.5 1.2 2.5 1 2.8.8 2.5.5 2.7.2 2.5v2.8l-.2 2.5-.5 2.7-.8 2.5-.7 2.8-1 2.5-1.5 2.5-1.3 2.5-3 4-3.2 3.7-3.8 3.5-4.2 3.5-3.8 2.5-3.5 2.3-3.7 1.7-3.5 1.5-3.5 1.3-3.5 1-3.8 1-4 .7-8.7 1.5-10.3 1.3-11.7 2-14 2.5-7.5 1.2-7 1-6.5.8-6 .7-11 .8-4.8.2-4.2.5-4 .8-3.3 1-3.2 1-2.5 1.7-1.3 1-1 1-1 1.3-.7 1.5-.8 1.5-.7 1.5-1 4-.5 4.2-.8 4.5-.7 9-1.8 18.5-1 9-.7 4.3-.8 4.2-1 4-1.5 4-1.5 3.5-1.7 3.5-1.8 3-1.5 2.3-1.5 1.7-1.2 1.3-1 .7-1 .3h-.8l-.5-.5-.5-.5-.5-.8-.5-1.5-.2-1.7-3.5-7.3-3.5-6.7-1.8-3-2-2.8-1.7-2.5-2-2.2-2-2-2.3-1.5-2.5-1-2.5-.8-2.7-.2-2.8.2-3.2.8-3.3 1.2-3.5 1.5-3.2 2-3.3 2-2.7 2.3-2.8 2.5-2.5 2.7-2.2 3-2 3-1.8 3.3-1.2 3.7-1 3.5-.8 4-.2 4.3.2 4.2.5 4.5 1 4.8 1 4 1.5 3.7 2 3.5 2 3.3 2 3.2 2.5 3 4.8 6 5 5.8 2.2 2.7 2.3 3 2 3 1.7 3.3 1.5 3.2 1.3 3.5z" fill="#f6cc4b"/><path d="m608.4 420.3 1.3-4 .5-1.5 1-1.3 1-1.2 1.2-.8 1.3-.5 1.2-.5 2.8-.5 2.7.3 2.3.2 2.2.5 1.5 1.5 1.5 1.8 1.3 1.7.7 2.3.5 2.5.3 3.2-.3 4.3-.7 5.2-3.5 25 3.5-5.5 1.5-1.7.7-.8.8-.5 1-.5 1-.2 2.5-.3 3.2.5 4.5.8.8.2.5.5 1 1.3.7 2 .5 2.5.3 3 .2 3.2-.2 8.3-.5 9.5-1 10.2-2 21.5-1.8 18-1.2 10.8-1.3 8.2-3.2 17-4 19.5-4.5 21.5-5.3 22.8-5.5 23-5.5 22.5-5.5 21.2-5.5 19.5-4.5-1.5-106-14h-.7l2.2-12.7 1-8.3 1.3-9.2 1-9.5.7-9.3.3-8.7v-4l-.3-3.8-.2-3.2-.5-3-.8-2.5-1-1.8-3.2-5.5-3.5-6.5-3.3-7.2-3.2-7.8-3-7.7-2.3-7.8-1-3.7-.5-3.5-.5-3.5-.2-3.3v-2.7l.2-3 1-6 1.5-6.3 1.8-6.5 1.5-8.2.7-4.3.3-4.2.2-4.5-.2-4.5-.8-4.5-1-4.8-.2-1.7.5-1.5.7-1.3 1.3-1.2 1.7-1 2-.8 2-.2 2.3-.3 2.5.3 2.2.7 2.5 1 2.3 1.5 2 2.3 1.7 2.5 1.5 3 1.3 3.7.2 2.5.5 2.5v6l.3 2 .7 5.5 1.3 7.3.7 3.5 1 3.2 1.3 2.8.7 1.2.8 1 .7.5.8.5h.7l.8-.2.5-.3.5-.7 1-2 1.2-3 1.3-3.8 3-10 3.5-12.7 5.5-22.5 5.5-24.5 5.2-23.8 4.5-21.2 5-24.3.5-1.2.3-1.3.7-1.2.8-1 1.7-1.8 2-1.2 2.3-.8 2.2-.5h2.5l2.5.3 2.5.7 2.3 1.3 2.2 1.5 1.8 2 1.5 2.2 1 2.5.2 1.5.3 1.5v1.8l-.3 1.5 4-18 .5-1.8.8-1.2 1-1 1.2-.8 1.3-.7 1.5-.3 3.2-.5 2.8.3 2.7.2 2.3.5 1.5 1.3 1.2 1 1 1.2 1 1.5 1 1.3.5 1.7.8 1.5.5 1.8.5 4v4.5l-.3 5z" fill="#ffeec8"/><path d="m497.9 635.5.3 3.8v4l-.3 8.7-.7 9.3-1 9.5-1.3 9.2-1 8.3-2.2 12.7-378-10 1.2-4.2 1.5-4 1.5-4 2-3.8 2-3.7 2.5-3.5 2.5-3.5 2.5-3.5 2.8-3.3 3-3 3.2-3.2 3.3-2.8 7-5.7 7.5-5.3 7.7-5.2 8.5-4.8 8.5-4.7 8.8-4.5 18.2-8.8 18.5-8.5 6-2.7 5.8-2.8 2.7-1.2 2.8-1.8 2.7-1.5 2.5-2h3.5l.3 1.5.7 1.8 1.3 2 1.7 2.5 2.3 3 2.7 3 3.3 3.2 3.7 3.5 4 3.5 4.5 3.5 5 3.5 5.5 3.5 5.8 3.5 6 3.3 6.5 3 7 2.7 7.2 2.5 7.5 2 8 1.8 8.3 1 8.7.7h8.8l4.5-.2 4.7-.3 4.8-.7 4.7-.5 4.8-1 5-1 4.7-1.5 5.3-1.5 5-1.5 5.2-2 5-2.3 5.3-2.2 5.5-2.8 5.2-2.7 5.5-3.3 5.5-3.2 5.5-3.5 5.8-4 5.5-4.3 5.7-4.5 2-1.5z" fill="#a8d7f4"/><path d="m462.9 351.3-.2 1.2-.3 1.3-.2 1-.8 1-.7.7-.8.8-1 .2-1 .3h-1.2l-1-.5-.8-.5-1-.8-.5-.7-.5-1.3-.5-1v-2.5l.3-1.2.2-1.3.8-.7.7-1 .8-.5 1-.5 1-.3 1.2.3 1 .2.8.5 1 .8.5 1 .5 1 .5 1.2z" fill="#231f20"/><path d="m457.4 337.5 1.3 1.8 1.3 2 1.5 2.5 1 3 .5 1.8.3 1.8.3 1.8-.3 2-.3 1.8-.8 2-1.3 3.3-1 1.8-.5.5v.3l-1.3.5-.3-.5-2-.3-1.8-.8-1.5-.8-1.5-.8-1-1-1.3-1-1.8-2.3-.5-1-.3-1.8.3-1.8.3-1.8.8-3.5.5-1.8 4-3 3-2.5zm.5 20.3 1-.3 1-.3.8-.8.8-.8.8-1 .3-1 .3-1.3.3-1.3-.3-1.3-.5-1.3-.5-1-.5-1-1-.8-.8-.5-1-.3-1.3-.3-1 .3-1 .5-.8.5-.8 1-.8.8-.3 1.3-.3 1.3v2.6l.5 1 .5 1.3.5.8 1 .8.8.5 1 .5z" fill="#abd150"/><path d="m457.9 363.5.3.5-1.5.8-2.3.7-3 .5-3.7.3-8.8.2h-10.7l-13.3-.2v-.3l-.5-.5-.2-.7.2-.5.3-.8.2-.7.8-.8 1-.7 1.5-.8 3.7-2 5.8-2.2 3-1.3 3-1.2 5.5-2.8 4.7-3 4.3-2.7-.5 1.7-.8 3.5-.2 1.8-.3 1.7.3 1.8.5 1 1.7 2.2 1.3 1 1 1 1.5.8 1.5.7 1.7.8z" fill="#fff"/><g fill="none" stroke="#231f20" stroke-linecap="round" stroke-miterlimit="10"><path d="m458.2 364 1.2-.5v-.2l.5-.5 1-1.8 1.3-3.2.7-2 .3-1.8.2-2-.2-1.7-.3-1.8-.5-1.7-1-3-1.5-2.5-1.2-2-1.3-1.8-2.2 2.3-3 2.5-4 3-4.3 2.7-4.7 3-5.5 2.8-3 1.2-3 1.3-5.8 2.2-3.7 2-1.5.8-1 .7-.8.8-.2.7-.3.8-.2.5.2.7.5.5v.3l13.3.2h10.7l8.8-.2 3.7-.3 3-.5 2.3-.7z" stroke-width="12"/><path d="m468.9 315.8-.7-.3-2-.5-3.3-.7-4.5-.3h-6l-3.7.5-3.8.5-4.2.8-4.8 1.2-5 1.3-5.5 2-6 2.2-5.5 2.8-5 2.5-4.2 2.7-3.8 2.8-3.2 2.5-3 2.5-2.5 2.5" stroke-width="14"/><path d="m448.4 345-.2.3-.5 1.7-.8 3.5-.2 1.8-.3 1.7.3 1.8.5 1 1.7 2.2 1.3 1 1 1 1.5.8 1.5.7 1.7.8 2 .2" stroke-width="6"/><path d="m479.4 242.3-3 4-3.2 3.7-3.8 3.5-4.2 3.5-3.8 2.5-3.5 2.3-3.7 1.7-3.5 1.5-3.5 1.3-3.5 1-3.8 1-4 .7-8.7 1.5-10.3 1.3-11.7 2-14 2.5-7.5 1.2-7 1-6.5.8-6 .7-11 .8-4.8.2-4.2.5-4 .8-3.3 1-3.2 1-2.5 1.7-1.3 1-1 1-1 1.3-.7 1.5-.8 1.5-.7 1.5-1 4-.5 4.2-.8 4.5-.7 9-1.8 18.5-1 9-.7 4.3-.8 4.2-1 4-1.5 4-1.5 3.5-1.7 3.5-1.8 3-1.5 2.3-1.5 1.7-1.2 1.3-1 .7-1 .3h-.8l-.5-.5-.5-.5-.5-.8-.5-1.5-.2-1.7-3.5-7.3-3.5-6.7-1.8-3-2-2.8-1.7-2.5-2-2.2-2-2-2.3-1.5-2.5-1-2.5-.8-2.7-.2-2.8.2-3.2.8-3.3 1.2-3.5 1.5-3.2 2-3.3 2-2.7 2.3-2.8 2.5-2.5 2.7-2.2 3-2 3-1.8 3.3-1.2 3.7-1 3.5-.8 4-.2 4.3.2 4.2.5 4.5 1 4.8 1 4 1.5 3.7 2 3.5 2 3.3 2 3.2 2.5 3 4.8 6 5 5.8 2.2 2.7 2.3 3 2 3 1.7 3.3 1.5 3.2 1.3 3.5-9.8 32-1.5 5.3-1.2 4.7-.8 4.3-1 3.5-.7 1.5-.5 1.5-1 1.2-1 1-1.3 1-1.5 1-1.7.5-2 .8-3 .2-3.5.3-3.5.2-3.3-.2-3-.5-3-1-3-1-2.7-1.5-3-1.8-3-2.2-3-2.5-3.5-3-7.5-7.3-20.8-20-3.5-3.5-3.2-3.5-3-3.7-3-3.8-2.8-3.7-2.7-3.8-4.8-8-4.2-8.2-4-8-3.3-8.3-3-8.2-2.5-8-2-8-2-7.5-1.5-7.5-2.5-13.3-1.7-11-.8-5.2-.5-6-.5-6.8-.2-7.2-.3-7.8v-8l.3-8.2.5-8.5.7-8.5 1.3-8.3 1.2-8 1.5-8 2-7.2 2.5-7 1.3-3 1.5-3 1.5-3 1.5-2.5 6.5-9.8 6.5-8.7 5.7-7.8 5.3-6.7 8-9.3 2.7-3.2 2.8-2.3 7.2-6.2 11-8.5 6.8-5 7.2-5 7.8-5 8.2-5 8.3-4.5 8.7-4.3 4.3-1.7 4.2-1.8 4.3-1.5 4.2-1.2 4.3-1 4-1 4.2-.5 4-.3 15.5-.5 15-.7 14.8-.5 14-.3 6.7.3 6.5.2 6.5.5 6 .8 6 1.2 5.8 1.3 5.5 1.7 5 2.3 5.2 2.5 5.5 3 6 3.5 6 3.7 6 4.3 6.3 4.2 12.5 9.3 11.7 9.5 11 9.5 9.3 8.5 4 4 3.2 3.7 2 2.5 1.8 2.5 1.5 2.5 1.2 2.5 1 2.8.8 2.5.5 2.7.2 2.5v2.8l-.2 2.5-.5 2.7-.8 2.5-.7 2.8-1 2.5-1.5 2.5zm-231 262.7.3 4.3.5 4 1 4 1 4 2.2 8 2.8 8 2.2 8.2 1 4.3.5 4.2.5 4.3v4.2l-.2 4.5-.8 4.5-.7 2.8-.8 2.7-1.2 2.5-1.3 2.3-1.5 2-1.5 2-1.7 1.7-1.8 1.5-2.5 2-2.7 1.5-2.8 1.8-2.7 1.2-5.8 2.8-6 2.7-18.5 8.5-18.2 8.8-8.8 4.5-8.5 4.7-8.5 4.8-7.7 5.2-7.5 5.3-7 5.7-3.3 2.8-3.2 3.2-3 3-2.8 3.3-2.5 3.5-2.5 3.5-2.5 3.5-2 3.7-2 3.8-1.5 4-1.5 4-1.2 4.2m398.5-156.7 1.7-1.5 1.8-1.8 1.2-1.7 1-1.8 1-2 .8-2 .5-2 .2-2 .5-3.7-.2-3.8-.5-3.2-1-2.5-.3-1-.2-1.3v-3.2l.5-3.5.5-3.8 1.5-7.2 1.2-5-5.7-1-7-1.8-7.8-2.2-7.5-2.5-13-4.3-5.2-2 12.5-8.2 10.5-6.5 4.7-2.8 5-2.5 5-2.5 5.5-2.5 2-.7 1.5-1 1-.8.8-.7.5-.8.2-.7v-1l-.2-.8-1-1.5-1.8-1.7-3.7-3.3-.8-1-.7-1.2-.8-1.3-.2-1.7-.8-3.3v-3.7l.5-3.3.5-1.5.5-1.5.8-1.2.7-1 1-.5 1-.5 11.3-2 2.7-.8 5.3-1.7 1.2-.5 1.3-.8 1.2-1.2 1-1 1-1.5.8-1.5.7-1.8.5-1.7.3-1.8.2-1.7-.2-2-.3-1.8-.7-1.7-1-1.8-1.3-1.7-1.5-1.5-6.5-5.5-6.2-5.3-7.3-6.7-10.7-9.8-2.5-2.5-2.3-2.5-2-2.2-1.5-2.5-1.5-2.3-1.2-2.2-.8-2.3-1-2.2-.5-2-.2-2.3-.5-4.7v-4.8l.2-5.2 1-10.5.3-4.3.2-4.2v-4.5l-.2-4.5-.8-5-1-6-2-7.3-1.7-6-2-5-2-4-2-3.2-2.3-2.8-2.5-2.2-2.7-2.3m17.7 393.5-.5-.5-31.5-36-7.7-9-2.5-5-1.8-5.2-.7-2.8-.5-2.7-.5-2.8v-5.7l.2-2.5.8-2.8 1-2.5 1.2-2.7 1.8-2.3 2-2.5 2.5-2 1.2-1 1.3-.7 3.2-1.5 4.3-1.3 4.5-1.2" stroke-width="14"/><path d="m389.9 548 7.3.3 8 .2 10.2.3h12l13.3-.5 13.5-1 7-.8 6.7-.7 6.8-1m73.7-115 5-24.3.5-1.2.3-1.3.7-1.2.8-1 1.7-1.8 2-1.2 2.3-.8 2.2-.5h2.5l2.5.3 2.5.7 2.3 1.3 2.2 1.5 1.8 2 1.5 2.2 1 2.5.2 1.5.3 1.5v1.8l-.3 1.5" stroke-width="14"/><path d="m527.7 521.8 5.5-22.5 5.5-24.5 5.2-23.8 4.5-21.2" stroke-width="14"/><path d="m506.2 516 .2 2.5.5 2.5v6l.3 2 .7 5.5 1.3 7.3.7 3.5 1 3.2 1.3 2.8.7 1.2.8 1 .7.5.8.5h.7l.8-.2.5-.3.5-.7 1-2 1.2-3 1.3-3.8 3-10 3.5-12.7" stroke-width="18"/><path d="m490.9 705.5.8-4.5 2.2-12.7 1-8.3 1.3-9.2 1-9.5.7-9.3.3-8.7v-4l-.3-3.8-.2-3.2-.5-3-.8-2.5-1-1.8-3.2-5.5-3.5-6.5-3.3-7.2-3.2-7.8-3-7.7-2.3-7.8-1-3.7-.5-3.5-.5-3.5-.2-3.3v-2.7l.2-3 1-6 1.5-6.3 1.8-6.5 1.5-8.2.7-4.3.3-4.2.2-4.5-.2-4.5-.8-4.5-1-4.8-.2-1.7.5-1.5.7-1.3 1.3-1.2 1.7-1 2-.8 2-.2 2.3-.3 2.5.3 2.2.7 2.5 1 2.3 1.5 2 2.3 1.7 2.5 1.5 3 1.3 3.7m95.2 205.5 1.5-5 5.5-19.5 5.5-21.2 5.5-22.5 5.5-23 5.3-22.8 4.5-21.5 4-19.5 3.2-17 1.3-8.2 1.2-10.8 1.8-18 2-21.5 1-10.2.5-9.5.2-8.3-.2-3.2-.3-3-.5-2.5-.7-2-1-1.3-.5-.5-.8-.2-4.5-.8-3.2-.5-2.5.3-1 .2-1 .5-.8.5-.7.8-1.5 1.7-3.5 5.5-.3.5" stroke-width="14"/><path d="m612.7 564.5 5-37 9.5-69 3.5-25 .7-5.2.3-4.3-.3-3.2-.5-2.5-.7-2.3-1.3-1.7-1.5-1.8-1.5-1.5-2.2-.5-2.3-.2-2.7-.3-2.8.5-1.2.5-1.3.5-1.2.8-1 1.2-1 1.3-.5 1.5-1.3 4-2.5 11.7-3.2 15.5-7 36.5-5.8 31.8-2.5 13.7m21-109.2 1-5.5.3-5v-4.5l-.5-4-.5-1.8-.8-1.5-.5-1.7-1-1.3-1-1.5-1-1.2-1.2-1-1.5-1.3-2.3-.5-2.7-.2-2.8-.3-3.2.5-1.5.3-1.3.7-1.2.8-1 1-.8 1.2-.5 1.8-4 18-29.7 141m68.5-172.8 100.2-58.7m-58.2 211.7 74.7 26.3m-483.5 28.2.3 1.5.7 1.8 1.3 2 1.7 2.5 2.3 3 2.7 3 3.3 3.2 3.7 3.5 4 3.5 4.5 3.5 5 3.5 5.5 3.5 5.8 3.5 6 3.3 6.5 3 7 2.7 7.2 2.5 7.5 2 8 1.8 8.3 1 8.7.7h8.8l4.5-.2 4.7-.3 4.8-.7 4.7-.5 4.8-1 5-1 4.7-1.5 5.3-1.5 5-1.5 5.2-2 5-2.3 5.3-2.2 5.5-2.8 5.2-2.7 5.5-3.3 5.5-3.2 5.5-3.5 5.8-4 5.5-4.3 5.7-4.5" stroke-width="14"/></g></svg>