<svg height="850.394" viewBox="0 0 850.394 850.394" width="850.394" xmlns="http://www.w3.org/2000/svg"><path d="m506.46 137.9c-9.9-2.86-18.46-3.56-25.84-2.74l-.62-5.16c-41.08-48.17-77.27-25.08-77.27-25.08l-1.73-1.23c10.24-14.22 23.92-27.33 41.91-34.74 16.03-6.61 32.07-9.59 47.49-9.68 5 2.66 51.63 29.03 35.6 82.73l-5.27 1.6c-3.97-2.17-8.68-4.09-14.27-5.7z" fill="#fff"/><path d="m480 130 .62 5.16c-30.99 3.39-41.3 33.35-43.561 41.61-32.129-4.06-55.56 16.15-72.02 28.3l8.63-39.82s6.73-33 27.33-61.56l1.73 1.23c.001 0 36.191-23.09 77.271 25.08z" fill="#ed1d31"/><path d="m594.93 115.79c11.59 20.22 14.681 43.69 11.66 70.67-1.49 13.31-2.899 24.62-4.28 34.25l-.52-.07c-19.35 22.28-45.37 33.72-66 19.37-1.49-11.29-.66-23.07.64-31.96.681-4.63 1.63-9.55 2.42-14.56h.011l3.139.51c59.16-24.14 52-77.69 52-77.69z" fill="#fff"/><path d="m601.79 220.64.52.07c-7.5 52.41-14.02 54.78-26.899 55.69-27.18 1.91-37.01-16.46-39.62-36.39 20.629 14.35 46.649 2.91 65.999-19.37zm-6.86-104.85-.93.52s7.16 53.55-52 77.69l-3.14-.51c2.899-18.29 3.77-37.92-18.13-49.89l5.27-1.6c16.03-53.7-30.6-80.07-35.6-82.73 33.59-.19 64.25 13.34 85.609 33.06 7.881 7.27 14.131 15.09 18.921 23.46z" fill="#ed1d31"/><path d="m437.06 176.77c-.369 1.33-.529 2.1-.529 2.1l-18.04 83.25c-52.35 4.03-72.39 41.71-77.38 53.4l23.93-110.45c16.459-12.15 39.889-32.36 72.019-28.3z" fill="#fff"/><path d="m418.49 262.12-19.1 88.18-1.39-.3c-62.55 4.56-76.81 59.5-76.81 59.5l-.42-.09 20.34-93.89c4.99-11.69 25.03-49.37 77.38-53.4z" fill="#ed1d31"/><path d="m399.39 350.3-18.6 85.87-.79-.17c-62.35 4.09-77.39 59.84-77.39 59.84l-.54-.12 18.7-86.31.42.09s14.26-54.94 76.81-59.5z" fill="#fff"/><path d="m380.79 436.17-19.62 90.521-3.17-.691c-52.61 4.01-70.59 44.8-75.02 57.83l19.09-88.11.54.12s15.04-55.75 77.39-59.84z" fill="#ed1d31"/><path d="m361.17 526.69-18.92 87.359-.25-.049c-62.26 5.15-78.37 63.51-78.37 63.51l-.9-.2 20.25-93.479c4.43-13.03 22.41-53.82 75.02-57.83z" fill="#fff"/><path d="m342.25 614.05-19.2 88.61-3.05-.66c-57.67 4.83-73.62 54.5-75.52 61.22.05-1.34.22-2.7.52-4.069l17.73-81.841.9.2s16.11-58.359 78.37-63.51z" fill="#ed1d31"/><path d="m323.05 702.66-15.19 70.109c-2.78 12.82-15.42 20.95-28.23 18.181l-16.45-3.57c-11.46-2.479-19.18-12.84-18.7-24.16 1.9-6.72 17.85-56.39 75.52-61.22z" fill="#fff"/><g fill="none"><g stroke="#231f20" stroke-width="21"><path d="m594.93 115.79c11.59 20.22 14.681 43.69 11.66 70.67-1.49 13.31-2.899 24.62-4.28 34.25-7.5 52.41-14.02 54.78-26.899 55.69-27.18 1.91-37.01-16.46-39.62-36.39-1.49-11.29-.66-23.07.64-31.96.681-4.63 1.63-9.55 2.42-14.56h.011c2.899-18.29 3.77-37.92-18.13-49.89-3.971-2.17-8.681-4.09-14.271-5.7-9.9-2.86-18.46-3.56-25.84-2.74-30.99 3.39-41.3 33.35-43.561 41.61-.369 1.33-.529 2.1-.529 2.1l-18.04 83.25-19.1 88.18-18.6 85.87-19.62 90.521-18.92 87.359-19.2 88.61-15.19 70.109c-2.78 12.82-15.42 20.95-28.23 18.181l-16.45-3.57c-11.46-2.479-19.18-12.84-18.7-24.16.05-1.34.22-2.7.52-4.069l17.73-81.841 20.25-93.479 19.09-88.11 18.7-86.31 20.34-93.89 23.93-110.45 8.63-39.82s6.73-33 27.33-61.56c10.24-14.22 23.92-27.33 41.91-34.74 16.03-6.61 32.07-9.59 47.49-9.68 33.59-.19 64.25 13.34 85.609 33.06 7.88 7.269 14.13 15.089 18.92 23.459z"/><path d="m339.78 318.97s.41-1.28 1.33-3.45c4.99-11.69 25.03-49.37 77.38-53.4.5-.05 1-.09 1.51-.12m-56.61-55.72c.54-.39 1.09-.8 1.65-1.21 16.46-12.15 39.89-32.36 72.02-28.3.25.03.5.07.75.1m-35.08-71.95s36.19-23.09 77.27 25.08m9.97-70.95s.15.07.431.22c5 2.66 51.63 29.03 35.6 82.73m67.999-25.69s7.16 53.55-52 77.69m59.79 26.64c-19.35 22.28-45.37 33.72-66 19.37-.47-.32-.93-.66-1.39-1.01m-213.21 170.5s14.26-54.94 76.81-59.5m-95.39 145.84s15.04-55.75 77.39-59.84m-98.22 151.81s.35-1.479 1.2-3.979c4.43-13.03 22.41-53.82 75.02-57.83m-94.37 151.509s16.11-58.359 78.37-63.51m-97.72 149.97s.06-.26.2-.75c1.9-6.72 17.85-56.39 75.52-61.22"/></g><path d="m0 0h850.394v850.394h-850.394z"/></g></svg>