<svg height="850.394" viewBox="0 0 850.394 850.394" width="850.394" xmlns="http://www.w3.org/2000/svg"><path d="m240.84 580.14.01.011c.88 1.51 1.68 3.069 2.38 4.67.95 2.16 2.02 4.77 3.19 7.71-.72-.63-29.06-24.88-51.7 11.689-6.47 10.45-10.56 25.641-12.43 42.61l-2.56-.28s-26.46-61.729 0-80.25c24.54-17.18 49.83-5.53 61.11 13.84z" fill="#c8c8c8"/><path d="m233.52 324.67c0 19.4 0 128.75-10.58 128.75s-114.2-6.61-114.2-6.61 14.23-50.85 26.02-75.399c20.95-43.68 25.38-50.36 25.38-50.36s73.38-15.781 73.38 3.619zm324.53 119.93-.02 3.41c-37.021-.18-69.34-.319-73.61-.319-10.59 0-174.61 9.75-174.61 9.75l-.02.02c-14.03-15.92-25.23-36.52-29.53-64.01-8.81-56.44-6.17-73.19-6.17-73.19s123.46-5.29 199.3-5.29c0 0 23.551 0 46.07 2.64 0 0 20.96 34.39 29.771 75.84 8.819 41.449 8.819 51.149 8.819 51.149z" fill="#fff"/><path d="m557.61 328.64c11.909 11.9 97.989 97.98 119.93 119.93 0 0-64.87-.311-119.51-.561l.02-3.41s0-9.699-8.819-51.149c-8.811-41.45-29.771-75.84-29.771-75.84 16.47 1.92 32.38 5.25 38.15 11.03z" fill="#fff"/><path d="m597.74 75.1c119.05 19.4 149.47 52.47 135.8 66.14-13.66 13.67-185.19 156.09-185.19 156.09s-2.569-.35-7.26-.9c-2.359-.5-4.89-.8-7.63-.85-4.97-.54-11.05-1.16-18.03-1.78-27.6-2.46-65.85-3.53-119.35-3.53s-131.04 4.11-131.04 4.11 19.3-126.42 37.27-165.49c20.28-44.09 25.57-45.85 64.38-53.79 0 0 111.99-19.4 231.05 0zm56.44 88.19c4.4-13.23-47.63-29.99-137.58-37.93-89.949-7.93-167.55 0-187.83 7.06-20.29 7.05-37.04 134.04-37.04 134.04s31.75-.88 57.32-.88 62.66-1.98 101.41 0c59.5 3.05 101.42 8.82 101.42 8.82s97.89-97.89 102.3-111.11z" fill="#c8c8c8"/><path d="m491.47 576.44s93.84-6.351 148.891-16.69l.84 4.41c-76.271 14.04-169.101 21.07-169.101 21.07s-42.06 1.22-91.05 3.619l-.25-4.909v-15.881c0-40.56-21.61-44.529-56.44-41.449-34.84 3.09-29.1 60.85-29.1 60.85l-.19 4.96c-39.62-1.56-53.34-11.6-54.22-12.27l-.01-.011c-11.28-19.37-36.57-31.02-61.11-13.84-26.46 18.521 0 80.25 0 80.25l2.56.28c-.38 3.4-.67 6.87-.87 10.39l-74-25.66-5.42-185.559 22.17-142.5s52.68-9.12 140.87-9.12c0 0 77.54-4.11 131.04-4.11s91.75 1.07 119.35 3.53c6.98.62 13.061 1.24 18.03 1.78 2.95.31 5.51.6 7.63.85 13.79 2.91 21.68 12.67 30.19 21.18 9.56 9.56 145.319 124.15 164.51 166.06l-.03.01c-8.79-13.989-34.85-9.699-43.439 5.681 0-18.521-2.21-28.221-9.7-35.721 0 0-1.84-1.84-5.08-5.069a675368.653 675368.653 0 0 0 -119.931-119.931c-5.771-5.78-21.681-9.11-38.15-11.03-22.52-2.64-46.07-2.64-46.07-2.64-75.84 0-199.3 5.29-199.3 5.29s-2.64 16.75 6.17 73.19c4.3 27.49 15.5 48.09 29.53 64.01 14.77 16.771 32.68 28.36 48.96 37.41 31.75 17.63 23.81 60.85 38.8 75.84s93.92 5.73 93.92 5.73zm-268.53-123.02c10.58 0 10.58-109.35 10.58-128.75s-73.38-3.62-73.38-3.62-4.43 6.68-25.38 50.36c-11.79 24.55-26.02 75.399-26.02 75.399s103.62 6.611 114.2 6.611z" fill="#00e800"/><path d="m677.54 448.57c3.24 3.229 5.08 5.069 5.08 5.069 7.49 7.5 9.7 17.2 9.7 35.721 0 18.52 2.859 41.22-14.33 58.42-4.4 4.399-18.73 8.41-37.63 11.97-55.051 10.34-148.891 16.69-148.891 16.69s-78.93 9.26-93.92-5.73-7.05-58.21-38.8-75.84c-16.28-9.05-34.19-20.64-48.96-37.41l.02-.02s164.02-9.75 174.61-9.75c4.271 0 36.59.14 73.61.319 54.641.251 119.511.561 119.511.561z" fill="#c8c8c8"/><path d="m557.84 658.83c-29.05 3.46-60.05 6.939-88.25 10.02l-.609-5.55v-44.09l156.09-16.75v47.82c-19.001 2.66-42.401 5.6-67.231 8.55z" fill="#fff400"/><path d="m307.3 678.97c-1.23-.13-2.48-.26-3.75-.399-4.58-.511-9.4-1.11-14.47-1.82-12.6-1.78-31.88-57.19-42.65-84.22h-.01c-1.17-2.94-2.24-5.55-3.19-7.71-.7-1.601-1.5-3.16-2.38-4.67.88.67 14.6 10.71 54.22 12.27 9.42.38 20.3.271 32.81-.55 17.55-1.16 35.8-2.16 53.17-3.021 48.99-2.399 91.05-3.619 91.05-3.619s92.83-7.03 169.101-21.07c48.899-9 91-20.88 97.479-35.63-1.649 32.91-7.8 70.08-13.96 83.63-8.319 18.31-13.489 18.55-50.39 28.899-2.2.61-4.5 1.271-6.93 1.96-6.57 1.881-21.91 4.41-42.33 7.261v-47.82l-156.09 16.75v44.09l.609 5.55c-53.94 5.9-97.59 10.33-97.59 10.33s-20.759 4.309-64.699-.211z"/><path d="m245.77 677.73c2.87 32.5-6.6 59.899-21.16 61.18-14.55 1.3-28.68-24.021-31.55-56.521s6.6-59.899 21.16-61.18c14.55-1.299 28.68 24.021 31.55 56.521z" fill="#c8c8c8"/><path d="m181.42 657.22c.2-3.52.49-6.989.87-10.39 1.87-16.97 5.96-32.16 12.43-42.61 22.64-36.569 50.98-12.319 51.7-11.689h.01c10.77 27.029 30.05 82.439 42.65 84.22 5.07.71 9.89 1.31 14.47 1.82 1.27.14 2.52.27 3.75.399 1.81 9.94 1.18 20.49 1.18 20.49 0 50.271-22.92 67.9-22.92 67.9-15.44 15.439-52.48 19.85-79.81-7.49-17.82-17.82-26.56-63.22-24.33-102.65zm43.19 81.69c14.56-1.28 24.03-28.68 21.16-61.18s-17-57.82-31.55-56.521c-14.56 1.28-24.03 28.68-21.16 61.18s17 57.821 31.55 56.521zm449.72-97.84c1.8 5.42 2.77 11.18 2.77 17.16 0 31.42-26.699 56.88-59.63 56.88-32.72 0-59.3-25.141-59.63-56.28 24.83-2.95 48.23-5.89 67.23-8.55 20.42-2.851 35.76-5.38 42.33-7.261 2.43-.689 4.729-1.35 6.93-1.96z" fill="#787878"/><path d="m380.8 583.94.25 4.909c-17.37.86-35.62 1.86-53.17 3.021-12.51.82-23.39.93-32.81.55l.19-4.96s-5.74-57.76 29.1-60.85c34.83-3.08 56.44.89 56.44 41.449zm357.15-93.48c1.33 10.39 1.46 23.83.729 38.07-6.479 14.75-48.58 26.63-97.479 35.63l-.84-4.41c18.899-3.56 33.229-7.57 37.63-11.97 17.189-17.2 14.33-39.9 14.33-58.42 8.59-15.38 34.649-19.67 43.439-5.681l.03-.01c1.171 2.551 1.911 4.821 2.161 6.791z" fill="#ff001c"/><g fill="none"><g stroke="#231f20" stroke-width="21"><path d="m541.09 296.43c4.69.55 7.26.9 7.26.9s171.53-142.42 185.19-156.09c13.67-13.67-16.75-46.74-135.8-66.14-119.061-19.4-231.05 0-231.05 0-38.81 7.94-44.1 9.7-64.38 53.79-17.97 39.07-37.27 165.49-37.27 165.49s77.54-4.11 131.04-4.11 91.75 1.07 119.35 3.53c6.98.62 13.061 1.24 18.03 1.78 2.95.31 5.51.6 7.63.85z"/><path d="m291.73 266.46s16.75-126.99 37.04-134.04c20.28-7.06 97.88-14.99 187.83-7.06 89.95 7.94 141.98 24.7 137.58 37.93-4.41 13.22-102.3 111.11-102.3 111.11s-41.92-5.77-101.42-8.82c-38.75-1.98-75.84 0-101.41 0s-57.32.88-57.32.88zm400.59 222.9c0-18.521-2.21-28.221-9.7-35.721 0 0-1.84-1.84-5.08-5.069-21.94-21.95-108.02-108.03-119.93-119.93-5.771-5.78-21.681-9.11-38.15-11.03-22.52-2.64-46.07-2.64-46.07-2.64-75.84 0-199.3 5.29-199.3 5.29s-2.64 16.75 6.17 73.19c4.3 27.49 15.5 48.09 29.53 64.01 14.77 16.771 32.68 28.36 48.96 37.41 31.75 17.63 23.81 60.85 38.8 75.84s93.92 5.73 93.92 5.73 93.84-6.351 148.891-16.69c18.899-3.56 33.229-7.57 37.63-11.97 17.189-17.2 14.329-39.9 14.329-58.42zm-568.15-185.86s52.68-9.12 140.87-9.12m-104.9 26.67s73.38-15.78 73.38 3.62 0 128.75-10.58 128.75-114.2-6.61-114.2-6.61 14.23-50.85 26.02-75.399c20.95-43.681 25.38-50.361 25.38-50.361z"/><path d="m295.26 587.46s-5.74-57.76 29.1-60.85c34.83-3.08 56.44.89 56.44 41.449v15.881"/><path d="m303.55 678.57c1.27.14 2.52.27 3.75.399 43.94 4.521 64.7.21 64.7.21s43.65-4.43 97.59-10.33c28.2-3.08 59.2-6.56 88.25-10.02 24.83-2.95 48.23-5.89 67.23-8.55 20.42-2.851 35.76-5.38 42.33-7.261 2.43-.689 4.729-1.35 6.93-1.96 36.9-10.35 42.07-10.59 50.39-28.899 6.16-13.55 12.311-50.72 13.96-83.63.73-14.24.601-27.681-.729-38.07-.25-1.97-.99-4.24-2.16-6.79-19.19-41.91-154.95-156.5-164.51-166.06-8.511-8.51-16.4-18.27-30.19-21.18-2.359-.5-4.89-.8-7.63-.85-.32-.02-.65-.02-.979-.02m-286.052 296.971c10.77 27.029 30.05 82.439 42.65 84.22 5.07.71 9.89 1.31 14.47 1.82m-62.7-98.42c.88 1.51 1.68 3.069 2.38 4.67.95 2.16 2.02 4.77 3.19 7.71m-66.69 54.02s-26.46-61.729 0-80.25c24.54-17.18 49.83-5.53 61.11 13.84"/><path d="m240.8 580.11s.01.01.04.029l.01.011c.88.67 14.6 10.71 54.22 12.27 9.42.38 20.3.271 32.81-.55 17.55-1.16 35.8-2.16 53.17-3.021 48.99-2.399 91.05-3.619 91.05-3.619s92.83-7.03 169.101-21.07c48.899-9 91-20.88 97.479-35.63m-46.36-39.17c8.59-15.38 34.649-19.67 43.439-5.681m-61.429 157.391c1.8 5.42 2.77 11.18 2.77 17.16 0 31.42-26.699 56.88-59.63 56.88-32.72 0-59.3-25.141-59.63-56.28-.01-.2-.01-.4-.01-.6"/><path d="m468.98 663.3v-44.09l156.09-16.75v47.82m-379.3 27.45c2.87 32.5-6.6 59.899-21.16 61.18-14.55 1.3-28.68-24.021-31.55-56.521s6.6-59.899 21.16-61.18c14.55-1.299 28.68 24.021 31.55 56.521z"/><path d="m246.43 592.53h-.01c-.72-.63-29.06-24.88-51.7 11.689-6.47 10.45-10.56 25.641-12.43 42.61-.38 3.4-.67 6.87-.87 10.39-2.23 39.431 6.51 84.83 24.33 102.65 27.33 27.34 64.37 22.93 79.81 7.49 0 0 22.92-17.63 22.92-67.9 0 0 .63-10.55-1.18-20.49v-.01m2.51-221.519s164.02-9.75 174.61-9.75c4.271 0 36.59.14 73.61.319 54.64.25 119.51.561 119.51.561m-158.08-130.96s20.96 34.39 29.771 75.84c8.819 41.45 8.819 51.149 8.819 51.149"/><path d="m107.42 631.56 74 25.66.04.01"/></g><path d="m0 0h850.394v850.394h-850.394z"/></g></svg>