<svg height="850.394" viewBox="0 0 850.394 850.394" width="850.394" xmlns="http://www.w3.org/2000/svg"><path d="m486.59 605.24 3.24-32.101 30.17-13.139 3.45-1.1 1.33 4.6c8.52 27.16 10.13 60.62 7.149 71.22-1.739 6.271-9.85 15.13-17.51 14.23-8.46-.92-10.41-20.87-14.5-27.23-6.4 1.34-3.12 10.67-7.85 10.67-4.099-4.09-5.479-15.36-5.479-27.15z" fill="#9c5c25"/><path d="m523.45 558.9-3.45 1.1-30.17 13.14c.1-.34.2-.64.3-.909l-66.95-146.55 7.15 137.94-2.92.149h-199.34l-3.56-.01c1.51-61.689 5.09-138.88 5.09-138.88l-65.6 143.58-34-12.46-.09-.02c5.55-19.2 21.54-74.961 28.81-104.341 12.87-52.01 55.42-137.83 55.42-137.83 10.84-10.83 31.71-23.58 49.86-33.62 4.26-2.35 8.36-4.55 12.16-6.55l4.69.11c7.09 17.24 25.1 29.49 46.21 29.49 21.14 0 39.17-12.28 46.23-29.56l1.51-2.25c4.82 2.69 10.53 5.95 16.58 9.56 16.85 10.04 36.4 22.79 47.24 33.62 0 0 42.57 85.81 55.439 137.831 7.541 30.55 24.521 89.6 29.391 106.46z" fill="#34a047"/><path d="m164 568.46-1.35 2.96c1.62 4.43 3.53 19.07 3.53 32.98 0 11.81-1.38 23.1-5.48 27.199-4.71 0-1.45-9.359-7.87-10.659-4.08 6.34-6.02 26.29-14.49 27.21-7.63.909-15.75-7.971-17.5-14.21-2.98-10.631-1.38-44.08 7.14-71.261 0 0 .71-2.46 1.93-6.699l.09.02z" fill="#9c5c25"/><path d="m498.17 241.21c3.61 0 6.54 3.08 6.54 6.89 0 3.8-2.93 6.88-6.54 6.88-3.62 0-6.55-3.08-6.55-6.88 0-3.81 2.93-6.89 6.55-6.89zm190.96-2.22c3.62 0 6.55 3.08 6.55 6.88s-2.93 6.89-6.55 6.89c-3.61 0-6.54-3.09-6.54-6.89s2.93-6.88 6.54-6.88zm-117.32 79.5 13.171 4 1.13.47c-1.46 2.33-3.9 3.59-6.15 2.93l-4.56-1.33c-2.311-.68-3.711-3.2-3.591-6.07zm14.15-.23-13.16-4.01.601-2.04c.239-.83.59-1.58 1.02-2.24l12.96 3.95 1.26-.05c.04.87-.069 1.78-.34 2.7l-.64 2.19zm-21.51-19.99-4.42 14.2-20.391-6.25s6.28-9.4 14.94-9.61c.001 0 4.341-.49 9.871 1.66z" fill="#c8c8c8"/><path d="m560.03 312.47 4.42-14.2 1.84-5.93s6.95-.15 13.84 5.6c4.21 3.52 9.61 7.25 11.98 8.29 3.79 1.65 10.79 3.62 16.409 3.62 10.181 0 58.45-1.32 58.45-1.32l36.601-1.63s12.83-1.29 18.55 2.86c0 0 1.399.65 2.93 4.11.7 1.58.83 3.08.84 3.97 0 0 .311 2.09-.79 4.61-1.529 3.45-2.93 4.11-2.93 4.11-5.58 4.4-18.63 3.12-18.63 3.12l-36.6-1.63s-48.261-1.32-58.45-1.32c-10.181 0-17.41 3.39-24.05 5.46-6.65 2.07-22.96 9.07-22.96 9.07-12.181 2.81-20.141-3.31-20.141-3.31-7.31-4.66-7.82-15.95-7.82-15.95l21.841 5.47zm25.03-3.99-4.56-1.33c-2.21-.65-4.61.56-6.08 2.82-.43.66-.78 1.41-1.02 2.24l-.601 2.04-.649 2.21c-.2.69-.311 1.37-.341 2.03-.119 2.87 1.28 5.39 3.591 6.07l4.56 1.33c2.25.66 4.69-.6 6.15-2.93.399-.64.72-1.36.949-2.14l.601-2.06.64-2.19c.271-.92.38-1.83.34-2.7-.1-2.58-1.45-4.77-3.58-5.39zm132.95 9.84c0-2.62-2.2-4.73-4.91-4.73s-4.909 2.11-4.909 4.73c0 2.6 2.199 4.72 4.909 4.72s4.91-2.12 4.91-4.72z" fill="#c8c8c8"/><path d="m446 204.2c.27.41 6.53 9.73 6.53 11.73 0 2.05-2.05 4.1-7.181 4.1l-1.399-.14c.42-4.28 1.21-11.61 1.92-13.86.18-.57.2-1.2.13-1.83z" fill="#ed1e29"/><path d="m724.02 227.72s.66.29 1.49.97l-.64.22c-1.15.45-2.271.85-3.37 1.19l-.04-1.53c-2.47-1.04-7.17-3.38-8.62-5.79-3.16-5.27 4.38-4.79 7.82-4.8v-1.97c4.5 5.72 3.36 11.71 3.36 11.71z" fill="#faa41a"/><path d="m317.86 232.13c2.2-5.56 17.55-2.02 21.64-2.43-.67 1.01-1.31 2.06-1.97 3.13-7.83 3.53-12.36 3.58-17.91 4.01-5.52.44-13.68 1.36-19.18-.26-1.42-1.86-1.19-3.62 3.29-4.92 2.79-.81 6.13-1.44 9-.78 1.52.35 3.75 1.82 5.13 1.25z" fill="#ef947d"/><path d="m319.62 236.84c5.55-.43 10.08-.48 17.91-4.01-2.8 4.58-5.75 9.41-10.74 11.62-6.77 3-14.03 2.4-19.6-2.2-2.07-1.71-5.29-3.74-6.75-5.67 5.5 1.62 13.66.7 19.18.26z" fill="#ef947d"/><path d="m282.9 176.16c-2.37 0-4.28 1.69-4.28 3.76 0 2.08 1.91 3.76 4.28 3.76 2.35 0 4.26-1.68 4.26-3.76 0-2.07-1.91-3.76-4.26-3.76zm-6.57.09c1.96-.85 4.08-1.31 6.33-1.26 2.6.06 5.25.91 7.51 2.33l-.35.56c.43.86.15.76.15 1.79 0 3.69-3.14 6.7-7.01 6.7s-7.01-3.01-7.01-6.7c0-1.39-.14-1.75.62-2.82zm70.85 1.71c0-2.08-1.91-3.76-4.27-3.76s-4.27 1.68-4.27 3.76 1.91 3.75 4.27 3.75 4.27-1.67 4.27-3.75zm2.06-3.07c.75 1.07.62 1.43.62 2.81 0 3.7-3.14 6.7-7.01 6.7-3.88 0-7.02-3-7.02-6.7 0-1.02-.27-.93.16-1.79l-.35-.57c2.26-1.41 4.91-2.26 7.51-2.32 2.25-.05 4.37.42 6.33 1.27z" fill="#abd150"/><path d="m338.99 186.02c-.99-.2-2.21-.44-3.13-.88-.76-.35-1.42-1.17-2.14-1.51-1.07-.49-2.27-.05-3.27-.68-1.18-.72-.29-1.55.38-2.74 1.11-1.96 2.81-3.64 4.81-4.87l.35.57c-.43.86-.16.77-.16 1.79 0 3.7 3.14 6.7 7.02 6.7 3.87 0 7.01-3 7.01-6.7 0-1.38.13-1.74-.62-2.81l.24-.6c2.61 1.1 4.94 2.87 6.94 4.98l-.15.14c-2.77 2.56-5.96 4.85-9.65 6.16-2.22.79-5.29.93-7.63.45zm-63.04-6.35c0 3.69 3.14 6.7 7.01 6.7s7.01-3.01 7.01-6.7c0-1.03.28-.93-.15-1.79l.35-.56c2.01 1.23 3.71 2.9 4.81 4.85.67 1.19 1.56 2.02.38 2.75-1 .61-2.21.18-3.28.68-.72.33-1.37 1.16-2.14 1.51-.92.43-2.14.67-3.13.87-2.33.49-5.4.35-7.63-.45-3.69-1.31-6.88-3.59-9.63-6.15l-.16-.14c2-2.11 4.33-3.89 6.94-4.99l.24.6c-.76 1.07-.62 1.43-.62 2.82z" fill="#fff"/><path d="m333.44 119.75c-15.68 11.01-52.4 28.51-59.15 33.47-4.61 3.39-8.28 8.19-10.68 13.59-2.15 4.83-3.28 10.14-3.15 15.32.26 10.25 3.67 13.94 3.67 29.38 0 7.76 3.5 16.06 7.63 23.17l-29.29 15.4c5.36-10.7 3.5-23.92 3.5-23.92-.21-20.34-2.69-42.53-3.04-47.33-1.44-19.94 5.97-50.23 16.72-67.73 18.1-29.48 47.58-42.18 93.01-36.89 33.73 3.94 64.58 40.85 64.58 87.61 0 16.39-7.29 34.5.9 50.85l-33.23 20.45c1.87-2.59 3.23-5.43 3.68-8.66.32-2.18 10.12-37.52-4.29-51.93-15.44-15.45-44.01-45.74-49.72-51.8-.66-.69-1.01-1.07-1.01-1.07-.04.03-.08.06-.13.09z" fill="#231f20"/><path d="m554.8 202.39-.04 1.42-1.779-.05-51.681-1.37-3.27-6.83s22.62-13.89 46.76-15.94c1.56-.13 3.12-.25 4.66-.36l.12 1.73z" fill="#fff"/><path d="m638.82 206.03-84.061-2.22.04-1.42-5.229-21.4-.12-1.73c22.35-1.59 42.85-.77 54.99 5.83 12.97 7.05 34.38 20.94 34.38 20.94z" fill="#fff"/><path d="m689.13 228.23c9.75 0 17.64 7.9 17.64 17.64s-7.89 17.64-17.64 17.64-17.64-7.9-17.64-17.64 7.89-17.64 17.64-17.64zm6.55 17.64c0-3.8-2.93-6.88-6.55-6.88-3.61 0-6.54 3.08-6.54 6.88s2.93 6.89 6.54 6.89c3.62 0 6.55-3.09 6.55-6.89zm-197.51-15.42c9.74 0 17.64 7.9 17.64 17.65 0 9.74-7.899 17.64-17.64 17.64-9.75 0-17.64-7.9-17.64-17.64 0-9.75 7.89-17.65 17.64-17.65zm6.54 17.65c0-3.81-2.93-6.89-6.54-6.89-3.62 0-6.55 3.08-6.55 6.89 0 3.8 2.93 6.88 6.55 6.88 3.61 0 6.54-3.08 6.54-6.88zm-61.06-25 37.399 3.73c-11.359 7.33-10.359 23.85-10.359 23.85l-24.82-2.81s-2.73-7.86-4.96-14.52c-2.21-6.66 2.74-10.25 2.74-10.25zm281.86 5.59c1.55 1.27 3.681 3.89 3.12 8.42-1.39 11.15-1.54 15.71-1.54 15.71s-3.07 2.22-9.56 2.22l-3.59-.06c2.43-11.66-1.69-19.74-4.021-23.18l1.29-.16c3.73 0 6.96-.51 10.29-1.54 1.1-.34 2.22-.74 3.37-1.19z" fill="#797878"/><g fill="#abd150"><path d="m551.39 231.64c7.17 16.62 10.931 24.96 10.931 24.96-20.58-.71-37.4-1.39-37.4-1.39 0-1.88-.59-16.82-7.86-24.08-.43-.43-.88-.86-1.34-1.29l35.141.49c.158.43.338.87.528 1.31zm92.85 0 23.729.33c-10.35 12.22-6.62 26.31-6.62 26.31h-20.14l2.38-15.03c.581-3.64.741-7.63.651-11.61z"/><path d="m445.35 220.03c5.131 0 7.181-2.05 7.181-4.1 0-2-6.261-11.32-6.53-11.73l-.01-.01c-.311-2.95-2.4-6.18 2.1-6.18 5.46 0 26.97-2.57 26.97-2.57s34.45-14.74 40.82-17.24c8.45-3.33 27.67-10.91 60.33-8.14 23.65 2 31.47 5.62 37.33 9.09 0 0 26.35 13.81 40.81 23.12 0 0 58.74 5.98 64.881 12.13.529.53 1.01 1.07 1.43 1.61v1.97c-3.44.01-10.98-.47-7.82 4.8 1.45 2.41 6.15 4.75 8.62 5.79l.04 1.53c-3.33 1.03-6.56 1.54-10.29 1.54l-1.29.16c-.83-1.23-1.439-1.87-1.439-1.87-8.431-9.33-24.7-10.94-34.83-3.29-2.25 1.7-4.131 3.49-5.681 5.33l-23.729-.33c-.29-12.43-3.03-24.59-3.03-24.59l-2.39-1.02s-21.41-13.89-34.38-20.94c-12.141-6.6-32.641-7.42-54.99-5.83-1.54.11-3.101.23-4.66.36-24.14 2.05-46.76 15.94-46.76 15.94l3.27 6.83 51.681 1.37s-8.301 10.68-2.12 26.57l-35.141-.49c-6.37-5.84-15.59-10.39-30.58-5.03a19.01 19.01 0 0 0 -4.09 2.02l-37.399-3.73s.109-1.31.3-3.21z"/><path d="m569.32 210.47c-.681-.68-1.811-.65-1.811-.65s-9.97-.8-11.68-.8-3.2.81-2.64 2.31c.55 1.49 5.159.72 10.449.72s6.362-.9 5.682-1.58zm-14.56-6.66 84.061 2.22 2.39 1.02s2.74 12.16 3.03 24.59l-93.38-1.31c-6.181-15.89 2.12-26.57 2.12-26.57z"/><path d="m569.32 210.47c-.681-.68-1.811-.65-1.811-.65s-9.97-.8-11.68-.8-3.2.81-2.64 2.31c.55 1.49 5.159.72 10.449.72s6.362-.9 5.682-1.58zm-14.56-6.66 84.061 2.22 2.39 1.02s2.74 12.16 3.03 24.59l-93.38-1.31c-6.181-15.89 2.12-26.57 2.12-26.57zm89.48 27.83c.09 3.98-.07 7.97-.65 11.61l-2.38 15.03h-13.67c-13.95 0-41.98-.86-65.22-1.68 0 0-3.761-8.34-10.931-24.96-.189-.44-.37-.88-.529-1.31z"/></g><path d="m337.53 232.83c.66-1.07 1.3-2.12 1.97-3.13-4.09.41-19.44-3.13-21.64 2.43-1.38.57-3.61-.9-5.13-1.25-2.87-.66-6.21-.03-9 .78-4.48 1.3-4.71 3.06-3.29 4.92 1.46 1.93 4.68 3.96 6.75 5.67 5.57 4.6 12.83 5.2 19.6 2.2 4.99-2.21 7.94-7.04 10.74-11.62zm18.89-53.56c-2-2.11-4.33-3.88-6.94-4.98-1.96-.85-4.08-1.32-6.33-1.27-2.6.06-5.25.91-7.51 2.32-2 1.23-3.7 2.91-4.81 4.87-.67 1.19-1.56 2.02-.38 2.74 1 .63 2.2.19 3.27.68.72.34 1.38 1.16 2.14 1.51.92.44 2.14.68 3.13.88 2.34.48 5.41.34 7.63-.45 3.69-1.31 6.88-3.6 9.65-6.16zm-92.81-12.46c2.4-5.4 6.07-10.2 10.68-13.59 6.75-4.96 43.47-22.46 59.15-33.47.23.5.61.83 1.14.98 5.71 6.06 34.28 36.35 49.72 51.8 14.41 14.41 4.61 49.75 4.29 51.93-.45 3.23-1.81 6.07-3.68 8.66-2.8 3.89-6.76 7.22-10.51 10.47-6.41 5.56-11.18 13.56-17.14 19.7-4.34 4.48-9.33 7.97-16.05 8.79-11.98 1.46-27.05 5.83-37.35-2.88-2.32-1.96-4.85-3.87-7.39-5.82-4.46-3.44-8.94-7.01-12.3-11.24-1.79-2.26-7.53-9.03-12.41-17.46-4.13-7.11-7.63-15.41-7.63-23.17 0-15.44-3.41-19.13-3.67-29.38-.13-5.18 1-10.49 3.15-15.32zm15.57 20.72c2.23.8 5.3.94 7.63.45.99-.2 2.21-.44 3.13-.87.77-.35 1.42-1.18 2.14-1.51 1.07-.5 2.28-.07 3.28-.68 1.18-.73.29-1.56-.38-2.75-1.1-1.95-2.8-3.62-4.81-4.85-2.26-1.42-4.91-2.27-7.51-2.33-2.25-.05-4.37.41-6.33 1.26-2.61 1.1-4.94 2.88-6.94 4.99l.16.14c2.75 2.56 5.94 4.84 9.63 6.15z" fill="#9c5c25"/><path d="m374.8 271.43-1.51 2.25c-7.06 17.28-25.09 29.56-46.23 29.56-21.11 0-39.12-12.25-46.21-29.49l-4.69-.11c9.79-5.15 17.51-8.91 20.31-10.26 2.54 1.95 5.07 3.86 7.39 5.82 10.3 8.71 25.37 4.34 37.35 2.88 6.72-.82 11.71-4.31 16.05-8.79l3.14.33s5.8 3.01 14.4 7.81z" fill="#9c5c25"/><path d="m430.61 569.07.279-.011c.69 11.66 1.15 25 1.15 39.83 0 16.62-1.82 119.92-4.39 159.95l-83.649-2.839-.32.02-7.49-132.93-16.01-.08-8.22 132.99-83.58-.93c-2.65-40.96-4.53-140.011-4.53-156.931 0-12.5.26-27.89.66-44.38l3.56.01h199.34l2.92-.149z" fill="#797878"/><path d="m342.91 176.29c.85 0 1.54.75 1.54 1.67s-.69 1.67-1.54 1.67-1.53-.75-1.53-1.67.68-1.67 1.53-1.67z" fill="#231f20"/><path d="m344.45 177.96c0-.92-.69-1.67-1.54-1.67s-1.53.75-1.53 1.67.68 1.67 1.53 1.67 1.54-.75 1.54-1.67zm-1.54-3.76c2.36 0 4.27 1.68 4.27 3.76s-1.91 3.75-4.27 3.75-4.27-1.67-4.27-3.75 1.91-3.76 4.27-3.76zm-61.54 5.72c0-.92.67-1.66 1.53-1.66.84 0 1.52.74 1.52 1.66 0 .93-.68 1.67-1.52 1.67-.86 0-1.53-.74-1.53-1.67z" fill="#231f20"/><path d="m278.62 179.92c0-2.07 1.91-3.76 4.28-3.76 2.35 0 4.26 1.69 4.26 3.76 0 2.08-1.91 3.76-4.26 3.76-2.37 0-4.28-1.68-4.28-3.76zm4.28-1.66c-.86 0-1.53.74-1.53 1.66 0 .93.67 1.67 1.53 1.67.84 0 1.52-.74 1.52-1.67 0-.92-.68-1.66-1.52-1.66z" fill="#231f20"/><g fill="none"><g stroke="#231f20"><path d="m127.98 562.68s.71-2.46 1.93-6.699c5.55-19.2 21.54-74.961 28.81-104.341 12.87-52.01 55.42-137.83 55.42-137.83 10.84-10.83 31.71-23.58 49.86-33.62 4.26-2.35 8.36-4.55 12.16-6.55a669.816 669.816 0 0 1 21.45-10.81" stroke-width="14"/><path d="m228.38 765.07c-2.65-40.96-4.53-140.011-4.53-156.931 0-12.5.26-27.89.66-44.38 1.51-61.689 5.09-138.88 5.09-138.88l-65.6 143.581-1.35 2.96c1.62 4.43 3.53 19.07 3.53 32.98 0 11.81-1.38 23.1-5.48 27.199-4.71 0-1.45-9.359-7.87-10.659-4.08 6.34-6.02 26.29-14.49 27.21-7.63.909-15.75-7.971-17.5-14.21-2.98-10.631-1.38-44.08 7.14-71.261m396.8.821-1.33-4.6c-4.87-16.86-21.851-75.91-29.391-106.46-12.869-52.02-55.439-137.83-55.439-137.83-10.84-10.83-30.39-23.58-47.24-33.62-6.05-3.61-11.76-6.87-16.58-9.56-8.6-4.8-14.4-7.81-14.4-7.81" stroke-width="14"/><path d="m430.82 573.08-.21-4.01-.28-5.45-7.15-137.94 66.95 146.55c-.1.27-.2.569-.3.909l-3.24 32.101c0 11.79 1.38 23.06 5.48 27.149 4.729 0 1.449-9.33 7.85-10.67 4.09 6.36 6.04 26.311 14.5 27.23 7.66.899 15.771-7.96 17.51-14.23 2.98-10.6 1.37-44.06-7.149-71.22" stroke-width="14"/><path d="m427.65 768.84c2.569-40.03 4.39-143.33 4.39-159.95 0-14.83-.46-28.17-1.15-39.83m-86.97 201.24-.24-4.28-7.49-132.93-16.01-.08-8.22 132.99-.27 4.3m-83.62-206.53h199.34m-297.41-7.77 34 12.46 1.91.7" stroke-width="14"/><path d="m520 560-30.17 13.14-1.08.47" stroke-width="17.515"/><path d="m373.29 273.68c-7.06 17.28-25.09 29.56-46.23 29.56-21.11 0-39.12-12.25-46.21-29.49" stroke-width="14"/><path d="m564.45 298.27 1.84-5.93s6.95-.15 13.84 5.6c4.21 3.52 9.61 7.25 11.98 8.29 3.79 1.65 10.79 3.62 16.409 3.62 10.181 0 58.45-1.32 58.45-1.32l36.601-1.63s12.83-1.29 18.55 2.86c0 0 1.399.65 2.93 4.11.7 1.58.83 3.08.84 3.97 0 0 .311 2.09-.79 4.61-1.529 3.45-2.93 4.11-2.93 4.11-5.58 4.4-18.63 3.12-18.63 3.12l-36.6-1.63s-48.261-1.32-58.45-1.32c-10.181 0-17.41 3.39-24.05 5.46-6.65 2.07-22.96 9.07-22.96 9.07-12.181 2.81-20.141-3.31-20.141-3.31-7.31-4.66-7.82-15.95-7.82-15.95l21.841 5.47 4.67-15z" stroke-width="7"/><path d="m561.17 312.82-1.14-.35-20.391-6.25s6.28-9.4 14.94-9.61c0 0 4.34-.49 9.87 1.66" stroke-width="7"/><path d="m713.1 313.59c2.71 0 4.91 2.11 4.91 4.73 0 2.6-2.2 4.72-4.91 4.72s-4.909-2.12-4.909-4.72c-.001-2.62 2.199-4.73 4.909-4.73z" stroke-width="4.379"/><path d="m574.42 309.97c1.47-2.26 3.87-3.47 6.08-2.82l4.56 1.33c2.131.62 3.48 2.81 3.58 5.39.04.87-.069 1.78-.34 2.7l-.64 2.19-.601 2.06c-.229.78-.55 1.5-.949 2.14-1.46 2.33-3.9 3.59-6.15 2.93l-4.56-1.33c-2.311-.68-3.71-3.2-3.591-6.07.03-.66.141-1.34.341-2.03l.649-2.21.601-2.04c.24-.83.59-1.58 1.02-2.24z" stroke-width="3"/><path d="m571.39 318.36.42.13 13.17 4m-12.61-8.37.43.13 13.16 4.01" stroke-width="7"/><path d="m573.79 309.78.63.19 12.96 3.95" stroke-width="4.379"/><path d="m446 204.2c.07.63.05 1.26-.13 1.83-.71 2.25-1.5 9.58-1.92 13.86-.19 1.9-.3 3.21-.3 3.21l37.399 3.73" stroke-width="7"/><path d="m443.65 223.1s-4.95 3.59-2.74 10.25c2.229 6.66 4.96 14.52 4.96 14.52l24.82 2.81s-1-16.52 10.359-23.85c1.22-.8 2.57-1.48 4.09-2.02 14.99-5.36 24.21-.81 30.58 5.03.46.43.91.86 1.34 1.29 7.271 7.26 7.86 22.2 7.86 24.08 0 0 16.82.68 37.4 1.39 23.239.82 51.27 1.68 65.22 1.68h33.81s-3.729-14.09 6.62-26.31c1.55-1.84 3.431-3.63 5.681-5.33 10.13-7.65 26.399-6.04 34.83 3.29 0 0 .609.64 1.439 1.87 2.33 3.44 6.45 11.52 4.021 23.18l3.59.06c6.489 0 9.56-2.22 9.56-2.22s.15-4.56 1.54-15.71c.561-4.53-1.57-7.15-3.12-8.42-.83-.68-1.49-.97-1.49-.97s1.141-5.99-3.359-11.71c-.42-.54-.9-1.08-1.43-1.61-6.141-6.15-64.881-12.13-64.881-12.13-14.46-9.31-40.81-23.12-40.81-23.12-5.86-3.47-13.68-7.09-37.33-9.09-32.66-2.77-51.88 4.81-60.33 8.14-6.37 2.5-40.82 17.24-40.82 17.24s-21.51 2.57-26.97 2.57c-4.5 0-2.41 3.23-2.1 6.18" stroke-width="7"/><path d="m515.81 248.1c0 9.74-7.899 17.64-17.64 17.64-9.75 0-17.64-7.9-17.64-17.64 0-9.75 7.89-17.65 17.64-17.65 9.74 0 17.64 7.9 17.64 17.65z" stroke-width="11.677"/><path d="m504.71 248.1c0 3.8-2.93 6.88-6.54 6.88-3.62 0-6.55-3.08-6.55-6.88 0-3.81 2.93-6.89 6.55-6.89 3.61 0 6.54 3.08 6.54 6.89z" stroke-width="5.838"/><path d="m706.77 245.87c0 9.74-7.89 17.64-17.64 17.64s-17.64-7.9-17.64-17.64 7.89-17.64 17.64-17.64 17.64 7.9 17.64 17.64z" stroke-width="11.677"/><path d="m695.68 245.87c0 3.8-2.93 6.89-6.55 6.89-3.61 0-6.54-3.09-6.54-6.89s2.93-6.88 6.54-6.88c3.62 0 6.55 3.08 6.55 6.88z" stroke-width="5.838"/><path d="m445.99 204.19.01.01c.27.41 6.53 9.73 6.53 11.73 0 2.05-2.05 4.1-7.181 4.1" stroke-width="11.677"/><path d="m638.82 206.03-84.061-2.22-1.779-.05-51.681-1.37-3.27-6.83s22.62-13.89 46.76-15.94c1.56-.13 3.12-.25 4.66-.36 22.35-1.59 42.85-.77 54.99 5.83 12.971 7.05 34.381 20.94 34.381 20.94zm-89.25-25.04 5.23 21.4" stroke-width="7"/><path d="m552.98 203.76s-8.301 10.68-2.12 26.57c.159.43.34.87.529 1.31 7.17 16.62 10.931 24.96 10.931 24.96m78.89-49.55s2.74 12.16 3.03 24.59c.09 3.98-.07 7.97-.65 11.61l-2.38 15.03" stroke-width="7"/><path d="m515.72 229.84 35.14.49 93.38 1.31 23.73.33" stroke-width="7"/><path d="m711.21 231.64c3.73 0 6.96-.51 10.29-1.54 1.1-.34 2.22-.74 3.37-1.19m-4.1-10.93h-.109c-3.44.01-10.98-.47-7.82 4.8 1.45 2.41 6.15 4.75 8.62 5.79" stroke-width="11.677"/><path d="m567.51 209.82s-9.97-.8-11.68-.8-3.2.81-2.64 2.31c.55 1.49 5.159.72 10.449.72s6.36-.9 5.681-1.58c-.68-.68-1.81-.65-1.81-.65z" stroke-width="5.838"/><path d="m324.68 169.07c5.93-9.88 20.35-11.46 28.6-8.23 4.43 1.72 7.13 3.77 8.29 4.93m-68-.35c-7.86-7-23.16-5.93-29.96 1.39-.36.38-.69.78-1 1.19m40.75 3.2c8.61 6.44 4.05 28.25 1.88 34.75-.69 2.08-3.66 5.75-1.57 7.91 1.01 1.04 2.31.48 3.58.68 1.3.2 2.09.33 3.6.9 2.91 1.08 5.04 1.73 7.65-.18 2.85-2.06 2.64-3.51 6.83-3.31 3.54.16 7.44 1.16 7.26-4.27-.12-3.75-2.93-3.7-4.94-6.34" stroke-width="7"/><path d="m317.62 233.08c.04-.34.12-.66.24-.95 2.2-5.56 17.55-2.02 21.64-2.43-.67 1.01-1.31 2.06-1.97 3.13-2.8 4.58-5.75 9.41-10.74 11.62-6.77 3-14.03 2.4-19.6-2.2-2.07-1.71-5.29-3.74-6.75-5.67-1.42-1.86-1.19-3.62 3.29-4.92 2.79-.81 6.13-1.44 9-.78 1.52.35 3.75 1.82 5.13 1.25.23-.09.44-.24.61-.47" stroke-width="4"/><path d="m300.44 236.58c5.5 1.62 13.66.7 19.18.26 5.55-.43 10.08-.48 17.91-4.01.01 0 .01-.01.02-.01" stroke-width="4"/><path d="m334.58 120.73c5.71 6.06 34.28 36.35 49.72 51.8 14.41 14.41 4.61 49.75 4.29 51.93-.45 3.23-1.81 6.07-3.68 8.66-2.8 3.89-6.76 7.22-10.51 10.47-6.41 5.56-11.18 13.56-17.14 19.7-4.34 4.48-9.33 7.97-16.05 8.79-11.98 1.46-27.05 5.83-37.35-2.88-2.32-1.96-4.85-3.87-7.39-5.82-4.46-3.44-8.94-7.01-12.3-11.24-1.79-2.26-7.53-9.03-12.41-17.46-4.13-7.11-7.63-15.41-7.63-23.17 0-15.44-3.41-19.13-3.67-29.38-.13-5.18 1-10.49 3.15-15.32 2.4-5.4 6.07-10.2 10.68-13.59 6.75-4.96 43.47-22.46 59.15-33.47.05-.03.09-.06.13-.09 0 0 .35.38 1.01 1.07z" stroke-width="14"/><path d="m271.76 234.68-29.29 15.4c5.36-10.7 3.5-23.92 3.5-23.92-.21-20.34-2.69-42.53-3.04-47.33-1.44-19.94 5.97-50.23 16.72-67.73 18.1-29.48 47.58-42.18 93.01-36.89 33.73 3.94 64.58 40.85 64.58 87.61 0 16.39-7.29 34.5.9 50.85l-33.23 20.45-.06.04" stroke-width="14"/><path d="m268.11 182.68c.41-.49.83-.98 1.28-1.44 2-2.11 4.33-3.89 6.94-4.99 1.96-.85 4.08-1.31 6.33-1.26 2.6.06 5.25.91 7.51 2.33 2.01 1.23 3.71 2.9 4.81 4.85.67 1.19 1.56 2.02.38 2.75-1 .61-2.21.18-3.28.68-.72.33-1.37 1.16-2.14 1.51-.92.43-2.14.67-3.13.87-2.33.49-5.4.35-7.63-.45-3.69-1.31-6.88-3.59-9.63-6.15" stroke-linecap="square" stroke-miterlimit="10" stroke-width="3.663"/><path d="m289.82 177.88c.43.86.15.76.15 1.79 0 3.69-3.14 6.7-7.01 6.7s-7.01-3.01-7.01-6.7c0-1.39-.14-1.75.62-2.82m81.13 3.86c-.41-.49-.84-.98-1.28-1.44-2-2.11-4.33-3.88-6.94-4.98-1.96-.85-4.08-1.32-6.33-1.27-2.6.06-5.25.91-7.51 2.32-2 1.23-3.7 2.91-4.81 4.87-.67 1.19-1.56 2.02-.38 2.74 1 .63 2.2.19 3.27.68.72.34 1.38 1.16 2.14 1.51.92.44 2.14.68 3.13.88 2.34.48 5.41.34 7.63-.45 3.69-1.31 6.88-3.6 9.65-6.16" stroke-linecap="square" stroke-miterlimit="10" stroke-width="3.663"/><path d="m335.99 175.91c-.43.86-.16.77-.16 1.79 0 3.7 3.14 6.7 7.02 6.7 3.87 0 7.01-3 7.01-6.7 0-1.38.13-1.74-.62-2.81" stroke-linecap="square" stroke-miterlimit="10" stroke-width="3.663"/><path d="m335.41 120.84c-.31 0-.59-.03-.83-.11a1.72 1.72 0 0 1 -1.14-.98.757.757 0 0 1 -.09-.18c4.83-4.71 7.2-12.16 8.64-18.5" stroke-width="14"/></g><path d="m344 766 83.65 2.84" stroke="#34a047"/></g><path d="m0 0h850.394v850.394h-850.394z" fill="none"/></svg>