<svg height="850.394" viewBox="0 0 850.394 850.394" width="850.394" xmlns="http://www.w3.org/2000/svg"><path d="m344.52 200.31c-2.24 2.07-4.82 3.92-7.8 4.98-1.8.64-4.28.76-6.18.37-.8-.17-1.78-.37-2.52-.71-.63-.29-1.15-.96-1.74-1.22-.87-.41-1.84-.05-2.65-.56-.95-.58-.23-1.25.31-2.21.9-1.59 2.27-2.95 3.9-3.94l.28.45c-.36.7-.13.63-.13 1.46 0 2.99 2.54 5.42 5.67 5.42 3.14 0 5.68-2.43 5.68-5.42 0-1.13.1-1.41-.51-2.28l.2-.49c2.11.89 3.99 2.33 5.61 4.04zm-49.27 4.45c-.81.5-1.79.15-2.65.55-.59.28-1.11.95-1.74 1.23-.74.34-1.73.54-2.53.7-1.88.4-4.37.28-6.18-.36-2.97-1.07-5.56-2.91-7.79-4.98l-.12-.11c1.62-1.71 3.51-3.15 5.61-4.05l.19.5c-.61.87-.5 1.15-.5 2.28 0 2.99 2.54 5.42 5.68 5.42 3.13 0 5.66-2.43 5.66-5.42 0-.84.23-.76-.12-1.46l.29-.46c1.61 1.01 2.99 2.36 3.88 3.95.55.96 1.27 1.63.32 2.21z" fill="#fff"/><path d="m424.67 583.76c.72 12.11 1.19 25.96 1.19 41.36 0 17.11-1.86 122.729-4.49 165.02l-87.01 2.601-8.03-142.49-16.62-.08-8.53 137.82-86.81-.681c-2.74-42.54-4.7-145.39-4.7-162.97 0-12.99.27-28.96.68-46.09l3.71.02h207l3.03-.159.29 5.659z" fill="#797878"/><path d="m690.16 303.95s5.74 15.09 8.96 19.92c4.1 6.15 12.64 15.64 18.939 13.44 6.29-2.18 5.87-7.79-1.369-15.04-7.25-7.25-7.391-10.03-9.58-15.22-2.19-5.2-4.92-11.86-10.391-11.86-5.469 0-8.199 4.38-6.559 8.76zm-33.55-11.21 65.09-13.26s5.53.22 3.7 5.11c-1.83 4.88-1.931 10.3 2.119 14.34 0 0 8.391 7.83 10.391 17.09 2.45 11.29 4.78 11.68 7.79 14.49 5.2 4.87 5.88 11.4-3.51 13.59-13.131 3.05-38.86 5.55-38.86 5.55-5.09.04-8.55-.26-8.55-.26l-2.7-1.82-25.98-17.51-8.75-37.44z" fill="#34a047"/><path d="m692.08 347.57 2.7 1.82-12.65-.38-2.29-3.2-2.47 3.06-6.01-.18-2.28-3.2-2.48 3.06-6-.18-2.29-3.21-2.48 3.06-5.99-.18-2.3-3.21-2.49 3.07-5.98-.18-2.3-3.22-2.49 3.08-5.98-.18-2.3-3.22-2.49 3.08-5.98-.18-2.3-3.23-2.49 3.08-5.97-.17-2.31-3.24-2.5 3.09-5.96-.18-2.3-3.23-2.5 3.09-5.96-.18-2.31-3.24-2.51 3.1-5.94-.18-2.32-3.25-2.52 3.1-5.93-.17-2.32-3.25-2.51 3.1-5.94-.18-2.32-3.25-2.52 3.11-5.92-.18-2.33-3.26-2.53 3.12-5.91-.18-2.33-3.26-2.52 3.11-5.92-.17-2.33-3.27-2.53 3.12-5.9-.18-2.33-3.27-2.54 3.13-5.89-.18-2.34-3.27-2.53 3.13-5.9-.18-2.34-3.28-2 2.47v-21.7l172.6-27.96.74-.12 8.75 37.44z" fill="#c8c8c8"/><path d="m685.01 353.05-5.59 6.91-5.17-7.24zm-5.17-7.24 2.29 3.2-4.76-.14z" fill="#211d1e"/><path d="m682.13 349.01 2.88 4.04-10.76-.33 3.12-3.85zm-7.89 3.71-5.59 6.91-5.17-7.23zm-5.16-7.23 2.28 3.2-4.76-.14z" fill="#211d1e"/><path d="m674.24 352.72-10.76-.32 3.12-3.85 4.76.14z" fill="#211d1e"/><path d="m670.71 184.68c-.72-.22-1.46-.37-2.22-.45l-.63-.82 8.89-6.82 8.24-6.33-5.17 24.57h-.011c-1.749-5.85-4.569-8.72-9.099-10.15z" fill="#f6cc4b"/><path d="m520.86 119.32c16.319 11.51 52.63 18.06 65.939 23.59 13.13 5.47 26.88 9.43 39.99 15 7.37 3.12 14.92 6.22 22.49 8.86 8.39 2.92 19.489 5.94 27.47 9.82l-8.89 6.82-.091.07-2.64 2.03-1-1.3c-5.87-4.42-13.939-5.69-20.66-8.44-6.569-2.69-13.109-5.77-19.399-9.02-5.95-3.08-11.9-6.38-18.21-8.74-7.21-2.71-14.86-3.87-22.12-6.25-15.42-5.05-78.54-25.65-82.84-26.85l19.71-6.37z" fill="#faa41a"/><path d="m500.9 124.91c4.3 1.2 67.42 21.8 82.84 26.85 7.26 2.38 14.91 3.54 22.12 6.25 6.31 2.36 12.26 5.66 18.21 8.74 6.29 3.25 12.83 6.33 19.399 9.02 6.721 2.75 14.79 4.02 20.66 8.44l1 1.3-10.17 7.81-.33-.43c-11.43-6.75-24.84-9.66-37.2-14.39-14.79-5.67-29.729-10.73-44.59-16.25-16.5-6.13-36.85-11.82-53.07-18.7-7.409-3.16-28.819-10.42-36.689-12.89z" fill="#f6cc4b"/><path d="m663.48 352.4-5.6 6.91-5.17-7.24zm-5.17-7.24 2.29 3.21-4.77-.15z" fill="#211d1e"/><path d="m663.48 352.4-10.77-.33 3.12-3.85 4.77.15z" fill="#211d1e"/><path d="m658.86 227.92c1.779.56 4.27-2.37 5.58-6.52 1.3-4.16.92-7.98-.851-8.53-1.77-.56-4.27 2.36-5.58 6.51-1.299 4.16-.919 7.98.851 8.54zm-4.01 9.59c-5.159-1.62-6.949-10.56-4-19.97 2.95-9.4 9.53-15.71 14.681-14.09 5.16 1.62 6.95 10.55 4.01 19.96-2.961 9.41-9.531 15.72-14.691 14.1z" fill="#f6cc4b"/><path d="m650.85 217.54c-2.949 9.41-1.159 18.35 4 19.97 5.16 1.62 11.73-4.69 14.69-14.1 2.94-9.41 1.15-18.34-4.01-19.96-5.15-1.62-11.73 4.69-14.68 14.09zm.53 29.2c-6.32-1.98-9.399-10.99-8.21-21.88l1.72-8.48c.07-.28.16-.57.25-.85 4.61-14.71 14.891-24.58 22.96-22.04 6.94 2.18 8.29 12.59 5.9 24.88l.82.17-.33 1.58-2.54 12.09-13.72 14.03c-2.33.96-4.68 1.19-6.85.5z" fill="#f6cc4b"/><path d="m483.08 130.66c7.87 2.47 29.28 9.73 36.689 12.89 16.221 6.88 36.57 12.57 53.07 18.7 14.86 5.52 29.8 10.58 44.59 16.25 12.36 4.73 25.771 7.64 37.2 14.39l.33.43-6.39 4.91-.34 1.68-183.509-63.31z" fill="#faa41a"/><path d="m652.71 352.07-5.6 6.91-5.17-7.24zm-5.17-7.24 2.3 3.21-4.79-.14z" fill="#211d1e"/><path d="m652.71 352.07-10.77-.33 3.11-3.84 4.79.14z" fill="#211d1e"/><path d="m648.23 199.91.34-1.68 6.39-4.91 10.17-7.81 2.64-2.03.091-.07.63.82c.76.08 1.5.23 2.22.45 4.53 1.43 7.35 4.3 9.1 10.15h.011l-5 23.71-.82-.17c2.39-12.29 1.04-22.7-5.9-24.88-8.069-2.54-18.35 7.33-22.96 22.04-.09.28-.18.57-.25.85l1.44-7.11zm-5.06 24.95c-1.189 10.89 1.89 19.9 8.21 21.88 2.17.69 4.521.46 6.851-.5l-8.25 8.43a10.62 10.62 0 0 1 -2.79-.5c-3.631-1.13-6.44-4.03-8.311-8.14l3.351-16.55z" fill="#f6cc4b"/><path d="m499.57 175.18c16.75 6.85 33.819 11.24 51.449 14.91 6.271 1.3 12.851 1.36 19.08 2.98 7.49 1.94 14.4 5.67 21.471 8.61 16.729 6.96 34.189 13.03 51.51 18.43l.82.18c-.33 1.55-.58 3.08-.73 4.57l-.939 4.62-1.25-.25c-7.7-3.5-16.771-6.37-25.011-7.83-6.29-1.13-12.62-1.67-18.67-4.08-6.77-2.69-11.71-8.65-18.74-10.7-7.029-2.05-14.47-.79-21.579-3.36-6.631-2.4-19.171-5.97-26.511-5.09-8.06.97.891 6.79 5.73 11.37 6.09 5.77 11.83 8.08 19.58 9.6 8.59 1.7 18.14 2.71 26.33 5.91 10.97 4.27 17.39 14.89 28.79 18.81 5.569 1.93 11.319 3.2 16.52 5.87 2.42 1.24 4.64 2.38 7.271 3.11l2.689.55-1.649 8.15-2.48-.5c-8.12-2.49-15.71-4.67-23.47-8.22-7.8-3.59-15.521-7.25-23.221-11.05-12.63-6.23-24.979-12.38-38.18-17.14-15.14-5.47-29.479-13.1-44.61-18.51-12.21-4.37-23.779-3.96-36.3-5.65-2.52-.34-6.84-.76-8.43-1.62l-.63-.04.33-5.73c6.58 1.73 13.569 1.26 20.34.57 2.74-.28 16.64.39 17.61-2.07 1.329-3.41-12.761-8.78-15.511-10.22-6.83-3.6-16-9.72-20.85-16.03l.68-11.88.971.06c2.659 3.13 9.21 6.77 13.25 9.32 7.72 4.89 15.9 8.89 24.34 12.35z" fill="#f6cc4b"/><path d="m641.94 351.74-5.6 6.91-5.17-7.23z" fill="#211d1e"/><path d="m635.73 261.54 1.649-8.15 1.5-7.36c1.87 4.11 4.68 7.01 8.311 8.14.909.29 1.84.46 2.79.5l-16.221 16.59z" fill="#f6cc4b"/><g fill="#211d1e"><path d="m636.77 344.5 2.3 3.22-4.79-.14z"/><path d="m641.94 351.74-10.77-.32 3.11-3.84 4.79.14zm-10.77-.32-5.6 6.91-5.17-7.24zm-5.17-7.24 2.3 3.22-4.79-.14z"/><path d="m631.17 351.42-10.77-.33 3.11-3.83 4.79.14zm-10.77-.33-5.6 6.91-5.16-7.24zm-5.17-7.24 2.3 3.23-4.79-.15z"/><path d="m612.74 346.93 4.79.15 2.87 4.01-10.76-.33zm-3.11 3.83-5.6 6.91-5.16-7.23zm-5.17-7.24 2.31 3.24-4.81-.15z"/><path d="m601.96 346.61 4.81.15 2.86 4-10.76-.32zm-3.1 3.83-5.59 6.91-5.17-7.24zm-5.16-7.24 2.3 3.23-4.8-.14z"/><path d="m591.2 346.29 4.8.14 2.86 4.01-10.76-.33zm-3.11 3.82-5.59 6.91-5.17-7.24zm-5.16-7.24 2.31 3.24-4.82-.14z"/><path d="m580.42 345.97 4.82.14 2.85 4-10.76-.33zm-3.09 3.81-5.6 6.91-5.17-7.23v-.01zm-5.17-7.24 2.32 3.25-4.84-.15z"/><path d="m577.33 349.78-10.77-.33 3.08-3.81 4.84.15zm-10.77-.32-5.6 6.91-5.17-7.24 10.77.32z"/><path d="m566.56 349.45-10.77-.32 3.09-3.81 4.83.15z"/><path d="m561.39 342.22 2.32 3.25-4.83-.15zm-5.6 6.91-5.6 6.91-5.17-7.24zm-5.17-7.24 2.32 3.25-4.84-.14z"/><path d="m555.79 349.13-10.77-.33 3.08-3.8 4.84.14zm-10.77-.33-5.6 6.91-5.17-7.24zm-5.17-7.24 2.33 3.26-4.86-.14z"/><path d="m545.02 348.8-10.77-.33 3.07-3.79 4.86.14zm-10.77-.33-5.6 6.91-5.16-7.23z"/></g><path d="m530.47 198.17c7.34-.88 19.88 2.69 26.511 5.09 7.109 2.57 14.55 1.31 21.579 3.36 7.03 2.05 11.971 8.01 18.74 10.7 6.05 2.41 12.38 2.95 18.67 4.08 8.24 1.46 17.311 4.33 25.011 7.83l1.25.25-3.351 16.55-1.5 7.36-2.689-.55c-2.631-.73-4.851-1.87-7.271-3.11-5.2-2.67-10.95-3.94-16.52-5.87-11.4-3.92-17.82-14.54-28.79-18.81-8.19-3.2-17.74-4.21-26.33-5.91-7.75-1.52-13.49-3.83-19.58-9.6-4.84-4.58-13.79-10.4-5.73-11.37z" fill="#fff5b4"/><path d="m529.08 341.24 2.33 3.26-4.85-.15zm-2.52 3.11 4.85.15 2.84 3.97-10.76-.32zm-3.08 3.8-5.6 6.91-5.16-7.24z" fill="#211d1e"/><path d="m586.8 142.91c-13.31-5.53-49.62-12.08-65.939-23.59l-.25-.78 5.989-1.94 160 48.33-1.609 5.33-8.24 6.33c-7.98-3.88-19.08-6.9-27.47-9.82-7.57-2.64-15.12-5.74-22.49-8.86-13.111-5.57-26.861-9.53-39.991-15z" fill="#faa41a"/><path d="m518.31 340.91 2.33 3.27-4.86-.15z" fill="#211d1e"/><path d="m523.48 348.15-10.76-.33 3.06-3.79 4.86.15z" fill="#211d1e"/><path d="m511.42 666.72c-8.8-.96-10.82-21.67-15.06-28.27-6.65 1.38-3.24 11.069-8.15 11.069-4.26-4.239-5.69-15.96-5.69-28.21 0-13.56 1.75-27.779 3.351-33.29l34.939-14.75 1.36 4.711c8.85 28.199 10.521 62.96 7.43 73.96-1.81 6.52-10.23 15.71-18.18 14.78z" fill="#ffeec8"/><path d="m512.71 347.82-5.59 6.91-5.17-7.24zm-5.16-7.24 2.33 3.27-4.87-.14z" fill="#211d1e"/><path d="m512.71 347.82-10.76-.33 3.06-3.78 4.87.14zm-10.76-.33-5.6 6.91-5.17-7.23zm-5.17-7.23 2.34 3.27-4.87-.14z" fill="#211d1e"/><path d="m499.12 343.53 2.83 3.96-10.77-.32 3.07-3.78zm-7.94 3.64-5.6 6.91-5.17-7.24zm-7.17-4.77 2-2.47 2.34 3.28-4.34-.13z" fill="#211d1e"/><path d="m490.27 462.66c7.841 31.76 25.5 93.189 30.54 110.609l-34.939 14.75c.11-.359.22-.689.32-.97l-69.53-152.18 7.43 143.24-3.03.159h-207l-3.71-.02c1.58-64.06 5.3-144.21 5.3-144.21l-68.12 149.09-35.4-12.939c5.76-19.94 22.36-77.851 29.91-108.37 13.37-54.01 57.55-143.13 57.55-143.13 11.25-11.25 32.93-24.48 51.78-34.9 4.42-2.44 8.69-4.73 12.63-6.81l4.87.12c7.35 17.9 26.06 30.62 47.98 30.62 21.95 0 40.68-12.76 48.01-30.7l1.57-2.34c5.01 2.8 10.93 6.18 17.22 9.93 17.49 10.42 37.79 23.66 49.041 34.91-.002.001 44.208 89.121 57.578 143.141z" fill="#bd2025"/><path d="m480.41 346.84 3.6-4.44v.68l4.34.13 2.83 3.96z" fill="#211d1e"/><path d="m491.42 210.57c14.88 2.36 34.69 15.93 48.75 20.35 18.05 5.66 28.4 9.75 42.9 16.24 7.43 3.34 14.72 7.27 22.069 10.81 7.811 3.77 18.62 8.29 26.73 12.33l-2.07 8-164.51-69.55c7.841 1.09 17.491.45 26.131 1.82z" fill="#faa41a"/><path d="m461.92 137.5 2.8-.9 183.511 63.31-1.9 9.36-1.54-.31c-17.31-5.4-34.771-11.47-51.5-18.43-7.07-2.94-13.98-6.67-21.48-8.61-6.22-1.62-12.81-1.68-19.069-2.98-17.62-3.67-34.71-8.06-51.46-14.92-8.431-3.45-16.61-7.45-24.33-12.33-4.04-2.56-12.54-8.14-15.19-11.27h-.01zm41.85 68.62c15.131 5.41 29.471 13.04 44.61 18.51 13.2 4.76 25.55 10.91 38.18 17.14 7.7 3.8 15.421 7.46 23.221 11.05 7.76 3.55 15.35 5.73 23.47 8.22l2.48.5-1.971 9.72c-.609-.32-1.24-.64-1.89-.96-8.11-4.04-18.92-8.56-26.73-12.33-7.35-3.54-14.64-7.47-22.069-10.81-14.5-6.49-24.851-10.58-42.9-16.24-14.06-4.42-33.87-17.99-48.75-20.35-8.64-1.37-18.29-.73-26.13-1.82l-7.271-3.07.391-6.87.63.04c1.59.86 5.91 1.28 8.43 1.62 12.519 1.69 24.089 1.28 36.299 5.65z" fill="#f6cc4b"/><path d="m462.18 182.34c.061-1.74-1.81-7.24.2-6.49 1.04.38 2.16 3.96 7.98 5.48 1.739.46 5.689 2.93 4.68 5.26-.57 1.29-3.1 1.15-4.32 1.34-8.739 1.38-12.189-.19-9.029-.93 1.209-.28.439-3.35.489-4.66z" fill="#fff5b4"/><path d="m501.28 164.02c16.75 6.86 33.84 11.25 51.46 14.92 6.26 1.3 12.85 1.36 19.069 2.98 7.5 1.94 14.41 5.67 21.48 8.61 16.729 6.96 34.19 13.03 51.5 18.43l1.54.31-1.44 7.11a41.776 41.776 0 0 0 -.989 3.91l-.82-.18c-17.32-5.4-34.78-11.47-51.51-18.43-7.07-2.94-13.98-6.67-21.471-8.61-6.229-1.62-12.81-1.68-19.08-2.98-17.63-3.67-34.699-8.06-51.449-14.91-8.44-3.46-16.62-7.46-24.34-12.35-4.04-2.55-10.591-6.19-13.25-9.32l-.971-.06.74-13.03h.01c2.65 3.13 11.15 8.71 15.19 11.27 7.721 4.88 15.901 8.88 24.331 12.33z" fill="#f6cc4b"/><path d="m461.69 187c-3.16.74.29 2.31 9.029.93 1.221-.19 3.75-.05 4.32-1.34 1.01-2.33-2.94-4.8-4.68-5.26-5.82-1.52-6.94-5.1-7.98-5.48-2.01-.75-.14 4.75-.2 6.49-.049 1.31.721 4.38-.489 4.66zm-1.36-21.67c4.85 6.31 14.02 12.43 20.85 16.03 2.75 1.44 16.84 6.81 15.511 10.22-.971 2.46-14.87 1.79-17.61 2.07-6.771.69-13.76 1.16-20.34-.57z" fill="#fff5b4"/><path d="m326.05 152.05c-12.7 8.9-42.39 23.06-47.85 27.07-3.74 2.75-6.71 6.64-8.65 11.01-1.73 3.91-2.64 8.19-2.54 12.38.21 8.3 2.97 11.28 2.97 23.77 0 6.28 2.83 12.99 6.17 18.74l-23.69 12.46c4.33-8.65 2.82-19.35 2.82-19.35-.16-16.45-2.17-34.4-2.45-38.29-1.16-16.13 4.83-40.63 13.52-54.79 14.64-23.86 38.5-34.13 75.25-29.85 27.3 3.18 52.24 33.04 52.24 70.88 0 13.26-5.89 27.91.74 41.14l-26.89 16.55c1.52-2.1 2.62-4.4 2.99-7.02.24-1.75 8.18-30.35-3.48-42.01-12.5-12.49-35.61-37-40.22-41.9-.53-.57-.82-.87-.82-.87z" fill="#9c5c25"/><path d="m332.48 199.14c0-.75.55-1.35 1.24-1.35s1.24.6 1.24 1.35c0 .74-.55 1.35-1.24 1.35s-1.24-.61-1.24-1.35z" fill="#231f20"/><path d="m332.48 199.14c0 .74.55 1.35 1.24 1.35s1.24-.61 1.24-1.35c0-.75-.55-1.35-1.24-1.35s-1.24.6-1.24 1.35zm4.69 0c0 1.68-1.54 3.03-3.45 3.03s-3.46-1.35-3.46-3.03 1.55-3.05 3.46-3.05 3.45 1.37 3.45 3.05z" fill="#231f20"/><path d="m337.17 199.14c0-1.68-1.54-3.05-3.45-3.05s-3.46 1.37-3.46 3.05 1.55 3.03 3.46 3.03 3.45-1.35 3.45-3.03zm2.17-.21c0 2.99-2.54 5.42-5.68 5.42-3.13 0-5.67-2.43-5.67-5.42 0-.83-.23-.76.13-1.46l-.28-.45c1.83-1.15 3.97-1.83 6.07-1.88 1.82-.04 3.53.34 5.12 1.01v.01l-.2.49c.61.87.51 1.15.51 2.28z" fill="#fff"/><path d="m274.36 201.9c2.23 2.07 4.82 3.91 7.79 4.98 1.81.64 4.3.76 6.18.36.8-.16 1.79-.36 2.53-.7.63-.28 1.15-.95 1.74-1.23.86-.4 1.84-.05 2.65-.55.95-.58.23-1.25-.32-2.21-.89-1.59-2.27-2.94-3.88-3.95-1.84-1.14-3.98-1.82-6.08-1.87-1.82-.04-3.53.33-5.12 1.01-2.1.9-3.99 2.34-5.61 4.05zm56.6 39.09c-3.3.33-15.72-2.53-17.5 1.96-1.11.48-2.93-.72-4.17-1-2.31-.54-5.01-.03-7.27.63-3.62 1.05-3.81 2.48-2.66 3.98 1.18 1.56 3.79 3.2 5.46 4.59 4.5 3.72 10.38 4.2 15.85 1.78 4.05-1.78 6.43-5.7 8.7-9.41.53-.86 1.05-1.72 1.59-2.53zm-52.76-61.87c5.46-4.01 35.15-18.17 47.85-27.07.19.41.5.67.93.79 4.61 4.9 27.72 29.41 40.22 41.9 11.66 11.66 3.72 40.26 3.48 42.01-.37 2.62-1.47 4.92-2.99 7.02-2.27 3.15-5.47 5.83-8.5 8.46-3.74 3.24-6.78 7.5-9.99 11.49-4.51 5.59-9.34 10.64-16.86 11.56-9.69 1.18-21.89 4.71-30.21-2.33-4.24-3.58-9.36-6.94-13.4-10.99-.91-.9-1.76-1.83-2.54-2.81-1.45-1.83-6.1-7.31-10.04-14.13-3.34-5.75-6.17-12.46-6.17-18.74 0-12.49-2.76-15.47-2.97-23.77-.1-4.19.81-8.47 2.54-12.38 1.94-4.37 4.91-8.26 8.65-11.01zm45.43 24.05c.81.51 1.78.15 2.65.56.59.26 1.11.93 1.74 1.22.74.34 1.72.54 2.52.71 1.9.39 4.38.27 6.18-.37 2.98-1.06 5.56-2.91 7.8-4.98l.12-.11c-1.62-1.71-3.5-3.15-5.61-4.04v-.01c-1.59-.67-3.3-1.05-5.12-1.01-2.1.05-4.24.73-6.07 1.88-1.63.99-3 2.35-3.9 3.94-.54.96-1.26 1.63-.31 2.21z" fill="#ffeec8"/><path d="m313.46 242.95c1.78-4.49 14.2-1.63 17.5-1.96-.54.81-1.06 1.67-1.59 2.53-6.34 2.86-10.01 2.9-14.5 3.25-4.46.35-11.06 1.1-15.51-.21-1.15-1.5-.96-2.93 2.66-3.98 2.26-.66 4.96-1.17 7.27-.63 1.24.28 3.06 1.48 4.17 1z" fill="#ef947d"/><path d="m314.87 246.77c4.49-.35 8.16-.39 14.5-3.25-2.27 3.71-4.65 7.63-8.7 9.41-5.47 2.42-11.35 1.94-15.85-1.78-1.67-1.39-4.28-3.03-5.46-4.59 4.45 1.31 11.05.56 15.51.21z" fill="#ef947d"/><path d="m285.16 202.07c-.69 0-1.24-.6-1.24-1.35 0-.74.55-1.35 1.24-1.35s1.24.61 1.24 1.35c0 .75-.55 1.35-1.24 1.35z" fill="#231f20"/><path d="m285.16 199.37c-.69 0-1.24.61-1.24 1.35 0 .75.55 1.35 1.24 1.35s1.24-.6 1.24-1.35c0-.74-.55-1.35-1.24-1.35zm-3.46 1.35c0-1.67 1.55-3.04 3.46-3.04s3.45 1.37 3.45 3.04c0 1.69-1.54 3.04-3.45 3.04s-3.46-1.35-3.46-3.04z" fill="#231f20"/><path d="m353.74 267.76c2.53 1.34 7.02 3.76 12.69 6.92l-1.57 2.34c-7.33 17.94-26.06 30.7-48.01 30.7-21.92 0-40.63-12.72-47.98-30.62l-4.87-.12c3.15-1.66 6.09-3.18 8.74-4.53l-.39-.66 16.38-9.83c4.04 4.05 9.16 7.41 13.4 10.99 8.32 7.04 20.52 3.51 30.21 2.33 7.52-.92 12.35-5.97 16.86-11.56l5.2 2.81z" fill="#ffeec8"/><path d="m281.7 200.72c0 1.69 1.55 3.04 3.46 3.04s3.45-1.35 3.45-3.04c0-1.67-1.54-3.04-3.45-3.04s-3.46 1.37-3.46 3.04zm-1.85-2.98c1.59-.68 3.3-1.05 5.12-1.01 2.1.05 4.24.73 6.08 1.87l-.29.46c.35.7.12.62.12 1.46 0 2.99-2.53 5.42-5.66 5.42-3.14 0-5.68-2.43-5.68-5.42 0-1.13-.11-1.41.5-2.28z" fill="#fff"/><path d="m146.12 586.21c1.68 4.6 3.66 19.8 3.66 34.25 0 12.26-1.43 23.99-5.69 28.24-4.88 0-1.5-9.72-8.17-11.07-4.23 6.59-6.25 27.3-15.04 28.26-7.92.94-16.36-8.279-18.18-14.76-3.09-11.03-1.43-45.77 7.42-73.99 0 0 .74-2.55 2.01-6.949l35.4 12.939z" fill="#ffeec8"/><g fill="none"><g stroke="#231f20"><path d="m110.12 577.14s.74-2.55 2.01-6.949c5.76-19.94 22.36-77.851 29.91-108.37 13.37-54.01 57.55-143.13 57.55-143.13 11.25-11.25 32.93-24.48 51.78-34.9 4.42-2.44 8.69-4.73 12.63-6.81 3.15-1.66 6.09-3.18 8.74-4.53 8.17-4.16 13.53-6.7 13.53-6.7" stroke-width="14"/><path d="m214.37 787.31c-2.74-42.54-4.7-145.39-4.7-162.97 0-12.99.27-28.96.68-46.09 1.58-64.06 5.3-144.21 5.3-144.21l-68.12 149.09-1.41 3.08c1.68 4.6 3.66 19.8 3.66 34.25 0 12.26-1.43 23.99-5.69 28.24-4.88 0-1.5-9.72-8.17-11.07-4.23 6.59-6.25 27.3-15.04 28.26-7.92.94-16.36-8.279-18.18-14.76-3.09-11.03-1.43-45.77 7.42-73.99m412.05.84-1.36-4.711c-5.04-17.42-22.699-78.85-30.54-110.609-13.37-54.02-57.58-143.14-57.58-143.14-11.25-11.25-31.55-24.49-49.041-34.91a715.05 715.05 0 0 0 -17.22-9.93c-5.67-3.16-10.16-5.58-12.69-6.92-1.46-.77-2.27-1.19-2.27-1.19m73.131 321.37-.22-4.171-.29-5.659-7.43-143.24 69.53 152.18c-.101.28-.21.61-.32.97-1.601 5.511-3.351 19.73-3.351 33.29 0 12.25 1.431 23.971 5.69 28.21 4.91 0 1.5-9.689 8.15-11.069 4.239 6.6 6.26 27.31 15.06 28.27 7.95.931 16.37-8.26 18.18-14.779 3.091-11 1.42-45.761-7.43-73.96" stroke-width="14"/><path d="m421.3 791.21c.02-.35.05-.71.07-1.07 2.63-42.29 4.49-147.909 4.49-165.02 0-15.4-.47-29.25-1.19-41.36m-90.31 208.98-8.03-142.49-16.62-.08-8.53 137.82-.29 4.75m-86.83-214.47h207m-308.93-8.08 35.4 12.94 1.98.73m372.66-11.16-1.36.57-34.94 14.75-1.12.47" stroke-width="14"/><path d="m364.86 277.02c-7.33 17.94-26.06 30.7-48.01 30.7-21.92 0-40.63-12.72-47.98-30.62" stroke-width="18.188"/><path d="m667.77 183.48-2.64 2.03-10.17 7.81-6.39 4.91-.34 1.68-1.9 9.36-1.44 7.11-1.72 8.48-.94 4.62-3.35 16.55-1.5 7.36-1.65 8.15-1.97 9.72 16.22-16.59 8.25-8.43 13.72-14.03 2.54-12.09.33-1.58 5-23.71 5.17-24.57-8.24 6.33-8.89 6.82z" stroke-width="6.063"/><path d="m664.44 221.4c-1.311 4.15-3.801 7.08-5.58 6.52-1.771-.56-2.15-4.38-.851-8.54 1.311-4.15 3.811-7.07 5.58-6.51 1.771.55 2.151 4.37.851 8.53z" stroke-width="6.063"/><path d="m669.54 223.41c-2.96 9.41-9.53 15.72-14.69 14.1-5.159-1.62-6.949-10.56-4-19.97 2.95-9.4 9.53-15.71 14.681-14.09 5.159 1.62 6.949 10.55 4.009 19.96z" stroke-width="6.063"/><path d="m658.25 246.23c-.01 0-.01.01-.02.01-2.33.96-4.681 1.19-6.851.5-6.32-1.98-9.399-10.99-8.21-21.88.15-1.49.4-3.02.73-4.57.26-1.29.59-2.6.989-3.91.07-.28.16-.57.25-.85 4.61-14.71 14.891-24.58 22.96-22.04 6.94 2.18 8.29 12.59 5.9 24.88-.11.52-.22 1.05-.33 1.58m-5.178-35.72c.76.08 1.5.23 2.22.45 4.53 1.43 7.35 4.3 9.1 10.15m-29.44 59.86c-.13 0-.26-.01-.39-.02a10.62 10.62 0 0 1 -2.79-.5c-3.631-1.13-6.44-4.03-8.311-8.14-.16-.35-.31-.7-.46-1.07" stroke-width="6.063"/><path d="m688.95 165.64-2.35-.71-160-48.33-5.99 1.94-19.71 6.37-17.82 5.75-18.36 5.94-2.8.9-.17 2.92-.74 13.03-.68 11.88-1.59 27.75-.33 5.73-.39 6.87 7.27 3.07 164.51 69.55m18.43-78.39-183.51-63.31" stroke-width="6.063"/><path d="m640.98 229.23c-7.7-3.5-16.771-6.37-25.011-7.83-6.29-1.13-12.62-1.67-18.67-4.08-6.77-2.69-11.71-8.65-18.74-10.7-7.029-2.05-14.47-.79-21.579-3.36-6.631-2.4-19.171-5.97-26.511-5.09-8.06.97.891 6.79 5.73 11.37 6.09 5.77 11.83 8.08 19.58 9.6 8.59 1.7 18.14 2.71 26.33 5.91 10.97 4.27 17.39 14.89 28.79 18.81 5.569 1.93 11.319 3.2 16.52 5.87 2.42 1.24 4.64 2.38 7.271 3.11m-175.02-88.4c.21.3.43.59.66.89 4.85 6.31 14.02 12.43 20.85 16.03 2.75 1.44 16.84 6.81 15.511 10.22-.971 2.46-14.87 1.79-17.61 2.07-6.771.69-13.76 1.16-20.34-.57-.391-.1-.78-.21-1.17-.33m175.679 68.29c-8.12-2.49-15.71-4.67-23.47-8.22-7.8-3.59-15.521-7.25-23.221-11.05-12.63-6.23-24.979-12.38-38.18-17.14-15.14-5.47-29.479-13.1-44.61-18.51-12.21-4.37-23.779-3.96-36.3-5.65-2.52-.34-6.84-.76-8.43-1.62" stroke-width="6.063"/><path d="m633.76 271.26c-.609-.32-1.24-.64-1.89-.96-8.11-4.04-18.92-8.56-26.73-12.33-7.35-3.54-14.64-7.47-22.069-10.81-14.5-6.49-24.851-10.58-42.9-16.24-14.06-4.42-33.87-17.99-48.75-20.35-8.64-1.37-18.29-.73-26.13-1.82m177.789 11.36c-17.32-5.4-34.78-11.47-51.51-18.43-7.07-2.94-13.98-6.67-21.471-8.61-6.229-1.62-12.81-1.68-19.08-2.98-17.63-3.67-34.699-8.06-51.449-14.91-8.44-3.46-16.62-7.46-24.34-12.35-4.04-2.55-10.591-6.19-13.25-9.32m182.81 55.45c-17.31-5.4-34.771-11.47-51.5-18.43-7.07-2.94-13.98-6.67-21.48-8.61-6.22-1.62-12.81-1.68-19.069-2.98-17.62-3.67-34.71-8.06-51.46-14.92-8.431-3.45-16.61-7.45-24.33-12.33-4.04-2.56-12.54-8.14-15.19-11.27m192.869 52.47c-11.43-6.75-24.84-9.66-37.2-14.39-14.79-5.67-29.729-10.73-44.59-16.25-16.5-6.13-36.85-11.82-53.07-18.7-7.409-3.16-28.819-10.42-36.689-12.89m181.049 53.55c-5.87-4.42-13.939-5.69-20.66-8.44-6.569-2.69-13.109-5.77-19.399-9.02-5.95-3.08-11.9-6.38-18.21-8.74-7.21-2.71-14.86-3.87-22.12-6.25-15.42-5.05-78.54-25.65-82.84-26.85m175.849 51.68c-7.98-3.88-19.08-6.9-27.47-9.82-7.57-2.64-15.12-5.74-22.49-8.86-13.11-5.57-26.86-9.53-39.99-15-13.31-5.53-49.62-12.08-65.939-23.59m-50.501 62.01c-5.82-1.52-6.94-5.1-7.98-5.48-2.01-.75-.14 4.75-.2 6.49-.05 1.31.721 4.38-.489 4.66-3.16.74.29 2.31 9.029.93 1.221-.19 3.75-.05 4.32-1.34 1.01-2.33-2.94-4.8-4.68-5.26z" stroke-width="6.063"/><path d="m656.61 292.74 65.09-13.26s5.53.22 3.7 5.11c-1.83 4.88-1.931 10.3 2.119 14.34 0 0 8.391 7.83 10.391 17.09 2.45 11.29 4.78 11.68 7.79 14.49 5.2 4.87 5.88 11.4-3.51 13.59-13.131 3.05-38.86 5.55-38.86 5.55-5.09.04-8.55-.26-8.55-.26l-2.7-1.82-25.98-17.51-8.75-37.44-.74.12-172.6 27.96v22.38l4.34.13 5.9.18 4.87.14 5.89.18 4.87.14 5.9.18 4.859.15 5.92.17 4.851.15 5.91.18 4.859.14 5.92.18 4.841.14 5.939.18 4.83.15 5.93.17 4.841.15 5.939.18 4.82.14 5.96.18 4.8.14 5.96.18 4.81.15 5.971.17 4.79.15 5.979.18 4.79.14 5.98.18 4.79.14 5.979.18 4.79.14 5.99.18 4.77.15 6 .18 4.761.14 6.01.18 4.76.14 12.65.38" stroke-width="14"/><path d="m690.16 303.95s5.74 15.09 8.96 19.92c4.1 6.15 12.64 15.64 18.939 13.44 6.29-2.18 5.87-7.79-1.369-15.04-7.25-7.25-7.391-10.03-9.58-15.22-2.19-5.2-4.92-11.86-10.391-11.86-5.469 0-8.199 4.38-6.559 8.76z" stroke-width="7"/><path d="m318.97 191.94c4.79-7.99 16.46-9.27 23.14-6.66 3.58 1.39 5.76 3.05 6.7 3.99m-55.01-.28c-6.36-5.67-18.75-4.8-24.25 1.14-.29.3-.56.62-.8.95" stroke-width="5.927"/><path d="m301.71 193.67c6.97 5.21 3.28 22.85 1.53 28.12-.56 1.67-2.96 4.64-1.27 6.39.82.84 1.87.38 2.9.55 1.05.16 1.68.26 2.91.72 2.35.88 4.07 1.41 6.19-.14 2.3-1.67 2.13-2.84 5.52-2.68 2.86.14 6.02.94 5.88-3.46-.1-3.02-2.37-2.98-4-5.12" stroke-width="7"/><path d="m313.26 243.73c.03-.28.1-.54.2-.78 1.78-4.49 14.2-1.63 17.5-1.96-.54.81-1.06 1.67-1.59 2.53-2.27 3.71-4.65 7.63-8.7 9.41-5.47 2.42-11.35 1.94-15.85-1.78-1.67-1.39-4.28-3.03-5.46-4.59-1.15-1.5-.96-2.93 2.66-3.98 2.26-.66 4.96-1.17 7.27-.63 1.24.28 3.06 1.48 4.17 1 .18-.07.34-.19.48-.37" stroke-width="4"/><path d="m299.36 246.56c4.45 1.31 11.05.56 15.51.21 4.49-.35 8.16-.39 14.5-3.25" stroke-width="4"/><path d="m326.98 152.84c4.61 4.9 27.72 29.41 40.22 41.9 11.66 11.66 3.72 40.26 3.48 42.01-.37 2.62-1.47 4.92-2.99 7.02-2.27 3.15-5.47 5.83-8.5 8.46-3.74 3.24-6.78 7.5-9.99 11.49-4.51 5.59-9.34 10.64-16.86 11.56-9.69 1.18-21.89 4.71-30.21-2.33-4.24-3.58-9.36-6.94-13.4-10.99-.91-.9-1.76-1.83-2.54-2.81-1.45-1.83-6.1-7.31-10.04-14.13-3.34-5.75-6.17-12.46-6.17-18.74 0-12.49-2.76-15.47-2.97-23.77-.1-4.19.81-8.47 2.54-12.38 1.94-4.37 4.91-8.26 8.65-11.01 5.46-4.01 35.15-18.17 47.85-27.07l.11-.08s.29.3.82.87z" stroke-width="14"/><path d="m276.16 245.02h-.01l-23.69 12.46c4.33-8.65 2.82-19.35 2.82-19.35-.16-16.45-2.17-34.4-2.45-38.29-1.16-16.13 4.83-40.63 13.52-54.79 14.64-23.86 38.5-34.13 75.25-29.85 27.3 3.18 52.24 33.04 52.24 70.88 0 13.26-5.89 27.91.74 41.14l-26.89 16.55-.04.03" stroke-width="14"/><path d="m273.2 202.96c.33-.4.68-.79 1.04-1.17 1.62-1.71 3.51-3.15 5.61-4.05 1.59-.68 3.3-1.05 5.12-1.01 2.1.05 4.24.73 6.08 1.87 1.61 1.01 2.99 2.36 3.88 3.95.55.96 1.27 1.63.32 2.21-.81.5-1.79.15-2.65.55-.59.28-1.11.95-1.74 1.23-.74.34-1.73.54-2.53.7-1.88.4-4.37.28-6.18-.36-2.97-1.07-5.56-2.91-7.79-4.98" stroke-linecap="square" stroke-miterlimit="10" stroke-width="2.964"/><path d="m290.76 199.06c.35.7.12.62.12 1.46 0 2.99-2.53 5.42-5.66 5.42-3.14 0-5.68-2.43-5.68-5.42 0-1.13-.11-1.41.5-2.28m65.64 3.13c-.33-.4-.68-.79-1.04-1.17-1.62-1.71-3.5-3.15-5.61-4.04v-.01c-1.59-.67-3.3-1.05-5.12-1.01-2.1.05-4.24.73-6.07 1.88-1.63.99-3 2.35-3.9 3.94-.54.96-1.26 1.63-.31 2.21.81.51 1.78.15 2.65.56.59.26 1.11.93 1.74 1.22.74.34 1.72.54 2.52.71 1.9.39 4.38.27 6.18-.37 2.98-1.06 5.56-2.91 7.8-4.98" stroke-linecap="square" stroke-miterlimit="10" stroke-width="2.964"/><path d="m328.12 197.47c-.36.7-.13.63-.13 1.46 0 2.99 2.54 5.42 5.67 5.42 3.14 0 5.68-2.43 5.68-5.42 0-1.13.1-1.41-.51-2.28" stroke-linecap="square" stroke-miterlimit="10" stroke-width="2.964"/><path d="m327.65 152.92c-.25 0-.47-.02-.67-.08a1.39 1.39 0 0 1 -.93-.79c-.03-.05-.05-.1-.07-.15 3.91-3.81 5.82-9.84 7-14.96" stroke-width="14"/></g><path d="m633.33 264.67-1.46 5.63-2.07 8" stroke="#fff"/></g><path d="m0 0h850.394v850.394h-850.394z" fill="none"/></svg>