<svg height="850" viewBox="0 0 850 850" width="850" xmlns="http://www.w3.org/2000/svg"><path d="m580.8 734.8-3.5-3-5-3-6-3.8-7.3-4-4.7-3-3.8-2.2-3-2.3-2.2-2-1.5-1.7-.8-1.8-.2-1.5.2-1.2 1-1.5 1.3-1.5 3.5-3 4.5-3.8 2.5-2.2 2.5-2.5 2.5.7 107.7-33.7 7.8 38.5 1.7 5.2-96 32.5z" fill="#fff5b4"/><path d="m559 721 7.3 4 6 3.8 5 3 3.5 3 2.2 2.2 1.5 2.3.5 1.2.3 1v2.3l-.5 2.5-1 2.7-1.8 3-2.2 3.3-2.3 2.7-2.5 2.3-2.7 2-3.3 1.7-3.7 1.5-3.8 1-4.2.8-4.3.5-4.5.2-4.5-.2-5-.8-4.7-.7-5-1.5-5-1.5-5-2-5-2.5-5.3-3-5.7-3.5-10.8-6.8-11.2-7.7-11-8-10.3-7.5-16.2-12.5-6.3-5-2-.8 20.3-47.2 2.2 1 5.3 4.2 5.7 4.5 7 5 4 2.5 4 2.3 4.3 2.2 4.2 1.8 4.3 1.5 4 1 4 .5h2l1.7-.3 8.3-1.5 7.5-1.7 6.7-2 6-2.3 5.3-2.2 4.5-2.5 4-2.3 3.5-2 4.2-2.5 3-1.7 1-.3 1 .3 1 .5 1 .7.8 1.3.7 1.2.5 1.8.3 1.7v2.3l-.3 2.2-.5 2.5-1 2.5-1 2.5-1.5 2.8-2 2.7-2.5 3-.7.8-2.5 2.5-2.5 2.2-4.5 3.8-3.5 3-1.3 1.5-1 1.5-.2 1.2.2 1.5.8 1.8 1.5 1.7 2.2 2 3 2.3 3.8 2.2z" fill="#ffeec8"/><path d="m663.5 620.5 1.3 4-95.3 28.5-5 1.5-2 .5-2 .3h-4l-3.7-.8-3.5-1-9-33.7 1.7-2 1.8-1.8 2-1.5 2.2-1.2 107.8-32.3zm-128-74.5 124.5-38 8 40.3 1 3.2-128 38.3-2.5-.3-2.2-.2-2.3-.8-2.2-.7-8.5-33 2.2-2.8 3-2.5 3.3-2 1.7-.7zm102.8-62.2 1 3.2-111.3 33.5-.2-.2-3.5.5-3.8.2-3.2-.5-3.5-.7-9.3-35.5 1.8-1.8 1.7-1.5 122.3-37.5v.3zm-4.5-68.3 1 3.5-121.8 36.3-2.2.2h-2.5l-2.3-.5-2.2-.5-2.3-.5-2-1-2-1-1.7-1.2-6.8-25.5 1.5-3 1.8-2.5 2.2-2.5 2.5-2 128.8-39.8z" fill="#fff5b4"/><path d="m531.8 587.8 1.2 4-124.7 25.2-1.3 1.8-11.5-6.5 1-1.8-1.5-5.7-1-5-.2-4.5.2-4 .8-3.5.7-3 1.3-2.5 1.5-2.3 1.5-2 1.7-1.5 1.5-1.2 1.5-1 2.3-1 .7-.5 114.3-23.5 1.5 5.5-1.5 2-1 2.2-1 2-.5 2.3-.5 2.5v4.7l.5 2.5.7 2.3 1 2.5 1.3 2 1.5 2 1.7 1.7 2 1.8 2 1.2z" fill="#ed1e29"/><path d="m552 664 2.3 2.5-3.5 2-4 2.3-4.5 2.5-5.3 2.2-6 2.3-6.7 2-7.5 1.7-8.3 1.5-1.7.3h-2l-4-.5-4-1-4.3-1.5-4.2-1.8-4.3-2.2-4-2.3-4-2.5-7-5-5.7-4.5-5.3-4.2-2.2-1 3.5-8.3-17-9.5 1.5-2.5 82-16.5 13.5-4.2 1 4-1.5 2-1.3 2-1 2.2-.5 2.5-.5 2.3-.2 2.5.2 2.5.3 2.5 1 2.7 1 2.3 1.2 2.2 1.8 2 1.7 1.8 2 1.7 2.3 1.3 2.5 1.2zm-37-139.7.3 1-145.5 29.2-1.5-3.5-1.3-3.5-1-3-.7-3-.5-3-.5-2.5-.3-2.5v-2.5l.3-4.2.7-3.8 1-3.2 1.5-2.8 1.5-2.2 1.8-1.8 1.7-1.5 1.8-1.2 2.5-1.3 1-.5 122.7-25.2 3.5-1 .5 2-1.7 2-1.3 2.2-1.2 2.5-1 2.5-.5 2.5-.3 2.8.3 2.5.5 2.7.7 2.8 1.3 2.5 1.5 2.5 1.7 2 2 2 2.3 1.5 2.5 1.2 2.5 1.3zm-19.2-73.5 2.2 8.7-133 26.8-1.2-3.5-1.3-3.5-1-3-.7-3-.8-3-.2-2.5-.3-2.5-.2-2.5.2-4.3.8-3.7 1.2-3.3 1.5-2.7 1.5-2.3 1.8-1.7 1.7-1.5 1.5-1.3 2.5-1.2 1.3-.5 108.2-22.3 5.3-1 2.2 8.3-1.2 3-.5 3.5v3.2l.5 3.5.5 2 .5 1.8 1 1.5 1 1.7 1 1.3 1.2 1.5 1.3 1.2z" fill="#58b947"/><path d="m392.8 305-.8 1-6.2 5-6.3 4.3-6 3.7-6 3-6 2.8-5.7 2.2-5.8 1.8-5.5 1.2-5.5.8-5.2.5-5.3.2h-5l-4.7-.5-4.8-.5-4.5-1-4.2-1-4.3-1.2-3.7-1.3-3.8-1.5-3.5-1.5-6.5-3-5.2-3.2-4.3-2.8-3.5-2.2-2-1.3-1-.5 1.5-2.7 1-3 .8-3.3.7-3.2.5-3.5.3-3.5v-6.8l-.3-6-.5-4.7-.5-4.5.8-1 3.5 3 3.5 2.7 3.7 2.5 3.8 2.3 3.7 2.2 4 1.8 4 1.7 4 1.3 4 1.2 4 .8 4.3.7 4 .3 4.2.2 4.3-.2 4.2-.5 4-.8 4.8-1.2 4.7-1.5 4.5-2 4.3-2.3 4.2-2.5 4-2.7 3.8-3.3 3.5-3.5 2 .8.7 2.7.8 3.3 1 4 1.7 4.7 2.3 5 1.5 2.5 1.5 2.5 1.7 2.3 2 2.5 1.8 1.7 2 1.8 2.2 1.7z" fill="#ffeec8"/><path d="m392 168.8 1.5 7.2.8 7.3.5 7.2.2 7.3-.2 7-.8 6.7-1 6.8-1.2 6.5-1.8 6.2-2.2 6.3-2.3 5.7-2.7 5.8-3 5.2-3.5 5-3.5 4.8-4 4.2-3.5 3.5-3.8 3.3-4 2.7-4.2 2.5-4.3 2.3-4.5 2-4.7 1.5-4.8 1.2-4 .8-4.2.5-4.3.2-4.2-.2-4-.3-4.3-.7-4-.8-4-1.2-4-1.3-4-1.7-4-1.8-3.7-2.2-3.8-2.3-3.7-2.5-3.5-2.7-3.5-3-3.3-3-3.2-3-3-3.3-2.8-3.5-3-3.7-2.5-3.8-2.7-4-2.3-4-2.2-4.2-2.3-4.3-2-4.5-1.7-4.7-1.8-4.8-1.5-4.7-1.5-5-1.2-5-1-5.3-.8-5.2-.5-5.3-.5-5.2v-10l.3-5 .5-5 .5-4.8.7-4.7 1-4.8 1.3-4.5 1.2-4.5 1.5-4.2 1.8-4.3 1.7-4 2-4 2.3-3.7 2.2-3.8 2.5-3.5 2.8-3.2 2.7-3.3 3-3 3-2.7 3-2.5 3.5-2.5 3.3-2 3.7-2 3.5-1.8 4-1.5 3.8-1.2 4-1 4.2-.8 4-.2 4-.3h4l4.3.3 4 .7 4 .8 3.7 1 4 1.2 4 1.5 3.8 1.8 3.7 2 3.8 2.2 3.5 2.5 3.5 2.5 3.5 2.8 3.2 3 3.3 3.2 3.2 3.3 3 3.5 3 3.7 2.8 3.8 2.7 4 2.5 4.2 2.3 4.3 2.2 4.5 2.3 4.5 1.7 4.7 1.8 5 1.7 5 1.3 5z" fill="#ffeec8"/><path d="m533 591.8 6.3 24-13.5 4.2-82 16.5-1.5 2.5-35.3-20.2 1.3-1.8zm-29.7 160.5-1.3 1.7-311.2 1.3-1-8.3-.5-9.2-.5-12v-21.8l.5-7.7.5-8 .7-8.3 1-8.2 1.5-8.3.5-4.2.5-4.8.5-5.2.3-5.5v-12.3l-.5-13-1-13.7-1.3-14.3-1.2-14.2-1.8-14-3.2-26.5-3.3-21.8-3.2-20.5 79 137.8 173.5 81.5 3.7-8.8 2 .8 6.3 5 16.2 12.5 10.3 7.5 11 8 11.2 7.7z" fill="#a8d7f4"/><path d="m395.5 612.3 11.5 6.5 35.3 20.2 17 9.5-3.5 8.3-20.3 47.2-3.7 8.8-173.5-81.5-79-137.8-19.5-34.2-1.8-10.3-.5-5.5-.5-6-.2-6-.3-6.2.3-6.5.5-6.5.7-6.8 1-6.5 1.5-6.7 2-6.8 2.3-6.7 2.7-6.5 3.3-6.5 3.7-6.5 2.3-3.3 2.5-3 2.7-2.7 3-2.5 3-2.5 3-2.5 3.3-2 3.5-2 3.5-2 3.5-1.8 7.2-3.2 7.5-2.8 7.3-2.5 14-4.2 6.2-1.8 6-2 5-2 4.3-2 1.7-1 1.5-1 1.3-1.2.7-1.3 1 .5 2 1.3 3.5 2.2 4.3 2.8 5.2 3.2 6.5 3 3.5 1.5 3.8 1.5 3.7 1.3 4.3 1.2 4.2 1 4.5 1 4.8.5 4.7.5h5l5.3-.2 5.2-.5 5.5-.8 5.5-1.2 5.8-1.8 5.7-2.2 6-2.8 6-3 6-3.7 6.3-4.3 6.2-5 .8-1 4.2 2.8 5 2.5 11 6 6 3.2 6 3.8 6.3 4.2 6 4.8 6.2 5.2 3 3 2.8 3 3 3.3 2.7 3.5 2.8 3.5 2.5 4 2.5 4 2.5 4.2 2.2 4.5 2 5 2 5 1.8 5.3 1.7 5.5 1.5 6 4.5 19 .5 1.7-108.2 22.3-1.3.5-2.5 1.2-1.5 1.3-1.7 1.5-1.8 1.7-1.5 2.3-1.5 2.7-1.2 3.3-.8 3.7-.2 4.3.2 2.5.3 2.5.2 2.5.8 3 .7 3 1 3 1.3 3.5 1.2 3.5 133-26.8 6 22.8-3.5 1-122.7 25.2-1 .5-2.5 1.3-1.8 1.2-1.7 1.5-1.8 1.8-1.5 2.2-1.5 2.8-1 3.2-.7 3.8-.3 4.2v2.5l.3 2.5.5 2.5.5 3 .7 3 1 3 1.3 3.5 1.5 3.5 145.5-29.2 6.5 24-114.3 23.5-.7.5-2.3 1-1.5 1-1.5 1.2-1.7 1.5-1.5 2-1.5 2.3-1.3 2.5-.7 3-.8 3.5-.2 4 .2 4.5 1 5 1.5 5.7z" fill="#a8d7f4"/><g fill="none" stroke="#231f20" stroke-linecap="round" stroke-miterlimit="10"><path d="m271.8 267.8-3.3-3-3.2-3-3-3.3-2.8-3.5-3-3.7-2.5-3.8-2.7-4-2.3-4-2.2-4.2-2.3-4.3-2-4.5-1.7-4.7-1.8-4.8-1.5-4.7-1.5-5-1.2-5-1-5.3-.8-5.2-.5-5.3-.5-5.2v-10l.3-5 .5-5 .5-4.8.7-4.7 1-4.8 1.3-4.5 1.2-4.5 1.5-4.2 1.8-4.3 1.7-4 2-4 2.3-3.7 2.2-3.8 2.5-3.5 2.8-3.2 2.7-3.3 3-3 3-2.7 3-2.5 3.5-2.5 3.3-2 3.7-2 3.5-1.8 4-1.5 3.8-1.2 4-1 4.2-.8 4-.2 4-.3h4l4.3.3 4 .7 4 .8 3.7 1 4 1.2 4 1.5 3.8 1.8 3.7 2 3.8 2.2 3.5 2.5 3.5 2.5 3.5 2.8 3.2 3 3.3 3.2 3.2 3.3 3 3.5 3 3.7 2.8 3.8 2.7 4 2.5 4.2 2.3 4.3 2.2 4.5 2.3 4.5 1.7 4.7 1.8 5 1.7 5 1.3 5 1.2 5.3 1.5 7.2.8 7.3.5 7.2.2 7.3-.2 7-.8 6.7-1 6.8-1.2 6.5-1.8 6.2-2.2 6.3-2.3 5.7-2.7 5.8-3 5.2-3.5 5-3.5 4.8-4 4.2-3.5 3.5-3.8 3.3-4 2.7-4.2 2.5-4.3 2.3-4.5 2-4.7 1.5-4.8 1.2-4 .8-4.2.5-4.3.2-4.2-.2-4-.3-4.3-.7-4-.8-4-1.2-4-1.3-4-1.7-4-1.8-3.7-2.2-3.8-2.3-3.7-2.5-3.5-2.7zm-4.3 42.2-.7 1.3-1.3 1.2-1.5 1-1.7 1-4.3 2-5 2-6 2-6.2 1.8-14 4.2-7.3 2.5-7.5 2.8-7.2 3.2-3.5 1.8-3.5 2-3.5 2-3.3 2-3 2.5-3 2.5-3 2.5-2.7 2.7-2.5 3-2.3 3.3-3.7 6.5-3.3 6.5-2.7 6.5-2.3 6.7-2 6.8-1.5 6.7-1 6.5-.7 6.8-.5 6.5-.3 6.5.3 6.2.2 6 .5 6 .5 5.5 1.8 10.3 19.5 34.2 79 137.8 173.5 81.5 3.7-8.8 20.3-47.2 3.5-8.3-17-9.5-35.3-20.2-11.5-6.5-83.2-47.5-51.5-102.3m10.2-193.7.5 4.5.5 4.7.3 6v6.8l-.3 3.5-.5 3.5-.7 3.2-.8 3.3-1 3-1.5 2.7m-88.2 183.5 3.2 20.5 3.3 21.8 3.2 26.5 1.8 14 1.2 14.2 1.3 14.3 1 13.7.5 13v12.3l-.3 5.5-.5 5.2-.5 4.8-.5 4.2-1.5 8.3-1 8.2-.7 8.3-.5 8-.5 7.7v21.8l.5 12 .5 9.2 1 8.3m180-486.5.7 2.7.8 3.3 1 4 1.7 4.7 2.3 5 1.5 2.5 1.5 2.5 1.7 2.3 2 2.5 1.8 1.7 2 1.8 2.2 1.7 2.8 1.5 4.2 2.8 5 2.5 11 6 6 3.2 6 3.8 6.3 4.2 6 4.8 6.2 5.2 3 3 2.8 3 3 3.3 2.7 3.5 2.8 3.5 2.5 4 2.5 4 2.5 4.2 2.2 4.5 2 5 2 5 1.8 5.3 1.7 5.5 1.5 6 4.5 19m-23 241.5 5.3 4.2 5.7 4.5 7 5 4 2.5 4 2.3 4.3 2.2 4.2 1.8 4.3 1.5 4 1 4 .5h2l1.7-.3 8.3-1.5 7.5-1.7 6.7-2 6-2.3 5.3-2.2 4.5-2.5 4-2.3 3.5-2 4.2-2.5 3-1.7 1-.3 1 .3 1 .5 1 .7.8 1.3.7 1.2.5 1.8.3 1.7v2.3l-.3 2.2-.5 2.5-1 2.5-1 2.5-1.5 2.8-2 2.7-2.5 3-.7.8-2.5 2.5-2.5 2.2-4.5 3.8-3.5 3-1.3 1.5-1 1.5-.2 1.2.2 1.5.8 1.8 1.5 1.7 2.2 2 3 2.3 3.8 2.2 4.7 3 7.3 4 6 3.8 5 3 3.5 3 2.2 2.2 1.5 2.3.5 1.2.3 1v2.3l-.5 2.5-1 2.7-1.8 3-2.2 3.3-2.3 2.7-2.5 2.3-2.7 2-3.3 1.7-3.7 1.5-3.8 1-4.2.8-4.3.5-4.5.2-4.5-.2-5-.8-4.7-.7-5-1.5-5-1.5-5-2-5-2.5-5.3-3-5.7-3.5-10.8-6.8-11.2-7.7-11-8-10.3-7.5-16.2-12.5-6.3-5m66.5-246.8 9-2.7 121.8-36.3 11.5-3.5m-12.5-42.5-8 2.5-128.8 39.8-1 .2m129.8-40 8 40" stroke-width="21"/><path d="m496 415-9.2 2-5.3 1-108.2 22.3-1.3.5-2.5 1.2-1.5 1.3-1.7 1.5-1.8 1.7-1.5 2.3-1.5 2.7-1.2 3.3-.8 3.7-.2 4.3.2 2.5.3 2.5.2 2.5.8 3 .7 3 1 3 1.3 3.5 1.2 3.5 133-26.8 6-1.2 9.8-2m-5.3 70 6.5-2 13-3.8 111.3-33.5 8.2-2.5m-17.2-40.7 8 40" stroke-width="21"/><path d="m634.8 442-4.5 1.5-122.3 37.5-4 1.3-3.5 1-122.7 25.2-1 .5-2.5 1.3-1.8 1.2-1.7 1.5-1.8 1.8-1.5 2.2-1.5 2.8-1 3.2-.7 3.8-.3 4.2v2.5l.3 2.5.5 2.5.5 3 .7 3 1 3 1.3 3.5 1.5 3.5 145.5-29.2 3-.8m141.7-16.5 8 40.3m-259.7 68.7 124.7-25.2 3.3-.5 4.7-1.5 128-38.3 9.5-2.7m-12.7-42.5-5.8 1.7-124.5 38-5 1.5-8.7 1.8-114.3 23.5-.7.5-2.3 1-1.5 1-1.5 1.2-1.7 1.5-1.5 2-1.5 2.3-1.3 2.5-.7 3-.8 3.5-.2 4 .2 4.5 1 5 1.5 5.7m173 42.5 95.3-28.5 8-2.2m-17.3-42 .3.7 7.7 39.5" stroke-width="21"/><path d="m660 579.8-4.2 1.2-107.8 32.3-8.7 2.5-13.5 4.2-82 16.5m138.2 97.5 96-32.5 10.8-3.5m-12.5-42.5-7.8 2.3-107.7 33.7" stroke-width="21"/><path d="m668 656 .5 1.8 7.8 38.5m-160-241.5-3.3.5-2.2.2h-2.5l-2.3-.5-2.2-.5-2.3-.5-2-1-2-1-1.7-1.2-1.5-1.3-1.3-1.2-1.2-1.5-1-1.3-1-1.7-1-1.5-.5-1.8-.5-2-.5-3.5v-3.2l.5-3.5 1.2-3 1.5-3 1.8-2.5 2.2-2.5 2.5-2 2-1.3 2.3-1.2 2.2-.8 2.5-.7m21.8 109-3.5.5-3.8.2-3.2-.5-3.5-.7-2.5-1.3-2.5-1.2-2.3-1.5-2-2-1.7-2-1.5-2.5-1.3-2.5-.7-2.8-.5-2.7-.3-2.5.3-2.8.5-2.5 1-2.5 1.2-2.5 1.3-2.2 1.7-2 1.8-1.8 1.7-1.5 2.3-1.5 2.2-1 2.3-1 2.7-.7m30.3 112.2-3.5.8h-3.3l-2.5-.3-2.2-.2-2.3-.8-2.2-.7-2.3-1.3-2-1.2-2-1.8-1.7-1.7-1.5-2-1.3-2-1-2.5-.7-2.3-.5-2.5v-4.7l.5-2.5.5-2.3 1-2 1-2.2 1.5-2 2.2-2.8 3-2.5 3.3-2 1.7-.7 2-.8 2-.5m27 109-2 .5-2 .3h-4l-3.7-.8-3.5-1-2.5-1.2-2.3-1.3-2-1.7-1.7-1.8-1.8-2-1.2-2.2-1-2.3-1-2.7-.3-2.5-.2-2.5.2-2.5.5-2.3.5-2.5 1-2.2 1.3-2 1.5-2 1.7-2 1.8-1.8 2-1.5 2.2-1.2 3-1.3 3-1" stroke-width="21"/><path d="m267.5 310 1 .5 2 1.3 3.5 2.2 4.3 2.8 5.2 3.2 6.5 3 3.5 1.5 3.8 1.5 3.7 1.3 4.3 1.2 4.2 1 4.5 1 4.8.5 4.7.5h5l5.3-.2 5.2-.5 5.5-.8 5.5-1.2 5.8-1.8 5.7-2.2 6-2.8 6-3 6-3.7 6.3-4.3 6.2-5" stroke-width="14"/><path d="m486 414 .8 3 2.2 8.3 6.8 25.5 2.2 8.7 6 22.8.5 2 9.3 35.5 1.2 4.5.3 1 6.5 24 1.5 5.5 8.5 33 1.2 4 6.3 24 1 4 9 33.7 2.7 10.5" stroke-width="7"/></g></svg>