<svg height="850.394" viewBox="0 0 850.394 850.394" width="850.394" xmlns="http://www.w3.org/2000/svg"><path d="m305.24 564.92c24.39 0 44.17 19.78 44.17 44.18 0 24.391-19.78 44.181-44.17 44.181-24.4 0-44.18-19.79-44.18-44.181 0-24.4 19.78-44.18 44.18-44.18zm365.98-68.71c16.891 7.07 23.59 29.47 14.98 50.06-8.62 20.591-29.271 31.561-46.16 24.5-16.88-7.06-23.58-29.47-14.97-50.069 8.61-20.581 29.27-31.551 46.15-24.491z" fill="#33a02c"/><path d="m213.43 557.31 3.28-3.47 18.12-3.83c-12.26 14.44-19.67 33.25-19.67 53.82 0 1.28.03 2.55.09 3.81-12.45 1.051-25.3-.8-37.58-5.949-41.22-17.311-60.37-65.37-42.76-107.32 1.13-2.69 2.39-5.29 3.76-7.79z" fill="#787878"/><path d="m331.35 529.62c27.08 13.33 45.76 41.55 45.76 74.21 0 45.5-36.26 82.39-80.98 82.39-43.46 0-78.93-34.85-80.88-78.58a80.06 80.06 0 0 1 -.09-3.81c0-20.57 7.41-39.38 19.67-53.82l96.51-20.42zm18.06 79.48c0-24.399-19.78-44.18-44.17-44.18-24.4 0-44.18 19.78-44.18 44.18 0 24.391 19.78 44.181 44.18 44.181 24.39-.001 44.17-19.791 44.17-44.181zm235.55-129.86c3.06 5.25 4.76 11.14 4.76 17.35 0 3.49-.54 6.87-1.55 10.101-5.47 17.43-24.76 30.319-47.729 30.319-27.21 0-49.28-18.1-49.28-40.42l-.16-.76 93.29-19.74zm81.24-17.33c34.3 7.77 55.16 44.7 46.59 82.5-8.57 37.79-43.32 62.12-77.61 54.34-34.3-7.77-55.149-44.71-46.58-82.5.67-2.93 1.49-5.78 2.46-8.54 6.23-17.79 18.48-31.86 33.44-39.87l-.05-.24 33.04-6.989c2.9.209 5.81.629 8.71 1.299zm20 84.36c8.609-20.59 1.91-42.989-14.98-50.06-16.88-7.06-37.54 3.91-46.149 24.49-8.61 20.6-1.91 43.01 14.97 50.069 16.889 7.061 37.539-3.909 46.159-24.499z" fill="#787878"/><path d="m758 302-164.12 25.03v-.02l.12-86.77 4.58-.56 161.68 57.58-.38 4.89z" fill="#f6cc4b"/><path d="m201.04 386.96-35.44-22.81 26.57-74.78 401.83-49.13-.12 86.77v.02z" fill="#f6cc4b"/><path d="m584.29 476.09-93.29 19.74-159.66 33.76-96.51 20.42-18.12 3.83-15.67-166.88 392.84-59.93 164.12-25.03 1.88.15-10.7 139.07-91.69 19.39-33.04 6.99z" fill="#33a02c"/><path d="m165.36 364.82 3.29 94.67-28.61-23.41z" fill="#f6cc4b"/><path d="m192.17 289.37-26.57 74.78-.27-.17.03.84-25.32 71.26-7.94-6.49-6.64-102.98-28.24-18.27-5.24.42-.57-7.07z" fill="#f6cc4b"/><path d="m140.04 436.08-13.78 38.77-22.67-21.45-11.61-144.64 5.24-.42 28.24 18.27 6.64 102.98z" fill="#33a02c"/><path d="m138.67 486.58-12.41-11.73 13.78-38.77 28.61 23.41-3.29-94.67.24-.67 35.44 22.81 15.67 166.88-3.28 3.47z" fill="#33a02c"/><g fill="none"><g stroke="#231f20" stroke-width="21"><path d="m758 302-164.12 25.03-392.84 59.93 15.67 166.88 18.12-3.83 96.51-20.42 159.66-33.76 93.29-19.74 40.16-8.49 33.04-6.99 91.69-19.39 10.7-139.07.38-4.89-161.68-57.58-4.58.56-401.83 49.13-100.76 12.32.57 7.07 11.61 144.64 22.67 21.45 12.41 11.73 74.76 70.73 1.73 1.64"/><path d="m97.22 308.34 28.24 18.27 6.64 102.98 7.94 6.49 28.61 23.41-3.29-94.67-.03-.84.27.17 35.44 22.81m392.96-148.96v2.24l-.12 86.77m-385.78-82.48 2.9-8.17-13.28-47.62s7.75-28.8 24.36-24.36c16.61 4.43 39.87 12.18 39.87 12.18s17.71 19.93-5.54 34.33c-23.26 14.39-48.31 33.64-48.31 33.64z"/><path d="m103.59 538.67 22.67-63.82 13.78-38.77 25.32-71.26.24-.67 26.57-74.78 15.93-44.84m-111.71 297.04h26.71v13.84h-26.71zm253.02 67.53c0 24.391-19.78 44.181-44.17 44.181-24.4 0-44.18-19.79-44.18-44.181 0-24.399 19.78-44.18 44.18-44.18 24.39 0 44.17 19.78 44.17 44.18z"/><path d="m331.35 529.62c27.08 13.33 45.76 41.55 45.76 74.21 0 45.5-36.26 82.39-80.98 82.39-43.46 0-78.93-34.85-80.88-78.58a80.06 80.06 0 0 1 -.09-3.81c0-20.57 7.41-39.38 19.67-53.82 0-.01.01-.02.02-.029"/><path d="m215.25 607.64c-12.45 1.051-25.3-.8-37.58-5.949-41.22-17.311-60.37-65.37-42.76-107.32 1.13-2.69 2.39-5.29 3.76-7.79.92-1.7 1.9-3.35 2.92-4.96m544.61 64.649c-8.62 20.591-29.271 31.561-46.16 24.5-16.88-7.06-23.58-29.47-14.97-50.069 8.609-20.58 29.27-31.55 46.149-24.49 16.891 7.069 23.591 29.469 14.981 50.059z"/><path d="m657.46 460.61h.03c2.899.21 5.81.63 8.71 1.3 34.3 7.77 55.16 44.7 46.59 82.5-8.57 37.79-43.32 62.12-77.61 54.34-34.3-7.77-55.149-44.71-46.58-82.5.67-2.93 1.49-5.78 2.46-8.54 6.23-17.79 18.48-31.86 33.44-39.87m-39.54 11.4c3.06 5.25 4.76 11.14 4.76 17.35 0 3.49-.54 6.87-1.55 10.101-5.47 17.43-24.76 30.319-47.729 30.319-27.21 0-49.28-18.1-49.28-40.42"/></g><path d="m0 0h850.394v850.394h-850.394z"/></g></svg>