<svg height="850" viewBox="0 0 850 850" width="850" xmlns="http://www.w3.org/2000/svg"><path d="m444 483.7-2.5 1.8-7.5 4.5-7 4-7.7 4-7.8 4-7.7 3.7-8 3.5-7.8 3.3-7.7 3-7.8 2.7-7.7 2.8-15 4.7-14.5 4.3-13.8 3.2-13 2.8-12.7 2.5-11 2.5-5 1.2-4.5 1.5-4 1.8-3.5 1.7-3 2.3-1.3 1-1 1.2-1 1.3-.7 1.5-.5 1.5-.5 1.5-.3 1.5v3.7l.5 2 .5 2 .5 2.3 2 4.7 1.3 2.5 1.5 2.5 1.7 2.3 2 2.2 2 2.3 2.3 2 2.2 2 2.5 2 2.8 1.7 3 1.8 2.7 1.5 3.3 1.5 6.5 2.7 6.7 2 7.3 1.8 7.5 1 7.7.5h8l4-.3 4-.5 4-.5 4-.7 4-1 4-1 4-1.3 4-1.5 5.5-2 6-1.5 6-1.5 6.3-1 6.5-.7 6.5-.3h6.2l6.3.5-3 4.3-3 4-3.5 4.2-3.3 3.8-3.5 4-3.7 3.7-3.8 3.5-4 3.5-3.7 3.3-4.3 3.2-4.2 3.3-4.3 2.7-4.2 3-4.5 2.5-4.5 2.8-4.8 2.2-4.7 2.3-4.8 2.2-5 2-5 1.8-5 1.5-5 1.5-5.2 1.5-5.3 1-5.2 1-5.3 1-5.5.5-5.2.5-5.5.2-5.5.3-5.8-.3-5.5-.2-8-.8-8-1-7.7-1.5-7.8-1.7-7.5-2.3-7.5-2.5-7-2.7-7-3.3-5.5-2.7-5.2-3-5.3-3-5-3.3-5-3.5-4.7-3.7-4.5-3.8-4.5-4-4.5-4.2-4-4.3-4-4.2-4-4.8-3.8-4.5-3.5-5-3.2-5-3.3-5-3-5.2-2.7-5.3-2.5-5.5-2.5-5.5-2-5.7-2-5.8-2-5.7-1.5-6-1.3-6-1.2-6-.8-6-.7-6.3-.5-6.2-.3-6.5v-6.3l.5-6.5.8-8.2 1-8.3 1.7-8.2 1.8-8 2.5-7.8 2.7-7.5 3-7.5 3.5-7.2 3.8-7 4-7 4.2-6.5 4.8-6.5 5-6 5.2-5.8 5.5-5.7 5.8-5.3 6-5 6.2-5 6.5-4.2 6.8-4.3 7-3.7 7-3.5 7.5-3.3 7.2-2.7 7.8-2.5 7.7-2 8-1.8 8-1.2 8-1 8.3-.5h8.5l8.5.2 7.5.5 7.2 1 7.5 1.5 7 1.5 7 2 7 2.3 6.8 2.5 6.7 2.7 6.5 3 6.3 3.5 6 3.5 6 4 5.7 4 5.5 4.5 5.5 4.5 5 4.8 5 5 4.8 5.2 4.5 5.5 4.2 5.5 4 5.8 4 6 3.5 6 3.3 6.2 3 6.5 2.7 6.5 2.5 6.8 2 7 2 6.7 1.5 7.3 1.3 7 1 7.2z" fill="#fbed24"/><path d="m206.3 653 51.2 26.5v1l-.2.2h-1.8l-2-.5-2.2-.5-2.3-.5-5.5-2-6-2.5-13.2-5.7-7-2.8-7.5-2.2-3.5-1-3.8-.8-3.7-.5-3.5-.5h-3.8l-3.5.3-3.5.5-3.2.7-3.3 1.3-3.2 1.5-3 2.2-2.8 2.5-2.7 3-2.5 3.5-2.5 4-2 4.5-.3.8v1.7l.3 1 1.2 2 1.5 2-.7.8-13.3-7.5-11-6.3-8.7-5.5-6.8-4.7-2.5-2-2.2-2-1.8-1.8-1.2-1.5-.8-1.5-.5-1.5v-1.2l.3-1.3 2-4.2 2.2-3.8 2.3-3.5 2.7-3 2.8-2.5 2.7-2 3-1.7 3-1.5 3.3-1 3.2-.5 3.5-.5 3.3-.3 3.5.3 3.5.2 3.5.5 3.5.8 7 2 6.7 2.5 6.5 2.5 6 2.7 10.5 5.3 4.3 2 3.2 1.5z" fill="#ffeec8"/><path d="m415.3 592.7-6.3-.5h-6.2l-6.5.3-6.5.7-6.3 1-6 1.5-6 1.5-5.5 2-4 1.5-4 1.3-4 1-4 1-4 .7-4 .5-4 .5-4 .3h-8l-7.7-.5-7.5-1-7.3-1.8-6.7-2-6.5-2.7-3.3-1.5-2.7-1.5-3-1.8-2.8-1.7-2.5-2-2.2-2-2.3-2-2-2.3-2-2.2-1.7-2.3-1.5-2.5-1.3-2.5-2-4.7-.5-2.3-.5-2-.5-2v-3.7l.3-1.5.5-1.5.5-1.5.7-1.5 1-1.3 1-1.2 1.3-1 3-2.3 3.5-1.7 4-1.8 4.5-1.5 5-1.2 11-2.5 12.7-2.5 13-2.8 13.8-3.2 14.5-4.3 15-4.7 7.7-2.8 7.8-2.7 7.7-3 7.8-3.3 8-3.5 7.7-3.7 7.8-4 7.7-4 7-4 7.5-4.5 2.5-1.8 12.3-7.5 12.7-8 13.3-7.7 6.7-3.5 6.8-3.5 7-3.3 6.7-3 6.8-2.5 7-2.2 6.7-1.8 6.8-1.2 6.7-.8h6.5l8 .8 8 1 15.5 2.7 8 1.5 7.8 1 8 .5h8l4.2-.2 4-.5 3.5-.8 3.5-1 3.5-1 3-1 6.3-2.7 6-3.3 6.2-3.5 6.8-4 7.5-4.2 65.7 142.5-13.5 5-12 5-10.5 4.7-9.2 4.3-7.8 4.2-6.7 3.8-10.5 6-5.3 3.5-6.5 4.5-7.2 5.7-8.3 6.3-18 14.5-19.2 16-19.3 15.7-18 14.5-8 6.3-7.2 5.5-6.3 4.5-5 3.5-7.2 4.2-7.3 4.8-7.2 4.7-7.5 4.8-7.8 4.5-7.7 4.2-3.8 1.8-4 1.5-4 1.5-4 1.2-4.7.8-8.3 1-11.2 1.2-13.3 1-15.5 1-17 1-18 .8-18.7.7-18.8.5-18.7.5-18.3.3h-17l-15.5-.5-13.7-.5-11.3-1-4.7-.8-4-.7-2.8-.8-3.5-1.2-9.7-4-11.8-5.3-13.2-6.5-13-7-6.3-3.7-6-3.5-5.5-3.8-4.7-3.5-4-3.2-3.3-3.3-1.5-2-1.2-2-.3-1v-1.7l.3-.8 2-4.5 2.5-4 2.5-3.5 2.7-3 2.8-2.5 3-2.2 3.2-1.5 3.3-1.3 3.2-.7 3.5-.5 3.5-.3h3.8l3.5.5 3.7.5 3.8.8 3.5 1 7.5 2.2 7 2.8 13.2 5.7 6 2.5 5.5 2 2.3.5 2.2.5 2 .5h1.8l.2-.2 12.5-1.3 11.3-1.7 10.2-2 9.8-2.5 9.7-2.5 10.3-2.8 11-3 12.2-3 6.5-1.7 6-2.3 6-2.5 5.8-2.7 5.5-3 5.5-3.3 5.2-3.7 5-3.8 4.8-4.2 4.7-4.3 4.5-4.5 4.5-4.7 4.3-5 4-5 4-5.3 3.7-5.5 2.3-5.2-2-.8-2-.5-3.8-.7z" fill="#ffeec8"/><g fill="none" stroke="#231f20" stroke-linecap="round" stroke-miterlimit="10"><path d="m441.5 485.5-7.5 4.5-7 4-7.7 4-7.8 4-7.7 3.7-8 3.5-7.8 3.3-7.7 3-7.8 2.7-7.7 2.8-15 4.7-14.5 4.3-13.8 3.2-13 2.8-12.7 2.5-11 2.5-5 1.2-4.5 1.5-4 1.8-3.5 1.7-3 2.3-1.3 1-1 1.2-1 1.3-.7 1.5-.5 1.5-.5 1.5-.3 1.5v3.7l.5 2 .5 2 .5 2.3 2 4.7 1.3 2.5 1.5 2.5 1.7 2.3 2 2.2 2 2.3 2.3 2 2.2 2 2.5 2 2.8 1.7 3 1.8 2.7 1.5 3.3 1.5 6.5 2.7 6.7 2 7.3 1.8 7.5 1 7.7.5h8l4-.3 4-.5 4-.5 4-.7 4-1 4-1 4-1.3 4-1.5 5.5-2 6-1.5 6-1.5 6.3-1 6.5-.7 6.5-.3h6.2l6.3.5 3.7.3 3.8.7 2 .5 2 .8 2.2 1 2.3 1.5 2.2 1.5 2.3 1.7 4.2 4 4.3 4.5 7.7 8.8 3.5 4 3.8 3.2m208.5-201.2-7.5 4.2-6.8 4-6.2 3.5-6 3.3-6.3 2.7-3 1-3.5 1-3.5 1-3.5.8-4 .5-4.2.2h-8l-8-.5-7.8-1-8-1.5-15.5-2.7-8-1-8-.8h-6.5l-6.7.8-6.8 1.2-6.7 1.8-7 2.2-6.8 2.5-6.7 3-7 3.3-6.8 3.5-6.7 3.5-13.3 7.7-12.7 8-12.3 7.5-2.5 1.8" stroke-width="21"/><path d="m424.5 600.2-3.7 5.5-4 5.3-4 5-4.3 5-4.5 4.7-4.5 4.5-4.7 4.3-4.8 4.2-5 3.8-5.2 3.7-5.5 3.3-5.5 3-5.8 2.7-6 2.5-6 2.3-6.5 1.7-12.2 3-11 3-10.3 2.8-9.7 2.5-9.8 2.5-10.2 2-11.3 1.7-12.5 1.3-.2.2h-1.8l-2-.5-2.2-.5-2.3-.5-5.5-2-6-2.5-13.2-5.7-7-2.8-7.5-2.2-3.5-1-3.8-.8-3.7-.5-3.5-.5h-3.8l-3.5.3-3.5.5-3.2.7-3.3 1.3-3.2 1.5-3 2.2-2.8 2.5-2.7 3-2.5 3.5-2.5 4-2 4.5-.3.8v1.7l.3 1 1.2 2 1.5 2 3.3 3.3 4 3.2 4.7 3.5 5.5 3.8 6 3.5 6.3 3.7 13 7 13.2 6.5 11.8 5.3 9.7 4 3.5 1.2 2.8.8 4 .7 4.7.8 11.3 1 13.7.5 15.5.5h17l18.3-.3 18.7-.5 18.8-.5 18.7-.7 18-.8 17-1 15.5-1 13.3-1 11.2-1.2 8.3-1 4.7-.8 4-1.2 4-1.5 4-1.5 3.8-1.8 7.7-4.2 7.8-4.5 7.5-4.8 7.2-4.7 7.3-4.8 7.2-4.2 5-3.5 6.3-4.5 7.2-5.5 8-6.3 18-14.5 19.3-15.7 19.2-16 18-14.5 8.3-6.3 7.2-5.7 6.5-4.5 5.3-3.5 10.5-6 6.7-3.8 7.8-4.2 9.2-4.3 10.5-4.7 12-5 13.5-5" stroke-width="21"/><path d="m161.3 693.5-13.3-7.5-11-6.3-8.7-5.5-6.8-4.7-2.5-2-2.2-2-1.8-1.8-1.2-1.5-.8-1.5-.5-1.5v-1.2l.3-1.3 2-4.2 2.2-3.8 2.3-3.5 2.7-3 2.8-2.5 2.7-2 3-1.7 3-1.5 3.3-1 3.2-.5 3.5-.5 3.3-.3 3.5.3 3.5.2 3.5.5 3.5.8 7 2 6.7 2.5 6.5 2.5 6 2.7 10.5 5.3 4.3 2 3.2 1.5 1.3.5 51.2 26.5m158.5-87.8-.7 1-3 4.3-3 4-3.5 4.2-3.3 3.8-3.5 4-3.7 3.7-3.8 3.5-4 3.5-3.7 3.3-4.3 3.2-4.2 3.3-4.3 2.7-4.2 3-4.5 2.5-4.5 2.8-4.8 2.2-4.7 2.3-4.8 2.2-5 2-5 1.8-5 1.5-5 1.5-5.2 1.5-5.3 1-5.2 1-5.3 1-5.5.5-5.2.5-5.5.2-5.5.3-5.8-.3-5.5-.2-8-.8-8-1-7.7-1.5-7.8-1.7-7.5-2.3-7.5-2.5-7-2.7-7-3.3-5.5-2.7-5.2-3-5.3-3-5-3.3-5-3.5-4.7-3.7-4.5-3.8-4.5-4-4.5-4.2-4-4.3-4-4.2-4-4.8-3.8-4.5-3.5-5-3.2-5-3.3-5-3-5.2-2.7-5.3-2.5-5.5-2.5-5.5-2-5.7-2-5.8-2-5.7-1.5-6-1.3-6-1.2-6-.8-6-.7-6.3-.5-6.2-.3-6.5v-6.3l.5-6.5.8-8.2 1-8.3 1.7-8.2 1.8-8 2.5-7.8 2.7-7.5 3-7.5 3.5-7.2 3.8-7 4-7 4.2-6.5 4.8-6.5 5-6 5.2-5.8 5.5-5.7 5.8-5.3 6-5 6.2-5 6.5-4.2 6.8-4.3 7-3.7 7-3.5 7.5-3.3 7.2-2.7 7.8-2.5 7.7-2 8-1.8 8-1.2 8-1 8.3-.5h8.5l8.5.2 7.5.5 7.2 1 7.5 1.5 7 1.5 7 2 7 2.3 6.8 2.5 6.7 2.7 6.5 3 6.3 3.5 6 3.5 6 4 5.7 4 5.5 4.5 5.5 4.5 5 4.8 5 5 4.8 5.2 4.5 5.5 4.2 5.5 4 5.8 4 6 3.5 6 3.3 6.2 3 6.5 2.7 6.5 2.5 6.8 2 7 2 6.7 1.5 7.3 1.3 7 1 7.2" stroke-width="21"/><path d="m244.5 282.2-2-3.2-2.2-4-2.5-5.5-2.8-6.8-1.2-4-1.3-4.2-1-4.8-1.2-5-.8-5.2-.7-5.5-.5-6v-12.8l.5-6.7.7-7 1.3-7.5 1.5-7.5 2-8 2.5-8 3-8.5 3.7-8.5 4-9 5-9 5.3-9.5 6.2-9.5 6.8-9.8m-51.8 179.8-1.2-2-4-6.3-5.3-9.7-3.2-6-3.3-6.8-3.5-7.5-3.2-8.2-3.5-8.5-3-9-3-9.8-2.5-9.7-2-10.3-.8-5.2-.7-5.3" stroke-width="14"/></g></svg>