<svg height="850.394" viewBox="0 0 850.394 850.394" width="850.394" xmlns="http://www.w3.org/2000/svg"><path d="m497.49 430.63a71.269 71.269 0 0 1 -11.99 33.29c-6.93 10.21-16.42 18.54-27.55 24.05-9.58 4.761-20.38 7.431-31.8 7.431-17.041 0-32.69-5.94-44.99-15.87-16.28-13.13-26.69-33.25-26.69-55.8 0-1.11.03-2.21.08-3.3 1.11-24.58 14.6-45.93 34.39-57.98 10.85-6.59 23.58-10.39 37.21-10.39 4.56 0 9.01.42 13.33 1.24 12.26 2.3 23.42 7.73 32.619 15.43 8.44 7.06 15.23 16.02 19.7 26.22 3.87 8.81 6.021 18.54 6.021 28.78 0 2.329-.11 4.629-.33 6.899zm-25.44-6.9c0-25.35-20.55-45.91-45.899-45.91-25.36 0-45.91 20.56-45.91 45.91 0 25.36 20.55 45.91 45.91 45.91 25.349 0 45.899-20.55 45.899-45.91z" fill="#ed1d31"/><path d="m426.15 377.82c25.35 0 45.899 20.56 45.899 45.91 0 25.36-20.55 45.91-45.899 45.91-25.36 0-45.91-20.55-45.91-45.91 0-25.35 20.55-45.91 45.91-45.91z" fill="#fbee34"/><g fill="none"><g><g stroke="#231f20"><path d="m491.8 394.95c3.87 8.81 6.021 18.54 6.021 28.78 0 2.33-.11 4.63-.33 6.9a71.269 71.269 0 0 1 -11.99 33.29c-6.93 10.21-16.42 18.54-27.55 24.05-9.58 4.761-20.38 7.431-31.8 7.431-17.041 0-32.69-5.94-44.99-15.87-16.28-13.13-26.69-33.25-26.69-55.8 0-1.11.03-2.21.08-3.3 1.11-24.58 14.6-45.93 34.39-57.98 10.85-6.59 23.58-10.39 37.21-10.39 4.56 0 9.01.42 13.33 1.24 12.26 2.3 23.42 7.73 32.619 15.43 8.44 7.059 15.23 16.019 19.7 26.219z" stroke-width="19.485"/><path d="m472.05 423.73c0 25.36-20.55 45.91-45.899 45.91-25.36 0-45.91-20.55-45.91-45.91 0-25.35 20.55-45.91 45.91-45.91 25.349 0 45.899 20.56 45.899 45.91z" stroke-width="19.485"/><path d="m439.49 353.94s-.01-.22-.01-.64c-.12-11.3 1.689-169 196.77-220.48" stroke-dasharray="19.485" stroke-width="19.485"/><path d="m461.97 359.09s18.8-166.75 226.771-190.19" stroke-width="14"/></g><path d="m469.93 375.06s.66-2.3 2.17-6.33c11.181-29.73 68.96-153.62 253-143.61" stroke="#faa41f" stroke-dasharray="19.485" stroke-width="19.485"/><path d="m489.72 386.87s69.13-152.9 274.25-111.29" stroke="#231f20" stroke-width="14"/><path d="m491.57 395.13s.08-.06.229-.18c6.141-4.81 134.311-102.1 294.771 24.21" stroke="#231f20" stroke-dasharray="19.485" stroke-width="19.485"/><path d="m500.98 416.16s144.47-85.34 288.369 66.64" stroke="#231f20" stroke-width="14"/><path d="m493.01 432.14s1.561-.6 4.48-1.51c26.359-8.17 163.779-41.38 268.84 115.021" stroke="#faa41f" stroke-dasharray="19.485" stroke-width="19.485"/><path d="m495.5 455.04s163.71-36.81 253.94 152.04" stroke="#231f20" stroke-width="14"/><path d="m484.37 463.53s.39.13 1.13.39c14.23 5.061 157.76 61.19 140.67 259.41" stroke="#231f20" stroke-dasharray="19.485" stroke-width="19.485"/><path d="m471.94 482.94s150.64 73.949 102.55 277.64" stroke="#231f20" stroke-width="14"/><path d="m454.22 485.04s1.36.979 3.73 2.93c21.33 17.58 124.439 114.24 51.359 287.87" stroke="#faa41f" stroke-dasharray="19.485" stroke-width="19.485"/><path d="m436.44 499.69s120.609 116.659 12.26 295.72" stroke="#231f20" stroke-width="14"/><path d="m413.72 495.1s14.06 167.21-185.37 230.73" stroke="#faa41f" stroke-dasharray="19.485" stroke-width="19.485"/><path d="m421.21 495.89s79.28 147.9-78.56 285.36" stroke="#231f20" stroke-dasharray="19.485" stroke-width="19.485"/><path d="m391.02 491.09s-10.38 167.47-216.92 201.36" stroke="#231f20" stroke-width="14"/><path d="m382.26 475.53s-.33 1.42-1.1 4c-7.48 25.05-56.43 159.359-246.2 158.59" stroke="#231f20" stroke-dasharray="19.485" stroke-width="19.485"/><path d="m361.9 464.74s-61.34 156.18-268.3 124.939" stroke="#231f20" stroke-width="14"/><path d="m359.63 456.58s-125.06 111.88-295.83-9.16" stroke="#faa41f" stroke-dasharray="19.485" stroke-width="19.485"/><path d="m349.18 436.04s-140 92.51-291.36-52.03" stroke="#231f20" stroke-width="14"/><path d="m356.34 419.69s-.61.27-1.79.74c-17.48 6.91-159.52 56.69-276.91-100.36" stroke="#231f20" stroke-dasharray="19.485" stroke-width="19.485"/><path d="m352.69 396.94s-161.65 45.02-261.27-139.06" stroke="#231f20" stroke-width="14"/><path d="m363.38 387.91s-162.15-43.17-154.68-252.33" stroke="#faa41f" stroke-dasharray="19.485" stroke-width="19.485"/><path d="m374.81 367.9s-154.16-66.28-116.38-272.13" stroke="#231f20" stroke-width="14"/><path d="m392.42 364.9s-1.26-.81-3.48-2.45c-21.28-15.68-130.82-107.05-66.18-285.2" stroke="#231f20" stroke-dasharray="19.485" stroke-width="19.485"/><path d="m413.56 352.22s-65.84-154.35 103.55-277.27" stroke="#faa41f" stroke-dasharray="19.485" stroke-width="19.485"/><path d="m409.44 349.37s-126.34-110.43-27.13-294.72" stroke="#231f20" stroke-width="14"/></g><path d="m0 0h850.394v850.394h-850.394z"/></g></svg>