<svg height="850" viewBox="0 0 850 850" width="850" xmlns="http://www.w3.org/2000/svg"><path d="m771.5 171.8 8 5.2-10.2 119.3-157 147-1.3-1.5-3.7-134.5z" fill="#a9d7f3"/><path d="m610 445.5-205.7-106.5-30.5-129.2 5-5 225.2 105.5 3.3-3 3.7 134.5 1.3 1.5z" fill="#a9d7f3"/><path d="m774 169.5-2.5 2.3-11-7.5z" fill="#cc82b7"/><path d="m607.3 307.3-3.3 3-225.2-105.5.5-.8 185.2-114 196 74.3 11 7.5z" fill="#a9d7f3"/><path d="m611.8 598.3v44.2l-.3 3-.2 3-.5 3-1.5 5.8-2.3 5.7-2.5 5.8-3 5.2-3.7 5.5-4.3 5-4.2 5-4.8 4.5-5.2 4.5-5.8 4.5-4.5 3.3-5 3-5 3-5.2 3-5.5 2.7-5.5 2.8-6 2.5-6 2.2-6 2.5-6.5 2-6.5 2-6.5 1.8-6.8 1.7-7 1.5-7 1.5-7.2 1.3 2.7-19.5 23.8 2.7-1.8-1.5-2.2-2.2-3.3-3.3-4-4.5-4.7-5.7-5.5-7.3-6.3-8.7-3-4.5-2.7-4.8-2.5-4.5-2.3-4.5-1.7-4.2-1.8-4.3-1.5-4.2-1.2-4 3.2 2.5 3.8 2.5 4.5 2.2 4.7 2 4.8 1.8 4.7 1.2 7.5 1.8 3 .5.8-2 1.5-3.3 3.2-9.5 1.5.3 11.5-2 11-2 10.5-2.5 10-2.8 9.5-3 8.8-3 8.2-3.5 7.5-3.5 7-3.7 6-4 2.8-2 2.5-2 2.5-2 2.2-2.3 1.8-2.2 1.7-2 1.8-2.3 1.2-2.2 1-2.3.8-2.5.7-2.2z" fill="#ffeec8"/><path d="m611.8 550.5v47.8l-.3 2.5-.7 2.2-.8 2.5-1 2.3-1.2 2.2-1.8 2.3-1.7 2-1.8 2.2-2.2 2.3-2.5 2-2.5 2-2.8 2-6 4-7 3.7-7.5 3.5-8.2 3.5-8.8 3-9.5 3-10 2.8-10.5 2.5-11 2-11.5 2-1.5-.3 2-6.5 1.8-6.5.7-4 .5-4.2v-8.8l-.2-8.5-1-7.2 2.5-.3 11.2-2.2 11-2.3 10.3-2.5 9.7-2.7 9-3.3 8.8-3.2 7.7-3.5 7.3-3.5 6.5-4 5.7-4 2.5-2 2.5-2 2-2.3 2-2.2 1.8-2 1.5-2.3 1.5-2.2 1-2.5.7-2.3.8-2.2.2-2.5.3-2.3z" fill="#ee947d"/><path d="m611.8 506v44.5h-.5l-.3 2.3-.2 2.5-.8 2.2-.7 2.3-1 2.5-1.5 2.2-1.5 2.3-1.8 2-2 2.2-2 2.3-2.5 2-2.5 2-5.7 4-6.5 4-7.3 3.5-7.7 3.5-8.8 3.2-9 3.3-9.7 2.7-10.3 2.5-11 2.3-11.2 2.2-2.5.3-.3-2.5-1-5.5-1.2-4.5-1.5-4-2.3.2-6.5.8-9 1.2-5.2 1-5.3 1.3-2.7 1-2.8 1-2.5 1-2.5 1.5-4.7 3-4 3-3.5 2.7-2.8 2.5-2.2 2.3h-3l-1-.5-1.3-.5-1-.3h-18.5l-1.5.5-1.2.5-1.3 1-1.5-1.5-2.2-2.2-2.8-2.5-3.2-2.8-4.3-3-4.7-3-2.5-1.2-2.5-1.3-2.8-1-2.7-.7-5.3-1.3-5.2-1.2-9-1.3-6.5-.7-2.3-.3-.5 1-1 3-1.2 4.5-1 5.8-.5 3h-1.8l-10.7-2-10.5-2.3-10-2.5-9.5-2.7-9-2.8-8.5-3.2-7.8-3.3-7.2-3.2-6.5-3.8-6-3.7-5-4-2.3-2-2.2-2-2-2.3-1.5-2-1.5-2.2-1.5-2-1-2.3-.8-2.2-.7-2.3-.5-2.2v-48.5l.2 2.5.8 2.5 1.2 2.5 1.5 2.5 2 2.2 2.5 2.5 2.8 2.3 3.2 2.2 3.8 2 4 2.3 4.5 2 4.7 2 5 2 5.3 1.7 5.7 1.8 6 1.7 13 3.3 14 2.7 15 2.5 16 2 16.8 1.8 17.5 1.2 18 .8 18.5.2 18.5-.2 18-.8 17.2-1.2 16.8-1.8 15.7-2 15-2.2 13.8-3 13-3 6-1.8 5.7-1.7 5.5-1.8 5-2 4.8-2 4.5-2 4-2 3.7-2.2 3.3-2 2.7-2.3 2.8-2.5 2-2.2 1.7-2.5 1.3-2.3.7-2.5z" fill="#ffeec8"/><path d="m611.8 505.3v.7l-.3 2.5-.7 2.5-1.3 2.3-1.7 2.5-2 2.2-2.8 2.5-2.7 2.3-3.3 2-3.7 2.2-4 2-4.5 2-4.8 2-5 2-5.5 1.8-5.7 1.7-6 1.8-13 3-13.8 3-15 2.2-15.7 2-16.8 1.8-17.2 1.2-18 .8-18.5.2-18.5-.2-18-.8-17.5-1.2-16.8-1.8-16-2-15-2.5-14-2.7-13-3.3-6-1.7-5.7-1.8-5.3-1.7-5-2-4.7-2-4.5-2-4-2.3-3.8-2-3.2-2.2-2.8-2.3-2.5-2.5-2-2.2-1.5-2.5-1.2-2.5-.8-2.5-.2-2.5.2-2.5.8-2.5 1.2-2.5 1.5-2.3 2-2.5 2.5-2.2 2.8-2.3 3.2-2.2 3.8-2.3 4-2 4.5-2.2 4.7-2 5-1.8 5.3-2 5.7-1.7 6-1.8 13-3 14-3 15-2.2 16-2.3 16.8-1.5 17.5-1.2 18-.8 18.5-.2 18.7.2 18 .8 17.5 1.2 16.8 1.5 15.7 2.3 15 2.2 14 3 13 3 6 1.8 5.8 1.7 5.5 2 5 1.8 4.7 2 4.5 2.2 4 2 3.5 2.3 3.3 2.2 3 2.3 2.2 2.2 2.3 2.5 1.5 2.3 1.2 2.5.5 2.5z" fill="#ffeec8"/><path d="m582.8 712 .5 3v3l-.5 3-1 2.8-1.3 3-1.7 3-2.3 2.7-2.2 3-3.3 3.3-4.7 4.2-5.8 4.8-3.5 2.5-4 2.5-4.2 2.7-4.5 2.5-5.3 2.8-5.5 2.7-6 2.5-6.5 2.8-6.7 2.5-7.5 2.5-5.5 1.5-5.5 1.5-5.3 1.2-5.5 1-10.5 1.8-10 1-9.7.7-9 .5h-32.8l-9-.5-9.7-.7-10-1-10.5-1.8-5.3-1-5.5-1.2-5.5-1.5-5.5-1.5-7.2-2.5-7-2.5-6.5-2.8-6-2.5-5.5-2.7-5.3-2.8-4.5-2.5-4.2-2.7-4-2.5-3.5-2.5-5.8-4.8-4.7-4.2-3.3-3.3-2.2-3-2.3-2.7-1.5-3-1.5-3-1-2.8-.5-3v-3l.5-3 .3-1.2.5-1.3 1.7-2.5 2-2.2 2.3-2.5.7-1 .5.5 4.8 3.2 4.7 3.3 5.3 3.2 5.2 3 5.5 2.8 5.8 2.7 6 2.8 6 2.5 6.2 2.2 6.5 2.3 6.8 2 6.7 2 7 1.7 7 1.5 7.3 1.5 7.5 1.3.7 6 4.5-5.3 10.3 1.3 10.2.7 10.8.5 10.7.3 11-.3 10.8-.5 10.5-.7 10.5-1.5 4.2 5.2.8-5.7 7.2-1.3 7-1.5 7-1.5 6.8-1.7 6.5-1.8 6.5-2 6.5-2 6-2.5 6-2.2 6-2.5 5.5-2.8 5.5-2.7 5.2-3 5-3 5-3 4.5-3.3 5 2 1.5 1.8 1.3 1.7 1 1.8z" fill="#f6cc4b"/><path d="m459.3 654.8-3.3-2.5-3-2.8-4.7-4.5-3-3.2-1-1.3-2-.2 1.2-1.3 1-1.5.5-1.5.3-1.7v-12.8l-.3-2-.7-2-1-1.5-1.5-1.2h3l2.2-2.3 2.8-2.5 3.5-2.7 4-3 4.7-3 2.5-1.5 2.5-1 2.8-1 2.7-1 5.3-1.3 5.2-1 9-1.2 6.5-.8 2.3-.2 1.5 4 1.2 4.5 1 5.5.3 2.5 1 7.2.2 8.5v8.8l-.5 4.2-.7 4-1.8 6.5-2 6.5-3.2 9.5-1.5 3.3-.8 2-3-.5-7.5-1.8-4.7-1.2-4.8-1.8-4.7-2-4.5-2.2-3.8-2.5z" fill="#ee947d"/><path d="m503.8 723-23.8-2.7-2.7 19.5-5 .5-8.8-11-5.5-7.5-5.5-8-3.2-5-3-5-2.5-5-2.3-5-2-5-1.7-5-1.5-5-1.3-4.8-1-4.5-1-4.5-1.2-8.5-.8-7.7v-6.5h6.3l1.5-.3 1.2-.2 1.3-.8 1-.7 2 .2 1 1.3 3 3.2 4.7 4.5 3 2.8 3.3 2.5 1.2 4 1.5 4.2 1.8 4.3 1.7 4.2 2.3 4.5 2.5 4.5 2.7 4.8 3 4.5 6.3 8.7 5.5 7.3 4.7 5.7 4 4.5 3.3 3.3 2.2 2.2z" fill="#ee947d"/><path d="m452.5 713.8 5.5 8 5.5 7.5 8.8 11-10.5 1.5-10.5.7-10.8.5-11 .3-10.7-.3-10.8-.5-10.2-.7-10.3-1.3 8.8-11.2 5.2-7 5.5-8 3.3-5 3-5.3 2.5-5 2.2-5 2-5.2 1.8-5 1.5-4.8 1.2-4.7 1.3-4.8.7-4.5 1.3-8.5.5-7.7.2-6.5h2.5v6.5l.8 7.7 1.2 8.5 1 4.5 1 4.5 1.3 4.8 1.5 5 1.7 5 2 5 2.3 5 2.5 5 3 5z" fill="#ffeec8"/><path d="m431 642.3h-9.5l-1.7-.3-1.5-.5-1.5-1-1.3-1-.7-1.2-.8-1.3-.2-1.2-.3-1.5v-12.8l.3-1.7.5-1.8.7-1.2 1-1.3 1.3-1 1.2-.5 1.5-.5h18.5l1 .3 1.3.5 1 .5 1.5 1.2 1 1.5.7 2 .3 2v12.8l-.3 1.7-.5 1.5-1 1.5-1.2 1.3-1 .7-1.3.8-1.2.2-1.5.3z" fill="#ee947d"/><path d="m428.5 642.3-.2 6.5-.5 7.7-1.3 8.5-.7 4.5-1.3 4.8-1.2 4.7-1.5 4.8-1.8 5-2 5.2-2.2 5-2.5 5-3 5.3-3.3 5-5.5 8-5.2 7-8.8 11.2-5.2-.7-2.8-19-24 2.7 2-1.7 2.3-2 3.2-3.3 3.8-4.5 5-5.7 5.5-7.3 6.2-8.7 3-4.8 2.8-4.7 2.5-4.5 2.2-4.5 1.8-4.3 1.7-4.2 1.5-4.3 1.3-4-.5-.7 3.5-2.5 3-2.8 4.7-4.5 3-3.5 1.3-1.2.2-.3 1.3 1 1.5 1 1.5.5 1.7.3z" fill="#ee947d"/><path d="m414.5 614 1.5 1.5-1 1.3-.7 1.2-.5 1.8-.3 1.7v12.8l.3 1.5.2 1.2.8 1.3.7 1.2-.2.3-1.3 1.2-3 3.5-4.7 4.5-3 2.8-3.5 2.5-3.3 2.5-3.5 2.2-4.5 2.3-4.7 2-4.8 1.7-4.7 1.3-7.3 1.7-3.2.8-.8-2-1.2-3-3-8.8-2.3-7.2-1.7-7-1-3.8-.3-4.2-.2-4.3v-4.2l.2-8.3.8-7.2.5-3 1-5.8 1.2-4.5 1-3 .5-1 2.3.3 6.5.7 9 1.3 5.2 1.2 5.3 1.3 2.7.7 2.8 1 2.5 1.3 2.5 1.2 4.7 3 4.3 3 3.2 2.8 2.8 2.5z" fill="#ee947d"/><path d="m399.8 654.3.5.7-1.3 4-1.5 4.3-1.7 4.2-1.8 4.3-2.2 4.5-2.5 4.5-2.8 4.7-3 4.8-6.2 8.7-5.5 7.3-5 5.7-3.8 4.5-3.2 3.3-2.3 2-2 1.7 24-2.7 2.8 19-7.5-1.3-7.3-1.5-7-1.5-7-1.7-6.7-2-6.8-2-6.5-2.3-6.2-2.2-6-2.5-6-2.8-5.8-2.7-5.5-2.8-5.2-3-5.3-3.2-4.7-3.3-4.8-3.2-.5-.5-4-3.3-3.7-3.5-3.8-3.2-3.5-3.8-3.2-3.5-2.8-3.7-2.7-3.8-2.5-4-2.3-3.7-1.7-4-1.8-4-1.2-4.3-1-4.2-.8-4-.5-4.3-.2-4.5v-43.5h.5l.2 2.5.5 2.3.5 2.5 1 2.5 1 2.2 1.5 2.3 1.5 2.5 2 2.2 2 2.3 2.5 2 2.5 2.2 2.8 2.3 2.7 2 3.3 2 7 4 7.5 3.7 8.5 3.5 9 3.3 9.7 3 10.5 2.7 10.8 2.8 11.5 2.2 12 2 3 8.8 1.2 3 .8 2 3.2-.8 7.3-1.7 4.7-1.3 4.8-1.7 4.7-2 4.5-2.3 3.5-2.2z" fill="#ffeec8"/><path d="m379.3 204-.5.8-.3-.3z" fill="#cc82b7"/><path d="m358.8 655-12-2-11.5-2.2-10.8-2.8-10.5-2.7-9.7-3-9-3.3-8.5-3.5-7.5-3.7-7-4-3.3-2-2.7-2-2.8-2.3-2.5-2.2-2.5-2-2-2.3-2-2.2-1.5-2.5-1.5-2.3-1-2.2-1-2.5-.5-2.5-.5-2.3-.2-2.5h-.5v-42.2l.5 2.2.7 2.3.8 2.2 1 2.3 1.5 2 1.5 2.2 1.5 2 2 2.3 2.2 2 2.3 2 5 4 6 3.7 6.5 3.8 7.2 3.2 7.8 3.3 8.5 3.2 9 2.8 9.5 2.7 10 2.5 10.5 2.3 10.7 2h1.8l-.8 7.2-.2 8.3v4.2l.2 4.3.3 4.2 1 3.8 1.7 7z" fill="#ee947d"/><path d="m231 68.8 7 1.5 6.8 1.5 6.5 2 6.5 2.2 6.2 2.5 6.3 3 6 3.3 5.7 3.5 5.5 3.7 5.3 4 5.2 4.3 4.8 4.5 4.7 4.7 4.5 5 4 5.3 4 5.2 3.8 5.8 3.5 5.7 3 6 3 6 2.5 6.3 2.5 6.5 2 6.5 1.7 6.7 1.3 6.8 1.2 6.7.8 7 .2 7.3.3 7-.3 7.2-.5 7.3-1 7.2-.5 3-1.5 8.5-1.5 6-1.7 7.3-2.5 8-3 8.7-3.5 9.5-4.3 10-5 10.8-2.7 5.2-3 5.5-3.3 5.8-3.5 5.5-3.7 5.7-3.8 5.8-4.2 5.5-4.3 5.7-4.7 5.8-5 5.5-7.3 8-7.5 7.7-7 7-7 6.5-6.7 5.8-6.5 5.5-6.3 4.7-6 4.5-5.7 3.8-5.5 3-5.3 2.7-5 2-4.7 1.5-4.3.8-4.2.5h-1.8l-2-.3-8.5-1-7.2-.7v-.3l-5.3-1-8.2-1.7-1.8-.5-1.7-.5-3.8-1.5-4-2.3-4-2.7-4-3.5-4.2-4-4.3-4.8-4.5-5.2-4.5-6-4.5-6.5-4.5-7.3-4.5-7.5-4.7-8.2-4.5-9-4.8-9.5-4.5-9.8-3-7-2.7-6.7-2.5-6.8-2.3-6.7-2-6.5-1.7-6.5-1.5-6.5-1.5-6.3-1.3-6.2-1-6-1.5-11.5-1-11-.5-10v-17.8l.5-7.2.5-6.3 1-8.5.5-3 1.5-7.2 1.5-7.3 2-6.7 2.3-6.8 2.5-6.7 3-6.3 3-6.2 3.5-6 3.7-6 4-5.5 4-5.5 4.5-5 4.8-5 4.7-4.8 5-4.5 5.3-4 5.5-4 5.7-3.7 5.8-3.3 5.7-3.2 6.3-2.8 6-2.5 6.5-2.2 6.5-2 6.5-1.5 6.5-1.3 6.7-.7 6.8-.8h14l6.7.5 7.3 1z" fill="#a9d7f3"/><g fill="none" stroke="#231f20" stroke-linecap="round" stroke-miterlimit="10" stroke-width="14"><path d="m172.5 420.5 1.3.3 7.2.7 8.5 1 2 .3h1.8l4.2-.5 4.3-.8 4.7-1.5 5-2 5.3-2.7 5.5-3 5.7-3.8 6-4.5 6.3-4.7 6.5-5.5 6.7-5.8 7-6.5 7-7 7.5-7.7 7.3-8 5-5.5 4.7-5.8 4.3-5.7 4.2-5.5 3.8-5.8 3.7-5.7 3.5-5.5 3.3-5.8 3-5.5 2.7-5.2 5-10.8 4.3-10 3.5-9.5 3-8.7 2.5-8 1.7-7.3 1.5-6 1.5-8.5.5-3 1-7.2.5-7.3.3-7.2-.3-7-.2-7.3-.8-7-1.2-6.7-1.3-6.8-1.7-6.7-2-6.5-2.5-6.5-2.5-6.3-3-6-3-6-3.5-5.7-3.8-5.8-4-5.2-4-5.3-4.5-5-4.7-4.7-4.8-4.5-5.2-4.3-5.3-4-5.5-3.7-5.7-3.5-6-3.3-6.3-3-6.2-2.5-6.5-2.2-6.5-2-6.8-1.5-7-1.5-1.7-.3-7.3-1-6.7-.5h-14l-6.8.8-6.7.7-6.5 1.3-6.5 1.5-6.5 2-6.5 2.2-6 2.5-6.3 2.8-5.7 3.2-5.8 3.3-5.7 3.7-5.5 4-5.3 4-5 4.5-4.7 4.8-4.8 5-4.5 5-4 5.5-4 5.5-3.7 6-3.5 6-3 6.2-3 6.3-2.5 6.7-2.3 6.8-2 6.7-1.5 7.3-1.5 7.2-.5 3-1 8.5-.5 6.3-.5 7.2v17.8l.5 10 1 11 1.5 11.5 1 6 1.3 6.2 1.5 6.3 1.5 6.5 1.7 6.5 2 6.5 2.3 6.7 2.5 6.8 2.7 6.7 3 7 4.5 9.8 4.8 9.5 4.5 9 4.7 8.2 4.5 7.5 4.5 7.3 4.5 6.5 4.5 6 4.5 5.2 4.3 4.8 4.2 4 4 3.5 4 2.7 4 2.3 3.8 1.5 1.7.5 1.8.5 8.2 1.7 5.3 1m7 3.3-.3 1.7-.7 5-.3 3.3.3 3 .2 1.2.3 1 1.2 2.3 3.3 4.5 1 2.2.2 1 .3.8-.3 1-.5.7-.7.8-1.3.7-2.7 1-2.5.5-2.3.5h-2.2l-3-.2h-1l-.5-.3h-1.3l-3-1-2-.5-2-1.2-2.2-1.3-2.3-1.7-1-1-.5-1-.2-1v-.8l.5-1 .5-.7 1.7-1.8 4.3-3.2 2-1.8.7-1 .5-1 .8-2 .7-2.2.8-4.3.7-4.2"/><path d="m175.8 423.8 4.7 1.7 3 1.3 2.8 1.5 2.7 1.7 2.5 1.8 2.5 2 2.5 2.2 2.3 2.3 2.2 2.2 2 2.5 2 2.8 1.8 2.7 1.7 2.8 1.5 3 1.5 3 1.3 3 1 3 1 3.2.7 3.3.8 3.2.5 3 .2 3.3.3 3.2v3.3l-.3 3.2-.5 3-.5 3.3-.7 3-.8 3-1.2 3-1.3 2.7-1.5 2.8-1.5 2.7-4.2 5.8-4 5.5-8.8 10.7-8.5 10.8-4.2 5.5-4 5.7-3.3 4.5-2.7 4.8-2.3 4.7-1.7 4.5-1.3 4.5-1 4.5-.5 4.5v4.3l.5 4.2 1 4.3 1.8 4.2 2 4 2.5 4 3 4 3.5 3.8 4.2 3.7m177.8 30-12-2-11.5-2.2-10.8-2.8-10.5-2.7-9.7-3-9-3.3-8.5-3.5-7.5-3.7-7-4-3.3-2-2.7-2-2.8-2.3-2.5-2.2-2.5-2-2-2.3-2-2.2-1.5-2.5-1.5-2.3-1-2.2-1-2.5-.5-2.5-.5-2.3-.2-2.5m363.7 0-.2 2.3-.3 2.5-.7 2.2-.8 2.5-1 2.3-1.2 2.2-1.8 2.3-1.7 2-1.8 2.2-2.2 2.3-2.5 2-2.5 2-2.8 2-6 4-7 3.7-7.5 3.5-8.2 3.5-8.8 3-9.5 3-10 2.8-10.5 2.5-11 2-11.5 2m-150-46-10.7-2-10.5-2.3-10-2.5-9.5-2.7-9-2.8-8.5-3.2-7.8-3.3-7.2-3.2-6.5-3.8-6-3.7-5-4-2.3-2-2.2-2-2-2.3-1.5-2-1.5-2.2-1.5-2-1-2.3-.8-2.2-.7-2.3-.5-2.2-.3-3.3m363.8 0-.3 2.3-.2 2.5-.8 2.2-.7 2.3-1 2.5-1.5 2.2-1.5 2.3-1.8 2-2 2.2-2 2.3-2.5 2-2.5 2-5.7 4-6.5 4-7.3 3.5-7.7 3.5-8.8 3.2-9 3.3-9.7 2.7-10.3 2.5-11 2.3-11.2 2.2"/><path d="m593.5 684.5 4.3-5 3.7-5.5 3-5.2 2.5-5.8 2.3-5.7 1.5-5.8.5-3 .2-3 .3-3v-136.5m-364-1v135.5-1l.2 4.5.5 4.3.8 4 1 4.2 1.2 4.3 1.8 4 1.7 4 2.3 3.7 2.5 4 2.7 3.8 2.8 3.7 3.2 3.5 3.5 3.8 3.8 3.2 3.7 3.5 4 3.3.5.5 4.8 3.2 4.7 3.3 5.3 3.2 5.2 3 5.5 2.8 5.8 2.7 6 2.8 6 2.5 6.2 2.2 6.5 2.3 6.8 2 6.7 2 7 1.7 7 1.5 7.3 1.5 7.5 1.3 5.2.7 10.3 1.3 10.2.7 10.8.5 10.7.3 11-.3 10.8-.5 10.5-.7 10.5-1.5 5-.5 7.2-1.3 7-1.5 7-1.5 6.8-1.7 6.5-1.8 6.5-2 6.5-2 6-2.5 6-2.2 6-2.5 5.5-2.8 5.5-2.7 5.2-3 5-3 5-3 4.5-3.3 5.8-4.5 5.2-4.5 4.8-4.5 4.2-5"/><path d="m578.5 705 1.5 1.8 1.3 1.7 1 1.8.5 1.7.5 3v3l-.5 3-1 2.8-1.3 3-1.7 3-2.3 2.7-2.2 3-3.3 3.3-4.7 4.2-5.8 4.8-3.5 2.5-4 2.5-4.2 2.7-4.5 2.5-5.3 2.8-5.5 2.7-6 2.5-6.5 2.8-6.7 2.5-7.5 2.5-5.5 1.5-5.5 1.5-5.3 1.2-5.5 1-10.5 1.8-10 1-9.7.7-9 .5h-32.8l-9-.5-9.7-.7-10-1-10.5-1.8-5.3-1-5.5-1.2-5.5-1.5-5.5-1.5-7.2-2.5-7-2.5-6.5-2.8-6-2.5-5.5-2.7-5.3-2.8-4.5-2.5-4.2-2.7-4-2.5-3.5-2.5-5.8-4.8-4.7-4.2-3.3-3.3-2.2-3-2.3-2.7-1.5-3-1.5-3-1-2.8-.5-3v-3l.5-3 .3-1.2.5-1.3 1.7-2.5 2-2.2 2.3-2.5m159-87.5 1.5 1.2 1 1.5.7 2 .3 2v12.8l-.3 1.7-.5 1.5-1 1.5-1.2 1.3-1 .7-1.3.8-1.2.2-1.5.3h-15.8l-1.7-.3-1.5-.5-1.5-1-1.3-1-.7-1.2-.8-1.3-.2-1.2-.3-1.5v-12.8l.3-1.7.5-1.8.7-1.2 1-1.3 1.3-1 1.2-.5 1.5-.5h18.5l1 .3 1.3.5z"/><path d="m414.5 614-2.2-2.2-2.8-2.5-3.2-2.8-4.3-3-4.7-3-2.5-1.2-2.5-1.3-2.8-1-2.7-.7-5.3-1.3-5.2-1.2-9-1.3-6.5-.7-2.3-.3-.5 1-1 3-1.2 4.5-1 5.8-.5 3-.8 7.2-.2 8.3v4.2l.2 4.3.3 4.2 1 3.8 1.7 7 2.3 7.2 3 8.8 1.2 3 .8 2 3.2-.8 7.3-1.7 4.7-1.3 4.8-1.7 4.7-2 4.5-2.3 3.5-2.2 3.3-2.5 3.5-2.5 3-2.8 4.7-4.5 3-3.5 1.3-1.2"/><path d="m385 631.5 2.5.5 2.5.3h3.8l4.2-.5 4.8-.8 2.5-1 2.7-.7 2.8-1.3 2.7-1.5m31.3-11.7 2.2-2.3 2.8-2.5 3.5-2.7 4-3 4.7-3 2.5-1.5 2.5-1 2.8-1 2.7-1 5.3-1.3 5.2-1 9-1.2 6.5-.8 2.3-.2 1.5 4 1.2 4.5 1 5.5.3 2.5 1 7.2.2 8.5v8.8l-.5 4.2-.7 4-1.8 6.5-2 6.5-3.2 9.5-1.5 3.3-.8 2-3-.5-7.5-1.8-4.7-1.2-4.8-1.8-4.7-2-4.5-2.2-3.8-2.5-3.2-2.5-3.3-2.5-3-2.8-4.7-4.5-3-3.2-1-1.3"/><path d="m474.3 632.3-2.5.5-2.5.2h-3.8l-4.2-.5-4.8-1-2.5-.7-2.7-1-2.8-1-2.7-1.5m-45.5 27.7-1.3 4-1.5 4.3-1.7 4.2-1.8 4.3-2.2 4.5-2.5 4.5-2.8 4.7-3 4.8-6.2 8.7-5.5 7.3-5 5.7-3.8 4.5-3.2 3.3-2.3 2-2 1.7 24-2.7 2.8 19 .7 6 4.5-5.3 8.8-11.2 5.2-7 5.5-8 3.3-5 3-5.3 2.5-5 2.2-5 2-5.2 1.8-5 1.5-4.8 1.2-4.7 1.3-4.8.7-4.5 1.3-8.5.5-7.7.2-6.5v-.5m30.5 12.7.3.3 1.2 4 1.5 4.2 1.8 4.3 1.7 4.2 2.3 4.5 2.5 4.5 2.7 4.8 3 4.5 6.3 8.7 5.5 7.3 4.7 5.7 4 4.5 3.3 3.3 2.2 2.2 1.8 1.5-23.8-2.7-2.7 19.5-.8 5.7-4.2-5.2-8.8-11-5.5-7.5-5.5-8-3.2-5-3-5-2.5-5-2.3-5-2-5-1.7-5-1.5-5-1.3-4.8-1-4.5-1-4.5-1.2-8.5-.8-7.7v-7.5m-183.2-136 .2-2.5.8-2.5 1.2-2.5 1.5-2.3 2-2.5 2.5-2.2 2.8-2.3 3.2-2.2 3.8-2.3 4-2 4.5-2.2 4.7-2 5-1.8 5.3-2 5.7-1.7 6-1.8 13-3 14-3 15-2.2 16-2.3 16.8-1.5 17.5-1.2 18-.8 18.5-.2 18.7.2 18 .8 17.5 1.2 16.8 1.5 15.7 2.3 15 2.2 14 3 13 3 6 1.8 5.8 1.7 5.5 2 5 1.8 4.7 2 4.5 2.2 4 2 3.5 2.3 3.3 2.2 3 2.3 2.2 2.2 2.3 2.5 1.5 2.3 1.2 2.5.5 2.5.3 2.5v.7l-.3 2.5-.7 2.5-1.3 2.3-1.7 2.5-2 2.2-2.8 2.5-2.7 2.3-3.3 2-3.7 2.2-4 2-4.5 2-4.8 2-5 2-5.5 1.8-5.7 1.7-6 1.8-13 3-13.8 3-15 2.2-15.7 2-16.8 1.8-17.2 1.2-18 .8-18.5.2-18.5-.2-18-.8-17.5-1.2-16.8-1.8-16-2-15-2.5-14-2.7-13-3.3-6-1.7-5.7-1.8-5.3-1.7-5-2-4.7-2-4.5-2-4-2.3-3.8-2-3.2-2.2-2.8-2.3-2.5-2.5-2-2.2-1.5-2.5-1.2-2.5-.8-2.5zm125.2-298.8.8 3.3 30.5 129.2 205.7 106.5 2.3-2.2 157-147 10.2-119.3.5-7.7"/><path d="m607.3 306.8v.5l3.7 134.5"/><path d="m378.8 204.8-.3-.3.8-.5 185.2-114 196 74.3 13.5 5.2-2.5 2.3-164.2 135.5-3.3 3z"/></g></svg>