<svg height="850" viewBox="0 0 850 850" width="850" xmlns="http://www.w3.org/2000/svg"><path d="m339.8 235.3v-5l-.5-2-1.8-.8 1.8-3.7 1.5-4 4.5 1.5 34.5 7.2 3.2.8 3.3 1.2 3 1.5 3.2 1.8 3 1.7 3.3 2.3 3 2.5 3 2.7 6 5.8 6.2 6.7 5.8 7 6 7.8 5.7 8 6 8.2 11.5 17 11.3 16.8 5.7 8 5.8 7.5-.8-1-86.2 15.2-.3.8-8 1.2-7.5 1.5-6.7 1.8-6.5 1.7-5.8 1.8-5.2 1.7-5 1.8-4.3 1.7-7.5 3.5-5.5 3-6.2 3.8-1.5.7-2.8 2.3-2 1-2.2 1.2-2.8.8-3.2 1-4.3 1.2-1.7.5-1.3.5-1 .8-.7.7-.8 1-.5 1.3-.5 1.5-.2 1.2.2 1.3.3 1 .5 1 .7.5 1 .7 1 .3v.2l-3-.5-2.5-.2h-2.5l-2.2.2-2.3.5.5-1v-1.2l-.2-1.5-.5-1.8-.5-1.2-.5-1-1-.8-1-.7-1.3-.5-1.5-.5-4.2-1.3-3.3-.7-2.7-1-2.3-1-2-1.3-2-1.5-2.2-1.5-6.3-3.7-5.7-3-7.3-3.5-4.5-1.8-4.7-1.7-5.5-1.8-5.8-1.7-6.2-1.8-7-1.7-7.3-1.5-8-1.3-.2-.7-86.3-15-2 2.5 5.8-7.5 5.7-8.3 11.5-16.7 11.8-17.3 5.7-8.5 6-8.2 6-7.8 6-7.2 6-6.8 3.3-3 3-3 3-2.7 3.2-2.5 3.3-2.3 3-2 3.2-1.7 3.3-1.5 3.2-1.3 3-.7 39.8-7.5 1.5 5.7 2 5.5 2 5.3 2.2 5.2 2.5 5.3 2.8 4.7 2.7 4.5 3 4.3 3.3 4 3.2 3.7 3.5 3 3.5 2.8 3.8 2.5 4 1.7 4 1.3 2 .2 2 .3 4.7.2 5-.2 4.8-1 4.7-1.3 4.5-2 4.3-2.2 4-2.5 4-3.3 3.5-3.5 3.2-3.7 2.8-4 2.5-4.5 1.7-4.5 1.5-5 1-5.3v-2.5z" fill="#a8d7f4"/><path d="m339.8 235.3-.3 2.7v2.5l-1 5.3-1.5 5-1.7 4.5-2.5 4.5-2.8 4-3.2 3.7-3.5 3.5-4 3.3-4 2.5-4.3 2.2-4.5 2-4.7 1.3-4.8 1-5 .2-4.7-.2-2-.3-2-.2-4-1.3-4-1.7-3.8-2.5-3.5-2.8-3.5-3-3.2-3.7-3.3-4-3-4.3-2.7-4.5-2.8-4.7-2.5-5.3-2.2-5.2-2-5.3-2-5.5-1.5-5.7v-.5l.5.2 2.2 2.8 1.3 1.5 1 1 .5.5h.5l.2-.3.3-.2.5-.5 2 3.7 2 3.5 2.2 3 2.3 3.3 2.5 2.7 2.5 2.8 2.7 2.2 2.8 2.3 3 2 3.2 1.7 3 1.5 3.3 1.3 3.5 1 3.5.7 3.5.3 3.5.2 3.7-.2 3.5-.3 3.5-.7 3.3-1 3.5-1.3 3-1.5 3.2-1.7 3-2 2.8-2.3 2.7-2.5 2.5-2.7 2.5-2.8 2.5-3 2-3.2 2-3.5 2-3.8 1.8.8.5 2v1.5z" fill="#ffeec8"/><path d="m294.3 218.5h-.3.5zm-33.5-41.2v1.8l.3 1 .3 1.3.5 1 .8 1 1 .8 1 .5 1.3.3 1.3.3 1.3-.3 1.3-.5 1.3-1 1-1 .8-1.3.8-1.3.5-1.5.3-1.3-1.8-1-1.8-.8-1.8-.3-2-.3h-2.2l-1.5.3-1.5.5-1.5.8zm-21 32.5-1-5.8-1-6-.5-6.3-.3-6.3.3-12.3h-.8l-2.3-.5h-2.5l2-3 2.5-3.8 3.3-4 3.3-4 6-6.3 2.5-2.8 1.3-.8 2-1 5.8-2.5 15.8-6.3 8.5-3.5 8.3-3.5 7.3-3.3 3-1.7 2.5-1.5.5.3 3.3 2.3 2.5 2.2 3.3 2.8 3.5 3.5 4.3 4.5 4.5 5.3 4.8 6.5 1.3 1.3 1.5 1.8 4 4.3 2 2.5 2 2.5 1.8 3 1.3 3 .5 1.8.3 13.3v6l-.5 6-1 6-1 5.5-1.5 5.5-1.8 5.3-1.5 4-1.8 3.8-2 3.8-2 3.5-2 3.3-2.5 3-2.5 2.8-2.5 2.8-2.8 2.5-2.8 2.3-3 2-3.3 1.8-3 1.5-3.5 1.3-3.3 1-3.5.8-3.5.3-3.8.3-3.5-.3-3.5-.3-3.5-.8-3.5-1-3.3-1.3-3-1.5-3.3-1.8-3-2-2.8-2.3-2.8-2.3-2.5-2.8-2.5-2.8-2.3-3.3-2.3-3-2-3.5-2-3.8-2-4.3-1.5-4.3-1.5-4.8zm73-31v1.3l.5 1 .5 1 .8 1 1 .8 1 .5 1.3.3 1.3.3 1.3-.3 1.3-.3 1-.5 1-.8.8-1 .5-1 .5-1v-2.3l-.3-1 .5-.8-1.5-.8-1.5-.5-1.5-.3h-1.8l-2.3.3-2.3.8-2 1-2 1.3h2z" fill="#ffeec8"/><path d="m376.3 398.8 11.2-48 .3-.8 86.2-15.2.8 1 8.7 11.5 7.3 10 6 8.2 4.5 7 1.7 3 1.3 3 1 2.5.7 2.3.5 2.2v2l-.2 1.8-.5 1.7-1.3 2.3-1.7 2.2-1.8 2-2.2 1.8-2.3 1.5-2.7 1.5-2.8 1.5-3 1-3.2 1.2-3.5.8-7.3 1.5-7.7 1-8 .7h-17l-8.3-.2-8.5-.5-8-.8-7.7-1-14-1.7-14-2.3-5.3-1zm-270.8-61.5 86.3 15 .2.7 11 48 1 3.8-5.7 1-6.5 1-8.5 1.5-13.8 1.7-7.7.8-8.3.7-8.2.5-8.3.3h-8.5l-8.2-.3-8-.5-7.5-1-7.3-1.5-3.2-1-3.3-1-3-1.2-2.7-1.3-2.5-1.5-2.3-1.5-2.2-2-1.8-1.7-1.5-2.3-1.2-2.2-.5-1.8-.3-1.7v-1.8l.3-2.2.7-2.3 1-2.5 1.3-2.7 1.7-3 4.3-6.8 5.5-8 7-9.5 8.5-11 .2-.2z" fill="#a8d7f4"/><path d="m707.5 446.8 65.5 80.5-49.2 49.2-28.8-28.7 1.5 202.2h-203l1.5-202.2-28.7 28.7-49.3-49.2 65.5-80.5 72-10.8-1.2 1.8-1.3 2-.7 2-1 2-.5 2-.5 2-.3 2.2-.2 2 .2 3.5.8 3.5 1.2 3.5 1.5 3.5 2 3.3 2.5 3.2 2.8 3 3 3 3.2 2.5 3.8 2.5 3.7 2.3 4.3 1.7 4.2 1.5 4.5 1 4.8.8 4.7.2 4.8-.2 4.7-.8 4.3-1 4.2-1.5 4.3-1.7 3.7-2.3 3.5-2.5 3.3-2.5 3-3 2.7-3 2.3-3.2 2-3.3 1.5-3.5 1.2-3.5.5-3.5.3-3.5v-2l-.3-2.2-.5-2-.5-2-1-2-.7-1.8-1.3-2-1.2-1.7z" fill="#fff5b4"/><path d="m636.8 436.3 1.2 1.7 1.3 2 .7 1.8 1 2 .5 2 .5 2 .3 2.2v2l-.3 3.5-.5 3.5-1.2 3.5-1.5 3.5-2 3.3-2.3 3.2-2.7 3-3 3-3.3 2.5-3.5 2.5-3.7 2.3-4.3 1.7-4.2 1.5-4.3 1-4.7.8-4.8.2-4.7-.2-4.8-.8-4.5-1-4.2-1.5-4.3-1.7-3.7-2.3-3.8-2.5-3.2-2.5-3-3-2.8-3-2.5-3.2-2-3.3-1.5-3.5-1.2-3.5-.8-3.5-.2-3.5.2-2 .3-2.2.5-2 .5-2 1-2 .7-2 1.3-2 1.2-1.8 1.5-1.7 1.8-2 2-1.8 2-1.5 2.2-1.5 2.3-1.5 2.5-1.2 2.7-1.3 2.5-1.2 3-.8 2.8-1 3-.7 3.2-.5 3-.3 3.3-.2 3.2-.3 3.5.3 3.3.2 3 .3 3.2.7 3 .5 3 1 2.8 1 2.7 1 2.5 1.3 2.5 1.2 2.3 1.5 2.2 1.5 2 1.8 2 1.7 1.8 1.8z" fill="#fff5b4"/><path d="m394.8 405.8v4.7l-.3 7-.5 5-.5 4.8-.5 6.2-.2 3-.8 2.5-1 2.3-1.2 1.7-1.5 1.5-1.8 1.3-2 1-2 .5-2 .5-1.7.2h-4l-4.3-.5-4.2-.7-4.3-1-4.2-1.5-4-1.5-4-1.5-2-1-2-1.3-2.5-1.7-2.3-1.8-2.5-2-2.2-2.2-2.3-2.5-1.7-2.8 2 .8 2 .2 2 .3 1.5-.3 4.2-1.5 3.5-1.5 3.3-1.5 2.7-1.5 3.8-2.5 2.5-2 5.2-4.5 4.3-4 3.5-4.2 3.5-5-.8 3.7 5.3 1z" fill="#a8d7f4"/><path d="m285 395 2.3-.5 2.2-.2h2.5l2.5.2 3 .5 1.8.5 1.5.5-.8 1.5-.5 1.5-.2 1.3.2 1.5.5 1.2.8 1.3.7 1.2 1.3 1 1.2.5 1.5.3 1.3.5.5 2 1 2 1.5 1.7 1 1 1 .8.7.2.8.3 1.5.2 1.2-.5 1-.2-.2.7v1l.5.8.7 1 1.8 2 2 1.7 1.2.8 1 .2 1 .3h1l1.5-.3.8-.5-.3.3v.5l.8.7 1.5.8 2 .7 1.7 2.8 2.3 2.5 2.2 2.2 2.5 2 2.3 1.8 2.5 1.7 2 1.3 2 1 4 1.5 4 1.5 4.2 1.5 4.3 1 4.2.7 4.3.5h4l1.7-.2 2-.5v.2l-1.5 4-1 4.3-1 4-.5 4.2-.2 4.3v4l.2 4 1 3.7 2 6.5 2.5 6.5 2.5 6.5 2.5 6.5 2.3 6.5 1 3.5.7 3.3.5 3.5.5 3.5v7l-206.2-1.3v-7l.5-3.2.5-3.5 1-3.3.7-3.5 2.3-6.5 2.5-6.5 2.5-6.5 2.5-6.5 2-6.5.7-3.2.5-3.5.3-3.8-.3-3.5-.5-3.7-.5-3.8-1-3.7-1-3.5h3.5l3.8-.3 3.7-.5 3.8-1 3.7-1 3.8-1.2 3.5-1.5 3.2-1.3 2-1 2.3-1.2 2.2-1.5 2.5-2 2.3-2 2.5-2.3 2-2.5 2-2.7 2-.8 1.5-.7.5-.8v-.5l-.3-.2 1 .5 1.5.2h2l1-.5 1-.7 2.3-1.8 1.7-2 .8-1 .2-.7.3-1-.5-.8 1.2.3 1.3.5 1.5-.3.7-.2.8-.3 1-.7.7-1 1.5-1.8 1-2 .8-1.7v-1l1.2.2 1.3-.2 1.5-.5 1-1 1-1 .7-1.5.5-1.3.3-1.2-.3-1.5-.7-1.5-.8-1.8.5-.2 2.8-1.5z" fill="#ffeec8"/><path d="m360.3 416-.5.5-2.5 2-3.8 2.5-2.7 1.5-3.3 1.5-3.5 1.5-4.2 1.5-1.5.3-2-.3-2-.2-2-.8-2-.7-1.5-.8-.8-.7v-.5l.3-.3-.8.5-1.5.3h-1l-1-.3-1-.2-1.2-.8-2-1.7-1.8-2-.7-1-.5-.8v-1l.2-.7-1 .2-1.2.5-1.5-.2-.8-.3-.7-.2-1-.8-1-1-1.5-1.7-1-2-.5-2-1.3-.5-1.5-.3-1.2-.5-1.3-1-.7-1.2-.8-1.3-.5-1.2-.2-1.5.2-1.3.5-1.5.8-1.5 2.2-4 2.3-3.2 2-3 2.5-3 2.5-3 2.7-2.5 2.8-2.3 1.5-.7 6.2-3.8 5.5-3 7.5-3.5 4.3-1.7 5-1.8 5.2-1.7 5.8-1.8 6.5-1.7 6.7-1.8 7.5-1.5 8-1.2-11.2 48-3.5 5-3.5 4.2-4.3 4-5.2 4.5zm-13.8-243.2.5-.3 2.3-.5h1.2l1.3.3 1 .2 1 .3.7.5.8.7 1 1.5.5 1.8v1.7l-.3 1.8-.5 1.7-.5 1.5-1.2 3-1 2.8-.5 2.2v8.3l-.3 2.5v1l-.5 1-.7 1.2-1 1.3-1 .7-1.5.8-1.8.5-2-.3 1-5.5 1-6 .5-6v-6l-.2-13.2z" fill="#ffeec8"/><path d="m305.5 125-2.5 1.5-3 1.8-7.2 3.2-8.3 3.5-8.5 3.5-15.7 6.3-5.8 2.5-2 1-1.2.7-2.5 2.8-6 6.2-3.3 4-3.2 4-2.5 3.8-2 3-.5-18.3.2-5.2.8-5 1.2-4.8 1.5-4.5 1.8-4 2-3.7 2-3.5 2.2-3 2.3-2.8 2.2-2.5 3.8-3.7 2.7-2.5 1-.8 3.3-2 1.2-.7 4.8-2.5 5-2 5.5-1.5 5.7-1.3 6-.7 6.5-.3 7 .3 7.3.5 4.5 1 4.2 1.2 4.3 1.5 4 2.3 3.7 2.5 3.5 3 3.5 3.2 3 3.5 3 4 2.8 4.3 2.2 4.5 2.3 4.7 1.7 5 1.5 5.3 1 5.2 1 5.5v3.8l-.2 3.7-1.5 7.8-6 .2-1.3-3-1.7-3-2-2.5-2-2.5-4-4.2-1.5-1.8-1.3-1.2-4.7-6.5-4.5-5.3-4.3-4.5-3.5-3.5-3.2-2.7-2.5-2.3-3.3-2.2z" fill="#9c5c25"/><path d="m325.5 176-.5.8.3 1v2.3l-.5 1-.5 1-.8 1-1 .8-1 .5-1.3.3-1.3.3-1.3-.3-1.3-.3-1-.5-1-.8-.8-1-.5-1-.5-1v-2.3h-2l2-1.3 2-1 2.3-.8 2.3-.3h1.8l1.5.3 1.5.5zm-4.2 2.8-.3-.8-.5-.8-.8-.3-.8-.3-1 .3-.8.3-.5.8v1.6l.5.8.8.5h1.8l.8-.5.5-.8z" fill="#fff"/><path d="m319 176.8.8.2.7.3.5.7.3.8-.3.7-.5.8-.7.5h-1.8l-.7-.5-.5-.8v-1.5l.5-.7.7-.3z" fill="#231f20"/><path d="m297.5 394.8-1-.3-1-.7-.7-.5-.5-1-.3-1-.2-1.3.2-1.2.5-1.5.5-1.3.8-1 .7-.7 1-.8 1.3-.5 1.7-.5 4.3-1.2 3.2-1 2.8-.8 2.2-1.2 2-1-2.7 2.5-2.5 3-2.5 3-2 3-2.3 3.2-2.2 4-1.5-.5-1.8-.5zm-12.7-5.3.5 1.8.2 1.5v1.2l-.5 1-3.2 1.3-2.8 1.5-.5.2-2.2-3.7-2-3.3-2.3-3-2.2-3-2.5-3-2.8-2.5 2 1.3 2.3 1 2.7 1 3.3.7 4.2 1.3 1.5.5 1.3.5 1 .7 1 .8.5 1z" fill="#ffeec8"/><path d="m264.5 379.5 2.8 2.5 2.5 3 2.2 3 2.3 3 2 3.3 2.2 3.7.8 1.8.7 1.5.3 1.5-.3 1.2-.5 1.3-.7 1.5-1 1-1 1-1.5.5-1.3.2-1.2-.2v1l-.8 1.7-1 2-1.5 1.8-.7 1-1 .7-.8.3-.7.2-1.5.3-1.3-.5-1.2-.3.5.8-.3 1-.2.7-.8 1-1.7 2-2.3 1.8-1 .7-1 .5h-2l-1.5-.2-1-.5.3.2v.5l-.5.8-1.5.7-2 .8-2 .7-2 .3-2 .2-1.8-.2-4.2-1.5-3.8-1.5-3.2-1.5-2.5-1.5-2.3-1.5-1.7-1.3-2.3-1.7h.3l-5.3-4.5-4.2-4-3.5-4.3-3.8-5-11-48 8 1.3 7.3 1.5 7 1.7 6.2 1.8 5.8 1.7 5.5 1.8 4.7 1.7 4.5 1.8 7.3 3.5 5.7 3 6.3 3.7 2.2 1.5z" fill="#ffeec8"/><path d="m266.8 174.8 2 .3 1.8.3 1.8.8 1.8 1-.3 1.3-.5 1.5-.8 1.3-.8 1.3-1 1-1.3 1-1.3.5-1.2-.1-1.3-.3-1.3-.3-1-.5-1-.8-.8-1-.5-1-.1-1.1-.3-1v-1.8l-.3-1 1.5-.8 1.5-.5 1.5-.3h1.9zm2.5 4-.3-.8-.5-.8-.5-.2-1-.3-.8.3-.8.3-.4.7-.3.8.3.8.5.8.8.5h1.8l.5-.5.5-.8z" fill="#fff"/><path d="m267 176.8 1 .2.5.3.5.7.3.8-.3.7-.5.8-.5.5h-1.7l-.8-.5-.5-.8-.2-.7.2-.8.5-.7.8-.3z" fill="#231f20"/><path d="m200.5 450.3-2.7-.5-2.5-.8-2.5-1-2-1.5-1.8-2-1.2-2.5-1-2.7-.5-3.5-.3-3.5-.2-3.5-1.3-6.5-.7-6.5-.3-3.8-.2-3.7 8.5-1.5 6.5-1 5.7-1-1-3.8 3.8 5 3.5 4.3 4.2 4 5.3 4.5h-.3l2.3 1.7 1.7 1.3 2.3 1.5 2.5 1.5 3.2 1.5 3.8 1.5 4.2 1.5 1.8.2 2-.2 2-.3 2-.7-2 2.7-2 2.5-2.5 2.3-2.3 2-2.5 2-2.2 1.5-2.3 1.2-2 1-3.2 1.3-3.5 1.5-3.8 1.2-3.7 1-3.8 1-3.7.5-3.8.3z" fill="#a8d7f4"/><path d="m239.8 209.8h-2l-1.8-.3-1.5-.7-1.2-1-1-1-.8-1.3-.5-1-.2-1.2v-10.5l-.5-2.5-1-2.5-1.3-3-.7-1.5-.3-1.8-.2-2v-1.7l.5-1.8 1-1.5.7-.5.8-.5 1-.5 1-.2h2.5l2.2.5h.8l-.3 12.2.3 6.3.5 6.2 1 6z" fill="#ffeec8"/><g fill="none" stroke="#231f20" stroke-linecap="round" stroke-miterlimit="10"><path d="m253.8 181.5 1.5-1.5 1.5-1.5 1.7-1.2 2-1 1.5-.8 1.5-.5 1.5-.2h1.8l2 .2 1.7.3 1.8.7 1.7 1 1 1 1 1 1 1 .8 1.3" stroke-width="6.25"/><path d="m274 176.8v.2l-.2 1.3-.5 1.5-.8 1.2-.7 1.3-1 1-1.3 1-1.2.5-1.3.2-1.2-.2-1.3-.3-1-.5-1-.7-.7-1-.5-1-.3-1.3-.2-1v-1.7" stroke-width="3.25"/><path d="m332.3 181.5-1.5-1.7-1.5-1.5-1.8-1.3-2-1-1.5-.7-1.5-.5-1.5-.3h-1.7l-2.3.3-2.2.7-2 1-2 1.3-1.3 1.5-1.2 1.7" stroke-width="6.25"/><path d="m312.8 177.8v2.2l.5 1 .5 1 .7 1 1 .8 1 .5 1.3.2 1.2.3 1.3-.3 1.2-.2 1-.5 1-.8.8-1 .5-1 .5-1v-2.2l-.3-1" stroke-width="3.25"/><path d="m236.5 173.3-2.2-.5h-2.5l-1 .2-1 .5-.8.5-.7.5-1 1.5-.5 1.8v1.7l.2 2 .3 1.8.7 1.5 1.3 3 1 2.5.5 2.5v10.5l.2 1.2.5 1 .8 1.3 1 1 1.2 1 1.5.7 1.8.3h2.2m107-37.3 2.3-.5h1.2l1.3.3 1 .2 1 .3.7.5.8.7 1 1.5.5 1.8v1.7l-.3 1.8-.5 1.7-.5 1.5-1.2 3-1 2.8-.5 2.2v8.3l-.3 2.5v1l-.5 1-.7 1.2-1 1.3-1 .7-1.5.8-1.8.5-2-.3h-.5" stroke-width="7"/><path d="m279 234.5 3.3 1 3.5.8 3.5.2 3.7.3 3.8-.3 3.5-.5 3.2-.7 2.8-1" stroke-width="6.25"/><path d="m346.3 171.5v.8l.2 13.2v6l-.5 6-1 6-1 5.5-1.5 5.5-1.7 5.3-1.5 4-1.8 3.7-2 3.8-2 3.5-2 3.2-2.5 3-2.5 2.8-2.5 2.7-2.7 2.5-2.8 2.3-3 2-3.2 1.7-3 1.5-3.5 1.3-3.3 1-3.5.7-3.5.3-3.7.2-3.5-.2-3.5-.3-3.5-.7-3.5-1-3.3-1.3-3-1.5-3.2-1.7-3-2-2.8-2.3-2.7-2.2-2.5-2.8-2.5-2.7-2.3-3.3-2.2-3-2-3.5-2-3.7-2-4.3-1.5-4.2-1.5-4.8-1.5-4.7-1-5.8-1-6-.5-6.2-.3-6.3.3-12.2v-7.3" stroke-width="7"/><path d="m294.3 218.5 1-.2.7-.5 1-.5.5-.3.5-.2h.8l1.2.2 2 .5 1 .3h1l.8-.3.7-.5.5-1 .3-1.2v-2l-.3-.5-.5-.8-1-1.2-1.2-1.5m-9 9.7h.2-.5zm-9.5-37.2 1 1.2.7 1.3.5 1.2.5 1.5.5 3.3.3 3.5-.3 3.5-.5 3.5-.5 3.2-1 2.8-.7 2.5-1 1.5-1.3 1.2-.2.5-.5.8v1.7l.2 1.5.5 1 .8.5 1 .3.7-.3h1l2-.5 1.3-.2h.7l.5.2.5.3 1 .7.8.3 1 .2" stroke-width="6.25"/><path d="m269.3 178.8-.3.7-.5.8-.5.5h-1.7l-.8-.5-.5-.8-.2-.7.2-.8.5-.7.8-.3.7-.2 1 .2.5.3.5.7zm52 0-.3.7-.5.8-.7.5h-1.8l-.7-.5-.5-.8v-1.5l.5-.7.7-.3 1-.2.8.2.7.3.5.7z" stroke-width="3.25"/><path d="m281.5 171.3-.5-1-.7-1-2-1.5-2.3-1.5-2.7-1-2.8-.5-2.7-.5h-2.5l-2.3.2-3.2.8-3 1-2.8 1.5-3.5 2.2m52.8 0 .7-1 .8-1 1.7-1.5 2.5-1.5 2.5-1 2.8-.5 2.7-.5h2.5l2.3.3 3.5.7 2.7 1 3 1.5 3.5 2.3" stroke-width="6.25"/><path d="m351.8 170.3 1.5-7.8.2-3.7v-3.8l-1-5.5-1-5.2-1.5-5.3-1.7-5-2.3-4.7-2.2-4.5-2.8-4.3-3-4-3-3.5-3.5-3.2-3.5-3-3.7-2.5-4-2.3-4.3-1.5-4.2-1.2-4.5-1-7.3-.5-7-.3-6.5.3-6 .7-5.7 1.3-5.5 1.5-5 2-4.8 2.5-1.2.7-3.3 2-1 .8-2.7 2.5-3.8 3.7-2.2 2.5-2.3 2.8-2.2 3-2 3.5-2 3.7-1.8 4-1.5 4.5-1.2 4.8-.8 5-.2 5.2.5 18.3 2-3 2.5-3.8 3.2-4 3.3-4 6-6.2 2.5-2.8 1.2-.7 2-1 5.8-2.5 15.7-6.3 8.5-3.5 8.3-3.5 7.2-3.2 3-1.8 2.5-1.5.5.3 3.3 2.2 2.5 2.3 3.2 2.7 3.5 3.5 4.3 4.5 4.5 5.3 4.7 6.5 1.3 1.2 1.5 1.8 4 4.2 2 2.5 2 2.5 1.7 3 1.3 3 .5 1.8.2.5.3 2.2" stroke-width="7"/><path d="m309.8 125.8h-1.5l-2.3-.5-.5-.3h-.2l1.2-1.5 1.3-1.5 1-1.7 1-1.8.7-2 .5-2 .3-2 .2-2" stroke-width="7"/><path d="m103.5 339.8 5.8-7.5 5.7-8.3 11.5-16.7 11.8-17.3 5.7-8.5 6-8.2 6-7.8 6-7.2 6-6.8 3.3-3 3-3 3-2.7 3.2-2.5 3.3-2.3 3-2 3.2-1.7 3.3-1.5 3.2-1.3 3-.7 39.8-7.5" stroke-width="14"/><path d="m105.5 337.3 86.3 15 .2.7 11 48 1 3.8-5.7 1-6.5 1-8.5 1.5-13.8 1.7-7.7.8-8.3.7-8.2.5-8.3.3h-8.5l-8.2-.3-8-.5-7.5-1-7.3-1.5-3.2-1-3.3-1-3-1.2-2.7-1.3-2.5-1.5-2.3-1.5-2.2-2-1.8-1.7-1.5-2.3-1.2-2.2-.5-1.8-.3-1.7v-1.8l.3-2.2.7-2.3 1-2.5 1.3-2.7 1.7-3 4.3-6.8 5.5-8 7-9.5 8.5-11 .2-.2zm70-25.3-.2 15.8v15.5m72 85 1-1.5" stroke-width="14"/><path d="m183.3 407.3v1l.2 3.7.3 3.8.7 6.5 1.3 6.5.2 3.5.3 3.5.5 3.5 1 2.7 1.2 2.5 1.8 2 2 1.5 2.5 1 2.5.8 2.7.5h3.5l3.8-.3 3.7-.5 3.8-1 3.7-1 3.8-1.2 3.5-1.5 3.2-1.3 2-1 2.3-1.2 2.2-1.5 2.5-2 2.3-2 2.5-2.3 2-2.5 2-2.7" stroke-width="14"/><path d="m200.5 449.5v.8l1 3.5 1 3.7.5 3.8.5 3.7.3 3.5-.3 3.8-.5 3.5-.7 3.2-2 6.5-2.5 6.5-2.5 6.5-2.5 6.5-2.3 6.5-.7 3.5-1 3.3-.5 3.5-.5 3.2v7m194.7-84.5-1.5 4-1 4.3-1 4-.5 4.2-.2 4.3v4l.2 4 1 3.7 2 6.5 2.5 6.5 2.5 6.5 2.5 6.5 2.3 6.5 1 3.5.7 3.3.5 3.5.5 3.5v7" stroke-width="14"/><path d="m283.5 479 1.8 1.8 2.2 2.5 1.3 1.2 1.2.8 1.5.7h1.3l1.5-.5 1.2-.7.5-1 .5-1v-1.3l-.5-1.2-.5-1.3-.7-1" stroke-width="12.5"/><path d="m339.3 228.3.5 2v5l-.3 2.7v2.5l-1 5.3-1.5 5-1.7 4.5-2.5 4.5-2.8 4-3.2 3.7-3.5 3.5-4 3.3-4 2.5-4.3 2.2-4.5 2-4.7 1.3-4.8 1-5 .2-4.7-.2-2-.3-2-.2-4-1.3-4-1.7-3.8-2.5-3.5-2.8-3.5-3-3.2-3.7-3.3-4-3-4.3-2.7-4.5-2.8-4.7-2.5-5.3-2.2-5.2-2-5.3-2-5.5-1.5-5.7v-.5l.5.2 2.2 2.8 1.3 1.5 1 1 .5.5h.5l.2-.3.3-.2" stroke-width="14"/><path d="m251 425.3 1 .5 1.5.2h2l1-.5 1-.7 2.3-1.8 1.7-2 .8-1 .2-.7.3-1-.5-.8-.5-.7-1-.5-4.5-2.8-4.3-2.5-4.5-3" stroke-width="7"/><path d="m261.8 417 .5.5 1.2.3 1.3.5 1.5-.3.7-.2.8-.3 1-.7.7-1 1.5-1.8 1-2 .8-1.7" stroke-width="12.5"/><path d="m189.8 352.8 2.2.2 8 1.3 7.3 1.5 7 1.7 6.2 1.8 5.8 1.7 5.5 1.8 4.7 1.7 4.5 1.8 7.3 3.5 5.7 3 6.3 3.7 2.2 1.5 2 1.5 2.8 2.5 2.5 3 2.2 3 2.3 3 2 3.3 2.2 3.7.8 1.8.7 1.5.3 1.5-.3 1.2-.5 1.3-.7 1.5-1 1-1 1-1.5.5-1.3.2-1.2-.2-1.3-.5-1.5-1-3.5-2.3-4-3-2.2-1.7-2.8-1.8m-55.2.8.7 1.2 3.8 5 3.5 4.3 4.2 4 5.3 4.5-.5-.5.2.2v.3l2.3 1.7 1.7 1.3 2.3 1.5 2.5 1.5 3.2 1.5 3.8 1.5 4.2 1.5 1.8.2 2-.2 2-.3 2-.7 2-.8 1.5-.7.5-.8v-.5l-.3-.2-16-7.8" stroke-width="7"/><path d="m261.5 377.3 3 2.2 2 1.3 2.3 1 2.7 1 3.3.7 4.2 1.3 1.5.5 1.3.5 1 .7 1 .8.5 1 .5 1.2.5 1.8.2 1.5v1.2l-.5 1-.7 1-1 .5-1 .5-1.5.3" stroke-width="7"/><path d="m476.3 337.8-1.5-2-5.8-7.5-5.7-8-11.3-16.8-11.5-17-6-8.2-5.7-8-6-7.8-5.8-7-6.2-6.7-6-5.8-3-2.7-3-2.5-3.3-2.3-3-1.7-3.2-1.8-3-1.5-3.3-1.2-3.2-.8-34.5-7.2" stroke-width="14"/><path d="m474 334.8-86.2 15.2-.3.8-11.2 48-.8 3.7 5.3 1 14 2.3 14 1.7 7.7 1 8 .8 8.5.5 8.3.2h17l8-.7 7.7-1 7.3-1.5 3.5-.8 3.2-1.2 3-1 2.8-1.5 2.7-1.5 2.3-1.5 2.2-1.8 1.8-2 1.7-2.2 1.3-2.3.5-1.7.2-1.8v-2l-.5-2.2-.7-2.3-1-2.5-1.3-3-1.7-3-4.5-7-6-8.2-7.3-10-8.7-11.5zm-70-25.3-.2 9.3-.3 7.7-.2 7.8v9" stroke-width="14"/><path d="m299.3 395.5-1.8-.5-3-.5-2.5-.2h-2.5l-2.2.2-2.3.5-3.2 1.3-2.8 1.5" stroke-width="18.75"/><path d="m332.3 426-1-1.5m63.5-14-.3 7-.5 5-.5 4.8-.5 6.2-.2 3-.8 2.5-1 2.3-1.2 1.7-1.5 1.5-1.8 1.3-2 1-2 .5-2 .5-1.7.2h-4l-4.3-.5-4.2-.7-4.3-1-4.2-1.5-4-1.5-4-1.5-2-1-2-1.3-2.5-1.7-2.3-1.8-2.5-2-2.2-2.2-2.3-2.5-1.7-2.8" stroke-width="14"/><path d="m328.5 423h-.2l-.8.5-1.5.3h-1l-1-.3-1-.2-1.2-.8-2-1.7-1.8-2-.7-1-.5-.8v-1l.2-.7.5-.8 1-.5 4.8-2.7 4.2-2.5 4.3-3" stroke-width="7"/><path d="m317.8 414.8-.8.5-1 .2-1.2.5-1.5-.2-.8-.3-.7-.2-1-.8-1-1-1.5-1.7-1-2-.5-2m8.2-30.5-2.7 2.5-2.5 3-2.5 3-2 3-2.3 3.2-2.2 4-.8 1.5-.5 1.5-.2 1.3.2 1.5.5 1.2.8 1.3.7 1.2 1.3 1 1.2.5 1.5.3 1.5-.5 1.5-.5 1.8-1.3 1.7-1.2 4.3-3.3 2.7-1.7 2.8-2m68-46.3-2.3.3-8 1.2-7.5 1.5-6.7 1.8-6.5 1.7-5.8 1.8-5.2 1.7-5 1.8-4.3 1.7-7.5 3.5-5.5 3-6.2 3.8-1.5.7-2.8 2.3m17.3 48.7-2-.7-1.5-.8-.8-.7v-.5l.3-.3 16.2-7.7m32.5-17.8-.7 1.3-3.5 5-3.5 4.2-4.3 4-5.2 4.5-2.5 2-3.8 2.5-2.7 1.5-3.3 1.5-3.5 1.5-4.2 1.5h-1.3l.3-.2 1-.8 2.2-1.5 3.8-1.7 5.7-2.8 8.3-3.5.5-.5-.5.5" stroke-width="7"/><path d="m317.8 375-2.8 2.3-2 1-2.2 1.2-2.8.8-3.2 1-4.3 1.2-1.7.5-1.3.5-1 .8-.7.7-.8 1-.5 1.3-.5 1.5-.2 1.2.2 1.3.3 1 .5 1 .7.5 1 .7 1 .3 1 .2" stroke-width="7"/><path d="m703 312.8-24.2 73-69.5-33.5" stroke-width="21"/><path d="m519.8 355.8 1.7-6.3 2.3-5.7 3-5.8 3.2-5.5 3.8-5.2 4-5 4.5-4.5 5-4.5 5-3.8 5.5-3.5 5.7-3 5.8-2.7 6-2 6.2-1.5 3-.5 3.3-.3 3-.2 3.2-.3 4 .3 4 .2 3.8.5 4 .8 3.7.7 3.8 1.3 3.5 1.2 3.7 1.3 3.5 1.7 3.5 1.8 3.3 1.7 3.2 2.3 3 2.2 3.3 2.5 2.7 2.5 2.8 2.8 2.7 2.7 2.5 3 2.5 3.3 2.3 3.2 2.2 3.5 1.8 3.5 2 3.5 1.5 4 1.5 3.8 1.2 4 1.3 4.2.7 4.3.8 4.2.5 4.5.5 4.5v4.5" stroke-width="21"/><path d="m636.8 436.3 1.2 1.7 1.3 2 .7 1.8 1 2 .5 2 .5 2 .3 2.2v2l-.3 3.5-.5 3.5-1.2 3.5-1.5 3.5-2 3.3-2.3 3.2-2.7 3-3 3-3.3 2.5-3.5 2.5-3.7 2.3-4.3 1.7-4.2 1.5-4.3 1-4.7.8-4.8.2-4.7-.2-4.8-.8-4.5-1-4.2-1.5-4.3-1.7-3.7-2.3-3.8-2.5-3.2-2.5-3-3-2.8-3-2.5-3.2-2-3.3-1.5-3.5-1.2-3.5-.8-3.5-.2-3.5.2-2 .3-2.2.5-2 .5-2 1-2 .7-2 1.3-2 1.2-1.8 1.5-1.7 1.8-2 2-1.8 2-1.5 2.2-1.5 2.3-1.5 2.5-1.2 2.7-1.3 2.5-1.2 3-.8 2.8-1 3-.7 3.2-.5 3-.3 3.3-.2 3.2-.3 3.5.3 3.3.2 3 .3 3.2.7 3 .5 3 1 2.8 1 2.7 1 2.5 1.3 2.5 1.2 2.3 1.5 2.2 1.5 2 1.8 2 1.7 1.8 1.8z" stroke-width="14"/><path d="m635.5 436 1.3.3 70.7 10.5 65.5 80.5-49.2 49.2-28.8-28.7 1.5 202.2h-203l1.5-202.2-28.7 28.7-49.3-49.2 65.5-80.5 72-10.8" stroke-width="14"/></g></svg>