<svg height="850" viewBox="0 0 850 850" width="850" xmlns="http://www.w3.org/2000/svg"><path d="m631 362.3 1.8 3.2 2 3 2 2.8 2.2 2.5 2.3 2 2.5 2 2.5 1.7 2.7 1.5 2.8 1.3 3 1.2 3 1 3 1 6.5 1.5 6.7 1 13.8 2 7.2 1 7 1.5 7 1.8 3.5 1 3.5 1.2 3.5 1.5 3.5 1.5 3.3 1.8 3.2 2.2 4.5 3.3 4.3 3.7 4 4 3.5 4.3 3.2 4.7 2.8 4.8 2.7 5 2.3 5.2 2 5.5 1.5 5.5 1.5 5.5 1.2 5.5.8 5.8.7 5.5.3 5.5.2 5.5v8l-.7 7.7-1.3 7.8-1.7 7.5-2.3 7.5-2.5 7.2-3 7-3.5 6.8-4 6.7-4.2 6.5-4.5 6-5 6-5.3 5.8-5.5 5.2-5.7 5-6.3 5-6 4.3-6.2 3.7-6.3 3.8-6.5 3-6.5 2.7-6.5 2.5-6.7 2-6.5 1.8-6.8 1.5-6.7 1-6.8.7-6.7.5-6.8.3-6.7-.3-6.8-.2-6.7-.8-6.8-1-6.5-1-6.7-1.5-6.5-1.7-6.5-1.8-6.5-2.2-6.3-2.3-6.2-2.5-6.3-2.5-6-3-6-3-5.7-3.2-5.8-3.3-5.5-3.5-5.2-3.7-5.3-3.8-8.7-6.7-8-7-7.8-7-7-7.5-6.5-7.3-5.7-7.5-5.5-7.5-5-7.7-4.3-7.5-4.2-7.8-3.5-7.7-3.3-7.8-2.7-7.5-2.5-7.7-2-7.5-1.8-7.3-1.5-7.5-1-7.2-1-7-.5-7-.5-6.8v-19l.5-6 .3-5.5 1.5-10.5 1.5-9 1.7-7.7 1.8-6.3 2-6 2.7-5.7 3-5.8 3.3-5.2 3.7-5.3 4-5 4.3-5 4.5-4.5 4.7-4.5 5-4 5.3-4 5.2-3.5 5.5-3.2 5.8-3.3 5.7-2.7 7-3.3 7.5-2.7 7.3-2.3 7.2-2 4.5-1 4.5-.7 4.5-.5 4.5-.5 4.5-.3h4.5l4.5.3 4.3.5 4.5.7 4.5 1 4.2 1 4.5 1.5 4.3 1.8 4.2 2 4.3 2 4.2 2.5 4 3 3.8 2.7 3.2 3 3 3.3 2.5 3.2 2.3 3.3 2 3.5 1.5 3.5 1.5 3.5 1.2 4 2.3 8 2 8.7 2 9.5 1 4 1 3.5 1.2 3.5zm-361.2-44.8h66v251.5h-251.3v-251.5z" fill="#a8d7f4"/><g fill="none" stroke="#231f20" stroke-linecap="round" stroke-miterlimit="10"><path d="m335.8 569h-251.3v-251.5h251.3z" stroke-width="21"/><path d="m659.5 277-28.5 85.3-26.7 80-157.3-75.8" stroke-width="28"/><path d="m244 374.3 2-7.5 2.5-7.5 2.8-7.3 3-7.2 3.5-7 3.7-6.8 4-6.7 4.3-6.8 3.2-4.2 3.3-4.3 6.7-8.2 7.3-7.8 7.7-7.5 8-7 8.5-6.5 8.8-6 4.5-3 4.5-2.5 4.7-2.7 4.8-2.3 4.7-2.5 4.8-2 5-2 4.7-1.7 5-1.8 5-1.5 5.3-1.5 5-1 5.2-1 5-1 5.3-.5 5.2-.5 5-.2 5.3-.3 7.7.3 7.8.5 7.7.7 7.5 1.3 7.5 1.5 7.5 1.7 7.3 2.3 7 2.5 7.2 2.5 6.8 3.2 6.7 3.3 6.8 3.5 6.5 4 6.2 4 6 4.5 6 4.7 7.8 6.5 7 7 7 7.5 6.5 8 6 8.3 5.5 8.5 5.2 9 4.8 9.5 4.2 9.7 3.8 10 1.5 5.3 1.7 5.2 1.3 5.3 1.2 5.2 1.3 5.5 1 5.8.7 5.5.8 5.7.5 5.8.5 5.7.2 6v6" stroke-width="28"/><path d="m631 362.3 1.8 3.2 2 3 2 2.8 2.2 2.5 2.3 2 2.5 2 2.5 1.7 2.7 1.5 2.8 1.3 3 1.2 3 1 3 1 6.5 1.5 6.7 1 13.8 2 7.2 1 7 1.5 7 1.8 3.5 1 3.5 1.2 3.5 1.5 3.5 1.5 3.3 1.8 3.2 2.2 4.5 3.3 4.3 3.7 4 4 3.5 4.3 3.2 4.7 2.8 4.8 2.7 5 2.3 5.2 2 5.5 1.5 5.5 1.5 5.5 1.2 5.5.8 5.8.7 5.5.3 5.5.2 5.5v8l-.7 7.7-1.3 7.8-1.7 7.5-2.3 7.5-2.5 7.2-3 7-3.5 6.8-4 6.7-4.2 6.5-4.5 6-5 6-5.3 5.8-5.5 5.2-5.7 5-6.3 5-6 4.3-6.2 3.7-6.3 3.8-6.5 3-6.5 2.7-6.5 2.5-6.7 2-6.5 1.8-6.8 1.5-6.7 1-6.8.7-6.7.5-6.8.3-6.7-.3-6.8-.2-6.7-.8-6.8-1-6.5-1-6.7-1.5-6.5-1.7-6.5-1.8-6.5-2.2-6.3-2.3-6.2-2.5-6.3-2.5-6-3-6-3-5.7-3.2-5.8-3.3-5.5-3.5-5.2-3.7-5.3-3.8-8.7-6.7-8-7-7.8-7-7-7.5-6.5-7.3-5.7-7.5-5.5-7.5-5-7.7-4.3-7.5-4.2-7.8-3.5-7.7-3.3-7.8-2.7-7.5-2.5-7.7-2-7.5-1.8-7.3-1.5-7.5-1-7.2-1-7-.5-7-.5-6.8v-19l.5-6 .3-5.5 1.5-10.5 1.5-9 1.7-7.7 1.8-6.3 2-6 2.7-5.7 3-5.8 3.3-5.2 3.7-5.3 4-5 4.3-5 4.5-4.5 4.7-4.5 5-4 5.3-4 5.2-3.5 5.5-3.2 5.8-3.3 5.7-2.7 7-3.3 7.5-2.7 7.3-2.3 7.2-2 4.5-1 4.5-.7 4.5-.5 4.5-.5 4.5-.3h4.5l4.5.3 4.3.5 4.5.7 4.5 1 4.2 1 4.5 1.5 4.3 1.8 4.2 2 4.3 2 4.2 2.5 4 3 3.8 2.7 3.2 3 3 3.3 2.5 3.2 2.3 3.3 2 3.5 1.5 3.5 1.5 3.5 1.2 4 2.3 8 2 8.7 2 9.5 1 4 1 3.5 1.2 3.5z" stroke-width="21"/></g></svg>