<svg height="850.394" viewBox="0 0 850.394 850.394" width="850.394" xmlns="http://www.w3.org/2000/svg"><path d="m427.37 234.51c13.17 2.95 23.21 18.35 23.21 36.91 0 20.66-12.45 37.41-27.81 37.41-15.35 0-27.8-16.75-27.8-37.41 0-18.56 10.04-33.96 23.2-36.91zm338.56 299.92s7.051 29.75-17.359 31.271h-.181c-24.409-1.521-17.029-31.37-17.029-31.37l13.92-40.17.1-.25c.9-1.94 1.88-2 3.16-2.061 2.08-.09 3.51 2.48 3.51 2.48zm-111.22 160.78s7.04 29.74-17.37 31.26h-.17c-24.41-1.52-17.04-31.39-17.04-31.39l13.92-40.16.11-.24c.89-1.96 1.88-2.02 3.16-2.069 2.08-.101 3.5 2.479 3.5 2.479zm-115.27 62.68s7.05 29.74-17.36 31.261h-.17c-24.41-1.521-17.05-31.37-17.05-31.37l13.92-40.17.109-.25c.891-1.94 1.88-2 3.16-2.061 2.08-.09 3.5 2.48 3.5 2.48zm-193.42.9s7.36 29.86-17.05 31.38h-.17c-24.41-1.52-17.36-31.27-17.36-31.27l13.89-40.101s1.42-2.58 3.5-2.49c1.28.061 2.27.12 3.16 2.07l.1.25zm-115.27-62.69s7.36 29.86-17.05 31.391h-.17c-24.41-1.53-17.36-31.271-17.36-31.271l13.89-40.109s1.42-2.58 3.5-2.49c1.28.06 2.27.12 3.16 2.07l.1.239zm-111.23-160.76s7.36 29.86-17.04 31.38h-.17c-24.41-1.52-17.37-31.27-17.37-31.27l13.89-40.11s1.42-2.57 3.5-2.479c1.28.06 2.27.12 3.16 2.069l.11.25z" fill="#fbee34"/><g fill="#f6cc4b"><path d="m570.86 487.01c-6.311 0-17.32-.17-22.86-1.01l-.07.05c-6.05-9.13-12.84-17.93-20.75-25.51l2.82-.54c9.03-4.14 25.84-11.46 40.86-11.46 27.189 0 49.229 8.61 49.229 19.24.001 10.62-22.039 19.23-49.229 19.23zm-255.22-33.96 4.16 4.141c-7.25 7.659-13.31 16.64-18.66 26.01l-.88-.5c-6.65 1.319-14.16 2.05-22.11 2.05-27.19 0-49.23-8.61-49.23-19.24 0-10.08 19.86-18.35 45.14-19.16h8.11c13.38.419 25.25 2.929 33.47 6.699zm91.97 31.32v61.63l-.41 5.93a45.32 45.32 0 0 1 -1.75-.12c-17.65-1.29-33.54-4.31-46.22-8.55-.55-.18-1.1-.37-1.64-.56-17.8-6.25-28.85-14.95-28.85-24.57 0-16.75 33.51-30.71 77.87-33.76zm21.73-249.86v-76.57l45.28.23s7.97 250.33 45.38 295.83l-.13.16c-19.9-15.71-46.35-23.46-83.87-12.16h-.09v-28.51s17.5-14.68 4.84-28.68c-13.4-14.81-19.75-32.79-19.75-32.79s-5.1 18.69-18.5 33.5c-12.67 13.99 3.88 26.45 3.88 26.45l1.23 2.02v25.279h-3.04c-32.87-9.899-55.98-4.72-73.26 7.75 36.55-48.779 46.47-289.35 46.47-289.35l38.42.2v76.64h1.97c-13.16 2.95-23.2 18.35-23.2 36.91 0 20.66 12.45 37.41 27.8 37.41 15.36 0 27.81-16.75 27.81-37.41 0-18.56-10.04-33.96-23.21-36.91h1.97z"/><path d="m435.91 484v62h-28.3v-132.01h28.3v28.01z"/><path d="m487.66 544.13c-11.87 3.68-26.29 6.33-42.18 7.58-6.66.521-13.58.8-20.681.8-6.01 0-11.9-.2-17.6-.58l.41-5.93h28.3v-62h.091c43.87 3.17 84.86 17.5 84.86 34.13 0 10.39-12.86 19.69-33.2 26zm-317.67-138.23v101.49h-4.45l-.23.141c-5.63-9.34-11.56-15.601-17.41-19.66a38.778 38.778 0 0 0 -6.49-3.65l.27-.6v-77.721zm122.85-28.31v68.76h-10.67c-1.32-.05-2.66-.069-4.02-.069-1.38 0-2.74.02-4.09.069h-9.53v-68.76zm265.19-1.01h28.31v68.75h-28.31zm151.17 104.78.55 1.72c-2.9 1.25-5.85 2.979-8.81 5.29-5.37 4.189-10.761 10.31-15.91 19.02h-4.15v-102.5h28.32z"/></g><path d="m714.31 376.41c12.66 14-3.89 26.45-3.89 26.45l-1.22 2.03h-28.32v-.51s-17.49-14.68-4.83-28.68c13.41-14.8 19.76-32.79 19.76-32.79s5.09 18.69 18.5 33.5zm-122.85-28.31c12.66 14-3.9 26.45-3.9 26.45l-1.22 2.03h-28.31v-.51s-17.5-14.68-4.82-28.68c13.4-14.81 19.74-32.79 19.74-32.79s5.1 18.69 18.51 33.5zm-150.71 36.71c12.66 14-4.84 28.68-4.84 28.68v.5h-28.3l-1.23-2.02s-16.55-12.46-3.88-26.45c13.4-14.81 18.5-33.5 18.5-33.5s6.35 17.98 19.75 32.79zm-143.08-36.4c12.67 14-4.83 28.67-4.83 28.67v.51h-28.31l-1.23-2.03s-16.54-12.45-3.88-26.45c13.4-14.81 18.5-33.5 18.5-33.5s6.35 17.99 19.75 32.8zm-122.85 28.31c12.66 14-4.83 28.67-4.83 28.67v.51h-28.31l-1.22-2.03s-16.55-12.45-3.89-26.45c13.4-14.81 18.5-33.5 18.5-33.5s6.35 17.99 19.75 32.8z" fill="#fbee34"/><g fill="none" stroke="#231f20" stroke-width="20.372"><path d="m141.68 483.62v-77.72h28.31v101.49h-4.45m4.45-102s17.49-14.67 4.83-28.67c-13.4-14.81-19.75-32.8-19.75-32.8s-5.1 18.69-18.5 33.5c-12.66 14 3.89 26.45 3.89 26.45m152.38-26.28v68.76h-28.31v-68.76zm0-.51s17.5-14.67 4.83-28.67c-13.4-14.81-19.75-32.8-19.75-32.8s-5.1 18.69-18.5 33.5c-12.66 14 3.88 26.45 3.88 26.45m172.61 108.44v62h-28.3v-132.01h28.3v28.01zm0-70.51s17.5-14.68 4.84-28.68c-13.4-14.81-19.75-32.79-19.75-32.79s-5.1 18.69-18.5 33.5c-12.67 13.99 3.88 26.45 3.88 26.45m-300.78 83.21 13.92 40.16s7.36 29.86-17.04 31.38h-.17c-24.41-1.52-17.37-31.27-17.37-31.27l13.89-40.11s1.42-2.57 3.5-2.479c1.28.06 2.27.12 3.16 2.069zm111.22 160.75 13.93 40.17s7.36 29.86-17.05 31.391h-.17c-24.41-1.53-17.36-31.271-17.36-31.271l13.89-40.109s1.42-2.58 3.5-2.49c1.28.06 2.27.12 3.16 2.07zm115.27 62.7 13.93 40.16s7.36 29.86-17.05 31.38h-.17c-24.41-1.52-17.36-31.27-17.36-31.27l13.89-40.101s1.42-2.58 3.5-2.49c1.28.061 2.27.12 3.16 2.07z"/><g stroke-linecap="round" stroke-linejoin="round"><path d="m103.26 489.82s17.83-14.551 38.15-5.601c2.14.94 4.31 2.141 6.49 3.65 5.85 4.06 11.78 10.32 17.41 19.66 1.59 2.609 3.15 5.47 4.68 8.58 21.69 44.159 53.46 57.449 78.96 44.89 7.79-3.84 14.99-10.08 21.14-18.6 10.36-14.341 18.83-37.79 31.05-59.2 5.35-9.37 11.41-18.351 18.66-26.01 3.53-3.74 7.35-7.16 11.51-10.171 17.28-12.47 40.39-17.649 73.26-7.75"/><path d="m146.73 489.82c3.04 1.01-2.01 127.399 66.74 157.739 19.43 8.57 40.71 6.811 61.18-2.64 33.87-15.63 65.51-52.29 82.85-98"/><path d="m253.8 562.01c1.27.42 6.67 42.8 20.85 82.91 10.27 29.09 25.16 56.98 46.42 66.811 45.19 20.909 88.25-62.16 84.27-158.37"/></g><path d="m427.37 234.51c13.17 2.95 23.21 18.35 23.21 36.91 0 20.66-12.45 37.41-27.81 37.41-15.35 0-27.8-16.75-27.8-37.41 0-18.56 10.04-33.96 23.2-36.91 1.5-.34 3.03-.51 4.6-.51s3.1.17 4.6.51z"/><path d="m436 484c43.87 3.17 84.86 17.5 84.86 34.13 0 10.39-12.86 19.69-33.2 26-11.87 3.68-26.29 6.33-42.18 7.58-6.66.521-13.58.8-20.681.8-6.01 0-11.9-.2-17.6-.58a45.32 45.32 0 0 1 -1.75-.12c-17.65-1.29-33.54-4.31-46.22-8.55-.55-.18-1.1-.37-1.64-.56" stroke-linecap="round" stroke-linejoin="round"/><path d="m357.59 542.7c-17.8-6.25-28.85-14.95-28.85-24.57 0-16.75 33.51-30.71 77.87-33.76" stroke-linecap="round" stroke-linejoin="round"/><path d="m429.34 157.94v76.57h-13.14v-176.95h13.14zm279.86 323.42v-76.47h-28.32v102.5h8.67m-8.67-103.01s-17.49-14.68-4.83-28.68c13.41-14.8 19.76-32.79 19.76-32.79s5.091 18.69 18.5 33.5c12.66 14-3.89 26.45-3.89 26.45m-152.39-26.28h28.31v68.75h-28.31zm0-.51s-17.5-14.68-4.82-28.68c13.4-14.81 19.74-32.79 19.74-32.79s5.1 18.69 18.51 33.5c12.66 14-3.9 26.45-3.9 26.45m157.72 119.61-13.92 40.17s-7.38 29.85 17.029 31.37h.181c24.41-1.521 17.359-31.271 17.359-31.271l-13.88-40.1s-1.43-2.57-3.51-2.48c-1.28.061-2.26.12-3.16 2.061zm-111.23 160.76-13.92 40.16s-7.37 29.87 17.04 31.39h.17c24.41-1.52 17.37-31.26 17.37-31.26l-13.89-40.12s-1.42-2.58-3.5-2.479c-1.28.05-2.271.109-3.16 2.069zm-115.27 62.69-13.92 40.17s-7.36 29.85 17.05 31.37h.17c24.41-1.521 17.36-31.261 17.36-31.261l-13.89-40.109s-1.42-2.57-3.5-2.48c-1.28.061-2.27.12-3.16 2.061z"/><path d="m747.62 488.8s-17.67-14.41-37.87-5.72c-2.9 1.25-5.85 2.979-8.81 5.29-5.37 4.189-10.761 10.31-15.91 19.02-1.4 2.37-2.79 4.94-4.15 7.71-22.79 46.4-56.729 58.721-82.81 42.771-6.311-3.86-12.17-9.38-17.29-16.48-9.931-13.75-19.59-35.33-32.851-55.34-6.05-9.13-12.84-17.93-20.75-25.51a100.84 100.84 0 0 0 -7.31-6.38c-19.899-15.711-46.349-23.461-83.869-12.161" stroke-linecap="round" stroke-linejoin="round"/><path d="m704.14 488.8c-.02.01-.05.021-.069.05-2.891 2.94 1.55 127.601-66.67 157.69-19.42 8.57-40.7 6.81-61.17-2.64-33.86-15.62-65.511-52.28-82.851-98" stroke-linecap="round" stroke-linejoin="round"/><path d="m597.07 561c-1.271.41-6.67 42.79-20.84 82.9-10.271 29.08-25.16 56.979-46.431 66.819-45.18 20.9-88.25-62.17-84.27-158.38" stroke-linecap="round" stroke-linejoin="round"/><path d="m520 454c-37.41-45.5-45.38-295.83-45.38-295.83l-45.28-.23-13.14-.07-38.42-.2s-9.92 240.57-46.47 289.35c-.34.471-.7.921-1.05 1.351"/><path d="m300.26 482.7c-6.65 1.319-14.16 2.05-22.11 2.05-27.19 0-49.23-8.61-49.23-19.24 0-10.08 19.86-18.35 45.14-19.16 1.35-.05 2.71-.069 4.09-.069 1.36 0 2.7.02 4.02.069 13.38.42 25.25 2.931 33.47 6.7m232.36 32.95c5.54.84 16.55 1.01 22.86 1.01 27.189 0 49.229-8.609 49.229-19.229 0-10.63-22.04-19.24-49.229-19.24-15.021 0-31.83 7.32-40.86 11.46" stroke-linecap="round" stroke-linejoin="round"/></g><path d="m0 0h850.394v850.394h-850.394z" fill="none"/></svg>