<svg height="850.394" viewBox="0 0 850.394 850.394" width="850.394" xmlns="http://www.w3.org/2000/svg"><path d="m235.44 259.11c85.89 0 155.52 69.62 155.52 155.51 0 85.899-69.63 155.52-155.52 155.52s-155.51-69.62-155.51-155.52c0-85.89 69.62-155.51 155.51-155.51z" fill="#ed1d31"/><path d="m619.05 259.11c85.891 0 155.521 69.62 155.521 155.51 0 85.899-69.63 155.52-155.521 155.52-85.88 0-155.51-69.62-155.51-155.52 0-85.89 69.63-155.51 155.51-155.51z" fill="#6ebe44"/><g fill="none"><path d="m390.96 414.62c0 85.899-69.63 155.52-155.52 155.52s-155.51-69.62-155.51-155.52c0-85.89 69.62-155.51 155.51-155.51s155.52 69.62 155.52 155.51zm-249.98-.29h185.76m291.32-94.02v185.75m156.51-91.44c0 85.899-69.63 155.52-155.521 155.52-85.88 0-155.51-69.62-155.51-155.52 0-85.89 69.63-155.51 155.51-155.51 85.891 0 155.521 69.62 155.521 155.51zm-249.97-.29h185.75" stroke="#231f20" stroke-width="21"/><path d="m0 0h850.394v850.394h-850.394z"/></g></svg>