<svg height="850" viewBox="0 0 850 850" width="850" xmlns="http://www.w3.org/2000/svg"><path d="m176.3 689.8 1 .2-.8 6.8v5.7l-.2 5-.3 4-.2 1.8-.5 1.7-.5 1.5-.8 1.3-1 1-1.5 1-1.5.7-2 .8h-4l-2-.5-2.2-.8-4-1.5-3.5-1.2-2.5-.5-2-.3h-7.8l-2.2-.2-2.5-.3-2.5-.5-2.3-.7-4.7-2-2.3-1-1.7-1-1.8-1.3-1.2-1.2-1-1-.5-1.3v-1l.5-1 1-.7 1.7-.8 2.5-.5 3.3-.5 8.2-.2 4.8-.5 2.5-.5 2.5-.5 2.2-.8 2.3-1 2-1.2 2-1.8 1.5-1.7 1.5-2.3 1-2.5.5-3 2.5.3zm230-95-5-6-2.8-3-3.2-2.8-3.5-2.5-2-1-1.8-1-2-.5-2.2-.5-2-.2h-2.3l-.2-2.3-5.3-18-.5-1 3.5-1.5 3.3-1.7 6.5-3 3-1.3 2.7-.7 1.5-.3h1.3l1.5.3 1.2.2 1 .5 1 .8.8.7.5 1 1 2.3.5 2.5.5 4.7.2 2.3.5 1.7 1 2.3 1 1.7 2.3 3.3 2.2 3.2 1 1.8 1.3 2.2 1 2.3.7 2.5 1.3 4.7.2 2.5.3 2.3v2l-.3 1.7-.2 1.3-.8 1.2-.7.5-1 .3-1.5-.5-1.5-1-1.8-1.8zm363.2-182.5-5-6-2.7-3-3.3-2.8-3.5-2.5-2-1.2-1.7-.8-2-.7-2.3-.3-2-.2h-2.2l-.3-2.3-5.2-18-.5-1.2 3.5-1.3 3.2-1.7 6.5-3.3 3-1 2.8-1h4.2l1.3.5 1 .5 1 .8.7.7.8 1 .7 2 .5 2.5.5 5 .3 2 .5 1.8 1 2.5 1 1.7 2.2 3.3 2.3 3.2 1 1.8 1.2 2.2 1 2.3.8 2.5 1.2 4.7.3 2.3.2 2.2v3.8l-.5 1.5-.7 1-.8.7h-1l-1.2-.2-1.8-1-1.7-1.8zm-230 95h1l-.7 6.7v5.8l-.3 5-.2 4.2-.3 1.8-.5 1.7-.5 1.3-.7 1.2-1 1.3-1.5.7-1.5 1-2 .5-1.8.3h-2l-2.2-.5-2-.8-4.3-1.5-3.5-1.2-2.5-.5-2-.3h-7.7l-2.3-.2-2.5-.5-2.2-.5-2.5-.8-4.8-1.7-2-1-2-1.3-1.7-1-1.3-1.2-1-1.3-.5-1v-1l.5-1 1.3-.7 1.5-.8 2.5-.5 3.2-.5 8.3-.2 4.7-.5 2.5-.5 2.5-.5 2.3-1 2.2-1 2-1.3 2-1.5 1.5-1.7 1.5-2.3 1-2.5.5-3 2.5.3z" fill="#231f20"/><path d="m334.3 464.8 2.2 2.7-.7 2.5-.8 1.3-.7 1-.8 1-1 .5-1.2.2-1-.5.2-2v-4.2l-.5-2.3-.5-2-.7-2-1-1.7-1-1.8.5-.5 1.5 1.8 1.7 2z" fill="#ffeec8"/><path d="m336.5 467.5-2.2-2.7-3.8-4-1.7-2-1.5-1.8-1-1.7-.5-1.5-.3-1.8-.2-1.7v-3.3l.2-4.2-.2-5 3.5-2.3 4-2.5 2.2-1.2 2.3-1 2.7-1 3-.8 6 5 3 2.8 1.3 1.5.7 1.2 1 2.8 2 6.2.8 3.8.7 3.7.8 3.5v4.5l-.5 1.5-1.3 2.8-.2.7v.5l-.5.8-.8.5-1.2.7-1.3.8-1.2.2-.5-.2-.3-.3v1.3l-.2.7-.8.8-1 .7-1.2.5h-2.5l-.5.8-.8.5-1 .2-1-.5-.7-1-1.3-2-1.7-3zm-244.5-35.2-.7 1.2-.8.8-.7.5-1 .2h-.8l-.7-.2-1.3-.5-.7-.8-1.8-1.5-1.7-1.5-1.8-1.7-1.7-1.3-.5-.2-.5-.5-.3-.5.3-.5.5-1.3 1-1 1.2-1.2.8-.5.5-.3 1.2-.2 1 .2.5.3h.3l1.7 1 2.3 1.5 1 2 .7.7.8.8 1 .5.5 1v2z" fill="#ffeec8"/><path d="m86 434.3 1 1.2.3.8v1.5l-.5.7-.5.5-1 .5-1.8.5h-1.5l-1.2-.2-1.3-.8-2.2-2-2.8-2.5-2.2-1.7-1-.5-1-.3.7-.5.3-1 .7-1.2.8-1.3 1.2-1 .8-.5h2l.5.3.5.5.5.2 1.7 1.3 1.8 1.7 1.7 1.5 1.8 1.5z" fill="#ffeec8"/><path d="m79.5 439 .3 1.5-.3 1.5-.5 1-1.2 1-1.3.5-1 .3-1.5-.3-1.2-.5-2.3-1.2-1.5-1.3-1.5-2.2-1-2.3v-1.5l.3-1 .5-.7.5-.8.7-.5.8-.5h1l1 .3 1 .5 2.2 1.7 2.8 2.5z" fill="#ffeec8"/><path d="m92 432.3.3-1v-2l-.5-1-.5-1-1-1.3-2-1.7-.3-1.8-.2-2 .2-.5.3-.2 1-.3h1.7l1.8.3 3 1 2.2 1 2.5 1.2 1.8 1.3 1.7 1.5 1.3 1.2.7 1.3 1.3 2.7 1.2 3 1.3 3.3h.2l.3 1.2.2 1.5v1.5l-.2 1.5-.5 1.5-.8 1.5-.7 1.3-1.8 3-2.5 2.5-2.7 2-1.5.7-1.3.8-1.5.2-1.5.5.3.5-10.5-3-3.3-1-2.7-1.2-1.5-1-1.3-.8-2.2-2.2-2-2.5-2-2.5-1.3-1.8 1.5 1.3 2.3 1.2 1.2.5 1.5.3 1-.3 1.3-.5 1.2-1 .5-1 .3-1.5-.3-1.5 1.3.8 1.2.2h1.5l1.8-.5 1-.5.5-.5.5-.7v-1.5l-.3-.8-1-1.2 1.3.5.7.2h.8l1-.2.7-.5.8-.8zm157 141.2.3.5-4.3 2.8-4.2 2.5-4.5 2.2-4.8 2.3-7.2 3.2-7.5 3-7.5 3.5-3.3 1.8-3.2 2-1.5 1.2-1.3 1.5-.7 1.5-.8 1.8-.5 1.7-.2 2v4l.2 4.3.5 4.2.3 4.3v2l-.3 2-.7 5.2-1 4.8-1.3 4.5-1.2 4.5-1.8 4-1.5 3.7-3.5 7-3.2 6.5-3 6.5-1.3 3.3-1 3.2-1 3.5-.5 3.5-.2 2-1-.2-16.5-4-2.5-.3.2-2.5v-5l.5-5.7.3-8.8v-11l-.3-7.2v-19.3l.3-10.7.5-10.5.7-9.5.8-8 .5-3 .7-2.5 1-2 1.5-2.8 2-3 2.5-3 6-6.7 6.5-7 6.3-6.3 5.5-5.2 5.2-5 1.3-1.8zm130.3 1.5.2 2.3-1.7.2-5.5 2-6.3 2.3-7.7 3.2-9 4.3-4.8 2.5-4.7 2.5-5 3-4.8 3-5 3.2-4.7 3.5-6.5 5-6 4-2.8 1.8-2.5 1.2-2.5 1-2.5.5-2.2.3h-2.3l-2-.8-2.2-.7-2-1.5-2-1.8-2.3-2.2-2-2.8-5.5-8.2-5.5-8.8 34.8-21.7 1.2 2 1 1 1 1 1 .7 1.3.5h1.2l1.5-.5.8-.7 1-1 2.5-2.8 3-3 3.7-3.5 2-1.5 2.5-1.7 2.8-1.3 3-1.2 3.2-1 3.5-.8 3.8-.5h4.2l16-.5h2.5l2.3-.2 2.2-.8 2-.5.5 1zm363.2-182.5.3 2.3-1.8.2-5.5 1.8-6.2 2.5-7.8 3.2-8.7 4.3-5 2.2-4.8 2.8-5 2.7-4.7 3.3-5 3.2-4.5 3.5-6.8 5-6 4-2.5 1.5-2.7 1.3-2.5 1-2.5.7-2.3.3-2.2-.3-2-.5-2.3-1-2-1.2-2-1.8-2-2.2-2.2-2.8-5.5-8.2-5.5-8.8 34.7-22 1.3 2 1 1.3 1 1 1 .7 1.2.3h1.3l1.5-.5.7-.8 1-1 2.5-2.5 3-3.2 3.8-3.3 2-1.7 2.5-1.5 2.7-1.3 3-1.2 3.3-1 3.5-.8 3.7-.5h4.3l16.2-.5h2.3l2.2-.5 2.3-.5 2-.7.5 1.2zm-130.2-1.5.2.5-4.2 2.5-4.3 2.5-4.5 2.5-4.7 2.3-7.3 3.2-7.5 3-7.5 3.3-3.2 2-3.3 2-1.5 1.2-1.2 1.3-.8 1.7-.7 1.8-.5 1.7-.3 2v4l.3 4.3.5 4.2.2 4.3v3.7l-1 5.3-1 5-1.2 4.5-1.3 4.2-1.7 4-1.5 3.8-3.3 7-3.5 6.7-3 6.3-1.2 3.2-1 3.5-1 3.3-.5 3.7-.3 1.8h-1l-16.5-4-2.5-.3.3-2.5v-3l.2-2 .3-5.7.2-8.8v-11l-.2-7.2v-19.3l.2-11 .5-10.5.8-9.5.7-7.7.8-3 .5-2.5 1-2.3 1.5-2.5 2-3 2.5-3.2 6-6.8 6.5-6.7 6.2-6.5 5.5-5.3 5.3-4.7 1.2-2zm85.2-109 2.3 3-.8 2.5-.7 1.3-.8 1-.7 1-1 .5h-1.3l-1-.3.3-2.2v-4.3l-.5-2-.5-2-.8-2-1-1.7-1-2 .5-.3 1.5 1.8 1.8 1.7z" fill="#ffeec8"/><path d="m709 293.5-.5.8-.7.5h-1l-1-.3-.8-1.2-1.2-2-1.8-2.8-2.2-3.5-2.3-3-3.7-4-1.8-1.7-1.5-1.8-1-1.7-.5-1.8-.2-1.5-.3-1.7.3-3.5v-4l-.3-5.3 3.5-2 4-2.5 2.3-1.2 2.2-1.3 2.8-1 3-.7 6 5 3 3 1.2 1.2.8 1.5 1 2.8 2 6.2.7 3.8 1 3.7.5 3.5v4.5l-.5 1.5-1.2 2.8v.5l-.3.7-.5.8-.7.5-1.3.7-1.2.5-1.3.3h-.2l-.5-.5v1.5l-.3.7-.7.8-1 .7-1.3.3-1.2.2h-1zm-255-48.5 1 .8.5.7.3 1-.3 1-.2 1-.8 1.3-.7 1-.8.5h-2.5l-1.2-.8-.8-.5-1.7-1.5-1.8-1.7-1.5-1.5-2-1.3-.5-.2-.5-.5-.2-.5.2-.5.5-1.3 1.3-1.2 1.2-1 .5-.5.5-.3 1.3-.2 1 .2.5.3h.2l1.8 1 2.5 1.5.7 1.7.8 1z" fill="#ffeec8"/><path d="m449.3 251.5 1 1.5.2.8v1.2l-.2.8-.8.7-1 .5-1.7.5h-1.5l-1.3-.2-1.2-1-2.3-1.8-2.7-2.5-2.3-2-1-.5h-1l.8-.5.2-1.2.8-1.3 1-1.2 1-1 1-.3.7-.2 1 .2.5.3.5.5.5.2 2 1.3 1.5 1.5 1.8 1.7 1.7 1.5z" fill="#ffeec8"/><path d="m442.8 256.3.2 1.7-.2 1.3-.5 1.2-1.3 1-1 .5h-2.7l-1.3-.5-2.2-1.2-1.5-1.3-1.3-2.5-1-2-.2-.7v-1l.2-.8.5-.7.5-.8.8-.5.7-.5h2l1 .5 2.3 2 2.7 2.5z" fill="#ffeec8"/><path d="m455.3 249.5.2-1 .3-1-.3-1-.5-.7-.5-1.3-.7-1-2-1.7-.5-1.8-.3-2 .3-.5.2-.2 1-.5h1.8l1.7.2 3 1.3 2.3 1 2.5 1.2 1.7 1.3 1.8 1.5 1.2 1.2.8 1.3 1.2 2.7 1.3 3 1.2 3.3.3-.3.2 1.5.3 1.5v1.3l-.3 1.5-.5 1.5-.7 1.5-.8 1.5-1.7 2.7-2.5 2.5-2.8 2-1.2 1-1.5.5-1.5.5-1.5.3.2.7-10.5-3-3.2-1.2-2.8-1.3-1.5-.7-1.2-1-2.3-2-2-2.5-2-2.5-1.2-1.8 1.5 1.3 2.2 1.2 1.3.5h2.7l1-.5 1.3-1 .5-1.2.2-1.3-.2-1.7 1.2 1 1.3.2h1.5l1.7-.5 1-.5.8-.7.2-.8v-1.2l-.2-.8-1-1.5 1.2.8h2.5l.8-.5.7-1zm104-82.2v3.5l-.5 3.5-.5 3.2-.8 3.3-1.2 3.2-1 3-1.5 2.8-1.8 2.5-2.2 3.2-2.5 2.8-2.8 2.5-3 2-3.2 1.5-3.3 1.2-3.5.8-3.5.2-3.5-.2-3.2-.8-2.8-.7-2.5-1-2.2-1.5-2.5-1.5-2-2-2-2-2-2.3-1.8-2.5-1.5-2.5-1.5-2.7-1-3-1-3-1-3.3-.5-3.2-.2-3.5-.3-3.5.3-4 .5-4 .7-3.8 1-3.5 1.3-3.5 1.5-3.2 2-3 2-2.8 2.2-2.5 2.3-2.2 2.7-2 2.8-1.8 2.7-1.2 3-1 3.3-.5 3.2-.3 3.3.3 3 .5 3 1 3 1.2 2.7 1.8 2.5 2 2.5 2.2 2 2.5 2.3 2.8 1.7 3 1.5 3.2 1.3 3.5 1.2 3.5.8 3.8.5 4zm-363.3 182.5v3.7l-.5 3.3-.5 3.5-.7 3.2-1.3 3-1.2 3-1.3 2.8-1.7 2.7-2.3 3-2.5 2.8-2.7 2.5-3 2-3.3 1.7-3.2 1-3.5.8-3.5.2h-3.5l-3.3-.7-2.7-1-2.5-1-2.3-1.5-2.5-1.5-2-1.8-2-2.2-2-2.3-1.7-2.2-1.5-2.8-1.5-2.7-1.3-3-1-3-.7-3.3-.5-3.2-.5-3.5v-3.5l.2-4 .5-3.8.8-3.7 1-3.8 1.2-3.2 1.5-3.3 2-3 2-3 2.3-2.5 2.2-2.2 2.8-2 2.7-1.5 2.8-1.5 3-.8 3.2-.7 3.3-.3 3 .3 3.2.7 3 .8 2.8 1.5 2.7 1.5 2.8 2 2.2 2.2 2.3 2.5 2.2 3 1.8 3 1.5 3.3 1.2 3.2 1.3 3.8.7 3.7.5 3.8z" fill="#ffeec8"/><path d="m304.3 572.3-34.8 21.7-10-16.5-4.2-7.2-.3-.3 3.5-3 4-3.2 8.5-7.8 1-1 5.3-5 5.2-5.2 5-5.3 4.5-5 4.3-4.7 3.5-4.8 2.7-4 1.8-3.5.7 1.8.5 2.5 1 5.5 1 6.7 1 7 1.8 14.3 1 6.5 1.2 5.2z" fill="#797878"/><path d="m300.5 485 2.3 3.8 1.7 3.7 1.3 4 1 4 .2 4v2l-.2 2-.3 2.3-.5 2.2-.7 2.3-1 2.2-1.8 3.5-2.7 4-3.5 4.8-4.3 4.7-4.5 5-5 5.3-5.2 5.2-5.3 5-1 1-8.5 7.8-4 3.2-3.5 3-5.7 4-.3-.5-49.7-34.5-.3-.2 2-2.8 5-6.5 5.8-8.2 2.7-4 2.3-4 1.5-4 1.5.5 1.7.5 2 .2 1.8.3h2l2-.3 4.2-.5 4-1.2 4-1.3 4-1.2 7.3-2.5 6.2-2 6.5-2.8 3.3-1.7 3.2-1.5 3.3-2 3-2 2.7-2.3 2.5-2.2 2.3-2.5 2-2.5 1.7-2.8 1-2.7.8-3 .2-3 4.8 7.2zm367-95.5-34.7 22-10-16.5-4.3-7.2-.2-.3 3.5-3 4-3.2 8.5-7.8 1-1 5.2-5.2 5.3-5 5-5.3 4.5-5 4.2-5 3.5-4.5 2.8-4 1.7-3.7.8 2 .5 2.5 1 5.5 1 6.5 1 7.2 1.7 14.3 1 6.2 1.3 5.5z" fill="#797878"/><path d="m664 302.5 2 3.8 1.8 3.7 1.2 4 1 3.8.3 4.2v4l-.5 2.3-.5 2-.8 2.2-1 2.3-1.7 3.7-2.8 4-3.5 4.5-4.2 5-4.5 5-5 5.3-5.3 5-5.2 5.2-1 1-8.5 7.8-4 3.2-3.5 3-5.8 4-.2-.5-49.8-34.7h-.2l2-2.8 5-6.5 5.7-8.2 2.8-4.3 2.2-3.7 1.5-4.3 1.5.8 1.8.5 2 .2 1.7.3h2l2.3-.3 4-.7 4-1 4-1.3 4-1.5 7.2-2.2 6.3-2.3 6.5-2.7 3.2-1.5 3.3-1.8 3.2-1.7 3-2 2.8-2.3 2.5-2.2 2.2-2.5 2-2.5 1.8-2.8 1-2.7.7-3 .3-3.3 4.7 7.3z" fill="#797878"/><path d="m149.5 391 1.3 6 1.7 7 2.3 7.8 2.5 7.7 3 7.8 3 7 3 6 1.5 2.5 1.5 2.2v.3h-1l-4.3.2-4 .8-3.2 1.2-3 1.5-2.5 2-2.3 2-2 2.3-2 2.5-3.5 5.2-1.7 2.5-2 2.8-2 2.2-2.3 2.3-2.7 2-3 1.7-3.3 1.3-2.7 1-2.5.2h-2.5l-2.3-.5-2.2-.7-2-1-1.8-1.3-1.7-1.7-1.8-1.8-1.5-2.2-1.7-2.3-3-4.7-3-5.3-.3-.5 1.5-.5 1.5-.2 1.3-.8 1.5-.7 2.7-2 2.5-2.5 1.8-3 .7-1.3.8-1.5.5-1.5.2-1.5v-1.5l-.2-1.5 2 .5 1.5.3h2.7l1.3-.3 1-.5.7-.7.8-.8 1.5-2 1.5-2.5 3-6.5 3.7-8 2.5-4.7 2.8-5.3 3.2-5 3.5-4.7 1.8-2.3 2-2 2-1.7z" fill="#a8d7f4"/><path d="m291.5 470.8-.2 3-.8 3-1 2.7-1.7 2.8-2 2.5-2.3 2.5-2.5 2.2-2.7 2.3-3 2-3.3 2-3.2 1.5-3.3 1.7-6.5 2.8-6.2 2-7.3 2.5-4 1.2-4 1.3-4 1.2-4.2.5-2 .3h-2l-1.8-.3-2-.2-1.7-.5-1.5-.5-1.8-1-1.5-1.3-1-1.2-.7-1.5-1.8-3.5-1.7-4.5-2-4.3-2-3.7-2.3-3.8-2-3.5-4.7-6.7-4.8-6.3-5.2-5.7-5.8-5.8-6-5.5-6.7-5.7h1v-.3l-1.5-2.2-1.5-2.5-3-6-3-7-3-7.8-2.5-7.7-2.3-7.8-1.7-7-1.3-6 2.3-1.2 2-.8 2-.5h2l.2-.2 3.3.7h3.5l3.5-.2 3.5-.8 3.2-1 3.3-1.7 3-2 2.7-2.5 2.5-2.8 2.3-3 .5.3 5.7-2.3 5.5-2 5.3-1.7 5.2-1.5 5.3-1 5-.8 5.2-.2h5.3v1l.2 1.7.5 4 1 6 1 3.3 1.3 3.7 1.2 3.8 1.8 3.5 2.2 3.7 2.5 3.3 2.8 3.2 1.5 1.3 1.7 1.5 2 1 1.8 1.2 2.2.8 2 .7 2.5-.5 2.3-.5h2.2l2.5.3-.5 3 3.8 8.2 3.7 7.5 7.3 13.8 3 6.5 3 6.5 1 3.2 1.2 3.3.8 3.5 1 3.5z" fill="#a8d7f4"/><path d="m325.3 437.8-2 .7-2 .5h-2l-2.3-.7-2.2-1-2-1.5-4.3-3-3.5-2.5-6.2-4-5.8-3.5-9.7-6.5-4.5-2.8-4-2.2-4-1.5-2-.5-1.8-.5-2.5-.3h-2.2l-2.3.5-2.5.5-2-.7-2.2-.8-1.8-1.2-2-1-1.7-1.5-1.5-1.3-2.8-3.2-2.5-3.3-2.2-3.7-1.8-3.5-1.2-3.8-1.3-3.7-1-3.3-1-6-.5-4-.2-1.7v-1l5.2.2 5.5.8 5.5 1 5.8 1.2 6 1.8 6.2 2 6.8 2.2 6.7 2.8 6.5 2.7 6 2.8 5.5 2.7 5 3 4.8 3 4.5 2.8 4 3.2 4 3 3.5 3.3 3.2 3.2 3.3 3.3 2.7 3.5 3 3.5 2.5 3.7 5 7.5-3 .8-2.7 1-2.3 1-2.2 1.2-4 2.5zm363.2-182.8-2 1-2 .5h-1l-1-.2-2.2-.5-2-1.3-2.3-1.2-4.2-3-3.5-2.5-6.3-4-5.5-3.8-10-6.5-4.5-2.5-4-2.2-4-1.5-2-.8-1.7-.2-2.5-.3h-2.3l-2.2.3-2.5.7-2-.7-2.3-1-1.7-1-2-1.3-1.5-1.2-1.8-1.5-2.7-3-2.5-3.5-2-3.5-1.8-3.8-1.5-3.7-1.2-3.5-.8-3.5-1.2-5.8-.5-4.2-.3-1.5v-1.3l5.3.5 5.5.5 5.5 1 5.7 1.5 6 1.5 6.3 2 6.7 2.5 7 2.8 6.3 2.7 6 2.8 5.5 2.7 5 2.8 4.7 3 4.5 3 4 3 4 3.2 3.5 3.3 3.3 3.2 3.2 3.3 2.8 3.5 3 3.5 2.5 3.5 5 7.5-3 .7-2.8 1-2.2 1.3-2.3 1.2-4 2.5zm-175.7-46.7 1.2 6.2 1.8 7 2.2 7.8 2.5 7.7 3 7.5 3 7.3 3 6 1.5 2.5 1.5 2.2h-1l-4.2.5-4 .8-3.3 1.2-3 1.5-2.5 1.8-2.2 2.2-2 2.3-2 2.5-3.5 5.2-1.8 2.5-2 2.5-2 2.5-2.2 2.3-2.8 2-3 1.7-3 1.3-3 .7-2.5.5h-2.5l-2.2-.5-2.3-.7-2-1-1.7-1.5-1.8-1.5-1.7-2-1.5-2-1.8-2.3-3-5-3-5-.2-.7 1.5-.3 1.5-.5 1.5-.5 1.2-1 2.8-2 2.5-2.5 1.7-2.7.8-1.5.7-1.5.5-1.5.3-1.5v-1.3l-.3-1.5 2 .5 1.5.3h1.5l1.3-.3 1.2-.2 1-.5.8-.5 1-.8 1.2-2 1.5-2.7 3-6.5 3.8-7.8 2.5-4.7 2.7-5.3 3.3-5 3.5-4.7 1.7-2.3 2-2 2-1.7z" fill="#a8d7f4"/><path d="m654.8 288-.3 3.3-.7 3-1 2.7-1.8 2.8-2 2.5-2.2 2.5-2.5 2.2-2.8 2.3-3 2-3.2 1.7-3.3 1.8-3.2 1.5-6.5 2.7-6.3 2.3-7.2 2.2-4 1.5-4 1.3-4 1-4 .7-2.3.3h-2l-1.7-.3-2-.2-1.8-.5-1.5-.8-1.7-.7-1.3-1.3-1.2-1.2-.8-1.5-1.7-3.5-1.8-4.5-2-4.3-2-4-2.2-3.7-2-3.5-4.8-6.5-4.7-6.3-5.3-5.7-5.7-5.8-6-5.5-6.8-6h1l-1.5-2.2-1.5-2.5-3-6-3-7.3-3-7.5-2.5-7.7-2.2-7.8-1.8-7-1.2-6.2 2.2-1 2-1 2-.5h2l.3-.3 3.2.8 3.5.2 3.5-.2 3.5-.8 3.3-1.2 3.2-1.5 3-2 2.8-2.5 2.5-2.8 2.2-3.2.5.5 5.8-2.5 5.5-2 5.2-1.8 5.3-1.2 5.2-1 5-.8 5.3-.2 5.2-.3v1.3l.3 1.5.5 4.2 1.2 5.8.8 3.5 1.2 3.5 1.5 3.7 1.8 3.8 2 3.5 2.5 3.5 2.7 3 1.8 1.5 1.5 1.2 2 1.3 1.7 1 2.3 1 2 .7 2.5-.7 2.2-.3h2.3l2.5.3-.5 3 3.7 8.2 3.8 7.5 7.2 13.8 3 6.5 3 6.2 1.3 3.3 1 3.5 1 3.2.7 3.5z" fill="#a8d7f4"/><g fill="none" stroke="#231f20" stroke-linecap="round" stroke-miterlimit="10"><path d="m158 388.3-2.7-1-2.5-1-2.3-1.5-2.5-1.5-2-1.8-2-2.2-2-2.3-1.7-2.2-1.5-2.8-1.5-2.7-1.3-3-1-3-.7-3.3-.5-3.2-.5-3.5v-3.5l.2-4 .5-3.8.8-3.7 1-3.8 1.2-3.2 1.5-3.3 2-3 2-3 2.3-2.5 2.2-2.2 2.8-2 2.7-1.5 2.8-1.5 3-.8 3.2-.7 3.3-.3 3 .3 3.2.7 3 .8 2.8 1.5 2.7 1.5 2.8 2 2.2 2.2 2.3 2.5 2.2 3 1.8 3 1.5 3.3 1.2 3.2 1.3 3.8.7 3.7.5 3.8v7.7l-.5 3.3-.5 3.5-.7 3.2-1.3 3-1.2 3-1.3 2.8-1.7 2.7-2.3 3-2.5 2.8-2.7 2.5-3 2-3.3 1.7-3.2 1-3.5.8-3.5.2h-3.5zm-.2.2h-2l-2 .5-2 .8-2.3 1.2-1.7 1.3-2 1.7-2 2-1.8 2.3-3.5 4.7-3.2 5-2.8 5.3-2.5 4.7-3.7 8-3 6.5-1.5 2.5-1.5 2-.8.8-.7.7-1 .5-1.3.3h-2.7l-1.5-.3-2-.5-1.8-.5m-13.7 17.8.7 1.2.3.5 3 5.3 3 4.7 1.7 2.3 1.5 2.2 1.8 1.8 1.7 1.7 1.8 1.3 2 1 2.2.7 2.3.5h2.5l2.5-.2 2.7-1 3.3-1.3 3-1.7 2.7-2 2.3-2.3 2-2.2 2-2.8 1.7-2.5 3.5-5.2 2-2.5 2-2.3 2.3-2 2.5-2 3-1.5 3.2-1.2 4-.8 4.3-.2h1" stroke-width="14"/><path d="m165.5 442.8 2.8 2.5 6.7 5.7 6 5.5 5.8 5.8 5.2 5.7 4.8 6.3 4.7 6.7 2 3.5 2.3 3.8 2 3.7 2 4.3 1.7 4.5 1.8 3.5.7 1.5 1 1.2 1.5 1.3 1.8 1 1.5.5 1.7.5 2 .2 1.8.3h2l2-.3 4.2-.5 4-1.2 4-1.3 4-1.2 7.3-2.5 6.2-2 6.5-2.8 3.3-1.7 3.2-1.5 3.3-2 3-2 2.7-2.3 2.5-2.2 2.3-2.5 2-2.5 1.7-2.8 1-2.7.8-3 .2-3-.2-3-1-3.5-.8-3.5-1.2-3.3-1-3.2-3-6.5-3-6.5-7.3-13.8-3.7-7.5-3.8-8.2" stroke-width="14"/><path d="m189.3 375.3 5.7-2.3 5.5-2 5.3-1.7 5.2-1.5 5.3-1 5-.8 5.2-.2h5.3l5.2.2 5.5.8 5.5 1 5.8 1.2 6 1.8 6.2 2 6.8 2.2 6.7 2.8 6.5 2.7 6 2.8 5.5 2.7 5 3 4.8 3 4.5 2.8 4 3.2 4 3 3.5 3.3 3.2 3.2 3.3 3.3 2.7 3.5 3 3.5 2.5 3.7 5 7.5-3 .8-2.7 1-2.3 1-2.2 1.2-4 2.5-3.5 2.3-2 .7-2 .5h-2l-2.3-.7-2.2-1-2-1.5-4.3-3-3.5-2.5-6.2-4-5.8-3.5-9.7-6.5-4.5-2.8-4-2.2-4-1.5-2-.5-1.8-.5-2.5-.3h-2.2l-2.3.5-2.5.5-2.5 1.3" stroke-width="14"/><path d="m300.5 485-4.2-7-4.8-7.2" stroke-width="16.5"/><path d="m198 540.8-5.2 5-5.5 5.2-6.3 6.3-6.5 7-6 6.7-2.5 3-2 3-1.5 2.8-1 2-.7 2.5-.5 3-.8 8-.7 9.5-.5 10.5-.3 10.7v19.3l.3 7.2v11l-.3 8.8-.5 5.7v5l-.2 2.5-.5 3-1 2.5-1.5 2.3-1.5 1.7-2 1.8-2 1.2-2.3 1-2.2.8-2.5.5-2.5.5-4.8.5-8.2.2-3.3.5-2.5.5-1.7.8-1 .7-.5 1v1l.5 1.3 1 1 1.2 1.2 1.8 1.3 1.7 1 2.3 1 4.7 2 2.3.7 2.5.5 2.5.3 2.2.2h7.8l2 .3 2.5.5 3.5 1.2 4 1.5 2.2.8 2 .5h4l2-.8 1.5-.7 1.5-1 1-1 .8-1.3.5-1.5.5-1.7.2-1.8.3-4 .2-5v-5.7l.8-6.8.2-2 .5-3.5 1-3.5 1-3.2 1.3-3.3 3-6.5 3.2-6.5 3.5-7 1.5-3.7 1.8-4 1.2-4.5 1.3-4.5 1-4.8.7-5.2.3-2v-2l-.3-4.3-.5-4.2-.2-4.3v-4l.2-2 .5-1.7.8-1.8.7-1.5 1.3-1.5 1.5-1.2 3.2-2 3.3-1.8 7.5-3.5 7.5-3 7.2-3.2 4.8-2.3 4.5-2.2 4.2-2.5 4.3-2.8 5.7-4 3.5-3 4-3.2 8.5-7.8 1-1 5.3-5 5.2-5.2 5-5.3 4.5-5 4.3-4.7 3.5-4.8 2.7-4 1.8-3.5 1-2.2.7-2.3.5-2.2.3-2.3.2-2v-2l-.2-4-1-4-1.3-4-1.7-3.7-2.3-3.8m3.8 32.5.7 1.8.5 2.5 1 5.5 1 6.7 1 7 1.8 14.3 1 6.5 1.2 5.2-8.2 5.3-34.8 21.7-.5.5m-119.5-204.5v1l1.3 6 1.7 7 2.3 7.8 2.5 7.7 3 7.8 3 7 3 6 1.5 2.5 1.5 2.2 1.7 2 1.5 1.3" stroke-width="14"/><path d="m86 434.3-.2-.3m12.2-12.2-2.2-1-3-1-1.5-.5-1-.3-1.3.3-2.7.7-1.8 1-.5.5v.3h.3l1.7 1 2.3 1.5 2 1.7 1 1.3.5 1 .5 1v2l-.3 1-.7 1.2-.8.8-.7.5-1 .2h-.8l-.7-.2-1.3-.5m23.8 3-1.3-3.3-1.2-3-1.3-2.7-.7-1.3-1.3-1.2-1.7-1.5-1.8-1.3-2.5-1.2" stroke-width="7"/><path d="m84.3 421.8h-.3l-.5-.3-1-.2-1.2.2-.5.3-.8.5-1.2 1.2-1 1-.5 1.3-.3.5.3.5.5.5.5.2 1.7 1.3 1.8 1.7 1.7 1.5 1.8 1.5.7.8 1 1.2.3.8v1.5l-.5.7-.5.5-1 .5-1.8.5h-1.5l-1.2-.2-1.3-.8-2.2-2-2.8-2.5" stroke-width="7"/><path d="m77.8 427-.5-.2-.5-.3h-2l-.8.5-1.2 1-.8 1.3-.7 1.2-.3 1m-2 10-1.5-2.2-1-2.3v-1.5l.3-1 .5-.7.5-.8.7-.5.8-.5h1l1 .3 1 .5 2.2 1.7 3 2m23.8 22.8-5.5-1.8-10.5-3-3.3-1-2.7-1.2-1.5-1-1.3-.8-2.2-2.2-2-2.5-2-2.5-1.3-1.8" stroke-width="7"/><path d="m76.8 435.8 1.7 1.5 1 1.7.3 1.5-.3 1.5-.5 1-1.2 1-1.3.5-1 .3-1.5-.3-1.2-.5-2.3-1.2-1.5-1.3m274-12.5 6 5 3 2.8 1.3 1.5.7 1.2 1 2.8 2 6.2.8 3.8.7 3.7.8 3.5v4.5l-.5 1.5-1.3 2.8-.7.7v.3l-.3-.3-.2-2.5-.3-2.5-1.2-4.5-.8-2.5-1.5-2.7-2-3.8" stroke-width="7"/><path d="m357.3 467.5.2.8-.2.7v.5l-.5.8-.8.5-1.2.7-1.3.8-1.2.2-.5-.2-.3-.3-.5-1-1-4-.7-2.5-1.8-3.5-4.2-9" stroke-width="7"/><path d="m351.5 471.8v1.5l-.2.7-.8.8-1 .7-1.2.5h-2.3m-21-39.7.3 1.5.2 5-.2 4.2v3.3l.2 1.7.3 1.8.5 1.5 1 1.7 1.5 1.8 1.7 2 3.8 4 2.2 2.7 2.3 3.5 1.7 3 1.3 2 .7 1 1 .5 1-.2.8-.5.5-.8v-1l-.8-3-.7-2.5-2-4-.8-1.7-1.2-2.5-2-3-3.3-4.5" stroke-width="7"/><path d="m94.5 457h1l1.5-.5 1.5-.2 1.3-.8 1.5-.7 2.7-2 2.5-2.5 1.8-3 .7-1.3.8-1.5.5-1.5.2-1.5v-1.5l-.2-1.5-.3-1.2-.2-.8" stroke-width="9.75"/><path d="m326.3 457 .5.5 1 1.8 1 1.7.7 2 .5 2 .5 2.3v4.2l-.2 2 1 .5 1.2-.2 1-.5.8-1 .7-1 .8-1.3.7-2.5v-.5m-238.5-45.2-1-.5-1.2-.8-3-.7-1.8-.3h-1.7l-1 .3-.3.2-.2.5.2 2 .3 1.8 1 2 .7.7.8.8 1 .5 1 .2h3l.7.3.5.2.5.5v.8l.3 2.7.2 2.3.5 2 .5 1.5.8 1.2 1 1 1.7 1.8" stroke-width="7"/><path d="m303.8 571.3.5 1 1.2 2 1 1 1 1 1 .7 1.3.5h1.2l1.5-.5.8-.7 1-1 2.5-2.8 3-3 3.7-3.5 2-1.5 2.5-1.7 2.8-1.3 3-1.2 3.2-1 3.5-.8 3.8-.5h4.2l16-.5h2.5l2.3-.2 2.2-.8 2-.5 3.5-1.5 3.3-1.7 6.5-3 3-1.3 2.7-.7 1.5-.3h1.3l1.5.3 1.2.2 1 .5 1 .8.8.7.5 1 1 2.3.5 2.5.5 4.7.2 2.3.5 1.7 1 2.3 1 1.7 2.3 3.3 2.2 3.2 1 1.8 1.3 2.2 1 2.3.7 2.5 1.3 4.7.2 2.5.3 2.3v2l-.3 1.7-.2 1.3-.8 1.2-.7.5-1 .3-1.5-.5-1.5-1-1.8-1.8-2.2-2.2-5-6-2.8-3-3.2-2.8-3.5-2.5-2-1-1.8-1-2-.5-2.2-.5-2-.2h-2.3l-1.7.2-5.5 2-6.3 2.3-7.7 3.2-9 4.3-4.8 2.5-4.7 2.5-5 3-4.8 3-5 3.2-4.7 3.5-6.5 5-6 4-2.8 1.8-2.5 1.2-2.5 1-2.5.5-2.2.3h-2.3l-2-.8-2.2-.7-2-1.5-2-1.8-2.3-2.2-2-2.8-5.5-8.2-5.5-8.8-10-16.5-4.2-7.2m-6.3 3.2-49.7-34.5-.3-.2 2-2.8 5-6.5 5.8-8.2 2.7-4 2.3-4m15-146.5.2 1.7.5 4 1 6 1 3.3 1.3 3.7 1.2 3.8 1.8 3.5 2.2 3.7 2.5 3.3 2.8 3.2 1.5 1.3 1.7 1.5 2 1 1.8 1.2 2.2.8 2 .7 2.5.8 2.3.5m-102.5 275 16.5 4m197.7-132.8 5.3 18m142-369.5-2.8-.7-2.5-1-2.2-1.5-2.5-1.5-2-2-2-2-2-2.3-1.8-2.5-1.5-2.5-1.5-2.7-1-3-1-3-1-3.3-.5-3.2-.2-3.5-.3-3.5.3-4 .5-4 .7-3.8 1-3.5 1.3-3.5 1.5-3.2 2-3 2-2.8 2.2-2.5 2.3-2.2 2.7-2 2.8-1.8 2.7-1.2 3-1 3.3-.5 3.2-.3 3.3.3 3 .5 3 1 3 1.2 2.7 1.8 2.5 2 2.5 2.2 2 2.5 2.3 2.8 1.7 3 1.5 3.2 1.3 3.5 1.2 3.5.8 3.8.5 4v7.5l-.5 3.5-.5 3.2-.8 3.3-1.2 3.2-1 3-1.5 2.8-1.8 2.5-2.2 3.2-2.5 2.8-2.8 2.5-3 2-3.2 1.5-3.3 1.2-3.5.8-3.5.2-3.5-.2zm-.3.3h-2l-2 .5-2 1-2.2 1-1.8 1.5-2 1.7-2 2-1.7 2.3-3.5 4.7-3.3 5-2.7 5.3-2.5 4.7-3.8 7.8-3 6.5-1.5 2.7-1.2 2-1 .8-.8.5-1 .5-1.2.2-1.3.3h-1.5l-1.5-.3-2-.5-1.7-.5m-13.8 17.5.8 1.3.2.7 3 5 3 5 1.8 2.3 1.5 2 1.7 2 1.8 1.5 1.7 1.5 2 1 2.3.7 2.2.5h2.5l2.5-.5 3-.7 3-1.3 3-1.7 2.8-2 2.2-2.3 2-2.5 2-2.5 1.8-2.5 3.5-5.2 2-2.5 2-2.3 2.2-2.2 2.5-1.8 3-1.5 3.3-1.2 4-.8 4.2-.5h1" stroke-width="14"/><path d="m528.8 260.3 2.7 2.2 6.8 6 6 5.5 5.7 5.8 5.3 5.7 4.7 6.3 4.8 6.5 2 3.5 2.2 3.7 2 4 2 4.3 1.8 4.5 1.7 3.5.8 1.5 1.2 1.2 1.3 1.3 1.7.7 1.5.8 1.8.5 2 .2 1.7.3h2l2.3-.3 4-.7 4-1 4-1.3 4-1.5 7.2-2.2 6.3-2.3 6.5-2.7 3.2-1.5 3.3-1.8 3.2-1.7 3-2 2.8-2.3 2.5-2.2 2.2-2.5 2-2.5 1.8-2.8 1-2.7.7-3 .3-3.3-.3-3-.7-3.5-1-3.2-1-3.5-1.3-3.3-3-6.2-3-6.5-7.2-13.8-3.8-7.5-3.7-8.2" stroke-width="14"/><path d="m552.5 192.8 5.8-2.5 5.5-2 5.2-1.8 5.3-1.2 5.2-1 5-.8 5.3-.2 5.2-.3 5.3.5 5.5.5 5.5 1 5.7 1.5 6 1.5 6.3 2 6.7 2.5 7 2.8 6.3 2.7 6 2.8 5.5 2.7 5 2.8 4.7 3 4.5 3 4 3 4 3.2 3.5 3.3 3.3 3.2 3.2 3.3 2.8 3.5 3 3.5 2.5 3.5 5 7.5-3 .7-2.8 1-2.2 1.3-2.3 1.2-4 2.5-3.5 2-2 1-2 .5h-1l-1-.2-2.2-.5-2-1.3-2.3-1.2-4.2-3-3.5-2.5-6.3-4-5.5-3.8-10-6.5-4.5-2.5-4-2.2-4-1.5-2-.8-1.7-.2-2.5-.3h-2.3l-2.2.3-2.5.7-2.5 1" stroke-width="14"/><path d="m664 302.5-4.5-7.2-4.7-7.3" stroke-width="16.5"/><path d="m561.3 358.3-5.3 4.7-5.5 5.3-6.2 6.5-6.5 6.7-6 6.8-2.5 3.2-2 3-1.5 2.5-1 2.3-.5 2.5-.8 3-.7 7.7-.8 9.5-.5 10.5-.2 11v19.3l.2 7.2v11l-.2 8.8-.3 5.7-.2 2v3l-.3 2.5-.5 3-1 2.5-1.5 2.3-1.5 1.7-2 1.5-2 1.3-2.2 1-2.3 1-2.5.5-2.5.5-4.7.5-8.3.2-3.2.5-2.5.5-1.5.8-1.3.7-.5 1v1l.5 1 1 1.3 1.3 1.2 1.7 1 2 1.3 2 1 4.8 1.7 2.5.8 2.2.5 2.5.5 2.3.2h7.7l2 .3 2.5.5 3.5 1.2 4.3 1.5 2 .8 2.2.5h2l1.8-.3 2-.5 1.5-1 1.5-.7 1-1.3.7-1.2.5-1.3.5-1.7.3-1.8.2-4.2.3-5v-5.8l.7-6.7.3-1.8.5-3.7 1-3.3 1-3.5 1.2-3.2 3-6.3 3.5-6.7 3.3-7 1.5-3.8 1.7-4 1.3-4.2 1.2-4.5 1-5 1-5.3v-3.7l-.2-4.3-.5-4.2-.3-4.3v-4l.3-2 .5-1.7.7-1.8.8-1.7 1.2-1.3 1.5-1.2 3.3-2 3.2-2 7.5-3.3 7.5-3 7.3-3.2 4.7-2.3 4.5-2.5 4.3-2.5 4.2-2.5 5.8-4 3.5-3 4-3.2 8.5-7.8 1-1 5.2-5.2 5.3-5 5-5.3 4.5-5 4.2-5 3.5-4.5 2.8-4 1.7-3.7 1-2.3.8-2.2.5-2 .5-2.3v-4l-.3-4.2-1-3.8-1.2-4-1.8-3.7-2-3.8m3.5 32.3.8 2 .5 2.5 1 5.5 1 6.5 1 7.2 1.7 14.3 1 6.2 1.3 5.5-8.3 5-34.7 22-.5.5m-119.5-204.5v.8l1.2 6.2 1.8 7 2.2 7.8 2.5 7.7 3 7.5 3 7.3 3 6 1.5 2.5 1.5 2.2 1.8 2 1.5 1.3" stroke-width="14"/><path d="m456 237-1.5-.2-1-.3-1.2.3-2.8.7-1.7.8-.5.5v.5h.2l1.8 1 2.5 1.5 2 1.7.7 1 .5 1.3.5.7.3 1-.3 1-.2 1-.8 1.3-.7 1-.8.5h-2.5l-1.2-.8m12-12.2-2.3-1-3-1.3m17 17.8-1.2-3.3-1.3-3-1.2-2.7-.8-1.3-1.2-1.2-1.8-1.5-1.7-1.3-2.5-1.2" stroke-width="7"/><path d="m447.5 239.3h-.2l-.5-.3-1-.2-1.3.2-.5.3-.5.5-1.2 1-1.3 1.2-.5 1.3-.2.5.2.5.5.5.5.2 2 1.3 1.5 1.5 1.8 1.7 1.7 1.5.8.5 1 1.5.2.8v1.2l-.2.8-.8.7-1 .5-1.7.5h-1.5l-1.3-.2-1.2-1-2.3-1.8-2.7-2.5" stroke-width="7"/><path d="m441 244.5-.5-.2-.5-.3-1-.2-.7.2-1 .3-1 1-1 1.2-.8 1.3-.2 1.2m-2 10-1.3-2.5-1-2-.2-.7v-1l.2-.8.5-.7.5-.8.8-.5.7-.5h2l1 .5 2.3 2 3 1.8m23.7 22.7-5.5-1.5-10.5-3-3.2-1.2-2.8-1.3-1.5-.7-1.2-1-2.3-2-2-2.5-2-2.5-1.2-1.8" stroke-width="7"/><path d="m440 253.3 1.8 1.5 1 1.5.2 1.7-.2 1.3-.5 1.2-1.3 1-1 .5h-2.7l-1.3-.5-2.2-1.2-1.5-1.3m274-12.7 6 5 3 3 1.2 1.2.8 1.5 1 2.8 2 6.2.7 3.8 1 3.7.5 3.5v4.5l-.5 1.5-1.2 2.8-.5.7h-.3l-.2-.2v-2.3l-.5-2.5-1.3-4.7-.7-2.3-1.5-3-2-3.5" stroke-width="7"/><path d="m720.8 284.8v1.5l-.3.7-.5.8-.7.5-1.3.7-1.2.5-1.3.3h-.2l-.5-.5-.5-.8-1-4-.8-2.7-1.7-3.5-4.3-8.8" stroke-width="7"/><path d="m714.8 289v1.8l-.3.7-.7.8-1 .7-1.3.3-1.2.2h-1m-21-40 .2 1.5.3 5.3v4l-.3 3.5.3 1.7.2 1.5.5 1.8 1 1.7 1.5 1.8 1.8 1.7 3.7 4 2.3 3 2.2 3.5 1.8 2.8 1.2 2 .8 1.2 1 .3h1l.7-.5.5-.8v-1l-.7-3.2-.8-2.3-2-4-.7-1.7-1.3-2.5-2-3.3-3.2-4.2" stroke-width="7"/><path d="m457.8 274.3h1l1.5-.3 1.5-.5 1.5-.5 1.2-1 2.8-2 2.5-2.5 1.7-2.7.8-1.5.7-1.5.5-1.5.3-1.5v-1.3l-.3-1.5-.2-1.5-.3-.7" stroke-width="9.75"/><path d="m689.8 274.3.2.5 1 2 1 1.7.8 2 .5 2 .5 2v4.3l-.3 2.2 1 .3h1.3l1-.5.7-1 .8-1 .7-1.3.8-2.5v-.5m-238.5-45.2-1-.8-1.3-.5-3-1-1.7-.2h-1.8l-1 .5-.2.2-.3.5.3 2 .5 1.8.7 1.7.8 1 .7.5 1 .8 1 .2h3l.8.3h.5l.5.5v.7l.2 3 .3 2.3.5 1.7.5 1.5.7 1.3 1 1 1.8 2" stroke-width="7"/><path d="m667 388.8.5.7 1.3 2 1 1.3 1 1 1 .7 1.2.3h1.3l1.5-.5.7-.8 1-1 2.5-2.5 3-3.2 3.8-3.3 2-1.7 2.5-1.5 2.7-1.3 3-1.2 3.3-1 3.5-.8 3.7-.5h4.3l16.2-.5h2.3l2.2-.5 2.3-.5 2-.7 3.5-1.3 3.2-1.7 6.5-3.3 3-1 2.8-1h4.2l1.3.5 1 .5 1 .8.7.7.8 1 .7 2 .5 2.5.5 5 .3 2 .5 1.8 1 2.5 1 1.7 2.2 3.3 2.3 3.2 1 1.8 1.2 2.2 1 2.3.8 2.5 1.2 4.7.3 2.3.2 2.2v3.8l-.5 1.5-.7 1-.8.7h-1l-1.2-.2-1.8-1-1.7-1.8-2.3-2.2-5-6-2.7-3-3.3-2.8-3.5-2.5-2-1.2-1.7-.8-2-.7-2.3-.3-2-.2h-2.2l-1.8.2-5.5 1.8-6.2 2.5-7.8 3.2-8.7 4.3-5 2.2-4.8 2.8-5 2.7-4.7 3.3-5 3.2-4.5 3.5-6.8 5-6 4-2.5 1.5-2.7 1.3-2.5 1-2.5.7-2.3.3-2.2-.3-2-.5-2.3-1-2-1.2-2-1.8-2-2.2-2.2-2.8-5.5-8.2-5.5-8.8-10-16.5-4.3-7.2m-6.2 3.2-49.8-34.7h-.2l2-2.8 5-6.5 5.7-8.2 2.8-4.3 2.2-3.7m15-146.5.3 1.5.5 4.2 1.2 5.8.8 3.5 1.2 3.5 1.5 3.7 1.8 3.8 2 3.5 2.5 3.5 2.7 3 1.8 1.5 1.5 1.2 2 1.3 1.7 1 2.3 1 2 .7 2.5.8 2.2.2m-102.5 275.3 16.5 4" stroke-width="14"/><path d="m737.3 374.5 5.2 18" stroke-width="16.5"/></g></svg>