<svg height="850.394" viewBox="0 0 850.394 850.394" width="850.394" xmlns="http://www.w3.org/2000/svg"><path d="m741.71 614.46-.34 48.95-14.37 14.37-23.67-5.05.67-26.73-2.03-2.81z" fill="#f6cc4b"/><path d="m745.09 130.1-3.38 484.36-39.74 28.73-59.6 43.09h-.01l2.14-539.15.26-4.48 4 .23 95.58-16.98z" fill="#f6cc4b"/><path d="m596.12 139.88-.32 5.66-.31 142.11-238.44-23.49 1.73-137.82z" fill="#fff5b4"/><path d="m755.06 124-10.72 1.9-95.58 16.98-4-.23-48.64-2.77-237.34-13.54-217.08-12.38-35.77-2.05-6.42-.36 164.97-18.7z" fill="#f6cc4b"/><path d="m358.78 126.34-1.73 137.82-215.35-21.22v-128.98z" fill="#fff5b4"/><path d="m141.7 113.96v548.55l-5.75 2.76-30.34-7.19v-540.48l.32-5.69z" fill="#f6cc4b"/><path d="m594.93 547.91-.37 171.8-438.3-87.32-9.93-1.98h-4.63v-147.97zm.28-131.29-.28 131.29-453.23-65.47v-239.5l215.35 21.22 238.44 23.49z" fill="#fff5b4"/><path d="m595.49 287.65.31-142.11.32-5.66 48.64 2.77-.26 4.48-2.14 539.15-.26 66.8-13.57 13.58-34.06-7.12.09-39.83.37-171.8.28-131.29z" fill="#f6cc4b"/><g fill="none"><g stroke="#231f20" stroke-width="21"><path d="m155.91 634.13v21.56l-14.21 6.82-5.75 2.76-30.34-7.19v-540.48m649.46 6.4 7.59-1.35m-663.15-11.1 6.42.36 35.77 2.05 217.08 12.38 237.34 13.54 48.64 2.77 4 .23 95.58-16.98 10.72-1.9m-666.21-13.06 10.64.61"/><path d="m99.49 111.55h.02l164.97-18.7 490.58 31.15h.01m-613.37-10.04v551.31m502.8-518.14-2.14 539.15-.26 66.8-13.57 13.58-34.06-7.12.09-39.83.37-171.8.28-131.29.28-128.97.31-142.11"/><path d="m146.33 630.41 9.93 1.98 438.3 87.32 1.44.29m46.37-33.72 59.6-43.09 39.74-28.73"/><path d="m745.09 130.1-3.38 484.36-.34 48.95-14.37 14.37-23.67-5.05.67-26.73m-562.3-403.06 215.35 21.22 238.44 23.49h.01m-446.07 76.55 445.78 52.42.29.03m-453.8 65.79 453.23 65.47m-236.15-421.57-1.73 137.82"/><path d="m210.34 193.63 69.31 6.99m35.45 125.26 69.32 6.99m-69.32 116.83 69.32 7m-70.17 116.18 68.4 13.24m56.89-370.91 69.31 6.99" stroke-linecap="round" stroke-linejoin="round"/></g><path d="m0 0h850.394v850.394h-850.394z"/></g></svg>