<svg height="850.394" viewBox="0 0 850.394 850.394" width="850.394" xmlns="http://www.w3.org/2000/svg"><path d="m350.63 424.49c-.09-2.62-2.7-76.41-13.37-101.03-25.13-57.99-84.39-48.46-114.47-48.46s-27.57 25.07-27.57 25.07l-.84 124.49.01-.14.83 124.5s-2.5 25.07 27.58 25.07 89.33 9.529 114.46-48.471c10.68-24.609 13.28-98.409 13.37-101.029zm407.75-.76v1.53c-.21 41.15-42.62 38.431-42.62 38.431h-294.11c-.83 42.619-11.69 94.42-37.6 131.18-44.86 63.68-170.03 54.42-217.24 42.62-56.81-14.21-51.8-91.91-51.8-91.91v-116.981l-.01-8.22v-116.97s-5.01-77.7 51.81-91.91c47.21-11.8 172.37-21.06 217.24 42.61 25.91 36.77 36.77 88.57 37.6 131.18h294.11s42.41-2.64 42.62 38.44z" fill="#ed1e29"/><g fill="none" stroke="#231f20" stroke-width="21"><path d="m758.38 423.73c-.21-41.08-42.62-38.44-42.62-38.44h-294.11c-.83-42.61-11.69-94.41-37.6-131.18-44.87-63.67-170.03-54.41-217.24-42.61-56.82 14.21-51.81 91.91-51.81 91.91v116.97l.01 8.22v116.98s-5.01 77.7 51.8 91.91c47.21 11.8 172.38 21.06 217.24-42.62 25.91-36.76 36.77-88.561 37.6-131.18h294.11s42.41 2.72 42.62-38.431zm-407.75.76v-.07"/><path d="m350.63 424.49c-.09-2.62-2.7-76.41-13.37-101.03-25.13-57.99-84.39-48.46-114.47-48.46s-27.57 25.07-27.57 25.07l-.84 124.49.01-.14.83 124.5s-2.5 25.07 27.58 25.07 89.33 9.529 114.46-48.471c10.68-24.609 13.28-98.409 13.37-101.029zm0 .07v-.07"/></g><path d="m0 0h850.394v850.394h-850.394z" fill="none"/><path d="m778.22 148.98c2.33.31 4.57.42 6.74.32-1.83.84-3.59 1.83-5.29 2.97-38.189.32-84.4 33.19-106.37 35.59-17.979 1.97-54.72 3.01-54.72 3.01l2.2-.15s-39.44-1.15-57.44-3.11c-21.359-2.32-54.06-35.01-89.53-37.34 25.7-3.41 41.881-11.9 70.811-19.52 22.06-5.81 44.35-5.85 67.17 3.72l4.96 1.25 3.14.26 4.96-1.25c22.83-9.57 45.12-9.56 67.15-3.73 32.669 8.61 54.289 15.81 86.219 17.98z" fill="#ffeec8"/><path d="m473.81 150.27c35.471 2.33 68.171 35.02 89.53 37.34 18 1.96 57.44 3.11 57.44 3.11l-2.2.15s36.74-1.04 54.72-3.01c21.97-2.4 68.181-35.27 106.37-35.59-29.88 19.91-42.65 82.23-126.78 82.23l-37.05.79-32.09-1.04c-89.72 0-96.21-71.86-130.94-86.61 3.601-.02 7.421-.54 11.44-1.54l.42 4.28c3.06-.29 6.11-.31 9.14-.11z" fill="#ef947d"/><path d="m637.62 77.61c13.54-6.15 32.95-8.34 52.91 11.63 35.5 35.48 65.21 56.8 87.689 59.74-31.93-2.17-53.55-9.37-86.22-17.98-22.03-5.83-44.32-5.84-67.15 3.73l-4.96 1.25-3.14-.26-4.96-1.25c-22.82-9.57-45.11-9.53-67.17-3.72-28.93 7.62-45.11 16.11-70.811 19.52-3.029-.2-6.079-.18-9.14.11l-.42-4.28c21.75-5.41 49.65-24.92 81.86-57.12 20.892-20.91 41.192-17.52 54.782-10.74l.03-.06c10.75 4.78 17.66 11.37 17.66 11.37s7.43-7.23 18.92-11.89c.04-.02.08-.04.12-.05z" fill="#ef947d"/><g fill="none" stroke="#231f20" stroke-linecap="round" stroke-linejoin="round" stroke-width="14"><path d="m604.98 80.48c-1.28-.77-2.65-1.53-4.091-2.24-13.589-6.78-33.889-10.17-54.779 10.74-32.21 32.2-60.11 51.71-81.86 57.12-4.02 1-7.84 1.52-11.44 1.54m184.81-70.03c.77-.32 1.56-.61 2.36-.9"/><path d="m600.92 78.18c10.75 4.78 17.66 11.37 17.66 11.37s7.43-7.23 18.92-11.89"/><path d="m631.66 80.74c1.79-1.08 3.74-2.13 5.84-3.08.04-.02.08-.04.12-.05 13.54-6.15 32.95-8.34 52.91 11.63 35.5 35.48 65.21 56.8 87.689 59.74 2.33.31 4.57.42 6.74.32.17 0 .33-.01.49-.02m-169.609 86.01-32.09-1.04c-89.72 0-96.21-71.86-130.94-86.61m163.03 87.65-1.38.03h2.29z"/><path d="m785.88 148.89a37.782 37.782 0 0 0 -6.21 3.38c-29.88 19.91-42.65 82.23-126.78 82.23l-37.05.79m4.94-44.57s-39.44-1.15-57.44-3.11c-21.359-2.32-54.06-35.01-89.53-37.34-3.029-.2-6.079-.18-9.14.11-.439.03-.87.08-1.31.13"/><path d="m782.85 152.31c-1.05-.04-2.119-.06-3.18-.04-38.189.32-84.4 33.19-106.37 35.59-17.979 1.97-54.72 3.01-54.72 3.01l2.2-.15m158.7-41.65c-.421-.03-.841-.05-1.261-.09-31.93-2.17-53.55-9.37-86.22-17.98-22.03-5.83-44.32-5.84-67.15 3.73l-4.96 1.25-3.14-.26-4.96-1.25c-22.82-9.57-45.11-9.53-67.17-3.72-28.93 7.62-45.11 16.11-70.811 19.52-3.06.42-6.26.76-9.63 1.01"/></g></svg>