<svg height="850.394" viewBox="0 0 850.394 850.394" width="850.394" xmlns="http://www.w3.org/2000/svg"><g fill="#ef3d27"><path d="m424 730.72h-94.86l.86-98.72v-2.15l93.84-.17 98.16-.18v2.5l-2 96v2.72z"/><path d="m329.14 730.72h94.86v5.28l-.15 52.11-177.36 2.1-.34-59.49z"/><path d="m599.69 730.69.26 55.33-176.1 2.09.15-52.11v-5.28h169.95z"/></g><path d="m574.77 230.06h56.761c13.22 0 23.939 14.94 23.939 33.36v64.77c0 18.42-10.72 33.36-23.939 33.36h-415.391c-13.22 0-23.94-14.94-23.94-33.36v-64.77c0-18.42 10.72-33.36 23.94-33.36z" fill="#c8c8c8"/><path d="m522 629.5-98.16.18v-106.46h172.52l2.37-.01.96 207.48-5.74.03h-73.95v-2.72l2-96z" fill="#ef3d27"/><path d="m598.21 411.99.52 111.22-2.37.01h-77.51v-108.28l.01-3.16 77.14.22z" fill="#ef3d27"/><path d="m598 366 .21 45.99-2.21.01-77.14-.22-190.63-.53-82.94-.23-.99.01-.29-49.48h353.99z" fill="#c8c8c8"/><path d="m573.98 221.81.789 8.25h-130.559v-.78l.63-7.38 1.16.1 9.63-95.99c0-12.68 24.24-30.37 53.55-30.37 29.301 0 52.57 17.69 52.57 30.37l10.25 95.99zm-55.12 189.97-.01 3.16v108.28h-190.62v-111.97z" fill="#ef3d27"/><path d="m509.18 95.64c-29.31 0-53.55 17.69-53.55 30.37l-9.63 95.99-1.16-.1 10.79-127.25c0-12.69 24.24-30.38 53.55-30.38 29.301 0 52.57 17.69 52.57 30.38l12.23 127.16-1.98.19-10.25-95.99c0-12.68-23.27-30.37-52.57-30.37zm-85.34 531.33v2.71l-93.84.17-80 .15-4.44.03-.62-106.79 2.76-.02h176.14v1.2zm-32.4-502.44 10.15 105.53h-127.77v-2.39l8.62-101.66c0-12.68 24.25-30.37 53.55-30.37 28.38 0 51.11 16.6 52.5 29.17z" fill="#ef3d27"/><path d="m330 629.85v2.15l-.86 98.72h-82.99l-.59-100.69 4.44-.03zm-1.77-111.16v4.53h-80.53l-2.76.02-.64-112.21.99-.01 82.94.23v1.27zm-57.2-289.41 11.41-134.63c0-12.69 24.25-30.38 53.55-30.38s52.57 17.69 52.57 30.38l2.88 29.88-2.95.28c-1.39-12.57-24.12-29.17-52.5-29.17-29.3 0-53.55 17.69-53.55 30.37l-8.62 101.66v2.39h-2.79z" fill="#ef3d27"/><g fill="none" stroke="#231f20" stroke-width="21"><path d="m574.77 230.06h56.761c13.22 0 23.939 14.94 23.939 33.36v64.77c0 18.42-10.72 33.36-23.939 33.36h-415.391c-13.22 0-23.94-14.94-23.94-33.36v-64.77c0-18.42 10.72-33.36 23.94-33.36z"/><path d="m246.49 790.21-.34-59.49-.59-100.69-.62-106.79-.64-112.21-.29-49.48-.01-1.55m354 6 .21 45.99.52 111.22.96 207.48.26 55.33.02 4.19m-198.37-560.06-.01-.09-10.15-105.53-2.88-29.88c0-12.69-23.27-30.38-52.57-30.38s-53.55 17.69-53.55 30.38l-11.41 134.63m303.75.87-.011-.09-.789-8.25-12.23-127.16c0-12.69-23.27-30.38-52.57-30.38-29.31 0-53.55 17.69-53.55 30.38l-10.79 127.25-.63 7.38"/><path d="m398 224-9.44-97.99c0-.4-.02-.8-.07-1.2-1.39-12.57-24.12-29.17-52.5-29.17-29.3 0-53.55 17.69-53.55 30.37l-8.62 101.66m298.18-5.67-10.25-95.99c0-12.68-23.27-30.37-52.57-30.37-29.31 0-53.55 17.69-53.55 30.37l-9.63 95.99m-200.71 189.02 82.94.23 190.63.53 77.14.22m-348.3 111.22h348.66m-346.36 106.78 80-.15 93.84-.17 98.16-.18 67.12-.12m-343.83 101.34h348.66m-265.72-318.2v106.17m190.62-103.75v106.16m-188.85 110.9-.86 98.72-.01.6m192.87-99.32-2 96m-96.16-203.58v102.55m.16 109.03-.15 52.11-.01 2.1"/></g><path d="m0 0h850.394v850.394h-850.394z" fill="none"/></svg>