<svg height="850.394" viewBox="0 0 850.394 850.394" width="850.394" xmlns="http://www.w3.org/2000/svg"><path d="m633.55 575.13c-28.68 12.73-70.03 22.71-118.64 28.32 87.24-10.34 145.2-35.561 159.79-66.47-6.21 13.26-20.29 26.42-41.15 38.15zm-460.39-35.7c4.75 10.511 15.34 21.13 31.01 31.021-15.42-8.05-26.01-17.04-30.59-26.61 0-.01 0-.02-.01-.04-.41-2.05-.8-4.1-1.17-6.17.24.599.49 1.199.76 1.799z" fill="#fff"/><path d="m417.78 608.49c1.98.01 3.96.02 5.95.02 2.18 0 4.34-.01 6.51-.02 29.899-.221 57.7-1.9 83.05-4.851.54-.06 1.08-.13 1.62-.189 48.609-5.61 89.96-15.59 118.64-28.32-43.62 24.55-116.88 42.87-209.82 42.87-99.87 0-177.78-21.18-219.56-47.55 24.43 12.77 61.01 23.2 105.03 29.88 1.19.189 2.38.37 3.58.54 27.85 4.17 59.12 6.79 93.19 7.46 1.95.04 3.91.08 5.88.1 1.97.03 3.94.05 5.93.06z" fill="#ffa500"/><path d="m674.91 541.37c-.021.12-.04.229-.061.34-.02.07-.029.14-.04.21l-.63 3.15a373.682 373.682 0 0 1 -3.86 16.969c-.761 3-1.551 5.97-2.38 8.93l-.9 3.17c-.82 2.83-1.68 5.65-2.56 8.44-.32 1.03-.65 2.05-.99 3.07-.3.939-.61 1.88-.931 2.81-.189.57-.38 1.13-.579 1.7a270.159 270.159 0 0 1 -2.04 5.821c-.351.989-.71 1.979-1.08 2.96-.37 1.02-.75 2.02-1.141 3.029-1.239 3.25-2.52 6.48-3.85 9.67-.29.681-.57 1.36-.86 2.04a384.22 384.22 0 0 1 -1.609 3.75c-.341.78-.681 1.551-1.03 2.32-.64 1.43-1.29 2.86-1.95 4.28-.39.859-.79 1.71-1.189 2.56a374.445 374.445 0 0 1 -2.921 6c-.39.78-.779 1.57-1.18 2.351-1.1 2.17-2.229 4.329-3.37 6.46-.37.68-.74 1.369-1.109 2.05-.49.899-.98 1.8-1.48 2.689-.5.9-1 1.79-1.51 2.681-.5.89-1.01 1.77-1.53 2.649-.51.891-1.03 1.771-1.55 2.641-.521.88-1.04 1.75-1.57 2.62-.91 1.489-1.83 2.979-2.76 4.46-.23.359-.46.72-.7 1.09-.46.72-.92 1.45-1.39 2.17-.55.85-1.101 1.689-1.66 2.53-13.34 20.17-28.67 38.289-45.63 53.909-.54.5-1.08.99-1.62 1.471-3.87 3.51-7.82 6.88-11.84 10.12-.76.609-1.51 1.21-2.271 1.8-.75.6-1.51 1.189-2.279 1.77-.591.45-1.17.9-1.761 1.34-.56.431-1.119.851-1.689 1.271-4.75 3.51-9.59 6.85-14.53 9.99-.79.51-1.58 1.01-2.38 1.5l-1.95 1.199c-.95.58-1.899 1.141-2.85 1.7-.74.44-1.49.88-2.24 1.311-2.21 1.27-4.44 2.5-6.68 3.689-.58.32-1.17.62-1.761.931-.56.289-1.119.579-1.689.869-.67.351-1.35.69-2.03 1.021-.2.11-.399.21-.59.3-.74.37-1.49.73-2.24 1.09-.989.48-1.979.95-2.97 1.41-.67.311-1.35.62-2.03.93-2.58 1.17-5.17 2.29-7.79 3.351-.819.34-1.649.67-2.479 1-.82.319-1.65.649-2.48.96-.09.04-.17.07-.26.1l-2.25.84c-.71.261-1.43.521-2.15.771-.59.22-1.18.43-1.779.63-.63.22-1.261.43-1.891.64-.75.25-1.489.5-2.239.74-.98.32-1.96.63-2.94.93-.78.24-1.57.48-2.36.71-.88.271-1.77.521-2.659.771-.891.26-1.78.5-2.681.74-.89.239-1.79.479-2.68.7-.9.229-1.8.46-2.7.67-4.33 1.05-8.7 1.96-13.1 2.729-.5.09-.99.18-1.49.26-.6.101-1.2.2-1.8.29-.771.13-1.55.25-2.32.36-.93.14-1.87.27-2.8.4-.94.13-1.88.25-2.83.359-.54.07-1.08.13-1.62.19-.51.06-1.03.12-1.54.17-1.96.21-3.92.39-5.899.54a187.702 187.702 0 0 1 -5.951.389c-.74.04-1.48.07-2.23.101-2.84.109-5.68.17-8.54.17-1.04 0-2.07-.011-3.1-.021-1.47-.02-2.94-.06-4.4-.109-.33-.011-.66-.021-.99-.04-.74-.03-1.49-.061-2.23-.101-.25-.01-.5-.02-.76-.04-.95-.05-1.9-.109-2.85-.17-.94-.06-1.89-.13-2.84-.21-1.45-.11-2.88-.25-4.32-.39-.45-.05-.89-.09-1.33-.141-.94-.1-1.88-.21-2.82-.319-.94-.11-1.87-.23-2.81-.36a94 94 0 0 1 -2.34-.33c-.69-.1-1.39-.2-2.08-.31-1.14-.181-2.27-.36-3.4-.561-.92-.149-1.83-.319-2.73-.49-.87-.159-1.73-.319-2.6-.5l-.19-.029c-.65-.13-1.31-.271-1.97-.41-.61-.12-1.22-.25-1.83-.39-.7-.15-1.4-.311-2.1-.471-.71-.16-1.43-.33-2.14-.5-.9-.21-1.79-.43-2.68-.66-.59-.149-1.18-.3-1.77-.46-.57-.14-1.14-.29-1.71-.449-.87-.23-1.73-.471-2.6-.721-.1-.029-.2-.06-.31-.09l-2.17-.63c-.75-.22-1.49-.45-2.23-.68-.83-.25-1.65-.511-2.47-.78-.84-.27-1.67-.54-2.51-.82-.55-.18-1.1-.37-1.65-.56-.61-.21-1.22-.43-1.83-.64-.64-.23-1.28-.45-1.91-.69a213.583 213.583 0 0 1 -11.38-4.5c-.65-.271-1.3-.56-1.95-.84-.64-.28-1.29-.57-1.93-.86-.7-.31-1.41-.63-2.11-.96-.56-.26-1.12-.52-1.68-.79-.77-.359-1.55-.729-2.31-1.1-.66-.32-1.32-.641-1.97-.971-.58-.279-1.16-.579-1.74-.869-.64-.32-1.27-.65-1.91-.98-.71-.37-1.42-.74-2.12-1.12-.83-.439-1.66-.89-2.48-1.34-1.65-.9-3.29-1.82-4.92-2.77-1.3-.75-2.59-1.511-3.88-2.301-.57-.34-1.13-.68-1.69-1.029-.57-.341-1.13-.69-1.69-1.051-.8-.5-1.6-1.01-2.4-1.52-.79-.51-1.59-1.03-2.38-1.55-.79-.521-1.58-1.05-2.36-1.58-.79-.53-1.57-1.07-2.35-1.61-6.24-4.33-12.33-8.96-18.23-13.899-.74-.61-1.48-1.23-2.21-1.86-1.75-1.5-3.49-3.021-5.21-4.58-.51-.45-1.02-.91-1.52-1.37a265.434 265.434 0 0 1 -8.32-7.93c-1.37-1.36-2.72-2.73-4.06-4.12-1.34-1.38-2.67-2.79-3.99-4.21-.81-.88-1.62-1.76-2.42-2.64-1.04-1.16-2.09-2.33-3.11-3.511-2.75-3.14-5.44-6.35-8.07-9.64-.63-.771-1.25-1.56-1.86-2.34a275.2 275.2 0 0 1 -5.47-7.181 217.5 217.5 0 0 1 -1.78-2.439c-.59-.82-1.18-1.64-1.76-2.46s-1.16-1.65-1.74-2.48c-.58-.84-1.15-1.67-1.72-2.51s-1.14-1.68-1.7-2.53c-.66-.989-1.31-1.979-1.96-2.989-.46-.71-.92-1.42-1.37-2.13-1.1-1.721-2.18-3.45-3.25-5.211-.54-.869-1.07-1.75-1.59-2.63-.53-.88-1.05-1.77-1.57-2.659-.52-.891-1.04-1.78-1.55-2.671-1.02-1.8-2.03-3.6-3.03-5.42-.49-.909-.99-1.819-1.48-2.739-.46-.86-.91-1.721-1.37-2.58-.51-.98-1.02-1.96-1.52-2.95-.47-.93-.94-1.86-1.41-2.8a331.031 331.031 0 0 1 -4.1-8.5c-.44-.95-.88-1.91-1.31-2.87-.46-1.01-.92-2.03-1.37-3.061-.4-.909-.8-1.819-1.2-2.739-.42-.971-.83-1.95-1.24-2.931-.41-.97-.82-1.96-1.22-2.939-.41-.99-.81-1.971-1.2-2.96-.4-.99-.79-1.99-1.17-2.98-.39-1-.77-2-1.15-3a382.364 382.364 0 0 1 -2.22-6.04c-.36-1.02-.72-2.03-1.07-3.05l-.99-2.88c-.36-1.08-.72-2.17-1.08-3.26-.33-1.03-.66-2.061-.99-3.101-.33-1.029-.65-2.069-.97-3.109a342.375 342.375 0 0 1 -3.61-12.601c-.28-1.06-.56-2.12-.84-3.189-.27-1.061-.54-2.13-.81-3.2a379.364 379.364 0 0 1 -2.96-12.95c-.25-1.2-.5-2.41-.74-3.62 4.58 9.57 15.17 18.561 30.59 26.61 41.778 26.37 119.688 47.55 219.558 47.55 92.94 0 166.2-18.32 209.82-42.87 22.2-9.85 36.82-21.35 41.36-33.76z" fill="#ffa500"/><path d="m309.2 600.33c-44.02-6.68-80.6-17.11-105.03-29.88-15.67-9.891-26.26-20.51-31.01-31.021 12.02 26.381 61.41 49.261 136.04 60.901z" fill="#fff"/><path d="m536.62 555.93c0 14.601 11.83 26.42 26.43 26.42 14.601 0 26.44-11.819 26.44-26.42 0-14.62-11.84-26.449-26.44-26.449-14.6-.001-26.43 11.829-26.43 26.449zm-279.31 0c0 14.601 11.84 26.42 26.44 26.42 14.59 0 26.43-11.819 26.43-26.42 0-14.62-11.84-26.449-26.43-26.449-14.6-.001-26.44 11.829-26.44 26.449zm140.23 11.49c0 14.6 11.84 26.42 26.44 26.42 14.59 0 26.43-11.82 26.43-26.42 0-14.62-11.84-26.45-26.43-26.45-14.6 0-26.44 11.83-26.44 26.45zm277.16-30.44c-14.59 30.909-72.55 56.13-159.79 66.47-.54.06-1.08.13-1.62.189-25.92 2.931-53.87 4.63-83.05 4.851-2.17.01-4.33.02-6.51.02-1.99 0-3.97-.01-5.95-.02s-3.96-.03-5.93-.061c-1.96-.029-3.92-.06-5.88-.1-33.25-.69-64.72-3.3-93.19-7.46-1.2-.17-2.39-.351-3.58-.54-74.63-11.64-124.02-34.521-136.04-60.9-.27-.6-.52-1.199-.76-1.8-.14-.74-.28-1.49-.4-2.229-.07-.381-.14-.761-.2-1.141-.15-.859-.3-1.72-.44-2.58-.14-.819-.27-1.63-.4-2.449-.4-2.54-.78-5.08-1.13-7.641-.27-1.96-.53-3.939-.77-5.92-.16-1.34-.32-2.67-.47-4.02-.17-1.551-.33-3.11-.49-4.681-.13-1.319-.26-2.649-.37-3.979-.1-1.04-.18-2.08-.26-3.12l-.06-.66c-.09-1.12-.17-2.24-.24-3.36l-.12-1.72c-.05-.74-.1-1.49-.14-2.24-.07-1.1-.13-2.199-.18-3.31-.02-.3-.03-.6-.05-.9-.04-.97-.09-1.949-.12-2.93-.04-.77-.07-1.54-.09-2.31-.1-2.931-.17-5.87-.21-8.82-.02-1.61-.03-3.22-.03-4.84 0-1.49.01-2.98.03-4.471 0-.76.01-1.52.03-2.279.01-.75.02-1.5.04-2.25l.09-3.3c0-.061 0-.131.01-.2.04-1.311.09-2.62.14-3.931l.21.011c.32 1.109.7 2.21 1.13 3.3 7.19 25.25 48.29 47.26 108.2 61.1.5.11 1 .23 1.5.34 38.15 8.86 84.44 14.301 136.32 14.92 3.32.04 6.66.061 10.02.061 142.03 0 257.16-37.771 257.16-84.37l.13-.01c.359 7.1.54 14.13.54 21.08 0 1.56-.011 3.12-.03 4.67-.01 1.46-.04 2.92-.07 4.37-.05 1.87-.1 3.739-.18 5.6-.04 1.26-.09 2.53-.15 3.78l-.029.52c-.061 1.32-.13 2.63-.21 3.94-.011.21-.021.42-.04.62-.08 1.43-.181 2.859-.28 4.29-.1 1.39-.2 2.779-.32 4.16-.02.229-.029.449-.05.659-.12 1.44-.25 2.87-.39 4.301a363.5 363.5 0 0 1 -.46 4.529 310.8 310.8 0 0 1 -.511 4.511c-.489 4.14-1.05 8.25-1.68 12.329-.189 1.261-.39 2.521-.6 3.78-.021.141-.04.28-.07.42-.2 1.25-.41 2.49-.63 3.73 0 .04-.01.09-.021.13l-.5-.09a39.945 39.945 0 0 1 -.859 1.951z" fill="#a800d4"/><path d="m633.55 575.13c20.86-11.729 34.94-24.89 41.15-38.149.31-.65.59-1.301.859-1.95l.5.09c0 .02-.01.04-.01.06-.189 1.09-.39 2.181-.59 3.271-.18.97-.36 1.939-.54 2.899-.01.011-.01.021-.01.021-4.539 12.408-19.159 23.908-41.359 33.758z" fill="#fff"/><path d="m172.38 537.57c-.13-.721-.26-1.44-.38-2.17.12.739.26 1.489.4 2.229-.01-.01-.01-.02-.01-.03 0-.009-.01-.019-.01-.029zm509.3-59.75c.03-1.45.061-2.91.07-4.37-.01 1.46-.04 2.92-.07 4.37zm-.89 18.75c.1-1.431.2-2.86.28-4.29-.08 1.44-.17 2.86-.28 4.29zm-.32 4.16c.12-1.381.221-2.771.32-4.16-.09 1.39-.2 2.78-.32 4.16zm-.9 9.49c.16-1.51.319-3.02.46-4.529-.14 1.519-.3 3.019-.46 4.529z" fill="#fff400"/><path d="m675.46 538.45c.2-1.09.4-2.181.59-3.271-.19 1.091-.38 2.181-.59 3.271zm-.54 2.9c-.02.12-.05.24-.07.36.021-.11.04-.22.061-.34-.001 0-.001-.01.009-.02zm-.74 3.72.63-3.15c-.2 1.05-.41 2.1-.63 3.15zm-7.14 29.07c.3-1.05.6-2.109.9-3.17-.29 1.06-.6 2.11-.9 3.17zm-.27-222.03v.01h-.01c-1.17-4.77-2.399-9.54-3.7-14.3 1.3 4.76 2.53 9.52 3.71 14.29zm0 .01-47.61 95.4 47.6-95.4z" fill="#fff"/><path d="m663.49 585.65c.34-1.021.67-2.04.99-3.07-.33 1.03-.65 2.05-.99 3.07z" fill="#fff400"/><path d="m653.01 613.68c.29-.68.57-1.359.86-2.04-.29.69-.57 1.37-.86 2.04zm-2.64 6.07c.35-.77.689-1.54 1.03-2.32-.34.78-.69 1.55-1.03 2.32z" fill="#fff"/><path d="m647.23 626.59c.399-.85.8-1.7 1.189-2.56-.389.86-.789 1.71-1.189 2.56zm-4.1 8.35c.4-.78.79-1.57 1.18-2.351-.39.791-.78 1.571-1.18 2.351zm-4.48 8.51c.369-.681.739-1.37 1.109-2.05-.369.69-.729 1.37-1.109 2.05zm-1.48 2.69c.5-.89.99-1.79 1.48-2.689-.49.899-.98 1.799-1.48 2.689zm-11.01 18.31c.47-.72.93-1.45 1.39-2.17-.45.73-.92 1.45-1.39 2.17zm-1.66 2.53c.56-.841 1.11-1.681 1.66-2.53-.54.85-1.1 1.69-1.66 2.53z" fill="#fff400"/><path d="m563.05 529.48c14.601 0 26.44 11.829 26.44 26.449 0 14.601-11.84 26.42-26.44 26.42s-26.43-11.819-26.43-26.42c0-14.619 11.83-26.449 26.43-26.449z" fill="#f73900"/><path d="m573.85 154.27c27.49 34.77 50.94 77.21 68.891 122.59 0 49.66-97.721 89.93-218.28 89.93-120.55 0-218.28-40.27-218.28-89.93l-.79-.32c1.82-4.6 3.7-9.17 5.64-13.7.99-2.33 2-4.66 3.02-6.97 1.82-4.09 3.67-8.15 5.57-12.18 1.27-2.67 2.55-5.33 3.84-7.97 4.86-9.86 9.97-19.49 15.35-28.83 1.06-1.87 2.14-3.72 3.23-5.56 1.61-2.72 3.23-5.41 4.89-8.07.67-1.08 1.34-2.15 2.01-3.22.76-1.2 1.52-2.41 2.3-3.6 1.52-2.36 3.06-4.7 4.61-7.02.02-.03.04-.05.05-.07.79-1.16 1.58-2.33 2.37-3.48 2.37-3.47 4.79-6.88 7.25-10.23 1.62-2.21 3.26-4.4 4.9-6.55.83-1.09 1.66-2.17 2.51-3.24.04.21.07.42.12.62 0 .03 0 .06.01.08 1.41 12.91 14.87 24.69 36.34 33.85.15.06.28.12.42.18 25.58 11.11 62.65 18.21 105.84 18.97 2.56.05 5.13.07 7.73.07 83.1 0 150.45-24.79 150.45-55.35z" fill="#fff400"/><path d="m560.86 736.05a98.91 98.91 0 0 0 2.279-1.77c-.759.6-1.519 1.19-2.279 1.77z" fill="#fff"/><path d="m538.55 751.35 1.95-1.199c-.65.409-1.3.809-1.95 1.199z" fill="#fff400"/><path d="m525.02 758.98c.591-.311 1.181-.61 1.761-.931-.591.311-1.171.621-1.761.931z" fill="#fff"/><path d="m518.47 762.26c.75-.359 1.5-.72 2.24-1.09-.75.37-1.49.74-2.24 1.09zm-5 2.34c.681-.31 1.36-.619 2.03-.93-.67.32-1.35.63-2.03.93z" fill="#fff400"/><path d="m424.01 65.54c55.891 0 107.62 35.3 149.84 88.73h-.01c0 30.56-67.35 55.35-150.45 55.35-2.6 0-5.17-.02-7.73-.07-42.21-.79-79.83-7.97-105.84-18.97-.14-.06-.27-.12-.42-.18-20.69-9.06-33.77-20.76-36.34-33.85-.01-.02-.01-.05-.01-.08l-.06-.7c42.43-54.26 94.6-90.23 151.02-90.23z" fill="#a800d4"/><path d="m503.2 768.95c.83-.33 1.66-.66 2.479-1-.819.34-1.649.68-2.479 1zm-2.48.96c.83-.311 1.66-.641 2.48-.96-.83.33-1.65.65-2.48.96zm-2.51.94 2.25-.84c-.75.29-1.5.57-2.25.84z" fill="#fff400"/><path d="m490.15 773.63c.75-.24 1.489-.49 2.239-.74-.739.26-1.489.5-2.239.74zm-5.3 1.64c.79-.229 1.58-.47 2.36-.71-.78.25-1.57.48-2.36.71zm-2.66.77c.89-.25 1.779-.5 2.659-.771-.879.271-1.769.521-2.659.771zm-8.06 2.11c.9-.21 1.8-.44 2.7-.67-.9.23-1.8.46-2.7.67z" fill="#fff400"/><path d="m459.54 781.14c.5-.08.99-.17 1.49-.26-.49.09-.99.17-1.49.26z" fill="#fff"/><path d="m457.74 781.43c.6-.09 1.2-.189 1.8-.29-.6.1-1.2.2-1.8.29z" fill="#fff400"/><path d="m452.62 782.19c.93-.131 1.87-.261 2.8-.4-.93.14-1.87.27-2.8.4zm-4.45.55c.54-.061 1.08-.12 1.62-.19-.54.07-1.08.13-1.62.19z" fill="#fff"/><path d="m446.63 782.91c.51-.05 1.03-.11 1.54-.17-.51.06-1.02.12-1.54.17z" fill="#fff400"/><path d="m423.98 540.97c14.59 0 26.43 11.83 26.43 26.45 0 14.6-11.84 26.42-26.43 26.42-14.6 0-26.44-11.82-26.44-26.42 0-14.62 11.84-26.45 26.44-26.45z" fill="#f73900"/><path d="m432.55 783.94c.75-.03 1.49-.061 2.23-.101-.74.041-1.49.071-2.23.101z" fill="#fff400"/><path d="m513.29 603.64c-25.35 2.95-53.15 4.63-83.05 4.851 29.18-.221 57.13-1.921 83.05-4.851z" fill="#fff"/><path d="m413.29 783.84c.74.04 1.49.07 2.23.101-.74-.031-1.49-.061-2.23-.101z" fill="#fff400"/><path d="m405.97 608.33c1.96.04 3.92.07 5.88.1-1.97-.02-3.93-.06-5.88-.1z" fill="#fff"/><path d="m401.19 782.89c.44.051.88.091 1.33.141-.44-.041-.89-.091-1.33-.141zm-2.82-.32c.94.109 1.88.22 2.82.319-.94-.099-1.88-.209-2.82-.319z" fill="#fff"/><path d="m391.14 781.57c.69.109 1.39.21 2.08.31-.7-.1-1.39-.2-2.08-.31zm-10.89-1.99c.66.14 1.32.28 1.97.41-.66-.13-1.31-.27-1.97-.41z" fill="#fff400"/><path d="m369.73 777.1c.59.16 1.18.311 1.77.46-.59-.15-1.18-.3-1.77-.46z" fill="#fff400"/><path d="m362.94 775.21 2.17.63z" fill="#fff"/><path d="m352.25 771.73c.61.21 1.22.43 1.83.64-.61-.21-1.22-.42-1.83-.64z" fill="#fff"/><path d="m348.09 770.21c.75.28 1.5.56 2.25.83-.76-.27-1.51-.55-2.25-.83z" fill="#fff400"/><path d="m338.96 766.54c.75.32 1.5.64 2.25.95-.75-.31-1.5-.62-2.25-.95zm-1.95-.84c.65.28 1.3.569 1.95.84-.65-.27-1.3-.55-1.95-.84z" fill="#fff"/><path d="m405.97 608.33c-34.07-.67-65.34-3.29-93.19-7.46 28.47 4.16 59.94 6.77 93.19 7.46z" fill="#fff"/><path d="m332.97 763.88c.7.33 1.41.65 2.11.96-.7-.31-1.41-.64-2.11-.96z" fill="#fff400"/><path d="m325.27 760.15c.58.29 1.16.59 1.74.869-.59-.289-1.16-.579-1.74-.869z" fill="#fff400"/><path d="m309.82 190.58c26.01 11 63.63 18.18 105.84 18.97-43.19-.76-80.26-7.86-105.84-18.97z" fill="#fff"/><path d="m308.27 750.61c.56.35 1.12.689 1.69 1.029-.56-.339-1.13-.679-1.69-1.029z" fill="#fff400"/><path d="m304.18 748.04c.8.51 1.6 1.02 2.4 1.52-.8-.5-1.6-1.01-2.4-1.52z" fill="#fff"/><path d="m257.31 555.93c0-14.62 11.84-26.449 26.44-26.449 14.59 0 26.43 11.829 26.43 26.449 0 14.601-11.84 26.42-26.43 26.42-14.6 0-26.44-11.82-26.44-26.42z" fill="#f73900"/><path d="m413.93 532.02c-51.88-.619-98.17-6.06-136.32-14.92 38.98 8.86 85.78 14.28 136.32 14.92zm-114.49 212.89c.78.53 1.57 1.06 2.36 1.58-.79-.52-1.58-1.04-2.36-1.58z" fill="#fff"/><path d="m273.06 156.55c2.57 13.09 15.65 24.79 36.34 33.85-21.47-9.16-34.93-20.94-36.34-33.85z" fill="#fff400"/><path d="m272.99 155.77.06.7c-.05-.2-.08-.41-.12-.62v-.01c.02-.02.04-.05.06-.07z" fill="#fff"/><path d="m269.92 721.59c.5.46 1.01.92 1.52 1.37-.51-.44-1.02-.9-1.52-1.37zm.5-562.5c-1.64 2.15-3.28 4.34-4.9 6.55 1.61-2.21 3.25-4.4 4.9-6.55zm-12.15 16.78c-.79 1.15-1.58 2.32-2.37 3.48.78-1.17 1.57-2.33 2.37-3.48zm-4.72 529.46c1.32 1.42 2.65 2.83 3.99 4.21-1.35-1.39-2.68-2.79-3.99-4.21zm2.3-525.91c-1.55 2.32-3.09 4.66-4.61 7.02 1.52-2.37 3.06-4.71 4.61-7.02zm-7.83 519.76c1.02 1.181 2.07 2.351 3.11 3.511a365.126 365.126 0 0 1 -3.11-3.511zm.92-509.14c-.67 1.07-1.34 2.14-2.01 3.22.66-1.08 1.33-2.15 2.01-3.22z" fill="#fff400"/><path d="m167.91 455.66c9.91 25.06 49.17 47.189 108.2 61.1-59.91-13.84-101.01-35.85-108.2-61.1zm62.93 221.92c.59.82 1.18 1.63 1.78 2.439-.6-.809-1.2-1.619-1.78-2.439zm-1.76-2.46c.58.82 1.17 1.64 1.76 2.46-.6-.82-1.18-1.64-1.76-2.46zm-5.16-7.52c.56.851 1.13 1.69 1.7 2.53-.58-.84-1.14-1.68-1.7-2.53zm-3.33-5.12c.45.71.91 1.42 1.37 2.13-.47-.7-.92-1.41-1.37-2.13z" fill="#fff"/><path d="m223.46 235.72c-1.29 2.64-2.57 5.3-3.84 7.97 1.26-2.67 2.54-5.33 3.84-7.97z" fill="#fff400"/><path d="m212.63 649.31c.51.891 1.03 1.78 1.55 2.671-.53-.891-1.04-1.781-1.55-2.671z" fill="#fff"/><path d="m209.6 643.89c1 1.82 2.01 3.62 3.03 5.42-1.03-1.79-2.04-3.6-3.03-5.42zm-1.48-2.74c.49.92.99 1.83 1.48 2.739-.5-.909-1-1.819-1.48-2.739zm-1.37-2.58c.46.859.91 1.72 1.37 2.58-.46-.86-.92-1.72-1.37-2.58z" fill="#fff"/><path d="m181.37 351.6a583.375 583.375 0 0 1 24.02-75.06l.79.32c0 49.66 97.73 89.93 218.28 89.93 120.56 0 218.28-40.27 218.28-89.93a584.647 584.647 0 0 1 20.319 60.96c1.301 4.76 2.53 9.53 3.7 14.3l-47.6 95.399-55.059-56.839-41.38 81.03-53.439-60.34-47.03 75-44.83-75.86-53.44 60.351-41.381-81.041-55.05 56.84-46.17-95.06z" fill="#f73900"/><path d="m203.82 632.82c.47.939.94 1.87 1.41 2.8-.48-.93-.95-1.86-1.41-2.8zm-1.39-2.81c.46.94.92 1.88 1.39 2.811-.47-.931-.94-1.871-1.39-2.811zm-6.59-14.36c.4.92.8 1.83 1.2 2.739-.41-.909-.81-1.819-1.2-2.739zm-1.24-2.93c.41.98.82 1.96 1.24 2.931-.42-.971-.84-1.951-1.24-2.931zm-1.22-2.94c.4.979.81 1.97 1.22 2.939a94.4 94.4 0 0 1 -1.22-2.939zm-3.52-8.94c.38 1 .76 2 1.15 3-.39-.99-.78-1.99-1.15-3zm-1.12-3.01c.37 1.01.74 2.01 1.12 3.01-.38-1-.76-2-1.12-3.01zm-1.1-3.03c.36 1.01.73 2.021 1.1 3.03-.38-1.01-.74-2.02-1.1-3.03zm-1.07-3.05c.35 1.02.71 2.03 1.07 3.05-.36-1.01-.72-2.03-1.07-3.05zm-3.06-9.24c.33 1.04.66 2.07.99 3.101-.34-1.031-.67-2.061-.99-3.101zm-.97-3.11c.32 1.04.64 2.08.97 3.109-.33-1.029-.66-2.069-.97-3.109zm-1.81-6.09c.59 2.04 1.19 4.07 1.81 6.091-.62-2.021-1.23-4.051-1.81-6.091z" fill="#fff"/><path d="m181.38 351.6 46.17 95.06 55.05-56.84 41.38 81.041 53.44-60.351 44.83 75.86 47.03-75 53.439 60.34 41.38-81.03 55.061 56.839 47.609-95.399c7.91 32.18 12.891 64.54 14.471 95.58l-.13.01c0 46.6-115.13 84.37-257.16 84.37-3.36 0-6.7-.021-10.02-.061-50.54-.64-97.34-6.06-136.32-14.92-.5-.109-1-.229-1.5-.34-59.03-13.91-98.29-36.04-108.2-61.1a28.55 28.55 0 0 1 -1.13-7.92v-.03c.12-2.46.27-4.92.43-7.39.04-.471.07-.94.1-1.42.2-2.71.41-5.431.65-8.16.1-1.04.19-2.08.29-3.12s.2-2.08.31-3.12c.01-.14.03-.28.04-.43.3-2.83.61-5.66.95-8.5.04-.27.07-.54.1-.81.23-1.85.47-3.69.72-5.54l.15-1.16c.12-.81.23-1.61.34-2.42.39-2.8.82-5.62 1.27-8.43.1-.66.2-1.31.31-1.97.11-.71.23-1.43.35-2.14.21-1.27.42-2.53.65-3.8.15-.89.31-1.78.47-2.67.03-.19.07-.39.1-.58.2-1.14.41-2.28.63-3.42.15-.79.29-1.58.44-2.36.27-1.39.54-2.77.82-4.16.03-.18.07-.36.11-.55.32-1.61.65-3.23.99-4.84.11-.53.23-1.06.34-1.58.38-1.8.77-3.6 1.18-5.4.43-1.92.87-3.85 1.32-5.77l.09-.4c.47-1.99.95-3.98 1.44-5.97h.01z" fill="#a3d9ff"/><path d="m179.84 357.97c-.45 1.92-.89 3.85-1.32 5.77.42-1.92.87-3.85 1.32-5.77z" fill="#fff400"/><path d="m178.09 563.61c.28 1.069.56 2.13.84 3.189-.29-1.059-.57-2.119-.84-3.189z" fill="#fff"/><path d="m177.28 560.41c.27 1.07.54 2.14.81 3.2-.28-1.07-.55-2.13-.81-3.2z" fill="#fff"/><path d="m174.32 547.46c.23 1.09.46 2.17.7 3.26-.24-1.08-.47-2.17-.7-3.26z" fill="#fff"/><path d="m174.64 382.63c-.22 1.14-.43 2.28-.63 3.42.21-1.14.41-2.28.63-3.42z" fill="#fff400"/><path d="m173.91 386.63c-.16.89-.32 1.78-.47 2.67.14-.89.3-1.78.47-2.67zm-.33 157.21c0-.01-.01-.02-.01-.03v-.01c.01.02.01.03.01.04zm-.79-150.74c-.12.71-.24 1.43-.35 2.14.11-.71.22-1.42.35-2.14zm-1.93 12.54c.39-2.8.81-5.61 1.27-8.43-.45 2.81-.88 5.63-1.27 8.43z" fill="#fff"/><path d="m171.36 531.68c.14.86.29 1.721.44 2.58-.16-.86-.3-1.72-.44-2.58z" fill="#fff400"/><path d="m170.86 405.64c-.11.81-.22 1.61-.34 2.42.11-.8.22-1.61.34-2.42z" fill="#fff"/><path d="m169.83 521.59c.35 2.561.73 5.101 1.13 7.641-.41-2.541-.78-5.081-1.13-7.641z" fill="#fff400"/><path d="m170.37 409.22c-.25 1.85-.49 3.69-.72 5.54.23-1.85.46-3.69.72-5.54z" fill="#fff"/><path d="m168.59 511.65c.15 1.35.31 2.68.47 4.02-.17-1.33-.32-2.67-.47-4.02z" fill="#fff400"/><path d="m168.6 424.07c.29-2.83.61-5.66.95-8.5-.34 2.84-.65 5.67-.95 8.5z" fill="#fff"/><path d="m168.1 506.97c.16 1.57.32 3.13.49 4.681-.17-1.551-.34-3.121-.49-4.681z" fill="#fff400"/><g fill="#fff"><path d="m168.56 424.5c-.11 1.04-.21 2.08-.31 3.12.09-1.04.2-2.08.31-3.12zm-.31 3.12c-.1 1.04-.19 2.08-.29 3.12.09-1.04.19-2.08.29-3.12z"/><path d="m167.47 499.87c.08 1.04.16 2.08.26 3.12-.09-1.04-.18-2.08-.26-3.12zm-.16-60.97c.19-2.71.4-5.431.65-8.16-.24 2.73-.45 5.45-.65 8.16zm-.54 8.81c.12-2.46.27-4.92.44-7.39-.16 2.47-.31 4.93-.43 7.39z"/><path d="m166.78 447.74c0 2.67.38 5.31 1.13 7.92-.43-1.09-.81-2.19-1.13-3.3l-.21-.011c.04-1.02.08-2.04.13-3.06.03-.519.05-1.039.08-1.549z"/><path d="m166.78 447.71v.03c-.03.51-.05 1.029-.08 1.55.02-.521.04-1.05.07-1.58z"/></g><path d="m166.56 484.75c.03.98.08 1.96.12 2.93-.04-.98-.09-1.95-.12-2.93z" fill="#fff400"/><path d="m166.43 456.28c.06-2.32.15-4.65.27-6.99-.05 1.02-.09 2.04-.13 3.06-.05 1.31-.1 2.62-.14 3.93zm-.01.2-.09 3.3c.02-1.1.05-2.2.09-3.3z" fill="#fff"/><path d="m166.33 459.78c-.02.75-.03 1.5-.04 2.25.01-.75.02-1.5.04-2.25z" fill="#fff400"/><g fill="none" stroke="#000" stroke-width="20.69"><path d="m312.78 600.87c27.85 4.17 59.12 6.79 93.19 7.46 1.95.04 3.91.08 5.88.1 1.97.03 3.94.051 5.93.061m-244.62-69.061c12.02 26.38 61.41 49.261 136.04 60.9m205.71 3.12c87.24-10.34 145.2-35.561 159.79-66.47m-244.46 71.51c29.899-.221 57.7-1.9 83.05-4.851m-200.51-2.769c-1.2-.17-2.39-.351-3.58-.54m121.04 8.16c-2.17.01-4.33.02-6.51.02-1.99 0-3.97-.01-5.95-.02m97.13-5.04c-.54.06-1.08.13-1.62.189"/><path d="m666.77 352.12c7.91 32.18 12.891 64.54 14.471 95.58.359 7.1.54 14.13.54 21.08 0 1.56-.011 3.12-.03 4.67-.01 1.46-.04 2.92-.07 4.37-.05 1.87-.1 3.739-.18 5.6-.04 1.26-.09 2.521-.15 3.78l-.029.52c-.061 1.32-.13 2.63-.21 3.94-.011.21-.021.42-.04.62-.08 1.439-.17 2.859-.28 4.29-.09 1.39-.2 2.779-.32 4.16-.02.229-.029.449-.05.659-.12 1.44-.25 2.88-.39 4.301-.141 1.52-.3 3.02-.46 4.529a310.8 310.8 0 0 1 -.511 4.511c-.489 4.14-1.05 8.25-1.68 12.329-.189 1.261-.39 2.521-.6 3.78-.021.141-.04.28-.07.42-.2 1.25-.41 2.49-.63 3.73 0 .04-.01.09-.021.13 0 .02-.01.04-.01.06-.189 1.09-.39 2.181-.59 3.271-.18.97-.36 1.939-.54 2.899-.01.011-.01.021-.01.021-.021.12-.04.229-.061.34-.02.07-.029.14-.04.21l-.63 3.15a373.682 373.682 0 0 1 -3.86 16.969c-.761 3-1.551 5.97-2.38 8.93l-.9 3.17c-.82 2.83-1.68 5.65-2.56 8.44-.33 1.03-.65 2.05-.99 3.07-.3.939-.61 1.88-.931 2.81-.189.57-.38 1.13-.579 1.7a270.159 270.159 0 0 1 -2.04 5.821c-.351.989-.71 1.979-1.08 2.96-.37 1.02-.75 2.02-1.141 3.029-1.239 3.25-2.52 6.48-3.85 9.67-.29.681-.57 1.36-.86 2.04a384.22 384.22 0 0 1 -1.609 3.75c-.341.78-.681 1.551-1.03 2.32-.64 1.43-1.29 2.86-1.95 4.28-.39.859-.79 1.71-1.189 2.56a374.445 374.445 0 0 1 -2.921 6 325.371 325.371 0 0 1 -4.55 8.811c-.37.689-.729 1.369-1.109 2.05-.49.899-.98 1.8-1.48 2.689-.5.9-1 1.79-1.51 2.681-.5.89-1.01 1.77-1.53 2.649-.51.88-1.03 1.771-1.55 2.641-.521.88-1.04 1.75-1.57 2.62-.91 1.489-1.83 2.979-2.76 4.46-.23.359-.46.72-.7 1.09-.45.729-.92 1.45-1.39 2.17-.54.85-1.101 1.689-1.66 2.53-13.34 20.17-28.67 38.289-45.63 53.909-.54.5-1.08.99-1.62 1.471-3.87 3.51-7.82 6.88-11.84 10.12-.76.609-1.51 1.21-2.271 1.8-.75.6-1.51 1.189-2.279 1.77-.591.45-1.17.9-1.761 1.34-.56.431-1.119.851-1.689 1.271-4.75 3.51-9.59 6.85-14.53 9.99-.79.51-1.58 1.01-2.38 1.5-.65.409-1.3.81-1.95 1.199-.95.58-1.899 1.141-2.85 1.7-.75.45-1.49.88-2.24 1.311-2.21 1.27-4.44 2.5-6.68 3.689-.58.32-1.17.62-1.761.931-.56.289-1.119.579-1.689.869-.67.351-1.35.69-2.03 1.021-.2.11-.399.21-.59.3-.75.37-1.49.74-2.24 1.09-.989.48-1.979.95-2.97 1.41-.67.32-1.35.63-2.03.93-2.58 1.17-5.17 2.29-7.79 3.351-.819.34-1.649.68-2.479 1-.83.33-1.65.649-2.48.96-.09.04-.17.07-.26.1-.75.29-1.5.57-2.25.84-.71.261-1.43.521-2.15.771-.59.22-1.18.43-1.779.63-.63.22-1.261.43-1.891.64-.739.261-1.489.5-2.239.74-.98.32-1.96.63-2.94.93-.78.25-1.57.48-2.36.71-.88.271-1.77.521-2.659.771-.891.26-1.78.5-2.681.74-.89.239-1.79.479-2.68.7-.9.229-1.8.46-2.7.67-4.33 1.05-8.7 1.96-13.1 2.729-.5.09-.99.18-1.49.26-.6.101-1.2.2-1.8.29-.771.13-1.55.25-2.32.36-.93.14-1.87.27-2.8.4-.94.13-1.88.25-2.83.359-.54.07-1.08.13-1.62.19-.51.06-1.02.12-1.54.17-1.96.21-3.92.39-5.899.54a187.702 187.702 0 0 1 -5.951.389c-.74.04-1.49.07-2.23.101-2.84.109-5.68.17-8.54.17-1.04 0-2.07-.011-3.1-.021-1.47-.02-2.94-.06-4.4-.109-.33-.011-.66-.021-.99-.04-.74-.03-1.49-.061-2.23-.101-.25-.01-.5-.02-.76-.04-.95-.05-1.9-.109-2.85-.17-.94-.06-1.89-.13-2.84-.21-1.44-.11-2.88-.25-4.32-.39-.45-.05-.89-.09-1.33-.141-.94-.1-1.88-.21-2.82-.319-.94-.11-1.87-.23-2.81-.36a94 94 0 0 1 -2.34-.33c-.7-.1-1.39-.2-2.08-.31-1.14-.181-2.27-.36-3.4-.561-.91-.149-1.82-.319-2.73-.49-.87-.159-1.74-.319-2.6-.5l-.19-.029c-.66-.13-1.31-.271-1.97-.41-.61-.12-1.22-.25-1.83-.39-.7-.15-1.4-.311-2.1-.471-.71-.16-1.43-.33-2.14-.5-.9-.21-1.79-.43-2.68-.66-.59-.149-1.18-.3-1.77-.46-.57-.14-1.14-.29-1.71-.449-.87-.23-1.73-.471-2.6-.721-.1-.029-.2-.06-.31-.09l-2.17-.63c-.75-.22-1.49-.45-2.23-.68-.83-.25-1.65-.511-2.47-.78-.84-.27-1.67-.54-2.51-.82-.55-.18-1.1-.37-1.65-.56-.61-.21-1.22-.43-1.83-.64-.64-.23-1.28-.45-1.91-.69a213.583 213.583 0 0 1 -11.38-4.5c-.65-.271-1.3-.56-1.95-.84-.64-.28-1.29-.57-1.93-.86-.7-.31-1.41-.64-2.11-.96-.56-.26-1.12-.52-1.68-.79-.77-.359-1.55-.729-2.31-1.1-.66-.32-1.32-.641-1.97-.971-.59-.289-1.16-.579-1.74-.869-.64-.32-1.27-.65-1.91-.98-.71-.37-1.42-.74-2.12-1.12-.83-.439-1.66-.89-2.48-1.34-1.65-.9-3.29-1.82-4.92-2.77-1.3-.75-2.59-1.511-3.88-2.301-.56-.34-1.13-.68-1.69-1.029-.57-.341-1.13-.69-1.69-1.051-.8-.5-1.6-1.01-2.4-1.52-.79-.51-1.59-1.03-2.38-1.55-.79-.521-1.58-1.05-2.36-1.58-.79-.53-1.57-1.07-2.35-1.61-6.24-4.33-12.33-8.96-18.23-13.899-.74-.61-1.48-1.23-2.21-1.86-1.75-1.5-3.49-3.021-5.21-4.58-.51-.44-1.02-.9-1.52-1.37a265.434 265.434 0 0 1 -8.32-7.93c-1.37-1.36-2.72-2.73-4.06-4.12-1.35-1.39-2.68-2.79-3.99-4.21-.81-.88-1.62-1.76-2.42-2.64a342.51 342.51 0 0 1 -3.11-3.511c-2.75-3.14-5.44-6.35-8.07-9.64-.63-.771-1.25-1.56-1.86-2.34a275.2 275.2 0 0 1 -5.47-7.181 217.5 217.5 0 0 1 -1.78-2.439c-.59-.82-1.18-1.64-1.76-2.46s-1.16-1.65-1.74-2.48c-.58-.84-1.15-1.67-1.72-2.51s-1.14-1.68-1.7-2.53c-.66-.989-1.31-1.979-1.96-2.989-.46-.71-.92-1.42-1.37-2.13-1.1-1.721-2.18-3.45-3.25-5.211-.54-.869-1.07-1.75-1.59-2.63-.53-.88-1.05-1.77-1.57-2.659-.52-.891-1.04-1.78-1.55-2.671-1.02-1.8-2.03-3.6-3.03-5.42-.49-.909-.99-1.819-1.48-2.739-.46-.86-.91-1.721-1.37-2.58-.51-.98-1.02-1.96-1.52-2.95-.47-.93-.94-1.86-1.41-2.8a331.031 331.031 0 0 1 -4.1-8.5c-.44-.95-.88-1.91-1.31-2.87-.46-1.01-.92-2.03-1.37-3.061-.4-.909-.8-1.819-1.2-2.739-.42-.971-.83-1.95-1.24-2.931-.41-.97-.82-1.96-1.22-2.939-.41-.99-.81-1.971-1.2-2.96-.4-.99-.79-1.99-1.17-2.98-.39-1-.77-2-1.15-3a382.364 382.364 0 0 1 -2.22-6.04c-.36-1.02-.72-2.03-1.07-3.05l-.99-2.88c-.36-1.08-.72-2.17-1.08-3.26-.33-1.03-.66-2.061-.99-3.101-.33-1.029-.65-2.069-.97-3.109a342.375 342.375 0 0 1 -3.61-12.601c-.28-1.06-.56-2.12-.84-3.189-.27-1.061-.54-2.13-.81-3.2a379.364 379.364 0 0 1 -2.96-12.95c-.25-1.2-.5-2.41-.74-3.62 0-.01 0-.02-.01-.04-.41-2.05-.8-4.1-1.17-6.17m100.528-381.79c.02-.02.04-.05.06-.07 42.43-54.26 94.6-90.23 151.02-90.23 55.891 0 107.62 35.3 149.84 88.73 27.49 34.77 50.94 77.21 68.891 122.59a584.647 584.647 0 0 1 20.319 60.96c1.301 4.76 2.53 9.53 3.7 14.3m-494.38 185.45c-.13-.721-.26-1.44-.38-2.17-.07-.381-.14-.761-.2-1.141-.16-.859-.3-1.72-.44-2.58-.14-.819-.27-1.63-.4-2.449-.41-2.54-.78-5.08-1.13-7.641-.27-1.96-.53-3.939-.77-5.92-.17-1.33-.32-2.67-.47-4.02-.17-1.551-.34-3.12-.49-4.681-.13-1.319-.26-2.649-.37-3.979-.1-1.04-.18-2.08-.26-3.12l-.06-.66c-.09-1.12-.17-2.24-.24-3.36l-.12-1.72c-.05-.74-.1-1.49-.14-2.24-.07-1.1-.13-2.21-.18-3.31-.02-.3-.03-.6-.05-.9-.04-.979-.09-1.949-.12-2.93-.04-.77-.07-1.54-.09-2.31-.1-2.931-.17-5.87-.21-8.82-.02-1.61-.03-3.22-.03-4.84 0-1.49.01-2.98.03-4.471 0-.76.01-1.52.03-2.279.01-.75.02-1.5.04-2.25l.09-3.3c0-.061 0-.131.01-.2.04-1.311.09-2.62.14-3.931.04-1.02.08-2.04.13-3.06.03-.521.05-1.04.08-1.55v-.03c.12-2.46.27-4.92.43-7.39.04-.471.07-.94.1-1.42.2-2.71.41-5.431.65-8.16.1-1.04.19-2.08.29-3.12s.2-2.08.31-3.12c.01-.14.03-.28.04-.43.3-2.83.61-5.66.95-8.5.04-.27.07-.54.1-.81.23-1.85.47-3.69.72-5.54l.15-1.16c.12-.81.23-1.61.34-2.42.39-2.8.82-5.62 1.27-8.43.1-.66.2-1.31.31-1.97.11-.71.23-1.43.35-2.14.21-1.27.42-2.53.65-3.8.15-.89.31-1.78.47-2.67.03-.19.07-.39.1-.58.21-1.14.41-2.28.63-3.42.15-.79.29-1.58.44-2.36.27-1.39.54-2.77.82-4.16.03-.18.07-.36.11-.55.32-1.61.65-3.23.99-4.84.11-.53.23-1.06.34-1.58.38-1.8.77-3.6 1.18-5.4.42-1.92.87-3.85 1.32-5.77l.09-.4a583.375 583.375 0 0 1 25.46-81.03c1.82-4.6 3.7-9.17 5.64-13.7.99-2.33 2-4.66 3.02-6.97 1.82-4.09 3.67-8.15 5.57-12.18 1.26-2.67 2.54-5.33 3.84-7.97 4.86-9.86 9.97-19.49 15.35-28.83 1.06-1.87 2.14-3.72 3.23-5.56 1.61-2.72 3.23-5.41 4.89-8.07.66-1.08 1.33-2.15 2.01-3.22.76-1.2 1.52-2.41 2.3-3.6 1.52-2.37 3.06-4.71 4.61-7.02.02-.03.04-.05.05-.07.78-1.17 1.57-2.33 2.37-3.48 2.37-3.47 4.79-6.88 7.25-10.23 1.61-2.21 3.25-4.4 4.9-6.55.83-1.09 1.66-2.17 2.51-3.24"/><path d="m681.11 447.71c0 46.6-115.13 84.37-257.16 84.37-3.36 0-6.7-.021-10.02-.061-51.88-.619-98.17-6.06-136.32-14.92-.5-.109-1-.229-1.5-.34-59.03-13.91-98.29-36.04-108.2-61.1-.43-1.09-.81-2.19-1.13-3.3m508.78 82.671c-.27.649-.55 1.3-.859 1.95-6.21 13.26-20.29 26.42-41.15 38.149-43.621 24.551-116.881 42.871-209.821 42.871-99.87 0-177.78-21.18-219.56-47.55-15.67-9.891-26.26-20.51-31.01-31.021-.27-.6-.52-1.199-.76-1.8-.01-.01-.01-.02-.01-.03s-.01-.02-.01-.029"/><path d="m450.41 567.42c0 14.6-11.84 26.42-26.43 26.42-14.6 0-26.44-11.82-26.44-26.42 0-14.62 11.84-26.45 26.44-26.45 14.59 0 26.43 11.83 26.43 26.45zm139.08-11.49c0 14.601-11.84 26.42-26.44 26.42s-26.43-11.819-26.43-26.42c0-14.62 11.83-26.449 26.43-26.449 14.6-.001 26.44 11.829 26.44 26.449zm-279.31 0c0 14.601-11.84 26.42-26.43 26.42-14.6 0-26.44-11.819-26.44-26.42 0-14.62 11.84-26.449 26.44-26.449 14.59-.001 26.43 11.829 26.43 26.449zm332.56-279.07c0 49.66-97.721 89.93-218.28 89.93-120.55 0-218.28-40.27-218.28-89.93"/><path d="m666.77 352.11v.01h-.01l-47.6 95.4-55.06-56.84-41.38 81.03-53.44-60.34-47.03 75-44.83-75.86-53.44 60.35-41.38-81.04-55.05 56.84-46.17-95.06m392.46-197.33c0 30.56-67.35 55.35-150.45 55.35-2.6 0-5.17-.02-7.73-.07-43.19-.76-80.26-7.86-105.84-18.97-.14-.06-.27-.12-.42-.18-20.69-9.06-33.77-20.76-36.34-33.85-.01-.02-.01-.05-.01-.08-.05-.2-.08-.41-.12-.62v-.01-.02"/></g><path d="m0 0h850.394v850.394h-850.394z" fill="none"/></svg>