<svg height="850.394" viewBox="0 0 850.394 850.394" width="850.394" xmlns="http://www.w3.org/2000/svg"><g fill="#9e5b16"><path d="m408.04 241.37v-.09h2.03v-127.83l17.35-36.57 18.91 36.15h-3.45v125.74l-16.27 24.02zm19.38-165.88v1.39l-17.35 36.57h-131.25l-28.83-33.32c3.44-2.91 7.78-4.64 12.52-4.64z"/><path d="m446.33 113.03-18.91-36.15v-1.39h162.78c5.54 0 10.56 2.37 14.189 6.21l-1.5 1.79-28.76 33.26v-3.72z"/><path d="m575.52 736.44v-125.96l28.721-18.95-30.11-21.471v-122.019h.09l32.141-23.91-30.841-18.85v-125.89h.74l30.101-20.1-32.23-20.36v-122.18l28.76-33.26 1.5-1.79c3.63 3.84 5.88 9.14 5.88 15v659.01c0 11.71-8.989 21.21-20.069 21.21h-327.693c-11.08 0-20.06-9.5-20.06-21.21v-659.01c0-6.71 2.94-12.69 7.54-16.57l28.83 33.32v122.27l-29.85 24.55-.2.33 31.44 19.21v122.33l-30.25 27.2 30.25 15.2h-1.39v122.27l-31.74 26.59 31.74 15.859 1.39 1.641v127.841h129.22v.08l19.65 33.39 15.189-33.9h131.25v-1.871z"/><path d="m606.36 259.29-30.1 20.1h-131.99v1.99h-1.39l-16.27-18.59 16.27-24.02v2.08h131.25v-1.92zm0 164.84-32.14 23.91h-.09v-3.92h-131.25l-12.26-16.98-.95-1.31 14.6-18.62h131.25v-1.93zm-2.12 167.4-28.72 18.95h-131.25v1.98h-1.39l-14.6-18.58 14.6-21.94h131.25v-1.88z"/><path d="m575.52 736.44v1.87h-131.25v-127.83h131.25zm0-331.16v1.93h-131.25v-127.82h131.25zm-1.39 164.78v1.88h-131.25v-127.82h131.25v3.92zm0-331.13v1.92h-131.25v-127.82h131.25v3.72zm-129.86 373.53v125.85l-15.19 33.9-19.65-33.39v-.08h2.03v-127.84h-1.39v-1.64l18.21-15.38 14.6 18.58zm0-331.08v125.83l-14.6 18.62-20.24-18.1v-.09h2.03v-127.83h-1.39v-1.63l16.54-15.39 16.27 18.59z"/><path d="m442.88 444.12v127.82l-14.6 21.94-20.24-21.42v-.09h2.03v-127.83h1.39l19.16-17.4z"/><path d="m429.67 425.83.95 1.31-19.16 17.4h-131.25l-30.25-15.2 30.25-27.2v5.5h129.22v.09zm-21.63 146.63 20.24 21.42-18.21 15.38v1.64h-129.86l-1.39-1.64-31.74-15.86 31.74-26.59v5.56h129.22zm0-331.09 18.57 21.42-16.54 15.39v1.63h-129.86l-31.44-19.21.2-.33 29.85-24.55v5.56h129.22zm-127.83 496.06v-126.53h131.25v127.84h-131.25z"/><path d="m280.21 402.14v-122.33h131.25v127.83h-131.25zm-1.39 164.67v-122.27h131.25v127.83h-131.25zm0-331.09v-122.27h131.25v127.83h-131.25z"/></g><g fill="none"><g stroke="#000" stroke-width="21.238"><path d="m410.07 113.45v127.83h-131.25v-127.83zm164.06 125.48v1.92h-131.25v-127.82h131.25v3.72zm-324.21-158.88.07.08 28.83 33.32"/><path d="m248.97 260.27 29.85-24.55.77-.63m323.3-151.6-28.76 33.26-.13.15m-146.58-40.02-17.35 36.57m17.35-36.57 18.91 36.15m-19.72 149.76 16.27-24.02m-16.27 24.02-18.57-21.42m-160.01 18.78.74.45 31.44 19.21m326.15-20.52-30.1 20.1m30.1-20.1-32.23-20.36-.54-.34m-163.52 39.59 16.54-15.39 16.27 18.59m-32.81-1.57h1.39v127.83h-131.25v-127.83zm165.45 125.47v1.93h-131.25v-127.82h131.25z"/><path d="m249.96 429.34 30.25-27.2.77-.69m148.69 24.38 14.6-18.62m-14.6 18.62-20.24-18.1m-159.47 21.61 30.25 15.2m326.15-20.41-32.14 23.91m32.14-23.91-30.84-18.85-.53-.32m-163.53 39.58 19.16-17.4 12.26 16.98m-32.81.42v127.83h-131.25v-127.83h1.39zm164.06 125.52v1.88h-131.25v-127.82h131.25v3.92z"/><path d="m247.08 593.4 31.74-26.59.77-.64m148.69 27.71 14.6-21.94m-14.6 21.94-20.24-21.42m-160.96 20.94 31.74 15.86m325.42-17.73-28.72 18.95m28.72-18.95-30.11-21.47-.54-.38m-163.52 39.58 18.21-15.38 14.6 18.58m-32.81-1.56h1.39v127.84h-131.25v-127.84zm165.45 125.54v1.87h-131.25v-127.83h131.25z"/><path d="m252.09 769.95 28.12-32.52.77-.89m148.1 35.67 15.19-33.9m-15.19 33.9-19.65-33.39m193.68 17.92-27.59-20.3-.53-.39"/><path d="m604.39 81.7c3.63 3.84 5.88 9.14 5.88 15v659.01c0 11.71-8.989 21.21-20.069 21.21h-327.691c-11.08 0-20.06-9.5-20.06-21.21v-659.01c0-6.71 2.94-12.69 7.54-16.57 3.44-2.91 7.78-4.64 12.52-4.64h327.69c5.54 0 10.56 2.37 14.19 6.21z"/></g><path d="m0 0h850.394v850.394h-850.394z"/></g></svg>