<svg height="850" viewBox="0 0 850 850" width="850" xmlns="http://www.w3.org/2000/svg"><path d="m428 552.5 23.3 44.3-109.8 62.5 6 7.2 11.5 12.8 7.3 7.7 7.7 8.3 8.5 8.2 8.8 8.3 3.5 3 3.7 2.5 3.8 2.7 4 2.3 4.2 2 4.3 2 4.2 1.5 4.5 1.2 4.5.8 4.5.5 4.8.2 4.5-.2 4.5-.5 4.5-1.3 4.5-1.5 4.5-2v40l-261-33.7-1-5.8-1-8-1-12-1.3-16-1.2-21-1.3-25.7-.7-31-.3-17 .3-16.5.5-16 1-15.8 1.5-15.2 1.5-14.8 2-14.5 2.2-13.5 2.8-13.2 2.7-12.5 3.3-11.8 3.5-11.2 3.7-10.3 4-9.7 4.3-8.8 2-4 2.2-4 2.5-3.7 3-4 3-4 3.5-4 3.8-4 3.7-4.3 8.5-8.2 9.3-8.3 9.2-8.2 9.8-7.8 9.5-7.7 9.2-7 9-6.5 15-10.8 10.5-7 3.8-2.7 17.7 8 17.3 7.7-7.3 19.3 5.5 2 7.3 4.2 6 3.3 4.7 2.5 4 2 3.5 2.2 1.8 1.5 1.5 1.3 3.5 3.7 3.7 5 1.3 2 1.2 2.3 2 4.5 1.5 4.5 1.3 4.7 1.2 4.5 1.3 4.3 1.5 3.7.7 1.8 1 1.5 1.3 5.5 1.2 5.7 1.8 7 2.2 7.8 2.8 8 3.2 8.2 1.8 3.8 1.7 3.5.8 1.7.7 2 .5 2.5.3 2.5.5 5.8-.3 6.7-.5 7.3-.7 7.7-1.3 8-1.2 8.3-3 16-3.3 14.2-2.7 11.8z" fill="#a8d7f4"/><path d="m658.8 204.5.2 2v2l-.2 1.8-.3 1.7-.5 1.8-.5 1.7-.7 1.5-1 1.3-2 2.7-2.5 2.3-2.8 2-3.2 1.5-3 1-3 .7-3.5.5-3.5.3h-2.8l-2.7-.3-2.5-.5-2.3-.5-4.5-1.2-4.7-2-5-2.5-5.8-3-6.7-3.5-8.3-3.8-4.2-2-4-2.2-7-3.8-5.8-3.7-5-2.8-2.2-1.2-2-.8-2-.5h-2l-2 .3-1.8.5-2 1.2-2 1.8-3.7 4-4 4.2-7.5 9-3.8 4-4 4-2 1.5-2 1.8-2.2 1.2-2.3 1-3.5 1.5-1.5.5h-2.5l-.2-.5-.3-.2v-1l.3-1 .5-1 1-5 .5-4.8.5-4.5-.3-2-.2-1.7-.3-1.8-.5-1.5-1-1.5-1-1.2-1.2-1.3-1.5-1-2-.7-2.3-.5-2.2-.5-2.5-.3h-4.5l-2.5.3-2.3.5-2.2.7-2 1-2.3 1-2 1.3-1.7 1.7-1.8 1.8-1.7 2-1.5 2.2-1.5 2.5-1.3 2.8-.7 2.5-.5 2.5-.5 2.5-.3 2.5v4.7l.5 4.8.5 4.7v7l-.2 2.3-.5 2.2-.8 2.3-16.5 13-3.2 2.5-2.5 2.2-2.3 2-2 1.5-1 .5-1.2.3h-2.3l-1.2-.3-1.5-.7-1.8-.8-1.7-1-3.3-2.5-1.2-1.2-1.3-1.5-1-1.3-.7-1.7-1.8-3.8-1.5-5.2-1.2-6.8-3.5-19-.8-6-.5-6v-6l.5-5.7.8-5.8 1-5.7 1.5-5.5 1.5-5.3 1.5-5 1.7-5 3.8-8.7 3.7-7.8 3-6.5 3.5-6.2 4.8-7.5 5.7-8 3.3-4.3 3.5-4.2 3.2-4 3.8-4 3.7-3.5 3.5-3.5 3.8-3 3.7-2.8 3.8-2.2 3.5-1.5 7-2.8 6.5-2 11-3.5 7.5-1.7 2.7-.8 2.3-.2 6-.3 8.7-.5h11l5.8.3 6 .5 6 .7 6 1 5.7 1.3 5.3 1.7 5 2 2.2 1.3 2.3 1.5 16.2 10.5 7.8 5.2 7.2 5 6.8 5 3 2.8 3 2.7 2.5 2.5 2.5 3 2.2 2.8 1.8 3 1.7 3.2 1.8 3.8 3.5 8 3.2 9 3 9.2 2.5 9.3 2.3 8.7 1.5 8z" fill="#9c5c25"/><path d="m591 273.3-.8 1.5v1.5l.3 1.3.5.5.5.5.5.3h2.1l1.5-.8 1-1 .5-1.5.3-1.5-.5-1.3-.5-.5-.5-.5-.5-.3-.8-.3-1.3.3-1.3.5zm-4.5.7v-.8l.5-.8 1.5-1.8 1.8-1.5 1-.8 3-.3h2.5l2-.3v2.8l-.3 1.8-.5 2-1 2-1.3 2-1 .8-1 .8-1.8 1.3-1.3.5-.5.3-1-.3v-.3l-.8-1-.8-1-.8-1.8-.5-2v-1.6z" fill="#abd150"/><path d="m583.3 279.3-4.8-3.3-5.5-4-6.7-5v-.5l.2-.5.5-.5 1.3-.2h1.7l2.8.2 3.7 1 4 1 3.8.5 3.7.3 3.3.2-1 .8-1.8 1.5-1.5 1.7-.5.8v2.5l.5 2 .8 1.7.7 1 .8 1v.3l-1-.3-1.3-.2-1.7-1z" fill="#fff"/><path d="m385.3 298.3-8.5 22.2-17.3-7.7 1-2.3 2-.7 2.3-1 2.5-1.3 3-1.7 3.2-2 3.5-2.5 3.8-2.8 4-3 1 2.8z" fill="#ffeec8"/><path d="m535.5 382-7.5-4.3-7.3-4.5-7.3-4.8-6.5-4.8-9.8-7.5-4-3.3-.3.3-10.8-15-5.3-7-5-6.5-4.8-5.5-4.3-5-3.8-3.8-3.3-2.8-2.3-1.5-2.8-1.5-6.3-2.5-7-2.8-7.3-2.3-6.8-1.8-5.5-1.5-5.5-1.3-1.3-3.8-25.8 9.3-1-2.8 7.5-6.5 4-3.8 4-3.8 4-4.3 4.3-4.5 4-5 4-5 .5-.3 1.8 3.8.8 1.8 1 1.3 1.3 1.5 1.3 1.3 3.3 2.5 1.8 1 1.8.8 1.5.8 1.3.3h2.3l1.3-.3 1-.5 2-1.5 2.3-2 2.5-2.3 3.3-2.5 16.5-13 .8-2.3.5-2.3.3-2.3v-7.1l-.5-4.8-.4-4v-4.8l.3-2.5.5-2.5.5-2.5.8-2.5 1.3-2.8 1.5-2.5 1.5-2.3 1.8-2 1.8-1.8 1.8-1.8 2-1.3 2.3-1 2-1 2.3-.8 2.3-.5 2.5-.3h4.6l2.5.3 2.3.5 2.3.5 2 .8 1.5 1 1.3 1.3 1 1.3 1 1.5.5 1.5.3 1.8.3 1.8.3 2-.5 4.5-.5 4.8-1 5-.5 1-.3 1v1l.3.3.3.5h2.6l1.5-.5 3.5-1.5 2.3-1 2.3-1.3 2-1.8 2-1.5 4-4 3.8-4 7.5-9 4-4.3 3.8-4 2-1.8 2-1.3 1.8-.5 2-.3h2l2 .5 2 .8 2.3 1.3 5 2.8 5.8 3.8 7 3.8 4 2.3 4.3 2 8.3 3.8 6.8 3.5 5.8 3 5 2.5 4.8 2 4.5 1.3 2.3.5 2.5.5 2.8.3h2.8l3.5-.3 3.5-.5 3-.8 3-1 .3.8.8 2.3.3 2 .3 2.3v2.5l-.5 2.8-.8 3.3-1.3 3.8-1.8 4.5-1.8 3.5-1.5 2.8-1.5 2.5-1.5 2.3-3.5 4.3-4.3 5-2.3 2.5-1.8 2.5-1.5 2.5-1 2.8-.8 3-.5 3.3.3 3.8.8 4.3 3 15.3 2.8 10 .3 1.5v1.3l-.3 1.3-.3 1.3-.5 1-.8 1-1.5 1.8-1.8 1.3-2 .8-2 .5-3.3-1.3-3.5-1-1.8-.5-6.5-3.3-.5-.3h-.7l-.8.3-1 .3-1.5 1.3-1.5 1.5-1.3 2-1 2-.5 1.8-.3 1 .3.8.8 3.3.3 1.3-.3 1.3-.3 1-.5.3-.4-.1-1.5.3-2.5-.5-7.3-1.5-7-.8-7.7-.5-9.5-.3 2 3 5 6.8 6.3 8.3 3 3.3 2.5 2.8-5.8 5.3-1.8 1.8-1.5 1.8-1.2 1.2-.5 1.5-.5 2-1.3 2-1.5 2.3-2 2-1.3 1-1.3.8-1.5.8-1.5.5-1.5.5h-3.6l-1.5-.4-2-.5-1.8-.8-3.8-1.5zm55.8-113.5-3.3-.3-3.8-.3-3.8-.5-4-1-3.8-1-2.8-.3h-1.8l-1.3.3-.5.5-.3.5v.5l6.8 5 5.5 4 4.8 3.3 2 1 1.8 1 1.3.3 1 .3 1 .3.5-.3 1.3-.5 1.8-1.3 1-.8 1-.8 1.3-2 1-2 .5-2 .3-1.8v-2.6l-2 .3h-2.5zm-249.8 390.8 109.8-62.5-23.3-44.3 1.8-7.2 2.7-11.8 3.3-14.2 3-16 1.2-8.3 1.3-8 .7-7.7.5-7.3.3-6.7-.5-5.8-.3-2.5-.5-2.5-.7-2-.8-1.7-1.7-3.5-1.8-3.8-3.2-8.2-2.8-8-2.2-7.8-1.8-7-1.2-5.7-1.3-5.5 3 3.2 3 3 3 2.5 3.3 2 3.2 1.8 3.3 1.7 6.5 2.5 6.5 2.5 3 1.3 3 1.5 2.7 1.7 2.8 2 2.2 2.3 2.3 2.7 2 3.3 2.2 4.5 2.8 5.7 2.7 6.5 6.5 15.8 7.3 18.5 1 10.2 1.5 20 .7 12.8.8 14.2.7 15.3.3 16.2.2 16.5-.2 16.5-.8 16.5-1 16-.7 7.5-1 7.5-1 7-1.3 6.8-1.5 6.5-1.5 5.7-1.7 5.5-2 5-3 6-3 5.5-3.3 5-3.5 4.3-3.7 3.7-3.8 3.3-3.7 3-4 2.2-4.5 2-4.5 1.5-4.5 1.3-4.5.5-4.5.2-4.8-.2-4.5-.5-4.5-.8-4.5-1.2-4.2-1.5-4.3-2-4.2-2-4-2.3-3.8-2.7-3.7-2.5-3.5-3-8.8-8.3-8.5-8.2-7.7-8.3-7.3-7.7-11.5-12.8z" fill="#ffeec8"/><path d="m495.3 486.3-7.3-18.5-6.5-15.8-2.7-6.5-2.8-5.7-2.2-4.5-2-3.3-2.3-2.7-2.2-2.3-2.8-2-2.7-1.7-3-1.5-3-1.3-6.5-2.5-6.5-2.5-3.3-1.7-3.2-1.8-3.3-2-3-2.5-3-3-3-3.2-1-1.5-.7-1.8-1.5-3.7-1.3-4.3-1.2-4.5-1.3-4.7-1.5-4.5-2-4.5-1.2-2.3-1.3-2-3.7-5-3.5-3.7-1.5-1.3-1.8-1.5-3.5-2.2-4-2-4.7-2.5-6-3.3-7.3-4.2-5.5-2 7.3-19.3 8.5-22.2h.5l25.7-9.3 1.3 3.8 5.5 1.2 5.5 1.5 6.7 1.8 7.3 2.2 7 2.8 6.2 2.5 2.8 1.5 2.2 1.5 3.3 2.7 3.7 3.8 4.3 5 4.7 5.5 5 6.5 5.3 7 10.7 15 10.8 15.5 9.5 14.5 7.7 12.5 3 5 2 4.2 1.8 3.3 2 3.2 4.7 7.5 5.8 7.8 6.2 8.2 6.8 8.5 7.5 8.8 15.2 17.5 15 17.2 13.8 15.8 6 7 5.2 6.5 4.3 5.5 3 4.7 2.7 5 2.8 5.8 2.7 6.2 2.3 6.8 2.5 7 2 7.2 1.7 7.3 1.8 7.5 1.2 7 1 7 .5 6.7.3 6.3-.3 5.7-.5 5-.5 2.3-.7 2-.8 1.7-1 1.8-1 1.5-1.2 1.2-1.8 1.3-1.7 1-2 1-2.3.7-2.5.5-2.5.5-3 .5h-9l-3.5-.2-3.2-.5-3.5-.8-3.8-1-3.5-1-3.7-1.2-3.8-1.5-3.7-1.5-3.8-2-3.7-2-3.8-2.5-3.7-2.5-3.8-2.8-3.5-3-3.7-3.2-3.5-3.5-3.3-3.8-3.5-4-3-4.2-3-4.5-3.5-5.3-3.2-5.7-6.5-11.8-6.3-12.7-6.2-13-5.8-13.5-5.7-13.3z" fill="#ffeec8"/><g fill="none" stroke="#231f20" stroke-linecap="round" stroke-miterlimit="10"><path d="m589.3 281.8 1 .2.5-.2 1.2-.5 1.8-1.3 1-.7 1-.8 1.2-2 1-2 .5-2 .3-1.7v-2.8l-2 .3h-2.5l-3 .2-3.3-.2-3.7-.3-3.8-.5-4-1-3.7-1-2.8-.2h-1.7l-1.3.2-.5.5-.2.5v.5l6.7 5 5.5 4 4.8 3.3 2 1 1.7 1 1.3.2z" stroke-width="6"/><path d="m612.5 261-1-1.5-1.5-1.5-2-2-3.2-2-4.3-2.2-5.2-2.5-3.3-1-3.2-1-4.3-1-3.7-.8-3.3-.5-3.2-.2h-3l-2.8.2-4.5.5" stroke-width="14"/><path d="m591.3 268.5-1 .8-1.8 1.5-1.5 1.7-.5.8v2.5l.5 2 .8 1.7.7 1 .8 1" stroke-width="6"/><path d="m645.3 226.8-3 1-3 .7-3.5.5-3.5.3h-2.8l-2.7-.3-2.5-.5-2.3-.5-4.5-1.2-4.7-2-5-2.5-5.8-3-6.7-3.5-8.3-3.8-4.2-2-4-2.2-7-3.8-5.8-3.7-5-2.8-2.2-1.2-2-.8-2-.5h-2l-2 .3-1.8.5-2 1.2-2 1.8-3.7 4-4 4.2-7.5 9-3.8 4-4 4-2 1.5-2 1.8-2.2 1.2-2.3 1-3.5 1.5-1.5.5h-2.5l-.2-.5-.3-.2v-1l.3-1 .5-1 1-5 .5-4.8.5-4.5-.3-2-.2-1.7-.3-1.8-.5-1.5-1-1.5-1-1.2-1.2-1.3-1.5-1-2-.7-2.3-.5-2.2-.5-2.5-.3h-4.5l-2.5.3-2.3.5-2.2.7-2 1-2.3 1-2 1.3-1.7 1.7-1.8 1.8-1.7 2-1.5 2.2-1.5 2.5-1.3 2.8-.7 2.5-.5 2.5-.5 2.5-.3 2.5v4.7l.5 4.8.5 4.7v7l-.2 2.3-.5 2.2-.8 2.3-16.5 13-3.2 2.5-2.5 2.2-2.3 2-2 1.5-1 .5-1.2.3h-2.3l-1.2-.3-1.5-.7-1.8-.8-1.7-1-3.3-2.5-1.2-1.2-1.3-1.5-1-1.3-.7-1.7-1.8-3.8-1.5-5.2-1.2-6.8-3.5-19-.8-6-.5-6v-6l.5-5.7.8-5.8 1-5.7 1.5-5.5 1.5-5.3 1.5-5 1.7-5 3.8-8.7 3.7-7.8 3-6.5 3.5-6.2 4.8-7.5 5.7-8 3.3-4.3 3.5-4.2 3.2-4 3.8-4 3.7-3.5 3.5-3.5 3.8-3 3.7-2.8 3.8-2.2 3.5-1.5 7-2.8 6.5-2 11-3.5 7.5-1.7 2.7-.8 2.3-.2 6-.3 8.7-.5h11l5.8.3 6 .5 6 .7 6 1 5.7 1.3 5.3 1.7 5 2 2.2 1.3 2.3 1.5 16.2 10.5 7.8 5.2 7.2 5 6.8 5 3 2.8 3 2.7 2.5 2.5 2.5 3 2.2 2.8 1.8 3 1.7 3.2 1.8 3.8 3.5 8 3.2 9 3 9.2 2.5 9.3 2.3 8.7 1.5 8 1 6.5.2 2v2l-.2 1.8-.3 1.7-.5 1.8-.5 1.7-.7 1.5-1 1.3-2 2.7-2.5 2.3-2.8 2z" stroke-width="14"/><path d="m596.5 277-1 1-1.5.8h-2l-.5-.3-.5-.5-.5-.5-.2-1.2v-1.5l.7-1.5 1-1.3 1.3-.5 1.2-.2.8.2.5.3.5.5.5.5.5 1.2-.3 1.5z" stroke-width="6"/><path d="m523.5 378.5h2.5l3 .8 3.3 1.2 3.2 1.5 8 4.3 3.8 1.5 1.7.7 2 .5 1.8.3h3.5l1.5-.5 1.5-.5 1.5-.8 1.2-.7 1.3-1 2-2 1.5-2.3 1.2-2 .5-2 .5-1.5 1.3-1.5 1.5-1.7 1.7-1.8 5.8-5.2-2.5-2.8-3-3.2-6.3-8.3-5-6.7-2-3 9.5.2 7.8.5 7 .8 7.2 1.5 2.5.5 1.5-.3.5-.2.5-.3.3-1 .2-1.2-.2-1.3-.8-3.2-.2-.8.2-1 .5-1.7 1-2 1.3-2 1.5-1.5 1.5-1.3 1-.2.7-.3h.8l.5.3 6.5 3.2 1.7.5 3.5 1 1.8.3 2-.5 2-.8 1.7-1.2 1.5-1.8.8-1 .5-1 .2-1.2.3-1.3v-1.2l-.3-1.5-2.7-10-3-15.3-.8-4.2-.2-3.8.5-3.2.7-3 1-2.8 1.5-2.5 1.8-2.5 2.2-2.5 4.3-5 3.5-4.2 1.5-2.3 1.5-2.5 1.5-2.7 1.7-3.5 1.8-4.5 1.2-3.8.8-3.2.5-2.8v-2.5l-.3-2.2-.2-2-.8-2.3" stroke-width="14"/><path d="m493.3 353 4 3.3 9.7 7.5 6.5 4.7 7.3 4.8 7.2 4.5 7.5 4.2 3.5 1.8 3.3 1.2" stroke-width="14"/><path d="m424 401.3 3 3.2 3 3 3 2.5 3.3 2 3.2 1.8 3.3 1.7 6.5 2.5 6.5 2.5 3 1.3 3 1.5 2.7 1.7 2.8 2 2.2 2.3 2.3 2.7 2 3.3 2.2 4.5 2.8 5.7 2.7 6.5 6.5 15.8 7.3 18.5 10.5 25.7 5.7 13.3 5.8 13.5 6.2 13 6.3 12.7 6.5 11.8 3.2 5.7 3.5 5.3 3 4.5 3 4.2 3.5 4 3.3 3.8 3.5 3.5 3.7 3.2 3.5 3 3.8 2.8 3.7 2.5 3.8 2.5 3.7 2 3.8 2 3.7 1.5 3.8 1.5 3.7 1.2 3.5 1 3.8 1 3.5.8 3.2.5 3.5.2h9l3-.5 2.5-.5 2.5-.5 2.3-.7 2-1 1.7-1 1.8-1.3 1.2-1.2 1-1.5 1-1.8.8-1.7.7-2 .5-2.3.5-5 .3-5.7-.3-6.3-.5-6.7-1-7-1.2-7-1.8-7.5-1.7-7.3-2-7.2-2.5-7-2.3-6.8-2.7-6.2-2.8-5.8-2.7-5-3-4.7-4.3-5.5-5.2-6.5-6-7-13.8-15.8-15-17.2-15.2-17.5-7.5-8.8-6.8-8.5-6.2-8.2-5.8-7.8-4.7-7.5-2-3.2-1.8-3.3-2-4.2-3-5-7.7-12.5-9.5-14.5-10.8-15.5-10.7-15-5.3-7-5-6.5-4.7-5.5-4.3-5-3.7-3.8-3.3-2.7-2.2-1.5-2.8-1.5-6.2-2.5-7-2.8-7.3-2.2-6.7-1.8-5.5-1.5-5.5-1.2m-37.8 49 7.3 4.2 6 3.3 4.7 2.5 4 2 3.5 2.2 1.8 1.5 1.5 1.3 3.5 3.7 3.7 5 1.3 2 1.2 2.3 2 4.5 1.5 4.5 1.3 4.7 1.2 4.5 1.3 4.3 1.5 3.7.7 1.8 1 1.5" stroke-width="14"/><path d="m391.3 306.8 37.5 9.2 24.2 23.5m-73.7-17.7 1.2.5 39.8 15.7 19.7 30.5" stroke-width="14"/><path d="m382.5 323-2-.7-3.7-1.8-17.3-7.7-17.7-8-3.8 2.7-10.5 7-15 10.8-9 6.5-9.2 7-9.5 7.7-9.8 7.8-9.2 8.2-9.3 8.3-8.5 8.2-3.7 4.3-3.8 4-3.5 4-3 4-3 4-2.5 3.7-2.2 4-2 4-4.3 8.8-4 9.7-3.7 10.3-3.5 11.2-3.3 11.8-2.7 12.5-2.8 13.2-2.2 13.5-2 14.5-1.5 14.8-1.5 15.2-1 15.8-.5 16-.3 16.5.3 17 .7 31 1.3 25.7 1.2 21 1.3 16 1 12 1 8 1 5.8m161.7-420.8 2-.7 2.3-1 2.5-1.3 3-1.7 3.2-2 3.5-2.5 3.8-2.8 4-3 7.5-6.5 4-3.7 4-3.8 4-4.2 4.2-4.5 4-5 4-5m7.5 138.5 1.3 5.5 1.2 5.7 1.8 7 2.2 7.8 2.8 8 3.2 8.2 1.8 3.8 1.7 3.5.8 1.7.7 2 .5 2.5.3 2.5.5 5.8-.3 6.7-.5 7.3-.7 7.7-1.3 8-1.2 8.3-3 16-3.3 14.2-2.7 11.8-1.8 7.2-.7 2m68-69.2v1l1 10.2 1.5 20 .7 12.8.8 14.2.7 15.3.3 16.2.2 16.5-.2 16.5-.8 16.5-1 16-.7 7.5-1 7.5-1 7-1.3 6.8-1.5 6.5-1.5 5.7-1.7 5.5-2 5-3 6-3 5.5-3.3 5-3.5 4.3-3.7 3.7-3.8 3.3-3.7 3-4 2.2-4.5 2-4.5 1.5-4.5 1.3-4.5.5-4.5.2-4.8-.2-4.5-.5-4.5-.8-4.5-1.2-4.2-1.5-4.3-2-4.2-2-4-2.3-3.8-2.7-3.7-2.5-3.5-3-8.8-8.3-8.5-8.2-7.7-8.3-7.3-7.7-11.5-12.8-6-7.2-.7-.8" stroke-width="14"/><path d="m383 467.5 45 85 23.3 44.3-109.8 62.5-25 14.2-58-106.7m176 40.2 4.5 5.5 4.5 6 5.5 7.5 2.8 4 2.7 4.3 2.5 4.5 2.3 4.5 2 4.5 1.5 4.2 1 4.3.5 4m-4.5 62.7v42" stroke-width="14"/></g></svg>