<svg height="850" viewBox="0 0 850 850" width="850" xmlns="http://www.w3.org/2000/svg"><path d="m500.3 188-3.5-.5-3.3-.7-3.5-1-3.5-1.3-3.2-1.2-3.3-1.8-3.2-2-3.3-2-3-2.2-3-2.5-3-2.8-2.7-3-2.8-3.2-2.5-3.3-2.2-3.5-2.3-3.7-3-5.5-2.2-5.8-1.8-5.7-1.5-5.8-.7-5.7-.3-5.5v-5.5l.8-5.5 1-5.3 1.5-4.7 2-4.8 2.5-4.2 3-4 1.5-2 1.7-1.8 2-1.7 2-1.5 2-1.3 2-1.5 2.3-1 2.5-1 2.2-1 2.3-.7 2.5-.5 2.5-.5 5-.3h5l5 .8 5 1.2 5 1.8 4.7 2.2 5 2.8 4.5 3.2 4.5 3.8 4.3 4.2 3.7 4.5 3.8 5 3.2 5.3 3.3 6 2.2 6.2 2 6.3 1.3 6.2.7 6v6.3l-.2 5.7-1 5.8-1.3 4.5-1.7 4.5-2 4.2-2.5 3.8-2.8 3.7-3.2 3.3-3.5 2.7-3.8 2.5-3.7 1.8-2.5 1-2.5.7-2.5.8-2.8.5-2.7.2-2.5.3-2.8-.3z" fill="#ffeec8"/><path d="m521.3 184.8 4 .5-2.8 29.2-2 18.5-2.5 19-2.7 18-1.3 8-1.5 7.3-1.5 6.2-1.5 5.3-1.5 3.7-.7 1.3-.8.7-10.2 8.5-12.8 10-27.7 21.5-23.5 17.8-10.3 7.7 55.5-90.7 22.5-87 .3-2.3h2.7l2.8.3 2.5-.3 2.7-.2 2.8-.5 2.5-.8 2.5-.7z" fill="#a8d7f4"/><path d="m620 363.8-.2-.8-.8-1-2-1.7-3.5-2.3-4.7-2.5-4-2.2-5.3-3.5-5.7-4.3-6-4.7-12.8-10-11-8.5-.7-.3-5 10.8-10 7.5-11.5 8.5-14.5 10.7-16.8 12-18.5 12.8-19.2 13-19.3 12.5-24.7-39-1.8-2.8 10.3-7.7 23.5-17.8 27.7-21.5 12.8-10 10.2-8.5.8-.7.7-1.3 1.5-3.7 1.5-5.3 1.5-6.2 1.5-7.3 1.3-8 2.7-18 2.5-19 2-18.5 2.8-29.2-4-.5 3.7-1.8 3.8-2.5 3.5-2.7 3.2-3.3 2.8-3.7 2.5-3.8 2-4.2 1.7-4.5 1.3-4.5 2.2.5 9.3 3 21.7 7.7 12.5 4.5 11.8 4.8 10.2 4.5 4 2 3.3 1.7 3.7 2.8 5.3 4.5 6.7 6.2 8 7.5 18.5 18.5 20.3 20.8 20 21.5 9.5 10.5 8.5 9.7 7.7 9 6.3 7.8 4.7 6.5 1.8 2.7 1.2 2.3 1.5 3 1.3 3 1 3.2 1 3.5.7 3.5.8 3.8.5 3.7.2 4h-1.7l-2-1.2-2.3-1.3-2.5-.7-2.5-.8-2.7-.5-2.8-.5-3-.2h-3l-6 .2-6.2.5-6.3 1-6 1.5-5.7 1.3-5.5 1.7-9.3 3-6.2 2.3-2.5 1-32.8 11.2-21.5 7.5.5-.5.3-.7v-.8z" fill="#a8d7f4"/><path d="m640 696.3-.7-9.8-2-25-2.3-29.7-5.5-65-2.5-30.5-1.7-25.8-.8-10.7-.2-8.5v-6l.2-3.8 3.8-24.5 6.2-40 7.8-54-1.3-4 32.8-11.2 2.5-1 6.2-2.3 9.3-3 5.5-1.7 5.7-1.3 6-1.5 6.3-1 6.2-.5 6-.2h3l3 .2 2.8.5 2.7.5 2.5.8 2.5.7 2.3 1.3 2 1.2h1.7l.3 7-.3 7.8-.7 8-1 8.5-1.8 9.2-2.2 9.5-2.5 10.3-3.3 10.7-5 15.8-4.2 12.7-6.5 19.5-2.5 8.3-2 8.2-1.8 9.3-1.5 10.7-.5 7.3-.7 9.7-1.3 25.8-1 31-.7 33.5-1.5 61.5-.5 34.2v6.3l-.3 6.5-.5 6.5-.5 3.2-.5 3.3-3 3.7-3.2 3.5-2 1.5-1.8 1.5-2.2 1.3-2 1-2.3.5-2.2.2-2.3-.2-2.5-.8-2.2-1.5-2.5-2-2.5-2.5-2.5-3.2-2.3-3-2.5-2.3-2.2-1.5-2.8-1-2.5-.5-2.5.3-2.5.5-2.5.7-2.5 1.3-2.2 1.2-2.3 1.5-2 1.5-3.5 3.3-2.7 2.7.5-2.2.5-2 .2-4.8.5-12v-5.7z" fill="#797878"/><path d="m707 724.8-1.2 5.2-1.8 5-2.2 5.3-3 5.2-8.8 10-4 4-3.7 3.8-3.5 3-3.3 2.5-3 2.2-3 1.8-3 1.2-2.7 1-3 .8-2.8.5-3 .2h-3.2l-6.8-.2-3.5-.5-3.2-.5-3-1-2.8-1-2.5-1-2-1.3-1.7-1.5-1.5-1.7-1-1.8-.5-2-.3-2 .3-2.2.7-2.5 1.3-2.5 1.5-2.8 2.2-2.7 3.8-5 2.7-4.3 2-3.7 1.3-3.8 2.7-2.7 3.5-3.3 2-1.5 2.3-1.5 2.2-1.2 2.5-1.3 2.5-.7 2.5-.5 2.5-.3 2.5.5 2.8 1 2.2 1.5 2.5 2.3 2.3 3 2.5 3.2 2.5 2.5 2.5 2 2.2 1.5 2.5.8 2.3.2 2.2-.2 2.3-.5 2-1 2.2-1.3 1.8-1.5 2-1.5 3.2-3.5z" fill="#231f20"/><path d="m641 359 1.3 4-7.8 54-6.2 40-3.8 24.5-.2 3.8v6l.2 8.5.8 10.7 1.7 25.8 2.5 30.5 5.5 65 2.3 29.7 2 25-6 2.3-5 1.5-5.8 1.7-6.5 1.3-3.5.5-3.5.2-3.5.3h-3.7l-3.5-.3-3.5-.5-2.8-.5-2.5-1.2-2.5-1.3-2.2-1.5-2.3-2-2.2-2-2.3-2.5-2-2.2-3.7-5.3-3.3-5.2-3-5.3-2.2-4.7-3-6.8-1-2.5 2.7-144.7 56.3-138.5.7-.8z" fill="#797878"/><path d="m639.3 686.5.7 9.8-15.7 2.2-17.8 3-18.5 2.8-18.2 3-17.3 2.2-7.7.8-7 .5-6.3.5h-5.5l-4.2-.5-1.5-.3-1.5-.5-2-1.2-1.8-1.3-1.2-1.7-.8-1.8-.2-2v-2l.5-2 .7-2.2 1.3-2.3 1.5-2.2 2-2.3 2-2 2.7-2 2.8-1.7 3-1.8 3.5-1.5 3.5-1.2 3.2-1.5 5.8-3.3 5-3 4-3 3.2-2.7 2.3-2 1.7-2 2.3-1.5 2.2 4.7 3 5.3 3.3 5.2 3.7 5.3 2 2.2 2.3 2.5 2.2 2 2.3 2 2.2 1.5 2.5 1.3 2.5 1.2 2.8.5 3.5.5 3.5.3h3.7l3.5-.3 3.5-.2 3.5-.5 6.5-1.3 5.8-1.7 5-1.5z" fill="#231f20"/><path d="m482.3 486.5v1.5l-.3 1.5-.5 2-1 2.5-1.8 3-2.5 3-1.5 1.5-2 1.5-2.8 2.3-3.3 1.8-3 1.5-1.8.3-1.5.5h-1.8l-1.5-.3-1.8-.3-1.5-.5-1.8-1-1.5-1.3-1.5-1.5-1.5-1.8-2.5-4-2-4.3-2.5-5-3-6-4.3-7.3-6-9.3-3.5-5.3-4.3-5.8-5-6.5-5.8-7h-5.8l2-.3 2.5-.5 2-.5 2-.8 4-1.8 4-2.3 4-2.5 3.5-2.8 3.3-2.5 4.5-3.8 11.3 13.3 11.5 14.8 12 16zm-20.5-2.5.3-1v-1l-.3-.8-.3-1-.8-.8-.5-.8-1-.5-1-.3-1-.3h-1l-.8.3-1 .3-.8.5-.8.8-.5.8-.3 1-.3 1v.8l.3 1 .3.8.8.8.5.8 1 .5 1 .5 1 .3h1l.8-.3 1-.5.8-.5.8-.5.5-.8z" fill="#9c5c25"/><path d="m435 425-4.5 3.8-3.2 2.5-3.5 2.7-4 2.5-4 2.3-4 1.7-2 .8-2 .5-2.5.5-2 .2-2.3-.2-2-.3-1.7-.7-1.3-.8-1.2-1-1-1.2-.5-1.3-.8-1.2-.5-2.8-.2-2.2v-2.3l2-5 10.5-29.2 1.5-2 18-21.5 24.7 39-12 13.7z" fill="#ffeec8"/><path d="m395.8 699.5 3.5-12.2 3.5-11.5 3.2-8.5 3.3-7.8 3.2-6.5 3.3-5.7 1.7-2.3 1.5-2.2 1.5-1.8 1.5-1.2 1.5-1 1.5-.8 1.3-.5 1.2.3h.3l.7.2.8.5.7.5.8 1 1 2 1 2.8.7 3.2.5 4 .3 4.3.2 4.7-.2 5.3-.3 5.7-.7 6-.8 6.3-1 6.7-1 6.8-1.5 7.2-1.5 7-2 7.3-1.7 7-2 6.7-2.3 6.3-2 6-2.2 5.7-2.3 5-2.2 4.8-2.3 4.2-2.2 4-2.3 3-2 2.8-2 2-2 1.2-1 .5-1 .3h-1.7l-1.3-.5-1-1-.7-1-.8-1-1.2-3-.8-4-.5-4.5-.5-5.3.3-5.7.2-6.5.5-7 1-8 1.3-8.8 1.7-9 2-9.2z" fill="#f6cc4b"/><path d="m427.5 637.8-1.2-.3-1.3.5-1.5.8-1.5 1-1.5 1.2-1.5 1.8-1.5 2.2-1.7 2.3-3.3 5.7-3.2 6.5-3.3 7.8-3.2 8.5-21.3-4-20.7-4.5-20.3-4.8-10.5-2.7-10.7-3-9-2.8-9.3-2.7-4.7-1.3-4.5-1.2-4.8-1-4.7-.8-4-.5-4-.2h-16l-4-.3-4-.2-11.3-1-11-1.3-11-1.2-11-1.5-11-2-11-2-10.7-2.5-11-2.8-10.8-3.2-10.7-3.5-10.8-4.3-5.2-2.2-5-2.3-7.5-3.5-3-.5 3.5-3.7 4-3.5 4-3.3 4-2.5 4-2.2 4.2-2 4.3-1.3 4.2-1 4.3-.7h8.7l4.5.5 4.5.7 4.8 1 4.5 1.5 4.7 1.5 4.8 2 3.5 1 5.2 1.3 7 1.5 8 1.5 19.8 3 22.5 3.2 23.7 3.3 23.3 3 38 4.5 15 1.7 15.5 2.5 15.5 2.5 14.5 2.8 23.5 4.7zm-21.7-245.5-1.5 2-10.5 29.2-1-.2-6.8-7.5-7-7.3-6.7-7.2-7-6.8-13.8-13.2-13.2-12.3-13-11.5-11.8-10-20.2-16.7-16.5-13.3-13.8-10.7-10.5-7.5-6.2-4.5 2.7-4.5.8-1 14.5-16.3.7.8 9.8 7 23.5 17.5 14.2 11.2 15 11.8 14.3 11.7 6.7 5.5 6.3 5.5 10.7 9.8 11.8 10.7 13 12.3 6.7 6.7 7.3 7.3z" fill="#9c5c25"/><path d="m98.3 633.8.5-2.8.8-2.8 1-2.8 1.5-3 1.8-2.8 1.8-2.8 3.8-5 3 .5 7.5 3.5 5 2.3 5.3 2.3 10.8 4.3 10.8 3.5 10.8 3.3 11 2.8 10.8 2.5 11 2 11 2 11 1.5 11 1.3 11 1.3 11.3 1 4 .3 4 .3h16l4 .3 4 .5 4.8.8 4.8 1 4.5 1.3 4.8 1.3 9.3 2.8 9 2.8 10.8 3 10.5 2.8 20.3 4.8 20.8 4.5 21.3 4-3.5 11.5-3.5 12.3-8-2-7.8-1.3-8-1-8.5-.5-8-.3-7.8-.5-4-.3-4-.5-4-.5-3.8-1-4.3-1.5-4.3-1.8-4-2-4-2.3-4-2-4-1.8-4.3-1.8-2.3-.5-2.3-.5-4.5-.5h-4.5l-9 .3-4.5.3h-4.5l-4.5-.5-4.8-.8-4.5-1-5.5-1-6-.8-6-.8-6.3-.5-6-.3-5.5.5-2.5.3-2.5.5-2 .5-1.5.8-1 1-.3 1v1l.5 1 .8 1 1.3 1.3 3 2.5 3.8 2.5 3.8 2.5 3.5 2.5 4.3 3 4 2.3 4 2 4.3 1.5 4.3 1.3 4.3 1 4.5.5 4.8.5 11.3.8 11.3.5 5.8.5 5.5.8 5.5.8 5.5 1.3 3.3 1 3.5 1.3 3.3 1.5 3.3 1.8 6 3.5 6 4 6 3.8 6.3 3.5 3.3 1.5 3.3 1.5 3.5 1.3 3.8.8 7 1.5 7.3 1.3 7.3 1.5 3.3 1 3.5 1.3h.5l-.5 7-.3 6.5-.3 5.8.5 5.3.5 4.5.8 4 1.3 3 .8 1 .8 1-8.8-2.3-22.3-6-14-4-14.8-4.8-15-4.8-14.5-5-36-13.3-22.3-7.8-22.5-7.8-21.8-7.3-18.8-6-8-2.3-6.8-1.8-5.3-1.3-3.8-.8-5-.3-5-.8-4.8-.8-4.8-1.3-4.3-1.3-4.3-1.8-4-1.8-3.8-2.3-3.8-2.5-3.3-2.8-3.3-3-2.8-3.5-2.8-4-2.5-4.3-2-4.5-2-5-1-3-.8-3.5-.8-3.8-.5-4-.3-4.3.3-3.8.5-3.8.5-1.8v-1.3zm57.2 31.5.3-1.5-.3-1.3-.3-1.5-.8-1.3-.8-1.3-1.3-1.3-2.3-2.1-3-1.8-3.3-1.5-3-1-2.5-.5-3.5-.8-3-.8-3-1-2.5-1-2.3-1-2.3-1.3-3.5-2.3-2.5-2.5-2.3-2-1.8-1.5-.8-.5-.5-.3h-1.3l-.8.3-.5.5-.3 1v2.8l.8 3.3 2.3 7.5 1 3.3.5 2.5.3 2 .5 2 1 4.8.3 2.3-.3 2v.8l-.5.8-.3.5-.8.3-1.5.8-1.3.8-.5.5-.3.5.5.5.8.5 1.3.5h1.8l2 .3 2.8-.3 6.3-.5 8.3-1.5 4.5-1.3 5-1.3 3.5-.8 4.3-1 1.8-.8 1.8-.8 1.5-1.3.3-.8z" fill="#9c5c25"/><path d="m395.8 699.5-1.3 4.8-2 9.2-1.7 9-1.3 8.8-1 8h-.5l-3.5-1.3-3.2-1-7.3-1.5-7.2-1.2-7-1.5-3.8-.8-3.5-1.2-3.2-1.5-3.3-1.5-6.2-3.5-6-3.8-6-4-6-3.5-3.3-1.7-3.2-1.5-3.5-1.3-3.3-1-5.5-1.2-5.5-.8-5.5-.7-5.7-.5-11.3-.5-11.2-.8-4.8-.5-4.5-.5-4.2-1-4.3-1.2-4.2-1.5-4-2-4-2.3-4.3-3-3.5-2.5-3.7-2.5-3.8-2.5-3-2.5-1.2-1.2-.8-1-.5-1v-1l.3-1 1-1 1.5-.8 2-.5 2.5-.5 2.5-.2 5.5-.5 6 .2 6.2.5 6 .8 6 .7 5.5 1 4.5 1 4.8.8 4.5.5h4.5l4.5-.3 9-.2h4.5l4.5.5 2.2.5 2.3.5 4.2 1.7 4 1.8 4 2 4 2.2 4 2 4.3 1.8 4.2 1.5 3.8 1 4 .5 4 .5 4 .2 7.7.5 8 .3 8.5.5 8 1 7.8 1.2z" fill="#9c5c25"/><path d="m246.3 294.8-2.5 5.2-2 5.3-1.5 5.2-1 5-.8 5-.5 4.8v9l.3 3.7.2 3.8 1 5.7.8 3.8.5 1.5-10.3-4-8.7-4-7.8-3.8-6.7-3.5-5.5-3.5-4.8-3.5-3.7-3-3-3-2.5-2.7-1.8-2.5-1.5-2-.7-2-.5-1.3-.5-1.2v-.8l78.2-85.2 25 22-21.7 24.2-14.5 16.3-.8 1z" fill="#c8c8c8"/><path d="m138.3 650.3 2.5.5 3 1 3.2 1.5 3 1.7 2.5 2.3 1.3 1.2.7 1.3.8 1.2.2 1.5.3 1.3-.3 1.5-.5.7-.2.8-1.5 1.2-1.8.8-1.7.7-4.3 1-3.5.8-5 1.2-4.5 1.3-8.2 1.5-6.3.5-2.7.2-2-.2h-1.8l-1.2-.5-.8-.5-.5-.5.3-.5.5-.5 1.2-.8 1.5-.7.8-.3.2-.5.5-.7v-.8l.3-2-.3-2.2-1-4.8-.5-2-.2-2-.5-2.5-1-3.2-2.3-7.5-.7-3.3v-2.7l.2-1 .5-.5.8-.3h1.2l.5.3.8.5 1.7 1.5 2.3 2 2.5 2.5 3.5 2.2 2.2 1.3 2.3 1 2.5 1 3 1 3 .7z" fill="#9c5c25"/><g fill="none" stroke="#231f20" stroke-linecap="round" stroke-miterlimit="10"><path d="m500.3 188-3.5-.5-3.3-.7-3.5-1-3.5-1.3-3.2-1.2-3.3-1.8-3.2-2-3.3-2-3-2.2-3-2.5-3-2.8-2.7-3-2.8-3.2-2.5-3.3-2.2-3.5-2.3-3.7-3-5.5-2.2-5.8-1.8-5.7-1.5-5.8-.7-5.7-.3-5.5v-5.5l.8-5.5 1-5.3 1.5-4.7 2-4.8 2.5-4.2 3-4 1.5-2 1.7-1.8 2-1.7 2-1.5 2-1.3 2-1.5 2.3-1 2.5-1 2.2-1 2.3-.7 2.5-.5 2.5-.5 5-.3h5l5 .8 5 1.2 5 1.8 4.7 2.2 5 2.8 4.5 3.2 4.5 3.8 4.3 4.2 3.7 4.5 3.8 5 3.2 5.3 3.3 6 2.2 6.2 2 6.3 1.3 6.2.7 6v6.3l-.2 5.7-1 5.8-1.3 4.5-1.7 4.5-2 4.2-2.5 3.8-2.8 3.7-3.2 3.3-3.5 2.7-3.8 2.5-3.7 1.8-2.5 1-2.5.7-2.5.8-2.8.5-2.7.2-2.5.3-2.8-.3zm47.7-33.7 9.3 3 21.7 7.7 12.5 4.5 11.8 4.8 10.2 4.5 4 2 3.3 1.7 3.7 2.8 5.3 4.5 6.7 6.2 8 7.5 18.5 18.5 20.3 20.8 20 21.5 9.5 10.5 8.5 9.7 7.7 9 6.3 7.8 4.7 6.5 1.8 2.7 1.2 2.3 1.5 3 1.3 3 1 3.2 1 3.5.7 3.5.8 3.8.5 3.7.2 4 .3 7-.3 7.8-.7 8-1 8.5-1.8 9.2-2.2 9.5-2.5 10.3-3.3 10.7-5 15.8-4.2 12.7-6.5 19.5-2.5 8.3-2 8.2-1.8 9.3-1.5 10.7-.5 7.3-.7 9.7-1.3 25.8-1 31-.7 33.5-1.5 61.5-.5 34.2v6.3l-.3 6.5-.5 6.5-.5 3.2-.5 3.3-1.2 5.2-1.8 5-2.2 5.3-3 5.2-2.5 3.8" stroke-width="21"/><path d="m620 363.8.3.7v.8l-.3.7-.5.5-.7.8-2.3 1-2.2.5-2.5.5 7.2-2.5.5-.3 21.5-7.5 32.8-11.2 2.5-1 6.2-2.3 9.3-3 5.5-1.7 5.7-1.3 6-1.5 6.3-1 6.2-.5 6-.2h3l3 .2 2.8.5 2.7.5 2.5.8 2.5.7 2.3 1.3 2 1.2m-184.3-18.2 11 8.5 12.8 10 6 4.7 5.7 4.3 5.3 3.5 4 2.2 4.7 2.5 3.5 2.3 2 1.7.8 1 .2.8m22.3-.8-7.8 54-6.2 40-3.8 24.5-.2 3.8v6l.2 8.5.8 10.7 1.7 25.8 2.5 30.5 5.5 65 2.3 29.7 2 25 .7 9.8.5 9.5v5.7l-.5 12-.2 4.8-.5 2-.5 2.2-1.3 3.8-2 3.7-2.7 4.3-3.8 5-2.2 2.7-1.5 2.8-1.3 2.5-.7 2.5-.3 2.2.3 2 .5 2 1 1.8 1.5 1.7 1.7 1.5 2 1.3 2.5 1 2.8 1 3 1 3.2.5 3.5.5 6.8.2h3.2l3-.2 2.8-.5 3-.8 2.7-1 3-1.2 3-1.8 3-2.2 3.3-2.5 3.5-3 3.7-3.8 4-4 8.8-10 3-3.5" stroke-width="21"/><path d="m637 734.5 1.8-2 2.7-2.7 3.5-3.3 2-1.5 2.3-1.5 2.2-1.2 2.5-1.3 2.5-.7 2.5-.5 2.5-.3 2.5.5 2.8 1 2.2 1.5 2.5 2.3 2.3 3 2.5 3.2 2.5 2.5 2.5 2 2.2 1.5 2.5.8 2.3.2 2.2-.2 2.3-.5 2-1 2.2-1.3 1.8-1.5 2-1.5 3.2-3.5 3-3.7 1.8-2.5m-88-360.3-.8 1.8-1 3-.2.5-56.3 138.5-2.7 144.7 1 2.5 3 6.8 2.2 4.7 3 5.3 3.3 5.2 3.7 5.3 2 2.2 2.3 2.5 2.2 2 2.3 2 2.2 1.5 2.5 1.3 2.5 1.2 2.8.5 3.5.5 3.5.3h3.7l3.5-.3 3.5-.2 3.5-.5 6.5-1.3 5.8-1.7 5-1.5 6-2.3.7-.2" stroke-width="21"/><path d="m561.5 661.3-1.7 2-2.3 2-3.2 2.7-4 3-5 3-5.8 3.3-3.2 1.5-3.5 1.2-3.5 1.5-3 1.8-2.8 1.7-2.7 2-2 2-2 2.3-1.5 2.2-1.3 2.3-.7 2.2-.5 2v2l.2 2 .8 1.8 1.2 1.7 1.8 1.3 2 1.2 1.5.5 1.5.3 4.2.5h5.5l6.3-.5 7-.5 7.7-.8 17.3-2.2 18.2-3 18.5-2.8 17.8-3 15.7-2.2m-140-506-22.5 87-55.5 90.7" stroke-width="21"/><path d="m599.8 224.3-.5 4.7-1.3 5-1.5 5.8-2 6.2-4.5 13.3-5.5 14-5.7 14-5.8 13.2-9.7 21.5-5 10.8-10 7.5-11.5 8.5-14.5 10.7-16.8 12-18.5 12.8-19.2 13-19.3 12.5-24.7-39-1.8-2.8 10.3-7.7 23.5-17.8 27.7-21.5 12.8-10 10.2-8.5.8-.7.7-1.3 1.5-3.7 1.5-5.3 1.5-6.2 1.5-7.3 1.3-8 2.7-18 2.5-19 2-18.5 2.8-29.2" stroke-width="21"/><path d="m427.3 366.8-3.5 4-18 21.5-1.5 2-10.5 29.2-2 5v2.3l.2 2.2.5 2.8.8 1.2.5 1.3 1 1.2 1.2 1 1.3.8 1.7.7 2 .3 2.3.2 2-.2 2.5-.5 2-.5 2-.8 4-1.7 4-2.3 4-2.5 3.5-2.7 3.2-2.5 4.5-3.8 1.5-1.5 12-13.7" stroke-width="26.25"/><path d="m392.8 423.3-6.8-7.5-7-7.3-6.7-7.2-7-6.8-13.8-13.2-13.2-12.3-13-11.5-11.8-10-20.2-16.7-16.5-13.3-13.8-10.7-10.5-7.5-6.2-4.5-1.3-1m187.5 128.2 2.5 3 11.3 13.3 11.5 14.7 12 16 12.5 17.5v1.5l-.3 1.5-.5 2-1 2.5-1.7 3-2.5 3-1.5 1.5-2 1.5-2.8 2.3-3.2 1.7-3 1.5-1.8.3-1.5.5h-1.7l-1.5-.3-1.8-.2-1.5-.5-1.7-1-1.5-1.3-1.5-1.5-1.5-1.7-2.5-4-2-4.3-2.5-5-3-6-4.3-7.2-6-9.3-3.5-5.2-4.2-5.8-5-6.5-5.8-7m-144-168.7 9.8 7 23.5 17.5 14.2 11.2 15 11.8 14.3 11.7 6.7 5.5 6.3 5.5 10.7 9.8 11.8 10.7 13 12.3 6.7 6.7 7.3 7.3" stroke-width="14"/><path d="m246.3 294.8 2.7-4.5.8-1 14.5-16.3 21.7-24.2-25-22-78.2 85.2v.8l.5 1.2.5 1.3.7 2 1.5 2 1.8 2.5 2.5 2.7 3 3 3.7 3 4.8 3.5 5.5 3.5 6.7 3.5 7.8 3.8 8.7 4 10.3 4-.5-1.5-.8-3.8-1-5.7-.2-3.8-.3-3.7v-9l.5-4.8.8-5 1-5 1.5-5.2 2-5.3zm215.5 189.2-.3 1-.5.8-.7.5-.8.5-1 .5-.7.2h-1l-1-.2-1-.5-1-.5-.5-.8-.8-.7-.2-.8-.3-1v-.7l.3-1 .2-1 .5-.8.8-.7.7-.5 1-.3.8-.2h1l1 .2 1 .3 1 .5.5.7.7.8.3 1 .2.7v1z" stroke-width="14"/><path d="m427.8 637.8.7.2.8.5.7.5.8 1 1 2 1 2.8.7 3.2.5 4 .3 4.3.2 4.7-.2 5.3-.3 5.7-.7 6-.8 6.3-1 6.7-1 6.8-1.5 7.2-1.5 7-2 7.3-1.7 7-2 6.7-2.3 6.3-2 6-2.2 5.7-2.3 5-2.2 4.8-2.3 4.2-2.2 4-2.3 3-2 2.8-2 2-2 1.2-1 .5-1 .3h-1.7l-1.3-.5-1-1-.7-1-.8-1-1.2-3-.8-4-.5-4.5-.5-5.3.3-5.7.2-6.5.5-7 1-8 1.3-8.8 1.7-9 2-9.2 1.3-4.8 3.5-12.2 3.5-11.5 3.2-8.5 3.3-7.8 3.2-6.5 3.3-5.7 1.7-2.3 1.5-2.2 1.5-1.8 1.5-1.2 1.5-1 1.5-.8 1.3-.5 1.2.3" stroke-width="21"/><path d="m427.8 637.8h-.3l-10.2-2.3-23.5-4.7-14.5-2.8-15.5-2.5-15.5-2.5-15-1.7-38-4.5-23.3-3-23.7-3.3-22.5-3.2-19.8-3-8-1.5-7-1.5-5.2-1.3-3.5-1-4.8-2-4.7-1.5-4.5-1.5-4.8-1-4.5-.7-4.5-.5h-8.7l-4.3.7-4.2 1-4.3 1.3-4.2 2-4 2.2-4 2.5-4 3.3-4 3.5-3.5 3.7-3.8 5-1.7 2.8-1.8 2.7-1.5 3-1 2.8-.7 2.7-.5 2.8v1.7l.2 1.8" stroke-width="21"/><path d="m392 777.3-8.7-2.3-22.3-6-14-4-14.7-4.7-15-4.8-14.5-5-36-13.2-22.3-7.8-22.5-7.7-21.7-7.3-18.8-6-8-2.2-6.7-1.8-5.3-1.2-3.7-.8-5-.2-5-.8-4.8-.7-4.7-1.3-4.3-1.2-4.2-1.8-4-1.7-3.8-2.3-3.7-2.5-3.3-2.7-3.2-3-2.8-3.5-2.7-4-2.5-4.3-2-4.5-2-5-1-3-.8-3.5-.7-3.7-.5-4-.3-4.3.3-3.7.5-3.8.5-1.7.5-1.5.7-1.5 1-1.5" stroke-width="21"/><path d="m401 701-5.2-1.5-8-2-7.8-1.2-8-1-8.5-.5-8-.3-7.7-.5-4-.2-4-.5-4-.5-3.8-1-4.2-1.5-4.3-1.8-4-2-4-2.2-4-2-4-1.8-4.2-1.7-2.3-.5-2.2-.5-4.5-.5h-4.5l-9 .2-4.5.3h-4.5l-4.5-.5-4.8-.8-4.5-1-5.5-1-6-.7-6-.8-6.2-.5-6-.2-5.5.5-2.5.2-2.5.5-2 .5-1.5.8-1 1-.3 1v1l.5 1 .8 1 1.2 1.2 3 2.5 3.8 2.5 3.7 2.5 3.5 2.5 4.3 3 4 2.3 4 2 4.2 1.5 4.3 1.2 4.2 1 4.5.5 4.8.5 11.2.8 11.3.5 5.7.5 5.5.7 5.5.8 5.5 1.2 3.3 1 3.5 1.3 3.2 1.5 3.3 1.7 6 3.5 6 4 6 3.8 6.2 3.5 3.3 1.5 3.2 1.5 3.5 1.2 3.8.8 7 1.5 7.2 1.2 7.3 1.5 3.2 1 3.5 1.3m14.8-63.5-21.3-4-20.7-4.5-20.3-4.8-10.5-2.7-10.7-3-9-2.8-9.3-2.7-4.7-1.3-4.5-1.2-4.8-1-4.7-.8-4-.5-4-.2h-16l-4-.3-4-.2-11.3-1-11-1.3-11-1.2-11-1.5-11-2-11-2-10.7-2.5-11-2.8-10.8-3.2-10.7-3.5-10.8-4.3-5.2-2.2-5-2.3-7.5-3.5m29.7 58.8 3.5-.8 4.3-1 1.7-.7 1.8-.8 1.5-1.2.2-.8.5-.7.3-1.5-.3-1.3-.2-1.5-.8-1.2-.7-1.3-1.3-1.2-2.5-2.3-3-1.7-3.2-1.5-3-1-2.5-.5-3.5-.8-3-.7-3-1-2.5-1-2.3-1-2.2-1.3-3.5-2.2-2.5-2.5-2.3-2-1.7-1.5-.8-.5-.5-.3h-1.2l-.8.3-.5.5-.2 1v2.7l.7 3.3 2.3 7.5 1 3.2.5 2.5.2 2 .5 2 1 4.8.3 2.2-.3 2v.8l-.5.7-.2.5-.8.3-1.5.7-1.2.8-.5.5-.3.5.5.5.8.5 1.2.5h1.8l2 .2 2.7-.2 6.3-.5 8.2-1.5 4.5-1.3z" stroke-width="7"/></g></svg>