<svg height="850.394" viewBox="0 0 850.394 850.394" width="850.394" xmlns="http://www.w3.org/2000/svg"><path d="m372.69 805.21c-12.05 0-21.81-9.76-21.81-21.81l-.88-75.4v-4.92l146 .05v4.87l.32 75.4c0 12.05-9.771 21.81-21.811 21.81z" fill="#ed1d31"/><path d="m572.98 531.68v.07c-31.511 0-6.98 22.36-6.98 22.36s49.08 57.56 89.67 103.01c38.83 43.46 6.07 46.06 6.07 46.06h-46.06l-119.68-.05-146-.05-119.1-.05h-46.06s-32.76-2.601 6.06-46.061c40.6-45.45 90.35-103.68 90.35-103.68s25.45-21.82-6.06-21.82l-.06.061h-60.6s-32.76-2.601 6.06-46.061c24.26-27.17 51.56-58.649 69.6-79.6 12.14-14.1 20.09-23.42 20.09-23.42s25.45-21.81-6.06-21.81c-4.37 0-13.14-.42-13.14-.42h-19.09s-30.19-.19 13.33-46.06c42.96-45.27 100.6-110.28 69.08-110.28-1.3 0-12.69-.27-12.69-.27h-31.51s-32.76-2.6 6.06-46.06c24.26-27.17 73.24-81.39 91.28-102.34 0 0 5.15-7.27 13.03-7.87l5.44.15c6.681.45 13.03 7.88 13.03 7.88 18.03 20.94 67.01 75.17 91.28 102.33 38.819 43.47 6.06 46.06 6.06 46.06h-31.51s-11.39.27-12.7.27c-31.51 0 26.34 60.11 69.08 110.29 36.87 43.28 13.34 46.06 13.34 46.06h-19.09s-8.77.41-13.14.41c-31.511 0-6.061 21.82-6.061 21.82s7.95 9.32 20.09 23.42c18.04 20.94 45.33 52.43 69.601 79.59 38.819 43.46 6.06 46.06 6.06 46.06h-59.07z" fill="#33a048"/><g fill="none"><g stroke="#231f20" stroke-width="21"><path d="m496 708 .32 75.4c0 12.05-9.771 21.81-21.811 21.81h-101.819c-12.05 0-21.81-9.76-21.81-21.81l-.88-75.4m222.98-176.25c-31.511 0-6.98 22.36-6.98 22.36s49.08 57.56 89.67 103.01c38.83 43.46 6.07 46.06 6.07 46.06h-46.06l-119.68-.05-146-.05-119.1-.05h-46.06s-32.76-2.601 6.06-46.061c40.6-45.45 90.35-103.68 90.35-103.68s25.45-21.82-6.06-21.82l-.06.061h-60.6s-32.76-2.601 6.06-46.061c24.26-27.17 51.56-58.649 69.6-79.6"/><path d="m570.23 531.68h61.82s32.76-2.6-6.06-46.06c-24.271-27.16-51.561-58.65-69.601-79.59m.001 0c-12.14-14.1-20.09-23.42-20.09-23.42s-25.45-21.82 6.061-21.82c4.37 0 13.14-.41 13.14-.41h19.09s23.53-2.78-13.34-46.06c-42.74-50.18-100.59-110.29-69.08-110.29 1.311 0 12.7-.27 12.7-.27h31.51s32.76-2.59-6.06-46.06c-24.271-27.16-73.25-81.39-91.28-102.33 0 0-6.35-7.43-13.03-7.88l-5.44-.15c-7.88.6-13.03 7.87-13.03 7.87-18.04 20.95-67.02 75.17-91.28 102.34-38.82 43.46-6.06 46.06-6.06 46.06h31.51s11.39.27 12.69.27c31.52 0-26.12 65.01-69.08 110.28-43.52 45.87-13.33 46.06-13.33 46.06h19.09s8.77.42 13.14.42c31.51 0 6.06 21.81 6.06 21.81s-7.95 9.32-20.09 23.42"/></g><path d="m0 0h850.394v850.394h-850.394z"/></g></svg>