<svg height="850.394" viewBox="0 0 850.394 850.394" width="850.394" xmlns="http://www.w3.org/2000/svg"><path d="m428.33 304c.05 21.57 3.4 55.28 17.3 90.92-6.53-1.33-13.29-2.03-20.22-2.03-6.31 0-12.48.58-18.46 1.7 13.71-35.64 16.91-69.25 16.89-90.59z" fill="#fbee34"/><path d="m478.11 572.37c-15.261 9.46-33.33 14.939-52.7 14.939-20.54 0-39.61-6.159-55.42-16.689-18.97-12.65-33.23-31.61-39.67-53.811a95.765 95.765 0 0 1 -3.78-26.71c0-10.979 1.85-21.54 5.28-31.39l5.69 41.81s15.06-17.409 32.72-41.67c4.19-5.76 8.54-11.909 12.86-18.31 10.25-15.16 18.01-30.74 23.86-45.95 5.98-1.12 12.15-1.7 18.46-1.7 6.93 0 13.689.7 20.22 2.03 5.8 14.88 13.45 30.1 23.46 44.91 3.4 5.04 6.82 9.92 10.17 14.58 18.79 26.17 35.391 45.38 35.391 45.38l5.25-38.41a95.717 95.717 0 0 1 4.39 28.72 95.3 95.3 0 0 1 -3.43 25.431c-6.531 23.81-22.051 44-42.751 56.84zm-32.57-514.32c6.9 0 12.5 5.6 12.5 12.51v173.58l2.43 2.06c-3.85 3.53-6.069 5.91-6.069 5.91l-.131 6.58c-2.119-4.91-6.75-8.47-12.27-9.08l.1-.85v-190.71zm-36.6 191.55c-4.83.49-8.99 3.25-11.4 7.2l-.12-6.02s-2.46-2.64-6.69-6.47l2.05-.17v-173.58c0-6.91 5.59-12.51 12.49-12.51h3.58v188.51z" fill="#fbee34"/><path d="m408.85 246.56v-188.51h33.25v190.71l-.1.85c-.55-.06-1.1-.09-1.67-.09h-29.84c-.52 0-1.04.03-1.55.08z" fill="#ed1d31"/><path d="m428.33 302.34v1.66h-4.49v-.94l-1.99.94h-11.36c-4.94 0-9.33-2.36-12.09-6.02l-.86-41.18c2.41-3.95 6.57-6.71 11.4-7.2.51-.05 1.03-.08 1.55-.08h29.84c.57 0 1.12.03 1.67.09 5.52.61 10.15 4.17 12.27 9.08l-.77 37.66c-2.61 4.57-7.53 7.65-13.17 7.65h-8.49zm93.16 27.29c1.42-35.15-5.57-66.24-10.431-83.16h.011l38.569-35.85-.02-.16c6.93-.8 11.21-1.09 11.21-1.09s4.75 11.26 7.01 26.74c2.24 15.51 5.49 45.73.25 66.72-3.27 13.08-8.2 28.51-12.12 39.42l-.06-.02-12.769 11.87c-5.779-1.22-14.279-3.25-23.159-6.12.789-6.2 1.269-12.33 1.509-18.35zm2.09 78.49c27.46 37.729 42.97 49.3 42.97 49.3l-45.399-5.189-1.25 9.149c-4.641-14.79-12.78-28.07-23.46-38.91 1.09-2.31 2.18-4.66 3.239-7.06l.221.1z" fill="#ed1d31"/><path d="m555.91 342.23.06.02c-2.35 6.58-4.35 11.52-5.38 13.3 0 0-2.87-.47-7.45-1.45z" fill="#fff"/><path d="m508.46 217.8c15.9-3.97 31.24-6.18 41.16-7.34l.02.16-38.569 35.85h-.011c-.85-2.93-1.63-5.44-2.279-7.46-1.271-3.9-2.101-6.04-2.101-6.04zm-3.46 185c1.8-4.52 3.53-9.17 5.18-13.95 1.16 1.8 2.37 3.6 3.61 5.41 3.42 4.97 6.68 9.59 9.79 13.86l-23.68 7.39-.221-.1c1.821-4.08 3.601-8.29 5.321-12.61z" fill="#ed1d31"/><path d="m511.06 246.47c4.86 16.92 11.851 48.01 10.431 83.16-.24 6.02-.721 12.15-1.51 18.35-8.54-2.76-17.431-6.31-24.601-10.68-4.8-2.93-9.31-6.08-13.46-9.26l-.12-.4-1.01-.48c-16.78-13.08-27.38-26.34-27.38-26.34l.09-4.47c1.27-2.22 2-4.78 2-7.52v-24.15c0-2.13-.44-4.15-1.23-5.99l.131-6.58s2.22-2.38 6.069-5.91c6.62-6.07 18.05-15.55 31.23-22.16l16.68 15.1.4-.13c.65 2.02 1.43 4.53 2.28 7.46zm8.84 214.91-5.25 38.41s-16.601-19.21-35.391-45.38a350.221 350.221 0 0 0 17.181-31.94c10.68 10.84 18.82 24.12 23.46 38.91z" fill="#ed1d31"/><path d="m506.68 232.97s.83 2.14 2.101 6.04l-.4.13-16.68-15.1c4.95-2.49 10.14-4.57 15.42-5.91.45-.11.89-.23 1.34-.33zm-1.68 169.83c-1.72 4.32-3.5 8.53-5.32 12.61-1.06 2.4-2.149 4.75-3.239 7.06a99.19 99.19 0 0 0 -50.811-27.55c-13.899-35.64-17.25-69.35-17.3-90.92h3.51l48.95 23.16c.37.3.75.59 1.13.88 1.32 4.38 2.82 8.91 4.53 13.56 5.46 14.81 13.09 30.86 23.729 47.25a318.084 318.084 0 0 1 -5.179 13.95z" fill="#ed1d31"/><path d="m496.44 422.47a349.976 349.976 0 0 1 -17.181 31.94c-3.35-4.66-6.77-9.54-10.17-14.58-10.01-14.81-17.66-30.03-23.46-44.91a99.186 99.186 0 0 1 50.811 27.55z" fill="#ed1d31"/><path d="m481.8 327.64.12.4c-.38-.29-.76-.58-1.13-.88zm-26.3-62.96v24.15c0 2.74-.73 5.3-2 7.52l.77-37.66a15.13 15.13 0 0 1 1.23 5.99zm-23.66 39.32h-3.51v-1.66zm-8-.94v.94h-1.99z" fill="#fff"/><path d="m325.89 330.67c-1.42-35.15 5.58-66.23 10.44-83.15.84-2.93 1.62-5.44 2.28-7.47l.39.13 19.94-18.05c13.26 6.42 24.88 15.91 31.79 22.18 4.23 3.83 6.69 6.47 6.69 6.47l.12 6.02c-1.4 2.3-2.21 5-2.21 7.88v24.15c0 3.44 1.14 6.6 3.07 9.15l.03 1.51s-11.31 14.13-29.03 27.6c-4 3.05-8.34 6.07-12.95 8.88-8.46 5.17-19.32 9.17-29.17 12.09-.72-5.88-1.17-11.69-1.39-17.39z" fill="#ed1d31"/><path d="m397.54 256.8.86 41.18a15.087 15.087 0 0 1 -3.07-9.15v-24.15c0-2.88.81-5.58 2.21-7.88z" fill="#fff"/><g fill="#ed1d31"><path d="m406.95 394.59c-5.85 15.21-13.61 30.79-23.86 45.95-4.32 6.4-8.67 12.55-12.86 18.31l-.04-.029c-6.03-9.7-12.37-20.95-18.42-33.57 14.18-15.581 33.42-26.631 55.18-30.661z"/><path d="m342.38 403.83c-1.23-3.08-2.43-6.23-3.59-9.44 13.83-20.28 22.98-40.16 29.01-57.98.92-2.73 1.77-5.41 2.56-8.04l51.49-24.37h1.99c.02 21.34-3.18 54.95-16.89 90.59-21.76 4.03-41 15.08-55.18 30.66-1.38-2.86-2.74-5.8-4.07-8.8-1.82-4.08-3.6-8.29-5.32-12.62z"/><path d="m370.19 458.82.04.029c-17.66 24.261-32.72 41.67-32.72 41.67l-5.69-41.81c4.32-12.49 11.17-23.84 19.95-33.46a351.617 351.617 0 0 0 18.42 33.571z"/><path d="m301.2 442.95c6.75-7.431 15.6-18 26.31-32.63l19.97 6.23.22-.1c1.33 3 2.69 5.94 4.07 8.8-8.78 9.62-15.63 20.97-19.95 33.46l-.79-5.77-45.41 5.199c0 .001 5.44-4.049 15.58-15.189z"/><path d="m342.38 403.83c1.72 4.33 3.5 8.54 5.32 12.62l-.22.1-19.97-6.23c3.44-4.69 7.07-9.8 10.88-15.35.13-.19.26-.39.4-.58 1.16 3.21 2.36 6.36 3.59 9.44zm-1.67-169.82-2.19-18.71c2.05.47 4.12.97 6.19 1.5 4.85 1.24 9.64 3.1 14.23 5.33l-19.94 18.05-.39-.13c1.27-3.9 2.1-6.04 2.1-6.04z"/><path d="m338.52 215.3 2.19 18.71s-.83 2.14-2.1 6.04c-.66 2.03-1.44 4.54-2.28 7.47l-.02-.01-38.56-35.86.16-2.99c8.54.88 23.98 2.82 40.61 6.64z"/><path d="m336.33 247.52c-4.86 16.92-11.86 48-10.44 83.15l-37.41-34.77-5.77.76c-3.73-20.57-.8-47.54 1.28-61.88 2.25-15.49 7-26.74 7-26.74s2.56.17 6.92.62l-.16 2.99 38.56 35.86z"/><path d="m325.89 330.67c.22 5.7.67 11.51 1.39 17.39-10.91 3.25-20.59 5.17-24.36 5.86l-3.25-3.02c-3.81-9.02-11.44-31.42-15.93-49.41a74.68 74.68 0 0 1 -1.03-4.83l5.77-.76z"/></g><path d="m299.67 350.9 3.25 3.02c-1.09.2-1.69.3-1.69.3-.39-.68-.92-1.81-1.56-3.32z" fill="#fff"/><g fill="none" stroke="#231f20"><g stroke-linecap="round" stroke-linejoin="round"><path d="m123.54 422.31 37.84 14.76s30.65 35.489 78.4 58.449c14.81 7.131 31.27 13.061 48.98 16.341 7.97 1.47 15.78 2.6 23.37 3.43 6.22.7 12.3 1.19 18.19 1.52m-138.71-102.59 12.96 51.36m-51.5-75.45 12.96 51.35m61.28-1.55 12.92 51.35m22.74-36.22 12.94 51.34" stroke-width="14"/><path d="m299.28 464.25 12.85 51.04.07.3m-190.72-51.07 49.75-17.23m-20.94 43.13 49.76-17.25m-8.53 39.07 48.26-16.72 1.51-.52m-6.54 36.84 49.78-17.24m12.83 30.25 28.39-28.08m-206.69 55.75 40.6-1.079s42.02 20.81 94.94 23.439c16.42.82 33.89-.11 51.48-3.96 5.43-1.17 10.72-2.479 15.87-3.89m-143.3-48.38 31.88 42.31m-76.74-49.56 31.87 42.31m55.87-25.23 31.84 42.33m6.9-42.23 31.84 42.31m32.06-47.91 4.96 42.31m-195.6 26.92 39.18-35.19m-2.56 47.88 39.16-35.2" stroke-width="14"/><path d="m216.6 629.02 38-34.14 1.19-1.07m8.27 36.49 39.18-35.2m-68.31 162.42 22.07-34.09s40.93-22.88 73.04-65.029c9.97-13.08 19.08-28.011 25.86-44.69 3.04-7.5 5.72-14.92 8.07-22.19 2.31-7.13 4.3-14.119 6.02-20.899m-129.29 118.598 52.92-2.36m-84.27 35.26 52.9-2.36m10.82-60.33 52.91-2.32m-30.92-29.57 52.9-2.34" stroke-width="14"/><path d="m311.38 593.83 52.59-2.31.3-.01m-88.42 176.52-6.86-52.2m38.03 29.19-6.87-52.2m36.54 16.21-6.65-50.63-.21-1.59m34.77 13.83-6.87-52.23m32.22-6.48-21.8-33.46m13.01 213.68 7.11-39.99s28.85-36.97 42.08-88.28c4.101-15.92 6.71-33.22 6.48-51.22-.061-5.55-.28-11-.62-16.33m-76.23 130.62 47.85-22.7m-63.99 65.19 47.86-22.7m-13.46-59.81 47.87-22.67m-39.97-15.25 47.85-22.68" stroke-width="14"/><path d="m393.51 585.29 42.43 3.66" stroke-width="19.953"/><path d="m422.95 785.96-26.58-45.46m46.37 12.15-26.59-45.45m39.98.78-25.78-44.1-.81-1.38m37.4-.75-26.59-45.46m-113.07-268.23c.81 6.64 1.96 13.36 3.52 20.1a174.18 174.18 0 0 0 3.65 13.43c1.38 4.36 2.83 8.63 4.34 12.8m-2.81-200.72 2.54 21.63m39.73-10.66-19.31 17.49" stroke-width="14"/><path d="m367.8 336.41-34.56 31.27m-30.32-13.76 27.13 25.21m-38.59-35.86 8.21 7.63" stroke-width="19.953"/><path d="m309.36 404.66 18.15 5.66m-126.27-150.11 20.01 35.34s1.35 46.87 23.86 94.84c6.98 14.88 16 29.87 27.65 43.6 3.59 4.24 7.23 8.3 10.89 12.18m-24.53-149.23-22.4 48m7.74-91.03-22.4 48m48.5 37.5-22.43 47.98m40.52-13.73-22.41 47.98" stroke-width="14"/><path d="m301.2 442.95-12.64 8.74" stroke-width="19.953"/><path d="m172.98 291.62 49.47 18.08m-43.48 20.2 49.46 18.07m-31.3 24.89 47.98 17.53 1.5.55m-28.34 24.42 49.47 18.08m456.1-12.16-37.84 14.75s-30.65 35.489-78.4 58.46c-14.81 7.12-31.27 13.05-48.979 16.33-7.96 1.47-15.771 2.6-23.36 3.43-4.899.56-9.7.98-14.399 1.28m134.908-102.35-12.96 51.36m51.5-75.45-12.96 51.35m-61.28-1.55-12.92 51.36m-22.75-36.23-12.93 51.35" stroke-width="14"/><path d="m548.1 463.21-12.84 51.04-.08.31m190.72-51.08-49.75-17.23m20.93 43.13-49.75-17.25m8.52 39.07-48.25-16.71-1.52-.53m6.54 36.84-49.77-17.24m-12.83 30.25-28.39-28.08m206.69 55.75-40.601-1.08s-42.02 20.81-94.939 23.439c-16.42.82-33.891-.109-51.48-3.96a295.962 295.962 0 0 1 -15.87-3.89m143.29-48.379-31.87 42.31m76.74-49.56-31.87 42.31m-55.87-25.23-31.84 42.33m-6.9-42.23-31.84 42.31m-32.06-47.91-4.96 42.31m195.59 26.92-39.17-35.19m2.57 47.88-39.17-35.2" stroke-width="14"/><path d="m630.78 627.98-38-34.14-1.19-1.07m-8.27 36.49-39.18-35.2m68.32 162.42-22.08-34.091s-40.939-22.88-73.04-65.029c-9.97-13.08-19.08-28.011-25.859-44.69-3.04-7.5-5.721-14.92-8.07-22.189-2-6.16-3.75-12.211-5.3-18.11m128.559 115.809-52.91-2.36m84.27 35.26-52.91-2.36m-10.8-60.33-52.92-2.32m30.92-29.57-52.9-2.34" stroke-width="14"/><path d="m536 592.79-52.59-2.31-.3-.01m88.42 176.53 6.85-52.21m-38.02 29.2 6.87-52.21m-36.54 16.22 6.65-50.64.21-1.59m-34.77 13.83 6.87-52.23m-32.22-6.48 21.79-33.46m40.76-229.45a192.851 192.851 0 0 1 -3.4 19.14 174.18 174.18 0 0 1 -3.651 13.43c-.89 2.81-1.8 5.58-2.75 8.3m1.221-196.22-2.94 25.17m-39.34-14.2 22.58 20.44" stroke-width="14"/><path d="m486.45 341.6 27.69 25.04m29-12.54-25.81 23.99" stroke-width="19.953"/><path d="m538.02 403.62-14.44 4.5m122.56-148.95-20.01 35.34s-1.35 46.87-23.86 94.84c-6.979 14.88-16.01 29.87-27.659 43.6-3.591 4.24-7.221 8.3-10.88 12.18m24.529-149.23 22.4 48m-7.74-91.03 22.4 48.01m-48.5 37.49 22.43 47.98m-40.52-13.73 22.41 47.98m93.26-130.02-49.47 18.08m43.49 20.2-49.47 18.07" stroke-width="14"/><path d="m650.25 371.82-47.98 17.53-1.51.55m28.34 24.42-49.46 18.08" stroke-width="14"/></g><path d="m406.95 394.59c5.98-1.12 12.15-1.7 18.46-1.7 6.93 0 13.689.7 20.22 2.03m74.27 66.46a95.717 95.717 0 0 1 4.39 28.72 95.3 95.3 0 0 1 -3.43 25.431c-6.53 23.81-22.051 44-42.75 56.84-15.261 9.46-33.33 14.939-52.7 14.939-20.54 0-39.61-6.159-55.42-16.689-18.97-12.65-33.23-31.61-39.67-53.811a95.765 95.765 0 0 1 -3.78-26.71c0-10.979 1.85-21.54 5.28-31.39" stroke-width="21"/><path d="m370.36 328.37c-.79 2.63-1.64 5.31-2.56 8.04-6.03 17.82-15.18 37.7-29.01 57.98-.14.19-.27.39-.4.58-3.81 5.55-7.44 10.66-10.88 15.35-10.71 14.63-19.56 25.2-26.31 32.63-10.14 11.14-15.58 15.189-15.58 15.189l45.41-5.199.79 5.77 5.69 41.81s15.06-17.409 32.72-41.67c4.19-5.76 8.54-11.909 12.86-18.31 10.25-15.16 18.01-30.74 23.86-45.95 13.71-35.64 16.91-69.25 16.89-90.59v-.94m58.08 24.98c1.32 4.38 2.82 8.91 4.53 13.56 5.46 14.81 13.09 30.86 23.729 47.25 1.16 1.8 2.37 3.6 3.61 5.41 3.42 4.97 6.68 9.59 9.79 13.86 27.46 37.729 42.97 49.3 42.97 49.3l-45.399-5.189-1.25 9.149-5.25 38.41s-16.601-19.21-35.391-45.38c-3.35-4.66-6.77-9.54-10.17-14.58-10.01-14.81-17.66-30.03-23.46-44.91-13.899-35.64-17.25-69.35-17.3-90.92v-1.66m-30.909-51.56s-2.46-2.64-6.69-6.47c-6.91-6.27-18.53-15.76-31.79-22.18-4.59-2.23-9.38-4.09-14.23-5.33-2.07-.53-4.14-1.03-6.19-1.5-16.63-3.82-32.07-5.76-40.61-6.64-4.36-.45-6.92-.62-6.92-.62s-4.75 11.25-7 26.74c-2.08 14.34-5.01 41.31-1.28 61.88.3 1.66.64 3.27 1.03 4.83 4.49 17.99 12.12 40.39 15.93 49.41.64 1.51 1.17 2.64 1.56 3.32 0 0 .6-.1 1.69-.3 3.77-.69 13.45-2.61 24.36-5.86 9.85-2.92 20.71-6.92 29.17-12.09 4.61-2.81 8.95-5.83 12.95-8.88 17.72-13.47 29.03-27.6 29.03-27.6m-56.98-15.49s25.49 6.51 53.73-9.75" stroke-width="21"/><path d="m454.4 252.11s2.22-2.38 6.069-5.91c6.62-6.07 18.05-15.55 31.23-22.16 4.95-2.49 10.14-4.57 15.42-5.91.45-.11.89-.23 1.34-.33 15.9-3.97 31.24-6.18 41.16-7.34 6.93-.8 11.21-1.09 11.21-1.09s4.75 11.26 7.01 26.74c2.24 15.51 5.49 45.73.25 66.72-3.27 13.08-8.2 28.51-12.12 39.42-2.35 6.58-4.35 11.52-5.38 13.3 0 0-2.87-.47-7.45-1.45-5.779-1.22-14.279-3.25-23.159-6.12-8.54-2.76-17.431-6.31-24.601-10.68-4.8-2.93-9.31-6.08-13.46-9.26-.38-.29-.76-.58-1.13-.88-16.78-13.08-27.38-26.34-27.38-26.34m56.951-15.48s-25.48 6.5-53.71-9.74" stroke-width="21"/><path d="m454.27 258.69a15.13 15.13 0 0 1 1.23 5.99v24.15c0 2.74-.73 5.3-2 7.52-2.61 4.57-7.53 7.65-13.17 7.65h-29.84c-4.94 0-9.33-2.36-12.09-6.02a15.087 15.087 0 0 1 -3.07-9.15v-24.15c0-2.88.81-5.58 2.21-7.88 2.41-3.95 6.57-6.71 11.4-7.2.51-.05 1.03-.08 1.55-.08h29.84c.57 0 1.12.03 1.67.09 5.52.61 10.15 4.17 12.27 9.08zm-61.49-14.55v-173.58c0-6.91 5.59-12.51 12.49-12.51h40.27c6.9 0 12.5 5.6 12.5 12.51v173.58" stroke-width="21"/><path d="m408.85 56.61v189.95m33.25-187.76v189.96" stroke-width="6.651"/></g><path d="m0 0h850.394v850.394h-850.394z" fill="none"/></svg>