<svg height="850.394" viewBox="0 0 850.394 850.394" width="850.394" xmlns="http://www.w3.org/2000/svg"><path d="m699.89 327.99c23.99 122.49 15.25 242.31 4.11 274.01l-4.61 3.18a91.137 91.137 0 0 0 -15.77-1.37c-16.23 0-31.44 4.28-44.55 11.75l-.86-1.47s-17.979-115.64-26.55-166.18c-7.59-44.75-32.83-47.81-38.521-47.92-1.06 13.03-2.72 25.24-5.17 35.649l-.02.011c-13.13-20.78-35.95-36.621-72.79-33.99-83.94 5.99-197.01 18.84-242.41.85-36.22-14.35-72.08-29.61-104.24-22.58l-.509-1.93s40.79-186.49 150.43-257.59c88.31-57.27 141.91-63.96 201.02-33.98 59.1 29.98 176.46 119.07 200.44 241.56z" fill="#ed1d31"/><g fill="#fff"><path d="m84.86 467.63c.29.351 9.88 11.53 57.1 19.4zm39.97-77.68c7.62-5.02 15.53-8.24 23.68-10.02 32.16-7.03 68.02 8.23 104.24 22.58 45.4 17.99 158.47 5.14 242.41-.85 36.84-2.63 59.66 13.21 72.79 33.99 16.81 26.569 17.79 61.229 12.02 75.649-2.26 5.641-2.7 10.78-2.02 15.63l-96.78-4.489s71.49 8.79 96.82 4.8c2.56 17.1 18.92 30.55 18.25 49.16-.851 23.989-126.771 30.84-219.29 29.979-92.51-.85-197.87-14.56-258.69-35.12-60.82-20.55-46.32-66.439-41.4-97.939 5.71-36.54 10.28-58.53 47.97-83.37zm574.56 215.23c41.681 7.34 73.311 43.24 73.311 86.44 0 48.49-39.88 87.8-89.08 87.8-49.21 0-89.09-39.31-89.09-87.8 0-32.5 17.91-60.88 44.54-76.061 13.109-7.47 28.319-11.75 44.55-11.75a91.134 91.134 0 0 1 15.769 1.371z"/><path d="m577.95 526.93 1.439.07c-.449.09-.909.17-1.399.24-.01-.1-.03-.2-.04-.31z"/><path d="m577.95 526.93c.01.11.03.21.04.311-25.33 3.99-96.82-4.8-96.82-4.8zm-493.09-59.3 57.1 19.4c-47.22-7.87-56.81-19.05-57.1-19.4z"/></g><g fill="none" stroke="#231f20" stroke-width="21"><path d="m148 378s40.79-186.49 150.43-257.59c88.31-57.27 141.91-63.96 201.02-33.98 59.1 29.98 176.46 119.07 200.439 241.56 23.991 122.49 15.251 242.31 4.111 274.01"/><path d="m570.54 262.89s7.51 77.23 2.6 137.1c-1.06 13.03-2.72 25.24-5.17 35.649"/><path d="m572 400s.41-.03 1.14-.01c5.69.11 30.931 3.17 38.521 47.92 8.57 50.54 26.55 166.18 26.55 166.18m-60.261-87.16c-.681-4.85-.24-9.989 2.02-15.63 5.771-14.42 4.79-49.08-12.02-75.649-13.13-20.78-35.95-36.621-72.79-33.99-83.94 5.99-197.01 18.84-242.41.85-36.22-14.35-72.08-29.61-104.24-22.58-8.15 1.78-16.06 5-23.68 10.02-37.69 24.84-42.26 46.83-47.97 83.37-4.92 31.5-19.42 77.39 41.4 97.939 60.82 20.561 166.18 34.271 258.69 35.12 92.52.86 218.439-5.99 219.29-29.979.67-18.61-15.69-32.061-18.25-49.16m121.4 77.939c41.681 7.34 73.311 43.24 73.311 86.44 0 48.49-39.88 87.8-89.08 87.8-49.21 0-89.09-39.31-89.09-87.8 0-32.5 17.91-60.88 44.54-76.061 13.109-7.47 28.319-11.75 44.55-11.75a91.134 91.134 0 0 1 15.769 1.371z"/><path d="m481.17 522.44s71.49 8.79 96.82 4.8c.49-.07.95-.15 1.399-.24m-494.529-59.37c.29.351 9.88 11.53 57.1 19.4m-57.1-19.4-.01-.01" stroke-linecap="round" stroke-linejoin="round"/></g><path d="m0 0h850.394v850.394h-850.394z" fill="none"/></svg>