<svg height="850.394" viewBox="0 0 850.394 850.394" width="850.394" xmlns="http://www.w3.org/2000/svg"><path d="m428.62 350.98c59.14 0 107.07 47.94 107.07 107.08 0 59.131-47.931 107.061-107.07 107.061-59.14 0-107.07-47.93-107.07-107.061 0-59.14 47.93-107.08 107.07-107.08z" fill="#fbed24"/><path d="m780.31 772.64h-699.62m455-314.58c0 59.131-47.931 107.061-107.07 107.061-59.14 0-107.07-47.93-107.07-107.061 0-59.14 47.93-107.08 107.07-107.08s107.07 47.94 107.07 107.08zm-107.91-126.57v-81.46m-64.97 97.31-45-67.9m-1.65 117.95-73.79-34.48m252.7-16.86 44.99-67.91m1.64 117.95 73.81-34.48m-123.12 208.05 45.01 67.9m1.64-117.96 73.8 34.49m-252.7 16.87-45 67.9m-1.64-117.95-73.81 34.48m61.31-96.07h-81.45m416.88 0h-81.45m-127.2 205.08v-81.46" fill="none" stroke="#231f20" stroke-width="21"/><path d="m0 0h850.394v850.394h-850.394z" fill="none"/><path d="m687.868 182.466h-12.967s-9.217-.738 1.713-12.967c6.827-7.646 14.506-16.505 19.583-22.398 3.419-3.972 5.652-6.59 5.652-6.59s7.165-6.14-1.706-6.14c-1.229 0-3.695-.117-3.695-.117h-5.372s-8.496-.055 3.75-12.963c12.09-12.741 28.313-31.037 19.444-31.037-.371 0-3.571-.076-3.571-.076h-8.871s-9.217-.731 1.709-12.963c6.827-7.642 20.608-22.903 25.687-28.799 0 0 1.451-2.044 3.666-2.215l1.527.044c1.885.127 3.671 2.219 3.671 2.219 5.073 5.892 18.858 21.15 25.689 28.796 10.923 12.232 1.698 12.963 1.698 12.963h-8.863s-3.205.077-3.572.077c-8.867 0 7.413 16.917 19.441 31.036 10.377 12.181 3.753 12.963 3.753 12.963h-5.372s-2.47.116-3.695.116c-8.867 0-1.706 6.14-1.706 6.14s2.237 2.623 5.652 6.587c5.078 5.896 12.756 14.756 19.59 22.402 10.919 12.235 1.702 12.967 1.702 12.967h-16.625v.014c-8.864 0-1.961 6.292-1.961 6.292s13.811 16.204 25.235 28.992c10.926 12.229 1.709 12.959 1.709 12.959h-12.966l-33.587-.014-40.937-.015-33.765-.015h-12.956s-9.224-.731 1.703-12.959c11.428-12.789 25.424-29.178 25.424-29.178s7.161-6.144-1.702-6.144l-.019.022h-4.09z" fill="#33a048"/><path d="m754.211 232.878v20.47c0 3.386-2.753 6.132-6.143 6.132h-28.65c-3.394 0-6.144-2.746-6.144-6.132v-22.609l40.937.015zm-119.461-75.189c2.754 1.029 7.191.306 9.428-1.328-1.313 3.659-4.524 12.476-7.648 14.935-1.459-7.653-2.562-13.126-2.562-13.126z" fill="#ed1d31"/><path d="m636.529 171.296c1.774 9.275 4.077 21.744 5.59 31.539l-.477.073c-7.173 3.59-21.271 4.43-21.271 4.43.681-12.749 1.248-41.548 1.331-45.917a6.71 6.71 0 0 0 .368-1.35l.239.044s8.657-.24 10.868-3.037l.495.047c.316.226.68.411 1.076.563l-.782.48c.002.001 1.104 5.475 2.563 13.128zm13.581-44.811c.677 3.077.429 7.082-.222 11.123l-.375-.062c-2.244-5.383-15.243-3.885-15.243-3.885l-.844.08c-.873-9.119-4.089-22.351-4.089-22.351l-1.127-1.677a6.328 6.328 0 0 0 6.328-6.329c.001.001 13.63 14.285 15.572 23.101z" fill="#ed1d31"/><path d="m634.539 103.385a6.328 6.328 0 0 1 -12.573 1.026c.313-1.179.498-2.444.542-3.765v-.003a6.328 6.328 0 0 1 12.031 2.742z" fill="#fff"/><path d="m632.477 142.475s1.641 9.566 1.197 13.454a2.275 2.275 0 0 1 -.495 1.149c-2.211 2.797-10.868 3.037-10.868 3.037l-.239-.044a7.11 7.11 0 0 0 .094-1.156v-8.366c0-1.819-.69-3.477-1.825-4.725l.927-.059c.645-.113 1.357-.186 2.11-.262 3.015-.294 6.648-.571 9.006-3.113z" fill="#231f20"/><path d="m649.889 137.608c-1.219 7.533-3.826 15.178-4.412 17.121-.182.607-.644 1.157-1.295 1.629l-.004.003c-2.236 1.633-6.674 2.357-9.428 1.328a4.89 4.89 0 0 1 -1.076-.563l-.495-.047c.27-.342.444-.724.495-1.149.443-3.888-1.197-13.454-1.197-13.454l-.094-.083c.188-.208.37-.426.542-.662.832-1.139.869-4.208.502-7.987l.844-.08s12.999-1.499 15.243 3.885z" fill="#fff"/><path d="m632.925 141.729a7.94 7.94 0 0 1 -.542.662c-2.357 2.542-5.991 2.819-9.006 3.113l-.168-1.68c0-6.878-4.782-33.928-4.782-33.928l-1.921-.291c2.364-.742 4.066-1.68 4.612-2.848.342-.731.625-1.517.848-2.346a6.329 6.329 0 0 0 6.245 5.303l1.127 1.677s3.216 13.232 4.089 22.351c.367 3.779.33 6.848-.502 7.987z" fill="#ed1d31"/><path d="m644.542 294.492c.673 2.379 3.179 5.634-1.75 7.271-4.929 1.648-14.142 1.211-18.731-1.029-4.587-2.255-6.973 1.862-17.645-.833-1.222-.309-.138-7.049.299-12.974.433-5.932-1.852-13.865-2.339-20.143-.371-4.765-.295-9.512-.233-11.53 3.539.619 11.72 1.099 17.681-.465l1.735.062s-.829 27.658 4.237 33.07c5.063 5.4 16.076 4.193 16.746 6.571z" fill="#231f20"/><path d="m621.703 161.421a7.02 7.02 0 0 1 -6.564 4.518 7.004 7.004 0 0 1 -4.965-2.055 6.998 6.998 0 0 1 -2.058-4.968v-8.366a7.028 7.028 0 0 1 7.024-7.028 6.998 6.998 0 0 1 5.201 2.303 6.998 6.998 0 0 1 1.825 4.725v8.366c0 .393-.032.782-.094 1.156-.078.465-.201.92-.369 1.349zm.179-58.036c0 .349.029.691.084 1.026a14.307 14.307 0 0 1 -.848 2.346c-.546 1.168-2.248 2.106-4.612 2.848-3.946 1.237-9.748 1.917-15.149 2.175-4.368.207-8.471.142-11.126-.138-10.078-1.055-21.551-13.582-19.965-23.409.059-.371.139-.739.236-1.103 2.223-8.22 7.497-15.018 8.938-19.663l.429.138c1.695 2.288 12.108 7.809 17.837 7.365a6.975 6.975 0 0 0 2.961-.866c.734-.4 1.415-.88 2.139-1.258a6.199 6.199 0 0 1 1.029-.44c1.433-.451 3.095-.735 4.634-.524 1.673.229 4.176 1.695 5.313 2.51l.263-.062c1.105 4.62 2.913 10.93 5.179 14.593 2.419 3.899 3.408 8.031 3.285 11.719v.003a6.225 6.225 0 0 0 -.627 2.74zm20.237 99.449c1.131 7.325 1.822 13.152 1.517 15.021-.593 3.652-6.157 5.307-12.988 6.274-3.444.487-7.213.8-10.828 1.109l-.047-.564s-.149-3.437.6-17.338c0 0 14.098-.84 21.271-4.43z" fill="#fff"/><path d="m605.238 63.743c1.188 0 2.156.953 2.156 2.128s-.968 2.131-2.156 2.131c-1.193 0-2.161-.957-2.161-2.131s.968-2.128 2.161-2.128z" fill="#9e5c26"/><path d="m604.143 255.254c-.45-.08-.825-.16-1.112-.24-2.575-.713-1.586-25.948-1.499-28.098a585.206 585.206 0 0 0 13.011-1.2c1.681-.171 3.459-.324 5.277-.477 3.615-.309 7.384-.622 10.828-1.109l.036.244s-1.047 10.916-3.139 20.925c-2.092 10.01-4.484 9.122-4.484 9.122-.4.135-.815.255-1.237.368-5.962 1.564-14.142 1.084-17.681.465z" fill="#ed1d31"/><path d="m605.238 63.743c-1.193 0-2.161.953-2.161 2.128s.968 2.131 2.161 2.131c1.188 0 2.156-.957 2.156-2.131s-.967-2.128-2.156-2.128zm5.877 3.063c.426 1.186.818 1.699 1.164 1.699l.531.095s.44 2.437 1.233 5.732l-.263.062c-1.138-.815-3.641-2.281-5.313-2.51-1.539-.211-3.201.073-4.634.524-.36.113-.698.266-1.029.44l-.259-.56c-.861-2.51-1.895-6.078 0-9.766l.124-.953c4.177.527 7.225 1.814 8.446 5.237z" fill="#ffeec8"/><path d="m565.425 135.353c-14.749 3.786-18.438 9.566-19.83 12.159l-.742.098c-2.47-6.303-4.841-12.694-5.933-16.142-2.593-8.169-1.793-13.25 2.889-17.935 4.648-4.645 27.632-24.984 27.992-25.3h.465c-1.586 9.828 9.887 22.354 19.965 23.409 2.655.28 6.758.345 11.126.138v.003l.033.655s2.368 26.806 2.815 35.321l.018.822c-13.566.378-26.354-3.048-28.286-3.59-1.95-2.07-6.11-5.06-8.62-7.646-.546-.56-1.052-1.346-1.517-2.27z" fill="#ed1d31"/><path d="m621.267 145.766-.927.059a6.994 6.994 0 0 0 -5.201-2.303 7.03 7.03 0 0 0 -6.802 5.271l-1.419-.334c-.898.058-1.8.102-2.695.124l-.018-.822c-.447-8.515-2.815-35.321-2.815-35.321l-.033-.655v-.003c5.401-.258 11.203-.938 15.149-2.175l1.921.291s4.782 27.05 4.782 33.928l.168 1.68c-.753.075-1.466.147-2.11.26zm-1.448 79.474c-1.818.153-3.597.306-5.277.477a579.144 579.144 0 0 1 -14.528 1.32l-.019-.215s1.204-8.515 1.921-17.928c.276-3.564.477-7.264.521-10.672.148-12.406.745-34.67.745-34.67l-.007-.713a48.69 48.69 0 0 0 4.343-.186l1.287-.695a7.075 7.075 0 0 0 1.368 1.924 6.998 6.998 0 0 0 4.965 2.055 7.02 7.02 0 0 0 6.564-4.518c-.083 4.368-.65 33.168-1.331 45.917-.749 13.901-.6 17.338-.6 17.338z" fill="#fff"/><path d="m599.601 227.069c-15.575 1.189-36.137 1.979-39.486-1.913a1.878 1.878 0 0 1 -.422-.782c-1.004-4.019-.945-10.104-.582-17.095l.233.011c.45-.149 26.107 5.979 42.442 1.593l.131.011a316.244 316.244 0 0 1 -1.921 17.928l.019.215z" fill="#fff"/><path d="m595.745 66.1c0 1.175-.968 2.131-2.161 2.131-1.189 0-2.153-.957-2.153-2.131s.964-2.128 2.153-2.128c1.193 0 2.161.953 2.161 2.128z" fill="#9e5c26"/><path d="m598.861 303.542c0 5.157-.313 3.91-5.786 4.375-5.471.473-9.064-1.721-13.597-5.783-4.539-4.063-7.663.465-5.786-13.443 1.24-9.184-1.092-13.287-3.438-22.983-1.593-6.583-2.586-10.33-3.059-12.054 5.841.72 14.804 1.466 20.838 1.007-.04 2.248-.517 29.836.981 34.179 1.562 4.532 9.847 10.254 9.847 14.702z" fill="#231f20"/><path d="m625.505 68.101c.152 15.615-2.376 20.59 2.706 28.959a6.322 6.322 0 0 0 -5.703 3.583c.123-3.688-.866-7.82-3.285-11.719-2.266-3.663-4.073-9.973-5.179-14.593-.793-3.295-1.233-5.732-1.233-5.732l-.531-.095c1.288 0 1.924-6.987 1.044-12.498-1.495-9.366-13.923-11.119-29.767-7.431l-.236-.204c5.357-6.096 15.276-12.01 21.957-10.159 11.156 3.086 20.023 9.466 20.227 29.889z" fill="#ed1d31"/><path d="m595.745 66.1c0-1.175-.968-2.128-2.161-2.128-1.189 0-2.153.953-2.153 2.128s.964 2.131 2.153 2.131c1.193 0 2.161-.956 2.161-2.131zm6.801-3.579c-1.895 3.688-.861 7.256 0 9.766l.259.56c-.724.378-1.404.858-2.139 1.258a6.99 6.99 0 0 1 -2.961.866c-5.729.444-16.142-5.078-17.837-7.365l-.429-.138c.269-.88.407-1.68.359-2.4.957 1.68 2.36 1.542 2.36 1.542s4.277-5.648 11.461-5.481c3.347.077 6.42.109 9.05.44z" fill="#ffeec8"/><path d="m613.323 56.007c.88 5.51.244 12.498-1.044 12.498-.346 0-.738-.513-1.164-1.699-1.222-3.422-4.27-4.71-8.445-5.237-2.63-.331-5.703-.364-9.05-.44-7.184-.167-11.461 5.481-11.461 5.481s-1.403.138-2.36-1.542c-.003-.004-.003-.007-.003-.007-.858-1.517-1.354-4.51-.128-10.41.393-1.884 1.728-4.092 3.652-6.278l.236.204c15.844-3.689 28.272-1.936 29.767 7.43z" fill="#fff"/><path d="m575.937 144.992c1.932.542 14.72 3.968 28.286 3.59a65.811 65.811 0 0 0 2.695-.124l1.419.334a6.98 6.98 0 0 0 -.222 1.757v8.366c0 1.091.247 2.124.69 3.044l-1.287.695a49.07 49.07 0 0 1 -4.343.186c-10.643.044-21.682-2.786-25.101-3.575l-.008.003c-1.916-4.528-4.925-9.169-4.925-9.169l-1.454-.138c2.913-1.375 5.113-2.477 5.292-3.048.139-.448-.283-1.114-1.042-1.921z" fill="#231f20"/><path d="m562.988 163.425c-1.735-3.753-2.994-7.198-2.994-7.198l-.477-.062c3.347-2.157 8.366-4.416 12.171-6.205l1.454.138s3.009 4.641 4.925 9.169c1.044 2.462 1.765 4.896 1.503 6.529-.75 4.63-6.129 8.067-10.018 7.02-1.877-.509-4.183-4.419-6.056-8.311zm-1.353 89.348c-2.444-.68-1.681-23.504-1.521-27.617 3.35 3.892 23.911 3.103 39.486 1.913.072 17.444-7.177 26.85-7.177 26.85-1.113.371-2.626.607-4.39.742-6.034.458-14.997-.287-20.838-1.007-2.77-.346-4.837-.68-5.56-.881z" fill="#ed1d31"/><path d="m601.786 208.883c-16.335 4.386-41.992-1.743-42.442-1.593l-.233-.011c.233-4.448.593-9.26.884-14.141.746-12.549 2.986-28.24 2.986-28.24l.517-.393c1.873 3.892 4.179 7.802 6.056 8.311 3.889 1.047 9.268-2.39 10.018-7.02.262-1.633-.459-4.066-1.503-6.529l.008-.003c3.419.789 14.458 3.619 25.101 3.575l.007.713s-.597 22.264-.745 34.67c-.044 3.408-.244 7.107-.521 10.672z" fill="#ed1d31"/><path d="m562.934 163.451c-2.296 2.295-9.068 2.695-10.363 1.793-.102-.069-.254-.284-.45-.625l.745-.069s.105-1.797 3.79-6.082c.633-.734 1.637-1.513 2.862-2.302l.477.062s1.259 3.444 2.994 7.198z" fill="#fff"/><path d="m556.655 158.467c-3.685 4.285-3.79 6.082-3.79 6.082l-.745.069c-1.263-2.19-4.336-9.537-7.268-17.008l.742-.098c1.393-2.593 5.081-8.373 19.83-12.159l.375-.276c.465.924.971 1.709 1.517 2.27 2.51 2.586 6.67 5.576 8.62 7.646.76.807 1.182 1.473 1.044 1.92-.179.571-2.379 1.673-5.292 3.048-3.805 1.79-8.824 4.048-12.171 6.205-1.225.789-2.229 1.567-2.862 2.301z" fill="#fff"/><g fill="none" stroke="#231f20"><path d="m754.211 232.878v20.47c0 3.386-2.753 6.132-6.143 6.132h-28.65c-3.394 0-6.144-2.746-6.144-6.132v-20.47m62.506-50.354c-8.864 0-1.961 6.292-1.961 6.292s13.811 16.204 25.235 28.992c10.926 12.229 1.709 12.959 1.709 12.959h-12.966l-33.587-.014-40.937-.015-33.765-.015h-12.956s-9.224-.731 1.703-12.959c11.428-12.789 25.424-29.178 25.424-29.178s7.161-6.144-1.702-6.144l-.019.022h-17.059s-9.217-.738 1.713-12.967c6.827-7.646 14.506-16.505 19.583-22.398" stroke-width="7.638"/><path d="m775.005 182.51h17.4s9.217-.731-1.702-12.967c-6.834-7.646-14.512-16.506-19.59-22.402" stroke-width="7.638"/><path d="m771.113 147.141c-3.415-3.964-5.652-6.587-5.652-6.587s-7.161-6.14 1.706-6.14c1.226 0 3.695-.116 3.695-.116h5.372s6.624-.782-3.753-12.963c-12.028-14.12-28.309-31.036-19.441-31.036.367 0 3.572-.077 3.572-.077h8.863s9.225-.731-1.698-12.963c-6.831-7.646-20.616-22.904-25.689-28.796 0 0-1.786-2.091-3.671-2.219l-1.527-.044c-2.215.171-3.666 2.215-3.666 2.215-5.078 5.896-18.859 21.158-25.687 28.799-10.926 12.232-1.709 12.963-1.709 12.963h8.871s3.2.076 3.571.076c8.868 0-7.354 18.295-19.444 31.037-12.246 12.908-3.75 12.963-3.75 12.963h5.372s2.466.117 3.695.117c8.871 0 1.706 6.14 1.706 6.14s-2.233 2.619-5.652 6.59" stroke-width="7.638"/><g stroke-width="5.092"><path d="m623.559 254.85s-.829 27.658 4.237 33.07c5.063 5.401 16.076 4.194 16.746 6.572.673 2.379 3.179 5.634-1.75 7.271-4.929 1.648-14.142 1.211-18.731-1.029-4.587-2.255-6.973 1.862-17.645-.833-1.222-.309-.138-7.049.299-12.974.433-5.932-1.852-13.865-2.339-20.143-.371-4.765-.295-9.512-.233-11.53.019-.644.037-1.007.037-1.007m-16.143.269s0 .051-.003.146c-.04 2.248-.517 29.836.981 34.179 1.561 4.532 9.846 10.253 9.846 14.702 0 5.157-.313 3.91-5.786 4.375-5.471.473-9.064-1.721-13.597-5.783-4.539-4.063-7.663.465-5.786-13.443 1.24-9.184-1.092-13.287-3.438-22.983-1.593-6.583-2.586-10.33-3.059-12.054a55.852 55.852 0 0 0 -.331-1.179m12.935-187.409c.957 1.68 2.36 1.542 2.36 1.542s4.277-5.648 11.461-5.481c3.347.077 6.42.109 9.05.44 4.176.527 7.224 1.815 8.445 5.237.426 1.186.818 1.699 1.164 1.699 1.288 0 1.924-6.987 1.044-12.498-1.495-9.366-13.923-11.119-29.767-7.431"/><path d="m628.211 97.06c-5.082-8.369-2.554-13.345-2.706-28.959-.204-20.423-9.071-26.803-20.228-29.887-6.681-1.851-16.6 4.063-21.957 10.159-1.925 2.186-3.26 4.394-3.652 6.278-1.226 5.899-.73 8.893.128 10.41"/><path d="m622.508 100.646a16.89 16.89 0 0 1 -.542 3.765 14.307 14.307 0 0 1 -.848 2.346c-.546 1.168-2.248 2.106-4.612 2.848-3.946 1.237-9.748 1.917-15.149 2.175-4.368.207-8.471.142-11.126-.138-10.078-1.055-21.551-13.582-19.965-23.409.059-.371.139-.739.236-1.103 2.223-8.22 7.497-15.018 8.938-19.663.269-.88.407-1.68.359-2.4-.003-.004-.003-.007-.003-.007a2.85 2.85 0 0 0 -.026-.248m33.041 3.787s.44 2.437 1.233 5.732c1.105 4.62 2.913 10.93 5.179 14.593 2.419 3.899 3.408 8.031 3.285 11.719"/><path d="m634.539 103.385a6.328 6.328 0 1 1 -12.657 0c0-.982.222-1.91.626-2.739v-.003a6.328 6.328 0 0 1 12.031 2.742zm-54.671-35.779c1.695 2.288 12.108 7.809 17.837 7.365a6.975 6.975 0 0 0 2.961-.866c.734-.4 1.415-.88 2.139-1.258a6.199 6.199 0 0 1 1.029-.44c1.433-.451 3.095-.735 4.634-.524 1.673.229 4.176 1.695 5.313 2.51m-43.977 13.836-.003.004c-.36.316-23.344 20.656-27.992 25.3-4.682 4.685-5.481 9.766-2.889 17.935 1.092 3.448 3.463 9.839 5.933 16.142 2.932 7.471 6.005 14.818 7.268 17.008.196.342.349.556.45.625 1.295.902 8.067.502 10.363-1.793"/><path d="m561.937 121.008s1.346 9.082 3.863 14.069c.465.924.971 1.709 1.517 2.27 2.51 2.586 6.67 5.576 8.62 7.646.76.807 1.182 1.473 1.044 1.92-.179.571-2.379 1.673-5.292 3.048-3.805 1.79-8.824 4.048-12.171 6.205-1.226.79-2.229 1.568-2.862 2.302-3.685 4.285-3.79 6.082-3.79 6.082m-7.271-17.038c1.393-2.593 5.081-8.373 19.83-12.159m35.965-22.915s2.368 26.806 2.815 35.321m14.222-37.863s4.782 27.05 4.782 33.928m20.969 12.537c-2.236 1.633-6.674 2.357-9.428 1.328a4.89 4.89 0 0 1 -1.076-.563m.865-53.741s13.629 14.284 15.571 23.1c.677 3.077.429 7.082-.222 11.123-1.219 7.533-3.826 15.178-4.412 17.121-.182.607-.644 1.157-1.295 1.629"/><path d="m629.338 111.391s3.216 13.232 4.089 22.351c.367 3.779.33 6.849-.502 7.987a7.94 7.94 0 0 1 -.542.662c-2.357 2.542-5.991 2.819-9.006 3.113-.753.076-1.466.149-2.11.262m-45.581-.847.251.073c1.932.542 14.72 3.968 28.286 3.59a65.811 65.811 0 0 0 2.695-.124m27.353-14.796s12.999-1.499 15.243 3.885m-29.174 8.278a6.998 6.998 0 0 1 1.825 4.725v8.366c0 .393-.032.782-.094 1.156-.077.466-.2.92-.368 1.35a7.02 7.02 0 0 1 -6.564 4.518 7.004 7.004 0 0 1 -4.965-2.055 6.998 6.998 0 0 1 -2.058-4.968v-8.366a7.028 7.028 0 0 1 7.024-7.028 6.998 6.998 0 0 1 5.2 2.302zm-42.265 13.439c3.419.789 14.458 3.619 25.101 3.575a48.69 48.69 0 0 0 4.343-.186m14.792-2.538s8.657-.24 10.868-3.037c.27-.342.444-.724.495-1.149.443-3.888-1.197-13.454-1.197-13.454"/><path d="m633.968 158.169s1.103 5.474 2.562 13.126c1.774 9.275 4.077 21.744 5.59 31.539 1.131 7.325 1.822 13.152 1.517 15.021-.593 3.652-6.157 5.307-12.988 6.274-3.444.487-7.213.8-10.828 1.109-1.818.153-3.597.306-5.277.477a579.144 579.144 0 0 1 -14.528 1.32l-.414.033c-15.575 1.189-36.137 1.979-39.486-1.913a1.878 1.878 0 0 1 -.422-.782c-1.004-4.019-.945-10.104-.582-17.095.233-4.448.593-9.26.884-14.141.746-12.549 2.986-28.24 2.986-28.24"/><path d="m603.183 163.552s-.597 22.264-.745 34.67c-.044 3.408-.244 7.107-.521 10.672a316.244 316.244 0 0 1 -1.921 17.928m-40.652-19.532c.45-.149 26.107 5.979 42.442 1.593m19.929-48.022-.012.56c-.083 4.368-.65 33.168-1.331 45.917-.749 13.901-.6 17.338-.6 17.338m.6-17.339s14.098-.84 21.271-4.43m-40.104 23.864s-.004.051-.008.146c-.087 2.149-1.076 27.385 1.499 28.098.287.08.662.16 1.112.24 3.539.619 11.72 1.099 17.681-.465.422-.113.837-.233 1.237-.368 0 0 2.393.888 4.484-9.122 2.092-10.009 3.139-20.925 3.139-20.925m-70.543.148s-.011.226-.025.633c-.16 4.113-.924 26.937 1.521 27.617.724.2 2.79.535 5.562.88 5.841.72 14.804 1.466 20.838 1.007 1.764-.135 3.276-.371 4.39-.742 0 0 7.249-9.406 7.177-26.85 0-.149-.004-.298-.004-.448m-39.605-70.393s1.259 3.444 2.994 7.198l.509 1.081c1.873 3.892 4.179 7.802 6.056 8.311 3.889 1.047 9.268-2.39 10.018-7.02.262-1.633-.459-4.066-1.503-6.529-1.916-4.528-4.925-9.169-4.925-9.169m71.14 5.979c-.032.091-.065.182-.102.28l-.004.003c-1.313 3.659-4.524 12.476-7.648 14.935-.255.2-.51.36-.765.469"/></g><path d="m595.745 66.1c0 1.175-.968 2.131-2.161 2.131-1.189 0-2.153-.957-2.153-2.131s.964-2.128 2.153-2.128c1.193 0 2.161.953 2.161 2.128zm11.65-.229c0 1.175-.968 2.131-2.156 2.131-1.193 0-2.161-.957-2.161-2.131s.968-2.128 2.161-2.128c1.188 0 2.156.953 2.156 2.128zm-4.849-3.35c-1.895 3.688-.861 7.256 0 9.766" stroke-width="2.561"/></g></svg>