<svg height="850.394" viewBox="0 0 850.394 850.394" width="850.394" xmlns="http://www.w3.org/2000/svg"><path d="m503.18 630.5c.521 31.04 0 83.63 0 83.63l-29.859.05v-109.09l3.41-1.71c7.899 1.7 26.119 7.72 26.449 27.12z" fill="#fbee34"/><path d="m546.83 631.21c.39-22.99 25.92-27.19 29.6-27.67l.38-.1c.57.079 1.681.239 3.141.55l-3.41 1.71v109.09l-29.71.04c-.001 0-.521-52.59-.001-83.62z" fill="#33a048"/><path d="m606.4 631.11c.52 31.029 0 83.63 0 83.63l-29.86.05v-109.09l3.41-1.71c7.9 1.7 26.13 7.72 26.45 27.12zm-355.16-246.13c.52 31.02 0 83.61 0 83.61l-29.86.061v-109.081l3.41-1.71c7.89 1.7 26.12 7.71 26.45 27.12z" fill="#0d72ba"/><path d="m191.67 385.08c.39-23 25.92-27.19 29.6-27.68l.37-.1c.58.08 1.68.24 3.15.56l-3.41 1.71v109.08l-29.71.05s-.53-52.6 0-83.62zm251.94 245.52c.39-22.989 25.92-27.18 29.609-27.67l.36-.1c.58.07 1.68.24 3.15.55l-3.41 1.71v109.09l-29.71.04c.001 0-.519-52.59.001-83.62z" fill="#ed1d31"/><path d="m327.56 677.88c.71 36.89 0 99.44 0 99.44l-81.75.12s-.72-62.54 0-99.44c.54-27.35 35.56-32.33 40.63-32.91l.49-.12c5.06.58 40.09 5.57 40.63 32.91z" fill="#9e5c26"/><path d="m365.17 616.8h-149.42l70.69-52.21 3.99 2.64 8.46 5.62z" fill="#7a7878"/><path d="m365.77 756.98v23.82h-155.74v-159.78l5.72-4.22h149.42l.6.4zm-38.21 20.34s.71-62.551 0-99.44c-.54-27.34-35.57-32.33-40.63-32.91l-.49.12c-5.07.58-40.09 5.561-40.63 32.91-.72 36.9 0 99.44 0 99.44z" fill="#f6cc4b"/><path d="m210.03 621.02v145.74h-58.33v-453.2h141.7v249.19l-2.97 4.48-3.99-2.641-70.69 52.21h-5.72zm41.21-152.43s.52-52.59 0-83.61c-.33-19.41-18.56-25.42-26.45-27.12a40.43 40.43 0 0 0 -3.15-.56l-.37.1c-3.68.49-29.21 4.68-29.6 27.68-.53 31.02 0 83.62 0 83.62l29.71-.05zm114.53 148.61v-.4h-.6l-66.28-43.95 1.84-2.77h388.71l2.17 7.33v179.57h-325.84zm240.63 97.54s.52-52.601 0-83.63c-.32-19.4-18.551-25.42-26.45-27.12a43.004 43.004 0 0 0 -3.141-.55l-.38.1c-3.68.479-29.21 4.68-29.6 27.67-.521 31.03 0 83.62 0 83.62l29.71-.04zm-103.22-.61s.521-52.59 0-83.63c-.33-19.4-18.55-25.42-26.449-27.12a39.562 39.562 0 0 0 -3.15-.55l-.36.1c-3.689.49-29.22 4.681-29.609 27.67-.521 31.03 0 83.62 0 83.62l29.71-.04z" fill="#f6cc4b"/><path d="m221.94 71.04 71.46 242.52h-141.7zm422.03 345.13 45.47 153.91h-388.71l-1.84 2.77-8.46-5.62 2.97-4.48v-146.58h2.44z" fill="#7a7878"/><g fill="none"><g stroke="#231f20"><g stroke-width="21"><path d="m295.84 416.17h348.13l45.47 153.91 2.17 7.33v179.57h-326.14m-64.74-186.9h390.88m-481.28 196.68h-58.63v-453.2h141.7v249.19m-141.7-249.19 70.24-242.52 71.46 242.52"/><path d="m206 624 4.03-2.98 5.72-4.22 70.69-52.21 3.99 2.64 8.46 5.62 66.28 43.95.6.4 3.21 2.13"/><path d="m365.77 756.98v23.82h-155.74v-164h155.74v.4z"/></g><path d="m473.32 714.18-29.71.04s-.521-52.59 0-83.62c.39-22.989 25.92-27.18 29.609-27.67l.36-.1c.58.07 1.68.24 3.15.55 7.899 1.7 26.119 7.72 26.449 27.12.521 31.04 0 83.63 0 83.63z" stroke-width="14"/><path d="m473.32 605.09v108.09" stroke-width="7"/><path d="m221.38 468.65-29.71.05s-.53-52.6 0-83.62c.39-23 25.92-27.19 29.6-27.68l.37-.1c.58.08 1.68.24 3.15.56 7.89 1.7 26.12 7.71 26.45 27.12.52 31.02 0 83.61 0 83.61z" stroke-width="14"/><path d="m221.38 359.57v108.08" stroke-width="7"/><path d="m286.93 644.97c5.06.58 40.09 5.57 40.63 32.91.71 36.89 0 99.44 0 99.44l-81.75.12s-.72-62.54 0-99.44c.54-27.35 35.56-32.33 40.63-32.91z" stroke-width="13.413"/><path d="m576.54 714.79-29.71.04s-.521-52.59 0-83.62c.39-22.99 25.92-27.19 29.6-27.67l.38-.1c.57.079 1.681.239 3.141.55 7.899 1.7 26.13 7.72 26.45 27.12.52 31.029 0 83.63 0 83.63z" stroke-width="14"/><path d="m576.54 605.7v108.08" stroke-width="7"/></g><path d="m0 0h850.394v850.394h-850.394z"/></g></svg>