<svg height="850.394" viewBox="0 0 850.394 850.394" width="850.394" xmlns="http://www.w3.org/2000/svg"><path d="m193.69 576.46v65.22h-121.83v-70.14h121.83z" fill="#f6cc4b"/><path d="m619.29 571.54h-9.67c2.92-.14 6.21-.17 9.67 0zm-21.69 70.14h21.87c-11.66.94-21.87 0-21.87 0z" fill="#231f20"/><path d="m652.97 622.61c1.851-23.99 3.69-40.61-14.149-47.38-6.25-2.37-13.17-3.381-19.53-3.69h10c16.3 0 29.53 13.22 29.53 29.53v11.08c0 16.31-13.23 29.529-29.53 29.529h-9.82c15.029-1.209 32.459-5.549 33.499-19.069zm-459.28-51.07h415.93c-7.08.33-12.021 1.24-12.021 1.24v68.899h-403.909z" fill="#fff"/><path d="m619.47 641.68h-21.87v-68.9s4.94-.91 12.021-1.24h9.67c6.36.31 13.28 1.32 19.53 3.69 17.84 6.77 16 23.39 14.149 47.38-1.04 13.52-18.47 17.86-33.5 19.07z" fill="#ed1e29"/><g fill="none"><g stroke="#231f20" stroke-linecap="round" stroke-linejoin="round"><path d="m637.4 518.63c30.31-53.899-7.94-104.82-11.79-119.59-10.11-38.75-2.681-66.49 18.54-87.31 23.75-23.32 51.1-27.15 58.89-64.31 3.44-16.37.05-64-31.95-75.79" stroke-width="14"/><path d="m758.68 196.9c19.46 34.47 22.42 69.06-19.8 99.39-18.76 13.48-77.899 38.73-47.58 96.01" stroke-width="14"/><path d="m193.69 571.54h-121.83v70.14h557.43c16.3 0 29.53-13.22 29.53-29.529v-11.08c0-16.311-13.23-29.53-29.53-29.53h-435.6z" stroke-width="21"/><path d="m609.62 571.54c-7.08.33-12.021 1.24-12.021 1.24v68.899s10.21.94 21.87 0c15.03-1.21 32.46-5.55 33.5-19.069 1.851-23.99 3.69-40.61-14.149-47.38-6.25-2.37-13.17-3.381-19.53-3.69-3.46-.17-6.75-.14-9.67 0z" stroke-width="4"/><path d="m193.69 576.46v65.22" stroke-width="21"/></g><path d="m0 0h850.394v850.394h-850.394z"/></g></svg>