<svg height="850.394" viewBox="0 0 850.394 850.394" width="850.394" xmlns="http://www.w3.org/2000/svg"><g fill="#0b00ea"><path d="m498.69 352.97v29.49l-1-1.72h-13.81v-48.91c0-11.77-9.55-21.8-22.95-25.64l.34-1.11s37.42.89 37.42 47.89zm-79.9-46.62c-13.14 3.93-22.46 13.86-22.46 25.48v48.91h-11.64l-3.19 5.32v-31.83c0-45.32 34.8-47.77 37.29-47.88z"/><path d="m418.79 306.35c3.9-1.18 8.14-1.82 12.58-1.82h17.479c4.25 0 8.32.59 12.08 1.66 13.4 3.84 22.95 13.87 22.95 25.64v48.91h-87.55v-48.91c.001-11.62 9.321-21.55 22.461-25.48zm278.55 46.62v29.51l-1.01-1.74h-13.81v-48.91c0-11.77-9.55-21.8-22.949-25.64l.34-1.11c-.001 0 37.429.89 37.429 47.89zm-79.91-46.62c-13.13 3.93-22.449 13.86-22.449 25.48v48.91h-11.641l-3.2 5.33v-31.84c0-45.32 34.8-47.77 37.29-47.88z"/><path d="m617.43 306.35c3.9-1.18 8.141-1.82 12.58-1.82h17.48c4.25 0 8.319.59 12.08 1.66 13.399 3.84 22.949 13.87 22.949 25.64v48.91h-87.539v-48.91c0-11.62 9.32-21.55 22.45-25.48z"/></g><path d="m439.38 226c17.25 0 31.24 16.96 31.24 37.89s-13.99 37.9-31.24 37.9c-17.26 0-31.25-16.97-31.25-37.9s13.99-37.89 31.25-37.89zm198.64 0c17.25 0 31.25 16.96 31.25 37.89s-14 37.9-31.25 37.9c-17.26 0-31.25-16.97-31.25-37.9s13.99-37.89 31.25-37.89z" fill="#ffeec8"/><path d="m505.69 420.9v92.69h-124.62v-93.01h124.62zm-7-38.44 22.109 38.12h-159.989l20.69-34.51v-.01l3.19-5.32h113.001zm198.65.02 22.1 38.1h-159.98l20.68-34.51 3.2-5.33h112.99z" fill="#9c5b16"/><path d="m704.33 420.9v92.69h-124.62v-93.01h124.62z" fill="#9c5b16"/><path d="m324.95 692.22v3.15h-170.69v-265.26h170.69zm-22.64-155v-80.06h-125.42v80.06zm-6.32 57.51c0-7.381-5.43-13.381-12.11-13.381-6.69 0-12.11 6-12.11 13.381 0 7.39 5.42 13.39 12.11 13.39 6.68 0 12.11-6 12.11-13.39z" fill="#33a02c"/><path d="m439.38 301.79c17.25 0 31.24-16.97 31.24-37.9s-13.99-37.89-31.24-37.89c-17.26 0-31.25 16.96-31.25 37.89s13.99 37.9 31.25 37.9zm21.55 4.4a44.178 44.178 0 0 0 -12.08-1.66h-17.48c-4.44 0-8.68.64-12.58 1.82-2.49.11-37.29 2.56-37.29 47.88v31.84l-20.69 34.51h20.26v93.01h124.62v-93.01h15.11l-22.109-38.12v-29.49c0-47-37.421-47.89-37.421-47.89zm198.64 0a44.183 44.183 0 0 0 -12.08-1.66h-17.48c-4.439 0-8.68.64-12.58 1.82-2.489.11-37.29 2.56-37.29 47.88v31.84l-20.68 34.51h20.25v93.01h124.62v-93.01h15.11l-22.101-38.1v-29.51c0-47-37.43-47.89-37.43-47.89zm-21.55-4.4c17.25 0 31.25-16.97 31.25-37.9s-14-37.89-31.25-37.89c-17.26 0-31.25 16.96-31.25 37.89s13.99 37.9 31.25 37.9zm118.64-137.27v530.85h-431.71v-265.26h-170.69v265.26h-62.59v-530.85z" fill="#c8c8c8"/><path d="m176.89 457.16h125.42v80.06h-125.42zm106.99 124.19c6.68 0 12.11 6 12.11 13.381 0 7.39-5.43 13.39-12.11 13.39-6.69 0-12.11-6-12.11-13.39 0-7.381 5.42-13.381 12.11-13.381z" fill="#231f20"/><g fill="none" stroke="#231f20"><path d="m154.26 700.77v-270.66h170.69v262.11" stroke-width="21"/><path d="m154.26 695.37h-62.59v-530.85h664.99v530.85h-431.71z" stroke-width="28"/><path d="m470.62 263.89c0 20.93-13.99 37.9-31.24 37.9-17.26 0-31.25-16.97-31.25-37.9s13.99-37.89 31.25-37.89c17.25 0 31.24 16.96 31.24 37.89zm13.26 116.85v-48.91c0-11.77-9.55-21.8-22.95-25.64a44.178 44.178 0 0 0 -12.08-1.66h-17.48c-4.44 0-8.68.64-12.58 1.82-13.14 3.93-22.46 13.86-22.46 25.48v48.91m-14.83 5.32 3.19-5.32h113l1 1.72 22.11 38.12h-159.99l20.69-34.51m-.43 34.83v92.69h124.62v-92.69" stroke-width="14"/><path d="m418.93 306.34s-.05 0-.14.01c-2.49.11-37.29 2.56-37.29 47.88v31.84m79.77-80.99s37.421.89 37.421 47.89v31.84" stroke-width="7"/><path d="m669.27 263.89c0 20.93-14 37.9-31.25 37.9-17.26 0-31.25-16.97-31.25-37.9s13.99-37.89 31.25-37.89c17.25 0 31.25 16.96 31.25 37.89zm13.25 116.85v-48.91c0-11.77-9.55-21.8-22.949-25.64a44.183 44.183 0 0 0 -12.08-1.66h-17.48c-4.439 0-8.68.64-12.58 1.82-13.13 3.93-22.449 13.86-22.449 25.48v48.91m87.538 0h13.81l1.01 1.74 22.1 38.1h-159.98l20.68-34.51 3.2-5.33h11.64zm-102.81 40.16v92.69h124.62v-92.69" stroke-width="14"/><path d="m617.57 306.34s-.051 0-.141.01c-2.489.11-37.29 2.56-37.29 47.88v31.84m79.771-80.99s37.43.89 37.43 47.89v31.84" stroke-width="7"/></g><path d="m0 0h850.394v850.394h-850.394z" fill="none"/></svg>