<svg height="850.394" viewBox="0 0 850.394 850.394" width="850.394" xmlns="http://www.w3.org/2000/svg"><path d="m443.38 308.1c-4.52-11.54-7.18-23.03-5.45-34.1h217.46c2.74 18.37-6.529 37.84-16.27 56.84-11.26 21.97 0 52.38 0 52.38s3.6 10.34 7.58 25.96v2.56h-68.7v-5.74l-25.53-80.39s-10.609-21.03-44.45-17.51z" fill="#fbed24"/><path d="m578 406v5.74h-130.71v-5.03c3.68-14.06 18.12-53.61 6.86-75.57-3.92-7.64-7.761-15.35-10.771-23.04h64.64c33.841-3.52 44.45 17.51 44.45 17.51z" fill="#fbed24"/><path d="m180.07 411.74h556.62c14.239 0 25.779 11.54 25.779 25.779l-25.779 225.591c0 14.229-11.54 25.779-25.78 25.779h-574.44c-14.24 0-25.78-11.55-25.78-25.779l-25.79-225.59c0-14.24 11.55-25.779 25.79-25.779h69.38z" fill="#34a047"/><path d="m279.71 360h78.29l1.37-.43c7 21.92 11.45 39.31 13.19 52.17h-192.49c2.31-4.57 5.6-8.18 10.21-10.58 0 0 46.76-26.58 57.71-41.16z" fill="#ed107f"/><g fill="#faa41a"><path d="m558.9 156.44c-3.521.61-7.721.96-12.25.96-4.4 0-8.511-.33-11.971-.91-6.26-1.06-10.42-2.9-10.42-5.01 0-3.26 10.03-5.91 22.391-5.91 12.369 0 22.39 2.65 22.39 5.91 0 2.07-4.03 3.9-10.14 4.96z"/><path d="m534.68 172.66v-16.17c3.46.58 7.57.91 11.971.91 4.529 0 8.729-.35 12.25-.96v25.73l.189 2.33c-3.83.31-8.04.49-12.439.49-13.381 0-24.881-1.61-29.99-3.93-.68-.3-1.24-.62-1.68-.95-.74-.55-1.131-1.13-1.131-1.74 0-2.43 6.551-4.57 16.301-5.71z"/><path d="m576.27 181.22.141 25.54c0 .29-.05.58-.15.87-1.54 4.28-14.27 7.62-29.75 7.62-15.479 0-28.21-3.34-29.75-7.62-.04-.13-.08-.26-.1-.39v-26.18c5.109 2.32 16.609 3.93 29.99 3.93 4.399 0 8.609-.18 12.439-.49 7.55-.63 13.68-1.8 17.18-3.28z"/></g><path d="m331.32 178.5c8.07 13.7 5.25 13.24 5.25 13.24s-27.2-.73-29.92 14.32c-2.72 15.06-.73 31.2-.73 31.2l-.97.02-50.54 1.07c0-.48-.01-.97-.01-1.45v-11.97c0-13.42-7.25-19.95-12.87-25.58-6.72-6.72-18.1-9.14-27.79-9.88-6.72-.51-12.62-.22-15.59 0-1.31.1-2.05.19-2.05.19l2.79-30.21s67.48-10.89 88.52-9.44c21.05 1.46 19.79 2.72 19.79 2.72s12.69 6.36 24.12 25.77z" fill="#ed107f"/><g fill="none" stroke="#231f20"><path d="m180.07 411.74h-69.38c-14.24 0-25.79 11.54-25.79 25.779l25.79 225.591c0 14.229 11.54 25.779 25.78 25.779h574.44c14.24 0 25.78-11.55 25.78-25.779l25.78-225.59c0-14.24-11.54-25.779-25.779-25.779h-556.621z" stroke-width="21"/><path d="m304.95 237.28.97-.02s-1.99-16.14.73-31.2c2.72-15.05 29.92-14.32 29.92-14.32s2.82.46-5.25-13.24c-11.43-19.41-24.12-25.77-24.12-25.77s1.26-1.26-19.79-2.72c-21.04-1.45-88.52 9.44-88.52 9.44l-2.79 30.21s.74-.09 2.05-.19c2.97-.22 8.87-.51 15.59 0 9.69.74 21.07 3.16 27.79 9.88 5.62 5.63 12.87 12.16 12.87 25.58v13.42h.01z" stroke-width="14"/><path d="m198.17 189.66s-5.17 27.21-9.96 39.07c-5.86 14.47-12.53 27.32-12.53 27.32l4.18 1.89s14.29-20.43 21.62-35.23c8.61-17.4 10.53-24.91 12.26-33.24l.03-.13m-33.88 222.74c.06-.12.11-.23.18-.34 2.31-4.57 5.6-8.18 10.21-10.58 0 0 46.76-26.58 57.71-41.16 1.02-1.36 1.73-2.61 2.06-3.73 0 0 8.34-15.24 1.08-39.91l-.27-.45c-4.29-11.97-8.35-12.77-11.52-20.59-3.08-7.62 1.08-14.35 4.28-18.08 3.42-3.99 6.79-6.24 8.98-10.89 1.45-3.06 1.19-7.85 1.39-11.16.35-5.6.45-11.22.42-16.84 0-.48-.01-.97-.01-1.45m49.53-1.63s.36.7 1.02 2.01c4.19 8.27 20.52 40.75 34.13 70.82 7.05 15.57 13.37 30.5 16.9 41.09 1.19 3.57 2.32 7.03 3.39 10.38 7 21.92 11.45 39.31 13.19 52.17.02.19.05.37.07.55m74.66-5.58c3.68-14.06 18.12-53.61 6.86-75.57-3.92-7.64-7.761-15.35-10.771-23.04-4.52-11.54-7.18-23.03-5.45-34.1.42-2.76 1.12-5.49 2.141-8.19 8.449-22.53 49.42-48.01 75.04-57.58m63.06-.3c25.61 9.58 66.59 35.06 75.03 57.59 1.05 2.8 1.77 5.63 2.189 8.48 2.74 18.37-6.529 37.84-16.27 56.84-11.26 21.97 0 52.38 0 52.38s3.6 10.34 7.58 25.96" stroke-width="14"/><path d="m534.68 181.33v-27.47m24.22 0v28.31" stroke-width="19.336"/><path d="m534.68 156.49c-6.26-1.06-10.42-2.9-10.42-5.01 0-3.26 10.03-5.91 22.391-5.91 12.369 0 22.39 2.65 22.39 5.91 0 2.07-4.03 3.9-10.14 4.96-3.521.61-7.721.96-12.25.96-4.401 0-8.511-.33-11.971-.91zm28.09 16.12c9.971 1.14 16.681 3.29 16.681 5.76 0 1.02-1.141 1.99-3.181 2.85-3.5 1.48-9.63 2.65-17.18 3.28-3.83.31-8.04.49-12.439.49-13.381 0-24.881-1.61-29.99-3.93-.68-.3-1.24-.62-1.68-.95-.74-.55-1.131-1.13-1.131-1.74 0-2.43 6.551-4.57 16.301-5.71m-13.491 34.58v-27.13m0 27.13c-.03-.16-.05-.32-.05-.48z" stroke-width="14"/><path d="m576.26 180.16.01 1.06.141 25.54c0 .29-.05.58-.15.87-1.54 4.28-14.27 7.62-29.75 7.62-15.479 0-28.21-3.34-29.75-7.62-.04-.13-.08-.26-.1-.39" stroke-width="14"/><path d="m578 406-25.53-80.39s-10.609-21.03-44.45-17.51h-170c-33.84-3.52-44.46 17.51-44.46 17.51l-13.85 34.39-17.71 44" stroke-width="28"/></g><path d="m0 0h850.394v850.394h-850.394z" fill="none"/></svg>