<svg height="850.394" viewBox="0 0 850.394 850.394" width="850.394" xmlns="http://www.w3.org/2000/svg"><path d="m563.03 393.9c-8.86-8.85-16.38 8.91-30.79 25.72l-2.24-1.62c-.02-32.16 5.01-67.27 37.36-76.03 23.5-6.37 56.71 3.07 76.43 16.54 53.14 36.29-2.21 122.76-57.79 101.49l-1.9-1.2c11.221-10.24 19.66-24.09 25.98-43.6 5.79-17.87-30.14-4.38-47.05-21.3z" fill="#fff400"/><path d="m378.45 99.73h380.02v516.77h-380.02l-.42-62.03c13.95 2.471 24.45 3.601 27.5 2.25.24-.109.54-.239.89-.39v27.05h323.89v-454.66h-323.89v337.62l.26 3.46c-3.95.59-7.5.86-10.54.71-5.94-.279-12.08-1.34-18.14-2.87z" fill="#00e800"/><path d="m378 467.64c6.06 1.53 12.2 2.591 18.14 2.87 3.04.15 6.59-.12 10.54-.71 38.12-5.76 112.94-42.63 112.94-42.63-.03 1.51.1 2.99.37 4.45 3.35 18.78 29.08 32.77 34.35 44.78 1.68 3.84 1.28 7.47-2.6 10.989-7.4 6.75-129.64 61.95-145.32 68.94-.35.15-.65.28-.89.39-3.05 1.351-13.55.221-27.5-2.25-16.42-2.91-37.62-7.689-57.05-12.47l7.15 202.32-220.13 5.531s-25.01-119.68-21.27-198.17c3.73-78.489 54.28-155.76 70.37-170.38 16.08-14.63 32.9-31.3 32.9-31.3l3.08-2.02c14.83 23.77 37.95 37.85 61.65 34.48 5.95-.84 11.55-2.73 16.73-5.51 18.97 13.18 54.18 67.64 54.18 67.64s25.41 16.25 52.36 23.05z" fill="#a3d9ff"/><path d="m786.64 616.5v16.64h-430.52v-16.64h402.35z" fill="#00e800"/><path d="m563.03 393.9c16.91 16.92 52.84 3.43 47.05 21.3-6.32 19.51-14.76 33.359-25.98 43.6-8.31 7.57-18.14 13.17-29.76 17.601-5.27-12.011-31-26-34.35-44.78h.02c4.59-3.65 8.62-7.8 12.23-12 14.41-16.811 21.93-34.571 30.79-25.721zm-291.57-16.95c-5.18 2.78-10.78 4.67-16.73 5.51-23.7 3.37-46.82-10.71-61.65-34.48-7.5-12.01-12.88-26.51-15.15-42.48-6.73-47.55 16.72-90.19 52.37-95.24 35.69-5.07 70.05 29.39 76.8 76.94 5.61 39.64-9.73 75.85-35.64 89.75z" fill="#ffeec8"/><g fill="none"><g stroke="#231f20"><path d="m193.08 347.98c-7.5-12.01-12.88-26.51-15.15-42.48-6.73-47.55 16.72-90.19 52.37-95.24 35.69-5.07 70.05 29.39 76.8 76.94 5.61 39.64-9.73 75.85-35.64 89.75-5.18 2.78-10.78 4.67-16.73 5.51-23.7 3.37-46.82-10.71-61.65-34.48zm-3.08 2.02s-16.82 16.67-32.9 31.3c-16.09 14.62-66.64 91.891-70.37 170.38-3.74 78.49 21.27 198.17 21.27 198.17l220.13-5.529-7.15-202.321" stroke-width="21"/><path d="m269.58 527.77c6.36 2.461 27.54 8.351 51.4 14.23 19.43 4.78 40.63 9.56 57.05 12.47 13.95 2.471 24.45 3.601 27.5 2.25.24-.109.54-.239.89-.39 15.68-6.99 137.92-62.19 145.32-68.94 3.88-3.52 4.279-7.149 2.6-10.989-5.27-12.011-31-26-34.35-44.78-.271-1.46-.4-2.94-.37-4.45 0 0-74.82 36.87-112.94 42.63-3.95.59-7.5.86-10.54.71-5.94-.279-12.08-1.34-18.14-2.87-26.95-6.8-52.36-23.05-52.36-23.05s-35.21-54.46-54.18-67.64c-.03-.02-.05-.04-.08-.06" stroke-width="21"/><path d="m552.53 477.08c.609-.22 1.21-.45 1.81-.68 11.62-4.431 21.45-10.03 29.76-17.601 11.221-10.24 19.66-24.09 25.98-43.6 5.79-17.87-30.14-4.38-47.05-21.3-8.86-8.85-16.38 8.91-30.79 25.72-3.61 4.2-7.641 8.35-12.23 12" stroke-width="14"/><path d="m530 418c-.02-32.16 5.01-67.27 37.36-76.03 23.5-6.37 56.71 3.07 76.43 16.54 53.14 36.29-2.21 122.76-57.79 101.49" stroke-width="21"/><path d="m406.42 466.34v-337.62h323.89v454.66h-323.89v-27.05" stroke-width="21"/><path d="m378.45 616.5-.42-62.03-.03-4.47m0-82v-.36l.45-367.91h380.02v516.77m0 0h28.17v16.64h-430.52v-16.64h22.33z" stroke-width="14"/><path d="m406.42 314.81h31.18v59.35" stroke-width="21"/></g><path d="m0 0h850.394v850.394h-850.394z"/></g></svg>