<svg height="850" viewBox="0 0 850 850" width="850" xmlns="http://www.w3.org/2000/svg"><path d="m523.3 286.5v.5l-.3.8-1.2 2-2.3 2.2-3 2.8-3.7 3-4.3 3.2-9.2 6.5-9.5 6.5-8 5.3-8.3 5.2-6.2-41.2 6.5-6.3 6-5.7 5.2-5.3 5-4.5 2.3-2 2.2-1.5 2-1.2 2-1 1.8-.8h2l1.7.3 1.5.5 2.8 1.7 2.2 1.8 2 2 1.8 2.2 1.5 2.3 1.2 2.2 1.3 2.3.7 2.2 2.3 7.3 1 4z" fill="#ffeec8"/><path d="m507.5 173.5-1.7 43-3.5-.2-11.5 4.2-10 4-8.8 3.5-8.5 3.3-9 3-5 1.5-5.2 1.2-5.8 1.3-6.2 1.2-6.8 1-7.7 1.3-6.5.5-5.8.5-5-.3-4.7-.5-5-1-5.8-1.2-14.2-3.8-4.5 1.3-1.8-5.3-1.7-5.5-2.3-5.2-2-5-4.5-9.8-4.5-8.7-4-7.3-3.2-5.7-3-4.8-.3-.5 3-1.7 3-2.3 2.8-2.2 2.5-2.5 3.7.5 1.8 1.2 4.7 3 7 4 4.3 2.5 4.7 2.3 4.8 2.2 5.2 2.3 5.3 2 5.2 1.7 5.5 1.3 5.3.7 5 .5 2.5-.2 2.5-.3 7.2-1.2 7.5-1.3 14.8-3.2 14.5-3.5 13.2-3.5 11.5-3.3 9-2.7 8-2.5z" fill="#a9d7f3"/><path d="m371.8 346.3v2l-.5.7-.3 1.3-.7 4.2-.5 5.8-.3 7-.2 14.5v11.7l-1.5.8-6.3 3.2-6.5 2.8-6.5 2.2-6.2 2-6.5 1.5-6.5 1.3-6.5 1-6.5.7-6.5.3h-12.5l-6.3-.5-6-.5-5.7-.8-5.8-1-5.5-1-10.5-2.2-9.5-2.5-8.5-2.8-7.2-2.5-6-2.2-4.5-2-3.5-1.5h-2.3l.3-10.3.2-10.5.8-10.5.7-10.7 1-10.5 1.3-10.8 2.7-20.5 5.3-37.2 2-15.5.7-6.8.5-6 .5-4.5.8-4.5 1-4.2 1-4.3 1.2-4 1.5-3.7 1.5-3.8 2-3.5 1.8-3.5 2-3.2 4.2-6.3 4.5-5.5 4.5-5 4.5-4.5 4.3-3.7 4-3.3 3.7-2.5 5.3-3.7 2-1v-.3l3.7 4.5 4 3.8 4.3 3.2 4.5 2.8 2.5 1.2 2.2 1 2.5 1 2.5.8 2.5.5 2.5.5 2.8.2h5.5l2.5-.2 2.7-.5 2.5-.8 2.8-.7 2.5-1 2.5-1 2.2-1.3.3.5 3 4.8 3.2 5.7 4 7.3 4.5 8.7 4.5 9.8 2 5 2.3 5.2 1.7 5.5 1.8 5.3 1 4.5 2.5 10.5 2 9 1.5 7.7.7 6.3 1 8 .3 2.7 3.2.5 9 1 12.8 1.3 7.5.7 7.7.5 8 .3h15.5l7.5-.8 6.5-.7 3-.8 2.8-.7 2.5-.8 2.2-1 2-1 1.8-1.2 6.2 41.2-3.7 2.8-2.5.7-7 2.3-10.5 3-13.3 3.5-15.2 3.5-8.3 1.5-8.2 1.5-8.3 1.2-8.5 1-8.2.5z" fill="#a9d7f3"/><path d="m369.3 395 10.5 4.3 11.7 4.2 12.5 4.5 12.3 4.5 11.2 4.5 5.3 2.3 4.5 2.2 4 2.3 3.5 2.5 2.7 2.2 1 1 .8 1 1.2 2.5 1.3 2.5 1.2 2.8.8 2.7.7 3 .3 3v3l-.3 3-.7 3.3-1.3 3-1.7 3.2-2.3 3.3-2.7 3.2-3.5 3.3-4.3 3.2-4.7 3-12.5 7.3-15.3 8.5-34 18.5-28.7 15-12.3 6.2-39.5-21h-1.5l2.8-2.5 3.2-2.5 3.8-2 4.2-2 2.8-1 3-1.5 6.5-4 7-4.7 7.5-5.3 7.5-6 7.5-6.2 7.5-6.3 7-6.2-.5-.5-4.3 1.7-3.5 1.8-4.5 1.7-5.5 1.8-6.2 2-7 2-7.5 1.5-8.3 1.5-8.5 1-4.5.2h-14l-4.7-.5-4.8-.5-5-.7-5-1-4.7-1.3-5-1.5-5-1.7-5-2-2.8-1.5-2.7-1.5-2.5-1.8-2.3-2-2.2-2.2-2-2.5-1.8-2.5-1.7-2.8-1.5-3-1.5-3-1.3-3.2-1.2-3.3-2.3-7.2-1.5-7.5-1.2-8.3-1-8.5-.5-8.7-.3-9h2.3l3.5 1.5 4.5 2 6 2.2 7.2 2.5 8.5 2.8 9.5 2.5 10.5 2.2 5.5 1 5.8 1 5.7.8 6 .5 6.3.5h12.5l6.5-.3 6.5-.7 6.5-1 6.5-1.3 6.5-1.5 6.2-2 6.5-2.2 6.5-2.8 6.3-3.2z" fill="#7a7878"/><path d="m359.3 567 3 1.8 2.2 2 1.8 2.2 1 2.5.5 2.5v2.3l-.8 2.5-1 2.2-1.5 2.3-2 2-2.2 1.7-2.8 1.3-3.2 1-3.3.7-3.7.3-4-.5-2.3-.5-2.5-.5-5-1.8-5.5-2.2-5.7-3-5.5-3.3-5.8-3.5-5.7-3.7-5.5-4-8.3-6.5-3.7-3.3-3.3-3.2-3-2.8-2.2-2.7-2-2.3-1.3-2v-3.7l.5-3.8.8-5 .7-2.7 1-2.8 1-3 1.3-3 1.7-3 1.8-3 2.2-2.7 2.5-2.8h1.5l39.5 21 2 4 2.5 4 3.3 5 4.2 5.5 2.3 2.8 2.5 2.5 2.7 2.7 3 2.3 3 2.2z" fill="#231f20"/><path d="m359.3 462.3.5.5-7 6.2-7.5 6.3-7.5 6.2-7.5 6-7.5 5.3-7 4.7-6.5 4-3 1.5-2.8 1-4.2 2-3.8 2-3.2 2.5-2.8 2.5-2.5 2.8-2.2 2.7-1.8 3-1.7 3-1.3 3-1 3-1 2.8-.7 2.7-.8 5-.5 3.8v3.7l1.3 2 2 2.3 2.2 2.7 3 2.8 3.3 3.2 3.7 3.3 8.3 6.5-.8 2.2v6l-.2 6.5-.5 7.8-1 9-.8 4.5-.7 4.5-1.3 4.5-1.2 4.5-1.5 4-1.8 3.7-4 7-4.2 6.8-4.3 6.5-4.7 6.2-9.3 12.3-9 11.2-4.2 5.5-4 5.3-3.5 5.2-3 5-2.5 5-2 4.8-.8 2.2-.7 2.3-.3 2.2-.2 2.3h-.5l-45-1 3.7-10.3 3.8-10.7 3.2-11 1.5-5.5 1.3-5.8 2.2-9.2 2.3-8.8 2.7-8 2.8-7.7 3-7 2.7-6.5 3-6 3-5.5 2.8-5 2.7-4.5 5-7.3 4-5 2.5-3 .5-1 .3-1.5v-4.7l-.3-7.3-.5-9-1.7-22.2-2.3-24.8-2.7-25-2.5-21.5-2.5-22 1.7 2.8 1.8 2.5 2 2.5 2.2 2.2 2.3 2 2.5 1.8 2.7 1.5 2.8 1.5 5 2 5 1.7 5 1.5 4.7 1.3 5 1 5 .7 4.8.5 4.7.5h14l4.5-.2 8.5-1 8.3-1.5 7.5-1.5 7-2 6.2-2 5.5-1.8 4.5-1.7 3.5-1.8z" fill="#7a7878"/><path d="m318.5 52 2.5.3 2.8.2 2.5.3 2.5.7 2.5.8 2.5.7 2.5 1.3 2.2 1 4.5 3 4.3 3.2 4 3.8 3.7 4.2 3.3 4.8 3 5.2 2.7 5.5 2 5.8 1.8 6 1.2 6.5.8 6.5.2 6.7v4l-.2 4-.5 3.8-.5 3.7-.8 3.8-1 3.5-1 3.5-1.2 3.2-1.3 3.3-1.5 3.2-1.7 3-1.8 3-1.7 2.8-2 2.7-2.3 2.5-2.2 2.3-2.5 2.5-2.8 2.2-3 2.3-3 1.7-2.2 1.3-2.5 1-2.5 1-2.8.7-2.5.8-2.7.5-2.5.2h-5.5l-2.8-.2-2.5-.5-2.5-.5-2.5-.8-2.5-1-2.2-1-2.5-1.2-4.5-2.8-4.3-3.2-4-3.8-3.7-4.5-3.3-4.5-3-5.2-2.5-5.5-2.2-5.8-1.8-6.2-1.2-6.3-.8-6.7-.2-6.8.2-6.7.8-6.5 1.2-6.5 1.8-6 2.2-5.8 2.5-5.5 3-5.2 3.3-4.8 3.7-4.2 4-3.8 4.3-3.2 4.5-3 2.2-1 2.5-1.3 2.5-.7 2.5-.8 2.5-.7 2.5-.3 2.8-.2z" fill="#ffeec8"/><path d="m255.5 746.8-10.7 30-.8-.3-2.5-.2-9-1-15.7-1.3-10.8-.7-13-.5-4.5-.5-2-.5-1.7-.5-1.8-.8-1.2-.7-1.3-.8-1.2-1-.8-1.2-.7-1.3-.8-1.2-.2-1.5-.8-3v-3.5l.5-4 .8-4.3 1.2-4.5 1.5-4.7 3.5-10.3 4.3-11.2 45 1h.5v1.5l.2 3.7.8 3.5 1 3 1.2 2.8 1.5 2.2 1.5 2 1.8 2 2 1.5 1.7 1.3 2 1.2 3.5 1.8 3 1z" fill="#231f20"/><g fill="none" stroke="#231f20" stroke-linecap="round" stroke-miterlimit="10"><path d="m281.8 165.5-3.3-4.5-3-5.2-2.5-5.5-2.2-5.8-1.8-6.2-1.2-6.3-.8-6.7-.2-6.8.2-6.7.8-6.5 1.2-6.5 1.8-6 2.2-5.8 2.5-5.5 3-5.2 3.3-4.8 3.7-4.2 4-3.8 4.3-3.2 4.5-3 2.2-1 2.5-1.3 2.5-.7 2.5-.8 2.5-.7 2.5-.3 2.8-.2 2.7-.3 2.5.3 2.8.2 2.5.3 2.5.7 2.5.8 2.5.7 2.5 1.3 2.2 1 4.5 3 4.3 3.2 4 3.8 3.7 4.2 3.3 4.8 3 5.2 2.7 5.5 2 5.8 1.8 6 1.2 6.5.8 6.5.2 6.7v4l-.2 4-.5 3.8-.5 3.7-.8 3.8-1 3.5-1 3.5-1.2 3.2-1.3 3.3-1.5 3.2-1.7 3-1.8 3-1.7 2.8-2 2.7-2.3 2.5-2.2 2.3-2.5 2.5-2.8 2.2-3 2.3-3 1.7-2.2 1.3-2.5 1-2.5 1-2.8.7-2.5.8-2.7.5-2.5.2h-5.5l-2.8-.2-2.5-.5-2.5-.5-2.5-.8-2.5-1-2.2-1-2.5-1.2-4.5-2.8-4.3-3.2-4-3.8zm57.5 14.5 3 4.8 3.2 5.7 4 7.3 4.5 8.7 4.5 9.8 2 5 2.3 5.2 1.7 5.5 1.8 5.3 1 4.5 2.5 10.5 2 9 1.5 7.7.7 6.3 1 8 .3 2.7 3.2.5 9 1 12.8 1.3 7.5.7 7.7.5 8 .3h15.5l7.5-.8 6.5-.7 3-.8 2.8-.7 2.5-.8 2.2-1 2-1 1.8-1.2 6.2 41.2 8.3-5.2 8-5.3 9.5-6.5 9.2-6.5 4.3-3.2 3.7-3 3-2.8 2.3-2.2 1.2-2 .3-.8v-.5l-1-2.7-1-4-1-3.5-1.3-3.8-.7-2.2-1.3-2.3-1.2-2.2-1.5-2.3-1.8-2.2-2-2-2.2-1.8-2.8-1.7-1.5-.5-1.7-.3h-2l-1.8.8-2 1-2 1.2-2.2 1.5-2.3 2-5 4.5-5.2 5.3-6 5.7-6.5 6.3m-185.5-117.5-2 1-5.3 3.7-3.7 2.5-4 3.3-4.3 3.7-4.5 4.5-4.5 5-4.5 5.5-4.2 6.3-2 3.2-1.8 3.5-2 3.5-1.5 3.8-1.5 3.7-1.2 4-1 4.3-1 4.2-.8 4.5-.5 4.5-.5 6-.7 6.8-2 15.5-5.3 37.2-2.7 20.5-1.3 10.8-1 10.5-.7 10.7-.8 10.5-.2 10.5-.3 10.3.3 9 .5 8.7 1 8.5 1.2 8.3 1.5 7.5 2.3 7.2 1.2 3.3 1.3 3.2 1.5 3 1.5 3 1.7 2.8 1.8 2.5 2 2.5 2.2 2.2 2.3 2 2.5 1.8 2.7 1.5 2.8 1.5 5 2 5 1.7 5 1.5 4.7 1.3 5 1 5 .7 4.8.5 4.7.5h14l4.5-.2 8.5-1 8.3-1.5 7.5-1.5 7-2 6.2-2 5.5-1.8 4.5-1.7 3.5-1.8 4.3-1.7.2-.3" stroke-width="14"/><path d="m296 263.3.8 3 2 7.5 1.5 5.2 1.7 6 2.3 6.5 2.7 6.8 3 6.7 3.5 7 4 6.5 2 3.3 2.3 3 2.2 3 2.5 2.7 2.8 2.8 2.5 2.2 3 2.3 2.7 1.7 3 1.8 3.3 1.2 3 1 3.2.8 3.3.7 3.5.5 7.2.8h7.8l8-.3 8.2-.5 8.5-1 8.3-1.2 8.2-1.5 8.3-1.5 15.2-3.5 13.3-3.5 10.5-3 7-2.3 2.5-.7h-.3m-97.7 21-.5.7-.3 1.3-.7 4.2-.5 5.8-.3 7-.2 14.5v16" stroke-width="14"/><path d="m365 393 2.8 1.3 1.5.7 10.5 4.3 11.7 4.2 12.5 4.5 12.3 4.5 11.2 4.5 5.3 2.3 4.5 2.2 4 2.3 3.5 2.5 2.7 2.2 1 1 .8 1 1.2 2.5 1.3 2.5 1.2 2.8.8 2.7.7 3 .3 3v3l-.3 3-.7 3.3-1.3 3-1.7 3.2-2.3 3.3-2.7 3.2-3.5 3.3-4.3 3.2-4.7 3-12.5 7.3-15.3 8.5-34 18.5-28.7 15-12.3 6.2 2 4 2.5 4 3.3 5 4.2 5.5 2.3 2.8 2.5 2.5 2.7 2.7 3 2.3 3 2.2 3.3 2 3 1.8 2.2 2 1.8 2.2 1 2.5.5 2.5v2.3l-.8 2.5-1 2.2-1.5 2.3-2 2-2.2 1.7-2.8 1.3-3.2 1-3.3.7-3.7.3-4-.5-2.3-.5-2.5-.5-5-1.8-5.5-2.2-5.7-3-5.5-3.3-5.8-3.5-5.7-3.7-5.5-4-8.3-6.5-3.7-3.3-3.3-3.2-3-2.8-2.2-2.7-2-2.3-1.3-2v-3.7l.5-3.8.8-5 .7-2.7 1-2.8 1-3 1.3-3 1.7-3 1.8-3 2.2-2.7 2.5-2.8 2.8-2.5 3.2-2.5 3.8-2 4.2-2 2.8-1 3-1.5 6.5-4 7-4.7 7.5-5.3 7.5-6 7.5-6.2 7.5-6.3 7-6.2 9.7-8.8 7.8-7.2 7.2-7m-156.2 11.5v.2l2.5 22 2.5 21.5 2.7 25 2.3 24.8 1.7 22.2.5 9 .3 7.3v4.7l-.3 1.5-.5 1-2.5 3-4 5-5 7.3-2.7 4.5-2.8 5-3 5.5-3 6-2.7 6.5-3 7-2.8 7.7-2.7 8-2.3 8.8-2.2 9.2-1.3 5.8-1.5 5.5-3.2 11-3.8 10.7-3.7 10.3-4.3 11.2-3.5 10.3-1.5 4.7-1.2 4.5-.8 4.3-.5 4v3.5l.8 3 .2 1.5.8 1.2.7 1.3.8 1.2 1.2 1 1.3.8 1.2.7 1.8.8 1.7.5 2 .5 4.5.5 13 .5 10.8.7 15.7 1.3 9 1 2.5.2m11.5-29.7.5.2.3.5" stroke-width="14"/><path d="m299 573.5v6l-.2 6.5-.5 7.8-1 9-.8 4.5-.7 4.5-1.3 4.5-1.2 4.5-1.5 4-1.8 3.7-4 7-4.2 6.8-4.3 6.5-4.7 6.2-9.3 12.3-9 11.2-4.2 5.5-4 5.3-3.5 5.2-3 5-2.5 5-2 4.8-.8 2.2-.7 2.3-.3 2.2-.2 2.3v1.5l.2 3.7.8 3.5 1 3 1.2 2.8 1.5 2.2 1.5 2 1.8 2 2 1.5 1.7 1.3 2 1.2 3.5 1.8 3 1 2 1" stroke-width="14"/><path d="m291 513 39.5 21" stroke-width="21"/><path d="m186.8 717.3h1l45 1m-14.5-328.5 3.5 1.5 4.5 2 6 2.2 7.2 2.5 8.5 2.8 9.5 2.5 10.5 2.2 5.5 1 5.8 1 5.7.8 6 .5 6.3.5h12.5l6.5-.3 6.5-.7 6.5-1 6.5-1.3 6.5-1.5 6.2-2 6.5-2.2 6.5-2.8 6.3-3.2 1.5-.8 2.5-1.5m131.7-218.7-8 2.5-9 2.7-11.5 3.3-13.2 3.5-14.5 3.5-14.8 3.2-7.5 1.3-7.2 1.2-2.5.3-2.5.2-5-.5-5.3-.7-5.5-1.3-5.2-1.7-5.3-2-5.2-2.3-4.8-2.2-4.7-2.3-4.3-2.5-7-4-4.7-3-1.8-1.2m16.8 64.7 14.2 3.8 5.8 1.2 5 1 4.7.5 5 .3 5.8-.5 6.5-.5 7.7-1.3 6.8-1 6.2-1.2 5.8-1.3 5.2-1.2 5-1.5 9-3 8.5-3.3 8.8-3.5 10-4 11.5-4.2" stroke-width="14"/><path d="m512 70-4.5 103.5-1.7 43-.5 11.8 13.7 44.2 2.3 7.3 9.7 31.5-71.7 159.2-76.3 61.5-9 83-15 11-33 24.8-17.7 13.5-15.8 12-11.2 9.2-3.3 3-1 1-.5.8-3.7 9.5-5 13.7-12.3 33.3-10.7 30-5.8 16m340.3-415.5 49.5-255.5m-53.3 40.2 53.5-41.2 35.8 57.5" stroke-width="21"/></g></svg>