<svg height="850" viewBox="0 0 850 850" width="850" xmlns="http://www.w3.org/2000/svg"><path d="m538 286 .3.5-.3.8-1.5 1.7-2.2 2.5-3 2.5-3.8 3-4.2 3.3-9.3 6.7-9.2 6.3-8.3 5.5-8.2 5.2-6.5-41.5 6.7-6.2 6-5.8 5.3-5.2 5-4.5 2.2-2 2.3-1.5 2-1.3 2-1 2-.5 1.7-.2 1.8.2 1.7.8 2.5 1.5 2.3 2 2 2 1.7 2 1.5 2.2 1.3 2.3 1.2 2.2 1 2.3 2.3 7.5 1 3.7z" fill="#ffeec8"/><path d="m522.5 172.3-2 43.2h-.5l-11.5 4.3-10.2 4-9.5 3.5-9.3 3.2-9.5 3-5.2 1.5-5.5 1.3-5.8 1.2-6.5 1.3-7 1-7.5 1.2-6.7.8-5.8.2-5-.2-4.7-.5-5-1-5.8-1.3-14.2-3.7-4.5 1.2-1.8-5.2-2-5.5-2-5.3-2-5-4.5-9.7-4.5-8.8-4-7.2-3.2-5.8-3-5-.3-.5 2.3-1.2 2.5-1.8 2.2-1.7 2.3-2 4.7.5 1.8 1.2 4.7 2.8 7.3 3.7 9 4.5 5.2 2 5.3 2 5.2 2 5.5 1.5 5.5 1.3 5.3.5 5.2.2h2.5l2.5-.2 7.3-1.3 7.5-1.2 15.2-3.3 15.3-3.5 14-3.5 12.2-3.5 9.8-2.5 8.5-2.7z" fill="#a9d7f3"/><path d="m386.3 345.3v2.5l-.5.7-.3 1.3-.7 4.2-.5 6-.3 6.8-.2 14.5v11.7l-1.5 1-6.5 3.3-6.3 2.7-6.5 2.3-6.5 2-6.5 1.5-6.5 1.2-6.5 1-6.5.5-6.2.5h-6.5l-6.3-.2-6.2-.3-6-.5-5.8-.7-5.7-1-5.5-1-10.5-2.3-9.8-2.5-8.5-2.7-7.2-2.5-6-2.3-4.3-2-3.7-1.7h-2v-10.3l.2-10.2.8-10.8.7-10.7 1.3-10.5 1-10.8 2.7-20.7 5.5-37.3 2-15.5.8-6.7.5-6 .5-4.5.5-4.5 1-4.3 1-4.2 1.5-4 1.5-3.8 1.5-3.7 1.7-3.8 2-3.2 2-3.5 4.3-6 4.2-5.8 4.8-5 4.5-4.2 4.2-3.8 4-3.2 3.8-2.8 5.2-3.5 2-1.2 3.8 4.2 4 3.8 4.2 3.5 4.5 2.7 2.5 1 2.3 1.3 2.5.7 2.5.8 2.5.7 2.7.3 2.5.2 2.8.3 2.7-.3 2.8-.2 2.5-.5 2.7-.5 2.5-.8 2.5-1 2.5-1 2.5-1.5.3.5 3 5 3.2 5.8 4 7.2 4.5 8.8 4.5 9.7 2 5 2 5.3 2 5.5 1.8 5.2 1 4.5 2.5 10.5 2 9.3 1.2 7.5 1 6.2 1 8.3.3 2.5 3.2.5 9 1.2 12.8 1.3 7.5.5 7.7.5 8 .5h8l7.8-.3 7.2-.5 6.8-1 3-.5 2.7-.7 2.5-.8 2.3-1 2-1.2 1.5-1.3 6.5 41.5-2.3 1.8-9.7 3-10.8 2.7-13.7 3.5-15.8 3.5-8.2 1.8-8.5 1.5-8.5 1.2-8.3 1-8.2.8z" fill="#a9d7f3"/><path d="m374.3 462.8-.8-.8-4 2-3.5 1.5-4.7 1.8-5.3 2-6.2 2-7 1.7-7.8 1.8-8 1.2-8.7 1-4.5.3-4.5.2h-4.8l-4.7-.2-4.8-.3-4.7-.5-5-1-5-1-5-1.2-5-1.5-5-1.8-5-2-2.8-1.2-2.5-1.8-2.5-1.7-2.2-2-2.3-2.3-2-2.2-2-2.8-1.7-2.7-1.5-3-1.5-3-1.3-3.3-1.2-3.2-2-7.3-1.8-7.5-1.2-8.2-.8-8.5-.5-8.8-.2-9.2h2l3.7 1.7 4.3 2 6 2.3 7.2 2.5 8.5 2.7 9.8 2.5 10.5 2.3 5.5 1 5.7 1 5.8.7 6 .5 6.2.3 6.3.2h6.5l6.2-.5 6.5-.5 6.5-1 6.5-1.2 6.5-1.5 6.5-2 6.5-2.3 6.3-2.7 6.5-3.3 1.5.8 10.5 4.2 11.7 4.3 12.5 4.5 12.3 4.5 11.5 4.5 5 2.2 4.7 2.3 4 2.2 3.5 2.5 2.5 2.3 1 1 .8 1.2 1.5 2.3 1.2 2.7 1 2.5 1 2.8.5 3 .5 3v3l-.2 3-1 3.2-1 3.3-1.8 3.2-2.2 3-3 3.3-3.5 3.2-4 3.3-5 3.2-12.3 7.3-15.5 8.5-34 18.2-29 15.3-12 6.5-39.7-21.3h-1.5l2.7-2.5 3.3-2.5 3.7-2 4.3-2 2.7-1.2 3-1.5 6.5-3.8 7.3-4.7 7.2-5.5 7.8-5.8 7.5-6.2 7.5-6.3z" fill="#7a7878"/><path d="m373.8 567 2.7 2 2.5 2 1.5 2.3 1.3 2.2.5 2.5v2.5l-.8 2.5-1 2.3-1.5 2.2-2 2-2.5 1.5-2.7 1.5-3 1-3.5.8h-3.8l-4-.3-2.2-.5-2.3-.5-5.2-1.7-5.5-2.5-5.5-2.8-5.8-3.2-5.7-3.8-5.8-3.7-5.2-4-8.5-6.5-3.8-3.3-3.2-3-3-3-2.3-2.5-2-2.5-1.2-2v-3.5l.5-4 .7-5 .8-2.7 1-2.8 1-3 1.2-3 1.8-3 1.7-3 2.3-2.7 2.5-2.8h1.5l39.7 21.3 2 3.7 2.3 4 3.5 5 4 5.5 2.5 2.8 2.5 2.7 2.7 2.5 2.8 2.5 3.2 2z" fill="#231f20"/><path d="m373.5 462 .8.8-7 6.2-7.5 6.3-7.5 6.2-7.8 5.8-7.2 5.5-7.3 4.7-6.5 3.8-3 1.5-2.7 1.2-4.3 2-3.7 2-3.3 2.5-2.7 2.5-2.5 2.8-2.3 2.7-1.7 3-1.8 3-1.2 3-1 3-1 2.8-.8 2.7-.7 5-.5 4v3.5l1.2 2 2 2.5 2.3 2.5 3 3 3.2 3 3.8 3.3 8.5 6.5-1 2.5v6l-.3 6.2-.5 8-1 9-.7 4.5-.8 4.5-1.2 4.5-1.3 4.5-1.5 4-1.7 3.8-4 7-4.3 6.7-4.2 6.5-4.8 6.5-9.2 12-9 11.5-4.3 5.5-4 5.3-3.5 5.2-3.2 5-2.5 5-2 4.8-.8 2.2-.5 2.3-.5 2.5v2.2l-3.7-.2-42-1 3.7-10.3 3.8-10.7 3.2-11 1.5-5.8 1.3-5.5 2.2-9.2 2.5-8.8 2.5-8.2 2.8-7.5 3-7.3 3-6.5 3-6 2.7-5.5 3-5 2.8-4.5 5-7.2 4-5.3 2.5-2.7.2-1 .3-1.5.2-5-.2-7-.5-9-1.8-22-2.5-24.8-2.5-25-2.5-21.7-2.7-22.5 1.7 2.7 2 2.8 2 2.2 2.3 2.3 2.2 2 2.5 1.7 2.5 1.8 2.8 1.2 5 2 5 1.8 5 1.5 5 1.2 5 1 5 1 4.7.5 4.8.3 4.7.2h4.8l4.5-.2 4.5-.3 8.7-1 8-1.2 7.8-1.8 7-1.7 6.2-2 5.3-2 4.7-1.8 3.5-1.5z" fill="#7a7878"/><path d="m332.8 51h2.7l2.5.3 2.8.5 2.5.5 2.5.7 2.5 1 2.2 1 2.5 1.3 4.5 2.7 4.3 3.3 4 3.7 3.7 4.5 3.3 4.8 3 5 2.5 5.5 2.2 5.7 1.8 6.3 1.2 6.2.8 6.8.2 6.7v4.3l-.2 4-.5 4-.8 4-.7 4-1 3.7-1.3 3.5-1.2 3.5-1.5 3.5-1.8 3.3-1.7 3.2-2 3-2 2.8-2.3 2.7-2.2 2.5-2.5 2.3-2.3 2-2.2 1.7-2.5 1.8-2.3 1.2-2.5 1.5-2.5 1-2.5 1-2.5.8-2.7.5-2.5.5-2.8.2-2.7.3-2.8-.3-2.5-.2-2.7-.3-2.5-.7-2.5-.8-2.5-.7-2.3-1.3-2.5-1-4.5-2.7-4.2-3.5-4-3.8-3.8-4.2-3.2-4.8-3-5.2-2.5-5.5-2.3-5.8-1.7-6-1.3-6.5-.7-6.7-.5-6.8.5-6.7.7-6.8 1.3-6.2 1.7-6.3 2.3-5.7 2.5-5.5 3-5 3.2-4.8 3.8-4.5 4-3.7 4.2-3.3 4.5-2.7 2.5-1.3 2.3-1 2.5-1 2.5-.7 2.5-.5 2.7-.5 2.5-.3z" fill="#ffeec8"/><path d="m269.8 747.3-10.8 30-4.2-.5-9.8-1-15.7-1.3-22.3-1.2-4.5-.5-2-.3-1.7-.5-1.8-.7-1.2-.8-1.3-1-1.2-1-.8-1-.7-1.2-.8-1.3-.5-1.5-.5-3.2v-3.5l.5-3.8.8-4.2 1.2-4.5 1.5-4.8 3.5-10.5 4.3-11.2 42 1 3.7.2v1.3l.3 3.7.5 3.5 1 3 1.2 2.8 1.5 2.2 1.8 2.3 1.7 1.7 1.8 1.5 2 1.3 1.7 1.2 3.8 1.8 3 1.2z" fill="#231f20"/><g fill="none" stroke="#231f20" stroke-linecap="round" stroke-miterlimit="10"><path d="m296 164.8-3.2-4.8-3-5.2-2.5-5.5-2.3-5.8-1.7-6-1.3-6.5-.7-6.7-.5-6.8.5-6.7.7-6.8 1.3-6.2 1.7-6.3 2.3-5.7 2.5-5.5 3-5 3.2-4.8 3.8-4.5 4-3.7 4.2-3.3 4.5-2.7 2.5-1.3 2.3-1 2.5-1 2.5-.7 2.5-.5 2.7-.5 2.5-.3h5.5l2.5.3 2.8.5 2.5.5 2.5.7 2.5 1 2.2 1 2.5 1.3 4.5 2.7 4.3 3.3 4 3.7 3.7 4.5 3.3 4.8 3 5 2.5 5.5 2.2 5.7 1.8 6.3 1.2 6.2.8 6.8.2 6.7v4.3l-.2 4-.5 4-.8 4-.7 4-1 3.7-1.3 3.5-1.2 3.5-1.5 3.5-1.8 3.3-1.7 3.2-2 3-2 2.8-2.3 2.7-2.2 2.5-2.5 2.3-2.3 2-2.2 1.7-2.5 1.8-2.3 1.2-2.5 1.5-2.5 1-2.5 1-2.5.8-2.7.5-2.5.5-2.8.2-2.7.3-2.8-.3-2.5-.2-2.7-.3-2.5-.7-2.5-.8-2.5-.7-2.3-1.3-2.5-1-4.5-2.7-4.2-3.5-4-3.8zm57.8 14.2 3 5 3.2 5.8 4 7.2 4.5 8.8 4.5 9.7 2 5 2 5.3 2 5.5 1.8 5.2 1 4.5 2.5 10.5 2 9.3 1.2 7.5 1 6.2 1 8.3.3 2.5 3.2.5 9 1.2 12.8 1.3 7.5.5 7.7.5 8 .5h8l7.8-.3 7.2-.5 6.8-1 3-.5 2.7-.7 2.5-.8 2.3-1 2-1.2 1.5-1.3 6.5 41.5 8.2-5.2 8.3-5.5 9.2-6.3 9.3-6.7 4.2-3.3 3.8-3 3-2.5 2.2-2.5 1.5-1.7.3-.8-.3-.5-.7-3-1-3.7-1-3.5-1.3-4-1-2.3-1.2-2.2-1.3-2.3-1.5-2.2-1.7-2-2-2-2.3-2-2.5-1.5-1.7-.8-1.8-.2-1.7.2-2 .5-2 1-2 1.3-2.3 1.5-2.2 2-5 4.5-5.3 5.2-6 5.8-6.7 6.2m-239.5 168.8 1.7 2.7 2 2.8 2 2.2 2.3 2.3 2.2 2 2.5 1.7 2.5 1.8 2.8 1.2 5 2 5 1.8 5 1.5 5 1.2 5 1 5 1 4.7.5 4.8.3 4.7.2h4.8l4.5-.2 4.5-.3 8.7-1 8-1.2 7.8-1.8 7-1.7 6.2-2 5.3-2 4.7-1.8 3.5-1.5 4-2 .5-.2m-78-297-2 1.2-5.2 3.5-3.8 2.8-4 3.2-4.2 3.8-4.5 4.2-4.8 5-4.2 5.8-4.3 6-2 3.5-2 3.2-1.7 3.8-1.5 3.7-1.5 3.8-1.5 4-1 4.2-1 4.3-.5 4.5-.5 4.5-.5 6-.8 6.7-2 15.5-5.5 37.3-2.7 20.7-1 10.8-1.3 10.5-.7 10.7-.8 10.8-.2 10.2v10.3l.2 9.2.5 8.8.8 8.5 1.2 8.2 1.8 7.5 2 7.3 1.2 3.2 1.3 3.3 1.5 3 1.5 3m68.2-188.8.5 3 2 7.8 1.5 5.2 2 6 2.3 6.3 2.5 6.7 3.2 7 3.3 7 4 6.5 2.2 3.3 2 3 2.5 3 2.5 2.7 2.5 2.8 2.8 2.2 2.7 2.3 3 2 3 1.5 3.3 1.2 2.7 1 3 .8 3.3.5 3.5.5 7.5.5h8l8-.5 8.2-.8 8.3-1 8.5-1.2 8.5-1.5 8.2-1.8 15.8-3.5 13.7-3.5 10.8-2.7 9.7-3m-99.7 22-.5.7-.3 1.3-.7 4.2-.5 6-.3 6.8-.2 14.5v16.2" stroke-width="14"/><path d="m379.5 392.8 2.8 1.2 1.5.8 10.5 4.2 11.7 4.3 12.5 4.5 12.3 4.5 11.5 4.5 5 2.2 4.7 2.3 4 2.2 3.5 2.5 2.5 2.3 1 1 .8 1.2 1.5 2.3 1.2 2.7 1 2.5 1 2.8.5 3 .5 3v3l-.2 3-1 3.2-1 3.3-1.8 3.2-2.2 3-3 3.3-3.5 3.2-4 3.3-5 3.2-12.3 7.3-15.5 8.5-34 18.2-29 15.3-12 6.5 2 3.7 2.3 4 3.5 5 4 5.5 2.5 2.8 2.5 2.7 2.7 2.5 2.8 2.5 3.2 2 3.3 2 2.7 2 2.5 2 1.5 2.3 1.3 2.2.5 2.5v2.5l-.8 2.5-1 2.3-1.5 2.2-2 2-2.5 1.5-2.7 1.5-3 1-3.5.8h-3.8l-4-.3-2.2-.5-2.3-.5-5.2-1.7-5.5-2.5-5.5-2.8-5.8-3.2-5.7-3.8-5.8-3.7-5.2-4-8.5-6.5-3.8-3.3-3.2-3-3-3-2.3-2.5-2-2.5-1.2-2v-3.5l.5-4 .7-5 .8-2.7 1-2.8 1-3 1.2-3 1.8-3 1.7-3 2.3-2.7 2.5-2.8 2.7-2.5 3.3-2.5 3.7-2 4.3-2 2.7-1.2 3-1.5 6.5-3.8 7.3-4.7 7.2-5.5 7.8-5.8 7.5-6.2 7.5-6.3 7-6.2 9.7-9 7.8-7.3 7.2-6.7m-156.7 11.5 2.7 22.5 2.5 21.7 2.5 25 2.5 24.8 1.8 22 .5 9 .2 7-.2 5-.3 1.5-.2 1-2.5 2.7-4 5.3-5 7.2-2.8 4.5-3 5-2.7 5.5-3 6-3 6.5-3 7.3-2.8 7.5-2.5 8.2-2.5 8.8-2.2 9.2-1.3 5.5-1.5 5.8-3.2 11-3.8 10.7-3.7 10.3-4.3 11.2-3.5 10.5-1.5 4.8-1.2 4.5-.8 4.2-.5 3.8v3.5l.5 3.2.5 1.5.8 1.3.7 1.2.8 1 1.2 1 1.3 1 1.2.8 1.8.7 1.7.5 2 .3 4.5.5 22.3 1.2 15.7 1.3 9.8 1 4.2.5h.3" stroke-width="14"/><path d="m313.3 573.8v6l-.3 6.2-.5 8-1 9-.7 4.5-.8 4.5-1.2 4.5-1.3 4.5-1.5 4-1.7 3.8-4 7-4.3 6.7-4.2 6.5-4.8 6.5-9.2 12-9 11.5-4.3 5.5-4 5.3-3.5 5.2-3.2 5-2.5 5-2 4.8-.8 2.2-.5 2.3-.5 2.5v3.5l.3 3.7.5 3.5 1 3 1.2 2.8 1.5 2.2 1.8 2.3 1.7 1.7 1.8 1.5 2 1.3 1.7 1.2 3.8 1.8 3 1.2 2 .8.5.5.2.2m34.8-235 39.7 21.3m-144.2 183.5h1l42 1m-11.5-329.5 3.7 1.7 4.3 2 6 2.3 7.2 2.5 8.5 2.7 9.8 2.5 10.5 2.3 5.5 1 5.7 1 5.8.7 6 .5 6.2.3 6.3.2h6.5l6.2-.5 6.5-.5 6.5-1 6.5-1.2 6.5-1.5 6.5-2 6.5-2.3 6.3-2.7 6.5-3.3 1.5-1 2.5-1.5m136-219.2-8.5 2.7-9.8 2.5-12.2 3.5-14 3.5-15.3 3.5-15.2 3.3-7.5 1.2-7.3 1.3-2.5.2h-2.5l-5.2-.2-5.3-.5-5.5-1.3-5.5-1.5-5.2-2-5.3-2-5.2-2-9-4.5-7.3-3.7-4.7-2.8-1.8-1.2m17.8 63 14.2 3.7 5.8 1.3 5 1 4.7.5 5 .2 5.8-.2 6.7-.8 7.5-1.2 7-1 6.5-1.3 5.8-1.2 5.5-1.3 5.2-1.5 9.5-3 9.3-3.2 9.5-3.5 10.2-4 11.5-4.3" stroke-width="14"/><path d="m526.8 69-4.3 103.3-2 43.2-.5 12 14 44.3 2.3 7.5 9.7 31.5-72 159.5-76.5 62-9 83-15 11.2-33 24.5-18 13.5-15.5 12.3-11.5 9.2-3.2 3-1 1-.5.8-3.8 9.5-5 13.7-12.2 33.3-10.8 30-6 16.2m394.8-609.5-49.5 256.3m53.2-40.3-53.7 41.3-35.8-57.5" stroke-width="21"/></g></svg>