<svg height="850.394" viewBox="0 0 850.394 850.394" width="850.394" xmlns="http://www.w3.org/2000/svg"><path d="m390.15 614.69c.02 8.31-.14 16.779-4.38 23.39-4.26 6.65-10.19 10.76-16.39 13.81-9.75 4.78-19.01 8.46-29.4 9.67-15.31 1.78-38.11 4.29-57.68-8.119-7.48-4.73-13.95-12.95-18.61-20.7-6.74-11.17-10.99-24.141-10.99-40.431 0 0-.41-12.92 8.18-20.689 4.28-3.84 10.71-6.99 14.04-17.3 1.49-4.61 4.52-9.221 7.81-11.54 9.17-6.46 19.97-7.681 27.85-6.88 13.92 1.38 25.18 5.43 30.74 8.29 17.96 9.27 25.22 14.699 35.24 27.21 10.15 12.669 13.54 25.089 13.59 43.289z" fill="#abd153"/><path d="m549.36 641.66c.029 1.06.05 2.14.05 3.25.03 8.3-.13 16.78-4.37 23.399-4.26 6.631-10.2 10.75-16.4 13.811-9.75 4.78-19.01 8.45-29.39 9.67-9.72 1.13-22.46 2.55-35.47.26-7.49-1.319-15.07-3.859-22.221-8.39-7.47-4.72-13.939-12.96-18.609-20.69-6.73-11.17-10.99-24.149-10.99-40.439 0 0-.4-12.92 8.18-20.681 4.29-3.859 10.709-6.989 14.04-17.3 1.5-4.62 4.521-9.22 7.811-11.55 9.17-6.46 19.97-7.67 27.85-6.89 13.93 1.399 25.18 5.449 30.74 8.3 17.97 9.28 25.22 14.7 35.24 27.21 9.539 11.9 13.109 23.59 13.539 40.04zm-295.89-160.95c1.67-3.53 3.62-3.85 1.51-8.93-3.3-7.931-8.01-23.12 7.39-23.12 0 0 8.22 6.27 26.1 6.27 18.65 0 23.17.521 35.68-2.229-8.65 10.27-11.01 34.16-.55 41.83-3.36-1.181-7.05-2.2-11.23-3.04-16.78-3.391-27.36-2.851-39.94 6.09-11.36 8.07-20.75 2.84-20.75-6.51 0-5.401.85-8.381 1.79-10.361z" fill="#ffffc2"/><path d="m523.03 469.52c.42 2.65.64 5.141.64 7.4 0 16.23-9.02 54.64-23.28 62.54-13.64 7.56-44.02 21.93-61 14.61-16.979-7.32-30.81-12.19-30.81-12.19s-35.85-18.689-51.57-28.439c-12.46-7.73-20.57-14.44-33.41-18.91-10.46-7.67-8.1-31.561.55-41.83 3.04-.67 6.55-1.53 10.86-2.641 22.01-5.67 50.94-32.069 84.59-37.75 38.9-6.57 61.31-2.83 77.03 8.54 13.55 9.8 23.81 32.24 26.4 48.67z" fill="#f6cc4b"/><path d="m323.6 494.53c12.84 4.47 20.95 11.18 33.41 18.91 15.72 9.75 51.57 28.439 51.57 28.439s13.83 4.87 30.81 12.19c16.98 7.319 47.36-7.051 61-14.61 14.261-7.9 23.28-46.31 23.28-62.54 0-2.26-.22-4.75-.64-7.4 36.439 24.211 59.21 58.671 59.21 96.931 0 27.93-12.15 53.84-32.88 75.21-.431-16.45-4-28.141-13.54-40.04-10.021-12.51-17.271-17.93-35.24-27.21-5.561-2.851-16.811-6.9-30.74-8.3-7.88-.78-18.68.43-27.85 6.89-3.29 2.33-6.311 6.93-7.811 11.55-3.33 10.311-9.75 13.44-14.04 17.3-8.58 7.761-8.18 20.681-8.18 20.681 0 16.29 4.26 29.27 10.99 40.439 4.67 7.73 11.14 15.971 18.609 20.69 7.15 4.53 14.73 7.07 22.221 8.39-7.681 4.8-43.58 7.021-68.04 7.021-103 0-186.5-59.38-186.5-132.62 0-32.7 16.63-62.63 44.23-85.74-.94 1.98-1.79 4.96-1.79 10.36 0 9.35 9.39 14.58 20.75 6.51 12.58-8.94 23.16-9.48 39.94-6.09 4.181.839 7.871 1.859 11.231 3.039zm62.17 143.55c4.24-6.61 4.4-15.08 4.38-23.39-.05-18.2-3.44-30.62-13.59-43.29-10.02-12.511-17.28-17.94-35.24-27.21-5.56-2.86-16.82-6.91-30.74-8.29-7.88-.801-18.68.42-27.85 6.88-3.29 2.319-6.32 6.93-7.81 11.54-3.33 10.31-9.76 13.46-14.04 17.3-8.59 7.77-8.18 20.689-8.18 20.689 0 16.29 4.25 29.261 10.99 40.431 4.66 7.75 11.13 15.97 18.61 20.7 19.57 12.409 42.37 9.899 57.68 8.119 10.39-1.21 19.65-4.89 29.4-9.67 6.2-3.049 12.13-7.159 16.39-13.809z" fill="#fff"/><path d="m324.15 452.7c-12.51 2.75-17.03 2.229-35.68 2.229-17.88 0-26.1-6.27-26.1-6.27-15.4 0-10.69 15.189-7.39 23.12 2.11 5.08.16 5.399-1.51 8.93-27.6 23.11-44.23 53.04-44.23 85.74 0 73.24 83.5 132.62 186.5 132.62 24.46 0 60.359-2.221 68.04-7.021 13.01 2.29 25.75.87 35.47-.26 10.38-1.22 19.64-4.89 29.39-9.67 6.2-3.061 12.141-7.18 16.4-13.811 4.24-6.619 4.4-15.1 4.37-23.399 0-1.11-.021-2.19-.05-3.25 20.729-21.37 32.88-47.28 32.88-75.21 0-38.26-22.771-72.72-59.21-96.931-2.59-16.43-12.851-38.869-26.4-48.669-15.72-11.37-38.13-15.11-77.03-8.54-33.65 5.68-62.58 32.08-84.59 37.75-4.31 1.112-7.82 1.972-10.86 2.642zm71.59-71.21c130.29 0 235.92 82.5 235.92 184.29 0 101.779-105.63 184.29-235.92 184.29s-235.91-82.51-235.91-184.29c0-101.79 105.62-184.29 235.91-184.29z" fill="#ee947d"/><path d="m696.8 510.45v256.75h-29.16l.5-237.05s.16-8.87-.739-19.7z" fill="#7a7878"/><path d="m85.15 351.28h49.4s3.96 71.6 6.04 91.31c1.38 13.271-.51 24.641-6.88 31-6.36 6.37-12.9 12.91-14.91 23.63-2.01 10.721 4.02 29.311 4.02 29.311l.51 241.109h-26.96l.5-241.109s6.03-18.59 4.02-29.311c-2.01-10.72-8.54-17.26-14.91-23.63-6.36-6.359-8.26-17.729-6.87-31 2.07-19.71 6.04-91.31 6.04-91.31zm611.65.96v158.21h-29.4c-.67-7.95-1.91-16.96-4.21-24.28-5.431-17.3-11.86-18.29-8.4-49.92s10.12-52.58 14.34-73.64c3.95-19.77 7.24-32.92 20.76-29.15 0 0 6.91-.99 6.91 18.78z" fill="#c8c8c8"/><g fill="none"><g stroke="#231f20" stroke-width="14"><path d="m134.55 351.28s3.96 71.6 6.04 91.31c1.38 13.271-.51 24.641-6.88 31-6.36 6.37-12.9 12.91-14.91 23.63-2.01 10.721 4.02 29.311 4.02 29.311l.51 241.109h-26.96l.5-241.109s6.03-18.59 4.02-29.311c-2.01-10.72-8.54-17.26-14.91-23.63-6.36-6.359-8.26-17.729-6.87-31 2.07-19.71 6.04-91.31 6.04-91.31m14.49.08v79.34m18.59-79.34v79.26m549.17 79.83c.899 10.83.739 19.7.739 19.7l-.5 237.05h29.16v-256.75-158.21c0-19.77-6.91-18.78-6.91-18.78-13.52-3.77-16.81 9.38-20.76 29.15-4.22 21.06-10.88 42.01-14.34 73.64s2.97 32.62 8.4 49.92c2.301 7.32 3.541 16.33 4.211 24.28zm-.01 0h29.41m-65.14 55.33c0 101.779-105.63 184.29-235.92 184.29s-235.91-82.51-235.91-184.29c0-101.79 105.62-184.29 235.91-184.29s235.92 82.5 235.92 184.29z"/><path d="m520.05 467.58c1 .64 2 1.28 2.98 1.939 36.439 24.211 59.21 58.671 59.21 96.931 0 27.93-12.15 53.84-32.88 75.21-.25.27-.511.53-.771.8m-83.329 47.66c0 .68-.52 1.32-1.479 1.93-7.681 4.8-43.58 7.021-68.04 7.021-103 0-186.5-59.38-186.5-132.62 0-32.7 16.63-62.63 44.23-85.74l.02-.02"/><path d="m523.03 469.52c.42 2.65.64 5.141.64 7.4 0 16.23-9.02 54.64-23.28 62.54-13.64 7.56-44.02 21.93-61 14.61-16.979-7.32-30.81-12.19-30.81-12.19s-35.85-18.689-51.57-28.439c-12.46-7.73-20.57-14.44-33.41-18.91-3.36-1.181-7.05-2.2-11.23-3.04-16.78-3.391-27.36-2.851-39.94 6.09-11.36 8.07-20.75 2.84-20.75-6.51 0-5.4.85-8.38 1.79-10.36 1.67-3.53 3.62-3.85 1.51-8.93-3.3-7.931-8.01-23.12 7.39-23.12 0 0 8.22 6.27 26.1 6.27 18.65 0 23.17.521 35.68-2.229 3.04-.67 6.55-1.53 10.86-2.641 22.01-5.67 50.94-32.069 84.59-37.75 38.9-6.57 61.31-2.83 77.03 8.54 13.55 9.799 23.81 32.239 26.4 48.669z"/><path d="m323.63 494.55c-.01-.01-.02-.01-.03-.02-10.46-7.67-8.1-31.561.55-41.83.06-.07.11-.141.17-.2m-49.4 101.82c1.49-4.61 4.52-9.221 7.81-11.54 9.17-6.46 19.97-7.681 27.85-6.88 13.92 1.38 25.18 5.43 30.74 8.29 17.96 9.27 25.22 14.699 35.24 27.21 10.15 12.67 13.54 25.09 13.59 43.29.02 8.31-.14 16.779-4.38 23.39-4.26 6.65-10.19 10.76-16.39 13.81-9.75 4.78-19.01 8.46-29.4 9.67-15.31 1.78-38.11 4.29-57.68-8.119-7.48-4.73-13.95-12.95-18.61-20.7-6.74-11.17-10.99-24.141-10.99-40.431 0 0-.41-12.92 8.18-20.689 4.28-3.841 10.71-6.991 14.04-17.301zm188.86 137.73c-7.49-1.319-15.07-3.859-22.221-8.39-7.47-4.72-13.939-12.96-18.609-20.69-6.73-11.17-10.99-24.149-10.99-40.439 0 0-.4-12.92 8.18-20.681 4.29-3.859 10.709-6.989 14.04-17.3 1.5-4.62 4.521-9.22 7.811-11.55 9.17-6.46 19.97-7.67 27.85-6.89 13.93 1.399 25.18 5.449 30.74 8.3 17.97 9.28 25.22 14.7 35.24 27.21 9.54 11.899 13.109 23.59 13.54 40.04.029 1.06.05 2.14.05 3.25.03 8.3-.13 16.78-4.37 23.399-4.26 6.631-10.2 10.75-16.4 13.811-9.75 4.78-19.01 8.45-29.39 9.67-9.721 1.13-22.461 2.55-35.471.26zm252.69-599.86-63.08 101.98-.23.37m88.43-73.5-48.41 10.28m-13.73-48.72 12.42 47.91m-101.9 166.18 63.05-101.92.12-.2.02-.03m-88.3 73.31 48.41-10.29m13.72 48.72-12.41-47.9m-24.8-167.07 63.3 102.35m-88.42-73.51 48.4 10.29m13.73-48.72-12.41 47.91"/><path d="m716.27 295.81-62.63-101.24-.25-.4-.17-.28-.14-.23m88.3 73.31-48.4-10.29m-13.73 48.71 12.41-47.89m82.17-62.93h-120.33m109.02 36.53-34.21-35.75m34.21-37.3-34.21 35.76m-194.93.76h120.12m-108.8-36.53 34.21 35.75m-34.21 37.3 34.21-35.75"/></g><path d="m0 0h850.394v850.394h-850.394z"/></g></svg>