<svg height="850" viewBox="0 0 850 850" width="850" xmlns="http://www.w3.org/2000/svg"><path d="m674.3 733.3-15.3.5-.2-3.8-19-301.7 95.2 2.5v.2l-2.2 12.5-2.5 13.5-2.5 12.3-2 9.5-2.8 10-2.2 7-1.5 4.2-.5 1.3-.3 231h-3z" fill="#c8c8c8"/><path d="m639.8 428.3 19 301.7h-15.3l-11.2.3-21.8-302.3v-.5z" fill="#c8c8c8"/><path d="m594 379.5-23 2.3v-5l.3-27.3v-4.7l23-6 84.2-22 25.3-130 3.5 2.5 3.5 2.7 3.5 3 3.7 3.5 4.3 4.5 3.7 4.8 3.5 4.7 3 5 2.8 4.8 2.5 4.7 2 4.5 2 4.3 2.7 7.7 1.8 6.3 1 4 .2 1.5-.5 25.7h-.5l-31.7 86z" fill="#ffffc2"/><path d="m639.8 428.3-29.3-.8-15-.5-.5-6.7-.5-12.5-.5-28.3 120.8-12.5 31.7-86h.5l-3.5 150-8.5-.2zm64-241.5-25.3 130-84.2 22-.8-2.8.3-19.7.5-19.5.5-18.3 1-17 1-15.2 1.5-13 .7-5.8 1-5 1-4.2 1-3.8 1.3-3 1.5-3.2 1.7-3.3 2-3.2 4.3-6.5 4.2-6 4-5.3 3.5-4.2 3-4 2.3-2.8 3 2.3 3 2 3 1.7 3.2 1.3 3.3 1.2 3.2.5 3.5.5h3.5l4.3-.7 4-1 3.7-1.5 3.8-2.3 3.5-2.5 3.2-3 3-3.2 2.8-3.8v1.8l.2 1.7.5 1.5.8 1.5.7 1.5 1 1.3 2.5 2.7 3 2.3 3.5 2.5z" fill="#ffffc2"/><path d="m715.5 732.3.3 5v8l-.3 2.2-.2 2.3-.5 2.2-.8 2.3-1 2-1.2 2-1.8 2-2.2 1.5-2.5 1.2-3.3 1-3.7.8-4.5.2-3.5-.2-2.8-.3-2.5-.5-2.5-.2-3 .2-4 .8-5 1.5-6.7 2.5-3 1-2.8 1-3 .5-2.7.7-2.8.3-2.7.2h-5l-4.8-.5-4.2-1-2-.7-1.5-.8-1.5-1-1.5-.7-1.3-1.3-1-1.2-.5-1.5-.5-1.3.3-1v-.7l.5-.8.5-.7 1.7-1.3 2.3-1.5 6.5-3 4.5-2.2 4.7-2.8 7.5-4 9-4.5 13.8-6.7z" fill="#231f20"/><path d="m659 733.8 15.3-.5-13.8 6.7-9 4.5-7.5 4-4.7 2.8-4.5 2.2-6.5 3-2.3 1.5-1.7 1.3-.5.7-.5.8v.7l-.3 1 .5 1.3.5 1.5 1 1.2 1.3 1.3-.8 1.5-3.2.7-3.3.5-3.2.3-3.3-.3-3-.2-2.7-.3-2.8-.5-2.7-.7-2.3-1-2.2-.8-1.8-1-1.7-1-1.3-1-1-1-.5-1-.5-1 .3-1v-.7l.5-.8.5-.7 1.7-1.3 2.3-1.5 6.7-3 4.3-2.2 5-2.8 9.2-5 10.8-5.2 12.2-5.8v-1h15.3z" fill="#231f20"/><path d="m561.5 349.8.3 2-5.5 1-3 .2-3 .3h-3l-2.5-.5-2.5-.5-2.3-1-5-3.5-4.2-3.3-3.3-3.2-2.7-3.3-2.3-2.7-1.5-2.3-1.2-1.7-1-1.3-.5-.2-.5-.3h-.8l-.5.3-1.2 1-1 1.5-1 2.2-.3 2.5v3.3l.5 1.7.5 1.8 1.5 3.5 1.5 3 1 2.5.5 1v1.5l-.5.7-.5.8-1.2.5-1.5.5-1.8.5-5.5.7-5.7.5-4.5.8-3.3.7-1.2.8-1 .5-1 .7-.5.8-.3.7-.2 1v2.5l.5 3.3.5 2 1 1.7 1 1.8 1.5 1.7 1.7 1.5 1.8 1.5 2.2 1.3 2.3 1-.3.7h-35.7v-103.5h95.2z" fill="#f6cc4b"/><path d="m693.3 125 .2 5.8-.2 5.2-.8 5.5-1 5-1.5 5-1.7 4.5-2.3 4.5-2.2 4-2.8 3.8-3 3.2-3.2 3-3.5 2.5-3.8 2.3-3.7 1.5-4 1-4.3.7h-3.5l-3.5-.5-3.2-.5-3.3-1.2-3.2-1.3-3-1.7-3-2-3-2.3-1.8-1.7-2-2-3.5-4.3-3-5-2.7-5.2-2.3-5.5-2-6-1.2-6.3-.3-3.5-.2-3.2-.3-5.5.3-5.5.7-5.3 1-5.2 1.5-4.8 1.8-4.7 2-4.5 2.5-4 2.7-3.8 3-3.2 3.3-3 3.5-2.5 3.5-2 4-1.8 4-1 4.2-.5h4.3l4 .5 4.2 1 3.8 1.8 3.7 2 3.8 2.5 3.2 3 3.3 3.2 2.7 3.8 2.8 4.2 2.5 4.3 2 4.7 1.7 5 1.3 5 1 5.5zm-122 224.5-.3 27.3h-1l-5.5 1.5-13 3-8 1.7-8 1.8-7.7 1.2-6.5.8h-5.3l-4.7-.5-4.8-1-4.2-1.5-2.3-1-2.2-1.3-1.8-1.5-1.7-1.5-1.5-1.7-1-1.8-1-1.7-.5-2-.5-3.3v-2.5l.2-1 .3-.7.5-.8 1-.7 1-.5 1.2-.8 3.3-.7 4.5-.8 5.7-.5 5.5-.7 1.8-.5 1.5-.5 1.2-.5.5-.8.5-.7v-1.5l-.5-1-1-2.5-1.5-3-1.5-3.5-.5-1.8-.5-1.7v-3.3l.3-2.5 1-2.2 1-1.5 1.2-1 .5-.3h.8l.5.3.5.2 1 1.3 1.2 1.7 1.5 2.3 2.3 2.7 2.7 3.3 3.3 3.2 4.2 3.3 5 3.5 2.3 1 2.5.5 2.5.5h3l3-.3 3-.2 5.5-1 5.7-1.5 2.3-.8zm-256.3 46.5 5 2.8 3.8 2.5 2.7 2 1 1 .8 1 .2 1 .3 1v1l-.3 1-1 2.2-1.5 2.8-1.2 1.2-1.3 1.3-1.7 1.2-1.5.8-2 .7-2 .8-2.3.2-2.2.3h-4.8l-2.7-.3-2.5-.5-2.5-.7-2.8-1-2.5-1-2.7-1.3-3.5-2-3.8-2.2-8.5-5.5-8.2-6-7.5-5.8-9.3-7-1-.5 10.8-25 1.2.5 2.8 2.3 3 2.5 3.7 2.5 4.3 2.5 2.2 1.2 2.3 1 2.2.8 2 .5 2.3.2h2l6-1.2 5-1.5 4.5-1.5 3.7-1.8 3-1.7 2.5-1.5 1.8-1 1.5-.8.5-.2.5.2.5.3 1 .7.5 1.5.2 2-.2 2.3-.8 2.5-1.5 2.5-1 1.5-1 1.2-2.7 2.8-2.5 2-2 1.7-.8.8-.5.7-.2.8v.7l.5 1 .7 1 1.3 1 1.5 1zm39.3-46.2 5.2 3 3.8 2.2 2.7 2.3.8 1 .7.7.5 1 .3 1v1l-.3 1-1 2.3-1.7 2.7-1 1.3-1.5 1.2-1.5 1.3-1.8.7-1.7.8-2.3.7-2 .3-2.2.2h-5l-2.5-.2-2.5-.5-2.8-.8-2.5-1-2.7-1-2.5-1.2-5.8-3.3-6.5-4.2-10.2-7-9-7-9.3-7-1-.5 10.8-25 1.2.5 2.5 2.2 3.3 2.5 3.7 2.5 4.3 2.5 2 1.3 2.2 1 2.3.7 2.2.5 2 .3h2l6-1.3 5.3-1.5 4.5-1.5 3.5-1.7 3-1.8 2.5-1.2 2-1.3 1.2-.7.8-.3.5.3.5.2.5.5.7 1.3.5 1.7-.2 2.5-.8 2.5-.5 1.5-1 1.5-1 1.3-1.2 1.5-2.8 2.7-2.2 2-2 1.8-.8.7-.5.8-.2.7v1l.5.8.7 1 1 1 1.8 1.2zm-191.8-192.3-1.2-3.5-1-3.5-1-3.5-.8-3.7-.5-4-.2-4v-8l.5-5.8 1-5.2 1.5-5.3 1.7-5 2-4.5 2.3-4.5 2.7-4 2.8-3.7 3.2-3.3 3.5-3 3.5-2.5 3.8-2.2 4-1.5 4-1 4-.8h4.2l4.3.5 4 1.3 4 1.5 3.7 2.2 3.3 2.5 3.2 3 3 3.3 2.8 3.7 2.5 4 2 4.5 1.7 4.5 1.5 5 1 5 .8 5.3.2 5.5v5.7l-.5 3.5-.5 3.8-.5 3.5-1 3.2-.7 3.5-1.3 3-1.2 3.3-1.5 3-1.5 2.7-1.8 2.8-1.7 2.5-1.8 2.5-2 2.2-2.2 2-2.3 2-2.2 1.8-2.5 1.7-2.5 1.5-2.8 1.3-2.7 1-2.8.7-3 .5h-5.7l-2.8-.2-2.7-.5-2.5-.8-2.5-1-2.5-1-2.3-1.2-2.2-1.5-2.3-1.8-2-2-2-2-1.7-2-1.8-2.5-1.7-2.2-1.5-2.8-1.5-2.7z" fill="#ffeec8"/><path d="m546.5 416.8v357.5h-129l-38-357.5z" fill="#9e5c26"/><path d="m242.3 744.8 4.7 2.7 4.3 2.3 6.7 3.2 2.3 1.3 1.7 1.2.5.8.3.7.2.8v1l-.2 1.2-.5 1.5-1 1.3-1.3 1-1.5 1.2-1.7 1-2 .8-2.3.7-2.2.5-2.8.5-2.7.3h-5.8l-3.2-.3-3.3-.5-3.2-.7-2-.3.5-1.2.2-1.3v-1l-.2-.7-.5-.8-.5-.7-1.5-1.3-2.5-1.2-6.5-3.3-4.3-2.2-5-2.5-7.5-4.3-8.7-4.5-14-6.5 15.5.5.2-4h2.5l22.8.3 12.5 6.2 6.5 3.3z" fill="#231f20"/><path d="m207 750.8 5 2.5 4.3 2.2 6.5 3.3 2.5 1.2 1.5 1.3.5.7.5.8.2.7v1l-.2 1.3-.5 1.2-1 1.3-1.3 1.2-1.5 1.3-1.7 1-2 .7-2.3.8-2.2.5-2.8.5-2.7.2-3 .3-3-.3-3.3-.2-3.2-.5-3.3-.8-3.2-1-3.5-1.2-6.5-2.5-5.3-1.5-3.7-.5-3.3-.3-2.5.3-2.5.5-2.7.2-3.5.3-4.5-.5-3.8-.5-3-1-2.7-1.3-2.3-1.7-1.7-1.8-1.3-2-1-2-.7-2.2-.5-2.3-.3-2.5v-2.2l-.2-7.8.2-5 41.3 1 14 6.5 8.7 4.5z" fill="#231f20"/><path d="m217.8 732.3-22.8-.3h-2.5l18.8-301.7 29.2-.8v.8l-21.5 302z" fill="#7a7878"/><path d="m176.8 735.5-41.3-1-2.7-.2-.5-231-.5-1.3-1.5-4-2.3-7-2.5-10-2.2-9.7-2.5-12.3-2.5-13.2-2.3-12.5v-.5l95.3-2.5-18.8 301.7-.2 4z" fill="#7a7878"/><path d="m301.5 311.5-1.7 4.3-10.8 25-2 4.7-29.7-15-.5-23.5-.8-23zm-90.2 118.8-95.3 2.5-8.5.2-4-175.5 52.3 91 91.7 43.3 2-4.8 1 .5 9.3 7-2.5 3-.8 20.5-.5 6.8-.2 4.5-15.3.2z" fill="#a9d7f3"/><path d="m257.3 330.5.2 20.3-1.7 3.2 6.2 3.8-1.7 4.2-10.8 25-2 4.8-91.7-43.3-52.3-91-.7-5.5-.8-6v-6.5l.3-7 .5-3.5.5-3.5.7-3.5 1-3.7 1.3-3.5 1.5-3.5 1.7-3.3 2-3.5 1.3-1.7 1.2-1.5 2.8-3 3.5-2.5 3.5-2.3 3.7-1.7 3.8-1.8 4-1.5 3.7-1.2 7.5-2.3 6.3-2 2.7-1 2.3-1 1.7-1.2 1.3-1.3 1-2.5.7-3 .5-3 .3-3.2-.3-2.8v-2.7l-.5-3.8 1.3 2.8 1.5 2.7 1.5 2.8 1.7 2.2 1.8 2.5 1.7 2 2 2 2 2 2.3 1.8 2.2 1.5 2.3 1.2 2.5 1 2.5 1 2.5.8 2.7.5 2.8.2h5.7l3-.5 2.8-.7 2.7-1 2.8-1.3 2.5-1.5 2.5-1.7 5.7.2 3.3 3.8 3.2 4.2 4 5.3 4.5 6.2 4 6.5 2 3.3 1.8 3.2 1.5 3.3 1.2 3 1.3 4.5 1.2 5.7 1 7.3.8 8.2 1 9.3.7 10 1 22.2.8 23z" fill="#a9d7f3"/><g fill="none" stroke="#231f20" stroke-linecap="round" stroke-miterlimit="10"><path d="m210.5 729 7.3 3.3 12.5 6.2 6.5 3.3 5.5 3 4.7 2.7 4.3 2.3 6.7 3.2 2.3 1.3 1.7 1.2.5.8.3.7.2.8v1l-.2 1.2-.5 1.5-1 1.3-1.3 1-1.5 1.2-1.7 1-2 .8-2.3.7-2.2.5-2.8.5-2.7.3h-5.8l-3.2-.3-3.3-.5-3.2-.7" stroke-width="14"/><path d="m546.5 774.3h-129l-38-357.5h167z" stroke-width="21"/><path d="m162.5 157.5-1.2-3.5-1-3.5-1-3.5-.8-3.7-.5-4-.2-4v-8l.5-5.8 1-5.2 1.5-5.3 1.7-5 2-4.5 2.3-4.5 2.7-4 2.8-3.7 3.2-3.3 3.5-3 3.5-2.5 3.8-2.2 4-1.5 4-1 4-.8h4.2l4.3.5 4 1.3 4 1.5 3.7 2.2 3.3 2.5 3.2 3 3 3.3 2.8 3.7 2.5 4 2 4.5 1.7 4.5 1.5 5 1 5 .8 5.3.2 5.5v5.7l-.5 3.5-.5 3.8-.5 3.5-1 3.2-.7 3.5-1.3 3-1.2 3.3-1.5 3-1.5 2.7-1.8 2.8-1.7 2.5-1.8 2.5-2 2.2-2.2 2-2.3 2-2.2 1.8-2.5 1.7-2.5 1.5-2.8 1.3-2.7 1-2.8.7-3 .5h-5.7l-2.8-.2-2.7-.5-2.5-.8-2.5-1-2.5-1-2.3-1.2-2.2-1.5-2.3-1.8-2-2-2-2-1.7-2-1.8-2.5-1.7-2.2-1.5-2.8-1.5-2.7zm94.8 240-.8 20.5-.5 6.8-.2 4.5-15.3.2-29.2.8-95.3 2.5-8.5.2-4-175.5m120-79.5 3.3 3.8 3.2 4.2 4 5.3 4.5 6.2 4 6.5 2 3.3 1.8 3.2 1.5 3.3 1.2 3 1.3 4.5 1.2 5.7 1 7.3.8 8.2 1 9.3.7 10 1 22.2.8 23 .5 23.5.2 20.3m-17 79.5-21.5 302h-1.2l-22.8-.3m-19.7 2.8 1.5.7 14 6.5 8.7 4.5 7.5 4.3 5 2.5 4.3 2.2 6.5 3.3 2.5 1.2 1.5 1.3.5.7.5.8.2.7v1l-.2 1.3-.5 1.2-1 1.3-1.3 1.2-1.5 1.3-1.7 1-2 .7-2.3.8-2.2.5-2.8.5-2.7.2-3 .3-3-.3-3.3-.2-3.2-.5-3.3-.8-3.2-1-3.5-1.2-6.5-2.5-5.3-1.5-3.7-.5-3.3-.3-2.5.3-2.5.5-2.7.2-3.5.3-4.5-.5-3.8-.5-3-1-2.7-1.3-2.3-1.7-1.7-1.8-1.3-2-1-2-.7-2.2-.5-2.3-.3-2.5v-2.2l-.2-7.8" stroke-width="14"/><path d="m116 433.3 2.3 12.5 2.5 13.2 2.5 12.3 2.2 9.7 2.5 10 2.3 7 1.5 4 .5 1.3.5 231 2.7.2 41.3 1 15.5.5.2-4 18.8-301.7v-1m-48.8-272.8v1l.5 3.8v2.7l.3 2.8-.3 3.2-.5 3-.7 3-1 2.5-1.3 1.3-1.7 1.2-2.3 1-2.7 1-6.3 2-7.5 2.3-3.7 1.2-4 1.5-3.8 1.8-3.7 1.7-3.5 2.3-3.5 2.5-2.8 3-1.2 1.5-1.3 1.7-2 3.5-1.7 3.3-1.5 3.5-1.3 3.5-1 3.7-.7 3.5-.5 3.5-.5 3.5-.3 7v6.5l.8 6 .7 5.5 52.3 91 91.7 43.3 2-4.8 10.8-25 1.7-4.2-6.2-3.8-71.5-40.7-27.3-76.8m104.5 126 2.8 2.3 3 2.5 3.7 2.5 4.3 2.5 2.2 1.2 2.3 1 2.2.8 2 .5 2.3.2h2l6-1.2 5-1.5 4.5-1.5 3.7-1.8 3-1.7 2.5-1.5 1.8-1 1.5-.8.5-.2.5.2.5.3 1 .7.5 1.5.2 2-.2 2.3-.8 2.5-1.5 2.5-1 1.5-1 1.2-2.7 2.8-2.5 2-2 1.7-.8.8-.5.7-.2.8v.7l.5 1 .7 1 1.3 1 1.5 1 4.7 3 5 2.8 3.8 2.5 2.7 2 1 1 .8 1 .2 1 .3 1v1l-.3 1-1 2.2-1.5 2.8-1.2 1.2-1.3 1.3-1.7 1.2-1.5.8-2 .7-2 .8-2.3.2-2.2.3h-4.8l-2.7-.3-2.5-.5-2.5-.7-2.8-1-2.5-1-2.7-1.3-3.5-2-3.8-2.2-8.5-5.5-8.2-6-7.5-5.8-9.3-7m6.8-57 29.7 15 2-4.7 10.8-25 1.7-4.3-45.5-27.5-.2-.2m45.2 32.5 2.5 2.2 3.3 2.5 3.7 2.5 4.3 2.5 2 1.3 2.2 1 2.3.7 2.2.5 2 .3h2l6-1.3 5.3-1.5 4.5-1.5 3.5-1.7 3-1.8 2.5-1.2 2-1.3 1.2-.7.8-.3.5.3.5.2.5.5.7 1.3.5 1.7-.2 2.5-.8 2.5-.5 1.5-1 1.5-1 1.3-1.2 1.5-2.8 2.7-2.2 2-2 1.8-.8.7-.5.8-.2.7v1l.5.8.7 1 1 1 1.8 1.2 4.5 2.8 5.2 3 3.8 2.2 2.7 2.3.8 1 .7.7.5 1 .3 1v1l-.3 1-1 2.3-1.7 2.7-1 1.3-1.5 1.2-1.5 1.3-1.8.7-1.7.8-2.3.7-2 .3-2.2.2h-5l-2.5-.2-2.5-.5-2.8-.8-2.5-1-2.7-1-2.5-1.2-5.8-3.3-6.5-4.2-10.2-7-9-7-9.3-7m393.8-176.8 2.2-4 2.3-4.5 1.7-4.5 1.5-5 1-5 .8-5.5.2-5.2-.2-5.8-.5-5.5-1-5.5-1.3-5-1.7-5-2-4.7-2.5-4.3-2.8-4.2-2.7-3.8-3.3-3.2-3.2-3-3.8-2.5-3.7-2-3.8-1.8-4.2-1-4-.5h-4.3l-4.2.5-4 1-4 1.8-3.5 2-3.5 2.5-3.3 3-3 3.2-2.7 3.8-2.5 4-2 4.5-1.8 4.7-1.5 4.8-1 5.2-.7 5.3-.3 5.5.3 5.5.2 3.2.3 3.5 1.2 6.3 2 6 2.3 5.5 2.7 5.2 3 5 3.5 4.3 2 2 1.8 1.7 3 2.3 3 2 3 1.7 3.2 1.3 3.3 1.2 3.2.5 3.5.5h3.5l4.3-.7 4-1 3.7-1.5 3.8-2.3 3.5-2.5 3.2-3 3-3.2zm-89.8 214.8v.2l.5 28.3.5 12.5.5 6.7 15 .5 29.3.8 95.2 2.5 8.5.2 3.5-150 .5-25.7-.2-1.5-1-4-1.8-6.3-2.7-7.7-2-4.3-2-4.5-2.5-4.7-2.8-4.8-3-5-3.5-4.7-3.7-4.8-4.3-4.5-3.7-3.5-3.5-3-3.5-2.7-3.5-2.5-7.8-5.5-3.5-2.5-3-2.3-2.5-2.7-1-1.3-.7-1.5-.8-1.5-.5-1.5-.2-1.7v-1.8m-56.3 11.3-3 4-3.5 4.2-4 5.3-4.2 6-4.3 6.5-2 3.2-1.7 3.3-1.5 3.2-1.3 3-1 3.8-1 4.2-1 5-.7 5.8-1.5 13-1 15.2-1 17-.5 18.3-.5 19.5-.3 19.7m17 92 21.8 302.3 11.2-.3h14.5m17.8 2.8-1.5.5-13.8 6.7-9 4.5-7.5 4-4.7 2.8-4.5 2.2-6.5 3-2.3 1.5-1.7 1.3-.5.7-.5.8v.7l-.3 1 .5 1.3.5 1.5 1 1.2 1.3 1.3 1.5.7 1.5 1 1.5.8 2 .7 4.2 1 4.8.5h5l2.7-.2 2.8-.3 2.7-.7 3-.5 2.8-1 3-1 6.7-2.5 5-1.5 4-.8 3-.2 2.5.2 2.5.5 2.8.3 3.5.2 4.5-.2 3.7-.8 3.3-1 2.5-1.2 2.2-1.5 1.8-2 1.2-2 1-2 .8-2.3.5-2.2.2-2.3.3-2.2v-8" stroke-width="14"/><path d="m735 431-2.2 12.5-2.5 13.5-2.5 12.3-2 9.5-2.8 10-2.2 7-1.5 4.2-.5 1.3-.3 231h-3l-41.2 1-15.3.5-.2-3.8-19-301.7v-1.3m106.7-146-31.7 86-120.8 12.5-23 2.3v-5l.3-27.3v-4.7l23-6 84.2-22 25.3-130m-134 162.7-2.3.8-5.7 1.5-5.5 1-3 .2-3 .3h-3l-2.5-.5-2.5-.5-2.3-1-5-3.5-4.2-3.3-3.3-3.2-2.7-3.3-2.3-2.7-1.5-2.3-1.2-1.7-1-1.3-.5-.2-.5-.3h-.8l-.5.3-1.2 1-1 1.5-1 2.2-.3 2.5v3.3l.5 1.7.5 1.8 1.5 3.5 1.5 3 1 2.5.5 1v1.5l-.5.7-.5.8-1.2.5-1.5.5-1.8.5-5.5.7-5.7.5-4.5.8-3.3.7-1.2.8-1 .5-1 .7-.5.8-.3.7-.2 1v2.5l.5 3.3.5 2 1 1.7 1 1.8 1.5 1.7 1.7 1.5 1.8 1.5 2.2 1.3 2.3 1 4.2 1.5 4.8 1 4.7.5h5.3l6.5-.8 7.7-1.2 8-1.8 8-1.7 13-3 5.5-1.5" stroke-width="14"/><path d="m502 384.5h-35.7v-103.5h95.2v68.8" stroke-width="14"/><path d="m643.5 731-12.2 5.8-10.8 5.2-9.2 5-5 2.8-4.3 2.2-6.7 3-2.3 1.5-1.7 1.3-.5.7-.5.8v.7l-.3 1 .5 1 .5 1 1 1 1.3 1 1.7 1 1.8 1 2.2.8 2.3 1 2.7.7 2.8.5 2.7.3 3 .2 3.3.3 3.2-.3 3.3-.5 3.2-.7" stroke-width="13.25"/></g></svg>