<svg height="850.89" viewBox="0 0 850.89 850.89" width="850.89" xmlns="http://www.w3.org/2000/svg"><path d="m133.8 375.69-11.69 11.03 2.76 15.57-14.45-7.35-14.45 7.35 2.76-15.57-11.69-11.03 16.16-2.27 7.22-14.17 7.23 14.17zm102-232-11.69 11.03 2.76 15.57-14.45-7.35-14.45 7.35 2.76-15.57-11.69-11.03 16.16-2.27 7.22-14.17 7.23 14.17zm488.14 539.53-11.69 11.03 2.76 15.57-14.45-7.35-14.45 7.35 2.76-15.57-11.69-11.03 16.16-2.27 7.22-14.17 7.23 14.17zm-136.14-99.53-11.69 11.03 2.76 15.57-14.45-7.35-14.45 7.35 2.76-15.57-11.69-11.03 16.16-2.27 7.22-14.17 7.23 14.17zm146-158-11.69 11.03 2.76 15.57-14.45-7.35-14.45 7.35 2.76-15.57-11.69-11.03 16.16-2.27 7.22-14.17 7.23 14.17z" fill="#ffffc2"/><path d="m244.89 685.93a58.578 58.578 0 0 1 1.36 12.58c0 11.45-3.31 22.12-9.03 31.11l-19.25 18.74c-8.7 5.21-18.89 8.199-29.77 8.199-32.06 0-58.05-25.979-58.05-58.05 0-10.17 2.62-19.74 7.22-28.05 8.29-15.01 23.04-25.95 40.5-29.09 3.36-.59 6.81-.91 10.33-.91 27.74.001 50.93 19.451 56.69 45.471z" fill="#fbee34"/><g fill="none"><g><g stroke="#231f20"><path d="m244.89 685.93a58.578 58.578 0 0 1 1.36 12.58c0 11.45-3.31 22.12-9.03 31.11a58.264 58.264 0 0 1 -19.25 18.74c-8.7 5.21-18.89 8.199-29.77 8.199-32.06 0-58.05-25.979-58.05-58.05 0-10.17 2.62-19.74 7.22-28.05 8.29-15.01 23.04-25.95 40.5-29.09" stroke-width="21"/><path d="m177.87 641.37c3.36-.59 6.81-.91 10.33-.91 27.74 0 50.93 19.45 56.69 45.47" stroke-width="21"/><path d="m218.11 613.48 306.09-469.7" stroke-width="14"/><path d="m135.43 674.46 1.94-4 197.43-407.05m-116.91 485.02.08-.07 19.25-18.74 536.78-522.51" stroke-width="21"/><path d="m276.16 609.96 478.49-517.19" stroke-width="14"/></g><path d="m212.42 162.94 14.45 7.35-2.76-15.57 11.69-11.03-16.15-2.27-7.23-14.17-7.22 14.17-16.16 2.27 11.69 11.03-2.76 15.57zm498 282 14.45 7.35-2.76-15.57 11.69-11.03-16.15-2.27-7.23-14.17-7.22 14.17-16.16 2.27 11.69 11.03-2.76 15.57zm-600-50 14.45 7.35-2.76-15.57 11.69-11.03-16.15-2.27-7.23-14.17-7.22 14.17-16.16 2.27 11.69 11.03-2.76 15.57zm454 208 14.45 7.35-2.76-15.57 11.69-11.03-16.15-2.27-7.23-14.17-7.22 14.17-16.16 2.27 11.69 11.03-2.76 15.57zm136.14 99.53 14.45 7.35-2.76-15.57 11.69-11.03-16.15-2.27-7.23-14.17-7.22 14.17-16.16 2.27 11.69 11.03-2.76 15.57z" stroke="#000" stroke-linecap="round" stroke-linejoin="round" stroke-width="7"/></g><path d="m.25.25h850.394v850.394h-850.394z"/></g></svg>