<svg height="850.394" viewBox="0 0 850.394 850.394" width="850.394" xmlns="http://www.w3.org/2000/svg"><path d="m296.97 413.46-1.25 4.17-16.34 28.561-9.69-28.561 1.24-4.29c.54.15 1.13.23 1.76.23 1.05 0 2.01-.24 2.9-.73a4.94 4.94 0 0 0 2.03-2.07c.45-.85.68-2.03.69-3.51l1.63.03c0 2.03.52 3.59 1.55 4.67 1.04 1.07 2.4 1.61 4.09 1.61 1.04 0 2.01-.24 2.9-.73a4.94 4.94 0 0 0 2.03-2.07c.44-.85.67-2.02.69-3.5l1.64.03c0 1.23.22 2.32.66 3.27.45.95 1.07 1.68 1.87 2.21.5.33 1.04.56 1.6.68z" fill="#fff"/><path d="m596.47 646.5v80.49c0 5.16-4.17 9.33-9.3 9.33h-68.59c-5.13 0-9.29-4.17-9.29-9.33v-80.49c0-5.14 4.16-9.33 9.29-9.33h68.59c5.13 0 9.3 4.19 9.3 9.33zm-.39-125.72v80.489c0 5.16-4.17 9.33-9.3 9.33h-68.59c-5.131 0-9.301-4.17-9.301-9.33v-80.489c0-5.16 4.17-9.33 9.301-9.33h68.59c5.13 0 9.3 4.17 9.3 9.33zm-31-117.9c.67.77 1.01 1.9 1.01 3.38 0 1.58-.34 2.75-1.01 3.52s-1.51 1.16-2.521 1.16c-1.02 0-1.869-.38-2.54-1.15-.67-.77-1.01-1.92-1.01-3.46s.34-2.69 1.01-3.45c.671-.76 1.521-1.15 2.54-1.15 1.001 0 1.841.39 2.521 1.15z" fill="#ed1e29"/><path d="m596.47 395.06v80.48c0 5.16-4.17 9.33-9.3 9.33h-68.59c-5.13 0-9.29-4.17-9.29-9.33v-80.48c0-5.15 4.16-9.34 9.29-9.34h68.59c5.13 0 9.3 4.19 9.3 9.34zm-28.98 14.75c.46-.89.689-2.1.689-3.65 0-1.91-.52-3.41-1.569-4.49-1.051-1.08-2.4-1.62-4.051-1.62-1.489 0-2.75.44-3.779 1.33-1.24 1.07-1.86 2.72-1.86 4.95 0 2.03.521 3.58 1.561 4.66 1.029 1.08 2.39 1.62 4.079 1.62 1.051 0 2.011-.25 2.9-.74.89-.49 1.56-1.17 2.03-2.06zm-12.93 2.53v-7.39c0-.94-.04-1.6-.109-1.98-.12-.58-.33-1.08-.641-1.51-.3-.42-.75-.76-1.359-1.02a5.06 5.06 0 0 0 -2-.39c-1.67 0-2.94.66-3.83 1.97v-1.71h-1.83v12.03h2.04v-6.56c0-1.54.31-2.59.939-3.14.631-.55 1.381-.83 2.25-.83.551 0 1.021.13 1.431.37.399.25.68.57.84.99.16.41.24 1.03.24 1.86v7.31zm2.82-132.06h-6.72c.06-1.05.42-1.88 1.06-2.51.63-.63 1.42-.94 2.36-.94 1.03 0 1.88.39 2.52 1.18.43.5.68 1.26.78 2.27z" fill="#ed1e29"/><path d="m666.87 132.71v600.8c0 21.38-19.04 38.71-42.53 38.71h-415.48c-23.48 0-42.53-17.33-42.53-38.71v-600.8c0-21.38 19.05-38.71 42.53-38.71h415.48c23.49 0 42.53 17.33 42.53 38.71zm-39.92 63.97v-48.93c0-8.53-6.91-15.45-15.45-15.45h-388.84c-8.53 0-15.45 6.92-15.45 15.45v48.93c0 8.53 6.92 15.45 15.45 15.45h388.84c8.54 0 15.45-6.92 15.45-15.45zm-30.48 530.31v-80.49c0-5.14-4.17-9.33-9.3-9.33h-68.59c-5.13 0-9.29 4.19-9.29 9.33v80.49c0 5.16 4.16 9.33 9.29 9.33h68.59c5.13 0 9.3-4.17 9.3-9.33zm0-251.45v-80.48c0-5.15-4.17-9.34-9.3-9.34h-68.59c-5.13 0-9.29 4.19-9.29 9.34v80.48c0 5.16 4.16 9.33 9.29 9.33h68.59c5.13 0 9.3-4.17 9.3-9.33zm-.39 125.73v-80.49c0-5.16-4.17-9.33-9.3-9.33h-68.59c-5.131 0-9.301 4.17-9.301 9.33v80.489c0 5.16 4.17 9.33 9.301 9.33h68.59c5.13.001 9.3-4.169 9.3-9.329zm0-251.46v-80.48c0-5.15-4.17-9.34-9.311-9.34h-68.579c-5.131 0-9.301 4.19-9.301 9.34v80.48c0 5.16 4.17 9.34 9.301 9.34h68.579c5.141 0 9.311-4.18 9.311-9.34zm-134.32 377.18v-80.49c0-5.14-4.17-9.33-9.3-9.33h-68.59c-5.13 0-9.3 4.19-9.3 9.33v80.49c0 5.16 4.17 9.33 9.3 9.33h68.59c5.13 0 9.3-4.17 9.3-9.33zm0-251.45v-80.48c0-5.15-4.17-9.34-9.3-9.34h-68.59c-5.13 0-9.3 4.19-9.3 9.34v80.48c0 5.16 4.17 9.33 9.3 9.33h68.59c5.13 0 9.3-4.17 9.3-9.33zm-.4 125.73v-80.49c0-5.16-4.16-9.33-9.29-9.33h-68.59c-5.14 0-9.3 4.17-9.3 9.33v80.489c0 5.16 4.16 9.33 9.3 9.33h68.59c5.13.001 9.29-4.169 9.29-9.329zm0-251.46v-80.48c0-5.15-4.16-9.34-9.301-9.34h-68.58c-5.14 0-9.3 4.19-9.3 9.34v80.48c0 5.16 4.16 9.34 9.3 9.34h68.58c5.141 0 9.301-4.18 9.301-9.34zm-134.8 377.66v-80.49c0-5.141-4.16-9.33-9.29-9.33h-68.59c-5.13 0-9.3 4.189-9.3 9.33v80.489c0 5.16 4.17 9.34 9.3 9.34h68.59c5.13.001 9.29-4.179 9.29-9.339zm0-251.45v-80.48c0-5.15-4.16-9.34-9.29-9.34h-68.59c-5.13 0-9.3 4.19-9.3 9.34v80.479c0 5.16 4.17 9.341 9.3 9.341h68.59c5.13 0 9.29-4.18 9.29-9.34zm-.39 125.73v-80.49c0-5.149-4.16-9.33-9.29-9.33h-68.6c-5.13 0-9.29 4.181-9.29 9.33v80.49c0 5.16 4.16 9.33 9.29 9.33h68.6c5.13 0 9.29-4.17 9.29-9.33zm0-251.45v-80.49c0-5.15-4.16-9.33-9.3-9.33h-68.59c-5.13 0-9.29 4.18-9.29 9.33v80.49c0 5.15 4.16 9.33 9.29 9.33h68.59c5.14 0 9.3-4.18 9.3-9.33z" fill="#797878"/><path d="m626.95 147.75v48.93c0 8.53-6.91 15.45-15.45 15.45h-388.84c-8.53 0-15.45-6.92-15.45-15.45v-48.93c0-8.53 6.92-15.45 15.45-15.45h388.84c8.54 0 15.45 6.92 15.45 15.45z" fill="#fff"/><path d="m596.08 269.33v80.48c0 5.16-4.17 9.34-9.311 9.34h-68.579c-5.131 0-9.301-4.18-9.301-9.34v-80.48c0-5.15 4.17-9.34 9.301-9.34h68.579c5.141 0 9.311 4.19 9.311 9.34zm-24.88 14.59c0-.7-.16-1.28-.48-1.74-.33-.47-.77-.83-1.34-1.07-.57-.25-1.57-.56-3.02-.95-.99-.27-1.601-.44-1.801-.52-.35-.14-.609-.32-.779-.54s-.25-.45-.25-.72c0-.41.2-.78.6-1.09s1.07-.46 2.01-.46c.79 0 1.4.17 1.841.52.43.35.689.83.779 1.45l1.99-.27c-.13-.78-.36-1.4-.7-1.86s-.87-.83-1.58-1.1c-.71-.28-1.54-.41-2.479-.41-.63 0-1.221.08-1.76.24-.551.16-.98.36-1.301.6-.42.3-.76.68-1 1.13-.25.46-.37.95-.37 1.49 0 .59.15 1.13.45 1.61.3.49.73.87 1.311 1.15.58.27 1.609.6 3.109.97 1.11.28 1.811.51 2.08.7.4.26.601.62.601 1.08 0 .52-.23.96-.681 1.35-.449.38-1.149.57-2.08.57-.93 0-1.649-.22-2.17-.65-.52-.43-.83-1.04-.949-1.85l-2.011.31c.221 1.28.75 2.24 1.57 2.89.81.65 2 .97 3.57.97.939 0 1.79-.16 2.529-.49.75-.33 1.32-.79 1.721-1.39.39-.6.59-1.24.59-1.92zm-11.68-1.97c.011-.24.011-.42.011-.54 0-1.98-.511-3.52-1.53-4.61-1.01-1.1-2.33-1.64-3.93-1.64-1.66 0-3.011.56-4.061 1.67-1.04 1.12-1.56 2.69-1.56 4.71 0 1.96.52 3.47 1.55 4.56 1.03 1.08 2.42 1.62 4.18 1.62 1.391 0 2.54-.34 3.44-1.02.899-.67 1.51-1.63 1.84-2.85l-2.11-.27c-.31.86-.729 1.49-1.26 1.88-.52.39-1.16.59-1.91.59-1 0-1.84-.35-2.51-1.06-.67-.7-1.05-1.71-1.12-3.04zm-16.68 5.71 4.561-12.24h-2.03l-2.57 7.02c-.33.89-.6 1.79-.83 2.69-.26-.97-.55-1.89-.87-2.77l-2.489-6.94h-2.2l4.55 12.05c-.08.22-.14.38-.18.5-.29.81-.5 1.31-.62 1.51-.18.28-.4.49-.67.64-.271.15-.63.23-1.09.23-.33 0-.721-.06-1.16-.19l.22 1.92c.48.17.92.25 1.31.25.65 0 1.211-.16 1.681-.47s.89-.8 1.25-1.47c.267-.5.647-1.41 1.137-2.73z" fill="#ed1e29"/><path d="m570.72 282.18c.32.46.48 1.04.48 1.74 0 .68-.2 1.32-.59 1.92-.4.6-.971 1.06-1.721 1.39-.739.33-1.59.49-2.529.49-1.57 0-2.761-.32-3.57-.97-.82-.65-1.35-1.61-1.57-2.89l2.011-.31c.119.81.43 1.42.949 1.85.521.43 1.24.65 2.17.65.931 0 1.631-.19 2.08-.57.45-.39.681-.83.681-1.35 0-.46-.2-.82-.601-1.08-.27-.19-.97-.42-2.08-.7-1.5-.37-2.529-.7-3.109-.97-.58-.28-1.011-.66-1.311-1.15-.3-.48-.45-1.02-.45-1.61 0-.54.12-1.03.37-1.49.24-.45.58-.83 1-1.13.32-.24.75-.44 1.301-.6.539-.16 1.13-.24 1.76-.24.939 0 1.77.13 2.479.41.71.27 1.24.64 1.58 1.1s.57 1.08.7 1.86l-1.99.27c-.09-.62-.35-1.1-.779-1.45-.44-.35-1.051-.52-1.841-.52-.939 0-1.609.15-2.01.46-.399.31-.6.68-.6 1.09 0 .27.08.5.25.72s.43.4.779.54c.2.08.811.25 1.801.52 1.449.39 2.449.7 3.02.95.57.24 1.01.6 1.34 1.07zm-2.54 123.98c0 1.55-.229 2.76-.689 3.65a4.928 4.928 0 0 1 -2.03 2.06c-.89.49-1.85.74-2.9.74-1.689 0-3.05-.54-4.079-1.62-1.04-1.08-1.561-2.63-1.561-4.66 0-2.23.62-3.88 1.86-4.95 1.029-.89 2.29-1.33 3.779-1.33 1.65 0 3 .54 4.051 1.62 1.049 1.08 1.569 2.58 1.569 4.49zm-2.09.1c0-1.48-.34-2.61-1.01-3.38-.68-.76-1.521-1.15-2.521-1.15-1.02 0-1.869.39-2.54 1.15-.67.76-1.01 1.91-1.01 3.45s.34 2.69 1.01 3.46c.671.77 1.521 1.15 2.54 1.15 1.011 0 1.851-.39 2.521-1.16s1.01-1.94 1.01-3.52zm-6.56-124.85c0 .12 0 .3-.011.54h-8.97c.07 1.33.45 2.34 1.12 3.04.67.71 1.51 1.06 2.51 1.06.75 0 1.391-.2 1.91-.59.53-.39.95-1.02 1.26-1.88l2.11.27c-.33 1.22-.94 2.18-1.84 2.85-.9.68-2.05 1.02-3.44 1.02-1.76 0-3.149-.54-4.18-1.62-1.03-1.09-1.55-2.6-1.55-4.56 0-2.02.52-3.59 1.56-4.71 1.05-1.11 2.4-1.67 4.061-1.67 1.6 0 2.92.54 3.93 1.64 1.02 1.09 1.53 2.63 1.53 4.61zm-8.87-1.13h6.72c-.1-1.01-.35-1.77-.78-2.27-.64-.79-1.489-1.18-2.52-1.18-.94 0-1.73.31-2.36.94-.64.63-1 1.46-1.06 2.51zm3.9 124.67v7.39h-2.029v-7.31c0-.83-.08-1.45-.24-1.86-.16-.42-.44-.74-.84-.99-.41-.24-.88-.37-1.431-.37-.869 0-1.619.28-2.25.83-.63.55-.939 1.6-.939 3.14v6.56h-2.04v-12.03h1.83v1.71c.89-1.31 2.16-1.97 3.83-1.97.72 0 1.39.13 2 .39.609.26 1.06.6 1.359 1.02.311.43.521.93.641 1.51.069.38.109 1.04.109 1.98zm-7.16-129.53-4.561 12.24c-.49 1.32-.87 2.23-1.14 2.73-.36.67-.78 1.16-1.25 1.47s-1.03.47-1.681.47c-.39 0-.829-.08-1.31-.25l-.22-1.92c.439.13.83.19 1.16.19.46 0 .819-.08 1.09-.23.27-.15.49-.36.67-.64.12-.2.33-.7.62-1.51.04-.12.1-.28.18-.5l-4.55-12.05h2.2l2.489 6.94c.32.88.61 1.8.87 2.77.23-.9.5-1.8.83-2.69l2.57-7.02z" fill="#231f20"/><path d="m461.76 646.5v80.49c0 5.16-4.17 9.33-9.3 9.33h-68.59c-5.13 0-9.3-4.17-9.3-9.33v-80.49c0-5.14 4.17-9.33 9.3-9.33h68.59c5.13 0 9.3 4.19 9.3 9.33zm-47.19-200.79 16.35-28.56v-3.84h1.43v-8.26c0-1.37-.319-2.39-.97-3.05-.64-.66-1.55-.99-2.75-.99-1.52 0-2.76.7-3.71 2.11-.23-.67-.64-1.18-1.21-1.55s-1.3-.56-2.19-.56c-.8 0-1.51.18-2.14.54-.62.36-1.13.83-1.5 1.42v-1.69h-1.82v5.84h-2.38c0-1.91-.53-3.4-1.57-4.48-1.05-1.09-2.4-1.63-4.06-1.63-1.49 0-2.75.45-3.78 1.34-1.24 1.07-1.86 2.72-1.86 4.94 0 2.03.52 3.59 1.56 4.67.65.67 1.43 1.13 2.33 1.38l-1.42 3.81zm47.19-50.65v80.48c0 5.16-4.17 9.33-9.3 9.33h-68.59c-5.13 0-9.3-4.17-9.3-9.33v-80.48c0-5.15 4.17-9.34 9.3-9.34h68.59c5.13 0 9.3 4.19 9.3 9.34zm-16.01 12.75c.01-.24.02-.42.02-.54 0-1.99-.51-3.53-1.529-4.62-1.021-1.09-2.33-1.64-3.94-1.64-1.66 0-3.01.56-4.05 1.68-1.04 1.11-1.56 2.68-1.56 4.7 0 1.96.51 3.48 1.54 4.56 1.029 1.08 2.43 1.62 4.18 1.62 1.399 0 2.55-.34 3.439-1.01.9-.68 1.521-1.63 1.851-2.86l-2.11-.27c-.31.86-.729 1.49-1.26 1.88-.53.4-1.17.59-1.91.59-1.01 0-1.85-.35-2.52-1.05-.67-.71-1.04-1.72-1.12-3.04zm-45.68 5.5v-7.62c0-1.18-.14-2.08-.42-2.7-.29-.62-.76-1.1-1.41-1.45-.66-.35-1.43-.53-2.32-.53-1.45 0-2.65.55-3.6 1.65v-5.95h-2.03v16.6h2.03v-6.58c0-.95.11-1.69.34-2.22.23-.54.61-.97 1.14-1.28s1.1-.47 1.7-.47c.81 0 1.44.23 1.88.7.44.46.66 1.2.66 2.22v7.63zm61.29 107.47v80.489c0 5.16-4.16 9.33-9.29 9.33h-68.59c-5.14 0-9.3-4.17-9.3-9.33v-80.489c0-5.16 4.16-9.33 9.3-9.33h68.59c5.13 0 9.29 4.17 9.29 9.33zm0-251.45v80.48c0 5.16-4.16 9.34-9.301 9.34h-68.58c-5.14 0-9.3-4.18-9.3-9.34v-80.48c0-5.15 4.16-9.34 9.3-9.34h68.58c5.141 0 9.301 4.19 9.301 9.34zm-18.91 16.23c.46-.89.689-2.1.689-3.65 0-1.91-.52-3.41-1.569-4.49-1.051-1.08-2.4-1.62-4.051-1.62-1.489 0-2.75.44-3.779 1.33-1.24 1.07-1.86 2.72-1.86 4.95 0 2.03.521 3.58 1.561 4.66 1.029 1.08 2.39 1.62 4.079 1.62 1.051 0 2.011-.25 2.9-.74.89-.49 1.56-1.17 2.03-2.06zm-12.97 2.53v-16.59h-2.03v16.59zm-5.15 0v-16.59h-2.03v16.59zm-4.49-5.5c0-.24.01-.42.01-.54 0-1.98-.51-3.52-1.53-4.61-1.02-1.1-2.33-1.64-3.94-1.64-1.66 0-3.01.56-4.05 1.67-1.04 1.12-1.56 2.69-1.56 4.71 0 1.96.51 3.47 1.54 4.56 1.03 1.08 2.43 1.62 4.19 1.62 1.39 0 2.54-.34 3.44-1.02.89-.67 1.51-1.63 1.84-2.85l-2.11-.27c-.31.86-.73 1.49-1.26 1.88s-1.16.59-1.91.59c-1.01 0-1.84-.35-2.52-1.06-.67-.7-1.04-1.71-1.12-3.04zm-13.49 5.5v-7.62c0-1.17-.14-2.07-.43-2.69-.28-.62-.75-1.1-1.4-1.46-.66-.35-1.43-.52-2.32-.52-1.45 0-2.65.55-3.6 1.65v-5.95h-2.03v16.59h2.03v-6.58c0-.94.11-1.68.34-2.22.23-.53.6-.96 1.14-1.27.53-.32 1.1-.47 1.7-.47.81 0 1.43.23 1.88.69.44.47.66 1.21.66 2.23v7.62z" fill="#abd150"/><path d="m445.77 407.27c0 .12-.01.3-.02.54h-8.97c.08 1.32.45 2.33 1.12 3.04.67.7 1.51 1.05 2.52 1.05.74 0 1.38-.19 1.91-.59.53-.39.95-1.02 1.26-1.88l2.11.27c-.33 1.23-.95 2.18-1.851 2.86-.89.67-2.04 1.01-3.439 1.01-1.75 0-3.15-.54-4.18-1.62s-1.54-2.6-1.54-4.56c0-2.02.52-3.59 1.56-4.7 1.04-1.12 2.39-1.68 4.05-1.68 1.61 0 2.92.55 3.94 1.64s1.53 2.63 1.53 4.62zm-8.88-1.13h6.721c-.091-1.02-.351-1.77-.771-2.28-.649-.78-1.49-1.18-2.53-1.18-.93 0-1.72.32-2.359.94-.641.63-.991 1.47-1.061 2.52z" fill="#231f20"/><path d="m443.61 406.14h-6.721c.07-1.05.42-1.89 1.061-2.52.64-.62 1.43-.94 2.359-.94 1.04 0 1.881.4 2.53 1.18.421.51.681 1.26.771 2.28z" fill="#abd150"/><path d="m443.14 281.91c0 1.55-.229 2.76-.689 3.65a4.922 4.922 0 0 1 -2.03 2.06c-.89.49-1.85.74-2.9.74-1.689 0-3.05-.54-4.079-1.62-1.04-1.08-1.561-2.63-1.561-4.66 0-2.23.62-3.88 1.86-4.95 1.029-.89 2.29-1.33 3.779-1.33 1.65 0 3 .54 4.051 1.62 1.049 1.08 1.569 2.58 1.569 4.49zm-2.09.1c0-1.48-.34-2.61-1.01-3.38-.68-.76-1.521-1.14-2.521-1.14-1.02 0-1.869.38-2.539 1.14-.671.76-1.011 1.91-1.011 3.45s.34 2.69 1.011 3.46c.67.77 1.52 1.15 2.539 1.15 1.011 0 1.851-.39 2.521-1.16s1.01-1.94 1.01-3.52z" fill="#231f20"/><path d="m440.04 278.63c.67.77 1.01 1.9 1.01 3.38 0 1.58-.34 2.75-1.01 3.52s-1.51 1.16-2.521 1.16c-1.02 0-1.869-.38-2.539-1.15-.671-.77-1.011-1.92-1.011-3.46s.34-2.69 1.011-3.45c.67-.76 1.52-1.14 2.539-1.14 1.001 0 1.841.38 2.521 1.14z" fill="#abd150"/><path d="m432.35 405.05v8.26h-2.04v-7.58c0-.81-.06-1.4-.189-1.76-.13-.36-.37-.65-.72-.86a2.258 2.258 0 0 0 -1.221-.33c-.85 0-1.55.28-2.109.84-.55.56-.83 1.46-.83 2.7v6.99h-2.03v-7.82c0-.9-.17-1.58-.5-2.03-.34-.46-.88-.68-1.63-.68a3 3 0 0 0 -1.6.45c-.48.3-.84.74-1.06 1.32-.21.59-.32 1.42-.32 2.52v6.24h-2.04v-12.03h1.82v1.69c.37-.59.88-1.06 1.5-1.42.63-.36 1.34-.54 2.14-.54.89 0 1.62.19 2.19.56s.98.88 1.21 1.55c.95-1.41 2.19-2.11 3.71-2.11 1.2 0 2.11.33 2.75.99.649.66.969 1.68.969 3.05z" fill="#231f20"/><path d="m430.92 413.31v3.84l-16.35 28.56-9.69-28.56 1.42-3.81c.54.15 1.12.23 1.75.23 1.05 0 2.02-.24 2.91-.73.88-.49 1.56-1.18 2.02-2.07.47-.88.7-2.1.7-3.65h2.38v6.19h2.04v-6.24c0-1.1.11-1.93.32-2.52.22-.58.58-1.02 1.06-1.32a3 3 0 0 1 1.6-.45c.75 0 1.29.22 1.63.68.33.45.5 1.13.5 2.03v7.82h2.03v-6.99c0-1.24.28-2.14.83-2.7.56-.56 1.26-.84 2.109-.84.46 0 .87.11 1.221.33.35.21.59.5.72.86s.189.95.189 1.76v7.58z" fill="#abd150"/><path d="m427.45 271.5h2.03v16.59h-2.03zm-5.15 0h2.03v16.59h-2.03zm-2.45 10.55c0 .12-.01.3-.01.54h-8.98c.08 1.33.45 2.34 1.12 3.04.68.71 1.51 1.06 2.52 1.06.75 0 1.38-.2 1.91-.59s.95-1.02 1.26-1.88l2.11.27c-.33 1.22-.95 2.18-1.84 2.85-.9.68-2.05 1.02-3.44 1.02-1.76 0-3.16-.54-4.19-1.62-1.03-1.09-1.54-2.6-1.54-4.56 0-2.02.52-3.59 1.56-4.71 1.04-1.11 2.39-1.67 4.05-1.67 1.61 0 2.92.54 3.94 1.64 1.02 1.09 1.53 2.63 1.53 4.61zm-8.88-1.13h6.72c-.09-1.01-.35-1.77-.77-2.27-.65-.79-1.49-1.18-2.53-1.18-.93 0-1.72.31-2.36.94s-.99 1.46-1.06 2.51z" fill="#231f20"/><path d="m417.69 280.92h-6.72c.07-1.05.42-1.88 1.06-2.51s1.43-.94 2.36-.94c1.04 0 1.88.39 2.53 1.18.42.5.68 1.26.77 2.27z" fill="#abd150"/><path d="m413.68 407.12c0 1.55-.23 2.77-.7 3.65-.46.89-1.14 1.58-2.02 2.07-.89.49-1.86.73-2.91.73-.63 0-1.21-.08-1.75-.23-.9-.25-1.68-.71-2.33-1.38-1.04-1.08-1.56-2.64-1.56-4.67 0-2.22.62-3.87 1.86-4.94 1.03-.89 2.29-1.34 3.78-1.34 1.66 0 3.01.54 4.06 1.63 1.04 1.08 1.57 2.57 1.57 4.48zm-3.1 3.63c.67-.77 1.01-1.95 1.01-3.52 0-1.49-.34-2.62-1.02-3.38-.67-.77-1.51-1.15-2.52-1.15-1.02 0-1.86.38-2.53 1.14-.68.76-1.01 1.91-1.01 3.45s.33 2.7 1.01 3.46c.67.77 1.51 1.15 2.53 1.15 1.01 0 1.86-.38 2.53-1.15z" fill="#231f20"/><path d="m411.59 407.23c0 1.57-.34 2.75-1.01 3.52s-1.52 1.15-2.53 1.15c-1.02 0-1.86-.38-2.53-1.15-.68-.76-1.01-1.92-1.01-3.46s.33-2.69 1.01-3.45c.67-.76 1.51-1.14 2.53-1.14 1.01 0 1.85.38 2.52 1.15.68.76 1.02 1.89 1.02 3.38z" fill="#abd150"/><path d="m406.35 280.47v7.62h-2.03v-7.62c0-1.02-.22-1.76-.66-2.23-.45-.46-1.07-.69-1.88-.69-.6 0-1.17.15-1.7.47-.54.31-.91.74-1.14 1.27-.23.54-.34 1.28-.34 2.22v6.58h-2.03v-16.59h2.03v5.95c.95-1.1 2.15-1.65 3.6-1.65.89 0 1.66.17 2.32.52.65.36 1.12.84 1.4 1.46.29.62.43 1.52.43 2.69zm-6.28 125.22v7.62h-2.03v-7.63c0-1.02-.22-1.76-.66-2.22-.44-.47-1.07-.7-1.88-.7-.6 0-1.17.16-1.7.47s-.91.74-1.14 1.28c-.23.53-.34 1.27-.34 2.22v6.58h-2.03v-16.6h2.03v5.95c.95-1.1 2.15-1.65 3.6-1.65.89 0 1.66.18 2.32.53.65.35 1.12.83 1.41 1.45.28.62.42 1.52.42 2.7z" fill="#231f20"/><path d="m326.56 646.98v80.489c0 5.16-4.16 9.34-9.29 9.34h-68.59c-5.13 0-9.3-4.18-9.3-9.34v-80.489c0-5.141 4.17-9.33 9.3-9.33h68.59c5.13 0 9.29 4.19 9.29 9.33zm-47.18-200.79 16.34-28.561 1.25-4.17c.34.07.68.11 1.04.11 1.48 0 2.6-.59 3.36-1.78v1.52h1.89v-16.6h-2.03v5.96c-.35-.5-.81-.89-1.38-1.2-.56-.31-1.21-.46-1.93-.46-.99 0-1.88.26-2.68.78s-1.4 1.27-1.8 2.25-.6 2.06-.6 3.26l-1.64-.03v-.15c0-1.91-.52-3.4-1.57-4.48-1.05-1.09-2.4-1.63-4.05-1.63-1.49 0-2.75.45-3.79 1.34-1.23 1.07-1.85 2.72-1.85 4.94l-1.63-.03v-.14c0-1.91-.52-3.4-1.57-4.48-1.05-1.09-2.4-1.63-4.05-1.63-1.49 0-2.75.45-3.79 1.34-1.23 1.07-1.85 2.72-1.85 4.94 0 2.03.52 3.59 1.55 4.67.65.67 1.42 1.13 2.33 1.38l-1.24 4.29zm47.18-50.65v80.479c0 5.16-4.16 9.341-9.29 9.341h-68.59c-5.13 0-9.3-4.181-9.3-9.341v-80.479c0-5.15 4.17-9.34 9.3-9.34h68.59c5.13 0 9.29 4.19 9.29 9.34zm-59.78 2.87.31-1.77c-.69-.14-1.33-.21-1.9-.21-.89 0-1.58.17-2.08.49-.49.33-.84.76-1.04 1.29-.14.39-.21.99-.21 1.79v1.28h-1.8v1.57h1.8v10.46h2.03v-10.46h2.34v-1.57h-2.34v-1.11c0-.72.13-1.22.38-1.48.26-.27.7-.4 1.32-.4.37 0 .77.04 1.19.12zm59.39 122.85v80.49c0 5.16-4.16 9.33-9.29 9.33h-68.6c-5.13 0-9.29-4.17-9.29-9.33v-80.49c0-5.149 4.16-9.33 9.29-9.33h68.6c5.13 0 9.29 4.18 9.29 9.33zm0-251.45v80.49c0 5.15-4.16 9.33-9.3 9.33h-68.59c-5.13 0-9.29-4.18-9.29-9.33v-80.49c0-5.15 4.16-9.33 9.29-9.33h68.59c5.14 0 9.3 4.18 9.3 9.33zm-17.06 12.63c.01-.24.01-.43.01-.55 0-1.98-.51-3.52-1.53-4.61-1.01-1.09-2.33-1.64-3.93-1.64-1.66 0-3.01.56-4.06 1.67-1.04 1.12-1.56 2.69-1.56 4.71 0 1.96.52 3.48 1.55 4.56s2.42 1.62 4.18 1.62c1.39 0 2.54-.34 3.44-1.01.9-.68 1.51-1.63 1.84-2.86l-2.11-.27c-.31.86-.73 1.49-1.25 1.88-.53.39-1.17.59-1.92.59-1 0-1.84-.35-2.51-1.05-.67-.71-1.05-1.72-1.12-3.04zm-13.41 5.5v-8.26c0-1.37-.32-2.39-.96-3.05s-1.56-.99-2.75-.99c-1.52 0-2.76.7-3.71 2.1-.24-.66-.64-1.18-1.21-1.55s-1.3-.55-2.19-.55c-.8 0-1.51.18-2.14.54s-1.13.83-1.51 1.42v-1.69h-1.81v12.03h2.03v-6.24c0-1.1.11-1.94.33-2.52s.57-1.02 1.06-1.32 1.02-.45 1.59-.45c.76 0 1.3.22 1.63.67.34.46.5 1.14.5 2.04v7.82h2.03v-6.99c0-1.24.28-2.14.84-2.7s1.26-.84 2.1-.84c.47 0 .88.11 1.23.32.34.22.58.51.71.87.14.36.2.95.2 1.76v7.58zm-20.91 0h2.12c-.25-.46-.42-.95-.51-1.45s-.13-1.7-.13-3.59v-2.72c0-.91-.03-1.53-.1-1.88-.12-.56-.33-1.02-.64-1.39-.3-.36-.77-.67-1.41-.91s-1.48-.36-2.5-.36c-1.04 0-1.95.14-2.73.42-.79.29-1.39.69-1.8 1.22-.42.52-.72 1.21-.9 2.06l1.99.27c.22-.85.55-1.45 1.01-1.78.46-.34 1.17-.5 2.13-.5 1.03 0 1.8.23 2.32.69.39.33.58.92.58 1.75 0 .07 0 .25-.01.53-.78.27-1.99.5-3.63.7-.81.1-1.41.2-1.81.3-.55.16-1.03.38-1.47.67-.43.3-.78.69-1.05 1.18-.27.48-.4 1.02-.4 1.61 0 1 .35 1.83 1.06 2.47.71.65 1.73.97 3.05.97.8 0 1.54-.13 2.24-.39.7-.27 1.43-.72 2.18-1.36.06.57.2 1.06.41 1.49zm-11.38 0v-7.4c0-.94-.04-1.6-.11-1.98a3.91 3.91 0 0 0 -.63-1.5c-.31-.43-.76-.77-1.37-1.03s-1.27-.39-2-.39c-1.67 0-2.94.66-3.83 1.97v-1.7h-1.82v12.03h2.03v-6.57c0-1.54.31-2.59.94-3.14.64-.55 1.39-.82 2.26-.82.54 0 1.01.12 1.42.36.4.25.68.58.84.99s.24 1.03.24 1.86v7.32z" fill="#fff"/><path d="m309.12 281.89c0 .12 0 .31-.01.55h-8.97c.07 1.32.45 2.33 1.12 3.04.67.7 1.51 1.05 2.51 1.05.75 0 1.39-.2 1.92-.59.52-.39.94-1.02 1.25-1.88l2.11.27c-.33 1.23-.94 2.18-1.84 2.86-.9.67-2.05 1.01-3.44 1.01-1.76 0-3.15-.54-4.18-1.62s-1.55-2.6-1.55-4.56c0-2.02.52-3.59 1.56-4.71 1.05-1.11 2.4-1.67 4.06-1.67 1.6 0 2.92.55 3.93 1.64 1.02 1.09 1.53 2.63 1.53 4.61zm-8.87-1.13h6.72c-.1-1.01-.35-1.77-.78-2.27-.65-.79-1.49-1.18-2.52-1.18-.94 0-1.73.31-2.36.94-.64.63-1 1.47-1.06 2.51z" fill="#231f20"/><path d="m306.97 280.76h-6.72c.06-1.04.42-1.88 1.06-2.51.63-.63 1.42-.94 2.36-.94 1.03 0 1.87.39 2.52 1.18.43.5.68 1.26.78 2.27z" fill="#fff"/><path d="m303.26 396.71v16.6h-1.89v-1.52c-.76 1.19-1.88 1.78-3.36 1.78a4.688 4.688 0 0 1 -2.64-.79c-.8-.53-1.42-1.26-1.87-2.21-.44-.95-.66-2.04-.66-3.27 0-1.2.2-2.28.6-3.26s1-1.73 1.8-2.25 1.69-.78 2.68-.78c.72 0 1.37.15 1.93.46.57.31 1.03.7 1.38 1.2v-5.96zm-2.79 14.1c.62-.73.93-1.84.93-3.33 0-1.65-.31-2.86-.95-3.63-.63-.77-1.41-1.15-2.34-1.15-.9 0-1.66.37-2.26 1.11-.61.74-.91 1.9-.91 3.5 0 1.54.32 2.69.97 3.45s1.41 1.14 2.29 1.14c.89 0 1.65-.36 2.27-1.09z" fill="#231f20"/><path d="m301.4 407.48c0 1.49-.31 2.6-.93 3.33s-1.38 1.09-2.27 1.09c-.88 0-1.64-.38-2.29-1.14s-.97-1.91-.97-3.45c0-1.6.3-2.76.91-3.5.6-.74 1.36-1.11 2.26-1.11.93 0 1.71.38 2.34 1.15.64.77.95 1.98.95 3.63z" fill="#fff"/><path d="m295.7 279.68v8.26h-2.03v-7.58c0-.81-.06-1.4-.2-1.76a1.72 1.72 0 0 0 -.71-.87c-.35-.21-.76-.32-1.23-.32-.84 0-1.54.28-2.1.84s-.84 1.46-.84 2.7v6.99h-2.03v-7.82c0-.9-.16-1.58-.5-2.04-.33-.45-.87-.67-1.63-.67-.57 0-1.1.15-1.59.45s-.84.74-1.06 1.32-.33 1.42-.33 2.52v6.24h-2.03v-12.03h1.81v1.69c.38-.59.88-1.06 1.51-1.42s1.34-.54 2.14-.54c.89 0 1.62.18 2.19.55s.97.89 1.21 1.55c.95-1.4 2.19-2.1 3.71-2.1 1.19 0 2.11.33 2.75.99s.96 1.68.96 3.05zm-4.5 127.44v.15c-.02 1.48-.25 2.65-.69 3.5a4.94 4.94 0 0 1 -2.03 2.07c-.89.49-1.86.73-2.9.73-1.69 0-3.05-.54-4.09-1.61-1.03-1.08-1.55-2.64-1.55-4.67 0-2.22.62-3.87 1.85-4.94 1.04-.89 2.3-1.34 3.79-1.34 1.65 0 3 .54 4.05 1.63 1.05 1.08 1.57 2.57 1.57 4.48zm-2.09.11c0-1.49-.34-2.62-1.01-3.38-.68-.77-1.52-1.15-2.52-1.15-1.02 0-1.87.38-2.54 1.14s-1.01 1.91-1.01 3.45.34 2.7 1.01 3.46c.67.77 1.52 1.15 2.54 1.15 1.01 0 1.85-.38 2.52-1.15s1.01-1.95 1.01-3.52z" fill="#231f20"/><path d="m288.1 403.85c.67.76 1.01 1.89 1.01 3.38 0 1.57-.34 2.75-1.01 3.52s-1.51 1.15-2.52 1.15c-1.02 0-1.87-.38-2.54-1.15-.67-.76-1.01-1.92-1.01-3.46s.34-2.69 1.01-3.45 1.52-1.14 2.54-1.14c1 0 1.84.38 2.52 1.15z" fill="#fff"/><path d="m278.31 407.12v.14c-.01 1.48-.24 2.66-.69 3.51a4.94 4.94 0 0 1 -2.03 2.07c-.89.49-1.85.73-2.9.73-.63 0-1.22-.08-1.76-.23-.91-.25-1.68-.71-2.33-1.38-1.03-1.08-1.55-2.64-1.55-4.67 0-2.22.62-3.87 1.85-4.94 1.04-.89 2.3-1.34 3.79-1.34 1.65 0 3 .54 4.05 1.63 1.05 1.08 1.57 2.57 1.57 4.48zm-2.09.11c0-1.49-.34-2.62-1.01-3.38-.68-.77-1.52-1.15-2.52-1.15-1.02 0-1.87.38-2.54 1.14s-1.01 1.91-1.01 3.45.34 2.7 1.01 3.46c.67.77 1.52 1.15 2.54 1.15 1.01 0 1.85-.38 2.52-1.15s1.01-1.95 1.01-3.52zm.69-119.29h-2.12c-.21-.43-.35-.92-.41-1.49-.75.64-1.48 1.09-2.18 1.36-.7.26-1.44.39-2.24.39-1.32 0-2.34-.32-3.05-.97-.71-.64-1.06-1.47-1.06-2.47 0-.59.13-1.13.4-1.61.27-.49.62-.88 1.05-1.18.44-.29.92-.51 1.47-.67.4-.1 1-.2 1.81-.3 1.64-.2 2.85-.43 3.63-.7.01-.28.01-.46.01-.53 0-.83-.19-1.42-.58-1.75-.52-.46-1.29-.69-2.32-.69-.96 0-1.67.16-2.13.5-.46.33-.79.93-1.01 1.78l-1.99-.27c.18-.85.48-1.54.9-2.06.41-.53 1.01-.93 1.8-1.22.78-.28 1.69-.42 2.73-.42 1.02 0 1.86.12 2.5.36s1.11.55 1.41.91c.31.37.52.83.64 1.39.07.35.1.97.1 1.88v2.72c0 1.89.04 3.09.13 3.59s.26.99.51 1.45zm-2.7-5.3v-.75c-.74.3-1.85.56-3.33.77-.84.12-1.43.26-1.77.41-.35.15-.62.37-.81.66s-.28.62-.28.97c0 .55.21 1 .62 1.36.41.37 1.01.55 1.8.55s1.48-.17 2.1-.52c.61-.34 1.06-.81 1.34-1.41.22-.46.33-1.14.33-2.04z" fill="#231f20"/><path d="m275.21 403.85c.67.76 1.01 1.89 1.01 3.38 0 1.57-.34 2.75-1.01 3.52s-1.51 1.15-2.52 1.15c-1.02 0-1.87-.38-2.54-1.15-.67-.76-1.01-1.92-1.01-3.46s.34-2.69 1.01-3.45 1.52-1.14 2.54-1.14c1 0 1.84.38 2.52 1.15zm-1-121.96v.75c0 .9-.11 1.58-.33 2.04-.28.6-.73 1.07-1.34 1.41-.62.35-1.31.52-2.1.52s-1.39-.18-1.8-.55c-.41-.36-.62-.81-.62-1.36 0-.35.09-.68.28-.97s.46-.51.81-.66c.34-.15.93-.29 1.77-.41 1.48-.21 2.59-.47 3.33-.77z" fill="#fff"/><path d="m267.09 396.64-.31 1.77a6.4 6.4 0 0 0 -1.19-.12c-.62 0-1.06.13-1.32.4-.25.26-.38.76-.38 1.48v1.11h2.34v1.57h-2.34v10.46h-2.03v-10.46h-1.8v-1.57h1.8v-1.28c0-.8.07-1.4.21-1.79.2-.53.55-.96 1.04-1.29.5-.32 1.19-.49 2.08-.49.57 0 1.21.07 1.9.21zm-3.68-116.1v7.4h-2.03v-7.32c0-.83-.08-1.45-.24-1.86s-.44-.74-.84-.99c-.41-.24-.88-.36-1.42-.36-.87 0-1.62.27-2.26.82-.63.55-.94 1.6-.94 3.14v6.57h-2.03v-12.03h1.82v1.7c.89-1.31 2.16-1.97 3.83-1.97.73 0 1.39.13 2 .39s1.06.6 1.37 1.03c.3.42.51.92.63 1.5.07.38.11 1.04.11 1.98z" fill="#231f20"/><g fill="none"><g stroke="#231f20"><path d="m666.87 733.51c0 21.38-19.04 38.71-42.53 38.71h-415.48c-23.48 0-42.53-17.33-42.53-38.71v-600.8c0-21.38 19.05-38.71 42.53-38.71h415.48c23.49 0 42.53 17.33 42.53 38.71z" stroke-width="21"/><path d="m461.36 349.81c0 5.16-4.16 9.34-9.301 9.34h-68.58c-5.14 0-9.3-4.18-9.3-9.34v-80.48c0-5.15 4.16-9.34 9.3-9.34h68.58c5.141 0 9.301 4.19 9.301 9.34zm.4 125.73c0 5.16-4.17 9.33-9.3 9.33h-68.59c-5.13 0-9.3-4.17-9.3-9.33v-80.48c0-5.15 4.17-9.34 9.3-9.34h68.59c5.13 0 9.3 4.19 9.3 9.34zm-.4 125.73c0 5.16-4.16 9.33-9.29 9.33h-68.59c-5.14 0-9.3-4.17-9.3-9.33v-80.49c0-5.16 4.16-9.33 9.3-9.33h68.59c5.13 0 9.29 4.17 9.29 9.33zm.4 125.72c0 5.16-4.17 9.33-9.3 9.33h-68.59c-5.13 0-9.3-4.17-9.3-9.33v-80.49c0-5.14 4.17-9.33 9.3-9.33h68.59c5.13 0 9.3 4.19 9.3 9.33z" stroke-width="14"/><path d="m402.21 474.57 12.36-28.86-9.69-28.56m26.04 0-16.35 28.56m30.37-3.86-30.37 3.86m-10.77-146.19c-6.28 3.54-23.59 22.07-6.96 22.46 9.06.22 24.02-22.37 35.061-13.87 8.199 6.31-6.42 14.61-5 23.27 2.25 13.73 18.13 6.05 21.35-1.9" stroke-width="7.725"/><path d="m596.08 349.81c0 5.16-4.17 9.34-9.311 9.34h-68.579c-5.131 0-9.301-4.18-9.301-9.34v-80.48c0-5.15 4.17-9.34 9.301-9.34h68.579c5.141 0 9.311 4.19 9.311 9.34zm.39 125.73c0 5.16-4.17 9.33-9.3 9.33h-68.59c-5.13 0-9.29-4.17-9.29-9.33v-80.48c0-5.15 4.16-9.34 9.29-9.34h68.59c5.13 0 9.3 4.19 9.3 9.34zm-.39 125.73c0 5.16-4.17 9.33-9.3 9.33h-68.59c-5.131 0-9.301-4.17-9.301-9.33v-80.49c0-5.16 4.17-9.33 9.301-9.33h68.59c5.13 0 9.3 4.17 9.3 9.33zm.39 125.72c0 5.16-4.17 9.33-9.3 9.33h-68.59c-5.13 0-9.29-4.17-9.29-9.33v-80.49c0-5.14 4.16-9.33 9.29-9.33h68.59c5.13 0 9.3 4.19 9.3 9.33z" stroke-width="14"/><path d="m536.92 474.57 12.37-28.86-9.7-28.56m26.04 0-16.34 28.56m30.36-3.86-30.36 3.86m-10.78-146.19c-6.27 3.54-23.6 22.07-6.95 22.46 9.051.22 24.021-22.37 35.051-13.87 8.199 6.31-6.42 14.61-5 23.27 2.25 13.73 18.13 6.05 21.35-1.9" stroke-width="7.725"/><path d="m326.17 350.3c0 5.15-4.16 9.33-9.3 9.33h-68.59c-5.13 0-9.29-4.18-9.29-9.33v-80.49c0-5.15 4.16-9.33 9.29-9.33h68.59c5.14 0 9.3 4.18 9.3 9.33zm.39 125.72c0 5.16-4.16 9.341-9.29 9.341h-68.59c-5.13 0-9.3-4.181-9.3-9.341v-80.48c0-5.15 4.17-9.34 9.3-9.34h68.59c5.13 0 9.29 4.19 9.29 9.34zm-.39 125.73c0 5.16-4.16 9.33-9.29 9.33h-68.6c-5.13 0-9.29-4.17-9.29-9.33v-80.49c0-5.149 4.16-9.33 9.29-9.33h68.6c5.13 0 9.29 4.181 9.29 9.33zm.39 125.72c0 5.16-4.16 9.34-9.29 9.34h-68.59c-5.13 0-9.3-4.18-9.3-9.34v-80.49c0-5.141 4.17-9.33 9.3-9.33h68.59c5.13 0 9.29 4.189 9.29 9.33z" stroke-width="14"/><path d="m267.02 475.05 12.36-28.86-9.69-28.56m26.03 0-16.34 28.56m30.37-3.86-30.37 3.86m-10.77-146.18c-6.28 3.54-23.6 22.06-6.96 22.46 9.06.22 24.02-22.38 35.06-13.88 8.19 6.31-6.42 14.61-5 23.28 2.25 13.73 18.13 6.04 21.34-1.9" stroke-width="7.725"/><path d="m626.95 196.68c0 8.53-6.91 15.45-15.45 15.45h-388.84c-8.53 0-15.45-6.92-15.45-15.45v-48.93c0-8.53 6.92-15.45 15.45-15.45h388.84c8.54 0 15.45 6.92 15.45 15.45z" stroke-width="14"/></g><path d="m0 0h850.394v850.394h-850.394z"/></g></svg>