<svg height="850" viewBox="0 0 850 850" width="850" xmlns="http://www.w3.org/2000/svg"><path d="m358.1 602.5v2.5l-51.2-3v-.2l-12-11-21.3-18.8-10.5-9.7-9.7-9.3-8.5-8.5-3.5-4-3-3.5-2.5-3.2-1.8-3-.7-2.3-.3-1.2v-.8l.8-2.5.7-2 1-2 1-1.5 1.3-1.2 1.5-1 1.5-.8 1.7-.5 1.8-.2h2l2 .2 2 .5 2 .8 2 .7 2.2 1.3 2.3 1.2 64.7 54z" fill="#ffeec8"/><path d="m582.9 626.5-7-1-8.8-1.7-9.7-2.3-10-2.5-9.8-2.7-4.5-1.8-4-1.5-4-2-3.2-1.7-2.8-2-2-2-2.7-3-3-2.8-3.5-3-3.8-3-4.2-3-4.5-3-9.3-6-9.7-5.5-9.8-4.7-9-4.3-4-1.5-3.7-1.5-7.8-2.2-9-2.5-18.7-5.3-9.3-2.5-8.5-2.5-7.2-2.2-5.5-2.3-1-.5h-1l-1-.2-1 .2-2 .5-2 1.3-1.8 1.7-1.5 2-1.2 2.3-1 2.7-.5 2.8v3.2l.5 3 1 3.3.7 1.5 1 1.5 1.3 1.5 1.2 1.5 1.5 1.5 1.8 1.5 2 1.2 2 1.5 2.7 1.3 3 1.2 3.3 1.3 3.7 1 5.5 2.5 5.5 2.5 6 3.2 3 1.8 2.8 1.7 2.5 1.8 2.2 2 1.5 1.7.5.8.3.7.2.8v1l-.5.5-.5.7-.5.5-.7.3-3 .5-4 .5h-18.3l-16.2-.5-23.8-1.3v-2.5l-34.5-29-64.7-54-25.8-21.2-5.2-4.3-4-3.7-3-3-2.3-2.8-.5-1.5-.5-1.2-.5-1.3v-2.7l.3-1.5 1-3 1.2-2.5 1.5-2.3 2.3-2.5 1.2-1 1.5-1 1.5-.7 1.8-.5 2-.3 2 .3 2.2.5 2.3 1.2 4 2.5-5.5-4.5-4.8-4-4-3.7-3.2-3.8-1.5-1.7-1-2-1-1.8-.5-2-.5-2-.3-2 .3-2 .2-2.2.3-.8 1-2 1.5-2.7 1.2-1.5 1.3-1.5 1.5-1.3 1.5-1 1.7-1 2.3-.5 2-.2 2.5.2 2.7.8 2.8 1.5 8.5 5.2 11.5 7.5v-.2l-1.5-1.5-1.3-1.5-1-1.5-1-1.5-.7-1.5-.5-1.5-.5-1.5-.3-1.5v-1.5l.3-1.3.2-1.5.3-1.2 1.2-2.8 1.8-2.2 2.2-2 2.5-1.5 2.8-1.3 3.2-.7 3.3-.3 1.7.3 1.8.2 1.7.5 2 .5 1.8.8 2 1 53.5 36.5 42 28.2 32.2 21.8 13.5 8.7 11.3 6.8 4.5 2.2 3.7 1.8 2.8 1 .7.2h.8l.7-.2.8-.5.2-.8.5-.7v-2l-.5-2.3-.7-2.5-1.3-2.7-1.5-3-1.7-3-3.5-6-3.5-5-3.5-4.8-2.5-2.7-2.3-2.8-2-2.7-1.7-2.5-1-2.3-1-2.2-.8-2-.5-2-.5-2-.2-1.8v-2l.2-1.7.8-3.3 1-3 1.7-2.5 1.8-2.2 2.2-1.8 2.3-1.5 2.2-1 2.5-.5h2.3l2 .5 1 .5.7.5.8.8.7.7 3.8 4.8 5 5.7 6 6.5 6.5 6.8 13.7 14 6.3 6.7 5.5 6 2.5 3 2.7 3.5 5.8 8.3 5.7 9 5.5 9.7 5 10 2.5 4.8 2 4.7 1.8 4.5 1.5 4.3 1.2 4.2.8 3.5.2 1.8.8 2 1 2 1.2 2.2 2.8 4.5 3.7 4.8 4 4.7 4.8 5 4.7 5 5 4.8 9.5 8.7 8.3 7.3z" fill="#ffeec8"/><path d="m221.9 630v-.5l-2-.5-1.8-.5-1.7-.7-1.5-.8-1.5-1-1.3-1-1-1-1-1.2-.7-1.3-.8-1.2-.5-1.5-.2-1.3-.3-2.7.3-3 .7-2.8 1.5-2.7 1.8-2.5 2.2-2.3 3-1.7 1.5-.8 1.8-.7 1.7-.5 1.8-.5 2-.3h2.2l25.3 1.5 53.5 3.5 51.2 3 23.8 1.3 16.2.5h18.3l4-.5 3-.5.7-.3.5-.5.5-.7.5-.5v-1l-.2-.8-.3-.7-.5-.8-1.5-1.7-2.2-2-2.5-1.8-2.8-1.7-3-1.8-6-3.2-5.5-2.5-5.5-2.5-3.7-1-3.3-1.3-3-1.2-2.7-1.3-2-1.5-2-1.2-1.8-1.5-1.5-1.5-1.2-1.5-1.3-1.5-1-1.5-.7-1.5-1-3.3-.5-3v-3.2l.5-2.8 1-2.7 1.2-2.3 1.5-2 1.8-1.7 2-1.3 2-.5 1-.2 1 .2h1l1 .5 5.5 2.3 7.2 2.2 8.5 2.5 9.3 2.5 18.7 5.3 9 2.5 7.8 2.2 3.7 1.5 4 1.5 9 4.3 9.8 4.7 9.7 5.5 9.3 6 4.5 3 4.2 3 3.8 3 3.5 3 3 2.8 2.7 3 2 2 2.8 2 3.2 1.7 4 2 4 1.5 4.5 1.8 9.8 2.7 10 2.5 9.7 2.3 8.8 1.7 7 1-15.8 131h-57.7l-35.3-.2-37-.8-18-.5-17-.7-15.5-1-13.7-1.3-11.5-1.2-4.8-.8-3.7-1-12-2.7-13-2.5-27.8-5.5-14-3-13.2-2.8-11.8-3.2-5-1.5-4.5-1.5-3.5-1.5-3-1.8-2-1.5-.7-1-.5-.7-.5-2.3-.5-2.2v-4l.5-1.8.7-1.7 1-1.3 1.3-1.2 1.2-1.3 1.8-1 1.7-.7 2-.5 2.3-.5 2.2-.3 2.3-.2h2.5l-33-5.3-6.5-1-5.5-1-4-1.2-3.3-1.3-1.2-.7-1.3-1-.7-1-.8-1-.7-1.3-.5-1.2-.8-3.3-.2-2.7.2-2.8.5-3.2.5-1.5.8-1.8 1-1.2 1.2-1.5 1.5-1 2-1 2.3-.5 2.5-.3h4.5l-6.8-.7-6.2-1.3-5.5-1-4.5-1.7-2.3-.8-1.7-1-1.8-1.2-1.5-1.3-1.5-1.5-1-1.7-1-1.8-.7-2-.3-.7-.2-2.3v-3.2l.2-1.8.3-2 .7-1.7.8-1.8 1-1.7 1.5-1.5 2-1.3 2-1 2.7-.7 3.3-.3 10 .3z" fill="#ffeec8"/><path d="m749.4 286.5 4 .3h3.7l-3.2 1.7-2.8 1.8-4.2.2-4.3.3-4.2.5-4.3.7-8.7 2-8.8 2.5-8.7 3-8.8 3.3-8.5 3.5-8.5 3.7-16 7.5-14.7 6.5-6.8 2.8-6.2 2.2-5.8 1.8-2.5.5-2.5.2-8.7 1-10 .5-21 1.3-24 .7h2.7l-25.5-1-22-1.2-10.5-.5-8.7-1-2.5-.3-2.3-.5-5.2-1.7-5.3-2.3-5.7-2.7-5.8-3.3-6.2-3.5-12.8-7.2-6.7-4-7-3.5-7-3.5-7.3-3.3-7.5-2.7-7.5-2.3-3.7-1-3.8-.7-3.7-.5-4-.3 5.5-.7 5.2-1 10-2.3 9.5-2.7 9.5-2.8 19.8-6.5 10.7-3.2 12-3.5 4.8-1.3 4.7-1 5-.7 4.8-.8 4.7-.5 5-.2h9.8l4.7.2 5 .5 4.8.8 5 1 5 1.2 4.7 1.5 5 1.8 5 1.7 5.8 1.5 3.7.3 5.8-1.3 4.7-2 5-1.7 5-1.5 5-1.3 4.8-1 5-.7 4.7-.5 5-.3h9.8l4.7.3 4.8.5 5 .7 4.7.8 4.8 1.2 4.7 1 26.5 7.3 12.3 3.2 11.7 2.8 11.8 2.7 12 2 12.7 1.8 6.5.7z" fill="#ed1e29"/><path d="m395.9 288 4 .3 3.7.5 3.8.7 3.7 1 7.5 2.3 7.5 2.7 7.3 3.3 7 3.5 7 3.5 6.7 4 12.8 7.2 6.2 3.5 5.8 3.3 5.7 2.7 5.3 2.3 5.2 1.7 2.3.5 2.5.3 8.7 1 10.5.5 22 1.2 25.5 1h-2.7l24-.7 21-1.3 10-.5 8.7-1 2.5-.2 2.5-.5 5.8-1.8 6.2-2.2 6.8-2.8 14.7-6.5 16-7.5 8.5-3.7 8.5-3.5 8.8-3.3 8.7-3 8.8-2.5 8.7-2 4.3-.7 4.2-.5 4.3-.3 4.2-.2-3.2 2.2-3.3 2.8-3 2.7-3 3-5.7 6.8-5.8 7.2-12.2 15.8-6.5 8-3.8 4-3.5 4-4 3.7-4 4-4.5 3.5-4.5 3.8-4.7 3.2-5 3.3-5.5 3-5.8 2.7-6 2.8-6.5 2.2-6.7 2-7 1.5-7.8 1.5-8 1-8.2.5-9 .3-43 1-37.3-1.3-9.5-.2-9-.8-8.5-1-7.7-1.7-7.5-1.8-7-2.2-6.8-2.8-6-2.7-6-3.3-5.5-3.5-5-3.5-4.7-3.7-4.5-4-4.5-4.3-4-4-3.8-4.5-3.7-4.2-3.5-4.3-6.5-8.7-6.3-8.5-6-8-3-3.8-3-3.5-3-3.2-3.2-3-3.3-3-3.5-2.5-3.5-2-3.5-1.8 3-.2 3.3-.3 3.5-.7 3.5-.8.5 5 5.2-.2z" fill="#ef947d"/><path d="m543.4 204.3 4.5 2.2 4 2.3 3.5 2 3 2.2 4.2 3.3 1.3 1.2 1.7-1.5 4.3-3.5 3.2-2 3.8-2.5 4.2-2.2 4.8-2 .2-.3 3-1.2 3.3-1 3.2-1 3.5-.8 3.5-.5 3.8-.5h3.7l4 .5 4 .8 4 1 4 1.5 4.3 2 4.2 2.2 4.3 3 4.2 3.5 4.5 4 7.5 7.8 7.5 7 7.5 6.7 7 6.3 7 6 7 5.5 6.5 5 6.5 4.7 6.3 4.3 6.2 3.7 6 3.3 5.8 2.7 5.5 2.3 5.5 2 5 1.2 5 1-6.8-.5-6.5-.7-12.7-1.8-12-2-11.8-2.7-11.7-2.8-12.3-3.2-26.5-7.3-4.7-1-4.8-1.2-4.7-.8-5-.7-4.8-.5-4.7-.3h-9.8l-5 .3-4.7.5-5 .7-4.8 1-5 1.3-5 1.5-5 1.7-4.7 2-5.8 1.3-3.7-.3-5.8-1.5-5-1.7-5-1.8-4.7-1.5-5-1.2-5-1-4.8-.8-5-.5-4.7-.2h-9.8l-5 .2-4.7.5-4.8.8-5 .7-4.7 1-4.8 1.3-12 3.5-10.7 3.2-19.8 6.5-9.5 2.8-9.5 2.7-10 2.3-5.2 1-5.5.7-5.3-.2-5.2.2-.5-5 4.7-1.2 5-1.8 5.3-2.2 5.2-2.5 5.5-2.8 5.5-3.2 5.8-3.8 6-4 6-4.2 6.2-4.8 6.3-5 6.5-5.5 6.5-5.7 6.7-6.3 6.8-6.2 7-7 4.5-4.3 4.5-3.5 4.5-3 4.5-2.5 4.2-2 4.3-1.5 4.2-1 4.3-.5 4-.2 4 .2 3.7.3 3.8.7 3.5 1 3.2 1 3.3 1.5z" fill="#ef947d"/><path d="m342.6 314.8-3.2.5-3.5.2-3.3-.2-3.2-.8-3.5-1-3.3-1.2-3.5-1.5-3.2-1.8-3.5-2-3.3-2.2-3.2-2.5-3-2.5-6.3-5.5-5.7-6-5.5-5.8-4.8-5.7-4.5-5.5-3.7-5-5.3-7.5-2-2.8h-135.2l-3.3-.2-3-.5-2.7-.8-2.8-1-2.7-1.2-2.3-1.5-2.5-1.8-2-2-2-2-1.7-2.2-1.5-2.5-1.3-2.8-1-2.7-.7-2.8-.5-3v-109l.5-3 .7-2.7 1-2.8 1.3-2.7 1.5-2.5 1.7-2.3 2-2 2-2 2.5-1.7 2.3-1.5 2.7-1.3 2.8-1 2.7-.7 3-.5 3.3-.3h154.2l3 .3 3 .5 3 .7 2.8 1 2.5 1.3 2.5 1.5 2.2 1.7 2.3 2 2 2 1.7 2.3 1.5 2.5 1.3 2.7 1 2.8.7 2.7.5 3v120.8l.3 5 .5 4.5.5 4.5.7 4.5 1.8 8 2 7.7 2.5 6.8 2.7 6.2 2.5 5.5 2.8 5 2.7 4.3 2.5 3.7 2.3 3 3.5 4z" fill="#fff"/><g fill="none" stroke="#231f20" stroke-linecap="round" stroke-miterlimit="10"><path d="m412.1 499.3-32.2-21.8-42-28.2-53.5-36.5-2-1-1.8-.8-2-.5-1.7-.5-1.8-.2-1.7-.3-3.3.3-3.2.7-2.8 1.3-2.5 1.5-2.2 2-1.8 2.2-1.2 2.8-.3 1.2-.2 1.5-.3 1.3v1.5l.3 1.5.5 1.5.5 1.5.7 1.5 1 1.5 1 1.5 1.3 1.5 1.5 1.5m164.5 38 1.7 2.5 2 2.7 2.3 2.8 2.5 2.7 3.5 4.8 3.5 5 3.5 6 1.7 3 1.5 3 1.3 2.7.7 2.5.5 2.3v2l-.5.7-.2.8-.8.5-.7.2h-.8l-.7-.2-2.8-1-3.7-1.8-4.5-2.2-11.3-6.8-13.5-8.7m170.8 127.2-8-6.7-8.3-7.3-9.5-8.7-5-4.8-4.7-5-4.8-5-4-4.7-3.7-4.8-2.8-4.5-1.2-2.2-1-2-.8-2-.2-1.8-.8-3.5-1.2-4.2-1.5-4.3-1.8-4.5-2-4.7-2.5-4.8-5-10-5.5-9.7-5.7-9-5.8-8.3-2.7-3.5-2.5-3-5.5-6-6.3-6.7-13.7-14-6.5-6.8-6-6.5-5-5.7-3.8-4.8-.7-.7-.8-.8-.7-.5-1-.5-2-.5h-2.3l-2.5.5-2.2 1-2.3 1.5-2.2 1.8-1.8 2.2-1.7 2.5-1 3-.8 3.3-.2 1.7v2l.2 1.8.5 2 .5 2 .8 2 1 2.2 1 2.3m-132 115-21.3-18.8-10.5-9.7-9.7-9.3-8.5-8.5-3.5-4-3-3.5-2.5-3.2-1.8-3-.7-2.3-.3-1.2v-.8l.8-2.5.7-2 1-2 1-1.5 1.3-1.2 1.5-1 1.5-.8 1.7-.5 1.8-.2h2l2 .2 2 .5 2 .8 2 .7 2.2 1.3 2.3 1.2.2.3m47.8 82-12-11" stroke-width="14"/><path d="m358.1 602.5-34.5-29-64.7-54-25.8-21.2-5.2-4.3-4-3.7-3-3-2.3-2.8-.5-1.5-.5-1.2-.5-1.3v-2.7l.3-1.5 1-3 1.2-2.5 1.5-2.3 2.3-2.5 1.2-1 1.5-1 1.5-.7 1.8-.5 2-.3 2 .3 2.2.5 2.3 1.2 4 2.5 12.2 8.3 16 11.5 18 13.5 18.5 13.7 31.8 24.3 13.5 10.5" stroke-width="14"/><path d="m242.4 467.3-.5-.3-5.5-4.5-4.8-4-4-3.7-3.2-3.8-1.5-1.7-1-2-1-1.8-.5-2-.5-2-.3-2 .3-2 .2-2.2.3-.8 1-2 1.5-2.7 1.2-1.5 1.3-1.5 1.5-1.3 1.5-1 1.7-1 2.3-.5 2-.2 2.5.2 2.7.8 2.8 1.5 8.5 5.2 11.5 7.5 19.7 13.8 23 16 47.3 33.5 38.5 27.7 15.7 11.5m-141.5-284.5h-135.2l-3.3-.2-3-.5-2.7-.8-2.8-1-2.7-1.2-2.3-1.5-2.5-1.8-2-2-2-2-1.7-2.2-1.5-2.5-1.3-2.8-1-2.7-.7-2.8-.5-3v-109l.5-3 .7-2.7 1-2.8 1.3-2.7 1.5-2.5 1.7-2.3 2-2 2-2 2.5-1.7 2.3-1.5 2.7-1.3 2.8-1 2.7-.7 3-.5 3.3-.3h154.2l3 .3 3 .5 3 .7 2.8 1 2.5 1.3 2.5 1.5 2.2 1.7 2.3 2 2 2 1.7 2.3 1.5 2.5 1.3 2.7 1 2.8.7 2.7.5 3v120.8l.3 5 .5 4.5.5 4.5.7 4.5 1.8 8 2 7.7 2.5 6.8 2.7 6.2 2.5 5.5 2.8 5 2.7 4.3 2.5 3.7 2.3 3 3.5 4 1.2 1.3-3.2.5-3.5.2-3.3-.2-3.2-.8-3.5-1-3.3-1.2-3.5-1.5-3.2-1.8-3.5-2-3.3-2.2-3.2-2.5-3-2.5-6.3-5.5-5.7-6-5.5-5.8-4.8-5.7-4.5-5.5-3.7-5-5.3-7.5zm283-49-4.7-2.7-3-1.3-3.3-1.5-3.2-1-3.5-1-3.8-.7-3.7-.3-4-.2-4 .2-4.3.5-4.2 1-4.3 1.5-4.2 2-4.5 2.5-4.5 3-4.5 3.5-4.5 4.3-7 7-6.8 6.2-6.7 6.3-6.5 5.7-6.5 5.5-6.3 5-6.2 4.8-6 4.2-6 4-5.8 3.8-5.5 3.2-5.5 2.8-5.2 2.5-5.3 2.2-5 1.8-4.7 1.2-3.5.8-3.5.7-3.3.3-3 .2m191.3-66.5-1-1-3-2.7-4.5-3.8-3-2-3.3-2m38-3.5 2.8-1" stroke-width="14"/><path d="m543.4 204.3 4.5 2.2 4 2.3 3.5 2 3 2.2 4.2 3.3 1.3 1.2 1.7-1.5 4.3-3.5 3.2-2 3.8-2.5 4.2-2.2 4.8-2" stroke-width="14"/><path d="m579.1 207.3 3.3-1.8 3.5-1.7.2-.3 3-1.2 3.3-1 3.2-1 3.5-.8 3.5-.5 3.8-.5h3.7l4 .5 4 .8 4 1 4 1.5 4.3 2 4.2 2.2 4.3 3 4.2 3.5 4.5 4 7.5 7.8 7.5 7 7.5 6.7 7 6.3 7 6 7 5.5 6.5 5 6.5 4.7 6.3 4.3 6.2 3.7 6 3.3 5.8 2.7 5.5 2.3 5.5 2 5 1.2 5 1 4 .3h4.5m-193.3-68 1-1 2.8-2.8 4.7-3.7 2.8-2 3.2-2m-18.2 179.5-37.3-1.3-9.5-.2-9-.8-8.5-1-7.7-1.7-7.5-1.8-7-2.2-6.8-2.8-6-2.7-6-3.3-5.5-3.5-5-3.5-4.7-3.7-4.5-4-4.5-4.3-4-4-3.8-4.5-3.7-4.2-3.5-4.3-6.5-8.7-6.3-8.5-6-8-3-3.8-3-3.5-3-3.2-3.2-3-3.3-3-3.5-2.5-3.5-2-3.5-1.8m189.3 101.8h-1.8 2.8z" stroke-width="14"/><path d="m758.1 286.3-1 .5-3.2 1.7-2.8 1.8-3.2 2.2-3.3 2.8-3 2.7-3 3-5.7 6.8-5.8 7.2-12.2 15.8-6.5 8-3.8 4-3.5 4-4 3.7-4 4-4.5 3.5-4.5 3.8-4.7 3.2-5 3.3-5.5 3-5.8 2.7-6 2.8-6.5 2.2-6.7 2-7 1.5-7.8 1.5-8 1-8.2.5-9 .3-43 1" stroke-width="14"/><path d="m754.6 290.3h-3.5l-4.2.2-4.3.3-4.2.5-4.3.7-8.7 2-8.8 2.5-8.7 3-8.8 3.3-8.5 3.5-8.5 3.7-16 7.5-14.7 6.5-6.8 2.8-6.2 2.2-5.8 1.8-2.5.5-2.5.2-8.7 1-10 .5-21 1.3-24 .7h2.7l-25.5-1-22-1.2-10.5-.5-8.7-1-2.5-.3-2.3-.5-5.2-1.7-5.3-2.3-5.7-2.7-5.8-3.3-6.2-3.5-12.8-7.2-6.7-4-7-3.5-7-3.5-7.3-3.3-7.5-2.7-7.5-2.3-3.7-1-3.8-.7-3.7-.5-4-.3-5.3-.2-5.2.2-1.5.3" stroke-width="14"/><path d="m750.9 286.5h-1.5l-6.8-.5-6.5-.7-12.7-1.8-12-2-11.8-2.7-11.7-2.8-12.3-3.2-26.5-7.3-4.7-1-4.8-1.2-4.7-.8-5-.7-4.8-.5-4.7-.3h-9.8l-5 .3-4.7.5-5 .7-4.8 1-5 1.3-5 1.5-5 1.7-4.7 2-5.8 1.3-3.7-.3-5.8-1.5-5-1.7-5-1.8-4.7-1.5-5-1.2-5-1-4.8-.8-5-.5-4.7-.2h-9.8l-5 .2-4.7.5-4.8.8-5 .7-4.7 1-4.8 1.3-12 3.5-10.7 3.2-19.8 6.5-9.5 2.8-9.5 2.7-10 2.3-5.2 1-5.5.7-5.5.5-5.8.8m-2.7 317-23.8-1.3-51.2-3-53.5-3.5-25.3-1.5h-2.2l-2 .3-1.8.5-1.7.5-1.8.7-1.5.8-3 1.7-2.2 2.3-1.8 2.5-1.5 2.7-.7 2.8-.3 3 .3 2.7.2 1.3.5 1.5.8 1.2.7 1.3 1 1.2 1 1 1.3 1 1.5 1 1.5.8 1.7.7 1.8.5 2 .5m161-51 2.7 1.3 3 1.2 3.3 1.3 3.7 1 5.5 2.5 5.5 2.5 6 3.2 3 1.8 2.8 1.7 2.5 1.8 2.2 2 1.5 1.7.5.8.3.7.2.8v1l-.5.5-.5.7-.5.5-.7.3-3 .5-4 .5h-18.3l-16.2-.5m208.5 21.5-7.5-1.3-7-1-8.8-1.7-9.7-2.3-10-2.5-9.8-2.7-4.5-1.8-4-1.5-4-2-3.2-1.7-2.8-2-2-2-2.7-3-3-2.8-3.5-3-3.8-3-4.2-3-4.5-3-9.3-6-9.7-5.5-9.8-4.7-9-4.3-4-1.5-3.7-1.5-7.8-2.2-9-2.5-18.7-5.3-9.3-2.5-8.5-2.5-7.2-2.2-5.5-2.3-1-.5h-1l-1-.2-1 .2-2 .5-2 1.3-1.8 1.7-1.5 2-1.2 2.3-1 2.7-.5 2.8v3.2l.5 3 1 3.3.7 1.5 1 1.5 1.3 1.5 1.2 1.5 1.5 1.5 1.8 1.5 2 1.2 2 1.5m-55 166.3-27.8-5.5-14-3-13.2-2.8-11.8-3.2-5-1.5-4.5-1.5-3.5-1.5-3-1.8-2-1.5-.7-1-.5-.7-.5-2.3-.5-2.2v-4l.5-1.8.7-1.7 1-1.3 1.3-1.2 1.2-1.3 1.8-1 1.7-.7 2-.5 2.3-.5 2.2-.3 2.3-.2h3m306.2 55.7h-57.7l-35.3-.2-37-.8-18-.5-17-.7-15.5-1-13.7-1.3-11.5-1.2-4.8-.8-3.7-1-12-2.7-13-2.5" stroke-width="14"/><path d="m388.4 722.5-44.5-7.2-83.5-13.5-33-5.3-6.5-1-5.5-1-4-1.2-3.3-1.3-1.2-.7-1.3-1-.7-1-.8-1-.7-1.3-.5-1.2-.8-3.3-.2-2.7.2-2.8.5-3.2.5-1.5.8-1.8 1-1.2 1.2-1.5 1.5-1 2-1 2.3-.5 2.5-.3h4.5l14.7 1 19.5 1.8 22.5 2.5 23 2.5 39.8 4.5 17.2 2.2" stroke-width="14"/><path d="m219.6 665.3-.7-.3-6.8-.7-6.2-1.3-5.5-1-4.5-1.7-2.3-.8-1.7-1-1.8-1.2-1.5-1.3-1.5-1.5-1-1.7-1-1.8-.7-2-.3-.7-.2-2.3v-3.2l.2-1.8.3-2 .7-1.7.8-1.8 1-1.7 1.5-1.5 2-1.3 2-1 2.7-.7 3.3-.3 10 .3 13.5.7 24.2 1.5 27.8 2 58 5 47 4.3 19.5 1.7" stroke-width="14"/><path d="m193.6 423.5-59.2 45.8-38-64.5" stroke-width="21"/><path d="m134.9 464.3.2-5.5.5-5.5.5-5.5 1-5.5 1-5.3 1.5-5 1.5-5.2 1.8-5 2-4.8 2.2-4.7 2.5-4.5 2.5-4.5 3-4.3 3-4 3-4 3.5-3.7 3.5-3.8 3.5-3.5 3.8-3.2 4-3 4.2-2.8 4-2.7 4.5-2.3 4.5-2.2 4.5-2 4.8-1.8 4.7-1.5 4.8-1.2 5-.8 5-.7 5.2-.5h5.3l6.2.2 6.5.5 6.3 1 6 1.5 6 2 5.7 2.3 5.8 2.5 5.5 3 5.2 3.5 5 3.5 4.8 4 4.7 4.2 4.3 4.5 4 5 4 5 3.5 5.3" stroke-width="21"/></g></svg>