<svg height="850.394" viewBox="0 0 850.394 850.394" width="850.394" xmlns="http://www.w3.org/2000/svg"><path d="m503.7 508.59h78.09v100.55h-78.09z" fill="#ed1e29"/><path d="m503.7 408.04h78.09v100.55h-78.09zm0-100.55h78.09v100.55h-78.09zm0-100.55h78.09v100.55h-78.09z" fill="#ed1e29"/><path d="m425.63 508.59h78.07v100.55h-78.07z" fill="#abd150"/><path d="m425.63 408.04h78.07v100.55h-78.07zm0-100.55h78.07v100.55h-78.07zm0-100.55h78.07v100.55h-78.07z" fill="#abd150"/><path d="m347.54 508.59h78.09v100.55h-78.09z" fill="#fbed24"/><path d="m347.54 408.04h78.09v100.55h-78.09zm0-100.55h78.09v100.55h-78.09zm0-100.55h78.09v100.55h-78.09z" fill="#fbed24"/><path d="m269.45 508.59h78.09v100.55h-78.09z" fill="#fff"/><path d="m269.45 408.04h78.09v100.55h-78.09zm0-100.55h78.09v100.55h-78.09zm0-100.55h78.09v100.55h-78.09z" fill="#fff"/><path d="m561.89 678.66c8.07 0 14.62 7.149 14.62 15.96 0 8.83-6.55 15.97-14.62 15.97-8.069 0-14.609-7.14-14.609-15.97-.001-8.81 6.539-15.96 14.609-15.96zm-36.53-26.38c8.08 0 14.62 7.149 14.62 15.96 0 8.83-6.54 15.97-14.62 15.97-8.061 0-14.61-7.14-14.61-15.97 0-8.81 6.55-15.96 14.61-15.96zm-236.18 28.02c8.07 0 14.61 7.15 14.61 15.97s-6.54 15.961-14.61 15.961-14.61-7.141-14.61-15.961 6.54-15.97 14.61-15.97zm36.53-26.38c8.07 0 14.61 7.15 14.61 15.97s-6.54 15.96-14.61 15.96c-8.08 0-14.62-7.14-14.62-15.96s6.54-15.97 14.62-15.97zm99.36 23.96c43.28 0 78.36 13.24 78.36 29.59 0 16.34-35.08 29.59-78.36 29.59s-78.36-13.25-78.36-29.59c0-16.35 35.08-29.59 78.36-29.59zm87.13-565.6c7.479 0 13.56 6.07 13.56 13.56s-6.08 13.56-13.56 13.56c-7.49 0-13.561-6.07-13.561-13.56.001-7.49 6.071-13.56 13.561-13.56z" fill="#c8c8c8"/><path d="m562.48 97.17-1.601 3.56-14.38 66.99s-54.66 10.28-120.41 9.87l-1.02.03c-65.75.41-120.41-9.86-120.41-9.86l-14.39-66.99-3.83-2.33c47.13-26.85 139.18-28.49 139.18-28.49s89.121 1.56 136.861 27.22zm-36.72 28.67c0-7.49-6.08-13.56-13.56-13.56-7.49 0-13.561 6.07-13.561 13.56s6.07 13.56 13.561 13.56c7.48 0 13.56-6.07 13.56-13.56z" fill="#c8c8c8"/><path d="m635.41 114.85s10.96 13.15 3.28 48.76c-7.671 35.62-9.86 13.7-13.15 55.89l-4.92 464.13s.67 18.47-14.8 32.88c-15.89 14.79-63.57 52.6-179.73 63.49l-1.02.04c-116.17-10.89-163.84-48.7-179.73-63.49-15.47-14.41-14.8-32.88-14.8-32.88l-4.92-464.13c-3.29-42.19-5.49-20.28-13.16-55.89-7.67-35.62 3.29-48.77 3.29-48.77l70.69-16.44 3.83 2.33 14.39 66.99s54.66 10.27 120.41 9.86l1.02-.03c65.75.41 120.41-9.87 120.41-9.87l14.38-66.99 1.601-3.56c.76.41 1.5.82 2.239 1.24zm-53.62 494.29v-404.39h-312.34v404.39zm-5.28 85.48c0-8.811-6.55-15.96-14.62-15.96-8.069 0-14.609 7.149-14.609 15.96 0 8.83 6.54 15.97 14.609 15.97 8.07 0 14.62-7.14 14.62-15.97zm-36.53-26.38c0-8.811-6.54-15.96-14.62-15.96-8.061 0-14.61 7.149-14.61 15.96 0 8.83 6.55 15.97 14.61 15.97 8.08 0 14.62-7.14 14.62-15.97zm-36.55 39.23c0-16.35-35.08-29.59-78.36-29.59s-78.36 13.24-78.36 29.59c0 16.34 35.08 29.59 78.36 29.59s78.36-13.25 78.36-29.59zm-163.11-37.58c0-8.819-6.54-15.97-14.61-15.97-8.08 0-14.62 7.15-14.62 15.97s6.54 15.96 14.62 15.96c8.07 0 14.61-7.14 14.61-15.96zm-36.53 26.38c0-8.819-6.54-15.97-14.61-15.97s-14.61 7.15-14.61 15.97 6.54 15.961 14.61 15.961c8.07-.001 14.61-7.141 14.61-15.961z" fill="#797878"/><g fill="none"><g stroke="#231f20"><path d="m269.45 206.94v-2.19h312.34v2.19" stroke-width="19.727"/><path d="m269.45 508.59v100.55h312.34v-402.2h-312.34v201.1zm0-201.1h312.34m-312.34 100.55h312.34m-312.34 100.55h312.34m-78.09 100.55v-402.2m-78.07 402.2v-402.2m-78.09 402.2v-402.2m178.22-81.1c0 7.49-6.08 13.56-13.56 13.56-7.49 0-13.561-6.07-13.561-13.56s6.07-13.56 13.561-13.56c7.48 0 13.56 6.07 13.56 13.56z" stroke-width="14"/><path d="m286.44 98.44-70.69 16.44s-10.96 13.15-3.29 48.77c7.67 35.61 9.87 13.7 13.16 55.89l4.92 464.13s-.67 18.47 14.8 32.88c15.89 14.79 63.56 52.601 179.73 63.49l1.02-.04c116.16-10.89 163.84-48.7 179.73-63.49 15.47-14.41 14.8-32.88 14.8-32.88l4.92-464.13c3.29-42.19 5.479-20.27 13.15-55.89 7.68-35.61-3.28-48.76-3.28-48.76l-70.69-16.44a115.4 115.4 0 0 0 -2.239-1.24c-47.74-25.66-136.86-27.22-136.86-27.22s-92.051 1.64-139.181 28.49z" stroke-width="21"/><path d="m560.88 100.73-14.38 66.99s-54.66 10.28-120.41 9.87l-1.02.03c-65.75.41-120.41-9.86-120.41-9.86l-14.39-66.99" stroke-width="14"/><path d="m371.65 116.8h100.07m-100.35 9.72h100.08m-100.08 9.46h100.08m-99.94 8.9h100.07m-99.8 9.46h100.08" stroke-width="6.575"/><path d="m503.43 707.47c0 16.34-35.08 29.59-78.36 29.59s-78.36-13.25-78.36-29.59c0-16.35 35.08-29.59 78.36-29.59s78.36 13.24 78.36 29.59zm-163.11-37.58c0 8.82-6.54 15.96-14.61 15.96-8.08 0-14.62-7.14-14.62-15.96 0-8.819 6.54-15.97 14.62-15.97 8.07 0 14.61 7.15 14.61 15.97zm-36.53 26.38c0 8.82-6.54 15.961-14.61 15.961s-14.61-7.141-14.61-15.961c0-8.819 6.54-15.97 14.61-15.97s14.61 7.15 14.61 15.97zm206.96-28.03c0 8.83 6.55 15.97 14.61 15.97 8.08 0 14.62-7.14 14.62-15.97 0-8.811-6.54-15.96-14.62-15.96-8.06 0-14.61 7.15-14.61 15.96zm36.53 26.38c0 8.83 6.54 15.97 14.609 15.97 8.07 0 14.62-7.14 14.62-15.97 0-8.811-6.55-15.96-14.62-15.96-8.069 0-14.609 7.15-14.609 15.96z" stroke-width="14"/></g><path d="m0 0h850.394v850.394h-850.394z"/></g></svg>