<svg height="850.394" viewBox="0 0 850.394 850.394" width="850.394" xmlns="http://www.w3.org/2000/svg"><path d="m611.581 744.753v32.128h-485.356v-32.128h469.449z" fill="#7a7878"/><path d="m599.899 693.711 7.132 17.483h-33.245l7.132-17.483zm-20.591-20.826 7.121 17.495h-33.235l7.132-17.495z" fill="#231f20"/><path d="m560.081 504.557v128.946h-384.022v-128.946zm-33.302 97.075v-21.25h-118.326v21.25zm0-47.476v-21.262h-73.689v21.262z" fill="#c8c8c8"/><path d="m550.389 694.572 7.132 17.484h-33.235l7.133-17.484zm-27.622-21.944 7.12 17.483h-33.235l7.133-17.483z" fill="#231f20"/><path d="m408.453 580.382h118.326v21.25h-118.326zm44.637-47.487h73.689v21.262h-73.689z" fill="#7a7878"/><path d="m496.753 694.304 7.121 17.483h-33.234l7.121-17.483z" fill="#231f20"/><path d="m274.107 690.111h33.234l-7.11-17.483h-19.003zm-18.88 4.193-7.132 17.483h33.246l-7.121-17.483zm-2.974-4.058-7.121-17.495h-18.992l-7.121 17.495zm-85.796.268h33.234l-7.121-17.494h-18.993zm330.296 3.79h-18.992l-7.121 17.483h33.234zm-55.189-4.058h33.234l-7.121-17.495h-18.993zm.101 4.192h-18.993l-7.121 17.483h33.235zm139.253-.727-7.132 17.483h33.245l-7.132-17.483zm-14.376-39.64v-.022h14.018c8.865 0 13.772 4.896 16.053 16.086l15.125 58.555c1.878 14.644-7.199 16.063-16.063 16.063h-453.743c-8.876 0-17.942-1.408-16.063-16.063l15.113-58.555c2.303-11.167 7.188-16.063 16.064-16.063h409.496zm-13.348 36.309h33.234l-7.121-17.495h-18.981zm-23.307-.269-7.12-17.483h-18.981l-7.133 17.483zm1.532 4.461-7.133 17.483h33.234l-7.132-17.483zm-364.861.134h-18.993l-7.121 17.483h33.234zm52.562-.268h-18.993l-7.121 17.483h33.234zm169.882-3.924h33.234l-7.121-17.494h-18.992zm.101 4.192h-18.993l-7.121 17.483h33.234zm-58.353-.134h-18.993l-7.121 17.483h33.234zm-.101-4.192h33.234l-7.121-17.495h-18.981z" fill="#7a7878"/><path d="m490.527 428.978c4.304 0 7.791 3.499 7.791 7.803 0 4.293-3.487 7.803-7.791 7.803-4.305 0-7.792-3.51-7.792-7.803 0-4.304 3.488-7.803 7.792-7.803z" fill="#231f20"/><path d="m245.781 253.729h244.579v163.801h-244.579z" fill="#7a7878"/><path d="m482.735 436.78c0 4.293 3.487 7.803 7.792 7.803 4.304 0 7.791-3.51 7.791-7.803 0-4.304-3.487-7.803-7.791-7.803-4.304.001-7.792 3.5-7.792 7.803zm-2.001.112c0-4.304-3.499-7.803-7.792-7.803a7.804 7.804 0 0 0 0 15.606c4.293-.001 7.792-3.5 7.792-7.803zm18.233 18.769h-262.509c-10.53 0-19.071-8.529-19.071-19.06v-190.72c0-10.53 8.541-19.071 19.071-19.071h262.509c10.53 0 19.082 8.541 19.082 19.071v190.72c0 10.531-8.552 19.06-19.082 19.06zm-8.608-38.131v-163.801h-244.578v163.801z" fill="#c8c8c8"/><path d="m472.942 429.089c4.293 0 7.792 3.499 7.792 7.803s-3.499 7.803-7.792 7.803a7.804 7.804 0 0 1 0-15.606zm-5.264 243.662 7.121 17.495h-33.235l7.121-17.495zm-26.013 21.687 7.121 17.483h-33.235l7.121-17.483zm-26.55-21.418 7.121 17.494h-33.234l7.121-17.494zm-26.012 21.686 7.121 17.483h-33.235l7.121-17.483zm-32.34-21.821 7.121 17.495h-33.235l7.132-17.495zm-26.013 21.687 7.121 17.484h-33.234l7.12-17.484zm-30.518-21.944 7.11 17.483h-33.235l7.122-17.483zm-26.013 21.676 7.121 17.483h-33.245l7.132-17.483zm-29.087-21.553 7.121 17.495h-33.234l7.121-17.495zm-26.012 21.687 7.12 17.483h-33.234l7.121-17.483zm-26.55-21.418 7.121 17.494h-33.234l7.121-17.494zm-26.012 21.686 7.12 17.483h-33.234l7.121-17.483z" fill="#231f20"/><g fill="none" stroke="#231f20"><g stroke-width="15.65"><path d="m518.049 436.602c0 10.53-8.552 19.06-19.082 19.06h-262.509c-10.53 0-19.071-8.529-19.071-19.06v-190.72c0-10.53 8.541-19.071 19.071-19.071h262.509c10.53 0 19.082 8.541 19.082 19.071z"/><path d="m245.781 253.729h244.579v163.801h-244.579zm68.436 250.828v-48.326h107.695v48.326m0 0h138.169v128.946h-384.022v-128.946h138.158z"/><path d="m408.453 580.382h118.326v21.25h-118.326zm44.637-47.487h73.689v21.262h-73.689zm-311.159 211.858c-8.876 0-17.942-1.408-16.063-16.063l15.113-58.555c2.303-11.167 7.188-16.063 16.064-16.063h418.519"/><path d="m595.674 744.753c8.864 0 17.941-1.42 16.063-16.063l-15.125-58.555c-2.28-11.189-7.188-16.086-16.053-16.086h-14.018"/></g><path d="m266.07 724.419h202.647" stroke-width="19.614"/><path d="m595.674 744.753h15.907v32.128h-485.356v-32.128h451.216z" stroke-width="15.65"/></g><path d="m0 0h850.394v850.394h-850.394z" fill="none"/><path d="m807.527 183.394c-3.737 6.805-8.726 13.529-14.569 17.102l-.467-.426c-2.588-1.552-5.004-3.268-8.11-4.063-4.229-1.081-5.446-1.081-12.83-.342-1.68.169-4.613.249-6.736.913 1.046-1.897 3.204-3.682 4.844-4.936 3.513-2.685 8.055-3.32 12.428-3.243 2.946.048 8.528 3.356 12.793 3.959 4.898.69 8.846-4.39 12.647-8.964z" fill="#fff400"/><path d="m769.514 146.441c.848 3.686-.33 6.981-3.722 9.023-.627.374-12.866 3.199-30.893 7.203l3.066-10.366c8.943-2.018 14.526-3.34 14.904-3.565 2.881-1.736 3.886-4.521 3.171-7.648-.386-1.68-2.593-6.857-2.593-6.857l-6.298-12.974 4.16-14.052 15.132 31.142c.001-.001 2.615 6.109 3.073 8.094z" fill="#a3d9ff"/><path d="m762.464 198.145c.386-.735 1.262-1.23 2.351-1.567 2.123-.664 5.057-.744 6.736-.913 7.384-.739 8.602-.739 12.83.342 3.106.796 5.522 2.512 8.11 4.063l.467.426a19.242 19.242 0 0 1 -3.847 1.825c-8.886 2.982-19.095.474-26.647-4.176zm5.928-11.628c-2.037 1.556-5.317 4.124-5.812 6.531l-1.398.008a19.152 19.152 0 0 0 -.442-1.772v-.004a23.038 23.038 0 0 0 -.169-.704c.503-2.403 4.739-8.71 6.781-10.265 3.513-2.693 6.977-4.586 11.358-4.723 4.4-.141 8.014 1.749 12.282 2.359 4.896.687 11.966-.989 15.771-5.542.005-.004.009-.004.013-.008 1.873-1.479 4.478-3.417 5.498-1.013.346.804 0 2.203-.587 3.689l-1.479-.35c-3.191 6.961-12.532 10.499-17.444 9.811-4.26-.607-7.877-2.492-12.286-2.359-4.369.138-8.573 1.649-12.086 4.342z" fill="#fff400"/><path d="m762.464 198.145c-.362-.221-.72-.45-1.069-.679.173-1.226.112-2.761-.213-4.409l1.398-.008c.494-2.407 3.774-4.976 5.812-6.531 3.514-2.693 7.718-4.204 12.087-4.341 4.409-.132 8.026 1.752 12.286 2.359 4.912.688 14.253-2.85 17.444-9.811l1.479.35c-.808 2.058-2.069 4.272-2.572 5.281a79.095 79.095 0 0 1 -1.588 3.039c-3.802 4.574-7.749 9.654-12.648 8.963-4.265-.603-9.847-3.911-12.793-3.959-4.373-.077-8.915.559-12.428 3.243-1.64 1.254-3.798 3.039-4.844 4.936-1.089.337-1.965.832-2.351 1.567z" fill="#fff400"/><path d="m760.739 191.284c.494 2.279.498 4.377.072 5.784-.285.94-.76 1.571-1.402 1.74l-36.616 12.568-2.459.519 6.237-21.081 29.365-5.442c1.604-.418 3.678 2.183 4.803 5.909z" fill="#abda4d"/><path d="m806.764 172.406c-3.806 4.554-10.876 6.229-15.771 5.542-4.269-.611-7.882-2.5-12.282-2.359-4.382.137-7.846 2.03-11.358 4.723-2.042 1.555-6.278 7.862-6.781 10.265-.357-1.387-.848-2.641-1.41-3.678 1.113-4.912 3.01-10.546 7.367-13.533 5.796-3.975 15.699-3.231 21.073-.446 3.975 2.074 9.565 4.875 17.58.647.377-.197.935-.651 1.582-1.161z" fill="#fff400"/><path d="m756.041 141.087c.715 3.127-.29 5.912-3.171 7.648-.378.225-5.961 1.547-14.904 3.565l9.185-31.045 6.298 12.974c-.001.001 2.206 5.178 2.592 6.858zm-38.839-81.539 29.948 61.708-9.185 31.045c-40.768 9.2-151.313 32.833-156.559 32.841-7.315.008-8.63-8.022-8.63-8.022l-13.621-92.102c-.209-2.078 1.303-3.947 3.381-4.16l145.502-26.226c3.324-.836 7.585.78 9.164 4.916zm17.541 69.204c0-8.902-8.69-16.121-19.418-16.121-10.719 0-19.413 7.219-19.413 16.121 0 8.903 8.694 16.118 19.413 16.118 10.728 0 19.418-7.215 19.418-16.118zm-23.151-43.657c0-8.031-7.838-14.538-17.508-14.538-9.671 0-17.509 6.507-17.509 14.538 0 8.026 7.838 14.534 17.509 14.534 9.67-.001 17.508-6.508 17.508-14.534zm-33.324 53.227c0-8.907-8.693-16.122-19.413-16.122-10.728 0-19.421 7.215-19.421 16.122 0 8.898 8.693 16.117 19.421 16.117 10.719 0 19.413-7.218 19.413-16.117zm-19.598-45.253c0-8.03-7.838-14.538-17.508-14.538-9.671 0-17.508 6.507-17.508 14.538 0 8.027 7.837 14.534 17.508 14.534 9.67 0 17.508-6.507 17.508-14.534zm-37.488 55.329c0-8.907-8.693-16.122-19.417-16.122s-19.413 7.215-19.413 16.122c0 8.898 8.689 16.117 19.413 16.117s19.417-7.218 19.417-16.117zm-13.601-43.4c0-8.03-7.842-14.538-17.513-14.538-9.666 0-17.508 6.507-17.508 14.538 0 8.027 7.842 14.534 17.508 14.534 9.671 0 17.513-6.507 17.513-14.534z" fill="#a3d9ff"/><path d="m715.325 112.631c10.728 0 19.418 7.219 19.418 16.121 0 8.903-8.69 16.118-19.418 16.118-10.719 0-19.413-7.215-19.413-16.118 0-8.902 8.694-16.121 19.413-16.121z" fill="#fff400"/><path d="m718.452 212.293c2.203-.768 3.027-4.996 1.692-10.185-1.37-5.277-4.389-8.882-6.7-8.332l4.449-1.354 8.678-1.607-6.237 21.081z" fill="#abda4d"/><path d="m720.145 202.108c1.335 5.189.511 9.417-1.692 10.185l-51 10.78h-50.129l96.121-29.297c2.311-.55 5.329 3.055 6.7 8.332z" fill="#abda4d"/><path d="m694.084 70.557c9.67 0 17.508 6.507 17.508 14.538 0 8.026-7.838 14.534-17.508 14.534-9.671 0-17.509-6.507-17.509-14.534 0-8.031 7.838-14.538 17.509-14.538z" fill="#ff001c"/><path d="m658.854 122.201c10.72 0 19.413 7.215 19.413 16.122 0 8.898-8.693 16.117-19.413 16.117-10.728 0-19.421-7.219-19.421-16.117.001-8.907 8.694-16.122 19.421-16.122z" fill="#ffa500"/><path d="m573.043 242.912c-1.238.241-2.528-.775-2.938-2.323-.409-1.6.29-3.171 1.56-3.5l.334-.201 45.325-13.814h50.129l-93.891 19.843z" fill="#abda4d"/><ellipse cx="641.162" cy="93.067" fill="#f0037f" rx="17.508" ry="14.536"/><path d="m601.765 132.277c10.724 0 19.417 7.215 19.417 16.122 0 8.898-8.693 16.117-19.417 16.117s-19.413-7.219-19.413-16.117c0-8.907 8.689-16.122 19.413-16.122z" fill="#0b00ea"/><path d="m590.068 90.46c9.671 0 17.513 6.507 17.513 14.538 0 8.027-7.842 14.534-17.513 14.534-9.666 0-17.508-6.507-17.508-14.534.001-8.03 7.842-14.538 17.508-14.538z" fill="#00e800"/><path d="m563.605 186.778-16.237-108.709c-.249-2.459 1.531-4.658 3.971-4.907l161.423-28.842c3.914-.981 8.942.932 10.815 5.82l27.733 57.065-4.16 14.052-29.948-61.708c-1.579-4.136-5.84-5.752-9.163-4.916l-145.502 26.225c-2.078.213-3.59 2.082-3.381 4.16l13.621 92.102s1.314 8.031 8.63 8.022c5.245-.008 115.791-23.641 156.559-32.841l-3.066 10.366c-52.857 11.728-155.481 33.593-161.104 33.593-8.623 0-10.191-9.482-10.191-9.482z" fill="#a3d9ff"/><g fill="none" stroke="#231f20"><path d="m806.776 172.397c1.873-1.479 4.478-3.417 5.498-1.013.346.804 0 2.203-.587 3.689-.808 2.058-2.069 4.272-2.572 5.281a79.095 79.095 0 0 1 -1.588 3.039c-3.737 6.805-8.726 13.529-14.569 17.102a19.242 19.242 0 0 1 -3.847 1.825c-8.887 2.982-19.096.475-26.647-4.176-.362-.221-.72-.45-1.069-.679-.197-.133-.39-.265-.583-.398" stroke-width="4.892"/><path d="m759.16 186.899c1.113-4.912 3.01-10.546 7.367-13.533 5.796-3.975 15.699-3.231 21.073-.446 3.975 2.074 9.565 4.875 17.58.647.378-.197.937-.651 1.583-1.161" stroke-width="4.892"/><g stroke-linecap="round" stroke-linejoin="round"><path d="m760.739 191.28c-1.125-3.726-3.199-6.327-4.803-5.909l-29.365 5.442-8.678 1.607-4.449 1.354-96.121 29.297-45.325 13.814m187.785-36.662c.848-.225 1.406-1.262 1.611-2.757.173-1.226.112-2.761-.213-4.409a19.152 19.152 0 0 0 -.442-1.772" stroke-width="6.523"/><path d="m755.566 183.961c1.134-.297 2.496.9 3.594 2.938.563 1.037 1.053 2.291 1.41 3.678.061.237.117.47.169.704v.004c.494 2.279.498 4.377.072 5.784-.285.94-.76 1.571-1.402 1.74l-36.616 12.568-2.459.519-1.882.398-51 10.78-93.891 19.843m-.397-.033c-.041.012-.081.02-.121.028-1.238.241-2.528-.775-2.938-2.323-.409-1.6.29-3.171 1.56-3.5" stroke-width="6.523"/><path d="m713.396 193.788.048-.012c2.312-.55 5.33 3.055 6.7 8.332 1.335 5.189.511 9.417-1.692 10.185-.052.02-.108.036-.164.052" stroke-width="6.523"/><path d="m806.788 172.381-.012.016c-.004.004-.008.004-.013.008-3.806 4.554-10.876 6.229-15.771 5.542-4.269-.611-7.882-2.5-12.282-2.359-4.382.137-7.846 2.03-11.358 4.723-2.042 1.555-6.278 7.862-6.781 10.265" stroke-width="4.892"/><path d="m810.209 174.725c-3.191 6.961-12.532 10.499-17.444 9.811-4.26-.607-7.877-2.492-12.286-2.359-4.369.137-8.573 1.648-12.087 4.341-2.037 1.556-5.317 4.124-5.812 6.531" stroke-width="4.892"/><path d="m807.54 183.378c-.004.004-.008.012-.013.016-3.802 4.574-7.749 9.654-12.648 8.963-4.265-.603-9.847-3.911-12.793-3.959-4.373-.077-8.915.559-12.428 3.243-1.64 1.254-3.798 3.039-4.844 4.936a4.976 4.976 0 0 0 -.542 1.402" stroke-width="4.892"/><path d="m792.491 200.07c-2.588-1.552-5.004-3.268-8.11-4.063-4.229-1.081-5.446-1.081-12.83-.342-1.68.169-4.613.249-6.736.913-1.089.337-1.965.832-2.351 1.567" stroke-width="4.892"/></g><path d="m734.899 162.667c-52.857 11.728-155.481 33.593-161.104 33.593-8.622 0-10.189-9.481-10.189-9.481l-16.238-108.71c-.249-2.459 1.531-4.658 3.971-4.907l161.423-28.842c3.914-.981 8.942.932 10.815 5.82l27.733 57.065 15.132 31.142s2.613 6.109 3.071 8.095c.848 3.686-.33 6.981-3.722 9.023-.626.373-12.865 3.199-30.892 7.202z" stroke-width="9.784"/><path d="m737.966 152.301c-40.768 9.2-151.313 32.833-156.559 32.841-7.315.008-8.63-8.022-8.63-8.022l-13.621-92.102c-.209-2.078 1.303-3.947 3.381-4.16l145.502-26.226c3.323-.836 7.584.779 9.163 4.916l29.948 61.708 6.298 12.974s2.207 5.177 2.593 6.857c.715 3.127-.29 5.912-3.171 7.648-.378.226-5.961 1.548-14.904 3.566z" stroke-width="6.523"/><path d="m607.581 104.998c0 8.027-7.842 14.534-17.513 14.534-9.666 0-17.508-6.507-17.508-14.534 0-8.03 7.842-14.538 17.508-14.538 9.671 0 17.513 6.508 17.513 14.538zm51.089-11.929c0 8.027-7.838 14.534-17.508 14.534-9.671 0-17.508-6.507-17.508-14.534 0-8.03 7.837-14.538 17.508-14.538 9.67 0 17.508 6.508 17.508 14.538zm52.922-7.974c0 8.026-7.838 14.534-17.508 14.534-9.671 0-17.509-6.507-17.509-14.534 0-8.031 7.838-14.538 17.509-14.538 9.67 0 17.508 6.507 17.508 14.538zm-90.41 63.303c0 8.898-8.693 16.117-19.417 16.117s-19.413-7.219-19.413-16.117c0-8.907 8.689-16.122 19.413-16.122s19.417 7.216 19.417 16.122zm57.086-10.076c0 8.898-8.693 16.117-19.413 16.117-10.728 0-19.421-7.219-19.421-16.117 0-8.907 8.693-16.122 19.421-16.122 10.719.001 19.413 7.216 19.413 16.122zm56.475-9.57c0 8.903-8.69 16.118-19.418 16.118-10.719 0-19.413-7.215-19.413-16.118 0-8.902 8.694-16.121 19.413-16.121 10.728 0 19.418 7.219 19.418 16.121z" stroke-width="9.784"/></g></svg>