<svg height="850.394" viewBox="0 0 850.394 850.394" width="850.394" xmlns="http://www.w3.org/2000/svg"><path d="m690.02 194.99v29.7l-131.23-4.79v-30.66z" fill="#787878"/><path d="m364.33 183.98 49.11 2.61.01 283.09-48.04 8.221-88.93 15.22c.04-.13.06-.19.06-.19l-70.05 11.99c.25 0 .49.021.73.05l-132.21 22.619v-358.98zm27.94 262.85v-236.19l-294.97-14.41v297.17z" fill="#c8c8c8"/><path d="m445.89 617.96-44.43 9.09-17.75-23.71-.49-2.55c14.31-2.71 29.49-5.59 45.049-8.53l.54 2.88zm183.61-63.24 23.39 19.33-49.38 11.19-.49.51-22.82-22.01c21.3-3.96 38.61-7.13 49.3-9.02z" fill="#787878"/><path d="m679.56 596.07-53.17 12.05-.08.08-23.29-22.45.49-.51 49.38-11.19zm-298.73-51.02c1.49 16.851-63.69 36.37-145.58 43.61-81.9 7.24-149.48-.55-150.98-17.391-1.41-15.989 57.25-34.39 133.24-42.409 1.32 10.92 1.92 22.05 4.72 24.859 5.92 5.92 17.75 5.92 17.75 5.92 10.35 0 22.91-4.439 22.91-15.52 0-3.78 1.59-10.96 3.69-18.76 64.47-2.319 112.99 5.451 114.25 19.691z" fill="#787878"/><path d="m392.27 210.64v236.19l-294.97 46.57v-297.17z" fill="#00efdc"/><g fill="#787878"><path d="m623.92 319.52c11.64 0 21.08 10.08 21.08 22.51s-9.44 22.51-21.08 22.51-21.06-10.08-21.06-22.51 9.42-22.51 21.06-22.51zm-222.46 307.53-47.33 9.681-18.34-24.5-1.77-2.12c14.3-2.71 31.04-5.891 49.2-9.32l.49 2.55zm293.46-62.53-42.03 9.53-23.39-19.33c4.51-.8 7.84-1.37 9.81-1.67 18.551-2.859 37.16 2.42 49.98 7.88zm-249.03 53.44 20.66 27.6-43.99 9.68-21.1-28.19z"/><path d="m486.22 671.84.23 1.03-44.72 9.92-.61-2.75-18.56-24.8 43.99-9.68zm-279-166.87 69.26-11.85c-.66 1.92-6.1 18.11-9.9 32.24-11.78.42-24.08 1.18-36.73 2.3-4.16.37-8.28.77-12.34 1.2-1.42-11.66-3.65-23.1-10.29-23.89zm298.8 131.9-39.47 8.69-20.66-27.6 39.87-8.15z"/><path d="m775.39 628.55c6.561 15.851-8.34 37.681-8.34 37.681s-403.07 93.93-450.7 100.579c-20.16 2.811-35.43-22.989-35.43-22.989l-42.85-55.561v-40.06c.87 3.37 2.41 5.63 2.41 5.63s57.83 88.17 71.09 86.15c62.13-9.45 456.92-101.53 456.92-101.53s5.62-4.04 6.9-9.9zm-105.57-168.73v24.93l-106.72 3.9v-24.16zm57.16 125.5-47.421 10.75-26.67-22.021 42.03-9.53 18.55 11.83a2178.05 2178.05 0 0 1 13.511 8.971z"/><path d="m375.69 665.55 46.87-10.31 18.56 24.8.61 2.75-128.25 28.46-21.17-27.36 38-8.35z"/></g><path d="m206.49 504.92 70.05-11.99-.06.19-69.26 11.85c-.24-.03-.48-.05-.73-.05z" fill="#fff"/><path d="m535.94 272.6.119-9.61h.011s3.56 27.79 36.13 27.79h117.819v219.36l-170.229 9c10.11-3.01 13.13-16.659 13.13-16.659s.49-36.641 1.16-87.221c.56-42.25 1.24-94.21 1.86-142.66zm133.88 212.15v-24.93l-106.72 4.67v24.16zm-24.82-142.72c0-12.43-9.44-22.51-21.08-22.51s-21.06 10.08-21.06 22.51 9.42 22.51 21.06 22.51 21.08-10.08 21.08-22.51z" fill="#c8c8c8"/><path d="m755.46 604.92-50.56 12.08-25.341-20.93 47.421-10.75c9.32 6.25 19.48 13.18 28.48 19.6zm-249.44 31.95 20.31 27.15-39.88 8.85-.23-1.03-19.67-26.28zm-83.46 18.37-46.87 10.31-21.56-28.82 47.33-9.68zm63.2-45.43 40.91-8.36 19.84 26.51-40.49 8.91z" fill="#787878"/><path d="m485.76 609.81-39.87 8.15-17.08-22.82-.54-2.88c26.601-5.02 54.301-10.25 80.591-15.18l.149.78 17.66 23.59zm20.26 27.06 40.49-8.91 19.91 26.6.12.54-40.21 8.92z" fill="#787878"/><path d="m535.94 272.6c-.62 48.45-1.301 100.41-1.86 142.66-21.271-.01-32.76-24.86-32.76-24.86s-.971-79.51-.971-99.62c.001-19.92 34.891-18.22 35.591-18.18z" fill="#c8c8c8"/><path d="m269.44 654.33 22.87 29.56 21.17 27.36 128.25-28.46 44.72-9.92 39.88-8.851 40.21-8.92 44.85-9.949-25.39-25.92-46.86-47.83c14.71-2.761 28.57-5.351 41.061-7.66l22.819 22.01 23.29 22.45 22.921 22.109 55.669-13.309 50.56-12.08c4.76 3.39 9.2 6.64 13.03 9.58 6.6 5.06 7.79 9.99 6.899 14.05-1.279 5.86-6.899 9.9-6.899 9.9s-394.79 92.08-456.92 101.53c-13.26 2.02-71.09-86.15-71.09-86.15s-1.54-2.26-2.41-5.63c-1.24-4.83-1.1-11.92 6.92-17.9 6.76-5.03 40.71-11.01 40.71-11.01s19.04-3.62 48.32-9.18l1.77 2.12 18.34 24.5-45.85 9.38-38.35 7.84z" fill="#787878"/><path d="m704.9 617-55.67 13.31-22.92-22.11.08-.08 53.17-12.05zm-396.62 29.11 22.03 29.43-38 8.35-22.87-29.56.49-.38zm-41.7-120.75c-2.1 7.8-3.69 14.979-3.69 18.76 0 11.08-12.56 15.52-22.91 15.52 0 0-11.83 0-17.75-5.92-2.8-2.81-3.4-13.939-4.72-24.859 4.06-.431 8.18-.83 12.34-1.2a699.569 699.569 0 0 1 36.73-2.301zm260.09 76.09-17.66-23.59-.149-.78c10.37-1.95 20.51-3.86 30.279-5.68l46.86 47.83-.06.06-39.431 8.67z" fill="#787878"/><path d="m354.13 636.73 21.56 28.82-45.38 9.99-22.03-29.43z" fill="#787878"/><path d="m519.79 519.14c-1.26.37-2.62.58-4.1.58-12.71 0-137.371-37.89-150.28-41.819l48.04-8.221-.01-283.09-49.11-2.61v-49.34l150.39-35.44s3.721 0 8.17 1.5c6.61 2.22 14.82 7.75 14.82 21.49 0 9.07-.75 70.15-1.65 140.8l-.119 9.61c-.7-.04-35.591-1.74-35.591 18.18 0 20.11.971 99.62.971 99.62s11.489 24.85 32.76 24.86c-.67 50.58-1.16 87.221-1.16 87.221s-3.021 13.649-13.131 16.659z" fill="#c8c8c8"/><path d="m690.02 140.54v29.7l-131.23-4.79v-30.66zm-104.02 478.69 25.39 25.92-44.85 9.95-.12-.54-19.91-26.6 39.43-8.67z" fill="#787878"/><path d="m690.02 224.69v66.09h-117.819c-32.57 0-36.13-27.79-36.13-27.79h-.011c.9-70.65 1.65-131.73 1.65-140.8 0-13.74-8.21-19.27-14.82-21.49l167.13 12.87v26.97l-131.229-5.75v30.66l131.229 4.79v24.75l-131.229-5.75v30.66z" fill="#c8c8c8"/><g fill="none" stroke="#000" stroke-width="19.226"><path d="m364.33 183.98 49.11 2.61.01 283.09-48.04 8.22-88.93 15.22-69.26 11.85-132.21 22.62v-358.98z"/><path d="m392.27 210.64-294.97-14.41v297.17l294.97-46.57zm-174.76 318.22c-75.99 8.02-134.65 26.42-133.24 42.409 1.5 16.841 69.08 24.631 150.98 17.391 81.89-7.24 147.07-26.76 145.58-43.61-1.26-14.24-49.78-22.01-114.25-19.689"/><path d="m206.49 504.92c-.01 0-.01 0 0 0 .25 0 .49.021.73.05 6.64.79 8.87 12.23 10.29 23.891 1.32 10.92 1.92 22.05 4.72 24.859 5.92 5.92 17.75 5.92 17.75 5.92 10.35 0 22.91-4.439 22.91-15.52 0-3.78 1.59-10.96 3.69-18.76 3.8-14.13 9.24-30.32 9.9-32.24.04-.13.06-.19.06-.19zm157.84-320.89v-49.39l150.39-35.44s3.721 0 8.17 1.5c6.61 2.22 14.82 7.75 14.82 21.49 0 9.07-.75 70.15-1.65 140.8l-.119 9.61c-.62 48.45-1.301 100.41-1.86 142.66-.67 50.58-1.16 87.221-1.16 87.221s-3.02 13.649-13.13 16.659c-1.26.37-2.62.58-4.1.58-12.71 0-137.371-37.89-150.28-41.819-.71-.221-1.08-.33-1.08-.33"/><path d="m522.8 100.69.09.01 167.13 12.87v396.57l-170.23 9-.2.01"/><path d="m536.07 262.99s3.56 27.79 36.13 27.79h117.819m-154.069-18.18h-.01c-.7-.04-35.591-1.74-35.591 18.18 0 20.11.971 99.62.971 99.62s11.489 24.85 32.76 24.86h.01m110.91-73.23c0 12.43-9.44 22.51-21.08 22.51s-21.06-10.08-21.06-22.51 9.42-22.51 21.06-22.51 21.08 10.08 21.08 22.51zm-81.9 146.62 106.72-3.9v-24.93l-106.72 4.67zm126.92-348.11-131.23-5.75v30.66l131.23 4.79m4.9 394.28-5.63-3.59c-12.82-5.46-31.43-10.739-49.98-7.88-1.97.3-5.3.87-9.81 1.67-10.69 1.891-28 5.061-49.3 9.021-12.49 2.31-26.351 4.899-41.061 7.66-9.77 1.819-19.909 3.729-30.279 5.68-26.29 4.93-53.99 10.16-80.591 15.18-15.56 2.94-30.74 5.82-45.049 8.53-18.16 3.43-34.9 6.61-49.2 9.32-29.28 5.56-48.32 9.18-48.32 9.18s-33.95 5.979-40.71 11.01c-8.02 5.98-8.16 13.07-6.92 17.9.87 3.37 2.41 5.63 2.41 5.63s57.83 88.17 71.09 86.15c62.13-9.45 456.92-101.53 456.92-101.53s5.62-4.04 6.899-9.9c.891-4.06-.3-8.99-6.899-14.05-3.83-2.94-8.271-6.19-13.03-9.58-9-6.42-19.16-13.35-28.479-19.6-4.811-3.221-9.41-6.271-13.511-8.971z"/><path d="m238.07 648.17v40.09l42.85 55.561s15.27 25.8 35.43 22.989c47.63-6.649 450.7-100.579 450.7-100.579s14.9-21.83 8.34-37.681c-.17-.42-.359-.83-.56-1.24m-84.81-432.32-131.23-5.75v30.66l131.23 4.79"/><path d="m539.14 571.4 46.86 47.83 25.39 25.92-44.85 9.95-40.21 8.92-39.88 8.85-44.72 9.92-128.25 28.46-21.17-27.36-22.87-29.56-18.22-23.55"/><path d="m291.15 684.15 1.16-.26 38-8.35 45.38-9.99 46.87-10.31 43.99-9.68 39.47-8.69 40.49-8.91 39.43-8.67m-316.01 34.66 38.35-7.84 45.85-9.38 47.33-9.68 44.43-9.09 39.87-8.15 40.91-8.36 29.81-6.1"/><path d="m291.02 623.05 17.26 23.06 22.03 29.43 18.12 24.21m-12.64-87.52 18.34 24.5 21.56 28.82 17.5 23.38m-9.48-85.59 17.75 23.71 21.1 28.19 18.56 24.8m-12.31-84.9 17.08 22.82 20.66 27.6 19.67 26.28m-15.68-82.37 15.22 20.34 20.26 27.06 20.31 27.15m-17.32-86.16 17.66 23.59 19.84 26.51 19.91 26.6m13.78-90.82 22.82 22.01 23.29 22.45 22.92 22.11 55.67-13.31 50.56-12.08"/><path d="m626.39 608.12 53.17-12.05 47.42-10.75m-123.47-.08 49.38-11.19 42.03-9.53"/><path d="m628.37 553.79 1.13.93 23.39 19.33 26.67 22.02 25.34 20.93"/></g><path d="m0 0h850.394v850.394h-850.394z" fill="none"/></svg>