<svg height="850.394" viewBox="0 0 850.394 850.394" width="850.394" xmlns="http://www.w3.org/2000/svg"><path d="m419.65 565.81c-5.15-3.5-7.95-8.35-7.95-15.279 0-14.021 1.1-22.49 1.1-22.49s10.11-98.62 24.34-112.84c9.04-9.04 24.311-18.41 70.511-22.54l.119 1.41v42.03c-23.399 12.67-37.88 30.16-37.88 49.46 0 38.69 58.11 70.07 129.811 70.07 71.689 0 129.8-31.38 129.8-70.07 0-17.71-12.14-33.859-32.2-46.189v-42.59l.38-3.4c29.57 3.19 54.94 9.82 64.721 19.6 12.17 12.18 15.489 23.6 19.909 72.29 3.921 42.94 10.681 75.841-6.779 86.011-2.33 1.37-5.09 2.33-8.34 2.85 0 0-128.521-6.83-135.341 0-6.819 6.82-30.97 12.54-44.989 6.82-14.011-5.72-9.58-5.72-28.021-5.72-18.439 0-94.28 1.22-116.53-2.19-9.691-1.503-17.411-3.653-22.661-7.233zm351.66-22.3c0-11.399-11.72-20.63-26.189-20.63s-26.19 9.23-26.19 20.63c0 11.431 11.721 20.67 26.19 20.67s26.189-9.24 26.189-20.67zm-289.91 0c0-11.399-11.721-20.63-26.19-20.63-14.46 0-26.17 9.23-26.17 20.63 0 11.431 11.71 20.67 26.17 20.67 14.47 0 26.19-9.24 26.19-20.67z" fill="#c8c8c8"/><path d="m775.53 571.28.17.31s-5.28 36.58-44.37 36.58h-153.31l-1.56.36c-.54-1.99-1.33-3.91-2.35-5.75l-73.11.18c-.67 1.521-1.7 3.61-2.56 5.74l-3.37-1.75h-31.05c-38.58 0-44.24-40.09-44.37-41.141 5.25 3.58 12.97 5.73 22.66 7.23 22.25 3.41 98.091 2.19 116.53 2.19 18.44 0 14.01 0 28.021 5.72 14.02 5.72 38.17 0 44.989-6.82 6.82-6.83 135.341 0 135.341 0 3.249-.519 6.009-1.479 8.339-2.849z" fill="#c8c8c8"/><path d="m745.12 522.88c14.47 0 26.189 9.23 26.189 20.63 0 11.431-11.72 20.67-26.189 20.67s-26.19-9.239-26.19-20.67c0-11.4 11.72-20.63 26.19-20.63zm-47.82-83.51c20.061 12.33 32.2 28.479 32.2 46.189 0 38.69-58.11 70.07-129.8 70.07-71.7 0-129.811-31.38-129.811-70.07 0-19.3 14.48-36.79 37.88-49.46v-42.03l-.119-1.41c2.81-.26 5.739-.49 8.79-.7 53.09-3.68 124.52-1.94 159.01-.29 7.55.36 15.02.94 22.229 1.71l-.38 3.4v42.591zm-120.84 169.16c.54 1.989.82 4.06.82 6.18 0 16.89-18 30.61-40.2 30.61s-40.19-13.721-40.19-30.61c0-1.7.69-3.88 1.551-6.01.859-2.13 1.89-4.22 2.56-5.74l73.11-.18a25.805 25.805 0 0 1 2.349 5.75zm-25.73 58.67v21.859c0 9.24-5.69 16.721-12.7 16.721h-4.84c-7.011 0-12.71-7.48-12.71-16.721v-21.859c0-9.23 5.699-16.74 12.71-16.74h4.84c7.01 0 12.7 7.51 12.7 16.74zm-95.52-144.32c14.47 0 26.19 9.23 26.19 20.63 0 11.431-11.721 20.67-26.19 20.67-14.46 0-26.17-9.239-26.17-20.67 0-11.4 11.71-20.63 26.17-20.63z" fill="#7a7878"/><path d="m392.43 615.81c.65 2.301 36.209 106.94 18.77 117.99-22.14 14.03-35.78 9.23-57.9-12.899l-38.72-61.58h-127.46l-38.72 61.579c-22.12 22.13-35.77 26.93-57.9 12.899-21.82-13.819 17.67-115.189 18.74-117.93 5.82 14.41 25.44 25 48.75 25 27.9 0 50.51-15.18 50.51-33.92 0-6.96-3.12-13.431-8.46-18.811l.43-.42h98.14l.27.23c-4.63 5.13-7.29 11.149-7.29 17.58 0 18.729 22.62 33.92 50.52 33.92 22.67 0 41.85-10.03 48.25-23.83l2.05.14.01.01c0 .012 0 .022.01.042z" fill="#c8c8c8"/><path d="m392.63 605.53c0 3.51-.79 6.899-2.27 10.09-6.4 13.8-25.58 23.83-48.25 23.83-27.9 0-50.52-15.19-50.52-33.92 0-6.431 2.66-12.45 7.29-17.58 8.86-9.811 24.91-16.36 43.23-16.36 27.9 0 50.52 15.19 50.52 33.94zm-20.6-.79c0-2.15-2.32-3.9-5.2-3.9-2.87 0-5.21 1.75-5.21 3.9 0 2.149 2.34 3.91 5.21 3.91 2.88 0 5.2-1.76 5.2-3.91zm-24.09 11.07c0-2.17-2.33-3.909-5.2-3.909-2.88 0-5.21 1.739-5.21 3.909 0 2.16 2.33 3.9 5.21 3.9 2.87 0 5.2-1.74 5.2-3.9zm-.18-24.59c0-2.16-2.33-3.92-5.2-3.92-2.88 0-5.21 1.76-5.21 3.92 0 2.15 2.33 3.9 5.21 3.9 2.87 0 5.2-1.75 5.2-3.9zm-26.28 13.13c0-2.149-2.32-3.909-5.21-3.909-2.87 0-5.2 1.76-5.2 3.909 0 2.16 2.33 3.91 5.2 3.91 2.89 0 5.21-1.75 5.21-3.91z" fill="#7a7878"/><path d="m383.76 110.88-1.81 5.68-238.87 30.83-1.71.22-49.3-16.2-21.71-12.57 239.56-31.55zm-1.81 5.68-5 328.79-233.58 50.46v-346.2l-.29-2.22z" fill="#33a048"/><path d="m366.83 600.84c2.88 0 5.2 1.75 5.2 3.9 0 2.149-2.32 3.91-5.2 3.91-2.87 0-5.21-1.761-5.21-3.91 0-2.15 2.34-3.9 5.21-3.9zm-24.09 11.06c2.87 0 5.2 1.739 5.2 3.909 0 2.16-2.33 3.9-5.2 3.9-2.88 0-5.21-1.74-5.21-3.9 0-2.169 2.33-3.909 5.21-3.909zm-.18-24.6c2.87 0 5.2 1.76 5.2 3.92 0 2.15-2.33 3.9-5.2 3.9-2.88 0-5.21-1.75-5.21-3.9 0-2.16 2.33-3.92 5.21-3.92zm-26.29 13.14c2.89 0 5.21 1.76 5.21 3.909 0 2.16-2.32 3.91-5.21 3.91-2.87 0-5.2-1.75-5.2-3.91 0-2.149 2.33-3.909 5.2-3.909z" fill="#231f20"/><path d="m109.24 615.86a23.448 23.448 0 0 1 -1.77-8.91c0-18.75 22.61-33.91 50.52-33.91 17.54 0 32.99 5.99 42.05 15.1 5.34 5.38 8.46 11.851 8.46 18.811 0 18.74-22.61 33.92-50.51 33.92-23.31 0-42.93-10.59-48.75-25zm78.7-8.88c0-2.15-2.34-3.91-5.2-3.91-2.88 0-5.21 1.76-5.21 3.91 0 2.149 2.33 3.909 5.21 3.909 2.86.001 5.2-1.759 5.2-3.909zm-24.1 11.07c0-2.16-2.33-3.91-5.2-3.91s-5.21 1.75-5.21 3.91c0 2.141 2.34 3.88 5.21 3.88s5.2-1.74 5.2-3.88zm-.18-24.61c0-2.15-2.33-3.891-5.2-3.891-2.89 0-5.21 1.74-5.21 3.891 0 2.17 2.32 3.92 5.21 3.92 2.87 0 5.2-1.75 5.2-3.92zm-26.28 13.14c0-2.14-2.33-3.9-5.2-3.9-2.88 0-5.21 1.761-5.21 3.9 0 2.16 2.33 3.91 5.21 3.91 2.87 0 5.2-1.75 5.2-3.91z" fill="#7a7878"/><path d="m182.74 603.07c2.86 0 5.2 1.76 5.2 3.91 0 2.149-2.34 3.909-5.2 3.909-2.88 0-5.21-1.76-5.21-3.909 0-2.15 2.33-3.91 5.21-3.91zm-24.1 11.07c2.87 0 5.2 1.75 5.2 3.91 0 2.141-2.33 3.88-5.2 3.88s-5.21-1.739-5.21-3.88c0-2.16 2.34-3.91 5.21-3.91zm-.18-24.59c2.87 0 5.2 1.74 5.2 3.891 0 2.17-2.33 3.92-5.2 3.92-2.89 0-5.21-1.75-5.21-3.92 0-2.151 2.32-3.891 5.21-3.891z" fill="#231f20"/><path d="m92.07 131.41 49.3 16.2 1.71-.22.29 2.22v346.2l-71.87-38.93v-332.23z" fill="#33a048"/><path d="m132.18 602.68c2.87 0 5.2 1.761 5.2 3.9 0 2.16-2.33 3.91-5.2 3.91-2.88 0-5.21-1.75-5.21-3.91 0-2.14 2.33-3.9 5.21-3.9z" fill="#231f20"/><g fill="none"><g stroke="#231f20"><path d="m419.65 565.81c-5.15-3.5-7.95-8.35-7.95-15.279 0-14.021 1.1-22.49 1.1-22.49s10.11-98.62 24.34-112.84c9.04-9.04 24.311-18.41 70.511-22.54 2.81-.26 5.739-.49 8.79-.7 53.09-3.68 124.52-1.94 159.01-.29 7.55.36 15.02.94 22.229 1.71 29.57 3.19 54.94 9.82 64.721 19.6 12.17 12.18 15.489 23.6 19.909 72.29 3.921 42.94 10.681 75.841-6.779 86.011-2.33 1.37-5.09 2.33-8.34 2.85 0 0-128.521-6.83-135.341 0-6.819 6.82-30.97 12.54-44.989 6.82-14.011-5.72-9.58-5.72-28.021-5.72-18.439 0-94.28 1.22-116.53-2.19-9.69-1.502-17.41-3.652-22.66-7.232z" stroke-width="21"/><path d="m419.64 565.79s0 .01.01.02c.13 1.051 5.79 41.141 44.37 41.141h31.051" stroke-width="14"/><path d="m775.7 571.59s-5.28 36.58-44.37 36.58h-153.31m-70.25-214.1v42.03c-23.399 12.67-37.88 30.16-37.88 49.46 0 38.69 58.11 70.07 129.811 70.07 71.689 0 129.8-31.38 129.8-70.07 0-17.71-12.14-33.859-32.2-46.189v-42.59" stroke-width="21"/><path d="m481.4 543.51c0 11.431-11.721 20.67-26.19 20.67-14.46 0-26.17-9.239-26.17-20.67 0-11.399 11.71-20.63 26.17-20.63 14.47 0 26.19 9.23 26.19 20.63zm289.91 0c0 11.431-11.72 20.67-26.189 20.67s-26.19-9.239-26.19-20.67c0-11.399 11.721-20.63 26.19-20.63s26.189 9.23 26.189 20.63z" stroke-width="14"/><path d="m414.23 730.8c1.92 11.37 11.58 17.2 20.53 23.09 14.891 9.78 30.2 13.011 47.96 10.69 14.58-1.91 33.721-9.59 43.48-21.16 9.04-10.71 9.77-22.85 9.77-36.16m14.76-18.2c0 9.24-5.69 16.721-12.7 16.721h-4.84c-7.011 0-12.71-7.48-12.71-16.721v-21.86c0-9.23 5.699-16.74 12.71-16.74h4.84c7.01 0 12.7 7.51 12.7 16.74zm-52.29-80.36c.859-2.13 1.89-4.22 2.56-5.74l73.11-.18c1.02 1.84 1.81 3.76 2.35 5.75.54 1.989.82 4.06.82 6.18 0 16.89-18 30.61-40.2 30.61s-40.19-13.721-40.19-30.61c0-1.7.69-3.88 1.55-6.01zm-389.2 7.16a23.448 23.448 0 0 1 -1.77-8.91c0-18.75 22.61-33.91 50.52-33.91 17.54 0 32.99 5.99 42.05 15.1 5.34 5.38 8.46 11.851 8.46 18.811 0 18.74-22.61 33.92-50.51 33.92-23.31 0-42.93-10.59-48.75-25m189.64-27.921c8.86-9.811 24.91-16.36 43.23-16.36 27.9 0 50.52 15.19 50.52 33.94 0 3.51-.79 6.899-2.27 10.09-6.4 13.8-25.58 23.83-48.25 23.83-27.9 0-50.52-15.19-50.52-33.92 0-6.43 2.66-12.45 7.29-17.58z" stroke-width="21"/><path d="m109.26 615.81s-.01.021-.02.051v.01c-1.07 2.74-40.56 104.11-18.74 117.93 22.13 14.03 35.78 9.23 57.9-12.899l38.72-61.58h7.98m197.31-43.562.01.01c0 .011 0 .021.01.04.65 2.301 36.209 106.94 18.77 117.99-22.14 14.03-35.78 9.23-57.9-12.899l-38.72-61.58h-119.48m5.37-71.601h98.14" stroke-width="21"/><path d="m321.48 604.35c0 2.16-2.32 3.91-5.21 3.91-2.87 0-5.2-1.75-5.2-3.91 0-2.149 2.33-3.909 5.2-3.909 2.89-.001 5.21 1.759 5.21 3.909zm26.28-13.13c0 2.15-2.33 3.9-5.2 3.9-2.88 0-5.21-1.75-5.21-3.9 0-2.16 2.33-3.92 5.21-3.92 2.87 0 5.2 1.76 5.2 3.92zm.18 24.59c0 2.16-2.33 3.9-5.2 3.9-2.88 0-5.21-1.74-5.21-3.9 0-2.17 2.33-3.909 5.21-3.909 2.87-.001 5.2 1.739 5.2 3.909zm24.09-11.07c0 2.149-2.32 3.91-5.2 3.91-2.87 0-5.21-1.761-5.21-3.91 0-2.15 2.34-3.9 5.21-3.9 2.88 0 5.2 1.75 5.2 3.9zm-234.65 1.84c0 2.16-2.33 3.91-5.2 3.91-2.88 0-5.21-1.75-5.21-3.91 0-2.14 2.33-3.9 5.21-3.9 2.87 0 5.2 1.76 5.2 3.9zm26.28-13.14c0 2.17-2.33 3.92-5.2 3.92-2.89 0-5.21-1.75-5.21-3.92 0-2.15 2.32-3.891 5.21-3.891 2.87.001 5.2 1.741 5.2 3.891zm.18 24.61c0 2.141-2.33 3.88-5.2 3.88s-5.21-1.739-5.21-3.88c0-2.16 2.34-3.91 5.21-3.91s5.2 1.75 5.2 3.91zm24.1-11.07c0 2.149-2.34 3.909-5.2 3.909-2.88 0-5.21-1.76-5.21-3.909 0-2.15 2.33-3.91 5.21-3.91 2.86 0 5.2 1.76 5.2 3.91z" stroke-width="14"/><path d="m143.37 495.81-71.87-38.93v-332.23l20.57 6.76 49.3 16.2 1.71-.22 238.87-30.83-5 328.79zm-79.62-376.1 6.61-.87 239.56-31.55 73.84 23.59 7.08 2.26m-247.47 36.47v346.2" stroke-width="21"/></g><path d="m0 0h850.394v850.394h-850.394z"/></g></svg>