<svg height="850.394" viewBox="0 0 850.394 850.394" width="850.394" xmlns="http://www.w3.org/2000/svg"><path d="m747.23 70.84c25.289 0 45.909 20.61 45.909 45.9v459.23c0 25.391-20.62 45.9-45.909 45.9h-632.08c-25.39 0-46-20.51-46-45.9v-459.23c0-25.29 20.61-45.9 46-45.9zm-20.31 524.35c10.35 0 18.72-8.36 18.72-18.83 0-10.341-8.37-18.71-18.72-18.71-10.46 0-18.82 8.369-18.82 18.71 0 10.47 8.36 18.83 18.82 18.83zm-42.42.3c10.36 0 18.82-8.471 18.82-18.82 0-10.36-8.46-18.72-18.82-18.72-10.35 0-18.72 8.359-18.72 18.72 0 10.35 8.37 18.82 18.72 18.82zm41.92-65.42v-394.41h-588.86v394.41z" fill="#c8c8c8"/><path d="m726.92 557.65c10.35 0 18.72 8.369 18.72 18.71 0 10.47-8.37 18.83-18.72 18.83-10.46 0-18.82-8.36-18.82-18.83 0-10.34 8.36-18.71 18.82-18.71z"/><path d="m137.56 135.66h588.86v394.41h-588.86z" fill="#00efdc"/><path d="m684.5 557.95c10.36 0 18.82 8.359 18.82 18.72 0 10.35-8.46 18.82-18.82 18.82-10.35 0-18.72-8.471-18.72-18.82 0-10.36 8.37-18.72 18.72-18.72z"/><path d="m523.19 712.38s21.609 28.48 96.689 39.54v31.66l-132.229.3h-245.74v-31.56c75.08-11.061 96.68-39.54 96.68-39.54v-90.91h184.6z" fill="#787878"/><g fill="none"><g stroke="#000" stroke-width="40.947"><path d="m338.59 621.87h-223.44c-25.39 0-46-20.51-46-45.9v-459.23c0-25.29 20.61-45.9 46-45.9h632.08c25.289 0 45.909 20.61 45.909 45.9v459.23c0 25.391-20.62 45.9-45.909 45.9z"/><path d="m137.56 135.66h588.86v394.41h-588.86zm385.63 486.21v90.51s21.609 28.48 96.689 39.54v31.66l-132.229.3h-245.74v-31.56c75.08-11.061 96.68-39.54 96.68-39.54v-90.91"/></g><path d="m0 0h850.394v850.394h-850.394z"/></g></svg>