<svg height="850.394" viewBox="0 0 850.394 850.394" width="850.394" xmlns="http://www.w3.org/2000/svg"><path d="m677.75 252.77h-489.67v-22.69h490.73v22.69z" fill="#a9d7f3"/><path d="m188.08 252.77h490.73v250.11h-490.73z" fill="#fff"/><path d="m678.81 502.88v-272.8h19.53v-32.72h2.01v305.52h-.21z" fill="#a9d7f3"/><path d="m154.31 232.5v270.38h546.04v26.14h-549.69v-298.94h3.65z" fill="#7a7878"/><path d="m188.08 252.77v250.11h-33.77v-272.8h33.77v1.42z" fill="#a9d7f3"/><path d="m600.83 736.12v29.47l-123.45.37h-229.33v-29.48c70.07-10.36 90.25-36.891 90.25-36.891v-84.85h172.3v84.5c0 .001 20.16 26.521 90.23 36.881z" fill="#c8c8c8"/><path d="m700.74 554.75c9.68 0 17.52 7.85 17.52 17.51 0 9.681-7.84 17.53-17.52 17.53-9.681 0-17.521-7.85-17.521-17.53.001-9.66 7.841-17.51 17.521-17.51z" fill="#231f20"/><path d="m698.34 197.36v32.72h-83.91v-30.08h83.37v-2.64z" fill="#fff"/><path d="m684.9 184.35 7.28 10.38h-6.4l-4-6.11-4.03 6.11h-6.1l7.09-10.16-6.78-9.56h6.36l3.46 5.42 3.67-5.42h6.1z" fill="#231f20"/><path d="m685.78 194.73h6.399l-7.279-10.38 6.649-9.34h-6.1l-3.67 5.42-3.46-5.42h-6.36l6.78 9.56-7.09 10.16h6.1l4.03-6.11zm12.02-27.44v32.71h-55.33v-4.22h18.86v-28.49z" fill="#ed1d31"/><path d="m510.6 614.74h-380.9c-23.68 0-42.88-19.19-42.88-42.88v-428.63c0-23.68 19.2-42.88 42.88-42.88h590c23.68 0 42.88 19.2 42.88 42.88v428.63c0 23.689-19.2 42.88-42.88 42.88zm168.12-42.2c0-9.68-7.84-17.51-17.52-17.51-9.69 0-17.521 7.83-17.521 17.51s7.83 17.52 17.521 17.52c9.68 0 17.52-7.84 17.52-17.52zm4.5-.28c0 9.681 7.84 17.53 17.521 17.53 9.68 0 17.52-7.85 17.52-17.53 0-9.66-7.84-17.51-17.52-17.51-9.681 0-17.521 7.85-17.521 17.51zm17.13-69.38v-342.01h-549.69v368.15h549.69z" fill="#c8c8c8"/><path d="m661.2 555.03c9.68 0 17.52 7.83 17.52 17.51s-7.84 17.52-17.52 17.52c-9.69 0-17.521-7.84-17.521-17.52s7.831-17.51 17.521-17.51z" fill="#231f20"/><path d="m642.47 172.56h18.86v23.22h-18.86z" fill="#fff"/><path d="m642.47 172.56v27.44h-489.22v-32.71h508.08v5.27z" fill="#a9d7f3"/><path d="m614.43 228.02v2.06h-40.1v-30.08h40.1v3.53z" fill="#fff"/><path d="m574.33 229.02v1.06h-42.21v-30.08h42.21v2.53zm-42.21-1.05v2.11h-145.63v-30.08h145.63v1.47zm-145.63-.01v2.12h-35.88v-30.08h35.88v1.47zm-35.88-.52v2.64h-36.94v-30.08h36.94v1.94zm-36.94 1.64v1h-72.82v-30.08h72.82v1.58zm-72.82-1.06v2.06h-36.94v-30.08h36.94v1.53zm-90.19 2.06v-30.08h53.25v30.08h-49.6zm549.69-69.21v36.49h-2.55v-30.07h-544.55v32.71h-2.59v-39.13z" fill="#fff"/><g fill="none"><g stroke="#231f20"><path d="m338.3 614.74h-208.6c-23.68 0-42.88-19.19-42.88-42.88v-428.63c0-23.68 19.2-42.88 42.88-42.88h590c23.68 0 42.88 19.2 42.88 42.88v428.63c0 23.689-19.2 42.88-42.88 42.88z" stroke-width="21"/><path d="m700.35 502.88v26.14h-549.69v-368.15h549.69v36.49z" stroke-width="7"/><path d="m510.6 614.46v84.78s20.16 26.52 90.23 36.88v29.47l-123.45.37h-229.33v-29.48c70.07-10.36 90.25-36.891 90.25-36.891v-84.77" stroke-width="21"/><path d="m697.8 197.36v2.64h-544.55v-32.71h544.55z" stroke-width="7"/><path d="m698.34 197.36v32.72h-549.83v-32.72m5.8 305.52v-270.38m33.77-1v271.38m-33.77 0h545.83" stroke-width="7"/><path d="m678.81 232.72v268.16" stroke-width="6.332"/><path d="m203.91 203.17v26.49m36.94-28.13v26.49m291.27-26.55v26.5m42.21-25.44v26.49m40.1-25.49v24.49m-300.76-26.44v27.5m36.94-27.14v25.5m35.88-25.97v26.49m-195.52 24.81h486.78" stroke-width="7"/><path d="m519.5 382.11-43.78-45.76m29.11 1.83-29.45-2.07.8 29.53" stroke-width="12.664"/><path d="m642.47 172.56h18.86v23.22h-18.86z" stroke-width="7"/><path d="m614.43 188.39h20.06" stroke-width="12.664"/></g><path d="m0 0h850.394v850.394h-850.394z"/></g></svg>