<svg height="850.394" viewBox="0 0 850.394 850.394" width="850.394" xmlns="http://www.w3.org/2000/svg"><path d="m623.04 449.36c-10.95 0-19.83-9.681-19.83-21.601v-91.91h39.67v91.91c0 5.96-2.22 11.36-5.81 15.271s-8.55 6.33-14.03 6.33zm-380.73-21.66c0 11.93-8.88 21.6-19.83 21.6-5.48 0-10.43-2.42-14.02-6.33s-5.81-9.31-5.81-15.27v-91.92h39.66z" fill="#7a7878"/><path d="m571.21 426.94c17.54-2.931 44.58 8.739 41.96 42.649-2.63 33.93-15.3 47.43-99.66 58.55-43.8 5.771-81.529 7.73-90 8.13h-.05c-3.95-.17-44.15-1.96-91.45-8.199-84.36-11.11-97.03-24.61-99.66-58.54-2.61-33.91 24.43-45.58 41.96-42.66 5.78.96 11.51 1.87 17.15 2.71 71.34 10.729 129.59 12.6 129.59 12.6l3.42.07s57.6-1.86 128.39-12.42c6.03-.9 12.16-1.86 18.35-2.89z" fill="#0d72ba"/><path d="m254.48 219.81c-13.13-37.74-27.08-88.61 25.44-118.98 52.51-30.36 143.59-25.43 143.59-25.43 12.08-.47 93.561-2.56 142.09 25.5 52.521 30.36 38.57 81.24 25.44 118.98-13.13 37.75-35.28 94.37-36.92 141.14-1.65 46.77-2.12 62.98-2.12 62.98l.86 5.83c-70.79 10.56-128.39 12.42-128.39 12.42l-3.42-.07s-58.25-1.87-129.59-12.6l.54-3.58s1.05-18.28-.59-65.05c-1.65-46.77-23.8-103.39-36.93-141.14z" fill="#0d72ba"/><path d="m650.94 733.95c11.55 0 20.92 9.359 20.92 20.93 0 11.55-9.37 20.92-20.92 20.92-11.551 0-20.921-9.37-20.921-20.92.001-11.57 9.371-20.93 20.921-20.93zm-228.25-.88c11.56 0 20.93 9.359 20.93 20.92 0 11.56-9.37 20.93-20.93 20.93-11.55 0-20.92-9.37-20.92-20.93s9.37-20.92 20.92-20.92zm-228.11.82c11.56 0 20.92 9.36 20.92 20.92 0 11.561-9.36 20.931-20.92 20.931-11.55 0-20.92-9.37-20.92-20.931 0-11.56 9.37-20.92 20.92-20.92zm213.34-196.52h30.64v192.56h-30.64zm247.12 155.97v27.89h-213.34v-54.15zm-251.22-26.33v54.16h-213.34v-27.9zm-61.54-97.91v9.29h-59.08v-19.69h59.08z" fill="#7a7878"/><g fill="none"><g stroke="#231f20" stroke-width="21"><path d="m242.31 335.78v91.92c0 11.93-8.88 21.6-19.83 21.6-5.48 0-10.43-2.42-14.02-6.33s-5.81-9.31-5.81-15.27v-91.92zm165.61 201.59h30.64v192.56h-30.64zm-4.1 183.8h-213.34v-27.9l213.34-26.26zm-188.32 33.64c0 11.561-9.36 20.931-20.92 20.931-11.55 0-20.92-9.37-20.92-20.931 0-11.56 9.37-20.92 20.92-20.92 11.56 0 20.92 9.36 20.92 20.92zm336.5-330.81s.47-16.21 2.12-62.98c1.64-46.77 23.79-103.39 36.92-141.14 13.13-37.74 27.08-88.62-25.44-118.98-48.53-28.06-130.01-25.97-143.6-25.43 0 0 .1-.01.31-.01l1.1-.06h.1s-91.08-4.93-143.59 25.43c-52.52 30.37-38.57 81.24-25.44 118.98 13.13 37.75 35.28 94.37 36.93 141.14 1.64 46.77.59 65.05.59 65.05m311.21-90.15v91.91c0 11.92 8.88 21.601 19.83 21.601 5.479 0 10.44-2.42 14.03-6.33s5.81-9.311 5.81-15.271v-91.91zm-179.7 200.42c.18.011.27.011.27.011"/><path d="m421.73 536.34s.6-.02 1.73-.07h.05c8.471-.399 46.2-2.359 90-8.13 84.36-11.12 97.03-24.62 99.66-58.55 2.62-33.91-24.42-45.58-41.96-42.649a1132.66 1132.66 0 0 1 -18.35 2.89c-70.79 10.56-128.39 12.42-128.39 12.42l-3.42-.07s-58.25-1.87-129.59-12.6c-5.64-.84-11.37-1.75-17.15-2.71-17.53-2.92-44.57 8.75-41.96 42.66 2.63 33.93 15.3 47.43 99.66 58.54 47.3 6.239 87.5 8.029 91.45 8.199m18.24 184.96h213.34v-27.89l-213.34-26.26zm188.32 33.65c0 11.55 9.37 20.92 20.921 20.92 11.55 0 20.92-9.37 20.92-20.92 0-11.57-9.37-20.93-20.92-20.93-11.551 0-20.921 9.36-20.921 20.93zm-186.4-.89c0 11.56-9.37 20.93-20.93 20.93-11.55 0-20.92-9.37-20.92-20.93 0-11.561 9.37-20.92 20.92-20.92 11.56 0 20.93 9.36 20.93 20.92zm-101.34-184.89h62.36m-62.36 9.29h-59.08v-19.69h59.08v10.4z"/></g><path d="m0 0h850.394v850.394h-850.394z"/></g></svg>