<svg height="850.89" viewBox="0 0 850.89 850.89" width="850.89" xmlns="http://www.w3.org/2000/svg"><path d="m660.08 63.46 11.48-.07v3.73h-23.49v-3.66zm145.35 39.31h1.33v4.89h-1.33zm0 46.06h1.33v4.89h-1.33zm.7-72.81 1.21 2.12-1.9 1.07h-.01v-2.8zm-.7.39v-1.63l.7 1.24zm0 0v2.79l-.06-.11v-2.64zm0 115.92v3.67h-3.66zm-3.66-128.87h3.66v3.66zm0 3.66h3.66v7.66l-.5-.89-1.71.97h-1.45zm0 25.18h3.6v-4.88h.06v15.35h-3.66zm0 10.47h3.66v4.89h-3.66zm0 4.89h3.66v9.77h-3.66zm0 14.65h3.6v-4.88h.06v18.14h-1.45l-.02-4.88-2.19.01zm0 13.27 2.21-.01h1.45v13.26h-3.66zm0 13.25h3.66v4.89h-3.66zm0 4.89h3.66v10.47h-3.66zm0 15.35h2.2v-4.88h1.46v13.95h-3.66zm0 13.96h3.6v-4.89h.06v14.19h-3.66z" fill="#231f20"/><path d="m801.77 192.33h3.66l-3.66 3.67z" fill="#231f20"/><path d="m805.43 199.66h-200.66v-3.66h200.66v-42.28h1.33v-4.89h-1.33v-41.17h1.33v-4.89h-1.33v-23.56h.01l1.9-1.07h1.75v121.52zm-.06-123.21v2.64l-1.13-2z" fill="#231f20"/><path d="m801.77 79.74h3.6v-.65l.06.11v8.22h-3.66zm0 7.68h3.601v4.88h-3.601zm0 30.01h3.601v4.88h-3.601zm0 60.71h3.601v4.89h-3.601zm3.66-103.36v1.63l-.06.04v-1.59h-2.15l1.71-.97zm-3.66 89.41h2.2v4.88h-2.2zm2.21-28.62-2.21.01v-4.88l2.19-.01zm-2.21-68.45v-3.66l3.66 3.66z" fill="#231f20"/><path d="m803.22 74.86h2.15v1.59l-1.13.64-1.21-2.13z" fill="#231f20"/><path d="m801.77 74.86h1.45l-.19.1 1.21 2.13 1.13 2v.65h-3.6zm-197 117.47h197v3.67h-197z" fill="#231f20"/><path d="m604.77 183.03h197v9.3h-197z" fill="#a8d7f4"/><path d="m604.77 178.14h197v4.89h-197z" fill="#231f20"/><path d="m604.77 169.07h197v9.07h-197z" fill="#fff"/><path d="m604.77 164.19h197v4.88h-197z" fill="#231f20"/><path d="m604.77 153.72h197v10.47h-197z" fill="#a8d7f4"/><path d="m604.77 148.83h197v4.89h-197z" fill="#231f20"/><path d="m801.77 122.31v8.39l-125.33.6v-8.99z" fill="#a8d7f4"/><path d="m676.44 117.43h125.329v4.88h-125.329z" fill="#231f20"/><path d="m676.44 107.66h125.329v9.77h-125.329z" fill="#fff"/><path d="m676.44 102.77h125.329v4.89h-125.329z" fill="#231f20"/><path d="m676.44 92.3h125.329v10.47h-125.329z" fill="#a8d7f4"/><path d="m676.44 87.42h125.329v4.88h-125.329z" fill="#231f20"/><path d="m676.44 79.74h125.329v7.68h-125.329z" fill="#fff"/><path d="m676.44 74.86h125.329v4.88h-125.329z" fill="#231f20"/><path d="m676.44 67.12h125.329v7.74h-125.329z" fill="#a8d7f4"/><path d="m676.44 63.46h125.329v3.66h-125.329zm0 67.84v2.46h-2.44l-.01-2.45zm0-28.53v4.89h-1.58v-4.89zm0-39.4v.09h-4.88v-.07l3.55-.02z" fill="#231f20"/><path d="m671.56 63.46h4.881v3.66h-4.881zm4.88 3.66v7.74h-3.67v4.88h-1.21v-12.62z" fill="#231f20"/><path d="m672.77 74.86h3.671v4.88h-3.671zm2.09 12.56h1.58v4.88h-1.58zm0 4.88h1.58v10.47h-1.58v4.31h-3.3v-14.54h3.3zm-2.09 25.13h3.671v4.88h-3.671zm2.34-54.06-3.55.02v-.02z" fill="#231f20"/><path d="m674.86 92.3v.24h-3.3v-12.8h4.88v7.68h-1.58zm0 14.78v.58h1.58v9.77h-3.67v4.88h-1.21v-15.23z" fill="#231f20"/><path d="m674 134.16.01 2.04 127.76-.62v13.25h-197v-14.67h43.3z" fill="#fff"/><path d="m676.44 133.76v-2.46l125.33-.6v4.88l-127.76.62-.01-2.04v-.4z" fill="#231f20"/><path d="m676.44 122.31v8.99l-2.45.01.01 2.45h-2.44v-11.45h1.21z" fill="#231f20"/><path d="m674 133.76v.4h-25.93v-27.08h23.49v26.68zm-2.44-54.02v12.8h-23.49v-25.42h23.49z" fill="#a8d7f4"/><path d="m659.33 670.89c-3.47 23.521-15.36 38.62-33.58 47.391-9.39-28.661 11.14-44.021 33.58-47.391z" fill="#fff5b4"/><path d="m648.07 134.16h-17.51v-27.45h-25.79v-13.8h25.05v-25.79h18.25v25.42h23.49v14.54h-23.49v26.3z" fill="#fff"/><path d="m648.07 63.53v3.59h-18.25v-3.49z" fill="#231f20"/><path d="m805.43 63.46h-128.99v-.09h-4.88v.02l-11.48.07h-55.31v-3.66h204.32v18.34h-1.75l-1.21-2.12-.7-1.24v-7.66z" fill="#231f20"/><path d="m629.82 63.63v-.17h18.25v.07z" fill="#231f20"/><path d="m630.56 134.16h-25.79v-27.45h25.79v27.42zm-25.79-67.04h25.051v25.79h-25.051z" fill="#a8d7f4"/><g fill="#231f20"><path d="m629.82 67.12h-25.05v-3.34l25.05-.15zm-25.05-3.34v-.32h25.05v.17zm-.2-.32h.199v.32h-.199zm0 .32h.199v3.34h-.199zm0 3.34h.199v25.79h-.199zm0 25.79h.199v13.8h-.199zm-1.82 55.92-.14-14.67h2.16v14.67zm.14 15.36-.1-10.47h1.98v10.47zm.04 4.88h1.84v9.07h-1.76zm.13 13.96h1.71v9.3h-1.59v3.67z"/><path d="m603.18 192.33h1.59v3.67h-1.59zm0 3.67h1.59v3.66h-1.59zm1.39-133h-2.61v-3.2h2.81v3.66h-.2z"/><path d="m601.96 63h2.61v.46h-2.61z"/><path d="m601.96 63.8v-.34h2.61v.32zm0 0 2.61-.02v3.34h-2.57zm.27 29.11-.23-25.79h2.57v25.79zm.13 13.8-.13-13.8h2.34v13.8zm0 0h2.21v27.42h-1.96z"/><path d="m602.61 134.16v-.03h1.96v-27.42h.2v27.45zm.45 48.87-.05-4.89h1.76v4.89z"/><path d="m601.1 169.07h1.83l.08 9.07h-.68v4.89h.73l.12 12.97v3.66h1.59v88.88h-3.67z"/><path d="m602.33 183.03v-4.89h.68l.05 4.89zm.6-13.96-.04-4.88h1.88v4.88z"/><path d="m601.1 164.19h1.79l.04 4.88h-1.83zm1.65-15.36h2.02v4.89h-1.98zm-1.65 15.36v-10.47h1.69l.1 10.47z"/><path d="m601.1 148.83h1.65l.04 4.89h-1.69zm0-14.7h1.511v.03h-1.511zm0 14.7v-14.67h1.51l.14 14.67zm0-42.12h1.26l.25 27.42h-1.51zm0-52.93h1.2c-.38.23-.78.44-1.2.64zm0 52.93v-13.8h1.13l.13 13.8z"/><path d="m601.1 54.42c.42-.2.82-.41 1.2-.64h2.47v2.82c-1.109.72-2.34 1.33-3.67 1.8zm.86 9.38.04 3.32h-.04z"/><path d="m601.1 58.4c1.33-.47 2.561-1.08 3.67-1.8v3.2h-2.81v3.2h-.86zm0 5.4v-.8h.86v.8zm0 0h.86v3.32h.04l.23 25.79h-1.13zm0 42.91v27.42h-1.41v-71.13h1.41v29.91zm-.91 42.12h.909v4.89h-.909zm.7 15.36h.21v4.88h-.21z"/><path d="m599.69 134.13h1.409v14.7h-.909v4.89h.909v10.47h-.21v4.88h.21v119.47h-3.659v-229.2c1.279-.2 2.51-.52 3.659-.94v4.6h-1.409zm-2.25-80.35h3.659v.64c-1.109.52-2.35.93-3.659 1.19z"/><path d="m597.44 55.61a16 16 0 0 0 3.659-1.19v3.98c-1.149.42-2.38.74-3.659.94z"/></g><path d="m590.6 59.38a21.766 21.766 0 0 0 6.841-.04v229.2h-10.12l3.66-.01-.381-229.15zm3.28-19.21c5.16 0 9.69 2.83 9.69 6.06s-4.53 6.07-9.69 6.07c-5.149 0-9.68-2.84-9.68-6.07s4.53-6.06 9.68-6.06z" fill="#c8c8c8"/><path d="m570.46 653.11c-5.17-12.16 16.09-24.391 29.62-17.771-7.06 8.731-24.75 6.851-29.62 17.771z" fill="#fff5b4"/><path d="m590.6 55.66c1.051.2 2.15.3 3.28.3 1.23 0 2.43-.12 3.561-.35v3.73a21.747 21.747 0 0 1 -6.841.04zm-3.28 232.88-.38-230.04c1.149.4 2.38.7 3.659.88l.381 229.15z" fill="#231f20"/><path d="m588.23 722.23c4.72 6.319.71 28.859-1.971 37.529-14.499-10.949-2.009-24.519 1.971-37.529z" fill="#fff5b4"/><path d="m590.6 55.66c-1.31-.24-2.54-.62-3.67-1.12v-.27l3.67-.01z" fill="#231f20"/><path d="m590.6 59.38c-1.279-.18-2.51-.48-3.659-.88l-.011-3.96c1.13.5 2.36.88 3.67 1.12zm-7.33-2.6a17.93 17.93 0 0 0 3.671 1.72l.38 230.04-3.66.01-.391-231.77zm3.09-2.51h.569v.27z" fill="#231f20"/><path d="m584.2 46.23c0 3.23 4.53 6.07 9.68 6.07 5.16 0 9.69-2.84 9.69-6.07s-4.53-6.06-9.69-6.06c-5.15 0-9.68 2.83-9.68 6.06zm2.73 8.04h-.569c-3.511-1.75-5.82-4.7-5.82-8.04 0-5.37 5.97-9.73 13.34-9.73 7.38 0 13.351 4.36 13.351 9.73 0 3.05-1.921 5.77-4.931 7.55h-4.859v1.83c-1.131.23-2.33.35-3.561.35-1.13 0-2.229-.1-3.28-.3v-1.4zm0 .27.011 3.96a17.93 17.93 0 0 1 -3.671-1.72v-2.5l3.091-.01z" fill="#231f20"/><path d="m593.88 32.84c9.55 0 17.021 5.88 17.021 13.39 0 4.23-2.37 7.94-6.131 10.37v-2.82h-2.47c3.01-1.78 4.931-4.5 4.931-7.55 0-5.37-5.971-9.73-13.351-9.73-7.37 0-13.34 4.36-13.34 9.73 0 3.34 2.31 6.29 5.82 8.04l-3.091.01v2.49c-3.92-2.43-6.399-6.21-6.399-10.54 0-7.51 7.47-13.39 17.01-13.39z" fill="#231f20"/><path d="m566.51 617.57c7.34 1.87 13.851 4.58 13.82 13.819-9.26 5.121-14.69-3.089-13.82-13.819zm13.82-55.3c-8.47 16.381-20.07 2.221-33.57 5.921-1.75-17.211 27.14-12.871 33.57-5.921zm-55.29 102.69c-1.87-9.479 10.31-11.94 15.8-7.9-2.14 5.49-9.39 12.87-15.8 7.9zm7.9-98.74c-2.301 12.84-17.53 12.761-27.65 17.771 2.45-12.681 12.83-17.451 27.65-17.771z" fill="#fff5b4"/><path d="m521.06 240.77c.03.51.03 1.03.03 1.57-1.8 1.63-3.83 2.91-6.04 3.92 2.68-1.49 4.76-3.28 6.01-5.49z" fill="#fff"/><path d="m517.14 449.7c2.591-5.3 11.86-3.94 11.851-11.851-8.98-7.529-10.79 5.301-15.8 7.9-5.73-3.49-16.391-2.05-13.83-13.82 6.229-.77 21.449.28 23.699-9.88 4.62.65 8.16 2.38 11.851 3.95-3.05 10.48 13.84 14.06 13.82 27.65-9.41 7.399-28.671-4.29-29.62-2.391zm3.95 43.45c-1.38 7.25-3.41 15.01 0 21.72-1.96 5.95-10.39 5.41-9.88 13.83-6.38-1.521-10.33-5.47-11.85-11.851 2.63-1.979 7.35-1.869 7.899-5.93-.04-9.17-8.649-9.77-11.85-15.8 1.05-1.59 2.06-3.2 1.979-5.92 9.812-3.649 16.872-.359 23.702 3.951zm-51.35-165.89c2.43-8.14 21.74-8.44 19.75 3.95-7.22 5.77-14.58-1.5-19.75-3.95z" fill="#fff5b4"/><path d="m513.19 301.59c7.27-6.55 12.659-14.99 19.75-21.73-1.841-6.72-5.54-11.58-3.95-21.72 7.5-3.03 13.109-7.95 21.72-9.88 4.53-26.29-21.45-38.54-37.52-31.59 9.229 11.3 10.859 18.86 7.869 24.1-.439-10.87-6.479-16.15-9.85-24.1 15.85-11.44 46.18 3.84 41.47 31.59-7.5 3.03-13.109 7.96-21.72 9.88-1.58 10.14 2.12 15 3.95 21.72-6.12 8.36-13.95 15.01-19.75 23.7-6.15.93-7.061-4.96-3.95-7.9-18.47-2.29-42.94-5.1-55.47-11.63 20.14 1.56 33.77 9.64 55.47 9.66 4.841 2.63-3.559 5.96 1.981 7.9z" fill="#fff"/><path d="m463.82 621.52c.66-29.619 40.39 2.261 5.92 11.841.5-6.661-5.98-9.421-5.92-11.841zm5.92-258.71c3.399 6.22-6.87 16.68-3.95 23.7-10.29 2.27-5.44-9.19-7.9-9.88-3.939 1.99-3.12 8.73-9.87 7.9-.06-1.92-2.42-1.53-3.949-1.97v-13.83c5.719-4.81 23.229 2.17 25.669-5.92zm-7.9 278.45c1.76 4.17 8.42 3.431 7.9 9.88-1.92.051-1.53 2.42-1.98 3.95-6-1.229-10.09-4.39-9.87-11.85 2.3.32 3.52-.44 3.95-1.98zm-13.82-13.82c-3.59-6.551 5.301-19.801 13.82-13.82-1.41 7.8-2.39 16.04-13.82 13.82zm11.85-53.32c1.43 5.39-3.93 3.97-3.95 7.899-17.99-3.739-19.78-23.68-35.55-29.619-.26-4.87-.3-9.521 1.97-11.851 22.88.821 14.74 32.661 37.53 33.571z" fill="#fff5b4"/><path d="m457.89 256.16c17.391-8.76 41.65-2.77 57.141-9.89-12.84 7.13-39.391 7.22-55.16 11.87-7.68-3.29-20.271-21.29-29.63-9.88-2.271-1.27-4.64-2.71-7.08-4.21 15.099-4.81 28.369 2.73 34.729 12.11zm-2.15 27.87c-1.23-.1-2.49-.18-3.771-.22.45-.46.79-.93 1.03-1.39.831.56 1.751 1.1 2.741 1.61z" fill="#fff"/><path d="m426.29 299.61v15.8c-8.22 4.71-12.56-2.14-19.75-3.95 2.13-10.49 9.68-20.21 19.75-11.85z" fill="#fff5b4"/><path d="m423.16 244.05c-.27.08-.55.18-.82.27-.36-.5-.74-.99-1.13-1.47.65.4 1.3.81 1.95 1.2z" fill="#fff"/><path d="m420.37 475.38c-10.95.601-14.08-3.54-17.78-13.83-1.08-4.38 3.77-2.81 3.95-5.92 8.18 3.01 12.95 9.43 13.83 19.75zm-9.88 55.29c2.72 2.53 3.44 11.811-1.97 11.85-15.47-2.529-20.64-15.359-26.39-27.609l5.05-1.18c2.42 5.729 5.71 10.6 9.49 14.97 7.03.769 11.83.699 13.82 1.969zm-13.82 114.54c5.84.3 13.94-5.74 15.8 1.98-.28 8.279-9.05 8.069-17.78 7.899-.8-4.759 3.61-4.289 1.98-9.879zm3.95-61.22c11.09 2.79 6.38 13.02-1.98 15.8-.86-6.79.79-11.07 1.98-15.8zm1.97-15.8c-.78 7.119-3.21 12.59-9.87 13.829-3.05-6.21-1.26-11.02 1.97-15.8 4.13-.839 5.23 1.351 7.9 1.971z" fill="#fff5b4"/><path d="m378.9 228.52c15.35-3.95 32.6 2.28 42.31 14.33-16.66-10.29-36.07-22.19-48.24-2.48-3.55-.6-6.43-.55-8.91-.09 6.22-2.05 11.33-5.65 14.84-11.76z" fill="#fff"/><path d="m371 370.71c-8.42-5.93-12.43-16.26-20-23.03l5.56-.48c7.79 8.09 25.69 10.93 14.44 23.51z" fill="#fff5b4"/><path d="m364.05 240.28c-1.11.38-2.27.7-3.45.97 1.07-.4 2.21-.73 3.45-.97z" fill="#fff"/><path d="m361.12 443.78c-.7 2.59-3.48 3.1-3.95 5.92-8.32.42-6.96-8.84-11.85-11.851 4.66-5.159 10.28 5.411 15.8 5.931zm47.4-159.97c-12.97 3.49-16.63 16.29-27.65 21.73-9.19-1.48-20.22-11.24-25.67 0 4.3 8.86 7.15 19.17 11.85 27.64 21.17-3.15 32.11 13.65 33.57 23.7-11.37-1.3-20.68-19.54-37.52-21.72-4.95-.34-6.19 3.03-7.9 5.92 3.95 12.61 28.75 12.33 19.75 31.6-1.55-.24-2.96-.63-4.25-1.13l.3-.84c11.25-12.58-6.65-15.42-14.44-23.51-2.14-2.2-3.51-4.8-3.34-8.09 3.2-2.73 4.86-6.99 11.85-5.93-5.18-7.32-6.02-18.99-11.85-25.67 2.24-13.92 17.35-8.73 25.68-3.95 13.33-3.78 15.49-18.73 29.62-21.72 6.03 2.52 7.29 9.83 15.8 9.87 10.291-2.21 11.21-13.8 23.7-13.82 4.601-.29 6.261 2.06 4.98 4.53-1.18-.8-2.19-1.65-3.01-2.56-13.16-.65-15.53 9.48-23.7 13.83-8.86-.36-13.57-4.86-17.77-9.88zm-63.2 489.77c-7.46-8.51-1.59-24.521 1.98-33.57 5.5-.89-1.55 10.76 3.95 9.87 8.64-1.49-2.29-11.08 3.95-15.8 6.48 1.42 2.18 13.62 9.87 13.83 12.26 3.04 11.93-6.51 19.75-7.9 2.39 4.471 5.71 8.681 0 11.851 6.79 17.33 23.07 4.439 37.52 3.949 22.67-.779 50 15.591 71.101 7.9.689 5.85-6.29 12.55 0 17.771 10.92-9.82 22.42-8.36 35.55-13.82 1.979 13.83-1.87 21.83-9.88 25.67-28.5-10.35-60.971 6.729-94.791 3.95v-9.87c-24.41-11.021-49.47-15.471-79-13.831z" fill="#fff5b4"/><path d="m347.3 540.55c-.86-.2-1.36-.76-1.95-1.229.7.329 1.35.739 1.95 1.229zm-1.95-1.23c-.64-.311-1.33-.551-2.05-.73.01-.01.03-.01.05-.02.92 0 1.49.34 2 .75z" fill="#fff"/><path d="m329.52 582.02c.96-2.34 2.11-4.479 3.95-5.93-2.42 9.01 6.93 6.24 7.9 11.851-12.1.409-20.26 4.76-25.67 11.85-8.98-5.83 4.74-7.99 0-13.82-8.81-3.7-15.76-9.26-25.67-11.85-1.47 29.49 17.1 44.25 23.58 70.62-.4.33-.75.67-1.07 1.01-14.13 6.87 6.59 16.4 5.16 26.91-.12.03-.23.05-.35.07-13.06-5.211-18.02-18.54-23.37-31.471h-15.8c-4.84 12.7-7.17 20.05-7.9 33.561-2.01-12.63-6.11-23.17-10.93-33-3.39-6.96-7.16-13.57-10.8-20.301-18.88-3.3-13.55 12.58-14.04 20.881-.17 2.83-1.02 4.779-3.73 4.79-2 .01-10.93-11.46-11.85-11.851 5.95-8.93-8.27-12.06-7.9-21.72 1.02-7.54 8.5-8.62 9.88-15.8-7.6-21.37-24.63-33.311-39.5-47.4 10.2-5.6 17.23-14.36 19.75-27.65 3.56 3.021 6.05 7.12 13.82 5.931 8.87-1.67 5.62-15.45 15.8-15.8 5.97 2.76 11.92 5.529 17.88 8.3 1.73 1.31 3.64 2.54 5.82 3.55 2.73 1.26 5.63 2.26 8.56 3.08 10.23 4.71 20.54 9.33 31.04 13.78 2.18 2.939 4.58 5.229 8.51 3.54 1.07.439 2.16.88 3.24 1.319l1.56 3.221c-.54.26-1.07.51-1.56.729 13.16 5.26 8.25 28.61 23.69 31.6zm21.48-234.34c7.57 6.77 11.58 17.1 20 23.03l-.3.84c-15.32-5.93-14.33-28.17-35.25-28.49-17.13 15.62 17.44 20.74 21.72 33.57-11.5.31-16.02-6.36-25.67-7.9-1.25-7.3-5.36-11.75-3.95-21.72 2.84-1.11 4.82-3.08 5.92-5.93 7.91.14 13.28 2.81 17.53 6.6z" fill="#fff5b4"/><path d="m329.49 439.76c.01.021.02.05.03.07-.03-.01-.05-.01-.08-.021.02-.019.04-.029.05-.049z" fill="#fff"/><path d="m297.93 467.48c10.42-4.73 16.76-13.521 29.62-15.801 8.48 22.87 33.23 31.74 55.3 35.54-.42 10.7 1.27 19.29 4.33 26.511l-5.05 1.18c-1.61-3.43-3.27-6.811-5.21-9.91-6.78 3.88-22.18.45-26.5 3.72l-1.15-1.75c3.6-19.54-25.37-43.26-51.34-39.49z" fill="#fff5b4"/><path d="m323.6 437.85c-4.24-8.27-11.44-13.57-21.72-15.8-2.79 5.78-10.3 6.82-7.9 17.78 7.8-1.42 9.75 8.34 15.79 13.82-8.3 13.04-23.73 6.88-32.98 11.96-.2-.03-.39-.07-.59-.11l.15.36c-.75.449-1.46.989-2.12 1.62 1.33.149 2.65.38 3.95.67.8.489 1.71.659 2.7.68 16.07 4.61 30.51 17.8 48.64 18.39-.47 2.82-3.25 3.33-3.95 5.931 7.05 5.46 19.84 5.18 23.7 13.819l1.15 1.75c-.71.53-1.12 1.25-1.15 2.2 3.14-.51 6.45-.87 9.76-1.21l.12 1.21c-.92 4.29 18.58 5.061 19.75 13.83-10.63 11.06-3.01 26.14 0 39.5-3.12.17-1.55 5.03-5.93 3.94-9.53-13.82-26.22-29.351-37.52-19.74.27-3.681 1.3-6.601 3.95-7.9.58 4.601 5.34 4.601 5.92 0-2.09.08-4.98-.92-2.02-1.96.72.18 1.41.42 2.05.73.59.47 1.09 1.029 1.95 1.229-.6-.49-1.25-.899-1.95-1.229-.51-.41-1.08-.75-2-.75-.02.01-.04.01-.05.02-10.04-2.53-26.6 6.66-35.91 11.101l-1.56-3.221c3.15-6.67-8.39-8.43-1.98-11.85 7.68 4.16 15.04.34 19.75-3.95-2.09-14.41-19.62-6.88-29.26-10.1-1.16-.91-2.46-1.69-3.84-2.391-1.43-1.58-2.32-3.89-2.45-7.26-12.21 3.67-13.2-3.88-17.76-7.85 0-.021-.01-.03-.01-.051h-.03c-1.05-.899-2.3-1.619-3.92-1.97-1.09 3.51-1.02 8.2-3.95 9.87-17.49-7.01-39.26-6.93-55.3 1.98-2.36-4.891-6.76-7.721-11.85-9.881.72 8.591-7.47 8.271-11.8 11.811a.119.119 0 0 1 -.05-.07c-.19-11.569-6.57-20.21-9.87-33.46-4.92-3.64-12.35-4.76-17.78-7.899.09-2.07.29-4.011.69-5.761.58-2.529 1.59-4.649 3.26-6.09 10.16-1.6 15.53 1.59 19.75 5.931 4.32-7.051 7.23-10.04 1.98-17.78-9.04 4.52-12.73-6.55-23.7-5.92-5.89 3.41 2.83 12.21-1.98 13.819-8.02-23.569-36.41-26.77-37.52-57.27 8.73-1.7 10.07-7.74 7.9-15.8 2.67.62 3.77 2.81 7.9 1.98.07-8.63-5.45-11.67-5.92-19.75.2-.21.41-.41.64-.58 3.33-.81 6.26-1.82 8.85-3.01 4.87-.65 10.3-.74 14.21-2.34 3.09-13.67 4.41-20.22 9.87-33.57 21.89 1.23 12.85-25.77 11.85-33.57 13.88 1.37 21.36-3.66 31.6-5.93 6.08-1.47 3.79 5.42 9.87 3.95 11.56-4.24 16.52-15.07 23.7-23.7 18.53-9.18 32.88 9.02 51.35-1.97 3.28-3.96-.17-14.65 3.95-17.78 8.73.49 14.38 4.05 23.69 3.95 4.64-.63 4.42-6.11 7.9-7.89 9.82-.61 18.12.31 25.68 1.97 3.1-1.69 5.84-3.72 9.32-5.03.01 0 .02-.01.03-.01 1.18-.27 2.34-.59 3.45-.97h.01c2.48-.46 5.36-.51 8.91.09 12.17-19.71 31.58-7.81 48.24 2.48.39.48.77.97 1.13 1.47.27-.09.55-.19.82-.27 2.44 1.5 4.81 2.94 7.08 4.21 9.359-11.41 21.95 6.59 29.63 9.88 15.77-4.65 42.32-4.74 55.16-11.87.01 0 .01-.01.02-.01 2.21-1.01 4.24-2.29 6.04-3.92 0-.54 0-1.06-.03-1.57 2.99-5.24 1.36-12.8-7.869-24.1 16.069-6.95 42.05 5.3 37.52 31.59-8.61 1.93-14.22 6.85-21.72 9.88-1.59 10.14 2.109 15 3.95 21.72-7.091 6.74-12.48 15.18-19.75 21.73-5.54-1.94 2.859-5.27-1.98-7.9-21.7-.02-35.33-8.1-55.47-9.66-.99-.51-1.91-1.05-2.74-1.61 1.28-2.47-.38-4.82-4.98-4.53-12.489.02-13.409 11.61-23.7 13.82-8.51-.04-9.77-7.35-15.8-9.87-14.13 2.99-16.29 17.94-29.62 21.72-8.33-4.78-23.44-9.97-25.68 3.95 5.83 6.68 6.67 18.35 11.85 25.67-6.99-1.06-8.65 3.2-11.85 5.93-.17 3.29 1.2 5.89 3.34 8.09l-5.56.48c-4.25-3.79-9.62-6.46-17.53-6.6-1.1 2.85-3.08 4.82-5.92 5.93h-1.98c-3.41-5.18-24.55-9.65-27.64-21.73 2.93-2.33 8.82-1.7 7.9-7.89-1.03-2.93-2.93-4.98-3.95-7.9-7.21 5.96-14.22 12.11-23.7 15.79 8.95 13.16-4.24 21.86-1.98 39.5 14.15 8.23 21.07 23.7 25.68 41.47 13.83 6.55 21.08 19.67 27.61 33.51-.01.021-.03.03-.05.05-6.45-1.64-9.8 9.671-13.74 3.971 4.939.331 6.179-3.039 7.899-5.929z" fill="#fff5b4"/><path d="m321.62 670.89c-1.36.9-2.66 1.48-3.92 1.771 1.43-10.51-19.29-20.04-5.16-26.91-7.47 7.999 4.76 18.349 9.08 25.139z" fill="#fff"/><path d="m317.7 672.66-.03.2c-.11-.04-.21-.08-.32-.13.12-.02.23-.04.35-.07z" fill="#fff"/><path d="m315.7 688.66c.3 4.91-3.1 6.12-3.95 9.88-7.38 2.11-5.63-4.91-11.85-3.95-.61-7.2.32-12.859 1.98-17.78 6.45 2.11 7.98 9.14 13.82 11.85z" fill="#fff5b4"/><path d="m313.61 644.74.12.47c-.42.18-.82.36-1.19.54.32-.34.67-.68 1.07-1.01zm67.26-121.97c-9.2 12.78-4.2 27.171 0 41.48-3.8.8-1.56 7.65-7.9 5.92-10.75-10.3-23.54-33.31-37.52-17.77-2.54-2.601-2.54-7.29 0-9.881-12.98-1.13-17.63 6.07-27.65 7.9 14.31 2.14 7.1 25.82 19.75 29.62 7.19-1.24-5.33-9.98 3.95-7.9.67 1.33 1.44 2.561 2.28 3.73l-.31.22c-1.84 1.45-2.99 3.59-3.95 5.93-15.44-2.989-10.53-26.34-23.69-31.6.49-.22 1.02-.47 1.56-.729 9.31-4.44 25.87-13.631 35.91-11.101-2.96 1.04-.07 2.04 2.02 1.96-.58 4.601-5.34 4.601-5.92 0-2.65 1.3-3.68 4.22-3.95 7.9 11.3-9.61 27.99 5.92 37.52 19.74 4.38 1.09 2.81-3.771 5.93-3.94-3.01-13.36-10.63-28.44 0-39.5-1.17-8.77-20.67-9.54-19.75-13.83 9.32 1.871 15.79 6.591 21.72 11.851zm-86.53-2.2c9.64 3.22 27.17-4.311 29.26 10.1-4.71 4.29-12.07 8.11-19.75 3.95-6.41 3.42 5.13 5.18 1.98 11.85-1.08-.439-2.17-.88-3.24-1.319.4-.17.82-.391 1.26-.65.59-5.21-2.73-6.49-7.9-5.93 4.19-11.051 18.8.47 25.67-7.9-.62-10.9-15.49-7.729-23.69-5.92-.91-1.681-2.15-3.031-3.59-4.181zm19.39-70.87c-7.5 13.359-23.04 18.55-36.94 15.91 9.25-5.08 24.68 1.08 32.98-11.96-6.04-5.48-7.99-15.24-15.79-13.82-2.4-10.96 5.11-12 7.9-17.78 10.28 2.23 17.48 7.53 21.72 15.8-1.72 2.891-2.96 6.261-7.9 5.931 3.94 5.7 7.29-5.61 13.74-3.971-4.64 4.37-9.66 8.36-19.1 7.94-.19 0-.38-.01-.57-.02-.04-6.631 7.83-5.341 11.85-7.9-2.06-9.13-10.01-12.37-17.77-15.8-4.35 2.89-9.25 5.23-7.9 13.82 5.63-1.649 6.98 8.851 14.33 11.33 1.02.35 2.16.54 3.45.52z" fill="#fff"/><path d="m294.08 541.61c2.82 1.189 5.65 2.37 8.51 3.54-3.93 1.69-6.33-.6-8.51-3.54zm-6.03-6.99c2.42 1.399 4.14 4.439 6.03 6.99-10.5-4.45-20.81-9.07-31.04-13.78 9.68 2.74 19.68 3.7 25.01 6.79zm27.65 67.15c-5.93-5.829-5.93-8 0-13.829-7.91-3.94-15.79-7.91-23.7-11.851-1.62 24.021 17.57 44.311 23.7 67.15-.79.49-1.49.99-2.09 1.5-6.48-26.37-25.05-41.13-23.58-70.62 9.91 2.59 16.86 8.149 25.67 11.85 4.74 5.83-8.98 7.99 0 13.82 5.41-7.09 13.57-11.44 25.67-11.85-.97-5.61-10.32-2.841-7.9-11.851l.31-.22c3.25 4.62 7.41 8.33 9.57 14.05-13.8-.639-20.56 5.771-27.65 11.851zm-21.36-81.2c-1.5-.49-2.81-1.25-3.84-2.391 1.38.701 2.68 1.481 3.84 2.391zm-6.29-9.65c.13 3.37 1.02 5.68 2.45 7.26-7.8-3.979-18.11-5.439-20.21-15.109 4.56 3.969 5.55 11.519 17.76 7.849zm-9.87-42.77c.91.189 1.8.42 2.7.68-.99-.02-1.9-.19-2.7-.68zm23.7-156.69c-5.76 6.09-12.04 11.67-21.73 13.82 8.74 12.69-3.49 21.04-1.97 37.53 12.44 9.93 20.44 24.31 25.67 41.47 11.96 8.45 20.18 20.64 27.65 33.57-.67.641-1.33 1.28-2.01 1.91-6.53-13.84-13.78-26.96-27.61-33.51-4.61-17.77-11.53-33.24-25.68-41.47-2.26-17.64 10.93-26.34 1.98-39.5 9.48-3.68 16.49-9.83 23.7-15.79 1.02 2.92 2.92 4.97 3.95 7.9.92 6.19-4.97 5.56-7.9 7.89 3.09 12.08 24.23 16.55 27.64 21.73-12.77-3.69-22.15-10.76-29.62-19.75.01-5.25 5.5-5.04 7.9-7.9.25-3.54-2.42-4.17-1.97-7.9zm-25.68 154.04c.2.04.39.08.59.11-.15.08-.3.159-.44.25zm.15.36c.48 1.12 1.11 1.84 1.83 2.29-1.3-.29-2.62-.521-3.95-.67.66-.63 1.37-1.17 2.12-1.62zm15.65 177.38h-9.87c-8.13 9.42-10.46 16.77-7.9 33.569-1.54-.439-2.84-1.109-3.95-1.979v-.01c.73-13.511 3.06-20.86 7.9-33.561h15.8c5.35 12.931 10.31 26.26 23.37 31.471-11.73 2.29-19.4-19.75-25.35-29.49zm-21.71-140.17c-.01-.021-.02-.03-.04-.051h.03c0 .021.01.031.01.051zm-10.94 138.75c4.82 9.83 8.92 20.37 10.93 33-8.22-6.431-5.87-23.431-10.97-32.98zm3.69-113.99c-2.93-.82-5.83-1.82-8.56-3.08-2.18-1.01-4.09-2.24-5.82-3.55 4.79 2.22 9.57 4.44 14.38 6.63z" fill="#fff"/><path d="m248.55 621.52c3.64 6.73 7.41 13.341 10.8 20.301l-.04.02c-1.77-3.32-4.45-5.74-8.78-6.5.04-4.649-3.4-5.81-1.98-11.85-14.2.75-13.23 11.92-13.67 18.93l-.37-.02c.49-8.301-4.84-24.181 14.04-20.881z" fill="#fff"/><path d="m218.93 641.26c.09-2.149 0-4.09-.26-5.89l.26-.03c.92.391 9.85 11.86 11.85 11.851 2.71-.011 3.56-1.96 3.73-4.79l.37.02c-.39 6.199-1.88 9.169-15.95-1.161zm-9.87-25.67c1.2-7.359 4.9-12.22 9.87-15.8-6.26-22.7-23.36-34.57-39.5-47.39 2.47-11.681 21.48-9.101 17.78-31.601 7.74-.51 7.34 7.141 15.8 5.92 7.84-.06 8.11-7.68 9.87-13.819 3.13-1.78 5.74-2.58 8.04-2.67 7-.28 11.1 5.96 17.74 10.97-5.96-2.771-11.91-5.54-17.88-8.3-10.18.35-6.93 14.13-15.8 15.8-7.77 1.189-10.26-2.91-13.82-5.931-2.52 13.29-9.55 22.051-19.75 27.65 14.87 14.09 31.9 26.03 39.5 47.4-1.38 7.18-8.86 8.26-9.88 15.8-.37 9.66 13.85 12.79 7.9 21.72l-.26.03c-1.05-7.529-4.86-12.569-9.61-19.779z" fill="#fff"/><path d="m262.38 510.92c2.93-1.67 2.86-6.36 3.95-9.87 1.62.351 2.87 1.07 3.92 1.97-4.29.311-4.21 4.99-3.92 9.881-11.82-2.381-24.04-5.381-35.49-4.931-7.74.3-15.13 2.181-21.78 6.9-4.59-1.33-5.29-6.561-9.88-7.9-4.51 3.391-9.97 5.82-13.82 9.88-.72-.59-1.36-1.27-1.93-2.02 4.33-3.54 12.52-3.22 11.8-11.811 5.09 2.16 9.49 4.99 11.85 9.881 16.04-8.91 37.81-8.99 55.3-1.98zm-78.95 3.91c-.02.01-.03.03-.05.04v-.11c.01.03.02.05.05.07z" fill="#fff"/><path d="m173.51 566.22c-8.39-2.26-9.16-.96-11.85 5.92-5.15-7.029-23.33-14.199-11.85-25.67 8.88 5.61 19.95 9.02 23.7 19.75zm9.87-51.46c-8.17-10.74-3.68-36.439-25.67-37.41-1.93 8.601-5.91 15.15-15.8 15.801-4.09-6.54 3.15-15.78 3.95-23.7 2.29-1.66 5.3-2.601 9.87-1.97l.69.159c-.4 1.75-.6 3.69-.69 5.761 5.43 3.14 12.86 4.26 17.78 7.899 3.3 13.25 9.68 21.89 9.87 33.46z" fill="#fff5b4"/><path d="m159.68 325.28c22.01 1.7 14.6-22.04 9.88-33.57 14.11.95 24.67-1.66 33.57-5.92 6.3-1.7 6.11 3.11 9.88 3.95 12.54-3.26 17.92-13.68 23.69-23.7 19.58-9.63 37.11 10.71 53.33-3.95.23-5.69-1.08-12.93 1.97-15.8 11.56-.55 28.69 10.86 31.6-3.95 13.56.41 26.53 1.35 36.97-1.08-3.48 1.31-6.22 3.34-9.32 5.03-7.56-1.66-15.86-2.58-25.68-1.97-3.48 1.78-3.26 7.26-7.9 7.89-9.31.1-14.96-3.46-23.69-3.95-4.12 3.13-.67 13.82-3.95 17.78-18.47 10.99-32.82-7.21-51.35 1.97-7.18 8.63-12.14 19.46-23.7 23.7-6.08 1.47-3.79-5.42-9.87-3.95-10.24 2.27-17.72 7.3-31.6 5.93 1 7.8 10.04 34.8-11.85 33.57-5.46 13.35-6.78 19.9-9.87 33.57-3.91 1.6-9.34 1.69-14.21 2.34 14.57-6.74 18.3-19.52 22.1-37.89z" fill="#fff"/><path d="m143.89 510.92c-.45-3.36-2.3-6.16-1.77-8.87l2 .24c-.2 1.11.26 2.12 1.74 2.71.35-.85.72-1.66 1.14-2.43l.84.449c-4.15 11.261 9.95 19.94 11.84 31.601-13.14-.021-22.35-3.98-29.62-9.87-.49-14.08 7.75-8.15 13.83-13.83z" fill="#fff5b4"/><path d="m142.12 502.05c-.53 2.71 1.32 5.51 1.77 8.87-6.08 5.68-14.32-.25-13.83 13.83 7.27 5.89 16.48 9.85 29.62 9.87-1.89-11.66-15.99-20.34-11.84-31.601 4 1.261 1.3 9.24 5.92 9.881 3.47-1.71-2.73-10.28-3.95-13.83-1.18.93-2.07 2.13-2.81 3.5-.42.77-.79 1.58-1.14 2.43-1.48-.59-1.94-1.6-1.74-2.71.47-2.62 4.61-5.771 7.67-5.19 1.05 6.841 5.28 10.511 5.92 17.771h-5.92c2.25 7.62 8.51 11.24 9.87 19.75-12.05 5.55-24.58-3.96-33.57-7.9-1.67-8.25 3.84-9.33 3.95-15.8 4.91.22 6.11 3.7 9.87 0 .24-3.29-6.4-12.56 1.98-11.85-1.05.999-1.57 1.989-1.77 2.979zm-4.54-138.88c-2.59 1.19-5.52 2.2-8.85 3.01 2.16-1.81 5.36-2.56 8.85-3.01zm-23.32 58.88-2.65-2.81c.92.03 1.81.6 2.65 2.81zm-5.92-7.9c1.86.72 2.03 2.04 1.27 2.97l-1.52-1.6c.25-.48.35-.95.25-1.37z" fill="#fff"/><path d="m109.61 417.12 2 2.12c-1.62-.05-3.37 1.57-5.25-1.14 1.43.26 2.64-.23 3.25-.98zm-11.07-11.71 9.55 10.11c-1.15 2.28-5.5 4.6-5.68.61 1.54-.44 3.9-.06 3.95-1.98-4.35-2.24-6.75-5.28-7.82-8.74zm1.9-18.9h-11.71c4.63-.98 8.03-3.52 11.71 0zm-17.78 0h6.07c-1.81.39-3.8.54-6.07 0z"/><path d="m82.66 386.51c2.27.54 4.26.39 6.07 0h11.71c-3.68-3.52-7.08-.98-11.71 0zm15.88 18.9-17.85-18.9c6.73-2.28 15-5.18 21.72-1.98-3.29 6.8-5.83 14.55-3.87 20.88z" fill="#fff5b4"/><path d="m108.17 381.25c-16.56-27.11-42.12-74.57-25.92-51 3.82-.28 17.12 30.11 25.92 51z" fill="#fff"/><path d="m106.36 418.1c1.88 2.71 3.63 1.09 5.25 1.14l2.65 2.81c-5.32 3.91-14.28-5.38-19.75-7.9 1.08-14.89-15.53-12.11-13.82-27.64l17.85 18.9c1.07 3.46 3.47 6.5 7.82 8.74-.05 1.92-2.41 1.54-3.95 1.98.18 3.99 4.53 1.67 5.68-.61l1.52 1.6c-.61.75-1.82 1.24-3.25.98z" fill="#fff5b4"/><g fill="none" stroke="#231f20"><path d="m674 134.16h-25.93m0 0h-17.51m17.51-70.63-18.25.1m.74 70.53h-25.79m25.05-70.53-25.05.15m0 70.38h-2.16m2.16-70.38h-.2m-1.96 70.38h-1.51m70.46-41.62h-23.49v-29.54m-18.25.37v29.54h-25.25m0 13.8h25.99v27.42m17.51-.75v-26.3h23.49" stroke-width="7"/><g stroke-width="5"><path d="m515.05 246.26c2.681-1.49 4.76-3.28 6.01-5.49 2.99-5.24 1.36-12.8-7.869-24.1 16.069-6.95 42.05 5.3 37.52 31.59-8.61 1.93-14.22 6.85-21.72 9.88-1.59 10.14 2.109 15 3.95 21.72-7.091 6.74-12.48 15.18-19.75 21.73-5.54-1.94 2.859-5.27-1.98-7.9-21.7-.02-35.33-8.1-55.47-9.66-1.23-.1-2.49-.18-3.771-.22.45-.46.79-.93 1.03-1.39 1.28-2.47-.38-4.82-4.98-4.53-12.489.02-13.409 11.61-23.7 13.82-8.51-.04-9.77-7.35-15.8-9.87-14.13 2.99-16.29 17.94-29.62 21.72-8.33-4.78-23.44-9.97-25.68 3.95 5.83 6.68 6.67 18.35 11.85 25.67-6.99-1.06-8.65 3.2-11.85 5.93-.17 3.29 1.2 5.89 3.34 8.09 7.79 8.09 25.69 10.93 14.44 23.51-8.42-5.93-12.43-16.26-20-23.03-4.25-3.79-9.62-6.46-17.53-6.6-1.1 2.85-3.08 4.82-5.92 5.93-1.41 9.97 2.7 14.42 3.95 21.72 9.65 1.54 14.17 8.21 25.67 7.9-4.28-12.83-38.85-17.95-21.72-33.57 20.92.32 19.93 22.56 35.25 28.49 1.29.5 2.7.89 4.25 1.13 9-19.27-15.8-18.99-19.75-31.6 1.71-2.89 2.95-6.26 7.9-5.92 16.84 2.18 26.15 20.42 37.52 21.72-1.46-10.05-12.4-26.85-33.57-23.7-4.7-8.47-7.55-18.78-11.85-27.64 5.45-11.24 16.48-1.48 25.67 0 11.02-5.44 14.68-18.24 27.65-21.73 4.2 5.02 8.91 9.52 17.77 9.88 8.17-4.35 10.54-14.48 23.7-13.83.819.91 1.83 1.76 3.01 2.56.83.56 1.75 1.1 2.74 1.61 12.529 6.53 37 9.34 55.47 11.63-3.11 2.94-2.2 8.83 3.95 7.9 5.8-8.69 13.63-15.34 19.75-23.7-1.83-6.72-5.53-11.58-3.95-21.72 8.61-1.92 14.22-6.85 21.72-9.88 4.71-27.75-25.62-43.03-41.47-31.59 3.37 7.95 9.41 13.23 9.85 24.1.03.51.03 1.03.03 1.57-1.8 1.63-3.83 2.91-6.06 3.93.01 0 .01-.01 0 0-15.49 7.12-39.75 1.13-57.141 9.89-6.359-9.38-19.63-16.92-34.729-12.11-.27.08-.55.18-.82.27-.36-.5-.74-.99-1.13-1.47-9.71-12.05-26.96-18.28-42.31-14.33-3.51 6.11-8.62 9.71-14.85 11.76-1.11.38-2.27.7-3.48.98.01 0 .02-.01 0 0-10.44 2.43-23.41 1.49-36.97 1.08-2.91 14.81-20.04 3.4-31.6 3.95-3.05 2.87-1.74 10.11-1.97 15.8-16.22 14.66-33.75-5.68-53.33 3.95-5.77 10.02-11.15 20.44-23.69 23.7-3.77-.84-3.58-5.65-9.88-3.95-8.9 4.26-19.46 6.87-33.57 5.92 4.72 11.53 12.13 35.27-9.88 33.57-3.8 18.37-7.53 31.15-22.1 37.89-2.59 1.19-5.52 2.2-8.85 3.01-.85.21-1.72.4-2.62.58.64 7.26 4.87 10.92 5.93 17.77-3.74.44-4.36-2.22-7.9-1.97.22 8.61 3.27 12.21-3.95 15.79-1.3-.3-6.08-7.4-12.02-17.1"/><path d="m364.06 240.28c2.48-.46 5.36-.51 8.91.09 12.17-19.71 31.58-7.81 48.24 2.48.65.4 1.3.81 1.95 1.2 2.44 1.5 4.81 2.94 7.08 4.21 9.359-11.41 21.95 6.59 29.63 9.88 15.77-4.65 42.32-4.74 55.16-11.87m-154.43-5.02c1.07-.4 2.21-.73 3.45-.97m-93.77 434.54c-2.01-12.63-6.11-23.17-10.93-33-3.39-6.96-7.16-13.57-10.8-20.301-18.88-3.3-13.55 12.58-14.04 20.881-.17 2.83-1.02 4.779-3.73 4.79-2 .01-10.93-11.46-11.85-11.851 5.95-8.93-8.27-12.06-7.9-21.72 1.02-7.54 8.5-8.62 9.88-15.8-7.6-21.37-24.63-33.311-39.5-47.4 10.2-5.6 17.23-14.36 19.75-27.65 3.56 3.021 6.05 7.12 13.82 5.931 8.87-1.67 5.62-15.45 15.8-15.8 5.97 2.76 11.92 5.529 17.88 8.3 4.79 2.22 9.57 4.439 14.38 6.63 10.23 4.71 20.54 9.33 31.04 13.78 2.82 1.189 5.65 2.37 8.51 3.54 1.07.439 2.16.88 3.24 1.319 3.15-6.67-8.39-8.43-1.98-11.85 7.68 4.16 15.04.34 19.75-3.95-2.09-14.41-19.62-6.88-29.26-10.1-1.5-.49-2.81-1.25-3.84-2.391-1.43-1.58-2.32-3.89-2.45-7.26-12.21 3.67-13.2-3.88-17.76-7.85-.01-.021-.02-.03-.04-.051-1.05-.899-2.3-1.619-3.92-1.97-1.09 3.51-1.02 8.2-3.95 9.87-17.49-7.01-39.26-6.93-55.3 1.98-2.36-4.891-6.76-7.721-11.85-9.881.72 8.591-7.47 8.271-11.8 11.811-.02.01-.03.03-.05.04v-.11c-.19-11.569-6.57-20.21-9.87-33.46-4.92-3.64-12.35-4.76-17.78-7.899.09-2.07.29-4.011.69-5.761.58-2.529 1.59-4.649 3.26-6.09 10.16-1.6 15.53 1.59 19.75 5.931 4.32-7.051 7.23-10.04 1.98-17.78-9.04 4.52-12.73-6.55-23.7-5.92-5.89 3.41 2.83 12.21-1.98 13.819-8.02-23.569-36.41-26.77-37.52-57.27 8.73-1.7 10.07-7.74 7.9-15.8 2.67.62 3.77 2.81 7.9 1.98.07-8.63-5.45-11.67-5.92-19.75.2-.21.41-.41.64-.58 2.16-1.81 5.36-2.56 8.85-3.01 4.87-.65 10.3-.74 14.21-2.34 3.09-13.67 4.41-20.22 9.87-33.57 21.89 1.23 12.85-25.77 11.85-33.57 13.88 1.37 21.36-3.66 31.6-5.93 6.08-1.47 3.79 5.42 9.87 3.95 11.56-4.24 16.52-15.07 23.7-23.7 18.53-9.18 32.88 9.02 51.35-1.97 3.28-3.96-.17-14.65 3.95-17.78 8.73.49 14.38 4.05 23.69 3.95 4.64-.63 4.42-6.11 7.9-7.89 9.82-.61 18.12.31 25.68 1.97 3.1-1.69 5.84-3.72 9.32-5.03m-90.29 433.583v-.01"/><path d="m345.35 539.32c-.64-.311-1.33-.551-2.05-.73-10.04-2.53-26.6 6.66-35.91 11.101-.54.26-1.07.51-1.56.729 13.16 5.26 8.25 28.61 23.69 31.6.96-2.34 2.11-4.479 3.95-5.93-2.42 9.01 6.93 6.24 7.9 11.851-12.1.409-20.26 4.76-25.67 11.85-8.98-5.83 4.74-7.99 0-13.82-8.81-3.7-15.76-9.26-25.67-11.85-1.47 29.49 17.1 44.25 23.58 70.62l.12.47c-.42.18-.82.36-1.19.54-14.13 6.87 6.59 16.4 5.16 26.91l-.03.2c-.11-.04-.21-.08-.32-.13-13.06-5.211-18.02-18.54-23.37-31.471h-15.8c-4.84 12.7-7.17 20.05-7.9 33.561m75.07-135.501c.59.47 1.09 1.029 1.95 1.229a9.464 9.464 0 0 0 -1.95-1.229z"/><path d="m108.17 381.25c4.26 10.09 7.48 17.96 8.07 19.08-2.23 32.54 40 37.33 39.49 67.15-4.57-.631-7.58.31-9.87 1.97-.8 7.92-8.04 17.16-3.95 23.7 9.89-.65 13.87-7.2 15.8-15.801 21.99.971 17.5 26.67 25.67 37.41.01.03.02.05.05.07.57.75 1.21 1.43 1.93 2.02 3.85-4.06 9.31-6.489 13.82-9.88 4.59 1.34 5.29 6.57 9.88 7.9 6.65-4.72 14.04-6.601 21.78-6.9 11.45-.45 23.67 2.55 35.49 4.931-.29-4.891-.37-9.57 3.92-9.881h.03c0 .021.01.03.01.051 2.1 9.67 12.41 11.13 20.21 15.109 1.38.7 2.68 1.48 3.84 2.391 1.44 1.149 2.68 2.5 3.59 4.18 8.2-1.81 23.07-4.98 23.69 5.92-6.87 8.37-21.48-3.15-25.67 7.9 5.17-.561 8.49.72 7.9 5.93-.44.26-.86.48-1.26.65-3.93 1.689-6.33-.601-8.51-3.54-1.89-2.551-3.61-5.591-6.03-6.99-5.33-3.09-15.33-4.05-25.01-6.79-2.93-.82-5.83-1.82-8.56-3.08-2.18-1.01-4.09-2.24-5.82-3.55-6.64-5.01-10.74-11.25-17.74-10.97-2.3.09-4.91.89-8.04 2.67-1.76 6.14-2.03 13.76-9.87 13.819-8.46 1.221-8.06-6.43-15.8-5.92 3.7 22.5-15.31 19.92-17.78 31.601 16.14 12.819 33.24 24.689 39.5 47.39-4.97 3.58-8.67 8.44-9.87 15.8 4.75 7.21 8.56 12.25 9.61 19.78.26 1.8.35 3.74.26 5.89 14.07 10.33 15.56 7.36 15.95 1.16.44-7.01-.53-18.18 13.67-18.93-1.42 6.04 2.02 7.2 1.98 11.85 4.33.76 7.01 3.18 8.78 6.5 5.1 9.55 2.75 26.55 10.97 32.99 1.11.87 2.41 1.54 3.95 1.979-2.56-16.8-.23-24.149 7.9-33.569h9.87c5.95 9.74 13.62 31.779 25.35 29.49.12-.021.23-.04.35-.07 1.26-.29 2.56-.87 3.92-1.771-4.32-6.79-16.55-17.14-9.08-25.14.32-.34.67-.68 1.07-1.01.6-.51 1.3-1.01 2.09-1.5-6.13-22.84-25.32-43.13-23.7-67.15 7.91 3.94 15.79 7.91 23.7 11.851-5.93 5.829-5.93 8 0 13.829 7.09-6.079 13.85-12.489 27.65-11.85-2.16-5.72-6.32-9.43-9.57-14.05a27.92 27.92 0 0 1 -2.28-3.73c-9.28-2.08 3.24 6.66-3.95 7.9-12.65-3.8-5.44-27.48-19.75-29.62 10.02-1.83 14.67-9.03 27.65-7.9-2.54 2.591-2.54 7.28 0 9.881 13.98-15.54 26.77 7.47 37.52 17.77 6.34 1.73 4.1-5.12 7.9-5.92-4.2-14.31-9.2-28.7 0-41.48-5.93-5.26-12.4-9.979-21.72-11.85-.92 4.29 18.58 5.061 19.75 13.83-10.63 11.06-3.01 26.14 0 39.5-3.12.17-1.55 5.03-5.93 3.94-9.53-13.82-26.22-29.351-37.52-19.74.27-3.681 1.3-6.601 3.95-7.9.58 4.601 5.34 4.601 5.92 0-2.09.08-4.98-.92-2.02-1.96.01-.01.03-.01.05-.02.92 0 1.49.34 2 .75m-237.18-158.07c-16.56-27.11-42.12-74.57-25.92-51 3.82-.28 17.12 30.11 25.92 51z"/><path d="m276.35 465.86c-.75.449-1.46.989-2.12 1.62 1.33.149 2.65.38 3.95.67.91.189 1.8.42 2.7.68 16.07 4.61 30.51 17.8 48.64 18.39-.47 2.82-3.25 3.33-3.95 5.931 7.05 5.46 19.84 5.18 23.7 13.819 3.6-19.54-25.37-43.26-51.34-39.489 10.42-4.73 16.76-13.521 29.62-15.801 8.48 22.87 33.23 31.74 55.3 35.54-.42 10.7 1.27 19.29 4.33 26.511 2.42 5.729 5.71 10.6 9.49 14.97 7.03.77 11.83.7 13.82 1.97 2.72 2.53 3.44 11.811-1.97 11.85-15.47-2.529-20.64-15.359-26.39-27.609-1.61-3.43-3.27-6.811-5.21-9.91-6.78 3.88-22.18.45-26.5 3.72-.71.53-1.12 1.25-1.15 2.2 3.14-.51 6.45-.87 9.76-1.21 6.24-.64 12.53-1.229 17.89-2.74 7.56 16.15 12.2 35.2 33.57 37.53.42-2.22 2.19-3.08 3.95-3.95 1.59-6.85-2.94-7.59-1.97-13.83-6.47 3.21-7.55-.439-15.8 0-7.99-10.439-13.03-23.83-11.85-43.45-27.45 1.591-46.22-13.26-57.27-33.569-14.94 4.149-25.14 13.05-35.55 21.729-3.17-4.29-7.6-2.51-11.12-2.6-.99-.021-1.9-.19-2.7-.68-.72-.452-1.35-1.172-1.83-2.292l-.15-.36c.2.04.39.08.59.11 13.9 2.64 29.44-2.551 36.94-15.91-1.29.02-2.43-.17-3.45-.521-7.35-2.479-8.7-12.979-14.33-11.33-1.35-8.59 3.55-10.93 7.9-13.82 7.76 3.43 15.71 6.67 17.77 15.8-4.02 2.56-11.89 1.27-11.85 7.9.19.01.38.02.57.02 9.44.42 14.46-3.57 19.1-7.94.02-.02.04-.029.05-.05.68-.63 1.34-1.27 2.01-1.91-7.47-12.93-15.69-25.12-27.65-33.57-5.23-17.16-13.23-31.54-25.67-41.47-1.52-16.49 10.71-24.84 1.97-37.53 9.69-2.15 15.97-7.73 21.73-13.82-.45 3.73 2.22 4.36 1.97 7.9-2.4 2.86-7.89 2.65-7.9 7.9 7.47 8.99 16.85 16.06 29.62 19.75-3.41-5.18-24.55-9.65-27.64-21.73 2.93-2.33 8.82-1.7 7.9-7.89-1.03-2.93-2.93-4.98-3.95-7.9-7.21 5.96-14.22 12.11-23.7 15.79 8.95 13.16-4.24 21.86-1.98 39.5 14.15 8.23 21.07 23.7 25.68 41.47 13.83 6.55 21.08 19.67 27.61 33.51.01.021.02.05.03.07-.03-.01-.05-.01-.08-.021-6.45-1.64-9.8 9.671-13.74 3.971 4.94.33 6.18-3.04 7.9-5.931-4.24-8.27-11.44-13.57-21.72-15.8-2.79 5.78-10.3 6.82-7.9 17.78 7.8-1.42 9.75 8.34 15.79 13.82-8.3 13.04-23.73 6.88-32.98 11.96-.15.082-.3.162-.44.252zm130.19-154.4c7.19 1.81 11.53 8.66 19.75 3.95v-15.8c-10.07-8.36-17.62 1.36-19.75 11.85zm63.2 15.8c5.17 2.45 12.529 9.72 19.75 3.95 1.99-12.39-17.32-12.09-19.75-3.95zm-11.85 49.37c2.46.69-2.39 12.15 7.9 9.88-2.92-7.02 7.35-17.48 3.95-23.7-2.44 8.09-19.95 1.11-25.67 5.92v13.83c1.529.44 3.89.05 3.949 1.97 6.751.83 5.931-5.91 9.871-7.9zm-359.35 28.78c-1.96-6.33.58-14.08 3.87-20.88-6.72-3.2-14.99-.3-21.72 1.98m28.92 30.61c.76-.93.59-2.25-1.27-2.97.1.42 0 .89-.25 1.37m6.17 6.53c-.84-2.21-1.73-2.78-2.65-2.81m407.5 32.02c-.061.101-.061.24 0 .42 6.489 5.71 23.739 9.061 31.6 1.971-.53-14.4-17.2-17.141-13.82-29.621-5.6-.33-8.229-3.62-13.83-3.95-4.649 5.69-12.109 12.99-21.72 7.9-11.96 11.949 6.25 19.079 15.8 21.72 2.591-5.3 11.86-3.94 11.851-11.851-8.98-7.529-10.79 5.301-15.8 7.9-5.73-3.49-16.391-2.05-13.83-13.82 6.229-.77 21.449.28 23.699-9.88 4.62.65 8.16 2.38 11.851 3.95-3.05 10.48 13.84 14.06 13.82 27.65-9.411 7.401-28.671-4.289-29.621-2.389z"/><path d="m357.17 449.7c.47-2.82 3.25-3.33 3.95-5.92-5.52-.521-11.14-11.09-15.8-5.931 4.89 3.011 3.53 12.271 11.85 11.851zm45.42 11.85c3.7 10.29 6.83 14.431 17.78 13.83-.88-10.32-5.65-16.74-13.83-19.75-.18 3.11-5.03 1.54-3.95 5.92zm94.8 27.65c.08 2.72-.93 4.33-1.979 5.92 3.2 6.03 11.81 6.63 11.85 15.8-.55 4.061-5.27 3.95-7.899 5.93 1.52 6.381 5.47 10.33 11.85 11.851-.51-8.42 7.92-7.88 9.88-13.83-3.41-6.71-1.38-14.47 0-21.72-6.832-4.311-13.892-7.601-23.702-3.951zm-355.27 12.85c.2-.99.72-1.979 1.77-2.979-8.38-.71-1.74 8.56-1.98 11.85-3.76 3.7-4.96.22-9.87 0-.11 6.47-5.62 7.55-3.95 15.8 8.99 3.94 21.52 13.45 33.57 7.9-1.36-8.51-7.62-12.13-9.87-19.75h5.92c-.64-7.26-4.87-10.93-5.92-17.771-3.06-.58-7.2 2.57-7.67 5.19-.2 1.11.26 2.12 1.74 2.71.35-.85.72-1.66 1.14-2.43.74-1.37 1.63-2.57 2.81-3.5 1.22 3.55 7.42 12.12 3.95 13.83-4.62-.641-1.92-8.62-5.92-9.881-4.15 11.261 9.95 19.94 11.84 31.601-13.14-.021-22.35-3.98-29.62-9.87-.49-14.08 7.75-8.15 13.83-13.83-.45-3.36-2.3-6.16-1.77-8.87zm278.25 50.35c15.77 5.939 17.56 25.88 35.55 29.619.021-3.93 5.38-2.51 3.95-7.899-22.79-.91-14.65-32.75-37.53-33.57-2.27 2.33-2.23 6.98-1.97 11.85zm-258.71 19.74c2.69-6.88 3.46-8.18 11.85-5.92-3.75-10.729-14.82-14.14-23.7-19.75-11.48 11.47 6.7 18.64 11.85 25.67zm385.1-3.95c13.5-3.7 25.101 10.46 33.57-5.921-6.43-6.949-35.32-11.289-33.57 5.921zm-154.04 13.83c6.66-1.239 9.09-6.71 9.87-13.829-2.67-.62-3.77-2.811-7.9-1.971-3.23 4.78-5.02 9.59-1.97 15.8zm112.57 1.97c10.12-5.01 25.35-4.931 27.65-17.771-14.82.321-25.2 5.091-27.65 17.771zm-106.65 15.8c8.36-2.78 13.07-13.01 1.98-15.8-1.19 4.73-2.84 9.01-1.98 15.8zm65.18 21.73c-.061 2.421 6.42 5.181 5.92 11.841 34.47-9.581-5.26-41.461-5.92-11.841zm-15.8 5.92c11.431 2.22 12.41-6.021 13.82-13.82-8.52-5.98-17.41 7.27-13.82 13.82zm132.31 3.95c.03-9.239-6.48-11.949-13.82-13.819-.87 10.729 4.56 18.939 13.82 13.819zm-9.87 21.72c4.87-10.92 22.56-9.04 29.62-17.771-13.53-6.619-34.79 5.611-29.62 17.771zm-102.7 1.98c.45-1.53.061-3.899 1.98-3.95.52-6.449-6.141-5.71-7.9-9.88-.43 1.54-1.649 2.3-3.95 1.98-.22 7.46 3.87 10.62 9.87 11.85zm-71.09-9.88c1.63 5.59-2.78 5.12-1.98 9.88 8.73.17 17.5.38 17.78-7.899-1.86-7.721-9.96-1.681-15.8-1.981zm128.37 19.75c6.41 4.97 13.66-2.41 15.8-7.9-5.49-4.04-17.67-1.58-15.8 7.9zm100.71 53.32c18.22-8.771 30.11-23.87 33.58-47.391-22.44 3.371-42.97 18.731-33.58 47.391zm-325.85-23.69c6.22-.96 4.47 6.061 11.85 3.95.85-3.76 4.25-4.97 3.95-9.88-5.84-2.71-7.37-9.74-13.82-11.851-1.66 4.921-2.59 10.581-1.98 17.781zm286.36 65.17c2.681-8.67 6.69-31.21 1.971-37.529-3.981 13.009-16.471 26.579-1.971 37.529zm-235.01-9.88c-5.5.89 1.55-10.76-3.95-9.87-3.57 9.05-9.44 25.061-1.98 33.57 29.53-1.64 54.59 2.81 79 13.83v9.87c33.82 2.779 66.291-14.3 94.791-3.95 8.01-3.84 11.859-11.84 9.88-25.67-13.13 5.46-24.63 4-35.55 13.82-6.29-5.221.689-11.921 0-17.771-21.101 7.69-48.431-8.68-71.101-7.9-14.45.49-30.73 13.381-37.52-3.949 5.71-3.17 2.39-7.38 0-11.851-7.82 1.391-7.49 10.94-19.75 7.9-7.69-.21-3.39-12.41-9.87-13.83-6.24 4.721 4.69 14.311-3.95 15.801zm-236.99-327.83c-5.32 3.91-14.28-5.38-19.75-7.9 1.08-14.89-15.53-12.11-13.82-27.64m19.75 0c-3.68-3.52-7.08-.98-11.71 0-1.81.39-3.8.54-6.07 0m86.9-94.8-33.31-51.46m162 6-2-72m242 42 28-26"/></g></g><path d="m.25.25h850.394v850.394h-850.394z" fill="none"/></svg>