<svg height="850.394" viewBox="0 0 850.394 850.394" width="850.394" xmlns="http://www.w3.org/2000/svg"><path d="m657.66 387.19c78.25 0 141.68 45.07 141.68 100.67 0 55.59-63.43 100.659-141.68 100.659-14.04 0-27.601-1.449-40.41-4.17.1-1.58.15-3.17.15-4.77 0-45.63-42.7-84.15-101.25-96.5 3.51-53.379 65.53-95.889 141.51-95.889z" fill="#58b947"/><path d="m617.4 579.58c0 1.6-.051 3.189-.15 4.77-58.55-12.34-101.26-50.88-101.26-96.489 0-1.601.05-3.2.16-4.78 58.55 12.349 101.25 50.869 101.25 96.499z" fill="#fbed24"/><path d="m515.99 487.86c0 45.609 42.71 84.149 101.26 96.489-3.51 53.381-65.52 95.891-141.52 95.891-78.25 0-141.681-45.07-141.681-100.66 0-55.61 63.43-100.67 141.681-100.67 14.05 0 27.619 1.45 40.42 4.17-.11 1.58-.16 3.18-.16 4.78z" fill="#fbed24"/><path d="m510.02 160.52c78.25 0 141.681 45.06 141.681 100.66s-63.431 100.66-141.681 100.66c-78.239 0-141.669-45.06-141.669-100.66-.001-55.6 63.429-100.66 141.669-100.66z" fill="#ed1e29"/><path d="m198.34 298.46c78.25 0 141.67 45.06 141.67 100.66s-63.42 100.67-141.67 100.67-141.68-45.07-141.68-100.67 63.43-100.66 141.68-100.66z" fill="#58b947"/><g fill="none"><g stroke="#231f20" stroke-width="21"><path d="m651.7 261.18c0 55.6-63.431 100.66-141.681 100.66-78.239 0-141.669-45.06-141.669-100.66s63.43-100.66 141.669-100.66c78.251 0 141.681 45.06 141.681 100.66zm-135.55 221.9c3.51-53.38 65.529-95.89 141.51-95.89 78.25 0 141.68 45.07 141.68 100.67 0 55.59-63.43 100.659-141.68 100.659-14.04 0-27.601-1.449-40.41-4.17m-277.24-185.229c0 55.6-63.42 100.67-141.67 100.67s-141.68-45.07-141.68-100.67 63.43-100.66 141.68-100.66 141.67 45.06 141.67 100.66z"/><path d="m516.15 483.08c58.55 12.35 101.25 50.87 101.25 96.5 0 1.6-.051 3.189-.15 4.77-3.51 53.381-65.52 95.891-141.52 95.891-78.25 0-141.681-45.07-141.681-100.66 0-55.61 63.43-100.67 141.681-100.67 14.05-.001 27.62 1.449 40.42 4.169z"/></g><path d="m0 0h850.394v850.394h-850.394z"/></g></svg>