<svg height="850.89" viewBox="0 0 850.89 850.89" width="850.89" xmlns="http://www.w3.org/2000/svg"><path d="m817.66 139.8h.59v2.26h-.59z" fill="#231f20"/><path d="m630.46 139.8h187.2v2.26h-187.2z" fill="#231f20"/><path d="m816.95 111.41-91.01.41v-14.93h91.66v-2.26h.06v19.04h-.7z" fill="#fff"/><path d="m630.46 128.51h186.5v-2.26h.7v13.55h-187.2v2.26h-.06l-.13-13.55z" fill="#394ea1"/><path d="m817.66 152.48v15.61h-187.02l-.12-13.35h186.4v-2.26z" fill="#ed1e29"/><path d="m725.97 94.63h91.63v2.26h-91.63zm0-14.84h91.63v2.25h-91.63zm-95.51 46.46h186.5v2.26h-186.5zm95.51-61.95h90.99v2.26h-90.99z" fill="#231f20"/><path d="m762.19 621.57c-.44 5.02-3.37 7.56-4.101 12.3-4.67 1.25-9.78 2.05-13.66 4.1-14.729 22.15-51.25 22.521-72.41 38.25-1.6 13.431-11.67 18.391-17.76 27.32-7.83-4.46-10.21-14.37-24.59-12.29-12.439-12.83-1.14-30.39-2.729-45.09-.69-6.33-6.181-11.04-8.2-16.391-5.101-13.479-5.51-28.21-12.3-39.619 14.52-9.351 35.159-31.03 19.13-50.551 1.199-3.81 1.71-8.31 4.1-10.93-.39-2.439 1.29-2.8 1.37-1.37 25.07 13.181 52.74 23.771 80.6 34.16 6.801 10.05 15.08 18.62 15.03 35.521 5.29.729 6.67-2.44 12.3-1.37-2.74 19.13 15.04 17.75 23.22 25.96z" fill="#fff5b4"/><path d="m817.66 64.3v15.49h-91.69v2.25h-.03v-15.48h91.02v-2.26z" fill="#ed1e29"/><path d="m817.66 79.79v14.84h-91.69v2.26h-.03v-14.85h91.66v-2.25zm-91.75 13.88h.03v13.32h-.03l-19.86-13.32zm.03-38.54v14.27h-20.73v-.26l20.7-14.01z" fill="#394ea1"/><g fill="#231f20"><path d="m724.94 111.82h1v1.13h-1z"/><path d="m725.94 114.03v-2.21l91.01-.41.01 2.26-92.01.41v-.05z"/><path d="m725.94 112.95v1.08h-.99l-.01-1.08z"/></g><path d="m718.47 47.77-27.18 19.27h-.32v-19.57h27.5z" fill="#394ea1"/><path d="m718.47 47.47h-27.5v-1.94h126.69v18.77h-91.69v2.26h-.03v-19.09h-3.58z" fill="#fff"/><path d="m717.5 114.03h-26.53v-17.9l26.53 17.52z" fill="#394ea1"/><path d="m725.91 106.99h.03v2.46h-1l-22.79-15.78h3.9zm-28.34-37.59 28.37-20.49v6.22h-.03l-20.7 14.01v.26z" fill="#fff"/><path d="m724.94 109.45h1v2.37h-1v1.13l-28.92-19.28h6.13zm1-61.98v1.44l-28.37 20.49h-4.99v-.26l29.78-21.37v-.3z" fill="#ed1e29"/><path d="m717.5 113.65-26.53-17.52v-2.46h5.05l28.92 19.28.01 1.08h-7.45zm-26.21-46.61 27.18-19.27v-.3h3.89v.3l-29.78 21.37v.26h-1.61v-2.36z" fill="#fff"/><path d="m696.02 93.67h-5.05v20.36h-4.86v-25.61h39.83v5.25h-23.79zm29.92-19.01h-39.83v-27.19h4.86v21.93h34.97z" fill="#fff"/><path d="m686.11 113.3v.73h-15.29v-25.96h-39.72l-1.2.01-.12-13.06 1.32-.01h39.07v-27.54h15.94v27.19h39.83v13.76h-39.83z" fill="#ed1e29"/><path d="m690.97 45.53v1.94h-25.65v-1.94z" fill="#fff"/><path d="m640.16 114.03h84.79v.05l92.01-.41h.7v12.58h-187.2v2.26h-.19l-.13-14.06 7.11-.42z" fill="#ed1e29"/><path d="m666.29 114.03h-26.13v-.03l25.57-16.12h.56v15.77zm-.97-66.56v20.27h-.24l-24.59-19.97v-.3zm-10.2 45.5-23.69 14.37-1.35.01-.13-14.37.83-.01zm-5.25-23.48v.26h-18.77l-1.37.01-.13-14.62 1.83-.01z" fill="#394ea1"/><path d="m640.49 47.77 24.59 19.97h.24v2.01h-5.74v-.26l-27.98-22.02h8.89zm-3.24 65.53 28.82-18.35h.22v2.93h-.56l-25.57 16.12v.03h-2.91z" fill="#fff"/><path d="m666.07 94.95-28.82 18.35v.73h-5.09l-.77-1.25 31.42-19.45v-.36h3.48v1.98zm-34.64-42.98-1.86.02-.06-6.46h35.81v1.94h-33.72l27.98 22.02v.26h-4.98z" fill="#ed1e29"/><path d="m631.43 55.13-1.83.01-.03-3.15 1.86-.02 23.17 17.78h-4.73v-.26z" fill="#fff"/><path d="m631.1 75.01-1.32.01-.05-5.26 1.37-.01h34.22v-22.28h4.85v27.54z" fill="#fff"/><path d="m637.25 114.03-7.11.42-.01-1.49.97-.01.29-.17.77 1.25z" fill="#ed1e29"/><path d="m816.92 154.74h-186.4l-.02-2.26h186.42z" fill="#231f20"/><path d="m630.5 152.48.02 2.26h-.1v-2.26z" fill="#231f20"/><path d="m630.46 142.06h187.2v10.42h-187.16l-.1-10.42zm-.38-34.71 1.35-.01 23.69-14.37h7.69v.36l-31.42 19.45-.29.17-.97.01z" fill="#fff"/><path d="m630.78 92.97-.83.01-.05-4.9 1.2-.01h39.72v25.96h-4.53v-21.06h-11.17z" fill="#fff"/><path d="m615.62 37.28c-3.55-1.58-5.92-4.43-5.92-7.68 0-4.97 5.53-8.99 12.34-8.99 6.82 0 12.35 4.02 12.35 8.99 0 3.18-2.26 5.97-5.67 7.57-1.93.9-4.22 1.43-6.68 1.43-2.35 0-4.55-.48-6.42-1.32z" fill="#c8c8c8"/><path d="m622.04 38.6c2.46 0 4.75-.53 6.68-1.43v216.49h-12.74l-.36-216.38c1.87.84 4.07 1.32 6.42 1.32z" fill="#c8c8c8"/><path d="m614.64 461.72c-2.229 11.37-11.46 21.71-24.59 17.761-8.33 3.97-15.2 9.399-27.33 9.569-4.939-8.26-6.819-19.59-10.93-28.689-4.34-.5-12.44-2.2-19.12-4.101-2.27-4.569-4.57-9.1-6.83-13.66 1.87-24.35 25.391-17.379 28.69 1.36 19.95-14.8 46.51 5.46 60.11 17.76zm-90.17-49.18c-1.8 3.67-3.67 7.26-5.46 10.93-24.33 3.87-40.04-10.55-65.58-2.73.58-2.86-.939-3.62-1.37-5.47 2.32-5.88 9.94-6.45 8.2-16.39 7.23 6.04 25.36 9.26 35.521 4.1 1.849 10.9 19.479 6.02 28.689 9.56zm-40.99 27.32c29.84-7.36 40.81 28.5 9.569 27.33.911-13.19-11.809-17-9.569-27.33zm-76.5-45.08c-8.7-.95-12.45 3.04-19.13 4.1-2.61-3.76-6.06-6.69-8.2-10.93-7.32 3.15-16.41 4.54-25.96 5.46-6.24-14.25-18.1-22.88-20.49-40.98 7.9-1.07 11.68 1.98 19.13 1.36 4.85-5.61 7.7-13.25 15.03-16.39 11.85 7.27 15.84 22.41 21.86 35.52 2.6-.59 3.43-2.94 6.83-2.73 4.24 7.59 10.25 13.42 10.93 24.59zm-210.4-127.06c18.04 9.32 9.15 44.22-8.2 49.18-16.9.96-19.18-12.69-35.52-12.29-2.93-3-4.25-7.59-8.2-9.57 8.8-17.61 23.94-28.89 51.92-27.32zm-80.61 31.42c-2.71 12.77-17.08 13.89-19.13 27.33-3.29.56-2.97-2.5-6.83-1.37 1.92-14.75 14.9-24.81 25.96-25.96z" fill="#fff5b4"/><g fill="none" stroke="#231f20"><path d="m817.66 142.06v26.03h-187.02m-1.13-122.56h188.15v94.27m-202.04-102.52c-3.55-1.58-5.92-4.43-5.92-7.68 0-4.97 5.53-8.99 12.34-8.99 6.82 0 12.35 4.02 12.35 8.99 0 3.18-2.26 5.97-5.67 7.57-1.93.9-4.22 1.43-6.68 1.43-2.35 0-4.55-.48-6.42-1.32z" stroke-width="6.776"/><path d="m615.62 37.03v.25l.36 216.38m12.74-217.08v217.08" stroke-width="6.776"/><path d="m816.56 58.13 1.1-.62.65-.37" stroke-width="4.517"/><path d="m667 114.03h-29.75l-7.11.42-.33.02m95.14-.44h-57.95m-35.4-66.56h94.34v64.35" stroke-width="2.259"/><path d="m726.24 74.66h-40.13v-27.95m-15.94.35v27.95h-39.07m0 13.06h39.72v25.93m15.29-.7v-24.88h39.8" stroke-width="1.613"/><path d="m665.32 46.71v23.04h-34.22m95.14-.35h-35.27v-22.69m-60.19 46.26h35.51v20.68m24.68 0v-19.98h34.94" stroke-width="2.259"/><path d="m640.49 47.77 24.59 19.97m-33.48-20.27 27.98 22.02m-28.15-17.52 23.17 17.78.12.1m-23.29-14.72 18.44 14.36m41.42-2.45 27.18-19.27m-25.89 21.37 29.78-21.37m-24.92 21.72.13-.09 28.37-20.49.62-.44m-21.35 20.67 20.7-14.01m-88.66 58.17 28.82-18.35m-34.97 18 .29-.17 31.42-19.45m2.92 4.55-25.57 16.12m-8.73-6.66 23.69-14.37.58-.34m69.24 20.32-28.92-19.28-.52-.34m-4.53 2.8 26.53 17.52m-15.86-20.32.51.34 22.79 15.78m-19.41-16.12.52.34 19.86 13.32" stroke-width="1.613"/><path d="m144.66 295.04c3.95 1.98 5.27 6.57 8.2 9.57 16.34-.4 18.62 13.25 35.52 12.29 17.35-4.96 26.24-39.86 8.2-49.18-27.98-1.57-43.12 9.71-51.92 27.32zm-54.65 30.06c3.86-1.13 3.54 1.93 6.83 1.37 2.05-13.44 16.42-14.56 19.13-27.33-11.06 1.15-24.04 11.21-25.96 25.96zm277.35 12.3c-7.33 3.14-10.18 10.78-15.03 16.39-7.45.62-11.23-2.43-19.13-1.36 2.39 18.1 14.25 26.73 20.49 40.98 9.55-.92 18.64-2.31 25.96-5.46 2.14 4.24 5.59 7.17 8.2 10.93 6.68-1.06 10.43-5.05 19.13-4.1-.68-11.17-6.69-17-10.93-24.59-3.4-.21-4.23 2.14-6.83 2.73-6.02-13.11-10.01-28.25-21.86-35.52zm84.7 77.87c.431 1.85 1.95 2.61 1.37 5.47 25.54-7.82 41.25 6.6 65.58 2.73 1.79-3.67 3.66-7.26 5.46-10.93-9.21-3.54-26.84 1.34-28.689-9.56-10.16 5.16-28.29 1.94-35.521-4.1 1.74 9.94-5.88 10.51-8.2 16.39zm73.78 27.33c2.26 4.561 4.561 9.091 6.83 13.66 6.68 1.9 14.78 3.601 19.12 4.101 4.11 9.1 5.99 20.43 10.93 28.689 12.13-.17 19-5.6 27.33-9.569 13.13 3.949 22.36-6.391 24.59-17.761-13.6-12.3-40.159-32.56-60.109-17.76-3.301-18.74-26.821-25.71-28.691-1.36zm-32.79 24.59c31.24 1.17 20.271-34.69-9.569-27.33-2.241 10.33 10.479 14.14 9.569 27.33zm218.59 94.27c-27.859-10.39-55.529-20.979-80.6-34.16-.08-1.43-1.76-1.069-1.37 1.37-2.39 2.62-2.9 7.12-4.1 10.93 16.029 19.521-4.61 41.2-19.13 50.551 6.79 11.409 7.199 26.14 12.3 39.619 2.02 5.351 7.51 10.061 8.2 16.391 1.59 14.7-9.71 32.26 2.729 45.09 14.38-2.08 16.76 7.83 24.59 12.29 6.09-8.93 16.16-13.89 17.76-27.32 21.16-15.729 57.681-16.1 72.41-38.25 3.88-2.05 8.99-2.85 13.66-4.1.73-4.74 3.66-7.28 4.101-12.3-8.181-8.21-25.96-6.83-23.221-25.96-5.63-1.07-7.01 2.1-12.3 1.37.051-16.901-8.229-25.471-15.029-35.521z" stroke-width="5"/></g><path clip-rule="evenodd" d="m.25.25h850.394v850.394h-850.394z" fill="none"/></svg>