<svg height="850.89" viewBox="0 0 850.89 850.89" width="850.89" xmlns="http://www.w3.org/2000/svg"><path d="m820 672.86c-8.41.34-5.67-9.12 0-3.15z"/><path d="m812.64 638.15c4.271-.99 3.641 5.699 2.101 7.359-3.371-1.719-2.681-3.509-2.101-7.359zm0 29.45c-2.819-.689-4-3.01-6.31-4.21.32-1.42 2.63-.87 4.2-1.05.46 2.01 2.27 2.65 2.11 5.26z" fill="#fff"/><path d="m804.22 660.24c4.641.95 10.101.12 10.521 7.359-4.611 2.421-10.921-1.379-10.521-7.359zm6.31 2.1c-1.57.18-3.88-.37-4.2 1.05 2.31 1.2 3.49 3.521 6.31 4.21.16-2.61-1.65-3.25-2.11-5.26zm-54.57-74.14-.27-.51c.05-.011.1-.011.149-.021.041.181.071.361.121.531zm-53.76-25.78c5.51-.09 6.78-4.439 10.52-6.31 9.25.22 6.771 12.159 18.931 9.47-.19 10.36 11.18 9.15 15.779 14.72-1.72 7.4-11.069 7.17-13.68 13.681 9.52 3.89 13.68-6.65 21.04-8.421.27.74.57 1.45.9 2.131-8.08 1.13-15.86 15.449-24.04 6.29 2.279-6.841 11.18-7.061 13.67-13.681-6.53-3.28-14.96-4.66-15.771-13.67-3.79.37-5.069 1.61-8.42 0 .05-4.95-3.439-6.38-6.31-8.41-6.15-.189-5.36 6.561-12.62 5.261-4.08-.711-5.141-4.45-8.19-6.181 3.411.48 5.821 1.37 8.191 5.12z"/><path d="m693.79 557.17c.07.04.15.08.22.13-.33-.04-.66-.09-1.01-.13z"/><g fill="#fff"><path d="m637.04 109.93.5 1.53-1.79-.26zm-3.32 7.57 1.62.86-1.31.95zm-2.45-11.84-.81 1.66-.81-1.66z"/><path d="m628.36 110.73.47-.07.21-.43 1.42-2.91 1.42 2.91.21.43.47.07 3.19.47-2.32 2.29-.33.33.08.46.54 3.22-2.84-1.51-.42-.23-.43.23-2.83 1.51.54-3.22.08-.46-.34-.33-2.32-2.29zm-1.16 6.77-.31 1.81-1.32-.95zm-3.33-7.57 1.29 1.27-1.79.26zm.9 12.76.5 1.53-1.79-.26zm-2.63 5.45 1.61.86-1.31.94zm-1.36-8.41-.81 1.66-.81-1.66z"/><path d="m621.04 123.6.48.07 1.96.29-1.43 1.41-.34.33.09.46.34 1.98-1.75-.93-.42-.22-.43.22-1.73.93.33-1.98.08-.46-.33-.33-1.43-1.41 1.96-.29.47-.07.21-.42.87-1.79.87 1.79zm-3.23 4.54-.31 1.8-1.31-.94zm-1.35-4.18-1.79.26.5-1.53zm-1.06-26.31.5 1.53-1.78-.26zm-.72 40.19.53 1.5-1.64-.27zm-2.47-30.26-.31-1.8 1.62.86zm.49 40.91-1.35.91-.29-1.88z"/></g><path d="m611.75 529.82c4.13 1.68.36-4.54 3.15-4.21 4.46.1 5.43 3.689 7.359 6.31 13.431-4.96 21.24 13.67 32.61 16.83 5.3 1.47 11.62-1.11 16.83 0 4.31.92 8.729 6.35 13.67 7.36 3.04.63 5.52.819 7.63 1.06h-9.73c-6.35-9.479-20.619-3.59-30.5-7.37-9.59-3.66-13.199-13.17-22.09-16.83h-8.42c-3.01-1.54-3.939-5.16-7.359-6.31.21 3.01.13 5.74-3.15 5.26-1.29-1.11-2.64-2.229-4.05-3.35 1.27.69 2.61 1.14 4.05 1.25z"/><path d="m609.16 93.03-.81 1.66-.81-1.66zm-1.12 39.09-.82 1.89-.83-1.89zm-1.93-33.72.47-.07.2-.43 1.57-3.21 1.57 3.21.2.43.47.07 3.53.52-2.56 2.52-.34.33.08.46.6 3.55-3.13-1.67-.42-.22-.42.22-3.14 1.67.6-3.55.09-.46-.34-.33-2.56-2.52zm1.11 46.82-.46.28-3.4 2.02.68-4.46.06-.42-.29-.32-2.95-3.25 3.98-.66.49-.08.2-.45 1.69-3.87 1.68 3.87.2.45.48.08 3.99.66-2.95 3.25-.29.32.06.42.67 4.46-3.38-2.02zm-2.43-39.44-.3 1.81-1.31-.95z" fill="#fff"/><path d="m603.42 525.33c1.48 1.06 2.91 2.15 4.28 3.24-1.5-.81-2.91-1.94-4.28-3.24z"/><path d="m603.36 147.52-.28 1.88-1.35-.91zm-2.06-49.87 1.28 1.27-1.79.26zm-1.55 40.19 1.11 1.23-1.64.27zm-6-22.63.5 1.53-1.78-.26zm-3.49 8.13 1.61.86-1.31.94zm-2.75-12.75-.81 1.66-.81-1.66z" fill="#fff"/><path d="m583.15 123.34.6-3.55.08-.46-.34-.33-2.56-2.52 3.53-.52.47-.07.21-.43 1.56-3.21 1.57 3.21.2.43.47.07 3.53.52-2.56 2.52-.34.33.09.46.6 3.55-3.13-1.67-.43-.22-.42.22z" fill="#fff"/><path d="m628.83 110.66-.47.07-3.2.47-1.29-1.27-.5 1.53 1.79-.26 2.32 2.29.34.33-.08.46-.54 3.22-1.63.86 1.319.95.311-1.81 2.83-1.51.43-.23.42.23 2.84 1.51.311 1.81 1.31-.95-1.62-.86-.54-3.22-.08-.46.33-.33 2.32-2.29 1.79.26-.5-1.53-1.29 1.27-3.19-.47-.47-.07-.21-.43-1.42-2.91.81-1.66h-1.619l.81 1.66-1.42 2.91zm-14.16 13.56 1.79-.26 1.43 1.41.33.33-.08.46-.33 1.98-1.62.86 1.31.94.31-1.8 1.73-.93.43-.22.42.22 1.75.93.301 1.8 1.31-.94-1.61-.86-.34-1.98-.09-.46.34-.33 1.431-1.41 1.789.26-.5-1.53-1.289 1.27-1.961-.29-.479-.07-.2-.42-.87-1.79.811-1.66h-1.62l.81 1.66-.87 1.79-.21.42-.47.07-1.96.29-1.29-1.27-.503 1.53zm-8.09-25.89-.47.07-3.53.52-1.28-1.27-.51 1.53 1.79-.26 2.56 2.52.341.33-.091.46-.6 3.55-1.61.86 1.311.95.3-1.81 3.14-1.67.42-.22.42.22 3.131 1.67.31 1.8 1.31-.94-1.619-.86-.601-3.55-.08-.46.34-.33 2.561-2.52 1.78.26-.5-1.53-1.28 1.27-3.53-.52-.47-.07-.2-.43-1.57-3.21.811-1.66h-1.62l.81 1.66-1.569 3.21zm-7.36 41.01 1.641-.27 2.949 3.25.29.32-.06.42-.68 4.46-1.63.97 1.35.91.28-1.88 3.399-2.02.46-.28.46.28 3.38 2.02.29 1.88 1.351-.91-1.641-.97-.67-4.46-.06-.42.29-.32 2.95-3.25 1.64.27-.53-1.5-1.109 1.23-3.99-.66-.48-.08-.199-.45-1.681-3.87.82-1.89h-1.65l.83 1.89-1.689 3.87-.2.45-.49.08-3.979.66-1.11-1.23zm-19.57-24.13-.5 1.53 1.779-.26 2.561 2.52.34.33-.08.46-.6 3.55-1.62.86 1.31.94.311-1.8 3.13-1.67.42-.22.43.22 3.13 1.67.3 1.8 1.311-.94-1.61-.86-.6-3.55-.09-.46.34-.33 2.56-2.52 1.78.26-.5-1.53-1.28 1.27-3.529-.52-.471-.07-.2-.43-1.569-3.21.81-1.66h-1.62l.811 1.66-1.561 3.21-.21.43-.47.07-3.53.52zm-26.05-35.04h105.92v1.65l-.359 81.69h-106.671v-83.34z" fill="#0071bc"/><path d="m583.15 123.34-.31 1.8-1.31-.94zm-3.5-8.13 1.28 1.27-1.78.26zm5.8 513.48c-.931 2.199-5.87-.341-5.26-3.16 3.31-.5 2.78 2.83 5.26 3.16z" fill="#fff"/><path d="m554.37 163.51h104.79l.36-81.69v-1.65h156.97v171.24h-264v-87.9h.63z" fill="#ed1e29"/><path d="m580.19 625.53c-.61 2.819 4.329 5.359 5.26 3.16-2.48-.33-1.95-3.66-5.26-3.16zm-54.6-4.21c11.29-.101 12.45 9.939 24.101 9.47 8.39-9.88 37.159-18.47 43.119 0-.64 1.46-4.04.16-4.199 2.1 5.069 1.94 13.31.721 19.979 1.051 5.95 3.869 12.46 7.18 13.67 15.779 12.26 6.75 27.73-1.52 37.87-6.31 8.61 10.05 31.43 5.68 46.28 4.21 8.109 5.38 24.359 7.32 35.76 6.31 4.88-.43 8.84-3.949 13.67-4.21 2.87-.149 5.771 1.78 8.42 2.11 11.95 1.439 25.53-.37 37.86 5.25-3.72-9.021 6.7-13.061 7.36-19.98.859-8.92-6.79-16.54-13.671-22.09-.8.94-3.359.9-7.359 1.05-6.33-13.779-28.78-11.46-32.49-27.859 6.75 12.67 25.37 13.46 32.49 25.76 13.2-2.8 24.229 12.44 22.08 25.24-1.08 6.45-10.681 12.41-6.311 21.04-11.95-6.2-31.29-6.721-48.38-8.41-12.51 3.63-26.87 5-41.02 2.1-2.98-.609-6.12-3.5-9.46-4.21-14.721-3.14-33.83 9.17-45.23-4.21-9.89 4.49-24.3 12.08-37.87 6.32-4.479-8.57-7.229-14.82-16.819-16.83-9.391-1.98-24.221 3.73-26.301-10.52 4.69-3.101 6.15 4.68 9.471 6.31-.601-16.45-31.83-7.79-37.87 2.1-10.25-1.991-18.52-5.961-25.15-11.571z"/><path d="m534.18 68.64c-4.949-2.21-8.26-6.19-8.26-10.73 0-6.94 7.72-12.57 17.24-12.57 9.53 0 17.25 5.63 17.25 12.57 0 4.44-3.15 8.34-7.92 10.57-2.681 1.26-5.891 2-9.33 2-3.29 0-6.36-.67-8.98-1.84z" fill="#c8c8c8"/><path d="m543.16 70.48c3.439 0 6.649-.74 9.33-2v302.5h-17.8l-.51-302.34c2.62 1.17 5.69 1.84 8.98 1.84z" fill="#c8c8c8"/><path d="m525.59 621.32h-.09c-.64-.521-1.24-1.09-1.81-1.7.62.59 1.25 1.15 1.9 1.7zm-17.85-28.53c7.71 6.54 9.069 19.45 15.95 26.83-7.351-6.89-12.53-15.97-16.07-26.7z"/><path d="m482.38 529.82c10.18 5.3 20.67.899 30.5 1.05 3.89-1.021 2.86-6.95 6.311-8.41 10.89 1.78 20.119-1.59 26.29-7.37 3.449.061 4.029 2.99 8.42 2.11 20.46-7.99 36.939-.88 49.52 8.13 1.37 1.3 2.78 2.43 4.28 3.24 1.41 1.12 2.76 2.239 4.05 3.35 3.28.48 3.36-2.25 3.15-5.26 3.42 1.149 4.35 4.77 7.359 6.31h8.42c8.891 3.66 12.5 13.17 22.09 16.83 9.881 3.78 24.15-2.109 30.5 7.37h9.73c.35.04.68.09 1.01.13 3.05 1.73 4.11 5.47 8.19 6.181 7.26 1.3 6.47-5.45 12.62-5.261 2.87 2.03 6.359 3.46 6.31 8.41 3.351 1.61 4.63.37 8.42 0 .811 9.01 9.24 10.39 15.771 13.67-2.49 6.62-11.391 6.84-13.67 13.681 8.18 9.159 15.96-5.16 24.04-6.29l.27.51c3.71 16.399 26.16 14.08 32.49 27.859 4-.149 6.56-.109 7.359-1.05 6.881 5.55 14.53 13.17 13.671 22.09-.66 6.92-11.08 10.96-7.36 19.98-12.33-5.62-25.91-3.811-37.86-5.25-2.649-.33-5.55-2.26-8.42-2.11-4.83.261-8.79 3.78-13.67 4.21-11.4 1.011-27.65-.93-35.76-6.31-14.851 1.47-37.67 5.84-46.28-4.21-10.14 4.79-25.61 13.06-37.87 6.31-1.21-8.6-7.72-11.91-13.67-15.779-6.67-.33-14.91.89-19.979-1.051.159-1.939 3.56-.64 4.199-2.1-5.96-18.47-34.729-9.88-43.119 0-11.65.47-12.811-9.57-24.101-9.47a44.14 44.14 0 0 1 -1.899-1.7c-6.881-7.38-8.24-20.29-15.95-26.83-.37-.33-.76-.63-1.17-.92-3.59-.08-3.12 3.899-3.16 7.37-3.36-6.58-17.37-7.71-14.72-16.83-16.011-1.4-31.96-11.351-36.811-27.351 9.739-8.839 19.309-17.849 30.499-25.239z" fill="#fff5b4"/><path d="m451.88 555.06c4.851 16 20.8 25.95 36.811 27.351-2.65 9.12 11.359 10.25 14.72 16.83.04-3.471-.43-7.45 3.16-7.37.41.29.8.59 1.17.92l-.12.13c-2.75 1.11-3.44 4.28-3.16 8.42-6.59-5.67-16.4-8.13-18.93-17.88-19.08-1.95-28.46-13.61-35.761-27.35 7.29-11.641 20.74-17.13 29.45-27.341 13.75 2.15 20.101 3.061 33.66 0 2.16-1.699 2.65-5.069 4.21-7.369 12.87 1.31 20.811-2.32 27.34-7.36 3.86-.35 5.851 1.17 8.42 2.1 10.5-2.96 23.21-5.68 34.71-3.149 6.65 1.47 11.08 7.87 15.86 12.34-12.58-9.01-29.06-16.12-49.52-8.13-4.391.88-4.971-2.05-8.42-2.11-6.171 5.78-15.4 9.15-26.29 7.37-3.45 1.46-2.421 7.39-6.311 8.41-9.83-.15-20.32 4.25-30.5-1.05-11.189 7.388-20.759 16.398-30.499 25.238z"/><path d="m434 540.34c1.43 2.07 1 6 2.1 8.41h-6.31c-.47-3.95-3.75-5.08-2.11-8.41z" fill="#fff5b4"/><path d="m424.53 543.49c.23-5.03 4.581-5.94 10.52-5.26 1.19 3.369 2.141 6.979 2.101 11.569-2.58.59-5.551 1.33-9.471 0 .63-3.779-.37-5.929-3.15-6.309zm3.15-3.15c-1.64 3.33 1.641 4.46 2.11 8.41h6.31c-1.1-2.41-.67-6.34-2.1-8.41zm-15.77-13.68c1.75 2.09-.1 1.34 0 4.21-4.05.83-4.05-5.04 0-4.21z" fill="#fff"/><path d="m411.91 530.87c-.1-2.87 1.75-2.12 0-4.21-4.05-.83-4.05 5.04 0 4.21zm0 2.1c-3.2-.649-5.38-2.33-5.26-6.31 1.53-1.62 5.38-.92 8.41-1.05.57 4.07-2.68 4.33-3.15 7.36z" fill="#fff5b4"/><path d="m287.88 502.9c-2.82.689-5.64 1.31-8.5 1.68-.22.03-.45.05-.67.07 3.1-.65 6.2-1.25 9.17-1.75zm-36.9 9.04c-1.61-.41-3.19-.7-4.74-.891l.03-.22c.96.12 1.84.16 2.61.06 3.92-.52 7.56-4.239 11.57-5.26 5.78-1.47 11.89-.3 18.26-.979-10.98 2.3-21.98 5.32-27.73 7.29zm-154.01-111.77c6.47 8.5 15.87 14.06 25.7 19.21.89 4.01 3.13 6.69 4.2 10.521 13.61 4.6 15.37 21.149 25.25 29.449 4.12 3.46 10 2.811 12.62 8.41-2.59 12.561 12.22 14.521 11.57 28.4 13.07 1.2 12.89 16.35 23.14 18.93 10.94 2.76 27.49-5.8 34.71-6.31 3.52-.25 8.38 1.55 12.11 2.05l-.03.22c-18.96-2.27-34.04 10.76-48.9 4.04-9.51-4.3-8.59-13.8-22.08-17.88.67-13.99-14.07-12.57-11.57-28.4-1.83-3.77-5.87-5.35-10.52-6.31-10.03-10.3-15.35-25.31-28.4-32.6-.34-3.871-2.59-5.82-3.15-9.47-12.14-1.95-18.34-12.01-24.71-20.21z" fill="#fff"/><path d="m65.87 345.76c17-6.73 44.7 26.32 64.16 6.31 5.8 1.56 6.17 8.55 13.67 8.41 3.86-1.53-.8-5.49 2.11-8.41 8.91-.89 13.55-8.1 23.14-5.26 7.13-6.54 19.46-7.88 27.34-13.68 5.38-.47 5.76 4.06 10.52 4.21 8.78-2.08 15.93-5.8 23.14-9.46 9.07 2.29 19.58 7.07 29.45 5.25 2.97-1.58 2.58-6.53 4.21-9.46 13.97 1.2 20.67-4.44 30.5-2.11 3.41-6.64 15.86 2.78 22.09 0 11 7.58 20.01 17.16 24.19 31.56 17.08 9.01 23.21 25.45 33.65 44.17 4.95 8.88 6.13 7.45 8.42 19.99 1.98 10.89 15.13 19.61 13.67 28.4-1.86 11.19-21.99 10.79-14.72 27.34-2.48 4.181-9.14 4.19-10.52 9.471 4.85 9.149 7.73 24.12 0 32.6-14.95 5.55-18.68-8.45-32.61-7.359-4.22-4.19-5.24-11.58-9.46-15.78-10.51-2.09-10.01 6.83-16.83 8.42-8.26-1.75-16.15.62-24.11 2.53-2.97.5-6.07 1.1-9.17 1.75-6.37.68-12.48-.49-18.26.979-4.01 1.021-7.65 4.74-11.57 5.26-.77.101-1.65.061-2.61-.06-3.73-.5-8.59-2.3-12.11-2.05-7.22.51-23.77 9.069-34.71 6.31-10.25-2.58-10.07-17.729-23.14-18.93.65-13.88-14.16-15.84-11.57-28.4-2.62-5.6-8.5-4.95-12.62-8.41-9.88-8.3-11.64-24.85-25.25-29.449-1.07-3.831-3.31-6.51-4.2-10.521-9.83-5.15-19.23-10.71-25.7-19.21a39.655 39.655 0 0 1 -4.8-8.14c-11.71-3.41-36.28-17.87-36.82-29.45-.28-6.181 6.11-15.081 10.52-16.821z" fill="#fff5b4"/><path d="m55.35 362.58c.54 11.58 25.11 26.04 36.82 29.45 1.32 3 2.93 5.69 4.8 8.14l-.06.05c-2.48-3.21-5-6.14-7.9-8.19-3.72-2.62-8.73-2.16-12.62-4.2-9.86-5.18-17.39-14.89-23.14-23.14v-5.26c3.56-4.85 6.51-10.32 10.52-14.73 23.53-4.19 42.92 22.37 66.26 6.32 6.18.83 7.28 6.74 12.62 8.41 2.89-2.44-1.84-5.97 1.05-8.41 9.46-1.42 13.99-7.75 26.3-6.32 6.8-8.16 17.37-6.31 25.24-13.67 4.63.19 8.25 4.19 12.62 4.21 7.84.04 13.67-7.85 22.09-8.42 10.38-.69 15.64 7.21 28.4 5.26 2.17-2.38 2.15-6.96 4.2-9.46 19.91-.04 35.06-8.43 53.65-3.16 13.08 3.71 19.21 19.19 25.24 31.56 4.95 6.21 14.64 10.94 21.03 18.93 5.73 7.16 8.58 18.46 13.68 27.34 1.63 2.85 5.24 5.13 6.31 7.37 2.01 4.21.47 8.88 2.1 13.67 2.89 8.51 15.79 18.72 13.67 28.4-1.64 7.51-11.65 8.75-14.72 13.67 2.9 13.77-5.06 16.67-10.52 22.09 4.08 10.6 7.83 27.47-1.05 33.649-12.71 8.86-19.06-7.87-33.66-6.31-4.68-3.73-6.66-10.17-9.46-15.771-.82-.239-2.08-.029-2.11-1.05-6.81-1.01-8.05 7.771-14.72 9.46-2.65.67-6.08-1.029-9.47-1.05-3.94-.02-9.08.561-14.64 1.48 7.96-1.91 15.85-4.28 24.11-2.53 6.82-1.59 6.32-10.51 16.83-8.42 4.22 4.2 5.24 11.59 9.46 15.78 13.93-1.091 17.66 12.909 32.61 7.359 7.73-8.479 4.85-23.45 0-32.6 1.38-5.28 8.04-5.29 10.52-9.471-7.27-16.55 12.86-16.149 14.72-27.34 1.46-8.79-11.69-17.51-13.67-28.4-2.29-12.54-3.47-11.11-8.42-19.99-10.44-18.72-16.57-35.16-33.65-44.17-4.18-14.4-13.19-23.98-24.19-31.56-6.23 2.78-18.68-6.64-22.09 0-9.83-2.33-16.53 3.31-30.5 2.11-1.63 2.93-1.24 7.88-4.21 9.46-9.87 1.82-20.38-2.96-29.45-5.25-7.21 3.66-14.36 7.38-23.14 9.46-4.76-.15-5.14-4.68-10.52-4.21-7.88 5.8-20.21 7.14-27.34 13.68-9.59-2.84-14.23 4.37-23.14 5.26-2.91 2.92 1.75 6.88-2.11 8.41-7.5.14-7.87-6.85-13.67-8.41-19.46 20.01-47.16-13.04-64.16-6.31-4.41 1.744-10.8 10.644-10.52 16.824z" fill="#fff"/><g fill="none" stroke="#231f20"><path d="m553.6 80.17h262.89v171.24h-261.32m-20.99-182.77c-4.949-2.21-8.26-6.19-8.26-10.73 0-6.94 7.72-12.57 17.24-12.57 9.53 0 17.25 5.63 17.25 12.57 0 4.44-3.15 8.34-7.92 10.57-2.681 1.26-5.891 2-9.33 2-3.29 0-6.36-.67-8.98-1.84z" stroke-width="7"/><path d="m534.18 68.29v.35l.51 302.34m17.8-303.32v303.32m107.03-289.16-.36 81.69h-106.04" stroke-width="7"/><g stroke-width="2"><path d="m611.9 105.78-3.13-1.67-.42-.22-.42.22-3.14 1.67m7.11 0 .31 1.8 1.31-.94zm2.22-6.86-2.56 2.52-.34.33.08.46.6 3.55m3.5-8.13-1.28 1.27 1.78.26z"/><path d="m608.35 94.69 1.57 3.21.2.43.47.07 3.53.52m-5.77-4.23.81-1.66h-1.62z"/><path d="m602.58 98.92 3.53-.52.47-.07.2-.43 1.57-3.21m-7.05 2.96-.51 1.53 1.79-.26zm3.49 8.13.6-3.55.09-.46-.34-.33-2.56-2.52m.6 7.72 1.31.95.3-1.81zm-12.92 16.7-3.13-1.67-.43-.22-.42.22-3.13 1.67m7.11 0 .3 1.8 1.31-.94zm2.21-6.86-2.56 2.52-.34.33.09.46.6 3.55m3.99-6.6-.5-1.53-1.28 1.27z"/><path d="m586.7 112.25 1.57 3.21.2.43.47.07 3.53.52m-5.77-4.23.81-1.66h-1.62zm-5.77 4.23 3.53-.52.47-.07.21-.43 1.56-3.21m-7.05 2.96-.5 1.53 1.78-.26zm3.5 8.13.6-3.55.08-.46-.34-.33-2.56-2.52m2.22 6.86-1.62.86 1.31.94zm50.57-5.84-2.84-1.51-.42-.23-.43.23-2.83 1.51m6.52 0 .31 1.81 1.31-.95z"/><path d="m635.75 111.2-2.32 2.29-.33.33.08.46.54 3.22m3.32-7.57-1.29 1.27 1.79.26z"/><path d="m630.46 107.32 1.42 2.91.21.43.47.07 3.19.47m-5.29-3.88.81-1.66h-1.62zm-5.3 3.88 3.2-.47.47-.07.21-.43 1.42-2.91m-5.3 3.88-1.29-1.27-.5 1.53zm2.04 6.3.54-3.22.08-.46-.34-.33-2.32-2.29m2.04 6.3-1.63.86 1.32.95zm-5.06 10.64-1.75-.93-.42-.22-.43.22-1.73.93m4.33 0 .3 1.8 1.31-.94zm1.34-4.18-1.43 1.41-.34.33.09.46.34 1.98m2.63-5.45-1.29 1.27 1.79.26z"/><path d="m619.97 121.39.87 1.79.2.42.48.07 1.96.29m-3.51-2.57.81-1.66h-1.62z"/><path d="m616.46 123.96 1.96-.29.47-.07.21-.42.87-1.79m-3.51 2.57-1.29-1.27-.5 1.53zm1.35 4.18.33-1.98.08-.46-.33-.33-1.43-1.41m1.35 4.18-1.62.86 1.31.94zm-6.75 19.38-3.38-2.02-.46-.28-.46.28-3.4 2.02m7.7 0 .29 1.88 1.35-.91zm2.51-8.45-2.95 3.25-.29.32.06.42.67 4.46"/><path d="m614.68 137.84-1.11 1.23 1.64.27z"/><path d="m607.22 134.01 1.68 3.87.2.45.48.08 3.99.66m-6.35-5.06.82-1.89h-1.65z"/><path d="m600.86 139.07 3.98-.66.49-.08.2-.45 1.69-3.87m-7.47 3.83-.53 1.5 1.64-.27zm3.61 9.68.68-4.46.06-.42-.29-.32-2.95-3.25m2.5 8.45-1.63.97 1.35.91z"/></g><path d="m287.88 502.9c-2.82.689-5.64 1.31-8.5 1.68-.22.03-.45.05-.67.07" stroke-width="7"/><path d="m53.25 364.69c5.75 8.25 13.28 17.96 23.14 23.14 3.89 2.04 8.9 1.58 12.62 4.2 2.9 2.05 5.42 4.98 7.9 8.19 6.37 8.2 12.57 18.26 24.71 20.21.56 3.65 2.81 5.6 3.15 9.47 13.05 7.29 18.37 22.3 28.4 32.6 4.65.96 8.69 2.54 10.52 6.31-2.5 15.83 12.24 14.41 11.57 28.4 13.49 4.08 12.57 13.58 22.08 17.88 14.86 6.72 29.94-6.31 48.9-4.04 1.55.19 3.13.48 4.74.891 5.75-1.971 16.75-4.99 27.73-7.29 3.1-.65 6.2-1.25 9.17-1.75 5.56-.92 10.7-1.5 14.64-1.48 3.39.021 6.82 1.72 9.47 1.05 6.67-1.689 7.91-10.47 14.72-9.46.03 1.021 1.29.811 2.11 1.05 2.8 5.601 4.78 12.04 9.46 15.771 14.6-1.561 20.95 15.17 33.66 6.31 8.88-6.18 5.13-23.05 1.05-33.649 5.46-5.42 13.42-8.32 10.52-22.09 3.07-4.92 13.08-6.16 14.72-13.67 2.12-9.681-10.78-19.891-13.67-28.4-1.63-4.79-.09-9.46-2.1-13.67-1.07-2.24-4.68-4.52-6.31-7.37-5.1-8.88-7.95-20.18-13.68-27.34-6.39-7.99-16.08-12.72-21.03-18.93-6.03-12.37-12.16-27.85-25.24-31.56-18.59-5.27-33.74 3.12-53.65 3.16-2.05 2.5-2.03 7.08-4.2 9.46-12.76 1.95-18.02-5.95-28.4-5.26-8.42.57-14.25 8.46-22.09 8.42-4.37-.02-7.99-4.02-12.62-4.21-7.87 7.36-18.44 5.51-25.24 13.67-12.31-1.43-16.84 4.9-26.3 6.32-2.89 2.44 1.84 5.97-1.05 8.41-5.34-1.67-6.44-7.58-12.62-8.41-23.34 16.05-42.73-10.51-66.26-6.32-4.01 4.41-6.96 9.88-10.52 14.73m0-9.183v9.18m353.4 167.23c-.12 3.979 2.06 5.66 5.26 6.31.47-3.029 3.72-3.29 3.15-7.359-3.03.129-6.88-.571-8.41 1.049zm17.88 16.83c2.78.38 3.78 2.529 3.15 6.31 3.92 1.33 6.891.59 9.471 0 .04-4.59-.91-8.2-2.101-11.569-5.94-.681-10.29.229-10.52 5.259zm390.21 102.02c1.54-1.66 2.17-8.35-2.101-7.359-.579 3.849-1.269 5.639 2.101 7.359zm-10.52 14.73c4.641.95 10.101.12 10.521 7.359-4.611 2.421-10.921-1.379-10.521-7.359zm0 0c-11.95-6.2-31.29-6.721-48.38-8.41-12.51 3.63-26.87 5-41.02 2.1-2.98-.609-6.12-3.5-9.46-4.21-14.721-3.14-33.83 9.17-45.23-4.21-9.89 4.49-24.3 12.08-37.87 6.32-4.479-8.57-7.229-14.82-16.819-16.83-9.391-1.98-24.221 3.73-26.301-10.52 4.69-3.101 6.15 4.68 9.471 6.31-.601-16.45-31.83-7.79-37.87 2.1-10.25-1.989-18.521-5.96-25.15-11.569a44.14 44.14 0 0 1 -1.899-1.7c-7.351-6.89-12.53-15.97-16.07-26.7-2.75 1.11-3.44 4.28-3.16 8.42-6.59-5.67-16.4-8.13-18.93-17.88-19.08-1.95-28.46-13.61-35.761-27.35 7.29-11.641 20.74-17.13 29.45-27.341 13.75 2.15 20.101 3.061 33.66 0 2.16-1.699 2.65-5.069 4.21-7.369 12.87 1.31 20.811-2.32 27.34-7.36 3.86-.35 5.851 1.17 8.42 2.1 10.5-2.96 23.21-5.68 34.71-3.149 6.65 1.47 11.08 7.87 15.86 12.34 1.37 1.3 2.78 2.43 4.28 3.24 1.27.689 2.609 1.14 4.05 1.25 4.13 1.68.36-4.54 3.15-4.21 4.46.1 5.43 3.689 7.359 6.31 13.431-4.96 21.24 13.67 32.61 16.83 5.3 1.47 11.62-1.11 16.83 0 4.31.92 8.729 6.35 13.67 7.36 3.04.63 5.52.819 7.63 1.06.35.04.68.09 1.01.13 3.41.48 5.82 1.37 8.19 5.12 5.51-.09 6.78-4.439 10.52-6.31 9.25.22 6.771 12.159 18.931 9.47-.19 10.36 11.18 9.15 15.779 14.72-1.72 7.4-11.069 7.17-13.68 13.681 9.52 3.89 13.68-6.65 21.04-8.421.27.74.57 1.45.9 2.131l.27.51c6.75 12.67 25.37 13.46 32.49 25.76 13.2-2.8 24.229 12.44 22.08 25.24-1.08 6.447-10.68 12.407-6.31 21.037" stroke-width="7"/><path d="m603.42 525.33c-12.58-9.01-29.06-16.12-49.52-8.13-4.391.88-4.971-2.05-8.42-2.11-6.171 5.78-15.4 9.15-26.29 7.37-3.45 1.46-2.421 7.39-6.311 8.41-9.83-.15-20.32 4.25-30.5-1.05-11.189 7.39-20.76 16.399-30.5 25.239 4.851 16 20.8 25.95 36.811 27.351-2.65 9.12 11.359 10.25 14.72 16.83.04-3.471-.43-7.45 3.16-7.37.41.29.8.59 1.17.92 7.71 6.54 9.069 19.45 15.95 26.83.569.61 1.17 1.18 1.81 1.7h.09c11.29-.101 12.45 9.939 24.101 9.47 8.39-9.88 37.159-18.47 43.119 0-.64 1.46-4.04.16-4.199 2.1 5.069 1.94 13.31.721 19.979 1.051 5.95 3.869 12.46 7.18 13.67 15.779 12.26 6.75 27.73-1.52 37.87-6.31 8.61 10.05 31.43 5.68 46.28 4.21 8.109 5.38 24.359 7.32 35.76 6.31 4.88-.43 8.84-3.949 13.67-4.21 2.87-.149 5.771 1.78 8.42 2.11 11.95 1.439 25.53-.37 37.86 5.25-3.72-9.021 6.7-13.061 7.36-19.98.859-8.92-6.79-16.54-13.671-22.09-.8.94-3.359.9-7.359 1.05-6.33-13.779-28.78-11.46-32.49-27.859-.05-.17-.08-.351-.12-.53-.05.01-.1.01-.149.021-8.08 1.13-15.86 15.449-24.04 6.29 2.279-6.841 11.18-7.061 13.67-13.681-6.53-3.28-14.96-4.66-15.771-13.67-3.79.37-5.069 1.61-8.42 0 .05-4.95-3.439-6.38-6.31-8.41-6.15-.189-5.36 6.561-12.62 5.261-4.08-.711-5.141-4.45-8.19-6.181-.069-.05-.149-.09-.22-.13h-10.52c-6.35-9.479-20.619-3.59-30.5-7.37-9.59-3.66-13.199-13.17-22.09-16.83h-8.42c-3.01-1.54-3.939-5.16-7.359-6.31.21 3.01.13 5.74-3.15 5.26-1.29-1.11-2.64-2.229-4.05-3.35a106.19 106.19 0 0 0 -4.281-3.241z" stroke-width="7"/><path d="m585.45 628.69c-2.48-.33-1.95-3.66-5.26-3.16-.61 2.82 4.33 5.36 5.26 3.16zm227.19 38.91c.16-2.609-1.649-3.25-2.109-5.26-1.57.18-3.88-.37-4.2 1.05 2.309 1.2 3.489 3.52 6.309 4.21zm7.36 5.26c-8.41.34-5.67-9.12 0-3.15z" stroke-width="7"/></g><path clip-rule="evenodd" d="m.25.25h850.394v850.394h-850.394z" fill="none"/></svg>