<svg height="850.89" viewBox="0 0 850.89 850.89" width="850.89" xmlns="http://www.w3.org/2000/svg"><path d="m802.96 80.11v36.11h-151.68l-63.83-49.99h215.51z" fill="#ed1e29"/><path d="m802.96 116.22v49.36h-154.15l-.11-.17 36.01-23.01-33.43-26.18h150.12z" fill="#fff"/><path d="m648.81 165.58h154.15v42.7h-216.77l-.03-2.9 62.54-39.97z" fill="#231f20"/><path d="m587.45 66.23 63.83 49.99 33.43 26.18-36.01 23.01-62.54 39.97-.34-37.42 1.57-101.73z" fill="#58b947"/><path d="m587.39 66.18.06.05h-.06zm-2.51.05h2.51l-1.57 101.73zm.35 139.75.59-38.02.34 37.42z" fill="#fff"/><path d="m590.53 47.77c0 3.68-2.61 6.91-6.57 8.77-2.229 1.04-4.88 1.65-7.729 1.65-2.73 0-5.29-.55-7.45-1.52-4.11-1.83-6.86-5.13-6.86-8.9 0-5.76 6.41-10.43 14.311-10.43 7.898 0 14.298 4.67 14.298 10.43z" fill="#c8c8c8"/><path d="m568.78 56.67c2.16.97 4.72 1.52 7.45 1.52 2.85 0 5.5-.61 7.729-1.65v250.93h-14.77z" fill="#c8c8c8"/><path d="m542.55 323.92c.49-.35.97-.71 1.44-1.08-.391.42-.82.8-1.3 1.14-.05-.02-.09-.04-.14-.06zm-18.06 6.13c-1.431 1.29-1 3.73-1.521 9.11-.439.04-.93.12-1.47.22l-.04-.22c.021-4.03-.57-8.67 1.51-10.62 11.431 2.29 10.7-8.36 19.58-4.62-4.739 3.32-10.629 5.49-18.059 6.13zm-3.03-40.95c-10.58-26.76-7.38-56.05-13.55-83.36 3.1 5.08 7.58 9.58 9 15.1-5.641 1.61-2.97-5.11-6.07-6.06 6.51 24.59 1.65 49.75 10.62 72.81 15.86 2.34 18.35 18.04 33.36 21.23-2.73 5.55-6.2 10.37-10.83 14.02 3.54-3.73 4.22-10.33 9.33-12.51-13.42-4.28-17.28-18.11-31.86-21.23z"/><path d="m521.5 339.38c-3.26.64-8.08 2.19-12.17-.22-.76 10.77-2.33 20.71-4.99 29.95l-1.53-.55c2.69-9.35 4.381-19.38 5-30.92 5.94 2.36 9.46-.74 13.65 1.52zm-18.75-150.39h3.54c-.87 2.06-1.33 3.97-1.46 5.75-.49-1.42-1.01-2.83-1.57-4.23zm2.08 5.75c1.24 3.62 2.25 7.29 3.08 11-2-3.28-3.42-6.8-3.08-11zm-2.08-5.75.51 1.52c-30.45 0-69.08-.84-106.14-1.52zm-10.11 206.28c8.2 29.94-4.72 43.63-7.59 71.29-9.47 1.49-15.95 5.561-20.56 11.061 1.939-3.54 3.729-7.24 5.399-11.061 5-.069 7.551-2.56 13.65-1.52 3.21-25.97 15.69-39.92 7.59-68.25 4.94-9.31 8.86-18.4 11.68-28.23l1.53.55c-2.679 9.38-6.479 18.05-11.699 26.16zm-31.85 280.6c5.32-5 8.19-.68 15.17 0-1.57 6.29-2.37 15.79 2.44 22.03l-2.44-.801c-.6-1.449-5.61-15.06-1.52-18.189-4.2-5.22-9.261-4.3-15.171-1.53-.43-1.64-.5-2.899-.6-3.89.641.81 1.341 1.61 2.121 2.38zm3.69-198.23c-1.73 3.141-3.58 6.16-5.591 9.021 1.501-3.261 3.311-6.321 5.591-9.021z"/><path d="m456.61 670.55c1.63.62 1.89 1.48 2.06 2.94-.77-.96-1.45-1.94-2.06-2.94zm19.35 26.55 2.44.801c.189.25.39.489.59.72-17.15 2.32-30.53-3.271-42.471 0-4.55 1.24-7.939 3.97-10.85 7.189l-.15-.14c2.89-3.13 5.9-6.13 9.48-8.57zm-45.5-65.22c-1.52-7.07-8.55-8.64-9.11-16.68l.25-.061c2.63 12.11 17.65 14.931 24.03 24.33 6.09 9 4.88 20.99 10.98 31.08-.78-.3-1.87-.53-3.41-.75-5.02-15.189-5.97-34.469-22.74-37.919zm-7.59-43.98c2.78-21.801 6.03-41.641 7.59-60.67a43.811 43.811 0 0 1 9.09-9.101c3.17.89 4.91 3.19 7.59 4.55 3.23-6.229 4.67-21.989 6.061-28.819a74.972 74.972 0 0 0 5.68-7.181c-5.479 11.94-6.689 26.69-10.22 37.521-3.88-.181-5.32-2.79-7.59-4.55-4.44 1.109-6.521 4.6-9.09 7.58 1.21 20.319-9.07 32.119-4.561 59.149-8.79 7.93-15.2-.33-27.3 3.04l-.33-.08c.11-.47.22-.95.33-1.439 11.36-2.59 13.25 1.33 22.75 0z"/><path d="m395.57 604.58c7.43 4.21 19.91 3.36 25.78 9.1.06.5.15.99.25 1.46l-.25.061c-6.38-5.75-18.88-5.391-27.29-9.101 1.98-5.5 4.26-10.729 5.73-16.76l.33.08c2.27 10.05-1.5 8.45-4.55 15.16zm-34.98-415.59h-7.49c-15.4-.59-1.14-.57 7.49 0zm-15.07 1.52c3.9-.14.65.15 4.54 0 .05 1.02-3.19.7-7.26 0z"/><path d="m521.46 339.16c-4.19-2.26-7.71.84-13.65-1.52-.619 11.54-2.31 21.57-5 30.92-2.819 9.83-6.739 18.92-11.68 28.23 8.101 28.33-4.38 42.28-7.59 68.25-6.1-1.04-8.65 1.45-13.65 1.52-1.67 3.82-3.46 7.521-5.399 11.061-.01.01-.01.02-.01.02-2.28 2.7-4.091 5.761-5.591 9.021 0 .01 0 .01-.01.02a74.815 74.815 0 0 1 -5.68 7.181c-1.391 6.83-2.83 22.59-6.061 28.819-2.68-1.359-4.42-3.66-7.59-4.55a43.787 43.787 0 0 0 -9.09 9.101c-1.56 19.029-4.81 38.869-7.59 60.67-9.5 1.33-11.39-2.591-22.75 0-.11.489-.22.97-.33 1.439-1.47 6.03-3.75 11.26-5.73 16.76 8.41 3.71 20.91 3.351 27.29 9.101.56 8.04 7.59 9.609 9.11 16.68 16.771 3.45 17.72 22.73 22.74 37.92 1.54.22 2.63.45 3.41.75.609 1 1.29 1.98 2.06 2.94.1.99.17 2.25.6 3.89 5.91-2.77 10.971-3.689 15.171 1.53-4.091 3.13.92 16.74 1.52 18.189h-40.96c-3.58 2.44-6.59 5.44-9.48 8.57-5.37 5.8-10.34 12-17.81 15.7-12.88-4.101-27.35-2.95-37.93 6.07-2.26-2.29-6.79-2.301-6.06-7.591-8.22 6.551-11.24 1.92-21.23 0-5.05.521-5.38 5.74-9.11 7.591-8.13-10.721-27.04-15.53-28.7-28.841-.06-.489-.1-.989-.11-1.5-4.44.4-4.66-3.42-9.1-3.029-1.75 3.819-2.45 8.67-6.07 10.62-3.08-4-9.27-4.881-15.17-6.07-2.58 3.99-7.21 5.939-12.13 7.59-4.67-4.04-10.17-8.13-15.11-12.69-.09-.77-.11-1.59-.06-2.479-1.37-.41-2.68-.9-3.91-1.46-5.85-6.29-10.11-13.59-9.74-22.811-6.99-5.85-15.57-8.329-20.23-12.229-1.07-.89-1.93-1.85-2.52-2.94-.99-4.88-6.1-6.899-3.17-10.55.04-.02.09-.04.14-.06-.01-.021-.03-.03-.05-.05.39-.46.9-.95 1.57-1.471-10.02-9.71-22.98-16.47-33.37-25.79 3.17-3.699 2.16-3.229 1.52-9.1-9.49-6.19-20.3-11.04-31.86-15.16-.28-4.29 5.7-3.54 1.51-7.59-6.49-3.6-11.6-1.82-19.72-1.521 4.09-4.659 3-10.149-1.5-9.09 16.81-17.16-2.54-40.01-15.17-53.09-.34-4.88 2.68-6.42 1.51-12.13-2.37-5.21-10.38-4.79-12.13-10.63 6.58-10.37-7.68-17.12-1.52-27.29-7.25-6.8-11.57 2.07-18.2-4.561.54-10.069 11.12-10.109 13.65-18.199-4.28-1.79-4.61-7.521-6.06-12.13 2.92-4.16 8.81-5.351 12.31-8.931.5-.51.94-1.06 1.33-1.68-4.94-.63-3.9-7.22-6.07-10.62 6.57-3.61 14.92-11.5 16.59-19.67.03-.02.07-.04.1-.05.35-1.21.37-2.1.2-2.8v-.01c0-2.13-.52-4.25-1.71-6.29 7.79-5.97 17.76-5.14 30.33-4.55v-127.4h28.82v-60.68h173.22c4.07.7 7.31 1.02 7.26 0-3.89.15-.64-.14-4.54 0h-2.72c-2.54-.44-5.4-1.02-7.98-1.52h10.7c3.12-.41 17.07 1.5 20.19 1.09 1.4-.47-1.31-.83-5.12-1.09h36.53c37.06.68 75.689 1.52 106.14 1.52.561 1.4 1.08 2.81 1.57 4.23-.34 4.2 1.08 7.72 3.08 11 6.17 27.31 2.97 56.6 13.55 83.36 14.58 3.12 18.44 16.95 31.86 21.23-5.11 2.18-5.79 8.78-9.33 12.51-.471.37-.95.73-1.44 1.08-8.88-3.74-8.149 6.91-19.58 4.62-2.08 1.95-1.49 6.59-1.51 10.62z" fill="#fff5b4"/><path d="m365.71 190.08c-3.12.41-17.07-1.5-20.19-1.09h-10.7c-1.79-.35-3.44-.66-4.76-.84 19.96.03 43.18.4 67.06.84h-36.53c-8.63-.57-22.89-.59-7.49 0h7.49c3.81.26 6.52.62 5.12 1.09zm59.96 515.73c-5.58 6.16-9.44 14.12-16.45 17.08-13.28-2.109-29.99-4.25-37.92 6.07-5.29-.27-7.63-3.5-9.09-7.59-5.97 7.13-10.4 2-18.21 0-5.56.49-7.88 4.25-9.1 9.1-.35-.31-.84-.97-1.4-1.7l-.12-1.329c3.73-1.851 4.06-7.07 9.11-7.591 9.99 1.92 13.01 6.551 21.23 0-.73 5.29 3.8 5.301 6.06 7.591 10.58-9.021 25.05-10.171 37.93-6.07 7.47-3.7 12.44-9.9 17.81-15.7zm-95.61-517.66c-1.01-.01-2.02-.01-3.01-.01.24-.28 1.37-.23 3.01.01zm-25.38 510.45c1.66 13.311 20.57 18.12 28.7 28.841l.12 1.329c-1.7-2.189-4.16-5.069-6.18-1.329-3-13.33-25.95-14.311-22.75-28.82z"/><path d="m274.23 698.62c5.9 1.189 12.09 2.07 15.17 6.07 3.62-1.95 4.32-6.801 6.07-10.62 4.44-.391 4.66 3.43 9.1 3.029.01.511.05 1.011.11 1.5l-.11.021c-3.77.24-4.7-2.38-7.58-3.04-2.51 3.57-3.31 8.84-7.59 10.63-7.67-7.62-18.29-5.66-24.27 1.51a28.38 28.38 0 0 0 -3.04-1.489l.01-.021c4.92-1.65 9.55-3.6 12.13-7.59zm-12.13 7.59-.01.021c-6.51-2.771-14.28-4.261-15.1-12.711 4.94 4.56 10.44 8.65 15.11 12.69zm-15.17-15.17c-.05.89-.03 1.71.06 2.479-1.37-1.279-2.71-2.579-3.97-3.939 1.23.56 2.54 1.05 3.91 1.46zm-15.17-22.76c-2.88-7.24-18.24-7.311-21.04-13.12l2.33-.62c4.66 3.9 13.24 6.38 20.23 12.229-.37 9.221 3.89 16.521 9.74 22.811-7.45-3.4-12-9.7-11.26-21.3zm-21.04-13.12c-.47-1-.58-2.16-.19-3.561.59 1.091 1.45 2.051 2.52 2.94z"/><path d="m210.53 651.6c-1.89-2.76-10.3-7.609-3.17-10.55-2.93 3.65 2.18 5.67 3.17 10.55zm-3.08-10.66c.02.02.04.029.05.05-.05.02-.1.04-.14.06.03-.03.06-.07.09-.11zm-37.89-451.95h165.26c2.58.5 5.44 1.08 7.98 1.52h-173.22z"/><path d="m175.65 613.68c10.39 9.32 23.35 16.08 33.37 25.79-.67.521-1.18 1.011-1.57 1.471-8.98-10.7-22.25-17.131-33.32-25.74-4.04-3.9 2.92-2.17 3.04-6.061-7.88-8.819-18.27-15.109-33.37-16.689-1.21-5.25 1.68-6.41 3.02-9.101-6.89-3.199-11.32-2.109-19.72-1.52-2.2-6.25 2.77-5.68-3.02-10.61 15.83-16.569-.62-39.08-14.66-51.37.65-.409 1.01-.97 1.01-1.72 12.63 13.08 31.98 35.93 15.17 53.09 4.5-1.06 5.59 4.431 1.5 9.09 8.12-.3 13.23-2.079 19.72 1.521 4.19 4.05-1.79 3.3-1.51 7.59 11.56 4.12 22.37 8.97 31.86 15.16.64 5.869 1.65 5.399-1.52 9.099zm-37.92-236.61c2.78-31.07 1.49-66.21 1.32-100.24-.05-9.17-.02-18.26.2-27.16h28.81v-60.68h1.5l.02 1.52v60.68h-28.82v127.4c-12.57-.59-22.54-1.42-30.33 4.55 1.19 2.04 1.71 4.16 1.71 6.29-.61-2.56-3.8-2.54-3.23-6.29 6.94-7.05 17.17-7.2 28.82-6.07zm-25.59 12.37c.17.7.15 1.59-.2 2.8-.03.01-.07.03-.1.05.2-.95.3-1.9.3-2.85zm-12.33 34.65c-3.3-3.27-5.28-7.86-6.07-13.65 11.3-.79 9.72-14.45 18.1-18.15-1.67 8.17-10.02 16.06-16.59 19.67 2.17 3.4 1.13 9.99 6.07 10.62-.39.62-.83 1.17-1.33 1.68z"/><path d="m111.94 506c1.17 5.71-1.85 7.25-1.51 12.13 0 .75-.36 1.311-1.01 1.72-.69-.6-1.36-1.17-2.03-1.72 8.78-10.1-3.12-16.83-9.1-21.24 6.74-10.729-7.09-17.939-1.52-27.29-4.85-4.54-8.43-.93-16.68-1.52-4.96-11.1 6.73-15.76 12.14-21.24-2.86-3.71-5.15-7.99-6.07-13.649 3.69-3.891 7.38-7.78 13.65-9.101l.18.17c-3.5 3.58-9.39 4.771-12.31 8.931 1.45 4.609 1.78 10.34 6.06 12.13-2.53 8.09-13.11 8.13-13.65 18.199 6.63 6.631 10.95-2.239 18.2 4.561-6.16 10.17 8.1 16.92 1.52 27.29 1.75 5.839 9.76 5.419 12.13 10.629z"/><g fill="none"><g stroke="#231f20"><path d="m587.45 66.23h215.51v142.05h-216.77m-1.31-142.05h2.51m-18.61-9.56c-4.11-1.83-6.86-5.13-6.86-8.9 0-5.76 6.41-10.43 14.311-10.43 7.899 0 14.3 4.67 14.3 10.43 0 3.68-2.61 6.91-6.57 8.77-2.229 1.04-4.88 1.65-7.729 1.65-2.732 0-5.292-.55-7.452-1.52z" stroke-width="7"/><path d="m568.78 56.38v.29l.41 250.8m14.77-251.61v251.61m3.43-241.29.06.05 63.83 49.99 33.43 26.18-36.01 23.01-62.54 39.97-.93.6m63.58-40.4h153.34m-151.1-49.36h150.35" stroke-width="7"/><g stroke-width="7.163"><path d="m458.88 486.68c-5.479 11.94-6.689 26.69-10.22 37.521-3.88-.181-5.32-2.79-7.59-4.55-4.44 1.109-6.521 4.6-9.09 7.58 1.21 20.319-9.07 32.119-4.561 59.149-8.79 7.93-15.2-.33-27.3 3.04 2.27 10.05-1.5 8.45-4.55 15.16 7.43 4.21 19.91 3.36 25.78 9.1.06.5.15.99.25 1.46 2.63 12.11 17.65 14.931 24.03 24.33 6.09 9 4.88 20.99 10.98 31.08.609 1 1.29 1.98 2.06 2.94.64.81 1.34 1.609 2.12 2.38 5.32-5 8.19-.68 15.17 0-1.57 6.29-2.37 15.79 2.44 22.03.189.25.39.489.59.72-17.15 2.32-30.53-3.271-42.471 0-4.55 1.24-7.939 3.97-10.85 7.189-5.58 6.16-9.44 14.12-16.45 17.08-13.28-2.109-29.99-4.25-37.92 6.07-5.29-.27-7.63-3.5-9.09-7.59-5.97 7.13-10.4 2-18.21 0-5.56.49-7.88 4.25-9.1 9.1-.35-.31-.84-.97-1.4-1.7-1.7-2.189-4.16-5.069-6.18-1.329-3-13.33-25.95-14.311-22.75-28.82-3.77.24-4.7-2.38-7.58-3.04-2.51 3.57-3.31 8.84-7.59 10.63-7.67-7.62-18.29-5.66-24.27 1.51a28.38 28.38 0 0 0 -3.04-1.489c-6.51-2.771-14.28-4.261-15.1-12.711-.09-.77-.11-1.59-.06-2.479-1.37-.41-2.68-.9-3.91-1.46-7.45-3.4-12-9.7-11.26-21.3-2.88-7.24-18.24-7.311-21.04-13.12-.47-1-.58-2.16-.19-3.561.59 1.091 1.45 2.051 2.52 2.94 4.66 3.9 13.24 6.38 20.23 12.229-.37 9.221 3.89 16.521 9.74 22.811 1.26 1.36 2.6 2.66 3.97 3.939 4.94 4.561 10.44 8.65 15.11 12.69 4.92-1.65 9.55-3.6 12.13-7.59 5.9 1.189 12.09 2.07 15.17 6.07 3.62-1.95 4.32-6.801 6.07-10.62 4.44-.391 4.66 3.43 9.1 3.029.01.511.05 1.011.11 1.5 1.66 13.311 20.57 18.12 28.7 28.841 3.73-1.851 4.06-7.07 9.11-7.591 9.99 1.92 13.01 6.551 21.23 0-.73 5.29 3.8 5.301 6.06 7.591 10.58-9.021 25.05-10.171 37.93-6.07 7.47-3.7 12.44-9.9 17.81-15.7 2.89-3.13 5.9-6.13 9.48-8.57h40.96c-.6-1.449-5.61-15.06-1.52-18.189-4.2-5.22-9.261-4.3-15.171-1.53-.43-1.64-.5-2.899-.6-3.89-.17-1.46-.43-2.32-2.06-2.94-.78-.3-1.87-.53-3.41-.75-5.021-15.189-5.97-34.47-22.74-37.92-1.52-7.07-8.55-8.64-9.11-16.68-6.38-5.75-18.88-5.391-27.29-9.101 1.98-5.5 4.26-10.729 5.73-16.76.11-.47.22-.95.33-1.439 11.36-2.591 13.25 1.33 22.75 0 2.78-21.801 6.03-41.641 7.59-60.67a43.811 43.811 0 0 1 9.09-9.101c3.17.89 4.91 3.19 7.59 4.55 3.23-6.229 4.67-21.989 6.061-28.819a74.371 74.371 0 0 0 5.689-7.2c0 .01 0 .01 0 0 2.011-2.86 3.86-5.88 5.601-9.04-.01.01-.01.02 0 0 1.939-3.54 3.729-7.24 5.399-11.061 5-.069 7.551-2.56 13.65-1.52 3.21-25.97 15.69-39.92 7.59-68.25 4.94-9.31 8.86-18.4 11.68-28.23 2.69-9.35 4.381-19.38 5-30.92 5.94 2.36 9.46-.74 13.65 1.52.021-4.03-.57-8.67 1.51-10.62 11.431 2.29 10.7-8.36 19.58-4.62.05.02.09.04.141.06.479-.34.909-.72 1.3-1.14 3.54-3.73 4.22-10.33 9.33-12.51-13.42-4.28-17.28-18.11-31.86-21.23-10.58-26.76-7.38-56.05-13.55-83.36-.83-3.71-1.84-7.38-3.08-11-.49-1.42-1.01-2.83-1.57-4.23-30.45 0-69.08-.84-106.14-1.52-23.88-.44-47.1-.81-67.06-.84m134.422 289.491c-2.28 2.7-4.091 5.761-5.591 9.021"/><path d="m360.59 188.99h145.7c-.87 2.06-1.33 3.97-1.46 5.75-.34 4.2 1.08 7.72 3.08 11 3.1 5.08 7.58 9.58 9 15.1-5.641 1.61-2.97-5.11-6.07-6.06 6.51 24.59 1.65 49.75 10.62 72.81 15.86 2.34 18.35 18.04 33.36 21.23-2.73 5.55-6.2 10.37-10.83 14.02-.471.37-.95.73-1.44 1.08-4.74 3.32-10.63 5.49-18.06 6.13-1.431 1.29-1 3.73-1.521 9.11-.439.04-.93.12-1.47.22-3.26.64-8.08 2.19-12.17-.22-.76 10.77-2.33 20.71-4.99 29.95-2.68 9.38-6.479 18.05-11.7 26.16 8.2 29.94-4.72 43.63-7.59 71.29-9.47 1.49-15.95 5.561-20.56 11.061m-103.899-288.631c-8.63-.57-22.89-.59-7.49 0z"/><path d="m112.14 389.43c-.61-2.56-3.8-2.54-3.23-6.29 6.94-7.05 17.17-7.2 28.82-6.07 2.78-31.07 1.49-66.21 1.32-100.24-.05-9.17-.02-18.26.2-27.16h28.81v-60.68h177.46c3.12-.41 17.07 1.5 20.19 1.09 1.4-.47-1.31-.83-5.12-1.09"/><path d="m342.8 190.51h-173.22v60.68h-28.82v127.4c-12.57-.59-22.54-1.42-30.33 4.55 1.19 2.04 1.71 4.16 1.71 6.3 0 .95-.1 1.9-.3 2.85-1.67 8.17-10.02 16.06-16.59 19.67 2.17 3.4 1.13 9.99 6.07 10.62-.39.62-.83 1.17-1.33 1.68-3.5 3.58-9.39 4.771-12.31 8.931 1.45 4.609 1.78 10.34 6.06 12.13-2.53 8.09-13.11 8.13-13.65 18.199 6.63 6.631 10.95-2.239 18.2 4.561-6.16 10.17 8.1 16.92 1.52 27.29 1.75 5.84 9.76 5.42 12.13 10.63 1.17 5.71-1.85 7.25-1.51 12.13 12.63 13.08 31.98 35.93 15.17 53.09 4.5-1.06 5.59 4.431 1.5 9.09 8.12-.3 13.23-2.079 19.72 1.521 4.19 4.05-1.79 3.3-1.51 7.59 11.56 4.12 22.37 8.97 31.86 15.16.64 5.87 1.65 5.4-1.52 9.1 10.39 9.32 23.35 16.08 33.37 25.79-.67.521-1.18 1.011-1.57 1.471-.03.04-.06.079-.09.109-2.93 3.65 2.18 5.67 3.17 10.55-1.89-2.76-10.3-7.609-3.17-10.55.04-.02.09-.04.14-.06-.01-.021-.03-.03-.05-.05-8.98-10.7-22.25-17.131-33.32-25.74-4.04-3.9 2.92-2.17 3.04-6.061-7.88-8.819-18.27-15.109-33.37-16.689-1.21-5.25 1.68-6.41 3.02-9.101-6.89-3.199-11.32-2.109-19.72-1.52-2.2-6.25 2.77-5.68-3.02-10.61 15.83-16.569-.62-39.08-14.66-51.37-.69-.6-1.36-1.17-2.03-1.72 8.78-10.1-3.12-16.83-9.1-21.24 6.74-10.729-7.09-17.939-1.52-27.29-4.85-4.54-8.43-.93-16.68-1.52-4.96-11.1 6.73-15.76 12.14-21.24-2.86-3.71-5.15-7.99-6.07-13.649 3.69-3.891 7.38-7.78 13.65-9.101-3.3-3.27-5.28-7.86-6.07-13.65 11.3-.79 9.72-14.45 18.1-18.15.03-.02.07-.04.1-.05.35-1.21.37-2.1.2-2.8"/><path d="m342.8 190.51c4.07.7 7.31 1.02 7.26 0-3.89.15-.64-.14-4.54 0zm-12.74-2.36c1.32.18 2.97.49 4.76.84 2.58.5 5.44 1.08 7.98 1.52m-12.74-2.36c-1.01-.01-2.02-.01-3.01-.01.24-.28 1.37-.23 3.01.01zm-160.48 2.36-.02-1.52-1.04-78.18m-29 166.26-.47-.24-63.32-32.62m34.7 273.92c0 .75-.36 1.311-1.01 1.72-6.15 3.94-38.67-4.51-49.16 18.21m415.7 159.04 2.44.8 72.91 23.82m-50.27-353.79 1.77.63 1.53.55 77.9 27.82m-173.02 325.96 24.16 39.43m-100-34.88.12 1.33 3.22 35.48m-121.8-110.2-1.87.49-2.33.62-61.53 16.29m354.07-480.94-.51-1.52-17.17-51.11"/></g></g><path d="m.25.25h850.394v850.394h-850.394z"/></g></svg>