<svg height="850.89" viewBox="0 0 850.89 850.89" width="850.89" xmlns="http://www.w3.org/2000/svg"><path d="m806.56 84.27v115.48h-211.02l-.03-3.46z" fill="#34a047"/><path d="m806.56 74.98v9.29l-211.05 112.02-.19-20.73 209.72-112.76v-1.34h1.52z" fill="#fbed24"/><path d="m805.04 62.8-209.72 112.76-1.051-114.1h210.771zm-139.65 19.92 4.61-4.49-6.36-.93-2.85-5.77-2.85 5.77-6.36.93 4.6 4.49-1.09 6.34 5.7-3 5.69 3zm-1.45 33.49 4.6-4.49-6.36-.92-2.85-5.77-2.85 5.77-6.36.92 4.6 4.49-1.08 6.34 5.69-2.99 5.7 2.99zm-21.11-16.02 4.6-4.49-6.37-.92-2.84-5.77-2.85 5.77-6.37.92 4.61 4.49-1.091 6.34 5.7-2.99 5.69 2.99zm-17.48-18.2 4.61-4.49-6.37-.92-2.85-5.77-2.851 5.77-6.359.92 4.6 4.49-1.08 6.34 5.69-2.99 5.7 2.99zm-.88 35.62 4.61-4.49-6.37-.92-2.85-5.77-2.841 5.77-6.369.92 4.609 4.49-1.09 6.34 5.69-2.99 5.699 2.99z" fill="#394ea1"/><path d="m741.38 786.12c-3.96 1.189-3.89-1.65-3.56-4.75h3.56z"/><path d="m736.64 774.25c1.221 3.99-3.699 1.85-5.939 2.38v-2.38z" fill="#fff"/><path d="m730.7 776.63c2.24-.53 7.16 1.61 5.939-2.38h-5.939zm7.12 0c-1.88 1.74-9.42 2.44-8.301-2.38 1.881-1.74 9.421-2.45 8.301 2.38z"/><path d="m723.58 789.68c-4.85-.29-4.1-6.18-5.93-9.5 1.529-1.63 5.149-1.17 8.31-1.18 2.22 3.54 3.71 10.16-2.38 10.68z" fill="#fff5b4"/><path d="m717.65 780.18c1.83 3.32 1.08 9.21 5.93 9.5 6.09-.52 4.6-7.14 2.38-10.68-3.16.01-6.78-.45-8.31 1.18 1.02-2.35 3.92-3.75 9.489-2.37 2.42 5.41 3.53 12.95-4.739 13.061-3.85-1.951-6.23-7.311-4.75-10.691z"/><path d="m716.46 765.94c3.021.13 2.8 4.43 1.19 5.939-3.02-.119-2.8-4.419-1.19-5.939z" fill="#fff5b4"/><path d="m717.65 771.88c1.609-1.51 1.83-5.81-1.19-5.939-1.61 1.519-1.83 5.819 1.19 5.939zm-1.19-7.12c4.87-1.39 4.771 8.25 1.19 8.311-4.87 1.379-4.77-8.261-1.19-8.311zm-29.67-99.69c1.27-5.34 10.36 1.979 7.12 4.75-3.17-.78-4.51-3.4-7.12-4.75z" fill="#fff"/><path d="m693.91 669.82c3.24-2.771-5.851-10.09-7.12-4.75 2.61 1.35 3.95 3.97 7.12 4.75zm-8.3-9.49c7.3-.18 11.34 2.89 11.859 9.49-1.05.52-2.12 1.04-2.37 2.37-6.579-.56-12.569-5.26-9.489-11.86z" fill="#fff5b4"/><path d="m676.11 654.39c-4.271-3.069-.73-6.58-3.561-10.68h3.561c-.71 4.42 3.04 7.51 0 10.68zm-6.11-576.16-4.61 4.49 1.09 6.34-5.69-3-5.7 3 1.09-6.34-4.6-4.49 6.36-.93 2.85-5.77 2.85 5.77zm-1.46 33.49-4.6 4.49 1.09 6.34-5.7-2.99-5.69 2.99 1.08-6.34-4.6-4.49 6.36-.92 2.85-5.77 2.85 5.77z" fill="#fff"/><path d="m636.95 616.42c4.26-2.47 12.83-.62 18.99-1.189-4.351 3.17-9.381 5.649-15.431 7.119-1.329-1.84-3.859-2.47-3.559-5.93zm1.19-13.06c-4.83 1.12-4.12-6.42-2.38-8.311 4.83-1.109 4.12 6.431 2.38 8.311z" fill="#fff5b4"/><path d="m658.31 614.04c-2.689 7.97-13.39 11.63-22.55 9.5-7.85-13.99 14.53-11.67 22.55-9.5zm-2.37 1.19c-6.16.569-14.73-1.28-18.99 1.189-.3 3.46 2.229 4.09 3.56 5.93 6.05-1.469 11.08-3.949 15.43-7.119zm-13.11-515.04 1.08 6.34-5.69-2.99-5.7 2.99 1.09-6.34-4.61-4.49 6.37-.92 2.85-5.77 2.84 5.77 6.37.92z" fill="#fff"/><path d="m628.64 586.75c-3.689-3.27 1.48-8.44 4.75-4.75.55 3.72-1.03 5.3-4.75 4.75z" fill="#fff5b4"/><path d="m629.96 77.5-4.61 4.49 1.09 6.34-5.7-2.99-5.69 2.99 1.08-6.34-4.6-4.49 6.36-.92 2.85-5.77 2.85 5.77zm-.88 35.62-4.61 4.49 1.09 6.34-5.7-2.99-5.69 2.99 1.09-6.34-4.61-4.49 6.37-.92 2.84-5.77 2.85 5.77z" fill="#fff"/><path d="m585.85 33.34c7.69 0 13.92 4.54 13.92 10.15 0 3.58-2.539 6.73-6.39 8.54-2.17 1.02-4.76 1.61-7.53 1.61-2.659 0-5.14-.54-7.26-1.49-4-1.78-6.67-4.99-6.67-8.66 0-5.61 6.24-10.15 13.93-10.15z" fill="#c8c8c8"/><path d="m593.38 176.6v119.7h-14.38l-.41-244.15c2.12.95 4.601 1.49 7.26 1.49 2.771 0 5.36-.59 7.53-1.61z" fill="#c8c8c8"/><path d="m435.21 560.64c3.25 1.9 3.55 6.74 5.93 9.49-4.72 3.56-6.69-3.84-5.93-9.49z" fill="#fff"/><path d="m401.98 589.12c13.37-3.351 17 12.97 32.04 11.87 1.271 2.68 2.69 5.22 4.75 7.12 1.761-1.011 2.551-2.99 2.37-5.931 12.351-.489 6.53 17.2 16.61 18.98-13.1 3.6-24.04-5.22-35.6-7.12-5.49-7.95-7.2-19.7-20.17-20.17zm5.93-39.16c5.35 1.37 3.87 9.58 7.12 13.05-5.81 3.8-8.42-5.78-7.12-13.05z" fill="#fff5b4"/><path d="m434.02 600.99c-15.04 1.1-18.669-15.221-32.04-11.87v4.75c12.97.47 14.68 12.22 20.17 20.17 11.56 1.9 22.5 10.72 35.6 7.12-10.08-1.78-4.26-19.47-16.61-18.98.181 2.94-.609 4.92-2.37 5.931-2.06-1.901-3.48-4.441-4.75-7.121zm27.29 23.73c-26.979.49-44.899-8.1-52.209-27.29-4.4.84-5.09-2.029-9.5-1.189-.36-4.32.19-7.721 1.19-10.681 8.17.931 15.29 2.91 20.18 7.12 2.1-1.06 1.51-4.81 5.93-3.56 3.04 3.03-.271 5.76-2.371 7.12 1.18 5.55 14.85-1.41 13.05 7.12 2.24-.13.82-3.92 3.56-3.561 3.63-.859 3.49 2.05 7.12 1.19 3.79 8.471 8.52 16.011 13.05 23.731z"/><path d="m366.38 489.44c3.82.26 5.02-2.101 9.49-1.19.07 7.84 4.93 10.9 8.31 15.43.88 5.23-3.84 4.86-4.75 8.301 17.13 8.72 17.35 27.529 26.11 45.1-7.26 2.51-8.84-6.771-11.87-10.68-8.05-10.42-20.13-21.311-23.73-35.601.39-2.78 1.42-4.91 2.37-7.12-1.01-5.72-4.92-8.53-5.93-14.24z" fill="#fff5b4"/><path d="m415.03 563.01c-3.25-3.47-1.77-11.68-7.12-13.05-1.3 7.27 1.31 16.85 7.12 13.05zm-48.65-73.57c1.01 5.71 4.92 8.52 5.93 14.239-.95 2.21-1.98 4.34-2.37 7.12 3.6 14.29 15.68 25.181 23.73 35.601 3.03 3.909 4.61 13.189 11.87 10.68-8.76-17.57-8.98-36.38-26.11-45.1.91-3.44 5.63-3.07 4.75-8.301-3.38-4.529-8.24-7.59-8.31-15.43-4.47-.909-5.67 1.451-9.49 1.191zm1.18 21.36c.13-3.04.67-5.66 2.38-7.12-2.44-5.479-5.85-9.979-7.12-16.62 5.62.48 8.16-2.109 14.24-1.18 2.14 6.16 3.96 12.64 9.49 15.42.42 4.771-.02 8.69-3.56 9.5 12.79 6.59 16.3 22.46 21.36 36.79 7.19-5.29 12.51 9.91 13.06 18.98-25.68-6.55-39.16-33.37-49.85-55.77zm-28.48 16.61c.15-2.62 5.04-.5 7.12-1.19.19 5.76-4.84 2.54-7.12 1.19z" fill="#fff"/><path d="m346.2 526.22c-2.08.69-6.97-1.43-7.12 1.19 2.28 1.35 7.31 4.57 7.12-1.19zm7.12 0c.95 4.12-1.77 4.57-1.18 8.311-5.25-4.351-16.36.5-15.43-11.86 7.55-.831 10.81 2.629 16.61 3.549zm-20.17 129.36c-.68-2.58 24.93 6.58 37.1 26.67-8.57 4.5-48-12-37.1-26.67zm22.55-107.99c6.84 7.24 20.49 13.17 20.17 23.73-25.73-.021-57-4.681-64.08-27.29 2.9-6.46 6.43-5.011 15.42-4.75-.46 12.28 18.71 10.1 28.49 8.31z" fill="#fff5b4"/><path d="m322.47 644.9c6.13 8.6-9.7 8.6-3.56 0z"/><path d="m355.7 547.59c-9.78 1.79-28.95 3.97-28.49-8.31-8.99-.261-12.52-1.71-15.42 4.75 7.08 22.609 38.35 27.27 64.08 27.29.32-10.56-13.33-16.49-20.17-23.73zm21.36 27.29c-10.33 3.45-23.75-4.16-36.79-7.12-4.35-.979-10.26.53-14.24-1.189-14.62-6.28-26.91-36.75 2.37-29.66-.42 10.71 19.02 12.38 24.92 5.93 9.39 8.42 21.99 13.61 26.11 27.29-1.59.779-2.21 2.539-2.37 4.749zm-71.21-236.16h3.56v4.75c-3.96 1.19-3.89-1.65-3.56-4.75z" fill="#fff"/><path d="m310.6 285.32c-1.4 1.37-4.19 1.34-7.12 1.19-1-1.38-1.57-3.19-1.19-5.94 1.59-1.69 6.73-1.69 8.31 0zm-8.31 52.22c-.21 1 .47 1.11 1.19 1.18v2.38c-1.01-.22-1.12.46-1.19 1.18h-2.37c.22-1.01-.46-1.12-1.19-1.18v-2.38c1.01.22 1.12-.46 1.19-1.18z" fill="#fff5b4"/><path d="m285.68 326.85c4.41-.05 5.16 3.55 5.93 7.13-4.41.05-5.16-3.55-5.93-7.13z" fill="#fff"/><path d="m302.29 469.26c6.17 6.891 12.72 13.391 22.55 16.62-2.17 2.811-3.1 6.86-1.19 10.68-21.19-16.39-52.6-22.56-66.45-46.279-3.75.58-4.19-2.141-8.31-1.19 21.89-11.601 29.81 25.779 53.4 20.169z" fill="#fff5b4"/><path d="m304.67 466.89c4.72 8.73 13.76 13.13 22.54 17.801-2.41 5.75-.67 8.869-2.37 14.239-5.72.57-8.18-2.1-9.49-5.93-2.7.86-.36 6.76-4.75 5.93-.73-3.96-3.48-4.05-1.19-8.31-18.7-11.76-42.78-18.13-53.4-37.97-3.99-.761-8.65-.841-10.68-3.561 21.44-20.849 33.99 23.941 59.34 17.801zm20.17 18.99c-9.83-3.229-16.38-9.729-22.55-16.62-23.59 5.61-31.51-31.77-53.4-20.17 4.12-.95 4.56 1.771 8.31 1.19 13.85 23.72 45.26 29.89 66.45 46.279-1.91-3.819-.98-7.869 1.19-10.679z" fill="#fff"/><path d="m239.4 515.54c-4.49 1.02-4.2-5.31-2.38-7.12 4.49-1.01 4.2 5.32 2.38 7.12zm-8.31-16.61c1.59 2.061-.34 10.69-5.93 9.49-3.53-4.68 3.25-7.27 5.93-9.49z" fill="#fff5b4"/><path d="m213.29 441.97c-4.49 1.011-4.2-5.31-2.37-7.12 4.48-1.02 4.19 5.31 2.37 7.12zm-9.5 66.45c3.4-.229 6.48-.14 5.94 3.561-3.4.239-6.48.149-5.94-3.561z" fill="#fff"/><path d="m209.73 511.98c.54-3.7-2.54-3.79-5.94-3.561-.54 3.711 2.54 3.801 5.94 3.561zm2.37 1.19c-2.48 2.34-7.88.91-10.68 0 .86-3.63-2.05-3.49-1.19-7.12h10.69c-.03 2.8 2.04 3.49 1.18 7.12zm-5.93-43.91c-.88 15.221 18.62 16.07 14.24 30.86-11.93-.34-10.91-13.63-17.8-18.99-5.37.17-5.8 5.28-11.87 4.75 3.17-7.51 5.4-15.97 15.43-16.62zm-13.06 24.92c2.85 2.551-2.89 6.54-1.18 11.87-4.37.41-3.59-4.319-4.75-7.12 1.78-1.78 5-2.12 5.93-4.75z" fill="#fff5b4"/><path d="m206.17 469.26c-10.03.65-12.26 9.11-15.43 16.62 6.07.53 6.5-4.58 11.87-4.75 6.89 5.36 5.87 18.65 17.8 18.99 4.38-14.79-15.12-15.64-14.24-30.86zm24.92 29.67c-2.68 2.221-9.46 4.811-5.93 9.49 5.59 1.2 7.52-7.43 5.93-9.49zm-8.31 3.56c-8.89.91-17.96-7.01-18.99-17.8-6.73-.23-9.64 6.369-16.61 2.369 3.69-9.069 8.2-23.3 21.36-18.979.34 15.479 16.87 14.78 15.43 32.04 4.51-1.03 5.71-5.37 11.87-4.75-.08 5.86-3.49 8.38-3.56 14.24-2.79.38-4.46 1.88-8.31 1.189-1.8-1.679-3.75-5.769-1.19-8.309z" fill="#fff"/><path d="m199.05 437.22c-18.34.08-36.15-10.489-40.35-28.479-6.71-.81-10.18-4.86-13.05-9.49 12.24-4.11 24.52 11.69 34.41 17.8-.69 3.85.81 5.52 1.19 8.3 5.2 4.689 12.84 6.939 17.8 11.869z" fill="#fff5b4"/><path d="m196.67 511.98c-17.33 1.609-12.03-27.2 1.19-17.801-3.09 5.091-4.94 12.131-1.19 17.801zm-4.74-5.93c-1.71-5.33 4.03-9.319 1.18-11.87-.93 2.63-4.15 2.971-5.93 4.75 1.16 2.8.38 7.53 4.75 7.12z" fill="#fff"/><path d="m175.31 465.7c3.63.859 3.49-2.05 7.12-1.181 1.41 5.311 3.67 10.19-1.18 13.051-6.11-.83-8-5.97-5.94-11.87z" fill="#fff5b4"/><path d="m175.31 465.7c-2.06 5.899-.17 11.04 5.94 11.87 4.85-2.86 2.59-7.74 1.18-13.051-3.63-.869-3.49 2.041-7.12 1.181zm-3.56 7.12c-.84-4.4 2.03-5.09 1.19-9.49 16.92-8.29 14.05 14.2 10.68 21.36h-5.93c-.35-4.68-2.43-7.76-5.94-11.87z" fill="#fff"/><path d="m161.07 453.83c-1.08 4.07-2.93 7.36-3.56 11.87-5.13-3.71-2.75-14.391-4.74-17.8 3.97-3.11 4.93 4.74 8.3 5.93z" fill="#fff5b4"/><path d="m161.07 453.83c-3.37-1.19-4.33-9.04-8.3-5.93 1.99 3.409-.39 14.09 4.74 17.8.63-4.51 2.48-7.8 3.56-11.87zm3.56 0c-1.72 4.62-4.65 8.01-4.74 14.25-1.88-.1-4.53.57-4.75-1.19-1.8.091 1.89 7.761-1.19 9.49-6.84-7.64 1.6-20.38-4.75-30.85 2.49.5 3.15-.82 4.75-1.19 6.02.7 6.06 7.39 10.68 9.49z" fill="#fff5b4"/><path d="m200.23 440.78c-22.56-1.96-37.32-11.73-43.9-29.67-7.28-1.82-12.14-6.06-13.06-14.24 15.22-5.66 27.16 11.27 37.98 17.8 1.62 2.34 1.13 6.78 2.37 9.5 6.21 3.67 12.2 7.57 18.99 10.68.88 3.65-3.26 2.28-2.38 5.93zm-20.17-23.73c-9.89-6.11-22.17-21.91-34.41-17.8 2.87 4.63 6.34 8.68 13.05 9.49 4.2 17.99 22.01 28.56 40.35 28.479-4.96-4.93-12.6-7.18-17.8-11.87-.38-2.779-1.88-4.449-1.19-8.299z" fill="#fff"/><path d="m124.28 408.74c4.49-1.02 4.2 5.31 2.38 7.12-4.49 1.02-4.2-5.31-2.38-7.12z" fill="#fff5b4"/><path d="m107.67 421.79c.19-1.38-.26-2.11-1.19-2.37 1.09-3.98 2.21-.59 5.94-1.19.35 3.13-1.65 3.9-4.75 3.56z" fill="#fff"/><path d="m117.16 424.17c-3.99-2.09-6.08.79-11.86 0-5.97-12.92 13.1-10.71 11.86 0zm-10.68-4.75c.93.26 1.38.99 1.19 2.37 3.1.34 5.1-.43 4.75-3.56-3.73.6-4.85-2.79-5.94 1.19zm-4.74 15.43c.55 3.71-1.04 5.29-4.75 4.74-3.7-3.27 1.48-8.44 4.75-4.74z" fill="#fff5b4"/><g fill="none"><g><path d="m594.27 61.46h212.29v138.29h-211.02m-16.95-147.6c-4-1.78-6.67-4.99-6.67-8.66 0-5.61 6.24-10.15 13.93-10.15s13.92 4.54 13.92 10.15c0 3.58-2.539 6.73-6.39 8.54-2.17 1.02-4.76 1.61-7.53 1.61-2.66 0-5.14-.54-7.26-1.49z" stroke="#231f20" stroke-width="7"/><path d="m578.59 51.87v.28l.41 244.15m14.38-244.94v244.94m211.66-233.5-209.72 112.76-1.94 1.04-.95.51m2.18 19.66.9-.48 211.05-112.02.66-.36" stroke="#231f20" stroke-width="7"/><path d="m632.52 106.53 1.09-6.34-4.61-4.49 6.37-.92 2.85-5.77 2.84 5.77 6.37.92-4.6 4.49 1.08 6.34-5.69-2.99z" stroke="#231f20" stroke-width="3"/><g stroke="#000"><path d="m660.79 86.06-5.7 3 1.09-6.34-4.6-4.49 6.36-.93 2.85-5.77 2.85 5.77 6.36.93-4.61 4.49 1.09 6.34zm-40.05-.72-5.69 2.99 1.08-6.34-4.6-4.49 6.36-.92 2.85-5.77 2.85 5.77 6.37.92-4.61 4.49 1.09 6.34zm-.88 35.62-5.69 2.99 1.09-6.34-4.61-4.49 6.37-.92 2.84-5.77 2.85 5.77 6.37.92-4.61 4.49 1.09 6.34zm39.47-1.4-5.69 2.99 1.08-6.34-4.6-4.49 6.36-.92 2.85-5.77 2.85 5.77 6.36.92-4.6 4.49 1.09 6.34z" stroke-linecap="round" stroke-linejoin="round" stroke-width="3"/><path d="m285.68 326.85c.77 3.58 1.52 7.18 5.93 7.13-.77-3.58-1.52-7.18-5.93-7.13zm13.05 14.25c.73.06 1.41.17 1.19 1.18h2.37c.07-.72.18-1.4 1.19-1.18v-2.38c-.72-.07-1.4-.18-1.19-1.18h-2.37c-.07.72-.18 1.4-1.19 1.18zm10.68 2.37v-4.75h-3.56c-.33 3.1-.4 5.94 3.56 4.75zm-106.8 91.38c-6.79-3.109-12.78-7.01-18.99-10.68-1.24-2.72-.75-7.16-2.37-9.5-10.82-6.53-22.76-23.46-37.98-17.8.92 8.18 5.78 12.42 13.06 14.24 6.58 17.94 21.34 27.71 43.9 29.67-.88-3.65 3.26-2.28 2.38-5.93zm-78.33-26.11c-1.82 1.81-2.11 8.14 2.38 7.12 1.82-1.81 2.11-8.14-2.38-7.12zm-7.12 15.43c1.24-10.71-17.83-12.92-11.86 0 5.78.79 7.87-2.09 11.86 0zm93.76 10.68c-1.83 1.811-2.12 8.131 2.37 7.12 1.82-1.81 2.11-8.14-2.37-7.12zm34.41 14.24c2.03 2.72 6.69 2.8 10.68 3.561 10.62 19.84 34.7 26.21 53.4 37.97-2.29 4.26.46 4.35 1.19 8.31 4.39.83 2.05-5.069 4.75-5.93 1.31 3.83 3.77 6.5 9.49 5.93 1.7-5.37-.04-8.489 2.37-14.239-8.78-4.671-17.82-9.07-22.54-17.801-25.35 6.139-37.9-38.651-59.34-17.801zm-85.44 18.99c.09-6.24 3.02-9.63 4.74-14.25-4.62-2.1-4.66-8.79-10.68-9.49-1.6.37-2.26 1.69-4.75 1.19 6.35 10.47-2.09 23.21 4.75 30.85 3.08-1.729-.61-9.399 1.19-9.49.22 1.76 2.87 1.09 4.75 1.19zm13.05-4.75c.84 4.4-2.03 5.09-1.19 9.49 3.51 4.109 5.59 7.189 5.94 11.87h5.93c3.37-7.16 6.24-29.65-10.68-21.36zm14.24 23.73c6.97 4 9.88-2.6 16.61-2.369 1.03 10.79 10.1 18.71 18.99 17.8-2.56 2.54-.61 6.63 1.19 8.31 3.85.69 5.52-.81 8.31-1.189.07-5.86 3.48-8.38 3.56-14.24-6.16-.62-7.36 3.72-11.87 4.75 1.44-17.26-15.09-16.561-15.43-32.04-13.16-4.322-17.67 9.908-21.36 18.978zm175.64 0c1.27 6.641 4.68 11.141 7.12 16.62-1.71 1.46-2.25 4.08-2.38 7.12 10.69 22.4 24.17 49.22 49.85 55.771-.55-9.07-5.87-24.271-13.06-18.98-5.06-14.33-8.57-30.2-21.36-36.79 3.54-.81 3.98-4.729 3.56-9.5-5.53-2.78-7.35-9.26-9.49-15.42-6.08-.931-8.62 1.659-14.24 1.179z" stroke-width="5"/><path d="m196.67 511.98c-3.75-5.671-1.9-12.711 1.19-17.801-13.22-9.399-18.52 19.411-1.19 17.801zm4.75 1.19c2.8.91 8.2 2.34 10.68 0 .86-3.63-1.21-4.32-1.18-7.12h-10.69c-.86 3.63 2.05 3.49 1.19 7.12zm35.6-4.75c-1.82 1.811-2.11 8.14 2.38 7.12 1.82-1.8 2.11-8.13-2.38-7.12zm115.12 26.11c-.59-3.74 2.13-4.19 1.18-8.311-5.8-.92-9.06-4.38-16.61-3.55-.93 12.361 10.18 7.511 15.43 11.861zm-23.74 2.38c-29.28-7.09-16.99 23.38-2.37 29.66 3.98 1.72 9.89.21 14.24 1.189 13.04 2.96 26.46 10.57 36.79 7.12.16-2.21.78-3.97 2.37-4.75-4.12-13.68-16.72-18.87-26.11-27.29-5.9 6.451-25.34 4.781-24.92-5.929zm106.81 23.73c-.76 5.65 1.21 13.051 5.93 9.49-2.38-2.75-2.68-7.59-5.93-9.49zm202.93 42.72c1.74-1.88 2.45-9.42-2.38-8.311-1.74 1.891-2.45 9.431 2.38 8.311zm20.17 10.68c-8.02-2.17-30.399-4.49-22.55 9.5 9.16 2.13 19.86-1.53 22.55-9.5zm17.8 40.35c3.04-3.17-.71-6.26 0-10.68h-3.561c2.831 4.1-.709 7.61 3.561 10.68zm18.99 17.8c.25-1.33 1.32-1.851 2.37-2.37-.52-6.601-4.56-9.67-11.859-9.49-3.081 6.6 2.909 11.3 9.489 11.86zm22.55 100.88c3.58-.061 3.68-9.7-1.19-8.311-3.58.051-3.68 9.691 1.19 8.311zm-384.5-117.49c-10.9 14.67 28.53 31.17 37.1 26.67-12.17-20.09-37.78-29.25-37.1-26.67zm396.37 118.67c1.881-1.74 9.421-2.45 8.301 2.38-1.881 1.74-9.421 2.44-8.301-2.38z" stroke-width="5"/><path d="m730.7 774.25v2.38c2.24-.53 7.16 1.61 5.939-2.38zm-3.56 3.56c2.42 5.41 3.53 12.95-4.739 13.061-3.851-1.95-6.23-7.311-4.75-10.69 1.019-2.351 3.919-3.751 9.489-2.371z" stroke-width="5"/><path d="m717.65 780.18c1.83 3.32 1.08 9.21 5.93 9.5 6.09-.52 4.6-7.14 2.38-10.68-3.16.01-6.78-.45-8.31 1.18zm-415.36-499.61c1.59-1.69 6.73-1.69 8.31 0v4.75c-1.4 1.37-4.19 1.34-7.12 1.19-1-1.38-1.57-3.19-1.19-5.94zm-205.3 159.02c-3.7-3.27 1.48-8.439 4.75-4.74.55 3.71-1.04 5.29-4.75 4.74zm531.65 147.16c-3.689-3.27 1.48-8.44 4.75-4.75.55 3.72-1.03 5.3-4.75 4.75zm-227.85-1.19c8.17.931 15.29 2.91 20.18 7.12 2.1-1.06 1.51-4.81 5.93-3.56 3.04 3.03-.271 5.76-2.371 7.12 1.18 5.55 14.85-1.41 13.05 7.12 2.24-.13.82-3.92 3.56-3.561 3.63-.859 3.49 2.05 7.12 1.19 3.79 8.47 8.521 16.01 13.05 23.729-26.979.49-44.899-8.1-52.209-27.29-4.4.84-5.09-2.029-9.5-1.189-.36-4.319.19-7.719 1.19-10.679z" stroke-width="5"/><path d="m401.98 589.12v4.75c12.97.47 14.68 12.22 20.17 20.17 11.56 1.9 22.5 10.72 35.6 7.12-10.08-1.78-4.26-19.47-16.61-18.98.181 2.94-.609 4.92-2.37 5.931-2.06-1.9-3.479-4.44-4.75-7.12-15.04 1.099-18.67-15.221-32.04-11.871zm-79.51 55.78c6.13 8.6-9.7 8.6-3.56 0zm418.91 141.22c-3.96 1.189-3.89-1.65-3.56-4.75h3.56z" stroke-width="5"/></g></g><path d="m.25.25h850.394v850.394h-850.394z"/></g></svg>