<svg height="851.89" viewBox="0 0 851.89 851.89" width="851.89" xmlns="http://www.w3.org/2000/svg"><path d="m851.64 851.14v.5h-851.39v-851.39h851.39zm-1 0 .5-.5h-.5v-849.39h.5l-.5-.5v.5h-849.39v-.5l-.5.5h.5v849.39h-.5l.5.5v-.5h849.39z" fill="#231f20"/><path d="m851.14 850.64-.5.5v-.5zm0-849.39h-.5v-.5z" fill="#231f20"/><path d="m803.6 64.7v149.65h-174.21v-149.65zm-34.93 110.19v-.01c0-.09-.01-.18-.03-.27-.05-.23-.149-.45-.31-.62-.03-.04-.07-.08-.11-.12-.13-.12-.279-.21-.439-.27-.05-.02-.101-.03-.15-.04a.266.266 0 0 0 -.12-.03 1.606 1.606 0 0 0 -.22-.02c-15.09 0-27.16-1.28-36.9-3.91-12-3.23-20.68-8.49-26.54-16.06-4.739-6.12-7.609-13.9-8.52-23.13-.99-10.14.33-22.37 3.95-36.34l.04-.34c0-.35-.13-.67-.351-.92-.02-.02-.04-.05-.06-.06-.01-.03-.04-.04-.061-.06a.582.582 0 0 0 -.18-.13.507.507 0 0 0 -.16-.09 1.39 1.39 0 0 0 -.22-.08c-.03-.01-.06-.02-.1-.02-.07-.01-.141-.02-.221-.02-.319-.01-.62.09-.87.28a1.4 1.4 0 0 0 -.489.75l-.971 3.94c-7.92 6.6-15.09 15.23-15.09 28.66 0 13.13.2 24.77 5.021 36.11 8.26 19.42 39.13 26.46 74.41 14.07 2.359.07 4.789.11 7.31.11.18 0 .35-.03.51-.1l.19-.1c.06-.03.12-.07.17-.12.06-.04.109-.09.149-.14l.311-.57c.02-.05.03-.1.03-.16zm-11.72-40.04-1.67-2.24-6.58-8.81 3.53-10.43.899-2.65-2.649.9-10.421 3.54-8.81-6.58-2.25-1.67.04 2.79.14 11-8.979 6.35-2.28 1.62 2.66.82 10.52 3.28 3.261 10.5.83 2.67 1.609-2.29 6.351-8.98 11 .14z" fill="#34a047"/><path d="m768.67 174.88v.01l-.02.19c0 .06-.011.11-.03.16l-.311.57a.69.69 0 0 1 -.149.14c-.05.05-.11.09-.17.12l-.19.1c-.16.07-.33.1-.51.1-2.521 0-4.95-.04-7.31-.11a151.84 151.84 0 0 0 6.789-2.55 1.38 1.38 0 0 1 .741-.08c.04 0 .08.01.12.03.05.01.101.02.15.04.16.06.31.15.439.27.04.04.08.08.11.12.16.17.26.39.31.62.021.09.031.18.031.27z"/><path d="m767.29 173.51c-.17 0-.35.03-.521.1-2.3.92-4.56 1.78-6.789 2.55-12-.36-21.971-1.64-30.311-3.89-12.6-3.4-21.76-8.97-28-17.04-6.31-8.15-9.46-18.6-9.46-31.59l3.43-26.32c1.04-.86 2.091-1.7 3.141-2.5l.54-1.09-.04.34c-3.62 13.97-4.94 26.2-3.95 36.34.91 9.23 3.78 17.01 8.52 23.13 5.86 7.57 14.54 12.83 26.54 16.06 9.74 2.63 21.81 3.91 36.9 3.91z"/><path d="m755.28 132.61 1.67 2.24-2.8-.04-11-.14.42-.59-1.14.58.72.01-6.35 8.98-1.61 2.29-.83-2.67-3.26-10.5.68.21-.9-.91.22.7-10.52-3.28-2.66-.82 2.28-1.62 8.98-6.35.01.72.58-1.14-.59.42-.14-11-.04-2.79 2.25 1.67 8.81 6.58-.69.23 1.27.2-.58-.43 10.42-3.54 2.65-.9-.9 2.65-3.53 10.43-.44-.59.21 1.27.23-.68z" fill="#fff"/><path d="m748.26 123.21.44.59-.23.68z" fill="#231f20"/><path d="m729.67 172.27c8.34 2.25 18.311 3.53 30.311 3.89-35.28 12.39-66.15 5.35-74.41-14.07-4.82-11.34-5.021-22.98-5.021-36.11 0-13.43 7.17-22.06 15.09-28.66l-3.43 26.32c0 12.99 3.15 23.44 9.46 31.59 6.24 8.07 15.4 13.64 28 17.04z" fill="#fff"/><path d="m743.57 134.08-.42.59-.72-.01zm-2.93-18.49-1.27-.2.69-.23zm-9.76 16.48.9.91-.68-.21zm-1.11-11.79-.58 1.14-.01-.72z" fill="#231f20"/><path d="m699.32 93.73-.54 1.09c-1.05.8-2.101 1.64-3.141 2.5l.971-3.94c.08-.31.26-.57.489-.75.25-.19.551-.29.87-.28.08 0 .15.01.221.02.04 0 .069.01.1.02.08.02.15.05.22.08.061.02.11.05.16.09.07.03.13.08.18.13.021.02.04.03.061.06.02.01.04.04.06.06.219.25.349.57.349.92z"/><path d="m698.85 92.69c.021.02.051.03.061.06-.021-.03-.041-.04-.061-.06z" fill="#34a047"/><path d="m629.39 65.35v149h-53.35v-149.65h53.35z" fill="#fff"/><path d="m576.04 56.06c-2.35 1.11-5.15 1.75-8.15 1.75-2.88 0-5.56-.59-7.85-1.61-4.33-1.92-7.22-5.4-7.22-9.38 0-6.06 6.75-10.98 15.069-10.98 8.32 0 15.07 4.92 15.07 10.98.001 3.88-2.749 7.29-6.919 9.24z" fill="#c8c8c8"/><path d="m576.04 64.7v255.72h-15.56l-.44-264.22c2.29 1.02 4.97 1.61 7.85 1.61 3 0 5.801-.64 8.15-1.75z" fill="#c8c8c8"/><path d="m540.34 266.7c-12.29-5.01-29.54-4.03-32.899-19.75-3.66 1.63-7.221 3.39-12.33 3.29 2.649-9.76-5.04-7.11-6.851-11.52.521-.51.971-1.06 1.37-1.65 1.26 5.07 9.311 1.97 6.851 11.52 4.909-.13 7.92-2.56 12.329-3.29 1.62 15.21 25.681 20.55 34.28 16.46 3.38 5.96-14.21 13.08-20.57 18.1 2.86 7.54-4.649 11.71-4.109 21.39-.92-.67-1.82-1.23-2.71-1.7 2.63-5.86 7.399-13.25 5.46-19.69 7.089-3.55 11.779-9.98 19.179-13.16z"/><path d="m205.88 676.41c1.69.189 3.24.51 2.74 3.3-3.51-.18-6.54-.94-8.23-3.3 6.2-1.97 2.22-1.07 6.85-4.93-11.34 3.88-19.06 16.329-32.9 8.229-.16.76-.44 1.37-.79 1.87-.01 0-.01.01-.02.01-.56.22-1 .601-1.33 1.12-4.46 2.34-14.13-2.28-17.37 2.88h-2.23c.57-.64-12.35-1.32-13.9-4.24.02-4.609 3.75 3.92 2.75-3.29h-5.49c-4.35 3.391 3.87 3.29 0 4.931-4.51-.061-6.82-2.771-12.33-1.641-3.22.53-3.07 5.101-5.48 6.58-17.78-2.75-34.79-4.47-47.99 6.58a38.91 38.91 0 0 1 -.92-3.75c.14-.439.14-.81-.19-1.04-2.89-16.6-.06-47.12 17.57-47.859-1.01-7.351 17.36-12.271 26.04-8.221.87-12.37 4.12-17.489 2.74-26.34-3.14-4.67-11.34 4.07-15.08-1.64 5.66-10.54-1.81-23.79 0-39.49-2.75-.45-4.68.07-6.18 1.13-.32-.22-.64-.439-.96-.68-2.55-9.021-12.47-9.24-20.27-11.97-3.96-7.15-7.52-14.79-11.08-22.41-3.82-10.41-7.57-20.67-14.97-28.601h.02c.99.17 2.06.45 3.2.82.76.25 1.55.54 2.37.86 0 .01 0 .01.01 0 .82.33 1.67.689 2.54 1.069 10.96 4.851 25.74 14.11 37.1 15.351 5.73.63 19.84-5.82 31.53-4.94 4.97.38 8.92 3.61 12.33 3.3 3.17-.3 6.76-3.39 10.83-5.26h.01c0-.01.01-.01.01-.01h.01c2.28-.54 4.59-1.021 6.94-1.43 4.71.18 9.5 2.149 13.73 1.76 13.79-1.25 36.89-10.75 39.75-18.101 0-.119-2.32-2.31-3.46-3.79-.29-1.439-.47-3-.55-4.67v-.02c-9 27.02 3.81-17.021 4.01-31.01 9.91.93 8.11-12.221 15.08-14.82 7.39 5.86 24.25 4.17 27.41-4.92-3.39-3.2-4.87 1.61-6.85-3.3 4.28-1.05 13.11-7.511 17.82-13.16 4.22 2.11 11.89 5.21 10.97 0 4.33 1.39 3.9 8.479 8.22 9.87 6.88-2.71 8.93-11.23 15.08-14.81-4.29-7.17.1-14.57-2.74-23.03 7.12-6.88 5.54-16.4 8.23-24.69 12.19 1.47 17.04-5.86 23.3-11.52-2.22-12.13-9.71-17.95-13.71-27.96 14.96 4.81 52.39 2.07 33.52-23.86.92-1.18 1.83-2.39 2.72-3.64 17.26-16.04 22.49-46.66 3.51-63.01 4.62-6.2 10.61-12.4 17.61-17.87.01-.01.01-.01.02-.01l.01-.01c2.47-.77 4.77-2.45 6.55-4.7 17.09-11.21 38.75-17.52 60.8-10.32 10.11-11.98 22.59-9.07 36.51-5.44.66.67 1.271 1.41 1.82 2.21-.101 3.41.08 6.49 1.43 8.17 4.19 1.19 4.03-2.85 8.23-1.65 6.41 4.32 12.5 19.71 6.85 27.97-.399.59-.85 1.14-1.37 1.65 1.811 4.41 9.5 1.76 6.851 11.52 5.109.1 8.67-1.66 12.33-3.29 3.359 15.72 20.609 14.74 32.899 19.75-7.399 3.18-12.09 9.61-19.18 13.16 1.939 6.44-2.83 13.83-5.46 19.69-.061-.03-.11-.05-.17-.08-11.011-11.55-23.34 4.99-34.13 6.71-11.851-6.06-27.86-7.15-39.75-13.16-2.471 3.07-5.03 6.02-10.96 4.94-.94 6.56-4.32 10.17-5.49 16.45 1.75 2.29 6.71.71 6.85 4.94-1.54 1.98-3.91 2.98-2.74 8.22 2.19 4.5 8.37-3.83 10.96 1.66-.5 6.51-8.649 3.85-9.579 9.86.649.89 1.239 1.76 1.75 2.63.22.64.529 1.17.89 1.64 2.57 5.2 2.7 10.46.47 16.47a34.09 34.09 0 0 1 -1.75 3.94c1.88 7.63 12.66 4.55 9.601 18.11 8.21-2.19 11.409 1.65 9.6 11.52 4.51 2.77 8.76.97 13.7 0 2.819 3.2 6.689 5.13 6.85 11.51-8.67 7.13-22.77 7.77-26.04 21.39 9.16 6.13-3.81 19.7 4.11 27.97-10.4 4.511-13.75 17.5-21.93 24.69-.221 5.21 3.64 5.49 2.75 11.521-.19.079-.37.17-.57.239-2.65.45-4.92 1.36-6.89 2.61-2.46.8-4.99 1.5-7.62 2.09-4.41 18.8-10.77 35.25-22.73 44.98-.86.569-1.67 1.18-2.45 1.84a38.192 38.192 0 0 1 -7.72 4.18c-2.77 14.24-10.72 22.25-16.46 32.91-11.18 1.38-19.25 6.52-30.15 8.229-1.08-5.84-3.4-10.18-6.86-13.17-14.75 12.471-26.51 28.511-31.52 52.67 6.67 2.71 10.35 11.051 19.19 6.58 1.57 16.98-5.51 42.73 16.44 36.19-1.09 18.32 8.27 24.08 10.97 37.85-4.36 4.101-1.69 8.07 0 13.16-6.59-1.33-4.95 7.22-12.33 4.94v-8.23a38.61 38.61 0 0 1 -3.27 2.19c-3.23.979-6.38 2.08-8.88 3.91-13.6 3.979-28.11.069-44.06-1.16-.83 3.93 1.73 11.93-1.37 13.17-10.57-1.48-14.21 3.63-17.82 6.58 1-2.7-2.72-7.16-2.74-3.3l1.42 2.829v.021c.02.65-.01 1.37-.05 2.09a26.04 26.04 0 0 0 -2.4-1.07c-.11-.189-.23-.38-.34-.569-.23.06-.45.12-.67.18-6.01-2.25-12.46-3.56-17.15-13.35-.24-8.25-5.06-17.681-2.74-24.681-6.43-.5-13.09-3.87-16.45-3.3.98-1.439 1.26-6.6 2.74-11.52-6.912-6.526-6.242-18.226-12.332-13.156z" fill="#fff5b4"/><path d="m515.7 299.55c-.01.02-.021.03-.03.05-.04-.05-.09-.09-.14-.13.06.03.11.05.17.08zm-.17-.08c-13-6.81-22.13 5.49-32.75 8.36-20.07-4.34-47.16-23.84-56.21 3.29.621 4.18 5.92 2.76 6.85 6.58 1.57 5.17-2.15 4-2.729 6.59.43 6.47 7.729-1.86 10.96 3.28 1.369 9.33-7.761 6.05-9.601 11.52-.01 1.04.141 1.91.391 2.63a32.047 32.047 0 0 0 -1.75-2.63c.93-6.01 9.079-3.35 9.579-9.86-2.59-5.49-8.77 2.84-10.96-1.66-1.17-5.24 1.2-6.24 2.74-8.22-.14-4.23-5.1-2.65-6.85-4.94 1.17-6.28 4.55-9.89 5.49-16.45 5.93 1.08 8.489-1.87 10.96-4.94 11.89 6.01 27.899 7.1 39.75 13.16 10.79-1.72 23.12-18.26 34.13-6.71zm-39.61-90.37c12.51-8.23 22.95 20.47 13.71 27.97 5.65-8.26-.439-23.65-6.85-27.97-4.2-1.2-4.04 2.84-8.23 1.65-1.35-1.68-1.53-4.76-1.43-8.17 1.23 1.8 2.19 3.97 2.8 6.52zm-2.74-8.23c-.029.58-.05 1.15-.06 1.71-.55-.8-1.16-1.54-1.82-2.21.62.17 1.25.33 1.88.5zm-8.23 190.87c3.53 2.9 5.92 7.16 9.6 9.88-5.7 15.04-21.54 7.98-27.42 23.04 6.12 8.18 1.66 12.79 1.37 24.68.34 4.24 2.36-2.26 5.49 0-1.34 1.7-2.7 3.351-4.08 4.98l-.04-.051c-7.92-8.27 5.05-21.84-4.11-27.97 3.271-13.62 17.37-14.26 26.04-21.39-.16-6.38-4.03-8.31-6.85-11.51-4.94.97-9.19 2.77-13.7 0 1.81-9.87-1.39-13.71-9.6-11.52 3.06-13.56-7.721-10.48-9.601-18.11.7-1.35 1.28-2.66 1.75-3.94l.17.08c-.229.67-.43 1.41-.55 2.22-.54 7.24 6.24 5.68 9.6 8.23-3.18 11.49 5.12 9.21 9.601 11.52.01 4.37-.521 9.39 1.37 11.52 5.16 1.261 6.55-2.009 10.96-1.659zm-31.53-187.57c8.99-8.99 28.45-13.4 37.88-3.8-13.92-3.63-26.399-6.54-36.51 5.44-22.05-7.2-43.71-.89-60.8 10.32 1.55-1.97 2.71-4.37 3.24-7.03 17.29-4.7 40.06-12.72 56.19-4.93z"/><path d="m449.87 454.27.04.051c-6.93 8.149-14.37 15.66-20.601 24.64 1.07 3.66 2.881 6.42 2.74 11.521-.66.05-1.3.13-1.93.239.2-.069.38-.16.57-.239.89-6.03-2.971-6.311-2.75-11.521 8.181-7.191 11.531-20.181 21.931-24.691zm-10.96-105.3c-.53 4.98-3.53 7-4.94 10.94l-.17-.08c2.23-6.01 2.101-11.27-.47-16.47 1.64 2.13 4.41 2.9 5.58 5.61zm-6.47-7.25c.319.55.619 1.09.89 1.64-.36-.47-.67-1-.89-1.64z"/><path d="m430.12 490.72c-2.22.98-4.51 1.84-6.89 2.61 1.97-1.25 4.24-2.16 6.89-2.61zm-14.51 4.7c2.63-.59 5.16-1.29 7.62-2.09-12.5 7.93-13.13 30.11-21.34 43.22-3.42.78-6.39 2.101-9.01 3.851 11.96-9.731 18.32-26.181 22.73-44.981zm-25.18 46.82c.78-.66 1.59-1.271 2.45-1.84-.79.65-1.61 1.28-2.45 1.84zm-7.72 4.18c2.79-1.12 5.35-2.52 7.72-4.18-10 8.39-14.39 23.51-20.06 37.09-12.02 3.13-22.81 7.729-35.64 9.88-.64-5.81-3.46-9.01-5.49-13.17-13.98 11.729-24.34 27.83-30.15 49.36 5.61 5.46 10.78 7.449 17.82 8.06v.18c-8.84 4.471-12.52-3.87-19.19-6.58 5.01-24.159 16.77-40.199 31.52-52.67 3.46 2.99 5.78 7.33 6.86 13.17 10.9-1.71 18.97-6.85 30.15-8.229 5.74-10.661 13.69-18.671 16.46-32.911zm-8.72-330.29c-1.78 2.25-4.08 3.93-6.55 4.7a90.49 90.49 0 0 1 6.55-4.7zm-13.22 4.48c2.17.91 4.47.92 6.64.24-7 5.47-12.99 11.67-17.61 17.87 18.98 16.35 13.75 46.97-3.51 63.01 13.5-18.88 22.9-45.47 2.14-61.36 1.54-9.69 12.26-8.33 12.34-19.76zm-17.82 492.01c-1.45 6.13 5.14 2.6 4.12 8.22-7.03-.21-6.95 8.12-15.08 6.58-1.15-1.91-1.81-4.41-1.37-8.22-.63.18-1.27.37-1.9.54a38.85 38.85 0 0 0 3.27-2.19v8.23c7.38 2.279 5.74-6.271 12.33-4.94-1.69-5.09-4.36-9.06 0-13.16l.21.04c-.23 1.57-.73 3.19-1.58 4.9zm3.34-410.89c-.89 1.25-1.8 2.46-2.72 3.64-.2-.27-.41-.54-.62-.83 1.16-.87 2.27-1.81 3.34-2.81z"/><path d="m334.73 668.19c-3.15 18.63 11.62 27.29 9.8 39.529l-.21-.04c-2.7-13.77-12.06-19.529-10.97-37.85-21.95 6.54-14.87-19.21-16.44-36.19v-.18c.88.08 1.79.13 2.74.18-1.65 20.421-5.84 40.101 15.08 34.551zm8.84-362.82c18.87 25.93-18.56 28.67-33.52 23.86 4 10.01 11.49 15.83 13.71 27.96-6.26 5.66-11.11 12.99-23.3 11.52l-.04-.27c8.91-1.84 16.9-4.8 21.97-11.25-2.11-12.27-10.32-17.23-13.7-27.96 1.33-.06 1.06-2.03 1.36-3.3 14.41 8.08 51.1 3.21 31.53-18.1.67-.8 1.33-1.61 1.99-2.46zm-14.85 414.37a36.805 36.805 0 0 1 -8.88 3.91c2.5-1.83 5.65-2.93 8.88-3.91zm-8.88 3.91c-1.83 1.34-3.33 3.06-4.3 5.42-14.07-.9-25.57-5.19-37.01-4.931-3.1 1.221-.54 9.221-1.37 13.16-10.27-1.35-18.12.2-17.83 11.521-.19-.011-.38-.021-.56-.04l-3.5-6.99v-.021c-.03-1.47-.32-2.63-1.42-2.829.02-3.86 3.74.6 2.74 3.3 3.61-2.95 7.25-8.061 17.82-6.58 3.1-1.24.54-9.24 1.37-13.17 15.95 1.23 30.46 5.14 44.06 1.16z"/><path d="m300.42 368.44.04.27c-2.69 8.29-1.11 17.81-8.23 24.69 2.84 8.46-1.55 15.86 2.74 23.03-6.15 3.58-8.2 12.1-15.08 14.81-4.32-1.391-3.89-8.48-8.22-9.87.92 5.21-6.75 2.11-10.97 0-4.71 5.649-13.54 12.11-17.82 13.16-1.77-6.561 15.85-3.98 15.08-14.81 8.91 2.2 18.57-2.71 20.57 9.87 13.66-5.99 15.8-17.74 12.33-34.55 5.29-9.73 6.13-17.06 8.23-26.33.45-.08.89-.18 1.33-.27zm-45.15 373.35 3.5 6.99c-3.31-.4-4.45-3.4-5.95-5.971.82.32 1.62.671 2.4 1.07.04-.719.07-1.439.05-2.089zm-2.79.45c.11.189.23.38.34.569-.33-.14-.66-.27-1.01-.39.22-.059.44-.119.67-.179zm-.67.18c-17.12 4.29-20.63-19.55-21.26-34.74-4.16-3.239-10.82-6.609-16.45-3.29-.46-6.029 1.52-9.14 2.74-13.159-5.91-21.62-29.05-2.5-41.13-9.881-1.7-.159-2.85.271-2.16.23.35-.5.63-1.11.79-1.87 13.84 8.1 21.56-4.35 32.9-8.229-4.63 3.859-.65 2.96-6.85 4.93 1.69 2.359 4.72 3.12 8.23 3.3.5-2.79-1.05-3.11-2.74-3.3 6.09-5.07 5.42 6.63 12.33 13.16-1.48 4.92-1.76 10.08-2.74 11.52 3.36-.57 10.02 2.8 16.45 3.3-2.32 7 2.5 16.431 2.74 24.681 4.69 9.788 11.14 11.098 17.15 13.348zm-8.93-307.89c1.98 4.91 3.46.1 6.85 3.3-3.16 9.09-20.02 10.78-27.41 4.92-6.97 2.6-5.17 15.75-15.08 14.82-.2 13.989-13.01 58.029-4.01 31.01-.5-9.74 1.96-22.88 2.64-32.65 11.77 2.051 7.91-14.649 17.82-14.819 5.84 6.26 19.63 3 24.68-1.641-1.38-4.01-6.07 3.22-5.49-4.94z"/><path d="m203.78 493.27c1.14 1.48 3.46 3.671 3.46 3.79-2.86 7.351-25.96 16.851-39.75 18.101-4.23.39-9.02-1.58-13.73-1.76 18.19-3.21 38.21-3.23 52.11-14.7-1-1.431-1.67-3.281-2.09-5.431z"/><path d="m203.23 488.6c.08 1.67.26 3.23.55 4.67-.39-.5-.65-.909-.65-1.149-.02-1.061.02-2.241.1-3.521zm-29.7 192.99c-.36.49-.81.84-1.33 1.12.33-.52.77-.9 1.33-1.12zm-1.33 1.12c-.51.82-.71 2.01-.59 3.58-3.62-1.71-8.42-1.97-13.71-1.64-3.35 1.649 2.68 7.27-4.12 6.58-.12-2.591.28-4.391 1.05-5.641 3.24-5.159 12.91-.539 17.37-2.879zm-21.16-169.19c.9-.13 1.81-.159 2.72-.119-2.35.409-4.66.89-6.94 1.43 1.36-.631 2.77-1.111 4.22-1.311zm-12.34 167.83c1.55 2.92 14.47 3.601 13.9 4.24-.2.21-1.79.43-5.67.7-6.57-1.99-14.59-2.24-21.93-3.3-4.3-.771-3.87 4.14-5.48 6.58-21.77-3.4-34.74-2.83-50.73 6.59a2.83 2.83 0 0 1 -.42-.62l1.79-1.021v-.01c13.2-11.05 30.21-9.33 47.99-6.58 2.41-1.479 2.26-6.05 5.48-6.58 5.51-1.13 7.82 1.58 12.33 1.641 3.87-1.641-4.35-1.54 0-4.931h5.49c1 7.211-2.73-1.319-2.75 3.291zm8.09-166.51c-4.07 1.87-7.66 4.96-10.83 5.26-3.41.311-7.36-2.92-12.33-3.3-11.69-.88-25.8 5.57-31.53 4.94-11.36-1.24-26.14-10.5-37.1-15.351-.87-.39-1.72-.739-2.54-1.069-.01.01-.01.01-.01 0-.82-.32-1.61-.61-2.37-.86-1.14-.37-2.21-.65-3.2-.82 14.68 0 28.43 14.4 43.84 16.46 14.69 1.95 30.15-10.159 45.24-1.649 3.43-1.531 7.07-2.691 10.83-3.611zm-31.39 92.46c1.38 8.851-1.87 13.97-2.74 26.34-8.68-4.05-27.05.87-26.04 8.221-17.63.739-20.46 31.26-17.57 47.859-.5-.37-1.75-.45-4.37-.149.92-15.891 5.2-27.75 6.86-42.771 13.03-3.569 21.51-21.33 38.38-14.81 4.36-8.17 4.06-17.55 4.11-24.69-4.51.521-11.23 3.811-15.08 0 5.13-11.189-.87-22.64 0-37.84-1.66-.31-3.23-1.1-4.81-2.16 1.5-1.06 3.43-1.58 6.18-1.13-1.81 15.7 5.66 28.95 0 39.49 3.74 5.71 11.94-3.03 15.08 1.64zm-21.26-40c-.24.15-.46.33-.67.51-.08-.409-.18-.81-.29-1.189.32.239.64.459.96.679zm-.96-.68c-5.34-3.88-10.93-10.22-20.27-10.33-4.98-7.39-8.05-15.771-11.08-24.05 3.56 7.62 7.12 15.26 11.08 22.41 7.8 2.73 17.72 2.95 20.27 11.97z"/><path d="m70.16 694.51v.01l-1.79 1.021c-.94-1.78.49-3.59.87-4.78.27 1.369.58 2.629.92 3.749zm-1.11-4.79c.33.23.33.601.19 1.04-.07-.33-.13-.68-.19-1.04zm-22.19-186.08c7.4 7.931 11.15 18.19 14.97 28.601-4.65-9.931-9.33-19.841-14.97-28.601z"/><path d="m1.25 850.64v.5l-.5-.5zm0-849.89v.5h-.5z" fill="#231f20"/><g fill="none"><g stroke="#231f20"><path d="m767.99 176.07-.19.1c-.16.07-.33.1-.51.1-2.521 0-4.95-.04-7.31-.11" stroke-width="3"/><path d="m768.62 175.24-.31.57m.36-.93v.01l-.02.19m-1.36-1.57c-.17 0-.35.03-.521.1-2.3.92-4.56 1.78-6.789 2.55" stroke-width="4"/><path d="m699.32 93.73-.04.34c-3.62 13.97-4.94 26.2-3.95 36.34.91 9.23 3.78 17.01 8.52 23.13 5.86 7.57 14.54 12.83 26.54 16.06 9.74 2.63 21.811 3.91 36.9 3.91m-71.65-76.19.971-3.94c.08-.31.26-.57.489-.75" stroke-width="3"/><path d="m699.32 93.73-.54 1.09c-1.05.8-2.101 1.64-3.141 2.5" stroke-width="4"/><path d="m695.64 97.32-3.43 26.32c0 12.99 3.15 23.44 9.46 31.59 6.24 8.07 15.4 13.64 28 17.04 8.34 2.25 18.311 3.53 30.311 3.89-35.28 12.39-66.15 5.35-74.41-14.07-4.82-11.34-5.021-22.98-5.021-36.11 0-13.43 7.17-22.06 15.09-28.66z" stroke-width="3"/><path d="m573.86 64.7h229.74v149.65h-228.37m-15.19-158.15c-4.33-1.92-7.22-5.4-7.22-9.38 0-6.06 6.75-10.98 15.069-10.98 8.32 0 15.07 4.92 15.07 10.98 0 3.88-2.75 7.29-6.92 9.24-2.35 1.11-5.15 1.75-8.15 1.75-2.879 0-5.559-.59-7.849-1.61z" stroke-width="7"/><path d="m560.04 55.9v.3l.44 264.22m15.56-265.07v265.07m53.35-255.07v149.72" stroke-width="7"/><g stroke-width="3"><path d="m731.1 132.77.68.21-.9-.91z"/><path d="m729.18 120.7-8.98 6.35-2.28 1.62 2.66.82 10.52 3.28"/><path d="m729.77 120.28-.59.42.01.72z"/><path d="m740.06 115.16-8.81-6.58-2.25-1.67.04 2.79.14 11"/><path d="m740.64 115.59-.58-.43-.69.23z"/><path d="m748.7 123.8 3.53-10.43.9-2.65-2.65.9-10.42 3.54"/><path d="m748.26 123.21.21 1.27.23-.68z"/><path d="m743.15 134.67 11 .14 2.8.04-1.67-2.24-6.58-8.81"/><path d="m743.57 134.08-1.14.58.72.01z"/><path d="m731.1 132.77 3.26 10.5.83 2.67 1.61-2.29 6.35-8.98"/></g><path d="m768.62 175.24c.02-.05.03-.1.03-.16m-.66.99c.06-.03.12-.07.17-.12.06-.04.109-.09.149-.14m-69.399-83.06c-.01-.03-.04-.04-.061-.06m68.781 80.87a.266.266 0 0 0 -.12-.03 1.606 1.606 0 0 0 -.22-.02" stroke-width="4"/><path d="m767.78 173.6c-.05-.02-.101-.03-.15-.04" stroke-width="3"/><path d="m768.64 174.61c-.05-.23-.149-.45-.31-.62-.03-.04-.07-.08-.11-.12-.13-.12-.279-.21-.439-.27" stroke-width="4"/><path d="m768.67 174.88c0-.09-.01-.18-.03-.27" stroke-width="3"/><path d="m697.97 92.35c-.319-.01-.62.09-.87.28" stroke-width="4"/><path d="m698.19 92.37c-.07-.01-.141-.02-.221-.02" stroke-width="3"/><path d="m698.51 92.47a1.39 1.39 0 0 0 -.22-.08c-.03-.01-.06-.02-.1-.02" stroke-width="4"/><path d="m698.67 92.56a.507.507 0 0 0 -.16-.09" stroke-width="3"/><path d="m699.32 93.73c0-.35-.13-.67-.351-.92-.02-.02-.04-.05-.06-.06-.021-.03-.04-.04-.061-.06a.582.582 0 0 0 -.18-.13" stroke-width="4"/><path d="m146.81 514.83s-.01 0-.01.01h-.01c-4.07 1.87-7.66 4.96-10.83 5.26-3.41.311-7.36-2.92-12.33-3.3-11.69-.88-25.8 5.57-31.53 4.94-11.36-1.24-26.14-10.5-37.1-15.351-.87-.38-1.72-.739-2.54-1.069-.01.01-.01.01-.01 0-.82-.32-1.61-.61-2.37-.86-1.14-.37-2.21-.65-3.2-.82h-.02c5.64 8.761 10.32 18.67 14.97 28.601 3.56 7.62 7.12 15.26 11.08 22.41 7.8 2.729 17.72 2.949 20.27 11.97.11.38.21.78.29 1.189.21-.18.43-.359.67-.51 1.5-1.06 3.43-1.58 6.18-1.13-1.81 15.7 5.66 28.95 0 39.49 3.74 5.71 11.94-3.03 15.08 1.64 1.38 8.851-1.87 13.97-2.74 26.34-8.68-4.05-27.05.87-26.04 8.221-17.63.739-20.46 31.26-17.57 47.859.06.36.12.71.19 1.04.27 1.37.58 2.63.92 3.75 13.2-11.05 30.21-9.33 47.99-6.58 2.41-1.479 2.26-6.05 5.48-6.58 5.51-1.13 7.82 1.58 12.33 1.641 3.87-1.641-4.35-1.54 0-4.931h5.49c1 7.21-2.73-1.319-2.75 3.29 1.55 2.92 14.47 3.601 13.9 4.24-.2.21-1.79.43-5.67.7-6.57-1.99-14.59-2.24-21.93-3.3-4.3-.771-3.87 4.14-5.48 6.58-21.77-3.4-34.74-2.83-50.73 6.59a2.83 2.83 0 0 1 -.42-.62c-.94-1.78.49-3.59.87-4.78.14-.439.14-.81-.19-1.04-.5-.37-1.75-.45-4.37-.149.92-15.891 5.2-27.75 6.86-42.771 13.03-3.569 21.51-21.33 38.38-14.81 4.36-8.17 4.06-17.55 4.11-24.69-4.51.521-11.23 3.811-15.08 0 5.13-11.189-.87-22.64 0-37.84-1.66-.31-3.23-1.1-4.81-2.16-.32-.22-.64-.439-.96-.68-5.34-3.88-10.93-10.22-20.27-10.33-4.98-7.39-8.05-15.771-11.08-24.05-3.82-10.41-7.57-20.67-14.97-28.601m156.37-15.059c-.5-9.74 1.96-22.88 2.64-32.65 11.77 2.051 7.91-14.649 17.82-14.819 5.84 6.26 19.63 3 24.68-1.641-1.38-4.01-6.07 3.221-5.49-4.939 1.98 4.91 3.46.1 6.85 3.3-3.16 9.09-20.02 10.78-27.41 4.92-6.97 2.6-5.17 15.75-15.08 14.82-.2 13.989-13.01 58.029-4.01 31.009v.02c-.08 1.28-.12 2.46-.1 3.521 0 .24.26.649.65 1.149 1.14 1.48 3.46 3.671 3.46 3.79-2.86 7.351-25.96 16.851-39.75 18.101-4.23.39-9.02-1.58-13.73-1.76-.91-.04-1.82-.011-2.72.119-1.45.2-2.86.681-4.22 1.311" stroke-width="7"/><path d="m146.81 514.83h.01c2.28-.54 4.59-1.021 6.94-1.43 18.19-3.21 38.21-3.23 52.11-14.7-1-1.431-1.67-3.28-2.09-5.431-.29-1.439-.47-3-.55-4.67m-156.35 15.041c14.68 0 28.43 14.4 43.84 16.46 14.69 1.95 30.15-10.159 45.24-1.649 3.43-1.53 7.07-2.69 10.83-3.61m283.33-24.121c-2.65.45-4.92 1.36-6.89 2.61-12.5 7.93-13.13 30.11-21.34 43.22-3.42.78-6.39 2.101-9.01 3.851-.86.569-1.67 1.18-2.45 1.84-10 8.39-14.39 23.51-20.06 37.09-12.02 3.13-22.81 7.729-35.64 9.88-.64-5.81-3.46-9.01-5.49-13.17-13.98 11.729-24.34 27.83-30.15 49.36 5.61 5.46 10.78 7.449 17.82 8.06.88.08 1.79.13 2.74.18-1.65 20.42-5.84 40.101 15.08 34.551-3.15 18.63 11.62 27.29 9.8 39.529-.23 1.57-.73 3.19-1.58 4.9-1.45 6.13 5.14 2.6 4.12 8.22-7.03-.21-6.95 8.12-15.08 6.58-1.15-1.91-1.81-4.41-1.37-8.22-.63.18-1.27.37-1.9.54-3.23.979-6.38 2.08-8.88 3.91-1.83 1.34-3.33 3.06-4.3 5.42-14.07-.9-25.57-5.19-37.01-4.931-3.1 1.221-.54 9.221-1.37 13.16-10.27-1.35-18.12.2-17.83 11.521-.19-.011-.38-.021-.56-.04-3.31-.4-4.45-3.4-5.95-5.971-.11-.189-.23-.38-.34-.569-.23.06-.45.12-.67.18-17.12 4.29-20.63-19.55-21.26-34.74-4.16-3.239-10.82-6.609-16.45-3.29-.46-6.029 1.52-9.14 2.74-13.159-5.91-21.62-29.05-2.5-41.13-9.881-1.7-.159-2.85.271-2.16.23-.01 0-.01.01-.02.01-.56.22-1 .601-1.33 1.12-.51.82-.71 2.01-.59 3.58-3.62-1.71-8.42-1.97-13.71-1.64-3.35 1.649 2.68 7.27-4.12 6.58-.12-2.591.28-4.391 1.05-5.641 3.24-5.16 12.91-.54 17.37-2.88.52-.28.97-.63 1.33-1.12m193.91-460.76c2.47-.77 4.77-2.45 6.55-4.7 1.55-1.97 2.71-4.37 3.24-7.03 17.29-4.7 40.06-12.72 56.19-4.93 8.99-8.99 28.45-13.4 37.88-3.8.66.67 1.271 1.41 1.82 2.21 1.229 1.8 2.189 3.97 2.8 6.52 12.51-8.23 22.95 20.47 13.71 27.97 1.26 5.07 9.311 1.97 6.851 11.52 4.909-.13 7.92-2.56 12.329-3.29 1.62 15.21 25.681 20.55 34.28 16.46 3.38 5.96-14.21 13.08-20.57 18.1 2.86 7.54-4.649 11.71-4.109 21.39-.92-.67-1.82-1.23-2.71-1.7-.061-.03-.11-.05-.17-.08-13-6.81-22.13 5.49-32.75 8.36-20.07-4.34-47.16-23.84-56.21 3.29.621 4.18 5.92 2.76 6.85 6.58 1.57 5.17-2.15 4-2.729 6.59.43 6.47 7.729-1.86 10.96 3.28 1.369 9.33-7.761 6.05-9.601 11.52-.01 1.04.141 1.91.391 2.63.22.64.529 1.17.89 1.64 1.64 2.13 4.41 2.9 5.58 5.61-.53 4.98-3.53 7-4.94 10.94-.229.67-.43 1.41-.55 2.22-.54 7.24 6.24 5.68 9.6 8.23-3.18 11.49 5.12 9.21 9.601 11.52.01 4.37-.521 9.39 1.37 11.52 5.16 1.26 6.55-2.01 10.96-1.66 3.53 2.9 5.92 7.16 9.6 9.88-5.7 15.04-21.54 7.98-27.42 23.04 6.12 8.18 1.66 12.79 1.37 24.68.34 4.24 2.36-2.26 5.49 0-1.34 1.7-2.7 3.351-4.08 4.98-6.93 8.149-14.37 15.66-20.601 24.64 1.07 3.66 2.881 6.42 2.74 11.521-.66.05-1.3.13-1.93.239" stroke-width="7"/><path d="m255.27 741.77c-.03-1.47-.32-2.63-1.42-2.829.02-3.86 3.74.6 2.74 3.3 3.61-2.95 7.25-8.061 17.82-6.58 3.1-1.24.54-9.24 1.37-13.17 15.95 1.229 30.46 5.14 44.06 1.16 3-.87 5.96-2.141 8.88-3.91a38.85 38.85 0 0 0 3.27-2.19v8.23c7.38 2.279 5.74-6.271 12.33-4.94-1.69-5.09-4.36-9.06 0-13.16-2.7-13.77-12.06-19.529-10.97-37.85-21.95 6.54-14.87-19.21-16.44-36.19-8.84 4.471-12.52-3.87-19.19-6.58 5.01-24.159 16.77-40.199 31.52-52.67 3.46 2.99 5.78 7.33 6.86 13.17 10.9-1.71 18.97-6.85 30.15-8.229 5.74-10.66 13.69-18.67 16.46-32.91 2.79-1.12 5.35-2.52 7.72-4.18.84-.561 1.66-1.19 2.45-1.84 11.96-9.73 18.32-26.181 22.73-44.98 2.63-.59 5.16-1.29 7.62-2.09 2.38-.771 4.67-1.63 6.89-2.61 0 .011 0 .011 0 0 .2-.069.38-.16.57-.239.89-6.03-2.971-6.311-2.75-11.521 8.18-7.19 11.529-20.18 21.93-24.69-7.92-8.27 5.05-21.84-4.11-27.97 3.271-13.62 17.37-14.26 26.04-21.39-.16-6.38-4.03-8.31-6.85-11.51-4.94.97-9.19 2.77-13.7 0 1.81-9.87-1.39-13.71-9.6-11.52 3.06-13.56-7.721-10.48-9.601-18.11.7-1.35 1.28-2.66 1.75-3.94 2.23-6.01 2.101-11.27-.47-16.47-.271-.55-.57-1.09-.89-1.64a32.047 32.047 0 0 0 -1.75-2.63c.93-6.01 9.079-3.35 9.579-9.86-2.59-5.49-8.77 2.84-10.96-1.66-1.17-5.24 1.2-6.24 2.74-8.22-.14-4.23-5.1-2.65-6.85-4.94 1.17-6.28 4.55-9.89 5.49-16.45 5.93 1.08 8.489-1.87 10.96-4.94 11.89 6.01 27.899 7.1 39.75 13.16 10.79-1.72 23.119-18.26 34.13-6.71.05.04.1.08.14.13.01-.02.021-.03.03-.05 2.63-5.86 7.399-13.25 5.46-19.69 7.09-3.55 11.78-9.98 19.189-13.16h-.01c-12.29-5.01-29.54-4.03-32.899-19.75-3.66 1.63-7.221 3.39-12.33 3.29 2.649-9.76-5.04-7.11-6.851-11.52.521-.51.971-1.06 1.37-1.65 5.65-8.26-.439-23.65-6.85-27.97-4.2-1.2-4.04 2.84-8.23 1.65-1.35-1.68-1.53-4.76-1.43-8.17.01-.56.03-1.13.06-1.71-.63-.17-1.26-.33-1.88-.5-13.92-3.63-26.399-6.54-36.51 5.44-22.05-7.2-43.71-.89-60.8 10.32a90.49 90.49 0 0 0 -6.55 4.7l-.01.01c-.01 0-.01 0-.02.01-7 5.47-12.99 11.67-17.61 17.87 18.98 16.35 13.75 46.97-3.51 63.01-1.07 1-2.18 1.94-3.34 2.81.21.29.42.56.62.83 18.87 25.93-18.56 28.67-33.52 23.86 4 10.01 11.49 15.83 13.71 27.96-6.26 5.66-11.11 12.99-23.3 11.52-2.69 8.29-1.11 17.81-8.23 24.69 2.84 8.46-1.55 15.86 2.74 23.03-6.15 3.58-8.2 12.1-15.08 14.81-4.32-1.391-3.89-8.48-8.22-9.87.92 5.21-6.75 2.11-10.97 0-4.71 5.649-13.54 12.11-17.82 13.16-1.77-6.561 15.85-3.98 15.08-14.81 8.91 2.2 18.57-2.71 20.57 9.87 13.66-5.99 15.8-17.74 12.33-34.55 5.29-9.73 6.13-17.06 8.23-26.33.45-.08.89-.18 1.33-.27 8.91-1.84 16.9-4.8 21.97-11.25-2.11-12.27-10.32-17.23-13.7-27.96 1.33-.06 1.06-2.03 1.36-3.3 14.41 8.08 51.1 3.21 31.53-18.1.67-.8 1.33-1.61 1.99-2.46.92-1.18 1.83-2.39 2.72-3.64 13.5-18.88 22.9-45.47 2.14-61.36 1.54-9.69 12.26-8.33 12.34-19.76 2.17.91 4.47.92 6.64.24m-193.857 460.728c.35-.5.63-1.11.79-1.87 13.84 8.1 21.56-4.35 32.9-8.229-4.63 3.859-.65 2.96-6.85 4.93 1.69 2.359 4.72 3.12 8.23 3.3.5-2.79-1.05-3.11-2.74-3.3 6.09-5.07 5.42 6.63 12.33 13.16-1.48 4.92-1.76 10.08-2.74 11.52 3.36-.57 10.02 2.8 16.45 3.3-2.32 7 2.5 16.431 2.74 24.681 4.69 9.79 11.14 11.1 17.15 13.35.35.12.68.25 1.01.39.82.32 1.62.671 2.4 1.07.04-.72.07-1.439.05-2.09m-208.41-238.152-22.11-66.89m45.41 257.77-1.79 1.02-19.62 11.21m0 0-12-8" stroke-width="7"/><path d="m253.85 738.94 1.42 2.83v.02l3.5 6.99 9.98 19.97m198-574 66-12" stroke-width="7"/></g><path d="m1.25.75h850.394v850.394h-850.394z"/></g></svg>