<svg height="850.89" viewBox="0 0 850.89 850.89" width="850.89" xmlns="http://www.w3.org/2000/svg"><path d="m653.31 265v134.06h-232.47c-3.96 62.209-.57 131.78-1.71 196.83-26.53 8.851-78.65 19.931-81.44 50.91-.62 6.92 3.99 13.2 5.08 20.37 3.99 26.05 1.88 58.12 5.1 89.93h-276.6c-3.76 13.011-11.93 27.48-8.48 42.42-10.71-15.39 2.53-42.149 5.09-64.479 2.49-21.79 5.72-38.6 16.97-49.21 3.65-5.05 8.8.15 15.27-3.39 9.52-15.37 9.42-40.351 23.75-50.91-1.58-27.73 21.63-43.49 28.85-67.88-7.63-6.101-12.47 22.08-15.26 15.27 2.86-4.17 2.58-2.83 3.38-13.57 14.54-11.29 29.15-21.43 42.43-35.64 4.17-4.47 5.92-11.65 10.18-15.27 4.66-3.95 11.05-3.29 15.28-8.48 10.19-12.52 5.9-32.04 8.48-50.91 3.7-27.02 27.87-51.76 27.15-74.66 17.82-21.02 53.24-20.65 66.18-45.82 4.01-7.81 2.63-20.23 6.78-30.54 5.58-13.85 17.01-21.47 16.97-37.34 102.95-3.951 213.25-.561 319.02-1.691z" fill="#fff5b4"/><path d="m803.2 57.18v38.78h-135.23l-.31.35-44.41-39.13z" fill="#231f20"/><path d="m722.29 100.9c-28.93 14.47-10.5 27.16-1.85 30.24 2.08 0-15.44-13.58 1.85-30.24zm-54.32-4.94h135.231v41.97h-.67l-131.95-.61 23.32-17.9-26.24-23.11zm68.24 22.1 4.59-4.48-6.34-.92-2.84-5.75-2.84 5.75-6.34.92 4.59 4.48-1.09 6.32 5.68-2.99 5.68 2.99z" fill="#fff"/><path d="m736.21 118.06 1.09 6.32-5.68-2.99-5.68 2.99 1.09-6.32-4.59-4.48 6.34-.92 2.84-5.75 2.84 5.75 6.34.92zm-15.77 13.08c-8.65-3.08-27.08-15.77 1.85-30.24-17.29 16.66.23 30.24-1.85 30.24z" fill="#ed1e29"/><path d="m624.77 172.5 45.81-35.18 131.95.61h.67v36.47h-178.88l-.02-1.9z" fill="#58b947"/><path d="m670.58 137.32-45.81 35.18h-.47l-1.06-115.32h.01l44.41 39.13 26.24 23.11z" fill="#ed1e29"/><path d="m622.48 49.18c-1.83.87-4.03 1.37-6.381 1.37-2.25 0-4.359-.46-6.149-1.26-3.391-1.51-5.66-4.23-5.66-7.35 0-4.75 5.29-8.6 11.81-8.6 6.521 0 11.811 3.85 11.811 8.6-.001 3.04-2.161 5.71-5.431 7.24z" fill="#c8c8c8"/><path d="m616.1 50.55c2.351 0 4.551-.5 6.381-1.37v207.07h-12.181l-.35-206.96c1.79.8 3.9 1.26 6.15 1.26z" fill="#c8c8c8"/><g fill="none"><g stroke="#231f20"><path d="m623.25 57.18h179.95v117.22h-178.88" stroke-width="4"/><path d="m609.95 49.29c-3.391-1.51-5.66-4.23-5.66-7.35 0-4.75 5.29-8.6 11.81-8.6 6.521 0 11.811 3.85 11.811 8.6 0 3.04-2.16 5.71-5.43 7.24-1.83.87-4.03 1.37-6.381 1.37-2.25 0-4.36-.46-6.15-1.26z" stroke-width="7"/><path d="m609.95 49.05v.24l.35 206.96m12.18-207.63v207.63" stroke-width="7"/><path d="m693.9 119.42-26.24-23.11-44.41-39.13h-.01m70.66 62.24-23.32 17.9-45.81 35.18m43.2-76.54h135.17" stroke-width="4"/><path d="m670.44 137.32h.14l131.95.61" stroke-width="4"/><path d="m740.8 113.58-4.59 4.48 1.09 6.32-5.68-2.99-5.68 2.99 1.09-6.32-4.59-4.48 6.34-.92 2.84-5.75 2.84 5.75zm-18.51-12.68c-28.93 14.47-10.5 27.16-1.85 30.24m1.85-30.24c-17.29 16.66.229 30.24-1.85 30.24"/><path d="m334.29 266.69c.04 15.87-11.39 23.49-16.97 37.34-4.15 10.31-2.77 22.73-6.78 30.54-12.94 25.17-48.36 24.8-66.18 45.82.72 22.9-23.45 47.64-27.15 74.66-2.58 18.87 1.71 38.391-8.48 50.91-4.23 5.19-10.62 4.53-15.28 8.48-4.26 3.619-6.01 10.8-10.18 15.27-13.28 14.21-27.89 24.35-42.43 35.64-.8 10.74-.52 9.4-3.38 13.57 2.79 6.811 7.63-21.37 15.26-15.27-7.22 24.39-30.43 40.149-28.85 67.88-14.33 10.56-14.23 35.54-23.75 50.91-6.47 3.54-11.62-1.66-15.27 3.39-11.25 10.61-14.48 27.42-16.97 49.21-2.56 22.33-15.8 49.09-5.09 64.479-3.45-14.939 4.72-29.409 8.48-42.42h276.6c-3.22-31.81-1.11-63.88-5.1-89.93-1.09-7.17-5.7-13.45-5.08-20.37 2.79-30.979 54.91-42.06 81.44-50.91 1.14-65.05-2.25-134.62 1.71-196.83h232.47v-134.06c-105.77 1.131-216.07-2.259-319.02 1.691z" stroke-width="5"/></g><path d="m.25.25h850.394v850.394h-850.394z"/></g></svg>