<svg height="850.89" viewBox="0 0 850.89 850.89" width="850.89" xmlns="http://www.w3.org/2000/svg"><path d="m796.3 96.87 1.51 2.66-2.37 1.34-.01-.02v-3.49zm0 0-.87.49v-2.04zm-.87 60.55h.79v6.11h-.79zm0 51.52h.79v6.12h-.79zm0 33.48v4.59h-4.59zm-3-146.87 2.37-1.34.63 1.11v2.04l-1.5.85zm3-9.81-4.59-4.58h4.59z" fill="#231f20"/><path d="m793.93 98.21 1.5-.85v3.49zm-3.09 59.21h4.59v6.11h-4.59zm0 6.11h4.59v9.61h-4.59zm0 15.72h4.51v-6.11h.08v18.34h-4.59zm2.76 18.34v-6.11h1.83v17.46h-4.59v-11.35zm-2.76 11.35h4.59v6.12h-4.59zm0 6.12h4.59v27.36h-4.59z" fill="#231f20"/><path d="m795.43 242.42-4.59 4.59v-4.59z" fill="#231f20"/><path d="m795.43 251.59h-251.1v-4.58h251.1v-31.95h.79v-6.12h-.79v-45.41h.79v-6.11h-.79v-56.57l.01.02 2.37-1.34h2.2v152.06z" fill="#231f20"/><path d="m790.84 173.14h4.51v6.11h-4.51zm0 18.34h2.76v6.11h-2.76zm0-110.32 4.59 4.58h-4.59zm3.96 13.05-2.37 1.34h-1.59v-9.81h4.59v9.58zm-.87 4 1.5 2.64v56.57h-4.59v-61.87h1.59zm-249.6 144.21h246.51v4.59h-246.51z" fill="#231f20"/><path d="m790.84 197.59v11.35h-108.36v-2.96l-.3-1.75-.99-5.8.86-.84z" fill="#fff"/><path d="m790.84 173.14v6.11h-110.76l-.47-2.75 3.45-3.36z" fill="#231f20"/><path d="m790.84 163.53v9.61h-107.78l.76-.74 1.27-1.24-1.75-.25-5.81-.85-2.61-5.27-.62-1.26z" fill="#fff"/><path d="m544.33 81.16h246.51v4.58h-246.51z" fill="#231f20"/><path d="m790.84 81.16h-246.51v-4.59h255.68v22.96h-2.2l-1.51-2.66-.87-1.55v-14.16zm-106.36 112.85.18.56-.66-.09z" fill="#231f20"/><path d="m684.36 193.65.43.06-.31.3zm-.18-.57.18.57-.66-.1z" fill="#231f20"/><path d="m684.36 193.65.12.36-.48.47-1.09-.16.79-.77zm-1.94-21.11.48-.47.19.57z" fill="#231f20"/><path d="m682.79 171.71.42.06-.31.3zm-.67-.09.48-.48.19.57z" fill="#231f20"/><path d="m682.12 171.62.67.09.11.36-.48.47-1.09-.16zm-.99 31.68.6.31-.48.35z" fill="#231f20"/><path d="m682.42 172.54-.61.6h-1.25l.77-.76zm-1.17 31.42.07.42-.38-.2zm-.39-5.2.25-.78.08.45z" fill="#231f20"/><path d="m681.13 203.3.12.66-.31.22-.59-.31-.19-1.09z" fill="#231f20"/><path d="m680.35 203.87.59.31-.48.35zm-.8-6.28h1.25l-.55.54.88 5.17-.97-.52-.78-4.5-.07-.45zm.01-16.23.59.31-.48.35zm.11.66.08.42-.38-.2zm1.13 15.57h-1.25l.09-.08 3.27-3.19 1.09.16zm-1.52-20.77.25-.77.08.45zm-.51 5.11.6.31-.48.35z" fill="#231f20"/><path d="m679.2 179.25-.53-3.05 3.14-3.06h1.25l-3.45 3.36-.08-.45-.25.77.33-.32.47 2.75zm.36 2.11.11.66-.3.22-.6-.31-.18-1.08zm-.72 10.12h112v6.11h-108.79l3.35-3.26 1.26-1.23-1.75-.25-5.81-.85z" fill="#231f20"/><path d="m679.3 192.41-.66-.48.46.07zm-.99-13.16-.5-2.91-.08-.45.34-.32 2.49-2.43h1.25l-3.14 3.06.53 3.05z" fill="#231f20"/><path d="m683.7 193.55-5.19-.75-.65-1.32h.98l.26.52-.46-.07.66.48-.2-.41 5.81.85 1.75.25-1.26 1.23-3.35 3.26h-1.25l3.2-3.11.66.09-.18-.56.31-.3-.43-.06-.18-.57zm-5.11-12.7-.28-1.6h.89l.36 2.11z" fill="#231f20"/><path d="m678.59 180.85-3.03-1.6h2.75z" fill="#fbed24"/><path d="m678.51 192.8 5.19.75-.79.77-4.52-.66-.45-.06-.21-.42-.84-1.7h.97zm-.98-22.74.2.41-.66-.47z" fill="#231f20"/><path d="m675.71 189.09 1.18 2.39h-2.36z" fill="#fbed24"/><path d="m676.16 171.24-2.02-4.09.48-.99 2.32 4.7 5.18.76-.79.76-4.52-.66-.45-.06zm.73 20.24-1.18-2.39.48-.99 1.67 3.38zm-.7-3.38-.29-.6h.59zm-.48-.99.19.39h-.38z" fill="#231f20"/><path d="m676.49 186.72-.78-1.58 1.58-3 2.05 1.08 1.56.82-.29-1.74-.53-3.05h110.76v12.23h-112z" fill="#ed1e29"/><path d="m675.3 202.2h.81l-.4.22zm.6-14.7.29.6-.48.99-.49-.99.3-.6z" fill="#231f20"/><path d="m675.52 187.5-.3.6-.29-.6zm-1.96 3.98 1.66-3.38.49.99-1.18 2.39zm1.36-25.92-.3.6-.29-.6zm-1.19 13.16.41-.21.4.21 1.02.53h-2.84zm.41-13.55.19.39h-.39zm0-1.97.16.33h-.33zm-.41 17.07h.81l-.4.21z" fill="#231f20"/><path d="m673.94 165.56h.39l.29.6-.48.99-.49-.98z" fill="#231f20"/><path d="m671.26 202.78.77-4.5.08-.45-.24-.24h7.68l-.24.24.07.45.78 4.5-4.05-2.12-.4-.22-.41.22z" fill="#fbed24"/><path d="m673.94 165.56-.29.61-.3-.61zm-1.36 25.92 2.35-4.76.78-1.58.78 1.58 2.35 4.76h-.98l-1.67-3.38.3-.6h-.59l-.19-.39-.19.39h-.59l.29.6-1.66 3.38zm.2.45-.66.48.2-.41z" fill="#231f20"/><path d="m672.72 179.25-3.04 1.6.28-1.6zm6.83 18.34h-7.68l-.09-.08-3.27-3.19 4.52-.66.45-.06.21-.42.84-1.7h2.36l.84 1.7.21.42.45.06 4.52.66-3.27 3.19z" fill="#fbed24"/><path d="m675.71 201.43-4.64 2.44.19-1.09 4.04-2.12.41-.22.4.22 4.05 2.12.19 1.09zm-4.33 10.92.18.56-.66-.09z" fill="#231f20"/><path d="m671.26 211.99.43.06-.31.3zm-.97-8.69.88-5.17-.56-.54h1.26l.24.24-.08.45-.77 4.5zm.32-5.71-3.19-3.11 1.09-.16 3.27 3.19.09.08zm.59-27.59-.65.47.2-.41zm-.6 41.89.48-.47.18.57zm-.12-7.71.59-.31-.11.66z" fill="#231f20"/><path d="m671.07 203.87-.59.31-.31-.22.12-.66.97-.52zm-.47 8.02.66.1.12.36-.48.47-1.09-.16zm-.43-7.93.31.22-.38.2z" fill="#231f20"/><path d="m670.21 175.57-2.5-2.43h12.85l-2.49 2.43-.34.32.08.45.5 2.91h-2.75l-1.02-.53-.4-.21-.41.21-1.01.53h-2.76l.5-2.91.07-.45z" fill="#fbed24"/><path d="m670.31 197.98.25.78-.33-.33zm-.02 5.32-.12.66-.48-.35z" fill="#231f20"/><path d="m669.24 204.23.99-5.8.33.33-.25-.78-.08.45-.87-.84h1.25l.56.54-.88 5.17-.6.31.48.35-.07.42.38-.2.48.35.11-.66 4.64-2.44 4.64 2.44.11.66.48-.35.38.2-.07-.42.48-.35-.6-.31-.88-5.17.55-.54h1.25l-.86.84-.08-.45-.25.78.33-.33.99 5.8.3 1.75-1.57-.83-5.2-2.73.4-.22h-.81l.41.22-5.21 2.73-1.56.83zm.44-23.38 3.04-1.6h2.84l3.03 1.6.18 1.08-4.63-2.44-4.64 2.44z" fill="#231f20"/><path d="m669.07 179.25h.89l-.28 1.6-.97.51zm.43 2.68-.11.66-.48-.35z" fill="#231f20"/><path d="m669.68 180.85-.18 1.08-.59.31-.31-.22.11-.66z" fill="#231f20"/><path d="m665.31 208.94-1.92-3.88-.78-1.58-.78 1.58-1.92 3.88h-43.9l-.59-1.2-.79-1.59-.78 1.59-.59 1.2h-7.63v-1.21l-.3-1.75-.99-5.8 2.66-2.59h62.36l.87.84-.99 5.8-.3 1.75 1.56-.83 5.21-2.73 5.2 2.73 1.57.83v2.96z" fill="#fff"/><path d="m668.6 182.02.31.22-.38.2zm.14-5.97.24.77-.32-.32zm-.08.45-.47 2.75h-62.81l-.17-.99 4.21-4.1 1.04-1.02h54.75zm-.54 5.17.59-.31-.11.66zm.51 40.28-.48.35-.12-.66zm-1.28-6.89 2.46-2.4 1.09.16-2.3 2.24zm1.16-20.74-.79-.77 5.19-.75.65-1.32h.97l-.84 1.7-.21.42-.45.06zm-.92-42.64.48-.47.18.56zm.56 70.62.07.42-.38-.2z" fill="#231f20"/><path d="m668.19 179.25h.88l-.36 2.11-.59.31.48.35-.07.42.38-.2.48.35.11-.66 4.64-2.44 4.63 2.44.12.66.48-.35.38.2-.08-.42.48-.35-.59-.31-.36-2.11h.88l.53 3.05.29 1.74-1.56-.82-2.05-1.08-3.15-1.66.4-.21h-.81l.41.21-5.21 2.74-1.57.82.31-1.74zm-.24-28.4.43.06-.31.3zm-.19 66.25.25-.78.08.45zm.01-66.81.18.56-.66-.1zm-.72 43.36.19-.57.48.47z" fill="#231f20"/><path d="m667.71 173.14-.77-.76 4.52-.66.45-.06.21-.42 2.02-4.09 2.02 4.09.2.42.45.06 4.52.66-.77.76z" fill="#fbed24"/><path d="m669.6 176.2-3.14-3.06h1.25l2.5 2.43.32.32-.07.45-.5 2.91h-.89zm-2.35 46.01-.19-1.09.97.52.12.66-.31.22z" fill="#231f20"/><path d="m667.25 222.21.59.31-.48.35zm-.2-28.56.67-.1.79.77-1.09.16-.48-.47z" fill="#231f20"/><path d="m666.76 194.57.18-.56.48.47zm.83-42.89-1.09-.16.79-.77.66.1.12.36zm-.44 64.79.88 5.17-.97-.52-.77-4.5-.08-.45.33-.32.81-.79h1.25z" fill="#231f20"/><path d="m667.05 193.65-.11.36-.31-.3zm-.9-22.03 5.18-.76 2.32-4.69.49.98-2.02 4.09-.21.42-.45.06-4.52.66z" fill="#231f20"/><path d="m666.02 194.33-1.27-1.23 1.75-.25 5.82-.85-.2.41.66-.48-.46.07.26-.52h.98l-.65 1.32-5.19.75-.48-.47-.19.57-.42.06.31.3-.18.56.66-.09 3.19 3.11h-1.25zm.92-21.95.77.76h-1.25l-.62-.6zm1.72 4.12-3.45-3.36h1.25l3.14 3.06-.53 3.05h-.88l.47-2.75.32.32-.24-.77zm-2.51-4.88-.67.09.19-.57zm-.08-8.09h-13.54v-.35l1.57-.83 5.2-2.73 5.2 2.73 1.57.83zm-.76 45.41h125.53v6.12h-120.99l2.45-2.39 1.26-1.23-1.75-.26-5.81-.84zm.69 1.4.2.41-.66-.48z" fill="#231f20"/><path d="m665.08 157.42h125.76v6.11h-116.54l-.16-.33-.17.33h-7.9v-.35l-.3-1.75zm1.86 14.96-1.1.16-.48-.47.12-.36.67-.09zm-1.76.26.18-.57.48.47z" fill="#231f20"/><path d="m665.36 172.07-.3-.3.42-.06zm.05 39.07-1.08-2.2h.98l.69 1.4-.46-.07.66.48-.2-.41 5.81.84 1.75.26-1.26 1.23-2.45 2.39h-1.25l2.3-2.24.66.09-.18-.56.31-.3-.43-.06-.18-.57-.48.47z" fill="#231f20"/><path d="m664.45 172.4-1.27-1.24 1.75-.25 5.82-.85-.2.41.65-.47-.45.06 2.6-5.27.62-1.26h.33l.62 1.26 2.61 5.27-.46-.06.66.47-.2-.41 5.81.85 1.75.25-1.27 1.24-.76.74h-1.25l.61-.6.67.1-.19-.57.31-.3-.42-.06-.19-.57-.48.48-5.18-.76-2.32-4.7.3-.6h-.59l-.19-.39-.2.39h-.59l.3.61-2.32 4.69-5.18.76-.48-.48-.19.57-.42.06.3.3-.18.57.66-.1.62.6h-1.25zm.28-11.9.59.31-.48.35zm.11.66.08.42-.39-.2zm-.39-5.2.25-.78.08.46zm.08 5.42-.48.35-.11-.66z" fill="#231f20"/><path d="m664.73 160.5.11.66-.31.22-.59-.31-.19-1.09zm-.1 51.02-1.27-2.58h.97l1.08 2.2 5.19.75-.79.77-4.52-.66-.45-.06zm-1.4-56.81 3.27-3.19 1.09.16-3.75 3.65.36 2.09h-.89l-.33-1.94-.08-.45z" fill="#231f20"/><path d="m663.31 157.42h.89l.53 3.08-.98-.52z" fill="#231f20"/><path d="m662.61 207.42.75 1.52h-1.5z" fill="#fbed24"/><path d="m663.09 206.44 1.24 2.5h-.97l-.75-1.52zm.3-.6-.3.6-.29-.6zm-.78-.39.19.39h-.38zm.08-56.25.2.41-.66-.48zm-.49 71.34h.82l-.41.22zm.6-14.7.29.6-.48.98-.48-.98.29-.6z" fill="#231f20"/><path d="m662.42 205.84-.29.6-.3-.6zm-1.53 3.1 1.24-2.5.48.98-.75 1.52z" fill="#231f20"/><path d="m662.13 206.44-1.24 2.5h-.98l1.92-3.88.78-1.58.78 1.58 1.92 3.88h-.98l-1.24-2.5.3-.6h-.59l-.19-.39-.19.39h-.59zm-2.34-61.14 2.32 4.7 5.18.75-.79.77-4.52-.66-.45-.06-.2-.41-2.03-4.1zm.29-.6-.29.6-.3-.6z" fill="#231f20"/><path d="m659.3 157.42h4.01l.44 2.56-4.04-2.12-.41-.22z" fill="#fbed24"/><path d="m659.68 210.27-.66.48.2-.41z" fill="#231f20"/><path d="m658.93 216.62.08-.45-.33-.32-.81-.79h9.48l-.81.79-.33.32.08.45.77 4.5-4.04-2.12-.41-.22-.41.22-4.04 2.12z" fill="#fbed24"/><path d="m659.3 144.31.19.39h-.38zm0 15.31-.41-.22h.82zm0-13.33-.49-.99.3-.6h.38l.3.6z" fill="#231f20"/><path d="m659.11 144.7-.3.6-.29-.6z" fill="#231f20"/><path d="m658.89 157.86-4.04 2.12.44-2.56h4.01v.22z" fill="#fbed24"/><path d="m662.61 219.77-4.64 2.44.19-1.09 4.04-2.12.41-.22.41.22 4.04 2.12.19 1.09zm-4.64 2.44-.11.66-.48-.35z" fill="#231f20"/><path d="m667.35 215.06h-9.48l-2.46-2.4 4.52-.66.45-.06.21-.42 1.27-2.58h1.5l1.27 2.58.21.42.45.06 4.52.66z" fill="#fbed24"/><path d="m659.01 216.17-.08.45-.77 4.5-.97.52.88-5.17-1.45-1.41h1.25l.81.79zm-.85 4.95-.19 1.09-.59.31-.31-.22.12-.66z" fill="#231f20"/><path d="m657.07 222.3.31.22-.38.2zm.14-5.98.25.78-.33-.33zm-.59-1.26-2.3-2.24 1.09-.16 2.46 2.4zm.57 6.58-.12.66-.48-.35z" fill="#231f20"/><path d="m656.14 222.57.99-5.8.33.33-.25-.78-.08.45-1.76-1.71h1.25l1.45 1.41-.88 5.17-.6.31.48.35-.07.42.38-.2.48.35.11-.66 4.64-2.44 4.64 2.44.11.66.48-.35.38.2-.07-.42.48-.35-.6-.31-.88-5.17 1.45-1.41h1.25l-1.76 1.71-.08-.45-.25.78.33-.33.99 5.8.3 1.75-1.57-.83-5.2-2.73.41-.22h-.82l.41.22-5.21 2.73-1.56.83zm-.22-73.37.45-.07-.66.48z" fill="#231f20"/><path d="m655.62 155.48.08-.45-.33-.32-3.27-3.19 4.52-.66.46-.06.2-.41 2.02-4.1 2.03 4.1.2.41.45.06 4.52.66-3.27 3.19-.33.32.08.45.33 1.94h-8.02z" fill="#fbed24"/><path d="m654.62 211.89 5.19-.75 1.08-2.2h.97l-1.27 2.58-.21.42-.45.06-4.52.66zm.14-56.56-3.75-3.65 1.09-.16 3.27 3.19.33.32-.08.45-.33 1.94h-.89zm4.54 3.3-4.63 2.44.18-1.09 4.04-2.12.41-.22.41.22 4.04 2.12.19 1.09z" fill="#231f20"/><path d="m655.29 157.42-.44 2.56-.97.51.52-3.07zm-.67 54.47-.66.1.18-.57zm-.55-50.51.6-.31-.12.66z" fill="#231f20"/><path d="m653.77 161.16.11-.67.97-.51-.18 1.09-.6.31zm.85 50.73.79.77-1.09.16-.48-.47.12-.36z" fill="#231f20"/><path d="m653.66 212.91.18-.56.48.47zm.11-51.75.3.22-.38.2zm.13-5.98.25.78-.33-.32zm.06 56.81-.12.36-.31-.3zm-.08-51.5-.11.67-.49-.35z" fill="#231f20"/><path d="m653.84 212.35-.18.56.66-.09 2.3 2.24h-1.25l-2.45-2.39-1.27-1.23 1.75-.26 5.82-.84-.2.41.66-.48-.46.07.69-1.4h.98l-1.08 2.2-5.19.75-.48-.47-.18.57-.43.06zm-.07-51.19-.08.42.38-.2.48.35.12-.66 4.63-2.44 4.64 2.44.11.66.48-.35.39.2-.08-.42.48-.35-.59-.31-.53-3.08h.88l.69 4.01.3 1.75-1.57-.83-5.2-2.73.41-.22h-.82l.41.22-5.2 2.73-1.57.83.3-1.75.69-4.01h.88l-.52 3.07-.6.32zm2.85-10.3-4.52.66-.79-.77 5.19-.75 2.31-4.7.49.99-2.02 4.1-.2.41zm-5.31-.11-.66.1.18-.56z" fill="#231f20"/><path d="m652.1 151.52-1.09.16-.48-.47.12-.36.66-.1z" fill="#231f20"/><path d="m650.53 151.21.48.47-.66.09zm-.3-.3.42-.06-.12.36z" fill="#231f20"/><path d="m653.52 157.42.3-1.78.33.32-.25-.78-.08.46-4.21-4.11-1.27-1.23 1.76-.25 5.82-.85-.21.41.66-.48-.45.07 2.6-5.27.78-1.59.78 1.59 2.61 5.27-.46-.07.66.48-.2-.41 5.81.85 1.75.25-1.26 1.23-4.21 4.11-.08-.46-.25.78.33-.32.3 1.78h-.88l-.36-2.09 3.75-3.65.66.09-.18-.56.31-.3-.43-.06-.18-.56-.48.46-5.18-.75-2.32-4.7.29-.6h-.59l-.19-.39-.19.39h-.59l.29.6-2.31 4.7-5.19.75-.48-.46-.18.56-.42.06.3.3-.18.56.66-.09 3.75 3.65-.36 2.09z" fill="#231f20"/><path d="m606.19 157.42h-61.86v-71.68h246.51v71.68h-125.76l-.3-1.78 4.21-4.11 1.26-1.23-1.75-.25-5.81-.85-2.61-5.27-.78-1.59-.78 1.59-2.6 5.27-5.82.85-1.76.25 1.27 1.23 4.21 4.11-.3 1.78h-10.41v-1.71l-.3-1.74-.99-5.8 4.21-4.11 1.26-1.23-1.75-.26-5.82-.84-2.6-5.27-.78-1.59-.79 1.59-2.6 5.27-5.82.84-1.75.26 1.27 1.23 4.21 4.11-.99 5.8-.3 1.74v1.71h-11.84l-.29-1.72 4.21-4.1 1.26-1.24-1.75-.25-5.81-.85-2.61-5.27-.78-1.59-.78 1.59-2.61 5.27-5.82.85-1.75.25 1.27 1.24 4.21 4.1z" fill="#394ea1"/><path d="m647.04 219.9.18.56-.66-.09zm-.12-.36.42.06-.3.3zm-.18-.57.18.57-.66-.1z" fill="#231f20"/><path d="m646.92 219.54.12.36-.48.47-1.09-.16.79-.77zm-1.81-75.8.18.56-.66-.09zm-.12-.36.42.06-.3.3zm-.18-.57.18.57-.66-.1z" fill="#231f20"/><path d="m644.63 144.21-1.09-.16.79-.77.66.1.12.36zm-.94 84.98.59.31-.48.35zm-.2.88.31-.22.08.42zm-.08-5.42.26-.77.08.45zm.08 5.42-.47.35-.12-.66z" fill="#231f20"/><path d="m643.8 229.85-.31.22-.59-.31-.18-1.08.97.51z" fill="#231f20"/><path d="m642.81 224.03.88 5.16-.97-.51-.77-4.51-.08-.45.33-.32 3.27-3.19 1.09.16zm-1.05-71 .59.31-.48.35zm.11.66.08.42-.38-.2zm-.39-5.2.26-.77.08.45z" fill="#231f20"/><path d="m604.95 215.35 4.21 4.1-1 5.79-.3 1.75 1.57-.82 5.2-2.74 5.21 2.74 1.56.82-.29-1.75-1-5.79 4.21-4.1.3-.29h11.66l-1.4 2.83-5.82.84-1.75.26 1.27 1.24 4.21 4.1-1 5.8-.29 1.74 1.56-.82 5.21-2.74 5.2 2.74 1.57.82-.3-1.74-.99-5.8 4.21-4.1 1.26-1.24-1.75-.26-5.82-.84-1.4-2.83h15.12l1.76 1.71-.99 5.8-.3 1.75 1.56-.83 5.21-2.73 5.2 2.73 1.57.83-.3-1.75-.99-5.8 1.76-1.71h120.99v27.36h-246.51v-27.36h60.32z" fill="#394ea1"/><path d="m641.86 218.3-.66-.47.45.06zm-.89-64.7.6.31-.48.35zm0 0-.18-1.08.97.51.11.66-.3.22z" fill="#231f20"/><path d="m640.88 147.87.88 5.16-.97-.51-.77-4.51-.08-.45.33-.32 3.27-3.19 1.09.16zm-1.16-6.14.21.41-.66-.47zm-1.41 73.33h.97l1.79 3.63 5.19.75-.79.77-4.52-.66-.46-.07-.2-.41zm-.04-6.12h21.64l-.69 1.4-5.82.84-1.75.26 1.27 1.23 2.45 2.39h-15.12l-1.2-2.44-.78-1.59z" fill="#231f20"/><path d="m638.75 213.99.53 1.07h-.97l-.04-.09zm.3-.6-.3.6-.3-.6zm-.78-.39.18.39h-.37z" fill="#231f20"/><path d="m638.27 214.97.04.09h-.08z" fill="#fff"/><path d="m637.86 228.1h.81l-.4.21zm.22-14.71h.37l.3.6-.48.98-.49-.98z" fill="#231f20"/><path d="m638.08 213.39-.3.6-.3-.6zm-.3.6.49.98-.04.09h-.98z" fill="#231f20"/><path d="m638.27 213-.19.39h-.6l.3.6-.53 1.07h-.97l1.2-2.44.79-1.59.78 1.59 1.2 2.44h-.97l-.53-1.07.3-.6h-.6zm.09-70.08-2.02-4.1.49-.99 2.31 4.7 5.19.75-.79.77-4.52-.66-.46-.06zm-1.24-5.69-.29.6-.31-.6zm-.78-.38.18.38h-.37zm-.41 15.09h.81l-.4.21z" fill="#231f20"/><path d="m636.34 138.82-.49-.99.3-.6h.37l.31.6z" fill="#231f20"/><path d="m635.85 137.83-.3-.6h.6z" fill="#231f20"/><path d="m635.58 219.55.46-.07.21-.41 1.98-4.01h.08l1.98 4.01.2.41.46.07 4.52.66-3.27 3.19-.33.32.08.45.77 4.51-4.05-2.13-.4-.21-.41.21-4.04 2.13.77-4.51.07-.45-.32-.32-3.28-3.19z" fill="#fbed24"/><path d="m634.88 217.89.46-.06-.66.47zm3.39 9.43-4.64 2.44.19-1.08 4.04-2.13.41-.21.4.21 4.05 2.13.18 1.08zm-4.54-3.29-3.76-3.66 1.09-.16 3.28 3.19.32.32-.07.45-.77 4.51-.98.51zm-.1 5.73-.11.66-.48-.35z" fill="#231f20"/><path d="m632.66 148.01.08-.45-.33-.32-3.27-3.19 4.52-.66.45-.06.2-.41 2.03-4.1 2.02 4.1.2.41.46.06 4.52.66-3.27 3.19-.33.32.08.45.77 4.51-4.05-2.13-.4-.21-.41.21-4.04 2.13z" fill="#fbed24"/><path d="m632.73 229.85.11-.66.98-.51-.19 1.08-.59.31zm.68-88.18-.66.47.2-.41z" fill="#231f20"/><path d="m632.73 229.85.31.22-.38.2zm.06-5.52.08-.45.25.77zm.05 4.86-.11.66-.48-.35zm3.5-78.03-4.64 2.44.19-1.08 4.04-2.13.41-.21.4.21 4.05 2.13.18 1.08zm-4.54-3.29-3.76-3.66 1.1-.16 3.27 3.19.33.32-.08.45-.77 4.51-.98.51zm-.1 5.73-.11.66-.48-.35zm.19-1.08-.19 1.08-.59.31-.31-.22.11-.66z" fill="#231f20"/><path d="m643.11 157.42h-13.54v-1.71l1.56-.83 5.21-2.73 5.2 2.73 1.57.83z" fill="#394ea1"/><g fill="#231f20"><path d="m630.8 153.69.31.22-.38.2zm.26 66.52-.78-.77 5.18-.75 1.79-3.63h.98l-1.98 4.01-.21.41-.46.07zm-.12-72.49.25.77-.33-.32zm-.03 5.31-.11.66-.48-.35zm-.63 66.41-.67.1.19-.57z"/><path d="m631.06 220.21-1.09.16-.47-.47.11-.36.67-.1z"/><path d="m629.5 219.9.47.47-.65.09zm.11-.36-.11.36-.31-.3z"/><path d="m629.06 218.73 5.82-.84-.2.41.66-.47-.46.06 1.4-2.83h.97l-1.79 3.63-5.18.75-.48-.47-.19.57-.42.06.31.3-.18.56.65-.09 3.76 3.66-.89 5.16-.59.31.48.35-.07.42.38-.2.48.35.11-.66 4.64-2.44 4.63 2.44.12.66.47-.35.39.2-.08-.42.48-.35-.59-.31-.88-5.16 3.75-3.66.66.09-.18-.56.3-.3-.42-.06-.18-.57-.48.47-5.19-.75-1.79-3.63h.97l1.4 2.83-.45-.06.66.47-.21-.41 5.82.84 1.75.26-1.26 1.24-4.21 4.1-.08-.45-.26.77.34-.32.99 5.8.3 1.74-1.57-.82-5.2-2.74.4-.21h-.81l.41.21-5.21 2.74-1.56.82.29-1.74 1-5.8.33.32-.25-.77-.08.45-4.21-4.1-1.27-1.24zm4.6-75.34-4.52.66-.79-.77 5.18-.75 2.32-4.7.49.99-2.03 4.1-.2.41zm-5.31-.11-.66.1.18-.57z"/><path d="m629.14 144.05-1.1.16-.47-.47.12-.36.66-.1z"/><path d="m627.57 143.74.47.47-.66.09zm.12-.36-.12.36-.31-.3z"/><path d="m628.04 144.21 3.76 3.66-.89 5.16-.59.31.479.35-.069.42.38-.2.479.35.11-.66 4.64-2.44 4.63 2.44.12.66.48-.35.38.2-.08-.42.479-.35-.59-.31-.88-5.16 3.75-3.66.66.09-.18-.56.3-.3-.42-.06-.181-.57-.479.47-5.19-.75-2.31-4.7.29-.6h-.601l-.18-.38-.189.38h-.601l.3.6-2.319 4.7-5.181.75-.479-.47-.18.57-.431.06.311.3-.19.56zm1.83 9.76.99-5.8.33.32-.25-.77-.08.45-4.21-4.11-1.271-1.23 1.75-.26 5.82-.84-.2.41.66-.47-.46.06 2.6-5.27.79-1.59.78 1.59 2.6 5.27-.45-.06.66.47-.21-.41 5.82.84 1.75.26-1.26 1.23-4.21 4.11-.08-.45-.26.77.34-.32.989 5.8.301 1.74-1.57-.83-5.2-2.73.4-.21h-.811l.41.21-5.21 2.73-1.56.83zm-6.58 60.69.42.06-.31.3zm.11.36.02.04h-.05zm.02.04.17.53-.67-.1.45-.43z"/><path d="m623.4 215.02-.03.04h-1.25l.5-.5.67.1zm-.3-.92.19.56-.67-.1zm.27.96-.45.43-1.09-.16.29-.27z"/><path d="m621.83 215.33-1.88-.27h2.17zm-1.58-63.59.48-.47.18.57zm.36-.83.43.06-.31.3zm-.18-.56.18.56-.66-.1zm-.37 73.96.59.31-.48.35zm.11.66.08.42-.39-.2zm-.39-5.2.25-.77.08.45z"/><path d="m620.61 150.91.12.36-.48.47-1.09-.16.79-.77zm-.55 73.4.11.66-.31.22-.59-.31-.19-1.09z"/><path d="m619.27 224.88.59.31-.48.35zm-1.04-6.04.33-.32 3.27-3.19 1.09.16-3.75 3.65.89 5.17-.98-.52-.77-4.5zm.5-55.31h-13.54v-.29l1.56-.82 5.21-2.74 5.2 2.74 1.57.82z"/><path d="m617.73 157.42h35.79l-.69 4.01-.3 1.75v.35h-33.8v-.29l-.3-1.74zm-1.72 51.52h22.26v2.09l-.79 1.59-1.2 2.44h-11.66l.97-.95-1.76-.25-5.82-.85z"/><path d="m618.01 213.01.21.41-.65-.48zm-.63-52.45.6.31-.48.35zm.12.66.07.42-.38-.2zm-.39-5.2.25-.77.08.45z"/><path d="m617.38 160.56.12.66-.31.22-.59-.31-.19-1.08z"/><path d="m616.6 161.13.59.31-.48.35zm-.71-6.36 3.27-3.19 1.09.16-3.75 3.66.34 2.02h-.88l-.33-1.88-.07-.45zm.52 5.28-.45-2.63h.88l.54 3.14zm-.4 48.89 2 4.07-.44-.07.65.48-.21-.41 5.82.85 1.76.25-.97.95h-1.2l-.02-.04.31-.3-.42-.06-.19-.56-.48.46-5.18-.75-2.32-4.7.08-.17zm-.66-59.68.2.41-.66-.47z"/><path d="m614.63 210.1.49-.99 2.32 4.7 5.18.75-.5.5h-2.17l-2.64-.39-.45-.06-.2-.41zm.57-1.16-.08.17-.08-.17zm.22-.43-.22.43h-.16l-.22-.43zm-.79-.39.19.39h-.38z"/><path d="m614.22 208.94.22-.43h.38l.22.43zm.41 14.49-.41-.21h.82zm-.41-14.49h.82l.08.17-.49.99-.48-.99zm-.16 0h.16l-.07.17z"/><path d="m614.44 208.51-.22.43h-.16l-.21-.43z"/><path d="m613.85 208.51.21.43h-.8l.59-1.2.78-1.59.79 1.59.59 1.2h-.81l.22-.43h-.6l-.19-.39-.19.39z"/></g><path d="m611.95 214.67.46-.06.2-.41 2.02-4.1 2.03 4.1.2.41.45.06 2.64.39h-10.64z" fill="#fbed24"/><path d="m613.98 150.45-2.02-4.1.48-.99 2.32 4.7 5.19.75-.79.77-4.52-.66-.45-.06zm-1.24-5.69-.3.6-.29-.6z" fill="#231f20"/><path d="m611.96 157.42h4l.45 2.63-4.05-2.13-.4-.21z" fill="#fbed24"/><path d="m611.96 144.38.19.38h-.38zm-.41 15.09h.81l-.4.21zm.22-14.71h.38l.29.6-.48.99-.49-.99z" fill="#231f20"/><path d="m611.77 144.76-.3.6-.29-.6zm-.07 68.18-.65.48.2-.41z" fill="#231f20"/><path d="m607.95 157.42h4.01v.29l-.41.21-4.05 2.13z" fill="#fbed24"/><path d="m614.63 222.44-4.63 2.44.18-1.09 4.04-2.12.41-.21.41.21 4.04 2.12.19 1.09z" fill="#231f20"/><path d="m610.09 219.14-3.75-3.65 1.09-.16 3.27 3.19.33.32-.08.45-.77 4.5-.97.52zm-.09 5.74-.12.66-.48-.35z" fill="#231f20"/><path d="m609.21 224.31.97-.52-.18 1.09-.6.31-.31-.22zm-.12.66.31.22-.38.2zm.07-5.52.07-.45.25.77z" fill="#231f20"/><path d="m610.7 218.52-3.27-3.19 1.88-.27h10.64l1.88.27-3.27 3.19-.33.32.08.45.77 4.5-4.04-2.12-.41-.21-.41.21-4.04 2.12.77-4.5.08-.45z" fill="#fbed24"/><path d="m609.21 224.31-.12.66-.48-.35zm-.64-75.05.46-.06-.66.47zm-.07 24.57.18.57-.66-.1zm-.11-.36.42.06-.31.3z" fill="#231f20"/><path d="m611.96 157.42h-4.01l.33-1.88.08-.45-.33-.32-3.28-3.19 4.53-.66.45-.06.21-.41 2.02-4.1 2.02 4.1.21.41.45.06 4.52.66-3.27 3.19-.33.32.07.45.33 1.88z" fill="#fbed24"/><path d="m608.2 172.91.08.23h-.31zm-.78-17.51-3.75-3.66 1.08-.16 3.28 3.19.33.32-.08.45-.33 1.88h-.88zm.55 17.74h.31l.11.33-.67-.1zm3.99-14.44-4.64 2.43.18-1.08 4.05-2.13.41-.21.4.21 4.05 2.13.19 1.08zm-4.33 37.06.18.56-.66-.1zm-1.52-22.62h1.86l-.25.23z" fill="#231f20"/><path d="m607.51 195.4.43.06-.31.3zm.21-22.03.67.1.11.36-.48.47-1.08-.16zm-1.18-12.81.53-3.14h.88l-.45 2.63zm.61 54.5h2.16l-1.88.27zm.18-20.23.18.57-.66-.1zm-.01-33.7-.11.66-.48-.35zm-.68 53.43 5.19-.75 2.32-4.7.48.99-2.02 4.1-.2.41-.46.06-2.64.39h-2.16z" fill="#231f20"/><path d="m606.54 160.56.96-.51-.18 1.08-.59.31-.31-.22zm.61 35.66-1.09-.15.79-.77.66.1.12.36zm-1.17 18.44.66-.1.51.5h-1.25l-.04-.04zm.44-53.44.31.22-.38.2zm.14-5.97.25.77-.33-.32z" fill="#231f20"/><path d="m605.98 214.66.18-.56.48.46z" fill="#231f20"/><path d="m672.58 191.48h-71.45l-1.49-3.01-.78-1.59-1.72-3.27 2.59-1.37 5.21 2.74 1.56.82-.3-1.74-.82-4.81h62.81l-.52 3.05-.31 1.74 1.57-.82 5.21-2.74 3.15 1.66-1.58 3-.78 1.58z" fill="#ed1e29"/><path d="m606.54 160.56-.12.66-.48-.35zm-.64 54.5h1.25l.28.27-1.09.16zm.08-.4-.12.36-.31-.3z" fill="#231f20"/><path d="m605.49 161.5.7-4.08h.88l-.53 3.14-.6.31.48.35-.07.42.38-.2.48.35.11-.66 4.64-2.43 4.64 2.43.11.66.48-.35.38.2-.07-.42.48-.35-.6-.31-.54-3.14h.89l.7 4.08.3 1.74-1.57-.82-5.2-2.74.4-.21h-.81l.41.21-5.21 2.74-1.56.82zm.37 53.52.04.04h-.05zm.04.04.44.43-.66.1.17-.53z" fill="#231f20"/><path d="m604.65 215.06h1.2l-.17.53.66-.1 3.75 3.65-.88 5.17-.6.31.48.35-.07.42.38-.2.48.35.12-.66 4.63-2.44 4.64 2.44.11.66.48-.35.39.2-.08-.42.48-.35-.59-.31-.89-5.17 3.75-3.65.67.1-.17-.53h1.2l-.3.29-4.21 4.1-.08-.45-.25.77.33-.32 1 5.79.29 1.75-1.56-.82-5.21-2.74.41-.21h-.82l.41.21-5.2 2.74-1.57.82.3-1.75 1-5.79.32.32-.25-.77-.07.45-4.21-4.1zm.51-31.94.59.31-.48.35zm-.66 14.47 1.56-1.52 1.09.15-1.4 1.37zm.77-13.81.07.42-.38-.2zm-.39-5.2.25-.77.08.45zm-5.15-15.05h-55.4v-6.11h61.86l-.7 4.08-.3 1.74v.29z" fill="#231f20"/><path d="m604.37 183.69-.19-1.08.98.51.11.66-.31.22zm.13-4.44-.23-1.29 3.75-3.66.66.1-.18-.57.31-.3-.42-.06-.11-.33h2.18l-1.04 1.02-4.21 4.1-.08-.45-.25.77.33-.32.17.99zm-.1 26.45-.12-.66.6.31zm.35-54.12-.78-.77 5.19-.75 2.31-4.7.49.99-2.02 4.1-.21.41-.45.06zm-.38 32.11.59.31-.48.35zm.28 31.37-.97-.95 1.75-.25 5.82-.85-.2.41.65-.48-.45.07 2.01-4.07h.8l.09.17-2.32 4.7-5.19.75-.48-.46-.18.56-.43.06.31.3-.01.04z" fill="#231f20"/><path d="m604.65 215.06h-60.32v-6.12h68.93l-2.01 4.07-5.82.85-1.75.25zm-.18-8.93-.38-.2.31-.23zm-.46-5.63.25-.77.08.45zm-.4-21.25h.89l.66 3.87-.98-.51zm.36-28.44-.67.1.19-.56zm.31 54.23.12.66-.31.23-.59-.31-.19-1.09zm-.78.58.59.31-.48.35zm4.52-31.32-3.75 3.66.23 1.29h-.89l-.2-1.15-.08-.45.33-.32 3.28-3.19z" fill="#231f20"/><path d="m603.97 150.81.78.77-1.08.16-.48-.47.11-.36z" fill="#231f20"/><path d="m603.67 151.74-.66.1.18-.57zm-.88 47.51 1.71-1.66h1.25l-2.35 2.29.88 5.16-.97-.51-.77-4.5-.08-.46zm.51-48.34-.11.36-.31-.3zm.02 21.33-.66-.49.46.07z" fill="#231f20"/><path d="m603.19 151.27-.18.57.66-.1 3.75 3.66-.35 2.02h-.88l.29-1.72.33.32-.25-.77-.08.45-4.21-4.1-1.27-1.24 1.75-.25 5.82-.85-.2.41.66-.47-.46.06 2.61-5.27.78-1.59.78 1.59 2.61 5.27-.46-.06.66.47-.2-.41 5.81.85 1.75.25-1.26 1.24-4.21 4.1-.08-.45-.25.77.33-.32.29 1.72h-.89l-.34-2.02 3.75-3.66.66.1-.18-.57.31-.3-.43-.06-.18-.56-.48.46-5.19-.75-2.32-4.7.3-.6h-.59l-.19-.38-.19.38h-.59l.29.6-2.31 4.7-5.19.75-.48-.46-.19.56-.42.06zm-1.37 21.87h4.29l1.61.23-.78.77-4.53-.66-.45-.06zm-.69 18.34h71.45l-.26.52-5.82.85-1.75.25 1.27 1.23 3.34 3.26h-62.36l1.55-1.51 1.26-1.24-1.75-.25-5.81-.85zm1.12 2.26.2.41-.66-.47z" fill="#231f20"/><path d="m600.15 191.48h.98l1.12 2.26-.46-.06.66.47-.2-.41 5.81.85 1.75.25-1.26 1.24-1.55 1.51h-1.25l1.4-1.37.66.1-.18-.56.31-.3-.43-.06-.18-.57-.48.47-5.19-.76z" fill="#231f20"/><path d="m599.73 164.96v-1.43h74.24l-.62 1.26-2.6 5.27-5.82.85-1.75.25 1.27 1.24.76.74h-54.75l.23-.22-1.75-.25-5.82-.85-2.61-5.27z" fill="#fff"/><path d="m599.73 168.91.49-.99 2.32 4.7 3.57.52h-4.29l-.07-.13zm.19-1.59h.59l-.29.6zm.23 24.16 1.51 3.06 5.19.76-.79.77-4.52-.66-.45-.07-.21-.41-1.7-3.45zm-.42-24.55.19.39h-.38z" fill="#231f20"/><path d="m597.71 173.01 2.02-4.1 2.02 4.1.07.13h-4.17z" fill="#fbed24"/><path d="m599.33 182.03h.81l-.41.21zm.59-14.71.3.6-.49.99-.48-.99.29-.6zm-.58 22.53.81 1.63h-.97l-.32-.65z" fill="#231f20"/><path d="m599.54 167.32-.29.6-.3-.6zm.1 21.93-.3.6-.29-.6z" fill="#231f20"/><path d="m598.86 190.83.32.65h-.64z" fill="#fff"/><path d="m598.86 188.86.19.39h-.38zm-.41 15.09h.82l-.41.21zm.6-14.7.29.6-.48.98-.49-.98.3-.6z" fill="#231f20"/><path d="m598.67 189.25-.3.6-.29-.6zm-.3.6.49.98-.32.65h-.97zm-.72-16.71h-4.29l3.57-.52 2.32-4.7.48.99-2.02 4.1z" fill="#231f20"/><path d="m598.08 188.47.78-1.59.78 1.59 1.49 3.01h-.98l-.81-1.63.3-.6h-.59l-.19-.39-.19.39h-.59l.29.6-.8 1.63h-.98zm-1.28-16.72-.66.49.21-.42z" fill="#231f20"/><path d="m595.86 179.25h7.75l.57 3.36-4.04-2.13-.41-.21-.4.21-4.05 2.13zm7.75 0h-7.75l.19-1.15.08-.45-.33-.32-3.27-3.19 4.52-.66.46-.06.14-.28h4.17l.14.28.45.06 4.53.66-3.28 3.19-.33.32.08.45z" fill="#fbed24"/><path d="m595.93 193.68-.66.47.2-.41z" fill="#231f20"/><path d="m594.93 199.25-1.71-1.66h11.28l-1.71 1.66-.33.32.08.46.77 4.5-4.04-2.13-.41-.21-.41.21-4.04 2.13.77-4.5.08-.46z" fill="#fbed24"/><path d="m599.73 181.26-4.63 2.43.18-1.08 4.05-2.13.4-.21.41.21 4.04 2.13.19 1.08z" fill="#231f20"/><path d="m594.97 179.25h.89l-.58 3.36-.98.51zm-.47 4.75.6-.31-.12.66zm4.36 19.18-4.64 2.44.19-1.09 4.04-2.13.41-.21.41.21 4.04 2.13.19 1.09z" fill="#231f20"/><path d="m595.28 182.61-.18 1.08-.6.31-.3-.22.1-.66z" fill="#231f20"/><path d="m594.5 184-.38.2.08-.42zm-.17-6.19.25.77-.33-.32zm-.61 5.62.58-.31-.1.66zm.5 22.19-.11.66-.48-.35z" fill="#231f20"/><path d="m596.59 191.48h-52.26v-12.23h49.75l-.82 4.81-.3 1.74 1.57-.82 2.61-1.37 1.72 3.27-.78 1.59z" fill="#ed1e29"/><path d="m593.44 205.04.97-.51-.19 1.09-.59.31-.31-.23zm.76-21.26-.08.42.38-.2.48.35.12-.66 4.63-2.43 4.64 2.43.11.66.48-.35.38.2-.07-.42.48-.35-.59-.31-.66-3.87h.88l.82 4.81.3 1.74-1.56-.82-5.21-2.74.41-.21h-.81l.4.21-2.59 1.37-2.61 1.37-1.57.82.3-1.74.82-4.81h.89l-.67 3.87-.58.31z" fill="#231f20"/><path d="m593.65 206.9 5.21-2.74 5.2 2.74 1.57.83v1.21h-13.54v-1.21z" fill="#fff"/><path d="m593.32 205.7.31.23-.38.2zm.14-5.97.25.77-.33-.32zm-.02 5.31-.12.66-.48-.35z" fill="#231f20"/><path d="m591.66 196.07 4.52-.66.45-.07.21-.41 1.7-3.45h.64l1.7 3.45.21.41.45.07 4.52.66-1.56 1.52h-11.28z" fill="#fbed24"/><path d="m594.32 199.88-2.35-2.29h1.25l1.71 1.66.33.32-.08.46-.77 4.5-.97.51zm-2.35-2.29-1.4-1.37 1.09-.15 1.56 1.52zm3.22-19.63-3.75-3.66 1.09-.16 3.27 3.19.33.32-.08.45-.19 1.15h-.89zm1.86-4.48-4.52.66-.79-.77 1.62-.23h4.29l-.14.28z" fill="#231f20"/><path d="m592.09 208.94h-47.76v-11.35h46.39l2.66 2.59-.99 5.8-.3 1.75z" fill="#fff"/><path d="m593.38 200.18-2.66-2.59h1.25l2.35 2.29-.88 5.16-.6.31.48.35-.07.43.38-.2.48.35.11-.66 4.64-2.44 4.64 2.44.11.66.48-.35.38.2-.07-.43.48-.35-.6-.31-.88-5.16 2.35-2.29h1.25l-2.66 2.59-.08-.45-.25.77.33-.32.99 5.8.3 1.75-1.57-.83-5.2-2.74.41-.21h-.82l.41.21-5.21 2.74-1.56.83.3-1.75.99-5.8.33.32-.25-.77zm-1.64-26.81-.24-.23h1.86z" fill="#231f20"/><path d="m591.5 173.14.24.23-.66.1.11-.33zm.16 22.93-.79-.77 5.19-.76 1.51-3.06h.97l-1.7 3.45-.21.41-.45.07z" fill="#231f20"/><path d="m591.26 172.91.24.23h-.31zm1.27 1.23-1.09.16-.48-.47.12-.36.66-.1z" fill="#231f20"/><path d="m590.96 173.83.48.47-.66.1zm.12-.36-.12.36-.31-.3zm-.21 21.83-.66.1.18-.57z" fill="#231f20"/><path d="m590.87 195.3.79.77-1.09.15-.48-.46.12-.36z" fill="#231f20"/><path d="m590.09 195.76.48.46-.66.1z" fill="#231f20"/><path d="m590.21 195.4-.12.36-.31-.3zm1.23-21.1 3.75 3.66-.22 1.29h-.89l.17-.99.33.32-.25-.77-.08.45-4.21-4.1-1.04-1.02h2.19l-.11.33-.43.06.31.3-.18.57z" fill="#231f20"/><path d="m594.08 179.25h-49.75v-6.11h44.67l1.04 1.02 4.21 4.1zm-3.51 16.97 1.4 1.37h-1.25l-1.55-1.51-1.27-1.24 1.76-.25 5.81-.85-.2.41.66-.47-.46.06 1.12-2.26h.98l-1.51 3.06-5.19.76-.48-.47-.18.57-.43.06.31.3-.18.56z" fill="#231f20"/><path d="m590.72 197.59h-46.39v-6.11h52.26l-1.12 2.26-5.81.85-1.76.25 1.27 1.24zm-.19-24.92 5.82-.85-.21.42.66-.49-.45.07 2.6-5.27.78-1.59.78 1.59 2.61 5.27-.46-.07.66.49-.2-.42 5.82.85 1.75.25-.23.22h-2.18l-.08-.23-.23.23h-1.86l-3.57-.52-2.32-4.7.29-.6h-.59l-.19-.39-.19.39h-.59l.3.6-2.32 4.7-3.57.52h-1.86l-.24-.23-.07.23h-2.19l-.22-.22z" fill="#231f20"/><path d="m589 173.14h-44.67v-9.61h55.4v1.43l-.78 1.59-2.6 5.27-5.82.85-1.75.25z" fill="#fff"/><path d="m541.24 69.04h3.09v3.53c-1.39.9-2.93 1.66-4.59 2.26v-4.99c.52-.24 1.02-.51 1.5-.8zm-.42 7.53h3.51v4.59h-3.51zm0 4.62v-.03h3.51v4.58h-3.47zm.75 82.35-.71-77.8h3.47v71.68h-2.23v6.11z" fill="#231f20"/><path d="m542.1 157.42h2.23v6.11h-2.23zm2.23 6.11v9.61h-2.67l-.09-9.6.53-.01zm0 9.61v6.11h-2.61l-.06-6.11zm0 6.11v12.23h-2.5l-.11-12.23zm0 12.23v6.11h-2.44l-.06-6.11zm0 6.11v11.35h-2.23v6.12h-.05l-.16-17.47z" fill="#231f20"/><path d="m542.1 208.94h2.23v6.12h-2.23zm2.23 6.12v27.36h-1.99v4.59l-.29-31.95h.05z" fill="#231f20"/><path d="m542.34 242.42h1.99v4.59h-1.99zm0 4.59h1.99v4.58h-1.99z" fill="#231f20"/><path d="m540.35 197.59h1.54l.16 17.47.29 31.95v4.58h1.99v111.22h-4.59v-165.22zm0-6.11h1.48l.06 6.11h-1.54zm.87-18.34h.44l.06 6.11h-.5zm.02-104.1c-.48.29-.98.56-1.5.8v-.8zm-.42 12.15.04 4.55h-.04z" fill="#231f20"/><path d="m541.22 179.25h.5l.11 12.23h-1.48v6.11h-.609v-122.76c1.66-.6 3.2-1.36 4.59-2.26v4h-3.51v9.17h.04l.71 77.8.09 9.6h-.44v6.11zm-6.06-103.25c1.6-.25 3.14-.65 4.58-1.17v287.98h-4.58z" fill="#231f20"/><path d="m535.16 71.33c1.64-.33 3.18-.83 4.58-1.49v4.99c-1.44.52-2.98.92-4.58 1.17z" fill="#231f20"/><path d="m539.74 69.84c-1.4.66-2.94 1.16-4.58 1.49v-2.29h4.58z" fill="#231f20"/><path d="m522.5 362.81 4.58-.01-.48-286.74a28.026 28.026 0 0 0 8.56-.06v286.81zm8.21-310.8c6.46 0 12.12 3.55 12.12 7.59s-5.66 7.59-12.12 7.59c-6.45 0-12.12-3.55-12.12-7.59s5.67-7.59 12.12-7.59z" fill="#c8c8c8"/><path d="m535.16 71.33v4.67a28.036 28.036 0 0 1 -8.56.06v-4.66c1.311.25 2.69.37 4.11.37 1.54 0 3.03-.15 4.45-.44zm-13.14 3.62c1.44.49 2.98.87 4.58 1.11l.48 286.74-4.58.01zm-.01-5.3h4.58l.01 1.75c-1.64-.3-3.18-.78-4.59-1.41z" fill="#231f20"/><path d="m526.6 76.06c-1.6-.24-3.14-.62-4.58-1.11l-.01-4.96c1.41.63 2.95 1.11 4.59 1.41zm-4.58-1.11.48 287.86-4.59.01-.48-290.03c1.39.86 2.93 1.59 4.59 2.16zm-.01-5.3v.34c-.24-.1-.479-.22-.71-.34z" fill="#231f20"/><path d="m518.59 59.6c0 4.04 5.67 7.59 12.12 7.59 6.46 0 12.12-3.55 12.12-7.59s-5.66-7.59-12.12-7.59c-6.45 0-12.12 3.55-12.12 7.59zm2.71 10.05c-4.399-2.19-7.29-5.87-7.29-10.05 0-6.73 7.48-12.17 16.7-12.17 9.23 0 16.7 5.44 16.7 12.17 0 3.81-2.4 7.22-6.17 9.44h-6.08v2.29c-1.42.29-2.91.44-4.45.44-1.42 0-2.8-.12-4.11-.37l-.01-1.75zm.71.34.01 4.96a22.846 22.846 0 0 1 -4.59-2.16v-3.13l3.87-.01c.23.12.47.24.71.34z" fill="#231f20"/><path d="m509.43 59.6c0-9.4 9.34-16.76 21.28-16.76s21.29 7.36 21.29 16.76c0 5.28-2.96 9.92-7.67 12.97v-3.53h-3.09c3.77-2.22 6.17-5.63 6.17-9.44 0-6.73-7.47-12.17-16.7-12.17-9.22 0-16.7 5.44-16.7 12.17 0 4.18 2.891 7.86 7.29 10.05l-3.87.01v3.13c-4.9-3.05-8-7.78-8-13.19z" fill="#231f20"/><path d="m513.75 420.14c-5.74 9.12-10.97 18.75-18.95 25.64v14.489c-15.97 6.521-34.42.5-46.819-10.029 12.569-16.25 13.939-32.8 11.14-56.86 13.399 7.1 16.66-9 32.33-3.34 5.52.74-3.73 2.86-1.11 7.8 6.989 8.25 12.749 17.72 23.409 22.3zm-42.36-142.7c11.19 7.61-5.06 26.7 4.46 40.13-14.119-7.47-19.3-27.17-17.84-46.82 3.54-1.66 5.03-5.37 10.03-5.57 3.52 4.11 2.55 5.77 3.35 12.26zm-129.32 358.97c-2.15 7.76 4.83 12.229 1.11 17.84-.55 4.65-7.26 3.14-10.03 5.58-.56 5.08 1.93 6.31 0 10.03-13.48 10.85-21.78-1.29-37.91-2.23-3.78-19.25-19.39-26.68-25.64-43.479 5.43-7.69 8.81-26.53 1.12-34.561 1.66-5.77 4.57-10.29 5.57-16.72 5.89-.32 3.25 7.89 5.58 11.149 23.26 14.271 39.69 35.361 60.2 52.391zm-118.18-298.77c7.96 1.08 12.74 8.74 18.96 4.46-.29 6.82-8.49-.46-12.27 2.23-8.33 5.92-22.82 2.26-32.33-3.35-5.5.82-5.59 7.04-10.03 8.92-.99-9.4-4.94-18-16.72-13.38-1.8-5.47-7.81-8.1-4.46-15.6 10.76-9.56 24.9.02 32.33 6.69-1.12 16.14 14.04 8.61 24.52 10.03zm-28.98 311.04c-1.61 17.25 7.14 27.48 0 41.24-5.04.91-7.97 3.93-13.38 4.46-6.33-5.56-13.19-10.58-20.07-15.6 2.22-10.38 4.54-16.54 4.46-24.53 5.47-7.58 18.4-11.96 28.99-5.57zm-44.51-331.56c2.42 3.46 3.22 8.66 7.72 8.26-.02 2.62 1.92 3.28 1.11 6.69-5.35-4.67-21.99-1.98-13.77-16.5 1.69 1.13 3.44 2.1 4.94 1.55z" fill="#fff5b4"/><path d="m151.43 316.46c-.33.32-.67.53-1.03.66-.3-.44-.63-.84-1-1.2.6.25 1.28.44 2.03.54zm-2.03-.54c-.9-.36-1.66-.87-2.33-1.46.93.3 1.69.81 2.33 1.46z" fill="#fff"/><path d="m147.07 314.46c.67.59 1.43 1.1 2.33 1.46.37.36.7.76 1 1.2-1.5.55-3.25-.42-4.94-1.55.24-.42.5-.86.79-1.32.29.05.56.12.82.21z" fill="#fff"/><path d="m147.07 314.46c-.26-.09-.53-.16-.82-.21-.29.46-.55.9-.79 1.32-1.46-.98-2.88-2.09-4.06-2.46v-5.57c2.19 2.01 3.44 4.95 5.67 6.92z" fill="#fff"/><path d="m128.02 285.24c-9.03 2.37-.08 16.28 10.03 13.38-2.12 4.56-12.38 1-11.15 8.92-5.4-2.02-9.17-.76-12.26 2.23-3.8-7.51-14.18-1.97-16.72-11.15 4.95-3.6 12.87-4.23 13.38-12.26 6.4-.97 10.26-2.77 16.72-1.12zm4.23 409.01c-1.91-.05-7.97 3.94-8.43 5.34-1.07-1.899-3.5-2.439-5.57-3.34 2.21-1.51.99-7.29 0-12 2.71 2.12 11.52 7.66 14 10zm-24.3-470.32c5.5 4.67 13.98 4.18 13.38 11.15-.41 4.77-5.26 5.82-11.15 7.8-5.67 15.88-19.35 23.76-26.75 37.9-8.11-.06-14.1-2.25-21.19-3.34-2.09-7.38-6.59-13.78-6.68-23.41-1.21-3.26-5.31-3.61-10.04-3.35 15.05-11.71 23.5-30.01 42.37-37.9 2.91-3.03 3.47-8.42 5.57-12.26 4.18 4.49 6.05 16.23 14.49 23.41z" fill="#fff5b4"/><g fill="none" stroke="#000"><path d="m93.46 200.52c4.18 4.49 6.05 16.23 14.49 23.41 5.5 4.67 13.98 4.18 13.38 11.15-.41 4.77-5.26 5.82-11.15 7.8-5.67 15.88-19.35 23.76-26.75 37.9-8.11-.06-14.1-2.25-21.19-3.34-2.09-7.38-6.59-13.78-6.68-23.41-1.21-3.26-5.31-3.61-10.04-3.35 15.05-11.71 23.5-30.01 42.37-37.9 2.91-3.03 3.47-8.42 5.57-12.26zm374.58 64.66c3.52 4.11 2.55 5.77 3.35 12.26 11.19 7.61-5.06 26.7 4.46 40.13-14.119-7.47-19.3-27.17-17.84-46.82 3.54-1.66 5.03-5.37 10.03-5.57zm-340.02 20.06c-9.03 2.37-.08 16.28 10.03 13.38-2.12 4.56-12.38 1-11.15 8.92-5.4-2.02-9.17-.76-12.26 2.23-3.8-7.51-14.18-1.97-16.72-11.15 4.95-3.6 12.87-4.23 13.38-12.26 6.4-.97 10.26-2.77 16.72-1.12zm21.38 30.68c.6.25 1.28.44 2.03.54-.33.32-.67.53-1.03.66m-4.94-1.55c-1.46-.98-2.88-2.09-4.06-2.46v-5.57c2.19 2.01 3.44 4.95 5.67 6.92m95.78 27.64c-.29 6.82-8.49-.46-12.27 2.23-8.33 5.92-22.82 2.26-32.33-3.35-5.5.82-5.59 7.04-10.03 8.92-.99-9.4-4.94-18-16.72-13.38-1.8-5.47-7.81-8.1-4.46-15.6 10.76-9.56 24.9.02 32.33 6.69-1.12 16.14 14.04 8.61 24.52 10.03 7.96 1.08 12.74 8.74 18.96 4.46zm248.6 47.94c5.52.74-3.73 2.86-1.11 7.8 6.99 8.25 12.75 17.72 23.41 22.3-5.74 9.12-10.97 18.75-18.95 25.64v14.489c-15.97 6.521-34.42.5-46.819-10.029 12.569-16.25 13.939-32.8 11.14-56.86 13.399 7.1 16.659-9 32.329-3.34zm-215.16 182.83c5.89-.32 3.25 7.89 5.58 11.149 23.26 14.271 39.69 35.36 60.2 52.391-2.15 7.76 4.83 12.229 1.11 17.84-.55 4.65-7.26 3.14-10.03 5.58-.56 5.08 1.93 6.31 0 10.03-13.48 10.85-21.78-1.29-37.91-2.23-3.78-19.25-19.39-26.68-25.64-43.479 5.43-7.69 8.81-26.53 1.12-34.561 1.66-5.77 4.57-10.29 5.57-16.72zm-81.38 75.81c-1.61 17.25 7.14 27.48 0 41.24-5.04.91-7.97 3.93-13.38 4.46-6.33-5.56-13.19-10.58-20.07-15.6 2.22-10.38 4.54-16.54 4.46-24.53 5.47-7.58 18.4-11.96 28.99-5.57zm-76.66 35.57c2.71 2.12 11.52 7.66 14 10-1.91-.05-7.97 3.94-8.43 5.34-1.07-1.899-3.5-2.439-5.57-3.34 2.21-1.51.99-7.29 0-12z" stroke-width="7"/><path d="m145.46 315.57c.24-.42.5-.86.79-1.32.29.05.56.12.82.21.93.3 1.69.81 2.33 1.46.37.36.7.76 1 1.2 2.42 3.46 3.22 8.66 7.72 8.26-.02 2.62 1.92 3.28 1.11 6.69-5.35-4.67-21.99-1.98-13.77-16.5z" stroke-width="5"/></g><path clip-rule="evenodd" d="m.25.25h850.394v850.394h-850.394z" fill="none"/></svg>