<svg height="850.89" viewBox="0 0 850.89 850.89" width="850.89" xmlns="http://www.w3.org/2000/svg"><path d="m803.47 76.43v123.12h-208.24l-1.25-136.46h209.49zm-46.71 97.41v-76.38h-122.21v76.38z" fill="#ed1e29"/><path d="m702.81 162.85c-7.18-5.75-25.869-32.34-.72-57.49-50.3 27.31-6.46 56.05.72 57.49zm53.95-65.39v76.38h-122.21v-76.38z" fill="#58b947"/><path d="m702.09 105.36c-25.149 25.15-6.46 51.74.72 57.49-7.18-1.44-51.02-30.18-.72-57.49z" fill="#fff"/><path d="m585.66 35.34c7.59 0 13.75 4.48 13.75 10.02 0 3.53-2.521 6.64-6.311 8.42-2.149 1.01-4.699 1.59-7.439 1.59-2.62 0-5.07-.53-7.15-1.46-3.95-1.76-6.59-4.93-6.59-8.55 0-5.54 6.16-10.02 13.74-10.02z" fill="#c8c8c8"/><path d="m585.66 55.37c2.74 0 5.29-.58 7.439-1.59v241.05h-14.189l-.4-240.92c2.08.93 4.53 1.46 7.15 1.46z" fill="#c8c8c8"/><path d="m302.46 407.71v3.13c-1.36.01-4.84-6.78-11.45-7.29 2.13-1.04 9.36 1.71 11.45 4.16z"/><path d="m289.97 222.41c4.3-2.58 1.27 8.78-1.04 9.37-3.22-1.95 5.46-6.22 1.04-9.37zm-2.08 84.32c2.46 2.75 5.65 4.76 9.37 6.25.42 5.28-3.64 6.08-5.21 9.37-2.66-2.4 3.38-4.89 4.17-7.29-1.62-3.93-8.6-2.5-8.33-8.33z" fill="#fff"/><path d="m282.69 351.5c.02.32.02.67 0 1.04zm0-30.19c-.03 2.85-4.92 2.47-6.25 1.04.02-2.85 4.91-2.47 6.25-1.04zm-2.09 19.78c-2.5-7.03 1.57-16.47 8.33-17.7-6.01 4.78-7.68 9.05-8.33 17.7z"/><path d="m277.48 537.84c4.29 3.71 1.23 23.23 0 8.33-.23-2.82.16-3.92 0-8.33zm3.12-315.43c-3.07-.29-3.02 4.7-5.2-1.04 2.41-.33 3.99.17 5.2 1.04z" fill="#fff"/><path d="m274.36 299.45c3.31-2.57 5.27 5.1 9.37 5.2-3.32 2.57-5.27-5.1-9.37-5.2z"/><path d="m277.48 351.5c-2.41.33-4-.17-5.2-1.04.92-2.27 5.81-3.18 5.2 1.04z" fill="#fff"/><path d="m282.69 351.43c-.39-5.5-6.59-5.17-9.37-8.26 3.1 1.06 6.66 1.67 9.37 3.12zm-11.46-59.27c1.47-4.4 7.37-.36 9.37 1.04-1.12 1.73-4.95-2.61-9.37-1.04z"/><path d="m273.32 207.84c.4 1.71-1.05 4.1-3.16 6.2-2.1-3.78 1.2-3.95 3.16-6.2z" fill="#fff"/><path d="m273.32 422.29c-5.53-12.83 19.36-4.22 22.9-11.45 2.53 9.82-25.72-2.13-22.9 11.45zm-1.04 12.49c3.3 1.34 17.64 5.76 13.53 14.569.84-6.999-8.06-10.689-13.53-14.569z"/><path d="m278.52 403.55c-2.77 2.7-5.2-3.78-7.29-5.21 2.62-2.55 4.05 4.93 7.29 5.21zm-8.36-189.51c.01.02.02.03.03.05-.02 0-.05 0-.07-.01.02-.01.03-.02.04-.04zm-.04.04c-1.84 1.83-4.17 3.43-6.17 4.17.89-2.55 2.4-4.49 6.17-4.17z" fill="#fff"/><path d="m264.99 685.66c5.57 2.78 13.46 16.91 4.16 21.859 7.17-7.339-.16-16.599-4.16-21.859zm4.16-216.53c-2.4-3.149 5.11-5.26 4.17-10.41 6.34 1.15 8.32-2.08 9.37-6.239 1.87 7.789-12.64 8.169-13.54 16.649zm-1.04-91.61c-.73-3.88 3.62-11.63 6.25-15.61-1.31 5.98-3.98 10.59-6.25 15.61z"/><path d="m272.28 181.81c-2.54-2.66.91-11.32-5.21-10.41 1.72-4.48 8.96 5.79 5.21 10.41zm0 158.24c-2.39 1.63-7.77-2.61-8.33-6.25 2.86 1.99 5.09 4.62 8.33 6.25z" fill="#fff"/><path d="m277.48 532.63c1.42 10.8-12.63 15.12-21.86 18.74-.54-4.9 7.71-3.2 11.45-5.2 5.79-3.12 7.81-8.46 10.41-13.54z"/><path d="m272.28 425.41c-.14 3.33-2.37 4.58-6.25 4.16-.28-3.75-.26-7.2 4.16-6.24-.93 1.84-4.22 1.32-3.12 5.2 3.88 1.11 1.65-3.9 5.21-3.12z" fill="#fff"/><path d="m264.99 226.58c-3.32-1.44 3.68-1.03 5.2-1.04.81 3.7 3.81 5.21 6.25 7.28-4.02 2.25-4.93-7.53-11.45-6.24z"/><path d="m264.99 352.54c-3.59-3.99 1.58-8.09 4.16-9.37 2.67 3.07-6.7 2.97-4.16 9.37zm-1.04 19.78c-2.7-4.37-.68-7.83-2.08-16.66 4.22 4.87 1.44 11.78 2.08 16.66z" fill="#fff"/><path d="m266.03 470.17c-9.39-2.979 1.32-25.479-4.16-35.39 3.35.229 4.4-1.84 8.32-1.04.08.359.1.67.07.93-.26 2.57-5.21.46-7.35 1.15 5.49 9.68-3.44 25.59 2.38 33.479.23.301.47.591.74.871zm-2.08-161.35c-4.54.08-2.42-12.14 5.2-11.45-2.89 2.31-8.82 5.96-5.2 11.45zm-3.13-27.07c.94-3.2 15.02-1.63 5.21-1.04-1.38 1.04-3.87.98-4.16 3.12.5 4.7 7.85 2.56 11.45 4.17-3.89 1.77-13.94.77-12.5-6.25zm2.09 33.31c2.78-1.84-.98 4.37-1.04 6.25 3.25 2.9-.18 10.76 1.04 6.24-2.58-3.55-2.58-8.94 0-12.49zm-5.21 375.81c.63-.61 4.94-2.44 5.21 0 1.59 3.19-6.8 3.19-5.21 0z"/><path d="m260.82 194.31c-1.7.37-5.19-1.01-5.44-1.13.02 0 .05.01.1.03-1.49-.78 10.26.47 14.71-5.15 3.13-1.58-4.51 5.18-9.37 6.25zm10.41 487.19c-5.45 4.02-6.08-5.69-11.45-5.21v-6.25c.92 2.59 5.18 10.77 11.45 11.46z" fill="#fff"/><path d="m257.7 653.39c3.77-2.89 6.09 7.12 2.08 12.49-3.52-3.19 5.41-11.05-2.08-12.49zm0-157.19c-8.23.6-5.79-1.84 1.04-1.04 2.3 1.859 2.54 5.78 4.17 8.32-2.42 2.36-2.97-6-5.21-7.28z"/><path d="m256.66 158.91c-2.3-.13-.44-4.41-1.04-6.24 3.12-9.48-6.57-13.92-8.33-21.86 6.17 7.37 12.06 14.45 9.37 28.1z" fill="#fff"/><path d="m257.7 405.63c-6.49-1.09 1.89-13.69 5.21-17.7 1.01 3.83-9.42 10.68-5.21 17.7zm-4.16 273.78c1.42 3.79-7.01 4.979-5.21 0z"/><path d="m253.54 78.75c-2.4.55 1.14-7.28-2.08-9.36 2.35 1.11 3.78 3.15 4.16 6.24-2.22-.48-1.98 1.49-2.08 3.12z" fill="#fff"/><path d="m260.82 511.81c-.08 2.73-9.92 4.631-11.45 9.37.08-6.86 6.66-7.22 11.45-9.37zm17.7 49.97c-6.7 6-28.41 11.96-26.02-3.12 1.77 14.47 17.81 5.48 26.02 3.12z"/><path d="m249.37 86.04c2.27.19 3.32-.85 3.13-3.12 3.12 1.55-.77 4.66-3.13 4.16-.52 3.28 2.27 4.07 0 6.25-.66-.43-1.8-4.95 0-7.29z" fill="#fff"/><path d="m244.17 514.94c.63-.601 4.94-2.44 5.2 0 1.6 3.19-6.79 3.19-5.2 0zm2.08 189.46c-1.97-.46-6.27 1.42-5.21-2.08 1.56-1.66 5.94-1.53 5.21 2.08z"/><path d="m242.09 179.73c1.74-5.34 1.74-5.07 0-10.41 1.4 1.02 2.08 2.78 3.12 4.17-3.98 5.79 1.03 6.7 1.04 13.53-1.7-2.12-2.19-5.45-4.16-7.29zm0-93.69c-.73-3.6 3.65-3.73 5.2-2.08 1.07 3.5-3.24 1.62-5.2 2.08z" fill="#fff"/><path d="m242.09 794.97c.29 5.84-2.57 8.53-7.29 9.36 4.71-1.99 9.45-9.84 2.08-12.49 1.56-2.81 4.35 1.8 5.21 3.13z"/><path d="m247.29 495.16c-2.58 3.18-4.24-3.33-8.33-2.09 2.8-3.4 5.82 1.75 8.33 2.09zm-9.37-361.23c2.47-.61 4.85-1.6 5.21 2.08-2.48.61-4.85 1.59-5.21-2.08z" fill="#fff"/><path d="m253.54 649.23c-3.11.77-13.75-1.801-13.54 5.199-2.28-5.429 8.53-9.219 13.54-5.199zm-22.91-418.49c2.22-2.81 7.67-.1 9.37 1.04-2.79 5.16 4.73 7.05 1.04 12.49-2.56-4.64.74-15.08-10.41-13.53z"/><path d="m237.92 104.78c-1.62-3.06 1.79-9.98 6.25-10.41-3.58 1.97-4.46 6.64-6.25 10.41z" fill="#fff"/><path d="m236.88 658.59c2.56-1.47 7.24 3.83 7.29 8.33-2.39-2.82-3.69-6.72-7.29-8.33zm5.21 9.37c3.75 3.82-4.18 4.8-8.33 4.17 1.29-2.87 9.65 1.32 8.33-4.17z"/><path d="m236.88 157.87c-4.51 1.71-3.1-11.45-7.29-13.53 6.05.89 3.54 10.35 7.29 13.53z" fill="#fff"/><path d="m238.96 94.37c-2.75-.03-6.52.97-5.2-3.12 2.98-.21 5.68-.13 5.2 3.12zm4.11 429.93c-1.61.03-8.63 7.61-12.44 5.21 4.63-1.25 6.59-5.18 12.44-5.21zm-14.52-20.82c-.5-2.04 4.77-3.351 5.21-1.04.99 3.75-4.5 1.85-5.21 1.04z"/><path d="m232.72 213.04c-4.44 2.1.9-10.39-3.13-10.41 5.98-3.26.12 7.86 3.13 10.41z" fill="#fff"/><path d="m228.55 482.67c2.12-3.63 1.97-13.79 4.17-21.87 2.74 5.55-2.71 11.851-1.04 19.78-1.37.37-1.64 1.84-3.13 2.09z"/><path d="m235.84 144.34c-2.62-7.1-3.83-15.61-12.49-16.66 6.62-1.05 13.17 6.95 12.49 16.66zm8.33 569.43c3.02 7.761-14.79 3.311-15.62-1.039 1.4-1.111 11.86 7.889 15.62 1.039z" fill="#fff"/><path d="m228.62 421.29c-.01-.01-.04-.02-.07-.04v-.01c.03.01.05.03.07.05z"/><path d="m229.59 800.17c-6.07 3.72.44-8.08-4.16-8.33 5.96-3.83-.02 8.5 4.16 8.33zm-2.08-443.47c-2.53-.7 2.64-6.96-2.08-7.28 3.07-4.11 4.41 5.76 2.08 7.28z" fill="#fff"/><path d="m233.76 329.64c-4.08-.03-13.85-5.24-6.25-7.29-4.34 5.36 5.53 3.71 6.25 7.29z"/><path d="m232.72 68.34c4.37 4.11-8.3 11.84-9.37 4.17 3.05 4.01 9.47 1.02 9.37-4.17z" fill="#fff"/><path d="m229.59 206.8c-2.74-.03-6.52.97-5.2-3.12 2.98-.21 5.68-.13 5.2 3.12z"/><path d="m226.47 171.4c-3.52.5-7.3 12.1-6.25 2.09 1.95-.83 3.82-1.74 6.25-2.09zm-1.04-112.42c-.42-.33-.54-.58-.44-.75.49-.91 6.77.08 7.73.75.82 3.6-1.16 4.39-2.09 6.24-3.19-1.02 1.2-2.78 1.05-4.16-.96-1.82-3.26-2.3-6.25-2.08z" fill="#fff"/><path d="m227.51 232.82c-.02 2.86-4.91 2.48-6.24 1.04.02-2.85 4.91-2.47 6.24-1.04zm-1.04 210.29c-3.63.689-4.94-.94-7.71-1.12 7.25-.471 12.8-2.75 12.92-12.42 3.43 5.55-3.3 9.87-5.21 13.54z"/><path d="m225.43 451.43c-12.03 1.141 1.52-6.21 2.08 3.13 2.42 1.4 7.78-.149 7.29 4.16-1.88-1.93-5.26-2.38-8.33-3.12.44-2.18-.71-2.76-1.04-4.17zm6.25 82.24c-2.89 2.82-5.71-3.26-8.33-4.16 2.82-2.76 4.73 4.23 8.33 4.16z" fill="#fff"/><path d="m222.31 504.53c-1.12 6.22 3.56 13.81 4.16 19.77-3.41-.55-8.69-24.92 0-28.1 1.74 3.99-3.39 4-4.16 8.33zm-8.33-83.28c-2.05-4.73 13.41-6.04 14.57-.01-1.06-.61-12-6.16-14.57.01z"/><path d="m220.22 103.74c.55-4.32 5.26-4.46 4.17-10.41 2.53-.99.47 9.71-3.12 9.37 1.82 1.38.82 14.21 0 6.24.86-2.94-1.47-2.69-1.05-5.2z" fill="#fff"/><path d="m219.18 267.18c3.2 1.02-1.19 2.77-1.04 4.16.79 2.68 3.33 3.62 7.29 3.12 2.06-.72 2.78-2.77 3.12-5.2 2.96 1.39-.8 4.63-1.04 6.24-8.15 1.94-13.23-3.14-8.33-8.32z" fill="#fff5b4"/><path d="m221.27 520.14c-1.9-1.229-.82-5.43-2.09-7.29 2.36.9 3.83 5.42 2.09 7.29zm1.04-399.74c10.23.54-6.03 2.79-3.13-4.17 1.41 1.02 2.08 2.78 3.13 4.17z" fill="#fff"/><path d="m221.27 68.34c-.63-5.27-6-5.8-6.25-11.45h4.16c-.03.09-.05.17-.09.25-.28.65-.91.94-1.99.8.37 4.48 5.77 3.94 4.17 10.4zm-3.13 629.81c-.78-3.9 3.98-2.271 4.17-5.2-.27-4.25-3.88-5.141-3.13-10.41 2.27-3.29 7.23-3.88 11.45-5.21-1.92 3.63-9.1 2-10.41 6.25 2.24 5.4 5.06 11.27-1.04 14.57-.8 6.359 5.55 5.56 5.21 11.449-2.26-3.639-6.53-5.269-6.25-11.449zm.6-256.16c-.54.04-1.09.06-1.64.08.61-.08 1.15-.1 1.64-.08zm8.77-188.35c1.45-7.35-9.81-1.98-9.37-8.32 2.31 2.55 7.46 2.25 10.41 4.16 1.5 5.31-3.18 4.45-4.16 7.29-3.04-1.17 1.32-3.39 3.12-3.13z"/><path d="m213.98 215.13c6.3-3.41 2.54 7.08 7.29 7.28-6.02 2.97-1.18-7.74-7.29-7.28zm1.04-30.19c.64-1.45 4.01-.16 4.16-2.08 3.66 1.77-2.42 2.28-3.12 3.12-.11 3.23 3.28 2.97 2.08 7.29-1.21-2.61-3.63-4.01-3.12-8.33zm1.04 272.74c1.08 16.391-3.8 1.91 1.04-3.12 2.55.11.22 3.44-1.04 3.12z" fill="#fff"/><path d="m220.22 480.58c-1.11-2.43-7.7-9.061-5.2-8.33 1.06 3.46 5.76 3.26 5.2 8.33z"/><path d="m218.14 435.82c-3.07 1.3-6.09-6.37-6.24-11.45 2.24 3.65 3.35 8.45 6.24 11.45z" fill="#fff"/><path d="m213.98 257.81c.99-.59 7.84 1.83 8.33 5.2-2.17-2.34-6.45-2.57-8.33-5.2zm2.08 108.26c-2.41.33-4-.17-5.2-1.04.09-3.1 6.2-2.78 5.2 1.04z"/><path d="m212.94 248.44c-6.03-.06 2.15-9.39 2.08-13.53 5.95 2.55-6.68 8.96-2.08 13.53z" fill="#fff"/><path d="m210.86 328.6c2.35-1.43-2.55 5.94-5.21 6.24-.41-4.23 4.43-3.2 5.21-6.24z"/><path d="m209.81 346.29c.89.19.99-.4 1.05-1.04h2.08c-.19.89.4.98 1.04 1.04v2.08c-.89-.19-.98.41-1.04 1.05h-2.08c.19-.89-.41-.99-1.05-1.05zm3.13-148.86c4.57 1.53-1.04 5.11-3.13 6.25-.62 3.74 3.18 3.06 3.13 6.24-2.29-1.52-4.88-2.76-4.17-7.29 1.44-1.68 4.96-1.29 4.17-5.2z" fill="#fff"/><path d="m203.57 398.34c3.34-2.25 7.28 3.79 10.41 5.21-3.18 2.09-6.06-5.01-10.41-5.21zm0-47.88c1.17-2.08 3.61-12.39 4.16-8.33-.27 3.2-2.26 4.68-3.12 7.29.14 3.67 2.98 4.65 3.12 8.32-2.51-1.3-3.36-4.26-4.16-7.28zm0 14.57c-.52-12.33 3.25.81-1.04 3.12-2.12.32.21-3 1.04-3.12zm-6.18-240.86c-.14.13-.27.27-.39.41.12-.15.25-.28.39-.41z"/><path d="m195.22 127.63c-.08.19-.16.38-.23.57l.02-.07c.07-.17.14-.33.21-.5z" fill="#fff"/><path d="m199.4 132.89c2.13 3.08-5.05 11.22-8.48 6.85l4.03-11.45.04-.09c.07-.19.15-.38.23-.57.48-1.13 1.03-2.19 1.78-3.05.12-.14.25-.28.39-.41.13-.13.27-.25.42-.37.14-.12.3-.23.46-.33 1.06-.7 2.42-1.08 4.26-.99-5.78 2.71-10.8 11.2-9.37 17.69 4.34-.17 3.63-5.39 6.24-7.28z" fill="#fff"/><path d="m190.04 136.01c2.84-1.37 3.71-4.71 4.91-7.72l-4.03 11.45c-.33-.43-.63-.97-.88-1.65z"/><path d="m190.92 139.74-.88 2.51v-4.16c.25.68.55 1.22.88 1.65z" fill="#fff"/><g fill="none"><g stroke="#231f20"><path d="m593.98 63.09h209.49v136.46h-208.24m-16.72-145.64c-3.95-1.76-6.59-4.93-6.59-8.55 0-5.54 6.16-10.02 13.74-10.02 7.59 0 13.75 4.48 13.75 10.02 0 3.53-2.521 6.64-6.311 8.42-2.149 1.01-4.699 1.59-7.439 1.59-2.62 0-5.07-.53-7.15-1.46z" stroke-width="7.545"/><path d="m578.51 53.63v.28l.4 240.92m14.19-241.7v241.7" stroke-width="7.545"/><path d="m802.24 77.12 1.23-.69.72-.41m.36 109.59-1.08-.63-2.56-1.51" stroke-width="5.03"/><path d="m702.09 105.36c-50.3 27.31-6.46 56.05.72 57.49m-.72-57.49c-25.149 25.15-6.46 51.74.72 57.49" stroke-width="2.515"/><path d="m634.55 97.46h122.21v76.38h-122.21z" stroke-width="5.03"/><g stroke-width="4"><path d="m215.02 56.89h4.16c-.03.09-.05.17-.09.25-.28.65-.91.94-1.99.8.37 4.48 5.77 3.94 4.17 10.4-.63-5.27-6-5.8-6.25-11.45zm87.44 353.95c-1.36.01-4.84-6.78-11.45-7.29 2.13-1.04 9.36 1.71 11.45 4.16zm-104.65-287.04c.15-.12.3-.23.46-.33m-1.27 1.11c.12-.15.25-.28.39-.41m-7.35 13.92v-2.08c2.84-1.37 3.71-4.71 4.91-7.72"/><path d="m190.04 142.25v-4.16c.25.68.55 1.22.88 1.65 3.43 4.37 10.61-3.77 8.48-6.85-2.61 1.89-1.9 7.11-6.24 7.28-1.43-6.49 3.59-14.98 9.37-17.69-1.84-.09-3.2.29-4.26.99-.16.1-.32.21-.46.33-.15.12-.29.24-.42.37-.14.13-.27.27-.39.41-.75.86-1.3 1.92-1.78 3.05-.07.17-.14.33-.21.5m20.01-71.24h-6.77m72.35 165.52c-1.21-.87-2.79-1.37-5.2-1.04 2.18 5.74 2.13.75 5.2 1.04zm-55.61-164.18c-.1.17.02.42.44.75 2.99-.22 5.29.26 6.25 2.08.15 1.38-4.24 3.14-1.05 4.16.93-1.85 2.91-2.64 2.09-6.24-.96-.67-7.24-1.66-7.73-.75zm-1.64 14.28c1.07 7.67 13.74-.06 9.37-4.17.1 5.19-6.32 8.18-9.37 4.17zm30.19 6.24c.1-1.63-.14-3.6 2.08-3.12-.38-3.09-1.81-5.13-4.16-6.24 3.22 2.08-.32 9.91 2.08 9.36zm-11.45 7.29c1.96-.46 6.27 1.42 5.2-2.08-1.55-1.65-5.93-1.52-5.2 2.08zm7.28 0c-1.8 2.34-.66 6.86 0 7.29 2.27-2.18-.52-2.97 0-6.25 2.36.5 6.25-2.61 3.13-4.16.19 2.27-.86 3.31-3.13 3.12zm-29.15 17.7c-.42 2.51 1.91 2.26 1.05 5.2.82 7.97 1.82-4.86 0-6.24 3.59.34 5.65-10.36 3.12-9.37 1.09 5.95-3.62 6.09-4.17 10.41zm17.7 1.04c1.79-3.77 2.67-8.44 6.25-10.41-4.46.43-7.87 7.35-6.25 10.41zm-18.74 11.45c-2.9 6.96 13.36 4.71 3.13 4.17-1.05-1.39-1.72-3.15-3.13-4.17zm16.66 28.11c.68-9.71-5.87-17.71-12.49-16.66 8.66 1.05 9.87 9.56 12.49 16.66zm19.78 8.33c.6 1.83-1.26 6.11 1.04 6.24 2.69-13.65-3.2-20.73-9.37-28.1 1.76 7.94 11.45 12.38 8.33 21.86zm-17.7-18.74c.36 3.67 2.73 2.69 5.21 2.08-.36-3.68-2.74-2.69-5.21-2.08zm-1.04 23.94c-3.75-3.18-1.24-12.64-7.29-13.53 4.19 2.08 2.78 15.24 7.29 13.53zm5.21 11.45c1.74 5.34 1.74 5.07 0 10.41 1.97 1.84 2.46 5.17 4.16 7.29-.01-6.83-5.02-7.74-1.04-13.53-1.04-1.39-1.72-3.15-3.12-4.17zm24.98 2.08c6.12-.91 2.67 7.75 5.21 10.41 3.75-4.62-3.49-14.89-5.21-10.41zm-40.6 0c-2.43.35-4.3 1.26-6.25 2.09-1.05 10.01 2.73-1.59 6.25-2.09zm-11.45 13.54c-.51 4.32 1.91 5.72 3.12 8.33 1.2-4.32-2.19-4.06-2.08-7.29.7-.84 6.78-1.35 3.12-3.12-.15 1.92-3.52.63-4.16 2.08zm40.46 8.27s.01.01.02.01c.03.01.07.03-.02-.01a.84.84 0 0 0 -.12-.04s.01 0 .02.01c.25.12 3.74 1.5 5.44 1.13 4.86-1.07 12.5-7.83 9.37-6.25-4.45 5.62-16.2 4.37-14.71 5.15zm-42.54 16.71c.05-3.18-3.75-2.5-3.13-6.24 2.09-1.14 7.7-4.72 3.13-6.25.79 3.91-2.73 3.52-4.17 5.2-.71 4.53 1.88 5.77 4.17 7.29zm19.78 3.12c-3.01-2.55 2.85-13.67-3.13-10.41 4.03.02-1.31 12.51 3.13 10.41zm37.44 1c.01.02.02.03.03.05-.02 0-.05 0-.07-.01m.04-.04c2.11-2.1 3.56-4.49 3.16-6.2-1.96 2.25-5.26 2.42-3.16 6.2zm-.04.04c.02-.01.03-.02.04-.04m-6.21 4.21c2-.74 4.33-2.34 6.17-4.17-3.77-.32-5.28 1.62-6.17 4.17zm-49.97-3.12c6.11-.46 1.27 10.25 7.29 7.28-4.75-.2-.99-10.69-7.29-7.28zm74.95 16.65c2.31-.59 5.34-11.95 1.04-9.37 4.42 3.15-4.26 7.42-1.04 9.37zm-73.91 3.13c.07 4.14-8.11 13.47-2.08 13.53-4.6-4.57 8.03-10.98 2.08-13.53zm81.2 80.15c-.79 2.4-6.83 4.89-4.17 7.29 1.57-3.29 5.63-4.09 5.21-9.37-3.72-1.49-6.91-3.5-9.37-6.25-.27 5.83 6.71 4.4 8.33 8.33zm-23.94 24.99c-3.24-1.63-5.47-4.26-8.33-6.25.56 3.64 5.94 7.88 8.33 6.25zm-7.29 12.49c-2.54-6.4 6.83-6.3 4.16-9.37-2.58 1.28-7.75 5.38-4.16 9.37zm-55.18-6.25v2.08c.64.06 1.24.16 1.05 1.05h2.08c.06-.64.15-1.24 1.04-1.05v-2.08c-.64-.06-1.23-.15-1.04-1.04h-2.08c-.06.64-.16 1.23-1.05 1.04zm17.7 10.41c2.33-1.52.99-11.39-2.08-7.28 4.72.32-.45 6.58 2.08 7.28zm44.77-6.24c1.2.87 2.79 1.37 5.2 1.04.61-4.22-4.28-3.31-5.2-1.04zm-8.33 21.86c-.64-4.88 2.14-11.79-2.08-16.66 1.4 8.83-.62 12.29 2.08 16.66zm14.57 31.23c-3.24-.28-4.67-7.76-7.29-5.21 2.09 1.43 4.52 7.91 7.29 5.21zm-12.49 26.02c3.88.42 6.11-.83 6.25-4.16-3.56-.78-1.33 4.229-5.21 3.12-1.1-3.88 2.19-3.36 3.12-5.2-4.42-.96-4.44 2.49-4.16 6.24zm-47.89 6.25c-2.89-3-4-7.801-6.24-11.45.15 5.08 3.17 12.75 6.24 11.45zm16.66 22.9c.49-4.31-4.87-2.76-7.29-4.16-.56-9.34-14.11-1.989-2.08-3.13.33 1.41 1.48 1.99 1.04 4.17 3.07.74 6.45 1.19 8.33 3.12zm-17.7-4.16c-4.84 5.03.04 19.511-1.04 3.12 1.26.32 3.59-3.01 1.04-3.12zm30.19 40.6c-2.51-.34-5.53-5.49-8.33-2.09 4.09-1.24 5.75 5.27 8.33 2.09zm-26.02 24.98c1.74-1.87.27-6.39-2.09-7.29 1.27 1.86.19 6.06 2.09 7.29zm10.41 13.53c-3.6.07-5.51-6.92-8.33-4.16 2.62.9 5.44 6.98 8.33 4.16zm45.8 12.5c1.23 14.9 4.29-4.62 0-8.33.16 4.41-.23 5.51 0 8.33zm-17.7 123.87v6.25c5.37-.48 6 9.229 11.45 5.21-6.27-.69-10.53-8.87-11.45-11.46zm-15.61 43.73c-3.76 6.851-14.22-2.149-15.62-1.039.83 4.349 18.64 8.799 15.62 1.039zm-14.58 86.4c-4.18.17 1.8-12.16-4.16-8.33 4.6.25-1.91 12.05 4.16 8.33zm46.85-567.35c-4.02 2.25-4.93-7.53-11.45-6.24-3.32-1.44 3.68-1.03 5.2-1.04.81 3.7 3.81 5.21 6.25 7.28zm-45.81-2.08c2.22-2.81 7.67-.1 9.37 1.04-2.79 5.16 4.73 7.05 1.04 12.49-2.56-4.64.74-15.08-10.41-13.53zm-12.49 14.58c2.31 2.55 7.46 2.25 10.41 4.16 1.5 5.31-3.18 4.45-4.16 7.29-3.04-1.17 1.32-3.39 3.12-3.13 1.45-7.35-9.81-1.98-9.37-8.32zm4.17 17.69c-2.17-2.34-6.45-2.57-8.33-5.2.99-.59 7.84 1.83 8.33 5.2zm-3.13 4.17c3.2 1.02-1.19 2.77-1.04 4.16.79 2.68 3.33 3.62 7.29 3.12 2.06-.72 2.78-2.77 3.12-5.2 2.96 1.39-.8 4.63-1.04 6.24-8.15 1.94-13.23-3.14-8.33-8.32zm54.14 20.82c-3.89 1.77-13.94.77-12.5-6.25.94-3.2 15.02-1.63 5.21-1.04-1.38 1.04-3.87.98-4.16 3.12.5 4.7 7.85 2.56 11.45 4.17zm-2.09 4.16c1.47-4.4 7.37-.36 9.37 1.04-1.12 1.73-4.95-2.61-9.37-1.04zm-2.08 5.21c-2.89 2.31-8.82 5.96-5.2 11.45-4.54.08-2.42-12.14 5.2-11.45zm14.58 7.28c-3.32 2.57-5.27-5.1-9.37-5.2 3.31-2.57 5.27 5.1 9.37 5.2zm-20.82 10.41c2.78-1.84-.98 4.37-1.04 6.25 3.25 2.9-.18 10.76 1.04 6.24-2.58-3.55-2.58-8.94 0-12.49zm-35.4 7.29c-4.34 5.36 5.53 3.71 6.25 7.29-4.08-.03-13.85-5.24-6.25-7.29zm53.09 18.74c-2.5-7.03 1.57-16.47 8.33-17.7-6.01 4.78-7.68 9.05-8.33 17.7zm-74.95-6.25c-.41-4.23 4.43-3.2 5.21-6.24 2.35-1.43-2.55 5.94-5.21 6.24zm2.08 22.9c-2.51-1.3-3.36-4.26-4.16-7.28 1.17-2.08 3.61-12.39 4.16-8.33-.27 3.2-2.26 4.68-3.12 7.29.14 3.67 2.98 4.65 3.12 8.32zm74.96-6.24v1.04c.02-.37.02-.72 0-1.04zm0 0v-.07m0 0c-.39-5.5-6.59-5.17-9.37-8.26 3.1 1.06 6.66 1.67 9.37 3.12zm-80.16 16.72c-2.12.32.21-3 1.04-3.12-.52-12.33 3.25.81-1.04 3.12zm71.83-6.24c-1.31 5.98-3.98 10.59-6.25 15.61-.73-3.88 3.62-11.63 6.25-15.61zm-58.3 4.16c-2.41.33-4-.17-5.2-1.04.09-3.1 6.2-2.78 5.2 1.04zm46.85 21.86c1.01 3.83-9.42 10.68-5.21 17.7-6.49-1.09 1.89-13.69 5.21-17.7zm-48.93 15.62c-3.18 2.09-6.06-5.01-10.41-5.21 3.34-2.25 7.28 3.79 10.41 5.21zm82.24 7.29c2.53 9.82-25.72-2.13-22.9 11.45-5.53-12.83 19.36-4.22 22.9-11.45zm-67.67 10.4v.01c.03.02.06.03.07.04.02 0 .03.01 0 0a.18.18 0 0 0 -.07-.05m0 0c-1.06-.61-12-6.16-14.57.01-2.05-4.73 13.41-6.04 14.57-.01zm-9.81 20.75c-.49-.021-1.03 0-1.64.08.55-.02 1.1-.04 1.64-.08zm0 0h.02m0 0c7.25-.471 12.8-2.75 12.92-12.42 3.43 5.55-3.3 9.87-5.21 13.54-3.63.69-4.94-.94-7.71-1.12zm46.53 27.31c.23.3.47.59.74.87-9.39-2.979 1.32-25.479-4.16-35.39 3.35.229 4.4-1.84 8.32-1.04.08.359.1.67.07.93-.26 2.57-5.21.46-7.35 1.15 5.49 9.68-3.44 25.59 2.38 33.48zm6.99-34.52c3.3 1.34 17.64 5.76 13.53 14.569.84-6.999-8.06-10.689-13.53-14.569zm10.41 17.7c1.87 7.789-12.64 8.17-13.54 16.649-2.4-3.149 5.11-5.26 4.17-10.41 6.34 1.151 8.32-2.079 9.37-6.239zm-54.14 30.19c2.12-3.63 1.97-13.79 4.17-21.87 2.74 5.55-2.71 11.851-1.04 19.78-1.37.37-1.64 1.84-3.13 2.09zm-13.53-10.42c1.06 3.46 5.76 3.26 5.2 8.33-1.11-2.43-7.7-9.06-5.2-8.33zm43.72 22.91c2.3 1.859 2.54 5.78 4.17 8.32-2.42 2.359-2.97-6-5.21-7.28-8.23.6-5.79-1.84 1.04-1.04z"/><path d="m226.47 496.2c1.74 3.99-3.39 4-4.16 8.33-1.12 6.22 3.56 13.81 4.16 19.77-3.41-.55-8.69-24.92 0-28.1zm34.35 15.61c-.08 2.73-9.92 4.631-11.45 9.37.08-6.86 6.66-7.22 11.45-9.37zm-17.75 12.49c-1.61.03-8.63 7.61-12.44 5.21 4.63-1.25 6.59-5.18 12.44-5.21zm0 0h.06m23.94 21.87c5.79-3.12 7.81-8.46 10.41-13.54 1.42 10.8-12.63 15.12-21.86 18.74-.54-4.9 7.71-3.2 11.45-5.2zm-14.57 12.49c1.77 14.47 17.81 5.479 26.02 3.12-6.7 6-28.41 11.96-26.02-3.12zm1.04 90.57c-3.11.77-13.75-1.801-13.54 5.199-2.28-5.429 8.53-9.219 13.54-5.199zm4.16 4.16c3.77-2.89 6.09 7.12 2.08 12.49-3.52-3.19 5.41-11.05-2.08-12.49zm-20.82 5.2c2.56-1.47 7.24 3.83 7.29 8.33-2.39-2.82-3.69-6.72-7.29-8.33zm5.21 9.37c3.75 3.82-4.18 4.8-8.33 4.17 1.29-2.87 9.65 1.32 8.33-4.17zm-11.46 9.37c-1.92 3.63-9.1 2-10.41 6.25 2.24 5.4 5.06 11.27-1.04 14.57-.8 6.359 5.55 5.56 5.21 11.449-2.26-3.64-6.53-5.27-6.25-11.449-.78-3.9 3.98-2.271 4.17-5.2-.27-4.25-3.88-5.141-3.13-10.41 2.27-3.29 7.23-3.88 11.45-5.21zm34.36 8.33c5.57 2.78 13.46 16.91 4.16 21.859 7.17-7.339-.16-16.599-4.16-21.859zm-28.11 106.18c1.56-2.81 4.35 1.8 5.21 3.13.29 5.84-2.57 8.53-7.29 9.36 4.71-1.99 9.45-9.84 2.08-12.49zm-3.12-700.59c2.98-.21 5.68-.13 5.2 3.12-2.75-.03-6.52.97-5.2-3.12zm-9.37 112.43c2.98-.21 5.68-.13 5.2 3.12-2.74-.03-6.52.97-5.2-3.12zm3.12 29.14c-.02 2.86-4.91 2.48-6.24 1.04.02-2.85 4.91-2.47 6.24-1.04zm55.18 88.49c-.03 2.85-4.92 2.47-6.25 1.04.02-2.85 4.91-2.47 6.25-1.04zm-48.93 181.13c.99 3.75-4.5 1.85-5.21 1.04-.5-2.04 4.77-3.35 5.21-1.04zm15.61 12.5c1.6 3.189-6.79 3.189-5.2 0 .63-.6 4.94-2.44 5.2 0zm4.17 164.47c1.42 3.79-7.01 4.979-5.21 0zm9.37 11.46c1.59 3.189-6.8 3.189-5.21 0 .63-.61 4.94-2.44 5.21 0zm-16.66 13.53c-1.97-.46-6.27 1.42-5.21-2.08 1.56-1.66 5.94-1.53 5.21 2.08z"/></g></g><path clip-rule="evenodd" d="m.25.25h850.394v850.394h-850.394z"/></g></svg>