<svg height="850.394" viewBox="0 0 850.394 850.394" width="850.394" xmlns="http://www.w3.org/2000/svg"><path d="m277.52 418.03v1.11h-.22l-45.17 56.15-.88-.71v-113.16h.73zm342.44-54.72v113.16l-.88.71-44.55-55.37v-2.94l44.7-55.56z" fill="#ed1d31"/><path d="m776.45 341.85v154.81l-60.48-7.8.17-1.29 21.2-28.17-21.2-18.1 20.78-22.29-20.78-21.94 21.2-18.09-21.2-28.18-.15-1.15z" fill="#33a048"/><path d="m716.14 350.8 21.2 28.18-21.2 18.09zm21.2 108.6-21.2 28.17v-46.27zm-21.2-62.33 20.78 21.94-20.78 22.29zm0 44.23v46.27l-.17 1.29-96.01-12.39v-114.42l96.03-12.4.15 1.15v46.27z" fill="#fbee34"/><path d="m574.53 421.81v59.93h-297.01v-124.53h297.01v61.66z" fill="#ed1d31"/><path d="m231.25 361.42v113.16l-96.02 12.39-.17-1.29v-136.78l.15-1.14 96.04 12.39z" fill="#fbee34"/><path d="m135.06 485.68.17 1.29-60.49 7.8v-154.81l60.47 7.8-.15 1.14-21.2 28.19 21.2 18.09-20.77 21.94 20.77 22.29-21.2 18.09z" fill="#33a048"/><path d="m135.06 439.41v46.27l-21.2-28.18zm0-44.23v44.23l-20.77-22.29zm0-46.28v46.28l-21.2-18.09z" fill="#fbee34"/><g fill="none"><g stroke="#231f20" stroke-width="14"><path d="m277.52 418.03v-60.82h297.01v124.53h-297.01v-62.6zm438.47-68.38 60.46-7.8v154.81l-60.48-7.8-96.01-12.39v-114.42z"/><path d="m619.23 363.31-44.7 55.56-1.26 1.57m46.59 57.71-.78-.97-44.55-55.37-.63-.78m142.24 66.54 21.2-28.17-21.2-18.1 20.78-22.29-20.78-21.94 21.2-18.09-21.2-28.18m-580.93-3.04-60.47-7.8v154.81l60.49-7.8 96.02-12.39v-114.43zm96.77 13.66 45.54 56.61.41.51m-46.58 57.72.78-.97 45.17-56.15"/><path d="m135.06 485.68-21.2-28.18 21.2-18.09-20.77-22.29 20.77-21.94-21.2-18.09 21.2-28.19"/></g><path d="m0 0h850.394v850.394h-850.394z"/></g></svg>