<svg height="850" viewBox="0 0 850 850" width="850" xmlns="http://www.w3.org/2000/svg"><path d="m459.5 471-9.5 19.3-7.5 14.5-3 5.2-2 3.3-.5.7.3.5.5.3 1.2-.3 3.3-.5 4.5-1 5.7-1 6.3-1 3.5-.2h6.7l3.3.2 2.7-.7 4.5 12.5 4.8 12.2 4.7 11.8 2.5 5.2 2.5 5-3.7 2-8.8 1.8-21.2 4-13.3 2.2-13.7 2.3-13.3 2-12 1.5-13.5 1.7-5 .5h-2l-2-.2-1.7-.5-1.8-.8-1.7-1-1.8-1.2-1.7-1.8-2-2-4.3-5.2-1-1.8-1-2.2-.5-2.3-.5-2.7-.2-2.8v-3.2l.2-3.3.3-3.5 1.2-7.2 1.5-7.8 1.8-8 2.2-8 2.3-8 2.5-7.2 4.5-13 3.2-8.8 1.3-3.5 1-5.7 6 .7 5 .5 4.5.3 4-.3 3.2-.5 2.8-.7 2-1 1.7-1 1.5-1.5 1-1.5 1-1.8.5-1.7 1-4 .5-4.5.3-1.3 4.2.3 3.8-.5 4.2-.3h4.8l4.7.5 2.5.3 2 .5 2 .7 1.8 1 1.2 1.3.8 1.2 2.2 6.8 4 13.2z" fill="#797878"/><path d="m549.3 493 1.7 14.5.8 6.5 2.5-2 2.7-1.7 3-1.5 3.3-1 3.5-.8h5.7l2 .3 2 .5 2 .7 5.3 1.5 6.7 2 16.8 3.8 21.7 4.7 20.3 4.3 21 4-.3.7-1 1.8-1.2 2.7-.5 2-.3 2v4.3l.5 2.2.5 2.5 1 2.5 1.3 3 1.7 2.8 2 3 3.8 5.2 2.5 4.5 1.7 3.8 1.3 3.2.5 2.5v3.5l-.3 1.3-.2.7-76.8-1.7-57.2-1.5-36-1-1.3-.3-1-.2-1.2-.5-1.3-.8-2.2-2-2.5-2.5-2.3-3-2.5-3.7-2.5-4-2.5-4.8-2.5-5-2.5-5.2-4.7-11.8-4.8-12.2-4.5-12.5-3.5-11-3.5-10.5-5.5-18.8-4-13.2-2.2-6.8-.8-1.2-1.2-1.3-1.8-1-2-.7-2-.5-2.5-.3-4.7-.5h-4.8l-4.2.3-3.8.5-4.2-.3 1.2-9.2 1.3-14 2.7-33.8 3.3-43.7-9.5-1.5 18-2.3 12.5-1.5 13.2-1 6.8-.5h6.5l6.5.3 6.5.5 6 1 5.7 1.5 5.5 1.7 2.8 1.3 2.5 1.2 2.2 1.3 2.5 1.7 2 1.8 2.3 1.7 1.7 2 2 2.3 1.5 2.2 1.5 2.5 1.5 2.8 1.3 3 1 3 .7 3.2.8 3.5.5 3.8.5 4v4l.5 15.7.7 13.8 1 12 1.3 10.7 1.2 9.8 1.5 9.2 3 18.3z" fill="#797878"/><path d="m423.3 342.8 9.5 1.5-3.3 43.7-2.7 33.8-1.3 14-1.2 9.2-.3 1.3-.5 4.5-1 4-.5 1.7-1 1.8-1 1.5-1.5 1.5-1.7 1-2 1-2.8.7-3.2.5-4 .3-4.5-.3-5-.5-6-.7-7.3-1.3-8-1.5-9-2-10-2.5-9.5-2.5-8.2-2.5-14-4.2-11.5-3.8-8.5-3.2-6-2-2.3-.8-1.7-.2h-1.3l-1.2.2-1 .5-.8 1-.7 1.3-.8 1.7-1.7 4.8-2.3 5.2-2 4.8-2 3.7-1.7 3.3-3 5-2.3 2.7-.7 1-10-3.7-41-15.5-3.3-1.3 2.3-8.7 4.7-22 2.8-13.5 2.7-14 2.5-13.8 1.8-12 1-6.7 1.7-6.3 2-5.7 2.3-5.3 2.7-4.7 3.3-4.3 1.7-2 1.8-1.7 2-1.5 2-1.8 2-1.2 2.2-1.3 2.3-1.2 2.2-1 4.8-1.8 5.2-1 5.3-.7h5.7l5.8.5 6.2 1 12 2.5 15.5 2.7 36 6.3 36 6z" fill="#a8d7f4"/><path d="m746.8 559.3 1.2 3.2 1.3 3.5 1 3.5 1 3.3.5 3.5.2 3 .3 2.7-.3 2.5-.5 2-1 1.5-.5.8-.5.2-.7.3h-1l-.8-.3-1-.2-2.2-1.5-2.8-2.3-3-3.2-4-4.5-2.2-2.5-2.5-2.5-3-2.5-3-2.5-3.3-2.3-3.5-1.7-3.7-1.8-3.8-1-2-.5-2-.2h-2l-2.2.2-2 .3-2.3.5-2 .5-2.2 1-2.3 1-2.2 1.2-2.3 1.8-2.2 1.7h-3l-2.5-4.5-3.8-5.2-2-3-1.7-2.8-1.3-3-1-2.5-.5-2.5-.5-2.2v-4.3h2.5l1.8-.2 4-1 3.7-1.5 4-2 4-2 4-2.5 7.8-5 3.7-2.3 3.8-2 3.5-1.7 3.5-1.3 3.2-.7 1.5-.3h1.5l1.5.3 1.5.5 1.3.7 1.2.8 1 1 1 1 1.5 2.5 1.3 2.7 1 3 1.7 6 .8 2.8.7 2.2 1.5 3.3 1.5 2.5 1.5 2.5 1.8 2 3.2 4.5 1.5 2.5zm-139.3-44.3-.2.8-16.8-3.8-6.7-2-5.3-1.5-2-.7-2-.5-2-.3h-5.7l-3.5.8-3.3 1-3 1.5-2.7 1.7-2.5 2-.8-6.5-1.7-14.5 4.5-3.5 4.2-3 5.3-3.5 5.2-3 5.5-2.7 2.5-1 2.5-.8 2-.2h2l1.3.2 1.2.5 1 .5 1 .8 1.8 1.7 1.7 2.3 1.3 2.5 1.2 2.7 2 6.3 2 6.5 1 3 1.3 3.2 1.5 2.8 1.7 2.5 2.3 2.2 1 1zm-284.2-68.2-.5 1.7-.8 14.3-1.7 32.5-.8 18-.5 16.7-.2 13.3v5l.2 3.2v3.3l-.2 2.7-1 2.8-1.3 2.2-2 2-2 1.8-2.5 1.2-2.5 1.3-3 1-3 .7-3.2.8-3.3.2-3.2.3-3 .2-6.3-.2-5.2-.5-2-.5-2-.5-1.8-.5-1.2-.8-1.3-.7-1.2-1-.8-1-.7-1.3-1.3-3-1-3.2-.7-4.3-.3-1.7v-1.8l.3-1 .5-.7.7-.5.8-.5 2.5-.5 3.2-.3 1.8-.5 2-.5 2-1 2.2-1.2 2.3-1.5 2.2-2 1.3-1.3 1-1.5 1-1.7.7-1.8.5-2.2.5-2 1-5 .3-5.3.2-5.7-.2-6-.5-6.3-.5-6.5-.8-6.2-2-12.5-2.2-11.3-2.3-9.2 2-4.8 2.3-5.2 1.7-4.8.8-1.7.7-1.3.8-1 1-.5 1.2-.2h1.3l1.7.2 2.3.8 6 2 8.5 3.2zm-61.5 21.5-.8 2.2-1 5.3-1.5 5.5-1.7 7-2.3 7.5-2.5 7.5-1.5 3.5-1.2 3.5-1.8 3-1.5 2.7-2 2.8-3.2 3-3.8 3.2-4.5 3.8-10.7 7.7-12 8.5-12.3 8.8-11.5 8.5-5.2 4-4.5 4-3.8 3.7-3.2 3.8-1 1.5-2 5-1.3 2.2-1.2 2-1.5 2.3-1.8 1.7-2 1.8-2 1.5-2.5 1.2-2.7 1-3 .8-3.3.5-4 .2-4.2-.2-4.5-.3-5.3-1-5.2-.7-4.3-.3h-4l-3.2.5-5.3.8-2 .5h-2.7l-1-.5-.8-1-.7-1.5-.3-2.5-.5-3-.5-9.3v-1.7l.3-1.8.5-1.2.5-1.5 1-1 1-1.3 1.2-1 1.5-1 3-1.5 3.5-1 3.8-1 4-.7 3.7-.3 3.8-.2 6.7-.3 5 .3h1.8l1.5-.8 2.2-1.5 5-3.7 5.3-4 3.7-2.8 3-2.5 3.8-3.2 3.7-3.8 4.3-4.5 8.7-10.2 8.8-11 8-10.3 6.7-9 6-8.2 12.3-37.5zm-20.5-147.3-.3 7.3-1 7-1.2 6.7-1.8 6.5-2.2 6.3-2.8 5.7-3.2 5.5-3.5 5-3.8 4.5-4.2 4-2.3 1.8-2.2 1.7-2.5 1.5-2.3 1.5-2.5 1.3-2.5 1.2-2.7.8-2.5.7-2.8.8-2.7.5-2.8.2h-5.5l-2.7-.2-2.8-.5-2.7-.8-2.5-.7-2.8-.8-2.5-1.2-2.5-1.3-2.2-1.5-2.5-1.5-2.3-1.7-2.2-1.8-4.3-4-3.7-4.5-3.5-5-3.3-5.5-2.7-5.7-2.3-6.3-1.7-6.5-1.3-6.7-1-7-.2-7.3.2-7.2 1-7 1.3-6.8 1.7-6.5 2.3-6 2.7-6 3.3-5.2 3.5-5 3.7-4.8 4.3-4 2.2-1.7 2.3-1.8 2.5-1.5 2.2-1.5 2.5-1.2 2.5-1 2.8-1 2.5-.8 2.7-.7 2.8-.5 2.7-.3h5.5l2.8.3 2.7.5 2.8.7 2.5.8 2.7 1 2.5 1 2.5 1.2 2.3 1.5 2.5 1.5 2.2 1.8 2.3 1.7 4.2 4 3.8 4.8 3.5 5 3.2 5.2 2.8 6 2.2 6 1.8 6.5 1.2 6.8 1 7z" fill="#ffeec8"/><g fill="none" stroke="#231f20" stroke-linecap="round" stroke-miterlimit="10" stroke-width="21"><path d="m667.5 538h2l1.8-.2 4-1 3.7-1.5 4-2 4-2 4-2.5 7.8-5 3.7-2.3 3.8-2 3.5-1.7 3.5-1.3 3.2-.7 1.5-.3h1.5l1.5.3 1.5.5 1.3.7 1.2.8 1 1 1 1 1.5 2.5 1.3 2.7 1 3 1.7 6 .8 2.8.7 2.2 1.5 3.3 1.5 2.5 1.5 2.5 1.8 2 3.2 4.5 1.5 2.5 1.8 3 1.2 3.2 1.3 3.5 1 3.5 1 3.3.5 3.5.2 3 .3 2.7-.3 2.5-.5 2-1 1.5-.5.8-.5.2-.7.3h-1l-.8-.3-1-.2-2.2-1.5-2.8-2.3-3-3.2-4-4.5-2.2-2.5-2.5-2.5-3-2.5-3-2.5-3.3-2.3-3.5-1.7-3.7-1.8-3.8-1-2-.5-2-.2h-2l-2.2.2-2 .3-2.3.5-2 .5-2.2 1-2.3 1-2.2 1.2-2.3 1.8-2.2 1.7m-263.5-224.7 3.5-.5 18-2.3 12.5-1.5 13.2-1 6.8-.5h6.5l6.5.3 6.5.5 6 1 5.7 1.5 5.5 1.7 2.8 1.3 2.5 1.2 2.2 1.3 2.5 1.7 2 1.8 2.3 1.7 1.7 2 2 2.3 1.5 2.2 1.5 2.5 1.5 2.8 1.3 3 1 3 .7 3.2.8 3.5.5 3.8.5 4v4l.5 15.7.7 13.8 1 12 1.3 10.7 1.2 9.8 1.5 9.2 3 18.3 2.3 15.7 1.7 14.5.8 6.5v.5"/><path d="m428.5 445.3 3.8-.5 4.2-.3h4.8l4.7.5 2.5.3 2 .5 2 .7 1.8 1 1.2 1.3.8 1.2 2.2 6.8 4 13.2 5.5 18.8 3.5 10.5 3.5 11 4.5 12.5 4.8 12.2 4.7 11.8 2.5 5.2 2.5 5 2.5 4.8 2.5 4 2.5 3.7 2.3 3 2.5 2.5 2.2 2 1.3.8 1.2.5 1 .2 1.3.3 36 1 57.2 1.5 76.8 1.7.2-.7.3-1.3v-3.5l-.5-2.5-1.3-3.2-1.7-3.8-2.5-4.5-3.8-5.2-2-3-1.7-2.8-1.3-3-1-2.5-.5-2.5-.5-2.2v-4.3l.3-2 .5-2 1.2-2.7 1-1.8.3-.7-21-4-20.3-4.3-21.7-4.7-16.8-3.8-6.7-2-5.3-1.5-2-.7-2-.5-2-.3h-5.7l-3.5.8-3.3 1-3 1.5-2.7 1.7-2.5 2-2.8 2.5-2.5 2.8-1.7 2.5-1.5 2.2m-155-55-1.3 3.5-3.2 8.8-4.5 13-2.5 7.2-2.3 8-2.2 8-1.8 8-1.5 7.8-1.2 7.2-.3 3.5-.2 3.3v3.2l.2 2.8.5 2.7.5 2.3 1 2.2 1 1.8 4.3 5.2 2 2 1.7 1.8 1.8 1.2 1.7 1 1.8.8 1.7.5 2 .2h2l5-.5 13.5-1.7 12-1.5 13.3-2 13.7-2.3 13.3-2.2 21.2-4 8.8-1.8"/><path d="m459.5 471-9.5 19.3-7.5 14.5-3 5.2-2 3.3-.5.7.3.5.5.3 1.2-.3 3.3-.5 4.5-1 5.7-1 6.3-1 3.5-.2h6.7l3.3.2m76.7-18h.3l4.5-3.5 4.2-3 5.3-3.5 5.2-3 5.5-2.7 2.5-1 2.5-.8 2-.2h2l1.3.2 1.2.5 1 .5 1 .8 1.8 1.7 1.7 2.3 1.3 2.5 1.2 2.7 2 6.3 2 6.5 1 3 1.3 3.2 1.5 2.8 1.7 2.5 2.3 2.2 1 1 1.2 1m-184.2-172.2 9.5 1.5-3.3 43.7-2.7 33.8-1.3 14-1.2 9.2-.3 1.3-.5 4.5-1 4-.5 1.7-1 1.8-1 1.5-1.5 1.5-1.7 1-2 1-2.8.7-3.2.5-4 .3-4.5-.3-5-.5-6-.7-7.3-1.3-8-1.5-9-2-10-2.5-9.5-2.5-8.2-2.5-14-4.2-11.5-3.8-8.5-3.2-6-2-2.3-.8-1.7-.2h-1.3l-1.2.2-1 .5-.8 1-.7 1.3-.8 1.7-1.7 4.8-2.3 5.2-2 4.8-2 3.7-1.7 3.3-3 5-2.3 2.7-.7 1-10-3.7-41-15.5-3.3-1.3 2.3-8.7 4.7-22 2.8-13.5 2.7-14 2.5-13.8 1.8-12 1-6.7 1.7-6.3 2-5.7 2.3-5.3 2.7-4.7 3.3-4.3 1.7-2 1.8-1.7 2-1.5 2-1.8 2-1.2 2.2-1.3 2.3-1.2 2.2-1 4.8-1.8 5.2-1 5.3-.7h5.7l5.8.5 6.2 1 12 2.5 15.5 2.7 36 6.3 36 6zm-182-21.8-.3 7.3-1 7-1.2 6.7-1.8 6.5-2.2 6.3-2.8 5.7-3.2 5.5-3.5 5-3.8 4.5-4.2 4-2.3 1.8-2.2 1.7-2.5 1.5-2.3 1.5-2.5 1.3-2.5 1.2-2.7.8-2.5.7-2.8.8-2.7.5-2.8.2h-5.5l-2.7-.2-2.8-.5-2.7-.8-2.5-.7-2.8-.8-2.5-1.2-2.5-1.3-2.2-1.5-2.5-1.5-2.3-1.7-2.2-1.8-4.3-4-3.7-4.5-3.5-5-3.3-5.5-2.7-5.7-2.3-6.3-1.7-6.5-1.3-6.7-1-7-.2-7.3.2-7.2 1-7 1.3-6.8 1.7-6.5 2.3-6 2.7-6 3.3-5.2 3.5-5 3.7-4.8 4.3-4 2.2-1.7 2.3-1.8 2.5-1.5 2.2-1.5 2.5-1.2 2.5-1 2.8-1 2.5-.8 2.7-.7 2.8-.5 2.7-.3h5.5l2.8.3 2.7.5 2.8.7 2.5.8 2.7 1 2.5 1 2.5 1.2 2.3 1.5 2.5 1.5 2.2 1.8 2.3 1.7 4.2 4 3.8 4.8 3.5 5 3.2 5.2 2.8 6 2.2 6 1.8 6.5 1.2 6.8 1 7z"/><path d="m223.5 444.8-2.7 8-12.3 37.5-6 8.2-6.7 9-8 10.3-8.8 11-8.7 10.2-4.3 4.5-3.7 3.8-3.8 3.2-3 2.5-3.7 2.8-5.3 4-5 3.7-2.2 1.5-1.5.8h-1.8l-5-.3-6.7.3-3.8.2-3.7.3-4 .7-3.8 1-3.5 1-3 1.5-1.5 1-1.2 1-1 1.3-1 1-.5 1.5-.5 1.2-.3 1.8v1.7l.5 9.3.5 3 .3 2.5.7 1.5.8 1 1 .5h2.7l2-.5 5.3-.8 3.2-.5h4l4.3.3 5.2.7 5.3 1 4.5.3 4.2.2 4-.2 3.3-.5 3-.8 2.7-1 2.5-1.2 2-1.5 2-1.8 1.8-1.7 1.5-2.3 1.2-2 1.3-2.2 2-5 1-1.5 3.2-3.8 3.8-3.7 4.5-4 5.2-4 11.5-8.5 12.3-8.8 12-8.5 10.7-7.7 4.5-3.8 3.8-3.2 3.2-3 2-2.8 1.5-2.7 1.8-3 1.2-3.5 1.5-3.5 2.5-7.5 2.3-7.5 1.7-7 1.5-5.5 1-5.3m61.8-22-.8 14.3-1.7 32.5-.8 18-.5 16.7-.2 13.3v5l.2 3.2v3.3l-.2 2.7-1 2.8-1.3 2.2-2 2-2 1.8-2.5 1.2-2.5 1.3-3 1-3 .7-3.2.8-3.3.2-3.2.3-3 .2-6.3-.2-5.2-.5-2-.5-2-.5-1.8-.5-1.2-.8-1.3-.7-1.2-1-.8-1-.7-1.3-1.3-3-1-3.2-.7-4.3-.3-1.7v-1.8l.3-1 .5-.7.7-.5.8-.5 2.5-.5 3.2-.3 1.8-.5 2-.5 2-1 2.2-1.2 2.3-1.5 2.2-2 1.3-1.3 1-1.5 1-1.7.7-1.8.5-2.2.5-2 1-5 .3-5.3.2-5.7-.2-6-.5-6.3-.5-6.5-.8-6.2-2-12.5-2.2-11.3-2.3-9.2v-.3"/><path d="m122.8 550.8 4 2.7 3.7 3.3 3.8 3 4 3"/></g></svg>