<svg height="850.394" viewBox="0 0 850.394 850.394" width="850.394" xmlns="http://www.w3.org/2000/svg"><g fill="#ed1d31"><path d="m523.21 89.2-328.92 590.35c-70.78-63.42-115.31-155.53-115.31-258.04 0-191.28 155.06-346.34 346.34-346.34 34 0 66.85 4.9 97.89 14.03zm129.9 71.42c72.659 63.48 118.56 156.82 118.56 260.89 0 191.28-155.07 346.36-346.35 346.36-35.52 0-69.78-5.351-102.04-15.28z"/><path d="m323.28 752.59c-48.37-14.89-92.23-40.1-128.99-73.04l328.92-590.35c48.59 14.29 92.75 38.95 129.9 71.42z"/></g><g fill="none"><g stroke="#231f20" stroke-width="21"><path d="m653.11 160.62c72.659 63.48 118.56 156.82 118.56 260.89 0 191.28-155.07 346.36-346.35 346.36-35.52 0-69.78-5.351-102.04-15.28-48.37-14.89-92.23-40.1-128.99-73.04-70.78-63.42-115.31-155.53-115.31-258.04 0-191.28 155.06-346.34 346.34-346.34 34 0 66.85 4.9 97.89 14.03 48.59 14.29 92.75 38.95 129.9 71.42zm-67.64-33.17-331.55 595.06"/><path d="m653.53 159.86-.42.76-329.83 591.97-1.3 2.34m202.19-667.45-.96 1.72-328.92 590.35-1.67 3" stroke-dasharray="24.838"/></g><path d="m0 0h850.394v850.394h-850.394z"/></g></svg>