<svg height="850.394" viewBox="0 0 850.394 850.394" width="850.394" xmlns="http://www.w3.org/2000/svg"><g fill="#f6cc4b"><path d="m588.25 400.03c16.84 9.4 30.87 18.51 42.56 26.85l-.81 1.12c2.39 16.57 2.69 38.22-6.45 65.58l-21.22-42.08-5.55-20.3z"/><path d="m602.33 451.5 21.22 42.08c-3.06 9.18-7.189 18.99-12.67 29.479-9.42 2.261-21.24 4.391-36.63 6.16-.28.03-.57.07-.85.101l-.25-2.24c19.58-35.51 24.08-70.23 23.63-95.88zm-337.88-40.23c-3.63 0-6.58 4.13-6.58 9.22s2.95 9.21 6.58 9.21c3.64 0 6.59-4.12 6.59-9.21s-2.95-9.22-6.59-9.22zm59.67 7c7.47 14.16 7.48 33.89-1.48 52.08a68.126 68.126 0 0 1 -4.43 7.71h-.01c-14.43 21.78-39.1 31.681-58.29 22.221-21.32-10.49-27.82-40.931-14.51-67.971 5.96-12.1 14.89-21.479 24.84-27.18 12.28-7.06 26.12-8.55 37.89-2.75 6.98 3.44 12.37 9 15.99 15.89zm-10.52 29.43c0-5.09-2.95-9.22-6.58-9.22-3.64 0-6.58 4.13-6.58 9.22 0 5.08 2.94 9.21 6.58 9.21 3.63 0 6.58-4.13 6.58-9.21z"/><path d="m375.19 394.71c2.73-.81 5.16-1.59 7.16-2.3 9-3.21 41.3-15.43 81.38-19.29 10.67-1.03 21.899-1.47 33.39-.98-26.91 55.61-61.29 85.61-70.89 116.8-3.5 11.359-5.371 20.31-5.831 27.319l-4.55-.319c-23.05-7.391-41.16-15.641-54.56-21.141-8.57-3.52-15.62-6.35-21.35-8.6-14.45-5.69-20.58-7.75-21.73-8.141 1.61-2.42 3.1-5 4.43-7.71 8.96-18.189 8.95-37.92 1.48-52.08.17-3.35.32-7.01.46-11.01 9.951-2.218 35.101-7.958 50.611-12.548zm403.84 51.53c15.79-9.95 12.279 5.27 3.51 16.96-8.78 11.7-86.59 36.859-115.85 40.96-13.271 1.85-20.03 6.35-32.091 11.32l-11.05-21.9c9.141-27.36 8.84-49.01 6.45-65.58l.81-1.12c32.131 22.92 46.57 40.021 52.851 41.59 9.36 2.34 79.57-12.29 95.37-22.23z"/></g><path d="m596.78 431.2c.45 25.649-4.05 60.37-23.63 95.88l.25 2.24c-7.74.88-16.391 1.66-26.061 2.34-5.02.35-9.95.59-14.79.74 40.96-66.49 28.83-132.44 24.431-148.021a154.83 154.83 0 0 1 12.59 5.69c6.58 3.34 12.8 6.66 18.68 9.96z" fill="#9c5c25"/><path d="m567.25 140.6-103.58 231.91.061.61c-40.081 3.86-72.38 16.08-81.38 19.29-2 .71-4.43 1.49-7.16 2.3 8.41-12.26 48.14-68.83 85.56-100.01 42.13-35.1 95.94-143.93 100.04-150.37 1.219-1.92 3.649-3.22 6.459-3.73zm-10.27 243.78c4.399 15.58 16.529 81.53-24.431 148.021-12 .35-23.42.1-34.28-.631 48.4-75.72 26.82-151.669 25.08-154.279l.11-2.54c5.19.91 10.39 2.05 15.57 3.45a163.197 163.197 0 0 1 17.951 5.979z" fill="#f6cc4b"/><path d="m523.46 374.95-.11 2.54c1.74 2.61 23.32 78.56-25.08 154.279-11.6-.77-22.56-2.09-32.89-3.8l-5.43-1.68c9.16-11.72 17.399-31.11 23.03-57.24 5.079-23.609 14.439-63.26 22.38-96.4 5.99.481 12.04 1.231 18.1 2.301z" fill="#9c5c25"/><path d="m505.36 372.65c-7.94 33.14-17.301 72.791-22.38 96.4-5.631 26.13-13.87 45.521-23.03 57.24-7.05 9.01-14.65 13.479-22.03 12.97-11.9-.81-18.62-6.529-17.52-23 .46-7.01 2.33-15.96 5.831-27.319 9.6-31.19 43.979-61.19 70.89-116.8 2.729.109 5.479.279 8.239.509z" fill="#f6cc4b"/><g fill="none" stroke="#231f20"><path d="m62.9 556.81 36.27 4.69 70.5-172.6 80.74 31.59m-28.37 336.42-5.85-38.62 124.62-154.75-.87-77.34-.01-.77m-21.73-7.37c-14.43 21.78-39.1 31.681-58.29 22.221-21.32-10.49-27.82-40.931-14.51-67.971 5.96-12.1 14.89-21.479 24.84-27.18 12.28-7.06 26.12-8.55 37.89-2.75 6.98 3.44 12.37 9 15.99 15.89 7.47 14.16 7.48 33.89-1.48 52.08a68.126 68.126 0 0 1 -4.43 7.71" stroke-width="21"/><path d="m415.85 515.94c-23.05-7.391-41.16-15.641-54.56-21.141-8.57-3.52-15.62-6.35-21.35-8.6-14.45-5.69-20.58-7.75-21.73-8.141h-.01c-.14-.04-.2-.06-.2-.06" stroke-width="21"/><path d="m574.25 529.22c-.28.03-.57.07-.85.101-7.74.88-16.391 1.66-26.061 2.34-5.02.35-9.95.59-14.79.74-12 .35-23.42.1-34.28-.631-11.6-.77-22.56-2.09-32.89-3.8" stroke-width="21.063"/><g stroke-width="21"><path d="m320.33 408.2s1.58-.34 4.25-.94c9.95-2.22 35.1-7.96 50.61-12.55 2.73-.81 5.16-1.59 7.16-2.3 9-3.21 41.3-15.43 81.38-19.29 10.67-1.03 21.899-1.47 33.39-.98 2.729.11 5.479.28 8.24.51 5.989.48 12.04 1.23 18.1 2.3 5.19.91 10.39 2.05 15.57 3.45a163.47 163.47 0 0 1 17.95 5.98 154.83 154.83 0 0 1 12.59 5.69c6.58 3.34 12.8 6.66 18.68 9.96 16.84 9.4 30.87 18.51 42.56 26.85 32.131 22.92 46.57 40.021 52.851 41.59 9.359 2.34 79.57-12.29 95.37-22.229 15.79-9.95 12.279 5.27 3.51 16.96-8.78 11.7-86.59 36.859-115.85 40.96-13.271 1.85-20.03 6.35-32.091 11.32-6.06 2.5-13.47 5.13-23.72 7.579-9.42 2.261-21.24 4.391-36.63 6.16"/><path d="m373.57 397.09s.56-.84 1.62-2.38c8.41-12.26 48.14-68.83 85.56-100.01 42.13-35.1 95.94-143.93 100.04-150.37 1.22-1.92 3.65-3.22 6.46-3.73 6.57-1.2 15.19 1.91 15.19 11.34 0 7.53-13.271 76.37-24.971 135.58-9.22 46.66-17.45 87.33-17.45 87.33"/><path d="m463.67 372.51 103.58-231.91 1.73-3.87m147.44 456.35-45.63-5.84-36.19-71.76-11.05-21.9-21.22-42.08-5.55-20.3-8.53-31.17-30.78-112.51-4.279-15.64s-11.08-20.13-34.16 43.24c-1.8 4.95-3.681 10.42-5.63 16.44a313.77 313.77 0 0 1 -5.07 14.47c-3.51 9.31-7.28 17.98-11.21 26.11-26.91 55.61-61.29 85.61-70.89 116.8-3.5 11.359-5.371 20.31-5.831 27.319-1.1 16.471 5.62 22.19 17.52 23 7.38.51 14.98-3.96 22.03-12.97 9.16-11.72 17.399-31.11 23.03-57.24 5.079-23.609 14.439-63.26 22.38-96.4 7.47-31.21 13.689-56.65 13.88-57.45.01-.01.01-.02.01-.02"/></g><path d="m152.12 90.51c2.63 1.75 57.04 90.39 92.15 209.75 20.04 68.14 24.83 95.66 25.97 104.87.36 2.86.36 3.95.36 3.95m23.18-295.93c2.05 2.41 30.22 102.53 31.42 226.94.28 29.07-.04 50.9-.62 67.17-.14 4-.29 7.66-.46 11.01-1.32 26.67-3.28 33.69-3.28 33.69" stroke-linecap="round" stroke-linejoin="round" stroke-width="14"/><path d="m271.04 420.49c0 5.09-2.95 9.21-6.59 9.21-3.63 0-6.58-4.12-6.58-9.21s2.95-9.22 6.58-9.22c3.64 0 6.59 4.13 6.59 9.22zm42.56 27.21c0 5.08-2.95 9.21-6.58 9.21-3.64 0-6.58-4.13-6.58-9.21 0-5.09 2.94-9.22 6.58-9.22 3.63 0 6.58 4.13 6.58 9.22z" stroke-width="21"/><path d="m523.35 377.49c1.74 2.61 23.32 78.56-25.08 154.279-.409.641-.829 1.29-1.25 1.931m58.8-152.7c.189.29.62 1.44 1.16 3.38 4.399 15.58 16.529 81.53-24.431 148.021a195.36 195.36 0 0 1 -3.06 4.81m65.491-128.841c.909 6.33 1.649 14.04 1.8 22.83.45 25.649-4.05 60.37-23.63 95.88m56.85-99.08c2.39 16.57 2.69 38.22-6.45 65.58-3.06 9.18-7.189 18.99-12.67 29.479-.83 1.62-1.71 3.25-2.62 4.9" stroke-width="14"/></g><path d="m0 0h850.394v850.394h-850.394z" fill="none"/><path d="m246 492-66.391 99.104-37.609-1.104m262-74 6 50-86 160 14 36" fill="none" stroke="#231f20" stroke-width="21"/></svg>