<svg height="850.394" viewBox="0 0 850.394 850.394" width="850.394" xmlns="http://www.w3.org/2000/svg"><path d="m286.49 670.17c4.64 0 8.43 3.771 8.43 8.42 0 4.65-3.79 8.43-8.43 8.43a8.424 8.424 0 0 1 -8.43-8.43c0-4.65 3.76-8.42 8.43-8.42zm46.28-67.63c4.66 0 8.45 3.77 8.45 8.44 0 4.64-3.79 8.42-8.45 8.42s-8.43-3.78-8.43-8.42c0-4.67 3.77-8.44 8.43-8.44zm33.72 87.9c4.66 0 8.42 3.77 8.42 8.42 0 4.659-3.76 8.439-8.42 8.439-4.64 0-8.42-3.78-8.42-8.439 0-4.65 3.78-8.42 8.42-8.42zm81.88 2.4c4.66 0 8.43 3.78 8.43 8.42 0 4.66-3.77 8.44-8.43 8.44-4.65 0-8.42-3.78-8.42-8.44 0-4.64 3.77-8.42 8.42-8.42zm-33.7-72.23c4.64 0 8.42 3.77 8.42 8.409 0 4.66-3.78 8.45-8.42 8.45-4.67 0-8.44-3.79-8.44-8.45 0-4.639 3.77-8.409 8.44-8.409zm95.11-18.06c4.649 0 8.439 3.78 8.439 8.431 0 4.649-3.79 8.42-8.439 8.42-4.65 0-8.431-3.771-8.431-8.42.001-4.651 3.781-8.431 8.431-8.431zm13.54 57.46a8.431 8.431 0 1 1 -.002 16.862 8.431 8.431 0 0 1 .002-16.862zm55.1 35.26c4.65 0 8.42 3.78 8.42 8.421 0 4.649-3.77 8.43-8.42 8.43-4.66 0-8.42-3.78-8.42-8.43 0-4.641 3.76-8.421 8.42-8.421zm85.48-10.84c4.67 0 8.43 3.771 8.43 8.41a8.42 8.42 0 0 1 -8.43 8.44c-4.65 0-8.42-3.771-8.42-8.44 0-4.64 3.77-8.41 8.42-8.41zm-60.22-70.93c4.65 0 8.431 3.78 8.431 8.43s-3.78 8.431-8.431 8.431a8.431 8.431 0 0 1 0-16.861zm64.99-20.61c4.66 0 8.42 3.771 8.42 8.42 0 4.65-3.76 8.44-8.42 8.44s-8.43-3.79-8.43-8.44 3.77-8.42 8.43-8.42zm-99.86-49.35c4.641 0 8.421 3.77 8.421 8.42 0 4.66-3.78 8.42-8.421 8.42a8.417 8.417 0 0 1 -8.43-8.42c0-4.65 3.77-8.42 8.43-8.42zm-143.54-1.25c4.67 0 8.44 3.78 8.44 8.43 0 4.66-3.77 8.431-8.44 8.431-4.66 0-8.41-3.771-8.41-8.431 0-4.65 3.75-8.43 8.41-8.43z" fill="#ffffc2"/><path d="m425.27 559.15c4.67 0 8.44-3.771 8.44-8.431 0-4.649-3.77-8.43-8.44-8.43-4.66 0-8.41 3.78-8.41 8.43 0 4.661 3.75 8.431 8.41 8.431zm280.78 4.86h-411.85v-5.68l4.86-31.64h446.71l28.9 187.819h-40.92l-4.45.681-16-104.04a8.391 8.391 0 0 0 6.86 3.55c4.66 0 8.43-3.78 8.43-8.42 0-4.67-3.77-8.45-8.43-8.45-3.74 0-6.92 2.45-8.01 5.84zm-137.24-3.63c4.641 0 8.421-3.76 8.421-8.42 0-4.65-3.78-8.42-8.421-8.42-4.659 0-8.43 3.77-8.43 8.42 0 4.66 3.77 8.42 8.43 8.42z" fill="#f6cc4b"/><path d="m729.3 715.19 5.641 36.649h-504.511l15.04-97.79 13.85-90.04h446.73l6.101 39.66c-.271.82-.41 1.7-.41 2.61 0 1.81.58 3.489 1.56 4.87zm-52.21-113.88c0-4.649-3.76-8.42-8.42-8.42s-8.43 3.771-8.43 8.42c0 4.65 3.77 8.44 8.43 8.44s8.42-3.79 8.42-8.44zm-4.76 91.53c0-4.64-3.76-8.41-8.43-8.41-4.65 0-8.42 3.771-8.42 8.41 0 4.67 3.77 8.44 8.42 8.44a8.42 8.42 0 0 0 8.43-8.44zm-60.22-70.91c0-4.649-3.78-8.43-8.431-8.43a8.431 8.431 0 0 0 0 16.861c4.651-.001 8.431-3.781 8.431-8.431zm-25.27 81.76c0-4.641-3.77-8.421-8.42-8.421-4.66 0-8.42 3.78-8.42 8.421 0 4.649 3.76 8.43 8.42 8.43 4.65 0 8.42-3.78 8.42-8.43zm-55.09-35.25c0-4.65-3.77-8.431-8.43-8.431s-8.431 3.78-8.431 8.431a8.431 8.431 0 0 0 16.861 0zm-13.53-57.46c0-4.65-3.79-8.431-8.439-8.431-4.65 0-8.431 3.78-8.431 8.431 0 4.649 3.78 8.42 8.431 8.42 4.649 0 8.439-3.77 8.439-8.42zm-61.42 90.28c0-4.64-3.77-8.42-8.43-8.42-4.65 0-8.42 3.78-8.42 8.42 0 4.66 3.77 8.44 8.42 8.44 4.66 0 8.43-3.78 8.43-8.44zm-33.71-72.24c0-4.64-3.78-8.409-8.42-8.409-4.67 0-8.44 3.77-8.44 8.409 0 4.66 3.77 8.45 8.44 8.45 4.64 0 8.42-3.79 8.42-8.45zm-48.18 69.84c0-4.65-3.76-8.42-8.42-8.42-4.64 0-8.42 3.77-8.42 8.42 0 4.659 3.78 8.439 8.42 8.439 4.66.001 8.42-3.779 8.42-8.439zm-33.69-87.88c0-4.671-3.79-8.44-8.45-8.44s-8.43 3.77-8.43 8.44c0 4.64 3.77 8.42 8.43 8.42s8.45-3.78 8.45-8.42zm-46.3 67.61c0-4.649-3.79-8.42-8.43-8.42a8.417 8.417 0 0 0 -8.43 8.42c0 4.65 3.76 8.43 8.43 8.43 4.64 0 8.43-3.78 8.43-8.43z" fill="#f6cc4b"/><path d="m707.8 521.65v5.04h-408.74l-4.86 31.64v5.68h-34.88l-13.85 90.04-.04-.01-37.36 6.67-.63-.28v-473.81l1.28-5.13 498.44-47.41h.64z" fill="#6ebe44"/><path d="m208.72 181.49-1.28 5.13v473.81l-124.22-56.1v-465.23h1.05z" fill="#ffffc2"/><path d="m707.16 134.08-498.44 47.41-124.45-42.39h-1.05v-6.4l491.79-38.96 132.79 37.14v3.2z" fill="#ffffc2"/><g fill="none"><g stroke="#231f20"><g stroke-width="21"><path d="m84.27 139.1 124.45 42.39 498.44-47.41"/><path d="m245.43 654.04-37.36 6.67-.63-.28-124.22-56.1v-471.63l491.79-38.96 132.79 37.14v390.77m-500.36-335.03v474.09"/><path d="m729.3 715.19 5.64 36.65h-504.51l15.04-97.79 13.85-90.04h446.73l6.1 39.66 1.15 7.48z"/><path d="m294.2 558.33 4.86-31.64h446.71l28.9 187.82h-40.92"/></g><path d="m341.22 610.98c0 4.64-3.79 8.42-8.45 8.42s-8.43-3.78-8.43-8.42c0-4.671 3.77-8.44 8.43-8.44s8.45 3.77 8.45 8.44zm-46.3 67.61c0 4.65-3.79 8.43-8.43 8.43a8.424 8.424 0 0 1 -8.43-8.43c0-4.649 3.76-8.42 8.43-8.42 4.64 0 8.43 3.77 8.43 8.42zm128.17-49.57c0 4.66-3.78 8.45-8.42 8.45-4.67 0-8.44-3.79-8.44-8.45 0-4.64 3.77-8.409 8.44-8.409 4.64-.001 8.42 3.769 8.42 8.409zm33.71 72.24c0 4.66-3.77 8.44-8.43 8.44-4.65 0-8.42-3.78-8.42-8.44 0-4.64 3.77-8.42 8.42-8.42 4.66 0 8.43 3.78 8.43 8.42zm61.42-90.28c0 4.649-3.79 8.42-8.439 8.42-4.65 0-8.431-3.771-8.431-8.42 0-4.65 3.78-8.431 8.431-8.431 4.649.001 8.439 3.781 8.439 8.431zm59.01-59.02c0 4.66-3.78 8.42-8.421 8.42a8.417 8.417 0 0 1 -8.43-8.42c0-4.65 3.771-8.42 8.43-8.42 4.641 0 8.421 3.77 8.421 8.42zm-143.52-1.24c0 4.66-3.77 8.431-8.44 8.431-4.66 0-8.41-3.771-8.41-8.431 0-4.649 3.75-8.43 8.41-8.43 4.67 0 8.44 3.78 8.44 8.43zm98.04 117.72c0 4.649-3.77 8.43-8.43 8.43s-8.431-3.78-8.431-8.43 3.771-8.431 8.431-8.431 8.43 3.781 8.43 8.431zm55.09 35.25c0 4.649-3.77 8.43-8.42 8.43-4.66 0-8.42-3.78-8.42-8.43 0-4.641 3.76-8.421 8.42-8.421 4.65.001 8.42 3.781 8.42 8.421zm25.27-81.76c0 4.65-3.78 8.431-8.431 8.431a8.431 8.431 0 0 1 0-16.861c4.651 0 8.431 3.78 8.431 8.43zm60.22 70.91a8.42 8.42 0 0 1 -8.43 8.44c-4.65 0-8.42-3.771-8.42-8.44 0-4.64 3.77-8.41 8.42-8.41 4.67 0 8.43 3.77 8.43 8.41zm4.76-91.53c0 4.65-3.76 8.44-8.42 8.44s-8.43-3.79-8.43-8.44c0-4.649 3.77-8.42 8.43-8.42s8.42 3.77 8.42 8.42zm35.06 2.36c1.09-3.39 4.27-5.84 8.01-5.84 4.66 0 8.43 3.78 8.43 8.45 0 4.64-3.77 8.42-8.43 8.42-2.83 0-5.34-1.4-6.86-3.55a8.398 8.398 0 0 1 -1.56-4.87c0-.91.14-1.79.41-2.61zm-337.24 95.19c0 4.659-3.76 8.439-8.42 8.439-4.64 0-8.42-3.78-8.42-8.439 0-4.65 3.78-8.42 8.42-8.42 4.66 0 8.42 3.77 8.42 8.42z" stroke-width="12.584"/></g><path d="m0 0h850.394v850.394h-850.394z"/></g></svg>