<svg height="850.394" viewBox="0 0 850.394 850.394" width="850.394" xmlns="http://www.w3.org/2000/svg"><g fill="#9e5c26"><path d="m444.27 634.52c.601 0 1.19 0 1.79-.01-162.3 20.7-304-42.01-318.26-141.95-3.2-22.439.28-44.869 9.44-66.46 4.23 22.381 16.93 43.41 36.31 62.131 26.64 83.599 137.73 146.289 270.72 146.289z"/><path d="m721.06 450.54c-.04 5.62-.46 11.18-1.25 16.67-29.14 78.7-133.93 147.41-266.31 166.3-2.49.36-4.97.69-7.44 1-.6.01-1.189.01-1.79.01-132.99 0-244.08-62.689-270.72-146.289 50.95 49.199 148.16 82.449 259.7 82.449 138.13 0 254.29-51 287.81-120.14zm5.71-43.49c-14.49-101.46-160.31-164.58-325.72-140.96-128.82 18.39-231.53 83.97-263.81 160.01a89.098 89.098 0 0 1 -1.35-22.929c6.09-86.13 136.89-154.95 297.36-154.95 137.27 0 252.84 50.37 287.18 118.85 6.78 13.5 10.391 27.71 10.391 42.38 0 8.24-1.141 16.33-3.34 24.24.779-8.851.559-17.741-.711-26.641z"/><path d="m707.9 339.43 3.08 6.4 3.05 6.38 3.899-2.36c1.37 5.65 2.21 11.4 2.5 17.22-34.34-68.48-149.91-118.85-287.18-118.85-160.47 0-291.27 68.82-297.36 154.95l-.62-.05c-3.99-10.54-6.09-21.44-6.09-32.62 0-32.59 17.85-62.92 48.54-88.28l1.14 1.39 5-5.02 4.79-4.81c54.28-39.17 140.74-64.51 238.11-64.51 142.61 0 258.94 55.17 287.21 127.95z"/></g><g fill="none"><g stroke="#231f20"><g stroke-width="21"><path d="m720.43 367.07c6.78 13.5 10.391 27.71 10.391 42.38 0 8.24-1.141 16.33-3.34 24.24-1.591 5.72-3.74 11.34-6.421 16.85-33.52 69.14-149.68 120.14-287.81 120.14-111.54 0-208.75-33.25-259.7-82.449-19.38-18.721-32.08-39.75-36.31-62.131a89.098 89.098 0 0 1 -1.35-22.929c6.09-86.13 136.89-154.95 297.36-154.95 137.27-.001 252.84 50.369 287.18 118.849z"/><path d="m135.27 403.12c-3.99-10.54-6.09-21.44-6.09-32.62 0-32.59 17.85-62.92 48.54-88.28 3.48-2.88 7.12-5.7 10.93-8.44 54.28-39.17 140.74-64.51 238.11-64.51 142.61 0 258.94 55.17 287.21 127.95 1.61 4.16 2.94 8.37 3.96 12.63 1.37 5.65 2.21 11.4 2.5 17.22.07 1.5.11 3 .11 4.51m.53 77.91c0 .35 0 .7-.011 1.05-.04 5.62-.46 11.18-1.25 16.67-13.279 93.49-130.63 166.7-273.75 167.3-.6.01-1.189.01-1.79.01-132.99 0-244.08-62.689-270.72-146.289-.14-.44-.28-.87-.41-1.311"/><path d="m137.24 426.1c32.28-76.04 134.99-141.62 263.81-160.01 165.41-23.62 311.23 39.5 325.72 140.96 1.271 8.9 1.49 17.79.711 26.641-.98 11.3-3.58 22.51-7.671 33.52-29.14 78.7-133.93 147.41-266.31 166.3-2.49.36-4.97.69-7.44 1-162.3 20.7-304-42.01-318.26-141.95-3.2-22.441.28-44.871 9.44-66.461z"/></g><path d="m153.54 655.88 11.96-34.46 11.96-34.46 6.44 2.96 6.43 2.96-18.4 31.5zm-82.85-94.33 30.27-20.36 30.27-20.36 3.36 6.23 3.37 6.23-33.64 14.13zm-18.73-131.58 36.29 3.74 36.29 3.73-1.41 6.94-1.4 6.94-34.88-10.68zm278.31-288.3 13.09 34.05 13.09 34.05-6.82 1.89-6.83 1.89-6.27-35.94zm264.99 15.02-7.66 35.66-7.66 35.67-6.74-2.15-6.76-2.15 14.41-33.52zm118.71 180.53 28.21-10.27 34.28-12.49-31.21 18.87-27.32 16.52-3.9 2.36-3.05-6.38-3.08-6.4zm-536.25-55-22.07-26.76-23.2-28.15 28.21 23.13 28.2 23.13-.21.21-4.79 4.81-5 5.02zm196.39 432.95-1.98-36.42-1.98-36.43 7.07.31 7.08.3-5.1 36.12zm23.24-225.86 6.2 35.94 6.19 35.94-7.06.52-7.07.52.87-36.47zm70.14-153.67-5.01-36.13-5-36.13 7.08-.29 7.07-.29-2.06 36.43zm-180.99 44.3-21.57-29.41-21.57-29.42 6.1-3.61 6.09-3.62 15.48 33.04zm273.38 93.61 16.51 32.54 16.5 32.52-6.61 2.58-6.59 2.58-9.9-35.11zm58.1 202.25-20.61-30.09-20.61-30.1 6.2-3.41 6.21-3.42 14.41 33.51zm124.61-88.72-30.84-19.47-30.85-19.47 4.35-5.6 4.34-5.59 26.51 25.07zm57.25-103.09-36.06-5.46-36.06-5.48 1.74-6.86 1.73-6.87 34.33 12.34zm-159.21-104.65 36.39-2.47 36.4-2.44-.21 7.08-.22 7.08-36.18-4.62z" stroke-width="13.184"/></g><path d="m0 0h850.394v850.394h-850.394z"/></g></svg>