<svg height="850.394" viewBox="0 0 850.394 850.394" width="850.394" xmlns="http://www.w3.org/2000/svg"><path d="m781.47 185.58-.34-.39s-13.55-3.06-17.899-4.28c-5-1.39-4.131-8.15-2.19-9.7.36-.29 1.63-.4 3.47-.4.23-1.39 1.57-4.41 8.94-4.72 9.62-.42 29.79-.55 29.79-.55s4.63-.45 11.38 6.18c8.5 8.34 14.93 12.35 15.96 22.3.89 8.59-3.311 26.36-2.8 33.75l-1.011.08-28.13 25.94c-4.359-7.3-7.54-13.78-6.96-21.63.67-9.01.471-19.42.46-19.87-.5 1.48-1.6 2.45-3.689 2.21-2.351-.28-6.71-7.51-9.16-11.51-1.29-2.11-1.73-2.96.41-5.21.31-.32.649-.62 1.02-.9l-.18-.24s-4.03-1.57-3.01-5.72c.729-2.99 1.809-4.04 3.939-5.34zm-25.4-31.25c5.819 1.76 4.87 8.99 3.029 12.71-4.72 9.59-2.56 13.12-3.159 20.44-.23 2.78-3.421 8.19-10.101 6.92l-.35-.1c2.38-8.24 3.779-16.93 3.779-25.76 0-4.87-.06-8.29-.21-14.04h.77c.13-.05.26-.09.39-.13 1.431-.44 3-.58 4.7-.31.21.04.4.08.59.12.202.04.382.09.562.15z" fill="#ffeec8"/><path d="m749.03 153.45c-2.061-10.09-9.63-20.68-12.311-24.36-13.189-18.1-25.6-24.15-30.51-25.96-1.41-.53-2.2-.69-2.2-.69-.029.02-.05.03-.08.05-12.39 8.56-50.359 12.33-59.569 26.2 0 0-9.49 9.72-16.07 18.09-1.63 2.07-3.08 4.05-4.16 5.79-.2.31-.38.62-.55.91v.01c-.17.3-.33.58-.47.86-.08.14-.15.27-.21.4l-.601-19.32-.02-.62c0-31.82 26.14-54.59 26.14-54.59.28-.19.561-.37.82-.55.18-.11.35-.22.52-.33s.33-.21.49-.31c.32-.21.61-.39.89-.55.141-.09.271-.17.4-.24.13-.08.25-.15.37-.22.99-.58 1.55-.87 1.55-.87 13.34-7.88 30.58-10.66 52.58-8.11 14.1 1.63 26.47 11.03 35.54 24.38.54.79 1.06 1.59 1.57 2.4.77 1.22 1.51 2.46 2.22 3.74.36.64.71 1.28 1.05 1.93.68 1.3 1.34 2.62 1.97 3.97.311.68.62 1.36.92 2.04.4.91.78 1.83 1.15 2.76.33.82.64 1.64.95 2.46.609 1.66 1.18 3.34 1.71 5.04.26.85.51 1.7.75 2.56.34 1.23.66 2.47.96 3.71.3 1.25.57 2.5.82 3.76.3 1.51.56 3.03.8 4.55.069.51.149 1.02.21 1.53.07.51.14 1.02.2 1.53.12.99.189 2.08.229 3.23.18 4.95-.3 11.14-1.02 15.7-.181-.06-.36-.11-.561-.15-.189-.05-.38-.09-.59-.12-1.7-.27-3.27-.13-4.7.31l-.39.12-.49.01h-.109c-.058-.35-.128-.7-.198-1.05z" fill="#9c5c25"/><path d="m755.65 127.79c.3 1.51.569 3.03.8 4.55-.24-1.52-.5-3.04-.8-4.55zm-1.78-7.47c.35 1.23.67 2.47.96 3.71-.3-1.24-.62-2.48-.96-3.71z" fill="#9c5c25"/><path d="m726.01 162.42v-.01c-.25-.11-.5-.23-.76-.33-.25-.1-.51-.2-.77-.29a14.81 14.81 0 0 0 -5.261-.84c-3.01.06-6.1 1.2-8.55 3.04l1.25.59c.01.21.08.44.08.95 0 3.63 3.1 6.57 6.93 6.57 3.811 0 6.91-2.94 6.91-6.57v-.25c.01-.46.021-.8-.01-1.09 0-.1-.021-.19-.04-.28-.01-.08-.04-.17-.07-.26-.02-.05-.029-.09-.05-.14l.28-.89zm-72.27.65 1.189.8c-.18.51-.12.97-.12 1.87 0 3.63 3.101 6.56 6.921 6.56 1.199 0 2.35-.45 3.369-1.18.2-.15.4-.31.591-.48.1-.08.189-.17.29-.26 1.76-1.68 2.96-4.2 2.96-6.35l.26-.39c-.73-.47-1.49-.89-2.28-1.24-.32-.14-.64-.26-.97-.38-.49-.18-.98-.33-1.49-.45-.33-.08-.67-.16-1-.22-.34-.06-.67-.1-1.01-.14a14.461 14.461 0 0 0 -3.311.07c-.64.08-1.26.21-1.88.38-.149.04-.3.08-.46.13-.46.14-.899.3-1.34.47-.15.06-.29.13-.44.19-.289.12-.579.26-.859.4-.14.08-.28.15-.42.22zm37.93 45.94c-.09.02-.18.04-.27.05l.27-.02.29-.02h-.13c-.06 0-.11 0-.16-.01zm57.39-54.51c.15 5.75.21 9.17.21 14.04 0 8.83-1.399 17.52-3.779 25.76-7.36 25.52-24.061 46.84-37.38 55.28-6.54 3.14-11.53 2.69-19.101 2.69-7 0-11.479.69-17.62-2.01-14.38-8.01-31.34-29.44-38.79-55.33-2.43-8.43-3.85-17.33-3.85-26.39 0-3 0-8.26.05-13.34.021-2.85.061-5.64.11-7.94l-.62-.48c6.58-8.37 16.07-18.09 16.07-18.09 9.21-13.87 47.18-17.64 59.569-26.2.32.28 1.28.5 2.28.64 4.91 1.81 17.32 7.86 30.51 25.96 2.681 3.68 10.25 14.27 12.311 24.36z" fill="#ffeec8"/><path d="m746.42 101.49c.69 1.3 1.34 2.62 1.97 3.97-.63-1.35-1.29-2.67-1.97-3.97z" fill="#9c5c25"/><path d="m726.01 162.41v.01c-.25-.12-.5-.23-.76-.34.26.1.51.22.76.33z" fill="#fff"/><path d="m726.01 162.42-.06.2-.29.89h.01c.021.05.03.09.05.14.03.09.061.18.07.26.02.09.03.18.04.28.03.29.02.63.01 1.09v.25c0 3.63-3.1 6.57-6.91 6.57-3.83 0-6.93-2.94-6.93-6.57 0-.51-.07-.74-.08-.95l-1.25-.59c2.45-1.84 5.54-2.98 8.55-3.04 1.851-.04 3.61.26 5.261.84.26.09.52.19.77.29.259.11.509.22.759.34zm-5.2 4.58c.36-.38.57-.87.57-1.41 0-.68-.35-1.3-.91-1.71-.12-.09-.25-.17-.39-.23a2.27 2.27 0 0 0 -.57-.2c-.2-.05-.41-.07-.62-.07s-.43.02-.63.07c-.2.04-.38.11-.56.2-.141.06-.28.14-.4.23-.56.41-.91 1.03-.91 1.71 0 .54.21 1.03.57 1.41.05.05.1.11.16.16.46.4 1.08.65 1.77.65s1.311-.25 1.761-.65c.059-.05.109-.11.159-.16z" fill="#fff"/><path d="m725.95 162.62-.28.89h-.01zm-.12 1.57c-.01-.1-.021-.19-.04-.28.02.09.04.18.04.28z" fill="#ffeec8"/><path d="m721.38 165.59c0 .54-.21 1.03-.57 1.41-.05.05-.1.11-.159.16-.45.4-1.07.65-1.761.65a2.69 2.69 0 0 1 -1.77-.65c-.061-.05-.11-.11-.16-.16-.36-.38-.57-.87-.57-1.41 0-.68.351-1.3.91-1.71.12-.08.26-.16.4-.23a2.643 2.643 0 0 1 1.19-.27 2.73 2.73 0 0 1 1.19.27c.14.07.27.15.39.23.56.41.91 1.03.91 1.71z" fill="#231f20"/><path d="m720.47 163.88c-.12-.08-.25-.16-.39-.23.14.06.27.14.39.23zm-.96-.43c.2.04.391.11.57.2a2.75 2.75 0 0 0 -.57-.2zm-1.81.2c.18-.09.359-.16.56-.2-.2.05-.38.11-.56.2zm-.4.23c.12-.09.26-.17.4-.23-.14.07-.28.15-.4.23z" fill="#231f20"/><path d="m669.2 163.64-.26.39c0 2.15-1.2 4.67-2.96 6.35-.101.09-.19.18-.29.26-.19.17-.391.33-.591.48-1.02.73-2.17 1.18-3.369 1.18-3.82 0-6.921-2.93-6.921-6.56 0-.9-.06-1.36.12-1.87l-1.189-.8c.14-.07.279-.14.42-.22.28-.14.57-.27.859-.4.15-.06.29-.13.44-.19.44-.17.88-.33 1.34-.47.16-.05.311-.09.46-.13.62-.17 1.24-.3 1.88-.38a14.461 14.461 0 0 1 3.311-.07c.34.04.67.08 1.01.14.33.06.67.14 1 .22.51.12 1 .27 1.49.45.33.12.649.24.97.38.79.35 1.55.77 2.28 1.24zm-7.49 4.18c1.37 0 2.5-.99 2.5-2.21s-1.13-2.21-2.5-2.21c-1.38 0-2.5.99-2.5 2.21s1.12 2.21 2.5 2.21z" fill="#fff"/><path d="m664.21 165.61c0 1.22-1.13 2.21-2.5 2.21-1.38 0-2.5-.99-2.5-2.21s1.12-2.21 2.5-2.21c1.37 0 2.5.99 2.5 2.21z" fill="#231f20"/><path d="m655.02 162.45c-.289.13-.579.26-.859.4.279-.14.569-.28.859-.4zm-22.42 32.48-.619.17c-6.681 1.27-9.87-4.14-10.101-6.92-.6-7.32 1.57-10.85-3.16-20.45-.79-1.59-1.41-3.82-1.41-6 0-3.21 1.37-6.3 5.591-6.97h.01c1.85-.29 3.56-.11 5.08.43l.81.01c-.05 5.08-.05 10.34-.05 13.34-.001 9.06 1.419 17.96 3.849 26.39zm-37.48-6.15c2.54 1.57 3.77 2.56 4.58 5.98 1.02 4.36-3.05 6.01-3.05 6.01l-.2.25c.38.29.74.6 1.05.95 2.17 2.35 1.72 3.24.41 5.46-2.47 4.2-6.88 11.8-9.25 12.09-2.12.25-3.24-.77-3.73-2.34-.01.34-.22 11.35.46 20.88.58 8.24-2.63 15.04-7.029 22.71l-28.44-27.24-1.02-.07c.51-7.76-3.74-26.42-2.841-35.45 1.051-10.44 7.551-14.66 16.131-23.41 6.829-6.96 11.51-6.49 11.51-6.49s20.39.14 30.12.58c7.439.33 8.8 3.49 9.029 4.95 1.86 0 3.15.13 3.521.43 1.96 1.62 2.83 8.71-2.22 10.18-4.391 1.29-18.101 4.5-18.101 4.5zm-181.36 478.08.01-.011c-.85-4.229 2.07-12.39 7.95-17.939 2.73-2.57 6.1-4.59 10.03-5.38 1.49-.3 3.7 1.25 6.3 3.97l.37-.35c-.84-4.221 8.29-14.511 15.771-13.271.14.021.279.05.42.08 4.31.97 11.71 9.12 18.72 18.04 9.17 11.68 17.66 24.69 17.66 24.69s3.91-12.891 6.79-23.131c.41-1.47.8-2.88 1.16-4.189 1.17-4.34-1.36-9.96-5.391-15.86-5.74-8.37-14.51-17.29-20.03-23.88-5.75-6.85 6.19-18.43 14.771-12.72 5.21 3.47 10.95 8.96 16.39 14.87 12.04 13.109 22.58 28.33 22.58 28.33s-4.5 44.069-7.149 55.51c-2.33 10.06-31.13 89.01-38.04 107.899l-76.85-32.35-.24-.01c.35-9.22 1.67-28.17 4.93-39.42 4.11-14.221-1.52-35.09-8.03-33.04-9.17 2.87-6.44-14.21-6.44-14.21 2.31-9.15 6.93-17.26 15.04-18.91.938-.188 2.048.282 3.278 1.282z" fill="#ffeec8"/><path d="m504.75 611.71-.07.07c-5.439-5.91-11.18-11.4-16.39-14.87-8.58-5.71-20.521 5.87-14.771 12.72 5.521 6.59 14.29 15.51 20.03 23.88l-.54.36c-2.84.72-6.01.88-9.37.32-4.67-.771-15.479-2.37-28.739-4.591-8.53-1.43-18.08-3.109-27.67-5.01-24.49-4.84-50.161-6.899-50.161-6.899-12.96-.48-25.48-4.66-30.95-16.73-1.53-3.38-2.52-7.37-2.8-12.08 0 0 2.15-45.49-1.61-49.75-5.02-6.85-9.58-12.37-13.86-19.899-4.18-7.32-8.24-16.15-9.21-24.461-.38-3.27-.95-7.89.09-11.649 4.33-1.34 9.05-3.15 14.69-5.561 1.48.4 2.98.91 4.44 1.46 3.68 1.391 7.16 3.04 9.74 3.99 19.72 7.24 40.87 13.65 61.66 17.03 2.38.39 4.76.83 7.13 1.28 7.12 1.38 14.22 2.93 21.39 3.91 6.66.92 13.02.59 19.42 3.079 13.35 5.19 22.1 20.98 21.14 34.841-.859 12.529 3.44 23.909 9.101 35.01 3.04 5.93 5.59 11.49 8.59 17.5 2.22 4.44 6.6 11.45 8.72 16.05z" fill="#f6cc4b"/><path d="m493.55 633.51c4.03 5.9 6.561 11.521 5.391 15.86-.36 1.31-.75 2.72-1.16 4.189l-3.781-1.559h-20.67c-7.01-8.92-14.41-17.07-18.72-18.04-.141-.03-.28-.06-.42-.08l.71-4.28c13.26 2.221 24.069 3.82 28.739 4.591 3.36.56 6.53.399 9.37-.32z" fill="#9e5c26"/><path d="m459.98 288.03 1.899-.01c4.25-1.52 9.01-2.04 14.2-1.21 19.76 3.17 17.1 25.35 11.67 36.42-13.2 26.93-7.16 36.84-8.84 57.39-.641 7.81-3.73 21.09-22.34 17.53l-3.44-.77-.189-.04c4.81-21.88 7.369-45.34 7.369-69.9 0-13.66-.17-23.26-.579-39.41z" fill="#ffeec8"/><path d="m459.7 286.81c-6.811-27.36-36.5-50.67-44.11-61.18-41.06-56.71-72.14-78.01-79.75-82.71-1.19-.73-1.8-1.06-1.8-1.06-.07.05-.15.1-.22.15-34.57 24.16-151.33 62.66-166.16 73.53 0 0-26.49 27.32-44.85 50.82-6.6 8.44-12.14 16.39-15.04 22.4l-1.73-56.01c0-89.35 72.93-141.21 72.93-141.21 8.44-5.74 14.08-8.62 14.08-8.62 37.19-22.13 85.3-29.93 146.66-22.77 74.08 8.63 130.93 82.41 141.771 174.27 1.76 14.93-2.82 36.59-5.4 52.39-5.19-.83-9.95-.31-14.2 1.21l-1.899.01c-.092-.41-.182-.82-.282-1.22z" fill="#9c5b16"/><path d="m299.61 429.03c-.23.05-.48.09-.73.13l1.65-.101c-.32.001-.63-.009-.92-.029zm-28.91 35.54c-6.85.18-14.56 1.31-19.16 2.64-14.69 4.25-12.94 8.92-6.06 14.95 3.96 3.47 9.62 7.399 14.82 11.95 11.46 10.02 31.36 12.449 46.76 8.689l-3.13 5.521c1.75 9.16 7.31 18.06 10.52 26.3 2.2 5.67 4.78 11.31 8.94 16.09 2.33 2.69 3.89 4.17 4.53 5.99l-.96.229c-91.53 23.94-143.9-29.22-165.61-71.21-10.65-25.939-21.21-53.43-28.35-83.69-5.44-23.07-8.9-47.77-8.9-74.59 0-8.42.01-23.19.13-37.45.07-7.99.17-15.81.32-22.28l-1.74-1.35c18.36-23.5 44.85-50.82 44.85-50.82 14.83-10.87 131.59-49.37 166.16-73.53.38.34 1.1.65 2.02.91 7.61 4.7 38.69 26 79.75 82.71 7.61 10.51 37.3 33.82 44.11 61.18.01.41.01.82.03 1.22.409 16.15.579 25.75.579 39.41 0 24.56-2.56 48.02-7.369 69.9l.189.04c-11.709 54.091-31.419 90.621-33.129 102.621l-3.61 1.32c-2.37-.45-4.75-.891-7.13-1.28-20.79-3.38-41.94-9.79-61.66-17.03-2.58-.95-6.06-2.6-9.74-3.99l.03-.079c.94-.521 1.82-1.021 2.62-1.46 9.48-5.341 9.71-5.711 12.78-10.351-6.84-2.41-23.16-4.96-37.61-3.29-7.06.8-13.68 2.61-18.52 5.93-1.04-.329-2.01-.63-2.94-.92-6.48-1.97-10.31-2.8-13.81-3.6-2.56-.59-6-.77-9.71-.68zm-30.88-160.84c-6.97-5.48-15.86-8.88-24.55-9.08-8.28-.18-15.88 2.15-22.7 6.09l4.56 1.56c-.5 1.43-.34 2.71-.34 5.24 0 10.18 8.66 18.43 19.32 18.43s23.36-11.6 23.36-21.79zm155.6-5.54c-5.82-2.72-12.15-4.26-18.93-4.12-8.83.21-17.87 3.71-24.88 9.34l4.51.87c.03.6.24 1.24.24 2.68 0 10.18 8.63 18.44 19.31 18.44 10.64 0 19.29-8.26 19.29-18.44 0-2.78.19-4.06-.5-5.68z" fill="#ffeec8"/><path d="m454.9 629.6-.71 4.28c-7.48-1.24-16.61 9.05-15.771 13.271l-.37.35c-2.6-2.72-4.81-4.27-6.3-3.97-3.93.79-7.3 2.81-10.03 5.38l-1.87-1.78c-7.15-1.09-42.96-6.37-64.58-10.46-7.55-1.439-14.36-4.97-19.96-9.9l-.01-.01c-5.82-7.38 6.98-23.05 9.39-25.27l1.43-.53c5.47 12.07 17.99 16.25 30.95 16.73 0 0 25.67 2.06 50.161 6.899 9.59 1.9 19.14 3.58 27.67 5.01z" fill="#9e5c26"/><path d="m395.42 298.19-.96 3.09c.69 1.62.5 2.9.5 5.68 0 10.18-8.65 18.44-19.29 18.44-10.68 0-19.31-8.26-19.31-18.44 0-1.44-.21-2.08-.24-2.68l-4.51-.87c7.01-5.63 16.05-9.13 24.88-9.34 6.78-.14 13.11 1.4 18.93 4.12zm-12.9 8.93c0-3.43-3.12-6.21-6.96-6.21-3.85 0-6.98 2.78-6.98 6.21 0 3.44 3.13 6.22 6.98 6.22 3.84 0 6.96-2.78 6.96-6.22z" fill="#abda4d"/><path d="m375.56 300.91c3.84 0 6.96 2.78 6.96 6.21 0 3.44-3.12 6.22-6.96 6.22-3.85 0-6.98-2.78-6.98-6.22 0-3.43 3.13-6.21 6.98-6.21z"/><path d="m318.12 483.31c-.82.261-1.64.5-2.44.721v-20.19c14.45-1.67 30.77.88 37.61 3.29-3.07 4.64-3.3 5.01-12.78 10.351l-1.14-2.54c-2.1.949-4.08 1.819-5.95 2.619-3.83-1.04-7.57-1.38-10.47.061-2.31 1.149-3.58 3.16-4.22 5.5-.2.068-.41.128-.61.188z" fill="#fff"/><path d="m307.06 502.8 11.06-19.49c.2-.06.41-.119.61-.189-1.04 3.76-.47 8.38-.09 11.649.97 8.311 5.03 17.141 9.21 24.461 4.28 7.529 8.84 13.05 13.86 19.899 3.76 4.26 1.61 49.75 1.61 49.75.28 4.71 1.27 8.7 2.8 12.08l-1.43.53c-2.41 2.22-15.21 17.89-9.39 25.27-5.88-5.16-10.42-11.859-13.08-19.27-5.29-14.721.48-29.46 5.06-43.94 1.04-3.3 1.21-5.21.64-6.85-.64-1.82-2.2-3.3-4.53-5.99-4.16-4.78-6.74-10.42-8.94-16.09-3.21-8.24-8.77-17.14-10.52-26.3z" fill="#9e5c26"/><g fill="#fff"><path d="m322.95 477.62c2.9-1.44 6.64-1.101 10.47-.061-5.64 2.41-10.36 4.221-14.69 5.561.64-2.34 1.91-4.35 4.22-5.5zm-7.27 6.41c.8-.221 1.62-.46 2.44-.721l-11.06 19.49c-15.4 3.76-35.3 1.33-46.76-8.689-5.2-4.551-10.86-8.48-14.82-11.95l2.39-.49c6.39 1.87 14.48 3.38 22.73 4.36 8.24.979 16.63 1.439 23.62 1.18 1.28-.04 2.51-.11 3.69-.21 6.49-.51 11.88-1.34 17.77-2.97z"/><path d="m297.16 469.77c4.84-3.319 11.46-5.13 18.52-5.93v20.19c-5.89 1.63-11.28 2.46-17.77 2.97-1.18.1-2.41.17-3.69.21v-15.03c.89-.88 1.87-1.69 2.94-2.41zm-2.94 15.47v1.97c-6.99.26-15.38-.2-23.62-1.18l.1-.79v-20.67c3.71-.09 7.15.09 9.71.68 3.5.8 7.33 1.63 13.81 3.6z"/><path d="m270.7 464.57v20.67l-.1.79c-8.25-.98-16.34-2.49-22.73-4.36l-2.39.49c-6.88-6.03-8.63-10.7 6.06-14.95 4.6-1.33 12.31-2.46 19.16-2.64z"/></g><path d="m239.82 303.73-.35.45c0 10.19-12.7 21.79-23.36 21.79s-19.32-8.25-19.32-18.43c0-2.53-.16-3.81.34-5.24l-4.56-1.56c6.82-3.94 14.42-6.27 22.7-6.09 8.69.2 17.58 3.6 24.55 9.08zm-16.82 3.44c0-3.43-3.12-6.21-6.97-6.21-3.84 0-6.96 2.78-6.96 6.21 0 3.44 3.12 6.22 6.96 6.22 3.85 0 6.97-2.78 6.97-6.22z" fill="#abda4d"/><path d="m216.03 300.96c3.85 0 6.97 2.78 6.97 6.21 0 3.44-3.12 6.22-6.97 6.22-3.84 0-6.96-2.78-6.96-6.22 0-3.43 3.12-6.21 6.96-6.21z"/><path d="m133 402.03c-18.53 3.49-27.41-11.65-28.05-19.45-1.68-20.55 4.36-30.46-8.84-57.4-5.43-11.06-8.09-33.24 11.66-36.42 5.2-.83 9.96-.3 14.2 1.22l2.26.01c-.12 14.26-.13 29.03-.13 37.45 0 26.82 3.46 51.52 8.9 74.59z" fill="#ffeec8"/><g fill="none"><path d="m175.22 315.83c4.95-5.99 10.78-11.29 17.35-15.09 6.82-3.94 14.42-6.27 22.7-6.09 8.69.2 17.58 3.6 24.55 9.08 3.81 3 7.05 6.64 9.35 10.71" stroke="#231f20" stroke-linecap="square" stroke-miterlimit="10" stroke-width="11.341"/><path d="m239.47 304.18c0 10.19-12.7 21.79-23.36 21.79s-19.32-8.25-19.32-18.43c0-2.53-.16-3.81.34-5.24m219.41 12.94c-5.88-7.11-13-13.24-21.12-17.05-5.82-2.72-12.15-4.26-18.93-4.12-8.83.21-17.87 3.71-24.88 9.34-3.67 2.95-6.79 6.49-9.03 10.45" stroke="#231f20" stroke-linecap="square" stroke-miterlimit="10" stroke-width="11.341"/><path d="m356.12 304.28c.03.6.24 1.24.24 2.68 0 10.18 8.63 18.44 19.31 18.44 10.64 0 19.29-8.26 19.29-18.44 0-2.78.19-4.06-.5-5.68" stroke="#231f20" stroke-linecap="square" stroke-miterlimit="10" stroke-width="11.341"/><path d="m121.97 289.98c-4.24-1.52-9-2.05-14.2-1.22-19.75 3.18-17.09 25.36-11.66 36.42 13.2 26.94 7.16 36.85 8.84 57.4.64 7.8 9.52 22.94 28.05 19.45.03 0 .07 0 .1-.01m328.78-114c4.25-1.52 9.01-2.04 14.2-1.21 19.76 3.17 17.1 25.35 11.67 36.42-13.2 26.93-7.16 36.84-8.84 57.39-.641 7.81-3.73 21.09-22.34 17.53" stroke="#231f20" stroke-width="17.012"/><path d="m163.32 490.5c-.66-1.59-1.31-3.18-1.97-4.78-10.65-25.939-21.21-53.43-28.35-83.69-5.44-23.07-8.9-47.77-8.9-74.59 0-8.42.01-23.19.13-37.45.07-7.99.17-15.81.32-22.28m335.09 17c.021.71.03 1.41.061 2.1.01.41.01.82.03 1.22.409 16.15.579 25.75.579 39.41 0 24.56-2.56 48.02-7.369 69.9" stroke="#231f20" stroke-width="17.012"/><path d="m299.61 429.03c9.21-1.7 7.57-7.15 17.43-4.76 8.52 2.07 17.56 6.31 19.67-7.01 1.47-9.15-5.42-10.36-9.08-17.72m-28.02 29.49c.29.02.6.029.92.029l-1.65.101c.25-.04.5-.08.73-.13zm-28.78-114.2c15.27 16.76 10.65 56.14 3.81 76.63l-2.87 7.99c-3.66 7.35-10.54 8.55-9.08 17.72 2.11 13.311 11.15 9.061 19.66 7.01 9.82-2.38 7.6 4.459 17.26 4.85" stroke="#231f20" stroke-width="11.341"/><path d="m223 307.17c0 3.44-3.12 6.22-6.97 6.22-3.84 0-6.96-2.78-6.96-6.22 0-3.43 3.12-6.21 6.96-6.21 3.85 0 6.97 2.78 6.97 6.21zm159.52-.05c0 3.44-3.12 6.22-6.96 6.22-3.85 0-6.98-2.78-6.98-6.22 0-3.43 3.13-6.21 6.98-6.21 3.84 0 6.96 2.78 6.96 6.21z" stroke="#231f20" stroke-width="5.671"/><path d="m260.7 284.06c-8.24-17.35-40.47-24.11-56.79-20.85-15.34 3.05-22.94 4.89-38.94 17.3m162.53-.25c8.24-17.34 40.48-24.11 56.79-20.86 15.36 3.06 22.96 4.9 38.94 17.3" stroke="#231f20" stroke-width="11.341"/><path d="m476.08 286.81c2.58-15.8 7.16-37.46 5.4-52.39-10.84-91.86-67.69-165.64-141.77-174.27-61.36-7.16-109.47.64-146.66 22.77 0 0-5.64 2.88-14.08 8.62 0 0-72.93 51.86-72.93 141.21l1.73 56.01c2.9-6.01 8.44-13.96 15.04-22.4 18.36-23.5 44.85-50.82 44.85-50.82 14.83-10.87 131.59-49.37 166.16-73.53.07-.05.15-.1.22-.15 0 0 .61.33 1.8 1.06 7.61 4.7 38.69 26 79.75 82.71 7.61 10.51 37.3 33.82 44.11 61.18.1.4.189.81.28 1.22.56 2.48.92 5 1.06 7.54" stroke="#231f20" stroke-width="17.012"/><path d="m347.53 144.44c-1.72.01-8.17-.49-11.69-1.52-.92-.26-1.64-.57-2.02-.91a.844.844 0 0 1 -.28-.36c10.61-10.33 18.98-27.19 18.98-44.28" stroke="#231f20" stroke-width="17.012"/><path d="m337.89 478.94c.94-.521 1.82-1.021 2.62-1.46 9.48-5.341 9.71-5.711 12.78-10.351-6.84-2.41-23.16-4.96-37.61-3.29-7.06.8-13.68 2.61-18.52 5.93-1.07.721-2.05 1.53-2.94 2.41" stroke="#231f20" stroke-width="11.341"/><path d="m300.44 470.85c-1.15-.39-2.26-.739-3.28-1.08-1.04-.329-2.01-.63-2.94-.92-6.48-1.97-10.31-2.8-13.81-3.6-2.56-.59-6-.77-9.71-.68-6.85.18-14.56 1.31-19.16 2.64-14.69 4.25-12.94 8.92-6.06 14.95 3.96 3.47 9.62 7.399 14.82 11.95 11.46 10.02 31.36 12.449 46.76 8.689a45.76 45.76 0 0 0 4.41-1.28" stroke="#231f20" stroke-width="11.341"/><path d="m247.87 481.67c6.39 1.87 14.48 3.38 22.73 4.36 8.24.979 16.63 1.439 23.62 1.18 1.28-.04 2.51-.11 3.69-.21 6.49-.51 11.88-1.34 17.77-2.97.8-.221 1.62-.46 2.44-.721.2-.06.41-.119.61-.189 4.33-1.34 9.05-3.15 14.69-5.561 1.87-.8 3.85-1.67 5.95-2.619.49-.221 1-.44 1.51-.681" stroke="#231f20" stroke-width="6.024"/><path d="m294.22 463.81v21.43m-23.52-21.43v21.43m44.98-21.43v21.43" stroke="#231f20" stroke-width="5.671"/><path d="m335.31 626.77c5.6 4.931 12.41 8.461 19.96 9.9 21.62 4.09 57.43 9.37 64.58 10.46m-97.63-39.64c2.66 7.41 7.2 14.109 13.08 19.27m-31.37-118.44c1.75 9.16 7.31 18.06 10.52 26.3 2.2 5.67 4.78 11.31 8.94 16.09 2.33 2.69 3.89 4.17 4.53 5.99.57 1.64.4 3.55-.64 6.85-4.58 14.48-10.35 29.22-5.06 43.94m182.53 4.22c-2.12-4.6-6.5-11.61-8.72-16.05-3-6.01-5.55-11.57-8.59-17.5-5.66-11.101-9.96-22.48-9.101-35.01.96-13.86-7.79-29.65-21.14-34.841-6.4-2.489-12.76-2.159-19.42-3.079-7.17-.98-14.271-2.53-21.39-3.91-2.37-.45-4.75-.891-7.13-1.28-20.79-3.38-41.94-9.79-61.66-17.03-2.58-.95-6.06-2.6-9.74-3.99-1.46-.55-2.96-1.06-4.44-1.46-3.83-1.04-7.57-1.38-10.47.061-2.31 1.149-3.58 3.16-4.22 5.5-1.04 3.76-.47 8.38-.09 11.649.97 8.311 5.03 17.141 9.21 24.461 4.28 7.529 8.84 13.05 13.86 19.899" stroke="#000" stroke-linecap="round" stroke-linejoin="round" stroke-width="11.341"/><path d="m341.71 539.13c3.76 4.26 1.61 49.75 1.61 49.75.28 4.71 1.27 8.7 2.8 12.08 5.47 12.07 17.99 16.25 30.95 16.73 0 0 25.67 2.06 50.161 6.899 9.59 1.9 19.14 3.58 27.67 5.01 13.26 2.221 24.069 3.82 28.739 4.591 3.36.56 6.53.399 9.37-.32m-148.32-32.38c-2.41 2.22-15.21 17.89-9.39 25.27l.01.01" stroke="#000" stroke-linecap="round" stroke-linejoin="round" stroke-width="11.341"/><path d="m480.59 807.57s.54-1.46 1.48-4.051c6.91-18.89 35.71-97.84 38.04-107.899 2.649-11.44 7.149-55.51 7.149-55.51s-10.54-15.221-22.58-28.33c-5.439-5.91-11.18-11.4-16.39-14.87-8.58-5.71-20.521 5.87-14.771 12.72 5.521 6.59 14.29 15.51 20.03 23.88 4.03 5.9 6.561 11.521 5.391 15.86-.36 1.31-.75 2.72-1.16 4.189-2.88 10.24-6.79 23.131-6.79 23.131s-8.489-13.01-17.659-24.69c-7.01-8.92-14.41-17.07-18.72-18.04-.141-.03-.28-.06-.42-.08-7.48-1.24-16.61 9.05-15.771 13.271" stroke="#000" stroke-linecap="round" stroke-linejoin="round" stroke-width="11.341"/><path d="m468.81 694.56s-19.26-35.02-30.76-47.06c-2.6-2.72-4.81-4.27-6.3-3.97-3.93.79-7.3 2.81-10.03 5.38-5.88 5.55-8.8 13.71-7.95 17.939m25.47 44.251s-16.14-36.81-25.48-44.239c-1.23-1-2.34-1.471-3.28-1.28-8.11 1.65-12.73 9.76-15.04 18.91 0 0-2.73 17.08 6.44 14.21 6.51-2.05 12.14 18.819 8.03 33.04-3.26 11.25-4.58 30.2-4.93 39.42-.09 2.43-.12 4.189-.09 4.939" stroke="#000" stroke-linecap="round" stroke-linejoin="round" stroke-width="11.341"/><g stroke="#231f20"><path d="m458.19 368.99c-1.391 9.93-3.11 19.4-5.061 28.39-11.709 54.09-31.419 90.62-33.129 102.62m-266.4-32.18c1.91 5.51 4.48 11.58 7.75 17.899 21.71 41.99 74.08 95.15 165.61 71.21m-23.03-48.609 3.13-5.52 11.06-19.49 2.36-4.15" stroke-width="17.012"/><path d="m472 652h22" stroke-width="7"/><path d="m755.51 154.18c-.189-.04-.38-.08-.59-.12m.73-26.27c.3 1.51.56 3.03.8 4.55m-2.58-12.02c.34 1.23.66 2.47.96 3.71m-3.42-11.31c.609 1.66 1.18 3.34 1.71 5.04m-6.7-16.27c.68 1.3 1.34 2.62 1.97 3.97m-125.28 48.89c-.07.14-.141.28-.2.41m1.22-2.19c-.189.31-.38.62-.55.91" stroke-width="5.457"/><path d="m725.72 163.65c.03.09.061.18.07.26.02.09.04.18.04.28" stroke-linecap="square" stroke-miterlimit="10" stroke-width="3.638"/><path d="m718.26 163.45c-.2.05-.38.11-.56.2-.141.07-.28.15-.4.23m3.17 0c-.12-.08-.25-.16-.39-.23a2.75 2.75 0 0 0 -.57-.2" stroke-width="2.152"/><path d="m666.92 162.4c.79.35 1.55.77 2.28 1.24 1.81 1.19 3.359 2.75 4.38 4.56m-14.44-6.92a14.461 14.461 0 0 1 3.311-.07m-15.381 7.48c1.89-2.26 4.13-4.25 6.67-5.62.14-.07.279-.14.42-.22" stroke-linecap="square" stroke-miterlimit="10" stroke-width="3.638"/><path d="m668.94 164.03c0 2.15-1.2 4.67-2.96 6.35-.101.09-.19.18-.29.26-.19.17-.391.33-.591.48-1.02.73-2.17 1.18-3.369 1.18-3.82 0-6.921-2.93-6.921-6.56 0-.9-.06-1.36.12-1.87m69.551-2.08a14.81 14.81 0 0 0 -5.261-.84c-3.01.06-6.1 1.2-8.55 3.04-1.479 1.11-2.729 2.47-3.6 4m26.511.5c-2.11-2.54-4.66-4.72-7.57-6.07m-.29 1.23c-.02-.05-.029-.09-.05-.14h-.01" stroke-linecap="square" stroke-miterlimit="10" stroke-width="3.638"/><path d="m711.92 164.58c.01.21.08.44.08.95 0 3.63 3.1 6.57 6.93 6.57 3.811 0 6.91-2.94 6.91-6.57v-.25c.01-.46.021-.8-.01-1.09-.01-.1-.021-.19-.04-.28" stroke-linecap="square" stroke-miterlimit="10" stroke-width="3.638"/><path d="m627.99 155.19c-1.521-.54-3.23-.72-5.08-.43h-.01c-4.221.67-5.591 3.76-5.591 6.97 0 2.18.62 4.41 1.41 6 4.73 9.6 2.561 13.13 3.16 20.45.23 2.78 3.42 8.19 10.101 6.92m117.85-40.61.39-.12c1.431-.44 3-.58 4.7-.31.21.03.4.07.59.12.2.04.38.09.561.15 5.819 1.76 4.87 8.99 3.029 12.71-4.72 9.59-2.56 13.12-3.159 20.44-.23 2.78-3.421 8.19-10.101 6.92m-70.95 32.09c10.73-2.36 20.641-2.36 29.92-.17" stroke-width="5.457"/><path d="m749.03 153.32v.13l.029 1.05c.15 5.75.21 9.17.21 14.04 0 8.83-1.399 17.52-3.779 25.76-7.36 25.52-24.061 46.84-37.38 55.28-6.54 3.14-11.53 2.69-19.101 2.69-7 0-11.479.69-17.62-2.01-14.38-8.01-31.34-29.44-38.79-55.33-2.43-8.43-3.85-17.33-3.85-26.39 0-3 0-8.26.05-13.34.021-2.85.061-5.64.11-7.94" stroke-width="5.457"/><path d="m691.67 209.01c3.29-.6 2.71-2.54 6.24-1.69 3.05.73 6.3 2.25 7.05-2.5.53-3.26-1.94-3.69-3.25-6.31m-10.04 10.5c.05.01.1.01.16.01h.16-.03l-.29.02-.27.02c.09-.01.18-.03.27-.05z" stroke-width="3.638"/><path d="m681.35 168.33c5.471 5.98 3.811 20 1.36 27.3l-1.03 2.84c-1.31 2.62-3.779 3.05-3.25 6.32.761 4.74 4 3.23 7.051 2.5 3.52-.86 2.72 1.58 6.189 1.72" stroke-width="3.638"/><path d="m664.21 165.61c0 1.22-1.13 2.21-2.5 2.21-1.38 0-2.5-.99-2.5-2.21s1.12-2.21 2.5-2.21c1.37 0 2.5.99 2.5 2.21zm56.26-1.73c.561.41.91 1.03.91 1.71 0 .54-.21 1.03-.57 1.41-.05.05-.1.11-.159.16-.45.4-1.07.65-1.761.65a2.69 2.69 0 0 1 -1.77-.65c-.061-.05-.11-.11-.16-.16-.36-.38-.57-.87-.57-1.41 0-.68.351-1.3.91-1.71.12-.09.26-.17.4-.23.18-.09.359-.16.56-.2.2-.05.42-.07.63-.07s.42.02.62.07c.2.04.391.11.57.2.14.06.27.14.39.23z" stroke-width="2.152"/><path d="m677.72 157.38c-2.96-6.18-14.51-8.59-20.359-7.43-5.5 1.08-8.221 1.75-13.96 6.16m58.259-.08c2.95-6.19 14.51-8.6 20.359-7.43 5.5 1.09 8.23 1.74 13.961 6.16" stroke-width="3.638"/><path d="m756.01 154.71c.021-.13.04-.26.061-.38.72-4.56 1.199-10.75 1.02-15.7-.04-1.15-.109-2.24-.229-3.23-.061-.51-.13-1.02-.2-1.53-.061-.51-.141-1.02-.21-1.53-.23-1.52-.5-3.04-.8-4.55-.25-1.26-.521-2.51-.82-3.76-.29-1.24-.61-2.48-.96-3.71-.24-.86-.49-1.71-.75-2.56-.53-1.7-1.101-3.38-1.71-5.04-.311-.82-.62-1.64-.95-2.46-.37-.93-.75-1.85-1.15-2.76-.3-.68-.609-1.36-.92-2.04a85.19 85.19 0 0 0 -1.97-3.97c-.34-.65-.689-1.29-1.05-1.93-.71-1.28-1.45-2.52-2.22-3.74-.511-.81-1.03-1.61-1.57-2.4-9.07-13.35-21.44-22.75-35.54-24.38-22-2.55-39.24.23-52.58 8.11 0 0-.56.29-1.55.87-.12.07-.24.14-.37.22-.13.07-.26.15-.4.24-.279.16-.569.34-.89.55-.16.1-.32.2-.49.31s-.34.22-.52.33c-.26.18-.54.36-.82.55 0 0-26.14 22.77-26.14 54.59l.02.62.601 19.33v-.01c.06-.13.13-.26.21-.4.14-.28.3-.56.47-.86v-.01c.17-.29.35-.6.55-.91 1.08-1.74 2.53-3.72 4.16-5.79 6.58-8.37 16.07-18.09 16.07-18.09 9.21-13.87 47.18-17.64 59.569-26.2.03-.02.051-.03.08-.05 0 0 .79.16 2.2.69 4.91 1.81 17.32 7.86 30.51 25.96 2.681 3.68 10.25 14.27 12.311 24.36.069.35.14.7.2 1.05.149.91.25 1.8.3 2.68" stroke-width="5.457"/><path d="m708.84 103.36c-.399 0-1.54-.08-2.63-.23-1-.14-1.96-.36-2.28-.64-.05-.04-.09-.08-.1-.12 3.8-3.69 6.8-13.98 6.8-20.07" stroke-width="5.457"/><path d="m720.01 136.45s-5.83-6.71-14.609-2.09c-4.771 2.51-9.41 5.02-14.92 4.72h-.881c-5.51.3-10.14-2.21-14.93-4.72-8.77-4.62-14.61 2.09-14.61 2.09m60.86-10.37s-5.84-6.71-14.62-2.09c-4.77 2.51-9.41 5.02-14.91 4.72h-.89c-5.51.3-10.15-2.21-14.92-4.72-8.78-4.62-14.62 2.09-14.62 2.09" stroke-width="3.638"/></g><path d="m781.13 185.19s-13.55-3.06-17.899-4.28c-5-1.39-4.131-8.15-2.19-9.7.36-.29 1.63-.4 3.47-.4 8.021.01 26.74 2.28 26.74 2.28.23 0 8.38.04 15.53 5.75 8.85 7.09 13.62 13.03 13.62 13.03" stroke="#000" stroke-linecap="round" stroke-linejoin="round" stroke-width="2.58"/><path d="m780.54 196.64s-4.03-1.57-3.01-5.72c.729-2.99 1.81-4.04 3.939-5.34.84-.51 1.83-1.07 3.021-1.79 4.26-2.57 5.149-1.1 5.149-1.1s14.681 4.84 20.08 13.64" stroke="#000" stroke-linecap="round" stroke-linejoin="round" stroke-width="2.58"/><path d="m779.7 197.78c.31-.32.649-.62 1.02-.9 1.28-.94 2.851-1.61 4.391-2.02 8.34-2.21 12.52 4.66 18.17 9.14" stroke="#000" stroke-linecap="round" stroke-linejoin="round" stroke-width="2.58"/><path d="m792.14 212.29c-.5 1.48-1.6 2.45-3.689 2.21-2.351-.28-6.71-7.51-9.16-11.51-1.29-2.11-1.73-2.96.41-5.21m10.739 4.69c.97 1.03 2.75 6.6 1.699 9.8m-27.659-40.75s-.03-.28.029-.71c.23-1.39 1.57-4.41 8.94-4.72 9.62-.42 29.79-.55 29.79-.55s4.63-.45 11.38 6.18c8.5 8.34 14.93 12.35 15.96 22.3.89 8.59-3.311 26.36-2.8 33.75.08 1.16.279 2.06.63 2.64" stroke="#000" stroke-linecap="round" stroke-linejoin="round" stroke-width="2.58"/><path d="m792.14 212.27v.02c.011.45.21 10.86-.46 19.87-.58 7.85 2.601 14.33 6.96 21.63" stroke="#000" stroke-linecap="round" stroke-linejoin="round" stroke-width="2.58"/><path d="m596.05 188.75s13.71-3.21 18.101-4.5c5.05-1.47 4.18-8.56 2.22-10.18-.37-.3-1.66-.43-3.521-.43-8.109.02-27.02 2.4-27.02 2.4-.22 0-8.48.04-15.7 6.04-8.96 7.44-13.78 13.68-13.78 13.68" stroke="#000" stroke-linecap="round" stroke-linejoin="round" stroke-width="2.658"/><path d="m596.65 200.77s4.069-1.65 3.05-6.01c-.811-3.42-2.04-4.41-4.58-5.98-.71-.43-1.53-.92-2.47-1.51-4.301-2.69-5.2-1.15-5.2-1.15s-14.84 5.08-20.3 14.32" stroke="#000" stroke-linecap="round" stroke-linejoin="round" stroke-width="2.658"/><path d="m597.5 201.97c-.31-.35-.67-.66-1.05-.95-1.28-1-2.87-1.69-4.41-2.12-8.44-2.32-12.66 4.89-18.38 9.6m11.27 8.68c.49 1.57 1.61 2.59 3.73 2.34 2.37-.29 6.78-7.89 9.25-12.09 1.31-2.22 1.76-3.11-.41-5.46m-10.86 4.92c-.97 1.07-2.77 6.92-1.71 10.29" stroke="#000" stroke-linecap="round" stroke-linejoin="round" stroke-width="2.658"/><path d="m612.88 174.39s.04-.29-.03-.75c-.229-1.46-1.59-4.62-9.029-4.95-9.73-.44-30.12-.58-30.12-.58s-4.681-.47-11.51 6.49c-8.58 8.75-15.08 12.97-16.131 23.41-.899 9.03 3.351 27.69 2.841 35.45-.091 1.21-.29 2.16-.641 2.76m36.67-19.04c-.01.34-.22 11.35.46 20.88.58 8.24-2.63 15.04-7.029 22.71" stroke="#000" stroke-linecap="round" stroke-linejoin="round" stroke-width="2.658"/></g><path d="m0 0h850.394v850.394h-850.394z" fill="none"/><path d="m650 166c0 .017 8-9.333 18.94-1.97" fill="none" stroke="#231f20" stroke-linecap="square" stroke-miterlimit="10" stroke-width="3.638"/></svg>