<svg height="850.394" viewBox="0 0 850.394 850.394" width="850.394" xmlns="http://www.w3.org/2000/svg"><g fill="#f6cc4b"><path d="m624.82 226.55-277.84-31.07-238-26.62-1.94-4.34 149.57-66.93 495.06 43.71.41 484-127.26 132.36z"/><path d="m346.98 195.48v501.86l-238-51.67v-476.81zm277.84 31.07v531.11l-277.84-60.32v-501.86z"/></g><g fill="none"><g stroke="#231f20" stroke-width="20.362"><path d="m624.82 226.55v531.11m-277.84-562.18v502.37m-243.94-531.54 4-1.79 149.57-66.93 495.06 43.71.41 484-127.26 132.36-277.84-60.32-238-51.67v-476.81l238 26.62 277.84 31.07 117.11-75.51"/><path d="m379.63 285.94v99.26m-62.79-109.44v99.26" stroke-linecap="round" stroke-linejoin="round"/></g><path d="m0 0h850.394v850.394h-850.394z"/></g></svg>