<svg height="850" viewBox="0 0 850 850" width="850" xmlns="http://www.w3.org/2000/svg"><path d="m433.6 429.6 4 10.5 3.5 10.5 1.5 5.2 1.2 5 1 5 .5 4.5v2.5l-.5 2.5-.7 2.3-1.5 2.2-1.5 1.8-2 1.5-2 1.2-2.3 1-2.2.8-2.5.2h-2.3l-2-.2-2-.8-1.7-1.2-1.5-1.5-1.3-2-4-10.5-4.5-11.8-2.5-6-2.5-6-2.7-5.5-2.8-5.2-1.7-2.5-1.5-2.5-1.8-2.3-1.7-1.7-2-1.8-1.8-1.2-2-1-2-.8-12.7-2.5-13-2.7-14.3-2.8 4.8 8.8 5 9.5 5.5 11.2 4.2 9.3 4.3 9.5 3.2 9 1.5 4 1 3.7.5 3 .3 2.5.2 2.3-.2 2-.8 1.7-1.2 2-1.3 1.5-1.7 1.5-1.8 1.5-2 1.3-2.2 1-2 .7-2.3.8-2.2.5-2.3.2-2 .3h-1.7l-1.8-.3-1.2-.5-1-.5-.8.3 1 3.5.5 3v2.5l-.2.7-.5.8-2.3 2.5-2.5 2.2-2.7 1.8-2.8 1.5-3 1.2-3 .8-3 .7-3 .5h-6l-2.7-.2-2.5-.3-2.5-.7-2.3-.8-1.7-.7-1.5-1 .2 1.5v1.5l-.2 1-.5 1-1.5 1.5-1.5 1.5-1.8 1.2-2 1-1.7 1-2 .8-2.3.5-2.2.2-4.5.5-4.8-.2-4.7-.5-5-1-3.5-1.3-3.5-1.7-3.5-2.3-1.8-1.2-1.5-1.3-1.2-1.5-.8-1.5-.5-1.5.3-1.7.7-1.8 1.5-1.7.5-.8.5-.7.3-1v-1l-.5-2-1-2.3-1-1.7-1.3-1.8-3.2-3.7-4-3.8-4.8-3.5-5.2-3.2-5.5-2.8-2.8-1.2-3-1-2.7-1-3-.8-7-1-5.8-.5-5-.2-4.2.2h-9.3l-5.2-.7-6.8-1.5-3.5-1-3.5-1.5-3.7-1.5-3.5-2-3.5-2-3.3-2.5-6.7-5-6.5-5.5-6.3-5.5-11.2-10.8-5.5-5.2-5-5.5-5.3-5.3-2.5-2.7-2.7-2.3-2.8-2.2-2.7-2-3.3-1.8-3-1.5-3.5-1-3.7-.7h-3.8l-4.2.2 77.5-87.7 86 19.7 62.7 14.5 35.8 8.5 8 2.5 10.7 3.8 12.3 4.5 12.7 4.7 22 8.5 9.5 3.8 1.5 3 4 8.2 5.5 11.8 3 7z" fill="#ffeec8"/><path d="m378.3 478.6-.7.2 1-.2h.5z" fill="#c8c8c8"/><path d="m701.8 449.1-6 3-10.5 4.2-11.5 4.3-12 4.2-12.5 4-13 4-13.2 4-26 7-24.5 6.5-21.5 5.3-17 3.7-11 2.3-116.8 21.7v-2.2l-.2-5.5-.3-3.8-.5-4-.7-4.5-1.3-4.5-1.2-4.2-1.8-4.3-1.2-2-1-1.7-1.5-1.8-1.3-1.5-1.7-1.2-1.8-1.3-1.7-1-2-.7-2.3-.5-2.2-.3h-2.5l-2.8.3h.8-.5l-1 .2h-2.3l-1-3.7-1.5-4-3.2-9-4.3-9.5-4.2-9.3 5.7-1.5 33.5-6.2 2.8 5.2 2.7 5.5 2.5 6 2.5 6 4.5 11.8 4 10.5 1.3 2 1.5 1.5 1.7 1.2 2 .8 2 .2h2.3l2.5-.2 2.2-.8 2.3-1 2-1.2 2-1.5 1.5-1.8 1.5-2.2.7-2.3.5-2.5v-2.5l-.5-4.5-1-5-1.2-5-1.5-5.2-3.5-10.5-4-10.5 221.7-41.3 6.8-1.2 7.5-1 9.7-1 5.5-.3 5.8-.5h12.5l6.5.5 6.5.5 6.5.8 6.5 1.2 12.7 4.8 11.5 4.7 5.8 2.5 5.5 2.5-.8 1.3-2.2 3.2-4.3 5.3-3 3-3.2 3.5-4 3.5-4.5 3.7-5.3 4-5.7 4-6.3 4-7.2 4-7.8 4z" fill="#c8c8c8"/><path d="m256.3 504.6-4-.3-4-.2-4.2.2-4 .5-4.3.8-4 .7-4 1.3-3.7 1.2-3.8 1.3-3.2 1.7-3.3 1.5-3 1.8-2.7 2-2.3 1.7-2 2-1.5 2-1.7 2-2 1.8-2.5 1.5-2.8 1.2-3 1-3.5 1-3.5.5h-7l-3.7-.5-3.5-1-3.5-1.5-3.3-1.7-3-2.3-2.7-2.7-1.3-1.5-1.2-1.8-1-1.7-1-2-.8-2-.5-1.8-.2-2-.3-2v-4l.5-4 1-3.7 1.3-3.8 1.5-3.2 1.7-2.3 1.5-2 2-1.7 2-1.5 1.8-1.3 2.2-1 2-.7 1.8-.5 3.7-.8 2.8-.2h2.7l6.8 1.5 5.2.7h9.3l4.2-.2 5 .2 5.8.5 7 1 3 .8 2.7 1 3 1 2.8 1.2 5.5 2.8 5.2 3.2 4.8 3.5 4 3.8 3.2 3.7 1.3 1.8 1 1.7z" fill="#797878"/><g fill="none" stroke="#231f20" stroke-linecap="round" stroke-miterlimit="10" stroke-width="21"><path d="m258.6 504.8-2.3-.2-4-.3-4-.2-4.2.2-4 .5-4.3.8-4 .7-4 1.3-3.7 1.2-3.8 1.3-3.2 1.7-3.3 1.5-3 1.8-2.7 2-2.3 1.7-2 2-1.5 2-1.7 2-2 1.8-2.5 1.5-2.8 1.2-3 1-3.5 1-3.5.5h-7l-3.7-.5-3.5-1-3.5-1.5-3.3-1.7-3-2.3-2.7-2.7-1.3-1.5-1.2-1.8-1-1.7-1-2-.8-2-.5-1.8-.2-2-.3-2v-4l.5-4 1-3.7 1.3-3.8 1.5-3.2 1.7-2.3 1.5-2 2-1.7 2-1.5 1.8-1.3 2.2-1 2-.7 1.8-.5 3.7-.8 2.8-.2h2.7m254.8-47 221.7-41.3 6.8-1.2 7.5-1 9.7-1 5.5-.3 5.8-.5h12.5l6.5.5 6.5.5 6.5.8 6.5 1.2 12.7 4.8 11.5 4.7 5.8 2.5 5.5 2.5-.8 1.3-2.2 3.2-4.3 5.3-3 3-3.2 3.5-4 3.5-4.5 3.7-5.3 4-5.7 4-6.3 4-7.2 4-7.8 4-8.5 3.8-6 3-10.5 4.2-11.5 4.3-12 4.2-12.5 4-13 4-13.2 4-26 7-24.5 6.5-21.5 5.3-17 3.7-11 2.3-116.8 21.7v-2.2l-.2-5.5-.3-3.8-.5-4-.7-4.5-1.3-4.5-1.2-4.2-1.8-4.3-1.2-2-1-1.7-1.5-1.8-1.3-1.5-1.7-1.2-1.8-1.3-1.7-1-2-.7-2.3-.5-2.2-.3h-2.5l-2.8.3-.7.2 1-.2h.5-.8m-11.5-36.8 33.5-6.2 1.3-.3"/><path d="m156.6 321.6 86 19.7 62.7 14.5 35.8 8.5 8 2.5 10.7 3.8 12.3 4.5 12.7 4.7 22 8.5 9.5 3.8 1.5 3 4 8.2 5.5 11.8 3 7 3.3 7.5 4 10.5 3.5 10.5 1.5 5.2 1.2 5 1 5 .5 4.5v2.5l-.5 2.5-.7 2.3-1.5 2.2-1.5 1.8-2 1.5-2 1.2-2.3 1-2.2.8-2.5.2h-2.3l-2-.2-2-.8-1.7-1.2-1.5-1.5-1.3-2-4-10.5-4.5-11.8-2.5-6-2.5-6-2.7-5.5-2.8-5.2-1.7-2.5-1.5-2.5-1.8-2.3-1.7-1.7-2-1.8-1.8-1.2-2-1-2-.8-12.7-2.5-13-2.7-14.3-2.8 4.8 8.8 5 9.5 5.5 11.2 4.2 9.3 4.3 9.5 3.2 9 1.5 4 1 3.7.5 3 .3 2.5.2 2.3-.2 2-.8 1.7-1.2 2-1.3 1.5-1.7 1.5-1.8 1.5-2 1.3-2.2 1-2 .7-2.3.8-2.2.5-2.3.2-2 .3h-1.7l-1.8-.3-1.2-.5-1-.5"/><path d="m308.3 430.3 5.3 7.8 5.2 8.5 6.5 10.2 6.8 11.5 6.2 11.8 3 5.5 2.5 5.5 2.3 5 1.7 4.5 1 3.5.5 3v2.5l-.2.7-.5.8-2.3 2.5-2.5 2.2-2.7 1.8-2.8 1.5-3 1.2-3 .8-3 .7-3 .5h-6l-2.7-.2-2.5-.3-2.5-.7-2.3-.8-1.7-.7-1.5-1m-39.3-61.8 5.8 7.3 5.7 7.7 7 9.5 7 10.3 3.3 5.2 3 5 2.7 4.8 2.3 4.5 1.5 4 1 3.5.2 1.5v1.5l-.2 1-.5 1-1.5 1.5-1.5 1.5-1.8 1.2-2 1-1.7 1-2 .8-2.3.5-2.2.2-4.5.5-4.8-.2-4.7-.5-5-1-3.5-1.3-3.5-1.7-3.5-2.3-1.8-1.2-1.5-1.3-1.2-1.5-.8-1.5-.5-1.5.3-1.7.7-1.8 1.5-1.7.5-.8.5-.7.3-1v-1l-.5-2-1-2.3-1-1.7-1.3-1.8-3.2-3.7-4-3.8-4.8-3.5-5.2-3.2-5.5-2.8-2.8-1.2-3-1-2.7-1-3-.8-7-1-5.8-.5-5-.2-4.2.2h-9.3l-5.2-.7-6.8-1.5-3.5-1-3.5-1.5-3.7-1.5-3.5-2-3.5-2-3.3-2.5-6.7-5-6.5-5.5-6.3-5.5-11.2-10.8-5.5-5.2-5-5.5-5.3-5.3-2.5-2.7-2.7-2.3-2.8-2.2-2.7-2-3.3-1.8-3-1.5-3.5-1-3.7-.7h-3.8l-4.2.2"/></g></svg>