<svg height="850" viewBox="0 0 850 850" width="850" xmlns="http://www.w3.org/2000/svg"><path d="m780 641.8 1.3 1 1 1 .7 1.2.8 1.3 1 2.5.5 2.7.2 3-.2 3-.3 3.3-.7 3-.5 2-.5 1.7-1.8 3.5-1.7 3.5-1.8 4-.7 2-.8 2.3-.7 2.5-.3 2.7-.2 3v3.3l.2 3.5.5 4 .5 4v3.7l-.2 3.5-.8 3.3-1 3-1.2 2.7-1.3 2.3-1.7 2.2-1.8 2-1.7 1.5-2 1.5-2 1-1.8.8-2 .5-1.7.2h-1.8l-1-.2-.7-.3-.5-.5-.5-.7-.5-.8-.3-1-.5-2.5-.2-3.2v-14.3l-.3-5.5-.5-6 1.5-.2z" fill="#a9d7f3"/><path d="m780 641.8-28 57-1.5.2-1.2-6.7-1.3-6-1.2-5.8-.3-1.5-1.5-4.2-2.2-6.3-1.5-3.5-1.8-3.7-2-4-2.5-4-2.7-3.8-3-4-3.5-3.5-3.8-3.2-4-3-2.2-1.3-2.3-1-.2-1.7 39-6v.7l4 4.8 1.5 1.7 1.5 1.3 1.5 1 1.2.7 1.3.8 1.2.2 2.5.5 2.8.5 3 .5 3.5 1.3 2 .7z" fill="#ffeec8"/><path d="m705.5 389.8 61.3 233.7-14.5 2.3-39 6-51.3 8-42.5 6.5-53 8.2 7.8-204.7 1 1.5 1 1.5 1.2 1.5 1.5 1.2 1.5 1.3 1.8 1 3.5 2 4 1.2 3.7 1 3.5.3h3.3l2.5-.8 2.5-1 3-1.5 2.7-1.7 3-2 3-2.3 5.8-4.7 5-4.8 4-4 3.7-4z" fill="#a9d7f3"/><path d="m717.5 301.5 1 9.3.8 9.7.5 10.3v15.5l-.5 5-.5 5.2-.8 5-.7 4.8-1.3 4.7-1.2 4.5-1.8 4.3-3.5 7.2-4 2.8-70 45.7-3.7 4-4 4-5 4.8-5.8 4.7-3 2.3-3 2-2.7 1.7-3 1.5-2.5 1-2.5.8h-3.3l-3.5-.3-3.7-1-4-1.2-3.5-2-1.8-1-1.5-1.3-1.5-1.2-1.2-1.5-1-1.5-1-1.5.5-13 1-2 1.2-1.8 1.5-2 1.5-2.2 3.5-3.8 3-3.2 2.8-2.5 2.5-2 2-1.8 2-1 1.7-1 1.8-.7 3.5-1 3.5-1.3 2.2-1 2.3-1.2 2.7-1.5 3-2 7.3-5.5 9-7 18.7-15.5 22.3-18.5-5-47.5 48.2-15.5z" fill="#ffeec8"/><path d="m566.3 332.3-1.5-12.8-1.5-13-1.3-12.7-.7-12.3-.5-11.2.2-10.8v-4.7l.5-4.5.5-4.5.5-3.8 1-3.7 1-3.3 1.3-3.2 1.5-3.3 1.7-3.2 2-3.5 4.3-6.5 4.5-6.3 4.2-5.5 3.5-4.5 3.3-3.7 2.2-3 3 2.2 3 2.3 3 1.7 3.5 1.3 3.3 1.2 3.5.5 3.5.5h3.5l4.2-.5 4-1.2 3.8-1.5 3.7-2 3.5-2.5 3.3-2.8 3-3.2 2.7-3.8.8.5 6.5 3 6.7 3.8 8.5 4.7 4.5 2.8 4.5 3.2 4.5 3.3 4.3 3.5 4.2 3.7 3.8 4 3.2 4.3 3 4.2 3.8 10.8 2.2 6.7 2 7 1.5 7.5 1.5 7.5 1.3 7.8 1 7.5 1.7 15-48.2 15.5 5 47.5-22.3 18.5-18.7 15.5-9 7-7.3 5.5-3 2-2.7 1.5-2.3 1.2-2.2 1-3.5 1.3-3.5 1-1.8.7-1.7 1-2 1-2 1.8-2.5 2-2.8 2.5-3 3.2-3.5 3.8-1.5 2.2-1.5 2-1.2 1.8-1 2 1.5-34.8-5-33.2-2.5-18z" fill="#a9d7f3"/><path d="m662 700.5 1.8 6 1.2 5.8.8 5.5.2 5.2-69.2 7.5 8.2-5 7.8-4.7 8-4.8h.5l.7-.2.8-.5.5-.8.7-1 .8-1.5.5-1.7.5-2.5.2-3v-7.8l-.2-4.7-.5-5.8-1-6.7-4.8-33v-.5l42.5-6.5v35.2z" fill="#ffeec8"/><path d="m596.8 730.5 69.2-7.5-.2 2.3-.3 2.5-.2 2.2-.5 2.3-.8 2-1 2-1.2 1.7-1.3 1.5-1.5 1.5-1.7 1.5-1.8 1.3-2.2 1-2.3 1-2.7.7-2.8.5-3.2.5-3.5.3-3-.3-2.5-.2h-2.8l-3 .5-4 1.2-5 2-6.7 3-3.8 1.8-3.7 1.5-3.5 1-3.8.7-3.5.8-3.2.2h-3.3l-3.2-.2-2.8-.5-2.5-.5-2.5-.8-2-1-1.5-1.2-1.5-1.3-.7-1.5-.5-1.7-.3-.8.3-1 .2-.7.5-.8 1.5-1.5 2.3-1.5 6.5-4 4.2-2.5 4.8-3.2z" fill="#a9d7f3"/><path d="m658.3 143v6l-.3 5.8-.7 5.5-1.3 5.5-1.5 5.2-2 4.8-2.2 4.5-2.8 4.2-2.7 3.8-3 3.2-3.3 2.8-3.5 2.5-3.7 2-3.8 1.5-4 1.2-4.2.5h-3.5l-3.5-.5-3.5-.5-3.3-1.2-3.5-1.3-3-1.7-3-2.3-3-2.2-2-1.8-2-2.2-1.7-2-1.8-2.3-3.2-5-2.8-5.5-2.2-5.7-2-6-.8-3.3-.5-3.2-.5-3.5-.2-3.3-.3-6 .5-5.5.5-5.5 1.3-5.2 1.5-5 1.7-4.8 2.3-4.5 2.5-4.2 2.7-3.8 3-3.5 3.3-3 3.7-2.5 3.8-2.2 4-1.5 4-1.3 4.5-.5h4.2l4.3.5 4.2 1.3 4 1.5 3.8 2.2 3.7 2.5 3.5 3 3.3 3.5 3 3.8 2.7 4.2 2.3 4.5 2.2 4.8 1.8 5.2 1.2 5.3 1 5.5zm-93.5 176.5 1.5 12.8-1.3 1-1.7 2-4.5 5.7-5.8 7.3-6.5 8.2-3.5 4-3.5 3.8-3.7 3.5-3.5 3-3.5 2.5-1.8 1-1.7.7-1.5.5-1.8.5h-3l-16.7-3-13.3-2.7-10-2-7.7-1.8-9.3-2.2-2.5-.5h-1.7l2.2-1.3 2.5-1.2 2.3-2 2.2-2 2.3-2.5 2-2.5 1.5-2.8 1.2-3 .8-3v-4.5l-.3-1.5-.5-1.5-.7-1.2-1-1.5-1-1.5-1.3-1.3-1.5-1.2-1.7-1.3-2-1.2-2.3-1-2.5-1.3 12.8 2 10.2 1.5 8.3 1 6 .8 7 .2h1.7l.8-.2.7-.5 2.5-2.8 3-4 3.5-5.5 8.8-13.5 9.5-16z" fill="#ffeec8"/><path d="m564.8 319.5-30-32 10.7-18.5 9.3-16.7 9.7-17.3-1 3.3-1 3.7-.5 3.8-.5 4.5-.5 4.5v4.7l-.2 10.8.5 11.2.7 12.3 1.3 12.7z" fill="#a9d7f3"/><path d="m460 324.5 2.5 1.3 2.3 1 2 1.2 1.7 1.3 1.5 1.2 1.3 1.3 1 1.5 1 1.5.7 1.2.5 1.5.3 1.5v4.5l-.8 3-1.2 3-1.5 2.8-2 2.5-2.3 2.5-2.2 2-2.3 2-2.5 1.2-2.2 1.3-2.5.5-2.8.5h-3.2l-3.5-.3-3.5-.5-3.8-.5-7.2-1.5-6.8-2-5.7-1.5-5.3-1.7-2.2-2.3-2-2.5-1.5-2.7-1-2.8-1-3-.3-3v-3l.3-2.7.7-2.8 1-2.7 1.5-2.3 2-2 2-1.7 2.8-1.3 2.7-1 3.3-.2h4.7l3.8-.5 3.2-.5 3.3-.5h3.7l2.3.2 2.5.5 3 .5 3.2 1z" fill="#ffeec8"/><path d="m416 320.3 5.8.5-3.3.2-2.7 1-2.8 1.3-2 1.7-2 2-1.5 2.3-1 2.7-.7 2.8-.3 2.7v3l.3 3 1 3 1 2.8 1.5 2.7 2 2.5 2.2 2.3-67.7-7.5-2-1-2.8-1.8-6.2-4.7-6.5-4.5-2.5-1.8-2-1.2-.8-25.8-.5-12.7-.7-12h3.5l35.7 24 5.8 1.5 14 3.7 8.7 2 9 2 9.3 2z" fill="#ffeec8"/><path d="m287.3 437.8v.7l-103.8-2.2-13.5-.3-6.5-67.2 14.8-16.8 18.7-44.7-1-.5-44.7-19.3 7-23 3.5-11.2 3.7-10.3 3.5-9.5 3.3-7.7 1.5-3.3 1.5-2.7 1.2-2 1.3-1.8 1.5-2 1.5-2 3.2-4 4-3.5 4-3.2 4.5-2.8 4.3-2.7 4.7-2.3 4.3-2 4.5-1.7 4-1.5 6.7-2 4.8-1.3 1.7-.5.8-.5 2.7 3.8 3 3.2 3.3 2.8 3.5 2.5 3.7 2 3.8 1.5 4 1.2 4.2.5h3l3-.2 3-.5 3-.8 2.8-1 2.7-1.2 2.8-1.5 2.5-1.8 5.7.3 3.3 3.7 3.5 4.5 4.2 5.5 4.5 6.3 4.3 6.5 2 3.5 1.7 3.2 1.5 3.3 1.3 3.2 1.2 3.8 1 4.2.8 5.5 1 6 1.2 13.8 1.3 16 .7 12 .5 12.7.8 25.8.2 17.5v16.7l-.2 30.8-.3 12.7-.2 10.8-.5 8.2-.5 5z" fill="#a9d7f3"/><path d="m309.5 439-9.5 104h-.2l.5-7.2v-6l-.3-4v-1.5l-2.7-17.5-1.8-13.3-2.7-19.2-5.5-35.8z" fill="#7a7878"/><path d="m267.8 89 4.2.5 4.3 1.3 3.7 1.5 4 2.2 3.5 2.5 3.3 3 3 3.5 2.7 3.8 2.5 4.2 2.3 4.5 1.7 4.8 1.5 5 1.3 5.2.7 5.5.3 5.8-.3 5.7-.2 3.8-.5 3.5-.8 3.7-.7 3.5-1 3.3-1.3 3.5-1.2 3-1.5 3.2-1.5 2.8-1.8 2.7-2 2.8-2 2.5-2 2.2-2 2.3-2.2 2-2.5 1.7-2.5 1.8-2.8 1.5-2.7 1.2-2.8 1-3 .8-3 .5-3 .2h-3l-4.2-.5-4-1.2-3.8-1.5-3.7-2-3.5-2.5-3.3-2.8-3-3.2-2.7-3.8-2.8-4.2-2.2-4.5-2-4.8-1.5-5.2-1.3-5.5-.7-5.5-.3-5.8.3-6 .5-5.7 1-5.5 1.2-5.3 1.8-5.2 2.2-4.8 2.3-4.5 2.7-4.2 3-3.8 3.3-3.5 3.5-3 3.7-2.5 3.8-2.2 4-1.5 4.2-1.3 4.3-.5z" fill="#ffeec8"/><path d="m280.5 728.5 4.8 3.3 4.2 2.7 6.5 3.8 2.3 1.7 1.5 1.5.5.8.2.7.3.8v1l-.5 1.5-1 1.5-1.3 1.2-1.7 1.3-2 1-2.3.7-2.7.8-2.8.5h-6.2l-3.5-.3-3.5-.5-3.8-.7-3.5-1.3-3.7-1.2-3.8-1.8-6.5-3.2-5.2-2-3.8-1-3.2-.5h-2.8l-2.5.2h-6.5l-4.5-.7-3.7-1-3.3-1.5-2.5-1.5-2-1.8-1.7-2-1-2.2-1-2.3-.5-2.2-.3-2.5v-4.8l.8-8 .7-5 47.5 8 12.3 7.5 6.5 4z" fill="#231f20"/><path d="m300 524.3v1.5l.3 4v6l-.5 7.2-.5 4-.8 4-1 4-1.2 4-1.5 3.8-2 3.5-1.3 1.5-1.2 1.5-1.5 1.2-1.5 1.3-4 2.7-68.3 46-62.2 42-.5-1-26-40.5-9.5-14.7 116.2-78.3-2-3-5.2-8.5-7.5-12.7-4.3-7.5-4.2-8-15.3-28.8-6-11.2-5-8.5v-3.5l103.8 2.2 5.5 35.8 2.7 19.2 1.8 13.3z" fill="#7a7878"/><path d="m256.5 713.5-47.5-8-3-.5 9.3-84-.3-.5 68.3-46h.2l-13.5 73.5-12 65.8z" fill="#7a7878"/><path d="m196 306.8 1 .5-18.7 44.7-14.8 16.8-42.2 48.5-2.5 4.7-2.8 5.3-3.7 5.7-4 6.3-2.3 3-2.2 2.7-2.3 2.5-2.5 2.3-2.2 1.7-2.3 1.3-2.2.7-2.8.8-3 .2h-3l-3.2-.2-3.3-.5-3-.8-2.7-1.2-2.8-1.8-2-2-1-1-.7-1.2-.8-1.5-.5-1.5-.2-1.5-.3-1.8v-2l.3-2 .2-2 .8-2.2.7-2.5 1-2.5 2.3-4.5 2.2-4 2-3 2-2.3 1.8-2 2-1.2 1.7-1.3 1.8-.7 3.5-1.5 1.7-.8 2-1 2-1.2 2-1.5 2.3-2.3 2.2-2.7 5.5-7.5 6.5-9.5 6.8-10.3 6.5-10.7 11.2-17.8 4.5-7.5 3.8-13.7 4-14.5 5-17.3z" fill="#ffeec8"/><path d="m152.3 661.5-1.5 1-8 15.8-6.8 13.2-5.2 10.8-2.3 5.2-2 4.5-2.7 7-1 2.5-1.3 1.8-.7.7-.8.5-.7.3h-1l-1.5-.3-1.8-.5-1.5-1-1.2-1.5-1.5-1.7-1.3-2.3-1-2.5-1-2.7-.7-3-.5-3-.3-3.5v-7.3l.5-3.7.8-4 1-4 1.2-3.8.8-3.5.2-3.2.3-3v-2.8l-.3-2.5-.5-2.2-.5-2.3-1.2-4-1.5-3.7-1-3.8-.5-2-.3-1.7v-8.5l.5-3.3.8-2.7 1-2.3 1.2-2 1.5-1.5 1.5-1 1.8-.7 1.7-.8 1.8-.2 1.7-.3 3.8-.2 3.5-.5.5-.3z" fill="#231f20"/><g fill="none" stroke="#231f20" stroke-linecap="round" stroke-miterlimit="10" stroke-width="14"><path d="m287.3 438v.5l5.5 35.8 2.7 19.2 1.8 13.3 2.7 17.5v1.5l.3 4v6l-.5 7.2-.5 4-.8 4-1 4-1.2 4-1.5 3.8-2 3.5-1.3 1.5-1.2 1.5-1.5 1.2-1.5 1.3-4 2.7-68.3 46-62.2 42-.5-1-26-40.5-9.5-14.7 116.2-78.3-2-3-5.2-8.5-7.5-12.7-4.3-7.5-4.2-8-15.3-28.8-6-11.2-5-8.5m-32.7 222.7-8 15.8-6.8 13.2-5.2 10.8-2.3 5.2-2 4.5-2.7 7-1 2.5-1.3 1.8-.7.7-.8.5-.7.3h-1l-1.5-.3-1.8-.5-1.5-1-1.2-1.5-1.5-1.7-1.3-2.3-1-2.5-1-2.7-.7-3-.5-3-.3-3.5v-7.3l.5-3.7.8-4 1-4 1.2-3.8.8-3.5.2-3.2.3-3v-2.8l-.3-2.5-.5-2.2-.5-2.3-1.2-4-1.5-3.7-1-3.8-.5-2-.3-1.7v-8.5l.5-3.3.8-2.7 1-2.3 1.2-2 1.5-1.5 1.5-1 1.8-.7 1.7-.8 1.8-.2 1.7-.3 3.8-.2 3.5-.5m106.5-437.3-2.8-4.2-2.2-4.5-2-4.8-1.5-5.2-1.3-5.5-.7-5.5-.3-5.8.3-6 .5-5.7 1-5.5 1.2-5.3 1.8-5.2 2.2-4.8 2.3-4.5 2.7-4.2 3-3.8 3.3-3.5 3.5-3 3.7-2.5 3.8-2.2 4-1.5 4.2-1.3 4.3-.5h4.5l4.2.5 4.3 1.3 3.7 1.5 4 2.2 3.5 2.5 3.3 3 3 3.5 2.7 3.8 2.5 4.2 2.3 4.5 1.7 4.8 1.5 5 1.3 5.2.7 5.5.3 5.8-.3 5.7-.2 3.8-.5 3.5-.8 3.7-.7 3.5-1 3.3-1.3 3.5-1.2 3-1.5 3.2-1.5 2.8-1.8 2.7-2 2.8-2 2.5-2 2.2-2 2.3-2.2 2-2.5 1.7-2.5 1.8-2.8 1.5-2.7 1.2-2.8 1-3 .8-3 .5-3 .2h-3l-4.2-.5-4-1.2-3.8-1.5-3.7-2-3.5-2.5-3.3-2.8-3-3.2zm56.7 10.8 3.3 3.7 3.5 4.5 4.2 5.5 4.5 6.3 4.3 6.5 2 3.5 1.7 3.2 1.5 3.3 1.3 3.2 1.2 3.8 1 4.2.8 5.5 1 6 1.2 13.8 1.3 16 .7 12 .5 12.7.8 25.8.2 17.5v16.7l-.2 30.8-.3 12.7-.2 10.8-.5 8.2-.5 5-35 1.8-2 .2m-71.8-171.2-16.5 40.5-18.7 44.7-14.8 16.8-42.2 48.5-2.5 4.7-2.8 5.3-3.7 5.7-4 6.3-2.3 3-2.2 2.7-2.3 2.5-2.5 2.3-2.2 1.7-2.3 1.3-2.2.7-2.8.8-3 .2h-3l-3.2-.2-3.3-.5-3-.8-2.7-1.2-2.8-1.8-2-2-1-1-.7-1.2-.8-1.5-.5-1.5-.2-1.5-.3-1.8v-2l.3-2 .2-2 .8-2.2.7-2.5 1-2.5 2.3-4.5 2.2-4 2-3 2-2.3 1.8-2 2-1.2 1.7-1.3 1.8-.7 3.5-1.5 1.7-.8 2-1 2-1.2 2-1.5 2.3-2.3 2.2-2.7 5.5-7.5 6.5-9.5 6.8-10.3 6.5-10.7 11.2-17.8 4.5-7.5 3.8-13.7 4-14.5 5-17.3 7-23 3.5-11.2 3.7-10.3 3.5-9.5 3.3-7.7 1.5-3.3 1.5-2.7 1.2-2 1.3-1.8 1.5-2 1.5-2 3.2-4 4-3.5 4-3.2 4.5-2.8 4.3-2.7 4.7-2.3 4.3-2 4.5-1.7 4-1.5 6.7-2 4.8-1.3 1.7-.5"/><path d="m309.5 439-22.2-.5-103.8-2.2-13.5-.3-6.5-67.2m120 205.7-13.5 73.5-12 65.8-1.5-.3-47.5-8-3-.5 9.3-84"/><path d="m249.5 709.5 7 4 12.3 7.5 6.5 4 5.2 3.5 4.8 3.3 4.2 2.7 6.5 3.8 2.3 1.7 1.5 1.5.5.8.2.7.3.8v1l-.5 1.5-1 1.5-1.3 1.2-1.7 1.3-2 1-2.3.7-2.7.8-2.8.5h-6.2l-3.5-.3-3.5-.5-3.8-.7-3.5-1.3-3.7-1.2-3.8-1.8-6.5-3.2-5.2-2-3.8-1-3.2-.5h-2.8l-2.5.2h-6.5l-4.5-.7-3.7-1-3.3-1.5-2.5-1.5-2-1.8-1.7-2-1-2.2-1-2.3-.5-2.2-.3-2.5v-4.8l.8-8m101.2-271.5-9.5 104v2.5m23.8-211.2 2 1.2 2.5 1.8 6.5 4.5 6.2 4.7 2.8 1.8 2 1 67.7 7.5 5.3 1.7 5.7 1.5 6.8 2 7.2 1.5 3.8.5 3.5.5 3.5.3h3.2l2.8-.5 2.5-.5 2.2-1.3 2.5-1.2 2.3-2 2.2-2 2.3-2.5 2-2.5 1.5-2.8 1.2-3 .8-3v-4.5l-.3-1.5-.5-1.5-.7-1.2-1-1.5-1-1.5-1.3-1.3-1.5-1.2-1.7-1.3-2-1.2-2.3-1-2.5-1.3-8.5-3-3.2-1-3-.5-2.5-.5-2.3-.2h-3.7l-3.3.5-3.2.5-3.8.5h-4.7l-5.8-.5-8.2-1.3-9.3-2-9-2-8.7-2-14-3.7-5.8-1.5-35.7-24m427 342.7 4 4.8 1.5 1.7 1.5 1.3 1.5 1 1.2.7 1.3.8 1.2.2 2.5.5 2.8.5 3 .5 3.5 1.3 2 .7 1.7 1.3 1.3 1 1 1 .7 1.2.8 1.3 1 2.5.5 2.7.2 3-.2 3-.3 3.3-.7 3-.5 2-.5 1.7-1.8 3.5-1.7 3.5-1.8 4-.7 2-.8 2.3-.7 2.5-.3 2.7-.2 3v3.3l.2 3.5.5 4 .5 4v3.7l-.2 3.5-.8 3.3-1 3-1.2 2.7-1.3 2.3-1.7 2.2-1.8 2-1.7 1.5-2 1.5-2 1-1.8.8-2 .5-1.7.2h-1.8l-1-.2-.7-.3-.5-.5-.5-.7-.5-.8-.3-1-.5-2.5-.2-3.2v-14.3l-.3-5.5-.5-6-1.2-6.7-1.3-6-1.2-5.8-.3-1.5-1.5-4.2-2.2-6.3-1.5-3.5-1.8-3.7-2-4-2.5-4-2.7-3.8-3-4-3.5-3.5-3.8-3.2-4-3-2.2-1.3-2.3-1m-66-449 2.8-4.2 2.2-4.5 2-4.8 1.5-5.2 1.3-5.5.7-5.5.3-5.8v-6l-.8-5.7-1-5.5-1.2-5.3-1.8-5.2-2.2-4.8-2.3-4.5-2.7-4.2-3-3.8-3.3-3.5-3.5-3-3.7-2.5-3.8-2.2-4-1.5-4.2-1.3-4.3-.5h-4.2l-4.5.5-4 1.3-4 1.5-3.8 2.2-3.7 2.5-3.3 3-3 3.5-2.7 3.8-2.5 4.2-2.3 4.5-1.7 4.8-1.5 5-1.3 5.2-.5 5.5-.5 5.5.3 6 .2 3.3.5 3.5.5 3.2.8 3.3 2 6 2.2 5.7 2.8 5.5 3.2 5 1.8 2.3 1.7 2 2 2.2 2 1.8 3 2.2 3 2.3 3 1.7 3.5 1.3 3.3 1.2 3.5.5 3.5.5h3.5l4.2-.5 4-1.2 3.8-1.5 3.7-2 3.5-2.5 3.3-2.8 3-3.2zm.8.5 6.5 3 6.7 3.8 8.5 4.7 4.5 2.8 4.5 3.2 4.5 3.3 4.3 3.5 4.2 3.7 3.8 4 3.2 4.3 3 4.2 3.8 10.8 2.2 6.7 2 7 1.5 7.5 1.5 7.5 1.3 7.8 1 7.5 1.7 15 .5 6.2 1 9.3.8 9.7.5 10.3v15.5l-.5 5-.5 5.2-.8 5-.7 4.8-1.3 4.7-1.2 4.5-1.8 4.3-3.5 7.2-4 2.8-70 45.7-3.7 4-4 4-5 4.8-5.8 4.7-3 2.3-3 2-2.7 1.7-3 1.5-2.5 1-2.5.8h-3.3l-3.5-.3-3.7-1-4-1.2-3.5-2-1.8-1-1.5-1.3-1.5-1.2-1.2-1.5-1-1.5-1-1.5-.5-1.5-.5-1.5v-1.5l-.3-1.5.3-1.8.2-1.7.5-1.8.8-1.7 1-2 1.2-1.8 1.5-2 1.5-2.2 3.5-3.8 3-3.2 2.8-2.5 2.5-2 2-1.8 2-1 1.7-1 1.8-.7 3.5-1 3.5-1.3 2.2-1 2.3-1.2 2.7-1.5 3-2 7.3-5.5 9-7 18.7-15.5 22.3-18.5-5-47.5-3.8-34m-45.5 370 4.8 33 1 6.7.5 5.8.2 4.7v7.8l-.2 3-.5 2.5-.5 1.7-.8 1.5-.7 1-.5.8-.8.5-.7.2h-.5l-8 4.8-7.8 4.7-8.2 5-7 4.8-4.8 3.2-4.2 2.5-6.5 4-2.3 1.5-1.5 1.5-.5.8-.2.7-.3 1 .3.8.5 1.7.7 1.5 1.5 1.3 1.5 1.2 2 1 2.5.8 2.5.5 2.8.5 3.2.2h3.3l3.2-.2 3.5-.8 3.8-.7 3.5-1 3.7-1.5 3.8-1.8 6.7-3 5-2 4-1.2 3-.5h2.8l2.5.2 3 .3 3.5-.3 3.2-.5 2.8-.5 2.7-.7 2.3-1 2.2-1 1.8-1.3 1.7-1.5 1.5-1.5 1.3-1.5 1.2-1.7 1-2 .8-2 .5-2.3.2-2.2.3-2.5.2-2.3-.2-5.2-.8-5.5-1.2-5.8-1.8-6v-60.5m-202-315.5 12.8 2 10.2 1.5 8.3 1 6 .8 7 .2h1.7l.8-.2.7-.5 2.5-2.8 3-4 3.5-5.5 8.8-13.5 9.5-16 10.7-18.5 9.3-16.7 9.7-17.3m2 97-.2.3-1.3 1-1.7 2-4.5 5.7-5.8 7.3-6.5 8.2-3.5 4-3.5 3.8-3.7 3.5-3.5 3-3.5 2.5-1.8 1-1.7.7-1.5.5-1.8.5h-3l-16.7-3-13.3-2.7-10-2-7.7-1.8-9.3-2.2-2.5-.5h-1.7"/><path d="m590.8 195.3-3.3 3.7-3.5 4.5-4.2 5.5-4.5 6.3-4.3 6.5-2 3.5-1.7 3.2-1.5 3.3-1.3 3.2-1 3.3-1 3.7-.5 3.8-.5 4.5-.5 4.5v4.7l-.2 10.8.5 11.2.7 12.3 1.3 12.7 1.5 13 1.5 12.8 2.5 18.5 2.5 18 5 33.2-1.5 34.8-.5 13-7.8 204.7 53-8.2 42.5-6.5 51.3-8 39-6 14.5-2.3-61.3-233.7m-283.5-69h-.2l-3.3.2-2.7 1-2.8 1.3-2 1.7-2 2-1.5 2.3-1 2.7-.7 2.8-.3 2.7v3l.3 3 1 3 1 2.8 1.5 2.7 2 2.5 2.2 2.3m-263.5-70 1.3.7 44.7 19.3"/><path d="m534 286.8.8.7 30 32 1.2 1.3m102-10h.8l48.2-15.5 1-.5m-124 436 2.8-.3 69.2-7.5v-.2m86-24 28-57"/></g></svg>