<svg height="850.394" viewBox="0 0 850.394 850.394" width="850.394" xmlns="http://www.w3.org/2000/svg"><g fill="#ed1e29"><path d="m756.73 528.04s17.05 20.35 9.31 34.1c-7.74 13.771-35.92 37.74-35.92 37.74l-47.8 6.3-1.61-1.59.03-.03 7.029-7.149 68.591-69.74z"/><path d="m756.34 527.62.03.04-.01.01-68.591 69.74-7.029 7.149-1.74-1.71 5.79-47.869s23.68-28.41 37.36-36.301c13.68-7.889 34.19 8.941 34.19 8.941zm-15.2-127.23s17.051 20.35 9.311 34.11-35.91 37.73-35.91 37.73l-47.8 6.3-1.61-1.59.021-.03 7.04-7.15 68.579-69.74z"/><path d="m740.79 400-.021.02-68.579 69.74-7.04 7.15-1.73-1.7 5.79-47.88s23.67-28.41 37.35-36.3c13.69-7.89 34.2 8.94 34.2 8.94z"/></g><path d="m558.01 304.81c2.2 12.05 3.36 24.47 3.36 37.15 0 8.34-.5 16.56-1.47 24.63l-4.15-.54-77.66-8.63c.71-5.31 1.07-10.72 1.07-16.22 0-7.24-.62-14.32-1.83-21.22-.09-.53-.19-1.06-.29-1.59z" fill="#fff5b4"/><path d="m559.9 366.59c-.131 1.15-.28 2.3-.44 3.45-3 22-9.5 42.88-18.89 62.09-.471.96-.94 1.91-1.431 2.86l-4.8-2.41-68.2-36.41a89.67 89.67 0 0 0 1.67-3.45 121.393 121.393 0 0 0 10.141-34.22c.05-.36.1-.72.14-1.08l77.66 8.63zm-1.89-61.78-80.97 13.58a121.722 121.722 0 0 0 -11.65-33.64c-.08-.16-.17-.32-.26-.48l68.45-38.02 3.24-1.72c.54.99 1.069 1.99 1.59 3 9.21 17.74 15.9 36.99 19.6 57.28z" fill="#231f20"/><path d="m171.69 436a205.307 205.307 0 0 0 31.3 44.79c.88.97 1.78 1.92 2.68 2.87a205.689 205.689 0 0 0 51.06 39.02 202.924 202.924 0 0 0 54.68 20.12c2.03.44 4.08.84 6.14 1.21 11.91 2.15 24.17 3.28 36.71 3.28h1.79c12.53 0 24.8-1.13 36.71-3.28 1.12-.2 2.25-.41 3.36-.64a202.939 202.939 0 0 0 53.92-18.83c1.19-.61 2.36-1.23 3.53-1.86a205.686 205.686 0 0 0 51.069-39.02c.86-.9 1.721-1.82 2.561-2.74a205.312 205.312 0 0 0 31.939-45.93c.49-.95.96-1.9 1.431-2.86a204.013 204.013 0 0 0 18.89-62.09c.16-1.15.31-2.3.44-3.45.97-8.07 1.47-16.29 1.47-24.63 0-12.68-1.16-25.1-3.36-37.15a203.431 203.431 0 0 0 -19.6-57.28c-.521-1.01-1.05-2.01-1.59-3a205.77 205.77 0 0 0 -35.21-47.37 206.03 206.03 0 0 0 -57.21-40.59c-.87-.41-1.74-.82-2.61-1.22a203.216 203.216 0 0 0 -52.41-16.01c-1.06-.18-2.13-.34-3.2-.5a206.48 206.48 0 0 0 -30.13-2.19h-1.79c-10.24 0-20.3.74-30.13 2.19-1.07.16-2.14.32-3.2.5a203.771 203.771 0 0 0 -55.03 17.23 205.97 205.97 0 0 0 -57.2 40.59 205.989 205.989 0 0 0 -33.67 44.57c-1.08 1.91-2.13 3.85-3.14 5.8a204.064 204.064 0 0 0 -20.09 60.08 206.883 206.883 0 0 0 -2.86 34.35c0 8.34.49 16.56 1.46 24.63.13 1.15.28 2.3.44 3.45 3.01 22 9.5 42.88 18.9 62.09.64 1.3 1.28 2.59 1.95 3.87zm182.57-365.12c149.71 0 271.08 121.37 271.08 271.08 0 149.72-121.37 271.09-271.08 271.09s-271.08-121.37-271.08-271.09c0-149.71 121.37-271.08 271.08-271.08z" fill="#797878"/><path d="m534.34 432.58 4.8 2.41a205.345 205.345 0 0 1 -31.939 45.93l-60.46-56.76c.069-.07.13-.14.2-.21a123.294 123.294 0 0 0 18.79-26.96c.14-.27.279-.55.409-.82zm2.48-188.05-3.24 1.72-68.45 38.02a121.967 121.967 0 0 0 -21.479-29.25l56.029-55.92 1.931-1.94a205.766 205.766 0 0 1 35.209 47.37z" fill="#fff5b4"/><path d="m446.74 424.16 60.46 56.76c-.84.92-1.7 1.84-2.561 2.74a205.753 205.753 0 0 1 -51.069 39.02c-1.17.63-2.34 1.25-3.53 1.86l-1.47-4.4-34.83-70.62c.73-.38 1.46-.77 2.18-1.17a122.507 122.507 0 0 0 27.79-21.02c1.02-1.04 2.04-2.1 3.03-3.17zm54.87-227-1.931 1.94-56.029 55.92c-.36-.37-.73-.74-1.101-1.1-9.7-9.52-20.98-17.45-33.41-23.34l32.65-75.23c.87.4 1.74.81 2.61 1.22a206.015 206.015 0 0 1 57.211 40.59z" fill="#231f20"/><path d="m479.16 341.2c0 5.5-.36 10.91-1.07 16.22l-98.09-10.89-5.3-.59c.22-1.17.33-2.36.33-3.59 0-2.34-.4-4.58-1.15-6.67l103.16-17.29a122.688 122.688 0 0 1 2.12 22.81z" fill="#fff5b4"/><path d="m478.09 357.42c-.04.36-.09.72-.14 1.08a121.393 121.393 0 0 1 -10.141 34.22 89.67 89.67 0 0 1 -1.67 3.45l-86.52-46.18.38-3.46zm-1.05-39.03-103.16 17.29c-.07-.2-.14-.4-.23-.6l91.48-50.81c.09.16.18.32.26.48 5.43 10.43 9.4 21.73 11.65 33.64z" fill="#231f20"/><path d="m466.14 396.17c-.13.27-.27.55-.409.82a123.294 123.294 0 0 1 -18.79 26.96c-.07.07-.131.14-.2.21l-74.741-70.16-.5-.35c1.58-2.27 2.69-4.89 3.2-7.71l5.3.59-.38 3.46zm-1.01-111.9-91.48 50.81c-1.29-3.32-3.46-6.2-6.22-8.36l.78-1.82 3.77 1.64 71.67-71.52c8.54 8.59 15.8 18.44 21.48 29.25zm-16.56 235.87 1.47 4.4a202.939 202.939 0 0 1 -53.92 18.83l-1.08-5.65-17.27-75.96c.7-.12 1.4-.25 2.1-.38 12-2.3 23.39-6.34 33.87-11.86z" fill="#fff5b4"/><path d="m372 354 74.74 70.16c-.99 1.07-2.01 2.13-3.03 3.17a122.507 122.507 0 0 1 -27.79 21.02c-.72.4-1.45.79-2.18 1.17l-43.8-88.819-5.31-.87a19.8 19.8 0 0 0 6.87-6.18zm71.65-98.98-71.67 71.52-3.77-1.64 40.93-94.32a122.838 122.838 0 0 1 33.41 23.34c.37.36.74.73 1.1 1.1z" fill="#231f20"/><path d="m441.79 155.35-32.65 75.23c-.18-.08-.35-.17-.53-.25a121.23 121.23 0 0 0 -32.13-9.91l12.32-77.4.58-3.68c18.42 3 36 8.45 52.41 16.01zm-71.85 205.35 43.8 88.819a121.81 121.81 0 0 1 -33.87 11.86c-.7.13-1.4.26-2.1.38l-22.62-99.53c3.43 0 6.66-.87 9.48-2.4z" fill="#fff5b4"/><path d="m409.14 230.58-40.93 94.32-.78 1.82c-2.12-1.67-4.6-2.92-7.29-3.61l16.34-102.69c11.3 1.83 22.09 5.2 32.13 9.91.18.08.35.17.53.25z" fill="#fff5b4"/><path d="m395.04 537.72 1.08 5.65c-1.11.229-2.24.439-3.36.64a206.526 206.526 0 0 1 -36.71 3.28h-1.79c-12.54 0-24.8-1.13-36.71-3.28-2.06-.37-4.11-.77-6.14-1.21l.59-2.8 15.98-79.11c.81.17 1.63.33 2.45.49 1.16.22 2.33.42 3.5.61 6.37 1.029 12.91 1.56 19.56 1.56h3.32c6.66 0 13.19-.53 19.56-1.56.47-.08.94-.15 1.4-.23zm-5.66-398.38-.58 3.68-12.32 77.4a123.631 123.631 0 0 0 -19.67-1.57h-3.32c-5.84 0-11.58.41-17.2 1.2l-1.84.27-12.94-77.3-.58-3.68c1.06-.18 2.13-.34 3.2-.5 9.83-1.45 19.89-2.19 30.13-2.19h1.79c10.23 0 20.3.74 30.13 2.19 1.07.16 2.14.32 3.2.5z" fill="#231f20"/><path d="m355.15 362.23 22.62 99.53c-.46.08-.93.15-1.4.23a122.56 122.56 0 0 1 -19.56 1.56h-3.32c-6.65 0-13.19-.53-19.56-1.56-1.17-.19-2.34-.391-3.5-.61-.82-.16-1.64-.32-2.45-.49l20.04-99.25.29-.62c2.14.78 4.44 1.21 6.84 1.21zm21.33-141.81-16.34 102.69c-1.6-.42-3.27-.64-4.99-.64-1.37 0-2.71.14-4.01.4l-.32-4.74-16.37-97.81 1.84-.27c5.62-.79 11.36-1.2 17.2-1.2h3.32c5.84 0 11.59.41 17.21 1.2.82.12 1.64.24 2.46.37z" fill="#231f20"/><path d="m336.9 334.46a19.86 19.86 0 0 1 3.53-5.48 19.994 19.994 0 0 1 10.71-6.11c1.3-.26 2.64-.4 4.01-.4 1.72 0 3.39.22 4.99.64 2.69.69 5.17 1.94 7.29 3.61 2.76 2.16 4.93 5.04 6.22 8.36l-1.65.92 1.88-.32c.75 2.09 1.15 4.33 1.15 6.67 0 1.23-.11 2.42-.33 3.59-.51 2.82-1.62 5.44-3.2 7.71a19.822 19.822 0 0 1 -16.35 8.58 19.833 19.833 0 0 1 -16.48-8.76 19.69 19.69 0 0 1 -3.07-7.53c-.22-1.17-.33-2.36-.33-3.59 0-2.8.58-5.47 1.63-7.89z" fill="#ed1e29"/><path d="m350.82 318.13.32 4.74c-2.26.47-4.39 1.32-6.3 2.48l-.9-1.87-43.31-92.64c.35-.18.71-.34 1.06-.51 10.23-4.8 21.22-8.2 32.76-10.01zm-2.51 42.89-.29.62-20.04 99.25a122.649 122.649 0 0 1 -31.42-11.359l43.81-88.83 2.13-3.01a19.853 19.853 0 0 0 5.81 3.329z" fill="#fff5b4"/><path d="m343.94 323.48.9 1.87c-1.64.99-3.12 2.22-4.41 3.63l-2.1-2.44-71.67-71.53c.36-.37.72-.73 1.09-1.09 9.56-9.39 20.66-17.23 32.88-23.08zm-1.44 34.21-2.13 3.01-43.81 88.83c-.73-.391-1.46-.78-2.18-1.181a122.671 122.671 0 0 1 -27.78-21.02c-1.01-1.021-2-2.05-2.96-3.1l72.65-69.14 2.38-1.62a19.952 19.952 0 0 0 3.83 4.221z" fill="#231f20"/><path d="m338.33 326.54 2.1 2.44a19.86 19.86 0 0 0 -3.53 5.48l-90.76-51.99a122.634 122.634 0 0 1 20.52-27.46zm.34 26.93-2.38 1.62-72.65 69.14c-.1-.09-.18-.19-.27-.28a122.927 122.927 0 0 1 -18.8-26.96c-.06-.11-.11-.22-.16-.33l86.27-46.67-.38-3.46 5.3-.59c.5 2.75 1.56 5.3 3.07 7.53z" fill="#fff5b4"/><path d="m246.14 282.47 90.76 51.99a19.78 19.78 0 0 0 -1.63 7.89l-102.76-19.52c.15-.96.3-1.9.47-2.85 2.18-12.49 6.27-24.34 11.94-35.23.4-.76.8-1.52 1.22-2.28z" fill="#231f20"/><path d="m335.6 345.94-5.3.59-98.08 10.89c-.71-5.31-1.08-10.72-1.08-16.22 0-6.25.47-12.38 1.37-18.37l102.76 19.52c0 1.23.11 2.42.33 3.59zm-14.09-202.92 12.94 77.3a121.236 121.236 0 0 0 -32.76 10.01c-.35.17-.71.33-1.06.51l-34.73-74.27a203.771 203.771 0 0 1 55.03-17.23z" fill="#fff5b4"/><path d="m330.3 346.53.38 3.46-86.27 46.67a121.376 121.376 0 0 1 -12.05-38.16c-.05-.36-.1-.72-.14-1.08z" fill="#231f20"/><path d="m327.98 460.89-15.98 79.11-.59 2.8a202.957 202.957 0 0 1 -54.68-20.12l5-2.54 34.83-70.609a122.686 122.686 0 0 0 31.42 11.359z" fill="#fff5b4"/><path d="m265.9 156.57 34.73 74.27a122.376 122.376 0 0 0 -32.88 23.08c-.37.36-.73.72-1.09 1.09l-56.03-55.91-1.93-1.94a205.97 205.97 0 0 1 57.2-40.59zm30.66 292.96-34.83 70.609-5 2.54a205.64 205.64 0 0 1 -51.06-39.02c-.9-.95-1.8-1.9-2.68-2.87l4.26-2.9 56.39-53.66c.96 1.05 1.95 2.08 2.96 3.1 8.18 8.26 17.53 15.35 27.78 21.02.72.401 1.45.791 2.18 1.181z" fill="#231f20"/><path d="m210.63 199.1 56.03 55.91a122.634 122.634 0 0 0 -20.52 27.46l-71.11-40.74a205.989 205.989 0 0 1 33.67-44.57zm53.01 225.13-56.39 53.66-4.26 2.9a205.307 205.307 0 0 1 -31.3-44.79l72.72-39.34c.05.11.1.22.16.33 5.05 9.83 11.39 18.89 18.8 26.96.09.09.17.19.27.28z" fill="#fff5b4"/><path d="m175.03 241.73 71.11 40.74c-.42.76-.82 1.52-1.22 2.28a121.486 121.486 0 0 0 -11.94 35.23c-.17.95-.32 1.89-.47 2.85l-75.67-14.38-5.04-.84a204.064 204.064 0 0 1 20.09-60.08c1.01-1.95 2.06-3.89 3.14-5.8zm69.38 154.93-72.72 39.34c-.67-1.28-1.31-2.57-1.95-3.87a204.028 204.028 0 0 1 -18.9-62.09c-.16-1.15-.31-2.3-.44-3.45l4.15-.54 77.67-8.63c.04.36.09.72.14 1.08a121.376 121.376 0 0 0 12.05 38.16z" fill="#231f20"/><path d="m156.84 308.45 75.67 14.38c-.9 5.99-1.37 12.12-1.37 18.37 0 5.5.37 10.91 1.08 16.22l-77.67 8.63-4.15.54a206.34 206.34 0 0 1 -1.46-24.63c0-11.7.98-23.18 2.86-34.35z" fill="#fff5b4"/><g fill="none"><path d="m625.34 341.96c0 149.72-121.37 271.09-271.08 271.09s-271.08-121.37-271.08-271.09c0-149.71 121.37-271.08 271.08-271.08s271.08 121.37 271.08 271.08z" stroke="#231f20" stroke-width="21"/><path d="m265.9 156.57a203.771 203.771 0 0 1 55.03-17.23c1.06-.18 2.13-.34 3.2-.5m-113.13 56.04a205.97 205.97 0 0 1 54.9-38.31m-94.01 90.96c1.01-1.95 2.06-3.89 3.14-5.8a205.989 205.989 0 0 1 33.67-44.57c.76-.77 1.53-1.53 2.3-2.28m-58.71 109.93c3.71-20.29 10.4-39.54 19.6-57.28m-21.05 122.51c-.16-1.15-.31-2.3-.44-3.45a206.34 206.34 0 0 1 -1.46-24.63 206.883 206.883 0 0 1 3.35-37.15m17.45 127.32a204.028 204.028 0 0 1 -18.9-62.09m54.83 113.62c-.9-.95-1.8-1.9-2.68-2.87a205.307 205.307 0 0 1 -31.3-44.79c-.67-1.28-1.31-2.57-1.95-3.87m86.99 90.55a205.64 205.64 0 0 1 -51.06-39.02m111.88 60.35c-2.06-.37-4.11-.77-6.14-1.21a202.957 202.957 0 0 1 -54.68-20.12" stroke="#231f20" stroke-width="14"/><path d="m301.69 230.33c10.23-4.8 21.22-8.2 32.76-10.01l1.84-.27" stroke="#34a047" stroke-width="14"/><path d="m267.75 253.92c9.56-9.39 20.66-17.23 32.88-23.08.35-.18.71-.34 1.06-.51" stroke="#ed1e29" stroke-width="14"/><path d="m244.92 284.75a122.634 122.634 0 0 1 21.74-29.74c.36-.37.72-.73 1.09-1.09" stroke="#34a047" stroke-width="14"/><path d="m232.98 319.98c2.18-12.49 6.27-24.34 11.94-35.23" stroke="#ed1e29" stroke-width="14"/><path d="m232.36 358.5c-.05-.36-.1-.72-.14-1.08-.71-5.31-1.08-10.72-1.08-16.22 0-6.25.47-12.38 1.37-18.37.15-.96.3-1.9.47-2.85" stroke="#34a047" stroke-width="14"/><path d="m242.49 392.72a121.376 121.376 0 0 1 -10.13-34.22" stroke="#ed1e29" stroke-width="14"/><path d="m244.57 396.99c-.06-.11-.11-.22-.16-.33-.67-1.3-1.3-2.61-1.92-3.94" stroke="#231f20" stroke-width="18.94"/><path d="m263.37 423.95a122.927 122.927 0 0 1 -18.8-26.96" stroke="#34a047" stroke-width="14"/><path d="m266.6 427.33c-1.01-1.021-2-2.05-2.96-3.1-.1-.09-.18-.19-.27-.28" stroke="#231f20" stroke-width="18.94"/><path d="m294.38 448.35a122.671 122.671 0 0 1 -27.78-21.02" stroke="#ed1e29" stroke-width="14"/><path d="m330.43 461.38c-.82-.16-1.64-.32-2.45-.49a122.649 122.649 0 0 1 -31.42-11.359c-.73-.391-1.46-.78-2.18-1.181" stroke="#34a047" stroke-width="14"/><path d="m333.93 461.99c-1.17-.19-2.34-.391-3.5-.61" stroke="#231f20" stroke-width="18.94"/><path d="m265.9 156.57 34.73 74.27 43.31 92.64m-133.31-124.38 56.03 55.91 71.67 71.53m-166.33-86.54 3.03 1.73 71.11 40.74 90.76 51.99 1.56.9m-181.62-26.91 75.67 14.38 102.76 19.52m-180.72 23.7 77.67-8.63 98.08-10.89 5.3-.59.18-.02m-167.78 92.08 3.69-2 72.72-39.34 86.27-46.67m-123.43 127.9 56.39-53.66 72.65-69.14m-74.56 165.05 34.83-70.61 43.81-88.83m7.65.94-20.04 99.25-15.98 79.11m9.51-396.98 12.94 77.3 16.37 97.81" stroke="#231f20" stroke-width="7"/><path d="m444.4 156.57c-.87-.41-1.74-.82-2.61-1.22a203.216 203.216 0 0 0 -52.41-16.01c-1.06-.18-2.13-.34-3.2-.5m113.13 56.04a206.03 206.03 0 0 0 -54.909-38.31m94.009 90.96c-.521-1.01-1.05-2.01-1.59-3a205.77 205.77 0 0 0 -35.21-47.37c-.761-.77-1.53-1.53-2.301-2.28m58.701 109.93a203.431 203.431 0 0 0 -19.6-57.28m21.05 122.51c.16-1.15.31-2.3.44-3.45.97-8.07 1.47-16.29 1.47-24.63 0-12.68-1.16-25.1-3.36-37.15m-17.44 127.32a204.013 204.013 0 0 0 18.89-62.09m-54.82 113.62c.86-.9 1.721-1.82 2.561-2.74a205.312 205.312 0 0 0 31.939-45.93c.49-.95.96-1.9 1.431-2.86m-87.001 90.55a205.686 205.686 0 0 0 51.069-39.02m-111.879 60.35c1.12-.2 2.25-.41 3.36-.64a202.939 202.939 0 0 0 53.92-18.83c1.19-.61 2.36-1.23 3.53-1.86m-60.81 21.33a206.526 206.526 0 0 1 -36.71 3.28h-1.79c-12.54 0-24.8-1.13-36.71-3.28m68.63-405.17a206.48 206.48 0 0 0 -30.13-2.19h-1.79c-10.24 0-20.3.74-30.13 2.19" stroke="#231f20" stroke-width="14"/><path d="m374.02 220.05c-5.62-.79-11.37-1.2-17.21-1.2h-3.32c-5.84 0-11.58.41-17.2 1.2" stroke="#ed1e29" stroke-width="14"/><path d="m408.61 230.33a121.23 121.23 0 0 0 -32.13-9.91c-.82-.13-1.64-.25-2.46-.37" stroke="#34a047" stroke-width="14"/><path d="m442.55 253.92c-9.7-9.52-20.98-17.45-33.41-23.34-.18-.08-.35-.17-.53-.25" stroke="#ed1e29" stroke-width="14"/><path d="m465.39 284.75c-.08-.16-.17-.32-.26-.48a121.967 121.967 0 0 0 -21.479-29.25c-.36-.37-.73-.74-1.101-1.1" stroke="#34a047" stroke-width="14"/><path d="m477.33 319.98c-.09-.53-.19-1.06-.29-1.59a121.722 121.722 0 0 0 -11.65-33.64" stroke="#ed1e29" stroke-width="14"/><path d="m477.95 358.5c.05-.36.1-.72.14-1.08.71-5.31 1.07-10.72 1.07-16.22 0-7.24-.62-14.32-1.83-21.22" stroke="#34a047" stroke-width="14"/><path d="m467.81 392.72a121.393 121.393 0 0 0 10.141-34.22" stroke="#ed1e29" stroke-width="14"/><path d="m465.73 396.99c.14-.27.279-.55.409-.82a89.67 89.67 0 0 0 1.67-3.45" stroke="#231f20" stroke-width="18.94"/><path d="m446.94 423.95a123.294 123.294 0 0 0 18.79-26.96" stroke="#34a047" stroke-width="14"/><path d="m443.71 427.33c1.021-1.04 2.04-2.1 3.03-3.17.069-.07.13-.14.2-.21" stroke="#231f20" stroke-width="18.94"/><path d="m415.92 448.35a122.507 122.507 0 0 0 27.79-21.02" stroke="#ed1e29" stroke-width="14"/><path d="m379.87 461.38c12-2.3 23.39-6.34 33.87-11.86.73-.38 1.46-.77 2.18-1.17" stroke="#34a047" stroke-width="14"/><path d="m376.37 461.99c.47-.08.94-.15 1.4-.23.7-.12 1.4-.25 2.1-.38" stroke="#231f20" stroke-width="18.94"/><path d="m376.37 461.99a122.56 122.56 0 0 1 -19.56 1.56h-3.32c-6.65 0-13.19-.53-19.56-1.56" stroke="#ed1e29" stroke-width="14"/><g stroke="#231f20"><path d="m335.27 342.35c0 1.23.11 2.42.33 3.59.5 2.75 1.56 5.3 3.07 7.53a19.833 19.833 0 0 0 16.48 8.76 19.822 19.822 0 0 0 16.35-8.58c1.58-2.27 2.69-4.89 3.2-7.71.22-1.17.33-2.36.33-3.59 0-2.34-.4-4.58-1.15-6.67-.07-.2-.14-.4-.23-.6-1.29-3.32-3.46-6.2-6.22-8.36-2.12-1.67-4.6-2.92-7.29-3.61-1.6-.42-3.27-.64-4.99-.64-1.37 0-2.71.14-4.01.4a19.981 19.981 0 0 0 -10.71 6.11 19.86 19.86 0 0 0 -3.53 5.48 19.78 19.78 0 0 0 -1.63 7.89z" stroke-width="21"/><path d="m443.6 151.17-1.81 4.18-32.65 75.23-40.93 94.32-.78 1.82-1.43 3.28m133.68-130.9-56.03 55.92-71.67 71.52m161.6-80.29-68.45 38.02-91.48 50.81-1.65.92" stroke-width="7"/><path d="m558.01 304.81-80.97 13.58-103.16 17.29-1.88.32m183.75 30.05-77.66-8.63-98.09-10.89-5.3-.59-.18-.02m159.82 86.66-68.2-36.41-86.52-46.18m128.5 131.79-.92-.86-60.46-56.76-74.74-70.16m76.57 166.14-34.83-70.62-43.8-88.82m-14.79 1.53 22.62 99.53 17.27 75.96m-6.24-394.7-12.32 77.4-16.34 102.69-.14.89" stroke-width="7"/><path d="m687.77 597.41 68.59-69.74.01-.01h.01l3.65-3.72m-208.7 212.19 129.38-131.54.03-.03 7.03-7.15" stroke-linecap="round" stroke-linejoin="round" stroke-width="14"/><path d="m508.54 779.63 42.79-43.5" stroke-linecap="round" stroke-linejoin="round" stroke-width="7"/><path d="m756.34 527.62s-20.51-16.83-34.189-8.94c-13.681 7.891-37.36 36.301-37.36 36.301l-5.791 47.869m77.73-74.81s17.05 20.35 9.31 34.1c-7.74 13.771-35.92 37.74-35.92 37.74l-47.8 6.3" stroke-width="14"/><path d="m672.19 469.76 68.58-69.74.02-.02 3.65-3.71m-208.69 212.19 129.38-131.54.02-.03 7.04-7.15" stroke-linecap="round" stroke-linejoin="round" stroke-width="14"/><path d="m492.96 651.98 42.79-43.5" stroke-linecap="round" stroke-linejoin="round" stroke-width="7"/><path d="m740.76 399.97s-20.51-16.83-34.2-8.94c-13.68 7.89-37.35 36.3-37.35 36.3l-5.79 47.88m77.72-74.82s17.051 20.35 9.311 34.11-35.91 37.73-35.91 37.73l-47.8 6.3" stroke-width="14"/></g></g><path d="m0 0h850.394v850.394h-850.394z" fill="none"/></svg>