<svg height="850" viewBox="0 0 850 850" width="850" xmlns="http://www.w3.org/2000/svg"><path d="m313 281-.7-.5h-.3l-3.2 2.3-4.3 2.2-4.7 2.5-5.3 2.3-11.7 5-12.3 5-22.2 8.7-7.8 3.5-3 1.3-1.7 1-7 7.7-6.8 7.5-6.7 8.3-4 5.5-1.8 2.5-1.2 2.2-.8-25.7.3-3.8.2-3.7.3-3.5.7-3.5.8-3.5 1-3.3 2-6.2 2.5-5.8 3-5.2 3-5 3-4.3 3.2-4 3-3.2 2.8-3 2.5-2.5 3.7-3.3 1.5-1 4.8-3 1.7-1 3.3-1.7 3.2-1.8 3.5-1.5 3.8-1.5 3.7-1 3.8-1.2 4-.8 4.2-.7 4.3-.5 4.2-.5 4.5-.3 4.8-.2 4.7.2 5 .3 10.3.7 3.2.5 3 .8 3 .7 3 1 3 1 3 1.3 2.8 1.5 2.7 1.5 2.8 1.7 2.5 1.8 5.2 4.2 4.8 4.5 4.2 5.3 4.3 5.5 3.7 6 3.3 6.2 3 6.8 2.5 7 2.2 7.2 1.5 7.8 1.3 7.7.2 2.5v2.8l-.7 5.2-1.8 10.8-2.5 2.5-2.2.2-2 .5-.8.3-.2-.8-.8-2.2-.7-2.3-1.3-2.2-1.2-2.3-2.8-4-3.2-4-3-3.2-3-3.3-2.5-2.5-1.8-2-6.7-9-6.5-7.7-5.8-6.3-5-5-4.5-4-3.5-2.7-2.7-2z" fill="#f6cc4b"/><path d="m265.8 357.8 1.2.2 1 .3 1 .7 1 .8.8.7.7 1.3.3 1 .2 1.2-.2 1.3-.3 1.2-.7 1-.8 1-1 .8-1 .5-1 .5h-2.7l-1-.5-1-.5-1-.8-.8-1-.7-1-.3-1.2v-2.5l.3-1 .7-1.3.8-.7 1-.8 1-.7 1-.3zm68.7-1.3h1.3l1.2.5 1 .5 1 .8.8 1 .5 1 .5 1.2v2.5l-.5 1-.5 1.3-.8.7-1 .8-1 .7-1.2.3-1.3.2-1.2-.2-1.3-.3-1-.7-1-.8-.7-.7-.5-1.3-.3-1-.2-1.2.2-1.3.3-1.2.5-1 .7-1 1-.8 1-.5 1.3-.5z" fill="#fff"/><path d="m370 347.8.8-.3 2-.5 2.2-.2 2.3.2 1.5.5 1.5.5 1 .8 1 .7.7 1 .5 1 .5 1.3.3 1.2.2 2.5-.2 2.8-.8 2.2-.7 2.3-2 4.2-1.3 3.8-.5 3.2-.2 3-.3 2.8.3 3v3l-.3 3.2-.2 1.5-.5 1.5-1 1.5-1.3 1.5-1.5 1.5-2 1-2.2.5-1.3.3h-1.2l-1.5-.3-.5-.2 2-8 1.5-8.3.5-4.2.5-4 .2-4.3v-13.2l-.2-9.8zm-154.2 18 .2 4.2.3 4.3.2 4.5.8 4.2 1.5 8.5 2 8.3h-.8l-1.5.2h-3l-1-.2-2.2-1-1.8-1.5-1.5-1.5-1-1.8-.7-1.5-.3-1.5v-12l-.2-3-.8-3.5-1.2-3.5-1.8-4.5-.7-2-.8-2.5-.2-2.5v-2.5l.2-1.2.5-1.3.5-1 .8-1 1-1 1.2-.7 1.3-.5 1.5-.3 1.7-.2h1.8l1.5.2 1.5.5h1.2z" fill="#ffeec8"/><path d="m340.8 362.8v-1.3l-.5-1.3-.5-1-.8-1-1-.8-1-.5-1.3-.5h-2.6l-1.1.6-1 .5-1 .8-.8 1-.5 1-.3 1.3-.3 1.3.3 1.3.3 1 .5 1.3.8.8 1 .8 1 .8 1.3.3 1.3.3 1.3-.3 1.3-.3 1-.8 1-.8.8-.8.5-1.3.5-1v-1.4zm-68.8 1.2-.3-1.3-.3-1-.8-1.3-.8-.8-1-.8-1-.8-1-.3-1.3-.3-1.5.3-1 .3-1 .8-1 .8-.8.8-.8 1.3-.3 1v2.6l.3 1.3.8 1 .8 1 1 .8 1 .5 1 .5h2.8l1-.5 1-.5 1-.8.8-1 .8-1 .3-1.3zm24.3 53.8h-.3.8zm73.5-70.8.3 9.8v13.3l-.3 4.3-.5 4-.5 4.3-1.5 8.3-2 8-2.3 7-2.8 7-3 6.8-3.3 6.8-4 7.3-4.5 7-4.4 6.1-4.8 6-4.8 5.3-4.8 4.5-4.8 4-4.5 3.3-3.3 1.3-2.8 1-3 .8-2.8.3-3 .3h-21.2l-2.8-.3-2.5-.5-2.8-.8-2.8-1-4.8-3-4.8-3.5-4.8-4.3-4.8-5-4.1-5.4-4.5-6-4.5-6.3-4-6.8-3.5-6.3-3-6.5-2.8-7-2.5-7-1.5-4.5-2-8.3-1.5-8.5-.8-4.3-.3-4.5-.1-4-.3-4.3.3-17.3v-10.3l-.8-.5 6.8-8.3 6.8-7.5 7-7.8 1.8-1 3-1.3 7.8-3.5 22.3-8.8 12.3-5 11.8-5 5.3-2.3 4.8-2.5 4.3-2.3 3.3-2.3 1 .5 1.8 1.3 2.8 2 3.5 2.8 4.5 4 5 5 5.8 6.3 6.5 7.8 6.8 9 1.8 2 2.5 2.5 3 3.3 3 3.3 3.3 4 2.8 4 1.3 2.3 1.3 2.3.8 2.3z" fill="#ffeec8"/><path d="m256.3 472.8 2 1.5 1.7 1.7 4 4 3.5 4.5 3 4.8 2.8 5 1.7 4.7.8 2.3.5 2 .2 2v2l-1 3.2-2.5 7.8-1.7 4.7-2 5-2.3 4.8-2.5 4-38.2-17-.8-14-.5-10-1-11-1.2-11.5-1.8-10.8-1-4.7-1.2-4.8-1.3-4-1.2-3.2-3-6.8-2.3-5.7-1.7-5.3-1-4.5-.5-3.7v-1.5l.2-1.3.3-1.2.5-.8.7-.7.8-.5 1.7-.5 1.8-.3 1.7.3 1.8.2 1.5.8 1.7.7 1.5 1 1.5 1.3 3 3 2.8 3.5 2.2 3.5 2.3 3.7 2.7 5.5 2.3 4.5 2 4.8 2 4.5 2 4.5 3.2 8 1.5 3.5 2 3 1 1 1 1 1.3.7zm123.2-63 1 .5.8.7.5 1 .2 1 .3 1.5v1.5l-.5 3.5-1 4.5-1.8 5.3-2.2 6-3 6.5-1.5 3.5-1.3 4-1 4.5-1 5-1.7 10.7-1.3 11.3-1 11-.5 10-.7 14-38.3 17.2-2.5-4.2-2.2-4.8-2-4.7-1.8-4.8-2.5-8-1-3.2v-1.8l.3-2 .5-2.2.5-2.3 2-4.7 2.7-4.8 3-4.7 3.5-4.5 3.8-4.3 2-1.7 2-1.5 1.5-.5 1.2-.8 1-1 1-1.2 1.8-2.8 1.7-3.5 3.3-8.2 2-4.5 2-4.5 2-4.5 2-4.5 2.7-5.3 2.3-3.7 2.5-3.8 2.5-3.5 3-3 1.5-1.2 1.7-1 1.5-1 1.8-.5 1.5-.5h3.5z" fill="#ffeec8"/><path d="m367.3 399.3 2.2 1.2 6.5 3.8 9.5 5.7 5.5 3.5 5.8 4 6 4.3 6 4.5 6 4.7 5.7 5 5.3 5.3 4.7 5.2 2.3 2.8 2 2.7 1.7 2.5 1.5 2.8 1.3 2.2 1 3.3 2.7 8.7 3.3 11.8 3.5 14 3.5 16 4 17.5 8 37 7.5 36.7 6.5 32.3 6.7 35.5-1-4.5-1.2-4.5-1.5-4.5-1.5-4-1.5-4.3-2-3.7-2-3.8-2-3.5-101.5-127.2-8 3.5.7-14 .5-10 1-11 1.3-11.3 1.7-10.7 1-5 1-4.5 1.3-4 1.5-3.5 3-6.5 2.2-6 1.8-5.3 1-4.5.5-3.5v-1.5l-.3-1.5-.2-1-.5-1-.8-.7-1-.5-1.7-.5h-3.5l-1.5.5-1.8.5-1.5 1-1.7 1-1.5 1.2-3 3-2.5 3.5-2.5 3.8-2.3 3.7-2-1 3.3-6.7 3-6.8 2.7-7 2.3-7.2.5.2z" fill="#a8d7f4"/><path d="m363.8 515.8 8-3.5 101.5 127.2 2 3.5 2 3.8 2 3.7 1.5 4.3 1.5 4 1.5 4.5 1.2 4.5 1 4.5 1.5 7.2 1 7.5.3 7.5v7.3l-.5 7.2-1 7-.8 3.5-1 3.3-1 3.2-1 3-1.5 3-1.2 3-1.8 2.8-1.7 2.5-2 2.2-2 2.3-2.3 2.2-2.5 1.8-2.5 1.7-2.7 1.5-3 1.3-3.3 1-3.2.7-3.5.5-3.8.3h-3.7l-3-.3-3-.7-2.8-1.3-3-1.2-3-2-3-2-2.7-2.5-3-2.8-5-5-4.8-6-4.7-6.2-4.8-6.8-4.5-7.2-4.2-7.5-4.3-7.8-4.2-7.7-7.5-15.5-6.8-14.5-5.7-13.3-4.5-10.7-5.8-13.8-6-15.7-12.5-32.8-9.5-26.5-4-11 5-2zm-99.3 21 5 2.2-4 11-9.7 26.5-12.3 32.8-6.2 15.7-5.5 13.8-4.3 10-5.2 12.2-6.5 13.8-7 14.5-3.8 7.5-4 7.2-4 7.3-4.2 7-4.5 6.7-4.3 6.3-4.5 6-4.7 5.5-3.3 3.5-3.5 3.2-3.5 2.8-3.5 2.5-3.5 2-3.2 1.5-3.5 1-3.5.2h-3.8l-3.7-.2-3.5-.5-3.3-.8-3.2-1-2.8-1.2-2.7-1.3-2.8-1.7-2.5-1.8-2.2-2.2-2-2-2-2.5-1.8-2.5-1.5-2.8-1.5-2.7-1.2-3-1.3-3-1-3.3-1-3.2-.7-3.5-1-7-.5-7-.3-7.5.5-7.5 1-7.3 1.3-7.5 1-4.5 1.2-4.7 1.5-4.3 1.5-4.2 1.8-4.3 1.7-3.7 2-3.8 2.3-3.7 101.5-127 8 3.5z" fill="#a8d7f4"/><path d="m222.3 404.3 2.5 7 2.7 7 3 6.5 3.5 6.2h-.2l-2.3-3.7-2.2-3.5-2.8-3.5-3-3-1.5-1.3-1.5-1-1.7-.7-1.5-.8-1.8-.2-1.7-.3-1.8.3-1.7.5-.8.5-.7.7-.5.8-.3 1.2-.2 1.3v1.5l.5 3.7 1 4.5 1.7 5.3 2.3 5.7 3 6.8 1.2 3.2 1.3 4 1.2 4.8 1 4.7 1.8 10.8 1.2 11.5 1 11 .5 10 .8 14-8-3.5-101.5 127-2.3 3.7-2 3.8-1.7 3.7-1.8 4.3-1.5 4.2-1.5 4.3-1.2 4.7-1 4.5 6.5-33.5 6.5-32.2 7.5-37 8-37.5 4-17.8 3.7-16.5 3.8-14.2 3-12 2.7-9 1.3-3.3 1-2.2 1.7-2.8 1.8-2.7 4-5.3 4.5-5 5-5.2 5.5-4.8 5.5-4.5 5.7-4.5 5.5-4 5.5-3.7 5-3.3 8.8-5.2 6-3.5 2.2-1.3z" fill="#a8d7f4"/><path d="m333.8 468.8-2 1.5-2 1.7-3.8 4.3-3.5 4.5-3 4.7-2.7 4.8-2 4.7-.5 2.3-.5 2.2-.3 2v1.8l1 3.2 2.5 8 1.8 4.8 2 4.7 2.2 4.8 2.5 4.2-5 2 4 11 9.5 26.5 12.5 32.8 6 15.7 5.8 13.8 4.5 10.7 5.7 13.3 6.8 14.5 7.5 15.5 4.2 7.7 4.3 7.8 4.2 7.5 4.5 7.2 4.8 6.8 4.7 6.2 4.8 6 5 5h-244l-.5-.2 4.7-5.5 4.5-6 4.3-6.3 4.5-6.7 4.2-7 4-7.3 4-7.2 3.8-7.5 7-14.5 6.5-13.8 5.2-12.2 4.3-10 5.5-13.8 6.2-15.7 12.3-32.8 9.7-26.5 4-11-5-2.2 2.5-4 2.3-4.8 2-5 1.7-4.7 2.5-7.8 1-3.2v-2l-.2-2-.5-2-.8-2.3-1.7-4.7-2.8-5-3-4.8-3.5-4.5-4-4-1.7-1.7-2-1.5-1.5-.8-1.3-.7-1-1-1-1-2-3-1.5-3.5-3.2-8-2-4.5-2-4.5-2-4.8-2.3-4.5-2.7-5.5h.2l4 6.8 4.5 6.2 4.5 6 4.5 5.3 4.8 5 4.7 4.2 4.8 3.5 4.7 3 2.8 1 2.7.8 2.5.5 2.8.2h21.5l3-.2 2.7-.3 3-.7 2.8-1 3.2-1.3 4.5-3.2 4.8-4 4.7-4.5 4.8-5.3 4.7-6 4.5-6.2 4.5-7 4-7.3 2 1-2.7 5.3-2 4.5-2 4.5-2 4.5-2 4.5-3.3 8.2-1.7 3.5-1.8 2.8-1 1.2-1 1-1.2.8z" fill="#a8d7f4"/><path d="m624 90h6.5l6.3.5 6.2 1 6.3 1 6 1.5 6 1.8 5.7 2.2 5.5 2.3 5.8 2.7 5.2 3 5.3 3 5 3.5 5 3.8 4.7 4 4.5 4 4.3 4.5 4 4.5 4 4.7 3.7 5 3.5 5.3 3.3 5.5 3 5.5 2.7 5.7 2.5 5.8 2.3 6 2 6.2 1.5 6.3 1.5 6.5 1 6.5.7 6.5.5 6.7.3 6.8-.3 7-.5 6.7-.7 6.5-1 6.5-1.5 6.5-1.5 6.3-2 6.2-2.3 6-2.5 5.8-2.7 5.7-3 5.5-3.3 5.5-3.5 5-3.7 5-4 5-4 4.5-4.3 4.5-4.5 4-4.7 4-5 3.8-5 3.5-5.3 3-5.2 3-5.8 2.7-5.5 2.3-5.7 2-6 2-6 1.5-6.3 1-6.2 1-6.3.5h-12.7l-6-.5-6.3-1-6-1-5.7-1.5-5.8-1.5-5.7-2-5.5-2.3-5.5-2.5-5.3-3-5-3-5-3.2-5-3.5-4.5-3.8-4.5-4-4.2-4.2-4.3-4.3-3.7-4.7-3.8-4.8-3.5-5-3.2-5-3-5.2-3-5.5-2.5-5.8-2.3-5.7-2.2-6-1.8-6-1.5-6-1.2-6.5-1-6.3-.8-6.5-.5-6.5 2.8-1.2 2.5-1.5 2.2-1.5 2.3-1.8 2.2-2 2-2 1.8-2.2 1.7-2.5 1.5-2.5 1.3-2.5 1.2-2.8 1-3 .8-2.7.5-3.3.2-3 .3-3.2-.3-4-.5-4-1-3.8-1.2-3.5-1.5-3.5-1.8-3.2-2.2-3.3-2.3-2.7 4-8 4.8-7.5 5-7.3 5.5-6.7 6-6.3 6.2-6 6.5-5.5 7-5 3.8-2.2 3.7-2.3 3.8-2 3.7-2 4-1.7 4-1.8 4-1.5 4.3-1.2 4-1.3 4.2-1 4.5-1 4.3-.7 4.5-.5 4.2-.5 4.5-.3z" fill="#fff"/><path d="m513 162.3 2.3 2.7 2.2 3.3 1.8 3.2 1.5 3.5 1.2 3.5 1 3.8.5 4 .3 4-.3 3.2-.2 3-.5 3.3-.8 2.7-1 3-1.2 2.8-1.3 2.5-1.5 2.5-1.7 2.5-1.8 2.2-2 2-2.2 2-2.3 1.8-2.2 1.5-2.5 1.5-2.8 1.2v-5.7l.3-8 .5-8 1.2-7.8 1.5-7.5 2-7.5 2.3-7.2 2.7-7.3z" fill="#fff"/><path d="m485.8 150 4 .3 3.7.5 3.8 1 3.5 1.5 3.5 1.7 3 2 3 2.5 2.7 2.8-3 6.7-2.7 7.3-2.3 7.2-2 7.5-1.5 7.5-1.2 7.8-.5 8-.3 8v5.7l-3.2 1-3.5 1-3.5.5-3.5.3-4-.3-3.8-.7-3.5-1-3.5-1.3-3.2-1.7-3.3-2-3-2.3-2.5-2.7-2.5-2.8-2.2-3-2-3.5-1.5-3.5-1.3-3.7-1-3.8-.5-4-.2-4.2.2-4 .5-4 1-4 1.3-3.8 1.5-3.5 2-3.2 2.2-3 2.5-3 2.5-2.5 3-2.5 3.3-2 3.2-1.5 3.5-1.5 3.5-1 3.8-.5zm-73 67.3 2.5.2 2.2.3 2.3.7 2.2.8 2 1 1.8 1.2 2 1.5 1.5 1.5 1.5 2 1.5 1.8 1 2 1 2.2 1 2.3.5 2.5.2 2.5.3 2.5-.3 2.5-.2 2.5-.5 2.2-1 2.5-1 2-1 2-1.5 2-1.5 1.8-1.5 1.7-2 1.3-1.8 1.2-2 1-2.2 1-2.3.5-2.2.5h-4.8l-2.5-.5-2.2-.5-2-1-2-1-2-1.2-1.8-1.3-1.7-1.7-1.5-1.8-1.3-2-1.2-2-1-2-.8-2.5-.7-2.2-.3-2.5v-5l.3-2.5.7-2.5.8-2.3 1-2.2 1.2-2 1.3-1.8 1.5-2 1.7-1.5 1.8-1.5 2-1.2 2-1 2-.8 2.2-.7 2.5-.3z" fill="#fff"/><g fill="none" stroke="#231f20" stroke-linecap="round" stroke-miterlimit="10"><path d="m513 162.3 4-8 4.8-7.5 5-7.3 5.5-6.7 6-6.3 6.2-6 6.5-5.5 7-5 3.8-2.2 3.7-2.3 3.8-2 3.7-2 4-1.7 4-1.8 4-1.5 4.3-1.2 4-1.3 4.2-1 4.5-1 4.3-.7 4.5-.5 4.2-.5 4.5-.3h11l6.3.5 6.2 1 6.3 1 6 1.5 6 1.8 5.7 2.2 5.5 2.3 5.8 2.7 5.2 3 5.3 3 5 3.5 5 3.8 4.7 4 4.5 4 4.3 4.5 4 4.5 4 4.7 3.7 5 3.5 5.3 3.3 5.5 3 5.5 2.7 5.7 2.5 5.8 2.3 6 2 6.2 1.5 6.3 1.5 6.5 1 6.5.7 6.5.5 6.7.3 6.8-.3 7-.5 6.7-.7 6.5-1 6.5-1.5 6.5-1.5 6.3-2 6.2-2.3 6-2.5 5.8-2.7 5.7-3 5.5-3.3 5.5-3.5 5-3.7 5-4 5-4 4.5-4.3 4.5-4.5 4-4.7 4-5 3.8-5 3.5-5.3 3-5.2 3-5.8 2.7-5.5 2.3-5.7 2-6 2-6 1.5-6.3 1-6.2 1-6.3.5h-12.7l-6-.5-6.3-1-6-1-5.7-1.5-5.8-1.5-5.7-2-5.5-2.3-5.5-2.5-5.3-3-5-3-5-3.2-5-3.5-4.5-3.8-4.5-4-4.2-4.2-4.3-4.3-3.7-4.7-3.8-4.8-3.5-5-3.2-5-3-5.2-3-5.5-2.5-5.8-2.3-5.7-2.2-6-1.8-6-1.5-6-1.2-6.5-1-6.3-.8-6.5-.5-6.5" stroke-width="14"/><path d="m513 162.3 2.3 2.7 2.2 3.3 1.8 3.2 1.5 3.5 1.2 3.5 1 3.8.5 4 .3 4-.3 3.2-.2 3-.5 3.3-.8 2.7-1 3-1.2 2.8-1.3 2.5-1.5 2.5-1.7 2.5-1.8 2.2-2 2-2.2 2-2.3 1.8-2.2 1.5-2.5 1.5-2.8 1.2-3.2 1-3.5 1-3.5.5-3.5.3-4-.3-3.8-.7-3.5-1-3.5-1.3-3.2-1.7-3.3-2-3-2.3-2.5-2.7-2.5-2.8-2.2-3-2-3.5-1.5-3.5-1.3-3.7-1-3.8-.5-4-.2-4.2.2-4 .5-4 1-4 1.3-3.8 1.5-3.5 2-3.2 2.2-3 2.5-3 2.5-2.5 3-2.5 3.3-2 3.2-1.5 3.5-1.5 3.5-1 3.8-.5 4-.3 4 .3 3.7.5 3.8 1 3.5 1.5 3.5 1.7 3 2 3 2.5zm-76.7 80-.3 2.5-.2 2.5-.5 2.2-1 2.5-1 2-1 2-1.5 2-1.5 1.8-1.5 1.7-2 1.3-1.8 1.2-2 1-2.2 1-2.3.5-2.2.5h-4.8l-2.5-.5-2.2-.5-2-1-2-1-2-1.2-1.8-1.3-1.7-1.7-1.5-1.8-1.3-2-1.2-2-1-2-.8-2.5-.7-2.2-.3-2.5v-5l.3-2.5.7-2.5.8-2.3 1-2.2 1.2-2 1.3-1.8 1.5-2 1.7-1.5 1.8-1.5 2-1.2 2-1 2-.8 2.2-.7 2.5-.3 2.3-.2 2.5.2 2.2.3 2.3.7 2.2.8 2 1 1.8 1.2 2 1.5 1.5 1.5 1.5 2 1.5 1.8 1 2 1 2.2 1 2.3.5 2.5.2 2.5zm-210 277.5 38.2 17 5 2.2-4 11-9.7 26.5-12.3 32.8-6.2 15.7-5.5 13.8-4.3 10-5.2 12.2-6.5 13.8-7 14.5-3.8 7.5-4 7.2-4 7.3-4.2 7-4.5 6.7-4.3 6.3-4.5 6-4.7 5.5-3.3 3.5-3.5 3.2-3.5 2.8-3.5 2.5-3.5 2-3.2 1.5-3.5 1-3.5.2h-3.8l-3.7-.2-3.5-.5-3.3-.8-3.2-1-2.8-1.2-2.7-1.3-2.8-1.7-2.5-1.8-2.2-2.2-2-2-2-2.5-1.8-2.5-1.5-2.8-1.5-2.7-1.2-3-1.3-3-1-3.3-1-3.2-.7-3.5-1-7-.5-7-.3-7.5.5-7.5 1-7.3 1.3-7.5" stroke-width="14"/><path d="m103.8 676.5 1-4.5 1.2-4.7 1.5-4.3 1.5-4.2 1.8-4.3 1.7-3.7 2-3.8 2.3-3.7 101.5-127 8 3.5" stroke-width="14"/><path d="m260.5 472.8-2.2.2-2-.2-1.5-.8-1.3-.7-1-1-1-1-2-3-1.5-3.5-3.2-8-2-4.5-2-4.5-2-4.8-2.3-4.5-2.7-5.5-2.3-3.7-2.2-3.5-2.8-3.5-3-3-1.5-1.3-1.5-1-1.7-.7-1.5-.8-1.8-.2-1.7-.3-1.8.3-1.7.5-.8.5-.7.7-.5.8-.3 1.2-.2 1.3v1.5l.5 3.7 1 4.5 1.7 5.3 2.3 5.7 3 6.8 1.2 3.2 1.3 4 1.2 4.8 1 4.7 1.8 10.8 1.2 11.5 1 11 .5 10 .8 14v2.2" stroke-width="14"/><path d="m264 537.8.5-1 2.5-4 2.3-4.8 2-5 1.7-4.7 2.5-7.8 1-3.2v-2l-.2-2-.5-2-.8-2.3-1.7-4.7-2.8-5-3-4.8-3.5-4.5-4-4-1.7-1.7-2-1.5-2-1.3-1.8-1.2m-34-64.8-2.2 1.3-6 3.5-8.8 5.2-5 3.3-5.5 3.7-5.5 4-5.7 4.5-5.5 4.5-5.5 4.8-5 5.2-4.5 5-4 5.3-1.8 2.7-1.7 2.8-1 2.2-1.3 3.3-2.7 9-3 12-3.8 14.2-3.7 16.5-4 17.8-8 37.5-7.5 37-6.5 32.2-6.5 33.5m382.2-4.2-1-4.5-1.2-4.5-1.5-4.5-1.5-4-1.5-4.3-2-3.7-2-3.8-2-3.5-101.5-127.2-8 3.5-38.3 17.2-5 2 4 11 9.5 26.5 12.5 32.8 6 15.7 5.8 13.8 4.5 10.7 5.7 13.3 6.8 14.5 7.5 15.5 4.2 7.7 4.3 7.8 4.2 7.5 4.5 7.2 4.8 6.8 4.7 6.2 4.8 6 5 5 3 2.8 2.7 2.5 3 2 3 2 3 1.2 2.8 1.3 3 .7 3 .3h3.7l3.8-.3 3.5-.5 3.2-.7 3.3-1 3-1.3 2.7-1.5 2.5-1.7 2.5-1.8 2.3-2.2 2-2.3 2-2.2 1.7-2.5 1.8-2.8 1.2-3 1.5-3 1-3 1-3.2 1-3.3.8-3.5 1-7 .5-7.2v-7.3l-.3-7.5-1-7.5z" stroke-width="14"/><path d="m329.5 469h2.3l2-.2 1.5-.5 1.2-.8 1-1 1-1.2 1.8-2.8 1.7-3.5 3.3-8.2 2-4.5 2-4.5 2-4.5 2-4.5 2.7-5.3 2.3-3.7 2.5-3.8 2.5-3.5 3-3 1.5-1.2 1.7-1 1.5-1 1.8-.5 1.5-.5h3.5l1.7.5 1 .5.8.7.5 1 .2 1 .3 1.5v1.5l-.5 3.5-1 4.5-1.8 5.3-2.2 6-3 6.5-1.5 3.5-1.3 4-1 4.5-1 5-1.7 10.7-1.3 11.3-1 11-.5 10-.7 14v2.2" stroke-width="14"/><path d="m326 533.8-.5-.8-2.5-4.2-2.2-4.8-2-4.7-1.8-4.8-2.5-8-1-3.2v-1.8l.3-2 .5-2.2.5-2.3 2-4.7 2.7-4.8 3-4.7 3.5-4.5 3.8-4.3 2-1.7 2-1.5 2-1.3 1.7-1m29.8-67.2 2.2 1.2 6.5 3.8 9.5 5.7 5.5 3.5 5.8 4 6 4.3 6 4.5 6 4.7 5.7 5 5.3 5.3 4.7 5.2 2.3 2.8 2 2.7 1.7 2.5 1.5 2.8 1.3 2.2 1 3.3 2.7 8.7 3.3 11.8 3.5 14 3.5 16 4 17.5 8 37 7.5 36.7 6.5 32.3 6.7 35.5.3.5" stroke-width="14"/><path d="m214.8 348.5-1.5-.5-1.5-.2h-1.8l-1.7.2-1.5.3-1.3.5-1.2.7-1 1-.8 1-.5 1-.5 1.3-.2 1.2v2.5l.2 2.5.8 2.5.7 2 1.8 4.5 1.2 3.5.8 3.5.2 3v12l.3 1.5.7 1.5 1 1.8 1.5 1.5 1.8 1.5 2.2 1 1 .2h3l1.5-.2m150.8-52.3 2-.5 2.2-.2 2.3.2 1.5.5 1.5.5 1 .8 1 .7.7 1 .5 1 .5 1.3.3 1.2.2 2.5-.2 2.8-.8 2.2-.7 2.3-2 4.2-1.3 3.8-.5 3.2-.2 3-.3 2.8.3 3v3l-.3 3.2-.2 1.5-.5 1.5-1 1.5-1.3 1.5-1.5 1.5-2 1-2.2.5-1.3.3h-1.2l-1.5-.3" stroke-width="7"/><path d="m274.8 440.3 2.2.7 2.3.8 5 1 5.2.5 5.3.2 5-.2 5-.8 4.5-1 4-1.5" stroke-width="12.25"/><path d="m369.8 346v1l.2 9.8v13.2l-.2 4.3-.5 4-.5 4.2-1.5 8.3-2 8-2.3 7.2-2.7 7-3 6.8-3.3 6.7-4 7.3-4.5 7-4.5 6.2-4.7 6-4.8 5.3-4.7 4.5-4.8 4-4.5 3.2-3.2 1.3-2.8 1-3 .7-2.7.3-3 .2h-21.5l-2.8-.2-2.5-.5-2.7-.8-2.8-1-4.7-3-4.8-3.5-4.7-4.2-4.8-5-4.5-5.3-4.5-6-4.5-6.2-4-6.8-3.5-6.2-3-6.5-2.7-7-2.5-7-1.5-4.5-2-8.3-1.5-8.5-.8-4.2-.2-4.5-.3-4.3-.2-4.2.2-17.3v-10.2" stroke-width="14"/><path d="m296.3 417.8 1.5-.3 1-.5 1.5-1 .7-.5.8-.2h1l1.5.2 3 .8 1.5.2 1.2.3 1-.5 1-.8.8-1.2.5-1.8.2-1.5-.2-1.2-.5-1-.5-.8-1.5-1.7-.8-.8-.7-1.2" stroke-width="7"/><path d="m283.3 365.5 1 1.5 1 1.8 1 2 .5 2 .5 2.2.2 2.5.3 4.8-.3 5-.5 5-1 4.5-1 3.7-1.5 3.8-.7 1-.8 1-1.5 1.7-.5.8-.5 1-.2 1.2.2 1.3.5 2 .8 1.2 1 .8 1 .2h1.2l1.5-.2 3-.8 1.3-.2 1.2.2.8.3.7.5 1.3 1 1.2.2 1.3.3h.5-.8.3" stroke-width="7"/><path d="m377.5 344.3 1.8-10.8.7-5.2v-2.8l-.2-2.5-1.3-7.7-1.5-7.8-2.2-7.2-2.5-7-3-6.8-3.3-6.2-3.7-6-4.3-5.5-4.2-5.3-4.8-4.5-5.2-4.2-2.5-1.8-2.8-1.7-2.7-1.5-2.8-1.5-3-1.3-3-1-3-1-3-.7-3-.8-3.2-.5-10.3-.7-5-.3-4.7-.2-4.8.2-4.5.3-4.2.5-4.3.5-4.2.7-4 .8-3.8 1.2-3.7 1-3.8 1.5-3.5 1.5-3.2 1.8-3.3 1.7-1.7 1-4.8 3-1.5 1-3.7 3.3-2.5 2.5-2.8 3-3 3.2-3.2 4-3 4.3-3 5-3 5.2-2.5 5.8-2 6.2-1 3.3-.8 3.5-.7 3.5-.3 3.5-.2 3.7-.3 3.8.8 25.7 1.2-2.2 1.8-2.5 4-5.5 6.7-8.3 6.8-7.5 7-7.7 1.7-1 3-1.3 7.8-3.5 22.2-8.7 12.3-5 11.7-5 5.3-2.3 4.7-2.5 4.3-2.2 3.2-2.3h.3l.7.5 1.8 1.3 2.7 2 3.5 2.7 4.5 4 5 5 5.8 6.3 6.5 7.7 6.7 9 1.8 2 2.5 2.5 3 3.3 3 3.2 3.2 4 2.8 4 1.2 2.3 1.3 2.2.7 2.3.8 2.2.2.8.5 3.2" stroke-width="14"/><path d="m318.3 281.8-2.3-.3-3-.5-1-.5 1.8-2 1.5-2.2 1.5-2.3 1.2-2.5 1.3-2.7.7-2.8.5-3v-3" stroke-width="14"/><path d="m238.8 359.3 1.5-1 1.7-1.3 2.3-1.2 2.7-1.3 3.5-1.2 3.5-.8 2-.2h2l2.3.2 2.5.3 2.5.7 2.5 1 2.2 1 2 1.5 1.8 2 .5 1 .5 1.3" stroke-width="12.25"/><path d="m236.5 337.3 2.3-1.3 2.7-1.5 3.8-1.2 2-.8 2.2-.5 2.5-.2 2.8-.3h2.7l2.8.3 3 .5 3 1 2.2 1 2.3 1 3.5 2 2.2 1.5.8.5" stroke-width="14"/><path d="m348.8 359-1.5-1-1.8-1.2-2.2-1.3-3-1.5-3.3-1-3.7-.7-1.8-.3h-2l-2.2.3-2.5.2-2.5.8-2.5.7-2.3 1.3-2.2 1.5-1.5 2-.8 1-.5 1.2" stroke-width="12.25"/><path d="m349.5 334-2.2-1.2-2.8-1.5-3.7-1.3-2-.7-2.5-.5-2.3-.3-2.7-.2h-2.8l-2.7.2-3 .5-3 1-2.3 1-2.2 1-3.5 2-2.3 1.5-.7.8" stroke-width="14"/><path d="m340.8 362.8v1.2l-.5 1-.5 1.3-.8.7-1 .8-1 .7-1.2.3-1.3.2-1.2-.2-1.3-.3-1-.7-1-.8-.7-.7-.5-1.3-.3-1-.2-1.2.2-1.3.3-1.2.5-1 .7-1 1-.8 1-.5 1.3-.5h2.5l1.2.5 1 .5 1 .8.8 1 .5 1 .5 1.2zm-68.8 1.2-.2 1.3-.3 1.2-.7 1-.8 1-1 .8-1 .5-1 .5h-2.7l-1-.5-1-.5-1-.8-.8-1-.7-1-.3-1.2v-2.5l.3-1 .7-1.3.8-.7 1-.8 1-.7 1-.3 1.5-.2 1.2.2 1 .3 1 .7 1 .8.8.7.7 1.3.3 1z" stroke-width="6.25"/></g></svg>