<svg height="850.394" viewBox="0 0 850.394 850.394" width="850.394" xmlns="http://www.w3.org/2000/svg"><path d="m368 368.249h113.386v113.386h-113.386z" fill="none"/><path d="m660.13 697.3v79.89h-467.09v-79.89h440.96zm-26.13-1.3v1.3h-410.58v-467.59c30.34-89.06 110.48-152.68 204.57-152.68 93.859 0 173.84 63.3 204.34 152.01z" fill="#c8c8c8"/><g fill="none"><g stroke="#231f20"><path d="m634 697.3h26.13v79.89h-467.09v-79.89h30.38z" stroke-width="28"/><path d="m428.92 221.59v205.76m102.44-103.03h-205.76" stroke-width="42"/><path d="m223.42 693.85v-464.14c30.34-89.06 110.48-152.68 204.57-152.68 93.859 0 173.84 63.3 204.34 152.01l1.67 466.96" stroke-width="28"/></g><path d="m0 0h850.394v850.394h-850.394z"/></g></svg>