<svg height="850.394" viewBox="0 0 850.394 850.394" width="850.394" xmlns="http://www.w3.org/2000/svg"><path d="m722.06 195.11c-22.68 5.3-45.609 2.76-69.739 4.12-27.32 1.53-54.551 4.78-81.95 7.1-17.53 1.49-35.08 2.88-52.771 3.62-18.52.79-35.38-3.53-53.609-4.82-15.28-1.07-56.61-2.33-67.01-14.96-6.21-7.56-12.25-14.35-5.06-27.54l2.03-6.62c5.64-11.45 2.34-29.69 9.19-40.87 6.08-9.93 12.37-18.67 20.14-26.7 42.201-43.55 72.56-26.2 114.74-14.53 50.801 14.04 86.12 48.23 139.53 53.39 14.12 1.36 31.3 2.83 45.38 4.73 44.41 6 45.34 18.34 42.88 31.17-2.68 14.06-11.939 19.17-23.729 24.88-6.672 3.22-13.332 5.47-20.022 7.03z" fill="#f6cc4b"/><path d="m624.45 268.83-.021 3.89-2.56-.01-27.76 56.81-286.01-29.7h-.64v-5.16l27.76-51.01zm-32.61 26.47c0-12.48-11.12-22.59-24.859-22.59-13.721 0-24.851 10.11-24.851 22.59s11.13 22.6 24.851 22.6c13.739 0 24.859-10.12 24.859-22.6z" fill="#ffffc2"/><path d="m624.43 272.72-.63 198.83-29.69 35.51v-177.54l27.76-56.81z" fill="#ffffc2"/><path d="m452.21 519.65 23.53-16.94 21.18-15.24 15.11-10.88 82.08-59.06v204.88l-184.07 164.37-.15-.18v-236.5l22.39-16.11z" fill="#ffffc2"/><path d="m312.19 341.8c-1.32.12-2.6.28-3.87.47l-.86-4.36v-38.09h.64l286.01 29.7v88.01l-82.08 59.06-1-1.38 2.149-14.88 3.851-26.69 3.71-25.78 4.04-28.01c4.01-3.89 3.939-8.6.029-11.38-5.22-3.72-12.909-3.87-12.909-3.87l-15.341-1.85-25.8-3.11-24.83-2.99-26.84-3.23-25.9-3.12-27.65-3.34-27.1-3.25-15.92-1.93c-3.459-.34-6.959-.29-10.329.02z" fill="#c8c8c8"/><path d="m566.98 272.71c13.739 0 24.859 10.11 24.859 22.59s-11.12 22.6-24.859 22.6c-13.721 0-24.851-10.12-24.851-22.6s11.131-22.59 24.851-22.59z" fill="#7a7878"/><path d="m524.78 379.85c-.38.38-.8.74-1.261 1.1-2.77 2.15-6.88 4.83-11.939 7.87l-2.29-4.15-19.71-2.36 6.979-19.56 15.341 1.85s7.689.15 12.909 3.87c3.911 2.78 3.981 7.49-.029 11.38z" fill="#c8c8c8"/><path d="m524.78 379.85-4.04 28.01-1.53-.23-17.979 9.47 1.409-23.11c3.21-1.81 6.21-3.55 8.94-5.17 5.06-3.04 9.17-5.72 11.939-7.87.461-.36.881-.72 1.261-1.1z" fill="#c8c8c8"/><path d="m520.74 407.86-3.71 25.78-1.26-.18-16.07 8.67 1.53-25.03 17.98-9.47z" fill="#c8c8c8"/><path d="m517.03 433.64-3.85 26.69-1.28-.18-13.76 7.4 1.56-25.42 16.07-8.67z" fill="#c8c8c8"/><path d="m513.18 460.33-2.15 14.88 1 1.38-15.11 10.88 1.22-19.92 13.76-7.4zm-10.54-66.34c-6.31 3.55-13.449 7.41-20.939 11.34l.069-1.14 7.811-21.88 19.71 2.36 2.29 4.15a471.61 471.61 0 0 1 -8.941 5.17z" fill="#c8c8c8"/><path d="m502.64 393.99-1.409 23.11-20.921 11.01 1.391-22.78c7.489-3.93 14.629-7.79 20.939-11.34z" fill="#c8c8c8"/><path d="m501.23 417.1-1.53 25.03-20.94 11.31 1.55-25.33z" fill="#c8c8c8"/><path d="m499.7 442.13-1.56 25.42-20.93 11.26 1.55-25.37zm-1.56 25.42-1.22 19.92-21.18 15.24 1.47-23.9zm-1.58-104.8-6.98 19.56-24.87-2.99 6.05-19.68z" fill="#c8c8c8"/><path d="m489.58 382.31-7.81 21.88-23.86-2.76 6.8-22.11z" fill="#c8c8c8"/><path d="m458.47 417.29c-1.92.96-3.85 1.93-5.75 2.89l-.359-.72 5.55-18.03 23.859 2.76-.069 1.14c-7.551 3.97-15.451 8.03-23.231 11.96z" fill="#c8c8c8"/><path d="m481.7 405.33-1.391 22.78-23.26 12.239 1.42-23.06a1600.504 1600.504 0 0 0 23.231-11.959zm-1.39 22.78-1.55 25.33-23.27 12.56 1.56-25.65z" fill="#c8c8c8"/><path d="m478.76 453.44-1.55 25.37-23.27 12.51 1.55-25.32zm-3.02 49.27-23.53 16.94 1.73-28.33 23.27-12.51zm-4.98-143.07-6.05 19.68-23.54-2.82 4.76-19.85z" fill="#c8c8c8"/><path d="m464.71 379.32-6.8 22.11-22.08-2.56 5.34-22.37zm-6.24 37.97-1.42 23.06-21.609 11.37 1.449-23.68c2.79-1.37 5.681-2.8 8.62-4.27 2.37-1.18 4.771-2.38 7.21-3.59 1.9-.96 3.83-1.93 5.75-2.89z" fill="#c8c8c8"/><path d="m457.91 401.43-5.55 18.03.359.72c-2.439 1.21-4.84 2.41-7.21 3.59l-1.06-2.73-13.561-1.52 4.94-20.65zm-.86 38.92-1.56 25.65-21.64 11.68 1.59-25.96z" fill="#c8c8c8"/><path d="m455.49 466-1.55 25.32-21.63 11.64 1.54-25.28zm-1.55 25.32-1.73 28.33-19.93 14.34-1.72-2.4 1.75-28.63zm-8.01-134.67-4.76 19.85-25.04-3.01 2.96-20.07zm-9.04 71.39c-2.46 1.21-4.859 2.39-7.159 3.51l-1.101-2.6 2.26-9.43 13.561 1.52 1.06 2.73c-2.941 1.47-5.831 2.9-8.621 4.27z" fill="#c8c8c8"/><path d="m441.17 376.5-5.34 22.37-23.05-2.66 3.35-22.72zm-4.28 51.54-1.449 23.68-24.11 12.7.71-24.28c4.72-2.27 10.8-5.21 17.69-8.59 2.299-1.12 4.699-2.3 7.159-3.51zm-1.06-29.17-4.94 20.65-21.19-2.38 3.08-20.93z" fill="#c8c8c8"/><path d="m435.44 451.72-1.59 25.96-23.28 12.57.76-25.83zm-1.59 25.96-1.54 25.28-22.47 12.09.73-24.8z" fill="#c8c8c8"/><path d="m409.84 515.05 22.47-12.09-1.75 28.63 1.72 2.4-22.39 16.11-20.93-3.32.7-4.42v-16.45zm21.05-95.53-2.26 9.43 1.101 2.6c-6.891 3.38-12.971 6.32-17.69 8.59l.01-.22-5.59-.82 3.24-21.959zm-11.8-66.1-2.96 20.07-25.76-3.09 2.68-18.94.14-1.16z" fill="#c8c8c8"/><path d="m416.13 373.49-3.35 22.72-25.64-2.97 3.23-22.84z" fill="#c8c8c8"/><path d="m412.78 396.21-3.08 20.93-25.54-2.88 2.98-21.02zm-.74 43.93-.71 24.28-21.67 11.4v-27.3l-.08-.52c8.11-1.19 12.13-2.92 12.13-2.92s1.5-.71 4.16-1.98c1.64-.79 3.72-1.78 6.17-2.96zm-.71 24.28-.76 25.83-20.91 11.28v-25.71z" fill="#c8c8c8"/><path d="m410.57 490.25-.73 24.8-20.18 10.86v-24.38z" fill="#c8c8c8"/><path d="m314.35 534.93 27.56 4.37 23.7 3.77 23.35 3.71 20.93 3.32v236.5l.15.18-1.01.9-324.52-59.4v-228.14l.63-1.59 71.59 11.36 24.51 3.89 22.72 3.61 27.59 4.38 25.3 4.02 32.25 5.11z" fill="#ffffc2"/><g fill="#c8c8c8"><path d="m409.7 417.14-3.24 21.96-25.29-3.74 2.99-21.1zm-3.24 21.96-.59 4c-2.66 1.271-4.16 1.98-4.16 1.98s-4.02 1.729-12.13 2.92c-2.8.41-6.08.76-9.85.95l-.12-2.601 1.56-10.989zm-13.27-88.8-.14 1.16-2.68 18.94-26.23-3.15 1.24-18.95.16-1.34z"/><path d="m390.37 370.4-3.23 22.84-24.52-2.84 1.52-23.15zm-.71 155.51v16.45l-.7 4.42-23.35-3.71.38-2.44.48-16.37 20.61 3.03z"/><path d="m389.66 501.53v24.38l-2.58 1.38-20.61-3.03.67-23.39 18.65 2.75z"/><path d="m389.66 475.82v25.71l-3.87 2.09-18.65-2.75.79-27.39 20.44 3.02z"/><path d="m389.66 448.52v27.301l-1.29.68-20.44-3.02.64-22.37.07-2.08c4.08.13 7.78.09 11.09-.08 3.77-.19 7.05-.54 9.85-.95zm-2.52-55.28-2.98 21.02-22.94-2.58 1.4-21.28z"/><path d="m384.16 414.26-2.99 21.1-21.3-3.14 1.35-20.54z"/><path d="m381.17 435.36-1.56 10.989.12 2.601c-3.31.17-7.01.21-11.09.08-3.1-.11-6.4-.32-9.93-.66l.34-3.601.82-12.55z"/><path d="m368.64 449.03-.07 2.08-.64 22.37-24.7-3.631.38-20.239.09-3.101c5.4.73 9.64 1.28 12.39 1.58.88.11 1.76.2 2.62.28 3.53.341 6.83.551 9.93.661zm-.71 24.45-.79 27.39-24.43-3.6.52-27.42z"/><path d="m367.14 500.87-.67 23.39-24.2-3.57.44-23.42z"/><path d="m366.47 524.26-.48 16.37-.38 2.44-23.7-3.77.36-18.61zm-.93-177.3-.16 1.34-1.24 18.95-26.33-3.15.63-20.39zm-1.4 20.29-1.52 23.15-25.53-2.96.72-23.34z"/><path d="m362.62 390.4-1.4 21.28-24.78-2.79.65-21.45zm-1.4 21.28-1.35 20.54-24.04-3.55.61-19.78z"/><path d="m359.87 432.22-.82 12.55-.34 3.601c-.86-.08-1.74-.17-2.62-.28-2.75-.3-6.99-.85-12.39-1.58-2.57-.34-5.4-.729-8.45-1.16l.08-.58.5-16.1z"/><path d="m318.2 442.96c6.2.88 11.94 1.69 17.05 2.39 3.05.431 5.88.82 8.45 1.16l-.09 3.101-.38 20.239-28.23-4.16.2-21.471.27-1.649c.92.13 1.82.26 2.73.39zm25.03 26.89-.52 27.42-27.97-4.12.26-27.46z"/><path d="m342.71 497.27-.44 23.42-27.75-4.09.22-23.45zm-.44 23.42-.36 18.61-27.56-4.37.17-18.33zm-3.83-176.98-.63 20.39-24.47-2.94-1.15-19.36c3.37-.31 6.87-.36 10.33-.02zm-23.73 40.48-1.37-23.03 24.47 2.94-.72 23.34-22.34-2.59zm22.38 3.25-.65 21.45-18.5-2.08-1.89.11-.11-1.93v-.02l-1.19-20.12z"/><path d="m320.77 426.45-3.59-.54-1.13-18.99 1.89-.11 18.5 2.08-.61 19.78zm15.06 2.22-.5 16.1-.08.58c-5.11-.699-10.85-1.51-17.05-2.39l-.94-15.86 3.51-.649z"/><path d="m317.26 427.1.94 15.86c-.91-.13-1.81-.26-2.73-.39-3.88-.561-7.93-1.13-12.11-1.74-.99-.14-2-.29-3-.44l3.34-1.949-.73-8.66z"/><path d="m317.18 425.91.08 1.19-14.29 2.68-1.8-21.22 10.44-3.33 4.33-.24.11 1.93zm-1.71 16.66-.27 1.649-.2 21.471-24.53-3.62.2-20.13.43-2.881c3.14.46 6.23.9 9.26 1.33 1 .15 2.01.301 3 .44 4.18.611 8.23 1.181 12.11 1.741zm-.47 23.12-.26 27.46-24.55-3.62.28-27.46zm-.26 27.46-.22 23.45-24.58-3.62.11-10.01.14-13.44zm-.22 23.45-.17 18.33-25.25-4.01.71-4.5.13-13.44z"/><path d="m302.97 429.78.73 8.66-3.34 1.949c-3.03-.43-6.12-.87-9.26-1.33-1.58-.229-3.18-.46-4.79-.699l-.21-5.41zm-1.8-21.22 1.8 21.22-16.87 3.17-.71-19.35z"/><path d="m286.31 438.36c1.61.239 3.21.47 4.79.699l-.43 2.881-.2 20.13-9.65-1.42-.48-23.16c2 .29 3.99.59 5.97.87z"/><path d="m290.47 462.07-.28 27.46-8.79-1.29-.58-27.59zm-.42 40.9-.11 10.011-33.55-4.94-1.02-23.64 26.03 3.84.14 6.67c-4.32.149-7.77 3.7-7.77 8.06 0 4.46 3.62 8.07 8.08 8.07 4.45 0 8.06-3.61 8.06-8.07h.14z"/><path d="m289.94 512.98-.13 13.44-.71 4.5-32.25-5.11.25-1.54-.71-16.23zm-8.4-18.07c.1-.01.2-.01.31-.01 4.45 0 8.06 3.609 8.06 8.069s-3.61 8.07-8.06 8.07c-4.46 0-8.08-3.61-8.08-8.07 0-4.359 3.45-7.909 7.77-8.059zm-.72-34.26.58 27.59-26.03-3.84-1.19-27.67z"/><path d="m280.34 437.49.48 23.16-26.64-3.92-.96-22.261.14-.93c1.47.21 2.94.43 4.41.65 7.58 1.111 15.15 2.231 22.57 3.301z"/><path d="m280.27 434.04.07 3.45c-7.42-1.07-14.99-2.19-22.57-3.3l.07-.49.23-11.38 21.8-6.96z"/><path d="m258.07 422.32-.23 11.38-.07.49c-1.47-.221-2.94-.44-4.41-.65-5.51-.81-10.99-1.62-16.39-2.41l.31-2.18zm-1.68 85.72.71 16.23-.25 1.54-25.3-4.02.15-.97-.7-16.53zm-1.02-23.64 1.02 23.64-25.39-3.75-1.02-23.63z"/><path d="m254.18 456.73 1.19 27.67-25.39-3.74-1.18-27.67z"/><path d="m253.22 434.47.96 22.261-25.38-3.74-.93-21.771 2.91-1.01c2.04.3 4.11.61 6.18.92h.01c5.4.79 10.88 1.601 16.39 2.41zm-22.22 69.82.7 16.53-.15.97-27.59-4.38.2-1.31-.69-15.86 11.58 1.7zm-1.02-23.63 1.02 23.63-15.95-2.35.58-3.9c.39.06.8.09 1.22.09 4.46 0 8.07-3.61 8.07-8.07s-3.61-8.079-8.07-8.079c-.1 0-.2 0-.31.01l-.06-3.32zm.8-50.45-2.91 1.01-.04-.989.06-.45c.96.139 1.92.289 2.89.429z"/><path d="m228.8 452.99 1.18 27.67-13.5-1.99-.58-27.58z"/><path d="m227.87 431.22.93 21.77-12.9-1.9-.33-15.58z"/></g><path d="m214.22 370.57c-.63.1-1.28.15-1.94.15l-123.84-25.08c-6.93 0-12.54-5.62-12.54-12.55a12.527 12.527 0 0 1 12.54-12.53l123.84 25.08c6.93 0 12.54 5.61 12.54 12.54 0 1.94-.44 3.79-1.24 5.44-1.76 3.64-5.23 6.31-9.36 6.95z" fill="#7a7878"/><path d="m216.54 481.99c.11-.01.21-.01.31-.01 4.46 0 8.07 3.619 8.07 8.079s-3.61 8.07-8.07 8.07c-.42 0-.83-.03-1.22-.09-3.88-.6-6.84-3.94-6.84-7.98 0-4.359 3.44-7.909 7.75-8.069z" fill="#c8c8c8"/><path d="m216.48 478.67.06 3.32c-4.31.16-7.75 3.71-7.75 8.069 0 4.04 2.96 7.381 6.84 7.98l-.58 3.9-11.58-1.7-1.03-23.641z" fill="#c8c8c8"/><path d="m215.9 451.09.58 27.58-14.04-2.07-1.21-27.67z" fill="#c8c8c8"/><path d="m215.57 435.51.33 15.58-14.67-2.16-.36-8.28zm-12.1 64.73.69 15.86-.2 1.31-22.72-3.61.11-.72-.71-16.21z" fill="#c8c8c8"/><path d="m202.44 476.6 1.03 23.64-22.83-3.37-1.04-23.63z" fill="#c8c8c8"/><path d="m201.23 448.93 1.21 27.67-22.84-3.36-1.09-24.79 5.78-2.02zm-.36-8.28.36 8.28-16.94-2.5z" fill="#c8c8c8"/><path d="m184.29 446.43-5.78 2.02-.13-2.89zm-3.65 50.44.71 16.21-.11.72-24.51-3.89.15-.98-.9-15.69zm-1.04-23.63 1.04 23.63-24.66-3.63-1.35-23.69z" fill="#c8c8c8"/><path d="m178.51 448.45 1.09 24.79-24.97-3.69-.72-12.51z" fill="#c8c8c8"/><path d="m155.98 493.24.9 15.69-.15.98-71.59-11.36 3.9-9.73 58.28-29.48 6.59-2.3.72 12.51z" fill="#c8c8c8"/><path d="m153.86 456.03.05 1.01-6.59 2.3z" fill="#c8c8c8"/><path d="m85.14 498.55-.63 1.59v-1.69z" fill="#ffffc2"/><g fill="none" stroke="#231f20"><path d="m156.73 509.91-71.59-11.36-.63-.1v229.83l324.52 59.4 1.01-.9 184.07-164.37v-204.88l-82.08 59.06-15.11 10.88-21.18 15.24-23.53 16.94-19.93 14.34-22.39 16.11-20.93-3.32-23.35-3.71-23.7-3.77-27.56-4.37-25.25-4.01-32.25-5.11-25.3-4.02-27.59-4.38-22.72-3.61z" stroke-width="11.07"/><path d="m307.46 337.91v-43.25l27.76-51.01 289.23 25.18-.02 3.89-.63 198.83-29.69 35.51" stroke-width="11.07"/><path d="m308.1 299.82 286.01 29.7 27.76-56.81m-27.76 56.81v86.29" stroke-width="11.07"/><path d="m591.84 295.3c0 12.48-11.12 22.6-24.859 22.6-13.721 0-24.851-10.12-24.851-22.6s11.13-22.59 24.851-22.59c13.739 0 24.859 10.11 24.859 22.59z" stroke-width="10.33"/><path d="m409.89 550.1v236.5m-4.02-343.5c-2.66 1.271-4.16 1.98-4.16 1.98s-4.02 1.729-12.13 2.92c-2.8.41-6.08.76-9.85.95-3.31.17-7.01.21-11.09.08-3.1-.11-6.4-.32-9.93-.66-.86-.08-1.74-.17-2.62-.28-2.75-.3-6.99-.85-12.39-1.58-2.57-.34-5.4-.729-8.45-1.16-5.11-.699-10.85-1.51-17.05-2.39-.91-.13-1.81-.26-2.73-.39-3.88-.561-7.93-1.13-12.11-1.74-.99-.14-2-.29-3-.44-3.03-.43-6.12-.87-9.26-1.33-1.58-.229-3.18-.46-4.79-.699-1.98-.28-3.97-.58-5.97-.87-7.42-1.07-14.99-2.19-22.57-3.3-1.47-.221-2.94-.44-4.41-.65-5.51-.81-10.99-1.62-16.39-2.41h-.01c-2.07-.31-4.14-.62-6.18-.92-.97-.14-1.93-.29-2.89-.43-4.25-.63-8.42-1.25-12.48-1.851l-13.13-1.939c-.51-.08-1.01-.15-1.51-.23-.09-.01-.19-.03-.28-.04h-.02l-.56-.09v-.01c-8.28-1.22-15.76-2.34-22.06-3.28h-.01l-10.21-1.52c-.57-.1-1.13-.18-1.66-.26-.08-.01-.17-.03-.25-.04h-.01c-5.39-.8-8.46-1.26-8.46-1.26s-2.67-.6-5.54-1.87c-2.38-1.06-4.91-2.58-6.09-4.59-1.93-3.29.49-8.49 8.62-12.05 4.33-1.89 11.54-4.85 20.41-8.42.59-.24 1.19-.48 1.8-.72.99-.4 2-.8 3.02-1.21h.01c6.45-2.59 13.57-5.42 21.01-8.35h.01a7175.456 7175.456 0 0 1 35-13.72c1.17-.48 2.35-.93 3.52-1.39 7.87-3.06 15.34-5.96 21.95-8.54 6.36-2.47 11.92-4.62 16.26-6.3l1.79-.69c5.17-2 8.2-3.17 8.2-3.17s3.36-1.52 8.58-3.11c3.49-1.08 7.82-2.18 12.52-2.86 1.27-.19 2.55-.35 3.87-.47 3.37-.31 6.87-.36 10.33-.02l15.92 1.93 27.1 3.25 27.65 3.34 25.9 3.12 26.84 3.23 24.83 2.99 25.8 3.11 15.341 1.85s7.689.15 12.909 3.87c3.91 2.78 3.98 7.49-.029 11.38-.38.38-.8.74-1.261 1.1-2.77 2.15-6.88 4.83-11.939 7.87-2.73 1.62-5.73 3.36-8.94 5.17-6.31 3.55-13.449 7.41-20.939 11.34-7.55 3.97-15.45 8.03-23.23 11.96-1.92.96-3.85 1.93-5.75 2.89-2.439 1.21-4.84 2.41-7.21 3.59-2.939 1.47-5.83 2.9-8.62 4.27-2.46 1.21-4.859 2.39-7.159 3.51-6.891 3.38-12.971 6.32-17.69 8.59-2.453 1.179-4.533 2.169-6.173 2.959" stroke-width="11.07"/><path d="m151.65 417.53 1.41 24.64.8 13.86.05 1.01.72 12.51 1.35 23.69.9 15.69m232.78-60.41v93.84m135.15-162.7-.03.19-4.04 28.01-3.71 25.78-3.85 26.69-2.15 14.88" stroke-width="10.33"/><path d="m312.19 341.78v.02l1.15 19.36 1.37 23.03.04.66 1.19 20.12v.02l.11 1.93 1.13 18.99.08 1.19.94 15.86.02.4m-238.87 50.36 9.69-4.9 58.28-29.48 6.54-3.31 1.24-.62m59.12-84.84c-.63.1-1.28.15-1.94.15l-123.84-25.08c-6.93 0-12.54-5.62-12.54-12.55a12.527 12.527 0 0 1 12.54-12.53l123.84 25.08c6.93 0 12.54 5.61 12.54 12.54 0 1.94-.44 3.79-1.24 5.44-1.76 3.64-5.23 6.31-9.36 6.95zm10.6-6.84 14.2 3.21 21.35 4.84 14.19 3.21 4.49 1.01.43 20.19.34 16.9.05 2.27.4 18.68.07 3.45.48 23.16.58 27.59.14 6.67.09 4.4" stroke-width="11.07"/><path d="m289.91 502.97c0 4.46-3.61 8.07-8.06 8.07-4.46 0-8.08-3.61-8.08-8.07 0-4.359 3.45-7.91 7.77-8.06.1-.01.2-.01.31-.01 4.45 0 8.06 3.61 8.06 8.07zm-75.75-134.93.06 2.53.12 6.03.46 22.02.41 19.44.2 9.87.16 7.58.33 15.58.58 27.58.06 3.32.1 4.41" stroke-width="11.07"/><path d="m216.54 481.99c.11-.01.21-.01.31-.01 4.46 0 8.07 3.619 8.07 8.079s-3.61 8.07-8.07 8.07c-.42 0-.83-.03-1.22-.09-3.88-.6-6.84-3.94-6.84-7.98 0-4.359 3.44-7.909 7.75-8.069z" stroke-width="11.07"/><g stroke-width="5.535"><path d="m154.66 442.07 23.72 3.49 5.91.87 16.94 2.5 14.67 2.16 12.9 1.9 25.38 3.74 26.64 3.92 9.65 1.42 24.53 3.62 28.23 4.16 24.7 3.63 20.44 3.02 1.29-.68 21.67-11.4 24.11-12.7 21.61-11.37 23.26-12.24 20.92-11.01 17.98-9.47"/><path d="m152.08 469.18 2.55.37 24.97 3.69 22.84 3.36 14.04 2.07 13.5 1.99 25.39 3.74 26.03 3.84 8.79 1.29 24.55 3.62 27.97 4.12 24.43 3.6 18.65 2.75 3.87-2.09 20.91-11.28 23.28-12.57 21.64-11.68 23.27-12.56 20.94-11.31 16.07-8.67"/><path d="m153.37 492.86 2.61.38 24.66 3.63 22.83 3.37 11.58 1.7 15.95 2.35 25.39 3.75 33.55 4.94 24.58 3.62 27.75 4.09 24.2 3.57 20.61 3.03 2.58-1.38 20.18-10.86 22.47-12.09 21.63-11.64 23.27-12.51 20.93-11.26 13.76-7.4"/><path d="m177.47 424.86.91 20.7.13 2.89 1.09 24.79 1.04 23.63.71 16.21m18.94-85.99.58 13.56.36 8.28 1.21 27.67 1.03 23.64.69 15.86m23.67-85.87.04.99.93 21.77 1.18 27.67 1.02 23.63.7 16.53m21.52-86.35.96 22.26 1.19 27.67 1.02 23.64.71 16.23m33.57-82.33-.2 20.13-.28 27.46-.14 13.44-.11 10.01-.13 13.44m25.39-82.2-.2 21.47-.26 27.46-.22 23.45-.17 18.33v.54m29.26-85.86-.38 20.24-.52 27.42-.44 23.42-.36 18.61-.02 1.33m26.68-89.52-.64 22.37-.79 27.39-.67 23.39-.48 16.37m46.06-100.71-.01.22-.71 24.28-.76 25.83-.73 24.8-.81 27.3m27.98-116.21-.12 1.9-1.45 23.68-1.59 25.96-1.54 25.28-1.75 28.63m27.97-115.34-.06 1.04-1.42 23.06-1.56 25.65-1.55 25.32-1.73 28.33-.13 2.04m29.69-117.5-.07 1.14-1.39 22.78-1.55 25.33-1.55 25.37-1.47 23.9-.42-1.76m27.55-110.53-.23 3.57-1.41 23.11-1.53 25.03-1.56 25.42-1.22 19.92-.51 1.28"/></g><path d="m311.61 360.95 1.73.21 24.47 2.94 26.33 3.15 26.23 3.15 25.76 3.09 25.04 3.01 23.54 2.82 24.87 2.99 19.71 2.36m-196.1 0 .07.01 1.49.17 22.34 2.59 25.53 2.96 24.52 2.84 25.64 2.97 23.05 2.66 22.08 2.56 23.86 2.76m-163.83 2.62 18.5 2.08 24.78 2.79 22.94 2.58 25.54 2.88 21.19 2.38 13.56 1.52m-128.1 4.75.83.12 3.59.54 15.06 2.22 24.04 3.55 21.3 3.14 25.29 3.74 5.59.82" stroke-width="5.165"/><path d="m338.49 341.97-.05 1.74-.63 20.39-.72 23.34-.65 21.45-.61 19.78-.5 16.1m30.05-96.47-1.24 18.95-1.52 23.15-1.4 21.28-1.35 20.54-.82 12.55m34-93.31-2.68 18.94-3.23 22.84-2.98 21.02-2.99 21.1-1.56 10.99m39.54-93.31-.06.38-2.96 20.07-3.35 22.72-3.08 20.93-3.24 21.96-.59 4m40.16-86.89-.1.44-4.76 19.85-5.34 22.37-4.94 20.65-2.26 9.43m42.7-71.16-.57 1.85-6.05 19.68-6.8 22.11-5.55 18.03m44.27-56.93-.07.22-6.98 19.56-7.81 21.88m-315.65 13.69.3-.12 13.93-5.51 20.23-8 14.22-5.63 21.46-8.48 23.7-9.38 14.6-5.77 9.26-3.67 13.73-5.43 12.48-4.94m-109.74 62.18.91-.31 14.01-4.76 21.59-7.36 22.14-7.53 20.54-6.98 5.2-1.78 14.86-5.06 13.72-4.67 1.45-.49 3.23-1.1m-80.66 45.86 20.79-6.63 21.8-6.96 5.52-1.76 15.78-5.04 10.44-3.33m-37.95 30.05 6.61-1.24 5.83-1.09 16.87-3.17 14.29-2.68 3.51-.65 3.49-.66m-143.91-33.21v26.88" stroke-width="5.165"/><path d="m200.91 383.09-.33 21.16-.29 18.88m35.41-54.27.56 21.28.54 20.56.46 17.25.02 1m23.72-71.16-.03.61-.6 13.38-.41 8.98-1.02 22.41-.79 17.49-.08 1.66-.23 11.38m25.3-80.66.68 18.28.86 23.09.62 16.77.09 2.42.71 19.35.21 5.41v.08m9.49-93.3 1.75 20.75 1.99 23.46 1.4 16.37.23 2.84 1.8 21.22.73 8.66" stroke-width="5.165"/><path d="m684.75 165c4.5-3.4 9.95-5.37 13.65.96 2.59 4.43.13 6.66 6.55 6.83 4.51.12 13.93 1.5 18.41 7.57 1.83 2.48.31 10.36-1.301 14.75-.159.43-.319.82-.479 1.18m-268.97 6.8c2.949-13.27-13.051-14.58-11.79-22.18.83-5.04 2.27-9.86 6.939-9.86 8.19 0 11.311-12.41 6.471-18.27m96.01-32.52c1.54-4.54 4.51-10.7 10.14-10.96 4.561-.22 7.061 4.84 11.26 4.89 5.79.07 5.53-5.61 8.63-8.53 3.671-3.45 9.561-4.24 12.99-.82" stroke-width="16.036"/><path d="m393.95 156.01c5.64-11.45 2.34-29.69 9.19-40.87 6.08-9.93 12.37-18.67 20.14-26.7 42.201-43.55 72.56-26.2 114.74-14.53 50.801 14.04 86.12 48.23 139.53 53.39 14.12 1.36 31.3 2.83 45.38 4.73 44.41 6 45.34 18.34 42.88 31.17-2.68 14.06-11.939 19.17-23.729 24.88-6.67 3.22-13.33 5.47-20.021 7.03-22.68 5.3-45.609 2.76-69.739 4.12-27.32 1.53-54.551 4.78-81.95 7.1-17.53 1.49-35.08 2.88-52.771 3.62-18.52.79-35.38-3.53-53.609-4.82-15.28-1.07-56.61-2.33-67.01-14.96-6.21-7.56-12.25-14.35-5.06-27.54z" stroke-width="16.036"/></g><path d="m0 0h850.394v850.394h-850.394z" fill="none"/></svg>