<svg height="850.394" viewBox="0 0 850.394 850.394" width="850.394" xmlns="http://www.w3.org/2000/svg"><path d="m536.71 160.49c8.83 0 15.99 7.15 15.99 15.98s-7.16 15.99-15.99 15.99-15.979-7.16-15.979-15.99c-.001-8.83 7.149-15.98 15.979-15.98z" fill="#ff001c"/><path d="m679.51 547.17v28.92l-75.21 6.58v-35.61c24.8-11.6 43.42-34.199 49.59-61.51l25.62-2.17zm-492.22-315.16h1.59l422.96-31.85v172.24c-1-.93-2.02-1.83-3.06-2.72-14.62-29.84-45.29-50.38-80.74-50.38-49.63 0-89.86 40.23-89.86 89.86 0 27.47 12.33 52.06 31.75 68.55l.011.01a88.662 88.662 0 0 0 11.56 17.87c.53 1.49 1.09 2.96 1.7 4.41l-32.12 2.72c.34-3.16.51-6.38.51-9.63 0-21.83-7.79-41.85-20.74-57.42l.021-.01c-5.35-15.11-14.63-28.37-26.61-38.54-14.61-29.84-45.28-50.38-80.74-50.38-49.63 0-89.86 40.23-89.86 89.859 0 3.841.24 7.62.72 11.33l-47.09-77.39v-138.529zm0 138.53 47.09 77.39c2.86 22.851 14.31 43.021 31.01 57.2 3.09 6.3 6.89 12.18 11.3 17.54v86.74l-89.4-154.69zm167.2 232.73.11 1.261-76.84 6.729-1.07-1.85v-86.74c.1.13.21.25.31.38 11.57 32.72 41.55 56.74 77.49 59.61z" fill="#c8c8c8"/><path d="m604.3 547.06v35.61l-249.7 21.86-.11-1.261v-20.609c2.39.189 4.81.29 7.25.29 46.37 0 84.54-35.141 89.34-80.23l32.12-2.72c13.49 32.58 45.59 55.5 83.05 55.5 13.6 0 26.5-3.02 38.05-8.44z" fill="#c8c8c8"/><path d="m187.29 454.72 89.4 154.69 1.07 1.85 76.84-6.73 249.7-21.86 75.21-6.58v-28.92l52.89 52.9-120.56 11.16-362.85 33.6-61.7-119.24z" fill="#c8c8c8"/><g fill="#fff"><path d="m603.87 489.78 50.02-4.23c-6.17 27.311-24.79 49.91-49.59 61.51v-52.23z"/><path d="m485.25 499.82 118.62-10.04.43 5.05v52.229c-11.55 5.421-24.45 8.44-38.05 8.44-37.46 0-69.56-22.92-83.05-55.5z"/><path d="m656.11 465.65c0 6.84-.761 13.5-2.221 19.899l-50.02 4.23-118.62 10.04c-1.3-1.37-2.55-2.78-3.75-4.23-3.31-9.359-5.11-19.439-5.11-29.939 0-49.641 40.23-89.871 89.86-89.871 27.79 0 52.64 12.62 69.12 32.44 12.951 15.571 20.741 35.591 20.741 57.431z"/><path d="m611.84 372.4c10.5 9.77 18.66 22.01 23.54 35.81l-.01.01c-16.48-19.82-41.33-32.44-69.12-32.44-49.63 0-89.86 40.23-89.86 89.871 0 10.5 1.801 20.58 5.11 29.939a88.705 88.705 0 0 1 -11.56-17.87l-.011-.01c-5.85-11.92-9.13-25.33-9.13-39.51 0-49.62 40.22-89.85 89.86-89.85 22.16 0 42.46 8.03 58.12 21.33 1.041.89 2.061 1.79 3.061 2.72z"/><path d="m469.93 477.71c-19.42-16.49-31.75-41.08-31.75-68.55 0-49.63 40.23-89.86 89.86-89.86 35.45 0 66.12 20.54 80.74 50.38-15.66-13.3-35.96-21.33-58.12-21.33-49.641 0-89.86 40.23-89.86 89.85 0 14.18 3.28 27.59 9.13 39.51zm-65.67-80.59c-15.67-13.3-35.95-21.33-58.12-21.33-49.63 0-89.86 40.23-89.86 89.86 0 8.06 1.06 15.88 3.06 23.31l-24.96-41.03c-.48-3.71-.72-7.489-.72-11.33 0-49.629 40.23-89.859 89.86-89.859 35.46-.001 66.13 20.539 80.74 50.379z"/><path d="m404.26 397.12c11.98 10.17 21.26 23.43 26.61 38.54l-.021.01c-16.479-19.82-41.32-32.44-69.109-32.44-49.63 0-89.86 40.23-89.86 89.86 0 6.96.79 13.74 2.29 20.25l-14.83-24.38c-2-7.43-3.06-15.25-3.06-23.31 0-49.63 40.23-89.86 89.86-89.86 22.17 0 42.45 8.03 58.12 21.33zm-49.77 113.77 96.59-8.17c-4.8 45.09-42.97 80.23-89.34 80.23-2.44 0-4.86-.101-7.25-.29z"/><path d="m277 523.05c-.11-.29-.21-.59-.31-.88v-4.689l77.8-6.591v71.771c-35.94-2.871-65.92-26.891-77.49-59.611z"/><path d="m354.49 510.89-77.8 6.591-2.52-4.141a90.11 90.11 0 0 1 -2.29-20.25c0-49.63 40.23-89.86 89.86-89.86 27.79 0 52.63 12.62 69.109 32.44 12.95 15.57 20.74 35.59 20.74 57.42 0 3.25-.17 6.47-.51 9.63zm-167.2 14.7 61.7 119.24 362.85-33.6v119.92l-424.66 47.76-2.47-6.87 2.58-.93zm0-355.51 424.55-31.97v62.05l-422.96 31.85h-1.59zm365.41 6.39c0-8.83-7.16-15.98-15.99-15.98s-15.979 7.15-15.979 15.98 7.149 15.99 15.979 15.99 15.99-7.16 15.99-15.99z"/><path d="m187.29 170.08-64.89-75.13 359.97-24.17 129.47 67.33zm0 355.51v245.52l-2.58.93-62.31-173.57v-503.52l64.89 75.13v284.64z"/></g><g fill="none" stroke="#231f20"><path d="m611.84 377.88v-239.77l-129.47-67.33-359.97 24.17v503.52l62.31 173.57 2.47 6.87 424.66-47.76v-119.91" stroke-width="21"/><path d="m122.4 94.95 64.89 75.13 424.55-31.97m-422.96 93.9 422.96-31.85 1.59-.12m-426.14-29.96v601.03m0-245.52 61.7 119.24 362.85-33.6 120.56-11.16-52.89-52.9-30.56-30.56" stroke-width="21"/><path d="m552.7 176.47c0 8.83-7.16 15.99-15.99 15.99s-15.979-7.16-15.979-15.99 7.149-15.98 15.979-15.98 15.99 7.15 15.99 15.98z" stroke-width="14"/><g stroke-width="21"><path d="m441.62 421.22c.5 1.41.96 2.84 1.39 4.28m-12.16 10.17c12.95 15.57 20.74 35.59 20.74 57.42 0 3.25-.17 6.47-.51 9.63-4.8 45.09-42.97 80.23-89.34 80.23-2.44 0-4.86-.101-7.25-.29-35.94-2.87-65.92-26.891-77.49-59.61-.11-.29-.21-.59-.31-.88a90.2 90.2 0 0 1 -2.52-8.83 90.11 90.11 0 0 1 -2.29-20.25c0-49.63 40.23-89.86 89.86-89.86 27.79 0 52.63 12.62 69.11 32.44z"/><path d="m282.61 529.2a90.881 90.881 0 0 1 -5.61-6.15c-.1-.13-.21-.25-.31-.38a89.949 89.949 0 0 1 -11.3-17.54 88.827 88.827 0 0 1 -6.05-16.17c-2-7.43-3.06-15.25-3.06-23.31 0-49.63 40.23-89.86 89.86-89.86 22.17 0 42.45 8.03 58.12 21.33 11.98 10.17 21.26 23.43 26.61 38.54"/><path d="m265.43 505.16c-.01-.01-.03-.021-.04-.03-16.7-14.18-28.15-34.35-31.01-57.2-.48-3.71-.72-7.489-.72-11.33 0-49.629 40.23-89.859 89.86-89.859 35.46 0 66.13 20.54 80.74 50.38.49 1.01.97 2.03 1.43 3.06m229.68 8.039c12.95 15.57 20.74 35.589 20.74 57.43 0 6.84-.761 13.5-2.221 19.899-6.17 27.311-24.79 49.91-49.59 61.51-11.55 5.421-24.45 8.44-38.05 8.44-37.46 0-69.56-22.92-83.05-55.5-.61-1.45-1.17-2.92-1.7-4.41-3.31-9.359-5.11-19.439-5.11-29.939 0-49.641 40.23-89.871 89.86-89.871 27.791.001 52.641 12.621 69.121 32.441z"/><path d="m469.93 477.71c-5.85-11.92-9.13-25.33-9.13-39.51 0-49.62 40.22-89.85 89.86-89.85 22.16 0 42.46 8.03 58.12 21.33 1.04.89 2.06 1.79 3.06 2.72 10.5 9.77 18.66 22.01 23.54 35.81m-148.26 93.54c-.63-.63-1.26-1.28-1.87-1.93-1.3-1.37-2.55-2.78-3.75-4.23a88.705 88.705 0 0 1 -11.56-17.87"/><path d="m469.94 477.72-.011-.01c-19.42-16.49-31.75-41.08-31.75-68.55 0-49.63 40.23-89.86 89.86-89.86 35.45 0 66.12 20.54 80.74 50.38.489 1 .96 2.02 1.42 3.05"/><path d="m187.29 370.54 47.09 77.39 24.96 41.03 14.83 24.38 2.52 4.14 77.8-6.59 96.59-8.17 32.12-2.72 2.05-.18 118.62-10.04 50.02-4.23 25.62-2.17v92.71l-75.21 6.58-249.7 21.86-76.84 6.73-1.07-1.85-89.4-154.69m89.4 62.76v93.78m77.8-101.77v93.78m249.81-108.44v93.78"/></g></g><path d="m0 0h850.394v850.394h-850.394z" fill="none"/></svg>