<svg height="850" viewBox="0 0 850 850" width="850" xmlns="http://www.w3.org/2000/svg"><path d="m740.8 719.8 10.3-9.8 8-7.2.2.2 4 46-675 10v-4l4.3-1 4.5-1.2 4.7-2 5-2.3 5.3-3 5.2-3.7 5.5-4.5 5.5-5 4.5-4.5 5.5-5.3 5-4.5 4-3.5 3.8-2.7 3-2.3 2.5-1.7 2-1 1.7-.8 1.3-.2h1.5l.5.5.5.5v.5l-.3 1.5-.7 4.2-.3 2.8-.2 3 .2 3.5.3 3.7 1 3.5 1.2 3.8 1 1.7 1 2 1 1.5 1.5 1.8 1.5 1.7 1.8 1.5 2 1.3 2.2 1.2 2.3 1.3 2.7 1 2.8 1 3.2.7-1.2-.2 1.7.5 4.5.5 3 .2h7.5l4.3-.5 4.5-.7 5-1.3 5-1.7 5.2-2 5.3-2.8 5.5-3.5 2.7-2 2.8-2.2 2.7-2.3 2.8-2.7 6.2-6 5.5-5.3 4.8-4.2 4-3.5 3.5-2.5 3-2 2.2-1.5 2-.8 1.5-.5 1-.2.8.2.5.3.5.5v.2l.2.5-.5 1.5-.7 4-.3 3v6.5l.5 3.5.8 3.8 1.5 3.7.7 1.8 1 1.7 1.3 1.8 1.2 1.7 1.8 1.5 1.7 1.5 1.8 1.5 2.2 1.3 2.5 1.2 2.5 1 3 1 3 .8 1.5.2 4 .8 2.8.2 3.5.3h3.7l4.3-.5 4.7-.5 5-1 5.3-1.8 5.7-2 5.8-2.7 6-3.3 3-2 3-2.2 3-2.5 3-2.5 12.5-10.8 9.2-7.2 6.3-4.8 2.5-1.2 1.7-1 1.3-.8 1-.2h.7l.5.2v.3l.3.2v.3l-.5 1.5-.8 4.2-.2 2.8v6.5l.5 3.7.7 3.8 1.5 3.5.8 2 1 1.7 1.2 1.8 1.3 1.5 1.7 1.7 1.8 1.5 1.7 1.3 2.3 1.5 2.5 1 2.5 1.2 3 .8 3 .7h-1.3l2 .3 4.5.5 3 .2 3.5.3 3.8-.3 4.2-.5 4.8-.7 4.7-1.3 5-1.5 5.3-2.2 5.5-2.8 5.5-3.5 2.5-2 2.7-2.2 2.8-2.3 2.7-2.5 6.3-6.2 5.5-5.3 4.7-4.2 4.3-3.3 3.5-2.7 2.7-2 2.5-1.3 1.8-1 1.5-.5h2l.5.3.2.5.3.2v.5l-.3 1.5-.7 4.3-.3 2.7-.2 3 .2 3.5.3 3.8 1 3.5 1.2 3.7 1 1.8 1 2 1 1.5 1.5 1.7 1.5 1.5 1.8 1.8 2 1.2 2.2 1.3 2.3 1.2 2.7 1 2.8 1 3.2.8 1.5.5 4.3.7 3 .5 3.5.3h4l4.5-.3 4.7-.7 5-1 5.5-1.5 5.5-2.3 2.8-1.5 3-1.5 3-1.7 2.7-1.8 3-2.2 3-2.3 3-2.7 3-2.8 6.3-6.2 5.5-5 4.7-4.3 4.3-3.5 3.2-2.5 3-2 2.3-1.5 2-.7 1.5-.5 1-.3 1 .3.5.2.2.3.3.5v.5l-.5 1.5-.8 4-.2 2.7v6.8l.5 3.5.7 3.7 1.5 3.8.8 1.7 1 1.8 1.2 1.7 1.5 1.8 1.5 1.5 1.8 1.5 2 1.5 2 1.2 2.5 1.3 2.5 1 3 1 3 .7-1.3-.2 2 .2 4.5.8 3 .2h3.5l3.8-.2 4.5-.5 4.5-.8 4.7-1 5.3-1.7 5.2-2.3 5.3-2.7 5.5-3.5 2.7-2 2.8-2 2.5-2.5z" fill="#a9d7f3"/><path d="m346.6 557.5v34.3h-258.3v-34.3z" fill="#c8c8c8"/><path d="m132.8 600.5v127.3l-4.5 4.5-5.5 5-5.5 4.5-5.2 3.7-5.3 3-5 2.3-4.7 2-4.5 1.2-4.3 1v-154.5z" fill="#7a7878"/><path d="m336.8 293.3-4.5 4-4.7 4.2-10 8-11 8.3-11 8.2-21.8 15.8-9.5 7.2-8.5 7-14.7 12.5-7.8 6.8-8 7.5-8.2 8.2-4 4.5-4.3 5-4.2 5-4 5.5-4.3 5.8-4.2 6.2-8 12-7.8 10.8-4 4.7-3.5 4.5-3.7 4.3-3.5 3.7-3.5 3.3-3.5 3-3.3 2.5-3.2 2-3.3 1.5-3.2 1.2-3 .8-3 .2h-2.8l-2.2-.5-1.8-.7-1.2-.8-1-1-.5-1.2-.3-1.3-.2-1.2.2-1.3.3-1.2.7-2.3 1-2.2 4.3-5.5 4-5.3 2-3 2-3.2-.3-.3 2.5-1.5 2.8-1.5 5.2-3.7 5.8-4.5 5.7-5.3 6.3-6.2 6.2-6.8 6.8-7.7 6.7-8.3 4.8-5.5 4.7-5.5 4.8-5 4.7-4.5 4.5-4.2 4.8-4.3 9-7.2 8.7-6.5 8.5-6 15.8-11 6.5-4.3 7.5-4.5 18-10 10.2-6 11.3-6.7 12.2-7.8z" fill="#ffeec8"/><path d="m448.3 101.3 4 .2 4 .5 4 1 3.8 1.3 4 1.7 3.7 2.3 3.5 2.7 3.5 3 3.3 3.5 3.2 4 3 4.3 2.8 4.7 2.5 5.3 2.2 5.7 2 6 1.8 6.8-3 12.7-1.3 3.8-1.7 4-2.5 5.2-3 5.8-3.8 6-2.2 3.2-2.3 2.8-2.7 3-2.8 2.7-2.2 2-2.8 2-2.7 1.5-2.8 1.3-2.7 1-2.5.7-2.5.3-2.5.2-2.3.3-4-.3-3-.7-2.7-.8-14.8 11.8-18.7 14.7-22.5 18.3-13 10.7-12.5 10-12 8.8-11.3 8-13 8.7-12.2 7.8-11.3 6.7-10.2 6-18 10-7.5 4.5-6.5 4.3-15.8 11-8.5 6-8.7 6.5-9 7.2-4.8 4.3-4.5 4.2-4.7 4.5-4.8 5-4.7 5.5-4.8 5.5-6.7 8.3-6.8 7.7-6.2 6.8-6.3 6.2-5.7 5.3-5.8 4.5-5.2 3.7-2.8 1.5-2.5 1.5-3.7 1.5-3.5 1-3.5.5h-3.3l-2.7-.5-2.3-.5-1.5-1-1.2-1-.8-1-.5-1.2-.2-1.3v-1.2l.2-1.3.5-1.2 1-2.3 1.3-2 2.2-2.5 2.8-2.7 3-3.8 3.5-4.7 3.7-5.5 1.8-3.3 1.7-3.2 1.5-3.3 1.5-3.7 5.3-13.8 2.5-5.7 2.5-5 1.2-2 1.5-1.8 1.5-1.5 1.5-1.2 1.5-1 2-.5h1.8l2 .2 2.2.3 2 .2 2 .3 2-.3 2-.5 2.3-.7 2.2-1 2.3-1.5 2.5-2 2.5-2.3 2.7-2.7 3-3.5 3.3-4 3.5-4.5 3.7-5.3 4-5.7 4.3-6.3 4.7-6 5-6 5.3-6 5.5-5.5 5.5-5.5 5.5-5.2 5.5-4.8 5.5-4.7 5-4.3 5-3.7 4.7-3.5 4.3-3 4-2.5 3.5-1.8 2.7-1.5 3-1.5 3.3-1.5 4.2-2.2 4.8-3 4.7-3.5 2.3-2 2.5-2 2.2-2.3 2-2.5 7.8-9.7 6.7-8.5 6.5-8.5 10.8-15.3 11.7-16 14.3-19 7.7-9.7 7.8-9.8 8-9.5 7.5-8.7 7.5-8 7-6.8 3.2-3 3.3-2.5 2.7-2 2.8-1.7 2.7-1.3 2.5-1.2 2.5-1 2.8-.8 2.7-.7 2.5-.5 2.8-.3zm277.8 404.5.5 2.2.2 2.3v3.7l-.2 1.8-.5 1.5-.5 1.5-.5 1.2-.8 1.3-.7 1-2 1.7-2.3 1.3-2.5.7-2.5.5-2.7.3-2.8-.3-2.7-.2-2.5-.8-2.5-.7-2.3-1-1.7-1.3-1.8-1.5-1.5-1.7-1.5-2.3-1.5-2.7-2.5-5.5-2.5-6-1.7-5.8-1.5-4.7-1.3-4.8-.7-2-1.3-4.2-3.7-13.5-10-38.5-14-54.8-1.3-1.5-1-1.5-1-2-1-2-1.7-4.5-1.3-4.7-2.2-9.8-1-4.2-1-3.8-2.5-9.5-2.5-9.5-2.5-9.7-1.5-4.8-1.5-4.7-3-7-1.5-3.5-1.8-3.5-2.7-5-2.5-4.8-2-5-1-2.5-.8-2.5-.5-2.5-.2-2.5v-2.5l.2-2.7.5-2.5.8-2.8 1.2-2.7 1.5-3 1.5-2 1.8-2 1.7-1.5 2-1.3 2.3-1 2.2-.7 2.3-.5h4.5l2.5.2 2.2.5 2.3.8 2.2 1 2.3 1.2 2 1.5 1.7 1.8 2.8 3 2.5 3.2 2.5 3.3 2 3.5 2 3.7 1.7 3.8 3.3 7.5 2.7 8.2 2 6.5 1.8 6.5 1.5 6.8 1.2 6.5 1.3 6.7.7 7 .5 6.8.5 6.7 4.8 27.3 5.7 31 6.5 33.5 3.3 15.5 3 13.2 2.7 10.5 1.3 3.8 1 2.7 1.5 2.8 1.2 2.2 1.3 2 1.2 1.5 2.3 2.5 2.2 2.3 2 2.5.8 1.7 1 2.3 1 2.5 1 3 1 3.7z" fill="#ffeec8"/><path d="m705.3 287.3 3.8 3.5 3.5 3.7 3 4 2.7 4 2.3 4.3 1.7 4.2 1.5 4.3 1.3 4.2.5 4.3.2 4.2-.2 4-.5 4.3-1 3.7-1.8 3.8-1.7 3.5-2.5 3.2-1.3 1.3-1.5 1.2-3.2 2.3-3.5 1.7-4 1.8-4.3 1.2-4.2 1-4 .8-3.8.2-3.2.3-4.8-27.3-.5-6.7-.5-6.8-.7-7-1.3-6.7-1.2-6.5-1.5-6.8-1.8-6.5-2-6.5-2.7-8.2 1.5-.5 3.5.5 4 .7 4.2 1 4.3 1.3 4.2 1.7 4 1.8 4 2.2 4 2.5z" fill="#0d72ba"/><path d="m580.6 289.5-1.8-.5-1.7-.5-3.3-1.2-3-2-2.5-2-2.2-2.5-2-3-1.8-3-1.7-3.3-3.3-6.7-3.5-7-1.7-3.5-2.3-3.3-2.2-3.2-2.8-3-3.2-2.8-4-3.2-4.5-3.3-5-3.2-11.3-6.5-11.2-6.3-10.8-5.5-9-4.5-8.2-4h-5.5l2.2-2 2.8-2.7 2.7-3 2.3-2.8 2.2-3.2 3.8-6 3-5.8 2.5-5.2 1.7-4 1.3-3.8 3-12.7-1.8-6.8-2-6-2.2-5.7-2.5-5.3-2.8-4.7-3-4.3-3.2-4-3.3-3.5-3.5-3-3.5-2.7-3.7-2.3-4-1.7-3.8-1.3-4-1-4-.5-4-.2 4.5-2 2.8-1.3 3.2-1 3.8-1 4.2-1 4.5-.5h9.8l5.5.8 5.5 1.2 6 1.8 6.2 2.5 3.3 1.5 3.2 1.7 3.3 2 3.2 2 3.5 2.5 3.3 2.5 30.5 24 24.5 18.8 17.5 13.7 6.2 5 4.3 4 2.2 1.8 3.3 2.2 8.7 5.3 5 3.5 5.8 3.7 5.7 4.5 5.8 5 3 2.8 2.7 3 2.8 3 2.7 3.2 2.5 3.5 2.5 3.5 2.5 3.8 2 4 2 4.2 1.8 4.3 1.7 4.7 1.3 4.8 1 5 .7 5.2.5 5.5.3 5.8-.5 2.5-3.5-.5-1.5.5-3.3-7.5-1.7-3.8-2-3.7-2-3.5-2.5-3.3-2.5-3.2-2.8-3-1.7-1.8-2-1.5-2.3-1.2-2.2-1-2.3-.8-2.2-.5-2.5-.2h-4.5l-2.3.5-2.2.7-2.3 1-2 1.3-1.7 1.5-1.8 2-1.5 2-1.5 3-1.2 2.7-.8 2.8-.5 2.5-.2 2.7v2.5l.2 2.5.5 2.5.8 2.5 1 2.5 2 5 2.5 4.8 2.7 5 1.8 3.5 1.5 3.5 3 7-2.8-1-3.5-1.5-5-1.8-6.5-2-8.5-2.2-10.2-2z" fill="#a9d7f3"/><g fill="none" stroke="#231f20" stroke-linecap="round" stroke-miterlimit="10" stroke-width="21"><path d="m688.3 362 3.8-.2 4-.8 4.2-1 4.3-1.2 4-1.8 3.5-1.7 3.2-2.3 1.5-1.2 1.3-1.3 2.5-3.2 1.7-3.5 1.8-3.8 1-3.7.5-4.3.2-4-.2-4.2-.5-4.3-1.3-4.2-1.5-4.3-1.7-4.2-2.3-4.3-2.7-4-3-4-3.5-3.7-3.8-3.5-3.5-2.8-4-2.5-4-2.2-4-1.8-4.2-1.7-4.3-1.3-4.2-1-4-.7-3.5-.5m-534 204.7h-2.8l-2.2-.5-1.8-.7-1.2-.8-1-1-.5-1.2-.3-1.3-.2-1.2.2-1.3.3-1.2.7-2.3 1-2.2 4.3-5.5 4-5.3 2-3 2-3.2m196.7-153.5-4.5 4-4.7 4.2-10 8-11 8.3-11 8.2-21.8 15.8-9.5 7.2-8.5 7-14.7 12.5-7.8 6.8-8 7.5-8.2 8.2-4 4.5-4.3 5-4.2 5-4 5.5-4.3 5.8-4.2 6.2-8 12-7.8 10.8-4 4.7-3.5 4.5-3.7 4.3-3.5 3.7-3.5 3.3-3.5 3-3.3 2.5-3.2 2-3.3 1.5-3.2 1.2-3 .8-3 .2"/><path d="m125.8 449.5-2.7-.5-2.3-.5-1.5-1-1.2-1-.8-1-.5-1.2-.2-1.3v-1.2l.2-1.3.5-1.2 1-2.3 1.3-2 2.2-2.5 2.8-2.7 3-3.8 3.5-4.7 3.7-5.5 1.8-3.3 1.7-3.2 1.5-3.3 1.5-3.7 5.3-13.8 2.5-5.7 2.5-5 1.2-2 1.5-1.8 1.5-1.5 1.5-1.2 1.5-1 2-.5h1.8l2 .2 2.2.3 2 .2 2 .3 2-.3 2-.5 2.3-.7 2.2-1 2.3-1.5 2.5-2 2.5-2.3 2.7-2.7 3-3.5 3.3-4 3.5-4.5 3.7-5.3 4-5.7 4.3-6.3 4.7-6 5-6 5.3-6 5.5-5.5 5.5-5.5 5.5-5.2 5.5-4.8 5.5-4.7 5-4.3 5-3.7 4.7-3.5 4.3-3 4-2.5 3.5-1.8 2.7-1.5 3-1.5 3.3-1.5 4.2-2.2 4.8-3 4.7-3.5 2.3-2 2.5-2 2.2-2.3 2-2.5 7.8-9.7 6.7-8.5 6.5-8.5 10.8-15.3 11.7-16 14.3-19 7.7-9.7 7.8-9.8 8-9.5 7.5-8.7 7.5-8 7-6.8 3.2-3 3.3-2.5 2.7-2 2.8-1.7 2.7-1.3 2.5-1.2 2.5-1 2.8-.8 2.7-.7 2.5-.5 2.8-.3 2.7-.2 4 .2 4 .5 4 1 3.8 1.3 4 1.7 3.7 2.3 3.5 2.7 3.5 3 3.3 3.5 3.2 4 3 4.3 2.8 4.7 2.5 5.3 2.2 5.7 2 6 1.8 6.8-3 12.7-1.3 3.8-1.7 4-2.5 5.2-3 5.8-3.8 6-2.2 3.2-2.3 2.8-2.7 3-2.8 2.7-2.2 2-2.8 2-2.7 1.5-2.8 1.3-2.7 1-2.5.7-2.5.3-2.5.2-2.3.3-4-.3-3-.7-2.7-.8-14.8 11.8-18.7 14.7-22.5 18.3-13 10.7-12.5 10-12 8.8-11.3 8-13 8.7-12.2 7.8-11.3 6.7-10.2 6-18 10-7.5 4.5-6.5 4.3-15.8 11-8.5 6-8.7 6.5-9 7.2-4.8 4.3-4.5 4.2-4.7 4.5-4.8 5-4.7 5.5-4.8 5.5-6.7 8.3-6.8 7.7-6.2 6.8-6.3 6.2-5.7 5.3-5.8 4.5-5.2 3.7-2.8 1.5-2.5 1.5-3.7 1.5-3.5 1-3.5.5zm559.3-87.2 5.7 31 6.5 33.5 3.3 15.5 3 13.2 2.7 10.5 1.3 3.8 1 2.7 1.5 2.8 1.2 2.2 1.3 2 1.2 1.5 2.3 2.5 2.2 2.3 2 2.5.8 1.7 1 2.3 1 2.5 1 3 1 3.7 1 4.3.5 2.2.2 2.3v3.7l-.2 1.8-.5 1.5-.5 1.5-.5 1.2-.8 1.3-.7 1-2 1.7-2.3 1.3-2.5.7-2.5.5-2.7.3-2.8-.3-2.7-.2-2.5-.8-2.5-.7-2.3-1-1.7-1.3-1.8-1.5-1.5-1.7-1.5-2.3-1.5-2.7-2.5-5.5-2.5-6-1.7-5.8-1.5-4.7-1.3-4.8-.7-2-1.3-4.2-3.7-13.5-10-38.5-14-54.8-1.3-1.5-1-1.5-1-2-1-2-1.7-4.5-1.3-4.7-2.2-9.8-1-4.2-1-3.8-2.5-9.5-2.5-9.5-2.5-9.7-1.5-4.8-1.5-4.7-3-7-1.5-3.5-1.8-3.5-2.7-5-2.5-4.8-2-5-1-2.5-.8-2.5-.5-2.5-.2-2.5v-2.5l.2-2.7.5-2.5.8-2.8 1.2-2.7 1.5-3 1.5-2 1.8-2 1.7-1.5 2-1.3 2.3-1 2.2-.7 2.3-.5h4.5l2.5.2 2.2.5 2.3.8 2.2 1 2.3 1.2 2 1.5 1.7 1.8 2.8 3 2.5 3.2 2.5 3.3 2 3.5 2 3.7 1.7 3.8 3.3 7.5 2.7 8.2 2 6.5 1.8 6.5 1.5 6.8 1.2 6.5 1.3 6.7.7 7 .5 6.8.5 6.7z"/><path d="m445.1 103.3.7-.5 2.5-1.5 4.5-2 2.8-1.3 3.2-1 3.8-1 4.2-1 4.5-.5h9.8l5.5.8 5.5 1.2 6 1.8 6.2 2.5 3.3 1.5 3.2 1.7 3.3 2 3.2 2 3.5 2.5 3.3 2.5 30.5 24 24.5 18.8 17.5 13.7 6.2 5 4.3 4 2.2 1.8 3.3 2.2 8.7 5.3 5 3.5 5.8 3.7 5.7 4.5 5.8 5 3 2.8 2.7 3 2.8 3 2.7 3.2 2.5 3.5 2.5 3.5 2.5 3.8 2 4 2 4.2 1.8 4.3 1.7 4.7 1.3 4.8 1 5 .7 5.2.5 5.5.3 5.8m-196-65.3 8.2 4 9 4.5 10.8 5.5 11.2 6.3 11.3 6.5 5 3.2 4.5 3.3 4 3.2 3.2 2.8 2.8 3 2.2 3.2 2.3 3.3 1.7 3.5 3.5 7 3.3 6.7 1.7 3.3 1.8 3 2 3 2.2 2.5 2.5 2 3 2 3.3 1.2 1.7.5 1.8.5 12.5 2.3 10.2 2 8.5 2.2 6.5 2 5 1.8 3.5 1.5 2.8 1m-283 289.5h-258.3v-34.3h258.3zm-267.5 164.2 4.2-.2 5-.8 4.3-1 4.5-1.2 4.7-2 5-2.3 5.3-3 5.2-3.7 5.5-4.5 5.5-5 4.5-4.5 5.5-5.3 5-4.5 4-3.5 3.8-2.7 3-2.3 2.5-1.7 2-1 1.7-.8 1.3-.2h1.5l.5.5.5.5v.5l-.3 1.5-.7 4.2-.3 2.8-.2 3 .2 3.5.3 3.7 1 3.5 1.2 3.8 1 1.7 1 2 1 1.5 1.5 1.8 1.5 1.7 1.8 1.5 2 1.3 2.2 1.2 2.3 1.3 2.7 1 2.8 1 3.2.7-1.5-.2h.3l1.7.5 4.5.5 3 .2h7.5l4.3-.5 4.5-.7 5-1.3 5-1.7 5.2-2 5.3-2.8 5.5-3.5 2.7-2 2.8-2.2 2.7-2.3 2.8-2.7 6.2-6 5.5-5.3 4.8-4.2 4-3.5 3.5-2.5 3-2 2.2-1.5 2-.8 1.5-.5 1-.2.8.2.5.3.5.5v.2l.2.5-.5 1.5-.7 4-.3 3v6.5l.5 3.5.8 3.8 1.5 3.7.7 1.8 1 1.7 1.3 1.8 1.2 1.7 1.8 1.5 1.7 1.5 1.8 1.5 2.2 1.3 2.5 1.2 2.5 1 3 1 3 .8 1.5.2 4 .8 2.8.2 3.5.3h3.7l4.3-.5 4.7-.5 5-1 5.3-1.8 5.7-2 5.8-2.7 6-3.3 3-2 3-2.2 3-2.5 3-2.5 12.5-10.8 9.2-7.2 6.3-4.8 2.5-1.2 1.7-1 1.3-.8 1-.2h.7l.5.2v.3l.3.2v.3l-.5 1.5-.8 4.2-.2 2.8v6.5l.5 3.7.7 3.8 1.5 3.5.8 2 1 1.7 1.2 1.8 1.3 1.5 1.7 1.7 1.8 1.5 1.7 1.3 2.3 1.5 2.5 1 2.5 1.2 3 .8 3 .7-1.3-.2v.2l2 .3 4.5.5 3 .2 3.5.3 3.8-.3 4.2-.5 4.8-.7 4.7-1.3 5-1.5 5.3-2.2 5.5-2.8 5.5-3.5 2.5-2 2.7-2.2 2.8-2.3 2.7-2.5 6.3-6.2 5.5-5.3 4.7-4.2 4.3-3.3 3.5-2.7 2.7-2 2.5-1.3 1.8-1 1.5-.5h2l.5.3.2.5.3.2v.5l-.3 1.5-.7 4.3-.3 2.7-.2 3 .2 3.5.3 3.8 1 3.5 1.2 3.7 1 1.8 1 2 1 1.5 1.5 1.7 1.5 1.5 1.8 1.8 2 1.2 2.2 1.3 2.3 1.2 2.7 1 2.8 1 3.2.8 1.5.5 4.3.7 3 .5 3.5.3h4l4.5-.3 4.7-.7 5-1 5.5-1.5 5.5-2.3 2.8-1.5 3-1.5 3-1.7 2.7-1.8 3-2.2 3-2.3 3-2.7 3-2.8 6.3-6.2 5.5-5 4.7-4.3 4.3-3.5 3.2-2.5 3-2 2.3-1.5 2-.7 1.5-.5 1-.3 1 .3.5.2.2.3.3.5v.5l-.5 1.5-.8 4-.2 2.7v6.8l.5 3.5.7 3.7 1.5 3.8.8 1.7 1 1.8 1.2 1.7 1.5 1.8 1.5 1.5 1.8 1.5 2 1.5 2 1.2 2.5 1.3 2.5 1 3 1 3 .7-1.3-.2 2 .2 4.5.8 3 .2h3.5l3.8-.2 4.5-.5 4.5-.8 4.7-1 5.3-1.7 5.2-2.3 5.3-2.7 5.5-3.5 2.7-2 2.8-2 2.5-2.5 2.7-2.5 10.3-9.8 8-7.2 3.7-3 3.3-2.5"/><path d="m88.3 757v-156.5h44.5v127.3"/></g></svg>