<svg height="850.394" viewBox="0 0 850.394 850.394" width="850.394" xmlns="http://www.w3.org/2000/svg"><path d="m391.97 477.8v98.92l-2.49.65-.16-.63-321.89-124.85v-88.37l134.27 47.28zm379.89-91.42v92.2h-2.04l-377.85 98.14v-98.92z" fill="#ee947d"/><g fill="#ffeec8"><path d="m396.83 370.17 175.13-35.94 199.9 47.2v4.95l-379.89 91.42-190.27-67 .22-.64z"/><path d="m571.96 334.23-175.13 35.94-132.75-38.23-.23-1.38 171-28.7z"/><path d="m264.08 331.94 132.75 38.23-194.91 39.99-.22.64-134.27-47.28 196.42-32.96z"/></g><path d="m434.85 210.19v91.67l-171 28.7-196.42 32.96v-94.46z" fill="#ee947d"/><g fill="none" stroke="#231f20"><path d="m67.43 234.01v309.3" stroke-linecap="round" stroke-linejoin="round" stroke-width="21"/><path d="m434.85 182.76v119.1" stroke-linecap="round" stroke-linejoin="round" stroke-width="25.719"/><path d="m67.43 269.06 367.42-58.87m-367.42 153.33 196.42-32.96 171-28.7 137.11 32.37 199.9 47.2 10.38 2.45-10.38 2.5-379.89 91.42-190.27-67zm702.39 115.06-377.85 98.14-2.49.65-4.02 1.04m3.86-1.67-321.89-124.85m324.54 25.91v187.4m379.89-285.92v187.4" stroke-width="21"/><path d="m201.92 410.16 194.91-39.99 175.13-35.94.74-.15" stroke-width="21"/><path d="m264.08 331.94 132.75 38.23 1.2.34" stroke-width="19.289"/></g><path d="m0 0h850.394v850.394h-850.394z" fill="none"/></svg>