<svg height="850" viewBox="0 0 850 850" width="850" xmlns="http://www.w3.org/2000/svg"><path d="m382.8 256.4v270.7h-55.5v-270.7zm27.2 368.7-55 95.3-55-95.3-55-95.2h220z" fill="#231f20"/><path d="m355 720.4 55-95.3 55-95.3h-220l55 95.3zm.8-516.8h7.3l7.5.3 7.3.5 7.3.8 7.3.8 7 1 7 1.3 7 1.3 7 1.5 7 1.8 6.8 1.8 6.8 2 6.8 2.3 6.5 2.3 6.8 2.5 6.3 2.8 6.5 2.8 6.3 3 6.3 3 6 3.3 6.3 3.3 5.8 3.5 6 3.8 5.8 3.8 5.8 4 5.5 4 5.5 4.3 5.3 4.3 5.3 4.5 5.3 4.5 5 4.8 4.8 4.8 5 5 4.5 5 4.8 5 4.3 5.3 4.5 5.5 4 5.5 4 5.5 4 5.8 3.8 5.8 3.8 5.8 3.5 6 3.5 6 3 6 3.3 6.3 3 6.5 2.8 6.3 2.5 6.5 2.5 6.5 2.5 6.8 2 6.5 2 6.8 2 7 1.5 6.8 1.5 7 1.5 7 1.3 7 1 7.3.8 7.3.5 7.3.5 7.3.3 7.3.3 7.5-.3 7.3-.3 7.5-.5 7.3-.5 7.3-.8 7.3-1 7-1.3 7.3-1.5 7-1.5 6.8-1.5 7-2 6.8-2 6.8-2 6.8-2.5 6.8-2.5 6.5-2.5 6.5-2.8 6.3-3 6.3-3.3 6.3-3 6.3-3.5 6-3.5 6-3.8 5.8-3.8 5.8-4 5.8-4 5.5-4 5.5-4.5 5.3-4.3 5.3-4.8 5.3-4.5 5-5 4.8-4.8 5-5 4.5-5.3 4.8-5.3 4.3-5.3 4.5-5.5 4-5.5 4.3-5.8 3.8-5.8 3.8-6 3.8-5.8 3.5-6.3 3.5-6 3.3-6.3 3-6.3 3-6.5 2.8-6.3 2.5-6.8 2.5-6.5 2.5-6.8 2-6.8 2-6.8 2-7 1.8-7 1.5-7 1.3-7 1.3-7 1-7.3.8-7.3.8-7.3.3-7.5.3-7.3.3-7.5-.3-7.3-.3-7.3-.3-7.3-.8-7.3-.8-7.3-1-7-1.3-7-1.3-7-1.5-7-1.8-6.8-2-6.8-2-6.8-2-6.5-2.5-6.5-2.5-6.5-2.5-6.5-2.8-6.3-3-6.3-3-6-3.3-6-3.5-6-3.5-6-3.8-5.8-3.8-5.5-3.8-5.5-4.3-5.5-4-5.5-4.5-5.3-4.3-5-4.8-5-4.5-5-5-4.8-4.8-4.8-5-4.5-5.3-4.5-5.3-4.3-5.3-4.3-5.5-4-5.5-4-5.8-3.8-5.8-3.8-5.8-3.5-6-3.3-6-3.3-6.3-3-6.3-3-6.3-2.8-6.3-2.8-6.5-2.5-6.5-2.3-6.8-2.3-6.8-2-6.8-1.8-6.8-1.8-7-1.5-6.8-1.5-7-1-7.3-1-7-.8-7.3-.8-7.3-.5-7.3-.3-7.5v-14.8l.3-7.3.5-7.3.8-7.3.8-7.3 1-7.3 1-7 1.5-7 1.5-7 1.8-6.8 1.8-7 2-6.8 2.3-6.5 2.3-6.8 2.5-6.5 2.8-6.5 2.8-6.3 3-6.5 3-6.3 3.3-6 3.3-6 3.5-6 3.8-5.8 3.8-5.8 4-5.8 4-5.5 4.3-5.5 4.3-5.5 4.5-5.3 4.5-5 4.8-5 4.8-5 5-4.8 5-4.8 5-4.5 5.3-4.5 5.5-4.3 5.5-4.3 5.5-4 5.5-4 5.8-3.8 6-3.8 6-3.5 6-3.3 6-3.3 6.3-3 6.3-3 6.5-2.8 6.5-2.8 6.5-2.5 6.5-2.3 6.8-2.3 6.8-2 6.8-1.8 7-1.8 7-1.5 7-1.3 7-1.3 7.3-1 7.3-.8 7.3-.8 7.3-.5 7.3-.3h7.5zm27 323.5v-270.7h-55.5v270.8z" fill="#ed1d31"/><path d="m642 489.9-.2 7.2-.3 7.5-.5 7.3-.5 7.2-.7 7.3-1 7-1.3 7.2-1.5 7-1.5 6.8-1.5 7-2 6.7-2 6.8-2 6.7-2.5 6.8-2.5 6.5-2.5 6.5-2.7 6.2-3 6.3-3.3 6.2-3 6.3-3.5 6-3.5 6-3.7 5.7-3.8 5.8-4 5.7-4 5.5-4 5.5-4.5 5.3-4.2 5.2-4.8 5.3-4.5 5-5 4.7-4.7 5-5 4.5-5.3 4.8-5.2 4.2-5.3 4.5-5.5 4-5.5 4.3-5.7 3.7-5.8 3.8-6 3.7-5.7 3.5-6.3 3.5-6 3.3-6.2 3-6.3 3-6.5 2.7-6.2 2.5-6.8 2.5-6.5 2.5-6.7 2-6.8 2-6.7 2-7 1.8-7 1.5-7 1.2-7 1.3-7 1-7.3.7-7.2.8-7.3.2-7.5.3-7.2.2-7.5-.2-7.3-.3-7.2-.2-7.3-.8-7.2-.7-7.3-1-7-1.3-7-1.2-7-1.5-7-1.8-6.7-2-6.8-2-6.7-2-6.5-2.5-6.5-2.5-6.5-2.5-6.5-2.7-6.3-3-6.2-3-6-3.3-6-3.5-6-3.5-6-3.7-5.8-3.8-5.5-3.7-5.5-4.3-5.5-4-5.5-4.5-5.2-4.2-5-4.8-5-4.5-5-5-4.8-4.7-4.7-5-4.5-5.3-4.5-5.2-4.3-5.3-4.2-5.5-4-5.5-4-5.7-3.8-5.8-3.7-5.7-3.5-6-3.3-6-3.2-6.3-3-6.2-3-6.3-2.8-6.2-2.7-6.5-2.5-6.5-2.3-6.8-2.2-6.7-2-6.8-1.8-6.7-1.7-7-1.5-6.8-1.5-7-1-7.2-1-7-.8-7.3-.7-7.2-.5-7.3-.3-7.5v-14.7l.3-7.3.5-7.2.7-7.3.8-7.2 1-7.3 1-7 1.5-7 1.5-7 1.7-6.7 1.8-7 2-6.8 2.2-6.5 2.3-6.7 2.5-6.5 2.7-6.5 2.8-6.3 3-6.5 3-6.2 3.2-6 3.3-6 3.5-6 3.7-5.8 3.8-5.7 4-5.8 4-5.5 4.2-5.5 4.3-5.5 4.5-5.2 4.5-5 4.7-5 4.8-5 5-4.8 5-4.7 5-4.5 5.2-4.5 5.5-4.3 5.5-4.2 5.5-4 5.5-4 5.8-3.8 6-3.7 6-3.5 6-3.3 6-3.2 6.2-3 6.3-3 6.5-2.8 6.5-2.7 6.5-2.5 6.5-2.3 6.7-2.2 6.8-2 6.7-1.8 7-1.7 7-1.5 7-1.3 7-1.2 7.3-1 7.2-.8 7.3-.7 7.2-.5 7.3-.3h14.7l7.5.3 7.3.5 7.2.7 7.3.8 7 1 7 1.2 7 1.3 7 1.5 7 1.7 6.7 1.8 6.8 2 6.7 2.2 6.5 2.3 6.8 2.5 6.2 2.7 6.5 2.8 6.3 3 6.2 3 6 3.2 6.3 3.3 5.7 3.5 6 3.7 5.8 3.8 5.7 4 5.5 4 5.5 4.2 5.3 4.3 5.2 4.5 5.3 4.5 5 4.7 4.7 4.8 5 5 4.5 5 4.8 5 4.2 5.2 4.5 5.5 4 5.5 4 5.5 4 5.8 3.8 5.7 3.7 5.8 3.5 6 3.5 6 3 6 3.3 6.2 3 6.5 2.7 6.3 2.5 6.5 2.5 6.5 2.5 6.7 2 6.5 2 6.8 2 7 1.5 6.7 1.5 7 1.5 7 1.3 7 1 7.3.7 7.2.5 7.3.5 7.2.3 7.3z" fill="none" stroke="#231f20" stroke-linecap="round" stroke-miterlimit="10" stroke-width="35"/><path d="m355 720.4-55-95.3-55-95.2h220l-55 95.2zm27.8-193.3h-55.5v-270.7h55.5z" fill="none" stroke="#231f20" stroke-linecap="round" stroke-miterlimit="10" stroke-width="28.25"/><path d="m793.5 234.1.5 1v3.3l-.2 2-.8 2-1.2 3-.8 1.2-68 15.5-49.7 11.3-19 4-10.8 2h-2.2l-1.3-.3-1-.5-2-1.2-1.7-1.3-1.3-1.5-1.2-1.5-.8-1.2-14-18.3v-13l.5 1.3.3.5 3 4.5 7 10 4 5.2 3.7 4.5 1.8 1.8 1.5 1.2 1.2.8 1 .2 12.3-2.2 19.7-4.3 50.3-11.2 67-15.5 1-.8.7-1z" fill="#787878"/><path d="m635.8 252.4 6.7 9 42-9.5 14.8-3.3 13-2.7 13-3 14.7-3.3-8.2-8.5-15.3-15.5 13.3-2.5 7.5 7 7.7 7.5 7.5 7.3 18-4.5 16.5-4 4.3 3.2 1.5 1.3.7 1.2.3 1-.3 1-.5 1.5-.7 1-1 .8-67 15.5-50.3 11.2-19.7 4.3-12.3 2.2-1-.2-1.2-.8-1.5-1.2-1.8-1.8-3.7-4.5-4-5.2-7-10-3-4.5-.3-.5-.5-1.3-.2-1.2.2-1.5.3-.8.5-.7.5-.8 1-.7 1.2-.8 1.8-.5 4.5-1.2 5.7-1.3 15.8-3 .7.8 6 8-15 3-12.5 2.7h-.2z" fill="#787878"/><path d="m787 226.4-16.5 4-8.2-6.8 15.5-3.5z" fill="#787878"/><path d="m777.8 220.1-15.5 3.5-8.8-7.2 13.8-3 6.2 3.7zm-7.3 10.3-18 4.5-7.5-7.3 17.3-4z" fill="#787878"/><path d="m767.3 213.4-13.8 3-7.5-6.3 3.3-.5 2.2-.2h4.3l2.2.5 4 1 3.5 1.2z" fill="#787878"/><path d="m715.3 117.9.3-3.3.3 1.5.5 1.5 1 1.8 1.5 1.5 1 .8 1 .8 1.5.5 1.5.5 1.5.3 2 .3h38.5v71.8l-55.8 2.8 1.3-.5 1-.8.5-.8.8-1 .8-1.8v-.5l.5-28.8zm43.7 69.2v-8l-34.8 1.5v7.8zm-8-46.5-.3-1.5-.3-1.5-.8-1.3-.8-1-1-1-1.3-.5-1.3-.5-1.5-.3-1.3.3-1.3.5-1.3.5-1 1-.8 1-.8 1.3-.5 1.5v3l.5 1.3.8 1.3.8 1.3 1 .8 1.3.8 1.3.5h2.8l1.3-.5 1.3-.8 1-.8.8-1.3.8-1.3.3-1.3z" fill="#c8c8c8"/><path d="m765.8 102.1v21.8h-38.5l-2-.3-1.5-.2-1.5-.5-1.5-.5-1-.8-1-.7-1.5-1.5-1-1.8-.5-1.5-.3-1.5.5-46-.2-1.5-.3-1.2-.5-1.3-.7-.7-.8-.8-.7-.7-1.8-.8 54.8 4.3v8.7l-43-1.7v10l43 1.5v8l-43-1.8v10z" fill="#c8c8c8"/><path d="m765.8 92.4v9.7l-43-1.5v-10zm0-17.8v9.8l-43-1.5v-10zm-3.5 149-17.3 4-7.7-7.5h.2l16-3.7zm-3.3-44.5v8l-34.7 1.3v-7.8z" fill="#787878"/><path d="m746 210.1 7.5 6.3-16 3.7h-.2l-7.5-7zm-2-77 1.5.3 1.3.5 1.2.5 1 1 .8 1 .7 1.2.3 1.5.2 1.5-.2 1.5-.3 1.3-.7 1.2-.8 1.3-1 .7-1.2.8-1.3.5h-2.7l-1.3-.5-1.2-.8-1-.7-.8-1.3-.7-1.2-.5-1.3v-3l.5-1.5.7-1.2.8-1 1-1 1.2-.5 1.3-.5zm-12.2 98 8.2 8.5-14.7 3.3v-.3l-6.5-8.5z" fill="#787878"/><path d="m712.3 225.4-5.8-7.8v-.2l10-1.8 15.3 15.5-13 3zm13 17.2v.3l-13 3-6.8-9 13.3-2.8z" fill="#787878"/><path d="m718.8 234.1-13.3 2.8-6.5-8.8 13.3-2.7z" fill="#787878"/><path d="m711 61.6 1.8.8.7.7.8.8.7.7.5 1.3.3 1.2.2 1.5-.5 46-.2 3.3h-1.8l-2 .2-2 .3-2.2.7-1 .5-.8.5-.7.8-.5.7-.5 1v1.3l.2 32.5.8 1.2.7 1.3 1.3 1.5 1.5 1.5 2 1.2 2 1 1.2.3h1.3l-.5 28.7v.5l-.8 1.8-.7 1-.5.7-1 .8-1.3.5-1.2.2-3.3-.5-5.5-1.5-15.7-4.2-24.8-7.5 15.8-2.5v-92.8l-16-.7v-16l49.2-11.8h.8z" fill="#c8c8c8"/><path d="m715.3 117.9-.5 46.5h-1.3l-1.2-.3-2-1-2-1.2-1.5-1.5-1.3-1.5-.7-1.3-.8-1.2-.2-32.5v-1.3l.5-1 .5-.7.7-.8.8-.5 1-.5 2.2-.7 2-.3 2-.2z" fill="#c8c8c8"/><path d="m699 228.1-13 2.8-5.7-7.5v-1l26.2-5v.2l5.8 7.8zm13.3 17.8-13 2.7-.3-.2-6.2-8.5 12.7-3z" fill="#787878"/><path d="m699 228.1 6.5 8.8-12.7 3-6.8-9zm0 20.3.3.2-14.8 3.3-.2-.8-6-8.2 14.5-3z" fill="#787878"/><path d="m686 230.9 6.8 9-14.5 3-6.8-9.3z" fill="#787878"/><path d="m680.3 223.4 5.7 7.5-14.5 2.7-6-7.7v-.8l14.8-2.7zm-32.3 26.2 15-3.2 15.3-3.5 6 8.2.2.8-42 9.5-6.7-9z" fill="#787878"/><path d="m671.5 233.6 6.8 9.3-15.3 3.5-7-9.5z" fill="#787878"/><path d="m665.5 225.9 6 7.7-15.5 3.3-6-8-.7-.8 16.2-3z" fill="#787878"/><path d="m668.5 97.6v77.3l-96.5 15.2v-97.2z" fill="#fff"/><path d="m664.8 206.9-.3 1-.7 1.2-1 1-1.5 1-2 1-2.5 1-5.8 2-7 2-8.2 1.5-9 1.5-9.8 1-9.7.8-9.3.2-8.2-.2-7.3-.5-6-1-2.5-.8-2.2-.5-1.5-.7-1.5-1-.8-1-.2-1v-.8l.7-1 1-1.2 1.3-1 1.7-1 2.3-1 5.2-1.8 6.5-1.7 7.5-1.8 8.3-1.2 9-1.3.5 5 .5 2 .2.8.3.5.7.5 1 .5 2 .5 1.5.2h.5l2.8-.2 1.2-.3 1-.5 1-.7 1-1 .5-1v-1.3l.5-2.5.8-3.7h7.7l7 .2 6.3.3 5.5.7 4.5 1 1.7.5 1.5.8 1.3.7 1 .8.7.7zm-8.8 30 7 9.5-15 3.2-7-9.7z" fill="#787878"/><path d="m641 239.9 7 9.7-12.2 2.8-7.5-9.8h.2z" fill="#787878"/><path d="m607.8 193.9 22.7-4-22.5 4z" fill="#fff"/><path d="m608 193.9 22.5-4-1.2 3.7-2 6.8-5.8.5-6.2.2-4 .5-.5-2.7-.5-2.5-.5-1-.5-.8-.5-.5z" fill="#787878"/><path d="m627.3 200.4-.8 3.7-.5 2.5v1.3l-.5 1-1 1-1 .7-1 .5-1.2.3-2.8.2h-.5l-1.5-.2-2-.5-1-.5-.7-.5-.3-.5-.2-.8-.5-2-.5-5 4-.5 6.2-.2z" fill="#787878"/><path d="m659.5 184.9-29 5-22.8 4h.3l-43.3 7.3v-117.3l94.5 5 16 .8v92.8zm9-10v-77.3l-96.5-4.7v97.3z" fill="#c8c8c8"/><g fill="none" stroke="#000" stroke-linecap="round" stroke-miterlimit="10" stroke-width="6.25"><path d="m659.3 88.9 16 .7v92.8l-15.8 2.5-29 5-22.5 4-43.2 7.2v-117.2z"/><path d="m668.5 97.6-96.5-4.7v97.2l96.5-15.2zm-57.2 104-9 1.3-8.3 1.2-7.5 1.8-6.5 1.7-5.2 1.8-2.3 1-1.7 1-1.3 1-1 1.2-.7 1v.8l.2 1 .8 1 1.5 1 1.5.7 2.2.5 2.5.8 6 1 7.3.5 8.2.2 9.3-.2 9.7-.8 9.8-1 9-1.5 8.2-1.5 7-2 5.8-2 2.5-1 2-1 1.5-1 1-1 .7-1.2.3-1-.3-.8-.7-.7-1-.8-1.3-.7-1.5-.8-1.7-.5-4.5-1-5.5-.7-6.3-.3-7-.2h-7.7"/><path d="m630.5 189.9-22.7 4h.2l.8.2.5.5.5.8.5 1 .5 2.5.5 2.7.5 5 .5 2 .2.8.3.5.7.5 1 .5 2 .5 1.5.2h.5l2.8-.2 1.2-.3 1-.5 1-.7 1-1 .5-1v-1.3l.5-2.5.8-3.7 2-6.8zm28.8-101v-16l49.2-11.8h.8l1.7.5 1.8.8.7.7.8.8.7.7.5 1.3.3 1.2.2 1.5-.5 46-.2 3.3-.5 46.5-.5 28.7v.5l-.8 1.8-.7 1-.5.7-1 .8-1.3.5-1.2.2-3.3-.5-5.5-1.5-15.7-4.2-24.8-7.5h-.2"/><path d="m711 61.6 54.8 4.3v129.7l-55.8 2.8"/><path d="m715.5 114.6.3 1.5.5 1.5 1 1.8 1.5 1.5 1 .7 1 .8 1.5.5 1.5.5 1.5.2 2 .3h38.5m-50.5-6h-1.8l-2 .2-2 .3-2.2.7-1 .5-.8.5-.7.8-.5.7-.5 1v1.3l.2 32.5.8 1.2.7 1.3 1.3 1.5 1.5 1.5 2 1.2 2 1 1.2.3h1.3m36.2-23.8-.2 1.5-.3 1.3-.7 1.2-.8 1.3-1 .7-1.2.8-1.3.5h-2.7l-1.3-.5-1.2-.8-1-.7-.8-1.3-.7-1.2-.5-1.3v-3l.5-1.5.7-1.2.8-1 1-1 1.2-.5 1.3-.5 1.2-.3 1.5.3 1.3.5 1.2.5 1 1 .8 1 .7 1.2.3 1.5zm-26.7 47.8 34.7-1.3v-8l-34.7 1.5zm41.5-113.8-43-1.7v10l43 1.5m-147.8 156.2.5 1.3.3.5 3 4.5 7 10 4 5.2 3.7 4.5 1.8 1.8 1.5 1.2 1.2.8 1 .2 12.3-2.2 19.7-4.3 50.3-11.2 67-15.5 1-.8.7-1 .5-1.5.3-1-.3-1-.7-1.2-1.5-1.3-4.3-3.2-9.2-6.3-4.3-3-6.2-3.7-1.8-1.3-3.5-1.2-4-1-2.2-.5h-4.3l-2.2.2-3.3.5-16.2 3-13.3 2.5-10 1.8-26.2 5-14.8 2.7-16.2 3-15.8 3-5.7 1.3-4.5 1.2-1.8.5-1.2.8-1 .7-.5.8-.5.7-.3.8-.2 1.5z"/><path d="m618 240.6v13l14 18.3.8 1.2 1.2 1.5 1.3 1.5 1.7 1.3 2 1.2 1 .5 1.3.3h2.2l10.8-2 19-4 49.7-11.3 68-15.5.8-1.2 1.2-3 .8-2 .2-2v-3.3l-.5-1v-.2m-27.7-141.5-43-1.8v10l43 1.5"/><path d="m716.5 215.6 15.3 15.5 8.2 8.5-14.7 3.3-13 3-13 2.7-14.8 3.3-42 9.5-6.7-9-7.5-9.8-6-7.7"/><path d="m635.3 252.4h.5l12.2-2.8 15-3.2 15.3-3.5 14.5-3 12.7-3 13.3-2.8 13-3m-103.3 11.5 12.5-2.7 15-3 15.5-3.3 14.5-2.7 13-2.8 13.3-2.7 9.7-2"/><path d="m635.3 232.4 5.7 7.5 7 9.7 6 7.8m-4-28.5 6 8 7 9.5 5.8 7.5m-3.3-28 6 7.7 6.8 9.3 6 8.2m-4-27.7 5.7 7.5 6.8 9 6.2 8.5m-5-27 5 6.7 6.5 8.8 6.8 9m-5.8-28.3 5.8 7.8 6.5 8.7 6.5 8.5m4.5-29.5 7.5 7 7.7 7.5 7.5 7.3 18-4.5 16.5-4"/><path d="m745 227.6 17.3-4 15.5-3.5m-40.3 0 16-3.7 13.8-3"/><path d="m745.5 209.9.5.2 7.5 6.3 8.8 7.2 8.2 6.8"/></g></svg>