<svg height="850.394" viewBox="0 0 850.394 850.394" width="850.394" xmlns="http://www.w3.org/2000/svg"><circle cx="422.188" cy="396.938" fill="#fff" r="12.417" stroke="#231f20" stroke-width="2"/><path d="m494.82 568.08h63.46v18.3h-63.46zm-38.45 40.89h101.91v18.311h-101.91z" fill="#7a7878"/><path d="m586.96 543.68v120.58h-330.72v-120.58zm-28.68 83.6v-18.31h-101.91v18.311h101.91zm0-40.9v-18.3h-63.46v18.3zm22.75 117.32h28.62l-6.141-15.07h-16.35zm46.35 17.93-6.13-15.07h-16.36l-6.13 15.07zm-8.97-35.36 13.03 50.421c1.619 12.609-6.2 13.829-13.841 13.829h-390.74c-7.64 0-15.46-1.21-13.84-13.829l13.02-50.421c1.98-9.63 6.19-13.84 13.83-13.84h352.651v-.02h12.07c7.64 0 11.86 4.22 13.82 13.86zm-370.35 21.15h-16.36l-6.13 15.061h28.63zm28.53-3.61-6.13-15.06h-16.35l-6.13 15.06zm16.74 3.38h-16.35l-6.14 15.06h28.62zm28.54-3.61-6.14-15.061h-16.36l-6.13 15.061zm18.91 3.5h-16.36l-6.13 15.05h28.62zm28.53-3.62-6.14-15.05h-16.35l-6.14 15.05zm20.15 3.85h-16.35l-6.14 15.051h28.63zm-.08-3.61h28.61l-6.13-15.07h-16.35zm50.33 3.72h-16.36l-6.13 15.061h28.629zm28.53-3.61-6.13-15.06h-16.36l-6.13 15.06zm16.74 3.38h-16.36l-6.12 15.06h28.62zm28.53-3.61-6.13-15.061h-16.35l-6.141 15.061zm18.91 3.5h-16.36l-6.13 15.05h28.62zm28.53-3.62-6.12-15.05h-16.35l-6.15 15.05zm1.32 3.85-6.14 15.051h28.62l-6.14-15.051zm69.04 43.21v27.67h-417.99v-27.67h404.28z" fill="#c8c8c8"/><path d="m621.25 706.56 6.13 15.07h-28.62l6.13-15.07zm-17.74-17.93 6.14 15.07h-28.62l6.13-15.07zm-24.9 18.68 6.14 15.05h-28.62l6.14-15.05zm-23.78-18.9 6.12 15.05h-28.62l6.15-15.05zm-22.41 18.67 6.13 15.05h-28.62l6.13-15.05zm-5.37-228.5c3.72 0 6.71 3.02 6.71 6.729 0 3.69-2.99 6.7-6.71 6.7-3.71 0-6.71-3.01-6.71-6.7 0-3.709 3-6.729 6.71-6.729z" fill="#231f20"/><path d="m316.29 327.67h210.62v141.061h-210.62z" fill="#fff"/><path d="m518.62 485.4c0-3.7-3.01-6.71-6.71-6.71-3.71 0-6.71 3.01-6.71 6.71 0 3.71 3 6.72 6.71 6.72 3.7 0 6.71-3.01 6.71-6.72zm1.72-.09c0 3.69 3 6.7 6.71 6.7 3.72 0 6.71-3.01 6.71-6.7 0-3.71-2.99-6.729-6.71-6.729-3.71-.001-6.71 3.019-6.71 6.729zm30.41-164.4v164.24c0 9.069-7.36 16.42-16.44 16.42h-226.05c-9.07 0-16.43-7.351-16.43-16.42v-164.24c0-9.07 7.36-16.43 16.43-16.43h226.05c9.08 0 16.44 7.36 16.44 16.43zm-23.84 147.82v-141.06h-210.62v141.06z" fill="#c8c8c8"/><path d="m511.91 478.69c3.7 0 6.71 3.01 6.71 6.71 0 3.71-3.01 6.72-6.71 6.72-3.71 0-6.71-3.01-6.71-6.72 0-3.7 3-6.71 6.71-6.71zm-4.53 209.83 6.13 15.06h-28.62l6.14-15.06zm-22.4 18.67 6.14 15.06h-28.62l6.12-15.06zm-22.87-18.44 6.13 15.06h-28.62l6.13-15.06zm-1.4-516.89-20.07 34.74-20.06 34.75-20.06-34.75-20.06-34.74h40.12zm-21 535.56 6.14 15.06h-28.63l6.13-15.06zm-27.85-18.79 6.13 15.07h-28.61l6.13-15.07zm-22.4 18.68 6.14 15.05h-28.63l6.14-15.05zm-26.29-18.9 6.14 15.05h-28.63l6.14-15.05zm-22.39 18.67 6.13 15.05h-28.62l6.13-15.05zm-25.05-18.56 6.14 15.06h-28.63l6.13-15.06zm-22.4 18.67 6.13 15.06h-28.62l6.14-15.06zm-22.87-18.44 6.13 15.06h-28.61l6.13-15.06zm-22.4 18.67 6.14 15.06h-28.63l6.13-15.06z" fill="#231f20"/><g fill="none"><g stroke="#231f20"><path d="m550.75 485.15c0 9.069-7.36 16.42-16.44 16.42h-226.05c-9.07 0-16.43-7.351-16.43-16.42v-164.24c0-9.07 7.36-16.43 16.43-16.43h226.05c9.08 0 16.44 7.36 16.44 16.43z" stroke-width="14"/><path d="m316.29 327.67h210.62v141.061h-210.62zm58.93 216.01v-41.63h92.75v41.63m0 0h118.99v120.58h-330.72v-120.58h118.98z" stroke-width="14"/><path d="m456.37 608.97h101.91v18.311h-101.91zm38.45-40.89h63.46v18.3h-63.46z" stroke-width="9.535"/><path d="m226.86 750.52c-7.64 0-15.46-1.21-13.84-13.829l13.02-50.421c1.98-9.63 6.19-13.84 13.83-13.84h360.421" stroke-width="14"/><path d="m617.6 750.52c7.641 0 15.46-1.22 13.841-13.829l-13.03-50.421c-1.96-9.64-6.18-13.859-13.82-13.859h-12.07" stroke-width="14"/><path d="m333.76 733.01h174.51" stroke-width="9.535"/><path d="m617.6 750.52h13.71v27.67h-417.99v-27.67h388.6z" stroke-width="14"/><path d="m420.58 241.35-20.06-34.75-20.06-34.74h80.25l-20.07 34.74z" stroke-width="19.07"/></g><path d="m0 0h850.394v850.394h-850.394z"/><path d="m394.834 130 58-.125m-58.166-43.75 58-.126m-58.668-38.124 58-.125" stroke="#231f20" stroke-width="28"/></g></svg>