<svg height="850.394" viewBox="0 0 850.394 850.394" width="850.394" xmlns="http://www.w3.org/2000/svg"><g fill="#c8c8c8"><path d="m424.61 74.81c156.73 0 283.78 56.88 283.78 127.05 0 63.41-103.779 115.98-239.449 125.51a635.878 635.878 0 0 1 -44.331 1.54c-14.44 0-28.62-.48-42.47-1.41-136.58-9.18-241.3-61.94-241.3-125.64 0-70.17 127.05-127.05 283.77-127.05z"/><path d="m469.06 329.03v362.01l-41.77 78.32h-3.48l-41.77-78.32v-362.01l.1-1.53c13.85.93 28.03 1.41 42.47 1.41a635.9 635.9 0 0 0 44.331-1.54z"/></g><g fill="none"><path d="m382.14 327.5c-136.58-9.18-241.3-61.94-241.3-125.64 0-70.17 127.05-127.05 283.77-127.05 156.73 0 283.78 56.88 283.78 127.05 0 63.41-103.779 115.98-239.449 125.51a635.878 635.878 0 0 1 -44.331 1.54c-14.44 0-28.62-.48-42.47-1.41zm86.92 1.53v362.01l-41.77 78.32h-3.48l-41.77-78.32v-362.01" stroke="#000" stroke-width="20.885"/><path d="m0 0h850.394v850.394h-850.394z"/></g></svg>