<svg height="850.394" viewBox="0 0 850.394 850.394" width="850.394" xmlns="http://www.w3.org/2000/svg"><g fill="#a3d9ff"><path d="m677.29 225.63-46.39 46.39-59.351-40.53 20.391-108.91v-.01c26.14 18.79 63.29 52.44 85.35 103.06zm-325.33 145.9v-.07h193.38l83.85 399.87h-204.5v.06h-200.68l83.85-399.86z"/><path d="m571.55 231.49-26.21 139.97h-193.38v.07h-44.1l-26.21-139.98-20.4-108.91v-.01c17.36-12.47 29.85-18.39 29.85-18.39l66.76-31.28.19.41c-3.3 55.29 28.63 91.72 68.17 91.72.25 0 .5 0 .75-.01v-.05c39.54 0 68.141-34.7 67.78-91.27l.44-.93 66.909 31.35s12.49 5.92 29.841 18.39v.01z"/><path d="m426.97 165.03v.05c-.25.01-.5.01-.75.01-39.54 0-71.47-36.43-68.17-91.72l-.19-.41 10.69-5.01c8.93 14.36 26.78 34.45 57.71 34.45.221 0 .45 0 .67-.01v-.06c30.931 0 52.59-16.86 57.721-34.44l10.54 4.94-.44.93c.359 56.57-28.241 91.27-67.781 91.27zm-145.32 66.52-59.35 40.53-46.39-46.38c22.05-50.63 59.21-84.28 85.34-103.07v.01z"/></g><g fill="none"><g stroke="#000" stroke-width="20.535"><path d="m428.5 102.38c-.53.01-1.05.01-1.57.01-.22.01-.449.01-.67.01-30.93 0-48.78-20.09-57.71-34.45l-10.69 5.01-66.76 31.28s-12.49 5.92-29.85 18.39c-26.13 18.79-63.29 52.44-85.34 103.07l46.39 46.38 59.35-40.53"/><path d="m428.5 165.05c-.51.02-1.02.03-1.53.03-.25.01-.5.01-.75.01-39.54 0-71.47-36.43-68.17-91.72m-96.8 49.27 20.4 108.91 26.21 139.98-83.85 399.86h204.49m-120.64-399.86h193.37m-76.54-269.22c.75.02 1.49.02 2.24.02 30.931 0 52.59-16.86 57.721-34.44l10.54 4.94 66.909 31.35s12.49 5.92 29.841 18.39c26.14 18.79 63.29 52.44 85.35 103.06l-46.39 46.39-59.351-40.53h-.01"/><path d="m424.69 164.99c.75.02 1.51.04 2.28.04 39.54 0 68.141-34.7 67.78-91.27m97.19 48.82-20.39 108.91-26.21 139.97 83.85 399.87h-204.5m120.65-399.87h-193.38"/></g><path d="m0 0h850.394v850.394h-850.394z"/></g></svg>