<svg height="850" viewBox="0 0 850 850" width="850" xmlns="http://www.w3.org/2000/svg"><path d="m618 500 4.5-4.7 4.8-5.8 5.2-6 5-6.2 4.5-6 4-5.8 3-5 1.3-2 .7-1.7 1.3-4.3 1.5-5.5 2.5-11.2 2.5-12.5 2.5-12.8 2.2-11.2 1-3.5 1-2.8 1.5-2.2 1.5-1.8 1.5-1.2 1.8-1 1.7-.5 1.8-.3 1.7.3 1.8.2 3 1 2.5 1 1.7 1 .5-5 .8-5 .5-2 1-1.7 1-1.8 1.5-1.2 1.5-.8 1.7-.7 1.8-.5h1.7l1.8.2 1.7.3 1.8.7 1.5 1 1.2 1.3 1.3 1.5.7 1.7.5 2 .3 6.8.2 12.7h1l.3-2 .5-1.7 1-1.5 1.2-1 1.3-.8 1.7-.5 1.5-.2h1.8l1.7.2 1.5.8 1.8 1 1.2 1.2 1.3 1.8 1 1.7.7 2.3.5 2.5.3 7.7.7 17.3h.3l.5-1.5.7-1 1-1 1.3-.8 1.2-.7 1.5-.3 1.5-.2 1.5.2 1.5.3 1.5.5 1.3.5 1.2 1 1.3 1 .7 1.5.8 1.5.2 1.7.5 4.5.5 6.5.5 16 .8 29v2.8l-.8 3.7-1 4.5-1.2 5.5-3.5 12-4 13.5-2 5.5-3.8 11.3-4 10.5-3.5 8.5-3 6.2-2 2.8-2.7 3.2-3.5 3.3-4 3.7-4.5 3.5-5 3.8-10 7.2-9.8 6.8-8.2 5.2-8 5-2 1.8-2 2-1.8 2.2-2 2.3-3.7 5.5-3.3 6-3.5 6.7-3 7.3-3 7.7-3 8-2.7 8.5-2.5 8.5-2.3 9-2.2 8.8-4 17.7-3.3 16.8-123.7-14 12-29.8 6.7-18.2 3.3-9.3 3-9.2 2.5-8 2-7.5 1.7-7.3 1.3-7 1-6.2.2-6v-2.8l-.2-2.5-.5-2.2-.5-2.3-1.3-4.5-.7-4.7-.5-4.8-.5-5v-4.7l.2-5 .5-4.8.5-5 .8-4.5 1-4.7 1-4.3 1.2-4.2 1.3-4 1.2-3.8 1.5-3.5 1.5-3.2 2.8-5.5 3-5.5 6-10.8 3-5.7 3-6.3 3.2-6.7 3-7.8.8-2.2 28 9.5-.3.2-.2.5-1.5 3.5-1.5 3-2 5.8-1.3 4.5-.5 3.7-.2 3 .2 1.8.3 1.7.2.8.3.5.2.7.5.3 1.3.5 1.7-.3 2-.2 2.3-1 2.5-1 2.7-1.5 4.8-3 4.7-3.3 4.5-3.5 3.8-3.7z" fill="#ffeec8"/><path d="m562.8 480.3-42.8-14.8 1.8-.5 1.7-.5 2-1 1.8-1.2 2.2-1.3 2-1.7 4.5-4.3 1.8.8 115.5-9 .5.2-1.5 5.5-1.3 4.3-.7 1.7-1.3 2-3 5-4 5.8-4.5 6-5 6.2-5.2 6-4.8 5.8-4.5 4.7-2-1.5-25.2-8.7zm177 48.2 4-13.5 3.5-12 1.2-5.5 1-4.5.8-3.7v-2.8l-.8-29-.5-16-.5-6.5-.5-4.5-.2-1.7-.8-1.5-.7-1.5-1.3-1-1.2-1-1.3-.5-1.5-.5-1.5-.3-1.5-.2-1.5.2-1.5.3-1.2.7-1.3.8-1 1-.7 1-.5 1.5h-.3l-.7-17.3 2.5-.2 30 16 1.5.7 1.5 1 2.7 2.3 2.3 2.5 2 3.2 1.7 3.5 1.3 3.8 1 4.2.5 4.3.2 4.7v4.8l-.5 5.2-.7 5.3-1.3 5.2-1.5 5.5-2 5.3-2.5 5.5-6 13.5-3.2 6.2-3 5.8-3.5 5-1.8 2.5-2 2-2 2-2 1.7-2.2 1.5-2.3 1-2.2-.5z" fill="#fbee34"/><path d="m228 612.5.5.3.8.7 3.5 3.3 5.7 4.7 7.5 6 4.5 3.3 5 3.2 5.5 3.5 5.8 3.3 6.5 3.5 6.7 3 7.3 3 7.7 2.7 8 2.3 8.5 2 8.8 1.2 4.7.8 4.5.2 4.8.3 5 .2 5-.2 5-.3 5.2-.2 5.3-.8 5.2-.7 5.5-1 5.5-1.3 5.5-1.5 5.8-1.5 5.7-2 5.8-2 6-2.5 5.7-2.7 6.3-2.8 6-3.2 6.2-3.5 6.5-3.8 6.3-4 6.5-4.5 6.5-4.5 6.5-5 6.7-5.5.5-.5 50 46.3 4.3 1-3 9.2-3.3 9.3-6.7 18.2-12 29.8-399 12.5 1-4.8 1-4.2 1.5-4.5 1.5-4.3 1.7-4 2-4 2.3-4 2.5-3.7 2.5-3.8 2.7-3.7 3-3.5 3.3-3.5 3.2-3.3 3.3-3.5 7.2-6.2 7.8-6.3 8.2-6 8.5-6 8.8-5.5 9-5.7 9.2-5.5 18.3-11 10.7-6.3 5-3.2 2.3-1.8 2.5-1.7zm195.8-268 1-.3 1-.5.8-.8.8-1 .5-1 .5-1.3v-2.6l-.3-1.3-.5-1.3-.8-1-.8-.8-1-.8-1-.5-1-.3h-1.3l-1 .3-1 .8-1 .8-.5.8-.5 1.3-.5 1v2.8l.3 1.3.5 1.3.8 1 .8.8 1 .8 1 .5 1 .3h1.2zm-2.5-21.2 1.5 1.8 1.5 1.8 1.8 2.5 1.5 3.3.5 1.8.5 1.8.3 1.8.3 2-.3 2.3-.3 2-1.3 3.5-.8 2-.3.8h-.2l-1.3 1-.5-.8h-2l-2-.5-1.5-.5-1.5-1-1.5-.8-1-1-2.3-2-.3-.5-.5-.8-.3-1.5-.3-2 .3-2 .5-3.5.3-2.3 3.8-3.5 2.8-2.8z" fill="#a9d7f3"/><path d="m412.5 344.8 2.3 2 1 1 1.5.7 1.5 1 1.5.5 2 .5h2l.5.8-1.5.7-2.3 1-3 .8-4 .7-9.2 1.3-11.3 1-13.7 1.2h-.3l-.5-.5-.2-1v-.5l.2-.7.3-.8.7-.7 1-1 1.3-1 3.7-2.5 5.8-3 3.2-1.8 3-1.5 5.3-3.5 5-3.7 4-3.5-.3 2.2-.5 3.5-.2 2 .2 2 .3 1.5.5.8z" fill="#fff"/><path d="m412.3 332.3-4 3.5-5 3.8-5.3 3.4-3 1.5-3.3 1.8-5.8 3-3.8 2.5-1.3 1-1 1-.8.8-.3.8-.3.8v.5l.3 1 .5.5h.3l13.8-1.3 11.3-1 9.3-1.3 4-.8 3-.8 2.3-1 1.5-.8 1.3-1h.3l.3-.8.8-2 1.3-3.5.3-2 .3-2.3-.3-2-.3-1.8-.5-1.8-.5-1.8-1.5-3.3-1.8-2.5-1.5-1.8-1.5-1.8-2.5 2.8-2.8 2.8zm63.7 201.7-5.8 1.5-5.5 1.5-5.3 1.8-4.8 2-3 1.8-1.5 1.3-1.3 1-2.3 2.5-1.5 2.6-1.5 2.8-1.3 2.8-.5 2.8-.5 3v5.8l.5 3 .8 2.8 1 2.8 1 2.8 1.3 2.8 1.3 2.8 3 5 18.5 17.3-.5.5-6.8 5.5-6.5 5-6.5 4.5-6.5 4.5-6.3 4-6.5 3.8-6.3 3.5-6 3.3-6.3 2.8-5.8 2.8-6 2.5-5.8 2-5.8 2-5.8 1.5-5.5 1.5-5.5 1.3-5.5 1-5.3.8-5.3.8-5.3.3-5 .3-5 .3-5-.3-4.8-.3-4.5-.3-4.8-.8-8.8-1.3-8.5-2-8-2.3-7.8-2.8-7.3-3-6.8-3-6.5-3.5-5.8-3.3-5.5-3.5-5-3.3-4.5-3.3-7.5-6-5.8-4.8-3.5-3.3-.8-.8-.5-.3-.3-.3 2-2 2-2.3 1.8-2.3 1.5-2.5 1.5-2.8 1-3 .8-3.3.8-3.8.3-4.5-.3-4.5-.5-4.5-.5-4.5-1-4.5-1.3-4.5-2.8-9-3.3-9-3.3-8.8-3-8.5-1.3-4.3-1-4 1.8-.8 1.5-1 1.3-1.3 1-1 .8-1.3.8-1.5.8-3.3.5-3.8.5-4.3.8-5 1-5.5 6.5-34.5-1.5-3.5-2-3.3-2.3-3.3-2.3-3-2.8-2.8-2.8-2.8-4.8-4.9-5.8-5.8-2.8-3-2.8-3-2.5-3.3-2.3-3.5-2-3.8-1.5-4-1.8-5-1-4.5-.5-4.8-.3-4.3.3-4.3.8-4 1-3.8 1.5-3.8 1.5-3.5 2-3.3 2.5-3.3 2.5-3 2.8-2.5 3-2.5 3.3-2.5 3.5-2 3.5-1.8 3-1 3.3-.5 2.8-.3 2.8.5 2.5 1 2.5 1.3 2.5 1.8 2.3 2.3 2.3 2.5 2.3 2.5 2.3 3 4.5 6.8 4.5 7.3.5 2 .8 1.5.5.5.5.5.8.5.8-.3 1-.3 1-1 1-1.3 1.3-2 1.5-2.5 1.8-3.5 1.3-3.8 1.3-4 1-4.3.5-4.3.5-4.5.3-4.8.3-9.5-1.2-18.8v-9.5l.3-4.8.3-4.8.5-4 .5-2 .8-1.5.8-1.8.8-1.3 1-1.3 1.3-1.3 1-1 1.5-1 3-1.5 3.5-1.5 4-1 4.5-1 5-1 11.3-2 6.3-1.3 6.8-1.5 7.3-1.8 7.8-2.3 14.5-4.3 12.3-3.3 10.5-2.5 9-2.5 4-1.3 4-1.3 3.5-1.8 3.8-1.5 3.5-2 3.5-2.5 3.5-2.5 3.5-3.3 4.3-4 3.5-4.3 3.3-4.5 2.5-4.5 1.3.5 3.3 2 2.8 2.3 2.8 2.5 2.5 3.3 2.5 4 2.8 5 2.5 6 2.8 7.5 1.8 6 1.3 5.3 1 5 .5 4.5v4.5l.3 4.5.3 11 .3 5.5.5 5.3.8 4.8.8 2.3.8 2.3 1.3 2.3 1.3 2.3 1.5 2.3 1.5 2.3 2 2.3 2.5 2.3 2.5 2.3 3 2.5 12.3 9.3 8.5 6.3 7 4.8 7.3 5 2 1.5 1.5 1.5 1.3 1.8.8 1.8.8 2 .3 2v3.8l-.5 2-.5 1.8-.8 1.8-.8 1.5-1 1.5-1.3 1-1 1-1.3.8-5.5 2.5-2.8 1.3-3.5 1-8 2.3-1 .5-1 .8-.8 1-.5 1.5-.5 1.5-.3 1.8-.3 3.5.5 3.8.3 1.8.8 1.8.5 1.8 1 1.3.8 1.3 1 1 4.5 3 1.8 1.5 1.3 1.5.3 1 .3.8-.3.8-.5 1-.5 1-1.3 1-1.3 1-2 1-5.5 3.3-5.3 3-4.8 3.3-4.8 3.5-5 3.8-5.3 4-13.7 9.2 5.8 1.5 14 3 8.3 1.8 8.3 1.5 7.8 1.3 3.3.3h2.8l-.5 5.5-1 7.8-.3 4v3.8l.5 3.3.3 1.5.5 1 1.3 3 1 3.8.3 2.3.3 2.3v2.5l-.7 2-.3 2.5-.8 2.3-1 2.5-1.3 2.3-1.5 2.3-2 2.3-2.3 1.8-2.8 1.8-4.3 2-4.8 1.8-5 1.5-4.9.9z" fill="#ffeec8"/><path d="m221.3 520-3.8 1.3-4.7 1-3.8.2-3.2.3-3.3-.3-3.2-.5-3.3-1-3-1-3.2-1.7-3.5-2-3.5-2.3-3.8-2.7-9-6.8-24-18.7-3.7-3.3-4-3.5-3.5-3.5-3.5-3.5-3.5-3.7-3.3-3.8-3-3.7-2.7-4-5.5-8-5-8.3-4.3-8.2-4-8.5-3.5-8-3.2-8-2.8-8-2.5-7.5-4-13.5-3-11.5-1.2-5.5-1.3-6.3-1.2-7-1.3-7.5-1-8.2-.7-8.3-.8-8.7-.2-9-.3-9 .3-8.8.5-8.7.7-8.3 1.5-8 1.5-7.5 1-3.5 1.3-3.2 1.2-3.3 1.5-2.7 5.8-11 5.7-10 5.3-8.8 4.7-7.5 7.3-10.5 2.7-4 2.5-2.5 7-7.2 5-5 5.8-5.3 6.5-6 7-6 7.5-6.2 8-6 8.5-5.8 8.5-5.2 4.2-2.5 4.3-2.3 4.5-2 4.2-1.7 4.3-1.8 4.2-1.2 4.3-1 4.2-.8 16.3-2.2 15.7-2.3 15.3-2.2 14.7-1.8 7-.5 7-.5h13.3l6.5.5 6 .8 6 1.2 5.5 1.8 6 2.2 6 2.5 6.5 3 6.7 3.3 7 3.7 7 4 14 8.3 13.5 8.7 12.3 8.5 10.7 8.3 4.8 3.7 4 3.3 2.2 2.5 2.3 2.2 1.7 2.5 1.5 2.5 1.3 2.8 1 2.5 1 2.7.5 2.8.2 2.7v5.5l-.5 2.8-.5 3-1 2.7-1 2.8-1.2 2.7-2.5 4.5-3.3 4.5-3.5 4.3-4.2 4-3.5 3.2-3.5 2.5-3.5 2.5-3.5 2-3.8 1.5-3.5 1.8-4 1.2-4 1.3-9 2.5-10.5 2.5-12.2 3.2-14.5 4.3-7.8 2.2-7.2 1.8-6.8 1.5-6.2 1.2-11.3 2-5 1-4.5 1-4 1-3.5 1.5-3 1.5-1.5 1-1 1-1.2 1.3-1 1.2-.8 1.3-.7 1.7-.8 1.5-.5 2-.5 4-.2 4.8-.3 4.7v9.5l.5 19.5-.2 9.5-.3 4.8-.5 4.5-.5 4.2-1 4.3-1.2 4-1.3 3.7-1.7 3.5-1.5 2.5-1.3 2-1 1.3-1 1-1 .2-.7.3-.8-.5-.5-.5-.5-.5-.7-1.5-.5-2-4.5-7.3-4.5-6.7-2.3-3-2.2-2.5-2.3-2.5-2.2-2.3-2.5-1.7-2.5-1.3-2.5-1-2.8-.5-2.7.3-3.3.5-3 1-3.5 1.7-3.5 2-3.2 2.5-3 2.5-2.8 2.5-2.5 3-2.5 3.3-2 3.2-1.5 3.5-1.5 3.8-1 3.7-.7 4-.3 4.3.3 4.2.5 4.8 1 4.5 1.7 5 1.5 4 2 3.7 2.3 3.5 2.5 3.3 2.7 3 2.8 3 5.7 5.7 5.8 5.5 2.7 2.8 2.8 2.7 2.2 3 2.3 3.3 2 3.2 1.5 3.5-6.5 34.5-1 5.5-.8 5-.5 4.3-.5 3.7-.7 3.3-.8 1.5-.7 1.2-1 1-1.3 1.3-1.5 1z" fill="#f6cc4b"/><path d="m428.3 337v2.8l-.5 1.2-.5 1-.8 1-.7.8-1 .5-1 .2h-1.3l-1-.2-1-.5-1-.8-.7-.7-.8-1-.5-1.3-.2-1.2v-2.8l.5-1 .5-1.2.5-.8 1-.7 1-.8 1-.2h1.2l1 .2 1 .5 1 .8.8.7.7 1 .5 1.3z" fill="#231f20"/><g fill="none" stroke="#231f20" stroke-linecap="round" stroke-miterlimit="10"><path d="m424.8 351.3 1.2-1h.3l.2-.8.8-2 1.2-3.5.3-2 .2-2.2-.2-2-.3-1.8-.5-1.7-.5-1.8-1.5-3.2-1.7-2.5-1.5-1.8-1.5-1.7-2.5 2.7-2.8 2.8-3.7 3.5-4 3.5-5 3.7-5.3 3.5-3 1.5-3.2 1.8-5.8 3-3.7 2.5-1.3 1-1 1-.7.7-.3.8-.2.7v.5l.2 1 .5.5h.3l13.7-1.2 11.3-1 9.2-1.3 4-.7 3-.8 2.3-1z" stroke-width="7"/><path d="m430.8 299.3-.8-.3-2-.2-3.5-.5-5 .2-3 .3-3.2.5-3.8.7-4 1-4.5 1.3-4.7 1.7-5 2-5.5 2.5-6.3 3.3-5.5 3.2-4.7 3.5-4.3 3.3-3.7 3.2-3.3 3-2.7 3-2.3 3" stroke-width="12.75"/><path d="m412.5 332.3h-.2l-.3 2.2-.5 3.5-.2 2 .2 2 .3 1.5.5.8.2.5 2.3 2 1 1 1.5.7 1.5 1 1.5.5 2 .5h2" stroke-width="6.25"/><path d="m433.8 220.5-2.5 4.5-3.3 4.5-3.5 4.3-4.2 4-3.5 3.2-3.5 2.5-3.5 2.5-3.5 2-3.8 1.5-3.5 1.8-4 1.2-4 1.3-9 2.5-10.5 2.5-12.2 3.2-14.5 4.3-7.8 2.2-7.2 1.8-6.8 1.5-6.2 1.2-11.3 2-5 1-4.5 1-4 1-3.5 1.5-3 1.5-1.5 1-1 1-1.2 1.3-1 1.2-.8 1.3-.7 1.7-.8 1.5-.5 2-.5 4-.2 4.8-.3 4.7v9.5l.5 19.5-.2 9.5-.3 4.8-.5 4.5-.5 4.2-1 4.3-1.2 4-1.3 3.7-1.7 3.5-1.5 2.5-1.3 2-1 1.3-1 1-1 .2-.7.3-.8-.5-.5-.5-.5-.5-.7-1.5-.5-2-4.5-7.3-4.5-6.7-2.3-3-2.2-2.5-2.3-2.5-2.2-2.3-2.5-1.7-2.5-1.3-2.5-1-2.8-.5-2.7.3-3.3.5-3 1-3.5 1.7-3.5 2-3.2 2.5-3 2.5-2.8 2.5-2.5 3-2.5 3.3-2 3.2-1.5 3.5-1.5 3.8-1 3.7-.7 4-.3 4.3.3 4.2.5 4.8 1 4.5 1.7 5 1.5 4 2 3.7 2.3 3.5 2.5 3.3 2.7 3 2.8 3 5.7 5.7 5.8 5.5 2.7 2.8 2.8 2.7 2.2 3 2.3 3.3 2 3.2 1.5 3.5-6.5 34.5-1 5.5-.8 5-.5 4.3-.5 3.7-.7 3.3-.8 1.5-.7 1.2-1 1-1.3 1.3-1.5 1-1.7.7-3.8 1.3-4.7 1-3.8.2-3.2.3-3.3-.3-3.2-.5-3.3-1-3-1-3.2-1.7-3.5-2-3.5-2.3-3.8-2.7-9-6.8-24-18.7-3.7-3.3-4-3.5-3.5-3.5-3.5-3.5-3.5-3.7-3.3-3.8-3-3.7-2.7-4-5.5-8-5-8.3-4.3-8.2-4-8.5-3.5-8-3.2-8-2.8-8-2.5-7.5-4-13.5-3-11.5-1.2-5.5-1.3-6.3-1.2-7-1.3-7.5-1-8.2-.7-8.3-.8-8.7-.2-9-.3-9 .3-8.8.5-8.7.7-8.3 1.5-8 1.5-7.5 1-3.5 1.3-3.2 1.2-3.3 1.5-2.7 5.8-11 5.7-10 5.3-8.8 4.7-7.5 7.3-10.5 2.7-4 2.5-2.5 7-7.2 5-5 5.8-5.3 6.5-6 7-6 7.5-6.2 8-6 8.5-5.8 8.5-5.2 4.2-2.5 4.3-2.3 4.5-2 4.2-1.7 4.3-1.8 4.2-1.2 4.3-1 4.2-.8 16.3-2.2 15.7-2.3 15.3-2.2 14.7-1.8 7-.5 7-.5h13.3l6.5.5 6 .8 6 1.2 5.5 1.8 6 2.2 6 2.5 6.5 3 6.7 3.3 7 3.7 7 4 14 8.3 13.5 8.7 12.3 8.5 10.7 8.3 4.8 3.7 4 3.3 2.2 2.5 2.3 2.2 1.7 2.5 1.5 2.5 1.3 2.8 1 2.5 1 2.7.5 2.8.2 2.7v5.5l-.5 2.8-.5 3-1 2.7-1 2.8z" stroke-width="14"/><path d="m220.3 514.3 1 5.7 1 4 1.2 4.3 3 8.5 3.3 8.7 3.2 9 2.8 9 1.2 4.5 1 4.5.5 4.5.5 4.5.3 4.5-.3 4.5-.7 3.8-.8 3.2-1 3-1.5 2.8-1.5 2.5-1.7 2.2-2 2.3-2 2-2.5 1.7-2.3 1.8-5 3.2-10.7 6.3-18.3 11-9.2 5.5-9 5.7-8.8 5.5-8.5 6-8.2 6-7.8 6.3-7.2 6.2-3.3 3.5-3.2 3.3-3.3 3.5-3 3.5-2.7 3.7-2.5 3.8-2.5 3.7-2.3 4-2 4-1.7 4-1.5 4.3-1.5 4.5-1 4.2-1 4.8m419.7-80-50-46.3-18.5-17.2-3-5-1.2-2.8-1.3-2.7-1-2.8-1-2.7-.7-2.8-.5-3v-5.7l.5-3 .5-2.8 1.2-2.7 1.5-2.8 1.8-2.7 2.2-2.5 1.3-1 1.5-1.3 3-1.7 4.7-2 5.3-1.8 5.5-1.5 5.7-1.5 5.3-1.2 5-1.5 4.7-1.8 4.3-2 2.7-1.7 2.3-1.8 2-2.2 1.5-2.3 1.2-2.2 1-2.5.8-2.3.2-2.5.3-2.5v-2.5l-.3-2.2-.2-2.3-1-3.7-1.3-3-.5-1-.2-1.5-.5-3.3v-3.7l.2-4 1-7.8.5-5.5h-2.7l-3.3-.2-7.7-1.3-8.3-1.5-8.2-1.7-14-3-5.8-1.5 12.3-10.3 5.2-4 5-3.7 4.8-3.5 4.7-3.3 5.3-3 5.5-3.2 2-1 1.2-1 1.3-1 .5-1 .5-1 .2-.8-.2-.7-.3-1-1.2-1.5-1.8-1.5-4.5-3-1-1-.7-1.3-1-1.2-.5-1.8-.8-1.7-.2-1.8-.5-3.7.2-3.5.3-1.8.5-1.5.5-1.5.7-1 1-.7 1-.5 8-2.3 3.5-1 2.8-1.2 5.5-2.5 1.2-.8 1-1 1.3-1 1-1.5.7-1.5.8-1.7.5-1.8.5-2v-3.7l-.3-2-.7-2-.8-1.8-1.2-1.7-1.5-1.5-2-1.5-7.3-5-7-4.8-8.5-6.2-12.2-9.3-3-2.5-2.5-2.2-2.5-2.3-2-2.2-1.5-2.3-1.5-2.2-1.3-2.3-1.2-2.2-.8-2.3-.7-2.2-.8-4.8-.5-5.2-.2-5.5-.3-11-.2-4.5v-4.5l-.5-4.5-1-5-1.3-5.3-1.7-6-2.8-7.5-2.5-6-2.7-5-2.5-4-2.5-3.2-2.8-2.5-2.7-2.3-3.3-2" stroke-width="14"/><path d="m373.3 551.5 7.5-.2 8.5-.8 11-.7 12.5-1.5 13.7-1.8 7-1.2 7.3-1.3 7-1.5 7-1.7 5.7-1.5 5.3-1.5 5.2-1.8 5-2 4.3-1.7m227.2 3 11.3-26.8 8-19.7 3-7.3 1.2-4 .3-2.5v-4l-.3-12.2-1-31-.7-17.3-.3-7.7-.5-2.5-.7-2.3-1-1.7-1.3-1.8-1.2-1.2-1.8-1-1.5-.8-1.7-.2h-1.8l-1.5.2-1.7.5-1.3.8-1.2 1-1 1.5-.5 1.7-.3 2m-22.7-19.5-.8 5-.5 5-.5 6.5-.2 6.5-.3 13.5-.2 13.3v12l-.5 6-.5 5.5-.8 4.5-1 4-1.5 3.5-1.2 3.2-1.8 3-2 3-2.2 4-3 5.3-6.5 12.2-8 15.3" stroke-width="14"/><path d="m679.3 526.3 14-29.5 9.7-21.5 3.5-7.8 1.5-4.2.3-2.8.2-5.2.5-16.5v-39.8l-.2-12.7-.3-6.8-.5-2-.7-1.7-1.3-1.5-1.2-1.3-1.5-1-1.8-.7-1.7-.3-1.8-.2h-1.7l-1.8.5-1.7.7-1.5.8-1.5 1.2-1 1.8-1 1.7-.5 2m-125.3 103-3 7.8-3.2 6.7-3 6.3-3 5.7-6 10.8-3 5.5-2.8 5.5-1.5 3.2-1.5 3.5-1.2 3.8-1.3 4-1.2 4.2-1 4.3-1 4.7-.8 4.5-.5 5-.5 4.8-.2 5v4.7l.5 5 .5 4.8.7 4.7 1.3 4.5.5 2.3.5 2.2.2 2.5v2.8l-.2 6-1 6.2-1.3 7-1.7 7.3-2 7.5-2.5 8-3 9.2-3.3 9.3-6.7 18.2-12 29.8m99.7-203.5-2.7 1.5-2.5 1-2.3 1-2 .2-1.7.3-1.3-.5-.5-.3-.2-.7-.3-.5-.2-.8-.3-1.7-.2-1.8.2-3 .5-3.7 1.3-4.5 2-5.8 1.5-3 1.5-3.5.2-.5-.2.8v-.3" stroke-width="14"/><path d="m686.8 390-.8-.5-1.7-1-2.5-1-3-1-1.8-.2-1.7-.3-1.8.3-1.7.5-1.8 1-1.5 1.2-1.5 1.8-1.5 2.2-1 2.8-1 3.5-2.2 11.2-2.5 12.8-2.5 12.5-2.5 11.2-1.5 5.5-1.3 4.3-.7 1.7-1.3 2-3 5-4 5.8-4.5 6-5 6.2-5.2 6-4.8 5.8-4.5 4.7-2.7 2.8-3.8 3.7-4.5 3.5-4.7 3.3-4.8 3m142.3 12.2 4-13.5 3.5-12 1.2-5.5 1-4.5.8-3.7v-2.8l-.8-29-.5-16-.5-6.5-.5-4.5-.2-1.7-.8-1.5-.7-1.5-1.3-1-1.2-1-1.3-.5-1.5-.5-1.5-.3-1.5-.2-1.5.2-1.5.3-1.2.7-1.3.8-1 1-.7 1-.5 1.5m-6.8 142.7 3-6.2 3.5-8.5 4-10.5 3.8-11.3 2-5.5m-118.8 208.3.5-3 3.3-16.8 4-17.7 2.2-8.8 2.3-9 2.5-8.5 2.7-8.5 3-8 3-7.7 3-7.3 3.5-6.7 3.3-6 3.7-5.5 2-2.3 1.8-2.2 2-2 2-1.8 8-5 8.2-5.2 9.8-6.8 10-7.2 5-3.8 4.5-3.5 4-3.7 3.5-3.3 2.7-3.2 2-2.8m-140.2-250.7 1 .5.7.7 1 1 .5 1 .8 1.3.7 2.7.8 3.5.2 3.8-.2 4.5-.5 4.7-.8 5.5-1 5.5-1.5 6-1.7 6.5-2.3 6.5-2.2 6.8-2.8 7-2.7 7.2-3.3 7-4.2 8.5-4.3 8.3-4.2 7.5-4.3 7-4.5 6.5-4.2 6-4.3 5.2-4 4.5-4.5 4.3-2 1.7-2.2 1.3-1.8 1.2-2 1-1.7.5-1.8.5h-2l-1.7-.7-1-.5-1-.8-.8-1-.7-1-.5-1.2-.5-1.5-.8-3.3-.5-3.7.3-4.5.2-5 .8-5.3 1-5.7 1.5-6 1.7-6.5 2-6.8 2.5-7 2.8-7.2 3-7.3 3.2-7.5 3.8-7.5 3.5-7 3.7-6.7 3.8-6.3 3.7-6 3.8-5.5 3.7-5 3.8-4.5 3.5-4 3.5-3.5 3.5-3 3-2.2 3-1.5 1.5-.5 1.2-.5h3.8z" stroke-width="14"/><path d="m687.3 379.5-103-59.2-1-.5m156.7 214.7 2.3-1 2.2-1.5 2-1.7 2-2 2-2 1.8-2.5 3.5-5 3-5.8 3.2-6.2 6-13.5 2.5-5.5 2-5.3 1.5-5.5 1.3-5.2.7-5.3.5-5.2v-4.8l-.2-4.7-.5-4.3-1-4.2-1.3-3.8-1.7-3.5-2-3.2-2.3-2.5-2.7-2.3-1.5-1-1.5-.7-30-16m-213.3 54.5 1.5.7 42.8 14.8 28 9.5 25.2 8.7m-78.2-42.7 115.5-9m-425.3 165.7.5.3.8.7 3.5 3.3 5.7 4.7 7.5 6 4.5 3.3 5 3.2 5.5 3.5 5.8 3.3 6.5 3.5 6.7 3 7.3 3 7.7 2.7 8 2.3 8.5 2 8.8 1.2 4.7.8 4.5.2 4.8.3 5 .2 5-.2 5-.3 5.2-.2 5.3-.8 5.2-.7 5.5-1 5.5-1.3 5.5-1.5 5.8-1.5 5.7-2 5.8-2 6-2.5 5.7-2.7 6.3-2.8 6-3.2 6.2-3.5 6.5-3.8 6.3-4 6.5-4.5 6.5-4.5 6.5-5 6.7-5.5" stroke-width="14"/></g></svg>