<svg height="850.394" viewBox="0 0 850.394 850.394" width="850.394" xmlns="http://www.w3.org/2000/svg"><path d="m208.72 228.29.37-.04c2.88 31.58 95.98 56.96 210.43 56.96 113.54 0 206.07-24.98 210.35-56.21l.26.03-49.62 470.94c0 52.08-72.109 94.28-161.08 94.28-88.94 0-161.01-42.2-161.01-94.28z" fill="#ffa500"/><g fill="none"><g stroke="#231f20" stroke-width="21"><path d="m198.18 128.31c0 1.21.13 2.4.38 3.59 6.7 32.25 103.05 57.83 220.87 57.83 117.879 0 214.23-25.58 220.93-57.83.25-1.19.38-2.38.38-3.59 0-33.95-99.08-61.47-221.31-61.47-122.16 0-221.25 27.52-221.25 61.47zm10.84 98.43c0 .5.02 1.01.07 1.51 2.88 31.58 95.98 56.96 210.43 56.96 113.54 0 206.07-24.98 210.35-56.21.1-.75.149-1.5.149-2.26"/><path d="m640.74 128.31-.38 3.59-10.23 97.13-49.62 470.94c0 52.08-72.109 94.28-161.08 94.28-88.94 0-161.01-42.2-161.01-94.28l-49.7-471.68-10.16-96.39-.38-3.59"/></g><path d="m0 0h850.394v850.394h-850.394z"/></g></svg>