<svg height="850.394" viewBox="0 0 850.394 850.394" width="850.394" xmlns="http://www.w3.org/2000/svg"><path d="m192.67 562.37.12-32.33 4.19.02 66.7-7.47c-1.61 16.25-1.7 29.4-1.7 29.4l-17.18 2.2-46.2 5.93s-2.09 1.23-5.93 2.25z" fill="#787878"/><path d="m192.92 497.56-.13 32.48-.12 32.33c-6.03 1.61-16.41 2.72-29.82-2.25-4.94-1.83-12.28-4.69-20.68-8.03-28.87-11.47-70.32-28.53-70.32-28.53s0-23.79.88-52.079c0 0 49.5 14.699 72.25 21.199s47.94 4.88 47.94 4.88z" fill="#787878"/><path d="m333.83 528.63c10.58 0 19.15 10.08 19.15 22.521 0 12.439-8.57 22.529-19.15 22.529-10.59 0-19.17-10.09-19.17-22.529 0-12.441 8.58-22.521 19.17-22.521zm299.87-40.89c6.49 0 11.76 9.109 11.76 20.35 0 11.25-5.27 20.37-11.76 20.37-6.5 0-11.771-9.12-11.771-20.37.001-11.24 5.271-20.35 11.771-20.35zm72.85-7.83c6.5 0 11.771 9.109 11.771 20.359 0 11.24-5.271 20.36-11.771 20.36s-11.76-9.12-11.76-20.36c0-11.249 5.26-20.359 11.76-20.359z" fill="#fff400"/><path d="m269.4 488.66c1.89-6.96 4.25-13.22 7.21-17.92 20.72-32.9 69.06-26.811 69.06-26.811l.68.681s46.65 19.92 43.74 79.64c-5.29-30.36-29.91-53.32-59.46-53.32-29.25 0-53.65 22.48-59.29 52.36l-5.62-.93-2.04.229c1.07-10.929 2.84-23.259 5.72-33.929zm464.88-5.95c2.34 5.83 3.67 12.5 3.67 19.58 0 23.03-14.07 41.71-31.41 41.71-17.35 0-31.42-18.68-31.42-41.71 0-1.28.04-2.55.13-3.81 1.45-21.25 14.91-37.9 31.29-37.9 12.01 0 22.46 8.96 27.74 22.13zm-15.96 17.56c0-11.25-5.271-20.359-11.771-20.359s-11.76 9.109-11.76 20.359c0 11.24 5.26 20.36 11.76 20.36s11.771-9.12 11.771-20.36zm-53.98.73c.5 2.93.76 5.98.76 9.11 0 23.04-14.069 41.71-31.42 41.71-16.859 0-30.609-17.63-31.38-39.771-.02-.64-.03-1.29-.03-1.939 0-23.03 14.061-41.7 31.41-41.7 14.99 0 27.54 13.94 30.66 32.59zm-18.88 7.09c0-11.24-5.27-20.35-11.76-20.35-6.5 0-11.771 9.109-11.771 20.35 0 11.25 5.271 20.37 11.771 20.37 6.49 0 11.76-9.12 11.76-20.37zm-400.66 46.1v.02c-7.84 24.13-27.71 41.271-50.99 41.271-23.95 0-44.3-18.15-51.64-43.381v-.01c8.4 3.34 15.74 6.2 20.68 8.03 13.41 4.97 23.79 3.86 29.82 2.25 3.84-1.021 5.93-2.25 5.93-2.25z" fill="#787878"/><path d="m380.02 536.67a74.8 74.8 0 0 1 1.4 14.49c0 35.42-24.43 64.14-54.56 64.14s-54.56-28.72-54.56-64.14c0-2.25.1-4.48.29-6.67 2.84-32.3 26.06-57.48 54.27-57.48 25.89 0 47.58 21.21 53.16 49.66zm-27.04 14.48c0-12.44-8.57-22.521-19.15-22.521-10.59 0-19.17 10.08-19.17 22.521 0 12.439 8.58 22.529 19.17 22.529 10.58.001 19.15-10.089 19.15-22.529z" fill="#787878"/><path d="m106.79 284.68 109.95-9.55h.01c-.36 1.87-.71 3.84-1.08 5.89l-11.14 106.03h-.01l-123.73-2.43c8.94-26.82 23.56-97.51 23.56-97.51s-.34-.82-.78-2.19zm195.82 58.22s1.29 13.16-8.26 15.49c-9.55 2.32-67.63 8.77-67.63 8.77s-16.35 3.33-15.75-1.8l1.29-11.1 7.23-68.67s.78-13.25 12.65-13.68c16.03-.59 54.98-.78 54.98-.78s15.49-.51 15.49 15.49z" fill="#fff"/><g fill="#fff400"><path d="m192.96 497.09 76.44-8.43c-2.88 10.67-4.65 23-5.72 33.93l-66.7 7.47-4.19-.02.13-32.48z"/><path d="m204.53 387.05-11.57 110.04-.04.47s-25.19 1.62-47.94-4.88-72.25-21.2-72.25-21.2c1.02-33.12 3.24-72.4 8.06-86.86l123.73 2.43z"/><path d="m232.14 271.91c-11.87.43-12.65 13.68-12.65 13.68l-7.23 68.67-1.29 11.1c-.6 5.13 15.75 1.8 15.75 1.8s58.08-6.45 67.63-8.77c9.55-2.33 8.26-15.49 8.26-15.49v-56.28c0-16-15.49-15.49-15.49-15.49s-38.95.19-54.98.78zm-16.47 9.11c.37-2.05.72-4.02 1.08-5.89 4.52-24.26 8.03-33.68 22.28-33.68v-.24h93.64l.62 9.61 11.51 179.56.87 13.55s-48.34-6.09-69.06 26.811c-2.96 4.7-5.32 10.96-7.21 17.92l-76.44 8.43 11.57-110.04z"/><path d="m215.67 238.36c14.62 8.13 9.34 2.85 9.34 2.85h14.02v.24c-14.25 0-17.76 9.42-22.28 33.68h-.01l-109.95 9.55-3.22.24c-1.83-5.7-5.47-20.84 5.66-25.43 13.81-5.69 91.81-29.25 106.44-21.13zm549.63 185.6-61.14 5.47-28.69-97.82 64.12 2.74zm-117.59-94.55 29.39 102.44-61.05 5.45-32.45-110.63zm-58.42 110.28-60.98 5.45-35.98-122.68 64.11 2.74z"/><path d="m778.33 292.4v130.4l-9.18.82-3.85.34-25.71-89.61-64.12-2.74 28.69 97.82-27.06 2.42-29.39-102.44-64.11-2.74 32.45 110.63-26.76 2.39-32.85-114.49-64.11-2.74 35.98 122.68-61.33 5.48-.24-2.63-64.19-199.88.29-4.02 63.58 4.65 19 51.37 122.56 3.95 31.09 1.01 123.42 3.98v-32.5z"/><path d="m466.74 447.99.24 2.63-3.91.35-25.24-2.98-88.91-17.87-4.12.26-11.51-179.56 4.26-.27 53.62-7.31 11.67.85-.29 4.02z"/><path d="m616.05 437.3 61.05-5.45 27.061-2.42 61.14-5.47 3.851-.34.29 3.22v46.44l-35.16 9.43c-5.28-13.17-15.73-22.13-27.74-22.13-16.38 0-29.84 16.65-31.29 37.9l-10.912 2.52c-3.12-18.65-15.67-32.59-30.66-32.59-17.35 0-31.41 18.67-31.41 41.7 0 .649.011 1.3.03 1.939l-4.479.13-206.68 23.5c-.04-3.899-.4-7.72-1.05-11.43 2.91-59.72-43.74-79.64-43.74-79.64l-.68-.681-.87-13.55 4.12-.26 88.91 17.87 25.24 2.979 3.91-.35 61.329-5.48 60.98-5.449z"/></g><g fill="none" stroke="#231f20"><g stroke-width="21"><path d="m244.8 554.19-46.2 5.93s-2.09 1.229-5.93 2.25c-6.03 1.61-16.41 2.72-29.82-2.25-4.94-1.83-12.28-4.69-20.68-8.03-28.87-11.47-70.32-28.53-70.32-28.53s0-23.79.88-52.079c1.02-33.12 3.24-72.4 8.06-86.86 8.94-26.82 23.56-97.51 23.56-97.51s-.34-.82-.78-2.19c-1.83-5.7-5.47-20.84 5.66-25.43 13.81-5.69 91.81-29.25 106.44-21.13 14.62 8.13 9.34 2.85 9.34 2.85h107.66l.62 9.61 11.51 179.56.87 13.55s-48.34-6.09-69.06 26.811c-2.96 4.7-5.32 10.96-7.21 17.92-2.88 10.67-4.65 23-5.72 33.93-1.61 16.25-1.7 29.4-1.7 29.4zm-40.28-167.14-123.73-2.43m26-99.94 109.95-9.55"/><path d="m242.48 241.61a38.27 38.27 0 0 0 -3.45-.16c-14.25 0-17.76 9.42-22.28 33.68-.36 1.87-.71 3.84-1.08 5.89l-11.14 106.03-11.57 110.04 76.44-8.43h.03m-76.76 73.71.12-32.33.13-32.48s-25.19 1.62-47.94-4.88-72.25-21.2-72.25-21.2m124.25 58.58 66.7-7.47 2.04-.23m71.83-271.81 53.62-7.31 11.67.85 63.58 4.65 19 51.37 122.56 3.95 31.09 1.01 123.42 3.98v-32.5l15.84 15.85v130.4l-9.18.82-3.85.34-61.14 5.47-27.06 2.42-61.05 5.45-26.76 2.39-60.98 5.45-61.33 5.48-3.91.35"/><path d="m212.26 354.26 7.23-68.67s.78-13.25 12.65-13.68c16.03-.59 54.98-.78 54.98-.78s15.49-.51 15.49 15.49v56.28s1.29 13.16-8.26 15.49c-9.55 2.32-67.63 8.77-67.63 8.77s-16.35 3.33-15.75-1.8zm252.85 163.61-2.04-66.9-25.24-2.98-88.91-17.87m315.42 70.88c.5 2.93.76 5.98.76 9.11 0 23.04-14.069 41.71-31.42 41.71-16.859 0-30.609-17.63-31.38-39.771-.02-.64-.03-1.29-.03-1.939 0-23.03 14.061-41.7 31.41-41.7 14.99 0 27.54 13.94 30.66 32.59z"/></g><path d="m645.46 508.09c0 11.25-5.27 20.37-11.76 20.37-6.5 0-11.771-9.12-11.771-20.37 0-11.24 5.271-20.35 11.771-20.35 6.49 0 11.76 9.11 11.76 20.35z" stroke-width="14"/><path d="m734.28 482.71c2.34 5.83 3.67 12.5 3.67 19.58 0 23.03-14.07 41.71-31.41 41.71-17.35 0-31.42-18.68-31.42-41.71 0-1.28.04-2.55.13-3.81 1.45-21.25 14.91-37.9 31.29-37.9 12.01 0 22.46 8.96 27.74 22.13z" stroke-width="21"/><path d="m718.32 500.27c0 11.24-5.271 20.36-11.771 20.36s-11.76-9.12-11.76-20.36c0-11.25 5.26-20.359 11.76-20.359s11.771 9.109 11.771 20.359z" stroke-width="14"/><path d="m769.44 426.84v46.44l-35.16 9.43-7.11 1.9m-119.06-184.5v-26l30.96 30.96m-110.58 140.68-.18-.61-35.98-122.68 64.11 2.74 32.85 114.49.13.47m26.74-2.47-.11-.39-32.45-110.63 64.11 2.74 29.39 102.44.06.22m27.06-2.45-.06-.19-28.69-97.82 64.12 2.74 25.71 89.61v.02m-362.75-175.87 64.19 199.88m-196.21 96.3c-.28-2.55-.42-5.14-.42-7.78 0-4.529.42-8.95 1.23-13.22 5.64-29.88 30.04-52.36 59.29-52.36 29.55 0 54.17 22.96 59.46 53.32.65 3.71 1.01 7.53 1.05 11.43.01.271.01.551.01.83" stroke-width="21"/><path d="m346.35 444.61s46.65 19.92 43.74 79.64v.08m-10.07 12.34a74.8 74.8 0 0 1 1.4 14.49c0 35.42-24.43 64.14-54.56 64.14s-54.56-28.72-54.56-64.14c0-2.25.1-4.48.29-6.67 2.84-32.3 26.06-57.48 54.27-57.48 25.89 0 47.58 21.21 53.16 49.66zm-135.22 17.54c-7.84 24.13-27.71 41.271-50.99 41.271-23.95 0-44.3-18.15-51.64-43.381" stroke-width="21"/><path d="m352.98 551.15c0 12.439-8.57 22.529-19.15 22.529-10.59 0-19.17-10.09-19.17-22.529 0-12.44 8.58-22.521 19.17-22.521 10.58.001 19.15 10.081 19.15 22.521z" stroke-width="14"/><path d="m383.86 536.51 7.28-.83 206.68-23.5" stroke-width="21"/><path d="m660 502 4.34-1 10.91-2.52 10.75-2.48"/></g><path d="m0 0h850.394v850.394h-850.394z" fill="none"/></svg>