<svg height="850.394" viewBox="0 0 850.394 850.394" width="850.394" xmlns="http://www.w3.org/2000/svg"><path d="m554.9 573.43s7.359 56.101 36.79 86.45c28.1 28.97 115.229 33.11 154.3-36.17-12.4 59.36-41.56 91.85-85.99 104.29-8.55 2.39-17.02 3.31-25.26 2.95l-75.48-46.561c-7.09-10.899-12.319-23.01-15.109-35.52 11.17-35.18 10.55-62.561 10.55-62.561l-.2-12.869z" fill="#abd150"/><path d="m635.83 731.62h-136.11l14.92-20.84 26.78-37.4 17.84 11.01c16.96 26.07 44.61 45.24 75.48 46.561z" fill="#231f20"/><path d="m548.36 188.49 6.13 384.95h.01l.2 12.869s.62 27.381-10.55 62.561c-6.08 19.1-15.641 40.51-30.67 61.08-12.221 16.72-28.061 32.88-48.601 46.8 0 0-25.42 18.46-134.58 17.17h-1.03c-109.16 1.29-134.57-17.17-134.57-17.17-92.27-62.54-89.82-170.44-89.82-170.44l7.66-480.99h.62c10.24 18.4 103.41 32.81 216.84 32.81s206.6-14.41 216.84-32.81h.2l.21 12.9 1.111 70.27z" fill="#abd150"/><path d="m559.26 684.39 75.48 46.561c-30.87-1.321-58.52-20.491-75.48-46.561z" fill="#231f20"/><path d="m547.77 101.95c0 1.14-.319 2.26-.93 3.37h-433.68c-.61-1.11-.93-2.23-.93-3.37 0-19.98 97.5-36.17 217.77-36.17s217.77 16.19 217.77 36.17z" fill="#fff5b4"/><g fill="#231f20"><path d="m602.6 129.93.12.22-34.63 28.26c9.67-11.33 21.4-21.47 34.51-28.48z"/><path d="m639.68 120.01-36.96 10.14-.12-.22c11.45-6.13 23.96-9.87 37.08-9.92z"/><path d="m639.68 120.01c-13.12.05-25.63 3.79-37.08 9.92-13.109 7.01-24.84 17.15-34.51 28.48l-11.96 9.76-7.67-49.97h97.8z"/></g><path d="m113.16 105.32h433.68c-10.24 18.4-103.41 32.81-216.84 32.81s-206.6-14.41-216.84-32.81z" fill="#fff5b4"/><g fill="none" stroke="#231f20"><path d="m548.36 188.49c4.84-10.1 11.55-20.51 19.729-30.08 9.67-11.33 21.4-21.47 34.51-28.48 11.45-6.13 23.96-9.87 37.08-9.92.11-.01.21-.01.32-.01 35.57 0 111.71 20.53 111.71 111.78 0 .77-.01 1.53-.02 2.29l-1.82 366.03c-1.03 8.301-2.32 16.17-3.88 23.61-12.399 59.36-41.559 91.85-85.989 104.29-8.55 2.39-17.02 3.31-25.26 2.95-30.87-1.32-58.521-20.49-75.48-46.561-7.09-10.899-12.319-23.01-15.109-35.52" stroke-width="28"/><g stroke-width="22.072"><path d="m547.04 105.32.21 12.9 1.11 70.27 6.13 384.95h.01l.2 12.869s.62 27.381-10.55 62.561c-6.08 19.1-15.641 40.51-30.67 61.08-12.221 16.72-28.061 32.88-48.601 46.8 0 0-25.42 18.46-134.58 17.17h-1.03c-109.16 1.29-134.57-17.17-134.57-17.17-92.27-62.54-89.82-170.44-89.82-170.44l7.66-480.99"/><path d="m113.16 105.32c-.61-1.11-.93-2.23-.93-3.37 0-19.98 97.5-36.17 217.77-36.17s217.77 16.19 217.77 36.17c0 1.14-.319 2.26-.93 3.37-10.24 18.4-103.41 32.81-216.84 32.81s-206.6-14.41-216.84-32.81zm441.74 468.11s7.359 56.101 36.79 86.45c28.1 28.97 115.229 33.11 154.3-36.17a118.59 118.59 0 0 0 4.01-7.71m-110.32-495.99 6.58-1.81h-97.8l7.67 49.97 11.96-9.76 34.63-28.26zm-3.85 611.61h-136.11l14.92-20.84 26.78-37.4"/></g></g><path d="m0 0h850.394v850.394h-850.394z" fill="none"/></svg>