<svg height="850.394" viewBox="0 0 850.394 850.394" width="850.394" xmlns="http://www.w3.org/2000/svg"><path d="m645.25 472.87s45.27 100.82 33.58 128.57c-15.35 36.449-34.54 47.01-54.68 51.8l-16.2.439c-20.15-4.8-39.34-15.35-54.7-51.81-11.68-27.75 33.59-128.561 33.59-128.561l-.109-.439h58.519z" fill="#33a02c"/><path d="m614.93 356.98c17.49 0 31.67 14.18 31.67 31.66 0 17.49-14.18 31.67-31.67 31.67-17.479 0-31.649-14.18-31.649-31.67-.001-17.48 14.169-31.66 31.649-31.66zm.58-115.34c17.49 0 31.67 14.18 31.67 31.67 0 17.48-14.18 31.66-31.67 31.66-17.479 0-31.66-14.18-31.66-31.66 0-17.49 14.18-31.67 31.66-31.67z" fill="#be0000"/><path d="m351.68 566.66s45.27 100.81 33.58 128.56c-15.35 36.46-34.54 47.021-54.68 51.811l-16.2.43c-20.15-4.79-39.34-15.34-54.69-51.81-11.69-27.741 33.58-128.561 33.58-128.561l-.11-.43z" fill="#33a02c"/><path d="m321.36 450.77c17.49 0 31.67 14.171 31.67 31.66 0 17.49-14.18 31.67-31.67 31.67s-31.66-14.18-31.66-31.67 14.17-31.66 31.66-31.66zm.58-115.34c17.49 0 31.66 14.17 31.66 31.66s-14.17 31.66-31.66 31.66-31.66-14.17-31.66-31.66 14.17-31.66 31.66-31.66z" fill="#be0000"/><g fill="none"><g stroke="#000" stroke-width="20.031"><path d="m124.3 535.95s28.76-44.88 36.45-61.4c25.87-55.5 23.03-147.75 34.54-189.01 11.52-41.25 27.8-78.08 66.2-95.94 7.92-3.68 16.55-5.9 25.32-6.67 36.92-3.26 76.38 19.07 76.38 65.19 0 0 3.85 43.18-23.98 59.49-3 1.76-5.46 3.29-7.48 4.66-11.42 7.78-8.83 10.65-8.83 21.24"/><path d="m286.81 182.94c38.97 3.28 66.7 31.05 66.7 70.78 0 0 3.65 41.09-21.99 58.24-.65.44-1.31.85-1.99 1.25m24.07 53.88c0 17.49-14.17 31.66-31.66 31.66s-31.66-14.17-31.66-31.66 14.17-31.66 31.66-31.66 31.66 14.17 31.66 31.66zm-.57 115.34c0 17.49-14.18 31.67-31.67 31.67s-31.66-14.18-31.66-31.67c0-17.489 14.17-31.66 31.66-31.66s31.67 14.17 31.67 31.66zm-31.09-83.68v42.86m0 73.24v42.86m-28.67 9.38s-45.27 100.82-33.58 128.561c15.35 36.47 34.54 47.02 54.69 51.81l16.2-.43c20.14-4.79 39.33-15.351 54.68-51.811 11.69-27.75-33.58-128.56-33.58-128.56h-58.52zm16.2 197.21h23.98" stroke-linecap="round" stroke-linejoin="round"/><path d="m417.86 442.16s28.77-44.87 36.47-61.4c25.86-55.5 23.03-147.75 34.53-189.01 11.51-41.25 27.8-78.08 66.21-95.94 7.92-3.68 16.54-5.9 25.31-6.67 36.92-3.26 76.38 19.07 76.38 65.19 0 0 3.851 43.18-23.979 59.49-2.74 1.61-5.04 3.03-6.96 4.31-12.021 8.05-9.351 10.84-9.351 21.59"/><path d="m580.38 89.15c38.97 3.28 66.71 31.05 66.71 70.79 0 0 3.59 40.52-21.479 57.88-.801.56-1.641 1.09-2.511 1.6m24.08 53.89c0 17.48-14.18 31.66-31.67 31.66-17.479 0-31.66-14.18-31.66-31.66 0-17.49 14.181-31.67 31.66-31.67 17.49 0 31.67 14.18 31.67 31.67zm-.58 115.33c0 17.49-14.18 31.67-31.67 31.67-17.479 0-31.649-14.18-31.649-31.67 0-17.48 14.17-31.66 31.649-31.66 17.49 0 31.67 14.18 31.67 31.66zm-31.09-83.67v42.85m0 73.24v42.86m-28.67 9.39s-45.27 100.811-33.59 128.561c15.36 36.46 34.55 47.01 54.7 51.81l16.2-.439c20.14-4.79 39.33-15.351 54.68-51.8 11.689-27.75-33.58-128.57-33.58-128.57h-58.52zm16.2 197.21h23.99" stroke-linecap="round" stroke-linejoin="round"/></g><path d="m0 0h850.394v850.394h-850.394z"/></g></svg>