<svg height="850" viewBox="0 0 850 850" width="850" xmlns="http://www.w3.org/2000/svg"><path d="m494.1 324.5h1.3l1-.5 1-.8.8-1 .8-1 .5-1.3.3-1.3v-1.3l-.3-1.5-.3-1.3-.8-1.3-.8-.8-.8-1-1-.5-1.3-.3-1-.3-1.3.3-1 .5-1 .8-.8.8-.8 1-.5 1.3-.3 1.3v1.5l.3 1.3.5 1.5.5 1 .8 1 .8.8 1 .8 1.3.3zm-.5-22 1.5 1.8 1.5 2.3 1.5 2.8 1.3 3.3.5 1.8.3 2v4l-.3 2.3-.8 2-1.5 3.8-1 1.8-.5.8-1.5.8-.3-.5-2.3-.5-1.8-.5-1.8-.8-1.5-1-1.3-1.3-1.3-1-2-2.3-.3-.5-.3-.8-.3-1.8v-2l.3-2 1-3.8.8-2.3 4-3.3 3.3-2.5z" fill="#a9d7f3"/><path d="m482.6 323.8 2 2.2 1.3 1 1.2 1.3 1.5 1 1.8.7 1.7.5 2.3.5.2.5-1.5.8-2.5.7-3.2.8-4 .2-9.8.3h-26.2l-.3-.3-.2-.5-.3-1v-.5l.3-.7.5-.8.7-.7 1.3-1 1.5-1 1.7-1 2.3-1.3 6.2-2.5 3.5-1.2 3.3-1.5 6-3 5.2-3.3 4.8-3.2-.8 2.2-1 3.8-.2 2v2l.2 1.7.3.8z" fill="#fff"/><path d="m630.1 443.5-.2 3.5-.8 3.5-1.2 3.3-1.8 3.2-2 2.8-2.5 2.7-2.7 2.3-3.3 2-3.5 1.7-3.7 1.3-4.3.7-4 .3-3.2-.3-3-.2-2.8-.8-2.7-1-2.8-1-2.5-1.5-2.2-1.5-2-1.7-2-2-1.8-2-1.5-2.3-1.2-2.5-1-2.5-.8-2.5-.5-2.7-.2-2.8.2-3 .5-2.5.8-2.7 1-2.5 1.2-2.5 1.5-2.3 1.8-2 2-2 2-1.7 2.2-1.5 2.5-1.5 2.8-1 2.7-1 2.8-.8 3-.2 3.2-.3 2.8.3 2.7.2 2.8.8 2.7.7 2.5 1 2.3 1.3 2.2 1.2 2.3 1.8 1.7 1.7 1.8 1.8 1.5 2 1.5 2.2 1 2.3 1 2.2.7 2.5.3 2.5z" fill="#ed1d31"/><path d="m267.6 485.3-1.7.5-2 .2-5.3.5-3.7.3-3.5-.3-3.5-.5-3.3-1-3-1.2-3.2-1.5-3-2-3.3-2.3-3.5-2.7-3.7-3.3-8.5-7.7-22.8-22-3.7-3.8-3.8-3.7-3.2-4-3.3-4-3.2-4.3-2.8-4.2-2.7-4.3-2.8-4.5-4.7-8.7-4.3-9-3.7-9-3.3-9-2.7-8.8-2.3-8.5-2.2-8.5-1.8-7.7-2.7-14.5-2-12.3-.8-5.7-.7-6.5-.5-7.5-.5-8-.3-8.3v-9l.3-9 .5-9.2.7-9.3 1.3-9 1.2-9 1.8-8.5 2.2-8 2.5-7.5 1.3-3.5 1.5-3.5 1.7-3 1.8-3 7-10.5 7-9.7 6.2-8.5 5.8-7.3 8.5-10.2 3.2-3.8 3-2.5 7.8-6.5 5.7-4.5 6.3-5.2 7.2-5.3 8-5.5 8.5-5.7 8.8-5.3 9.2-5.2 9.3-4.5 4.7-2.3 4.8-1.7 4.7-1.8 4.5-1.5 4.8-1 4.5-1 4.2-.5 4.5-.5 17-.7 16.5-.8 16-.7 15.5-.3h7.3l7.2.3 7 .7 6.8.8 6.5 1.2 6.2 1.3 6 2 5.5 2.2 5.8 2.8 6.2 3.2 6.3 3.8 6.7 4.2 6.8 4.5 6.7 4.8 6.8 5 6.7 5 13.3 10.2 11.7 10.3 5.5 4.7 5 4.8 4.3 4.2 3.7 4 2.3 2.5 2 2.8 1.5 2.7 1.5 3 1 2.8.7 2.7.5 3 .3 3v2.8l-.3 3-.5 2.7-.5 3-1 2.8-1.2 2.7-1.5 2.8-1.5 2.7-3 4.5-3.8 4-4 4-4.5 3.8-4.2 2.7-3.8 2.5-4 2-3.7 1.8-3.8 1.2-4 1.3-4.2 1-4.3 1-9.5 1.5-11 1.7-13 2-15.5 3-8 1.5-7.7 1-7.3 1-6.5.5-11.7 1-5.3.5-4.7.5-4.3.8-3.7 1-3.3 1.5-1.5.7-1.5 1-1.2 1-1 1.3-1.3 1.2-.7 1.5-.8 1.8-.7 2-.8 2-.2 2.2-.8 4.8-.7 4.7-1 10-.8 10-.7 10-1 10-.8 4.5-1 4.8-1.2 4.5-1.3 4.2-1.7 4-1.8 3.8-2 3.2-1.7 2.5-1.5 2-1.3 1.3-1.2.7-1 .3h-.8l-.7-.3-.5-.7-.5-.5-.5-1.8-.3-2-4-8-4-7.2-2-3.3-2-3.2-2-2.8-2.2-2.2-2.3-2-2.5-1.8-2.5-1.2-2.7-.8-3-.2-3.3.2-3.5.8-3.5 1.5-3.7 1.7-3.8 2-3.2 2.5-3.3 2.5-3 2.8-2.7 3-2.3 3-2.2 3.5-1.8 3.7-1.5 3.8-1 4.2-.7 4.3-.3 4.5.3 4.7.5 5 1.2 5.3 1.3 4.2 1.7 4 2 4 2 3.5 2.5 3.5 2.5 3.3 5.5 6.5 5.5 6.2 2.5 3 2.3 3.3 2.2 3.2 2 3.5 1.8 3.8 1.2 3.7-10.2 35-1.8 5.5-1 5-1 4.5-1 3.8-.5 1.7-.7 1.5-.8 1.3-1 1.2-1 1.3-1.5 1-1.5.7z" fill="#f6cc4b"/><path d="m649.4 572.3 2 2.5 2 2 2.2 1.5 2 1.2 2.3.5 2 .3 2.2-.3 2-.7 1.8-1 2-1.5 1.5-2 1.5-2.3 1.5-2.7 1-3 1-3.3.5-3.7 1-7.5.7-7.5 1-13.5.5-9.8.3-3.7-31-45-1.3-2.3-2-3.2-2.2-3.5-2.5-4.3-2.3-4.2-2.2-4.8-.8-2.5-.7-2.5-.5-2.5-.5-2.5-.3-2.7.3-3 .7-2.8 1.3-2.7 1.5-2.8 2.2-2.5 2.8-2.2 3.5-2.3h1l1.5 1 2 2 2.5 2.5 6.7 7.3 8.3 9.5 10 11.5 11.2 12.5 12.3 13.5 13 13.7 1.5 1.5 1.5 2.3 1.2 2.2 1 2.8 1.3 3 1 3.2 2 7.3 1.5 8 1.5 8.5 1.2 9 .8 9 1 9 .5 8.7.5 15.8.2 12-.2 4.2-.3 2.8-.7 3-1.3 3.7-2 4.8-2.5 5.2-6 12.8-7.2 14.7-7.8 16-8 16.3-7.2 16-3.3 7.7-3 7.3-3.5 10-2.5 7.7-2.5 9-2.7 10-2.3 10.3-1 5-.7 5-.5 5-.3 4.7-101.5-11.5 6-14 3.5-8 3.3-8.5 3-8 2.5-7.7.7-3.5.8-3.3.2-2.7v-5l-.5-2.8-1.7-6-2-6.7-2.5-7-4.8-13.8-2-6-.5-2.5-.5-2.5-.7-6v-9.5l.5-3.7.5-3.8.7-3.7.8-3.8 1-3.7 2.7-7.8 3.3-8 3.7-8.5 4.5-8.7 5.3-9 2.5-4.8 2-4.7 2-5.3 1.7-5.2 1.8-5.5 1.5-5.8 1.2-5.5 1-5.7 2-11 1.5-10.5 1-9.8.8-8 1-10.7.5-4.5 1-4.3 1-3.5.5-1.5 1-1.2.7-1.3 1-.7 1-.8 1.3-.7 2-.5h2.2l2.8.5 2.7.7 3 1.3 3 1.7 2.8 2.3 2.5 2.7 2.5 2.8 2 3.5 2 3.5 1.5 3.7 1.5 4.3 1 4.2.7 4.3.5 4.5v4.7l-.2 4.8-.5 4.7-1.3 4.5-1 4.5-.7 5.3-.8 6-.5 6.2-.2 6.3v6l.5 5.5.5 2.2zm-165.5-261.5-4.8 3.3-5.3 3.3-6 3-3.3 1.5-3.5 1.3-6.3 2.5-2.3 1.3-1.8 1-1.5 1-1.3 1-.8.8-.5.8-.3.8v.5l.3 1 .3.5.3.3h26.3l9.8-.3 4-.3 3.3-.8 2.5-.8 1.5-.8 1.5-.8.5-.8 1-1.8 1.5-3.8.8-2 .3-2.3v-4l-.3-2-.5-1.8-1.3-3.3-1.5-2.8-1.5-2.3-1.5-1.8-2.5 2.5-3.3 2.5zm65.7 210-2.8 1-3 .8-6.5 1.5-6.8 1.3-7 1-7 1.3-6.3 1.5-3 1-2.8 1-2.3 1.3-2 1.5-2.5 2-1.8 2.3-1.8 2.3-1.3 2.3-1.3 2.3-.8 2.5-.5 2.5-.5 2.5-.3 2.5.3 2.5.3 2.8.3 2.5 1.3 5 1.8 5-1 .3-4.8 5.8-4.8 5-4.8 5-4.8 4.5-4.8 4.3-4.8 4-4.8 3.8-4.8 3.5-4.8 3-4.5 3-4.8 2.5-4.8 2.3-4.8 2.3-4.5 1.8-4.8 1.8-4.5 1.5-4.5 1-4.5 1-4.5.8-4.5.8-4.5.3-4.3.3-4.5.3-4.3-.3-4.3-.3-4.3-.5-8.3-1.3-8-1.8-7.8-2.3-7.5-2.5-7.3-3-7-3.3-6.5-3.5-6.5-3.8-6-3.8-5.5-3.8-5.3-3.8-4.8-3.8-4.5-3.5-7.5-6.5-5.5-5.5-3.5-3.5 2-3.3 2-3.3 1.5-3.8 1-4.3.8-4.8.5-4.8v-4.8l-.3-5-.8-4.8-.8-4.8-2-9.5-2.3-9.5-2.5-9.5-2.3-9-.8-4.5-.8-4.3 2-.8 1.5-.8 1.5-1 1-1.3 1-1.3.8-1.3.8-1.5.5-1.8 1-3.8 1-4.5 1-5 1.8-5.5 10.3-35-1.3-3.8-1.8-3.8-2-3.5-2.3-3.3-2.3-3.3-2.5-3-5.5-6.3-5.5-6.5-2.5-3.3-2.5-3.5-2-3.5-2-4-1.8-4-1.3-4.3-1.3-5.3-.5-5-.3-4.8.3-4.5.8-4.3 1-4.3 1.5-3.8 1.8-3.8 2.3-3.5 2.3-3 2.8-3 3-2.8 3.3-2.5 3.3-2.5 3.8-2 3.8-1.8 3.5-1.5 3.5-.8 3.3-.3 3 .3 2.8.8 2.5 1.3 2.5 1.8 2.3 2 2.3 2.3 2 2.8 2 3.3 2 3.3 4 7.3 4 8 .3 2 .5 1.8.5.5.5.8.8.3h.8l1-.3 1.3-.8 1.3-1.3 1.5-2 1.8-2.5 2-3.3 1.8-3.8 1.8-4 1.3-4.3 1.3-4.5 1-4.8.8-4.5 1-10 .8-10 .8-10 1-10 .8-4.8.8-4.8.3-2.3.8-2 .8-2 .8-1.8.8-1.5 1.3-1.3 1-1.3 1.3-1 1.5-1 1.5-.8 3.3-1.5 3.8-1 4.3-.8 4.8-.5 5.3-.5 11.8-1 6.5-.5 7.3-1 7.8-1 8-1.5 15.5-3 13-2 11-1.8 9.5-1.5 4.3-1 4.3-1 4-1.3 3.8-1.3 3.8-1.8 4-2 3.8-2.5 4.3-2.8 4.5-3.8 4-4 3.8-4 3-4.5 1.5.3 3 2.5 2.8 2.5 2.5 3 2.5 3.5 2 4.5 2.3 5.3 2 6.5 2 8.3 1.5 6.3.8 5.5.3 5v9.6l-.5 4.8-1 11.5-.3 5.5v5.5l.5 5 .5 2.5.5 2.5 1 2.3 1 2.5 1.3 2.5 1.8 2.5 1.8 2.5 2.3 2.5 2.3 2.8 3 2.8 11.5 10.8 8.3 7.3 6.8 5.5 7 6 2 1.8 1.3 1.8 1 2 .8 2 .5 2 .3 2-.3 2-.3 2-.8 1.8-.8 2-.8 1.5-1 1.5-1.3 1.5-1.3 1-1.3 1-1.5.5-5.8 2-3 1-3.8.8-8.5 1.5-1 .3-1.3.8-.8 1.3-.8 1.3-.8 1.5-.3 1.8-.5 1.8v5.8l.3 2 .3 1.8.5 1.8.8 1.5.8 1.5 1 1 4.3 3.5 1.8 1.8.5 1 .5.8.3 1v1.8l-.5.8-1 1-1.3.8-1.5 1-2 1-6 2.8-5.8 2.8-5.3 2.8-5.3 3-5.5 3.5-5.8 3.8-13.8 9.3 5.8 2 14.3 4.5 8.3 2.8 8.5 2.3 7.5 2 3.5.5 3 .5-1.3 5.5-1.8 8-.5 4-.5 4v3.5l.3 1.3.5 1.3.5 1.5.5 1.8.3 2 .3 2 .3 2.3v2.5l-.3 2.5-.5 2.5-.8 2.5-1 2.5-1.3 2.3-1.5 2.3-1.8 2.3-2.3 2-2.5 1.8z" fill="#ffeec8"/><path d="m569.4 645.3v5.7l.7 6 .5 2.5.5 2.5 2 6 4.8 13.8 2.5 7 2 6.7 1.7 6 .5 2.8v5l-.2 2.7-.8 3.3-.7 3.5-2.5 7.7-3 8-3.3 8.5-3.5 8-6 14-2-.2-442.7-73 1.5-4.5 1.5-4.5 1.7-4.5 2-4.3 2.5-4 2.3-4 2.7-3.7 3-3.8 3-3.5 3.3-3.5 3.5-3.2 3.5-3.3 3.7-3.2 3.8-3 8.2-6 8.5-5.5 9-5.5 9.5-5.3 9.5-5 10-4.7 10-4.8 20-9.5 8.3-3.7 3.7-2 4-2 3.8-2 3.5-2.5 3.2-2.8 3-3 3.5 3.5 5.5 5.5 7.5 6.5 4.5 3.5 4.8 3.8 5.2 3.7 5.5 3.8 6 3.7 6.5 3.8 6.5 3.5 7 3.2 7.3 3 7.5 2.5 7.7 2.3 8 1.7 8.3 1.3 4.2.5 4.3.2 4.2.3 4.5-.3 4.3-.2 4.5-.3 4.5-.7 4.5-.8 4.5-1 4.5-1 4.5-1.5 4.7-1.7 4.5-1.8 4.8-2.2 4.7-2.3 4.8-2.5 4.5-3 4.7-3 4.8-3.5 4.7-3.7 4.8-4 4.7-4.3 4.8-4.5 4.7-5 4.8-5 4.7-5.7 1-.3 1.5 3.5 1.5 3.3 71.5 66z" fill="#a9d7f3"/><path d="m493.6 310.8 1 .2 1.3.3 1 .5.7 1 .8.7.7 1.3.3 1.2.2 1.5v1.3l-.2 1.2-.5 1.3-.8 1-.7 1-1 .7-1 .5h-2.3l-1.2-.2-1-.8-.8-.7-.7-1-.5-1-.5-1.5-.3-1.3v-1.5l.3-1.2.5-1.3.7-1 .8-.7 1-.8 1-.5z" fill="#231f20"/><g fill="none" stroke="#231f20" stroke-linecap="round" stroke-miterlimit="10"><path d="m494.6 331.5 1.5-.7.5-.8 1-1.7 1.5-3.8.8-2 .2-2.2v-4l-.2-2-.5-1.8-1.3-3.2-1.5-2.8-1.5-2.2-1.5-1.8-2.5 2.5-3.2 2.5-4 3.3-4.8 3.2-5.2 3.3-6 3-3.3 1.5-3.5 1.2-6.2 2.5-2.3 1.3-1.7 1-1.5 1-1.3 1-.7.7-.5.8-.3.7v.5l.3 1 .2.5.3.3h26.2l9.8-.3 4-.2 3.2-.8 2.5-.7z" stroke-width="7"/><path d="m506.1 278.5-.7-.2-2.3-.5-3.5-.8-5-.2h-6.7l-3.8.5-4.2.7-4.8.8-5 1.2-5.5 1.8-6 2-6.7 2.7-6 2.8-5.3 3-4.7 3-4 2.7-3.8 3-3 2.8-2.7 2.7" stroke-width="14"/><path d="m483.9 310.8-.8 2.2-1 3.8-.2 2v2l.2 1.7.3.8.2.5 2 2.2 1.3 1 1.2 1.3 1.5 1 1.8.7 1.7.5 2.3.5" stroke-width="6.25"/><path d="m516.9 198-3 4.5-3.8 4-4 4-4.5 3.8-4.2 2.7-3.8 2.5-4 2-3.7 1.8-3.8 1.2-4 1.3-4.2 1-4.3 1-9.5 1.5-11 1.7-13 2-15.5 3-8 1.5-7.7 1-7.3 1-6.5.5-11.7 1-5.3.5-4.7.5-4.3.8-3.7 1-3.3 1.5-1.5.7-1.5 1-1.2 1-1 1.3-1.3 1.2-.7 1.5-.8 1.8-.7 2-.8 2-.2 2.2-.8 4.8-.7 4.7-1 10-.8 10-.7 10-1 10-.8 4.5-1 4.8-1.2 4.5-1.3 4.2-1.7 4-1.8 3.8-2 3.2-1.7 2.5-1.5 2-1.3 1.3-1.2.7-1 .3h-.8l-.7-.3-.5-.7-.5-.5-.5-1.8-.3-2-4-8-4-7.2-2-3.3-2-3.2-2-2.8-2.2-2.2-2.3-2-2.5-1.8-2.5-1.2-2.7-.8-3-.2-3.3.2-3.5.8-3.5 1.5-3.7 1.7-3.8 2-3.2 2.5-3.3 2.5-3 2.8-2.7 3-2.3 3-2.2 3.5-1.8 3.7-1.5 3.8-1 4.2-.7 4.3-.3 4.5.3 4.7.5 5 1.2 5.3 1.3 4.2 1.7 4 2 4 2 3.5 2.5 3.5 2.5 3.3 5.5 6.5 5.5 6.2 2.5 3 2.3 3.3 2.2 3.2 2 3.5 1.8 3.8 1.2 3.7-10.2 35-1.8 5.5-1 5-1 4.5-1 3.8-.5 1.7-.7 1.5-.8 1.3-1 1.2-1 1.3-1.5 1-1.5.7-2 .8-1.7.5-2 .2-5.3.5-3.7.3-3.5-.3-3.5-.5-3.3-1-3-1.2-3.2-1.5-3-2-3.3-2.3-3.5-2.7-3.7-3.3-8.5-7.7-22.8-22-3.7-3.8-3.8-3.7-3.2-4-3.3-4-3.2-4.3-2.8-4.2-2.7-4.3-2.8-4.5-4.7-8.7-4.3-9-3.7-9-3.3-9-2.7-8.8-2.3-8.5-2.2-8.5-1.8-7.7-2.7-14.5-2-12.3-.8-5.7-.7-6.5-.5-7.5-.5-8-.3-8.3v-9l.3-9 .5-9.2.7-9.3 1.3-9 1.2-9 1.8-8.5 2.2-8 2.5-7.5 1.3-3.5 1.5-3.5 1.7-3 1.8-3 7-10.5 7-9.7 6.2-8.5 5.8-7.3 8.5-10.2 3.2-3.8 3-2.5 7.8-6.5 5.7-4.5 6.3-5.2 7.2-5.3 8-5.5 8.5-5.7 8.8-5.3 9.2-5.2 9.3-4.5 4.7-2.3 4.8-1.7 4.7-1.8 4.5-1.5 4.8-1 4.5-1 4.2-.5 4.5-.5 17-.7 16.5-.8 16-.7 15.5-.3h7.3l7.2.3 7 .7 6.8.8 6.5 1.2 6.2 1.3 6 2 5.5 2.2 5.8 2.8 6.2 3.2 6.3 3.8 6.7 4.2 6.8 4.5 6.7 4.8 6.8 5 6.7 5 13.3 10.2 11.7 10.3 5.5 4.7 5 4.8 4.3 4.2 3.7 4 2.3 2.5 2 2.8 1.5 2.7 1.5 3 1 2.8.7 2.7.5 3 .3 3v2.8l-.3 3-.5 2.7-.5 3-1 2.8-1.2 2.7-1.5 2.8z" stroke-width="14"/><path d="m267.1 479 .3 3 .2 3.3.8 4.2.7 4.5 2.3 9 2.5 9.5 2.2 9.5 2 9.5.8 4.8.7 4.7.3 5v4.5l-.5 4.8-.8 4.7-1 4.3-1.5 3.7-2 3.3-2 3.2-3 3-3.2 2.8-3.5 2.5-3.8 2-4 2-3.7 2-8.3 3.7-20 9.5-10 4.8-10 4.7-9.5 5-9.5 5.3-9 5.5-8.5 5.5-8.2 6-3.8 3-3.7 3.2-3.5 3.3-3.5 3.2-3.3 3.5-3 3.5-3 3.8-2.7 3.7-2.3 4-2.5 4-2 4.3-1.7 4.5-1.5 4.5-1.5 4.5m448.2-46.5-71.5-66-1.5-3.3-1.5-3.5-1.7-5-1.3-5-.2-2.5-.3-2.7-.2-2.5.2-2.5.5-2.5.5-2.5.8-2.5 1.2-2.3 1.3-2.2 1.7-2.3 1.8-2.2 2.5-2 2-1.5 2.2-1.3 2.8-1 3-1 6.2-1.5 7-1.2 7-1 6.8-1.3 6.5-1.5 3-.7 2.7-1 3-1.5 2.5-1.8 2.3-2 1.7-2.2 1.5-2.3 1.3-2.2 1-2.5.7-2.5.5-2.5.3-2.5v-2.5l-.3-2.3-.2-2-.3-2-.5-1.7-.5-1.5-.5-1.3-.2-1.2v-3.5l.5-4 .5-4 1.7-8 1.3-5.5-3-.5-3.5-.5-7.5-2-8.5-2.3-8.3-2.7-14.2-4.5-5.8-2 13.8-9.3 5.7-3.7 5.5-3.5 5.3-3 5.2-2.8 5.8-2.7 6-2.8 2-1 1.5-1 1.2-.7 1-1 .5-.8v-1.7l-.2-1-.5-.8-.5-1-1.8-1.7-4.2-3.5-1-1-.8-1.5-.7-1.5-.5-1.8-.3-1.7-.2-2v-5.8l.5-1.7.2-1.8.8-1.5.7-1.2.8-1.3 1.2-.7 1-.3 8.5-1.5 3.8-.7 3-1 5.7-2 1.5-.5 1.3-1 1.2-1 1.3-1.5 1-1.5.7-1.5.8-2 .7-1.8.3-2 .2-2-.2-2-.5-2-.8-2-1-2-1.2-1.7-2-1.8-7-6-6.8-5.5-8.2-7.2-11.5-10.8-3-2.7-2.3-2.8-2.2-2.5-1.8-2.5-1.7-2.5-1.3-2.5-1-2.5-1-2.2-.5-2.5-.5-2.5-.5-5v-5.5l.3-5.5 1-11.5.5-4.8v-9.5l-.3-5-.7-5.5-1.5-6.2-2-8.3-2-6.5-2.3-5.2-2-4.5-2.5-3.5-2.5-3-2.7-2.5-3-2.5" stroke-width="14"/><path d="m421.4 533.3 12.2-.3 13.3-.2 16.5-.8 18.2-1 9.5-.7 9.3-1 9-1 8.7-1.3 8-1.5 7.5-1.5m29 245.8 2-4.8 6-14 3.5-8 3.3-8.5 3-8 2.5-7.7.7-3.5.8-3.3.2-2.7v-5l-.5-2.8-1.7-6-2-6.7-2.5-7-4.8-13.8-2-6-.5-2.5-.5-2.5-.7-6v-9.5l.5-3.7.5-3.8.7-3.7.8-3.8 1-3.7 2.7-7.8 3.3-8 3.7-8.5 4.5-8.7 5.3-9 2.5-4.8 2-4.7 2-5.3 1.7-5.2 1.8-5.5 1.5-5.8 1.2-5.5 1-5.7 2-11 1.5-10.5 1-9.8.8-8 1-10.7.5-4.5 1-4.3 1-3.5.5-1.5 1-1.2.7-1.3 1-.7 1-.8 1.3-.7 2-.5h2.2l2.8.5 2.7.7 3 1.3 3 1.7 2.8 2.3 2.5 2.7 2.5 2.8 2 3.5 2 3.5 1.5 3.7 1.5 4.3 1 4.2.7 4.3.5 4.5v4.7l-.2 4.8-.5 4.7-1.3 4.5-1 4.5-.7 5.3-.8 6-.5 6.2-.2 6.3v6l.5 5.5.5 2.2.5 2.3.5 1.5.7 1.2 1 1.5 1.3 1.3 2.5 2.5 3 2.5 6.2 4.2 2.8 2 2.2 2.3" stroke-width="14"/><path d="m649.4 572.3 2 2.5 2 2 2.2 1.5 2 1.2 2.3.5 2 .3 2.2-.3 2-.7 1.8-1 2-1.5 1.5-2 1.5-2.3 1.5-2.7 1-3 1-3.3.5-3.7 1-7.5.7-7.5 1-13.5.5-9.8.3-3.7-31-45-1.3-2.3-2-3.2-2.2-3.5-2.5-4.3-2.3-4.2-2.2-4.8-.8-2.5-.7-2.5-.5-2.5-.5-2.5-.3-2.7.3-3 .7-2.8 1.3-2.7 1.5-2.8 2.2-2.5 2.8-2.2 3.5-2.3h1l1.5 1 2 2 2.5 2.5 6.7 7.3 8.3 9.5 10 11.5 11.2 12.5 12.3 13.5 13 13.7 1.5 1.5 1.5 2.3 1.2 2.2 1 2.8 1.3 3 1 3.2 2 7.3 1.5 8 1.5 8.5 1.2 9 .8 9 1 9 .5 8.7.5 15.8.2 12-.2 4.2-.3 2.8-.7 3-1.3 3.7-2 4.8-2.5 5.2-6 12.8-7.2 14.7-7.8 16-8 16.3-7.2 16-3.3 7.7-3 7.3-3.5 10-2.5 7.7-2.5 9-2.7 10-2.3 10.3-1 5-.7 5-.5 5-.3 4.7m-36.2-336 .2 3-.2 3.5-.8 3.5-1.2 3.3-1.8 3.2-2 2.8-2.5 2.7-2.7 2.3-3.3 2-3.5 1.7-3.7 1.3-4.3.7-4 .3-3.2-.3-3-.2-2.8-.8-2.7-1-2.8-1-2.5-1.5-2.2-1.5-2-1.7-2-2-1.8-2-1.5-2.3-1.2-2.5-1-2.5-.8-2.5-.5-2.7-.2-2.8.2-3 .5-2.5.8-2.7 1-2.5 1.2-2.5 1.5-2.3 1.8-2 2-2 2-1.7 2.2-1.5 2.5-1.5 2.8-1 2.7-1 2.8-.8 3-.2 3.2-.3 2.8.3 2.7.2 2.8.8 2.7.7 2.5 1 2.3 1.3 2.2 1.2 2.3 1.8 1.7 1.7 1.8 1.8 1.5 2 1.5 2.2 1 2.3 1 2.2.7 2.5z" stroke-width="14"/><path d="m270.6 572.8 1.5 1.7 3.5 3.5 5.5 5.5 7.5 6.5 4.5 3.5 4.8 3.8 5.2 3.7 5.5 3.8 6 3.7 6.5 3.8 6.5 3.5 7 3.2 7.3 3 7.5 2.5 7.7 2.3 8 1.7 8.3 1.3 4.2.5 4.3.2 4.2.3 4.5-.3 4.3-.2 4.5-.3 4.5-.7 4.5-.8 4.5-1 4.5-1 4.5-1.5 4.7-1.7 4.5-1.8 4.8-2.2 4.7-2.3 4.8-2.5 4.5-3 4.7-3 4.8-3.5 4.7-3.7 4.8-4 4.7-4.3 4.8-4.5 4.7-5 4.8-5 4.7-5.7" stroke-width="12.75"/></g></svg>