<svg height="850" viewBox="0 0 850 850" width="850" xmlns="http://www.w3.org/2000/svg"><path d="m513.9 331.8-.8 2.8.3 1.3.3 1.3v3l-.3 2-.3 1.8-.5 1.8-.5 1.5-.8 1.8-1 1.3-1 1.5-1.3 1.3-1.5 1.3-1.3 1-1.5.8-1.8.8-1.8.8-1.8.3-1.8.3-2 .3-2-.3-1.8-.3-1.8-.3-1.8-.8-1.8-.8-1.5-.8-1.5-1-1.3-1.3-1.3-1.3-1-1.5-1-1.3-.8-1.8-.5-1.5-.5-1.8-.3-1.8-.3-2v-1.5l-.3-1h-5.3l2.8-2.3 2.8-1.8 3-1.8 3.3-1.3 3.3-1.3 3.3-.8 3.5-.5 3.3-.3h5l4.5.8 4.5 1.5zm-12.5 8.5v-1.3l-.5-1-.5-1-.8-1-1-.8-1.3-.5-1.3-.3-1.3-.3-1.5.3-1.3.3-1.3.5-1 .8-.8 1-.5 1-.5 1-.3 1.3.3 1.3.5 1.3.5 1 .8.8 1 .8 1.3.5 1.3.5h2.8l1.3-.5 1.3-.5 1-.8.8-.8.5-1 .5-1.3zm-179.5-4-5.5-1.5 2.8-1.5 2.8-1.3 2.8-1.3 2.8-1 3-.8 3-.5 3-.3h5.8l2.5.5 2.3.5 2.5.5 2.3.8 2.5 1 4.5 2.3-.8 1.3v2l-.3 2-1 4-1.5 3.8-1 2-1 1.8-1.3 1.8-1.5 1.5-1.3 1.3-1.5 1.3-1.8 1-1.8.8-1.8.3-2 .3h-1.8l-2-.3-1.8-.5-1.8-.8-1.5-.8-1.8-.8-1.3-1-1.5-1.3-1-1.3-1.3-1.3-.8-1.5-1-1.8-.5-1.5-.5-1.8-.3-1.8-.3-1.8v-2.6zm25.2 4-.3-1.3-.3-1-.8-1-.8-1-1-.8-1.3-.5-1.3-.3-1.3-.3-1.3.3-1.5.3-1 .5-1 .8-.8 1-.8 1-.3 1-.3 1.3.3 1.3.3 1.3.8 1 .8.8 1 .8 1 .5 1.5.5h2.6l1.3-.5 1.3-.5 1-.8.8-.8.8-1 .3-1.3z" fill="#fff"/><path d="m295.9 646.5-.5 2.3v4.2l.2 1.8.3 1.5.5 1.5.7 1.5.8 1.2-.8 5-.5 5.3v6.5h-3.5l-1.2-.3-1.5-.2-1.8-.8-1.5-.7-3.5-2-3.7-2.8-5-4-4.5-4.2-3.8-4-2.7-3.3-.8-.5 12.5-16.2 2.3.7 2 .5 2.2.5 4.5 1.5 4.8 2.3zm284.2 3.5-2.2 3-2.5 3.3-3 3.5-3.5 3.5-3.8 3.5-2 1.5-2 1.5-2 1.2-2 1-2.2.8-2 .5-2.3.2-2-.2.8-4 .2-3.8v-3.7l-.5-3.8-.5-3.7-.7-3.3-1.3-3.5-1.7-3-2-2.5-1-1.2-1.3-1.3 2.5.5 2.8.5 2 .3 1.7.2h2l2-.5 2-.7 1.8-.8 1.2-.7.8-1.3.7-1.2.5-1.5 1-3.8 3.5-2.5z" fill="#fbee34"/><path d="m510.4 680.5-9 2-9.5 2-10.3 1.5-10.5 1.3-11 1.2-11.2.8-11.8.5-12 .2-9.7-.2-10-.3-9.8-.5-9.7-.7-9.5-.8-9-1.2-8.8-1.3-8-1.2 5-2 5.3-1.8 5.2-1.5 5.5-1.5 5.3-1.2 5.2-1 5-.8 4.3-.5 10.7-1 9.8-.5 9.5-.2 10.7.2 12.5.8 12.5 1 24.8 2.5 14.2 1.7 7.3 1z" fill="#ffffc2"/><path d="m432.1 672-10.7-.2-9.5.2-9.8.5-10.7 1-4.3.5-5 .8-5.2 1-5.3 1.2-5.5 1.5-5.2 1.5-5.3 1.8-5 2-4.5 2.2-4.2 2.3-4.5 2.7-2.5 1.3-2.5 1-2.5.5-1.3.2-1.2-.2-1.3-.3-1.2-.5-1.3-.5-1-1-1.2-1.5-1.3-2-1.2-2.5-1-2.7-1.8-6-1.5-6-1.2-4-1-3-1.3-2.3-1.5-2.2-1.7-2.5-2-2.3-2.3-2-2.5-2.2-2.5-2-2.7-1.8-4.5-2.7-4.8-2.3-4.5-1.5-2.2-.5-2-.5-2.3-.7 10.3-13.5.5.5.7 1.2 1 1.3.5.5 1 .5 2.5 1 3.5 1.5 3.5 1 2.3 1 1.2 1.2 1 1.3.8 1.5 1 3.2 1.2 2 1.5 2 1.3 1 1.5.8 1.5.7 1.5.3 3.5.5h3.7l3.5-.3h3.5l1.8.3 1.5.2 1.5.5 1.2.8 3.3 2.2 3 1.8 2.7 1.2 2.8.5 2.7.3 3-.5 3.3-.8 3.7-1.2 2.5-1 2-1.3 1.8-1.5 1.5-1.5 1-2 1-2 .5-2.2.5-2.5 2.2.5.5 2.2.8 2 .7 2.3 1 1.7 1 1.8 1.3 1.7 1.2 1.5 1.5 1.3 1.8 1.2 1.7 1 1.8.8 2 .5 2 .5 2.2.2 2.3-.2 2.5-.3 1.5-.2 1.2-.5 2.8-1 1.2-.5 1.5-.3 1.5-.2h1.5l2 .5 2 1 1.8 1 1.7 1.2 3.5 2.5 1.8 1 2 1 2 .5 2 .3 1.7-.5 1.8-.5 2-1 1.7-1 4-2.3 2-1 2.3-1 2.5-.5 2.5-.5 2.7.3 3.3.5 3.2 1.2 3.8 1.8 2.5 1.2 3.5 1 4.5 1 4.7.8 5 .5h5l4.8-.5 2.2-.3 2-.7 1.8-.5 1.5-.8 1-1 1-1 1.7-2 1.8-2.2 1.7-2 1.3-1 1.2-.8 1.5-.7 1.8-.5 2.2-.3 2.3-.2h2.7l2.3-.5 2-.5 1.5-.8 1.5-.7 1.2-.8 2.3-2 2.2-2 1.3-.7 1.5-.8 1.5-.5 1.7-.2 2-.3h2.5l1.3 1.3 1 1.2 2 2.5 1.7 3 1.3 3.5.7 3.3.5 3.7.5 3.8v3.7l-.2 3.8-.8 4-.5 2.7-.2 1.3-1 3.2-1.8 4.8-1.5 3-1.5 3.2-4.2-2.5-10.8-3.5-10.5-3.5-6.2-1.5-7-1.5-7.3-1-14.2-1.7-24.8-2.5-12.5-1z" fill="#fbee34"/><path d="m300.9 605.3 3.8-6 1.8-2.5 1.5-1.8 1.5-1.3 2-1.5 2.3-1.3 2.5-1.3 5.8-2.8 6.8-3 6.8-3 7-3.3 6.5-3.5 3.3-2 2.8-2 3-2.8 2-2.5 1.5-2.3 1-2.5.3-2-.3-2-.8-2-.8-1.8-1-1.5-1.3-1.5-2.5-2.3-2-1.3-1-.5v-.3l5-2.3 2.3-1.3 2-1.3.8-.8 8.5-2 8.8-1.8 8.5-1.5 8.3-1.3 8-1 7.5-.5 6.8-.5h11.9l6.5.3 7.5.5 7.8.8 8.3 1 8.5 1.3 8.8 2 9 2.3.3-.5 3.5 1.8 3.5 1.5v.3l-.8.5-2 1.5-2.5 2.3-1.3 1.3-1.3 1.8-.8 1.5-.8 2v2l.3 2.3.8 2.3 1.5 2.5 2.3 2.5 2.8 2.5 3 2 3 2 6.5 3.5 7 3.5 7 3 6.5 2.8 5.8 2.8 2.8 1.5 2.3 1.3 1.8 1.3 1.5 1.5 1.5 1.8 1.8 2.3 3.8 6.3v-.3l3.3 4.5-3.5 2.5-4.3 3.5-4.8 3.3-5 3.3-5 3-5.3 2.8-5.3 2.5-5 2-5 1.8-10.5 3-10.5 2.5-10.3 1.8-10.5 1.3-10.3 1-10.5.8-10.8.3h-11l-4.3.3h-11.5l-7.8-.3-8.8-.5-9.3-.8-9.8-1-2.3-.5-8-1.3-8-1.8-7.5-2.3-3.5-1.3-3.5-1.3-8-3.5-7-3.3-6-3.3-5-3-4-2.8-3-2-2.8-2-4.8-2.8zm194.2 12.5.5-.3.3-.5.3-.5.3-.8v-2l-.5-2.3-.8-2-1.3-1.5-.5-.5-.8-.3-.5-.3h-.8l-.5.3-.3.5-.3.8-.3.8v2l.5 2 .8 2 1.3 1.8.5.5.8.3.5.3zm-29.5-62.3.3-.5v-.5l-.3-.8-.3-.8-1.3-1.5-1.8-1.3-2.3-1-1.8-.3h-1.6l-.5.5-.5.3-.3.8.3.5v.8l.5.8 1.3 1.3 1.8 1.5 2 .8 2 .5h.8l.8-.3.5-.3zm-8 60 .5-.3.3-.5.3-.8.3-.8v-1.8l-.5-2.3-.8-2-1.3-1.5-.5-.5-.8-.5h-1l-.8.3-.3.5-.3.8-.3.8v1.8l.5 2.3.8 2 1.3 1.5.5.5.8.5zm-20-27.2.5-.3.5-.3.3-.8.5-.8.3-1.8-.3-2.3-.8-2.3-.8-1.5-.8-.8-.5-.3-.5-.3h-.8l-.5.3-.5.3-.3.8-.3.8-.3 1.8.3 2.3.5 2.3 1 1.5.5.8.5.3.8.3zm-3-26 .5-.3.5-.3.5-.8.3-.8.3-1.8-.3-2.3-.5-2.3-1-1.5-.5-.8-.8-.3-.5-.3h-.5l-.5.3-.5.3-.5.8-.3.8-.3 1.8.3 2.3.5 2.3 1 1.5.5.8.8.3.5.3zm-8.2 52.7.3-2.3-.3-2-.3-.8-.5-.5-.3-.5-.8-.3h-.5l-.5.3-.8.5-.5.5-.8 1.8-.8 2-.3 2.3.3 2 .3.8.5.5.5.5.5.3h.5l.8-.3.5-.5.5-.5 1-1.8zm-11-56.5.3-2.3-.3-2-.3-.8-.5-.5-.5-.5-.5-.3h-.5l-.8.3-.5.5-.5.5-1 1.8-.5 2-.3 2.3.3 2 .3.8.3.5.5.5.5.3h.8l.5-.3.5-.5.8-.5.8-1.8zm-3 26 .3-2.3-.3-2-.3-.8-.5-.5-.3-.5-.8-.3h-.5l-.5.3-.8.5-.5.5-1 1.8-.5 2-.3 2.3.3 2 .3.8.5.5.5.5.5.3h.5l.5-.3.8-.5.5-.5 1-1.8zm-19.3 27.5.5-2v-2l-.3-.8-.3-.8-.5-.5-.5-.3h-.5l-.8.3-.5.3-.5.5-1.3 1.5-1 2-.3 2.3v2.8l.3.5.5.5.5.3.5.3.8-.3.5-.3.8-.5 1-1.5zm-6.2-55.7 1.8-1.3 1.3-1.5.3-.8.3-.8v-.9l-.5-.5-.5-.3-.8-.3h-.8l-2 .5-2 1-1.8 1.3-1.3 1.3-.3.8-.3.8v1.3l.5.3.5.5h1.6l2-.3zm-31.3 58.2.5-2.3v-2l-.3-.8-.3-.5-.5-.5-.5-.3-.5-.3-.8.3-.5.3-.5.5-1.3 1.8-1 2-.3 2v2.8l.3.8.5.5.5.3h.5l.8-.3.5-.3.8-.5 1-1.5z" fill="#faa41f"/><path d="m303.1 611.3 2.8 2 3 2 4 2.7 5 3 6 3.3 7 3.2 8 3.5 3.5 1.3 3.5 1.2 7.5 2.3 8 1.7 8 1.3-.5 2.5-.5 2.2-1 2-1 2-1.5 1.5-1.8 1.5-2 1.3-2.5 1-3.7 1.2-3.3.8-3 .5-2.7-.3-2.8-.5-2.7-1.2-3-1.8-3.3-2.2-1.2-.8-1.5-.5-1.5-.2-1.8-.3h-3.5l-3.5.3h-3.7l-3.5-.5-1.5-.3-1.5-.7-1.5-.8-1.3-1-1.5-2-1.2-2-1-3.2-.8-1.5-1-1.3-1.2-1.2-2.3-1-3.5-1-3.5-1.5-2.5-1-1-.5-.5-.5-1-1.3-.7-1.2-.5-.5 12.5-16.3z" fill="#abd153"/><path d="m338.1 526 15.3-4.7 2-.5h1.7l2 .2 1.5.8 1.5 1 1.5 1 1 1.2 1 1.5.8 1.8.5 1.7v3.5l-.5 1.8-.8 1.5-1 1.7-1.5 1.3-.7.7-2 1.3-2.3 1.2-5 2.3v.2l1 .5 2 1.3 2.5 2.2 1.3 1.5 1 1.5.7 1.8.8 2 .2 2-.2 2-1 2.5-1.5 2.2-2 2.5-3 2.8-2.8 2-3.2 2-6.5 3.5-7 3.2-6.8 3-6.7 3-5.8 2.8-2.5 1.2-2.2 1.3-2 1.5-1.5 1.2-1.5 1.8-1.8 2.5-3.7 6-2.5 3.2-12.5 16.3-10.3 13.5-12.5 16.2-11.2 15-8.5 11.8-7.8 11.2-9.5 14.3-16.7 7.5-2.8 1.2-3 1.5-3 1.5-2.7 2-3 2-2.8 2.3-5.7 5.2-5.8 5.5-5.5 6-5.2 6-5.3 6.3-59.7-24.3 40.7-40.2 3-3.5 2.5-3.3 2.3-3.2 2-3.8 2-4.2 1.7-5.3 2-6.5 2-8 1.3-9.2 1.2-9.8 1.8-11.5 2.2-12.2 1.3-6 1.5-5.5 1.5-5.3 1.5-4.5 1.7-4 1.8-3 54.5-25.5 87.7-41.5 2.8-.7 2-.8 2-.2h2l1.7.2 1.8.5 1.2.8 1.5 1 1 1 1 1.2.8 1.3.5 1.2.2 1.5v2.8l-.7 1.2-.8 1.3z" fill="#ffeec8"/><path d="m263.9 655 2.7 3.3 3.8 4 4.5 4.2 5 4-2 2.5-3 1.5-2.8 1.8-3 1.7-2.7 1.8-5 4-4.5 4-3.8 3.7-2.7 2.8-2.5 2.7-21.8 9.8 9.5-14.3 7.8-11.2 8.5-11.8 11.2-15z" fill="#ffeec8"/><path d="m540.6 639.5h-2.5l-2 .3-1.7.2-1.5.5-1.5.8-1.3.7-2.2 2-2.3 2-1.2.8-1.5.7-1.5.8-2 .5-2.3.5h-2.7l-2.3.2-2.2.3-1.8.5-1.5.7-1.2.8-1.3 1-1.7 2-1.8 2.2-1.7 2-1 1-1 1-1.5.8-1.8.5-2 .7-2.2.3-4.8.5h-5l-5-.5-4.7-.8-4.5-1-3.5-1-2.5-1.2-3.8-1.8-3.2-1.2-3.3-.5-2.7-.3-2.5.5-2.5.5-2.3 1-2 1-4 2.3-1.7 1-2 1-1.8.5-1.7.5-2-.3-2-.5-2-1-1.8-1-3.5-2.5-1.7-1.2-1.8-1-2-1-2-.5h-1.5l-1.5.2-1.5.3-1.2.5-2.8 1-1.2.5-1.5.2-2.5.3-2.3.2-2.2-.2-2-.5-2-.5-1.8-.8-1.7-1-1.8-1.2-1.5-1.3-1.2-1.5-1.3-1.7-1-1.8-1-1.7-.7-2.3-.8-2-.5-2.2 9.8 1 9.2.7 8.8.5 7.7.3h11.5l4.3-.3h11l10.7-.2 10.5-.8 10.3-1 10.5-1.2 10.2-1.8 10.5-2.5 10.5-3 5-1.7 5-2 5.3-2.5 5.2-2.8 5-3 5-3.2 4.8-3.3 4.2-3.5 3.5-2.5 15 21.5-3.5 2.5-1 3.8-.5 1.5-.7 1.2-.8 1.3-1.2.7-1.8.8-2 .7-2 .5h-2l-1.7-.2-2-.3-2.8-.5z" fill="#abd153"/><path d="m495.9 611.5.5 2.3v2l-.3.7-.2.5-.3.5-.5.3-.7.2-.5-.2-.8-.3-.5-.5-1.2-1.7-.8-2-.5-2v-2l.3-.8.2-.7.3-.5.5-.3h.7l.5.3.8.2.5.5 1.2 1.5zm-42.8-.5-.5-2.2v-1.8l.3-.7.2-.8.3-.5.7-.2h1l.8.5.5.5 1.2 1.5.8 2 .5 2.2v1.8l-.3.7-.2.8-.3.5-.5.2h-1.2l-.8-.5-.5-.5-1.2-1.5zm-26.7 4-.5 2-1 1.8-.5.5-.5.5-.8.2h-.5l-.5-.2-.5-.5-.5-.5-.2-.8-.3-2 .3-2.2.7-2 .8-1.8.5-.5.7-.5.5-.2h.5l.8.2.2.5.5.5.3.8.2 2zm-70.8-.5-1 2-1 1.5-.7.5-.5.3-.8.2h-.5l-.5-.2-.5-.5-.2-.8v-2.7l.2-2 1-2 1.3-1.8.5-.5.5-.2.7-.3.5.3.5.2.5.5.3.5.2.8v2zm55-36.2.8.2.2.5.5.5.3.8.2 2-.2 2.2-.5 2-1 1.8-.5.5-.8.5-.5.2h-.5l-.5-.2-.5-.5-.5-.5-.2-.8-.3-2 .3-2.2.5-2 1-1.8.5-.5.7-.5.5-.2zm23.3 5-.3-2.3.3-1.7.2-.8.3-.7.5-.3.5-.2h.7l.5.2.5.3.8.7.7 1.5.8 2.3.2 2.2-.2 1.8-.5.7-.3.8-.5.2-.5.3h-.5l-.7-.3-.5-.2-.5-.8-1-1.5zm28.5-33 1.7 1.2 1.3 1.5.2.8.3.7v.5l-.3.5-.2.5-.5.3-.8.2h-.7l-2-.5-2-.7-1.8-1.5-1.2-1.3-.5-.7v-.8l-.3-.5.3-.7.5-.3.5-.5h1.5l1.7.3zm-26 6 .2 2.2-.2 1.8-.3.7-.5.8-.5.2-.5.3h-.5l-.5-.3-.7-.2-.5-.8-1-1.5-.5-2.2-.3-2.3.3-1.7.2-.8.5-.7.5-.3.5-.2h.5l.5.2.8.3.5.7 1 1.5zm-21 2.2-.8 2-.7 1.8-.8.5-.5.5-.5.2h-.7l-.5-.2-.5-.5-.3-.5-.2-.8-.3-2 .3-2.2.5-2 1-1.8.5-.5.5-.5.7-.2h.5l.5.2.5.5.5.5.3.8.2 2zm-25-7.5v1l-.3.8-.2.7-1.3 1.5-1.7 1.3-2 1-2 .2h-1.5l-.5-.5-.5-.2v-1.3l.2-.7.3-.8 1.2-1.2 1.8-1.3 2-1 2-.5h.7l.8.3.5.2z" fill="#ffffc2"/><path d="m537.9 689 4.2 2.5-2.5 4-2.5 3.5-2.5 3-2.7 2.8-2.8 2.5-2.7 2-2.5 1.7-3.8 2.5-7 2.8-7.7 2.2-8.3 2-8.7 1.8-9.3 1.5-9.5 1-10 1-10.5.7-10.2.3-13.5.2h-13.3l-10.2-.2-12.3-.8-11.2-1.2-10.5-1.5-10.3-2-10-2.3-10-2.7-10.2-3.5-10.8-3.8-4.2-1.7-4-2.3-1.8-1.2-1.5-1.3-1.2-1.2-1.3-1.5-1-1.5-1-1.8-1.5-3.7-1-3.8-.7-4-.5-4-.3-3.7v-6.5l.5-5.3.8-5 1.5 1.8 1.7 1.7 2 1.3 2.3 1.2 4.5 2.3 4.7 2 1.5 6 1.8 6 1 2.7 1.2 2.5 1.3 2 1.2 1.5 1 1 1.3.5 1.2.5 1.3.3 1.2.2 1.3-.2 2.5-.5 2.5-1 2.5-1.3 4.5-2.7 4.2-2.3 4.5-2.2 8 1.2 8.8 1.3 9 1.2 9.5.8 9.7.7 9.8.5 10 .3 9.7.2 12-.2 11.8-.5 11.2-.8 11-1.2 10.5-1.3 10.3-1.5 9.5-2 9-2 6.2 1.5 10.5 3.5z" fill="#faa41f"/><path d="m340.4 334.3 1.2.2 1.3.3 1.2.5 1 .7.8 1 .7 1 .3 1 .2 1.3-.2 1.2-.3 1.3-.7 1-.8.7-1 .8-1.2.5-1.3.5h-2.5l-1.5-.5-1-.5-1-.8-.7-.7-.8-1-.2-1.3-.3-1.2.3-1.3.2-1 .8-1 .7-1 1-.7 1-.5 1.5-.3zm154.5 0 1.2.2 1.3.3 1.2.5 1 .7.8 1 .5 1 .5 1v2.5l-.5 1.3-.5 1-.8.7-1 .8-1.2.5-1.3.5h-2.7l-1.3-.5-1.2-.5-1-.8-.8-.7-.5-1-.5-1.3-.2-1.2.2-1.3.5-1 .5-1 .8-1 1-.7 1.2-.5 1.3-.3z" fill="#231f20"/><path d="m466.4 480 .3 2.3.3 2.3.8 2.3 1 2 1.3 2.3 1.3 1.8 1.5 2 1.8 1.8 3.8 3.5 4 2.8 4.3 2.5 4 1.8zm47.5-148.2-4.3-1.8-4.5-1.5-4.5-.8h-5l-3.3.3-3.5.5-3.3.8-3.3 1.3-3.3 1.3-3 1.8-2.8 1.8-2.8 2.3h5.3l.3 1v1.5l.3 2 .3 1.8.5 1.8.5 1.5.8 1.8 1 1.3 1 1.5 1.3 1.3 1.3 1.3 1.5 1 1.5.8 1.8.8 1.8.8 1.8.3 1.8.3 2 .3 2-.3 1.8-.3 1.8-.3 1.8-.8 1.8-.8 1.5-.8 1.3-1 1.5-1.3 1.3-1.3 1-1.5 1-1.3.8-1.8.5-1.5.5-1.8.3-1.8.3-2v-3l-.3-1.3-.3-1.3zm-161.3 173.7 4-2 4.3-2.3 4-3 3.8-3.3 1.8-1.8 1.5-2 1.3-2 1.3-2 1-2 .8-2.3.3-2.3.3-2.3zm68.8-47.2-.8.3 1.5-.3zm48.7 40-15-6-6.5-2.3-5.8-2-5.3-1.5-5-1-4.8-.5-4.5-.3-4.8.3-5 .8-5.3 1.3-5.8 1.5-6.3 2-7.3 2.3-17 6-1.8.5h2.3l3.3 3.5 3 3.5 6 7.5 3 3.3 3 3.3 2.8 2.5 3 2 3 1.5 3 1.3 3 1 3 .8 3 .8 3 .3 5.8.5 5.5-.3 5-.5 9-1 2.3-.5 2.3-.8 2.3-1 2.3-1 2.3-1.5 2.3-1.8 2-1.8 2-2 4-4.3 4-4.8 3.8-5.3 3.5-5.3zm-148.2 15v-2.3l-.3-2.5-1-2.3-1.5-2-.8-.8-1-.8-1.3-.5-1.3-.5-1.3-.3-1.3-.3-1.5.3-1.5.3-14.8 4.3-.5-2.5-.5-3-2.5-7.3-3.3-9-4-10.8-9.3-25-4.8-13.8-4.8-14.3-2.8-9.3-2.5-9.3-2.5-9.3-2-9.3-1.8-9-1.3-9-.8-8.8-.3-8.5.3-36.3.3-21.5-1.8-1.3 7-8.8 7.3-8.5 7.3-8.5 7-7.5 10.8-11.5 4.3-4.5 1.5-1 2.3-1.3 5.8-3 7.8-3.3 9.3-3.8 21.8-8.8 25-9.8 25.8-10.5 12.5-5.3 12-5.3 11.3-5 10-5 8.8-5 3.8-2.3 3.5-2.3.8.5 1.3.5 3.8 2.5 5.8 4.3 7.8 6 4.3 4 5 4.3 5 5.3 5.8 5.5 5.8 6.3 6.3 7 6.8 7.5 6.8 8.5 7 9 7.5 10 1.5 2 2 2.5 5.3 5.3 6.3 6.5 6.5 7.3 3.3 4 3.3 4 3.3 4.3 3 4.5 2.5 4.5 2.5 4.8 1.8 4.8 1.5 5v1.3l.5 19.8.3 18.3-.3 7.8-.8 8-1 8.5-1.5 8.8-1.8 9-2 9.3-2.3 9-2.5 9.3-3.3 12-3.8 11.8-7 22.3-12 35h-.5l-2.3-.5h-2.3l-2 .8-1.8 1-1.5 1.3-1.3 1.5-.8 1.8-.8 2 9.5 4.8-.3 1-11.3-2.8-2-.3-2.3-.3-1.8.3-2 .3-1.5.5-1.5.8-1.3.8-1.3 1-.8 1.3-.8 1.3-.5 1.3-.3 1.3v1.3l.3 1.5.5 1.3.8 1.3-15.3-4.8-2-.3h-2l-1.8.3-1.8.8-1.5 1-1.3 1-1.3 1.5-.8 1.5-.8 1.8-.5 1.8v1.8l.3 2 .5 1.8.8 1.5 1.3 1.8 1.8 1.3 2.3 1.5-.3.5-9-2.3-8.8-2-8.5-1.3-8.3-1-7.8-.8-7.5-.5-6.5-.3h-11.9l-6.8.5-7.5.5-8 1-8.3 1.3-8.5 1.5-8.8 1.8-8.5 2 1.5-1.3 1-1.8.8-1.5.5-1.8v-3.9l-.5-1.8-.8-1.8-1-1.5-1-1.3-1.5-1-1.5-1-1.5-.8-2-.3h-1.8l-2 .5-15.3 4.8v-.3l.8-1.3.8-1.3v-2.8l-.3-1.5-.5-1.3-.8-1.3-1-1.3-1-1-1.5-1-1.3-.8-1.8-.5-1.8-.3h-2l-2 .3-2 .8-2.8.8zm36.7-179.5-4.5-2.3-2.5-1-2.3-.8-2.5-.5-2.3-.5-2.5-.5h-5.8l-3 .3-3 .5-3 .8-2.8 1-2.8 1.3-2.8 1.3-2.8 1.5 5.5 1.5-.3 1.8v2.8l.3 1.8.3 1.8.5 1.8.5 1.5 1 1.8.8 1.5 1.3 1.3 1 1.3 1.5 1.3 1.3 1 1.8.8 1.5.8 1.8.8 1.8.5 2 .3h1.8l2-.3 1.8-.3 1.8-.8 1.8-1 1.5-1.3 1.3-1.3 1.5-1.5 1.3-1.8 1-1.8 1-2 1.5-3.8 1-4 .3-2v-2z" fill="#ffeec8"/><path d="m470.1 498.3 2.5 1-3.5 5.2-3.7 5.3-4 4.7-4 4.3-2 2-2 1.7-2.3 1.8-2.2 1.5-2.3 1-2.2 1-2.3.7-2.2.5-9 1-5 .5-5.5.3-5.8-.5-3-.3-3-.7-3-.8-3-1-3-1.2-3-1.5-3-2-2.7-2.5-3-3.3-3-3.2-6-7.5-3-3.5-3.3-3.5z" fill="#ee947d"/><path d="m372.1 498.8 17-6 7.3-2.3 6.2-2 5.8-1.5 5.2-1.2 5-.8 4.8-.2 4.5.2 4.7.5 5 1 5.3 1.5 5.7 2 6.5 2.3 15 6-97.5 1z" fill="#ee947d"/><path d="m535.1 512.3 5.3 1.2 71.7 35.8 56.8 28.2 1.7 3 1.8 3.8 1.5 4.5 1.5 5.2 1.5 5.8 1.2 6 2.3 12 1.7 11.7 1.3 9.8 1.2 9.2 2 8 2 6.3 2 5.2 1.8 4.5 2 3.5 2.2 3.3 2.5 3.5 3 3.5 35.5 35-1.7 1.7-58 30-2 .3-5.3-6.5-5.5-6.5-5.5-6-5.7-6-6-5.3-2.8-2.2-3-2.3-3-2-3-1.7-3-1.5-3-1.3-3.7-1.5-9-4.2.5-1.3-17.3-25.2-20.5-29.8-15-22-15-21.5-3.2-4.5v.3l-3.8-6.3-1.7-2.2-1.5-1.8-1.5-1.5-1.8-1.2-2.2-1.3-2.8-1.5-5.7-2.7-6.5-2.8-7-3-7-3.5-6.5-3.5-3-2-3-2-2.8-2.5-2.2-2.5-1.5-2.5-.8-2.2-.2-2.3v-2l.7-2 .8-1.5 1.2-1.7 1.3-1.3 2.5-2.2 2-1.5.7-.5v-.3l-3.5-1.5-3.5-1.7-2.2-1.5-1.8-1.3-1.2-1.7-.8-1.5-.5-1.8-.2-2v-1.7l.5-1.8.7-1.7.8-1.5 1.2-1.5 1.3-1 1.5-1 1.7-.8 1.8-.2h2l2 .2 15.2 4.8-.7-1.3-.5-1.2-.3-1.5v-1.3l.3-1.2.5-1.3.7-1.2.8-1.3 1.2-1 1.3-.7 1.5-.8 1.5-.5 2-.2 1.7-.3 2.3.3 2 .2z" fill="#ffeec8"/><path d="m226.1 706.8 21.8-9.8 2.5-2.7 2.7-2.8 3.8-3.7 4.5-4 5-4 2.7-1.8 3-1.7 2.8-1.8 3-1.5 2-2.5 3.7 2.8 3.5 2 1.5.7 1.8.8 1.5.2 1.2.3h3.5l.3 3.7.5 4 .7 4 1 3.8 1.5 3.7 1 1.8 1 1.5 1.3 1.5 1.2 1.2 1.5 1.3 1.8 1.2 4 2.3 4.2 1.7 10.8 3.8 10.2 3.5 10 2.7 10 2.3 10.3 2 10.5 1.5 11.2 1.2 12.3.8 10.2.2h13.3l13.5-.2 10.2-.3 10.5-.7 10-1 9.5-1 9.3-1.5 8.7-1.8 8.3-2 7.7-2.2 7-2.8 3.8-2.5 2.5-1.7 2.7-2 2.8-2.5 2.7-2.8 2.5-3 2.5-3.5 2.5-4 1.5-3.2 1.5-3 1.8-4.8 1-3.2.2-1.3.5-2.7 2 .2 2.3-.2 2-.5 2.2-.8 2-1 2-1.2 2-1.5 2-1.5 2.8.2 3 1.5 2.5 1.5 2.2 1.3 1.8 1.5 1.5 1.5 1.5 1.5 2.2 3.2 2.3 3.5 2.2 3.3 3 3.7 1.8 1.8 2 1.7 2 1.5 2.5 1.8 5.7 3.2 6.5 3.5 6.8 3.3 9 4.2 3.7 1.5 3 1.3 3 1.5 3 1.7 3 2 3 2.3 2.8 2.2 6 5.3 5.7 6 5.5 6 5.5 6.5 5.3 6.5-508 1.7-3.3-1.2 5.3-6.3 5.2-6 5.5-6 5.8-5.5 5.7-5.2 2.8-2.3 3-2 2.7-2 3-1.5 3-1.5 2.8-1.2z" fill="#a9d7f3"/><path d="m668.9 577.5-56.8-28.2-12.2-13.5-4.5-4.5-2.8-2.5-2.5-1.3-4.2-1.5-13.3-4-16.2-4.2-16-4.3-5-2.2 1.2-5 2.3-7.5 13 3.7 19.7 5.3 19.8 5.5 8 2.5 5.2 2 2.5 1.2 3 2 3.8 2.8 4 3.2 9.2 8 10.3 9.3 10 9.7 9 9.3 7.5 8 3 3.5zm-51 127.5-.5 1.3-6.8-3.3-6.5-3.5-5.7-3.2-2.5-1.8-2-1.5-2-1.7-1.8-1.8-3-3.7-2.2-3.3-2.3-3.5-2.2-3.2-1.5-1.5-1.5-1.5-1.8-1.5-2.2-1.3-2.5-1.5-3-1.5-2.8-.2 3.8-3.5 3.5-3.5 3-3.5 2.5-3.3 2.2-3 20.5 29.8z" fill="#ffeec8"/><path d="m612.1 549.3-71.7-35.8 16 4.3 16.2 4.2 13.3 4 4.2 1.5 2.5 1.3 2.8 2.5 4.5 4.5z" fill="#fff"/><path d="m576.4 310.3 2-.3 3-.7 3.5-.5 3.5-.3 3.7.5 3.3.8 2.7 1.2 2.5 1.5 2 1.8 1.5 2 1.3 2.5 1 2.2.5 2.8.2 2.7v2.8l-.2 2.7-.5 2.5-.5 2.8-.8 2.5-.7 2.2-1 2.3-2.3 4.7-1.7 4.3-1.5 4-1 3.7-.8 3.8-.7 3.2-.3 3.3-.2 3v6l.2 6v6.5l-.2 7-.3 1.5-.5 1.5-.5 1.7-.7 1.8-1 2-1.3 1.7-1.2 1.8-1.8 1.5-1.7 1.5-2 1.2-2.3 1.3-2.2 1-2.8.5-2.7.2h-3l-3.3-.5-2.7-.7 2.5-9.3 2.2-9 2-9.2 1.8-9 1.5-8.8 1-8.5.7-8 .3-7.7-.3-18.3-.5-19.7z" fill="#ffeec8"/><path d="m454.4 168.8-3.5 2.2-3.8 2.3-8.7 5-10 5-11.3 5-12 5.2-12.5 5.3-25.7 10.5-25 9.7-21.8 8.8-9.2 3.7-7.8 3.3-5.7 3-2.3 1.2-1.5 1-4.2 4.5-10.8 11.5-7 7.5-7.2 8.5-7.3 8.5-7 8.8-4.5 6-4 5.7-3.5 5.3-2.5 4.5-1.7-54 .2-8 .5-8 1-7.5 1.3-7.3 1.7-7.2 1.8-6.8 2.2-6.7 2.3-6.5 2.7-6.3 2.8-6 2.7-5.5 3.3-5.5 3-5.2 3.2-5 3.3-4.8 3.2-4.7 6.8-8.3 6.2-7 6-6.2 5.3-5 4.5-4 3.5-3 3.2-2.3 5.5-3.7 4.3-2.5 3.7-2 6.8-4 7.2-3.5 7.5-3.3 7.5-2.7 8-2.5 8-2.3 8.5-2 8.8-1.5 9-1.2 9.2-1 9.5-.5 9.8-.3 10.2.3 10.3.5 10.7.7 11 1 6.5 1 6.8 1.5 6.5 1.5 6.2 2 6.3 2.5 6 2.8 6 3 6 3.2 5.5 3.5 5.7 4 5.3 4.3 5.2 4.5 5.3 4.7 5 5 4.7 5.3 4.5 5.5 4.5 5.7 4.3 6 4 6 3.7 6.5 3.8 6.8 3.2 6.7 3.3 7 3 7 3 7.5 2.5 7.5 2.2 7.5 2.3 7.8 1.7 8 1.8 8 1.2 8.2 1.3 8.3.2 5.7v6l-.5 6.5-1 6.8-2 13.2-2 12.5-3.7-.5-3.5.3-3.5.5-3 .7-2 .3-.3-1.3-1.5-5-1.7-4.7-2.5-4.8-2.5-4.5-3-4.5-3.3-4.2-3.2-4-3.3-4-6.5-7.3-6.2-6.5-5.3-5.2-2-2.5-1.5-2-7.5-10-7-9-6.7-8.5-6.8-7.5-6.2-7-5.8-6.3-5.7-5.5-5-5.2-5-4.3-4.3-4-7.7-6-5.8-4.2-3.7-2.5-1.8-1z" fill="#9e5c26"/><path d="m538.4 498.8h.5l-2.3 7.5-1.2 5-9.5-4.8.7-2 .8-1.7 1.2-1.5 1.5-1.3 1.8-1 2-.7h2.2z" fill="#fff"/><path d="m466.4 480 24 27-4-1.7-4.3-2.5-4-2.8-3.7-3.5-1.8-1.7-1.5-2-1.2-1.8-1.3-2.2-1-2-.7-2.3-.3-2.2zm-113.8 25.5 24-27-.2 2.3-.3 2.2-.7 2.3-1 2-1.3 2-1.2 2-1.5 2-1.8 1.7-3.7 3.3-4 3-4.3 2.2zm20-6.2h-2.2l1.7-.5z" fill="#231f20"/><path d="m294.6 506 14.8-4.2 1.5-.3 1.5-.2 1.2.2 1.3.3 1.2.5 1.3.5 1 .7.7.8 1.5 2 1 2.2.3 2.5v2.3l-.8.2-15.2 4-21.3 5.5-10.2 2.8-9 2.5-6.8 2-2.2 1-1.3.5-3 2.7-5 5.5-13.7 15-54.5 25.5 2-2.7 3-3.3 7.5-8 9.2-9.2 10-9.8 10-9.2 9.3-8 4.2-3.5 3.5-2.8 3-2 2.5-1.2 3.5-1.3 5.3-1.7 13.2-4z" fill="#ffeec8"/><path d="m321.1 513.5-87.7 41.5 13.7-15 5-5.5 3-2.7 1.3-.5 2.2-1 6.8-2 9-2.5 10.2-2.8 21.3-5.5zm-56-93h-5l-3.2.5h-3l-3-.2-2.5-.8-2.5-.7-2.3-1.3-1.7-1.2-2-1.5-1.5-1.8-1.3-1.7-1.2-1.8-1-1.7-.8-1.8-.7-1.7-.3-1.5-.2-1.5-.3-7.3v-6.2l.3-6v-6l-.3-3.3-.5-3-.5-3.5-.7-3.5-1.3-3.7-1.2-4-2-4.5-2-4.8-1-2-1-2.2-.5-2.5-.8-2.8-.5-2.7v-5.5l.3-2.8.5-2.5.7-2.5 1.3-2.2 1.7-2 2-2 2.3-1.5 3-1 3.2-1 3.8-.3h3.5l3.2.5 3.3 1h2.2l-.2 36.3.2 8.5.8 8.7 1.2 9 1.8 9 2 9.3 2.5 9.2 2.5 9.3z" fill="#ffeec8"/><g fill="none" stroke="#231f20" stroke-linecap="round" stroke-miterlimit="10"><path d="m300.9 348.8 3.5-4 3.7-3.8 4-3.2 4.3-3 2.7-1.5 2.8-1.3 2.7-1.2 2.8-1 3-.8 3-.5 3-.2h5.7l2.5.5 2.3.5 2.5.5 2.2.7 2.5 1 4.5 2.3 2 1.2 2 1.5 2 1.5 1.8 1.8 1.7 1.7 1.8 1.8 1.2 2 1.3 2" stroke-width="12.5"/><path d="m357.9 335v2l-.3 2-1 4-1.5 3.8-1 2-1 1.7-1.2 1.8-1.5 1.5-1.3 1.2-1.5 1.3-1.7 1-1.8.7-1.7.3-2 .2h-1.8l-2-.2-1.7-.5-1.8-.8-1.5-.7-1.7-.8-1.3-1-1.5-1.2-1-1.3-1.2-1.2-.8-1.5-1-1.8-.5-1.5-.5-1.7-.2-1.8-.3-1.7v-2.8l.3-1.7.2-.8m212.3 12.8-2.3-2.8-2.2-2.2-2.3-2.5-2.5-2-2.7-2-2.8-2-2.7-1.8-3-1.2-4.3-1.8-4.5-1.5-4.5-.7h-5l-3.2.2-3.5.5-3.3.8-3.2 1.2-3.3 1.3-3 1.7-2.7 1.8-2.8 2.2-2.2 2-2 2.3-2 2.5-1.5 2.5" stroke-width="12.5"/><path d="m475.9 337.5.2 1v1.5l.3 2 .2 1.8.5 1.7.5 1.5.8 1.8 1 1.2 1 1.5 1.2 1.3 1.3 1.2 1.5 1 1.5.8 1.7.7 1.8.8 1.7.2 1.8.3 2 .2 2-.2 1.7-.3 1.8-.2 1.7-.8 1.8-.7 1.5-.8 1.2-1 1.5-1.2 1.3-1.3 1-1.5 1-1.2.7-1.8.5-1.5.5-1.7.3-1.8.2-2v-3l-.2-1.2-.3-1.3" stroke-width="12.5"/><path d="m249.4 312-3.3-1-3.2-.5h-3.5l-3.8.3-3.2 1-3 1-2.3 1.5-2 2-1.7 2-1.3 2.2-.7 2.5-.5 2.5-.3 2.8v5.5l.5 2.7.8 2.8.5 2.5 1 2.2 1 2 2 4.8 2 4.5 1.2 4 1.3 3.7.7 3.5.5 3.5.5 3 .3 3.3v6l-.3 6v6.2l.3 7.3.2 1.5.3 1.5.7 1.7.8 1.8 1 1.7 1.2 1.8 1.3 1.7 1.5 1.8 2 1.5 1.7 1.2 2.3 1.3 2.5.7 2.5.8 3 .2h3l3.2-.5m318.3-110.5 3-.7 3.5-.5 3.5-.3 3.7.5 3.3.8 2.7 1.2 2.5 1.5 2 1.8 1.5 2 1.3 2.5 1 2.2.5 2.8.2 2.7v2.8l-.2 2.7-.5 2.5-.5 2.8-.8 2.5-.7 2.2-1 2.3-2.3 4.7-1.7 4.3-1.5 4-1 3.7-.8 3.8-.7 3.2-.3 3.3-.2 3v6l.2 6v6.5l-.2 7-.3 1.5-.5 1.5-.5 1.7-.7 1.8-1 2-1.3 1.7-1.2 1.8-1.8 1.5-1.7 1.5-2 1.2-2.3 1.3-2.2 1-2.8.5-2.7.2h-3l-3.3-.5" stroke-width="14"/><path d="m294.6 506-.5-2.5-.5-3-2.5-7.2-3.2-9-4-10.8-9.3-25-4.7-13.7-4.8-14.3-2.7-9.2-2.5-9.3-2.5-9.2-2-9.3-1.8-9-1.2-9-.8-8.7-.2-8.5.2-36.3.3-21.5m283.5 220.8-.3 1v.7m41-206v3.3l.5 19.7.3 18.3-.3 7.7-.7 8-1 8.5-1.5 8.8-1.8 9-2 9.2-2.2 9-2.5 9.3-3.3 12-3.7 11.7-7 22.3-12 35m-117.5-40.5 2.7-.8 2.3-1 1.7-1 1.3-1 1.5-.7 1.7-.5 2.5-.3 3 .8 6.3 1.5 2.7.5 1.5.2 1.3-.2h1.2l1.3-.5 1.2-.8.8-.7 1-1.3.7-1.5.5-2 .5-2.2.3-1.5v-1.3l-.3-1.5-.2-1-1-2-1.3-1.7-3.2-3.5-1.5-2-1.5-2.5" stroke-width="14"/><path d="m393.4 347.8 1.2 1.5 1.3 1.7 2.2 3.8 1.8 4.2 1.2 4.5 1 4.8.8 4.7.2 5.3.3 5.2-.3 5.3-.5 5.2-.5 5.3-.7 5-1 4.7-1 4.8-1 4.2-1.3 4-2.7 7.5-1.5 2.5-1.8 2-3 3.5-1.5 1.8-.7 2-.3 1.2-.2 1.3v1.5l.2 1.5.3 2.2.7 1.8.8 1.5.7 1.2 1 1 1.3.5 1 .5 1.2.3h2.8l3-.5 6.2-1.8 1.5-.2 1.5-.3h1.3l1 .3 1.7.7 1.3 1 1.5 1 1.7 1 2.3.8 1.2.2 1.8.3h.7l-1.5.2.8-.2" stroke-width="14"/><path d="m347.1 340.3-.2 1.2-.3 1.3-.7 1-.8.7-1 .8-1.2.5-1.3.5h-2.5l-1.5-.5-1-.5-1-.8-.7-.7-.8-1-.2-1.3-.3-1.2.3-1.3.2-1 .8-1 .7-1 1-.7 1-.5 1.5-.3 1.3-.2 1.2.2 1.3.3 1.2.5 1 .7.8 1 .7 1 .3 1zm154.3 0v1.2l-.5 1.3-.5 1-.8.7-1 .8-1.2.5-1.3.5h-2.7l-1.3-.5-1.2-.5-1-.8-.8-.7-.5-1-.5-1.3-.2-1.2.2-1.3.5-1 .5-1 .8-1 1-.7 1.2-.5 1.3-.3 1.5-.2 1.2.2 1.3.3 1.2.5 1 .7.8 1 .5 1 .5 1z" stroke-width="6.25"/><path d="m383.6 318-1.7-3-2.3-2.7-2.7-2.8-3-2.2-3.3-2-3.7-2-3.8-1.5-4-1.3-4.2-1.2-4-1-4-.5-4-.5-4-.3h-3.8l-3.2.3-3.3.5-5.2 1-4.8 1.2-4.2 1.3-4.3 1.5-4.2 2-4.5 2.5-5 3.2-5.5 4m157.5-.2 1.7-3 2.3-2.8 2.5-2.5 3-2.5 3.5-2 3.5-1.7 4-1.8 4-1.2 4-1.3 4-.7 4.2-.8 4-.5 3.8-.2h3.7l3.5.2 3 .5 5.3 1.3 4.7 1 4.5 1.2 4.3 1.5 4.2 2 4.5 2.5 4.8 3.3 5.5 4" stroke-width="14"/><path d="m592.1 309 2-12.5 2-13.2 1-6.8.5-6.5v-6l-.2-5.7-1.3-8.3-1.2-8.2-1.8-8-1.7-8-2.3-7.8-2.2-7.5-2.5-7.5-3-7.5-3-7-3.3-7-3.2-6.7-3.8-6.8-3.7-6.5-4-6-4.3-6-4.5-5.7-4.5-5.5-4.7-5.3-5-5-5.3-4.7-5.2-4.5-5.3-4.3-5.7-4-5.5-3.5-6-3.2-6-3-6-2.8-6.3-2.5-6.2-2-6.5-1.5-6.8-1.5-6.5-1-11-1-10.7-.7-10.3-.5-10.2-.3-9.8.3-9.5.5-9.2 1-9 1.2-8.8 1.5-8.5 2-8 2.3-8 2.5-7.5 2.7-7.5 3.3-7.2 3.5-6.8 4-3.7 2-4.3 2.5-5.5 3.7-3.2 2.3-3.5 3-4.5 4-5.3 5-6 6.2-6.2 7-6.8 8.3-3.2 4.7-3.3 4.8-3.2 5-3 5.2-3.3 5.5-2.7 5.5-2.8 6-2.7 6.3-2.3 6.5-2.2 6.7-1.8 6.8-1.7 7.2-1.3 7.3-1 7.5-.5 8-.2 8 1.7 54 2.5-4.5 3.5-5.3 4-5.7 4.5-6 7-8.8 7.3-8.5 7.2-8.5 7-7.5 10.8-11.5 4.2-4.5 1.5-1 2.3-1.2 5.7-3 7.8-3.3 9.2-3.7 21.8-8.8 25-9.7 25.7-10.5 12.5-5.3 12-5.2 11.3-5 10-5 8.7-5 3.8-2.3 3.5-2.2h.2l1.8 1 3.7 2.5 5.8 4.2 7.7 6 4.3 4 5 4.3 5 5.2 5.7 5.5 5.8 6.3 6.2 7 6.8 7.5 6.7 8.5 7 9 7.5 10 1.5 2 2 2.5 5.3 5.2 6.2 6.5 6.5 7.3 3.3 4 3.2 4 3.3 4.2 3 4.5 2.5 4.5 2.5 4.8 1.7 4.7 1.5 5 .3 1.3.7 3.5.3 3.7" stroke-width="14"/><path d="m467.6 171.3-5-.5-3.2-.5-3-.5-1.3-.5-.7-.5-.3-.3 3.8-4 3.5-4.5 3-5 2.7-5.5 2.3-5.7 1-2.8.7-3 .5-3.2.5-3 .3-3v-3.3" stroke-width="14"/><path d="m370.4 499.3 1.7-.5 17-6 7.3-2.3 6.2-2 5.8-1.5 5.2-1.2 5-.8 4.8-.2 4.5.2 4.7.5 5 1 5.3 1.5 5.7 2 6.5 2.3 15 6" stroke-width="12.5"/><path d="m371.6 498.3.5.5.5.5 3.3 3.5 3 3.5 6 7.5 3 3.2 3 3.3 2.7 2.5 3 2 3 1.5 3 1.2 3 1 3 .8 3 .7 3 .3 5.8.5 5.5-.3 5-.5 9-1 2.2-.5 2.3-.7 2.2-1 2.3-1 2.2-1.5 2.3-1.8 2-1.7 2-2 4-4.3 4-4.7 3.7-5.3 3.5-5.2 1.8-2.8m-121.8 9 4-2 4.3-2.2 4-3 3.7-3.3 1.8-1.7 1.5-2 1.2-2 1.3-2 1-2 .7-2.3.3-2.2.2-2.3" stroke-width="12.5"/><path d="m490.4 507-4-1.7-4.3-2.5-4-2.8-3.7-3.5-1.8-1.7-1.5-2-1.2-1.8-1.3-2.2-1-2-.7-2.3-.3-2.2-.2-2.3m21 59.3-9-2.3-8.8-2-8.5-1.2-8.2-1-7.8-.8-7.5-.5-6.5-.2h-11.7l-6.8.5-7.5.5-8 1-8.2 1.2-8.5 1.5-8.8 1.8-8.5 2-1.2.5m-58.5 71.2-.3-.2 2.8 2 3 2 4 2.7 5 3 6 3.3 7 3.2 8 3.5 3.5 1.3 3.5 1.2 7.5 2.3 8 1.7 8 1.3 2.2.5 9.8 1 9.2.7 8.8.5 7.7.3h11.5l4.3-.3h11l10.7-.2 10.5-.8 10.3-1 10.5-1.2 10.2-1.8 10.5-2.5 10.5-3 5-1.7 5-2 5.3-2.5 5.2-2.8 5-3 5-3.2 4.8-3.3 4.2-3.5m-232.7 99 2.7 1 10.8 3.8 10.2 3.5 10 2.7 10 2.3 10.3 2 10.5 1.5 11.2 1.2 12.3.8 10.2.2h13.3l13.5-.2 10.2-.3 10.5-.7 10-1 9.5-1 9.3-1.5 8.7-1.8 8.3-2 7.7-2.2 7-2.8 2.5-1.2" stroke-width="12.5"/><path d="m386.9 556.3-2 1-2 .2h-1.5l-.5-.5-.5-.2v-1.3l.2-.7.3-.8 1.2-1.2 1.8-1.3 2-1 2-.5h.7l.8.3.5.2.5.5v1l-.3.8-.2.7-1.3 1.5zm25.5 28.2-.5 2-1 1.8-.5.5-.8.5-.5.2h-.5l-.5-.2-.5-.5-.5-.5-.2-.8-.3-2 .3-2.2.5-2 1-1.8.5-.5.7-.5.5-.2h.5l.8.2.2.5.5.5.3.8.2 2zm14 30.5-.5 2-1 1.8-.5.5-.5.5-.8.2h-.5l-.5-.2-.5-.5-.5-.5-.2-.8-.3-2 .3-2.2.7-2 .8-1.8.5-.5.7-.5.5-.2h.5l.8.2.2.5.5.5.3.8.2 2zm-11-56.5-.8 2-.7 1.8-.8.5-.5.5-.5.2h-.7l-.5-.2-.5-.5-.3-.5-.2-.8-.3-2 .3-2.2.5-2 1-1.8.5-.5.5-.5.7-.2h.5l.5.2.5.5.5.5.3.8.2 2zm-59.8 56-1 2-1 1.5-.7.5-.5.3-.8.2h-.5l-.5-.2-.5-.5-.2-.8v-2.7l.2-2 1-2 1.3-1.8.5-.5.5-.2.7-.3.5.3.5.2.5.5.3.5.2.8v2zm37.5-2.5-1 2.3-1 1.5-.7.5-.5.2-.8.3-.5-.3-.5-.2-.5-.5-.2-.5v-2.8l.2-2.2 1-2 1.3-1.5.5-.5.5-.3.7-.2h.5l.5.2.5.5.3.8.2.7v2zm66.3-56.7 2 .7 2 .5h.7l.8-.2.5-.3.2-.5.3-.5v-.5l-.3-.7-.2-.8-1.3-1.5-1.7-1.2-2.3-1-1.7-.3h-1.5l-.5.5-.5.3-.3.7.3.5v.8l.5.7 1.2 1.3zm-25.5 28 .5 2.2 1 1.5.5.8.5.2.7.3h.5l.5-.3.5-.2.3-.8.5-.7.2-1.8-.2-2.2-.8-2.3-.7-1.5-.8-.7-.5-.3-.5-.2h-.7l-.5.2-.5.3-.3.7-.2.8-.3 1.7zm-3-26 .5 2.2 1 1.5.5.8.7.2.5.3h.5l.5-.3.5-.2.5-.8.3-.7.2-1.8-.2-2.2-.5-2.3-1-1.5-.5-.7-.8-.3-.5-.2h-.5l-.5.2-.5.3-.5.7-.2.8-.3 1.7zm59.7 56 .8 2 1.2 1.7.5.5.8.3.5.2.7-.2.5-.3.3-.5.2-.5.3-.7v-2l-.5-2.3-.8-2-1.2-1.5-.5-.5-.8-.2-.5-.3h-.7l-.5.3-.3.5-.2.7-.3.8v2zm-37.5-2.3.8 2 1.2 1.5.5.5.8.5h1.2l.5-.2.3-.5.2-.8.3-.7v-1.8l-.5-2.2-.8-2-1.2-1.5-.5-.5-.8-.5h-1l-.7.2-.3.5-.2.8-.3.7v1.8z" stroke-width="4.75"/><path d="m292.1 629.8 3.5 1.5 3.5 1 2.3 1 1.2 1.2 1 1.3.8 1.5 1 3.2 1.2 2 1.5 2 1.3 1 1.5.8 1.5.7 1.5.3 3.5.5h3.7l3.5-.3h3.5l1.8.3 1.5.2 1.5.5 1.2.8 3.3 2.2 3 1.8 2.7 1.2 2.8.5 2.7.3 3-.5 3.3-.8 3.7-1.2 2.5-1 2-1.3 1.8-1.5 1.5-1.5 1-2 1-2 .5-2.2.5-2.5v-1m-83-12.5.7 1.2 1 1.3.5.5 1 .5 2.5 1m79.5 9.5.5 2.2.8 2 .7 2.3 1 1.7 1 1.8 1.3 1.7 1.2 1.5 1.5 1.3 1.8 1.2 1.7 1 1.8.8 2 .5 2 .5 2.2.2 2.3-.2 2.5-.3 1.5-.2 1.2-.5 2.8-1 1.2-.5 1.5-.3 1.5-.2h1.5l2 .5 2 1 1.8 1 1.7 1.2 3.5 2.5 1.8 1 2 1 2 .5 2 .3 1.7-.5 1.8-.5 2-1 1.7-1 4-2.3 2-1 2.3-1 2.5-.5 2.5-.5 2.7.3 3.3.5 3.2 1.2 3.8 1.8 2.5 1.2 3.5 1 4.5 1 4.7.8 5 .5h5l4.8-.5 2.2-.3 2-.7 1.8-.5 1.5-.8 1-1 1-1 1.7-2 1.8-2.2 1.7-2 1.3-1 1.2-.8 1.5-.7 1.8-.5 2.2-.3 2.3-.2h2.7l2.3-.5 2-.5 1.5-.8 1.5-.7 1.2-.8 2.3-2 2.2-2 1.3-.7 1.5-.8 1.5-.5 1.7-.2 2-.3h2.5l2.5.5 2.8.5 2 .3 1.7.2h2l2-.5 2-.7 1.8-.8 1.2-.7.8-1.3.7-1.2.5-1.5 1-3.8m-51.2 50-9 2-9.5 2-10.3 1.5-10.5 1.3-11 1.2-11.2.8-11.8.5-12 .2-9.7-.2-10-.3-9.8-.5-9.7-.7-9.5-.8-9-1.2-8.8-1.3-8-1.2" stroke-width="12.5"/><path d="m518.4 714.3 1.7-.8 3.8-2.5 2.5-1.7 2.7-2 2.8-2.5 2.7-2.8 2.5-3 2.5-3.5 2.5-4 1.5-3.2 1.5-3 1.8-4.8 1-3.2.2-1.3.5-2.7.8-4 .2-3.8v-3.7l-.5-3.8-.5-3.7-.7-3.3-1.3-3.5-1.7-3-2-2.5-1-1.2-1.3-1.3" stroke-width="12.5"/><path d="m510.4 680.5 6.2 1.5 10.5 3.5 10.8 3.5m-260-50 2 .5 2.2.5 4.5 1.5 4.8 2.3 4.5 2.7 2.7 1.8 2.5 2 2.5 2.2 2.3 2 2 2.3 1.7 2.5 1.5 2.2 1.3 2.3 1 3 1.2 4 1.5 6 1.8 6 1 2.7 1.2 2.5 1.3 2 1.2 1.5 1 1 1.3.5 1.2.5 1.3.3 1.2.2 1.3-.2 2.5-.5 2.5-1 2.5-1.3 4.5-2.7 4.2-2.3 4.5-2.2 5-2 5.3-1.8 5.2-1.5 5.5-1.5 5.3-1.2 5.2-1 5-.8 4.3-.5 10.7-1 9.8-.5 9.5-.2 10.7.2 12.5.8 12.5 1 24.8 2.5 14.2 1.7 7.3 1 7 1.5" stroke-width="12.5"/><path d="m295.9 646.5-.5 2.3v4.2l.2 1.8.3 1.5.5 1.5.7 1.5.8 1.2 1.5 1.8 1.7 1.7 2 1.3 2.3 1.2 4.5 2.3 4.7 2m-16.7-10.3-.8 5-.5 5.3v6.5l.3 3.7.5 4 .7 4 1 3.8 1.5 3.7 1 1.8 1 1.5 1.3 1.5 1.2 1.2 1.5 1.3 1.8 1.2 4 2.3 4.2 1.7" stroke-width="12.5"/><path d="m178.9 580.5 2-2.7 3-3.3 7.5-8 9.2-9.2 10-9.8 10-9.2 9.3-8 4.2-3.5 3.5-2.8 3-2 2.5-1.2 3.5-1.3 5.3-1.7 13.2-4 29.5-7.8 14.8-4.2 1.5-.3 1.5-.2 1.2.2 1.3.3 1.2.5 1.3.5 1 .7.7.8 1.5 2 1 2.2.3 2.5v2.3" stroke-width="14"/><path d="m213.1 577.8 20.3-22.8 13.7-15 5-5.5 3-2.7 1.3-.5 2.2-1 6.8-2 9-2.5 10.2-2.8 21.3-5.5 15.2-4 2.8-.7 2-.8 2-.2h2l1.7.2 1.8.5 1.2.8 1.5 1 1 1 1 1.2.8 1.3.5 1.2.2 1.5v2.8l-.7 1.2-.8 1.3" stroke-width="14"/><path d="m233.1 599.3 20.8-25.3 15.2-18 5.5-6.5 3-3 2.5-1.2 5-2 15.8-5.3 19.2-6.2 18-5.8 15.3-4.7 2-.5h1.7l2 .2 1.5.8 1.5 1 1.5 1 1 1.2 1 1.5.8 1.8.5 1.7v3.5l-.5 1.8-.8 1.5-1 1.7-1.5 1.3-.7.7-2 1.3-2.3 1.2-5 2.3-5.5 1.7-5.7 1.5-12.3 2.8-5.7 1.5-6 1.5-5.3 1.7-2.7 1-2.5 1.3-5.3 2.7-4.5 2.8-3.7 2.7-3.3 2.8-2.5 2.5-2.2 2.7-2.3 2.8-2 3-6 8.7-8 11.3-10.5 13.5m20.8 59.2-3 1.5-2.8 1.8-3 1.7-2.7 1.8-5 4-4.5 4-3.8 3.7-2.7 2.8-2.5 2.7-21.8 9.8-16.7 7.5-2.8 1.2-3 1.5-3 1.5-2.7 2-3 2-2.8 2.3-5.7 5.2-5.8 5.5-5.5 6-5.2 6-5.3 6.3-5 6.5" stroke-width="14"/><path d="m263.9 655 2.7 3.3 3.8 4 4.5 4.2 5 4 3.7 2.8 3.5 2 1.5.7 1.8.8 1.5.2 1.2.3" stroke-width="12.5"/><path d="m353.1 545.5 1 .5 2 1.3 2.5 2.2 1.3 1.5 1 1.5.7 1.8.8 2 .2 2-.2 2-1 2.5-1.5 2.2-2 2.5-3 2.8-2.8 2-3.2 2-6.5 3.5-7 3.2-6.8 3-6.7 3-5.8 2.8-2.5 1.2-2.2 1.3-2 1.5-1.5 1.2-1.5 1.8-1.8 2.5-3.7 6-1.5 2.5m-120.5-27.3-1.8 3-1.7 4-1.5 4.5-1.5 5.3-1.5 5.5-1.3 6-2.2 12.2-1.8 11.5-1.2 9.8-1.3 9.2-2 8-2 6.5-1.7 5.3-2 4.2-2 3.8-2.3 3.2-2.5 3.3-3 3.5-40.7 40.2m121-22.5.2-.2 9.5-14.3 7.8-11.2 8.5-11.8 11.2-15 12.5-16.2 10.3-13.5 12.5-16.3 2.5-3.2m368-27.8-2-2.7-3-3.5-7.5-8-9-9.3-10-9.7-10.3-9.3-9.2-8-4-3.2-3.8-2.8-3-2-2.5-1.2-5.2-2-8-2.5-19.8-5.5-19.7-5.3-13-3.7h-.5l-2.3-.5h-2.2l-2 .7-1.8 1-1.5 1.3-1.2 1.5-.8 1.7-.7 2" stroke-width="14"/><path d="m634.6 574.5-7-8-15.5-17.2-12.2-13.5-4.5-4.5-2.8-2.5-2.5-1.3-4.2-1.5-13.3-4-16.2-4.2-16-4.3-5.3-1.2-11.2-2.8-2-.2-2.3-.3-1.7.3-2 .2-1.5.5-1.5.8-1.3.7-1.2 1-.8 1.3-.7 1.2-.5 1.3-.3 1.2v1.3l.3 1.5.5 1.2.7 1.3" stroke-width="14"/><path d="m614.6 596-20.7-25.2-15-18-5.8-6.3-3-3.2-2.5-1.3-5-2-15.7-5.2-19.3-6.3-18-5.7-15.2-4.8-2-.2h-2l-1.8.2-1.7.8-1.5 1-1.3 1-1.2 1.5-.8 1.5-.7 1.7-.5 1.8v1.7l.2 2 .5 1.8.8 1.5 1.2 1.7 1.8 1.3 2.2 1.5 3.5 1.7 3.5 1.5 5.5 1.8 6 1.7 12 2.5 6 1.5 5.8 1.5 5.5 1.8 2.5 1 2.5 1.2 5.2 3 4.8 2.8 3.7 2.5 3 2.7 2.8 2.8 2.2 2.5 2 3 2 3 6 8.7 8.3 11 10.2 13.8m-22.7 56.2 3 1.5 2.5 1.5 2.2 1.3 1.8 1.5 1.5 1.5 1.5 1.5 2.2 3.2 2.3 3.5 2.2 3.3 3 3.7 1.8 1.8 2 1.7 2 1.5 2.5 1.8 5.7 3.2 6.5 3.5 6.8 3.3 9 4.2 3.7 1.5 3 1.3 3 1.5 3 1.7 3 2 3 2.3 2.8 2.2 6 5.3 5.7 6 5.5 6 5.5 6.5 5.3 6.5 4 4.7" stroke-width="14"/><path d="m577.9 653-2.5 3.3-3 3.5-3.5 3.5-3.8 3.5-2 1.5-2 1.5-2 1.2-2 1-2.2.8-2 .5-2.3.2-2-.2-1.2-.5-1.5-.5" stroke-width="12.5"/><path d="m494.6 542.3-.7.5-2 1.5-2.5 2.2-1.3 1.3-1.2 1.7-.8 1.5-.7 2v2l.2 2.3.8 2.2 1.5 2.5 2.2 2.5 2.8 2.5 3 2 3 2 6.5 3.5 7 3.5 7 3 6.5 2.8 5.7 2.7 2.8 1.5 2.2 1.3 1.8 1.2 1.5 1.5 1.5 1.8 1.7 2.2 3.8 6.3 1.5 2.2m120.5-27 1.7 3 1.8 3.8 1.5 4.5 1.5 5.2 1.5 5.8 1.2 6 2.3 12 1.7 11.7 1.3 9.8 1.2 9.2 2 8 2 6.3 2 5.2 1.8 4.5 2 3.5 2.2 3.3 2.5 3.5 3 3.5 35.5 35 5.3 5m-125-21.3-17.3-25.2-20.5-29.8-15-22-15-21.5-3.2-4.5" stroke-width="14"/></g></svg>