<svg height="850.394" viewBox="0 0 850.394 850.394" width="850.394" xmlns="http://www.w3.org/2000/svg"><g stroke="#231f20" stroke-width="28"><path d="m326.371 144.024-124.957 257.403" fill="#fff"/><path d="m317.556 353.818-117.22 49.108-33.816-122.599" fill="none"/></g><path d="m84.312 503.335h203.509v203.51h-203.509z" fill="none"/><g fill="#5668af"><circle cx="84.312" cy="677.771" r="14.398"/><circle cx="84.312" cy="648.699" r="14.398"/><circle cx="84.312" cy="619.626" r="14.398"/><circle cx="84.312" cy="590.553" r="14.398"/><circle cx="84.312" cy="561.479" r="14.398"/><circle cx="84.312" cy="532.407" r="14.398"/><circle cx="113.384" cy="503.335" r="14.398"/><circle cx="142.458" cy="503.335" r="14.398"/><circle cx="171.53" cy="503.335" r="14.398"/><circle cx="200.603" cy="503.335" r="14.398"/><circle cx="229.676" cy="503.335" r="14.398"/><circle cx="258.749" cy="503.335" r="14.398"/><circle cx="287.821" cy="532.408" r="14.398"/><circle cx="287.821" cy="561.48" r="14.398"/><circle cx="287.821" cy="590.554" r="14.398"/><circle cx="287.821" cy="619.627" r="14.398"/><circle cx="287.821" cy="648.7" r="14.398"/><circle cx="287.821" cy="677.772" r="14.398"/><circle cx="258.748" cy="706.845" r="14.398"/><circle cx="229.675" cy="706.845" r="14.398"/><circle cx="200.602" cy="706.845" r="14.398"/><circle cx="171.529" cy="706.845" r="14.398"/><circle cx="142.457" cy="706.845" r="14.398"/><circle cx="113.383" cy="706.845" r="14.398"/><circle cx="84.312" cy="503.335" r="14.398"/><circle cx="287.821" cy="503.336" r="14.398"/><circle cx="287.82" cy="706.845" r="14.398"/><circle cx="84.312" cy="706.844" r="14.398"/></g><g stroke="#231f20" stroke-width="28"><path d="m520.255 144.37 124.961 257.403" fill="#fff"/><path d="m529.069 354.164 117.217 49.108 33.819-122.599" fill="none"/></g><path d="m558.805 503.682h203.509v203.509h-203.509z" fill="none"/><circle cx="762.313" cy="678.117" fill="#5668af" r="14.398"/><circle cx="762.313" cy="649.045" fill="#5668af" r="14.398"/><circle cx="762.313" cy="619.972" fill="#5668af" r="14.398"/><circle cx="762.313" cy="590.899" fill="#5668af" r="14.398"/><circle cx="762.313" cy="561.826" fill="#5668af" r="14.398"/><circle cx="762.313" cy="532.754" fill="#5668af" r="14.398"/><circle cx="733.24" cy="503.682" fill="#5668af" r="14.398"/><circle cx="704.168" cy="503.682" fill="#5668af" r="14.398"/><circle cx="675.095" cy="503.682" fill="#5668af" r="14.398"/><circle cx="646.022" cy="503.682" fill="#5668af" r="14.398"/><circle cx="616.949" cy="503.682" fill="#5668af" r="14.398"/><circle cx="587.877" cy="503.682" fill="#5668af" r="14.398"/><circle cx="558.805" cy="532.755" fill="#5668af" r="14.398"/><circle cx="558.805" cy="561.827" fill="#5668af" r="14.398"/><circle cx="558.805" cy="590.9" fill="#5668af" r="14.398"/><circle cx="558.805" cy="619.973" fill="#5668af" r="14.398"/><circle cx="558.805" cy="649.046" fill="#5668af" r="14.398"/><circle cx="558.805" cy="678.118" fill="#5668af" r="14.398"/><circle cx="587.878" cy="707.19" fill="#5668af" r="14.398"/><circle cx="616.95" cy="707.19" fill="#5668af" r="14.398"/><circle cx="646.023" cy="707.19" fill="#5668af" r="14.398"/><circle cx="675.096" cy="707.19" fill="#5668af" r="14.398"/><circle cx="704.169" cy="707.19" fill="#5668af" r="14.398"/><circle cx="733.241" cy="707.19" fill="#5668af" r="14.398"/><circle cx="762.313" cy="503.682" fill="#5668af" r="14.398"/><circle cx="558.805" cy="503.683" fill="#5668af" r="14.398"/><circle cx="558.805" cy="707.19" fill="#5668af" r="14.398"/><circle cx="762.313" cy="707.189" fill="#5668af" r="14.398"/><path d="m0 0h850.394v850.394h-850.394z" fill="none"/><path d="m420.939 271.894v28.961m-50.698-183.441c0-32.153 24.439-58.216 54.58-58.216s54.573 26.063 54.573 58.216c0 24.069-13.688 44.727-33.229 53.591 0 0-25.226 9.466-25.226 30.7v39.42" fill="none" stroke="#231f20" stroke-width="21"/></svg>