<svg height="850.394" viewBox="0 0 850.394 850.394" width="850.394" xmlns="http://www.w3.org/2000/svg"><path d="m303.39 724.84v45.51l-228.87 4.27v-79.91c2.4-68.66 9.79-111.53 16.57-137.229 6.78-25.7 12.96-34.24 12.96-34.24 20.61-19.32 79.37-45.45 79.37-45.45l.64-1.81c8.26 5.21 17.72 8.17 27.78 8.17 9.23 0 17.96-2.49 25.71-6.92 1.84.819 15.68 7.05 31.75 15.38 17.26 8.949 37.1 20.31 47.41 29.96 0 0 12.03 26.229 23.62 60.21 3.62 10.609 7.2 21.989 10.36 33.56 1.94 7.101 3.72 14.28 5.25 21.4 1.09 5.06 2.05 10.09 2.86 15.04l.09.67c-.19.02-.38.05-.57.069l-.41 1.33-43.97 56.45z" fill="#f6cc4b"/><path d="m603.98 604.39-4.66 11.41h21.699l-4.649-11.41zm-54.94.39h-12.4l-4.649 11.41h21.689zm-108.37.17h-12.39l-4.65 11.41h21.69zm-34.65-20.77c-5.54-2.489-18.11-4.39-32.78-4.39v-1.271h235.82v-.02h9.141c5.79 0 8.99 3.19 10.479 10.5l9.87 38.22c1.24 9.561-4.689 10.49-10.5 10.49h-114.95c-11.25-2.5-31.5-3.63-50.52-1.07-.08.011-.17.021-.25.04-2.17.29-4.32.63-6.44 1.03h-99.8l-.15.03c-1.53-7.12-3.31-14.3-5.25-21.4l.72-.2c0 .03.09.051.23.08 7.26 3.86 38.27 12.53 47.22 5.261.6-4.44-8.09-2.49-8.41-8.7 6.11-3.08 24-2.54 25.87-10.4 1.79-7.09-5.03-15.8-10.3-18.2zm56.28 18.03-4.649-11.42h-12.391l-4.64 11.42zm108.37-.17-4.65-11.42h-12.4l-4.65 11.42zm-35.97.09-4.641-11.42h-12.409l-4.641 11.42zm51.18.08h21.69l-4.641-11.42h-12.399zm-107.12 2.83h-12.39l-4.66 11.41h21.7zm92.9-.09-4.65 11.41h21.7l-4.66-11.41zm-92.97-2.66h21.699l-4.64-11.41h-12.41zm34.39 2.57h-12.4l-4.649 11.409h21.7z" fill="#7a7878"/><path d="m351.64 616.22c-.07-.04-.14-.069-.2-.109-.02.01-.03.02-.03.029l-.72.2c-3.16-11.57-6.74-22.95-10.36-33.56l3.83-.38c9.71-1.851 19.82-2.61 29.08-2.61 14.67 0 27.24 1.9 32.78 4.39 5.27 2.4 12.09 11.11 10.3 18.2-1.87 7.86-19.76 7.32-25.87 10.4.32 6.21 9.01 4.26 8.41 8.7-8.95 7.27-39.96-1.4-47.22-5.26zm177.58 42.46c-2.97 6.931-19.7 6.54-25.569 9.5.33 6.21 9 4.271 8.409 8.7-9.029 7.34-46.56-1.57-53.409-5.36-19.65 8.721-39.291 17.45-58.94 26.19-11.43 5.06-23.45 9.521-34.53 15.31-18.53 9.671-32.37 6.431-51.24-1.72l43.97-56.45.41-1.33c.19-.02.38-.05.57-.069 27.13-3.41 79.65-12.561 97.66-15.74h28.74l39.75 20.97h4.179z" fill="#ffeec8"/><path d="m356.09 637.71h100.46c-18.01 3.18-70.53 12.33-97.66 15.74l-.09-.67c-.81-4.95-1.77-9.98-2.86-15.04z" fill="#7a7878"/><path d="m440.67 604.95 4.65 11.41h-21.69l4.65-11.41zm38.09.09 4.65 11.41h-21.7l4.66-11.41zm34.32-.18 4.65 11.41h-21.7l4.65-11.41zm35.96-.08 4.64 11.41h-21.69l4.65-11.41zm35.01.17 4.66 11.41h-21.7l4.65-11.41zm32.32-.56 4.65 11.41h-21.7l4.66-11.41zm-13.44-13.6 4.64 11.42h-21.69l4.65-11.42zm-36.91-.17 4.65 11.42h-21.7l4.65-11.42zm-35.96.09 4.64 11.42h-21.69l4.64-11.42zm-34.31.17 4.64 11.41h-21.7l4.65-11.41zm-38.1-.09 4.65 11.42h-21.68l4.64-11.42z" fill="#231f20"/><path d="m351.44 616.11c.06.04.13.069.2.109-.14-.029-.23-.05-.23-.08 0-.009.01-.019.03-.029z" fill="#f6cc4b"/><path d="m237.55 477.23c-7.75 4.43-16.48 6.92-25.71 6.92-10.06 0-19.52-2.96-27.78-8.17-18.17-11.461-30.5-33.82-30.5-59.53 0-37.38 26.09-67.69 58.28-67.69s58.29 30.31 58.29 67.69c0 26.68-13.28 49.74-32.58 60.78z" fill="#ffeec8"/><path d="m665.95 179.53c3.04 2.45 6.46 3.35 8.79 2.6-1.01.65-17.221 11.04-18.561 12.05-3.52 2.67-3.85-3.31-3.85-3.31l8.979-18.66h.101c.181 2.34 1.831 5.14 4.541 7.32z" fill="#7a7878"/><g fill="#fbee34"><path d="m742.18 99.35c-2.26 1.52-6.46.66-10-2.18-3.83-3.08-5.529-7.37-4.02-9.87.08-.13.16-.25.26-.37 1.96-2.42 6.811-1.77 10.83 1.47 4.01 3.22 5.68 7.81 3.72 10.23-.22.28-.49.53-.79.72z"/><path d="m728.16 87.3c-1.51 2.5.189 6.79 4.02 9.87 3.54 2.84 7.74 3.7 10 2.18l-12.75 15.86c-2.27 1.5-6.46.66-10-2.2-4.02-3.23-5.699-7.81-3.739-10.24l12.449-15.48z"/><path d="m674.78 182.11c-.011 0-.021.01-.04.02-2.33.75-5.75-.15-8.79-2.6-2.71-2.18-4.36-4.98-4.54-7.32-.09-1.11.16-2.12.78-2.9l-.011-.01 30.681-38.15 22.83-28.38c-1.96 2.43-.28 7.01 3.739 10.24 3.54 2.86 7.73 3.7 10 2.2l-28.12 34.97-24.709 30.72c-.47.57-1.09.98-1.82 1.21z"/></g><path d="m676.6 180.9 24.71-30.72 2.71 2.18 69.66 117.17-147.79 81.78-109.23-202.89 143.09-70.54 30.33 51.03 2.78 2.24-30.68 38.15.011.01c-.62.78-.87 1.79-.78 2.9h-.101l-8.979 18.66-4.26 9.44 8.109-6.13c1.34-1.01 17.551-11.4 18.561-12.05.02-.01.029-.02.04-.02a3.81 3.81 0 0 0 1.819-1.21z" fill="#ffffc2"/><path d="m534.99 499.41h48.1v13.88h-48.1zm-29.14 31h77.24v13.88h-77.24z" fill="#7a7878"/><path d="m444.33 449.37h70.31v31.55h-70.31zm160.5 31.55v91.4h-250.68v-91.4zm-21.74 63.37v-13.88h-77.24v13.88zm0-31v-13.88h-48.1v13.88z" fill="#c8c8c8"/><path d="m638.45 658.68h-109.23c.13-.29.23-.59.3-.899 1.78-7.09-5.029-15.8-10.3-18.2-1.51-.68-3.58-1.311-6.12-1.87h125.351v20.969z" fill="#7a7878"/><path d="m577.4 312.06v124.5c0 6.87-5.58 12.431-12.471 12.431h-171.359c-6.87 0-12.45-5.561-12.45-12.431v-124.5c0-6.88 5.58-12.46 12.45-12.46h171.36c6.89 0 12.47 5.58 12.47 12.46zm-18.09 112.05v-106.93h-159.64v106.93z" fill="#c8c8c8"/><path d="m399.67 317.18h159.64v106.93h-159.64zm119.55 322.4c5.271 2.4 12.08 11.11 10.3 18.2-.069.31-.17.609-.3.899h-4.18l-39.75-20.97h27.81c2.54.561 4.61 1.191 6.12 1.871z" fill="#fff"/><g fill="none" stroke="#231f20"><path d="m577.4 436.56c0 6.87-5.58 12.431-12.471 12.431h-171.359c-6.87 0-12.45-5.561-12.45-12.431v-124.5c0-6.88 5.58-12.46 12.45-12.46h171.36c6.891 0 12.471 5.58 12.471 12.46v124.5z" stroke-width="14"/><path d="m399.67 317.18h159.64v106.93h-159.64z" stroke-width="7"/><path d="m444.33 480.92v-31.55h70.31v31.55m0 0h90.19v91.4h-250.68v-91.4h90.18z" stroke-width="14"/><path d="m505.85 530.41h77.24v13.88h-77.24zm29.14-31h48.1v13.88h-48.1z" stroke-width="8.54"/><path d="m354.29 578.52h260.64" stroke-width="17.081"/><path d="m485.29 637.71h-129.2m271.96 0c5.811 0 11.74-.93 10.5-10.49l-9.87-38.22c-1.489-7.31-4.689-10.5-10.479-10.5h-9.141m-123.77 59.21h153.16v20.97h-113.41" stroke-width="14"/><path d="m462.3 602.21h-21.68l4.64-11.42h12.39zm-16.98 14.15h-21.69l4.65-11.41h12.39zm55.07-14.07h-21.7l4.65-11.41h12.41zm34.31-.16h-21.69l4.64-11.42h12.41zm35.97-.09h-21.7l4.65-11.42h12.4zm36.9.17h-21.69l4.65-11.42h12.4zm-124.16 14.24h-21.7l4.66-11.41h12.39zm34.32-.18h-21.7l4.65-11.41h12.4zm35.95-.08h-21.69l4.65-11.41h12.4zm35.03.17h-21.7l4.65-11.41h12.39zm32.31-.56h-21.7l4.66-11.41h12.39z" stroke-width="8.54"/><path d="m184.06 475.98c-18.17-11.461-30.5-33.82-30.5-59.53 0-37.38 26.09-67.69 58.28-67.69s58.29 30.31 58.29 67.69c0 26.68-13.28 49.74-32.58 60.78-7.75 4.43-16.48 6.92-25.71 6.92-10.06 0-19.52-2.96-27.78-8.17z" stroke-width="14"/><path d="m358.8 652.78c-.81-4.95-1.77-9.98-2.86-15.04-1.53-7.12-3.31-14.3-5.25-21.4-3.16-11.57-6.74-22.95-10.36-33.56-11.59-33.98-23.62-60.21-23.62-60.21-10.31-9.65-30.15-21.011-47.41-29.96-16.07-8.33-29.91-14.561-31.75-15.38-.14-.07-.21-.101-.21-.101m66.05 285.041v8.18m54.52-115.5-43.97 56.45-10.55 13.54m158.94-88.16c-.85.15-2.86.511-5.78 1.03-18.01 3.18-70.53 12.33-97.66 15.74-.19.02-.38.05-.57.069m104.47-16.919s-.07.011-.21.04" stroke-width="14"/><path d="m311.83 710.38c.71.311 1.41.62 2.11.92 18.87 8.15 32.71 11.391 51.24 1.72 11.08-5.789 23.1-10.25 34.53-15.31 19.65-8.74 39.29-17.47 58.94-26.19 6.85 3.79 44.38 12.7 53.409 5.36.591-4.43-8.079-2.49-8.409-8.7 5.869-2.96 22.6-2.569 25.569-9.5.13-.29.23-.59.3-.899 1.78-7.09-5.029-15.8-10.3-18.2-1.51-.68-3.58-1.311-6.12-1.87-11.25-2.5-31.5-3.63-50.52-1.07-.08.011-.17.021-.25.04-2.17.29-4.32.63-6.44 1.03-.18.03-.359.07-.54.1m-271.929-160.021s-58.76 26.13-79.37 45.45c0 0-6.18 8.54-12.96 34.24s-14.17 68.57-16.57 137.23v79.91m228.87-100.37v87.92m50.03-145.59c.26-.12-1.21-.24-1.78-.36-.14-.029-.23-.05-.23-.08 0-.01.01-.02.03-.029.06.04.13.069.2.109 7.26 3.86 38.27 12.53 47.22 5.261.6-4.44-8.09-2.49-8.41-8.7 6.11-3.08 24-2.54 25.87-10.4 1.79-7.09-5.03-15.8-10.3-18.2-5.54-2.489-18.11-4.39-32.78-4.39-9.26 0-19.37.76-29.08 2.61m384-495.101c-1.51 2.5.189 6.79 4.02 9.87 3.54 2.84 7.74 3.7 10 2.18.301-.19.57-.44.79-.72 1.96-2.42.29-7.01-3.72-10.23-4.02-3.24-8.87-3.89-10.83-1.47-.1.12-.18.24-.26.37zm-12.47 15.47c-1.96 2.43-.28 7.01 3.739 10.24 3.54 2.86 7.73 3.7 10 2.2.311-.2.58-.44.811-.73" stroke-width="14"/><path d="m676.74 181.02.01-.02" stroke-width="17.081"/><g stroke-width="14"><path d="m674.78 182.11c.729-.23 1.35-.64 1.819-1.21m-14.399-11.61c-.01.01-.01.01-.01.02-.62.78-.87 1.79-.78 2.9.18 2.34 1.83 5.14 4.54 7.32 3.04 2.45 6.46 3.35 8.79 2.6m1.86-1.23 24.71-30.72 28.12-34.97 12.75-15.86.32-.39m-14.36-11.67-12.45 15.48-22.83 28.38-30.68 38.15"/><path d="m661.31 172.21-8.979 18.66s.33 5.98 3.85 3.31c1.34-1.01 17.551-11.4 18.561-12.05.02-.01.029-.02.04-.02l.01-.01"/><path d="m652.33 190.87-4.26 9.44 8.11-6.13" stroke-linecap="round" stroke-linejoin="round"/><path d="m690.08 128.91-30.33-51.03-143.09 70.54 109.23 202.89 147.79-81.78-69.66-117.17m-145.34 22.32 68.6-39.04m-51.74 70.37 68.6-39.04"/></g></g><path d="m0 0h850.394v850.394h-850.394z" fill="none"/></svg>