<svg height="850.394" viewBox="0 0 850.394 850.394" width="850.394" xmlns="http://www.w3.org/2000/svg"><path d="m446.87 296.19h-7.78v116.9h19.77v-116.9zm-33.64.27h-9.04v116.9h19.77v-116.9zm-33.66.24h-9.03v116.9h19.77v-116.9zm302.87-.79h-11.03v116.91h19.769v-116.91zm-33.64.24h-11.05v116.9h19.78v-116.9zm-44.29.06v116.9h19.781v-116.9zm-292.24-.39h-8.64v116.91h19.77v-116.91zm-87.31 117.1v-101.75l-9.6 101.75zm322.88-116.74h-8.859v116.91h19.769v-116.91zm-279.11-.09v116.91h19.77v-116.91zm245.45-.73h204.511c18.21 0 33 14.77 33 33v143.56c0 18.23-14.79 33-33 33h-474.381c-18.23 0-33-14.77-33-33v-143.56c0-18.23 14.77-33 33-33zm0 116.97h10.92v-116.91h-19.77v116.91zm234.22.21-.95-67.63-8.94-32.98v100.61z" fill="#fff"/><path d="m215.36 412.92 9.6-101.75v101.75z"/><path d="m211.31 328.36v143.56c0 18.23 14.77 33 33 33h-73.75s-39.9-.18-56.27-5.71c-30.44-10.27-38.33-25.79-46.21-52.75-13.82-47.29 16.32-95.74 16.32-95.74 5.7-13.1 6.12-48.08 6.12-48.08v-48.5c0-18.22 14.78-33 33-33h628.17c18.22 0 32.989 14.78 32.989 33v217.78c0 18.23-14.77 33-32.989 33h-33c18.21 0 33-14.77 33-33v-143.56c0-18.23-14.79-33-33-33h-474.38c-18.23 0-33 14.77-33 33zm186.03-61.13v-17.47c0-2.41-.98-4.59-2.56-6.17a8.699 8.699 0 0 0 -6.17-2.56c-4.83 0-8.74 3.91-8.74 8.73v17.47c0 2.41.98 4.59 2.56 6.17a8.732 8.732 0 0 0 14.91-6.17zm-33.84 0v-17.47c0-2.41-.98-4.59-2.56-6.17s-3.76-2.56-6.17-2.56c-4.82 0-8.73 3.91-8.73 8.73v17.47c0 2.41.98 4.59 2.56 6.17s3.76 2.56 6.17 2.56c4.82 0 8.73-3.91 8.73-8.73zm-32.74 0v-17.47c0-2.41-.98-4.59-2.56-6.17a8.699 8.699 0 0 0 -6.17-2.56c-4.82 0-8.73 3.91-8.73 8.73v17.47c0 2.41.98 4.59 2.56 6.17s3.76 2.56 6.17 2.56c4.82 0 8.73-3.91 8.73-8.73zm-32.38 0v-17.47c0-2.41-.98-4.59-2.56-6.17a8.725 8.725 0 0 0 -14.9 6.17v17.47a8.723 8.723 0 0 0 8.73 8.73c4.82 0 8.73-3.91 8.73-8.73zm-33.83 0v-17.47c0-2.41-.98-4.59-2.56-6.17a8.732 8.732 0 0 0 -14.91 6.17v17.47c0 2.41.98 4.59 2.56 6.17s3.76 2.56 6.17 2.56c4.83 0 8.74-3.91 8.74-8.73zm-39.3-8.73c0-4.82-3.91-8.74-8.73-8.74h-17.46c-2.41 0-4.59.98-6.17 2.56a8.732 8.732 0 0 0 6.17 14.91h17.46c2.41 0 4.59-.98 6.17-2.56s2.56-3.76 2.56-6.17z" fill="#787878"/><path d="m748.4 412.54h-9.89v-100.61l8.94 32.98zm-65.96-116.63h8.739v116.91h-8.739zm-11.03 0h11.03v116.91h-11.03zm-22.61.24h8.73v116.9h-8.73zm-11.05 0h11.05v116.9h-11.05zm-22.6.06h9.14v116.9h-9.14z"/><path d="m604.51 296.21h10.641v116.9h-10.641zm-56.67-.03h10.91v116.91h-10.91zm-8.86 0h8.859v116.91h-8.859zm-24.8-.76h10.92v116.91h-10.92zm-8.85 0h8.85v116.91h-8.85zm-58.46.77h11.99v116.9h-11.99zm-7.78 0h7.78v116.9h-7.78zm-25.86.27h10.73v116.9h-10.73zm-9.04 0h9.04v116.9h-9.04z"/><path d="m397.34 249.76v17.47a8.732 8.732 0 0 1 -14.91 6.17 8.699 8.699 0 0 1 -2.56-6.17v-17.47c0-4.82 3.91-8.73 8.74-8.73 2.41 0 4.59.98 6.17 2.56a8.699 8.699 0 0 1 2.56 6.17z" fill="#00e800"/><path d="m379.57 296.7h10.74v116.9h-10.74zm-9.03 0h9.03v116.9h-9.03z"/><path d="m363.5 249.76v17.47c0 4.82-3.91 8.73-8.73 8.73-2.41 0-4.59-.98-6.17-2.56s-2.56-3.76-2.56-6.17v-17.47c0-4.82 3.91-8.73 8.73-8.73 2.41 0 4.59.98 6.17 2.56s2.56 3.76 2.56 6.17zm-32.74 0v17.47c0 4.82-3.91 8.73-8.73 8.73-2.41 0-4.59-.98-6.17-2.56s-2.56-3.76-2.56-6.17v-17.47c0-4.82 3.91-8.73 8.73-8.73 2.41 0 4.59.98 6.17 2.56a8.699 8.699 0 0 1 2.56 6.17z" fill="#00e800"/><path d="m312.27 295.82h11.13v116.91h-11.13zm-8.64 0h8.64v116.91h-8.64z"/><path d="m298.38 249.76v17.47a8.732 8.732 0 0 1 -14.91 6.17 8.732 8.732 0 0 1 -2.55-6.17v-17.47a8.725 8.725 0 0 1 14.9-6.17 8.699 8.699 0 0 1 2.56 6.17z" fill="#00e800"/><path d="m278.61 296.09h9.89v116.91h-9.89zm-9.88 0h9.88v116.91h-9.88z"/><path d="m264.55 249.76v17.47c0 4.82-3.91 8.73-8.74 8.73-2.41 0-4.59-.98-6.17-2.56s-2.56-3.76-2.56-6.17v-17.47a8.732 8.732 0 0 1 14.91-6.17 8.699 8.699 0 0 1 2.56 6.17z" fill="#00e800"/><path d="m216.52 249.76c4.82 0 8.73 3.92 8.73 8.74 0 2.41-.98 4.59-2.56 6.17s-3.76 2.56-6.17 2.56h-17.46a8.732 8.732 0 0 1 -6.17-14.91 8.699 8.699 0 0 1 6.17-2.56z" fill="#f73900"/><g fill="none"><g stroke="#000"><path d="m718.69 504.92h33c18.22 0 32.989-14.77 32.989-33v-217.78c0-18.22-14.77-33-32.989-33h-628.17c-18.22 0-33 14.78-33 33v48.5s-.42 34.98-6.12 48.08c0 0-30.14 48.45-16.32 95.74 7.88 26.96 15.77 42.48 46.21 52.75 16.37 5.53 56.27 5.71 56.27 5.71z" stroke-width="19.798"/><path d="m244.31 504.92c-18.23 0-33-14.77-33-33v-143.56c0-18.23 14.77-33 33-33h474.381c18.21 0 33 14.77 33 33v143.56c0 18.23-14.79 33-33 33" stroke-width="19.798"/><path d="m716.1 295.36v205.19m-33.66-87.73v87.73m0-205.19v.55m-33.64 117.14v87.5m0-205.19v.79m-33.65 116.96v87.44m0-205.19v.85m-33.66-.85v205.19m-33.65-87.46v87.46m-33.66-88.22v88.22m0-205.19v.06m-33.65-.06v205.19m-33.66-87.46v87.46m0-205.19v.83m-33.64 117.17v87.19m0-205.19v1.1m-33.66 117.14v86.95m0-205.19v1.34m-33.65-1.34v205.19m-33.65-87.82v87.82m0-205.19v.46m-33.66 117.18v87.55m0-205.19v.73m-33.65-.73v205.19" stroke-width="13.199"/><path d="m278.61 296.09h9.89v116.91h-19.77v-116.91zm33.66-.27h11.13v116.91h-19.77v-116.91zm67.3.88h10.74v116.9h-19.77v-116.9zm33.66-.24h10.73v116.9h-19.77v-116.9zm33.64-.27h11.99v116.9h-19.77v-116.9zm67.31-.77h10.92v116.91h-19.77v-116.91zm33.66.76h10.91v116.91h-19.77v-116.91zm67.31.03h9.14v116.9h-19.78v-116.9zm33.65-.06h8.73v116.9h-19.78v-116.9zm33.64-.24h8.74v116.91h-19.77v-116.91zm65.01 49 .95 67.63h-9.89v-100.61z" stroke-width="6.599"/><path d="m264.55 267.23c0 4.82-3.91 8.73-8.74 8.73-2.41 0-4.59-.98-6.17-2.56s-2.56-3.76-2.56-6.17v-17.47a8.732 8.732 0 0 1 14.91-6.17 8.699 8.699 0 0 1 2.56 6.17zm-48.03-17.47c4.82 0 8.73 3.92 8.73 8.74 0 2.41-.98 4.59-2.56 6.17s-3.76 2.56-6.17 2.56h-17.46a8.732 8.732 0 0 1 -6.17-14.91 8.699 8.699 0 0 1 6.17-2.56zm81.86 17.47a8.732 8.732 0 0 1 -14.91 6.17 8.732 8.732 0 0 1 -2.55-6.17v-17.47a8.725 8.725 0 0 1 14.9-6.17 8.699 8.699 0 0 1 2.56 6.17zm32.38 0c0 4.82-3.91 8.73-8.73 8.73-2.41 0-4.59-.98-6.17-2.56s-2.56-3.76-2.56-6.17v-17.47c0-4.82 3.91-8.73 8.73-8.73 2.41 0 4.59.98 6.17 2.56a8.699 8.699 0 0 1 2.56 6.17zm32.74 0c0 4.82-3.91 8.73-8.73 8.73-2.41 0-4.59-.98-6.17-2.56s-2.56-3.76-2.56-6.17v-17.47c0-4.82 3.91-8.73 8.73-8.73 2.41 0 4.59.98 6.17 2.56s2.56 3.76 2.56 6.17zm33.84 0a8.732 8.732 0 0 1 -14.91 6.17 8.699 8.699 0 0 1 -2.56-6.17v-17.47c0-4.82 3.91-8.73 8.74-8.73 2.41 0 4.59.98 6.17 2.56a8.699 8.699 0 0 1 2.56 6.17z" stroke-width="13.199"/><path d="m76.82 376.44h90.95m-98.23 33.64h98.23m-69.85-100.41h69.12m-72.03 33.64h72.03m-90.22 98.06h90.95m-83.68 33.64h83.68" stroke-linecap="round" stroke-linejoin="round" stroke-width="26.398"/><path d="m224.96 311.17v101.75h-9.6z" stroke-width="6.599"/></g><path d="m0 0h850.394v850.394h-850.394z"/></g></svg>