<svg height="850.894" viewBox="0 0 850.894 850.894" width="850.894" xmlns="http://www.w3.org/2000/svg"><path d="m739.8 555.78c-16.26 9.41-52.189 6.85-79.58 1.71-27.38-5.141 0-22.25 0-49.63 0-9.391-5.189-28.91-12.399-50.9-13.811-42.09-35.051-93.22-41.511-99.68-3.89-3.89-32.92-4.7-68.449-4.74-46.92-.05-105.19 1.24-131.9-1.41v-157.53c5.74-.4 12.05-.64 18.94-.64h230.19s21.72 9 10.271 35.94c-5.141 12.07-5.141 16.26 9.409 30.81 14.54 14.54 39.36 90.71 53.91 142.9 0 0 14.551 48.78 22.25 94.13s5.129 49.63-11.131 59.04z" fill="#33a02c"/><path d="m278.36 278.96v6.63h-34.65l-36.59-28.88v-29.52l37.23-26.96h34.01v55.2zm47.02-.49-.56.49h-46.46v-23.53h41.72v8.66c0 5.49 2 10.51 5.3 14.38zm-47.02-47.86h41.72v24.82h-41.72zm43-23.32.9.99c-1.4 2.91-2.18 6.16-2.18 9.6v12.73h-41.72v-23.32z" fill="#787878"/><path d="m359 203.43c3.34 3.88 5.36 8.93 5.36 14.45v46.21c0 8.61-4.92 16.08-12.1 19.73a22.003 22.003 0 0 1 -10.04 2.41c-6.11 0-11.65-2.48-15.66-6.48-.41-.41-.8-.84-1.18-1.28a22.09 22.09 0 0 1 -5.3-14.38v-46.21c0-3.44.78-6.69 2.18-9.6 3.58-7.42 11.17-12.54 19.96-12.54a22.118 22.118 0 0 1 16.78 7.69z" fill="#787878"/><path d="m405.96 193.6v157.53c-4.23-.41-7.67-.93-10.15-1.57-29.7-7.67-43.34-64.85-43.55-65.74 7.18-3.65 12.1-11.12 12.1-19.73v-46.21c0-5.52-2.02-10.57-5.36-14.45.53-.27 15.11-7.59 46.96-9.83z" fill="#be0000"/><path d="m647.82 456.96-22.681 4.69c-22.689 4.689-22.25-22.25-26.949-59.47-4.71-37.22-29.53-29.52-48.351-29.52-18.83 0-11.979-20.12-11.979-20.12 35.529.04 64.56.85 68.449 4.74 6.461 6.46 27.701 57.59 41.511 99.68z" fill="#fff400"/><g fill="none"><g stroke="#000"><g stroke-width="15.403"><path d="m278.36 278.96v6.63h-34.65l-36.59-28.88v-29.52l37.23-26.96h34.01v55.2zm0-71.67h43m37.64-3.86c3.34 3.88 5.36 8.93 5.36 14.45v46.21c0 8.61-4.92 16.08-12.1 19.73a22.003 22.003 0 0 1 -10.04 2.41c-6.11 0-11.65-2.48-15.66-6.48-.41-.41-.8-.84-1.18-1.28a22.09 22.09 0 0 1 -5.3-14.38v-46.21c0-3.44.78-6.69 2.18-9.6 3.58-7.42 11.17-12.54 19.96-12.54a22.118 22.118 0 0 1 16.78 7.69zm-80.64 75.53h46.46m-46.46-48.35h41.72m-41.72 24.82h41.72"/><path d="m352.26 283.81v.01c.21.89 13.85 58.07 43.55 65.74 2.48.64 5.92 1.16 10.15 1.57 26.71 2.65 84.98 1.36 131.9 1.41 35.529.04 64.56.85 68.449 4.74 6.46 6.46 27.7 57.59 41.511 99.68 7.21 21.99 12.399 41.51 12.399 50.9 0 27.38-27.38 44.489 0 49.63 27.391 5.14 63.32 7.7 79.58-1.71s18.83-13.69 11.13-59.04c-7.699-45.351-22.25-94.13-22.25-94.13-14.55-52.19-39.37-128.36-53.91-142.9-14.55-14.55-14.55-18.74-9.409-30.81 11.449-26.94-10.271-35.94-10.271-35.94h-230.19c-6.89 0-13.2.24-18.94.64-31.85 2.24-46.43 9.56-46.96 9.83l-.01.01"/><path d="m537.86 352.54s-6.851 20.12 11.979 20.12c18.82 0 43.641-7.7 48.351 29.52 4.699 37.22 4.26 64.16 26.949 59.47l22.681-4.69m-241.86-263.42v157.59m-332.33-109.31 127.64-.1"/></g><path d="m707.65 568.01s.71 55.8-18.551 105.86" stroke-width="25.671"/></g><path d="m.25.25h850.394v850.394h-850.394z"/></g></svg>