<svg height="850.394" viewBox="0 0 850.394 850.394" width="850.394" xmlns="http://www.w3.org/2000/svg"><path d="m654.64 509.02v36.68s8.811 11.59 39.44 16.109v12.891l-53.96.16h-100.24v-12.9c30.63-4.51 39.45-16.11 39.45-16.11v-37.08h75.31zm-344.71 52.79v12.89l-53.96.16h-100.24v-12.9c30.63-4.51 39.45-16.11 39.45-16.11v-37.08h75.31v36.93s8.81 11.59 39.44 16.11z" fill="#7a7878"/><path d="m353.43 390.49v80.8h-240.27v-160.91h240.27z" fill="#fff"/><path d="m737.75 482.55c4.23 0 7.65 3.42 7.65 7.65 0 4.229-3.42 7.66-7.65 7.66a7.655 7.655 0 0 1 -7.66-7.66c0-4.23 3.42-7.65 7.66-7.65z" fill="#231f20"/><path d="m497.31 390.49v80.8h240.27v-160.91h-240.27zm157.33 118.28h-166.49c-10.351 0-18.74-8.39-18.74-18.75v-187.35c0-10.36 8.39-18.75 18.74-18.75h257.88c10.35 0 18.75 8.39 18.75 18.75v187.35c0 10.36-8.4 18.75-18.75 18.75zm73.48-18.46a7.66 7.66 0 0 0 -7.66-7.659c-4.229 0-7.65 3.43-7.65 7.659 0 4.23 3.421 7.66 7.65 7.66a7.66 7.66 0 0 0 7.66-7.66zm1.97-.11c0 4.229 3.42 7.66 7.66 7.66 4.23 0 7.65-3.431 7.65-7.66 0-4.23-3.42-7.65-7.65-7.65-4.24 0-7.66 3.42-7.66 7.65z" fill="#7a7878"/><path d="m720.46 482.65a7.66 7.66 0 0 1 0 15.319c-4.229 0-7.65-3.43-7.65-7.66 0-4.229 3.42-7.659 7.65-7.659z" fill="#231f20"/><g fill="#f6cc4b"><path d="m680.54 336.44 33.5 37.02h-33.5zm-31.61 50.28v20.73c0 5.38-4.34 9.72-9.71 9.72-2.68 0-5.1-1.09-6.859-2.84a9.73 9.73 0 0 1 -2.841-6.88v-18.52h2.631c0 1.88.76 3.58 2 4.81a6.75 6.75 0 0 0 4.819 2 6.812 6.812 0 0 0 6.811-6.81l.06-33.48h3.09v31.27z"/><path d="m645.84 336.44h34.7v37.02h33.5v97.83h-104v-134.85h19.479v71.01a9.73 9.73 0 0 0 2.841 6.88 9.699 9.699 0 0 0 6.859 2.84c5.37 0 9.71-4.34 9.71-9.72v-52h-3.09v-19.01z"/><path d="m632.15 388.93h-2.631v-52.49h16.32v19.01l-.06 33.48c0 3.76-3.05 6.81-6.811 6.81-1.89 0-3.59-.76-4.819-2a6.75 6.75 0 0 1 -1.999-4.81z"/></g><path d="m680.54 336.44h-70.5v134.85h-112.73v-160.91h240.27v160.91h-23.54v-97.83z" fill="#fff"/><path d="m353.6 482.55c4.23 0 7.65 3.42 7.65 7.65 0 4.229-3.42 7.66-7.65 7.66s-7.66-3.431-7.66-7.66c0-4.23 3.43-7.65 7.66-7.65z" fill="#231f20"/><path d="m343.97 490.31a7.654 7.654 0 1 0 -15.31 0 7.654 7.654 0 1 0 15.31 0zm1.97-.11c0 4.229 3.43 7.66 7.66 7.66s7.65-3.431 7.65-7.66c0-4.23-3.42-7.65-7.65-7.65s-7.66 3.42-7.66 7.65zm7.49-99.71v-80.11h-240.27v160.91h240.27zm27.2 0v99.529c0 10.36-8.4 18.75-18.75 18.75h-257.88c-10.35 0-18.74-8.39-18.74-18.75v-187.349c0-10.36 8.39-18.75 18.74-18.75h257.88c10.35 0 18.75 8.39 18.75 18.75z" fill="#7a7878"/><path d="m336.32 482.65c4.22 0 7.65 3.43 7.65 7.659a7.654 7.654 0 1 1 -15.31 0 7.654 7.654 0 0 1 7.66-7.659z" fill="#231f20"/><g fill="none" stroke="#231f20"><path d="m469.41 390.49v-87.82c0-10.36 8.39-18.75 18.74-18.75h257.88c10.35 0 18.75 8.39 18.75 18.75v187.35c0 10.36-8.4 18.75-18.75 18.75h-257.88c-10.351 0-18.74-8.39-18.74-18.75z" stroke-width="21"/><path d="m497.31 390.49v-80.11h240.27v160.91h-240.27z" stroke-width="14"/><path d="m654.64 510.02v35.68s8.811 11.59 39.44 16.109v12.891l-53.96.16h-100.24v-12.9c30.63-4.51 39.45-16.11 39.45-16.11v-35.68m-198.7-119.68v99.529c0 10.36-8.4 18.75-18.75 18.75h-257.88c-10.35 0-18.74-8.39-18.74-18.75v-187.349c0-10.36 8.39-18.75 18.74-18.75h257.88c10.35 0 18.75 8.39 18.75 18.75z" stroke-width="21"/><path d="m353.43 471.29h-240.27v-160.91h240.27v80.11z" stroke-width="14"/><path d="m270.49 510.02v35.68s8.81 11.59 39.44 16.109v12.891l-53.96.16h-100.24v-12.9c30.63-4.51 39.45-16.11 39.45-16.11v-35.68m45.02-119.68h330.44m-43.62 40.23 44.47-40.38-44.54-40.36" stroke-width="21"/><g stroke-width="7"><path d="m645.84 338.02v17.43l-.06 33.48c0 3.76-3.05 6.81-6.811 6.81-1.89 0-3.59-.76-4.819-2-1.24-1.23-2-2.93-2-4.81v-32.75"/><path d="m648.93 342.17v65.28c0 5.38-4.34 9.72-9.71 9.72-2.68 0-5.1-1.09-6.859-2.84a9.73 9.73 0 0 1 -2.841-6.88v-69.43"/><path d="m714.04 467.45v-93.99l-33.5-37.02h-70.5v133.13"/><path d="m680.54 336.19v37.27h33.5"/></g></g><path d="m0 0h850.394v850.394h-850.394z" fill="none"/></svg>