<svg height="850.394" viewBox="0 0 850.394 850.394" width="850.394" xmlns="http://www.w3.org/2000/svg"><path d="m299.99 266.05-62.66-77.9 2.67-2.15 64.95-105.63 290.68 143.31-103.63 182.32-27.15 6.79-12.85 3.21 4.35-.35-225.06 18.54 3.19 19.329-26.59 3.5 16.58 100.891h-.01l-150.94-88.22 144.48-243.69.92-.74 51.79 64.4c.96 1.17 2.23 1.99 3.73 2.48 1.61 1.03 35.03 22.43 37.78 24.51l16.45 12.45-8.65-19.19-18.23-37.91-.2-.01c.17-2.27-.34-4.33-1.63-5.92z" fill="#f6cc4b"/><path d="m237.33 188.15 62.66 77.9-.03.02c1.29 1.59 1.8 3.65 1.63 5.92-.37 4.75-3.72 10.45-9.24 14.88-6.18 4.98-13.16 6.81-17.91 5.27-1.5-.49-2.77-1.31-3.73-2.48l-51.79-64.4-55.54-69.06c4.61 3.05 13.11 1.34 20.32-4.46 8.14-6.55 11.56-15.84 7.63-20.77z" fill="#c8c8c8"/><path d="m456.35 415.65-4.35.35 12.85-3.21 53.2 301.29-258.78 55.66-34.8-211.83-16.58-100.89 26.59-3.5 47.28 287 225.07-50.57z" fill="#ff001c"/><path d="m727.57 367.56 50.02 310.84-259.54 35.68-53.2-301.29 27.15-6.79.28.98-20.36 5.82 50.47 274.29 225.07-32.26-46.78-283.91z" fill="#ff001c"/><path d="m301.79 272 18.23 37.91s-.67 12.14-7.8 6.74c-2.75-2.08-36.17-23.48-37.78-24.51 4.75 1.54 11.73-.29 17.91-5.27 5.52-4.43 8.87-10.13 9.24-14.88zm-135.78-172.51 25.3 31.45.02.03c3.93 4.93.51 14.22-7.63 20.77-7.21 5.8-15.71 7.51-20.32 4.46l-25.89-32.19c4.62 3.05 13.11 1.34 20.32-4.46 7.75-6.23 11.21-14.94 8.14-20.02z" fill="#0b00ea"/><path d="m137.49 124.01a7.17 7.17 0 0 1 -1.63-1.48c-3.96-4.92-.56-14.23 7.61-20.8 8.16-6.57 17.99-7.9 21.95-2.98.2.25.38.51.53.78 3.07 5.08-.39 13.79-8.14 20.02-7.21 5.8-15.7 7.51-20.32 4.46z" fill="#0b00ea"/><path d="m234.48 453.52-3.19-19.33 225.06-18.54 50.48 274.3-225.07 50.57zm466.2-82.6 46.78 283.91-225.07 32.26-50.47-274.29 20.36-5.82 204.7-58.49z" fill="#fff"/><g fill="none"><g><g stroke="#231f20"><path d="m165.95 99.53c3.07 5.08-.39 13.79-8.14 20.02-7.21 5.8-15.7 7.51-20.32 4.46a7.17 7.17 0 0 1 -1.63-1.48c-3.96-4.92-.56-14.23 7.61-20.8 8.16-6.57 17.99-7.9 21.95-2.98.2.25.38.51.53.78zm25.38 31.44c3.93 4.93.51 14.22-7.63 20.77-7.21 5.8-15.71 7.51-20.32 4.46a7.17 7.17 0 0 1 -1.63-1.48" stroke-width="21"/><path d="m270.43 289.89c-.01-.02-.02-.03-.03-.04" stroke-width="19.295"/><path d="m299.96 266.07c1.29 1.59 1.8 3.65 1.63 5.92-.37 4.75-3.72 10.45-9.24 14.88-6.18 4.98-13.16 6.81-17.91 5.27-1.5-.49-2.77-1.31-3.73-2.48" stroke-width="21"/><path d="m270.71 289.66-51.79-64.4-55.54-69.06-25.89-32.19-.65-.81m29.17-23.71 25.3 31.45.02.03 46 57.18 62.66 77.9.03.04" stroke-width="21"/><path d="m301.79 272 18.23 37.91s-.67 12.14-7.8 6.74c-2.75-2.08-36.17-23.48-37.78-24.51-.04-.03-.06-.04-.06-.04" stroke-width="14"/><path d="m320.02 309.91 8.65 19.19-16.45-12.45" stroke-linecap="round" stroke-linejoin="round" stroke-width="14"/><path d="m240 186 64.95-105.63 290.68 143.31-103.63 182.32m-267.54 151.91-150.94-88.22 144.48-243.69m238.35 189.65 50.48 274.3-225.07 50.57-47.28-287-3.19-19.33zm244.33-44.73 46.78 283.91-225.07 32.26-50.47-274.29 20.36-5.82 204.7-58.49z" stroke-width="21"/></g><path d="m464 408 .85 4.79 53.2 301.29" stroke="#fff" stroke-dasharray="12.863" stroke-width="7"/><path d="m518.05 714.08 259.54-35.68-50.02-310.84-26.89 3.36-3.7.46m-178.93 342.7-258.78 55.66-34.8-211.83-16.58-100.89 26.59-3.5 3.97-.52m21.1 19.54 186.51-14.88m-179.75 38.84 179.68-14.87m-172.91 43.26 178.63-14.87m-175.8 43.45 181.52-14.87m-174.76 46.44 180.28-16.22m-173.52 48.26 181.93-21.55m-174.13 51.3 177.96-29.11m-174.51 55.43 174.96-30.36m-173.42 60.11 180.43-31.75m195.65-279.7-180.78 48.22m182.4-23.36-174.34 45.94m177.44-16.93-173.36 45.6m180.23-17.71-176.08 46.55m180.23-14.52-175.35 44.85m179.67-12.41-178.69 40.41m181.28-9.76-177.49 31.94m183.02-5.98-175.07 29.77m183.54-1.2-180.69 30.27" stroke="#231f20" stroke-width="14"/><path d="m452 416 4.35-.35" stroke="#231f20" stroke-linecap="round" stroke-linejoin="round" stroke-width="19.295"/></g><path d="m0 0h850.394v850.394h-850.394z"/><path d="m0 0h850.394v850.394h-850.394z"/></g></svg>