<svg height="850.394" viewBox="0 0 850.394 850.394" width="850.394" xmlns="http://www.w3.org/2000/svg"><path d="m736.97 270.52 34.64 215.3-179.77 24.7-37.42-210.16 17.82-2.04-12.35 3.53 34.95 189.98 155.9-22.34-32.44-196.88 3.7-.61z" fill="#ff001c"/><path d="m718.3 272.61 32.44 196.88-155.9 22.34-34.95-189.98 12.35-3.53h.02l143.52-41zm-290.12 256.23-32.84-199.39-2.11-12.78 146.98-12.11 8.89-.73 34.97 189.98z" fill="#fff"/><path d="m554.42 300.36 37.42 210.16-179.23 38.56-24.11-146.72-11.48-69.88 14.98-2.48 3.34-.55 32.84 199.39 155.89-35.03-34.97-189.98-8.89.73-.21-2.56z" fill="#ff001c"/><path d="m442.05 204.33 12.63 26.27s-.46 8.41-5.399 4.66c-1.95-1.47-26.21-17-26.21-17 3.28 1.11 8.15-.16 12.45-3.62 3.82-3.08 6.15-7.03 6.391-10.32z" fill="#0b00ea"/><path d="m554.42 300.36-14.42 1.64.21 2.56-146.98 12.11 2.11 12.78-3.34.55-14.98 2.48 11.48 69.88-104.55-61.1 98-164.85 3.82-3.07 34.77 43.22c.65.8 1.51 1.36 2.53 1.7 0 0 24.26 15.53 26.21 17l11.399 8.62-6-13.28-12.63-26.27-.14-.01c.12-1.57-.23-2.99-1.12-4.09l.01-.01-43.15-53.66 3.92-3.15 42.68-71.8 201.33 99.26-73.32 127.45h-.02z" fill="#f6cc4b"/><path d="m440.79 200.23c.89 1.1 1.24 2.52 1.12 4.09-.24 3.29-2.57 7.24-6.391 10.32-4.3 3.46-9.17 4.73-12.45 3.62-1.02-.34-1.88-.9-2.53-1.7l-34.77-43.22-39.58-49.21c3.2 2.12 9.09.92 14.08-3.09 5.63-4.53 8-10.95 5.29-14.37l32.09 39.89 43.15 53.66z" fill="#c8c8c8"/><path d="m406.04 651.45 21.22 36.58h-153.54l19.85-33.12 3.07-5.11h108.44z" fill="#9c5b16"/><path d="m412.76 688.33v88.96h-119.61v-89.26h119.61z" fill="#9c5b16"/><path d="m329.36 578.41c3.75-1.13 7.82-1.75 12.07-1.75h16.78c4.07 0 7.97.56 11.58 1.6 12.86 3.67 22.03 13.3 22.03 24.59v46.95h-84.01v-46.95c0-11.15 8.94-20.67 21.55-24.44z" fill="#0b00ea"/><path d="m391.82 602.85c0-11.29-9.17-20.92-22.03-24.59l.33-1.08s35.92.86 35.92 45.96v28.311l-.96-1.65h-13.26z" fill="#0b00ea"/><path d="m349.12 501.28c16.55 0 29.98 16.29 29.98 36.37s-13.43 36.38-29.98 36.38c-16.57 0-29.99-16.3-29.99-36.38s13.42-36.37 29.99-36.37z" fill="#ffeec8"/><path d="m348.02 84.86 17.52 21.78.02.03c2.71 3.42.34 9.84-5.29 14.37-4.99 4.01-10.88 5.21-14.08 3.09l-17.95-22.32c3.19 2.15 9.09.96 14.09-3.06 5.37-4.32 7.77-10.35 5.65-13.87z" fill="#0b00ea"/><path d="m328.24 101.81c-.42-.27-.79-.61-1.11-1-2.74-3.41-.38-9.86 5.27-14.41 5.66-4.54 12.46-5.46 15.21-2.06.14.17.26.35.37.54 2.12 3.52-.28 9.55-5.65 13.87-5 4.02-10.9 5.21-14.09 3.06zm1.12 476.6c-12.61 3.77-21.55 13.29-21.55 24.439v46.95h-11.17l-3.07 5.11v-30.55c0-43.519 33.44-45.849 35.79-45.949z" fill="#0b00ea"/><path d="m209.62 651.45 21.22 36.58h-153.54l19.85-33.12 3.07-5.11h108.44z" fill="#9c5b16"/><path d="m216.34 688.33v88.96h-119.61v-89.26h119.61z" fill="#9c5b16"/><path d="m132.94 578.41c3.75-1.13 7.82-1.75 12.07-1.75h16.78c4.07 0 7.97.56 11.58 1.6 12.86 3.67 22.03 13.3 22.03 24.59v46.95h-84.01v-46.95c0-11.15 8.94-20.67 21.55-24.44z" fill="#0b00ea"/><path d="m209.62 623.14v28.311l-.96-1.65h-13.26v-46.95c0-11.29-9.17-20.92-22.03-24.59l.33-1.08c0-.001 35.92.859 35.92 45.959z" fill="#0b00ea"/><path d="m152.69 501.28c16.56 0 29.99 16.29 29.99 36.37s-13.43 36.38-29.99 36.38-29.98-16.3-29.98-36.38 13.42-36.37 29.98-36.37z" fill="#ffeec8"/><path d="m132.94 578.41c-12.61 3.77-21.55 13.29-21.55 24.439v46.95h-11.17l-3.07 5.11v-30.55c0-43.519 33.44-45.849 35.79-45.949z" fill="#0b00ea"/><g fill="none"><g><path d="m347.98 84.88c2.12 3.52-.28 9.55-5.65 13.87-5 4.02-10.9 5.21-14.09 3.06-.42-.27-.79-.61-1.11-1-2.74-3.41-.38-9.86 5.27-14.41 5.66-4.54 12.46-5.46 15.21-2.06.14.17.26.35.37.54zm17.58 21.79c2.71 3.42.34 9.84-5.29 14.37-4.99 4.01-10.88 5.21-14.08 3.09-.43-.28-.81-.62-1.13-1.02" stroke="#231f20" stroke-width="14"/><path d="m420.34 216.73c-.01-.02-.02-.02-.02-.03m20.47-16.47c.89 1.1 1.24 2.52 1.12 4.09-.24 3.29-2.57 7.24-6.391 10.32-4.3 3.46-9.17 4.73-12.45 3.62-1.02-.34-1.88-.9-2.53-1.7" stroke="#231f20" stroke-width="12.736"/><path d="m420.54 216.56-34.77-43.22-39.58-49.21-17.95-22.32-.43-.53m20.21-16.42 17.52 21.78.02.03 32.09 39.89 43.15 53.66.03.03m1.22 4.08 12.63 26.27s-.46 8.41-5.399 4.66c-1.95-1.47-26.21-17-26.21-17" stroke="#231f20" stroke-width="14"/><path d="m454.68 230.6 6 13.28-11.4-8.62" stroke="#231f20" stroke-linecap="round" stroke-linejoin="round" stroke-width="14"/><path d="m401.57 143.41 42.68-71.8 201.33 99.26-73.32 127.45m-183.76 104.04-104.55-61.1 98-164.85m158.26 128.15 8.89-.73 34.97 189.98-155.89 35.03-32.84-199.39-2.11-12.78z" stroke="#231f20" stroke-width="14"/><path d="m572.26 298.32 143.52-41 2.52 15.29 32.44 196.88-155.9 22.34-34.95-189.98 12.35-3.53" stroke="#231f20" stroke-width="14"/><path d="m554 298 .42 2.36 37.42 210.16" stroke="#fff" stroke-dasharray="12.736" stroke-width="6.368"/><g stroke="#231f20"><path d="m591.84 510.52 179.77-24.7-34.64-215.3-14.97 1.48m-130.16 238.52-179.23 38.56-24.11-146.72-11.48-69.88 14.98-2.48" stroke-width="14"/><path d="m412.8 343.23 129.18-10.31m-124.49 26.91 124.44-10.3m-119.77 29.96 123.74-10.3m-121.77 30.1 125.73-10.3m-121.04 32.16 124.87-11.23m-120.18 33.43 126-14.93m-120.61 35.53 123.26-20.17m-120.87 38.4 121.18-21.03m-120.12 41.63 124.97-21.99m135.51-193.72-125.2 33.4m126.33-16.18-120.75 31.82m122.9-11.73-120.08 31.58m124.83-12.26-121.96 32.24m124.84-10.06-121.46 31.06m124.45-8.59-123.77 27.99m125.56-6.76-122.93 22.12m126.76-4.14-121.26 20.62m127.13-.83-125.15 20.97" stroke-width="7"/><path d="m182.68 537.65c0 20.08-13.43 36.38-29.99 36.38s-29.98-16.3-29.98-36.38 13.42-36.37 29.98-36.37 29.99 16.29 29.99 36.37zm12.72 112.15v-46.95c0-11.29-9.17-20.92-22.03-24.59-3.61-1.04-7.51-1.6-11.58-1.6h-16.78c-4.25 0-8.32.62-12.07 1.75-12.61 3.77-21.55 13.29-21.55 24.439v46.95" stroke-width="14"/><path d="m195.4 649.8h13.26l.96 1.65 21.22 36.58h-153.54l19.85-33.12 3.07-5.11h11.17zm-98.67 38.53v88.96h119.61v-88.96" stroke-width="21"/><path d="m133.07 578.4s-.04 0-.13.01c-2.35.1-35.79 2.43-35.79 45.95v30.55m76.55-77.73s35.92.86 35.92 45.96v30.561m169.48-116.051c0 20.08-13.43 36.38-29.98 36.38-16.57 0-29.99-16.3-29.99-36.38s13.42-36.37 29.99-36.37c16.55 0 29.98 16.29 29.98 36.37zm12.72 112.15v-46.95c0-11.29-9.17-20.92-22.03-24.59-3.61-1.04-7.51-1.6-11.58-1.6h-16.78c-4.25 0-8.32.62-12.07 1.75-12.61 3.77-21.55 13.29-21.55 24.439v46.95" stroke-width="14"/><path d="m391.82 649.8h13.26l.96 1.65 21.22 36.58h-153.54l19.85-33.12 3.07-5.11h11.17zm-98.67 38.53v88.96h119.61v-88.96" stroke-width="21"/><path d="m329.49 578.4s-.04 0-.13.01c-2.35.1-35.79 2.43-35.79 45.95v30.55m76.55-77.73s35.92.86 35.92 45.96v30.561m166.2-355.381h.02" stroke-width="14"/></g></g><path d="m0 0h850.394v850.394h-850.394z"/></g></svg>