<svg height="850.394" viewBox="0 0 850.394 850.394" width="850.394" xmlns="http://www.w3.org/2000/svg"><path d="m623.58 283.39-7.56 5.39-42.05-17.97 7.19-5.39zm-86.28-16.17-7.54 5.38-11.86-5.74 7.18-5.4zm7.08-22.05-8.15 5.51-7.67-3.83 8.39-5.28zm-31.51 11.26-7.55 5.4-11.86-5.76 7.18-5.39zm-54.04-22.16-7.55 5.39-11.86-5.75 7.2-5.39zm7.07-22.05-8.14 5.51-7.68-3.83 8.4-5.28zm-31.51 11.26-7.55 5.4-11.86-5.75 7.19-5.4zm-45.65-46.36-8.15 5.51-7.67-3.84 8.39-5.27zm-7.07 22.04-7.55 5.4-11.86-5.76 7.19-5.39zm-24.44-10.78-7.55 5.39-11.86-5.75 7.19-5.39zm-48.53-21.45-7.54 5.39-11.86-5.74 7.18-5.4zm-24.44-10.78-7.55 5.39-11.86-5.75 7.19-5.39zm31.51-11.27-8.14 5.52-7.67-3.84 8.39-5.27z" fill="#c8c8c8"/><path d="m166.49 514.63.05 2.71-7.17 47.21h-24.21l-7.17-47.21.05-2.71c13.21.28 25.24.28 38.45 0z" fill="#231f20"/><g fill="#ffffc2"><path d="m205.47 458.96c.3 11.36 0 39.15 0 39.15s-.86 15.199-17.03 15.83c-7.86.31-15.07.529-21.95.689-13.21.28-25.24.28-38.45 0-6.88-.16-14.08-.38-21.94-.689-16.17-.631-17.03-15.83-17.03-15.83s-.3-27.79 0-39.15c.3-11.35 8.06-20.91 19.72-38.85 11.65-17.92 17.93-17.92 17.93-17.92h41.1s6.28 0 17.93 17.92c11.65 17.94 19.42 27.5 19.72 38.85zm19.84-294.9 74.05-46.73 431.33 181.16-63.74 67.57-4.32-.96-435.16-198.17h-2.16zm390.71 124.72 7.561-5.39-42.42-17.97-7.19 5.39zm-79.79-38.1 8.149-5.51-7.43-3.6-8.391 5.28zm-6.47 21.92 7.54-5.38-12.22-5.76-7.18 5.4zm-24.44-10.77 7.55-5.4-12.23-5.75-7.18 5.39zm-47.56-44.1 8.141-5.51-7.42-3.6-8.4 5.28zm-6.48 21.93 7.55-5.39-12.21-5.75-7.2 5.39zm-24.44-10.78 7.55-5.4-12.22-5.75-7.19 5.4zm-46.25-46.25 8.15-5.51-7.43-3.6-8.39 5.27zm-6.47 21.93 7.55-5.4-12.22-5.75-7.19 5.39zm-24.44-10.79 7.55-5.39-12.22-5.75-7.19 5.39zm-42.05-43.37 8.14-5.52-7.42-3.59-8.39 5.27zm-6.47 21.92 7.54-5.39-12.22-5.75-7.18 5.4zm-24.45-10.78 7.55-5.39-12.22-5.75-7.19 5.39z"/><path d="m712.65 366.34-42.83 49.57-4.01-1.86 1.14-2.46v-45.53l63.74-67.57v46.97z"/><path d="m666.95 366.06v45.53l-1.14 2.46-440.5-204.7v-42.42h2.16l435.16 198.17z"/></g><g fill="none" stroke="#231f20"><path d="m712.65 366.34-42.83 49.57-4.01-1.86-440.5-204.7v-45.29l74.05-46.73 431.33 181.16v46.97zm-485.18-199.41 435.16 198.17" stroke-width="14"/><path d="m666.95 411.59v-45.53l63.74-67.57" stroke-width="14"/><path d="m289.3 166.58 7.18-5.4 12.22 5.75-7.54 5.39zm-24.45-10.79 7.19-5.39 12.22 5.75-7.55 5.39zm35.11-9.23 8.39-5.27 7.42 3.59-8.14 5.52zm62.3 52.24 7.19-5.39 12.22 5.75-7.55 5.4zm-24.44-10.78 7.19-5.39 12.22 5.75-7.55 5.39zm35.1-9.23 8.39-5.27 7.43 3.6-8.15 5.51zm66.5 55.12 7.2-5.39 12.21 5.75-7.55 5.39zm-24.44-10.78 7.19-5.4 12.22 5.75-7.55 5.4zm35.1-9.23 8.4-5.28 7.42 3.6-8.14 5.51zm67.82 52.96 7.18-5.4 12.22 5.76-7.54 5.38zm56.07 3.95 7.19-5.39 42.42 17.97-7.56 5.39zm-80.51-14.74 7.18-5.39 12.23 5.75-7.55 5.4zm35.1-9.22 8.39-5.28 7.43 3.6-8.15 5.51z" stroke-width="6.132"/><g stroke-width="14"><path d="m578.91 430.85c40.939 30.82 66.46 74.351 66.46 122.601 0 93.43-95.68 169.18-213.74 169.18-43.85 0-84.62-10.46-118.54-28.38-57.4-30.34-95.2-82.08-95.2-140.8 0-93.431 95.7-169.17 213.74-169.17 57.09-.001 108.95 17.719 147.28 46.569z"/><path d="m578.91 430.85c57.41 30.33 95.22 82.08 95.22 140.811 0 93.43-95.689 169.17-213.74 169.17-28.569 0-55.82-4.43-80.729-12.48-24.88-8.04-47.41-19.68-66.57-34.1-40.94-30.82-66.45-74.35-66.45-122.59 0-93.43 95.7-169.18 213.75-169.18 43.849-.001 84.599 10.449 118.519 28.369zm-412.42 83.78c6.88-.16 14.09-.38 21.95-.689 16.17-.631 17.03-15.83 17.03-15.83s.3-27.79 0-39.15c-.3-11.35-8.07-20.91-19.72-38.85-11.65-17.92-17.93-17.92-17.93-17.92h-41.1s-6.28 0-17.93 17.92c-11.66 17.94-19.42 27.5-19.72 38.85-.3 11.36 0 39.15 0 39.15s.86 15.199 17.03 15.83c7.86.31 15.06.529 21.94.689 13.21.28 25.24.28 38.45 0zm-38.5 2.71 7.17 47.21h24.21l7.17-47.21"/><path d="m147.64 565.93s21.7 160.66 232.02 162.42c.54.011 1.08.021 1.62.021"/><path d="m700.02 357.91s5.25 2.41 12.631 8.43c16.43 13.35 43.439 44.53 46.79 106.59 6.71 124.61-83.381 209.91-193.61 246.34" stroke-linecap="round" stroke-linejoin="round"/></g></g><path d="m0 0h850.394v850.394h-850.394z" fill="none"/></svg>