<svg height="850.394" viewBox="0 0 850.394 850.394" width="850.394" xmlns="http://www.w3.org/2000/svg"><path d="m384.531 637v-360.5h-62v-54.5h62v-44.117c0-27.852 2.477-48.547 7.43-62.086 6.781-18.219 18.703-32.984 35.781-44.313 17.078-11.319 40.977-16.984 71.711-16.984 19.789 0 41.664 2.352 65.625 7.039l-10.547 61.359c-14.586-2.594-28.391-3.898-41.406-3.898-21.359 0-36.461 4.555-45.313 13.656-8.859 9.109-13.281 26.141-13.281 51.109v38.235h81v54.5h-80.5v360.5z" fill="#50264c"/><path d="m0 0h850.394v850.394h-850.394z" fill="none"/></svg>