<svg height="850" viewBox="0 0 850 850" width="850" xmlns="http://www.w3.org/2000/svg"><path d="m582.3 88.8.2 1.2-.2 1.5-.3 1.8-.5 2-1.2 4-2 4.5-2.3 4-2.2 3.7-2 3-1.5 1.8-.3 54v8.5l-3.2-.3h-25l.5-4.7.7-4.5 3.3-16.5 3-18.5 3.5-21.5 1-5.3 1.2-5.2 1.5-5 1.8-4.8 1.7-4.5 1.8-3.7 1.5-2.8 1.5-2.2 1-.8 1.2-.7 1.3-.8 1.5-.7 1.5-.3h3l1.5.8.5.5.5.5.2.7.3 1v4.3l-.8 4.5-.2 2v1.7h1.2l.8-.2.7-.8.8-.7 1-1.3.7-.2zm44 134-2.5 1-2.5.7-2.5.8-2.5.2h-2.5l-2.5-.2-2.5-.5-2.3-.8-2-1-1.7-1-1.8-1.2-1.5-1.3-1.5-1.5-1.2-1.7-1.3-1.8-1-1.7-1.5-3.5-1-3.5-.7-4-.3-4 .3-4.3.5-4.2 1-4.3 1.5-4.2 1.5-3.3 1.7-3.2 2-3 2-2.5 2.3-2.5 2.2-2.3 2.5-2 2.8-1.5 2.5-1.5 2.7-1 2.8-1 2.7-.5h5.8l2.5.8 2.7.7 2.5 1.3 2.5 1.5 2 1.7 2 2 1.5 2.5 1.5 2.5 1.3 2.5.7 3 .8 3 .5 3 .2 3.3-.2 3.2-.3 3.5-.7 3.5-.8 3.3-1.2 3.5-1.8 3.7-2 3.3-2 3.2-2.5 2.8-2.5 2.5-2.7 2.5-2.8 1.7zm114.7-72.8-.5 2.5-.7 3.3-1.5 3.7-1.8 4.5-2 4.5-2.5 4.8-2.7 4.5-3 4.5-12.3 18-10.7 15.5-9 14-2 2.5-24-14.5 5.7-6 37.3-39 .2-2.5.8-3.3 1-4.2 1.2-4.8 1.5-4.2 1.8-4 1-1.8 1-1.5 1-1 1-.7.7.2.3.8-.3 1.7v1l.3 1 .2.8.8.7 1.2-1.2 1.3-1.5 2.7-3.8 1.5-1.7 1.5-1.3.8-.5.7-.5h1.5l1.3.5 1.2.8 1 1.2 1 1.3.5 1.5.5 1.5.5 1.5z" fill="#ffeec8"/><path d="m626.3 222.8 1.7 4.5 2.3 4.5 1.2 1.7 1.3 1.8 1.5 1.7 1.5 1.3 1.5 1 1.5.7 1.7.5 1.8.3 1.7-.5 2-.5 2-1.3 2-1.5 4.8-4.7 4.5-4.8 9-9.7 24 14.5-3 4.5-3.5 4.2-4 4.5-4 4.8-8.5 9-8.3 8.2-7.7 7.3-6.3 6-6 5.2-33.7 61.3-.3 1.7-.7 5.3-1.8 8.2-1 5-1.5 5.8-.2-.3-92.3-41-3.2-.2 7-7 5.5-5 4.7-4.3.5-1.2 19.5-70.3-.7-6.5-.5-7-.8-9-.5-10.5-.2-10.7.2-11 .3-5.5.5-5.3h25l3.2.3-.5 13.2.3 6.5.2 6.8.3 2.5.5 2.2.5 2 1 1.8 1 1.2 1 1 1.5 1 1.5.5 1.5.3h1.7l1.8-.3 2-.5 4.2-1.2 4.5-2 1.5-1 1 1.7 1.3 1.8 1.2 1.7 1.5 1.5 1.5 1.3 1.8 1.2 1.7 1 2 1 2.3.8 2.5.5 2.5.2h2.5l2.5-.2 2.5-.8 2.5-.7z" fill="#a9d7f3"/><path d="m391 478 18.3 26.5-2.3 2.3-2.2 1.7-2 1-1.8.5-2 .3-1.7-.3-1.5-.7-1.8-.8-3.5-2.5-4-2.7-2.2-1.5-2.5-1.5-2.5-1.3-3-1.2-3.3-1-.7-.3-.5.3h-2l-2-.3-3.3-.7-1-.3-1.2-.5-2.3-1.2-2-1.8-1.7-2.2-1.3-2.3-1-2.2v-1l-.2-1.3.2-1 .3-.7 1-2 1.5-1.5 1.5-1.3 2-1 2-.5 2-.5h2.2l2.5.3 11.8 2.5 2.7.5 2.8.2h2.5zm150.3 94.8 1.2 1.7 1 2 .8 2.3.2 2v2l-.2 2-.8 2-1.2 2-.8.5-.7.5-1 .5-1 .2-2.5.5-2.5-.2-2.8-.5-2.5-1-2.2-1.3-1-1-.8-.7-2-2.5-1-1.8-1-1.7-.2-.5-.3-.5-2.5-2.5-2.5-2-2.2-2-4.3-3-4-2.5-1.7-1-1.5-1.3-1.5-1.2-1-1.5-.8-1.5-.5-1.8-.2-2.2.2-2.3.5-2.7.8-3.3 29.7 1.8-.2 1v2.5l.5 1.2 1.2 2.8 1.8 2.7 2 3 2.5 3z" fill="#231f20"/><path d="m394.5 476.3 15.8-21.5 27.7-37.8 15.3-20.2 14.2-19 12-15.8 8.5-10.5 5-5.7 4.5-5 8.8-9 3.2.2 92.3 41 .2.3-1.5 5-1.7 5.2-2 5.5-2.3 6-14.7 35.3-22.3 52.2-29 67.8-29.7-1.8 3-12.5 40.2-140.7-15.5-6.3-109 108.3-8.2 7.2-18.3-26.5 2-.7 1-.3z" fill="#7a7878"/><path d="m377 536.5v234h-4.2l-262-2 1.7-232z" fill="#f6cc4b"/><g fill="none" stroke="#231f20" stroke-linecap="round" stroke-miterlimit="10"><path d="m112.5 536.5h264.5v236.3" stroke-width="21"/><path d="m594.5 212.8-1.5-3.5-1-3.5-.7-4-.3-4 .3-4.3.5-4.2 1-4.3 1.5-4.2 1.5-3.3 1.7-3.2 2-3 2-2.5 2.3-2.5 2.2-2.3 2.5-2 2.8-1.5 2.5-1.5 2.7-1 2.8-1 2.7-.5h5.8l2.5.8 2.7.7 2.5 1.3 2.5 1.5 2 1.7 2 2 1.5 2.5 1.5 2.5 1.3 2.5.7 3 .8 3 .5 3 .2 3.3-.2 3.2-.3 3.5-.7 3.5-.8 3.3-1.2 3.5-1.8 3.7-2 3.3-2 3.2-2.5 2.8-2.5 2.5-2.7 2.5-2.8 1.7-2.7 1.8-2.5 1-2.5.7-2.5.8-2.5.2h-2.5l-2.5-.2-2.5-.5-2.3-.8-2-1-1.7-1-1.8-1.2-1.5-1.3-1.5-1.5-1.2-1.7-1.3-1.8z" stroke-width="14"/><path d="m593 213.8-4.5 2-4.2 1.2-2 .5-1.8.3h-1.7l-1.5-.3-1.5-.5-1.5-1-1-1-1-1.2-1-1.8-.5-2-.5-2.2-.3-2.5-.2-6.8-.3-6.5.5-13.2v-8.5l.3-54 1.5-1.8 2-3 2.2-3.7 2.3-4 2-4.5 1.2-4 .5-2 .3-1.8.2-1.5-.2-1.2h-.8l-.7.2-1 1.3-.8.7-.7.8-.8.2h-1.2v-1.7l.2-2 .8-4.5v-4.3l-.3-1-.2-.7-.5-.5-.5-.5-1.5-.8h-3l-1.5.3-1.5.7-1.3.8-1.2.7-1 .8-1.5 2.2-1.5 2.8-1.8 3.7-1.7 4.5-1.8 4.8-1.5 5-1.2 5.2-1 5.3m173.5 69.5-12.3 18-10.7 15.5-9 14-2 2.5-3 4.5-3.5 4.2-4 4.5-4 4.8-8.5 9-8.3 8.2-7.7 7.3-6.3 6-6 5.2-33.7 61.3-.3 1.7-.7 5.3-1.8 8.2-1 5-1.5 5.8-1.5 5-1.7 5.2-2 5.5-2.3 6-14.7 35.3-22.3 52.2-29 67.8m97.3-328.8.5 1.3 1.7 4.5 2.3 4.5 1.2 1.7 1.3 1.8 1.5 1.7 1.5 1.3 1.5 1 1.5.7 1.7.5 1.8.3 1.7-.5 2-.5 2-1.3 2-1.5 4.8-4.7 4.5-4.8 9-9.7 5.7-6 37.3-39 .2-2.5.8-3.3 1-4.2 1.2-4.8 1.5-4.2 1.8-4 1-1.8 1-1.5 1-1 1-.7.7.2.3.8-.3 1.7v1l.3 1 .2.8.8.7 1.2-1.2 1.3-1.5 2.7-3.8 1.5-1.7 1.5-1.3.8-.5.7-.5h1.5l1.3.5 1.2.8 1 1.2 1 1.3.5 1.5.5 1.5.5 1.5v1.2l-.5 2.5-.7 3.3-1.5 3.7-1.8 4.5-2 4.5-2.5 4.8-2.7 4.5-3 4.5m-224.5 353.7-3 12.5-.8 3.3-.5 2.7-.2 2.3.2 2.2.5 1.8.8 1.5 1 1.5 1.5 1.2 1.5 1.3 1.7 1 4 2.5 4.3 3 2.2 2 2.5 2 2.5 2.5.3.5.2.5 1 1.7 1 1.8 2 2.5.8.7 1 1 2.2 1.3 2.5 1 2.8.5 2.5.2 2.5-.5 1-.2 1-.5.7-.5.8-.5 1.2-2 .8-2 .2-2v-2l-.2-2-.8-2.3-1-2-1.2-1.7-5-6.3-2.5-3-2-3-1.8-2.7-1.2-2.8-.5-1.2v-2.5l.2-1m24.3-437.5-3.5 21.5-3 18.5-3.3 16.5-.7 4.5-.5 4.7-.5 5.3-.3 5.5-.2 11 .2 10.7.5 10.5.8 9 .5 7 .7 6.5-19.5 70.3-.5 1.2-4.7 4.3-5.5 5-7 7-8.8 9-4.5 5-5 5.7-8.5 10.5-12 15.8-14.2 19-15.3 20.2-27.7 37.8-15.8 21.5-.7 1.2" stroke-width="14"/><path d="m417.8 497-.3.3-8.2 7.2-2.3 2.3-2.2 1.7-2 1-1.8.5-2 .3-1.7-.3-1.5-.7-1.8-.8-3.5-2.5-4-2.7-2.2-1.5-2.5-1.5-2.5-1.3-3-1.2-3.3-1-.7-.3-.5.3h-2l-2-.3-3.3-.7-1-.3-1.2-.5-2.3-1.2-2-1.8-1.7-2.2-1.3-2.3-1-2.2v-1l-.2-1.3.2-1 .3-.7 1-2 1.5-1.5 1.5-1.3 2-1 2-.5 2-.5h2.2l2.5.3 11.8 2.5 2.7.5 2.8.2h4.7l2-.7 1-.3.5-.7.5-.3m106.5 61 .3-1 40.2-140.7-15.5-6.3-109 108.3m92-165.3 92.3 41" stroke-width="14"/><path d="m540.8 178.5h26m101.2 39.3h.3l24 14.5.5.2m-304 242 2.2 3.5 18.3 26.5m89.5 44 29.7 1.8" stroke-width="7"/></g></svg>