<svg height="850.394" viewBox="0 0 850.394 850.394" width="850.394" xmlns="http://www.w3.org/2000/svg"><path d="m603.95 717.75 1.49-1.18 127.27-100.54-.03-15.12h.99l44.01 20.23-172.02 136.65-269.53-154.87 47.13-27.73 3.17-.01.04 19 217.24 123.27z" fill="#ffffc2"/><path d="m603.71 717.45-217.24-123.27-.04-19-.22-119.76h.01l219.22 118.45v142.7l-1.49 1.18z" fill="#fbee34"/><path d="m386.21 455.42-.01-3.48-.07-.15 132.3-62.82 212.34 105.82-125.33 79.08-219.22-118.45z" fill="#fbee34"/><path d="m732.68 600.91.03 15.12-127.27 100.54v-142.7l125.33-79.08 1.67.84z" fill="#fbee34"/><g fill="#f6cc4b"><path d="m178.82 293.71c-.64 2.34-.14 7.74 1.48 13.71l-1.82-.44s-11.89-4.24-31.19-9.94c-.67-.2-1.34-.39-2-.59 23.81-9.88 46.62-18.16 58.49-21.99 19.97-6.45 90.8-20.35 102.34-15.43 11.56 4.9 24.4 34.76 13.23 41.19-7.24 4.15-26.84 2.02-50.73 3.43l-.31 1c-32.05-9.78-62.35-18.79-66.85-19.34-10.03-1.23-20.98 2.38-22.64 8.4z"/><path d="m138.07 344.56c-14.31-4.91-23.56-8.04-24.62-8.29-2.97-.71-6.63-10.86-8.58-21.06-1.6-8.36-2.05-16.75-.04-19.99 4.31-6.94 21.9-4.12 40.46 1.23.66.2 1.33.39 2 .59 19.3 5.7 31.19 9.94 31.19 9.94l1.82.44c2.55 9.44 7.87 20.3 15.82 22.73 26.35 8.07 144.75 49.24 194.54 67.03l-.2.56s-30.59 22.58-38.8 20.4c-.68-.17-2.91-.9-6.39-2.07l-3.42.09c-1.17-10.12-5.83-17.47-5.83-17.47-3.07-5.92-9.3-1.25-25.64 7.29l-1.14-2.22c-49.86-17.18-130.71-45.3-171.17-59.2z"/><path d="m437.18 363.16c9.11 6.06 11.011 9.71 5.601 15.09 0 0-25.35 29.55-30.04 27.06-.96-.51-9.24-3.54-22.08-8.13-49.79-17.79-168.19-58.96-194.54-67.03-7.95-2.43-13.27-13.29-15.82-22.73-1.62-5.97-2.12-11.37-1.48-13.71 1.66-6.02 12.61-9.63 22.64-8.4 4.5.55 34.8 9.56 66.85 19.34 39.45 12.03 81.55 25.22 81.55 25.22s72.919 23.72 87.319 33.29zm-365.09 17.83s-14.84-17.26-7.55-37.61c2.7-7.55 18.38-17.63 38.6-27.84l1.73-.33c1.95 10.2 5.61 20.35 8.58 21.06 1.06.25 10.31 3.38 24.62 8.29l-.22.62c-13.97 6.62-23.91 12.97-31.66 18.14-22.56 15.06-29.48 24.17-34.1 17.67zm270.46 135.18-22.84 10.47 1.22 1.42c-2.27-1.079-11.19-3.659-46.14-7.409-120.77-12.99-196.64 22.96-196.64 22.96l-2.15-.171c.45-5.591 2.15-11.69 6.24-17.471 12.47-17.66 120.8-27.819 152.63-29.13 20.96-.85 92.92 4.73 102.74 12.55 1.87 1.491 3.55 3.881 4.94 6.781z"/><path d="m320.94 528.06 20.42 23.69c-.63.39-1.31.68-2.05.87-12.48 3.17-49.25-15.89-91.5-14.62-42.25 1.29-105 9.84-130.77 18.32-25.77 8.479-34.88 15.38-37.6 7.91 0 0-4.37-9.32-3.44-20.79l2.15.17s75.87-35.95 196.64-22.96c34.95 3.75 43.87 6.33 46.14 7.409z"/><path d="m320.94 528.06h-.01l-1.22-1.42 22.84-10.47c5.48 11.39 6.69 30.75-1.19 35.58zm20.91-111.9c.72 6.26.1 13.56-3.76 20.85-10.12 19.101-116.29 42.96-147.69 48.28-20.68 3.54-92.77 7.13-103.5.63-10.73-6.51-19.15-37.91-7.18-42.67 11.97-4.74 50.88 9.5 92.61 2.87 41.76-6.64 102.9-23.12 127.39-34.8 3.96-1.89 7.5-3.69 10.66-5.34 16.34-8.54 22.57-13.21 25.64-7.29 0 0 4.66 7.35 5.83 17.47z"/></g><path d="m417.01 135.68c8.67 0 15.7 5.84 15.7 13.02s-7.03 13-15.7 13-15.7-5.82-15.7-13 7.03-13.02 15.7-13.02zm102 22.59c16.391 0 29.66 11 29.66 24.58 0 13.57-13.27 24.58-29.66 24.58-16.37 0-29.64-11.01-29.64-24.58 0-13.58 13.27-24.58 29.64-24.58zm54.38 99.43c11.591 0 20.98 7.79 20.98 17.39s-9.39 17.39-20.98 17.39c-11.58 0-20.97-7.79-20.97-17.39s9.39-17.39 20.97-17.39zm86.36-11.63c8.68 0 15.7 5.83 15.7 13.01 0 7.19-7.021 13.02-15.7 13.02-8.67 0-15.7-5.83-15.7-13.02 0-7.18 7.03-13.01 15.7-13.01zm56.46 103.56.54 1.02-43.25 22.86-1.24-2.35c-9.14-4.2-15.34-12.27-15.34-21.53 0-13.59 13.271-24.59 29.64-24.59 16.38 0 29.65 11 29.65 24.59zm-83.45 45.41-.29.69-292.2-123.91v-130.59c1.06 10.3 11.71 19.65 11.71 19.65z" fill="#fbee34"/><path d="m340.27 141.23c-.63-5.96 1.97-12.24 11.71-17.21 22.07-11.26 100.83-39.03 100.83-39.03s21.681-7.59 44.44 6.5c22.77 14.1 287.28 223.33 287.28 223.33l-67.78 35.83-.54-1.02c0-13.59-13.27-24.59-29.65-24.59-16.369 0-29.64 11-29.64 24.59 0 9.26 6.2 17.33 15.34 21.53l1.24 2.35-40.74 21.53-280.78-234.16s-10.65-9.35-11.71-19.65zm335.18 117.85c0-7.18-7.021-13.01-15.7-13.01-8.67 0-15.7 5.83-15.7 13.01 0 7.19 7.03 13.02 15.7 13.02 8.68 0 15.7-5.83 15.7-13.02zm-81.08 16.01c0-9.6-9.39-17.39-20.98-17.39-11.58 0-20.97 7.79-20.97 17.39s9.39 17.39 20.97 17.39c11.59 0 20.98-7.79 20.98-17.39zm-45.7-92.24c0-13.58-13.27-24.58-29.66-24.58-16.37 0-29.64 11-29.64 24.58 0 13.57 13.27 24.58 29.64 24.58 16.39 0 29.66-11.01 29.66-24.58zm-115.96-34.15c0-7.18-7.03-13.02-15.7-13.02s-15.7 5.84-15.7 13.02 7.03 13 15.7 13 15.7-5.82 15.7-13z" fill="#fbee34"/><g fill="none" stroke="#231f20"><g stroke-width="14"><path d="m137.85 345.18c-13.97 6.62-23.91 12.97-31.66 18.14-22.56 15.06-29.48 24.17-34.1 17.67 0 0-14.84-17.26-7.55-37.61 2.7-7.55 18.38-17.63 38.6-27.84m42.15-19.09c23.81-9.88 46.62-18.16 58.49-21.99 19.97-6.45 90.8-20.35 102.34-15.43 11.56 4.9 24.4 34.76 13.23 41.19-7.24 4.15-26.84 2.02-50.73 3.43m71.65-162.42c-.63-5.96 1.97-12.24 11.71-17.21 22.07-11.26 100.83-39.03 100.83-39.03s21.681-7.59 44.44 6.5c22.77 14.1 287.28 223.33 287.28 223.33l-67.78 35.83-43.25 22.86-40.74 21.53-280.78-234.16s-10.65-9.35-11.71-19.65z"/><path d="m340.27 141.17v130.65l292.2 123.91 2.39 1.01m-86.19-213.89c0 13.57-13.27 24.58-29.66 24.58-16.37 0-29.64-11.01-29.64-24.58 0-13.58 13.27-24.58 29.64-24.58 16.39 0 29.66 11 29.66 24.58zm123.59 188.31c-9.14-4.2-15.34-12.27-15.34-21.53 0-13.59 13.271-24.59 29.64-24.59 16.381 0 29.65 11 29.65 24.59m-121.84-74.54c0 9.6-9.39 17.39-20.98 17.39-11.58 0-20.97-7.79-20.97-17.39s9.39-17.39 20.97-17.39c11.59 0 20.98 7.79 20.98 17.39zm81.08-16.01c0 7.19-7.021 13.02-15.7 13.02-8.67 0-15.7-5.83-15.7-13.02 0-7.18 7.03-13.01 15.7-13.01 8.68 0 15.7 5.83 15.7 13.01zm-242.74-110.38c0 7.18-7.03 13-15.7 13s-15.7-5.82-15.7-13 7.03-13.02 15.7-13.02 15.7 5.84 15.7 13.02zm-51.4 305.38 4.82-2.29 132.3-62.82 212.34 105.82 1.67.84 4.58 2.28"/><path d="m386.22 455.42 219.22 118.45 125.33-79.08"/><path d="m386.2 451.94.01 3.48.22 119.76.04 19 217.24 123.27"/><path d="m732.44 494.82v.81l.24 105.28.03 15.12-127.27 100.54-1.49 1.18-2.77 2.19m4.26-146.07v142.73"/><path d="m733.67 600.91 44.01 20.23-172.02 136.65-269.53-154.87 47.13-27.73m-74.02-171.43c-49.86-17.18-130.71-45.3-171.17-59.2-14.31-4.91-23.56-8.04-24.62-8.29-2.97-.71-6.63-10.86-8.58-21.06-1.6-8.36-2.05-16.75-.04-19.99 4.31-6.94 21.9-4.12 40.46 1.23.66.2 1.33.39 2 .59 19.3 5.7 31.19 9.94 31.19 9.94m211.98 90.76s-30.59 22.58-38.8 20.4c-.68-.17-2.91-.9-6.39-2.07"/><path d="m268.31 304.65c39.45 12.03 81.55 25.22 81.55 25.22s72.92 23.72 87.32 33.29c9.11 6.06 11.011 9.71 5.601 15.09 0 0-25.35 29.55-30.04 27.06-.96-.51-9.24-3.54-22.08-8.13-49.79-17.79-168.19-58.96-194.54-67.03-7.95-2.43-13.27-13.29-15.82-22.73-1.62-5.97-2.12-11.37-1.48-13.71 1.66-6.02 12.61-9.63 22.64-8.4 4.499.55 34.799 9.56 66.849 19.34zm42.07 101.33c16.34-8.54 22.57-13.21 25.64-7.29 0 0 4.66 7.35 5.83 17.47.72 6.26.1 13.56-3.76 20.85-10.12 19.101-116.29 42.96-147.69 48.28-20.68 3.54-92.77 7.13-103.5.63-10.73-6.51-19.15-37.91-7.18-42.67 11.97-4.74 50.88 9.5 92.61 2.87 41.76-6.64 102.9-23.12 127.39-34.8 3.96-1.89 7.5-3.69 10.66-5.34zm30.98 145.77c-.63.39-1.31.68-2.05.87-12.48 3.17-49.25-15.89-91.5-14.62-42.25 1.29-105 9.84-130.77 18.32-25.77 8.479-34.88 15.38-37.6 7.91 0 0-4.37-9.32-3.44-20.79.45-5.591 2.15-11.69 6.24-17.471 12.47-17.66 120.8-27.819 152.63-29.13 20.96-.85 92.92 4.73 102.74 12.55 1.87 1.49 3.55 3.88 4.94 6.78 5.48 11.391 6.69 30.751-1.19 35.581z"/></g><path d="m320.94 528.06c.75.36.77.561.77.57m-243.56 14.98s75.87-35.95 196.64-22.96c34.95 3.75 43.87 6.33 46.14 7.409" stroke-width="7"/><path d="m342.96 553.61-1.6-1.86-20.42-23.69h-.01l-1.22-1.42 22.84-10.47 1.12-.51" stroke-width="7"/></g><path d="m0 0h850.394v850.394h-850.394z" fill="none"/></svg>