<svg height="850.394" viewBox="0 0 850.394 850.394" width="850.394" xmlns="http://www.w3.org/2000/svg"><path d="m430.87 337.57h115.149v15.9h-115.149z" fill="#fff"/><path d="m488.99 421.35c10.6 0 19.189 4.959 19.189 11.08 0 6.13-8.59 11.09-19.189 11.09-10.601 0-19.19-4.96-19.19-11.09 0-6.12 8.59-11.08 19.19-11.08z" fill="#ed1d31"/><g fill="#7a7878"><path d="m488.96 465.92c-9.52-.38-32.67-3.61-54.19-24.71-5.42-5.32-10.77-12.93-15.899-21.86l5.14-.08s28.24-15.9 64.431-16.17h1.93c36.189.27 64.43 16.17 64.43 16.17l3.311 2.38c-4.721 7.93-9.61 14.71-14.561 19.56-21.67 21.24-44.99 24.38-54.39 24.72zm19.22-33.49c0-6.12-8.59-11.08-19.189-11.08-10.601 0-19.19 4.959-19.19 11.08 0 6.13 8.59 11.09 19.19 11.09 10.599 0 19.189-4.96 19.189-11.09z"/><path d="m488.81 301.34c16.021 0 57.75.7 113.131 6.89l-.271 2.47s-19.52 70.52-43.56 110.95l-3.311-2.38s-28.24-15.9-64.43-16.17h-1.93c-36.19.27-64.431 16.17-64.431 16.17l-5.14.08c-23.42-40.74-42.22-108.65-42.22-108.65l-.28-2.48c56.38-6.35 97.41-6.95 112.439-6.91v.03zm57.21 52.13v-15.9h-115.15v15.9zm115.69 89.93c-6.2 0-11.229-6.511-11.229-14.53 0-8.03 5.029-14.53 11.229-14.53 6.22 0 11.25 6.5 11.25 14.53 0 8.02-5.03 14.53-11.25 14.53z"/><ellipse cx="610.72" cy="449.16" rx="13.98" ry="13.44"/><path d="m667.2 499.88c-10.45 0-18.91-8.47-18.91-18.92s8.46-18.92 18.91-18.92 18.92 8.47 18.92 18.92-8.47 18.92-18.92 18.92zm-317.76-120.32c-5.8 0-10.51-4.81-10.51-10.73 0-5.93 4.71-10.74 10.51-10.74s10.5 4.81 10.5 10.74c0 5.92-4.7 10.73-10.5 10.73zm-.07 37.49c-5.8 0-10.51-4.8-10.51-10.73s4.71-10.74 10.51-10.74 10.5 4.81 10.5 10.74-4.7 10.73-10.5 10.73zm0 74.95c-5.8 0-10.5-4.81-10.5-10.73 0-5.93 4.7-10.729 10.5-10.729s10.51 4.8 10.51 10.729c0 5.92-4.71 10.73-10.51 10.73zm-.21-37.84c-5.8 0-10.5-4.8-10.5-10.73 0-5.92 4.7-10.729 10.5-10.729s10.51 4.81 10.51 10.729c0 5.93-4.71 10.73-10.51 10.73zm-36.73-74.33c-5.81 0-10.51-4.8-10.51-10.73s4.7-10.74 10.51-10.74c5.8 0 10.5 4.81 10.5 10.74s-4.7 10.73-10.5 10.73zm-.07 37.49c-5.81 0-10.51-4.8-10.51-10.73s4.7-10.73 10.51-10.73c5.79 0 10.5 4.8 10.5 10.73s-4.71 10.73-10.5 10.73zm0 74.95c-5.8 0-10.51-4.81-10.51-10.729 0-5.93 4.71-10.73 10.51-10.73s10.5 4.801 10.5 10.73c0 5.919-4.7 10.729-10.5 10.729zm-.21-37.84c-5.8 0-10.51-4.8-10.51-10.729 0-5.92 4.71-10.73 10.51-10.73s10.5 4.811 10.5 10.73c0 5.929-4.7 10.729-10.5 10.729zm-36.53-37.38c-5.81 0-10.51-4.8-10.51-10.73s4.7-10.74 10.51-10.74c5.79 0 10.5 4.81 10.5 10.74s-4.71 10.73-10.5 10.73zm0 74.95c-5.8 0-10.51-4.81-10.51-10.73 0-5.93 4.71-10.729 10.51-10.729s10.5 4.8 10.5 10.729c0 5.92-4.7 10.73-10.5 10.73zm-.21-37.84c-5.8 0-10.51-4.8-10.51-10.73 0-5.92 4.71-10.729 10.51-10.729s10.5 4.81 10.5 10.729c0 5.93-4.7 10.73-10.5 10.73z"/><path d="m312.15 454.43c-5.8 0-10.51-4.8-10.51-10.729 0-5.92 4.71-10.73 10.51-10.73s10.5 4.811 10.5 10.73c0 5.929-4.7 10.729-10.5 10.729zm.21 37.84c-5.8 0-10.51-4.81-10.51-10.729 0-5.93 4.71-10.73 10.51-10.73s10.5 4.801 10.5 10.73c0 5.919-4.7 10.729-10.5 10.729zm-36.74-.27c-5.8 0-10.51-4.81-10.51-10.73 0-5.93 4.71-10.729 10.51-10.729s10.5 4.8 10.5 10.729c0 5.92-4.7 10.73-10.5 10.73zm0-74.95c-5.81 0-10.51-4.8-10.51-10.73s4.7-10.74 10.51-10.74c5.79 0 10.5 4.81 10.5 10.74s-4.71 10.73-10.5 10.73zm73.75 74.95c-5.8 0-10.5-4.81-10.5-10.73 0-5.93 4.7-10.729 10.5-10.729s10.51 4.8 10.51 10.729c0 5.92-4.71 10.73-10.51 10.73zm.07-112.44c-5.8 0-10.51-4.81-10.51-10.73 0-5.93 4.71-10.74 10.51-10.74s10.5 4.81 10.5 10.74c0 5.92-4.7 10.73-10.5 10.73zm-.07 37.49c-5.8 0-10.51-4.8-10.51-10.73s4.71-10.74 10.51-10.74 10.5 4.81 10.5 10.74-4.7 10.73-10.5 10.73zm-36.94-37.22c-5.81 0-10.51-4.8-10.51-10.73s4.7-10.74 10.51-10.74c5.8 0 10.5 4.81 10.5 10.74s-4.7 10.73-10.5 10.73zm-37.02 74.33c-5.8 0-10.51-4.8-10.51-10.73 0-5.92 4.71-10.729 10.51-10.729s10.5 4.81 10.5 10.729c0 5.93-4.7 10.73-10.5 10.73zm36.95-36.84c-5.81 0-10.51-4.8-10.51-10.73s4.7-10.73 10.51-10.73c5.79 0 10.5 4.8 10.5 10.73s-4.71 10.73-10.5 10.73zm36.8 36.84c-5.8 0-10.5-4.8-10.5-10.73 0-5.92 4.7-10.729 10.5-10.729s10.51 4.81 10.51 10.729c0 5.93-4.71 10.73-10.51 10.73zm-73.47-74.6c-5.81 0-10.51-4.81-10.51-10.73 0-5.93 4.7-10.74 10.51-10.74 5.8 0 10.5 4.81 10.5 10.74 0 5.92-4.7 10.73-10.5 10.73z"/></g><path d="m151.51 522.95 24.95 1.359c6.07.33 11.4-3.5 13.21-9.01l8.22-3.91 18.5 82.67v.091c-9.77-.04-24.6-.15-40.79-.41-7.77-8.83-15.52-17.431-20.83-26.42-14.26-24.12-3.29-43.86-3.29-43.86z" fill="#c8c8c8"/><path d="m780.43 511.39-18.5 82.67h-545.54l-18.5-82.67 33.44 6.58h515.66z" fill="#c8c8c8"/><path d="m661.71 443.4c6.22 0 11.25-6.511 11.25-14.53 0-8.03-5.03-14.53-11.25-14.53-6.2 0-11.229 6.5-11.229 14.53-.001 8.02 5.029 14.53 11.229 14.53zm5.49 56.48c10.45 0 18.92-8.47 18.92-18.92s-8.47-18.92-18.92-18.92-18.91 8.47-18.91 18.92 8.46 18.92 18.91 18.92zm-56.48-37.28c7.721 0 13.98-6.02 13.98-13.439s-6.26-13.44-13.98-13.44-13.979 6.021-13.979 13.44 6.259 13.439 13.979 13.439zm-234.07-151.9s18.8 67.91 42.22 108.65c5.13 8.93 10.479 16.54 15.899 21.86 21.521 21.1 44.671 24.33 54.19 24.71l.2.01c9.399-.34 32.72-3.479 54.39-24.72 4.95-4.85 9.84-11.63 14.561-19.56 24.04-40.43 43.56-110.95 43.56-110.95l.271-2.47c10.42 1.17 21.319 2.52 32.63 4.11 58.56 8.21 115.399 23.66 123.92 26.02 6.7 40.73 16.189 111.71 21.939 173.03l-33.439 6.58h-515.661l-33.44-6.58c5.75-61.319 15.24-132.3 21.94-173.03 8.52-2.36 65.36-17.81 123.92-26.02 11.35-1.59 22.24-2.95 32.62-4.12zm-27.49 143.46c5.8 0 10.51-4.8 10.51-10.73 0-5.92-4.71-10.729-10.51-10.729s-10.5 4.81-10.5 10.729c0 5.93 4.7 10.73 10.5 10.73zm.21 37.84c5.8 0 10.51-4.81 10.51-10.73 0-5.93-4.71-10.729-10.51-10.729s-10.5 4.8-10.5 10.729c0 5.92 4.7 10.73 10.5 10.73zm0-74.95c5.8 0 10.5-4.8 10.5-10.73s-4.7-10.74-10.5-10.74-10.51 4.81-10.51 10.74 4.71 10.73 10.51 10.73zm.07-37.49c5.8 0 10.5-4.81 10.5-10.73 0-5.93-4.7-10.74-10.5-10.74s-10.51 4.81-10.51 10.74c0 5.92 4.71 10.73 10.51 10.73zm-37.29 74.87c5.8 0 10.5-4.8 10.5-10.729 0-5.92-4.7-10.73-10.5-10.73s-10.51 4.811-10.51 10.73c0 5.929 4.71 10.729 10.51 10.729zm.21 37.84c5.8 0 10.5-4.81 10.5-10.729 0-5.93-4.7-10.73-10.5-10.73s-10.51 4.801-10.51 10.73c0 5.919 4.71 10.729 10.51 10.729zm0-74.95c5.79 0 10.5-4.8 10.5-10.73s-4.71-10.73-10.5-10.73c-5.81 0-10.51 4.8-10.51 10.73s4.7 10.73 10.51 10.73zm.07-37.49c5.8 0 10.5-4.8 10.5-10.73s-4.7-10.74-10.5-10.74c-5.81 0-10.51 4.81-10.51 10.74s4.7 10.73 10.51 10.73zm-37.02 74.33c5.8 0 10.5-4.8 10.5-10.73 0-5.92-4.7-10.729-10.5-10.729s-10.51 4.81-10.51 10.729c0 5.93 4.71 10.73 10.51 10.73zm.21 37.84c5.8 0 10.5-4.81 10.5-10.73 0-5.93-4.7-10.729-10.5-10.729s-10.51 4.8-10.51 10.729c0 5.92 4.71 10.73 10.51 10.73zm0-74.95c5.79 0 10.5-4.8 10.5-10.73s-4.71-10.74-10.5-10.74c-5.81 0-10.51 4.81-10.51 10.74s4.7 10.73 10.51 10.73zm.07-37.49c5.8 0 10.5-4.81 10.5-10.73 0-5.93-4.7-10.74-10.5-10.74-5.81 0-10.51 4.81-10.51 10.74 0 5.92 4.7 10.73 10.51 10.73z" fill="#c8c8c8"/><path d="m715.73 176.9 8.77 107.48-.48 3.77c-109.659-14.08-208.68-16.05-234.35-16.33l-.61-.01c-25.01.26-124.51 2.18-234.76 16.34l-.48-3.77 8.77-107.48z" fill="#7a7878"/><path d="m219.83 338.36c2.88-17.54 5.25-29.46 6.57-32.6 4.39-10.41 10.97-15.35 10.97-15.35 5.67-.79 11.31-1.54 16.93-2.26 110.25-14.16 209.75-16.08 234.76-16.34l.61.01c25.67.28 124.69 2.25 234.35 16.33 5.62.72 11.261 1.47 16.931 2.26 0 0 6.58 4.94 10.97 15.35 1.32 3.14 3.69 15.06 6.57 32.6-8.521-2.36-65.36-17.81-123.92-26.02-11.311-1.59-22.21-2.94-32.63-4.11-55.381-6.19-97.11-6.89-113.131-6.89v-.03c-15.029-.04-56.06.56-112.439 6.91-10.38 1.17-21.27 2.53-32.62 4.12-58.561 8.21-115.401 23.66-123.921 26.02z" fill="#c8c8c8"/><path d="m145.7 244.31 58.72 3.22c7.25.4 12.82 6.6 12.42 13.86l-26.52 250.5c-.06 1.19-.29 2.33-.65 3.41a13.15 13.15 0 0 1 -13.21 9.01l-24.95-1.359-33.77-1.851c-2.41-.13-4.63-.909-6.51-2.149-3.78-2.49-6.18-6.87-5.91-11.72l26.52-250.49c.39-7.261 6.6-12.821 13.86-12.431z" fill="#7a7878"/><path d="m129 592.55c-7.9-.319-18.64-72.38-18.64-72.38l.87-1.22c1.88 1.24 4.1 2.02 6.51 2.149l33.77 1.851-.03.51s-10.97 19.74 3.29 43.86c5.31 8.989 13.06 17.59 20.83 26.42-15.37-.24-31.96-.61-46.6-1.19z" fill="#c8c8c8"/><g fill="none" stroke="#231f20"><path d="m493.45 176.9h222.28l8.77 107.48m-236.57 16.96h.88c16.021 0 57.75.7 113.131 6.89 10.42 1.17 21.319 2.52 32.63 4.11 58.56 8.21 115.399 23.66 123.92 26.02.72.2 1.1.31 1.1.31" stroke-width="14"/><path d="m686.12 480.96c0 10.45-8.47 18.92-18.92 18.92s-18.91-8.47-18.91-18.92 8.46-18.92 18.91-18.92 18.92 8.47 18.92 18.92zm-13.16-52.09c0 8.02-5.03 14.53-11.25 14.53-6.2 0-11.229-6.511-11.229-14.53 0-8.03 5.029-14.53 11.229-14.53 6.22 0 11.25 6.5 11.25 14.53z" stroke-width="13.16"/><ellipse cx="610.72" cy="449.16" rx="13.98" ry="13.439" stroke-width="13.16"/><path d="m495.09 594.06h-278.7l-18.5-82.67c5.75-61.319 15.24-132.3 21.94-173.03 2.88-17.54 5.25-29.46 6.57-32.6 4.39-10.41 10.97-15.35 10.97-15.35 5.67-.79 11.31-1.54 16.93-2.26 110.25-14.16 209.75-16.08 234.76-16.34l.61.01c25.67.28 124.69 2.25 234.35 16.33 5.62.72 11.261 1.47 16.931 2.26 0 0 6.58 4.94 10.97 15.35 1.32 3.14 3.69 15.06 6.57 32.6 6.7 40.73 16.189 111.71 21.939 173.03l-18.5 82.67zm-1.64-417.16h-230.86l-8.77 107.48" stroke-width="14"/><path d="m489.06 301.31h-.25c-15.029-.04-56.06.56-112.439 6.91-10.38 1.17-21.27 2.53-32.62 4.12-58.56 8.21-115.4 23.66-123.92 26.02-.72.2-1.1.31-1.1.31" stroke-width="14"/><path d="m197.89 511.39 33.44 6.58h515.66l33.44-6.58" stroke-width="13.16"/><path d="m376.65 310.7s18.8 67.91 42.22 108.65c5.13 8.93 10.479 16.54 15.899 21.86 21.521 21.1 44.671 24.33 54.19 24.71l.2.01c9.399-.34 32.72-3.479 54.39-24.72 4.95-4.85 9.84-11.63 14.561-19.56 24.04-40.43 43.56-110.95 43.56-110.95" stroke-width="14"/><path d="m286.19 368.83c0 5.92-4.7 10.73-10.5 10.73-5.81 0-10.51-4.81-10.51-10.73 0-5.93 4.7-10.74 10.51-10.74 5.8 0 10.5 4.81 10.5 10.74zm-.07 37.49c0 5.93-4.71 10.73-10.5 10.73-5.81 0-10.51-4.8-10.51-10.73s4.7-10.74 10.51-10.74c5.79 0 10.5 4.81 10.5 10.74zm-.21 37.11c0 5.931-4.7 10.73-10.5 10.73s-10.51-4.8-10.51-10.73c0-5.92 4.71-10.729 10.51-10.729 5.8-.001 10.5 4.809 10.5 10.729zm.21 37.84c0 5.921-4.7 10.73-10.5 10.73s-10.51-4.81-10.51-10.73c0-5.93 4.71-10.729 10.51-10.729 5.8-.001 10.5 4.799 10.5 10.729zm36.81-112.17c0 5.93-4.7 10.73-10.5 10.73-5.81 0-10.51-4.8-10.51-10.73s4.7-10.74 10.51-10.74c5.8 0 10.5 4.81 10.5 10.74zm-.07 37.49c0 5.93-4.71 10.73-10.5 10.73-5.81 0-10.51-4.8-10.51-10.73s4.7-10.73 10.51-10.73c5.79 0 10.5 4.8 10.5 10.73zm-.21 37.11c0 5.93-4.7 10.729-10.5 10.729s-10.51-4.8-10.51-10.729c0-5.92 4.71-10.73 10.51-10.73s10.5 4.81 10.5 10.73zm.21 37.84c0 5.92-4.7 10.729-10.5 10.729s-10.51-4.81-10.51-10.729c0-5.93 4.71-10.73 10.51-10.73s10.5 4.8 10.5 10.73zm37.08-112.71c0 5.92-4.7 10.73-10.5 10.73s-10.51-4.81-10.51-10.73c0-5.93 4.71-10.74 10.51-10.74s10.5 4.81 10.5 10.74zm-.07 37.49c0 5.93-4.7 10.73-10.5 10.73s-10.51-4.8-10.51-10.73 4.71-10.74 10.51-10.74 10.5 4.81 10.5 10.74zm-.2 37.11c0 5.931-4.71 10.73-10.51 10.73s-10.5-4.8-10.5-10.73c0-5.92 4.7-10.729 10.5-10.729 5.8-.001 10.51 4.809 10.51 10.729zm.21 37.84c0 5.921-4.71 10.73-10.51 10.73s-10.5-4.81-10.5-10.73c0-5.93 4.7-10.729 10.5-10.729 5.8-.001 10.51 4.799 10.51 10.729z" stroke-width="13.16"/><path d="m111.23 518.95c-3.78-2.49-6.18-6.87-5.91-11.72l26.52-250.49c.39-7.26 6.6-12.82 13.86-12.43l58.72 3.22c7.25.4 12.82 6.6 12.42 13.86l-26.52 250.5c-.06 1.19-.29 2.33-.65 3.41a13.15 13.15 0 0 1 -13.21 9.01l-24.95-1.359-33.77-1.851c-2.41-.13-4.63-.91-6.51-2.15zm-.87 1.22s10.74 72.061 18.64 72.38c14.64.58 31.23.95 46.6 1.19 16.19.26 31.02.37 40.79.41 7.37.04 11.86.04 11.86.04" stroke-width="14"/><path d="m151.48 523.46s-10.97 19.74 3.29 43.86c5.31 8.989 13.06 17.59 20.83 26.42 13.09 14.859 26.25 30.34 27.98 49.26m-109.08-98.4 20.64 5.11m-28.03 13.4 21.22 1.39m-25.26 20.35 20.69-4.96m-25.87 27.24 20.7-4.97m-24.83 22.8 20.69-4.96m-24.93 23.2 20.7-4.97m-13.55 26.95 10.51-18.5m12.71 24.34-5.67-20.5m25.42 17.85-9.2-19.17m30.14 12.03-14.49-15.59m36.44 9.16-14.49-15.59m32.05 10.45-14.48-15.59m32.44 10.33-14.48-15.59" stroke-linecap="round" stroke-linejoin="round" stroke-width="14"/><path d="m508.18 432.43c0 6.13-8.59 11.09-19.189 11.09-10.601 0-19.19-4.96-19.19-11.09 0-6.12 8.59-11.08 19.19-11.08 10.599 0 19.189 4.96 19.189 11.08z" stroke-width="13.16"/><path d="m554.8 419.27s-28.24-15.9-64.43-16.17h-1.93c-36.19.27-64.431 16.17-64.431 16.17m6.861-81.7h115.149v15.9h-115.149z" stroke-width="14"/></g><path d="m0 0h850.394v850.394h-850.394z" fill="none"/></svg>