<svg height="850" viewBox="0 0 850 850" width="850" xmlns="http://www.w3.org/2000/svg"><path d="m373.2 379.8 1-.3.8-.3.8-.5.8-.8.5-.8.3-1 .3-1v-1l-.3-1.3-.3-.8-.5-1-.5-.8-.8-.5-.8-.5-.8-.3-1-.3-.8.3-.8.3-.8.8-.8.5-.5 1-.3.8-.3 1v2.3l.5 1 .3.8.8.8.5.8.8.3 1 .3zm-.3-17 1 1.5 1 1.5 1.3 2.3 1 2.5.5 2.8.3 1.5-.3 1.8-.3 1.5-.5 1.8-1 2.8-.8 1.3-.5.5v.3l-1 .5-.3-.5-1.8-.3-1.5-.5-1.3-.5-1.3-.8-1.8-1.8-1.5-1.8-.5-1-.3-1.3.3-1.5.3-1.8.5-2.8.5-1.5 3.3-2.5 2.5-2z" fill="#a9d7f3"/><path d="m364.4 379 1.5 1.8 1.8 1.7 1.2.8 1.3.5 1.5.5 1.7.2.3.5-1.3.5-2 .8-2.5.2-3 .5h-27.5l-.5-.5v-.7l.3-1 1-1.3 1.7-1.5 3.3-1.5 4.7-2 5-2 4.8-2.5 4-2.5 3.5-2.2-.5 1.5-.5 2.7-.3 1.8-.2 1.5.2 1.2z" fill="#fff"/><path d="m499.9 473.3.3 4-.5 3.7-1 3.8-1.5 3.2-1.5 2.5-1.8 2.5-2 2-2.2 1.8-2.3 1.5-2.7 1.2-2.8.8-2.7.5h-4.3l-2-.5-2.2-.5-2-.8-2-1-1.8-1.2-1.7-1.3-1.8-1.5-1.5-1.7-1.5-1.8-1-2-1.2-2-.8-2.2-.7-2.3-.5-2.2-.5-2.5v-5.3l.5-2.5.5-2.2.7-2.5 1-2.3 1.3-2 1.2-2 1.5-1.7 1.8-1.5 1.7-1.5 2-1.3 2-1 2.3-.7 2.2-.8 2.3-.2h4.7l2.3.5 2.2.7 2 .8 2 1.2 2 1.3 1.8 1.5 1.7 1.7 1.5 1.8 1.3 2 1.2 2.2 1 2.3.8 2.2.5 2.5z" fill="#ed1d31"/><path d="m375.2 574.8 73 83-361.5 3 1-3.5 1.2-3.5 1.5-3.3 1.5-3.2 1.8-3 2-3.3 2-2.7 2.2-3 2.3-2.5 2.5-2.8 5.2-5 6-5 6.3-4.5 6.5-4.2 7-4 7-4 7.5-4 15-7.3 15.5-7.2 8.2-4 4.3-2 3.7-2.3 2.3 2.3 3.7 3.5 5.5 4.7 6.8 5.3 4 2.7 4.2 2.8 4.5 2.7 5 2.5 5 2.8 5.5 2.5 5.8 2.2 5.7 1.8 6.3 1.7 6.5 1.5 6.5 1 7 .5 7 .3 7.2-.5 7.3-1 7.5-1.5 4-1 3.7-1.3 4-1.2 4-1.8 3.8-1.7 4-1.8 4.2-2.2 4-2.3 4-2.5 4.3-2.7 4-3 4.2-3 4-3.5 4.3-3.5 4.2-4z" fill="#a9d7f3"/><path d="m589.7 507.5-4-.2-4.5-.3-5.3.5-5.2.5-5.3 1-5 1-4.5 1.3-3.5 1-4 1.2-3.7 1-4 .5-4 .3h-4l-3.8-.3-3.5-.7-3.7-.8-3.3-1.2-3.2-1.3-3-1.5-2.5-1.7-2.5-2-2-2.3-1.8-2.2-1.2-2.5-1.3-3-.5-2.8v-1.2l.3-1 .2-1 .5-1 1.5-1.5 1.8-1.5 2.5-1 2.7-1 3.3-.8 3.5-.7 8-1.5 7-1.3 8-1.5 8.7-2 9.3-2.5 9.5-2.7 4.5-1.8 4.7-1.7 4.3-2 4.2-2 4-2.3 3.8-2.2 8.7-6 8.5-5.3 8-4.2 3.8-2 4-1.5 3.7-1.5 3.8-1.3 3.7-1 3.8-1 3.5-.5 3.7-.2 3.8-.3 4 .3 4.2.5 5.3 1.2 12 3 6 1.5 6 1.3 5.2 1 2.3.2h2.2l2.3-.2 2.7-.8 3-1 3.3-1 7.2-3.2 7.8-3.5 7.5-4 7-3.8 11-6 9.5 82.3 1 5.2-4 .8-4 1-8.3 2.2-8 2.8-7.7 2.7-7 2.8-5.8 2.5-7.7 3.5-6 3-6.3 3.2-13 7.5-13.2 7.8-13 7.7-12 7.3-10.3 6-8.2 4.5-3.3 1.5-2.2.7-2.3.5-3.7.5-10.3.8-13.5.7h-22.7l-7.5-.5-7.5-.5-6.8-.7-6.2-1.3-5.5-1.2-2.5-.8-2-1-1.8-1-1.7-1-12.5-10.2-12.3-9.3-11.5-8.7-10.2-7.5-8.8-6.5-6.7-5-2.3-2-1.7-1.5-1-1.3-.3-.5v-.2l1.8-3.3 1.7-2.5 2-2 2.3-1.5 2.2-1.2 2.3-.8 2.5-.5h2.5l2.2.3 2 .2 4.3 1 4 1.5 4 1.8 7 3.2 2.7 1.5 2 1 40.3 22.8 11.5-1.5 11.2-1.8 6.3-1.2 6.5-1.5 3-.8 2.7-1 2.5-1.2 2.3-1.3 1.7-1.5 1.5-1.5 1-1.7 1-1.5.3-1.8.2-2-.5-1.7-.5-1.8-1.2-1.7-1.5-1.5-1.8-1.8zm-224.5-138.2-3.5 2.3-4 2.5-4.8 2.5-5 2-4.8 2-3.3 1.5-1.8 1.5-1 1.3-.3 1v.8l.5.5h27.5l3-.5 2.5-.3 2-.8 1.3-.5 1-.5v-.3l.5-.5.8-1.3 1-2.8.5-1.8.3-1.5.3-1.8-.3-1.5-.5-2.8-1-2.5-1.3-2.3-1-1.5-1-1.5-2 2-2.5 2zm50.5 160.5-2.3.8-2.3.8-4.8 1-10.8 1.8-5.3 1-4.8 1.3-2.3.8-2.3.8-1.8 1-1.5 1-2 2-1.8 1.8-1.5 2.3-1 2-.8 2.3-.5 2.3-.3 2.3-.3 2.3.3 2.3.3 2.5.5 2.3.8 2.3 1.5 4.5 2 4.3-4.3 4-4.3 4-4.3 3.5-4 3.5-4.3 3-4 3-4.3 2.8-4 2.5-4 2.3-4.3 2.3-4 1.8-3.8 1.8-4 1.8-4 1.3-3.8 1.3-4 1-7.5 1.5-7.3 1-7.3.5-7-.3-7-.5-6.5-1-6.5-1.5-6.3-1.8-5.8-1.8-5.8-2.3-5.5-2.5-5-2.8-5-2.5-4.5-2.8-4.3-2.8-4-2.8-6.8-5.3-5.5-4.8-3.8-3.5-2.3-2.3 2-1.5 1.8-1.5 1.8-1.8 1.5-2 1.5-2 1.3-2.5.8-2.5.8-3 .8-3.5.3-3.5v-4.4l-.3-3.5-.5-3.8-.5-3.8-1.5-7.3-3.8-14.5-1.8-7-1-6.5 1.5-.8 1-.5 1.3-.8.8-1 .8-.8.5-1.3 1-2.3.8-3 .8-3.5 1-3.8 1.3-4.3 7.8-26.8-1-3-1.3-2.8-1.5-2.5-1.8-2.8-3.8-4.8-4.3-4.8-4-5-2-2.5-1.8-2.5-1.8-3-1.5-2.8-1.3-3.3-1.3-3.3-.8-4-.5-3.8v-2.8l.3-3.3.5-3.5.8-3 1.3-3 1.3-2.8 1.5-2.8 2-2.5 2-2.3 2.3-2 2.5-2 2.5-1.8 2.8-1.5 3-1.5 2.8-1 2.5-.8h4.8l2.3.8 2 .8 1.8 1.5 1.8 1.5 1.8 1.8 1.5 2.3 1.8 2.3 1.5 2.5 3 5.5 3 6.3.3 1.5.3 1.3.5.5.3.5.5.3h.8l.8-.3.8-.5 1-1 1.3-1.5 1.5-2 1.5-2.5 1.3-2.8 1.3-3.3 1.3-3.3.8-3.3.8-3.5.5-3.8 1-7.5 1-15.5.8-7.5 1-7.3 1-3.3 1-2.8 1.5-2.3 1.8-1.8 2.3-1.3 2.5-1.3 3-.8 3.3-.5 7.5-.8 9.3-.8 10.5-1.3 5.8-.8 6.3-1.3 11.8-2.3 10-1.5 8.5-1.3 7.3-1.3 6.5-1.5 3-1 3-1 3-1.3 2.8-1.5 3-2 3.3-2 3.5-3 3-3 2.8-3 2.5-3.5 1 .3 2.5 1.8 2 2 2 2.3 1.8 2.8 1.8 3.3 1.5 4.3 1.5 5 1.8 6.3 1 4.8.5 4.3.3 4v3.5l-.3 7.3-.8 8.8-.3 4.3v4.3l.3 3.8 1 3.8.5 2 1 1.8 1 2 1 1.8 1.5 2 1.8 2 4 4 8.8 8.3 6.5 5.5 10.5 9 1.3 1.3 1.3 1.3.8 1.5.5 1.5.3 1.8.3 1.5-.3 1.5-.3 1.5-.3 1.5-.8 1.5-.5 1.3-1 1-.8 1-1 1-1 .8-1 .3-4.5 1.8-2.3.5-9.5 1.8-.8.3-.8.8-.8.8-.5 1-1 2.5-.3 2.8v3l.5 3 .5 1.3.5 1.3.5 1 .8.8 3.3 2.8 1.3 1.3 1 1.5v2.1l-.5.5-.5.8-1 .8-2.8 1.5-4.8 2-4.3 2-4 2.3-4 2.3-8.8 5.5-10.5 7 4.5 1.8 10.8 3.5 6.5 2 6.5 1.8 5.8 1.5 4.8.8-.8 4.3-1.3 6-.5 3.3-.3 3v3.8l.5.8.8 2.5.5 3.3v3.5l-.3 1.8-.3 2-.8 2-.5 1.8-1 2-1.3 1.8-1.5 1.5-1.5 1.5-2 1.5z" fill="#ffeec8"/><path d="m199.9 502.8-3 .5-4 .5h-3l-2.7-.3-2.5-.2-2.5-.8-2.3-1-2.5-1-2.2-1.5-2.8-2-5.5-4.5-6.5-6-17.2-16.7-3-2.8-2.8-3-2.5-3-2.5-3.2-4.7-6.5-4-6.5-3.8-6.8-3.2-7-2.8-6.7-2.5-7-2.2-6.8-1.8-6.5-1.5-6.2-1.5-6.3-2-11-1.5-9.2-.7-4.5-.5-5-.5-5.8-.3-6-.2-6.5v-6.7l.2-7 .5-7 .5-7 .8-7 1.2-6.8 1.3-6.5 1.5-6.2 2-5.8 2.2-5.2 1.3-2.3 1.2-2.2 5.5-8.3 5.3-7.5 5-6.5 4.2-5.5 6.5-7.7 2.5-2.8 2.3-2 6-5.2 9.2-7.3 5.5-4 6.3-4.2 6.2-4.5 7-4 7-4 7-3.5 7.3-3 3.5-1.3 3.7-1.2 3.5-.8 3.3-.7 3.5-.5 3.2-.3 13-.5 12.8-.7 12.2-.5 11.8-.3h5.7l5.5.3 5.3.5 5.2.7 5 .8 4.8 1.2 4.5 1.3 4.5 1.7 4.2 2.3 4.8 2.5 4.7 2.7 5.3 3.3 10.2 7 10.5 7.7 10 8 9 7.8 8 7.2 6.3 6.3 1.5 2 1.5 2.2 1.2 2 1.3 2.3.7 2 .5 2.2.5 2.3.3 2.2v2.3l-.3 2.2-.2 2-.8 2.3-.5 2.2-1 2-1 2.3-1.2 2-2.5 3.5-2.8 3-3 3-3.5 3-3.2 2-3 2-2.8 1.5-3 1.2-3 1-3 1-6.5 1.5-7.2 1.3-8.5 1.2-10 1.5-11.8 2.3-6.2 1.2-5.8.8-10.5 1.2-9.2.8-7.5.7-3.3.5-3 .8-2.5 1.2-2.2 1.3-1.8 1.7-1.5 2.3-1 2.7-1 3.3-1 7.2-.7 7.5-1 15.5-1 7.5-.5 3.8-.8 3.5-.7 3.2-1.3 3.3-1.2 3.2-1.3 2.8-1.5 2.5-1.5 2-1.2 1.5-1 1-.8.5-.7.2h-.8l-.5-.2-.2-.5-.5-.5-.3-1.3-.2-1.5-3-6.2-3-5.5-1.5-2.5-1.8-2.3-1.5-2.2-1.7-1.8-1.8-1.5-1.7-1.5-2-.7-2.3-.8h-4.7l-2.5.8-2.8 1-3 1.5-2.7 1.5-2.5 1.7-2.5 2-2.3 2-2 2.3-2 2.5-1.5 2.7-1.2 2.8-1.3 3-.7 3-.5 3.5-.3 3.2v3.8l.5 3.7.8 4 1.2 3.3 1.3 3.2 1.5 2.8 1.7 3 1.8 2.5 2 2.5 4 5 4.2 4.7 3.8 4.8 1.7 2.7 1.5 2.5 1.3 2.8 1 3-7.8 26.7-1.2 4.3-1 3.7-.8 3.5-.7 3-1 2.3-.5 1.2-.8.8-.7 1-1.3.7-1 .5z" fill="#f6cc4b"/><path d="m372.7 369 1 .3.7.2.8.5.7.5.5.8.5 1 .3.7.2 1.3v1l-.2 1-.3 1-.5.7-.7.8-.8.5-.7.2-1 .3-.8-.3-1-.2-.7-.3-.5-.7-.8-.8-.2-.7-.5-1v-2.3l.2-1 .3-.7.5-1 .7-.5.8-.8.7-.2z" fill="#231f20"/><g fill="none" stroke="#231f20" stroke-linecap="round" stroke-miterlimit="10"><path d="m365.2 369.3-3.5 2.2-4 2.5-4.8 2.5-5 2-4.7 2-3.3 1.5-1.7 1.5-1 1.3-.3 1v.7l.5.5h27.5l3-.5 2.5-.2 2-.8 1.3-.5 1-.5v-.2l.5-.5.7-1.3 1-2.7.5-1.8.3-1.5.2-1.7-.2-1.5-.5-2.8-1-2.5-1.3-2.2-1-1.5-1-1.5-2 2-2.5 2z" stroke-width="7"/><path d="m382.2 344.5-.5-.2-1.5-.5-2.8-.5-4-.3h-5l-3 .5-3.2.5-3.5.5-4 1-4.3 1.3-4.5 1.7-5 2-4.7 2-4 2.3-3.5 2.2-3.3 2.5-2.7 2-2.3 2.3-2.2 2" stroke-width="14"/><path d="m365.2 369v.3l-.5 1.5-.5 2.7-.3 1.8-.2 1.5.2 1.2.5 1 1.5 1.8 1.8 1.7 1.2.8 1.3.5 1.5.5 1.7.2" stroke-width="6"/><path d="m390.7 282.8-2.5 3.5-2.8 3-3 3-3.5 3-3.2 2-3 2-2.8 1.5-3 1.2-3 1-3 1-6.5 1.5-7.2 1.3-8.5 1.2-10 1.5-11.8 2.3-6.2 1.2-5.8.8-10.5 1.2-9.2.8-7.5.7-3.3.5-3 .8-2.5 1.2-2.2 1.3-1.8 1.7-1.5 2.3-1 2.7-1 3.3-1 7.2-.7 7.5-1 15.5-1 7.5-.5 3.8-.8 3.5-.7 3.2-1.3 3.3-1.2 3.2-1.3 2.8-1.5 2.5-1.5 2-1.2 1.5-1 1-.8.5-.7.2h-.8l-.5-.2-.2-.5-.5-.5-.3-1.3-.2-1.5-3-6.2-3-5.5-1.5-2.5-1.8-2.3-1.5-2.2-1.7-1.8-1.8-1.5-1.7-1.5-2-.7-2.3-.8h-4.7l-2.5.8-2.8 1-3 1.5-2.7 1.5-2.5 1.7-2.5 2-2.3 2-2 2.3-2 2.5-1.5 2.7-1.2 2.8-1.3 3-.7 3-.5 3.5-.3 3.2v3.8l.5 3.7.8 4 1.2 3.3 1.3 3.2 1.5 2.8 1.7 3 1.8 2.5 2 2.5 4 5 4.2 4.7 3.8 4.8 1.7 2.7 1.5 2.5 1.3 2.8 1 3-7.8 26.7-1.2 4.3-1 3.7-.8 3.5-.7 3-1 2.3-.5 1.2-.8.8-.7 1-1.3.7-1 .5-1.5.8-3 .5-4 .5h-3l-2.7-.3-2.5-.2-2.5-.8-2.3-1-2.5-1-2.2-1.5-2.8-2-5.5-4.5-6.5-6-17.2-16.7-3-2.8-2.8-3-2.5-3-2.5-3.2-4.7-6.5-4-6.5-3.8-6.8-3.2-7-2.8-6.7-2.5-7-2.2-6.8-1.8-6.5-1.5-6.2-1.5-6.3-2-11-1.5-9.2-.7-4.5-.5-5-.5-5.8-.3-6-.2-6.5v-6.7l.2-7 .5-7 .5-7 .8-7 1.2-6.8 1.3-6.5 1.5-6.2 2-5.8 2.2-5.2 1.3-2.3 1.2-2.2 5.5-8.3 5.3-7.5 5-6.5 4.2-5.5 6.5-7.7 2.5-2.8 2.3-2 6-5.2 9.2-7.3 5.5-4 6.3-4.2 6.2-4.5 7-4 7-4 7-3.5 7.3-3 3.5-1.3 3.7-1.2 3.5-.8 3.3-.7 3.5-.5 3.2-.3 13-.5 12.8-.7 12.2-.5 11.8-.3h5.7l5.5.3 5.3.5 5.2.7 5 .8 4.8 1.2 4.5 1.3 4.5 1.7 4.2 2.3 4.8 2.5 4.7 2.7 5.3 3.3 10.2 7 10.5 7.7 10 8 9 7.8 8 7.2 6.3 6.3 1.5 2 1.5 2.2 1.2 2 1.3 2.3.7 2 .5 2.2.5 2.3.3 2.2v2.3l-.3 2.2-.2 2-.8 2.3-.5 2.2-1 2-1 2.3z" stroke-width="14"/><path d="m199.4 498 .5 4.8 1 6.5 1.8 7 3.7 14.5 1.5 7.2.5 3.8.5 3.7.3 3.5v3.8l-.3 3.5-.7 3.5-.8 3-.7 2.5-1.3 2.5-1.5 2-1.5 2-1.7 1.7-1.8 1.5-2 1.5-3.7 2.3-4.3 2-8.2 4-15.5 7.2-15 7.3-7.5 4-7 4-7 4-6.5 4.2-6.3 4.5-6 5-5.2 5-2.5 2.8-2.3 2.5-2.2 3-2 2.7-2 3.3-1.8 3-1.5 3.2-1.5 3.3-1.2 3.5-1 3.5m361.5-3-73-83-2-4.3-1.5-4.5-.8-2.2-.5-2.3-.2-2.5-.3-2.2.3-2.3.2-2.2.5-2.3.8-2.2 1-2 1.5-2.3 1.7-1.7 2-2 1.5-1 1.8-1 2.2-.8 2.3-.7 4.7-1.3 5.3-1 10.7-1.7 4.8-1 2.2-.8 2.3-.7 2.2-1 2-1.5 1.5-1.5 1.5-1.5 1.3-1.8 1-2 .5-1.7.7-2 .3-2 .2-1.8v-3.5l-.5-3.2-.7-2.5-.5-.8v-3.7l.2-3 .5-3.3 1.3-6 .7-4.2-4.7-.8-5.8-1.5-6.5-1.7-6.5-2-10.7-3.5-4.5-1.8 10.5-7 8.7-5.5 4-2.2 4-2.3 4.3-2 4.7-2 2.8-1.5 1-.7.5-.8.5-.5v-2l-1-1.5-1.3-1.2-3.2-2.8-.8-.7-.5-1-.5-1.3-.5-1.2-.5-3v-3l.3-2.8 1-2.5.5-1 .7-.7.8-.8.7-.2 9.5-1.8 2.3-.5 4.5-1.7 1-.3 1-.7 1-1 .7-1 1-1 .5-1.3.8-1.5.2-1.5.3-1.5.2-1.5-.2-1.5-.3-1.7-.5-1.5-.7-1.5-1.3-1.3-1.2-1.2-10.5-9-6.5-5.5-8.8-8.3-4-4-1.7-2-1.5-2-1-1.7-1-2-1-1.8-.5-2-1-3.7-.3-3.8v-4.2l.3-4.3.7-8.7.3-7.3v-3.5l-.3-4-.5-4.2-1-4.8-1.7-6.2-1.5-5-1.5-4.3-1.8-3.2-1.7-2.8-2-2.2-2-2-2.5-1.8" stroke-width="14"/><path d="m317.4 539.3h9.5l10.3-.3 12.5-.5 14-.7 14.2-1.3 7-1 6.5-.7 6.3-1.3 5.7-1.2m347.3-112.8-11 6-7 3.8-7.5 4-7.8 3.5-7.2 3.2-3.3 1-3 1-2.7.8-2.3.2h-2.2l-2.3-.2-5.2-1-6-1.3-6-1.5-12-3-5.3-1.2-4.2-.5-4-.3-3.8.3-3.7.2-3.5.5-3.8 1-3.7 1-3.8 1.3-3.7 1.5-4 1.5-3.8 2-8 4.2-8.5 5.3-8.7 6-3.8 2.2-4 2.3-4.2 2-4.3 2-4.7 1.7-4.5 1.8-9.5 2.7-9.3 2.5-8.7 2-8 1.5-7 1.3-8 1.5-3.5.7-3.3.8-2.7 1-2.5 1-1.8 1.5-1.5 1.5-.5 1-.2 1-.3 1v1.2l.5 2.8 1.3 3 1.2 2.5 1.8 2.2 2 2.3 2.5 2 2.5 1.7 3 1.5 3.2 1.3 3.3 1.2 3.7.8 3.5.7 3.8.3h4l4-.3 4-.5 3.7-1 4-1.2 3.5-1 4.5-1.3 5-1 5.3-1 5.2-.5 5.3-.5 4.5.3 4 .2 1.2.5 1.3.5 2.5 1.5 2.2 2 2.3 2.5 4.2 4.8 1.8 2.2 2 2" stroke-width="14"/><path d="m589.7 507.5 2.2 1.5 1.8 1.8 1.5 1.5 1.2 1.7.5 1.8.5 1.7-.2 2-.3 1.8-1 1.5-1 1.7-1.5 1.5-1.7 1.5-2.3 1.3-2.5 1.2-2.7 1-3 .8-6.5 1.5-6.3 1.2-11.2 1.8-11.5 1.5-40.3-22.8-2-1-2.7-1.5-7-3.2-4-1.8-4-1.5-4.3-1-2-.2-2.2-.3h-2.5l-2.5.5-2.3.8-2.2 1.2-2.3 1.5-2 2-1.7 2.5-1.8 3.3v.2l.3.5 1 1.3 1.7 1.5 2.3 2 6.7 5 8.8 6.5 10.2 7.5 11.5 8.7 12.3 9.3 12.5 10.2 1.7 1 1.8 1 2 1 2.5.8 5.5 1.2 6.2 1.3 6.8.7 7.5.5 7.5.5h22.7l13.5-.7 10.3-.8 3.7-.5 2.3-.5 2.2-.7 3.3-1.5 8.2-4.5 10.3-6 12-7.3 13-7.7 13.2-7.8 13-7.5 6.3-3.2 6-3 7.7-3.5 5.8-2.5 7-2.8 7.7-2.7 8-2.8 8.3-2.2 4-1 4-.8 2.7-.2m-286.7-6h2l2.7-.5 2.8-.8 2.7-1.2 2.3-1.5 2.2-1.8 2-2 1.8-2.5 1.5-2.5 1.5-3.2 1-3.8.5-3.7-.3-4-.2-2.8-.5-2.5-.8-2.2-1-2.3-1.2-2.2-1.3-2-1.5-1.8-1.7-1.7-1.8-1.5-2-1.3-2-1.2-2-.8-2.2-.7-2.3-.5h-4.7l-2.3.2-2.2.8-2.3.7-2 1-2 1.3-1.7 1.5-1.8 1.5-1.5 1.7-1.2 2-1.3 2-1 2.3-.7 2.5-.5 2.2-.5 2.5v5.3l.5 2.5.5 2.2.7 2.3.8 2.2 1.2 2 1 2 1.5 1.8 1.5 1.7 1.8 1.5 1.7 1.3 1.8 1.2 2 1 2 .8 2.2.5 2 .5z" stroke-width="14"/><path d="m196.2 575.8.7.7 2.3 2.3 3.7 3.5 5.5 4.7 6.8 5.3 4 2.7 4.2 2.8 4.5 2.7 5 2.5 5 2.8 5.5 2.5 5.8 2.2 5.7 1.8 6.3 1.7 6.5 1.5 6.5 1 7 .5 7 .3 7.2-.5 7.3-1 7.5-1.5 4-1 3.7-1.3 4-1.2 4-1.8 3.8-1.7 4-1.8 4.2-2.2 4-2.3 4-2.5 4.3-2.7 4-3 4.2-3 4-3.5 4.3-3.5 4.2-4 4.3-4" stroke-width="11.75"/></g></svg>