<svg height="850.394" viewBox="0 0 850.394 850.394" width="850.394" xmlns="http://www.w3.org/2000/svg"><path d="m259.97 553.03c-3.73 16.1-7.69 34.18-11.72 53.02l-.25-.05-92-16-1.22-.21c6.81-40.71 13.79-78.41 19.98-102.06 24.13-92.25 44-119.221 63.28-133.831 12.67-9.62 78.12-15.94 95.94-20.06 16.03-3.71 30.58-32.45 33.38-38.28 15.25 12.66 33.36 19.99 52.77 19.99 24.18 0 44.17-5.74 59.68-17.68 0 0 16.021 35.17 33.87 39.3 17.83 4.13 83.271 10.44 95.95 20.06 19.28 14.61 39.15 41.58 63.28 133.83 5.31 20.301 11.2 50.94 17.07 84.94l-91.98 23.841-.61.13c-3.5-16.18-6.909-31.62-10.13-45.52l-.2.05s-1.97 43.4-32.819 63.06l3.759.44c-.28 52.92 2.34 133.26 2.69 157.95l-2.69.05-271.34 2.93c0-17.58 1.64-106.27 1.34-162.93l1.55-2.32c-27.41-20.609-29.23-60.569-29.23-60.569zm159.98 223.17c3.67 0 6.649-3.22 6.649-7.2s-2.979-7.21-6.649-7.21-6.65 3.229-6.65 7.21 2.98 7.2 6.65 7.2zm95.05-209.79c0-5.811-4.21-10.53-9.41-10.53-5.21 0-9.42 4.72-9.42 10.53 0 5.82 4.21 10.54 9.42 10.54 5.2 0 9.41-4.72 9.41-10.54zm-163.78-1.39c0-5.81-4.22-10.529-9.42-10.529s-9.42 4.72-9.42 10.529c0 5.82 4.22 10.54 9.42 10.54s9.42-4.72 9.42-10.54z" fill="#ffeec8"/><path d="m505.59 555.88c5.2 0 9.41 4.72 9.41 10.53 0 5.82-4.21 10.54-9.41 10.54-5.21 0-9.42-4.72-9.42-10.54 0-5.81 4.21-10.53 9.42-10.53z" fill="#ee947d"/><path d="m367.36 295.56c-27.49-22.81-45.73-62.91-45.73-108.58 0-71 44.1-128.56 98.5-128.56s98.5 57.56 98.5 128.56c0 55.01-13.37 91.3-38.82 110.89-15.51 11.94-35.5 17.68-59.68 17.68-19.41 0-37.52-7.33-52.77-19.99z" fill="#ffeec8"/><path d="m341.8 554.49c5.2 0 9.42 4.72 9.42 10.529 0 5.82-4.22 10.54-9.42 10.54s-9.42-4.72-9.42-10.54c0-5.809 4.22-10.529 9.42-10.529z" fill="#ee947d"/><g fill="none"><g stroke="#231f20"><path d="m479.81 297.87s16.021 35.17 33.87 39.3c17.83 4.13 83.271 10.44 95.95 20.06 19.28 14.61 39.15 41.58 63.28 133.83 5.31 20.301 11.2 50.94 17.07 84.94m-119.26-80.68c4.15 8.85 9.96 30.81 16.54 59.13 3.221 13.899 6.63 29.34 10.13 45.52m-229.54-305.44s-.17.37-.49 1.03c-2.8 5.83-17.35 34.57-33.38 38.28-17.82 4.12-83.27 10.44-95.94 20.06-19.28 14.61-39.15 41.58-63.28 133.831-6.19 23.649-13.17 61.35-19.98 102.06m122.16-97.801c-4.24 9.05-10.22 31.79-16.97 61.04-3.73 16.1-7.69 34.18-11.72 53.02" stroke-width="14"/><path d="m367.36 295.56c-27.49-22.81-45.73-62.91-45.73-108.58 0-71 44.1-128.56 98.5-128.56s98.5 57.56 98.5 128.56c0 55.01-13.37 91.3-38.82 110.89-15.51 11.94-35.5 17.68-59.68 17.68-19.41 0-37.52-7.33-52.77-19.99z" stroke-width="14"/><path d="m426.6 769c0 3.98-2.979 7.2-6.649 7.2s-6.65-3.22-6.65-7.2 2.98-7.21 6.65-7.21c3.669 0 6.649 3.23 6.649 7.21z" stroke-linecap="round" stroke-linejoin="round" stroke-width="13.303"/><path d="m288 616c.3 56.66-1.34 145.35-1.34 162.93" stroke-width="14"/><path d="m351.22 565.02c0 5.82-4.22 10.54-9.42 10.54s-9.42-4.72-9.42-10.54c0-5.81 4.22-10.529 9.42-10.529 5.2-.001 9.42 4.719 9.42 10.529z" stroke-linecap="round" stroke-linejoin="round" stroke-width="13.303"/><path d="m260.32 553.11s1.82 39.96 29.23 60.569c14.05 10.561 34.83 16.04 65.55 8.431 44.68-11.061 54.87-61.521 54.87-61.521" stroke-linecap="round" stroke-linejoin="round" stroke-width="14"/><path d="m558 618c-.28 52.92 2.34 133.26 2.69 157.95.029 1.74.04 3.21.04 4.37" stroke-width="14"/><g stroke-linecap="round" stroke-linejoin="round"><path d="m496.17 566.41c0 5.82 4.21 10.54 9.42 10.54 5.2 0 9.41-4.72 9.41-10.54 0-5.811-4.21-10.53-9.41-10.53-5.21 0-9.42 4.72-9.42 10.53z" stroke-width="13.303"/><path d="m587.06 554.5s-1.97 43.4-32.819 63.06c-13.94 8.881-33.76 12.921-61.96 5.94-44.67-11.06-54.87-61.52-54.87-61.52" stroke-width="14"/></g></g><path d="m0 0h850.394v850.394h-850.394z"/></g></svg>