<svg height="850.394" viewBox="0 0 850.394 850.394" width="850.394" xmlns="http://www.w3.org/2000/svg"><path d="m449.64 708.718h335.636" fill="none"/><g fill="#444041"><circle cx="463.886" cy="708.718" r="13.676"/><circle cx="491.808" cy="708.718" r="13.676"/><circle cx="519.73" cy="708.718" r="13.676"/><circle cx="547.652" cy="708.718" r="13.676"/><circle cx="575.575" cy="708.718" r="13.676"/><circle cx="603.497" cy="708.718" r="13.676"/><circle cx="631.42" cy="708.718" r="13.676"/><circle cx="659.342" cy="708.718" r="13.676"/><circle cx="687.265" cy="708.718" r="13.676"/><circle cx="715.187" cy="708.718" r="13.676"/><circle cx="743.109" cy="708.718" r="13.676"/><circle cx="771.031" cy="708.718" r="13.676"/></g><path d="m256.438 502.938 84.683-7.109" fill="none"/><circle cx="271.93" cy="501.637" fill="#444041" r="11.397"/><circle cx="298.78" cy="499.383" fill="#444041" r="11.397"/><circle cx="325.629" cy="497.129" fill="#444041" r="11.397"/><path d="m261.864 536.498 84.764-8.43" fill="none" stroke="#231f20" stroke-width="19.138"/><path d="m273.88 369.85c2.59 0 4.69 2.1 4.69 4.69s-2.1 4.7-4.69 4.7-4.69-2.11-4.69-4.7 2.1-4.69 4.69-4.69zm0-51.41c2.59 0 4.69 2.09 4.69 4.68s-2.1 4.7-4.69 4.7-4.69-2.11-4.69-4.7 2.1-4.68 4.69-4.68zm0-50.3c2.59 0 4.69 2.1 4.69 4.69 0 2.6-2.1 4.7-4.69 4.7s-4.69-2.1-4.69-4.7c0-2.59 2.1-4.69 4.69-4.69z" fill="#f0947d"/><circle cx="273.88" cy="222.67" fill="#f0947d" r="4.69"/><path d="m291.47 179.51c-1.8 1.62-3.63 2.91-5.48 3.81v2.26h-25.62v-2.49c-2.27-1.1-4.51-2.79-6.7-4.97-19.81-19.65-34.91-78.72-15.82-97.82 7.46-7.47 18.02-13.45 28.27-14.3 4.73-.4 8.14-.34 8.14-.34l5.97.57c10.25.85 20.81 6.83 28.27 14.3 19.49 19.48 3.37 80.59-17.03 98.98z" fill="#f0947d"/><path d="m346.75 101.04-.55.96s5.49 72.32-12.52 90.33c-16.47 16.48-38.55-8.43-42.21-12.82 20.4-18.39 36.52-79.5 17.03-98.98 6.31 2.63 21.73 11.12 38.25 20.51zm-93.08 77.08-1.23.93s-24.72 31.48-42.74 13.47c-18.01-18.02-12.53-90.33-12.53-90.33 17.43-9.93 34.07-19.13 40.68-21.89-19.09 19.1-3.99 78.17 15.82 97.82z" fill="#f0037f"/><path d="m260.37 185.58v259.75h-103.59l13.52-180.15-6.76.52-35.65 162.13-61.74-11.82s10.02-39.16 18.39-80.69c10.44-51.78 36.96-151.06 36.96-151.06s10.14-44.29 24.02-52.17c4.94-2.8 28.96-16.97 51.65-29.9 0 0-5.48 72.31 12.53 90.33 18.02 18.01 42.74-13.47 42.74-13.47l1.23-.93c2.19 2.18 4.43 3.87 6.7 4.97zm25.62 0v259.75h-25.62v-259.75zm-7.42 37.09a4.69 4.69 0 1 0 -9.38 0 4.69 4.69 0 0 0 9.38 0zm0 50.16a4.69 4.69 0 0 0 -9.38 0c0 2.6 2.1 4.7 4.69 4.7s4.69-2.1 4.69-4.7zm0 50.29c0-2.59-2.1-4.68-4.69-4.68s-4.69 2.09-4.69 4.68 2.1 4.7 4.69 4.7 4.69-2.11 4.69-4.7zm0 51.42a4.69 4.69 0 0 0 -9.38 0c0 2.59 2.1 4.7 4.69 4.7s4.69-2.11 4.69-4.7zm83.14-134.72v43.14c0 7.05-5.72 12.77-12.77 12.77h-33.02c-7.04 0-12.76-5.72-12.76-12.77v-43.14z" fill="#f0037f"/><path d="m285.99 445.33v-262.01c1.85-.9 3.68-2.19 5.48-3.81 3.66 4.39 25.74 29.3 42.21 12.82 18.01-18.01 12.52-90.33 12.52-90.33l.55-.96c23.38 13.28 48.96 28.37 54.08 31.28 13.89 7.88 24.02 52.17 24.02 52.17s26.53 99.28 36.959 151.06c8.381 41.53 18.41 80.69 18.41 80.69l-61.75 11.819-35.649-162.129-6.76-.53 13.51 180.17h-103.58zm75.72-162.37v-43.14h-58.55v43.14c0 7.05 5.72 12.77 12.76 12.77h33.02c7.05 0 12.77-5.72 12.77-12.77z" fill="#f0037f"/><path d="m711.1 357.66v31.2h-186.77v-31.2z" fill="#ffeec8"/><path d="m711.1 388.86 66.05 314.97h-161.08v.05h-158.08l66.05-314.97h152.32l8.09-.05z" fill="#ffeec8"/><path d="m346.87 531.11-84.31 7.08-.38.069-6.94-38.779 51.55-3.66 33.84-2.4s4.61 14.48 6.24 37.69z" fill="#9c5b16"/><path d="m202.69 766.9c.44-10.271 9.68-21.341 19.14-24.091 11.6-3.369 48.11-16.63 53.91-22.42 7.7-7.699 15.28-18.279 12.02-39.069l-25.58-143.06.38-.069 84.31-7.08c.7 10 .84 21.62-.17 34.399-2.84 35.75-8.41 140.94-2.04 156.94 5.44 13.7 3.95 35.75-20.19 38.77-1.76.23-27.69-2.149-63.04 16.53-26.93 14.24-50.36 8.36-56.72-2.38-1.55-2.61-2.15-5.51-2.02-8.47z" fill="#f6cc4b"/><path d="m306.62 493.42.17 2.4-51.55 3.66 6.94 38.779 25.58 143.061c3.26 20.79-4.32 31.37-12.02 39.069-5.8 5.79-42.31 19.051-53.91 22.42-9.46 2.75-18.7 13.82-19.14 24.091-17.6 3.29-31.36-1.96-36.01-9.801-6.9-11.649 4.92-29.02 17.13-32.55 11.59-3.38 48.1-16.64 53.9-22.439 7.7-7.7 15.28-18.28 12.02-39.061l-32.51-181.84 85.39-6.07c0 .001 2.13 6.701 4.01 18.281z" fill="#f6cc4b"/><g fill="none" stroke="#231f20"><path d="m293.02 445.33h-136.24l13.52-180.15-6.76.52-35.65 162.13-61.74-11.82s10.02-39.16 18.39-80.69c10.44-51.78 36.96-151.06 36.96-151.06s10.14-44.29 24.02-52.17c4.94-2.8 28.96-16.97 51.65-29.9 17.43-9.93 34.07-19.13 40.68-21.89" stroke-width="14"/><circle cx="273.88" cy="222.67" r="4.69" stroke-width="6.379"/><path d="m278.57 272.83c0 2.6-2.1 4.7-4.69 4.7s-4.69-2.1-4.69-4.7a4.69 4.69 0 0 1 9.38 0zm0 50.29c0 2.59-2.1 4.7-4.69 4.7s-4.69-2.11-4.69-4.7 2.1-4.68 4.69-4.68 4.69 2.09 4.69 4.68zm0 51.42c0 2.59-2.1 4.7-4.69 4.7s-4.69-2.11-4.69-4.7a4.69 4.69 0 0 1 9.38 0z" stroke-width="6.379"/><g stroke-width="14"><path d="m266.12 66c-10.25.85-20.81 6.83-28.27 14.3-19.09 19.1-3.99 78.17 15.82 97.82 2.19 2.18 4.43 3.87 6.7 4.97v262.24m101.34-205.51v43.14c0 7.05-5.72 12.77-12.77 12.77h-33.02c-7.04 0-12.76-5.72-12.76-12.77v-43.14z"/><path d="m253.33 445.57h136.24l-13.51-180.17 6.76.53 35.65 162.129 61.75-11.819s-10.029-39.16-18.41-80.69c-10.43-51.78-36.959-151.06-36.959-151.06s-10.13-44.29-24.02-52.17c-5.12-2.91-30.7-18-54.08-31.28-16.52-9.39-31.94-17.88-38.25-20.51"/><path d="m266.12 66c4.73-.4 8.14-.34 8.14-.34l5.97.57c10.25.85 20.81 6.83 28.27 14.3 19.49 19.48 3.37 80.59-17.03 98.98-1.8 1.62-3.63 2.91-5.48 3.81v262.25m0-259.99h-27.03m-61.79-83.39s-5.48 72.31 12.53 90.33c18.02 18.01 42.74-13.47 42.74-13.47"/><path d="m346.2 102s5.49 72.32-12.52 90.33c-16.47 16.48-38.55-8.43-42.21-12.82-.35-.41-.53-.64-.53-.64"/></g><path d="m711.1 388.86 66.05 314.97h-161.08" stroke-width="21"/><path d="m619.07 703.88h-161.08l66.05-314.97h152.32l8.09-.05" stroke-width="21"/><path d="m711.1 388.86h-186.77v-31.2h186.77z" stroke-width="21"/><path d="m346.87 531.11c.7 10 .84 21.62-.17 34.399-2.84 35.75-8.41 140.94-2.04 156.94 5.44 13.7 3.95 35.75-20.19 38.77-1.76.23-27.69-2.149-63.04 16.53-26.93 14.24-50.36 8.36-56.72-2.38-1.55-2.61-2.15-5.51-2.02-8.47.44-10.271 9.68-21.341 19.14-24.091 11.6-3.369 48.11-16.63 53.91-22.42 7.7-7.699 15.28-18.279 12.02-39.069l-25.58-143.059-6.94-38.779 51.55-3.66 33.84-2.4c0-.001 4.61 14.479 6.24 37.689z" stroke-width="14"/><path d="m262.56 538.19 84.31-7.08.37-.03" stroke-width="1.595"/><path d="m202.7 766.9h-.01c-17.6 3.29-31.36-1.96-36.01-9.801-6.9-11.649 4.92-29.02 17.13-32.55 11.59-3.38 48.1-16.64 53.9-22.439 7.7-7.7 15.28-18.28 12.02-39.061l-32.51-181.84 85.39-6.07s2.13 6.7 4.01 18.28" stroke-width="14"/></g><path d="m0 0h850.394v850.394h-850.394z" fill="none"/></svg>