<svg height="850.394" viewBox="0 0 850.394 850.394" width="850.394" xmlns="http://www.w3.org/2000/svg"><path d="m220.29 514.85 4.59 87.01-10.31-45.74 4.8-58.78zm397.53 11 1.66-20.37 5.52 104.58-10.32-45.77zm-117.64-346.02c26.181-17.61 55.221-30.2 86.311-31.41 34.819-1.35 70.229.21 103.92 6.49 21.79 4.06 58.729 13.25 78.17 6.11l-10.581 80.98v3.23h-330.09v-.57c20.3-22.21 44.7-46.3 72.27-64.83z" fill="#00e800"/><path d="m500.18 179.83c-27.569 18.53-51.97 42.62-72.27 64.83v.57h-332.83l-7.85-117.67c138.36.6 284.67-50.19 412.95 52.27z" fill="#33a02c"/><g fill="#00e800"><path d="m255.93 531.69c-4.11 6.77-6.41 17.76-7.34 25.479-2.34 19.42-3.43 39.05-5.45 58.39l-15.84-1.39.18-.66 2.21-8.34 8.38-31.52 5.81-21.851c1.9-6.819 2.49-12.63 8.45-21.71 2.97-4.54 12.49-11.54 18.34-10.25-6.26.642-12.02 7.362-14.74 11.852z"/><path d="m238.07 573.65-8.38 31.52h-.01l-1.04-56.49 4.95-61.52zm-13.19 28.21 1.31 5.79 1.29 5.859-.18.66-14.67.66-7.61-28.68h.01c-1.28-15.07-2.45-31.561-4.26-46.561-1.11-9.2-3.85-18.71-8.77-26.8-3.23-5.34-10.13-17-17.59-17.76 6.99-1.55 15.26 4.68 21.28 11.319 3.9 4.29 9.11 12.391 12.97 23.54l5.91 26.23z"/><path d="m212.63 614.83.08.29-11.28.99-4.55.399c-2.02-19.35-3.11-38.979-5.45-58.39-.93-7.71-3.23-18.71-7.33-25.49-2.71-4.479-8.49-11.21-14.74-11.85 5.84-1.29 15.36 5.72 18.33 10.26 5.96 9.08 6.55 14.9 8.46 21.7l8.87 33.41zm439.8-76.6c2.98-4.551 12.49-11.551 18.34-10.261-6.26.641-12.02 7.37-14.729 11.851-4.12 6.779-6.42 17.77-7.35 25.479-2.33 19.42-3.421 39.05-5.45 58.391l-4.99-.44-10.84-.94.18-.659v-.011l2.21-8.33 8.37-31.52 5.811-21.85c1.908-6.82 2.498-12.63 8.448-21.71z"/><path d="m638.17 581.79-8.37 31.52h-.01l-1.05-56.49 4.95-61.52zm-13.17 28.27 1.29 5.73 1.3 5.85v.011l-.18.659-14.67.66-7.61-28.68c-1.27-15.07-2.45-31.56-4.26-46.56-1.11-9.211-3.84-18.711-8.76-26.801-3.24-5.34-10.13-17.01-17.591-17.77 6.98-1.54 15.25 4.68 21.28 11.32 3.891 4.289 9.11 12.399 12.96 23.539l5.92 26.271z"/><path d="m612.74 622.97.08.29-15.83 1.38c-2.03-19.34-3.12-38.97-5.45-58.39-.94-7.7-3.23-18.71-7.34-25.48-2.71-4.489-8.49-11.21-14.74-11.85 5.84-1.29 15.36 5.72 18.33 10.25 5.96 9.09 6.55 14.9 8.47 21.71l8.87 33.41zm-176.41-213.71-10.31-45.74 4.8-58.77zm-12.25 12.97.08.29-5.22.46-10.61.93c-2.02-19.35-3.11-38.98-5.45-58.4-.93-7.7-3.23-18.71-7.33-25.48-2.72-4.48-8.49-11.21-14.74-11.84 5.84-1.3 15.36 5.71 18.33 10.25 5.96 9.08 6.55 14.9 8.46 21.7l8.87 33.41z"/><path d="m426.02 363.52 10.311 45.74 1.31 5.79 1.29 5.86-.18.66-14.67.66-7.61-28.68c-1.27-15.07-2.44-31.56-4.25-46.56-1.11-9.2-3.85-18.71-8.77-26.8-3.23-5.34-10.12-17-17.59-17.76 6.99-1.55 15.26 4.68 21.28 11.32 3.51 3.86 8.1 10.84 11.8 20.36.4 1.03.79 2.09 1.17 3.18zm23.5 17.53-8.38 31.52h-.01l-1.04-56.49 4.95-61.52z"/><path d="m482.12 327.24c-6.26.63-12.03 7.37-14.74 11.84-4.11 6.78-6.41 17.78-7.34 25.49-2.34 19.42-3.43 39.05-5.46 58.39l-15.83-1.39.18-.66 2.21-8.34 8.38-31.52 5.811-21.85c1.9-6.82 2.49-12.63 8.45-21.7 2.969-4.55 12.489-11.55 18.339-10.26z"/></g><path d="m219.37 497.34-4.8 58.78-5.91-26.23c-3.86-11.149-9.07-19.25-12.97-23.54-6.02-6.64-14.29-12.869-21.28-11.319 7.46.76 14.36 12.42 17.59 17.76 4.92 8.09 7.66 17.6 8.77 26.8 1.81 15 2.98 31.49 4.26 46.561h-.01l-8.87-33.41c-1.91-6.8-2.5-12.62-8.46-21.7-2.97-4.54-12.49-11.55-18.33-10.26 6.25.64 12.03 7.37 14.74 11.85 4.1 6.78 6.4 17.78 7.33 25.49 2.34 19.41 3.43 39.04 5.45 58.39l4.55-.399-20.06 105.897h-98.62l121.03-472.6h67.1l-50.59 265.44z" fill="#9c5b16"/><path d="m229.68 605.17h.01l-2.21 8.34-1.29-5.859-1.31-5.79-4.59-87.011 50.59-265.439h148.06v84.7c-3.7-9.52-8.29-16.5-11.8-20.36-6.02-6.64-14.29-12.87-21.28-11.32 7.47.76 14.36 12.42 17.59 17.76 4.92 8.09 7.66 17.6 8.77 26.8 1.81 15 2.98 31.49 4.25 46.56l-8.87-33.41c-1.91-6.8-2.5-12.62-8.46-21.7-2.97-4.54-12.49-11.55-18.33-10.25 6.25.63 12.02 7.36 14.74 11.84 4.1 6.77 6.4 17.78 7.33 25.48 2.34 19.42 3.43 39.05 5.45 58.4l10.61-.93v299.03h-237.57l20.06-105.899 11.28-.99-.08-.29 14.67-.66 15.84 1.39c2.02-19.34 3.11-38.97 5.45-58.39.93-7.72 3.23-18.71 7.34-25.479 2.72-4.49 8.48-11.21 14.74-11.851-5.85-1.29-15.37 5.71-18.34 10.25-5.96 9.08-6.55 14.891-8.45 21.71l-5.81 21.851-4.48-86.49-4.95 61.52z" fill="#9c5b16"/><path d="m418.94 422.98 5.22-.46-.08-.29 14.67-.66 15.83 1.39c2.03-19.34 3.12-38.97 5.46-58.39.93-7.71 3.229-18.71 7.34-25.49 2.71-4.47 8.48-11.21 14.74-11.84-5.851-1.29-15.37 5.71-18.34 10.26-5.96 9.07-6.55 14.88-8.45 21.7l-5.811 21.85-4.479-86.49-4.95 61.52 1.04 56.49h.01l-2.21 8.34-1.29-5.86-1.31-5.79-5.51-104.51-4.801 58.77-5.91-26.23c-.38-1.09-.77-2.15-1.17-3.18v-84.7h148.5l50.38 276.439-3.141 38.44-5.92-26.271c-3.85-11.14-9.069-19.25-12.96-23.539-6.03-6.641-14.3-12.86-21.28-11.32 7.461.76 14.351 12.43 17.591 17.77 4.92 8.09 7.649 17.59 8.76 26.801 1.81 15 2.99 31.489 4.26 46.56l-8.87-33.41c-1.92-6.81-2.51-12.62-8.47-21.71-2.97-4.53-12.49-11.54-18.33-10.25 6.25.64 12.03 7.36 14.74 11.85 4.109 6.771 6.399 17.78 7.34 25.48 2.33 19.42 3.42 39.05 5.45 58.39l15.83-1.38-.08-.29 14.67-.66 10.84.94 18.7 98.76h-238.009z" fill="#9c5b16"/><path d="m643.24 623.69c2.029-19.341 3.12-38.971 5.45-58.391.93-7.71 3.229-18.7 7.35-25.479 2.71-4.48 8.47-11.21 14.729-11.851-5.85-1.29-15.359 5.71-18.34 10.261-5.949 9.079-6.54 14.89-8.449 21.71l-5.811 21.85-4.479-86.49-4.95 61.521 1.05 56.489h.01l-2.21 8.33-1.3-5.85-1.29-5.73-5.52-104.579-1.66 20.369-50.38-276.44h77.869l114.311 472.6h-102.67l-18.7-98.76z" fill="#9c5b16"/><g fill="none" stroke="#231f20"><path d="m181.37 722.01h-98.62l121.03-472.6h441.53l114.31 472.6h-340.68z" stroke-width="21"/><path d="m202.52 610.33-1.09 5.78-20.06 105.9m89.51-472.6-50.59 265.44-4.1 21.53m202.75-113.4v299.03m0-472.6v92.49m-76.2-84.12-24.65 457.96" stroke-width="21"/><path d="m637.82 621 .43 2.25 18.7 98.76" stroke-width="19.484"/><path d="m567.44 249.41 50.38 276.44 3.25 17.85m-125.49-285.92 24.65 457.96" stroke-width="21"/><path d="m614.68 564.29 3.14-38.44 1.66-20.37 5.52 104.58v.04" stroke-width="6.495"/><path d="m629.79 613.31-1.05-56.49 4.95-61.52 4.48 86.49" stroke-width="7"/><path d="m627.41 622.31-14.67.66-.25.01" stroke-width="6.495"/><g stroke-width="7"><path d="m605.13 594.29c-1.27-15.07-2.45-31.56-4.26-46.56-1.11-9.211-3.84-18.711-8.76-26.801-3.24-5.34-10.13-17.01-17.591-17.77 6.98-1.54 15.25 4.68 21.28 11.32 3.891 4.289 9.11 12.399 12.96 23.539l5.92 26.271 10.321 45.771 1.29 5.73 1.3 5.85"/><path d="m612.74 622.97.08.29-15.83 1.38c-2.03-19.34-3.12-38.97-5.45-58.39-.94-7.7-3.23-18.71-7.34-25.48-2.71-4.489-8.49-11.21-14.74-11.85 5.84-1.29 15.36 5.72 18.33 10.25 5.96 9.09 6.55 14.9 8.47 21.71l8.87 33.41zm25.51.28 4.99.44c2.029-19.341 3.12-38.971 5.45-58.391.93-7.71 3.229-18.7 7.35-25.479 2.71-4.48 8.47-11.21 14.729-11.851-5.85-1.29-15.359 5.71-18.34 10.261-5.949 9.079-6.54 14.89-8.449 21.71l-5.811 21.85-8.37 31.52-2.21 8.33v.011l-.18.659zm-423.68-67.09v-.04l4.8-58.78.92 17.51 4.59 87.01.01.1m4.79 3.21-1.04-56.49 4.95-61.52 4.48 86.49m-10.77 40.52-14.67.66-.24.01"/><path d="m205.03 586.15c-1.28-15.07-2.45-31.561-4.26-46.561-1.11-9.2-3.85-18.71-8.77-26.8-3.23-5.34-10.13-17-17.59-17.76 6.99-1.55 15.26 4.68 21.28 11.319 3.9 4.29 9.11 12.391 12.97 23.54l5.91 26.23 10.31 45.74 1.31 5.79 1.29 5.859v.01"/><path d="m201.43 616.11-4.55.399c-2.02-19.35-3.11-38.979-5.45-58.39-.93-7.71-3.23-18.71-7.33-25.49-2.71-4.479-8.49-11.21-14.74-11.85 5.84-1.29 15.36 5.72 18.33 10.26 5.96 9.08 6.55 14.9 8.46 21.7l8.87 33.41 7.61 28.68.08.29zm25.87-1.94 15.84 1.39c2.02-19.34 3.11-38.97 5.45-58.39.93-7.72 3.23-18.71 7.34-25.479 2.72-4.49 8.48-11.21 14.74-11.851-5.85-1.29-15.37 5.71-18.34 10.25-5.96 9.08-6.55 14.891-8.45 21.71l-5.81 21.851-8.38 31.52-2.21 8.34z"/></g><path d="m95.08 245.23h667.9m-335.07-.57c20.3-22.21 44.7-46.3 72.27-64.83 26.181-17.61 55.221-30.2 86.311-31.41 34.819-1.35 70.229.21 103.92 6.49 21.79 4.06 58.729 13.25 78.17 6.11" stroke-width="21"/><path d="m87.23 127.56c138.36.6 284.67-50.19 412.95 52.27l.011.01" stroke-width="21"/><path d="m426.02 363.56v-.04l4.8-58.77 5.51 104.51.01.1m4.79 3.21-1.04-56.49 4.95-61.52 4.48 86.49" stroke-width="7"/><path d="m438.75 421.57-14.67.66-.25.01" stroke-width="6.495"/><path d="m416.47 393.55c-1.27-15.07-2.44-31.56-4.25-46.56-1.11-9.2-3.85-18.71-8.77-26.8-3.23-5.34-10.12-17-17.59-17.76 6.99-1.55 15.26 4.68 21.28 11.32 3.51 3.86 8.1 10.84 11.8 20.36.4 1.03.79 2.09 1.17 3.18l5.91 26.23 10.311 45.74 1.31 5.79 1.29 5.86v.01" stroke-width="7"/><path d="m418.94 422.98-10.61.93c-2.02-19.35-3.11-38.98-5.45-58.4-.93-7.7-3.23-18.71-7.33-25.48-2.72-4.48-8.49-11.21-14.74-11.84 5.84-1.3 15.36 5.71 18.33 10.25 5.96 9.08 6.55 14.9 8.46 21.7l8.87 33.41 7.61 28.68.08.29zm19.81-1.41 15.83 1.39c2.03-19.34 3.12-38.97 5.46-58.39.93-7.71 3.229-18.71 7.34-25.49 2.71-4.47 8.48-11.21 14.74-11.84-5.851-1.29-15.37 5.71-18.34 10.26-5.96 9.07-6.55 14.88-8.45 21.7l-5.811 21.85-8.38 31.52-2.21 8.34z" stroke-width="7"/></g><path d="m0 0h850.394v850.394h-850.394z" fill="none"/></svg>