<svg height="850" viewBox="0 0 850 850" width="850" xmlns="http://www.w3.org/2000/svg"><path d="m350.1 443.7-40.2 9.7-.5-2.2-48.5-65.8-.8-3.2 39-9z" fill="#c8c8c8"/><path d="m146.6 493.2 39.5-9.8 42.3-10.2 40.7-9.8 40.8-10 40.2-9.7 19.5-4.8 3.8-11 1.7-4.5 1.5-3.7 1.8-3 1-1.3 1-1 1-1 1.2-.7 1.3-.5 1.2-.5 5.3-1 5.2-.8 5.3-.5 5.5-.5 10.5-.5h12v36.5l.7 14 .3 5.5.5 4.5.5 2 .5 2 .7 1.5.8 1.5 1 1.5 1 1 1 1 1.2 1 1.3.8 1.2.7 3 .8 2.8.2h3l3-.5 2.7-1 2.8-1.2 2.2-1.8 2-1.7 1.8-2.3 1-2.2.2-1.3.3-1.5.7-13.7.8-16.5.7-18 .8-18.8h2l4-.7 4-.5 3.7-.3h4l4 .3 3.8.5 8.2 1 8.8 1.5 9.7 1.5 11 1.2 5.8.5 6.5.3.5 1 .7.5 2.8 1.7 3 1.5 3.2 1 3 .5 3.3.3 3.2-.3 3-.2 3-.8 3-.7 2.8-1.3 2.5-1 2.2-1.5 2.3-1.5 1.7-1.5 1.3-1.5 1.2-1.5.3 1.8.5 1.2.5 1.3.7.7 2 1.3 2 .7 2 .8 2 .5 2.3.2h2l2.2-.2 2.3-.3 2-.5 2.2-.7 4.5-1.8 4.5-2.2 4.3-2.8 1.5-1.2 3.2-3.5 1.8-2 2-2.5 1.5-2.5 1-2.5 1.7.2 16.3-6.7 13.2-5.8 8.8-4 3.2-1.7 3-.8 3-1.5 2.8-1.7 2.7-2 2.3-2.5 2.2-2.8 2-3 1.5-3.5 1.5-3.5 1.3-3.7.7-3.8.8-4.2.2-4v-4.5l-.5-4.3-.5-4.5-.5-1.5-.5-1-.7-.5-.8-.2-.7-.5-.8-.3-1-.7-.7-1.5 2.5-1.8 2.5-2.2 2.5-2.3 2.2-2.5 4.3-5.5 4-6 4-6.5 3.5-6.5 6.5-13 .7.3 16.5 2.2-6.7 151.3h-.3l-507.2 235v1.2l-144.8-23 33.3-134z" fill="#7a7878"/><path d="m309.4 451.2.5 2.2-40.8 10-.2-.7-50.8-70.5-.2-.5 42.2-9.5.8 3.2zm-129.8-46.5 47.8 64.5 1 4-42.3 10.2-.2-1-51-70.7-.3-1 6.3-1.5 38-8.5z" fill="#c8c8c8"/><path d="m228.4 473.2-1-4-47.8-64.5-.7-4 39-9 .2.5 50.8 70.5.2.7z" fill="#c8c8c8"/><path d="m541.4 397.9h-.8l-.7 1-1.3 1-1.5.8-1.7.7-1.8.5-2.2.3-2.3.2h-4.5l-2.5-.5-2.2-.5-2.3-.7-2-1-1.7-1.3-1.5-1.5-1.5-1.7-.5-1.5-.8-1.8-.5-2-.2-2.5-.5-5.5v-6.2l.2-7 .3-7.5 1.5-15.3 1.7-14.7 1.8-12.5 2-11.8-12.8 7.8-11.5 7.2-11 7.3-1.5 1.2-1.2 2-1.3 2.5-1 3-1 3.5-1 4-1.7 9.3-1.5 10.7-1 11.5-1 12.5-1 13-.8 18.8-.7 18-.8 16.5-.7 13.7-.3 1.5-.2 1.3-1 2.2-1.8 2.3-2 1.7-2.2 1.8-2.8 1.2-2.7 1-3 .5h-3l-2.8-.2-3-.8-1.2-.7-1.3-.8-1.2-1-1-1-1-1-1-1.5-.8-1.5-.7-1.5-.5-2-.5-2-.5-4.5-.3-5.5-.7-14v-36.5l.5-25 .7-25.5.8-26.5 1-22 .7-20.5 2.5-2.5 3.5-3.2 5.8-5.3 7.7-6.7 10.8-8.8 13.5-11 17.2-13.2 24.8-18.8 30.5-22.2 9.2-6.5 15.8-10.5 41.2-27.3 55.8-36.2 95.5 91.7-4 1.3-3.8 1.5-3.2 2-2.8 2.2-2.7 2.8-2.3 2.7-2 3.3-2 3.2-1.7 3.5-1.8 3.5-3 7.5-3 7.5-1.7 3.8-1.8 3.5-5.2 10.7-6.5 13-3.5 6.5-4 6.5-4 6-4.3 5.5-2.2 2.5-2.5 2.3-2.5 2.2-2.5 1.8-3 2.2-2.8 1.5-4.7 2.8-4.5 1.7-4.3 1.5-4.2 1.3-4.5 2-5.3 2.5-3 1.7-3.2 2-3.5 2.3-3.3 2.7-3.2 3-2.8 3.3-3 3.5-2.5 3.7-2.2 3.5-2 3.8-1.8 3.5-1.2 3.2-1 3.3-.5 2.7v2.8l.2 2 .3 1 .5.7.7.8.8.5 1.2.7 1.3 1 .7 1.3.5 1 .3 1.2v1.3l-.3 1.2-.2 1.3-1 2.5-1.5 2.5-2 2.5-1.8 2-3.2 3.5-1.5 1.2-4.3 2.8-4.5 2.2-4.5 1.8-2.2.7-2 .5-2.3.3-2.2.2h-2l-2.3-.2-2-.5-2-.8-2-.7-2-1.3-.7-.7-.5-1.3-.5-1.2-.3-1.8-1.2 1.5-1.3 1.5-1.7 1.5-2.3 1.5-2.2 1.5-2.5 1-2.8 1.3-3 .7-3 .8-3 .2-3.2.3-3.3-.3-3-.5-3.2-1-3-1.5-2.8-1.7-.7-.5-.5-1-.8-1.8-.2-2.2-.3-2.8z" fill="#ffeec8"/><path d="m634.6 388.4-1.7-.2.2-1.3.3-1.2v-1.3l-.3-1.2-.5-1-.7-1.3-1.3-1-1.2-.7-.8-.5-.7-.8-.5-.7-.3-1-.2-2v-2.8l.5-2.7 1-3.3 1.2-3.2 1.8-3.5 2-3.8 2.2-3.5 2.5-3.7 3-3.5 2.8-3.3 3.2-3 3.3-2.7 3.5-2.3 3.2-2 3-1.7 5.3-2.5 4.5-2 4.2-1.3 4.3-1.5 4.5-1.7 4.7-2.8 2.8-1.5 3-2.2.7 1.5 1 .7.8.3.7.5.8.2.7.5.5 1 .5 1.5.5 4.5.5 4.3v4.5l-.2 4-.8 4.2-.7 3.8-1.3 3.7-1.5 3.5-1.5 3.5-2 3-2.2 2.8-2.3 2.5-2.7 2-2.8 1.7-3 1.5-3 .8-3.2 1.7-8.8 4-13.2 5.8z" fill="#9e5c26"/><path d="m735.9 421.2-1.5 28.5h-4.5l-455.3 211-.7 4.2-45.5-7.5v-1.2l507.2-235z" fill="#7a7878"/><path d="m734.4 449.7-12.8 286.5-447.7-71.3.7-4.2 455.3-211zm-241.5-213.8.7 2.3-17.2 13.2-13.5 11-10.8 8.8-7.7 6.7-5.8 5.3-3.5 3.2-2.5 2.5-.7 20.5-1 22-.8 26.5h-3l-9.2 5-5.8 2.8-6.2 3-6.5 2.7-6.8 2.8-6.7 2.2-6.8 1.8-1.2.2-1.5.3-1.3-.3-1.5-.2-1.2-.8-1.3-.5-2.7-2-2.8-2.7-3.2-3.3-7.5-8.5-55.8 12.8-39 9-42.2 9.5-39 9-38 8.5-.8-3 52.3-211.5z" fill="#7a7878"/><path d="m91.4 420.4 43.2-9.7.3 1 51 70.7.2 1-39.5 9.8-50-69-4.5.7z" fill="#c8c8c8"/><path d="m116.9 500.4-10 2.5-1.8-8.7-13-69.3 4.5-.7 50 69zm310.2-142.5h3l-.7 25.5-.5 25h-12l-10.5.5-5.5.5-5.3.5-5.2.8-5.3 1-1.2.5-1.3.5-1.2.7-1 1-1 1-1 1.3-1.8 3-1.5 3.7-1.7 4.5-3.8 11-19.5 4.8-51-70.5 55.8-12.8 7.5 8.5 3.2 3.3 2.8 2.7 2.7 2 1.3.5 1.2.8 1.5.2 1.3.3 1.5-.3 1.2-.2 6.8-1.8 6.7-2.2 6.8-2.8 6.5-2.7 6.2-3 5.8-2.8z" fill="#c8c8c8"/><path d="m541.4 397.9.2 3 .3 2.8.2 2.2.8 1.8-6.5-.3-5.8-.5-11-1.2-9.7-1.5-8.8-1.5-8.2-1-3.8-.5-4-.3h-4l-3.7.3-4 .5-4 .7h-2l1-13 1-12.5 1-11.5 1.5-10.7 1.7-9.3 1-4 1-3.5 1-3 1.3-2.5 1.2-2 1.5-1.2 11-7.3 11.5-7.2 12.8-7.8-2 11.8-1.8 12.5-1.7 14.7-1.5 15.3-.3 7.5-.2 7v6.2l.5 5.5.2 2.5.5 2 .8 1.8.5 1.5 1.5 1.7 1.5 1.5 1.7 1.3 2 1 2.3.7 2.2.5 2.5.5h4.5l2.3-.2 2.2-.3 1.8-.5 1.7-.7 1.5-.8 1.3-1 .7-1z" fill="#9e5c26"/><g fill="none" stroke="#231f20" stroke-linecap="round" stroke-miterlimit="10" stroke-width="14"><path d="m634.6 388.4 16.3-6.7 13.2-5.8 8.8-4 3.2-1.7 3-.8 3-1.5 2.8-1.7 2.7-2 2.3-2.5 2.2-2.8 2-3 1.5-3.5 1.5-3.5 1.3-3.7.7-3.8.8-4.2.2-4v-4.5l-.5-4.3-.5-4.5-.5-1.5-.5-1-.7-.5-.8-.2-.7-.5-.8-.3-1-.7-.7-1.5m-224 88.7 4-.7 4-.5 3.7-.3h4l4 .3 3.8.5 8.2 1 8.8 1.5 9.7 1.5 11 1.2 5.8.5 6.5.3h3.5m-441.3 86.5-13-69.3-.7-4.5 43.2-9.7 6.3-1.5 38-8.5 39-9 42.2-9.5 39-9 55.8-12.8 7.5 8.5 3.2 3.3 2.8 2.7 2.7 2 1.3.5 1.2.8 1.5.2 1.3.3 1.5-.3 1.2-.2 6.8-1.8 6.7-2.2 6.8-2.8 6.5-2.7 6.2-3 5.8-2.8 9.2-5m-.5 50.5h-9.7l-10.5.5-5.5.5-5.3.5-5.2.8-5.3 1-1.2.5-1.3.5-1.2.7-1 1-1 1-1 1.3-1.8 3-1.5 3.7-1.7 4.5-3.8 11-19.5 4.8-40.2 9.7-40.8 10-40.7 9.8-42.3 10.2-39.5 9.8-29.7 7.2-10 2.5-1.8-8.7m194-121 51 70.5m-89.2-58.3 48.5 65.8m-91.3-59 50.8 70.5m-89.3-58 47.8 64.5m-92.5-57.5 51 70.7"/><path d="m96.6 424.2 50 69 1 1.5m523.3-378-55.8 36.2-41.2 27.3-15.8 10.5-9.2 6.5-30.5 22.2-24.8 18.8-17.2 13.2-13.5 11-10.8 8.8-7.7 6.7-5.8 5.3-3.5 3.2-2.5 2.5-.7 20.5-1 22-.8 26.5-.7 25.5-.5 25v36.5l.7 14 .3 5.5.5 4.5.5 2 .5 2 .7 1.5.8 1.5 1 1.5 1 1 1 1 1.2 1 1.3.8 1.2.7 3 .8 2.8.2h3l3-.5 2.7-1 2.8-1.2 2.2-1.8 2-1.7 1.8-2.3 1-2.2.2-1.3.3-1.5.7-13.7.8-16.5.7-18 .8-18.8 1-13 1-12.5 1-11.5 1.5-10.7 1.7-9.3 1-4 1-3.5 1-3 1.3-2.5 1.2-2 1.5-1.2 11-7.3 11.5-7.2 12.8-7.8-2 11.8-1.8 12.5-1.7 14.7-1.5 15.3-.3 7.5-.2 7v6.2l.5 5.5.2 2.5.5 2 .8 1.8.5 1.5 1.5 1.7 1.5 1.5 1.7 1.3 2 1 2.3.7 2.2.5 2.5.5h4.5l2.3-.2 2.2-.3 1.8-.5 1.7-.7 1.5-.8 1.3-1 .7-1"/><path d="m556.4 310.7-2.3 10-2.5 10.7-2.7 13-2.8 14.3-2.2 14.5-1 7-.8 6.5-.5 6-.2 5.2.2 3 .3 2.8.2 2.2.8 1.8.5 1 .7.5 2.8 1.7 3 1.5 3.2 1 3 .5 3.3.3 3.2-.3 3-.2 3-.8 3-.7 2.8-1.3 2.5-1 2.2-1.5 2.3-1.5 1.7-1.5 1.3-1.5 1.2-1.5m17.5-78.2-3 9.7-3 10-3.5 12.3-3.5 13.2-1.5 6.5-1.2 6.3-1 6-.8 5.5-.2 4.7.2 4 .3 1.8.5 1.2.5 1.3.7.7 2 1.3 2 .7 2 .8 2 .5 2.3.2h2l2.2-.2 2.3-.3 2-.5 2.2-.7 4.5-1.8 4.5-2.2 4.3-2.8 1.5-1.2 3.2-3.5 1.8-2 2-2.5 1.5-2.5 1-2.5.2-1.3.3-1.2v-1.3l-.3-1.2-.5-1-.7-1.3-1.3-1-1.2-.7-.8-.5-.7-.8-.5-.7-.3-1-.2-2v-2.8l.5-2.7 1-3.3 1.2-3.2 1.8-3.5 2-3.8 2.2-3.5 2.5-3.7 3-3.5 2.8-3.3 3.2-3 3.3-2.7 3.5-2.3 3.2-2 3-1.7 5.3-2.5 4.5-2 4.2-1.3 4.3-1.5 4.5-1.7 4.7-2.8 2.8-1.5 3-2.2 2.5-1.8 2.5-2.2 2.5-2.3 2.2-2.5 4.3-5.5 4-6 4-6.5 3.5-6.5 6.5-13 5.2-10.7 1.8-3.5 1.7-3.8 3-7.5 3-7.5 1.8-3.5 1.7-3.5 2-3.2 2-3.3 2.3-2.7 2.7-2.8 2.8-2.2 3.2-2 3.8-1.5 4-1.3m-626.3 197.8 52.3-211.5 300.5 41.2"/><path d="m726.1 267.7 16.5 2.2-6.7 151.3-1.5 28.5-12.8 286.5-447.7-71.3-45.5-7.5-144.8-23 33.3-134 .2-1m111.3 156.8 507.2-235m-461 239.5 455.3-211"/></g></svg>