<svg height="850" viewBox="0 0 850 850" width="850" xmlns="http://www.w3.org/2000/svg"><path d="m554.2 805.2-462.2-203.8 8.5 1 8.7.5 18.8.8 9.5.5 9.5.5 9.5.7 9.2 1.3 4 .7 4.3 1 8.2 2.3 8.5 3 8.8 3.5 9 4 9 4.2 9.2 4.5 9 4.5 18 9.5 17.8 9 8.5 4 8.2 3.8 8 3.2 7.8 2.8 18 6.2 16.7 5.8 15.3 5.5 14.5 5.7 13.7 5.5 14 6 14.3 6.5 14.7 6.8 15.8 7.7 15.7 8 15.5 8.3 15.5 8 9.3 4.2 9.2 3.8 9.5 3.7 9.5 3.3 9.3 3.5 9.5 3.7 9 4 4.5 2 4.5 2.3 3.7 1.7-9.2 20.8zm57.5-69.8 3.5 1h-.5.5l-46.2 49.5 4.5-24 5-26 5.5-28.2 3 .5 2 5 2.5 4.5 2.7 4.2 3 3.8 3.3 3.2 3.5 2.8 1.7 1 2 1 2 1z" fill="#f6cc4b"/><path d="m71.2 592.2 1.8-37.3 3.5 1 3.5.8 7.2 1 7.3.7 7.2.3 7.3-.3 7.2-.5 7.5-.5 7.3-.7 4.2-.3h14.3l8.2-.2 8-.8 3.8-.2 3.5-.8 2.7-.7 2.5-.8 1.5-1 .8-.7.2-.5.3-1v-1l-.3-1-.5-1-1.5-2.3-2.2-2.2-2.8-2.3-3.2-2.2-3.5-2.3-3.8-2-8-4.2-7.7-3.8-6.3-3-4.5-2-7.7-4.5-8-5-8.5-5.7-8.3-6.3-8-6.5-3.7-3.2-3.5-3.5-3.5-3.5-3.3-3.5-3-3.8-2.5-3.5 1.3-30.7.7-.3 1.3 7.3 1.7 9.2 22.5-5.5 1 4.8 14.8 9.5 8.2 5.2 8.5 5.3 8.5 4.7 8.5 4.5 8.8 4.5 8.7 4.3 8.8 4 9 4 8.7 3.7 9 3.5 9 3.5 9 3.3 18 6 18 5.5 18.3 5.2 18.5 4.8 18.5 4.2 18.5 4.3 6.7 1.2 6.8 1 13.7 1.8 6.8 1 6.7 1 6.8 1.2 6.7 1.5 7.8 2.5 7.7 2.8 7.8 3 7.5 3.5 15 7 7.5 3.5 7.5 3.2 17.7 7.5 18 7.5 18.3 7 18.2 7 18.3 6.5 18.5 6.5 18.5 6.3 18.2 6.2 2.3.5-1.3 6.8-.7 6.7-2.5 13.5-3.8-.7-8.2-3.8-8.8-3.5-8.7-3.2-9-3.3-9-2.7-9-2.5-9-2.3-9-1.7-13.3-2.3-13.5-2.2-6.5-1.5-6.5-1.8-6.5-2-6.5-2.2-3.5-1.8-3.5-1.7-3.5-2-3.2-2-6.3-4.5-6.2-4.5-6.5-4.5-6.5-4.3-3.3-2-3.5-1.7-3.5-1.5-3.7-1.3-3.8-1-3.7-.7-7.5-1.3-7.8-.7-7.5-.5-7.7-.8-7.8-1-3.7-.5-4-1-3.8-1-3.7-1.2-7.8-2.8-9-3-9.7-3-10.3-2.5-10.5-2-5-1-5-.5-4.7-.5-4.8-.2h-4.2l-4 .5-3.8.5-1.5.5-1.2.5-1 .7-.8.8-.5.7-.2.8-.3.7v1l.8 2 1 2 1.7 2.5 2.3 2.3 2.5 2.7 5.5 5.3 6 5.2 5.7 5.3 3.3 3 3 3 3.2 2.5 3.3 2.5 3.2 2.2 3.3 2 3.2 1.8 3.3 1.7 3.5 1.8 3.5 1.2 7 2.8 7.5 2 8 1.7 9.2 1.8 9.5 1.7 19 3.8 9.5 2 9.5 2.2 9 2.8 4.5 1.5 4.5 1.7 5.5 2.5 5.5 3 5.3 3.3 5 3.7 4.7 3.8 4.8 3.7 9.5 8.3 9.2 8 5 3.7 5 3.8 5 3.5 5.5 3 5.5 3 6 2.2 11.8 4 12 4 5.7 2 6 2.3 5.5 2.2 5.8 3 13.5 7.3 7.5 3.5 3.5 1.5 3 1v.2l-5 26-7.8 17-3.7-1.7-4.5-2.3-4.5-2-9-4-9.5-3.7-9.3-3.5-9.5-3.3-9.5-3.7-9.2-3.8-9.3-4.2-15.5-8-15.5-8.3-15.7-8-15.8-7.7-14.7-6.8-14.3-6.5-14-6-13.7-5.5-14.5-5.7-15.3-5.5-16.7-5.8-18-6.2-7.8-2.8-8-3.2-8.2-3.8-8.5-4-17.8-9-18-9.5-9-4.5-9.2-4.5-9-4.2-9-4-8.8-3.5-8.5-3-8.2-2.3-4.3-1-4-.7-9.2-1.3-9.5-.7-9.5-.5-9.5-.5-18.8-.8-8.7-.5-8.5-1zm366-156 .3-1.3 2 .5 2.2.5h2l2-.2 2.3-.3 2-.5 2-.7 1.7-1 1.8-1 1.7-1.3 1.3-1.2 1.5-1.5 1-1.5.7-1.5.5-1.8.3-2 .7-13.2.8-15.5 3.5.2 245 86.8-3.3 11.7-44 35.3-7.5 6-3-3.8-3-2.5-3.5-2-3.2-2-3.5-1.7-7.5-3.3-7.5-3-15.3-5-7.5-2.7-7.2-2.8-14-6.2-14-6.5-13.5-6.8-13.5-7.2-12.8-6.8-12.7-6.7-6.5-3.5-6.5-3-6.5-3-6.5-2.8-6.5-2.2-6.5-2.3-6.8-2-6.5-1.7-13.2-3.5zm178 300.2h-.5z" fill="#f6cc4b"/><path d="m124.2 446.7 18.3-4.5.5 1.7 12.5 7 12.5 6.5 12.7 6 13 5.8 9 3.7 8.8 3.5 18 6.8 18 6 18.2 5.5 18.3 5.2 18.2 4.8 18.5 4.5 18.8 4 6.7 1.5 6.8 1 13.5 1.7 6.7.8 6.8 1 6.7 1.2 6.8 1.8 7.7 2.2 8 2.8 7.5 3.2 7.5 3.3 15 7 7.5 3.5 7.5 3.2 18 7.8 18 7.2 18 7.3 18.3 6.7 18.5 6.8 18.2 6.5 18.5 6.2 18.5 6 4.3.8-4 21-1.5 5.7-1.5 6-2.3-.5-18.2-6.2-18.5-6.3-18.5-6.5-18.3-6.5-18.2-7-18.3-7-18-7.5-17.7-7.5-7.5-3.2-7.5-3.5-15-7-7.5-3.5-7.8-3-7.7-2.8-7.8-2.5-6.7-1.5-6.8-1.2-6.7-1-6.8-1-13.7-1.8-6.8-1-6.7-1.2-18.5-4.3-18.5-4.2-18.5-4.8-18.3-5.2-18-5.5-18-6-9-3.3-9-3.5-9-3.5-8.7-3.7-9-4-8.8-4-8.7-4.3-8.8-4.5-8.5-4.5-8.5-4.7-8.5-5.3-8.2-5.2-14.8-9.5-1-4.8z" fill="#f6cc4b"/><path d="m75 506.4 1.7-35 2.5 3.5 3 3.8 3.3 3.5 3.5 3.5 3.5 3.5 3.7 3.2 8 6.5 8.3 6.3 8.5 5.7 8 5 7.7 4.5 4.5 2 6.3 3 7.7 3.8 8 4.2 3.8 2 3.5 2.3 3.2 2.2 2.8 2.3 2.2 2.2 1.5 2.3.5 1 .3 1v1l-.3 1-.2.5-.8.7-1.5 1-2.5.8-2.7.7-3.5.8-3.8.2-8 .8-8.2.2h-14.3l-4.2.3-7.3.7-7.5.5-7.2.5-7.3.3-7.2-.3-7.3-.7-7.2-1-3.5-.8-3.5-1 .7-16.2 4.8.2v.5l.5.3 1.2.7 2.3.5 3.2.5h4.3l4.7-.2 6-.5 6.5-.8 3.3-.5 3.5-.2 1.7-.5 1.5-.8 1.5-.7.3-.8.5-.5.2-1.2.3-1.5-.3-1.3-.5-1.2-.5-1.3-1-1.2-2-2.3-2.5-2-2.5-1.5-2.5-1.2-2-.8-3-1-2.5-1-2.5-1.2-2-1-2-1.3-1.7-1.5-2.8-2.5-2-2.2-1.7-2.3-1.3-1.5-.5-.5-.5-.2-1.2-.3-.5.3-.3.2-.5.8-.2 1.5zm503.5 229.3-3-1-3.5-1.5-7.5-3.5-13.5-7.3-5.8-3-5.5-2.2-6-2.3-5.7-2-12-4-11.8-4-6-2.2-5.5-3-5.5-3-5-3.5-5-3.8-5-3.7-9.2-8-9.5-8.3-4.8-3.7-4.7-3.8-5-3.7-5.3-3.3-5.5-3-5.5-2.5-4.5-1.7-4.5-1.5-9-2.8-9.5-2.2-9.5-2-19-3.8-9.5-1.7-9.2-1.8-8-1.7-7.5-2-7-2.8-3.5-1.2-3.5-1.8-3.3-1.7-3.2-1.8-3.3-2-3.2-2.2-3.3-2.5-3.2-2.5-3-3-3.3-3-5.7-5.3-6-5.2-5.5-5.3-2.5-2.7-2.3-2.3-1.7-2.5-1-2-.8-2v-1l.3-.7.2-.8.5-.7.8-.8 1-.7 1.2-.5 1.5-.5 3.8-.5 4-.5h4.2l4.8.2 4.7.5 5 .5 5 1 10.5 2 10.3 2.5 9.7 3 9 3 7.8 2.8 3.7 1.2 3.8 1 4 1 3.7.5 7.8 1 7.7.8 7.5.5 7.8.7 7.5 1.3 3.7.7 3.8 1 3.7 1.3 3.5 1.5 3.5 1.7 3.3 2 6.5 4.3 6.5 4.5 6.2 4.5 6.3 4.5 3.2 2 3.5 2 3.5 1.7 3.5 1.8 6.5 2.2 6.5 2 6.5 1.8 6.5 1.5 13.5 2.2 13.3 2.3 9 1.7 9 2.3 9 2.5 9 2.7 9 3.3 8.7 3.2 8.8 3.5 8.2 3.8 3.8.7-9 45.3-5.5 28.2z" fill="#faa41f"/><path d="m595.5 648.9-.5 6-.3 5.8.3 5.7.2 5.5.5 5 1 5 1 4.8 1.5 4.5 1.5 4 2 3.7 2 3.5 2.5 3 2.5 2.8 2.8 2.2 3 1.8 3.2 1.2 2.3.8 2.5.2 2.2.3h2.5l2.5-.5 2.5-.5 2.5-.8 2.5-1-23 24.5-3.5-1-2-.7-2-1-2-1-1.7-1-3.5-2.8-3.3-3.2-3-3.8-2.7-4.2-2.5-4.5-2-5-3-.5 9-45.3zm-383.3-223.7 42.5-10.3 3.8-1 16.7 6.8 17.3 6.5 17.5 6.2 17.7 6.3 35.3 12 17 6.2 16.5 6 31.5 12 31.5 12 31.7 11.8 31.5 12.2 13.3 5 13.2 4.8 13.5 4.7 13.5 4.5 13.5 5 6.5 2.8 6.5 2.7 6.5 3 6.3 3 6.2 3.5 6.3 3.5 1 1.3-18.3 14.5-1 5-409-147.3zm210.3-23.3-12.5-4.2-14-4.3-31.8-9.2h-1l2.3-6.8 2.2-5.5 2-4.5 1.3-1.7 1-1.8 5.2.5 43.8 13.8h3.7v12.5l.3 11z" fill="#f6cc4b"/><path d="m364.2 384.2 31.8 9.2 14 4.3 12.5 4.2 2.5-.2.7 11 .3 4.5.5 3.7.7 3 .8 2.5 1.2 2 1.3 2 1.5 1.5 1.7 1.3 2 1 1.8.7-.3 1.3-10-3.3-102.7-35 16.5-4 20.7-5 1.5-4.7z" fill="#f6cc4b"/><path d="m437.2 436.2 13.3 3.5 13.2 3.5 6.5 1.7 6.8 2 6.5 2.3 6.5 2.2 6.5 2.8 6.5 3 6.5 3 6.5 3.5 12.7 6.7 12.8 6.8 13.5 7.2 13.5 6.8 14 6.5 14 6.2 7.2 2.8 7.5 2.7 15.3 5 7.5 3 7.5 3.3 3.5 1.7 3.2 2 3.5 2 3 2.5 3 3.8-28.7 23-1-1.3-6.3-3.5-6.2-3.5-6.3-3-6.5-3-6.5-2.7-6.5-2.8-13.5-5-13.5-4.5-13.5-4.7-13.2-4.8-13.3-5-31.5-12.2-31.7-11.8-31.5-12-31.5-12-16.5-6-17-6.2-35.3-12-17.7-6.3-17.5-6.2-17.3-6.5-16.7-6.8 38.7-9.2 27.3-6.8 102.7 35zm172.5 139-5.2 27.5-4.3-.8-18.5-6-18.5-6.2-18.2-6.5-18.5-6.8-18.3-6.7-18-7.3-18-7.2-18-7.8-7.5-3.2-7.5-3.5-15-7-7.5-3.3-7.5-3.2-8-2.8-7.7-2.2-6.8-1.8-6.7-1.2-6.8-1-6.7-.8-13.5-1.7-6.8-1-6.7-1.5-18.8-4-18.5-4.5-18.2-4.8-18.3-5.2-18.2-5.5-18-6-18-6.8-8.8-3.5-9-3.7-13-5.8-12.7-6-12.5-6.5-12.5-7-.5-1.7 24-5.8 34.2-8.5z" fill="#f6cc4b"/><path d="m688 315.9-3.5 1.5-9.3 4.5-14 6-8.5 3.5-9 3.5h-1.7l.5-1.5v-2.5l-.3-1.2-.5-1.3-1-1.2-1-1-1.5-1-.7-.5-.8-.8-.5-.7-.2-1-.5-2.3.2-2.7.5-3 1-3.5 1.5-3.5 1.8-3.8 2-4 2.5-3.7 2.7-3.8 3-3.7 3-3.5 3.5-3.3 3.5-3 3.5-2.5 3.5-2 3.3-2 5.5-2.5 5-2 4.5-1.5 4.5-1.5 4.7-2 2.5-1.2 2.8-1.5 2.7-1.8 3.3-2.2 3.2-2.5 2.8.5.5 1.5.2 1v.7l-.2.8-.5.7-.3 1v1.3l.3 1.5.7 4.7.3 4.8v4.5l-.3 4.5-.5 4.2-1 4.3-1.2 4-1.5 3.7-1.8 3.5-2.2 3.3-2.3 3-2.5 2.5-2.7 2.2-3 2-3.3 1.5z" fill="#9e5c26"/><path d="m673.5 530.2-3-.8-3.3-.5-2-2.2 44-35.3 4.8-3.7-14.8 72.5-2-5.5-2.5-5-2.7-4.8-3-4-1.8-1.7-1.7-1.8-1.8-1.5-2-1.5-2-1.2-2-1.3-2-1zm-45 156 2.8.8h3l3-.5 2.8-.8 3-1.5 3-1.8 3-2.3 2.8-2.5 2.8-3 2.8-3.5 2.5-3.8 2.5-4 2.3-4.3 2-4.5 2-5 1.8-5 1.3-5.3 1.3-5.3.8-5 .5-4.8.3-4.8-.3-4.8-.3-4.3-.5-4.3-1-3.8-1.3-3.5-1.3-3.3-1.8-3-2-2.5-2-2-2.5-1.5-2.8-1.3-2.8-.8h-2.8l-3 .5-3 .8-2.8 1.5-3 1.8-3 2.3-2.8 2.5-2.8 3-2.8 3.5-2.5 3.8-2.5 4-2.3 4.3-2.3 4.8-1.8 4.8-1.8 5-1.5 5.3-1 5.3-.8 5-.5 4.8-.3 4.8v4.8l.5 4.3.5 4.3 1 3.8 1.3 3.8 1.3 3 1.8 3 2 2.5 2 2 2.5 1.8zm9.7 25.7-2.5 1-2.5.8-2.5.5-2.5.5h-2.5l-2.3-.3-2.5-.3-2.3-.8-3.3-1.3-3-1.8-2.8-2.3-2.5-2.8-2.5-3-2-3.5-2-3.8-1.5-4-1.5-4.5-1-4.8-1-5-.5-5-.3-5.5-.3-5.8.3-5.8.5-6 5-25.3.5-2.3 2.8-8 3-7.8 3.3-7 3.5-7 3.8-6.3 4.3-5.8 4-5.3 4.5-4.8 4.5-4 4.5-3.5 4.5-3 2.3-1 2.5-1 2.3-.8 2.3-.8 2.3-.3 2.3-.3h4.6l2.3.5 2 .5 2.8 1.3 2.8 1.3 2.3 1.8 2.3 2 2.3 2.5 2 2.5 1.8 3 1.5 3 1.5 3.3 1.3 3.8 1 3.8 1 4 .8 4 .5 4.5.5 4.5v4.5l-11.5 57.5-2.8 6-2.8 5.5-35.4 38z" fill="#f6cc4b"/><path d="m640 657.9 1 .3h1l1-.3 1-.5 1-.8 1.3-1 2-2.3 2.3-2.8 2-3.5 1.8-4 1.5-4.5 1.3-4.5.8-4.5.3-4-.3-3.5-.5-3.3-1-2.5-.5-1-.8-1-.8-.5-1-.5-1-.3-1 .3-1 .3-1 .3-1 .8-1.3 1-2 2.3-2.3 2.8-1.8 3.5-2 4-1.5 4.5-1 4.5-.8 4.5-.3 4v3.8l.5 3 1 2.5.5 1 .8 1 .8.5zm30.2-13.2-1.8 5-2 5-2 4.5-2.3 4.3-2.5 4-2.5 3.8-2.8 3.5-2.8 3-2.8 2.5-3 2.3-3 1.8-3 1.5-2.8.8-3 .5h-3l-2.8-.8-2.5-1-2.5-1.8-2-2-2-2.5-1.8-3-1.3-3-1.3-3.8-1-3.8-.5-4.3-.5-4.3v-4.8l.3-4.8.5-4.8.8-5 1-5.3 1.5-5.3 1.8-5 1.8-4.8 2.3-4.8 2.3-4.3 2.5-4 2.5-3.8 2.8-3.5 2.8-3 2.8-2.5 3-2.3 3-1.8 2.8-1.5 3-.8 3-.5h2.8l2.8.8 2.8 1.3 2.5 1.5 2 2 2 2.5 1.8 3 1.3 3.3 1.3 3.5 1 3.8.5 4.3.3 4.3.3 4.8-.3 4.8-.5 4.8-.8 5-1.3 5.3z" fill="#f6cc4b"/><path d="m640 657.9-1-.5-.8-.5-.7-1-.5-1-1-2.5-.5-3v-3.7l.2-4 .8-4.5 1-4.5 1.5-4.5 2-4 1.7-3.5 2.3-2.8 2-2.2 1.2-1 1-.8 1-.2 1-.3 1-.2 1 .2 1 .5.8.5.7 1 .5 1 1 2.5.5 3.3.3 3.5-.3 4-.7 4.5-1.3 4.5-1.5 4.5-1.7 4-2 3.5-2.3 2.7-2 2.3-1.2 1-1 .7-1 .5-1 .3h-1z" fill="#9e5c26"/><path d="m666 556.2-2-.5-2.3-.5h-4.5l-2.2.2-2.3.3-2.2.7-2.3.8-2.5 1-2.2 1-4.5 3-4.5 3.5-4.5 4-4.5 4.7-4 5.3-4.3 5.7-3.7 6.3-3.5 7-3.3 7-3 7.7-2.7 8-.5 2.3 4-21 5.2-27.5 1-5 18.3-14.5 28.7-23 7.5-6 2 2.2 3.3.5 3 .8 2.2.7 2 1 2 1.3 2 1.2 2 1.5 1.8 1.5 1.7 1.8 1.8 1.7 3 4 2.7 4.8 2.5 5 2 5.5-9.2 45.5v-4.5l-.5-4.5-.5-4.5-.8-4-1-4-1-3.8-1.2-3.7-1.5-3.3-1.5-3-1.8-3-2-2.5-2.2-2.5-2.3-2-2.2-1.7-2.8-1.3z" fill="#f6cc4b"/><path d="m466 350.2.7-13.8 1-13.5 1.3-12.2 1.5-11.5 1-5 1-4.8 1-4.2 1-3.8 1.2-3.2 1.3-2.8 1.5-2 1.2-1.2 12-7.8 12.3-7.7 13.2-8.5-2 12.7-1.7 13.3-2 15.7-.8 8.3-.7 8-.3 8-.2 7.5v6.7l.5 5.8.5 2.5.5 2.2.5 1.8.7 1.7 1.3 1.8 1.7 1.7 2 1.3 2.3 1 2.2.7 2.5.8 2.5.2 2.5.3h2.3l2.5-.3 2.2-.5 2-.5 2-.7 1.5-1 1.3-1 1-1h.7v3.2l.3 3 .5 2.5.5 1.8-6.8-.3-6.2-.5-11.5-1.5-10.3-1.5-9.5-1.5-8.7-1.2-4.3-.5h-12.2l-4.3.7-4.2.8z" fill="#9e5c26"/><path d="m426 302.9 1-28.2 1-23.5 1-22 1-1 3.5-3.5 6.7-6.3 11-9.5 16-13.2 21.8-17 13-10 15-11.3 16.7-12.5 18.8-13.5 9.7-6.7 16.8-11.3 44-29 59.5-38.7 96 96 1.5 3-3.8 1.7-3.2 2-3 2.3-2.8 2.5-2.2 2.7-2.3 3-2 3.3-1.7 3.2-3.3 7.3-3 7.5-3.2 7.5-3.3 7.2-7.5 15-4 8-4.2 8-4.8 7.8-2.2 3.7-2.5 3.5-2.8 3.5-2.7 3-2.8 3-3 2.8-3.2 2.5-3.3 2.2-2.7 1.8-2.8 1.5-2.5 1.2-4.7 2-4.5 1.5-4.5 1.5-5 2-5.5 2.5-3.3 2-3.5 2-3.5 2.5-3.5 3-3.5 3.3-3 3.5-3 3.7-2.7 3.8-2.5 3.7-2 4-1.8 3.8-1.5 3.5-1 3.5-.5 3-.2 2.7.5 2.3.2 1 .5.7.8.8.7.5 1.5 1 1 1 1 1.2.5 1.3.3 1.2v2.5l-.5 1.5-1 2.8-1.8 2.5-2 2.7-2 2.3-3.5 3.5-1.5 1.2-4.5 3-4.7 2.5-4.8 2-2.2.5-2.5.8-2.3.2-2.2.3h-2.3l-2.2-.3-2.3-.5-2.2-.7-2-1-2-1.3-.8-1-.7-1-.5-1.5-.3-2-1.2 1.8-1.5 1.7-2 1.5-2.3 1.5-2.2 1.5-2.8 1.3-3 1.2-3 .8-3.2.7-3.3.5h-3.5l-3.2-.2-3.5-.5-3.3-1-3.2-1.5-3-1.8-.8-.7-.7-1-.5-1.8-.5-2.5-.3-3v-3.2h-.7l-1 1-1.3 1-1.5 1-2 .7-2 .5-2.2.5-2.5.3h-2.3l-2.5-.3-2.5-.2-2.5-.8-2.2-.7-2.3-1-2-1.3-1.7-1.7-1.3-1.8-.7-1.7-.5-1.8-.5-2.2-.5-2.5-.5-5.8v-6.7l.2-7.5.3-8 .7-8 .8-8.3 2-15.7 1.7-13.3 2-12.7-13.2 8.5-12.3 7.7-12 7.8-1.2 1.2-1.5 2-1.3 2.8-1.2 3.2-1 3.8-1 4.2-1 4.8-1 5-1.5 11.5-1.3 12.2-1 13.5-.7 13.8-1.3 21.7-.7 20.8-.8 15.5-.7 13.2-.3 2-.5 1.8-.7 1.5-1 1.5-1.5 1.5-1.3 1.2-1.7 1.3-1.8 1-1.7 1-2 .7-2 .5-2.3.3-2 .2h-2l-2.2-.5-2-.5-1.8-.7-2-1-1.7-1.3-1.5-1.5-1.3-2-1.2-2-.8-2.5-.7-3-.5-3.7-.3-4.5-.7-11-.3-11v-34.3l.5-26.7z" fill="#ffeec8"/><path d="m346 305.4 8 9 3.2 3.5 3.3 2.8 2.7 2 1.5.7 1.3.8 1.5.2 1.5.3h1.5l1.5-.3 7-2 7.2-2.5 7-2.7 7.3-3 6.5-3.3 6.2-3 9.8-5.2 3 .2-.8 26.8-.5 26.7h-12.5l-11.5.5-5.7.5-5.8.8-5.5.7-5.5 1-1.7.8-1.5.7-1.5 1.3-1.5 1.2-1 1.8-1.3 1.7-2 4.5-2.2 5.5-2.3 6.8-1.5 4.7-20.7 5-54.3-75z" fill="#c8c8c8"/><path d="m324.5 397.9-27.3 6.8-.7-3-50.5-69.8-1-3.5 41.7-9.5 54.3 75z" fill="#c8c8c8"/><path d="m296.5 401.7.7 3-38.7 9.2-3.8 1-.2-.5-54.3-75.2v-.5l44.8-10.3 1 3.5z" fill="#c8c8c8"/><path d="m254.5 414.4.2.5-42.5 10.3-52.7-72.8-1-4.2 41.7-9.5v.5z" fill="#c8c8c8"/><path d="m200.7 427.9-34.2 8.5-.5-1.2-54.3-75.3-.2-1.2 47-10.5 1 4.2 52.7 72.8z" fill="#c8c8c8"/><path d="m65.2 369.2 46.3-10.5.2 1.2 54.3 75.3.5 1.2-24 5.8-18.3 4.5-53.2-73.5-4.8 1z" fill="#c8c8c8"/><path d="m83.7 504.2.5.2.5.5 1.3 1.5 1.7 2.3 2 2.2 2.8 2.5 1.7 1.5 2 1.3 2 1 2.5 1.2 2.5 1 3 1 2 .8 2.5 1.2 2.5 1.5 2.5 2 2 2.3 1 1.2.5 1.3.5 1.2.3 1.3-.3 1.5-.2 1.2-.5.5-.3.8-1.5.7-1.5.8-1.7.5-3.5.2-3.3.5-6.5.8-6 .5-4.7.2h-4.3l-3.2-.5-2.3-.5-1.2-.7-.5-.3v-.5l.2-.5.5-.5 1-.5 1.5-.2.5-.3.5-.5.5-1.2.3-1.8v-2l-.3-4.5-.2-3.5v-1.7l-.3-1.8-.7-4.5-.8-4.7-.2-2.3v-1.7l.2-1.5.5-.8.3-.2.5-.3z" fill="#9e5c26"/><path d="m71 373.2 53.2 73.5-20 4.7-22.5 5.5-1.7-9.2-1.3-7.3-12.5-66.2z" fill="#c8c8c8"/><g fill="none" stroke="#231f20" stroke-linecap="round" stroke-miterlimit="10"><path d="m665.2 526.7-7.5 6-28.7 23-18.3 14.5-1 5-5.2 27.5-4 21-5 25.2-2.5 13.5-9 45.3-5.5 28.2-5 26-4.5 24 46.2-49.5 23-24.5 34.8-37.2 4-4 1.5-7.5 11.5-57.5 9.2-45.5 14.8-72.5-4.8 3.7z" stroke-width="14"/><path d="m655.7 638.7-1.5 4.5-1.7 4-2 3.5-2.3 2.7-2 2.3-1.2 1-1 .7-1 .5-1 .3h-1l-1-.3-1-.5-.8-.5-.7-1-.5-1-1-2.5-.5-3v-3.7l.2-4 .8-4.5 1-4.5 1.5-4.5 2-4 1.7-3.5 2.3-2.8 2-2.2 1.2-1 1-.8 1-.2 1-.3 1-.2 1 .2 1 .5.8.5.7 1 .5 1 1 2.5.5 3.3.3 3.5-.3 4-.7 4.5z" stroke-width="7"/><path d="m670.2 644.7-1.7 5-2 5-2 4.5-2.3 4.2-2.5 4-2.5 3.8-2.7 3.5-2.8 3-2.7 2.5-3 2.2-3 1.8-3 1.5-2.8.7-3 .5h-3l-2.7-.7-2.5-1-2.5-1.8-2-2-2-2.5-1.8-3-1.2-3-1.3-3.7-1-3.8-.5-4.2-.5-4.3v-4.7l.3-4.8.5-4.7.7-5 1-5.3 1.5-5.2 1.8-5 1.7-4.8 2.3-4.7 2.2-4.3 2.5-4 2.5-3.7 2.8-3.5 2.7-3 2.8-2.5 3-2.3 3-1.7 2.7-1.5 3-.8 3-.5h2.8l2.7.8 2.8 1.2 2.5 1.5 2 2 2 2.5 1.7 3 1.3 3.3 1.2 3.5 1 3.7.5 4.3.3 4.2.2 4.8-.2 4.7-.5 4.8-.8 5-1.2 5.2z" stroke-width="14"/><path d="m638.2 711.9-2.5 1-2.5.8-2.5.5-2.5.5h-2.5l-2.2-.3-2.5-.2-2.3-.8-3.2-1.2-3-1.8-2.8-2.2-2.5-2.8-2.5-3-2-3.5-2-3.7-1.5-4-1.5-4.5-1-4.8-1-5-.5-5-.2-5.5-.3-5.7.3-5.8.5-6 .7-6.7 1.3-6.8 1.5-6 1.5-5.7.5-2.3 2.7-8 3-7.7 3.3-7 3.5-7 3.7-6.3 4.3-5.7 4-5.3 4.5-4.7 4.5-4 4.5-3.5 4.5-3 2.2-1 2.5-1 2.3-.8 2.2-.7 2.3-.3 2.2-.2h4.5l2.3.5 2 .5 2.7 1.2 2.8 1.3 2.2 1.7 2.3 2 2.2 2.5 2 2.5 1.8 3 1.5 3 1.5 3.3 1.2 3.7 1 3.8 1 4 .8 4 .5 4.5.5 4.5v9.5l-.3 5.2-.5 5.3-.5 5.2-1 5.5-1 5.3-1.5 5.7-1.5 5.5-2.5 7.5-2.7 7.3-2.8 6-2.7 5.5-3.8 6.7-4 6.3-4.2 5.5-4.3 5-4.5 4.5-4.7 3.7-2.3 1.8-2.5 1.5-2.2 1.2z" stroke-width="14"/><path d="m667.2 528.9 3.3.5 3 .8 2.2.7 2 1 2 1.3 2 1.2 2 1.5 1.8 1.5 1.7 1.8 1.8 1.7 3 4 2.7 4.8 2.5 5 2 5.5 1.3 4" stroke-width="13.75"/><path d="m615.2 736.4h-.5 1-.5l-3.5-1-2-.7-2-1-2-1-1.7-1-3.5-2.8-3.3-3.2-3-3.8-2.7-4.2-2.5-4.5-2-5m-509-267.5-1.3 30.7-1.7 35-1.3 32.3-.7 16.2-1.8 37.3 20.8 9.2 462.2 203.8 3.5 1.5m-136.7-428.5-43.8-13.8m341.3 117.3-6-2-245-86.8m142.2 182.3-409-147.3-2-.5" stroke-width="14"/><path d="m589.2 661.7-8.2-3.8-8.8-3.5-8.7-3.2-9-3.3-9-2.7-9-2.5-9-2.3-9-1.7-13.3-2.3-13.5-2.2-6.5-1.5-6.5-1.8-6.5-2-6.5-2.2-3.5-1.8-3.5-1.7-3.5-2-3.2-2-6.3-4.5-6.2-4.5-6.5-4.5-6.5-4.3-3.3-2-3.5-1.7-3.5-1.5-3.7-1.3-3.8-1-3.7-.7-7.5-1.3-7.8-.7-7.5-.5-7.7-.8-7.8-1-3.7-.5-4-1-3.8-1-3.7-1.2-7.8-2.8-9-3-9.7-3-10.3-2.5-10.5-2-5-1-5-.5-4.7-.5-4.8-.2h-4.2l-4 .5-3.8.5-1.5.5-1.2.5-1 .7-.8.8-.5.7-.2.8-.3.7v1l.8 2 1 2 1.7 2.5 2.3 2.3 2.5 2.7 5.5 5.3 6 5.2 5.7 5.3 3.3 3 3 3 3.2 2.5 3.3 2.5 3.2 2.2 3.3 2 3.2 1.8 3.3 1.7 3.5 1.8 3.5 1.2 7 2.8 7.5 2 8 1.7 9.2 1.8 9.5 1.7 19 3.8 9.5 2 9.5 2.2 9 2.8 4.5 1.5 4.5 1.7 5.5 2.5 5.5 3 5.3 3.3 5 3.7 4.7 3.8 4.8 3.7 9.5 8.3 9.2 8 5 3.7 5 3.8 5 3.5 5.5 3 5.5 3 6 2.2 11.8 4 12 4 5.7 2 6 2.3 5.5 2.2 5.8 3 13.5 7.3 7.5 3.5 3.5 1.5 3 1m-502.5-265.3.7 1 2.5 3.5 3 3.8 3.3 3.5 3.5 3.5 3.5 3.5 3.7 3.2 8 6.5 8.3 6.3 8.5 5.7 8 5 7.7 4.5 4.5 2 6.3 3 7.7 3.8 8 4.2 3.8 2 3.5 2.3 3.2 2.2 2.8 2.3 2.2 2.2 1.5 2.3.5 1 .3 1v1l-.3 1-.2.5-.8.7-1.5 1-2.5.8-2.7.7-3.5.8-3.8.2-8 .8-8.2.2h-14.3l-4.2.3-7.3.7-7.5.5-7.2.5-7.3.3-7.2-.3-7.3-.7-7.2-1-3.5-.8-3.5-1-3-.7m497.5 201.5-17-5.5-16.8-5.5-8.2-2.8-8-3.2-8.3-3.5-8.2-3.8-33-16-32.8-16.5-26.7-13.7-13.3-6.8-13.5-6.5-13.5-6.5-13.5-6-13.7-5.7-13.8-5.5-16-6.3-16-6.7-15.5-7.3-15.7-7-15.8-7.2-15.7-7.3-15.8-6.5-16-6.5-6.5-2.2-6.2-1.8-6.5-1.7-6.3-1.5-6.5-1.3-6.2-1-12.8-1.7-12.7-1.3-12.8-1.2-13-1.3-13.2-1.5-6-1-6.8-1-3.5-.5-3-.7-2.5-.8-2-.7" stroke-width="14"/><path d="m562 777.2-4.5-2.3-4.5-2-9-4-9.5-3.7-9.3-3.5-9.5-3.3-9.5-3.7-9.2-3.8-9.3-4.2-15.5-8-15.5-8.3-15.7-8-15.8-7.7-14.7-6.8-14.3-6.5-14-6-13.7-5.5-14.5-5.7-15.3-5.5-16.7-5.8-18-6.2-7.8-2.8-8-3.2-8.2-3.8-8.5-4-17.8-9-18-9.5-9-4.5-9.2-4.5-9-4.2-9-4-8.8-3.5-8.5-3-8.2-2.3-4.3-1-4-.7-9.2-1.3-9.5-.7-9.5-.5-9.5-.5-18.8-.8-8.7-.5-8.5-1m503.2 33.5-18.2-6.2-18.5-6.3-18.5-6.5-18.3-6.5-18.2-7-18.3-7-18-7.5-17.7-7.5-7.5-3.2-7.5-3.5-15-7-7.5-3.5-7.8-3-7.7-2.8-7.8-2.5-6.7-1.5-6.8-1.2-6.7-1-6.8-1-13.7-1.8-6.8-1-6.7-1.2-18.5-4.3-18.5-4.2-18.5-4.8-18.3-5.2-18-5.5-18-6-9-3.3-9-3.5-9-3.5-8.7-3.7-9-4-8.8-4-8.7-4.3-8.8-4.5-8.5-4.5-8.5-4.7-8.5-5.3-8.2-5.2-14.8-9.5m495 145.7-18.5-6-18.5-6.2-18.2-6.5-18.5-6.8-18.3-6.7-18-7.3-18-7.2-18-7.8-7.5-3.2-7.5-3.5-15-7-7.5-3.3-7.5-3.2-8-2.8-7.7-2.2-6.8-1.8-6.7-1.2-6.8-1-6.7-.8-13.5-1.7-6.8-1-6.7-1.5-18.8-4-18.5-4.5-18.2-4.8-18.3-5.2-18.2-5.5-18-6-18-6.8-8.8-3.5-9-3.7-13-5.8-12.7-6-12.5-6.5-12.5-7m485 110.5-6.3-3.5-6.2-3.5-6.3-3-6.5-3-6.5-2.7-6.5-2.8-13.5-5-13.5-4.5-13.5-4.7-13.2-4.8-13.3-5-31.5-12.2-31.7-11.8-31.5-12-31.5-12-16.5-6-17-6.2-35.3-12-17.7-6.3-17.5-6.2-17.3-6.5-16.7-6.8-1.8-.5m398 115.5-3-2.5-3.5-2-3.2-2-3.5-1.7-7.5-3.3-7.5-3-15.3-5-7.5-2.7-7.2-2.8-14-6.2-14-6.5-13.5-6.8-13.5-7.2-12.8-6.8-12.7-6.7-6.5-3.5-6.5-3-6.5-3-6.5-2.8-6.5-2.2-6.5-2.3-6.8-2-6.5-1.7-13.2-3.5-13.3-3.5-10-3.3-102.7-35-1.3-.2m99.3 4.2-12.5-4.2-14-4.3-31.8-9.2m321.3 117-4.3-2-4.2-2-9-3.5-9-2.8-9.3-2.7-18.7-5-9.3-2.8-9-3-16-6.2-16-6.5-15.7-6.5-15.8-7-10.5-4.5-10.5-4.3-21-8-21.2-8-21-7.7" stroke-width="14"/><path d="m81 506.7v1.7l.2 2.3.8 4.7.7 4.5.3 1.8v1.7l.2 3.5.3 4.5v2l-.3 1.8-.5 1.2-.5.5-.5.3-1.5.2-1 .5-.5.5-.2.5v.5l.5.3 1.2.7 2.3.5 3.2.5h4.3l4.7-.2 6-.5 6.5-.8 3.3-.5 3.5-.2 1.7-.5 1.5-.8 1.5-.7.3-.8.5-.5.2-1.2.3-1.5-.3-1.3-.5-1.2-.5-1.3-1-1.2-2-2.3-2.5-2-2.5-1.5-2.5-1.2-2-.8-3-1-2.5-1-2.5-1.2-2-1-2-1.3-1.7-1.5-2.8-2.5-2-2.2-1.7-2.3-1.3-1.5-.5-.5-.5-.2-1.2-.3-.5.3-.3.2-.5.8z" stroke-width="7"/><path d="m643.7 334.9 9-3.5 8.5-3.5 14-6 9.3-4.5 3.5-1.5 3.2-1 3.3-1.5 3-2 2.7-2.2 2.5-2.5 2.3-3 2.2-3.3 1.8-3.5 1.5-3.7 1.2-4 1-4.3.5-4.2.3-4.5v-4.5l-.3-4.8-.7-4.7-.3-1.5v-1.3l.3-1 .5-.7.2-.8v-.7l-.2-1-.5-1.5m-244.5 96.5 4.2-.8 4.3-.7h12.2l4.3.5 8.7 1.2 9.5 1.5 10.3 1.5 11.5 1.5 6.2.5 6.8.3h3.7m-469.7 92-1.3-7.3-12.5-66.2-1-5 46.3-10.5 47-10.5 41.7-9.5 44.8-10.3 41.7-9.5 59.3-13.5 8 9 3.2 3.5 3.3 2.8 2.7 2 1.5.7 1.3.8 1.5.2 1.5.3h1.5l1.5-.3 7-2 7.2-2.5 7-2.7 7.3-3 6.5-3.3 6.2-3 9.8-5.2m-.5 53.7h-10.3l-11.5.5-5.7.5-5.8.8-5.5.7-5.5 1-1.7.8-1.5.7-1.5 1.3-1.5 1.2-1 1.8-1.3 1.7-2 4.5-2.2 5.5-2.3 6.8-1.5 4.7-20.7 5-16.5 4-27.3 6.8-38.7 9.2-3.8 1-42.5 10.3-11.5 2.7-34.2 8.5-24 5.8-18.3 4.5-20 4.7-22.5 5.5-1.7-9.2m206.7-128.8 54.3 75m-95-62 50.5 69.8m-96.3-62.5 54.3 75.2" stroke-width="14"/><path d="m159.5 352.4 52.7 72.8 1.5 2.2m-102-67.5 54.3 75.3m-95-62 53.2 73.5 1 1.5m557.3-402.5-59.5 38.7-44 29-16.8 11.3-9.7 6.7-18.8 13.5-16.7 12.5-15 11.3-13 10-21.8 17-16 13.2-11 9.5-6.7 6.3-3.5 3.5-1 1-1 22-1 23.5-1 28.2-.8 26.8-.5 26.7v34.3l.3 11 .7 11 .3 4.5.5 3.7.7 3 .8 2.5 1.2 2 1.3 2 1.5 1.5 1.7 1.3 2 1 1.8.7 2 .5 2.2.5h2l2-.2 2.3-.3 2-.5 2-.7 1.7-1 1.8-1 1.7-1.3 1.3-1.2 1.5-1.5 1-1.5.7-1.5.5-1.8.3-2 .7-13.2.8-15.5.7-20.8 1.3-21.7.7-13.8 1-13.5 1.3-12.2 1.5-11.5 1-5 1-4.8 1-4.2 1-3.8 1.2-3.2 1.3-2.8 1.5-2 1.2-1.2 12-7.8 12.3-7.7 13.2-8.5-2 12.7-1.7 13.3-2 15.7-.8 8.3-.7 8-.3 8-.2 7.5v6.7l.5 5.8.5 2.5.5 2.2.5 1.8.7 1.7 1.3 1.8 1.7 1.7 2 1.3 2.3 1 2.2.7 2.5.8 2.5.2 2.5.3h2.3l2.5-.3 2.2-.5 2-.5 2-.7 1.5-1 1.3-1 1-1" stroke-width="14"/><path d="m560.5 252.4-2.5 10.5-2.5 11.5-3 14-2.8 15.3-2.5 15.2-1 7.3-1 7-.5 6.5v8.7l.3 3 .5 2.5.5 1.8.7 1 .8.7 3 1.8 3.2 1.5 3.3 1 3.5.5 3.2.2h3.5l3.3-.5 3.2-.7 3-.8 3-1.2 2.8-1.3 2.2-1.5 2.3-1.5 2-1.5 1.5-1.7 1.2-1.8m18.8-83-3.5 10-3.3 11-3.5 13-3.7 14-1.5 7-1.5 6.8-1 6.2-.8 5.8-.2 5 .2 4.2.3 2 .5 1.5.7 1 .8 1 2 1.3 2 1 2.2.7 2.3.5 2.2.3h2.3l2.2-.3 2.3-.2 2.5-.8 2.2-.5 4.8-2 4.7-2.5 4.5-3 1.5-1.2 3.5-3.5 2-2.3 2-2.7 1.8-2.5 1-2.8.5-1.5v-2.5l-.3-1.2-.5-1.3-1-1.2-1-1-1.5-1-.7-.5-.8-.8-.5-.7-.2-1-.5-2.3.2-2.7.5-3 1-3.5 1.5-3.5 1.8-3.8 2-4 2.5-3.7 2.7-3.8 3-3.7 3-3.5 3.5-3.3 3.5-3 3.5-2.5 3.5-2 3.3-2 5.5-2.5 5-2 4.5-1.5 4.5-1.5 4.7-2 2.5-1.2 2.8-1.5 2.7-1.8 3.3-2.2 3.2-2.5 3-2.8 2.8-3 2.7-3 2.8-3.5 2.5-3.5 2.2-3.7 4.8-7.8 4.2-8 4-8 7.5-15 3.3-7.2 3.2-7.5 3-7.5 3.3-7.3 1.7-3.2 2-3.3 2.3-3 2.2-2.7 2.8-2.5 3-2.3 3.2-2 3.8-1.7 4.2-1.3m-209.7 616.3-1 2.2-7.8 17-9.2 20.8" stroke-width="14"/></g></svg>