<svg height="850.394" viewBox="0 0 850.394 850.394" width="850.394" xmlns="http://www.w3.org/2000/svg"><path d="m616.723 553.994h136.387v136.381h-136.387zm-253.907 0h136.387v136.381h-136.387z" fill="none" stroke="#231f20" stroke-width="21"/><path d="m116.322 553.994h136.387v136.381h-136.387z" fill="none"/><g fill="#5668af"><circle cx="116.322" cy="663.099" r="11.376"/><circle cx="116.322" cy="635.822" r="11.376"/><circle cx="116.322" cy="608.546" r="11.376"/><circle cx="116.322" cy="581.27" r="11.376"/><circle cx="143.6" cy="553.994" r="11.376"/><circle cx="170.877" cy="553.994" r="11.376"/><circle cx="198.155" cy="553.994" r="11.376"/><circle cx="225.432" cy="553.994" r="11.376"/><circle cx="252.709" cy="581.271" r="11.376"/><circle cx="252.709" cy="608.547" r="11.376"/><circle cx="252.709" cy="635.823" r="11.376"/><circle cx="252.709" cy="663.1" r="11.376"/><circle cx="225.432" cy="690.375" r="11.376"/><circle cx="198.154" cy="690.375" r="11.376"/><circle cx="170.876" cy="690.375" r="11.376"/><circle cx="143.599" cy="690.375" r="11.376"/><circle cx="116.323" cy="553.994" r="11.376"/><circle cx="252.709" cy="553.994" r="11.376"/><circle cx="252.708" cy="690.375" r="11.376"/><circle cx="116.322" cy="690.375" r="11.376"/></g><path d="m184.516 157.333v307.437" fill="#fff" stroke="#231f20" stroke-width="28"/><path d="m274.431 364.255-90.251 102.467-90.217-102.632" fill="none" stroke="#231f20" stroke-width="28"/><path d="m0 0h850.394v850.394h-850.394z" fill="none"/></svg>