<svg height="850.89" viewBox="0 0 850.89 850.89" width="850.89" xmlns="http://www.w3.org/2000/svg"><path d="m595.12 480.01-20.63 20.66-20.68-20.64 20.64-20.66zm-148.09 150.4-20.62 20.65-20.67-20.63 20.64-20.66zm-150.65-150.52-20.64 20.67-20.66-20.64 20.64-20.67zm149.29-150.53-20.65 20.65-20.66-20.63 20.64-20.67z" fill="#6ebe44"/><path d="m611.44 479.38-186.27 186.46-186.45-186.27 186.27-186.46zm-36.95 21.29 20.63-20.66-20.67-20.64-20.641 20.66zm-148.08 150.39 20.62-20.649-20.65-20.641-20.64 20.66zm-1.39-301.05 20.65-20.65-20.67-20.65-20.64 20.67zm-149.28 150.55 20.64-20.67-20.66-20.64-20.64 20.67z" fill="#6ebe44"/><path d="m791.89 313.84-367.15 367.15-368.74-366.89c82.87-82.88 222.22-144.63 362.32-145.79 143.84-1.19 288.49 60.44 373.57 145.53zm-366.72 352 186.27-186.46-186.45-186.27-186.27 186.46z" fill="#f6cc4b"/><g fill="none"><g><path d="m425.17 665.84-186.45-186.27 186.27-186.46 186.45 186.27z" stroke="#231f20" stroke-width="21"/><g stroke-width="19.909"><path d="m425.02 350.01-20.66-20.63 20.64-20.67 20.67 20.65z" stroke="#231f20"/><path d="m574.49 500.67-20.68-20.64 20.64-20.66 20.67 20.64z" stroke="#ec008c"/><path d="m275.74 500.56-20.66-20.64 20.64-20.67 20.66 20.64zm150.67 150.5-20.67-20.63 20.64-20.66 20.65 20.64z" stroke="#231f20"/></g><path d="m56 314.1c82.87-82.88 222.22-144.63 362.32-145.79 143.84-1.19 288.49 60.44 373.57 145.53l-367.15 367.15z" stroke="#231f20" stroke-width="14"/></g><path d="m.25.25h850.394v850.394h-850.394z"/></g></svg>