<svg height="850.89" viewBox="0 0 850.89 850.89" width="850.89" xmlns="http://www.w3.org/2000/svg"><path d="m.25.25h850.394v850.394h-850.394z" fill="none"/><path d="m549.174 375.109c30.016 29.304 45.023 70.81 45.023 124.502 0 131.068-67.086 196.599-201.268 196.599-55.631 0-104.174-15.398-145.646-46.202l39.933-75.361c40.897 29.289 76.013 43.93 105.338 43.93 64.824 0 97.236-36.37 97.236-109.127 0-34.961-7.338-60.485-22.013-76.558-14.676-16.072-39.259-24.116-73.759-24.116-31.156 0-61.538 14.012-91.146 42.036l-39.783-23.578v-255.525h304.901v77.634h-208.396v92.357c17.004-7.036 37.362-10.558 61.072-10.558 55.647.001 98.483 14.656 128.508 43.967z" fill="#50264b"/><path d="m.25.25h850.394v850.394h-850.394z" fill="none"/></svg>