<svg height="850.394" viewBox="0 0 850.394 850.394" width="850.394" xmlns="http://www.w3.org/2000/svg"><path d="m162.61 114.42v670.96h-39.49l-1.12-670.61c5.8 2.59 12.62 4.08 19.92 4.08 7.62 0 14.73-1.63 20.69-4.43z" fill="#c8c8c8"/><path d="m748.18 177.46v342.71h-579.62l-3.49-379.83h583.11zm-166.86 156.19 8.37-8.16-11.57-1.68-5.17-10.49-5.181 10.49-11.569 1.68 8.37 8.16-1.971 11.53 10.351-5.44 10.34 5.44zm-15-60.53 8.37-8.16-11.57-1.68-5.17-10.49-5.181 10.49-11.569 1.68 8.37 8.16-1.971 11.53 10.351-5.44 10.34 5.44zm0 118 8.37-8.16-11.57-1.68-5.17-10.49-5.181 10.49-11.569 1.68 8.37 8.16-1.971 11.53 10.351-5.44 10.34 5.44zm-40 42 8.37-8.16-11.57-1.68-5.17-10.49-5.181 10.49-11.569 1.68 8.37 8.16-1.971 11.53 10.351-5.44 10.34 5.44zm-3.95-203.2 8.38-8.17-11.58-1.68-5.17-10.48-5.17 10.48-11.58 1.68 8.38 8.17-1.979 11.52 10.349-5.44 10.35 5.44zm-54 223.26 8.38-8.16-11.58-1.68-5.17-10.49-5.17 10.49-11.58 1.68 8.38 8.16-1.98 11.52 10.35-5.44 10.35 5.44zm-4-238 8.38-8.16-11.58-1.68-5.17-10.49-5.17 10.49-11.58 1.68 8.38 8.16-1.979 11.52 10.35-5.44 10.35 5.44zm-56.05 225.94 8.37-8.16-11.57-1.68-5.17-10.49-5.18 10.49-11.57 1.68 8.37 8.16-1.97 11.53 10.35-5.44 10.34 5.44zm-6-214 8.37-8.16-11.57-1.68-5.17-10.49-5.18 10.49-11.57 1.68 8.37 8.16-1.97 11.53 10.35-5.44 10.34 5.44zm-40 170 8.37-8.16-11.57-1.68-5.17-10.49-5.18 10.49-11.57 1.68 8.37 8.16-1.97 11.53 10.35-5.44 10.34 5.44zm-4-124 8.37-8.16-11.57-1.68-5.17-10.49-5.18 10.49-11.57 1.68 8.37 8.16-1.97 11.53 10.35-5.44 10.34 5.44zm-14 62 8.37-8.16-11.57-1.68-5.17-10.49-5.18 10.49-11.57 1.68 8.37 8.16-1.97 11.53 10.35-5.44 10.34 5.44z" fill="#394ea1"/><path d="m589.69 325.49-8.37 8.16 1.97 11.53-10.34-5.44-10.35 5.44 1.97-11.53-8.37-8.16 11.57-1.68 5.18-10.49 5.17 10.49zm-15-60.53-8.37 8.16 1.97 11.53-10.34-5.44-10.35 5.44 1.97-11.53-8.37-8.16 11.57-1.68 5.18-10.49 5.17 10.49zm0 118-8.37 8.16 1.97 11.53-10.34-5.44-10.35 5.44 1.97-11.53-8.37-8.16 11.57-1.68 5.18-10.49 5.17 10.49zm-40 42-8.37 8.16 1.97 11.53-10.34-5.44-10.35 5.44 1.97-11.53-8.37-8.16 11.57-1.68 5.18-10.49 5.17 10.49zm-3.94-203.21-8.38 8.17 1.98 11.52-10.35-5.44-10.35 5.44 1.98-11.52-8.38-8.17 11.58-1.68 5.17-10.48 5.17 10.48zm-54 223.27-8.38 8.16 1.98 11.52-10.35-5.44-10.35 5.44 1.98-11.52-8.38-8.16 11.58-1.68 5.17-10.49 5.17 10.49zm-4-238-8.38 8.16 1.98 11.52-10.35-5.44-10.35 5.44 1.98-11.52-8.38-8.16 11.58-1.68 5.17-10.49 5.17 10.49zm-56.06 225.94-8.37 8.16 1.97 11.53-10.34-5.44-10.35 5.44 1.97-11.53-8.37-8.16 11.57-1.68 5.18-10.49 5.17 10.49zm-6-214-8.37 8.16 1.97 11.53-10.34-5.44-10.35 5.44 1.97-11.53-8.37-8.16 11.57-1.68 5.18-10.49 5.17 10.49zm-40 170-8.37 8.16 1.97 11.53-10.34-5.44-10.35 5.44 1.97-11.53-8.37-8.16 11.57-1.68 5.18-10.49 5.17 10.49zm-4-124-8.37 8.16 1.97 11.53-10.34-5.44-10.35 5.44 1.97-11.53-8.37-8.16 11.57-1.68 5.18-10.49 5.17 10.49zm-14 62-8.37 8.16 1.97 11.53-10.34-5.44-10.35 5.44 1.97-11.53-8.37-8.16 11.57-1.68 5.18-10.49 5.17 10.49z" fill="#fbed24"/><path d="m122 114.77c-10.99-4.89-18.33-13.72-18.33-23.8 0-15.4 17.13-27.88 38.25-27.88 21.13 0 38.26 12.48 38.26 27.88 0 9.84-7 18.49-17.57 23.45-5.96 2.8-13.07 4.43-20.69 4.43-7.3 0-14.12-1.49-19.92-4.08z" fill="#c8c8c8"/><g fill="none"><g stroke="#231f20"><path d="m165.07 140.34h583.11v379.83h-579.62m-46.56-405.4c-10.99-4.89-18.33-13.72-18.33-23.8 0-15.4 17.13-27.88 38.25-27.88 21.13 0 38.26 12.48 38.26 27.88 0 9.84-7 18.49-17.57 23.45-5.96 2.8-13.07 4.43-20.69 4.43-7.3 0-14.12-1.49-19.92-4.08z" stroke-width="21"/><path d="m122 114v.77l1.12 670.61m39.49-672.78v672.78" stroke-width="21"/><path d="m744.76 179.39 3.42-1.93 2.01-1.14" stroke-width="14"/><path d="m456 194.85 5.17 10.49 11.58 1.68-8.38 8.16 1.98 11.52-10.35-5.44-10.35 5.44 1.98-11.52-8.38-8.16 11.58-1.68zm4 238 5.17 10.49 11.58 1.68-8.38 8.16 1.98 11.52-10.35-5.44-10.35 5.44 1.98-11.52-8.38-8.16 11.58-1.68zm112.95-119.53 5.17 10.49 11.57 1.68-8.37 8.16 1.97 11.53-10.34-5.44-10.35 5.44 1.97-11.53-8.37-8.16 11.57-1.68zm-237 1.47 5.17 10.49 11.57 1.68-8.37 8.16 1.97 11.53-10.34-5.44-10.35 5.44 1.97-11.53-8.37-8.16 11.57-1.68zm18 62 5.17 10.49 11.57 1.68-8.37 8.16 1.97 11.53-10.34-5.44-10.35 5.44 1.97-11.53-8.37-8.16 11.57-1.68zm46 44 5.17 10.49 11.57 1.68-8.37 8.16 1.97 11.53-10.34-5.44-10.35 5.44 1.97-11.53-8.37-8.16 11.57-1.68zm-50-168 5.17 10.49 11.57 1.68-8.37 8.16 1.97 11.53-10.34-5.44-10.35 5.44 1.97-11.53-8.37-8.16 11.57-1.68zm44-46 5.17 10.49 11.57 1.68-8.37 8.16 1.97 11.53-10.34-5.44-10.35 5.44 1.97-11.53-8.37-8.16 11.57-1.68zm120.05 2.8 5.17 10.48 11.58 1.68-8.38 8.17 1.98 11.52-10.35-5.44-10.35 5.44 1.98-11.52-8.38-8.17 11.58-1.68zm43.95 43.2 5.17 10.49 11.57 1.68-8.37 8.16 1.97 11.53-10.34-5.44-10.35 5.44 1.97-11.53-8.37-8.16 11.57-1.68zm-40 160 5.17 10.49 11.57 1.68-8.37 8.16 1.97 11.53-10.34-5.44-10.35 5.44 1.97-11.53-8.37-8.16 11.57-1.68zm40-42 5.17 10.49 11.57 1.68-8.37 8.16 1.97 11.53-10.34-5.44-10.35 5.44 1.97-11.53-8.37-8.16 11.57-1.68z" stroke-width="4"/></g><path d="m0 0h850.394v850.394h-850.394z"/></g></svg>