<svg height="850.394" viewBox="0 0 850.394 850.394" width="850.394" xmlns="http://www.w3.org/2000/svg"><path d="m162.61 114.42v670.96h-39.49l-1.12-670.61c5.8 2.59 12.62 4.08 19.92 4.08 7.62 0 14.73-1.63 20.69-4.43z" fill="#c8c8c8"/><path d="m254 518v2.17h-85.44l-3.49-379.83h88.93z" fill="#fff"/><path d="m437.98 450.52c90.56 4.181 233-158.75 8.02-258.52 41.09 46.22 186.13 121.7-8 258zm310.2-310.18v379.83h-494.18v-379.83zm-268.59 184.7 23.54-22.95-32.53-4.72-14.55-29.48-14.54 29.48-32.54 4.72 23.54 22.95-5.55 32.4 29.09-15.3 29.101 15.3z" fill="#ed1e29"/><path d="m503.13 302.09-23.54 22.95 5.56 32.4-29.1-15.3-29.09 15.3 5.55-32.4-23.54-22.95 32.54-4.72 14.54-29.48 14.55 29.48z" fill="#fff"/><path d="m438 450c194.13-136.3 49.09-211.78 8-258 224.98 99.77 82.54 262.7-8.02 258.52z" fill="#fff"/><path d="m162.61 114.42c-5.96 2.8-13.07 4.43-20.69 4.43-7.3 0-14.12-1.49-19.92-4.08-10.99-4.89-18.33-13.72-18.33-23.8 0-15.4 17.13-27.88 38.25-27.88 21.13 0 38.26 12.48 38.26 27.88 0 9.84-7 18.49-17.57 23.45z" fill="#c8c8c8"/><g fill="none"><g stroke="#231f20"><path d="m165.07 140.34h583.11v379.83h-579.62m-46.56-405.4c-10.99-4.89-18.33-13.72-18.33-23.8 0-15.4 17.13-27.88 38.25-27.88 21.13 0 38.26 12.48 38.26 27.88 0 9.84-7 18.49-17.57 23.45-5.96 2.8-13.07 4.43-20.69 4.43-7.3 0-14.12-1.49-19.92-4.08z" stroke-width="21"/><path d="m122 114v.77l1.12 670.61m39.49-672.78v672.78" stroke-width="21"/><path d="m254 138v380" stroke-width="14"/><g stroke-width="7"><path d="m456.05 342.14-29.09 15.3 5.55-32.4-23.54-22.95 32.54-4.72 14.54-29.48 14.55 29.48 32.53 4.72-23.54 22.95 5.56 32.4z"/><path d="m446 192c224.98 99.77 82.54 262.7-8.02 258.52a64.712 64.712 0 0 1 -5.98-.52m14-258c41.09 46.22 186.13 121.7-8 258"/></g></g><path d="m0 0h850.394v850.394h-850.394z"/></g></svg>