<svg height="850.89" viewBox="0 0 850.89 850.89" width="850.89" xmlns="http://www.w3.org/2000/svg"><path d="m272.08 334.6c0-74.27 60.21-134.48 134.48-134.48 74.26 0 134.47 60.21 134.47 134.48 0 1.22-.021 2.44-.05 3.65h-268.85c-.03-1.21-.05-2.43-.05-3.65z" fill="#ed1e29"/><path d="m272.13 338.25h268.85c-1.931 72.57-61.381 130.82-134.42 130.82-73.05 0-132.5-58.25-134.43-130.82zm476.12 0h-207.27c.029-1.21.05-2.43.05-3.65 0-74.27-60.21-134.48-134.47-134.48-74.27 0-134.48 60.21-134.48 134.48 0 1.22.02 2.44.05 3.65h-104.99l-1.82-197.66h583.11v197.66z" fill="#fff"/><path d="m748.43 338.25v182.17h-579.62l-1.67-182.17h104.99c1.93 72.57 61.38 130.82 134.43 130.82 73.04 0 132.49-58.25 134.42-130.82z" fill="#ed1e29"/><path d="m103.92 91.22c0-15.4 17.13-27.88 38.25-27.88 21.13 0 38.26 12.48 38.26 27.88 0 9.84-7 18.49-17.57 23.45-5.96 2.8-13.07 4.43-20.69 4.43-7.3 0-14.12-1.49-19.92-4.08-10.99-4.89-18.33-13.72-18.33-23.8z" fill="#c8c8c8"/><path d="m122.25 115.02c5.8 2.59 12.62 4.08 19.92 4.08 7.62 0 14.73-1.63 20.69-4.43v670.96h-39.49z" fill="#c8c8c8"/><g fill="none"><g stroke="#231f20"><path d="m165.32 140.59h583.11v379.83h-579.62m-46.56-405.4c-10.99-4.89-18.33-13.72-18.33-23.8 0-15.4 17.13-27.88 38.25-27.88 21.13 0 38.26 12.48 38.26 27.88 0 9.84-7 18.49-17.57 23.45-5.96 2.8-13.07 4.43-20.69 4.43-7.3 0-14.12-1.49-19.92-4.08z" stroke-width="21"/><path d="m122.25 114.25v.77l1.12 670.61m39.49-672.78v672.78" stroke-width="21"/><path d="m162.25 338.25h586m-476.12 0c-.03-1.21-.05-2.43-.05-3.65 0-74.27 60.21-134.48 134.48-134.48 74.26 0 134.47 60.21 134.47 134.48 0 1.22-.021 2.44-.05 3.65-1.931 72.57-61.381 130.82-134.42 130.82-73.05 0-132.5-58.25-134.43-130.82z" stroke-width="14"/></g><path d="m.25.25h850.394v850.394h-850.394z"/></g></svg>