<svg height="850.394" viewBox="0 0 850.394 850.394" width="850.394" xmlns="http://www.w3.org/2000/svg"><path d="m162.22 520.04v260.04l-39.56 1.72-.66-665.8.54-1.28c5.59 2.34 12.06 3.67 18.96 3.67 7.63 0 14.75-1.63 20.72-4.44z" fill="#c8c8c8"/><path d="m162.22 520.04v-380.13h586.45v380.41l-582.67-.28zm149.21-195.28.71-.17c-.59-8.44-.88-18.91-.88-18.91-2.03-4.94-7.56-12.21-9.01-12.21s-4.07 14.84-1.75 17.16c2.07 2.06 5.82 7.27 10.93 14.13zm30.18 61.6.3-.16c-.03-.04-.05-.09-.07-.13l1.2.11c2.22-3.03 3.51-2.67 13.36-7.15 5.03-2.28 9.33-13.86 6.2-14.14-1.98-.17-5.61 1.58-8.39 3.69l-5.37-2.35c5.03-2.28 9.33-13.86 6.21-14.14-3.13-.27-10.3 4.23-11.89 7.34-1.53 3.01-8.34 11.61-8.76 12.14-.14-.28-.28-.55-.42-.83-2.54.08-11.39.3-14.32-.19-3.45-.58-11.34 2.52-12.97 5.19-1.63 2.68 10.24 6.1 15.05 3.41 9.05-5.03 9.88-6.39 13.22-6.48.15.28.29.56.43.84 2.01 3.93 3.91 7.63 5.58 10.87l-.51.02s-11.57.41-15-.17c-3.45-.58-11.34 2.52-12.98 5.19-1.62 2.68 10.24 6.1 15.06 3.42 9.77-5.43 9.96-6.58 14.07-6.48zm-20.57-41.23.03.06-.6.3s-11.26-2.68-14.42-4.15c-3.17-1.48-11.6-.6-13.88 1.55-2.29 2.15 8.24 8.61 13.6 7.3 10.86-2.64 11.35-3.7 15.28-2.5l1.02-.5c.09.19.18.37.28.56l1.6-.79c1.38-3.87 2.52-3.64 11.1-10.8 4.24-3.53 5.3-15.84 2.22-15.28-3.09.57-8.81 6.82-9.5 10.24-.57 2.78-3.67 10.33-4.82 13.07zm-4.18-8.51c-.22-.44-.43-.88-.64-1.3l1.15-.55c.58-4.08 1.75-4.07 8.73-12.8 3.44-4.31 2.03-16.58-.88-15.41-2.91 1.16-7.27 8.43-7.27 11.92s-2.32 14.83-2.32 14.83l-.29.14c-.1-.2-.19-.39-.28-.58l-.03.01s-10.51-4.88-13.31-6.95c-2.81-2.07-11.25-2.89-13.91-1.24-2.67 1.64 6.36 10.07 11.87 9.87 11.17-.43 13.2.29 16.82 2.24zm12.54 25.14.53-.27c1.7-3.74 2.82-3.41 11.97-9.83 4.52-3.17 6.61-15.34 3.49-15.04s-9.35 6.06-10.33 9.41c-.98 3.34-6.39 13.58-6.39 13.58l-.28.14c-.14-.27-.28-.55-.42-.82-2.15-.33-11.39-1.8-14.28-2.87-3.27-1.2-11.59.38-13.7 2.71-2.09 2.33 8.94 7.89 14.17 6.14 10.51-3.51 10.99-4.61 14.92-3.8.11.21.22.43.32.65zm24.62 59.38s-1.17-11.92 7.85-8.72c0 0 4.94 6.69 4.94 4.36 0-2.32 2.03-14.83 6.4-14.83 8.73 0 17.74-6.4 22.4-8.14 4.65-1.75 24.43-22.98 24.43-22.98l.35-1.38c.51.53 1.03 1.05 1.57 1.58.37.36.75.72 1.13 1.09l-.15.16s-1.45 7.27-2.32 9.6c-.88 2.33-20.94 16-22.11 23.27-.4 2.53 1.24 6.13 4.06 10.19 2.22 3.2 5.17 6.69 8.42 10.19 3.43 3.68 7.19 7.36 10.79 10.71 1.08 1.02 2.16 2 3.2 2.939 4.01 3.62 7.95 7.17 11.74 10.25 7.13 5.78 13.71 9.891 19.16 9.59 5.76.311 13.22-4.289 21.07-10.579 3.59-2.891 7.27-6.131 10.91-9.41 1.279-1.16 2.609-2.38 3.96-3.63 3.35-3.16 6.819-6.57 9.989-9.99 3.49-3.73 6.62-7.47 8.891-10.85 2.55-3.8 4-7.15 3.62-9.55-1.15-7.27-21.221-20.94-22.09-23.27-.7-1.86-1.771-6.85-2.181-8.8.71-.65 1.4-1.31 2.08-1.98.16-.15.32-.3.47-.46l.2.19s19.78 21.23 24.431 22.97c4.649 1.75 13.67 8.15 22.399 8.15 4.37 0 6.39 12.5 6.39 14.83 0 2.32 4.95-4.36 4.95-4.36 1.79-.64 3.181-.67 4.261-.33l-.211.72-11.239 11.89-8.28-.33-25.31 27.6 15.05 1.74v13.85l14.689-16.38.15.13 5.45 14.83 4.84-13.21 3.229 8.85 10.471-28.569-2.86-11c3.13-.61 6.55-2.26 8.67-4.56 2.13-2.31 1.55-7.23.04-11.51l.48-.16 40.68-45.07 4.77 6.31 16.79-32.33-22.939 14.049-3.11-5.08 7.851-35.58-26.71 28.14-4.11.07-.36-19.76-19.41 33.59 8.29-.87-12.21 45.37-.41 1.96c-4.529-.92-9.93-1.34-12.909-2.39-4.95-1.75-9.891-13.67-10.19-23.27-.27-9.14-22.16-27.23-24.27-28.94a92.266 92.266 0 0 0 3.369-8.6l1.971.04c1.91 2.62 6.42 4.33 9.7 3.44 2.51-.69 6.06-3.15 5.75-6.25 2.05 2.4 6.279 3.89 9.38 3.05 2.699-.74 6.58-3.53 5.63-6.95l.72-.77c3.47 1.76 8.311 2.11 11.62.41 3.36-1.72 7.74-6.44 5.81-10.76 1.091-.24 2.12-.63 3.021-1.18 3.28-2 7.37-7.2 4.83-11.4l-.061-.54c3.971-.48 7.86-1.06 11.46-1.78 14.04-2.8 12.69-9.17 12.69-9.17l-.36-2.08c1.25-.21 2.471-.43 3.66-.67 14.05-2.8 12.69-9.17 12.69-9.17l-.431-1.7c2.381-.6 4.69-1.25 6.881-1.94 13.68-4.29 11.64-10.47 11.64-10.47l-.17-.69c3.189-.77 6.3-1.6 9.189-2.51 13.66-4.29 11.63-10.47 11.63-10.47l-.439-1.46c6.52-1.97 12.38-4.29 16.439-6.97 5.19-3.44 2.7-9.37 2.141-10.56 1.689-.81 3.22-1.65 4.55-2.53 5.78-3.82 2.03-10.76 2.03-10.76l-.34-.43c3.56-2.24 5.85-4.64 6.159-7.13 1.16-9.31-6.689-7.28-6.689-7.28s-92.2 25.31-111.68 31.12c-19.49 5.82-32.87 9.6-37.521 18.62-4.65 9.01 7.561 15.7 6.69 22.1s-14.54 0-14.54 0l-1.21.01c-.12-8.61-.23-14.99-.23-14.99s-10.85 5.89-25.56 7.17l-.11-1.21c-22.4-27.62-15.71-47.69-21.53-57-5.819-9.31-19.479-8.72-23.84-6.39-4.37 2.32-6.7 5.81-16.87 9.3-10.18 3.49-8.44 12.51-8.44 12.51s3.78-1.75 11.05-2.04c7.28-.29 6.979-.87 8.729 6.69 1.74 7.56-22.979 36.93-22.979 36.93l-.12.88c-13.16-1.74-22.56-6.84-22.56-6.84s-.1 5.96-.22 14.12h-.97c-.54.25-13.67 6.26-14.52-.01-.87-6.4 11.34-13.09 6.69-22.11-4.65-9.01-18.03-12.79-37.52-18.61-19.48-5.82-111.67-31.12-111.67-31.12s-7.86-2.03-6.7 7.28c.31 2.48 2.58 4.87 6.11 7.1l-.29.45s-3.75 6.94 2.04 10.77c1.33.88 2.87 1.73 4.55 2.53-.57 1.19-3.05 7.12 2.13 10.56 4.06 2.68 9.92 5 16.44 6.97l-.44 1.46s-2.03 6.18 11.64 10.47c2.89.9 5.99 1.74 9.18 2.5v.01l-.17.68s-2.03 6.19 11.64 10.47c2.19.69 4.5 1.33 6.88 1.94l-.43 1.7s-1.36 6.37 12.69 9.18c1.19.24 2.41.46 3.66.66l-.35 2.09s-1.36 6.37 12.68 9.17c3.6.72 7.49 1.3 11.46 1.77l-.06.54c-2.54 4.2 1.55 9.41 4.83 11.41.9.55 1.93.94 3.02 1.19-1.92 4.32 2.45 9.03 5.81 10.75 2.81 1.44 6.72 1.4 9.96.28l2.38.08c-.95 3.41 2.94 6.21 5.63 6.94 3.11.85 7.32-.65 9.38-3.03-.3 3.08 3.24 5.55 5.75 6.23 3.28.9 7.79-.82 9.7-3.43l1.36-.18a89.95 89.95 0 0 0 3.53 9.23l-.86.38s-24.14 19.48-24.43 29.08-5.23 21.52-10.18 23.27c-4.94 1.74-16.58 1.74-19.78 5.23s-6.98 14.25-3.49 18.03c2.67 2.89 7.39 4.77 11.02 4.83l.039-1.34zm320.61-52.64v-84.68h-10.93v84.68zm-438.33 1.75 30.28-84.68h-11.68l-14.33 41.84c-3.76 11.05-7.28 21.73-9.67 31.53h-.25c-2.26-9.92-5.4-20.23-9.05-31.66l-13.19-41.71h-11.81l27.64 84.68z" fill="#fff"/><path d="m663.7 283.82h10.93v84.68h-10.93z" fill="#231f20"/><path d="m609.7 348.8-10.14 6.22 7.7 3.19-37.62 40.66 30.71-60.02 6.24 4.87zm-13.7-11.44-9.09 17.24-2.99-1.58-.3-16.67 4.11-.07z" fill="#fff"/><path d="m586.91 354.6-21.7 41.17 11.51-46.02 7.2 3.27z" fill="#fff"/><path d="m576.72 349.75-11.51 46.02-.95 1.8-.18.4c-1.28-.55-2.86-.98-4.561-1.33l.41-1.96 12.21-45.37-8.29.87 19.41-33.59.36 19.76.3 16.67zm34.36 11.02-40.68 45.07-.48.16c-.55-1.54-1.21-3.01-1.91-4.23l.2-.11 1.43-2.79 37.62-40.66-7.7-3.19 10.141-6.22 22.939-14.05-16.79 32.33z" fill="#0d72ba"/><path d="m566.39 399.48c-.55-.6-1.34-1.09-2.31-1.51l.18-.4.95-1.8 21.7-41.17 9.09-17.24-8.27-1.08 26.71-28.14-7.851 35.58-6.24-4.87-30.71 60.02-1.43 2.79-.2.11c-.539-.92-1.089-1.71-1.619-2.29z" fill="#0d72ba"/><path d="m556.05 421.92 2.46-2.81.351-.01c-.08-2.36-.681-6.2-3.63-7.15-1.08-.34-2.471-.31-4.261.33 0 0-4.95 6.68-4.95 4.36 0-2.33-2.02-14.83-6.39-14.83-8.729 0-17.75-6.4-22.399-8.15-4.65-1.74-24.431-22.97-24.431-22.97l-.2-.19a92.465 92.465 0 0 0 9.04-10.5 97.956 97.956 0 0 0 9.551-15.89c.329-.7.649-1.39.96-2.07 2.109 1.71 24 19.8 24.27 28.94.3 9.6 5.24 21.52 10.19 23.27 2.979 1.05 8.38 1.47 12.909 2.39 1.7.35 3.28.78 4.561 1.33.97.42 1.76.91 2.31 1.51.53.58 1.08 1.37 1.62 2.29.7 1.22 1.36 2.69 1.91 4.23 1.51 4.28 2.09 9.2-.04 11.51-2.12 2.3-5.54 3.95-8.67 4.56-1.961.39-3.801.37-5.161-.15z" fill="#fbee34"/><path d="m558.51 419.11-2.46 2.81-3.37 3.84-2.68 3.06 1.64 9.16-11.71 13.06-14.689 16.38v-13.85l-15.05-1.74 25.31-27.6 8.28.33 11.239-11.89.211-.72c2.949.95 3.55 4.79 3.63 7.15z" fill="#0d72ba"/><path d="m553.05 426.09-.37-.33 3.37-3.84c1.36.52 3.2.54 5.16.15l2.86 11-10.47 28.57-3.229-8.85 5.63-15.36z" fill="#0d72ba"/><path d="m553.05 426.09 2.95 11.34-5.63 15.36-4.84 13.21-5.45-14.83-.15-.13 11.71-13.06-1.64-9.16 2.68-3.06z" fill="#0d72ba"/><path d="m532.94 330.67c.31 3.1-3.24 5.56-5.75 6.25-3.28.89-7.79-.82-9.7-3.44l-1.971-.04c1.7-5.1 2.62-9.49 2.891-12.63.18-2.02.229-7.76.21-14.91-.01-9.05-.14-20.37-.26-29.29l1.21-.01s13.67 6.4 14.54 0-11.341-13.09-6.69-22.1c4.65-9.02 18.03-12.8 37.521-18.62 19.479-5.81 111.68-31.12 111.68-31.12s7.85-2.03 6.689 7.28c-.31 2.49-2.6 4.89-6.159 7.13l.34.43s3.75 6.94-2.03 10.76c-1.33.88-2.86 1.72-4.55 2.53.56 1.19 3.05 7.12-2.141 10.56-4.06 2.68-9.92 5-16.439 6.97l.439 1.46s2.03 6.18-11.63 10.47c-2.89.91-6 1.74-9.189 2.51l.17.69s2.04 6.18-11.64 10.47c-2.19.69-4.5 1.34-6.881 1.94l.431 1.7s1.359 6.37-12.69 9.17c-1.189.24-2.41.46-3.66.67l.36 2.08s1.35 6.37-12.69 9.17c-3.6.72-7.489 1.3-11.46 1.78l.061.54c2.54 4.2-1.55 9.4-4.83 11.4-.9.55-1.93.94-3.021 1.18 1.931 4.32-2.449 9.04-5.81 10.76-3.31 1.7-8.15 1.35-11.62-.41l-.72.77c.95 3.42-2.931 6.21-5.63 6.95-3.101.84-7.331-.65-9.381-3.05z" fill="#fbee34"/><path d="m500.16 305.9h-104.77c.02-9.35.16-21.11.29-30.16.12-8.16.22-14.12.22-14.12s9.4 5.1 22.56 6.84c2.71.36 5.58.58 8.56.58 17.45 0 30.03-9.6 30.03-9.6s12.5 9.6 29.95 9.6c1.91 0 3.77-.09 5.57-.25 14.71-1.28 25.56-7.17 25.56-7.17s.11 6.38.23 14.99c.12 8.92.25 20.24.26 29.29z" fill="#2c308c"/><path d="m514.32 405.01c.38 2.4-1.07 5.75-3.62 9.55-1.33-2.64-6.641-11.98-21.15-26.13-6.13-5.98-4.51-10.47-4.51-10.47l-.35-.46a85.63 85.63 0 0 0 5.359-4.56c.41 1.95 1.48 6.94 2.181 8.8.87 2.33 20.94 16 22.09 23.27z" fill="#fbee34"/><path d="m510.19 343.64v-37.74h8.43c.02 7.15-.03 12.89-.21 14.91-.271 3.14-1.19 7.53-2.891 12.63a92.266 92.266 0 0 1 -3.369 8.6c-.311.68-.631 1.37-.96 2.07z" fill="#fff"/><path d="m510.19 343.64 1 .47a97.885 97.885 0 0 1 -9.551 15.89l-1.479-.44v-53.66h10.03z" fill="#ed1d31"/><path d="m500.16 359.56 1.479.44a92.465 92.465 0 0 1 -9.04 10.5c-.149.16-.31.31-.47.46l-.7-.71v-64.35h8.73v53.66z" fill="#fff"/><path d="m492.46 267.58.11 1.21c-1.801.16-3.66.25-5.57.25-17.45 0-29.95-9.6-29.95-9.6s-12.58 9.6-30.03 9.6c-2.979 0-5.85-.22-8.56-.58l.12-.88s24.72-29.37 22.979-36.93c-1.75-7.56-1.449-6.98-8.729-6.69-7.27.29-11.05 2.04-11.05 2.04s-1.74-9.02 8.44-12.51c10.17-3.49 12.5-6.98 16.87-9.3 4.36-2.33 18.021-2.92 23.84 6.39 5.82 9.31-.87 29.38 21.53 57zm-7.42 110.38s-1.62 4.49 4.51 10.47c14.51 14.15 19.82 23.49 21.15 26.13-2.271 3.38-5.4 7.12-8.891 10.85l-.04-.04s-3.779-13.24-21.079-30.11c-6.131-5.98-4.511-10.47-4.511-10.47l-.62-1.05a76.946 76.946 0 0 0 5.66-3.67c1.19-.83 2.351-1.69 3.471-2.57z" fill="#fbee34"/><path d="m492.13 370.96c-.68.67-1.37 1.33-2.08 1.98a85.63 85.63 0 0 1 -5.359 4.56 75.44 75.44 0 0 1 -3.471 2.57l-.47-.66v-73.51h10.68v64.35z" fill="#ed1d31"/><path d="m471.96 385.76c1.23-.65 2.43-1.32 3.6-2.02l.62 1.05s-1.62 4.49 4.511 10.47c17.3 16.87 21.079 30.11 21.079 30.11l.04.04c-3.17 3.42-6.64 6.83-9.989 9.99-.33-2.99-2.511-13.66-17.25-30.391-6.221-7.06-7.58-15.71-7.58-15.71l-.41-.94c.689-.3 1.39-.61 2.1-.95a76.579 76.579 0 0 0 3.279-1.649z" fill="#fbee34"/><path d="m471.37 384.65v-78.75h9.38v73.51l.47.66a77.158 77.158 0 0 1 -5.66 3.67 77.34 77.34 0 0 1 -3.6 2.02z" fill="#fff"/><path d="m461.41 390.39c1.5-.52 3.28-1.2 5.17-2.03l.41.94s1.359 8.65 7.58 15.71c14.739 16.73 16.92 27.4 17.25 30.391a543.595 543.595 0 0 1 -3.96 3.63c-3.641 3.279-7.32 6.52-10.91 9.41 1.21-7.271-10.47-28.311-12.99-35.871-2.49-7.46-3.4-20.59-3.479-21.86.299-.1.609-.2.929-.32z" fill="#fbee34"/><path d="m461.12 389.23v-83.33h10.25v78.75l.59 1.11c-1.07.57-2.16 1.12-3.28 1.65-.71.34-1.41.65-2.1.95-1.89.83-3.67 1.51-5.17 2.03z" fill="#ed1d31"/><path d="m456.97 391.77s-1.489-.39-3.77-1.18c-.74-.25-1.57-.54-2.45-.88l2.08-.27v-83.54h8.29v83.33l.29 1.16c-.32.12-.63.22-.93.32-2.091.71-3.431 1.06-3.431 1.06z" fill="#fff"/><path d="m449.7 412.56c2.62-7.85 3.49-21.95 3.49-21.95l.01-.02c2.28.79 3.77 1.18 3.77 1.18h.08s1.34-.35 3.431-1.06c.079 1.27.989 14.4 3.479 21.86 2.521 7.56 14.2 28.6 12.99 35.871-7.851 6.29-15.311 10.89-21.07 10.579-5.45.301-12.03-3.81-19.16-9.59l.181-.22c-2.321-6.4 10.179-28.79 12.799-36.65z" fill="#fbee34"/><path d="m452.83 305.9v83.54l-2.08.27a75.457 75.457 0 0 1 -5.41-2.3c-1.1-.52-2.18-1.07-3.24-1.63l.48-.92v-78.96z" fill="#ed1d31"/><path d="m442.1 385.78c-1.33-.7-2.63-1.43-3.899-2.19a89.086 89.086 0 0 1 -5.351-3.47l.351-.49v-73.73h9.38v78.96z" fill="#fff"/><path d="m438.2 383.59a81.61 81.61 0 0 0 3.899 2.19c1.061.56 2.141 1.11 3.24 1.63.61.29 1.21.56 1.8.82l-.47 1.07s-1.36 8.64-7.59 15.7c-17.06 19.38-17.3 30.64-17.3 31.24-3.6-3.351-7.36-7.03-10.79-10.71l.9-.17s3.78-13.23 21.08-30.1c6.13-5.98 4.511-10.47 4.511-10.47z" fill="#fbee34"/><path d="m449.7 412.56c-2.62 7.86-15.12 30.25-12.8 36.65l-.181.22c-3.79-3.08-7.729-6.63-11.74-10.25-1.04-.939-2.12-1.92-3.2-2.939 0-.601.24-11.86 17.3-31.24 6.229-7.06 7.59-15.7 7.59-15.7l.47-1.07c1.271.56 2.48 1.05 3.61 1.48.88.34 1.71.63 2.45.88l-.01.02c.001-.001-.869 14.099-3.489 21.949z" fill="#fbee34"/><path d="m433.2 379.63-.351.49a90.807 90.807 0 0 1 -3.739-2.79 88.245 88.245 0 0 1 -6.021-5.21c-.38-.37-.76-.73-1.13-1.09l.55-.56v-64.57h10.69v73.73z" fill="#ed1d31"/><path d="m432.85 380.12c1.71 1.2 3.5 2.36 5.351 3.47l-.72 1.2s1.619 4.49-4.511 10.47c-17.3 16.87-21.08 30.1-21.08 30.1l-.9.17c-3.25-3.5-6.2-6.99-8.42-10.19l.02-.01s4.21-10.03 21.52-26.91c6.13-5.97 4.51-10.46 4.51-10.46l.49-.63c1.21.95 2.45 1.88 3.74 2.79z" fill="#fbee34"/><path d="m429.11 377.33-.49.63s1.62 4.49-4.51 10.46c-17.31 16.88-21.52 26.91-21.52 26.91l-.02.01c-2.82-4.06-4.46-7.66-4.06-10.19 1.17-7.27 21.23-20.94 22.11-23.27.87-2.33 2.32-9.6 2.32-9.6l.15-.16c1.89 1.79 3.89 3.53 6.02 5.21z" fill="#fbee34"/><path d="m422.51 306.34v64.13l-.55.56a92.176 92.176 0 0 1 -9.57-11.03l1.39-.22v-53.88h8.73z" fill="#fff"/><path d="m413.78 305.9v53.88l-1.39.22a99.279 99.279 0 0 1 -9.49-15.74l.85-.4v-37.96z" fill="#ed1d31"/><path d="m402.9 344.26c-.42-.88-.82-1.75-1.2-2.6a89.95 89.95 0 0 1 -3.53-9.23c-1.49-4.67-2.31-8.69-2.56-11.62-.18-2.02-.23-7.76-.22-14.91h8.36v37.96z" fill="#fff"/><path d="m376.41 371.12c.29-9.6 24.43-29.08 24.43-29.08l.86-.38c.38.85.78 1.72 1.2 2.6a99.279 99.279 0 0 0 9.49 15.74c2.37 3.21 5.03 6.39 8 9.45l-.35 1.38s-19.78 21.23-24.43 22.98c-4.66 1.74-13.67 8.14-22.4 8.14-4.37 0-6.4 12.51-6.4 14.83 0 2.33-4.94-4.36-4.94-4.36-9.02-3.2-7.85 8.72-7.85 8.72l-.04 1.34c-3.63-.06-8.35-1.94-11.02-4.83-3.49-3.78.29-14.54 3.49-18.03s14.84-3.49 19.78-5.23c4.95-1.75 9.89-13.67 10.18-23.27z" fill="#fbee34"/><path d="m356.4 379.03c-9.85 4.48-11.14 4.12-13.36 7.15l-1.2-.11c-.22-.42-.44-.85-.66-1.29l.75-.38s7.21-9.06 8.79-12.17c.57-1.13 1.89-2.45 3.49-3.65 2.78-2.11 6.41-3.86 8.39-3.69 3.13.28-1.17 11.86-6.2 14.14z" fill="#33a048"/><path d="m341.93 384.4-.75.38c-.07-.13-.14-.27-.21-.4-1.67-3.24-3.57-6.94-5.58-10.87 2.28-3.17 3.46-2.74 13.45-7.28l5.37 2.35c-1.6 1.2-2.92 2.52-3.49 3.65-1.58 3.11-8.79 12.17-8.79 12.17z" fill="#fff"/><g fill="#33a048"><path d="m334.96 372.67c-.18-.36-.37-.73-.56-1.1.42-.53 7.23-9.13 8.76-12.14 1.59-3.11 8.76-7.61 11.89-7.34 3.12.28-1.18 11.86-6.21 14.14-9.99 4.54-11.17 4.11-13.45 7.28-.14-.28-.28-.56-.43-.84zm6.65 13.69c-4.11-.1-4.3 1.05-14.07 6.48-4.82 2.68-16.68-.74-15.06-3.42 1.64-2.67 9.53-5.77 12.98-5.19 3.43.58 15 .17 15 .17l.51-.02c.07.13.14.27.21.4.22.44.44.87.66 1.29.02.04.04.09.07.13z"/><path d="m334.4 371.57c.19.37.38.74.56 1.1-3.34.09-4.17 1.45-13.22 6.48-4.81 2.69-16.68-.73-15.05-3.41 1.63-2.67 9.52-5.77 12.97-5.19 2.93.49 11.78.27 14.32.19.14.28.28.55.42.83zm-5.32-10.46c-.23-.46-.46-.91-.69-1.36l.28-.14s5.41-10.24 6.39-13.58c.98-3.35 7.21-9.11 10.33-9.41s1.03 11.87-3.49 15.04c-9.15 6.42-10.27 6.09-11.97 9.83l-.53.27c-.1-.22-.21-.44-.32-.65zm-6.13-16.92c1.15-2.74 4.25-10.29 4.82-13.07.69-3.42 6.41-9.67 9.5-10.24 3.08-.56 2.02 11.75-2.22 15.28-8.58 7.16-9.72 6.93-11.1 10.8l-1.6.79c-.1-.19-.19-.37-.28-.56-.34-.67-.67-1.34-1-2l-.03-.06z"/><path d="m313.69 356.06c2.89 1.07 12.13 2.54 14.28 2.87.14.27.28.55.42.82.23.45.46.9.69 1.36-3.93-.81-4.41.29-14.92 3.8-5.23 1.75-16.26-3.81-14.17-6.14 2.11-2.33 10.43-3.91 13.7-2.71zm1.94-22.75s2.32-11.34 2.32-14.83 4.36-10.76 7.27-11.92c2.91-1.17 4.32 11.1.88 15.41-6.98 8.73-8.15 8.72-8.73 12.8l-1.15.55c-.31-.65-.61-1.28-.88-1.87zm-9.58 8.03c3.16 1.47 14.42 4.15 14.42 4.15l.6-.3c.33.66.66 1.33 1 2l-1.02.5c-3.93-1.2-4.42-.14-15.28 2.5-5.36 1.31-15.89-5.15-13.6-7.3 2.28-2.15 10.71-3.03 13.88-1.55zm5.21-35.66s.29 10.47.88 18.91l-.71.17c-5.11-6.86-8.86-12.07-10.93-14.13-2.32-2.32.3-17.16 1.75-17.16s6.98 7.27 9.01 12.21z"/><path d="m316.5 336.8c-3.62-1.95-5.65-2.67-16.82-2.24-5.51.2-14.54-8.23-11.87-9.87 2.66-1.65 11.1-.83 13.91 1.24 2.8 2.07 13.31 6.95 13.31 6.95l.03-.01c.09.19.18.38.28.58.27.59.57 1.22.88 1.87.21.42.42.86.64 1.3z"/></g><path d="m316.62 288.62c-1.25-.2-2.47-.42-3.66-.66-14.05-2.81-12.69-9.18-12.69-9.18l.43-1.7c-2.38-.61-4.69-1.25-6.88-1.94-13.67-4.28-11.64-10.47-11.64-10.47l.17-.68v-.01c-3.19-.76-6.29-1.6-9.18-2.5-13.67-4.29-11.64-10.47-11.64-10.47l.44-1.46c-6.52-1.97-12.38-4.29-16.44-6.97-5.18-3.44-2.7-9.37-2.13-10.56-1.68-.8-3.22-1.65-4.55-2.53-5.79-3.83-2.04-10.77-2.04-10.77l.29-.45c-3.53-2.23-5.8-4.62-6.11-7.1-1.16-9.31 6.7-7.28 6.7-7.28s92.19 25.3 111.67 31.12c19.49 5.82 32.87 9.6 37.52 18.61 4.65 9.02-7.56 15.71-6.69 22.11.85 6.27 13.98.26 14.52.01h.97c-.13 9.05-.27 20.81-.29 30.16-.01 7.15.04 12.89.22 14.91.25 2.93 1.07 6.95 2.56 11.62l-1.36.18c-1.91 2.61-6.42 4.33-9.7 3.43-2.51-.68-6.05-3.15-5.75-6.23-2.06 2.38-6.27 3.88-9.38 3.03-2.69-.73-6.58-3.53-5.63-6.94l-2.38-.08c-3.24 1.12-7.15 1.16-9.96-.28-3.36-1.72-7.73-6.43-5.81-10.75-1.09-.25-2.12-.64-3.02-1.19-3.28-2-7.37-7.21-4.83-11.41l.06-.54c-3.97-.47-7.86-1.05-11.46-1.77-14.04-2.8-12.68-9.17-12.68-9.17z" fill="#fbee34"/><path d="m266.58 285.57-30.28 84.68h-12.06l-27.64-84.68h11.81l13.19 41.71c3.65 11.43 6.79 21.74 9.05 31.66h.25c2.39-9.8 5.91-20.48 9.67-31.53l14.33-41.84z" fill="#231f20"/><path d="m162.22 113.95c-5.97 2.81-13.09 4.44-20.72 4.44-6.9 0-13.37-1.33-18.96-3.67-11.56-4.79-19.35-13.86-19.35-24.25 0-15.42 17.15-27.92 38.31-27.92s38.31 12.5 38.31 27.92c0 9.86-7.01 18.52-17.59 23.48z" fill="#c8c8c8"/><g fill="none" stroke="#231f20"><path d="m164.68 139.91h583.99v380.41l-582.67-.28m-43.46-405.32c-11.56-4.79-19.35-13.86-19.35-24.25 0-15.42 17.15-27.92 38.31-27.92s38.31 12.5 38.31 27.92c0 9.86-7.01 18.52-17.59 23.48-5.97 2.81-13.09 4.44-20.72 4.44-6.9 0-13.37-1.33-18.96-3.67zm-.54 1.28.66 665.8v4.12m39.56-673.79v673.79" stroke-width="20.94"/><path d="m453.2 390.59c2.28.79 3.77 1.18 3.77 1.18h.08s1.34-.35 3.431-1.06c.3-.1.609-.2.93-.32 1.5-.52 3.28-1.2 5.17-2.03.689-.3 1.39-.61 2.1-.95 1.12-.53 2.21-1.08 3.28-1.65 1.23-.65 2.43-1.32 3.6-2.02a76.946 76.946 0 0 0 5.66-3.67c1.19-.83 2.351-1.69 3.471-2.57a85.63 85.63 0 0 0 5.359-4.56c.71-.65 1.4-1.31 2.08-1.98.16-.15.32-.3.47-.46a92.465 92.465 0 0 0 9.04-10.5 97.956 97.956 0 0 0 9.551-15.89c.329-.7.649-1.39.96-2.07a92.266 92.266 0 0 0 3.369-8.6c1.7-5.1 2.62-9.49 2.891-12.63.18-2.02.229-7.76.21-14.91-.01-9.05-.14-20.37-.26-29.29-.12-8.61-.23-14.99-.23-14.99s-10.85 5.89-25.56 7.17c-1.801.16-3.66.25-5.57.25-17.45 0-29.95-9.6-29.95-9.6s-12.58 9.6-30.03 9.6c-2.979 0-5.85-.22-8.56-.58-13.16-1.74-22.56-6.84-22.56-6.84s-.1 5.96-.22 14.12c-.13 9.05-.27 20.81-.29 30.16-.01 7.15.04 12.89.22 14.91.25 2.93 1.07 6.95 2.56 11.62a89.95 89.95 0 0 0 3.53 9.23c.38.85.78 1.72 1.2 2.6a99.279 99.279 0 0 0 9.49 15.74 92.176 92.176 0 0 0 9.57 11.03c.37.36.75.72 1.13 1.09a88.004 88.004 0 0 0 9.76 8c1.71 1.2 3.5 2.36 5.351 3.47a81.61 81.61 0 0 0 3.899 2.19c1.061.56 2.141 1.11 3.24 1.63a75.884 75.884 0 0 0 5.41 2.3c.878.34 1.708.63 2.448.88z" stroke-width="6.98"/><g stroke-width="5.235"><path d="m418.58 267.58s24.72-29.37 22.979-36.93c-1.75-7.56-1.449-6.98-8.729-6.69-7.27.29-11.05 2.04-11.05 2.04s-1.74-9.02 8.44-12.51c10.17-3.49 12.5-6.98 16.87-9.3 4.36-2.33 18.021-2.92 23.84 6.39 5.82 9.31-.87 29.38 21.53 57m-97.73 8.15s-.01 0-.02.01c-.54.25-13.67 6.26-14.52-.01-.87-6.4 11.34-13.09 6.69-22.11-4.65-9.01-18.03-12.79-37.52-18.61-19.48-5.82-111.67-31.12-111.67-31.12s-7.86-2.03-6.7 7.28c.31 2.48 2.58 4.87 6.11 7.1 13.95 8.82 47.67 15.35 59.04 16.74"/><path d="m236.81 218.72s-3.75 6.94 2.04 10.77c1.33.88 2.87 1.73 4.55 2.53 18.86 9.01 57.1 13.17 57.1 13.17"/><path d="m243.5 231.81s-.04.07-.1.21c-.57 1.19-3.05 7.12 2.13 10.56 4.06 2.68 9.92 5 16.44 6.97 19.64 5.94 45.22 8.73 45.22 8.73m-45.66-7.27s-2.03 6.18 11.64 10.47c2.89.9 5.99 1.74 9.18 2.5v.01c18.29 4.39 39.38 6.5 39.38 6.5m-39.55-5.82s-2.03 6.19 11.64 10.47c2.19.69 4.5 1.33 6.88 1.94 9.09 2.32 19.16 4.06 27.13 5.23m-27.56-3.53s-1.36 6.37 12.69 9.18c1.19.24 2.41.46 3.66.66 10.13 1.71 21.88 2.48 30.92 2.84m-31.27-.75s-1.36 6.37 12.68 9.17c3.6.72 7.49 1.3 11.46 1.77 8.02.96 16.34 1.46 23.12 1.73m-23.18-1.19c-2.54 4.2 1.55 9.41 4.83 11.41.9.55 1.93.94 3.02 1.19 3.77.87 8.34.03 11.05-2.13"/><path d="m348.32 314.54c-.04.08-.08.17-.12.25-1.92 4.32 2.45 9.03 5.81 10.75 2.81 1.44 6.72 1.4 9.96.28 1.54-.53 2.93-1.3 3.99-2.28m-1.61 2.36c-.95 3.41 2.94 6.21 5.63 6.94 3.11.85 7.32-.65 9.38-3.03.11-.13.22-.26.32-.4"/><path d="m381.48 329.1c-.07.24-.11.48-.12.71-.3 3.08 3.24 5.55 5.75 6.23 3.28.9 7.79-.82 9.7-3.43m122.76-56.01s13.67 6.4 14.54 0-11.341-13.09-6.69-22.1c4.65-9.02 18.03-12.8 37.521-18.62 19.479-5.81 111.68-31.12 111.68-31.12s7.85-2.03 6.689 7.28c-.31 2.49-2.6 4.89-6.159 7.13-13.98 8.81-47.631 15.32-58.99 16.71"/><path d="m677.49 219.6s3.75 6.94-2.03 10.76c-1.33.88-2.86 1.72-4.55 2.53-18.87 9.01-57.11 13.17-57.11 13.17"/><path d="m670.8 232.68s.04.07.11.21c.56 1.19 3.05 7.12-2.141 10.56-4.06 2.68-9.92 5-16.439 6.97-19.64 5.94-45.22 8.73-45.22 8.73m45.66-7.27s2.03 6.18-11.63 10.47c-2.89.91-6 1.74-9.189 2.51-18.29 4.4-39.38 6.51-39.38 6.51m39.549-5.82s2.04 6.18-11.64 10.47c-2.19.69-4.5 1.34-6.881 1.94-9.09 2.31-19.159 4.05-27.119 5.22m27.55-3.52s1.359 6.37-12.69 9.17c-1.189.24-2.41.46-3.66.67-10.13 1.7-21.88 2.47-30.91 2.83m31.27-.75s1.35 6.37-12.69 9.17c-3.6.72-7.489 1.3-11.46 1.78-8.01.95-16.33 1.46-23.12 1.72m23.18-1.18c2.54 4.2-1.55 9.4-4.83 11.4-.9.55-1.93.94-3.021 1.18-3.779.88-8.34.04-11.05-2.11"/><path d="m565.99 315.41c.04.08.08.16.109.24 1.931 4.32-2.449 9.04-5.81 10.76-3.31 1.7-8.15 1.35-11.62-.41-.88-.44-1.67-.98-2.33-1.59m1.611 2.36c.95 3.42-2.931 6.21-5.63 6.95-3.101.84-7.33-.65-9.38-3.05-.11-.12-.21-.26-.311-.39"/><path d="m532.82 329.97c.069.24.109.47.12.7.31 3.1-3.24 5.56-5.75 6.25-3.28.89-7.79-.82-9.7-3.44m-116.65 8.56s-24.14 19.48-24.43 29.08-5.23 21.52-10.18 23.27c-4.94 1.74-16.58 1.74-19.78 5.23s-6.98 14.25-3.49 18.03c2.67 2.89 7.39 4.77 11.02 4.83 1.11.03 2.12-.12 2.94-.46"/><path d="m354.02 421.14s-1.17-11.92 7.85-8.72c0 0 4.94 6.69 4.94 4.36 0-2.32 2.03-14.83 6.4-14.83 8.73 0 17.74-6.4 22.4-8.14 4.65-1.75 24.43-22.98 24.43-22.98m2.9 1.45s-1.45 7.27-2.32 9.6c-.88 2.33-20.94 16-22.11 23.27-.4 2.53 1.24 6.13 4.06 10.19 2.22 3.2 5.17 6.69 8.42 10.19 3.43 3.68 7.19 7.36 10.79 10.71 1.08 1.02 2.16 2 3.2 2.939 4.01 3.62 7.95 7.17 11.74 10.25 7.13 5.78 13.71 9.891 19.16 9.59.271-.01.54-.029.8-.069m55.31-117.05s.06.05.16.14c2.109 1.71 24 19.8 24.27 28.94.3 9.6 5.24 21.52 10.19 23.27 2.979 1.05 8.38 1.47 12.909 2.39 1.7.35 3.28.78 4.561 1.33.97.42 1.76.91 2.31 1.51.53.58 1.08 1.37 1.62 2.29.7 1.22 1.36 2.69 1.91 4.23 1.51 4.28 2.09 9.2-.04 11.51-2.12 2.3-5.54 3.95-8.67 4.56-1.96.39-3.8.37-5.16-.15a.694.694 0 0 1 -.13-.05"/><path d="m558.82 421s.08-.78.04-1.9c-.08-2.36-.681-6.2-3.63-7.15-1.08-.34-2.471-.31-4.261.33 0 0-4.95 6.68-4.95 4.36 0-2.33-2.02-14.83-6.39-14.83-8.729 0-17.75-6.4-22.399-8.15-4.65-1.74-24.431-22.97-24.431-22.97m-2.909 1.45.16.8c.41 1.95 1.48 6.94 2.181 8.8.869 2.33 20.939 16 22.09 23.27.38 2.4-1.07 5.75-3.62 9.55-2.271 3.38-5.4 7.12-8.891 10.85-3.17 3.42-6.64 6.83-9.989 9.99a543.595 543.595 0 0 1 -3.96 3.63c-3.641 3.279-7.32 6.52-10.91 9.41-7.851 6.29-15.311 10.89-21.07 10.579-.27-.01-.54-.029-.8-.069m-107.751-62.24s-2.17-4.18-5.42-10.51c-.03-.04-.05-.09-.07-.13-.22-.42-.44-.85-.66-1.29-.07-.13-.14-.27-.21-.4-1.67-3.24-3.57-6.94-5.58-10.87-.14-.28-.28-.56-.43-.84-.18-.36-.37-.73-.56-1.1-.14-.28-.28-.55-.42-.83-1.5-2.93-3.04-5.96-4.58-8.98-.1-.22-.21-.44-.32-.65-.23-.46-.46-.91-.69-1.36-.14-.27-.28-.55-.42-.82-1.94-3.83-3.84-7.62-5.62-11.18-.1-.19-.19-.37-.28-.56-.34-.67-.67-1.34-1-2l-.03-.06c-1.54-3.1-2.96-5.98-4.18-8.51-.22-.44-.43-.88-.64-1.3-.31-.65-.61-1.28-.88-1.87-.1-.2-.19-.39-.28-.58-.88-1.85-1.58-3.38-2.05-4.5-.29-.69-.58-1.35-.86-1.98-.25-.57-.38-1.17-.72-1.63-5.11-6.86-8.86-12.07-10.93-14.13-2.32-2.32.3-17.16 1.75-17.16s6.98 7.27 9.01 12.21c0 0 .29 10.47.88 18.91"/><path d="m315.63 333.31s2.32-11.34 2.32-14.83 4.36-10.76 7.27-11.92c2.91-1.17 4.32 11.1.88 15.41-6.98 8.73-8.15 8.72-8.73 12.8m5.16 10.42s.16-.37.42-1c1.15-2.74 4.25-10.29 4.82-13.07.69-3.42 6.41-9.67 9.5-10.24 3.08-.56 2.02 11.75-2.22 15.28-8.58 7.16-9.72 6.93-11.1 10.8m4.72 12.65s5.41-10.24 6.39-13.58c.98-3.35 7.21-9.11 10.33-9.41s1.03 11.87-3.49 15.04c-9.15 6.42-10.27 6.09-11.97 9.83m4.45 10.11s.01-.01.02-.03c.42-.53 7.23-9.13 8.76-12.14 1.59-3.11 8.76-7.61 11.89-7.34 3.12.28-1.18 11.86-6.21 14.14-9.99 4.54-11.17 4.11-13.45 7.28-.03.06-.08.12-.12.18m6.66 10.71s7.21-9.06 8.79-12.17c.57-1.13 1.89-2.45 3.49-3.65 2.78-2.11 6.41-3.86 8.39-3.69 3.13.28-1.17 11.86-6.2 14.14-9.85 4.48-11.14 4.12-13.36 7.15-.07.1-.15.2-.22.31m-27.79-53.61s-10.51-4.88-13.31-6.95c-2.81-2.07-11.25-2.89-13.91-1.24-2.67 1.64 6.36 10.07 11.87 9.87 11.17-.43 13.2.29 16.82 2.24m3.97 8.69s-11.26-2.68-14.42-4.15c-3.17-1.48-11.6-.6-13.88 1.55-2.29 2.15 8.24 8.61 13.6 7.3 10.86-2.64 11.35-3.7 15.28-2.5m7.37 11.31s-.16-.02-.45-.07c-2.15-.33-11.39-1.8-14.28-2.87-3.27-1.2-11.59.38-13.7 2.71-2.09 2.33 8.94 7.89 14.17 6.14 10.51-3.51 10.99-4.61 14.92-3.8.03.01.07.01.1.02"/><path d="m334.67 370.72s-.25.01-.69.02c-2.54.08-11.39.3-14.32-.19-3.45-.58-11.34 2.52-12.97 5.19-1.63 2.68 10.24 6.1 15.05 3.41 9.05-5.03 9.88-6.39 13.22-6.48.26-.01.55-.01.85 0m4.65 11.73s-11.57.41-15-.17c-3.45-.58-11.34 2.52-12.98 5.19-1.62 2.68 10.24 6.1 15.06 3.42 9.77-5.43 9.96-6.58 14.07-6.48"/></g><path d="m356.63 413.87s7.57 14.55 15.71 24.729" stroke-width="6.98"/><path d="m428.62 377.96s1.62 4.49-4.51 10.46c-17.31 16.88-21.52 26.91-21.52 26.91m34.89-30.54s1.619 4.49-4.511 10.47c-17.3 16.87-21.08 30.1-21.08 30.1m34.781-36.06s-1.36 8.64-7.59 15.7c-17.06 19.38-17.3 30.64-17.3 31.24v.029m31.41-45.659s-.87 14.1-3.49 21.95c-2.62 7.86-15.12 30.25-12.8 36.65m48.14-71.25s-1.62 4.49 4.51 10.47c14.51 14.15 19.82 23.49 21.15 26.13.26.51.37.77.37.77m-34.89-30.54s-1.62 4.49 4.511 10.47c17.3 16.87 21.079 30.11 21.079 30.11m-34.78-36.07s1.359 8.65 7.58 15.71c14.739 16.73 16.92 27.4 17.25 30.391.06.58.05.869.05.869m-31.4-45.66s0 .03.011.1c.079 1.27.989 14.4 3.479 21.86 2.521 7.56 14.2 28.6 12.99 35.871-.05.279-.11.54-.2.779" stroke-width="5.235"/><path d="m559.93 394.68 12.21-45.37-8.29.87 19.41-33.59.36 19.76.3 16.67-7.2-3.27-11.51 46.02-.49 1.96" stroke-width="1.745"/><path d="m564.26 397.57.95-1.8 21.7-41.17 9.09-17.24-8.27-1.08 26.71-28.14-7.85 35.58-6.24-4.87-30.71 60.02-1.43 2.79" stroke-width="1.745"/><path d="m568.15 400.48 1.49-1.61 37.62-40.66-7.7-3.19 10.14-6.22 22.94-14.05-16.79 32.33-4.77-6.31-40.68 45.07m-15.38 6.83-11.24 11.89-8.28-.33-25.31 27.6 15.05 1.74v13.85l14.69-16.38 11.71-13.06-1.64-9.16 2.68-3.06 3.37-3.84 2.46-2.81" stroke-width="1.745"/><path d="m553.05 426.09 2.95 11.34-5.63 15.36-4.84 13.21-5.45-14.83" stroke-width="1.745"/><path d="m561.12 421.73.09.34 2.86 11-10.47 28.57-3.23-8.85-.15-.42m-155.2-146.47h123.68m-114.95.44v37.52m10.03-38.18v54.1m8.73-53.44v64.13m10.69-64.57v73.73m9.38-72.86v78.09m10.25-78.96v83.54m57.36-83.32v37.52m-10.03-38.17v54.09m-8.73-53.44v64.13m-10.68-64.57v73.73m-9.38-72.85v78.09m-10.25-78.97v83.55" stroke-width="1.745"/></g><path d="m0 0h850.394v850.394h-850.394z" fill="none"/></svg>