<svg height="965.64" viewBox="0 0 939.64 965.64" width="939.64" xmlns="http://www.w3.org/2000/svg"><path d="m152.11 128.54v656.84h-28.99l10.5-.02-1.1-656.7c3.03.46 6.18.69 9.4.69 3.51 0 6.92-.28 10.19-.81z" fill="#c8c8c8"/><path d="m758.68 520.17v10.5h-585.57v-10.5h575.07v-334.73l.03.05 5.43-3.08h5.04zm0-379.83v42.07h-5.04l-3.45-6.09-2.01-3.55v-32.43h-575.07v-10.5h585.57z" fill="#231f20"/><path d="m750.19 176.32 3.45 6.09-5.43 3.08-.03-.05v-7.98zm-2.01-3.55 2.01 3.55-2.01 1.14zm0 336.9v10.5h-10.5zm0-324.23v324.23h-10.5v-336.37h3.63l3.45 6.09zm0-7.98v7.98l-3.42-6.05z" fill="#231f20"/><path d="m748.18 172.77v4.69l-3.42 1.93-3.45-6.09 5.43-3.07z" fill="#231f20"/><path d="m748.18 150.84v21.93l-1.44-2.54-5.43 3.07h-3.63v-22.46zm0-10.5v10.5l-10.5-10.5zm0 369.33-10.5 10.5v-10.5z" fill="#231f20"/><path d="m748.18 150.84h-10.5v-10.5zm-575.07 358.83h564.57v10.5h-564.57z" fill="#231f20"/><path d="m703.96 316.62-1.91 1.69-.74-.84-.8-2.48 1.13-1-1.51-.14-.8-2.48.1-1.1 2.54.24 8.05.76z" fill="#fff"/><path d="m701.64 313.99-1.13 1-.38-1.14zm-1.13 1 .8 2.48-3.27-.31z" fill="#fff"/><path d="m700.51 314.99-2.47 2.17-4.77-.45 3.6-3.17 3.26.31z" fill="#fff"/><path d="m699.33 311.37.8 2.48-3.26-.31z" fill="#fff"/><path d="m693.27 316.71-10.98 9.68-1.55 1.37.45 2.02 3.19 14.27-12.6-7.44-1.78-1.05-1.78 1.05-12.6 7.44 3.19-14.27.45-2.02-1.55-1.37-10.98-9.68 14.57-1.38 2.06-.19.83-1.9 5.81-13.43 5.81 13.43.83 1.9 2.06.19z" fill="#ed1e29"/><path d="m691.34 348.17-2.11 1.54-.72-3.21z" fill="#fff"/><path d="m689.23 349.71.33 1.48-1.31-.77zm-.72-3.21.72 3.21-.98.71-2.83-1.67-1.04-4.7zm-.49-18.25.45 2.02-1.55 1.37zm-2.6 20.5 2.83 1.67-2.11 1.53z" fill="#fff"/><path d="m689.56 351.19-.33-1.48 2.11-1.54 1.07-.24.56 2.49 1.76 7.89-6.96-4.11-2.19-1.3.56-.95 2.11-1.53z" fill="#fff"/><path d="m686.92 331.64 1.55-1.37 3.94 17.66-1.07.24-2.83-1.67-3.91-17.48 13.44-11.86 3.27.31.74.84-13.58 11.96-.45-2.02z" fill="#fff"/><path d="m681.19 329.78-.45-2.02 1.55-1.37 10.98-9.68 4.77.45-13.44 11.86 3.91 17.48-4.13-2.45zm.23-21.22.82 1.9-2.88-2.1z" fill="#fff"/><path d="m682.24 310.46-.82-1.9 18.01 1.71-.1 1.1-2.46 2.17-17.84-1.69-7.12-16.45 1.3-3.01 1.01-.44 7.2 16.61-2.06-.2z" fill="#fff"/><path d="m675.81 313.24-5.81-13.43 1.91-4.41 7.12 16.45 17.84 1.69-3.6 3.17-14.57-1.38-2.06-.19zm-2.6-20.85-1.3 3.01-1.31-3.01z" fill="#fff"/><path d="m671.91 295.4-1.91 4.41-1.91-4.41 1.31-3.01h1.2zm-.13 41.21 12.6 7.44 1.04 4.7-15.42-9.12-15.42 9.12 1.04-4.7 12.6-7.44 1.78-1.05z" fill="#fff"/><path d="m671.78 342.64-1.78 1.05-1.78-1.05zm-1.78-51.64.6 1.39h-1.2z" fill="#fff"/><path d="m670 339.63 15.42 9.12.72 3.2-.56.95-15.58-9.21 1.78-1.05h-3.56l1.78 1.05-15.58 9.21-.56-.95.72-3.2zm-.6-47.24-1.31 3.01-1.3-3.01zm-2.61 0-1.01-.44 1.01-2.34 3.21-7.42 3.21 7.42 1.01 2.34-1.01.44h-2.61l-.6-1.39-.6 1.39zm-2.6 20.85-.83 1.9-2.06.19-14.57 1.38-3.6-3.17 17.84-1.69 7.12-16.45 1.91 4.41z" fill="#fff"/><path d="m660.64 308.36-2.88 2.1.82-1.9z" fill="#fff"/><path d="m668.09 295.4-7.12 16.45-17.84 1.69-2.46-2.17-.1-1.1 18.01-1.71-.82 1.9 2.88-2.1-2.06.2 7.2-16.61 1.01.44zm-9.28 34.38-3.19 14.27-4.13 2.45 3.91-17.48-13.44-11.86 4.77-.45 10.98 9.68 1.55 1.37zm-7.32 16.72 4.13-2.45-1.04 4.7-2.83 1.67-.98-.71z" fill="#fff"/><path d="m654.58 348.75-.72 3.2-2.11-1.53zm-1.5-17.11-1.1-3.39-.45 2.02-13.58-11.96.74-.84 3.27-.31 13.44 11.86-3.91 17.48-2.83 1.67-1.07-.24 3.94-17.66z" fill="#fff"/><path d="m651.98 328.25 1.1 3.39-1.55-1.37zm-1.21 21.46.98.71-1.31.77zm.72-3.21-.72 3.21-2.11-1.54z" fill="#fff"/><path d="m650.44 351.19 1.31-.77 2.11 1.53.56.95-2.19 1.3-6.96 4.11 1.76-7.89.56-2.49 1.07.24 2.11 1.54zm-3.71-34.48-4.77.45-2.47-2.17.38-1.14 3.26-.31z" fill="#fff"/><path d="m640.67 311.37 2.46 2.17-3.26.31zm1.29 5.79-3.27.31.8-2.48zm-2.09-3.31-.38 1.14-1.13-1zm-3.51 115.49-1.85-.18-1-3.06.13-1.36 3.13.3 9.92.94-7.47 6.59-2.36 2.08-.9-1.02-1-3.06z" fill="#fff"/><path d="m638.03 310.51 2.54-.24.1 1.1-.8 2.48-1.51.14 1.13 1-.8 2.48-.74.84-1.91-1.69-6.06-5.35zm-1.67 118.83-1.4 1.23-.45-1.41zm-1.4 1.23 1 3.06-4.03-.38zm1-170.96-1.92 1.69-.73-.83-.8-2.48 1.13-1-1.5-.14-.81-2.49.1-1.09 2.54.24 8.05.76z" fill="#fff"/><path d="m634.51 429.16.45 1.41-3.03 2.68-5.89-.56 4.43-3.91z" fill="#fff"/><path d="m634.51 429.16-4.04-.38 3.04-2.68zm-.87-172.17-1.13 1-.37-1.14zm-1.13 1 .8 2.48-3.27-.31z" fill="#fff"/><path d="m632.51 257.99-2.47 2.17-4.77-.45 3.59-3.17 3.28.31z" fill="#fff"/><path d="m631.33 254.36.81 2.49-3.28-.31z" fill="#fff"/><path d="m626.04 432.69-13.53 11.93-1.91 1.69.55 2.49 3.93 17.6-15.52-9.18-2.2-1.29-2.19 1.29-15.53 9.18 3.93-17.6.55-2.49-1.91-1.69-13.53-11.93 17.96-1.7 2.54-.24 1.01-2.34 7.17-16.56 7.17 16.56 1.01 2.34 2.54.24z" fill="#ed1e29"/><path d="m621.46 475.19-.41-1.82 2.61-1.9 1.32-.3.69 3.08 2.18 9.72-8.58-5.07-2.71-1.6.69-1.17 2.6-1.89z" fill="#fff"/><path d="m625.27 259.71-10.98 9.68-1.55 1.37.45 2.02 3.19 14.27-12.6-7.44-1.78-1.05-1.78 1.05-12.6 7.44 3.19-14.27.45-2.02-1.55-1.37-10.98-9.68 14.57-1.38 2.06-.19.83-1.9 5.81-13.43 5.81 13.43.83 1.9 2.06.19z" fill="#ed1e29"/><g fill="#fff"><path d="m623.66 471.47-2.61 1.9-.88-3.96zm-.32-180.3-2.11 1.54-.72-3.21z"/><path d="m621.23 292.71.33 1.48-1.31-.77zm-.18 180.66.41 1.82-1.61-.95zm-.54-183.87.72 3.21-.98.71-2.83-1.67-1.04-4.7z"/><path d="m620.17 469.41.88 3.96-1.2.87-3.48-2.06-1.29-5.78zm-.15-198.16.45 2.02-1.55 1.37zm-2.6 20.5 2.83 1.67-2.11 1.53zm2.71 157.66-1.91 1.68 1.35-4.17z"/><path d="m619.85 474.24-2.6 1.89-.88-3.95zm1.71-180.05-.33-1.48 2.11-1.54 1.07-.24.56 2.49 1.76 7.89-6.96-4.11-2.19-1.3.56-.95 2.11-1.53zm-1.39 175.22-4.81-21.55 16.57-14.61 4.03.38.9 1.02-16.73 14.76-.56-2.49-1.35 4.17 1.91-1.68 4.85 21.76-1.32.3z"/><path d="m616.6 272.02 13.44-11.86 3.27.31.73.83-13.57 11.97-.45-2.02-1.1 3.39 1.55-1.37 3.94 17.66-1.07.24-2.83-1.67z"/><path d="m613.19 272.78-.45-2.02 1.55-1.37 10.98-9.68 4.77.45-13.44 11.86 3.91 17.48-4.13-2.45zm2.17 175.08 4.81 21.55-5.09-3.01-3.93-17.6-.55-2.49 1.91-1.69 13.53-11.93 5.89.56zm-1.94-196.3.82 1.9-2.88-2.1z"/><path d="m614.24 253.46-.82-1.9 18.01 1.71-.1 1.09-2.47 2.18-17.83-1.69-7.12-16.45 1.3-3.01 1.01-.44 7.2 16.61-2.06-.2zm-2.8 169.18 1.01 2.34-3.56-2.58z"/><path d="m630.47 428.78-21.98-2.08-8.78-20.27 1.61-3.72 1.25-.54 8.87 20.47-2.55-.24 3.56 2.58-1.01-2.34 22.2 2.1-.13 1.36zm-22.66-172.54-5.81-13.43 1.91-4.41 7.12 16.45 17.83 1.69-3.59 3.17-14.57-1.38-2.06-.19z"/><path d="m608.49 426.7 21.98 2.08-4.43 3.91-17.96-1.7-2.54-.24-1.01-2.34-7.17-16.56 2.35-5.42zm-3.28-191.31-1.3 3.01-1.31-3.01zm-1.3 3.01-1.91 4.41-1.91-4.41 1.31-3.01h1.2zm-3.69 41.21 1.78-1.05 1.78 1.05 12.6 7.44 1.04 4.7-15.42-9.12-15.42 9.12 1.04-4.7z"/><path d="m603.78 285.64-1.78 1.05-1.78-1.05zm-1.78-51.64.6 1.39h-1.2z"/><path d="m603.78 285.64h-3.56l1.78 1.05-15.58 9.21-.56-.95.72-3.2 15.42-9.12 15.42 9.12.72 3.2-.56.95-15.58-9.21zm-2.38-50.25-1.31 3.01-1.3-3.01zm-.08 167.32-1.61 3.72-1.61-3.72z"/><path d="m598.1 402.71 1.61 3.72-2.35 5.42-2.35-5.42 1.61-3.72zm1.46 61.94-2.2 1.3-2.19-1.3zm-.77-229.26-1.01-.44 1.01-2.34 3.21-7.42 3.21 7.42 1.01 2.34-1.01.44h-2.61l-.6-1.39-.6 1.39zm-1.43 165.61.74 1.71h-1.48z"/><path d="m599.56 457.22 15.52 9.18 1.29 5.78-19.01-11.24-19.01 11.24 1.29-5.78 15.53-9.18 2.19-1.29z"/><path d="m597.36 460.94 19.01 11.24.88 3.95-.69 1.17-19.2-11.35 2.2-1.3h-4.39l2.19 1.3-19.2 11.35-.69-1.17.88-3.95zm-.74-58.23-1.61 3.72-1.61-3.72zm-.43-146.47-.83 1.9-2.06.19-14.57 1.38-3.59-3.17 17.83-1.69 7.12-16.45 1.91 4.41z"/><path d="m593.4 399.29 3.96-9.15 3.96 9.15 1.25 2.88-1.25.54h-3.22l-.74-1.71-.74 1.71h-3.22l-1.25-.54zm-.76-147.93-2.88 2.1.82-1.9z"/><path d="m592.97 254.85-17.83 1.69-2.47-2.18-.1-1.09 18.01-1.71-.82 1.9 2.88-2.1-2.06.2 7.2-16.61 1.01.44 1.3 3.01zm-5.57 17.17-13.44-11.86 4.77-.45 10.98 9.68 1.55 1.37-.45 2.02-3.19 14.27-4.13 2.45zm-3.91 17.48 4.13-2.45-1.04 4.7-2.83 1.67-.98-.71zm3.15 141.49-17.96 1.7-4.43-3.91 21.98-2.08 8.78-20.27 2.35 5.42-7.17 16.56-1.01 2.34z"/><path d="m586.58 291.75-.72 3.2-2.11-1.53zm-.75 130.65-3.55 2.58 1.01-2.34zm-11.87-162.24 13.44 11.86-3.91 17.48-2.83 1.67-1.07-.24 3.94-17.66 1.55 1.37-1.1-3.39-.45 2.02-13.57-11.97.73-.83z"/><path d="m583.98 271.25 1.1 3.39-1.55-1.37zm-1.21 21.46.98.71-1.31.77zm.72-3.21-.72 3.21-2.11-1.54zm2.34 132.9-2.54.24 8.86-20.47 1.25.54 1.61 3.72-8.78 20.27-21.98 2.08-3.04-2.68-.13-1.36 22.21-2.1-1.01 2.34z"/><path d="m582.44 294.19 1.31-.77 2.11 1.53.56.95-2.19 1.3-6.96 4.11 1.76-7.89.56-2.49 1.07.24 2.11 1.54zm1.68 152.12-.55 2.49-3.93 17.6-5.09 3.01 4.81-21.55-16.57-14.61 5.89-.56 13.53 11.93z"/><path d="m579.64 466.4-1.29 5.78-3.48 2.06-1.2-.87.88-3.96zm-4.5-209.86 3.59 3.17-4.77.45-2.47-2.17.37-1.14zm3.21 215.64-.88 3.95-2.6-1.89z"/><path d="m576.5 451.09-1.35-4.17-.56 2.49-16.73-14.76.9-1.02 4.03-.38 16.57 14.61-4.81 21.55-3.49 2.06-1.32-.3 4.85-21.76z"/><path d="m575.15 446.92 1.35 4.17-1.91-1.68zm-2.48-192.56 2.47 2.18-3.28.31zm2.2 219.88-1.61.95.41-1.82zm-.32-4.83-.88 3.96-2.61-1.9zm-.59-209.25-3.27.31.8-2.48z"/><path d="m577.47 476.13.69 1.17-2.71 1.6-8.58 5.07 2.18-9.72.69-3.08 1.32.3 2.61 1.9-.41 1.82 1.61-.95zm-5.61-219.28-.37 1.14-1.13-1z"/><path d="m572.67 254.36-.81 2.49-1.5.14 1.13 1-.8 2.48-.73.83-1.92-1.69-6.06-5.34 8.05-.76 2.54-.24zm-8.42 174.42 4.43 3.91-5.89.56-3.03-2.68.45-1.41z"/><path d="m564.25 428.78-4.04.38 1-3.06zm-4.49 1.79 3.03 2.68-4.03.38zm2.2-97.95-1.91 1.69-.74-.84-.8-2.48 1.13-1-1.51-.14-.8-2.48.1-1.1 2.54.24 8.05.76z"/><path d="m560.21 429.16-.45 1.41-1.4-1.23zm-.57-99.17-1.13 1-.38-1.14zm-1.13 1 .8 2.48-3.27-.31z"/><path d="m558.51 330.99-2.47 2.17-4.77-.45 3.6-3.17 3.26.31zm-.56 94.05 3.13-.3.13 1.36-1 3.06-1.85.18 1.4 1.23-1 3.06-.9 1.02-2.36-2.08-7.47-6.59z"/><path d="m557.33 327.37.8 2.48-3.26-.31z"/></g><path d="m551.27 332.71-10.98 9.68-1.55 1.37.45 2.02 3.19 14.27-12.6-7.44-1.78-1.05-1.78 1.05-12.6 7.44 3.19-14.27.45-2.02-1.55-1.37-10.98-9.68 14.57-1.38 2.06-.19.83-1.9 5.81-13.43 5.81 13.43.83 1.9 2.06.19z" fill="#ed1e29"/><path d="m549.34 364.17-2.11 1.54-.72-3.21z" fill="#fff"/><path d="m547.23 365.71.33 1.48-1.31-.77zm-.72-3.21.72 3.21-.98.71-2.83-1.67-1.04-4.7zm-.49-18.25.45 2.02-1.55 1.37zm-2.6 20.5 2.83 1.67-2.11 1.53z" fill="#fff"/><path d="m549.34 364.17 1.07-.24.56 2.49 1.76 7.89-6.96-4.11-2.19-1.3.56-.95 2.11-1.53 1.31.77-.33-1.48zm-6.74-19.15 13.44-11.86 3.27.31.74.84-13.58 11.96-.45-2.02-1.1 3.39 1.55-1.37 3.94 17.66-1.07.24-2.83-1.67z" fill="#fff"/><path d="m556.04 333.16-13.44 11.86 3.91 17.48-4.13-2.45-3.19-14.27-.45-2.02 1.55-1.37 10.98-9.68zm-16.62-8.6.82 1.9-2.88-2.1z" fill="#fff"/><path d="m537.03 327.85-7.12-16.45 1.3-3.01 1.01-.44 7.2 16.61-2.06-.2 2.88 2.1-.82-1.9 18.01 1.71-.1 1.1-2.46 2.17z" fill="#fff"/><path d="m533.81 329.24-5.81-13.43 1.91-4.41 7.12 16.45 17.84 1.69-3.6 3.17-14.57-1.38-2.06-.19zm-2.6-20.85-1.3 3.01-1.31-3.01z" fill="#fff"/><path d="m529.91 311.4-1.91 4.41-1.91-4.41 1.31-3.01h1.2zm-1.91 44.23-15.42 9.12 1.04-4.7 12.6-7.44 1.78-1.05 1.78 1.05 12.6 7.44 1.04 4.7z" fill="#fff"/><path d="m529.78 358.64-1.78 1.05-1.78-1.05zm-1.78-51.64.6 1.39h-1.2z" fill="#fff"/><path d="m512.58 364.75 15.42-9.12 15.42 9.12.72 3.2-.56.95-15.58-9.21 1.78-1.05h-3.56l1.78 1.05-15.58 9.21-.56-.95zm14.82-56.36-1.31 3.01-1.3-3.01zm-2.61-2.78 3.21-7.42 3.21 7.42 1.01 2.34-1.01.44h-2.61l-.6-1.39-.6 1.39h-2.61l-1.01-.44zm-2.6 23.63-.83 1.9-2.06.19-14.57 1.38-3.6-3.17 17.84-1.69 7.12-16.45 1.91 4.41z" fill="#fff"/><path d="m518.64 324.36-2.88 2.1.82-1.9z" fill="#fff"/><path d="m526.09 311.4-7.12 16.45-17.84 1.69-2.46-2.17-.1-1.1 18.01-1.71-.82 1.9 2.88-2.1-2.06.2 7.2-16.61 1.01.44zm-12.69 33.62-13.44-11.86 4.77-.45 10.98 9.68 1.55 1.37-.45 2.02-3.19 14.27-4.13 2.45zm-3.91 17.48 4.13-2.45-1.04 4.7-2.83 1.67-.98-.71z" fill="#fff"/><path d="m512.58 364.75-.72 3.2-2.11-1.53zm-1.5-17.11-1.1-3.39-.45 2.02-13.58-11.96.74-.84 3.27-.31 13.44 11.86-3.91 17.48-2.83 1.67-1.07-.24 3.94-17.66z" fill="#fff"/><path d="m509.98 344.25 1.1 3.39-1.55-1.37zm-1.21 21.46.98.71-1.31.77zm.72-3.21-.72 3.21-2.11-1.54z" fill="#fff"/><path d="m505.03 366.42.56-2.49 1.07.24 2.11 1.54-.33 1.48 1.31-.77 2.11 1.53.56.95-2.19 1.3-6.96 4.11zm-.3-33.71-4.77.45-2.47-2.17.38-1.14 3.26-.31z" fill="#fff"/><path d="m498.67 327.37 2.46 2.17-3.26.31zm1.29 5.79-3.27.31.8-2.48zm-2.09-3.31-.38 1.14-1.13-1z" fill="#fff"/><path d="m496.03 326.51 2.54-.24.1 1.1-.8 2.48-1.51.14 1.13 1-.8 2.48-.74.84-1.91-1.69-6.06-5.35z" fill="#fff"/><path d="m475.18 152.57v3.94l-92.53 56.15h-16.26v-.7l97.08-58.6v-.79z" fill="#ed1e29"/><path d="m475.18 173.54v39.12h-67.63v-.7l67.53-38.42z" fill="#394ea1"/><path d="m361.12 333.96v1.04h-15.83v-70.2h129.89v14.41h-114.06v6.72z" fill="#fff"/><path d="m475.18 279.21v36.5h-.1l-61.2-35.54v-.96h61.2z" fill="#394ea1"/><path d="m413.88 279.21v.96l61.2 35.54h.1v9.61h-.1l-75.97-45.15v-.96z" fill="#fff"/><path d="m475.08 325.32h.1v9.68l-95.07-54.83v-.96h19v.96z" fill="#ed1e29"/><path d="m450.81 153.36-88.64 52.84h-1.05v-53.63h89.69z" fill="#394ea1"/><path d="m568.04 259.61 1.92 1.69 13.57 11.97-3.94 17.66-.56 2.49-1.761 7.89 6.961-4.11 2.189-1.3 15.58-9.21 15.58 9.21 2.189 1.3 6.961 4.11-1.761-7.89-.56-2.49-3.94-17.66 13.57-11.97 1.92-1.69 6.06-5.34-8.05-.76-2.54-.24-18.01-1.71-7.2-16.61-1.01-2.34-3.21-7.42-3.21 7.42-1.01 2.34-7.2 16.61-18.01 1.71-2.54.24-8.05.76zm-12.54 172.96 2.36 2.08 16.729 14.76-4.85 21.76-.69 3.08-2.18 9.72 8.58-5.069 2.71-1.601 19.2-11.35 19.199 11.35 2.71 1.601 8.58 5.069-2.18-9.72-.689-3.08-4.851-21.76 16.73-14.76 2.359-2.08 7.471-6.59-9.921-.94-3.13-.3-22.199-2.1-8.87-20.47-1.25-2.88-3.96-9.15-3.96 9.15-1.25 2.88-8.86 20.47-22.21 2.1-3.13.3-9.92.94zm-274.86-97.57h194.539v-182.43h-114.059v-1.73h376.56v358.83h-564.57v-174.74l12.84.01h9.5zm423.32-18.38 6.06-5.35-8.05-.76-2.54-.24-18.01-1.71-7.2-16.61-1.01-2.34-3.21-7.42-3.21 7.42-1.01 2.34-7.2 16.61-18.01 1.71-2.54.24-8.05.76 6.06 5.35 1.91 1.69 13.58 11.96-3.94 17.66-.56 2.49-1.761 7.89 6.961-4.11 2.189-1.3 15.58-9.21 15.58 9.21 2.189 1.3 6.961 4.11-1.761-7.89-.56-2.49-3.94-17.66 13.58-11.96zm-142 16 6.06-5.35-8.05-.76-2.54-.24-18.01-1.71-7.2-16.61-1.01-2.34-3.21-7.42-3.21 7.42-1.01 2.34-7.2 16.61-18.01 1.71-2.54.24-8.05.76 6.06 5.35 1.91 1.69 13.58 11.96-3.94 17.66-.56 2.49-1.761 7.89 6.961-4.11 2.189-1.3 15.58-9.21 15.58 9.21 2.189 1.3 6.961 4.11-1.761-7.89-.56-2.49-3.94-17.66 13.58-11.96z" fill="#394ea1"/><path d="m447.65 335h-86.53v-49.07l86.53 48.03z" fill="#394ea1"/><path d="m407.55 211.96v.7h-24.9l92.53-56.15v17.03h-.1z" fill="#fff"/><path d="m366.39 212.66h108.79v14.41h-129.89v-74.5h15.83v60.09zm13.72 66.55v.96l95.07 54.83h-27.53v-1.04l-86.53-48.03v-6.72z" fill="#fff"/><path d="m366.39 211.96v.7h-5.27v-6.46h1.05l88.64-52.84v-.79h12.66v.79zm-21.1-61.12h15.83v1.73h-15.83z" fill="#fff"/><path d="m345.29 333v2h-49.88v-71.16h-122.3v-35.81h120.19v-75.46h51.99v74.5h129.89v37.73h-129.89z" fill="#ed1e29"/><path d="m295.41 335h-14.77v-57.72h-107.53v-13.44h122.3v71.08zm-2.11-182.43v75.46h-120.19v-14.41h104.36v-61.05zm51.99 0h-67.82v-1.73h67.82z" fill="#fff"/><path d="m280.64 282.71v8.02h-1.83l-83.36 44.19v.02h-9.5v-1.94l93.98-50.29z" fill="#fff"/><path d="m278.81 290.73h1.83v44.27l-85.19-.06v-.02z" fill="#394ea1"/><path d="m269.31 277.28h11.33v5.43h-.71l-93.98 50.29v1.94l-12.84-.01v-6.64l96.2-50.04z" fill="#ed1e29"/><path d="m277.47 152.57v55.55h-.77l-80.2-54.76v-.79z" fill="#394ea1"/><path d="m361.12 150.84h-188.01v-10.5h564.57v10.5z" fill="#231f20"/><path d="m269.31 278.25-96.2 50.04v-14.85l68.77-36.16h27.43z" fill="#fff"/><path d="m258.76 213.62h-18.99v-.7l-66.66-43.97v-12.68l85.65 56.65z" fill="#ed1e29"/><path d="m241.88 277.28-68.77 36.16v-36.16z" fill="#394ea1"/><path d="m239.77 213.62h-12.67v-.7l-53.99-35.35v-8.62l66.66 43.97z" fill="#fff"/><path d="m227.1 213.62h-53.99v-36.05l53.99 35.35z" fill="#394ea1"/><path d="m277.47 208.12v5.5h-18.71v-.7l-85.65-56.65v-3.7h23.39v.79l80.2 54.76zm-80.97-55.55h-23.39v-1.73h104.36v1.73z" fill="#fff"/><path d="m173.11 115h7.09a43.28 43.28 0 0 1 -7.09 5.68zm-4.55 405.17h4.55v10.5h-4.55z" fill="#231f20"/><path d="m168.56 509.67h4.55v10.5h-4.55z" fill="#231f20"/><path d="m173.11 334.93v174.74h-4.55v10.5l-1.7-185.25z" fill="#231f20"/><path d="m173.11 328.29v6.64l-6.25-.01-.03-3.37z" fill="#ed1e29"/><path d="m173.11 277.28v36.16l-6.15 3.23h-.27l-.36-39.39z" fill="#394ea1"/><path d="m173.11 263.84v13.44h-6.78l-.11-11.78v-1.66z" fill="#fff"/><path d="m166.22 228.03h6.89v35.81h-6.89z" fill="#ed1e29"/><path d="m166.22 213.62h6.89v14.41h-6.89zm6.89-61.05v3.7l-5.59-3.7z" fill="#fff"/><path d="m166.22 150.84h-1.05l-.1-10.5h8.04v10.5zm-1.15-21h8.04v10.5h-8.04zm8.04-14.84v5.68c-3.17 2.06-6.69 3.8-10.5 5.17v-10.85zm0-2.4v2.4h-10.5v-.58c1.19-.56 2.34-1.16 3.43-1.82zm-10.5 0h-10.5v2.4h-19.61v-1.02l-10.5.02h-1.63c-10.08-5.02-16.7-13.46-16.7-23.03 0-15.4 17.13-27.88 38.25-27.88 21.13 0 38.26 12.48 38.26 27.88 0 8.73-5.51 16.53-14.14 21.63zm-20.69-4.25c14.79 0 27.76-8.12 27.76-17.38s-12.97-17.38-27.76-17.38c-14.78 0-27.75 8.12-27.75 17.38s12.97 17.38 27.75 17.38zm25.6 44.22h-1.3v-1.73h6.89v1.73z" fill="#231f20"/><path d="m166.22 152.57h1.3l5.59 3.7v12.68l-6.15-4.06h-.74z" fill="#ed1e29"/><path d="m166.96 164.89 6.15 4.06v8.62l-6.15-4.03h-.74v-8.65z" fill="#fff"/><path d="m166.22 173.54h.74l6.15 4.03v36.05h-6.89z" fill="#394ea1"/><path d="m166.69 316.67h.27l6.15-3.23v14.85l-6.28 3.26z" fill="#fff"/><path d="m166.83 331.55.03 3.37h-.64v-3.05z" fill="#ed1e29"/><path d="m166.33 277.28.36 39.39h-.47v-39.39z" fill="#394ea1"/><path d="m166.69 316.67.14 14.88-.61.32v-15.2zm-.47-51.17.11 11.78h-.11z" fill="#fff"/><path d="m166.2 263.84-1.03-113h1.05v113zm.02 0v1.66l-.02-1.66zm-3.61-151.24h3.43c-1.09.66-2.24 1.26-3.43 1.82zm2.46 27.74.1 10.5h-.1z" fill="#231f20"/><path d="m166.22 334.92h.64l1.7 185.25v10.5h4.55v254.71h-10.5v-659.53c3.81-1.37 7.33-3.11 10.5-5.17v9.16h-8.04v21h.1l1.03 113 .02 1.66z" fill="#231f20"/><path d="m162.61 125.85v659.53h-10.5v-656.84c3.68-.59 7.2-1.5 10.5-2.69z" fill="#231f20"/><path d="m162.61 115v10.85c-3.3 1.19-6.82 2.1-10.5 2.69v-10.7c3.26-.65 6.35-1.61 9.19-2.84z" fill="#231f20"/><path d="m162.61 114.42v.58h-1.31c.45-.18.88-.38 1.31-.58z" fill="#231f20"/><path d="m162.61 112.6v1.82c-.43.2-.86.4-1.31.58h-9.19v-2.4z" fill="#231f20"/><path d="m141.92 73.59c14.79 0 27.76 8.12 27.76 17.38s-12.97 17.38-27.76 17.38c-14.78 0-27.75-8.12-27.75-17.38s12.97-17.38 27.75-17.38z" fill="#c8c8c8"/><path d="m152.11 115h9.19c-2.84 1.23-5.93 2.19-9.19 2.84zm0 2.84v10.7c-3.27.53-6.68.81-10.19.81-3.22 0-6.37-.23-9.4-.69l-.01-10.67c3.01.57 6.16.86 9.41.86 3.53 0 6.95-.35 10.19-1.01z" fill="#231f20"/><path d="m152.11 115v2.84c-3.24.66-6.66 1.01-10.19 1.01-3.25 0-6.4-.29-9.41-.86l-.01-2.99zm-19.59 13.66 1.1 656.7-10.5.02-1.1-659.26c3.31 1.14 6.83 2 10.5 2.54z" fill="#231f20"/><path d="m132.51 117.99.01 10.67c-3.67-.54-7.19-1.4-10.5-2.54l-.02-11.12h.54c3.07 1.33 6.42 2.35 9.97 2.99z" fill="#231f20"/><path d="m132.5 115 .01 2.99c-3.55-.64-6.9-1.66-9.97-2.99zm0-1.02v1.02h-9.96c-.18-.07-.36-.15-.54-.23v-.77zm-10.48 12.14 1.1 659.26-10.5.021-1.11-664.22c3.19 1.979 6.72 3.649 10.51 4.939z" fill="#231f20"/><path d="m122.54 115h-.54v-.23c.18.08.36.16.54.23zm-.54 0 .02 11.12c-3.79-1.29-7.32-2.96-10.51-4.94l-.01-6.18zm0-.23v.23h-10.5v-.98l8.87-.02c.53.27 1.08.53 1.63.77z" fill="#231f20"/><path d="m122 114v.77c-.55-.24-1.1-.5-1.63-.77z" fill="#231f20"/><path d="m103.67 90.97c0 9.57 6.62 18.01 16.7 23.03l-8.87.02v.98h-7.86c-6.58-6.54-10.47-14.86-10.47-24.03 0-21.52 21.42-38.38 48.75-38.38 27.34 0 48.76 16.86 48.76 38.38 0 9.17-3.89 17.49-10.48 24.03h-7.09v-2.4h-7.07c8.63-5.1 14.14-12.9 14.14-21.63 0-15.4-17.13-27.88-38.26-27.88-21.12 0-38.25 12.48-38.25 27.88zm7.83 24.03.01 6.18c-2.92-1.82-5.56-3.89-7.87-6.18z" fill="#231f20"/><g fill="none" stroke="#231f20"><path d="m282.94 335h-2.3l-85.19-.06h-9.5l-12.84-.01-6.25-.01h-2.01m2.67-182.35h307.66v182.43h-192.24m-116.72-187.4v190.2" stroke-width="10.572"/><g stroke-width="3.524"><path d="m476.14 227.07h-130.85v-76.59m-51.99.96v76.59h-127.4m0 35.81h129.51v71.08m49.88-1.92v-68.2h129.79"/><path d="m277.47 150.48v63.14h-111.57m310.24-.96h-115.02v-62.18m-196.27 126.8h115.79v56.68m80.48 0v-54.75h113.96m-278.58-125.85 80.2 54.76"/><path d="m167.52 152.57 5.59 3.7 85.65 56.65m-91.8-48.03 6.15 4.06 66.66 43.97m-72.81-39.38 6.15 4.03 53.99 35.35m135.07-6.72 88.64-52.84m-84.42 58.6 97.08-58.6m-81.25 59.56.43-.26 92.53-56.15 2.01-1.23m-69.64 56.68 67.53-38.42m-289.13 159.46 93.98-50.29m-114.03 49.33.32-.17.61-.32 6.28-3.26 96.2-50.04m9.5 12.48-83.36 44.19m-28.49-18.25 6.15-3.23 68.77-36.16m233.3 57.72-95.07-54.83m-18.99 5.76 86.53 48.03m-48.54-53.79 75.97 45.15m-61.2-45.15 61.2 35.54"/></g></g><path d="m0 0h850.394v850.394h-850.394z" fill="none"/></svg>