<svg height="850.394" viewBox="0 0 850.394 850.394" width="850.394" xmlns="http://www.w3.org/2000/svg"><path d="m162.61 518.17v267.21h-39.49l-1.12-670.61c5.8 2.59 12.62 4.08 19.92 4.08 7.62 0 14.73-1.63 20.69-4.43v23.92h-3.54l3.49 379.83z" fill="#c8c8c8"/><path d="m742.18 138.34v379.83h-190.18v-379.83z" fill="#394ea1"/><path d="m552 516v2.17h-194v-379.83h194zm-32.98-216.75c3.561-5.08 9.19-9.97 8.45-15.49-18.569 2.56-32.64 9.62-40.85 22.53 2.92.84 9.26-1.74 9.86 1.41-10.73 16.03-13.15 40.38-19.721 60.57-5.779.15-11.5.23-14.08-2.82v-64.79c3.17.68 10.54 4.35 12.67 1.41-9.59-11.54-13.399-28.86-22.529-40.85-3.11 17.09-16.87 31.02-19.721 43.66 2.25-2.44 6.341-3.05 11.271-2.81v64.79c-4.94.69-9.17 2.1-15.5 1.41-1.061-25.23-9.08-43.51-16.9-61.98 2.92-.83 9.25 1.74 9.86-1.41-10.1-10.09-25.35-22.52-43.66-19.71 22.65 23.82 35.89 57.06 38.03 101.41 9.6-1.2 17.87-3.72 28.17-4.23v39.44c3.8 2.77 12.3.84 18.31 1.41.931-13.15-1.87-30.04 1.41-40.85 10.29.51 18.561 3.03 28.17 4.23.51-37.71 12.2-66.5 26.76-87.33z" fill="#fbed24"/><path d="m527.47 283.76c.74 5.52-4.89 10.41-8.45 15.49-14.56 20.83-26.25 49.62-26.76 87.33-9.609-1.2-17.88-3.72-28.17-4.23-3.28 10.81-.479 27.7-1.41 40.85-6.01-.57-14.51 1.36-18.31-1.41v-39.44c-10.3.51-18.57 3.03-28.17 4.23-2.14-44.35-15.38-77.59-38.03-101.41 18.31-2.81 33.56 9.62 43.66 19.71-.61 3.15-6.94.58-9.86 1.41 7.82 18.47 15.839 36.75 16.9 61.98 6.33.69 10.56-.72 15.5-1.41v-64.79c-4.93-.24-9.021.37-11.271 2.81 2.851-12.64 16.61-26.57 19.721-43.66 9.13 11.99 12.939 29.31 22.529 40.85-2.13 2.94-9.5-.73-12.67-1.41v64.79c2.58 3.05 8.301 2.97 14.08 2.82 6.57-20.19 8.99-44.54 19.721-60.57-.601-3.15-6.94-.57-9.86-1.41 8.21-12.91 22.28-19.97 40.85-22.53z"/><path d="m358 514v4.17h-195.39v-379.83h195.39v5.66z" fill="#394ea1"/><path d="m162.61 114.42c-5.96 2.8-13.07 4.43-20.69 4.43-7.3 0-14.12-1.49-19.92-4.08-10.99-4.89-18.33-13.72-18.33-23.8 0-15.4 17.13-27.88 38.25-27.88 21.13 0 38.26 12.48 38.26 27.88 0 9.84-7 18.49-17.57 23.45z" fill="#c8c8c8"/><path d="m162.61 138.34v379.83h-.05l-3.49-379.83z" fill="#fff"/><g fill="none"><g stroke="#231f20"><path d="m159.07 138.34h583.11v379.83h-579.62" stroke-width="14"/><path d="m122 114.77c-10.99-4.89-18.33-13.72-18.33-23.8 0-15.4 17.13-27.88 38.25-27.88 21.13 0 38.26 12.48 38.26 27.88 0 9.84-7 18.49-17.57 23.45-5.96 2.8-13.07 4.43-20.69 4.43-7.3 0-14.12-1.49-19.92-4.08z" stroke-width="21"/><path d="m122 114v.77l1.12 670.61m39.49-672.78v672.78" stroke-width="21"/><path d="m358 144v370m194-374v376" stroke-width="14"/></g><path clip-rule="evenodd" d="m0 0h850.394v850.394h-850.394z"/></g></svg>