<svg height="850.89" viewBox="0 0 850.89 850.89" width="850.89" xmlns="http://www.w3.org/2000/svg"><path d="m748.43 410.25v110.17h-579.62l-.06-6.16 1.5-.01 138-102 10-.05v.05l.01-.05 429.99-1.95z" fill="#ed1e29"/><path d="m315.25 262.06v.19h-7l-2.1 2.39-140.83-124.05h583.11v121.66h-433.17z" fill="#34a047"/><path d="m748.43 262.25v148h-.18l-429.99 1.95.99-6.14-3.99-143.81h430.99z" fill="#fff"/><path d="m308.25 412.25-138 102-1.5.01-3.43-373.67 140.83 124.05 2.1-2.39h7l3 149.95z" fill="#231f20"/><path d="m319.25 406.06-.99 6.14h-.01l-3-149.95h.01zm-4-144 .01.19h-.01zm3.01 150.14-.01.05v-.05z" fill="#231f20"/><path d="m103.92 91.22c0-15.4 17.13-27.88 38.25-27.88 21.13 0 38.26 12.48 38.26 27.88 0 9.84-7 18.49-17.57 23.45-5.96 2.8-13.07 4.43-20.69 4.43-7.3 0-14.12-1.49-19.92-4.08-10.99-4.89-18.33-13.72-18.33-23.8z" fill="#c8c8c8"/><path d="m122.25 115.02c5.8 2.59 12.62 4.08 19.92 4.08 7.62 0 14.73-1.63 20.69-4.43v670.96h-39.49z" fill="#c8c8c8"/><g fill="none"><g stroke="#231f20"><path d="m165.32 140.59h583.11v379.83h-579.62m-46.56-405.4c-10.99-4.89-18.33-13.72-18.33-23.8 0-15.4 17.13-27.88 38.25-27.88 21.13 0 38.26 12.48 38.26 27.88 0 9.84-7 18.49-17.57 23.45-5.96 2.8-13.07 4.43-20.69 4.43-7.3 0-14.12-1.49-19.92-4.08z" stroke-width="21"/><path d="m122.25 114.25v.77l1.12 670.61m39.49-672.78v672.78" stroke-width="21"/><path d="m306.15 264.64-140.83-124.05m148.39 267.62-5.46 4.04-138 102m145.01-252h430.99m-438 150 10-.05h.01l429.99-1.95" stroke-width="14"/></g><path d="m.25.25h850.394v850.394h-850.394z"/></g></svg>