<svg height="850.394" viewBox="0 0 850.394 850.394" width="850.394" xmlns="http://www.w3.org/2000/svg"><path d="m748.18 177.46v342.71h-579.62l-3.49-379.83h583.11zm-204.98 158.97c0-43.32-35.19-78.43-78.601-78.43-43.41 0-78.6 35.11-78.6 78.43 0 43.31 35.19 78.42 78.6 78.42 43.411 0 78.601-35.11 78.601-78.42z" fill="#fff"/><path d="m162.61 114.42v670.96h-39.49l-1.12-670.61c5.8 2.59 12.62 4.08 19.92 4.08 7.62 0 14.73-1.63 20.69-4.43z" fill="#c8c8c8"/><path d="m543.2 336.43c0 43.31-35.19 78.42-78.601 78.42-43.41 0-78.6-35.11-78.6-78.42 0 0 46 61.57 78.6 0 .001 0 39.401-64.43 78.601 0z" fill="#394ea1"/><path d="m543.2 336.43c-39.2-64.43-78.601 0-78.601 0-32.6 61.57-78.6 0-78.6 0 0-43.32 35.19-78.43 78.6-78.43 43.411 0 78.601 35.11 78.601 78.43z" fill="#ed1e29"/><path d="m162.61 114.42c-5.96 2.8-13.07 4.43-20.69 4.43-7.3 0-14.12-1.49-19.92-4.08-10.99-4.89-18.33-13.72-18.33-23.8 0-15.4 17.13-27.88 38.25-27.88 21.13 0 38.26 12.48 38.26 27.88 0 9.84-7 18.49-17.57 23.45z" fill="#c8c8c8"/><g fill="none"><g stroke="#231f20"><path d="m165.07 140.34h583.11v379.83h-579.62m-46.56-405.4c-10.99-4.89-18.33-13.72-18.33-23.8 0-15.4 17.13-27.88 38.25-27.88 21.13 0 38.26 12.48 38.26 27.88 0 9.84-7 18.49-17.57 23.45-5.96 2.8-13.07 4.43-20.69 4.43-7.3 0-14.12-1.49-19.92-4.08z" stroke-width="21"/><path d="m122 114v.77l1.12 670.61m39.49-672.78v672.78" stroke-width="21"/><path d="m744.76 179.39 3.42-1.93 2.01-1.14" stroke-width="14"/><path d="m543.2 336.43c0 43.31-35.19 78.42-78.601 78.42-43.41 0-78.6-35.11-78.6-78.42 0-43.32 35.19-78.43 78.6-78.43 43.411 0 78.601 35.11 78.601 78.43zm-157.2 0s46 61.57 78.6 0m0 0s39.4-64.43 78.601 0" stroke-width="7"/><path d="m282 414 84 64m-46.05-107.87 81.51 63.95m-99.46-42.08 36 28m8 6 37.83 27.75m-38.45-265.9-71.38 68.15m115.72-25.07-67.72 65.07m44-90-70 70m272-70 74 74m-49.02-15.02 29.02 29.02m-72-72 32 32m41-27 35 35m-74-74 28 28m-19 207-29 29m70-70-31 31m-32.13-6.12-28.87 29.12m72.66-73.27-33.83 34.11m36.35 48.25-27.44 28.82m67.37-70.76-29.25 30.72" stroke-width="14"/></g><path d="m0 0h850.394v850.394h-850.394z"/><path d="m0 0h850.394v850.394h-850.394z"/></g></svg>