<svg height="850.394" viewBox="0 0 850.394 850.394" width="850.394" xmlns="http://www.w3.org/2000/svg"><path d="m152.11 128.54v656.84h-28.99l10.5-.02-1.1-656.7c3.03.46 6.18.69 9.4.69 3.51 0 6.92-.28 10.19-.81z" fill="#c8c8c8"/><path d="m758.68 520.17v10.5h-585.57v-10.5h575.07v-334.73l.03.05 5.43-3.08h5.04zm0-379.83v42.07h-5.04l-3.45-6.09-2.01-3.55v-32.43h-575.07v-10.5h585.57z" fill="#231f20"/><path d="m750.19 176.32 3.45 6.09-5.43 3.08-.03-.05v-7.98zm-2.01-3.55 2.01 3.55-2.01 1.14zm0 336.9v10.5h-10.5zm0-324.23v324.23h-10.5v-336.37h3.63l3.45 6.09zm0-7.98v7.98l-3.42-6.05z" fill="#231f20"/><path d="m748.18 172.77v4.69l-3.42 1.93-3.45-6.09 5.43-3.07z" fill="#231f20"/><path d="m748.18 150.84v21.93l-1.44-2.54-5.43 3.07h-3.63v-22.46zm0-10.5v10.5l-10.5-10.5zm0 369.33-10.5 10.5v-10.5z" fill="#231f20"/><path d="m748.18 150.84h-10.5v-10.5zm-575.07 358.83h564.57v10.5h-564.57z" fill="#231f20"/><path d="m458.99 152.42v-1.58h278.69v358.83h-564.57v-171.5h285.88zm274.66 190.55-11.99-14.1 2.83-19.92-14.82 9.41-14.82-9.41 2.83 19.92-11.989 14.1 16.569 2.91 7.41 18.12 7.41-18.12zm-14.44-138.88-2.14-2.38-11-12.21 2.6-17.29.561-3.67-3.19 1.91-13.37 8.01-13.38-8.01-3.19-1.91.561 3.67 2.6 17.3-11 12.2-2.14 2.38 3.16.52 15.02 2.48 6.76 15.61 1.61 3.71 1.6-3.71 6.761-15.61 15.02-2.48zm-47.41 38.92-2.27-2.52-11.65-12.94 2.75-18.32.59-3.89-3.38 2.02-14.17 8.49-14.18-8.49-3.38-2.02.59 3.89 2.76 18.32-11.66 12.94-2.27 2.52 3.35.56 15.92 2.64 7.16 16.53 1.71 3.93 1.7-3.93 7.16-16.53 15.93-2.64zm-54.65 28.66-2.2-2.43-11.24-12.49 2.66-17.69.56-3.75-3.26 1.95-13.68 8.2-13.69-8.2-3.26-1.95.57 3.75 2.659 17.69-11.25 12.49-2.189 2.43 3.229.54 15.37 2.54 6.91 15.96 1.65 3.8 1.64-3.8 6.92-15.96 15.37-2.54zm-48.89 102.85-2.439-2.49-11.63-11.91 2.739-16.84.59-3.63-3.21 1.78-14.31 7.9-14.31-7.9-3.221-1.78.601 3.63 2.739 16.84-11.63 11.91-2.439 2.49 3.439.53 16.021 2.44 7.18 15.27 1.62 3.44 1.62-3.44 7.18-15.27 16.021-2.44zm-1.34 74.23-2.06-2.29-10.591-11.75 2.5-16.66.54-3.54-3.069 1.84-12.88 7.71-12.891-7.71-3.069-1.84.54 3.54 2.5 16.66-10.591 11.75-2.06 2.29 3.04.5 14.47 2.4 6.51 15.02 1.551 3.57 1.54-3.57 6.51-15.02 14.47-2.4zm-68.56 25.8-2.32-2.58-11.94-13.27 2.82-18.76.6-3.99-3.449 2.069-14.53 8.7-14.521-8.7-3.46-2.069.601 3.99 2.83 18.77-11.95 13.26-2.32 2.58 3.431.57 16.31 2.7 7.34 16.939 1.74 4.021 1.75-4.021 7.34-16.939 16.311-2.7z" fill="#a8d7f4"/><path d="m737.68 140.34v10.5h-278.69v-2.52h-108.05v-7.98z" fill="#231f20"/><path d="m721.66 328.87 11.99 14.1-16.57 2.91-7.41 18.12-7.41-18.12-16.57-2.91 11.99-14.1-2.83-19.92 14.82 9.41 14.82-9.41z" fill="#fbed24"/><path d="m717.07 201.71 2.14 2.38-3.16.52-15.02 2.48.38-.87-1.32 1.03.94-.16-6.761 15.61-1.6 3.71-1.61-3.71-6.76-15.61.94.16-1.32-1.03.38.87-15.02-2.48-3.16-.52 2.14-2.38 11-12.2.12.81.44-1.43-.561.62-2.6-17.3-.561-3.67 3.19 1.91 13.38 8.01-.9.54h1.801l-.9-.54 13.37-8.01 3.19-1.91-.561 3.67-2.6 17.29-.551-.61.431 1.43.12-.82zm-1.3 1.17-.64-.71.351-1.01-1.101.18-10.16-11.28 2.38-15.87 1.24-.74-1.02-.68.12-.82-.71.42-1.021-.68-.21 1.43-12.33 7.38-12.34-7.39-.21-1.42-1.021.68-.71-.42.12.82-1.02.68 1.24.74 2.39 15.87-10.16 11.28-1.11-.18.36 1.01-.64.71.939.16.36 1.02.76-.84 13.9 2.3 6.18 14.27-.65 1.51h1.311l.3.7.3-.7h1.3l-.649-1.5 6.18-14.28 13.91-2.3.76.84.36-1.02z" fill="#231f20"/><path d="m715.13 202.17.64.71-.94.16zm.35-1.01-.35 1.01-.75-.83z" fill="#231f20"/><path d="m714.38 201.34.75.83-.3.87-1.12.18-1.38-1.54z" fill="#231f20"/><path d="m714.83 203.04-.36 1.02-.76-.84zm-10.61-12.98 10.16 11.28-2.05.34-9.41-10.45-.56-.61.12-.82 2.18-14.44 1.94-1.17zm8.11 11.62 1.38 1.54-13.91 2.3-6.18 14.28-.95-2.2 5.53-12.77.38-.88.94-.15z" fill="#231f20"/><path d="m712.33 201.68-12.81 2.12-.94.15-.38.88-5.53 12.77-5.53-12.77-.38-.88-.94-.15-12.81-2.12 9.41-10.45.55-.61-.12-.82-2.18-14.44 11.1 6.64.9.54.9-.54 11.09-6.64-2.18 14.44-.12.82.56.61z" fill="#fbed24"/><path d="m707.84 173.45-1.24.74.22-1.42zm-.9-1.5-.12.82-.59-.4z" fill="#231f20"/><path d="m706.23 172.37.59.4-.22 1.42-1.94 1.17.34-2.24z" fill="#231f20"/><path d="m706.23 172.37-1.23.75.21-1.43zm-.16 17.13-.12.82-.43-1.43zm-1.07-16.38-.34 2.24-11.09 6.64-.9.54-.9-.54-11.1-6.64-.34-2.25 12.34 7.39zm-3.59 33.1-.38.87-.94.16zm-7.79 13.58.65 1.5h-1.3zm-.95-2.2.95 2.2-.65 1.5h-.6l-.66-1.51z" fill="#231f20"/><path d="m693.57 179h-1.8l.9-.54zm-.6 42.3-.3.7-.3-.7zm-5.83-16.47 5.53 12.77-.96 2.19-6.18-14.27-13.9-2.3 1.38-1.54 12.81 2.12.94.15zm5.23 16.47h-1.31l.65-1.51z" fill="#231f20"/><path d="m685.24 207.25-.94-.16-.38-.87zm-2.39-17.45.12.82-.55.61-9.41 10.45-2.05-.34 10.16-11.28-2.39-15.87 1.94 1.17z" fill="#231f20"/><path d="m680.67 175.36-1.94-1.17-.22-1.42.59-.4 1.23.74zm-.55-3.67.21 1.42-1.23-.74zm-.3 17.2-.44 1.43-.12-.81z" fill="#231f20"/><path d="m679.1 172.37-.59.4-.12-.82zm-.59.4.22 1.42-1.24-.74zm-5.5 28.91-1.38 1.54-1.12-.18-.3-.87.75-.83zm-3.48 38.81 2.27 2.52-3.34.56-15.93 2.64.399-.94-1.399 1.1 1-.16-7.16 16.53-1.7 3.93-1.71-3.93-7.16-16.53 1 .16-1.399-1.1.399.94-15.92-2.64-3.35-.56 2.27-2.52 11.66-12.94.13.87.45-1.52-.58.65-2.76-18.32-.59-3.89 3.38 2.02 14.18 8.49-.96.57h1.91l-.95-.57 14.17-8.49 3.38-2.02-.59 3.89-2.75 18.32-.59-.65.46 1.52.13-.87zm-1.38 1.25-.681-.75.38-1.08-1.17.19-10.77-11.96 2.53-16.82 1.31-.78-1.08-.72.13-.87-.75.45-1.09-.73-.229 1.52-13.061 7.82-13.07-7.82-.229-1.52-1.09.73-.75-.45.13.87-1.08.72 1.31.78 2.53 16.82-10.77 11.96-1.17-.19.38 1.08-.681.75 1 .17.38 1.07.79-.88 14.75 2.44 6.551 15.12-.69 1.6h1.39l.32.74.32-.74h1.38l-.69-1.59 6.551-15.13 14.75-2.44.789.88.381-1.07z" fill="#231f20"/><path d="m671.63 203.22-.76.84-.36-1.02zm-.67-1.88-.75.83-.36-1.01zm-.45 1.7-.94-.16.64-.71zm-3.04 37.95.68.75-1 .17zm.38-1.08-.38 1.08-.79-.89zm-1.17.19.79.89-.32.92-1.17.19-1.48-1.64zm.47 1.81-.38 1.07-.79-.88z" fill="#231f20"/><path d="m666.68 240.1-2.18.36-9.97-11.07-.59-.66.13-.86 2.3-15.31 2.07-1.24-2.53 16.82zm-.7 2-14.75 2.44-6.55 15.13-1.01-2.34 5.86-13.53.4-.93 1-.16 13.57-2.25z" fill="#231f20"/><path d="m654.53 229.39 9.97 11.07-13.57 2.25-1 .16-.4.93-5.86 13.53-5.87-13.53-.4-.93-1-.16-13.57-2.25 9.97-11.07.59-.66-.13-.86-2.3-15.31 11.75 7.05.96.57.95-.57 11.75-7.05-2.3 15.31-.13.86z" fill="#fbed24"/><path d="m659.75 210.54-1.31.78.23-1.5zm-.95-1.59-.13.87-.62-.42z" fill="#231f20"/><path d="m658.05 209.4.62.42-.23 1.5-2.07 1.24.36-2.37z" fill="#231f20"/><path d="m658.05 209.4-1.32.79.23-1.52zm-.17 18.15-.13.87-.46-1.52zm-1.15-17.36-.36 2.37-11.75 7.05-.95.57-.96-.57-11.75-7.05-.36-2.37 13.07 7.82zm-3.8 35.08-.4.94-1 .16zm-8.25 14.4.69 1.59h-1.38zm-1.01-2.34 1.01 2.34-.69 1.59h-.64l-.7-1.6z" fill="#231f20"/><path d="m644.62 216.42h-1.91l.96-.57zm-.63 44.84-.32.74-.32-.74zm-.32-3.93-1.02 2.33-6.55-15.12-14.75-2.44 1.48-1.64 13.57 2.25 1 .16.4.93z" fill="#231f20"/><path d="m642.65 259.66.7 1.6h-1.39zm-6.85-13.29-1-.16-.4-.94zm-2.54-18.5.13.86-.59.66-9.97 11.07-2.18-.36 10.77-11.96-2.53-16.82 2.07 1.24z" fill="#231f20"/><path d="m630.96 212.56-2.07-1.24-.23-1.5.62-.42 1.32.79z" fill="#231f20"/><path d="m630.37 208.67.23 1.52-1.32-.79zm-.33 18.23-.45 1.52-.13-.87zm-.76-17.5-.62.42-.13-.87zm-.62.42.23 1.5-1.31-.78zm-5.83 30.64-1.48 1.64-1.17-.19-.32-.92.79-.89z" fill="#231f20"/><path d="m621.35 242.1-.79.88-.38-1.07zm-.7-2-.79.89-.38-1.08zm-.79.89.32.92-1-.17zm-4.91 28.25 2.2 2.43-3.23.54-15.37 2.54.391-.89-1.36 1.05.97-.16-6.92 15.96-1.64 3.8-1.65-3.8-6.91-15.96.96.16-1.35-1.05.39.89-15.37-2.54-3.229-.54 2.189-2.43 11.25-12.49.131.84.439-1.47-.57.63-2.659-17.69-.57-3.75 3.26 1.95 13.69 8.2-.92.55h1.84l-.92-.55 13.68-8.2 3.26-1.95-.56 3.75-2.66 17.69-.57-.63.44 1.47.13-.84zm-1.33 1.2-.65-.73.36-1.04-1.13.19-10.391-11.54 2.44-16.23 1.27-.76-1.05-.7.12-.83-.72.43-1.05-.7-.221 1.46-12.609 7.55-12.62-7.55-.22-1.46-1.051.7-.72-.43.13.83-1.05.7 1.26.76 2.45 16.23-10.39 11.54-1.13-.19.359 1.04-.649.73.97.16.36 1.04.77-.85 14.23 2.35 6.319 14.6-.67 1.55h1.34l.311.71.31-.71h1.33l-.67-1.54 6.33-14.61 14.229-2.35.771.85.36-1.04z" fill="#231f20"/><path d="m612.97 269.71.65.73-.97.16z" fill="#231f20"/><path d="m613.33 268.67-.36 1.04-.77-.85z" fill="#231f20"/><path d="m612.97 269.71-.32.89-1.13.19-1.42-1.58 2.1-.35zm-.32.89-.36 1.04-.77-.85z" fill="#231f20"/><path d="m612.2 268.86-2.1.35-9.63-10.69-.56-.63.12-.84 2.22-14.76 2-1.2-2.44 16.23z" fill="#231f20"/><path d="m610.1 269.21 1.42 1.58-14.23 2.35-6.33 14.61-.97-2.26 5.66-13.06.39-.89.96-.16z" fill="#231f20"/><path d="m600.47 258.52 9.63 10.69-13.1 2.17-.96.16-.39.89-5.66 13.06-5.66-13.06-.39-.89-.96-.16-13.1-2.17 9.62-10.69.57-.63-.13-.84-2.23-14.77 11.36 6.8.92.55.92-.55 11.34-6.79-2.22 14.76-.12.84z" fill="#fbed24"/><path d="m605.52 240.33-1.27.76.22-1.46z" fill="#231f20"/><path d="m604.59 238.8-.12.83-.6-.4z" fill="#231f20"/><path d="m604.47 239.63-.22 1.46-2 1.2.35-2.3 1.27-.76z" fill="#231f20"/><path d="m603.87 239.23-1.27.76.22-1.46zm-.16 17.52-.13.84-.44-1.47zm-1.11-16.76-.35 2.3-11.34 6.79-.92.55-.92-.55-11.36-6.8-.34-2.29 12.62 7.55zm-3.66 33.87-.39.89-.97.16zm-7.98 13.89.67 1.54h-1.33z" fill="#231f20"/><path d="m589.99 285.49.97 2.26-.66 1.54h-.62l-.67-1.55zm.92-39.48h-1.84l.92-.55zm-.61 43.28-.31.71-.31-.71zm-.31-3.8-.98 2.25-6.32-14.6-14.23-2.35 1.42-1.58 13.1 2.17.96.16.39.89zm-.98 2.25.67 1.55h-1.34z" fill="#231f20"/><path d="m582.39 274.91-.96-.16-.39-.89zm-2.45-17.86.13.84-.57.63-9.62 10.69-2.1-.35 10.39-11.54-2.45-16.23 1.99 1.19zm-2.57-17.06.34 2.29-1.99-1.19-.21-1.46.59-.4z" fill="#231f20"/><path d="m577.15 238.53.22 1.46-1.27-.76zm-.31 17.59-.44 1.47-.13-.84zm-.74-16.89-.59.4-.13-.83zm-.38 1.86-1.26-.76 1.05-.7zm-5.84 28.12-1.42 1.58-1.13-.19-.32-.89.77-.85zm-1.42 1.58-.77.85-.36-1.04zm-2.64 101.24 2.439 2.49-3.439.53-16.021 2.44.4-.86-1.351 1 .95-.14-7.18 15.27-1.618 3.44-1.62-3.44-7.18-15.27.95.14-1.351-1 .4.86-16.021-2.44-3.439-.53 2.439-2.49 11.63-11.91.15.89.49-1.54-.641.65-2.739-16.84-.601-3.63 3.221 1.78 14.31 7.9-.86.47h1.721l-.86-.47 14.31-7.9 3.21-1.78-.59 3.63-2.739 16.84-.641-.65.49 1.54.15-.89zm-1.27 1.25-.64-.66.37-1.11-1.271.19-10.74-10.98 2.53-15.48 1.23-.68-1-.71.14-.86-.76.42-1-.71-.23 1.39-13.179 7.27-13.18-7.27-.23-1.39-1 .71-.76-.42.14.86-1 .71 1.23.68 2.53 15.48-10.74 10.98-1.271-.19.37 1.11-.64.66.91.14.37 1.11.899-.92 14.79 2.26 6.59 14.03-.63 1.34h1.26l.362.76.36-.76h1.26l-.63-1.34 6.59-14.03 14.79-2.26.899.92.37-1.11z" fill="#231f20"/><path d="m567.78 268.86-.77.85-.36-1.04z" fill="#231f20"/><path d="m567.33 270.6-.97-.16.65-.73zm-2.47 175.86 2.06 2.29-3.04.5-14.47 2.4.37-.851-1.28 1 .91-.149-6.51 15.02-1.54 3.57-1.551-3.57-6.51-15.02.91.149-1.28-1 .37.851-14.47-2.4-3.04-.5 2.06-2.29 10.591-11.75.119.78.421-1.38-.54.6-2.5-16.66-.54-3.54 3.069 1.84 12.891 7.71-.87.52h1.729l-.859-.52 12.88-7.71 3.069-1.84-.54 3.54-2.5 16.66-.539-.6.42 1.38.119-.78zm-1.25 1.13-.62-.689.34-.98-1.07.18-9.779-10.859 2.3-15.29 1.189-.71-.979-.66.12-.79-.69.41-.979-.66-.21 1.38-11.87 7.11-11.88-7.12-.211-1.37-.979.66-.69-.41.12.79-.979.66 1.189.71 2.301 15.29-9.78 10.859-1.07-.18.351.99-.62.68.909.15.341.979.72-.8 13.4 2.21 5.96 13.75-.631 1.45h1.261l.29.67.29-.67h1.25l-.62-1.44 5.95-13.76 13.399-2.21.72.8.341-.979zm.3-74.97.64.66-.91.14zm.37-1.11-.37 1.11-.9-.92z" fill="#231f20"/><path d="m563.91 372.62-.27.8-1.27.19-1.54-1.57 2.18-.34z" fill="#231f20"/><path d="m563.64 373.42-.37 1.11-.9-.92zm-.65 73.48.62.69-.92.15z" fill="#231f20"/><path d="m563.33 445.92-.34.98-.73-.8zm-.32-74.22-2.18.34-9.83-10.07-.64-.64.15-.9 2.31-14.1 1.98-1.09-2.53 15.48z" fill="#231f20"/><path d="m562.99 446.9-.3.84-1.06.18-1.34-1.5 1.97-.32zm-.3.84-.34.98-.72-.8zm-1.86-75.7 1.54 1.57-14.79 2.26-6.59 14.03-.99-2.1 5.97-12.69.4-.87.94-.14z" fill="#231f20"/><path d="m552.48 435.24 9.78 10.86-1.97.32-9.06-10.06-.54-.59.12-.79 2.1-13.9 1.87-1.13zm7.81 11.18 1.34 1.5-13.4 2.21-5.95 13.76-.92-2.13 5.32-12.3.37-.84.9-.15z" fill="#231f20"/><path d="m551 361.97 9.83 10.07-13.52 2.06-.94.14-.4.87-5.97 12.69-5.97-12.69-.4-.87-.95-.14-13.51-2.06 9.83-10.07.64-.64-.15-.9-2.31-14.1 11.96 6.6.86.47.86-.47 11.96-6.6-2.31 14.1-.15.9zm9.29 84.45-12.34 2.05-.9.15-.37.84-5.32 12.3-5.33-12.3-.37-.84-.9-.15-12.34-2.05 9.06-10.06.54-.59-.12-.79-2.1-13.9 10.69 6.4.87.52.86-.52 10.69-6.4-2.1 13.9-.12.79.54.59z" fill="#fbed24"/><g fill="#231f20"><path d="m556.03 344.56-1.23.68.23-1.39zm-.06 74.68-1.19.71.21-1.37zm-.8-76.25-.14.86-.62-.44z"/><path d="m555.11 417.79-.12.79-.57-.38zm-.08-73.94-.23 1.39-1.98 1.09.36-2.24 1.23-.68z"/><path d="m554.99 418.58-.21 1.37-1.87 1.13.32-2.16 1.19-.72zm-.57-.38-1.19.72.21-1.38zm-.01-74.79-1.23.68.23-1.39zm-.68 90.7.54.6-.12.78zm.46-73.99-.15.89-.49-1.54z"/><path d="m553.23 418.92-.32 2.16-10.69 6.4-.86.52-.87-.52-10.69-6.4-.32-2.17 11.88 7.12zm-.05-74.83-.36 2.24-11.96 6.6-.86.47-.86-.47-11.96-6.6-.36-2.24 13.18 7.27zm-3.4 106.71-.37.85-.91.15zm-.58-74.17-.4.86-.95.14zm-6.92 87.26.62 1.44h-1.25z"/><path d="m542.28 463.89-.63 1.44h-.58l-.63-1.45.92-2.12zm-.06-39.31h-1.73l.87-.52zm-.57 40.75-.29.67-.29-.67zm-.66-75.43.63 1.34h-1.26z"/><path d="m541.36 461.76-.92 2.12-5.96-13.75-13.4-2.21 1.34-1.5 12.34 2.05.9.15.37.84zm-.92 2.12.63 1.45h-1.26zm-.44-76.08.99 2.1-.63 1.34h-.72l-.63-1.34zm.86-38h-1.72l.86-.47zm-.5 41.44-.36.76-.36-.76z"/><path d="m534.03 375.11 5.97 12.69-.99 2.1-6.59-14.03-14.79-2.26 1.54-1.57 13.51 2.06.95.14z"/><path d="m539.01 389.9.63 1.34h-1.26zm-4.8 61.9-.91-.15-.37-.85zm-2.06-74.17-.95-.14-.4-.86zm-.25 57.35.12.79-.54.59-9.06 10.06-1.97-.32 9.78-10.86-2.3-15.29 1.87 1.13z"/><path d="m529.8 421.08-1.87-1.13-.21-1.37.57-.38 1.19.71zm-.31-60.65.15.9-.64.64-9.83 10.07-2.18-.34 10.74-10.98-2.53-15.48 1.98 1.09z"/><path d="m529.27 417.54.21 1.37-1.19-.71zm-.29 16.57-.42 1.38-.12-.78zm-.69-15.91-.57.38-.12-.79zm-.36 1.75-1.19-.71.98-.66zm-1.11-75.86.36 2.24-1.98-1.09-.23-1.39.62-.44zm-.23-1.39.23 1.39-1.23-.68zm-.14 16.77-.49 1.54-.15-.89z"/><path d="m525.59 343.41-.62.44-.14-.86zm-.62.44.23 1.39-1.23-.68zm-2.55 102.57-1.34 1.5-1.06-.18-.29-.83.72-.81z"/><path d="m520.02 447.74 1.06.18-.72.8zm.43-1.64-.72.81-.35-.99zm-.72.81.29.83-.91-.15zm-.56-74.87-1.54 1.57-1.27-.19-.27-.8.9-.92z"/><path d="m517.63 373.61-.9.92-.37-1.11zm-.64-1.91-.9.92-.37-1.11zm-.9.92.27.8-.91-.14zm-20.05 99.35 2.32 2.58-3.42.57-16.311 2.7.41-.95-1.44 1.12 1.03-.17-7.34 16.939-1.75 4.021-1.74-4.021-7.34-16.939 1.021.17-1.431-1.12.41.95-16.31-2.7-3.431-.57 2.32-2.58 11.95-13.26.13.89.47-1.56-.6.67-2.83-18.77-.601-3.99 3.46 2.069 14.521 8.7-.98.59h1.96l-.979-.59 14.53-8.7 3.449-2.069-.6 3.99-2.82 18.76-.6-.66.46 1.56.14-.899zm-1.41 1.27-.7-.771.391-1.1-1.2.2-11.04-12.25 2.59-17.221 1.35-.81-1.109-.75.13-.89-.771.46-1.109-.74-.23 1.55-13.39 8.021-13.39-8.021-.23-1.55-1.11.74-.77-.46.13.89-1.11.75 1.351.81 2.587 17.222-11.03 12.25-1.2-.2.381 1.1-.69.771 1.021.17.39 1.1.81-.899 15.11 2.5 6.72 15.5-.71 1.63h1.41l.33.76.33-.76h1.42l-.71-1.641 6.71-15.489 15.11-2.5.81.899.39-1.1z"/><path d="m493.93 472.47.7.77-1.03.17zm.39-1.1-.39 1.1-.81-.9z"/><path d="m493.12 471.57.81.9-.33.94-1.2.2-1.51-1.67zm.48 1.84-.39 1.1-.81-.9z"/><path d="m482.08 459.32 11.04 12.25-2.23.37-10.22-11.35-.6-.67.13-.89 2.36-15.67 2.11-1.26zm10.32 14.29-15.11 2.5-6.71 15.49-1.03-2.39 6-13.86.41-.95 1.02-.17 13.91-2.29z"/></g><path d="m480.67 460.59 10.22 11.35-13.91 2.29-1.02.17-.41.95-6 13.86-6.01-13.86-.42-.95-1.02-.17-13.91-2.3 10.22-11.34.6-.67-.13-.89-2.36-15.67 12.04 7.21.98.59.98-.59 12.04-7.21-2.36 15.67-.13.89z" fill="#fbed24"/><path d="m486.02 441.29-1.35.81.24-1.56zm-.98-1.64-.13.89-.64-.43z" fill="#231f20"/><path d="m484.91 440.54-.24 1.56-2.11 1.26.37-2.44 1.34-.81z" fill="#231f20"/><path d="m484.27 440.11-1.34.81.23-1.55zm-.17 18.59-.14.9-.46-1.56zm-1.17-17.78-.37 2.44-12.04 7.21-.98.59-.98-.59-12.04-7.21-.37-2.44 13.39 8.02zm-3.89 35.95-.41.95-1.03.17zm-8.46 14.73.71 1.64h-1.42z" fill="#231f20"/><path d="m469.55 489.21 1.03 2.39-.71 1.64h-.66l-.7-1.63zm.97-41.9h-1.96l.98-.59zm-.65 45.93-.33.76-.33-.76z" fill="#231f20"/><path d="m469.55 489.21-1.04 2.4-6.72-15.5-15.11-2.5 1.51-1.68 13.91 2.3 1.02.17.42.95zm-1.04 2.4.7 1.63h-1.41z" fill="#231f20"/><path d="m461.48 477.99-1.02-.17-.41-.95zm-2.6-18.96.13.89-.6.67-10.22 11.34-2.22-.36 11.03-12.25-2.59-17.22 2.11 1.26z" fill="#231f20"/><path d="m458.99 328.09v10.08l-90.06-57.07v-1h18v1l71.97 46.99z" fill="#ed1e29"/><path d="m458.99 318.09v10h-.09l-71.97-46.99v-1h13.99v1l57.98 36.99z" fill="#fff"/><path d="m458.99 280.1v37.99h-.09l-57.98-36.99v-1h57.98z" fill="#394ea1"/><path d="m458.99 265.11v14.99h-108.05v58.07h-15v-73.06h122.96z" fill="#fff"/><path d="m458.99 225.85v39.26h-123.05v73.06h-47.25v-74.06h-115.58v-37.26h113.58v-76.01h49.25v75.01z" fill="#ed1e29"/><path d="m371.34 210.86h87.65v14.99h-123.05v-75.01h15v60.02h5z" fill="#fff"/><path d="m458.99 170.14v40.72h-64.07v-.73l63.98-39.99z" fill="#394ea1"/><path d="m458.99 152.42v17.72h-.09l-63.98 39.99v.73h-23.58z" fill="#fff"/><path d="m458.99 150.84v1.58l-87.65 58.44h-15.4v-.73l89.42-59.29zm0-2.52v2.52h-13.63l2.55-1.69v-.83z" fill="#ed1e29"/><path d="m458.99 338.17h-26.08v-1.08l-81.97-49.99v-7h17.99v1z" fill="#fff"/><path d="m456.15 440.92.37 2.44-2.11-1.26-.24-1.56.64-.43zm0 0-1.34-.81 1.11-.74zm-.56 17.12-.47 1.56-.13-.89z" fill="#231f20"/><path d="m454.81 440.11-.64.43-.13-.89zm-.64.43.24 1.56-1.35-.81zm-5.98 31.39-1.51 1.68-1.2-.2-.33-.94.82-.9z" fill="#231f20"/><path d="m447.91 148.32v.83l-2.55 1.69h-12.03l2.58-1.69v-.83z" fill="#fff"/><path d="m446.68 473.61-.81.9-.39-1.1zm-.71-2.04-.82.9-.38-1.1zm-.82.9.33.94-1.02-.17z" fill="#231f20"/><path d="m445.36 150.84-89.42 59.29v.73h-5v-6.73h1l81.39-53.29z" fill="#fff"/><path d="m435.91 148.32v.83l-2.58 1.69h-82.39v-2.52zm-2.58 2.52-81.39 53.29h-1v-53.29zm-.42 186.25v1.08h-81.97v-51.07z" fill="#394ea1"/><path d="m335.94 148.32h15v2.52h-15z" fill="#fff"/><path d="m286.69 148.32h-15v-7.98h79.25v7.98h-15zm0 0h49.25v2.52h-49.25z" fill="#231f20"/><path d="m288.69 338.09v.08h-14v-60.06h-101.58v-14h115.58zm-2-187.25v76.01h-113.58v-14.99h98.58v-61.02z" fill="#fff"/><path d="m271.69 148.32h15v2.52h-15z" fill="#231f20"/><path d="m274.69 337.09v1.08h-80.7v-.08l78.97-45.99h1.73z" fill="#394ea1"/><path d="m274.69 283.75v8.35h-1.73l-78.97 45.99v.08h-9v-2.08l89.03-52.34z" fill="#fff"/><path d="m274.69 278.11v5.64h-.67l-89.03 52.34v2.08h-11.88v-7.14l90.86-51.92v-1z" fill="#ed1e29"/><path d="m271.69 206.13v5.73h-17.72v-.73l-80.86-58.76v-1.53h24.13l73.73 55.29z" fill="#fff"/><path d="m271.69 150.84v55.29h-.72l-73.73-55.29zm0-2.52v2.52h-74.45l-2.25-1.69v-.83z" fill="#394ea1"/><path d="m271.69 146.15v2.17h-98.58v-7.98h98.58z" fill="#231f20"/><path d="m263.97 278.11v1l-90.86 51.92v-15.47l64.87-37.45z" fill="#fff"/><path d="m253.97 211.13v.73h-17.99v-.73l-62.87-45.56v-13.2z" fill="#ed1e29"/><path d="m237.98 278.11-64.87 37.45v-37.45z" fill="#394ea1"/><path d="m235.98 211.13v.73h-12v-.73l-50.87-36.59v-8.97z" fill="#fff"/><path d="m223.98 211.13v.73h-50.87v-37.32z" fill="#394ea1"/><path d="m194.99 149.15 2.25 1.69h-24.13v-2.52h21.88z" fill="#fff"/><path d="m141.92 52.59c27.34 0 48.76 16.86 48.76 38.38 0 12.1-6.77 22.73-17.57 29.71v-8.08h-7.07c8.63-5.1 14.14-12.9 14.14-21.63 0-15.4-17.13-27.88-38.26-27.88-21.12 0-38.25 12.48-38.25 27.88 0 9.57 6.62 18.01 16.7 23.03l-8.87.02.01 7.16c-11.24-6.98-18.34-17.82-18.34-30.21 0-21.52 21.42-38.38 48.75-38.38z" fill="#231f20"/><path d="m166.85 334.6 1.71 185.57v10.5h4.55v254.71h-10.5v-659.53c3.8-1.37 7.33-3.11 10.5-5.17v9.16h-8.04v21h.1l.09 10.32.08 9 .39 41.7.13 14.99.35 37.26.13 14 .37 40.98z" fill="#231f20"/><path d="m168.56 520.17h4.55v10.5h-4.55z" fill="#231f20"/><path d="m168.56 509.67h4.55v10.5h-4.55z" fill="#231f20"/><path d="m173.11 338.17v171.5h-4.55v10.5l-1.71-185.57 6.26-3.57zm0-22.61v15.47l-6.26 3.57-.14-15.51h.29z" fill="#231f20"/><path d="m173.11 278.11v37.45l-6.11 3.53h-.29l-.37-40.98z" fill="#231f20"/><path d="m173.11 264.11v14h-6.77l-.13-14zm0-37.26v37.26h-6.9l-.35-37.26h.14z" fill="#231f20"/><path d="m173.11 211.86v14.99h-7.25l-.13-14.99h.27zm0-37.32v37.32h-7.38l-.39-41.7 1.66-.02z" fill="#231f20"/><path d="m173.11 165.57v8.97l-6.11-4.4-1.66.02-.08-9 1.74-.02z" fill="#231f20"/><path d="m173.11 152.37v13.2l-6.11-4.43-1.74.02-.09-10.32h5.83z" fill="#231f20"/><path d="m173.11 150.84v1.53l-2.11-1.53zm0-2.52v2.52h-2.11l-3.47-2.52z" fill="#fff"/><path d="m173.11 140.34v7.98h-5.58l3.47 2.52h-5.83l-.1-10.5zm-8.04-10.5h8.04v10.5h-8.04zm8.04-17.24v8.08c-3.17 2.06-6.7 3.8-10.5 5.17v-11.43c1.19-.56 2.34-1.16 3.43-1.82zm-31.19-49.51c21.13 0 38.26 12.48 38.26 27.88 0 8.73-5.51 16.53-14.14 21.63h-13.93v5.24c-3.24.66-6.66 1.01-10.19 1.01-3.25 0-6.4-.29-9.41-.86l-.01-4.01-10.5.02h-1.63c-10.08-5.02-16.7-13.46-16.7-23.03 0-15.4 17.13-27.88 38.25-27.88zm27.76 27.88c0-9.26-12.97-17.38-27.76-17.38-14.78 0-27.75 8.12-27.75 17.38s12.97 17.38 27.75 17.38c14.79 0 27.76-8.12 27.76-17.38z" fill="#231f20"/><path d="m162.61 112.6h3.43c-1.09.66-2.24 1.26-3.43 1.82zm2.46 27.74.1 10.5h-.1zm-2.46-14.49v659.53h-10.5v-656.84c3.68-.59 7.2-1.5 10.5-2.69z" fill="#231f20"/><path d="m162.61 114.42v11.43c-3.3 1.19-6.82 2.1-10.5 2.69v-10.7c3.77-.75 7.3-1.91 10.5-3.42z" fill="#231f20"/><path d="m162.61 112.6v1.82c-3.2 1.51-6.73 2.67-10.5 3.42v-5.24z" fill="#231f20"/><path d="m141.92 73.59c14.79 0 27.76 8.12 27.76 17.38s-12.97 17.38-27.76 17.38c-14.78 0-27.75-8.12-27.75-17.38s12.97-17.38 27.75-17.38z" fill="#c8c8c8"/><path d="m152.11 117.84v10.7c-3.27.53-6.68.81-10.19.81-3.22 0-6.37-.23-9.4-.69l-.01-10.67c3.01.57 6.16.86 9.41.86 3.53 0 6.95-.35 10.19-1.01zm-19.59 10.82 1.1 656.7-10.5.02-1.1-659.26c3.31 1.14 6.83 2 10.5 2.54z" fill="#231f20"/><path d="m132.51 117.99.01 10.67c-3.67-.54-7.19-1.4-10.5-2.54l-.02-11.35c3.22 1.44 6.76 2.54 10.51 3.22z" fill="#231f20"/><path d="m132.5 113.98.01 4.01c-3.75-.68-7.29-1.78-10.51-3.22v-.77zm-10.48 12.14 1.1 659.26-10.5.021-1.11-664.22c3.19 1.979 6.72 3.649 10.51 4.939z" fill="#231f20"/><path d="m122 114.77.02 11.35c-3.79-1.29-7.32-2.96-10.51-4.94l-.01-7.16 8.87-.02c.53.27 1.08.53 1.63.77z" fill="#231f20"/><path d="m122 114v.77c-.55-.24-1.1-.5-1.63-.77z" fill="#231f20"/><g fill="none" stroke="#231f20"><path d="m276.88 338.17h-107.6m-1.75-189.85h291.46v189.85h-182.11" stroke-width="10.497"/><path d="m459.9 225.85h-123.96v-79.7m-49.25 1v79.7h-120.69m0 37.26h122.69v73.98m47.25-2v-70.98h122.96" stroke-width="3.499"/><path d="m271.69 146.15v65.71h-105.69m293.9-1h-108.96v-64.71m-185.94 131.96h109.69v58.98m76.25 0v-56.99h107.96" stroke-width="3.499"/><path d="m194.99 149.15 2.25 1.69 73.73 55.29m-103.44-57.81 3.47 2.52 2.11 1.53 80.86 58.76m-86.97-49.99 6.11 4.43 62.87 45.56m-68.98-40.99 6.11 4.4 50.87 36.59m127.96-7 81.39-53.29 2.58-1.69m-79.97 60.98 89.42-59.29 2.55-1.69m-76.98 61.98.41-.27 87.65-58.44 1.91-1.27m-65.98 58.98 63.98-39.99m-273.91 165.95 89.03-52.34m-108.02 51.34.85-.49 6.26-3.57 90.86-51.92m8.99 12.99-78.97 45.99m-26.99-19 6.11-3.53 64.87-37.45m221.01 60.06-90.06-57.07m-17.99 6 81.97 49.99m-45.98-55.99 71.97 46.99m-57.98-46.99 57.98 36.99" stroke-width="3.499"/><g stroke-width="4"><path d="m692.67 178.46-.9.54h1.8z"/><path d="m706.07 189.5 2.6-17.29.56-3.67-3.19 1.91-13.37 8.01"/><path d="m706.07 189.5-.55-.61.43 1.43z"/><path d="m701.03 207.09 15.02-2.48 3.16-.52-2.14-2.38-11-12.21"/><path d="m701.03 207.09.38-.87-1.32 1.03z"/><path d="m684.3 207.09 6.76 15.61 1.61 3.71 1.6-3.71 6.76-15.61"/><path d="m684.3 207.09.94.16-1.32-1.03z"/><path d="m679.26 189.51-11 12.2-2.14 2.38 3.16.52 15.02 2.48"/><path d="m679.26 189.51.12.81.44-1.43z"/><path d="m692.67 178.46-13.38-8.01-3.19-1.91.56 3.67 2.6 17.3m-35.59 26.34-.96.57h1.91z"/><path d="m657.88 227.55 2.75-18.32.59-3.89-3.38 2.02-14.17 8.49"/><path d="m657.88 227.55-.59-.65.46 1.52z"/><path d="m652.53 246.21 15.93-2.64 3.34-.56-2.27-2.52-11.65-12.94"/><path d="m652.53 246.21.4-.94-1.4 1.1z"/><path d="m634.8 246.21 7.16 16.53 1.71 3.93 1.7-3.93 7.16-16.53"/><path d="m634.8 246.21 1 .16-1.4-1.1z"/><path d="m629.46 227.55-11.66 12.94-2.27 2.52 3.35.56 15.92 2.64"/><path d="m629.46 227.55.13.87.45-1.52z"/><path d="m643.67 215.85-14.18-8.49-3.38-2.02.59 3.89 2.76 18.32m-39.47 17.91-.92.55h1.84z"/><path d="m603.71 256.75 2.66-17.69.56-3.75-3.26 1.95-13.68 8.2"/><path d="m603.71 256.75-.57-.63.44 1.47z"/><path d="m598.55 274.75 15.37-2.54 3.23-.54-2.2-2.43-11.24-12.49"/><path d="m598.55 274.75.39-.89-1.36 1.05z"/><path d="m581.43 274.75 6.91 15.96 1.65 3.8 1.64-3.8 6.92-15.96"/><path d="m581.43 274.75.96.16-1.35-1.05z"/><path d="m576.27 256.75-11.25 12.49-2.19 2.43 3.23.54 15.37 2.54"/><path d="m576.27 256.75.13.84.44-1.47z"/><path d="m589.99 245.46-13.69-8.2-3.26-1.95.57 3.75 2.66 17.69m133.4 61.61-14.82-9.41 2.83 19.92-11.99 14.1 16.57 2.91 7.41 18.12 7.41-18.12 16.57-2.91-11.99-14.1 2.83-19.92zm-168.31 105.7-.87.52h1.73z"/><path d="m554.27 434.71 2.5-16.66.54-3.54-3.07 1.84-12.88 7.71"/><path d="m554.27 434.71-.54-.6.42 1.38z"/><path d="m549.41 451.65 14.47-2.4 3.04-.5-2.06-2.29-10.59-11.75"/><path d="m549.41 451.65.37-.85-1.28 1z"/><path d="m533.3 451.65 6.51 15.02 1.55 3.57 1.54-3.57 6.51-15.02"/><path d="m533.3 451.65.91.15-1.28-1z"/><path d="m528.44 434.71-10.59 11.75-2.06 2.29 3.04.5 14.47 2.4"/><path d="m528.44 434.71.12.78.42-1.38z"/><path d="m541.36 424.06-12.89-7.71-3.07-1.84.54 3.54 2.5 16.66m-58.9 12.01-.98.59h1.96z"/><path d="m484.1 458.7 2.82-18.76.6-3.99-3.45 2.07-14.53 8.7"/><path d="m484.1 458.7-.6-.66.46 1.56z"/><path d="m478.63 477.82 16.31-2.7 3.42-.57-2.32-2.58-11.94-13.27"/><path d="m478.63 477.82.41-.95-1.44 1.12z"/><path d="m460.46 477.82 7.34 16.94 1.74 4.02 1.75-4.02 7.34-16.94"/><path d="m460.46 477.82 1.02.17-1.43-1.12z"/><path d="m454.99 458.71-11.95 13.26-2.32 2.58 3.43.57 16.31 2.7"/><path d="m454.99 458.71.13.89.47-1.56z"/><path d="m469.54 446.72-14.52-8.7-3.46-2.07.6 3.99 2.83 18.77m85.01-109.38-.86.47h1.72z"/><path d="m554.19 360.12 2.74-16.84.59-3.63-3.21 1.78-14.31 7.9"/><path d="m554.19 360.12-.64-.65.49 1.54z"/><path d="m548.8 377.49 16.02-2.44 3.44-.53-2.44-2.49-11.63-11.91"/><path d="m548.8 377.49.4-.86-1.35 1z"/><path d="m531.2 377.49 7.18 15.27 1.62 3.44 1.62-3.44 7.18-15.27"/><path d="m531.2 377.49.95.14-1.35-1z"/><path d="m525.81 360.12-11.63 11.91-2.44 2.49 3.44.53 16.02 2.44"/><path d="m525.81 360.12.15.89.49-1.54z"/><path d="m540 349.33-14.31-7.9-3.22-1.78.6 3.63 2.74 16.84"/></g></g><path d="m657.67 362.359-14.82-9.409 2.83 19.92-11.99 14.101 16.57 2.909 7.41 18.12 7.41-18.12 16.57-2.909-11.99-14.101 2.83-19.92z" fill="#fbed24" stroke="#000" stroke-linecap="round" stroke-linejoin="round" stroke-width="4"/><path d="m607.67 392.359-14.82-9.409 2.83 19.92-11.99 14.101 16.57 2.909 7.41 18.12 7.41-18.12 16.57-2.909-11.99-14.101 2.83-19.92z" fill="#faec25" stroke="#000" stroke-linecap="round" stroke-linejoin="round" stroke-width="4"/><path d="m0 0h850.394v850.394h-850.394z" fill="none"/></svg>