<svg height="850.394" viewBox="0 0 884.25 850.394" width="884.25" xmlns="http://www.w3.org/2000/svg"><path d="m162.61 468.7v316.68h-39.49l-1.12-670.61c5.8 2.59 12.62 4.08 19.92 4.08 7.62 0 14.73-1.63 20.69-4.43z" fill="#c8c8c8"/><path d="m463.09 365.55-19.94-10.48-19.93 10.48 3.81-22.2-16.13-15.72 22.29-3.24 9.96-20.19 9.97 20.19 22.29 3.24-16.13 15.72z" fill="#ed1e29"/><path d="m443.15 355.07 19.939 10.48-3.81-22.2 16.13-15.72-22.29-3.24-9.97-20.19-9.96 20.19-22.291 3.24 16.13 15.72-3.81 22.2zm305.03-109.07v174h-580.54l-1.6-173.98 1.96-.02zm-338.56 44.52c-7.11-5.38-11.37-10.71-18.41-14.31-51.73-26.48-100.9 17.53-97.16 65.45 2.48 31.82 27.78 57.21 58.29 60.34 25.75 2.64 43.66-6.92 53.19-19.43-6.8 4.13-12.44 7.19-20.46 8.18-80.25 9.85-83.39-110.46-8.18-110.46 13.87 0 23.38 5.88 32.73 10.23z" fill="#fff"/><path d="m376.89 280.29c-75.21 0-72.07 120.31 8.18 110.46 8.02-.99 13.66-4.05 20.46-8.18-9.53 12.51-27.44 22.07-53.19 19.43-30.51-3.13-55.81-28.52-58.29-60.34-3.74-47.92 45.43-91.93 97.16-65.45 7.04 3.6 11.3 8.93 18.41 14.31-9.35-4.35-18.86-10.23-32.73-10.23zm371.29-88.29v54h-580.18l-1.96.02-.5-54.02h582.46z" fill="#ed1e29"/><path d="m748.18 177.46v14.54h-582.64l-.47-51.66h583.11zm0 291.24v51.47h-579.62l-.47-51.47h579.66z" fill="#fff"/><path d="m748.18 420v48.7h-580.09l-.45-48.7h580.36z" fill="#ed1e29"/><path d="m162.61 114.42c-5.96 2.8-13.07 4.43-20.69 4.43-7.3 0-14.12-1.49-19.92-4.08-10.99-4.89-18.33-13.72-18.33-23.8 0-15.4 17.13-27.88 38.25-27.88 21.13 0 38.26 12.48 38.26 27.88 0 9.84-7 18.49-17.57 23.45z" fill="#c8c8c8"/><g fill="none"><g stroke="#231f20"><path d="m165.07 140.34h583.11v379.83h-579.62m-46.56-405.4c-10.99-4.89-18.33-13.72-18.33-23.8 0-15.4 17.13-27.88 38.25-27.88 21.13 0 38.26 12.48 38.26 27.88 0 9.84-7 18.49-17.57 23.45-5.96 2.8-13.07 4.43-20.69 4.43-7.3 0-14.12-1.49-19.92-4.08z" stroke-width="21"/><path d="m122 114v.77l1.12 670.61m39.49-672.78v672.78" stroke-width="21"/><path d="m744.76 179.39 3.42-1.93 2.01-1.14m-584.19 15.68h582m-580 54h586m-590 174h584m-584.25 48.7h584" stroke-width="14"/><path d="m882 814h2"/><path d="m385.07 390.75c-80.25 9.85-83.39-110.46-8.18-110.46 13.87 0 23.38 5.88 32.73 10.23-7.11-5.38-11.37-10.71-18.41-14.31-51.73-26.48-100.9 17.53-97.16 65.45 2.48 31.82 27.78 57.21 58.29 60.34 25.75 2.64 43.66-6.92 53.19-19.43-6.8 4.13-12.44 7.19-20.46 8.18z" stroke-width="7"/><path d="m443.15 355.07-19.93 10.48 3.81-22.2-16.13-15.72 22.29-3.24 9.96-20.19 9.97 20.19 22.29 3.24-16.13 15.72 3.81 22.2z" stroke-width="5"/></g><path d="m0 0h850.394v850.394h-850.394z"/></g></svg>