<svg height="850.394" viewBox="0 0 850.394 850.394" width="850.394" xmlns="http://www.w3.org/2000/svg"><path d="m476.03 322v11.97h-3.31l-75.53-48.26h20.81v.29l54 36z" fill="#fff"/><path d="m418 286v-.29h58.03v36.29h-4.03z" fill="#394ea1"/><path d="m476.03 148.73v-4.4h-115.92v-3.99h388.07v379.83h-579.62l-1.58-172.17h309.05v-180.26z" fill="#fbed24"/><path d="m397.19 285.71h-37.08v62.29h-16.08v-78.17c.07-.07.13-.14.2-.21h131.8v16.09zm-197.19 60.29v2h-17.91v-2.24l95.51-56.14h.72v14.38h-4.32z" fill="#fff"/><path d="m280.66 348h-2.34v-64.44h-111.93l-.14-15.01h127.08v79.45z" fill="#fff"/><path d="m278.32 346.83v1.17h-78.32v-2l74-42h4.32zm-40.32-63.27v.44l-71.23 41.22-.38-41.66z" fill="#394ea1"/><path d="m166.92 341.71-.15-16.49 71.23-41.22v-.44h28.81v1.07z" fill="#fff"/><path d="m162.61 212.49v572.89h-39.49l-1.12-670.61c5.8 2.59 12.62 4.08 19.92 4.08 7.62 0 14.73-1.63 20.69-4.43z" fill="#c8c8c8"/><path d="m218 212v.49h-52.27l-.33-36.18z" fill="#394ea1"/><path d="m218 212.49h57.1v-68.16h16.09v83.19c-.24.35-.47.7-.7 1.06h-124.61l-.15-16.09z" fill="#fff"/><path d="m239.59 212.49h-21.59v-.49l-52.6-35.69-.15-16.47zm206.41-66.49v-1.67h18.14v.89l-98.66 65.42v.78h-5.37v-11.22h1.08z" fill="#fff"/><path d="m361.19 200.2h-1.08v-55.87h85.89v1.67z" fill="#394ea1"/><path d="m381.99 211.42h94.04v16.09h-128.59a33.33 33.33 0 0 0 -3.41-4.26v-78.92h16.08v67.09z" fill="#fff"/><path d="m166.92 341.71 99.89-57.08v-1.07h11.51v6.06h-.72l-95.51 56.14v2.24h-15.11zm-1.04-113.13h124.61a33.81 33.81 0 0 0 -5.13 17.96c0 8.37 3.03 16.03 8.05 21.95l-.08.06h-127.08zm61.12 26.7 10.93 4.41-2.09-9.35 8.85-6.61-12.22-1.37-5.47-8.5-5.47 8.5-12.22 1.37 8.85 6.61-2.09 9.35z" fill="#ed1e29"/><path d="m237.93 259.69-10.93-4.41-10.93 4.41 2.09-9.35-8.85-6.61 12.22-1.37 5.47-8.5 5.47 8.5 12.22 1.37-8.85 6.61z" fill="#fbed24"/><path d="m239.59 212.49-74.34-52.65-.14-15.51h.9l93.99 67.67v.49zm236.44 121.48v10.72h-3.31l-95.84-58.98h20.31l75.53 48.26zm0-106.46v42.11h-131.8c5.62-6.06 9.05-14.16 9.05-23.08 0-7.06-2.15-13.6-5.84-19.03zm-51.19 23.83 8.851-6.61-12.22-1.37-5.47-8.5-5.47 8.5-12.22 1.37 8.85 6.61-2.09 9.35 10.93-4.41 10.93 4.41z" fill="#ed1e29"/><path d="m476.03 167.74v43.68h-68.73v-.78l68.64-42.9z" fill="#394ea1"/><path d="m476.03 148.73v19.01h-.09l-68.64 42.9v.78h-25.31z" fill="#fff"/><path d="m476.03 144.33v4.4l-94.04 62.69h-16.51v-.78l98.66-65.42v-.89z" fill="#ed1e29"/><path d="m472.72 344.69h3.31v3.31h-27.98v-1.17l-87.94-53.62v-7.5h16.77z" fill="#fff"/><path d="m448.05 346.83v1.17h-87.94v-54.79z" fill="#394ea1"/><path d="m433.69 244.73-8.85 6.61 2.09 9.35-10.93-4.41-10.93 4.41 2.09-9.35-8.85-6.61 12.22-1.37 5.47-8.5 5.47 8.5z" fill="#fbed24"/><path d="m360.11 142v2.33h-16.08v-3.99h16.08z" fill="#fff"/><path d="m347.44 227.51a33.713 33.713 0 0 1 5.84 19.03c0 8.92-3.43 17.02-9.05 23.08h-.2v.21c-6.19 6.57-14.97 10.67-24.71 10.67-10.39 0-19.68-4.66-25.91-12.01a33.822 33.822 0 0 1 -8.05-21.95c0-6.6 1.88-12.75 5.13-17.96h.7v-1.06c6.1-9.02 16.42-14.94 28.13-14.94 9.74 0 18.52 4.1 24.71 10.67v4.26zm-14.52 21.01 10.92-10.65-15.09-2.19-6.75-13.68-6.75 13.68-15.09 2.19 10.92 10.65-2.58 15.03 13.5-7.1 13.5 7.1z" fill="#394ea1"/><path d="m347.44 227.51h-3.41v-4.26a33.33 33.33 0 0 1 3.41 4.26zm-3.21 42.11c-.07.07-.13.14-.2.21v-.21z" fill="#fff"/><path d="m344.03 144.33v78.92c-6.19-6.57-14.97-10.67-24.71-10.67-11.71 0-22.03 5.92-28.13 14.94v-83.19zm-17.19 38.74 8.85-6.62-12.22-1.36-5.47-8.51-5.47 8.51-12.22 1.36 8.85 6.62-2.09 9.34 10.93-4.41 10.93 4.41z" fill="#ed1e29"/><path d="m343.84 237.87-10.92 10.65 2.58 15.03-13.5-7.1-13.5 7.1 2.58-15.03-10.92-10.65 15.09-2.19 6.75-13.68 6.75 13.68zm-6.15 70.86-8.85 6.61 2.09 9.35-10.93-4.41-10.93 4.41 2.09-9.35-8.85-6.61 12.22-1.37 5.47-8.5 5.47 8.5zm-2-132.28-8.85 6.62 2.09 9.34-10.93-4.41-10.93 4.41 2.09-9.34-8.85-6.62 12.22-1.36 5.47-8.51 5.47 8.51z" fill="#fbed24"/><path d="m293.41 268.49c6.23 7.35 15.52 12.01 25.91 12.01 9.74 0 18.52-4.1 24.71-10.67v78.17h-50.7v-79.45zm35.43 46.85 8.85-6.61-12.22-1.37-5.47-8.5-5.47 8.5-12.22 1.37 8.85 6.61-2.09 9.35 10.93-4.41 10.93 4.41z" fill="#ed1e29"/><path d="m291.19 227.52v1.06h-.7c.23-.36.46-.71.7-1.06zm-16.09-87.18h68.93v3.99h-68.93v-2.33zm0 66.01v6.14h-15.1v-.49l-93.99-67.67h26.8v.89l81.51 61.13z" fill="#fff"/><path d="m275.1 144.33v62.02h-.78l-81.51-61.13v-.89z" fill="#394ea1"/><path d="m275.1 142v2.33h-109.09l-.91-.66-.03-3.33h110.03z" fill="#fff"/><path d="m162.61 114.42c-5.96 2.8-13.07 4.43-20.69 4.43-7.3 0-14.12-1.49-19.92-4.08-10.99-4.89-18.33-13.72-18.33-23.8 0-15.4 17.13-27.88 38.25-27.88 21.13 0 38.26 12.48 38.26 27.88 0 9.84-7 18.49-17.57 23.45z" fill="#c8c8c8"/><path d="m165.1 143.67.91.66h-.9z" fill="#fff"/><g fill="none"><g stroke="#231f20"><path d="m165.07 140.34h583.11v379.83h-579.62m-46.56-405.4c-10.99-4.89-18.33-13.72-18.33-23.8 0-15.4 17.13-27.88 38.25-27.88 21.13 0 38.26 12.48 38.26 27.88 0 9.84-7 18.49-17.57 23.45-5.96 2.8-13.07 4.43-20.69 4.43-7.3 0-14.12-1.49-19.92-4.08z" stroke-width="21"/><path d="m122 114v.77l1.12 670.61m39.49-672.78v672.78" stroke-width="21"/><path d="m744.76 179.39 3.42-1.93 2.01-1.14" stroke-width="14"/><g stroke-width="7"><path d="m280.66 348h-115.43m-1.87-203.67h312.67v203.67h-195.37m63.37-124.75v-81.25m132.98 85.51h-129.57m-56.95 1.07h-128.78m129.48-85.51v84.45"/><path d="m161.71 268.55h131.62v79.36m50.9-78.29h131.71m-131.91 76.14v-75.93m-68.93-127.83v70.49h-113.39m315.3-1.07h-116.9v-69.42"/><path d="m160.64 283.56h117.68v63.27m81.79 0v-61.12h115.83m-283.13-140.49 81.51 61.13m-111.54-48.26 2.47 1.75 74.34 52.65.41.29m-78-38.78.61.41 2.79 1.9 52.6 35.69m143.19-11.8 84.81-54.2m-80.52 64.64 98.66-65.42m-82.58 66.49.43-.29 94.04-62.69 2.05-1.37m-70.78 63.28 68.64-42.9m-293.85 178.02 95.51-56.14"/><path d="m161.71 344.69.9-.51 4.31-2.47 99.89-57.08m7.19 19.37-74 42m-37.22-18.47 3.99-2.31 71.23-41.22m234.72 60.69-95.84-58.98-1.75-1.08m-15.02 8.58 87.94 53.62m-52.55-62.2 1.69 1.08 75.53 48.26m-54.72-47.97 54 36m-312-182 2.61 1.88 2.49 1.79.91.66 93.99 67.67"/></g><path d="m347.44 227.51a33.713 33.713 0 0 1 5.84 19.03c0 8.92-3.43 17.02-9.05 23.08-.07.07-.13.14-.2.21-6.19 6.57-14.97 10.67-24.71 10.67-10.39 0-19.68-4.66-25.91-12.01a33.822 33.822 0 0 1 -8.05-21.95c0-6.6 1.88-12.75 5.13-17.96.23-.36.46-.71.7-1.06 6.1-9.02 16.42-14.94 28.13-14.94 9.74 0 18.52 4.1 24.71 10.67a33.33 33.33 0 0 1 3.41 4.26z" stroke-width="4.754"/><path d="m322 256.45-13.5 7.1 2.58-15.03-10.92-10.65 15.09-2.19 6.75-13.68 6.75 13.68 15.09 2.19-10.92 10.65 2.58 15.03z" stroke-width="4"/><path d="m227 255.28-10.93 4.41 2.09-9.35-8.85-6.61 12.22-1.37 5.47-8.5 5.47 8.5 12.22 1.37-8.85 6.61 2.09 9.35zm91-67.28-10.93 4.41 2.09-9.34-8.85-6.62 12.22-1.36 5.47-8.51 5.47 8.51 12.22 1.36-8.85 6.62 2.09 9.34zm2 132.28-10.93 4.41 2.09-9.35-8.85-6.61 12.22-1.37 5.47-8.5 5.47 8.5 12.22 1.37-8.85 6.61 2.09 9.35zm96-64-10.93 4.41 2.09-9.35-8.85-6.61 12.22-1.37 5.47-8.5 5.47 8.5 12.22 1.37-8.85 6.61 2.09 9.35z" stroke-width="3"/></g><path d="m0 0h850.394v850.394h-850.394z"/></g></svg>