<svg height="850.394" viewBox="0 0 850.394 850.394" width="850.394" xmlns="http://www.w3.org/2000/svg"><path d="m742.18 138.34v379.83h-150.18v-379.83z" fill="#58b947"/><path d="m592 516v2.17h-272v-379.83h272zm-51.12-176.24c-12.35-18.03-23.91-36.84-36.74-54.38-12.35 18.03-23.909 36.84-36.739 54.38 10.38 19.99 24.89 35.84 35.27 55.84 15.379-15.97 26.739-35.96 38.209-55.84zm-45.56 70.53c-11.94-19.4-23.32-39.38-38.2-55.84-11.2 19.17-24.87 35.88-35.27 55.84 11.55 18.32 24.69 35.07 35.27 54.37 15.42-15.43 24.53-37.18 38.2-54.37zm-82.29-14.69c12.15-18.72 25.081-36.64 36.74-55.84-13.609-17.25-23.619-38.1-38.209-54.38-11.66 19.21-24.59 37.13-36.74 55.85 14.119 16.74 24.099 37.62 38.209 54.37z" fill="#fbed24"/><path d="m504.14 285.38c12.83 17.54 24.391 36.35 36.74 54.38-11.47 19.88-22.83 39.87-38.21 55.84-10.38-20-24.89-35.85-35.27-55.84 12.83-17.54 24.39-36.35 36.74-54.38zm-47.02 69.07c14.88 16.46 26.26 36.44 38.2 55.84-13.67 17.19-22.78 38.94-38.2 54.37-10.58-19.3-23.72-36.05-35.27-54.37 10.4-19.96 24.07-36.67 35.27-55.84zm-7.35-14.69c-11.659 19.2-24.589 37.12-36.74 55.84-14.11-16.75-24.09-37.63-38.21-54.37 12.15-18.72 25.08-36.64 36.74-55.85 14.59 16.28 24.6 37.13 38.21 54.38z" fill="#58b947"/><path d="m320 514v4.17h-157.39v-379.83h157.39v5.66z" fill="#394ea1"/><path d="m162.61 114.42c-5.96 2.8-13.07 4.43-20.69 4.43-7.3 0-14.12-1.49-19.92-4.08-10.99-4.89-18.33-13.72-18.33-23.8 0-15.4 17.13-27.88 38.25-27.88 21.13 0 38.26 12.48 38.26 27.88 0 9.84-7 18.49-17.57 23.45z" fill="#c8c8c8"/><path d="m162.61 518.17v267.21h-39.49l-1.12-670.61c5.8 2.59 12.62 4.08 19.92 4.08 7.62 0 14.73-1.63 20.69-4.43v23.92h-3.54l3.49 379.83z" fill="#c8c8c8"/><path d="m162.61 138.34v379.83h-.05l-3.49-379.83z" fill="#fff"/><g fill="none"><g stroke="#231f20"><path d="m159.07 138.34h583.11v379.83h-579.62" stroke-width="14"/><path d="m122 114.77c-10.99-4.89-18.33-13.72-18.33-23.8 0-15.4 17.13-27.88 38.25-27.88 21.13 0 38.26 12.48 38.26 27.88 0 9.84-7 18.49-17.57 23.45-5.96 2.8-13.07 4.43-20.69 4.43-7.3 0-14.12-1.49-19.92-4.08z" stroke-width="21"/><path d="m122 114v.77l1.12 670.61m39.49-672.78v672.78" stroke-width="21"/><path d="m123.12 785.38h39.49"/><path d="m320 144v370m272-374v376" stroke-width="14"/><path d="m411.56 285.38c14.59 16.28 24.6 37.13 38.209 54.38-11.659 19.2-24.589 37.12-36.74 55.84-14.11-16.75-24.09-37.63-38.21-54.37 12.151-18.72 25.081-36.64 36.741-55.85zm92.58 0c12.83 17.54 24.391 36.35 36.74 54.38-11.47 19.88-22.83 39.87-38.21 55.84-10.38-20-24.89-35.85-35.27-55.84 12.83-17.54 24.39-36.35 36.74-54.38zm-47.02 69.07c14.88 16.46 26.26 36.44 38.2 55.84-13.67 17.19-22.78 38.94-38.2 54.37-10.58-19.3-23.72-36.05-35.27-54.37 10.4-19.96 24.07-36.67 35.27-55.84z" stroke-width="7"/></g><path d="m0 0h850.394v850.394h-850.394z"/></g></svg>