<svg height="850.394" viewBox="0 0 850.394 850.394" width="850.394" xmlns="http://www.w3.org/2000/svg"><path d="m747.09 266v120h-1.09l-587.31.54h-2.49v-120.43l587.8-.11zm-289.55 114.09c29.27 0 53-23.72 53-53 0-29.27-23.73-53-53-53-29.28 0-53 23.73-53 53 0 29.28 23.72 53 53 53z" fill="#fff"/><path d="m156.2 386.54h2.49l587.31-.54h1.09v135.05l-590.89-1.05z" fill="#0d72ba"/><path d="m464.12 332.35.42-.26s5.34-6.05 5.34-6.06l6.89 11.14v.88h-9.67v-.88z" fill="#33a048"/><path d="m460.21 326.03 3.91 6.32 2.979 4.82v.88h-9.08v-.44l-3.34-5.4.19-.12c.001 0 5.341-6.05 5.341-6.06z" fill="#33a048"/><path d="m459.19 312.26a2.635 2.635 0 0 1 0 5.27 2.643 2.643 0 0 1 -2.641-2.63 2.645 2.645 0 0 1 2.641-2.64z" fill="#ed1d31"/><path d="m450.25 300.11-7.69 13.32-3.069 5.31-10.91 18.9-6.75 11.69h70.66l-6.8-11.78-10.87-18.81-6.61-11.44-4.39-7.62-6.66-11.53zm7.29-26.02c29.27 0 53 23.73 53 53 0 29.28-23.73 53-53 53-29.28 0-53-23.72-53-53 0-29.27 23.72-53 53-53z" fill="#fff"/><path d="m462.92 299.51c-4.59-1.85-10.1-.32-12.67.6l6.91-11.96 6.66 11.53z" fill="#0d72ba"/><path d="m448.35 338.05h36.48l.86-.5 6.8 11.78h-70.66l6.75-11.69.72.41h4.25z" fill="#2c308c"/><path d="m459.19 312.26a2.645 2.645 0 0 0 -2.641 2.64c0 1.45 1.19 2.63 2.641 2.63a2.635 2.635 0 1 0 0-5.27zm-16.12 1.47s10.85-10.7 24.91-6.3l.229-.13 6.61 11.44 10.87 18.81-.86.5h-8.061v-.88l-6.89-11.14c0 .01-5.34 6.06-5.34 6.06l-.42.26-3.91-6.32c0 .01-5.34 6.06-5.34 6.06l-.19.12-3.54-5.74-4.638 7.53-.05.04 3.05 3.96v.05h-20.2l-.72-.41 10.91-18.9 3.069-5.31z" fill="#0d72ba"/><path d="m458.02 337.61v.44h-8.52v-.05l-3.05-3.96.05-.04 4.64-7.53 3.54 5.74z" fill="#33a048"/><path d="m450.25 300.11c2.57-.92 8.08-2.45 12.67-.6l.9.17 4.39 7.62-.229.13c-14.061-4.4-24.91 6.3-24.91 6.3l-.511-.3z" fill="#fbee34"/><path d="m173.93 87.94c0 9.93-7.06 18.67-17.73 23.66-6.02 2.84-13.19 4.48-20.88 4.48-7.04 0-13.64-1.37-19.32-3.78-11.52-4.86-19.27-13.95-19.27-24.36 0-15.53 17.28-28.13 38.59-28.13 21.33 0 38.61 12.6 38.61 28.13z" fill="#c8c8c8"/><path d="m156.2 137.76h590.89v128.24h-3.09l-587.8.11z" fill="#0d72ba"/><path d="m156.2 520v260h-.2l-38 2h-1.66l-.34-664v-5.7c5.68 2.41 12.28 3.78 19.32 3.78 7.69 0 14.86-1.64 20.88-4.48z" fill="#c8c8c8"/><g fill="none"><g><g stroke="#231f20"><path d="m158.68 137.76h588.41v383.29l-590.89-1.05h-.2m-40-407.7c-11.52-4.86-19.27-13.95-19.27-24.36 0-15.53 17.28-28.13 38.59-28.13 21.33 0 38.61 12.6 38.61 28.13 0 9.93-7.06 18.67-17.73 23.66-6.02 2.84-13.19 4.48-20.88 4.48-7.04 0-13.64-1.37-19.32-3.78zm0 5.7.34 664v6.66m-.34-676.36v5.7m40.2-8.23v678.89" stroke-width="21"/><path d="m153.41 266.11h2.79l587.8-.11m-585.31 120.54 587.31-.54" stroke-width="7"/><path d="m450.25 300.11 6.91-11.96 6.66 11.53 4.39 7.62 6.61 11.44 10.87 18.81 6.8 11.78h-70.66l6.75-11.69 10.91-18.9 3.07-5.31z" stroke-width="5.275"/><path d="m429.3 338.05h55.53m-51.28-.15 8.94-10.11 2.95 4.95 1.01 1.3 3.05 3.96" stroke-width="3.516"/><path d="m446.5 334 4.64-7.53 3.54 5.74 3.34 5.4m-3.15-5.52s5.34-6.05 5.34-6.06l3.91 6.32 2.979 4.82m-2.559-5.08s5.34-6.05 5.34-6.06l6.89 11.14m-14.94-22.27c0 1.45-1.18 2.63-2.64 2.63a2.643 2.643 0 0 1 -2.641-2.63c0-1.46 1.19-2.64 2.641-2.64 1.46 0 2.64 1.18 2.64 2.64zm-18.76-1.17s10.85-10.7 24.91-6.3m-19.19-6.74s.54-.25 1.46-.58c2.57-.92 8.08-2.45 12.67-.6.23.09.45.19.67.3" stroke-width="3.516"/></g><path d="m457.54 274.09c29.27 0 53 23.73 53 53 0 29.28-23.73 53-53 53-29.28 0-53-23.72-53-53 0-29.27 23.72-53 53-53z" stroke="#fbee34" stroke-dasharray="12" stroke-width="5.591"/></g><path d="m0 0h850.394v850.394h-850.394z"/></g></svg>