<svg height="850.394" viewBox="0 0 850.394 850.394" width="850.394" xmlns="http://www.w3.org/2000/svg"><path d="m161.38 518v265.67h-39.31l-.07-663.67.64-3.06c5.4 2.14 11.58 3.35 18.15 3.35 7.58 0 14.65-1.62 20.59-4.41z" fill="#c8c8c8"/><path d="m161.38 115.88c-5.94 2.79-13.01 4.41-20.59 4.41-6.57 0-12.75-1.21-18.15-3.35-11.86-4.7-19.92-13.86-19.92-24.4 0-15.32 17.05-27.74 38.07-27.74 21.03 0 38.08 12.42 38.08 27.74 0 9.8-6.97 18.41-17.49 23.34z" fill="#c8c8c8"/><path d="m265.26 241.37a25.944 25.944 0 0 0 -2.43 11.01c0 .08 0 .16.01.24l-.34.01h-50.94l-.07-.32 37.98-7.73 13.93-2.83 1.19-.24zm15.6-27.11 7.94-39.05.32.07v50.94h-.14c-3.96 0-7.7.88-11.06 2.45l.19-.92.24-1.19z" fill="#fbee34"/><path d="m233.9 197.47 36.01 36.02.5.48a25.622 25.622 0 0 0 -5.15 7.4l-.67.14-7.28-10.23-25.2-35.4 1.95 1.35z" fill="#fbee34"/><path d="m285.34 242.44-.5.14c-1.58.11-3.21-.54-4.85-.54-1.79 0-2.87.4-4.3 1.3 1.02 3.9 4.81 5.53 9.78 4.22.34-1.83.15-4.1-.09-4.98-.01-.05-.03-.09-.04-.14zm11.69 24.66c-2.44-.95-4.76-1.98-7.47-1.97-1.43 0-2.79-.01-4.14.21-1.29.21-2.78.9-4.1.87 0 0 1.82 1.91 3.02 2.31 1.33.44 2.88.44 4.32.51 2.5.12 6.53-.17 8.37-1.93zm1.39-24.95c-1.65 0-3.28.64-4.85.54h-.54c-.25.88-.44 3.15-.1 4.97 4.97 1.32 8.77-.31 9.79-4.21-1.44-.91-2.51-1.3-4.3-1.3zm-33.32 20.89a25.737 25.737 0 0 1 -2.26-10.42c-.01-.08-.01-.16-.01-.24 0-3.94.87-7.67 2.43-11.01 1.27-2.77 3.02-5.26 5.15-7.4 2.15-2.18 4.69-3.99 7.51-5.3 3.36-1.57 7.1-2.45 11.06-2.45h.14c3.61.02 7.04.77 10.16 2.11s5.93 3.26 8.29 5.64c2.09 2.11 3.82 4.58 5.1 7.31a25.93 25.93 0 0 1 2.47 11.1v.09c-.01 3.71-.8 7.25-2.22 10.44-.03.09-.07.18-.12.27a25.94 25.94 0 0 1 -5.88 8.22 25.972 25.972 0 0 1 -6.6 4.55 26.08 26.08 0 0 1 -11.23 2.58h-.11c-3.41 0-6.67-.65-9.65-1.85a25.707 25.707 0 0 1 -8.12-5.12c-2.49-2.3-4.53-5.09-5.96-8.2-.06-.11-.11-.21-.15-.32z" fill="#fbee34"/><path d="m235.09 307.95 35.89-36.15.23-.24c2.34 2.18 5.09 3.93 8.12 5.12l-.1.26-.31.22-.33.24-9.77 7.01-35.31 25.33 1.34-1.96z" fill="#fbee34"/><path d="m744.18 467.69v52.03l-578.18-1.72h-4.62v-50.31h1.3z" fill="#fff"/><path d="m744.18 428.39v39.3h-582.8v-39.3h2.46z" fill="#0d72ba"/><path d="m744.18 389.66v38.73h-582.8v-38.73h4.19z" fill="#fff"/><path d="m744.18 349.2v40.46h-582.8v-40.46h3.61z" fill="#0d72ba"/><path d="m744.18 310.76v38.44h-582.8v-207.52h582.8v50.87h-357.22v39.3h357.22v39.6h-357.22v39.31zm-417.85-50.31 42.64-7.82-2.32-.47-37.98-7.73.01-.04s6.41-1.28 12.13-8.12c5.74-6.85 8.94-4.52 13.88-8.77 4.87-4.19 5.22-8.21 4.99-10.24-.09-.87-.29-1.37-.29-1.37s-2.95 3.8-6.32 3.47c-3.37-.34-8.73-.54-16.14 5.53-7.41 6.06-14.05 6.14-16.05 6.28l-.05-.03 25.21-35.4-1.96 1.35-31.93 22.12-.05-.07s3.8-6.72 2.93-15.61 3.03-9.54 3.47-16.04c.43-6.41-2.21-9.48-3.81-10.74-.68-.54-1.18-.75-1.18-.75s.65 4.77-1.95 6.94c-2.6 2.16-6.5 5.85-7.37 15.39-.87 9.53-5.64 14.3-6.94 15.82l-.41.08-7.57-41.34-.47 2.32-7.94 39.05c-1.35-1.56-6.05-6.33-6.91-15.79-.87-9.54-4.77-13.22-7.37-15.39s-1.95-6.93-1.95-6.93-.49.21-1.17.74c-1.6 1.25-4.24 4.32-3.81 10.74.43 6.51 4.33 7.16 3.46 16.04-.86 8.89 2.93 15.61 2.93 15.61l-.05.07-31.93-22.12-1.95-1.35 25.2 35.4-.05.03c-1.99-.14-8.64-.21-16.05-6.27-7.41-6.07-12.77-5.87-16.14-5.53-3.37.33-6.32-3.47-6.32-3.47s-.2.5-.29 1.37c-.22 2.03.13 6.05 5 10.23 4.94 4.25 8.13 1.92 13.87 8.77 5.73 6.85 12.13 8.12 12.13 8.12l.01.05-37.98 7.73-2.32.47 42.63 7.82-.05.29c-1.51 1.31-6.27 6.09-15.8 6.99-9.53.91-13.21 4.82-15.36 7.43-2.16 2.61-6.93 1.98-6.93 1.98s.21.49.75 1.17c1.26 1.6 4.34 4.22 10.76 3.77 6.5-.46 7.13-4.36 16.03-3.53 8.32.79 14.73-2.51 15.51-2.93l-21.86 32.01-1.34 1.96 35.31-25.33.03.05c-.13 2-.18 8.63-6.22 16.07-6.04 7.43-5.82 12.8-5.47 16.16.34 3.37-3.45 6.33-3.45 6.33s.51.2 1.37.3c2.03.21 6.05-.16 10.22-5.04 4.24-4.96 1.89-8.15 8.73-13.91 6.82-5.75 7.62-12.15 7.62-12.15h.02l7.27 39.67.47-2.31 7.41-36.41c.35 1.67 1.79 6.42 7.3 11.06 6.83 5.75 4.49 8.94 8.72 13.9 4.16 4.88 8.19 5.25 10.22 5.04.87-.09 1.37-.29 1.37-.29s-3.79-2.96-3.45-6.34c.35-3.36.57-8.72-5.47-16.15-6.04-7.44-6.09-14.08-6.22-16.07l.04-.05 35.3 25.32-1.34-1.96-21.87-32.02c.74.41 7.17 3.74 15.53 2.95 8.89-.84 9.52 3.07 16.03 3.53 6.41.45 9.49-2.18 10.75-3.78.54-.68.75-1.17.75-1.17s-4.77.63-6.93-1.97c-2.15-2.61-5.82-6.53-15.36-7.43-9.53-.9-14.29-5.69-15.8-6.99z" fill="#fff"/><path d="m744.18 271.45v39.31h-357.22v-39.31zm0-78.9v39.3h-357.22v-39.3z" fill="#0d72ba"/><g fill="#fbee34"><path d="m368.97 252.63-42.64 7.82-13.41 2.46c1.42-3.19 2.21-6.73 2.22-10.44l.51.01h50.93l.07-.32z"/><path d="m313.55 241.36 1.19.24 13.93 2.83 37.98 7.73-.07.32h-50.93l-.51-.01v-.09c0-3.97-.88-7.73-2.47-11.1l.16-.07zm50.93 35.78s-.21.49-.75 1.17l-.12-.09s-7.72 2.5-12.56-1.56c-3.9-3.27-9.31-3.72-13.43-3.74-4.12-.01-12.64-2.16-23.89-9.13l-.27.18-.49-.72-.17-.07c.05-.09.09-.18.12-.27l13.41-2.46.06.3c1.51 1.3 6.27 6.09 15.8 6.99 9.54.9 13.21 4.82 15.36 7.43 2.16 2.6 6.93 1.97 6.93 1.97z"/><path d="m363.61 278.22.12.09c-1.26 1.6-4.34 4.23-10.75 3.78-6.51-.46-7.14-4.37-16.03-3.53-8.36.79-14.79-2.54-15.53-2.95 0 0 0 .01-.01 0l-7.95-11.64.27-.18c11.25 6.97 19.77 9.12 23.89 9.13 4.12.02 9.53.47 13.43 3.74 4.84 4.06 12.56 1.56 12.56 1.56zm-3.93-60.96c.23 2.03-.12 6.05-4.99 10.24-4.94 4.25-8.14 1.92-13.88 8.77-5.72 6.84-12.13 8.12-12.13 8.12l-.01.04-13.93-2.83.07-.35c12.9-2.95 19.58-6.57 22.52-9.46s7.1-6.37 12.17-6.79c6.29-.52 10.03-7.73 10.03-7.73z"/><path d="m359.68 217.26-.15.01s-3.74 7.21-10.03 7.73c-5.07.42-9.23 3.9-12.17 6.79s-9.62 6.51-22.52 9.46l-.07.35-1.19-.24 7.28-10.22.05.03c2-.14 8.64-.22 16.05-6.28 7.41-6.07 12.77-5.87 16.14-5.53 3.37.33 6.32-3.47 6.32-3.47s.2.5.29 1.37z"/><path d="m346.04 195.74-25.21 35.4-7.28 10.22-.72-.15-.16.07c-1.28-2.73-3.01-5.2-5.1-7.31l.66-.63 36.01-36.02-.16-.23zm-2.75 111.89 1.34 1.96-35.3-25.32-9.34-6.7.33-1.62c2.43-1.17 4.66-2.71 6.6-4.55l.24.25 35.89 36.15z"/><path d="m344.08 197.09.16.23-36.01 36.02-.66.63c-2.36-2.38-5.17-4.3-8.29-5.64l.1-.23.04-.08 1.47-1.02 11.26-7.79zm-22.67 78.52c.01.01.01 0 .01 0l21.87 32.02-.24.17-35.89-36.15-.24-.25a25.94 25.94 0 0 0 5.88-8.22l.17.07.49.72zm3.02 47.27s-.5.2-1.37.29l-.01-.16s-7.2-3.76-7.69-10.06c-.4-5.07-3.87-9.24-6.75-12.2-2.77-2.83-6.61-9.75-8.83-22.16l.21-1.02 9.34 6.7-.04.05c.13 1.99.18 8.63 6.22 16.07 6.04 7.43 5.82 12.79 5.47 16.15-.34 3.38 3.45 6.34 3.45 6.34z"/><path d="m323.05 323.01.01.16c-2.03.21-6.06-.16-10.22-5.04-4.23-4.96-1.89-8.15-8.72-13.9-5.51-4.64-6.95-9.39-7.3-11.06l2.96-14.58c2.22 12.41 6.06 19.33 8.83 22.16 2.88 2.96 6.35 7.13 6.75 12.2.49 6.3 7.69 10.06 7.69 10.06zm-8.36-146.26c1.6 1.26 4.24 4.33 3.81 10.74-.44 6.5-4.34 7.15-3.47 16.04s-2.93 15.61-2.93 15.61l.05.07-11.26 7.79-.49-.71c6.93-11.27 8.99-19.29 8.99-23.41s.44-9.54 3.69-13.44c4.04-4.85 1.52-12.57 1.52-12.57z"/><path d="m314.69 176.75-.09.12s2.52 7.72-1.52 12.57c-3.25 3.9-3.69 9.32-3.69 13.44s-2.06 12.14-8.99 23.41l.49.71-1.47 1.02-.04.08-2.54-13.87.41-.08c1.3-1.52 6.07-6.29 6.94-15.82.87-9.54 4.77-13.23 7.37-15.39 2.6-2.17 1.95-6.94 1.95-6.94s.5.21 1.18.75zm-15.14 100.51c.08.45.15.9.23 1.33l-2.96 14.58-7.41 36.41-.32-.07v-50.98c4.02-.02 7.83-.94 11.23-2.58l-.33 1.62z"/><path d="m299.38 228.1-.1.23a26.039 26.039 0 0 0 -10.16-2.11v-50.94l-.32-.07.47-2.32 7.57 41.34zm-.96 14.05c1.79 0 2.86.39 4.3 1.3-1.02 3.9-4.82 5.53-9.79 4.21-.34-1.82-.15-4.09.1-4.97h.54c1.57.1 3.2-.54 4.85-.54zm-1.39 24.95c-1.84 1.76-5.87 2.05-8.37 1.93-1.44-.07-2.99-.07-4.32-.51-1.2-.4-3.02-2.31-3.02-2.31 1.32.03 2.81-.66 4.1-.87 1.35-.22 2.71-.21 4.14-.21 2.71-.01 5.03 1.02 7.47 1.97zm-7.62 62.48-.47 2.31-7.27-39.67-2.75-15.06.31-.22.1-.26c2.98 1.2 6.24 1.85 9.65 1.85h.11v50.98zm-4.03-87c.24.88.43 3.15.09 4.98-4.97 1.31-8.76-.32-9.78-4.22 1.43-.9 2.51-1.3 4.3-1.3 1.64 0 3.27.65 4.85.54l.5-.14c.01.05.03.09.04.14zm-6.46 34.58 2.75 15.06h-.02s-.8 6.4-7.62 12.15c-6.84 5.76-4.49 8.95-8.73 13.91-4.17 4.88-8.19 5.25-10.22 5.04l.01-.16s7.2-3.76 7.69-10.06c.4-5.07 3.88-9.25 6.75-12.2 2.87-2.94 6.88-10.25 9.06-23.5zm1.94-62.9-2.51 12.3-.6-.12c-6.94-11.28-9-19.3-9-23.42 0-4.11-.43-9.53-3.69-13.44-4.04-4.85-1.51-12.57-1.51-12.57l-.09-.12c.68-.53 1.17-.74 1.17-.74s-.65 4.76 1.95 6.93 6.5 5.85 7.37 15.39c.86 9.46 5.56 14.23 6.91 15.79z"/><path d="m268.82 284.41 9.77-7.01c-2.18 13.25-6.19 20.56-9.06 23.5-2.87 2.95-6.35 7.13-6.75 12.2-.49 6.3-7.69 10.06-7.69 10.06l-.01.16c-.86-.1-1.37-.3-1.37-.3s3.79-2.96 3.45-6.33c-.35-3.36-.57-8.73 5.47-16.16 6.04-7.44 6.09-14.07 6.22-16.07zm9.53-57.85-.24 1.19-12.12-8.4.05-.07s-3.79-6.72-2.93-15.61c.87-8.88-3.03-9.53-3.46-16.04-.43-6.42 2.21-9.49 3.81-10.74l.09.12s-2.53 7.72 1.51 12.57c3.26 3.91 3.69 9.33 3.69 13.44 0 4.12 2.06 12.14 9 23.42z"/><path d="m278.11 227.75-.19.92a25.875 25.875 0 0 0 -7.51 5.3l-.5-.48-36.01-36.02.16-.24 31.93 22.12zm-21.4 48.02 7.96-11.65.5-.73.08-.03c1.43 3.11 3.47 5.9 5.96 8.2l-.23.24-35.89 36.15-.24-.17z"/><path d="m265.1 263.04c.04.11.09.21.15.32l-.08.03-.5.73-.26-.18c-11.24 6.97-19.77 9.12-23.88 9.13-4.13.02-9.54.47-13.43 3.74-4.84 4.06-12.57 1.55-12.57 1.55l-.12.1c-.54-.68-.75-1.17-.75-1.17s4.77.63 6.93-1.98c2.15-2.61 5.83-6.52 15.36-7.43 9.53-.9 14.29-5.68 15.8-6.99l.05-.29z"/><path d="m265.1 263.04-13.3-2.44-42.63-7.82 2.32-.47.07.32h50.94l.34-.01c.02 3.71.83 7.23 2.26 10.42zm-.43 1.08-7.96 11.65c-.78.42-7.19 3.72-15.51 2.93-8.9-.83-9.53 3.07-16.03 3.53-6.42.45-9.5-2.17-10.76-3.77l.12-.1s7.73 2.51 12.57-1.55c3.89-3.27 9.3-3.72 13.43-3.74 4.11-.01 12.64-2.16 23.88-9.13zm-7.36-32.84 7.28 10.23-1.19.24-.07-.36c-12.9-2.95-19.58-6.57-22.52-9.45-2.94-2.89-7.1-6.38-12.17-6.8-6.29-.51-10.03-7.72-10.03-7.72l-.15-.01c.09-.87.29-1.37.29-1.37s2.95 3.8 6.32 3.47c3.37-.34 8.73-.54 16.14 5.53 7.41 6.06 14.06 6.13 16.05 6.27z"/><path d="m263.33 241.39.07.36-13.93 2.83-.01-.05s-6.4-1.27-12.13-8.12c-5.74-6.85-8.93-4.52-13.87-8.77-4.87-4.18-5.22-8.2-5-10.23l.15.01s3.74 7.21 10.03 7.72c5.07.42 9.23 3.91 12.17 6.8 2.94 2.88 9.62 6.5 22.52 9.45z"/></g><g fill="none" stroke="#231f20"><path d="m163.83 141.68h580.35v378.04l-578.18-1.72m-43.36-401.06c-11.86-4.7-19.92-13.86-19.92-24.4 0-15.32 17.05-27.74 38.07-27.74 21.03 0 38.08 12.42 38.08 27.74 0 9.8-6.97 18.41-17.49 23.34-5.94 2.79-13.01 4.41-20.59 4.41-6.57 0-12.75-1.21-18.15-3.35zm-.64 3.06.07 663.67m39.31-669.59v669.59" stroke-width="21"/><path d="m747.66 192.55h-360.7v39.3h354.05m6.65 39.6h-360.7v39.31h354.05m-576.02 38.44h584.4m-583.82 40.46h584.4m-586.13 38.73h584.39m-585.55 39.3h584.4" stroke-width="7"/><path d="m312.67 241.28a25.93 25.93 0 0 1 2.47 11.1v.09c-.01 3.71-.8 7.25-2.22 10.44-.03.09-.07.18-.12.27a25.94 25.94 0 0 1 -5.88 8.22 25.972 25.972 0 0 1 -6.6 4.55 26.08 26.08 0 0 1 -11.23 2.58h-.11c-3.41 0-6.67-.65-9.65-1.85a25.707 25.707 0 0 1 -8.12-5.12c-2.49-2.3-4.53-5.09-5.96-8.2-.06-.11-.11-.21-.15-.32a25.737 25.737 0 0 1 -2.26-10.42c-.01-.08-.01-.16-.01-.24 0-3.94.87-7.67 2.43-11.01 1.27-2.77 3.02-5.26 5.15-7.4 2.15-2.18 4.69-3.99 7.51-5.3 3.36-1.57 7.1-2.45 11.06-2.45h.14c3.61.02 7.04.77 10.16 2.11s5.93 3.26 8.29 5.64c2.09 2.11 3.82 4.58 5.1 7.31z" stroke-width="3.468"/><path d="m299.38 228.1-2.54-13.87-7.57-41.34-.47 2.32-7.94 39.05-2.51 12.3-.24 1.19-.19.92-.07.37m11.27-53.76v50.94m-10.29 50.47.09.47 2.75 15.06 7.27 39.67.47-2.31 7.41-36.41 2.96-14.58.21-1.02.33-1.62.04-.2" stroke-width="3.468"/><path d="m289.09 329.51v-50.94" stroke-width="1.734"/><path d="m265.28 263.07-.18-.03-13.3-2.44-42.63-7.82 2.32-.47 37.98-7.73 13.93-2.83 1.19-.24.67-.14.05-.01" stroke-width="3.468"/><path d="m211.56 252.63h50.94" stroke-width="1.734"/><path d="m264.74 241.72-.15-.21-7.28-10.23-25.2-35.4 1.95 1.35 31.93 22.12 12.12 8.4.61.42" stroke-width="3.468"/><path d="m233.9 197.47 36.01 36.02" stroke-width="1.734"/><path d="m280.89 214.3c-.01-.01-.02-.03-.03-.04-1.35-1.56-6.05-6.33-6.91-15.79-.87-9.54-4.77-13.22-7.37-15.39s-1.95-6.93-1.95-6.93-.49.21-1.17.74c-1.6 1.25-4.24 4.32-3.81 10.74.43 6.51 4.33 7.16 3.46 16.04-.86 8.89 2.93 15.61 2.93 15.61" stroke-width="3.468"/><path d="m263.55 177.01s-2.53 7.72 1.51 12.57c3.26 3.91 3.69 9.33 3.69 13.44 0 4.12 2.06 12.14 9 23.42" stroke-width="1.734"/><path d="m257.26 231.31c-1.99-.14-8.64-.21-16.05-6.27-7.41-6.07-12.77-5.87-16.14-5.53-3.37.33-6.32-3.47-6.32-3.47s-.2.5-.29 1.37c-.22 2.03.13 6.05 5 10.23 4.94 4.25 8.13 1.92 13.87 8.77 5.73 6.85 12.13 8.12 12.13 8.12" stroke-width="3.468"/><path d="m218.61 217.42s3.74 7.21 10.03 7.72c5.07.42 9.23 3.91 12.17 6.8 2.94 2.88 9.62 6.5 22.52 9.45" stroke-width="1.734"/><path d="m279.23 276.94-.31.22-.33.24-9.77 7.01-35.31 25.33 1.34-1.96 21.86-32.01 7.96-11.65.5-.73" stroke-width="3.468"/><path d="m235.09 307.95 35.89-36.15" stroke-width="1.734"/><path d="m251.75 260.89c-1.51 1.31-6.27 6.09-15.8 6.99-9.53.91-13.21 4.82-15.36 7.43-2.16 2.61-6.93 1.98-6.93 1.98s.21.49.75 1.17c1.26 1.6 4.34 4.22 10.76 3.77 6.5-.46 7.13-4.36 16.03-3.53 8.32.79 14.73-2.51 15.51-2.93.05-.02.08-.04.08-.04" stroke-width="3.468"/><path d="m214.53 278.36s7.73 2.51 12.57-1.55c3.89-3.27 9.3-3.72 13.43-3.74 4.11-.01 12.64-2.16 23.88-9.13" stroke-width="1.734"/><path d="m268.85 284.46c-.13 2-.18 8.63-6.22 16.07-6.04 7.43-5.82 12.8-5.47 16.16.34 3.37-3.45 6.33-3.45 6.33s.51.2 1.37.3c2.03.21 6.05-.16 10.22-5.04 4.24-4.96 1.89-8.15 8.73-13.91 6.82-5.75 7.62-12.15 7.62-12.15" stroke-width="3.468"/><path d="m255.09 323.16s7.2-3.76 7.69-10.06c.4-5.07 3.88-9.25 6.75-12.2 2.87-2.94 6.88-10.25 9.06-23.5.01-.04.01-.09.02-.13" stroke-width="1.734"/><path d="m312.86 262.92.06-.01 13.41-2.46 42.64-7.82-2.32-.47-37.98-7.73-13.93-2.83-1.19-.24-.72-.15" stroke-width="3.468"/><path d="m366.58 252.48h-50.93" stroke-width="1.734"/><path d="m313.4 241.57.15-.21 7.28-10.22 25.21-35.4-1.96 1.35-31.93 22.12-11.26 7.79-1.47 1.02" stroke-width="3.468"/><path d="m344.24 197.32-36.01 36.02" stroke-width="1.734"/><path d="m297.25 214.15c1.3-1.52 6.07-6.29 6.94-15.82.87-9.54 4.77-13.23 7.37-15.39 2.6-2.17 1.95-6.94 1.95-6.94s.5.21 1.18.75c1.6 1.26 4.24 4.33 3.81 10.74-.44 6.5-4.34 7.15-3.47 16.04s-2.93 15.61-2.93 15.61" stroke-width="3.468"/><path d="m314.6 176.87s2.52 7.72-1.52 12.57c-3.25 3.9-3.69 9.32-3.69 13.44s-2.06 12.14-8.99 23.41" stroke-width="1.734"/><path d="m320.88 231.17c2-.14 8.64-.22 16.05-6.28 7.41-6.07 12.77-5.87 16.14-5.53 3.37.33 6.32-3.47 6.32-3.47s.2.5.29 1.37c.23 2.03-.12 6.05-4.99 10.24-4.94 4.25-8.14 1.92-13.88 8.77-5.72 6.84-12.13 8.12-12.13 8.12" stroke-width="3.468"/><path d="m359.53 217.27s-3.74 7.21-10.03 7.73c-5.07.42-9.23 3.9-12.17 6.79s-9.62 6.51-22.52 9.46" stroke-width="1.734"/><path d="m321.41 275.61-7.95-11.64-.49-.72m-14.06 13.55.64.46.44.31 9.34 6.7 35.3 25.32-1.34-1.96-21.87-32.02" stroke-width="3.468"/><path d="m343.05 307.8-35.89-36.15" stroke-width="1.734"/><path d="m326.39 260.75c1.51 1.3 6.27 6.09 15.8 6.99 9.54.9 13.21 4.82 15.36 7.43 2.16 2.6 6.93 1.97 6.93 1.97s-.21.49-.75 1.17c-1.26 1.6-4.34 4.23-10.75 3.78-6.51-.46-7.14-4.37-16.03-3.53-8.36.79-14.79-2.54-15.53-2.95 0 0 0 .01-.01 0l-.06-.03" stroke-width="3.468"/><path d="m363.61 278.22s-7.72 2.5-12.56-1.56c-3.9-3.27-9.31-3.72-13.43-3.74-4.12-.01-12.64-2.16-23.89-9.13" stroke-width="1.734"/><path d="m309.29 284.32c.13 1.99.18 8.63 6.22 16.07 6.04 7.43 5.82 12.79 5.47 16.15-.34 3.38 3.45 6.34 3.45 6.34s-.5.2-1.37.29c-2.03.21-6.06-.16-10.22-5.04-4.23-4.96-1.89-8.15-8.72-13.9-5.51-4.64-6.95-9.39-7.3-11.06-.09-.4-.11-.62-.11-.62" stroke-width="3.468"/><path d="m323.05 323.01s-7.2-3.76-7.69-10.06c-.4-5.07-3.87-9.24-6.75-12.2-2.77-2.83-6.61-9.75-8.83-22.16-.08-.43-.15-.88-.23-1.33 0-.05-.01-.09-.02-.14m-5.96-34.43c1.57.1 3.2-.54 4.85-.54 1.79 0 2.86.39 4.3 1.3-1.02 3.9-4.82 5.53-9.79 4.21-.34-1.82-.15-4.09.1-4.97.41-1.49.93-2.75 1.87-3.98 2.01-2.61 6.46-4.01 9.51-1.98m-19.57 5.85c-1.58.11-3.21-.54-4.85-.54-1.79 0-2.87.4-4.3 1.3 1.02 3.9 4.81 5.53 9.78 4.22.34-1.83.15-4.1-.09-4.98-.01-.05-.03-.09-.04-.14-.4-1.43-.92-2.65-1.84-3.84-2.01-2.61-6.46-4.01-9.5-1.98m8.19 22.11c1.65-.52 2.37-2.11 3.87-.84 1.3 1.1 1.86 1.86 3.83 1.5 1.48-.28 2.32-1.96 3.87-1.85.64.05 1.2.56 1.76.9m-14.2 7.77c1.32.03 2.81-.66 4.1-.87 1.35-.22 2.71-.21 4.14-.21 2.71-.01 5.03 1.02 7.47 1.97-1.84 1.76-5.87 2.05-8.37 1.93-1.44-.07-2.99-.07-4.32-.51-1.2-.4-3.02-2.31-3.02-2.31z" stroke-width="1.734"/></g><path d="m0 0h850.394v850.394h-850.394z" fill="none"/></svg>