<svg height="850.394" viewBox="0 0 850.394 850.394" width="850.394" xmlns="http://www.w3.org/2000/svg"><path d="m162.61 426v359.38h-39.49l-1.12-670.61c5.8 2.59 12.62 4.08 19.92 4.08 7.62 0 14.73-1.63 20.69-4.43z" fill="#c8c8c8"/><path d="m616.99 244.32a25.282 25.282 0 0 1 -.5 6.37l-1.851-.09 1.681.86c-.5 2.09-1.261 4.09-2.24 5.94l-1.99-.64 1.561 1.42a25.514 25.514 0 0 1 -3.78 5.03l-1.83-1.17 1.17 1.83c-1.51 1.46-3.2 2.73-5.03 3.78l-1.42-1.56.641 1.99a25.298 25.298 0 0 1 -5.94 2.24l-.86-1.68.091 1.85a25.223 25.223 0 0 1 -6.37.5l-.32-1.48-.31 1.44a25.05 25.05 0 0 1 -6.341-1.27l.051-1.04-.46.9a25.022 25.022 0 0 1 -5.851-2.99l.15-.46-.311.34a24.945 24.945 0 0 1 -4.899-4.45 25.236 25.236 0 0 1 -3.511-5.41 25.419 25.419 0 0 1 -2.52-11.06c0-.44.01-.88.03-1.31.66-13.05 11.12-23.51 24.17-24.17.43-.02.87-.03 1.31-.03a25.43 25.43 0 0 1 9.931 2.01c2.39 1.01 4.59 2.37 6.54 4.02a24.977 24.977 0 0 1 4.449 4.9l-.34.31.46-.15c1.24 1.8 2.25 3.76 2.99 5.85l-.9.46 1.04-.05c.681 2.01 1.12 4.13 1.271 6.34l-1.44.31z" fill="#a8d7f4"/><path d="m748.18 426v94.17h-579.62l-.87-94.17h580.31z" fill="#58b947"/><path d="m748.18 338v88h-580.49l-.8-88z" fill="#fbed24"/><path d="m748.18 177.46v160.54h-581.29l-1.82-197.66h583.11zm-131.23 66.23 37.689-8.2-38.96 1.86a4.93 4.93 0 0 0 -.14-.41l34.69-17.89-37.681 12.04a.795.795 0 0 0 -.12-.16l29.29-26.62-33.68 21.65 21.65-33.68-26.931 29.63 12.19-38.14-18.347 35.59 1.91-40-8.51 39.13-8.51-39.13 1.91 40-18.351-35.59 12.19 38.14-26.931-29.63 21.65 33.68-33.68-21.65 29.63 26.93-38.141-12.19 35.591 18.35-40-1.91 39.13 8.51-39.13 8.51 40-1.91-35.591 18.35 38.141-12.19-29.63 26.93 33.68-21.65-21.65 33.68 26.62-29.29c.051.05.11.09.16.12l-12.04 37.68 17.891-34.69c.13.05.27.1.409.14l-1.859 38.96 8.2-37.69c.21.02.42.03.63.04l8.189 37.65-1.819-38.15c.26-.05.52-.11.77-.17l17.49 33.91-11.55-36.15c.27-.14.529-.28.779-.43l25.511 28.07-20.48-31.85c.23-.21.45-.43.66-.66l31.85 20.48-28.069-25.51c.149-.25.29-.51.43-.78l36.15 11.55-33.91-17.49c.06-.25.12-.51.17-.77l38.149 1.82-37.649-8.19c-.01-.21-.02-.42-.04-.63z" fill="#a8d7f4"/><path d="m654.64 235.49-37.689 8.2c-.15-2.21-.59-4.33-1.271-6.34zm0 17.02-38.149-1.82a25.213 25.213 0 0 0 .5-6.37zm-4.41-33.46-34.69 17.89c-.74-2.09-1.75-4.05-2.99-5.85zm0 49.9-36.15-11.55c.979-1.85 1.74-3.85 2.24-5.94zm-8.51-64.64-29.29 26.62a24.977 24.977 0 0 0 -4.449-4.9l.06-.07zm0 79.38-31.85-20.48c1.46-1.51 2.729-3.2 3.78-5.03zm-12.03-91.41-21.65 33.68-.06.07a25.471 25.471 0 0 0 -6.54-4.02l1.319-.1zm-20.48 71.59 20.48 31.85-25.511-28.07a25.452 25.452 0 0 0 5.031-3.78z" fill="#fbed24"/><path d="m616.95 243.69c.02.21.03.42.04.63l-1.48-.32zm-.46 7c-.05.26-.11.52-.17.77l-1.681-.86zm-.95-13.75c.05.13.1.27.14.41l-1.04.05z" fill="#fff"/><path d="m614.95 183.77-12.19 38.14-1.319.1c-1.601-.68-3.29-1.2-5.04-1.54l.199-1.11zm-11.55 84.31 11.55 36.15-17.49-33.91c2.09-.5 4.09-1.26 5.94-2.24z" fill="#fbed24"/><path d="m612.09 256.76 1.99.64c-.14.27-.28.53-.43.78zm.46-25.67-.46.15.34-.31c.05.05.09.11.12.16zm-2.68 32.12c-.21.23-.43.45-.66.66l-1.17-1.83zm-7.11 2.88 1.42 1.56c-.25.15-.51.29-.779.43z" fill="#fff"/><path d="m598.51 179.36-1.91 40-.199 1.11a25.43 25.43 0 0 0 -4.891-.47c-.439 0-.88.01-1.31.03l-.2-1.54zm-1.82 91.13 1.819 38.15-8.189-37.65a25.215 25.215 0 0 0 6.37-.5z" fill="#fbed24"/><path d="m596.6 268.64.86 1.68c-.25.06-.51.12-.77.17zm-6.6.87.32 1.48c-.21-.01-.42-.02-.63-.04z" fill="#fff"/><path d="m590 218.49.2 1.54c-13.05.66-23.51 11.12-24.17 24.17l-1.54-.2-39.13-8.51 40 1.91-35.591-18.35 38.141 12.19-29.63-26.93 33.68 21.65-21.65-33.68 26.931 29.63-12.19-38.14 18.351 35.59-1.91-40zm-.31 52.46-8.2 37.69 1.859-38.96a25.05 25.05 0 0 0 6.341 1.27z" fill="#fbed24"/><path d="m583.4 268.64-.051 1.04c-.14-.04-.279-.09-.409-.14z" fill="#fff"/><path d="m582.94 269.54-17.891 34.69 12.04-37.68a25.06 25.06 0 0 0 5.851 2.99z" fill="#fbed24"/><path d="m577.24 266.09-.15.46a.867.867 0 0 1 -.16-.12z" fill="#fff"/><g fill="#fbed24"><path d="m576.93 266.43-26.62 29.29 21.65-33.68.07-.06a24.95 24.95 0 0 0 4.9 4.45z"/><path d="m572.03 261.98-.07.06-33.68 21.65 29.63-26.93.609-.19a25.274 25.274 0 0 0 3.511 5.41z"/><path d="m568.52 256.57-.609.19-38.141 12.19 35.591-18.35 1.109-.2a25.28 25.28 0 0 0 2.05 6.17z"/><path d="m566.47 250.4-1.109.2-40 1.91 39.13-8.51 1.54.2c-.021.43-.03.87-.03 1.31a25.34 25.34 0 0 0 .469 4.89z"/></g><path d="m122 114.77c-10.99-4.89-18.33-13.72-18.33-23.8 0-15.4 17.13-27.88 38.25-27.88 21.13 0 38.26 12.48 38.26 27.88 0 9.84-7 18.49-17.57 23.45-5.96 2.8-13.07 4.43-20.69 4.43-7.3 0-14.12-1.49-19.92-4.08z" fill="#c8c8c8"/><g fill="none" stroke="#231f20"><path d="m165.07 140.34h583.11v379.83h-579.62m-46.56-405.4c-10.99-4.89-18.33-13.72-18.33-23.8 0-15.4 17.13-27.88 38.25-27.88 21.13 0 38.26 12.48 38.26 27.88 0 9.84-7 18.49-17.57 23.45-5.96 2.8-13.07 4.43-20.69 4.43-7.3 0-14.12-1.49-19.92-4.08z" stroke-width="21"/><path d="m122 114v.77l1.12 670.61m39.49-672.78v672.78" stroke-width="21"/><path d="m744.76 179.39 3.42-1.93 2.01-1.14m-586.19 161.68h588m-588 88h584" stroke-width="14"/><path d="m576.93 266.43-26.62 29.29 21.65-33.68-33.68 21.65 29.63-26.93-38.14 12.19 35.59-18.35-40 1.91 39.13-8.51-39.13-8.51 40 1.91-35.59-18.35 38.14 12.19-29.63-26.93 33.68 21.65-21.65-33.68 26.93 29.63-12.19-38.14 18.35 35.59-1.91-40 8.51 39.13 8.51-39.13-1.91 40 18.35-35.59-12.19 38.14 26.93-29.63-21.65 33.68 33.68-21.65-29.29 26.62" stroke-width="3"/><path d="m582.94 269.54-17.89 34.69 12.04-37.68m12.6 4.4-8.2 37.69 1.86-38.96m13.34.81 1.82 38.15-8.19-37.65m13.08-2.91 11.55 36.15-17.49-33.91m11.75-6.45 20.48 31.85-25.51-28.07m9.47-9.47 28.07 25.51-31.85-20.48m6.45-11.75 33.91 17.49-36.15-11.55m2.91-13.08 37.65 8.19-38.15-1.82m-.81-13.34 38.96-1.86-37.69 8.2m-4.4-12.6 37.68-12.04-34.69 17.89" stroke-width="3"/><path d="m616.99 244.32a25.282 25.282 0 0 1 -.5 6.37 25.309 25.309 0 0 1 -2.41 6.71c-.14.27-.28.53-.43.78a25.514 25.514 0 0 1 -3.78 5.03c-.21.23-.43.45-.66.66-1.51 1.46-3.2 2.73-5.03 3.78-.25.15-.51.29-.779.43a25.298 25.298 0 0 1 -6.71 2.41 25.223 25.223 0 0 1 -7 .46 25.05 25.05 0 0 1 -6.341-1.27c-.14-.04-.279-.09-.409-.14a25.022 25.022 0 0 1 -5.851-2.99.867.867 0 0 1 -.16-.12 24.945 24.945 0 0 1 -4.899-4.45 25.236 25.236 0 0 1 -3.511-5.41 25.419 25.419 0 0 1 -2.52-11.06c0-.44.01-.88.03-1.31.66-13.05 11.12-23.51 24.17-24.17.43-.02.87-.03 1.31-.03a25.43 25.43 0 0 1 9.931 2.01c2.39 1.01 4.59 2.37 6.54 4.02a24.977 24.977 0 0 1 4.449 4.9c.051.05.09.11.12.16 1.24 1.8 2.25 3.76 2.99 5.85.05.13.1.27.14.41.681 2.01 1.12 4.13 1.271 6.34.019.21.029.42.039.63z" stroke-width="7"/></g><circle cx="591.509" cy="245.509" fill="#fbed24" r="15.59" stroke="#231f20" stroke-width="4"/><path d="m0 0h850.394v850.394h-850.394z" fill="none"/></svg>