<svg height="850.394" viewBox="0 0 850.394 850.394" width="850.394" xmlns="http://www.w3.org/2000/svg"><path d="m748.18 177.46v342.71h-579.62l-3.49-379.83h583.11zm-208.8 172.12 18.17-29.09-33.29 8.28-22.06-26.27-2.4 34.22-31.8 12.86 31.8 12.86 2.4 34.22 22.06-26.26 33.29 8.28zm-85.06 73.32 1.27-159.25c-17.25-14.49-40.09-21.65-64.38-21.65-54.79 0-99.21 44.42-99.21 99.21 0 54.8 44.42 99.21 99.21 99.21 20.55 0 47.28-6.82 63.11-17.52z" fill="#ed1e29"/><path d="m557.55 320.49-18.17 29.09 18.17 29.1-33.29-8.28-22.06 26.26-2.4-34.22-31.8-12.86 31.8-12.86 2.4-34.22 22.06 26.27z" fill="#fff"/><path d="m455.59 263.65-1.27 159.25c-9.13 3.35-18.99 5.18-29.28 5.18-46.97 0-85.04-38.08-85.04-85.04 0-46.97 38.07-85.04 85.04-85.04 10.77 0 21.07 2 30.55 5.65z" fill="#ed1e29"/><path d="m455.59 263.65c-9.48-3.65-19.78-5.65-30.55-5.65-46.97 0-85.04 38.07-85.04 85.04 0 46.96 38.07 85.04 85.04 85.04 10.29 0 20.15-1.83 29.28-5.18-15.83 10.7-42.561 17.52-63.11 17.52-54.79 0-99.21-44.41-99.21-99.21 0-54.79 44.42-99.21 99.21-99.21 24.29 0 47.13 7.16 64.38 21.65z" fill="#fff"/><path d="m122 114.77c-10.99-4.89-18.33-13.72-18.33-23.8 0-15.4 17.13-27.88 38.25-27.88 21.13 0 38.26 12.48 38.26 27.88 0 9.84-7 18.49-17.57 23.45-5.96 2.8-13.07 4.43-20.69 4.43-7.3 0-14.12-1.49-19.92-4.08z" fill="#c8c8c8"/><path d="m162.61 114.42v670.96h-39.49l-1.12-670.61c5.8 2.59 12.62 4.08 19.92 4.08 7.62 0 14.73-1.63 20.69-4.43z" fill="#c8c8c8"/><g fill="none"><g stroke="#231f20"><path d="m165.07 140.34h583.11v379.83h-579.62m-46.56-405.4c-10.99-4.89-18.33-13.72-18.33-23.8 0-15.4 17.13-27.88 38.25-27.88 21.13 0 38.26 12.48 38.26 27.88 0 9.84-7 18.49-17.57 23.45-5.96 2.8-13.07 4.43-20.69 4.43-7.3 0-14.12-1.49-19.92-4.08z" stroke-width="21"/><path d="m122 114v.77l1.12 670.61m39.49-672.78v672.78" stroke-width="21"/><path d="m744.76 179.39 3.42-1.93 2.01-1.14" stroke-width="14"/><g stroke-width="7"><path d="m454.32 422.9c-15.83 10.7-42.561 17.52-63.11 17.52-54.79 0-99.21-44.41-99.21-99.21 0-54.79 44.42-99.21 99.21-99.21 24.29 0 47.13 7.16 64.38 21.65"/><path d="m454.32 422.9c-9.13 3.35-18.99 5.18-29.28 5.18-46.97 0-85.04-38.08-85.04-85.04 0-46.97 38.07-85.04 85.04-85.04 10.77 0 21.07 2 30.55 5.65m83.79 85.93 18.17 29.1-33.29-8.28-22.06 26.26-2.4-34.22-31.8-12.86 31.8-12.86 2.4-34.22 22.06 26.27 33.29-8.28z"/></g></g><path d="m0 0h850.394v850.394h-850.394z"/></g></svg>