<svg height="850.89" viewBox="0 0 850.89 850.89" width="850.89" xmlns="http://www.w3.org/2000/svg"><path d="m602.1 290.42c-.689 2.21 2.301 2.38 6.101 2.08v3.54h-.601v32.09h46.531v19.31s-.03.21-.1.6l-.29-.01h-46.37v49.19l.13.97c-5.59 1.41-9.79 1.84-9.79 1.84s-3.94-.35-9.26-1.59l.34-1.38v-49.18h-46.38l-1.29.04a5.64 5.64 0 0 1 -.04-.27v-19.68h47.46v-32.09h-29.06v-3.92c3.75 0 7.21-1.66 9.829-2.83 1.74-.78 2.99-1.56 4.591-1.77 1.51-.21 3.34.11 6.18 1.42 5.86 2.69 13-1.99 18.97-4.57 5.98-2.58 14.88-7.26 16.63-6.67 1.761.58 2.46 1.75 0 3.04s-1.64 5.62-1.399 7.38c.229 1.75-2.46 1.87-4.8 0-2.352-1.88-6.212-1.29-7.382 2.46zm51.18 5.62h-13.36v-1.99c1.08-.05 6.33-3.87 7.97-5.16 1.641-1.28-1.409-7.84-2.58-8.9-1.17-1.05-3.859-.82-8.43 0-3.68.66-4.85-1.26-8.83-4.41l1.57-.04s6.09-3.04 3.28-7.26c-1.24-1.86-3.221-2.99-5.761-2.99l-.01-4.47 27-.05v35.27z" fill="#ed1d31"/><path d="m626.66 389.68c-5.69 4.4-13.21 7.01-19.16 8.51l-.13-.97v-15.51h4.55c0 .48.2.87.6 1.11 2.931 1.75 5.62 1.05 6.211-1.41.579-2.46.579-5.27.579-5.27l.08-.49c1.61.24 4.19.39 6.601-.56 3.859-1.53 10.89-8.79 12.529-10.89 1.641-2.11 1.87-3.75.7-4.57-.58-.4-2.479-2.31-4.54-4.25l.09-.09 2.11-1.99c2.11-1.99 4.92 1.29 5.97.82 1.061-.46 2.23-2.69-1.75-3.98a4.872 4.872 0 0 0 -1.529-.24v-1.87h14.17l.29.01c-.721 3.79-5.541 24.78-27.371 41.64z" fill="#fff"/><path d="m639.22 359.63c1.17.82.94 2.46-.7 4.57-1.64 2.1-8.67 9.36-12.529 10.89-2.41.95-4.99.8-6.601.56-.979-.15-1.6-.33-1.6-.33s-2.22-4.57.35-10.66c2.58-6.09 8.9-14.4 11.011-13.7.729.24 2 1.24 3.42 2.49.68.61 1.41 1.27 2.109 1.93 2.06 1.94 3.96 3.85 4.54 4.25z" fill="#33a048"/><path d="m639.57 349.9c.5 0 1.01.07 1.529.24 3.98 1.29 2.811 3.52 1.75 3.98-1.05.47-3.859-2.81-5.97-.82l-2.11 1.99-.09.09c-.699-.66-1.43-1.32-2.109-1.93l.68-.26s2.93-3.29 6.32-3.29z" fill="#33a048"/><path d="m631.41 312.6 5.95 7.02c.83-3.46-2.63-9.56-2.63-9.56 4.43-.69 8.029 2.91 8.029 2.91-.56-4.01-6.52-7.34-6.52-7.34 3.6-2.22 9.14-2.77 9.14-2.77-2.85-2.05-5.479-2.74-7.72-2.74v-4.08h16.47v32.09h-25.14v-2.11h2.189v-13.23z" fill="#fff"/><path d="m630.87 311.96.54.64-.23.19v13.23h-2.19v-13.23l-.2-.17.52-.6z" fill="#9e5c26"/><path d="m628.99 312.79v15.34h-21.39v-32.09h30.061v4.08c-4.391 0-7.26 2.63-7.26 2.63s-7.32-5.82-15.761.27c0 0 5.54.55 9.141 2.77 0 0-5.96 3.33-6.521 7.34 0 0 3.601-3.6 8.03-2.91 0 0-3.46 6.1-2.62 9.56l6.12-7.16zm10.58 37.11c-3.391 0-6.32 3.29-6.32 3.29l-.68.26c-1.42-1.25-2.69-2.25-3.42-2.49-2.11-.7-8.431 7.61-11.011 13.7-2.569 6.09-.35 10.66-.35 10.66s-1.29.94-3.63 2.93c-1.521 1.3-2.24 2.55-2.24 3.46h-4.55v-33.68h32.2v1.87z" fill="#fff"/><path d="m634.73 310.06s3.46 6.1 2.63 9.56l-5.95-7.02-.54-.64-1.561.06-.52.6-6.12 7.16c-.84-3.46 2.62-9.56 2.62-9.56-4.43-.69-8.03 2.91-8.03 2.91.561-4.01 6.521-7.34 6.521-7.34-3.601-2.22-9.141-2.77-9.141-2.77 8.44-6.09 15.761-.27 15.761-.27s2.869-2.63 7.26-2.63c2.24 0 4.87.69 7.72 2.74 0 0-5.54.55-9.14 2.77 0 0 5.96 3.33 6.52 7.34 0 0-3.6-3.6-8.03-2.91z" fill="#33a048"/><path d="m595.43 260.88 31.7-.06.01 4.47c-1.33 0-2.819.31-4.43 1-1.92.82-4.7 1.54-7.61 2.02-4.17.69-8.619.9-11.239.21-3.37-.89-5.94-2.79-8.42-2.79z" fill="#ed1d31"/><path d="m619.31 376.14s0 2.81-.579 5.27c-.591 2.46-3.28 3.16-6.211 1.41-.399-.24-.6-.63-.6-1.11 0-.91.72-2.16 2.24-3.46 2.34-1.99 3.63-2.93 3.63-2.93s.62.18 1.6.33z" fill="#33a048"/><path d="m624.58 273.08c-2.65-1.72-5.72-1.96-8.91-1.42l-.57-3.35c2.91-.48 5.69-1.2 7.61-2.02 1.61-.69 3.1-1 4.43-1 2.54 0 4.521 1.13 5.761 2.99 2.81 4.22-3.28 7.26-3.28 7.26l-1.57.04a42.868 42.868 0 0 0 -3.471-2.5zm13.12 16.17c-3.75 0-.271 4.91 2.22 4.8v1.99h-31.72v-3.54c2.62-.21 5.64-.65 8.069-.79 6.011-.36 3.28-3.05 2.931-5.63-.36-2.57 1.28-5.03 4.8-3.51 3.51 1.52 9.37 1.05 14.05.47 4.69-.59 4.92.82 5.62 3.51.7 2.7-2.22 2.7-5.97 2.7z" fill="#ed1d31"/><path d="m608.2 292.5c-3.8.3-6.79.13-6.101-2.08 1.17-3.75 5.03-4.34 7.381-2.46 2.34 1.87 5.029 1.75 4.8 0-.24-1.76-1.061-6.09 1.399-7.38s1.761-2.46 0-3.04c-1.75-.59-10.649 4.09-16.63 6.67-5.97 2.58-13.109 7.26-18.97 4.57l1.61-3.52 3.739 1.72.16-4.53 4.21-.93-4.21-3.44.04-.16c3.95 1.08 9.82 1.58 14.48-.38 4.659-1.97 10.279-4.98 15.56-5.88 3.19-.54 6.26-.3 8.91 1.42 1.37.89 2.51 1.73 3.47 2.5 3.98 3.15 5.15 5.07 8.83 4.41 4.57-.82 7.26-1.05 8.43 0 1.171 1.06 4.221 7.62 2.58 8.9-1.64 1.29-6.89 5.11-7.97 5.16-2.49.11-5.97-4.8-2.22-4.8s6.67 0 5.97-2.7c-.7-2.69-.93-4.1-5.62-3.51-4.68.58-10.54 1.05-14.05-.47-3.52-1.52-5.16.94-4.8 3.51.35 2.58 3.08 5.27-2.931 5.63-2.427.14-5.447.58-8.067.79z" fill="#fbee34"/><path d="m603.86 268.52c2.62.69 7.069.48 11.239-.21l.57 3.35c-5.28.9-10.9 3.91-15.56 5.88-4.66 1.96-10.53 1.46-14.48.38-1.68-.46-3.01-1.02-3.77-1.54-.33-.22-.551-.44-.641-.64-.779-1.71 3.11-6.4 3.11-6.4h-3.74l.311-3.75-3.12 1.09-2.65-1.87-.01-3.89 20.31-.04.011 4.85c2.48 0 5.05 1.9 8.42 2.79z" fill="#ed1d31"/><path d="m580.59 269.34h3.74s-3.89 4.69-3.11 6.4c.09.2.311.42.641.64-.66.86-3.931 4.59-8.92 2.64-3.181-1.24-2.341-5.94-2.341-5.94l-.01-.15c.25-.02.47-.07.63-.16l3.91-7.96 2.65 1.87 3.12-1.09z" fill="#fbee34"/><path d="m588.79 347.88v28.5h-2.53c0-.46-.09-.82-.21-.94-.46-.47-6.09-5.39-7.14-7.61-1.05-2.23 2.58-5.51 4.689-10.19 2.101-4.69 0-5.04 0-5.04s-5.779 5.69-9.02 6.35v-.02s1.64-2.7 2.93-5.98c.94-2.41 1.07-3.42.561-3.42v-1.65zm-.25-46.84v26.93h-13.01v-4.45h1.479v-15.75l.15-.13 4.05 4.77c.57-2.34-1.79-6.49-1.79-6.49 3.01-.46 5.46 1.98 5.46 1.98-.38-2.72-4.42-4.98-4.42-4.98 2.45-1.51 6.2-1.88 6.2-1.88z" fill="#fff"/><path d="m577.01 307.77v15.75h-1.48v-15.75l-.12-.11.34-.4 1.05-.04.36.42z" fill="#9e5c26"/><path d="m575.41 307.66-4.17 4.87c-.58-2.35 1.77-6.49 1.77-6.49-3-.48-5.439 1.97-5.439 1.97.37-2.73 4.42-4.98 4.42-4.98-1.86-1.15-4.48-1.64-5.63-1.82l.29-.03c-.16-.11-.32-.22-.471-.32 5.57-3.67 10.32.1 10.32.1s4.42-4.06 10.16.08c0 0-3.75.37-6.2 1.88 0 0 4.04 2.26 4.42 4.98 0 0-2.45-2.44-5.46-1.98 0 0 2.36 4.15 1.79 6.49l-4.05-4.77-.36-.42-1.05.04z" fill="#33a048"/><path d="m573.06 358.69c-1.18-1-1.829-2.09-2.55-3.28l.2-.12s5.271-4.44 6.56-5.38c.341-.25.61-.38.801-.38.51 0 .38 1.01-.561 3.42-1.29 3.28-2.93 5.98-2.93 5.98v.02c-.62.12-1.14.06-1.52-.26z" fill="#fff"/><path d="m570.6 273.08s-.84 4.7 2.341 5.94c4.989 1.95 8.26-1.78 8.92-2.64.76.52 2.09 1.08 3.77 1.54l-.04.16 4.21 3.44-4.21.93-.16 4.53-3.739-1.72-1.61 3.52c-2.84-1.31-4.67-1.63-6.18-1.42l-.03-.22-1.25-3.59-5.15.16 2.971-4.22-4.37-4.37 3.59-1.88.04-.35c.34.05.64.06.89.04z" fill="#fbee34"/><path d="m576.8 373.1c-6.09-1.64-12.29-5.51-13.35-10.54-1.05-5.04 2.93-8.2-.7-9.02l-2.34-.24s4.21-4.56 7.14-1.75c1.46 1.4 2.25 2.68 2.96 3.86.721 1.19 1.37 2.28 2.55 3.28.381.32.9.38 1.521.26 3.24-.66 9.02-6.35 9.02-6.35s2.101.35 0 5.04c-2.109 4.68-5.739 7.96-4.689 10.19 1.05 2.22 6.68 7.14 7.14 7.61.12.12.21.48.21.94 0 1.28-.68 3.33-3.02 2.81-3.162-.71-3.052-5.18-6.442-6.09z" fill="#fff"/><path d="m566.65 301.18-.29.03c-.36-.05-.58-.07-.58-.07.13-.1.27-.19.399-.28.151.1.311.21.471.32z" fill="#394ea1"/><path d="m558.42 272.62c2.57.82 8.08 4.56 6.79 10.07-1.29 5.5-3.05 6.2-6.56 5.74-3.011-.4-4.351-2.44-4.811-4.13.72-.9 1.12-2.39.83-4.81-.469-3.94 1.171-7.69 3.751-6.87z" fill="#ed1d31"/><path d="m559.24 353.77c2.34 1.41 2.22 7.15.93 8.9-1.28 1.76-3.28.59-5.03-2.11-1.76-2.69-3.63-2.69-3.279-6.79.349-4.1 7.379 0 7.379 0z" fill="#33a048"/><path d="m559.48 295.88h-18.4v-34.9l34.04-.06.01 3.89-3.91 7.96c-.16.09-.38.14-.63.16s-.55.01-.89-.04c-2.34-.28-6.48-1.9-10.46-2.62-5.86-1.05-10.54 5.04-11.36 11.36-.82 6.33 3.16 8.32 8.2 9.84 1.15.35 2.29.49 3.4.49z" fill="#ed1d31"/><path d="m542.41 347.88h35.66v1.65c-.19 0-.46.13-.801.38-1.289.94-6.56 5.38-6.56 5.38l-.2.12c-.71-1.18-1.5-2.46-2.96-3.86-2.93-2.81-7.14 1.75-7.14 1.75l2.34.24c3.63.82-.35 3.98.7 9.02 1.06 5.03 7.26 8.9 13.35 10.54 3.391.91 3.28 5.38 6.44 6.09 2.34.52 3.02-1.53 3.02-2.81h2.53v20.68l-.34 1.38c-6.09-1.41-14-4-19.9-8.55-22.58-17.43-26.97-39.3-27.43-41.97zm16.83 5.89s-7.03-4.1-7.38 0c-.351 4.1 1.52 4.1 3.279 6.79 1.75 2.7 3.75 3.87 5.03 2.11 1.291-1.75 1.411-7.49-.929-8.9zm12-41.24 4.17-4.87.12.11v20.2h-20.02v-4.31h1.49v-15.74l.15-.13 4.04 4.76c.579-2.34-1.771-6.48-1.771-6.48 3-.47 5.45 1.97 5.45 1.97-.38-2.72-4.43-4.98-4.43-4.98 2.04-1.26 5-1.73 5.92-1.85 1.149.18 3.77.67 5.63 1.82 0 0-4.05 2.25-4.42 4.98 0 0 2.439-2.45 5.439-1.97.002 0-2.348 4.14-1.768 6.49z" fill="#fff"/><path d="m557 307.92v15.74h-1.49v-15.74l-.12-.11.35-.41 1.05-.04.36.43z" fill="#9e5c26"/><path d="m551.22 312.67 4.17-4.86.12.11v20.05h-14.43v-32.09h47.46v5.16h-1.88c-5.74-4.14-10.16-.08-10.16-.08s-4.75-3.77-10.32-.1c-5.51-3.6-9.699.25-9.699.25s-4.971-3.96-10.711.18c0 0 3.75.37 6.211 1.88 0 0-4.051 2.26-4.421 4.98 0 0 2.44-2.44 5.45-1.97 0 0-2.36 4.14-1.79 6.49z" fill="#fff"/><path d="m555.39 307.81-4.17 4.86c-.569-2.35 1.79-6.49 1.79-6.49-3.01-.47-5.45 1.97-5.45 1.97.37-2.72 4.421-4.98 4.421-4.98-2.461-1.51-6.211-1.88-6.211-1.88 5.74-4.14 10.711-.18 10.711-.18s4.189-3.85 9.699-.25c-.13.09-.27.18-.399.28 0 0 .22.02.58.07-.92.12-3.88.59-5.92 1.85 0 0 4.05 2.26 4.43 4.98 0 0-2.45-2.44-5.45-1.97 0 0 2.35 4.14 1.771 6.48l-4.04-4.76-.36-.43-1.05.04z" fill="#33a048"/><path d="m547.88 281.63c.82-6.32 5.5-12.41 11.36-11.36 3.979.72 8.12 2.34 10.46 2.62l-.04.35-3.59 1.88 4.37 4.37-2.971 4.22 5.15-.16 1.25 3.59.03.22c-1.601.21-2.851.99-4.591 1.77-2.619 1.17-6.079 2.83-9.829 2.83-1.11 0-2.25-.14-3.4-.49-5.039-1.52-9.019-3.51-8.199-9.84zm10.54-9.01c-2.58-.82-4.22 2.93-3.75 6.87.29 2.42-.11 3.91-.83 4.81.46 1.69 1.8 3.73 4.811 4.13 3.51.46 5.27-.24 6.56-5.74 1.289-5.51-4.221-9.25-6.791-10.07z" fill="#fbee34"/><path d="m466.6 157.39v4.03l-86.28 57.52h-15.15v-.72l90.52-60.02v-.81z" fill="#ed1e29"/><path d="m466.6 178.86v40.08h-63.06v-.72l62.97-39.36z" fill="#2c308c"/><path d="m360.25 344.25h-14.76v-71.91h121.11v14.76h-106.35v56.08z" fill="#fff"/><path d="m466.6 287.1v37.39h-.09l-57.07-36.41v-.98h57.07z" fill="#2c308c"/><path d="m466.6 324.49v9.84h-.09l-70.84-46.25v-.98h13.77v.98l57.07 36.41z" fill="#fff"/><path d="m466.6 334.33v9.92l-88.64-56.17v-.98h17.71v.98l70.84 46.25z" fill="#ed1e29"/><path d="m443.88 157.39v.81l-82.65 54.12h-.98v-54.93z" fill="#2c308c"/><path d="m654.13 328.13v-67.36l-27 .05-31.7.06-20.31.04-34.04.06v86.67s.01.09.04.27c.46 2.67 4.85 24.54 27.43 41.97 5.9 4.55 13.811 7.14 19.9 8.55 5.319 1.24 9.26 1.59 9.26 1.59s4.2-.43 9.79-1.84c5.95-1.5 13.47-4.11 19.16-8.51 21.83-16.86 26.649-37.85 27.37-41.64.069-.39.1-.6.1-.6zm-475.91 13.08 1.13-.64 2.1 3.68h285.15v-186.86h-106.35v-3.55h373.13v362.1h-558.22v-174.73z" fill="#0d72ba"/><path d="m440.93 343.18v1.07h-80.68v-50.26z" fill="#2c308c"/><g fill="#fff"><path d="m403.54 218.22v.72h-23.22l86.28-57.52v17.44h-.09z"/><path d="m380.32 218.94h86.28v14.76h-121.11v-76.31h14.76v61.55h4.92zm-2.36 68.16v.98l88.64 56.17h-25.67v-1.07l-80.68-49.19v-6.89z"/><path d="m455.69 157.39v.81l-90.52 60.02v.72h-4.92v-6.62h.98l82.65-54.12v-.81zm-170.49 133.3v8.22h-1.7l-77.73 45.26v.08h-8.86v-2.05l87.63-51.51z"/></g><path d="m285.2 343.18v1.07h-79.43v-.08l77.73-45.26h1.7zm-2.95-185.79v56.9h-.72l-74.78-56.09v-.81z" fill="#2c308c"/><path d="m178.22 219.92h104.03v-62.53h14.76v77.29h-121.85v-14.76z" fill="#fff"/><path d="m282.25 214.29v5.63h-17.45v-.71l-85.07-61.82h27.02v.81l74.78 56.09z" fill="#fff"/><path d="m274.64 285.13h10.56v5.56h-.66l-87.63 51.51v2.05h-15.46l-2.1-3.68 95.29-54.46z" fill="#ed1e29"/><path d="m155.44 80.21c20.14 0 36.46 11.9 36.46 26.57 0 9.38-6.67 17.63-16.74 22.35-5.68 2.68-12.45 4.23-19.72 4.23-5.66 0-11.03-.94-15.81-2.62-12.22-4.29-20.66-13.41-20.66-23.96 0-14.67 16.33-26.57 36.47-26.57z" fill="#c8c8c8"/><path d="m179.2 170.01 67.89 49.2v.71h-11.2l-59.64-42.04h-1.09v-7.87zm95.44 116.1-95.29 54.46-1.13.64h-3.06v-15.74h4.04l69.86-40.34h25.58z" fill="#fff"/><path d="m178.22 234.68h118.79v-77.29h48.48v76.31h121.11v38.64h-121.11v71.91h-46.51v-72.9h-123.82v-36.67z" fill="#ed1e29"/><path d="m178.22 271.35h120.76v72.9h-13.78v-59.12h-110.04v-13.78z" fill="#fff"/><path d="m206.75 157.39h-27.02l85.07 61.82v.71h-17.71v-.71l-67.89-49.2h-4.04v-16.17h107.09v3.55z" fill="#ed1e29"/><path d="m177.23 285.13h71.83l-69.86 40.34h-4.04v-40.34zm-.98-107.25 59.64 42.04h-60.73v-42.04z" fill="#2c308c"/><path d="m137.51 136.26 2.12-5.52c4.78 1.68 10.15 2.62 15.81 2.62 7.27 0 14.04-1.55 19.72-4.23v635.12h-37.65z" fill="#c8c8c8"/><g fill="none" stroke="#231f20"><path d="m177.5 153.84h555.88v362.1h-552.55m-41.2-385.2c-12.22-4.29-20.66-13.41-20.66-23.96 0-14.67 16.33-26.57 36.47-26.57s36.46 11.9 36.46 26.57c0 9.38-6.67 17.63-16.74 22.35-5.68 2.68-12.45 4.23-19.72 4.23-5.66 0-11.03-.94-15.81-2.62zm-2.12 5.52v632.51m37.65-641.37v641.37" stroke-width="21"/><path d="m287.35 344.25h-105.9m-1.72-186.86h286.87v186.86h-179.25" stroke-width="14"/><path d="m467.5 233.7h-122.01v-78.45m-48.48.98v78.45h-118.79m0 36.67h120.76v72.82m46.51-1.97v-69.86h121.02" stroke-width="3.444"/><path d="m282.25 155.25v64.67h-104.03m289.28-.98h-107.25v-63.69m-183.02 129.88h107.97v58.05m75.05 0v-56.08h106.26m-259.76-128.9 74.78 56.09m-101.8-56.9 85.07 61.82m-85.6-49.2 67.89 49.2m114.14-6.89 82.65-54.12m-78.71 60.02 90.52-60.02" stroke-width="3.444"/><path d="m379.93 219.21.39-.27 86.28-57.52 1.88-1.25m-64.94 58.05 62.97-39.36m-269.6 163.34 87.63-51.51m-106.32 50.52 1.13-.64 95.29-54.46m8.86 12.8-77.73 45.26m-26.57-18.7 69.86-40.34m217.54 59.12-88.64-56.17m-17.71 5.91 80.68 49.19m-45.26-55.1 70.84 46.25m-57.07-46.25 57.07 36.41m-290.26-146.61 59.64 42.04.38.27" stroke-width="3.444"/><path d="m607.5 398.19c5.95-1.5 13.47-4.11 19.16-8.51 21.83-16.86 26.649-37.85 27.37-41.64.069-.39.1-.6.1-.6v-86.67l-27 .05-31.7.06-20.31.04-34.04.06v86.67s.01.09.04.27c.46 2.67 4.85 24.54 27.43 41.97 5.9 4.55 13.811 7.14 19.9 8.55 5.319 1.24 9.26 1.59 9.26 1.59s4.2-.43 9.79-1.84z" stroke-width="7"/><path d="m653.28 296.04h-45.68v32.09h47.32m-112.05-32.25h45.67v32.09h-47.31m66.14 69.25v-49.19h46.37m-64.95 49.03v-49.18h-46.38m43.22-69.96c3.95 1.08 9.82 1.58 14.48-.38 4.659-1.97 10.279-4.98 15.56-5.88 3.19-.54 6.26-.3 8.91 1.42 1.37.89 2.51 1.73 3.47 2.5 3.98 3.15 5.15 5.07 8.83 4.41 4.57-.82 7.26-1.05 8.43 0 1.171 1.06 4.221 7.62 2.58 8.9-1.64 1.29-6.89 5.11-7.97 5.16-2.49.11-5.97-4.8-2.22-4.8s6.67 0 5.97-2.7c-.7-2.69-.93-4.1-5.62-3.51-4.68.58-10.54 1.05-14.05-.47-3.52-1.52-5.16.94-4.8 3.51.35 2.58 3.08 5.27-2.931 5.63-2.43.14-5.449.58-8.069.79-3.8.3-6.79.13-6.101-2.08 1.17-3.75 5.03-4.34 7.381-2.46 2.34 1.87 5.029 1.75 4.8 0-.24-1.76-1.061-6.09 1.399-7.38s1.761-2.46 0-3.04c-1.75-.59-10.649 4.09-16.63 6.67-5.97 2.58-13.109 7.26-18.97 4.57-2.84-1.31-4.67-1.63-6.18-1.42-1.601.21-2.851.99-4.591 1.77-2.619 1.17-6.079 2.83-9.829 2.83-1.11 0-2.25-.14-3.4-.49-5.04-1.52-9.021-3.51-8.2-9.84.82-6.32 5.5-12.41 11.36-11.36 3.979.72 8.12 2.34 10.46 2.62.34.05.64.06.89.04s.47-.07.63-.16l3.91-7.96 2.65 1.87 3.12-1.09-.311 3.75h3.74s-3.89 4.69-3.11 6.4c.09.2.311.42.641.64.761.52 2.091 1.08 3.771 1.54z" stroke-width="1.874"/><path d="m629.62 275.54s6.09-3.04 3.28-7.26c-1.24-1.86-3.221-2.99-5.761-2.99-1.33 0-2.819.31-4.43 1-1.92.82-4.7 1.54-7.61 2.02-4.17.69-8.619.9-11.239.21-3.37-.89-5.94-2.79-8.42-2.79-.79 0-1.57.2-2.36.68-3.28 1.99-2.34 3.98-1.17 5.04 1.17 1.05 4.1-4.34 8.55-1.41" stroke-linecap="round" stroke-linejoin="round" stroke-width="3.748"/><g stroke-width="1.874"><path d="m553.84 284.3c-.05-.15-.08-.3-.109-.44m.109.44c.72-.9 1.12-2.39.83-4.81-.47-3.94 1.17-7.69 3.75-6.87 2.57.82 8.08 4.56 6.79 10.07-1.29 5.5-3.05 6.2-6.56 5.74-3.01-.4-4.35-2.44-4.81-4.13zm-5.73.73s3.909 1.57 5.729-.73m83.821 15.82c-4.391 0-7.26 2.63-7.26 2.63s-7.32-5.82-15.761.27c0 0 5.54.55 9.141 2.77 0 0-5.96 3.33-6.521 7.34 0 0 3.601-3.6 8.03-2.91 0 0-3.46 6.1-2.62 9.56l6.12-7.16.52-.6 1.561-.06.54.64 5.95 7.02c.83-3.46-2.63-9.56-2.63-9.56 4.43-.69 8.029 2.91 8.029 2.91-.56-4.01-6.52-7.34-6.52-7.34 3.6-2.22 9.14-2.77 9.14-2.77-2.849-2.05-5.479-2.74-7.719-2.74zm-52.07-22.04 4.21 3.44-4.21.93-.16 4.53-3.74-1.72-1.61 3.52m-10.42-15.54-3.59 1.88 4.37 4.37-2.97 4.22 5.15-.16 1.25 3.59"/><path d="m570.6 273.08s-.84 4.7 2.341 5.94c4.989 1.95 8.26-1.78 8.92-2.64.09-.11.13-.17.13-.17m49.189 36.58v13.23h-2.19v-13.23m-62.81-11.93c-5.51-3.6-9.699.25-9.699.25s-4.971-3.96-10.711.18c0 0 3.75.37 6.211 1.88 0 0-4.051 2.26-4.421 4.98 0 0 2.44-2.44 5.45-1.97 0 0-2.359 4.14-1.79 6.49l4.17-4.86.351-.41 1.05-.04.36.43 4.04 4.76c.579-2.34-1.771-6.48-1.771-6.48 3-.47 5.45 1.97 5.45 1.97-.38-2.72-4.43-4.98-4.43-4.98 2.04-1.26 5-1.73 5.92-1.85l.29-.03c-.16-.11-.32-.22-.47-.32z"/><path d="m557 307.92v15.74h-1.49v-15.74m10.67-7.06c-.13.09-.27.18-.399.28 0 0 .22.02.58.07 1.149.18 3.77.67 5.63 1.82 0 0-4.05 2.25-4.42 4.98 0 0 2.439-2.45 5.439-1.97 0 0-2.35 4.14-1.77 6.49l4.17-4.87.34-.4 1.05-.04.36.42 4.05 4.77c.57-2.34-1.79-6.49-1.79-6.49 3.01-.46 5.46 1.98 5.46 1.98-.38-2.72-4.42-4.98-4.42-4.98 2.45-1.51 6.2-1.88 6.2-1.88-5.74-4.14-10.16-.08-10.16-.08s-4.75-3.77-10.32-.1z"/><path d="m577.01 307.77v15.75h-1.48v-15.75m10.73 68.61c0 1.28-.68 3.33-3.02 2.81-3.16-.71-3.05-5.18-6.44-6.09-6.09-1.64-12.29-5.51-13.35-10.54-1.05-5.04 2.93-8.2-.7-9.02l-2.34-.24s4.21-4.56 7.14-1.75c1.46 1.4 2.25 2.68 2.96 3.86.721 1.19 1.37 2.28 2.55 3.28.381.32.9.38 1.521.26 3.24-.66 9.02-6.35 9.02-6.35s2.101.35 0 5.04c-2.109 4.68-5.739 7.96-4.689 10.19 1.05 2.22 6.68 7.14 7.14 7.61.118.12.208.48.208.94z"/><path d="m570.71 355.29s5.271-4.44 6.56-5.38c.341-.25.61-.38.801-.38.51 0 .38 1.01-.561 3.42-1.29 3.28-2.93 5.98-2.93 5.98m-15.34-5.16s-7.03-4.1-7.38 0c-.351 4.1 1.52 4.1 3.279 6.79 1.75 2.7 3.75 3.87 5.03 2.11 1.291-1.75 1.411-7.49-.929-8.9zm58.55 21.55s-2.22-4.57.35-10.66c2.58-6.09 8.9-14.4 11.011-13.7.729.24 2 1.24 3.42 2.49.68.61 1.41 1.27 2.109 1.93 2.061 1.94 3.96 3.85 4.54 4.25 1.17.82.94 2.46-.7 4.57-1.64 2.1-8.67 9.36-12.529 10.89-2.41.95-4.99.8-6.601.56-.98-.15-1.6-.33-1.6-.33zm15.46-22.13s2.93-3.29 6.32-3.29c.5 0 1.01.07 1.529.24 3.98 1.29 2.811 3.52 1.75 3.98-1.05.47-3.859-2.81-5.97-.82l-2.11 1.99"/><path d="m617.79 375.32s-1.29.94-3.63 2.93c-1.521 1.3-2.24 2.55-2.24 3.46 0 .48.2.87.6 1.11 2.931 1.75 5.62 1.05 6.211-1.41.579-2.46.579-5.27.579-5.27"/></g></g><path d="m.25.25h850.394v850.394h-850.394z" fill="none"/></svg>