<svg height="850.89" viewBox="0 0 850.89 850.89" width="850.89" xmlns="http://www.w3.org/2000/svg"><path d="m748.43 177.71v342.71h-579.62l-1.79-194.97h232.43l.8-181.2v-3.66h348.18z" fill="#ed1e29"/><path d="m351.8 208.02-.71.7-.27-.84zm-.71.7.42 1.28-1.49-.22z" fill="#231f20"/><path d="m350.82 207.88.27.84-1.07 1.06-2.47-.36 1.78-1.76zm-.42-1.28.42 1.28-1.49-.22z" fill="#231f20"/><path d="m349.33 207.66-1.78 1.76-7.1-1.05-1.04-.15-.47-.95-3.14-6.46 1.1-2.27 3.84 7.86z" fill="#231f20"/><path d="m347.55 209.42-5.16 5.08-.74.73.18 1.02 1.21 7.14-6.31-3.35-.94-.5-.94.5-6.3 3.35 1.21-7.14.18-1.02-.75-.73-5.15-5.08 7.1-1.05 1.04-.15.47-.95 3.15-6.46 3.14 6.46.47.95 1.04.15z" fill="#fff"/><path d="m346.63 225.3-1.1.8-.26-1.52zm-.86-9.71.17 1.02-.74.73z" fill="#231f20"/><path d="m345.53 226.1.16.97-.87-.46z" fill="#231f20"/><path d="m345.53 226.1-.71.51-1.36-.72-.42-2.5 2.23 1.19zm-.71.51-1.1.79-.26-1.51zm-2.99-10.36-.18-1.02.74-.73 5.16-5.08 2.47.36-6.22 6.14 1.47 8.66-2.23-1.19zm.25-11.68.46.95-1.51-1.1zm-4.49-7.44-.69 1.41-.68-1.41z" fill="#231f20"/><path d="m336.22 197.13.68 1.41-1.1 2.27-1.12-2.28.68-1.4zm.51 26.44-.94.5-.94-.5zm-.94-27.32.43.88h-.86z" fill="#231f20"/><path d="m335.36 197.13-.68 1.4-.68-1.4zm.43 24.68-7.66 4.08.42-2.5 6.3-3.35.94-.5.94.5 6.31 3.35.42 2.5zm-3.14-14.54-.47.95-1.04.15-7.1 1.05-1.78-1.76 8.59-1.26 3.83-7.87 1.12 2.28z" fill="#231f20"/><path d="m330.56 204.42-1.51 1.1.46-.95zm-.8 11.83-1.21 7.14-2.23 1.19 1.47-8.66-6.22-6.14 2.47-.36 5.15 5.08.75.73z" fill="#231f20"/><path d="m328.55 223.39-.42 2.5-1.36.72-.71-.51.26-1.52z" fill="#231f20"/><path d="m328.13 225.89-.26 1.51-1.1-.79z" fill="#231f20"/><path d="m268.3 182.21 7.79 7.68-1.84 10.85-.68 4.01 3.59-1.91 9.6-5.11 9.59 5.11 3.59 1.91-.68-4.01-1.84-10.85 7.79-7.68 2.85-2.82-3.97-.58-10.73-1.58-4.81-9.86-1.8-3.68-1.79 3.68-4.81 9.86-10.73 1.58-3.97.58zm131.95-37.96-.8 181.2h-232.43l-1.7-184.86h234.93zm-66.25 51.12-4.49 9.2-10.02 1.47-3.97.59 2.86 2.82 7.27 7.16-1.72 10.13-.68 4.01 3.59-1.91 8.95-4.77 8.96 4.77 3.59 1.91-.68-4.01-1.72-10.13 7.27-7.16 2.85-2.82-3.97-.59-10.01-1.47-4.49-9.2-1.8-3.68zm-5.17 39.57-3.97-.59-7.27-1.07-3.27-6.68-1.79-3.69-1.8 3.69-3.27 6.68-7.27 1.07-3.97.59 2.85 2.82 5.29 5.21-1.25 7.36-.68 4.01 3.59-1.91 6.51-3.46 6.5 3.46 3.59 1.91-.68-4.01-1.25-7.36 5.29-5.21zm-25.06 36.26 2.46-2.72-3.62-.6-11.39-1.87-5.15-11.78-1.83-4.2-1.84 4.2-5.14 11.78-11.4 1.87-3.62.6 2.47 2.72 8.39 9.24-2 13.11-.63 4.17 3.63-2.16 10.14-6.02 10.13 6.02 3.63 2.16-.63-4.17-1.99-13.12zm-46.58-50.04 2.86-2.82-3.97-.59-10.74-1.58-4.81-9.85-1.79-3.69-1.8 3.69-4.81 9.85-10.73 1.58-3.97.59 2.85 2.82 7.79 7.68-1.84 10.84-.68 4.01 3.59-1.91 9.6-5.1 9.59 5.1 3.59 1.91-.68-4.01-1.83-10.84z" fill="#0071bc"/><path d="m326.06 226.1.71.51-.87.46zm-.24-10.51.57 1.75-.74-.73z" fill="#231f20"/><path d="m326.32 224.58-.26 1.52-1.1-.8zm-1.75 11.75-.71.7-.27-.84zm-.71.7.42 1.28-1.49-.22zm-1.6-29.37 1.78 1.76-2.47.36-1.07-1.05.27-.86zm1.33 28.53.27.84-1.07 1.06-2.48-.36 1.79-1.76zm-.42-1.28.42 1.28-1.49-.22z" fill="#231f20"/><path d="m321.19 206.6 1.07 1.06-1.49.21zm.38 3.18-1.49.22.42-1.27zm-.66 39.12-1.1.8-.26-1.53z" fill="#231f20"/><path d="m319.78 208.02.99-.15-.27.86zm.74 33.92.17 1.03-.74.73zm-.71 7.76.16.97-.87-.46z" fill="#231f20"/><path d="m319.81 249.7-.71.51-1.36-.73-.42-2.49 2.23 1.18zm6.09-22.63.87-.46 1.1.79.26-1.51 7.66-4.08 7.67 4.08.26 1.51 1.1-.79.87.46-.16-.97 1.1-.8-1.36-.72-1.47-8.66 6.22-6.14 1.49.22-.42-1.28.71-.7-.98-.14-.42-1.28-1.07 1.06-8.59-1.26-3.84-7.86.69-1.41h-1.37l-.43-.88-.43.88h-1.36l.68 1.4-3.83 7.87-8.59 1.26-1.07-1.06-.42 1.27-.99.15.72.71-.42 1.27 1.49-.22 6.22 6.14-1.47 8.66-1.36.72 1.1.8zm-1.97-.33 1.72-10.13.74.73-.57-1.75-.17 1.02-7.27-7.16-2.86-2.82 3.97-.59 10.02-1.47-.46.95 1.51-1.1-1.05.15 4.49-9.2 1.79-3.68 1.8 3.68 4.49 9.2-1.05-.15 1.51 1.1-.46-.95 10.01 1.47 3.97.59-2.85 2.82-7.27 7.16-.17-1.02-.57 1.75.74-.73 1.72 10.13.68 4.01-3.59-1.91-8.96-4.77.94-.5h-1.88l.94.5-8.95 4.77-3.59 1.91z" fill="#231f20"/><path d="m317.74 249.48 1.36.73-1.1.79zm-1.16-6.87-.18-1.03.75-.73 3.16-3.12 2.48.36-4.24 4.19 1 5.89-2.23-1.18zm1.01-9.33.46.95-1.51-1.1z" fill="#231f20"/><path d="m314.45 235.99-1.92-3.95 1.11-2.29 2.61 5.36 5.85.86-1.79 1.76-4.35-.64-1.05-.16zm-.13-7.64-.68 1.4-.68-1.4z" fill="#231f20"/><path d="m312.96 228.35.68 1.4-1.11 2.29-1.12-2.28.69-1.41zm.51 20.12-.94.5-.94-.5zm-.94-20.99.43.87h-.86z" fill="#231f20"/><path d="m312.1 228.35-.69 1.41-.68-1.41zm-.51 16.59.94-.5.94.5 3.85 2.05.42 2.49-5.21-2.77-5.22 2.78.42-2.5zm-.99-8.95-.46.94-1.05.16-4.35.64-1.79-1.76 5.85-.86 2.61-5.35 1.12 2.28z" fill="#231f20"/><path d="m316.4 241.58.18 1.03.74 4.38-3.85-2.05-.94-.5-.94.5-3.86 2.05.74-4.38.18-1.03-.74-.73-3.17-3.12 4.35-.64 1.05-.16.46-.94 1.93-3.95 1.92 3.95.46.94 1.05.16 4.35.64-3.16 3.12z" fill="#fff"/><path d="m308.51 233.13-1.51 1.1.46-.95zm-.78 13.86-.42 2.5-1.36.72-.71-.51.26-1.52z" fill="#231f20"/><path d="m307.31 249.49-.26 1.51-1.1-.79zm1.34-7.91-.18 1.03-.74 4.38-2.23 1.19 1-5.9-4.24-4.19 2.48-.36 3.17 3.12zm-3.41 8.12.71.51-.87.46z" fill="#231f20"/><path d="m305.5 248.18-.26 1.52-1.1-.8zm-.97-6.24.57 1.76-.74-.73zm-1.58-5.97 1.79 1.76-2.48.36-1.07-1.06.27-.84zm.14-54.48-.27-.84.98.14zm0 0 .42 1.27-1.48-.22z" fill="#231f20"/><path d="m302.82 180.65.27.84-1.06 1.05-2.49-.36 1.78-1.76zm-.94 54.26 1.07 1.06-1.49.22zm.94-54.26-1.5-.23 1.08-1.06zm-.54 89.2-.73.81-.34-.99zm-1.09-32.82 1.07 1.06-1.49.22zm.36 33.63.41 1.17-1.28-.21z" fill="#231f20"/><path d="m301.21 269.67.34.99-.87.96-2.35-.39 1.6-1.77zm.25-33.48-.27.84-.71-.7zm-.14-55.77-1.78 1.76-7.81-1.15-1.04-.15-.46-.95-3.47-7.12 1.1-2.28 4.16 8.52zm-.11 89.25-1.28-.21.87-.95z" fill="#231f20"/><path d="m324.28 238.31-.42-1.28.71-.7-.98-.14-.42-1.28-1.07 1.06-5.85-.86-2.61-5.36.68-1.4h-1.36l-.43-.87-.43.87h-1.37l.68 1.41-2.61 5.35-5.85.86-1.07-1.06-.42 1.28-.98.14.71.7-.42 1.28 1.49-.22 4.24 4.19-1 5.9-1.36.72 1.1.8-.16.97.87-.46 1.1.79.26-1.51 5.22-2.78 5.21 2.77.26 1.52 1.1-.79.87.46-.16-.97 1.1-.8-1.36-.73-1-5.89 4.24-4.19zm-7.74-5.18 1.51 1.1-.46-.95 7.27 1.07 3.97.59-2.85 2.82-5.29 5.21-.17-1.03-.57 1.76.74-.73 1.25 7.36.68 4.01-3.59-1.91-6.5-3.46.94-.5h-1.88l.94.5-6.51 3.46-3.59 1.91.68-4.01 1.25-7.36.74.73-.57-1.76-.17 1.03-5.29-5.21-2.85-2.82 3.97-.59 7.27-1.07-.46.95 1.51-1.1-1.05.15 3.27-6.68 1.8-3.69 1.79 3.69 3.27 6.68zm-16.61 36.33-1.6 1.77-8.84-1.45-1.07-.18-.44-1-3.74-8.57 1.09-2.5 4.48 10.27z" fill="#231f20"/><path d="m299.54 182.18-5.67 5.59-.74.73.18 1.03 1.33 7.87-6.95-3.7-.94-.5-.93.5-6.95 3.7 1.33-7.87.18-1.03-.74-.73-5.67-5.59 7.81-1.15 1.04-.15.46-.95 3.48-7.12 3.47 7.12.46.95 1.04.15zm-1.21 89.05-6.55 7.23-.64.7.14.94 1.5 9.87-7.52-4.47-1.02-.61-1.02.61-7.53 4.47 1.5-9.87.14-.94-.64-.7-6.55-7.23 8.84-1.45 1.08-.18.43-1 3.75-8.57 3.74 8.57.44 1 1.07.18z" fill="#fff"/><g fill="#231f20"><path d="m298.23 199.31-1.1.79-.26-1.51zm-.98-10.45.17 1.03-.74.73zm-.12 11.24.16.97-.87-.46z"/><path d="m297.13 200.1-.71.51-1.36-.73-.42-2.48 2.23 1.19z"/><path d="m295.06 199.88 1.36.73-1.1.79zm1.35 92.25-1.16.78-.25-1.62zm-3.28-103.63.74-.73 5.67-5.59 2.49.36-6.75 6.66 1.59 9.39-2.23-1.19-1.33-7.87zm2.12 104.41.14.94-.81-.48zm-.01-13.41.14.93-.64.71z"/><path d="m295 291.29.25 1.62-.67.46-1.42-.84-.38-2.56z"/><path d="m294.58 293.37-1.17.78-.25-1.62zm-.77-115.2.01.01zm-.45-.94.45.94-1.5-1.09zm-.1 102.57 1.74 11.49-2.22-1.32-1.5-9.87-.14-.94.64-.7 6.55-7.23 2.35.39zm-2.04-13.79.43.99-1.51-1.17zm-2.67-96.88-.69 1.4-.68-1.4z"/><path d="m287.18 169.13.68 1.4-1.1 2.28-1.12-2.28.68-1.4zm.51 28.1-.93.5-.94-.5zm-.94-28.98.43.88h-.86z"/><path d="m286.32 169.13-.68 1.4-.68-1.4zm-.25 86.7-.74 1.7-.74-1.7zm.68-60.37-8.3 4.42.42-2.48 6.95-3.7.93-.5.94.5 6.95 3.7.42 2.48z"/><path d="m284.59 255.83.74 1.7-1.09 2.5-1.09-2.49.74-1.71zm.67 33.1-1.02.61-1.02-.61zm-1.02-33.9.35.8h-.7zm-.35.8-.74 1.71-.75-1.71zm-2.4-76.78 4.15-8.52 1.12 2.28-3.48 7.12-.46.95-1.04.15-7.81 1.15-1.78-1.76z"/><path d="m284.24 287.22-8.93 5.31.38-2.56 7.53-4.47 1.02-.61 1.02.61 7.52 4.47.38 2.56zm-3.04-110.14-1.5 1.09.45-.94zm-2.54 90.72 4.49-10.26 1.09 2.49-3.75 8.57-.43 1-1.08.18-8.84 1.45-1.6-1.77zm1.03-89.62.01-.01zm-1.46 11.02-6.75-6.66 2.49-.36 5.67 5.59.74.73-.18 1.03-1.33 7.87-2.23 1.19z"/><path d="m278.87 197.4-.42 2.48-1.37.73-.7-.5.26-1.52z"/><path d="m278.45 199.88-.26 1.53-1.11-.8zm-.11 65.95-1.51 1.17.43-.99zm-3.13 13.97-7.42-8.18 2.35-.39 6.55 7.23.64.7-.14.94-1.5 9.87-2.22 1.32zm1.87-79.19-.86.46.16-.96zm-.82-11.75.57 1.76-.74-.73zm.38 9.73-.26 1.52-1.1-.8z"/><path d="m275.69 289.97-.38 2.56-1.41.84-.68-.46.25-1.62z"/><path d="m275.31 292.53-.25 1.62-1.16-.78zm-3.12-112.11 1.78 1.76-2.49.36-1.06-1.05.27-.84zm1.71 112.95-.82.48.14-.94zm-.66-13.87.49 1.64-.63-.7zm-1.18 12.63 1.41-.84-.25 1.62z"/><path d="m272.19 180.42-1.5.23.42-1.29zm-1.77 1.07 1.06 1.05-1.48.22zm.27-.84-.27.84-.71-.7zm-.55 90.58-2.35.39-.87-.96.34-.99 1.28-.21z"/><path d="m276.22 201.07.86-.46 1.11.8.26-1.53 8.3-4.42 8.31 4.42.26 1.52 1.1-.79.87.46-.16-.97 1.1-.79-1.36-.72-1.59-9.39 6.75-6.66 1.48.22-.42-1.27.71-.7-.98-.14-.42-1.29-1.08 1.06-9.3-1.37-4.16-8.52.69-1.4h-1.37l-.43-.88-.43.88h-1.36l.68 1.4-4.15 8.52-9.3 1.37-1.08-1.06-.42 1.29-.98.14.71.7-.42 1.27 1.48-.22 6.75 6.66-1.59 9.39-1.36.72 1.1.8zm-1.97-.33 1.84-10.85.74.73-.57-1.76-.17 1.03-7.79-7.68-2.85-2.82 3.97-.58 10.73-1.58-.45.94-.01.01.01-.01 1.5-1.09-1.05.15 4.81-9.86 1.79-3.68 1.8 3.68 4.81 9.86-1.05-.15 1.5 1.09.01.01-.01-.01-.45-.94 10.73 1.58 3.97.58-2.85 2.82-7.79 7.68-.17-1.03-.57 1.76.74-.73 1.84 10.85.68 4.01-3.59-1.91-9.59-5.11.93-.5h-1.87l.94.5-9.6 5.11-3.59 1.91zm-5.71 68.72-1.28.21.41-1.16zm-1.62 1.2.87.96-1.28.21zm.34-.99-.34.99-.73-.81z"/><path d="m284.24 289.54-10.14 6.02-3.63 2.16.63-4.17 2-13.11.63.7-.49-1.64-.14.94-8.39-9.24-2.47-2.72 3.62-.6 11.4-1.87-.43.99 1.51-1.17-1.08.18 5.14-11.78 1.84-4.2 1.83 4.2 5.15 11.78-1.08-.18 1.51 1.17-.43-.99 11.39 1.87 3.62.6-2.46 2.72-8.39 9.23-.14-.93-.5 1.64.64-.71 1.99 13.12.63 4.17-3.63-2.16-10.13-6.02 1.02-.61h-2.04zm9.02-9.74 7.42-8.18 1.28.21-.41-1.17.73-.81-1.07-.18-.41-1.16-.87.95-10.12-1.66-4.48-10.27.74-1.7h-1.48l-.35-.8-.35.8h-1.49l.75 1.71-4.49 10.26-10.12 1.66-.87-.95-.41 1.16-1.07.18.73.81-.41 1.17 1.28-.21 7.42 8.18-1.74 11.49-1.41.84 1.16.78-.14.94.82-.48 1.16.78.25-1.62 8.93-5.31 8.92 5.31.25 1.62 1.17-.78.81.48-.14-.94 1.16-.78-1.41-.84zm-38.19-59.37-.27-.84.98.14zm0 0 .42 1.28-1.49-.22z"/><path d="m254.8 219.59.27.84-1.07 1.06-2.47-.36 1.78-1.76z"/><path d="m254.38 218.31.42 1.28-1.49-.22z"/><path d="m253.31 219.37-1.78 1.76-7.82-1.15-1.04-.15-.46-.95-3.47-7.12 1.11-2.29 4.15 8.53z"/></g><path d="m251.53 221.13-5.67 5.59-.75.73.18 1.03 1.33 7.86-6.94-3.69-.94-.5-.94.5-6.95 3.69 1.33-7.86.18-1.03-.74-.73-5.67-5.59 7.81-1.15 1.04-.15.47-.95 3.47-7.12 3.47 7.12.46.95 1.04.15z" fill="#fff"/><path d="m250.21 238.25-1.1.8-.26-1.52zm-.8-9.41-.74.73.56-1.76zm-.3 10.21.16.97-.87-.46zm-.26-1.52.26 1.52-.71.51-1.36-.73-.42-2.49z" fill="#231f20"/><path d="m247.04 238.83 1.36.73-1.1.79zm.22-10.69 1.59 9.39-2.23-1.19-1.33-7.86-.18-1.03.75-.73 5.67-5.59 2.47.36zm-1.92-11.97.46.95-1.5-1.1zm-4.81-8.1-.68 1.4-.69-1.4zm-.68 1.4-1.11 2.29-1.11-2.28.69-1.41h.84zm-.17 26.71-.94.5-.94-.5zm-.94-28.98.42.87h-.84z" fill="#231f20"/><path d="m238.32 208.07-.69 1.41-.69-1.41zm.42 26.34-8.31 4.42.42-2.49 6.95-3.69.94-.5.94.5 6.94 3.69.42 2.49zm-5.27-16.41 4.16-8.52 1.11 2.28-3.47 7.12-.47.95-1.04.15-7.81 1.15-1.79-1.76z" fill="#231f20"/><path d="m233.18 216.02-1.51 1.1.46-.95zm-1 12.46-1.33 7.86-2.23 1.19 1.59-9.39-6.74-6.65 2.48-.36 5.67 5.59.74.73z" fill="#231f20"/><path d="m228.62 237.53 2.23-1.19-.42 2.49-1.36.73-.71-.51z" fill="#231f20"/><path d="m229.07 239.56 1.36-.73-.26 1.52z" fill="#231f20"/><path d="m228.36 239.05.71.51-.87.46zm-.12-11.24.57 1.76-.74-.73zm.38 9.72-.26 1.52-1.1-.8zm-4.46-18.16 1.79 1.76-2.48.36-1.07-1.06.27-.84zm-1.07-1.06 1.07 1.06-1.49.22z" fill="#231f20"/><path d="m222.4 220.43 1.07 1.06-1.49.22zm.27-.84-.27.84-.71-.7z" fill="#231f20"/><path d="m226.23 239.68 1.84-10.84.74.73-.57-1.76-.17 1.03-7.79-7.68-2.85-2.82 3.97-.59 10.73-1.58-.46.95 1.51-1.1-1.05.15 4.81-9.85 1.8-3.69 1.79 3.69 4.81 9.85-1.04-.15 1.5 1.1-.46-.95 10.74 1.58 3.97.59-2.86 2.82-7.78 7.68-.18-1.03-.56 1.76.74-.73 1.83 10.84.68 4.01-3.59-1.91-9.59-5.1.94-.5h-1.88l.94.5-9.6 5.1-3.59 1.91zm23.04.34-.16-.97 1.1-.8-1.36-.72-1.59-9.39 6.74-6.65 1.49.22-.42-1.28.71-.7-.98-.14-.42-1.28-1.07 1.06-9.31-1.37-4.15-8.53.68-1.4h-1.37l-.42-.87-.42.87h-1.38l.69 1.41-4.16 8.52-9.31 1.37-1.07-1.06-.42 1.28-.98.14.71.7-.42 1.28 1.49-.22 6.74 6.65-1.59 9.39-1.36.72 1.1.8-.16.97.87-.46 1.1.79.26-1.52 8.31-4.42 8.3 4.42.26 1.52 1.1-.79z" fill="#231f20"/><path d="m103.92 91.22c0-15.4 17.13-27.88 38.25-27.88 21.13 0 38.26 12.48 38.26 27.88 0 9.84-7 18.49-17.57 23.45-5.96 2.8-13.07 4.43-20.69 4.43-7.3 0-14.12-1.49-19.92-4.08-10.99-4.89-18.33-13.72-18.33-23.8z" fill="#c8c8c8"/><path d="m122.25 115.02c5.8 2.59 12.62 4.08 19.92 4.08 7.62 0 14.73-1.63 20.69-4.43v670.96h-39.49z" fill="#c8c8c8"/><g fill="none" stroke="#231f20"><path d="m165.32 140.59h583.11v379.83h-579.62m-46.56-405.4c-10.99-4.89-18.33-13.72-18.33-23.8 0-15.4 17.13-27.88 38.25-27.88 21.13 0 38.26 12.48 38.26 27.88 0 9.84-7 18.49-17.57 23.45-5.96 2.8-13.07 4.43-20.69 4.43-7.3 0-14.12-1.49-19.92-4.08z" stroke-width="21"/><path d="m122.25 114.25v.77l1.12 670.61m39.49-672.78v672.78" stroke-width="21"/><path d="m745.01 179.64 3.42-1.93 2.01-1.14m-350.19-32.32-.8 181.2h-235.2" stroke-width="14"/></g><path d="m.25.25h850.394v850.394h-850.394z" fill="none"/></svg>