<svg height="850.89" viewBox="0 0 850.89 850.89" width="850.89" xmlns="http://www.w3.org/2000/svg"><path d="m748.43 177.71v342.71h-579.62l-3.49-379.83h583.11zm-174.43 164.67c0-52.73-42.9-95.63-95.62-95.63-52.73 0-95.63 42.9-95.63 95.63 0 52.72 42.9 95.62 95.63 95.62 52.72 0 95.62-42.9 95.62-95.62z" fill="#ed1e29"/><path d="m478.38 246.75c52.72 0 95.62 42.9 95.62 95.63 0 52.72-42.9 95.62-95.62 95.62-52.73 0-95.63-42.9-95.63-95.62 0-52.73 42.9-95.63 95.63-95.63zm88.62 95.63c0-48.87-39.76-88.63-88.62-88.63-48.87 0-88.63 39.76-88.63 88.63 0 48.86 39.76 88.62 88.63 88.62 48.86 0 88.62-39.76 88.62-88.62z" fill="#231f20"/><path d="m533.07 315.77-13.15 21.06 13.15 21.07-24.1-6-15.96 19.01-1.74-24.77-23.02-9.31 23.02-9.31 1.74-24.77 15.96 19.02z" fill="#ed1e29"/><path d="m478.09 407.66c14.05 0 32.33-4.66 43.15-11.98a57.988 57.988 0 0 1 -20.021 3.55c-18.88 0-35.649-9-46.279-22.94l.569-71.16c10.65-13.52 27.17-22.2 45.71-22.2 7.37 0 14.41 1.36 20.891 3.86-11.79-9.91-27.41-14.81-44.021-14.81-7.83 0-15.34 1.33-22.34 3.77-26.49 9.23-45.5 34.44-45.5 64.07 0 29.27 18.52 54.19 44.48 63.7a67.497 67.497 0 0 0 23.361 4.14zm.29-153.91c48.86 0 88.62 39.76 88.62 88.63 0 48.86-39.76 88.62-88.62 88.62-48.87 0-88.63-39.76-88.63-88.62 0-48.87 39.76-88.63 88.63-88.63zm41.54 83.08 13.15-21.06-24.101 6-15.96-19.02-1.74 24.77-23.02 9.31 23.02 9.31 1.74 24.77 15.96-19.01 24.101 6z" fill="#fff"/><path d="m478.09 271.98c16.61 0 32.23 4.9 44.021 14.81-6.48-2.5-13.521-3.86-20.891-3.86-18.54 0-35.06 8.68-45.71 22.2l.24-29.38c7-2.44 14.51-3.77 22.34-3.77zm23.13 127.25c7.04 0 13.78-1.26 20.021-3.55-10.82 7.32-29.101 11.98-43.15 11.98-8.21 0-16.08-1.46-23.359-4.14l.21-27.23c10.628 13.94 27.398 22.94 46.278 22.94z" fill="#ed1e29"/><path d="m455.51 305.13-.569 71.16a57.9 57.9 0 0 1 -11.87-35.21 57.901 57.901 0 0 1 12.439-35.95z" fill="#fff"/><path d="m454.73 403.52c-25.961-9.51-44.48-34.43-44.48-63.7 0-29.63 19.01-54.84 45.5-64.07l-.24 29.38a57.907 57.907 0 0 0 -12.439 35.95 57.9 57.9 0 0 0 11.87 35.21z" fill="#ed1e29"/><path d="m103.92 91.22c0-15.4 17.13-27.88 38.25-27.88 21.13 0 38.26 12.48 38.26 27.88 0 9.84-7 18.49-17.57 23.45-5.96 2.8-13.07 4.43-20.69 4.43-7.3 0-14.12-1.49-19.92-4.08-10.99-4.89-18.33-13.72-18.33-23.8z" fill="#c8c8c8"/><path d="m123.37 785.63-1.12-670.61c5.8 2.59 12.62 4.08 19.92 4.08 7.62 0 14.73-1.63 20.69-4.43v670.96z" fill="#c8c8c8"/><g fill="none"><g stroke="#231f20"><path d="m165.32 140.59h583.11v379.83h-579.62m-46.56-405.4c-10.99-4.89-18.33-13.72-18.33-23.8 0-15.4 17.13-27.88 38.25-27.88 21.13 0 38.26 12.48 38.26 27.88 0 9.84-7 18.49-17.57 23.45-5.96 2.8-13.07 4.43-20.69 4.43-7.3 0-14.12-1.49-19.92-4.08z" stroke-width="21"/><path d="m122.25 114.25v.77l1.12 670.61m39.49-672.78v672.78" stroke-width="21"/><path d="m745.01 179.64 3.42-1.93 2.01-1.14" stroke-width="14"/><g stroke-width="7"><path d="m521.24 395.68c-10.82 7.32-29.101 11.98-43.15 11.98-8.21 0-16.08-1.46-23.359-4.14-25.961-9.51-44.48-34.43-44.48-63.7 0-29.63 19.01-54.84 45.5-64.07 7-2.44 14.51-3.77 22.34-3.77 16.61 0 32.23 4.9 44.021 14.81"/><path d="m521.24 395.68a57.988 57.988 0 0 1 -20.021 3.55c-18.88 0-35.649-9-46.279-22.94a57.9 57.9 0 0 1 -11.87-35.21c0-13.57 4.649-26.06 12.439-35.95 10.65-13.52 27.17-22.2 45.71-22.2 7.37 0 14.41 1.36 20.891 3.86"/><path d="m519.92 336.83 13.15 21.07-24.1-6-15.96 19.01-1.74-24.77-23.02-9.31 23.02-9.31 1.74-24.77 15.96 19.02 24.1-6z"/></g></g><path d="m.25.25h850.394v850.394h-850.394z"/></g></svg>