<svg height="850.394" viewBox="0 0 850.394 850.394" width="850.394" xmlns="http://www.w3.org/2000/svg"><path d="m451.97 278.76.03.5c5.95 6.38 3.9 22.2-.21 22.2s-23.78-12.63-24.66 2.05-3.23 66.06-3.23 66.06l23.77-21.71c-.4.61-13.26 20-16.14 23.18-2.931 3.23 3.229 8.81 14.09 10.57 10.87 1.76 15.27 1.47 15.27 1.47v-.03c1.15.03 5.721.03 14.971-1.47 10.87-1.77 17.02-7.34 14.09-10.57-2.88-3.18-15.74-22.58-16.141-23.19l23.771 21.72s-2.34-51.38-3.22-66.06-20.561-2.06-24.66-2.06c-4.11 0-2.94-19.08-4.7-21.43-1.171-1.55-8.331-1.46-13.031-1.23zm298-14.13v131.37h-3.97l-584.98.75h-3.07v-132.12z" fill="#fff"/><path d="m161.02 396.75 584.98-.75h3.97v125.23l-591.97.77h-.05v-125.25z" fill="#231f20"/><path d="m749.97 137.21v127.42h-592.02v-127.42h2.48z" fill="#ed1d31"/><path d="m473.81 347.82c.4.61 13.261 20.01 16.141 23.19 2.93 3.23-3.22 8.8-14.09 10.57-9.25 1.5-13.82 1.5-14.971 1.47v.03s-4.399.29-15.27-1.47c-10.86-1.76-17.021-7.34-14.09-10.57 2.88-3.18 15.739-22.57 16.14-23.18l-23.77 21.71s2.35-51.38 3.23-66.06 20.55-2.05 24.66-2.05 6.16-15.82.21-22.2l-.03-.5c4.7-.23 11.86-.32 13.03 1.23 1.76 2.35.59 21.43 4.7 21.43 4.1 0 23.78-12.62 24.66 2.06s3.22 66.06 3.22 66.06zm.19-14.2v-20.23l-26.4.05v20.23s.801 5.52 6.41 9.87c2.58 1.99 6.811 2.36 6.811 2.36s4.18-.42 6.76-2.42c5.619-4.33 6.419-9.86 6.419-9.86z" fill="#fbee34"/><path d="m474 313.39v20.23s-.8 5.53-6.42 9.86c-2.58 2-6.76 2.42-6.76 2.42s-4.23-.37-6.811-2.36c-5.609-4.35-6.41-9.87-6.41-9.87v-20.23z" fill="#fff"/><path d="m157.95 111.01c-6.03 2.84-13.21 4.48-20.92 4.48-6.89 0-13.37-1.31-18.97-3.62-11.76-4.83-19.7-14.02-19.7-24.57 0-15.57 17.31-28.19 38.67-28.19s38.68 12.62 38.68 28.19c0 9.95-7.08 18.7-17.76 23.71z" fill="#c8c8c8"/><path d="m157.95 522v267.36h-39.93l-.02-677.36.06-.13c5.6 2.31 12.08 3.62 18.97 3.62 7.71 0 14.89-1.64 20.92-4.48z" fill="#c8c8c8"/><g fill="none"><g stroke="#231f20"><path d="m160.43 137.21h589.54v384.02l-591.97.77m-39.94-410.13c-11.76-4.83-19.7-14.02-19.7-24.57 0-15.57 17.31-28.19 38.67-28.19s38.68 12.62 38.68 28.19c0 9.95-7.08 18.7-17.76 23.71-6.03 2.84-13.21 4.48-20.92 4.48-6.89 0-13.37-1.31-18.97-3.62zm-.06.13.02 677.36m39.93-680.19v680.19" stroke-width="21"/><path d="m160.44 264.63h593.06m-592.48 132.12 584.98-.75" stroke-width="14.092"/><path d="m447.82 279.04s1.75-.16 4.149-.28c4.7-.23 11.86-.32 13.03 1.23 1.76 2.35.59 21.43 4.7 21.43 4.1 0 23.78-12.62 24.66 2.06s3.22 66.06 3.22 66.06l-23.771-21.72s-.01-.01 0 0c.4.61 13.261 20.01 16.141 23.19 2.93 3.23-3.22 8.8-14.09 10.57-9.25 1.5-13.82 1.5-14.971 1.47-.199 0-.3-.01-.3-.01" stroke-width="7.046"/><path d="m452 279.26c5.95 6.38 3.9 22.2-.21 22.2s-23.78-12.63-24.66 2.05-3.23 66.06-3.23 66.06l23.78-21.72-.01.01c-.4.61-13.26 20-16.14 23.18-2.931 3.23 3.229 8.81 14.09 10.57 10.87 1.76 15.27 1.47 15.27 1.47" stroke-width="7.046"/><path d="m467.58 343.48c5.62-4.33 6.42-9.86 6.42-9.86v-20.23l-26.4.05v20.23s.801 5.52 6.41 9.87c2.58 1.99 6.811 2.36 6.811 2.36s4.179-.42 6.759-2.42z" stroke-width="5.285"/><path d="m486.03 310.72 3.23 39.05m-9.1-38.75.3 34.05m-45.21-34.06-3.24 39.05m9.1-38.75-.29 34.05" stroke-width="3.523"/></g><path d="m0 0h850.394v850.394h-850.394z"/></g></svg>