<svg height="850.394" viewBox="0 0 850.394 850.394" width="850.394" xmlns="http://www.w3.org/2000/svg"><path d="m162.61 518.17v267.21h-39.49l-1.12-670.61c5.8 2.59 12.62 4.08 19.92 4.08 7.62 0 14.73-1.63 20.69-4.43v23.92h-3.54l3.49 379.83z" fill="#c8c8c8"/><path d="m742.18 138.34v379.83h-190.18v-379.83z" fill="#ed1e29"/><path d="m552 516v2.17h-194v-379.83h194v1.66z" fill="#a8d7f4"/><g fill="#fbed24"><path d="m332.68 289.63v168.43c-11.11 3.99-24.63-1.18-32.62 1.4.8-56.14-1.61-116.03 1.21-169.83zm-41.08 26.67v18.24c-15.84 1.81-37.58-.32-56.79 1.41v-19.65zm-56.79 94.04h56.79c-.52 6.41 1.22 15.45-1.21 19.65h-55.58zm50.75-158.61c9.73 42.08-53.36 44.32-47.12 0 4.38 23.31 43.7 27.43 47.12 0z"/><path d="m234.81 291.03c16.12-3.27 37.46-.47 55.58-1.4-8.57 8.28-17.63 16.01-27.79 22.46-10.41-5.69-17.73-14.96-27.79-21.06zm0 145.98c16.12-3.27 37.46-.47 55.58-1.41-8.07 8.41-18.04 14.601-26.58 22.46-11.84-4.49-17.97-15.61-29-21.05zm39.88-248.44c5.97 37.73-26.83 40.49-22.96 1.4 4.61-1.15 4.68 2.99 6.04 5.62 1.39-1.77 5.53-7.47 2.42-9.83 1.9-2.57 6.9 3.13 6.04 8.42 2.44 3.2 4.01-6.48 8.46-5.61zm-16.92 169.83c1.36.3 1.88 1.56 2.42 2.81 4.92.58 7.62-1.44 7.25-7.02-1.3-6.79-11.94-4.99-9.67 4.21zm10.87-18.24c4.04 1.64 10.49 12.85 6.05 23.86-12.19 8.53-36.28 12.61-26.59 37.9-28.01-13.38-10.49-74.37 20.54-61.76z"/><path d="m261.39 226.46c24.57-2.88 22.53 42.64-1.2 39.31-17.6-2.47-20.77-36.73 1.2-39.31z"/></g><path d="m267.44 390.69c-.07 7.18-6.14 8.14-9.67 4.21-2.65-9.65 8.41-10.96 9.67-4.21zm0-36.5c.37 5.58-2.33 7.6-7.25 7.02-.54-1.25-1.06-2.51-2.42-2.81-2.27-9.2 8.37-11 9.67-4.21z"/><path d="m257.77 394.9c3.53 3.93 9.6 2.97 9.67-4.21-1.26-6.75-12.32-5.44-9.67 4.21zm19.33-50.53c10.48 7.7 16.01 17.74 14.5 33.68-1.67 17.66-23.5 40.39-38.66 25.27-26.62-26.53 45.03-28.17 24.16-58.95z" fill="#fbed24"/><path d="m290.39 289.63c-18.12.93-39.46-1.87-55.58 1.4 10.06 6.1 17.38 15.37 27.79 21.06 10.16-6.45 19.22-14.18 27.79-22.46zm-51.95-37.9c-6.24 44.32 56.85 42.08 47.12 0-3.42 27.43-42.74 23.31-47.12 0zm21.75 14.04c23.73 3.33 25.77-42.19 1.2-39.31-21.97 2.58-18.8 36.84-1.2 39.31zm-25.38 164.22h55.58c2.43-4.2.69-13.24 1.21-19.65h-56.79zm42.29-85.62c20.87 30.78-50.78 32.42-24.16 58.95 15.16 15.12 36.99-7.61 38.66-25.27 1.51-15.94-4.02-25.98-14.5-33.68zm-42.29-8.42c19.21-1.73 40.95.4 56.79-1.41v-18.24h-56.79zm55.58 99.65c-18.12.94-39.46-1.859-55.58 1.41 11.03 5.44 17.16 16.561 29 21.05 8.54-7.86 18.51-14.05 26.58-22.46zm-21.75-95.44c-31.03-12.61-48.55 48.38-20.54 61.76-9.69-25.29 14.4-29.37 26.59-37.9 4.44-11.01-2.01-22.22-6.05-23.86zm89.36 173.84v4.17h-195.39v-379.83h195.39zm-25.32-55.94v-168.43h-31.41c-2.82 53.8-.41 113.69-1.21 169.83 7.99-2.58 21.51 2.59 32.62-1.4zm-80.95-268.09c-3.87 39.09 28.93 36.33 22.96-1.4-4.45-.87-6.02 8.81-8.46 5.61.86-5.29-4.14-10.99-6.04-8.42 3.11 2.36-1.03 8.06-2.42 9.83-1.36-2.63-1.43-6.77-6.04-5.62zm-25.38 268.09v-167.03c-8.18-3.12-21.25-.58-31.41-1.4-2.82 53.8-.41 113.69-1.21 169.83 11.48-.13 26.28.6 32.62-1.4z" fill="#ed1e29"/><path d="m226.35 291.03v167.03c-6.34 2-21.14 1.271-32.62 1.4.8-56.14-1.61-116.03 1.21-169.83 10.16.82 23.23-1.72 31.41 1.4z" fill="#fbed24"/><path d="m162.61 114.42c-5.96 2.8-13.07 4.43-20.69 4.43-7.3 0-14.12-1.49-19.92-4.08-10.99-4.89-18.33-13.72-18.33-23.8 0-15.4 17.13-27.88 38.25-27.88 21.13 0 38.26 12.48 38.26 27.88 0 9.84-7 18.49-17.57 23.45z" fill="#c8c8c8"/><path d="m162.61 138.34v379.83h-.05l-3.49-379.83z" fill="#fff"/><g fill="none" stroke="#231f20"><path d="m159.07 138.34h583.11v379.83h-579.62" stroke-width="14"/><path d="m122 114.77c-10.99-4.89-18.33-13.72-18.33-23.8 0-15.4 17.13-27.88 38.25-27.88 21.13 0 38.26 12.48 38.26 27.88 0 9.84-7 18.49-17.57 23.45-5.96 2.8-13.07 4.43-20.69 4.43-7.3 0-14.12-1.49-19.92-4.08z" stroke-width="21"/><path d="m122 114v.77l1.12 670.61m39.49-672.78v672.78" stroke-width="21"/><path d="m358 144v370m194-374v376" stroke-width="14"/><g stroke-width="4"><path d="m261.39 226.46c24.57-2.88 22.53 42.64-1.2 39.31-17.6-2.47-20.77-36.73 1.2-39.31z"/><path d="m238.44 251.73c4.38 23.31 43.7 27.43 47.12 0 9.73 42.08-53.36 44.32-47.12 0zm-12.09 39.3v167.03c-6.34 2-21.14 1.271-32.62 1.4.8-56.14-1.61-116.03 1.21-169.83 10.16.82 23.23-1.72 31.41 1.4z"/><path d="m234.81 291.03c16.12-3.27 37.46-.47 55.58-1.4-8.57 8.28-17.63 16.01-27.79 22.46-10.41-5.69-17.73-14.96-27.79-21.06zm97.87-1.4v168.43c-11.11 3.99-24.63-1.18-32.62 1.4.8-56.14-1.61-116.03 1.21-169.83zm-97.87 26.67h56.79v18.24c-15.84 1.81-37.58-.32-56.79 1.41z"/><path d="m248.1 401.92c-28.01-13.38-10.49-74.37 20.54-61.76 4.04 1.64 10.49 12.85 6.05 23.86-12.19 8.53-36.28 12.61-26.59 37.9z"/><path d="m277.1 344.37c10.48 7.7 16.01 17.74 14.5 33.68-1.67 17.66-23.5 40.39-38.66 25.27-26.62-26.53 45.03-28.17 24.16-58.95z"/><path d="m257.77 358.4c-2.27-9.2 8.37-11 9.67-4.21.37 5.58-2.33 7.6-7.25 7.02-.54-1.25-1.06-2.51-2.42-2.81zm0 36.5c-2.65-9.65 8.41-10.96 9.67-4.21-.07 7.18-6.14 8.14-9.67 4.21zm33.83 15.44c-.52 6.41 1.22 15.45-1.21 19.65h-55.58v-19.65zm-56.79 26.67c16.12-3.27 37.46-.47 55.58-1.41-8.07 8.41-18.04 14.601-26.58 22.46-11.84-4.49-17.97-15.61-29-21.05zm25.38-251.25c1.9-2.57 6.9 3.13 6.04 8.42 2.44 3.2 4.01-6.48 8.46-5.61 5.97 37.73-26.83 40.49-22.96 1.4 4.61-1.15 4.68 2.99 6.04 5.62 1.39-1.77 5.53-7.47 2.42-9.83z"/></g></g><path d="m0 0h850.394v850.394h-850.394z" fill="none"/></svg>