<svg height="850.89" viewBox="0 0 850.89 850.89" width="850.89" xmlns="http://www.w3.org/2000/svg"><path d="m748.43 177.71v342.71h-579.62l-1.79-194.97h232.43l.8-181.2v-3.66h348.18z" fill="#ed1e29"/><path d="m400.25 140.59v3.66l-.8 181.2h-232.43l-1.7-184.86zm-53.25 117.21v-43.33h-43.33v-43.34h-43.34v43.34h-43.33v41.98c6.87 2.1 31.96.97 43.33 1.35v43.33h43.34c.89-14-1.8-31.59 1.35-43.33z" fill="#fff"/><path d="m347 214.47v43.33h-41.98c-3.15 11.74-.46 29.33-1.35 43.33h-43.34v-43.33c-11.37-.38-36.46.75-43.33-1.35v-41.98h43.33v-43.34h43.34v43.34z" fill="#ed1e29"/><path d="m142.17 63.34c21.13 0 38.26 12.48 38.26 27.88 0 9.84-7 18.49-17.57 23.45-5.96 2.8-13.07 4.43-20.69 4.43-7.3 0-14.12-1.49-19.92-4.08-10.99-4.89-18.33-13.72-18.33-23.8 0-15.4 17.13-27.88 38.25-27.88z" fill="#c8c8c8"/><path d="m142.17 119.1c7.62 0 14.73-1.63 20.69-4.43v670.96h-39.49l-1.12-670.61c5.8 2.59 12.62 4.08 19.92 4.08z" fill="#c8c8c8"/><g fill="none"><g stroke="#231f20"><path d="m165.32 140.59h583.11v379.83h-579.62m-46.56-405.4c-10.99-4.89-18.33-13.72-18.33-23.8 0-15.4 17.13-27.88 38.25-27.88 21.13 0 38.26 12.48 38.26 27.88 0 9.84-7 18.49-17.57 23.45-5.96 2.8-13.07 4.43-20.69 4.43-7.3 0-14.12-1.49-19.92-4.08z" stroke-width="21"/><path d="m122.25 114.25v.77l1.12 670.61m39.49-672.78v672.78" stroke-width="21"/><path d="m745.01 179.64 3.42-1.93 2.01-1.14m-350.19-32.32-.8 181.2h-235.2" stroke-width="14"/><path d="m260.33 171.13h43.34v43.34h43.33v43.33h-41.98c-3.15 11.74-.46 29.33-1.35 43.33h-43.34v-43.33c-11.37-.38-36.46.75-43.33-1.35v-41.98h43.33z" stroke-width="7"/></g><path d="m.25.25h850.394v850.394h-850.394z"/></g></svg>