<svg height="850.394" viewBox="0 0 850.394 850.394" width="850.394" xmlns="http://www.w3.org/2000/svg"><path d="m745 179.25v333.08h-576.51l-3.35-363.89h579.86zm-198.44 126.51 8.341-8.35-11.7-1.54-4.58-.6-47.14-6.2-21.781-42.67-1.94-3.79-6.069-11.89-4.58 12.53-1.471 4.01-15.689 42.85-2.13.07.02.76-49.74 6.48-4.59.6-11.64 1.52 8.25 8.34 3.26 3.3 36.3 36.7-8.76 42.94-.89 4.37-2.5 12.24 10.98-5.96 3.92-2.13 41.93-22.77 42.38 21.55 4.12 2.1 10.51 5.34-2.15-11.59-.84-4.55-8.68-46.74 33.6-33.65z" fill="#ed1e29"/><path d="m748.18 177.46v342.71h-579.62l-.07-7.84h576.51v-333.08z" fill="#fff"/><path d="m745 148.44h-579.86l-.07-8.1h583.11v37.12l-3.18 1.79z" fill="#fff"/><path d="m543.3 309.03-33.6 33.65-.54-2.91 4.24-3.05-2.51-3.48 26.37-26.41 4.42.58z" fill="#34a047"/><path d="m546.56 305.76-3.26 3.27-1.62-1.62-1.27-3.74 2.03-2.03-2.85-.37-1.27-3.74.3-2.26 4.58.6 11.7 1.54z" fill="#34a047"/><path d="m542.44 301.64-2.03 2.03-.82-2.4zm-2.03 2.03 1.27 3.74-4.42-.58z" fill="#34a047"/><path d="m539.59 301.27.82 2.4-3.15 3.16-7.27-.96 5.18-5.19z" fill="#34a047"/><path d="m538.32 297.53 1.27 3.74-4.42-.59zm-1.06 9.3-26.37 26.41-3.45-4.79 22.55-22.58zm-2.09-6.15-5.18 5.19-34.2-4.5-1.79-6.1z" fill="#34a047"/><path d="m529.99 305.87-22.55 22.58-.84-1.17-2.64 1.9-8.17-27.81z" fill="#ed1e29"/><path d="m519.22 393.97 2.15 11.59-10.51-5.34-4.12-2.1 1.03-2.03 3.16-2.36 2.56 1.3-.52-2.82 3.16-2.37 2.25-.42z" fill="#34a047"/><path d="m518.38 389.42-2.25.42-3.98-2.02-7.07-38.14 4.51-1.32-1.26-4.31 1.37-1.37z" fill="#34a047"/><path d="m516.13 389.84-3.16 2.37-.82-4.39zm-3.16 2.37.52 2.82-2.56-1.3z" fill="#34a047"/><path d="m512.15 387.82.82 4.39-2.04 1.52-3.97-2.02-1.34-7.22z" fill="#34a047"/><path d="m505.08 349.68 7.07 38.14-6.53-3.33-6.15-33.16zm5.85 44.05-3.16 2.36-.81-4.38zm-.04-60.49-4.43 4.45-1.88-6.37 2.86-2.87zm-1.73 6.53.54 2.91-1.37 1.37-.27-.9 1.03-3.33z" fill="#34a047"/><path d="m509.14 339.66.02.11-.07.05z" fill="#231f20"/><path d="m509.14 339.66-.05.16-1.66 1.2-.97-3.33 4.43-4.45 2.51 3.48-4.24 3.05z" fill="#34a047"/><path d="m507.43 341.02 1.66-1.2-1.03 3.33z" fill="#34a047"/><path d="m508.33 344.05-.79.79.52-1.69z" fill="#231f20"/><path d="m507.54 344.84.79-.79 1.26 4.31-4.51 1.32-1.14-6.15 3.49-2.51.63 2.13zm-.58 46.87.81 4.38-1.03 2.03-42.38-21.55 1.13-.62 1.19.83 2.86-4.11zm.48-63.26-2.86 2.87-.62-2.14 2.64-1.9zm-.98 9.24.97 3.33-3.49 2.51-.52-2.8z" fill="#34a047"/><path d="m505.62 384.49 1.34 7.22-37.42-19.04 3.35-4.83z" fill="#34a047"/><path d="m499.47 351.33 6.15 33.16-32.73-16.65.43-.62-1.16-.81 25.25-18.18 1 3.41z" fill="#ed1e29"/><path d="m503.94 343.53 1.14 6.15-5.61 1.65-.75-4.04z" fill="#34a047"/><path d="m503.42 340.73.52 2.8-5.22 3.76-1.02-5.5-.56-3.01 2.16-2.17 5.28-5.29 1.88 6.37zm-4.7 6.56.75 4.04-1.06.31-1-3.41zm-4.78-10.89 3.47 11.83-25.25 18.18-10.13-7.04z" fill="#34a047"/><path d="m499.3 336.61-2.16 2.17.56 3.01 1.02 5.5-1.31.94-3.47-11.83 10.02-7.22.62 2.14zm-5.3-41.34 1.79 6.1-8.37-1.1.45-.01-.18-5.82z" fill="#34a047"/><path d="m494 295.27-6.31-.83 5.58-1.64z" fill="#34a047"/><path d="m493.94 336.4-31.91 22.97-27.71-19.28 13.89-38.58 35.16-1.11z" fill="#ed1e29"/><path d="m491.48 289.07 1.39 2.73-4.43-3.13z" fill="#34a047"/><path d="m469.7 246.4 21.78 42.67-3.04-.4-.94.03v-.08l-2.75.09-18.57-36.38 1.86-5.08z" fill="#34a047"/><path d="m491.48 289.07 47.14 6.2-.3 2.26-3.15 3.15-41.17-5.41-.73-2.47-5.58 1.64h-.01l-.18-5.74.94-.03 4.43 3.13z" fill="#34a047"/><path d="m487.5 288.7.18 5.74-2.93-5.73 2.75-.09zm-4.13 11.7 4.05-.13 8.37 1.1 8.17 27.81-10.02 7.22zm-17.19-48.07 18.57 36.38-6.43.2-14.87-29.13z" fill="#34a047"/><path d="m486.93 300.21.49.06-4.05.13-1.11-3.79.24.48 1.39 2.73zm-4.83-4.13.16.53-3.94-7.7 6.43-.2 2.93 5.73z" fill="#34a047"/><path d="m482.1 296.08 5.58-1.64h.01l.18 5.82-.45.01-.49-.06-3.04-.39-1.39-2.73-.24-.48z" fill="#34a047"/><path d="m463.45 259.78 14.87 29.13-25.82.81z" fill="#ed1e29"/><path d="m473.32 367.22-.43.62-1.59-.8.86-.63z" fill="#34a047"/><path d="m472.89 367.84-3.35 4.83-3.56-1.81 5.32-3.82zm-4.85-120.59-1.86 5.08-2.45-4.82z" fill="#34a047"/><path d="m467.04 375.11-1.55.84-1.16-.8z" fill="#231f20"/><path d="m463.73 247.51 2.45 4.82-2.73 7.45-3.61-7.08 1.86-5.06zm2.25 123.35-2.58 1.86-1.17-1.62 2.04-1.11zm-.49 5.09-1.13.62-2.73-1.39 2.7-.03zm-3.46-16.58 10.13 7.04-.86.63-4.4-2.24-2.72-1.38-2.69 1.46-2.69 1.46-2.2-3.06z" fill="#34a047"/><path d="m464.27 369.99-2.04 1.11-3.43-4.76 2.69-1.46 2.69-1.46 2.72 1.38 4.4 2.24-5.32 3.82zm-.54-122.48-2.03.13.87-2.39zm-3.89 5.19 3.61 7.08-10.95 29.94-6.27.2zm6.14 118.16 3.56 1.81-2.86 4.11-1.19-.83 1.55-.84-2.71.04-4.19-2.92 2.09-1.13 1.17 1.62z" fill="#34a047"/><path d="m461.69 230.72 6.07 11.89 1.94 3.79-1.66.85-4.31.26-1.16-2.26-.87 2.39-4.31.26-1.75-.64 1.47-4.01zm-1.55 141.51 4.19 2.92-2.7.03 2.73 1.39-41.93 22.77-.99-1.82.98-4.8zm-1.34-5.89 3.43 4.76-2.09 1.13-5.34-3.72zm2.9-118.7-1.86 5.06-2.45-4.8z" fill="#34a047"/><path d="m460.14 372.23-37.72 20.49 1.51-7.44 30.87-16.77zm-.3-119.53-13.61 37.22-6.28.19 15.69-42.85 1.75.64zm-3.24 110.58 2.2 3.06-4 2.17-24.04-16.72.85-4.17 2.71-7.53 27.71 19.28z" fill="#34a047"/><path d="m454.8 368.51-30.87 16.77 6.83-33.49z" fill="#ed1e29"/><path d="m452.5 289.72-3.02 8.25-5.48-1.97 2.23-6.08z" fill="#34a047"/><path d="m449.43 298.11.05-.14 3.02-8.25 25.82-.81 3.94 7.7 1.11 3.79-35.16 1.11z" fill="#34a047"/><path d="m449.43 298.11-1.22 3.4-1.85.05 1.89-.24z" fill="#231f20"/><path d="m444.75 301.77 1.61-.21 1.85-.05-13.89 38.58-7-4.87-1.57 2.25-2.1-2.13 11.64-32.34zm1.48-11.85-2.23 6.08-5.48-1.97.01-.03 4.72-3.77-3.51.46.21-.58zm3.25 8.05-.05.14-1.18 3.21-1.89.24-8.18.26-.16-5.04 5.98-.78z" fill="#34a047"/><path d="m438.52 294.03 5.48 1.97-5.98.78-.03-1.26zm4.73-3.8-4.72 3.77 1.21-3.31z" fill="#34a047"/><path d="m439.95 290.11-.21.58-1.9.25-.02-.76z" fill="#231f20"/><path d="m437.84 290.94 1.9-.25-1.21 3.31-.01.03-.53 1.49zm.34 10.88 8.18-.26-1.61.21-9.46 1.23 2.22-6.15.51-.07z" fill="#34a047"/><path d="m437.99 295.52.03 1.26-.51.07z" fill="#231f20"/><path d="m437.99 295.52-.48 1.33-46 5.99-3.11-3.14-.3-2.28 49.74-6.48zm-.48 1.33-2.22 6.15-38.64 5.04-5.14-5.2z" fill="#34a047"/><path d="m435.29 303-11.64 32.34-27-27.3z" fill="#ed1e29"/><g fill="#34a047"><path d="m434.32 340.09-2.71 7.53.09-.46.63-3.04-2.19-2.21-4.39-4.44 1.57-2.25zm-2.71 7.53-.85 4.17-5.2-3.62.44-2.17 5.48 1.97z"/><path d="m430.76 351.79-6.83 33.49-6.68 3.63 8.31-40.74zm.94-4.63-.09.46-.13.35-5.48-1.97-3.62-3.66 3.37-4.87 4.39 4.44 2.19 2.21zm-5.7-1.16-.44 2.17-4.88-3.39.38-.55z"/><path d="m425.75 337.47-3.37 4.87-.92-.93 2.19-6.07zm-1.82 47.81-1.51 7.44-4.31 2.34-1.84-1.37.98-4.78zm-.28-49.94-2.19 6.07-32.06-32.42 7.25-.95z"/><path d="m422.38 342.34 3.62 3.66-4.94-1.77zm.04 50.38-.98 4.8-3.33-2.46zm-.04-50.38-1.32 1.89-.54-.2.94-2.62zm-1.7 2.44 4.88 3.39-8.31 40.74-4.29 2.33-2.04-.42 8.76-42.94 2.18 2.21-1.56-5.25z"/><path d="m420.3 344.84 1.56 5.25-2.18-2.21z"/><path d="m419.68 347.88-36.3-36.7 1.64-1.62 4.38-.57 32.06 32.42-.94 2.62.54.2-.38.55-.38.06zm-3.41 45.81 1.84 1.37-2.38 1.29zm.98-4.78-.98 4.78-3.31-2.45z"/><path d="m421.44 397.52.99 1.82-3.92 2.13-10.98 5.96 2.5-12.24.89-4.37 2.04.42 3.31 2.45-.54 2.66 2.38-1.29zm-24.79-89.48-7.25.95-3.11-3.14.84-2.43 4.38-.58zm-5.14-5.2-4.38.58 1.27-3.72z"/><path d="m386.29 305.85 3.11 3.14-4.38.57zm.84-2.43-.84 2.43-2.03-2.06z"/><path d="m388.4 299.7-1.27 3.72-2.87.37 2.03 2.06-1.27 3.71-1.64 1.62-3.26-3.3-8.25-8.34 11.64-1.52 4.59-.6z"/></g><path d="m141.92 63.09c21.13 0 38.26 12.48 38.26 27.88 0 9.84-7 18.49-17.57 23.45-5.96 2.8-13.07 4.43-20.69 4.43-7.3 0-14.12-1.49-19.92-4.08-10.99-4.89-18.33-13.72-18.33-23.8 0-15.4 17.13-27.88 38.25-27.88z" fill="#c8c8c8"/><path d="m165.14 148.44 3.35 363.89h-5.47v-359.7c-.12-1.98-.23-3.96 1.35-4.19z" fill="#fff"/><path d="m141.92 118.85c7.62 0 14.73-1.63 20.69-4.43v670.96h-39.49l-1.12-670.61c5.8 2.59 12.62 4.08 19.92 4.08z" fill="#c8c8c8"/><g fill="none" stroke="#231f20"><path d="m165.07 140.34h583.11v379.83h-579.62m-46.56-405.4c-10.99-4.89-18.33-13.72-18.33-23.8 0-15.4 17.13-27.88 38.25-27.88 21.13 0 38.26 12.48 38.26 27.88 0 9.84-7 18.49-17.57 23.45-5.96 2.8-13.07 4.43-20.69 4.43-7.3 0-14.12-1.49-19.92-4.08z" stroke-width="21"/><path d="m122 114v.77l1.12 670.61m39.49-672.78v672.78" stroke-width="21"/><path d="m745 179.25 3.18-1.79 2.01-1.14" stroke-width="14"/></g><path d="m0 0h850.394v850.394h-850.394z" fill="none"/></svg>