<svg height="850.89" viewBox="0 0 850.89 850.89" width="850.89" xmlns="http://www.w3.org/2000/svg"><path d="m748.43 330.25v190.17h-408.18v-.17l-1-189.99 1-.01h408z" fill="#ef3e23"/><path d="m748.43 177.71v152.54h-408.18l-1 .01-.99-189.67h410.17z" fill="#fbed24"/><path d="m340.25 520.42h-171.44l-3.49-379.83h172.94l.99 189.67 1 189.99z" fill="#34a047"/><path d="m142.17 63.34c21.13 0 38.26 12.48 38.26 27.88 0 9.84-7 18.49-17.57 23.45-5.96 2.8-13.07 4.43-20.69 4.43-7.3 0-14.12-1.49-19.92-4.08-10.99-4.89-18.33-13.72-18.33-23.8 0-15.4 17.13-27.88 38.25-27.88z" fill="#c8c8c8"/><path d="m142.17 119.1c7.62 0 14.73-1.63 20.69-4.43v670.96h-39.49l-1.12-670.61c5.8 2.59 12.62 4.08 19.92 4.08z" fill="#c8c8c8"/><g fill="none"><g stroke="#231f20"><path d="m165.32 140.59h583.11v379.83h-579.62m-46.56-405.4c-10.99-4.89-18.33-13.72-18.33-23.8 0-15.4 17.13-27.88 38.25-27.88 21.13 0 38.26 12.48 38.26 27.88 0 9.84-7 18.49-17.57 23.45-5.96 2.8-13.07 4.43-20.69 4.43-7.3 0-14.12-1.49-19.92-4.08z" stroke-width="21"/><path d="m122.25 114.25v.77l1.12 670.61m39.49-672.78v672.78" stroke-width="21"/><path d="m745.01 179.64 3.42-1.93 2.01-1.14m-412.19-38.32.01 2.34.99 189.67 1 189.99m0-190h408" stroke-width="14"/></g><path d="m.25.25h850.394v850.394h-850.394z"/></g></svg>