<svg height="850.394" viewBox="0 0 850.394 850.394" width="850.394" xmlns="http://www.w3.org/2000/svg"><path d="m748.18 140.34v197.66h-192.96c-1.13-53.68-45.149-97-99.09-97-53.95 0-97.97 43.32-99.1 97h-190.14l-1.82-197.66z" fill="#231f20"/><path d="m748.18 338v182.17h-579.62l-1.67-182.17h190.14c-.02.7-.03 1.42-.03 2.13 0 54.65 44.47 99.12 99.13 99.12 54.65 0 99.12-44.47 99.12-99.12 0-.71-.01-1.43-.03-2.13z" fill="#ed1e29"/><path d="m555.22 338c.021.7.03 1.42.03 2.13 0 54.65-44.47 99.12-99.12 99.12-54.66 0-99.13-44.47-99.13-99.12 0-.71.01-1.43.03-2.13h7c-.02.71-.03 1.42-.03 2.13 0 50.88 41.25 92.12 92.13 92.12s92.12-41.24 92.12-92.12c0-.71-.01-1.42-.03-2.13zm0 0h-7c-1.13-49.9-41.92-90-92.09-90s-90.97 40.1-92.1 90h-7c1.13-53.68 45.15-97 99.1-97 53.94 0 97.96 43.32 99.09 97z" fill="#231f20"/><path d="m548.25 340.13c0 50.88-41.24 92.12-92.12 92.12s-92.13-41.24-92.13-92.12c0-.71.01-1.42.03-2.13h7c-.02.71-.03 1.42-.03 2.13 0 46.93 38.19 85.12 85.13 85.12 46.93 0 85.12-38.19 85.12-85.12 0-.71-.01-1.42-.03-2.13h7c.02.71.03 1.42.03 2.13zm-.03-2.13h-7c-1.13-45.96-38.87-83-85.09-83-46.23 0-83.97 37.04-85.1 83h-7c1.13-49.9 41.93-90 92.1-90s90.96 40.1 92.09 90z" fill="#231f20"/><path d="m541.25 340.13c0 46.93-38.19 85.12-85.12 85.12-46.94 0-85.13-38.19-85.13-85.12 0-.71.01-1.42.03-2.13h170.19c.02.71.03 1.42.03 2.13zm-.03-2.13h-170.19c1.13-45.96 38.87-83 85.1-83 46.22 0 83.96 37.04 85.09 83z" fill="#fbed24"/><path d="m141.92 63.09c21.13 0 38.26 12.48 38.26 27.88 0 9.84-7 18.49-17.57 23.45-5.96 2.8-13.07 4.43-20.69 4.43-7.3 0-14.12-1.49-19.92-4.08-10.99-4.89-18.33-13.72-18.33-23.8 0-15.4 17.13-27.88 38.25-27.88z" fill="#c8c8c8"/><path d="m141.92 118.85c7.62 0 14.73-1.63 20.69-4.43v670.96h-39.49l-1.12-670.61c5.8 2.59 12.62 4.08 19.92 4.08z" fill="#c8c8c8"/><g fill="none"><g stroke="#231f20"><path d="m165.07 140.34h583.11v379.83h-579.62m-46.56-405.4c-10.99-4.89-18.33-13.72-18.33-23.8 0-15.4 17.13-27.88 38.25-27.88 21.13 0 38.26 12.48 38.26 27.88 0 9.84-7 18.49-17.57 23.45-5.96 2.8-13.07 4.43-20.69 4.43-7.3 0-14.12-1.49-19.92-4.08z" stroke-width="21"/><path d="m122 114v.77l1.12 670.61m39.49-672.78v672.78" stroke-width="21"/><path d="m555.22 338h190.78m-584 0h195.03" stroke-width="14"/></g><path d="m0 0h850.394v850.394h-850.394z"/></g></svg>