<svg height="850.394" viewBox="0 0 850.394 850.394" width="850.394" xmlns="http://www.w3.org/2000/svg"><path d="m162.61 114.42v670.96h-39.49l-1.12-670.61c5.8 2.59 12.62 4.08 19.92 4.08 7.62 0 14.73-1.63 20.69-4.43z" fill="#c8c8c8"/><path d="m748.18 177.46v342.71h-579.62l-3.49-379.83h583.11zm-136.93 202.17v-83.65c-32.84-.89-69.24 1.77-99.84-1.35v-98.5h-82.3c-4.03 30.15 1.33 69.69-2.7 99.85h-98.49v83.65c32.84.88 69.23-1.78 99.84 1.35v98.49h83.65c.88-32.85-1.78-69.24 1.35-99.84z" fill="#fff"/><path d="m611.25 295.98v83.65h-98.49c-3.13 30.6-.47 66.99-1.35 99.84h-83.65v-98.49c-30.61-3.13-67-.47-99.84-1.35v-83.65h98.49c4.03-30.16-1.33-69.7 2.7-99.85h82.3v98.5c30.6 3.12 67 .46 99.84 1.35z" fill="#ed1e29"/><path d="m162.61 114.42c-5.96 2.8-13.07 4.43-20.69 4.43-7.3 0-14.12-1.49-19.92-4.08-10.99-4.89-18.33-13.72-18.33-23.8 0-15.4 17.13-27.88 38.25-27.88 21.13 0 38.26 12.48 38.26 27.88 0 9.84-7 18.49-17.57 23.45z" fill="#c8c8c8"/><g fill="none"><g stroke="#231f20"><path d="m165.07 140.34h583.11v379.83h-579.62m-46.56-405.4c-10.99-4.89-18.33-13.72-18.33-23.8 0-15.4 17.13-27.88 38.25-27.88 21.13 0 38.26 12.48 38.26 27.88 0 9.84-7 18.49-17.57 23.45-5.96 2.8-13.07 4.43-20.69 4.43-7.3 0-14.12-1.49-19.92-4.08z" stroke-width="21"/><path d="m122 114v.77l1.12 670.61m39.49-672.78v672.78" stroke-width="21"/><path d="m744.76 179.39 3.42-1.93 2.01-1.14m-238.78 19.81v98.5c30.6 3.12 67 .46 99.84 1.35v83.65h-98.49c-3.13 30.6-.47 66.99-1.35 99.84h-83.65v-98.49c-30.61-3.13-67-.47-99.84-1.35v-83.65h98.49c4.03-30.16-1.33-69.7 2.7-99.85z" stroke-width="14"/></g><path d="m0 0h850.394v850.394h-850.394z"/></g></svg>