<svg height="850.394" viewBox="0 0 850.394 850.394" width="850.394" xmlns="http://www.w3.org/2000/svg"><path d="m548.263 281.461s.62.494.168 1.809h-6.238c4.891-3.776 6.07-1.809 6.07-1.809zm-27.33 125.447h-3.703a649.392 649.392 0 0 1 -6.659-9.899 655.11 655.11 0 0 1 10.362 9.899zm-25.837 28.52c2.557 9.184-.473 9.362-.473 9.362s-2.673 1.199-4.503-8.163c-1.83-9.363-3.913-27.604-3.913-27.604s6.333 17.22 8.889 26.405z" fill="#fff"/><path d="m756.385 406.908v120.114h-590.757v-120.114h226.837c-.105.095-.21.179-.305.263-7.174 6.27-4.755 8.09-4.755 8.09s1.588 2.451 8.258-4.345c1.136-1.157 2.409-2.535 3.766-4.008h12.171c-3.387 3.314-6.912 6.859-9.394 9.583-6.417 7.048-3.798 8.584-3.798 8.584s1.852 2.262 7.701-5.26c2.651-3.419 6.175-8.437 9.236-12.908h10.267c-3.766 4.934-9.341 12.372-12.582 17.315-5.229 7.964-2.398 9.058-2.398 9.058s2.178 1.957 6.774-6.396c2.977-5.418 7.206-14.36 9.815-19.978h10.867c-1.852 2.914-10.015 15.833-13.96 23.27-4.439 8.438-1.536 9.269-1.536 9.269s2.356 1.725 6.154-7.007c3.366-7.784 8.437-22.407 9.521-25.531h56.049c1.031 3.009 6.144 17.747 9.542 25.584 3.787 8.742 6.143 7.017 6.143 7.017s2.914-.842-1.535-9.268c-3.966-7.49-12.203-20.524-13.991-23.333h10.877c2.609 5.618 6.859 14.602 9.836 20.04 4.598 8.343 6.774 6.396 6.774 6.396s2.83-1.095-2.398-9.068c-3.25-4.965-8.857-12.434-12.623-17.368h10.288c3.062 4.481 6.606 9.531 9.268 12.96 5.839 7.522 7.69 5.26 7.69 5.26s2.619-1.525-3.787-8.573c-2.493-2.746-6.06-6.312-9.468-9.647h12.192a166.535 166.535 0 0 0 3.808 4.071c6.681 6.796 8.258 4.345 8.258 4.345s2.42-1.831-4.755-8.1c-.115-.105-.241-.21-.368-.316h216.318zm-261.762 37.882s3.029-.179.473-9.362c-2.556-9.185-8.889-26.405-8.889-26.405s2.083 18.241 3.913 27.604c1.83 9.362 4.503 8.163 4.503 8.163zm-12.877 2.44s3.02-.031.958-9.331c-2.063-9.31-7.479-26.836-7.479-26.836s1.125 18.336 2.451 27.772c1.325 9.436 4.07 8.395 4.07 8.395zm-14.864 1.894s2.988.483 2.473-9.026c-.516-9.53-2.988-27.708-2.988-27.708s-1.894 18.273-2.114 27.803c-.253 9.52 2.629 8.931 2.629 8.931zm-11.961-10.352c1.326-9.437 2.451-27.761 2.451-27.761s-5.417 17.526-7.479 26.835c-2.062 9.3.957 9.32.957 9.32s2.746 1.054 4.071-8.394zm-12.434-2.209c1.819-9.352 3.902-27.604 3.902-27.604s-6.333 17.221-8.889 26.415c-2.546 9.173.473 9.362.473 9.362s2.683 1.19 4.514-8.173z" fill="#33a048"/><path d="m523.384 383.208c.652.547 14.275 11.866 21.87 17.252 7.774 5.501 8.89 2.798 8.89 2.798s2.062-2.219-6.112-7.101c-8.038-4.807-24.028-12.644-24.648-12.949zm1.693-70.662c.516-.221 16.989-7.353 25.279-11.729 8.426-4.46 6.512-6.68 6.512-6.68s-1.053-2.83-9.1 2.262c-7.932 5.007-22.249 15.811-22.691 16.147zm3.366 9.069c.537-.168 17.61-5.649 26.31-9.194 8.815-3.619 7.122-6.007 7.122-6.007s-.768-2.935-9.278 1.347c-8.384 4.228-23.68 13.57-24.154 13.854zm-119.219 61.53c-.505.242-16.579 8.121-24.648 12.95-8.184 4.881-6.122 7.101-6.122 7.101s1.115 2.714 8.899-2.788c7.648-5.429 21.429-16.895 21.871-17.263zm-5.06-61.583c-.473-.284-15.769-9.636-24.153-13.854-8.521-4.282-9.278-1.357-9.278-1.357s-1.694 2.398 7.122 6.007c8.699 3.544 25.772 9.036 26.309 9.204zm3.356-9.079c-.442-.336-14.759-11.13-22.691-16.148-8.047-5.091-9.099-2.262-9.099-2.262s-1.915 2.22 6.512 6.68c8.288 4.377 24.762 11.51 25.278 11.73zm30.938 93.836c-.031.053-.158.252-.368.589h-10.867a426.444 426.444 0 0 0 2.336-5.112c-.127.158-1.726 2.199-3.945 5.112h-10.267a654.203 654.203 0 0 0 6.68-9.962c-.263.242-5.186 4.839-10.425 9.962h-12.172c6.438-7.059 14.37-16.516 14.675-16.884-.441.326-14.475 10.677-21.639 16.884h-226.837v-123.638h218.558c.442 1.21 1.799 3.104 5.302 5.902 7.322 5.859 22.165 15.937 22.628 16.253-.4-.442-12.414-13.697-19.262-20.103-.884-.821-1.673-1.504-2.388-2.052h11.562c7.343 6.081 17.073 13.476 17.441 13.75a640.68 640.68 0 0 0 -11.551-13.75h10.93a711.06 711.06 0 0 0 6.943 8.29 593.668 593.668 0 0 0 -4.271-8.29h10.667a584.317 584.317 0 0 0 2.04 2.935c-.042-.126-.473-1.22-1.157-2.935h66.475a191.665 191.665 0 0 0 -1.179 2.988c.085-.126.874-1.252 2.073-2.988h10.667c-2.367 4.502-4.146 8.037-4.303 8.342a567.98 567.98 0 0 0 6.984-8.342h10.941a630.477 630.477 0 0 0 -11.604 13.813c.368-.273 10.162-7.711 17.516-13.813h11.55a32.493 32.493 0 0 0 -2.451 2.104c-6.837 6.417-18.861 19.672-19.261 20.114.463-.315 15.306-10.404 22.638-16.253 3.556-2.851 4.892-4.755 5.313-5.965h207.954v123.638h-216.317c-7.185-6.217-21.134-16.495-21.575-16.821.305.368 8.194 9.773 14.633 16.821h-12.192a655.11 655.11 0 0 0 -10.362-9.899c.158.252 3.093 4.692 6.659 9.899h-10.288a586.801 586.801 0 0 0 -3.903-5.049c.074.179.979 2.167 2.314 5.049h-10.877c-.189-.305-.315-.494-.337-.536.011.052.073.231.179.536h-56.049c.105-.336.178-.536.189-.589zm131.549-56.617s.589-2.966-8.941-2.83c-9.542.137-27.793 1.915-27.793 1.915s18.178 2.598 27.698 3.208c9.499.6 9.036-2.293 9.036-2.293zm-8.942-11.035c9.488-.905 8.563-3.682 8.563-3.682s.105-3.029-9.278-1.399c-9.394 1.641-27.151 6.249-27.151 6.249s18.366-.284 27.866-1.168zm7.721 24.448s.853-2.903-8.646-3.671c-9.5-.757-27.846-.715-27.846-.715s17.862 4.303 27.277 5.807c9.405 1.493 9.215-1.421 9.215-1.421zm-9.625-38.039c9.31-1.988 8.09-4.639 8.09-4.639s-.242-3.02-9.384-.326c-9.142 2.704-26.247 9.32-26.247 9.32s18.199-2.389 27.541-4.355zm5.828 53.85s1.462-2.651-7.648-5.428c-9.12-2.767-27.046-6.659-27.046-6.659s16.516 8.026 25.395 11.508c8.878 3.483 9.299.579 9.299.579zm-4.839 12.182s1.599-2.578-7.354-5.828c-8.963-3.25-26.668-8.079-26.668-8.079s16.074 8.889 24.742 12.834c8.691 3.944 9.28 1.073 9.28 1.073zm-45.119-46.013c0-27.835-22.565-50.39-50.4-50.39-27.824 0-50.389 22.554-50.389 50.39 0 27.824 22.565 50.389 50.389 50.389 27.835 0 50.4-22.565 50.4-50.389zm-114.728 13.58s-18.346-.052-27.846.705c-9.499.768-8.637 3.671-8.637 3.671s-.2 2.914 9.215 1.431c9.405-1.504 27.268-5.807 27.268-5.807zm-18.578 31.297c8.668-3.945 24.753-12.824 24.753-12.824s-17.705 4.818-26.667 8.079c-8.952 3.251-7.354 5.817-7.354 5.817s.589 2.873 9.268-1.072zm-4.818-11.677c8.878-3.493 25.395-11.519 25.395-11.519s-17.926 3.892-27.046 6.669c-9.11 2.777-7.648 5.417-7.648 5.417s.431 2.904 9.299-.567zm24.069-48.917s-17.105-6.627-26.247-9.331c-9.142-2.682-9.384.326-9.384.326s-1.22 2.662 8.09 4.639c9.342 1.967 27.541 4.366 27.541 4.366zm-1.578 10.393s-17.757-4.607-27.151-6.249c-9.383-1.62-9.278 1.399-9.278 1.399s-.915 2.788 8.574 3.682c9.488.895 27.855 1.168 27.855 1.168zm-27.761 12.161c9.51-.61 27.698-3.198 27.698-3.198s-18.262-1.789-27.804-1.925c-9.52-.137-8.931 2.84-8.931 2.84s-.473 2.893 9.037 2.283z" fill="#231f20"/><path d="m756.385 143.821v139.449h-207.954c.452-1.315-.168-1.809-.168-1.809s-1.179-1.967-6.07 1.809h-11.55a154.577 154.577 0 0 0 4.239-3.619c7.111-6.333 4.723-8.037 4.723-8.037s-1.704-2.493-8.3 4.366c-1.914 1.988-4.239 4.597-6.574 7.29h-10.941c3.608-4.366 7.806-9.573 10.53-13.318 5.576-7.721 2.894-8.868 2.894-8.868s-2.199-2.083-7.186 6.049c-2.63 4.282-6.164 10.877-8.92 16.137h-10.668c3.324-4.807 9.814-14.317 13.317-20.25 4.85-8.205 2.052-9.089 2.052-9.089s-2.389-1.873-6.575 6.69c-3.113 6.344-7.585 17.358-9.688 22.649h-66.475c-2.093-5.26-6.585-16.348-9.709-22.712-4.187-8.563-6.575-6.69-6.575-6.69s-2.788.884 2.051 9.1c3.524 5.954 10.046 15.517 13.35 20.303h-10.667c-2.756-5.281-6.312-11.897-8.941-16.2-4.986-8.121-7.185-6.038-7.185-6.038s-2.693 1.136 2.893 8.857c2.725 3.755 6.943 8.994 10.562 13.381h-10.93c-2.356-2.714-4.702-5.344-6.617-7.343-6.596-6.869-8.3-4.366-8.3-4.366s-2.388 1.694 4.724 8.037a160.885 160.885 0 0 0 4.303 3.671h-11.562c-4.934-3.85-6.133-1.873-6.133-1.873s-.642.505-.147 1.873h-218.559v-139.449zm-254.462 113.087c3.482-8.868.59-9.31.59-9.31s-2.651-1.462-5.439 7.638c-2.787 9.121-6.722 27.046-6.722 27.046s8.068-16.506 11.571-25.374zm-12.981-4.461c2.44-9.205-.484-9.31-.484-9.31s-2.798-1.147-4.534 8.216c-1.725 9.373-3.566 27.635-3.566 27.635s6.112-17.325 8.584-26.541zm-13.296-1.788c.768-9.5-2.125-9.079-2.125-9.079s-2.956-.642-2.999 8.889c-.021 9.542 1.431 27.825 1.431 27.825s2.913-18.136 3.693-27.635zm-15.002 27.572s1.463-18.273 1.431-27.814c-.031-9.531-2.998-8.889-2.998-8.889s-2.893-.421-2.125 9.079c.778 9.499 3.692 27.624 3.692 27.624zm-8.406.695s-1.83-18.252-3.565-27.625c-1.736-9.373-4.534-8.227-4.534-8.227s-2.914.116-.474 9.321c2.473 9.215 8.573 26.531 8.573 26.531zm-9.993 3.292s-3.924-17.926-6.712-27.036c-2.798-9.11-5.449-7.637-5.449-7.637s-2.893.431.6 9.299c3.503 8.869 11.561 25.374 11.561 25.374z" fill="#ed1d31"/><g fill="#fff"><path d="m561.065 346.873c9.53-.137 8.941 2.83 8.941 2.83s.463 2.893-9.036 2.293c-9.521-.61-27.698-3.208-27.698-3.208s18.251-1.779 27.793-1.915zm8.563-11.888s.926 2.777-8.563 3.682c-9.5.884-27.867 1.167-27.867 1.167s17.758-4.607 27.151-6.249c9.384-1.629 9.279 1.4 9.279 1.4zm-9.488 24.458c9.499.768 8.646 3.671 8.646 3.671s.189 2.914-9.215 1.42c-9.415-1.504-27.277-5.807-27.277-5.807s18.346-.041 27.846.716zm7.111-39.006s1.22 2.651-8.09 4.639c-9.342 1.967-27.541 4.355-27.541 4.355s17.105-6.617 26.247-9.32c9.142-2.694 9.384.326 9.384.326zm-9.91 53.061c9.11 2.777 7.648 5.428 7.648 5.428s-.421 2.904-9.3-.579c-8.879-3.482-25.395-11.508-25.395-11.508s17.927 3.892 27.047 6.659zm4.534-67.084s1.693 2.388-7.122 6.007c-8.699 3.545-25.772 9.026-26.31 9.194.474-.284 15.77-9.626 24.153-13.854 8.511-4.282 9.279-1.347 9.279-1.347zm-9.078 78.866c8.952 3.25 7.354 5.828 7.354 5.828s-.59 2.872-9.279-1.073c-8.668-3.945-24.742-12.834-24.742-12.834s17.704 4.828 26.667 8.079zm4.071-91.143s1.914 2.22-6.512 6.68c-8.29 4.376-24.764 11.509-25.279 11.729.441-.336 14.759-11.14 22.691-16.147 8.047-5.092 9.1-2.262 9.1-2.262zm-8.837 102.02c8.174 4.881 6.112 7.101 6.112 7.101s-1.115 2.704-8.89-2.798c-7.595-5.386-21.218-16.706-21.87-17.252.621.305 16.611 8.142 24.648 12.949zm-5.839-112.887h6.238c-.421 1.21-1.757 3.114-5.313 5.965-7.332 5.849-22.175 15.938-22.638 16.253.399-.442 12.424-13.697 19.261-20.114a32.888 32.888 0 0 1 2.452-2.104zm-1.756 123.954c7.175 6.27 4.755 8.1 4.755 8.1s-1.577 2.451-8.258-4.345a170.547 170.547 0 0 1 -3.808-4.071h6.942c.127.106.253.211.369.316z"/><path d="m540.067 406.908h-6.942c-6.438-7.048-14.328-16.453-14.633-16.821.442.327 14.391 10.604 21.575 16.821zm-.463-135.294s2.389 1.704-4.723 8.037a156.355 156.355 0 0 1 -4.239 3.619h-5.912c2.335-2.693 4.66-5.302 6.574-7.29 6.596-6.859 8.3-4.366 8.3-4.366zm-9.204 144.941c6.406 7.048 3.787 8.573 3.787 8.573s-1.852 2.262-7.69-5.26c-2.661-3.429-6.206-8.479-9.268-12.96h3.703c3.409 3.335 6.975 6.901 9.468 9.647zm-5.67-133.285h5.912c-7.354 6.102-17.147 13.539-17.516 13.813.253-.316 5.976-7.333 11.604-13.813zm2.483-22.186s2.683 1.147-2.894 8.868c-2.725 3.745-6.922 8.952-10.53 13.318h-2.682c2.756-5.26 6.29-11.855 8.92-16.137 4.987-8.132 7.186-6.049 7.186-6.049zm-7.649 163.192c5.229 7.974 2.398 9.068 2.398 9.068s-2.177 1.946-6.774-6.396c-2.977-5.438-7.227-14.422-9.836-20.04h1.589c3.766 4.934 9.373 12.403 12.623 17.368zm-3.754-170.345s2.798.884-2.052 9.089c-3.503 5.933-9.993 15.443-13.317 20.25h-.895c2.104-5.291 6.575-16.305 9.688-22.649 4.187-8.563 6.576-6.69 6.576-6.69z"/><path d="m513.789 283.27a567.98 567.98 0 0 1 -6.984 8.342c.157-.305 1.936-3.84 4.303-8.342zm-5.322 146.971c4.449 8.426 1.535 9.268 1.535 9.268s-2.355 1.726-6.143-7.017c-3.398-7.837-8.511-22.575-9.542-25.584h.158c1.789 2.809 10.026 15.843 13.992 23.333zm-5.954-182.643s2.893.442-.59 9.31c-3.503 8.868-11.571 25.374-11.571 25.374s3.935-17.925 6.722-27.046c2.787-9.1 5.439-7.638 5.439-7.638zm-37.882 47.107c27.835 0 50.4 22.554 50.4 50.39 0 27.824-22.565 50.389-50.4 50.389-27.824 0-50.389-22.565-50.389-50.389 0-27.836 22.565-50.39 50.389-50.39zm23.827-51.567s2.925.105.484 9.31c-2.473 9.215-8.585 26.542-8.585 26.542s1.842-18.262 3.566-27.635c1.737-9.364 4.535-8.217 4.535-8.217zm-5.754 194.761c2.062 9.3-.958 9.331-.958 9.331s-2.745 1.041-4.07-8.395c-1.326-9.437-2.451-27.772-2.451-27.772s5.417 17.527 7.479 26.836zm-9.183-196.318s2.893-.421 2.125 9.079c-.779 9.499-3.693 27.635-3.693 27.635s-1.451-18.283-1.431-27.825c.042-9.531 2.999-8.889 2.999-8.889zm-4.167 198.517c.516 9.51-2.473 9.026-2.473 9.026s-2.882.589-2.63-8.932c.221-9.53 2.114-27.803 2.114-27.803s2.474 18.178 2.989 27.709zm-7.28-189.681c.032 9.542-1.431 27.814-1.431 27.814s-2.913-18.125-3.692-27.625c-.768-9.5 2.125-9.079 2.125-9.079s2.967-.641 2.998 8.89zm-4.702 160.594s-1.125 18.325-2.451 27.761c-1.325 9.447-4.071 8.395-4.071 8.395s-3.019-.021-.957-9.32c2.062-9.31 7.479-26.836 7.479-26.836zm-8.699-159.71c1.735 9.373 3.565 27.625 3.565 27.625s-6.101-17.316-8.573-26.531c-2.44-9.205.474-9.321.474-9.321s2.798-1.146 4.534 8.227zm-2.283 157.659s-2.083 18.252-3.902 27.604c-1.831 9.362-4.514 8.174-4.514 8.174s-3.019-.189-.473-9.362c2.556-9.195 8.889-26.416 8.889-26.416zm-10.857-153.777c2.788 9.11 6.712 27.036 6.712 27.036s-8.059-16.505-11.562-25.374c-3.492-8.868-.6-9.299-.6-9.299s2.652-1.474 5.45 7.637zm2.557 151.725h.179c-1.084 3.125-6.154 17.747-9.521 25.531-3.797 8.731-6.154 7.007-6.154 7.007s-2.903-.831 1.536-9.269c3.945-7.436 12.108-20.355 13.96-23.269zm-5.019-123.638h-.883c-3.304-4.786-9.826-14.349-13.35-20.303-4.839-8.216-2.051-9.1-2.051-9.1s2.388-1.873 6.575 6.69c3.124 6.365 7.617 17.453 9.709 22.713zm-7.458 123.638h1.609c-2.609 5.618-6.838 14.56-9.815 19.978-4.597 8.353-6.774 6.396-6.774 6.396s-2.83-1.094 2.398-9.058c3.241-4.944 8.816-12.382 12.582-17.316zm-4.092-123.638h-2.672c-3.619-4.387-7.837-9.625-10.562-13.381-5.586-7.722-2.893-8.857-2.893-8.857s2.199-2.083 7.185 6.038c2.63 4.303 6.186 10.919 8.942 16.2zm.505 113.676c-.158.252-3.103 4.723-6.68 9.962h-3.745a660.879 660.879 0 0 1 10.425-9.962z"/><path d="m411.601 406.908h3.745c-3.062 4.471-6.585 9.489-9.236 12.908-5.849 7.522-7.701 5.26-7.701 5.26s-2.619-1.536 3.798-8.584c2.482-2.725 6.007-6.27 9.394-9.584zm-3.682-123.638a641.798 641.798 0 0 1 11.551 13.75c-.368-.273-10.099-7.669-17.441-13.75zm6.185 106.754c-.305.368-8.237 9.825-14.675 16.884h-6.964c7.164-6.206 21.198-16.557 21.639-16.884zm-6.185-106.754h-5.891a160.885 160.885 0 0 1 -4.303-3.671c-7.111-6.343-4.724-8.037-4.724-8.037s1.705-2.503 8.3 4.366c1.916 1.998 4.262 4.628 6.618 7.342zm-15.064 2.052c6.848 6.406 18.862 19.661 19.262 20.103-.463-.316-15.306-10.394-22.628-16.253-3.503-2.798-4.86-4.692-5.302-5.902h6.28c.715.547 1.504 1.231 2.388 2.052zm16.369 97.823c-.442.368-14.223 11.834-21.871 17.263-7.785 5.502-8.899 2.788-8.899 2.788s-2.062-2.22 6.122-7.101c8.069-4.829 24.143-12.709 24.648-12.95zm-36.767-23.765c9.5-.757 27.846-.705 27.846-.705s-17.862 4.303-27.267 5.807c-9.415 1.483-9.215-1.431-9.215-1.431s-.863-2.903 8.636-3.671zm12.371-63.045c7.932 5.018 22.25 15.812 22.691 16.148-.516-.221-16.989-7.353-25.279-11.729-8.426-4.46-6.512-6.68-6.512-6.68s1.053-2.83 9.1 2.261z"/><path d="m392.466 406.908h6.964c-1.357 1.473-2.63 2.851-3.766 4.008-6.669 6.795-8.258 4.345-8.258 4.345s-2.419-1.82 4.755-8.09c.094-.084.199-.168.305-.263zm14.012-29.76s-16.085 8.879-24.753 12.824c-8.679 3.945-9.268 1.073-9.268 1.073s-1.599-2.566 7.354-5.817c8.962-3.262 26.667-8.08 26.667-8.08zm-26.468-69.44c8.384 4.218 23.68 13.57 24.153 13.854-.537-.168-17.61-5.66-26.31-9.205-8.816-3.608-7.122-6.007-7.122-6.007s.758-2.924 9.279 1.358zm22.292 59.068s-16.516 8.026-25.395 11.519c-8.868 3.471-9.3.568-9.3.568s-1.462-2.641 7.648-5.417c9.121-2.778 27.047-6.67 27.047-6.67zm-27.573-46.729c9.142 2.704 26.247 9.331 26.247 9.331s-18.199-2.398-27.541-4.366c-9.31-1.978-8.09-4.639-8.09-4.639s.243-3.008 9.384-.326zm15.738-36.777h-6.28c-.494-1.367.147-1.873.147-1.873s1.199-1.977 6.133 1.873zm-18.22 50.253c9.395 1.641 27.151 6.249 27.151 6.249s-18.367-.273-27.856-1.167c-9.489-.895-8.574-3.682-8.574-3.682s-.105-3.02 9.279-1.4zm27.088 15.211s-18.188 2.588-27.698 3.198-9.037-2.283-9.037-2.283-.589-2.977 8.931-2.84c9.542.137 27.804 1.925 27.804 1.925z"/></g><path d="m165.629 117.669c-6.017 2.83-13.181 4.471-20.871 4.471-5.996 0-11.666-1-16.726-2.777-12.939-4.534-21.86-14.18-21.86-25.352 0-15.527 17.273-28.12 38.586-28.12s38.586 12.592 38.586 28.12c0 9.929-7.058 18.661-17.715 23.658z" fill="#c8c8c8"/><path d="m165.629 527.022v263.267l-39.849 4.292v-669.37l2.251-5.849c5.06 1.778 10.73 2.777 16.726 2.777 7.69 0 14.854-1.641 20.871-4.471v409.354z" fill="#c8c8c8"/><g fill="none"><path d="m171.047 406.908h585.349m-586.527-123.638h585.359" stroke="#33a048" stroke-width="1.052"/><g stroke="#231f20"><path d="m168.112 143.821h588.273v383.201h-584.76m-43.593-407.66c-12.939-4.534-21.86-14.18-21.86-25.352 0-15.527 17.273-28.12 38.586-28.12s38.586 12.592 38.586 28.12c0 9.93-7.059 18.662-17.715 23.659-6.017 2.83-13.181 4.471-20.871 4.471-5.996 0-11.666-1-16.726-2.778zm-2.252 5.849v669.37m39.849-678.743v678.743" stroke-width="21"/><path d="m515.031 345.095c0 27.824-22.565 50.389-50.4 50.389-27.824 0-50.389-22.565-50.389-50.389 0-27.835 22.565-50.39 50.389-50.39 27.835 0 50.4 22.554 50.4 50.39z" stroke-width="7.031"/><path d="m462.074 250.417c-.031-9.531-2.998-8.889-2.998-8.889s-2.893-.421-2.125 9.079c.779 9.5 3.692 27.625 3.692 27.625s1.463-18.274 1.431-27.815zm-13.401.884c-1.736-9.373-4.534-8.227-4.534-8.227s-2.914.116-.474 9.321c2.473 9.215 8.573 26.531 8.573 26.531s-1.83-18.252-3.565-27.625zm-13.14 3.882c-2.798-9.11-5.449-7.637-5.449-7.637s-2.893.431.6 9.299c3.503 8.868 11.562 25.374 11.562 25.374s-3.925-17.927-6.713-27.036zm-2.462 28.087c-2.093-5.26-6.585-16.348-9.709-22.712-4.187-8.563-6.575-6.69-6.575-6.69s-2.788.884 2.051 9.1c3.524 5.954 10.046 15.517 13.35 20.303a349.012 349.012 0 0 0 2.051 2.946l-.011-.011c-.041-.127-.472-1.221-1.157-2.936zm-11.55 0c-2.756-5.281-6.312-11.897-8.941-16.2-4.986-8.121-7.185-6.038-7.185-6.038s-2.693 1.136 2.893 8.857c2.725 3.755 6.943 8.994 10.562 13.381 3.64 4.408 6.659 7.963 6.954 8.311 0 0-.011-.01-.011-.021a606.576 606.576 0 0 0 -4.272-8.29zm-17.347 38.302-.011-.01m-24.153-13.854c-8.521-4.282-9.278-1.357-9.278-1.357s-1.694 2.398 7.122 6.007c8.7 3.545 25.773 9.036 26.31 9.205-.474-.285-15.769-9.637-24.154-13.855zm27.909-24.438c-2.356-2.714-4.702-5.344-6.617-7.343-6.596-6.869-8.3-4.366-8.3-4.366s-2.388 1.694 4.724 8.037a160.885 160.885 0 0 0 4.303 3.671c7.343 6.081 17.073 13.476 17.452 13.76l-.011-.01c-.253-.315-5.944-7.29-11.551-13.749zm4.198 22.155c-.4-.442-12.414-13.697-19.262-20.103-.884-.821-1.673-1.504-2.388-2.052-4.934-3.85-6.133-1.873-6.133-1.873s-.642.505-.147 1.873c.442 1.21 1.799 3.104 5.302 5.902 7.322 5.859 22.165 15.937 22.638 16.263zm-37.388 14.622c-9.142-2.682-9.384.326-9.384.326s-1.22 2.662 8.09 4.639c9.341 1.967 27.541 4.366 27.541 4.366s-17.105-6.628-26.247-9.331zm-2.482 13.476c-9.383-1.62-9.278 1.399-9.278 1.399s-.915 2.788 8.574 3.682 27.856 1.167 27.856 1.167-17.758-4.607-27.152-6.248zm-.716 13.286c-9.52-.137-8.931 2.84-8.931 2.84s-.473 2.893 9.037 2.283 27.698-3.198 27.698-3.198-18.262-1.788-27.804-1.925zm.926 12.571c-9.499.768-8.637 3.671-8.637 3.671s-.2 2.914 9.215 1.431c9.405-1.504 27.267-5.807 27.267-5.807s-18.345-.052-27.845.705zm2.798 14.065c-9.11 2.777-7.648 5.417-7.648 5.417s.432 2.903 9.3-.568c8.878-3.493 25.395-11.519 25.395-11.519s-17.926 3.893-27.047 6.67zm4.556 11.782c-8.952 3.251-7.354 5.817-7.354 5.817s.589 2.872 9.268-1.073c8.668-3.945 24.753-12.824 24.753-12.824s-17.705 4.819-26.667 8.08zm29.423-2.093-.01.011m-24.648 12.949c-8.184 4.881-6.122 7.101-6.122 7.101s1.115 2.714 8.899-2.788c7.648-5.428 21.429-16.895 21.871-17.263-.505.242-16.579 8.122-24.648 12.95zm7.89 10.814c-.105.095-.21.179-.305.263-7.174 6.27-4.755 8.09-4.755 8.09s1.588 2.451 8.258-4.345c1.136-1.157 2.409-2.535 3.766-4.008 6.438-7.059 14.37-16.516 14.686-16.895l-.011.011c-.442.327-14.476 10.678-21.639 16.884zm19.135 0c-3.387 3.314-6.912 6.859-9.394 9.583-6.417 7.048-3.798 8.584-3.798 8.584s1.852 2.262 7.701-5.26c2.651-3.419 6.175-8.437 9.236-12.908a692.697 692.697 0 0 0 6.69-9.973l-.011.011c-.262.243-5.185 4.84-10.424 9.963zm14.012 0c-3.766 4.934-9.341 12.372-12.582 17.315-5.229 7.964-2.398 9.058-2.398 9.058s2.178 1.957 6.774-6.396c2.977-5.418 7.206-14.36 9.815-19.978a646.472 646.472 0 0 0 2.346-5.123l-.01.011c-.126.159-1.725 2.2-3.945 5.113zm12.477 0c-1.852 2.914-10.015 15.833-13.96 23.27-4.439 8.438-1.536 9.269-1.536 9.269s2.356 1.725 6.154-7.007c3.366-7.784 8.437-22.407 9.521-25.531.105-.336.179-.536.2-.6l-.011.011c-.031.052-.158.252-.368.588zm-.589 28.467c-2.546 9.173.473 9.362.473 9.362s2.683 1.188 4.514-8.174c1.819-9.352 3.902-27.604 3.902-27.604s-6.333 17.222-8.889 26.416zm12.392 2.472c-2.062 9.3.957 9.32.957 9.32s2.746 1.053 4.071-8.395c1.326-9.437 2.451-27.761 2.451-27.761s-5.417 17.526-7.479 26.836zm-42.363-125.353-.01-.011m-22.692-16.148c-8.047-5.091-9.099-2.262-9.099-2.262s-1.915 2.22 6.512 6.68c8.29 4.376 24.763 11.509 25.279 11.729-.442-.335-14.76-11.128-22.692-16.147zm85.693-45.865c.043-9.531 2.999-8.889 2.999-8.889s2.893-.421 2.125 9.079c-.779 9.499-3.693 27.635-3.693 27.635s-1.451-18.284-1.431-27.825zm13.403.884c1.736-9.363 4.534-8.216 4.534-8.216s2.925.105.484 9.31c-2.473 9.215-8.585 26.542-8.585 26.542s1.842-18.263 3.567-27.636zm13.149 3.881c2.788-9.1 5.439-7.638 5.439-7.638s2.893.442-.59 9.31c-3.503 8.868-11.571 25.374-11.571 25.374s3.935-17.925 6.722-27.046zm2.473 28.035c2.104-5.291 6.575-16.305 9.688-22.649 4.187-8.563 6.575-6.69 6.575-6.69s2.798.884-2.052 9.089c-3.503 5.933-9.993 15.443-13.317 20.25-1.199 1.736-1.988 2.861-2.083 2.998l.01-.01c.043-.127.485-1.252 1.179-2.988zm11.561 0c2.756-5.26 6.29-11.855 8.92-16.137 4.986-8.132 7.186-6.049 7.186-6.049s2.683 1.147-2.894 8.868c-2.725 3.745-6.922 8.952-10.53 13.318-3.649 4.439-6.7 8.016-6.995 8.363 0 0 0-.01.011-.021.157-.305 1.935-3.84 4.302-8.342zm13.623 0c2.335-2.693 4.66-5.302 6.574-7.29 6.596-6.859 8.3-4.366 8.3-4.366s2.389 1.704-4.723 8.037a156.355 156.355 0 0 1 -4.239 3.619c-7.354 6.102-17.147 13.539-17.516 13.813-.011.011-.011.011 0 0 .253-.316 5.976-7.333 11.604-13.813zm-4.25 22.218c.399-.442 12.424-13.697 19.261-20.114a32.692 32.692 0 0 1 2.451-2.104c4.892-3.776 6.07-1.809 6.07-1.809s.62.494.168 1.809c-.421 1.21-1.757 3.114-5.313 5.965-7.331 5.849-22.174 15.937-22.637 16.253l-.011.011zm7.953 16.137.011-.01m-.001 0c.474-.284 15.77-9.626 24.153-13.854 8.511-4.282 9.278-1.347 9.278-1.347s1.693 2.388-7.122 6.007c-8.698 3.544-25.772 9.025-26.309 9.194zm29.424-1.505c9.142-2.693 9.384.326 9.384.326s1.22 2.651-8.09 4.639c-9.342 1.967-27.541 4.355-27.541 4.355s17.106-6.616 26.247-9.32zm2.483 13.476c9.384-1.63 9.278 1.399 9.278 1.399s.926 2.777-8.563 3.682c-9.5.884-27.867 1.167-27.867 1.167s17.758-4.607 27.152-6.248zm.715 13.287c9.53-.137 8.941 2.83 8.941 2.83s.463 2.893-9.036 2.293c-9.521-.61-27.698-3.208-27.698-3.208s18.251-1.779 27.793-1.915zm-.925 12.57c9.499.768 8.646 3.671 8.646 3.671s.189 2.914-9.215 1.42c-9.415-1.504-27.277-5.807-27.277-5.807s18.346-.041 27.846.716zm-2.799 14.055c9.11 2.777 7.648 5.428 7.648 5.428s-.421 2.904-9.3-.579c-8.879-3.482-25.395-11.508-25.395-11.508s17.927 3.892 27.047 6.659zm-4.544 11.782c8.952 3.25 7.354 5.828 7.354 5.828s-.59 2.872-9.279-1.073c-8.668-3.945-24.742-12.834-24.742-12.834s17.704 4.828 26.667 8.079zm-29.435-2.083.011.011h.011m0 0c.62.305 16.61 8.142 24.647 12.95 8.174 4.881 6.112 7.101 6.112 7.101s-1.115 2.704-8.89-2.798c-7.594-5.387-21.217-16.707-21.869-17.253zm16.683 23.7c.127.105.253.21.368.316 7.175 6.27 4.755 8.1 4.755 8.1s-1.577 2.451-8.258-4.345a170.547 170.547 0 0 1 -3.808-4.071c-6.438-7.048-14.328-16.453-14.633-16.821-.011-.011-.011-.011 0 0 .443.327 14.392 10.604 21.576 16.821zm-19.134 0c3.408 3.335 6.975 6.901 9.468 9.647 6.406 7.048 3.787 8.573 3.787 8.573s-1.852 2.262-7.69-5.26c-2.661-3.429-6.206-8.479-9.268-12.96a712.325 712.325 0 0 1 -6.67-9.909l.011.01a655.11 655.11 0 0 1 10.362 9.899zm-13.992 0c3.766 4.934 9.373 12.403 12.623 17.368 5.229 7.974 2.398 9.068 2.398 9.068s-2.177 1.946-6.774-6.396c-2.977-5.438-7.227-14.422-9.836-20.04a631.152 631.152 0 0 1 -2.324-5.06l.01.01c.127.159 1.694 2.168 3.903 5.05zm-12.465 0c1.788 2.809 10.025 15.843 13.991 23.333 4.449 8.426 1.535 9.268 1.535 9.268s-2.355 1.726-6.143-7.017c-3.398-7.837-8.511-22.575-9.542-25.584l-.189-.547.011.011c.021.042.147.232.337.536zm.62 28.52c2.557 9.184-.473 9.362-.473 9.362s-2.673 1.199-4.503-8.163c-1.83-9.363-3.913-27.604-3.913-27.604s6.333 17.22 8.889 26.405zm-12.392 2.471c2.062 9.3-.958 9.331-.958 9.331s-2.745 1.041-4.07-8.395c-1.326-9.437-2.451-27.772-2.451-27.772s5.417 17.527 7.479 26.836zm-13.35 2.199c.516 9.51-2.473 9.026-2.473 9.026s-2.882.589-2.63-8.932c.221-9.53 2.114-27.803 2.114-27.803s2.474 18.178 2.989 27.709zm55.712-127.541.011-.011m0 0c.441-.336 14.759-11.14 22.691-16.147 8.047-5.092 9.1-2.262 9.1-2.262s1.914 2.22-6.512 6.68c-8.29 4.376-24.763 11.509-25.279 11.729z" stroke-width="1.758"/></g></g><path d="m0 0h850.394v850.394h-850.394z" fill="none"/></svg>