<svg height="850.394" viewBox="0 0 850.394 850.394" width="850.394" xmlns="http://www.w3.org/2000/svg"><path d="m162.61 114.42v28.92h-.54l.54 58.77v583.27h-39.49l-1.12-670.61c5.8 2.59 12.62 4.08 19.92 4.08 7.62 0 14.73-1.63 20.69-4.43z" fill="#c8c8c8"/><path d="m168.92 173.49v318.64c48.14-28.399 96.35-63.62 137.62-91.25 15.39-10.31 33.72-18.01 46.38-32.91-8.43-20.74-6.17-50.43 0-71.81-68.32-46.04-120.69-81.5-184-122.67zm574.44 318.64c-1-105.72 1.989-215.42-1.5-318.64-60.08 42.14-124.4 80.04-182.5 124.17 6.71 22.44 7.439 52.7-1.5 73.3 63.42 38.8 121.55 82.9 185.5 121.17zm1.82-312.98v344.02h-53.73c-48.78-35.96-108.04-73.6-162.01-108.83-32.131 36.19-115.51 34.48-148.101 0-46.33 31.851-100.7 66.07-146.6 97.23-5.25 3.569-13.17 8.01-14.77 11.6h-54.04v-379.6c0-.08-.01-.15-.01-.23h62.91c-3.52.07-7.03.15-10.54.23 54.31 36.44 109.27 72.24 163.05 109.21 32.45-35.74 117.16-35.64 149.601 0 45.699-31.03 98.34-67.05 143.6-97.24 6.03-4.01 16.91-7.58 16.76-12.2h53.88zm-230.36 194.49 17.18-7.58-17.18-7.57 2.029-18.67-15.149 11.09-15.15-11.09 2.03 18.67-17.18 7.57 17.18 7.58-2.03 18.66 15.15-11.09 15.149 11.09zm-46-80 17.18-7.58-17.18-7.57 2.029-18.67-15.149 11.09-15.15-11.09 2.03 18.67-17.18 7.57 17.18 7.58-2.03 18.66 15.15-11.09 15.149 11.09zm-42 79 17.18-7.58-17.18-7.57 2.029-18.67-15.149 11.09-15.15-11.09 2.03 18.67-17.18 7.57 17.18 7.58-2.03 18.66 15.15-11.09 15.149 11.09z" fill="#fff"/><path d="m741.86 173.49c3.489 103.22.5 212.92 1.5 318.64-63.95-38.27-122.08-82.37-185.5-121.17 8.939-20.6 8.21-50.86 1.5-73.3 58.1-44.13 122.42-82.03 182.5-124.17z" fill="#58b947"/><path d="m691.45 523.17h-471.48c1.6-3.59 9.52-8.03 14.77-11.6 45.9-31.16 100.27-65.38 146.6-97.23 32.59 34.48 115.97 36.19 148.101 0 53.969 35.23 113.229 72.87 162.009 108.83zm-.15-379.83c.15 4.62-10.729 8.19-16.76 12.2-45.26 30.19-97.9 66.21-143.6 97.24-32.44-35.64-117.15-35.74-149.601 0-53.78-36.97-108.74-72.77-163.05-109.21 3.51-.08 7.02-.16 10.54-.23zm-159.3 222.72-17.18 7.58 2.03 18.66-15.15-11.09-15.15 11.09 2.03-18.66-17.18-7.58 17.18-7.57-2.03-18.67 15.15 11.09 15.15-11.09-2.03 18.67zm-46-80-17.18 7.58 2.03 18.66-15.15-11.09-15.15 11.09 2.03-18.66-17.18-7.58 17.18-7.57-2.03-18.67 15.15 11.09 15.15-11.09-2.03 18.67zm-42 79-17.18 7.58 2.03 18.66-15.15-11.09-15.15 11.09 2.03-18.66-17.18-7.58 17.18-7.57-2.03-18.67 15.15 11.09 15.15-11.09-2.03 18.67z" fill="#ed1e29"/><path d="m352.92 296.16c-6.17 21.38-8.43 51.07 0 71.81-12.66 14.9-30.99 22.6-46.38 32.91-41.27 27.63-89.48 62.851-137.62 91.25v-318.64c63.31 41.17 115.68 76.63 184 122.67z" fill="#58b947"/><path d="m745.18 523.17v-344.02l1.17-.66v349.54h-580.419v-4.86h54.04c-.29.66-.37 1.28-.19 1.87h474.21c-.84-.63-1.69-1.25-2.54-1.87z" fill="#fff"/><path d="m162.61 114.42c-5.96 2.8-13.07 4.43-20.69 4.43-7.3 0-14.12-1.49-19.92-4.08-10.99-4.89-18.33-13.72-18.33-23.8 0-15.4 17.13-27.88 38.25-27.88 21.13 0 38.26 12.48 38.26 27.88 0 9.84-7 18.49-17.57 23.45z" fill="#c8c8c8"/><path d="m746.35 139.09v39.4l-1.17.66v-35.81h-53.88c0-.41-.1-.83-.3-1.26-153.5.98-310.83-1.87-462.17 1.26h-62.91c-.13-2.04-.18-4.01 1.5-4.25zm-580.42 4.48v379.6h-.37l-2.95-321.06v-58.77h3.31c0 .08.01.15.01.23zm-3.32-.23v58.77l-.54-58.77z" fill="#fff"/><g fill="none"><g><g stroke="#231f20"><path d="m165.93 523.17h-.37m525.89 0h-471.48m8.86-379.83h462.47m-529.23 0h3.85" stroke-width="14"/><path d="m122 114.77c-10.99-4.89-18.33-13.72-18.33-23.8 0-15.4 17.13-27.88 38.25-27.88 21.13 0 38.26 12.48 38.26 27.88 0 9.84-7 18.49-17.57 23.45-5.96 2.8-13.07 4.43-20.69 4.43-7.3 0-14.12-1.49-19.92-4.08z" stroke-width="21"/><path d="m122 114v.77l1.12 670.61m39.49-672.78v672.78" stroke-width="21"/><path d="m746.35 178.49 3.84-2.17m-584.27-32.98c-.13-2.04-.18-4.01 1.5-4.25h578.93v388.94h-580.419v-4.86-379.6c-.001-.08-.011-.15-.011-.23z" stroke-width="14"/><path d="m168.92 173.49v318.64c48.14-28.399 96.35-63.62 137.62-91.25 15.39-10.31 33.72-18.01 46.38-32.91-8.43-20.74-6.17-50.43 0-71.81-68.32-46.04-120.69-81.5-184-122.67zm59.91-30.15c-3.52.07-7.03.15-10.54.23 54.31 36.44 109.27 72.24 163.05 109.21 32.45-35.74 117.16-35.64 149.601 0 45.699-31.03 98.34-67.05 143.6-97.24 6.03-4.01 16.91-7.58 16.76-12.2 0-.41-.1-.83-.3-1.26-153.501.98-310.831-1.87-462.171 1.26zm513.03 30.15c-60.08 42.14-124.4 80.04-182.5 124.17 6.71 22.44 7.439 52.7-1.5 73.3 63.42 38.8 121.55 82.9 185.5 121.17-1-105.72 1.99-215.42-1.5-318.64zm-50.41 349.68c-48.78-35.96-108.04-73.6-162.01-108.83-32.131 36.19-115.51 34.48-148.101 0-46.33 31.851-100.7 66.07-146.6 97.23-5.25 3.569-13.17 8.01-14.77 11.6-.29.66-.37 1.28-.19 1.87h474.21c-.839-.63-1.689-1.25-2.539-1.87z" stroke-width="14"/></g><path d="m413.7 349.91 15.15-11.09-2.03 18.67 17.18 7.57-17.18 7.58 2.03 18.66-15.15-11.09-15.15 11.09 2.03-18.66-17.18-7.58 17.18-7.57-2.03-18.67zm42-79 15.15-11.09-2.03 18.67 17.18 7.57-17.18 7.58 2.03 18.66-15.15-11.09-15.15 11.09 2.03-18.66-17.18-7.58 17.18-7.57-2.03-18.67zm46 80 15.15-11.09-2.03 18.67 17.18 7.57-17.18 7.58 2.03 18.66-15.15-11.09-15.15 11.09 2.03-18.66-17.18-7.58 17.18-7.57-2.03-18.67z" stroke="#58b947" stroke-width="4.242"/></g><path d="m0 0h850.394v850.394h-850.394z"/></g></svg>