<svg height="850.89" viewBox="0 0 850.89 850.89" width="850.89" xmlns="http://www.w3.org/2000/svg"><path d="m168.55 492.25h579.88v26h-585.57v-26z" fill="#ed1e29"/><path d="m748.43 518.25v34.17h-585.57v-34.17h583.39z" fill="#fff"/><path d="m748.43 262.24v26.01h-308.18l-1.28-.01.24-27.98zm0-59.99v30h-308.18l-.8-.01.25-29.99z" fill="#ed1e29"/><path d="m748.43 172.25v30h-308.73l.26-30h.29z" fill="#fff"/><path d="m748.43 140.59v31.66h-308.47l.27-31.66z" fill="#ed1e29"/><path d="m748.43 232.25v29.99l-309.22-1.98.24-28.02.8.01h308zm0 56v26h-308.18l-1.5-.01.22-26 1.28.01h308z" fill="#fff"/><path d="m748.43 314.25v28h-309.92l.24-28.01 1.5.01h308z" fill="#ed1e29"/><path d="m748.43 342.25v32h-310.18v-2l.26-30h309.74z" fill="#fff"/><path d="m748.43 374.25v26h-580.72l-.24-26h580.78z" fill="#ed1e29"/><path d="m748.43 400.25v32h-580.43l-.29-32h580.54z" fill="#fff"/><path d="m748.43 432.25v32h-580.14l-.29-32h578.25z" fill="#ed1e29"/><path d="m748.43 464.25v28h-579.88l-.26-28h577.96z" fill="#fff"/><path d="m342.25 208.25c-173.27 28.54-70.76 126-14 126 7.74 0-134-56 14-126zm96 166h-270.78l-2.15-233.66h274.91l-.271 31.66-.26 30-.25 29.99-.24 28.02-.24 27.98-.22 26-.24 28.01-.26 30v2zm-44.88-104.23 27.23-3.97-27.23-3.97 22.81-15.4-26.26 8.24 13.87-23.78-20.09 18.82 2.19-27.44-9.93 25.67-9.94-25.67 2.19 27.44-20.09-18.82 13.87 23.78-26.26-8.24 22.81 15.4-27.23 3.97 27.23 3.97-22.81 15.4 26.26-8.24-13.87 23.78 20.09-18.82-2.19 27.44 9.94-25.67 9.93 25.67-2.19-27.44 20.09 18.82-13.87-23.78 26.26 8.24z" fill="#394ea1"/><path d="m420.6 266.05-27.23 3.97 22.81 15.4-26.26-8.24 13.87 23.78-20.09-18.82 2.19 27.44-9.93-25.67-9.94 25.67 2.19-27.44-20.09 18.82 13.87-23.78-26.26 8.24 22.81-15.4-27.23-3.97 27.23-3.97-22.81-15.4 26.26 8.24-13.87-23.78 20.09 18.82-2.19-27.44 9.94 25.67 9.93-25.67-2.19 27.44 20.09-18.82-13.87 23.78 26.26-8.24-22.81 15.4z" fill="#fbed24"/><path d="m342.25 208.25c-148 70-6.26 126-14 126-56.76 0-159.27-97.46 14-126z" fill="#fbed24"/><path d="m142.17 63.34c21.13 0 38.26 12.48 38.26 27.88 0 9.84-7 18.49-17.57 23.45-5.96 2.8-13.07 4.43-20.69 4.43-7.3 0-14.12-1.49-19.92-4.08-10.99-4.89-18.33-13.72-18.33-23.8 0-15.4 17.13-27.88 38.25-27.88z" fill="#c8c8c8"/><path d="m142.17 119.1c7.62 0 14.73-1.63 20.69-4.43v670.96h-39.49l-1.12-670.61c5.8 2.59 12.62 4.08 19.92 4.08z" fill="#c8c8c8"/><g fill="none"><g stroke="#231f20"><path d="m165.32 140.59h583.11v411.83h-579.62m-46.56-437.4c-10.99-4.89-18.33-13.72-18.33-23.8 0-15.4 17.13-27.88 38.25-27.88 21.13 0 38.26 12.48 38.26 27.88 0 9.84-7 18.49-17.57 23.45-5.96 2.8-13.07 4.43-20.69 4.43-7.3 0-14.12-1.49-19.92-4.08z" stroke-width="21"/><path d="m122.25 114.25v.77l1.12 670.61m39.49-672.78v672.78" stroke-width="21"/><path d="m745.01 179.64 3.42-1.93 2.01-1.14" stroke-width="14"/><path d="m164.25 374.25h584m-308-236-.02 2.34-.27 31.66-.26 30-.25 29.99-.24 28.02-.24 27.98-.22 26-.24 28.01-.26 30m-274 28h584m-588 32h586m-582 32h582m-584 28h588m-312-290h312m-310 30h308m-308-60h310" stroke-width="7"/><path d="m438.25 260.25.96.01 309.22 1.98 1.82.01m-310 26h308m-308 26h308m-310 28h310m-406-134c-173.27 28.54-70.76 126-14 126m14-126c-148 70-6.26 126-14 126" stroke-width="7"/><path d="m393.37 270.02 22.81 15.4-26.26-8.24 13.87 23.78-20.09-18.82 2.19 27.44-9.93-25.67-9.94 25.67 2.19-27.44-20.09 18.82 13.87-23.78-26.26 8.24 22.81-15.4-27.23-3.97 27.23-3.97-22.81-15.4 26.26 8.24-13.87-23.78 20.09 18.82-2.19-27.44 9.94 25.67 9.93-25.67-2.19 27.44 20.09-18.82-13.87 23.78 26.26-8.24-22.81 15.4 27.23 3.97z" stroke-width="4"/><path d="m166.25 518.25h580" stroke-width="7"/></g><path d="m.25.25h850.394v850.394h-850.394z"/></g></svg>