<svg height="850.89" viewBox="0 0 850.89 850.89" width="850.89" xmlns="http://www.w3.org/2000/svg"><path d="m162.86 114.67v670.96h-39.49l-1.12-670.61c5.8 2.59 12.62 4.08 19.92 4.08 7.62 0 14.73-1.63 20.69-4.43z" fill="#c8c8c8"/><path d="m743.31 283.52v230.73h-241.13v-2.85c.891-45.101-1.79-94 1.34-136.73h237.11v-91.15z" fill="#fff"/><path d="m743.31 143.94v139.58h-2.68c-79.04-.95-161.64 1.89-238.45-1.43v-138.15z" fill="#fff"/><path d="m502.18 282.09c76.811 3.32 159.41.48 238.45 1.43v91.15h-237.11c-3.13 42.73-.449 91.63-1.34 136.73h-95.12v-135.3c-76.36-3.33-158.52-.48-237.12-1.43v-91.15h237.12v-132.46c-.11-2.02-.22-4.03 1.34-4.27h93.78zm-171.48 61.25c28.55-7.55 76.85 5.65 108.51 0v106.82c-1.47 6.34-17.18 11.7-12.05 15.67h57.6c-1.27-6.34-11.13-8.311-13.39-17.1-6.93-26.851 5.18-75.17 0-105.391h109.85c5.66 2.78 14.23 16.79 17.41 12.82v-56.97c-7.55 2.42-9.57 11.87-18.75 14.24-28.99 7.47-76.39-5.59-108.51 0v-106.82c2.04-5.73 17.14-11.74 12.05-15.67-19.2.95-41.97-1.89-58.94 1.43 4.92 5.21 11.22 8.96 14.73 15.66-.89 34.66 1.79 73.11-1.34 105.4-31.3-6.11-80.53 8.16-108.51 0-7.39-2.16-11.41-15.55-17.41-11.39v55.54c6.67-1.339 9.86-11.889 18.75-14.239z" fill="#ed1e29"/><path d="m329.36 313.43c27.98 8.16 77.21-6.11 108.51 0 3.13-32.29.45-70.74 1.34-105.4-3.51-6.7-9.81-10.45-14.73-15.66 16.97-3.32 39.74-.48 58.94-1.43 5.09 3.93-10.01 9.94-12.05 15.67v106.82c32.12-5.59 79.52 7.47 108.51 0 9.18-2.37 11.2-11.82 18.75-14.24v56.97c-3.18 3.97-11.75-10.04-17.41-12.82h-109.85c5.18 30.22-6.93 78.54 0 105.391 2.26 8.789 12.12 10.76 13.39 17.1h-57.6c-5.13-3.97 10.58-9.33 12.05-15.67v-106.82c-31.66 5.65-79.96-7.55-108.51 0-8.89 2.35-12.08 12.9-18.75 14.24v-55.54c6-4.161 10.02 9.229 17.41 11.389z" fill="#fbed24"/><path d="m169.94 374.67c78.6.95 160.76-1.9 237.12 1.43v135.3h95.12v2.85h-333.43l-1.28-139.56zm0-91.15v91.15l-2.47.02-.21-22.96v-203.52c-.11-2.02-.22-4.03 1.34-4.27h333.58v2.85h-93.78c-1.56.24-1.45 2.25-1.34 4.27v132.46z" fill="#fff"/><path d="m162.86 114.67c-5.96 2.8-13.07 4.43-20.69 4.43-7.3 0-14.12-1.49-19.92-4.08-10.99-4.89-18.33-13.72-18.33-23.8 0-15.4 17.13-27.88 38.25-27.88 21.13 0 38.26 12.48 38.26 27.88 0 9.84-7 18.49-17.57 23.45z" fill="#c8c8c8"/><path d="m167.47 374.69 1.28 139.56h-1.49v-162.52z" fill="#fff"/><path d="m168.6 143.94c-1.56.24-1.45 2.25-1.34 4.27v203.52l-1.94-211.14h583.11v379.83h-579.62l-.06-6.17h574.56v-230.73-139.58z" fill="#fff"/><g fill="none"><g stroke="#231f20"><path d="m165.32 140.59h583.11v379.83h-579.62m-46.56-405.4c-10.99-4.89-18.33-13.72-18.33-23.8 0-15.4 17.13-27.88 38.25-27.88 21.13 0 38.26 12.48 38.26 27.88 0 9.84-7 18.49-17.57 23.45-5.96 2.8-13.07 4.43-20.69 4.43-7.3 0-14.12-1.49-19.92-4.08z" stroke-width="21"/><path d="m122.25 114.25v.77l1.12 670.61m39.49-672.78v672.78" stroke-width="21"/><path d="m745.01 179.64 3.42-1.93 2.01-1.14" stroke-width="14"/><g stroke-width="5"><path d="m169.94 374.67v-91.15h237.12v-132.46c-.11-2.02-.22-4.03 1.34-4.27h93.78v135.3c76.811 3.32 159.41.48 238.45 1.43v91.15h-237.11c-3.13 42.73-.449 91.63-1.34 136.73h-95.12v-135.3c-76.36-3.33-158.52-.48-237.12-1.43z"/><path d="m439.21 208.03c-3.51-6.7-9.81-10.45-14.73-15.66 16.97-3.32 39.74-.48 58.94-1.43 5.09 3.93-10.01 9.94-12.05 15.67v106.82c32.12-5.59 79.52 7.47 108.51 0 9.18-2.37 11.2-11.82 18.75-14.24v56.97c-3.18 3.97-11.75-10.04-17.41-12.82h-109.85c5.18 30.22-6.93 78.54 0 105.391 2.26 8.789 12.12 10.76 13.39 17.1h-57.6c-5.13-3.97 10.58-9.33 12.05-15.67v-106.82c-31.66 5.65-79.96-7.55-108.51 0-8.89 2.35-12.08 12.9-18.75 14.24v-55.54c6-4.16 10.02 9.23 17.41 11.39 27.98 8.16 77.21-6.11 108.51 0 3.13-32.291.45-70.741 1.34-105.401z"/></g></g><path d="m.25.25h850.394v850.394h-850.394z"/></g></svg>