<svg height="850.394" viewBox="0 0 850.394 850.394" width="850.394" xmlns="http://www.w3.org/2000/svg"><path d="m162.61 114.42v670.96h-39.49l-1.12-670.61c5.8 2.59 12.62 4.08 19.92 4.08 7.62 0 14.73-1.63 20.69-4.43z" fill="#c8c8c8"/><path d="m748.18 177.46v342.71h-112.18v-379.83h112.18zm-112.18 342.71h-467.44l-3.49-379.83h130.38v3.58l7.77 6.73-3.82 16.42 14.44-8.71 14.43 8.71-3.82-16.42 11.9-10.31h9.91l285.74 373.66h4zm-65.17-5.95 19.15-.21-1-4.31 10.26-8.891-13.53-1.159-5.28-12.511-5.29 12.511-13.529 1.159 10.27 8.891zm-15.85-43.52 10.26-8.891-13.53-1.159-5.28-12.511-5.29 12.511-13.529 1.159 10.27 8.891-3.08 13.229 11.63-7.01 11.62 7.01zm-36.55-45.14 10.261-8.89-13.521-1.16-5.29-12.51-5.28 12.51-13.529 1.16 10.26 8.89-3.08 13.22 11.63-7.011 11.63 7.011zm-31.85-38.33 10.11-8.76-13.33-1.15-5.21-12.32-5.2 12.32-13.33 1.15 10.11 8.76-3.03 13.03 11.45-6.91 11.46 6.91zm-33.01-43.79 11.12-9.63-14.65-1.26-5.73-13.55-5.729 13.55-14.66 1.26 11.12 9.63-3.33 14.33 12.6-7.59 12.601 7.59zm-33.97-48.06 11.09-9.61-14.621-1.25-5.709-13.52-5.71 13.52-14.62 1.25 11.09 9.61-3.33 14.3 12.57-7.58 12.57 7.58zm-31.69-45.44 11.12-9.63-14.66-1.26-5.73-13.55-5.72 13.55-14.66 1.26 11.12 9.63-3.34 14.33 12.6-7.59 12.6 7.59zm-32.91-44.23 11.69-10.14-15.41-1.32-6.02-14.25-6.02 14.25-15.42 1.32 11.69 10.14-3.5 15.06 13.25-7.99 13.25 7.99z" fill="#394ea1"/><path d="m636 142v372h-4l-285.74-373.66h289.74z" fill="#fbed24"/><path d="m599.24 500.81-10.26 8.89 1 4.31-19.15.21 1.05-4.52-10.27-8.89 13.53-1.16 5.29-12.51 5.28 12.51zm-34-39-10.26 8.89 3.07 13.23-11.62-7.01-11.63 7.01 3.08-13.23-10.27-8.89 13.53-1.16 5.29-12.51 5.28 12.51zm-36.55-45.14-10.26 8.89 3.08 13.22-11.63-7.01-11.63 7.01 3.08-13.22-10.26-8.89 13.53-1.16 5.28-12.51 5.29 12.51zm-32-38.2-10.11 8.76 3.03 13.03-11.46-6.91-11.45 6.91 3.03-13.03-10.11-8.76 13.33-1.15 5.2-12.32 5.21 12.32zm-32-44.66-11.12 9.63 3.34 14.33-12.6-7.59-12.6 7.59 3.33-14.33-11.12-9.63 14.66-1.26 5.73-13.55 5.73 13.55zm-34-48.04-11.09 9.61 3.33 14.3-12.57-7.58-12.57 7.58 3.33-14.3-11.09-9.61 14.62-1.25 5.71-13.52 5.71 13.52zm-31.66-45.46-11.12 9.63 3.33 14.33-12.6-7.59-12.6 7.59 3.34-14.33-11.12-9.63 14.66-1.26 5.72-13.55 5.73 13.55zm-32.34-44.74-11.69 10.14 3.51 15.06-13.25-7.99-13.25 7.99 3.5-15.06-11.69-10.14 15.42-1.32 6.02-14.25 6.02 14.25zm-30.34-55.23-11.9 10.31 3.82 16.42-14.43-8.71-14.44 8.71 3.82-16.42-7.77-6.73v-3.58z" fill="#fff"/><path d="m122 114.77c-10.99-4.89-18.33-13.72-18.33-23.8 0-15.4 17.13-27.88 38.25-27.88 21.13 0 38.26 12.48 38.26 27.88 0 9.84-7 18.49-17.57 23.45-5.96 2.8-13.07 4.43-20.69 4.43-7.3 0-14.12-1.49-19.92-4.08z" fill="#c8c8c8"/><g fill="none"><g stroke="#231f20"><path d="m165.07 140.34h583.11v379.83h-579.62m-46.56-405.4c-10.99-4.89-18.33-13.72-18.33-23.8 0-15.4 17.13-27.88 38.25-27.88 21.13 0 38.26 12.48 38.26 27.88 0 9.84-7 18.49-17.57 23.45-5.96 2.8-13.07 4.43-20.69 4.43-7.3 0-14.12-1.49-19.92-4.08z" stroke-width="21"/><path d="m122 114v.77l1.12 670.61m39.49-672.78v672.78" stroke-width="21"/><path d="m744.76 179.39 3.42-1.93 2.01-1.14m-114.19-34.32v378m-290-380 .26.34 285.74 373.66" stroke-width="14"/><path d="m345.26 212.78-13.25 7.99 3.5-15.06-11.69-10.14 15.42-1.32 6.02-14.25 6.02 14.25 15.41 1.32-11.69 10.14 3.51 15.06z" stroke-width="5.06"/><path d="m337.19 139.61-.84.73-11.9 10.31 3.82 16.42-14.43-8.71-14.44 8.71 3.82-16.42-7.77-6.73" stroke-width="5.513"/><path d="m378.64 256.68-12.6 7.59 3.34-14.33-11.12-9.63 14.66-1.26 5.72-13.55 5.73 13.55 14.66 1.26-11.12 9.63 3.33 14.33z" stroke-width="4.812"/><path d="m410.36 302.1-12.57 7.58 3.33-14.3-11.09-9.61 14.62-1.25 5.71-13.52 5.71 13.52 14.62 1.25-11.09 9.61 3.33 14.3z" stroke-width="4.8"/><path d="m444.31 350.18-12.6 7.59 3.33-14.33-11.12-9.63 14.66-1.26 5.73-13.55 5.73 13.55 14.65 1.26-11.12 9.63 3.34 14.33z" stroke-width="4.812"/><path d="m478.15 393.35-11.45 6.91 3.03-13.03-10.11-8.76 13.33-1.15 5.2-12.32 5.21 12.32 13.33 1.15-10.11 8.76 3.03 13.03z" stroke-width="4.376"/><path d="m509.88 431.77-11.63 7.01 3.08-13.22-10.26-8.89 13.53-1.16 5.28-12.51 5.29 12.51 13.52 1.16-10.26 8.89 3.08 13.22zm36.55 45.15-11.63 7.01 3.08-13.23-10.27-8.89 13.53-1.16 5.29-12.51 5.28 12.51 13.53 1.16-10.26 8.89 3.07 13.23zm24.4 37.3 1.05-4.52-10.27-8.89 13.53-1.16 5.29-12.51 5.28 12.51 13.53 1.16-10.26 8.89 1 4.31" stroke-width="4.441"/></g><path d="m0 0h850.394v850.394h-850.394z"/></g></svg>