<svg height="850.394" viewBox="0 0 850.394 850.394" width="850.394" xmlns="http://www.w3.org/2000/svg"><path d="m162.61 114.42v670.96h-39.49l-1.12-670.61c5.8 2.59 12.62 4.08 19.92 4.08 7.62 0 14.73-1.63 20.69-4.43z" fill="#c8c8c8"/><path d="m748.18 177.46v342.71h-579.62l-3.49-379.83h583.11zm-187.89 182.72-4.29-.18c-100 78-136.5 65.72-226 4 92.91 130.43 166.68 76.97 230.29-3.82zm-84.17-39.34 22.95-22.37-31.71-4.6-14.181-28.74-14.189 28.74-31.71 4.6 22.951 22.37-5.42 31.58 28.37-14.91 28.36 14.91z" fill="#58b947"/><path d="m556 360 4.29.18c-63.61 80.79-137.38 134.25-230.29 3.82 89.5 61.72 126 74 226-4zm-56.93-61.53-22.95 22.37 5.42 31.58-28.36-14.91-28.37 14.91 5.42-31.58-22.95-22.37 31.71-4.6 14.19-28.74 14.18 28.74z" fill="#fbed24"/><path d="m162.61 114.42c-5.96 2.8-13.07 4.43-20.69 4.43-7.3 0-14.12-1.49-19.92-4.08-10.99-4.89-18.33-13.72-18.33-23.8 0-15.4 17.13-27.88 38.25-27.88 21.13 0 38.26 12.48 38.26 27.88 0 9.84-7 18.49-17.57 23.45z" fill="#c8c8c8"/><g fill="none"><g stroke="#231f20"><path d="m165.07 140.34h583.11v379.83h-579.62m-46.56-405.4c-10.99-4.89-18.33-13.72-18.33-23.8 0-15.4 17.13-27.88 38.25-27.88 21.13 0 38.26 12.48 38.26 27.88 0 9.84-7 18.49-17.57 23.45-5.96 2.8-13.07 4.43-20.69 4.43-7.3 0-14.12-1.49-19.92-4.08z" stroke-width="21"/><path d="m122 114v.77l1.12 670.61m39.49-672.78v672.78" stroke-width="21"/><path d="m744.76 179.39 3.42-1.93 2.01-1.14" stroke-width="14"/><path d="m453.18 265.13 14.18 28.74 31.71 4.6-22.95 22.37 5.42 31.58-28.36-14.91-28.37 14.91 5.42-31.58-22.95-22.37 31.71-4.6zm-123.18 98.87c92.91 130.43 166.68 76.97 230.29-3.82.57-.73 1.14-1.45 1.71-2.18m-232 6c89.5 61.72 126 74 226-4" stroke-width="7"/></g><path d="m0 0h850.394v850.394h-850.394z"/></g></svg>