<svg height="850.394" viewBox="0 0 850.394 850.394" width="850.394" xmlns="http://www.w3.org/2000/svg"><path d="m153.73 522.49v275.08h-40.83l-.63-689.57 1.22-2.94c5.61 2.22 12.03 3.48 18.85 3.48 7.88 0 15.22-1.68 21.39-4.58z" fill="#c8c8c8"/><path d="m92.8 79.72c0-15.91 17.7-28.82 39.54-28.82s39.55 12.91 39.55 28.82c0 10.18-7.24 19.12-18.16 24.24-6.17 2.9-13.51 4.58-21.39 4.58-6.82 0-13.24-1.26-18.85-3.48-12.32-4.88-20.69-14.4-20.69-25.34z" fill="#c8c8c8"/><path d="m444.47 175.2c.181.23 3.101 3.95 6.601 10.49 3.63 6.81 11.37 25.08 7.5 40.68-6.761 27.17-28.67 35.28-32.12 36.32-8.05 2.45-30.92 2.11-30.92 2.11s9.76 7.95 23.42 8.4 29.71-3 42.47-16.96c14.41-15.76 14.65-38.89 8.561-53.89-7.972-19.65-24.982-26.93-25.512-27.15zm314.59-44.44v392.65l-443.39-.67.01-3.33v-388.65zm-336.76 60.12 2.69-2.62-3.72-.54-1.66-3.37-1.66 3.37-3.72.54 2.69 2.62-.63 3.7 3.32-1.75 3.32 1.75zm-25.22 12.83 2.69-2.62-3.72-.54-1.66-3.36-1.66 3.36-3.71.54 2.69 2.62-.64 3.7 3.32-1.75 3.32 1.75zm-1.35 27.47 2.69-2.62-3.72-.54-1.66-3.37-1.66 3.37-3.71.54 2.69 2.62-.64 3.7 3.32-1.75 3.32 1.75zm-.5-53.59 2.69-2.62-3.72-.54-1.66-3.37-1.66 3.37-3.71.54 2.69 2.62-.64 3.7 3.32-1.75 3.32 1.75zm-25.67 39.85 2.69-2.62-3.71-.54-1.66-3.37-1.66 3.37-3.72.54 2.69 2.62-.63 3.7 3.32-1.75 3.32 1.75z" fill="#33a048"/><path d="m469.98 202.35c6.09 15 5.85 38.13-8.561 53.89-12.76 13.96-28.81 17.41-42.47 16.96s-23.42-8.4-23.42-8.4 22.87.34 30.92-2.11c3.45-1.04 25.359-9.15 32.12-36.32 3.87-15.6-3.87-33.87-7.5-40.68-3.5-6.54-6.42-10.26-6.601-10.49.532.22 17.542 7.5 25.512 27.15zm-44.99-14.09-2.69 2.62.63 3.7-3.32-1.75-3.32 1.75.63-3.7-2.69-2.62 3.72-.54 1.66-3.37 1.66 3.37zm-25.22 12.83-2.69 2.62.63 3.7-3.32-1.75-3.32 1.75.64-3.7-2.69-2.62 3.71-.54 1.66-3.36 1.66 3.36zm-1.35 27.47-2.69 2.62.63 3.7-3.32-1.75-3.32 1.75.64-3.7-2.69-2.62 3.71-.54 1.66-3.37 1.66 3.37zm-.5-53.59-2.69 2.62.63 3.7-3.32-1.75-3.32 1.75.64-3.7-2.69-2.62 3.71-.54 1.66-3.37 1.66 3.37zm-25.67 39.85-2.69 2.62.64 3.7-3.32-1.75-3.32 1.75.63-3.7-2.69-2.62 3.72-.54 1.66-3.37 1.66 3.37z" fill="#fff"/><path d="m247.14 505.56 14.71-2.6 2.86.71 14.71 2.6.75-4.27 11.25-1.61-.68-4.72 1.9-10.99 4.72.81 1.86-10.83 3.75-.59.4 2.54 7.87-9.17h4.44v51.97l-.01 3.33-105.36-.16v-55.85h5.01l7.87 9.17.4-2.54 3.75.59 1.86 10.83 4.72-.81 1.9 10.99-.68 4.72 11.25 1.61z" fill="#ef3d27"/><path d="m315.68 442.69v24.75h-4.44l-7.87 9.17-.4-2.54-1.32-8.48-1.75-2.78.28-.18v-21.48l-22.76-13.74-27.02-.04-22.77 13.75v21.47l-2.72 2.29-1.32 8.48-.4 2.54-7.87-9.17h-5.01v-24.04h.28l22.62-25.2-22.62-23.48h-.28v-22.63l22.61-25.19-22.61-23.47v-22.92h.28l22.62-25.2-22.62-23.47h-.28v-23.19l22.62-25.21-9.72-10.08 3.42-3.3 5.58 3.22h9.45l8.81 6.02h27.05l8.81-6.02h9.45l5.58-3.22 2.38 2.3-10.68 11.08 22.62 25.21v17.03h-5.51v-10.95l-8.59-6.01v-6.23l-6.23-4.51h-9.23l-9.02-6.87h-26.63l-9.02 6.87h-9.24l-6.23 4.51v6.23l-8.59 6.01v10.95l9.02 4.51v9.02l5.59 3.22h9.45l8.8 6.01h27.06l8.81-6.01h9.44l5.59-3.22 3.7 3.57-12.08 12.53 22.62 25.2h.29v22.91l-22.62 23.48 22.62 25.2v16.18h-5.51v-10.96l-8.59-6.01v-6.23l-6.23-4.51h-9.23l-9.02-6.87h-26.63l-9.02 6.87h-9.24l-6.22 4.51v6.23l-8.59 6.01v10.96l9.02 4.51v9.02l5.58 3.22h9.45l8.8 6.01h27.06l8.81-6.01h9.45l5.58-3.22 3.84 3.7-12.22 12.69 22.62 25.2zm-18.18-117.19v-32.21h-9.02v-6.44h-49.4v6.44h-9.02v32.21h8.6v7.73h50.25v-7.73z" fill="#ef3d27"/><path d="m315.68 394.01v48.68h-.29l-22.62-25.2 12.22-12.69 10.4-10.79z" fill="#f6cc4b"/><path d="m315.68 387.57v6.44h-.29l-10.4 10.79-3.84-3.7v-9.02l9.02-4.51z" fill="#ef3d27"/><path d="m315.68 322.71v48.68l-22.62-25.2zm0-71.58v48.67h-.29l-22.62-25.2 12.08-12.53 10.54-10.94z" fill="#f6cc4b"/><path d="m315.68 244.97v6.16h-.29l-10.54 10.94-3.7-3.57v-9.02l9.02-4.51z" fill="#ef3d27"/><path d="m315.68 179.26v48.68l-22.62-25.21 10.68-11.08z" fill="#f6cc4b"/><path d="m315.68 156.64v22.62l-11.94 12.39-2.38-2.3v-9.02l9.02-4.51v-10.95l-8.59-6.02v-6.22l-6.23-4.51h-9.23l-9.02-6.87h-26.63l-9.02 6.87h-9.23l-6.23 4.51v6.22l-8.59 6.02v10.95l9.02 4.51v9.02l-3.42 3.3-12.9-13.39v-22.62h.28l26.13-25.88h52.54l26.13 25.88z" fill="#ef3d27"/><path d="m315.68 134.57v22.07h-.29l-26.13-25.88h26.42z" fill="#f6cc4b"/><path d="m310.38 164.87v10.95l-9.02 4.51v5.15h-2.63v-7.15l7.14-3.57v-8.67l-6.8-4.76v-4.93l-4.93-3.57h-7.31l-7.14-5.44h-31.39l-7.14 5.44h-7.31l-4.93 3.57v4.93l-6.8 4.76v8.67l7.14 3.57v7.15h-2.63v-5.15l-9.02-4.51v-10.95l8.59-6.02v-6.22l6.23-4.51h9.23l9.02-6.87h26.63l9.02 6.87h9.23l6.23 4.51v6.22z" fill="#fff"/><path d="m310.17 376.61v10.96l-9.02 4.51v5.14h-2.63v-7.14l7.14-3.57v-8.67l-6.8-4.76v-4.93l-4.93-3.57h-7.31l-7.14-5.44h-31.39l-7.14 5.44h-7.31l-4.93 3.57v4.93l-6.8 4.76v8.67l7.14 3.57v7.14h-2.63v-5.14l-9.02-4.51v-10.96l8.59-6.01v-6.23l6.22-4.51h9.24l9.02-6.87h26.63l9.02 6.87h9.23l6.23 4.51v6.23z" fill="#f6cc4b"/><path d="m310.17 234.02v10.95l-9.02 4.51v5.14h-2.63v-7.13l7.14-3.58v-8.67l-6.8-4.75v-4.94l-4.93-3.57h-7.31l-7.15-5.44h-31.38l-7.14 5.44h-7.31l-4.93 3.57v4.94l-6.81 4.75v8.67l7.14 3.58v7.13h-2.63v-5.14l-9.02-4.51v-10.95l8.59-6.01v-6.23l6.23-4.51h9.24l9.02-6.87h26.63l9.02 6.87h9.23l6.23 4.51v6.23z" fill="#33a048"/><path d="m305.87 166.09v8.67l-7.14 3.57v7.15l-4.42 2.55h-7.48l-2.22-5.12.22-8.59 5.58-4.3-6.01-3.65.21-8.16 2.22-5.38h7.31l4.93 3.57v4.93z" fill="#f6cc4b"/><path d="m305.66 377.84v8.67l-7.14 3.57v7.14l-4.42 2.55h-7.48l-2.22-5.12.21-8.59 5.59-4.29-6.02-3.65.22-8.17 2.22-5.37h7.31l4.93 3.57v4.93zm0-142.6v8.67l-7.14 3.58v7.13l-4.42 2.55h-7.48l-2.22-5.11.21-8.59 5.59-4.3-6.02-3.65.22-8.16 2.22-5.38h7.31l4.93 3.57v4.94z" fill="#33a048"/><path d="m246.39 501.29-11.25-1.61.68-4.72-1.9-10.99-4.72.81-1.86-10.83-3.75-.59 1.32-8.48 2.72-2.29 23.19 14.6 26.17.04 22.91-14.42 1.75 2.78 1.32 8.48-3.75.59-1.86 10.83-4.72-.81-1.9 10.99.68 4.72-11.25 1.61-.75 4.27-14.71-2.6-2.86-.71-14.71 2.6z" fill="#ef3d27"/><path d="m301.36 185.48v3.87l-5.58 3.22h-9.45l-8.81 6.02h-27.05l-8.81-6.02h-9.45l-5.58-3.22v-3.87h2.63l4.42 2.55h7.48l6.97 4.76h31.73l6.97-4.76h7.48l4.42-2.55z" fill="#fff"/><path d="m301.15 397.22v3.88l-5.58 3.22h-9.45l-8.81 6.01h-27.06l-8.8-6.01h-9.45l-5.58-3.22v-3.88h2.63l4.42 2.55h7.48l6.97 4.76h31.73l6.97-4.76h7.48l4.42-2.55z" fill="#f6cc4b"/><path d="m301.15 254.62v3.88l-5.59 3.22h-9.44l-8.81 6.01h-27.06l-8.8-6.01h-9.45l-5.59-3.22v-3.88h2.63l4.42 2.55h7.49l6.96 4.77h31.74l6.97-4.77h7.48l4.42-2.55z" fill="#33a048"/><path d="m300.18 441.15v21.479l-.28.18-22.91 14.421-26.17-.04-23.19-14.601v-21.47l22.77-13.75 27.02.04zm-23.62 18.32v-13.31l-12.99-8.49-12.31 8.45v13.32l12.99 7.479z" fill="#fff"/><path d="m297.5 293.29v32.21h-8.59v7.73h-50.25v-7.73h-8.6v-32.21h9.02v-6.44h49.4v6.44zm-33.72 23.41 11.38-7.09-11.38-7.09-10.95 7.09zm26.63-146.68-5.58 4.3-.22 8.59-9.88-.86-11.16 7.09-10.31-7.09-9.88.86-.21-8.59-5.59-4.3 6.01-3.65-.21-8.16 9.66.64 10.96-5.79 10.95 5.79 9.66-.64-.21 8.16zm-26.63 6.87 11.38-7.08-11.38-7.09-10.95 7.09z" fill="#ef3d27"/><path d="m290.2 239.17-5.59 4.3-.21 8.59-9.88-.86-11.17 7.09-10.31-7.09-9.87.86-.22-8.59-5.58-4.3 6.01-3.65-.21-8.16 9.66.65 10.95-5.8 10.95 5.8 9.67-.65-.22 8.16zm-26.63 6.88 11.38-7.09-11.38-7.09-10.96 7.09z" fill="#f6cc4b"/><path d="m290.2 381.77-5.59 4.29-.21 8.59-9.88-.86-11.17 7.09-10.3-7.09-9.88.86-.22-8.59-5.58-4.29 6.01-3.65-.21-8.17 9.66.65 10.95-5.8 10.96 5.8 9.66-.65-.22 8.17zm-26.63 6.87 11.38-7.09-11.38-7.09-10.95 7.09z" fill="#ef3d27"/><path d="m286.83 152.83-2.22 5.38-9.66.64-10.95-5.79v-5.67h15.69zm-2.22 30.08 2.22 5.12-6.97 4.76h-16.29v-3.65l11.16-7.09z" fill="#f6cc4b"/><path d="m286.62 221.98-2.22 5.38-9.67.65-10.95-5.8v-5.67h15.69zm-2.22 30.08 2.22 5.11-6.97 4.77h-16.3v-3.65l11.17-7.09zm2.22 112.52-2.22 5.37-9.66.65-10.96-5.8v-5.66h15.7zm-2.22 30.07 2.22 5.12-6.97 4.76h-16.3v-3.65l11.17-7.09z" fill="#33a048"/><path d="m276.56 446.16v13.31l-12.31 7.45-12.99-7.48v-13.32l12.31-8.45z" fill="#ef3d27"/><path d="m275.16 169.81-11.38 7.08-10.95-7.08 10.95-7.09zm0 139.8-11.38 7.09-10.95-7.09 10.95-7.09z" fill="#33a048"/><path d="m274.95 238.96-11.38 7.09-10.96-7.09 10.96-7.09zm0 142.59-11.38 7.09-10.95-7.09 10.95-7.09z" fill="#ef3d27"/><path d="m264 147.39v5.67l-10.96 5.79-9.66-.64-2.22-5.38 7.14-5.44h14.66z" fill="#f6cc4b"/><path d="m263.78 359.14v5.66l-10.95 5.8-9.66-.65-2.22-5.37 7.14-5.44h14.66zm0-142.6v5.67l-10.95 5.8-9.66-.65-2.22-5.38 7.14-5.44h14.65z" fill="#33a048"/><path d="m263.57 189.14v3.65h-15.44l-6.97-4.76 2.22-5.12 9.88-.86z" fill="#f6cc4b"/><path d="m263.35 400.88v3.65h-15.43l-6.97-4.76 2.22-5.12 9.88-.86zm0-142.59v3.65h-15.44l-6.96-4.77 2.22-5.11 9.87-.86z" fill="#33a048"/><path d="m243.38 158.21.21 8.16-6.01 3.65 5.59 4.3.21 8.59-2.22 5.12h-7.48l-4.42-2.55v-7.15l-7.14-3.57v-8.67l6.8-4.76v-4.93l4.93-3.57h7.31z" fill="#f6cc4b"/><path d="m243.17 227.36.21 8.16-6.01 3.65 5.58 4.3.22 8.59-2.22 5.11h-7.49l-4.42-2.55v-7.13l-7.14-3.58v-8.67l6.81-4.75v-4.94l4.93-3.57h7.31zm0 142.59.21 8.17-6.01 3.65 5.58 4.29.22 8.59-2.22 5.12h-7.48l-4.42-2.55v-7.14l-7.14-3.57v-8.67l6.8-4.76v-4.93l4.93-3.57h7.31z" fill="#33a048"/><path d="m236.72 130.76-26.13 25.88h-.28v-25.88zm-26.13 120.37 22.62 23.47-22.62 25.2h-.28v-48.67zm0 142.88 22.62 23.48-22.62 25.2h-.28v-48.68zm12.62-201.36 9.72 10.08-22.62 25.21v-48.68zm-12.9 130.07 22.61 23.47-22.61 25.19z" fill="#f6cc4b"/><path d="m210.31 322.72v199.86l-56.31-.09h-.27v-391.73h56.58v169.04z" fill="#33a048"/><g fill="none"><g stroke="#231f20"><path d="m156.27 130.76h602.79v392.65l-443.39-.67-105.36-.16-56.31-.09m-40.51-417.43c-12.32-4.88-20.69-14.4-20.69-25.34 0-15.91 17.7-28.82 39.54-28.82s39.55 12.91 39.55 28.82c0 10.18-7.24 19.12-18.16 24.24-6.17 2.9-13.51 4.58-21.39 4.58-6.82 0-13.24-1.26-18.85-3.48zm-1.22 2.94.63 689.57m40.83-695.48v695.48" stroke-width="21"/><path d="m392.54 171.06 1.66 3.37 3.72.54-2.69 2.62.63 3.7-3.32-1.75-3.32 1.75.64-3.7-2.69-2.62 3.71-.54zm-25.66 39.85 1.66 3.37 3.71.54-2.69 2.62.64 3.7-3.32-1.75-3.32 1.75.63-3.7-2.69-2.62 3.72-.54zm27.51-13.72 1.66 3.36 3.72.54-2.69 2.62.63 3.7-3.32-1.75-3.32 1.75.64-3.7-2.69-2.62 3.71-.54zm25.22-12.84 1.66 3.37 3.72.54-2.69 2.62.63 3.7-3.32-1.75-3.32 1.75.63-3.7-2.69-2.62 3.72-.54zm-26.57 40.3 1.66 3.37 3.72.54-2.69 2.62.63 3.7-3.32-1.75-3.32 1.75.64-3.7-2.69-2.62 3.71-.54z" stroke-width="2"/><path d="m210.31 134.57v384.84" stroke-width="7"/><path d="m239.51 128-2.79 2.76-26.13 25.88m-.28 22.62 12.9 13.39 9.72 10.08-22.62 25.21m.28 23.19 22.62 23.47-22.62 25.2m-.29 22.91.01.01 22.61 23.47-22.61 25.19-.01.01m.29 22.62 22.62 23.48-22.62 25.2" stroke-width="3"/><path d="m315.68 134.57v384.84" stroke-width="7"/><path d="m286.47 128 2.79 2.76 26.13 25.88m.29 22.62-11.94 12.39-10.68 11.08 22.62 25.21m-.29 23.19-10.54 10.94-12.08 12.53 22.62 25.2m.29 22.91-22.62 23.48 22.62 25.2m-.29 22.62-10.4 10.79-12.22 12.69 22.62 25.2" stroke-width="3"/><g stroke-width="3.602"><path d="m262.96 147.39h-14.66l-7.14 5.44h-7.31l-4.93 3.57v4.93l-6.8 4.76v8.67l7.14 3.57v7.15l4.42 2.55h7.48l6.97 4.76h14.15"/><path d="m264 198.59h13.52l8.81-6.02h9.45l5.58-3.22v-9.02l9.02-4.51v-10.95l-8.59-6.02v-6.22l-6.23-4.51h-9.23l-9.02-6.87h-26.63l-9.02 6.87h-9.23l-6.23 4.51v6.22l-8.59 6.02v10.95l9.02 4.51v9.02l5.58 3.22h9.45l8.81 6.02z"/><path d="m262.96 147.39h16.73l7.14 5.44h7.31l4.93 3.57v4.93l6.8 4.76v8.67l-7.14 3.57v7.15l-4.42 2.55h-7.48l-6.97 4.76h-17.58"/><path d="m263.57 189.14 11.16-7.09 9.88.86.22-8.59 5.58-4.3-6.01-3.65.21-8.16-9.66.64-10.95-5.79-10.96 5.79-9.66-.64.21 8.16-6.01 3.65 5.59 4.3.21 8.59 9.88-.86z"/><path d="m275.16 169.81-11.38-7.09-10.95 7.09 10.95 7.08zm-12.42 46.73h-14.65l-7.14 5.44h-7.31l-4.93 3.57v4.94l-6.81 4.75v8.67l7.14 3.58v7.13l4.42 2.55h7.49l6.96 4.77h14.15"/><path d="m263.78 267.73h13.53l8.81-6.01h9.44l5.59-3.22v-9.02l9.02-4.51v-10.95l-8.59-6.01v-6.23l-6.23-4.51h-9.23l-9.02-6.87h-26.63l-9.02 6.87h-9.24l-6.23 4.51v6.23l-8.59 6.01v10.95l9.02 4.51v9.02l5.59 3.22h9.45l8.8 6.01z"/><path d="m262.74 216.54h16.73l7.15 5.44h7.31l4.93 3.57v4.94l6.8 4.75v8.67l-7.14 3.58v7.13l-4.42 2.55h-7.48l-6.97 4.77h-17.59"/><path d="m263.35 258.29 11.17-7.09 9.88.86.21-8.59 5.59-4.3-6.02-3.65.22-8.16-9.67.65-10.95-5.8-10.95 5.8-9.66-.65.21 8.16-6.01 3.65 5.58 4.3.22 8.59 9.87-.86z"/><path d="m274.95 238.96-11.38-7.09-10.96 7.09 10.96 7.09zm-12.2 120.18h-14.66l-7.14 5.44h-7.31l-4.93 3.57v4.93l-6.8 4.76v8.67l7.14 3.57v7.14l4.42 2.55h7.48l6.97 4.76h14.15"/><path d="m263.78 410.33h13.53l8.81-6.01h9.45l5.58-3.22v-9.02l9.02-4.51v-10.96l-8.59-6.01v-6.23l-6.23-4.51h-9.23l-9.02-6.87h-26.63l-9.02 6.87h-9.24l-6.22 4.51v6.23l-8.59 6.01v10.96l9.02 4.51v9.02l5.58 3.22h9.45l8.8 6.01z"/><path d="m262.75 359.14h16.73l7.14 5.44h7.31l4.93 3.57v4.93l6.8 4.76v8.67l-7.14 3.57v7.14l-4.42 2.55h-7.48l-6.97 4.76h-17.58"/><path d="m263.35 400.88 11.17-7.09 9.88.86.21-8.59 5.59-4.29-6.02-3.65.22-8.17-9.66.65-10.96-5.8-10.95 5.8-9.66-.65.21 8.17-6.01 3.65 5.58 4.29.22 8.59 9.88-.86z"/><path d="m274.95 381.55-11.38-7.09-10.95 7.09 10.95 7.09zm.21-71.94-11.38-7.09-10.95 7.09 10.95 7.09z"/><path d="m263.78 286.85h-24.7v6.44h-9.02v32.21h8.6v7.73h25.12m-43.81-33.5h9.88m-10.31 8.81h9.88m-9.66 9.66h9.88m34.14-31.35h24.7v6.44h9.02v32.21h-8.59v7.73h-25.13m43.81-33.5h-9.88m10.31 8.81h-9.88m9.66 9.66h-9.87m-70.3 144.39 23.19 14.6 26.17.04 22.91-14.42.28-.18v-21.48l-22.76-13.74-27.02-.04-22.77 13.75z"/><path d="m264.25 466.92 12.31-7.45v-13.31l-12.99-8.49-12.31 8.45v13.32z"/><path d="m215.32 466.73 7.87 9.17.4-2.54 1.32-8.48m-6.07 13.9 10.39 6.16-.03-.16-1.86-10.83m-1.91 14.85 10.39 6.16-1.9-10.99m.51 15.61.71.1 11.25 1.61-5.97-9.43m-20.95-34.29 1.15 9.31m21.76 39.52 4.76-.84 14.71-2.6-6.45 6.3m55.84-41.82-7.87 9.17-.4-2.54-1.32-8.48m6.07 13.9-10.39 6.16.03-.16 1.86-10.83m1.91 14.85-10.39 6.16 1.9-10.99m-.51 15.61-.71.1-11.25 1.61 5.97-9.42m20.95-34.29-1.14 9.3m-21.77 39.52-4.76-.84-14.71-2.6 6.45 6.3" stroke-linecap="round" stroke-linejoin="round"/></g><path d="m444.47 175.2c.53.22 17.54 7.5 25.511 27.15 6.09 15 5.85 38.13-8.561 53.89-12.76 13.96-28.81 17.41-42.47 16.96s-23.42-8.4-23.42-8.4 22.87.34 30.92-2.11c3.45-1.04 25.359-9.15 32.12-36.32 3.87-15.6-3.87-33.87-7.5-40.68-3.5-6.54-6.42-10.26-6.6-10.49zm0 0-.01-.01" stroke-linecap="round" stroke-linejoin="round" stroke-width="5"/></g><path d="m0 0h850.394v850.394h-850.394z"/></g></svg>