<svg height="850.89" viewBox="0 0 850.89 850.89" width="850.89" xmlns="http://www.w3.org/2000/svg"><path d="m748.43 177.71v42.54h-582.38l-.73-79.66h583.11z" fill="#34a047"/><path d="m748.43 220.25v38h-582.03l-.35-38h580.2z" fill="#fff"/><path d="m748.43 258.25v158h-580.58l-1.45-158zm-284.47 93.07 34.24-29.67-45.15-3.88-17.63-41.73-17.62 41.73-45.15 3.88 34.24 29.67-10.26 44.11 38.79-23.38 38.8 23.38z" fill="#ed1e29"/><path d="m748.43 416.25v40h-580.21l-.37-40h578.4z" fill="#fff"/><path d="m748.43 456.25v64.17h-579.62l-.59-64.17h580.03z" fill="#34a047"/><path d="m498.2 321.65-34.24 29.67 10.26 44.11-38.8-23.38-38.79 23.38 10.26-44.11-34.24-29.67 45.15-3.88 17.62-41.73 17.63 41.73z" fill="#fbed24"/><path d="m142.17 63.34c21.13 0 38.26 12.48 38.26 27.88 0 9.84-7 18.49-17.57 23.45-5.96 2.8-13.07 4.43-20.69 4.43-7.3 0-14.12-1.49-19.92-4.08-10.99-4.89-18.33-13.72-18.33-23.8 0-15.4 17.13-27.88 38.25-27.88z" fill="#c8c8c8"/><path d="m142.17 119.1c7.62 0 14.73-1.63 20.69-4.43v670.96h-39.49l-1.12-670.61c5.8 2.59 12.62 4.08 19.92 4.08z" fill="#c8c8c8"/><g fill="none"><g stroke="#231f20"><path d="m165.32 140.59h583.11v379.83h-579.62m-46.56-405.4c-10.99-4.89-18.33-13.72-18.33-23.8 0-15.4 17.13-27.88 38.25-27.88 21.13 0 38.26 12.48 38.26 27.88 0 9.84-7 18.49-17.57 23.45-5.96 2.8-13.07 4.43-20.69 4.43-7.3 0-14.12-1.49-19.92-4.08z" stroke-width="21"/><path d="m122.25 114.25v.77l1.12 670.61m39.49-672.78v672.78" stroke-width="21"/><path d="m745.01 179.64 3.42-1.93 2.01-1.14m-586.19 43.68h582m-582 38h582m-580 198h582m-584-40h582" stroke-width="14"/><path d="m435.42 276.04 17.63 41.73 45.15 3.88-34.24 29.67 10.26 44.11-38.8-23.38-38.79 23.38 10.26-44.11-34.24-29.67 45.15-3.88z" stroke-width="7"/></g><path d="m.25.25h850.394v850.394h-850.394z"/></g></svg>