<svg height="850.394" viewBox="0 0 850.394 850.394" width="850.394" xmlns="http://www.w3.org/2000/svg"><path d="m123.18 785.31-1.03-669.31.4-.95c5.69 2.45 12.33 3.86 19.43 3.86 7.62 0 14.72-1.62 20.68-4.43v670.83z" fill="#c8c8c8"/><path d="m431.26 145.13h-83.52v-4.73h400.38v379.76l-584.12-.13h-1.34v-191.34h3.32l1.12-.64 2.1 3.67h284.74v-186.59zm243.11 113.94c-2.021 0-1.021 4.5-3.48 6.1-2.46 1.59-8.27-3.34-5.38-5.23 2.9-1.89 6.83-7.84 6.83-7.84s-17.56 1.16-20.609.87c-3.051-.29-13.5.29-15.54 3.92-2.03 3.63-.431 13.36 2.909 17.57 3.33 4.21 9.45 8.59 5.95 12.48-6.859 7.61-24.47-2.72-26.689-4.07l3.33-7.18-.051-1.16 13.07-30.05-16.33 3.92-7.41-8.06-5.88 5.01-2.74-4.27 17.99-7.81s-4.58-5.23-9.149-10.67c-3.28-3.91-13.5-21.12-13.5-21.12s-4.141 6.53-6.101 9.14c-.31.41-.67.86-1.08 1.35-6.21 7.3-23.52 22.6-23.52 22.6l20.17 7.16-6.13 6.67-16.33-3.92 13.069 30.05.221.87c-.59 0-12.2 9.44-12.2 9.44s.38.32 1.04.89c.71.61 1.729 1.52 2.95 2.63-2.11.23-12.63 1.17-15.891-2.22-3.63-3.77 2.61-8.27 5.95-12.48 3.33-4.21 4.94-13.94 2.9-17.57-2.03-3.63-12.48-4.2-15.53-3.92-3.05.29-20.61-.87-20.61-.87s3.92 5.95 6.82 7.84-2.91 6.82-5.38 5.23c-2.46-1.6-1.45-6.1-3.48-6.1-2.029 0-8.699 5.81-4.64 9.88 4.061 4.06 14.37 7.69 18.58 4.35s9.15 2.18 7.12 3.92c-2.04 1.74-12.34.87-15.25 3.77-2.9 2.91-2.9 10.6-2.47 13.94.439 3.34 6.819 8.71 11.029 4.5s2.48-9.58 4.511-9.73c2.02-.14 3.77 4.65 7.109 7.7 3.34 3.04 11.311 4.94 14.08 4.21 2.7-.71-.16 8.44-.28 8.84l-.01.01.01 3.32-6.529.01v4.79c-1.36-.85-12.801-8.03-14.021-9.06-1.31-1.09-7.84 10.89-7.84 10.89l-1.47.55c-4.84-12.6-16.471-19.3-22.48-21.24-7.41-2.4-11.55 6.53-11.55 6.53-3.26 4.14 2.84 4.36 5.01 5.88 2.181 1.53 3.49 8.06 2.4 13.07-.74 3.4-1.28 19.83.29 35.41.58 5.78 1.45 11.45 2.72 16.29.34 1.34.72 2.62 1.13 3.82 1.021 3 2.48 5.53 4.25 7.66 2.74 3.33 6.24 5.68 10 7.31 6.92 3 14.75 3.59 20.55 3.4l.08 4.63c-5.83.07-9.55 3.57-9.55 3.57l2.79 13.15c-.92 1.64-.38 3.57 1.42 5.29 3.34 3.19 13.78 1.89 17.851-.44l.72-1.06c.939.8 1.78 1.49 2.479 1.93 3.48 2.18 11.61 8.71 20.03 11.47 7.601 2.49 17.061 3.08 18.86 3.18.02 0 .05-.01.069 0 1.891-.109 11.28-.71 18.82-3.18 8.42-2.75 16.55-9.29 20.03-11.47.399-.25.85-.58 1.33-.97l1.87.1c4.069 2.33 14.51 3.63 17.859.44 1.811-1.72 2.34-3.66 1.41-5.31l2.79-13.13s-4.06-3.82-10.36-3.56l-.109-3.82c4.609-.09 10.01-.72 15.1-2.51 4.66-1.62 9.061-4.21 12.38-8.22 1.761-2.13 3.221-4.66 4.25-7.66.41-1.2.79-2.48 1.13-3.82 1.271-4.86 2.141-10.54 2.721-16.35 1.569-15.57 1.029-31.96.29-35.36-1.09-5.01.21-11.54 2.39-13.06 2.18-1.53 8.28-1.74 5.01-5.88 0 0-4.14-8.93-11.54-6.53-6.01 1.94-17.64 8.63-22.479 21.23l-1.47-.55s-6.54-11.97-7.841-10.89c-1.31 1.09-14.159 9.15-14.159 9.15h-.721v-5.83s-2.3 0-5.95.01v-.86c1.931-3.37.261-7.33-.199-10.41.06 0 .13.01.199.03 2.761.73 10.74-1.16 14.08-4.21 3.341-3.05 5.08-7.84 7.11-7.69s.29 5.51 4.5 9.73c4.21 4.21 10.6-1.17 11.03-4.5.439-3.34.439-11.04-2.471-13.94-2.899-2.9-13.21-2.03-15.239-3.77-2.03-1.75 2.91-7.26 7.12-3.92s14.51-.3 18.569-4.36c4.073-4.06-2.607-9.87-4.637-9.87z" fill="#2c308c"/><path d="m581.43 422.86c5.021 1.77 11.58 3.22 20.29 3.53 8.67-.31 15.11-1.74 20.03-3.51 5.28-1.89 8.8-4.15 11.41-5.79.32-.2.649-.42.979-.67 3.88-2.81 9.011-8.39 14.32-11.4 1.62-.91 3.25-1.58 4.87-1.87.68-.12 1.34-.19 1.979-.22 6.301-.26 10.36 3.56 10.36 3.56l-2.79 13.13c-.78-1.4-2.63-2.59-5.63-3.26-5.78-1.28-11.78 5.05-15.51 8.03-.48.39-.931.72-1.33.97-3.48 2.18-11.61 8.72-20.03 11.47-7.54 2.47-16.93 3.07-18.82 3.18-.02-.01-.05 0-.069 0-1.8-.1-11.26-.689-18.86-3.18-8.42-2.76-16.55-9.29-20.03-11.47-.699-.44-1.54-1.13-2.479-1.93-3.74-3.19-9.14-8.23-14.36-7.07-3.01.67-4.85 1.87-5.63 3.28l-2.79-13.15s3.72-3.5 9.55-3.57c.88-.01 1.811.06 2.79.23 1.16.2 2.32.61 3.48 1.15 5.56 2.63 11.04 8.56 15.2 11.74.51.4 1.01.75 1.489 1.05 2.611 1.63 6.221 3.89 11.581 5.77z" fill="#fff"/><path d="m554.69 377.31c-3.051-2.61-9.801 7.4-14.381 8.71-.729.21-1.46.1-2.189-.28 0 .01-.01 0-.01 0-1.94-.98-3.82-3.77-5.341-7.02-1.26-2.7-2.27-5.71-2.869-8.27-.101-.41-.181-.81-.261-1.2-.319-1.65.011-3.71.681-6.17.729-2.72 1.88-5.93 2.989-9.58l.25.08s9.58-9.8 11.11-8.06c1.521 1.74 12.41 13.5 12.41 13.5h.74v17.18s.17 1.22.76 3.26l-2.46.52c-.389-1.25-.879-2.2-1.429-2.67z" fill="#2c308c"/><path d="m516.73 387.18s8.989-11.61 15.96-8.42l.079-.04c1.521 3.25 3.4 6.04 5.341 7.02-.9.18-7.58 1.68-9.48 8.99l-2.37.16c-3.76-1.63-7.26-3.98-10-7.31z" fill="#f6cc4b"/><path d="m548.59 398.21c8.75-.53 9.3-12.5 7.53-18.23l2.46-.52c1.28 4.47 4.53 12.89 12.24 21.15l-.24.22c-6.24-2.03-15.97 3.34-15.97 3.34l-1.45.13c-1.16-.54-2.32-.95-3.48-1.15-.979-.17-1.91-.24-2.79-.23l-.08-4.63a47.6 47.6 0 0 0 1.78-.08zm101.76.8c1.46.09 3.101.13 4.851.1l.109 3.82c-.64.03-1.3.1-1.979.22-1.62.29-3.25.96-4.87 1.87l-.06-.85s-12.57-5.81-18.811-3.78l-2.189-.09c6.989-7.54 10.279-15.2 11.75-19.85l3.67.33c-1.771 5.73-1.221 17.7 7.529 18.23z" fill="#2c308c"/><path d="m540.31 386.02c4.58-1.31 11.33-11.32 14.381-8.71.55.47 1.04 1.42 1.43 2.67 1.77 5.73 1.22 17.7-7.53 18.23-.57.04-1.16.06-1.78.08-5.8.19-13.63-.4-20.55-3.4l2.37-.16c1.9-7.31 8.58-8.81 9.48-8.99 0 0 .01.01.01 0 .729.38 1.459.49 2.189.28zm129.99 9.51v1.07c-5.09 1.79-10.49 2.42-15.1 2.51-1.75.03-3.391-.01-4.851-.1-8.75-.53-9.3-12.5-7.529-18.23.38-1.25.88-2.2 1.43-2.67 3.05-2.62 9.8 7.4 14.37 8.71.729.21 1.47.09 2.189-.28.831.16 7.591 1.64 9.491 8.99zm28.17-89.28c3.271 4.14-2.83 4.35-5.01 5.88-2.18 1.52-3.479 8.05-2.39 13.06.739 3.4 1.279 19.79-.29 35.36l-1.61-.15s-15.37-1.74-19.439 3.19l-1.12.29c-.73-2.72-1.87-5.93-2.99-9.58-1.19-3.87-2.351-8.25-2.97-13.08-.42-3.32-.591-6.85-.33-10.58.029-.42.069-.84.109-1.25.32-3.07 1.03-5.88 2.021-8.44 4.84-12.6 16.47-19.29 22.479-21.23 7.4-2.4 11.54 6.53 11.54 6.53z" fill="#f6cc4b"/><path d="m689.17 360.4 1.61.15c-.58 5.81-1.45 11.49-2.721 16.35l-.909-.24s-6.83-10.12-18.12-5.41c.1-.41.18-.81.26-1.2.32-1.65-.01-3.71-.68-6.17l1.12-.29c4.07-4.93 19.44-3.19 19.44-3.19z" fill="#f6cc4b"/><path d="m687.15 376.66.909.24a49.51 49.51 0 0 1 -1.13 3.82c-1.029 3-2.489 5.53-4.25 7.66l-.47-.4s-9-11.61-15.97-8.42l-.09-.04c1.27-2.7 2.279-5.71 2.88-8.27 11.291-4.71 18.121 5.41 18.121 5.41z" fill="#f6cc4b"/><path d="m682.21 387.98.47.4c-3.319 4.01-7.72 6.6-12.38 8.22v-1.07c-1.899-7.35-8.66-8.83-9.49-8.99 1.95-.98 3.83-3.77 5.341-7.02l.09.04c6.969-3.19 15.969 8.42 15.969 8.42z" fill="#f6cc4b"/><path d="m634.11 301.57c-2.36-.2.35 8.49.47 8.88-.561-.29-20.44-10.57-22.14-14.84l5.92-12.74c2.22 1.35 19.83 11.68 26.689 4.07 3.5-3.89-2.62-8.27-5.95-12.48-3.34-4.21-4.939-13.94-2.909-17.57 2.04-3.63 12.489-4.21 15.54-3.92 3.05.29 20.609-.87 20.609-.87s-3.93 5.95-6.83 7.84c-2.89 1.89 2.92 6.82 5.38 5.23 2.46-1.6 1.46-6.1 3.48-6.1 2.03 0 8.71 5.81 4.64 9.87-4.06 4.06-14.359 7.7-18.569 4.36s-9.15 2.17-7.12 3.92c2.029 1.74 12.34.87 15.239 3.77 2.91 2.9 2.91 10.6 2.471 13.94-.431 3.33-6.82 8.71-11.03 4.5-4.21-4.22-2.47-9.58-4.5-9.73s-3.77 4.64-7.11 7.69-11.319 4.94-14.08 4.21a.747.747 0 0 0 -.2-.03z" fill="#c8c8c8"/><path d="m660.81 386.54c-.72.37-1.46.49-2.189.28-4.57-1.31-11.32-11.33-14.37-8.71-.55.47-1.05 1.42-1.43 2.67l-3.67-.33c.869-2.73 1.109-4.41 1.109-4.41v-14.85c1.391-1.46 12.58-13.24 14.01-14.88 1.521-1.74 11.101 8.06 11.101 8.06l.25-.07c1.12 3.65 2.26 6.86 2.99 9.58.67 2.46 1 4.52.68 6.17-.08.39-.16.79-.26 1.2a43.711 43.711 0 0 1 -2.88 8.27c-1.511 3.25-3.391 6.04-5.341 7.02z" fill="#2c308c"/><path d="m665.62 354.3-.25.07s-9.58-9.8-11.101-8.06c-1.43 1.64-12.619 13.42-14.01 14.88v-13.2h.73s10.229-13.43 11.1-14.3c.87-.88 9.8 7.62 9.8 7.62l.761-.09c.62 4.83 1.78 9.21 2.97 13.08zm-2.64-33.9 1.47.55c-.99 2.56-1.7 5.37-2.021 8.44l-.54-.06s-8.489-10.67-9.37-9.58c-.739.93-9.64 10.24-12.26 12.97v-14.06h.721s12.85-8.06 14.159-9.15c1.301-1.08 7.841 10.89 7.841 10.89z" fill="#f6cc4b"/><path d="m662.88 419.62c.93 1.65.4 3.59-1.41 5.31-3.35 3.19-13.79 1.89-17.859-.44l-1.87-.1c3.729-2.98 9.729-9.31 15.51-8.03 2.999.67 4.849 1.86 5.629 3.26z" fill="#bd2226"/><path d="m662.65 341.22-.761.09s-8.93-8.5-9.8-7.62c-.87.87-11.1 14.3-11.1 14.3h-.73v-15.27c2.62-2.73 11.521-12.04 12.26-12.97.881-1.09 9.37 9.58 9.37 9.58l.54.06c-.04.41-.08.83-.109 1.25-.26 3.73-.09 7.26.33 10.58z" fill="#f6cc4b"/><path d="m648.4 404.17.06.85c-5.31 3.01-10.44 8.59-14.32 11.4l-.399-.79c-6.54-1.59-7.74-10.34-7.74-10.34l-3.41-.37a56.06 56.06 0 0 0 4.811-4.62l2.189.09c6.239-2.03 18.809 3.78 18.809 3.78z" fill="#bd2226"/><path d="m575.14 371.12c-.17-.41-.279-.6-.279-.47s.099.28.279.47zm48.37-.22c.181-.19.28-.34.28-.47s-.11.06-.28.47zm16.75-9.71v14.85s-.24 1.68-1.109 4.41c-1.471 4.65-4.761 12.31-11.75 19.85a55.913 55.913 0 0 1 -4.811 4.62c-.76.65-1.55 1.29-2.37 1.93-3.77 2.92-8.64 4.76-12.76 5.89-4.66 1.28-8.35 1.66-8.35 1.66s-4.261-.38-9.42-1.84c-3.91-1.12-8.36-2.86-11.841-5.56-.55-.42-1.08-.85-1.6-1.28a58.407 58.407 0 0 1 -5.43-5.11c-7.71-8.26-10.96-16.68-12.24-21.15-.59-2.04-.76-3.26-.76-3.26v-16.31h30.64l11.3 26.78 10.76-26.78h29.74v1.3z" fill="#fff"/><path d="m589.5 333.39c.41-.17.6-.28.47-.28s-.28.1-.47.28zm50.76-.67v27.17h-29.74l.351-.87-11.55-26.35-11.321 26.13.46 1.09h-30.64v-8.27h5.14l1.74-7.63 9.8-3.04.96.68c2.19-3.27 5.4-8.47 6.44-10.27 1.529-2.61 12.42-8.27 12.42-8.27l-1.25-3.22 9.88-3.82 1.46-3.15c10.37-.02 22.74-.04 29.899-.06 3.65-.01 5.95-.01 5.95-.01v19.89zm-31.11.45c-.19-.18-.351-.28-.471-.28-.129 0 .061.11.471.28z" fill="#a9d7f3"/><path d="m602.35 241.08 2.74 4.27 5.88-5.01 7.41 8.06 16.33-3.92-13.07 30.05-6.09-2.39c-1.78-.7-3.87-1.29-5.92-1.77v-.01c-4.97-1.16-9.76-1.71-9.76-1.71s-9.91 1.09-16.01 3.49l-6.091 2.39-13.069-30.05 16.33 3.92 6.13-6.67 1.28-1.39 1.79 1.53 4.09 3.48 5.33-8.49z" fill="#f6cc4b"/><path d="m634.58 310.45c-.12-.39-2.83-9.08-.47-8.88.46 3.08 2.13 7.04.199 10.41v.86c-7.159.02-19.529.04-29.899.06l8.03-17.29c1.7 4.27 21.58 14.55 22.14 14.84z" fill="#2c308c"/><path d="m633.74 415.63.399.79c-.33.25-.659.47-.979.67-2.61 1.64-6.13 3.9-11.41 5.79-5.61-.51-8.38-9.86-8.38-9.86l-5.91-.28c4.12-1.13 8.99-2.97 12.76-5.89.82-.64 1.61-1.28 2.37-1.93l3.41.37s1.2 8.75 7.74 10.34z" fill="#fff"/><path d="m618.36 282.87-5.92 12.74-8.03 17.29-1.46 3.15-9.88 3.82-5.5 2.13s.31-3.75-.84-9.13a41.85 41.85 0 0 0 -1.921-6.4c-.909-2.34-2.75-5.02-4.939-7.68-3.21-3.91-7.19-7.77-10.09-10.43-1.221-1.11-2.24-2.02-2.95-2.63l-.03-.6s32.24-2.18 34.561-2.76c2.319-.58 10.02-8.27 7.979-10.74l.29-1.26c2.05.48 4.14 1.07 5.92 1.77l6.09 2.39.051 1.16z" fill="#c8c8c8"/><path d="m620.34 233.27-17.99 7.81-2.699-4.22-5.33 8.49-4.09-3.48.279-.33v-29.57c.41-.49.771-.94 1.08-1.35 1.96-2.61 6.101-9.14 6.101-9.14s10.22 17.21 13.5 21.12c4.569 5.44 9.149 10.67 9.149 10.67z" fill="#fff"/><path d="m613.37 413.02s2.77 9.35 8.38 9.86c-4.92 1.77-11.36 3.2-20.03 3.51-8.71-.31-15.27-1.76-20.29-3.53 5.48-.64 7.74-8.53 7.74-8.53l.521-1.77c5.159 1.46 9.42 1.84 9.42 1.84s3.689-.38 8.35-1.66z" fill="#2c308c"/><path d="m599.32 332.67 11.55 26.35-.35.87h-22.06l-.46-1.09z" fill="#fff"/><path d="m610.52 359.89-10.76 26.78-11.3-26.78z" fill="#a9d7f3"/><path d="m609.63 270.36v.01l-.29 1.26c2.04 2.47-5.66 10.16-7.979 10.74-2.32.58-34.561 2.76-34.561 2.76l.03.6c-.66-.57-1.04-.89-1.04-.89s11.61-9.44 12.2-9.44l-.221-.87 6.091-2.39c6.1-2.4 16.01-3.49 16.01-3.49s4.79.55 9.76 1.71z" fill="#c8c8c8"/><path d="m557.82 330.98v-17.99l6.529-.01 22.051-.04.33-.07c1.149 5.38.84 9.13.84 9.13l5.5-2.13 1.25 3.22s-10.891 5.66-12.42 8.27c-1.04 1.8-4.25 7-6.44 10.27l-.96-.68-9.8 3.04-1.74 7.63h-5.14z" fill="#a9d7f3"/><path d="m590.51 211.97v29.57l-.279.33-1.79-1.53-1.28 1.39-20.17-7.16c-.001 0 17.309-15.3 23.519-22.6zm-.82 200.59-.521 1.77s-2.26 7.89-7.74 8.53c-5.359-1.88-8.97-4.14-11.58-5.77-.479-.3-.979-.65-1.489-1.05l.92-.41c6.529-1.59 6.229-8.85 6.229-8.85l.74-1.06c.52.43 1.05.86 1.6 1.28 3.481 2.7 7.931 4.44 11.841 5.56z" fill="#fff"/><path d="m586.73 312.87-.33.07-22.051.04-.01-3.32.01-.01c.471-.21 15.471-7 15.521-10.86 2.189 2.66 4.03 5.34 4.939 7.68a41.738 41.738 0 0 1 1.921 6.4z" fill="#2c308c"/><path d="m576.25 405.72-.74 1.06s.3 7.26-6.229 8.85l-.92.41c-4.16-3.18-9.641-9.11-15.2-11.74l1.45-.13s9.729-5.37 15.97-3.34l.24-.22a58.266 58.266 0 0 0 5.429 5.11z" fill="#bd2226"/><path d="m569.78 288.36c2.899 2.66 6.88 6.52 10.09 10.43-.05 3.86-15.05 10.65-15.521 10.86.12-.4 2.98-9.55.28-8.84-2.77.73-10.74-1.17-14.08-4.21-3.34-3.05-5.09-7.84-7.109-7.7-2.03.15-.301 5.52-4.511 9.73s-10.59-1.16-11.029-4.5c-.431-3.34-.431-11.03 2.47-13.94 2.91-2.9 13.21-2.03 15.25-3.77 2.03-1.74-2.91-7.26-7.12-3.92s-14.52-.29-18.58-4.35c-4.06-4.07 2.61-9.88 4.64-9.88s1.021 4.5 3.48 6.1c2.47 1.59 8.28-3.34 5.38-5.23s-6.82-7.84-6.82-7.84 17.561 1.16 20.61.87c3.05-.28 13.5.29 15.53 3.92 2.04 3.63.43 13.36-2.9 17.57-3.34 4.21-9.58 8.71-5.95 12.48 3.26 3.39 13.78 2.45 15.89 2.22z" fill="#c8c8c8"/><path d="m540.13 419.64c.78-1.41 2.62-2.61 5.63-3.28 5.221-1.16 10.62 3.88 14.36 7.07l-.72 1.06c-4.07 2.33-14.511 3.63-17.851.44-1.799-1.72-2.339-3.65-1.419-5.29z" fill="#bd2226"/><g fill="#f6cc4b"><path d="m557.82 351.62v7.4h-.74s-10.89-11.76-12.41-13.5c-1.53-1.74-11.11 8.06-11.11 8.06l-.25-.08c1.2-3.87 2.36-8.24 2.971-13.08l.77.09s8.931-8.49 9.8-7.62c.87.87 10.23 14.37 10.23 14.37h.74v4.36z"/><path d="m557.82 330.98v16.28h-.74s-9.36-13.5-10.23-14.37c-.869-.87-9.8 7.62-9.8 7.62l-.77-.09c.42-3.32.59-6.85.33-10.58-.03-.42-.07-.84-.11-1.25l.55-.06s8.49-10.67 9.36-9.58c.74.92 8.91 9.43 11.41 12.03z"/><path d="m557.82 317.78v13.2c-2.5-2.6-10.67-11.11-11.41-12.03-.87-1.09-9.36 9.58-9.36 9.58l-.55.06c-.32-3.06-1.02-5.87-2.01-8.43l1.47-.55s6.53-11.98 7.84-10.89c1.22 1.03 12.66 8.21 14.02 9.06z"/><path d="m536.61 329.84c.26 3.73.09 7.26-.33 10.58-.61 4.84-1.771 9.21-2.971 13.08-1.109 3.65-2.26 6.86-2.989 9.58l-1.11-.28c-4.07-4.94-19.45-3.2-19.45-3.2l-1.6.21c-1.57-15.58-1.03-32.01-.29-35.41 1.09-5.01-.22-11.54-2.4-13.07-2.17-1.52-8.27-1.74-5.01-5.88 0 0 4.14-8.93 11.55-6.53 6.01 1.94 17.641 8.64 22.48 21.24a32.77 32.77 0 0 1 2.01 8.43c.04.41.08.83.11 1.25zm-3.84 48.88-.079.04c-6.971-3.19-15.96 8.42-15.96 8.42l-.471.4c-1.77-2.13-3.229-4.66-4.25-7.66-.41-1.2-.79-2.48-1.13-3.82l.91-.24s6.83-10.11 18.11-5.41c.6 2.56 1.61 5.57 2.87 8.27z"/><path d="m529.21 362.8 1.11.28c-.67 2.46-1 4.52-.681 6.17.08.39.16.79.261 1.2-11.28-4.7-18.11 5.41-18.11 5.41l-.91.24c-1.27-4.84-2.14-10.51-2.72-16.29l1.6-.21s15.38-1.74 19.45 3.2z"/></g><path d="m453.94 321.81v9.91l-88.51-56.08v-.99h17.68v.99l70.74 46.17z" fill="#ed1e29"/><path d="m453.94 311.99v9.82h-.09l-70.74-46.17v-.99h13.76v.99l56.98 36.35z" fill="#fff"/><path d="m453.94 274.65v37.34h-.09l-56.98-36.35v-.99h56.98z" fill="#2c308c"/><path d="m453.94 259.92v14.73h-106.2v57.07h-14.73v-71.8h120.84z" fill="#fff"/><path d="m453.94 221.33v38.59h-120.93v71.8h-46.45v-72.78h-123.9v-36.62h121.94v-77.19h48.41v76.2z" fill="#ed1d31"/><path d="m367.79 206.6h86.15v14.73h-120.93v-76.2h14.73v61.47h4.92z" fill="#fff"/><path d="m453.94 166.58v40.02h-62.97v-.72l62.88-39.3z" fill="#2c308c"/><path d="m453.94 149.17v17.41h-.09l-62.88 39.3v.72h-23.18z" fill="#fff"/><path d="m453.94 145.13v4.04l-86.15 57.43h-15.13v-.72l90.39-59.93v-.82z" fill="#ed1e29"/><path d="m453.94 331.72h-25.63v-1.06l-80.57-49.13v-6.88h17.69v.99zm-10.89-186.59v.82l-90.39 59.93v.72h-4.92v-6.62h.99l82.53-54.03v-.82z" fill="#fff"/><path d="m431.26 145.13v.82l-82.53 54.03h-.99v-54.85zm-2.95 185.53v1.06h-80.57v-50.19z" fill="#2c308c"/><path d="m286.56 331.64v.08h-13.75v-59.03h-110.15v-13.75h123.9zm-1.96-186.51v77.19h-121.94v-14.74h107.2v-62.45z" fill="#fff"/><path d="m272.81 330.66v1.06h-79.32v-.08l77.62-45.2h1.7z" fill="#2c308c"/><path d="m272.81 278.24v8.2h-1.7l-77.62 45.2v.08h-8.84v-2.05l87.5-51.43z" fill="#fff"/><path d="m272.81 272.69v5.55h-.66l-87.5 51.43v2.05h-15.45l-2.1-3.67 95.17-54.38v-.98z" fill="#ed1d31"/><path d="m269.86 201.95v5.63h-17.42v-.72l-84.95-61.73h26.98v.82l74.67 56z" fill="#fff"/><path d="m269.86 145.13v56.82h-.72l-74.67-56v-.82z" fill="#2c308c"/><path d="m269.86 143v2.13h-102.37l84.95 61.73v.72h-17.68v-.72l-67.8-49.12h-4.3v-17.34h107.2z" fill="#ed1d31"/><path d="m262.27 272.69v.98l-95.17 54.38-1.12.64h-3.32v-15.72h4.3l69.76-40.28z" fill="#fff"/><path d="m236.72 272.69-69.76 40.28h-4.3v-40.28h2.34z" fill="#2c308c"/><path d="m234.76 206.86v.72h-11.79v-.72l-56.01-40.28h-4.3v-8.84h4.3z" fill="#fff"/><path d="m222.97 206.86v.72h-60.31v-41h4.3z" fill="#2c308c"/><path d="m162.66 114.48c-5.96 2.81-13.06 4.43-20.68 4.43-7.1 0-13.74-1.41-19.43-3.86-11.26-4.85-18.81-13.79-18.81-24.01 0-15.39 17.12-27.87 38.24-27.87 21.13 0 38.25 12.48 38.25 27.87 0 9.84-7 18.49-17.57 23.44z" fill="#c8c8c8"/><g fill="none" stroke="#231f20"><path d="m165.12 140.4h583v379.76l-584.12-.13m-41.45-404.98c-11.26-4.85-18.81-13.79-18.81-24.01 0-15.39 17.12-27.87 38.24-27.87 21.13 0 38.25 12.48 38.25 27.87 0 9.84-7 18.49-17.57 23.44-5.96 2.81-13.06 4.43-20.68 4.43-7.1 0-13.74-1.41-19.43-3.86zm-.4.95 1.03 669.31m39.48-672.64v672.64" stroke-width="21"/><path d="m586.4 312.94-22.051.04-6.529.01v63.21s.17 1.22.76 3.26c1.28 4.47 4.53 12.89 12.24 21.15a58.281 58.281 0 0 0 5.43 5.11c.52.43 1.05.86 1.6 1.28 3.48 2.7 7.931 4.44 11.841 5.56 5.159 1.46 9.42 1.84 9.42 1.84s3.689-.38 8.35-1.66c4.12-1.13 8.99-2.97 12.76-5.89.82-.64 1.61-1.28 2.37-1.93a56.06 56.06 0 0 0 4.811-4.62c6.989-7.54 10.279-15.2 11.75-19.85.869-2.73 1.109-4.41 1.109-4.41v-63.21s-2.3 0-5.95.01c-7.159.02-19.529.04-29.899.06h-.01m-45.872 46.99h81" stroke-width="6.968"/><path d="m588.46 359.89-.46-1.09 11.32-26.13 11.55 26.35-.35.87-10.76 26.78z" stroke-width="6.968"/><path d="m594.32 323.09s-10.891 5.66-12.42 8.27c-1.04 1.8-4.25 7-6.44 10.27-.42.63-.8 1.19-1.13 1.64-.44.62-.76 1.04-.92 1.16-.87.65-3.05 3.05-3.05 3.05m19.13-14.08c-2.11.92-9.891 3.69-9.891 3.69m9.901-3.7c.19-.18.34-.28.47-.28s-.06.11-.47.28z" stroke-linecap="round" stroke-linejoin="round" stroke-width="5.226"/><path d="m573.41 343.48s.34-.07.92-.21c2.25-.54 7.99-2.03 10.05-3.78 2.18-1.84 4.08-5.1 5.12-6.1l-.01.01m-14.99 7.55-9.8 3.04-1.74 7.63m1.91 14.65s5.62 10.9 8.229 12.44c2.141 1.25 9.07 5.59 11.87 7.59.62.45 1.04.78 1.16.94.65.87 3.04 3.06 3.04 3.06m-14.019-19.17c.92 2.11 3.67 9.9 3.67 9.9m-3.68-9.91c-.18-.19-.279-.34-.279-.47s.109.06.279.47z" stroke-linecap="round" stroke-linejoin="round" stroke-width="5.226"/><path d="m585.18 387.24s-.069-.35-.21-.94c-.529-2.25-2-7.97-3.739-10.04-1.83-2.19-5.091-4.1-6.091-5.14 0 0 .011 0 .011.01m7.499 15.01 3.02 9.81 7.61 1.77m11.05-74.85s10.89 5.66 12.42 8.28c1.24 2.14 5.56 9.09 7.56 11.9.44.62.771 1.04.931 1.16.87.66 3.05 3.05 3.05 3.05m-19.131-14.08c2.109.92 9.89 3.7 9.89 3.7m-9.9-3.71c-.19-.18-.351-.28-.471-.28-.129 0 .061.11.471.28z" stroke-linecap="round" stroke-linejoin="round" stroke-width="5.226"/><path d="m625.24 343.26-.931-.21c-2.25-.54-7.979-2.04-10.04-3.78-2.18-1.84-4.079-5.1-5.119-6.1l.01.01m14.99 7.55 9.8 3.05 1.74 7.62m-1.91 14.65s-5.62 10.91-8.23 12.44c-2.14 1.25-9.069 5.59-11.87 7.59-.63.45-1.04.78-1.16.94-.649.88-3.039 3.06-3.039 3.06m14.019-19.17c-.92 2.11-3.67 9.9-3.67 9.9m3.68-9.91c.181-.19.28-.34.28-.47s-.11.06-.28.47z" stroke-linecap="round" stroke-linejoin="round" stroke-width="5.226"/><path d="m613.47 387.02s.07-.35.21-.94c.53-2.25 2-7.97 3.74-10.04 1.83-2.19 5.09-4.1 6.09-5.14l-.01.01m-7.5 15.01-3.02 9.81-7.61 1.77" stroke-linecap="round" stroke-linejoin="round" stroke-width="5.226"/><path d="m587.24 241.76-.08-.03-20.17-7.16s17.31-15.3 23.52-22.6c.41-.49.771-.94 1.08-1.35 1.96-2.61 6.101-9.14 6.101-9.14s10.22 17.21 13.5 21.12a777.556 777.556 0 0 0 9.149 10.67l-17.99 7.81-1.069.46m-10.771-36.8v36.8" stroke-width="3.484"/><path d="m577.77 274.53 6.091-2.39c6.1-2.4 16.01-3.49 16.01-3.49s4.79.55 9.76 1.71v.01c2.05.48 4.14 1.07 5.92 1.77l6.09 2.39 13.07-30.05-16.33 3.92-7.41-8.06-5.88 5.01-2.74-4.27-2.699-4.22-5.33 8.49-4.09-3.48-1.79-1.53-1.28 1.39-6.13 6.67-16.33-3.92z" stroke-width="5.226"/><g stroke-width="3.484"><path d="m577.99 275.4c-.59 0-12.2 9.44-12.2 9.44s.38.32 1.04.89c.71.61 1.729 1.52 2.95 2.63 2.899 2.66 6.88 6.52 10.09 10.43 2.189 2.66 4.03 5.34 4.939 7.68a41.85 41.85 0 0 1 1.921 6.4c1.149 5.38.84 9.13.84 9.13l5.5-2.13 9.88-3.82 1.46-3.15 8.03-17.29 5.92-12.74 3.33-7.18"/><path d="m566.8 285.13s32.24-2.18 34.561-2.76c2.319-.58 10.02-8.27 7.979-10.74m-7.85 168.38c-1.8-.1-11.26-.689-18.86-3.18-8.42-2.76-16.55-9.29-20.03-11.47-.699-.44-1.54-1.13-2.479-1.93-3.74-3.19-9.14-8.23-14.36-7.07-3.01.67-4.85 1.87-5.63 3.28-.92 1.64-.38 3.57 1.42 5.29 3.34 3.19 13.78 1.89 17.851-.44m42.388 15.53s-.08 0-.23-.01"/><path d="m540.24 420.14-.11-.5-2.79-13.15s3.72-3.5 9.55-3.57c.88-.01 1.811.06 2.79.23 1.16.2 2.32.61 3.48 1.15 5.56 2.63 11.04 8.56 15.2 11.74.51.4 1.01.75 1.489 1.05 2.61 1.63 6.221 3.89 11.58 5.77 5.021 1.77 11.58 3.22 20.29 3.53.141.011.29.021.44.021m-47.549-22.241s9.729-5.37 15.97-3.34m4.93 5.95s.3 7.26-6.229 8.85"/><path d="m589.17 414.33s-2.26 7.89-7.74 8.53c-.08.02-.16.02-.25.03m20.04 17.13s.09 0 .271-.01c.02 0 .05-.01.069 0 1.891-.109 11.28-.71 18.82-3.18 8.42-2.75 16.55-9.29 20.03-11.47.399-.25.85-.58 1.33-.97 3.729-2.98 9.729-9.31 15.51-8.03 3 .67 4.85 1.86 5.63 3.26.93 1.65.4 3.59-1.41 5.31-3.35 3.19-13.79 1.89-17.859-.44"/><path d="m662.77 420.14.11-.52 2.79-13.13s-4.06-3.82-10.36-3.56c-.64.03-1.3.1-1.979.22-1.62.29-3.25.96-4.87 1.87-5.31 3.01-10.44 8.59-14.32 11.4-.33.25-.659.47-.979.67-2.61 1.64-6.13 3.9-11.41 5.79-4.92 1.77-11.36 3.2-20.03 3.51a5.64 5.64 0 0 1 -.439.021m47.117-22.241s-12.57-5.81-18.811-3.78m-3.589 4.9s1.2 8.75 7.74 10.34"/><path d="m613.37 413.02s2.77 9.35 8.38 9.86c.03.01.05.01.08.01"/></g><path d="m538.12 385.74c.729.38 1.46.49 2.189.28 4.58-1.31 11.33-11.32 14.381-8.71.55.47 1.04 1.42 1.43 2.67 1.77 5.73 1.22 17.7-7.53 18.23-.57.04-1.16.06-1.78.08-5.8.19-13.63-.4-20.55-3.4-3.76-1.63-7.26-3.98-10-7.31-1.77-2.13-3.229-4.66-4.25-7.66-.41-1.2-.79-2.48-1.13-3.82-1.27-4.84-2.14-10.51-2.72-16.29-1.57-15.58-1.03-32.01-.29-35.41 1.09-5.01-.22-11.54-2.4-13.07-2.17-1.52-8.27-1.74-5.01-5.88 0 0 4.14-8.93 11.55-6.53 6.01 1.94 17.641 8.64 22.48 21.24a32.77 32.77 0 0 1 2.01 8.43c.04.41.08.83.11 1.25.26 3.73.09 7.26-.33 10.58-.61 4.84-1.771 9.21-2.971 13.08-1.109 3.65-2.26 6.86-2.989 9.58-.67 2.46-1 4.52-.681 6.17.08.39.16.79.261 1.2.6 2.56 1.609 5.57 2.869 8.27 1.521 3.25 3.4 6.04 5.341 7.02" stroke-width="6.968"/><path d="m499.16 307.85s-6.59.62-10.45 17.42c-5.01 21.77 2.17 52.26 8.92 58.57m38.33-64.23s6.53-11.98 7.84-10.89c1.22 1.03 12.66 8.21 14.021 9.06l.13.08" stroke-width="6.968"/><path d="m537.05 328.53s8.49-10.67 9.36-9.58c.74.92 8.91 9.43 11.41 12.03.449.47.72.75.72.75m-21.49 8.78s8.931-8.49 9.8-7.62c.87.87 10.23 14.37 10.23 14.37m-23.52 6.32s9.58-9.8 11.11-8.06c1.521 1.74 12.41 13.5 12.41 13.5" stroke-width="6.968"/><path d="m570.15 288.32s-.131.02-.37.04c-2.11.23-12.63 1.17-15.891-2.22-3.63-3.77 2.61-8.27 5.95-12.48 3.33-4.21 4.94-13.94 2.9-17.57-2.03-3.63-12.48-4.2-15.53-3.92-3.05.29-20.61-.87-20.61-.87s3.92 5.95 6.82 7.84-2.91 6.82-5.38 5.23c-2.46-1.6-1.45-6.1-3.48-6.1-2.029 0-8.699 5.81-4.64 9.88 4.061 4.06 14.37 7.69 18.58 4.35s9.15 2.18 7.12 3.92c-2.04 1.74-12.34.87-15.25 3.77-2.9 2.91-2.9 10.6-2.47 13.94.439 3.34 6.819 8.71 11.029 4.5s2.48-9.58 4.511-9.73c2.02-.14 3.77 4.65 7.109 7.7 3.34 3.04 11.311 4.94 14.08 4.21 2.7-.71-.16 8.44-.29 8.85l.01-.01c.471-.21 15.471-7 15.521-10.86v-.02m-70.109 60.83s15.38-1.74 19.45 3.2m-17.42 13.06s6.83-10.11 18.11-5.41c.35.14.699.3 1.05.47m-14.22 16.26s8.989-11.61 15.96-8.42m5.52 6.97s-.03 0-.09.01c0 .01-.01 0-.01 0-.9.18-7.58 1.68-9.48 8.99" stroke-width="3.484"/><path d="m690.78 360.55c1.569-15.57 1.029-31.96.29-35.36-1.09-5.01.21-11.54 2.39-13.06 2.18-1.53 8.28-1.74 5.01-5.88 0 0-4.14-8.93-11.54-6.53-6.01 1.94-17.64 8.63-22.479 21.23-.99 2.56-1.7 5.37-2.021 8.44-.04.41-.08.83-.109 1.25-.261 3.73-.09 7.26.33 10.58.619 4.83 1.779 9.21 2.97 13.08 1.12 3.65 2.26 6.86 2.99 9.58.67 2.46 1 4.52.68 6.17-.08.39-.16.79-.26 1.2a43.711 43.711 0 0 1 -2.88 8.27c-1.511 3.25-3.391 6.04-5.341 7.02-.72.37-1.46.49-2.189.28-4.57-1.31-11.32-11.33-14.37-8.71-.55.47-1.05 1.42-1.43 2.67-1.771 5.73-1.221 17.7 7.529 18.23 1.46.09 3.101.13 4.851.1 4.609-.09 10.01-.72 15.1-2.51 4.66-1.62 9.061-4.21 12.38-8.22 1.761-2.13 3.221-4.66 4.25-7.66.41-1.2.79-2.48 1.13-3.82 1.269-4.86 2.139-10.54 2.719-16.35z" stroke-width="6.968"/><path d="m699.78 308.64s6.58.63 10.45 17.42c5.01 21.78-2.181 52.26-8.931 58.58m-38.319-64.24s-6.54-11.97-7.841-10.89c-1.31 1.09-14.159 9.15-14.159 9.15" stroke-width="6.968"/><path d="m661.89 329.33s-8.489-10.67-9.37-9.58c-.739.93-9.64 10.24-12.26 12.97l-.72.75m22.35 7.84s-8.93-8.5-9.8-7.62c-.87.87-11.1 14.3-11.1 14.3m24.38 6.38s-9.58-9.8-11.101-8.06c-1.43 1.64-12.619 13.42-14.01 14.88-.09.1-.14.15-.14.15" stroke-width="6.968"/><path d="m618.13 282.73s.08.05.23.14c2.22 1.35 19.83 11.68 26.689 4.07 3.5-3.89-2.62-8.27-5.95-12.48-3.34-4.21-4.939-13.94-2.909-17.57 2.04-3.63 12.489-4.21 15.54-3.92 3.05.29 20.609-.87 20.609-.87s-3.93 5.95-6.83 7.84c-2.89 1.89 2.92 6.82 5.38 5.23 2.46-1.6 1.46-6.1 3.48-6.1 2.03 0 8.71 5.81 4.64 9.87-4.06 4.06-14.359 7.7-18.569 4.36s-9.15 2.17-7.12 3.92c2.029 1.74 12.34.87 15.239 3.77 2.91 2.9 2.91 10.6 2.471 13.94-.431 3.33-6.82 8.71-11.03 4.5-4.21-4.22-2.47-9.58-4.5-9.73s-3.77 4.64-7.11 7.69-11.319 4.94-14.08 4.21a.74.74 0 0 0 -.199-.03c-2.36-.2.35 8.49.479 8.89l-.01-.01c-.561-.29-20.44-10.57-22.14-14.84-.08-.19-.12-.37-.12-.54m76.85 65.33s-15.37-1.74-19.439 3.19m17.419 13.07s-6.83-10.12-18.12-5.41c-.34.14-.7.3-1.05.47m14.23 16.26s-9-11.61-15.97-8.42m-5.52 6.97s.03 0 .09.01c.83.16 7.591 1.64 9.49 8.99" stroke-width="3.484"/><path d="m634.02 299.79c-.05.55-.01 1.14.091 1.78.46 3.08 2.13 7.04.199 10.41" stroke-width="3.484"/><path d="m274.96 331.72h-105.76m-1.71-186.59h286.45v186.59h-178.98" stroke-width="10.316"/><path d="m454.84 221.33h-121.83v-78.33m-48.41.98v78.34h-118.62m0 36.62h120.58v72.7m46.45-1.97v-69.75h120.84" stroke-width="3.439"/><path d="m269.86 143v64.58h-103.88m288.86-.98h-107.1v-63.6m-182.74 129.69h107.81v57.97m74.93 0v-56.01h106.11m-259.38-128.7 74.67 56m-101.65-56.82 84.95 61.73m-85.48-49.12 67.8 49.12m-67.8-40.28 56.01 40.28m125.76-6.88 82.53-54.03m-78.6 59.93 90.39-59.93" stroke-width="3.439"/><path d="m367.39 206.86.4-.26 86.15-57.43 1.88-1.26m-64.85 57.97 62.88-39.3m-269.2 163.09 87.5-51.43m-106.17 50.45 1.12-.64 95.17-54.38m8.84 12.77-77.62 45.2m-26.53-18.67 69.76-40.28m217.22 59.03-88.51-56.08m-17.69 5.89 80.57 49.13m-45.2-55.02 70.74 46.17m-56.98-46.17 56.98 36.35" stroke-width="3.439"/></g><path d="m0 0h850.394v850.394h-850.394z" fill="none"/></svg>