<svg height="850.89" viewBox="0 0 850.89 850.89" width="850.89" xmlns="http://www.w3.org/2000/svg"><path d="m329.26 216.84c-3.04 1.01-2.24-2.75-4.45-2.76.34 3.19-3.21 1.53-3.34 4.14 1.73.36.78 3.03 0 4.15 3.57-1.21 2.31 3.58 4.45 4.14-.97-4.43 2.88-2.86 3.34-5.52-1.73-.36-.78-3.03 0-4.15zm-32.24 42.84c-4.15 11.54-23.35 25.78-7.78 37.31 19.47-8.84 48.47 11.47 56.69-12.43-5.35-8.56-10.41-17.46-16.67-24.88-1.59 3.56-2.61 7.82-6.67 8.29-2.84-7.07-5.36-14.53-8.9-20.73-3.14 7.61-5.88 15.72-10 22.11-1.38-4.27-3.67-7.41-6.67-9.67zm17.79-16.58c-.15-2.48 1.1-3.24 3.33-2.77-.12-3.43-2.08-4.27 0-6.91-1.31-.21-3.16.24-3.33-1.38-.07-.84-.17-1.63-1.12-1.38.48 3.82-4.14 1.3-4.44 4.15 3.72 1.24.97 3.09 0 5.52 3.54-1.18 3.44 2.18 5.56 2.77zm11.11 58.04c6.19-.09 14.56 7.71 15.56-2.77-18.73.16-35.84.39-54.46 0 .86 10.88 10.56 2.56 16.67 2.77 8.39.29 14.63.11 22.23 0zm-22.23-76.01c-1.73-4.91 3.77-.83 3.33-4.14-1.73-.36-.77-3.03 0-4.15-4.2 2-2.13-3.8-5.55-2.76 1.72 4.91-3.78.83-3.34 4.14 1.73.36.77 3.03 0 4.15 4.2-2 2.13 3.8 5.56 2.76zm52.25-4.08c.09 15.88-.8 30.54-1.87 44.98 0 .02-.01.03-.01.05-.04.6-.09 1.2-.13 1.79-.07.96-.15 1.91-.22 2.87h387.94v115.51h-569.13v-115.51h101.16c0-17.97-1.89-33.59-2.23-51.13 21.74-15.32 62.91-15.79 84.48 0 0 .48.01.96.01 1.44zm-20.02 85.62c-14.84-2.19-28.5-2.19-43.35 0 8.23 21.78 34.81 20.4 43.35 0z" fill="#394ea1"/><path d="m354.06 266.08c0-.02.01-.03.01-.05-.05.61-.09 1.23-.14 1.84.04-.59.09-1.19.13-1.79z" fill="#394ea1"/><path d="m271.45 219.61c.34 17.54 2.23 33.16 2.23 51.13h-101.16v115.51h-2.39v-233.71c-.09-1.97-.18-3.92 1.13-4.15h577.17v237.86h-6.779v-115.51h-387.94c.07-.96.15-1.91.22-2.87.05-.61.09-1.23.14-1.84 2.14-9.64 2.13-17.69 1.87-44.98 0-.48-.01-.96-.01-1.44-21.571-15.79-62.741-15.32-84.481 0z" fill="#fff"/><path d="m355.94 221.05c.26 27.29.27 35.34-1.87 44.98 1.07-14.44 1.96-29.1 1.87-44.98z" fill="#fff"/><path d="m172.52 386.25h569.13v120.79h-569.13z" fill="#ed1e29"/><path d="m171.26 148.39c-1.31.23-1.22 2.18-1.13 4.15v233.71h-2.55l-2.26-245.66h583.11v7.8zm-2.45 372.03-1.23-134.17h2.55v121.44h578.3v12.729h-579.62z" fill="#fff"/><path d="m172.52 507.04h569.13v-120.79h6.779v121.44h-578.3v-121.44h2.39z" fill="#fff"/><path d="m162.86 114.67v670.96h-39.49l-1.12-670.61c5.8 2.59 12.62 4.08 19.92 4.08 7.62 0 14.73-1.63 20.69-4.43z" fill="#c8c8c8"/><path d="m321.47 222.37c.78-1.12 1.73-3.79 0-4.15.13-2.61 3.68-.95 3.34-4.14 2.21.01 1.41 3.77 4.45 2.76-.78 1.12-1.73 3.79 0 4.15-.46 2.66-4.31 1.09-3.34 5.52-2.14-.56-.88-5.35-4.45-4.14z" fill="#fbed24"/><path d="m335.92 306.67c-8.54 20.4-35.12 21.78-43.35 0 14.85-2.19 28.51-2.19 43.35 0z" fill="#fff"/><path d="m313.69 230.66c.95-.25 1.05.54 1.12 1.38.17 1.62 2.02 1.17 3.33 1.38-2.08 2.64-.12 3.48 0 6.91-2.23-.47-3.48.29-3.33 2.77-2.12-.59-2.02-3.95-5.56-2.77.97-2.43 3.72-4.28 0-5.52.3-2.85 4.92-.33 4.44-4.15zm-15.56-12.44c-.44-3.31 5.06.77 3.34-4.14 3.42-1.04 1.35 4.76 5.55 2.76-.77 1.12-1.73 3.79 0 4.15.44 3.31-5.06-.77-3.33 4.14-3.43 1.04-1.36-4.76-5.56-2.76.77-1.12 1.73-3.79 0-4.15z" fill="#fbed24"/><path d="m297.02 259.68c3 2.26 5.29 5.4 6.67 9.67 4.12-6.39 6.86-14.5 10-22.11 3.54 6.2 6.06 13.66 8.9 20.73 4.06-.47 5.08-4.73 6.67-8.29 6.26 7.42 11.32 16.32 16.67 24.88-8.22 23.9-37.22 3.59-56.69 12.43-15.57-11.53 3.63-25.77 7.78-37.31zm6.67 41.46c-6.11-.21-15.81 8.11-16.67-2.77 18.62.39 35.73.16 54.46 0-1 10.48-9.37 2.68-15.56 2.77-7.6.11-13.84.29-22.23 0z" fill="#fff"/><path d="m162.86 114.67c-5.96 2.8-13.07 4.43-20.69 4.43-7.3 0-14.12-1.49-19.92-4.08-10.99-4.89-18.33-13.72-18.33-23.8 0-15.4 17.13-27.88 38.25-27.88 21.13 0 38.26 12.48 38.26 27.88 0 9.84-7 18.49-17.57 23.45z" fill="#c8c8c8"/><g fill="none"><g><g stroke="#231f20"><path d="m165.32 140.59h583.11v379.83h-579.62m-46.56-405.4c-10.99-4.89-18.33-13.72-18.33-23.8 0-15.4 17.13-27.88 38.25-27.88 21.13 0 38.26 12.48 38.26 27.88 0 9.84-7 18.49-17.57 23.45-5.96 2.8-13.07 4.43-20.69 4.43-7.3 0-14.12-1.49-19.92-4.08z" stroke-width="21"/><path d="m122.25 114.25v.77l1.12 670.61m39.49-672.78v672.78" stroke-width="21"/><path d="m745.01 179.64 3.42-1.93 2.01-1.14" stroke-width="14"/><path d="m170.13 386.25v-233.71c-.09-1.97-.18-3.92 1.13-4.15h580.441v359.3h-581.571z" stroke-width="3"/><path d="m353.93 267.87c.05-.61.09-1.23.14-1.84 1.07-14.44 1.96-29.1 1.87-44.98" stroke-width="7"/><path d="m354.06 266.08c-.04.6-.09 1.2-.13 1.79-.07.96-.15 1.91-.22 2.87h387.94v236.3h-569.13v-120.79-115.51h95.73" stroke-width="7"/></g><path d="m268.25 270.74h5.43c0-17.97-1.89-33.59-2.23-51.13 21.74-15.32 62.91-15.79 84.48 0 0 .48.01.96.01 1.44.26 27.29.27 35.34-1.87 44.98 0 .02-.01.03-.01.05" stroke="#ed1e29" stroke-width="9"/><path d="m298.13 218.22c-.44-3.31 5.06.77 3.34-4.14 3.42-1.04 1.35 4.76 5.55 2.76-.77 1.12-1.73 3.79 0 4.15.44 3.31-5.06-.77-3.33 4.14-3.43 1.04-1.36-4.76-5.56-2.76.77-1.12 1.73-3.79 0-4.15zm26.68-4.14c2.21.01 1.41 3.77 4.45 2.76-.78 1.12-1.73 3.79 0 4.15-.46 2.66-4.31 1.09-3.34 5.52-2.14-.56-.88-5.35-4.45-4.14.78-1.12 1.73-3.79 0-4.15.13-2.61 3.68-.95 3.34-4.14zm-15.56 20.73c.3-2.85 4.92-.33 4.44-4.15.95-.25 1.05.54 1.12 1.38.17 1.62 2.02 1.17 3.33 1.38-2.08 2.64-.12 3.48 0 6.91-2.23-.47-3.48.29-3.33 2.77-2.12-.59-2.02-3.95-5.56-2.77.97-2.43 3.72-4.28 0-5.52zm-5.56 34.54c4.12-6.39 6.86-14.5 10-22.11 3.54 6.2 6.06 13.66 8.9 20.73 4.06-.47 5.08-4.73 6.67-8.29 6.26 7.42 11.32 16.32 16.67 24.88-8.22 23.9-37.22 3.59-56.69 12.43-15.57-11.53 3.63-25.77 7.78-37.31 3 2.26 5.29 5.4 6.67 9.67z" stroke="#231f20" stroke-width="2"/><path d="m341.48 298.37c-1 10.48-9.37 2.68-15.56 2.77-7.6.11-13.84.29-22.23 0-6.11-.21-15.81 8.11-16.67-2.77 18.62.39 35.73.16 54.46 0z" stroke="#231f20" stroke-width="3"/><path d="m335.92 306.67c-8.54 20.4-35.12 21.78-43.35 0 14.85-2.19 28.51-2.19 43.35 0z" stroke="#231f20" stroke-width="2"/><path d="m166.25 386.25h584" stroke="#231f20" stroke-width="14"/></g><path d="m166.25 268.25 102-2m88 0 392 2" stroke="#231f20" stroke-width="14"/><path d="m272.25 256.25c0 42.008 18.785 76 42 76m0 0c36-14 38-52 42-82" stroke="#ed1e29" stroke-width="9"/></g></svg>