<svg height="850.394" viewBox="0 0 850.394 850.394" width="850.394" xmlns="http://www.w3.org/2000/svg"><path d="m162.61 114.42v670.96h-39.49l-1.12-670.61c5.8 2.59 12.62 4.08 19.92 4.08 7.62 0 14.73-1.63 20.69-4.43z" fill="#c8c8c8"/><path d="m246.91 268.13.43-1.91a27.73 27.73 0 0 0 14.69 4.75l-.03 1.21-3.79 6.83c-4.06-.54-7.9-1.74-11.42-3.5zm45.27-26.13 7.02 3.9c-.31 4-1.27 7.8-2.77 11.33l-8.3-.14-.7-.4c2.28-4.05 3.57-8.72 3.57-13.69 0-.33-.01-.65-.03-.97z" fill="#394ea1"/><path d="m262 272.18.03-1.21c.32.02.64.03.97.03 4.97 0 9.64-1.29 13.69-3.57l.4.7.14 8.3c-3.53 1.5-7.33 2.46-11.33 2.77zm-15.09-56.31-.09-5.4c3.81-1.9 8-3.14 12.43-3.6l2.75 4.95.09 3.21c-4.98.14-9.62 1.6-13.61 4.02z" fill="#394ea1"/><path d="m262.03 270.97a27.73 27.73 0 0 1 -14.69-4.75c-3.72-2.52-6.81-5.9-8.96-9.87-2.16-3.96-3.38-8.51-3.38-13.35 0-.31 0-.61.03-.91.14-4.98 1.6-9.62 4.02-13.61 2.34-3.85 5.58-7.09 9.43-9.43 3.99-2.42 8.63-3.88 13.61-4.02.3-.03.6-.03.91-.03 9.67 0 18.19 4.89 23.22 12.34 2.85 4.22 4.58 9.25 4.75 14.69.02.32.03.64.03.97 0 4.97-1.29 9.64-3.57 13.69a28.124 28.124 0 0 1 -10.74 10.74 27.813 27.813 0 0 1 -13.69 3.57c-.33 0-.65-.01-.97-.03z" fill="#fbed24"/><path d="m231.82 242 3.21.09c-.03.3-.03.6-.03.91 0 4.84 1.22 9.39 3.38 13.35l-2.51.74-6.32.1a36.115 36.115 0 0 1 -2.82-12.36zm16.66-22.95a28.162 28.162 0 0 0 -9.43 9.43l-3.18-1.57-2.74-4.57c2.49-3.6 5.61-6.72 9.21-9.21l4.57 2.74z" fill="#394ea1"/><path d="m246.91 268.13-6.07 3.64c-3.27-2.51-6.1-5.58-8.35-9.05l3.38-5.63 2.51-.74c2.15 3.97 5.24 7.35 8.96 9.87zm41.22-41.22 7.38-.12c1.76 3.52 2.96 7.36 3.5 11.42l-6.83 3.79-1.21.03c-.17-5.44-1.9-10.47-4.75-14.69zm-49.08 1.57a27.667 27.667 0 0 0 -4.02 13.61l-3.21-.09-4.95-2.75c.46-4.43 1.7-8.62 3.6-12.43l5.4.09zm49.08 28.61 4.31 7.18c-2.27 3.14-5.03 5.9-8.17 8.17l-7.18-4.31-.4-.7c4.49-2.52 8.22-6.25 10.74-10.74zm-25.13-42.09c-.31 0-.61 0-.91.03l-.09-3.21 2.83-5.09c4.37.21 8.53 1.2 12.36 2.82l-.1 6.32 5.63-3.38c3.47 2.25 6.54 5.08 9.05 8.35l-3.64 6.07-1.91.43c-5.03-7.45-13.55-12.34-23.22-12.34z" fill="#394ea1"/><path d="m748.18 230v290.17h-472.18v-2.17l472-288z" fill="#58b947"/><path d="m748.18 197.12v32.88h-.18l-472 288v2.17h-46v-4.17z" fill="#fff"/><path d="m748.18 177.46v19.66l-518.18 318.88v4.17h-61.44l-.63-68.17h.07l520-308v-3.66h60.18z" fill="#ed1e29"/><path d="m688 140.34v3.66l-520 308h-.07l-.26-28.99 472.33-281.01v-1.66z" fill="#fff"/><path d="m640 140.34v1.66l-472.33 281.01-2.6-282.67zm-340.99 97.87 21.29-11.83-24.79.41a35.87 35.87 0 0 0 -3.74-5.95l12.91-21.52-21.96 13.17c-1.75-1.13-3.6-2.11-5.53-2.94l.43-25.85-12.79 23.03a35.664 35.664 0 0 0 -5.58.14l-12.87-23.17.44 26.77c-1.56.78-3.06 1.67-4.48 2.66l-23.02-13.81 13.81 23.02c-.99 1.42-1.88 2.92-2.66 4.48l-26.77-.44 23.17 12.87a35.664 35.664 0 0 0 -.14 5.58l-23.03 12.79 25.85-.43c.83 1.93 1.81 3.78 2.94 5.53l-13.17 21.96 21.52-12.91a35.87 35.87 0 0 0 5.95 3.74l-.41 24.79 11.83-21.29c1.57.2 3.17.31 4.79.31.98 0 1.95-.04 2.9-.12l11.72 21.1-.39-23.87c2.5-1.07 4.87-2.41 7.04-3.99l20.41 12.24-12.24-20.41c1.58-2.17 2.92-4.54 3.99-7.04l23.87.39-21.1-11.72c.08-.95.12-1.92.12-2.9 0-1.62-.11-3.22-.31-4.79z" fill="#394ea1"/><path d="m320.3 226.38-21.29 11.83c-.54-4.06-1.74-7.9-3.5-11.42zm0 31.24-23.87-.39c1.5-3.53 2.46-7.33 2.77-11.33zm-15.62-58.3-12.91 21.52c-2.51-3.27-5.58-6.1-9.05-8.35zm-12.24 64.95 12.24 20.41-20.41-12.24c3.14-2.27 5.9-5.03 8.17-8.17z" fill="#fbed24"/><path d="m299.32 243c0 .98-.04 1.95-.12 2.9l-7.02-3.9 6.83-3.79c.2 1.57.31 3.17.31 4.79zm-11.19 14.09 8.3.14c-1.07 2.5-2.41 4.87-3.99 7.04zm7.38-30.3-7.38.12 3.64-6.07a35.87 35.87 0 0 1 3.74 5.95zm-18.42 41.34 7.18 4.31a36.108 36.108 0 0 1 -7.04 3.99zm5.63-55.64-5.63 3.38.1-6.32c1.93.83 3.78 1.81 5.53 2.94z" fill="#394ea1"/><path d="m277.62 183.7-.43 25.85a36.115 36.115 0 0 0 -12.36-2.82zm-.39 92.73.39 23.87-11.72-21.1c4-.31 7.8-1.27 11.33-2.77z" fill="#fbed24"/><path d="m262 272.18 3.9 7.02c-.95.08-1.92.12-2.9.12-1.62 0-3.22-.11-4.79-.31zm2.83-65.45-2.83 5.09-2.75-4.95a35.664 35.664 0 0 1 5.58-.14z" fill="#394ea1"/><path d="m246.38 183.7 12.87 23.17c-4.43.46-8.62 1.7-12.43 3.6zm11.83 95.31-11.83 21.29.41-24.79c3.52 1.76 7.36 2.96 11.42 3.5z" fill="#fbed24"/><path d="m246.82 210.47.09 5.4-4.57-2.74c1.42-.99 2.92-1.88 4.48-2.66zm.09 57.66-.12 7.38a35.87 35.87 0 0 1 -5.95-3.74z" fill="#394ea1"/><path d="m219.32 199.32 23.02 13.81c-3.6 2.49-6.72 5.61-9.21 9.21zm21.52 72.45-21.52 12.91 13.17-21.96c2.25 3.47 5.08 6.54 8.35 9.05z" fill="#fbed24"/><path d="m233.13 222.34 2.74 4.57-5.4-.09c.78-1.56 1.67-3.06 2.66-4.48zm2.74 34.75-3.38 5.63c-1.13-1.75-2.11-3.6-2.94-5.53zm-4.05-15.09-5.09 2.83a35.664 35.664 0 0 1 .14-5.58z" fill="#394ea1"/><path d="m203.7 226.38 26.77.44c-1.9 3.81-3.14 8-3.6 12.43zm25.85 30.81-25.85.43 23.03-12.79c.21 4.37 1.2 8.53 2.82 12.36z" fill="#fbed24"/><path d="m162.61 114.42c-5.96 2.8-13.07 4.43-20.69 4.43-7.3 0-14.12-1.49-19.92-4.08-10.99-4.89-18.33-13.72-18.33-23.8 0-15.4 17.13-27.88 38.25-27.88 21.13 0 38.26 12.48 38.26 27.88 0 9.84-7 18.49-17.57 23.45z" fill="#c8c8c8"/><g fill="none"><g stroke="#231f20"><path d="m165.07 140.34h583.11v379.83h-579.62m-46.56-405.4c-10.99-4.89-18.33-13.72-18.33-23.8 0-15.4 17.13-27.88 38.25-27.88 21.13 0 38.26 12.48 38.26 27.88 0 9.84-7 18.49-17.57 23.45-5.96 2.8-13.07 4.43-20.69 4.43-7.3 0-14.12-1.49-19.92-4.08z" stroke-width="21"/><path d="m122 114v.77l1.12 670.61m39.49-672.78v672.78" stroke-width="21"/><path d="m744.76 179.39 3.42-1.93 2.01-1.14m-582.19 275.68 520-308m-458 372 518.18-318.88 1.82-1.12m-584 228 1.67-.99 472.33-281.01m-364 376 472-288" stroke-width="14"/><g stroke-width="5"><path d="m246.82 210.47-.44-26.77 12.87 23.17m-26.12 15.47-13.81-23.02 23.02 13.81m-15.47 26.12-23.17-12.87 26.77.44m-.92 30.37-25.85.43 23.03-12.79m14.11 26.94-21.52 12.91 13.17-21.96m25.72 16.29-11.83 21.29.41-24.79m30.44.92.39 23.87-11.72-21.1m26.54-14.93 12.24 20.41-20.41-12.24m14.93-26.54 21.1 11.72-23.87-.39m-.92-30.44 24.79-.41-21.29 11.83m-16.29-25.72 21.96-13.17-12.91 21.52m-26.94-14.11 12.79-23.03-.43 25.85"/><path d="m299.01 238.21c.2 1.57.31 3.17.31 4.79 0 .98-.04 1.95-.12 2.9-.31 4-1.27 7.8-2.77 11.33-1.07 2.5-2.41 4.87-3.99 7.04-2.27 3.14-5.03 5.9-8.17 8.17a36.108 36.108 0 0 1 -7.04 3.99c-3.53 1.5-7.33 2.46-11.33 2.77-.95.08-1.92.12-2.9.12-1.62 0-3.22-.11-4.79-.31-4.06-.54-7.9-1.74-11.42-3.5a35.87 35.87 0 0 1 -5.95-3.74c-3.27-2.51-6.1-5.58-8.35-9.05-1.13-1.75-2.11-3.6-2.94-5.53a36.115 36.115 0 0 1 -2.82-12.36 35.664 35.664 0 0 1 .14-5.58c.46-4.43 1.7-8.62 3.6-12.43.78-1.56 1.67-3.06 2.66-4.48 2.49-3.6 5.61-6.72 9.21-9.21 1.42-.99 2.92-1.88 4.48-2.66a36.17 36.17 0 0 1 18.01-3.74c4.37.21 8.53 1.2 12.36 2.82 1.93.83 3.78 1.81 5.53 2.94 3.47 2.25 6.54 5.08 9.05 8.35a35.87 35.87 0 0 1 3.74 5.95c1.76 3.52 2.96 7.36 3.5 11.42z"/><path d="m290.97 242.03c.02.32.03.64.03.97 0 4.97-1.29 9.64-3.57 13.69a28.124 28.124 0 0 1 -10.74 10.74 27.813 27.813 0 0 1 -13.69 3.57c-.33 0-.65-.01-.97-.03a27.73 27.73 0 0 1 -14.69-4.75c-3.72-2.52-6.81-5.9-8.96-9.87-2.16-3.96-3.38-8.51-3.38-13.35 0-.31 0-.61.03-.91.14-4.98 1.6-9.62 4.02-13.61 2.34-3.85 5.58-7.09 9.43-9.43 3.99-2.42 8.63-3.88 13.61-4.02.3-.03.6-.03.91-.03 9.67 0 18.19 4.89 23.22 12.34 2.85 4.22 4.58 9.25 4.75 14.69z"/></g></g><path d="m0 0h850.394v850.394h-850.394z"/></g></svg>