<svg height="850.394" viewBox="0 0 850.394 850.394" width="850.394" xmlns="http://www.w3.org/2000/svg"><path d="m760.53 150.56 1.63 404.02-53.44 9.14v-415.91zm-51.81-2.75v415.91l-199.65 34.16-102.92 17.61h-.03l-194.6 33.3v-527.4zm-29.64 382.33v-346.99l-433.34-21.18v436.6z" fill="#787878"/><path d="m679.08 183.15v346.99l-433.34 68.43v-436.6z" fill="#c8c8c8"/><path d="m662.29 667.5c2.18 24.75-93.58 53.43-213.89 64.07-120.32 10.64-219.61-.81-221.8-25.57v-25.04l.31-.07c6.52 23.57 103.98 34.24 221.49 23.851 117.659-10.4 211.84-38.061 213.89-62.431z" fill="#787878"/><path d="m662.29 640.67c.05.55.05 1.09 0 1.64-2.05 24.37-96.23 52.03-213.89 62.431-117.51 10.39-214.97-.28-221.49-23.851-.16-.56-.26-1.13-.31-1.71-2.03-22.93 80-49.22 187.73-61.42 10.46 7.021 7.73 28.431 14.95 35.66 8.67 8.67 25.989 8.68 26.069 8.68 15.2 0 33.67-6.52 33.67-22.81 0-8.44 5.391-19.26 10.57-27.71 92.141-2.82 160.881 8.55 162.701 29.09z" fill="#787878"/><path d="m406.15 615.49 102.92-17.61s-4.65 5.83-9.48 13.7c-18.85.57-38.68 1.729-59.109 3.54-8.86.78-17.59 1.66-26.15 2.64-2.121-1.43-4.781-2.27-8.181-2.27z" fill="#fff"/><path d="m499.59 611.58c-5.18 8.45-10.57 19.27-10.57 27.71 0 16.29-18.47 22.81-33.67 22.81-.08 0-17.399-.01-26.069-8.68-7.22-7.229-4.49-28.64-14.95-35.66 8.56-.979 17.29-1.859 26.15-2.64 20.429-1.81 40.259-2.97 59.109-3.54zm-288.07-490.19v527.4l-125.43 21.46v-555.53z" fill="#787878"/><g fill="none"><g stroke="#000" stroke-width="19.549"><path d="m211.52 121.39v527.4m497.2-500.98v415.92m-29.64-380.58-433.34-21.18v436.6l433.34-68.43zm-264.75 434.61c-107.73 12.2-189.76 38.49-187.73 61.42.05.58.15 1.15.31 1.71 6.52 23.57 103.98 34.24 221.49 23.851 117.659-10.4 211.84-38.061 213.89-62.431.05-.55.05-1.09 0-1.64-1.82-20.54-70.56-31.91-162.7-29.09"/><path d="m662.29 641.95v25.549c2.18 24.75-93.58 53.43-213.89 64.07-120.32 10.641-219.61-.809-221.8-25.569v-25.04m282.47-83.08 199.65-34.16 53.44-9.14-1.63-404.02-51.81-2.75-497.2-26.42-125.43-6.67v555.53l125.43-21.46"/><path d="m211.52 648.79 194.6-33.3h.03c3.4 0 6.06.84 8.18 2.27 10.46 7.021 7.73 28.431 14.95 35.66 8.67 8.67 25.989 8.68 26.069 8.68 15.2 0 33.67-6.52 33.67-22.81 0-8.44 5.391-19.26 10.57-27.71 4.83-7.87 9.48-13.7 9.48-13.7l-102.92 17.61z"/></g><path d="m0 0h850.394v850.394h-850.394z"/></g></svg>