<svg height="850.394" viewBox="0 0 850.394 850.394" width="850.394" xmlns="http://www.w3.org/2000/svg"><path d="m409.31 573.48c27.97 41.17 25.49 92.8-3.73 122.369l-.01-.01c-38.74 18.851-87.53 2.4-116.35-40.02-27.31-40.2-27.93-94.351 5.67-124.24l-.01-.021c38.15-15.748 86.64 1.012 114.43 41.922zm-57.48 53.11c4.82-3.109 5.52-10.63 1.55-16.78-3.96-6.149-11.09-8.63-15.91-5.52-4.83 3.11-5.52 10.63-1.55 16.78 3.96 6.15 11.09 8.63 15.91 5.52z" fill="#c8c8c8"/><g fill="#787878"><path d="m394.35 705.21c-39.47 26.82-96.77 11.33-127.98-34.61-31.22-45.949-24.52-104.909 14.96-131.739 4.32-2.94 8.86-5.36 13.55-7.301l.01.021c-33.6 29.89-32.98 84.04-5.67 124.24 28.82 42.42 77.61 58.87 116.35 40.02l.01.01a74.417 74.417 0 0 1 -11.23 9.359z"/><path d="m447.86 764.51c58.52-43.76 81.04-136.8 48.199-219.22-38.149-95.81-135.14-147.15-216.629-114.7-57.19 22.78-91.54 80.79-93.75 146.49.22-86.021 50.98-148.8 119.05-174.61 3.86-1.47 7.77-2.81 11.74-4.03 18.42-3.34 43.99-7.44 65.05-8.83.22-.01.43-.03.65-.04 13.55.41 26.76 2.26 39.5 5.42 25.97 7.6 51 21.47 67 31.45.15.09.3.189.45.29 3.85 2.819 7.59 5.779 11.229 8.89 10.5 9.54 22.53 23.13 32.931 35.649 25.32 34.931 40.36 78.561 40.36 125.891 0 3.39-.08 6.77-.25 10.12-.149 3.1-.37 6.18-.659 9.25-3.58 38.95-17.5 75.42-34.171 107.609-15.38 29.681-55.399 44.641-55.399 44.641l-43.8-5.271z"/><path d="m185.68 577.08c2.21-65.7 36.56-123.71 93.75-146.49 81.49-32.45 178.48 18.891 216.629 114.7 32.841 82.42 10.32 175.46-48.199 219.22l-8.5-1-1.29-.16-48.25-5.699s-90.96-29.931-117.3-37.141c-29.63-8.109-72.5-60.25-72.5-60.25l.97 2.57c-11.38-28.56-16.24-57.85-15.31-85.75zm219.9 118.77c29.22-29.569 31.7-81.199 3.73-122.369-27.79-40.91-76.28-57.671-114.43-41.921a74.924 74.924 0 0 0 -13.55 7.301c-39.48 26.83-46.18 85.79-14.96 131.739 31.21 45.94 88.51 61.431 127.98 34.61 4.1-2.79 7.85-5.92 11.23-9.36z"/></g><path d="m663.62 644.77-.3 3.83-62.48 62.48c-16.18-16.18-27.66-91.58-28.109-94.55.289-3.07.51-6.15.659-9.25.53.85 12.88 19.24 90.23 37.49z"/><path d="m545.41 456.67c21.89 51.28 39.51 101.74 39.51 101.74l185.07 42.63.01.96-9.66 65.69c-13.64-3.08-43.2-11.351-82.28-19.681-5.05-1.08-9.859-2.16-14.439-3.24-77.351-18.25-89.7-36.64-90.23-37.489.17-3.351.25-6.73.25-10.12 0-47.33-15.04-90.96-40.359-125.891 14.229 17.16 25.41 32.32 25.41 32.32s-.002-14.679-13.282-46.919z" fill="#787878"/><path d="m190.61 347.35 7.92 50.75-78.09 21.05v-51.28h-24.21l-1.1-3.02 49.76-23.06c-.63 2.32-1.3 4.85-2 7.61l38.85 5.65c2.48-2.48 5.51-5.08 8.86-7.71z"/><path d="m239.21 245.42.98 3.52c-45.57 16.27-80.55 52.18-80.55 52.18v-101.68s2.31-5.41 7.94-13.56l71.63 9.14z" fill="#f73900"/><path d="m240.19 248.94-.98-3.52v-50.4l-71.63-9.14c14.96-21.69 53.43-62.8 134.41-73.09 111.4-14.15 462.98-31.83 462.98-31.83l5.021 520.08-185.07-42.63s-17.62-50.46-39.51-101.74c-.03-.06-.05-.13-.08-.189-2-4.851-4.29-10.11-6.79-15.61-18.66-41.97-39.29-81.03-54.41-89.35-31.229-17.18-197.51-31.59-236.05-34.73-.12-.01-.22-.02-.31-.03-.12-.01-.21-.02-.27-.02-.06-.01-.09-.01-.09-.01l-.01.01c-4.69-.39-7.3-.59-7.3-.59s-30.18 16.05-49.5 31.19c-3.35 2.63-6.38 5.23-8.86 7.71l-38.85-5.65c.7-2.76 1.37-5.29 2-7.61h.01c6.63-24.21 9.91-25.95 14.74-40.67-.001-.001 34.979-35.911 80.549-52.181z" fill="#00e800"/><path d="m545.41 456.67c13.28 32.24 13.28 46.92 13.28 46.92s-11.181-15.16-25.41-32.32c-9.59-13.22-20.65-25.199-32.931-35.649-4.029-3.66-7.83-6.72-11.229-8.89-20.07-14.75-42.88-25.67-67.45-31.74-13.29-3.9-26.81-6.16-39.5-5.42-1.93-.06-3.86-.09-5.8-.09-20.66 0-40.85 3.08-59.9 8.96-13.82 2.49-23.61 4.57-24.46 4.75h-.02c-30.05 2.61-87.54 11.49-90.67 11.97l-.13.02-2.66-17.08-7.92-50.75 56.79-30.61c.03-.01.07 0 .1 0 .09.01.18.01.27.02s.19.02.31.03c13.38 1.29 223.05 21.73 240.17 38.85 15.03 15.03 36.1 54 50.29 85.23 2.29 5.18 4.56 10.399 6.79 15.61.03.059.05.129.08.189z" fill="#231f20"/><path d="m538.54 440.87c2.5 5.5 4.79 10.76 6.79 15.61-2.23-5.21-4.5-10.43-6.79-15.61zm-5.26 30.4c-10.4-12.52-22.431-26.109-32.931-35.649 12.281 10.449 23.341 22.429 32.931 35.649zm-44.16-44.54c-.15-.101-.3-.2-.45-.29-16-9.98-41.03-23.851-67-31.45 24.57 6.07 47.38 16.99 67.45 31.74zm-106.95-37.16c-.22.01-.43.03-.65.04-21.06 1.39-46.63 5.49-65.05 8.83 19.05-5.88 39.24-8.96 59.9-8.96 1.94 0 3.87.03 5.8.09zm-90.18 13.62c-.03.01-.04.01-.04.01l-90.63 11.96c3.13-.48 60.62-9.36 90.67-11.97zm-44.22-86.43c-.09-.01-.18-.01-.27-.02.06 0 .15.01.27.02zm-.27-.02c-.03 0-.07-.01-.1 0l.01-.01s.03 0 .09.01z" fill="#231f20"/><g fill="none" stroke="#231f20"><g stroke-width="21.22"><path d="m316.47 398.44c-3.97 1.22-7.88 2.56-11.74 4.03-68.07 25.81-118.83 88.589-119.05 174.61v.56m235.99-182.65a187.452 187.452 0 0 0 -39.5-5.42m118.18 46.05c-3.64-3.11-7.38-6.07-11.229-8.89m-49.761 336.78 43.8 5.271s40.02-14.96 55.399-44.641c16.671-32.19 30.591-68.66 34.171-107.61.289-3.07.51-6.15.659-9.25.17-3.351.25-6.73.25-10.12 0-47.33-15.04-90.96-40.359-125.891m-238.4 60.291c38.15-15.75 86.64 1.011 114.43 41.921 27.97 41.17 25.49 92.8-3.73 122.369a74.363 74.363 0 0 1 -11.23 9.36c-39.47 26.82-96.77 11.33-127.98-34.61-31.22-45.949-24.52-104.909 14.96-131.739a74.924 74.924 0 0 1 13.55-7.301z"/><path d="m405.57 695.84c-38.74 18.851-87.53 2.4-116.35-40.02-27.31-40.2-27.93-94.351 5.67-124.24"/><path d="m447.86 764.51-8.5-1-1.29-.16-48.25-5.699s-90.96-29.931-117.3-37.141c-29.63-8.109-72.5-60.25-72.5-60.25l.97 2.57c-11.38-28.561-16.24-57.85-15.31-85.75 2.21-65.7 36.56-123.71 93.75-146.49 81.49-32.45 178.48 18.891 216.629 114.7 32.841 82.42 10.321 175.46-48.199 219.22m-302.96-422.72c6.63-24.21 9.91-25.95 14.74-40.67v-101.68s2.31-5.41 7.94-13.56c14.96-21.69 53.43-62.8 134.41-73.09 111.4-14.15 462.98-31.83 462.98-31.83"/><path d="m247.4 316.74c-4.69-.39-7.3-.59-7.3-.59s-30.18 16.05-49.5 31.19c-3.35 2.63-6.38 5.23-8.86 7.71l-38.85-5.65c.7-2.76 1.37-5.29 2-7.61m393.65 99.08c-18.66-41.97-39.29-81.03-54.41-89.35-31.229-17.18-197.51-31.59-236.05-34.73m528.78 285.83-6.87-1.58-185.07-42.63s-17.62-50.46-39.51-101.74m-385.77-155.55s34.98-35.91 80.55-52.18c17.17-6.14 35.85-9.48 54.73-7.06 68.96 8.84 441.2 55.7 441.2 55.7m-382.74 312.23c3.97 6.15 3.27 13.671-1.55 16.78-4.82 3.11-11.95.63-15.91-5.52-3.97-6.15-3.28-13.67 1.55-16.78 4.82-3.11 11.95-.63 15.91 5.52zm-61.37-206.62c5.21-.46 9.59-.72 12.72-.72m267.99 213.97s0 .029.011.09c.449 2.97 11.93 78.37 28.109 94.55l62.48-62.48"/><path d="m573.37 607.25s.01.01.02.03c.53.85 12.88 19.239 90.23 37.489 4.58 1.08 9.39 2.16 14.439 3.24 39.08 8.33 68.641 16.601 82.28 19.681 1.84.409 3.391.729 4.63.939m-597.399-482.749h.01l71.63 9.14v50.4m-94.31 96.37h-.01l-49.76 23.06-6.52 3.02h31.83v51.28l78.09-21.05"/><path d="m91.71 355.49 3.42 9.36 1.1 3.02 19.37 53.05 3.07 8.4"/></g><path d="m190.61 347.35 56.79-30.61.01-.01s.03 0 .09.01c.06 0 .15.01.27.02.09.01.19.02.31.03 13.38 1.29 223.05 21.73 240.17 38.85 15.03 15.03 36.1 54 50.29 85.23 2.5 5.5 4.79 10.76 6.79 15.61.03.06.05.13.08.189 13.28 32.24 13.28 46.92 13.28 46.92s-11.181-15.16-25.41-32.32c-10.4-12.52-22.431-26.109-32.931-35.649-4.029-3.66-7.83-6.72-11.229-8.89-.15-.101-.3-.2-.45-.29-16-9.98-41.03-23.851-67-31.45-13.29-3.9-26.81-6.16-39.5-5.42-.22.01-.43.03-.65.04-21.06 1.39-46.63 5.49-65.05 8.83-13.82 2.49-23.61 4.57-24.46 4.75h-.02c-.03.01-.04.01-.04.01l-90.63 11.96-.13.02-2.66-17.08z" stroke-width="1.768"/></g><path d="m0 0h850.394v850.394h-850.394z" fill="none"/><path d="m0 0h850.394v850.394h-850.394z" fill="none"/></svg>