<svg height="850.394" viewBox="0 0 850.394 850.394" width="850.394" xmlns="http://www.w3.org/2000/svg"><g fill="#abd150"><path d="m474.78 527.09 208.74-98.04 13.47 4.17v16.92l-71.2 34.28-148.35 71.43-.57-5.47-2.09-19.9-1.08-.39z"/><path d="m474.78 530.48 2.09 19.9-16.87 5.62-.53 1.45-93.41-33.85-12.74-37.02 120.38 43.51z"/><path d="m366.06 523.6-103.07-37.34 12.16-27.93 78.17 28.25z"/><path d="m353.32 486.58-78.17-28.25 12.27-28.17 41.75-13.75zm330.2-57.53-208.74 98.04-1.08 3-120.38-43.51-24.15-70.17 151.83-50 51.92 16.06 67.63 20.92z"/><path d="m405.44 80.58c11.56 43.97 75.56 285.83 75.56 285.83l-151.83 50-41.75 13.75-37.53 12.359-5.46 1.601-.39-1.33-26.12-89.39-64.91-222.08z"/></g><g fill="none"><g stroke="#231f20" stroke-width="21"><path d="m473.7 530.09 1.08.391 2.09 19.899.57 5.47 148.35-71.43 71.2-34.28v-16.92l-13.471-4.17-82.97-25.66-67.63-20.92-51.919-16.06s-64-241.86-75.56-285.83l-252.43 50.74 64.91 222.08 26.12 89.39.39 1.33 1.02 3.479 29.7 10.73 78.17 28.25z"/><path d="m249.89 442.52 37.53-12.36 41.75-13.75 151.83-50"/><path d="m626.74 486.4 42.44 141.72 2.92 9.76m-99.55-332.35 28.67 95.68m-28.67-95.68-39.11 75.26m-213.33 9.3 9.06 26.32 24.15 70.17 12.74 37.02 11.81 34.34 68.02 197.64 4.89 14.22m-4.45-14.37 221.33-126.86m-360.58-243.55-19.66 45.14-12.27 28.17-12.16 27.93-65.83 151.17-6.82 15.67" stroke-linecap="round" stroke-linejoin="round"/><path d="m200.12 638.72 177.75-80.78 28.17-12.8" stroke-linecap="round" stroke-linejoin="round"/><path d="m243.97 442.81 10.37 40.31 8.65 3.14 103.07 37.34 93.41 33.85 13.08 4.74"/><path d="m461.74 276.21 154.07 24.24m-413.62 49.05 15.73 3.9 134.19 33.31" stroke-linecap="round" stroke-linejoin="round"/><path d="m474.78 527.09 208.74-98.04.14-.06"/></g><path d="m0 0h850.394v850.394h-850.394z"/></g></svg>