<svg height="850.394" viewBox="0 0 850.394 850.394" width="850.394" xmlns="http://www.w3.org/2000/svg"><g fill="#fff"><path d="m744.61 556.87c-52.03 125.58-175.8 213.91-320.19 213.91-9.77 0-19.44-.4-29.01-1.2v-.01l80.5-6.46 52.42-79.601-1.73-2.16 1.73-1.38 145.84-89.14 32.44 22.3h1.899c.001.001 22.841-24.549 36.101-56.259z"/><path d="m489.73 442.48 105.53-77.22c2.53 2.53 110.67 104.4 110.67 104.4l-31.76 121.17-145.84 89.14-1.73 1.38-79.92-99.97 38.09-138.899 1.7-2.351zm-159.59 311.59 65.27 15.5v.01c-166.2-13.78-299.11-144.87-315.69-310.27l19.95 61.881 118.62-1.45 2.71 3.49 103.31 104.22z"/><path d="m486.47 440.13-1.7 2.35-38.09 138.9-122.37 46.07-103.31-104.22-2.71-3.49 38.93-124.82-1.13-.8 129.8-26.53zm-305.21-262.56-30.74 141.76-64.91 48.35-5.41 17.37-.48 74.26c-1.16-11.5-1.75-23.17-1.75-34.979 0-96.59 39.52-183.94 103.28-246.77zm440.13-38.29-.01.01-64.14 100.79-2.83.96-128.38.44-73.82-94.68-2.61-.66 14.91-59.37-68.72 15.78c39.77-15.92 83.18-24.67 128.63-24.67 73.17 0 141.04 22.68 196.97 61.4z"/><path d="m747.02 550.91c19.391-49.87 16.261-86.8 16.261-86.8h-1.681l-54.27.229-1.4 5.32s-108.14-101.87-110.67-104.4l-40.85-124.22 2.83-.96 64.14-100.79.01-.01c90.32 62.53 149.49 166.88 149.49 285.05 0 44.671-8.46 87.371-23.86 126.581zm-394.81-404.11 73.82 94.68-2.37.01-39.98 124.51 2.21 1.59-129.8 26.53-105.57-74.79 30.74-141.76-.01-.01c32.52-32.05 71.35-57.72 114.46-74.98-2.02 1.15-61.49 34.43-61.49 34.43l-13.67 11.67-.42 5.76 127.99-2.41 1.48-5.89z"/></g><path d="m763.28 464.11s3.13 36.93-16.261 86.8c-.72 1.85-1.479 3.72-2.26 5.609-.05.12-.1.23-.149.351-13.261 31.71-36.101 56.26-36.101 56.26h-1.899l-32.44-22.3 31.76-121.17 1.4-5.32 54.27-.229h1.68zm-337.25-222.63 128.38-.44 40.85 124.22-105.53 77.22-3.26-2.35-100.58-72.54-2.21-1.59 39.98-124.51zm100.57 439.87 1.73 2.16-52.42 79.6-80.5 6.46-65.27-15.5-5.83-126.62 122.37-46.07zm-162.09-594.58-14.91 59.37-1.48 5.89-127.99 2.41.42-5.76 13.67-11.67s59.47-33.28 61.49-34.43c.03-.01.05-.02.05-.02l.03-.01zm-108.42 307.35 1.13.8-38.93 124.82-118.62 1.45-19.95-61.88.48-74.26 5.41-17.37 64.91-48.35z" fill="#231f20"/><g fill="none" stroke="#231f20" stroke-width="21"><path d="m295.79 102.55c39.77-15.92 83.18-24.67 128.63-24.67 73.17 0 141.04 22.68 196.97 61.4 90.32 62.53 149.49 166.88 149.49 285.05 0 44.67-8.46 87.37-23.86 126.58m-2.41 5.96c-52.03 125.58-175.8 213.91-320.19 213.91-9.77 0-19.44-.4-29.01-1.2-166.2-13.78-299.11-144.87-315.69-310.27-1.16-11.5-1.75-23.17-1.75-34.979 0-96.59 39.52-183.94 103.28-246.77 32.52-32.05 71.35-57.72 114.46-74.98m325.67 36.709-64.14 100.79m38.02 125.18c2.53 2.53 110.67 104.4 110.67 104.4m-353.72-322.86 73.82 94.68"/><path d="m385.89 367.59-2.21-1.59 39.98-124.51 2.37-.01 128.38-.44 40.85 124.22-105.53 77.22-3.26-2.35zm9.52 401.98 80.5-6.46 52.42-79.6-1.73-2.16-79.92-99.97-122.37 46.07 5.83 126.62zm-315.69-310.26.48-74.26 5.41-17.37 64.91-48.35 105.57 74.79 1.13.8-38.93 124.82-118.62 1.45zm216.07-356.76 68.72-15.78-14.91 59.37-1.48 5.89-127.99 2.41.42-5.76 13.67-11.67s59.47-33.28 61.49-34.43c.03-.01.05-.02.05-.02z"/><path d="m252.18 394.92 3.91-.8 129.8-26.53m-235.37-48.26 30.74-141.76m39.74 345.66 103.31 104.22m160.46-184.97-38.09 138.9m81.65 98.59 145.84-89.14m72.85-39.92c19.391-49.87 16.261-86.8 16.261-86.8h-1.681l-54.27.229-1.4 5.32-31.76 121.17 32.44 22.3h1.899s22.84-24.55 36.101-56.26c.05-.12.1-.23.149-.351a287.661 287.661 0 0 0 2.261-5.608z"/></g><path d="m0 0h850.394v850.394h-850.394z" fill="none"/></svg>