<svg height="850.394" viewBox="0 0 850.394 850.394" width="850.394" xmlns="http://www.w3.org/2000/svg"><path d="m469.636 94.715 91.234 97.34-55.695 63.101-46.225-44.676-4.171-.29 2.033-29.477 2.666-38.656 3.428-49.793z" fill="#fff"/><path d="m484.976 668.23 23.833 110.38s-8.621 3.945-25.972 9.46l-.301-3.214s-21.5-92.449 0-116.099z" fill="#231f20"/><path d="m484.976 668.23-2.439.527c-21.5 23.649 0 116.099 0 116.099l.301 3.214a512.188 512.188 0 0 1 -14.642 4.396l-.709-3.311c8.32 0-40.85-83.85 8.6-144.049l3.72-.806z" fill="#fff"/><path d="m458.982 547.875 20.823 96.427-3.72.806c-49.449 60.199-.279 144.049-8.6 144.049l.709 3.311c-22.488 6.364-54.394 13.781-95.803 19.619l-11.373-85.011s-3.408-20.597-14.771-20.597h-3.279c-11.363 0-14.771 20.597-14.771 20.597l-11.373 85.011c-91.406-12.879-136.405-33.476-136.405-33.476l49.708-230.219 226.607-.032z" fill="#231f20"/><path d="m462.906 92.264-3.429 49.793-.592-.043c-88.148 128.999-64.499 234.347-64.499 324.646v3.235l-98.898-.032v-3.203c-2.15-55.899 38.699-204.248-60.199-305.296l-2.645.226-5.956-69.025 38.743-13.33c.957 48.041 20.027 63.328 47.256 84.279l32.411-17.157c2.15.043 4.311-.172 6.461-.699l27.777 17.855c23.65-21.5 47.3-34.163 47.3-81.699l.881-2.419z" fill="#fff"/><path d="m454.779 210.19 4.171.29 1.678 259.448-46.891-.021v-3.246c6.45-40.85-19.35-146.198 43-285.947h.075z" fill="#fff"/><path d="m459.478 142.057-2.666 38.656h-.075c-62.35 139.749-36.55 245.097-43 285.947v3.246l-19.35-.011v-3.235c0-90.299-23.649-195.647 64.499-324.646zm-.496 405.818-2.246.484-226.607.033 9.675-44.795h209.611zm-31.464-468.479-.881 2.419c0 47.536-23.65 60.199-47.3 81.699l-27.777-17.855c2.838-.667 5.665-1.86 8.428-3.644 30.1-19.35 32.25-34.4 39.366-54.125 2.322-6.429 1.333-12.728-1.957-18.425l1.29-.548z" fill="#231f20"/><path d="m300.046 67.324c8.976-13.308 26.391-22.349 46.418-22.349 20.78 0 42.838 10.438 50.933 24.488 3.29 5.697 4.278 11.997 1.957 18.425-7.117 19.726-9.267 34.775-39.366 54.125-2.763 1.784-5.59 2.978-8.428 3.644l-2.322-1.494-4.139 2.193c-25.95-.441-51.502-38.592-51.502-58.468-.001-7.449 2.332-14.458 6.449-20.564z" fill="#fff"/><path d="m345.099 146.357-32.411 17.157c-27.229-20.951-46.3-36.238-47.256-84.279l34.614-11.911c-4.117 6.106-6.45 13.115-6.45 20.565 0 19.876 25.552 58.027 51.503 58.468zm-49.611 320.303v3.203l-17.2-.011v-3.192c-12.76-6.386 31.304-149.574-42.741-271.294l-2.902-33.776 2.645-.226c98.898 101.049 58.048 249.397 60.198 305.296z" fill="#231f20"/><path d="m236.815 210.039-1.269-14.673c74.045 121.721 29.981 264.909 42.741 271.294v3.192l-47.246-.021 1.688-259.437z" fill="#fff"/><path d="m235.547 195.366 1.268 14.673-4.085.355-46.235 44.666-55.695-63.113 95.889-99.383 5.956 69.025z" fill="#fff"/><g fill="none" stroke="#231f20"><g stroke-width="14"><path d="m397.397 69.463c3.29 5.697 4.278 11.997 1.957 18.425-7.117 19.726-9.267 34.775-39.366 54.125-2.763 1.784-5.59 2.978-8.428 3.644-2.15.527-4.311.742-6.461.699-25.95-.441-51.502-38.592-51.502-58.468 0-7.45 2.333-14.459 6.45-20.565 8.976-13.308 26.391-22.349 46.418-22.349 20.779.001 42.837 10.439 50.932 24.489z"/><path d="m398.687 68.915 28.831 10.481 35.388 12.868 6.73 2.451 91.234 97.34-55.695 63.101-46.225-44.676 1.678 259.448-46.891-.022-19.35-.01-98.899-.033-17.2-.01-47.246-.022 1.688-259.437-46.235 44.666-55.695-63.113 95.889-99.383 38.743-13.329 34.614-11.911h.011m-69.928 481.068 9.675-44.795h209.611l9.567 44.278 20.823 96.427 5.17 23.929 23.833 110.38s-8.621 3.945-25.972 9.46a512.188 512.188 0 0 1 -14.642 4.396c-22.488 6.364-54.394 13.781-95.803 19.619l-11.373-85.011s-3.408-20.597-14.771-20.597h-3.279c-11.363 0-14.771 20.597-14.771 20.597l-11.373 85.011c-91.406-12.879-136.405-33.476-136.405-33.476z"/><path d="m228.592 548.392h1.537l226.607-.033"/></g><path d="m265.389 75.365c0 1.312.011 2.602.043 3.87.957 48.041 20.027 63.328 47.256 84.279m113.949-81.699c0 47.536-23.65 60.199-47.3 81.699m-66.649 0 32.411-17.157 4.138-2.193m30.1 19.35-27.777-17.856-2.323-1.494" stroke-width="7.525"/><path d="m226.689 92.564 5.956 69.025 2.902 33.777 1.268 14.673.624 7.224m225.748-128.998-.281 3.999-3.428 49.793-2.666 38.656-2.033 29.477-.193 2.773" stroke-width="14"/><path d="m235.289 161.364c98.898 101.049 58.049 249.397 60.199 305.296m163.398-324.646c-88.148 128.999-64.499 234.347-64.499 324.646" stroke-width="7.525"/><path d="m233.139 191.463a254.306 254.306 0 0 1 2.408 3.902c74.045 121.721 29.981 264.909 42.741 271.294m178.448-285.946c-62.35 139.749-36.55 245.097-43 285.947m62.35 178.447c-49.449 60.199-.279 144.049-8.6 144.049m15.05-120.398c-21.5 23.649 0 116.099 0 116.099" stroke-width="7.525"/></g><path d="m0 0h850.394v850.394h-850.394z" fill="none"/><path d="m786.88 178.528-2.778-9.369-1.76-.147c5.626-1.451 10.239-6.108 14.333-4.604 3.297 1.217 2.254 6.543 3.085 8.587 1.408 3.483 3.023 4.268 4.573 7.619 2.907 6.273 3.021 15.927-3.327 8.23-3.063-3.714-7.727-9.675-14.057-9.112z" fill="#9c5c25"/><path d="m786.88 178.528.069 1.205c-.282.027-.566.066-.857.117 0 0-17.136 5.32-30.015 15.441-9.717 7.634-15.094 10.41-20.818 2.08-1.838-2.673-3.864-5.82-5.768-8.866l18.173-11.449c.633 1.13 2.332 3.68 4.25 2.445 2.428-1.562 6.591-10.232 18.91-9.891l8.395-.183c1.076 0 2.116-.156 3.123-.417l1.76.147zm-11.413-55.806a1.55 1.55 0 0 1 -.762 1.31c-.887.537-1.885 1.211-2.374.588.048.317.09 1.082-.461 1.507-.701.545-1.819.755-2.404.674l-.135-.036c-.162.683-1.013.98-1.648.53-.603-.419-1.214-2.311-3.198-4.981-.354-.479-.752-.98-1.205-1.504-1.268-1.466-2.706-2.74-3.603-4.001-.407-.572-.704-1.142-.818-1.727-.474-2.389.1-4.277-.255-8.38 2.413-1.25 4.88-3.692 9.328-4.585 1.492 1.336 4.858 3.818 5.764 5.539.188.363 2.826 8.186 2.767 12.16-.014.808-.574 2.202-.996 2.906z" fill="#ffeec8"/><path d="m758.604 106.702c-.677.348-1.349.603-2.059.705-2.767.396-6.388-3.324-8.482-4.595-9.162-5.545-14.687-10.353-19.959-11.204a9.71 9.71 0 0 0 -4.867.423c-12.562-3.899-13.484-22.354-13.484-22.354l.015-.605c7.241.201 15.037 2.248 24.991 6.315 18.403 7.52 26.394 16.02 33.174 26.729-4.45.893-6.916 3.336-9.329 4.586z" fill="#fff"/><path d="m759.677 116.809c.896 1.262 2.335 2.536 3.603 4.001.453.524.852 1.025 1.205 1.504-.306 1.63-1.579 4.041-3.3 3.18.575-3.009-.072-5.988-1.811-8.47z" fill="#ffeec8"/><path d="m747.664 177.057-18.173 11.449c-4.025-6.438-7.502-12.406-7.502-12.406l-.152-.198c2.512-1.924 5.191-4.268 8.389-7.331l.531-.528c7.469-6.896 14.899-15.091 16.935-19.635 1.807 4.868 2.425 19.392 4.31 25.917z" fill="#fff"/><path d="m745.743 131.45c3.045 5.272 4.795 10.583 1.948 16.958-2.035 4.544-9.466 12.738-16.935 19.635l-.531.528c-3.197 3.063-5.877 5.407-8.389 7.331a58.954 58.954 0 0 1 -2.91 2.092l-.153-.228-26.062-18.121-.135-.096s6.66-10.211 9.382-15.223l.252-.428c.572.309 1.273.563 2.148.764 5.29 1.205 11.63-2.017 16.329-3.417 8.216-2.449 20.498-8.473 20.268-17.279 1.652 2.554 3.364 5.014 4.788 7.484z" fill="#fff"/><path d="m718.773 177.767.153.228c-2.953 1.99-5.863 3.531-9.349 5.152-4.754 2.218-10.838 4.151-15.011 7.017-4.685 3.225-1.517 10.706-2.164 15.885-1.909 15.268-9.717 21.337-11.104 31.576a44.2 44.2 0 0 0 -.123.986l-.479-.051-8.674-2.083-1.232-.159c.114-.849.139-1.79.066-2.827 0 0 .729-6.105.381-14.432-.348-8.33 0-31.402 1.735-36.956 1.732-5.551 19.083-21.515 19.083-21.515l.656-.944zm-27.71-116.977c0 4.975-1.417 9.537-3.776 13.092-3.012 4.538-7.559 7.43-12.646 7.43-1.208 0-2.386-.165-3.521-.474-7.379-2.014-12.903-10.227-12.903-20.048 0-11.339 7.353-20.531 16.425-20.531 9.07 0 16.421 9.192 16.421 20.531z" fill="#ffeec8"/><path d="m680.696 238.56.479.051c-1.166 10.02 1.19 14.729-4.763 16.326-2.521.677-6.108-1.499-8.251-2.008-3.654-.878-5.233-.021-8.863-.71-6.789-1.277-14.717-6.798-4.757-7.487 4.577-.318 15.085.474 16.248-8.413l1.232.159z" fill="#9c5c25"/><path d="m698.188 137.358c-5.425-11.935-12.104-18.499-21.628-26.718.141-.003.281-.003.425-.003l.111-.084c-4.07-5.479-9.265-20.57-10.313-28.306 1.396-.935 2.841-1.436 4.304-1.289l.033-.12a13.38 13.38 0 0 0 3.521.474c5.087 0 9.634-2.892 12.646-7.43l.258.174c7.973-3.468 14.807-5.194 22.222-4.984l-.015.605s.923 18.454 13.484 22.354a9.71 9.71 0 0 1 4.867-.423l-.216 1.559c5.186 12.046 11.003 19.303 12.9 29.224.103.533.156 1.058.168 1.573v.003c.23 8.806-12.052 14.831-20.268 17.279-4.699 1.4-11.039 4.622-16.329 3.417-.875-.201-1.576-.456-2.148-.764-2.25-1.224-2.563-3.328-4.022-6.541z" fill="#fff"/><path d="m676.985 110.637c-.144 0-.284 0-.425.003-13.17.126-12.193 12.031-21.239 16.395-9.088 4.388-11.029-1.088-15.388-8.539-.104-.18-.213-.363-.32-.545h.003c2.454-1.963 6.453-6.013 6.701-9.597l.492.006c6.294 2.116 5.125-2.362 7.706-7.787 1.975-4.154 6.737-14.632 12.268-18.325 1.049 7.736 6.243 22.827 10.313 28.306zm-43.999 99.467c10.442 0 18.909 8.47 18.909 18.913 0 10.446-8.467 18.913-18.909 18.913-10.445 0-18.913-8.467-18.913-18.913 0-10.443 8.468-18.913 18.913-18.913z" fill="#fff"/><g fill="#ffeec8"><path d="m632.563 98.415.006-.015c.479.213 1.352.677 2.185 1.319.246.716.647 1.313 1.224 1.744.188.141.393.243.6.315.303.642.383 1.334.077 2.047-.898 2.092-2.641 1.42-3.152 1.052-.004-.006-.007-.009-.01-.006a2.643 2.643 0 0 0 -.39-.336c-1.253-.899-2.248-2.418-3.647-3.102-.242-.117-.404-.252-.497-.396-.444-.681.635-1.609 1.48-2.377.922-.818 1.912-.36 2.124-.245z"/><path d="m628.479 106.66c-2.683-1.483-2.548-2.308-3.819-2.326h-.021l1.055-.842c.103-.668.695-1.822 1.529-2.413.603-.438 1.369-.201 1.735-.042.093.144.255.279.497.396 1.399.684 2.395 2.203 3.647 3.102.135.096.268.207.39.336.003-.003.006 0 .01.006.809.818 1.229 2.146-.399 2.817-1.357.555-2.182.33-3.042-.321a10.951 10.951 0 0 1 -.896-.785z"/><path d="m639.014 118.55c-5.035-1.606-5.026-1.235-9.66-3.674-1.931-1.019-3.411-2.896-4.652-4.619-.248-.348-.59-.836-.917-1.357l.875-.177c.684.701 3.033 2.32 4.557 1.357.956-.596 1.31-1.615.845-2.707.86.65 1.685.875 3.042.321 1.628-.671 1.208-1.999.399-2.817.512.369 2.254 1.04 3.152-1.052.306-.713.226-1.406-.077-2.047-.372-.785-1.082-1.49-1.823-2.059-.203-.593-.299-1.265-.299-1.993 0-.674 1.246-.695 2.571-.419h.003c3.824 1.226 5.599 2.847 5.91 3.153 1.732 1.688 1.811 3.747 3.033 6.027l.072-.027c.24.605.317 1.244.272 1.895-.248 3.584-4.247 7.634-6.701 9.597h-.003l.32.545-.917.054h-.002z"/><path d="m623.784 108.899c-.423-.668-.83-1.388-1.004-1.918-.342-1.031.636-2.646 1.858-2.646h.021c1.271.018 1.137.842 3.819 2.326l.686-.072c.315.3.608.566.896.785.465 1.091.111 2.11-.845 2.707-1.523.962-3.873-.656-4.557-1.357z"/></g><g fill="none" stroke="#231f20"><path d="m671.12 80.838c-7.379-2.014-12.903-10.227-12.903-20.048 0-11.339 7.353-20.531 16.425-20.531 9.07 0 16.422 9.192 16.422 20.531 0 4.975-1.417 9.537-3.776 13.092-3.012 4.538-7.559 7.43-12.646 7.43-1.208 0-2.386-.165-3.522-.474zm-.033.12c-1.463-.147-2.907.354-4.304 1.289-5.53 3.693-10.293 14.171-12.268 18.325-2.581 5.425-1.412 9.903-7.706 7.787m-7.196 9.592.32.545c4.358 7.451 6.3 12.927 15.388 8.539 9.046-4.364 8.069-16.269 21.239-16.395.141-.003.281-.003.425-.003m63.971 13.326a9.422 9.422 0 0 0 -.168-1.573c-1.897-9.921-7.715-17.177-12.9-29.224" stroke-width="6.294"/><path d="m675.07 109.36c.504.432 1.001.857 1.49 1.28 9.524 8.219 16.203 14.783 21.628 26.718 1.459 3.213 1.771 5.317 4.022 6.54.572.309 1.273.563 2.148.764 5.29 1.205 11.63-2.017 16.329-3.417 8.216-2.449 20.498-8.473 20.268-17.279m-53.41-49.91c7.973-3.468 14.807-5.194 22.222-4.984 7.241.201 15.037 2.248 24.991 6.315 18.403 7.52 26.394 16.02 33.174 26.729-4.448.893-6.915 3.336-9.328 4.585-.677.348-1.349.603-2.059.705-2.767.396-6.388-3.324-8.482-4.595-9.162-5.545-14.687-10.353-19.959-11.204a9.71 9.71 0 0 0 -4.867.423c-.44.15-.887.333-1.34.551" stroke-width="6.294"/><path d="m740.956 123.963-.006-.006" stroke-width="6.94"/><path d="m740.956 123.966v-.003" stroke-width="6.294"/><path d="m745.743 131.45c-1.424-2.47-3.136-4.931-4.787-7.484" stroke-width="6.94"/><path d="m692.056 160.589s-17.351 15.963-19.083 21.515c-1.735 5.554-2.083 28.626-1.735 36.956.348 8.326-.381 14.432-.381 14.432a14.006 14.006 0 0 1 -.066 2.827c-1.163 8.887-11.671 8.095-16.248 8.413-9.96.689-2.032 6.21 4.757 7.487 3.63.689 5.209-.168 8.863.71 2.143.51 5.73 2.686 8.251 2.008 5.953-1.598 3.597-6.306 4.763-16.326.036-.323.078-.65.123-.986 1.388-10.239 9.195-16.308 11.104-31.576.647-5.179-2.521-12.66 2.164-15.885 4.173-2.866 10.257-4.799 15.011-7.017 3.485-1.622 6.396-3.162 9.349-5.152a59.621 59.621 0 0 0 2.91-2.092c2.512-1.924 5.191-4.268 8.389-7.331l.531-.528c7.469-6.896 14.899-15.091 16.935-19.635 2.847-6.375 1.097-11.687-1.948-16.958" stroke-width="6.294"/><path d="m747.691 148.409c1.807 4.868 2.425 19.392 4.31 25.917l-4.337 2.731-18.173 11.449-.306.192m-62.458-106.876c.018.138.035.282.057.425 1.049 7.736 6.243 22.827 10.313 28.306.591.794 1.154 1.388 1.682 1.727" stroke-width="6.294"/><g stroke-width="2.098"><path d="m633.492 104.871c-.015-.012-.029-.021-.042-.033m3.576-7.532a19.556 19.556 0 0 0 -.768-.234c-1.388-.393-4.406 1.016-3.692 1.325l.003.003c.479.213 1.352.677 2.185 1.319.741.569 1.451 1.274 1.823 2.059.303.642.383 1.334.077 2.047-.898 2.092-2.641 1.42-3.152 1.052m12.471 1.609c-1.223-2.281-1.301-4.34-3.033-6.027-.312-.306-2.086-1.927-5.91-3.153"/><path d="m632.605 98.438-.042-.024c-.213-.114-1.202-.573-2.125.246-.846.768-1.925 1.696-1.48 2.377.093.144.255.279.497.396 1.399.684 2.395 2.203 3.647 3.102.135.096.268.207.39.336.003-.003.006 0 .01.006.809.818 1.229 2.146-.399 2.817-1.357.555-2.182.33-3.042-.321a10.951 10.951 0 0 1 -.896-.785c-.47-.447-.991-.965-1.639-1.52"/><path d="m629.167 101.139s-.077-.045-.209-.102c-.366-.159-1.133-.396-1.735.042-.834.59-1.427 1.744-1.529 2.413m13.32 15.058c-5.035-1.606-5.026-1.235-9.66-3.674-1.931-1.019-3.411-2.896-4.652-4.619-.248-.348-.59-.836-.917-1.357-.423-.668-.83-1.388-1.004-1.918-.342-1.031.636-2.646 1.858-2.646h.021c1.271.018 1.137.842 3.819 2.326"/><path d="m628.685 105.698c.689.545 1.14 1.121 1.376 1.675.465 1.091.111 2.11-.845 2.707-1.523.962-3.873-.656-4.557-1.357"/><path d="m767.932 102.116c1.492 1.336 4.858 3.818 5.764 5.539.188.363 2.826 8.186 2.767 12.16-.013.809-.573 2.203-.995 2.907-.231.393-.423.572-.453.333-.099-.758.103-.938-.905-4.969-.3-1.22-2.331-4.631-2.331-4.631" stroke-miterlimit="10"/><path d="m775.425 122.27s.051.186.042.453a1.55 1.55 0 0 1 -.762 1.31c-.887.537-1.885 1.211-2.374.588a1.284 1.284 0 0 1 -.203-.459c-.372-1.507-.39-2.437-1.832-5.287-.908-1.786-2.286-4.609-2.286-4.609" stroke-miterlimit="10"/><path d="m772.308 124.476s.012.054.023.144c.048.317.09 1.082-.461 1.507-.701.545-1.819.755-2.404.674m-10.934-20.872c.029.267.054.524.071.773.354 4.104-.219 5.992.255 8.38.114.584.411 1.154.818 1.727.896 1.262 2.335 2.536 3.603 4.001.453.524.852 1.025 1.205 1.504 1.984 2.67 2.596 4.562 3.198 4.981.636.45 1.486.153 1.648-.53a1.113 1.113 0 0 0 -.012-.542c-.297-1.211.039-1.412-1.777-4.922-.582-1.115-.986-2.7-3.876-6.144" stroke-miterlimit="10"/></g><path d="m639.616 117.951c2.454-1.963 6.453-6.013 6.701-9.597a4.29 4.29 0 0 0 -.443-2.282" stroke-miterlimit="10" stroke-width="4.196"/><path d="m759.209 116.791c.058.078.111.156.165.234 1.738 2.482 2.386 5.461 1.811 8.47 1.721.86 2.994-1.55 3.3-3.18a2.43 2.43 0 0 0 .036-.213m-124.692-23.687c-.537-.438-1.693-.878-2.8-1.109h-.003c-1.325-.276-2.571-.255-2.571.419 0 .729.096 1.4.299 1.993.246.716.647 1.313 1.224 1.744.188.141.393.243.6.315 1.36.474 2.967-.288 2.967.998 0 4.46 1.268 5.242 2.61 6.585" stroke-width="2.098"/><path d="m747.403 176.553s.093.201.261.504c.633 1.13 2.332 3.68 4.25 2.445 2.428-1.562 6.591-10.232 18.91-9.891l8.395-.183c1.076 0 2.116-.156 3.123-.417 5.626-1.451 10.239-6.108 14.333-4.604 3.297 1.217 2.254 6.543 3.085 8.587 1.408 3.483 3.023 4.268 4.573 7.619 2.907 6.273 3.021 15.927-3.327 8.23-3.063-3.714-7.727-9.675-14.057-9.112-.282.027-.566.066-.857.117 0 0-17.136 5.32-30.015 15.441-9.717 7.634-15.094 10.41-20.818 2.08-1.838-2.673-3.864-5.82-5.768-8.866-4.025-6.438-7.502-12.406-7.502-12.406m-3.216 1.67-26.062-18.121-.135-.096s6.66-10.211 9.382-15.223m7.794-74.65s.923 18.454 13.484 22.354a15.54 15.54 0 0 0 2.479.551" stroke-width="6.294"/><path d="m672.022 236.477 8.674 2.083m103.406-69.401 2.778 9.369" stroke-width="6.94"/><path d="m651.896 229.017c0 10.446-8.467 18.913-18.909 18.913-10.445 0-18.913-8.467-18.913-18.913 0-10.442 8.468-18.913 18.913-18.913 10.442 0 18.909 8.47 18.909 18.913z" stroke-width="6.294"/></g></svg>