<svg height="850.394" viewBox="0 0 850.394 850.394" width="850.394" xmlns="http://www.w3.org/2000/svg"><path d="m380.23 61.13c0-10.56 21.19-5.87 43.79-5.87 18.14 0 42.67-7.29 43.15 6.32h.04s6.94 125.57 10.57 160.15c2.439 23.26-.88 43.19-12.05 54.36-11.16 11.16-22.62 22.63-26.15 41.43-3.521 18.81 7.05 51.42 7.05 51.42l.88 422.85h-47.27l.88-422.85s10.58-32.61 7.06-51.42c-3.53-18.8-14.99-30.27-26.16-41.43-11.16-11.17-14.48-31.1-12.04-54.36 3.62-34.58 10.58-160.15 10.58-160.15z" fill="#c8c8c8"/><g fill="none"><path d="m467.21 61.58s6.94 125.57 10.57 160.15c2.439 23.26-.88 43.19-12.05 54.36-11.16 11.16-22.62 22.63-26.15 41.43-3.521 18.81 7.05 51.42 7.05 51.42l.88 422.85h-47.27l.88-422.85s10.58-32.61 7.06-51.42c-3.53-18.8-14.99-30.27-26.16-41.43-11.16-11.17-14.48-31.1-12.04-54.36 3.62-34.58 10.58-160.15 10.58-160.15m25.41.15v139.13m32.62-139.13v138.99" stroke="#000" stroke-width="21.157"/><path d="m0 0h850.394v850.394h-850.394z"/></g></svg>