<svg height="850.394" viewBox="0 0 850.394 850.394" width="850.394" xmlns="http://www.w3.org/2000/svg"><path d="m0 0h850.394v850.394h-850.394z" fill="none"/><path d="m274.666 318.734-100.26 177.66h100.26zm-178.666 178.011 189.386-330.54h70.292v330.189h54.322v87.029h-54.322v104.585h-81.012v-104.584h-178.666z" fill="#50264b"/><path d="m0 0h850.394v850.394h-850.394z" fill="none"/><path d="m708.406 426.402c0-118.872-29.728-196.886-98.082-196.886-59.432 0-98.066 75.784-98.066 196.886-1.492 125.563 37.15 201.349 97.328 201.349h.738c66.132 0 98.082-78.016 98.082-201.349zm-93.448-266.991c108.198 0 171.047 97.061 171.047 261.746 0 175.807-66.029 272.875-179.003 272.875h-.793c-101.035 0-170.254-94.682-171.84-265.712 0-174.236 75.58-268.909 180.589-268.909z" fill="#50264b"/></svg>