<svg height="850.394" viewBox="0 0 850.394 850.394" width="850.394" xmlns="http://www.w3.org/2000/svg"><path d="m102.65 346.434h149.521v149.511h-149.521z" fill="none"/><g fill="#5668af"><circle cx="252.171" cy="466.043" r="14.292"/><circle cx="252.171" cy="436.141" r="14.292"/><circle cx="252.171" cy="406.238" r="14.292"/><circle cx="252.171" cy="376.335" r="14.292"/><circle cx="222.267" cy="346.434" r="14.292"/><circle cx="192.362" cy="346.434" r="14.292"/><circle cx="162.458" cy="346.434" r="14.292"/><circle cx="132.553" cy="346.434" r="14.292"/><circle cx="102.65" cy="376.336" r="14.292"/><circle cx="102.65" cy="406.239" r="14.292"/><circle cx="102.65" cy="436.142" r="14.292"/><circle cx="102.65" cy="466.044" r="14.292"/><circle cx="132.554" cy="495.945" r="14.292"/><circle cx="162.459" cy="495.945" r="14.292"/><circle cx="192.363" cy="495.945" r="14.292"/><circle cx="222.268" cy="495.945" r="14.292"/><circle cx="252.171" cy="346.434" r="14.292"/><circle cx="102.65" cy="346.435" r="14.292"/><circle cx="102.65" cy="495.945" r="14.292"/><circle cx="252.171" cy="495.945" r="14.292"/></g><path d="m749.262 422.177h-418.158m383.354 34.8 44.607-34.841-44.518-34.803" fill="none" stroke="#231f20" stroke-width="21"/><path d="m0 0h850.394v850.394h-850.394z" fill="none"/></svg>