<svg height="850" viewBox="0 0 850 850" width="850" xmlns="http://www.w3.org/2000/svg"><path d="m734.5 228.8v393.8l-.3 3.5-.5 3.8-1 3.5-1 3.5-1.8 3-1.8 3-2 3-2.5 2.5-2.5 2.5-3 2-3 1.8-3 1.5-3.5 1.3-3.5 1-3.5.5h-550.1l-3.5-.3-3.8-.5-3.5-1-3.5-1.3-3-1.5-3-1.8-3-2-2.5-2.5-2.5-2.5-2-3-1.8-3-1.5-3-1.3-3.5-1-3.5-.5-3.8-.3-3.5v-393.5l.3-3.8.5-3.8 1-3.5 1.3-3.3 1.5-3.3 1.8-3 2-2.8 2.5-2.8 2.5-2.3 3-2.3 3-1.8 3-1.5 3.5-1.3 3.5-1 3.8-.5 3.5-.3h546.5l3.8.3 3.5.5 3.5 1 3.5 1.3 3 1.5 3 1.8 3 2.3 2.5 2.3 2.5 2.8 2 2.8 1.8 3 1.8 3.3 1 3.3 1 3.5.5 3.8zm-185 259.7 110.3-63.8-110.3-63.7-110.3-63.5v254.5zm-244.2 0 110.3-63.8-110.3-63.7-110.3-63.5v254.5z" fill="#ffffc2"/><path d="m659.8 424.8-110.3 63.7-110.2 63.5v-254.5l110.2 63.5zm-244.3 0-110.2 63.7-110.3 63.5v-254.5l110.3 63.5z" fill="#231f20"/><g fill="none" stroke="#231f20" stroke-linecap="round" stroke-miterlimit="10"><path d="m115 622.5.3 3.5.5 3.8 1 3.5 1.2 3.5 1.5 3 1.8 3 2 3 2.5 2.5 2.5 2.5 3 2 3 1.7 3 1.5 3.5 1.3 3.5 1 3.7.5 3.5.2h546.5l3.8-.2 3.5-.5 3.5-1 3.5-1.3 3-1.5 3-1.7 3-2 2.5-2.5 2.5-2.5 2-3 1.7-3 1.8-3 1-3.5 1-3.5.5-3.8.2-3.5v-393.7l-.2-3.8-.5-3.7-1-3.5-1-3.3-1.8-3.2-1.7-3-2-2.8-2.5-2.7-2.5-2.3-3-2.2-3-1.8-3-1.5-3.5-1.2-3.5-1-3.5-.5-3.8-.3h-546.5l-3.5.3-3.7.5-3.5 1-3.5 1.2-3 1.5-3 1.8-3 2.2-2.5 2.3-2.5 2.7-2 2.8-1.8 3-1.5 3.2-1.2 3.3-1 3.5-.5 3.7-.3 3.8z" stroke-width="28"/><path d="m659.8 424.8-110.3 63.7-110.2 63.5v-254.5l110.2 63.5zm-244.3 0-110.2 63.7-110.3 63.5v-254.5l110.3 63.5z" stroke-width="27.5"/></g></svg>