<svg height="850.394" viewBox="0 0 850.394 850.394" width="850.394" xmlns="http://www.w3.org/2000/svg"><g fill="#9e5c26"><path d="m617.85 559.97c11.33-11.149 19.4-24.97 19.7-41.77 1.05-58.45-23.21-78.63-54.84-66.94-9.9 3.65 31.34-66.65 84.37-11.689 35.18 36.46 34.91 103.8 82.29 117.39l-1.37 5.039 2 68h-682v-30.37c13.75-3.63 92.98-26.87 93.94-80.24 1.06-58.439-23.2-78.63-54.83-66.939-9.9 3.66 31.34-66.65 84.36-11.69 32.55 33.73 44.74 141.13 112.84 119l.35.351c11.33-11.17 19.39-24.98 19.69-41.78 1.05-58.44-23.2-78.63-54.84-66.94-9.9 3.65 31.34-66.649 84.37-11.689 19.87 20.6 27.61 49.109 39.8 74.319 9.72 20.11 38.4 58.591 65.37 43.24 9.41-10.45 15.82-23.04 16.09-38 1.07-58.439-23.189-78.64-54.83-66.939-9.9 3.66 31.34-66.65 84.37-11.7 32.54 33.74 44.73 141.14 112.83 119.01z"/><path d="m231.54 286.53c-11.33 11.15-19.4 24.97-19.7 41.77-1.05 58.45 23.2 78.63 54.84 66.94 9.9-3.66-31.34 66.649-84.37 11.69-36.91-38.25-34.8-110.5-89.63-119l-.68-59.93h682l9.41 18.36s-94.91 22.31-95.96 80.74c-1.07 58.45 23.189 78.64 54.83 66.94 9.899-3.65-31.34 66.66-84.37 11.7-32.54-33.74-44.73-141.14-112.83-119l-.34-.34c-11.33 11.15-19.4 24.97-19.7 41.77-1.05 58.44 23.2 78.62 54.84 66.94 9.9-3.66-31.34 66.64-84.36 11.68-19.88-20.59-27.63-49.1-39.81-74.31-9.729-20.11-38.39-58.59-65.37-43.25-9.4 10.46-15.82 23.05-16.09 38.01-1.07 58.44 23.19 78.63 54.83 66.94 9.9-3.66-31.34 66.65-84.37 11.69-32.54-33.73-44.74-141.14-112.83-119z"/></g><g fill="none"><g stroke="#231f20" stroke-width="20.921"><path d="m65.98 600.14s.71-.17 2.02-.51c13.75-3.63 92.98-26.87 93.94-80.24 1.06-58.439-23.2-78.63-54.83-66.939-9.9 3.66 31.34-66.65 84.36-11.69 32.55 33.73 44.74 141.13 112.84 119"/><path d="m228.38 599.08s48.19-11.33 76.28-38.97c11.33-11.17 19.39-24.98 19.69-41.78 1.05-58.44-23.2-78.63-54.84-66.94-9.9 3.65 31.34-66.649 84.37-11.689 19.87 20.6 27.61 49.109 39.8 74.319 9.72 20.11 38.4 58.591 65.37 43.24l.271-.149"/><path d="m379.18 600s52.54-12.35 79.87-42.74c9.41-10.45 15.82-23.04 16.09-38 1.07-58.439-23.189-78.64-54.83-66.939-9.9 3.66 31.34-66.65 84.37-11.7 32.54 33.74 44.73 141.14 112.83 119.01"/><path d="m541.58 598.95s48.18-11.33 76.27-38.98c11.33-11.149 19.4-24.97 19.7-41.77 1.05-58.45-23.21-78.63-54.84-66.94-9.9 3.65 31.34-66.65 84.37-11.689 35.18 36.46 34.91 103.8 82.29 117.39 2.33.67 4.77 1.21 7.34 1.61m26.7-312.211s-94.91 22.31-95.96 80.74c-1.07 58.45 23.189 78.64 54.83 66.94 9.899-3.65-31.34 66.66-84.37 11.7-32.54-33.74-44.73-141.14-112.83-119"/><path d="m621 247.42s-48.17 11.32-76.26 38.98c-11.33 11.15-19.4 24.97-19.7 41.77-1.05 58.44 23.2 78.62 54.84 66.94 9.9-3.66-31.34 66.64-84.36 11.68-19.88-20.59-27.63-49.1-39.81-74.31-9.729-20.11-38.39-58.59-65.37-43.25-.09.05-.19.11-.28.16"/><path d="m470.21 246.49s-52.53 12.35-79.87 42.74c-9.4 10.46-15.82 23.05-16.09 38.01-1.07 58.44 23.19 78.63 54.83 66.94 9.9-3.66-31.34 66.65-84.37 11.69-32.54-33.73-44.74-141.14-112.83-119"/><path d="m307.81 247.55s-48.18 11.33-76.27 38.98c-11.33 11.15-19.4 24.97-19.7 41.77-1.05 58.45 23.2 78.63 54.84 66.94 9.9-3.66-31.34 66.649-84.37 11.69-36.91-38.25-34.8-110.5-89.63-119m214.1-126.91h241.95m-58.76 54.61 59.91-54.81-60-54.79m71.07 581.83h-241.95m58.76-54.6-59.9 54.8 59.99 54.79"/></g><path d="m0 0h850.394v850.394h-850.394z"/></g></svg>