<svg height="850.394" viewBox="0 0 850.394 850.394" width="850.394" xmlns="http://www.w3.org/2000/svg"><path d="m308.59 221.73c18.43 0 33.37 2.85 33.37 6.36 0 3.52-14.94 6.36-33.37 6.36-18.44 0-33.38-2.84-33.38-6.36 0-3.51 14.94-6.36 33.38-6.36zm437.94-113.96.81 624.43-28.56 13.44v-645.7l.44-1.32z" fill="#fff"/><path d="m609.75 144.7h-19.921c-1.46 0-2.65 1.4-2.65 3.12v3.68c0 1.56.96 2.84 2.221 3.08a15.174 15.174 0 0 1 -6.45 5.07c-6.3 2.62-13.92 6.3-16.28 19.17-1.37 7.46-1.77 42.17-1.87 70.05l-.17 5.31-33.84-1.09h-3.55v-137.36l185.47-19.29 6.51 2.18-.439 1.32v645.7l-12.391 5.83-179.15-76.07v-59.16l134.69 34.26 1.181-73.83-131.741-28.57h-4.13v-78.5l134.689 20.53 4 2 24.071-10.13 2.11-67.92-29 2.21-131.74-14.71h-4.13v-80.55l136.24 10.16 2.52.81 26.82-3.96-1.21-73.68-28.931 2.99-24.569-.79.12-3.64c-.2-25.79-.631-58.59-1.58-66.21-2.381-18.92-11.73-24.44-18.04-27.07a15.045 15.045 0 0 1 -6.54-5.21c1.01-.44 1.729-1.58 1.729-2.93v-3.68c0-1.72-1.189-3.12-2.649-3.12z" fill="#fff"/><path d="m691.61 254.36 1.21 73.68-26.82 3.96-2.52-.81-.8-73.84zm.5 159.72-2.11 67.92-24.07 10.13-4-2 1.18-73.84zm-29.43-156.73.8 73.84-136.24-10.16v-67.94h3.55l33.84 1.09 73.48 2.38z" fill="#fff"/><path d="m663.11 416.29-1.18 73.84-134.69-20.53v-68.02h4.13zm0 160.38-1.18 73.83-134.69-34.26v-68.14h4.13z" fill="#fff"/><path d="m600.49 154.62h10.66c.319 0 .63-.07.92-.19a15.045 15.045 0 0 0 6.54 5.21c6.31 2.63 15.659 8.15 18.04 27.07.949 7.62 1.38 40.42 1.58 66.21l-.12 3.64-73.48-2.38.17-5.31c.101-27.88.5-62.59 1.87-70.05 2.36-12.87 9.98-16.55 16.28-19.17 3.16-1.32 5.2-3.36 6.45-5.07.14.03.279.04.43.04zm24.33 67.43c3.29-1.79 3.29-6.47 1.72-10.52-1.86-4.8-2.97-18.65-2.28-24.17.54-4.3 0-8.87-3.55-10.05-3.54-1.18-5.91 0-7.68 3.75-1.771 3.74-.59 19.5-.59 19.5s1.75 15.8 4.17 19.17c2.41 3.37 4.93 4.11 8.21 2.32z" fill="#f0037f"/><g fill="#fff"><path d="m626.54 211.53c1.57 4.05 1.57 8.73-1.72 10.52-3.28 1.79-5.801 1.05-8.21-2.32-2.42-3.37-4.17-19.17-4.17-19.17s-1.181-15.76.59-19.5c1.77-3.75 4.14-4.93 7.68-3.75 3.55 1.18 4.09 5.75 3.55 10.05-.69 5.52.42 19.37 2.28 24.17zm-12.74-63.71v3.68c0 1.35-.72 2.49-1.729 2.93-1.16-1.63-1.59-2.93-1.59-2.93h-.73v-6.8h1.4c1.459 0 2.649 1.4 2.649 3.12z"/><path d="m609.75 151.5h.73s.43 1.3 1.59 2.93c-.29.12-.601.19-.92.19h-5.92v-9.92h4.52zm-4.52 1.96v1.16h-4.74v-9.92h4.74zm-4.74-8.39v9.55h-4.59v-9.92h4.59z"/><path d="m591.38 144.7h4.521v9.92h-4.521zm-1.98 9.88c-1.261-.24-2.221-1.52-2.221-3.08v-3.68c0-1.72 1.19-3.12 2.65-3.12h1.55v9.92h-1.55a2.02 2.02 0 0 1 -.429-.04zm-62.16 520.82v46.33l-335.85 30.83-5.62-6.86v-656.1l341.47 2.41v43.1l-306.95.24.71 164.65.12 26 .43 99.97.11 26.03.51 118.03.12 25.96.41 95.57 300.68-27.07h3.86z"/><path d="m527.24 616.24v48.25h-3.86l-300.68 27.07-.41-95.569 266.69-10.82-1.94-25.89-262 10.739-2.87.011-.51-118.031h.34l266-4-1.57-27.24-264.88 5.21-.43-99.97h.88l264.74.85-.311-25.96-264.429-.89h-1l-.71-164.65 306.95-.24zm-175.34-376.74v-11.1h-.01c.01-.08.01-.17.01-.26 0-5.82-19.39-10.54-43.31-10.54-23.93 0-43.32 4.72-43.32 10.54 0 .07 0 .14.01.2h-.01v11.16c0 1.53 1.35 2.99 3.78 4.3l4.61 40.09s.89 5.94 7.27 9.49c9.17 5.09 17.32 6.13 26.94 6.13l1.4-.02c9.62 0 17.96-1.06 27.12-6.15 6.39-3.55 7.27-9.49 7.27-9.49l4.61-40.13c2.34-1.29 3.63-2.72 3.63-4.22z"/><path d="m487.04 559.28 1.94 25.89-266.69 10.82-.12-25.96 2.87-.01zm-.61-138.52 1.57 27.24-266 4h-.34l-.11-26.03zm0-119.87.31 25.96-264.74-.85h-.88l-.12-26h1z"/></g><path d="m269.05 243.8c-2.43-1.31-3.78-2.77-3.78-4.3v-11.16h.01c.44 5.74 19.66 10.34 43.31 10.34 23.56 0 42.73-4.57 43.3-10.28h.01v11.1c0 1.5-1.29 2.93-3.63 4.22-6.69 3.71-21.94 6.31-39.68 6.31-17.62 0-32.78-2.56-39.54-6.23z" fill="#ff001c"/><path d="m351.9 228.14c0 .09 0 .18-.01.26-.57 5.71-19.74 10.28-43.3 10.28-23.65 0-42.87-4.6-43.31-10.34-.01-.06-.01-.13-.01-.2 0-5.82 19.39-10.54 43.32-10.54 23.92 0 43.31 4.72 43.31 10.54zm-9.94-.05c0-3.51-14.94-6.36-33.37-6.36-18.44 0-33.38 2.85-33.38 6.36 0 3.52 14.94 6.36 33.38 6.36 18.43 0 33.37-2.84 33.37-6.36zm6.31 15.63-4.61 40.13s-.88 5.94-7.27 9.49c-9.16 5.09-17.5 6.15-27.12 6.15l-1.4.02c-9.62 0-17.77-1.04-26.94-6.13-6.38-3.55-7.27-9.49-7.27-9.49l-4.61-40.09c6.76 3.67 21.92 6.23 39.54 6.23 17.74 0 32.99-2.6 39.68-6.31z" fill="#ff001c"/><path d="m185.77 89.6v656.1l-77.88-95.08v-522.49z" fill="#fff"/><g fill="none" stroke="#231f20"><g stroke-width="21"><path d="m185.77 89.6-77.88 38.53v522.49l77.88 95.08 5.62 6.86 335.85-30.83v-629.72zm0 0v656.1"/><path d="m527.24 135.11-306.95.24.71 164.65.12 26 .43 99.97.11 26.03.51 118.03.12 25.96.41 95.57 300.68-27.07"/><path d="m526.54 115.8.7-.07 185.47-19.29 6.51 2.18 27.31 9.15.81 624.43-28.56 13.44-12.39 5.83-179.15-76.07-6.07-2.58m197.61-572.88v655.03"/><path d="m530.79 253.09 33.84 1.09 73.48 2.38 24.57.79.8 73.84-136.24-10.16"/><path d="m662.68 257.35 28.93-2.99 1.21 73.68-26.82 3.96m-134.63 69.58 131.74 14.71-1.18 73.84-134.69-20.53-1.23-.19m137.1-53.12 29-2.21-2.11 67.92-24.07 10.13m-134.56 55.97 131.74 28.57-1.18 73.83-134.69-34.26-1.23-.31m137.1-39.26 29-2.21-.11 75.54-22.07 4.5m-447.93-354.5 264.43.89.31 25.96-264.74-.85m-2 100 1.55-.03 264.88-5.21 1.57 27.24-266 4m3.04 118.02 262-10.74 1.94 25.89-266.69 10.82-.29.01"/></g><path d="m265.28 228.34c-.01-.06-.01-.13-.01-.2 0-5.82 19.39-10.54 43.32-10.54 23.92 0 43.31 4.72 43.31 10.54 0 .09 0 .18-.01.26-.57 5.71-19.74 10.28-43.3 10.28-23.65 0-42.87-4.6-43.31-10.34z" stroke-width="7"/><path d="m341.96 228.09c0 3.52-14.94 6.36-33.37 6.36-18.44 0-33.38-2.84-33.38-6.36 0-3.51 14.94-6.36 33.38-6.36 18.43 0 33.37 2.85 33.37 6.36z" stroke-width="7"/><path d="m265.27 228.34v11.16c0 1.53 1.35 2.99 3.78 4.3 6.76 3.67 21.92 6.23 39.54 6.23 17.74 0 32.99-2.6 39.68-6.31 2.34-1.29 3.63-2.72 3.63-4.22v-11.1" stroke-width="7"/><path d="m348.27 243.72-4.61 40.13s-.88 5.94-7.27 9.49c-9.16 5.09-17.5 6.15-27.12 6.15l-1.4.02c-9.62 0-17.77-1.04-26.94-6.13-6.38-3.55-7.27-9.49-7.27-9.49l-4.61-40.09-.03-.26m295.78 5.33c.101-27.88.5-62.59 1.87-70.05 2.36-12.87 9.98-16.55 16.28-19.17 3.16-1.32 5.2-3.36 6.45-5.07m22.67-.15a15.045 15.045 0 0 0 6.54 5.21c6.31 2.63 15.659 8.15 18.04 27.07.949 7.62 1.38 40.42 1.58 66.21" stroke-width="7"/><path d="m609.75 144.7h1.4c1.46 0 2.649 1.4 2.649 3.12v3.68c0 1.35-.72 2.49-1.729 2.93-.29.12-.601.19-.92.19h-21.321c-.15 0-.29-.01-.43-.04-1.261-.24-2.221-1.52-2.221-3.08v-3.68c0-1.72 1.19-3.12 2.65-3.12z" stroke-width="7"/><path d="m591.38 144.7v9.92" stroke-width="21"/><path d="m595.9 144.7v9.92" stroke-width="7"/><path d="m600.49 145.07v9.93m4.74-11.47v9.93" stroke-width="21"/><path d="m609.75 143.53v9.93m16.79 58.07c1.57 4.05 1.57 8.73-1.72 10.52-3.28 1.79-5.801 1.05-8.21-2.32-2.42-3.37-4.17-19.17-4.17-19.17s-1.181-15.76.59-19.5c1.77-3.75 4.14-4.93 7.68-3.75 3.55 1.18 4.09 5.75 3.55 10.05-.69 5.52.42 19.37 2.28 24.17z" stroke-width="7"/></g><path d="m0 0h850.394v850.394h-850.394z" fill="none"/></svg>