<svg height="850.394" viewBox="0 0 850.394 850.394" width="850.394" xmlns="http://www.w3.org/2000/svg"><path d="m320.89 134.97h76.51v327.89h-76.51zm0 412.33h76.51v180.62h-76.51zm134.58 0h76.511v180.62h-76.511z" fill="#0071bc"/><path d="m589.09 94.12v680.69h-324.62v-680.69zm-29.38 407.55c0-7.25-5.87-13.12-13.11-13.12-7.25 0-13.119 5.87-13.119 13.12 0 7.24 5.869 13.11 13.119 13.11 7.24 0 13.11-5.87 13.11-13.11zm-26.77-38.81v-327.89h-76.52v327.89zm-.96 265.06v-180.62h-76.51v180.62zm-60.8-213.14v-21.31h-89.35v21.311h89.35zm-73.78 213.14v-180.62h-76.51v180.62zm0-265.06v-327.89h-76.51v327.89z" fill="#394ea1"/><path d="m456.42 134.97h76.521v327.89h-76.521z" fill="#0071bc"/><path d="m546.6 488.55c7.24 0 13.11 5.87 13.11 13.12 0 7.24-5.87 13.11-13.11 13.11-7.25 0-13.119-5.87-13.119-13.11-.001-7.25 5.869-13.12 13.119-13.12zm-164.77 4.92h89.35v21.311h-89.35z" fill="#fbed24"/><path d="m611.14 70.94v703.87h-22.05v-680.69h-324.62v680.69h-22.02v-703.87z" fill="#0071bc"/><g fill="none"><g stroke="#231f20"><path d="m264.47 777.79v-683.67h324.62v683.67" stroke-width="6.558"/><path d="m242.45 779.2v-708.26h368.69v708.26" stroke-width="19.674"/><path d="m320.89 134.97h76.51v327.89h-76.51zm0 412.33h76.51v180.62h-76.51zm134.58 0h76.511v180.62h-76.511zm.95-412.33h76.521v327.89h-76.521z" stroke-width="19.674"/><path d="m381.83 493.47h89.35v21.311h-89.35zm177.88 8.2c0 7.24-5.87 13.11-13.11 13.11-7.25 0-13.119-5.87-13.119-13.11 0-7.25 5.869-13.12 13.119-13.12 7.24 0 13.11 5.87 13.11 13.12z" stroke-width="13.116"/><path d="m226.45 774.81h401.13" stroke-width="26.232"/></g><path d="m0 0h850.394v850.394h-850.394z"/></g></svg>