<svg height="850.394" viewBox="0 0 850.394 850.394" width="850.394" xmlns="http://www.w3.org/2000/svg"><path d="m653.25 210.86-.14-.24-.141.21v.01l-.02.02zm-460.37 149.36-.94 1.44c-10-6.47-16.42-10.7-17.14-11.33-3.54-3.09-31.37 17.23-31.37 17.23-5.74 3.53-4.86 7.07 1.77 14.14 10.47 11.16 68.47 46.37 68.47 46.37s110.43 65.39 118.82 68.47c8.4 3.1 18.55 2.21 21.2-2.65 1.04-1.899 1.71-6.76 1.5-12.33l1.18-.04s9.69 7.07 25.15 15.9c15.46 8.84 30.92 15.47 36.22 10.17s5.3-34.899.89-37.109c-4.42-2.2-181.99-115.291-188.62-118.831-6.17-3.29-33.44 7.13-37.13 8.57zm176.66-41.75c6.4-4.42 5.61-20.15 1.28-30.17-1.34-3.07-3-5.61-4.9-7.12-8.68-6.93-72.37-11.87-90.92-11.11-28.17 1.16-124.05 10.16-135.08 25.78-3.61 5.12-5.13 10.52-5.52 15.47-.82 10.15 3.04 18.39 3.04 18.39 2.41 6.62 10.47.5 33.27-6.99 22.81-7.5 78.35-15.1 115.74-16.22 37.4-1.13 69.93 15.75 80.98 12.93.78-.2 1.48-.52 2.11-.96zm79.31 212.85c-.34-.391-.68-.73-1.029-1.04-8.351-7.32-71.73-15.28-90.3-15.391-28.18-.189-124.39 4.271-136.15 19.341-4.66 5.989-6.26 12.52-6.5 18.229-.37 8.7 2.42 15.49 2.42 15.49 2.1 6.729 10.43.99 33.57-5.42 23.14-6.4 78.97-11.351 116.38-10.721 34.67.601 64.439 16.45 77.49 16.95 1.039.03 1.96-.02 2.779-.189 10.7-2.199 8.85-28.599 1.34-37.249zm294.72-398.88 22.109 452.97c0 3.56-1.26 6.82-3.37 9.37a14.683 14.683 0 0 1 -11.359 5.37h-652.05c-4.83 0-9.12-2.33-11.81-5.92a14.673 14.673 0 0 1 -2.93-8.82l22.1-452.97c0-8.14 6.6-14.74 14.74-14.74h607.84c8.14 0 14.73 6.6 14.73 14.74zm-32.18 262.68c8.13-7.99-9.529-30.69-20.52-32.32-10.98-1.61-68.54 26.09-84.2 36.08-23.77 15.13-102.16 71.08-103.85 90.12-1.7 19.06 14.859 30.53 14.859 30.53 5.41 4.529 9.301-4.82 25.261-22.75 15.96-17.94 60.159-52.4 91.93-72.17 31.78-19.76 68.39-21.5 76.52-29.49zm-42.86-84.2c1.029-4 .279-6.27-2.681-7.54-1.869-.81-4.64-1.22-8.399-1.41-15.29-.77-81.47 14.17-81.47 14.17s-124.87 29.62-133.07 33.22c-8.19 3.6-14.88 11.3-13.41 16.63.52 1.91 2.98 5.38 6.45 8.9-5.21 1.51-16.41 4.71-28.93 7.89-17.25 4.37-32.98 10.34-33.11 17.82-.14 7.5 20.41 28.8 25.12 27.33 4.71-1.479 211.02-43.4 218.24-45.459 7.23-2.06 20.28-33.06 20.28-33.06l-.1-.52c11.85-2.32 19.52-3.76 20.479-3.81.73-.03 1.5-.89 2.261-2.31 4.13-7.691 8.34-31.851 8.34-31.851zm-93.48-38.94c4.78-4.76 3.12-8-4.96-13.35-12.74-8.48-77.26-29.47-77.26-29.47s-122.47-38.35-131.36-39.44c-8.87-1.09-18.56 2.11-20.03 7.44-.52 1.91-.18 6.13 1 10.93-5.26-1.35-16.51-4.33-28.89-7.99-17.07-5.06-33.64-7.97-37.58-1.6-3.95 6.38 2.83 35.18 7.63 36.32 3.56.85 113.53 39.14 173.28 59.73l1 1.98a274.91 274.91 0 0 1 -9.43 4.72c-21.67 10.33-75.8 24.92-112.74 30.8-36.95 5.87-71.37-6.74-81.97-2.54-10.59 4.2-3.14 31.99 6.36 37.76 9.49 5.75 73.29 2.56 91.6-.55 27.78-4.72 121.75-25.84 130.71-42.73 3.41-6.44 3.95-12.91 3.32-18.43l3.029-.1c3.08 1.03 5.05 1.67 5.66 1.83 7.26 1.92 34.32-18.06 34.32-18.06l.18-.5c11.37 4.06 18.7 6.75 19.55 7.2 4.151 2.2 26.581-23.95 26.581-23.95z" fill="#6ebe44"/><path d="m762.49 594.93-12.74 123.14c0 7.029-5.7 12.739-12.74 12.739h-625.25c-7.03 0-12.74-5.71-12.74-12.739l-12.74-123.14.81-.699c2.69 3.59 6.98 5.92 11.81 5.92h652.05c4.569 0 8.66-2.091 11.359-5.37z" fill="#6ebe44"/><path d="m690.87 362.8c10.99 1.63 28.649 24.33 20.52 32.32-8.13 7.99-44.739 9.73-76.52 29.49-31.771 19.77-75.97 54.23-91.93 72.17-15.96 17.93-19.851 27.279-25.261 22.75 0 0-16.56-11.471-14.859-30.53 1.689-19.04 80.08-74.99 103.85-90.12 15.66-9.99 73.22-37.69 84.2-36.08zm-25.02-59.42c2.96 1.27 3.71 3.54 2.681 7.54 0 0-4.21 24.16-8.34 31.85l-1.36-.62-22.5-15.67 28.27-20.32z" fill="#faa41f"/><path d="m438.17 370.53.771 3.48c-.311.09-1.351.4-2.99.88-3.47-3.52-5.931-6.99-6.45-8.9-1.47-5.33 5.22-13.03 13.41-16.63 8.2-3.6 133.07-33.22 133.07-33.22s66.18-14.94 81.47-14.17c3.76.19 6.53.6 8.399 1.41l-1.25 2.78-28.27 20.32z" fill="#faa41f"/><path d="m438.94 374.01-.771-3.48 198.16-44.05 22.5 15.67 1.36.62c-.761 1.42-1.53 2.28-2.261 2.31-.96.05-8.63 1.49-20.479 3.81-45.92 8.98-154.61 31.21-178.311 37-7.479 1.83-16.97-4.68-23.189-11 1.641-.48 2.681-.79 2.991-.88z" fill="#faa41f"/><path d="m653.11 210.62.14.24h-.29l.01-.02v-.01z" fill="#fff"/><path d="m652.97 210.84-.01.02h-.01z" fill="#fff"/><g fill="#faa41f"><path d="m637.45 348.89.1.52s-13.05 31-20.28 33.06c-7.22 2.06-213.529 43.98-218.24 45.459-4.71 1.471-25.26-19.83-25.12-27.33.13-7.48 15.86-13.45 33.11-17.82 12.52-3.18 23.72-6.38 28.93-7.89 6.22 6.32 15.71 12.83 23.189 11 23.701-5.789 132.391-28.019 178.311-36.999zm-295.01-140.8c-1.18-4.8-1.52-9.02-1-10.93 1.47-5.33 11.16-8.53 20.03-7.44 8.89 1.09 131.36 39.44 131.36 39.44s64.52 20.99 77.26 29.47c8.08 5.35 9.74 8.59 4.96 13.35 0 0-22.43 26.15-26.58 23.95-.85-.45-8.18-3.14-19.55-7.2-44.08-15.75-148.85-52.18-172.17-59.32-7.37-2.25-12.19-12.72-14.31-21.32z"/><path d="m528.92 288.73-.18.5s-27.061 19.98-34.32 18.06c-.61-.16-2.58-.8-5.66-1.83l-3.029.1c-1.04-8.97-5.171-15.48-5.171-15.48-2.71-5.25-8.21-1.12-22.68 6.45l-1-1.98c-59.75-20.59-169.72-58.88-173.28-59.73-4.8-1.14-11.58-29.94-7.63-36.32 3.94-6.37 20.51-3.46 37.58 1.6 12.38 3.66 23.63 6.64 28.89 7.99 2.12 8.6 6.94 19.07 14.31 21.32 23.32 7.14 128.09 43.57 172.17 59.32z"/><path d="m485.73 305.56c.63 5.52.09 11.99-3.32 18.43-8.96 16.89-102.93 38.01-130.71 42.73-18.31 3.11-82.11 6.3-91.6.55-9.5-5.77-16.95-33.56-6.36-37.76 10.6-4.2 45.02 8.41 81.97 2.54 36.94-5.88 91.07-20.47 112.74-30.8 3.51-1.67 6.64-3.26 9.43-4.72 14.47-7.57 19.97-11.7 22.68-6.45 0 0 4.13 6.51 5.17 15.48zm-38.26 260.96-20.39-25-1.01-1.239 22.779-8.96c7.511 8.649 9.36 35.05-1.34 37.25-.819.17-1.74.22-2.779.189z"/><path d="m448.85 531.32-22.779 8.96 1.01 1.239c-2.11-.979-10.14-3.25-40.77-6.539-106.9-11.49-166.09 17.659-166.09 17.659l-5.35-.18c.24-5.71 1.84-12.24 6.5-18.229 11.76-15.07 107.97-19.53 136.15-19.341 18.57.11 81.95 8.07 90.3 15.391.349.31.689.65 1.029 1.04z"/><path d="m427.08 541.52 20.39 25-2.739 2.24c-13.051-.5-42.82-16.35-77.49-16.95-37.41-.63-93.24 4.32-116.38 10.721-23.14 6.41-31.47 12.149-33.57 5.42 0 0-2.79-6.79-2.42-15.49l5.35.18s59.19-29.149 166.09-17.659c30.629 3.288 38.659 5.558 40.769 6.538zm-8.45-71.04c4.41 2.21 4.41 31.81-.89 37.109-5.3 5.3-20.76-1.33-36.22-10.17-15.46-8.83-25.15-15.9-25.15-15.9l-1.18.04c-.31-8.6-2.71-18.89-9.01-22.56-21.11-12.32-115.09-72-154.24-97.34l.94-1.44c3.69-1.44 30.96-11.86 37.13-8.57 6.63 3.541 184.2 116.631 188.62 118.831zm-67.39-172.74-1.15-1.3 20.73-8.14c4.33 10.02 5.12 25.75-1.28 30.17z"/><path d="m370.82 288.3-20.73 8.14 1.15 1.3c-1.89-.94-9.59-3.23-40.9-6.6-106.9-11.48-174.04 20.32-174.04 20.32l-1.9-.14c.39-4.95 1.91-10.35 5.52-15.47 11.03-15.62 106.91-24.62 135.08-25.78 18.55-.76 82.24 4.18 90.92 11.11 1.9 1.51 3.56 4.05 4.9 7.12z"/><path d="m351.24 297.74 18.3 20.73c-.63.44-1.33.76-2.11.96-11.05 2.82-43.58-14.06-80.98-12.93-37.39 1.12-92.93 8.72-115.74 16.22-22.8 7.49-30.86 13.61-33.27 6.99 0 0-3.86-8.24-3.04-18.39l1.9.14s67.14-31.8 174.04-20.32c31.31 3.37 39.01 5.66 40.9 6.6zm3.95 183.82c.21 5.57-.46 10.431-1.5 12.33-2.65 4.86-12.8 5.75-21.2 2.65-8.39-3.08-118.82-68.47-118.82-68.47s-58-35.21-68.47-46.37c-6.63-7.07-7.51-10.61-1.77-14.14 0 0 27.83-20.32 31.37-17.23.72.63 7.14 4.86 17.14 11.33 39.15 25.34 133.13 85.02 154.24 97.34 6.3 3.67 8.7 13.96 9.01 22.56z"/></g><g fill="none" stroke="#231f20"><path d="m87.09 594.23a14.673 14.673 0 0 1 -2.93-8.82l22.1-452.97c0-8.14 6.6-14.74 14.74-14.74h607.84c8.141 0 14.73 6.6 14.73 14.74l22.109 452.97c0 3.56-1.26 6.82-3.37 9.37a14.683 14.683 0 0 1 -11.359 5.37h-652.05c-4.83 0-9.12-2.33-11.81-5.92z" stroke-width="21"/><path d="m652.97 210.84-.01.02m37.15-60.05-37 59.81-.14.21m51.86-43.1-28.39 6.03m-8.05-28.57 7.28 28.09m-59.75 97.47 36.97-59.78.06-.11.02-.02v-.01m-51.78 43 28.39-6.03m8.04 28.57-7.27-28.09m-14.55-97.98 37.21 60.15m-51.94-43.24 28.39 6.03m8.04-28.57-7.27 28.1" stroke-width="14"/><path d="m689.98 270.23-36.73-59.37-.14-.24-.19-.3m51.79 42.99-28.39-6.02m-8.05 28.56 7.28-28.09m48.2-36.9h-70.58m63.94 21.42-20.07-20.97m20.07-21.87-20.07 20.96m-114.32.46h70.45m-63.81-21.43 20.07 20.97m-20.07 21.88 20.07-20.97" stroke-width="14"/><path d="m762.49 594.93-12.74 123.14c0 7.029-5.7 12.739-12.74 12.739h-625.25c-7.03 0-12.74-5.71-12.74-12.739l-12.74-123.14" stroke-width="21"/><g stroke-width="14"><path d="m192.46 360.38s.14-.06.42-.16c3.69-1.44 30.96-11.86 37.13-8.57 6.63 3.54 184.2 116.63 188.62 118.831 4.41 2.21 4.41 31.81-.89 37.109-5.3 5.3-20.76-1.33-36.22-10.17-15.46-8.83-25.15-15.9-25.15-15.9"/><path d="m355.19 481.56c.21 5.57-.46 10.431-1.5 12.33-2.65 4.86-12.8 5.75-21.2 2.65-8.39-3.08-118.82-68.47-118.82-68.47s-58-35.21-68.47-46.37c-6.63-7.07-7.51-10.61-1.77-14.14 0 0 27.83-20.32 31.37-17.23.72.63 7.14 4.86 17.14 11.33 39.15 25.34 133.13 85.02 154.24 97.34 6.3 3.67 8.7 13.96 9.01 22.56zm101.69-187.01c-59.75-20.59-169.72-58.88-173.28-59.73-4.8-1.14-11.58-29.94-7.63-36.32 3.94-6.37 20.51-3.46 37.58 1.6 12.38 3.66 23.63 6.64 28.89 7.99 2 .53 3.13.81 3.13.81m183.17 80.33s-27.061 19.98-34.32 18.06c-.61-.16-2.58-.8-5.66-1.83"/><path d="m342.44 208.09c-1.18-4.8-1.52-9.02-1-10.93 1.47-5.33 11.16-8.53 20.03-7.44 8.89 1.09 131.36 39.44 131.36 39.44s64.52 20.99 77.26 29.47c8.08 5.35 9.74 8.59 4.96 13.35 0 0-22.43 26.15-26.58 23.95-.85-.45-8.18-3.14-19.55-7.2-44.08-15.75-148.85-52.18-172.17-59.32-7.37-2.25-12.19-12.72-14.31-21.32zm295.11 141.32s-13.05 31-20.28 33.06c-7.22 2.06-213.529 43.98-218.24 45.459-4.71 1.471-25.26-19.83-25.12-27.33.13-7.48 15.86-13.45 33.11-17.82 12.52-3.18 23.72-6.38 28.93-7.89 1.64-.48 2.68-.79 2.99-.88l.1-.03"/><path d="m665.85 303.38c2.96 1.27 3.71 3.54 2.681 7.54 0 0-4.21 24.16-8.34 31.85-.761 1.42-1.53 2.28-2.261 2.31-.96.05-8.63 1.49-20.479 3.81-45.92 8.98-154.61 31.21-178.311 37-7.479 1.83-16.97-4.68-23.189-11-3.47-3.52-5.931-6.99-6.45-8.9-1.47-5.33 5.22-13.03 13.41-16.63 8.2-3.6 133.07-33.22 133.07-33.22s66.18-14.94 81.47-14.17c3.759.19 6.529.6 8.399 1.41zm-296.31 15.09c-.63.44-1.33.76-2.11.96-11.05 2.82-43.58-14.06-80.98-12.93-37.39 1.12-92.93 8.72-115.74 16.22-22.8 7.49-30.86 13.61-33.27 6.99 0 0-3.86-8.24-3.04-18.39.39-4.95 1.91-10.35 5.52-15.47 11.03-15.62 106.91-24.62 135.08-25.78 18.55-.76 82.24 4.18 90.92 11.11 1.9 1.51 3.56 4.05 4.9 7.12 4.33 10.02 5.12 25.75-1.28 30.17z"/><path d="m457.88 296.53c14.47-7.57 19.97-11.7 22.68-6.45 0 0 4.131 6.51 5.171 15.48.63 5.52.09 11.99-3.32 18.43-8.96 16.89-102.93 38.01-130.71 42.73-18.31 3.11-82.11 6.3-91.6.55-9.5-5.77-16.95-33.56-6.36-37.76 10.6-4.2 45.02 8.41 81.97 2.54 36.94-5.88 91.07-20.47 112.74-30.8 3.509-1.67 6.639-3.26 9.429-4.72zm-13.15 272.23c-13.051-.5-42.82-16.35-77.49-16.95-37.41-.63-93.24 4.32-116.38 10.721-23.14 6.41-31.47 12.149-33.57 5.42 0 0-2.79-6.79-2.42-15.49.24-5.71 1.84-12.24 6.5-18.229 11.76-15.07 107.97-19.53 136.15-19.341 18.57.11 81.95 8.07 90.3 15.391.35.31.689.649 1.029 1.04 7.511 8.649 9.36 35.05-1.34 37.25-.819.168-1.739.218-2.779.188zm72.95-49.23s-16.56-11.471-14.859-30.53c1.689-19.04 80.08-74.99 103.85-90.12 15.66-9.99 73.22-37.69 84.2-36.08 10.99 1.63 28.649 24.33 20.52 32.32-8.13 7.99-44.739 9.73-76.52 29.49-31.771 19.77-75.97 54.23-91.93 72.17-15.961 17.93-19.851 27.28-25.261 22.75z"/></g><path d="m437.56 370.66.61-.13 198.16-44.05 28.27-20.32m-444.38 246.48s59.19-29.149 166.09-17.659c30.63 3.289 38.66 5.56 40.77 6.539.74.33.75.521.75.53" stroke-width="7"/><path d="m447.51 566.57-.04-.05-20.39-25-1.01-1.24 22.78-8.96 1.96-.77m-314.51-219.09s67.14-31.8 174.04-20.32c31.31 3.37 39.01 5.66 40.9 6.6.61.3.62.46.62.47" stroke-width="7"/><path d="m371.54 320.73-2-2.26-18.3-20.73-1.15-1.3 20.73-8.14 4.01-1.58m261.5 39.76 22.5 15.67" stroke-width="7"/></g><path d="m0 0h850.394v850.394h-850.394z" fill="none"/></svg>