<svg height="850.394" viewBox="0 0 850.394 850.394" width="850.394" xmlns="http://www.w3.org/2000/svg"><path d="m413.7 772.25c2.57 2.06 3.86 4.05 3.39 5.66-1.2 4.1-13.27 4.189-26.98.2-13.69-3.98-23.84-10.53-22.65-14.63.35-1.2 1.64-2.061 3.62-2.561 4.79-1.24 13.66-.46 23.35 2.36 8.31 2.421 15.31 5.781 19.27 8.971z" fill="#abda4d"/><path d="m454.35 468.69v.01l-40.65 303.55c-3.96-3.19-10.96-6.55-19.27-8.97-9.69-2.82-18.56-3.601-23.35-2.36l-20.44-291.94h.07c0-13.061 24.05-25.08 51.96-25.08 27.89 0 51.67 11.73 51.68 24.79zm154.42-352.53c13.131 7.45 21.44 15.72 23.771 24.47.44 1.67.67 3.36.67 5.07l-.42 79.34-7.88 10.31c-3.41-35.28-97.26-59.07-222.24-59.07-113.37 0-206.97 26.02-226.12 57.41l-3.59-4.61v-80.05c0-36.38 102.38-69.2 229.71-69.2 90.139 0 168.199 14.78 206.099 36.33z" fill="#00e800"/><path d="m624.91 235.35-168.88 220.79-1.681 12.551c-.01-13.061-23.79-24.79-51.68-24.79-27.91 0-51.96 12.02-51.96 25.08h-.07l-.92-13.12-173.169-222.171c19.15-31.39 112.75-57.41 226.12-57.41 124.98 0 218.83 23.79 222.24 59.07z" fill="#00e800"/><g fill="none"><g stroke="#231f20"><path d="m371.26 763.53-.18-2.61-20.44-291.94-.92-13.12-173.17-222.17-3.59-4.61v-80.05m281.39 319.66 1.681-12.551 168.88-220.79 7.88-10.31.42-79.34c0-1.71-.229-3.4-.67-5.07-2.33-8.75-10.64-17.02-23.771-24.47-37.899-21.55-115.96-36.33-206.1-36.33-127.33 0-229.71 32.82-229.71 69.2m240.17 627.471.57-4.25 40.65-303.55" stroke-width="21"/><path d="m176.54 233.7s0-.01.01-.01c19.15-31.39 112.75-57.41 226.12-57.41 124.98 0 218.83 23.79 222.24 59.07.07.66.1 1.33.1 2" stroke-width="21"/><path d="m413.7 772.25c2.57 2.06 3.86 4.05 3.39 5.66-1.2 4.1-13.27 4.189-26.98.2-13.69-3.98-23.84-10.53-22.65-14.63.35-1.2 1.64-2.061 3.62-2.561 4.79-1.24 13.66-.46 23.35 2.36 8.31 2.421 15.31 5.781 19.27 8.971z" stroke-width="14"/><path d="m608.75 116.16h.02c.961-.29 29.341-8.73 47.78-3.4 18.76 5.42 27.521 19.18 14.59 20.85-12.92 1.67-29.6.83-35.02 6.25m-285.41 329.12c0-13.061 24.05-25.08 51.96-25.08 27.89 0 51.67 11.729 51.68 24.79v.01" stroke-width="21"/></g><path d="m0 0h850.394v850.394h-850.394z"/></g></svg>