<svg height="850.394" viewBox="0 0 850.394 850.394" width="850.394" xmlns="http://www.w3.org/2000/svg"><g fill="#fff5b4"><path d="m329.38 759.71-54.82.27-89.44-194.47 74.25-106.67-93.07-160.01 67.97-72.15-71.11-139.09 55.43.29v.75l71.11 139.09-67.98 72.16 93.08 160-74.25 106.67z"/><path d="m386.77 759.42-57.39.29-88.83-193.16 74.25-106.67-93.08-160 67.98-72.16-71.11-139.09v-.75l57.51.3v.45l71.12 139.09-67.98 72.16 93.07 160-74.25 106.67z"/><path d="m441.59 759.15-54.82.27-88.71-192.87 74.25-106.67-93.07-160 67.98-72.16-71.12-139.09v-.45l55.44.29-.01 1.21 71.11 139.09-67.97 72.16 93.07 160-74.25 106.67z"/><path d="m505.15 758.84-63.56.31-88.1-191.55 74.25-106.67-93.07-160 67.97-72.16-71.11-139.09.01-1.21 63.36.33 70.49 137.88-67.98 72.15 93.08 160.01-74.25 106.67z"/><path d="m471.66 566.55 88.31 192.02-54.82.27-88.91-193.33 74.25-106.67-93.08-160.01 67.98-72.15-70.49-137.88 55.03.29 70.88 138.63-67.97 72.16 93.07 160z"/><path d="m530.23 566.55 88.17 191.73-58.43.29-88.31-192.02 74.25-106.67-93.07-160 67.97-72.16-70.88-138.63 58.73.3 70.72 138.33-67.98 72.16 93.08 160z"/><path d="m585.65 567.6 87.57 190.41-54.82.27-88.17-191.73 74.25-106.67-93.08-160 67.98-72.16-70.72-138.33 55.03.29 71.11 139.09-67.97 72.16 93.07 160z"/></g><g fill="none"><g stroke="#231f20"><path d="m163.16 87.59 71.11 139.09-67.97 72.15 93.07 160.01-74.25 106.67 89.44 194.47.5 1.09" stroke-width="25.099"/><path d="m218.59 88.63 71.11 139.09-67.98 72.16 93.08 160-74.25 106.67 88.83 193.16 1.1 2.4" stroke-width="8.366"/><path d="m276.1 88.63 71.12 139.09-67.98 72.16 93.07 160-74.25 106.67 88.71 192.87 1.23 2.69" stroke-width="25.099"/><path d="m331.53 89.68 71.11 139.09-67.97 72.16 93.07 160-74.25 106.67 88.1 191.55 1.84 4.01" stroke-width="8.366"/><path d="m394.28 87.59.62 1.21 70.49 137.88-67.98 72.15 93.08 160.01-74.25 106.67 88.91 193.33 1.02 2.23" stroke-width="25.099"/><path d="m449.7 88.63.23.46 70.88 138.63-67.97 72.16 93.07 160-74.25 106.67 88.31 192.02 1.63 3.54" stroke-width="8.366"/><path d="m508.27 88.63.39.76 70.72 138.33-67.98 72.16 93.08 160-74.25 106.67 88.17 191.73 1.76 3.83" stroke-width="25.099"/><path d="m563.69 89.68 71.11 139.09-67.97 72.16 93.07 160-74.25 106.67 87.57 190.41 2.37 5.15" stroke-width="8.366"/></g><path d="m0 0h850.394v850.394h-850.394z"/></g></svg>