<svg height="850.394" viewBox="0 0 850.394 850.394" width="850.394" xmlns="http://www.w3.org/2000/svg"><path d="m417.76 563.02.31-.02c.76 12.8 1.26 27.43 1.26 43.7 0 18.24-2 131.569-4.82 175.479l-91.85 1.61-8.49-150.54-17.56-.08-9.31 150.62-91.41-5.74c-2.9-44.939-4.97-153.6-4.97-172.17 0-13.72.28-30.6.72-48.689l3.91.02h218.7l3.2-.17z" fill="#bd2025"/><path d="m147.43 575.7c3.37 6.25 10.36 33.25 10.36 51.3 0 6.28-.85 11.48-2.99 14.34-5.11.74-3.04-9.939-10.22-10.34-3.43 7.53-2.39 29.5-11.44 31.84-8.14 2.18-18.36-6.18-21.25-12.68-4.91-11.061-8.45-47.63-3.48-78.48 0 0 .27-3.699.79-9.92l2.8.24 34 8 2.85.83zm352.67-2.58c4.98 30.85 1.44 67.42-3.47 78.479-2.89 6.5-13.1 14.86-21.25 12.681-9.04-2.351-8-24.311-11.43-31.84-7.181.399-5.12 11.079-10.22 10.34-2.141-2.87-2.99-8.07-2.99-14.36 0-18.05 6.99-45.03 10.34-51.28l-2.01-6.87.93-.27 36-4 3.51-.29c.39 4.69.59 7.41.59 7.41z" fill="#ffeec8"/><path d="m409.71 407.57 7.74 149.47-3.2.17h-218.7l-3.91-.02c1.54-62.94 5.05-140.561 5.54-151.141l-.16-.01-48.17 164.79-2.85-.829-34-8-2.8-.24c1.99-23.75 7.55-84.26 15.08-115.49 27.13-112.529 56-163.31 56-163.31 11.89-11.88 34.78-25.86 54.7-36.88 4.67-2.58 9.17-5 13.34-7.19l5.14.13c7.77 18.91 27.54 32.36 50.69 32.36 23.2 0 42.98-13.48 50.73-32.44l1.6-3.06c21.56 11.23 59.44 32.17 75.97 48.7 0 0 24.66 50.6 51.79 163.12 7.81 32.399 13.5 96.31 15.27 118.01l-3.51.29-36 4-.93.27-47.57-162.79z" fill="#34a047"/><path d="m582.63 242.93c10.29 0 20.16 4.23 21.94 15.42-3.4 5.28-7.08 10.79-10.261 15.75-11.649 18.14-42.42 65.36-56.449 82.74-14.04 17.37-24.801 8.93-27.4.66-3.69-11.78 5.18-24.21 5.18-24.21s41.721-59.08 66.891-90.44zm162.48 90.24s8.87 12.45 5.18 24.22c-2.6 8.27-13.36 16.7-27.4-.66-14.029-17.38-44.8-64.6-56.449-82.74-3.851-5.98-8.4-12.77-12.341-18.99 2.23-10.37 11.79-14.33 21.74-14.33l.43-.35c24.89 30.62 68.84 92.85 68.84 92.85z" fill="#9c5c25"/><path d="m676.27 240.32-.43.35c-9.95 0-19.51 3.96-21.74 14.33-5.409-8.55-9.68-16.02-9.38-18.87.061-.59.21-1.22.44-1.87 1.96-5.61 9.63-12.83 16.7-9.28.989.5 1.96 1.2 2.899 2.14 2.911 2.9 6.881 7.51 11.511 13.2zm-77.36-15.24v-.01c7.89-3.93 16.52 5.54 17.12 11.17.06.61-.08 1.44-.41 2.45h-.01c-1.36 4.25-5.9 11.7-11.04 19.66-1.78-11.19-11.65-15.42-21.94-15.42l-.1-.08c5.46-6.82 10.149-12.32 13.46-15.63.95-.95 1.93-1.65 2.92-2.14z" fill="#c8c8c8"/><path d="m621.75 230.99c-2.53 3.78-5.86 7.4-6.13 7.7.33-1.01.47-1.84.41-2.45-.601-5.63-9.23-15.1-17.12-11.17.29-.35 4.01-5.01 11.55-15.22l1.33-.61c3.62 7.96 7.29 15.01 9.84 19.63.29.53.61 1.02.94 1.47zm12.48-21.74c0 3.08-2.69 5.57-6.011 5.57-3.319 0-6.02-2.49-6.02-5.57 0-3.07 2.7-5.56 6.02-5.56 3.321 0 6.011 2.49 6.011 5.56zm7.3-12.75c-3.82-8.41-6.73-17.67-11.25-31.08-1.71-5.07-4.141-13.18-6.761-22.37 5.851-20.58 12.561-46.35 14.261-55.52 2.439-13.37 6.67-16.49 10.46-12.7 3.779 3.79 5.109 25.39 5.109 41.87s-3.55 45.65-6.68 59.46c-1.349 6-2.179 12.39-5.139 20.34z" fill="#c8c8c8"/><path d="m641.53 196.5c.12.25.229.51.35.76 7.25 15.57 19.98 27.72 19.98 27.72-7.07-3.55-14.74 3.67-16.7 9.28l-.9.4s-15.05 4.64-21.689-4.32c-.33-.45-.65-.94-.94-1.47-2.55-4.62-6.22-11.67-9.84-19.63-4.93-10.82-9.771-23.3-11.57-33.58-2.439-13.93-6.68-42.98-6.68-59.46 0-16.47 1.34-38.08 5.11-41.86 3.79-3.79 8.029-.67 10.479 12.69 1.7 9.25 8.51 35.36 14.39 56.02 2.62 9.19 5.051 17.3 6.761 22.37 4.519 13.41 7.429 22.67 11.249 31.08zm-13.31 18.32c3.32 0 6.011-2.49 6.011-5.57 0-3.07-2.69-5.56-6.011-5.56-3.319 0-6.02 2.49-6.02 5.56 0 3.08 2.7 5.57 6.02 5.57z" fill="#c8c8c8"/><g fill="#ffeec8"><path d="m363.8 147.6c1.48-.53 3.15-.71 4.96-.42 6.91 1.11 5.97 8.86 4.08 12.73-4.62 9.41-2.51 12.87-3.09 20.05-.23 2.73-3.34 8.04-9.84 6.79l-.35-.1c2.32-8.09 3.69-16.61 3.69-25.27 0-4.9-.06-8.31-.22-14.23.05.19.09.39.13.59zm-7.32 88.28-1.6 3.06c-7.75 18.96-27.53 32.44-50.73 32.44-23.15 0-42.92-13.45-50.69-32.36l-5.14-.13c11.23-5.9 19.96-10.15 22.66-11.45 5.39 6.27 11.05 11.13 16.36 14.11 5.99 2.65 10.36 1.97 17.17 1.97 7.38 0 12.24.44 18.62-2.64 4.56-2.91 9.53-7.38 14.37-13.05l3.23.07s6.31 3.06 15.75 7.98z"/><path d="m340.71 155.44c-2.07-1-4.33-1.56-6.75-1.51-3.23.08-6.55 1.41-9.05 3.55l1.94.01c.01.22.07.44.07.95 0 3.55 3.03 6.43 6.76 6.43 3.71 0 6.74-2.88 6.74-6.43 0-.98.06-1.43-.18-1.99zm-69.73 72c-8.84-10.29-16.93-24.39-21.45-40.17-2.36-8.27-3.75-17-3.75-25.89 0-2.95 0-8.1.04-13.08.03-2.79.07-5.53.12-7.79h-.98c6.42-8.31 16.04-18.22 16.04-18.22 5.18-3.81 45.99-17.27 58.06-25.7.13.12.37.22.68.31 2.62 1.61 13.5 9.04 27.88 28.91 2.66 3.67 13.01 11.79 15.41 21.33v.01c.16 5.92.22 9.33.22 14.23 0 8.66-1.37 17.18-3.69 25.27-4.65 16.23-13.13 30.74-22.06 41.18-4.84 5.67-9.81 10.14-14.37 13.05-6.38 3.08-11.24 2.64-18.62 2.64-6.81 0-11.18.68-17.17-1.97-5.31-2.98-10.97-7.84-16.36-14.11zm36.15-26.36h-.02c-.08.02-.17.04-.26.05l.57-.04c-.1 0-.2 0-.29-.01zm-29.2-36.01c3.72 0 7.4-4.84 7.4-8.4-2.28-1.55-5.02-2.48-7.7-2.54-2.47-.05-4.77.53-6.86 1.57l.52 1.11c-.17.49-.12.94-.12 1.82 0 3.56 3.03 6.44 6.76 6.44z"/><path d="m245.03 148.29.79.01c-.04 4.98-.04 10.13-.04 13.08 0 8.89 1.39 17.62 3.75 25.89l-.61.17c-6.49 1.24-9.61-4.06-9.83-6.79-.59-7.19 1.52-10.65-3.09-20.06-1.9-3.87-2.83-11.62 4.07-12.73 1.82-.28 3.48-.1 4.96.43z"/></g><path d="m368.76 147.18c-1.81-.29-3.48-.11-4.96.42l-.64.14c-.04-.2-.08-.4-.13-.59v-.01c-2.4-9.54-12.75-17.66-15.41-21.33-14.38-19.87-25.26-27.3-27.88-28.91-.4-.25-.61-.36-.61-.36-.02.02-.05.03-.07.05-12.07 8.43-52.88 21.89-58.06 25.7 0 0-9.62 9.91-16.04 18.22-2.15 2.77-3.94 5.36-4.89 7.35l-.6-19.57c0-31.21 25.48-49.33 25.48-49.33 2.94-2.01 4.92-3.02 4.92-3.02 12.99-7.73 29.81-10.45 51.24-7.96 25.89 3.02 45.75 28.81 49.53 60.9.62 5.21-.98 12.78-1.88 18.3z" fill="#9c5c25"/><path d="m280.33 158.51c0 1.2-1.09 2.17-2.43 2.17s-2.44-.97-2.44-2.17c0-1.21 1.1-2.17 2.44-2.17s2.43.96 2.43 2.17zm53.3-2.19c1.35 0 2.44.97 2.44 2.17s-1.09 2.17-2.44 2.17c-1.34 0-2.43-.97-2.43-2.17s1.09-2.17 2.43-2.17z" fill="#231f20"/><path d="m331.2 158.49c0 1.2 1.09 2.17 2.43 2.17 1.35 0 2.44-.97 2.44-2.17s-1.09-2.17-2.44-2.17c-1.34 0-2.43.97-2.43 2.17zm-6.29-1.01c2.5-2.14 5.82-3.47 9.05-3.55 2.42-.05 4.68.51 6.75 1.51l-.47 1.01c.24.56.18 1.01.18 1.99 0 3.55-3.03 6.43-6.74 6.43-3.73 0-6.76-2.88-6.76-6.43 0-.51-.06-.73-.07-.95zm-44.58 1.03c0-1.21-1.09-2.17-2.43-2.17s-2.44.96-2.44 2.17c0 1.2 1.1 2.17 2.44 2.17s2.43-.97 2.43-2.17zm-9.56-2.81c2.09-1.04 4.39-1.62 6.86-1.57 2.68.06 5.42.99 7.7 2.54 0 3.56-3.68 8.4-7.4 8.4-3.73 0-6.76-2.88-6.76-6.44 0-.88-.05-1.33.12-1.82z" fill="#fff"/><g fill="none" stroke="#231f20"><path d="m290.74 218.22c8.49 3.39 21.96 2.99 29.18-.16" stroke-width="7"/><path d="m195.89 778.05c-2.9-44.939-4.97-153.6-4.97-172.17 0-13.72.28-30.6.72-48.689 1.54-62.94 5.05-140.561 5.54-151.141.03-.8.05-1.22.05-1.22m220.76 162.59-.23-4.4-.31-5.98-7.74-149.47-.1-1.87m4.9 376.48c2.82-43.91 4.82-157.239 4.82-175.479 0-16.271-.5-30.9-1.26-43.7m-95.41 220.789-8.49-150.54-17.56-.08-9.31 150.62m-91.75-226.58h218.7" stroke-width="14"/><g stroke-linecap="square" stroke-miterlimit="10"><path d="m263.64 161.53c2-2.41 4.39-4.5 7.13-5.83 2.09-1.04 4.39-1.62 6.86-1.57 2.68.06 5.42.99 7.7 2.54 1.72 1.14 3.17 2.64 4.15 4.37" stroke-width="6.405"/><path d="m285.33 156.67c0 3.56-3.68 8.4-7.4 8.4-3.73 0-6.76-2.88-6.76-6.44 0-.88-.05-1.33.12-1.82" stroke-width="3.203"/><path d="m347.96 161.33c-2.02-2.44-4.46-4.56-7.25-5.89-2.07-1-4.33-1.56-6.75-1.51-3.23.08-6.55 1.41-9.05 3.55-1.13.97-2.09 2.11-2.8 3.37" stroke-width="6.405"/><path d="m326.85 157.49c.01.22.07.44.07.95 0 3.55 3.03 6.43 6.76 6.43 3.71 0 6.74-2.88 6.74-6.43 0-.98.06-1.43-.18-1.99" stroke-width="3.203"/></g><path d="m245.03 148.29c-1.48-.53-3.14-.71-4.96-.43-6.9 1.11-5.97 8.86-4.07 12.73 4.61 9.41 2.5 12.87 3.09 20.06.22 2.73 3.34 8.03 9.83 6.79m114.88-39.84c1.48-.53 3.15-.71 4.96-.42 6.91 1.11 5.97 8.86 4.08 12.73-4.62 9.41-2.51 12.87-3.09 20.05-.23 2.73-3.34 8.04-9.84 6.79" stroke-width="6.405"/><path d="m363.03 147.15c.16 5.92.22 9.33.22 14.23 0 8.66-1.37 17.18-3.69 25.27-4.65 16.23-13.13 30.74-22.06 41.18-4.84 5.67-9.81 10.14-14.37 13.05-6.38 3.08-11.24 2.64-18.62 2.64-6.81 0-11.18.68-17.17-1.97-5.31-2.98-10.97-7.84-16.36-14.11-8.84-10.29-16.93-24.39-21.45-40.17-2.36-8.27-3.75-17-3.75-25.89 0-2.95 0-8.1.04-13.08.03-2.79.07-5.53.12-7.79m117.07 5.94c.01.23.01.46.02.69" stroke-width="14"/><path d="m307.13 201.08c3.18-.6 2.62-2.5 6.06-1.66 2.98.72 6.13 2.21 6.87-2.45.52-3.2-1.89-3.62-3.17-6.19" stroke-width="7"/><path d="m297.05 161.18c5.33 5.86 3.71 19.62 1.33 26.78l-1.01 2.79c-1.28 2.57-3.68 2.98-3.17 6.19.74 4.65 3.9 3.16 6.87 2.45 3.44-.84 2.65 1.56 6.04 1.69h.02c.09.01.19.01.29.01l-.57.04c.09-.01.18-.03.26-.05" stroke-width="7"/><path d="m280.33 158.51c0 1.2-1.09 2.17-2.43 2.17s-2.44-.97-2.44-2.17c0-1.21 1.1-2.17 2.44-2.17s2.43.96 2.43 2.17zm55.74-.02c0 1.2-1.09 2.17-2.44 2.17-1.34 0-2.43-.97-2.43-2.17s1.09-2.17 2.43-2.17c1.35 0 2.44.97 2.44 2.17z" stroke-width="3.203"/><path d="m293.51 150.43c-2.88-6.06-14.14-8.42-19.85-7.29-5.35 1.07-8.01 1.72-13.6 6.05m56.79-.09c2.88-6.06 14.14-8.42 19.84-7.28 5.36 1.07 8.02 1.71 13.6 6.04" stroke-width="7"/><path d="m368.76 147.18c.9-5.52 2.5-13.09 1.88-18.3-3.78-32.09-23.64-57.88-49.53-60.9-21.43-2.49-38.25.23-51.24 7.96 0 0-1.98 1.01-4.92 3.02 0 0-25.48 18.12-25.48 49.33l.6 19.57c.95-1.99 2.74-4.58 4.89-7.35 6.42-8.31 16.04-18.22 16.04-18.22 5.18-3.81 45.99-17.27 58.06-25.7.02-.02.05-.03.07-.05 0 0 .21.11.61.36 2.62 1.61 13.5 9.04 27.88 28.91 2.66 3.67 13.01 11.79 15.41 21.33v.01c.05.19.09.39.13.59.18.82.3 1.66.34 2.5" stroke-width="14"/><path d="m323.85 97.44c-.61.01-2.89-.17-4.11-.54-.31-.09-.55-.19-.68-.31a.305.305 0 0 1 -.1-.13c3.7-3.61 6.63-9.5 6.63-15.47m-217.18 490.69s.27-3.699.79-9.92c1.99-23.75 7.55-84.26 15.08-115.49 27.13-112.529 56-163.31 56-163.31 11.89-11.88 34.78-25.86 54.7-36.88 4.67-2.58 9.17-5 13.34-7.19 11.23-5.9 19.96-10.15 22.66-11.45.57-.27.87-.41.87-.41m-74.83 179.01-48.17 164.79-1.42 4.87c3.37 6.25 10.36 33.25 10.36 51.3 0 6.28-.85 11.48-2.99 14.34-5.11.74-3.04-9.939-10.22-10.34-3.43 7.53-2.39 29.5-11.44 31.84-8.14 2.18-18.36-6.18-21.25-12.68-4.91-11.061-8.45-47.63-3.48-78.48m3.59-9.68 34 8m354.1 3.12s-.199-2.72-.59-7.41c-1.77-21.7-7.46-85.61-15.27-118.01-27.13-112.52-51.79-163.12-51.79-163.12-16.53-16.53-54.41-37.47-75.97-48.7-9.44-4.92-15.75-7.98-15.75-7.98" stroke-width="14"/><path d="m411.5 407.48 47.57 162.79 2.01 6.87c-3.35 6.25-10.34 33.23-10.34 51.28 0 6.29.85 11.49 2.99 14.36 5.1.739 3.039-9.94 10.22-10.34 3.43 7.529 2.39 29.489 11.43 31.84 8.15 2.18 18.36-6.181 21.25-12.681 4.91-11.06 8.45-47.63 3.47-78.479" stroke-width="14"/><path d="m496 566-36 4" stroke-width="19.216"/><path d="m354.88 238.94c-7.75 18.96-27.53 32.44-50.73 32.44-23.15 0-42.92-13.45-50.69-32.36" stroke-width="14"/><path d="m598.91 225.08c-.99.49-1.97 1.19-2.92 2.14-3.311 3.31-8 8.81-13.46 15.63-25.17 31.36-66.891 90.44-66.891 90.44s-8.87 12.43-5.18 24.21c2.6 8.27 13.36 16.71 27.4-.66 14.029-17.38 44.8-64.6 56.449-82.74 3.181-4.96 6.86-10.47 10.261-15.75 5.14-7.96 9.68-15.41 11.04-19.66m.011 0c.33-1.01.47-1.84.41-2.45-.601-5.63-9.23-15.1-17.12-11.17m35.32-15.82c0 3.08-2.69 5.57-6.011 5.57-3.319 0-6.02-2.49-6.02-5.57 0-3.07 2.7-5.56 6.02-5.56 3.321 0 6.011 2.49 6.011 5.56z" stroke-width="7"/><path d="m598.9 225.09.01-.01v-.01c.29-.35 4.01-5.01 11.55-15.22" stroke-width="12.81"/><path d="m676.27 240.32c24.891 30.62 68.841 92.85 68.841 92.85s8.87 12.45 5.18 24.22c-2.6 8.27-13.36 16.7-27.4-.66-14.029-17.38-44.8-64.6-56.449-82.74-3.851-5.98-8.4-12.77-12.341-18.99-5.409-8.55-9.68-16.02-9.38-18.87.061-.59.21-1.22.44-1.87 1.96-5.61 9.63-12.83 16.7-9.28.989.5 1.96 1.2 2.899 2.14 2.91 2.9 6.88 7.51 11.51 13.2zm-34.74-43.82c-.21-.46-.41-.92-.61-1.39m20.94 29.87s-12.73-12.15-19.98-27.72" stroke-width="7"/><path d="m615.6 238.7.011-.01h.01c.27-.3 3.6-3.92 6.13-7.7" stroke-width="12.81"/><path d="m644.26 234.66s-15.05 4.64-21.689-4.32c-.33-.45-.65-.94-.94-1.47-2.55-4.62-6.22-11.67-9.84-19.63-4.93-10.82-9.771-23.3-11.57-33.58-2.439-13.93-6.68-42.98-6.68-59.46 0-16.47 1.34-38.08 5.11-41.86 3.79-3.79 8.029-.67 10.479 12.69 1.7 9.25 8.51 35.36 14.39 56.02 2.62 9.19 5.051 17.3 6.761 22.37 4.52 13.41 7.43 22.67 11.25 31.08.12.25.229.51.35.76" stroke-width="7"/><path d="m641.25 197.26c.1-.26.19-.51.28-.76 2.96-7.95 3.79-14.34 5.14-20.34 3.13-13.81 6.68-42.98 6.68-59.46s-1.33-38.08-5.109-41.87c-3.79-3.79-8.021-.67-10.46 12.7-1.7 9.17-8.41 34.94-14.261 55.52m-40.89 99.88c10.29 0 20.16 4.23 21.94 15.42.04.2.069.4.1.61m71.17-18.29c-9.95 0-19.51 3.96-21.74 14.33-.13.55-.229 1.12-.31 1.71" stroke-width="7"/></g><path d="m0 0h850.394v850.394h-850.394z" fill="none"/></svg>