<svg height="850.394" viewBox="0 0 850.394 850.394" width="850.394" xmlns="http://www.w3.org/2000/svg"><g fill="#c8c8c8"><path d="m83.81 458.9c6.89 0 12.48 5.59 12.48 12.479s-5.59 12.47-12.48 12.47-12.48-5.58-12.48-12.47 5.59-12.479 12.48-12.479z"/><path d="m126.79 456.03v64.149c-31.27-.229-54.68-3.55-67.57-25.88-11.76-20.35-4.78-39.81 9.09-48.43a30.56 30.56 0 0 1 10.36-4.101c30.3-5.939 45.74 14.261 45.74 14.261h2.38zm-30.5 15.35c0-6.89-5.59-12.479-12.48-12.479s-12.48 5.59-12.48 12.479 5.59 12.47 12.48 12.47 12.48-5.58 12.48-12.47zm698.89-83.53v14.71c0 22.57-17.819 17.82-17.819 17.82h-91.49-317.27c-35.65 0-33.27 33.28-33.27 67.73 0 34.46-32.08 32.09-32.08 32.09h-172.3c-1.4 0-2.79 0-4.16-.021v-65.929l212.7-66.4z"/><path d="m126.79 454.25v1.78h-2.38s-15.44-20.2-45.74-14.261a30.54 30.54 0 0 0 -10.36 4.101l-.34-.53c-2.98-11.43-4.76-26.57 11.88-31.49l224.1-83.89s19.49-5.83 52.77-5.83h419.749s17.82-4.74 17.82 17.83v14.7h-220.709l-25.55 31.19h-208.54z"/></g><g fill="none"><g stroke="#000"><g stroke-width="21"><path d="m130.95 520.2h172.3s32.08 2.37 32.08-32.09c0-34.45-2.38-67.73 33.27-67.73h408.76s17.819 4.75 17.819-17.82v-14.71h-455.689l-212.7 66.4v65.95zm644.04-196.07h1.479s17.82-4.74 17.82 17.83v14.7h-220.709l-25.55 31.19"/><path d="m124.41 456.03s-15.44-20.2-45.74-14.261a30.54 30.54 0 0 0 -10.36 4.101c-13.87 8.62-20.85 28.08-9.09 48.43 12.89 22.33 36.3 25.65 67.57 25.88 1.37.021 2.76.021 4.16.021"/><path d="m67.97 445.34c-2.98-11.43-4.76-26.57 11.88-31.49l224.1-83.89s19.49-5.83 52.77-5.83h418.27"/></g><path d="m96.29 471.38c0 6.89-5.59 12.47-12.48 12.47s-12.48-5.58-12.48-12.47 5.59-12.48 12.48-12.48 12.48 5.59 12.48 12.48z" stroke-width="14"/></g><path d="m0 0h850.394v850.394h-850.394z"/></g></svg>