<svg height="850" viewBox="0 0 850 850" width="850" xmlns="http://www.w3.org/2000/svg"><path d="m266.5 378-4 39.3-3 30-2.5 29.2-1 12.8-.5 10.2v6.8l-42.2-7.5 2-134.5 5-15.5 5-14.8 5-13.7 5-13 4.7-12.3 4.8-11.5 9-21 8.5-18.5 7.7-16.5 7-15 5.8-13.7 1.5-3.3 1.7-3 2-3 2.3-2.7 2.5-2.8 2.7-2.5 2.8-2.5 3.2-2.2 3-2 3.3-2 7-3.8 7-3.2 7.2-2.8 7.3-2.5 7-2 6.7-1.7 6.3-1.3 10.5-2 6.7-1 1 2.3-54.2 122.5-53.5 99.2z" fill="#a9d7f3"/><path d="m375.5 152.3-1 2.5-1-2.3z" fill="#ffeec8"/><path d="m433.5 49.8 2.8.5 2.5.7 2.5 1 2.2 1 2.5 1.3 2.3 1.5 2 1.5 2.2 1.5 2 1.7 1.8 2 3.5 4.3 3.2 4.5 2.8 5 2.5 5.5 1.7 5.7 1.5 6 1.3 6.3.5 6.5v6.7l-.5 6.8-1 7-1 4.2-1.3 4.3-1.2 4-1.5 4-1.5 4-1.8 3.5-2 3.7-2 3.3-2.2 3.2-2.5 3-2.5 3-2.5 2.8-2.8 2.5-2.7 2.2-2.8 2-3 2-3.5 2-3.7 1.5-3.8 1.3-3.7 1-4 .7-3.8.3-4-.3-4-.5-2.7-.7-2.8-.8-2.5-1-2.5-1.2-2.5-1.3-2.5-1.5-2.2-1.7-2.3-1.8-2-2-2-2.2-1.7-2.3-1.8-2.5-1.7-2.5-1.5-2.5-1.5-2.7-1.3-3 1-2.5-2 .2-1.7-5-1.3-5.2-1.2-5.3-.5-5.7-.3-5.8v-6l.5-6 1-6 1.5-6.7 2-6.8 2.5-6 3-6 3.3-5.5 3.5-5 4-4.7 4.2-4 4.3-3.8 4.7-3 4.8-2.7 2.5-1 2.5-1 2.5-.8 2.7-.5 2.5-.5 2.5-.2 2.8-.3 2.5.3 2.7.2z" fill="#ffeec8"/><path d="m419.5 422.3-34.2.2h-25.3l-10-2.7-10-2.5-9.5-3-9.2-3-8.8-3-8-3.3-7.5-3.5-6.7-3.7-2-1.3-2.8-2.2-6.5-5.8-3-3-2.7-3-2.3-2.5-1.2-2h-3.3l.3-1.5 53.5-99.2 54.2-122.5 1.3 3 1.5 2.7 1.5 2.5 1.7 2.5 1.8 2.5 1.7 2.3 2 2.2 2 2 2.3 1.8 2.2 1.7 2.5 1.5 2.5 1.3 2.5 1.2 2.5 1 2.8.8 2.7.7 4 .5 4 .3 3.8-.3 4-.7 3.7-1 3.8-1.3 3.7-1.5 3.5-2 3 .3 6.8 5.7 7.2 6.3 8.3 8 4.2 4.2 4.3 4.5 4 4.8 3.7 5 3.5 4.7 2.8 4.8 2 4.7 1 2.3.5 2.2.7 4.3.5 4.5v10.5l-.2 5.5-.5 6-.8 6.2-1 6.5-2.5 13.5-3 14-3.2 14.3-3.8 14.5-4 14-4 13.7-7.7 25-6.5 20.3-4.3 13.2z" fill="#a9d7f3"/><path d="m449.5 422h17l6 .3h4l2.3 1 2.5 1 3 1.7 3 2 1.5 1.3 1.5 1.5 1.5 1.5 1.2 1.7 1 1.8 1 2 .8 2.7 1 2.8 1.2 6.5 1 7.5 1 9.5 2.5 26 2 17.5 2.5 21 8 66.2 4.8 40.3 2.7 25.2-46.5 5-17.7 2-13.8-104.7 8.5-35.5 6.5-27.3 2.5-10.5 1.8-9 1.2-7.5.3-3.2v-5l-.5-2-.5-2-1-2-.8-1.8-1-1.7-2.2-3-2.3-2.5-2-1.8-1.7-1.7-4.3-1.8-4.2-1.7-10-3.5-10.8-3.3-12-3.2-25.5-6.3-26.5-6.5h25.3l34.2-.2z" fill="#7a7878"/><path d="m444.5 565.3-2.5 10.2-14.7 65.3-9.3 39.2-6 24.8-45.7-10.8-24.8-6 43-181h-.5l-1-.5-2.7-.5-4.3-.5-6.7-.5-9.5-.5h-12.8l-16.5.3-11.2.2h-5.8l-5.5-.2-5.2-.5-5.3-.5-5.2-.8-5-1.2-4.8-1.5-4.5-1.8-4.2-2.5-4-2.7-2-1.5-1.8-1.8-1.7-2-1.5-2-1.5-2-1.5-2.5-1.5-2.5-1.3-2.5 2.5-29.2 3-30 4-39.3h3.3l1.2 2 2.3 2.5 2.7 3 3 3 6.5 5.8 2.8 2.2 2 1.3 6.7 3.7 7.5 3.5 8 3.3 8.8 3 9.2 3 9.5 3 10 2.5 10 2.7 26.5 6.5 25.5 6.3 12 3.2 10.8 3.3 10 3.5 4.2 1.7 4.3 1.8 1.7 1.7 2 1.8 2.3 2.5 2.2 3 1 1.7.8 1.8 1 2 .5 2 .5 2v5l-.3 3.2-1.2 7.5-1.8 9-2.5 10.5-6.5 27.3z" fill="#7a7878"/><path d="m557.3 713.5 4.7 6.5 4.3 5.3 6.7 8 2.3 3 .7 1.2.8 1.3.2 1.2v1.3l-.2 1.2-.5 1-.5 1-.8 1-1.7 1.5-2.5 1-2.8.8-3 .5h-3.2l-3.8-.3-4-.7-4-1-4.2-1.5-4.3-2-4.5-2.3-4.2-2.5-4.3-3.2-4.2-3.5-4.3-3.8-6.7-7-5-4.5-3.3-2.7-2.5-1.5-2-.8-2.5-.5-2.7-1-4.3-1.5-5.7-2.7-4.5-3-3.8-2.8-2.7-2.7-2-2.8-1.5-2.5-.8-2.7-.5-2.5.3-2.8.5-2.5.7-2.5.8-2.2 2.2-4.8 2-4.2v-.3l46.5-5 13.8 20.3 11.5 16.7zm-129.8 50.5 2.3 7.8 2.2 6.2 3.8 10 1 3.5.2 1.5.3 1.5-.3 1.3-.2 1.2-.8 1-.7.8-1 .7-1 .5-2.3 1-2.5.3-2.7-.3-3-.7-3.3-1-3.2-1.5-3.5-2-3.5-2.5-3.5-2.8-3.3-3.2-3.5-3.8-3.2-4-3-4.2-2.8-4.8-2.5-5-4-9-3-6-2.2-3.5-2-2.2-1.8-1.5-2-1.3-2.5-1.7-3.2-3-4.3-4.5-3.5-4.3-2.5-3.7-1.7-3.5-1-3.3-.5-3 .2-2.7.5-2.8 1-2.2 1.3-2.3 1.5-2 1.7-2 3.5-3.7 3.3-3.3 45.7 10.8 6 23.7 5.3 19.8zm-172-257.7.3 3.7.5 3.3.5 2.7.5 2.3 1.2 4.5 1.3 4.5.2 2.2.3 2.8v3l-.3 3.5-.5 4.2-1 4.8-1.2 5.5-1.8 6.5-1 3.5-1.2 3.2-1.5 3-1.5 2.5-1.5 2.3-1.8 2-1.5 1.5-2 1.5-1.7 1-2 1-2 .5-2 .5h-6.3l-2-.5-2-.5-2-.8-4-1.7-4-2.3-3.5-2.7-3.2-2.8-2.8-3-2.2-3-1.8-3-.7-1.5-.5-1.7-.3-1.8-.2-2-.3-4.2.5-4.5.5-4.8 1-4.7 1.3-5 1.2-4.8 3-8.7 2.8-7.5 2.7-6.8.3-5.2z" fill="#ffeec8"/><g fill="none" stroke="#231f20" stroke-linecap="round" stroke-miterlimit="10"><path d="m358.3 422.5h27l34.2-.2 30-.3h17l6 .3h4l2.3 1 2.5 1 3 1.7 3 2 1.5 1.3 1.5 1.5 1.5 1.5 1.2 1.7 1 1.8 1 2 .8 2.7 1 2.8 1.2 6.5 1 7.5 1 9.5 2.5 26 2 17.5 2.5 21 8 66.2 4.8 40.3 2.7 25.2-46.5 5-17.7 2-13.8-104.7-.2-2.3m78.2 100 13.8 20.3 11.5 16.7 9.5 13.5 4.7 6.5 4.3 5.3 6.7 8 2.3 3 .7 1.2.8 1.3.2 1.2v1.3l-.2 1.2-.5 1-.5 1-.8 1-1.7 1.5-2.5 1-2.8.8-3 .5h-3.2l-3.8-.3-4-.7-4-1-4.2-1.5-4.3-2-4.5-2.3-4.2-2.5-4.3-3.2-4.2-3.5-4.3-3.8-6.7-7-5-4.5-3.3-2.7-2.5-1.5-2-.8-2.5-.5-2.7-1-4.3-1.5-5.7-2.7-4.5-3-3.8-2.8-2.7-2.7-2-2.8-1.5-2.5-.8-2.7-.5-2.5.3-2.8.5-2.5.7-2.5.8-2.2 2.2-4.8 2-4.2" stroke-width="14"/><path d="m269.8 378 1.2 2 2.3 2.5 2.7 3 3 3 6.5 5.8 2.8 2.2 2 1.3 6.7 3.7 7.5 3.5 8 3.3 8.8 3 9.2 3 9.5 3 10 2.5 10 2.7 26.5 6.5 25.5 6.3 12 3.2 10.8 3.3 10 3.5 4.2 1.7 4.3 1.8 1.7 1.7 2 1.8 2.3 2.5 2.2 3 1 1.7.8 1.8 1 2 .5 2 .5 2v5l-.3 3.2-1.2 7.5-1.8 9-2.5 10.5-6.5 27.3-8.5 35.5-2.5 10.2-14.7 65.3-9.3 39.2-6 24.8-45.7-10.8-24.8-6 43-181h-.5l-1-.5-2.7-.5-4.3-.5-6.7-.5-9.5-.5h-12.8l-16.5.3-11.2.2h-5.8l-5.5-.2-5.2-.5-5.3-.5-5.2-.8-5-1.2-4.8-1.5-4.5-1.8-4.2-2.5-4-2.7-2-1.5-1.8-1.8-1.7-2-1.5-2-1.5-2-1.5-2.5-1.5-2.5-1.3-2.5" stroke-width="14"/><path d="m412 704.8 6 23.7 5.3 19.8 4.2 15.7 2.3 7.8 2.2 6.2 3.8 10 1 3.5.2 1.5.3 1.5-.3 1.3-.2 1.2-.8 1-.7.8-1 .7-1 .5-2.3 1-2.5.3-2.7-.3-3-.7-3.3-1-3.2-1.5-3.5-2-3.5-2.5-3.5-2.8-3.3-3.2-3.5-3.8-3.2-4-3-4.2-2.8-4.8-2.5-5-4-9-3-6-2.2-3.5-2-2.2-1.8-1.5-2-1.3-2.5-1.7-3.2-3-4.3-4.5-3.5-4.3-2.5-3.7-1.7-3.5-1-3.3-.5-3 .2-2.7.5-2.8 1-2.2 1.3-2.3 1.5-2 1.7-2 3.5-3.7 3.3-3.3.2-.2m7-541.3-1.7-5-1.3-5.2-1.2-5.3-.5-5.7-.3-5.8v-6l.5-6 1-6 1.5-6.7 2-6.8 2.5-6 3-6 3.3-5.5 3.5-5 4-4.7 4.2-4 4.3-3.8 4.7-3 4.8-2.7 2.5-1 2.5-1 2.5-.8 2.7-.5 2.5-.5 2.5-.2 2.8-.3 2.5.3 2.7.2 2.5.3 2.8.5 2.5.7 2.5 1 2.2 1 2.5 1.3 2.3 1.5 2 1.5 2.2 1.5 2 1.7 1.8 2 3.5 4.3 3.2 4.5 2.8 5 2.5 5.5 1.7 5.7 1.5 6 1.3 6.3.5 6.5v6.7l-.5 6.8-1 7-1 4.2-1.3 4.3-1.2 4-1.5 4-1.5 4-1.8 3.5-2 3.7-2 3.3-2.2 3.2-2.5 3-2.5 3-2.5 2.8-2.8 2.5-2.7 2.2-2.8 2-3 2-3.5 2-3.7 1.5-3.8 1.3-3.7 1-4 .7-3.8.3-4-.3-4-.5-2.7-.7-2.8-.8-2.5-1-2.5-1.2-2.5-1.3-2.5-1.5-2.2-1.7-2.3-1.8-2-2-2-2.2-1.7-2.3-1.8-2.5-1.7-2.5-1.5-2.5-1.5-2.7-1.3-3m67 24 6.8 5.7 7.2 6.3 8.3 8 4.2 4.2 4.3 4.5 4 4.8 3.7 5 3.5 4.7 2.8 4.8 2 4.7 1 2.3.5 2.2.7 4.3.5 4.5v10.5l-.2 5.5-.5 6-.8 6.2-1 6.5-2.5 13.5-3 14-3.2 14.3-3.8 14.5-4 14-4 13.7-7.7 25-6.5 20.3-4.3 13.2v.3" stroke-width="14"/><path d="m375.5 152.3-2 .2-6.7 1-10.5 2-6.3 1.3-6.7 1.7-7 2-7.3 2.5-7.2 2.8-7 3.2-7 3.8-3.3 2-3 2-3.2 2.2-2.8 2.5-2.7 2.5-2.5 2.8-2.3 2.7-2 3-1.7 3-1.5 3.3-5.8 13.7-7 15-7.7 16.5-8.5 18.5-9 21-4.8 11.5-4.7 12.3-5 13-5 13.7-5 14.8-5 15.5-2 134.5-.3 5.2-2.7 6.8-2.8 7.5-3 8.7-1.2 4.8-1.3 5-1 4.7-.5 4.8-.5 4.5.3 4.2.2 2 .3 1.8.5 1.7.7 1.5 1.8 3 2.2 3 2.8 3 3.2 2.8 3.5 2.7 4 2.3 4 1.7 2 .8 2 .5 2 .5h6.3l2-.5 2-.5 2-1 1.7-1 2-1.5 1.5-1.5 1.8-2 1.5-2.3 1.5-2.5 1.5-3 1.2-3.2 1-3.5 1.8-6.5 1.2-5.5 1-4.8.5-4.2.3-3.5v-3l-.3-2.8-.2-2.2-1.3-4.5-1.2-4.5-.5-2.3-.5-2.7-.5-3.3-.3-3.7v-6.8l.5-10.2 1-12.8 2.5-29.2 3-30 4-39.3.3-1.5 53.5-99.2m135.2-3.3-36 148.3" stroke-width="14"/><path d="m562.5 371.3 48-152.5m-65.5 37.5 66-38.5 32 69.5" stroke-width="21"/><path d="m211.5 498.3 1.8.5 42.2 7.5" stroke-width="14"/></g></svg>