<svg height="850" viewBox="0 0 850 850" width="850" xmlns="http://www.w3.org/2000/svg"><path d="m638.6 205.3 1.7 3.7 1.5 3.8 1.3 4 1 3.7.7 4 .8 4 1 8 .7 8.5.3 8.8.2 18.5-.2 5 1 27v17.5l-.3 8-.5 8.7-2 25-.2 2.5-.3 2.3-1 3.5-1.5 3.2-1.7 3.3-2.3 2.7-2.5 2.8-2.7 2.7-6 5.3-4 3.2-.8.5-2.7 1.5-2.8 1.3-3 1-3 .7-3 .5-3.2.5-6.5.5h-6.5l-6.3-.2-11.7-.8-7.8-.5-8-1-8.2-1-8-1.5-8-1.7-7.8-2.3-3.5-1.2-3.5-1.3-3.2-1.5-3.3-1.7-3.7-.3 1.5-28.5 1.2-17.2.8-8.8 1-8.5 1-8.7 1.2-8.3 1.5-7.7 1.5-7.5 2-6.5 2-5.8 1.3-2.7 1.2-2.3 1.3-2 1.5-1.7 1.2-1.5 2.5-2.5 2-2.8 2-3 1.5-3 1.3-3 1.2-3.2.8-3.3.7-3.2.5-3.3.3-3.2.2-6.8-.2-6.5-.8-6.2-1.2-6-1.3-5.5-1.2-5-1.5-4.3-2.3-6.2-.7-2.3-5.5-1 5-1.7h.2l6-1 10.3-1.8 6.5-.7 6.7-.8 7-.2 7.3-.3 3.2 2.3 3.3 1.7 3.5 1.5 3.7 1.3 3.5 1 3.8.5 3.7.2 4-.2 4.5-.8 4.8-1.2 4.2-1.8 4-2.5 5 5.3 4.3 5.2 3.5 5.5z" fill="#a9d7f3"/><path d="m695.8 410.3-.2.5-3.3-2.3-3.7-3-7.8-6.2-8-7-7.5-7.3-12.5-11.7-5-5h-2.5l.3-2.3.2-2.5 2-25 .5-8.7.3-8v-17.5l-1-27 .2-5-.2-18.5-.3-8.8-.7-8.5-1-8-.8-4-.7-4-1-3.7-1.3-4-1.5-3.8-1.7-3.7 1-.5 2.5 2.7 2.5 3 2.2 3.3 2 3.5 2 3.7 2 3.8 1.8 4 1.7 4.2 3.3 8.5 2.5 9 2.5 8.8 2 8.7 1.7 8.5 1.3 8 2 13.8 1.2 9.2.3 3.5 1 2.8 2 5.2 2.2 5.5 5.3 10.5 5.2 10.3 5.5 9.7 10.3 16.8 4 7 3.2 5.5-2 2.2-4.5 6-2.7 4-2.5 4.3-2.5 4.7z" fill="#a9d7f3"/><path d="m715.6 452-3.8-3.2-3.7-3.5-1.5-2-1.8-2-1.2-2.3-1.3-2.2-1-2.3-.7-2.5-1.3-5-3.5-16.7 1.8-4.8 2.5-4.7 2.5-4.3 2.7-4 4.5-6 2-2.2 3.3 1.7 4.5 1.8 11 3.7 5.5 2 5 2 2.2 1 1.8 1 1.5 1 1.2 1 .8 1 1.2 2 1.8 3 1.7 4.3 1.5 4 1.5 4.7.3 3-.3 2.5-.2 1-.5.8-.5.5h-.8l-2.7-.3-2.8-.7-2.2-1.3-2-1.5v.3l-2.5-2.3-2.3-1.5-1.2-.5-1-.2-.8-.3-.7.3-2 1.2-1.5 1.5-.8 1.3-.5 1.5v1.2l.3 1 .2 1 .3.8-.8-1-1.2-.8-1-.5-1.3-.2-1.2.2-1.3.5-1 1-1 1.5-.5 1.5-.5 1.3-.2 1.2v1.3l.2 1 .3 1 1.2 2.2-1.2-.5-1.3-.5h-1.2l-1 .3-1.3.2-1 .8-.7.7-1 1-.5.8-.3 1-.2 2 .2 2 .5 2.2.8 2 1 1.8 1.7 2.5zm-154 64.3 5.5 5.5 5.7 5.2 6 5 6.3 5 8.5 6.3 9 6.2-2.3 4-.5 2.3-.7 2.5-.8 2.5-1.2 2.5-1.5 2.5-1.8 2.5-4.2 5.2-5 5.5-5.8 6-13.7 13.3-6.5 6.2-6.5 6.3-12.3 13-11.2 12.2-10 11.5-8.3 9.8-6.5 7.7-5.5 6.8-1.2 3.5-.8 3.2-.5 3.5v3.5l.3 3.3.7 3.5 1 3.2 1.3 3.3 1.5 3 1.5 3 3.5 6 3.7 5.2 3.3 5 2.7 4 1.8 3.5.5 1.3.5 1.5v2l-.3.7-.5.8-.5.5-.7.5-.8.2-1 .3h-2.2l-2.8-.3-3-1-3.2-1-3.3-1.5-3.5-1.7-3.2-2-3.3-2.3-3-2.5-2.7-2.5-2.5-2.2-3.8-4.8-1.7-2.2-2-2.3-2.5-2.2-3-2.5-1-.5-1.3-.8-3.2-1.2-3.5-1.3-3.5-1.5-3.5-1.5-1.5-1-1.5-1.2-1-1.3-1-1.5-.8-1.5-.2-2v-2.7l.5-2.8 1-2.5 1.5-2.5 1.7-2.7 2-2.5 4.5-5.3 4.8-5.2 2.5-3 2.2-3 2-3 2-3.3 1.5-3.5 1.3-3.7 6.7-23.8 1.8-6.2 2.2-5.8 2.8-5.5 2.7-4.7 3-4.5 3.3-4.3 3.2-3.5 3.5-3.2 3.3-3 3.2-2.8 6-4.2 5-3.5 3.3-2.5.7-.8.8-1.2 1.5-2.5 1-3.5.7-4 .8-4.5.5-4.8.2-5.2.3-5.5v-11l-.3-10.8-.7-18 3 4.5 3 4 3 3.3 3 3 2.7 2.5 2.5 2 4.3 3.2 27-8.5-15.8 6.8z" fill="#ffeec8"/><path d="m578.1 509 78.5-33 .5 1.5 5.2 10 5 10.8 6.3 12.7 6 13.8 5.5 13 2 6 2 5.5 1.2 4.5.5 3.7v3.8l-.2 4.7-.5 5.8-.8 6.2-2 14.5-3 16-3 16.3-3.2 15.5-3.3 13.7-2.7 10.5-2 8.8-1.8 7.7-1.5 7.3-1 6-1.5 8.7-.2 3.3-.8 3-.7 3-.3 2.7v5l.5 2.3.5 2.2.8 2 .7 1.8 1 2 1.3 1.5 1.2 1.7 1.5 1.3 1.5 1.5 3.5 2.2 3.5 2.3 4 1.7 3.8 1.5 4 1.3 7.2 2 6.3 1.7 4.7 1.5 3.5 1.5 1.3 1 1 .8.7.7.8 1 .2.8v1.5l-.2.7-.5.8-.8.7-1.7 1.5-2.5 1.3-2.8 1.2-3.2 1-3.5 1-3.8.5-3.7.5-4 .3h-4l-3.8-.3-3.2-.5-5.8-1.2-2.7-.5-3-.5-3.5-.5h-3.8l-2.7.2-3 .3-6.8 1-3.2.2-3.3.3-3.2-.5-1.5-.5-1.3-.5-2.7-1.8-2.3-1.7-1.7-2-1-2-.8-2.3-.5-2.5v-2.7l.3-2.8 1.2-6.7 1.5-8 1.8-9.3.7-5.5.5-5.5.3-5.7v-5.5l-.8-5.3-.7-5.2-1-5.3-1.3-5.5-3-11-1.2-5.5-1.3-6-1.2-6.2-1-6.5-.5-7-.5-7.3.2-7.5.5-8.2.3-3 .7-3 1.8-6 2-6.3 2-6.5.7-3 .5-3 .3-3v-2.7l-.3-3-1-2.5-1.2-2.5-1.8-2.5-4.7-4.5-5-4.3-5.8-4.2-5.7-4.3-9-6.2-8.5-6.3-6.3-5-6-5-5.7-5.2-5.5-5.5.7-.5zm155.7-56.7v1.2l-.2 1.3-.5 1.2-1 1.3-1.3.7-1.5.8-1.2.2h-1.5l-1.3-.2-1.5-.8-1.7-1.2-3.8-2.5-1.7-2.5-1-1.8-.8-2-.5-2.2-.2-2 .2-2 .3-1 .5-.8 1-1 .7-.7 1-.8 1.3-.2 1-.3h1.2l1.3.5 1.2.5 1.3 1.8 1.5 1.7 3.7 4.8 2.5 3.5.8 1.2z" fill="#ffeec8"/><path d="m742.6 448-.8.8-1 1-2.2 1.2-2 .8-1.8.5h-1l-.2-1.3-.8-1.2-2.5-3.5-3.7-4.8-1.5-1.7-1.3-1.8-1.2-2.2-.3-1-.2-1v-1.3l.2-1.2.5-1.3.5-1.5 1-1.5 1-1 1.3-.5 1.2-.2 1.3.2 1 .5 1.2.8.8 1 1 1.2 1 1.5 1.2 1.5 2.5 3 2.3 2.8 1 1.7.7 1.5.5 1 .8.5.2 1.3.3 1.2-.3 1.5-.2.8z" fill="#ffeec8"/><path d="m742.6 448-.8.8-1 1-2.2 1.2-2 .8-1.8.5h-1l-.2-1.3-.8-1.2-2.5-3.5-3.7-4.8-1.5-1.7-1.3-1.8-1.2-2.2-.3-1-.2-1v-1.3l.2-1.2.5-1.3.5-1.5 1-1.5 1-1 1.3-.5 1.2-.2 1.3.2 1 .5 1.2.8.8 1 1 1.2 1 1.5 1.2 1.5 2.5 3 2.3 2.8 1 1.7.7 1.5.5 1 .8.5.2 1.3.3 1.2-.3 1.5-.2.8z" fill="#ffeec8"/><path d="m733.8 452.3v1.2l-.2 1.3-.5 1.2-1 1.3-1.3.7-1.5.8-1.2.2h-1.5l-1.3-.2-1.5-.8-1.7-1.2-3.8-2.5-1.7-2.5-1-1.8-.8-2-.5-2.2-.2-2 .2-2 .3-1 .5-.8 1-1 .7-.7 1-.8 1.3-.2 1-.3h1.2l1.3.5 1.2.5 1.3 1.8 1.5 1.7 3.7 4.8 2.5 3.5.8 1.2zm18-20.3.5 1v2.5l-.2 1-.5 1-1 1-1.8 2-2.2 1.5-1 .8-.8.2h-1l-.7-.5-.8-.5-.5-1-.7-1.5-1-1.7-2.3-2.8-2.5-3-1.2-1.5-1-1.5-1-1.2-.3-.8-.2-1-.3-1v-1.2l.5-1.5.8-1.3 1.5-1.5 2-1.2.7-.3.8.3 1 .2 1.2.5 2.3 1.5 2.5 2.3 2.5 2.5 2.2 2.5 1.5 2.5zm-209.2-1.2h1.2l1.3.2 1 .5.7.5.8.8.7.7.5.8.3 1 .2.7v1l-.2 1-.3.8-.5.7-.7.8-1 .5-1.3.5-4.5.7h-4.5l-.5-.2-1.7.2-1-2.5-1.8-5.2-2-5.3-2.2-5-1.3-2-1.2-2 4.2 3.5 5 3.5 2.3 1.5 2.5 1.3 2.2.7z" fill="#ffeec8"/><path d="m527.8 469.5.3.8-.3.7-.5.8-.7.7-1.8 1.3-2.2 1.2-1 .5-1 .3-1.5-.3-1.3-.2-2.2-.3-2.5-.2-2.8-.5-2-1-2-1.3-2.2-1.5-4.8-3.5-4.7-4.2-4.5-4.3-7.5-7.7-3.3-3.8-.5-1-.5-1.5-1.2-4-.8-4.7-1-5-1.5-10.3-1-7 25.8-10.2 4.2 3 3.5 2 6.5 3.5 5 3 2.5 1.5 2.3 1.7 1 1 1 1 1.2 2 1.3 2 2.2 5 2 5.3 1.8 5.2 1 2.5 3.2 7.5 2.5 5.3 1.8 3.7.5 1.3.2 1.2v.8l-.2.7-.3.8-.5.7-.7.3-.8.5h-.7l-.8-.3v.5l-.7 1.5-1.5 1.5-1.5 1.5-1.8 1-.7.3h-.8l-1.5-.3-1.2-.5zm95-285.5-4 2.5-4.2 1.8-4.8 1.2-4.5.8-4 .2-3.7-.2-3.8-.5-3.5-1-3.7-1.3-3.5-1.5-3.3-1.7-3.2-2.3-1.5-1.2-2.5-1.8-2.3-2.2-2-2.3-2-2.2-2-2.5-1.7-2.8-1.8-2.7-1.7-2.8-1.5-3-1.3-3-1.2-3.2-1-3.3-1-3.5-.8-3.5-.5-3.5-.5-3.7-.2-6v-6l.7-6 1-5.5 1.5-5.5 2-5.3 2.3-5 2.7-4.5 3-4.2 3.3-3.8 3.7-3.5 4-2.7 4.3-2.5 4.2-2 2.5-.8 2.3-.5 2.5-.5 2.5-.5h7.2l2.5.5 4.8 1 4.5 1.5 4.5 2.3 4.2 2.5 4 3 4 3.7 3.5 3.8 3 4.5 3 4.7 2.5 5 2.3 5.3 1.7 5.7 1.3 5.8.7 6.2.5 4.8v4.5l-.2 4.5-.5 4.5-1 4.2-1 4.3-1.3 4-1.5 4-1.7 3.7-2 3.5-2 3.3-2.5 3.2-2.5 3-2.8 2.5-3 2.5z" fill="#ffeec8"/><path d="m529.6 495-2.5-4-2.5-4.7-2-5-2-5.5 1-.3 1-.5 2.2-1.2 1.8-1.3.7-.7.5-.8.3-.7-.3-.8.8.5 1.2.5 1.5.3h.8l.7-.3 1.8-1 1.5-1.5 1.5-1.5.7-1.5v-.5l.8.3h.7l.8-.5.7-.3.5-.7.3-.8.2-.7v-.8l-.2-1.2-.5-1.3-1.8-3.7-2.5-5.3-3.2-7.5 1.7-.2.5.2h4.5l4.5-.7 1.3-.5 1-.5.7-.8.5-.7.3-.8.2-1v-1l-.2-.7-.3-1-.5-.8-.7-.7-.8-.8-.7-.5-1-.5-1.3-.2h-1.2l-1.8-.3-2.2-.7-2.5-1.3-2.3-1.5-5-3.5-4.2-3.5-1-1-1-1-2.3-1.7-2.5-1.5-5-3-6.5-3.5-3.5-2-4.2-3 9-3.3.5-2.2.2-3 .8-8.3 3.7.3 3.3 1.7 3.2 1.5 3.5 1.3 3.5 1.2 7.8 2.3 8 1.7 8 1.5 8.2 1 8 1 7.8.5 11.7.8 6.3.2h6.5l6.5-.5 3.2-.5 3-.5 3-.7 3-1 2.8-1.3 2.7-1.5.8-.5 2 2.8 1.2 3.5 1.5 4.5 4.3 11 5.2 12.5 5.8 13.2 9.7 23 4.5 9.8-1.2.7-78.5 33-27 8.5-4.3-3.2-2.5-2-2.7-2.5-3-3-3-3.3-3-4z" fill="#7a7878"/><path d="m528.1 270.3-1.5 1.7-1.3 2-1.2 2.3-1.3 2.7-2 5.8-2 6.5-1.5 7.5-1.5 7.7-1.2 8.3-1 8.7-1 8.5-.8 8.8-1.2 17.2-1.5 28.5-.8 8.3-.2 3-.5 2.2-9 3.3-25.8 10.2-2-7-1.7-7.5-1.8-8-1.2-8.5-1.3-8.7-.7-9.3-.8-9.5-.2-9.7.2-10.3.3-10.2 1-10.3 1.2-10.5 1.8-10.5 2.2-10.5 2.5-10.5 3.3-10.5 3.2-9.2 3.3-8.5 3.2-8.3 3.5-7.5 3.5-7.2 3.5-6.8 3.8-6.2 4-6 1.7-1.3 5.3-3.5 3.5-2.2 4.2-2.3 4.5-2.2 4.8-2.3 5.5 1 .7 2.3 2.3 6.2 1.5 4.3 1.2 5 1.3 5.5 1.2 6 .8 6.2.2 6.5-.2 6.8-.3 3.2-.5 3.3-.7 3.2-.8 3.3-1.2 3.2-1.3 3-1.5 3-2 3-2 2.8-2.5 2.5z" fill="#a9d7f3"/><path d="m401.6 519 1.2 1.5.8 1.5.2 1.5v1.5l-.5 1.5-.7 1.5-.8 1.5-1 1.3-2.2 2.5-2 1.7-2.3 1.8-10.2 6.2-24.5 15.3-15 9-15.3 8.7-14.5 8-6.7 3.3-6.3 3-5.5 2.2-5.5 2-5.2 1.3-5.3 1-5 .5h-5l-4.7-.3-5-.5-4.5-1-4.8-1.2-4.7-1.8-4.8-2-4.5-2-4.7-2.5-9.8-5.2-19.5-11.5-9.2-5.8-8.5-5.7-7.8-5.5-3.2-2.8-3.3-2.7-2.7-2.8-2.3-2.7-2-2.8-1.7-2.5-.5-1.5v-1.2l.5-1.5.7-1.5 1-1.8 1.5-1.7 1.8-1.5 2-1.8 4.5-3.5 5.5-3.5 6-3.5 6.2-3.5 6.3-3.2 6.2-3 11-5 11-4.8 22-8.5 5.5-1 5.3-1 5.2-.5 5.3-.5h9.7l8.5.5 7.3.8 5.7 1 4.8 1.2 14 4 14.2 4.5 17 5.3 17 5.7 15.5 5.5 6.5 2.8 5.5 2.2 4 2 1.3.8z" fill="#9e5c26"/><g fill="none" stroke="#231f20" stroke-linecap="round" stroke-miterlimit="10"><path d="m226.3 493.5-11 4.8-11 5-6.2 3-6.3 3.2-6.2 3.5-6 3.5-5.5 3.5-4.5 3.5-2 1.8-1.8 1.5-1.5 1.7-1 1.8-.7 1.5-.5 1.5v1.2l.5 1.5 1.7 2.5 2 2.8 2.3 2.7 2.7 2.8 3.3 2.7 3.2 2.8 7.8 5.5 8.5 5.7 9.2 5.8 19.5 11.5 9.8 5.2 4.7 2.5 4.5 2 4.8 2 4.7 1.8 4.8 1.2 4.5 1 5 .5 4.7.3h5l5-.5 5.3-1 5.2-1.3 5.5-2 5.5-2.2 6.3-3 6.7-3.3 14.5-8 15.3-8.7 15-9 24.5-15.3 10.2-6.2 2.3-1.8 2-1.7 2.2-2.5 1-1.3.8-1.5.7-1.5.5-1.5v-1.5l-.2-1.5-.8-1.5-1.2-1.5-1-.7-1.3-.8-4-2-5.5-2.2-6.5-2.8-15.5-5.5-17-5.7-17-5.3-14.2-4.5-14-4-4.8-1.2-5.7-1-7.3-.8-8.5-.5h-9.7l-5.3.5-5.2.5-5.3 1-5.5 1zm40-17.7-5.2-59.5-4.5-46.8-2-19.2-1.5-13.8-2.5-16.7-2.3-14.5-2.5-13.8m-139 30.5 3.3 9.3 3.7 11 4.8 14.7 2 6 2.2 8.3 5.5 21.5 6.5 26.2 6.8 27.8 11.7 49 5 21.5.8 3.7.5 5 1 7 .7 9.3.8 11.5.5 14v38.7l-.3 20.3-1 33.5-.7 21.7-.5 8" stroke-width="28"/><path d="m243.6 324.8h-2.5l-7.5.2-11.5.5-7 .5-7.8 1-8.7 1.3-9 1.5-9.8 1.7-10.2 2.5-10.8 2.8-10.7 3.5-11.3 4-11.2 4.5" stroke-width="42"/><path d="m391.1 540v153.3m-118.8-92.8v171.8" stroke-width="28"/><path d="m575.1 180.8 1.5 1.2 3.2 2.3 3.3 1.7 3.5 1.5 3.7 1.3 3.5 1 3.8.5 3.7.2 4-.2 4.5-.8 4.8-1.2 4.2-1.8 4-2.5 3-2 3-2.5 2.8-2.5 2.5-3 2.5-3.2 2-3.3 2-3.5 1.7-3.7 1.5-4 1.3-4 1-4.3 1-4.2.5-4.5.2-4.5v-4.5l-.5-4.8-.7-6.2-1.3-5.8-1.7-5.7-2.3-5.3-2.5-5-3-4.7-3-4.5-3.5-3.8-4-3.7-4-3-4.2-2.5-4.5-2.3-4.5-1.5-4.8-1-2.5-.5h-7.2l-2.5.5-2.5.5-2.3.5-2.5.8-4.2 2-4.3 2.5-4 2.7-3.7 3.5-3.3 3.8-3 4.2-2.7 4.5-2.3 5-2 5.3-1.5 5.5-1 5.5-.7 6v6l.2 6 .5 3.7.5 3.5.8 3.5 1 3.5 1 3.3 1.2 3.2 1.3 3 1.5 3 1.7 2.8 1.8 2.7 1.7 2.8 2 2.5 2 2.2 2 2.3 2.3 2.2z" stroke-width="14"/><path d="m621.6 182.8 1.2 1.2 5 5.3 4.3 5.2 3.5 5.5 3 5.3 1.7 3.7 1.5 3.8 1.3 4 1 3.7.7 4 .8 4 1 8 .7 8.5.3 8.8.2 18.5-.2 5 1 27v17.5l-.3 8-.5 8.7-2 25-.2 2.5-.3 2.3-1 3.5-1.5 3.2-1.7 3.3-2.3 2.7-2.5 2.8-2.7 2.7-6 5.3-4 3.2-.8.5-2.7 1.5-2.8 1.3-3 1-3 .7-3 .5-3.2.5-6.5.5h-6.5l-6.3-.2-11.7-.8-7.8-.5-8-1-8.2-1-8-1.5-8-1.7-7.8-2.3-3.5-1.2-3.5-1.3-3.2-1.5-3.3-1.7m20-200 5-1.3 5-.7m-10.5 82.2-1.5.8-1.5 1-1.2 1.5-1.5 1.7-1.3 2-1.2 2.3-1.3 2.7-2 5.8-2 6.5-1.5 7.5-1.5 7.7-1.2 8.3-1 8.7-1 8.5-.8 8.8-1.2 17.2-1.5 28.5-.8 8.3-.2 3-.5 2.2-9 3.3-25.8 10.2-2-7-1.7-7.5-1.8-8-1.2-8.5-1.3-8.7-.7-9.3-.8-9.5-.2-9.7.2-10.3.3-10.2 1-10.3 1.2-10.5 1.8-10.5 2.2-10.5 2.5-10.5 3.3-10.5 3.2-9.2 3.3-8.5 3.2-8.3 3.5-7.5 3.5-7.2 3.5-6.8 3.8-6.2 4-6 1.7-1.3 5.3-3.5 3.5-2.2 4.2-2.3 4.5-2.2 4.8-2.3 5-1.7" stroke-width="14"/><path d="m472.8 413.5 1 7 1.5 10.3 1 5 .8 4.7 1.2 4 .5 1.5.5 1 3.3 3.8 7.5 7.7 4.5 4.3 4.7 4.2 4.8 3.5 2.2 1.5 2 1.3 2 1 2.8.5 2.5.2 2.2.3 1.8-.3.2-.2-.2-.3-3.3-2.2-3.5-2.8-5.5-5.2-1.2-1.3-1.5-2-3-4.5-3.3-5.7" stroke-width="7"/><path d="m516.8 474.3.3.2.7.8 1.3.2 1.5.3 1-.3 1-.5 2.2-1.2 1.8-1.3.7-.7.5-.8.3-.7-.3-.8-.2-.5-.5-.7-2.8-2.3-2.5-2.5-2.7-3.2-3.8-5.3-9-13.2" stroke-width="7"/><path d="m527.6 469.3.2.2.8.5 1.2.5 1.5.3h.8l.7-.3 1.8-1 1.5-1.5 1.5-1.5.7-1.5m-40.2-62 .5.3 4.2 3 3.5 2 6.5 3.5 5 3 2.5 1.5 2.3 1.7 1 1 1 1 1.2 2 1.3 2 2.2 5 2 5.3 1.8 5.2 1 2.5 3.2 7.5 2.5 5.3 1.8 3.7.5 1.3.2 1.2v.8l-.2.7-.3.8-.5.7-.7.3-.8.5h-.7l-.8-.3-.7-.2-.8-.5-1.7-1.8-2-1.5-2.8-3.2-4.2-6-1.8-2.8-2.5-3.5-1.5-2.5-1.5-3-1.7-3.7-1.8-4.5" stroke-width="7"/><path d="m639.6 204.8 2.5 2.7 2.5 3 2.2 3.3 2 3.5 2 3.7 2 3.8 1.8 4 1.7 4.2 3.3 8.5 2.5 9 2.5 8.8 2 8.7 1.7 8.5 1.3 8 2 13.8 1.2 9.2.3 3.5 1 2.8m0 0 2 5.2 2.2 5.5 5.3 10.5 5.2 10.3 5.5 9.7 10.3 16.8 4 7 3.2 5.5-2 2.2-4.5 6-2.7 4-2.5 4.3-2.5 4.7-1.8 4.8-.2.5m0 0-3.3-2.3-3.7-3-7.8-6.2-8-7-7.5-7.3-12.5-11.7-5-5" stroke-width="14"/><path d="m756.3 418.5.5 2.5v1.8l-.2 2-.8 2.2-.7 2-1 1.8-1 1.2-.8.5-.2-.2v-.3h-.3l-1-1.7-1.5-2.5-2.2-2.5-2.5-2.5-2.5-2.3-2.3-1.5-1.2-.5-1-.2-.8-.3-.7.3-2 1.2-1.5 1.5-.8 1.3-.5 1.5v1.2l.3 1 .2 1 .3.8.2.2m-20.5-43.7 3.3 1.7 4.5 1.8 11 3.7 5.5 2 5 2 2.2 1 1.8 1 1.5 1 1.2 1 .8 1 1.2 2 1.8 3 1.7 4.3 1.5 4 1.5 4.7" stroke-width="7"/><path d="m751.8 432 .5 1v2.5l-.2 1-.5 1-1 1-1.8 2-2.2 1.5-1 .8-.8.2h-1l-.7-.5-.8-.5-.5-1-.7-1.5-1-1.7-2.3-2.8-2.5-3-1.2-1.5-1-1.5-1-1.2-.8-1-1.2-.8-1-.5-1.3-.2-1.2.2-1.3.5-1 1-1 1.5-.5 1.5-.5 1.3-.2 1.2v1.3l.2 1 .3 1 1.2 2.2 1.3 1.8 1.5 1.7 3.7 4.8" stroke-width="7"/><path d="m742.8 442 .3.5.2 1.3.3 1.2-.3 1.5-.2.8-.5.7-.8.8-1 1-2.2 1.2-2 .8-1.8.5m-16.5 2 3.8 2.5 1.7 1.2 1.5.8 1.3.2h1.5l1.2-.2 1.5-.8 1.3-.7 1-1.3.5-1.2.2-1.3v-1.2l-.2-1.3-.8-1.2-2.5-3.5-1.2-2.3-1.5-2.7m-34.3-40.8 2.5 9.8 3.5 16.7 1.3 5 .7 2.5 1 2.3 1.3 2.2 1.2 2.3 1.8 2 1.5 2 3.7 3.5 3.8 3.2 2.7 2.3" stroke-width="7"/><path d="m728.6 442.5-1.3-1.5-1-1.2-1.2-1-1.3-.8-1.2-.5-1.3-.5h-1.2l-1 .3-1.3.2-1 .8-.7.7-1 1-.5.8-.3 1-.2 2 .2 2 .5 2.2.8 2 1 1.8 1.7 2.5m35-44.5 1 1.5.8 2.2.7 2.3.5 2.7.3 3-.3 2.5-.2 1-.5.8-.5.5h-.8l-2.7-.3-2.8-.7-2.2-1.3-2-1.5-1.3-1.5-.5-1-.5-1-.2-1.7v-5.3l-.3-1.2-.2-.5-.3-.3-.7-.2-.8-.3-4.5-.5-3.7-.7-3-1-2.3-1-1.7-1.5-1.8-1.5-2.7-3" stroke-width="7"/><path d="m520.3 475.3.3.5 2 5.5 2 5 2.5 4.7 2.5 4 3 4.5 3 4 3 3.3 3 3 2.7 2.5 2.5 2 4.3 3.2 27-8.5 1.2-.2" stroke-width="14"/><path d="m529.3 492 .3 3 .7 18 .3 10.8v11l-.3 5.5-.2 5.2-.5 4.8-.8 4.5-.7 4-1 3.5-1.5 2.5-.8 1.2-.7.8-3.3 2.5-5 3.5-6 4.2-3.2 2.8-3.3 3-3.5 3.2-3.2 3.5-3.3 4.3-3 4.5-2.7 4.7-2.8 5.5-2.2 5.8-1.8 6.2-6.7 23.8-1.3 3.7-1.5 3.5-2 3.3-2 3-2.2 3-2.5 3-4.8 5.2-4.5 5.3-2 2.5-1.7 2.7-1.5 2.5-1 2.5-.5 2.8v2.7l.2 2 .8 1.5 1 1.5 1 1.3 1.5 1.2 1.5 1 3.5 1.5 3.5 1.5 3.5 1.3 3.2 1.2 1.3.8 1 .5 3 2.5 2.5 2.2 2 2.3 1.7 2.2 3.8 4.8 2.5 2.2 2.7 2.5 3 2.5 3.3 2.3 3.2 2 3.5 1.7 3.3 1.5 3.2 1 3 1 2.8.3h2.2l1-.3.8-.2.7-.5.5-.5.5-.8.3-.7v-2l-.5-1.5-.5-1.3-1.8-3.5-2.7-4-3.3-5-3.7-5.2-3.5-6-1.5-3-1.5-3-1.3-3.3-1-3.2-.7-3.5-.3-3.3v-3.5l.5-3.5.8-3.2 1.2-3.5 5.5-6.8 6.5-7.7 8.3-9.8 10-11.5 11.2-12.2 12.3-13 6.5-6.3 6.5-6.2 13.7-13.3 5.8-6 5-5.5 4.2-5.2 1.8-2.5 1.5-2.5 1.2-2.5.8-2.5.7-2.5.5-2.3" stroke-width="14"/><path d="m657.1 477.5 5.2 10 5 10.8 6.3 12.7 6 13.8 5.5 13 2 6 2 5.5 1.2 4.5.5 3.7v3.8l-.2 4.7-.5 5.8-.8 6.2-2 14.5-3 16-3 16.3-3.2 15.5-3.3 13.7-2.7 10.5-2 8.8-1.8 7.7-1.5 7.3-1 6-1.5 8.7-.2 3.3-.8 3-.7 3-.3 2.7v5l.5 2.3.5 2.2.8 2 .7 1.8 1 2 1.3 1.5 1.2 1.7 1.5 1.3 1.5 1.5 3.5 2.2 3.5 2.3 4 1.7 3.8 1.5 4 1.3 7.2 2 6.3 1.7 4.7 1.5 3.5 1.5 1.3 1 1 .8.7.7.8 1 .2.8v1.5l-.2.7-.5.8-.8.7-1.7 1.5-2.5 1.3-2.8 1.2-3.2 1-3.5 1-3.8.5-3.7.5-4 .3h-4l-3.8-.3-3.2-.5-5.8-1.2-2.7-.5-3-.5-3.5-.5h-3.8l-2.7.2-3 .3-6.8 1-3.2.2-3.3.3-3.2-.5-1.5-.5-1.3-.5-2.7-1.8-2.3-1.7-1.7-2-1-2-.8-2.3-.5-2.5v-2.7l.3-2.8 1.2-6.7 1.5-8 1.8-9.3.7-5.5.5-5.5.3-5.7v-5.5l-.8-5.3-.7-5.2-1-5.3-1.3-5.5-3-11-1.2-5.5-1.3-6-1.2-6.2-1-6.5-.5-7-.5-7.3.2-7.5.5-8.2.3-3 .7-3 1.8-6 2-6.3 2-6.5.7-3 .5-3 .3-3v-2.7l-.3-3-1-2.5-1.2-2.5-1.8-2.5-4.7-4.5-5-4.3-5.8-4.2-5.7-4.3-9-6.2-8.5-6.3-6.3-5-6-5-5.7-5.2-5.5-5.5-.8-.8" stroke-width="14"/><path d="m562.3 515.8 15.8-6.8 78.5-33 1.2-.7-4.5-9.8-9.7-23-5.8-13.2-5.2-12.5-4.3-11-1.5-4.5-1.2-3.5m-92.5-208.3.7 2.3 2.3 6.2 1.5 4.3 1.2 5 1.3 5.5 1.2 6 .8 6.2.2 6.5-.2 6.8-.3 3.2-.5 3.3-.7 3.2-.8 3.3-1.2 3.2-1.3 3-1.5 3-2 3-2 2.8-2.5 2.5-1.2 1.5-1.8 1.5-2 1.7m7.3-86.5 1-.2h.2l6-1 10.3-1.8 6.5-.7 6.7-.8 7-.2 7.3-.3h1" stroke-width="14"/><path d="m520.6 416.5 4 3.5 4.2 3.5 5 3.5 2.3 1.5 2.5 1.3 2.2.7 1.8.3h1.2l1.3.2 1 .5.7.5.8.8.7.7.5.8.3 1 .2.7v1l-.2 1-.3.8-.5.7-.7.8-1 .5-1.3.5-4.5.7h-4.5l-.5-.2" stroke-width="7"/><path d="m428.1 345-2 60.5-60-9.7" stroke-width="19.75"/><path d="m299.1 418.5v-4.7l.5-5 .7-5 1.3-5 1.7-4.8 2-4.7 2.3-4.5 2.7-4.3 3-4 3.3-4 3.7-3.5 3.8-3.2 4.2-3 4.3-2.5 4.5-2 4.7-1.8 3-.7 3-.8 3-.5 3-.2 3.3-.3h6l3 .5 3 .3 3 .7 6 1.5 5.5 2 3 1.5 2.7 1.3 2.5 1.5 2.8 1.7 2.5 2 2.2 1.8 2.5 2.2 2.3 2.3 2.2 2.2 2 2.5 2 2.8 2 2.7 1.8 2.8 1.5 3 1.5 3 1.5 3.2 1.2 3.5 1 3.3" stroke-width="19.75"/></g></svg>