<svg height="850" viewBox="0 0 850 850" width="850" xmlns="http://www.w3.org/2000/svg"><path d="m666.8 349.3.2 21.5-.2 6-.3 2-.2 1.7-.5 1.3-.5 1-.8.7-1 .5-2.5 1.3-3.7 1.5-128 65 3-2 2.2-2.5 2.3-2.3 1.5-2.2 2-3.5.7-1.5 1.8-30 1.2-26 1-22.5h.3l110.7-52.3.3 1.3.2.7.5.8.8.2 1.7 1.3 1 .7 1 1.3 1 1.5 1 2.2.8 3 1 3.8.5 4.7.5 5.8.5 6.7z" fill="#faa41f"/><path d="m652.3 612.3 1.8 2 1.5 2.3 1 2.3.5 1.3.3 1.3v2.8l-.5 1.3-.5 1.3-.5 1.5-1 1.5-1.3 1.5-1.3 1.5-10-7.3-11.3-8.6-10.8-7.5-7.5-5-6-3.8-5.5-3.8-5.3-4-5-4-5-4.3-4.8-4.5-4.5-4.8-4.8-5.3-1.3-1.5-1.5-1.5-1.8-1.5-2-1.3-2-.8-1-.3h-.8l-1 .3-.8.5-1 .8-.8.8-.8 2-.5 2.3-.5 4v2.2l-.5 2-.5.8-.5 1-.8 1-1 .8-2 1.3-2.3 1.3-2.3 1.3-2.3 1.5-2.3 1.5-.5.5-.8 1-.5 1-.3 1-.3 1.3.3 1.5.3 1 .8 1 .8.8.8.8 2.3 1 2.5.8 2.8.5 2.8.3 2.8.5 2.3.5 5.3 1.8 5.5 2 10.3 4.3 10.5 5 10 5.3 10.3 5.5 10 6 20.3 12.5.3.3-7.5 6-3.8 3-3.8 2.5-85.8-39.5-5.5-1.5-5.5-1.3-6-1-5.8-.3-6-.3-6 .3-6 .5-5.8.8-5.8.8-5.5 1-10.5 2.5-9.5 2.5-7.8 2.5-6.3 2-8 2.3-4.3 1.3-4.8 1-4.8.8-5 .5-5 .3-5.3-.3-5-.5-5-1-2.5-1-2.5-.8-2.5-1.3-2.3-1.3-2.5-1.3-2.3-1.8-2.3-1.8-2-2-5-5-4.8-5.5-5-5.8-4.3-6-4.3-6-3.8-6-1.5-3-1.3-2.8-1.3-2.8-1-2.8v-5l.5-4.8.5-2.3.5-2.3.8-2.3 1-2 .8-1.5 2-4 3.8-5.5 2.5-3.3 2.8-3.3 3.3-3.5 3.8-3.5 4-3.3 4.3-3.3 4.8-3 5.3-2.5 2.8-1 3-1 2.8-.8 3.3-.8 14.5-2.5 11.1-1.1 13.3-1.8 14-1.5 14.3-1 6.8-.3 6.5-.3 6.3.3 5.8.5 5.3.5 4.8.8 4.5 1 4 1 4 1.3 3.5 1.3 3.8 1.5 3.3 1.5 3.5 2 3.5 2 7 5 7.8 5.8 9 7 25 19.5 29.8 23.8 26.3 21 9 7.5zm-113-40.5 1.5-3.3 1-3.8.8-3.8.3-4.3v-4l-.8-4-1-3.5-.8-1.8-.8-1.5-1.3-2-1.5-1.8-1.5-1.5-1.5-1.5-3.8-2.8-3.8-2.3-4.3-2-4.3-1.5-4.3-1.3-4-1.3-4.8-1-4.5-1-4.8-.8h-4.1l-9.3-.5-9.3-.3-9.5.3-9.3.5-9.3.8-9.3 1-6 .5-6.5 1-6.5 1-6.8 1.5-6.5 1.8-3.3 1-3 1.3-3 1.3-2.8 1.5-2.5 1.5-2.5 1.8-3.5 2.8-3.3 3-1.5 1.5-1.5 1.8-1.3 1.8-1 2-1.8 4.3-.7 3.8-.8 3.8-.3 3.8.3 3.3.5 3 .8 2.5.8 2.5 1.5 2.3 1.3 2.3 1.8 2 1.8 1.8 2 1.8 2 1.5 4.5 3 5.3 2.8 5.8 2.8 5.8 2.5 5.8 2.3 6 2 6 1.8 6.3 1.5 5.8 1 3.5.5 3.5.3 7 .3 7.3-.5 7-.8 7.3-1.3 7-1.8 7-1.8 6.8-1.8 6.3-2 7-2.5 7-2.8 7.3-3.3 3.5-1.8 3.3-2 3.3-2 3-2.3 2.5-2.5 2.5-2.5 2.3-2.8z" fill="#ffffc2"/><path d="m652.3 632.5-5.5 5.3-7.3 6.5-.2-.3-20.3-12.5-10-6-10.2-5.5-10-5.2-10.5-5-10.3-4.3-5.5-2-5.2-1.7-2.3-.5-2.7-.5-2.8-.3-2.7-.5-2.5-.7-2.3-1-.7-.8-.8-.7-.7-1-.3-1-.2-1.5.2-1.3.3-1 .5-1 .7-1 .8-.7 2.2-1.5 2.3-1.5 2.2-1.3 2.3-1.2 2-1.3 1-.7.7-1 .5-1 .5-.8.5-2 .3-2.2.5-4 .5-2.3.7-2 .8-.7 1-.8.7-.5 1-.2h.8l1 .2 2 .8 2 1.2 1.7 1.5 1.8 1.8 1.2 1.5 4.8 5.2 4.5 4.8 4.7 4.5 5 4.2 5 4 5.3 4 5.5 3.8 6 3.7 7.5 5 10.7 7.5 11.3 8.3zm-27.8 23.3-.7.7-4 2.5-3.8 2-3.5 1.3-1.5.2-1.5.3-2.2-.5-3.3-.8-3.7-1.2-4.3-1.5-10.2-4-11.5-4.8-12-5-11.8-4.5-5.5-2-5.2-1.7-4.8-1.3-4.5-1-7.5-1-8.7-1-4.8-.5-4.7-.2h-5l-5 .2-5.3.3-5.2.7-5.3 1-5.2 1.5-5.3 1.8-5.2 2.2-5 2.8-5 3.2-6.8 5-3 2-3 2-3.2 1.8-3.3 1.5-3.7 1.5-4.3 1.5-2 .2-2.5.5h-5.2l-5.3-.5-2.2-.2-2.3-.5-5.2-1.5-4.5-1.5-3.5-1.5-3.3-1.5-2.5-1.5-2.2-1.8-2-2-2-2.5-2.3-3.2-4-6.3-5-8-5.5-10-2.7-5.5-2.8-5.5-2.2-6-2.5-5.7-1.8-6-1.7-6-1-5.8-.8-5.7 1 2.7 1.3 2.8 1.2 2.7 1.5 3 3.8 6 4.2 6 4.5 5.8 5 5.7 4.8 5.5 5 5 2 2 2.2 1.8 2.3 1.7 2.5 1.3 2.2 1.2 2.5 1.3 2.5.7 2.5 1 5 1 5 .5 5.3.3 5-.3 5-.5 4.7-.7 4.8-1 4.2-1.3 8-2.2 6.3-2 7.7-2.5 9.5-2.5 10.5-2.5 5.5-1 5.8-.8 5.7-.7 6-.5 6-.3 6 .3 5.8.2 6 1 5.5 1.3 5.5 1.5z" fill="#bd2226"/><path d="m529.3 451.8-2.8 1.7-3.5 1.3-3.5 1-2 .2h-6l-4-.5-8-1-8-1.5-8-1.7-8-2.3-8-2.2-15.2-4.3-14.3-3.7-7.5-2-6.5-2.3-2.7-1.5-2.5-1.5-2.3-1.7-2-2-1.7-2.3-1.3-2.5-1.2-2.2-1-2.5-.8-2.8-.5-2.5-1-5.2-.2-4.8-.3-4.2v-14l.3-7v-7l-.3-15-.2-7.8-.5-7.7-.5-7.8-1.3-7.7-.5-3.8-1-3.5-1-3.7-1-3.5-1.2-3.3-1-3.5-1-3.7-.5-3.5-.8-3.5-.2-3.5v-7l.2-3.3.5-3.2.8-3 1.2-3 1.3-2.5 1.5-2.5 2-2.3 2.2-1.7 1.5-1 1.5-1 1.8-.8 1.7-.7 4-1 5-.8 5.5-.7 6.3-.5h6.5l7.2.2 7.5.5 7.8 1.3 8 1.5 8 2 8 2.7 4 1.5 4 1.8 3.7 1.7 4 2 3.8 2.3 3.7 2.2 3.5 2.8 3.8 2.7 3.2 2.8 3.3 3.2 3.5 3.5 3.2 3.5 2.8 3.5 2.2 3.5 2.3 3.5 1.7 3.3 1.5 3.5 1.3 3.7 1.2 3.8.8 3.7.7 4.3.5 4.2.3 4.5.2 4.8.3 10.5-.3 10-1 22.5-1.2 26-1.8 30-.7 1.5-2 3.5-1.5 2.2-2.3 2.3-2.2 2.5z" fill="#ffffc2"/><path d="m539.5 542 .8 1.5.7 1.8 1 3.5.8 4v4l-.3 4.2-.7 3.8-1 3.7-1.5 3.3-1.8 3-2.2 2.7-2.5 2.5-2.5 2.5-3 2.3-3.3 2-3.2 2-3.5 1.7-7.3 3.3-7 2.7-7 2.5-6.2 2-6.8 1.8-7 1.7-7 1.8-7.2 1.2-7 .8-7.3.5-7-.3-3.5-.2-3.5-.5-5.7-1-6.3-1.5-6-1.8-6-2-5.7-2.2-5.8-2.5-5.7-2.8-5.3-2.7-4.5-3-2-1.5-2-1.8-1.7-1.7-1.8-2-1.2-2.3-1.5-2.2-.8-2.5-.7-2.5-.5-3-.3-3.3.3-3.7.7-3.8 1.3-4.2 1.7-4.3 1-2 1.3-1.7 1.5-1.8 1.5-1.5 3.2-3 3.5-2.7 2.5-1.8 2.5-1.5 2.8-1.5 3-1.2 3-1.3 3.2-1 6.5-1.7 6.8-1.5 6.5-1 6.5-1 6-.5 9.2-1 9.3-.8 9.2-.5 9.5-.2 9.3.2 9.2.5 4.5.5 4.8.8 4.5 1 4.7 1 4 1.2 4.3 1.3 4.2 1.5 4.3 2 3.7 2.2 3.8 2.8 1.5 1.5 1.5 1.5 1.5 1.7z" fill="#bd2226"/><path d="m412 257.3-1.7.7-1.8.8-1.5 1-1.5 1v-.3l2-1.5 5.3-4 8.2-6.2 5-3.5 5.8-3.8 6.2-3.7 6.8-3.8 7.2-4 7.5-3.5 7.8-3.5 8.2-3 8.3-2.7 8.5-2 8.5-1.8 8.2-1.5 8-1.5 7.8-1 7.5-.7 7.5-.8 7.2-.2 7-.3 6.8.3 6.7.5 6.5.7 6.3 1 6.2 1.3 6 1.5 5.8 2 5.7 2 5.5 2.5 5.5 2.7 5.3 3 5.2 3 5 3.5 4.8 3.5 4.5 3.8 4.2 4 4 4 3.5 4 3 4.2 2.5 4.5 2 4.3 1.5 4.5 1 4.5.3 2.2v2.3l-.3 7.7-.5 6-1 4.3-1 3-2 4.2-.7 2-.3 2.5-110.7 52.3h-.3l.3-10-.3-10.5-.2-4.8-.3-4.5-.5-4.2-.7-4.3-.8-3.7-1.2-3.8-1.3-3.7-1.5-3.5-1.7-3.3-2.3-3.5-2.2-3.5-2.8-3.5-3.2-3.5-3.5-3.5-3.3-3.2-3.2-2.8-3.8-2.7-3.5-2.8-3.7-2.2-3.8-2.3-4-2-3.7-1.7-4-1.8-4-1.5-8-2.7-8-2-8-1.5-7.8-1.3-7.5-.5-7.2-.2h-6.5l-6.3.5-5.5.7-5 .8z" fill="#faa41f"/><path d="m392.5 489.8.5.7-27.2 14.3-.8-1.5-2-1-2-1.3-1.5-1.5-1.5-1.7-1-1.8-1-2-.5-2v-3.7l.3-1.5.5-1.5.5-1.5.7-1.3 1-1.2 1-1.3 1.3-1 1.5-1 1.2-1 1.5-.7 1.8-.8 1.7-.5 1.8-.2 1.7-.3h3.8l2 .3 1.7.2 1.8.5 1.5.8 1.5.7 1.5 1 1.2 1 1.3 1 1.2 1.3.8 1.2.7 1.3.8 1.5.5 1.5.2 1.5zm-35.2-65 2 .2 1.7.5 1.8.8 1.2 1 1.3 1.2 1 1.3.5 1.7.2 1.5-.2 1.8-.5 1.5-1 1.2-1.3 1.3-1.2 1-1.8.7-1.7.5-2 .3-2-.3-2-.5-1.5-.7-1.5-1-1.3-1.3-1-1.2-.5-1.5-.2-1.8.2-1.5.5-1.7 1-1.3 1.3-1.2 1.5-1 1.5-.8 2-.5zm-54.3 7.5 2.8.2 2.5.5 2 1 2 1.3 1.7 1.7 1.3 1.8.7 2 .3 2.2-.3 2.3-.7 2-1.3 2-1.7 1.5-2 1.2-2 1-2.5.8-2.8.2-2.7-.2-2.3-.8-2.2-1-2-1.2-1.8-1.5-1-2-.7-2-.5-2.3.5-2.2.7-2 1-1.8 1.8-1.7 2-1.3 2.2-1 2.3-.5zm-34-62.5 1.8.2 2 .3 1.7.2 1.8.5 1.5.8 1.5.7 1.5.8 1.2 1 1.3 1.2 1 1.3 1 1.2.7 1.3.8 1.5.5 1.5.2 1.5v3l-.2 1.5-.5 1.5-.8 1.5-.7 1.2-1 1.3-1 1.2-1.3 1.3-1.2 1-1.5.7-1.5.8-1.5.7-1.8.5-1.7.3-2 .2-1.8.3-2-.3-1.7-.2-1.8-.3-1.7-.5-1.8-.7-1.5-.8-1.5-.7-1.2-1-1.3-1.3-1-1.2-1-1.3-.7-1.2-.5-1.5-.5-1.5-.3-1.5-.2-1.5.2-1.5.3-1.5.5-1.5.5-1.5.7-1.3 1-1.2 1-1.3 1.3-1.2 1.2-1 1.5-.8 1.5-.7 1.8-.8 1.7-.5 1.8-.2 1.7-.3zm-64-14h2l1.8.5 1.7.7 1.5 1 1.3 1.3.7 1.5.8 1.5v3.2l-.8 1.5-.7 1.5-1.3 1-1.5 1-1.7.8-1.8.5-2 .2-2-.2-1.7-.5-1.8-.8-1.5-1-1.2-1-.8-1.5-.7-1.5v-3.2l.7-1.5.8-1.5 1.2-1.3 1.5-1 1.8-.7 1.7-.5z" fill="#ffffc2"/><path d="m157 441v-81.7l.5 2.2.8 2.3 1.2 2.2 1.3 1.8 2.5 2.7 1 1 176 146.8-.3.5z" fill="#fbee34"/><path d="m157 359.3-.3-1.5.3-1.3.5-1.5.5-1.5 1-1.3 1.5-1.5 1.5-1.3 2.3-1.3 6.8-3 9-3.8 21-8 18.5-6.8 8-2.8 2.3-.8 2.8-.5 3.5-.3 4.3.3 2.3.3 2.5.5 2.5.8 2.5 1 2.5 1.3 2.8 1.5 4.5 3 7.3 5.5 22.5 17 29 22.8 32.3 25 58.5 46 26.3 20.8-43 22.6-.5-.8v-1.5l-.3-1.5-.5-1.5-.8-1.5-.8-1.3-.8-1.3-1.3-1.3-1.3-1-1.3-1-1.5-1-1.5-.8-1.5-.8-1.8-.5-1.8-.3-2-.3h-3.3l-1.8.3-1.8.3-1.8.5-1.8.8-1.5.8-1.3 1-1.5 1-1.3 1-1 1.3-1 1.3-.8 1.3-.5 1.5-.5 1.5-.3 1.5v3.8l.5 2 1 2 1 1.8 1.5 1.8 1.5 1.5 2 1.3 2 1 .8 1.5-25.5 13.5-176-146.8-1-1-2.5-2.8-1.3-1.8-1.3-2.3-.8-2.3zm210 73.7-.3-1.5-.5-1.8-1-1.3-1.3-1.3-1.3-1-1.8-.8-1.8-.5-2-.3-2 .3-2 .5-1.5.8-1.5 1-1.3 1.3-1 1.3-.5 1.8-.3 1.5.3 1.8.5 1.5 1 1.3 1.3 1.3 1.5 1 1.5.8 2 .5 2 .3 2-.3 1.8-.5 1.8-.8 1.3-1 1.3-1.3 1-1.3.5-1.5zm-50.7 10-.3-2.3-.8-2-1.2-1.7-1.8-1.8-2-1.3-2-1-2.5-.5-2.8-.3-2.8.3-2.1.6-2.3 1-2 1.3-1.7 1.7-1 1.8-.8 2-.5 2.3.5 2.3.8 2 1 2 1.8 1.5 2 1.3 2.3 1 2.3.8 2.8.3 2.8-.3 2.5-.8 2-1 2-1.3 1.8-1.5 1.3-2 .8-2zm-28.8-57.7v-1.5l-.3-1.5-.5-1.5-.8-1.5-.8-1.3-1-1.3-1-1.3-1.3-1.3-1.3-1-1.5-.8-1.5-.8-1.5-.8-1.8-.5-1.8-.3-2-.3-1.8-.3-2 .3-1.8.3-1.8.3-1.8.5-1.8.8-1.5.8-1.5.8-1.3 1-1.3 1.3-1 1.3-1 1.3-.8 1.3-.5 1.5-.5 1.5-.3 1.5-.3 1.5.3 1.5.3 1.5.5 1.5.5 1.5.8 1.3 1 1.3 1 1.3 1.3 1.3 1.3 1 1.5.8 1.5.8 1.8.8 1.8.5 1.8.3 1.8.3 2 .3 1.8-.3 2-.3 1.8-.3 1.8-.5 1.5-.8 1.5-.8 1.5-.8 1.3-1 1.3-1.3 1-1.3 1-1.3.8-1.3.8-1.5.5-1.5.3-1.5zm-72.7-21.5v-1.5l-.8-1.5-.8-1.5-1.2-1.3-1.5-1-1.8-.8-1.8-.5h-4l-1.8.5-1.8.8-1.5 1-1.3 1.3-.8 1.5-.8 1.5v3.3l.8 1.5.8 1.5 1.3 1 1.5 1 1.8.8 1.8.5 2 .3 2-.3 1.8-.5 1.8-.8 1.5-1 1.3-1 .8-1.5.8-1.5v-1.8z" fill="#fbee34"/><g fill="none" stroke="#231f20" stroke-linecap="round" stroke-miterlimit="10"><path d="m157 359.3-.2-1.5.2-1.3.5-1.5.5-1.5 1-1.2 1.5-1.5 1.5-1.3 2.3-1.2 6.7-3 9-3.8 21-8 18.5-6.7 8-2.8 2.3-.7 2.7-.5 3.5-.3 4.3.3 2.2.2 2.5.5 2.5.8 2.5 1 2.5 1.2 2.8 1.5 4.5 3 7.2 5.5 22.5 17 29 22.8 32.3 25 58.5 46 26.2 20.7-42.5 22.5-27.2 14.3-25.5 13.5-176-146.8-1-1-2.5-2.7-1.3-1.8-1.2-2.2-.8-2.3z" stroke-width="10.5"/><path d="m157 359v82l183 77.8 1.5.5m-54-134v1.5l-.2 1.5-.5 1.5-.8 1.5-.7 1.2-1 1.3-1 1.2-1.3 1.3-1.2 1-1.5.7-1.5.8-1.5.7-1.8.5-1.7.3-2 .2-1.8.3-2-.3-1.7-.2-1.8-.3-1.7-.5-1.8-.7-1.5-.8-1.5-.7-1.2-1-1.3-1.3-1-1.2-1-1.3-.7-1.2-.5-1.5-.5-1.5-.3-1.5-.2-1.5.2-1.5.3-1.5.5-1.5.5-1.5.7-1.3 1-1.2 1-1.3 1.3-1.2 1.2-1 1.5-.8 1.5-.7 1.8-.8 1.7-.5 1.8-.2 1.7-.3 2-.2 1.8.2 2 .3 1.7.2 1.8.5 1.5.8 1.5.7 1.5.8 1.2 1 1.3 1.2 1 1.3 1 1.2.7 1.3.8 1.5.5 1.5.2 1.5zm77.5 118-2-1-2-1.3-1.5-1.5-1.5-1.7-1-1.8-1-2-.5-2v-3.7l.3-1.5.5-1.5.5-1.5.7-1.3 1-1.2 1-1.3 1.3-1 1.5-1 1.2-1 1.5-.7 1.8-.8 1.7-.5 1.8-.2 1.7-.3h3.8l2 .3 1.7.2 1.8.5 1.5.8 1.5.7 1.5 1 1.2 1 1.3 1 1.2 1.3.8 1.2.7 1.3.8 1.5.5 1.5.2 1.5v1.5m-76.2-46.8-.3 2.3-.7 2-1.3 2-1.7 1.5-2 1.2-2 1-2.5.8-2.8.2-2.7-.2-2.3-.8-2.2-1-2-1.2-1.8-1.5-1-2-.7-2-.5-2.3.5-2.2.7-2 1-1.8 1.8-1.7 2-1.3 2.2-1 2.3-.5 2.7-.2 2.8.2 2.5.5 2 1 2 1.3 1.7 1.7 1.3 1.8.7 2zm50.7-10-.2 1.8-.5 1.5-1 1.2-1.3 1.3-1.2 1-1.8.7-1.7.5-2 .3-2-.3-2-.5-1.5-.7-1.5-1-1.3-1.3-1-1.2-.5-1.5-.2-1.8.2-1.5.5-1.7 1-1.3 1.3-1.2 1.5-1 1.5-.8 2-.5 2-.2 2 .2 1.7.5 1.8.8 1.2 1 1.3 1.2 1 1.3.5 1.7zm-152.2-69.2v1.7l-.8 1.5-.7 1.5-1.3 1-1.5 1-1.7.8-1.8.5-2 .2-2-.2-1.7-.5-1.8-.8-1.5-1-1.2-1-.8-1.5-.7-1.5v-3.2l.7-1.5.8-1.5 1.2-1.3 1.5-1 1.8-.7 1.7-.5h4l1.8.5 1.7.7 1.5 1 1.3 1.3.7 1.5.8 1.5zm314.5 88-2.8 1.7-3.5 1.3-3.5 1-2 .2h-6l-4-.5-8-1-8-1.5-8-1.7-8-2.3-8-2.2-15.2-4.3-14.3-3.7-7.5-2-6.5-2.3-2.7-1.5-2.5-1.5-2.3-1.7-2-2-1.7-2.3-1.3-2.5-1.2-2.2-1-2.5-.8-2.8-.5-2.5-1-5.2-.2-4.8-.3-4.2v-14l.3-7v-7l-.3-15-.2-7.8-.5-7.7-.5-7.8-1.3-7.7-.5-3.8-1-3.5-1-3.7-1-3.5-1.2-3.3-1-3.5-1-3.7-.5-3.5-.8-3.5-.2-3.5v-7l.2-3.3.5-3.2.8-3 1.2-3 1.3-2.5 1.5-2.5 2-2.3 2.2-1.7 1.5-1 1.5-1 1.8-.8 1.7-.7 4-1 5-.8 5.5-.7 6.3-.5h6.5l7.2.2 7.5.5 7.8 1.3 8 1.5 8 2 8 2.7 4 1.5 4 1.8 3.7 1.7 4 2 3.8 2.3 3.7 2.2 3.5 2.8 3.8 2.7 3.2 2.8 3.3 3.2 3.5 3.5 3.2 3.5 2.8 3.5 2.2 3.5 2.3 3.5 1.7 3.3 1.5 3.5 1.3 3.7 1.2 3.8.8 3.7.7 4.3.5 4.2.3 4.5.2 4.8.3 10.5-.3 10-1 22.5-1.2 26-1.8 30-.7 1.5-2 3.5-1.5 2.2-2.3 2.3-2.2 2.5z" stroke-width="10.5"/><path d="m405.5 260.5 2-1.5 5.3-4 8.2-6.2 5-3.5 5.8-3.8 6.2-3.7 6.8-3.8 7.2-4 7.5-3.5 7.8-3.5 8.2-3 8.3-2.7 8.5-2 8.5-1.8 8.2-1.5 8-1.5 7.8-1 7.5-.7 7.5-.8 7.2-.2 7-.3 6.8.3 6.7.5 6.5.7 6.3 1 6.2 1.3 6 1.5 5.8 2 5.7 2 5.5 2.5 5.5 2.7 5.3 3 5.2 3 5 3.5 4.8 3.5 4.5 3.8 4.2 4 4 4 3.5 4 3 4.2 2.5 4.5 2 4.3 1.5 4.5 1 4.5.3 2.2v2.3l-.3 7.7-.5 6-1 4.3-1 3-2 4.2-.7 2-.3 2.5.3 1.3.2.7.5.8.8.2 1.7 1.3 1 .7 1 1.3 1 1.5 1 2.2.8 3 1 3.8.5 4.7.5 5.8.5 6.7v8.3l.2 21.5-.2 6-.3 2-.2 1.7-.5 1.3-.5 1-.8.7-1 .5-2.5 1.3-3.7 1.5-128 65-5 2.7m131.7-147.5-110.7 52.3m-171.3 190.2 1-2 1.3-1.7 1.5-1.8 1.5-1.5 3.2-3 3.5-2.7 2.5-1.8 2.5-1.5 2.8-1.5 3-1.2 3-1.3 3.2-1 6.5-1.7 6.8-1.5 6.5-1 6.5-1 6-.5 9.2-1 9.3-.8 9.2-.5 9.5-.2 9.3.2 9.2.5 4.5.5 4.8.8 4.5 1 4.7 1 4 1.2 4.3 1.3 4.2 1.5 4.3 2 3.7 2.2 3.8 2.8 1.5 1.5 1.5 1.5 1.5 1.7 1.2 2 .8 1.5.7 1.8 1 3.5.8 4v4l-.3 4.2-.7 3.8-1 3.7-1.5 3.3-1.8 3-2.2 2.7-2.5 2.5-2.5 2.5-3 2.3-3.3 2-3.2 2-3.5 1.7-7.3 3.3-7 2.7-7 2.5-6.2 2-6.8 1.8-7 1.7-7 1.8-7.2 1.2-7 .8-7.3.5-7-.3-3.5-.2-3.5-.5-5.7-1-6.3-1.5-6-1.8-6-2-5.7-2.2-5.8-2.5-5.7-2.8-5.3-2.7-4.5-3-2-1.5-2-1.8-1.7-1.7-1.8-2-1.2-2.3-1.5-2.2-.8-2.5-.7-2.5-.5-3-.3-3.3.3-3.7.7-3.8 1.3-4.2z" stroke-width="10.5"/><path d="m349 572.8 1 2.7 1.3 2.8 1.2 2.7 1.5 3 3.8 6 4.2 6 4.5 5.8 5 5.7 4.8 5.5 5 5 2 2 2.2 1.8 2.3 1.7 2.5 1.3 2.2 1.2 2.5 1.3 2.5.7 2.5 1 5 1 5 .5 5.3.3 5-.3 5-.5 4.7-.7 4.8-1 4.2-1.3 8-2.2 6.3-2 7.7-2.5 9.5-2.5 10.5-2.5 5.5-1 5.8-.8 5.7-.7 6-.5 6-.3 6 .3 5.8.2 6 1 5.5 1.3 5.5 1.5 85.7 39.5" stroke-width="10.5"/><path d="m352.3 554.3-1 2-.8 2.2-.5 2.3-.5 2.2-.5 4.8v5l.8 5.7 1 5.8 1.7 6 1.8 6 2.5 5.7 2.2 6 2.8 5.5 2.7 5.5 5.5 10 5 8 4 6.3 2.3 3.2 2 2.5 2 2 2.2 1.8 2.5 1.5 3.3 1.5 3.5 1.5 4.5 1.5 5.2 1.5 2.3.5 2.2.2 5.3.5h5.2l2.5-.5 2-.2 4.3-1.5 3.7-1.5 3.3-1.5 3.2-1.8 3-2 3-2 6.8-5 5-3.2 5-2.8 5.2-2.2 5.3-1.8 5.2-1.5 5.3-1 5.2-.7 5.3-.3 5-.2h5l4.7.2 4.8.5 8.7 1 7.5 1 4.5 1 4.8 1.3 5.2 1.7 5.5 2 11.8 4.5 12 5 11.5 4.8 10.2 4 4.3 1.5 3.7 1.2 3.3.8 2.2.5 1.5-.3 1.5-.2 3.5-1.3 3.8-2 4-2.5.7-.7 3.8-2.5 3.7-3 7.5-6 7.3-6.5 5.5-5.3 1.2-1.5 1.3-1.5 1-1.5.5-1.5.5-1.2.5-1.3v-2.7l-.3-1.3-.5-1.2-1-2.3-1.5-2.2-1.7-2-4.8-4-9-7.5-26.2-21-29.8-23.8-25-19.5-9-7-7.7-5.7-7-5-3.5-2-3.5-2-3.3-1.5-3.7-1.5-3.5-1.3-4-1.2-4-1-4.5-1-4.8-.8-5.2-.5-5.8-.5-6.2-.2-6.5.2-6.8.3-14.2 1-14 1.5-13.3 1.7-11.5 1.8-14.5 2.5-3.2.7-2.8.8-3 1-2.7 1-5.3 2.5-4.7 3-4.3 3.2-4 3.3-3.7 3.5-3.3 3.5-2.7 3.2-2.5 3.3-3.8 5.5-2 4z" stroke-width="10.5"/><path d="m639.3 644-20.3-12.5-10-6-10.2-5.5-10-5.2-10.5-5-10.3-4.3-5.5-2-5.2-1.7-2.3-.5-2.7-.5-2.8-.3-2.7-.5-2.5-.7-2.3-1-.7-.8-.8-.7-.7-1-.3-1-.2-1.5.2-1.3.3-1 .5-1 .7-1 .8-.7 2.2-1.5 2.3-1.5 2.2-1.3 2.3-1.2 2-1.3 1-.7.7-1 .5-1 .5-.8.5-2 .3-2.2.5-4 .5-2.3.7-2 .8-.7 1-.8.7-.5 1-.2h.8l1 .2 2 .8 2 1.2 1.7 1.5 1.8 1.8 1.2 1.5 4.8 5.2 4.5 4.8 4.7 4.5 5 4.2 5 4 5.3 4 5.5 3.8 6 3.7 7.5 5 10.7 7.5 11.3 8.3 10 7.2" stroke-width="10.5"/><path d="m424.5 93.5h8.5l8.5.5 8.5.5 8.5.8 8.3 1 8.2 1 8.3 1.5 8.2 1.5 8 1.7 8 2 7.8 2 8 2.5 7.7 2.5 7.5 2.5 7.8 3 7.5 3 7.2 3.3 7.5 3.5 7 3.5 7.3 3.7 7 4 6.7 4 7 4.3 6.5 4.5 6.5 4.5 6.5 4.7 6.5 4.8 6 5 6.3 5.2 6 5.3 5.7 5.5 5.8 5.5 5.5 5.7 5.5 5.8 5.2 6 5 6 5 6.2 5 6.3 4.8 6.5 4.5 6.5 4.2 6.7 4.3 6.8 4.2 7 3.8 7 3.7 7 3.8 7.2 3.2 7.3 3.3 7.5 3 7.5 3 7.5 2.7 7.7 2.5 7.8 2.3 7.7 2.2 8 2 8 1.8 8 1.5 8 1.2 8.3 1.3 8.2 1 8.5.7 8.3.5 8.5.3 8.5.2 8.5-.2 8.7-.3 8.5-.5 8.5-.7 8.3-1 8.5-1.3 8.2-1.2 8-1.5 8.3-1.8 8-2 8-2.2 8-2.3 7.7-2.5 7.8-2.7 7.7-3 7.5-3 7.5-3.3 7.5-3.2 7.3-3.8 7.2-3.7 7-3.8 7-4.2 7-4.3 6.8-4.2 6.7-4.5 6.5-4.8 6.5-5 6.3-5 6.2-5 6-5.2 6-5.5 5.8-5.5 5.7-5.8 5.5-5.7 5.5-6 5.3-6.3 5.2-6 5-6.5 4.8-6.5 4.7-6.5 4.5-6.5 4.5-7 4.3-6.7 4-7 4-7.3 3.7-7 3.5-7.5 3.5-7.2 3.3-7.5 3-7.8 2.7-7.5 2.8-7.7 2.5-8 2.5-7.8 2-8 2-8 1.7-8.2 1.5-8.3 1.5-8.2 1-8.3 1-8.5.8-8.5.5-8.5.5h-8.5" stroke-width="49"/><path d="m424.5 757.3h-8.5l-8.5-.5-8.5-.5-8.5-.8-8.2-1-8.3-1-8.2-1.5-8.3-1.5-8-1.7-8-2-7.7-2-8-2.5-7.8-2.5-7.5-2.8-7.7-2.7-7.5-3-7.3-3.3-7.5-3.5-7-3.5-7.2-3.7-7-4-6.8-4-7-4.3-6.5-4.5-6.5-4.5-6.5-4.7-6.5-4.8-6-5-6.2-5.2-6-5.3-5.8-5.5-5.7-5.5-5.5-5.7-5.5-5.8-5.3-6-5-6-5-6.2-5-6.3-4.7-6.5-4.5-6.5-4.3-6.7-4.2-6.8-4.3-7-3.7-7-3.8-7-3.7-7.2-3.3-7.3-3.2-7.5-3-7.5-3-7.5-2.8-7.7-2.5-7.8-2.2-7.7-2.3-8-2-8-1.7-8-1.5-8.3-1.3-8-1.2-8.2-1-8.5-.8-8.3-.5-8.5-.2-8.5-.3-8.7.3-8.5.2-8.5.5-8.5.8-8.3 1-8.5 1.2-8.2 1.3-8.3 1.5-8 1.7-8 2-8 2.3-8 2.2-7.7 2.5-7.8 2.8-7.7 3-7.5 3-7.5 3.2-7.5 3.3-7.3 3.7-7.2 3.8-7 3.7-7 4.3-7 4.2-6.8 4.3-6.7 4.5-6.5 4.7-6.5 5-6.3 5-6.2 5-6 5.3-6 5.5-5.8 5.5-5.7 5.7-5.5 5.8-5.5 6-5.3 6.2-5.2 6-5 6.5-4.8 6.5-4.7 6.5-4.5 6.5-4.5 7-4.3 6.8-4 7-4 7.2-3.7 7-3.5 7.5-3.5 7.3-3.3 7.5-3 7.7-3 7.5-2.5 7.8-2.5 8-2.5 7.7-2 8-2 8-1.7 8.3-1.5 8.2-1.5 8.3-1 8.2-1 8.5-.8 8.5-.5 8.5-.5h8.5m-237 102 468.5 472.5" stroke-width="49"/></g></svg>