<svg height="850.394" viewBox="0 0 850.394 850.394" width="850.394" xmlns="http://www.w3.org/2000/svg"><path d="m399.98 81.97c0 19.3-40.87 34.95-91.27 34.95-50.41 0-91.27-15.65-91.27-34.95s40.86-34.95 91.27-34.95c50.4 0 91.27 15.65 91.27 34.95z" fill="#fff"/><path d="m308.22 127.52c97.45 0 97.45-32.7 97.45-32.7v79.71c-109.58 63.14-194.98 0-194.98 0h-.03l.13-78.74s-.07 31.73 97.43 31.73z" fill="#fff"/><path d="m363.48 792.8v-131.78c19.44-3.899 33.27-9.35 42.19-13.77 8.72-4.33 12.75-7.69 12.75-7.69v135.69s-17.19 10.87-54.94 17.55zm0-.01v.01c-15.31 2.71-34.01 4.73-56.31 5.061l1.06-129.861v-1.89c21.96 0 40.27-2.091 55.25-5.091z" fill="#787878"/><path d="m308.23 666.11v1.89l-1.06 129.86c-23.52.35-42.83-1.61-58.32-4.5v-132.84l.08-.359c15.69 3.459 35.32 5.949 59.3 5.949z" fill="#787878"/><path d="m363.48 661.02c-14.98 3-33.29 5.091-55.25 5.091-23.98 0-43.61-2.49-59.3-5.95-17.97-3.95-30.78-9.17-39.05-13.37l.78-472.26h.03s85.4 63.14 194.98 0v472.72c-8.92 4.419-22.75 9.869-42.19 13.769zm159.43-21.99a23.766 23.766 0 0 1 -.55-5.12c0-27.66 47.3-50.08 105.64-50.08s105.64 22.42 105.64 50.08v.09c-.1 27.63-47.359 50-105.64 50-54.69 0-99.68-19.71-105.09-44.97z" fill="#fff"/><path d="m733.64 634c0 4.02-1.83 133.13-1.83 133.78 0 27.66-47.29 50.09-105.63 50.09s-105.64-22.43-105.64-50.09c0-.471 1.75-95.761 2.37-128.75 5.41 25.26 50.4 44.97 105.09 44.97 58.28 0 105.54-22.37 105.64-50z" fill="#fff"/><path d="m248.93 660.16-.08.359v132.841c-35.4-6.61-50.81-18.11-50.81-18.11v-135.69s3.75 3.131 11.84 7.23c8.27 4.2 21.08 9.42 39.05 13.37z" fill="#787878"/><g fill="none" stroke="#000"><path d="m405.67 647.25c8.72-4.33 12.75-7.69 12.75-7.69v135.69s-17.19 10.87-54.94 17.55c-15.31 2.71-34.01 4.73-56.31 5.061-23.52.35-42.83-1.61-58.32-4.5-35.4-6.61-50.81-18.11-50.81-18.11v-135.691s3.75 3.131 11.84 7.23c8.27 4.2 21.08 9.42 39.05 13.37 15.69 3.46 35.32 5.95 59.3 5.95 21.96 0 40.27-2.091 55.25-5.091 19.44-3.899 33.27-9.349 42.19-13.769zm-97.44 20.75-1.06 129.86m-58.32-137.34v132.84m114.63-132.86v132.29m370.16-158.79c-.1 27.63-47.359 50-105.64 50-54.69 0-99.68-19.71-105.09-44.97a23.766 23.766 0 0 1 -.55-5.12c0-27.66 47.3-50.08 105.64-50.08s105.64 22.42 105.64 50.08" stroke-width="21.856"/><path d="m209.88 646.79.78-472.26.13-78.74s-.07 31.73 97.43 31.73c97.45 0 97.45-32.7 97.45-32.7v552.43m327.97-13.34v.09c0 4.02-1.83 133.13-1.83 133.78 0 27.66-47.29 50.09-105.63 50.09s-105.64-22.43-105.64-50.09c0-.471 1.75-95.761 2.37-128.75.13-6.82.21-10.98.22-11.08" stroke-width="21.856"/><path d="m399.98 81.97c0 19.3-40.87 34.95-91.27 34.95-50.41 0-91.27-15.65-91.27-34.95s40.86-34.95 91.27-34.95c50.4 0 91.27 15.65 91.27 34.95z" stroke-width="17.477"/><path d="m210.69 174.53s85.4 63.14 194.98 0" stroke-width="21.856"/></g><path d="m0 0h850.394v850.394h-850.394z" fill="none"/><path d="m366 510s-20 18-58 18c-44 0-58-18-58-18v-230s26 13 60 13c32 0 56-13 56-13z" fill="#f73900"/></svg>