<svg height="850.394" viewBox="0 0 850.394 850.394" width="850.394" xmlns="http://www.w3.org/2000/svg"><g fill="#9c5c25"><path d="m401.4 388.35c-9.66-9.46-16.91-24.7-19.93-42.76-1.02-6.04-1.56-12.39-1.56-18.94 0-5.49.38-10.83 1.1-15.97 4.48-32.1 22.19-56.07 43.36-56.07 21.24 0 39 24.14 43.41 56.4.689 5.04 1.05 10.27 1.05 15.64 0 5.04-.32 9.95-.92 14.7-2.62 20.44-10.58 37.71-21.41 47.81-6.52 6.07-14.07 9.54-22.13 9.54-8.41 0-16.27-3.78-22.97-10.35zm76.22 37.85c3.86 11.88 5.81 27.22 3.399 46.78-1.159 9.47-2.289 19.63-3.569 30l-1.29-.16h-101.32l-1.76.199c-1.14-9.97-2.19-19.75-3.31-28.899-2.38-19.43-.37-34.99 3.6-47.24l5.41 1.08h94.56z"/><path d="m450 390s18.8 9.1 27.62 36.2l-4.28 1.76h-94.56l-5.41-1.08c8.19-25.29 24.7-36.48 28.03-38.53 6.7 6.57 14.56 10.35 22.97 10.35 8.06 0 15.61-3.47 22.13-9.54zm-23.94-183.03c22.08 0 39.96 9.33 39.96 20.83s-17.88 20.82-39.96 20.82c-22.069 0-39.959-9.32-39.959-20.82s17.889-20.83 39.959-20.83zm34.4 368.46 2.53.33c-7.75 21.96-19.26 37.42-37.46 38.07-19.22-.61-30.92-15.86-38.57-37.59l3.07-.811h70.43z"/><path d="m467.71 539.4 4.39.1c-2.359 13-5.27 25.42-9.109 36.26l-2.53-.33h-70.43l-3.07.811c-3.83-10.9-6.64-23.42-8.87-36.53l1.81-.31h87.809z"/><path d="m476.16 502.82 1.29.16c-1.49 12.14-3.19 24.579-5.351 36.52l-4.39-.1h-87.809l-1.81.31c-2.05-12-3.6-24.49-5.01-36.69l1.76-.199h101.32z"/></g><path d="m381.47 345.59-.78.13c-2.1 5.89-9.08 15.85-30.05 30.46-37.15 25.9-113.7 24.77-184.61-11.25-34.13-17.33-112.57-91.18-100.19-136.21s126.08-7.88 209.38 22.51c72.99 26.63 100.17 53.26 105.79 59.45-.72 5.14-1.1 10.48-1.1 15.97 0 6.55.54 12.9 1.56 18.94zm403.49-118c12.39 45.03-66.06 118.88-100.18 136.21-70.92 36.02-148.261 38.25-184.61 11.26-28.35-21.06-31.85-31.21-32.26-33.71.6-4.75.92-9.66.92-14.7 0-5.37-.36-10.6-1.05-15.64l.859-.12s23.65-30.39 106.94-60.79c83.311-30.39 197.011-67.54 209.381-22.51z" fill="#fff5b4"/><g fill="none" stroke="#231f20" stroke-width="21"><path d="m467.78 311.01c.689 5.04 1.05 10.27 1.05 15.64 0 5.04-.32 9.95-.92 14.7-2.62 20.44-10.58 37.71-21.41 47.81-6.52 6.07-14.07 9.54-22.13 9.54-8.41 0-16.27-3.78-22.97-10.35-9.66-9.46-16.91-24.7-19.93-42.76-1.02-6.04-1.56-12.39-1.56-18.94 0-5.49.38-10.83 1.1-15.97 4.48-32.1 22.19-56.07 43.36-56.07 21.24 0 39 24.14 43.41 56.4zm-1.76-83.21c0 11.5-17.88 20.82-39.96 20.82-22.069 0-39.959-9.32-39.959-20.82s17.89-20.83 39.959-20.83c22.08 0 39.96 9.33 39.96 20.83z"/><path d="m382.16 312.02s-.36-.47-1.15-1.34c-5.62-6.19-32.8-32.82-105.79-59.45-83.3-30.39-197-67.54-209.38-22.51s66.06 118.88 100.19 136.21c70.91 36.02 147.46 37.15 184.61 11.25 20.97-14.61 27.95-24.57 30.05-30.46m21.31 42.28s-.21.11-.6.35c-3.33 2.05-19.84 13.24-28.03 38.53-3.97 12.25-5.98 27.811-3.6 47.24 1.12 9.149 2.17 18.93 3.31 28.899 1.41 12.2 2.96 24.69 5.01 36.69 2.23 13.11 5.04 25.63 8.87 36.53 7.65 21.729 19.35 36.979 38.57 37.59.11 0 .21.01.32.01"/><path d="m189.67 74.5s130.58 56.28 141.83 68.67c11.26 12.38 10.13 123.82 45.03 148.59m12.38 92.3s-42.77 19.14-67.54 66.42c-24.76 47.279-18.06 46.939-72.04 73.17-39.4 19.14-69.8 32.649-69.8 32.649m188-100.199s-24.77 27.021-24.77 64.17c0 37.15 32.64 95.681 22.51 111.44-10.13 15.771-74.29 139.59-74.29 139.59" stroke-linecap="round" stroke-linejoin="round"/><path d="m468.64 310.89s23.65-30.39 106.94-60.79c83.31-30.39 197.01-67.54 209.38-22.51 12.39 45.03-66.06 118.88-100.18 136.21-70.92 36.02-148.261 38.25-184.61 11.26-28.35-21.06-31.85-31.21-32.26-33.71-.08-.43-.061-.63-.061-.63m-17.849 49.28s18.8 9.1 27.62 36.2c3.86 11.88 5.81 27.22 3.399 46.78-1.159 9.47-2.289 19.63-3.569 30-1.49 12.14-3.19 24.579-5.351 36.52-2.359 13-5.27 25.42-9.109 36.26-7.75 21.96-19.26 37.42-37.46 38.07-.1 0-.21.01-.31.01"/><path d="m661.14 73.37s-130.58 56.28-141.84 68.67c-11.26 12.38-10.13 123.82-45.03 148.59m-12.38 92.3s42.771 19.14 67.54 66.41c24.771 47.28 18.07 46.95 72.051 73.18 39.39 19.141 69.789 32.65 69.789 32.65m-187.99-100.19s24.76 27.01 24.76 64.159c0 37.15-32.64 95.681-22.51 111.44 10.13 15.77 74.29 139.6 74.29 139.6m-181.04-342.219h94.56m-99.06 37.15h101.32m-100.76 37.71h101.32m-96.26 36.58h87.81m-77.68 36.03h70.43" stroke-linecap="round" stroke-linejoin="round"/></g><path d="m0 0h850.394v850.394h-850.394z" fill="none"/></svg>