<svg height="850" viewBox="0 0 850 850" width="850" xmlns="http://www.w3.org/2000/svg"><path d="m186.8 671.3 1.2-4.5.8-1.8.5-1.5.7-1 1-1 1.5-1.7 1.8-1.3 2-1.7 2-2.3 1-1.5 1-1.7 1-2.3 1-2.5.5-2.7.5-2.8.7-6 .3-6.5-.3-6.5v-6.2l-.5-11v-20.8l-.2-31.5-.3-16.5-.5-15.2-1-12.3-.5-4.7-.7-3.5-.8-2.5-1.2-3.3-3.5-8.7-4.8-10.5-5.2-10.8-9.3-19.2-4-8.5h-4.5l2.8-2.3 2.5-2.2 2.2-2.5 2.3-3 1.7-2.3 1.8-2.2 2.2-2.3 2.5-2 5.5.8 32.3 41 14.5-29 2.7-.3 3.8-.7 3.7-1.3 7.3-2.7 3.5-1 2-.5h3.2l1.8.2 1.7.5 1.5.8 1.5 1 1.3 1-2 2.5-3.5 8.7-3.3 8.5-2.7 6.8-2 6.5-1.5 6.5-1.3 6.5-1 7-.7 7.7-1.3 18 .3 46 .2 33.8.5 19.5.5 11.2.5 6.3.8 6 1.2 6 .8 2.7 1 2.8 1 2.7 1.2 2.5 1.5 2.5 1.5 2 2 2.5 2 2.3 3.8 3.7 1.5 1.8 1.5 2 1.2 2.2 1 2.5.8 2.8.7 2.5.3 2.7-.3 2.5-.5 2.5-.5 1-.7 1-.8 1-1 .8-1.2.7-1.5.8-3.3 1-3 .7-3.2.8-3.3 1-5.7 1.7-6 1.5-6.3 1-3.5.5-3.2.3h-7l-3.8-.3-3.5-.5-3.7-.7-4-1-3.8-1.3-4-1.5-2.5-.7-2.7-1-3.3-1.5-1.5-1-1.7-1.3-1.5-1.5-1.3-1.5-1-2-1-2.2-.5-2.3z" fill="#9e5c26"/><path d="m176.8 426.8-2.3 3-2.2 2.5-2.5 2.2-2.8 2.3-2.7 1.7-3 1.3-3 1.2-3.3 1-3.2.5-3.3.3h-3.5l-3.2-.3-3.5-.5-3.3-.7-3.5-1-3.2-1.3-3.3-1.7-3-1.8-3-2-3-2.2-3-2.5-3-1.8-2.5-1-2.2-.7-2.3-.3h-2l-4-.2-2-.3-2.2-.7-2.3-1.3-2.5-1.7-2.7-2.5-3-3.5-3.5-4.5-3.8-5.8-.5-1-.5-1.2-.5-2.8-.2-3.2v-3.3l-.3-6.7v-3l-.5-2.5-1.5-5.5-.7-4.8-.3-4.2.3-4 .7-3.3 1-3 1.3-2.5 1.5-2.2 1.5-2 1.5-1.8 2.7-3 .8-1.5.7-1.2.3-1.3-.5-1.5-2-4.7-1.5-5-1-4.8-.5-4.7v-2.3l.2-2.5.3-2.2.5-2.5 1.5-5 2-5 2.2-4.3 2.5-4 2.8-3.5 3-3 3.2-3 3.3-2.7 3.7-2.8 4-2.5 2-1.5 1.8-1.5 1.5-1.5 1.2-1.5 1.3-1.7 1-1.5 1.7-3.5 1.5-3.8 1.3-4 1.2-4.2 1.8-4.5 1.5-3.3 1.5-3 1.7-2.7 2-2.8 2.3-2.2 2.2-2.3 2.5-2.2 2.8-1.8 2.7-1.7 3-1.8 3-1.2 3-1.3 3.3-1.2 3.2-.8 3.5-.7 3.5-.8 3-.2 3-.3 6 .3 11.5 1 5.5.2 3-.2 2.8-.3 2.7-.5 2.8-1 2.7-1.2 3-1.5 4.3-2.8 4.5-2.7 4.7-2.3 4.8-2.2 5-1.5 2.5-.8 2.5-.2 2.5-.5h2.7l2.8.2 2.7.3 3 .7 2.8 1 2.5 1.3 2.5 1.5 2.2 1.7 2 1.8 4 4.2 4 4 2 2 2.3 1.8 2.2 1.7 2.3 1.5 2.5 1.3 2.7 1 7 1.7 7 1.5 7.5 1.8 3.5 1 3.5 1 3.5 1.2 3 1.8 3.3 1.7 2.7 2 2.5 2.5 2.3 2.8 2 3.2 1.7 3.8 1 3.2.8 3 .2 2.8.5 2.7.3 5 .5 4.8.2 2 .5 2.2 1 2 1 2 1.8 2 2 2 2.5 1.8 3 2 2.2 1.2 2.3 1.8 2 1.7 2 1.8 2 2 2 2.2 3.5 4.8 3.2 5 2.8 5.5 2.5 5.7 2.2 6 1.8 6 1.2 6.3 1 6 .5 5.7.3 5.5-.3 5.5-.7 4.8-1.3 4.5-.7 2.5-1 2-1.3 1.7-1 1.5-2.5 2.5-2.5 2.3-2.2 2.2-1.3 1.3-1.2 1.5-1 1.5-1 2-1 2.2-.8 2.5-1.7 5.3-2 5-2.3 4.5-1.5 2-1.5 2-1.5 1.7-1.7 1.8-2 1.5-2 1.5-2.3 1.2-2.2 1-2.5.8-2.8.7-4 .8-3.7.7-4 .5-3.8.5-2.5.8-2.5 1-2 1-2.2 1.2-4.3 2.5-2.2 1.3-2.3 1.2-2.5.8-2.5.7-2.7.5h-2.5l-2.8.3-2.5-.3-2.7-.5-2.5-.7-2-.8-1.5-1-1.5-1.2-1.3-1.3-2.2-2.5-2.5-2.7-1.3-1-1.5-1-1.5-.8-1.7-.5-1.8-.2h-3.2l-2 .5-3.5 1-7.3 2.7-3.7 1.3-3.8.7-2.7.3-1.5-.3-1.3-.2-1-.3-1-.5-1.7-1.5-1.5-1.7-1.8-2-2-2.5-2.5-2.5-3.5-2.5-2.2-1.5-2.5-1.5-2.3-1-2.5-.8-2.2-.5-2.3-.2h-4.7l-2 .2-2.3.5-2 .8-2 .7-4 2-3.5 2.5-2.5 2-2.2 2.3-1.8 2.2z" fill="#33a048"/><path d="m477.3 659.8v-.3l.2-.2 14 10.5 1.8.2-.5 3.3-1 2.2-.5.8-.5.7-1.8 1.3-2 1-2.5 1-7.2 2.5-2.5 1-.8.7-1.2 1-3.8 2.3-1.7.7-2.3.3h-2l-2.2-.5-2-.5-1.8-1-1.5-1.3-.5-.7-.2-.8-.3-1.7v-1.8l.3-1.5.7-1.5 1-1.5 1-1.5 1.5-1 1.5-1.2 5.5-3 5.3-3 2.2-1.8 2-1.5 1.3-1.7.5-.8zm68.5.7.2.8.3 1 1 1.7 1.7 1.5 2.3 1.8 2.5 1.5 3 1.7 5.5 3 1.5 1 1.5 1.3 1.2 1.2.8 1.5.7 1.5.3 1.8v1.7l-.3 1.8-.2.7-.5.8-1.3 1-1.7 1-2.3.7-2 .5h-2.2l-2.3-.5-1.7-.5-3.8-2.5-1-1-1-.5-2.5-1.2-7.2-2.5-2.5-1-2-1-1.8-1.3-.5-.7-.7-.8-.8-2.5-.5-3v-.2z" fill="#231f20"/><path d="m545.8 660.5-16.3 10.3v.2l-.5-5.2-1.5-10.5-13-113h-6.5l-13 113.5-1.2 8.7-.5 5.5-1.8-.2-14-10.5-.2.2-1.5-21.5-3-38.2-2.8-40.3-.7-16.2-.3-11v-5.5l.3-5 .7-9.3 3.3.5h77.7l1-.2.5 4.5.5 4.7.5 5.3v5.2l-.2 11.3-.8 16.5-2.5 40.7-2.7 38.5z" fill="#7a7878"/><path d="m578.8 468.8 3.5 13.2 4 15 5 17-14 3.5-27.3-59.5-3.2 34 1 2.8 1.2 4.7 1.5 6 1.5 7.3-1 .2h-77.7l-3.3-.5 1.3-8.5 1.2-6.5 1-4 .5-1.5-2.7-34.2-26.5 57.7-1.3-.7-13.5-1 4.8-17.3 4.2-14.7 3.5-13.3 1-4 1.5-4.5 3.3-9.2 3.5-9.3 4-9 6.5-14.2 2.7-5.8 3.8-3.5 4.5-3.5 5-3.5 4.7-3.2 8-4.8 3.5-2.2 1.5 1.5 1.8 1.2 1.5 1 1.7 1 2 .8 1.8.5 2 .5h4l2-.5 1.7-.5 2-.8 1.8-1 1.7-1 1.5-1.5 1.5-1.5 3.5.5 3.5 2 8 5.3 5 3.2 4.8 3.5 4.7 3.5 3.8 3.3 2.7 5.7 6.5 14.5 3.8 8.8 3.7 9.5 3.3 9.2 1.2 4.3z" fill="#a9d7f3"/><path d="m591.3 514 1.2 4.3.8 4.2.7 4.3.5 4.2.3 3.8v3.5l-.3 2.7-.5 2-.2 1-.5 1-.8 1-1 1-1 .8-1.2.5-1 .5h-1.3l-.5-.3-.7-.2-1-1-.8-1.5-.5-1.8-1.2-3.5-.5-1.7-.8-1-.7.2-.5.5-.3.8-.2.7-.5 1.5-.3.3-.5.2-.7-.7-.5-1-.5-2.5-.5-3.3v-7.7l.5-4 .5-3.3.5-2zm-147.3 3.3.5 2 .5 3.2.3 4 .2 4.3-.2 3.5-.3 3-.7 2.7-.5 1-.5.8-.5-.3-.5-.5-.3-1.2-.2-.8-.5-.7-.5-.5-.8-.5-.5 1.2-.5 1.5-1.2 3.8-.8 1.7-.7 1.5-1 1-.5.3-.5.2h-1.3l-1.2-.5-1-.5-1-1-1-.7-.8-1-.5-1-.5-1-.2-2.3-.3-2.7v-3.3l.3-3.7.5-4.3.5-4.2 1-4.3 1.2-4.2 13.5 1 1.3.7zm50.5-125.5-1.7-2-1.5-2.5-1.5-2.5-1.3-2.8-1-3-.7-3.2-.3-3.3-.2-3.2.2-3 .3-3 .5-2.8.7-2.7 1-2.5 1-2.3 1.5-2.2 1.3-2.3 1.7-1.7 1.8-1.8 1.7-1.5 2-1.2 2-1 2.3-.5 2.2-.5 2.3-.3 2.2.3 2.3.5 2.2.5 2 1 2 1.2 1.8 1.5 1.7 1.8 1.5 1.7 1.5 2.3 1.3 2.2 1.2 2.3 1 2.5.8 2.7.5 2.8.2 3 .3 3-.3 3.2-.2 3.3-.8 3-1 3-1.2 2.7-1.3 2.8-1.7 2.2-1.8 2-1.5 1.5-1.5 1.5-1.7 1-1.8 1-2 .8-1.7.5-2 .5h-4l-2-.5-1.8-.5-2-.8-1.7-1-1.5-1-1.8-1.2z" fill="#ffeec8"/><path d="m529.3 194 4.2.3 4.3.5 3.7 1 3.8 1.5 3.7 1.7 3.5 2 3 2.5 3 2.5 2.8 3 2.2 3.3 2 3.2 1.8 3.8 1.5 3.7 1 4 .5 4 .2 4.3-.2 4.2-.5 4-1 4-1.5 3.8-1.8 3.5-2 3.5-2.2 3.2-2.8 3-3 2.5-3 2.5-3.5 2-3.7 1.8-3.8 1.2-3.7 1-4.3.8-4.2.2-4.3-.2-4-.8-4-1-3.7-1.2-3.5-1.8-3.5-2-3.3-2.5-2.7-2.5-2.8-3-2.5-3.2-2-3.5-1.7-3.5-1.3-3.8-1-4-.7-4-.3-4.2.3-4.3.7-4 1-4 1.3-3.7 1.7-3.8 2-3.2 2.5-3.3 2.8-3 2.7-2.5 3.3-2.5 3.5-2 3.5-1.7 3.7-1.5 4-1 4-.5z" fill="#fbee34"/><path d="m358.8 562.8 5.7 118.5-10.7-51.8zm-7 133v.5l-16.8 1.5-1.5-16.5-1.2-16.5-1.3-16.5-1.7-16.5-1-7.3-1.5-7.7-1.3-3.8-1-3.7-1.5-3.5-1.5-3-1.2-2-1.5-2-1.8-2.3-1.7-2-2.3-2-2.2-1.5-2.3-1-1.2-.5h-1.3l1.3-.2h1.2l1.3.2 1.5.3 2.7 1.2 2.8 1.8 2.7 2 2.3 2 2 2.2 1.5 2 2.2 3.8 1.5 3.2 1.3 3.3 1 3 1.7 5.7 1.3 5.5 9.2 37.8zm26.7-46.5-8.7 35.7-1.3-64 5.3-69.7z" fill="#abd153"/><path d="m367.3 694.3v.7l-15.5.8-8.3-32.5-2-26.3-1-13.2-1.5-13-.5-4-.5-4-1-3.8-1-4-1.2-3.7-1.5-3.8-1.5-3.7-2-3.5-3-5.5-2.3-3.3-2.2-3.2-2.5-2.8-2.8-2.5-1.2-1-1.5-1-1.5-.5-1.5-.2 1.5-.3h1.2l1.5.3 1.5.2 3 1 3 1.8 2.8 2 2.7 2.5 2.8 2.5 2.5 2.7 1.5 2 1.7 2.5 1.8 2.8 1.7 3.2 2 3.5 1.8 4 1.5 4 1.7 4.8 6.3 29.7 10.7 51.8 1.5 6.5zm45.7-106-1.2.2-1.3.5-2.5 1-2.2 1.5-2 2-2 2-1.8 2-1.5 2.3-1.2 2-1.5 3-1.3 3.5-1.2 3.7-1 3.8-1.8 7.7-1 7-1.5 16.5-1.5 16.5-1.2 16.8-1.5 16.5-16.5-1.8v-.7l2.5-9.3 8.7-35.7 6-24.8 1.5-5.7 1.5-5.5 1-3 1.3-3.3 1.7-3.5 2-3.5 1.5-2 2-2.2 2.5-2.3 2.5-1.7 3-1.8 2.8-1.2 1.2-.3 1.5-.2h1.3z" fill="#abd153"/><g fill="none" stroke="#231f20" stroke-linecap="round" stroke-miterlimit="10"><path d="m276 667.5-1.5-3.2m-87.7 7 .2 2.7.5 2.3 1 2.2 1 2 1.3 1.5 1.5 1.5 1.7 1.3 1.5 1 3.3 1.5 2.7 1 2.5.7 4 1.5 3.8 1.3 4 1 3.7.7 3.5.5 3.8.3h7l3.2-.3 3.5-.5 6.3-1 6-1.5 5.7-1.7 3.3-1 3.2-.8 3-.7 3.3-1 1.5-.8 1.2-.7 1-.8.8-1 .7-1 .5-1 .5-2.5.3-2.5-.3-2.7-.7-2.5-.8-2.8m-89.2 3.8v1.2zm-15.3-234.5 4 8.5 9.3 19.2 5.2 10.8 4.8 10.5 3.5 8.7 1.2 3.3.8 2.5.7 3.5.5 4.7 1 12.3.5 15.2.3 16.5.2 31.5v20.8l.5 11v6.2l.3 6.5-.3 6.5-.7 6-.5 2.8-.5 2.7-1 2.5-1 2.3-1 1.7-1 1.5-2 2.3-2 1.7-1.8 1.3-1.5 1.7-1 1-.7 1.3-.5 1.2-.8 1.8-1.2 4.5m46.2-198.5-10.2-13-32.3-41" stroke-width="14"/><path d="m269.3 430.3-3.5 8.7-3.3 8.5-2.7 6.8-2 6.5-1.5 6.5-1.3 6.5-1 7-.7 7.7-1.3 18 .3 46 .2 33.8.5 19.5.5 11.2.5 6.3.8 6 1.2 6 .8 2.7 1 2.8 1 2.7 1.2 2.5 1.5 2.5 1.5 2 2 2.5 2 2.3 3.8 3.7 1.5 1.8 1.5 2 1.2 2.2 1 2.5v.8m-53.2-208.5 14.5-29" stroke-width="14"/><path d="m224.8 421.3-2.5-2.5-2.8-2-2.2-1.5-2.5-1.5-2.3-1-2.5-.8-2.2-.5-2.3-.2h-4.7l-2 .2-2.3.5-2 .8-2 .7-4 2-3.5 2.5-2.5 2-2.2 2.3-1.8 2.2-1.7 2.3-2.3 3-2.2 2.5-2.5 2.2-2.8 2.3-2.7 1.7-3 1.3-3 1.2-3.3 1-3.2.5-3.3.3h-3.5l-3.2-.3-3.5-.5-3.3-.7-3.5-1-3.2-1.3-3.3-1.7-3-1.8-3-2-3-2.2-3-2.5-3-1.8-2.5-1-2.2-.7-2.3-.3h-2l-4-.2-2-.3-2.2-.7-2.3-1.3-2.5-1.7-2.7-2.5-3-3.5-3.5-4.5-3.8-5.8-.5-1-.5-1.2-.5-2.8-.2-3.2v-3.3l-.3-6.7v-3l-.5-2.5-1.5-5.5-.7-4.8-.3-4.2.3-4 .7-3.3 1-3 1.3-2.5 1.5-2.2 1.5-2 1.5-1.8 2.7-3 .8-1.5.7-1.2.3-1.3-.5-1.5-2-4.7-1.5-5-1-4.8-.5-4.7v-2.3l.2-2.5.3-2.2.5-2.5 1.5-5 2-5 2.2-4.3 2.5-4 2.8-3.5 3-3 3.2-3 3.3-2.7 3.7-2.8 4-2.5 2-1.5 1.8-1.5 1.5-1.5 1.2-1.5 1.3-1.7 1-1.5 1.7-3.5 1.5-3.8 1.3-4 1.2-4.2 1.8-4.5 1.5-3.3 1.5-3 1.7-2.7 2-2.8 2.3-2.2 2.2-2.3 2.5-2.2 2.8-1.8 2.7-1.7 3-1.8 3-1.2 3-1.3 3.3-1.2 3.2-.8 3.5-.7 3.5-.8 3-.2 3-.3 6 .3 11.5 1 5.5.2 3-.2 2.8-.3 2.7-.5 2.8-1 2.7-1.2 3-1.5 4.3-2.8 4.5-2.7 4.7-2.3 4.8-2.2 5-1.5 2.5-.8 2.5-.2 2.5-.5h2.7l2.8.2 2.7.3 3 .7 2.8 1 2.5 1.3 2.5 1.5 2.2 1.7 2 1.8 4 4.2 4 4 2 2 2.3 1.8 2.2 1.7 2.3 1.5 2.5 1.3 2.7 1 7 1.7 7 1.5 7.5 1.8 3.5 1 3.5 1 3.5 1.2 3 1.8 3.3 1.7 2.7 2 2.5 2.5 2.3 2.8 2 3.2 1.7 3.8 1 3.2.8 3 .2 2.8.5 2.7.3 5 .5 4.8.2 2 .5 2.2 1 2 1 2 1.8 2 2 2 2.5 1.8 3 2 2.2 1.2 2.3 1.8 2 1.7 2 1.8 2 2 2 2.2 3.5 4.8 3.2 5 2.8 5.5 2.5 5.7 2.2 6 1.8 6 1.2 6.3 1 6 .5 5.7.3 5.5-.3 5.5-.7 4.8-1.3 4.5-.7 2.5-1 2-1.3 1.7-1 1.5-2.5 2.5-2.5 2.3-2.2 2.2-1.3 1.3-1.2 1.5-1 1.5-1 2-1 2.2-.8 2.5-1.7 5.3-2 5-2.3 4.5-1.5 2-1.5 2-1.5 1.7-1.7 1.8-2 1.5-2 1.5-2.3 1.2-2.2 1-2.5.8-2.8.7-4 .8-3.7.7-4 .5-3.8.5-2.5.8-2.5 1-2 1-2.2 1.2-4.3 2.5-2.2 1.3-2.3 1.2-2.5.8-2.5.7-2.7.5h-2.5l-2.8.3-2.5-.3-2.7-.5-2.5-.7-2-.8-1.5-1-1.5-1.2-1.3-1.3-2.2-2.5-2.5-2.7-1.3-1-1.5-1-1.5-.8-1.7-.5-1.8-.2h-3.2l-2 .5-3.5 1-7.3 2.7-3.7 1.3-3.8.7-2.7.3-1.5-.3-1.3-.2-1-.3-1-.5-1.7-1.5-1.5-1.7-1.8-2-2-2.5-2.5-2.5-3.5-2.5m351-181.5-.2 4.2-.5 4-1 4-1.5 3.8-1.8 3.5-2 3.5-2.2 3.2-2.8 3-3 2.5-3 2.5-3.5 2-3.7 1.8-3.8 1.2-3.7 1-4.3.8-4.2.2-4.3-.2-4-.8-4-1-3.7-1.2-3.5-1.8-3.5-2-3.3-2.5-2.7-2.5-2.8-3-2.5-3.2-2-3.5-1.7-3.5-1.3-3.8-1-4-.7-4-.3-4.2.3-4.3.7-4 1-4 1.3-3.7 1.7-3.8 2-3.2 2.5-3.3 2.8-3 2.7-2.5 3.3-2.5 3.5-2 3.5-1.7 3.7-1.5 4-1 4-.5 4.3-.3 4.2.3 4.3.5 3.7 1 3.8 1.5 3.7 1.7 3.5 2 3 2.5 3 2.5 2.8 3 2.2 3.3 2 3.2 1.8 3.8 1.5 3.7 1 4 .5 4zm-41.5-48.8v-31.5m-25 37.5-17.2-26m-.8 45.3-28.5-13.3m97.5-6.5 17.3-26m.7 45.3 28.3-13.3m-47.3 80.3 17.3 26m.5-45.3 28.5 13.3m-97.3 6.5-17.5 26m-.5-45.3-28.5 13.3m23.8-37h-31.5m160.5 0h-31.3m-49 79v-31.5" stroke-width="14"/><path d="m353.8 629.5 5-66.7 5.7 118.5m5.3 3.7-1.3-64 5.3-69.7 4.7 98" stroke-width="7"/><path d="m367.3 695-15.5.8h-.3" stroke-width="7.25"/><path d="m343.5 663.3-2-26.3-1-13.2-1.5-13-.5-4-.5-4-1-3.8-1-4-1.2-3.7-1.5-3.8-1.5-3.7-2-3.5-3-5.5-2.3-3.3-2.2-3.2-2.5-2.8-2.8-2.5-1.2-1-1.5-1-1.5-.5-1.5-.2 1.5-.3h1.2l1.5.3 1.5.2 3 1 3 1.8 2.8 2 2.7 2.5 2.8 2.5 2.5 2.7 1.5 2 1.7 2.5 1.8 2.8 1.7 3.2 2 3.5 1.8 4 1.5 4 1.7 4.8 6.3 29.7 10.7 51.8 1.5 6.5 1.3 6.5" stroke-width="7"/><path d="m351.8 695.8v.5l-16.8 1.5-1.5-16.5-1.2-16.5-1.3-16.5-1.7-16.5-1-7.3-1.5-7.7-1.3-3.8-1-3.7-1.5-3.5-1.5-3-1.2-2-1.5-2-1.8-2.3-1.7-2-2.3-2-2.2-1.5-2.3-1-1.2-.5h-1.3l1.3-.2h1.2l1.3.2 1.5.3 2.7 1.2 2.8 1.8 2.7 2 2.3 2 2 2.2 1.5 2 2.2 3.8 1.5 3.2 1.3 3.3 1 3 1.7 5.7 1.3 5.5 9.2 37.8zm15.5-.8 16.5 1.8 1.5-16.5 1.2-16.8 1.5-16.5 1.5-16.5 1-7 1.8-7.7 1-3.8 1.2-3.7 1.3-3.5 1.5-3 1.2-2 1.5-2.3 1.8-2 2-2 2-2 2.2-1.5 2.5-1 1.3-.5 1.2-.2h-2.5l-1.5.2-1.2.3-2.8 1.2-3 1.8-2.5 1.7-2.5 2.3-2 2.2-1.5 2-2 3.5-1.7 3.5-1.3 3.3-1 3-1.5 5.5-1.5 5.7-6 24.8-8.7 35.7-2.5 9.3z" stroke-width="7"/><path d="m494.5 391.8-1.7-2-1.5-2.5-1.5-2.5-1.3-2.8-1-3-.7-3.2-.3-3.3-.2-3.2.2-3 .3-3 .5-2.8.7-2.7 1-2.5 1-2.3 1.5-2.2 1.3-2.3 1.7-1.7 1.8-1.8 1.7-1.5 2-1.2 2-1 2.3-.5 2.2-.5 2.3-.3 2.2.3 2.3.5 2.2.5 2 1 2 1.2 1.8 1.5 1.7 1.8 1.5 1.7 1.5 2.3 1.3 2.2 1.2 2.3 1 2.5.8 2.7.5 2.8.2 3 .3 3-.3 3.2-.2 3.3-.8 3-1 3-1.2 2.7-1.3 2.8-1.7 2.2-1.8 2-1.5 1.5-1.5 1.5-1.7 1-1.8 1-2 .8-1.7.5-2 .5h-4l-2-.5-1.8-.5-2-.8-1.7-1-1.5-1-1.8-1.2z" stroke-width="14"/><path d="m430 513.8 4.8-17.3 4.2-14.7 3.5-13.3 1-4 1.5-4.5 3.3-9.2 3.5-9.3 4-9 6.5-14.2 2.7-5.8 3.8-3.5 4.5-3.5 5-3.5 4.7-3.2 8-4.8 3.5-2.2h.3m-17.5 267.7-1.5-21.5-3-38.2-2.8-40.3-.7-16.2-.3-11v-5.5l.3-5 .7-9.3 1.3-8.5 1.2-6.5 1-4 .5-1.5-2.7-34.2-26.5 57.7-.8 1.8.5 2 .5 3.2.3 4 .2 4.3-.2 3.5-.3 3-.7 2.7-.5 1-.5.8-.5-.3-.5-.5-.3-1.2-.2-.8-.5-.7-.5-.5-.8-.5-.5 1.2-.5 1.5-1.2 3.8-.8 1.7-.7 1.5-1 1-.5.3-.5.2h-1.3l-1.2-.5-1-.5-1-1-1-.7-.8-1-.5-1-.5-1-.2-2.3-.3-2.7v-3.3l.3-3.7.5-4.3.5-4.2 1-4.3 1.2-4.2m47.5 147-.2-1m114-145.8-5-17-4-15-3.5-13.2-1.3-4-1.2-4.3-3.3-9.2-3.7-9.5-3.8-8.8-6.5-14.5-2.7-5.7-3.8-3.3-4.7-3.5-4.8-3.5-5-3.2-8-5.3-3.5-2m20 101.3.3-1.3 3.2-34 27.3 59.5-.5 2-.5 3.3-.5 4v7.7l.5 3.3.5 2.5.5 1 .7.7.5-.2.3-.3.5-1.5.2-.7.3-.8.5-.5.7-.2.8 1 .5 1.7 1.2 3.5.5 1.8.8 1.5 1 1 .7.2.5.3h1.3l1-.5 1.2-.5 1-.8 1-1 .8-1 .5-1 .2-1 .5-2 .3-2.7v-3.5l-.3-3.8-.5-4.2-.7-4.3-.8-4.2-1.2-4.3" stroke-width="14"/><path d="m545.8 661.3v-.8l1.5-21 2.7-38.5 2.5-40.7.8-16.5.2-11.3v-5.2l-.5-5.3-.5-4.7-.5-4.5-1.5-7.3-1.5-6-1.2-4.7-1-2.8-.5-1m-51.3 164.5v.3l-1.2 8.7-.5 5.5-.5 3.3-1 2.2-.5.8-.5.7-1.8 1.3-2 1-2.5 1-7.2 2.5-2.5 1-.8.7-1.2 1-3.8 2.3-1.7.7-2.3.3h-2l-2.2-.5-2-.5-1.8-1-1.5-1.3-.5-.7-.2-.8-.3-1.7v-1.8l.3-1.5.7-1.5 1-1.5 1-1.5 1.5-1 1.5-1.2 5.5-3 5.3-3 2.2-1.8 2-1.5 1.3-1.7.5-.8v-1l.2-.2" stroke-width="14"/><path d="m527.5 655.3 1.5 10.5.5 5.2.5 3 .8 2.5.7.8.5.7 1.8 1.3 2 1 2.5 1 7.2 2.5 2.5 1.2 1 .5 1 1 3.8 2.5 1.7.5 2.3.5h2.2l2-.5 2.3-.7 1.7-1 1.3-1 .5-.8.2-.7.3-1.8v-1.7l-.3-1.8-.7-1.5-.8-1.5-1.2-1.2-1.5-1.3-1.5-1-5.5-3-3-1.7-2.5-1.5-2.3-1.8-1.7-1.5-1-1.7-.3-1-.2-.8m-18.3-4.5v-.7l-13-113h-6.5l-13 113.5m-21.7-142.8h77.7" stroke-width="14"/><path d="m622.8 465.5h154m-102.8-43.5-52.2 43.8 40 43.5" stroke-width="21"/><path d="m430 513.8 13.5 1m133.8 2.7 14-3.5m-113.8 145.3 14 10.5m38 1 16.3-10.3" stroke-width="14"/></g></svg>