<svg height="850" viewBox="0 0 850 850" width="850" xmlns="http://www.w3.org/2000/svg"><path d="m242.8 451.3-13.8-.3-24.7-54-3 30.8 1 2.7 1.2 4 1.3 5.5 1.2 6.5-.7.3h-70.5l-2.8-.3 1-8 1.3-5.7 1.2-5-2.5-31-24.7 54-12.8-3.3 4.5-15.5 3.8-13.5 3.2-12 1-3.7 1-4 3-8.3 3.5-8.5 3.3-8 6-13 2.5-5.2 3.5-3 4-3.3 4.5-3.2 4.5-2.8 7.2-4.5 3.3-2 1.2 1.3 1.5 1.2 1.5 1 1.5.8 1.8.7 1.7.5 1.8.3 1.7.2 1.8-.2 1.7-.3 1.8-.5 1.7-.7 1.5-.8 1.5-1 1.5-1.2 1.5-1.5 3 .5 3.3 2 7.2 4.5 4.5 3 4.3 3 4.2 3.2 3.5 3 2.5 5.3 5.8 13 3.5 8 3.5 8.5 2.7 8.5 1.3 3.7 1 3.8 3.2 12 3.8 13.5 4.5 15.5z" fill="#a9d7f3"/><path d="m200.5 580.3v.7l.3.8 1 1.5h-.3l-15.5 8-.5-2.8-.2-3.2-1.5-9.5-11.5-102.5h-6l-11.8 102.7-1 8-.2 3.5-.5 3-1.3-.2-13-11v.2l-1.5-19.7-2.7-34.5-2.3-36.3-.7-14.7-.5-10 .2-5 .3-4.5.7-8.3 2.8.3h70.5l.7-.3.8 4.3.2 4.2.5 4.5v5l-.2 10.3-.8 15-2.2 36.7z" fill="#7a7878"/><path d="m743.8 238.3v376l-8.8 2.7-75.7-80.7h-.3v-218.5h.5l77-82z" fill="#ffffc2"/><path d="m743.8 614.3v12l-8.8-9.3z" fill="#ffffc2"/><path d="m735 617 8.8 9.3h-26v-4z" fill="#f6cc4b"/><path d="m539.3 288.5h-21.8l-7.7 28.5h-90.5v.3l-71-82.3 12.5-3.7 179-.3 181.7-.5 15 5.3-77 82h-.5v-.8h-89.7l-8-28.5z" fill="#fff"/><path d="m659.3 536.3 75.7 80.7-17.2 5.3v4h-186l-178.3-1.8-10.5-6 76.3-82.2h239.7z" fill="#f6cc4b"/><path d="m419.3 317.3v-.3h90.5l-5.8 20.3h71l-5.8-20.3h89.8v219.3h-26.5v-136.8h-70.8v136.8h-142.4zm92.5 144.2v-63h-70.8v63z" fill="#ffffc2"/><path d="m632.5 533.5v2.8h-70.7v-136.8h70.7z" fill="#9e5c26"/><path d="m569.3 317 5.7 20.3h-71l5.8-20.3zm-30-28.5h22l8 28.5h-59.5l7.7-28.5z" fill="#f6cc4b"/><path d="m511.8 425.5v36h-35.5v-36zm0-27v27h-35.5v-27zm-35.5 59.8v3.2h-35.3v-63h35.3v27z" fill="#fff"/><path d="m419.3 317.3v219l-76.3 82.2-5.5-3-1.7-376.5 12.5-4z" fill="#ffffc2"/><path d="m353.5 624.5-16-.2 5.5-5.8z" fill="#f6cc4b"/><path d="m343 618.5-5.5 5.8v-8.8z" fill="#ffffc2"/><path d="m242.8 451.3.7 3.5.5 3.5.8 6.5v5.5l-.3 2-.2 1.7-.3.8-.5 1-1.5 1.7-1 .8-1 .5-1 .5h-1.2l-.5-.3-.5-.2-.8-1-.7-1.3-.8-1.5-1-3.2-.5-1.5-.5-1-.7.2-.5.5-.3.5-.2.8-.3 1.2-.2.5h-.8l-.5-.5-.2-1-.8-2.2-.2-3-.3-3.3.3-3.7.2-3.5.5-3 .5-1.8z" fill="#ffeec8"/><path d="m215.5 592.3 1.3 1 1.2 1 1.3 1.2.7 1.3.5 1.5.5 1.5v1.5l-.5 1.5-.2.7-.3.5-1.2 1.3-1.5.7-2 .8-2 .2h-2l-1.8-.2-1.7-.5-3.3-2.3-1.2-1-.8-.5-2.2-1-6.3-2.2-2.2-.8-1.8-.7-1.5-1-1.2-1.3-.8-2-.5-2.2 15.5-8h.3l1 1.2 1.5 1 3.5 2.3z" fill="#231f20"/><path d="m154.3 337-1.8-2-1.5-2-1.2-2.5-1-2.5-1-2.5-.5-3-.5-3-.3-3 .3-2.7.2-2.5.5-2.5.8-2.5.7-2.3 1-2.2 1.3-2 1.2-1.8 1.5-1.7 1.5-1.5 1.8-1.5 1.7-1 2-1 1.8-.5 2-.5h4.2l2 .5 2 .5 1.8 1 2 1 1.5 1.5 1.7 1.5 1.3 1.7 1.5 1.8 1 2 1 2.2 1 2.3.7 2.5.5 2.5.3 2.5v5.7l-.5 3-.5 2.8-1 2.7-1 2.5-1.3 2.3-1.5 2.2-1.5 1.8-1.5 1.5-1.5 1.2-1.5 1-1.5.8-1.7.7-1.8.5-1.7.3-1.8.2-1.7-.2-1.8-.3-1.7-.5-1.8-.7-1.5-.8-1.5-1-1.5-1.2z" fill="#ffeec8"/><path d="m138.5 579.5v-.2l13 11 1.3.2-.5 2.3-1 1.7-1 1.3-1.5 1-1.8.7-2.2.8-6.3 2.2-2.2 1-.8.5-1.2 1-3.3 2-1.7.8-1.8.2h-2l-2-.5-2-.5-1.5-1-1.2-1-.3-.5-.5-.7-.2-1.5v-1.8l.5-1.2.5-1.5.7-1.3 1-1.2 1.3-1.3 1.5-.7 5-2.8 4.7-3 2.3-1.2 1.5-1.5 1.2-1.5.3-.8z" fill="#231f20"/><path d="m108.3 450.8.5 1.7.5 3 .2 3.5v7l-.2 2.8-.8 2.5-.2.7-.8.8h-.5l-.2-.5-.3-1.3-.5-1.2-.5-.5-.7-.5-.5 1.2-.5 1.3-1 3.5-.8 1.5-.7 1.2-.8 1-.5.3-.7.2-1-.2-1-.3-1-.5-1-.7-1.5-1.8-.5-1-.3-.7-.5-2v-5.5l.3-3.5.2-3.8.8-3.7.7-4 1-3.8z" fill="#ffeec8"/><g fill="none" stroke="#231f20" stroke-linecap="round" stroke-miterlimit="10"><path d="m569.3 317h89.7v219.3h-239.7v-219.3h90.5m149.5 219.3 75.7 80.7 8.8 9.3h-212l-178.3-1.8-16-.2 5.5-5.8 76.3-82.2" stroke-width="14"/><path d="m419.8 317.8-.5-.5-71-82.3-3.5-3.7h16l179-.3 181.7-.5 20.3-.2-5.3 5.5-77 82m-323.7-88.5v9.7l1.7 376.5v8.8m406.3-386v388m0-401.3v13.3m-232 187.2v36h-70.8v-63h70.8zm50 108v-134h70.7v134" stroke-width="14"/><path d="m476.3 399.5v58.8m0-32.8h35.5" stroke-width="7"/><path d="m539.3 256.5v32m-29.5 28.5-5.8 20.3h71l-5.7-20.3-8-28.5h-43.8z" stroke-width="14"/><path d="m154.3 337-1.8-2-1.5-2-1.2-2.5-1-2.5-1-2.5-.5-3-.5-3-.3-3 .3-2.7.2-2.5.5-2.5.8-2.5.7-2.3 1-2.2 1.3-2 1.2-1.8 1.5-1.7 1.5-1.5 1.8-1.5 1.7-1 2-1 1.8-.5 2-.5h4.2l2 .5 2 .5 1.8 1 2 1 1.5 1.5 1.7 1.5 1.3 1.7 1.5 1.8 1 2 1 2.2 1 2.3.7 2.5.5 2.5.3 2.5v5.7l-.5 3-.5 2.8-1 2.7-1 2.5-1.3 2.3-1.5 2.2-1.5 1.8-1.5 1.5-1.5 1.2-1.5 1-1.5.8-1.7.7-1.8.5-1.7.3-1.8.2-1.7-.2-1.8-.3-1.7-.5-1.8-.7-1.5-.8-1.5-1-1.5-1.2zm-58.8 110.5 4.5-15.5 3.8-13.5 3.2-12 1-3.7 1-4 3-8.3 3.5-8.5 3.3-8 6-13 2.5-5.2 3.5-3 4-3.3 4.5-3.2 4.5-2.8 7.2-4.5 3.3-2m-15.8 242.5-1.5-19.7-2.7-34.5-2.3-36.3-.7-14.7-.5-10 .2-5 .3-4.5.7-8.3 1-8 1.3-5.7 1.2-5-2.5-31-24.7 54 .5 1.7.5 3 .2 3.5v7l-.2 2.8-.8 2.5-.2.7-.8.8h-.5l-.2-.5-.3-1.3-.5-1.2-.5-.5-.7-.5-.5 1.2-.5 1.3-1 3.5-.8 1.5-.7 1.2-.8 1-.5.3-.7.2-1-.2-1-.3-1-.5-1-.7-1.5-1.8-.5-1-.3-.7-.5-2v-5.5l.3-3.5.2-3.8.8-3.7.7-4 1-3.8m43 133.3v-1.3m103.3-131.7-4.5-15.5-3.8-13.5-3.2-12-1-3.8-1.3-3.7-2.7-8.5-3.5-8.5-3.5-8-5.8-13-2.5-5.3-3.5-3-4.2-3.2-4.3-3-4.5-3-7.2-4.5-3.3-2m18.3 91.5v-1l3-30.8 24.7 54-.5 1.8-.5 3-.2 3.5-.3 3.7.3 3.3.2 3 .8 2.2.2 1 .5.5h.8l.2-.5.3-1.2.2-.8.3-.5.5-.5.7-.2.5 1 .5 1.5 1 3.2.8 1.5.7 1.3.8 1 .5.2.5.3h1.2l1-.5 1-.5 1-.8 1.5-1.7.5-1 .3-.8.2-1.7.3-2v-5.5l-.8-6.5-.5-3.5-.7-3.5-1-3.5" stroke-width="7"/><path d="m200.5 581v-.7l3.8-53.8 2.2-36.7.8-15 .2-10.3v-5l-.5-4.5-.2-4.2-.8-4.3-1.2-6.5-1.3-5.5-1.2-4-1-2.7-.3-1m-46.5 149v.2l-1 8-.2 3.5-.5 3-.5 2.3-1 1.7-1 1.3-1.5 1-1.8.7-2.2.8-6.3 2.2-2.2 1-.8.5-1.2 1-3.3 2-1.7.8-1.8.2h-2l-2-.5-2-.5-1.5-1-1.2-1-.3-.5-.5-.7-.2-1.5v-1.8l.5-1.2.5-1.5.7-1.3 1-1.2 1.3-1.3 1.5-.7 5-2.8 4.7-3 2.3-1.2 1.5-1.5 1.2-1.5.3-.8.2-1v-.2" stroke-width="7"/><path d="m183.8 575.8 1.5 9.5.2 3.2.5 2.8.5 2.2.8 2 1.2 1.3 1.5 1 1.8.7 2.2.8 6.3 2.2 2.2 1 .8.5 1.2 1 3.3 2.3 1.7.5 1.8.2h2l2-.2 2-.8 1.5-.7 1.2-1.3.3-.5.2-.7.5-1.5v-1.5l-.5-1.5-.5-1.5-.7-1.3-1.3-1.2-1.2-1-1.3-1-7.7-4.5-3.5-2.3-1.5-1-1-1.2-1-1.5-.3-.8v-.7" stroke-width="7"/><path d="m184 576.3-.2-.5-11.5-102.5h-6l-11.8 102.7m-19.7-129.2h70.5" stroke-width="7"/><path d="m95.5 447.5 12.8 3.3m120.7.2 13.8.3h.7m-105 128 13 11m34 1h.5l15.5-8" stroke-width="7"/><path d="m261.3 436.8h126.2m-84.2-35.8-42.8 36 32.8 35.8" stroke-width="21"/></g></svg>