<svg height="850" viewBox="0 0 850 850" width="850" xmlns="http://www.w3.org/2000/svg"><path d="m681.5 321.5h5l4.7-.2 4.5-.5 4.5-1 2.8-.8 2.5-1 5.5.3 7 4.5 7 5 6.2 5.5 6.3 5.7 5.7 6.3 5.3 6.5 5 7 4.5 7.2 4 7.5 3.5 7.8 3 8.2 2.7 8.3 2 8.5 1.5 8.7.8 9 .2 4.5v11.5l-.5 6.8-1 6.5-1 6.7-1.5 6.5-1.7 6.3-2.3 6.2-2.2 6-2.8 5.8-3 5.7-3 5.8-3.5 5.2-3.7 5.3-3.8 5.2-4.2 4.8-4.5 4.5-4.5 4.5-4.8 4.2-5 4-5.2 3.8-5.3 3.2-5.5 3.3-5.7 3-6 2.7-6 2.3-6 2.2-6.3 1.8-6.5 1.5-6.5 1.2-6.5.8-6.7.5-7 .2-6.8-.2-6.7-.5-6.5-.8-6.5-1.2-6.5-1.5-6.3-1.8-6-2.2-6-2.3-6-2.7-5.7-3-5.5-3.3-5.3-3.2-5.2-3.8-5-4-4.8-4.2-4.7-4.5-4.3-4.5-4.2-4.8-3.8-5.2-3.7-5.3-3.5-5.2-3.3-5.8-2.7-5.7-2.8-5.8-2.2-6-2.3-6.2-1.7-6.3-1.5-6.5-1-6.7-1-6.5-.5-6.8v-11.2l-3-1.3 9.5-9.5 10.5-9.5 10.2-9.5 10.3-8.5 6.7-5.2 6-4.5 5.5-3.5 2.3-1.3 2-1 3.5-1.2 4.2-1 4.8-.8 5-.5 11.7-.5 13-.5 13.8-.2 7-.5 7-.5 6.7-.5 6.5-1 6.5-1.3 6.3-1.5 3.5-1 3.2-1.2 2.8-1.5 2.5-1.3 2.2-1.5 1.8-1.7 1.7-1.5 1.3-1.8 1-1.7 1-1.8.5-1.7.5-1.8.2-2v-1.7l-.2-3.5-.8-3.5-1.2-3.3-1.3-2.7-1.2-2.5-2.5-3.8-1-1.5z" fill="#ed1d31"/><path d="m681.5 321.5v.5l1 1.5 2.5 3.8 1.2 2.5 1.3 2.7 1.2 3.3.8 3.5.2 3.5v1.7l-.2 2-.5 1.8-.5 1.7-1 1.8-1 1.7-1.3 1.8-1.7 1.5-1.8 1.7-2.2 1.5-2.5 1.3-2.8 1.5-3.2 1.2-3.5 1-6.3 1.5-6.5 1.3-6.5 1-6.7.5-7 .5-7 .5-13.8.2-13 .5-11.7.5-5 .5-4.8.8-4.2 1-3.5 1.2-2 1-2.3 1.3-5.5 3.5-6 4.5-6.7 5.2-262 181.5 5 3.3 2.5 1.7 2 1.8 3.5 2.7 3.2 2.8v.2l-4.5-.2-4.7.2-4.8.5-5 1-5 1-5 1.3-5.2 1.5-5 1.5-10.8 4-10.5 4.5-10.7 5-10.8 5.2-10.5 5.5-10.5 5.8-19.7 11.2-18.5 10-8.3 4.3-7.7 3.7-70.8-195 7-.5 8-1 8.8-1.2 9.7-1.5 21-4 22-4.5 10.8-2.5 10.5-2.5 10-2.8 9.2-2.7 8.5-2.5 7.3-2.5 6-2.5 4.7-2.5 11.3-6.3 7.2-4 6.3-3.7 6-4 3-2.3 3-2.5 3-3 3.2-3 3.3-3.5 3.5-4 7.5-9.7 9-12 8-15 9-15.5 11-18.5 5.7-9.5 6.3-9.5 6.2-9.3 6-8.5 6-7.7 5.8-6.8 2.7-3 2.8-2.5 2.5-2 2.5-1.7 5.5-3.3 7-3.7 8.5-4 9.7-4.5 10.5-4.5 11-4.8 23.5-9.5 11.8-4.5 11.2-4.2 11-3.8 10.3-3.5 9-2.7 8-2.3 6.5-1.5 2.7-.2 2.3-.3h4.2l5 .5 5.8.8 6 1 13.5 2.5 14.2 3 26.8 6 10.7 2 4.5.7 3.5.5 2.8.3 2.2.7 2.3 1 2 1.5 1.5 1.5 1.5 1.5 1.2 2 1 2 .8 2.3.2 2 .3 2.2v2.3l-.3 2-.5 2.2-.7 2-1 1.8 24.7 3.2 8.8 1 5.5.5 4 .3 3.5 1 3.2 1.2 2.8 1.5 2.5 2 2 2.3 1.5 2.5 1.2 2.5.8 2.7.2 2.8v2.5l-.5 2.7-.7 2.3-1.5 2.2-1.8 2-2 1.5-.2.3 28.5 2.5 1.7.2 1.8.3 3 1 2.7 1.7 2.3 2 2 2.3 1.5 2.5 1 2.7.7 3 .5 3-.2 3-.5 3-1 3-1.3 2.5-1.7 2.5-2.3 2.3-2.7 1.7-2.5 1-2.8.8-4.5 1-4.5.5-4.7.2z" fill="#ffeec8"/><path d="m287 572 262-181.5-10.3 8.5-10.2 9.5-10.5 9.5-9.5 9.5-9 9-7.3 8-3.5 4-3.2 4.3-3.3 4.7-3.2 4.8-3 5-2.8 5.7-3 6.8-1.2 2.2-1 2.3-.8 2.5-.7 2.7-.3 2.5-.5 2.8v5.7l.3 3 .2 2.8.5 3 .8 2.7.7 3 1 2.8 1 3 1.3 2.7 1.5 2.5 1.5 2.8 1.7 2.5 2 2.2 2 2.3 2 2.2 2.3 1.8 2.5 2 2.7 1.5 2.5 1.5 3 1 3 1 3 .7 3.5.5 3.3.3h3.5l8.7-.3 8.5.3 8.3.5 8 1 8 1.5 7.2 1.7 7.3 2.3 6.5 2.7 6.2 3 2.8 1.8 2.7 1.7 2.5 1.8 2.5 2 2.3 2 2.2 2 2 2.2 1.8 2.3 1.5 2.5 1.5 2.2 1.2 2.8 1 2.5.8 2.7.7 2.8.8 5.7.5 5.3v4.5l-.3 2-.5 1.7-.5 1.8-.7 1.5-1 1.5-1 1.2-1.3 1-1.2 1-1.8.8-1.7.5-2 .2-2 .3h-2.3l-2.5-.3-5.5-1-6.5-1.2-8.5-1.8-10-1.7-12.5-2-14.7-1.5-8.3-.5-7.7-.5h-8l-7.5.2-7.5.5-7.3.8-14.2 1.5-26.8 3.5-12.7 1.2-6 .5-6.3.3h-5.7l-6.3-.3-6.7-.5-7-.7-7.3-1.3-7.5-1.2-7.5-1.5-7.7-2-7.8-2.3-7.7-2.5-7.8-3-7.7-3.2-7.3-3.5-7.2-4-7-4.3-6.8-4.7-3.2-2.8-3.5-2.7-2-1.8-2.5-1.7z" fill="#ffeec8"/><g fill="none" stroke="#231f20" stroke-linecap="round" stroke-miterlimit="10" stroke-width="21"><path d="m218.7 422.3 11.3-6.3m194.5-135.5 14.5-7.2 32.5-16.3 18-8.7 16.5-7.8 13-6 4.5-1.7 2.7-1 1.8-.3h2.5l7.5.5 10 .8 12 1.5 27.5 3.5 28 4 24.7 3.2 8.8 1 5.5.5 4 .3 3.5 1 3.2 1.2 2.8 1.5 2.5 2 2 2.3 1.5 2.5 1.2 2.5.8 2.7.2 2.8v2.5l-.5 2.7-.7 2.3-1.5 2.2-1.8 2-2 1.5"/><path d="m443.2 330.8 16-8.8 36.3-19.7 19.7-10.5 17.8-9.5 13.7-7 4.5-2.3 2.5-1 2-.2 3.3-.3 9.7.3 13.8.5 16.2 1 36.5 2.7 34.3 2.8 28.5 2.5 1.7.2 1.8.3 3 1 2.7 1.7 2.3 2 2 2.3 1.5 2.5 1 2.7.7 3 .5 3-.2 3-.5 3-1 3-1.3 2.5-1.7 2.5-2.3 2.3-2.7 1.7-2.5 1-2.8.8-4.5 1-4.5.5-4.7.2h-5l-5.3-.2-5.2-.5-10.8-1.3-11-1.7-11.2-2-10.8-1.8-10.7-1.2-5.3-.5-5.2-.3h-5l-5 .3-11 1.2-5 .8-4.5.7-4.3 1-3.7 1-3.8 1-3.2 1.3-3.3 1.2-3 1.5-5.7 3-5.3 3.3-5.5 3.7-6.7 4.8-9.3 6-21.2 13.2-26.8 16m-170.5 212.5-4.5-.2-4.7.2-4.8.5-5 1-5 1-5 1.3-5.2 1.5-5 1.5-10.8 4-10.5 4.5-10.7 5-10.8 5.2-10.5 5.5-10.5 5.8-19.7 11.2-18.5 10-8.3 4.3-7.7 3.7m403-260-10.3 8.5-10.2 9.5-10.5 9.5-9.5 9.5-9 9-7.3 8-3.5 4-3.2 4.3-3.3 4.7-3.2 4.8-3 5-2.8 5.7-3 6.8-1.2 2.2-1 2.3-.8 2.5-.7 2.7-.3 2.5-.5 2.8v5.7l.3 3 .2 2.8.5 3 .8 2.7.7 3 1 2.8 1 3 1.3 2.7 1.5 2.5 1.5 2.8 1.7 2.5 2 2.2 2 2.3 2 2.2 2.3 1.8 2.5 2 2.7 1.5 2.5 1.5 3 1 3 1 3 .7 3.5.5 3.3.3h3.5l8.7-.3 8.5.3 8.3.5 8 1 8 1.5 7.2 1.7 7.3 2.3 6.5 2.7 6.2 3 2.8 1.8 2.7 1.7 2.5 1.8 2.5 2 2.3 2 2.2 2 2 2.2 1.8 2.3 1.5 2.5 1.5 2.2 1.2 2.8 1 2.5.8 2.7.7 2.8.8 5.7.5 5.3v4.5l-.3 2-.5 1.7-.5 1.8-.7 1.5-1 1.5-1 1.2-1.3 1-1.2 1-1.8.8-1.7.5-2 .2-2 .3h-2.3l-2.5-.3-5.5-1-6.5-1.2-8.5-1.8-10-1.7-12.5-2-14.7-1.5-8.3-.5-7.7-.5h-8l-7.5.2-7.5.5-7.3.8-14.2 1.5-26.8 3.5-12.7 1.2-6 .5-6.3.3h-5.7l-6.3-.3-6.7-.5-7-.7-7.3-1.3-7.5-1.2-7.5-1.5-7.7-2-7.8-2.3-7.7-2.5-7.8-3-7.7-3.2-7.3-3.5-7.2-4-7-4.3-6.8-4.7-3.2-2.8-3.5-2.7-2-1.8-2.5-1.7-5-3.3"/><path d="m681.5 322 1 1.5 2.5 3.8 1.2 2.5 1.3 2.7 1.2 3.3.8 3.5.2 3.5v1.7l-.2 2-.5 1.8-.5 1.7-1 1.8-1 1.7-1.3 1.8-1.7 1.5-1.8 1.7-2.2 1.5-2.5 1.3-2.8 1.5-3.2 1.2-3.5 1-6.3 1.5-6.5 1.3-6.5 1-6.7.5-7 .5-7 .5-13.8.2-13 .5-11.7.5-5 .5-4.8.8-4.2 1-3.5 1.2-2 1-2.3 1.3-5.5 3.5-6 4.5-6.7 5.2m-189.5-135.7 5.5-3.3 7-3.7 8.5-4 9.7-4.5 10.5-4.5 11-4.8 23.5-9.5 11.8-4.5 11.2-4.2 11-3.8 10.3-3.5 9-2.7 8-2.3 6.5-1.5 2.7-.2 2.3-.3h4.2l5 .5 5.8.8 6 1 13.5 2.5 14.2 3 26.8 6 10.7 2 4.5.7 3.5.5 2.8.3 2.2.7 2.3 1 2 1.5 1.5 1.5 1.5 1.5 1.2 2 1 2 .8 2.3.2 2 .3 2.2v2.3l-.3 2-.5 2.2-.7 2-1 1.8-.3.5m-385.2 173.7 7.2-4 6.3-3.7 6-4 3-2.3 3-2.5 3-3 3.2-3 3.3-3.5 3.5-4 7.5-9.7 9-12 8-15 9-15.5 11-18.5 5.7-9.5 6.3-9.5 6.2-9.3 6-8.5 6-7.7 5.8-6.8 2.7-3 2.8-2.5 2.5-2 2.5-1.7m-284.3 200.7 7-.5 8-1 8.8-1.2 9.7-1.5 21-4 22-4.5 10.8-2.5 10.5-2.5 10-2.8 9.2-2.7 8.5-2.5 7.3-2.5 6-2.5 4.7-2.5"/><path d="m711 318.3 7 4.5 7 5 6.2 5.5 6.3 5.7 5.7 6.3 5.3 6.5 5 7 4.5 7.2 4 7.5 3.5 7.8 3 8.2 2.7 8.3 2 8.5 1.5 8.7.8 9 .2 4.5v11.5l-.5 6.8-1 6.5-1 6.7-1.5 6.5-1.7 6.3-2.3 6.2-2.2 6-2.8 5.8-3 5.7-3 5.8-3.5 5.2-3.7 5.3-3.8 5.2-4.2 4.8-4.5 4.5-4.5 4.5-4.8 4.2-5 4-5.2 3.8-5.3 3.2-5.5 3.3-5.7 3-6 2.7-6 2.3-6 2.2-6.3 1.8-6.5 1.5-6.5 1.2-6.5.8-6.7.5-7 .2-6.8-.2-6.7-.5-6.5-.8-6.5-1.2-6.5-1.5-6.3-1.8-6-2.2-6-2.3-6-2.7-5.7-3-5.5-3.3-5.3-3.2-5.2-3.8-5-4-4.8-4.2-4.7-4.5-4.3-4.5-4.2-4.8-3.8-5.2-3.7-5.3-3.5-5.2-3.3-5.8-2.7-5.7-2.8-5.8-2.2-6-2.3-6.2-1.7-6.3-1.5-6.5-1-6.7-1-6.5-.5-6.8v-11.2"/></g></svg>