<svg height="850.394" viewBox="0 0 850.394 850.394" width="850.394" xmlns="http://www.w3.org/2000/svg"><g fill="#c8c8c8"><path d="m489.63 152.43c0-38.55-.979-50.03-1.41-53.25 33.24-1.82 62.261-.56 73.53 5.82 6.34 23.48 6.66 62.16 6.62 72.1l-79.09-23.48z"/><path d="m568.37 177.1 18.8 5.58-1.49 5.01-211.54 38.91-51.62-15.75 1.48-4.85s2.07-22.06 7.37-43.61l5.17 1.03 121.94-18.95 30.8 9.15z"/><path d="m488.22 99.18c-58.47 3.2-130.02 15.9-141.04 26.92-7.04 7.04-12.18 21.55-15.81 36.29-5.3 21.55-7.37 43.61-7.37 43.61l-1.48 4.85-62.82-19.16s.81-7.01 2.35-17.24c3.29-21.89 9.93-58.5 19.08-72.47 17.32-26.44 194.53-38.06 208.811-35.56 23.35 4.08 52.64 14.76 62.689 21.4 3.94 2.6 6.9 8.96 9.12 17.18-11.27-6.38-40.29-7.64-73.53-5.82zm-35.77 569.38-5.15 19.33-7.78-18.489c2 1.04 4.29 1.55 6.69 1.369 2.33-.17 4.46-.97 6.24-2.21zm44.08-8.94-5.15 19.3-7.79-18.479a12.43 12.43 0 0 0 6.7 1.39c2.33-.181 4.46-.971 6.24-2.211zm45.72-9.43-5.14 19.329-7.801-18.51a12.35 12.35 0 0 0 6.7 1.391c2.331-.17 4.461-.96 6.241-2.21zm45.09-9.1-5.149 19.33-7.78-18.479a12.49 12.49 0 0 0 6.689 1.359c2.33-.17 4.46-.96 6.24-2.21zm-6.22-84.56-5.15 19.33-7.779-18.49a12.48 12.48 0 0 0 12.929-.84zm-45.09 9.11-5.13 19.32-7.801-18.51a12.349 12.349 0 0 0 6.7 1.39 12.46 12.46 0 0 0 6.231-2.2zm-45.72 9.41-5.14 19.32-7.79-18.49a12.42 12.42 0 0 0 6.7 1.37c2.32-.17 4.45-.96 6.23-2.2zm-44.07 8.94-5.15 19.33-7.79-18.48c1.99 1.03 4.29 1.54 6.69 1.36 2.33-.17 4.46-.96 6.25-2.21zm128.62-112.51-5.141 19.31-7.79-18.49a12.416 12.416 0 0 0 6.7 1.38 12.46 12.46 0 0 0 6.231-2.2zm-45.06 9.07-5.149 19.34-7.801-18.5c2 1.04 4.301 1.551 6.71 1.38 2.33-.18 4.46-.98 6.24-2.22zm-45.73 9.42-5.15 19.34-7.8-18.5c2 1.04 4.3 1.561 6.7 1.381 2.33-.171 4.46-.971 6.25-2.221zm-44.09 8.98-5.15 19.3-7.78-18.47c1.99 1.04 4.29 1.55 6.69 1.38 2.33-.17 4.46-.97 6.24-2.21zm128.82-110.02-5.14 19.29-7.79-18.47c1.99 1.04 4.29 1.56 6.7 1.38 2.32-.17 4.45-.96 6.23-2.2zm-45.07 9.06-5.15 19.33-7.79-18.49c1.99 1.05 4.29 1.56 6.69 1.38 2.33-.17 4.46-.97 6.25-2.22zm-45.75 9.43-5.141 19.32-7.8-18.51c2 1.05 4.3 1.57 6.71 1.39a12.46 12.46 0 0 0 6.231-2.2zm-44.07 8.95-5.141 19.34-7.79-18.48c1.99 1.03 4.29 1.54 6.69 1.36 2.331-.18 4.461-.97 6.241-2.22zm128.54-116.26-5.16 19.33-7.79-18.49c2 1.04 4.3 1.56 6.7 1.38 2.33-.17 4.46-.97 6.25-2.22zm-45.09 9.11-5.15 19.32-7.78-18.5c1.99 1.05 4.29 1.56 6.69 1.38 2.33-.17 4.46-.96 6.24-2.2zm-45.73 9.41-5.149 19.32-7.78-18.49c1.99 1.04 4.29 1.56 6.7 1.38 2.319-.17 4.449-.96 6.229-2.21zm-44.08 8.96-5.14 19.32-7.8-18.5c2 1.05 4.3 1.57 6.71 1.39 2.32-.17 4.45-.96 6.23-2.21z"/><path d="m362.28 760.1-.3 13.6-201.82-102.13 70.51-488.74 29.03 8.86 62.82 19.16 51.62 15.75z"/><path d="m585.68 187.69 102.83 525.06-322.53 66.95-3.7-19.601 11.86-533.5zm1.66 453.4a12.513 12.513 0 0 0 5.36-11.21c-.521-6.92-6.54-12.09-13.44-11.59-6.91.5-12.1 6.51-11.59 13.42.32 4.51 2.99 8.29 6.74 10.23l7.78 18.479zm-6.22-84.56c3.52-2.44 5.7-6.63 5.37-11.21-.521-6.931-6.54-12.101-13.44-11.601-6.92.511-12.1 6.521-11.59 13.431a12.51 12.51 0 0 0 6.73 10.22l7.779 18.49zm-6.26-85.05a12.553 12.553 0 0 0 5.37-11.23c-.511-6.92-6.53-12.09-13.431-11.59-6.91.5-12.109 6.51-11.6 13.42.33 4.51 3 8.28 6.729 10.22l7.79 18.49zm-6.06-82.55c3.521-2.45 5.7-6.65 5.36-11.24-.5-6.91-6.54-12.1-13.43-11.59-6.921.51-12.101 6.52-11.601 13.44.33 4.49 3.01 8.27 6.74 10.21l7.79 18.47zm-6.35-88.82a12.5 12.5 0 0 0 5.35-11.21c-.51-6.91-6.52-12.1-13.43-11.59s-12.101 6.52-11.59 13.43c.33 4.5 3 8.27 6.72 10.21l7.79 18.49zm-20.2 350.08c3.52-2.44 5.7-6.631 5.36-11.221-.5-6.91-6.53-12.09-13.431-11.58-6.91.511-12.09 6.511-11.59 13.41.33 4.5 3 8.271 6.72 10.21l7.801 18.51zm-6.22-84.55c3.529-2.449 5.71-6.649 5.37-11.239-.511-6.9-6.521-12.091-13.431-11.58-6.91.5-12.1 6.52-11.59 13.43.33 4.49 2.99 8.26 6.72 10.2l7.801 18.51zm-6.23-85.09c3.521-2.45 5.69-6.63 5.351-11.21-.5-6.91-6.53-12.1-13.44-11.59-6.9.51-12.1 6.51-11.59 13.44.33 4.5 3 8.26 6.729 10.199l7.801 18.5zm-6.07-82.56a12.5 12.5 0 0 0 5.35-11.21c-.51-6.91-6.53-12.1-13.44-11.59-6.909.51-12.1 6.52-11.59 13.43.33 4.51 3 8.28 6.74 10.21l7.79 18.49zm-6.37-88.77c3.529-2.45 5.71-6.64 5.359-11.23-.5-6.91-6.52-12.1-13.43-11.59-6.92.51-12.1 6.52-11.59 13.43.33 4.51 3 8.28 6.729 10.21l7.78 18.5zm-20.83 350.4c3.52-2.46 5.689-6.65 5.35-11.24-.5-6.91-6.52-12.1-13.43-11.58-6.91.5-12.101 6.51-11.59 13.431.33 4.5 3 8.27 6.729 10.21l7.79 18.479zm-6.22-84.57a12.532 12.532 0 0 0 5.36-11.24c-.51-6.89-6.53-12.09-13.42-11.579-6.92.51-12.11 6.52-11.6 13.43.33 4.5 3 8.28 6.729 10.22l7.79 18.49zm-6.24-85.08c3.51-2.45 5.68-6.64 5.35-11.21-.51-6.91-6.53-12.12-13.439-11.6-6.91.5-12.091 6.52-11.591 13.43.33 4.5 3 8.28 6.73 10.22l7.8 18.5zm-6.09-82.55a12.503 12.503 0 0 0 5.369-11.23c-.51-6.91-6.529-12.1-13.439-11.59s-12.09 6.53-11.59 13.44c.33 4.49 2.989 8.26 6.72 10.19l7.8 18.51zm-6.35-88.79a12.54 12.54 0 0 0 5.37-11.22c-.53-6.91-6.53-12.1-13.44-11.59-6.909.5-12.1 6.52-11.6 13.43.34 4.51 3.01 8.27 6.74 10.21l7.78 18.49zm-19.18 349.93a12.552 12.552 0 0 0 5.35-11.21c-.5-6.909-6.52-12.109-13.43-11.6-6.91.5-12.101 6.52-11.601 13.44a12.526 12.526 0 0 0 6.75 10.21l7.78 18.489zm-6.21-84.57a12.56 12.56 0 0 0 5.35-11.221c-.52-6.909-6.53-12.09-13.439-11.59-6.9.521-12.091 6.54-11.58 13.44.33 4.51 2.989 8.29 6.729 10.22l7.79 18.48zm-6.26-85.04c3.52-2.46 5.689-6.65 5.35-11.24-.51-6.9-6.51-12.09-13.43-11.58-6.9.5-12.101 6.521-11.59 13.43.33 4.49 3.01 8.271 6.74 10.221l7.78 18.47zm-6.07-82.58a12.5 12.5 0 0 0 5.35-11.21c-.5-6.92-6.52-12.1-13.43-11.6-6.9.51-12.09 6.52-11.59 13.44.34 4.49 3.01 8.28 6.74 10.23l7.79 18.48zm-6.36-88.78a12.51 12.51 0 0 0 5.36-11.22c-.51-6.91-6.521-12.1-13.42-11.59-6.92.5-12.1 6.52-11.6 13.43.33 4.5 2.99 8.27 6.72 10.2l7.8 18.5z"/></g><path d="m587.34 641.09a12.378 12.378 0 0 1 -6.24 2.21 12.49 12.49 0 0 1 -6.689-1.359c-3.75-1.94-6.42-5.721-6.74-10.23-.51-6.91 4.68-12.92 11.59-13.42 6.9-.5 12.92 4.67 13.44 11.59a12.519 12.519 0 0 1 -5.361 11.209zm-6.22-84.56a12.48 12.48 0 0 1 -12.929.84 12.51 12.51 0 0 1 -6.73-10.22c-.51-6.91 4.67-12.92 11.59-13.431 6.9-.5 12.92 4.67 13.44 11.601a12.538 12.538 0 0 1 -5.371 11.21zm-6.26-85.05a12.468 12.468 0 0 1 -6.23 2.199c-2.41.181-4.71-.34-6.7-1.38a12.53 12.53 0 0 1 -6.729-10.22c-.51-6.91 4.689-12.92 11.6-13.42 6.9-.5 12.92 4.67 13.431 11.59a12.554 12.554 0 0 1 -5.372 11.231zm-6.06-82.55a12.46 12.46 0 0 1 -6.229 2.2c-2.41.18-4.71-.34-6.7-1.38-3.73-1.94-6.41-5.72-6.74-10.21-.5-6.92 4.68-12.93 11.601-13.44 6.89-.51 12.93 4.68 13.43 11.59a12.563 12.563 0 0 1 -5.362 11.24zm-6.35-88.82a12.457 12.457 0 0 1 -6.25 2.22 12.54 12.54 0 0 1 -13.42-11.59c-.511-6.91 4.68-12.92 11.59-13.43s12.92 4.68 13.43 11.59c.34 4.58-1.83 8.77-5.35 11.21zm-20.2 350.08a12.378 12.378 0 0 1 -6.24 2.21 12.34 12.34 0 0 1 -6.7-1.391 12.538 12.538 0 0 1 -6.72-10.21c-.5-6.899 4.68-12.899 11.59-13.41 6.9-.51 12.931 4.67 13.431 11.58a12.515 12.515 0 0 1 -5.361 11.221zm-6.22-84.55a12.46 12.46 0 0 1 -6.23 2.2c-2.41.18-4.71-.34-6.7-1.39a12.519 12.519 0 0 1 -6.72-10.2c-.51-6.91 4.68-12.93 11.59-13.43 6.91-.511 12.92 4.68 13.431 11.58.339 4.59-1.841 8.79-5.371 11.24zm-6.23-85.09a12.578 12.578 0 0 1 -6.24 2.22c-2.409.171-4.71-.34-6.71-1.38-3.729-1.939-6.399-5.699-6.729-10.199-.51-6.931 4.689-12.931 11.59-13.44 6.91-.51 12.94 4.68 13.44 11.59.339 4.579-1.831 8.759-5.351 11.209zm-19.01-81.72c-3.74-1.93-6.41-5.7-6.74-10.21-.51-6.91 4.681-12.92 11.59-13.43 6.91-.51 12.931 4.68 13.44 11.59.34 4.58-1.83 8.77-5.35 11.21a12.46 12.46 0 0 1 -6.25 2.22c-2.4.18-4.7-.33-6.69-1.38zm-6.36-88.79a12.501 12.501 0 0 1 -6.729-10.21c-.51-6.91 4.67-12.92 11.59-13.43 6.91-.51 12.93 4.68 13.43 11.59.351 4.59-1.83 8.78-5.359 11.23a12.462 12.462 0 0 1 -6.24 2.2c-2.402.18-4.702-.33-6.692-1.38zm-7.9 349.58a12.567 12.567 0 0 1 -6.24 2.21c-2.41.17-4.71-.34-6.7-1.39-3.729-1.94-6.399-5.71-6.729-10.21-.511-6.921 4.68-12.931 11.59-13.431 6.91-.52 12.93 4.67 13.43 11.58.339 4.591-1.831 8.781-5.351 11.241zm-6.22-84.57a12.453 12.453 0 0 1 -6.229 2.2c-2.41.18-4.71-.33-6.7-1.37a12.545 12.545 0 0 1 -6.729-10.22c-.511-6.91 4.68-12.92 11.6-13.43 6.89-.511 12.91 4.689 13.42 11.579a12.542 12.542 0 0 1 -5.362 11.241zm-6.24-85.08a12.467 12.467 0 0 1 -6.25 2.221c-2.4.18-4.7-.341-6.7-1.381a12.543 12.543 0 0 1 -6.73-10.22c-.5-6.91 4.681-12.93 11.591-13.43 6.909-.521 12.93 4.689 13.439 11.6.33 4.57-1.84 8.76-5.35 11.21zm-6.09-82.55a12.46 12.46 0 0 1 -6.23 2.2c-2.41.18-4.71-.34-6.71-1.39-3.73-1.93-6.39-5.7-6.72-10.19-.5-6.91 4.68-12.93 11.59-13.44s12.93 4.68 13.439 11.59a12.5 12.5 0 0 1 -5.369 11.23zm-6.35-88.79a12.376 12.376 0 0 1 -6.229 2.21c-2.41.18-4.71-.34-6.7-1.38-3.73-1.94-6.4-5.7-6.74-10.21-.5-6.91 4.69-12.93 11.6-13.43 6.91-.51 12.91 4.68 13.44 11.59a12.544 12.544 0 0 1 -5.371 11.22zm-19.18 349.93a12.472 12.472 0 0 1 -6.24 2.21c-2.4.181-4.69-.329-6.69-1.369a12.526 12.526 0 0 1 -6.75-10.21c-.5-6.921 4.69-12.94 11.601-13.44 6.91-.51 12.93 4.69 13.43 11.6.329 4.579-1.841 8.759-5.351 11.209zm-6.21-84.57a12.447 12.447 0 0 1 -6.25 2.21c-2.4.18-4.7-.33-6.69-1.36a12.494 12.494 0 0 1 -6.729-10.22c-.511-6.9 4.68-12.92 11.58-13.44 6.909-.5 12.92 4.681 13.439 11.59a12.56 12.56 0 0 1 -5.35 11.22zm-6.26-85.04a12.472 12.472 0 0 1 -6.24 2.21c-2.4.17-4.7-.34-6.69-1.38-3.73-1.95-6.41-5.73-6.74-10.221-.51-6.909 4.69-12.93 11.59-13.43 6.92-.51 12.92 4.68 13.43 11.58.34 4.591-1.83 8.781-5.35 11.241zm-6.07-82.58a12.482 12.482 0 0 1 -6.24 2.22c-2.4.18-4.7-.33-6.69-1.36-3.73-1.95-6.4-5.74-6.74-10.23-.5-6.92 4.69-12.93 11.59-13.44 6.91-.5 12.93 4.68 13.43 11.6.34 4.58-1.83 8.77-5.35 11.21zm-6.36-88.78a12.376 12.376 0 0 1 -6.23 2.21c-2.41.18-4.71-.34-6.71-1.39-3.73-1.93-6.39-5.7-6.72-10.2-.5-6.91 4.68-12.93 11.6-13.43 6.899-.51 12.91 4.68 13.42 11.59.34 4.59-1.84 8.78-5.36 11.22z" fill="#231f20"/><g fill="none" stroke="#231f20"><path d="m410.79 319.34 3.82 9.07 7.8 18.5 5.14-19.32 2.83-10.62m24.5-6.59 3.82 9.08 7.78 18.49 5.15-19.32 2.83-10.62m26.15-7.05 3.82 9.08 7.78 18.5 5.15-19.32 2.83-10.62m25.49-6.73 3.82 9.08 7.79 18.49 5.16-19.33 2.83-10.6m-148.13 118.62 3.83 9.1 7.79 18.48 5.14-19.34 2.83-10.62m24.48-6.58 3.82 9.06 7.8 18.51 5.14-19.32 2.83-10.62m26.15-7.05 3.83 9.08 7.79 18.49 5.15-19.33 2.82-10.6m25.49-6.73 3.83 9.09 7.79 18.47 5.14-19.29 2.83-10.64m-148.41 112.39 3.83 9.1 7.78 18.47 5.15-19.3 2.83-10.63m24.48-6.6 3.83 9.09 7.8 18.5 5.15-19.34 2.82-10.61m26.14-7.05 3.82 9.08 7.8 18.5 5.15-19.34 2.82-10.61m25.49-6.71 3.82 9.07 7.79 18.49 5.14-19.31 2.83-10.63m-148.22 114.9 3.83 9.09 7.79 18.48 5.15-19.33 2.82-10.6m24.49-6.59 3.83 9.08 7.79 18.49 5.14-19.32 2.83-10.61m26.14-7.06 3.82 9.07 7.8 18.51 5.13-19.32 2.83-10.63m25.51-6.72 3.82 9.08 7.78 18.49 5.15-19.33 2.83-10.61m-148.25 114.39 3.82 9.09 7.78 18.49 5.15-19.33 2.82-10.62m24.49-6.59 3.83 9.09 7.79 18.48 5.15-19.3 2.83-10.62m26.13-7.05 3.82 9.06 7.8 18.51 5.14-19.33 2.83-10.62m25.5-6.72 3.83 9.09 7.78 18.48 5.15-19.33 2.82-10.6" stroke-width="7.295"/><g stroke-width="21.884"><path d="m374.14 226.6-11.86 533.5-.3 13.6-201.82-102.13 70.51-488.74 29.03 8.86 62.82 19.16zm-8.16 553.1 322.53-66.95-102.83-525.06-211.54 38.91"/><path d="m259.7 191.69s.81-7.01 2.35-17.24c3.29-21.89 9.93-58.5 19.08-72.47 17.32-26.44 194.53-38.06 208.811-35.56 23.35 4.08 52.64 14.76 62.689 21.4 3.94 2.6 6.9 8.96 9.12 17.18 6.34 23.48 6.66 62.16 6.62 72.1 0 1.54-.01 2.39-.01 2.39"/><path d="m324 206s2.07-22.06 7.37-43.61c3.63-14.74 8.77-29.25 15.81-36.29 11.02-11.02 82.57-23.72 141.04-26.92 33.24-1.82 62.261-.56 73.53 5.82.08.04.17.09.25.14"/><path d="m488 98s.08.24.22 1.18c.431 3.22 1.41 14.7 1.41 53.25m-266.25 27.36 6.71-.97 31.09-4.5m75.36-10.9 121.94-18.95 30.8 9.15 79.09 23.48 18.8 5.58 4.6 1.37"/></g><path d="m244.05 313.01 93.61 42.55m-109.24 101.48 93.61 42.55m-106.41 91.58 93.61 42.55" stroke-width="29.179"/><path d="m360 748 2.28 12.1 3.7 19.6" stroke-width=".5"/></g><path d="m0 0h850.394v850.394h-850.394z" fill="none"/></svg>