<svg height="850.394" viewBox="0 0 850.394 850.394" width="850.394" xmlns="http://www.w3.org/2000/svg"><path d="m327.23 221.06c-2.42 3.95-4.95 8.12-9.26 10.02-5.83 2.58-12.09 2.07-16.88-1.9-1.78-1.46-4.56-3.21-5.81-4.87 4.73 1.39 11.76.59 16.51.22 4.78-.38 8.69-.42 15.44-3.47z" fill="#ef947d"/><path d="m311.79 224.53c-4.75.37-11.78 1.17-16.51-.22-1.23-1.6-1.03-3.13 2.83-4.25 2.4-.7 5.28-1.24 7.75-.67 1.31.3 3.25 1.57 4.43 1.08 1.88-4.79 15.11-1.74 18.63-2.1-.57.86-1.13 1.77-1.69 2.69-6.75 3.05-10.66 3.09-15.44 3.47z" fill="#ef947d"/><path d="m610.81 298.19c2.99 1.08 5.811.85 6.301-.51.5-1.36-1.53-3.35-4.511-4.43-2.989-1.08-5.81-.85-6.3.52-.5 1.36 1.53 3.34 4.51 4.42zm11.46-14.25c-.1-1.45-2.75-2.45-5.92-2.23-3.17.23-5.659 1.58-5.56 3.02.1 1.45 2.76 2.45 5.92 2.23 3.17-.23 5.66-1.58 5.56-3.02zm-43.92 18.18c-1.14-.89-3.659.39-5.63 2.88-1.97 2.49-2.649 5.25-1.5 6.14 1.13.91 3.65-.38 5.62-2.88 1.97-2.48 2.65-5.24 1.51-6.14zm7.51 12.62c1.409.36 3.18-1.86 3.949-4.94.761-3.08.24-5.86-1.17-6.22-1.409-.35-3.17 1.88-3.939 4.95-.77 3.08-.25 5.87 1.16 6.21zm13.74-8.25c1.78 2.62 4.21 4.09 5.41 3.26 1.2-.82.721-3.6-1.08-6.22-1.79-2.63-4.21-4.09-5.41-3.27-1.19.81-.71 3.61 1.08 6.23zm-40.66-.93c12.079-5.34 35.09-15.68 54.13-24.26 0 0 0-.01.01-.01 5.65-2.55 10.96-4.94 15.52-7l.12.26c0 9.83-2.7 18.27-6.08 24.72-3.8 7.26-8.38 11.05-15.229 15.46-8.41 5.42-19.62 6.82-29.8 5-8.08-1.44-12.9-7.35-17.11-13.96z" fill="#fff5b4"/><path d="m644.04 267.32s6.65 24.2 6.65 36.43c0 16.76-7.221 40.18-28.62 52.9-6.49 3.86-13.42 5.75-20.2 6.21-.01.01-.01.01-.021.01-15.54 1.07-30.35-5.33-37.59-12.58-10.41-10.41-20.84-35.56-20.84-35.56l-4.15-.35c1.36-.65 2.75-1.31 4.15-1.96 2.86-1.34 5.75-2.64 8.41-3.76a664.4 664.4 0 0 0 7.11-3.1l1.56.21c4.21 6.61 9.03 12.52 17.11 13.96 10.18 1.82 21.39.42 29.8-5 6.85-4.41 11.43-8.2 15.229-15.46a53.317 53.317 0 0 0 6.08-24.72l-.12-.26c9.222-4.16 15.442-6.97 15.442-6.97z" fill="#fff5b4"/><path d="m526.37 320.8c1.67-.86 6.89-3.53 12.899-6.42l4.15.35s10.43 25.15 20.84 35.56c7.24 7.25 22.05 13.65 37.59 12.58-9.81 2.71-25.609 4.9-45.54-3.47-19.96-8.38-30.5-38.31-30.5-38.31s.201-.1.561-.29z" fill="#fbed24"/><g fill="#ed1e29"><path d="m685.47 90.47c-1.75 8.47-2.21 16.88-2.21 16.88l-.18 5.8c-2.22-.05-4.5.48-6.8 1.14-2.73-7.04-8.25-11.46-14.721-13.54l.29-.86c1.851-3.84 5.36-7.97 8.29-9.22 4.32-1.85 10.62-3.39 15.011-.27z"/><path d="m697.07 205.67c4.06 20.32 7.399 25.29 7.399 25.29l-.08.68c-2.05-.25-4.08.86-6.51 3.29-4.26 4.26-18.689 16.25-32.91 2.03-9.14-9.14-18.279-18.29-31.29-48.36-13-30.07-9.21-68.13-9.21-68.13 2-16.76 22.08-24.54 37.09-19.72 6.471 2.08 11.99 6.5 14.721 13.54 2.3-.66 4.58-1.19 6.8-1.14.79.01 1.57.1 2.34.27 3.54.81 5.74 2.93 7.36 5.78.37.66.71 1.36 1.029 2.09 1.021 2.32 1.341 4.37 1.37 6.99.021 1.68-2.169 57.07 1.891 77.39z"/><path d="m704.05 109.6-1.51-4.01c-.88-2.42-1.32-6.59-1.41-10.85 3.68-1.36 5.851-2.39 8.93-1.16 3.04 1.23 4.351 3.35 6.79 5.2 2.53 1.93 3.99 0 7.03-.73 3.88-.94 9.771-2.69 13.7-2.09 8.09 1.23 17.15 4.97 21 12.93 4.06 8.4 5.61 16.61 3.979 25.06-.21 1.11-2.5 32.31-6.159 56.68-3.66 24.38-7.95 30.29-13.41 39.42-9.26 15.49-26.61 11.58-33.73 4.47-1.76-1.76-3.319-2.71-4.87-2.88l.08-.68s-3.34-4.97-7.399-25.29c-4.061-20.32-1.87-75.71-1.891-77.39-.029-2.62-.35-4.67-1.37-6.99-.319-.73-.659-1.43-1.029-2.09l1.85-.09c2.319-4.85 5.629-7.91 9.419-9.51z"/></g><path d="m701.13 94.74c.09 4.26.53 8.43 1.41 10.85l1.51 4.01c-3.79 1.6-7.1 4.66-9.42 9.51l-1.85.09c-1.62-2.85-3.82-4.97-7.36-5.78a11.5 11.5 0 0 0 -2.34-.27l.18-5.8s.46-8.41 2.21-16.88c1.061-5.18 2.61-10.39 4.83-13.72 5.96-8.94 13.54-12.47 24.38-12.47 0 0 11.25.68 15.98 5.42 4.74 4.74.28 14.22-4.73 14.22-5.02 0-9.899-4.47-14.5-6.36-4.609-1.9-8.88.57-9.75 6.23-.42 2.76-.64 6.89-.55 10.95zm-74.67 143.26c0 15.87-4.9 30.68-13.38 43.29-.01 0-.01.01-.01.01-19.04 8.58-42.051 18.92-54.13 24.26-3.271 1.44-5.74 2.52-7.11 3.1-2.66 1.12-5.55 2.42-8.41 3.76-1.4.65-2.79 1.31-4.15 1.96a557.34 557.34 0 0 0 -12.899 6.42c-46.71-3.84-83.3-39.44-83.3-82.8 0-45.92 41.05-83.14 91.699-83.14 50.64 0 91.69 37.22 91.69 83.14z" fill="#34a047"/><path d="m323.7 123.68c-13.53 9.48-45.14 24.56-50.95 28.82-3.97 2.92-7.13 7.06-9.19 11.7-1.85 4.16-2.83 8.73-2.72 13.2.22 8.83 3.16 12.01 3.16 25.31 0 6.68 3.02 13.82 6.56 19.95l-25.21 13.27c4.61-9.22 3-20.6 3-20.6-.17-17.52-2.31-36.64-2.61-40.77-1.23-17.17 5.14-43.26 14.4-58.34 15.59-25.39 40.98-36.33 80.11-31.77 29.06 3.39 55.62 35.18 55.62 75.46 0 14.12-6.27 29.72.78 43.8l-28.61 17.61c1.61-2.23 2.78-4.68 3.16-7.46.27-1.87 8.71-32.32-3.69-44.73-13.31-13.3-37.92-39.41-42.82-44.61-.57-.6-.87-.92-.87-.92-.04.03-.08.06-.12.08z" fill="#9c5c25"/><path d="m302.01 676.55-.01 1.45-4.01 104.95-89.19.65c-1.15-17.83 0-76.069-.8-105.6l.02-2.42zm119.99 1.45c-.63 23.94 1.08 79.19.59 100.18l-90.1 4.771-2.49-102.951.03-3.16 91.97.95z" fill="#797878"/><path d="m335.54 173.81c0-1.79-1.65-3.24-3.68-3.24s-3.68 1.45-3.68 3.24 1.65 3.23 3.68 3.23 3.68-1.44 3.68-3.23zm2.3-.22c0 3.18-2.7 5.77-6.04 5.77s-6.04-2.59-6.04-5.77c0-.88-.24-.8.14-1.55l-.3-.49c1.95-1.21 4.23-1.94 6.46-1.99 1.94-.04 3.76.36 5.46 1.08l-.21.53c.65.92.53 1.23.53 2.42z" fill="#fff"/><path d="m331.8 179.36c3.34 0 6.04-2.59 6.04-5.77 0-1.19.12-1.5-.53-2.42l.21-.53c2.24.95 4.25 2.48 5.97 4.3l-.13.12c-2.38 2.21-5.13 4.17-8.3 5.3-1.92.69-4.57.81-6.58.39-.85-.17-1.9-.38-2.69-.75-.66-.3-1.23-1.02-1.85-1.31-.92-.42-1.96-.04-2.82-.58-1.01-.62-.25-1.34.33-2.36.96-1.69 2.43-3.13 4.15-4.2l.3.49c-.38.75-.14.67-.14 1.55 0 3.18 2.7 5.77 6.04 5.77zm-51.64-7.1c-2.03 0-3.68 1.46-3.68 3.24 0 1.79 1.65 3.24 3.68 3.24 2.04 0 3.68-1.45 3.68-3.24 0-1.78-1.64-3.24-3.68-3.24zm-5.66.08a13 13 0 0 1 5.46-1.09c2.24.05 4.52.78 6.47 2l-.31.49c.38.74.14.66.14 1.54 0 3.19-2.7 5.77-6.04 5.77-3.33 0-6.04-2.58-6.04-5.77 0-1.2-.12-1.5.53-2.42z" fill="#fff"/><path d="m283.54 182.44c-2.01.42-4.65.3-6.58-.39-3.17-1.13-5.92-3.09-8.3-5.29l-.13-.12c1.73-1.82 3.73-3.35 5.97-4.3l.21.52c-.65.92-.53 1.22-.53 2.42 0 3.19 2.71 5.77 6.04 5.77 3.34 0 6.04-2.58 6.04-5.77 0-.88.24-.8-.14-1.54l.31-.49c1.72 1.06 3.18 2.5 4.14 4.19.58 1.03 1.34 1.74.33 2.36-.86.54-1.9.16-2.82.59-.62.29-1.19 1-1.85 1.3-.79.37-1.84.58-2.69.75z" fill="#fff"/><path d="m343.49 174.94c-1.72-1.82-3.73-3.35-5.97-4.3-1.7-.72-3.52-1.12-5.46-1.08-2.23.05-4.51.78-6.46 1.99-1.72 1.07-3.19 2.51-4.15 4.2-.58 1.02-1.34 1.74-.33 2.36.86.54 1.9.16 2.82.58.62.29 1.19 1.01 1.85 1.31.79.37 1.84.58 2.69.75 2.01.42 4.66.3 6.58-.39 3.17-1.13 5.92-3.09 8.3-5.3zm-37.63 44.45c-2.47-.57-5.35-.03-7.75.67-3.86 1.12-4.06 2.65-2.83 4.25 1.25 1.66 4.03 3.41 5.81 4.87 4.79 3.97 11.05 4.48 16.88 1.9 4.31-1.9 6.84-6.07 9.26-10.02.56-.92 1.12-1.83 1.69-2.69-3.52.36-16.75-2.69-18.63 2.1-1.18.49-3.12-.78-4.43-1.08zm-42.3-55.19c2.06-4.64 5.22-8.78 9.19-11.7 5.81-4.26 37.42-19.34 50.95-28.82.19.43.52.71.99.84 4.9 5.2 29.51 31.31 42.82 44.61 12.4 12.41 3.96 42.86 3.69 44.73-.38 2.78-1.55 5.23-3.16 7.46-2.41 3.35-5.83 6.22-9.06 9.02-3.33 2.88-6.13 6.52-8.96 10.12-1.93 2.45-3.87 4.88-5.99 7.03-3.7 3.77-7.95 6.69-13.64 7.39-10.32 1.26-23.3 5.02-32.17-2.48-3.44-2.91-7.44-5.69-11.06-8.76-1.48-1.26-2.91-2.57-4.2-3.96-.6-.64-1.17-1.3-1.7-1.97-1.55-1.95-6.5-7.78-10.69-15.05h-.01c-3.54-6.13-6.56-13.27-6.56-19.95 0-13.3-2.94-16.48-3.16-25.31-.11-4.47.87-9.04 2.72-13.2zm4.97 12.44.13.12c2.38 2.2 5.13 4.16 8.3 5.29 1.93.69 4.57.81 6.58.39.85-.17 1.9-.38 2.69-.75.66-.3 1.23-1.01 1.85-1.3.92-.43 1.96-.05 2.82-.59 1.01-.62.25-1.33-.33-2.36-.96-1.69-2.42-3.13-4.14-4.19-1.95-1.22-4.23-1.95-6.47-2a13 13 0 0 0 -5.46 1.09c-2.24.95-4.24 2.48-5.97 4.3zm-127.97 388.8-2.11 4.609c1.73 4.74 3.77 20.4 3.77 35.29 0 12.65-1.48 24.74-5.87 29.13-5.03 0-1.54-10.02-8.42-11.42-4.36 6.8-6.44 28.15-15.51 29.141-8.16.97-16.86-8.54-18.73-15.221-3.19-11.37-1.48-47.18 7.64-76.27 0 0 .97-3.32 2.58-8.931l2.09.232zm385.53-3.87c9.12 29.069 10.851 64.899 7.66 76.239-1.87 6.721-10.55 16.191-18.75 15.231-9.06-.98-11.14-22.34-15.52-29.14-6.851 1.42-3.33 11.42-8.4 11.42-4.39-4.37-5.86-16.44-5.86-29.061 0-14.91 2.05-30.6 3.79-35.35l34.99-14.909.44-.13z" fill="#ffeec8"/><path d="m287.16 243.64c3.62 3.07 7.62 5.85 11.06 8.76 8.87 7.5 21.85 3.74 32.17 2.48 5.69-.7 9.94-3.62 13.64-7.39l-28.03 128.51-29.6-131.27z" fill="#fff"/><path d="m211.07 413.22-.96-.04-69.55 152.26-34.56-13.44-2.09-.23c6.35-22.029 22.75-79.35 30.33-109.939 13.78-55.68 59.33-147.55 59.33-147.55 11.6-11.6 33.94-25.24 53.37-35.98 4.86-2.68 9.54-5.19 13.82-7.44l1.44.6-20.15 48.7 38.21-13.35-12.03 27.65 46.07 59.35v298.41l-.05 4.46-12.24-.13-93.99-.97-24.54-.25 23.6-166.86z" fill="#abd150"/><path d="m314.3 373.81-46.07-59.35 12.03-27.65-38.21 13.35 20.15-48.7-1.44-.6c12.86-6.74 22.16-11.15 22.16-11.15l.04-.03c1.29 1.39 2.72 2.7 4.2 3.96l-.76 1.09 29.6 131.27zm54.75-122.94 20.09 48.57-38.21-13.35 12.03 27.65-46.96 62.26 28.03-128.51c2.12-2.15 4.06-4.58 5.99-7.03l.11.09s7.82 4.06 18.91 10.32z" fill="#abd150"/><path d="m316 376 46.96-62.26-12.03-27.65 38.21 13.35-20.09-48.57c4.34 2.46 9.18 5.25 14.25 8.27 18.03 10.75 38.96 24.4 50.561 36 0 0 45.569 91.86 59.34 147.55 7.97 32.239 25.74 94.159 31.24 113.18l-.441.13-34.99 14.91-71.68-156.87 7.34 93.71 25.84 170.33-28.51-.29-91.97-.95-15.78-.16.05-4.46v-298.41z" fill="#abd150"/><path d="m331.86 172.37c.73 0 1.32.65 1.32 1.44s-.59 1.44-1.32 1.44-1.32-.65-1.32-1.44.59-1.44 1.32-1.44z" fill="#231f20"/><path d="m331.86 170.57c2.03 0 3.68 1.45 3.68 3.24s-1.65 3.23-3.68 3.23-3.68-1.44-3.68-3.23 1.65-3.24 3.68-3.24zm0 4.68c.73 0 1.32-.65 1.32-1.44s-.59-1.44-1.32-1.44-1.32.65-1.32 1.44.59 1.44 1.32 1.44zm-53.02.25c0-.79.59-1.43 1.32-1.43s1.32.64 1.32 1.43c0 .8-.59 1.44-1.32 1.44s-1.32-.64-1.32-1.44z" fill="#231f20"/><path d="m276.48 175.5c0-1.78 1.65-3.24 3.68-3.24 2.04 0 3.68 1.46 3.68 3.24 0 1.79-1.64 3.24-3.68 3.24-2.03 0-3.68-1.45-3.68-3.24zm3.68-1.43c-.73 0-1.32.64-1.32 1.43 0 .8.59 1.44 1.32 1.44s1.32-.64 1.32-1.44c0-.79-.59-1.43-1.32-1.43z" fill="#231f20"/><g fill="none" stroke="#231f20"><g stroke-width="14"><path d="m101.33 560.7s.97-3.32 2.58-8.931c6.35-22.029 22.75-79.35 30.33-109.939 13.78-55.68 59.33-147.55 59.33-147.55 11.6-11.6 33.94-25.24 53.37-35.98 4.86-2.68 9.54-5.19 13.82-7.44 12.86-6.74 22.16-11.15 22.16-11.15"/><path d="m210.11 413.18-69.55 152.26-2.11 4.609c1.73 4.74 3.77 20.4 3.77 35.29 0 12.65-1.48 24.74-5.87 29.13-5.03 0-1.54-10.02-8.42-11.42-4.36 6.8-6.44 28.15-15.51 29.141-8.16.97-16.86-8.54-18.73-15.221-3.19-11.37-1.48-47.18 7.64-76.27m107.47 222.901c-1.15-17.83 0-76.069-.8-105.6m161.04-427.13c-11.09-6.26-18.91-10.32-18.91-10.32m175.96 321.02s-.6-2.07-1.649-5.7c-5.5-19.021-23.271-80.94-31.24-113.18-13.771-55.69-59.341-147.55-59.341-147.55-11.601-11.6-32.53-25.25-50.561-36-5.07-3.02-9.91-5.81-14.25-8.27m53.351 532.08c.08-1.28.14-2.891.19-4.771.49-20.989-1.22-76.239-.59-100.18m-120 .001-4.01 104.95m34.5 0-2.49-102.95m-118.75-271.06-.18 4.28-3.99 95.25-23.6 166.86 24.54.25 93.99.97 12.24.13 15.78.16 91.97.95 28.51.29-25.84-170.33-7.34-93.71 71.68 156.87c-1.74 4.75-3.79 20.439-3.79 35.35 0 12.62 1.471 24.69 5.86 29.061 5.07 0 1.55-10 8.4-11.42 4.38 6.8 6.46 28.159 15.52 29.14 8.2.96 16.88-8.51 18.75-15.23 3.19-11.34 1.46-47.17-7.66-76.239m-211.79-187.842v298.49"/><path d="m106 552 34.56 13.44 1.44.56m382-10-34.99 14.91m-279.01-56.91 62.29-32.04m151.71 34.04-64.52-34.81m-73.08-236.46 29.6 131.27-1.7-2.19-46.07-59.35 12.03-27.65-38.21 13.35 20.15-48.7.16-.38m82.43-7.08-.76 3.49-28.03 128.51 46.96-62.26-12.03-27.65 38.21 13.35-20.09-48.57h-.01l-.21-.52m316.32-159.95c-4.391-3.12-10.69-1.58-15.011.27-2.93 1.25-6.439 5.38-8.29 9.22"/><path d="m676.28 114.3v-.01c-2.73-7.04-8.25-11.46-14.721-13.54-15.01-4.82-35.09 2.96-37.09 19.72 0 0-3.79 38.06 9.21 68.13 13.011 30.07 22.15 39.22 31.29 48.36 14.221 14.22 28.65 2.23 32.91-2.03 2.43-2.43 4.46-3.54 6.51-3.29 1.551.17 3.11 1.12 4.87 2.88 7.12 7.11 24.471 11.02 33.73-4.47 5.46-9.13 9.75-15.04 13.41-39.42 3.659-24.37 5.949-55.57 6.159-56.68 1.631-8.45.08-16.66-3.979-25.06-3.85-7.96-12.91-11.7-21-12.93-3.93-.6-9.82 1.15-13.7 2.09-3.04.73-4.5 2.66-7.03.73-2.439-1.85-3.75-3.97-6.79-5.2-3.079-1.23-5.25-.2-8.93 1.16-.12.05-.24.09-.37.14"/><path d="m658.06 113.97c5.25 5.22 11.771 2.2 18.221.32 2.3-.66 4.58-1.19 6.8-1.14.79.01 1.57.1 2.34.27 3.54.81 5.74 2.93 7.36 5.78.37.66.71 1.36 1.029 2.09 1.021 2.32 1.341 4.37 1.37 6.99.021 1.68-2.17 57.07 1.891 77.39 4.06 20.32 7.399 25.29 7.399 25.29m-9.84-111.85c2.32-4.85 5.63-7.91 9.42-9.51 11.101-4.7 26.33 2.98 32.84 14.12" stroke-linecap="round" stroke-linejoin="round"/></g><path d="m683.26 107.35s.46-8.41 2.21-16.88c1.061-5.18 2.61-10.39 4.83-13.72 5.96-8.94 13.54-12.47 24.38-12.47 0 0 11.25.68 15.98 5.42 4.74 4.74.28 14.22-4.73 14.22-5.02 0-9.899-4.47-14.5-6.36-4.609-1.9-8.88.57-9.75 6.23-.42 2.76-.64 6.89-.55 10.95.09 4.26.53 8.43 1.41 10.85" stroke-width="7"/><path d="m613.07 281.3c-19.04 8.58-42.051 18.92-54.13 24.26-3.271 1.44-5.74 2.52-7.11 3.1-2.66 1.12-5.55 2.42-8.41 3.76-1.4.65-2.79 1.31-4.15 1.96a557.34 557.34 0 0 0 -12.899 6.42c-.36.19-.561.29-.561.29s10.54 29.93 30.5 38.31c19.931 8.37 35.73 6.18 45.54 3.47" stroke-width="14"/><path d="m543.42 314.73s10.43 25.15 20.84 35.56c7.24 7.25 22.05 13.65 37.59 12.58.011 0 .011 0 .021-.01 6.78-.46 13.71-2.35 20.2-6.21 21.399-12.72 28.62-36.14 28.62-52.9 0-12.23-6.65-36.43-6.65-36.43s-6.22 2.81-15.44 6.97c-4.56 2.06-9.869 4.45-15.52 7" stroke-width="14"/><path d="m560.5 305.77c4.21 6.61 9.03 12.52 17.11 13.96 10.18 1.82 21.39.42 29.8-5 6.85-4.41 11.43-8.2 15.229-15.46a53.317 53.317 0 0 0 6.08-24.72" stroke-width="7"/><path d="m529.2 321c-.95-.05-1.891-.12-2.83-.2-46.71-3.84-83.3-39.44-83.3-82.8 0-45.92 41.05-83.14 91.699-83.14 50.641 0 91.69 37.22 91.69 83.14 0 15.87-4.9 30.68-13.38 43.29-.01 0-.01.01-.01.01" stroke-width="14"/><path d="m589.81 309.8c-.77 3.08-2.54 5.3-3.949 4.94-1.41-.34-1.931-3.13-1.16-6.21.77-3.07 2.53-5.3 3.939-4.95 1.41.36 1.93 3.14 1.17 6.22zm-12.97-1.54c-1.97 2.5-4.49 3.79-5.62 2.88-1.149-.89-.47-3.65 1.5-6.14 1.971-2.49 4.49-3.77 5.63-2.88 1.14.9.46 3.66-1.51 6.14zm33.97-10.07c2.99 1.08 5.811.85 6.301-.51.5-1.36-1.53-3.35-4.511-4.43-2.989-1.08-5.81-.85-6.3.52-.5 1.36 1.53 3.34 4.51 4.42zm5.9-11.23c3.17-.23 5.66-1.58 5.56-3.02-.1-1.45-2.75-2.45-5.92-2.23-3.17.23-5.659 1.58-5.56 3.02.1 1.45 2.76 2.45 5.92 2.23zm-12.78 16.57c1.801 2.62 2.28 5.4 1.08 6.22-1.2.83-3.63-.64-5.41-3.26-1.79-2.62-2.27-5.42-1.08-6.23 1.2-.82 3.62.64 5.41 3.27z" stroke-width="4.687"/><path d="m316.15 166.15c5.11-8.51 17.53-9.87 24.64-7.09 3.81 1.49 6.14 3.25 7.14 4.25m-58.58-.3c-6.76-6.03-19.94-5.1-25.79 1.19-.32.33-.61.67-.87 1.03m35.1 2.76c7.41 5.55 3.49 24.33 1.62 29.93-.59 1.79-3.15 4.95-1.35 6.81.87.9 1.98.41 3.08.58 1.13.18 1.8.29 3.1.77 2.51.94 4.34 1.51 6.6-.14 2.45-1.77 2.26-3.03 5.88-2.86 3.04.15 6.4 1 6.25-3.68-.11-3.22-2.53-3.18-4.26-5.45" stroke-width="7"/><path d="m310.07 221.29c.03-.3.1-.57.22-.82 1.88-4.79 15.11-1.74 18.63-2.1-.57.86-1.13 1.77-1.69 2.69-2.42 3.95-4.95 8.12-9.26 10.02-5.83 2.58-12.09 2.07-16.88-1.9-1.78-1.46-4.56-3.21-5.81-4.87-1.23-1.6-1.03-3.13 2.83-4.25 2.4-.7 5.28-1.24 7.75-.67 1.31.3 3.25 1.57 4.43 1.08.19-.08.36-.21.51-.4" stroke-width="4"/><path d="m295.28 224.31c4.73 1.39 11.76.59 16.51.22 4.78-.38 8.69-.42 15.44-3.47" stroke-width="4"/><path d="m270.56 222.66c-3.54-6.13-6.56-13.27-6.56-19.95 0-13.3-2.94-16.48-3.16-25.31-.11-4.47.87-9.04 2.72-13.2 2.06-4.64 5.22-8.78 9.19-11.7 5.81-4.26 37.42-19.34 50.95-28.82.04-.02.08-.05.12-.08 0 0 .3.32.87.92 4.9 5.2 29.51 31.31 42.82 44.61 12.4 12.41 3.96 42.86 3.69 44.73-.38 2.78-1.55 5.23-3.16 7.46-2.41 3.35-5.83 6.22-9.06 9.02-3.33 2.88-6.13 6.52-8.96 10.12-1.93 2.45-3.87 4.88-5.99 7.03-3.7 3.77-7.95 6.69-13.64 7.39-10.32 1.26-23.3 5.02-32.17-2.48-3.44-2.91-7.44-5.69-11.06-8.76-1.48-1.26-2.91-2.57-4.2-3.96-.6-.64-1.17-1.3-1.7-1.97-1.55-1.95-6.5-7.78-10.69-15.05" stroke-width="14"/><path d="m270.57 222.66h-.01l-25.21 13.27c4.61-9.22 3-20.6 3-20.6-.17-17.52-2.31-36.64-2.61-40.77-1.23-17.17 5.14-43.26 14.4-58.34 15.59-25.39 40.98-36.33 80.11-31.77 29.06 3.39 55.62 35.18 55.62 75.46 0 14.12-6.27 29.72.78 43.8l-28.61 17.61-.06.04" stroke-width="14"/><path d="m267.43 177.88c.35-.43.72-.84 1.1-1.24 1.73-1.82 3.73-3.35 5.97-4.3a13 13 0 0 1 5.46-1.09c2.24.05 4.52.78 6.47 2 1.72 1.06 3.18 2.5 4.14 4.19.58 1.03 1.34 1.74.33 2.36-.86.54-1.9.16-2.82.59-.62.29-1.19 1-1.85 1.3-.79.37-1.84.58-2.69.75-2.01.42-4.65.3-6.58-.39-3.17-1.13-5.92-3.09-8.3-5.29" stroke-linecap="square" stroke-miterlimit="10" stroke-width="3.155"/><path d="m286.12 173.74c.38.74.14.66.14 1.54 0 3.19-2.7 5.77-6.04 5.77-3.33 0-6.04-2.58-6.04-5.77 0-1.2-.12-1.5.53-2.42m69.88 3.32c-.35-.43-.72-.84-1.1-1.24-1.72-1.82-3.73-3.35-5.97-4.3-1.7-.72-3.52-1.12-5.46-1.08-2.23.05-4.51.78-6.46 1.99-1.72 1.07-3.19 2.51-4.15 4.2-.58 1.02-1.34 1.74-.33 2.36.86.54 1.9.16 2.82.58.62.29 1.19 1.01 1.85 1.31.79.37 1.84.58 2.69.75 2.01.42 4.66.3 6.58-.39 3.17-1.13 5.92-3.09 8.3-5.3" stroke-linecap="square" stroke-miterlimit="10" stroke-width="3.155"/><path d="m325.9 172.04c-.38.75-.14.67-.14 1.55 0 3.18 2.7 5.77 6.04 5.77s6.04-2.59 6.04-5.77c0-1.19.12-1.5-.53-2.42" stroke-linecap="square" stroke-miterlimit="10" stroke-width="3.155"/><path d="m325.4 124.61c-.26 0-.5-.03-.71-.09-.47-.13-.8-.41-.99-.84a.481.481 0 0 1 -.08-.16c4.16-4.06 6.2-10.47 7.45-15.93" stroke-width="14"/></g><path d="m0 0h850.394v850.394h-850.394z" fill="none"/></svg>