<svg height="850" viewBox="0 0 850 850" width="850" xmlns="http://www.w3.org/2000/svg"><path d="m385.5 316.8 2 1.5-.7 2-.8 1.7-1 1.8-1.2 1.5-1.3 1.5-1.2 1.5-1.5 1.2-1.5 1.3-1.8 1-1.7.7-2 .8-2 .7-2 .5-2.3.3-2.2.2h-2.5l-3.8-.2-3.7-1-3.8-1.3-3-1.7-3-2.3-2.5-2.5-2-3-1.7-3h-1l1.5-1.2 1.5-1.3 1.2-1.2 1-1.5 1.8-2.8 1-2 .5-.7 1.2-1.5 2 1.2 1.8 1 1.7 1 2 .8 2 .7 2 .3 2 .2 2.3.3 2-.3 2.2-.2 2-.3 2-.7 1.8-.8 2-1 1.7-1 1.8-1.2 2.2.5 1.3 2.7 1.7 3z" fill="#ffeec8"/><path d="m411 408 3.8 62.8.5 7.2.2 8h-106.2l.5-23.7 1-24.3 1.2-30.7-22.7 95.5-1.8-.3-24.5-4.7-1.2-.3 5.2-40.5 3.5-23.5 1.5-9.7 1.3-7.5 4.7-22.5 4.3-17.5 3.5-13.5 3-9.5 2.5-6.5 1.7-4 1.3-1.8.2-.5 2.5-2.2 2.8-2 3-2 3.5-2.3 7.5-3.7 7.7-3.5 7-3 6-2.5 5.5-2 .3.2-1.5 1.3-1.5 1.2h1l1.7 3 2 3 2.5 2.5 3 2.3 3 1.7 3.8 1.3 3.7 1 3.8.2h2.5l2.2-.2 2.3-.3 2-.5 2-.7 2-.8 1.7-.7 1.8-1 1.5-1.3 1.5-1.2 1.2-1.5 1.3-1.5 1.2-1.5 1-1.8.8-1.7.7-2-2-1.5 8.5 3.5 6.3 2.7 6.7 3.3 7 3.5 6.8 3.7 3.2 2 2.8 1.8 2.5 2 2 2 .2.2 1 1.8 1.8 3.5 2 6.2 2.7 9.5 3.3 13.3 4 18 4.2 23.2 2.8 17.3 3.2 23.7 5.8 40.3h-.5l-25.3 4.7-1.7.5-23-95.5z" fill="#a9d7f3"/><path d="m684.8 202.8 1.5 1-1 2.5-1 2.2-1.3 2.3-1.5 2-1.5 2-1.7 2-1.8 1.5-2 1.5-2.2 1.5-2.3 1-2.5 1-2.7 1-2.5.5-3 .5-2.8.2h-3.2l-2.5-.2-2.5-.3-2.5-.5-2.3-.5-2.2-.7-2.3-1-2.2-1-2-1.3-1.8-1.2-1.7-1.5-1.8-1.5-1.5-1.8-1.5-1.7-1.2-2-1-2-1-2-5.3-.5 4-1.5 2.3-1.5 2.2-1.8 1.8-2 1.7-2 2-3 .5-1.5 2-1.7 2.3 1.5 2.2 1.5 2.5 1 2.5 1 2.5.7 2.5.8 2.8.2h5.2l2.8-.2 2.5-.8 2.7-.7 2.3-1 2.5-1 2.2-1.5 2.5-1.5 2.5.5.5 1.2 1.8 3 2.5 3.8 1.5 1.7z" fill="#ffeec8"/><path d="m716 319 5 82.5h.3l.2 8.3.3 8.7h-135.8l.3-14.7.5-15.5 1-31.3 1.2-25.5.8-13.5h-.3l-29 121.8-1.5-.3-31.2-6-2.5-.2 3-21.8 4-30 4.2-30 2-12.5 1.8-9.5 3-15.2 3-13.5 2.7-12 2.5-10.5 2.5-9.3 2-8 2.3-6.5 1.7-5.7 3.3-8.3 2.2-5 1.3-2.5.5-.5 3-2.7 3.5-2.8 4.2-2.5 4.5-2.7 4.8-2.5 4.7-2.5 10-4.5 8.5-3.5 7.5-3 5.3.5 1 2 1 2 1.2 2 1.5 1.7 1.5 1.8 1.8 1.5 1.7 1.5 1.8 1.2 2 1.3 2.2 1 2.3 1 2.2.7 2.3.5 2.5.5 2.5.3 2.5.2h3.2l2.8-.2 3-.5 2.5-.5 2.7-1 2.5-1 2.3-1 2.2-1.5 2-1.5 1.8-1.5 1.7-2 1.5-2 1.5-2 1.3-2.3 1-2.2 1-2.5-1.5-1 12 5 7.7 3.5 8.5 4 8.5 4.2 8 4.8 3.8 2.2 3.2 2.3 3 2.2 2.5 2.3.5.7 1.3 2 2 4.5 1.2 3.5 1.5 4.5 1.8 5.5 1.7 6.5 2 8 2.3 9.3 2.2 10.7 2.8 12.3 2.5 13.7 3 15.8 3.2 22 4.5 30.2 7 51.5-1.5.3-31.2 6-2.3.7-29.2-122.2z" fill="#a9d7f3"/><path d="m161.5 620.8-3 .7-4.7 1.5-3 .8-3.3.5-3.5.5h-7.2l-4-.5-7.5-.8-5.5-1-2.3-.5-.2-1.2-.8-3.8-1-3.7.5-.3.8-1.5.7-2 1.3-4.2.7-2 1.3-1.8 1.2-1.5.8-.5 1-.2 1.7-.5 1.8.2 1.7.3 1.8.5 3.2 1.5 3.3 1.2 2 .5 1.7.3 2 .2 1.8-.2 1.7-.5 1.8-.8 1.7-.7 1.8-1 1.2-.8h2.8l1.5.5 1.2.8 1 .7 1 1.3.5 1.5v11l.5 3.7.3 1.5z" fill="#fff"/><path d="m344.3 724.5.5-5.2h.5l.7 2 .3 1.7v1.5l-.3 1.5-.5 1.3-.7 1-1 1-1 .7-2.3 1.5-2.2 1-1.8 1-.7.5-.5.5-1.5 2.3-1.3 2.2-1 2.3-.7 2.5-.8 2.5-1.2 2.5-1.5 2.5-1.8 2.2-2 2-2.2 1.8-2.8 1-1.2.5-1.5.2h-2.5l-2.3-.7-2.5-1.3-1-1-1-1-1-1-.7-1.2-.5-1.3-.3-1.2-.2-1.5v-1.5l.5-1.5.7-1.8 2.5-4.7 3-5 2.8-5 2.2-4.8zm47.5 10-.8-.5-.7-.5-2-1-2.5-1-2.8-1.5-1.2-.7-1-1-.8-1-.7-1.3-.5-1.5v-1.5l.2-1.7.5-2h.3l.5 5.2h31.2v.5l2.5 4.8 2.5 4.7 5.3 9.5.7 1.8.5 1.5v3l-.5 1.2-.5 1.3-.7 1.2-.8 1-1 1-1.2 1-2.3 1.3-2.5.7h-2.2l-1.5-.2-1.5-.5-2.8-1-2.2-1.8-2-2-1.8-2.2-1.5-2.5-1-2.5-1-2.5-.7-2.5-1-2.3-1.3-2.2zm239.5-14.7.5 2v2l-.3 1.5-.5 1.5-.7 1.2-.8 1.3-1 1-1.2.7-2.3 1.8-2.5 1.2-2 1.3-.7.5-.5.5-2 2.7-1.5 3-1 3-1.3 3.3-1 3-1.5 3.2-2 3.3-2 2.7-2.7 2.5-1.3 1.3-1.5 1-1.7.7-1.8.8-1.7.5-2 .2-1.5.3-1.5-.3-1.5-.5-1.5-.5-1.5-.7-1.5-1-1.5-1-1.3-1.3-1.2-1.2-.8-1.5-.7-1.8-.5-1.7-.3-1.8.3-2 .5-2 .7-2 3.5-6.2 3.5-6.3 3.5-6.2 3-6.3 37-.2zm85 47.7-1.8-.2-2-.5-1.5-.8-1.7-.7-1.5-1-1.5-1.3-2.5-2.5-2.3-2.7-1.7-3.3-1.5-3.2-1.3-3-1-3.3-1.2-3-1.5-3-1.8-2.7-.7-.5-1-.8-2.8-1.2-3-1.5-3.2-1.5-1.5-1.3-1.3-1-1.2-1.5-.8-1.5-.7-1.7v-1.8l.2-2.2.8-2.5.5 6h40.2v1l2.8 6 3.5 6 3.5 6.2 3.2 6 1 2 .5 2v3.8l-.5 1.7-.7 1.8-1 1.5-1 1.2-1.3 1.3-1.5 1-1.5 1-1.5.7-1.7.5-1.5.5-1.5.3z" fill="#231f20"/><path d="m654.5 84 4.3.3 4 1 4.2 1.2 3.8 2 3.7 2.3 3.3 3 3.2 3.2 3 3.8 2.8 4 2.5 4.2 2 4.8 1.7 5 1.5 5.2 1 5.3.5 5.7.3 5.8v4l-.3 4-.5 3.7-.7 3.8-1 3.7-1 3.5-1.3 3.5-1.2 3.3-1.5 3.2-1.8 3-1.7 2.8-2 2.7-2 2.5-2.3 2.3-2.2 2-2.3 2-2.5 1.5-2.2 1.5-2.5 1-2.3 1-2.7.7-2.5.8-2.8.2h-5.2l-2.8-.2-2.5-.8-2.5-.7-2.5-1-2.5-1-2.2-1.5-2.3-1.5-2.5-2-2.2-2-2.3-2.3-2-2.5-2-2.7-1.7-2.8-1.5-3-1.5-3.2-1.5-3.3-1.3-3.5-1-3.5-.7-3.7-.8-3.8-.5-3.7-.2-4-.3-4 .3-5.8.7-5.7 1-5.3 1.3-5.2 2-5 2-4.8 2.5-4.2 2.5-4 3-3.8 3.2-3.2 3.5-3 3.8-2.3 3.7-2 4-1.2 4.3-1zm127.8 355.8.5 3.5v7l-.3 3.5-.2 3.5-.5 3.5-1.5 6.7-1.5 6-1.8 5.5-1.7 4.3-1.3 3.2-.7 1.5-1.3 1.5-1.5 1.3-1.7 1.2-1.8 1.3-1.7.5-2 .5-2-.3-.8-.5-1-.5-.5-1-.7-1-.8-2.5-.7-2.7-1-6-.5-2.8-.8-2h-.7l-.5.3-1 1-.8 1-.5 1-.5 1.2-.5 1-.5.5-.5.3h-.5l-1-1.8-.7-2-.8-2.7-.5-2.8-.5-6.5-.2-6.7v-5.5l.5-4.8.5-3.7.5-1.5.5-1.3-.3-1 2.3-.7 31.2-6 1.5-.3zm-223.3-.3 1.5.3-.5 1.5.5 1 .5 1.5.5 4 .5 4.7v12.3l-.7 6.5-.5 2.7-.8 2.5-.7 2.3-1 1.5h-1l-.5-.8-.5-1-.5-1-.5-1.2-.8-1-1-.8-.5-.2h-.7l-.8 2-.5 2.5-1 6-.5 3-1 2.5-.5 1-.7.7-.8.8-1 .2-2 .3-1.7-.3-2-.7-1.8-1-1.7-1.3-1.5-1.5-1-1.5-1-1.5-1.3-3-1.7-4.5-1.8-5.2-1.5-6.3-1.5-6.5-.5-3.5-.2-3.5-.3-3.5v-7.2l.5-3.5.8-5.5 2.5.2zm-96.2 63 .2 2.8.3 2.7v2.8l-.3 2.7-.7 5.5-1 5.3-1.3 4.7-1.5 4.3-2.2 5.7-.8 1.3-.7 1.2-1.3 1-1.2 1-1.5.8-1.5.7-1.5.3-1.5-.3-.5-.2-.8-.5-.5-.8-.5-.7-.7-2-.5-2.3-.8-4.7-.5-2-.5-1.5-1 .2-.7.5-.5.8-.5 1-.8 1.7-.5.3-.7.2-.8-1.2-.5-1.8-.5-2-.5-2.2-.5-5-.2-5.3.2-4.2.3-3.8.5-3 .5-2v-1l1.7-.5 25.3-4.7h.5zm-175.3 0 1.8.3-.3 1 .5 2 .5 3 .5 3.7v4.3l-.2 5.2-.5 5-.3 2.3-.5 2-.7 1.7-.8 1.3h-.7l-.5-.5-.8-1.8-.2-.7-.8-.8-.7-.7-1-.3-.5 1.5-.5 2.3-.8 4.5-.5 2.2-.7 2-.3.8-.7.7-.5.5-.8.3-1.5.2-1.5-.2-1.5-.5-1.5-1-1.2-1-1-1-1-1.3-.8-1-2.2-6-1.3-4-1.5-5-1-5-.7-5.5v-8.5l.2-2.5.8-4.5 1.2.3zm75.3-278.2 3.2.2 3.3.8 3.2 1 3 1.5 2.8 2 2.7 2.2 2.5 2.5 2.5 2.8 2 3.2 2 3.5 1.5 3.5 1.5 4 1 4 .8 4.3.5 4.5.2 4.5v3l-.2 3.2-.5 3-.5 3-.8 2.8-.7 2.7-1 2.8-1 2.5-1.3 2.5-1.2 2.2-1.5 2.3-1.5 2.2-1.5 1.8-1.8 2-1.7 1.5-2 1.5-1.8 1.2-1.7 1-2 1-1.8.8-2 .7-2 .3-2.2.2-2 .3-2.3-.3-2-.2-2-.3-2-.7-2-.8-1.7-1-1.8-1-2-1.2-1.7-1.5-1.8-1.5-1.7-2-1.8-1.8-1.5-2.2-1.2-2.3-1.3-2.2-1.2-2.5-1-2.5-1-2.8-.8-2.7-.7-2.8-.5-3-.5-3-.3-3.2v-3l.3-4.5.5-4.5.7-4.3 1-4 1.5-4 1.5-3.5 2-3.5 2-3.2 2.5-2.8 2.5-2.5 2.5-2.2 3-2 3-1.5 3-1 3.3-.8zm-198 402.7-1-1.5-1-1.5-1.3-3.2.3-.3-.3-1.5-.5-3.7v-11l.5-2.8.5-2.5.8-2.2 1-2.3 4-6 2-3 2-2.2 2-2 2-1.5 1-.5 1.2-.3 1-.2 1 .2 1.8.3h1.5l20.5 32.7.7 2.3.5 2.2.5 2.8.5 3-.2 3.2-.3 1.8-.2 1.5-.8 1.7-.7 1.3-1 1.5-1 1.2-3 2.5-3.3 2.3-3.7 2-3.8 1.7-3.5 1.5-6.2 2.3-3.8 1-3.2 1-2.5.5h-1.3l-1.2-.3.2 2 .5 2.5 1 3.3 1.5 3.7.5 1.5.3 1.3.2 1.5-.2 1.2-.3 1.3-.2 1.2-1.3 2.3-1.2 1.7-1.8 1.5-1.7 1-1.5.3-1.3-.3-1.2-.7-1-1-.8-1.3-.5-1.2-.5-1.5-.7-3v-.8l-.5-.5-.8-1-1.5-1-1.5-.7-3.7-2-2-1.3-1.8-1.5-.7-.7-.5-1-1-2.3-.3-2v-2.5l.5-2 .5-2 1-1.5.8-1.2 3.7-3 6.5-4.8 8.3-6.2zm-14.8-155.5-1.5-1-.7-.2h-2l-3.5.2 2-.2 1.7-.5 2-.8 2.3-1 2.2-1.2 2.5-1.5 2.3-2 20.2 1.5 23.5 27-.7-.5-1.8-1.3-2-1.2-2.2-.8-2.3-.5-10.5-1.2-11.5-1-5-.5-4.5-.8-3.2-.7-1-.3-.5-.5-.8-1.2-.7-1.3-1.5-3.2-1.3-3-.7-1.3zm-57.7 59.5-2.3 1-2.2 1-2.3.5-2.2.5-2.3.5-2.5.3h-2l-2.2-.3-2-.2-2-.5-1.5-.5-1.5-.8-1.5-1-1-1-.8-1.2-.5-1.5-.5-2.5-.2-3-.3-3.3v-3.5l.5-3.2.8-3.5.7-1.5.8-1.5.7-1.5 1.3-1.3 1.7-1.7 2.3-1.5 9.5-4.8 10.5-5 4.7-2.5 3.8-2.2 2.5-1.8.7-.7.3-.8v-2.5l.2-3.7.5-3.5.3-1.5.5-1 .2-.8.8-1 .5-.2h.5l3-1.3 3.5-1 1.7-.2 1.8-.3h2l1.5.3 1.7.7 1.3.8.7 1.7 1.8 4 1 2.8 1 3 .5 3 .2 2.7v2.3l-.5 2-.5 1.5-1.2 1.5-2.3 2-2 1.2-1.7.5h-1.3l-2-.5h-1l-.5.3-1.5 4.2-2 4.8-2.2 5.2-3 6-1.8 2.8-1.7 3-1.8 2.5-2 2.2-2 2-2.2 1.8z" fill="#ffeec8"/><path d="m104.8 469.8-.5 1-.3 1.5-.5 3.5-.2 3.7v2.5l-.3.8-.7.7-2.5 1.8-3.8 2.2-4.7 2.5-10.5 5-9.5 4.8-2.3 1.5-1.7 1.7 1.7-5 21.5-26.7 14.5-2.3zm6.2 175.7-1.2.3h-1.3l-2.7-.5-3-.8-3.8-1.2-6.2-2.3-3.8-1.5-3.7-1.7-3.5-2-3.3-2.3-3-2.5-1-1.2-1-1.3-1-1.5-.5-1.5-.5-1.7-.2-1.5v-3.5l.2-3 .5-2.8.8-2.2.7-2 20-32.3 1 1.5 1 1 .8.8 2 2 2 2.5 2.5 3 2.7 3.5 2.8 4 2.2 4.5 1 2.2 1 2.3 1.8 5 1.2 4.5 1 3.7h-.7l-.8 2.3-1 2-1.2 1.7-1.5 1.8h2.5l8.5 6.2 6.2 4.8 4 3 .8 1.2.7 1.5.8 2 .2 2.3.3 2.2-.5 2.3-.8 2-.5 1-.7.7-1.8 1.5-2 1.3-3.7 2-1.5.7-1.5 1-1 1-.3.5-.2.8-.5 3-.5 1.5-.5 1.5-.8 1.2-1 1-1.2.5-1.3.3-1.5-.3-1.7-1-1.8-1.5-1.5-1.7-1-2.3-.5-1.2-.2-1.3v-2.7l.5-1.3.5-1.5 1.5-3.7 1-3.3.5-2.5z" fill="#ffeec8"/><path d="m131.3 484 .5 4.8.2 2.2.8 2.3.7 2 1.3 1.7 1.2 1.5 1.8 1 3 1 2.7.5h2.3l2-.5 1.5-.5 1.2-.7 1-.5 2.5 3.5 3 3.5 3.8 4.2 4.5 4.5 2.2 2 2.5 2 2.5 1.8 2.5 1.5 2.5 1.2 2.8.8 2.2.2 2.5.3v2l.5 3.5.3 3.7.5 7.8.2 7.7v7.5l-.2 7-.5 11-.3 4.3-.2.2-.8.3h-2.7l-1.8-.3-1-.2-1 .2-1.2.3-1 .5-2 1.5-2 2-2 2.2-2 3-4 6-1 2.3-.8 2.2-.5 2.5-.5 2.8-.5-1.5-1-1.3-1-.7-1.2-.8-1.5-.5h-2.8l-1.2.8-1.8 1-1.7.7-1.8.8-1.7.5-1.8.2-2-.2-1.7-.3-2-.5-3.3-1.2-3.2-1.5-1.8-.5-1.7-.3-1.8-.2-1.7.5-1 .2-.8.5-1.2 1.5-1.3 1.8-.7 2-1.3 4.2-.7 2-.8 1.5-.5.3-1.2-4.5-1.8-5-1-2.3-1-2.2-2.2-4.5-2.8-4-2.7-3.5-2.5-3-2-2.5-2-2-.8-.8-1-1-1-1.5-1.5-2.5-.5-1.7-.5-1.8-.5-2.2-.5-2.3v-5.7l1-14.5 1.3-14.8 3-1.7 2.2-1.8 2-2 2-2.2 1.8-2.5 1.7-3 1.8-2.8 3-6 2.2-5.2 2-4.8 1.5-4.2.5-.3h1l2 .5h1.3l1.7-.5 2-1.2 2.3-2 1.2-1.5.5-1.5.5-2v-2.3z" fill="#ffeec8"/><path d="m138.3 458.3.2 1-.2 1-.8.7-.7.8-1.3.5-1.2.5-1.3.2-1.5.3-3-.3-1.5-.2-1.5-.5-1-.5-1-.8-.7-.7-.5-1 2-1.5 1.7-1.3 1.8-1 1-.5h1l1-.2 1 .2 1.7.5 2.5 1.3 1.3.7z" fill="#ee947d"/><path d="m209.3 510.8v1.5l-.3 1.5-.5 1.2-.7 1.3-1 1.2-1.3 1.3-1.5 1-1.7 1-1.8 1-2 .7-4.2 1-4.5.8-2.3.2-2.5-.2-2.5-.3-2.2-.2-2.8-.8-2.5-1.2-2.5-1.5-2.5-1.8-2.5-2-2.2-2-4.5-4.5-3.8-4.2-3-3.5-2.5-3.5-1 .5-1.2.7-1.5.5-2 .5h-2.3l-2.7-.5-3-1-1.8-1-1.2-1.5-1.3-1.7-.7-2-.8-2.3-.2-2.2-.5-4.8v-3.2l.2-2.8.3-2.5.5-1 1-1 1.2-1 1.5-.5 3-1 3-.5h.3l3.5-.2h2l.7.2 1.5 1 .8 1 .7 1.3 1.3 3 1.5 3.2.7 1.3.8 1.2.5.5 1 .3 3.2.7 4.5.8 5 .5 11.5 1 10.5 1.2 8.3 3.8 2 2.2 1.7 2.3 1.5 2.5 1.3 2.7.7 2.8.8 2.5z" fill="#ffeec8"/><path d="m131.8 475.5-.3 2.5-.3 2.8v3.3h-2.8l-.3-2.8-.5-3-1-3-1-2.8-1.8-4-.8-1.8-1-.7-1.8-.8-1.5-.3h-2l-1.8.3-1.8.3-3.5 1h-.6l-2-.3-1.3-.5-1.5-.8-1.5-1-1.5-1.3-1.5-1.8-1.5-2.3-1.2-2.5-1.3-3-1-4-.8-4.5-.5-5.3v-10.5l.5-4.5 1-4.8.8-2.3 1-2.3 1-2.3 1.3-2.3 1.3-2.3 1.8-2.3 1.8-2.3 2.3-2 2.3-2 2.5-2 3-1.8 3.5-1.3 4.5-1.3 4.8-.8h8.1l2.5.5 2.8.5 2.8 1 2.5 1 2.8 1.3 2.3 1.8 2.3 1.5 2 2 1.8 1.8 1.8 2 1.5 2 1.3 2.3 1 2 2 4.5 1.3 4.3 1 4.3.5 4 .5 6.3-.3 5.8-.8 5-1 4.5-1.5 4-1.8 3.3-2 2.8-2.3 2.5-2.3 2-2.5 1.5-2.3 1.3-2.3 1-2 .8-1.8.5-2 .3h-.7l-3 .5-3 1-1.5.5-1.3 1-1 1zm-9.5-16.2.5 1 .8.8 1 .8 1 .5 1.5.5 1.5.3 3 .3 1.5-.3 1.3-.3 1.3-.5 1.3-.5.8-.8.8-.8.3-1-.3-1-1-.8-1.3-.8-2.5-1.3-1.8-.5-1-.3-1 .3h-1l-1 .5-1.8 1-1.8 1.3z" fill="#ffeec8"/><path d="m676.3 717.3-21.8-237.3v-1l-23.2 240.8-.3 3.5-37 .2-11.7.3-.3-7.8v-12.5l.3-36.2.5-47 .7-52 2.5-143.8v-6h135.8v6.5l2.5 153.3 2.5 145h-50zm-360.8 7.2-9.2.3-.3-6v-9.8l.3-28.5 1-77.5 2-112.5v-4.5h106.2v5l2 120 1.8 113.5h-39l-.5-5.2-17-185v-1l-18 186-.5 5.2z" fill="#7a7878"/><g fill="none" stroke="#231f20" stroke-linecap="round" stroke-miterlimit="10"><path d="m67.3 503 1.7-1.7 2.3-1.5 9.5-4.8 10.5-5 4.7-2.5 3.8-2.2 2.5-1.8.7-.7.3-.8v-2.5l.2-3.7.5-3.5.3-1.5.5-1 .2-.8.8-1 .5-.2h.5l3-1.3 3.5-1 1.7-.2 1.8-.3h2l1.5.3 1.7.7 1.3.8.7 1.7 1.8 4 1 2.8 1 3 .5 3 .2 2.7v2.3l-.5 2-.5 1.5-1.2 1.5-2.3 2-2 1.2-1.7.5h-1.3l-2-.5h-1l-.5.3-1.5 4.2-2 4.8-2.2 5.2-3 6-1.8 2.8-1.7 3-1.8 2.5-2 2.2-2 2-2.2 1.8-3 1.7-2.3 1-2.2 1-2.3.5-2.2.5-2.3.5-2.5.3h-2l-2.2-.3-2-.2-2-.5-1.5-.5-1.5-.8-1.5-1-1-1-.8-1.2-.5-1.5-.5-2.5-.2-3-.3-3.3v-3.5l.5-3.2.8-3.5.7-1.5.8-1.5.7-1.5z" stroke-width="9"/><path d="m67.3 503 1.7-5 21.5-26.7 14.5-2.3m87 18.5 8.3 3.8.7.5-23.5-27-20.2-1.5-2-.3" stroke-width="7"/><path d="m110 466.5h-1l-2-.2-1.2-.5-1.5-.8-1.5-1-1.5-1.2-1.5-1.8-1.5-2.2-1.3-2.8-1.2-3-1-4-.8-4.5-.5-5.2v-10.5l.5-4.5 1-4.8.8-2.2 1-2.3 1-2.2 1.2-2.3 1.3-2.2 1.7-2.3 1.8-2.2 2.2-2 2.3-2 2.5-2 3-1.8 3.5-1.2 4.5-1.3 4.7-.7h8l2.5.5 2.8.5 2.7 1 2.5 1 2.8 1.2 2.2 1.8 2.3 1.5 2 2 1.7 1.7 1.8 2 1.5 2 1.2 2.3 1 2 2 4.5 1.3 4.2 1 4.3.5 4 .5 6.2-.3 5.8-.7 5-1 4.5-1.5 4-1.8 3.2-2 2.8-2.2 2.5-2.3 2-2.5 1.5-2.2 1.2-2.3 1-2 .8-1.7.5-2 .2" stroke-width="9"/><path d="m122.3 459.3 2-1.5 1.7-1.3 1.8-1 1-.5h1l1-.2 1 .2 1.7.5 2.5 1.3 1.3.7 1 .8.2 1-.2 1-.8.7-.7.8-1.3.5-1.2.5-1.3.2-1.5.3-3-.3-1.5-.2-1.5-.5-1-.5-1-.8-.7-.7z" stroke-width="7"/><path d="m92.3 531-1.3 14.8-1 14.5v5.7l.5 2.3.5 2.2.5 1.8.5 1.7 1.5 2.5 1 1.5 1 1 .8.8 2 2 2 2.5 2.5 3 2.7 3.5 2.8 4 2.2 4.5 1 2.2 1 2.3 1.8 5 1.2 4.5 1 3.7.8 3.8.2 1.2 2.3.5 5.5 1 7.5.8 4 .5h7.2l3.5-.5 3.3-.5 3-.8 4.7-1.5 3-.7.3-.3-.3-1.5-.5-3.7v-11l.5-2.8.5-2.5.8-2.2 1-2.3 4-6 2-3 2-2.2 2-2 2-1.5 1-.5 1.2-.3 1-.2 1 .2 1.8.3h2.7l.8-.3.2-.2.3-4.3.5-11 .2-7v-7.5l-.2-7.7-.5-7.8-.3-3.7-.5-3.5" stroke-width="9"/><path d="m116 613 .8-1.5.7-2 1.3-4.2.7-2 1.3-1.8 1.2-1.5.8-.5 1-.2 1.7-.5 1.8.2 1.7.3 1.8.5 3.2 1.5 3.3 1.2 2 .5 1.7.3 2 .2 1.8-.2 1.7-.5 1.8-.8 1.7-.7 1.8-1 1.2-.8h2.8l1.5.5 1.2.8 1 .7 1 1.3.5 1.5m-67-28.3-.5.5-20 32.3-.7 2-.8 2.2-.5 2.8-.2 3v3.5l.2 1.5.5 1.7.5 1.5 1 1.5 1 1.3 1 1.2 3 2.5 3.3 2.3 3.5 2 3.7 1.7 3.8 1.5 6.2 2.3 3.8 1.2 3 .8 2.7.5h1.3l1.2-.3 1.5-.5 1.5-.7 4.3-2.8 1-.5" stroke-width="9"/><path d="m95.5 633.3 1.8-.5 2.2-.5 2.3-1 2-1.3 4.2-2.7 3.3-2.5 1.5-1.8 1.2-1.7 1-2 .8-2.3m-2 7.8 8.5 6.2 6.2 4.8 4 3 .8 1.2.7 1.5.8 2 .2 2.3.3 2.2-.5 2.3-.8 2-.5 1-.7.7-1.8 1.5-2 1.3-3.7 2-1.5.7-1.5 1-1 1-.3.5-.2.8-.5 3-.5 1.5-.5 1.5-.8 1.2-1 1-1.2.5-1.3.3-1.5-.3-1.7-1-1.8-1.5-1.5-1.7-1-2.3-.5-1.2-.2-1.3v-2.7l.5-1.3.5-1.5 1.5-3.7 1-3.3.5-2.5.2-2v-1.2m72.3-65 20.5 32.7.7 2.3.5 2.2.5 2.8.5 3-.2 3.2-.3 1.8-.2 1.5-.8 1.7-.7 1.3-1 1.5-1 1.2-3 2.5-3.3 2.3-3.7 2-3.8 1.7-3.5 1.5-6.2 2.3-3.8 1-3.2 1-2.5.5h-1.3l-1.2-.3-1.5-.5-1.5-.7-4.5-2.8-.8-.5" stroke-width="9"/><path d="m181.8 636.8-2-.5-2-.5-2.3-1-2.2-1.3-4-2.7-3.5-2.5-1-1.3-1-1.5-1-1.5-1.3-3.2-.2-.3m2 7.8-8.3 6.2-6.5 4.8-3.7 3-.8 1.2-1 1.5-.5 2-.5 2v2.5l.3 2 1 2.3.5 1 .7.7 1.8 1.5 2 1.3 3.7 2 1.5.7 1.5 1 .8 1 .5.5v.8l.7 3 .5 1.5.5 1.2.8 1.3 1 1 1.2.7 1.3.3 1.5-.3 1.7-1 1.8-1.5 1.2-1.7 1.3-2.3.2-1.2.3-1.3.2-1.2-.2-1.5-.3-1.3-.5-1.5-1.5-3.7-1-3.3-.5-2.5-.2-2-.3-1.2" stroke-width="9"/><path d="m110.3 435 2 .8 2 .5 1.7.2 2-.2 1.8-.3 1.5-.7 1.5-.8 1.5-1m28.5 1.5-2 .8-2 .5-2 .2-1.8-.2-1.7-.3-1.5-.7-1.5-.8-1.5-1" stroke-width="7"/><path d="m131.3 484 .5 4.8.2 2.2.8 2.3.7 2 1.3 1.7 1.2 1.5 1.8 1 3 1 2.7.5h2.3l2-.5 1.5-.5 1.2-.7 1-.5 2.5 3.5 3 3.5 3.8 4.2 4.5 4.5 2.2 2 2.5 2 2.5 1.8 2.5 1.5 2.5 1.2 2.8.8 2.2.2 2.5.3 2.5.2 2.3-.2 4.5-.8 4.2-1 2-.7 1.8-1 1.7-1 1.5-1 1.3-1.3 1-1.2.7-1.3.5-1.2.3-1.5v-1.5l-1-4.5-.8-2.5-.7-2.8-1.3-2.7-1.5-2.5-1.7-2.3-2-2.2-1.8-1.3-2-1.2-2.2-.8-2.3-.5-10.5-1.2-11.5-1-5-.5-4.5-.8-3.2-.7-1-.3-.5-.5-.8-1.2-.7-1.3-1.5-3.2-1.3-3-.7-1.3-.8-1-1.5-1-.7-.2h-2l-3.5.2h-.3l-3 .5-3 1-1.5.5-1.2 1-1 1-.5 1-.3 2.5-.2 2.8z" stroke-width="9"/><path d="m127.5 446.8.5.7 1 .5.8.5 1 .3h2l1-.5 1-.5" stroke-width="7"/><path d="m347 307.8-1.7-1.5-1.8-1.5-1.7-2-1.8-1.8-1.5-2.2-1.2-2.3-1.3-2.2-1.2-2.5-1-2.5-1-2.8-.8-2.7-.7-2.8-.5-3-.5-3-.3-3.2v-3l.3-4.5.5-4.5.7-4.3 1-4 1.5-4 1.5-3.5 2-3.5 2-3.2 2.5-2.8 2.5-2.5 2.5-2.2 3-2 3-1.5 3-1 3.3-.8 3.5-.2 3.2.2 3.3.8 3.2 1 3 1.5 2.8 2 2.7 2.2 2.5 2.5 2.5 2.8 2 3.2 2 3.5 1.5 3.5 1.5 4 1 4 .8 4.3.5 4.5.2 4.5v3l-.2 3.2-.5 3-.5 3-.8 2.8-.7 2.7-1 2.8-1 2.5-1.3 2.5-1.2 2.2-1.5 2.3-1.5 2.2-1.5 1.8-1.8 2-1.7 1.5-2 1.5-1.8 1.2-1.7 1-2 1-1.8.8-2 .7-2 .3-2.2.2-2 .3-2.3-.3-2-.2-2-.3-2-.7-2-.8-1.7-1-1.8-1zm67.8 165v-2l-3.8-62.8v-.7" stroke-width="14"/><path d="m312 406.8v.5l-1.2 30.7-1 24.3-.5 23.7v4.5l-2 112.5-1 77.5-.3 28.5v9.8l.3 6 9.2-.3h28.8l.5-5.2 18-186v1l17 185 .5 5.2h39l-1.8-113.5-2-120v-5l-.2-8-.5-7.2m-103.5 15.2h101.7m-152 16 .8-4.5 5.2-40.5 3.5-23.5 1.5-9.7 1.3-7.5 4.7-22.5 4.3-17.5 3.5-13.5 3-9.5 2.5-6.5 1.7-4 1.3-1.8.2-.5 2.5-2.2 2.8-2 3-2 3.5-2.3 7.5-3.7 7.7-3.5 7-3 6-2.5 5.5-2" stroke-width="14"/><path d="m312 407.3-22.7 95.5-.3 1 .5 2 .5 3 .5 3.7v4.3l-.2 5.2-.5 5-.3 2.3-.5 2-.7 1.7-.8 1.3h-.7l-.5-.5-.8-1.8-.2-.7-.8-.8-.7-.7-1-.3-.5 1.5-.5 2.3-.8 4.5-.5 2.2-.7 2-.3.8-.7.7-.5.5-.8.3-1.5.2-1.5-.2-1.5-.5-1.5-1-1.2-1-1-1-1-1.3-.8-1-2.2-6-1.3-4-1.5-5-1-5-.7-5.5v-8.5l.2-2.5m2-4.2 24.5 4.7m175.3 0-.5-4.2-5.8-40.3-3.2-23.7-2.8-17.3-4.2-23.2-4-18-3.3-13.3-2.7-9.5-2-6.2-1.8-3.5-1-1.8-.2-.2-2-2-2.5-2-2.8-1.8-3.2-2-6.8-3.7-7-3.5-6.7-3.3-6.3-2.7-8.5-3.5-1-.5m27.3 91.7 23 95.5v1l-.5 2-.5 3-.3 3.8-.2 4.2.2 5.3.5 5 .5 2.2.5 2 .5 1.8.8 1.2.7-.2.5-.3.8-1.7.5-1 .5-.8.7-.5 1-.2.5 1.5.5 2 .8 4.7.5 2.3.7 2 .5.7.5.8.8.5.5.2 1.5.3 1.5-.3 1.5-.7 1.5-.8 1.2-1 1.3-1 .7-1.2.8-1.3 2.2-5.7 1.5-4.3 1.3-4.7 1-5.3.7-5.5.3-2.7v-2.8l-.3-2.7-.2-2.8m-1-4.2-25.3 4.7" stroke-width="14"/><path d="m387.8 317.8-.3.5-.7 2-.8 1.7-1 1.8-1.2 1.5-1.3 1.5-1.2 1.5-1.5 1.2-1.5 1.3-1.8 1-1.7.7-2 .8-2 .7-2 .5-2.3.3-2.2.2h-2.5l-3.8-.2-3.7-1-3.8-1.3-3-1.7-3-2.3-2.5-2.5-2-3-1.7-3" stroke-width="14"/><path d="m380.5 308.3 1.3 2.7 1.7 3 2 2.8 2 1.5 1.3.7 1 .5m-44-10.2-.5.7-1 2-1.8 2.8-1 1.5-1.2 1.2-1.5 1.3-1.5 1.2-1.3.5m-20.5 403.8v.2l-2.2 4.8-2.8 5-3 5-2.5 4.7-.7 1.8-.5 1.5v1.5l.2 1.5.3 1.2.5 1.3.7 1.2 1 1 1 1 1 1 2.5 1.3 2.3.7h2.5l1.5-.2 1.2-.5 2.8-1 2.2-1.8 2-2 1.8-2.2 1.5-2.5 1.2-2.5.8-2.5.7-2.5 1-2.3 1.3-2.2 1.5-2.3.5-.5.7-.5 1.8-1 2.2-1 2.3-1.5 1-.7 1-1 .7-1 .5-1.3.3-1.5v-1.5l-.3-1.7-.7-2m66.2 5.7 2.5 4.8 2.5 4.7 5.3 9.5.7 1.8.5 1.5v3l-.5 1.2-.5 1.3-.7 1.2-.8 1-1 1-1.2 1-2.3 1.3-2.5.7h-2.2l-1.5-.2-1.5-.5-2.8-1-2.2-1.8-2-2-1.8-2.2-1.5-2.5-1-2.5-1-2.5-.7-2.5-1-2.3-1.3-2.2-1.2-2.3-.8-.5-.7-.5-2-1-2.5-1-2.8-1.5-1.2-.7-1-1-.8-1-.7-1.3-.5-1.5v-1.5l.2-1.7.5-2m255-528.5-2.5-2-2.2-2-2.3-2.3-2-2.5-2-2.7-1.7-2.8-1.5-3-1.5-3.2-1.5-3.3-1.3-3.5-1-3.5-.7-3.7-.8-3.8-.5-3.7-.2-4-.3-4 .3-5.8.7-5.7 1-5.3 1.3-5.2 2-5 2-4.8 2.5-4.2 2.5-4 3-3.8 3.2-3.2 3.5-3 3.8-2.3 3.7-2 4-1.2 4.3-1 4.2-.3 4.3.3 4 1 4.2 1.2 3.8 2 3.7 2.3 3.3 3 3.2 3.2 3 3.8 2.8 4 2.5 4.2 2 4.8 1.7 5 1.5 5.2 1 5.3.5 5.7.3 5.8v4l-.3 4-.5 3.7-.7 3.8-1 3.7-1 3.5-1.3 3.5-1.2 3.3-1.5 3.2-1.8 3-1.7 2.8-2 2.7-2 2.5-2.3 2.3-2.2 2-2.3 2-2.5 1.5-2.2 1.5-2.5 1-2.3 1-2.7.7-2.5.8-2.8.2h-5.2l-2.8-.2-2.5-.8-2.5-.7-2.5-1-2.5-1-2.2-1.5zm86.5 210.7-5-82.5v-1.2" stroke-width="14"/><path d="m589.8 317.3v.7l-.8 13.5-1.2 25.5-1 31.3-.5 15.5-.3 14.7v6l-2.5 143.8-.7 52-.5 47-.3 36.2v12.5l.3 7.8 11.7-.3 37-.2.3-3.5 23.2-240.8v1l21.8 237.3.5 6h50l-2.5-145-2.5-153.3v-6.5l-.3-8.7-.2-8.3-.3-2.5m-132.2 19.5h130m-194.3 20.3.8-5.5 3-21.8 4-30 4.2-30 2-12.5 1.8-9.5 3-15.2 3-13.5 2.7-12 2.5-10.5 2.5-9.3 2-8 2.3-6.5 1.7-5.7 3.3-8.3 2.2-5 1.3-2.5.5-.5 3-2.7 3.5-2.8 4.2-2.5 4.5-2.7 4.8-2.5 4.7-2.5 10-4.5 8.5-3.5 7.5-3 4-1.5 4-1.5m-36.5 115.2-29 121.8-.5 1.5.5 1 .5 1.5.5 4 .5 4.7v12.3l-.7 6.5-.5 2.7-.8 2.5-.7 2.3-1 1.5h-1l-.5-.8-.5-1-.5-1-.5-1.2-.8-1-1-.8-.5-.2h-.7l-.8 2-.5 2.5-1 6-.5 3-1 2.5-.5 1-.7.7-.8.8-1 .2-2 .3-1.7-.3-2-.7-1.8-1-1.7-1.3-1.5-1.5-1-1.5-1-1.5-1.3-3-1.7-4.5-1.8-5.2-1.5-6.3-1.5-6.5-.5-3.5-.2-3.5-.3-3.5v-7.2l.5-3.5m3.3-5.3 31.2 6m223.3.3-.8-5.8-7-51.5-4.5-30.2-3.2-22-3-15.8-2.5-13.7-2.8-12.3-2.2-10.7-2.3-9.3-2-8-1.7-6.5-1.8-5.5-1.5-4.5-1.2-3.5-2-4.5-1.3-2-.5-.7-2.5-2.3-3-2.2-3.2-2.3-3.8-2.2-8-4.8-8.5-4.2-8.5-4-7.7-3.5-12-5-3-1.3m35.5 117.3 29.2 122.2.3 1-.5 1.3-.5 1.5-.5 3.7-.5 4.8v5.5l.2 6.7.5 6.5.5 2.8.8 2.7.7 2 1 1.8h.5l.5-.3.5-.5.5-1 .5-1.2.5-1 .8-1 1-1 .5-.3h.7l.8 2 .5 2.8 1 6 .7 2.7.8 2.5.7 1 .5 1 1 .5.8.5 2 .3 2-.5 1.7-.5 1.8-1.3 1.7-1.2 1.5-1.3 1.3-1.5.7-1.5 1.3-3.2 1.7-4.3 1.8-5.5 1.5-6 1.5-6.7.5-3.5.2-3.5.3-3.5v-7l-.5-3.5m-2.3-5.5-31.2 6" stroke-width="14"/><path d="m686.3 203.5v.3l-1 2.5-1 2.2-1.3 2.3-1.5 2-1.5 2-1.7 2-1.8 1.5-2 1.5-2.2 1.5-2.3 1-2.5 1-2.7 1-2.5.5-3 .5-2.8.2h-3.2l-2.5-.2-2.5-.3-2.5-.5-2.3-.5-2.2-.7-2.3-1-2.2-1-2-1.3-1.8-1.2-1.7-1.5-1.8-1.5-1.5-1.8-1.5-1.7-1.2-2-1-2-1-2" stroke-width="14"/><path d="m677 191.3.5 1.2 1.8 3 2.5 3.8 1.5 1.7 1.5 1.8 1.5 1 1.5.7 1.2.5m-56.5-12.5-.5 1.5-2 3-1.7 2-1.8 2-2.2 1.8-2.3 1.5-1.7.7m-26 518-.3.5-3 6.3-3.5 6.2-3.5 6.3-3.5 6.2-.7 2-.5 2-.3 2 .3 1.8.5 1.7.7 1.8.8 1.5 1.2 1.2 1.3 1.3 1.5 1 1.5 1 1.5.7 1.5.5 1.5.5 1.5.3 1.5-.3 2-.2 1.7-.5 1.8-.8 1.7-.7 1.5-1 1.3-1.3 2.7-2.5 2-2.7 2-3.3 1.5-3.2 1-3 1.3-3.3 1-3 1.5-3 2-2.7.5-.5.7-.5 2-1.3 2.5-1.2 2.3-1.8 1.2-.7 1-1 .8-1.3.7-1.2.5-1.5.3-1.5v-2l-.5-2-1-3m86.7 7.5 2.8 6 3.5 6 3.5 6.2 3.2 6 1 2 .5 2v3.8l-.5 1.7-.7 1.8-1 1.5-1 1.2-1.3 1.3-1.5 1-1.5 1-1.5.7-1.7.5-1.5.5-1.5.3-1.5-.3-1.8-.2-2-.5-1.5-.8-1.7-.7-1.5-1-1.5-1.3-2.5-2.5-2.3-2.7-1.7-3.3-1.5-3.2-1.3-3-1-3.3-1.2-3-1.5-3-1.8-2.7-.7-.5-1-.8-2.8-1.2-3-1.5-3.2-1.5-1.5-1.3-1.3-1-1.2-1.5-.8-1.5-.7-1.7v-1.8l.2-2.2.8-2.5v-.5" stroke-width="14"/></g></svg>