<svg height="850" viewBox="0 0 850 850" width="850" xmlns="http://www.w3.org/2000/svg"><path d="m185.6 346.8-28.7 119.5-2.3-.5-30.5-6-1.5-.3 6.8-50.5 4.2-29.5 2-12.2 1.5-9.3 3-14.7 3-13.5 2.5-11.8 2.8-10.2 2.2-9 2.3-7.8 2-6.5 1.7-5.5 3-8 2.3-5 1.5-2.2.2-.8 3-2.5 3.3-2.7 4-2.5 4-2.5 8.7-5 9-4.5 9.8-4.3 7.5-3.2 5.5 1.7 1 2 1 1.8 1.2 2 1.5 1.7 1.5 1.5 1.5 1.5 1.8 1.5 2 1.3 2 1.2 2 1 2.2 1 2.3.8 2.2.5 2.5.5 2.3.2 2.5.3h3l3-.3 2.7-.5 2.8-.5 2.5-1 2.2-.7 2.3-1.3 2.2-1.2 2-1.5 1.8-1.8 1.7-1.7 1.5-2 1.5-2 1.3-2.3 1-2.2.7-2.5 1-1.3 1.8.8.2-.3 10.8 5 7 3.5 7.5 4 7.7 4.3 7.3 4.2 3.2 2.3 3 2.2 2.8 2.3 2.5 2.2.2.5 1.3 2 2 4.5 2.7 7.8 1.8 5.2 1.7 6.5 2 7.8 2 9 2.5 10.5 2.3 12 2.7 13.7 2.8 15.5 3.2 21.3 4.3 29.5 7 50.5-2.5.2-29.5 6-2.3.5-28.7-119.5-1 .3 4.7 80.7h.3l.5 8v8.5h-132.8l.3-14.2.2-15.3 1.3-30.5 1-25z" fill="#a9d7f3"/><path d="m215.9 234.5-.3-.2 2.8-1.3 2.5-1.7 2-1.5 1.7-1.8 2.3-2.7.7-1.3 1.8-1.7 2.2 1.5 2.3 1.2 2.5 1.3 2.5 1 2.5.7 2.5.5 2.5.3 2.7.2 2.5-.2 2.5-.3 2.8-.5 2.5-.7 2.2-1 2.5-1.3 2.3-1.2 2.2-1.5 2.5.2.8 1.5 2.2 3.3 1.3 1.7 1.7 1.8 2 1.7 2 1-1 1.3-.7 2.5-1 2.2-1.3 2.3-1.5 2-1.5 2-1.7 1.7-1.8 1.8-2 1.5-2.2 1.2-2.3 1.3-2.2.7-2.5 1-2.8.5-2.7.5-3 .3h-3l-2.5-.3-2.3-.2-2.5-.5-2.2-.5-2.3-.8-2.2-1-2-1-2-1.2-2-1.3-1.8-1.5-1.5-1.5-1.5-1.5-1.5-1.7-1.2-2-1-1.8-1-2-5.5-1.7z" fill="#ffeec8"/><path d="m223.4 745.3 1 2.2.5 2v2.8l-.5 1-.5.5-.8.5-1 .2-2 .3-2.2.2-2 .3-.8.5-.5.5-2 2.7-1.2 2.8-1.3 3-1 3-1.2 3.2-1.5 3-1.8 3.3-2 2.7-2.5 2.5-1.5 1-1.5 1-1.5.8-1.7.7-1.8.5-2 .3-1.2.2-1.5-.2-1.8-.5-1.5-.5-1.5-.8-1.5-.7-1.2-1.3-1.3-1-1.2-1.5-.8-1.5-.7-1.5-.5-1.7-.3-1.8.3-2 .5-1.7.7-2 3.5-6.3 3.5-6.2 3.3-6 3-6 33.5-.3zm99.7 23 .8 2 .5 1.7.2 2-.2 1.8-.5 1.7-.8 1.5-.7 1.5-1.3 1.5-1.2 1-1.3 1.3-1.5.7-1.5.8-1.5.5-1.5.5-1.5.2-1.5-.2-1.7-.3-2-.5-1.5-.7-1.8-.8-1.5-1-1.2-1-2.5-2.5-2.3-2.7-1.7-3.3-1.5-3-1.3-3.2-1-3-1-3-1.5-2.8-1.7-2.7-.8-.5-.7-.3-2-.2h-2.3l-2-.3h-1l-.7-.5-.5-.5-.5-1v-2.5l.5-2 1-2.2v-2.8h33.7v1l3 5.8 3.3 6 3.5 6z" fill="#231f20"/><path d="m189.9 743.8h-11.5l-.3-7.3v-12.2l.3-35.8.5-46 .7-50.7 2.5-140.8v-6h132.8l.2 6.5 2.3 150 2.5 142h-49l-21.8-238v-1l-23 239h-2.7z" fill="#7a7878"/><path d="m156.6 467.5.5 1 .5 1.5.5 3.8.5 4.7v5.3l-.2 6.5-.5 6.5-.5 2.7-.8 2.5-.7 2-1 1.8h-.5l-.3-.3-.7-.5-.5-1-.5-1-.5-1.2-.5-1-1-.8-.8-.2h-.7l-.5 2-.5 2.5-1 5.7-.8 2.8-.7 2.5-.8 1-.5 1-.7.5-1 .5h-1.8l-2-.3-1.7-.5-1.8-1.2-1.7-1.3-1.5-1.2-1-1.5-1-1.5-1.3-3-1.5-4.3-1.7-5.2-1.5-6-1.5-6.5-.5-3.5-.3-3.3-.2-3.5v-7l.5-3.5.7-5.5 1.5.3 30.5 6 2.3.5zm217.5-1.5.5 3.3v10.5l-.5 3.5-.5 3.2-1.2 6.5-1.8 6-1.7 5.3-1.5 4.2-1.3 3-.7 1.5-1.3 1.5-1.5 1.5-1.5 1.3-1.7 1-2 .7-1.8.3-2-.3-.7-.5-1-.5-.5-.7-.8-1-.7-2.5-.8-3-1-5.8-.5-2.5-.5-2h-.7l-.8.3-.7.7-.8 1-.5 1.3-.5 1-.5 1-.5.5-.5.2h-.5l-1-1.5-.7-2.2-.5-2.5-.5-2.8-.8-6.2-.2-6.8.2-5.2.3-4.8.7-3.7.3-1.5.5-1-.3-1.3 2.3-.5 29.5-6 2.5-.2zm-125-348.2 4 .2 4.3.8 3.7 1.5 3.8 1.7 3.7 2.5 3.3 2.8 3.2 3.2 3 3.5 2.5 4 2.5 4.3 2 4.5 1.8 5 1.2 5 1 5.2.8 5.8.2 5.5-.2 4-.3 3.7-.5 3.8-.7 3.7-.8 3.5-1 3.5-1.2 3.5-1.3 3.3-1.5 3-1.7 3-1.8 2.7-1.7 2.5-2 2.5-2.3 2.3-2.2 2-2.3 2-2.2 1.5-2.3 1.2-2.5 1.3-2.2 1-2.5.7-2.8.5-2.5.3-2.5.2-2.7-.2-2.5-.3-2.5-.5-2.5-.7-2.5-1-2.5-1.3-2.3-1.2-2.2-1.5-2.3-2-2.2-2-2-2.3-2-2.5-2-2.5-1.8-2.7-1.7-3-1.5-3-1.3-3.3-1.2-3.5-1-3.5-.8-3.5-.7-3.7-.5-3.8-.3-3.7v-4l.3-5.5.5-5.8 1-5.2 1.5-5 1.5-5 2.2-4.5 2.3-4.3 2.7-4 2.8-3.5 3.2-3.2 3.3-2.8 3.7-2.5 3.8-1.7 4-1.5 4-.8z" fill="#ffeec8"/><path d="m604.1 66.5h6l6.3.5 5.7 1 6 1 5.8 1.5 5.7 1.8 5.5 2 5.5 2.2 5.3 2.5 5.2 2.8 5 3 4.8 3.2 4.7 3.8 4.5 3.7 4.3 4 4.2 4 3.8 4.5 4 4.8 3.5 4.7 3.2 5 3 5 3 5.3 2.8 5.5 2.2 5.7 2.3 5.8 1.7 6 1.8 6 1.2 6 1 6.2.8 6.5.5 6.3.2 6.7-.2 6.5-.5 6.3-.8 6.5-1 6.2-1.2 6-1.8 6.3-1.7 5.7-2.3 5.8-2.2 5.7-2.8 5.5-3 5.3-3 5.2-3.2 4.8-3.5 5-4 4.5-3.8 4.5-4.2 4-4.3 4-4.5 4-4.7 3.5-4.8 3.2-5 3-5.2 2.8-5.3 2.7-5.5 2.3-5.5 2-5.7 1.5-5.8 1.5-6 1.2-5.7.8-6.3.5h-12l-6-.5-5.7-.8-5.8-1-5.7-1.5-5.5-1.5-5.5-2-5.3-2.2-5.2-2.3-5-2.7-5-3-4.8-3-4.5-3.5-4.5-3.5-4.2-3.8-4.3-4-3.7-4.2-3.8-4.5-3.7-4.5-3.3-4.8-3.2-5-2.8-5-2.7-5.2-2.5-5.5-2.3-5.5-2-5.8-1.7-5.7-1.5-6-1.3-6-1-6-.5-6.3-.5-6.2 2.5-1.3 2.5-1.2 2.3-1.5 2.2-1.8 2-1.7 1.8-2 1.7-2.3 1.8-2.2 1.5-2.5 1.2-2.5 1-2.5 1-2.8.8-3 .5-2.7.2-3 .3-3-.3-4-.5-3.8-.7-3.5-1.3-3.5-1.5-3.5-1.7-3-2-3-2.3-2.7 3.8-7.5 4.5-7.3 4.7-7 5.5-6.5 5.5-6 6-5.7 6.5-5.3 6.8-4.7 7-4.5 7.2-3.8 7.5-3.2 4-1.5 4-1.3 4-1.2 4-1 4.3-.8 4-.7 4.2-.5 4.3-.5 4.2-.3z" fill="#ffffc2"/><path d="m497.6 135.8 2.3 2.7 2 3 1.7 3 1.5 3.5 1.3 3.5.7 3.5.5 3.8.3 4-.3 3-.2 3-.5 2.7-.8 3-1 2.8-1 2.5-1.2 2.5-1.5 2.5-1.8 2.2-1.7 2.3-1.8 2-2 1.7-2.2 1.8-2.3 1.5-2.5 1.2-2.5 1.3v-5.3l.3-7.7.5-7.8 1-7.5 1.5-7.2 2-7.3 2.2-7 2.5-6.7z" fill="#ffffc2"/><path d="m471.4 124 3.7.3 3.8.5 3.5 1 3.5 1.5 3.2 1.5 3 2 2.8 2.5 2.7 2.5-3 6.5-2.5 6.7-2.2 7-2 7.3-1.5 7.2-1 7.5-.5 7.8-.3 7.7v5.3l-3 1-3.2 1-3.5.5h-7.3l-3.5-.8-3.5-1-3.2-1.2-3.3-1.5-3-2-2.7-2.3-2.8-2.5-2.2-2.7-2.3-3-1.7-3.3-1.5-3.2-1.3-3.5-.7-3.8-.8-3.7v-8l.8-3.8.7-3.7 1.3-3.8 1.5-3.2 1.7-3.3 2.3-3 2.2-2.7 2.8-2.5 2.7-2.3 3-1.7 3.3-1.8 3.2-1.2 3.5-1 3.5-.5zm-108.8 10.3h2.3l2.2.5 2.3.5 2 .7 2 1 1.7 1.3 1.8 1.5 1.7 1.5 1.3 1.7 1.5 1.8 1 2 1 2 .7 2.2.5 2.3.3 2.2.2 2.5-.2 2.5-.3 2.3-.5 2.5-.7 2-1 2.2-1 2-1.5 1.8-1.3 1.7-1.7 1.5-1.8 1.3-1.7 1.2-2 1-2 .8-2.3.7-2.2.3-2.3.2-2.2-.2-2.3-.3-2-.7-2.2-.8-2-1-1.8-1.2-1.7-1.3-1.5-1.5-1.5-1.7-1.3-1.8-1.2-2-.8-2.2-.7-2-.8-2.5-.2-2.3v-5l.2-2.2.8-2.3.7-2.2.8-2 1.2-2 1.3-1.8 1.5-1.7 1.5-1.5 1.7-1.5 1.8-1.3 2-1 2.2-.7 2-.5 2.3-.5z" fill="#ffffc2"/><g fill="none" stroke="#231f20" stroke-linecap="round" stroke-miterlimit="10"><path d="m497.6 135.8 3.8-7.5 4.5-7.3 4.7-7 5.5-6.5 5.5-6 6-5.7 6.5-5.3 6.8-4.7 7-4.5 7.2-3.8 7.5-3.2 4-1.5 4-1.3 4-1.2 4-1 4.3-.8 4-.7 4.2-.5 4.3-.5 4.2-.3h10.5l6.3.5 5.7 1 6 1 5.8 1.5 5.7 1.8 5.5 2 5.5 2.2 5.3 2.5 5.2 2.8 5 3 4.8 3.2 4.7 3.8 4.5 3.7 4.3 4 4.2 4 3.8 4.5 4 4.8 3.5 4.7 3.2 5 3 5 3 5.3 2.8 5.5 2.2 5.7 2.3 5.8 1.7 6 1.8 6 1.2 6 1 6.2.8 6.5.5 6.3.2 6.7-.2 6.5-.5 6.3-.8 6.5-1 6.2-1.2 6-1.8 6.3-1.7 5.7-2.3 5.8-2.2 5.7-2.8 5.5-3 5.3-3 5.2-3.2 4.8-3.5 5-4 4.5-3.8 4.5-4.2 4-4.3 4-4.5 4-4.7 3.5-4.8 3.2-5 3-5.2 2.8-5.3 2.7-5.5 2.3-5.5 2-5.7 1.5-5.8 1.5-6 1.2-5.7.8-6.3.5h-12l-6-.5-5.7-.8-5.8-1-5.7-1.5-5.5-1.5-5.5-2-5.3-2.2-5.2-2.3-5-2.7-5-3-4.8-3-4.5-3.5-4.5-3.5-4.2-3.8-4.3-4-3.7-4.2-3.8-4.5-3.7-4.5-3.3-4.8-3.2-5-2.8-5-2.7-5.2-2.5-5.5-2.3-5.5-2-5.8-1.7-5.7-1.5-6-1.3-6-1-6-.5-6.3-.5-6.2" stroke-width="21"/><path d="m497.6 135.8 2.3 2.7 2 3 1.7 3 1.5 3.5 1.3 3.5.7 3.5.5 3.8.3 4-.3 3-.2 3-.5 2.7-.8 3-1 2.8-1 2.5-1.2 2.5-1.5 2.5-1.8 2.2-1.7 2.3-1.8 2-2 1.7-2.2 1.8-2.3 1.5-2.5 1.2-2.5 1.3-3 1-3.2 1-3.5.5h-7.3l-3.5-.8-3.5-1-3.2-1.2-3.3-1.5-3-2-2.7-2.3-2.8-2.5-2.2-2.7-2.3-3-1.7-3.3-1.5-3.2-1.3-3.5-.7-3.8-.8-3.7v-8l.8-3.8.7-3.7 1.3-3.8 1.5-3.2 1.7-3.3 2.3-3 2.2-2.7 2.8-2.5 2.7-2.3 3-1.7 3.3-1.8 3.2-1.2 3.5-1 3.5-.5 3.8-.3 3.7.3 3.8.5 3.5 1 3.5 1.5 3.2 1.5 3 2 2.8 2.5z" stroke-width="21"/><path d="m385.1 158-.2 2.5-.3 2.3-.5 2.5-.7 2-1 2.2-1 2-1.5 1.8-1.3 1.7-1.7 1.5-1.8 1.3-1.7 1.2-2 1-2 .8-2.3.7-2.2.3-2.3.2-2.2-.2-2.3-.3-2-.7-2.2-.8-2-1-1.8-1.2-1.7-1.3-1.5-1.5-1.5-1.7-1.3-1.8-1.2-2-.8-2.2-.7-2-.8-2.5-.2-2.3v-5l.2-2.2.8-2.3.7-2.2.8-2 1.2-2 1.3-1.8 1.5-1.7 1.5-1.5 1.7-1.5 1.8-1.3 2-1 2.2-.7 2-.5 2.3-.5h4.5l2.2.5 2.3.5 2 .7 2 1 1.7 1.3 1.8 1.5 1.7 1.5 1.3 1.7 1.5 1.8 1 2 1 2 .7 2.2.5 2.3.3 2.2z" stroke-width="14"/><path d="m603.1 274.3v19m-41.5-138.3.3-4.7.5-4.8 1.2-4.5 1.5-4.5 1.8-4 2.2-4 2.8-3.7 2.7-3.3 3.3-3.2 3.5-2.8 3.5-2.2 4-2 4-1.8 4.5-1 4.2-.7 4.8-.3 4.5.3 4.5.7 4.2 1 4 1.8 4 2 3.8 2.2 3.2 2.8 3.3 3.2 3 3.3 2.5 3.7 2.2 4 1.8 4 1.5 4.5 1.2 4.5.5 4.8.3 4.7v3.8l-.5 3.5-.5 3.5-1 3.5-1 3.2-1.3 3.3-1.5 3-1.7 3-2 2.7-2 2.5-2.3 2.5-2.2 2.3-2.8 2.2-2.5 1.8-3 1.7-2.7 1.5-3.3 1.5-3.5 1.8-3.7 2.7-1.8 1.8-2 1.7-1.7 2-1.5 2.3-1.3 2.5-1.2 2.7-.5 3-.3 3-.2 4.5-.3 3.8-.2 4.7-.3 7.3" stroke-width="26.5"/><path d="m229.4 222.3-2.3-2-2.2-2-2-2.3-2-2.5-2-2.5-1.8-2.7-1.7-3-1.5-3-1.3-3.3-1.2-3.5-1-3.5-.8-3.5-.7-3.7-.5-3.8-.3-3.7v-4l.3-5.5.5-5.8 1-5.2 1.5-5 1.5-5 2.2-4.5 2.3-4.3 2.7-4 2.8-3.5 3.2-3.2 3.3-2.8 3.7-2.5 3.8-1.7 4-1.5 4-.8 4.2-.2 4 .2 4.3.8 3.7 1.5 3.8 1.7 3.7 2.5 3.3 2.8 3.2 3.2 3 3.5 2.5 4 2.5 4.3 2 4.5 1.8 5 1.2 5 1 5.2.8 5.8.2 5.5-.2 4-.3 3.7-.5 3.8-.7 3.7-.8 3.5-1 3.5-1.2 3.5-1.3 3.3-1.5 3-1.7 3-1.8 2.7-1.7 2.5-2 2.5-2.3 2.3-2.2 2-2.3 2-2.2 1.5-2.3 1.2-2.5 1.3-2.2 1-2.5.7-2.8.5-2.5.3-2.5.2-2.7-.2-2.5-.3-2.5-.5-2.5-.7-2.5-1-2.5-1.3-2.3-1.2z" stroke-width="14"/><path d="m314.1 428.5-4.7-80.7v-1.3" stroke-width="20"/><path d="m185.6 346v.8l-.7 13.2-1 25-1.3 30.5-.2 15.3-.3 14.2v6l-2.5 140.8-.7 50.7-.5 46-.3 35.8v12.2l.3 7.3h11.5l33.5-.3h2.7l23-239v1l21.8 238h49l-2.5-142-2.3-150-.2-6.5v-8.5l-.5-8v-2.5m-129.8 19h127.5m-190.2 20 .7-5.5 6.8-50.5 4.2-29.5 2-12.2 1.5-9.3 3-14.7 3-13.5 2.5-11.8 2.8-10.2 2.2-9 2.3-7.8 2-6.5 1.7-5.5 3-8 2.3-5 1.5-2.2.2-.8 3-2.5 3.3-2.7 4-2.5 4-2.5 8.7-5 9-4.5 9.8-4.3 7.5-3.2 3-1.3 1.2-.5" stroke-width="14"/><path d="m185.6 346.8-28.7 119.5-.3 1.2.5 1 .5 1.5.5 3.8.5 4.7v5.3l-.2 6.5-.5 6.5-.5 2.7-.8 2.5-.7 2-1 1.8h-.5l-.3-.3-.7-.5-.5-1-.5-1-.5-1.2-.5-1-1-.8-.8-.2h-.7l-.5 2-.5 2.5-1 5.7-.8 2.8-.7 2.5-.8 1-.5 1-.7.5-1 .5h-1.8l-2-.3-1.7-.5-1.8-1.2-1.7-1.3-1.5-1.2-1-1.5-1-1.5-1.3-3-1.5-4.3-1.7-5.2-1.5-6-1.5-6.5-.5-3.5-.3-3.3-.2-3.5v-7l.5-3.5m2.2-5.2 30.5 6m219.5.2-.7-5.7-7-50.5-4.3-29.5-3.2-21.3-2.8-15.5-2.7-13.7-2.3-12-2.5-10.5-2-9-2-7.8-1.7-6.5-1.8-5.2-2.7-7.8-2-4.5-1.3-2-.2-.5-2.5-2.2-2.8-2.3-3-2.2-3.2-2.3-7.3-4.2-7.7-4.3-7.5-4-7-3.5-10.8-5-3.5-1.2m30.8 114.7 28.7 119.5.3 1.3-.5 1-.3 1.5-.7 3.7-.3 4.8-.2 5.2.2 6.8.8 6.2.5 2.8.5 2.5.7 2.2 1 1.5h.5l.5-.2.5-.5.5-1 .5-1 .5-1.3.8-1 .7-.7.8-.3h.7l.5 2 .5 2.5 1 5.8.8 3 .7 2.5.8 1 .5.7 1 .5.7.5 2 .3 1.8-.3 2-.7 1.7-1 1.5-1.3 1.5-1.5 1.3-1.5.7-1.5 1.3-3 1.5-4.2 1.7-5.3 1.8-6 1.2-6.5.5-3.2.5-3.5v-10.5l-.5-3.3m-3.2-5.5-29.5 6m-61.3-231.7-.7 2.5-1 2.2-1.3 2.3-1.5 2-1.5 2-1.7 1.7-1.8 1.8-2 1.5-2.2 1.2-2.3 1.3-2.2.7-2.5 1-2.8.5-2.7.5-3 .3h-3l-2.5-.3-2.3-.2-2.5-.5-2.2-.5-2.3-.8-2.2-1-2-1-2-1.2-2-1.3-1.8-1.5-1.5-1.5-1.5-1.5-1.5-1.7-1.2-2-1-1.8-1-2" stroke-width="14"/><path d="m271.1 222.5.8 1.5 2.2 3.3 1.3 1.7 1.7 1.8 2 1.7 2 1 1.8.8m-55.3-10.3-.7 1.3-2.3 2.7-1.7 1.8-2 1.5-2.5 1.7-2.8 1.3" stroke-width="13.25"/><path d="m190.1 743.3-.2.5-3 6-3.3 6-3.5 6.2-3.5 6.3-.7 2-.5 1.7-.3 2 .3 1.8.5 1.7.7 1.5.8 1.5 1.2 1.5 1.3 1 1.2 1.3 1.5.7 1.5.8 1.5.5 1.8.5 1.5.2 1.2-.2 2-.3 1.8-.5 1.7-.7 1.5-.8 1.5-1 1.5-1 2.5-2.5 2-2.7 1.8-3.3 1.5-3 1.2-3.2 1-3 1.3-3 1.2-2.8 2-2.7.5-.5.8-.5 2-.3 2.2-.2 2-.3 1-.2.8-.5.5-.5.5-1v-2.8l-.5-2-1-2.2m86.7-.8 3 5.8 3.3 6 3.5 6 3.2 6 .8 2 .5 1.7.2 2-.2 1.8-.5 1.7-.8 1.5-.7 1.5-1.3 1.5-1.2 1-1.3 1.3-1.5.7-1.5.8-1.5.5-1.5.5-1.5.2-1.5-.2-1.7-.3-2-.5-1.5-.7-1.8-.8-1.5-1-1.2-1-2.5-2.5-2.3-2.7-1.7-3.3-1.5-3-1.3-3.2-1-3-1-3-1.5-2.8-1.7-2.7-.8-.5-.7-.3-2-.2h-2.3l-2-.3h-1l-.7-.5-.5-.5-.5-1v-2.5l.5-2 1-2.2" stroke-width="14"/></g></svg>