<svg height="850.394" viewBox="0 0 850.394 850.394" width="850.394" xmlns="http://www.w3.org/2000/svg"><path d="m347.56 503.4c-34.33 5.899-56.57-16-62.82-47.37l.34-2.42c69.87 9.739 137.03 6.26 137.03 6.26 79.13 0 150.01-4.51 225.94-28.26 49.75-15.561 86.03-37.061 105.76-60.45 21.851 15.04 29.221 24.02 24.7 48.45-2.08 11.291-12.81 26.86-26.08 34.69-5.22 3.09-10.84 4.97-16.479 4.91-53.34-.54-38.13 22.81-81.391 22.81-36.159 0-29.319 25.98-53.659 33.82-27.37 8.82-75.011-.16-89.24-8.14-52.641-29.521-68.63 21-96.66 9.88-14.19-5.63-23.2-19.14-38.22-21.23-11.591-1.62-18.871 5.28-29.221 7.05z" fill="#00e800"/><path d="m753.81 371.16c-19.729 23.39-56.01 44.89-105.76 60.45-75.93 23.75-146.81 28.26-225.94 28.26 0 0-67.16 3.479-137.03-6.26-1.98-.28-3.97-.57-5.96-.87-28.8-4.32-57.76-10.971-82.37-21.101-50.57-20.81-88.48-42.14-108.01-65.37-9.63-11.46-14.79-23.37-14.79-35.92 0-37.98 54.75-99.15 146.86-132.93 65.83-24.15 155.73-35.45 201.3-35.45l.58-.04c45.57 0 129.83 5.09 201.291 35.45 90.31 38.36 146.869 94.95 146.869 132.94 0 13.731-5.87 27.591-17.04 40.841zm-24.93-60.31c2.13-3.62-2-10-9.229-14.26-7.23-4.26-14.82-4.77-16.94-1.16-2.13 3.61 2 10 9.23 14.26 7.229 4.25 14.819 4.77 16.939 1.16zm-62.09 24.27c2.13-3.61-2.01-10-9.23-14.25-7.229-4.26-14.819-4.78-16.949-1.17-2.12 3.62 2.01 10 9.239 14.26 7.23 4.26 14.82 4.78 16.94 1.16zm-40.21-71.23c2.13-3.62-2.01-10-9.24-14.26-7.22-4.26-14.82-4.78-16.939-1.16-2.131 3.61 2 10 9.239 14.25 7.22 4.26 14.81 4.78 16.94 1.17zm-11.08 132.5c3.99-1.3 5.1-8.83 2.48-16.8-2.61-7.97-7.961-13.38-11.94-12.07-3.99 1.31-5.11 8.83-2.49 16.81 2.61 7.97 7.96 13.37 11.95 12.06zm-66.32-84.22c3.98-1.3 5.09-8.82 2.48-16.8-2.61-7.97-7.96-13.37-11.95-12.06-3.979 1.3-5.09 8.83-2.479 16.8 2.609 7.97 7.959 13.37 11.949 12.06zm-12.3-82.63c2.14-3.61-2-10-9.22-14.26-7.24-4.25-14.83-4.77-16.95-1.16-2.13 3.62 2.01 10 9.23 14.26 7.23 4.26 14.82 4.78 16.94 1.16zm-21.89 160.58c3.99-1.31 5.1-8.83 2.49-16.8s-7.971-13.38-11.95-12.07c-3.99 1.31-5.101 8.83-2.49 16.8 2.61 7.98 7.97 13.38 11.95 12.07zm-53.36-72.83c4.12-.79 6.18-8.12 4.59-16.35-1.59-8.24-6.22-14.28-10.34-13.48-4.12.79-6.17 8.12-4.59 16.35 1.59 8.24 6.22 14.28 10.34 13.48zm-7.82-69.7c4.131-.79 6.181-8.11 4.591-16.35-1.591-8.24-6.221-14.28-10.341-13.48-4.109.79-6.17 8.12-4.579 16.36 1.589 8.23 6.219 14.27 10.329 13.47zm-22.13 140.99c1.59-8.23-.47-15.56-4.58-16.35-4.12-.8-8.75 5.24-10.34 13.47-1.59 8.24.46 15.56 4.58 16.36s8.75-5.24 10.34-13.48zm-29.77-151.52c1.59-8.24-.46-15.57-4.58-16.36s-8.75 5.24-10.34 13.48c-1.58 8.24.47 15.56 4.59 16.35 4.12.8 8.75-5.23 10.33-13.47zm-7.81 69.7c1.59-8.24-.47-15.57-4.58-16.36-4.12-.8-8.75 5.24-10.34 13.48s.46 15.56 4.58 16.35c4.12.8 8.75-5.24 10.34-13.47zm-51.75 74.23c2.61-7.97 1.5-15.49-2.48-16.8-3.99-1.31-9.34 4.1-11.95 12.07-2.62 7.97-1.51 15.49 2.48 16.8 3.98 1.31 9.34-4.09 11.95-12.07zm-16.9-149.67c7.23-4.26 11.36-10.64 9.23-14.26-2.12-3.61-9.71-3.09-16.94 1.17-7.23 4.25-11.36 10.64-9.23 14.25 2.12 3.62 9.71 3.1 16.94-1.16zm-17.28 71.73c2.61-7.97 1.5-15.5-2.49-16.8-3.98-1.31-9.34 4.09-11.95 12.06-2.61 7.98-1.5 15.5 2.49 16.81 3.98 1.31 9.33-4.1 11.95-12.07zm-72.41-37.38c7.23-4.26 11.36-10.65 9.23-14.26-2.12-3.61-9.71-3.1-16.94 1.16s-11.36 10.64-9.24 14.26c2.13 3.61 9.72 3.09 16.95-1.16zm6.08 121.6c2.62-7.97 1.5-15.5-2.48-16.81-3.99-1.31-9.34 4.1-11.95 12.07-2.62 7.97-1.5 15.5 2.48 16.8 3.99 1.31 9.34-4.09 11.95-12.06zm-46.3-50.37c7.23-4.26 11.37-10.64 9.24-14.25-2.13-3.62-9.71-3.1-16.94 1.16-7.23 4.25-11.37 10.64-9.24 14.25 2.13 3.62 9.71 3.1 16.94-1.16zm-62.09-24.27c7.23-4.26 11.37-10.64 9.24-14.26-2.13-3.61-9.72-3.09-16.94 1.16-7.23 4.26-11.37 10.65-9.24 14.26 2.12 3.61 9.71 3.1 16.94-1.16z" fill="#ffeec8"/><path d="m88.05 496.22c-3.64-6.3-5.54-12.79-5.54-19.42 0-13.5 5.68-25.78 20.06-37.689.34.109.67.22.99.33 17.06 5.739 9.33 16.619 22.21 30.05 15.99 16.68 48.42.979 64.85 12.31 24.32 16.78 34.04 18.45 61.54 8.57 18.46-6.64 24.81-18.79 26.89-37.18l.07-.45c1.99.3 3.98.59 5.96.87l-.34 2.42c6.25 31.37 28.49 53.27 62.82 47.37 10.35-1.771 17.63-8.67 29.22-7.051 15.02 2.091 24.03 15.601 38.22 21.23 28.03 11.12 44.02-39.4 96.66-9.88 14.229 7.979 61.87 16.96 89.24 8.14 24.34-7.84 17.5-33.82 53.659-33.82 43.261 0 28.051-23.35 81.391-22.81 5.64.06 11.26-1.82 16.479-4.91 4.99 7.33 11.09 20.04 11.09 27.851 0 7.92-2.609 15.55-7.579 22.83-32.44 47.489-165.49 79.84-329.98 79.84-168.6-.001-308.83-38.211-337.91-88.601z" fill="#9e5b16"/><path d="m755.94 504.98 1.369.26c-4.02 24.8-6.52 97.08-55.72 130.52-47.51 32.28-115.479 46.55-209.17 51.62-28.16 1.521-98.49 2.51-126.64.99-93.69-5.07-149.23-16.55-215.7-48.84-71.309-34.64-62.039-123.65-62.029-143.31 29.08 50.391 169.31 88.601 337.91 88.601 164.49-.001 297.54-32.351 329.98-79.841z" fill="#ffeec8"/><path d="m719.65 296.59c7.229 4.26 11.359 10.64 9.229 14.26-2.12 3.61-9.71 3.09-16.939-1.16-7.23-4.26-11.36-10.65-9.23-14.26 2.12-3.61 9.71-3.1 16.94 1.16zm-62.09 24.28c7.221 4.25 11.36 10.64 9.23 14.25-2.12 3.62-9.71 3.1-16.94-1.16-7.229-4.26-11.359-10.64-9.239-14.26 2.129-3.61 9.719-3.09 16.949 1.17zm-40.22-71.24c7.23 4.26 11.37 10.64 9.24 14.26-2.13 3.61-9.72 3.09-16.94-1.17-7.239-4.25-11.37-10.64-9.239-14.25 2.119-3.62 9.719-3.1 16.939 1.16zm.64 129.96c2.619 7.97 1.51 15.5-2.48 16.8-3.99 1.31-9.34-4.09-11.95-12.06-2.62-7.98-1.5-15.5 2.49-16.81 3.98-1.31 9.33 4.1 11.94 12.07zm-66.32-84.22c2.609 7.98 1.5 15.5-2.48 16.8-3.989 1.31-9.34-4.09-11.949-12.06-2.61-7.97-1.5-15.5 2.479-16.8 3.99-1.31 9.34 4.09 11.95 12.06zm-24-80.09c7.22 4.26 11.359 10.65 9.22 14.26-2.12 3.62-9.71 3.1-16.939-1.16-7.221-4.26-11.36-10.64-9.23-14.26 2.119-3.61 9.709-3.09 16.949 1.16zm-10.18 158.04c2.609 7.97 1.5 15.49-2.49 16.8-3.98 1.31-9.34-4.09-11.95-12.07-2.61-7.97-1.5-15.49 2.49-16.8 3.98-1.31 9.34 4.1 11.95 12.07zm-51.26-72.38c1.59 8.23-.47 15.56-4.59 16.35-4.12.8-8.75-5.24-10.34-13.48-1.58-8.23.47-15.56 4.59-16.35 4.12-.8 8.75 5.24 10.34 13.48zm-7.82-69.7c1.59 8.24-.46 15.56-4.591 16.35-4.109.8-8.739-5.24-10.329-13.47-1.591-8.24.47-15.57 4.579-16.36 4.121-.8 8.751 5.24 10.341 13.48zm-31.3 140.99c4.11.79 6.17 8.12 4.58 16.35-1.59 8.24-6.22 14.28-10.34 13.48s-6.17-8.12-4.58-16.36c1.59-8.23 6.22-14.27 10.34-13.47zm-29.77-151.53c4.12.79 6.17 8.12 4.58 16.36-1.58 8.24-6.21 14.27-10.33 13.47-4.12-.79-6.17-8.11-4.59-16.35 1.59-8.24 6.22-14.27 10.34-13.48zm-7.81 69.7c4.11.79 6.17 8.12 4.58 16.36-1.59 8.23-6.22 14.27-10.34 13.47-4.12-.79-6.17-8.11-4.58-16.35s6.22-14.28 10.34-13.48zm-49.65 73.79c3.98 1.31 5.09 8.83 2.48 16.8-2.61 7.98-7.97 13.38-11.95 12.07-3.99-1.31-5.1-8.83-2.48-16.8 2.61-7.97 7.96-13.38 11.95-12.07zm-5.19-147.13c2.13 3.62-2 10-9.23 14.26s-14.82 4.78-16.94 1.16c-2.13-3.61 2-10 9.23-14.25 7.23-4.26 14.82-4.78 16.94-1.17zm-29 69.19c3.99 1.3 5.1 8.83 2.49 16.8-2.62 7.97-7.97 13.38-11.95 12.07-3.99-1.31-5.1-8.83-2.49-16.81 2.61-7.97 7.97-13.37 11.95-12.06z" fill="#f6cc4b"/><path d="m279.12 452.74-.07.45c-2.08 18.39-8.43 30.54-26.89 37.18-27.5 9.88-37.22 8.21-61.54-8.57-16.43-11.33-48.86 4.37-64.85-12.31-12.88-13.431-5.15-24.311-22.21-30.05-.32-.11-.65-.221-.99-.33-9.27-3.091-23.18-7.391-26.87-11.431-9.72-10.64-25.95-43.979 13.04-61.41 19.53 23.23 57.44 44.56 108.01 65.37 24.61 10.131 53.57 16.781 82.37 21.101z" fill="#00e800"/><path d="m244.99 251.41c2.13 3.61-2 10-9.23 14.26-7.23 4.25-14.82 4.77-16.95 1.16-2.12-3.62 2.01-10 9.24-14.26s14.82-4.77 16.94-1.16zm-5.63 119.05c3.98 1.31 5.1 8.84 2.48 16.81-2.61 7.97-7.96 13.37-11.95 12.06-3.98-1.3-5.1-8.83-2.48-16.8 2.61-7.97 7.96-13.38 11.95-12.07zm-34.58-47.81c2.13 3.61-2.01 9.99-9.24 14.25s-14.81 4.78-16.94 1.16c-2.13-3.61 2.01-10 9.24-14.25 7.23-4.26 14.81-4.78 16.94-1.16zm-62.09-24.28c2.13 3.62-2.01 10-9.24 14.26s-14.82 4.77-16.94 1.16c-2.13-3.61 2.01-10 9.24-14.26 7.22-4.25 14.81-4.77 16.94-1.16z" fill="#f6cc4b"/><g fill="none"><g stroke="#000"><path d="m285.08 453.61c69.87 9.739 137.03 6.26 137.03 6.26 79.13 0 150.01-4.51 225.94-28.26 49.75-15.561 86.03-37.061 105.76-60.45 11.171-13.25 17.04-27.11 17.04-40.84 0-37.99-56.56-94.58-146.869-132.94-71.461-30.36-155.721-35.45-201.291-35.45l-.58.04c-45.57 0-135.47 11.3-201.3 35.45-92.11 33.78-146.86 94.95-146.86 132.93 0 12.55 5.16 24.46 14.79 35.92 19.53 23.23 57.44 44.56 108.01 65.37 24.61 10.13 53.57 16.78 82.37 21.101 1.99.299 3.98.589 5.96.869zm-197.03 42.59v.02c-.01 19.66-9.28 108.67 62.03 143.311 66.47 32.29 122.01 43.77 215.7 48.84 28.15 1.52 98.48.53 126.64-.99 93.69-5.07 161.66-19.34 209.17-51.62 49.2-33.439 51.7-105.72 55.72-130.52" stroke-width="22.789"/><path d="m195.54 336.9c-7.23 4.26-14.81 4.78-16.94 1.16-2.13-3.61 2.01-10 9.24-14.25 7.23-4.26 14.81-4.78 16.94-1.16 2.13 3.61-2.01 9.99-9.24 14.25zm-62.09-24.27c-7.23 4.26-14.82 4.77-16.94 1.16-2.13-3.61 2.01-10 9.24-14.26 7.22-4.25 14.81-4.77 16.94-1.16 2.13 3.62-2.01 10-9.24 14.26zm102.31-46.96c-7.23 4.25-14.82 4.77-16.95 1.16-2.12-3.62 2.01-10 9.24-14.26s14.82-4.77 16.94-1.16c2.13 3.61-2 10-9.23 14.26zm89.69-34.35c-7.23 4.26-14.82 4.78-16.94 1.16-2.13-3.61 2-10 9.23-14.25 7.23-4.26 14.82-4.78 16.94-1.17 2.13 3.62-2 10-9.23 14.26zm68.65 75.44c-1.59 8.23-6.22 14.27-10.34 13.47-4.12-.79-6.17-8.11-4.58-16.35s6.22-14.28 10.34-13.48c4.11.79 6.17 8.12 4.58 16.36zm37.58 81.82c-1.59 8.24-6.22 14.28-10.34 13.48s-6.17-8.12-4.58-16.36c1.59-8.23 6.22-14.27 10.34-13.47 4.11.79 6.17 8.12 4.58 16.35zm-29.77-151.52c-1.58 8.24-6.21 14.27-10.33 13.47-4.12-.79-6.17-8.11-4.59-16.35 1.59-8.24 6.22-14.27 10.34-13.48s6.17 8.12 4.58 16.36zm-160.07 150.21c-2.61 7.97-7.96 13.37-11.95 12.06-3.98-1.3-5.1-8.83-2.48-16.8 2.61-7.97 7.96-13.38 11.95-12.07 3.98 1.31 5.1 8.84 2.48 16.81zm100.51-6.28c-2.61 7.98-7.97 13.38-11.95 12.07-3.99-1.31-5.1-8.83-2.48-16.8 2.61-7.97 7.96-13.38 11.95-12.07 3.98 1.31 5.09 8.83 2.48 16.8zm-34.18-77.94c-2.62 7.97-7.97 13.38-11.95 12.07-3.99-1.31-5.1-8.83-2.49-16.81 2.61-7.97 7.97-13.37 11.95-12.06 3.99 1.3 5.1 8.83 2.49 16.8zm341.68 30.91c7.23 4.26 14.82 4.78 16.94 1.16 2.13-3.61-2.01-10-9.23-14.25-7.229-4.26-14.819-4.78-16.949-1.17-2.121 3.62 2.009 10 9.239 14.26zm62.09-24.27c7.229 4.25 14.819 4.77 16.939 1.16 2.13-3.62-2-10-9.229-14.26-7.23-4.26-14.82-4.77-16.94-1.16-2.13 3.61 2 10 9.23 14.26zm-102.3-46.97c7.221 4.26 14.811 4.78 16.94 1.17 2.13-3.62-2.01-10-9.24-14.26-7.22-4.26-14.82-4.78-16.939-1.16-2.131 3.61 1.999 10 9.239 14.25zm-89.7-34.34c7.229 4.26 14.819 4.78 16.939 1.16 2.14-3.61-2-10-9.22-14.26-7.24-4.25-14.83-4.77-16.95-1.16-2.129 3.62 2.011 10 9.231 14.26zm-68.65 75.43c1.59 8.24 6.22 14.28 10.34 13.48 4.12-.79 6.18-8.12 4.59-16.35-1.59-8.24-6.22-14.28-10.34-13.48-4.12.79-6.17 8.12-4.59 16.35zm-7.81-69.69c1.59 8.23 6.22 14.27 10.329 13.47 4.131-.79 6.181-8.11 4.591-16.35-1.591-8.24-6.221-14.28-10.341-13.48-4.109.79-6.169 8.12-4.579 16.36zm160.07 150.21c2.61 7.97 7.96 13.37 11.95 12.06 3.99-1.3 5.1-8.83 2.48-16.8-2.61-7.97-7.961-13.38-11.94-12.07-3.99 1.31-5.11 8.83-2.49 16.81zm-100.51-6.28c2.61 7.98 7.97 13.38 11.95 12.07 3.99-1.31 5.1-8.83 2.49-16.8s-7.971-13.38-11.95-12.07c-3.99 1.31-5.1 8.83-2.49 16.8zm34.19-77.94c2.609 7.97 7.96 13.37 11.949 12.06 3.98-1.3 5.09-8.82 2.48-16.8-2.61-7.97-7.96-13.37-11.95-12.06-3.979 1.3-5.089 8.83-2.479 16.8z" stroke-width="7.596"/><g stroke-width="22.789"><path d="m88.74 366.27c-38.99 17.43-22.76 50.77-13.04 61.41 3.69 4.04 17.6 8.34 26.87 11.431.34.109.67.22.99.33 17.06 5.739 9.33 16.619 22.21 30.05 15.99 16.68 48.42.979 64.85 12.31 24.32 16.78 34.04 18.45 61.54 8.57 18.46-6.64 24.81-18.79 26.89-37.18m5.69 2.839c6.25 31.37 28.49 53.27 62.82 47.37 10.35-1.771 17.63-8.67 29.22-7.051 15.02 2.091 24.03 15.601 38.22 21.23 28.03 11.12 44.02-39.4 96.66-9.88 14.229 7.979 61.87 16.96 89.24 8.14 24.34-7.84 17.5-33.82 53.659-33.82 43.261 0 28.051-23.35 81.391-22.81 5.64.06 11.26-1.82 16.479-4.91 13.271-7.83 24-23.399 26.08-34.69 4.521-24.43-2.85-33.41-24.7-48.45"/><path d="m752.43 454.3c4.99 7.33 11.09 20.04 11.09 27.851 0 7.92-2.609 15.55-7.579 22.83-32.44 47.489-165.49 79.84-329.98 79.84-168.6 0-308.83-38.21-337.91-88.601-3.64-6.3-5.54-12.79-5.54-19.42 0-13.5 5.68-25.78 20.06-37.689"/></g></g><path d="m0 0h850.394v850.394h-850.394z"/></g></svg>