<svg height="850.394" viewBox="0 0 850.394 850.394" width="850.394" xmlns="http://www.w3.org/2000/svg"><path d="m534.26 184.98v-108.4l109.87-21.55v147.67zm0 0c-40.76 8.86-35.979 61.05-35.979 61.05-1.66-1.53-2.851-2.01-2.851-2.01l-85.17.05s-2.48.99-5.25 4.71c0 0-.71-59.07-38.52-86.25-37.8-27.17-176.32 0-176.32 0s75.31-63.79 183.41-85.95c108.1-22.15 160.68 0 160.68 0z" fill="#c8c8c8"/><path d="m520.87 722.52c8.939 61.04-22.46 76.021-68.38 76.021-46.66 0-76.68-14.41-67.67-75.96 11.13-76.04 12.72-412.61 12.72-443.02 0-16.99 3.97-26.07 7.47-30.78 2.77-3.72 5.25-4.71 5.25-4.71l85.17-.05s1.19.48 2.851 2.01c3.75 3.47 9.87 12.38 9.87 33.48-.001 30.409 1.589 366.979 12.719 443.009z" fill="#787878"/><g fill="none"><g stroke="#000" stroke-width="21.265"><path d="m405.01 248.78c-3.5 4.71-7.47 13.79-7.47 30.78 0 30.41-1.59 366.98-12.72 443.02-9.01 61.55 21.01 75.96 67.67 75.96 45.92 0 77.319-14.98 68.38-76.021-11.13-76.029-12.72-412.6-12.72-443.01 0-21.1-6.12-30.01-9.87-33.48-1.66-1.53-2.851-2.01-2.851-2.01l-85.17.05c.001.001-2.479.991-5.249 4.711z"/><path d="m405.01 248.78s-.71-59.07-38.52-86.25c-37.8-27.17-176.32 0-176.32 0s75.31-63.79 183.41-85.95c108.1-22.15 160.68 0 160.68 0m-35.98 169.45s-4.78-52.19 35.979-61.05m.001-108.4 109.87-21.55v147.67l-109.87-17.72v-66.16z"/></g><path d="m0 0h850.394v850.394h-850.394z"/></g></svg>