<svg height="850.894" viewBox="0 0 850.894 850.894" width="850.894" xmlns="http://www.w3.org/2000/svg"><path d="m530.42 466.45-.4-2.82c-.05-15.67-5.279-62.46 2.711-86.5 8-24.07 1.52-55.1-5.771-71.41-7.25-16.33-20.7-32.86-28.06-56.14-7.381-23.26-6.261-31.54-9.851-36.24-3.58-4.69-10.28-5.12-16.359 1.62-6.091 6.74-8.841 25.26 2.52 48.7 9.38 19.35 5.9 27.32 5.9 27.32-.32 4.64-6.54 2.8-13.82-1.59-6.06-3.65-12.87-9.09-17.57-13.99-10.31-10.77-31.39-37.84-34.7-47.43-3.33-9.6-11.48-40.41-15.87-58.3-4.4-17.9-18.25-9.86-18.25-9.86l-2.8.09c-.44-3.81-.89-7.41-1.34-10.66-1.71-12.12-15.67-12.17-17.63-.51-.3 1.78-.67 9.47-1.02 19.54l-.93-.03c-.22-11.68-17.78-10.9-19.22 3.18-.3 2.8-1.06 13.06-1.86 25.16h-.07c-2.21-7.86-13.52-7.78-15.16 2.46-1.49 9.06-6.05 44.64-6.73 56.25-.69 11.6 17.27 70.82 24.71 85.34 7.43 14.54 57.03 46.52 57.03 46.52 21.64 18.54 30.02 19 42.4 44.84 5.87 12.2 9.319 29.279 8.92 47.88.189 6.77 20.399 7.149 48.81 1.54 22.88-4.53 32.78-9.391 35.11-14.521zm81.55-363.82-64.97 548.82h-.54l-223.78-.45h-.55l-64.96-548.37z" fill="#fff"/><path d="m358.11 168.27c.35-10.07.72-17.76 1.02-19.54 1.96-11.66 15.92-11.61 17.63.51.45 3.25.9 6.85 1.34 10.66l2.8-.09s13.85-8.04 18.25 9.86c4.39 17.89 12.54 48.7 15.87 58.3 3.31 9.59 24.39 36.66 34.7 47.43 4.7 4.9 11.511 10.34 17.57 13.99 7.28 4.39 13.5 6.23 13.82 1.59 0 0 3.479-7.97-5.9-27.32-11.36-23.44-8.61-41.96-2.52-48.7 6.079-6.74 12.779-6.31 16.359-1.62 3.59 4.7 2.47 12.98 9.851 36.24 7.359 23.28 20.81 39.81 28.06 56.14 7.29 16.31 13.771 47.34 5.771 71.41-7.99 24.04-2.761 70.83-2.711 86.5l.4 2.82.7.439c-2.33 5.13-12.23 9.99-35.11 14.521-28.41 5.609-48.62 5.229-48.81-1.54.399-18.601-3.05-35.68-8.92-47.88-12.38-25.84-20.76-26.3-42.4-44.84 0 0-49.6-31.98-57.03-46.52-7.44-14.52-25.4-73.74-24.71-85.34.68-11.61 5.24-47.19 6.73-56.25 1.64-10.24 12.95-10.32 15.16-2.46h.07c.8-12.1 1.56-22.36 1.86-25.16 1.44-14.08 19-14.86 19.22-3.18z" fill="#ffeec8"/><path d="m546.46 651.45v121.15c0 5.631-6.52 10.2-14.52 10.2l-194.75-.45c-8.01 0-14.51-4.56-14.51-10.199v-121.151z" fill="#0b00ea"/><path d="m618.03 65.69v36.94h-369.36v-36.94z" fill="#fff"/><g fill="none"><g stroke="#000"><path d="m257.17 102.63h-8.5v-36.94h369.36v36.94h-6.06zm354.8 0-64.97 548.82h-.54l-223.78-.45h-.55l-64.96-548.37" stroke-width="20.147"/><path d="m546.46 651.45v121.15c0 5.631-6.52 10.2-14.52 10.2l-194.75-.45c-8.01 0-14.51-4.56-14.51-10.199v-121.151" stroke-width="20.147"/><g stroke-miterlimit="10" stroke-width="13.431"><path d="m356.06 305.55s-21.25-53.14-22.19-58.86c-.59-3.62.87-29.53 2.23-50.11.8-12.1 1.56-22.36 1.86-25.16 1.44-14.08 19-14.86 19.22-3.18m27.5 129.15s-26.33-59.43-27.35-64.26c-.72-3.41-.04-40.89.78-64.86.35-10.07.72-17.76 1.02-19.54 1.96-11.66 15.92-11.61 17.63.51.45 3.25.9 6.85 1.34 10.66 1.88 16.5 3.41 37.04 3.44 51.55 0 17.86 3.2 24.88 8.26 33.36 5.07 8.5 19.04 37.46 19.04 37.46m58.45 7.12c7.28 4.39 13.5 6.23 13.82 1.59 0 0 3.479-7.97-5.9-27.32-11.36-23.44-8.61-41.96-2.52-48.7 6.079-6.74 12.779-6.31 16.359-1.62 3.59 4.7 2.47 12.98 9.851 36.24 7.359 23.28 20.81 39.81 28.06 56.14 7.29 16.31 13.771 47.34 5.771 71.41-7.99 24.04-2.761 70.83-2.711 86.5l.4 2.82m-149.52-306.64s13.85-8.04 18.25 9.86c4.39 17.89 12.54 48.7 15.87 58.3 3.31 9.59 24.39 36.66 34.7 47.43 4.7 4.9 11.511 10.34 17.57 13.99"/><path d="m338.85 340.63c-7.44-14.52-25.4-73.74-24.71-85.34.68-11.61 5.24-47.19 6.73-56.25 1.64-10.24 12.95-10.32 15.16-2.46m111.17 283.29c.399-18.601-3.05-35.68-8.92-47.88-12.38-25.84-20.76-26.3-42.4-44.84 0 0-49.6-31.98-57.03-46.52"/></g></g><path d="m.25.25h850.394v850.394h-850.394z"/></g></svg>