<svg height="850.394" viewBox="0 0 850.394 850.394" width="850.394" xmlns="http://www.w3.org/2000/svg"><path d="m566.59 304.71c7.271-5.71 13.7 3.06 5.521 7.12l.04.25c-5.591.85-7.69-3.74-6.61-7.64z" fill="#c8c8c8"/><path d="m746.28 209.6-11.33 5h-56.391s13.44-14.59 22.79-14.59v-.01z" fill="#ed1e29"/><path d="m668.11 306.41-20.15-3.22-42.34-6.77-21.22-3.4-54.46-8.71.899-.24s9.13-9.66 23.101-15.45c13.96-5.8 39.25-6.33 39.25-6.33l150.32 48.61-6.52 6.53z" fill="#c8c8c8"/><path d="m561.42 229.84 97.38-26.83 49.01-54.01 15.551-3.17-23.98 53.75 1.97.42v.01c-9.35 0-22.79 14.59-22.79 14.59h8.171v1.15c-6.261 10.77-16.601 16.95-33.2 23.89-13.511 5.64-60.34 22.65-60.34 22.65s-25.29.53-39.25 6.33c-13.971 5.79-23.101 15.45-23.101 15.45l-.899.24-72.44 19.35s-19.49 0-29.24-1.58c-9.76-1.59-16.46-3.58-7.91-15.02 2.99-4.01 6.12-7.95 9.34-11.54l.67.6s3.56 3.57 9.88 3.57c6.33 0 13.83-3.3 13.83-3.3l-1.061-2.37s-7.63 1.58-10.92 1.58c-3.3 0-6.46-4.62-6.46-4.62l-.76-.81c4.43-4.18 9.01-7.48 13.67-9.2 9.24-3.39 43.99-13.07 67.729-18.89 2.011-.49 3.95-.96 5.78-1.39z" fill="#c8c8c8"/><path d="m719.55 439.28-1.439 22.96v-14.09h-107.641v-26.95l.641-2.08c58.359 17.61 90.639 20.22 108.439 20.16zm-109.08 226.79h107.641v43.54h-107.641zm0-43.65h107.641v43.65h-107.641zm0-43.54h107.641v43.54h-107.641zm0-43.53h107.641v43.53h-107.641zm0-43.66h107.641v43.659h-107.641z" fill="#a8d7f4"/><path d="m718.11 462.24v29.45h-107.64v-43.54h107.64z" fill="#a8d7f4"/><path d="m647.96 303.19 20.15 3.22c-8.24 3.41-20.53 10.6-27.181 13.38 1.03-1.74.86-4.41-.29-6.06-2.199-3.17-6.21-2.26-8.979-.58l-.79-.27c.11-.31.229-.62.38-.91.71-1.41 10.55-6.37 16.71-8.78z" fill="#c8c8c8"/><path d="m640.64 313.73c1.15 1.65 1.32 4.32.29 6.06-1.189.49-2.189.84-2.96 1.01-6.25 1.35-8.51-3.8-7.1-7.92l.79.27c2.77-1.68 6.78-2.59 8.98.58z" fill="#c8c8c8"/><path d="m611.11 419.11v.01l-.641 2.08v26.95h-95.81v-48.52l.14-1.11c28.38 3.53 59.79 9.29 89.88 18.63 2.181.68 4.321 1.33 6.431 1.96zm-.64 246.96v43.54h-95.81v-2.92h2.4v-40.62zm-93.41-43.65h93.41v43.65h-93.41zm93.41-43.54v43.54h-93.41v-41.98h-2.4v-1.56zm-95.81-43.53h95.81v43.53h-95.81zm0-43.66h95.81v43.659h-95.81zm0-43.54h95.81v43.54h-95.81z" fill="#a8d7f4"/><path d="m584.4 293.02 21.22 3.4c-6.851 0-26.13 14.09-32.84 15.54-.21.05-.431.09-.63.12l-.04-.25c8.18-4.06 1.75-12.83-5.521-7.12l-1.05-.27c.13-.45.3-.89.51-1.31.941-1.89 18.351-10.11 18.351-10.11zm-32.84-131.91 9.86 68.73-39.37 10.85c-1.83.43-3.77.9-5.78 1.39l-.02-1.13s2.82-9.19 6.59-21.08c1.24-3.91 2.59-8.12 3.97-12.38 5.98-18.54 12.641-38.21 14.48-40.05 3.55-3.56 10.27-6.33 10.27-6.33z" fill="#c8c8c8"/><path d="m526.8 207.49h.01c-1.38 4.26-2.729 8.47-3.97 12.38l-5.14 1.71c-4.601 0-6.181-6.19-4.34-8.03 1.84-1.84 13.44-6.06 13.44-6.06z" fill="#c8c8c8"/><path d="m514.66 666.07h2.399v40.62h-2.399zm0-43.65h2.399v43.65h-2.399zm0-41.98h2.399v41.979h-2.399z" fill="#231f20"/><path d="m514.8 398.52-.14 1.11v48.521h-95.97v-53.9l-.01-1.11c11.26-.211 49.64-.411 96.12 5.379z" fill="#a8d7f4"/><path d="m418.69 666.07h95.97v40.62h-95.97zm0-43.65h95.97v43.65h-95.97zm0-41.98h95.97v41.979h-95.97z" fill="#231f20"/><path d="m418.69 535.35h95.97v43.53h-95.97zm0-43.66h95.97v43.659h-95.97zm0-43.54h95.97v43.54h-95.97z" fill="#a8d7f4"/><path d="m323.67 666.07h95.02v40.62h-95.02zm0-43.65h95.02v43.65h-95.02zm0-41.98h95.02v41.979h-95.02z" fill="#231f20"/><path d="m322.73 535.35h95.96v43.53h-95.96zm0-43.66h95.96v43.659h-95.96zm0-43.54h95.96v43.54h-95.96zm95.96-53.9v53.9h-95.96v-48.52l-.17-1.4c52.62-6.57 92.77-5 92.77-5s1.16-.04 3.35-.09zm-191.77 271.82h95.81v43.54h-95.81zm0-43.65h95.81v43.65h-95.81zm0-43.54h95.81v43.54h-95.81zm0-43.53h95.81v43.53h-95.81zm0-43.66h95.81v43.659h-95.81zm0-43.54h95.81v43.54h-95.81z" fill="#a8d7f4"/><path d="m322.73 399.63v48.521h-95.81v-29.43c1.68-.51 3.39-1.03 5.11-1.57 30.92-9.6 62.49-15.42 90.53-18.92zm-204.18 266.44h108.37v43.54h-108.37zm0-43.65h108.37v43.65h-108.37zm0-43.54h108.37v43.54h-108.37zm0-43.53h108.37v43.53h-108.37zm0-43.66h108.37v43.659h-108.37zm0-43.54h108.37v43.54h-108.37zm0 0h-1.48l-.52-8.87c18.13.06 51.11-2.57 110.37-20.56v29.43z" fill="#a8d7f4"/><g fill="none"><g stroke="#231f20"><g stroke-width="7"><path d="m516.25 240.95s2.82-9.19 6.59-21.08c1.24-3.91 2.59-8.12 3.97-12.38 5.98-18.54 12.641-38.21 14.48-40.05 3.55-3.56 10.27-6.33 10.27-6.33l9.86 68.73.16 1.1"/><path d="m686.73 215.75c-6.261 10.77-16.601 16.95-33.2 23.89-13.511 5.64-60.34 22.65-60.34 22.65s-25.29.53-39.25 6.33c-13.971 5.79-23.101 15.45-23.101 15.45l-.899.24-72.44 19.35s-19.49 0-29.24-1.58c-9.76-1.59-16.46-3.58-7.91-15.02 2.99-4.01 6.12-7.95 9.34-11.54a94.03 94.03 0 0 1 5.18-5.35c4.43-4.18 9.01-7.48 13.67-9.2 9.24-3.39 43.99-13.07 67.729-18.89 2.011-.49 3.95-.96 5.78-1.39l39.37-10.85 97.38-26.83 49.011-54.01 15.551-3.17-23.98 53.75 1.97.42 44.931 9.6-11.33 5h-56.391s13.44-14.59 22.79-14.59"/><path d="m593.19 262.29 150.32 48.61-6.52 6.53-68.88-11.02-20.15-3.22-42.34-6.77-21.22-3.4-54.46-8.71m-3.14-76.82s-11.6 4.22-13.439 6.06c-1.841 1.84-.261 8.03 4.34 8.03l5.14-1.71"/><path d="m584.4 293.02s-17.41 8.22-18.351 10.11c-.21.42-.38.86-.51 1.31-1.08 3.9 1.02 8.49 6.61 7.64.199-.03.42-.07.63-.12 6.71-1.45 25.989-15.54 32.84-15.54m42.341 6.77c-6.16 2.41-16 7.37-16.71 8.78-.15.29-.27.6-.38.91-1.41 4.12.85 9.27 7.1 7.92.771-.17 1.771-.52 2.96-1.01 6.65-2.78 18.94-9.97 27.181-13.38.189-.08.38-.16.56-.23m-102.081-1.47c7.271-5.71 13.7 3.06 5.521 7.12"/><path d="m631.66 313.15c2.77-1.68 6.78-2.59 8.979.58 1.15 1.65 1.32 4.32.29 6.06-.17.27-.359.52-.58.74"/></g><path d="m435.63 270.98s3.16 4.62 6.46 4.62c3.29 0 10.92-1.58 10.92-1.58l1.061 2.37s-7.5 3.3-13.83 3.3c-6.32 0-9.88-3.57-9.88-3.57" stroke-width="11.677"/><path d="m716.09 448.15h2.02v261.46h-599.56v-266.85" stroke-width="14"/><path d="m113.16 448.15h602.93m-199.03 217.92h201.05m-599.56 0h205.12m193.39-43.65h201.05m-599.56 0h205.12m-205.12-43.54h599.56m-599.56-43.53h599.56m-599.56-43.66h599.56" stroke-width="7"/><path d="m610.47 421.2v288.41m-95.81-2.92v2.92m0-309.98v180.81m-95.97 126.25v2.92m0-315.36v186.19m-95.96-180.81v309.98m-95.81-293.8v293.8" stroke-width="14"/><path d="m735.63 438.72c-3.22 0-8.24.54-16.08.561-17.8.06-50.08-2.55-108.439-20.16v-.01c-2.11-.63-4.25-1.28-6.431-1.96-30.09-9.34-61.5-15.1-89.88-18.63-46.479-5.79-84.859-5.59-96.12-5.38-2.19.05-3.35.09-3.35.09s-40.15-1.57-92.77 5c-28.04 3.5-59.61 9.32-90.53 18.92-1.72.54-3.43 1.06-5.11 1.57-59.26 17.99-92.24 20.62-110.37 20.56-7.9-.03-12.99-.561-16.2-.561" stroke-width="28"/><path d="m517.06 666.07v40.62h-193.39v-126.25h193.39v41.98z" stroke-width="5.838"/></g><path d="m0 0h850.394v850.394h-850.394z"/></g></svg>