<svg height="850" viewBox="0 0 850 850" width="850" xmlns="http://www.w3.org/2000/svg"><path d="m466.5 507.3.8-3.8 8.2-.2 92.3-.8 31.2-58.2 8.5-66 35.8-39.5 8 5.2 7.7 5.5 7.8 5.8 7.5 6.2 7.5 6.5 7.2 7 7 7.3 6.8 7.5 7.5 8.7 6.7 9.3 6.5 9 6 9.5 5.8 9.5 5 9.5 4.7 9.7 4.3 10 3.7 9.8 3.3 10 2.7 10 2.5 10 2 9.7 1.5 10 1 10 .5 9.8v9.7l-.2 9.8-1 9.5-1.3 9.5-1.7 9.2-2.3 9-2.7 9-3 8.8-3.8 8.5-4 8.2-4.7 8-5 7.8-5.5 7.2-5.8 7.3-6.5 6.7-7 6.3-7.2 6-7.5 5.5-8 5-8 4.5-8.3 3.7-8.5 3.5-8.7 3-9 2.5-9 1.8-9.3 1.5-9.2 1-9.5.5h-9.5l-9.5-.5-9.8-1-9.5-1.3-9.7-2-9.8-2.2-9.5-2.8-9.7-3.2-9.5-3.8-9.5-4.2-9.5-4.5-9.3-5.3-9-5.5-9-5.7-9-6.5-8.5-6.8-8.5-7.2-8.2-7.8-8-8-7.8-8.5-7-8.2-4.7-6.3-4.8-6.2-4.2-6.3-4.3-6.5-4-6.5-3.7-6.5-3.5-6.5-3.5-6.7 63.5 3z" fill="#ffffc2"/><path d="m515.8 236.5 4.2-1.7 3.8 2.7 4 2.8 4.5 3.5 4.2 4 2 2 2 1.7 1.3 2 1.2 1.8.5 1.7.3 1.5-.3 1-.5.8-.7.7-1 .8-1.3.5-1.5.5-3.5.7-4 .5-5 .3h-11.2l-19.3-.3-8.7-.2-7-.8-5.5-.7-2-.8-2-.5-1.5-.7-1.3-.5-.7-.8-.5-.7-.3-.8.3-.7.2-.8.8-.5 1.7-1.2 1.8-.8 2-.7z" fill="#faa41f"/><path d="m465.3 309.5.8 3 2.5 5 3 5.5 3.8 7.8 4 9.3 4.3 10.8 2 6 2 6.3 2 6.8 1.8 6.8 1.8 7.3 1.3 7.3 1.3 7.5 1 7.5.8 8 .3 8v8l-.5 8-.8 8.3-1.3 8.3-1.8 8.3-2.5 8.3-2.8 8-1.8 4-1.8 4.3-2 4-2.3 4-2.4 3.1-2.5 4v.3l-8.3.3-.8 3.8-17.6-13.4-71.8-2-65.8-27.5-11.8-107.8-77-10.3-3.3-65 4.8-2.8 5-2.5 5-2.3 4.8-2.3.5 1 5-1.5 5-1.3 5.3-1 5-.8 5.3-.3 5.3-.3 5.3.3 5.3.5 5 .5 5 1 5 1.5 4.8 1.5 4.8 1.8 4.5 2 4.3 2.5 4.3 2.5 3-2 2.8-2.3 2.3-2.3 2.3-2.5 1.8-2.5 1.5-2.5 1.3-2.8 1-2.8.8-2.8.8-2.8.3-2.8.5-2.8.3-6-.3-6-.8-12.5-.5-6.5-.3-6.5v-6.5l.5-6.5.5-3.5.5-3.3.8-3.3 1-3.3 1-3.3 1.5-3.3 1.5-3 2-3.3 2-3.3 2.5-3 2.5-3 3.3-3 4-3.8 4.3-3.5 4-3.3 4.3-2.8 4.3-2.8 4-2.5 4.3-2.3 4.3-1.8 4.3-1.8 4-1.5 4.3-1.3 4.3-1 4.3-.8 4-.8 4.3-.3 4-.3h4.3l4 .3 4.3.5 4 .8 4 .8 4 1 4 1 3.8 1.5 4 1.5 3.8 1.5 3.8 1.8 3.8 2 3.8 2.3 3.8 2.3 7.3 4.8 3 2.5 3 2.8 2.8 2.5 2.5 3 2.3 2.8 2.3 3 2 3 2 3 3.3 6.3 2.5 6.5 2.3 6.3 1.8 6.3 1.3 6 1 5.8.8 5.3.3 5 .5 7.8-.3 4.8-43 16.3-2 .8-1.8.8-1.8 1.3-.8.5-.3.8-.3.8.3.8.5.8.8.8 1.3.5 1.5.8 2 .5 2 .8 5.5.8 7 .8 8.8.3 19.3.3v1l-2 5.3-2.5 4.8-2.5 4.5-2.5 4.3-3 3.8-2.8 3.5-3.3 3-3 2.8-3.3 2.5-3.5 2.3-3.5 1.8-3.5 1.8-3.5 1.5-3.5 1-3.5 1-5.7.5zm-26.5-90-.3-2.5-.8-2.3-1.3-2-1.4-1.7-2.3-1.5-2.3-1-2.5-.8-2.8-.3-2.8.3-2.5.8-2.3 1-2 1.5-1.8 1.8-1.3 2-.4 2.2-.3 2.5.3 2.5.8 2.3 1.3 2 1.8 1.8 2 1.5 2.3 1 2.5.8 2.8.3 2.8-.3 2.5-.8 2.3-1 2.3-1.5 1.5-1.8 1.3-2 .8-2.3z" fill="#fbee34"/><path d="m219.3 281.5 3.2 65 77 10.3 11.8 107.7 65.7 27.5 71.8 2 17.7 13.3-15.7 66.5-63.5-3 3.5 6.7 3.5 6.5 3.7 6.5 4 6.5 4.3 6.5 4.2 6.3 4.8 6.2 4.7 6.3-1.7 1.2-8.5 6.8-8.8 6.2-8.7 6-9 5.5-9 5.3-9.3 4.7-9.2 4.3-9.3 4-9.5 3.5-9.5 3.2-9.5 2.8-9.5 2.5-9.5 1.7-9.5 1.8-9.2 1-9.5.7-9.5.3h-9.3l-9.2-.5-9-1-9-1.3-9-2-8.8-2-8.5-2.7-8.5-3-8.2-3.5-8-4-7.8-4.3-7.7-4.7-7.3-5.3-7-5.7-7-6-3.5-3.5-3.5-3.8-3.5-3.7-3.2-3.8-3.3-4-3-4-2.7-4-2.8-4.2-5-8.5-4.7-8.8-4-9-3.5-9.2-3-9.5-2.5-9.8-2.3-10-1.5-10-1-10.2-.5-10.3v-10.5l.5-10.5 1-10.5 1.5-10.7 2-10.5 2.5-10.8 3-10.7 3.5-10.5 4-10.5 4.5-10.5 5-10.5 5.3-10.3 6-10.2 6.5-10 6.7-9.8 7.5-9.5 7.8-9.5 8.5-9.2 7-7.3 7-6.7 7.2-6.5 7.5-6.3 7.5-6 7.8-5.5 7.7-5.5 8-5z" fill="#ffffc2"/><path d="m425.3 207.5 2.7.3 2.5.7 2.3 1 2.2 1.5 1.5 1.8 1.3 2 .7 2.2.3 2.5-.3 2.5-.7 2.3-1.3 2-1.5 1.7-2.2 1.5-2.3 1-2.5.8-2.7.2-2.8-.2-2.5-.8-2.2-1-2-1.5-1.8-1.7-1.2-2-.8-2.3-.2-2.5.2-2.5.8-2.2 1.2-2 1.8-1.8 2-1.5 2.2-1 2.5-.7z" fill="#231f20"/><g fill="none" stroke="#231f20" stroke-linecap="round" stroke-miterlimit="10"><path d="m418.3 623.5-8.5 6.8-8.8 6.2-8.7 6-9 5.5-9 5.3-9.3 4.7-9.2 4.3-9.3 4-9.5 3.5-9.5 3.2-9.5 2.8-9.5 2.5-9.5 1.7-9.5 1.8-9.2 1-9.5.7-9.5.3h-9.3l-9.2-.5-9-1-9-1.3-9-2-8.8-2-8.5-2.7-8.5-3-8.2-3.5-8-4-7.8-4.3-7.7-4.7-7.3-5.3-7-5.7-7-6-3.5-3.5-3.5-3.8-3.5-3.7-3.2-3.8-3.3-4-3-4-2.7-4-2.8-4.2-5-8.5-4.7-8.8-4-9-3.5-9.2-3-9.5-2.5-9.8-2.3-10-1.5-10-1-10.2-.5-10.3v-10.5l.5-10.5 1-10.5 1.5-10.7 2-10.5 2.5-10.8 3-10.7 3.5-10.5 4-10.5 4.5-10.5 5-10.5 5.3-10.3 6-10.2 6.5-10 6.7-9.8 7.5-9.5 7.8-9.5 8.5-9.2 7-7.3 7-6.7 7.2-6.5 7.5-6.3 7.5-6 7.8-5.5 7.7-5.5 8-5 .3 3.5 3.2 65 77 10.3 11.8 107.7 65.7 27.5 71.8 2 17.7 13.3 2.3 1.7" stroke-width="21"/><path d="m475.5 503.3 92.3-.8 31.2-58.2 8.5-66 35.8-39.5 8 5.2 7.7 5.5 7.8 5.8 7.5 6.2 7.5 6.5 7.2 7 7 7.3 6.8 7.5 7.5 8.7 6.7 9.3 6.5 9 6 9.5 5.8 9.5 5 9.5 4.7 9.7 4.3 10 3.7 9.8 3.3 10 2.7 10 2.5 10 2 9.7 1.5 10 1 10 .5 9.8v9.7l-.2 9.8-1 9.5-1.3 9.5-1.7 9.2-2.3 9-2.7 9-3 8.8-3.8 8.5-4 8.2-4.7 8-5 7.8-5.5 7.2-5.8 7.3-6.5 6.7-7 6.3-7.2 6-7.5 5.5-8 5-8 4.5-8.3 3.7-8.5 3.5-8.7 3-9 2.5-9 1.8-9.3 1.5-9.2 1-9.5.5h-9.5l-9.5-.5-9.8-1-9.5-1.3-9.7-2-9.8-2.2-9.5-2.8-9.7-3.2-9.5-3.8-9.5-4.2-9.5-4.5-9.3-5.3-9-5.5-9-5.7-9-6.5-8.5-6.8-8.5-7.2-8.2-7.8-8-8-7.8-8.5-7-8.2-4.7-6.3-4.8-6.2-4.2-6.3-4.3-6.5-4-6.5-3.7-6.5-3.5-6.5-3.5-6.7 63.5 3 15.7-66.5.8-3.8zm40.3-265.8v-1l.2-4.7-.5-7.8-.2-5-.8-5.2-1-5.8-1.2-6-1.8-6.2-2.2-6.3-2.5-6.5-3.3-6.2-2-3-2-3-2.2-3-2.3-2.8-2.5-3-2.7-2.5-3-2.7-3-2.5-7.3-4.8-3.7-2.2-3.8-2.3-3.7-2-3.8-1.7-3.7-1.5-4-1.5-3.8-1.5-4-1-4-1-4-.8-4-.7-4.2-.5-4-.3h-4.3l-4 .3-4.2.2-4 .8-4.3.7-4.2 1-4.3 1.3-4 1.5-4.2 1.7-4.3 1.8-4.2 2.2-4 2.5-4.3 2.8-4.2 2.7-4 3.3-4.3 3.5-4 3.7-3.2 3-2.5 3-2.5 3-2 3.3-2 3.2-1.5 3-1.5 3.3-1 3.2-1 3.3-.8 3.2-.5 3.3-.5 3.5-.5 6.5v6.5l.3 6.5.5 6.5.7 12.5.3 6-.3 6-.5 2.7-.2 2.8-.8 2.7-.7 2.8-1 2.7-1.3 2.8-1.5 2.5-1.7 2.5-2.3 2.5-2.2 2.2-2.8 2.3-3 2-2.2 1.2" stroke-width="21"/><path d="m330 260.5-2-.2-5.7-.8-8.8-.5h-11.7l-6.5.5-7.3.5-7.5 1-8 1.3-8 1.5-8.5 2.2-8.5 2.8-8.7 3-4.8 2.2-5 2.3-5 2.5-4.7 2.7-2.3 1.5m193.3 19.8 4.7 1.7 5.3 1.8 7 1.7 4 1 4.5.8 4.5.5 4.7.5h10l5.3-.5 5-.8 3.7-.7 3.5-1 3.5-1 3.5-1.5 3.5-1.8 3.5-1.7 3.5-2.3 3.3-2.5 3-2.7 3.2-3 2.8-3.5 3-3.8 2.5-4.2 2.5-4.5 2.5-4.8 2-5.2m-48.8 47.2 2.5 5 3 5.5 3.8 7.8 4 9.2 4.2 10.8 2 6 2 6.2 2 6.8 1.8 6.7 1.7 7.3 1.3 7.2 1.2 7.5 1 7.5.8 8 .2 8v8l-.5 8-.7 8.3-1.3 8.2-1.7 8.3-2.5 8.2-2.8 8-1.7 4-1.8 4.3-2 4-2.2 4-2.3 3.7-2.5 4" stroke-width="21"/><path d="m514.8 264.3-19.3-.3-8.7-.2-7-.8-5.5-.7-2-.8-2-.5-1.5-.7-1.3-.5-.7-.8-.5-.7-.3-.8.3-.7.2-.8.8-.5 1.7-1.2 1.8-.8 2-.7 43-16.3 4.2-1.7 3.8 2.7 4 2.8 4.5 3.5 4.2 4 2 2 2 1.7 1.3 2 1.2 1.8.5 1.7.3 1.5-.3 1-.5.8-.7.7-1 .8-1.3.5-1.5.5-3.5.7-4 .5-5 .3z" stroke-width="14"/><path d="m239.3 272.8 5-1.5 5-1.3 5.2-1 5-.7 5.3-.3 5.2-.2 5.3.2 5.2.5 5 .5 5 1 5 1.5 4.8 1.5 4.7 1.8 4.5 2 4.3 2.5 4.2 2.5 3.3 2.2 3 2.5 2.7 2.8 2.8 2.7 2.5 3 2.2 3.3 2.3 3.2 1.7 3.5 1.8 3.8 1.5 3.7 1 4 1 4 .5 4.3.2 4.5.3 4.5-.5 4.7-1 10.8-1.5 10.7-1.8 10.8-2 10.7-2.2 10.3-2.3 9.7-4.5 18.5-4.5 15.5-3.5 12.3-3.5 10.5" stroke-width="21"/></g></svg>