<svg height="850.394" viewBox="0 0 850.394 850.394" width="850.394" xmlns="http://www.w3.org/2000/svg"><path d="m735.43 532.6c-39.229 14.25-136.12 34.15-170.05-30.46-10.27-4.12-53.04-4.81-57.149-74.47-3.57-60.92-7.95-180.16-9.4-196.8-1.44-16.64-47.03-37.63-47.03-37.63l-.3-.24c-36.92 46.35-33.49-16.51-32.99-30.87 1.46-41.25 20.99-47.03 34.01-28.22 13.03 18.81 21.891 24.6 21.891 24.6 18.63 11.4 40.34 18.09 53.37 15.92 13.02-2.17 27.42-25.43 47.029-58.61 28.221-47.75 65.841-29.66 65.841-29.66s30.38 5.06 28.21 88.99c0 0-3.61 23.16 25.33 33.29 21.18 7.41 45.579 23.87 65.84 13.02 12.1-6.48 34.92-7.46 34.729 21.71-.17 29.84-7.229 58.06-21.34 56.43-2.46-.28-4.12-1.37-5.29-3.02-6.26-8.77 1.05-33.39-27.27-36.59 0 0-62.591-5.97-66.92 17.19-2.29 12.15-12.311 33.28 43.409 88.99 30.86 30.86 68.73 42.69 60.051 68.021-5.67 16.51-16.881 24.729-26.591 28.64l-1.649.7c10.3 14.88 18.3 26.93 21 32.16 9.019 17.489-11.361 28.409-34.731 36.909zm-96.76-388.56c0-7.49-3.97-13.56-8.88-13.56-4.9 0-8.86 6.07-8.86 13.56s3.96 13.57 8.86 13.57c4.91 0 8.88-6.08 8.88-13.57zm-25.6 41.51c1.42-11.3-2.25-21.07-8.2-21.81-5.95-.75-11.92 7.81-13.34 19.11s2.25 21.07 8.2 21.81 11.92-7.81 13.34-19.11zm-6.99-45.9c3.02-6.87 1.81-14.03-2.67-15.99-4.5-1.97-10.57 2-13.58 8.86-3 6.86-1.811 14.02 2.68 15.99 4.5 1.97 10.57-2.01 13.57-8.86z" fill="#fff"/><path d="m604.87 163.74c5.95.74 9.62 10.51 8.2 21.81s-7.391 19.85-13.34 19.11c-5.95-.74-9.62-10.51-8.2-21.81s7.39-19.86 13.34-19.11z" fill="#c8c8c8"/><path d="m629.79 130.48c4.91 0 8.88 6.07 8.88 13.56s-3.97 13.57-8.88 13.57c-4.9 0-8.86-6.08-8.86-13.57s3.96-13.56 8.86-13.56zm-26.38-6.82c4.479 1.96 5.689 9.12 2.67 15.99-3 6.85-9.07 10.83-13.57 8.86-4.49-1.97-5.68-9.13-2.68-15.99 3.01-6.86 9.08-10.83 13.58-8.86zm-126.17 278.84-26.16-.09v-7.21h-370.39v5.98l-25.86-.09 84.5-69.64h.01l.02-.02 125.7-103.59z" fill="#231f20"/><path d="m451.08 402.41v369.25h-53.89v-163.02h-100.63v163.02h-215.87v-370.48zm-53.89 138.41v-89.73h-100.63v89.731h100.63zm-171.52 167.14v-89.74h-100.62v89.74zm0-167.14v-89.73h-100.62v89.731h100.62zm225.41-145.62v7.21l-370.39-1.23v-5.98z" fill="#231f20"/><path d="m296.56 608.64h100.63v163.021h-100.63zm51.02-112.33h49.61v44.511h-49.61zm49.61-45.22v45.22h-49.61v-45.22zm-49.61 45.22v44.51h-51.02v-44.51h4.44zm0-42.48v42.48h-51.02v-45.22h51.02zm-121.91 202.76v51.37h-50.35v-51.37zm0-38.37v38.37h-50.35v-38.37zm-49.61-121.91h49.61v44.511h-49.61zm49.61-45.22v45.22h-49.61v-45.22zm-100.62 45.22h51.01v44.511h-51.01zm51.01-42.48v42.48h-51.01v-45.22h51.01zm-.74 249.33v4.8h-50.27v-89.74h50.27v38.37z" fill="#fff"/><path d="m168.42 254.74v46.11l-29.06 30.58-.02.02h-18.24v-76.71z" fill="#231f20"/><g fill="none"><g stroke="#231f20"><path d="m296.56 771.66h-215.87v-370.48m370.39 1.23v369.25h-53.89" stroke-width="20.087"/><path d="m225.67 496.31v44.51h-100.62v-89.73h100.62zm0 160.28v51.37h-100.62v-89.74h100.62zm70.89-47.95h100.63v163.021h-100.63zm100.63-112.33v44.51h-100.63v-89.73h100.63z" stroke-width="20.087"/><path d="m139.33 331.45-84.5 69.64m422.41 1.41-212.18-174.66-125.7 103.59" stroke-width="26.783"/><path d="m139.34 331.45h-18.24v-76.71h47.32v46.11" stroke-width="20.087"/><path d="m175.32 619.6v83.56m0-46.57h50.35m-100.62-160.28h100.62m-49.61-42.48v86.99m171.52-86.99v86.99m-46.58-44.51h96.19" stroke-width="13.392"/><g stroke-width="14"><path d="m458.32 183.83c-2.41 3.44-4.681 6.49-6.82 9.17-36.92 46.35-33.49-16.51-32.99-30.87 1.46-41.25 20.99-47.03 34.01-28.22 13.03 18.81 21.891 24.6 21.891 24.6 18.63 11.4 40.34 18.09 53.37 15.92 13.02-2.17 27.42-25.43 47.029-58.61 28.221-47.75 65.841-29.66 65.841-29.66s30.38 5.06 28.21 88.99c0 0-3.61 23.16 25.33 33.29 21.18 7.41 45.579 23.87 65.84 13.02 12.1-6.48 34.92-7.46 34.729 21.71-.17 29.84-7.229 58.06-21.34 56.43-2.46-.28-4.12-1.37-5.29-3.02-6.26-8.77 1.05-33.39-27.27-36.59 0 0-62.591-5.97-66.92 17.19-2.29 12.15-12.311 33.28 43.409 88.99 30.86 30.86 68.73 42.69 60.051 68.021-5.67 16.51-16.881 24.729-26.591 28.64"/><path d="m674.66 359.66s46.02 62.74 74.5 103.87c10.3 14.88 18.3 26.93 21 32.16 9.02 17.489-11.36 28.409-34.73 36.909-39.229 14.25-136.12 34.15-170.05-30.46-.49-.93-.97-1.88-1.43-2.84-32.561-68-40.521-152.66-38.34-219.96"/><path d="m451.8 193.24s45.59 20.99 47.03 37.63c1.45 16.64 5.83 135.88 9.4 196.8 4.109 69.66 46.88 70.35 57.149 74.47.61.24 1.11.5 1.47.78m24.681-320.07c-1.42 11.3 2.25 21.07 8.2 21.81 5.949.74 11.92-7.81 13.34-19.11s-2.25-21.07-8.2-21.81c-5.95-.75-11.92 7.81-13.34 19.11zm165.61 63.03s5.681 32 10.99 50.7c.13.48.271.94.4 1.4"/></g></g><path d="m0 0h850.394v850.394h-850.394z"/></g></svg>