<svg height="850.394" viewBox="0 0 850.394 850.394" width="850.394" xmlns="http://www.w3.org/2000/svg"><path d="m397.24 575.56c-2.69 2.95-5.27 4.96-7.61 6.131-13.65 6.829-88.72 16.21-143.31 17.06-45.67.72-98.49 3.82-127.03-13.16.55-4.39 4.84-19.43 37.45-25.22 38.39-6.83 102.37-5.12 136.49-6.83 33.21-1.661 72.07-9.791 104.01 22.019z" fill="#ffffc2"/><path d="m675.23 567.79c-7.69.79-17.391 4.19-24.28 8.32-5.01 3.01-11.87 9.34-16.08 10.63 0 0-14.061 6.439-23.9 6.33-22.569-.271-46.68-2.98-67.2-11.88-37.199-16.12-55.229-46.48-66.029-84.32-5.08-17.811-4.88-47.64.38-65.87 8.03-27.87 73.939-92.49 87.439-106.12 19.79-19.99 54.511-26.18 71.15-13.88 12.24 9.05 111.11 94.09 123.88 111.48 13.26 18.06 18.3 50.95 14.29 73.23-2.83 15.76-6.26 37.2-17.33 49.91-11.21 12.87-29.359 22.04-45.62 26.07-15.74 3.9-21.13-5.48-36.7-3.9z" fill="#f6cc4b"/><path d="m335.89 316.39c43.5 32.42 91.28 60.57 90.419 141.61-.7 67.18-16.069 103.29-29.069 117.56-31.94-31.81-70.8-23.68-104.01-22.02-34.12 1.71-98.1 0-136.49 6.83-32.61 5.79-36.9 20.83-37.45 25.22-5.58-3.31-10.24-7.399-13.73-12.43-21.33-30.71-67.39-130.521-6.82-192.79 60.56-62.27 99.84-94.02 110.89-101.52 23.89-16.2 31.57-17.06 31.57-17.06s51.18 22.18 94.69 54.6z" fill="#faa41f"/><g fill="none"><g stroke="#231f20" stroke-width="14"><path d="m119.29 585.59c-5.58-3.31-10.24-7.399-13.73-12.43-21.33-30.71-67.39-130.521-6.82-192.79 60.56-62.27 99.84-94.02 110.89-101.52 23.89-16.2 31.57-17.06 31.57-17.06s51.18 22.18 94.69 54.6c43.5 32.42 91.28 60.57 90.419 141.61-.7 67.18-16.069 103.29-29.069 117.56-2.69 2.95-5.27 4.96-7.61 6.131-13.65 6.829-88.72 16.21-143.31 17.06-45.67.719-98.49 3.819-127.03-13.161z"/><path d="m119.21 586.81s-.02-.439.08-1.22c.55-4.39 4.84-19.43 37.45-25.22 38.39-6.83 102.37-5.12 136.49-6.83 33.21-1.66 72.07-9.79 104.01 22.02.88.87 1.76 1.78 2.63 2.721m235 8.459c4.21-1.29 11.07-7.62 16.08-10.63 6.89-4.13 16.59-7.53 24.28-8.32 15.569-1.58 20.96 7.8 36.699 3.9 16.261-4.03 34.41-13.2 45.62-26.07 11.07-12.71 14.5-34.15 17.33-49.91 4.01-22.28-1.03-55.17-14.29-73.23-12.769-17.39-111.639-102.43-123.879-111.48-16.64-12.3-51.36-6.11-71.15 13.88-13.5 13.63-79.409 78.25-87.439 106.12-5.26 18.23-5.46 48.06-.38 65.87 10.8 37.84 28.83 68.2 66.029 84.32 20.521 8.899 44.631 11.609 67.2 11.88 9.84.11 23.9-6.33 23.9-6.33zm21.45-13.81s36.649-30.97 0-103.239"/></g><path d="m0 0h850.394v850.394h-850.394z"/></g></svg>