<svg height="850.394" viewBox="0 0 850.394 850.394" width="850.394" xmlns="http://www.w3.org/2000/svg"><g fill="#fff"><path d="m695.56 273.96h13.631v37.85h-13.631zm-14.03 0h14.029v37.85h-14.029z"/><path d="m709.19 261.54v12.42h-13.63v-12.42zm-13.63.75v11.67h-14.03v-12.42h14.03zm-42.21 11.67h13.641v37.85h-13.641zm-14.02 0h14.02v37.85h-14.02z"/><path d="m666.99 261.54v12.42h-13.64v-12.42zm-13.64.75v11.67h-14.02v-12.42h14.02zm-118.24 11.67h14.02v37.85h-14.02zm14.02 0h13.64v37.85h-13.64z"/><path d="m562.77 261.54v12.42h-13.64v-12.42zm-13.64.75v11.67h-14.02v-12.42h14.02zm-56.23 11.67h14.02v37.85h-14.02zm14.02 0h13.64v37.85h-13.64z"/><path d="m520.56 261.54v12.42h-13.64v-12.42z"/><path d="m506.92 262.29v11.67h-14.02v-12.42h14.02z"/></g><path d="m627.31 276.2v61.47h-25.65v-61.47zm-25.65 60.54v.93h-25.65v-61.47h25.65v1.53z" fill="#ed1e29"/><path d="m576.01 337.67h51.299v-61.47h-51.299zm145.94.76h-240.59v-97.7h67.479v-17.35l35.34-29.12.34-.29 1.061-.88 15.91-13.1 16.22 13.1 1.1.89 36.301 29.32v17.35h66.84v97.78zm-12.76-26.62v-50.27h-27.66v50.27zm-42.2 0v-50.27h-27.66v50.27zm-104.22 0v-50.27h-27.66v50.27zm-42.21 0v-50.27h-27.66v50.27z" fill="#ffeec8"/><path d="m583.79 193.1.73.87-.34.29-35.34 29.12v17.35h-67.48v-47.63zm138.16 0v47.55h-66.84v-17.35l-36.3-29.32.71-.88z" fill="#797878"/><path d="m516.34 551.44c8.98 28.619 10.68 63.88 7.53 75.05-1.83 6.609-10.38 15.939-18.45 14.99-8.92-.971-10.97-21.99-15.27-28.69-6.75 1.41-3.29 11.24-8.28 11.24-4.32-4.3-5.771-16.17-5.771-28.59 0-13.761 1.78-28.2 3.41-33.801l4.491.361zm-381.58 8.35c1.7 4.67 3.71 20.09 3.71 34.75 0 12.44-1.45 24.34-5.77 28.66-4.96 0-1.52-9.87-8.29-11.24-4.3 6.69-6.35 27.7-15.27 28.68-8.04.96-16.6-8.399-18.44-14.979-3.14-11.19-1.46-46.44 7.52-75.08 0 0 .74-2.561 2.02-6.97l3.76.389z" fill="#9c5c25"/><path d="m280.41 239.61 24.62 124.18-42.52-55.59 11.84-27.22-37.61 13.14 19.83-47.94-1.41-.58c10.41-5.46 18.46-9.37 20.98-10.59 1.41 1.64 2.83 3.18 4.27 4.6zm75.35 67.88-37.74 49.32-4.79 6.27 24.64-124.24-.5-.47c.88-.95 1.77-1.94 2.66-2.98l3.1.06s8.73 4.53 20.79 11.39l-.59 1.83 18.2 44.74-37.61-13.14z" fill="#797878"/><path d="m309.03 366.03v6.15l10.05-14.56-1.06-.81 37.74-49.32-11.84-27.22 37.61 13.14-18.2-44.74.59-1.83c3.7 2.11 7.7 4.43 11.86 6.91 17.75 10.58 38.36 24.01 49.77 35.43 0 0 44.86 90.42 58.41 145.24 9.34 37.8 32.38 117.021 32.38 117.021l-32.34 10.559-4.49-.36c.11-.37.21-.71.32-1l-70.55-154.42 19.41 206.78-2.65.25h-234.65l-3.71-.13c2.44-69.28 17.62-207.74 17.62-207.74l-70.54 154.41-30.76-15.79-3.76-.39c5.82-20.16 22.7-79.04 30.38-110.04 13.56-54.811 58.4-145.24 58.4-145.24 11.42-11.41 33.41-24.84 52.54-35.41 4.78-2.64 9.39-5.11 13.6-7.32l1.41.58-19.83 47.94 37.61-13.14-11.84 27.22 42.52 55.59h1.36v1.58h2.64z" fill="#797878"/><path d="m416.77 613.25v4.53c-.67 25.68-1.52 136.21-2.51 151.569h-88.49l-9.88-152.239v-3.86zm-114.72 0v3.78l-10.24 152.32-87.8.65c-1.13-17.55-3.22-124.93-4.01-154v-2.75z" fill="#797878"/><path d="m755.25 131.39 6.9 11.89h-49.88l6.45-10.77.99-1.65h35.23zm2.18 11.99v28.9h-38.84v-29h38.84zm-65.98-11.99 6.89 11.89h-49.87l6.45-10.75 1-1.67h35.22zm2.18 11.99v28.9h-38.85v-29h38.85z" fill="#9c5c25"/><path d="m755.25 122.21v9.18l-.31-.53h-4.311v-15.24c0-3.67-2.97-6.8-7.149-7.99l.109-.35c.001 0 11.661.28 11.661 14.93z" fill="#0071bc"/><path d="m750.63 115.62v15.24h-27.29v-15.24c0-3.63 2.92-6.73 7.03-7.95h.02c1.2-.36 2.511-.56 3.87-.56h5.45c1.33 0 2.59.18 3.771.52 4.179 1.19 7.149 4.32 7.149 7.99z" fill="#0071bc"/><path d="m723.34 115.62v15.24h-3.63l-.99 1.65v-9.91c0-14.27 11.08-14.91 11.65-14.93-4.11 1.22-7.03 4.32-7.03 7.95z" fill="#0071bc"/><path d="m736.76 82.63c5.38 0 9.74 5.29 9.74 11.81s-4.36 11.81-9.74 11.81c-5.37 0-9.74-5.29-9.74-11.81s4.37-11.81 9.74-11.81z" fill="#ffeec8"/><path d="m691.45 122.21v9.18l-.311-.53h-4.31v-15.24c0-3.67-2.97-6.8-7.15-7.99l.11-.35c.001 0 11.661.28 11.661 14.93zm-31.91-6.59v15.24h-3.62l-1 1.67v-9.93c0-14.65 11.67-14.93 11.67-14.93-4.12 1.21-7.05 4.32-7.05 7.95z" fill="#0071bc"/><path d="m686.83 115.62v15.24h-27.29v-15.24c0-3.63 2.93-6.74 7.05-7.95 1.2-.36 2.51-.56 3.88-.56h5.45c1.32 0 2.59.18 3.76.52 4.18 1.19 7.15 4.32 7.15 7.99z" fill="#0071bc"/><ellipse cx="672.96" cy="94.44" fill="#ffeec8" rx="9.74" ry="11.81"/><path d="m252.08 151.51c-.14 6.04-.15 15.63-.15 20.05 0 8.54 1.33 16.92 3.61 24.85l-.59.17c-6.24 1.2-9.23-3.9-9.45-6.52-.57-6.9 1.47-10.22-2.96-19.26-1.83-3.72-2.72-11.16 3.91-12.22.97-2.02 2.83-4.69 5.05-7.52z" fill="#9c5c25"/><path d="m342.82 168.73c0-.94.07-1.37-.16-1.91l.46-.95v-.01c-1.99-.97-4.17-1.51-6.5-1.46-3.1.08-6.29 1.36-8.68 3.42h1.85c.01.21.07.43.07.91 0 3.41 2.91 6.18 6.49 6.18 3.57 0 6.47-2.77 6.47-6.18zm-62.41 70.88a76.505 76.505 0 0 1 -4.27-4.6c-8.5-9.89-16.27-23.43-20.6-38.6-2.28-7.93-3.61-16.31-3.61-24.85 0-4.42.01-14.01.15-20.05l-.58-.45c6.16-7.88 15.05-17.05 15.05-17.05 4.98-3.65 44.13-16.57 55.75-24.68.13.11.37.22.68.31 2.54 1.56 12.98 8.71 26.77 27.75 2.55 3.53 12.52 11.36 14.8 20.54.15 5.67.21 8.93.21 13.63 0 8.32-1.32 16.51-3.55 24.28-4.46 15.59-12.61 29.51-21.18 39.55-.89 1.04-1.78 2.03-2.66 2.98-3.79 4.04-7.6 7.29-11.15 9.55-6.13 2.95-10.79 2.53-17.88 2.53-6.55 0-10.74.65-16.5-1.9-3.71-2.08-7.6-5.11-11.43-8.94zm10.25-72.05c-2.32-1.8-5.26-2.9-8.14-2.96-2.36-.05-4.57.51-6.58 1.5l.49 1.06c-.16.48-.11.91-.11 1.76 0 3.42 2.91 6.19 6.49 6.19 3.49 0 7.67-4.17 7.85-7.55zm20.15 42.13c-.07.02-.15.03-.23.04l.55-.03c-.11 0-.22 0-.32-.01z" fill="#9c5c25"/><path d="m337.87 238.84-24.64 124.24 4.79-6.27 1.06.81-10.05 14.56v-6.81h1.91v-4.03h-4.55v2.45h-1.36l-24.62-124.18c3.83 3.83 7.72 6.86 11.43 8.94 5.76 2.55 9.95 1.9 16.5 1.9 7.09 0 11.75.42 17.88-2.53 3.55-2.26 7.36-5.51 11.15-9.55z" fill="#a8d7f4"/><path d="m364.66 158.46.62-.13c1.43-.52 3.02-.69 4.77-.41 6.63 1.06 5.73 8.51 3.91 12.22-4.43 9.04-2.41 12.37-2.96 19.26-.22 2.62-3.21 7.72-9.45 6.53l-.34-.09c2.23-7.77 3.55-15.96 3.55-24.28 0-4.7-.06-7.96-.21-13.63.04.17.08.35.11.53z" fill="#9c5c25"/><path d="m322.3 109.33c-11.62 8.11-50.77 21.03-55.75 24.68 0 0-8.89 9.17-15.05 17.05-2.22 2.83-4.08 5.5-5.05 7.52l-.58-18.8c0-29.98 24.47-47.39 24.47-47.39 2.83-1.92 4.73-2.89 4.73-2.89 12.48-7.43 28.62-10.04 49.21-7.65 24.87 2.9 43.94 27.67 47.57 58.49.6 5.01-.94 12.28-1.8 17.58-1.75-.28-3.34-.11-4.77.41l-.62.13c-.03-.18-.07-.36-.11-.53-2.28-9.18-12.25-17.01-14.8-20.54-13.79-19.04-24.23-26.19-26.77-27.75-.4-.25-.6-.36-.6-.36-.03.02-.05.04-.08.05zm-37.18 59.47c0 1.15-1.05 2.08-2.34 2.08s-2.34-.93-2.34-2.08c0-1.16 1.05-2.09 2.34-2.09s2.34.93 2.34 2.09zm53.53-.02c0 1.15-1.05 2.09-2.34 2.09s-2.34-.94-2.34-2.09 1.05-2.09 2.34-2.09 2.34.94 2.34 2.09z" fill="#231f20"/><path d="m343.12 165.86v.01l-.46.95c.23.54.16.97.16 1.91 0 3.41-2.9 6.18-6.47 6.18-3.58 0-6.49-2.77-6.49-6.18 0-.48-.06-.7-.07-.91h-1.85c2.39-2.06 5.58-3.34 8.68-3.42 2.33-.05 4.51.49 6.5 1.46zm-6.81 5.01c1.29 0 2.34-.94 2.34-2.09s-1.05-2.09-2.34-2.09-2.34.94-2.34 2.09 1.05 2.09 2.34 2.09zm-53.79-6.27c2.88.06 5.82 1.16 8.14 2.96-.18 3.38-4.36 7.55-7.85 7.55-3.58 0-6.49-2.77-6.49-6.19 0-.85-.05-1.28.11-1.76l-.49-1.06c2.01-.99 4.22-1.55 6.58-1.5zm.26 6.28c1.29 0 2.34-.93 2.34-2.08 0-1.16-1.05-2.09-2.34-2.09s-2.34.93-2.34 2.09c0 1.15 1.05 2.08 2.34 2.08z" fill="#fff"/><g fill="none" stroke="#231f20"><path d="m98.22 550.58s.74-2.561 2.02-6.97c5.82-20.16 22.7-79.04 30.38-110.04 13.56-54.811 58.4-145.24 58.4-145.24 11.42-11.41 33.41-24.84 52.54-35.41a735.842 735.842 0 0 1 34.58-17.91c.54-.25.83-.39.83-.39m-89.52 386.23c.05-2.46.13-5.04.23-7.729 2.44-69.28 17.62-207.74 17.62-207.74l-70.54 154.41c1.7 4.67 3.71 20.09 3.71 34.75 0 12.44-1.45 24.34-5.77 28.66-4.96 0-1.52-9.87-8.29-11.24-4.3 6.69-6.35 27.7-15.27 28.68-8.04.96-16.6-8.399-18.44-14.979-3.14-11.19-1.46-46.44 7.52-75.08m105.79 219.418c-1.13-17.55-3.22-124.93-4.01-154m316.34-64.56s-23.04-79.221-32.38-117.021c-13.55-54.82-58.41-145.24-58.41-145.24-11.41-11.42-32.02-24.85-49.77-35.43-4.16-2.48-8.16-4.8-11.86-6.91-12.06-6.86-20.79-11.39-20.79-11.39" stroke-width="14"/><path d="m429.63 623.06-.94-10.06-19.41-206.78 70.55 154.419c-.11.29-.21.63-.32 1-1.63 5.601-3.41 20.04-3.41 33.801 0 12.42 1.45 24.29 5.771 28.59 4.99 0 1.53-9.83 8.28-11.24 4.3 6.7 6.35 27.72 15.27 28.69 8.07.949 16.62-8.381 18.45-14.99 3.149-11.17 1.45-46.431-7.53-75.05m-102.081 217.91c.99-15.359 1.84-125.89 2.51-151.569m-114.72-.751-10.24 152.32m33.96 0-9.88-152.24m-124.5-3.86h234.65" stroke-width="14"/><g stroke-linecap="square" stroke-miterlimit="10"><path d="m269.08 171.7c1.92-2.32 4.23-4.33 6.86-5.6 2.01-.99 4.22-1.55 6.58-1.5 2.88.06 5.82 1.16 8.14 2.96 1.33 1.01 2.45 2.27 3.24 3.67" stroke-width="4.614"/><path d="m290.67 167.33c0 .08 0 .15-.01.23-.18 3.38-4.36 7.55-7.85 7.55-3.58 0-6.49-2.77-6.49-6.19 0-.85-.05-1.28.11-1.76" stroke-width="3.076"/><path d="m350.06 171.51c-1.93-2.34-4.27-4.37-6.94-5.64v-.01c-1.99-.97-4.17-1.51-6.5-1.46-3.1.08-6.29 1.36-8.68 3.42-1.09.93-2.02 2.02-2.7 3.23" stroke-width="4.614"/><path d="m329.79 167.82c.01.21.07.43.07.91 0 3.41 2.91 6.18 6.49 6.18 3.57 0 6.47-2.77 6.47-6.18 0-.94.07-1.37-.16-1.91" stroke-width="3.076"/></g><path d="m251.21 158.98c-1.42-.51-3.02-.68-4.76-.4-6.63 1.06-5.74 8.5-3.91 12.22 4.43 9.04 2.39 12.36 2.96 19.26.22 2.62 3.21 7.72 9.45 6.52m110.33-38.25c1.43-.52 3.02-.69 4.77-.41 6.63 1.06 5.73 8.51 3.91 12.22-4.43 9.04-2.41 12.37-2.96 19.26-.22 2.62-3.21 7.72-9.45 6.53" stroke-width="6.152"/><path d="m295.11 226.15c8.15 3.25 21.09 2.87 28.03-.16" stroke-width="7"/><path d="m364.53 157.22c.01.24.01.48.02.71.15 5.67.21 8.93.21 13.63 0 8.32-1.32 16.51-3.55 24.28-4.46 15.59-12.61 29.51-21.18 39.55-.89 1.04-1.78 2.03-2.66 2.98-3.79 4.04-7.6 7.29-11.15 9.55-6.13 2.95-10.79 2.53-17.88 2.53-6.55 0-10.74.65-16.5-1.9-3.71-2.08-7.6-5.11-11.43-8.94a76.505 76.505 0 0 1 -4.27-4.6c-8.5-9.89-16.27-23.43-20.6-38.6-2.28-7.93-3.61-16.31-3.61-24.85 0-4.42.01-14.01.15-20.05" stroke-width="14"/><path d="m310.81 209.69c3.11-.57 2.55-2.4 5.86-1.6 2.86.7 5.89 2.12 6.6-2.35.5-3.07-1.81-3.48-3.04-5.95m-9.42 9.9c.1.01.21.01.32.01l-.55.03c.08-.01.16-.02.23-.04zm-9.64-38.33c5.12 5.63 3.57 18.85 1.28 25.72l-.97 2.68c-1.23 2.47-3.54 2.87-3.04 5.95.71 4.46 3.74 3.04 6.59 2.35 3.3-.79 2.55 1.49 5.78 1.63" stroke-width="7"/><path d="m285.12 168.8c0 1.15-1.05 2.08-2.34 2.08s-2.34-.93-2.34-2.08c0-1.16 1.05-2.09 2.34-2.09s2.34.93 2.34 2.09zm53.53-.02c0 1.15-1.05 2.09-2.34 2.09s-2.34-.94-2.34-2.09 1.05-2.09 2.34-2.09 2.34.94 2.34 2.09z" stroke-width="3.076"/><path d="m297.77 161.04c-2.76-5.82-13.58-8.09-19.06-7-5.14 1.03-7.69 1.65-13.07 5.81m54.55-.08c2.76-5.83 13.58-8.09 19.05-7 5.15 1.02 7.71 1.64 13.07 5.81" stroke-width="7"/><path d="m370.05 157.92c.86-5.3 2.4-12.57 1.8-17.58-3.63-30.82-22.7-55.59-47.57-58.49-20.59-2.39-36.73.22-49.21 7.65 0 0-1.9.97-4.73 2.89 0 0-24.47 17.41-24.47 47.39l.58 18.8c.97-2.02 2.83-4.69 5.05-7.52 6.16-7.88 15.05-17.05 15.05-17.05 4.98-3.65 44.13-16.57 55.75-24.68.03-.01.05-.03.08-.05 0 0 .2.11.6.36 2.54 1.56 12.98 8.71 26.77 27.75 2.55 3.53 12.52 11.36 14.8 20.54.04.17.08.35.11.53.18.79.29 1.59.33 2.4" stroke-width="14"/><path d="m326.91 110.14c-.58.01-2.75-.16-3.93-.5-.31-.09-.55-.2-.68-.31a.47.47 0 0 1 -.09-.12c3.56-3.47 6.37-9.13 6.37-14.86m-224.58 449.65 30.76 15.79m381.58-8.35-32.34 10.56m-203.6-322.44.01.05 24.62 124.18-42.52-55.59 11.84-27.22-37.61 13.14 19.83-47.94.16-.38m81.14-6.96-24.64 124.24 4.79-6.27 37.74-49.32-11.84-27.22 37.61 13.14-18.2-44.74" stroke-width="14"/><path d="m298.41 357.46 10.62 14.72 10.05-14.56" stroke-width="9.228"/><path d="m306.39 363.79v-2.45h4.55v4.03h-4.55z" stroke-width="9.228"/><path d="m309.03 366.03v241.07m310.49-414h102.43v145.33h-240.59v-145.33h102.43" stroke-width="14"/><path d="m601.66 276.2h25.65v61.47h-51.3v-61.47zm-81.1-2.24v37.85h-27.66v-50.27h27.66zm-27.66 0h27.66m-13.64-11.67v49.52m55.85-37.85v37.85h-27.66v-50.27h27.66zm-27.66 0h27.66m-13.64-11.67v49.52m117.86-37.85v37.85h-27.66v-50.27h27.66zm-27.66 0h27.66m-13.64-11.67v49.52m55.84-37.85v37.85h-27.66v-50.27h27.66zm-27.66 0h27.66m-13.63-11.67v49.52" stroke-width="7"/><path d="m584.18 194.26-35.34 29.12v17.35h-66.99" stroke-width="14"/><path d="m585.58 193.09-1.06.88-.34.29" stroke-width="12.304"/><path d="m617.71 193.09-16.22-13.1-15.91 13.1m136.51 47.56h-66.98v-17.35l-36.3-29.32-1.1-.89" stroke-width="14"/><path d="m601.66 277.73v59.01" stroke-width="7"/><ellipse cx="672.96" cy="94.44" rx="9.74" ry="11.81" stroke-width="7"/><path d="m686.83 130.86v-15.24c0-3.67-2.97-6.8-7.15-7.99-1.17-.34-2.439-.52-3.76-.52h-5.45c-1.37 0-2.68.2-3.88.56-4.12 1.21-7.05 4.32-7.05 7.95v15.24" stroke-width="12.304"/><path d="m686.83 130.86h4.31l.31.53 6.89 11.89h-49.87l6.45-10.75 1-1.67h3.62zm-32.05 12.52v28.9h38.85v-28.9" stroke-width="7"/><path d="m666.59 107.67s-11.67.28-11.67 14.93v9.93m24.87-25.25s11.66.28 11.66 14.93v9.92m55.05-37.69c0 6.52-4.36 11.81-9.74 11.81-5.37 0-9.74-5.29-9.74-11.81s4.37-11.81 9.74-11.81c5.38 0 9.74 5.29 9.74 11.81z" stroke-width="7"/><path d="m730.37 107.67c-4.11 1.22-7.03 4.32-7.03 7.95v15.24m27.29 0v-15.24c0-3.67-2.97-6.8-7.149-7.99a13.58 13.58 0 0 0 -3.771-.52h-5.45c-1.359 0-2.67.2-3.87.56" stroke-width="12.304"/><path d="m750.63 130.86h4.31l.31.53 6.9 11.89h-49.88l6.45-10.77.99-1.65h3.63zm-32.04 12.52v28.9h38.84v-28.9" stroke-width="7"/><path d="m730.39 107.67h-.02c-.57.02-11.65.66-11.65 14.93v9.93m24.87-25.25s11.66.28 11.66 14.93v9.92" stroke-width="7"/></g><path d="m0 0h850.394v850.394h-850.394z" fill="none"/></svg>