<svg height="850.394" viewBox="0 0 850.394 850.394" width="850.394" xmlns="http://www.w3.org/2000/svg"><path d="m0 0h850.394v850.394h-850.394z" fill="none"/><path d="m0 0h850.394v850.394h-850.394z" fill="none"/><path d="m759.729 253.557c0 47.627-19.574 91.392-51.178 140.706l-285.761 370.05-291.487-372.226c-31.648-49.269-51.222-93.079-51.222-140.706 0-95.254 78.253-172.442 174.794-172.442 108.88 0 167.915 117.757 167.915 117.757 21.66-71.017 83.225-115.626 162.189-115.626 96.496 0 174.75 77.189 174.75 172.487z" fill="#eedceb"/><path d="m422.79 196.697c21.66-71.018 83.225-115.627 162.189-115.627 96.496 0 174.75 77.188 174.75 172.486 0 47.627-19.574 91.392-51.178 140.706l-285.761 370.051-291.487-372.226c-31.648-49.269-51.222-93.079-51.222-140.706 0-95.254 78.253-172.442 174.794-172.442 108.88.001 167.915 117.758 167.915 117.758z" fill="none" stroke="#50264b" stroke-width="20.818"/></svg>