<svg height="850.394" viewBox="0 0 850.394 850.394" width="850.394" xmlns="http://www.w3.org/2000/svg"><path d="m545.97 407.76c-13.859 0-26.6.44-38.29 1.21-81.97 5.36-112.26 26.86-112.26 26.86-27.47 12.67-45.32 26.229-83.97 51.52-8.03 5.25-16.94 11.011-27.03 17.37-58.69 36.99-170.95 34.45-170.95 34.45s-26.79-47.2-37-130.14c-10.21-82.93 18.19-174.57 90.58-241.12 79.1-72.72 174.79-89.31 174.79-89.31 125.03-22.96 214.33-2.55 293.44 52.31 109.85 76.19 136.5 211.78 136.5 211.78l-26.79 15.31c-26.79 15.31-88.03 49.76-199.02 49.76z" fill="#394ea1"/><g fill="none"><g stroke="#231f20"><path d="m316.32 489.41 105.89 125.35m85.79-200.76-85.79 200.76v156.92" stroke-width="28"/><path d="m311.45 487.35c38.65-25.29 56.5-38.85 83.97-51.52 0 0 30.29-21.5 112.26-26.86 11.69-.77 24.431-1.21 38.29-1.21 110.99 0 172.23-34.45 199.021-49.76l26.79-15.31s-26.65-135.59-136.5-211.78c-79.111-54.86-168.411-75.27-293.441-52.31 0 0-95.69 16.59-174.79 89.31-72.39 66.55-100.79 158.19-90.58 241.12 10.21 82.94 37 130.14 37 130.14s112.26 2.54 170.95-34.45c10.09-6.36 19-12.12 27.03-17.37z" stroke-width="21"/></g><path d="m0 0h850.394v850.394h-850.394z"/></g></svg>