<svg height="850" viewBox="0 0 850 850" width="850" xmlns="http://www.w3.org/2000/svg"><path d="m428.8 706-1.8 1-5 2-6.7 3.5-3.8 2-4 2.5-4 2.5-4 3-3.7 3-3.3 3-2.7 3.5-1.3 1.5-1 1.8-1 1.7-.5 2-.5 1.8-.2 1.7v2.8l.2 2.7.3 2.8.5 2.5 1.5 5 1.7 4.5 2 4.2 2.3 3.5 2 3 1.7 2.5-2.7 2-81.8 1.8-5.2-6.8-4.5-6.7-3.8-6.3-2.7-6-2.3-5.5-1.7-5.2-1-5-.8-4.5-.2-4v-3.5l.2-3.3.3-2.5.7-3.5.3-1.2 52.7-132.3v-4.2h21.5l20.5-.5 19.3-1 18.5-1.3 17.2-1.5 16-1.7 14.8-1.8 13.5-1.7 12.2-2 10.8-1.8 17-3.2 10.5-2.3 3.5-.7.2-4.3h.8l.7 2.3 2 6.5 1 4.5 1.3 5.2 1.2 6 1 6.8.8 7 .5 7.7.2 8-.5 8.5-.7 8.5-.5 4.3-1 4.5-.8 4.2-1.2 4.5-1.3 4.3-1.7 4.5-1 3.2-1 3.8-.8 3.7-.5 4-.5 4.3-.5 4.5-.2 9.2.2 9.5.8 9.8.7 9.7 1 9.5 1.3 9.3 1.5 8.5 2.5 14.5 2 9.7.7 3.8-89.7 7-27.5-71.8z" fill="#7a7878"/><path d="m541 436.8-5.2.7-2.8-19.7-3-20.8-3.7-21.2-4.3-21-2.2-10.5-2.5-10.3-2.5-10-2.8-9.7-2.7-9.3-3-9-3-8.5-3.3-7.7-1.7-3.8-1.8-3.5-3.7-6.7-4.3-6.3-4.7-6-4.8-5.7-5.2-5.3-5.3-4.7-5.2-4.8-6.5-5-6.5-4.7-6.3-4-6-3.5-5.2-3-4.8-2.5-7.2-3.5 6-.5.5-1.3 1.7-3.7 2.8-5.5 2-3.3 2.2-3.5 2.8-3.7 3-3.5 3.2-3.8 3.8-3.5 4.2-3.2 4.5-3.3 5-2.7 5.5-2.3 10.8-4 5.2-1.5 5.3-1.5 4.7-1 5-.5h4.8l4.5.3 2.2.5 2.3.5 2.2.7 2.3 1 2 1.3 2.2 1.2 2.3 1.5 2 1.5 2.2 2 2 2 2 2.5 2.3 2.5 4 5.8 4 7 4.5 8.5 5 10.7 5.5 12.8 6 14 6 15.2 6.2 15.8 12.3 32.2 11.2 30.3 9.3 25.5 8.5 24 .2 1.2.3 1.8.2 2.2v2.5l-.2 3-.5 3.5-1.3 3.8-1.7 3.7-2.3 4.3-1.5 2-1.7 2.2-2 2-2.3 2.3-2.2 2-2.8 2.2-3 2-3.2 2-3.5 2-4 2-4.3 2-4.5 1.8-18 7-10.7 3.7-5.3 1.8-1 .2z" fill="#33a048"/><path d="m245.3 487.3 9.2 41.5-2.5.2-2.5.5-2 .8-2 .7-2 1-1.5 1.3-1.7 1.2-1.3 1.3-1.2 1.5-1.3 1.7-2 3.5-1.7 3.5-1.3 3.8-2.2 7.2-1.3 3.5-1 2.8-1 2.5-1.5 1.7-.7.8-.8.5-1 .2h-1l-2.2-.2-2.3-.5-2-.8-2-.7-1.7-1-1.8-1-1.7-1.3-1.5-1.5-3-3-2.5-3.2-2.3-3.8-2-3.7-1.7-3.8-1.5-3.7-2.3-7-2.5-9.3v-.5l.3-.7 1.2-1.8 2.3-2 3-2.5 3.7-2.5 4.3-3 9.7-5.7 10-6 9.5-5.5zm186.5-338.8v4.3l-.3 4-.5 4-.5 3.7-1.5 7.8-2 7.2-2.5 7-3 6.5-3.2 6.3-4 5.7-2.3 2.8-2.2 2.7-2.5 2.5-2.5 2.5-2.8 2.3-2.5 2-3 2-2.7 1.7-3 1.5-3 1.5-3.3 1-3 1-3.2.8-3.3.5-3.2.5h-7.3l-3.7-.5-3.5-.8-3.8-1-5-1.7-5-2.5-4.7-2.8-4.5-3.5-4.5-3.7-4-4.3-3.8-4.7-3.2-5-3.3-5.5-2.7-5.8-2.3-6-2-6.5-1.7-6.5-1-6.7-.8-7-.2-7.3v-4l.2-4.2.5-4 .5-4 .8-4 .7-4 1-3.8 1.3-3.7 1.2-3.5 1.5-3.5 1.5-3.5 1.5-3.3 1.8-3.2 2-3.3 2-2.7 2-3 2.2-2.8 2.3-2.5 2.5-2.5 2.5-2.2 2.5-2 2.7-2 2.8-1.8 2.7-1.7 3-1.5 3-1.3 3-1 3-1 3-.7 3.3-.5 3.2-.3h6.5l3.3.3 3.2.5 3 .7 3.3 1 3 1 2.7 1.3 3 1.5 2.8 1.7 2.7 1.8 2.8 2 2.5 2 2.5 2.2 2.5 2.5 2.2 2.5 2.3 2.8 2 3 2 2.7 2 3.3 1.7 3.2 1.5 3.3 1.8 3.5 1.2 3.5 1.3 3.5 1.2 3.7 1 3.8.8 4 .7 4 .5 4 .5 4 .3 4.2z" fill="#ffeec8"/><path d="m604.3 423.3 3 .3 3 .3 2.8.3 2.8.5 5.5 1.5 5.3 2 5 2.5 4.5 3 4.5 3.5 4 3.8 3.8 4.3 3.3 4.5 2.8 5 2.5 5 1.8 5.5 1.5 5.8.8 6 .5 6-.5 6-.8 6-1.5 5.8-1.8 5.3-2.5 5.3-2.8 5-3.3 4.5-3.8 4.3-4 3.8-4.7 2.9-4.5 3-5 2.5-5.3 2-5.5 1.5-2.8.5-2.8.3-3 .3-3 .3-2.8-.3-3-.3-2.8-.3-2.5-.5-5.5-1.5-5.3-2-5-2.5-4.8-3-4.3-3.5-4-3.8-3.8-4.3-3.3-4.5-3-5-2.3-5.3-2-5.3-1.3-5.8-1-6-.3-6 .3-6 1-6 1.3-5.8 2-5.5 2.3-5 3-5 3.3-4.5 3.8-4.3 4-3.8 4.3-3.5 4.8-3 5-2.5 5.3-2 5.5-1.5 2.8-.5 2.8-.3 3-.3zm33.2 59-.3-3.5-.5-3.3-.8-3.3-1-3-1.5-3-1.5-2.8-2-2.5-2-2.5-2.3-2-2.5-2-2.5-1.8-3-1.5-2.8-1-3.3-.8-3-.5-3.5-.3-3 .5-3 .5-3.3.8-2.8 1-3 1.5-2.5 1.8-2.5 2-2.3 2-2 2.5-2 2.5-1.5 2.8-1.5 3-1 3-.8 3.3-.5 3.3-.3 3.5.3 3.5.5 3.3.8 3.3 1 3 1.5 3 1.5 2.8 2 2.5 2 2.5 2.3 2 2.5 2 2.5 1.8 3 1.3 2.8 1.3 3.3.8 3 .5 3.3.3 3.5-.3 3-.5 3.3-.8 2.8-1.3 3-1.3 2.5-1.8 2.5-2 2.3-2 2-2.5 2-2.5 1.5-2.8 1.5-3 1-3 .8-3.3.5-3.3z" fill="#0d72ba"/><path d="m605.3 448.8 3.5.2 3 .5 3.2.8 2.8 1 3 1.5 2.5 1.7 2.5 2 2.2 2 2 2.5 2 2.5 1.5 2.8 1.5 3 1 3 .8 3.2.5 3.3.2 3.5-.2 3.5-.5 3.2-.8 3.3-1 3-1.5 3-1.5 2.7-2 2.5-2 2.5-2.2 2-2.5 2-2.5 1.8-3 1.2-2.8 1.3-3.2.7-3 .5-3.5.3-3.3-.3-3-.5-3.2-.7-2.8-1.3-3-1.2-2.5-1.8-2.5-2-2.2-2-2-2.5-2-2.5-1.5-2.7-1.5-3-1-3-.8-3.3-.5-3.2-.2-3.5.2-3.5.5-3.3.8-3.2 1-3 1.5-3 1.5-2.8 2-2.5 2-2.5 2.2-2 2.5-2 2.5-1.7 3-1.5 2.8-1 3.2-.8 3-.5z" fill="#0d72ba"/><path d="m420.8 206.8 7.2 3.5 4.8 2.5 5.2 3 6 3.5 6.3 4 6.5 4.7 6.5 5-5.3-1-4.5-.5-5.5-.7-6.2-.3-6.8.3-3.5.2-3.7.5-3.8.5-3.7.8-3.8 1.2-3.7 1.3-3.8 1.2-3.7 2-3.5 2-3.5 2.3-3.5 2.7-3.3 3-3.2 3.3-2.8 3.7-2.7 4.3-2.5 4.5-2.3 5-2 5.5-1.7 5.7-1.3 6.5-1.5 9.3-1.2 9.2-1 9.3-.8 9.5-.5 9.2-.2 9-.3 17.5.3 15.8.7 13.2.5 10.5.5 6.8-2.7 17-37.3 17.2-.5-14.5-.7-30.7v-39.8l.5-21.2.7-20.5.8-10 1.2-9.5 1.3-9 1.7-8.3 2-7.5 2-7 2-6.2 2-5.8 2-5 2-4.2 3.5-6.8 2.5-4 .8-1.5.2-1 3.8 1 3.5.8 3.7.5h7.3l3.2-.5 3.3-.5 3.2-.8 3-1 3.3-1 3-1.5 3-1.5 2.7-1.7 3-2 2.5-2 2.8-2.3 2.5-2.5 2.5-2.5 2.2-2.7 2.3-2.8 3 .3z" fill="#a9d7f3"/><path d="m369.5 406.3 4.5-25.5 6-30.8 3.3-16 3.5-15.2 3.5-14.3 3.2-12.5 1.3-3.5 1.5-3.5 1.2-3.2 1.8-2.8 1.5-2.7 1.7-2.3 1.8-2.2 2-2 2-1.8 1.7-1.5 2-1.2 2-1 4-2 4-1.3 3.8-.7 3.5-.3h3.2l3 .3 4 .5 1.5.2 1 .5 2.5 1.8 1.8 1.2 2 1.5 2 2 2.2 2.5 2.5 3 2.3 3.3 2.2 4 2 4.2 2 5 1.8 5.8 1.5 6 1.2 7 .8 8.2.5 10-.3 11.3-.5 12.2-.7 13-1.5 13.5-1.8 14-2.2 13.8-2.8 13.5-1.5 6.5-1.5 6.2-1.7 6.3-2 6-2 5.5-2 5.5-2.3 5-2.2 4.7-2.5 4.3-2.8 3.7-2.5 3.3-2.7 3-3 2.2-3 1.8-7 3-9 3.2-10.5 3.5-12 3.8-26.5 7.7-28.3 7.8-29.7 8-25.3 6.5-24.2 6-.8-3-9.2-41.5-1.5-7 85.7-39.8 37.3-17.2z" fill="#a9d7f3"/><path d="m539.3 471.8 1 15.2.7 13.8.3 13 .2 11.2-.2 10.3-.3 8.5-.5 11.7-.2 4.3-3.5.7-10.5 2.3-17 3.2-10.8 1.8-12.2 2-13.5 1.7-14.8 1.8-16 1.7-17.2 1.5-18.5 1.3-19.3 1-20.5.5h-25.5l-2.2-65-4.3-3 28.3-7.8 26.5-7.7 12-3.8 10.5-3.5 9-3.2 7-3 3-1.8 3-2.2 2.7-3 2.5-3.3 2.8-3.7 2.5-4.3 2.2-4.7 2.3-5 2-5.5 2-5.5 2-6 1.7-6.3 1.5-6.2 1.5-6.5 2.8-13.5 2.2-13.8 1.8-14 1.5-13.5.7-13 .5-12.2.3-11.3-.5-10-.8-8.2-1.2-7-1.5-6-1.8-5.8-2-5-2-4.2-2.2-4-2.3-3.3-2.5-3-2.2-2.5-2-2-2-1.5-1.8-1.2-2.5-1.8-1-.5-1.5-.2-4-.5-3-.3h-3.2l-3.5.3-3.8.7-4 1.3-4 2-2 1-2 1.2-1.7 1.5-2 1.8-2 2-1.8 2.2-1.7 2.3-1.5 2.7-1.8 2.8-1.2 3.2-1.5 3.5-1.3 3.5-3.2 12.5-3.5 14.3-3.5 15.2-3.3 16-6 30.8-4.5 25.5-.5-6.8-.5-10.5-.7-13.2-.3-15.8.3-17.5.2-9 .5-9.2.8-9.5 1-9.3 1.2-9.2 1.5-9.3 1.3-6.5 1.7-5.7 2-5.5 2.3-5 2.5-4.5 2.7-4.3 2.8-3.7 3.2-3.3 3.3-3 3.5-2.7 3.5-2.3 3.5-2 3.7-2 3.8-1.2 3.7-1.3 3.8-1.2 3.7-.8 3.8-.5 3.7-.5 3.5-.2 6.8-.3 6.2.3 5.5.7 4.5.5 5.3 1 5.2 4.8 5.3 4.7 5.2 5.3 4.8 5.7 4.7 6 4.3 6.3 3.7 6.7 1.8 3.5 1.7 3.8 3.3 7.7 3 8.5 3 9 2.7 9.3 2.8 9.7 2.5 10 2.5 10.3 2.2 10.5 4.3 21 3.7 21.2 3 20.8 2.8 19.7 2 18z" fill="#a9d7f3"/><g fill="none" stroke="#231f20" stroke-linecap="round" stroke-miterlimit="10" stroke-width="14"><path d="m353.5 228-5-1.7-5-2.5-4.7-2.8-4.5-3.5-4.5-3.7-4-4.3-3.8-4.7-3.2-5-3.3-5.5-2.7-5.8-2.3-6-2-6.5-1.7-6.5-1-6.7-.8-7-.2-7.3v-4l.2-4.2.5-4 .5-4 .8-4 .7-4 1-3.8 1.3-3.7 1.2-3.5 1.5-3.5 1.5-3.5 1.5-3.3 1.8-3.2 2-3.3 2-2.7 2-3 2.2-2.8 2.3-2.5 2.5-2.5 2.5-2.2 2.5-2 2.7-2 2.8-1.8 2.7-1.7 3-1.5 3-1.3 3-1 3-1 3-.7 3.3-.5 3.2-.3h6.5l3.3.3 3.2.5 3 .7 3.3 1 3 1 2.7 1.3 3 1.5 2.8 1.7 2.7 1.8 2.8 2 2.5 2 2.5 2.2 2.5 2.5 2.2 2.5 2.3 2.8 2 3 2 2.7 2 3.3 1.7 3.2 1.5 3.3 1.8 3.5 1.2 3.5 1.3 3.5 1.2 3.7 1 3.8.8 4 .7 4 .5 4 .5 4 .3 4.2v8.3l-.3 4-.5 4-.5 3.7-1.5 7.8-2 7.2-2.5 7-3 6.5-3.2 6.3-4 5.7-2.3 2.8-2.2 2.7-2.5 2.5-2.5 2.5-2.8 2.3-2.5 2-3 2-2.7 1.7-3 1.5-3 1.5-3.3 1-3 1-3.2.8-3.3.5-3.2.5h-7.3l-3.7-.5-3.5-.8zm-.2 1-.8 1.5-2.5 4-3.5 6.8-2 4.2-2 5-2 5.8-2 6.2-2 7-2 7.5-1.7 8.3-1.3 9-1.2 9.5-.8 10-.7 20.5-.5 21.2v39.8l.7 30.7.5 14.5v.5m87.8-235.7 3.5 1.5 7.2 3.5 4.8 2.5 5.2 3 6 3.5 6.3 4 6.5 4.7 6.5 5 5.2 4.8 5.3 4.7 5.2 5.3 4.8 5.7 4.7 6 4.3 6.3 3.7 6.7 1.8 3.5 1.7 3.8 3.3 7.7 3 8.5 3 9 2.7 9.3 2.8 9.7 2.5 10 2.5 10.3 2.2 10.5 4.3 21 3.7 21.2 3 20.8 2.8 19.7 2 18 1.5 16.3 1 15.2.7 13.8.3 13 .2 11.2-.2 10.3-.3 8.5-.5 11.7-.2 4.3-3.5.7-10.5 2.3-17 3.2-10.8 1.8-12.2 2-13.5 1.7-14.8 1.8-16 1.7-17.2 1.5-18.5 1.3-19.3 1-20.5.5h-25.5l-2.2-65"/><path d="m426.8 206.3.5-1.3 1.7-3.7 2.8-5.5 2-3.3 2.2-3.5 2.8-3.7 3-3.5 3.2-3.8 3.8-3.5 4.2-3.2 4.5-3.3 5-2.7 5.5-2.3 10.8-4 5.2-1.5 5.3-1.5 4.7-1 5-.5h4.8l4.5.3 2.2.5 2.3.5 2.2.7 2.3 1 2 1.3 2.2 1.2 2.3 1.5 2 1.5 2.2 2 2 2 2 2.5 2.3 2.5 4 5.8 4 7 4.5 8.5 5 10.7 5.5 12.8 6 14 6 15.2 6.2 15.8 12.3 32.2 11.2 30.3 9.3 25.5 8.5 24 .2 1.2.3 1.8.2 2.2v2.5l-.2 3-.5 3.5-1.3 3.8-1.7 3.7-2.3 4.3-1.5 2-1.7 2.2-2 2-2.3 2.3-2.2 2-2.8 2.2-3 2-3.2 2-3.5 2-4 2-4.3 2-4.5 1.8-18 7-10.7 3.7-5.3 1.8-1 .2-.5-.2.5-.5 1.3-.8 1.7-.7m116.8 48-.5 6-.8 6-1.5 5.7-1.7 5.3-2.5 5.2-2.8 5-3.2 4.5-3.8 4.3-4 3.7-4.5 3.5-4.5 3-5 2.5-5.2 2-5.5 1.5-2.8.5-2.7.3-3 .2-3 .3-2.8-.3-3-.2-2.7-.3-2.8-.5-5.5-1.5-5.2-2-5-2.5-4.8-3-4.2-3.5-4-3.7-3.8-4.3-3.2-4.5-3-5-2.3-5.2-2-5.3-1.2-5.7-1-6-.3-6 .3-6 1-6 1.2-5.8 2-5.5 2.3-5 3-5 3.2-4.5 3.8-4.2 4-3.8 4.2-3.5 4.8-3 5-2.5 5.2-2 5.5-1.5 2.8-.5 2.7-.2 3-.3 2.8-.2 3 .2 3 .3 2.7.2 2.8.5 5.5 1.5 5.2 2 5 2.5 4.5 3 4.5 3.5 4 3.8 3.8 4.2 3.2 4.5 2.8 5 2.5 5 1.7 5.5 1.5 5.8.8 6z"/><path d="m637.5 482.3-.2 3.5-.5 3.2-.8 3.3-1 3-1.5 3-1.5 2.7-2 2.5-2 2.5-2.2 2-2.5 2-2.5 1.8-3 1.2-2.8 1.3-3.2.7-3 .5-3.5.3-3.3-.3-3-.5-3.2-.7-2.8-1.3-3-1.2-2.5-1.8-2.5-2-2.2-2-2-2.5-2-2.5-1.5-2.7-1.5-3-1-3-.8-3.3-.5-3.2-.2-3.5.2-3.5.5-3.3.8-3.2 1-3 1.5-3 1.5-2.8 2-2.5 2-2.5 2.2-2 2.5-2 2.5-1.7 3-1.5 2.8-1 3.2-.8 3-.5 3.3-.2 3.5.2 3 .5 3.2.8 2.8 1 3 1.5 2.5 1.7 2.5 2 2.2 2 2 2.5 2 2.5 1.5 2.8 1.5 3 1 3 .8 3.2.5 3.3zm-303 29 28.3-7.8 26.5-7.7 12-3.8 10.5-3.5 9-3.2 7-3 3-1.8 3-2.2 2.7-3 2.5-3.3 2.8-3.7 2.5-4.3 2.2-4.7 2.3-5 2-5.5 2-5.5 2-6 1.7-6.3 1.5-6.2 1.5-6.5 2.8-13.5 2.2-13.8 1.8-14 1.5-13.5.7-13 .5-12.2.3-11.3-.5-10-.8-8.2-1.2-7-1.5-6-1.8-5.8-2-5-2-4.2-2.2-4-2.3-3.3-2.5-3-2.2-2.5-2-2-2-1.5-1.8-1.2-2.5-1.8-1-.5-1.5-.2-4-.5-3-.3h-3.2l-3.5.3-3.8.7-4 1.3-4 2-2 1-2 1.2-1.7 1.5-2 1.8-2 2-1.8 2.2-1.7 2.3-1.5 2.7-1.8 2.8-1.2 3.2-1.5 3.5-1.3 3.5-3.2 12.5-3.5 14.3-3.5 15.2-3.3 16-6 30.8-4.5 25.5-2.7 17-37.3 17.2-85.7 39.8 1.5 7 9.2 41.5.8 3 24.2-6 25.3-6.5z"/><path d="m246.8 486.3-1.5 1-13.3 7-9.5 5.5-10 6-9.7 5.7-4.3 3-3.7 2.5-3 2.5-2.3 2-1.2 1.8-.3.7v.5l2.5 9.3 2.3 7 1.5 3.7 1.7 3.8 2 3.7 2.3 3.8 2.5 3.2 3 3 1.5 1.5 1.7 1.3 1.8 1 1.7 1 2 .7 2 .8 2.3.5 2.2.2h1l1-.2.8-.5.7-.8 1.5-1.7 1-2.5 1-2.8 1.3-3.5 2.2-7.2 1.3-3.8 1.7-3.5 2-3.5 1.3-1.7 1.2-1.5 1.3-1.3 1.7-1.2 1.5-1.3 2-1 2-.7 2-.8 2.5-.5 2.5-.2h.8m-34.3 40.2 15.5 200.8m304.8-214.3.7 2.3 2 6.5 1 4.5 1.3 5.2 1.2 6 1 6.8.8 7 .5 7.7.2 8-.5 8.5-.7 8.5-.5 4.3-1 4.5-.8 4.2-1.2 4.5-1.3 4.3-1.7 4.5-1 3.2-1 3.8-.8 3.7-.5 4-.5 4.3-.5 4.5-.2 9.2.2 9.5.8 9.8.7 9.7 1 9.5 1.3 9.3 1.5 8.5 2.5 14.5 2 9.7.7 3.8m-203.5-186.3-52.7 132.3-.3 1.2-.7 3.5-.3 2.5-.2 3.3v3.5l.2 4 .8 4.5 1 5 1.7 5.2 2.3 5.5 2.7 6 3.8 6.3 4.5 6.7 5.2 6.8m86.8-1-2.3-2.8-1.7-2.5-2-3-2.3-3.5-2-4.2-1.7-4.5-1.5-5-.5-2.5-.3-2.8-.2-2.7v-2.8l.2-1.7.5-1.8.5-2 1-1.7 1-1.8 1.3-1.5 2.7-3.5 3.3-3 3.7-3 4-3 4-2.5 4-2.5 3.8-2 6.7-3.5 5-2 1.8-1m-21.8-64.7 24.3 63.7 27.5 71.8m5-543.5-.5-.3-5.3-1-4.5-.5-5.5-.7-6.2-.3-6.8.3-3.5.2-3.7.5-3.8.5-3.7.8-3.8 1.2-3.7 1.3-3.8 1.2-3.7 2-3.5 2-3.5 2.3-3.5 2.7-3.3 3-3.2 3.3-2.8 3.7-2.7 4.3-2.5 4.5-2.3 5-2 5.5-1.7 5.7-1.3 6.5-1.5 9.3-1.2 9.2-1 9.3-.8 9.5-.5 9.2-.2 9-.3 17.5.3 15.8.7 13.2.5 10.5.5 6.8.3 2.5"/></g></svg>