<svg height="850.394" viewBox="0 0 850.394 850.394" width="850.394" xmlns="http://www.w3.org/2000/svg"><path d="m591.25 598.39c12.21 0 22.1 9.9 22.1 22.101 0 12.21-9.89 22.1-22.1 22.1s-22.1-9.89-22.1-22.1c0-12.201 9.89-22.101 22.1-22.101zm-269.47 129.21c12.21 0 22.1 9.891 22.1 22.101s-9.89 22.1-22.1 22.1-22.1-9.89-22.1-22.1 9.89-22.101 22.1-22.101zm-119.86-106.26c12.21 0 22.1 9.9 22.1 22.101 0 12.21-9.89 22.1-22.1 22.1-12.2 0-22.1-9.89-22.1-22.1 0-12.201 9.9-22.101 22.1-22.101zm333.23-230.34v41.61c0 1-.11 1.97-.311 2.909-1.41 6.601-7.54 11.561-14.88 11.561h-10.44c-8.38 0-15.18-6.48-15.18-14.47v-41.61c0-7.99 6.8-14.48 15.18-14.48h10.441c8.39 0 15.19 6.49 15.19 14.48zm-235.47-210.16 101.44 34.17v25.51l-16.9-4.14-91.91-22.5-86.19 13.55-3.92.62-.56-23.8 93.51-24.94z" fill="#797878"/><path d="m394.04 241.37s3.4 33.15.85 75.65-.24 140.71-70.56 159.81c-78.2 21.25-117.31-34.85-118.16-123.26-.26-26.85-2.55-35.7 0-125.81l11.9-1.7s5.1 187.02 71.41 191.27c70.59 4.52 86.7-91.81 94.35-179.36z" fill="#34a047"/><g fill="none"><g stroke="#000"><path d="m299.68 180.84-4.53-1.53-93.51 24.94.56 23.8 3.92-.62 86.19-13.55 91.91 22.5 16.9 4.14v-25.51z" stroke-width="14"/><path d="m584.73 171.09s-86.471-56.18-123.54-81.6c-39.67-27.2-63.47-3.4-63.47-3.4l-98.04 74.24v21.53m287.89-26.07-28.3 161.13-20.93 119.21-25.01 142.43" stroke-width="21"/><path d="m224.02 630.69 191.83-70.83 56.39.279 85.859 46.75s16.801 21.19-10.77 34.57c-59.5 28.91-202.32 94.08-202.32 94.08" stroke-linecap="round" stroke-linejoin="round" stroke-width="28"/><path d="m514.74 157.21v219.31" stroke-width="13.601"/><path d="m514.74 376.52h5.22c8.39 0 15.19 6.49 15.19 14.48v41.61c0 1-.11 1.97-.311 2.909-1.41 6.601-7.54 11.561-14.88 11.561h-10.44c-8.38 0-15.18-6.48-15.18-14.47v-41.61c0-7.99 6.8-14.48 15.18-14.48zm-130.91-138.55c-7.65 87.55-23.76 183.88-94.35 179.36-66.31-4.25-71.41-191.27-71.41-191.27l-11.9 1.7c-2.55 90.11-.26 98.96 0 125.81.85 88.411 39.96 144.51 118.16 123.26 70.32-19.1 68.01-117.31 70.56-159.81s-.85-75.65-.85-75.65z" stroke-width="14"/><path d="m520.69 308.52 38.58 8.4 47.28 10.3 55.25-67.15-18.7-81.61m-136.2 127.36 7.84-9.53 34.01-41.32-18.71-81.61m-306.02 470.08c0 12.21-9.89 22.1-22.1 22.1-12.2 0-22.1-9.89-22.1-22.1 0-12.2 9.9-22.101 22.1-22.101 12.21.001 22.1 9.901 22.1 22.101zm119.86 106.26c0 12.21-9.89 22.1-22.1 22.1s-22.1-9.89-22.1-22.1 9.89-22.101 22.1-22.101c12.21.001 22.1 9.891 22.1 22.101zm269.47-129.21c0 12.21-9.89 22.1-22.1 22.1s-22.1-9.89-22.1-22.1c0-12.2 9.89-22.101 22.1-22.101s22.1 9.901 22.1 22.101z" stroke-linecap="round" stroke-linejoin="round" stroke-width="21"/></g><path d="m0 0h850.394v850.394h-850.394z"/></g></svg>