<svg height="850.394" viewBox="0 0 850.394 850.394" width="850.394" xmlns="http://www.w3.org/2000/svg"><path d="m699.89 718.8-612.17-114.34 152.61-40.21 203.49 64.58 40.609 14.27 50.271 17.66zm-268.42-69.66c0-4.37-8.65-7.92-19.32-7.92s-19.32 3.55-19.32 7.92c0 4.38 8.65 7.931 19.32 7.931s19.32-3.551 19.32-7.931zm-156.02-50.52c0-4.38-8.65-7.92-19.32-7.92s-19.32 3.54-19.32 7.92 8.65 7.93 19.32 7.93 19.32-3.55 19.32-7.93z" fill="#ffffc2"/><path d="m453.81 545.35c8.79 2.96 12.561 15.311 8.431 27.58-4.13 12.271-14.62 19.82-23.42 16.86-8.78-2.97-12.551-15.32-8.41-27.59 4.129-12.27 14.609-19.81 23.399-16.85z" fill="#7a7878"/><g fill="#33a048"><path d="m431.51 606.19c3.561 9.989 8.44 20.159 14.13 22.6l-.25.54-1.569-.5-203.49-64.58s-29.39-9.98-29.39-29.4l1.26-1.479c6.03 3.479 11.17 4.63 11.17 4.63l207.07 68.58zm156.65-36.61c3.35 3.35 6.54 12.96 6.54 24.15 0 18.899 1.399 30.789-21 46.189-3.5 2.41-20.87 11.96-38.75 20.12l-.25.72-50.27-17.659.49-1.38c14.08-5.42 34.1-14.17 51.46-21.489 45.22-19.08 55.04-36.061 51.13-50.461z"/><path d="m445.64 628.79c.841.35 1.681.54 2.551.54 13.31 0 90.64-34.99 94.489-38.84 3.851-3.851-8.399-36.391-20.3-42.7-10.02-5.3-15.08-12.09-11.399-25.82l.02.011s45.32 10.42 64.57 29.659c5.47 5.471 10.14 11.53 11.939 18.13 3.91 14.4-5.91 31.381-51.13 50.461-17.36 7.319-37.38 16.069-51.46 21.489l-.49 1.38-40.609-14.27 1.569.5z"/><path d="m425.29 584.44c-5.76-12.631-5.67-32.69 5.05-53.79 16.19-31.841 32.55-60.891 78.75-123.88 12.16-16.59 20.9-29.76 27.18-40.16l.131-.48c8.149 2.15 16.029 3.6 23.75 4.27l-.07.86c-6.41 42.29-46.1 142.24-46.1 142.24-1.33 3.09-2.32 5.9-3 8.47-3.681 13.73 1.38 20.521 11.399 25.82 11.9 6.31 24.15 38.85 20.3 42.7s-81.18 38.84-94.489 38.84c-.87 0-1.71-.19-2.551-.54-5.689-2.44-10.569-12.61-14.13-22.6-3.92-10.99-6.22-21.75-6.22-21.75zm5.12-22.24c-4.141 12.27-.37 24.62 8.41 27.59 8.8 2.96 19.29-4.59 23.42-16.86s.359-24.62-8.431-27.58-19.269 4.58-23.399 16.85z"/><path d="m536.4 366.13-.131.48c-6.279 10.4-15.02 23.57-27.18 40.16-46.2 62.99-62.56 92.04-78.75 123.88-10.72 21.1-10.81 41.159-5.05 53.79 0 0 2.3 10.76 6.22 21.75l-1.069.39-207.07-68.58s-5.14-1.15-11.17-4.63c-7.27-4.19-15.84-11.76-18.22-24.771 0 0-7.19-13.64 3.31-34.64s101.83-141.72 101.83-141.72 5.67-6.73 15.85-15.78c7.75 4.15 21.36 4.41 38.32 4.84 29.36.74 87.04 3 123.38 20.9 22.29 10.981 41.7 19.181 59.73 23.931z"/></g><path d="m458.92 257.98c21.26-16.68 9.78-37.65-20.83-39.94-30.7-2.3-62.98-1.2-62.98-1.2l-64.17 50.05c-12.48 6.96-54.75 48.28-79.16 9.34-3.04-4.82 52.19-51.86 103.21-108.76 22.05-24.64 146.21-35.32 161.41-33.84 18.859 1.94 106.899 44.94 164.54 63.15 11.069 3.46 63.699 18.51 100.72 18.05l-5.65 152.9c-23.04-8.37-72.399-27.58-90.779-25.58-18.62 2.05-54.961 22.49-72.94 26.36-10.68 2.27-21.271 2.84-32.14 1.89-7.721-.67-15.601-2.12-23.75-4.27-18.03-4.75-37.44-12.95-59.73-23.93-36.34-17.9-94.02-20.16-123.38-20.9-16.96-.43-30.57-.69-38.32-4.84-6.45-3.44-8.84-9.58-5.72-20.74 7.03-25.04 46-44.29 83.87-36.43 15.239 3.16 50.439 4.28 65.799-1.31z" fill="#ffeec8"/><g fill="none" stroke="#231f20"><g stroke-width="14"><path d="m445.39 629.33-1.569-.5-203.49-64.58s-29.39-9.98-29.39-29.4m325.329-168.24c-6.279 10.4-15.02 23.57-27.18 40.16-46.2 62.99-62.56 92.04-78.75 123.88-10.72 21.1-10.81 41.159-5.05 53.79 0 0 2.3 10.76 6.22 21.75 3.561 9.989 8.44 20.159 14.13 22.6.841.35 1.681.54 2.551.54 13.31 0 90.64-34.99 94.489-38.84 3.851-3.851-8.399-36.391-20.3-42.7-10.02-5.3-15.08-12.09-11.399-25.82.68-2.569 1.67-5.38 3-8.47 0 0 39.689-99.95 46.1-142.24m-129.641 235.32-207.07-68.58s-5.14-1.15-11.17-4.63c-7.27-4.19-15.84-11.76-18.22-24.771 0 0-7.19-13.64 3.31-34.64s101.83-141.72 101.83-141.72 5.67-6.73 15.85-15.78c.49-.43 1-.87 1.51-1.32"/><path d="m462.24 572.93c-4.13 12.271-14.62 19.82-23.42 16.86-8.78-2.97-12.551-15.32-8.41-27.59 4.13-12.271 14.609-19.811 23.399-16.851s12.561 15.311 8.431 27.581zm48.76-50.95s45.32 10.42 64.57 29.659c5.47 5.471 10.14 11.53 11.939 18.13 3.91 14.4-5.91 31.381-51.13 50.461-17.359 7.32-37.379 16.07-51.459 21.49"/><path d="m534.95 660.04c17.88-8.16 35.25-17.71 38.75-20.12 22.399-15.4 21-27.29 21-46.189 0-11.19-3.19-20.801-6.54-24.15m172.91-200.051c-1.49-.52-3.19-1.13-5.061-1.8-23.04-8.37-72.399-27.58-90.779-25.58-18.62 2.05-54.961 22.49-72.94 26.36-10.68 2.27-21.271 2.84-32.14 1.89-7.721-.67-15.601-2.12-23.75-4.27-18.03-4.75-37.44-12.95-59.73-23.93-36.34-17.9-94.02-20.16-123.38-20.9-16.96-.43-30.57-.69-38.32-4.84-6.45-3.44-8.84-9.58-5.72-20.74 7.03-25.04 46-44.29 83.87-36.43 15.24 3.16 50.439 4.28 65.8-1.31 11.69-4.26 18.91-23.37 26.39-31.93"/><path d="m458.92 257.98c21.26-16.68 9.78-37.65-20.83-39.94-30.7-2.3-62.98-1.2-62.98-1.2l-64.17 50.05c-12.48 6.96-54.75 48.28-79.16 9.34-3.04-4.82 52.19-51.86 103.21-108.76 22.05-24.64 146.21-35.32 161.41-33.84 18.859 1.94 106.899 44.94 164.54 63.15 11.069 3.46 63.699 18.51 100.72 18.05m-673.94 389.63 152.61-40.21m195.06 61.62 8.43 2.96 40.61 14.27 50.27 17.66 165.19 58.04"/></g><ellipse cx="256.13" cy="598.62" rx="19.32" ry="7.93" stroke-width="7"/><path d="m431.47 649.14c0 4.38-8.65 7.931-19.32 7.931s-19.32-3.551-19.32-7.931c0-4.37 8.65-7.92 19.32-7.92s19.32 3.55 19.32 7.92z" stroke-width="7"/></g><path d="m0 0h850.394v850.394h-850.394z" fill="none"/></svg>