<svg height="850" viewBox="0 0 850 850" width="850" xmlns="http://www.w3.org/2000/svg"><path d="m619.4 397.3 62 120.2-161.8 83.5-62-120.5zm-7.5 187.2 62 120.5-161.8 83.3-62-120.3z" fill="#7a7878"/><path d="m554.9 296 .2.5.3.8v1l-.3.7-.5 1.5-.7 1.5-1 .8-.5.2h-.5l.5.5.5.8.2.7-.2 1-.5 1.3-.8 1.2-1 1-.7.5-.3.3v1l-.2 1-.8.5-1.2.2h-.8l-1-.5-3-1.2-4.5-1.8-2.7-1-3.3-.7-4.2-1-4-.5-1.8-.5-1.5-.5-1.5-.8-1.2-1-2.3-2.5-2.2-2.7-2.3-3.5-3.2-4 12.5-19.8 7.2.8 3.3.5 1.5.2 1.2.5 2.5 2 5.5 4.3 3.3 2.5 3.2 2.7 2.8 2.8 2 2.7.7 1.3.5 1.5z" fill="#ffeec8"/><path d="m520.4 271-12.5 19.8-.3.7-72.2-35-.8-.7-1.5-1.3-2-2-2.5-3-3.5-4.5-4.5-5.7-5.2-7.3 4 40.8 1.5 18.5 1 14.2v1.5l-.3 1.8-1 2-1.2 1.7-1.5 2-2 1.8-2.5 1.5-2.8 1.7-2.7 1.5-3.3 1.3-3.5 1.5-3.7 1-7.8 2.2-8.2 1.8-8.5 1.5-8.5 1-8.3.7-7.7.3-7-.3-6-.5-2.8-.5-2.2-.5-2-.7-1.5-.8-1.3-.7-.7-1-.3-1.3-2-12.5-4.5-27.7-3.5-22.3-3.2-22.5-1.5.3-15.8 25.5-65.2 52.2-2.8-2.7-15-16 48.5-56.5 25.5-53.5.8-1.5 2-3.5 3.2-5 2-3 2.3-3 2.5-3 3-3.3 3-2.7 3.2-3 3.5-2.5 3.8-2 3.7-1.8 4.3-1.2 2.7-3.3 3 3.3 3.3 3 3.5 2.5 3.5 2 4 1.7 3.7 1.3 4.3.7 4.2.3h2.3l2.2-.3 2.5-.5 2.3-.5 4.2-1.5 4.3-2 3.7-2.5 3.8-3 3.5-3.5 3-4 4 .8 4 1.2 3.7 1.5 3.8 1.8 3.7 2.2 3.3 2.3 3.2 2.5 2.8 2.2 5.2 5 3.8 4 3.2 4 32.3 43.3 62 50.5z" fill="#f6cc4b"/><path d="m426.4 495.5 62 120.5-161.8 83.3-62-120.5 90.5-46.5.3 3.7v4l-.3 3.8-.2 3.5-1.3 7-1.2 6-1.5 5.2-1.3 4-1.2 3.3v.7l.2 1.8.3 1.2.2 1.3.8 1.2 1 1.3 1.2 1 1.5 1.2 3.8 2.5 4.5 2.8 2 1.7 2.2 2 2.5 2 2.3 2 2.5 1.8 2.2 1.5 2.3 1.2 2.2 1 2.3 1 2 .8 4 .7 4 .3 3.5-.3 3.2-.5 2.8-1 2.5-1.5 2.2-1.5 1.8-1.5 1.2-1.5 1-1.5.3-1.5v-1l-1-2-1.5-1.7-4.5-4.8-3-3-3.3-4-3.7-5-4.5-6.2-.8-1.5-1-2-1.2-4.3-1.3-5.2-.7-6-.5-6.8-.5-7v-7.2l.2-7.8z" fill="#7a7878"/><path d="m394.1 410.8-.2.2.2 4.5-.2 5.3v6.7l-.5 7.8-.8 9-1.2 9.2-2 9.8-1 5-1 6-1.8 13.2-1.2 14.8-.5 7.7-.3 7.5-.2 7.8v7.2l.5 7 .5 6.8.7 6 1.3 5.2 1.2 4.3 1 2 .8 1.5 4.5 6.2 3.7 5 3.3 4 3 3 4.5 4.8 1.5 1.7 1 2v1l-.3 1.5-1 1.5-1.2 1.5-1.8 1.5-2.2 1.5-2.5 1.5-2.8 1-3.2.5-3.5.3-4-.3-4-.7-2-.8-2.3-1-2.2-1-2.3-1.2-2.2-1.5-2.5-1.8-2.3-2-2.5-2-2.2-2-2-1.7-4.5-2.8-3.8-2.5-1.5-1.2-1.2-1-1-1.3-.8-1.2-.2-1.3-.3-1.2-.2-1.8v-.7l1.2-3.3 1.3-4 1.5-5.2 1.2-6 1.3-7 .2-3.5.3-3.8v-4l-.3-3.7-.7-5.8-.5-2.7-.8-3-.7-1-1.5-3.3-2-5-1-3-1-3.5-1-4-.8-4.2-.5-4.5-.5-4.8v-5l.3-5.2.5-5.5 1.2-5.8 1-5.5.8-5.2.5-4.8.2-4.5-.2-4.2-.3-4.3-.5-4-1-3.7-1-4-1-4-3-8.3-3.2-9.2-3.8-10.3-1.7-5.5-1.5-5.7-1.3-5.5-1-5.3-.7-5.2-.8-5-.7-9.3-.5-8v-6l.2-5.2.3-.3-1.3-2.7-1.2-2.8.5-.2.7 1 1.3.7 1.5.8 2 .7 2.2.5 2.8.5 6 .5 7 .3 7.7-.3 8.3-.7 8.5-1 8.5-1.5 8.2-1.8 7.8-2.2 3.7-1 3.5-1.5 3.3-1.3 2.7-1.5 2.8-1.7 2.5-1.5 2-1.8 1.5-2 1.2-1.7 1-2h.3l3.5 42.5 2.2 30.7.8 11.3.2 6-.2 1.7-.3 1.5-.5 1.8-.5 1.2-1.7 2.8-2 2.2-2.3 2-2.5 1.8-2.7 1.2-3 1-3 .5-3 .3h-2.8l-2.7-.5-2.3-1-2-1.3-1-.7-.7-1-.8-1z" fill="#9e5c26"/><path d="m386.4 148.5-3 4-3.5 3.5-3.8 3-3.7 2.5-4.3 2-4.2 1.5-2.3.5-2.5.5-2.2.3h-2.3l-4.2-.3-4.3-.7-3.7-1.3-4-1.7-3.5-2-3.5-2.5-3.3-3-3-3.3-2.7-3.7-2.8-4-2.2-4.5-1.8-4.8-1.7-5-1-5.2-.8-5.5-.2-5.5.2-5.5.8-5.3 1-5.2 1.5-4.8 1.7-4.7 2-4.3 2.5-4.2 2.8-3.8 3-3.2 3.2-3.3 3.8-2.5 3.5-2.2 4-1.8 4-1.5 4.2-.7 4.5-.3 4.3.3 4.2.7 4.3 1.5 3.7 1.8 3.8 2.2 3.5 2.5 3.2 3.3 3 3.2 2.8 3.8 2.5 4.2 2.2 4.3 1.8 4.7 1.5 4.8 1 5.2.5 5.3.2 5.5v5l-.7 4.7-.8 4.8-1.2 4.7-1.8 4.3-1.7 4.2-2.3 4z" fill="#ffeec8"/><path d="m324.9 327.3-.5.2-2-2.5-1-1.2-1-1-1.3-.8-1.2-.7-1.5-.5-1.5-.5-1.8-.3h-3.7l-2 .3-4.5.7-5.3 1.8-4.5 1.5-4 1-3.5.5-3.2.2h-2.8l-2.2-.5-2-.5-1.8-.7-1.2-1-1-1-.5-1.3-.5-1v-1.2l.2-1 .5-.8 1-.7 14-9.8 14.8-10 16.5-10.7h.7l4.5 27.7 2 12.5z" fill="#9e5c26"/><path d="m197.4 352h-.5l-1-.2-1.5-.3-1.3-.7-1.2-1-.5-1-.3-.8.3-1v-.7l-.5.5h-.5l-.5-.3-.8-.2-1.2-.8-1.5-1.2-.8-.8-.2-.7-.3-1v-.5l-.5-1.5-.2-2-.5-1.8v-1.5l.7-3.5 1.3-4 1.7-4.2 1.5-4 3.3-6.8 1.5-3 1-1.2 1.2-1 3-2.3 3.5-2.2 3.3-2h5.2l15 16-.5 4-.2 3.5-.5 3.2-1 3-.8 1.3-1 1.5-1.2 1.2-1.5 1.5-3.5 2.5-3.5 3-2.5 2.3-2.3 2.2-3.2 4-2.3 2.8-.7 1-.8.5-1 .2-1.2-.2-.8-.8z" fill="#ffeec8"/><g fill="none" stroke="#231f20" stroke-linecap="round" stroke-miterlimit="10"><path d="m325.1 151.5-2.7-3.7-2.8-4-2.2-4.5-1.8-4.8-1.7-5-1-5.2-.8-5.5-.2-5.5.2-5.5.8-5.3 1-5.2 1.5-4.8 1.7-4.7 2-4.3 2.5-4.2 2.8-3.8 3-3.2 3.2-3.3 3.8-2.5 3.5-2.2 4-1.8 4-1.5 4.2-.7 4.5-.3 4.3.3 4.2.7 4.3 1.5 3.7 1.8 3.8 2.2 3.5 2.5 3.2 3.3 3 3.2 2.8 3.8 2.5 4.2 2.2 4.3 1.8 4.7 1.5 4.8 1 5.2.5 5.3.2 5.5v5l-.7 4.7-.8 4.8-1.2 4.7-1.8 4.3-1.7 4.2-2.3 4-2.2 3.5-3 4-3.5 3.5-3.8 3-3.7 2.5-4.3 2-4.2 1.5-2.3.5-2.5.5-2.2.3h-2.3l-4.2-.3-4.3-.7-3.7-1.3-4-1.7-3.5-2-3.5-2.5-3.3-3zm-15.2 89.8-15.8 25.5-65.2 52.2-2.8-2.7-15-16 48.5-56.5 25.5-53.5.8-1.5 2-3.5 3.2-5 2-3 2.3-3 2.5-3 3-3.3 3-2.7 3.2-3 3.5-2.5 3.8-2 3.7-1.8 4.3-1.2" stroke-width="14"/><path d="m520.4 271 1-1.2-62-50.5-32.3-43.3-3.2-4-3.8-4-5.2-5-2.8-2.2-3.2-2.5-3.3-2.3-3.7-2.2-3.8-1.8-3.7-1.5-4-1.2-4-.8h-2.3" stroke-width="14"/><path d="m414.6 230.5.8 1.5 5.2 7.3 4.5 5.7 3.5 4.5 2.5 3 2 2 1.5 1.3.8.7 72.2 35 .3-.7 12.5-19.8" stroke-width="14"/><path d="m412.1 196.8 3.3 35.2 4 40.8 1.5 18.5 1 14.2v1.5l-.3 1.8-1 2-1.2 1.7-1.5 2-2 1.8-2.5 1.5-2.8 1.7-2.7 1.5-3.3 1.3-3.5 1.5-3.7 1-7.8 2.2-8.2 1.8-8.5 1.5-8.5 1-8.3.7-7.7.3-7-.3-6-.5-2.8-.5-2.2-.5-2-.7-1.5-.8-1.3-.7-.7-1-.3-1.3-2-12.5-4.5-27.7-3.5-22.3-3.2-22.5-2-16.7-.8-7.5-.5-6.8" stroke-width="14"/><path d="m421.9 308.8 3.5 42.5 2.2 30.7.8 11.3.2 6-.2 1.7-.3 1.5-.5 1.8-.5 1.2-1.7 2.8-2 2.2-2.3 2-2.5 1.8-2.7 1.2-3 1-3 .5-3 .3h-2.8l-2.7-.5-2.3-1-2-1.3-1-.7-.7-1-.8-1-.5-1-.2-.8-11.5-61m11.5 62 .2 4.5-.2 5.3v6.7l-.5 7.8-.8 9-1.2 9.2-2 9.8-1 5-1 6-1.8 13.2-1.2 14.8-.5 7.7-.3 7.5-.2 7.8v7.2l.5 7 .5 6.8.7 6 1.3 5.2 1.2 4.3 1 2 .8 1.5 4.5 6.2 3.7 5 3.3 4 3 3 4.5 4.8 1.5 1.7 1 2v1l-.3 1.5-1 1.5-1.2 1.5-1.8 1.5-2.2 1.5-2.5 1.5-2.8 1-3.2.5-3.5.3-4-.3-4-.7-2-.8-2.3-1-2.2-1-2.3-1.2-2.2-1.5-2.5-1.8-2.3-2-2.5-2-2.2-2-2-1.7-4.5-2.8-3.8-2.5-1.5-1.2-1.2-1-1-1.3-.8-1.2-.2-1.3-.3-1.2-.2-1.8v-.7l1.2-3.3 1.3-4 1.5-5.2 1.2-6 1.3-7 .2-3.5.3-3.8v-4l-.3-3.7-.7-5.8-.5-2.7-.8-3-.7-1-1.5-3.3-2-5-1-3-1-3.5-1-4-.8-4.2-.5-4.5-.5-4.8v-5l.3-5.2.5-5.5 1.2-5.8 1-5.5.8-5.2.5-4.8.2-4.5-.2-4.2-.3-4.3-.5-4-1-3.7-1-4-1-4-3-8.3-3.2-9.2-3.8-10.3-1.7-5.5-1.5-5.7-1.3-5.5-1-5.3-.7-5.2-.8-5-.7-9.3-.5-8v-6l.2-5.2" stroke-width="14"/><path d="m317.4 285.8-16.5 10.7-14.8 10-14 9.8-1 .7-.5.8-.2 1v1.2l.5 1 .5 1.3 1 1 1.2 1 1.8.7 2 .5 2.2.5h2.8l3.2-.2 3.5-.5 4-1 4.5-1.5 5.3-1.8 4.5-.7 2-.3h3.7l1.8.3 1.5.5 1.5.5 1.2.7 1.3.8 1 1 1 1.2 2 2.5 1.2 2.8 1.3 2.7.2 1.3" stroke-width="14"/><path d="m185.1 341.3.5 1h.3l.2-.3.8-2.7.7-2.8 2-5 1.5-2.5 2.3-3.2 3-3.5" stroke-width="7"/><path d="m208.4 298.8-2.5 1.5-3.3 2-3.5 2.2-3 2.3-1.2 1-1 1.2-1.5 3-3.3 6.8-1.5 4-1.7 4.2-1.3 4-.7 3.5v1.5l.5 1.8.2 2 .5 1.5m6.3 5 .7-.8 1.8-4.5 1.5-2.7 2.2-3.8 6.5-9.2" stroke-width="7"/><path d="m185.4 340.3-.3 1v.5l.3 1 .2.7.8.8 1.5 1.2 1.2.8.8.2.5.3h.5l.5-.5" stroke-width="7"/><path d="m191.6 346-.2.3v.7l-.3 1 .3.8.5 1 1.2 1 1.3.7 1.5.3 1 .2" stroke-width="10"/><path d="m227.6 310-.7 3.3-.8 3-.5 4-.2 3.5-.5 3.2-1 3-.8 1.3-1 1.5-1.2 1.2-1.5 1.5-3.5 2.5-3.5 3-2.5 2.3-2.3 2.2-3.2 4-2.3 2.8-.7 1-.8.5-1 .2-1.2-.2-.8-.8-.2-1v-1.2l.7-1.5.5-1.8 1.5-2.7 2.8-4 1.2-2 2-2.5 2.8-3.5 4.5-4.3m341.5-32.5v1l-.3.3-.2-.3-1.5-1.7-2.3-2-3.7-3.3-2.3-1.5-3.2-1.5-4-2" stroke-width="7"/><path d="m517.1 271h3.3l7.2.8 3.3.5 1.5.2 1.2.5 2.5 2 5.5 4.3 3.3 2.5 3.2 2.7 2.8 2.8 2 2.7.7 1.3.5 1.5.8 3.2" stroke-width="7"/><path d="m554.1 295.3.8.7.2.5.3.8v1l-.3.7-.5 1.5-.7 1.5-1 .8-.5.2h-.5l-.8-.5-3.5-3-2.5-1.5-3.5-2-9.5-5" stroke-width="7"/><path d="m551.6 302.8.3.2.5.5.5.8.2.7-.2 1-.5 1.3-.8 1.2-1 1-.7.5" stroke-width="10"/><path d="m506.1 288.8 1.8 2 3.2 4 2.3 3.5 2.2 2.7 2.3 2.5 1.2 1 1.5.8 1.5.5 1.8.5 4 .5 4.2 1 3.3.7 2.7 1 4.5 1.8 3 1.2 1 .5h.8l1.2-.2.8-.5.2-1v-1l-.2-.5-.5-.5-1.3-1-1.2-1.3-2.3-1.5-4.2-2.2-1.8-1-2.7-1.3-3.8-1.5-5.7-1.7" stroke-width="7"/><path d="m299.9 460.3-2 3-2.5 3.2-3.8 4.3-4.7 5-5.8 5.2-3.2 2.8-3.5 2.7-3.8 2.8-4 2.7-4.2 2.8-4.5 2.7-5 2.5-5 2.3-5.3 2.2-5.7 2-5.8 1.8-6.2 1.5-6.3 1-6.7 1-6.8.5-7.2.2-7.3-.2-7.7-.8-8-1.2-8-1.5m124.7-64.8-2 1.5-5.5 4-3.7 2.5-4.8 2.8-5.5 3-6.2 3-7 2.7-7.5 2.8-8 2.2-4.5.8-4.3 1-4.7.5-4.8.5-4.7.5h-10l-5.3-.3-5.2-.7-5.5-.8" stroke-width="13.5"/><path d="m383.6 517.5 42.8-22 62 120.5-161.8 83.3-62-120.5 90.5-46.5m326.3-14.8-161.8 83.5-62-120.5 161.8-83.2zm-7.5 187.5-161.8 83.3-62-120.3 161.8-83.5z" stroke-width="14"/></g></svg>