<svg height="850.394" viewBox="0 0 850.394 850.394" width="850.394" xmlns="http://www.w3.org/2000/svg"><path d="m711.89 425.09c16.261 73.62-17.239 91.41-59.42 114.68-42.17 23.28-77.64 38.961-86.899 83.101-11.5 54.85 7.66 96.399 34.5 137.939 25.149 38.96 26.729 41.4 26.819 41.551-1-.521-132.22-70.13-126.489-156.221 5.739-86.43 51.75-84.76 103.51-121.33 51.75-36.56 69.28-59.89 63.25-99.72-9.51-62.66-66.19-126.96-67.08-127.96 5.829 1.71 94.559 49.89 111.809 127.96zm-172.59-239.12c6.84 71.46-42.88 136.28-62.05 186.14s-89.65 147.09-73.19 257.38c10.18 68.26 15.06 99.71 15.06 99.71s-100.84-115.74-44.28-237.65c95.7-206.27 128.86-259.04 122.021-298.93-6.851-39.89-60.25-141.27-60.25-141.27s95.849 63.16 102.689 134.62zm-199.56 205.1c16.25 73.61-17.25 91.4-59.42 114.68s-77.65 38.95-86.9 83.1c-11.51 54.851 7.66 96.391 34.5 137.94 25.15 38.95 26.73 41.39 26.82 41.54-1-.521-132.22-70.12-126.5-156.22 5.75-86.42 51.76-84.75 103.51-121.32 51.75-36.56 69.29-59.9 63.26-99.72-9.52-62.67-66.19-126.96-67.08-127.96 5.82 1.71 94.56 49.89 111.81 127.96z" fill="#231f20"/><g fill="none"><path d="m436.61 51.35s95.85 63.16 102.689 134.62c6.84 71.46-42.88 136.28-62.05 186.14s-89.65 147.09-73.19 257.38c10.18 68.26 15.06 99.71 15.06 99.71s-100.84-115.74-44.28-237.65c95.7-206.27 128.86-259.04 122.021-298.93-6.85-39.89-60.25-141.27-60.25-141.27zm-208.69 211.75.01.01c5.82 1.71 94.56 49.89 111.81 127.96 16.25 73.61-17.25 91.4-59.42 114.68s-77.65 38.95-86.9 83.1c-11.51 54.851 7.66 96.391 34.5 137.94 25.15 38.95 26.73 41.39 26.83 41.55l-.01-.01c-1-.521-132.22-70.12-126.5-156.22 5.75-86.42 51.76-84.75 103.51-121.32 51.75-36.56 69.29-59.9 63.26-99.72-9.52-62.67-66.19-126.96-67.08-127.96zm372.15 34.02.01.01c5.83 1.71 94.56 49.89 111.81 127.96 16.261 73.62-17.239 91.41-59.42 114.68-42.17 23.28-77.64 38.961-86.899 83.101-11.5 54.85 7.66 96.399 34.5 137.939 25.149 38.96 26.729 41.4 26.83 41.561l-.011-.01c-1-.521-132.22-70.13-126.489-156.221 5.739-86.43 51.75-84.76 103.51-121.33 51.75-36.56 69.28-59.89 63.25-99.72-9.51-62.66-66.19-126.96-67.08-127.96z" stroke="#231f20" stroke-width="6.38"/><path d="m0 0h850.394v850.394h-850.394z"/></g></svg>