<svg height="850.394" viewBox="0 0 850.394 850.394" width="850.394" xmlns="http://www.w3.org/2000/svg"><path d="m125.96 580.74c-4.51-7.74-5.37-17.53-2.18-26.83l43.98-25.49 2.25.33c-1.44 13.24 1.85 22.58 9.65 29.97 4.58 4.33 10.7 7.99 18.33 11.36l-.06.03-48.96 25.05c-10.85-1.37-18.63-6.94-23.01-14.42zm261.69-119.82-189.66 109.16c-7.63-3.37-13.75-7.03-18.33-11.36l2.93-.22 195.44-112.68 6.89 11.71c.76 1.29 1.68 2.42 2.73 3.39z" fill="#0b00ea"/><path d="m370.74 433.41 7.29 12.41-195.44 112.68-2.93.22c-7.8-7.39-11.09-16.729-9.65-29.97.06-.6.14-1.2.22-1.82l2.3.311 190.44-111.82c-.12 2.82.53 5.68 2.05 8.26zm121.82-32.9c1.061 6.36-2.01 13.15-8.17 16.78l-77.209 45.39c-3.64 2.141-7.72 2.801-11.5 2.16-.83-7.35-5.1-18.55-11.91-30.13-6.51-11.07-13.84-19.94-19.73-24.45 1.32-3.43 3.81-6.49 7.3-8.53l77.21-45.4c7.891-4.63 17.851-2.32 22.24 5.16l.16.27 19.75 33.59a14.866 14.866 0 0 1 1.859 5.16z" fill="#0b00ea"/><path d="m635.05 265.23 70.91-41.72 22.48 38.23.01.01-235.89 138.76c-.29-1.78-.899-3.53-1.859-5.16l-19.75-33.59.31-.18 136.37-80.23zm67.78-5.57a7.292 7.292 0 0 0 2.59-9.98 7.292 7.292 0 0 0 -12.57 7.39c2.04 3.47 6.52 4.64 9.98 2.59zm-26.39 15.51c3.47-2.04 4.63-6.51 2.59-9.97-2.04-3.48-6.511-4.64-9.98-2.6s-4.63 6.51-2.59 9.98c2.04 3.48 6.51 4.63 9.98 2.59zm-27.19 15.99a7.28 7.28 0 0 0 2.58-9.98c-2.03-3.47-6.5-4.63-9.97-2.59-3.471 2.04-4.63 6.51-2.601 9.98a7.305 7.305 0 0 0 9.991 2.59zm-27.11 15.93c3.471-2.03 4.63-6.51 2.591-9.98-2.04-3.47-6.511-4.63-9.98-2.59s-4.63 6.51-2.59 9.98c2.039 3.48 6.509 4.63 9.979 2.59zm-27.62 16.37c3.48-2.04 4.631-6.51 2.591-9.99-2.051-3.46-6.511-4.63-9.98-2.58a7.29 7.29 0 1 0 7.389 12.57zm-26.75 15.61a7.275 7.275 0 0 0 2.591-9.98 7.273 7.273 0 0 0 -9.971-2.59c-3.47 2.04-4.64 6.51-2.6 9.98s6.51 4.63 9.98 2.59zm-26.97 16.12c3.47-2.03 4.63-6.51 2.59-9.97a7.274 7.274 0 0 0 -9.979-2.59c-3.47 2.03-4.63 6.5-2.59 9.97 2.049 3.47 6.509 4.63 9.979 2.59zm-27.51 16.17a7.288 7.288 0 1 0 -7.379-12.57 7.274 7.274 0 0 0 -2.59 9.98c2.029 3.47 6.499 4.63 9.969 2.59z" fill="#c8c8c8"/><path d="m764.83 216.03c5.88 9.98.53 24.01-11.93 31.34l-24.45 14.38-.01-.01-22.48-38.23 24.46-14.39c12.46-7.32 27.311-5.18 33.18 4.81z" fill="#c8c8c8"/><path d="m705.42 249.68c2.04 3.47.88 7.94-2.59 9.98-3.46 2.05-7.94.88-9.98-2.59a7.292 7.292 0 0 1 12.57-7.39zm-26.39 15.52c2.04 3.46.88 7.93-2.59 9.97-3.471 2.04-7.94.89-9.98-2.59-2.04-3.47-.88-7.94 2.59-9.98s7.94-.88 9.98 2.6zm-27.2 15.98a7.28 7.28 0 0 1 -2.58 9.98 7.304 7.304 0 0 1 -9.99-2.59c-2.029-3.47-.87-7.94 2.601-9.98 3.469-2.04 7.939-.88 9.969 2.59zm-27.1 15.93c2.039 3.47.88 7.95-2.591 9.98-3.47 2.04-7.939.89-9.979-2.59-2.04-3.47-.88-7.94 2.59-9.98s7.94-.88 9.98 2.59zm-27.62 16.36c2.04 3.48.89 7.95-2.591 9.99a7.291 7.291 0 0 1 -7.389-12.57c3.47-2.05 7.93-.88 9.98 2.58zm-26.75 15.62c2.05 3.47.89 7.94-2.591 9.98-3.47 2.04-7.939.88-9.979-2.59s-.87-7.94 2.6-9.98a7.272 7.272 0 0 1 9.97 2.59zm-26.97 16.13c2.04 3.46.88 7.94-2.59 9.97-3.47 2.04-7.93.88-9.979-2.59-2.04-3.47-.88-7.94 2.59-9.97a7.274 7.274 0 0 1 9.979 2.59zm-27.5 16.16c2.04 3.47.88 7.94-2.6 9.98-3.47 2.04-7.94.88-9.97-2.59a7.273 7.273 0 0 1 2.59-9.98c3.47-2.04 7.93-.88 9.98 2.59z"/><g fill="none"><g stroke="#000"><path d="m170.52 525.02c-.11.65-.2 1.28-.29 1.91-.08.62-.16 1.221-.22 1.82-1.44 13.24 1.85 22.58 9.65 29.97 4.58 4.33 10.7 7.99 18.33 11.36.95.42 1.92.83 2.91 1.24" stroke-linecap="round" stroke-linejoin="round" stroke-width="16.637"/><path d="m123.78 553.91c-3.19 9.3-2.33 19.09 2.18 26.83 4.38 7.479 12.16 13.05 23.01 14.42l48.96-25.05.06-.03 189.66-109.16 1.41-.81m-24.32-45.73-1.77 1.04-190.44 111.82" stroke-width="16.637"/><path d="m374.9 431.03-4.16 2.38-192.91 110.33m205.63-101.05-5.43 3.13-195.44 112.68" stroke-width="11.091"/><g stroke-width="16.637"><path d="m167.76 528.42-43.98 25.49m2.2 26.82s-.01 0-.02.01c-1.15.29-50.48 13.45-45.68 74.12" stroke-linecap="round" stroke-linejoin="round"/><path d="m492.53 400.53.029-.02 235.891-138.76 24.45-14.38c12.46-7.33 17.81-21.36 11.93-31.34l-1.23-2.1c-5.869-9.99-20.72-12.13-33.18-4.81l-24.46 14.39-70.91 41.72-27.42 16.12-136.37 80.23"/><path d="m470.95 361.76-.16-.27c-4.39-7.48-14.35-9.79-22.24-5.16l-77.21 45.4c-3.49 2.04-5.98 5.1-7.3 8.53-.64 1.66-1.01 3.4-1.07 5.16-.12 2.82.53 5.68 2.05 8.26l5.72 9.73 7.29 12.41 6.89 11.71c.76 1.29 1.68 2.42 2.73 3.39 2.23 2.08 5.03 3.41 8.03 3.92 3.78.641 7.86-.02 11.5-2.16l77.209-45.39c6.16-3.63 9.23-10.42 8.17-16.78-.29-1.78-.899-3.53-1.859-5.16z"/><path d="m393.68 473c1.86-1.09 2.48-4.02 2-8.16-.83-7.35-5.1-18.55-11.91-30.13-6.51-11.07-13.84-19.94-19.73-24.45-3.74-2.88-6.91-4-8.92-2.82m373.32-145.7-22.48-38.23v-.01m-17.53 10.3-7.72-13.15m-18.67 28.52-7.74-13.15m-19.2 29.3-.05-.09-7.69-13.06m-19.68 29.26-.05-.08-7.69-13.06m-19.66 28.44-7.72-13.14m-19.17 29.59-7.73-13.15m-19.08 28.91-7.73-13.15m-20.13 29.37-7.73-13.15m228.03-46.2-7.74-13.14m-18.67 28.52-7.72-13.15m-19.22 29.29-7.73-13.15m-19.69 29.26-7.72-13.15m-19.66 28.46-7.74-13.15m-19.16 29.59-7.73-13.15m-19.09 28.92-7.72-13.16m-20.13 29.37-7.73-13.15" stroke-linecap="round" stroke-linejoin="round"/></g></g><path d="m0 0h850.394v850.394h-850.394z"/></g></svg>