<svg height="850.394" viewBox="0 0 850.394 850.394" width="850.394" xmlns="http://www.w3.org/2000/svg"><path d="m368 368.249h113.386v113.386h-113.386z" fill="none"/><path d="m516.15 135.22c5.56 8.59 8.649 18.16 8.649 28.25 0 37.25-41.31 78.3-93.319 78.3-51.99 0-94.99-41.05-94.99-78.3 0-10.03 3.06-19.55 8.55-28.1 14.87-23.22 47.6-39.34 85.6-39.34 37.92 0 70.6 16.06 85.51 39.19z" fill="#58b947"/><path d="m780.3 645.34 6.71 51.66-108.28 14.05-45.59-202.76-.979-4.35-24.05-106.9s-8-28.19-8-48.09c0-124.21 63.279-176.92 63.279-176.92l.011-.02c42.85 23.22 58.239 96.14 58.239 96.14zm-519.11-296.39c0 19.9-8.01 48.09-8.01 48.09l-24.04 106.91v.01l-.7 3.12-45.87 203.97-108.29-14.05 6.71-51.66 58.66-377.19s15.39-72.92 58.24-96.14l.01.02s63.29 52.71 63.29 176.92z" fill="#abd150"/><path d="m516.15 135.22c37.89 11.32 108.25 28.18 126.02 30.09 7.73.83 14.79 3.2 21.23 6.7l-.011.02s-63.279 52.71-63.279 176.92c0 19.9 8 48.09 8 48.09l24.05 106.9h-.01l-.41 5.3-19.95 254.42h-356.61l-26.04-259.7v-.01l24.04-106.91s8.01-28.19 8.01-48.09c0-124.21-63.29-176.92-63.29-176.92l-.01-.02c6.44-3.5 13.5-5.87 21.23-6.7 17.76-1.91 88.03-18.63 125.92-29.94-5.49 8.55-8.55 18.07-8.55 28.1 0 37.25 43 78.3 94.99 78.3 52.01 0 93.319-41.05 93.319-78.3.001-10.09-3.089-19.66-8.649-28.25z" fill="#abd150"/><g fill="none" stroke="#231f20"><path d="m516.15 135.22c5.56 8.59 8.649 18.16 8.649 28.25 0 37.25-41.31 78.3-93.319 78.3-51.99 0-94.99-41.05-94.99-78.3 0-10.03 3.06-19.55 8.55-28.1 14.87-23.22 47.6-39.34 85.6-39.34 37.92 0 70.6 16.06 85.51 39.19z" stroke-width="21"/><path d="m564.14 152.58c.21 2.24.32 4.51.32 6.79 0 54.17-59.52 113.45-132.979 113.45-73.44 0-132.971-59.28-132.971-113.45 0-1.91.11-3.85.32-5.8" stroke-dasharray="16.027" stroke-width="14"/><path d="m228.44 507.08-45.87 203.97-108.29-14.05 6.71-51.66 58.66-377.19s15.39-72.92 58.24-96.14c6.44-3.5 13.5-5.87 21.23-6.7 17.76-1.91 88.03-18.63 125.92-29.94.02-.01.03-.02.05-.02" stroke-width="21"/><path d="m229.14 503.96-.7 3.12m-30.54-335.05s63.29 52.71 63.29 176.92c0 19.9-8.01 48.09-8.01 48.09l-24.04 106.91" stroke-dasharray="16.027" stroke-width="14"/><path d="m633.14 508.29 45.591 202.76 108.279-14.05-6.71-51.66-58.66-377.19s-15.39-72.92-58.239-96.14c-6.44-3.5-13.5-5.87-21.23-6.7-17.77-1.91-88.13-18.77-126.02-30.09-.011 0-.021-.01-.03-.01" stroke-width="21"/><path d="m663.39 172.03s-63.279 52.71-63.279 176.92c0 19.9 8 48.09 8 48.09l24.05 106.9.979 4.35" stroke-dasharray="16.027" stroke-width="14"/><path d="m229.14 503.96v-.01" stroke-width="14"/><path d="m631.74 509.24-19.95 254.42h-356.61l-26.04-259.7" stroke-width="21"/><path d="m632.15 503.94-.41 5.3" stroke-width="24.041"/></g><path d="m0 0h850.394v850.394h-850.394z" fill="none"/><g stroke="#231f20"><path d="m243.983 659.97 99.35-11.4 8.664 75.505-99.35 11.4z" fill="#fff" stroke-width="6.103122"/><path d="m271.523 715.603 22.287-49.485 31.71 44.043z" fill="#fff" stroke-width="7"/><path d="m262 672 74 34m-76 8 66-44" fill="none" stroke-width="7"/></g></svg>