<svg height="850.394" viewBox="0 0 850.394 850.394" width="850.394" xmlns="http://www.w3.org/2000/svg"><path d="m748.31 238.21c24.19-5.71 4.71 40.65-2.81 52.3-7.95 12.34-27.82 9.77-38.62 1.5-13.03-9.97 4.63-16.45 12.601-31.51 8.469-15.98 19.269-20.04 28.829-22.29z" fill="#33a048"/><path d="m636.99 203.34c11.77 11.66 23.649 27.15 16.569 43.04-5.869 13.13-18.01 19.48-17.68 35.33.34 15.44-.85 28.66 5.05 42.99 6.84 16.59-7.72 16.46-26.109-3.36-11.74-12.65-15.971-28.06-34.7-32.6-15.75-3.82-25.74 3.03-40.78-7.24-9.12-6.23-25.37-22.05-23.71-35.37 4.771-38.25 39.33-20.87 52.15-30.21 20.55-14.96 49.48-32.12 69.21-12.58z" fill="#abd153"/><path d="m701.22 111.23c1.84 15.8-13.62 17.43-25.25 16.07-18.729-2.18-18.12 7.22-31.069 15.82-10.391 6.9-18.7 0-27.091-6.06-13.79-9.93-18.68-5.92-33.659-3.5-3.15.51-11.051 1.44-13.44-1.2-2.13-2.34.32-5.46-.66-8.28-3.6-10.38-9.64-3.73-15.899-9.76-5.19-4.97 2.489-21.17 6.06-25.67l-1.07-2.09a157.02 157.02 0 0 1 25.62-10.4c37.55-11.54 76.11-8.31 109.44 6.38l-.17 2.52c-5.162 8.42 6.218 17.77 7.188 26.17z" fill="#fff"/><path d="m694.2 82.54c40.29 17.74 72.939 52.24 86.89 97.64 25.48 82.94-21.08 170.85-104.02 196.34-82.94 25.48-170.84-21.09-196.33-104.03-22.721-73.96 11.83-151.86 78.399-185.93l1.07 2.09c-3.57 4.5-11.25 20.7-6.06 25.67 6.26 6.03 12.3-.62 15.899 9.76.98 2.82-1.47 5.94.66 8.28 2.39 2.64 10.29 1.71 13.44 1.2 14.979-2.42 19.869-6.43 33.659 3.5 8.391 6.06 16.7 12.96 27.091 6.06 12.949-8.6 12.34-18 31.069-15.82 11.63 1.36 27.09-.27 25.25-16.07-.97-8.4-12.35-17.75-7.189-26.17zm51.3 207.97c7.52-11.65 27-58.01 2.81-52.3-9.56 2.25-20.359 6.31-28.829 22.29-7.971 15.06-25.631 21.54-12.601 31.51 10.8 8.27 30.67 10.84 38.62-1.5zm-91.94-44.13c7.08-15.89-4.8-31.38-16.569-43.04-19.73-19.54-48.66-2.38-69.21 12.58-12.82 9.34-47.38-8.04-52.15 30.21-1.66 13.32 14.59 29.14 23.71 35.37 15.04 10.27 25.03 3.42 40.78 7.24 18.729 4.54 22.96 19.95 34.7 32.6 18.39 19.82 32.949 19.95 26.109 3.36-5.899-14.33-4.71-27.55-5.05-42.99-.33-15.85 11.81-22.2 17.68-35.33z" fill="#a9d7f3"/><path d="m470.96 695.41h31.83l-6.82-16.75h-18.19zm51.56 19.94-6.829-16.75h-18.181l-6.83 16.75zm-9.98-39.32 14.48 56.07c1.811 14.021-6.88 15.381-15.38 15.381h-434.56c-8.5 0-17.19-1.341-15.38-15.381l14.47-56.069c2.2-10.71 6.89-15.4 15.38-15.4h392.2v-.01h13.41c8.5-.001 13.2 4.679 15.38 15.409zm-411.88 23.52h-18.19l-6.82 16.74h31.83zm31.73-4.01-6.82-16.75h-18.18l-6.82 16.75zm18.62 3.75h-18.19l-6.82 16.75h31.83zm31.73-4.01-6.82-16.75h-18.19l-6.82 16.75zm21.03 3.88h-18.19l-6.82 16.76h31.83zm-.1-4.01h31.83l-6.82-16.74h-18.19zm54.25 4.27h-18.19l-6.82 16.75h31.83zm-.09-4.01h31.82l-6.82-16.75h-18.18zm55.97 4.14h-18.19l-6.82 16.74h31.83zm31.74-4.01-6.82-16.75h-18.2l-6.81 16.75zm18.61 3.75h-18.19l-6.82 16.75h31.83zm31.73-4.01-6.83-16.75h-18.18l-6.82 16.75zm21.03 3.88h-18.19l-6.82 16.76h31.83zm31.73-4.01-6.819-16.74h-18.19l-6.82 16.74zm19.64 4.27h-18.18l-6.819 16.75h31.83zm-135.95-109.35h113.34v20.35h-113.34zm42.76-45.49h70.58v20.36h-70.58z" fill="#7a7878"/><path d="m477.56 517.45v123.5h-367.8v-123.5zm-31.89 92.97v-20.35h-113.34v20.35zm0-45.48v-20.36h-70.58v20.36z" fill="#c8c8c8"/><path d="m176.54 277.22h234.24v156.879h-234.24zm350.34 470.26v30.77h-464.85v-30.77h449.61z" fill="#7a7878"/><path d="m515.69 698.6 6.83 16.75h-31.84l6.83-16.75zm-19.72-19.94 6.82 16.75h-31.83l6.82-16.75zm-27.69 20.76 6.83 16.75h-31.83l6.82-16.75zm-26.46-21.01 6.82 16.74h-31.83l6.82-16.74zm-24.91 20.75 6.82 16.76h-31.83l6.82-16.76zm-5.97-254.1c4.12 0 7.46 3.351 7.46 7.471 0 4.109-3.34 7.47-7.46 7.47-4.13 0-7.46-3.36-7.46-7.47 0-4.121 3.33-7.471 7.46-7.471z" fill="#231f20"/><path d="m401.56 452.64c0-4.13-3.34-7.47-7.46-7.47-4.13 0-7.47 3.34-7.47 7.47 0 4.12 3.34 7.471 7.47 7.471 4.12-.001 7.46-3.351 7.46-7.471zm1.92-.11c0 4.109 3.33 7.47 7.46 7.47 4.12 0 7.46-3.36 7.46-7.47 0-4.12-3.34-7.471-7.46-7.471-4.13.001-7.46 3.351-7.46 7.471zm33.81-182.83v182.65c0 10.091-8.18 18.261-18.27 18.261h-251.41c-10.09 0-18.27-8.17-18.27-18.261v-182.65c0-10.09 8.18-18.27 18.27-18.27h251.41c10.09 0 18.27 8.18 18.27 18.27zm-26.51 164.4v-156.88h-234.24v156.88z" fill="#c8c8c8"/><path d="m394.1 445.17c4.12 0 7.46 3.34 7.46 7.47 0 4.12-3.34 7.471-7.46 7.471a7.472 7.472 0 0 1 -7.47-7.471c0-4.13 3.34-7.47 7.47-7.47zm-5.05 233.36 6.83 16.75h-31.83l6.82-16.75zm-24.9 20.76 6.82 16.75h-31.83l6.82-16.75zm-25.43-20.5 6.82 16.75h-31.83l6.81-16.75zm-24.92 20.76 6.82 16.74h-31.83l6.82-16.74zm-30.97-20.89 6.82 16.75h-31.82l6.82-16.75zm-24.91 20.76 6.82 16.75h-31.83l6.82-16.75zm-29.24-21.01 6.82 16.74h-31.83l6.82-16.74zm-24.91 20.75 6.82 16.76h-31.83l6.82-16.76zm-27.85-20.63 6.82 16.75h-31.83l6.82-16.75zm-24.91 20.76 6.82 16.75h-31.83l6.82-16.75zm-25.44-20.5 6.82 16.75h-31.82l6.82-16.75zm-24.91 20.76 6.82 16.74h-31.83l6.82-16.74z" fill="#231f20"/><g fill="none"><g stroke="#231f20"><path d="m694.2 82.54c40.29 17.74 72.939 52.24 86.89 97.64 25.48 82.94-21.08 170.85-104.02 196.34-82.94 25.48-170.84-21.09-196.33-104.03-22.721-73.96 11.83-151.86 78.399-185.93a157.02 157.02 0 0 1 25.62-10.4c37.551-11.54 76.111-8.31 109.441 6.38z" stroke-width="14"/><path d="m560.21 88.65c-3.57 4.5-11.25 20.7-6.06 25.67 6.26 6.03 12.3-.62 15.899 9.76.98 2.82-1.47 5.94.66 8.28 2.39 2.64 10.29 1.71 13.44 1.2 14.979-2.42 19.869-6.43 33.659 3.5 8.391 6.06 16.7 12.96 27.091 6.06 12.949-8.6 12.34-18 31.069-15.82 11.63 1.36 27.09-.27 25.25-16.07-.97-8.4-12.35-17.75-7.189-26.17m-178.399 161.07c-1.66 13.32 14.59 29.14 23.71 35.37 15.04 10.27 25.03 3.42 40.78 7.24 18.729 4.54 22.96 19.95 34.7 32.6 18.39 19.82 32.949 19.95 26.109 3.36-5.899-14.33-4.71-27.55-5.05-42.99-.33-15.85 11.811-22.2 17.68-35.33 7.08-15.89-4.8-31.38-16.569-43.04-19.73-19.54-48.66-2.38-69.21 12.58-12.82 9.34-47.38-8.04-52.15 30.21zm203.85 14.37c-7.971 15.06-25.631 21.54-12.601 31.51 10.8 8.27 30.67 10.84 38.62-1.5 7.52-11.65 27-58.01 2.81-52.3-9.559 2.25-20.359 6.31-28.829 22.29z" stroke-width="14"/><path d="m586.15 352.52c-8.771-9.41-15.86-13.56-16.67-26.97-.49-7.96 2.38-16.97 12.689-12.85 7.67 3.07 11.03 17.49 15.36 24.02 8.27 12.51 19.069 17.24 33.31 20.66 21.98 5.26 34.7-7.95 33.7-29.54-.72-15.52 2.93-43.38 22.06-48.03m-28.799-84.07c-23.45-27.42-63.1-35.27-95.05-19.2-14.64 7.34-31.01 13.03-47.38 6.71-13.03-5.01-26.06-14.27-19.37-27.25m279.81 12.76c-20.869-.67-51.899 16.01-56.3 38.59-2.21 11.3 5.95 18.67 16.46 17.88 9.92-.73 17.65-15.34 6.12-19.38" stroke-width="7"/><g stroke-width="14"><path d="m437.29 452.35c0 10.091-8.18 18.261-18.27 18.261h-251.41c-10.09 0-18.27-8.17-18.27-18.261v-182.65c0-10.09 8.18-18.27 18.27-18.27h251.41c10.09 0 18.27 8.18 18.27 18.27z"/><path d="m176.54 277.22h234.24v156.879h-234.24zm65.55 240.23v-46.3h103.14v46.3m0 0h132.33v123.5h-367.8v-123.5h132.33z"/><path d="m332.33 590.07h113.34v20.35h-113.34zm42.76-45.49h70.58v20.36h-70.58zm-298.01 202.9c-8.5 0-17.19-1.341-15.38-15.381l14.47-56.069c2.2-10.71 6.89-15.4 15.38-15.4h400.83"/><path d="m511.64 747.48c8.5 0 17.19-1.36 15.38-15.381l-14.48-56.069c-2.18-10.73-6.88-15.41-15.38-15.41h-13.41m-287.78 67.39h194.08m121.59 19.47h15.24v30.77h-464.85v-30.77h432.16z"/></g></g><path d="m0 0h850.394v850.394h-850.394z"/></g></svg>