<svg height="850.89" viewBox="0 0 850.89 850.89" width="850.89" xmlns="http://www.w3.org/2000/svg"><path d="m514.5 440.06c0 4.671 4.67 8.46 10.43 8.46h32.561c5.76 0 10.43-3.789 10.43-8.46v-34.87c0-4.67-4.67-8.46-10.43-8.46h-32.561c-5.76 0-10.43 3.79-10.43 8.46zm0-90.19c0 4.67 4.67 8.45 10.43 8.45h32.561c5.76 0 10.43-3.78 10.43-8.45v-34.87c0-4.67-4.67-8.46-10.43-8.46h-32.561c-5.76 0-10.43 3.79-10.43 8.46zm0-89.25c0 4.66 4.67 8.45 10.43 8.45h32.561c5.76 0 10.43-3.79 10.43-8.45v-34.88c0-4.67-4.67-8.46-10.43-8.46h-32.561c-5.76 0-10.43 3.79-10.43 8.46zm-77.05 179.44c0 4.671 4.66 8.46 10.42 8.46h32.57c5.76 0 10.42-3.789 10.42-8.46v-34.87c0-4.67-4.66-8.46-10.42-8.46h-32.57c-5.76 0-10.42 3.79-10.42 8.46zm0-90.19c0 4.67 4.66 8.45 10.42 8.45h32.57c5.76 0 10.42-3.78 10.42-8.45v-34.87c0-4.67-4.66-8.46-10.42-8.46h-32.57c-5.76 0-10.42 3.79-10.42 8.46zm0-89.25c0 4.66 4.66 8.45 10.42 8.45h32.57c5.76 0 10.42-3.79 10.42-8.45v-34.88c0-4.67-4.66-8.46-10.42-8.46h-32.57c-5.76 0-10.42 3.79-10.42 8.46zm-76.62 179.51c0 4.67 4.66 8.45 10.42 8.45h32.57c5.76 0 10.42-3.78 10.42-8.45v-34.88c0-4.67-4.66-8.46-10.42-8.46h-32.57c-5.76 0-10.42 3.79-10.42 8.46zm0-90.2c0 4.67 4.66 8.46 10.42 8.46h32.57c5.76 0 10.42-3.79 10.42-8.46v-34.87c0-4.67-4.66-8.46-10.42-8.46h-32.57c-5.76 0-10.42 3.79-10.42 8.46zm0-89.25c0 4.67 4.66 8.45 10.42 8.45h32.57c5.76 0 10.42-3.78 10.42-8.45v-34.88c0-4.67-4.66-8.45-10.42-8.45h-32.57c-5.76 0-10.42 3.78-10.42 8.45zm.21 266.42c0 4.67 4.67 8.45 10.43 8.45h32.57c5.76 0 10.42-3.78 10.42-8.45v-34.88c0-4.67-4.66-8.45-10.42-8.45h-32.57c-5.76 0-10.43 3.78-10.43 8.45zm-77.27-86.97c0 4.67 4.66 8.45 10.42 8.45h32.57c5.76 0 10.42-3.78 10.42-8.45v-34.88c0-4.67-4.66-8.46-10.42-8.46h-32.57c-5.76 0-10.42 3.79-10.42 8.46zm0-90.2c0 4.67 4.66 8.46 10.42 8.46h32.57c5.76 0 10.42-3.79 10.42-8.46v-34.87c0-4.67-4.66-8.46-10.42-8.46h-32.57c-5.76 0-10.42 3.79-10.42 8.46zm0-89.25c0 4.67 4.66 8.45 10.42 8.45h32.57c5.76 0 10.42-3.78 10.42-8.45v-34.88c0-4.67-4.66-8.45-10.42-8.45h-32.57c-5.76 0-10.42 3.78-10.42 8.45zm.22 266.42c0 4.67 4.66 8.45 10.42 8.45h32.57c5.76 0 10.42-3.78 10.42-8.45v-34.88c0-4.67-4.66-8.45-10.42-8.45h-32.57c-5.76 0-10.42 3.78-10.42 8.45zm300.26-352.85v378h-320v-378z" fill="#c8c8c8"/><path d="m571.86 66.73c19.35 0 35.029 16.31 35.029 36.41v640.84c0 20.119-15.68 36.42-35.029 36.42h-293.05c-19.35 0-35.03-16.301-35.03-36.42v-640.84c0-20.1 15.68-36.41 35.03-36.41zm-175.35 649.96c0 16.689 13.52 30.21 30.21 30.21 16.681 0 30.21-13.521 30.21-30.21 0-16.681-13.529-30.21-30.21-30.21-16.69 0-30.21 13.53-30.21 30.21zm3.09-578.85h54.84c4.88 0 8.84-3.13 8.84-7v-3.87c0-3.87-3.96-7-8.84-7h-54.84c-4.88 0-8.84 3.13-8.84 7v3.87c0 3.87 3.96 7 8.84 7zm184.65 414.41v-378h-320v378zm-2.13 103.3v-87.56h-319.62v87.56z" fill="#7a7878"/><path d="m557.49 217.28c5.76 0 10.43 3.79 10.43 8.46v34.88c0 4.66-4.67 8.45-10.43 8.45h-32.56c-5.76 0-10.43-3.79-10.43-8.45v-34.88c0-4.67 4.67-8.46 10.43-8.46z" fill="#f6cc4b"/><path d="m557.49 306.54c5.76 0 10.43 3.79 10.43 8.46v34.87c0 4.67-4.67 8.45-10.43 8.45h-32.56c-5.76 0-10.43-3.78-10.43-8.45v-34.87c0-4.67 4.67-8.46 10.43-8.46z" fill="#ed177f"/><path d="m557.49 396.73c5.76 0 10.43 3.79 10.43 8.46v34.87c0 4.671-4.67 8.46-10.43 8.46h-32.56c-5.76 0-10.43-3.789-10.43-8.46v-34.87c0-4.67 4.67-8.46 10.43-8.46z" fill="#ef3d27"/><path d="m556.62 585c5.76 0 10.42 3.79 10.42 8.46v34.87c0 4.67-4.66 8.46-10.42 8.46h-32.57c-5.76 0-10.42-3.79-10.42-8.46v-34.87c0-4.67 4.66-8.46 10.42-8.46z" fill="#ed1d31"/><path d="m513.63 628.33c0 4.67 4.66 8.46 10.42 8.46h32.57c5.76 0 10.42-3.79 10.42-8.46v-34.87c0-4.67-4.66-8.46-10.42-8.46h-32.57c-5.76 0-10.42 3.79-10.42 8.46zm-77.06 0c0 4.67 4.67 8.46 10.43 8.46h32.56c5.761 0 10.431-3.79 10.431-8.46v-34.87c0-4.67-4.67-8.46-10.431-8.46h-32.56c-5.76 0-10.43 3.79-10.43 8.46zm-76.62.06c0 4.681 4.66 8.45 10.42 8.45h32.57c5.76 0 10.43-3.77 10.43-8.45v-34.87c0-4.68-4.67-8.46-10.43-8.46h-32.57c-5.76 0-10.42 3.78-10.42 8.46zm-77.06 0c0 4.681 4.66 8.45 10.42 8.45h32.57c5.76 0 10.43-3.77 10.43-8.45v-34.87c0-4.68-4.67-8.46-10.43-8.46h-32.57c-5.76 0-10.42 3.78-10.42 8.46zm299.23-60.4v87.56h-319.62v-87.56z" fill="#c8c8c8"/><path d="m480.44 217.28c5.76 0 10.42 3.79 10.42 8.46v34.88c0 4.66-4.66 8.45-10.42 8.45h-32.57c-5.76 0-10.42-3.79-10.42-8.45v-34.88c0-4.67 4.66-8.46 10.42-8.46z" fill="#33a048"/><path d="m480.44 306.54c5.76 0 10.42 3.79 10.42 8.46v34.87c0 4.67-4.66 8.45-10.42 8.45h-32.57c-5.76 0-10.42-3.78-10.42-8.45v-34.87c0-4.67 4.66-8.46 10.42-8.46z" fill="#0d72ba"/><path d="m480.44 396.73c5.76 0 10.42 3.79 10.42 8.46v34.87c0 4.671-4.66 8.46-10.42 8.46h-32.57c-5.76 0-10.42-3.789-10.42-8.46v-34.87c0-4.67 4.66-8.46 10.42-8.46z" fill="#f6cc4b"/><path d="m479.56 585c5.761 0 10.431 3.79 10.431 8.46v34.87c0 4.67-4.67 8.46-10.431 8.46h-32.56c-5.76 0-10.43-3.79-10.43-8.46v-34.87c0-4.67 4.67-8.46 10.43-8.46z" fill="#cc82b7"/><path d="m454.44 119.97c4.88 0 8.84 3.13 8.84 7v3.87c0 3.87-3.96 7-8.84 7h-54.84c-4.88 0-8.84-3.13-8.84-7v-3.87c0-3.87 3.96-7 8.84-7zm-27.72 626.93c-16.69 0-30.21-13.521-30.21-30.21 0-16.681 13.52-30.21 30.21-30.21 16.681 0 30.21 13.529 30.21 30.21 0 16.69-13.53 30.21-30.21 30.21z" fill="#c8c8c8"/><path d="m404.04 483.77c5.76 0 10.42 3.78 10.42 8.45v34.88c0 4.67-4.66 8.45-10.42 8.45h-32.57c-5.76 0-10.43-3.78-10.43-8.45v-34.88c0-4.67 4.67-8.45 10.43-8.45z" fill="#0d72ba"/><path d="m403.82 217.35c5.76 0 10.42 3.78 10.42 8.45v34.88c0 4.67-4.66 8.45-10.42 8.45h-32.57c-5.76 0-10.42-3.78-10.42-8.45v-34.88c0-4.67 4.66-8.45 10.42-8.45z" fill="#cc82b7"/><path d="m403.82 306.6c5.76 0 10.42 3.79 10.42 8.46v34.87c0 4.67-4.66 8.46-10.42 8.46h-32.57c-5.76 0-10.42-3.79-10.42-8.46v-34.87c0-4.67 4.66-8.46 10.42-8.46z" fill="#fff"/><path d="m403.82 396.79c5.76 0 10.42 3.79 10.42 8.46v34.88c0 4.67-4.66 8.45-10.42 8.45h-32.57c-5.76 0-10.42-3.78-10.42-8.45v-34.88c0-4.67 4.66-8.46 10.42-8.46z" fill="#8c469b"/><path d="m402.94 585.06c5.76 0 10.43 3.78 10.43 8.46v34.87c0 4.681-4.67 8.45-10.43 8.45h-32.57c-5.76 0-10.42-3.77-10.42-8.45v-34.87c0-4.68 4.66-8.46 10.42-8.46z" fill="#fbee34"/><path d="m326.98 483.77c5.76 0 10.42 3.78 10.42 8.45v34.88c0 4.67-4.66 8.45-10.42 8.45h-32.57c-5.76 0-10.42-3.78-10.42-8.45v-34.88c0-4.67 4.66-8.45 10.42-8.45z" fill="#ed177f"/><path d="m326.76 217.35c5.76 0 10.42 3.78 10.42 8.45v34.88c0 4.67-4.66 8.45-10.42 8.45h-32.57c-5.76 0-10.42-3.78-10.42-8.45v-34.88c0-4.67 4.66-8.45 10.42-8.45z" fill="#fbee34"/><path d="m326.76 306.6c5.76 0 10.42 3.79 10.42 8.46v34.87c0 4.67-4.66 8.46-10.42 8.46h-32.57c-5.76 0-10.42-3.79-10.42-8.46v-34.87c0-4.67 4.66-8.46 10.42-8.46z" fill="#ef3d27"/><path d="m326.76 396.79c5.76 0 10.42 3.79 10.42 8.46v34.88c0 4.67-4.66 8.45-10.42 8.45h-32.57c-5.76 0-10.42-3.78-10.42-8.45v-34.88c0-4.67 4.66-8.46 10.42-8.46z" fill="#fbee34"/><path d="m325.88 585.06c5.76 0 10.43 3.78 10.43 8.46v34.87c0 4.681-4.67 8.45-10.43 8.45h-32.57c-5.76 0-10.42-3.77-10.42-8.45v-34.87c0-4.68 4.66-8.46 10.42-8.46z" fill="#abd153"/><g fill="none"><g stroke="#231f20"><path d="m606.89 103.14v640.84c0 20.119-15.68 36.42-35.029 36.42h-293.051c-19.35 0-35.03-16.301-35.03-36.42v-640.84c0-20.1 15.68-36.41 35.03-36.41h293.05c19.35 0 35.03 16.31 35.03 36.41z" stroke-width="21"/><path d="m337.18 260.68c0 4.67-4.66 8.45-10.42 8.45h-32.57c-5.76 0-10.42-3.78-10.42-8.45v-34.88c0-4.67 4.66-8.45 10.42-8.45h32.57c5.76 0 10.42 3.78 10.42 8.45zm77.06 0c0 4.67-4.66 8.45-10.42 8.45h-32.57c-5.76 0-10.42-3.78-10.42-8.45v-34.88c0-4.67 4.66-8.45 10.42-8.45h32.57c5.76 0 10.42 3.78 10.42 8.45zm76.62-.06c0 4.66-4.66 8.45-10.42 8.45h-32.57c-5.76 0-10.42-3.79-10.42-8.45v-34.88c0-4.67 4.66-8.46 10.42-8.46h32.57c5.76 0 10.42 3.79 10.42 8.46zm77.06 0c0 4.66-4.67 8.45-10.43 8.45h-32.56c-5.76 0-10.43-3.79-10.43-8.45v-34.88c0-4.67 4.67-8.46 10.43-8.46h32.561c5.76 0 10.43 3.79 10.43 8.46v34.88zm-230.74 89.31c0 4.67-4.66 8.46-10.42 8.46h-32.57c-5.76 0-10.42-3.79-10.42-8.46v-34.87c0-4.67 4.66-8.46 10.42-8.46h32.57c5.76 0 10.42 3.79 10.42 8.46zm77.06 0c0 4.67-4.66 8.46-10.42 8.46h-32.57c-5.76 0-10.42-3.79-10.42-8.46v-34.87c0-4.67 4.66-8.46 10.42-8.46h32.57c5.76 0 10.42 3.79 10.42 8.46zm76.62-.06c0 4.67-4.66 8.45-10.42 8.45h-32.57c-5.76 0-10.42-3.78-10.42-8.45v-34.87c0-4.67 4.66-8.46 10.42-8.46h32.57c5.76 0 10.42 3.79 10.42 8.46zm77.06 0c0 4.67-4.67 8.45-10.43 8.45h-32.56c-5.76 0-10.43-3.78-10.43-8.45v-34.87c0-4.67 4.67-8.46 10.43-8.46h32.561c5.76 0 10.43 3.79 10.43 8.46v34.87zm-230.74 90.26c0 4.67-4.66 8.45-10.42 8.45h-32.57c-5.76 0-10.42-3.78-10.42-8.45v-34.88c0-4.67 4.66-8.46 10.42-8.46h32.57c5.76 0 10.42 3.79 10.42 8.46zm77.06 0c0 4.67-4.66 8.45-10.42 8.45h-32.57c-5.76 0-10.42-3.78-10.42-8.45v-34.88c0-4.67 4.66-8.46 10.42-8.46h32.57c5.76 0 10.42 3.79 10.42 8.46zm76.62-.07c0 4.671-4.66 8.46-10.42 8.46h-32.57c-5.76 0-10.42-3.789-10.42-8.46v-34.87c0-4.67 4.66-8.46 10.42-8.46h32.57c5.76 0 10.42 3.79 10.42 8.46zm77.06 0c0 4.671-4.67 8.46-10.43 8.46h-32.56c-5.76 0-10.43-3.789-10.43-8.46v-34.87c0-4.67 4.67-8.46 10.43-8.46h32.561c5.76 0 10.43 3.79 10.43 8.46v34.87zm-231.61 188.33c0 4.681-4.67 8.45-10.43 8.45h-32.57c-5.76 0-10.42-3.77-10.42-8.45v-34.87c0-4.68 4.66-8.46 10.42-8.46h32.57c5.76 0 10.43 3.78 10.43 8.46zm77.06 0c0 4.681-4.67 8.45-10.43 8.45h-32.57c-5.76 0-10.42-3.77-10.42-8.45v-34.87c0-4.68 4.66-8.46 10.42-8.46h32.57c5.76 0 10.43 3.78 10.43 8.46zm76.62-.06c0 4.67-4.67 8.46-10.431 8.46h-32.559c-5.76 0-10.43-3.79-10.43-8.46v-34.87c0-4.67 4.67-8.46 10.43-8.46h32.56c5.761 0 10.431 3.79 10.431 8.46v34.87zm77.05 0c0 4.67-4.66 8.46-10.42 8.46h-32.57c-5.76 0-10.42-3.79-10.42-8.46v-34.87c0-4.67 4.66-8.46 10.42-8.46h32.57c5.76 0 10.42 3.79 10.42 8.46zm-229.64-101.23c0 4.67-4.66 8.45-10.42 8.45h-32.57c-5.76 0-10.42-3.78-10.42-8.45v-34.88c0-4.67 4.66-8.45 10.42-8.45h32.57c5.76 0 10.42 3.78 10.42 8.45zm77.06 0c0 4.67-4.66 8.45-10.42 8.45h-32.57c-5.76 0-10.43-3.78-10.43-8.45v-34.88c0-4.67 4.67-8.45 10.43-8.45h32.57c5.76 0 10.42 3.78 10.42 8.45zm48.82-396.26c0 3.87-3.96 7-8.84 7h-54.84c-4.88 0-8.84-3.13-8.84-7v-3.87c0-3.87 3.96-7 8.84-7h54.84c4.88 0 8.84 3.13 8.84 7z" stroke-width="14"/><path d="m426.72 686.48c16.681 0 30.21 13.529 30.21 30.21 0 16.689-13.529 30.21-30.21 30.21-16.69 0-30.21-13.521-30.21-30.21 0-16.68 13.52-30.21 30.21-30.21z" stroke-width="21"/><path d="m262.5 567.99h319.62v87.56h-319.62zm1.75-393.74h320v378h-320z" stroke-width="7"/></g><path d="m.25.25h850.394v850.394h-850.394z"/></g></svg>