<svg height="850.394" viewBox="0 0 850.394 850.394" width="850.394" xmlns="http://www.w3.org/2000/svg"><path d="m689.45 150.59c1.22 3.78 1.899 7.89 1.939 12.18.101 10.4-3.58 19.75-9.5 26.13-4.899 5.29-11.34 8.53-18.42 8.59-15.59.15-28.37-15.16-28.56-34.19-.18-19.03 12.32-34.57 27.93-34.72 12.071-.11 22.451 9.04 26.611 22.01zm-154.21 74.37c1.16-13.56 9.24-24.8 21.04-27.39 15.229-3.34 30.88 9.02 34.95 27.61 4.079 18.59-4.971 36.37-20.211 39.71-6.92 1.51-13.92-.21-19.88-4.29-7.18-4.89-12.85-13.18-15.08-23.34-.919-4.19-1.169-8.34-.819-12.3z" fill="#c8c8c8"/><path d="m453.81 107.19v500.92c0 10.29-7.81 18.649-17.46 18.649h-304.84c-9.63 0-17.46-8.359-17.46-18.649v-500.92c0-10.3 7.83-18.64 17.46-18.64h304.84c9.64 0 17.46 8.34 17.46 18.64zm-57.32 159.4v-120.52c0-9.94-8.14-17.99-18.16-17.99h-187.84c-10.03 0-18.16 8.05-18.16 17.99v120.52c0 9.93 8.13 17.98 18.16 17.98h187.84c10.02 0 18.16-8.05 18.16-17.98zm-5.14 202.68c0-59.06-47.87-106.95-106.94-106.95s-106.95 47.89-106.95 106.95c0 59.061 47.88 106.94 106.95 106.94s106.94-47.88 106.94-106.94z" fill="#ffeec8"/><path d="m396.49 146.07v120.52c0 9.93-8.14 17.98-18.16 17.98h-187.84c-10.03 0-18.16-8.05-18.16-17.98v-120.52c0-9.94 8.13-17.99 18.16-17.99h187.84c10.02 0 18.16 8.05 18.16 17.99z" fill="#00efdc"/><path d="m284.41 362.32c59.07 0 106.94 47.89 106.94 106.95 0 59.061-47.87 106.94-106.94 106.94s-106.95-47.88-106.95-106.94 47.88-106.95 106.95-106.95zm37.93 106.95c0-20.949-16.97-37.93-37.93-37.93-20.95 0-37.94 16.98-37.94 37.93s16.99 37.94 37.94 37.94c20.96 0 37.93-16.99 37.93-37.94z" fill="#c8c8c8"/><path d="m284.41 431.34c20.96 0 37.93 16.98 37.93 37.93s-16.97 37.94-37.93 37.94c-20.95 0-37.94-16.99-37.94-37.94s16.99-37.93 37.94-37.93z" fill="#c8c8c8"/><g fill="none"><g stroke="#000"><g stroke-width="24.551"><path d="m131.51 626.76c-9.63 0-17.46-8.359-17.46-18.649v-500.921c0-10.3 7.83-18.64 17.46-18.64h304.84c9.641 0 17.46 8.34 17.46 18.64v500.92c0 10.29-7.81 18.649-17.46 18.649h-304.84zm403.73-401.8c1.16-13.56 9.24-24.8 21.04-27.39 15.229-3.34 30.88 9.02 34.95 27.61 4.079 18.59-4.971 36.37-20.211 39.71-6.92 1.51-13.92-.21-19.88-4.29-7.18-4.89-12.85-13.18-15.08-23.34-.919-4.19-1.169-8.34-.819-12.3z"/><path d="m535.27 224.91s-.01.02-.029.05c-.63.99-10.221 16.45-7.771 40.21 2.54 24.56 18.42 77.24 18.42 77.24l4.98 10.9 10.899-4.99-10.63-87.72v-.02m138.311-109.99c-4.16-12.97-14.54-22.12-26.61-22.01-15.609.15-28.109 15.69-27.93 34.72.189 19.03 12.97 34.34 28.56 34.19 7.08-.06 13.521-3.3 18.42-8.59 5.92-6.38 9.601-15.73 9.5-26.13-.04-4.29-.72-8.4-1.94-12.18z"/><path d="m689.4 150.54.05.05c.859.85 13.63 13.8 16.54 37.47 3 24.5-.71 79.39-.71 79.39l-2.431 11.75-5.5-1.15-6.239-1.3-9.221-87.85v-.04m-129.669 165.2c-5.1 29.37 28.92 44.46 49.5 56.86 28.5 17.18 54.75 30.72 74.67 58.15 27 37.189 28.94 91.199 14.63 140.91-12.68 44.039-38.109 84.71-70.17 107.319-17.47 12.311-114 93.05-262.859.65-49.43-30.681-121.35-48.32-177.61-39.11"/><path d="m691.02 609.98c34.86-54.07 57.341-154.57 45.461-213.371-7.07-35.02-37.53-79.45-39.131-118.56-.31-7.38.42-14.57 2.521-21.47"/></g><path d="m177.68 666.62v-22.22" stroke-linecap="round" stroke-linejoin="round" stroke-width="49.102"/><path d="m396.49 266.59c0 9.93-8.14 17.98-18.16 17.98h-187.84c-10.03 0-18.16-8.05-18.16-17.98v-120.52c0-9.94 8.13-17.99 18.16-17.99h187.84c10.02 0 18.16 8.05 18.16 17.99zm-5.14 202.68c0 59.061-47.87 106.94-106.94 106.94s-106.95-47.88-106.95-106.94 47.88-106.95 106.95-106.95 106.94 47.89 106.94 106.95z" stroke-width="24.551"/><path d="m322.34 469.27c0 20.95-16.97 37.94-37.93 37.94-20.95 0-37.94-16.99-37.94-37.94 0-20.949 16.99-37.93 37.94-37.93 20.96 0 37.93 16.98 37.93 37.93z" stroke-width="24.551"/></g><path d="m0 0h850.394v850.394h-850.394z"/></g></svg>