<svg height="850.394" viewBox="0 0 850.394 850.394" width="850.394" xmlns="http://www.w3.org/2000/svg"><path d="m229.16 618.91-3.31 17.29-2.65-.51-31.04-10.5-28.28-9.58-31.18-10.55-3.48 10.28c4.24-19.06 9.43-44.46 13.81-72.17 13.48-85.13 41.04-241.91 41.04-241.91s16.53-72.27 39.19-85.13c13.88-7.88 44.12-18.39 68.65-28.53l.29-.43c68.62 46.64 146.02 87.38 149.7 203.57v10.31c-.221 6.91-.221 14.07 0 21.47v348.86h-218.64l5.91-152.47zm133.74 39.4v-27.56h-124.94v27.56zm271.58-43.57h-.011l4.03 156.64h-196.599v-362.95c.109-3.67.159-7.28.13-10.81 4.76-111.98 66.84-161.84 131.279-209.46l.12.17c24.25 9.85 54.91 20.55 68.28 28.14 22.66 12.86 39.19 85.13 39.19 85.13s27.56 156.78 41.04 241.919c5.6 35.351 13.56 71.511 18.13 90.95l-7.269-21.469-31.17 10.55-28.3 9.57-31.03 10.5-2.28.43zm-5.17 43.57v-27.56h-124.94v27.56z" fill="#0b00ea"/><path d="m573.31 188.16c-64.439 47.62-126.52 97.48-131.279 209.46-.011-2.32-.05-4.62-.13-6.88v-94.38c0-25.12 12.859-66.42 25.729-87.85 7.15-11.92 15.83-30.96 20.89-52.24 4.04-17.01 5.761-35.45 2.53-52.83-.46-2.5-1.43-4.75-2.78-6.76 56.561 22.86 90.181 65.93 107.091 75.19-7.331 5.46-14.701 10.86-22.051 16.29z" fill="#f73900"/><path d="m376.62 154.27c7.58 25.98 21.93 49.42 29.76 62.47 12.86 21.43 35.521 48.38 35.521 73.49v100.51c-3.681-116.19-81.081-156.93-149.7-203.57-7.58-5.16-15.05-10.38-22.31-15.79 16.96-9.3 50.74-52.62 107.63-75.42-1.68 2.1-2.92 4.47-3.6 7.14-4.261 16.72-2.181 34.47 2.699 51.17z" fill="#f73900"/><path d="m377.52 95.96c13.62-17.15 55.81-16.75 55.81-16.75s42.92-.43 54.939 17.47c1.351 2.01 2.32 4.26 2.78 6.76 3.23 17.38 1.51 35.82-2.53 52.83l-.68-.16c-13.03-11.42-32.51-16.43-50.729-17.16-11.18-.45-22.9.9-33.82 3.09-10.12 2.02-17.7 7-26.15 12.08l-.52.15c-4.88-16.7-6.96-34.45-2.7-51.17.68-2.67 1.92-5.04 3.6-7.14z" fill="#f73900"/><path d="m377.14 154.12c8.45-5.08 16.03-10.06 26.15-12.08 10.92-2.19 22.64-3.54 33.82-3.09 18.22.73 37.699 5.74 50.729 17.16l.68.16c-5.06 21.28-13.739 40.32-20.89 52.24-12.87 21.43-25.729 62.73-25.729 87.85v-6.13c0-25.11-22.66-52.06-35.521-73.49-7.83-13.05-22.18-36.49-29.76-62.47z" fill="#0b00ea"/><g fill="#f73900"><path d="m740.07 634.47 4.91 14.5-31.18 10.55-12.17-35.97 31.17-10.55zm-38.44-10.92 12.17 35.97-28.29 9.57-12.18-35.97z"/><path d="m685.51 669.09-31.04 10.51-12.17-35.98 31.03-10.5zm-181.14-38.34h124.939v27.56h-124.939zm-266.41 0h124.94v27.56h-124.94zm-14.76 4.94-12.17 35.97-31.03-10.5v-.01l12.16-35.96z"/><path d="m163.88 615.61 28.28 9.58-12.16 35.96v.01l-28.29-9.58z"/><path d="m129.22 615.36v-.02l3.48-10.28 31.18 10.55-12.17 35.97-31.18-10.55z"/></g><g fill="none" stroke="#000"><g stroke-width="22.048"><path d="m222.15 655.53 3.7-19.33 3.31-17.29 38.2-199.45m-138.14 195.9c-1.54 6.88-2.95 12.93-4.15 17.97m166.84-445.73c-24.53 10.14-54.77 20.65-68.65 28.53-22.66 12.86-39.19 85.13-39.19 85.13s-27.56 156.78-41.04 241.91c-4.38 27.71-9.57 53.11-13.81 72.17m514.44 47.96-3.64-19.25-5.54-29.31-36.86-194.94m-24.19-231.47c24.25 9.85 54.91 20.55 68.28 28.14 22.66 12.86 39.19 85.13 39.19 85.13s27.56 156.78 41.04 241.919c5.6 35.351 13.56 71.511 18.13 90.95m-298.17-338.109c0-25.12 12.859-66.42 25.729-87.85 7.15-11.92 15.83-30.96 20.89-52.24 4.04-17.01 5.761-35.45 2.53-52.83-.46-2.5-1.43-4.75-2.78-6.76-12.02-17.9-54.939-17.47-54.939-17.47s-42.19-.4-55.81 16.75c-1.68 2.1-2.92 4.47-3.6 7.14-4.26 16.72-2.18 34.47 2.7 51.17 7.58 25.98 21.93 49.42 29.76 62.47 12.86 21.43 35.521 48.38 35.521 73.49v481.15m-34.561 0h-184.08l5.91-152.47"/><path d="m407.34 771.38h231.16l-4.03-156.64m-256.93-518.79c-.01 0-.01.01-.02.01-56.89 22.8-90.67 66.12-107.63 75.42 7.26 5.41 14.73 10.63 22.31 15.79 68.62 46.64 146.02 87.38 149.7 203.57.08 2.26.119 4.56.13 6.88.029 3.53-.021 7.14-.13 10.81"/><path d="m487.7 96.45c.189.08.38.15.569.23 56.561 22.86 90.181 65.93 107.091 75.19-7.33 5.46-14.7 10.86-22.051 16.29-64.439 47.62-126.52 97.48-131.279 209.46-.05 1.14-.101 2.28-.13 3.43-.221 6.91-.221 14.07 0 21.47m-203.94 208.23h124.94v27.56h-124.94zm266.41 0h124.939v27.56h-124.939zm-281.17 4.94-12.17 35.97-31.03-10.5-28.29-9.58-31.18-10.55 8.69-25.67v-.02l3.48-10.28 31.18 10.55 28.28 9.58z"/></g><path d="m163.88 615.61-12.17 35.97m40.45-26.39-12.16 35.96" stroke-width="14.699"/><path d="m642.3 643.62 12.17 35.98 31.04-10.51 28.29-9.57 31.18-10.55-4.91-14.5-7.27-21.47-31.17 10.55-28.3 9.57z" stroke-width="22.048"/><path d="m701.63 623.55 12.17 35.97m-40.47-26.4 12.18 35.97" stroke-width="14.699"/><path d="m377.14 154.12c8.45-5.08 16.03-10.06 26.15-12.08 10.92-2.19 22.64-3.54 33.82-3.09 18.22.73 37.699 5.74 50.729 17.16" stroke-width="22.048"/></g><path d="m0 0h850.394v850.394h-850.394z" fill="none"/></svg>