<svg height="850.394" viewBox="0 0 850.394 850.394" width="850.394" xmlns="http://www.w3.org/2000/svg"><path d="m85.859 474.27s21.276-33.201 26.97-45.423c19.129-41.058 17.034-109.297 25.55-139.814 8.516-30.518 20.56-57.761 48.97-70.972 30.521-14.195 75.231 1.064 75.231 43.293 0 0 2.841 31.938-17.743 44.001-14.721 8.632-12.063 9.937-12.063 19.164" fill="none" stroke="#000" stroke-width="14.818"/><path d="m206.078 213.138c28.823 2.424 49.341 22.964 49.341 52.358 0 0 2.839 31.938-17.743 44.004m-5.613 63.279v31.702m0 54.18v31.698" fill="none" stroke="#000" stroke-linecap="round" stroke-linejoin="round" stroke-width="14.818"/><path d="m254.06 496.98s33.49 74.579 24.84 95.1c-11.35 26.97-25.55 34.78-40.45 38.33l-11.98.32c-14.9-3.551-29.1-11.351-40.46-38.33-8.64-20.521 24.84-95.091 24.84-95.091l-.08-.329z" fill="#33a02c"/><path d="m231.64 411.26c12.93 0 23.42 10.48 23.42 23.42s-10.49 23.42-23.42 23.42c-12.94 0-23.42-10.479-23.42-23.42 0-12.94 10.48-23.42 23.42-23.42zm.42-85.32c12.94 0 23.43 10.48 23.43 23.42 0 12.93-10.49 23.42-23.43 23.42-12.93 0-23.42-10.49-23.42-23.42 0-12.94 10.49-23.42 23.42-23.42z" fill="#be0000"/><path d="m255.49 349.36c0 12.93-10.49 23.42-23.43 23.42-12.93 0-23.42-10.49-23.42-23.42 0-12.94 10.49-23.42 23.42-23.42 12.94 0 23.43 10.48 23.43 23.42zm-.43 85.32c0 12.94-10.49 23.42-23.42 23.42-12.94 0-23.42-10.479-23.42-23.42 0-12.939 10.48-23.42 23.42-23.42 12.93 0 23.42 10.48 23.42 23.42zm-44.21 62.63s-33.48 74.57-24.84 95.091c11.36 26.979 25.56 34.779 40.46 38.33l11.98-.32c14.9-3.55 29.1-11.36 40.45-38.33 8.65-20.521-24.84-95.1-24.84-95.1h-43.29z" fill="none" stroke="#000" stroke-linecap="round" stroke-linejoin="round" stroke-width="14.818"/><path d="m222.837 643.186h17.744" fill="none" stroke="#000" stroke-linecap="round" stroke-linejoin="round" stroke-width="14.818"/><ellipse cx="546.555" cy="384.852" fill="none" rx="214.237" ry="136.446"/><g fill="#aa06d5"><path d="m731.478 403.351c-2.779 9.44 2.157 23.503 14.276 31.711 11.973 8.229 30.486 2.39 36.353-16.229 5.743-18.85-6.855-34.686-21.319-33.814-14.733.758-26.275 9.083-29.31 18.332z"/><path d="m710.29 437.658c-8.04 8.29-9.247 23.846-.819 35.752 8.42 11.95 26.579 13.612 38.985.939 12.392-12.933 10.005-31.944-2.79-39.146-12.69-7.196-27.448-5.74-35.376 2.455z"/><path d="m674.241 464.645c-10.979 6.092-16.355 21.027-11.005 34.617 5.342 13.612 22.045 19.749 36.677 11.686 14.695-8.078 18.469-25.972 9.424-37.438-9.052-11.514-24.108-14.852-35.096-8.865z"/><path d="m630.51 482.868c-12.452 3.812-20.75 17.422-18.01 31.814 2.715 14.328 17.764 23.587 33.307 18.87 15.588-4.647 23.122-20.866 17.276-34.228-5.86-13.434-20.104-20.14-32.573-16.456z"/><path d="m583.074 492.641c-13.127 1.621-23.615 13.727-23.245 28.372.358 14.583 13.602 26.132 29.516 24.198 15.922-1.934 26.171-16.175 22.992-30.493-3.151-14.229-16.148-23.658-29.263-22.077z"/><path d="m534.234 494.556c-13.27-.449-25.47 9.851-27.418 24.363-1.953 14.466 9.369 27.968 25.343 28.54 15.957.571 28.273-11.796 27.503-26.438-.76-14.557-12.156-25.982-25.428-26.465z"/><path d="m485.875 488.737c-12.872-2.592-26.529 5.488-31.005 19.451-4.461 13.879 4.502 29.185 20.312 32.401 15.784 3.229 29.941-7.139 31.469-21.69 1.533-14.524-7.905-27.51-20.776-30.162z"/><path d="m439.943 474.779c-11.85-4.843-26.606.339-33.986 12.978-7.381 12.607-1.538 29.649 13.689 35.921 15.183 6.265 31.074-1.489 35.063-15.535 4.013-14.071-2.913-28.444-14.766-33.364z"/><path d="m399.409 452.147c-9.802-7.079-24.783-6.044-35.733 3.799-10.842 9.682-9.832 28.443 4.06 38.625 13.764 10.198 31.266 6.024 38.077-6.895 6.836-12.917 3.319-28.259-6.404-35.529z"/><path d="m369.807 421.034c-5.775-8.862-19.307-13.575-33.514-10.022-14.226 3.452-21.491 22.022-11.474 37.934 9.823 15.864 28.661 17.228 38.738 6.883 10.343-10.498 11.709-25.603 6.25-34.795z"/><path d="m358.792 384.793c-.066-9.502-8.689-21.119-22.5-26.1-13.62-5.031-30.227 6.135-30.443 26.05.18 19.914 16.765 31.118 30.398 26.108 13.815-4.955 22.464-16.557 22.545-26.058z"/><path d="m369.875 348.561c5.475-9.188 4.13-24.299-6.199-34.803-10.07-10.359-28.905-9.021-38.747 6.824-10.04 15.894-2.801 34.473 11.409 37.95 14.209 3.581 27.745-1.113 33.537-9.971z"/><path d="m399.524 317.472c9.729-7.268 13.264-22.599 6.433-35.525-6.799-12.92-24.298-17.118-38.067-6.928-13.895 10.173-14.932 28.923-4.097 38.622 10.936 9.851 25.926 10.908 35.731 3.831z"/><path d="m440.083 294.868c11.857-4.908 18.788-19.288 14.787-33.352-3.984-14.056-19.863-21.81-35.051-15.56-15.229 6.265-21.089 23.293-13.716 35.911 7.367 12.641 22.127 17.84 33.98 13.001z"/><path d="m486.024 280.935c12.874-2.646 22.318-15.62 20.791-30.148-1.519-14.549-15.669-24.933-31.455-21.709-15.811 3.206-24.784 18.509-20.33 32.393 4.466 13.962 18.12 22.047 30.994 19.464z"/><path d="m534.39 275.141c13.272-.479 24.672-11.89 25.438-26.45.778-14.638-11.53-27.02-27.487-26.454-15.974.565-27.305 14.064-25.359 28.53 1.941 14.514 14.137 24.818 27.408 24.374z"/><path d="m583.228 277.081c13.114 1.586 26.112-7.829 29.271-22.06 3.187-14.313-7.052-28.568-22.974-30.508-15.914-1.943-29.165 9.601-29.53 24.186-.377 14.643 10.108 26.753 23.233 28.382z"/><path d="m630.656 286.879c12.468 3.688 26.709-3.001 32.58-16.437 5.854-13.354-1.666-29.586-17.254-34.239-15.541-4.728-30.597 4.525-33.32 18.854-2.747 14.389 5.546 28.002 17.994 31.822z"/><path d="m674.371 305.131c10.983 5.99 26.034 2.671 35.1-8.837 9.054-11.453 5.301-29.361-9.393-37.446-14.629-8.07-31.336-1.955-36.688 11.657-5.357 13.583.006 28.531 10.981 34.626z"/><path d="m710.389 332.144c7.907 8.205 22.661 9.677 35.365 2.499 12.803-7.182 15.219-26.188 2.843-39.148-12.399-12.683-30.559-11.049-38.992.898-8.435 11.895-7.25 27.459.784 35.751z"/><path d="m731.509 366.469c3.033 9.249 14.546 17.598 29.285 18.383 14.453.899 27.096-14.913 21.372-33.773-5.824-18.639-24.339-24.51-36.324-16.295-12.13 8.188-17.083 22.243-14.333 31.685z"/></g><path d="m0 0h850.394v850.394h-850.394z" fill="none"/></svg>