<svg height="850" viewBox="0 0 850 850" width="850" xmlns="http://www.w3.org/2000/svg"><path d="m138.5 793.8h-2.2l-2.5-.8-2.3-1.2-1-1-1-.8-.7-1-.8-1.2-.5-1.3-.5-1.2v-2.8l.5-1.7.5-1.5 5.3-9.5 2.7-4.5 2.3-4.8 26.2-.2.5 1.7.3 1.5v1l-.3 1-.2.8-.5.7-.5.5-.8.3-1.7.7-1.5.3-1.5.5-.5.5-.5.5-1.5 2-1 2.2-1 2.3-.8 2.2-.7 2.5-1.3 2.5-1.5 2.3-1.5 2.2-2 1.8-2.2 1.7-2.5 1-1.5.5zm102.3-14.5.7 1.5.5 1.7v2.8l-.5 1.2-.5 1.3-.7 1.2-.8 1-1 .8-1 1-2.5 1.2-2.2.8h-2.3l-1.5-.3-1.2-.5-2.5-1-2.3-1.7-2-1.8-1.7-2.2-1.3-2.3-1.2-2.5-.8-2.5-.7-2.2-1-2.3-1-2.2-1.5-2-.5-.5-.5-.5-1.5-.5-1.8-.3-1.5-.7-.7-.3-.5-.5-.5-.7-.5-.8v-2l.2-1.5.5-1.7h26.5v.7l2.3 4.5 2.5 4.5zm154.5-19 .5 1.7.2 1.5v1l-.2 1-.3.8-.5.7-.5.5-.7.3-1.8.7-1.5.3-1.5.5-.5.5-.5.5-1.5 2-1 2.2-1 2.3-.7 2.2-.8 2.5-1.2 2.5-1.5 2.3-1.5 2.2-2 1.8-2.3 1.7-2.5 1-1.5.5-1.2.3h-2.3l-2.5-.8-2.2-1.2-1-1-1-.8-.8-1-.7-1.2-.5-1.3-.5-1.2v-2.8l.5-1.7.5-1.5 5.2-9.5 2.8-4.5 2.2-4.8zm76.2 19 .8 1.5.5 1.7v2.8l-.5 1.2-.5 1.3-.8 1.2-.7 1-1 .8-1 1-2.5 1.2-2.3.8h-2.2l-1.5-.3-1.3-.5-2.5-1-2.2-1.7-2-1.8-1.8-2.2-1.2-2.3-1.3-2.5-.7-2.5-.8-2.2-1-2.3-1.2-2.2-1.3-2-.5-.5-.7-.3-1.5-.5-1.5-.2-1.8-.5-.7-.3-.5-.5-.5-.5-.3-1v-2.2l.5-1.5.5-1.8v-.2h26.3v.7l2.2 4.5 2.5 4.5zm175.5-238.8.5 1.5v2.5l-.2.8-.3.7-.5.8-1.5 1-1.5.5-1.5.7-1.5.5-1 .8-1.2 2-1.3 2.2-1 2.3-.7 2.5-.8 2.5-1.2 2.2-1.3 2.5-1.7 2-2 2-2.3 1.5-2.5 1.3-1.2.5-1.5.2h-1l-1.3-.2-2.2-.8-2.3-1.2-2.2-1.8-.8-1-.7-1-.5-1.2-.3-1.5-.2-1.3v-1.5l.5-1.5.7-1.5 5.3-9.5 2.5-4.7 2.2-4.5zm76.3 19 .7 1.5.3 1.5v2.8l-.3 1.5-.7 1.2-.5 1-1 1-1 1-1 .8-2.3 1.2-2.5.8-1 .2h-1.2l-1.3-.2-1.5-.5-2.5-1.3-2.2-1.5-2-2-1.5-2-1.5-2.5-1-2.2-1-2.5-.8-2.5-1-2.3-1-2.2-1.5-2-.5-.5-.5-.3-1.5-.5-1.5-.5-1.7-.5-.5-.2-.8-.5-.5-.8-.2-.7-.3-1v-1.3l.3-1.2.5-1.8h26.5v.8l2.2 4.5 2.5 4.5z" fill="#231f20"/><path d="m204.5 760.3h-3.7l-17-183.5v-.8l-17.8 184.3h-1.5l-26.2.2h-8.8l-.2-5.7-.3-9.3.3-27.5 1-74.7 2-108.5v-4.5h102.2l.3 5 1.7 115.5 2 109.5h-7.5zm164.5.2h-9v-5.7l-.2-9.3.2-27.5 1-74.7 2-108.5v-4.5h102.3l.2 5 1.8 115.5 2 109.5h-38l-16.8-183.5v-.8l-17.7 184.3h-1.5zm317.8-220h-3.8l-16.7-183.5v-.7l-17.8 184.2h-1.5l-26.5.3h-8.7l-.3-5.8v-36.7l1-74.8 2-108.5v-4.5h102.5v4.8l1.8 115.7 2 109.5h-7.5z" fill="#7a7878"/><path d="m111 546.3 1.8.2v1l.5 2 .5 2.8.2 3.7.3 4-.3 5.3-.5 4.7-.5 2.3-.5 1.7-.5 1.8-.7 1.2-.8-.2-.5-.3-.7-1.7-.3-.8-.5-.7-.7-.8-1-.2-.5 1.7-.5 1.8-.8 4.5-.5 2.2-.7 2-.8 1.3-.7.5-.8.2-1.2.3-1.5-.3-1.5-.5-1.3-.7-1.2-1-1.3-1-.7-1.3-.8-1-2.2-5.7-1.3-4-1.2-4.5-1-5.3-.8-5.2-.2-2.5v-2.8l.2-2.7.3-2.5.5-4.3h.7zm143 .5 25.8-4.5.5 4 .2 2.7.3 2.8-.3 5.2-.7 5.3-1 5-1.3 4.7-1.2 4-2.3 5.5-.5 1.3-1 1-1 1.2-1.2 1-1.5.8-1.5.5-1.3.2-1.5-.2-.7-.3-.5-.5-1-1.5-.8-1.7-.5-2.3-.7-4.5-.5-2-.5-1.5-1 .3-.8.5-.5.7-.2 1-.8 1.5-.5.5h-.7l-.8-1-.5-1.7-.5-2-.5-2-.5-5v-9l.3-3.8.5-3 .7-1.7-.2-1.3zm-95.2-177.5-.5-1.5 2-1 1.7-1.3 1.8-1.2 1.2-1.3 1.8-2.2.5-1 1.5-1.3 3.5 2.3 1.7.7 2 .8 1.8.7 2 .3 2 .2 2 .3 2-.3 2-.2 2-.3 2-.7 1.7-.8 2-.7 3.3-2.3 2 .3.7 1 1.5 2.5 1.3 1.5 1.2 1.2 1.5 1.3 1.5 1-.5 1.2h-.2l-.8 1.8-.7 1.7-1 1.8-1 1.5-1.3 1.5-1.2 1.2-1.5 1.3-1.5 1.2-1.5 1-1.8.8-2 .7-1.7.8-2.3.5-2 .2-2.2.3h-2.3l-3.7-.5-3.8-.8-3.2-1.2-3.3-1.8-2.7-2-2.5-2.5-2-2.7-1.5-3-3.5-.3z" fill="#ffeec8"/><path d="m183.8 278 3.2.3 3.3.5 3 1 2.7 1.5 2.8 1.7 2.7 2.3 2.5 2.5 2.3 2.7 2 3 1.7 3.3 1.5 3.5 1.5 3.7 1 4 .8 4.3.5 4.2.2 4.3-.2 3-.3 3-.2 3-.5 2.7-1.5 5.5-2 5-1 2.5-1.3 2.3-1.5 2-1.5 2-1.5 2-1.5 1.7-1.7 1.5-2 1.5-3.3 2.3-2 .7-1.7.8-2 .7-2 .3-2 .2-2 .3-2-.3-2-.2-2-.3-1.8-.7-2-.8-1.7-.7-3.5-2.3-1.8-1.5-1.7-1.5-1.8-1.7-1.5-2-1.5-2-1.2-2-1.3-2.3-1.2-2.5-2-5-1.3-5.5-.5-2.7-.5-3-.2-3v-3l.2-4.3.3-4.2 1-4.3 1-4 1.2-3.7 1.5-3.5 2-3.3 2-3 2.3-2.7 2.5-2.5 2.5-2.3 2.7-1.7 3-1.5 3-1 3-.5zm327.2 268.3.3 2.7.2 2.8-.2 5.2-.8 5.3-1 5-1.2 4.7-1.3 4-2.2 5.5-.5 1.3-1 1-1 1.2-1.3 1-1.5.8-1.5.5-1.2.2-1.5-.2-.8-.3-.5-.5-1-1.5-.7-1.7-.5-2.3-.8-4.5-.5-2-.5-1.5-1 .3-.7.5-.5.7-.3 1-.7 1.5-.5.5h-.8l-.7-1-.5-1.7-.5-2-.5-2-.5-5v-9.3l.2-3.5.5-3 .8-1.7-.3-1.3.8-.2 25.2-4.5h.5zm-168.2 0 1 .2-.3 1 .5 2 .5 2.8.3 3.7.2 4-.2 5.3-.5 4.7-.5 2.3-.5 1.7-.5 1.8-.8 1.2-.7-.2-.5-.3-.8-1.7-.2-.8-.5-.7-.8-.8-1-.2-.5 1.7-.5 1.8-.7 4.5-.5 2.2-.8 2-1 1.3-.5.5-.7.2-1.3.3-1.5-.3-1.5-.5-1.2-.7-1.3-1-1.2-1-.8-1.3-.7-1-2.3-5.7-1.2-4-1.3-4.5-1-5.3-.7-5.2-.3-2.5v-2.8l.3-2.7.2-2.5.5-4.3h1.8zm88.7-187.5.8 1 1.5 2.5 1.2 1.5 1.3 1.2 1.5 1.3 1.5 1-.5 1.2h-.3l-.7 1.8-.8 1.7-1 1.8-1 1.5-1.2 1.5-1.3 1.2-1.5 1.3-1.5 1.2-1.5 1-1.7.8-2 .7-1.8.8-2.2.5-2 .2-2.3.3h-2.2l-3.8-.5-3.7-.8-3.3-1.2-3.2-1.8-2.8-2-2.5-2.5-2-2.7-1.5-3-3.5-.3 2-.7-.7-1.5 2.2-1 1.8-1.3 1.7-1.2 1.3-1.3 1.7-2.2.5-1 1.5-1.3 3.5 2.3 1.8.7 2 .8 1.7.7 2 .3 2 .2 2 .3 2-.3 2-.2 2-.3 2-.7 1.8-.8 2-.7 3.2-2.3z" fill="#ffeec8"/><path d="m414.5 278 3.3.3 3.2.5 3 1 2.8 1.5 2.7 1.7 2.8 2.3 2.5 2.5 2.2 2.7 2 3 1.8 3.3 1.5 3.5 1.5 3.7 1 4 .7 4.3.5 4.2.3 4.3-.3 3-.2 3-.3 3-.5 2.7-1.5 5.5-2 5-1 2.5-1.2 2.3-1.5 2-1.5 2-1.5 2-1.5 1.7-1.8 1.5-2 1.5-3.2 2.3-2 .7-1.8.8-2 .7-2 .3-2 .2-2 .3-2-.3-2-.2-2-.3-1.7-.7-2-.8-1.8-.7-3.5-2.3-1.7-1.5-1.8-1.5-1.7-1.7-1.5-2-1.5-2-1.3-2-1.2-2.3-1.3-2.5-2-5-1.2-5.5-.5-2.7-.5-3-.3-3v-7.3l.5-4.2 1-4.3 1-4 1.3-3.7 1.5-3.5 2-3.3 2-3 2.2-2.7 2.5-2.5 2.5-2.3 2.8-1.7 3-1.5 3-1 3-.5zm348 48.5.5 2.8v2.5l-.2 5.5-.5 5.2-1 5-1.3 4.5-1.5 4-2.2 5.8-.5 1-1 1.2-1 1-1.3 1-1.5.8-1.2.5-1.5.2h-1.5l-.5-.2-.8-.5-1-1.5-.7-2-.5-2-.8-4.5-.2-2-.5-1.8-1 .5-.8.5-.5.8-.5 1-.7 1.5-.5.5h-.8l-.5-1.3-.7-1.5-.5-2-.3-2.2-.5-4.8-.2-5.2v-4l.5-3.8.2-2.7.8-2-.3-.8 1.8-.5 24.2-4.5.5-.2zm-169-.2 1.8.5-.3 1 .5 1.7.5 3 .5 3.5v4.3l-.2 5-.5 5-.3 2-.5 2-.7 1.7-.5 1h-.8l-.5-.5-.7-1.5-.5-1-.5-.7-.8-.5-1-.3-.5 1.5-.2 2-.8 4.5-.5 2.3-.7 1.7-1 1.5-.8.5-.5.3-1.5.2-1.5-.2-1.2-.5-1.5-.8-1.3-1-1-1.2-1-1-.7-1.3-2-5.5-1.5-4-1.3-4.7-1-5-.7-5.3v-8l.5-2.7.5-4h.5zm72.8-268.3 3.2.3 3 .7 3 1 3 1.5 2.8 1.8 2.5 2.2 2.5 2.3 2.2 3 2 3 1.8 3.2 1.7 3.5 1.3 3.8 1 4 .7 4 .5 4.2.3 4.5v3l-.3 3-.5 2.8-.5 3-1.5 5.2-1.7 5.3-1.3 2.2-1.2 2.3-1.3 2.2-1.5 2-1.5 1.8-1.7 1.7-1.8 1.8-1.7 1.5-1.8 1-1.7 1-1.8 1-2 .7-1.7.5-2 .5-2 .3h-4.3l-1.7-.3-2-.5-2-.5-1.8-.7-2-1-3.5-2-1.7-1.5-1.8-1.8-1.5-1.7-1.7-1.8-1.3-2-1.5-2.2-1.2-2.3-1-2.2-2-5.3-1.5-5.2-.5-3-.5-2.8v-3l-.3-3 .3-4.5.5-4.2.7-4 1-4 1.3-3.8 1.7-3.5 1.8-3.2 2-3 2.2-3 2.5-2.3 2.5-2.2 2.8-1.8 3-1.5 3-1 3.2-.7z" fill="#ffeec8"/><path d="m690 148.5-.5 2-1 1.8-.7 1.5-1.3 1.7-1 1.5-1.5 1.3-1.2 1.2-1.5 1-1.8 1.3-1.7.7-1.8.8-2 .7-2 .3-2.2.5h-4.5l-3.8-.3-3.7-.7-3.3-1.3-3.2-1.7-2.8-2.3-2.2-2.2-2-2.8-1.8-3.2h-3.2l2-.8-.8-1.5 2-1 2-1.2 1.5-1.3 1.3-1.5 1.7-2 .8-1 1.2-1.2 3.5 2 2 1 1.8.7 2 .5 2 .5 1.7.3h4.3l2-.3 2-.5 1.7-.5 2-.7 1.8-1 1.7-1 1.8-1 2 .2.5 1 1.7 2.5 1 1.3 1.3 1.5 1.5 1.2 1.7 1-.5 1.3z" fill="#ffeec8"/><path d="m461 455.3 3.8 60.2.5 7v7.8h-102.3l.5-22.8.8-23.5 1.5-29.5-22 92-1-.2-24-4.8h-1.8l5.3-39 3.2-22.7 1.5-9.5 1.3-7 4.5-21.8 4-17 3.5-13 3-9.2 2.5-6.3 1.5-3.7 1.2-1.8.3-.5 2.2-2 2.8-2 3.2-2 3.5-2 7.5-3.7 7.8-3.5 6.2-2.5 5.5-2.3 3.5.3 1.5 3 2 2.7 2.5 2.5 2.8 2 3.2 1.8 3.3 1.2 3.7.8 3.8.5h2.2l2.3-.3 2-.2 2.2-.5 1.8-.8 2-.7 1.7-.8 1.5-1 1.5-1.2 1.5-1.3 1.3-1.2 1.2-1.5 1-1.5 1-1.8.8-1.7.7-1.8h.3l9.7 4 6 2.8 6 2.7 6 3.3 5.8 3 4.7 3.2 2 1.5 1.8 1.8.2.2 1 1.8 1.5 3.2 2 6 2.8 9.3 3.2 12.7 3.5 17.5 4.3 22.3 2.5 16.7 3.2 22.8 5.5 39h-.5l-25.2 4.5-.8.2-22-92zm253.8-144.8h-100.3l.5-23 1-23.5 1.3-29.2-22 92-1.8-.5-24.2-4.5h-.5l5.2-39 3.3-22.8 1.5-9.5 1.2-7.2 4.5-21.8 4-17 3.5-12.7 3-9.3 2.3-6.2 1.7-3.8 1-2 .5-.5 2.3-2 2.7-2 3-2 3.5-2 7.5-3.7 7.8-3.3 6.5-2.7 5.5-2h3.2l1.8 3.2 2 2.8 2.2 2.2 2.8 2.3 3.2 1.7 3.3 1.3 3.7.7 3.8.3h4.5l2.2-.5 2-.3 2-.7 1.8-.8 1.7-.7 1.8-1.3 1.5-1 1.2-1.2 1.5-1.3 1-1.5 1.3-1.7.7-1.5 1-1.8.5-2 .5.3 9.8 4 5.7 2.5 6.3 3 6 3 5.5 3.2 4.7 3.3 2 1.5 1.8 1.5.2.5 1 1.5 1.5 3.5 2.3 6 2.5 9 3.2 13 3.8 17.2 4 22.5 2.7 16.5 3.3 23 5.2 38.8-.5.2-24.2 4.5-1.8.5-22-92.2h-.7l3.5 60.5h.2l.3 7 .2 7.7zm-484.5 144.8 3.7 60.2.5 7v7.8h-102.2l.5-22.8.7-23.5 1.5-29.5-22.2 92-1.8-.2-24-4.8h-.7l5.2-39 3.3-22.7 1.5-9.5 1.2-7 4.5-21.8 4-17 3.5-13 3-9.2 2.5-6.3 1.8-3.7 1-1.8.2-.5 2.3-2 2.7-2 3.3-2 3.5-2 7.5-3.7 7.7-3.5 6.3-2.5 5.5-2.3 3.5.3 1.5 3 2 2.7 2.5 2.5 2.7 2 3.3 1.8 3.2 1.2 3.8.8 3.7.5h2.3l2.2-.3 2-.2 2.3-.5 1.7-.8 2-.7 1.8-.8 1.5-1 1.5-1.2 1.5-1.3 1.2-1.2 1.3-1.5 1-1.5 1-1.8.7-1.7.8-1.8h.2l9.8 4 6 2.8 6 2.7 6 3.3 5.7 3 4.8 3.2 2 1.5 1.7 1.8.3.2 1 1.8 1.5 3.2 2 6 2.7 9.3 3.3 12.7 3.5 17.5 4.2 22.3 2.5 16.7 3.3 22.8 5.5 39-25.8 4.5-.7.2-22-92z" fill="#a9d7f3"/><g fill="none" stroke="#231f20" stroke-linecap="round" stroke-miterlimit="10"><path d="m665 590.3v179.7m-40.2-43.7 40.5 44.5 40.2-44.5" stroke-width="21"/><path d="m168.8 358.5-1.8-1.5-1.7-1.5-1.8-1.7-1.5-2-1.5-2-1.2-2-1.3-2.3-1.2-2.5-2-5-1.3-5.5-.5-2.7-.5-3-.2-3v-3l.2-4.3.3-4.2 1-4.3 1-4 1.2-3.7 1.5-3.5 2-3.3 2-3 2.3-2.7 2.5-2.5 2.5-2.3 2.7-1.7 3-1.5 3-1 3-.5 3.3-.3 3.2.3 3.3.5 3 1 2.7 1.5 2.8 1.7 2.7 2.3 2.5 2.5 2.3 2.7 2 3 1.7 3.3 1.5 3.5 1.5 3.7 1 4 .8 4.3.5 4.2.2 4.3-.2 3-.3 3-.2 3-.5 2.7-1.5 5.5-2 5-1 2.5-1.3 2.3-1.5 2-1.5 2-1.5 2-1.5 1.7-1.7 1.5-2 1.5-3.3 2.3-2 .7-1.7.8-2 .7-2 .3-2 .2-2 .3-2-.3-2-.2-2-.3-1.8-.7-2-.8-1.7-.7zm65.2 159v-2l-3.7-60.2v-1" stroke-width="14"/><path d="m135 454v.5l-1.5 29.5-.7 23.5-.5 22.8v4.5l-2 108.5-1 74.7-.3 27.5.3 9.3.2 5.7h8.8l26.2-.2h1.5l17.8-184.3v.8l17 183.5h37.7l-2-109.5-1.7-115.5-.3-5v-7.8l-.5-7m-99.7 14.8h98.2m-146.7 15.5.5-4.3 5.2-39 3.3-22.7 1.5-9.5 1.2-7 4.5-21.8 4-17 3.5-13 3-9.2 2.5-6.3 1.8-3.7 1-1.8.2-.5 2.3-2 2.7-2 3.3-2 3.5-2 7.5-3.7 7.7-3.5 6.3-2.5 5.5-2.3 2-.7 5-1.8" stroke-width="14"/><path d="m135 454.5-22.2 92v1l.5 2 .5 2.8.2 3.7.3 4-.3 5.3-.5 4.7-.5 2.3-.5 1.7-.5 1.8-.7 1.2-.8-.2-.5-.3-.7-1.7-.3-.8-.5-.7-.7-.8-1-.2-.5 1.7-.5 1.8-.8 4.5-.5 2.2-.7 2-.8 1.3-.7.5-.8.2-1.2.3-1.5-.3-1.5-.5-1.3-.7-1.2-1-1.3-1-.7-1.3-.8-1-2.2-5.7-1.3-4-1.2-4.5-1-5.3-.8-5.2-.2-2.5v-2.8l.2-2.7.3-2.5m1.2-4.3 24 4.8m169.3 0-.5-4-5.5-39-3.3-22.8-2.5-16.7-4.2-22.3-3.5-17.5-3.3-12.7-2.7-9.3-2-6-1.5-3.2-1-1.8-.3-.2-1.7-1.8-2-1.5-4.8-3.2-5.7-3-6-3.3-6-2.7-6-2.8-9.8-4h-.2l-5-2m28.5 88.5 22 92 .2 1.3-.7 1.7-.5 3-.3 3.8v9l.5 5 .5 2 .5 2 .5 1.7.8 1h.7l.5-.5.8-1.5.2-1 .5-.7.8-.5 1-.3.5 1.5.5 2 .7 4.5.5 2.3.8 1.7 1 1.5.5.5.7.3 1.5.2 1.3-.2 1.5-.5 1.5-.8 1.2-1 1-1.2 1-1 .5-1.3 2.3-5.5 1.2-4 1.3-4.7 1-5 .7-5.3.3-5.2-.3-2.8-.2-2.7" stroke-width="14"/><path d="m280.3 542.3h-.5l-25.8 4.5m-46.2-178.5v.2l-.8 1.8-.7 1.7-1 1.8-1 1.5-1.3 1.5-1.2 1.2-1.5 1.3-1.5 1.2-1.5 1-1.8.8-2 .7-1.7.8-2.3.5-2 .2-2.2.3h-2.3l-3.7-.5-3.8-.8-3.2-1.2-3.3-1.8-2.7-2-2.5-2.5-2-2.7-1.5-3m40.5-11.5.7 1 1.5 2.5 1.3 1.5 1.2 1.2 1.5 1.3 1.5 1 1.5.5m-42.7-8-.5 1-1.8 2.2-1.2 1.3-1.8 1.2-1.7 1.3-2 1h-.3m-19.7 392.5v.2l-2.3 4.8-2.7 4.5-5.3 9.5-.5 1.5-.5 1.7v2.8l.5 1.2.5 1.3.8 1.2.7 1 1 .8 1 1 2.3 1.2 2.5.8h2.2l1.3-.3 1.5-.5 2.5-1 2.2-1.7 2-1.8 1.5-2.2 1.5-2.3 1.3-2.5.7-2.5.8-2.2 1-2.3 1-2.2 1.5-2 .5-.5.5-.5 1.5-.5 1.5-.3 1.7-.7.8-.3.5-.5.5-.7.2-.8.3-1v-1l-.3-1.5-.5-1.7-.5-.8m67 1.5 2.3 4.5 2.5 4.5 5 9.3.7 1.5.5 1.7v2.8l-.5 1.2-.5 1.3-.7 1.2-.8 1-1 .8-1 1-2.5 1.2-2.2.8h-2.3l-1.5-.3-1.2-.5-2.5-1-2.3-1.7-2-1.8-1.7-2.2-1.3-2.3-1.2-2.5-.8-2.5-.7-2.2-1-2.3-1-2.2-1.5-2-.5-.5-.5-.5-1.5-.5-1.8-.3-1.5-.7-.7-.3-.5-.5-.5-.7-.5-.8v-2l.2-1.5.5-1.7.5-.8m194.5-401-1.7-1.5-1.8-1.5-1.7-1.7-1.5-2-1.5-2-1.3-2-1.2-2.3-1.3-2.5-2-5-1.2-5.5-.5-2.7-.5-3-.3-3v-7.3l.5-4.2 1-4.3 1-4 1.3-3.7 1.5-3.5 2-3.3 2-3 2.2-2.7 2.5-2.5 2.5-2.3 2.8-1.7 3-1.5 3-1 3-.5 3.2-.3 3.3.3 3.2.5 3 1 2.8 1.5 2.7 1.7 2.8 2.3 2.5 2.5 2.2 2.7 2 3 1.8 3.3 1.5 3.5 1.5 3.7 1 4 .7 4.3.5 4.2.3 4.3-.3 3-.2 3-.3 3-.5 2.7-1.5 5.5-2 5-1 2.5-1.2 2.3-1.5 2-1.5 2-1.5 2-1.5 1.7-1.8 1.5-2 1.5-3.2 2.3-2 .7-1.8.8-2 .7-2 .3-2 .2-2 .3-2-.3-2-.2-2-.3-1.7-.7-2-.8-1.8-.7zm65.3 159v-2l-3.8-60.2v-1" stroke-width="14"/><path d="m365.8 454v.5l-1.5 29.5-.8 23.5-.5 22.8v4.5l-2 108.5-1 74.7-.2 27.5.2 9.3v5.7h9l26.3-.2h1.5l17.7-184.3v.8l16.8 183.5h38l-2-109.5-1.8-115.5-.2-5v-7.8l-.5-7m-99.8 14.8h98m-146.5 15.5.5-4.3 5.3-39 3.2-22.7 1.5-9.5 1.3-7 4.5-21.8 4-17 3.5-13 3-9.2 2.5-6.3 1.5-3.7 1.2-1.8.3-.5 2.2-2 2.8-2 3.2-2 3.5-2 7.5-3.7 7.8-3.5 6.2-2.5 5.5-2.3 2-.7 5-1.8" stroke-width="14"/><path d="m365.8 454.5-22 92-.3 1 .5 2 .5 2.8.3 3.7.2 4-.2 5.3-.5 4.7-.5 2.3-.5 1.7-.5 1.8-.8 1.2-.7-.2-.5-.3-.8-1.7-.2-.8-.5-.7-.8-.8-1-.2-.5 1.7-.5 1.8-.7 4.5-.5 2.2-.8 2-1 1.3-.5.5-.7.2-1.3.3-1.5-.3-1.5-.5-1.2-.7-1.3-1-1.2-1-.8-1.3-.7-1-2.3-5.7-1.2-4-1.3-4.5-1-5.3-.7-5.2-.3-2.5v-2.8l.3-2.7.2-2.5m2.3-4.3 24 4.8m168.2 0-.5-4-5.5-39-3.2-22.8-2.5-16.7-4.3-22.3-3.5-17.5-3.2-12.7-2.8-9.3-2-6-1.5-3.2-1-1.8-.2-.2-1.8-1.8-2-1.5-4.7-3.2-5.8-3-6-3.3-6-2.7-6-2.8-9.7-4h-.3l-5-2m28.5 88.5 22 92 .3 1.3-.8 1.7-.5 3-.2 3.5v9.3l.5 5 .5 2 .5 2 .5 1.7.7 1h.8l.5-.5.7-1.5.3-1 .5-.7.7-.5 1-.3.5 1.5.5 2 .8 4.5.5 2.3.7 1.7 1 1.5.5.5.8.3 1.5.2 1.2-.2 1.5-.5 1.5-.8 1.3-1 1-1.2 1-1 .5-1.3 2.2-5.5 1.3-4 1.2-4.7 1-5 .8-5.3.2-5.2-.2-2.8-.3-2.7m-1-4-25.2 4.5" stroke-width="14"/><path d="m438.5 368.3v.2l-.7 1.8-.8 1.7-1 1.8-1 1.5-1.2 1.5-1.3 1.2-1.5 1.3-1.5 1.2-1.5 1-1.7.8-2 .7-1.8.8-2.2.5-2 .2-2.3.3h-2.2l-3.8-.5-3.7-.8-3.3-1.2-3.2-1.8-2.8-2-2.5-2.5-2-2.7-1.5-3m40.5-11.5.8 1 1.5 2.5 1.2 1.5 1.3 1.2 1.5 1.3 1.5 1 1.5.5m-42.8-8-.5 1-1.7 2.2-1.3 1.3-1.7 1.2-1.8 1.3-2.2 1m-19.8 392.5v.2l-2.2 4.8-2.8 4.5-5.2 9.5-.5 1.5-.5 1.7v2.8l.5 1.2.5 1.3.7 1.2.8 1 1 .8 1 1 2.2 1.2 2.5.8h2.3l1.2-.3 1.5-.5 2.5-1 2.3-1.7 2-1.8 1.5-2.2 1.5-2.3 1.2-2.5.8-2.5.7-2.2 1-2.3 1-2.2 1.5-2 .5-.5.5-.5 1.5-.5 1.5-.3 1.8-.7.7-.3.5-.5.5-.7.3-.8.2-1v-1l-.2-1.5-.5-1.7-.5-.8m67 1.5 2.2 4.5 2.5 4.5 5 9.3.8 1.5.5 1.7v2.8l-.5 1.2-.5 1.3-.8 1.2-.7 1-1 .8-1 1-2.5 1.2-2.3.8h-2.2l-1.5-.3-1.3-.5-2.5-1-2.2-1.7-2-1.8-1.8-2.2-1.2-2.3-1.3-2.5-.7-2.5-.8-2.2-1-2.3-1.2-2.2-1.3-2-.5-.5-.7-.3-1.5-.5-1.5-.2-1.8-.5-.7-.3-.5-.5-.5-.5-.3-1v-2.2l.5-1.5.5-1.8m215.5-621.7-1.7-1.5-1.8-1.8-1.5-1.7-1.7-1.8-1.3-2-1.5-2.2-1.2-2.3-1-2.2-2-5.3-1.5-5.2-.5-3-.5-2.8v-3l-.3-3 .3-4.5.5-4.2.7-4 1-4 1.3-3.8 1.7-3.5 1.8-3.2 2-3 2.2-3 2.5-2.3 2.5-2.2 2.8-1.8 3-1.5 3-1 3.2-.7 3.3-.3 3.2.3 3 .7 3 1 3 1.5 2.8 1.8 2.5 2.2 2.5 2.3 2.2 3 2 3 1.8 3.2 1.7 3.5 1.3 3.8 1 4 .7 4 .5 4.2.3 4.5v3l-.3 3-.5 2.8-.5 3-1.5 5.2-1.7 5.3-1.3 2.2-1.2 2.3-1.3 2.2-1.5 2-1.5 1.8-1.7 1.7-1.8 1.8-1.7 1.5-1.8 1-1.7 1-1.8 1-2 .7-1.7.5-2 .5-2 .3h-4.3l-1.7-.3-2-.5-2-.5-1.8-.7-2-1zm65.5 159-.2-2-3.5-60.5v-.8" stroke-width="14"/><path d="m617.3 234v.8l-1.3 29.2-1 23.5-.5 23v4.5l-2 108.5-1 74.8v36.7l.3 5.8h8.7l26.5-.3h1.5l17.8-184.2v.7l16.7 183.5h37.8l-2-109.5-1.8-115.7v-4.8l-.2-7.7-.3-7m-100 14.7h98.3m-146.5 15.3.5-4 5.2-39 3.3-22.8 1.5-9.5 1.2-7.2 4.5-21.8 4-17 3.5-12.7 3-9.3 2.3-6.2 1.7-3.8 1-2 .5-.5 2.3-2 2.7-2 3-2 3.5-2 7.5-3.7 7.8-3.3 6.5-2.7 5.5-2 2-.8 5-1.7" stroke-width="14"/><path d="m617.3 234.8-22 92-.3 1 .5 1.7.5 3 .5 3.5v4.3l-.2 5-.5 5-.3 2-.5 2-.7 1.7-.5 1h-.8l-.5-.5-.7-1.5-.5-1-.5-.7-.8-.5-1-.3-.5 1.5-.2 2-.8 4.5-.5 2.3-.7 1.7-1 1.5-.8.5-.5.3-1.5.2-1.5-.2-1.2-.5-1.5-.8-1.3-1-1-1.2-1-1-.7-1.3-2-5.5-1.5-4-1.3-4.7-1-5-.7-5.3v-8l.5-2.7m1-4 24.2 4.5m169 .2-.5-4.2-5.2-38.8-3.3-23-2.7-16.5-4-22.5-3.8-17.2-3.2-13-2.5-9-2.3-6-1.5-3.5-1-1.5-.2-.5-1.8-1.5-2-1.5-4.7-3.3-5.5-3.2-6-3-6.3-3-5.7-2.5-9.8-4-.5-.3-4.7-1.7m28.2 88.5 22 92.2.3.8-.8 2-.2 2.7-.5 3.8v4l.2 5.2.5 4.8.3 2.2.5 2 .7 1.5.5 1.3h.8l.5-.5.7-1.5.5-1 .5-.8.8-.5 1-.5.5 1.8.2 2 .8 4.5.5 2 .7 2 1 1.5.8.5.5.2h1.5l1.5-.2 1.2-.5 1.5-.8 1.3-1 1-1 1-1.2.5-1 2.2-5.8 1.5-4 1.3-4.5 1-5 .5-5.2.2-5.5v-2.5l-.5-2.8m-1-4-24.2 4.5" stroke-width="14"/><path d="m690.3 148.3-.3.2-.5 2-1 1.8-.7 1.5-1.3 1.7-1 1.5-1.5 1.3-1.2 1.2-1.5 1-1.8 1.3-1.7.7-1.8.8-2 .7-2 .3-2.2.5h-4.5l-3.8-.3-3.7-.7-3.3-1.3-3.2-1.7-2.8-2.3-2.2-2.2-2-2.8-1.8-3.2m40.8-11.3.5 1 1.7 2.5 1 1.3 1.3 1.5 1.5 1.2 1.7 1 1.3.5m-42.5-8-.8 1-1.7 2-1.3 1.5-1.5 1.3-2 1.2-2 1m-19.7 392.3-.3.5-2.2 4.5-2.5 4.7-5.3 9.5-.7 1.5-.5 1.5v1.5l.2 1.3.3 1.5.5 1.2.7 1 .8 1 2.2 1.8 2.3 1.2 2.2.8 1.3.2h1l1.5-.2 1.2-.5 2.5-1.3 2.3-1.5 2-2 1.7-2 1.3-2.5 1.2-2.2.8-2.5.7-2.5 1-2.3 1.3-2.2 1.2-2 1-.8 1.5-.5 1.5-.7 1.5-.5 1.5-1 .5-.8.3-.7.2-.8v-2.5l-.5-1.5-.5-2m66.8 2.8 2.2 4.5 2.5 4.5 5.3 9.2.7 1.5.3 1.5v2.8l-.3 1.5-.7 1.2-.5 1-1 1-1 1-1 .8-2.3 1.2-2.5.8-1 .2h-1.2l-1.3-.2-1.5-.5-2.5-1.3-2.2-1.5-2-2-1.5-2-1.5-2.5-1-2.2-1-2.5-.8-2.5-1-2.3-1-2.2-1.5-2-.5-.5-.5-.3-1.5-.5-1.5-.5-1.7-.5-.5-.2-.8-.5-.5-.8-.2-.7-.3-1v-1.3l.3-1.2.5-1.8.5-1" stroke-width="14"/></g></svg>