<svg height="850" viewBox="0 0 850 850" width="850" xmlns="http://www.w3.org/2000/svg"><path d="m728.3 678 .7 1.8.3 1.5.2 1.2-.2 1.5-.3 1.3-.5 1.2-.7 1.3-1 1-1 .7-1 1-2.3 1.3-2.2.7h-2.3l-1.5-.2-1.5-.5-2.5-1-2.2-1.8-1.8-1.7-1.7-2.3-1.5-2.2-1-2.5-1-2.5-.8-2.3-.7-2.2-1.3-2.3-1.2-2-.8-.5-.5-.5-2-.7-2.2-.8-2.3-.7-2-1.3-.7-.7-.8-1-.5-1-.2-1.3.2-1.5.3-1.7.2 1.7h30.3v.8l2.2 4.5 2.5 4.5zm-74.5-21.2.5 1.7.2 1.5v1.5l-.2 1-.5 1-.8.8-.7.7-1 .5-1.8 1-2 .8-1.7.7-.8.5-.5.5-1.2 2-1.3 2.3-.7 2.2-.8 2.3-1 2.5-1 2.5-1.5 2.2-1.7 2.3-1.8 1.7-2.2 1.8-2.5 1-1.5.5-1.5.2h-2.3l-2.2-.7-2.3-1.3-1.2-1-.8-.7-1-1-.7-1.3-.5-1.2-.3-1.3-.2-1.5.2-1.2.3-1.5.7-1.8 5.3-9.5 2.5-4.5 2.2-4.7 28-.3zm-170.5-101.3.7 1.8.3 1.5.2 1.2-.2 1.5-.3 1.3-.5 1.2-.7 1.3-1 1-.8 1-1.2.7-2.3 1.3-2.2.7h-2.3l-1.5-.2-1.2-.5-2.8-1-2-1.5-2-2-1.7-2.3-1.3-2.2-1.2-2.5-1-2.5-.8-2.3-.7-2.2-1.3-2.3-1.2-2-1-1-1.3-.7-2.5-1.8-1.5-1-1-1.5-.7-1.7v-1l-.3-1.3h27.5v.8l2 4.5 2.8 4.5zm-75.5-18.7v1l-.3 1-.7 1.7-1 1.5-1.3 1-2.7 1.8-1.3.7-1 1-1.2 2-1.3 2.3-.7 2.2-.8 2.3-1 2.5-1 2.5-1.5 2.2-1.7 2.3-1.8 2-2.2 1.5-2.5 1-1.5.5-1.5.2h-2.3l-2.2-.7-2.3-1.3-1-.7-1-1-1-1-.7-1.3-.5-1.2-.3-1.3-.2-1.5.2-1.2.3-1.5.7-1.8 5.3-9.5 2.7-4.5 2-4.7zm-163.8 141.2.5 1.8.5 1.5v2.7l-.5 1.3-.5 1.2-.7 1.3-.8 1-1 .7-1 1-2.2 1.3-2.5.7h-2.3l-1.5-.2-1.2-.5-2.5-1-2.3-1.8-2-1.7-1.7-2.3-1.3-2.2-1.2-2.5-.8-2.5-.7-2.3-1-2.2-1-2.3-1.5-2-1-1-1.5-.5-1.8-.7-1.7-.8-1.8-1-.7-.7-.5-.8-.5-.7-.3-1-.2-1.3.2-1.5h29v.8l2.3 4.5 2.5 4.5zm-74.7-21.2.5 1.7.2 1.5v1.5l-.2 1-.5 1-.5.8-.8.7-1 .5-2 1-2 .8-1.5.7-.7.5-.5.5-1.5 2-1 2.3-1 2.2-.8 2.3-.7 2.5-1.3 2.5-1.2 2.2-1.8 2.3-2 1.7-2.2 1.8-2.5 1-1.3.5-1.5.2h-2.2l-2.5-.7-2.3-1.3-1-1-1-.7-.7-1-.8-1.3-.5-1.2-.5-1.3v-2.7l.5-1.5.5-1.8 5.5-9.5 2.5-4.5 2.3-4.7 27.7-.3z" fill="#231f20"/><path d="m205 659h-1.2l-17-183.5v-.7l-17.5 182-.3 2.2-27.7.3h-8.8l-.2-5.8v-36.7l1-74.8 2-108.5v-4.5h102.5v5l1.7 115.5 2 109.5h-7.5zm241-122.5h-3l-16.7-183.5v-.7l-17.8 184.2-.7.3h-36l-.3-8v-13.5l.5-39.8.5-49.2 1-49.3 1-66v-4.5h102.5v5l1 66 2.8 159h-7.3zm179.5 122.8h-8.7l-.3-5.8v-9.2l.3-27.5 1-74.8 1.7-108.5v-4.5h102.5v5l.5 36 3.3 189h-37.8l-.2-1.7-16.5-181.8v-.7l-17.5 182-.3 2.2z" fill="#7a7878"/><path d="m688.3 257.5.5 1 1.7 2.5 1 1.5 1.5 1.3 1.3 1.2 1.7 1-.5 1.3-.2-.3-.8 2-.7 1.8-1 1.7-1 1.5-1.3 1.5-1.2 1.3-1.5 1.2-1.5 1.3-1.8 1-1.7.7-1.8.8-2 .7-2 .5-2 .3-2.2.2h-2.5l-3.8-.5-3.5-.7-3.5-1.3-3-1.7-3-2.3-2.2-2.2-2-2.8-1.8-3.2h-3.2l2-.8-.8-1.5 2-1 2-1.2 1.5-1.3 1.3-1.5 2-2 .5-1 1.5-1.2 3.2 2.2 2 .8 1.8.7 2 .5 2 .5 2 .3h4l2-.3 2-.5 1.7-.5 2-.7 1.8-.8 3.5-2.2z" fill="#ffeec8"/><path d="m671.3 176.5 3.2.3 3 .7 3 1 3 1.5 2.8 1.8 2.5 2.2 2.5 2.5 2.2 2.8 2 3 2 3.2 1.5 3.5 1.3 3.8 1.2 4 .8 4 .5 4.2v7.5l-.3 3-.5 2.8-.5 3-1.2 5.5-2 5-1.3 2.2-1.2 2.3-1.3 2.2-1.5 2-1.5 2-1.7 1.8-1.8 1.5-1.7 1.5-3.5 2.2-1.8.8-2 .7-1.7.5-2 .5-2 .3h-4l-2-.3-2-.5-2-.5-1.8-.7-2-.8-3.2-2.2-2-1.5-1.8-1.5-1.5-1.8-1.5-2-1.5-2-1.5-2.2-1.2-2.3-1-2.2-2-5-1.5-5.5-.5-3-.3-2.8-.2-3-.3-3 .3-4.5.5-4.2.7-4 1-4 1.5-3.8 1.5-3.5 1.8-3.2 2-3 2.2-2.8 2.5-2.5 2.8-2.2 2.7-1.8 2.8-1.5 3-1 3.2-.7zm96.5 268.5.2 2.8v8l-.7 5.2-1 5-1.3 4.5-1.2 4.3-2.3 5.5-.7 1.2-.8 1-1.2 1.3-1.3.7-1.2 1-1.5.5-1.5.3-1.3-.3-.7-.2-.5-.5-1-1-.5-1.5-.5-1.5-.8-3.5-.5-3.5-.2-1.5-.5-1-1 .2-.8.5-.5.8-.5 1-.5 1.5-.5.5h-.7l-.8-1.3-.7-1.5-.3-2-.5-2-.5-5-.2-5 .2-4.2.3-3.5.5-3 .5-2-.3-1 1-.3 25-4.5.5-.2zm-167.8 1.3.8 1.7.2 3 .5 3.8v4l-.2 5.2-.5 4.8-.3 2.2-.5 1.8-.5 1.7-.7 1.3-.8-.3-.5-.5-.7-1.5-.5-.7-.5-.8-.8-.7-1-.3-.5 1.5-.2 2-.8 4.5-.5 2.3-.7 2-1 1.2-.5.5-.8.3-1.5.2-1.5-.2-1.2-.5-1.5-.8-1.3-1-1-1-1-1.2-.5-1-2.2-5.8-1.3-4-1.2-4.7-1.3-5-.5-5.3-.2-5.2v-2.8l.5-2.5.5-4.2h.5l25.2 4.7h.8zm-342-.8 24.8-4.5.5 4 .2 2.8.3 2.5-.3 5.5-.7 5.2-1 5-1.3 4.5-1.2 4.3-2.3 5.5-.5 1.2-1 1-1 1.3-1.2.7-1.5 1-1.3.5-1.5.3-1.5-.3-.7-.2-.5-.5-1-1.5-.8-1.8-.5-2.2-.7-4.5-.3-2-.5-1.5-1.2.2-.5.5-.5.8-.5 1-.8 1.5-.5.5h-.7l-.8-1.3-.5-1.5-.5-2-.5-2-.5-5v-9.2l.3-3.5.5-3 .7-2-.2-.8zm-154.7 40-1.3-.2-1.2-.3-1.3-.7-1.2-.8-1-.7-1-1-.8-1-.5-1-2.2-5.8-1.3-4-1.2-4.7-1-5-.8-5.3-.2-2.5v-2.7l.2-2.8.3-2.5.5-4.5 1.7.3 25 4.5-.2 1.5.5 1.7.5 3 .2 3.8.3 4-.3 5.2-.5 4.8-.5 2.2-.5 1.8-.5 1.7-.7 1.3-.8-.3-.5-.5-.7-1.5-.3-.7-.5-.8-.7-.7-1-.3-.5 1.5-.5 2-.8 4.5-.5 2.3-.7 2-.8 1.2-.7.5-.8.3zm100.5-228 .7 1 1.5 2.5 1.3 1.5 1.2 1.3 1.5 1.2 1.5 1-.5 1.3-.2-.3-.8 2-.7 1.8-1 1.7-1 1.5-1.3 1.5-1.2 1.3-1.5 1.2-1.5 1.3-1.5 1-1.8.7-2 .8-1.7.7-2 .5-2.3.3-2.2.2h-2.3l-3.7-.5-3.8-.7-3.2-1.3-3.3-1.7-2.7-2.3-2.5-2.2-2-2.8-1.5-3.2h-3.5l2-.8-.5-1.5 2-1 1.7-1.2 1.8-1.3 1.2-1.5 1.8-2 .5-1 1.5-1.2 3.5 2.2 1.7.8 2 .7 1.8.5 2 .5 2 .3h4l2-.3 2-.5 2-.5 1.7-.7 2-.8 3.5-2.2z" fill="#ffeec8"/><path d="m186.8 176.5 3.2.3 3.3.7 3 1 3 1.5 2.7 1.8 2.5 2.2 2.5 2.5 2.3 2.8 2 3 1.7 3.2 1.5 3.5 1.5 3.8 1 4 .8 4 .5 4.2.2 4.5-.2 3-.3 3-.2 2.8-.5 3-1.5 5.5-2 5-1 2.2-1.3 2.3-1.5 2.2-1.2 2-1.8 2-1.5 1.8-1.7 1.5-1.8 1.5-3.5 2.2-2 .8-1.7.7-2 .5-2 .5-2 .3h-4l-2-.3-2-.5-1.8-.5-2-.7-1.7-.8-3.5-2.2-1.8-1.5-1.7-1.5-1.8-1.8-1.5-2-1.5-2-1.2-2.2-1.3-2.3-1.2-2.2-2-5-1.3-5.5-.5-3-.5-2.8-.2-3v-3l.2-4.5.3-4.2 1-4 1-4 1.2-3.8 1.8-3.5 1.7-3.2 2-3 2.3-2.8 2.5-2.5 2.5-2.2 2.7-1.8 3-1.5 3-1 3-.7zm336 146 .2 2.8.3 2.5-.3 5.5-.7 5.2-1 5-1.3 4.8-1.2 4-2.3 5.5-.7 1.2-.8 1-1.2 1.3-1.3.7-1.2 1-1.5.5-1.5.3-1.3-.3-.7-.2-.8-.5-.7-1.5-.8-1.8-.5-2.2-.7-4.5-.5-2-.5-1.5-1 .2-.8.5-.5.8-.2 1-.8 1.5-.5.5h-.7l-.8-1.3-.5-1.5-.5-2-.5-2-.5-5-.2-5 .2-4.2.3-3.5.5-3 .5-2-.3-1.5 26.8-4.3zm-167.8 1.3.8 1.7.5 3 .2 3.8v9.2l-.5 4.8-.5 2.2-.5 1.8-.5 1.7-.7 1.3-.8-.3-.5-.2-.7-1.8-.5-.7-.5-.8-.5-.7-1.3-.3-.5 1.5-.2 2-.8 4.5-.5 2.3-.7 2-1 1.2-.5.5-.8.3-1.5.2-1.5-.2-1.2-.5-1.5-.8-1.3-1-1-1-1-1.2-.5-1-2.2-5.8-1.3-4-1.2-4.7-1.3-5-.5-5.3-.2-5.2.2-2.8.3-2.5.5-4 25.7 4.5h.8zm71.3-269.8 3.2.3 3 .7 3.3 1 2.7 1.5 2.8 1.8 2.7 2.2 2.3 2.5 2.2 2.8 2 3 2 3.2 1.5 3.5 1.3 3.8 1.2 4 .8 4 .5 4.2v7.5l-.3 3-.2 3-.5 2.8-1.5 5.5-2 5-1.3 2.2-1.2 2.3-1.3 2.2-1.5 2-1.5 2-1.7 1.8-1.8 1.5-1.7 1.5-3.5 2.2-1.8.8-1.7.7-2 .5-2 .5-2 .3h-4l-2-.3-2-.5-2-.5-1.8-.7-1.7-.8-3.5-2.2-2-1.5-1.5-1.5-1.8-1.8-1.5-2-1.5-2-1.5-2.2-1.2-2.3-1-2.2-2-5-1.5-5.5-.5-2.8-.3-3-.2-3v-7.5l.5-4.2.7-4 1-4 1.5-3.8 1.5-3.5 1.8-3.2 2.2-3 2.3-2.8 2.2-2.5 2.8-2.2 2.7-1.8 2.8-1.5 3-1 3.2-.7z" fill="#ffeec8"/><path d="m443.3 135 .5 1 1.7 2.5 1 1.5 1.5 1.3 1.5 1.2 1.5 1-.5 1.3h-.2l-.8 1.7-.7 1.8-1 1.7-1 1.5-1.3 1.5-1.2 1.3-1.5 1.2-1.5 1.3-1.8 1-1.7.7-1.8.8-2 .7-2 .5-2 .3-2.2.2h-2.3l-4-.5-3.5-.7-3.5-1.3-3-1.7-2.7-2-2.5-2.5-2-2.8-1.5-3-3.5-.2 2-.8-.8-1.5 2.3-1 1.7-1.2 1.5-1.3 1.5-1.2 1.8-2.3.5-1 1.5-1.2 3.5 2.2 1.7.8 1.8.7 2 .5 2 .5 2 .3h4l2-.3 2-.5 2-.5 1.7-.7 1.8-.8 3.5-2.2z" fill="#ffeec8"/><path d="m237.3 416.3.5 12.7h-102.5l.5-22.7.7-23.5 1.5-29.5-22 91.5-25-4.5-1.7-.3 5.2-39 3.3-22.5 1.5-9.5 1.2-7 4.5-21.7 4.3-17.3 3.5-12.7 2.7-9.3 2.5-6.2 1.8-3.8 1-2 .2-.5 2.3-2 2.7-2 3.3-2 3.5-2 7.5-3.7 7.7-3.3 6.3-2.5 5.5-2.2h3.5l1.5 3.2 2 2.8 2.5 2.2 2.7 2.3 3.3 1.7 3.2 1.3 3.8.7 3.7.5h2.3l2.2-.2 2.3-.3 2-.5 1.7-.7 2-.8 1.8-.7 1.5-1 1.5-1.3 1.5-1.2 1.2-1.3 1.3-1.5 1-1.5 1-1.7.7-1.8.8-2 .2.3 10 4 5.8 2.7 6 2.8 6 3 5.7 3.2 4.8 3.3 2 1.5 1.7 1.5.3.5 1 1.5 1.5 3.5 2 6 2.7 9 3.3 13 3.5 17.2 4.2 22.5 2 12.8 2.5 17.7 6.8 48-24.8 4.5-1.7.5-22-92.2h-1l3.7 62.5zm239.2-123.3.5 6.5v7h-102.5l.5-22.7 1-23.5 1.5-29.5h-.2l-22 91.7h-.8l-25.7-4.5 5.2-39 3.3-23 1.5-9.5 1.2-7 4.5-21.7 4-17 3.5-13 3-9.3 2.3-6.2 1.7-3.8 1-2 .5-.5 2.3-2 2.7-2 3.3-2 3.2-1.7 7.8-4 7.5-3.3 6.5-2.5 5.5-2.2 3.5.2 1.5 3 2 2.8 2.5 2.5 2.7 2 3 1.7 3.5 1.3 3.5.7 4 .5h2.3l2.2-.2 2-.3 2-.5 2-.7 1.8-.8 1.7-.7 1.8-1 1.5-1.3 1.5-1.2 1.2-1.3 1.3-1.5 1-1.5 1-1.7.7-1.8.8-1.7h.2l9.8 4 6 2.7 6 2.8 6 3 5.5 3.2 4.7 3.3 2.3 1.5 1.5 1.5.5.5.7 1.5 1.8 3.5 2 6 2.7 9.2 3 12.8 3.8 17.5 4.2 22.2 2.5 16.8 3.3 22.7 5.5 39-26.8 4.3-22-91.5-.7.2zm243.3 136h-100.3l.5-22.7 1-23.5 1.3-29.5-22 91.7h-.8l-25.2-4.7h-.5l2.5-18.8 3.5-26 2.7-19.5 2.5-14 4.5-21.7 4-17.3 3.5-12.7 3-9.3 2.3-6.2 1.7-3.8 1-2 .5-.5 2.3-2 2.7-2 3-2 3.5-2 7.5-3.7 7.8-3.3 6.5-2.5 5.5-2.2h3.2l1.8 3.2 2 2.8 2.2 2.2 3 2.3 3 1.7 3.5 1.3 3.5.7 3.8.5h2.5l2.2-.2 2-.3 2-.5 2-.7 1.8-.8 1.7-.7 1.8-1 1.5-1.3 1.5-1.2 1.2-1.3 1.3-1.5 1-1.5 1-1.7.7-1.8.8-2 .2.3 9.8 4 6 2.7 6 2.8 6 3 5.5 3.2 4.7 3.3 2 1.5 1.8 1.5.5.5.7 1.5 1.5 3.5 2.3 6 2.5 9 3.2 13 3.8 17.2 4.2 22.5 2.5 16.8 3.3 22.7 5.2 38.8-.5.2-25 4.5-1 .3-22-92h-.7l3.5 60.5h.2l.3 7 .2 7.7z" fill="#a9d7f3"/><g fill="none" stroke="#231f20" stroke-linecap="round" stroke-miterlimit="10" stroke-width="14"><path d="m727.3 469.8 4.7 4 4.5 4 4.5 4.2 4.5 4.3 5.5 5.7 5.3 5.8 4.7 6 4.8 6 4.2 6.2 3.8 6.3 3.7 6.2 3.3 6.3 2.7 6.5 2.5 6.7 2.3 6.5 1.7 6.8 1.3 6.7 1 7 .7 6.8.3 7-.3 5.5-.2 5.2-.8 5.5-.7 5.3-1 5.2-1.3 5-1.7 5.3-1.5 5-2 5.2-2.3 5-2.2 5-2.8 4.8-2.7 5-3 4.7-3.3 4.8-3.5 4.7-3.5 4.8-3.7 4.5-4 4.5-4.3 4.5-4.2 4.5-4.5 4.2-4.8 4.3-5 4.2-5 4-5.2 4-5.3 4-5.7 4-5.8 3.8-5.7 3.7-12.3 7.3-12.7 7-13.5 6.5-14 6.2-14.3 5.8-15 5.5-15.5 5-16 4.5-16.2 4.2-16.8 3.8-17.2 3.2-17.5 2.8-17.8 2.5-18.2 1.7-18.5 1.3-18.8.7-19 .5-19-.5-18.7-.7-18.5-1.3-18.3-1.7-17.7-2.5-17.5-2.8-17.3-3.2-16.7-3.8-16.3-4.2-16-4.5-15.5-5-14.7-5.5-14.5-5.8-14-6.2-13.5-6.5-12.8-7-12.2-7.3-5.8-3.7-5.7-3.8-5.8-4-5.2-4-5.3-4-5-4-5-4.2-4.7-4.3-4.5-4.2-4.3-4.5-4.2-4.5-4-4.5-3.8-4.5-3.5-4.8-3.5-4.7-3.2-4.8-3-4.7-2.8-5-2.5-4.8-2.5-5-2.2-5-1.8-5.2-1.7-5-1.5-5.3-1.5-5-1-5.2-.8-5.3-.7-5.5-.3-5.2v-12.5l.8-7 1-6.8 1.2-7 2-6.7 2-6.5 2.8-6.8 2.7-6.5 3.3-6.5 3.7-6.2 4-6.3 4.3-6.2 4.7-6.3 5-5.7 5.3-6 5.5-5.8.7-.7m374.8-107.3 13.2 1.3 13.3 1.5 12.7 2 12.8 2.2 12.5 2.3 12.5 2.7 12 3 12 3 1.7.5m-303.7-3 11.5-2.7 11.5-2.8 11.7-2.2 11.8-2 12-2 12.2-1.8 12.5-1.2 12.5-1.3m-201.7-119.7-1.8-1.5-1.7-1.5-1.8-1.8-1.5-2-1.5-2-1.2-2.2-1.3-2.3-1.2-2.2-2-5-1.3-5.5-.5-3-.5-2.8-.2-3v-3l.2-4.5.3-4.2 1-4 1-4 1.2-3.8 1.8-3.5 1.7-3.2 2-3 2.3-2.8 2.5-2.5 2.5-2.2 2.7-1.8 3-1.5 3-1 3-.7 3.3-.3 3.2.3 3.3.7 3 1 3 1.5 2.7 1.8 2.5 2.2 2.5 2.5 2.3 2.8 2 3 1.7 3.2 1.5 3.5 1.5 3.8 1 4 .8 4 .5 4.2.2 4.5-.2 3-.3 3-.2 2.8-.5 3-1.5 5.5-2 5-1 2.2-1.3 2.3-1.5 2.2-1.2 2-1.8 2-1.5 1.8-1.7 1.5-1.8 1.5-3.5 2.2-2 .8-1.7.7-2 .5-2 .5-2 .3h-4l-2-.3-2-.5-1.8-.5-2-.7-1.7-.8zm65.2 159-3.7-62.5v-.8"/><path d="m138 352.8v.5l-1.5 29.5-.7 23.5-.5 22.7v4.5l-2 108.5-1 74.8v36.7l.2 5.8h8.8l27.7-.3.3-2.2 17.5-182v.7l17 183.5h37.7l-2-109.5-1.7-115.5v-5l-.5-12.7-.3-2m-99.7 14.7h98.2m-146.7 15.5.5-4.5 5.2-39 3.3-22.5 1.5-9.5 1.2-7 4.5-21.7 4.3-17.3 3.5-12.7 2.7-9.3 2.5-6.2 1.8-3.8 1-2 .2-.5 2.3-2 2.7-2 3.3-2 3.5-2 7.5-3.7 7.7-3.3 6.3-2.5 5.5-2.2 2-.8 5-1.7"/><path d="m138 353.3-22 91.5-.2 1.5.5 1.7.5 3 .2 3.8.3 4-.3 5.2-.5 4.8-.5 2.2-.5 1.8-.5 1.7-.7 1.3-.8-.3-.5-.5-.7-1.5-.3-.7-.5-.8-.7-.7-1-.3-.5 1.5-.5 2-.8 4.5-.5 2.3-.7 2-.8 1.2-.7.5-.8.3-1.2.2-1.3-.2-1.2-.3-1.3-.7-1.2-.8-1-.7-1-1-.8-1-.5-1-2.2-5.8-1.3-4-1.2-4.7-1-5-.8-5.3-.2-2.5v-2.7l.2-2.8.3-2.5"/><path d="m91 440.3 25 4.5 1 .2m166.3 0-.5-4-6.8-48-2.5-17.7-2-12.8-4.2-22.5-3.5-17.2-3.3-13-2.7-9-2-6-1.5-3.5-1-1.5-.3-.5-1.7-1.5-2-1.5-4.8-3.3-5.7-3.2-6-3-6-2.8-5.8-2.7-10-4-.2-.3-5-1.7m28.5 88.5 22 92.2.2.8-.7 2-.5 3-.3 3.5v9.2l.5 5 .5 2 .5 2 .5 1.5.8 1.3h.7l.5-.5.8-1.5.5-1 .5-.8.5-.5 1.2-.2.5 1.5.3 2 .7 4.5.5 2.2.8 1.8 1 1.5.5.5.7.2 1.5.3 1.5-.3 1.3-.5 1.5-1 1.2-.7 1-1.3 1-1 .5-1.2 2.3-5.5 1.2-4.3 1.3-4.5 1-5 .7-5.2.3-5.5-.3-2.5-.2-2.8"/><path d="m283.3 441h-.5l-24.8 4.5m-47.2-178.7v.2l-.8 2-.7 1.8-1 1.7-1 1.5-1.3 1.5-1.2 1.3-1.5 1.2-1.5 1.3-1.5 1-1.8.7-2 .8-1.7.7-2 .5-2.3.3-2.2.2h-2.3l-3.7-.5-3.8-.7-3.2-1.3-3.3-1.7-2.7-2.3-2.5-2.2-2-2.8-1.5-3.2m40.5-11.3.7 1 1.5 2.5 1.3 1.5 1.2 1.3 1.5 1.2 1.5 1 1.5.5m-42.7-8-.5 1-1.8 2-1.2 1.5-1.8 1.3-1.7 1.2-2 1h-.3m-19.7 392.5v.3l-2.3 4.7-2.5 4.5-5.5 9.5-.5 1.8-.5 1.5v2.7l.5 1.3.5 1.2.8 1.3.7 1 1 .7 1 1 2.3 1.3 2.5.7h2.2l1.5-.2 1.3-.5 2.5-1 2.2-1.8 2-1.7 1.8-2.3 1.2-2.2 1.3-2.5.7-2.5.8-2.3 1-2.2 1-2.3 1.5-2 .5-.5.7-.5 1.5-.7 2-.8 2-1 1-.5.8-.7.5-.8.5-1 .2-1v-1.5l-.2-1.5-.5-1.7-.3-.5m65 3.5 2.3 4.5 2.5 4.5 5.2 9.2.5 1.8.5 1.5v2.7l-.5 1.3-.5 1.2-.7 1.3-.8 1-1 .7-1 1-2.2 1.3-2.5.7h-2.3l-1.5-.2-1.2-.5-2.5-1-2.3-1.8-2-1.7-1.7-2.3-1.3-2.2-1.2-2.5-.8-2.5-.7-2.3-1-2.2-1-2.3-1.5-2-1-1-1.5-.5-1.8-.7-1.7-.8-1.8-1-.7-.7-.5-.8-.5-.7-.3-1-.2-1.3.2-1.5.3-1.2.7-1.5m205.3-521.5-2-1.5-1.5-1.5-1.8-1.8-1.5-2-1.5-2-1.5-2.2-1.2-2.3-1-2.2-2-5-1.5-5.5-.5-2.8-.3-3-.2-3v-7.5l.5-4.2.7-4 1-4 1.5-3.8 1.5-3.5 1.8-3.2 2.2-3 2.3-2.8 2.2-2.5 2.8-2.2 2.7-1.8 2.8-1.5 3-1 3.2-.7 3.3-.3 3.2.3 3 .7 3.3 1 2.7 1.5 2.8 1.8 2.7 2.2 2.3 2.5 2.2 2.8 2 3 2 3.2 1.5 3.5 1.3 3.8 1.2 4 .8 4 .5 4.2v7.5l-.3 3-.2 3-.5 2.8-1.5 5.5-2 5-1.3 2.2-1.2 2.3-1.3 2.2-1.5 2-1.5 2-1.7 1.8-1.8 1.5-1.7 1.5-3.5 2.2-1.8.8-1.7.7-2 .5-2 .5-2 .3h-4l-2-.3-2-.5-2-.5-1.8-.7-1.7-.8zm65.2 159v-.8l-3.7-61.5v-1"/><path d="m377.5 230.3v.5l-1.5 29.5-1 23.5-.5 22.7v4.5l-1 66-1 49.3-.5 49.2-.5 39.8v13.5l.3 8h36l.7-.3 17.8-184.2v.7l16.7 183.5h37.8l-2.8-159-1-66v-12l-.5-6.5v-1.2m-99.7 14.7h98m-146.5 15.5.5-4 5.2-39 3.3-23 1.5-9.5 1.2-7 4.5-21.7 4-17 3.5-13 3-9.3 2.3-6.2 1.7-3.8 1-2 .5-.5 2.3-2 2.7-2 3.3-2 3.2-1.7 7.8-4 7.5-3.3 6.5-2.5 5.5-2.2 2-.8 5-1.7m-29 87-22 91.7-.3 1.3.8 1.7.5 3 .2 3.8v9.2l-.5 4.8-.5 2.2-.5 1.8-.5 1.7-.7 1.3-.8-.3-.5-.2-.7-1.8-.5-.7-.5-.8-.5-.7-1.3-.3-.5 1.5-.2 2-.8 4.5-.5 2.3-.7 2-1 1.2-.5.5-.8.3-1.5.2-1.5-.2-1.2-.5-1.5-.8-1.3-1-1-1-1-1.2-.5-1-2.2-5.8-1.3-4-1.2-4.7-1.3-5-.5-5.3-.2-5.2.2-2.8.3-2.5"/><path d="m328.3 317.8.5.2 25.7 4.5m168.3 0-.5-4-5.5-39-3.3-22.7-2.5-16.8-4.2-22.2-3.8-17.5-3-12.8-2.7-9.2-2-6-1.8-3.5-.7-1.5-.5-.5-1.5-1.5-2.3-1.5-4.7-3.3-5.5-3.2-6-3-6-2.8-6-2.7-9.8-4h-.2l-5-2m28.2 88.5 22 91.5.3 1.5-.5 2-.5 3-.3 3.5-.2 4.2.2 5 .5 5 .5 2 .5 2 .5 1.5.8 1.3h.7l.5-.5.8-1.5.2-1 .5-.8.8-.5 1-.2.5 1.5.5 2 .7 4.5.5 2.2.8 1.8.7 1.5.8.5.7.2 1.3.3 1.5-.3 1.5-.5 1.2-1 1.3-.7 1.2-1.3.8-1 .7-1.2 2.3-5.5 1.2-4 1.3-4.8 1-5 .7-5.2.3-5.5-.3-2.5-.2-2.8"/><path d="m522.5 318.5h-.2l-26.8 4.3-1 .2m-44.2-178.5v.3l-.8 1.7-.7 1.8-1 1.7-1 1.5-1.3 1.5-1.2 1.3-1.5 1.2-1.5 1.3-1.8 1-1.7.7-1.8.8-2 .7-2 .5-2 .3-2.2.2h-2.3l-4-.5-3.5-.7-3.5-1.3-3-1.7-2.7-2-2.5-2.5-2-2.8-1.5-3m40.5-11.5.5 1 1.7 2.5 1 1.5 1.5 1.3 1.5 1.2 1.5 1 1.5.5m-42.7-8-.5 1-1.8 2.3-1.5 1.2-1.5 1.3-1.7 1.2-2.3 1m-19.7 392.5-.3.3-2 4.7-2.7 4.5-5.3 9.5-.7 1.8-.3 1.5-.2 1.2.2 1.5.3 1.3.5 1.2.7 1.3 1 1 1 1 1 .7 2.3 1.3 2.2.7h2.3l1.5-.2 1.5-.5 2.5-1 2.2-1.5 1.8-2 1.7-2.3 1.5-2.2 1-2.5 1-2.5.8-2.3.7-2.2 1.3-2.3 1.2-2 1-1 1.3-.7 2.7-1.8 1.3-1 1-1.5.7-1.7.3-1v-1l-.5-2.3-.8-2.7m67 5.5 2 4.5 2.8 4.5 5 9.2.7 1.8.3 1.5.2 1.2-.2 1.5-.3 1.3-.5 1.2-.7 1.3-1 1-.8 1-1.2.7-2.3 1.3-2.2.7h-2.3l-1.5-.2-1.2-.5-2.8-1-2-1.5-2-2-1.7-2.3-1.3-2.2-1.2-2.5-1-2.5-.8-2.3-.7-2.2-1.3-2.3-1.2-2-1-1-1.3-.7-2.5-1.8-1.5-1-1-1.5-.7-1.7v-1l-.3-1.3.5-2.2.8-2.5m209-274.5-2-1.5-1.8-1.5-1.5-1.8-1.5-2-1.5-2-1.5-2.2-1.2-2.3-1-2.2-2-5-1.5-5.5-.5-3-.3-2.8-.2-3-.3-3 .3-4.5.5-4.2.7-4 1-4 1.5-3.8 1.5-3.5 1.8-3.2 2-3 2.2-2.8 2.5-2.5 2.8-2.2 2.7-1.8 2.8-1.5 3-1 3.2-.7 3.3-.3 3.2.3 3 .7 3 1 3 1.5 2.8 1.8 2.5 2.2 2.5 2.5 2.2 2.8 2 3 2 3.2 1.5 3.5 1.3 3.8 1.2 4 .8 4 .5 4.2v7.5l-.3 3-.5 2.8-.5 3-1.2 5.5-2 5-1.3 2.2-1.2 2.3-1.3 2.2-1.5 2-1.5 2-1.7 1.8-1.8 1.5-1.7 1.5-3.5 2.2-1.8.8-2 .7-1.7.5-2 .5-2 .3h-4l-2-.3-2-.5-2-.5-1.8-.7-2-.8zm65.2 159-.2-2-3.5-60.5v-.8"/><path d="m687.8 657.3.2 1.7h37.8l-3.3-189-.5-36v-5l-.2-7.7-.3-7m-99.2-61.5v.5l-1.3 29.5-1 23.5-.5 22.7v4.5l-1.7 108.5-1 74.8-.3 27.5v9.2l.3 5.8h8.7l28-.3.3-2.2 17.5-182v.7l16.5 181.8m-66.3-228.3h98.3m-146.5 15.5.5-4.2 2.5-18.8 3.5-26 2.7-19.5 2.5-14 4.5-21.7 4-17.3 3.5-12.7 3-9.3 2.3-6.2 1.7-3.8 1-2 .5-.5 2.3-2 2.7-2 3-2 3.5-2 7.5-3.7 7.8-3.3 6.5-2.5 5.5-2.2 2-.8 5-1.7"/><path d="m622.3 353.3-22 91.7-.3 1.3.8 1.7.2 3 .5 3.8v4l-.2 5.2-.5 4.8-.3 2.2-.5 1.8-.5 1.7-.7 1.3-.8-.3-.5-.5-.7-1.5-.5-.7-.5-.8-.8-.7-1-.3-.5 1.5-.2 2-.8 4.5-.5 2.3-.7 2-1 1.2-.5.5-.8.3-1.5.2-1.5-.2-1.2-.5-1.5-.8-1.3-1-1-1-1-1.2-.5-1-2.2-5.8-1.3-4-1.2-4.7-1.3-5-.5-5.3-.2-5.2v-2.8l.5-2.5m1-4.2 25.2 4.7m168.3 0-.8-4.2-5.2-38.8-3.3-22.7-2.5-16.8-4.2-22.5-3.8-17.2-3.2-13-2.5-9-2.3-6-1.5-3.5-.7-1.5-.5-.5-1.8-1.5-2-1.5-4.7-3.3-5.5-3.2-6-3-6-2.8-6-2.7-9.8-4-.2-.3-5-1.7m28.2 88.5 22 92 .3 1-.5 2-.5 3-.3 3.5-.2 4.2.2 5 .5 5 .5 2 .3 2 .7 1.5.8 1.3h.7l.5-.5.5-1.5.5-1 .5-.8.8-.5 1-.2.5 1 .2 1.5.5 3.5.8 3.5.5 1.5.5 1.5 1 1 .5.5.7.2 1.3.3 1.5-.3 1.5-.5 1.2-1 1.3-.7 1.2-1.3.8-1 .7-1.2 2.3-5.5 1.2-4.3 1.3-4.5 1-5 .7-5.2v-8l-.2-2.8m-1.3-4-25 4.5"/><path d="m695.3 266.8v.2l-.8 2-.7 1.8-1 1.7-1 1.5-1.3 1.5-1.2 1.3-1.5 1.2-1.5 1.3-1.8 1-1.7.7-1.8.8-2 .7-2 .5-2 .3-2.2.2h-2.5l-3.8-.5-3.5-.7-3.5-1.3-3-1.7-3-2.3-2.2-2.2-2-2.8-1.8-3.2m40.8-11.3.5 1 1.7 2.5 1 1.5 1.5 1.3 1.3 1.2 1.7 1 1.3.5m-42.5-8-.5 1-2 2-1.3 1.5-1.5 1.3-2 1.2-2 1m-19.7 392.5-.3.3-2.2 4.7-2.5 4.5-5.3 9.5-.7 1.8-.3 1.5-.2 1.2.2 1.5.3 1.3.5 1.2.7 1.3 1 1 .8.7 1.2 1 2.3 1.3 2.2.7h2.3l1.5-.2 1.5-.5 2.5-1 2.2-1.8 1.8-1.7 1.7-2.3 1.5-2.2 1-2.5 1-2.5.8-2.3.7-2.2 1.3-2.3 1.2-2 .5-.5.8-.5 1.7-.7 2-.8 1.8-1 1-.5.7-.7.8-.8.5-1 .2-1v-1.5l-.2-1.5-.5-1.7-.3-.5m64.8 3.5 2.2 4.5 2.5 4.5 5.3 9.2.7 1.8.3 1.5.2 1.2-.2 1.5-.3 1.3-.5 1.2-.7 1.3-1 1-1 .7-1 1-2.3 1.3-2.2.7h-2.3l-1.5-.2-1.5-.5-2.5-1-2.2-1.8-1.8-1.7-1.7-2.3-1.5-2.2-1-2.5-1-2.5-.8-2.3-.7-2.2-1.3-2.3-1.2-2-.8-.5-.5-.5-2-.7-2.2-.8-2.3-.7-2-1.3-.7-.7-.8-1-.5-1-.2-1.3.2-1.5.3-1.7.5-1"/></g></svg>