<svg height="850" viewBox="0 0 850 850" width="850" xmlns="http://www.w3.org/2000/svg"><path d="m782.9 566.1.5.8.3.7v1.3l-.3 1-.7 2-1 1.7-.5.5-.5.5-.5.3h-.8l.5.5.5 1 .5 1-.2 1.2-.8 1.5-1 1.5-1 1.3-1.2.7-.3.3.3.5v.5l-.3.7-.2.5-1 .8-.5.2-.8.3-1-.3-1.2-.5-3.8-1.7-5.5-2-3.5-1.3-4-1-5.2-1-5-1-2.3-.5-2-.7-1.7-.8-1.5-1.2-1.5-1.5-1.5-1.5-2.5-3.5-2.8-4.3-4-5 15.5-24.2 4.3.2 4.5.5 4.2.5 1.8.5 1.5.8 3.2 2.2 6.8 5.3 4 3.2 4 3.3 3.2 3.5 2.8 3.2.7 1.5.8 2 .5 2.3z" fill="#ffeec8"/><path d="m740.4 535.4-15.5 24.2-.5.8-89.2-43.3-1.3-.7-1.7-1.5-2.3-2.5-3.5-4-4.2-5.3-5.3-7-6.7-9.2 4.7 50.5 2 23 1.3 17.5v2l-.3 2-1.2 2.5-1.5 2.5-2.3 2.2-2.7 2.3-3 2.2-3.5 2-4 1.8-4.3 1.7-4.5 1.8-4.7 1.5-4.8 1.2-5.2 1.5-10.8 2-10.7 1.8-10.8 1.2-10.2.5-9.8.3-8.5-.5-3.7-.3-3.5-.5-3-.7-2.5-.8-2-1-1.5-1.2-1-1.3-.3-.5v-.7l-1-6.3-7-41.7-4.5-28.3-2.2-14.5-2-14.2h-1.8l-19.2 31.5-81.3 64.7-3.2-3.5-18.8-19.7 60.3-70 31.7-66.3.8-1.7 2.5-4.3 4-6.2 2.5-3.5 2.7-3.8 3.3-4 3.5-3.7 3.7-3.8 4-3.5 4.3-3 4.7-2.7 2.3-1 2.5-1 2.5-1 2.5-.5 3.7-4 3.8 4 4 3.5 4.2 3.2 4.5 2.5 4.8 2.3 2.2.7 2.5.8 2.5.5 2.8.5h2.5l2.7.2 2.8-.2 3-.3 2.7-.5 2.8-.5 2.7-1 2.8-1 2.5-1 2.5-1.5 2.5-1.5 2.5-1.5 2.2-2 2.3-1.7 2.2-2.3 2-2.2 2-2.3 1.8-2.5 2.5.3 2.5.5 5 1.5 4.7 2 4.5 2.2 4.5 2.5 4.3 3 4 3 3.5 3 3.2 3 3 3 4.8 5 3.2 3.5 1 1.5 39.8 53.5 76.7 62.5z" fill="#f6cc4b"/><path d="m639.7 103.6-563.3 341.8-3-341.5 2-.3z" fill="#c8c8c8"/><path d="m500.2 650.1-1.5-16.7-1-15-.5-12.5-.3-8.8 1 6.3v.7l.3.5 1 1.3 1.5 1.2 2 1 2.5.8 3 .7 3.5.5 3.7.3 8.5.5 9.8-.3 10.2-.5 10.8-1.2 10.7-1.8 10.8-2 5.2-1.5 4.8-1.2 4.7-1.5 4.5-1.8 4.3-1.7 4-1.8 3.5-2 3-2.2 2.7-2.3 2.3-2.2 1.5-2.5 1.2-2.5h.3l7 68 4.5 48.5 1.5 17.5.2 5.5.3 3.2-.3 2-.5 2-.7 2-.8 1.8-1.2 1.5-1.3 1.5-1.2 1.5-1.8 1.2-1.5 1-2 1-3.7 1.8-4.3 1.2-4.5.8-4.2.2h-4.5l-4-.7-4-1-1.8-.8-1.5-.7-1.5-.8-1.5-1.2-1-1-1-1.3-.7-1.2-.8-1.5-.2 1.7-.3 2-1.2 4-1.8 3.8-2.2 3.5-2.3 3.2-2.5 2.8-2.5 2-1.2.7-1.3.5-4.5 1.3-4.7.7h-7.5l-2.5-.2-2.3-.5-2.5-.5-2.2-.8-2-1-2-1.2-2-1.3-1.8-1.7-1.5-1.8-2.2-3.5-2.5-4.7-2.8-5-2.5-5.8-2.5-5.7-4.5-11.3-3.2-9.5-1.8-5.7-1.7-6.3-1.5-6.7-1.3-7-1-7.3-1.2-7.5z" fill="#9e5c26"/><path d="m574.2 383.6-1.8 2.5-2 2.3-2 2.2-2.2 2.3-2.3 1.7-2.2 2-2.5 1.5-2.5 1.5-2.5 1.5-2.5 1-2.8 1-2.7 1-2.8.5-2.7.5-3 .3-2.8.2-2.7-.2h-2.5l-2.8-.5-2.5-.5-2.5-.8-2.2-.7-4.8-2.3-4.5-2.5-4.2-3.2-4-3.5-3.8-4-3.7-4.8-3-5-3-5.5-2.3-6-2-6.2-1.2-6.5-1-6.8-.3-6.7.3-6.8 1-6.5 1.2-6.2 1.8-6.3 2.2-5.7 2.5-5.3 3.3-5.2 3.2-4.5 3.8-4.3 4-3.7 4.5-3.3 4.5-3 2.5-1 2.5-1 2.5-1 2.5-.7 2.5-.5 2.7-.5 2.8-.3h5.5l2.5.3 2.7.5 2.5.5 2.5.7 2.5 1 2.5 1 2.5 1 4.5 3 4.5 3.3 4 3.7 3.8 4.3 3.5 4.5 3 5.2 2.5 5.3 2.2 5.7 1.8 6.3 1.5 6.2.7 6.5.3 6.8-.3 6.2-.7 6-1 6-1.5 5.5-2 5.5-2.3 5.3-2.7 4.7z" fill="#ffeec8"/><path d="m528.2 747.6-.8.3-8-13-9-13.3-8.7-13.2-8.5-12.3-13.5-19-5.3-7.5-3.7-4.7-3.5-4-3-3.3-3-2.7-3-2-3-1.5-2.8-1-3-.5v-.3l34-22h2l3 5.5 3.3 5.8 3.7 5.5 2.3 3 2.5 2.7 1.5 15 1.2 7.5 1 7.3 1.3 7 1.5 6.7 1.7 6.3 1.8 5.7 3.2 9.5 4.5 11.3 2.5 5.7 2.5 5.8 2.8 5z" fill="#9e5c26"/><path d="m496.9 597.1.3 8.8.5 12.5 1 15 1.5 16.7-2.5-2.7-2.3-3-3.7-5.5-3.3-5.8-3-5.5-3.5-6.7-3.5-6.3-2.7-4.2-2.5-3.3-2.8-2.7-2.7-2-2.5-1.3-2.5-1-2.3-.2h-4.2l-1.8.5-1.5.7-1.5.5-2 1.3-.5.5-3.5 2.7-1.7-1.7-1.3-.8-3.2-1.5-4.3-2.7-2-1.5-1.7-1.8-1.8-2-1-2-.5-1v-3.2l.5-1.3.8-1 .7-1.2 1.3-1 1.2-1.3 1.8-1 2-1.2 2.5-1 20.5-9.3 15-6.7 10-4.8 5.7-2.7z" fill="#231f20"/><path d="m485.4 627.6h-2l-34 22v.3l-2.5-.3-2.5.3-2.7.2-2.8.8-6.2 2-7.3 2.5-5.5 1.7-5 1.3-4.2.7-4 .3h-3.3l-3-.5-2.5-.8-2-1-1.5-1-1.2-1.2-.8-1.5-.5-1.5v-1.3l.3-1.2.5-1.3 1-1 15-12.2 15-11.8 21.7-17 3.5-2.7.5-.5 2-1.3 1.5-.5 1.5-.7 1.8-.5h4.2l2.3.2 2.5 1 2.5 1.3 2.7 2 2.8 2.7 2.5 3.3 2.7 4.2 3.5 6.3z" fill="#231f20"/><path d="m339.9 635.4h-1.7l-1.8-.8-1.7-.7-1.3-1.3-.5-.5-.2-.5-.3-1.2v-1l.3-1-.8.5h-.5l-.7-.3-1-.2-1.5-1.3-1.8-1.2-.7-1-.5-1-.3-1v-.8l-.7-2-.5-2.2-.3-2.3v-1.7l1-4.5 1.5-5 1.8-5 2.2-5.3 3.8-8.2 2-3.8 1.2-1.5 1.8-1.2 3.7-3 4.5-2.8 4.3-2.5 5.7.3 18.8 19.7-.5 5.3-.5 4.2-.8 3.8-1 3.7-1 1.8-1.2 1.7-1.5 1.8-1.8 1.5-4.2 3.2-4.5 3.8-3.3 2.7-2.7 3-2.3 2.5-1.7 2.3-2.8 3.2-1 1.3-.7.7-.8.3h-1.5l-.5-.3-.5-.5-.5-.5-.2-.5z" fill="#ffeec8"/><g fill="none" stroke="#231f20" stroke-linecap="round" stroke-miterlimit="10"><path d="m397.2 467.1-4.3.5-5 .3-6.7-.3-8-.2-9-1-5-.8-5.3-1-5.2-1.2-5.5-1.5-5.5-1.8-5.8-2-5.7-2.2-5.8-2.8-6-3-5.7-3.5-5.8-3.7-5.7-4.3-5.5-4.7-5.5-5.3-5.3-5.7-5.2-6-4.8-6.8-4.7-7.2-4.5-8-4-8.5m149.5 60.7-3-.5-3.3-.5-4.2-1.2-5.3-1.5-6-2-6.7-2.5-7-3.3-7.8-4-3.7-2.2-4-2.3-3.8-2.7-4-2.8-4-3.2-3.7-3.3-4-3.5-3.8-3.7-3.5-4-3.7-4.3-3.5-4.7-3.3-4.8-3.2-5-3-5.5m185.7 7.8-3.7-4.8-3-5-3-5.5-2.3-6-2-6.2-1.2-6.5-1-6.8-.3-6.7.3-6.8 1-6.5 1.2-6.2 1.8-6.3 2.2-5.7 2.5-5.3 3.3-5.2 3.2-4.5 3.8-4.3 4-3.7 4.5-3.3 4.5-3 2.5-1 2.5-1 2.5-1 2.5-.7 2.5-.5 2.7-.5 2.8-.3h5.5l2.5.3 2.7.5 2.5.5 2.5.7 2.5 1 2.5 1 2.5 1 4.5 3 4.5 3.3 4 3.7 3.8 4.3 3.5 4.5 3 5.2 2.5 5.3 2.2 5.7 1.8 6.3 1.5 6.2.7 6.5.3 6.8-.3 6.2-.7 6-1 6-1.5 5.5-2 5.5-2.3 5.3-2.7 4.7-3 4.5-1.8 2.5-2 2.3-2 2.2-2.2 2.3-2.3 1.7-2.2 2-2.5 1.5-2.5 1.5-2.5 1.5-2.5 1-2.8 1-2.7 1-2.8.5-2.7.5-3 .3-2.8.2-2.7-.2h-2.5l-2.8-.5-2.5-.5-2.5-.8-2.2-.7-4.8-2.3-4.5-2.5-4.2-3.2-4-3.5zm-19 111-19.2 31.5-81.3 64.7-3.2-3.5-18.8-19.7 60.3-70 31.7-66.3.8-1.7 2.5-4.3 4-6.2 2.5-3.5 2.7-3.8 3.3-4 3.5-3.7 3.7-3.8 4-3.5 4.3-3 4.7-2.7 2.3-1 2.5-1 2.5-1 2.5-.5" stroke-width="14"/><path d="m609.2 485.1 1 1.8 6.7 9.2 5.3 7 4.2 5.3 3.5 4 2.3 2.5 1.7 1.5 1.3.7 89.2 43.3.5-.8 15.5-24.2 1-1.8-76.7-62.5-39.8-53.5-1-1.5-3.2-3.5-4.8-5-3-3-3.2-3-3.5-3-4-3-4.3-3-4.5-2.5-4.5-2.2-4.7-2-5-1.5-2.5-.5-2.5-.3-2.8-.2" stroke-width="14"/><path d="m605.9 443.4 4.3 43.5 4.7 50.5 2 23 1.3 17.5v2l-.3 2-1.2 2.5-1.5 2.5-2.3 2.2-2.7 2.3-3 2.2-3.5 2-4 1.8-4.3 1.7-4.5 1.8-4.7 1.5-4.8 1.2-5.2 1.5-10.8 2-10.7 1.8-10.8 1.2-10.2.5-9.8.3-8.5-.5-3.7-.3-3.5-.5-3-.7-2.5-.8-2-1-1.5-1.2-1-1.3-.3-.5v-.7l-1-6.3-7-41.7-4.5-28.3-2.2-14.5-2-14.2-1.3-11-1-10-1-9.5-.5-8.3m140.8 122.3 7 68 4.5 48.5 1.5 17.5.2 5.5.3 3.2-.3 2-.5 2-.7 2-.8 1.8-1.2 1.5-1.3 1.5-1.2 1.5-1.8 1.2-1.5 1-2 1-3.7 1.8-4.3 1.2-4.5.8-4.2.2h-4.5l-4-.7-4-1-1.8-.8-1.5-.7-1.5-.8-1.5-1.2-1-1-1-1.3-.7-1.2-.8-1.5-10-69.3" stroke-width="14"/><path d="m581.4 733.9-.2 1.7-.3 2-1.2 4-1.8 3.8-2.2 3.5-2.3 3.2-2.5 2.8-2.5 2-1.2.7-1.3.5-4.5 1.3-4.7.7h-7.5l-2.5-.2-2.3-.5-2.5-.5-2.2-.8-2-1-2-1.2-2-1.3-1.8-1.7-1.5-1.8-2.2-3.5-2.5-4.7-2.8-5-2.5-5.8-2.5-5.7-4.5-11.3-3.2-9.5-1.8-5.7-1.7-6.3-1.5-6.7-1.3-7-1-7.3-1.2-7.5-1.5-15-1.5-16.7-1-15-.5-12.5-.3-8.8v-4" stroke-width="14"/><path d="m529.4 751.1-2-3.2-8-13-9-13.3-8.7-13.2-8.5-12.3-13.5-19-5.3-7.5-3.7-4.7-3.5-4-3-3.3-3-2.7-3-2-3-1.5-2.8-1-3-.5-2.5-.3-2.5.3-2.7.2-2.8.8-6.2 2-7.3 2.5-5.5 1.7-5 1.3-4.2.7-4 .3h-3.3l-3-.5-2.5-.8-2-1-1.5-1-1.2-1.2-.8-1.5-.5-1.5v-1.3l.3-1.2.5-1.3 1-1 15-12.2 15-11.8 21.7-17 3.5-2.7.5-.5 2-1.3 1.5-.5 1.5-.7 1.8-.5h4.2l2.3.2 2.5 1 2.5 1.3 2.7 2 2.8 2.7 2.5 3.3 2.7 4.2 3.5 6.3 3.5 6.7 3 5.5 3.3 5.8 3.7 5.5 2.3 3 2.5 2.7 1.7 2.3" stroke-width="14"/><path d="m353.7 569.4-2.5 1.7-4.3 2.5-4.5 2.8-3.7 3-1.8 1.2-1.2 1.5-2 3.8-3.8 8.2-2.2 5.3-1.8 5-1.5 5-1 4.5v1.7l.3 2.3.5 2.2.7 2 .8 1 .2.3v-.3l1-3.2 1-3.8 2.5-6 .8-1.5 1.2-1.7 2.8-3.8 3.5-4.5" stroke-width="7"/><path d="m325.2 620.9-.3 1.2v.8l.3 1 .5 1 .7 1 1.8 1.2 1.5 1.3 1 .2.7.3h.5l.8-.5.7-1 1-2.8 1.3-3 1.7-3.2 3-4.8 8-11.5" stroke-width="7"/><path d="m332.7 628.1v.3l-.3 1v1l.3 1.2.2.5.5.5 1.3 1.3 1.7.7 1.8.8h1.2" stroke-width="9.75"/><path d="m377.4 583.6-1 4-.7 3.5-.5 5.3-.5 4.2-.8 3.8-1 3.7-1 1.8-1.2 1.7-1.5 1.8-1.8 1.5-4.2 3.2-4.5 3.8-3.3 2.7-2.7 3-2.3 2.5-1.7 2.3-2.8 3.2-1 1.3-.7.7-.8.3h-1.5l-.5-.3-.5-.5-.5-.5-.2-.5-.3-.7v-.8l.3-.7.7-2 .8-2 1.7-3.3 3.5-5.2 1.5-2.3 2.3-3.2 1.5-2 2-2 2.5-2.8 3.2-2.7m376.5-71.3 4 .3 4.3.2 4.5.5 4.2.5 1.8.5 1.5.8 3.2 2.2 6.8 5.3 4 3.2 4 3.3 3.2 3.5 2.8 3.2.7 1.5.8 2 .5 2.3.2 1.7v1.5h-.2l-2.3-2.5-2.5-2.5-4.7-4-1.3-.7-1.5-1-4-2-5-2.3" stroke-width="7"/><path d="m782.2 565.4.7.7.5.8.3.7v1.3l-.3 1-.7 2-1 1.7-.5.5-.5.5-.5.3h-.8l-1-.8-2.2-1.7-2.3-1.8-3-2.2-4.5-2.3-11.5-6.2" stroke-width="7"/><path d="m779.2 574.6.2.3.5.5.5 1 .5 1-.2 1.2-.8 1.5-1 1.5-1 1.3-1.2.7" stroke-width="9.75"/><path d="m722.7 557.1 2.2 2.5 4 5 2.8 4.3 2.5 3.5 1.5 1.5 1.5 1.5 1.5 1.2 1.7.8 2 .7 2.3.5 5 1 5.2 1 4 1 3.5 1.3 5.5 2 3.8 1.7 1.2.5 1 .3.8-.3.5-.2 1-.8.2-.5.3-.7v-.5l-.3-.5-.2-.8-.5-.5-1.5-1.5-1.8-1.2-2.7-2-5.3-2.8-2.2-1.2-3.3-1.5-4.7-2-3-1-4-1" stroke-width="7"/><path d="m443.7 604.4-1.3-.8-3.2-1.5-4.3-2.7-2-1.5-1.7-1.8-1.8-2-1-2-.5-1v-3.2l.5-1.3.8-1 .7-1.2 1.3-1 1.2-1.3 1.8-1 2-1.2 2.5-1 20.5-9.3 15-6.7 10-4.8 5.7-2.7 1.8-1" stroke-width="14"/><path d="m646.9 99.4-7.2 4.2-563.3 341.8" stroke-width="21"/><path d="m449.4 649.6 34-22" stroke-width="14"/></g></svg>