<svg height="850" viewBox="0 0 850 850" width="850" xmlns="http://www.w3.org/2000/svg"><path d="m662.9 396-19.2 30.3-.5 1-111.3-54-1.5-1-2-1.8-3-3.2-4.2-4.8-5.5-6.7-6.5-8.8-8.3-11.5 6 63 2.3 28.8 1.7 21.7v2.5l-.5 2.5-.7 1.8-.8 1.5-.7 1.5-1.3 1.5-2.7 3-3.3 2.7-3.7 2.8-4.5 2.2-4.8 2.5-5.2 2.3-5.8 2-5.7 1.7-6.3 1.8-6.5 1.7-6.5 1.3-6.7 1.5-6.8 1-6.7 1-6.8.7-6.7.8-6.5.5-6.3.2-6.2.3h-5.8l-5.5-.3-5.2-.2-4.8-.5-4.2-.8-3.8-.7-3-1-2.5-1.3-2-1.5-.7-.7-.5-.8-.3-.7v-1l-1.2-7.8-3.8-21.2-5-30.8-5.5-35.2-2.7-18.3-2.5-17.7h-2.3l-24.2 39.5-101 80.5-4.3-4.5-23-24.3 75-87.2 39.5-82.8 1-2.2 3.5-6 5.5-8.5 3.3-5 4-5 4.2-5.3 4.5-5.2 5-5 5.3-4.8 2.7-2 3-2 2.8-2 3-1.7 3-1.5 3.2-1.3 3-1 3.3-1h1.2l2.5 2.5 2.3 2.5 2.5 2.3 2.5 2.2 2.5 2 2.7 1.8 2.8 1.7 3 1.5 2.7 1.5 3 1.3 3 1 3.3.7 3 .8 3.2.5 3.3.2h7l3.7-.5 3.8-.5 3.7-1 3.5-1.2 3.5-1.3 3.3-1.7 3.2-1.8 3.3-2 3-2.2 3-2.5 3-2.8 2.7-2.7 2.5-3 2.5-3.3 2.3-3.2 2.5 1.2 3.2.3 3.3.5 3 .7 3.2.8 2.8 1 3 1.2 2.7 1.3 2.8 1.5 5.2 3.2 4.8 3.8 4.5 4 4.2 4 3.5 4 3.3 3.7 3 3.8 2.2 3.2 3.3 4.8 1 1.7 49.5 66.8 95.7 78z" fill="#a9d7f3"/><path d="m457.7 204.3-2.3 3.2-2.5 3.3-2.5 3-2.7 2.7-3 2.8-3 2.5-3 2.2-3.3 2-3.2 1.8-3.3 1.7-3.5 1.3-3.5 1.2-3.7 1-3.8.5-3.7.5h-7l-3.3-.2-3.2-.5-3-.8-3.3-.7-3-1-3-1.3-2.7-1.5-3-1.5-2.8-1.7-2.7-1.8-2.5-2-2.5-2.2-2.5-2.3-2.3-2.5-2.5-2.5-2.2-3-2-3-2.3-3-1.7-3.2-2-3.5-1.5-3.5-1.8-3.5-1.2-3.8-1.3-4-1.2-3.7-.8-4-.7-4.3-.8-4-.5-4.2-.2-4.3v-8.7l.2-4 .5-4.3.5-4 .8-4 1-3.7 1-4 1.2-3.5 1.3-3.8 1.5-3.5 1.5-3.5 1.7-3.2 1.8-3.3 2-3 2-3 2.2-3 2.3-2.7 2.5-2.5 2.5-2.5 2.5-2.3 2.7-2 2.8-2 2.7-2 3-1.5 3-1.5 3-1.2 3-1.3 3.3-.7 3.2-.8 3.3-.5 3.5-.2 3.2-.3 3.5.3 3.3.2 3.2.5 3.3.8 3.2.7 3 1.3 3.3 1.2 3 1.5 2.7 1.5 3 2 2.8 2 2.5 2 2.7 2.3 2.5 2.5 2.3 2.5 2.2 2.7 2.3 3 2 3 2 3 1.7 3.3 1.8 3.2 1.7 3.5 1.3 3.5 1.5 3.8 1 3.5 1.2 4 .8 3.7.7 4 .5 4 .5 4.3.3 4v4.2l-.3 7.5-.7 7-1.3 7-1.7 6.8-2 6.5-2.5 6.2-3 5.8zm255.7 245.7-1 2-1.2 1.8-1.5 1.5-1.3 1-.5.2.3.8v.7l-.3.8-.2.7-.5.5-.8.5-.7.3h-2.3l-1.5-.8-4.7-2-3-1.5-3.8-1.2-4.2-1.5-5-1.3-6.5-1.2-6.3-1.3-2.7-.5-2.5-1-2.3-1-1.7-1.5-2-1.7-1.8-2-3.2-4.5-3.5-5.3-2.3-3-2.7-3.2 19.2-30.3 5.5.3 5.5.5 5.3 1 2.2.5 1.8.7 4.2 3 8.5 6.5 5 4 4.8 4.3 4.2 4.2 1.8 2 1.5 2 1 2 1 2.5.7 2.5.3 2.5.5.8.2 1.2v1.3l-.2 1.5-1 2.2-1 2.3-.8.7-.5.5-1 .3h-.7l.7.7.5 1 .5 1.5v.8zm-566 59-1.2-1.2-.5-1.3-.3-1.2v-1l-.7-2.5-.8-2.8-.5-2.7v-2.3l.5-2.7.8-2.8 2-6.2 2.2-6.5 2.8-6.3 2.5-5.7 2.2-4.8 2.5-4.7 1-1 1-.8 3-2 3.5-1.7 4-1.5 8-3.3 3.3-1.5 2.7-1.5 23 24.3-.2.2-1.3 5-.5 3.8-.2 2.7v2l.2 1.5v1.8l-.5 2-.7 2.5-1 2.2-1.8 2.3-2 2-2.2 2-5.3 4.2-5.5 4.3-4 3.7-3.5 3.5-2.7 3.3-2.3 2.7-3.2 4.3-1.3 1.5-1 .7-1 .3-.7.2-1-.2-.8-.3-.7-.5-.5-.5-.5-.7v-.8h-.5l-1.8-.2-2.2-.8-2-1-1.8-1.5-.5-.7-.5-.8-.2-1.5v-1.2l.2-1-.7.5h-.8l-1-.3-1-.5-2-1.2z" fill="#ffeec8"/><path d="m359.7 473 .2 11 .8 15.5 1.2 18.8 1.8 21-4.8-5.8-4.2-6-3.5-5.7-3.3-5.8-5.7-11-2.8-5.2-2.7-5-3.3-5-1.7-2.3-1.8-2-1.5-1.7-1.7-1.5-3.3-2.5-3.2-1.8-3-1-3-.5h-2.5l-2.5.3-2.5.5-2 .7-1.5.8-2.5 1.5-.8.5-4.5 3.5-2-2.3-1.7-.7-4-2-2.5-1.5-2.5-1.8-2.8-2-2.2-2.2-2-2.5-.8-1.3-.5-1.2-.5-1.3-.2-1.2v-1.5l.2-1.3.5-1.5.8-1.2 1-1.5 1.5-1.3 1.7-1.5 2.3-1.5 2.5-1.2 3-1.5 25.5-11.3 18.7-8.5 12.5-6 7-3.5 5 30.8z" fill="#7a7878"/><path d="m397.7 661.3-10.3-16.3-10.7-16.7-11.3-16.3-10.2-15.2-16.8-23.8-6.7-9.5-4.3-5.2-3.7-4.8-3.8-4-3.5-3.2-3.2-2.5-3.3-2-3.2-1.5-3.3-1-3.5-.5h-3.5l-3.5.2-4 .8-4 1-4.5 1.5-10 3.5-6.7 2.2-6 1.5-5.5 1-5 .3h-4l-3.8-.5-3-1-2.5-1.3-2-1.5-1.5-1.5-1-1.7-.5-1.8v-1.7l.3-1.5.7-1.5 1.3-1.3 18.7-15.2 18.5-14.8 27-21.2 4.5-3.5.8-.5 2.5-1.5 1.5-.8 2-.7 2.5-.5 2.5-.3h2.5l3 .5 3 1 3.2 1.8 3.3 2.5 1.7 1.5 1.5 1.7 1.8 2 1.7 2.3 3.3 5 2.7 5 2.8 5.2 5.7 11 3.3 5.8 3.5 5.7 4.2 6 4.8 5.8 1 9.5 1 9.2 1.2 9.3 1.5 9.2 1.8 8.8 1.7 8.2 2 8 2.3 7 4.2 11.8 5.5 14 3 7.2 3.3 7 3.2 6.5 3 5.8z" fill="#7a7878"/><path d="m363.7 539.3-1.8-21-1.2-18.8-.8-15.5-.2-11 1.2 7.8v1l.3.7.5.8.7.7 2 1.5 2.5 1.3 3 1 3.8.7 4.2.8 4.8.5 5.2.2 5.5.3h5.8l6.2-.3 6.3-.2 6.5-.5 6.7-.8 6.8-.7 6.7-1 6.8-1 6.7-1.5 6.5-1.3 6.5-1.7 6.3-1.8 5.7-1.7 5.8-2 5.2-2.3 4.8-2.5 4.5-2.2 3.7-2.8 3.3-2.7 2.7-3 1.3-1.5.7-1.5.8-1.5.7-1.8h.5l2.8 26.3 5.7 58.5 5.8 60.7 1.7 21.8.5 7v4l-.2 2.5-.5 2.5-1 2.2-1 2.3-1.3 2-1.7 1.7-1.8 1.8-1.7 1.7-2.3 1.3-2.2 1.2-2.5 1.3-2.3 1-2.7.7-2.5.8-5.5 1-5.5.2h-5.5l-2.5-.5-2.8-.2-2.2-.8-2.5-.7-2-.8-2.3-1-1.7-1.2-1.8-1.3-1.5-1.2-1-1.5-1-1.8-.7-1.7-.5 2.2-.5 2.5-.8 2.5-.7 2.3-2.3 4.7-2.5 4.5-3 4-3 3.3-1.5 1.5-1.7 1-1.5 1-1.5.5-2.8 1-2.7.7-3 .5-3 .3-3.3.2h-6l-3.2-.5-3-.5-2.8-.7-3-1-2.5-1.3-2.5-1.2-2.5-1.8-2-2-2-2.2-3-4.5-3-5.8-3.2-6.5-3.3-7-3-7.2-5.5-14-4.2-11.8-2.3-7-2-8-1.7-8.2-1.8-8.8-1.5-9.2-1.2-9.3-1-9.2z" fill="#7a7878"/><g fill="none" stroke="#231f20" stroke-linecap="round" stroke-miterlimit="10"><path d="m361.4 211.5-2.2-3-2-3-2.3-3-1.7-3.2-2-3.5-1.5-3.5-1.8-3.5-1.2-3.8-1.3-4-1.2-3.7-.8-4-.7-4.3-.8-4-.5-4.2-.2-4.3v-8.7l.2-4 .5-4.3.5-4 .8-4 1-3.7 1-4 1.2-3.5 1.3-3.8 1.5-3.5 1.5-3.5 1.7-3.2 1.8-3.3 2-3 2-3 2.2-3 2.3-2.7 2.5-2.5 2.5-2.5 2.5-2.3 2.7-2 2.8-2 2.7-2 3-1.5 3-1.5 3-1.2 3-1.3 3.3-.7 3.2-.8 3.3-.5 3.5-.2 3.2-.3 3.5.3 3.3.2 3.2.5 3.3.8 3.2.7 3 1.3 3.3 1.2 3 1.5 2.7 1.5 3 2 2.8 2 2.5 2 2.7 2.3 2.5 2.5 2.3 2.5 2.2 2.7 2.3 3 2 3 2 3 1.7 3.3 1.8 3.2 1.7 3.5 1.3 3.5 1.5 3.8 1 3.5 1.2 4 .8 3.7.7 4 .5 4 .5 4.3.3 4v4.2l-.3 7.5-.7 7-1.3 7-1.7 6.8-2 6.5-2.5 6.2-3 5.8-3.5 5.5-2.3 3.2-2.5 3.3-2.5 3-2.7 2.7-3 2.8-3 2.5-3 2.2-3.3 2-3.2 1.8-3.3 1.7-3.5 1.3-3.5 1.2-3.7 1-3.8.5-3.7.5h-7l-3.3-.2-3.2-.5-3-.8-3.3-.7-3-1-3-1.3-2.7-1.5-3-1.5-2.8-1.7-2.7-1.8-2.5-2-2.5-2.2-2.5-2.3-2.3-2.5zm-23.5 138.3-24.2 39.5-101 80.5-4.3-4.5-23-24.3 75-87.2 39.5-82.8 1-2.2 3.5-6 5.5-8.5 3.3-5 4-5 4.2-5.3 4.5-5.2 5-5 5.3-4.8 2.7-2 3-2 2.8-2 3-1.7 3-1.5 3.2-1.3 3-1 3.3-1m302.7 184.5 1.5-2.2-95.7-78-49.5-66.8-1-1.7-3.3-4.8-2.2-3.2-3-3.8-3.3-3.7-3.5-4-4.2-4-4.5-4-4.8-3.8-5.2-3.2-2.8-1.5-2.7-1.3-3-1.2-2.8-1-3.2-.8-3-.7-3.3-.5-3.2-.3" stroke-width="14"/><path d="m499.4 333.3 1.5 2.2 8.3 11.5 6.5 8.8 5.5 6.7 4.2 4.8 3 3.2 2 1.8 1.5 1 111.3 54 .5-1 19.2-30.3" stroke-width="14"/><path d="m495.7 281.3 5.2 54.2 6 63 2.3 28.8 1.7 21.7v2.5l-.5 2.5-.7 1.8-.8 1.5-.7 1.5-1.3 1.5-2.7 3-3.3 2.7-3.7 2.8-4.5 2.2-4.8 2.5-5.2 2.3-5.8 2-5.7 1.7-6.3 1.8-6.5 1.7-6.5 1.3-6.7 1.5-6.8 1-6.7 1-6.8.7-6.7.8-6.5.5-6.3.2-6.2.3h-5.8l-5.5-.3-5.2-.2-4.8-.5-4.2-.8-3.8-.7-3-1-2.5-1.3-2-1.5-.7-.7-.5-.8-.3-.7v-1l-1.2-7.8-3.8-21.2-5-30.8-5.5-35.2-2.7-18.3-2.5-17.7-1.5-13.5-1.5-12.8-1-11.5-.8-10.5" stroke-width="14"/><path d="m510.9 454 2.8 26.3 5.7 58.5 5.8 60.7 1.7 21.8.5 7v4l-.2 2.5-.5 2.5-1 2.2-1 2.3-1.3 2-1.7 1.7-1.8 1.8-1.7 1.7-2.3 1.3-2.2 1.2-2.5 1.3-2.3 1-2.7.7-2.5.8-5.5 1-5.5.2h-5.5l-2.5-.5-2.8-.2-2.2-.8-2.5-.7-2-.8-2.3-1-1.7-1.2-1.8-1.3-1.5-1.2-1-1.5-1-1.8-.7-1.7-12.8-86.5" stroke-width="14"/><path d="m465.2 643.8-.5 2.2-.5 2.5-.8 2.5-.7 2.3-2.3 4.7-2.5 4.5-3 4-3 3.3-1.5 1.5-1.7 1-1.5 1-1.5.5-2.8 1-2.7.7-3 .5-3 .3-3.3.2h-6l-3.2-.5-3-.5-2.8-.7-3-1-2.5-1.3-2.5-1.2-2.5-1.8-2-2-2-2.2-3-4.5-3-5.8-3.2-6.5-3.3-7-3-7.2-5.5-14-4.2-11.8-2.3-7-2-8-1.7-8.2-1.8-8.8-1.5-9.2-1.2-9.3-1-9.2-1-9.5-1.8-21-1.2-18.8-.8-15.5-.2-11v-5" stroke-width="14"/><path d="m400.2 665.3-2.5-4-10.3-16.3-10.7-16.7-11.3-16.3-10.2-15.2-16.8-23.8-6.7-9.5-4.3-5.2-3.7-4.8-3.8-4-3.5-3.2-3.2-2.5-3.3-2-3.2-1.5-3.3-1-3.5-.5h-3.5l-3.5.2-4 .8-4 1-4.5 1.5-10 3.5-6.7 2.2-6 1.5-5.5 1-5 .3h-4l-3.8-.5-3-1-2.5-1.3-2-1.5-1.5-1.5-1-1.7-.5-1.8v-1.7l.3-1.5.7-1.5 1.3-1.3 18.7-15.2 18.5-14.8 27-21.2 4.5-3.5.8-.5 2.5-1.5 1.5-.8 2-.7 2.5-.5 2.5-.3h2.5l3 .5 3 1 3.2 1.8 3.3 2.5 1.7 1.5 1.5 1.7 1.8 2 1.7 2.3 3.3 5 2.7 5 2.8 5.2 5.7 11 3.3 5.8 3.5 5.7 4.2 6 4.8 5.8 2.2 2.7" stroke-width="14"/><path d="m185.4 441-2.7 1.5-3.3 1.5-8 3.3-4 1.5-3.5 1.7-3 2-1 .8-1 1-2.5 4.7-2.2 4.8-2.5 5.7-2.8 6.3-2.2 6.5-2 6.2-.8 2.8-.5 2.7v2.3l.5 2.7.8 2.8.7 2.5.8 1.5h.5l.2-.3.3-1.7.7-2.5 1.3-4.3 3.2-7.7.8-1.8 1.5-2.2 3.2-4.8 4.5-5.7" stroke-width="7"/><path d="m145.7 502.8v.2l-.3 1.3v1l.3 1.2.5 1.3 1.2 1.2 2 1.8 2 1.2 1 .5 1 .3h.8l.7-.5.5-.8.5-.7 1.5-3.5 1.3-3.5 2.2-4.3 3.8-5.7 10-14.3" stroke-width="7"/><path d="m155.2 511.8-.3.5-.2 1v1.2l.2 1.5.5.8.5.7 1.8 1.5 2 1 2.2.8 1.8.2" stroke-width="11.5"/><path d="m208.2 465.5-1.3 5-.5 3.8-.2 2.7v2l.2 1.5v1.8l-.5 2-.7 2.5-1 2.2-1.8 2.3-2 2-2.2 2-5.3 4.2-5.5 4.3-4 3.7-3.5 3.5-2.7 3.3-2.3 2.7-3.2 4.3-1.3 1.5-1 .7-1 .3-.7.2-1-.2-.8-.3-.7-.5-.5-.5-.5-.7v-1.8l.2-1 .8-2.5 1-2.7 1-1.8 1.2-2.2 4.5-6.5 2-2.8 2.5-4 2-2.5 2.5-2.7 3.3-3 3.7-3.8m527.3-50v1.5l-.3.3h-.2l-1.3-1.5-1.5-1.5-3-3-6-5.3-1.5-1-2-1.2-5-2.5-6.2-2.8" stroke-width="7"/><path d="m657.9 395.8 5 .2 5.5.3 5.5.5 5.3 1 2.2.5 1.8.7 4.2 3 8.5 6.5 5 4 4.8 4.3 4.2 4.2 1.8 2 1.5 2 1 2 1 2.5.7 2.5.3 2.5" stroke-width="7"/><path d="m715.2 433.3 1 1.2.5.8.2 1.2v1.3l-.2 1.5-1 2.2-1 2.3-.8.7-.5.5-1 .3h-.7l-.8-.3-.7-.5-2.5-2.2-2.8-2.3-3.7-2.7-5.5-3-14.5-7.5" stroke-width="7"/><path d="m711.4 445 .3.3.7.7.5 1 .5 1.5v1.5l-1 2-1.2 1.8-1.5 1.5-1.3 1" stroke-width="11.5"/><path d="m640.9 423.3 2.8 3 2.7 3.2 2.3 3 3.5 5.3 3.2 4.5 1.8 2 2 1.7 1.7 1.5 2.3 1 2.5 1 2.7.5 6.3 1.3 6.5 1.2 5 1.3 4.2 1.5 3.8 1.2 3 1.5 4.7 2 1.5.8h2.3l.7-.3.8-.5.5-.5.2-.7.3-.8v-.7l-.3-.8-.2-.7-.8-.8-1.7-1.7-2-1.8-1.5-1-2-1.2-6.5-3.5-3-1.8-4-2-2.5-1-3.3-1.2-4-1.3-4.7-1.2" stroke-width="7"/><path d="m342.9 702.3-1 1.5-2.5 3.2-4.2 5.3-5.5 6.5-7.5 7.7-4.3 4-4.5 4-5.2 4.3-5.3 4.5-6 4.2-6.2 4.3-6.5 4-7 4-7.5 3.7-7.8 3.8-8.2 3.2-8.8 3-9 2.8-9.2 2.2-9.8 1.8-10.2 1.2-10.5.8-5.5.2h-11.3l-5.7-.2-5.8-.5-6-.8-6-.7-6-1-6.2-1-6.3-1.5m192.5-99.8-3 2.3-3.5 2.7-4.7 3.3-6 4-7.5 4.5-8.5 4.5-9.5 4.5-5.3 2.2-5.2 2.3-5.8 2-6 2-6.2 1.7-6.3 1.8-6.7 1.5-6.8 1.2-7.2 1-7.3.8-7.5.5h-15.5l-8-.5-8.2-.8-8.3-1.2m116.5-235.3-1.7-.7-4-2-2.5-1.5-2.5-1.8-2.8-2-2.2-2.2-2-2.5-.8-1.3-.5-1.2-.5-1.3-.2-1.2v-1.5l.2-1.3.5-1.5.8-1.2 1-1.5 1.5-1.3 1.7-1.5 2.3-1.5 2.5-1.2 3-1.5 25.5-11.3 18.7-8.5 12.5-6 7-3.5 2.3-1.2" stroke-width="14"/></g></svg>