<svg height="850.394" viewBox="0 0 850.394 850.394" width="850.394" xmlns="http://www.w3.org/2000/svg"><path d="m710.32 397.85-.06.25-64.9 37.54-5.57 3.22-55.41 32.05 2.62-100.41zm-188.08 59.65-135.46-29.23-.05-3.98 4.08-.05 136.6-66.96 59.59 13.22-2.62 100.41h-.01z" fill="#f6cc4b"/><path d="m584.38 470.91-3.95 150.76-48.47 32.55c30.13-21.43 41.46-65.479 25.021-106.12-18.761-46.3-66.521-70.689-106.921-54.71l72.181-35.89 62.13 13.41z" fill="#ff001c"/><path d="m677.21 480.13c10.83 26.76 9.62 54.99-1.07 77.28l-77.35 51.939h-.01l-18.351 12.32 3.95-150.76 55.41-32.05 5.57-3.221 2.43 4.2c12.391 10.092 22.741 23.812 29.421 40.292zm-272.49 69.55c5.4-25.27 21.21-46.529 44.79-56.08.181-.069.37-.149.55-.21 40.4-15.979 88.16 8.41 106.921 54.71 16.439 40.641 5.109 84.69-25.021 106.12l-.15.11a69.23 69.23 0 0 1 -14.1 7.7c-40.53 16.42-88.64-7.99-107.47-54.511-7.88-19.449-9.39-39.679-5.52-57.839z" fill="#ff001c"/><g fill="none"><g stroke="#231f20" stroke-width="21"><path d="m164.67 127.3-40.5-5.59 12.22 320.44 5.67 148.77 2.11 55.35m432.26 128.52 1.15-43.93 2.85-109.19 3.95-150.76 2.62-100.41 4.82-184.18-63.97-8.84-137.74-19.03-6.72-.93-98.55-13.61-59.77-8.26-60.4-8.34"/><path d="m710.26 682.17 1.45-51.28 6.53-231.28 7.41-262.52-133.83 49.23m-474.96-65.96 6.52-1.69 99.78-25.8 60.99-15.77 243.7 30.12 198.46 24.53 7.41.92m-350.33 24.85.96 76.31 1.14 91.79 1.19 94.49.05 4.18.05 3.98 1.01 80.46.46 36.79 1.47 117.64m-250.08-221.13 148.67 40.07 98.81 26.64"/><path d="m711.29 630.88-7.07 5.29-126.64 94.69-426.46-137.03-9.06-2.91m142.09-513.82.69 66.81.76 74.85.91 88.73 1.8 174.61.47 46.37.44 42.55"/><path d="m146.95 595.81 4.17-1.98 137.66-65.36 11.08-5.26 88.39 22.31 16.47 4.16 1.73.44m-241.78-422.82v.01l6.62 110.91.05.92"/><path d="m191 260.16c0 12.12-8.42 21.95-18.8 21.95s-18.8-9.83-18.8-21.95c0-11.77 7.93-21.39 17.89-21.94.3-.02.61-.03.91-.03 10.38 0 18.8 9.84 18.8 21.97zm32.16-167.29 1.91 42.78 4.58 102.17.04.93"/><path d="m212.64 261.93c1.43 12.04 10.95 20.82 21.26 19.6s17.51-11.98 16.09-24.02c-1.4-11.69-10.39-20.29-20.34-19.69-.31.02-.61.05-.92.09-10.31 1.22-17.52 11.98-16.09 24.02zm76.6-43.21 95.11 15.11 136.7 21.71m-234.42 51.95 98.86 18.13 139.82 25.64m-229.6 47.43 90.97 21.42m212.11 189.24 105.43 26.82m-314.11-477.72 137.74-45.97"/><path d="m390.81 424.24 136.6-66.96.44-.21v-249.85"/><path d="m720.18 400.04-1.94-.43-7.92-1.76-123.32-27.35-59.59-13.22-.1-.02m112.48 81.6 5.57-3.22 64.9-37.54m-323.48 30.17 135.46 29.23 62.13 13.41h.01l55.41-32.05m-107.98 215.47a69.23 69.23 0 0 1 -14.1 7.7c-40.53 16.42-88.64-7.99-107.47-54.511-7.88-19.449-9.39-39.68-5.52-57.84 5.4-25.27 21.21-46.529 44.79-56.08.181-.069.37-.149.55-.21 40.4-15.979 88.16 8.41 106.921 54.71 16.439 40.641 5.109 84.69-25.021 106.12"/><path d="m647.79 439.84c12.39 10.09 22.74 23.811 29.42 40.29 10.83 26.76 9.62 54.99-1.07 77.28l-77.35 51.939h-.01l-18.351 12.32-48.47 32.55-.15.11-.77.51m-91.369-156.289 10.39-5.16 72.18-35.89"/></g><path d="m0 0h850.394v850.394h-850.394z"/></g></svg>