<svg height="850" viewBox="0 0 850 850" width="850" xmlns="http://www.w3.org/2000/svg"><path d="m763.8 446-.3.8-.7 1-1 .5-1.3.5-2 .5h-3l-.7-.3-.5-.5-.5-.5-.3.8-.5 1-.7 1-.5.5-.5.2-2 .3h-2l-1.8-.5-1.2-.5h-.5l-.5.5-.5.2-.5.3h-1.5l-.5-.3-.5-.5-.5-.5-.5-1-.3-1-.5-3.5-.7-4.7-1.5-6-1.8-5-1.5-3.8-1.7-3.7-1.3-3.5-1-3.3-.5-2.5v-2.5l.5-2.2.8-2.5 1.7-4.5 2.3-5.5 1.2-3.5 1-3.8 3-.5 3-.5 6.5-1.5 3.8-.5 3.7-.2h4.3l4.5.5 5.5 9.7 1.5 2.8 1.2 2.7.8 2.5.5 2.3v4.2l-.8 9.5-.5 5.5-.7 5.5-1.3 5-1.2 4.5-1 1.8-1.3 1.7-1.7 1.8z" fill="#ffeec8"/><path d="m728.5 415 1 3.3 1.3 3.5 1.7 3.7 1.5 3.8 1.8 5-1 1.5-1.5 1.5-1.3 1.5-1.7 1-1.5.7-1.8.3h-.7l-.8-.3-.7-.5-.8-.5 1.5-3 1.3-2.7 1-3 .5-3 .2-3.3v-3l-.5-3.2-.5-3z" fill="#ffeec8"/><path d="m682.8 693.5 2.7 4.8 2.8 4.5 3 4.2 2.7 4.3 2.3 4.2.7 2 .8 2 .5 2 .2 2v2l-.2 2-.8 1.5-.7 1.5-1 1.3-1.3 1-1.5 1-1.5.5-3.5 1.2-3.5.8-3.5.7-3.2.8-1.3.2-1 .5-3.2 2-2.5 1.8-2.3 1.7-2 2-4.2 3.8-2.5 1.7-3 2-3 1.8-3.5 1.7-3.3 1.3-3.5 1.2-3.2 1-3.3.5-2.7.5h-2.8l-2-.5-1.7-.5-.5-.5-.5-.7-.3-.8-.2-.7.2-1 .3-1 1.2-2.5 2-2.8 3-3.5 3.8-4 4-4.2 4-4.8 2-2.5 1.7-2.7 1.5-2.5 1.5-3 1-2.8 1-3 .5-3 .5-3.2-.2-3-.5-3.3 3.5-.2 25-10.5z" fill="#231f20"/><path d="m682.8 693.5-1.5.8-25 10.5-3.5.2-.5-2-3.8-8.5-4.5-9.2-6.2-11.8-3.5-6.5-4-7-4.3-7-4.5-7-5-7-5-7-5.5-7-5.5-6.5-3.5-3.7-2.7-4.3-2.8-4-2.2-4.2-2-4.3-1.5-4-1.5-4-1.3-3.7-1.5-6.8-1-5.2-.5-3.5-.2-1.3-3-15-2.3-11.7-1.5-9.8-.2-.7 6.5-2.3 6.7-2.2 7.5-3 8-3.5 2-.8 9.8-4.2 9.7-4.3 9.5-4.5 8.8-4.7 8-4.5 7-4.3 6-4.2 2.2-2 2.3-2-.3 3-.2 3.2-1 7.8-1.8 8.5-1.7 9.5-4.8 20-4.2 19.7-2.3 10.3-1.5 8-.7 6.2v1.8l.7 2.2 1.3 3 1.5 3.5 9 17.5 2.5 5.3 2.5 5.7 2.2 5.8 2.3 6 2 6 1.5 6.2 1.2 6.3.8 6.5 3.2 23 .5 3.5.8 3 1.2 3.2z" fill="#7a7878"/><path d="m678 439.8 1 6.2.3 6.3.2 3-.2 2.7-.3 3-.5 3-.7 2.8-.8 3-1.2 2.7-1.3 2.8-1.5 2.7-1.7 2.5-2.3 2.8-2.2 2.5-2.3 2-2.2 2-6 4.2-7 4.3-8 4.5-8.8 4.7-9.5 4.5-9.7 4.3-9.8 4.2-2 .8-8 3.5-7.5 3-6.7 2.2-6.5 2.3-5 1.5-4.8 1.2-4.7 1-4.8.8-9.5 1.5-10.2 1-5.5.2-5.8.3-12 .5-6 .2-5.7.5-5.5.8-5.3 1-2.7 1-2.5 1.2-2 1.8-1.8 2-1.5 2.2-1.2 2.5-1 2.8-1 2.7-1.8 6-1.7 6-1.8 5.8-1 2.7-1.2 2.5-3.8 6.8-3.7 6.2-4 5.5-4.3 5-4 4.8-4.2 4.2-8 7.8-8 7.2-3.8 3.8-3.5 3.5-3.5 3.7-3 4-3 4.3-2.7 4.5-1.3 2.5-1.2-.5-20.5-14h-3.8l1-2 1-2 .8-2.3 1-2.5 1.2-2.7 3.5-7.8 2.3-5.2 2.5-6.5 2.7-7 2.8-8 3.2-9.8 4.5-12.5 5.5-14 5.8-14.5 6-14 5.7-12.5 2.8-5.5 2.5-4.7 2.2-4 2-3 1.3-1.3 1.7-1.5 4.5-3.2 6.3-4 7.2-4.3 8.5-4.7 9.3-5 19.5-10.3 19.7-10.2 18-9.3 7.5-4 6.5-3.7 5-3 3-2.3 2.5 1.5 2.5 1.3 2.8 1 3 .7 2.7.5 3 .5 6 .8 6.3.2 6 .3h5.7l5.5.2 4.5.3h10l5.3-.3 5.2-.5 5.3-.7 5.2-1 5-1 5-1.5 4.8-2 4.2-2 4-2.5 1.8-1.5 1.7-1.5 1.8-1.5 1.2-1.8 1.5-1.7 1-2 1-2 1-2 2.8 12.2 1.2 6z" fill="#7a7878"/><path d="m566.8 130.3 4.5.7 4.5 1.3 4.2 1.7 4 2.3 3.8 2.7 3.5 3 3.2 3.8 3 3.7 2.5 4.5 2.3 4.5 1.7 4.8 1.5 5.2 1.3 5.3.5 5.5.2 5.7-.2 6-.3 3.5-.7 3.3-.5 3.5-1 3.2-1 3-1 3.3-1.3 2.7-1.5 3-1.5 2.8-1.7 2.7-1.8 2.5-1.7 2.3-2 2.2-2 2.3-2.3 2-2.2 1.7-3 2.3-3.3 2-3.5 1.5-3.2 1.2-3.8 1-3.5.8-3.7.2-3.8-.2-3-.3-2.7-.7-3-.8-2.5-1-2.8-1.2-2.5-1.5-2.5-1.5-2.2-2-2.5-2-2.3-2.5-2.2-2.5-2-2.5-1.8-3-1.7-3-1.5-3-1.3-3.3-1.2-3.5-1-3.5-.8-3.5-.7-3.7-.3-3.8-.2-4v-4l.2-4 .8-5.7 1-5.5 1.7-5.3 2-5.2 2.3-4.8 2.7-4.5 3-4 3.3-4 3.5-3.2 3.7-3 4-2.5 4.3-2 4.2-1.5 4.5-1.3 4.5-.5zm-181.5 132.7 1.5 2.5 1 1.5 1.2 1.3 1.5 1.2 1.8 1 1.7.5 1 .3.8-.3 1.2-.2 1-.5.8-.5.7-.8.5-1 .3-1 .2-1v-1.2l1.5 1.7.8.8.7.5 1 .2 1 .5h2.8l1.5-.2 1.2-.5 1-.8.5-.7.3-1.3v-1l-.3-1.2-.5-1.3.5.8.8.7 1 .5 1 .5 1.2.3 1.5-.3 1.5-.7 1.8-1.3 1-1.2.5-1.3.2-1.5v-1.5l-.2-1.7-.8-1.8-.7-1.7-1-1.8.2-2.7 1-2.8.3-.5.7-.2h1.5l2.3.7 2.2 1.5 3 2.5 2.5 2.3 2.3 2.2 1.5 2 2.2 3.3.8 1.5 1 2.2.5 2.3.2 2.2v7l.3 2.5v2.5h.2v2.3l-.7 2-1 2.2-1.3 2-1.7 2-1.8 1.8-2.2 1.7-2.3 1.5-2.2 1.3-2.8 1.2-2.5.8-2.5.7-2.7.3h-2.5l-2.5-.3-2.3-.5v.3l-11.7-8.5-3.5-3-3-3-1.5-1.8-1.3-2-1-2-1-2.2-1.7-4.3-1.3-4.2z" fill="#ffeec8"/><path d="m415.8 243.8v.2l2.2 2.3 2.3 3.2v1.5l.2 1.5.5 1.5.8 1.3.5.7.7.5v1.5l-.2 1.5-.5 1.3-1 1.2-1.8 1.3-1.5.7-1.5.3-1.2-.3-1-.5-1-.5-.8-.7-.5-.8-.7-1-1.5-3-1.5-3-1.5-3-.8-1.5-1.2-1.2-.5-.8-.3-.7v-.8l.3-.7.7-.8.8-.5 2-1 2.2-1 1.3-.2h1.7l.8.2 1.2.8z" fill="#ffeec8"/><path d="m412 297.3v-.3l2.3.5 2.5.3h2.5l2.7-.3 2.5-.7 2.5-.8 2.8-1.2 2.2-1.3 2.3-1.5 2.2-1.7 1.8-1.8 1.7-2 1.3-2 1-2.2.7-2v-3.5l2.5 2 2.3 1.5 2 1.2 2 1 1.7.5h3l1.3-.5 1.5-.7 1.2-.8 3-2.7 7.3-7.3 5.5-5.2 7-6.5 8.2-7 4.5-3.5 4.8-3.3 4.5-3.2 4.7-2.8 4.8-2.2 4.5-2 2.2-.5 2.3-.8 2-.2 2.2-.3h2l1.8.3 2 .5 1.7.7.3-.2 2.2 2 2.5 1.5 2.5 1.5 2.8 1.2 2.5 1 3 .8 2.7.7 3 .3 3.8.2 3.7-.2 3.5-.8 3.8-1 3.2-1.2 3.5-1.5 3.3-2 3-2.3h1.2l8.8-.2h8.2l7.8.2 7.5.8 7.2 1.2 7 1.5 7 2 6.8 2.5 6.7 3 6.8 3.5 6.7 4 7 4.8 7.3 5.2 7.2 6 7.8 6.5 8.2 7.5 7.3 6.8 6.7 6.7 6 6.8 5.5 6.5 5 6.5 4.5 6.2 4 6.3 3.5 6.2 3.3 6 3 6.3 2.5 6 2.2 6.2 2 6.3 1.8 6.2 1.5 6.3 1.5 6.5-4.5-.5h-4.3l-3.7.2-3.8.5-6.5 1.5-3 .5-3 .5-3 .3-1.5-.3-1.5-.2-1.5-.3-1.2-.7-1.3-1-1.2-1-2.5-2.5-2.3-3-4-6.5-2-2.8-1.5-2.2-6.5-8.5-5.7-7.8-10.3-14-4.7-5.7-4.5-5-2-2.3-2.5-2-2.3-1.7-2.2-1.5-2.5 3.7 1 13 1.2 12.3 2.8 22.2 1.2 10.5.3 5 .2 5v5.3l-.2 5-.5 5-.8 5.2-.5 2.3-.5 2-1 2-1 2-1 2-1.5 1.7-1.2 1.8-1.8 1.5-1.7 1.5-1.8 1.5-4 2.5-4.2 2-4.8 2-5 1.5-5 1-5.2 1-5.3.7-5.2.5-5.3.3h-10l-4.5-.3-5.5-.2h-5.7l-6-.3-6.3-.2-6-.8-3-.5-2.7-.5-3-.7-2.8-1-2.5-1.3-2.5-1.5-1.7-1.2-1.5-1.3-1.3-1.2-1-1.3-.7-1.2-.8-1.5-1-2.8-.2-3-.3-3.2-.2-8.3-.8-6.2-1-6.5-1.2-6.8-1.8-6.5-1.7-6.7-2-6.5-2.3-6.5-2-6.3-4.7-11.5-4.3-10.2-3.5-8-2.7-5.8-1.3-2.5-3.2-1.2-3-.8-3-.7-2.8-.5h-7.7l-2.5.5-2.3.5-2.2.7-4.3 1.5-4 2.3-3.7 2.5-7.8 5.2-3.7 2.5-3.8 2.5-4.2 2.5-4.3 1.8-2.2.7-2.5.8-2.5.5-2.5.2-5 .3-4.5-.3-4-1-3.5-1.2-3-1.8-2.5-2-2.3-2.7-2-2.8-1.5-3.2-1.5-3.5-1.2-3.8-1-3.7-1.8-8.5z" fill="#a9d7f3"/><path d="m404.8 655.3 1.2.5-2.2 4.5-2 4.2-3.3 7.8-2.5 6.7-2.5 5.5-1.2 2.5-1.5 2-1.5 1.5-1.8 1.3-2 1-2.2.7-2.5.3-3-.3-1.3-.2-1.5-.3-2.7-1.2-2.5-1.8-2.5-2-4.8-4.2-2.2-2-2-1.5-3-1.8-3-1.5-2.5-1.2-2.8-.8-5.2-2-2.8-1.5-3.2-1.5-3-2-3-2.2-2.8-2.5-2.5-2.5-2.5-2.5-2-2.5-1.5-2.3-1.2-2.2-.8-2.3v-2.5l.5-.5.5-.7.5-.5 1-.3 1-.2h2.8l3.5.5 4.5 1 11.2 3.5 6.5 2 3.5.5 3.5.5 3.5.2 3.5-.2 3.5-.5 3.3-1 3-1.5 1.5-1 1.5-1 1.5-1.3 1.2-1.5 1.3-1.5 1.2-1.7h3.8z" fill="#231f20"/><path d="m400.3 428.5 1.7 7.8 1.5 7.7 1 7.8.8 7 .2 6.7v5.8l-.5 4.7-.5 3.8-.7 1.7-1.3 2-1.5 2-1.7 2-2 1.5-2 1-2.3.8-1.2.2-1.3-.2-1-.3-1.2-.5-1-1-.8-1-1.5-3-1.5-3.2-2-7-1.2-3-1-2.3-1 .3-.8.2-.5.5-.5.8-.5 1.2-.5 1.5-.2 1.5-.5 1.3-.8.7-.5.3h-.5l-1.2-1.5-.8-1.8-.7-2.5-.8-2.7-.2-2.8-.3-3.2-.2-7 .2-8 .5-7.8 1-6.2.5-2.3.5-1.7zm11.7-167 .5 1.3.3 1.2v1l-.3 1.3-.5.7-1 .8-1.2.5-1.5.2h-2.8l-1-.5-1-.2-.7-.5-.8-.8-1.5-1.7-1.7-3.5-2.5-4.8-2.3-3.7-.7-1.3-1.5-.7-.8-.3h2l1-1.2 1.5-1.5 1.8-1.3 2.2-.7.5-.3h.8l1.2.5 1.3.5.7.8.3.7.5.8 1.2 1.2.8 1.5 1.5 3 1.5 3 1.5 3z" fill="#ffeec8"/><path d="m384.3 255.8.2-1 .5-1 .5-1 1-1 1-.5 1.3-.5 1-.3h1.2l.8.3 1.5.7.7 1.3 2.3 3.7 2.5 4.8 1.7 3.5v1.2l-.2 1-.3 1-.5 1-.7.8-.8.5-1 .5-1.2.2-.8.3-1-.3-1.7-.5-1.8-1-1.5-1.2-1.2-1.3-1-1.5-1.5-2.5-.8-3.7-.2-2z" fill="#ffeec8"/><path d="m342.5 733 3.3 2 2.5 2.3 2.2 2.7 1.8 2.8 1.2 3 .5 1.7.3 1.5v3.3l-.3 1.7-.2 1.8-.8 1.5-.7 1.2-1.3 1.3-1.2 1-1.8 1-1.7 1-2 .7-2 .5-2 .5-2.3.3-2.2.2h-2l-2-.2-2-.5-2-.5-1.5-1-4.5-2.5-2.8-2-1.5-1-.7-1-.8-.5-1-.5-5-2.3-8-3-6.5-2.2-5.2-1.8-2.3-1-1.7-1.2-1.8-1.3-1.2-1.5-1.3-1.7-1-2.3-.7-2.5-.8-3-.5-3.5-.5-4 32-9.5 2.3-1.5 1 1.3 1.2 1.5 3 2.5 3.5 2.5 3.8 2.5 8.7 5z" fill="#231f20"/><path d="m312.3 380.8 2 5.5 2.7 8.7 1.3 5.5 1.5 6.3 1.5 7 1.2 7.2-1.7.3-157.5 1.2 1.2-9.2 1.3-8.3 1.2-7 1.3-6 2-8.5 1-2.7-5.3-66.8-52.7 115.8-4.8.7-22.7-7.7 9.5-33 8-29 3.7-13.8 3-11.7 2.3-8 2.5-8.5 3-8.8 3.5-9 3.5-9.2 3.5-9 7.5-17.3 6.7-15.5 5.8-12.2 5.5-11.3 3.5-3.2 4-3.3 4.2-3.5 4.5-3.5 9.5-6.7 9.5-6.3 8.5-5.5 7-4.2 6.8-4 3 2.7 3 2.5 3.2 2.3 3.5 1.7 3.5 1.5 3.8 1 3.7.8h3.8l4.2-.3 4.3-.7 4-1.3 4-1.7 3.7-2.3 3.5-2.7 3.3-3 3-3.5 5.7 1.2 6.5 4.3 15.3 10.7 34.5 27.8 5.5 11 5.7 12.5 7 15.2 7.3 17.5 3.7 9 3.5 9 3.3 9 3 9 2.7 8.5 2 7.8 3 12 3.8 13.7 8 28.8 9.5 33.2 1.5 5-28.8 1.8-53-115.5z" fill="#a9d7f3"/><path d="m268.8 183.3-3 3.5-3.3 3-3.5 2.7-3.7 2.3-4 1.7-4 1.3-4.3.7-4.2.3h-3.8l-3.7-.8-3.8-1-3.5-1.5-3.5-1.7-3.2-2.3-3-2.5-3-2.7-3.5-4-3-4.8-2.8-5-2.5-5.5-1.7-5.7-1.5-6-.8-6.3-.2-6.5.2-5.7.5-5.8 1.3-5.5 1.2-5 2-5 2-4.7 2.8-4.3 2.7-4 3-3.7 3.5-3.3 3.5-2.7 3.8-2.3 4-2 4.2-1.5 4.3-.7 4.5-.3 4.5.3 4.2.7 4.3 1.5 4 2 3.7 2.3 3.5 2.7 3.5 3.3 3 3.7 3 4 2.5 4.3 2 4.7 2 5 1.3 5 1.2 5.5.5 5.8.3 5.7-.3 5.8-.5 6-1.2 5.5-1.5 5.2-2 5-2.3 4.8-2.7 4.5z" fill="#ffeec8"/><path d="m177.8 706v-.7l32 10.2-.3 5.3-.5 4.5-.5 4-.7 3-1 2.7-1 2.3-1.5 2-1.5 1.5-2 1.2-2 1.3-2.5 1-3 1-6.8 2.5-8.7 3-5 2.2-1 .5-.5.5-.8 1-1.5 1-2.7 2-4.5 2.5-1.8 1-1.7.5-2 .5-2.3.3h-2l-2.2-.3-2-.2-2.3-.5-2-.5-2-.8-1.7-1-1.5-1-1.5-1-1.3-1.2-.7-1.3-.8-1.5-.2-1.7-.3-1.8v-3.2l.3-1.5.5-1.8 1.2-3 1.8-2.7 2.2-2.8 2.8-2.2 3-2 10.7-6 5.3-3 5-3 4.5-3 1.7-1.5 1.8-1.8 1.2-1.5 1.3-1.7.7-1.5z" fill="#231f20"/><path d="m310.5 707.5.3 1.5.5 1.3.5 1.5 1 1.2-2.3 1.5-32 9.5-.5-6.2-3-20.3-25-219.2h-12.5l-25.5 220.2-2.2 17-32-10.2v.7l-3.3-42.2-5.5-74.3-3-40-2.2-37.7-1.8-31.3-.5-12.5v-19.2l.5-9.3.5-8.7.8-8.3 157.5-1.2 1.7-.3 1.3 8.8 1 9.2.7 10v19.8l-.5 12.5-1.5 32-2.2 38.2-2.8 40.8-5 74.5z" fill="#7a7878"/><path d="m85.8 422.8 22.7 7.7 4.8-.7.5 1.7.2 2.3 1 6.2.8 7.5.2 8.3-.2 6.7-.3 3.3-.5 3-.5 2.7-.7 2.3-1 2-1.3 1.5-.5-.3-.5-.2-.7-.8-.5-1.2-.3-1.5-.5-1.3-.5-1.5-.5-.5-.5-.5-.7-.5-.8-.2-1.2 2.2-1 3.3-2.3 6.7-1.2 3.5-1.8 2.8-.7 1.2-1 .8-1 .7-1.3.3h-2.2l-2.3-.8-2.2-1.2-2-1.5-1.8-1.8-1.5-2-1-2-.7-2-.5-1.7-.3-2.3-.5-5.2.3-6.5.2-7.5 1-8 1.3-8.3 1.7-8.5z" fill="#ffeec8"/><g fill="none" stroke="#231f20" stroke-linecap="round" stroke-miterlimit="10"><path d="m211.3 186.3-3.5-4-3-4.8-2.8-5-2.5-5.5-1.7-5.7-1.5-6-.8-6.3-.2-6.5.2-5.7.5-5.8 1.3-5.5 1.2-5 2-5 2-4.7 2.8-4.3 2.7-4 3-3.7 3.5-3.3 3.5-2.7 3.8-2.3 4-2 4.2-1.5 4.3-.7 4.5-.3 4.5.3 4.2.7 4.3 1.5 4 2 3.7 2.3 3.5 2.7 3.5 3.3 3 3.7 3 4 2.5 4.3 2 4.7 2 5 1.3 5 1.2 5.5.5 5.8.3 5.7-.3 5.8-.5 6-1.2 5.5-1.5 5.2-2 5-2.3 4.8-2.7 4.5-3 4-3 3.5-3.3 3-3.5 2.7-3.7 2.3-4 1.7-4 1.3-4.3.7-4.2.3h-3.8l-3.7-.8-3.8-1-3.5-1.5-3.5-1.7-3.2-2.3-3-2.5zm-125.5 236.5 9.5-33 8-29 3.7-13.8 3-11.7 2.3-8 2.5-8.5 3-8.8 3.5-9 3.5-9.2 3.5-9 7.5-17.3 6.7-15.5 5.8-12.2 5.5-11.3 3.5-3.2 4-3.3 4.2-3.5 4.5-3.5 9.5-6.7 9.5-6.3 8.5-5.5 7-4.2 6.8-4m-33.3 522-.2-2.3-3.3-42.2-5.5-74.3-3-40-2.2-37.7-1.8-31.3-.5-12.5v-19.2l.5-9.3.5-8.7.8-8.3 1.2-9.2 1.3-8.3 1.2-7 1.3-6 2-8.5 1-2.7-5.3-66.8-52.7 115.8.5 1.7.2 2.3 1 6.2.8 7.5.2 8.3-.2 6.7-.3 3.3-.5 3-.5 2.7-.7 2.3-1 2-1.3 1.5-.5-.3-.5-.2-.7-.8-.5-1.2-.3-1.5-.5-1.3-.5-1.5-.5-.5-.5-.5-.7-.5-.8-.2-1.2 2.2-1 3.3-2.3 6.7-1.2 3.5-1.8 2.8-.7 1.2-1 .8-1 .7-1.3.3h-2.2l-2.3-.8-2.2-1.2-2-1.5-1.8-1.8-1.5-2-1-2-.7-2-.5-1.7-.3-2.3-.5-5.2.3-6.5.2-7.5 1-8 1.3-8.3 1.7-8.5 2.3-8.2m313 .7-9.5-33.2-8-28.8-3.8-13.7-3-12-2-7.8-2.7-8.5-3-9-3.3-9-3.5-9-3.7-9-7.3-17.5-7-15.2-5.7-12.5-5.5-11-34.5-27.8-15.3-10.7-6.5-4.3m37.5 198.5.3-2.2 6.2-66 53 115.5-.5 1.7-.5 2.3-1 6.2-.5 7.8-.2 8 .2 7 .3 3.2.2 2.8.8 2.7.7 2.5.8 1.8 1.2 1.5h.5l.5-.3.8-.7.5-1.3.2-1.5.5-1.5.5-1.2.5-.8.5-.5.8-.2 1-.3 1 2.3 1.2 3 2 7 1.5 3.2 1.5 3 .8 1 1 1 1.2.5 1 .3 1.3.2 1.2-.2 2.3-.8 2-1 2-1.5 1.7-2 1.5-2 1.3-2 .7-1.7.5-3.8.5-4.7v-5.8l-.2-6.7-.8-7-1-7.8-1.5-7.7-1.7-7.8-1.5-5" stroke-width="14"/><path d="m310.5 709v-1.5l3-40.7 5-74.5 2.8-40.8 2.2-38.2 1.5-32 .5-12.5v-19.8l-.7-10-1-9.2-1.3-8.8-1.2-7.2-1.5-7-1.5-6.3-1.3-5.5-2.7-8.7-2-5.5-.8-2.3m-99.5 319.3v.7l-2.2 17-.3 5.3-.5 4.5-.5 4-.7 3-1 2.7-1 2.3-1.5 2-1.5 1.5-2 1.2-2 1.3-2.5 1-3 1-6.8 2.5-8.7 3-5 2.2-1 .5-.5.5-.8 1-1.5 1-2.7 2-4.5 2.5-1.8 1-1.7.5-2 .5-2.3.3h-2l-2.2-.3-2-.2-2.3-.5-2-.5-2-.8-1.7-1-1.5-1-1.5-1-1.3-1.2-.7-1.3-.8-1.5-.2-1.7-.3-1.8v-3.2l.3-1.5.5-1.8 1.2-3 1.8-2.7 2.2-2.8 2.8-2.2 3-2 10.7-6 5.3-3 5-3 4.5-3 1.7-1.5 1.8-1.8 1.2-1.5 1.3-1.7.7-1.5.3-1.8v-.7" stroke-width="14"/><path d="m275 697.5 3 20.3.5 6.2.5 4 .5 3.5.8 3 .7 2.5 1 2.3 1.3 1.7 1.2 1.5 1.8 1.3 1.7 1.2 2.3 1 5.2 1.8 6.5 2.2 8 3 5 2.3 1 .5.8.5.7 1 1.5 1 2.8 2 4.5 2.5 1.5 1 2 .5 2 .5 2 .2h2l2.2-.2 2.3-.3 2-.5 2-.5 2-.7 1.7-1 1.8-1 1.2-1 1.3-1.3.7-1.2.8-1.5.2-1.8.3-1.7v-3.3l-.3-1.5-.5-1.7-1.2-3-1.8-2.8-2.2-2.7-2.5-2.3-3.3-2-8.5-4.7-8.7-5-3.8-2.5-3.5-2.5-3-2.5-1.2-1.5-1-1.3-1-1.2-.5-1.5-.5-1.3-.3-1.5m-35.5-8.5v-1.5l-25-219.2h-12.5l-25.5 220.2m-49.5-276h.8l157.5-1.2m215-186.5-2.5-2-2.3-2.5-2.2-2.5-2-2.5-1.8-3-1.7-3-1.5-3-1.3-3.3-1.2-3.5-1-3.5-.8-3.5-.7-3.7-.3-3.8-.2-4v-4l.2-4 .8-5.7 1-5.5 1.7-5.3 2-5.2 2.3-4.8 2.7-4.5 3-4 3.3-4 3.5-3.2 3.7-3 4-2.5 4.3-2 4.2-1.5 4.5-1.3 4.5-.5 4.8.3 4.5.7 4.5 1.3 4.2 1.7 4 2.3 3.8 2.7 3.5 3 3.2 3.8 3 3.7 2.5 4.5 2.3 4.5 1.7 4.8 1.5 5.2 1.3 5.3.5 5.5.2 5.7-.2 6-.3 3.5-.7 3.3-.5 3.5-1 3.2-1 3-1 3.3-1.3 2.7-1.5 3-1.5 2.8-1.7 2.7-1.8 2.5-1.7 2.3-2 2.2-2 2.3-2.3 2-2.2 1.7-3 2.3-3.3 2-3.5 1.5-3.2 1.2-3.8 1-3.5.8-3.7.2-3.8-.2-3-.3-2.7-.7-3-.8-2.5-1-2.8-1.2-2.5-1.5-2.5-1.5zm-.3.2-1.7-.7-2-.5-1.8-.3h-2l-2.2.3-2 .2-2.3.8-2.2.5-4.5 2-4.8 2.2-4.7 2.8-4.5 3.2-4.8 3.3-4.5 3.5-8.2 7-7 6.5-5.5 5.2-7.3 7.3-3 2.7-1.2.8-1.5.7-1.3.5h-3l-1.7-.5-2-1-2-1.2-2.3-1.5-2.5-2m-31 20.2v.3l1.5 9 1.8 8.5 1 3.7 1.2 3.8 1.5 3.5 1.5 3.2 2 2.8 2.3 2.7 2.5 2 3 1.8 3.5 1.2 4 1 4.5.3 5-.3 2.5-.2 2.5-.5 2.5-.8 2.2-.7 4.3-1.8 4.2-2.5 3.8-2.5 3.7-2.5 7.8-5.2 3.7-2.5 4-2.3 4.3-1.5 2.2-.7 2.3-.5 2.5-.5h7.7l2.8.5 3 .7 3 .8 3.2 1.2 1.3 2.5 2.7 5.8 3.5 8 4.3 10.2 4.7 11.5 2 6.3 2.3 6.5 2 6.5 1.7 6.7 1.8 6.5 1.2 6.8 1 6.5.8 6.2.2 8.3.3 3.2.2 3 1 2.8.8 1.5.7 1.2 1 1.3 1.3 1.2 1.5 1.3 1.7 1.2 2.5 1.5 2.5 1.3 2.8 1 3 .7 2.7.5 3 .5 6 .8 6.3.2 6 .3h5.7l5.5.2 4.5.3h10l5.3-.3 5.2-.5 5.3-.7 5.2-1 5-1 5-1.5 4.8-2 4.2-2 4-2.5 1.8-1.5 1.7-1.5 1.8-1.5 1.2-1.8 1.5-1.7 1-2 1-2 1-2 .5-2 .5-2.3.8-5.2.5-5 .2-5v-5.3l-.2-5-.3-5-1.2-10.5-2.8-22.2-1.2-12.3-1-13" stroke-width="14"/><path d="m586 235 8.8-.2h8.2l7.8.2 7.5.8 7.2 1.2 7 1.5 7 2 6.8 2.5 6.7 3 6.8 3.5 6.7 4 7 4.8 7.3 5.2 7.2 6 7.8 6.5 8.2 7.5 7.3 6.8 6.7 6.7 6 6.8 5.5 6.5 5 6.5 4.5 6.2 4 6.3 3.5 6.2 3.3 6 3 6.3 2.5 6 2.2 6.2 2 6.3 1.8 6.2 1.5 6.3 1.5 6.5-4.5-.5h-4.3l-3.7.2-3.8.5-6.5 1.5-3 .5-3 .5-3 .3-1.5-.3-1.5-.2-1.5-.3-1.2-.7-1.3-1-1.2-1-2.5-2.5-2.3-3-4-6.5-2-2.8-1.5-2.2-6.5-8.5-5.7-7.8-10.3-14-4.7-5.7-4.5-5-2-2.3-2.5-2-2.3-1.7-2.2-1.5-2-1-2-1-2-.5-2-.8-2.3-.2-2.2-.3h-5" stroke-width="14"/><path d="m678 439.8-1-5.8-1.2-6-2.8-12.2" stroke-width="16"/><path d="m428.5 245.5-1.7-1.5-1.5-.7-1.8-.5-2-.3h-1.7l-1.8.3-1.5.2-.7.3v.7l2.2 2.3 2.3 3.2 1 1.8.7 1.7.8 1.8.2 1.7v1.5l-.2 1.5-.5 1.3-1 1.2-1.8 1.3-1.5.7-1.5.3-1.2-.3-1-.5-1-.5-.8-.7-.5-.8m30.8 16.5v-2.5l-.3-2.5v-7l-.2-2.2-.5-2.3-1-2.2-.8-1.5-2.2-3.3-1.5-2-2.3-2.2-2.5-2.3-3-2.5" stroke-width="7"/><path d="m416 244-.2-.2-.8-.5-1.2-.8-.8-.2h-1.7l-1.3.2-2.2 1-2 1-.8.5-.7.8-.3.7v.8l.3.7.5.8 1.2 1.2.8 1.5 1.5 3 1.5 3 1.5 3 .7 1 .5 1.3.3 1.2v1l-.3 1.3-.5.7-1 .8-1.2.5-1.5.2h-2.8l-1-.5-1-.2-.7-.5-.8-.8-1.5-1.7-1.7-3.5-2.5-4.8v-.2" stroke-width="7"/><path d="m404.5 247.8-.5-.5-.7-.8-1.3-.5-1.2-.5h-.8l-.5.3-2.2.7-1.8 1.3-1.5 1.5-1 1.2m27 53-8-6.2-11.7-8.5-3.5-3-3-3-1.5-1.8-1.3-2-1-2-1-2.2-1.7-4.3-1.3-4.2-.7-3.3-.8-3.7-.2-2v-1.5l.2-1 .5-1 .5-1 1-1 1-.5 1.3-.5 1-.3h1.2l.8.3 1.5.7.7 1.3 2.3 3.7 1.2 1.8 1.8 2.2" stroke-width="7"/><path d="m398.8 259 .7 1.8.5 1.2.5 1.5v2.5l-.2 1-.3 1-.5 1-.7.8-.8.5-1 .5-1.2.2-.8.3-1-.3-1.7-.5-1.8-1-1.5-1.2-1.2-1.3-1-1.5-1.5-2.5m379 122.3 5.5 9.7 1.5 2.8 1.2 2.7.8 2.5.5 2.3v4.2l-.8 9.5-.5 5.5-.7 5.5-1.3 5-1.2 4.5-1 1.8-1.3 1.7-1.7 1.8-1.5 1.2-1 .8h-.5v-.3l1-3.5.7-3.5.8-6.7v-3.8l-.5-4.7-1-5.8" stroke-width="7"/><path d="m764.3 444.8-.5 1.2-.3.8-.7 1-1 .5-1.3.5-2 .5h-3l-.7-.3-.5-.5-.5-.5v-1.5l.5-3 .2-3v-4l-.5-5.5-1.2-14.2" stroke-width="7"/><path d="m754 447.5-.2.5-.3.8-.5 1-.7 1-.5.5-.5.2-2 .3h-2l-1.8-.5-1.2-.5" stroke-width="9.5"/><path d="m736 386-.5 2-1 3.8-1.2 3.5-2.3 5.5-1.7 4.5-.8 2.5-.5 2.2v2.5l.5 2.5 1 3.3 1.3 3.5 1.7 3.7 1.5 3.8 1.8 5 1.5 6 .7 4.7.5 3.5.3 1 .5 1 .5.5.5.5.5.3h1.5l.5-.3.5-.2.5-.5.5-.8.2-.7.3-2.3.5-2.2v-3.8l-.8-6.2-.2-3-.3-3.8-.5-2.5-.7-3-1-3.5-1.3-4" stroke-width="7"/><path d="m412 297 2.3.5 2.5.3h2.5l2.7-.3 2.5-.7 2.5-.8 2.8-1.2 2.2-1.3 2.3-1.5 2.2-1.7 1.8-1.8 1.7-2 1.3-2 1-2.2.7-2v-3.5" stroke-width="14"/><path d="m727.3 414.8.2.5.5 3 .5 3.2v3l-.2 3.3-.5 3-1 3-1.3 2.7-1.5 3 .8.5.7.5.8.3h.7l1.8-.3 1.5-.7 1.7-1 1.3-1.5 1.5-1.5 1-1.5.2-.5m-301.2-182.8-1-1.2-1.5-1.5-1.8-1.5-2-1.3-2.2-1.5-2.3-.7h-1.5l-.7.2-.3.5-1 2.8-.2 2.7v1.5l.2 1.5.5 1.5.8 1.3.5.7.7.5 1.3 1 1.2.5 2.5 1 1 .5.8.8.2.7-.2 1-1.3 4-.7 3.3-.3 3v2.2l.5 2 .5 1.8 1.8 3.5" stroke-width="7"/><path d="m557.5 434-3 2.3-5 3-6.5 3.7-7.5 4-18 9.3-19.7 10.2-19.5 10.3-9.3 5-8.5 4.7-7.2 4.3-6.3 4-4.5 3.2-1.7 1.5-1.3 1.3-2 3-2.2 4-2.5 4.7-2.8 5.5-5.7 12.5-6 14-5.8 14.5-5.5 14-4.5 12.5-3.2 9.8-2.8 8-2.7 7-2.5 6.5-2.3 5.2-3.5 7.8-1.2 2.7-1 2.5-.8 2.3-1 2-1 2-1.2 1.7-1.3 1.5-1.2 1.5-1.5 1.3-1.5 1-1.5 1-3 1.5-3.3 1-3.5.5-3.5.2-3.5-.2-3.5-.5-3.5-.5-6.5-2-11.2-3.5-4.5-1-3.5-.5h-2.8l-1 .2-1 .3-.5.5-.5.7-.5.5v2.5l.8 2.3 1.2 2.2 1.5 2.3 2 2.5 2.5 2.5 2.5 2.5 2.8 2.5 3 2.2 3 2 3.2 1.5 2.8 1.5 5.2 2 2.8.8 2.5 1.2 3 1.5 3 1.8 2 1.5 2.2 2 4.8 4.2 2.5 2 2.5 1.8 2.7 1.2 1.5.3 1.3.2 3 .3 2.5-.3 2.2-.7 2-1 1.8-1.3 1.5-1.5 1.5-2 1.2-2.5 2.5-5.5 2.5-6.7 3.3-7.8 2-4.2 2.2-4.5 1.3-2.5 2.7-4.5 3-4.3 3-4 3.5-3.7 3.5-3.5 3.8-3.8 8-7.2 8-7.8 4.2-4.2 4-4.8 4.3-5 4-5.5 3.7-6.2 3.8-6.8 1.2-2.5 1-2.7 1.8-5.8 1.7-6 1.8-6 1-2.7 1-2.8 1.2-2.5 1.5-2.2 1.8-2 2-1.8 2.5-1.2 2.7-1 5.3-1 5.5-.8 5.7-.5 6-.2 12-.5 5.8-.3 5.5-.2 10.2-1 9.5-1.5 4.8-.8 4.7-1 4.8-1.2 5-1.5 6.5-2.3 6.7-2.2 7.5-3 8-3.5 2-.8 9.8-4.2 9.7-4.3 9.5-4.5 8.8-4.7 8-4.5 7-4.3 6-4.2 2.2-2 2.3-2 2.2-2.5 2.3-2.8 1.7-2.5 1.5-2.7 1.3-2.8 1.2-2.7.8-3 .7-2.8.5-3 .3-3 .2-2.7-.2-3-.3-6.3-1-6.2m-293.7 201.5 20.5 14" stroke-width="14"/><path d="m666.8 485.8-.3 3-.2 3.2-1 7.8-1.8 8.5-1.7 9.5-4.8 20-4.2 19.7-2.3 10.3-1.5 8-.7 6.2v1.8l.7 2.2 1.3 3 1.5 3.5 9 17.5 2.5 5.3 2.5 5.7 2.2 5.8 2.3 6 2 6 1.5 6.2 1.2 6.3.8 6.5 3.2 23 .5 3.5.8 3 1.2 3.2 1.3 3 2.7 4.8 2.8 4.5 3 4.2 2.7 4.3 2.3 4.2.7 2 .8 2 .5 2 .2 2v2l-.2 2-.8 1.5-.7 1.5-1 1.3-1.3 1-1.5 1-1.5.5-3.5 1.2-3.5.8-3.5.7-3.2.8-1.3.2-1 .5-3.2 2-2.5 1.8-2.3 1.7-2 2-4.2 3.8-2.5 1.7-3 2-3 1.8-3.5 1.7-3.3 1.3-3.5 1.2-3.2 1-3.3.5-2.7.5h-2.8l-2-.5-1.7-.5-.5-.5-.5-.7-.3-.8-.2-.7.2-1 .3-1 1.2-2.5 2-2.8 3-3.5 3.8-4 4-4.2 4-4.8 2-2.5 1.7-2.7 1.5-2.5 1.5-3 1-2.8 1-3 .5-3 .5-3.2-.2-3-.5-3.3-.5-2-3.8-8.5-4.5-9.2-6.2-11.8-3.5-6.5-4-7-4.3-7-4.5-7-5-7-5-7-5.5-7-5.5-6.5-3.5-3.7-2.7-4.3-2.8-4-2.2-4.2-2-4.3-1.5-4-1.5-4-1.3-3.7-1.5-6.8-1-5.2-.5-3.5-.2-1.3-3-15-2.3-11.7-1.5-9.8m108.3 161.3-25 10.5m-152.5-428.3 5.5 15.5 5.5 14.8 6 14.7 3.2 7.3 2.8 5.7m-441 88.3 22.7 7.7m263-.2 28.8-1.8h.2m-222.7 276.8 32 10.2m66.7 9 2-.5 32-9.5" stroke-width="14"/></g></svg>