<svg height="850.394" viewBox="0 0 850.394 850.394" width="850.394" xmlns="http://www.w3.org/2000/svg"><g fill="#f73900"><path d="m391.47 141.81-28.86 368.87c-9.02-25.25-22.14-52.989-29.25-70.13-32.56-78.04-65.12-156.18-97.58-234.22l149.97-62.52 1.71-3.8z"/><path d="m387.46 140.01-1.71 3.8-149.97 62.52c-21.64-51.8-43.28-103.59-64.82-155.39l2.71-6.21z"/><path d="m333.36 440.55c7.11 17.141 20.23 44.88 29.25 70.13l-283.82-238.53 2.11-5.52 5.31 2.01 149.57-62.31c32.46 78.04 65.02 156.18 97.58 234.22z"/><path d="m235.78 206.33-149.57 62.31-5.31-2.01 85.75-225.01 7.02 3.11-2.71 6.21c21.54 51.8 43.18 103.59 64.82 155.39z"/></g><g fill="none"><g stroke="#000" stroke-width="17.815"><path d="m362.61 510.68 28.86-368.87-4.01-1.8-213.79-95.28-7.02-3.11-85.75 225.01-2.11 5.52z"/><path d="m86.21 268.64 149.57-62.31 149.97-62.52"/><path d="m170.96 50.94c21.54 51.8 43.18 103.59 64.82 155.39 32.46 78.04 65.02 156.18 97.58 234.22 7.11 17.141 20.23 44.88 29.25 70.13 5.31 14.82 9.22 28.851 9.82 39.37 4.31 77.24 65.12 97.48 117.72 97.48 114.399 0 189.64-137.05 266.779-81.65 59.311 42.58 31.761 154.38-51.79 258.98"/></g><path d="m0 0h850.394v850.394h-850.394z"/></g></svg>