<svg height="850" viewBox="0 0 850 850" width="850" xmlns="http://www.w3.org/2000/svg"><path d="m496.3 460.5h2.3l2 .5 1.7.8 1.3 1.2 1.7 2.5 1.8 3 1.2 3 1 3 .5 3 .5 3.3v6.7l-.2 3.5-.8 3.5-.7 3.5-1 3.5-1.3 3.5-1.2 3.5-3 7-1 1.3-2.3 3.5-3.5 4.5-2.2 2.5-2.3 2.2-2.5 2-2.5 1.8-2.5 1.2-1.2.5-1.3.3-1.2.2-1.3-.2-1.2-.3-1.3-.5-1.2-.7-1-1-1.3-1.3-1-1.5-.7-1-1-.7-1.3-.8-1.2-.2-1.5-.3h-1.5l-1.8.3-1.7.2-4 1.3-4.3 2-4.2 2.5-4.8 3-4.5 3.5-4.7 4-4.5 4.2-4.3 4.8-4 5-3.7 5.2-3.3 5.3-2.7 5.5-2.3 5.2-1.7 5-1.5 4.3-1.3 4-1.7 7.2-1.3 6.8-1.2 6.5-.8 3.2-1 3.5-1.2 4-1.5 4-2 4.3-2.3 5-2.7 5-3.3 4.7-3.7 4.8-4 4.5-4.3 4.5-4.7 4.2-4.8 4.3-4.7 4.2-10.3 7.8-10.5 7.2-19.5 13.5-4.7 3.3-4.8 3-10 5.7-9.7 5.8-4.5 3-4.5 3-4.3 3.5-4 3.5-3.5 4-3.2 4.2-1.3 2.5-1.2 2.3-1.3 2.5-1 2.7-1 2.8-.7 3-.5 3-.5 3.2-110.8-127.2 72-145.5 44.3-89.5 24.5-49.3 2.5-4.2 3-4.3 3.2-3.7 3.5-3.8 3.3-2.7 3.5-2.5 4-2.5 4.2-2.5 4.5-2.3 5-2 5.3-2.2 5.7-2 6.3-2 6.7-1.8 7-1.7 7.8-1.8 16.7-3.5 19-3.2 2.8-.5h15.2l9.3.5 5 .5 4.7.7 4.8 1 4.5 1 4.2 1.5 3.8 1.8 1.7 1 1.3 1 1.5 1.2 1 1.3.5 1.2 1.5 3.3 1.5 4.5.7 2.7.3 2.8.2 3-.2 2.7-.5 3-1 2.5-.8 1.3-1 1.2-1.2 1-1.3 1.3-1.2.7-1.8 1-1.7.5-2.3.8 4.3-.3 3.7-.2h4.8l4 .2 3.5.8 1.5.5 1.5.5 1.2.7 1.3 1 1.2 1.3 1.3 1.2 2 3.3 1.7 3.5 1.5 3.7 1.3 4.3.7 4.5.5 4.5v4.5l-.5 4.5-.7 4.2-1 4-1.8 3.5-1 1.8-1 1.5-1.2 1.2-1.3 1.3-1.5 1-1.5 1 4.8-.5 4.5-.5 4-.3h3.5l3 .3 2.5.5 2 .7.7.5.8.8 2.7 4 2.3 4.2 1.7 4 1 4 .8 4 .2 4-.2 4-.8 3.8-1 3.5-1.2 3.5-1.5 3-1.5 3-2 2.7-1.8 2.5-2 2-2 1.8z" fill="#ffeec8"/><path d="m399.1 298.3.7 4-19 3.2-16.7 3.5-7.8 1.8-7 1.7-6.7 1.8-6.3 2-5.7 2-5.3 2.2-5 2-4.5 2.3-4.2 2.5-4 2.5-3.5 2.5-3.3 2.7 4.3-5.2 4.5-6.3 5-7 5.2-8 5.3-8.5 5.2-9 4.8-9.7 4.7-10.3 3.3-8.2 3.5-8.8 1.7-4 2-4 2-3.7 2.3-3.3 2.7-2.7 1.3-1.3 1.5-1 1.5-.7 1.7-.8 1.5-.5 2-.2h1.8l2 .2 2.2.3 2 .7 2.5.8 2.3 1.2 2.7 1.5 2.5 1.5 2.8 2 2.2 2 2.3 2.3 1.7 2 1.8 2.2 1.5 2.5 1.2 2.3 1 2.5 1 2.2.8 2.5 1.2 5 .5 4.8.3 4.7-.3 4.5-.2 4.3-.8 4-.7 3.2-1.3 5z" fill="#ffeec8"/><g fill="none" stroke="#231f20" stroke-linecap="round" stroke-miterlimit="10"><path d="m459.3 346.3h4.8l4 .2 3.5.8 1.5.5 1.5.5 1.2.7 1.3 1 1.2 1.3 1.3 1.2 2 3.3 1.7 3.5 1.5 3.7 1.3 4.3.7 4.5.5 4.5v4.5l-.5 4.5-.7 4.2-1 4-1.8 3.5-1 1.8-1 1.5-1.2 1.2-1.3 1.3-1.5 1-1.5 1m-16.5-58.5-3.7.2-4.3.3-6.2.7-6.8 1-15.2 2.8-16.5 3.5-16.5 3.7-16 4-14.5 3.5-20.8 5.8" stroke-width="21"/><path d="m146.1 638.8 1.7-3.5 72-145.5 44.3-89.5 24.5-49.3 2.5-4.2 3-4.3 3.2-3.7 3.5-3.8 3.3-2.7 3.5-2.5 4-2.5 4.2-2.5 4.5-2.3 5-2 5.3-2.2 5.7-2 6.3-2 6.7-1.8 7-1.7 7.8-1.8 16.7-3.5 19-3.2 2.8-.5h15.2l9.3.5 5 .5 4.7.7 4.8 1 4.5 1 4.2 1.5 3.8 1.8 1.7 1 1.3 1 1.5 1.2 1 1.3.5 1.2 1.5 3.3 1.5 4.5.7 2.7.3 2.8.2 3-.2 2.7-.5 3-1 2.5-.8 1.3-1 1.2-1.2 1-1.3 1.3-1.2.7-1.8 1-1.7.5-2.3.8m-87.2 89 11.7-3.8 13-4.2 16-5 18-5.3 18.5-5.2 9.3-2.3 9-2 8.2-1.7 8-1.5 4.8-.5 4.5-.5 4-.3h3.5l3 .3 2.5.5 2 .7.7.5.8.8 2.7 4 2.3 4.2 1.7 4 1 4 .8 4 .2 4-.2 4-.8 3.8-1 3.5-1.2 3.5-1.5 3-1.5 3-2 2.7-1.8 2.5-2 2-2 1.8m-104.5 38 12.5-6 13.5-6.3 16.5-7 8.5-3.5 9-3.5 8.8-3.2 8.2-2.8 8-2.2 7.5-2 6.5-1 2.8-.3h5l2 .5 1.7.8 1.3 1.2 1.7 2.5 1.8 3 1.2 3 1 3 .5 3 .5 3.3v6.7l-.2 3.5-.8 3.5-.7 3.5-1 3.5-1.3 3.5-1.2 3.5-3 7-1 1.3-2.3 3.5-3.5 4.5-2.2 2.5-2.3 2.2-2.5 2-2.5 1.8-2.5 1.2-1.2.5-1.3.3-1.2.2-1.3-.2-1.2-.3-1.3-.5-1.2-.7-1-1-1.3-1.3-1-1.5-.7-1-1-.7-1.3-.8-1.2-.2-1.5-.3h-1.5l-1.8.3-1.7.2-4 1.3-4.3 2-4.2 2.5-4.8 3-4.5 3.5-4.7 4-4.5 4.2-4.3 4.8-4 5-3.7 5.2-3.3 5.3-2.7 5.5-2.3 5.2-1.7 5-1.5 4.3-1.3 4-1.7 7.2-1.3 6.8-1.2 6.5-.8 3.2-1 3.5-1.2 4-1.5 4-2 4.3-2.3 5-2.7 5-3.3 4.7-3.7 4.8-4 4.5-4.3 4.5-4.7 4.2-4.8 4.3-4.7 4.2-10.3 7.8-10.5 7.2-19.5 13.5-4.7 3.3-4.8 3-10 5.7-9.7 5.8-4.5 3-4.5 3-4.3 3.5-4 3.5-3.5 4-3.2 4.2-1.3 2.5-1.2 2.3-1.3 2.5-1 2.7-1 2.8-.7 3-.5 3-.5 3.2" stroke-width="21"/><path d="m399.1 298.3.7-2.3 1.3-5 .7-3.2.8-4 .2-4.3.3-4.5-.3-4.7-.5-4.8-1.2-5-.8-2.5-1-2.2-1-2.5-1.2-2.3-1.5-2.5-1.8-2.2-1.7-2-2.3-2.3-2.2-2-2.8-2-2.5-1.5-2.7-1.5-2.3-1.2-2.5-.8-2-.7-2.2-.3-2-.2h-1.8l-2 .2-1.5.5-1.7.8-1.5.7-1.5 1-1.3 1.3-2.7 2.7-2.3 3.3-2 3.7-2 4-1.7 4-3.5 8.8-3.3 8.2-4.7 10.3-4.8 9.7-5.2 9-5.3 8.5-5.2 8-5 7-4.5 6.3-4.3 5.2-6.5 7.8-2.5 2.7" stroke-width="21"/><path d="m271.1 208.5 1.2-3.5 1.8-3 2-2.7 2-2.8 2.5-2.5 2.7-2.2 2.8-1.8 3-1.7 3.2-1.5 3.3-1.5 3.2-1 3.3-.8 3.5-.5 3.2-.2h3.5l3.3.2m-57.3 5.8 1.5-3.3 1.5-3.2 2-2.8 2.3-2.7 2.5-2.5 2.5-2 3-2 3-1.8 3-1.5 3.2-1.2 3.3-1.3 3.5-.7 3.2-.5 3.5-.3h3.3l3.2.3m287.5 409.5-.7 3.5-1.3 3.2-1.7 3-1.8 3-2 2.8-2.2 2.5-2.8 2.5-2.7 2-2.8 2-3 1.7-3.2 1.5-3.3 1.3-3.2 1-3.3.7-3.2.5-3.3.3m55.8-13.8-.8 3.5-1.2 3.3-1.8 3.2-1.7 2.8-2 2.7-2.3 2.8-2.7 2.2-2.8 2.3-2.7 1.7-3 1.8-3.3 1.5-3.2 1.2-3.3 1-3.2.8-3.3.5-3.2.2" stroke-width="14"/><path d="m659.8 272.5-9.7 56-54.5-16.7" stroke-width="21"/><path d="m530.6 324 .5-4.5 1-4.7 1.5-4.3 1.7-4.5 2.3-4.2 2.5-4 2.7-4 3-3.5 3.5-3.5 3.5-3.3 3.8-2.7 4-2.5 4.2-2.3 4.3-1.7 4.5-1.3 4.5-1 5.7-.5h6l5.5.5 5.8 1.3 5.5 1.5 5.2 2.2 5 2.8 4.8 3.2 4.5 3.8 4 4.2 3.7 4.5 3.5 5.3 1.5 2.5 1.3 2.7 1.2 3 1.3 3 1 3 .7 3.3.8 3.2.7 3.3m61-247.3v696.3" stroke-width="21"/></g></svg>