<svg height="850.394" viewBox="0 0 850.394 850.394" width="850.394" xmlns="http://www.w3.org/2000/svg"><g fill="#fff"><path d="m717.11 160.56c3.399 8.79-.96 18.67-9.75 22.07l-78.9 30.51v-112.95l40.9-15.82c8.79-3.4 18.67.97 22.069 9.76z"/><path d="m628.46 213.14v561.26h-436.44v-693.8h436.44v19.59l-41.02 15.86a17.036 17.036 0 0 0 -13.671-6.85h-126.899c-9.43 0-17.07 7.64-17.07 17.06v71.22c0 9.43 7.641 17.07 17.07 17.07h118.47l1.58 4.09c3.4 8.79 13.28 13.16 22.07 9.76zm-36.62 513.4v-71.22c0-9.42-7.649-17.061-17.07-17.061h-126.91c-9.41 0-17.061 7.641-17.061 17.061v71.22c0 9.42 7.65 17.07 17.061 17.07h126.91c9.42 0 17.07-7.65 17.07-17.07zm0-132.72v-71.22c0-9.42-7.649-17.069-17.07-17.069h-126.91c-9.41 0-17.061 7.649-17.061 17.069v71.221c0 9.42 7.65 17.069 17.061 17.069h126.91c9.42 0 17.07-7.65 17.07-17.07zm0-132.44v-71.22c0-9.42-7.649-17.06-17.07-17.06h-126.91c-9.41 0-17.061 7.64-17.061 17.06v71.22c0 9.43 7.65 17.07 17.061 17.07h126.91c9.42 0 17.07-7.64 17.07-17.07zm0-131.43v-71.22c0-9.43-7.649-17.07-17.07-17.07h-126.91c-9.41 0-17.061 7.64-17.061 17.07v71.22c0 9.42 7.65 17.06 17.061 17.06h126.91c9.42 0 17.07-7.64 17.07-17.06zm-197.92 396.83v-71.23c0-9.42-7.64-17.06-17.06-17.06h-126.91c-9.42 0-17.06 7.64-17.06 17.06v71.23c0 9.41 7.64 17.06 17.06 17.06h126.91c9.42 0 17.06-7.65 17.06-17.06zm0-132.73v-71.22c0-9.42-7.64-17.061-17.06-17.061h-126.91c-9.42 0-17.06 7.641-17.06 17.061v71.22c0 9.42 7.64 17.07 17.06 17.07h126.91c9.42 0 17.06-7.65 17.06-17.07zm0-132.44v-71.21c0-9.43-7.64-17.07-17.06-17.07h-126.91c-9.42 0-17.06 7.64-17.06 17.07v71.21c0 9.43 7.64 17.069 17.06 17.069h126.91c9.42.001 17.06-7.639 17.06-17.069zm0-131.43v-71.22c0-9.42-7.64-17.06-17.06-17.06h-126.91c-9.42 0-17.06 7.64-17.06 17.06v71.22c0 9.42 7.64 17.07 17.06 17.07h126.91c9.42 0 17.06-7.65 17.06-17.07zm-1-132.46v-71.22c0-9.43-7.64-17.07-17.06-17.07h-126.91c-9.42 0-17.06 7.64-17.06 17.07v71.22c0 9.42 7.64 17.06 17.06 17.06h126.91c9.42 0 17.06-7.64 17.06-17.06z"/><path d="m628.46 100.19v112.95l-39.47 15.26c-8.79 3.4-18.67-.97-22.07-9.76l-1.58-4.09h8.43c9.421 0 17.061-7.64 17.061-17.07v-71.22c0-3.83-1.26-7.36-3.39-10.21zm-36.62 555.13v71.22c0 9.42-7.649 17.07-17.07 17.07h-126.91c-9.41 0-17.061-7.65-17.061-17.07v-71.22c0-9.42 7.65-17.061 17.061-17.061h126.91c9.42.001 17.07 7.641 17.07 17.061zm0-132.72v71.221c0 9.42-7.649 17.069-17.07 17.069h-126.91c-9.41 0-17.061-7.649-17.061-17.069v-71.221c0-9.42 7.65-17.069 17.061-17.069h126.91c9.42-.001 17.07 7.649 17.07 17.069zm0-132.44v71.22c0 9.43-7.649 17.07-17.07 17.07h-126.91c-9.41 0-17.061-7.641-17.061-17.07v-71.22c0-9.42 7.65-17.06 17.061-17.06h126.91c9.42 0 17.07 7.64 17.07 17.06zm0-131.43v71.22c0 9.42-7.649 17.06-17.07 17.06h-126.91c-9.41 0-17.061-7.64-17.061-17.06v-71.22c0-9.43 7.65-17.07 17.061-17.07h126.91c9.42 0 17.07 7.64 17.07 17.07z"/><path d="m590.83 126.26v71.22c0 9.43-7.64 17.07-17.061 17.07h-8.43l-24.1-62.33c-3.4-8.79.96-18.68 9.76-22.08l36.44-14.09a16.981 16.981 0 0 1 3.391 10.21z"/></g><path d="m587.44 116.05-36.44 14.09c-8.8 3.4-13.16 13.29-9.76 22.08l24.1 62.33h-118.47c-9.43 0-17.07-7.64-17.07-17.07v-71.22c0-9.42 7.641-17.06 17.07-17.06h126.9c5.59 0 10.56 2.69 13.67 6.85z" fill="#ffeec8"/><path d="m393.92 655.55v71.23c0 9.41-7.64 17.06-17.06 17.06h-126.91c-9.42 0-17.06-7.649-17.06-17.06v-71.23c0-9.42 7.64-17.06 17.06-17.06h126.91c9.42 0 17.06 7.64 17.06 17.06zm0-132.72v71.22c0 9.42-7.64 17.07-17.06 17.07h-126.91c-9.42 0-17.06-7.65-17.06-17.07v-71.22c0-9.42 7.64-17.061 17.06-17.061h126.91c9.42.001 17.06 7.641 17.06 17.061zm0-132.43v71.21c0 9.43-7.64 17.069-17.06 17.069h-126.91c-9.42 0-17.06-7.64-17.06-17.069v-71.21c0-9.43 7.64-17.07 17.06-17.07h126.91c9.42 0 17.06 7.64 17.06 17.07zm0-131.44v71.22c0 9.42-7.64 17.07-17.06 17.07h-126.91c-9.42 0-17.06-7.65-17.06-17.07v-71.22c0-9.42 7.64-17.06 17.06-17.06h126.91c9.42 0 17.06 7.64 17.06 17.06zm-1-132.46v71.22c0 9.42-7.64 17.06-17.06 17.06h-126.91c-9.42 0-17.06-7.64-17.06-17.06v-71.22c0-9.43 7.64-17.07 17.06-17.07h126.91c9.42 0 17.06 7.64 17.06 17.07z" fill="#fff"/><g fill="none" stroke="#000" stroke-width="19.544"><path d="m628.46 213.14v561.26h-436.44v-693.8h436.44v19.59"/><path d="m565.34 214.55h-118.47c-9.43 0-17.07-7.64-17.07-17.07v-71.22c0-9.42 7.641-17.06 17.07-17.06h126.9c5.591 0 10.561 2.69 13.671 6.85"/><path d="m628.46 100.19 40.9-15.82c8.79-3.4 18.67.97 22.069 9.76l25.681 66.43c3.399 8.79-.96 18.67-9.75 22.07l-78.9 30.51-39.47 15.26c-8.79 3.4-18.67-.97-22.07-9.76l-1.58-4.09-24.1-62.33c-3.4-8.79.96-18.68 9.76-22.08l36.44-14.09zm-36.62 229.76c0 9.42-7.649 17.06-17.07 17.06h-126.91c-9.41 0-17.061-7.64-17.061-17.06v-71.22c0-9.43 7.65-17.07 17.061-17.07h126.91c9.421 0 17.07 7.64 17.07 17.07zm0 131.43c0 9.43-7.649 17.07-17.07 17.07h-126.91c-9.41 0-17.061-7.641-17.061-17.07v-71.22c0-9.42 7.65-17.06 17.061-17.06h126.91c9.421 0 17.07 7.64 17.07 17.06zm0 132.44c0 9.42-7.649 17.069-17.07 17.069h-126.91c-9.41 0-17.061-7.649-17.061-17.069v-71.22c0-9.42 7.65-17.069 17.061-17.069h126.91c9.421 0 17.07 7.649 17.07 17.069zm0 132.72c0 9.42-7.649 17.07-17.07 17.07h-126.91c-9.41 0-17.061-7.65-17.061-17.07v-71.22c0-9.42 7.65-17.061 17.061-17.061h126.91c9.421 0 17.07 7.641 17.07 17.061zm-198.92-528.82c0 9.42-7.64 17.06-17.06 17.06h-126.91c-9.42 0-17.06-7.64-17.06-17.06v-71.22c0-9.43 7.64-17.07 17.06-17.07h126.91c9.42 0 17.06 7.64 17.06 17.07zm1 263.89c0 9.43-7.64 17.069-17.06 17.069h-126.91c-9.42 0-17.06-7.64-17.06-17.069v-71.21c0-9.43 7.64-17.07 17.06-17.07h126.91c9.42 0 17.06 7.64 17.06 17.07zm0-131.43c0 9.42-7.64 17.07-17.06 17.07h-126.91c-9.42 0-17.06-7.65-17.06-17.07v-71.22c0-9.42 7.64-17.06 17.06-17.06h126.91c9.42 0 17.06 7.64 17.06 17.06zm0 263.87c0 9.42-7.64 17.07-17.06 17.07h-126.91c-9.42 0-17.06-7.65-17.06-17.07v-71.22c0-9.42 7.64-17.061 17.06-17.061h126.91c9.42 0 17.06 7.641 17.06 17.061zm0 132.73c0 9.41-7.64 17.06-17.06 17.06h-126.91c-9.42 0-17.06-7.649-17.06-17.06v-71.23c0-9.42 7.64-17.06 17.06-17.06h126.91c9.42 0 17.06 7.64 17.06 17.06z"/></g><path d="m0 0h850.394v850.394h-850.394z" fill="none"/></svg>