<svg height="850.394" viewBox="0 0 850.394 850.394" width="850.394" xmlns="http://www.w3.org/2000/svg"><g fill="#c8c8c8"><path d="m512.58 95.26.02-.31c17.08 5.57 41.21 16.39 50.37 21.58 14.561 8.27 25.19 54.71 25.19 54.71l38.149 248.08-61.659 7.291.029.29-2.12 62.47h-128.139v-178.671s.03-3.24-.33-9.35l53.641-86.8-10.181-36.88 30.29 7.22z"/><path d="m292.4 489.37h-1.23l-2.11-62.22.06-.551-61.72-7.28 38.17-248.08s10.61-46.44 25.18-54.71c9.16-5.19 32.11-14.98 49.26-20.47l10.53 95.6 30.3-7.21-10.75 29.88 61.16 91.62 3.17 4.75v178.67h-142.02zm125.09-96.04a8.31 8.31 0 0 0 -8.31-8.31c-4.59 0-8.31 3.72-8.31 8.31s3.72 8.32 8.31 8.32 8.31-3.73 8.31-8.32zm-.09-65.13c0-4.59-3.73-8.31-8.32-8.31s-8.31 3.72-8.31 8.31c0 4.6 3.72 8.32 8.31 8.32s8.32-3.72 8.32-8.32zm-38.14 78.51v-26.44h-65.78v26.44z"/><path d="m434.42 489.37h125.35l60.06 286.38h-195.56v.05h-191.94l60.07-286.43h123.75z"/></g><path d="m474.85 83.13 37.73 12.13-4.74 89.63-30.29-7.22 10.181 36.88-53.641 86.8c-.28-4.68-.78-11.04-1.72-18.92-.04-.36-.08-.72-.13-1.08v-.01c8.25-17.32 19.91-47.02 27.12-70.74 16.98-55.9 11.49-128.76 11.49-128.76z" fill="#787878"/><path d="m432.24 281.34v.01c.05.36.09.72.13 1.08l-1.54.18c-11.18-11.18-26.68-61.73-32.88-82.13-16.97-55.89-19.19-117.28-19.19-117.28l1.37-.67s45.83-21.14 94.72.6l-4-1.29s5.49 72.86-11.489 128.76c-7.211 23.72-18.871 53.42-27.121 70.74z" fill="#787878"/><path d="m434.09 301.35-2.84 4.6-61.16-91.62 10.75-29.88-30.3 7.21-10.53-95.6 38.75-12.86s2.22 61.39 19.19 117.28c6.2 20.4 21.7 70.95 32.88 82.13l1.54-.18c.94 7.88 1.44 14.24 1.72 18.92zm-24.91 83.67c4.59 0 8.31 3.72 8.31 8.31s-3.72 8.32-8.31 8.32-8.31-3.73-8.31-8.32 3.72-8.31 8.31-8.31zm-.1-65.13c4.59 0 8.32 3.72 8.32 8.31 0 4.6-3.73 8.32-8.32 8.32s-8.31-3.72-8.31-8.32a8.31 8.31 0 0 1 8.31-8.31zm-95.6 60.38h65.78v26.44h-65.78z" fill="#787878"/><g fill="none" stroke="#000"><g stroke-width="21.105"><path d="m522.22 247.13 30.891 180.84 11.54-1.359 61.659-7.291-38.15-248.08s-10.63-46.44-25.19-54.71c-9.16-5.19-33.29-16.01-50.37-21.58l-.02.31-4.74 89.63-30.29-7.22 10.181 36.88-53.641 86.8-2.84 4.6-1.25 2.02m7.57 181.4h124.99l2.12-62.47"/><path d="m514.19 95.78-1.61-.52-37.73-12.13-4-1.29s5.49 72.86-11.489 128.76c-7.21 23.72-18.87 53.42-27.12 70.74m-100.731-34.21-30.9 180.83-11.49-1.36-61.72-7.28 38.17-248.08s10.61-46.44 25.18-54.71c9.16-5.19 32.11-14.98 49.26-20.47l10.53 95.6 30.3-7.21-10.75 29.88 61.16 91.62 3.17 4.75v178.12"/><path d="m437.57 489.37h-146.4l-2.11-62.22"/></g><path d="m417.4 328.2c0 4.6-3.73 8.32-8.32 8.32s-8.31-3.72-8.31-8.32c0-4.59 3.72-8.31 8.31-8.31s8.32 3.72 8.32 8.31zm.09 65.13c0 4.59-3.72 8.32-8.31 8.32s-8.31-3.73-8.31-8.32 3.72-8.31 8.31-8.31a8.31 8.31 0 0 1 8.31 8.31z" stroke-width="7.035"/><path d="m430.3 267.31c.79 5.08 1.431 9.77 1.94 14.03v.01c.05.36.09.72.13 1.08.939 7.88 1.439 14.24 1.72 18.92.36 6.11.33 9.35.33 9.35m-94.41-214.64 38.75-12.86s2.22 61.39 19.19 117.28c6.2 20.4 21.7 70.95 32.88 82.13m-117.35 97.66h65.78v26.44h-65.78zm66.65-297.74s45.83-21.14 94.72.6c.4.17.801.36 1.2.54m82.59 400.32 1.13 5.38 60.06 286.38h-195.56" stroke-width="21.105"/><path d="m427.9 775.8h-195.57l60.07-286.43 1.18-5.61" stroke-width="21.105"/></g><path d="m0 0h850.394v850.394h-850.394z" fill="none"/></svg>