<svg height="850.394" viewBox="0 0 850.394 850.394" width="850.394" xmlns="http://www.w3.org/2000/svg"><path d="m85.604 557.297h139.847v139.84h-139.847zm260.347 0h139.847v139.84h-139.847z" fill="none" stroke="#231f20" stroke-width="19.588"/><path d="m598.698 557.297h139.846v139.84h-139.846z" fill="none"/><g fill="#5668af"><circle cx="738.544" cy="662.177" r="14.292"/><circle cx="738.544" cy="627.217" r="14.292"/><circle cx="738.544" cy="592.256" r="14.292"/><circle cx="703.582" cy="557.297" r="14.292"/><circle cx="668.621" cy="557.297" r="14.292"/><circle cx="633.659" cy="557.297" r="14.292"/><circle cx="598.698" cy="592.257" r="14.292"/><circle cx="598.698" cy="627.217" r="14.292"/><circle cx="598.698" cy="662.178" r="14.292"/><circle cx="633.66" cy="697.137" r="14.292"/><circle cx="668.621" cy="697.137" r="14.292"/><circle cx="703.583" cy="697.137" r="14.292"/><circle cx="738.543" cy="557.297" r="14.292"/><circle cx="598.698" cy="557.297" r="14.292"/><circle cx="598.699" cy="697.137" r="14.292"/><circle cx="738.544" cy="697.137" r="14.292"/></g><path d="m668.621 150.573v315.236" fill="#fff" stroke="#231f20" stroke-width="28"/><path d="m576.425 362.744 92.541 105.067 92.502-105.236" fill="none" stroke="#231f20" stroke-width="28"/><path d="m0 0h850.394v850.394h-850.394z" fill="none"/></svg>