<svg height="850.394" viewBox="0 0 850.394 850.394" width="850.394" xmlns="http://www.w3.org/2000/svg"><g fill="#abda4d"><path d="m426 629.49h-229.12c-12.29 0-22.27-7.16-22.27-16.021l-76.61-331.469.01-1.94 653.99 1.88v.06l-74.77 331.44c0 8.859-9.961 16.02-22.25 16.02zm244.56-169.99v-16.8c0-7.17-5.81-13-12.989-13h-36.66c-7.18 0-12.99 5.83-12.99 13v16.8c0 7.17 5.811 12.99 12.99 12.99h36.66c7.179 0 12.989-5.82 12.989-12.99zm0-99.01v-16.8c0-7.17-5.81-13-12.989-13h-36.66c-7.18 0-12.99 5.83-12.99 13v16.8c0 7.17 5.811 12.99 12.99 12.99h36.66c7.179 0 12.989-5.82 12.989-12.99zm-106.8 199.54v-16.8c0-7.171-5.819-12.99-12.99-12.99h-36.67c-7.17 0-12.989 5.819-12.989 12.99v16.8c0 7.17 5.819 13 12.989 13h36.67c7.17 0 12.99-5.83 12.99-13zm0-100.22v-16.81c0-7.17-5.819-12.99-12.99-12.99h-36.67c-7.17 0-12.989 5.82-12.989 12.99v16.81c0 7.171 5.819 12.99 12.989 12.99h36.67c7.17 0 12.99-5.82 12.99-12.99zm0-99.01v-16.81c0-7.17-5.819-12.99-12.99-12.99h-36.67c-7.17 0-12.989 5.82-12.989 12.99v16.81c0 7.17 5.819 12.99 12.989 12.99h36.67c7.17 0 12.99-5.82 12.99-12.99zm-107.03 199.46v-16.8c0-7.17-5.82-12.99-12.99-12.99h-36.67c-7.17 0-12.99 5.82-12.99 12.99v16.8c0 7.17 5.82 12.99 12.99 12.99h36.67c7.17 0 12.99-5.82 12.99-12.99zm0-100.22v-16.81c0-7.171-5.82-12.99-12.99-12.99h-36.67c-7.17 0-12.99 5.819-12.99 12.99v16.81c0 7.17 5.82 12.99 12.99 12.99h36.67c7.17 0 12.99-5.82 12.99-12.99zm0-99.01v-16.81c0-7.17-5.82-12.99-12.99-12.99h-36.67c-7.17 0-12.99 5.82-12.99 12.99v16.81c0 7.17 5.82 12.99 12.99 12.99h36.67c7.17 0 12.99-5.82 12.99-12.99zm-105.43 198.93v-16.81c0-7.17-5.82-12.99-12.99-12.99h-36.67c-7.17 0-12.99 5.82-12.99 12.99v16.81c0 7.16 5.82 12.99 12.99 12.99h36.67c7.17 0 12.99-5.83 12.99-12.99zm0-100.23v-16.81c0-7.16-5.82-12.99-12.99-12.99h-36.67c-7.17 0-12.99 5.83-12.99 12.99v16.811c0 7.17 5.82 12.989 12.99 12.989h36.67c7.17 0 12.99-5.82 12.99-12.99zm0-99.01v-16.8c0-7.17-5.82-13-12.99-13h-36.67c-7.17 0-12.99 5.83-12.99 13v16.8c0 7.17 5.82 12.99 12.99 12.99h36.67c7.17 0 12.99-5.82 12.99-12.99zm-106.8 99.32v-16.81c0-7.171-5.82-12.99-13-12.99h-36.66c-7.18 0-12.99 5.819-12.99 12.99v16.81c0 7.17 5.81 12.99 12.99 12.99h36.66c7.18 0 13-5.82 13-12.99zm0-99.01v-16.81c0-7.17-5.82-12.99-13-12.99h-36.66c-7.18 0-12.99 5.82-12.99 12.99v16.81c0 7.17 5.81 12.99 12.99 12.99h36.66c7.18 0 13-5.82 13-12.99z"/><path d="m772 282-20-.06-653.99-1.88-20.01-.06-2.5-1.11 9.17-20.69c3.46-9.38 12.06-18.04 23.54-18.04h317.19l-.14-.07h317.17c11.49 0 20.09 8.65 23.551 18.03l9.829 22.19z"/></g><g fill="none"><g stroke="#231f20" stroke-width="21"><path d="m98 282 76.61 331.47c0 8.86 9.98 16.021 22.27 16.021h229.12l228.98-.03c12.289 0 22.25-7.16 22.25-16.02l74.77-331.441"/><path d="m244.5 361.03c0 7.17-5.82 12.99-13 12.99h-36.66c-7.18 0-12.99-5.82-12.99-12.99v-16.81c0-7.17 5.81-12.99 12.99-12.99h36.66c7.18 0 13 5.82 13 12.99zm106.8-.31c0 7.17-5.82 12.99-12.99 12.99h-36.67c-7.17 0-12.99-5.82-12.99-12.99v-16.8c0-7.17 5.82-13 12.99-13h36.67c7.17 0 12.99 5.83 12.99 13zm212.46.08c0 7.17-5.819 12.99-12.99 12.99h-36.67c-7.17 0-12.989-5.82-12.989-12.99v-16.81c0-7.17 5.819-12.99 12.989-12.99h36.67c7.171 0 12.99 5.82 12.99 12.99zm106.8-.31c0 7.17-5.81 12.99-12.989 12.99h-36.66c-7.18 0-12.99-5.82-12.99-12.99v-16.8c0-7.17 5.811-13 12.99-13h36.66c7.18 0 12.989 5.83 12.989 13zm-213.83.54c0 7.17-5.82 12.99-12.99 12.99h-36.67c-7.17 0-12.99-5.82-12.99-12.99v-16.81c0-7.17 5.82-12.99 12.99-12.99h36.67c7.17 0 12.99 5.82 12.99 12.99zm-212.23 99.01c0 7.17-5.82 12.99-13 12.99h-36.66c-7.18 0-12.99-5.82-12.99-12.99v-16.81c0-7.171 5.81-12.99 12.99-12.99h36.66c7.18 0 13 5.819 13 12.99zm106.8-.31c0 7.17-5.82 12.989-12.99 12.989h-36.67c-7.17 0-12.99-5.819-12.99-12.989v-16.81c0-7.16 5.82-12.99 12.99-12.99h36.67c7.17 0 12.99 5.83 12.99 12.99zm212.46.08c0 7.171-5.819 12.99-12.99 12.99h-36.67c-7.17 0-12.989-5.819-12.989-12.99v-16.81c0-7.17 5.819-12.99 12.989-12.99h36.67c7.171 0 12.99 5.82 12.99 12.99zm106.8-.31c0 7.17-5.81 12.99-12.989 12.99h-36.66c-7.18 0-12.99-5.82-12.99-12.99v-16.8c0-7.17 5.811-13 12.99-13h36.66c7.18 0 12.989 5.83 12.989 13zm-213.83.54c0 7.17-5.82 12.99-12.99 12.99h-36.67c-7.17 0-12.99-5.82-12.99-12.99v-16.81c0-7.171 5.82-12.99 12.99-12.99h36.67c7.17 0 12.99 5.819 12.99 12.99zm-105.43 99.92c0 7.16-5.82 12.99-12.99 12.99h-36.67c-7.17 0-12.99-5.83-12.99-12.99v-16.81c0-7.17 5.82-12.99 12.99-12.99h36.67c7.17 0 12.99 5.82 12.99 12.99zm212.46.07c0 7.17-5.819 13-12.99 13h-36.67c-7.17 0-12.989-5.83-12.989-13v-16.8c0-7.171 5.819-12.99 12.989-12.99h36.67c7.171 0 12.99 5.819 12.99 12.99zm-107.03.23c0 7.17-5.82 12.99-12.99 12.99h-36.67c-7.17 0-12.99-5.82-12.99-12.99v-16.8c0-7.17 5.82-12.99 12.99-12.99h36.67c7.17 0 12.99 5.82 12.99 12.99z"/><g stroke-linecap="round" stroke-linejoin="round"><path d="m776.67 282.26-.86-1.95-9.829-22.19c-3.461-9.38-12.061-18.03-23.551-18.03h-317.17l.14.07h-317.19c-11.48 0-20.08 8.66-23.54 18.04l-9.17 20.69-1.52 3.44"/><path d="m78 280 20.01.06 653.99 1.88 20 .06"/></g></g><path d="m0 0h850.394v850.394h-850.394z"/></g></svg>