<svg height="850.394" viewBox="0 0 850.394 850.394" width="850.394" xmlns="http://www.w3.org/2000/svg"><g fill="#00e800"><path d="m754.8 280.53v.01c-.71 1.65-62.27 145.28-116.479 239.06-42.011 72.66-138.391 34.87-138.391 34.87l-419.14-154.76c-4.32-25.2-6.95-38.01 27-71.96l174.41-148.53s45-30.38 113.64-19.13c68.601 11.25 308.04 75.32 308.311 75.39 12.479 3.34 25.31 12.41 34.27 21.37 6.979 6.98 12.649 14.69 16.379 23.68zm-188.13 227.04 126.79-215.27-356.99-100.97-188.15 177.16z"/><path d="m600.65 627.19c-7.351 1.67-15.96 1.949-25.9-.141-38.99-8.21-384.94-133.39-445.54-155.37-5.85-2.12-9.04-3.279-9.04-3.279s-33.74-26.841-37.13-54.01c-.68-5.4-1.49-10.23-2.25-14.68l419.14 154.76s96.38 37.79 138.391-34.87c54.21-93.78 115.77-237.41 116.479-239.06 6.04 14.57 6.95 32.49.01 56.08-5.239 17.81-16.18 37.1-23.909 54.13-9.841 21.7-19.67 43.41-29.511 65.11-19 41.909-38 83.83-57 125.739-2.949 6.49-5.6 13.24-8.88 19.57-.02.031-10.63 20.541-34.86 26.021z"/><path d="m693.46 292.3-126.79 215.27-418.35-139.08 188.15-177.16z"/></g><path d="m574.75 627.05c9.94 2.09 18.55 1.811 25.9.141-.62.989-20.53 32.75-37.15 49.369-28.13 28.131-99.02 0-99.02 0s-279.61-106.33-298.18-124.89c-18.39-18.4-36.76-78.91-37.09-79.99 60.6 21.98 406.55 147.16 445.54 155.37z" fill="#abda4d"/><g fill="none" stroke="#231f20"><path d="m754.8 280.54c6.04 14.57 6.95 32.49.01 56.08-5.239 17.81-16.18 37.1-23.909 54.13-9.841 21.7-19.67 43.41-29.511 65.11-19 41.909-38 83.83-57 125.739-2.949 6.49-5.6 13.24-8.88 19.57-.02.03-10.63 20.54-34.859 26.021-7.351 1.67-15.96 1.949-25.9-.141-38.99-8.21-384.94-133.39-445.54-155.37-5.85-2.12-9.04-3.279-9.04-3.279s-33.74-26.841-37.13-54.01c-.68-5.4-1.49-10.23-2.25-14.68-4.32-25.2-6.95-38.01 27-71.96l174.409-148.53s45-30.38 113.64-19.13c68.601 11.25 308.04 75.32 308.311 75.39 12.479 3.34 25.31 12.41 34.27 21.37 6.98 6.98 12.65 14.69 16.38 23.68" stroke-width="21"/><path d="m80.79 399.71 419.14 154.76s96.38 37.79 138.391-34.87c54.21-93.78 115.77-237.41 116.479-239.06v-.01" stroke-width="21"/><path d="m148.32 368.49 188.15-177.16 356.99 100.97-126.79 215.27z" stroke-width="14"/><path d="m129.21 471.67v.01c.33 1.08 18.7 61.59 37.09 79.99 18.57 18.56 298.18 124.89 298.18 124.89s70.89 28.131 99.02 0c16.62-16.619 36.53-48.38 37.15-49.369.01-.011.01-.021.01-.021" stroke-width="21"/><path d="m722.96 602.62-50.26 9.73 21.56 46.35m-21.56-46.35 113.83 62.08" stroke-width="20.254"/></g><path d="m0 0h850.394v850.394h-850.394z" fill="none"/></svg>