<svg height="850.394" viewBox="0 0 850.394 850.394" width="850.394" xmlns="http://www.w3.org/2000/svg"><path d="m240.31 106.68v671.11l-27.73-1.17-6.56-15.57v-685.21h534.97l-2.97 700.45-30.95 1.5v-671.11h-235.19zm-78.39 331.6v67.62h-69.24v-67.62h3.78z" fill="#f6cc4b"/><path d="m161.92 371.74v66.54h-69.24v-66.54z" fill="#f6cc4b"/><path d="m471.88 770.96v.27h-231.57v-664.55h231.57zm235.19-664.28v664.55h-235.19v-664.55z" fill="#c8c8c8"/><g fill="none"><g stroke="#231f20"><path d="m198 776 14.58.62 27.73 1.17v-671.11h466.76v671.11l30.95-1.5 5.98-.29" stroke-width="14"/><path d="m237.78 771.23h468.88" stroke-width="25.965"/><path d="m206.02 773.26v-697.42h534.97l-2.97 700.45-.02 3.71" stroke-width="21"/><path d="m471.88 106.68v664.28m-309.96-332.68v67.62h-69.24v-134.16h69.24z" stroke-width="14"/><path d="m127.02 448.6v44.31m12.97-14.48-13.01 14.77-13.01-14.8m13.32-48.77v-44.31m-12.96 14.49 13.01-14.77 13.01 14.79" stroke-width="6.491"/><path d="m96.46 438.28h65.46" stroke-width="14"/></g><path d="m0 0h850.394v850.394h-850.394z"/></g></svg>