<svg height="850.394" viewBox="0 0 850.394 850.394" width="850.394" xmlns="http://www.w3.org/2000/svg"><g fill="#faa41f"><path d="m351.01 688.1 150.42-19.369c-.81 8.89-1.479 16.92-2.02 23.72-.22 2.81-.48 5.5-.771 8.069l-143.359 18.46c-1.75-7.33-3.1-16.091-3.92-26.521-.11-1.399-.23-2.849-.35-4.359z"/><path d="m347.91 653.7 157.07-20.23a2003.271 2003.271 0 0 0 -3.551 35.261l-150.419 19.369c-.79-9.72-1.83-21.49-3.1-34.4zm119.16 99.73-8.86 24.641h-34.02v.01h-33.19l-8.93-24.87c12.62 1.9 38.29 2.07 42.95 2.09h.73c4.46-.021 28.23-.181 41.32-1.871z"/><path d="m467.07 753.43c-13.09 1.69-36.86 1.851-41.32 1.87h-.73c-4.66-.02-30.33-.189-42.95-2.09h-.01c-.45-.07-.88-.14-1.29-.21-10.11-1.76-19.88-10.55-25.49-34.02l143.36-18.461c-4.319 37.551-16.22 50.32-28.63 52.48-.9.161-1.88.301-2.94.431zm42-153.94c-1.521 11.45-2.88 22.93-4.09 33.979l-157.07 20.231a1933.16 1933.16 0 0 0 -3.56-33.01z"/></g><path d="m619.93 269.2c0 71.5-23.069 88.22-47.87 138.39 0 0-28.52 51.54-45.55 102.641-7.1 21.279-12.92 55.14-17.439 89.26l-164.72 21.2c-4.79-40.7-11.52-84.75-20.09-110.46-17.03-51.101-45.55-102.641-45.55-102.641-24.79-50.17-47.86-66.89-47.86-138.39s35.17-135.51 81.3-168.96c56.67-41.08 169.8-41.08 226.47 0 46.129 33.45 81.309 97.46 81.309 168.96z" fill="#fff"/><g fill="none" stroke="#231f20" stroke-width="21"><path d="m382.06 753.21c-.45-.07-.88-.14-1.29-.21-10.11-1.76-19.88-10.55-25.49-34.02-1.75-7.33-3.1-16.091-3.92-26.521-.11-1.4-.23-2.85-.35-4.36-.79-9.72-1.83-21.489-3.1-34.399a1933.16 1933.16 0 0 0 -3.56-33.01c-4.79-40.7-11.52-84.75-20.09-110.46-17.03-51.101-45.55-102.641-45.55-102.641-24.79-50.17-47.86-66.89-47.86-138.39s35.17-135.51 81.3-168.96c56.67-41.08 169.8-41.08 226.47 0 46.13 33.45 81.31 97.46 81.31 168.96s-23.069 88.22-47.87 138.39c0 0-28.52 51.54-45.55 102.641-7.1 21.279-12.92 55.14-17.439 89.26-1.521 11.45-2.88 22.93-4.09 33.979a2003.271 2003.271 0 0 0 -3.551 35.261c-.81 8.89-1.479 16.92-2.02 23.72-.22 2.81-.48 5.5-.771 8.069-4.319 37.551-16.22 50.32-28.63 52.48-.899.16-1.88.3-2.939.43-13.09 1.69-36.86 1.851-41.32 1.87h-.73c-4.66-.02-30.33-.189-42.95-2.09"/><path d="m339.68 720.99 15.6-2.01 143.36-18.46 11.15-1.44m-170.1-9.52 11.32-1.46 150.42-19.37 8.37-1.08m-174.15-12.37 12.26-1.58 157.07-20.23 11.73-1.51m-181.05-10.15 8.69-1.12 164.72-21.2 7.65-.99" stroke-linecap="round" stroke-linejoin="round"/><path d="m381.78 752.42.28.79h.01l8.93 24.87h34.02"/><path d="m467.44 752.41-.37 1.02-8.86 24.64h-34.02"/></g><path d="m0 0h850.394v850.394h-850.394z" fill="none"/></svg>