<svg height="850.394" viewBox="0 0 850.394 850.394" width="850.394" xmlns="http://www.w3.org/2000/svg"><path d="m423.18 227.1c138.14 0 250.129 75.48 250.129 168.6s-111.989 168.6-250.129 168.6c-138.15 0-250.14-75.479-250.14-168.6s111.99-168.6 250.14-168.6z" fill="#fff5b4"/><path d="m423.92 622.89c99.47 0 188.84-29.14 250.32-75.449-28.14 76.549-130.39 133.239-252.24 133.239-123.46 0-226.82-58.22-253.32-136.29l.36-.46c61.58 48.34 152.93 78.96 254.88 78.96z" fill="#a8d7f4"/><path d="m674.24 547.44c-61.48 46.31-150.851 75.449-250.32 75.449-101.95 0-193.3-30.62-254.88-78.96-50.45-39.6-80.94-91.09-80.94-147.39 0-125.01 150.35-226.35 335.82-226.35s335.82 101.34 335.82 226.35c0 57.971-32.33 110.851-85.5 150.901zm-.93-151.74c0-93.12-111.989-168.6-250.129-168.6-138.15 0-250.14 75.48-250.14 168.6s111.99 168.6 250.14 168.6c138.139 0 250.129-75.48 250.129-168.6z" fill="#a8d7f4"/><g fill="none"><g stroke="#231f20" stroke-width="20.385"><path d="m673.31 395.7c0 93.12-111.989 168.6-250.129 168.6-138.15 0-250.14-75.479-250.14-168.6s111.99-168.6 250.14-168.6c138.139 0 250.129 75.48 250.129 168.6z"/><path d="m169.04 543.93c-50.45-39.6-80.94-91.09-80.94-147.39 0-125.01 150.35-226.35 335.82-226.35s335.82 101.34 335.82 226.35c0 57.97-32.33 110.85-85.5 150.9-61.48 46.31-150.851 75.449-250.32 75.449-101.95.001-193.3-30.619-254.88-78.959z"/><path d="m674.52 546.66c-.09.26-.189.52-.279.78-28.141 76.55-130.391 133.24-252.241 133.24-123.46 0-226.82-58.22-253.32-136.29"/></g><path d="m0 0h850.394v850.394h-850.394z"/></g></svg>