<svg height="850.394" viewBox="0 0 850.394 850.394" width="850.394" xmlns="http://www.w3.org/2000/svg"><path d="m450.51 340.53v448.56h-48.5v-447.98c7.35 1.2 14.89 1.82 22.58 1.82 8.86 0 17.52-.83 25.92-2.4z" fill="#fff"/><path d="m564.3 203.22c0 68.3-49.01 125.15-113.79 137.31-8.399 1.57-17.06 2.4-25.92 2.4-7.69 0-15.23-.62-22.58-1.82h-.01c-66.41-10.8-117.12-68.42-117.12-137.89 0-77.16 62.55-139.71 139.71-139.71s139.71 62.55 139.71 139.71z" fill="#f73900"/><g fill="none"><g stroke="#000" stroke-width="20.783"><path d="m450.51 340.53v448.56h-48.5v-447.98"/><path d="m450.51 340.53c-8.399 1.57-17.06 2.4-25.92 2.4-7.69 0-15.23-.62-22.58-1.82h-.01"/><path d="m402 341.11c-66.41-10.8-117.12-68.42-117.12-137.89 0-77.16 62.55-139.71 139.71-139.71s139.71 62.55 139.71 139.71c0 68.3-49.01 125.15-113.79 137.31"/></g><path d="m0 0h850.394v850.394h-850.394z"/></g></svg>