<svg height="850.394" viewBox="0 0 850.394 850.394" width="850.394" xmlns="http://www.w3.org/2000/svg"><path d="m110.06 588.96c8.93.51 20.34 1.05 34.04 1.46l-.1 3.58c2.79 28.89 14 42.77 28.52 42.77 0 0-24.4 2.15-44.49-1.119-17.74-2.881-18.03-45.651-18.03-45.651z" fill="#787878"/><path d="m144 594 .1-3.58c14.36.44 31.25.74 50.48.74h6.69v.54c-3.72 26.08-15.19 45.069-28.75 45.069-14.52.001-25.73-13.879-28.52-42.769z" fill="#787878"/><path d="m144.1 590.42c-13.7-.41-25.11-.95-34.04-1.46-15.3-.89-23.37-1.69-23.37-1.69v-40.59h3.34l50.05 1.11v-31.14h93.42v32.25l91.76.56s22.7-3.9 13.85-33c13.1-.54 36.33-2.54 38.24-10.03l-.24 3.2-4.58 60.4-21.8 7.8c-.05 1.979-.11 3.8-.16 5.42-.15 4.87-.29 7.91-.29 7.91h-155.7c-19.23 0-36.12-.3-50.48-.74z" fill="#33a02c"/><path d="m321.08 356.49c-3.4 10.91-9.55 16.68-23.07 16.68-27.8 0-205.11 9.7-205.11 9.7l-4.85-1.14c10-42.37 37.57-101.98 37.57-101.98s25.33-2.49 58.95-5.78c40.48-3.96 92.97-9.08 127.76-12.4v.01s21.27.37 15.71 43.75c-2.86 22.3-3.36 39.61-6.96 51.16z" fill="#fff"/><path d="m409.12 356.49h-88.04c3.6-11.55 4.1-28.86 6.96-51.16 5.56-43.38-15.71-43.75-15.71-43.75v-.01c5.49-.52 10.53-1 15.02-1.42 9.48-.89 16.48-1.53 19.89-1.81.19-.01.36-.03.53-.04 21.18-1.69 43.67 13.66 50.34 20.34 4.79 4.79 9.02 51.8 11.01 77.85z" fill="#fff"/><path d="m421.24 543.35c8.97.141 16.04 14.57 15.8 32.24-.25 17.68-7.72 31.92-16.69 31.79-8.96-.13-16.04-14.56-15.79-32.24.24-17.67 7.71-31.92 16.68-31.79zm206.85-22.66c7.771.109 13.9 12.609 13.68 27.92-.21 15.31-6.68 27.64-14.439 27.52-7.771-.11-13.9-12.6-13.68-27.91.209-15.31 6.679-27.65 14.439-27.53zm71.13 5.15c6.75.101 12.07 10.96 11.88 24.25-.189 13.29-5.8 24-12.55 23.9-6.74-.09-12.06-10.94-11.87-24.24.18-13.29 5.79-24 12.54-23.91z" fill="#33a02c"/><path d="m327.25 259.93c.03.07.07.15.1.22-4.49.42-9.53.9-15.02 1.42-34.79 3.32-87.28 8.44-127.76 12.4l15.57-44.27 96.76-5.56s20.73 14.36 30.35 35.79z" fill="#abda4d"/><path d="m347.24 258.34 94.25-7.51 28.91 112.33 1.68 10.5h-61.74s-.44-6.98-1.22-17.17c-1.99-26.05-6.22-73.06-11.01-77.85-6.67-6.68-29.16-22.03-50.34-20.34-.17.01-.34.03-.53.04z" fill="#787878"/><path d="m628.34 457.7h97.87s0 23.03-1.19 44.28c-.92 16.359-2.539 31.659-5.409 34.609-2.49-20.609-11.351-35.85-21.891-35.85h-54.9l-1.91.41c-4.15-5.91-9.15-9.37-14.54-9.37h-32.49l-4.5-.83c8.57-15.739 21.03-29.499 38.96-33.249z" fill="#abda4d"/><path d="m457.43 492.03 24.101-5.41v-28.92h146.81c-17.93 3.75-30.39 17.51-38.96 33.25-14.29 26.24-17.77 57.95-17.77 57.95l-117.891 7.79-5.42.68c-3.35-27.26-15.09-47.39-29.06-47.39h-37.51l-4.62-.351.24-3.2.74-9.8s4.37-43.88 36.02-46.63c3.11-.26 6.48-.13 10.14.47 19.16 3.171 28.86 23.271 33.18 41.561z" fill="#abda4d"/><g fill="#787878"><path d="m626.37 601.58s-21.14 1.87-38.54-.96c-15.35-2.5-16.22-51.72-16.22-51.72s3.479-31.71 17.77-57.95l4.5.83h32.49c-14.37 0-26.01 24.58-26.01 54.899 0 30.331 11.64 54.901 26.01 54.901zm93.24-64.99c.46 3.78.699 7.75.699 11.83 0 26.33-10.119 47.67-22.59 47.67-12.47 0-22.58-21.34-22.58-47.67 0-26.34 10.11-47.68 22.58-47.68 10.541 0 19.401 15.24 21.891 35.85zm-8.51 13.5c.19-13.29-5.13-24.149-11.88-24.25-6.75-.09-12.359 10.62-12.54 23.91-.189 13.3 5.13 24.15 11.87 24.24 6.75.1 12.36-10.61 12.55-23.9z"/><path d="m697.72 500.74c-12.47 0-22.58 21.34-22.58 47.68 0 26.33 10.11 47.67 22.58 47.67 0 0-18.35 1.62-33.46-.84-8.39-1.37-12.18-16.57-13.83-27.66 1.261-6.439 1.95-13.51 1.95-20.91 0-18.949-4.55-35.66-11.47-45.529l1.91-.41h54.9z"/><path d="m626.37 491.78c5.39 0 10.39 3.46 14.54 9.37 6.92 9.869 11.47 26.58 11.47 45.529 0 7.4-.689 14.471-1.95 20.91-3.899 19.95-13.21 33.99-24.06 33.99-14.37 0-26.01-24.57-26.01-54.9 0-30.319 11.64-54.899 26.01-54.899zm15.4 56.83c.221-15.311-5.909-27.811-13.68-27.92-7.76-.12-14.229 12.22-14.439 27.529-.221 15.311 5.909 27.8 13.68 27.91 7.759.121 14.229-12.209 14.439-27.519zm-222.53-38.63c13.97 0 25.71 20.13 29.06 47.39.63 5.11.97 10.47.97 16 0 35.02-13.439 63.399-30.029 63.399-16.58 0-30.03-28.38-30.03-63.399-.001-35.01 13.449-63.39 30.029-63.39zm17.8 65.61c.24-17.67-6.83-32.1-15.8-32.24-8.97-.13-16.44 14.12-16.68 31.79-.25 17.681 6.83 32.11 15.79 32.24 8.97.13 16.44-14.11 16.69-31.79z"/><path d="m419.24 509.98c-16.58 0-30.03 28.38-30.03 63.39 0 35.02 13.45 63.399 30.03 63.399 0 0-24.4 2.15-44.49-1.119-17.73-2.881-20.02-52.271-20.02-52.271l-4.16-.13c.05-1.62.11-3.44.16-5.42l21.8-7.8 4.58-60.4 4.62.351z"/></g><path d="m140.08 516.65v31.14l-50.05-1.11h-3.34v-30.03zm199.03-.19c8.85 29.1-13.85 33-13.85 33l-91.76-.56v-32.25h96.76s3.62.02 8.85-.19z" fill="#f73900"/><path d="m342.5 495.52.46 4.62-9.36.931h-239.12s-1.63-9.271-3.58-22.82l251.6-6.76zm0-47.83v23.8l-251.6 6.76c-1.01-7-2.1-15.14-3.09-23.73z" fill="#787878"/><path d="m342.5 422.11v25.581l-254.69 6.829h-.01c-.85-7.409-1.63-15.149-2.22-22.779l223.55-9.63h33.37z" fill="#787878"/><path d="m413.97 446.85.14 3.15c-31.65 2.75-36.02 46.63-36.02 46.63l-35.13 3.51-.46-4.62v-73.41h-33.37l-223.55 9.63c-.68-8.77-1.11-17.39-1.11-25.2 0-6.86 1.36-15.41 3.58-24.81l4.85 1.14s177.31-9.7 205.11-9.7c13.52 0 19.67-5.77 23.07-16.68h88.04c.78 10.19 1.22 17.17 1.22 17.17z" fill="#33a02c"/><path d="m413.97 446.85-3.63-73.189h61.74l2.77 17.31 295.841 18.91-3.33 47.82h-285.831v28.92l-24.101 5.41c-4.319-18.29-14.02-38.391-33.18-41.561-3.66-.6-7.03-.729-10.14-.47z" fill="#33a02c"/><g fill="none" stroke="#231f20"><g stroke-width="21"><path d="m87.81 454.52c.99 8.591 2.08 16.73 3.09 23.73 1.95 13.55 3.58 22.82 3.58 22.82h239.12l9.36-.931 35.13-3.51s4.37-43.88 36.02-46.63c3.11-.26 6.48-.13 10.14.47 19.16 3.17 28.86 23.271 33.18 41.561 2.141 9.029 2.96 17.62 2.96 23.51m11.69-141.88h-61.74s-.44-6.98-1.22-17.17c-1.99-26.05-6.22-73.06-11.01-77.85-6.67-6.68-29.16-22.03-50.34-20.34-.17.01-.34.03-.53.04-3.41.28-10.41.92-19.89 1.81-4.49.42-9.53.9-15.02 1.42-34.79 3.32-87.28 8.44-127.76 12.4-33.62 3.29-58.95 5.78-58.95 5.78s-27.57 59.61-37.57 101.98c-2.22 9.4-3.58 17.95-3.58 24.81 0 7.81.43 16.43 1.11 25.2.59 7.63 1.37 15.37 2.22 22.779"/><path d="m312.33 261.58s21.27.37 15.71 43.75c-2.86 22.3-3.36 39.61-6.96 51.16-3.4 10.91-9.55 16.68-23.07 16.68-27.8 0-205.11 9.7-205.11 9.7"/><path d="m457.43 492.03 24.1-5.41v-28.92h285.83l3.33-47.82-295.84-18.91-2.77-17.31-1.68-10.5-28.91-112.33-94.25 7.51-19.99 1.59-11.44.91m61.66 244.87c-.02.25-.06.49-.12.72-1.91 7.49-25.14 9.49-38.24 10.03-5.23.21-8.85.19-8.85.19h-243.57v70.619s8.07.801 23.37 1.69c8.93.51 20.34 1.05 34.04 1.46 14.36.44 31.25.74 50.48.74h155.7s.14-3.04.29-7.91c.05-1.62.11-3.44.16-5.42l21.8-7.8 4.58-60.4.24-3.2.74-9.8"/></g><path d="m437.04 575.59c-.25 17.68-7.72 31.92-16.69 31.79-8.96-.13-16.04-14.56-15.79-32.24.24-17.67 7.71-31.92 16.68-31.79 8.97.14 16.04 14.57 15.8 32.24z" stroke-width="7"/><path d="m448.3 557.37c.63 5.11.97 10.47.97 16 0 35.02-13.439 63.399-30.029 63.399-16.58 0-30.03-28.38-30.03-63.399 0-35.01 13.45-63.39 30.03-63.39 13.969 0 25.709 20.13 29.059 47.39zm-29.06-47.39h-37.51" stroke-width="21"/><path d="m354.73 583.38s2.29 49.39 20.02 52.271c20.09 3.27 44.49 1.119 44.49 1.119m-217.97-45.07c-3.72 26.08-15.19 45.069-28.75 45.069-14.52 0-25.73-13.88-28.52-42.77" stroke-width="21"/><path d="m110 590s.29 42.77 18.03 45.65c20.09 3.27 44.49 1.119 44.49 1.119" stroke-width="21"/><path d="m641.77 548.61c-.21 15.31-6.68 27.64-14.439 27.52-7.771-.11-13.9-12.6-13.68-27.91.21-15.31 6.68-27.649 14.439-27.529 7.77.109 13.9 12.609 13.68 27.919z" stroke-width="7"/><path d="m640.91 501.15c6.92 9.869 11.47 26.58 11.47 45.529 0 7.4-.689 14.471-1.95 20.91-3.899 19.95-13.21 33.99-24.06 33.99-14.37 0-26.01-24.57-26.01-54.9 0-30.319 11.64-54.899 26.01-54.899 5.39 0 10.39 3.46 14.54 9.37zm-14.54-9.37h-32.49" stroke-width="21"/><path d="m571.61 548.9s.87 49.22 16.22 51.72c17.4 2.83 38.54.96 38.54.96" stroke-width="21"/><path d="m711.1 550.09c-.189 13.29-5.8 24-12.55 23.9-6.74-.09-12.06-10.94-11.87-24.24.181-13.29 5.79-24 12.54-23.91 6.75.1 12.07 10.96 11.88 24.25z" stroke-width="7"/><path d="m719.61 536.59c.46 3.78.699 7.75.699 11.83 0 26.33-10.119 47.67-22.59 47.67-12.47 0-22.58-21.34-22.58-47.67 0-26.34 10.11-47.68 22.58-47.68 10.541 0 19.401 15.24 21.891 35.85zm-21.89-35.85h-54.9" stroke-width="21"/><path d="m649.21 555.95s.24 5.1 1.22 11.64c1.65 11.09 5.44 26.29 13.83 27.66 15.11 2.46 33.46.84 33.46.84m-244-39.4 117.891-7.79s3.479-31.71 17.77-57.95c8.57-15.74 21.03-29.5 38.96-33.25m97.869 0s0 23.03-1.19 44.28c-.92 16.359-2.539 31.659-5.409 34.609l-.03.03m5.439-34.639h32.33m-572.78-228.01 15.57-44.27 96.76-5.56s20.73 14.36 30.35 35.79c.03.07.07.15.1.22m-6.31 96.34h88.08m-319.09 190.19 50.05 1.11v-31.14m93.42 5.56v26.69l91.76.56s22.7-3.9 13.85-33m-253.53-84.72 223.55-9.63h33.37v73.41" stroke-width="21"/><path d="m87.8 454.52h.01l254.69-6.83m-254.7 30.64 3.1-.08 251.6-6.76m67.84-97.83 3.63 73.19" stroke-width="21"/></g><path d="m0 0h850.394v850.394h-850.394z" fill="none"/></svg>