<svg height="850.394" viewBox="0 0 850.394 850.394" width="850.394" xmlns="http://www.w3.org/2000/svg"><path d="m441.877 484.375h80.74v80.73h-80.74z" fill="#efdcef"/><path d="m441.877 484.375h80.74v80.73h-80.74z" fill="none" stroke="#231f20" stroke-width="14"/><path d="m0 0h850.394v850.394h-850.394z" fill="none"/><path d="m583.71 572.5h80.74v80.73h-80.74z" fill="#efdcef"/><path d="m583.71 572.5h80.74v80.73h-80.74z" fill="none" stroke="#231f20" stroke-width="14"/><path d="m463.71 640.5h80.74v80.73h-80.74z" fill="#efdcef"/><path d="m463.71 640.5h80.74v80.73h-80.74z" fill="none" stroke="#231f20" stroke-width="14"/><ellipse cx="527.112" cy="591.926" fill="none" rx="223.912" ry="186.594" stroke="#231f20" stroke-width="7"/><path d="m442.896 253.044-30.009 89.86-85.38-41.239" fill="none" stroke="#000" stroke-linecap="round" stroke-linejoin="round" stroke-width="14"/><path d="m290.551 234.041c5.94-1.362 12-2.086 18.086-2.086 52.39 0 98.14 42.811 98.14 103.93" fill="none" stroke="#000" stroke-linecap="round" stroke-linejoin="round" stroke-width="14"/><path d="m119.101 284h91.321v89.5h-91.321z" fill="none"/><g fill="#5668af"><circle cx="210.422" cy="313.833" r="14.292"/><circle cx="210.422" cy="343.667" r="14.292"/><circle cx="179.981" cy="373.5" r="14.292"/><circle cx="149.541" cy="373.5" r="14.292"/><circle cx="119.101" cy="343.667" r="14.292"/><circle cx="119.101" cy="313.833" r="14.292"/><circle cx="149.542" cy="284" r="14.292"/><circle cx="179.982" cy="284" r="14.292"/><circle cx="210.422" cy="373.5" r="14.292"/><circle cx="119.101" cy="373.5" r="14.292"/><circle cx="119.102" cy="284" r="14.292"/><circle cx="210.422" cy="284" r="14.292"/></g><path d="m0 0h850.394v850.394h-850.394z" fill="none"/><path d="m148.102 117h91.32v89.5h-91.32z" fill="none"/><circle cx="239.422" cy="146.834" fill="#5668af" r="14.292"/><circle cx="239.422" cy="176.667" fill="#5668af" r="14.292"/><circle cx="208.981" cy="206.5" fill="#5668af" r="14.292"/><circle cx="178.541" cy="206.5" fill="#5668af" r="14.292"/><circle cx="148.102" cy="176.666" fill="#5668af" r="14.292"/><circle cx="148.102" cy="146.833" fill="#5668af" r="14.292"/><circle cx="178.542" cy="117" fill="#5668af" r="14.292"/><circle cx="208.982" cy="117" fill="#5668af" r="14.292"/><circle cx="239.422" cy="206.5" fill="#5668af" r="14.292"/><circle cx="148.102" cy="206.5" fill="#5668af" r="14.292"/><circle cx="148.102" cy="117" fill="#5668af" r="14.292"/><circle cx="239.422" cy="117" fill="#5668af" r="14.292"/><path d="m294.102 85h91.32v89.5h-91.32z" fill="none"/><circle cx="385.422" cy="114.834" fill="#5668af" r="14.292"/><circle cx="385.422" cy="144.667" fill="#5668af" r="14.292"/><circle cx="354.981" cy="174.5" fill="#5668af" r="14.292"/><circle cx="324.541" cy="174.5" fill="#5668af" r="14.292"/><circle cx="294.102" cy="144.666" fill="#5668af" r="14.292"/><circle cx="294.102" cy="114.833" fill="#5668af" r="14.292"/><circle cx="324.542" cy="85" fill="#5668af" r="14.292"/><circle cx="354.982" cy="85" fill="#5668af" r="14.292"/><circle cx="385.422" cy="174.5" fill="#5668af" r="14.292"/><circle cx="294.102" cy="174.5" fill="#5668af" r="14.292"/><circle cx="294.102" cy="85" fill="#5668af" r="14.292"/><circle cx="385.422" cy="85" fill="#5668af" r="14.292"/></svg>