<svg height="850.394" viewBox="0 0 850.394 850.394" width="850.394" xmlns="http://www.w3.org/2000/svg"><path d="m90.76 455.21c311.55-327.06 501.34-233.18 621.24-191.21l3.95-1.15c16.91 22.42 37.55 59.4 43.59 111.33 8.979 77.25-4.3 136.33-36.5 178.2-32.2 41.86-92.32 91.24-184.63 111.64-100.13 22.12-201.81 4.29-256.56-16.109-54.75-20.391-141.7-70.84-174.98-140.62-8.74-18.321-13.75-35.801-16.11-52.081zm574.32-75.66c0 17.49 12.5 31.66 27.91 31.66s27.899-14.17 27.899-31.66-12.489-31.67-27.899-31.67-27.91 14.18-27.91 31.67z" fill="#6ebe44"/><path d="m712 264c-119.9-41.97-309.69-135.85-621.24 191.21-6.66-45.7 7.49-81.88 18.26-100.35 15.03-25.76 35.43-47.23 35.43-47.23s142.43-145.35 309.15-147.07c104.131-1.07 198.591 40.79 238.311 76.22 0 0 10.89 8.63 24.04 26.07z" fill="#fbee34"/><path d="m720.89 379.55c0 17.49-12.489 31.66-27.899 31.66s-27.91-14.17-27.91-31.66 12.5-31.67 27.91-31.67 27.899 14.18 27.899 31.67z" fill="#9e5c26"/><g fill="none"><g stroke="#231f20" stroke-width="21"><path d="m720.89 379.55c0 17.49-12.489 31.66-27.899 31.66s-27.91-14.17-27.91-31.66 12.5-31.67 27.91-31.67 27.899 14.18 27.899 31.67z"/><path d="m90.76 455.21c-6.66-45.7 7.49-81.88 18.26-100.35 15.03-25.76 35.43-47.23 35.43-47.23s142.43-145.35 309.15-147.07c104.131-1.07 198.591 40.79 238.311 76.22 0 0 10.89 8.63 24.04 26.07 16.91 22.42 37.55 59.4 43.59 111.33 8.979 77.25-4.3 136.33-36.5 178.2-32.2 41.86-92.32 91.24-184.63 111.64-100.13 22.12-201.81 4.29-256.56-16.109-54.75-20.391-141.7-70.84-174.98-140.62-8.741-18.321-13.751-35.801-16.111-52.081z"/><path d="m686.55 413.9c.54 17.38-2.22 33.4-8.92 49.541-4.46 10.779-9.34 21.31-21.14 35.26m63.33-99.831c23.62 6.44 41.859 35.42 39.72 53.67m-56.89-110.56c0-17.29-12.141-42.52-32.21-47.24" stroke-linecap="round" stroke-linejoin="round"/></g><path d="m0 0h850.394v850.394h-850.394z"/></g></svg>