<svg height="850.394" viewBox="0 0 850.394 850.394" width="850.394" xmlns="http://www.w3.org/2000/svg"><path d="m553.73 663.5c8.51 10.11 13.26 21.38 13.26 33.26 0 23.96-19.33 45.45-49.891 60-25.319 12.061-58.369 19.36-94.51 19.36-79.75 0-144.4-35.53-144.4-79.36 0-10.979 4.05-21.439 11.39-30.95 21.94-28.449 73.23-48.409 133.01-48.409 58.131-.001 108.251 18.879 131.141 46.099zm-100.94-287.91v26.56s-.46 16.27-29.25 16.94c-30.18-.17-30.66-16.97-30.66-16.97v-26.42c.43 1.09.96 1.98 1.61 2.63 0 0 8.78 11.9 28.35 11.9v.02c19.561 0 28.34-11.9 28.34-11.9.67-.67 1.2-1.61 1.61-2.76z" fill="#c8c8c8"/><path d="m452.79 375.59c-.41 1.15-.94 2.09-1.61 2.76 0 0-8.779 11.9-28.34 11.9v-.02c-19.57 0-28.35-11.9-28.35-11.9-.65-.65-1.18-1.54-1.61-2.63-4.43-11.18 1.61-43.11 1.61-43.11 0-28.18-16.66-39.66-25.64-90.76-8.35-47.53 8.76-131.99 8.76-131.99 0-19.39 19.56-35.11 43.7-35.11s43.709 15.72 43.709 35.11c0 0 18.16 84.88 9.801 132.4-8.99 51.1-25.641 62.58-25.641 90.76.001 0 7.631 31.35 3.611 42.59z" fill="#ff001c"/><g fill="none"><g stroke="#231f20" stroke-width="21"><path d="m553.73 663.5c8.51 10.11 13.26 21.38 13.26 33.26 0 23.96-19.33 45.45-49.891 60-25.319 12.061-58.369 19.36-94.51 19.36-79.75 0-144.4-35.53-144.4-79.36 0-10.979 4.05-21.439 11.39-30.95 21.94-28.449 73.23-48.409 133.01-48.409 58.131-.001 108.251 18.879 131.141 46.099z"/><path d="m318.7 641.66 24.11 24.1-19.75 19.76m34.57-43.86 24.11 24.1-19.76 19.76m32.01-43.86 24.11 24.1-19.75 19.76m30.73-43.86 24.1 24.1-19.75 19.76m33.72-44.11 24.11 24.1-19.76 19.75m32.56-43.93 24.11 24.1-19.76 19.76m13.61 28.29-24.1 24.1 19.18 19.18.57.57m-34.58-43.85-24.1 24.1 19.75 19.75m-32.01-43.85-24.1 24.1 19.75 19.75m-30.73-43.85-24.11 24.1 19.76 19.75m-33.72-44.11-24.11 24.11 19.75 19.75m-32.55-43.93-24.11 24.1 19.75 19.75m86.47-333.24s-.24.14-.68.39c-7.73 4.45-78.63 45.38-89.37 56.12-11.35 11.36-47.86 43.811-47.86 80.311 0 27.36 3.94 74.61 8.71 105.229 1.59 10.23 3.28 18.61 4.94 23.761m129.47-264.531s78.689 45.15 90.04 56.51c11.359 11.36 47.87 43.811 47.87 80.311 0 26.319-3.65 71.02-8.17 101.64-1.75 11.86-3.631 21.6-5.48 27.35" stroke-linecap="round" stroke-linejoin="round"/><path d="m392.88 375.53v26.59s.48 16.8 30.66 16.97h.45"/><path d="m422.84 390.25c19.561 0 28.34-11.9 28.34-11.9.67-.67 1.2-1.61 1.61-2.76 4.02-11.24-3.61-42.59-3.61-42.59 0-28.18 16.65-39.66 25.641-90.76 8.359-47.52-9.801-132.4-9.801-132.4 0-19.39-19.569-35.11-43.709-35.11s-43.7 15.72-43.7 35.11c0 0-17.11 84.46-8.76 131.99 8.98 51.1 25.64 62.58 25.64 90.76 0 0-6.04 31.93-1.61 43.11.43 1.09.96 1.98 1.61 2.63 0 0 8.78 11.9 28.35 11.9"/><path d="m452.79 375.55v26.6s-.46 16.27-29.25 16.94c-.61.01-1.23.02-1.86.02"/></g><path d="m0 0h850.394v850.394h-850.394z"/></g></svg>