<svg height="850.394" viewBox="0 0 850.394 850.394" width="850.394" xmlns="http://www.w3.org/2000/svg"><path d="m368 368.249h113.386v113.386h-113.386z" fill="none"/><g fill="#cb82b7"><path d="m315.65 582.4 2.33 21.5-37.68 5.83-16.21-86.141-8.37-44.47s-2.79-11.73-2.79-20c0-51.67 22.03-73.6 22.03-73.6 14.91 9.65 20.27 39.99 20.27 39.99z"/><path d="m267.58 382.73c2.69.34 5.14 1.33 7.38 2.79 0 0-22.03 21.93-22.03 73.6 0 8.27 2.79 20 2.79 20l8.37 44.47h-.01l-7.08 108.03h-124.12l-9.06-108.03 8.37-44.47s2.78-11.73 2.78-20c0-51.67-22.02-73.6-22.02-73.6 2.24-1.46 4.7-2.44 7.39-2.79 3.48-.45 12.74-2.85 22.53-5.69l5.21.81c-.08.81-.12 1.62-.12 2.41 0 22.54 20.72 47.19 46.29 47.19 25.56 0 46.27-24.65 46.27-47.19 0-.94-.03-1.89-.1-2.83l.49-1.65c11.21 3.37 22.7 6.44 26.67 6.95z"/><path d="m240.91 375.78-.49 1.65c.07.94.1 1.89.1 2.83 0 22.54-20.71 47.19-46.27 47.19-25.57 0-46.29-24.65-46.29-47.19 0-.79.04-1.6.12-2.41l-5.21-.81c7.6-2.22 15.52-4.71 21.29-6.76-1.92 3.56-2.98 7.52-2.98 11.69 0 15.49 14.97 32.57 33.07 32.57s32.48-17.08 32.48-32.57c0-4.2-1.08-8.18-3.01-11.75 4.74 1.68 10.92 3.67 17.19 5.56z"/><path d="m223.72 370.22c1.93 3.57 3.01 7.55 3.01 11.75 0 15.49-14.38 32.57-32.48 32.57s-33.07-17.08-33.07-32.57c0-4.17 1.06-8.13 2.98-11.69 5.17-9.66 16.57-16.37 29.79-16.37 13.2 0 24.58 6.68 29.77 16.31zm-88.75 88.9c0 8.27-2.78 20-2.78 20l-8.37 44.47-16.21 86.141-37.69-5.83 2.34-21.5 20.42-156.891s5.36-30.32 20.27-39.99c0 0 22.02 21.93 22.02 73.6zm272.03 23.77c0 7.181-2.42 17.351-2.42 17.351l-7.25 38.56-14.06 74.69-32.68-5.05 2.02-18.641 17.71-136.05s4.65-26.31 17.58-34.68c0 0 19.1 19.02 19.1 63.82zm76.95-77.09c1.68 3.1 2.609 6.55 2.609 10.19 0 13.43-12.46 28.24-28.159 28.24-15.69 0-28.67-14.811-28.67-28.24 0-3.62.93-7.06 2.59-10.15 4.489-8.37 14.359-14.18 25.83-14.18 11.44 0 21.3 5.79 25.8 14.14z"/><path d="m498.86 410.63-.431 1.43c.07.81.101 1.63.101 2.45 0 19.54-17.96 40.92-40.13 40.92s-40.141-21.38-40.141-40.92c0-.69.04-1.39.11-2.09l-5.93-.3c7.01-2.01 14.52-4.36 19.88-6.28-1.66 3.09-2.59 6.53-2.59 10.15 0 13.43 12.979 28.24 28.67 28.24 15.699 0 28.159-14.811 28.159-28.24 0-3.64-.93-7.09-2.609-10.19 4.101 1.47 9.471 3.19 14.911 4.83zm64.81 179.17 2.03 18.641-32.681 5.05-14.06-74.69-7.25-38.56s-2.42-10.17-2.42-17.351c0-44.8 19.09-63.82 19.09-63.82v-.01c12.94 8.37 17.59 34.69 17.59 34.69z"/><path d="m528.38 419.06v.01s-19.09 19.02-19.09 63.82c0 7.181 2.42 17.351 2.42 17.351l7.25 38.56-6.14 93.681h-107.63l-7.86-93.681 7.25-38.56s2.42-10.17 2.42-17.351c0-44.8-19.1-63.82-19.1-63.82 1.94-1.27 4.07-2.12 6.4-2.42 2.85-.37 10.18-2.24 18.14-4.53l5.93.3c-.07.7-.11 1.4-.11 2.09 0 19.54 17.971 40.92 40.141 40.92s40.13-21.38 40.13-40.92c0-.82-.03-1.64-.101-2.45l.431-1.43c9.72 2.92 19.689 5.58 23.13 6.02 2.319.3 4.449 1.15 6.389 2.41zm181.32 21.93c1.43 2.64 2.229 5.58 2.229 8.68 0 11.44-10.62 24.05-23.979 24.05-13.36 0-24.41-12.609-24.41-24.05 0-3.08.79-6.01 2.21-8.64 3.81-7.12 12.22-12.07 21.99-12.07 9.74 0 18.13 4.93 21.96 12.03zm-65.51 65.64c0 6.12-2.07 14.771-2.07 14.771l-6.18 32.84-11.96 63.59-27.82-4.3 1.72-15.87 15.07-115.84s3.96-22.4 14.97-29.53c0-.001 16.27 16.199 16.27 54.339zm133.39 91.03 1.729 15.87-27.819 4.3-11.971-63.59-6.18-32.84s-2.06-8.65-2.06-14.771c0-38.14 16.26-54.34 16.26-54.34l.01-.01c11.01 7.149 14.96 29.54 14.96 29.54z"/><path d="m722.4 445.1c8.279 2.49 16.76 4.75 19.689 5.131 1.99.25 3.8.979 5.46 2.05l-.01.01s-16.26 16.2-16.26 54.34c0 6.12 2.06 14.771 2.06 14.771l6.18 32.84-5.239 79.758h-91.63l-6.7-79.76h-.01l6.18-32.84s2.07-8.65 2.07-14.771c0-38.14-16.271-54.34-16.271-54.34 1.65-1.08 3.47-1.81 5.45-2.06 2.43-.311 8.67-1.91 15.439-3.86l5.051.26c-.061.601-.08 1.2-.08 1.78 0 16.64 15.29 34.84 34.17 34.84s34.17-18.2 34.17-34.84c0-.7-.03-1.391-.08-2.09z"/></g><g fill="none"><g stroke="#231f20"><path d="m223.72 370.22c1.93 3.57 3.01 7.55 3.01 11.75 0 15.49-14.38 32.57-32.48 32.57s-33.07-17.08-33.07-32.57c0-4.17 1.06-8.13 2.98-11.69 5.17-9.66 16.57-16.37 29.79-16.37 13.2 0 24.58 6.68 29.77 16.31z" stroke-width="14"/><path d="m240.42 377.43c.07.94.1 1.89.1 2.83 0 22.54-20.71 47.19-46.27 47.19-25.57 0-46.29-24.65-46.29-47.19 0-.79.04-1.6.12-2.41" stroke-width="7"/><path d="m112.95 385.52s22.02 21.93 22.02 73.6c0 8.27-2.78 20-2.78 20l-8.37 44.47-16.21 86.141-37.69-5.83 2.34-21.5 20.42-156.891s5.36-30.32 20.27-39.99c2.24-1.46 4.7-2.44 7.39-2.79 3.48-.45 12.74-2.85 22.53-5.69 7.6-2.22 15.52-4.71 21.29-6.76.01-.01.01-.01.02-.01m110.78 15.25s-22.03 21.93-22.03 73.6c0 8.27 2.79 20 2.79 20l8.37 44.47 16.21 86.141 37.68-5.83-2.33-21.5-20.42-156.891s-5.36-30.34-20.27-39.99c-2.24-1.46-4.69-2.45-7.38-2.79-3.97-.51-15.46-3.58-26.67-6.95-6.27-1.89-12.45-3.88-17.19-5.56-.01-.01-.01-.01-.02-.01" stroke-width="14"/><path d="m264.08 523.59-7.08 108.03h-124.12l-9.06-108.03m360.13-117.79c1.68 3.1 2.609 6.55 2.609 10.19 0 13.43-12.46 28.24-28.159 28.24-15.69 0-28.67-14.811-28.67-28.24 0-3.62.93-7.06 2.59-10.15 4.489-8.37 14.359-14.18 25.83-14.18 11.44 0 21.3 5.79 25.8 14.14z" stroke-width="14"/><path d="m498.43 412.06c.07.81.101 1.63.101 2.45 0 19.54-17.96 40.92-40.13 40.92s-40.141-21.38-40.141-40.92c0-.69.04-1.39.11-2.09" stroke-width="7"/><path d="m387.9 419.07s19.1 19.02 19.1 63.82c0 7.181-2.42 17.351-2.42 17.351l-7.25 38.56-14.06 74.69-32.68-5.05 2.02-18.641 17.71-136.05s4.65-26.31 17.58-34.68c1.94-1.27 4.07-2.12 6.4-2.42 2.85-.37 10.18-2.24 18.14-4.53 7.01-2.01 14.52-4.36 19.88-6.28h.01m96.05 13.23s-19.09 19.02-19.09 63.82c0 7.181 2.42 17.351 2.42 17.351l7.25 38.56 14.06 74.69 32.681-5.05-2.03-18.641-17.7-136.05s-4.649-26.32-17.59-34.69c-1.939-1.26-4.07-2.11-6.39-2.41-3.44-.44-13.41-3.1-23.13-6.02-5.44-1.64-10.811-3.36-14.91-4.83h-.01" stroke-width="14"/><path d="m518.96 538.8-6.14 93.68h-107.63l-7.86-93.68m312.37-97.81c1.43 2.64 2.229 5.58 2.229 8.68 0 11.44-10.62 24.05-23.979 24.05-13.36 0-24.41-12.609-24.41-24.05 0-3.08.79-6.01 2.21-8.64 3.81-7.12 12.22-12.07 21.99-12.07 9.74 0 18.13 4.93 21.96 12.03z" stroke-width="14"/><path d="m722.04 446.32c.05.699.08 1.39.08 2.09 0 16.64-15.29 34.84-34.17 34.84s-34.17-18.2-34.17-34.84c0-.58.02-1.18.08-1.78" stroke-width="7"/><path d="m627.92 452.29s16.271 16.2 16.271 54.34c0 6.12-2.07 14.771-2.07 14.771l-6.18 32.84-11.96 63.59-27.82-4.3 1.72-15.87 15.07-115.84c-.001-.001 3.959-22.401 14.969-29.531 1.65-1.08 3.47-1.81 5.45-2.06 2.43-.311 8.67-1.91 15.439-3.86 5.98-1.72 12.37-3.71 16.94-5.34m81.791 11.26s-16.26 16.2-16.26 54.34c0 6.12 2.06 14.771 2.06 14.771l6.18 32.84 11.971 63.59 27.819-4.3-1.729-15.87-15.07-115.84s-3.95-22.391-14.96-29.54c-1.66-1.07-3.47-1.8-5.46-2.05-2.93-.381-11.41-2.641-19.689-5.131-4.641-1.399-9.21-2.859-12.7-4.109" stroke-width="14"/><path d="m739.52 554.24-5.24 79.76h-91.63l-6.7-79.76" stroke-width="14"/><path d="m458 198.16v149.81m33.55-36.39-33.68 37.09-33.67-37.15" stroke-width="21"/></g><path d="m0 0h850.394v850.394h-850.394z"/></g></svg>