<svg height="850" viewBox="0 0 850 850" width="850" xmlns="http://www.w3.org/2000/svg"><path d="m732.7 392.3 4.5 31.7-7.2 25-6 20.8-5.3 17-1.2 3.5-1 2.7-1.3 2-1.2 2-1.5-1h-75l-.8-5.7-.7-9.5-.8-12.8-.7-15.2-.8-19.8-.5-20.7v-41.8l.5-14.7.8-11.8.7-10.2 1.3-8.5.5-3.3.7-2.7 1-2.8 1.3-3 3.2-6 3.5-6 3.8-5.5 3.5-5 3-4 2.7-3.5 2.3-2.2 2.5 1.7 2.7 1.8 2.8 1.5 3 1 2.7.7 3 .5 3.3.3h3l3.5-.8 3.5-1 3.2-1.2 3.3-1.8 3-2.2 2.5-2.5 2.7-3 2.3-3h1.5l1.5.2 4 1 6 1.8 7.2 2.5 4 1.5 4 2 4 2 3.8 2.5 3.7 2.5 3.5 3 3 3.5 2.5 3.5 3.8 9.2 2.2 10.5 2 9.8 4.3 18.7 1.7 9.5 1.5 9.8 1.3 10.2 1 11.3h-2.8z" fill="#a9d7f3"/><path d="m717.5 236 .2 5.3-.2 5.2-.5 5-1 4.8-1.3 4.7-1.5 4.3-2 4-2.2 4-2.3 3-2.7 3-2.5 2.5-3 2.2-3.3 1.8-3.2 1.2-3.5 1-3.5.8h-3l-3.3-.3-3-.5-2.7-.7-3-1-2.8-1.5-2.7-1.8-2.5-1.7-3.5-3.3-3.5-4-3-4.2-2.5-4.5-2.3-5.3-2-5.2-1.2-5.8-.8-6-.2-5v-5l.5-4.7.7-4.8 1.3-4.2 1.5-4.3 1.7-4 2-3.7 2.3-3.5 2.7-3 2.8-2.8 3-2.5 3.2-2 3.5-1.5 3.5-1 3.8-.7h4l3.7.2 3.5 1 3.8 1.3 3.2 1.7 3.5 2.3 3 2.5 3 3 2.8 3.2 2.5 3.5 2.2 4 2 4 1.5 4.5 1.5 4.8 1 4.7zm-543.8-61.7 3.8.5 3.7 1.2 3.3 1.5 3.2 2 3.3 2.3 2.7 2.7 2.5 3.3 2.5 3.2 2 3.8 1.8 4 1.5 4.2 1 4.5 1 4.8.5 4.7v4.8l-.3 5.2-.5 3.3-.5 3.2-.7 3-.8 3.3-1 3-1.2 2.7-1.3 2.8-1.2 2.7-1.5 2.5-1.8 2.5-1.5 2.3-2 2-1.7 2-2 1.7-2 1.8-2.3 1.5-2.2 1.5-2.3 1.2-2.5 1-2.5.8-2.5.5-2.5.2-2.7.3-2.5-.3-3.8-.5-3.5-1-3.2-1.5-3-1.7-3-2.3-2.8-2.5-2.5-3-2.5-3-2.2-4-2-4-1.5-4.2-1.3-4.8-1-4.7-.5-5v-5.3l.3-5.2.5-5 1.2-4.8 1.3-4.5 1.7-4.5 2-4.2 2.3-3.8 2.5-3.7 2.7-3.3 2.8-2.7 3.2-2.8 3.3-2 3.5-1.7 3.5-1.5 3.7-.8 3.8-.5z" fill="#ffeec8"/><path d="m215 327.8.5 12.5.5 14 .2 20.5-.2 21.2-.5 21-.5 19.5-.8 15.3-.7 12.7-.8 9.5-.7 5.8h-75.3l-2 .2-1-1.7-1-2-1-2.5-1.2-3-5.3-17.3-6-20.7-7-24.8 4.8-33.7-42.3-4h-.7l1-10.8 1.2-10 1.5-9.5 1.8-9.2 4.2-18.5 2-9.8 2-10.2 3.8-9 1.2-2 1.5-1.8 3-3.2 3.5-3 3.8-2.8 4-2.2 4-2.3 4-1.7 4-1.8 4-1.2 3.5-1.3 6.2-1.7 4.3-.8 1.5-.5h.2l2.5 3 2.5 3 2.8 2.5 3 2.3 3 1.7 3.2 1.5 3.5 1 3.8.5 2.5.3 2.7-.3 2.5-.2 2.5-.5 2.5-.8 2.5-1 2.3-1.2 2.2-1.5 5.5.2 2.8 3.5 2.7 4 3.5 4.8 3.8 5.7 3.7 5.8 3 6 1.3 3 1 2.7 1 4.5 1 5.5.7 7z" fill="#a9d7f3"/><path d="m536.2 382.3.5 3v9l-1 6-1 5.7-1.5 5.3-1.5 4.5-1.2 3.7-1.3 2.5-.7 1.3-1 1.2-1.3 1.3-1.2 1.2-1.8.8-1.5.7-1.7.3-1.5-.3-.8-.2-.7-.8-.5-.5-.5-1-.8-2.2-.7-2.3-.8-5.2-.5-2.3-.5-1.7-1.2.5-.8.5-.5 1-.5 1-.5 1-.2.7-.8.5h-.7l-.8-1.2-.7-1.8-.5-2.2-.5-2.5-.5-5.5-.3-5.8.3-4.7.2-4 .5-3.3.8-2.2-.5-1.8 29-4.7 1.2-.3z" fill="#ffeec8"/><path d="m480 279.3 4 68.2h.2l.3 8 .2 8.5h-115.7l.2-12.2.3-13.5 1-26.5 1.7-33.3-24.7 103.5-30-5h-.3l6-44 3.8-26 1.5-10.5 1.5-8.2 2.5-13 2.5-11.5 2.5-10.3 2-9 4-14.5 3.5-10.5 2.5-7 2-4.2 1.2-2 .3-.8 2.7-2.2 3-2.3 3.5-2.2 4-2.3 8.5-4.2 8.8-3.8 7.2-3 6.3-2.2h3.7l.8 1.7 1 1.8 1 1.5 1.2 1.5 2.8 2.7 3.2 2.5 3.5 2 3.8 1.3 4.2 1 4.3.5h2.5l2.5-.3 2.5-.5 2.2-.5 2.3-.5 2-1 2-1 1.7-1 1.8-1.5 1.7-1.2 1.3-1.5 1.5-1.8 1.2-1.7 1-2 1-1.8.8-2.2.2.2 11 4.5 6.8 3 6.7 3.3 7 3.5 6.3 3.5 5.2 3.5 2.3 2 2 1.7.5.3 1 2 1.7 3.7 2.3 6.8 3 10.2 3.7 14.8 2 9 2 10.5 2.3 12 2.5 13.2 3 18.8 3.5 25.7 6.2 44-1.2.3-29 4.7-24.8-103.2z" fill="#a9d7f3"/><path d="m316.7 381.5.5-4.5h.3l30 5-.5 1.5.7 2.3.5 3.2.3 4.3.2 4.5-.2 5.7-.5 5.5-.5 2.5-.5 2.3-.8 1.7-.7 1.3h-.8l-.7-.5-.3-.8-.5-1-.5-1-.5-1-.7-.5-1.3-.5-.5 1.8-.5 2.2-.7 5.3-.8 2.5-.7 2-.5 1-.5.7-.8.5-.7.3-1.5.2-1.8-.2-1.5-.8-1.7-.7-1.3-1.3-1.2-1-1-1.5-.8-1.2-1.2-2.5-1.3-3.8-1.5-4.5-1.5-5.2-1.2-5.8-.8-6v-9z" fill="#ffeec8"/><path d="m89 450.8-4 1.7-.8 7.3v6.2l.5 5.3 1 4.7-7-.2-4-61.3zm685.5-20.3-3.8 61.3-7.2.2.5-2.2.5-2.3.5-5.5v-6l-.5-7.5-4.3-.7z" fill="#a9d7f3"/><path d="m750.5 492.5-2.3 6.3-.5 4-.7 4-.8 5.2-1.2 5.5-1.8 5.8-1.7 5.2-1 2.5-1.3 2-1 1.8-1.2 1.2-1.8 1.3-2 1.5-2.5 1-2.5 1-2.7.7-2.8.5-2.7.3h-2.8l-2.5-.8-2.5-1-2-1.5-1-.7-1-1.3-.7-1.2-.8-1.3-.5-1.5-.5-1.7-.2-1.8-.3-2v-2.2l.3-2.5.7-6.3.8-5 1-3.7 1-2.8 1-2.5 1.2-1.7 2.8-3.8 1.2-2 1.3-2 1-2.7 1.2-3.5 5.3-17 6-20.8 7.2-25-4.5-31.7 40-4h2.8l.5 8.2v8.8l-1.5 25.2-14.3 37.3zm-116-39.7h-1.8l-2.7 4.7-2.5 4.5-4 7.5-4 8.3-.5 4.7-1 5-1.3 5.8-1.7 6-1 3-1.3 2.7-1.2 2.8-1.3 2.2-1.5 1.8-1.7 1.5-2 1-2.3 1-2.5.7-2.7.5-2.8.3h-2.7l-2.8-.3-2.7-.7-2.5-1-2-1.5-2-1.8-.8-1-.7-1.2-.5-1.5-.5-1.3-.3-1.7v-3.5l.3-2 .2-2.3.5-2.2 1.3-4.5 1.2-3.8 1.3-3 1-2.5 1-2 1.2-1.7 2-2.5 2.3-2.3 2.5-2.5 1.2-1.5 1.5-1.7 1.5-2.3 1.5-3 1.8-3.2 2-4.5 4.7-11.3 5.3-13.5 5.7-14.7 10.3-27.3 5.7-16.5v41.8l.5 20.7zm-524.5 64-1-2-1.3-2.3-1.7-5.2-1.5-5.8-1.3-5.7-1-5-.5-4.3-.5-4-2.5-6-9.7-25.7-14.3-36.3-1.5-25.2.3-9.8.5-9.2h.7l42.3 4-4.8 33.7 7 24.8 6 20.7 5.3 17.3 1.2 3 1 2.5 1 2 1 1.7 1.5 2.3 1.5 1.7 1.3 2 1.2 2.3 1 3 1 3.7 1 5 .8 6.8v4.5l-.3 2-.2 2-.5 1.5-.5 1.5-.8 1.5-.7 1.2-.8 1-1 1-2.2 1.5-2.3 1-2.7.5-2.8.3-2.7-.3-2.8-.5-2.7-.7-2.5-1-2.3-1.3-2-1.2-1.7-1.5-1.3-1.3zm161-38.3.5 2.3.5 2.2.2 2v2l-.2 1.8-.3 1.5-.5 1.5-.5 1.2-.7 1.3-.8 1.2-1.7 1.8-2.3 1.5-2.5 1-2.5.5-2.7.2h-3l-2.8-.2-2.7-.5-2.5-.8-2.3-1-1.7-1-1.8-1.2-1.5-2-1.5-2.3-1.2-2.5-1.3-2.7-1-3-1.7-6.3-1.3-5.7-.7-5-.8-4.5-1.5-3-2.5-5.5-3.7-7.5-2.5-4.3-2.8-4.7-1.7-.3.5-19.5.5-21 .2-21.2-.2-20.5 6 16.5 10.2 27.5 5.5 14.5 5.5 13.5 4.8 11.5 2 4.2 1.5 3.5 1.7 2.8 1.5 2.2 1.3 2 1.2 1.5 2.5 2.3 2.3 2.2 2.2 2.5 1 1.8 1 2 1.3 2.5 1 3.2 1.2 3.5zm175.7-308 .5 1 1.8 2.8 1.5 1.7 1.5 1.5 1.5 1.5 1.7 1-.5 1.5-.2-.2-.8 2.2-1 1.8-1 2-1.2 1.7-1.5 1.8-1.3 1.5-1.7 1.2-1.8 1.5-1.7 1-2 1-2 1-2.3.5-2.2.5-2.5.5-2.5.3h-2.5l-4.3-.5-4.2-1-3.8-1.3-3.5-2-3.2-2.5-2.8-2.7-1.2-1.5-1-1.5-1-1.8-.8-1.7h-3.7l2.2-1-1-1.8 2.5-1 2-1.5 1.8-1.5 1.5-1.5 2-2.2.7-1 1.5-1.8 2 1.5 2 1 2 1 2.3 1 2 .5 2.2.5 2.3.3 2.2.2 2.5-.2 2.3-.3 2.2-.5 2-.5 2.3-1 2-1 2-1 2-1.5z" fill="#ffeec8"/><path d="m427.2 79 3.8.3 3.5.7 3.5 1.3 3.2 1.5 3.3 2.2 2.7 2.3 2.8 2.7 2.5 3.3 2.5 3.5 2 3.7 1.7 4 1.5 4.3 1.3 4.2.7 4.8.8 4.7v8.5l-.3 3.3-.5 3.2-.5 3.3-.7 3-1 3.2-1 2.8-1 2.7-1.5 2.8-1.3 2.5-1.5 2.5-1.7 2.2-1.8 2.3-1.7 2-2 1.7-2 1.5-2 1.5-2 1-2 1-2.3 1-2 .5-2.2.5-2.3.3-2.5.2-2.2-.2-2.3-.3-2.2-.5-2-.5-2.3-1-2-1-2-1-2-1.5-2-1.5-2-1.7-1.7-2-1.8-2.3-1.7-2.2-1.5-2.5-1.3-2.5-1.5-2.8-1-2.7-1-2.8-1-3.2-.7-3-.5-3.3-.5-3.2-.3-3.3v-8.5l.8-4.7.7-4.8 1.3-4.2 1.5-4.3 1.7-4 2-3.7 2.5-3.5 2.5-3.3 2.8-2.7 2.7-2.3 3.3-2.2 3.2-1.5 3.5-1.3 3.5-.7z" fill="#ffeec8"/><path d="m783 732.3.7 7 .3 4-.3 2.2-.5 2-.5 2-1 2-1.5 1.8-1.7 1.7-2.3 1.3-2.5 1.2-3.5 1-3.7.8-3.3.2h-7l-2.7.5-3.5 1-4.3 2-5.7 3-3.3 1.5-3.2 1.5-3.3 1-3 .8-3.2.5-3 .5h-5.5l-2.5-.3-2.3-.5-2-.7-1.7-.8-1.5-1-1.3-1.2-.7-1.3-.5-1.2-.3-.8.3-.7.2-.8.3-.7 1.5-1.3 1.7-1.5 5.8-3.5 3.5-2.5 4.2-3 4.5-3.2 5.5-3.8 10.5-7 41.3-8.2zm-199.8-18 36.5 22.5-.2 2.7-.3 3.3-.2 1.5-.3 1.5-.5 1.5-.7 1.5-1 1.2-1.3 1-1.7 1-2 1-2.3.5-2.7.5-3.3.3-4-.3h-1.7l-1.5-.2-3.3-1-3.2-1.3-3.8-1-4-.7-2-.3h-2.5l-2.5.3-3 .5-3 .7-3.2 1-3.5 1-3.5.5-3.3.5-3.2.3h-3.3l-3-.3-2.7-.2-2.5-.8-2.5-.7-2.3-.8-1.7-1.2-1.8-1-1.2-1.3-1-1.2-.5-1.5-.3-1.5v-.8l.3-.7.5-.5.5-.8 1.5-1 2.2-1 6-2.5 4-1.7 4.8-2.3 9.2-4.7 11.5-6zm-87.2-52.5-1.8-.3-1.5-.5-1.5-.5-1.2-.7-2.5-1.8-2.3-2.2-2-2.5-1.5-2.5-1.2-2.8-1-2.7-.8-2.8-1.2-2.5-1.3-2.5-1.5-2.5-.5-.5-1-.5-2-1-2.7-1-2.5-1.2-1.3-.8-1.2-.7-1-1-.8-1.3-.5-1.2-.2-1.5v-1.8l.5-2 .7 3.5h34.3v.8l2.5 5 2.7 5.2 3 5.3 3 5.2.8 1.8.2 1.7.3 1.5-.3 1.5-.2 1.5-.8 1.5-.7 1.3-1 1.2-1 1-1.3 1-1.2.8-1.3.5-1.5.5-1.2.5h-1.3zm-103.8-42.3.8 2.3.2 1.7v1.8l-.2 1.2-.5 1.3-.8 1.2-1 .8-1 1-2.5 1.2-2.2 1-2.3 1-.7.5-.5.5-1.5 2.5-1.3 2.5-1 2.5-1 2.8-1 2.7-1.2 2.8-1.5 2.5-2 2.5-2.3 2.2-2.5 1.8-1.2.7-1.5.5-1.5.5-1.8.3h-2.5l-1.2-.5-1.5-.5-1.3-.5-1.2-.8-1.3-1-1-1-1-1.2-.7-1.3-.8-1.5-.2-1.5-.3-1.5.3-1.5.2-1.7.8-1.8 3-5.2 3-5.5 3-5.3 2.5-5.2 31.5-.3zm-91.7 97 4.5 2 4 1.8 6.2 2.5 2 1 1.5 1.2.8.5.2.8.3.7v.8l-.3 1.5-.5 1.2-1 1.3-1.2 1.2-1.5 1.3-2 1-2.3 1-2.2.7-2.8.5-2.7.5-3 .3h-3l-3.3-.3-3.5-.5-3.2-.7-3.5-1-3.5-1-3-.8-2.8-.2-2.7-.3h-2.3l-2.2.3-4 .7-3.5 1-3.3 1-3.2 1-1.8.3-1.7.2h-7.3l-3-.5-2.2-.5-2-.7-1.8-1-1.2-1-1-1.3-.5-1.2-.5-1.5-.5-2.8-.5-6-.3-.7 36.8-22.5 13.7 7.2 11.5 6.3zm-171.3 17.5 4 2.8 3.8 2.5 5.5 3.5 2 1.5 1.2 1.5.5.5.3.7v1.5l-.5 1.5-1 1.3-1 1-1.5 1-2 1-2 .5-2.3.5-2.5.2-2.7.3-2.8-.3-3-.2-3-.5-3.2-1-3.3-1-3.2-1.3-3-1.7-5.8-3-4.5-1.8-3.2-1-2.8-.5-2.5-.2-2.2.2h-2.5l-3-.2-4-.8-3.3-1-2.7-1.2-2.3-1.5-1.7-1.8-1.3-1.7-1-2-.7-2-.5-2v-6.3l1-7 .7-4.2 41.3 8.2 10.7 7 5.3 3.5z" fill="#231f20"/><path d="m462.2 624-.7-3.5-34-203.7v-1l-35.3 203.7-.7 4.5-31.5.3h-10l1.2-22.3 2.5-33.5 6.5-83.5 6-77.7 2-26 .8-12v-5.3h115.7v5.8l1 13.5 2.3 30 6.7 87 10 123.7h-8.2zm-196.2 74.3-36.8 22.5-13 8-58-114.3-29.7-58.7-16.5-33.3-2.3-4.5.3-1.2 1.2 1.7 1.3 1.3 1.7 1.5 2 1.2 2.3 1.3 2.5 1 2.7.7 2.8.5 2.7.3 2.8-.3 2.7-.5 2.3-1 2.2-1.5 1-1 .8-1 .7-1.2.8-1.5.5-1.5.5-1.5.2-2 .3-2v-4.5l-.8-6.8-1-5-1-3.7-1-3-1.2-2.3-1.3-2-1.5-1.7-1.5-2.3 2-.2h44.3v.2l15.7 42.8 14.8 39.2 13.2 34.8 11.8 30 10.2 25 14.3 34.5z" fill="#7a7878"/><path d="m207 479.8v5l-9.3 37.5-1 .5-15.7-42.8v-.2zm-98.5 240.2-41.3-8.2-2.7-.5 45.2-193.3 2.3 4.5 16.5 33.3 29.7 58.7-1 .5-1 2.8-1.7 4.2-5.5 13.3-7.8 17-8.5 18.7-15.7 34-7.3 15.3zm559.7-224v.3l-15.5 42.5-1.2-.3-9.3-37.7v-4.8zm72.5 240-1.2.3-7-15-15.8-34.3-8.7-18.7-7.5-17-5.8-13-1.7-4.5-.8-2.5-1.2-.5 29.7-59 16.5-33 2.3-4.5 45.2 193-2.7.5z" fill="#7a7878"/><path d="m737.2 538.8-16.5 33-29.7 59-57.8 114.2-13.5-8.2-36.5-22.5 5.3-11.8 14.2-34.5 10-25 11.8-30.2 13.5-34.8 14.7-39.2 15.5-42.5v-.3h44.3l1.5 1-2.8 3.8-1.2 1.7-1 2.5-1 2.8-1 3.7-.8 5-.7 6.3-.3 2.5v2.2l.3 2 .2 1.8.5 1.7.5 1.5.8 1.3.7 1.2 1 1.3 1 .7 2 1.5 2.5 1 2.5.8h2.8l2.7-.3 2.8-.5 2.7-.7 2.5-1 2.5-1 2-1.5 1.8-1.3 1.2-1.2 1-1.8.3 1.3z" fill="#7a7878"/><g fill="none" stroke="#231f20" stroke-linecap="round" stroke-miterlimit="10"><path d="m181 480 15.7 42.8 14.8 39.2 13.2 34.8 11.8 30 10.2 25 14.3 34.5 5 12-36.8 22.5-13 8-58-114.3-29.7-58.7-16.5-33.3-2.3-4.5-4.2-7.7-4-6.8-3.5-5.7-3.3-4.8-3-4.5-2.5-4-2-4.2-.7-2-.8-2.3-1-4.7-.5-5.3v-6.2l.8-7.3m181 245.8 13.7 7.2 11.5 6.3 9.3 4.7 4.5 2 4 1.8 6.2 2.5 2 1 1.5 1.2.8.5.2.8.3.7v.8l-.3 1.5-.5 1.2-1 1.3-1.2 1.2-1.5 1.3-2 1-2.3 1-2.2.7-2.8.5-2.7.5-3 .3h-3l-3.3-.3-3.5-.5-3.2-.7-3.5-1-3.5-1-3-.8-2.8-.2-2.7-.3h-2.3l-2.2.3-4 .7-3.5 1-3.3 1-3.2 1-1.8.3-1.7.2h-7.3l-3-.5-2.2-.5-2-.7-1.8-1-1.2-1-1-1.3-.5-1.2-.5-1.5-.5-2.8-.5-6m-89.3-464.5-2.2-4-2-4-1.5-4.2-1.3-4.8-1-4.7-.5-5v-5.3l.3-5.2.5-5 1.2-4.8 1.3-4.5 1.7-4.5 2-4.2 2.3-3.8 2.5-3.7 2.7-3.3 2.8-2.7 3.2-2.8 3.3-2 3.5-1.7 3.5-1.5 3.7-.8 3.8-.5 3.7.3 3.8.5 3.7 1.2 3.3 1.5 3.2 2 3.3 2.3 2.7 2.7 2.5 3.3 2.5 3.2 2 3.8 1.8 4 1.5 4.2 1 4.5 1 4.8.5 4.7v4.8l-.3 5.2-.5 3.3-.5 3.2-.7 3-.8 3.3-1 3-1.2 2.7-1.3 2.8-1.2 2.7-1.5 2.5-1.8 2.5-1.5 2.3-2 2-1.7 2-2 1.7-2 1.8-2.3 1.5-2.2 1.5-2.3 1.2-2.5 1-2.5.8-2.5.5-2.5.2-2.7.3-2.5-.3-3.8-.5-3.5-1-3.2-1.5-3-1.7-3-2.3-2.8-2.5-2.5-3z" stroke-width="14"/><path d="m216 354.3.2 20.5-.2 21.2-.5 21-.5 19.5-.8 15.3-.7 12.7-.8 9.5-.7 5.8h-75.3m53-212.3 2.8 3.5 2.7 4 3.5 4.8 3.8 5.7 3.7 5.8 3 6 1.3 3 1 2.7 1 4.5 1 5.5.7 7 .8 7.8.5 12.5.5 14" stroke-width="14"/><path d="m140 257-1.5.5-4.3.8-6.2 1.7-3.5 1.3-4 1.2-4 1.8-4 1.7-4 2.3-4 2.2-3.8 2.8-3.5 3-3 3.2-1.5 1.8-1.2 2-3.8 9-2 10.2-2 9.8-4.2 18.5-1.8 9.2-1.5 9.5-1.2 10-1 10.8-.5 9.2-.3 9.8v10.7l.5 11.8 1 2.7 14.3 36.3 9.7 25.7 2.5 6 .5 4 .5 4.3 1 5 1.3 5.7 1.5 5.8 1.7 5.2 1.3 2.3 1 2 1.2 1.7 1.3 1.3 1.7 1.5 2 1.2 2.3 1.3 2.5 1 2.7.7 2.8.5 2.7.3 2.8-.3 2.7-.5 2.3-1 2.2-1.5 1-1 .8-1 .7-1.2.8-1.5.5-1.5.5-1.5.2-2 .3-2v-4.5l-.8-6.8-1-5-1-3.7-1-3-1.2-2.3-1.3-2-1.5-1.7-1.5-2.3-1-1.7-1-2-1-2.5-1.2-3-5.3-17.3-6-20.7-7-24.8 4.8-33.7 5.2-37.3m94.5 99.8 2.8 4.7 2.5 4.3 3.7 7.5 2.5 5.5 1.5 3 .8 4.5.7 5 1.3 5.7 1.7 6.3 1 3 1.3 2.7 1.2 2.5 1.5 2.3 1.5 2 1.8 1.2 1.7 1 2.3 1 2.5.8 2.7.5 2.8.2h3l2.7-.2 2.5-.5 2.5-1 2.3-1.5 1.7-1.8.8-1.2.7-1.3.5-1.2.5-1.5.3-1.5.2-1.8v-2l-.2-2-.5-2.2-.5-2.3-1.3-4.5-1.2-3.5-1-3.2-1.3-2.5-1-2-1-1.8-2.2-2.5-2.3-2.2-2.5-2.3-1.2-1.5-1.3-2-1.5-2.2-1.7-2.8-1.5-3.5-2-4.2-4.8-11.5-5.5-13.5-5.5-14.5-10.2-27.5-6-16.5-.5-1.3" stroke-width="14"/><path d="m99 476.5h-.3l-13-.5-7-.2-4-61.3-1.5-25.2-.2-3.8m84.2 229.5-1 2.8-1.7 4.2-5.5 13.3-7.8 17-8.5 18.7-15.7 34-7.3 15.3-1.2-.3-41.3-8.2-2.7-.5 45.2-193.3.3-1.2" stroke-width="14"/><path d="m102.7 716.3 5.8 3.7 10.7 7 5.3 3.5 4.7 3.5 4 2.8 3.8 2.5 5.5 3.5 2 1.5 1.2 1.5.5.5.3.7v1.5l-.5 1.5-1 1.3-1 1-1.5 1-2 1-2 .5-2.3.5-2.5.2-2.7.3-2.8-.3-3-.2-3-.5-3.2-1-3.3-1-3.2-1.3-3-1.7-5.8-3-4.5-1.8-3.2-1-2.8-.5-2.5-.2-2.2.2h-2.5l-3-.2-4-.8-3.3-1-2.7-1.2-2.3-1.5-1.7-1.8-1.3-1.7-1-2-.7-2-.5-2v-6.3l1-7m140.5-231.2-9.3 37.5m470.5-26-15.5 42.5-14.7 39.2-13.5 34.8-11.8 30.2-10 25-14.2 34.5-5.3 11.8 36.5 22.5 13.5 8.2 57.8-114.2 29.7-59 16.5-33 2.3-4.5 4.2-8 4-6.8 3.8-5.5 3.2-5 2.8-4.2 2.5-4.3 2-4 .7-2.2.8-2.3.5-2.2.5-2.3.5-5.5v-6l-.5-7.5" stroke-width="14"/><path d="m583.2 714.3-13.5 7.5-11.5 6-9.2 4.7-4.8 2.3-4 1.7-6 2.5-2.2 1-1.5 1-.5.8-.5.5-.3.7v.8l.3 1.5.5 1.5 1 1.2 1.2 1.3 1.8 1 1.7 1.2 2.3.8 2.5.7 2.5.8 2.7.2 3 .3h3.3l3.2-.3 3.3-.5 3.5-.5 3.5-1 3.2-1 3-.7 3-.5 2.5-.3h2.5l2 .3 4 .7 3.8 1 3.2 1.3 3.3 1 1.5.2h1.7l4 .3 3.3-.3 2.7-.5 2.3-.5 2-1 1.7-1 1.3-1 1-1.2.7-1.5.5-1.5.3-1.5.2-1.5.3-3.3.2-2.7v-1.3m89.3-462.2 2.2-4 2-4 1.5-4.3 1.3-4.7 1-4.8.5-5 .2-5.2-.2-5.3-.8-5-1-4.7-1.5-4.8-1.5-4.5-2-4-2.2-4-2.5-3.5-2.8-3.2-3-3-3-2.5-3.5-2.3-3.2-1.7-3.8-1.3-3.5-1-3.7-.2h-4l-3.8.7-3.5 1-3.5 1.5-3.2 2-3 2.5-2.8 2.8-2.7 3-2.3 3.5-2 3.7-1.7 4-1.5 4.3-1.3 4.2-.7 4.8-.5 4.7v5l.2 5 .8 6 1.2 5.8 2 5.2 2.3 5.3 2.5 4.5 3 4.2 3.5 4 3.5 3.3 2.5 1.7 2.7 1.8 2.8 1.5 3 1 2.7.7 3 .5 3.3.3h3l3.5-.8 3.5-1 3.2-1.2 3.3-1.8 3-2.2 2.5-2.5 2.7-3zm-75.8 97.2v41.8l.5 20.7.8 19.8.7 15.2.8 12.8.7 9.5.8 5.7h75m-52.8-212.5-2.7 3.5-3 4-3.5 5-3.8 5.5-3.5 6-3.2 6-1.3 3-1 2.8-.7 2.7-.5 3.3-1.3 8.5-.7 10.2-.8 11.8-.5 14.7" stroke-width="14"/><path d="m710.5 273.3 1.5.2 4 1 6 1.8 7.2 2.5 4 1.5 4 2 4 2 3.8 2.5 3.7 2.5 3.5 3 3 3.5 2.5 3.5 3.8 9.2 2.2 10.5 2 9.8 4.3 18.7 1.7 9.5 1.5 9.8 1.3 10.2 1 11.3.5 8.2v19.8l-.5 11.7-1 2.5-14.3 37.3-9.7 24.7-2.3 6.3-.5 4-.7 4-.8 5.2-1.2 5.5-1.8 5.8-1.7 5.2-1 2.5-1.3 2-1 1.8-1.2 1.2-1.8 1.3-2 1.5-2.5 1-2.5 1-2.7.7-2.8.5-2.7.3h-2.8l-2.5-.8-2.5-1-2-1.5-1-.7-1-1.3-.7-1.2-.8-1.3-.5-1.5-.5-1.7-.2-1.8-.3-2v-2.2l.3-2.5.7-6.3.8-5 1-3.7 1-2.8 1-2.5 1.2-1.7 2.8-3.8 1.2-2 1.3-2 1-2.7 1.2-3.5 5.3-17 6-20.8 7.2-25-4.5-31.7-5.5-39.3m-94.5 99.8-2.7 4.7-2.5 4.5-4 7.5-4 8.3-.5 4.7-1 5-1.3 5.8-1.7 6-1 3-1.3 2.7-1.2 2.8-1.3 2.2-1.5 1.8-1.7 1.5-2 1-2.3 1-2.5.7-2.7.5-2.8.3h-2.7l-2.8-.3-2.7-.7-2.5-1-2-1.5-2-1.8-.8-1-.7-1.2-.5-1.5-.5-1.3-.3-1.7v-3.5l.3-2 .2-2.3.5-2.2 1.3-4.5 1.2-3.8 1.3-3 1-2.5 1-2 1.2-1.7 2-2.5 2.3-2.3 2.5-2.5 1.2-1.5 1.5-1.7 1.5-2.3 1.5-3 1.8-3.2 2-4.5 4.7-11.3 5.3-13.5 5.7-14.7 10.3-27.3 5.7-16.5.5-1.5" stroke-width="14"/><path d="m750.2 492.8.3-.3 13-.5 7.2-.2 3.8-61.3 1.5-25.2.2-3.8m-84 229.8.8 2.5 1.7 4.5 5.8 13 7.5 17 8.7 18.7 15.8 34.3 7 15 1.2-.3 41.3-8.2 2.7-.5-45.2-193-.3-1.3" stroke-width="14"/><path d="m746.7 732.5-6 3.5-10.5 7-5.5 3.8-4.5 3.2-4.2 3-3.5 2.5-5.8 3.5-1.7 1.5-1.5 1.3-.3.7-.2.8-.3.7.3.8.5 1.2.7 1.3 1.3 1.2 1.5 1 1.7.8 2 .7 2.3.5 2.5.3h5.5l3-.5 3.2-.5 3-.8 3.3-1 3.2-1.5 3.3-1.5 5.7-3 4.3-2 3.5-1 2.7-.5h7l3.3-.2 3.7-.8 3.5-1 2.5-1.2 2.3-1.3 1.7-1.7 1.5-1.8 1-2 .5-2 .5-2 .3-2.2-.3-4-.7-7m-140.8-231.5 9.3 37.7m-241.3-368.5-2-1.5-2-1.7-1.7-2-1.8-2.3-1.7-2.2-1.5-2.5-1.3-2.5-1.5-2.8-1-2.7-1-2.8-1-3.2-.7-3-.5-3.3-.5-3.2-.3-3.3v-8.5l.8-4.7.7-4.8 1.3-4.2 1.5-4.3 1.7-4 2-3.7 2.5-3.5 2.5-3.3 2.8-2.7 2.7-2.3 3.3-2.2 3.2-1.5 3.5-1.3 3.5-.7 3.5-.3 3.8.3 3.5.7 3.5 1.3 3.2 1.5 3.3 2.2 2.7 2.3 2.8 2.7 2.5 3.3 2.5 3.5 2 3.7 1.7 4 1.5 4.3 1.3 4.2.7 4.8.8 4.7v8.5l-.3 3.3-.5 3.2-.5 3.3-.7 3-1 3.2-1 2.8-1 2.7-1.5 2.8-1.3 2.5-1.5 2.5-1.7 2.2-1.8 2.3-1.7 2-2 1.7-2 1.5-2 1.5-2 1-2 1-2.3 1-2 .5-2.2.5-2.3.3-2.5.2-2.2-.2-2.3-.3-2.2-.5-2-.5-2.3-1-2-1-2-1zm74 179.8-.2-2.3-4-68.2v-1" stroke-width="14"/><path d="m372.2 278v.5l-1.7 33.3-1 26.5-.3 13.5-.2 12.2v5.3l-.8 12-2 26-6 77.7-6.5 83.5-2.5 33.5-1.2 22.3h10l31.5-.3.7-4.5 35.3-203.7v1l34 203.7.7 3.5h42.5l-10-123.7-6.7-87-2.3-30-1-13.5v-5.8l-.2-8.5-.3-8m-112.7 16.5h110.7m-165.5 17.5.5-4.5 6-44 3.8-26 1.5-10.5 1.5-8.2 2.5-13 2.5-11.5 2.5-10.3 2-9 4-14.5 3.5-10.5 2.5-7 2-4.2 1.2-2 .3-.8 2.7-2.2 3-2.3 3.5-2.2 4-2.3 8.5-4.2 8.8-3.8 7.2-3 6.3-2.2 2.2-1 5.5-1.8" stroke-width="14"/><path d="m372.2 278.5-24.7 103.5-.5 1.5.7 2.3.5 3.2.3 4.3.2 4.5-.2 5.7-.5 5.5-.5 2.5-.5 2.3-.8 1.7-.7 1.3h-.8l-.7-.5-.3-.8-.5-1-.5-1-.5-1-.7-.5-1.3-.5-.5 1.8-.5 2.2-.7 5.3-.8 2.5-.7 2-.5 1-.5.7-.8.5-.7.3-1.5.2-1.8-.2-1.5-.8-1.7-.7-1.3-1.3-1.2-1-1-1.5-.8-1.2-1.2-2.5-1.3-3.8-1.5-4.5-1.5-5.2-1.2-5.8-.8-6v-9l.5-3" stroke-width="14"/><path d="m317.5 377 30 5h1m187.7.3-.5-4.8-6.2-44-3.5-25.7-3-18.8-2.5-13.2-2.3-12-2-10.5-2-9-3.7-14.8-3-10.2-2.3-6.8-1.7-3.7-1-2-.5-.3-2-1.7-2.3-2-5.2-3.5-6.3-3.5-7-3.5-6.7-3.3-6.8-3-11-4.5-.2-.2-5.8-2m32 100 24.8 103.2.5 1.8-.8 2.2-.5 3.3-.2 4-.3 4.7.3 5.8.5 5.5.5 2.5.5 2.2.7 1.8.8 1.2h.7l.8-.5.2-.7.5-1 .5-1 .5-1 .8-.5 1.2-.5.5 1.7.5 2.3.8 5.2.7 2.3.8 2.2.5 1 .5.5.7.8.8.2 1.5.3 1.7-.3 1.5-.7 1.8-.8 1.2-1.2 1.3-1.3 1-1.2.7-1.3 1.3-2.5 1.2-3.7 1.5-4.5 1.5-5.3 1-5.7 1-6v-9l-.5-3" stroke-width="14"/><path d="m534.5 377.8-29 4.7-1 .3m-50-201.8v.3l-.8 2.2-1 1.8-1 2-1.2 1.7-1.5 1.8-1.3 1.5-1.7 1.2-1.8 1.5-1.7 1-2 1-2 1-2.3.5-2.2.5-2.5.5-2.5.3h-2.5l-4.3-.5-4.2-1-3.8-1.3-3.5-2-3.2-2.5-2.8-2.7-1.2-1.5-1-1.5-1-1.8-.8-1.7m46-12.8.5 1 1.8 2.8 1.5 1.7 1.5 1.5 1.5 1.5 1.7 1 1.8.5m-48.3-8.7-.7 1-2 2.2-1.5 1.5-1.8 1.5-2 1.5-2.5 1m-38 443.3-.2.5-2.5 5.2-3 5.3-3 5.5-3 5.2-.8 1.8-.2 1.7-.3 1.5.3 1.5.2 1.5.8 1.5.7 1.3 1 1.2 1 1 1.3 1 1.2.8 1.3.5 1.5.5 1.2.5h2.5l1.8-.3 1.5-.5 1.5-.5 1.2-.7 2.5-1.8 2.3-2.2 2-2.5 1.5-2.5 1.2-2.8 1-2.7 1-2.8 1-2.5 1.3-2.5 1.5-2.5.5-.5.7-.5 2.3-1 2.2-1 2.5-1.2 1-1 1-.8.8-1.2.5-1.3.2-1.2v-1.8l-.2-1.7-.8-2.3m104.3 5.3 2.5 5 2.7 5.2 3 5.3 3 5.2.8 1.8.2 1.7.3 1.5-.3 1.5-.2 1.5-.8 1.5-.7 1.3-1 1.2-1 1-1.3 1-1.2.8-1.3.5-1.5.5-1.2.5h-2.5l-1.8-.3-1.5-.5-1.5-.5-1.2-.7-2.5-1.8-2.3-2.2-2-2.5-1.5-2.5-1.2-2.8-1-2.7-.8-2.8-1.2-2.5-1.3-2.5-1.5-2.5-.5-.5-1-.5-2-1-2.7-1-2.5-1.2-1.3-.8-1.2-.7-1-1-.8-1.3-.5-1.2-.2-1.5v-1.8l.5-2 .5-1" stroke-width="14"/><path d="m165 327.8h123.7m-43-39.8 43.8 39.8-43.8 39.7m440.8-11.7h-123.8m43-39.8-43.7 39.8 43.7 39.7" stroke-width="21"/><path d="m74.7 370.3 42.3 4h1.7m612 18h2l40-4" stroke-width="14"/></g></svg>