<svg height="850.394" viewBox="0 0 850.394 850.394" width="850.394" xmlns="http://www.w3.org/2000/svg"><path d="m368.52 674.31c54.38 0 98.45 25.07 98.45 56.011 0 30.93-44.07 56-98.45 56-54.37 0-98.44-25.07-98.44-56 0-30.941 44.07-56.011 98.44-56.011zm45.63 54.95c0-8.72-19.8-15.779-44.22-15.779-24.41 0-44.21 7.06-44.21 15.779 0 8.73 19.8 15.79 44.21 15.79 24.42 0 44.22-7.06 44.22-15.79zm23.4-199.1c54.37 0 98.45 25.07 98.45 56s-44.08 56.01-98.45 56.01-98.45-25.08-98.45-56.01 44.08-56 98.45-56zm45.62 54.95c0-8.721-19.79-15.78-44.21-15.78s-44.21 7.06-44.21 15.78c0 8.729 19.79 15.79 44.21 15.79s44.21-7.06 44.21-15.79zm148.39 40.5c54.381 0 98.45 25.08 98.45 56.01s-44.069 56-98.45 56c-54.369 0-98.439-25.07-98.439-56s44.069-56.01 98.439-56.01zm45.62 54.96c0-8.73-19.79-15.79-44.21-15.79s-44.21 7.06-44.21 15.79c0 8.72 19.79 15.779 44.21 15.779s44.21-7.059 44.21-15.779zm87.18-295.67c19.83 10.73 15.779 56.65-9.061 102.59-24.83 45.93-61.05 74.45-80.89 63.72-.86-.47-1.68-1-2.45-1.6v-.01c-16.99-13.109-12.26-57.04 11.5-100.97 24.841-45.92 61.061-74.45 80.901-63.73z" fill="#fff"/><path d="m82.39 230.94c-17.24-9.59-11.18-54.35 13.59-100.14 24.76-45.79 58.02-73.76 75.49-64.59l592.89 318.69c-19.841-10.72-56.061 17.81-80.9 63.73-23.76 43.93-28.49 87.86-11.5 100.97v.011l-.15.18-589.47-318.761z" fill="#6ebe44"/><g fill="none"><g stroke="#231f20"><path d="m671.96 549.6c-16.99-13.109-12.26-57.04 11.5-100.97 24.84-45.92 61.06-74.45 80.9-63.73 19.83 10.73 15.779 56.65-9.061 102.59-24.83 45.93-61.05 74.45-80.89 63.72-.86-.47-1.68-1-2.45-1.6v-.01zm-499.63-484.98c.05.03.1.05.14.09m-89.94 166.31c-.05-.03-.09-.05-.14-.08-17.24-9.59-11.18-54.35 13.59-100.14 24.76-45.79 58.02-73.76 75.49-64.59m0 0 592.89 318.69m-92.55 164.89-589.47-318.76m647.67 450.59c0 30.93-44.069 56-98.45 56-54.369 0-98.439-25.07-98.439-56s44.07-56.01 98.439-56.01c54.38 0 98.45 25.08 98.45 56.01z" stroke-width="21"/><path d="m677.18 680.57c0 8.72-19.79 15.779-44.21 15.779s-44.21-7.06-44.21-15.779c0-8.73 19.79-15.79 44.21-15.79s44.21 7.06 44.21 15.79z" stroke-width="14"/><path d="m466.97 730.32c0 30.93-44.07 56-98.45 56-54.37 0-98.44-25.07-98.44-56 0-30.94 44.07-56.011 98.44-56.011 54.38.001 98.45 25.071 98.45 56.011z" stroke-width="21"/><path d="m414.15 729.26c0 8.73-19.8 15.79-44.22 15.79-24.41 0-44.21-7.06-44.21-15.79 0-8.72 19.8-15.779 44.21-15.779 24.42-.001 44.22 7.059 44.22 15.779z" stroke-width="14"/><path d="m536 586.16c0 30.93-44.08 56.01-98.45 56.01s-98.45-25.08-98.45-56.01 44.08-56 98.45-56 98.45 25.07 98.45 56z" stroke-width="21"/><path d="m483.17 585.11c0 8.729-19.79 15.79-44.21 15.79s-44.21-7.061-44.21-15.79c0-8.721 19.79-15.78 44.21-15.78s44.21 7.06 44.21 15.78z" stroke-width="14"/></g><path d="m0 0h850.394v850.394h-850.394z"/></g></svg>