<svg height="850.394" viewBox="0 0 850.394 850.394" width="850.394" xmlns="http://www.w3.org/2000/svg"><path d="m426.28 126.81c124.51 0 225.439 135.53 225.439 302.709 0 167.2-100.93 302.73-225.439 302.73-124.521 0-225.45-135.53-225.45-302.73 0-167.179 100.93-302.709 225.45-302.709z" fill="#c8c8c8"/><path d="m426.27 98.34c141.521 0 256.24 148.27 256.24 331.18 0 182.921-114.72 331.19-256.24 331.19-141.51 0-256.24-148.27-256.24-331.19 0-182.91 114.73-331.18 256.24-331.18zm225.45 331.18c0-167.18-100.93-302.709-225.439-302.709-124.521 0-225.45 135.53-225.45 302.709 0 167.2 100.93 302.73 225.45 302.73 124.509 0 225.439-135.53 225.439-302.73z" fill="#fbee34"/><path d="m426.28 65.79c158.2 0 286.45 162.85 286.45 363.74 0 200.88-128.25 363.729-286.45 363.729-158.21 0-286.46-162.85-286.46-363.729 0-200.89 128.25-363.74 286.46-363.74zm256.23 363.73c0-182.91-114.72-331.18-256.24-331.18-141.51 0-256.24 148.27-256.24 331.18 0 182.921 114.73 331.19 256.24 331.19 141.52 0 256.24-148.27 256.24-331.19z" fill="#fbee34"/><g fill="none"><g stroke="#231f20"><path d="m712.73 429.53c0 200.88-128.25 363.729-286.45 363.729-158.21 0-286.46-162.85-286.46-363.729 0-200.89 128.25-363.74 286.46-363.74 158.2 0 286.45 162.85 286.45 363.74z" stroke-width="20.918"/><path d="m682.51 429.52c0 182.921-114.72 331.19-256.24 331.19-141.51 0-256.24-148.27-256.24-331.19 0-182.91 114.73-331.18 256.24-331.18 141.52 0 256.24 148.27 256.24 331.18z" stroke-width="20.918"/><path d="m651.72 429.52c0 167.2-100.93 302.73-225.439 302.73-124.521 0-225.45-135.53-225.45-302.73 0-167.18 100.93-302.709 225.45-302.709 124.509-.001 225.439 135.529 225.439 302.709z" stroke-width="13.945"/></g><path d="m0 0h850.394v850.394h-850.394z"/></g></svg>