<svg height="850.394" viewBox="0 0 850.394 850.394" width="850.394" xmlns="http://www.w3.org/2000/svg"><path d="m766.22 233.4h-.01c-12.18-3.47-18.68-20.97-14.57-39.82 4.2-19.33 18-32.73 30.801-29.94 1.6.35 3.109.94 4.52 1.74 9.85 5.58 14.71 21.41 11.021 38.32-1.921 8.8-5.841 16.38-10.74 21.76-5.851 6.41-13.11 9.69-20.07 8.18-.322-.07-.642-.15-.952-.24z" fill="#c8c8c8"/><path d="m589.66 144.84c3.93-6.16 9.93-6.49 9.93-6.49l187.6-41.92h2.369v67.13l-1.1 1.92-1.17-.67-15.65-9 .11-.2c-2.95-9.25-9.67-13.88-17.38-15.92-18.23-4.83-38.84 13.27-46.05 40.44-7.19 27.16 1.729 53.11 19.97 57.93 6.7 1.79 16.55.15 23.56-5.82l14.36 1.16h.01c.311.09.63.17.95.24 6.96 1.51 14.22-1.77 20.07-8.18l.96.02v14.69s-167.82 48.48-182.74 50.86c-4.15.66-7.3-.12-9.69-1.6-6.199-3.82-7.26-12.3-7.26-12.3s-3.17-103.51-2.149-120.81c.31-5.17 1.61-8.86 3.3-11.48zm187.01-17.9c0-6.74-5.26-12.21-11.75-12.21s-11.76 5.47-11.76 12.21 5.27 12.2 11.76 12.2 11.75-5.46 11.75-12.2zm-119.16 37.95c4.54-.9 7.49-5.29 6.601-9.82a8.34 8.34 0 0 0 -9.801-6.6l-31.06 6.07a8.348 8.348 0 0 0 -6.59 9.82c.88 4.53 5.26 7.48 9.8 6.6z" fill="#c8c8c8"/><path d="m789.56 93.37v3.06h-2.369l-187.601 41.92s-6 .33-9.93 6.49l-41.26-14.29-.73-.31c6.09-14.32 20.5-15.51 20.5-15.51l166.92-35.26z" fill="#c8c8c8"/><path d="m787.29 164.81-.33.57c-1.41-.8-2.92-1.39-4.52-1.74-12.801-2.79-26.601 10.61-30.801 29.94-4.109 18.85 2.391 36.35 14.57 39.82l-14.36-1.16-6.35-.51-.43-.83c-9-8.01-13.061-24.52-9.23-42.01 4.48-20.5 18.021-34.54 31.72-34.55h1.521l2.56 1.47z" fill="#7a7878"/><path d="m764.92 114.73c6.49 0 11.75 5.47 11.75 12.21s-5.26 12.2-11.75 12.2-11.76-5.46-11.76-12.2 5.27-12.21 11.76-12.21z" fill="#ed1d31"/><path d="m771.75 155.61-.11.2-2.56-1.47h-1.521c-13.699.01-27.239 14.05-31.72 34.55-3.83 17.49.23 34 9.23 42.01l.43.83 6.35.51c-7.01 5.97-16.859 7.61-23.56 5.82-18.24-4.82-27.16-30.77-19.97-57.93 7.21-27.17 27.819-45.27 46.05-40.44 7.711 2.04 14.431 6.67 17.381 15.92z" fill="#7a7878"/><path d="m664.11 155.07c.89 4.53-2.061 8.92-6.601 9.82l-31.05 6.07c-4.54.88-8.92-2.07-9.8-6.6a8.348 8.348 0 0 1 6.59-9.82l31.06-6.07a8.34 8.34 0 0 1 9.801 6.6z" fill="#fff"/><path d="m595.77 289.43-.149.23c-.58-.21-19.311-7.11-38.64-13.55-10.851-3.61-11.29-24.86-11.29-24.86s-.691-78.31-.691-106.45c0-5.95 1.03-10.73 2.67-14.56l.73.31 41.26 14.29c-1.69 2.62-2.99 6.31-3.3 11.48-1.021 17.3 2.149 120.81 2.149 120.81s1.061 8.48 7.261 12.3z" fill="#c8c8c8"/><path d="m305.57 666.77 11.12-.6c41.81-2.85 47.54-38.39 47.54-38.39l2.91-27.69 5.29-50.22h-242.06l5.27 50.1 2.93 27.8s5.74 35.54 47.54 38.391l10.64.58 54.64 2.96v.01zm99.07-534.82v239.74c0 92.85-9.41 252.93-10.51 271.37-10.19 32.141-71.36 56.83-142.82 56.83-71.17 0-132.12-24.5-142.64-56.439-.94-15.811-10.54-178.12-10.54-271.87v-239.75s7.3-24 31.86-31.86c37.93-12.14 121.42-16.26 121.42-16.26s83.44 4.23 121.37 16.38c24.56 7.859 31.86 31.859 31.86 31.859zm-34.36 385.93 3.03-378.58h-122.91l-45.8.05-76.12.07 3.03 378.58s62.59 10.25 119.87 11.38l-.98-.12c57.29-1.14 119.88-11.38 119.88-11.38z" fill="#7a7878"/><path d="m394.13 643.06c-.07 1.15-.11 1.75-.11 1.75s-6.83 49.311-25.79 68.28-77.39 28.65-116.84 28.65l-.01-.11c-39.45 0-97.87-9.68-116.83-28.649-18.97-18.961-25.8-68.28-25.8-68.28s-.03-.431-.08-1.25c10.52 31.939 71.47 56.439 142.64 56.439 71.46 0 132.63-24.69 142.82-56.83zm-189.53-503.71 45.8-.05h122.91l-3.03 378.58s-62.59 10.24-119.88 11.38l.98.12c-57.28-1.13-119.87-11.38-119.87-11.38l-3.03-378.58zm138.32 332.88v-274.14h-184.1v274.14z" fill="#7a7878"/><g fill="#c8c8c8"><path d="m372.43 549.87-5.29 50.22-.45-.05h-50.49l-3.16-.49 7.71-49.62v-.06z"/><path d="m367.14 600.09-2.91 27.69s-5.73 35.54-47.54 38.39l-11.12.6 3.04-38.699 4.43-28.521 3.16.49h50.49zm-208.32-402h184.1v274.141h-184.1z"/><path d="m250.96 628h-57.24l-4.43-28.52-7.71-49.61h139.17v.06l-7.71 49.62-4.43 28.521h-57.65zm21.38-37.98v-2.22c0-8.38-6.79-15.17-15.16-15.17h-11.59c-8.38 0-15.16 6.79-15.16 15.17v2.22c0 8.37 6.78 15.171 15.16 15.171h11.59c8.37-.001 15.16-6.801 15.16-15.171z"/><path d="m251.39 669.7-54.64-2.96-3.03-38.74h57.24v.07h57.65l-3.04 38.7-54.18 2.94z"/></g><path d="m272.34 587.8v2.22c0 8.37-6.79 15.171-15.16 15.171h-11.59c-8.38 0-15.16-6.801-15.16-15.171v-2.22c0-8.38 6.78-15.17 15.16-15.17h11.59c8.37 0 15.16 6.79 15.16 15.17z" fill="#7a7878"/><path d="m193.72 628 3.03 38.74-10.64-.58c-41.8-2.851-47.54-38.391-47.54-38.391l-2.93-27.8h50.49l3.16-.489z" fill="#c8c8c8"/><path d="m181.58 549.87 7.71 49.61-3.16.49h-50.49l-5.27-50.1z" fill="#c8c8c8"/><g fill="none" stroke="#231f20"><path d="m108.67 643.45c-.94-15.811-10.54-178.12-10.54-271.87v-239.75s7.3-24 31.86-31.86c37.93-12.14 121.42-16.26 121.42-16.26s83.44 4.23 121.37 16.38c24.56 7.86 31.86 31.86 31.86 31.86v239.74c0 92.85-9.41 252.93-10.51 271.37-.07 1.15-.11 1.75-.11 1.75s-6.83 49.311-25.79 68.28-77.39 28.65-116.84 28.65l-.01-.11c-39.45 0-97.87-9.68-116.83-28.649-18.97-18.961-25.8-68.28-25.8-68.28s-.03-.431-.08-1.251z" stroke-width="21"/><path d="m250.4 529.26c57.29-1.14 119.88-11.38 119.88-11.38l3.03-378.58h-122.91l-45.8.05-76.12.07 3.03 378.58s62.59 10.25 119.87 11.38z" stroke-width="14"/><path d="m158.82 198.09h184.1v274.141h-184.1z" stroke-width="14"/><path d="m204.6 139.35h96.09" stroke-linecap="round" stroke-linejoin="round" stroke-width="31.44"/><path d="m395.04 639.5c-.23 1.2-.54 2.39-.91 3.56-10.19 32.141-71.36 56.83-142.82 56.83-71.17 0-132.12-24.5-142.64-56.439-.35-1.08-.65-2.181-.89-3.28" stroke-linecap="round" stroke-linejoin="round" stroke-width="21"/><path d="m251.39 669.71 54.18-2.94 11.12-.6c41.81-2.85 47.54-38.39 47.54-38.39l2.91-27.69 5.29-50.22h-242.06l5.27 50.1 2.93 27.8s5.74 35.54 47.54 38.391l10.64.58 54.64 2.96h.02" stroke-width="14"/><path d="m181.58 549.87 7.71 49.61 4.43 28.52h57.66m-115.73-28.03h50.48m7.59 28.03 3.03 38.74" stroke-width="14"/><path d="m320.75 549.93-7.71 49.62-4.43 28.52h-57.65m115.73-28.03h-50.49m-7.59 28.03-3.04 38.7v.04" stroke-width="14"/><path d="m272.34 590.02c0 8.37-6.79 15.171-15.16 15.171h-11.59c-8.38 0-15.16-6.801-15.16-15.171v-2.22c0-8.38 6.78-15.17 15.16-15.17h11.59c8.37 0 15.16 6.79 15.16 15.17z" stroke-width="20.96"/><g stroke-width="14"><path d="m787.19 96.43-187.6 41.92s-6 .33-9.93 6.49c-1.69 2.62-2.99 6.31-3.3 11.48-1.021 17.3 2.149 120.81 2.149 120.81s1.061 8.48 7.26 12.3c2.391 1.48 5.54 2.26 9.69 1.6 14.92-2.38 182.74-50.86 182.74-50.86v-14.69m-21.979 7.92.39.03"/><path d="m789.38 166.01-.92-.53-1.17-.67-15.65-9-2.56-1.47h-1.521c-13.699.01-27.239 14.05-31.72 34.55-3.83 17.49.23 34 9.23 42.01l.43.83 6.35.51 14.36 1.16"/><path d="m751.85 232.24c-7.01 5.97-16.859 7.61-23.56 5.82-18.24-4.82-27.16-30.77-19.97-57.93 7.21-27.17 27.819-45.27 46.05-40.44 7.71 2.04 14.43 6.67 17.38 15.92"/><path d="m789.56 163.56v-70.19l-54.47-13.9-166.92 35.26s-14.41 1.19-20.5 15.51c-1.64 3.83-2.67 8.61-2.67 14.56 0 28.14.69 106.45.69 106.45s.439 21.25 11.29 24.86c19.329 6.44 38.06 13.34 38.64 13.55l.01.01"/><path d="m548.4 130.55 41.26 14.29.2.07m197.1 20.47c9.85 5.58 14.71 21.41 11.021 38.32-1.921 8.8-5.841 16.38-10.74 21.76-5.851 6.41-13.11 9.69-20.07 8.18-.32-.07-.64-.15-.95-.24h-.01c-12.18-3.47-18.68-20.97-14.57-39.82 4.2-19.33 18-32.73 30.801-29.94 1.598.35 3.108.94 4.518 1.74zm-10.29-38.44c0 6.74-5.26 12.2-11.75 12.2s-11.76-5.46-11.76-12.2 5.27-12.21 11.76-12.21 11.75 5.47 11.75 12.21zm-112.56 28.13c.89 4.53-2.061 8.92-6.601 9.82l-31.05 6.07c-4.54.88-8.92-2.07-9.8-6.6a8.348 8.348 0 0 1 6.59-9.82l31.06-6.07a8.34 8.34 0 0 1 9.801 6.6z"/></g></g><path d="m0 0h850.394v850.394h-850.394z" fill="none"/></svg>