<svg height="850.394" viewBox="0 0 850.394 850.394" width="850.394" xmlns="http://www.w3.org/2000/svg"><path d="m481.8 703.32 12.101-.65c45.55-3.11 51.8-41.83 51.8-41.83l8.93-84.88h-131.84l-.04-.01h-131.851l8.93 84.88s6.26 38.72 51.8 41.84l11.6.63 59.53 3.21v.01zm107.93-582.7v261.2c0 101.15-10.25 275.55-11.461 295.67-11.079 35.02-77.739 61.92-155.6 61.92-77.51 0-143.89-26.66-155.4-61.46-1.02-17.05-11.5-194.04-11.5-296.25v-261.2s7.95-26.15 34.72-34.72c41.33-13.23 132.28-17.72 132.28-17.72s90.91 4.62 132.24 17.84c26.771 8.57 34.721 34.72 34.721 34.72zm-37.44 420.48 3.3-412.47h-133.91l-49.9.05-82.94.08 3.3 412.471s68.19 11.159 130.61 12.399l-1.07-.13c62.41-1.24 130.61-12.4 130.61-12.4z" fill="#c8c8c8"/><path d="m578.27 677.49c-.069 1.25-.109 1.91-.109 1.91s-7.44 53.729-28.11 74.39c-20.661 20.67-84.311 31.21-127.291 31.21l-.01-.12c-42.99 0-106.64-10.55-127.3-31.21-20.66-20.67-28.1-74.39-28.1-74.39s-.03-.45-.08-1.33c11.51 34.8 77.89 61.46 155.4 61.46 77.86 0 144.52-26.9 155.6-61.92z" fill="#787878"/><path d="m371.78 128.68 49.9-.05h133.91l-3.3 412.47s-68.2 11.16-130.61 12.4l1.07.13c-62.42-1.24-130.61-12.399-130.61-12.399l-3.3-412.471zm150.71 362.69v-298.68h-200.59v298.68z" fill="#c8c8c8"/><path d="m554.63 575.96-8.93 84.88s-6.25 38.72-51.8 41.83l-12.101.65 3.3-42.16 13.23-85.141v-.06h56.301z" fill="#787878"/><path d="m321.9 192.69h200.59v298.68h-200.59z" fill="#00efdc"/><path d="m422.28 661.09h-62.36l-13.22-85.13v-.01h76.05l.04.01h75.54v.06l-13.23 85.14h-62.82zm23.3-41.39v-2.41c0-9.13-7.4-16.53-16.521-16.53h-12.62c-9.13 0-16.53 7.4-16.53 16.53v2.41c0 9.13 7.4 16.53 16.53 16.53h12.62c9.121 0 16.521-7.4 16.521-16.53z" fill="#c8c8c8"/><path d="m422.76 706.51-59.53-3.21v-.01l-3.31-42.2h62.36v.07h62.82l-3.3 42.16-59.04 3.2z" fill="#c8c8c8"/><path d="m445.58 617.29v2.41c0 9.13-7.4 16.53-16.521 16.53h-12.62c-9.13 0-16.53-7.4-16.53-16.53v-2.41c0-9.13 7.4-16.53 16.53-16.53h12.62c9.121 0 16.521 7.4 16.521 16.53z" fill="#ffa500"/><path d="m299.83 660.83-8.93-84.88h55.8v.01l13.22 85.13 3.31 42.2v.01l-11.6-.63c-45.54-3.12-51.8-41.84-51.8-41.84z" fill="#787878"/><g fill="none"><g stroke="#000"><path d="m267.27 677.95c-1.02-17.05-11.5-194.04-11.5-296.25v-261.2s7.95-26.15 34.72-34.72c41.33-13.23 132.28-17.72 132.28-17.72s90.91 4.62 132.24 17.84c26.771 8.57 34.721 34.72 34.721 34.72v261.2c0 101.15-10.25 275.55-11.461 295.67-.069 1.25-.109 1.91-.109 1.91s-7.44 53.729-28.11 74.39c-20.661 20.67-84.311 31.21-127.291 31.21l-.01-.12c-42.99 0-106.64-10.55-127.3-31.21-20.66-20.67-28.1-74.39-28.1-74.39s-.03-.45-.08-1.33z" stroke-width="19.838"/><path d="m421.68 553.5c62.41-1.24 130.61-12.4 130.61-12.4l3.3-412.47h-133.91l-49.9.05-82.94.08 3.3 412.471s68.19 11.159 130.61 12.399z" stroke-width="19.838"/><path d="m321.9 192.69h200.59v298.68h-200.59z" stroke-width="13.226"/><path d="m371.78 128.68h104.69" stroke-linecap="round" stroke-linejoin="round" stroke-width="29.758"/><g stroke-width="19.838"><path d="m579.27 673.62c-.25 1.3-.59 2.59-1 3.87-11.079 35.02-77.739 61.92-155.6 61.92-77.51 0-143.89-26.66-155.4-61.46-.39-1.2-.73-2.4-.99-3.62" stroke-linecap="round" stroke-linejoin="round"/><path d="m346.7 575.96 13.22 85.13h62.83"/><path d="m422.76 706.52 59.04-3.199 12.101-.65c45.55-3.11 51.8-41.83 51.8-41.83l8.93-84.88h-131.84l-.04-.01h-131.851l8.93 84.88s6.26 38.72 51.8 41.84l11.6.63 59.53 3.21h.02m-126.13-75.961h55.01m8.26 30.54 3.31 42.2"/><path d="m498.33 576.02-13.23 85.14h-62.82m126.1-30.54h-55.01m-8.27 30.54-3.3 42.16v.04m-36.22-83.66c0 9.13-7.4 16.53-16.521 16.53h-12.62c-9.13 0-16.53-7.4-16.53-16.53v-2.41c0-9.13 7.4-16.53 16.53-16.53h12.62c9.12 0 16.521 7.4 16.521 16.53z"/></g></g><path d="m0 0h850.394v850.394h-850.394z"/></g></svg>