<svg height="850.394" viewBox="0 0 850.394 850.394" width="850.394" xmlns="http://www.w3.org/2000/svg"><path d="m568.89 312.73v104.34l-58.86-42.36z" fill="#c8c8c8"/><path d="m568.89 296.51v16.22l-58.86 61.98-33.25-23.93h-60.42v-105.31h60.42l92.11-66.3z" fill="#c8c8c8"/><path d="m365.46 653.04c-.07 1.1-.1 1.67-.1 1.67s-6.53 47.15-24.66 65.28-73.98 27.38-111.7 27.38v-.101c-37.72 0-93.57-9.25-111.7-27.38-18.13-18.14-24.66-65.279-24.66-65.279s-.03-.42-.07-1.221c10.03 30.551 68.3 53.98 136.36 53.98 68.31.001 126.79-23.599 136.53-54.329zm-116.43-52.83v2.12c0 8-6.49 14.5-14.49 14.5h-11.08c-8.01 0-14.5-6.5-14.5-14.5v-2.12c0-8.01 6.49-14.5 14.5-14.5h11.08c8 0 14.49 6.49 14.49 14.5z" fill="#7a7878"/><path d="m280.8 675.71 10.63-.58c39.97-2.72 45.45-36.7 45.45-36.7l2.79-26.47 5.05-48.01h-115.69l-.03-.01h-115.69l5.04 47.909 2.8 26.57s5.48 33.98 45.45 36.71l10.17.55 52.23 2.821v.01zm94.71-511.3v229.19c0 88.77-9 241.81-10.05 259.44-9.74 30.729-68.22 54.33-136.53 54.33-68.06 0-126.33-23.43-136.36-53.98-.92-15.27-10.09-170.32-10.09-259.89v-229.2s6.98-22.94 30.47-30.46c36.26-11.6 116.07-15.55 116.07-15.55s79.77 4.05 116.03 15.66c23.49 7.52 30.46 30.46 30.46 30.46zm-32.85 368.96 2.9-361.93h-117.5l-43.79.05-72.77.07 2.9 361.92s59.83 9.789 114.6 10.88l-.94-.11c54.77-1.09 114.6-10.88 114.6-10.88z" fill="#7a7878"/><path d="m184.27 171.49 43.79-.05h117.5l-2.9 361.93s-59.83 9.79-114.6 10.88l.94.11c-54.77-1.091-114.6-10.88-114.6-10.88l-2.9-361.92zm132.24 318.24v-262.08h-176v262.08z" fill="#7a7878"/><g fill="#c8c8c8"><path d="m229 678.5-52.23-2.82v-.01l-2.9-37.03h54.72v.07h55.12l-2.91 37-51.8 2.8zm-66.73-114.55 7.37 47.43-3.02.47h-48.27l-5.04-47.91h48.96zm182.45 0-5.05 48.01-.44-.05h-48.27l-3.02-.47 7.37-47.44v-.05z"/><path d="m228.59 638.64h-54.72l-4.23-27.26-7.37-47.43v-.01h66.73l.03.01h66.28v.05l-7.37 47.44-4.23 27.27h-55.12zm20.44-36.31v-2.12c0-8.01-6.49-14.5-14.49-14.5h-11.08c-8.01 0-14.5 6.49-14.5 14.5v2.12c0 8 6.49 14.5 14.5 14.5h11.08c8 0 14.49-6.5 14.49-14.5z"/><path d="m176.77 675.67v.01l-10.17-.55c-39.97-2.729-45.45-36.71-45.45-36.71l-2.8-26.57h48.27l3.02-.47 4.23 27.26zm162.9-63.71-2.79 26.47s-5.48 33.98-45.45 36.7l-10.63.58 2.91-37 4.23-27.27 3.02.47h48.27zm-199.16-384.31h176v262.081h-176z"/></g><g fill="none" stroke="#231f20"><path d="m92.57 653.39c-.92-15.27-10.09-170.32-10.09-259.89v-229.2s6.98-22.94 30.47-30.46c36.26-11.6 116.07-15.55 116.07-15.55s79.77 4.05 116.03 15.66c23.49 7.52 30.46 30.46 30.46 30.46v229.19c0 88.77-9 241.81-10.05 259.44-.07 1.1-.1 1.67-.1 1.67s-6.53 47.15-24.66 65.28-73.98 27.38-111.7 27.38v-.101c-37.72 0-93.57-9.25-111.7-27.38-18.13-18.14-24.66-65.279-24.66-65.279s-.03-.42-.07-1.22z" stroke-width="21"/><path d="m228.06 544.25c54.77-1.09 114.6-10.88 114.6-10.88l2.9-361.93h-117.5l-43.79.05-72.77.07 2.9 361.92s59.83 9.789 114.6 10.88z" stroke-width="14"/><path d="m140.51 227.65h176v262.081h-176z" stroke-width="14"/><path d="m184.27 171.49h91.87" stroke-linecap="round" stroke-linejoin="round" stroke-width="30.057"/><path d="m366.34 649.63c-.22 1.15-.52 2.28-.88 3.41-9.74 30.729-68.22 54.33-136.53 54.33-68.06 0-126.33-23.43-136.36-53.98a28.75 28.75 0 0 1 -.86-3.12" stroke-linecap="round" stroke-linejoin="round" stroke-width="21"/><g stroke-width="14"><path d="m229 678.51 51.8-2.8 10.63-.58c39.97-2.72 45.45-36.7 45.45-36.7l2.79-26.47 5.05-48.01h-115.69l-.03-.01h-115.69l5.04 47.909 2.8 26.57s5.48 33.98 45.45 36.71l10.17.55 52.23 2.821h.02"/><path d="m162.27 563.95 7.37 47.43 4.23 27.26h55.13m-110.65-26.79h48.27m7.25 26.79 2.9 37.03"/><path d="m295.31 564-7.37 47.44-4.23 27.27h-55.12m110.64-26.8h-48.27m-7.25 26.8-2.91 37v.03m-31.77-73.41c0 8-6.49 14.5-14.49 14.5h-11.08c-8.01 0-14.5-6.5-14.5-14.5v-2.12c0-8.01 6.49-14.5 14.5-14.5h11.08c8 0 14.49 6.49 14.49 14.5z"/></g><path d="m568.89 312.73v104.34l-58.86-42.36-33.25-23.93h-60.42v-105.31h60.42l92.11-66.3v117.34z" stroke-width="21"/><path d="m629.78 229.1c3.34 2.93 6.47 6.16 9.35 9.67 13.03 15.83 21 37.16 21 60.61 0 28.97-12.17 54.68-30.979 70.83m70.789-196.06c.1.09.21.18.31.27 32.63 28.8 53.67 73.97 53.67 124.75 0 51.53-21.64 97.27-55.11 125.99" stroke-width="28"/><path d="m430.09 458.88 79.94-84.17 58.86-61.98 70.24-73.96 61.12-64.35 69.09-72.75" stroke-width="21"/></g><path d="m0 0h850.394v850.394h-850.394z" fill="none"/></svg>