<svg height="850.394" viewBox="0 0 850.394 850.394" width="850.394" xmlns="http://www.w3.org/2000/svg"><path d="m441.877 484.375h80.74v80.73h-80.74z" fill="#efdcef"/><path d="m441.877 484.375h80.74v80.73h-80.74z" fill="none" stroke="#231f20" stroke-width="14"/><path d="m0 0h850.394v850.394h-850.394z" fill="none"/><path d="m147.71 158.5h80.74v80.73h-80.74z" fill="#efdcef"/><path d="m147.71 158.5h80.74v80.73h-80.74z" fill="none" stroke="#231f20" stroke-width="14"/><path d="m283.71 112.5h80.74v80.73h-80.74z" fill="#efdcef"/><path d="m283.71 112.5h80.74v80.73h-80.74z" fill="none" stroke="#231f20" stroke-width="14"/><path d="m583.71 572.5h80.74v80.73h-80.74z" fill="#efdcef"/><path d="m583.71 572.5h80.74v80.73h-80.74z" fill="none" stroke="#231f20" stroke-width="14"/><path d="m463.71 640.5h80.74v80.73h-80.74z" fill="#efdcef"/><path d="m463.71 640.5h80.74v80.73h-80.74z" fill="none" stroke="#231f20" stroke-width="14"/><ellipse cx="527.112" cy="591.926" fill="none" rx="223.912" ry="186.594" stroke="#231f20" stroke-width="7"/><path d="m472.396 243.17-30.009 89.859-85.38-41.239" fill="none" stroke="#000" stroke-linecap="round" stroke-linejoin="round" stroke-width="14"/><path d="m246.747 296c9.68-40.3 49.909-73.92 91.39-73.92 52.39 0 98.14 42.811 98.14 103.93" fill="none" stroke="#000" stroke-linecap="round" stroke-linejoin="round" stroke-width="14"/><path d="m119.101 284h91.321v89.5h-91.321z" fill="none"/><g fill="#5668af"><circle cx="210.422" cy="313.833" r="14.292"/><circle cx="210.422" cy="343.667" r="14.292"/><circle cx="179.981" cy="373.5" r="14.292"/><circle cx="149.541" cy="373.5" r="14.292"/><circle cx="119.101" cy="343.667" r="14.292"/><circle cx="119.101" cy="313.833" r="14.292"/><circle cx="149.542" cy="284" r="14.292"/><circle cx="179.982" cy="284" r="14.292"/><circle cx="210.422" cy="373.5" r="14.292"/><circle cx="119.101" cy="373.5" r="14.292"/><circle cx="119.102" cy="284" r="14.292"/><circle cx="210.422" cy="284" r="14.292"/></g><path d="m0 0h850.394v850.394h-850.394z" fill="none"/></svg>