<svg height="850.89" viewBox="0 0 850.89 850.89" width="850.89" xmlns="http://www.w3.org/2000/svg"><g fill="#efdcef"><path d="m363.55 728.24c-135.04 0-244.5-111.58-244.5-249.23 0-137.64 109.46-249.21 244.5-249.21 44.86 0 86.91 12.31 123.05 33.8 3.92 2.33 7.761 4.77 11.54 7.31l-138.31 207.79 244.7-42.09.109.63c2.25 13.58 3.42 27.54 3.42 41.77.001 137.65-109.459 249.23-244.509 249.23z"/><path d="m641.99 130.13c61.399 36.51 100.41 91.44 112.68 165.57l-3.229.5-241.58 40.96z"/></g><g fill="none"><g stroke="#50264c"><path d="m604.64 437.24c2.25 13.58 3.42 27.54 3.42 41.77 0 137.65-109.46 249.23-244.51 249.23-135.04 0-244.5-111.58-244.5-249.23 0-137.64 109.46-249.21 244.5-249.21 44.86 0 86.91 12.31 123.05 33.8m0 0c3.92 2.33 7.761 4.77 11.54 7.31" stroke-width="17.888"/><path d="m608.96 435.85-4.43.76-244.7 42.09 138.31-207.79" stroke-width="13.043"/><g stroke-width="14"><path d="m641.99 130.13c61.399 36.51 100.41 91.44 112.68 165.57" stroke-linecap="round" stroke-linejoin="round"/><path d="m751.44 296.2-241.58 40.96 132.13-207.03"/></g></g><path d="m.25.25h850.394v850.394h-850.394z"/><path d="m796.25 581.107-170.204-.212m39.355 56.178-49.701-56.596 49.48-56.82" stroke="#000" stroke-linecap="round" stroke-linejoin="round" stroke-width="14"/></g></svg>