<svg height="850.394" viewBox="0 0 850.394 850.394" width="850.394" xmlns="http://www.w3.org/2000/svg"><path d="m680.31 445.04c49.2 0 89.08 39.89 89.08 89.08 0 49.2-39.88 89.09-89.08 89.09-26.13 0-49.64-11.26-65.939-29.19l5.21-2.42 38.27-32.229.561-1.13a32.452 32.452 0 0 0 21.899 8.46c17.99 0 32.57-14.58 32.57-32.58 0-17.99-14.58-32.57-32.57-32.57-4.59 0-8.96.95-12.92 2.67l-20.81-52.56c10.399-4.271 21.789-6.621 33.729-6.621z" fill="#c8c8c8"/><path d="m667.39 504.22c3.96-1.72 8.33-2.67 12.92-2.67 17.99 0 32.57 14.58 32.57 32.57 0 18-14.58 32.58-32.57 32.58a32.45 32.45 0 0 1 -21.899-8.46c-6.55-5.96-10.67-14.561-10.67-24.12 0-7.53 2.56-14.47 6.85-19.98a32.621 32.621 0 0 1 12.799-9.92z" fill="#787878"/><path d="m555.26 343.08c.931-.62 1.66-1.19 2.141-1.67 7.06-7.07 105.949-3.14 105.949-17.27 0-5.83-11.649-16.63-25.33-27.29-19.43-15.14-42.949-30-42.949-30l6.67-6.67s90.649 63.18 90.649 93c0 13.52-3.17 21.35-10.6 29.18l-3.07-2.88s-6.18-4.69-42.05-10.6c-48.38-7.98-105.17 4.71-105.17 4.71s-24.33 16.48-61.22 41.59a68.65 68.65 0 0 0 -12.98 11.45c-23.609 26.83-22.38 67.51-17.63 90.58 5.5 26.69-16.48 44.74-51.8 40.03a101.37 101.37 0 0 0 -7.85-.74v-76.7-25.37c0-10.21-2.16-16.729-8.63-19.63l-13.01-5.81c.57-.24 22.38-9.26 48.83-20.36 30.78-12.91 67.85-28.64 85.05-36.61 0 0 50.38-20.43 63-28.94z" fill="#fff"/><path d="m678.72 379.48 3.07 2.88c-8.98 9.45-24.16 18.89-47.48 38.32-47.09 39.24-64.35 61.22-64.35 101.24 0 3.771.04 7.33.11 10.69l-111.95-105.26-.82-.72a68.65 68.65 0 0 1 12.98-11.45c36.89-25.11 61.22-41.59 61.22-41.59s56.79-12.69 105.17-4.71c35.87 5.91 42.05 10.6 42.05 10.6z" fill="#0b00ea"/><path d="m654.59 514.14a32.427 32.427 0 0 0 -6.85 19.98c0 9.56 4.12 18.16 10.67 24.12l-.561 1.13-38.269 32.23-5.21 2.42c-14.38-15.819-23.14-36.84-23.14-59.899 0-37.25 22.88-69.17 55.35-82.46l20.81 52.56a32.62 32.62 0 0 0 -12.8 9.919z" fill="#c8c8c8"/><path d="m638.02 296.85c13.681 10.66 25.33 21.46 25.33 27.29 0 14.13-98.89 10.2-105.949 17.27-.48.48-1.21 1.05-2.141 1.67-3.02-5.01-7.8-9.83-13.83-14.31l.57-.77s58.04-38.42 96.02-31.15z" fill="#a3d9ff"/><path d="m622.19 221.3s18.149 5.52 10.56 30.37l-2.77.12-.37-3.25h-17.79zm-37.85 49.48-3.17 2.28-12.99 12.15-11.029-26.98c-.001 0 15.799-7.76 27.189 12.55zm-218.33 285.8c4.48-.3 9.17-.36 14.01-.08 2.58.14 5.2.39 7.85.74 35.32 4.71 57.3-13.34 51.8-40.03-4.75-23.07-5.979-63.75 17.63-90.58l.82.72 111.95 105.26c.66 32.229 4.199 45.43 4.199 45.43l-258.599 1.96 7.06-12.56s18.33-9.17 43.28-10.86z" fill="#0b00ea"/><path d="m541.43 328.77c6.03 4.48 10.811 9.3 13.83 14.31-12.62 8.51-63 28.94-63 28.94-17.2 7.97-54.27 23.7-85.05 36.61l-147.27-65.65 107.53 12.56s33.53-48.28 63.57-54.16c31.02-6.08 83.3 7.26 110.39 27.39z" fill="#a3d9ff"/><path d="m259.94 342.98 147.27 65.65c-26.45 11.1-48.26 20.12-48.83 20.36l-73.23-32.73-25.93-11.59-131.92-58.96-7.85-19.62h111.45z" fill="#0b00ea"/><g fill="#c8c8c8"><path d="m380.02 479.8v76.7c-4.84-.28-9.53-.22-14.01.08l-62.99-34.19c-1.58-37.27-26.07-68.62-59.76-80.31v-.01l.74-2.07 14.99-15.94 119.46 55.74z"/><path d="m358.38 428.99 13.01 5.81c6.47 2.9 8.63 9.42 8.63 19.63v25.37h-1.57l-119.46-55.74 26.16-27.8zm-55.36 93.4c.06 1.271.09 2.561.09 3.851 0 49.189-39.88 89.08-89.08 89.08-26.14 0-49.64-11.261-65.94-29.19l5.2-2.41 38.27-32.239.57-1.131a32.482 32.482 0 0 0 21.9 8.46c17.99 0 32.57-14.579 32.57-32.569 0-9.561-4.11-18.15-10.67-24.11l2.07-.132 10.44-9.24z"/><path d="m188.31 506.26c-4.3 5.51-6.85 12.45-6.85 19.98 0 9.56 4.11 18.149 10.67 24.109l-.57 1.131-38.27 32.239-5.2 2.41c-14.38-15.82-23.14-36.83-23.14-59.89 0-30.55 5.6-56.19 29.05-72.24l1.7-2.68 5.29 3.35 48.76 30.91c1.81 1.14 3.85 1.68 5.93 1.68 4.7 0 9.62-2.74 12.67-7.56 4.41-6.95 3.23-15.601-2.64-19.33l-32.66-20.7c7.7-2.17 12.57-2.51 20.98-2.51 5.41 0 10.71.479 15.86 1.41 4.59.819 9.06 2 13.37 3.5v.01c33.69 11.689 58.18 43.04 59.76 80.31l-54.58-29.63-10.44 9.241-2.07.13a32.482 32.482 0 0 0 -21.9-8.46c-10.46 0-19.77 4.93-25.72 12.59zm70.91-121.59 25.93 11.59-26.16 27.8-12.99-6.06-3.67-2.05 14.47-25.88z"/><path d="m258.99 424.06-14.99 15.94-.74 2.07a87.387 87.387 0 0 0 -13.37-3.5l.11-.57 12.33-22.05 3.67 2.05z"/></g><path d="m188.31 506.26c5.95-7.66 15.26-12.59 25.72-12.59 8.43 0 16.12 3.21 21.9 8.46 6.56 5.96 10.67 14.55 10.67 24.11 0 17.99-14.58 32.569-32.57 32.569-8.43 0-16.12-3.21-21.9-8.46-6.56-5.96-10.67-14.55-10.67-24.109 0-7.53 2.55-14.47 6.85-19.98z" fill="#787878"/><path d="m98.88 393.89c2.98-3.23 6.93-5.01 10.72-5.01 2.09 0 4.13.54 5.94 1.68l77.51 49.11 32.66 20.7c5.87 3.729 7.05 12.38 2.64 19.33-3.05 4.819-7.97 7.56-12.67 7.56-2.08 0-4.12-.54-5.93-1.68l-48.76-30.91-5.29-3.35-56.12-35.57c-5.87-3.71-7.06-12.37-2.65-19.32.59-.92 1.24-1.77 1.95-2.54z" fill="#c8c8c8"/><g fill="none" stroke="#231f20"><path d="m193.05 439.67c7.7-2.17 12.57-2.51 20.98-2.51 5.41 0 10.71.479 15.86 1.41 4.59.819 9.06 2 13.37 3.5v.01c33.69 11.689 58.18 43.04 59.76 80.31.06 1.271.09 2.561.09 3.851 0 49.189-39.88 89.08-89.08 89.08-26.14 0-49.64-11.261-65.94-29.19-14.38-15.82-23.14-36.83-23.14-59.89 0-30.55 5.6-56.19 29.05-72.24" stroke-width="28"/><path d="m235.93 502.13c6.56 5.96 10.67 14.55 10.67 24.11 0 17.99-14.58 32.569-32.57 32.569-8.43 0-16.12-3.21-21.9-8.46-6.56-5.96-10.67-14.55-10.67-24.109 0-7.53 2.55-14.471 6.85-19.98 5.95-7.66 15.26-12.59 25.72-12.59 8.43 0 16.12 3.21 21.9 8.46z" stroke-width="21"/><path d="m150.06 474.05 38.25 32.21.02.02m85.16-35.69-25.05 22.17-10.44 9.24m36.41 80.57-38.27-32.23m-82.85 33.38 38.27-32.24" stroke-width="21"/><path d="m646.58 451.66c10.4-4.271 21.79-6.62 33.729-6.62 49.2 0 89.08 39.89 89.08 89.08 0 49.2-39.88 89.09-89.08 89.09-26.13 0-49.64-11.26-65.939-29.19-14.38-15.819-23.14-36.84-23.14-59.899 0-37.251 22.88-69.171 55.35-82.461z" stroke-width="28"/><g stroke-width="21"><path d="m667.39 504.22c3.96-1.72 8.33-2.67 12.92-2.67 17.99 0 32.57 14.58 32.57 32.57 0 18-14.58 32.58-32.57 32.58a32.45 32.45 0 0 1 -21.899-8.46c-6.55-5.96-10.67-14.561-10.67-24.12 0-7.53 2.56-14.47 6.85-19.98a32.621 32.621 0 0 1 12.799-9.92z"/><path d="m616.35 481.93 38.24 32.21.03.03m82.85-33.38-31.47 27.21m34.7 82.46-38.27-32.24m-82.85 33.38 38.27-32.23m-496.86-104.7-5.29-3.35-56.12-35.57c-5.87-3.71-7.06-12.37-2.65-19.32.59-.92 1.24-1.77 1.95-2.54 2.98-3.23 6.93-5.01 10.72-5.01 2.09 0 4.13.54 5.94 1.68l77.51 49.11 32.66 20.7c5.87 3.729 7.05 12.38 2.64 19.33-3.05 4.819-7.97 7.56-12.67 7.56-2.08 0-4.12-.54-5.93-1.68zm72.09 29.76 15.36 8.33 54.58 29.63 62.99 34.19.03.02"/><path d="m81 383.79 17.88 10.1.01.01m281.13 163.34v-.74-76.7-25.37c0-10.21-2.16-16.729-8.63-19.63l-13.01-5.81-73.23-32.73-25.93-11.59-131.92-58.96-7.85-19.62h111.45l29.04 36.89 107.53 12.56s33.53-48.28 63.57-54.16c31.02-6.08 83.3 7.26 110.39 27.39 6.03 4.48 10.811 9.3 13.83 14.31.07.1.12.19.181.29"/><path d="m358.37 428.99h.01c.57-.24 22.38-9.26 48.83-20.36 30.78-12.91 67.85-28.64 85.05-36.61 0 0 50.38-20.43 63-28.94.931-.62 1.66-1.19 2.141-1.67 7.06-7.07 105.949-3.14 105.949-17.27 0-5.83-11.649-16.63-25.33-27.29-19.43-15.14-42.949-30-42.949-30l6.67-6.67s90.649 63.18 90.649 93c0 13.52-3.17 21.35-10.6 29.18-8.98 9.45-24.16 18.89-47.48 38.32-47.09 39.24-64.35 61.22-64.35 101.24 0 3.771.04 7.33.11 10.69.66 32.229 4.199 45.43 4.199 45.43l-258.599 1.96 7.06-12.56s18.33-9.171 43.28-10.86c4.48-.3 9.17-.36 14.01-.08 2.58.14 5.2.39 7.85.74 35.32 4.71 57.3-13.34 51.8-40.03-4.75-23.07-5.979-63.75 17.63-90.58a68.65 68.65 0 0 1 12.98-11.45c36.89-25.11 61.22-41.59 61.22-41.59l-9.03-9.03"/><path d="m458.12 427.35 111.95 105.26.18.17"/></g><path d="m531.5 373.59s56.79-12.69 105.17-4.71c35.87 5.91 42.05 10.6 42.05 10.6" stroke-width="18.836"/><path d="m407.21 408.63-147.27-65.65" stroke-width="21"/><path d="m632.62 283.49c0-7.22-1.84-24.49-2.64-31.7l-.37-3.25h-17.79l10.37-27.24s18.149 5.52 10.56 30.37m-25.49 44.85c-6.31-6.74-26.09-23.46-26.09-23.46l-12.99 12.15-11.029-26.98s15.8-7.76 27.189 12.55c.43.77.851 1.58 1.271 2.43m-43.611 54.79s58.04-38.42 96.02-31.15m-408.02 141.15 12.33-22.05 14.47-25.88m-12.8 49.93 14.99-15.94 26.16-27.8" stroke-width="14"/><path d="m634.31 420.68 12.27 30.98 20.81 52.56 13.23 33.4" stroke-linecap="round" stroke-linejoin="round" stroke-width="21"/><path d="m246 418 12.99 6.06 119.46 55.74" stroke-width="21"/></g><path d="m0 0h850.394v850.394h-850.394z" fill="none"/><path d="m0 0h850.394v850.394h-850.394z" fill="none"/></svg>