<svg height="850.394" viewBox="0 0 850.394 850.394" width="850.394" xmlns="http://www.w3.org/2000/svg"><path d="m592.97 436.75c-38.319 23.3-88.279 52.78-124.81 71.08-5.601 2.8-10.88 5.34-15.76 7.56-45.521 20.69-105.82-13.29-105.82-13.29s-39.83-20.58-77.75-42.109l.85-1.5c97.69-73.84 121.04-98.99 141.25-120.58 7.42-2.86 17.6-4.32 22.209-1.78 8.351 4.6 4.95 16.03 11.67 20.68 15.341 10.62 15.521-22.53 24.521-27.67 19.22-10.98 21.59 24.69 23.25 33.94 2.64 14.71 11 15.59 18.16 14.7 9.479-1.16 8.29-10.74 8.279-18.56-.029-9.11 14.94-38.4 35.921-21.84 12.729 18.81 29.989 45.17 56.779 83.86l1.42 3.16a4770.23 4770.23 0 0 1 -20.169 12.349z" fill="#9c5c25"/><path d="m209.96 651.99c89.62-38.12 258.36-143.84 258.36-143.84l-.16-.32c36.53-18.3 86.49-47.78 124.81-71.08-4.3 4.34-8.97 9.26-11.38 14.28-6.38 13.239 12.78 12.439 22.49 15.04 18.54 4.96 10.68 31.76 36.61 26.5 8.93-1.811 16.579-11.551 25.85-11.92 9.16-.36 19.51 6.949 27.61 10.619 7.88 3.561 19.06 7.37 27.25 1.931 14.51 34.46 36.84 86.75 49.02 99.78l2.79-.16c1.62 24.32 2.79 96.19 2.79 181.18-314.17 0-568.4-54.12-568.4-121.01.78-.33 1.57-.66 2.36-1zm271.6 44.09h29.131l-14.57-37.74-14.561-37.76-14.56 37.76-14.56 37.74zm79.28-56.04h29.12l-14.56-37.75-14.561-37.75-14.57 37.75-14.56 37.75zm69.83 71.39h29.12l-14.56-37.75-14.561-37.75-14.56 37.75-14.57 37.75zm94.67-24.83h29.12l-14.56-37.75-14.56-37.75-14.57 37.75-14.56 37.75z" fill="#abd150"/><path d="m346.58 502.1s60.3 33.98 105.82 13.29c4.88-2.22 10.159-4.76 15.76-7.56l.16.32s-168.74 105.72-258.36 143.84c-67.35-.34-122.52-9.04-132.39-20.351l59.16-116.699c7.97 3.829 18.11.319 25.4-2.98 8.1-3.66 18.46-10.979 27.61-10.62 9.28.37 16.93 10.12 25.85 11.93 25.93 5.261 18.07-21.55 36.61-26.51 9.72-2.59 28.87-1.8 22.5-15.04-2.67-5.55-8.11-11-12.75-15.66 2.28 1.311 4.58 2.62 6.88 3.931 37.92 21.529 77.75 42.109 77.75 42.109z" fill="#58b947"/><path d="m721.4 493.2c-8.19 5.439-19.37 1.63-27.25-1.931-8.101-3.67-18.45-10.979-27.61-10.619-9.271.369-16.92 10.109-25.85 11.92-25.931 5.26-18.07-21.54-36.61-26.5-9.71-2.601-28.87-1.801-22.49-15.04 2.41-5.021 7.08-9.94 11.38-14.28 7.19-4.38 13.971-8.53 20.17-12.35 2.96-1.82 5.78-3.57 8.46-5.23 37.051-22.97 57.78-16.55 87.431 45.2 2.209 4.6 6.689 15.35 12.369 28.83zm-446.7-21.48c6.37 13.24-12.78 12.45-22.5 15.04-18.54 4.96-10.68 31.771-36.61 26.51-8.92-1.81-16.57-11.56-25.85-11.93-9.15-.359-19.51 6.96-27.61 10.62-7.29 3.3-17.43 6.81-25.4 2.98l17.08-33.69c31.03-53.8 43.83-64.36 80.88-41.39 8.33 5.159 17.65 10.67 27.26 16.199 4.64 4.661 10.08 10.111 12.75 15.661zm233.31-186.27c17.73 11 26.471 21.71 46.931 51.93-20.98-16.56-35.95 12.73-35.921 21.84.011 7.82 1.2 17.4-8.279 18.56-7.16.89-15.521.01-18.16-14.7-1.66-9.25-4.03-44.92-23.25-33.94-9 5.14-9.18 38.29-24.521 27.67-6.72-4.65-3.319-16.08-11.67-20.68-4.609-2.54-14.79-1.08-22.209 1.78 8.9-9.51 17.19-18.32 30.959-30.31 22.97-20 44.63-35.49 66.12-22.15z" fill="#fff"/><path d="m238.44 139.94c28.18 0 51.02 22.84 51.02 51.02s-22.84 51.03-51.02 51.03-51.02-22.85-51.02-51.03 22.84-51.02 51.02-51.02z" fill="#fbed24"/><path d="m739.9 648.85 14.56 37.75h-58.25l14.56-37.75 14.57-37.75zm-94.67 24.83 14.56 37.75h-58.25l14.57-37.75 14.56-37.75zm-69.83-71.39 14.56 37.75h-58.25l14.56-37.75 14.57-37.75zm-79.28 56.05 14.57 37.74h-58.25l14.56-37.74 14.56-37.76z" fill="#34a047"/><g fill="none"><g stroke="#231f20"><path d="m269.68 458.49c97.69-73.84 121.04-98.99 141.25-120.58 8.9-9.51 17.19-18.32 30.959-30.31 22.971-20 44.63-35.49 66.12-22.15 17.73 11 26.471 21.71 46.931 51.93 12.729 18.81 29.989 45.17 56.779 83.86" stroke-width="18.623"/><path d="m289.46 190.96c0 28.18-22.84 51.03-51.02 51.03s-51.02-22.85-51.02-51.03 22.84-51.02 51.02-51.02 51.02 22.84 51.02 51.02zm-51.43-60.31v-38.83m-30.95 46.38-21.45-32.36m-.78 56.21-35.17-16.43m120.42-8.04 21.44-32.36m.79 56.21 35.17-16.43m-58.68 99.15 21.46 32.35m.78-56.21 35.16 16.44m-120.42 8.04-21.44 32.35m-.79-56.2-35.16 16.43m29.22-45.79h-38.83m198.67 0h-38.82m-60.62 97.74v-38.83" stroke-width="15.519"/><path d="m133.9 513.19c.9.699 1.85 1.279 2.83 1.75 7.97 3.829 18.11.319 25.4-2.98 8.1-3.66 18.46-10.979 27.61-10.62 9.28.37 16.93 10.12 25.85 11.93 25.93 5.261 18.07-21.55 36.61-26.51 9.72-2.59 28.87-1.8 22.5-15.04-2.67-5.55-8.11-11-12.75-15.66a209.754 209.754 0 0 1 -3.06-3.109" stroke-width="12.415"/><path d="m77.24 632.3.33-.66 59.16-116.699 17.08-33.69c31.03-53.8 43.83-64.36 80.88-41.39 8.33 5.159 17.65 10.67 27.26 16.199 2.28 1.311 4.58 2.62 6.88 3.931 37.92 21.529 77.75 42.109 77.75 42.109s60.3 33.98 105.82 13.29c4.88-2.22 10.159-4.76 15.76-7.56 36.53-18.3 86.49-47.78 124.81-71.08 7.19-4.38 13.971-8.53 20.17-12.35 2.96-1.82 5.78-3.57 8.46-5.23 37.051-22.97 57.78-16.55 87.431 45.2 2.21 4.6 6.689 15.35 12.37 28.83 14.51 34.46 36.84 86.75 49.02 99.78" stroke-width="18.623"/><path d="m722.38 492.5c-.32.25-.649.49-.979.7-8.19 5.439-19.37 1.63-27.25-1.931-8.101-3.67-18.45-10.979-27.61-10.619-9.271.369-16.92 10.109-25.85 11.92-25.931 5.26-18.07-21.54-36.61-26.5-9.71-2.601-28.87-1.801-22.49-15.04 2.41-5.021 7.08-9.94 11.38-14.28 1.561-1.59 3.08-3.09 4.42-4.5m-193.221-90.67c1.57-1.33 3.97-2.6 6.76-3.67 7.42-2.86 17.6-4.32 22.209-1.78 8.351 4.6 4.95 16.03 11.67 20.68 15.341 10.62 15.521-22.53 24.521-27.67 19.22-10.98 21.59 24.69 23.25 33.94 2.64 14.71 11 15.59 18.16 14.7 9.479-1.16 8.29-10.74 8.279-18.56-.029-9.11 14.94-38.4 35.921-21.84 1.779 1.4 3.6 3.13 5.46 5.23" stroke-width="12.415"/><path d="m468.32 508.15s-168.74 105.72-258.36 143.84c-.79.34-1.58.67-2.36 1m273.96 43.09h-29.12l14.56-37.74 14.56-37.76 14.56 37.76 14.57 37.74zm0 0v48.99m79.28-105.03h-29.13l14.56-37.75 14.57-37.75 14.56 37.75 14.56 37.75zm0 0v48.98m69.83 22.41h-29.13l14.57-37.75 14.56-37.75 14.56 37.75 14.56 37.75zm0 0v48.98m94.67-73.81h-29.13l14.56-37.75 14.57-37.75 14.56 37.75 14.56 37.75zm0 0v48.98" stroke-width="18.623"/></g><path d="m0 0h850.394v850.394h-850.394z"/></g></svg>