<svg height="850" viewBox="0 0 850 850" width="850" xmlns="http://www.w3.org/2000/svg"><path d="m230.5 407.3v1.5l-.5 1.7-1.5 4.5-2.5 5.3-3 5.7-3.2 5.8-3.5 5-1.8 2.2-1.5 1.8-1.7 1.5-1.5 1-.5-.3-.3-.5-.5-.7v-1.3l.3-1.2v-2.8l-.5-1-.5-.7-.8-.3-1.5 1.5-1.7 2.3-4 5-2 2.5-2 1.7-1.3.8-1 .5-1 .2-1.2-.2-1.8-.8-1.7-1-1.3-1.7-1.2-1.8-1-2-.8-2.2-.2-2v-1.8l.2-3.5.5-5 1-5.7 1.5-6.5 2-7 1.3-3.5 1.2-3.5 1.5-3.5 1.8-3.3 2-3.2 2-3 5.5-7.3.7.3 26.8 25.7v.3zm197-344.3h2.3l2.2.3 2.3.2 2.2.5 4.3 1.5 4 2.3 4 2.5 3.7 3 3.3 3.5 3.2 3.7 2.8 4.3 2.7 4.7 2 5 2 5.3 1.5 5.5 1 5.7.8 6 .2 6-.2 4-.3 3.8-.2 3.7-.8 3.8-.7 3.5-1 3.5-1 3.2-1.3 3.5-1.2 3-1.5 3-1.8 3-1.7 2.8-1.8 2.5-2 2.5-2 2.2-2.2 2.3-2.8 2.2-2.7 2-3 1.8-3 1.2-3.3 1.3-3.2.7-3.3.5-3.5.3h-3l-2.7-.5-3-.8-2.8-.7-2.7-1.3-2.8-1.2-2.5-1.8-2.5-1.7-2.5-2-2.2-2.3-2.3-2.5-2-2.5-2-3-2-3-1.5-3-1.5-3.2-1.5-3.5-1.2-3.5-1-3.8-1-3.7-.5-4-.5-4-.5-4v-4.3l.2-6 .8-6 1-5.7 1.5-5.5 1.7-5.3 2.3-5 2.5-4.7 3-4.3 3-3.7 3.5-3.5 3.7-3 3.8-2.5 4.2-2.3 4.3-1.5 2-.5 2.2-.2 2.3-.3z" fill="#ffeec8"/><path d="m462 188 .5.3-1.2 1.5-.8 2.5-1.2 2.5-1.3 2.2-1.5 2.3-1.7 2.2-1.8 2-2 1.8-2.2 1.5-2.3 1.5-2.5 1.2-2.5 1-2.7 1-3 .5-3 .5-3 .3h-6l-2.8-.5-2.7-.5-2.8-1-2.7-1-2.5-1-2.5-1.3-2.5-1.5-2.3-1.7-2.2-1.5-2-2-1.8-1.8-1.7-2-1.5-2.2-1.3-2-1-2.3-4-.2 4-1.5v.2l1.5-.7 1.5-.8 2.8-2 2-2 2-2.2 1.2-2 1.3-1.8.7-1.5 1-.7 2.5 1.7 2.5 1.8 2.8 1.2 2.7 1.3 2.8.7 3 .8 2.7.5h3l3.5-.3 3.3-.5 3.2-.7 3.3-1.3 3-1.2 3-1.8 2.7-2 2.8-2.2.2.2.8 1.8 1.7 4 1.5 2.5 1.5 2.5 1.8 2 1 1zm232.3-17.7 1.7 1 1.5 1.2 1 1.8 1 2 .8 2.2.2 2.3.3 2-.3 1.7-.7 3.5-1.5 4.8-1.8 5.7-2.2 6.3-3 6.5-1.8 3.2-1.7 3.3-2 3.2-2.3 3-2.2 3-2.5 2.8-2.3 2.5-1.7-1.5-24-23.8-1.3-1.2.5-1.3.5-1.7 2.3-4.3 3-5 3.7-5.2 4.3-5.3 4-4.5 2-1.7 2-1.5 1.7-1.3 1.8-.7.5.2.2.5.3 1-.3 1-.2 1.3-.3 1.2-.2 1.5.5 1.3.2.5.8.5 1.7-1.3 2-2 4.5-4.5 2.5-2 2.3-1.7 1.2-.5 1-.3h1.3z" fill="#ffeec8"/><path d="m403 736 1 2.5.3 2.3v1.7l-.3 1.8-.7 1.5-1 1.2-1 1-1.3 1-3 1.5-2.7 1-2.3 1.3-1 .5-.7.7-2 2.8-1.5 3.2-1.3 3.3-1.2 3.2-1.3 3.5-1.5 3.3-2 3.2-2.2 3.3-2.8 2.5-1.5 1.2-1.5 1-1.7 1-2 .8-1.8.5-2.2.2-1.5.3-1.5-.3-1.8-.5-1.5-.5-1.7-.7-1.5-1-1.5-1.3-1.5-1.2-1-1.5-1-1.5-.8-1.8-.5-1.7-.2-2v-2l.7-2.3.8-2 3.7-6.7 3.8-6.8 3.7-6.5 3-6.5 39.3-.2zm104.8 31 1 2 .5 2.3v4l-.5 1.7-.8 1.8-1 1.5-1.2 1.5-1.5 1.2-1.5 1.3-1.5 1-1.5.7-1.8.5-1.7.5-1.5.3-1.5-.3-2-.2-2-.5-1.8-.8-1.7-1-1.8-1-1.5-1.2-2.7-2.5-2.3-3.3-2-3.2-1.5-3.3-1.2-3.5-1.3-3.2-1.2-3.3-1.5-3.2-2-2.8-.5-.5-1-.7-2.5-.8-2.8-1-3-1.2-1.5-.8-1.2-.7-1.3-1-1-1-.5-1.3-.5-1.7-.2-1.8.5-2v.8h42.5v1l3.2 6.2 3.5 6.5 3.8 6.5z" fill="#231f20"/><path d="m363.5 740.5h-12.2l-.3-8-.2-13.2.2-38.5.5-49.8 1-55.2 1.8-101.8.7-50.5v-6.2h144v6.7l2.5 162.5 2.8 153.8h-53v-.8l-23.5-257v-1l-24.8 254.5-.2 4.3z" fill="#7a7878"/><path d="m257 309.3 11.5-14.8 19.8-25 15.7-19 12-14 4.8-5.5 4.5-4.5 3.7-3.7 3.5-3 3-2.5 2.8-2.3 5.5-3.2 5.5-3.3 7.2-4.2 7.3-3.8 7-3.2 6.7-3 10-4 4 .2 1 2.3 1.3 2 1.5 2.2 1.7 2 1.8 1.8 2 2 2.2 1.5 2.3 1.7 2.5 1.5 2.5 1.3 2.5 1 2.7 1 2.8 1 2.7.5 2.8.5h6l3-.3 3-.5 3-.5 2.7-1 2.5-1 2.5-1.2 2.3-1.5 2.2-1.5 2-1.8 1.8-2 1.7-2.2 1.5-2.3 1.3-2.2 1.2-2.5.8-2.5 1.2-1.5-.5-.3.3-.7 5.5 2 6 2.2 7.2 3 8 4 4 2 4 2.3 4 2.5 3.5 2.5 3.5 2.7 3 2.8 4.8 9.2 11.7 22.3 6.8 13.5 6.5 13.2 6 12.5 4.5 10.5 98.2-88.7 1.3 1.2 24 23.8 1.7 1.5-20.5 23-33 35.7-17.2 18.8-16.3 17-13.5 13.5-5.5 5.2-4 3.5-2.2 1.8-2.8 1.7-3.5 1.8-1.7.7-2 .8-2.3.5-2 .2h-2.2l-2.5-.2-2.3-.5-2.2-1-2.5-1.5-2.3-1.8-7-5.7-4.7-4.3-5.5-5-5.8-5.5-5.5-5.7-5.2-6-2.5-3.3-2-3 .5 83.5.5 9.8.2 11h-144l-.5-30-1.2-35.5-2.5-64-119.5 119v-.3l-26.8-25.7-.7-.3 23.2-31.5 15-20z" fill="#a9d7f3"/><g fill="none" stroke="#231f20" stroke-linecap="round" stroke-miterlimit="10"><path d="m405.5 175.3-2.5-2-2.2-2.3-2.3-2.5-2-2.5-2-3-2-3-1.5-3-1.5-3.2-1.5-3.5-1.2-3.5-1-3.8-1-3.7-.5-4-.5-4-.5-4v-4.3l.2-6 .8-6 1-5.7 1.5-5.5 1.7-5.3 2.3-5 2.5-4.7 3-4.3 3-3.7 3.5-3.5 3.7-3 3.8-2.5 4.2-2.3 4.3-1.5 2-.5 2.2-.2 2.3-.3h4.5l2.2.3 2.3.2 2.2.5 4.3 1.5 4 2.3 4 2.5 3.7 3 3.3 3.5 3.2 3.7 2.8 4.3 2.7 4.7 2 5 2 5.3 1.5 5.5 1 5.7.8 6 .2 6-.2 4-.3 3.8-.2 3.7-.8 3.8-.7 3.5-1 3.5-1 3.2-1.3 3.5-1.2 3-1.5 3-1.8 3-1.7 2.8-1.8 2.5-2 2.5-2 2.2-2.2 2.3-2.8 2.2-2.7 2-3 1.8-3 1.2-3.3 1.3-3.2.7-3.3.5-3.5.3h-3l-2.7-.5-3-.8-2.8-.7-2.7-1.3-2.8-1.2-2.5-1.8zm92.8 224v-2.8l-.5-83.5-.3-27.7" stroke-width="14"/><path d="m350 269.8.8 18 2.5 64 1.2 35.5.5 30v6.2l-.7 50.5-1.8 101.8-1 55.2-.5 49.8-.2 38.5.2 13.2.3 8h12.2l39.3-.2.2-4.3 24.8-254.5v1l23.5 257v.8h53l-2.8-153.8-2.5-162.5v-6.7l-.2-11-.5-9.8m-140.3 20.8h137.8m-297.5-29.5 5.5-7.3 23.2-31.5 15-20 15-19.7 11.5-14.8 19.8-25 15.7-19 12-14 4.8-5.5 4.5-4.5 3.7-3.7 3.5-3 3-2.5 2.8-2.3 5.5-3.2 5.5-3.3 7.2-4.2 7.3-3.8 7-3.2 6.7-3 10-4 4-1.5" stroke-width="14"/><path d="m198.3 387.8-2 3-2 3.2-1.8 3.3-1.5 3.5-1.2 3.5-1.3 3.5-2 7-1.5 6.5-1 5.7-.5 5-.2 3.5v1.8l.2 2 .8 2.2 1 2 1.2 1.8 1.3 1.7 1.7 1 1.8.8 1.2.2 1-.2 1-.5 1.3-.8 2-1.7 2-2.5 4-5 1.7-2.3 1.5-1.5.8.3.5.7.5 1v2.8l-.3 1.2v1.3l.5.7.3.5.5.3 1.5-1 1.7-1.5 1.5-1.8 1.8-2.2 3.5-5 3.2-5.8 3-5.7 2.5-5.3 1.5-4.5.5-1.7v-1.5l.8-.5 119.5-119m-146.3 93 26.8 25.7m231-219.2 5.5 2 6 2.2 7.2 3 8 4 4 2 4 2.3 4 2.5 3.5 2.5 3.5 2.7 3 2.8 4.8 9.2 11.7 22.3 6.8 13.5 6.5 13.2 6 12.5 4.5 10.5" stroke-width="14"/><path d="m678.8 229.8-2.3 2.5-20.5 23-33 35.7-17.2 18.8-16.3 17-13.5 13.5-5.5 5.2-4 3.5-2.2 1.8-2.8 1.7-3.5 1.8-1.7.7-2 .8-2.3.5-2 .2h-2.2l-2.5-.2-2.3-.5-2.2-1-2.5-1.5-2.3-1.8-7-5.7-4.7-4.3-5.5-5-5.8-5.5-5.5-5.7-5.2-6-2.5-3.3-2-3" stroke-width="14"/><path d="m544 301 7.3-6.5 98.2-88.7.5-1.3.5-1.7 2.3-4.3 3-5 3.7-5.2 4.3-5.3 4-4.5 2-1.7 2-1.5 1.7-1.3 1.8-.7.5.2.2.5.3 1-.3 1-.2 1.3-.3 1.2-.2 1.5.5 1.3.2.5.8.5 1.7-1.3 2-2 4.5-4.5 2.5-2 2.3-1.7 1.2-.5 1-.3h1.3l1 .3 1.7 1 1.5 1.2 1 1.8 1 2 .8 2.2.2 2.3.3 2-.3 1.7-.7 3.5-1.5 4.8-1.8 5.7-2.2 6.3-3 6.5-1.8 3.2-1.7 3.3-2 3.2-2.3 3-2.2 3-2.5 2.8m-4 1-24-23.8m-189.5-17.2-.8 2.5-1.2 2.5-1.3 2.2-1.5 2.3-1.7 2.2-1.8 2-2 1.8-2.2 1.5-2.3 1.5-2.5 1.2-2.5 1-2.7 1-3 .5-3 .5-3 .3h-6l-2.8-.5-2.7-.5-2.8-1-2.7-1-2.5-1-2.5-1.3-2.5-1.5-2.3-1.7-2.2-1.5-2-2-1.8-1.8-1.7-2-1.5-2.2-1.3-2-1-2.3m61-17 .8 1.8 1.7 4 1.5 2.5 1.5 2.5 1.8 2 1 1 1.2.7.5.3.8.5 1 .2m-59.8-13-.7 1.5-1.3 1.8-1.2 2-2 2.2-2 2-2.8 2-1.5.8-1.5.7m-27.7 551-.3.5-3 6.5-3.7 6.5-3.8 6.8-3.7 6.7-.8 2-.7 2.3v2l.2 2 .5 1.7.8 1.8 1 1.5 1 1.5 1.5 1.2 1.5 1.3 1.5 1 1.7.7 1.5.5 1.8.5 1.5.3 1.5-.3 2.2-.2 1.8-.5 2-.8 1.7-1 1.5-1 1.5-1.2 2.8-2.5 2.2-3.3 2-3.2 1.5-3.3 1.3-3.5 1.2-3.2 1.3-3.3 1.5-3.2 2-2.8.7-.7 1-.5 2.3-1.3 2.7-1 3-1.5 1.3-1 1-1 1-1.2.7-1.5.3-1.8v-1.7l-.3-2.3-1-2.5v-.7m90.8 6 3.2 6.2 3.5 6.5 3.8 6.5 3.5 6.5 1 2 .5 2.3v4l-.5 1.7-.8 1.8-1 1.5-1.2 1.5-1.5 1.2-1.5 1.3-1.5 1-1.5.7-1.8.5-1.7.5-1.5.3-1.5-.3-2-.2-2-.5-1.8-.8-1.7-1-1.8-1-1.5-1.2-2.7-2.5-2.3-3.3-2-3.2-1.5-3.3-1.2-3.5-1.3-3.2-1.2-3.3-1.5-3.2-2-2.8-.5-.5-1-.7-2.5-.8-2.8-1-3-1.2-1.5-.8-1.2-.7-1.3-1-1-1-.5-1.3-.5-1.7-.2-1.8.5-2 1-3.2" stroke-width="14"/><path d="m664.3 93-20.8 62.3-59-28.5" stroke-width="21"/><path d="m508.3 129.5 1.5-5 1.7-5.2 2.5-4.8 2.8-4.7 3.2-4.5 3.5-4 3.8-4 4.2-3.8 4.5-3.2 4.5-3 4.8-2.5 5-2.3 5.2-1.7 5.3-1.3 5.2-.7 5.3-.3h3.5l3.2.3 3.5.5 3.3.5 3.2.7 3 1 3.3 1 3 1.3 3 1.2 3 1.5 2.7 1.8 2.8 1.7 2.7 2 2.5 2 2.5 2.3 2.3 2.2 2.5 2.5 2 2.5 2 2.8 2 2.7 1.7 3 1.8 3 1.5 3 1.5 3.3 1.2 3.2 1 3.5 1 3.5.8 3.5.7 3.8.3 3.7.2 4 .3 3.8m-482.5 88.2 50.7-41.5 34.8 55.5" stroke-width="21"/><path d="m308.3 290.8-2.5 2.5-2.8 2-2.7 2-3 2-3 1.7-3 1.5-3.3 1.5-3.2 1.3-3.5 1-3.3 1-3.5.7-3.5.5-3.5.5-3.5.3-3.5.2-3.5-.2-4-.3-3.7-.5-4-.7-3.8-1-3.5-1.3-3.7-1.5-3.5-1.7-3.3-2-2.7-1.8-2.8-2-2.7-2.2-2.3-2.3-2.5-2.2-2-2.5-2.2-2.5-2-2.8-1.8-2.7-1.5-2.8-1.5-3-1.5-3-1.2-3-1-3-1-3.2-.8-3.3-.7-3.2-.5-3.3-.3-3.5v-6.7l.3-3.5.2-3.5.5-3.3.8-3.5 1-3.5 1-3.5 1.2-3.5 1.5-3.5 1.5-3.2 1.8-3.5 2-3.5" stroke-width="21"/></g></svg>