<svg height="850.394" viewBox="0 0 850.394 850.394" width="850.394" xmlns="http://www.w3.org/2000/svg"><path d="m219.37 632.34 19.64 33.86h-142.11l18.37-30.66 2.84-4.73h100.37zm6.22 34.14v82.34h-110.7v-82.62h110.7zm181.8 0v82.34h-110.7v-82.62h110.7zm-6.22-34.14 19.64 33.86h-142.11l18.38-30.66 2.84-4.73h100.36z" fill="#9c5b16"/><g fill="#0b00ea"><path d="m148.39 564.74c-11.67 3.49-19.94 12.3-19.94 22.62v43.449h-10.34l-2.84 4.73v-28.271c0-40.218 30.86-42.428 33.12-42.528z"/><path d="m148.39 564.74c3.47-1.05 7.24-1.62 11.18-1.62h15.53c3.77 0 7.39.52 10.73 1.479 11.9 3.4 20.38 12.311 20.38 22.761v43.449h-77.76v-43.449c0-10.32 8.27-19.13 19.94-22.62z"/><path d="m219.37 606.15v26.189l-.89-1.53h-12.27v-43.449c0-10.45-8.48-19.36-20.38-22.761l.3-1c0 .001 33.24.801 33.24 42.551zm110.82-41.41c-11.67 3.49-19.94 12.3-19.94 22.62v43.449h-10.33l-2.84 4.73v-28.271c0-40.218 30.85-42.428 33.11-42.528zm57.82 22.62c0-10.45-8.48-19.36-20.38-22.761l.3-1s33.24.801 33.24 42.551v26.189l-.89-1.53h-12.27z"/><path d="m330.19 564.74c3.47-1.05 7.24-1.62 11.18-1.62h15.53c3.77 0 7.39.52 10.73 1.479 11.9 3.4 20.38 12.311 20.38 22.761v43.449h-77.76v-43.449c0-10.32 8.27-19.13 19.94-22.62z"/></g><path d="m348.48 493.36c15.33 0 27.76 15.069 27.76 33.659 0 18.58-12.43 33.66-27.76 33.66-15.32 0-27.75-15.08-27.75-33.66 0-18.589 12.43-33.659 27.75-33.659zm-181.8 0c15.33 0 27.76 15.069 27.76 33.659 0 18.58-12.43 33.66-27.76 33.66s-27.75-15.08-27.75-33.66c0-18.589 12.42-33.659 27.75-33.659z" fill="#ffeec8"/><path d="m701.82 279.28h5.81c1.57 4.53 2.44 9.49 2.44 14.7 0 21.28-14.471 38.53-32.33 38.53-17.86 0-32.34-17.25-32.34-38.53 0-5.21.869-10.17 2.439-14.7zm5.81 0h-5.81v-11c2.43 3.22 4.4 6.94 5.81 11zm-5.81-11v11h-53.98c4.851-13.99 16.41-23.83 29.9-23.83 9.57 0 18.16 4.95 24.08 12.83zm-134.91 26.07c5.16 6.82 8.3 15.86 8.3 25.77 0 7.01-1.57 13.58-4.31 19.24h-56.05c-2.739-5.66-4.31-12.23-4.31-19.24 0-21.28 14.479-38.53 32.33-38.53 9.55 0 18.12 4.92 24.04 12.76zm-52.06 45.01h56.05c-5.591 11.53-16.04 19.29-28.03 19.29-11.97 0-22.43-7.76-28.02-19.29zm-78.87 61.93h1.35c4.35 6.55 6.95 14.84 6.95 23.85 0 17.169-9.431 31.72-22.46 36.7h-19.76c-13.03-4.979-22.46-19.53-22.46-36.7 0-9.01 2.6-17.3 6.95-23.85zm1.35 0h-1.35v-1.92c.47.62.92 1.26 1.35 1.92z" fill="#231f20"/><path d="m435.98 399.37v1.92h-49.43c5.92-8.94 15.09-14.68 25.39-14.68 9.54 0 18.12 4.92 24.04 12.76zm-33.92 62.47h19.76a27.545 27.545 0 0 1 -9.88 1.83c-3.45 0-6.77-.64-9.88-1.83z" fill="#231f20"/><g fill="none" stroke="#231f20"><path d="m566.91 294.35c5.16 6.82 8.3 15.86 8.3 25.77 0 7.01-1.57 13.58-4.31 19.24-5.591 11.53-16.04 19.29-28.03 19.29-11.97 0-22.43-7.76-28.021-19.29-2.739-5.66-4.31-12.23-4.31-19.24 0-21.28 14.479-38.53 32.33-38.53 9.551 0 18.121 4.92 24.041 12.76zm140.72-15.07c1.57 4.53 2.44 9.49 2.44 14.7 0 21.28-14.471 38.53-32.33 38.53-17.86 0-32.34-17.25-32.34-38.53 0-5.21.869-10.17 2.439-14.7 4.851-13.99 16.41-23.83 29.9-23.83 9.569 0 18.16 4.95 24.08 12.83 2.431 3.22 4.401 6.94 5.811 11z" stroke-width="7"/><path d="m566.91 320.43v-176.14l134.91-38.53v188.22" stroke-width="21"/><path d="m437.33 401.29c4.35 6.55 6.95 14.84 6.95 23.85 0 17.169-9.431 31.72-22.46 36.7a27.545 27.545 0 0 1 -9.88 1.83c-3.45 0-6.77-.64-9.88-1.83-13.03-4.979-22.46-19.53-22.46-36.7 0-9.01 2.6-17.3 6.95-23.85 5.92-8.94 15.09-14.68 25.39-14.68 9.54 0 18.12 4.92 24.041 12.76.469.62.919 1.26 1.349 1.92z" stroke-width="7"/><path d="m435.98 425.43v-176.13" stroke-width="21"/><path d="m292.87 279.28h456.86m-456.86 60.08h456.86m-456.86 61.93h456.86m-456.86 60.55h456.86" stroke-width="14"/><path d="m194.44 527.02c0 18.58-12.43 33.66-27.76 33.66s-27.75-15.08-27.75-33.66c0-18.59 12.42-33.659 27.75-33.659 15.33-.001 27.76 15.069 27.76 33.659z" stroke-width="21"/><path d="m206.21 630.81v-43.45c0-10.45-8.48-19.36-20.38-22.761-3.34-.96-6.96-1.479-10.73-1.479h-15.53c-3.94 0-7.71.57-11.18 1.62-11.67 3.49-19.94 12.3-19.94 22.62v43.449" stroke-width="14"/><path d="m206.21 630.81h12.27l.89 1.53 19.64 33.86h-142.11l18.37-30.66 2.84-4.73h10.34zm-91.32 35.67v82.34h110.7v-82.34" stroke-width="21"/><path d="m148.52 564.73s-.04 0-.13.01c-2.26.1-33.12 2.31-33.12 42.529v28.271m70.86-71.94s33.24.801 33.24 42.551v28.279" stroke-width="14"/><path d="m376.24 527.02c0 18.58-12.43 33.66-27.76 33.66-15.32 0-27.75-15.08-27.75-33.66 0-18.59 12.43-33.659 27.75-33.659 15.33-.001 27.76 15.069 27.76 33.659z" stroke-width="21"/><path d="m388.01 630.81v-43.45c0-10.45-8.48-19.36-20.38-22.761-3.34-.96-6.96-1.479-10.73-1.479h-15.53c-3.94 0-7.71.57-11.18 1.62-11.67 3.49-19.94 12.3-19.94 22.62v43.449" stroke-width="14"/><path d="m388.01 630.81h12.27l.89 1.53 19.64 33.86h-142.11l18.38-30.66 2.84-4.73h10.33zm-91.32 35.67v82.34h110.7v-82.34" stroke-width="21"/><path d="m330.32 564.73s-.04 0-.13.01c-2.26.1-33.11 2.31-33.11 42.529v28.271m70.85-71.94s33.24.801 33.24 42.551v28.279" stroke-width="14"/></g><path d="m0 0h850.394v850.394h-850.394z" fill="none"/></svg>