<svg height="850.394" viewBox="0 0 850.394 850.394" width="850.394" xmlns="http://www.w3.org/2000/svg"><path d="m430.267 468.373c3.068.88 4.742 4.412 3.743 7.896-.84 2.943-3.333 4.901-5.937 4.901-.475 0-.954-.064-1.424-.199l-258.252-74.094c-3.068-.879-4.747-4.412-3.752-7.89.844-2.943 3.338-4.907 5.946-4.907.47 0 .949.065 1.419.2z" fill="#f6cc4b"/><path d="m220.109 579.288c-16.24-4.517-28.337-10.323-34.413-16.869-2.868-3.083-4.397-6.331-4.397-9.684 0-2.544.885-5.032 2.563-7.431l.015.01c11.598 16.535 61.051 28.957 120.294 28.957 59.253 0 108.711-12.427 120.299-28.967 1.684 2.398 2.568 4.887 2.568 7.431 0 3.063-1.279 6.041-3.688 8.884-5.651 6.682-17.534 12.628-33.713 17.27-22.116 6.351-52.252 10.254-85.466 10.254-32.514 0-62.086-3.744-84.062-9.855zm136.439 162.223v-15.59c33.529-4.777 58.603-13.937 66.803-24.964v12.337l.495.305c-7.735 12.342-33.144 22.605-67.298 27.912z" fill="#c8c8c8"/><path d="m414.102 492.004c3.173.364 5.396 3.577 4.992 7.17-.399 3.373-2.973 5.882-5.906 5.882-.195 0-.39-.011-.589-.035l-266.892-30.905c-3.168-.37-5.407-3.583-4.987-7.171.39-3.368 2.963-5.881 5.896-5.881.2 0 .4.01.6.034z" fill="#f6cc4b"/><path d="m389.638 596.583c6.496 0 11.757 5.267 11.757 11.757 0 6.496-5.262 11.758-11.757 11.758-6.491 0-11.758-5.262-11.758-11.758 0-6.49 5.266-11.757 11.758-11.757z" fill="#c8c8c8"/><path d="m304.171 516.333c59.263 0 108.727 12.433 120.299 28.972-11.588 16.54-61.046 28.967-120.299 28.967-59.243 0-108.696-12.422-120.294-28.957l-.015-.01c11.578-16.539 61.047-28.972 120.309-28.972z" fill="#f6cc4b"/><path d="m356.548 709.906c-6.496 0-11.757-5.262-11.757-11.753 0-6.496 5.262-11.758 11.757-11.758 6.496 0 11.758 5.262 11.758 11.758 0 6.492-5.262 11.753-11.758 11.753z" fill="#c8c8c8"/><circle cx="252.849" cy="698.363" fill="#c8c8c8" r="11.758"/><path d="m356.548 741.511c-16.075 2.494-34.093 3.893-53.116 3.893-18.034 0-35.158-1.254-50.583-3.518v-15.595c15.405 2.063 32.5 3.213 50.499 3.213 19.058 0 37.106-1.284 53.201-3.583v15.59zm-136.439-144.279c6.491 0 11.758 5.262 11.758 11.757 0 6.491-5.267 11.753-11.758 11.753s-11.757-5.262-11.757-11.753c0-6.495 5.267-11.757 11.757-11.757z" fill="#c8c8c8"/><path d="m252.849 710.121c6.491 0 11.753-5.267 11.753-11.758s-5.262-11.758-11.753-11.758c-6.496 0-11.757 5.267-11.757 11.758s5.261 11.758 11.757 11.758zm136.789-113.538c-6.491 0-11.758 5.267-11.758 11.757 0 6.496 5.267 11.758 11.758 11.758 6.496 0 11.757-5.262 11.757-11.758 0-6.49-5.262-11.757-11.757-11.757zm-33.09 113.323c6.496 0 11.758-5.262 11.758-11.753 0-6.496-5.262-11.758-11.758-11.758s-11.757 5.262-11.757 11.758c0 6.492 5.262 11.753 11.757 11.753zm-136.439-112.674c-6.491 0-11.757 5.262-11.757 11.757 0 6.491 5.267 11.753 11.757 11.753 6.491 0 11.758-5.262 11.758-11.753 0-6.495-5.266-11.757-11.758-11.757zm-34.548 106.253v-140.936l.135-.13c6.076 6.546 18.173 12.353 34.413 16.869 21.976 6.111 51.547 9.854 84.062 9.854 33.214 0 63.35-3.903 85.466-10.254 16.18-4.642 28.062-10.588 33.713-17.27v139.338c-8.2 11.027-33.274 20.187-66.803 24.964-16.095 2.299-34.144 3.583-53.201 3.583-17.999 0-35.093-1.149-50.499-3.213-32.238-4.311-57.072-12.626-67.286-22.805z" fill="#f73900"/><path d="m252.849 741.886c-32.334-4.727-57.208-13.856-67.333-25.029l.045-.04v-13.331c10.214 10.179 35.048 18.493 67.288 22.806z" fill="#c8c8c8"/><g fill="none" stroke="#000"><path d="m185.696 562.419c-2.868-3.083-4.397-6.331-4.397-9.684 0-2.544.885-5.032 2.563-7.431 11.578-16.539 61.046-28.972 120.309-28.972s108.727 12.433 120.299 28.972c1.684 2.398 2.568 4.887 2.568 7.431 0 3.063-1.279 6.041-3.688 8.884-5.651 6.682-17.534 12.628-33.713 17.27-22.116 6.351-52.252 10.254-85.466 10.254-32.515 0-62.086-3.743-84.062-9.854" stroke-width="13.103"/><path d="m220.109 579.288c-16.24-4.517-28.337-10.323-34.413-16.869" stroke-linecap="round" stroke-linejoin="round" stroke-width="9.827"/><path d="m424.541 545.205-.07.1c-11.588 16.54-61.046 28.967-120.299 28.967-59.243 0-108.696-12.422-120.294-28.957m239.473 155.642c-8.2 11.027-33.274 20.187-66.803 24.964-16.095 2.299-34.144 3.583-53.201 3.583-17.999 0-35.093-1.149-50.499-3.213-32.239-4.313-57.074-12.627-67.288-22.806a21.926 21.926 0 0 1 -2.508-2.943m240.674-.11c-.12.175-.245.345-.375.521" stroke-width="9.827"/><path d="m423.726 700.432c2.284 2.284 2.579 1.959 2.579 5.217 0 2.724-.845 5.382-2.458 7.95-7.735 12.343-33.145 22.605-67.298 27.912-16.075 2.494-34.093 3.893-53.116 3.893-18.034 0-35.158-1.254-50.583-3.518-32.334-4.727-57.208-13.856-67.333-25.029-3.223-3.553-4.952-7.315-4.952-11.208 0-1.519.435-3.683 2.488-5.106" stroke-width="13.103"/><g stroke-width="9.827"><path d="m185.561 562.549v154.267m237.79-155.886v152.364m-191.484-104.305c0 6.491-5.267 11.753-11.758 11.753s-11.757-5.262-11.757-11.753c0-6.495 5.267-11.757 11.757-11.757 6.492 0 11.758 5.262 11.758 11.757z"/><path d="m220.109 608.989v-29.706" stroke-linecap="round" stroke-linejoin="round"/><path d="m241.091 698.363c0-6.491 5.262-11.758 11.757-11.758 6.491 0 11.753 5.267 11.753 11.758s-5.262 11.758-11.753 11.758c-6.495 0-11.757-5.267-11.757-11.758z"/><path d="m252.849 698.363v43.518" stroke-linecap="round" stroke-linejoin="round"/><path d="m401.395 608.34c0 6.496-5.262 11.758-11.757 11.758-6.491 0-11.758-5.262-11.758-11.758 0-6.49 5.267-11.757 11.758-11.757 6.495 0 11.757 5.267 11.757 11.757z"/><path d="m389.638 608.34v-29.701" stroke-linecap="round" stroke-linejoin="round"/><circle cx="356.549" cy="698.153" r="11.758"/><path d="m356.548 698.153v43.353m-210.841-267.391c-3.168-.37-5.407-3.583-4.987-7.171.39-3.368 2.963-5.881 5.896-5.881.2 0 .4.01.6.034l266.887 30.906c3.173.364 5.396 3.577 4.992 7.17-.399 3.373-2.973 5.882-5.906 5.882-.195 0-.39-.011-.589-.035zm22.69-67.238c-3.068-.879-4.747-4.412-3.752-7.89.844-2.943 3.338-4.907 5.946-4.907.47 0 .949.065 1.419.2l258.257 74.093c3.068.88 4.742 4.412 3.743 7.896-.84 2.943-3.333 4.901-5.937 4.901-.475 0-.954-.064-1.424-.199z" stroke-linecap="round" stroke-linejoin="round"/></g></g><path d="m0 0h850.394v850.394h-850.394z" fill="none"/><path d="m663.275 663.165 15.047-.076 36.56-.188.118 23.121-117.189.6-.124-23.115 35.485-.188 15.052-.071z" fill="#f6cc4b"/><path d="m678.322 663.089-15.047.076-.369-70.976c5.469-.987 10.558-3.173 15.021-6.309zm-30.098.159-15.052.071-.409-78.798c4.428 3.492 9.553 6.016 15.096 7.308z" fill="#f6cc4b"/><path d="m647.858 591.829a37.33 37.33 0 0 0 8.607.956 36.788 36.788 0 0 0 6.44-.596l.369 70.976-15.052.083z" fill="#f6cc4b"/><path d="m647.858 591.829c-5.543-1.292-10.668-3.815-15.096-7.308l-.356-69.513c6.595-5.312 14.757-8.466 23.612-8.511 7.92-.035 15.312 2.414 21.542 6.684l.366 72.699c-4.463 3.136-9.552 5.321-15.021 6.309a37.342 37.342 0 0 1 -15.047-.36zm-15.452-76.82.356 69.513c-9.907-7.806-16.369-20.419-16.437-34.679-.072-14.254 6.267-26.927 16.081-34.834zm45.155-1.827c11.105 7.61 18.514 20.988 18.592 36.253.078 15.275-7.192 28.729-18.226 36.446z" fill="#9e5b16"/><g fill="#f6cc4b"><path d="m671.999 504.98-13.214.074-1.589-310.427-.004-.827 11.067-.051 2.88 239.563z"/><path d="m597.811 686.622 117.189-.6-.118-23.121-36.56.188-.396-77.208c11.033-7.718 18.304-21.171 18.226-36.446-.078-15.265-7.486-28.643-18.592-36.253-6.23-4.27-13.622-6.719-21.542-6.684-8.855.045-17.018 3.199-23.612 8.511-9.814 7.907-16.153 20.58-16.08 34.834.067 14.26 6.529 26.873 16.437 34.679l.409 78.798-35.485.188zm136.276-99.88s36.513 38.94 42.851 75.589c19.512 112.803-111.602 116.018-120.042 116.429a.096.096 0 0 1 -.058 0c-13.579-.563-119.432-6.579-119.991-114.872-.186-37.197 42.08-76.019 42.08-76.019 10.654-18.88-.229-44.622-6.817-72-6.59-27.39 6.188-51.104 6.188-51.104 15.947-35.034 57.953-32.48 57.953-32.48l-.132 72.972 13.651-.075 3.423-.018-.001-.081 5.594-.028 13.214-.073-.86-71.669s46.013-4.531 62.318 30.326c0 0 13.02 23.595 6.71 51.038-6.315 27.449-16.928 53.295-6.081 72.065z"/><path d="m649.77 505.181-13.652.075.132-72.972.435-238.293 11.485-.058.002.39z"/><path d="m654.419 193.9-6.249.033-11.485.058-2.148.011-10.321-124.663 55.228-.369-9.038 124.768-2.147.011-11.067.051-2.774.02z"/><path d="m648.172 194.323-.002-.39 6.249-.033-.001-.08 2.774-.02.004.827 1.589 310.427-5.594.028.001.081-3.422.018z"/></g><g fill="none" stroke="#000"><path d="m656.838 778.76c-13.579-.563-119.432-6.579-119.991-114.872-.186-37.197 42.08-76.019 42.08-76.019 10.654-18.88-.229-44.622-6.817-72-6.59-27.39 6.188-51.104 6.188-51.104 15.947-35.034 57.953-32.48 57.953-32.48" stroke-width="13.807"/><path d="m671.139 433.312s46.013-4.531 62.318 30.326c0 0 13.02 23.595 6.71 51.038-6.314 27.45-16.927 53.296-6.08 72.066 0 0 36.513 38.94 42.851 75.589 19.512 112.803-111.602 116.018-120.042 116.429a.096.096 0 0 1 -.058 0c-.006.006-.006.006-.018.006 0 0 .426.01 1.04.035l-.614-.025c-.109-.006-.23-.011-.351-.016" stroke-width="13.807"/><path d="m636.685 193.991-.435 238.293-.132 72.972 13.652-.075 3.422-.018 1.746-.01" stroke-width="12.902"/><path d="m650.519 193.834 3.899-.014 2.774-.02 11.067-.051 2.147-.011 9.038-124.768-55.228.369 10.321 124.663 2.148-.011 11.485-.058 6.249-.033" stroke-width="19.353"/><path d="m668.259 193.749 2.88 239.563.86 71.668-13.214.074-5.594.028" stroke-width="12.902"/><path d="m677.561 513.182c11.105 7.61 18.514 20.988 18.592 36.253.078 15.275-7.192 28.729-18.226 36.446-4.463 3.136-9.552 5.321-15.021 6.309a36.797 36.797 0 0 1 -6.44.596 37.33 37.33 0 0 1 -8.607-.956c-5.543-1.292-10.668-3.815-15.096-7.308-9.907-7.806-16.369-20.419-16.437-34.679-.073-14.254 6.266-26.927 16.08-34.834 6.595-5.312 14.757-8.466 23.612-8.511 7.92-.035 15.312 2.414 21.543 6.684zm11.16-413.729c.016 3.079-1.591 5.579-3.59 5.589-1.992.016-3.631-2.474-3.641-5.558-.016-3.078 1.585-5.584 3.59-5.589 1.992-.016 3.625 2.48 3.641 5.558zm-3.444 34.166c.016 3.078-1.591 5.579-3.59 5.589-1.992.016-3.625-2.479-3.641-5.558s1.591-5.579 3.59-5.589c1.994-.016 3.626 2.48 3.641 5.558zm-2.432 34.137c.016 3.078-1.591 5.579-3.589 5.589-1.993.004-3.626-2.479-3.642-5.558s1.586-5.584 3.584-5.595c1.999-.009 3.631 2.486 3.647 5.564zm-67.32-68.313c.016 3.078 1.648 5.562 3.646 5.552 1.993-.004 3.605-2.511 3.584-5.595-.016-3.078-1.648-5.563-3.646-5.552-1.993.005-3.599 2.517-3.584 5.595zm3.793 34.128c.016 3.078 1.648 5.563 3.646 5.552 1.993-.004 3.6-2.517 3.584-5.595s-1.648-5.563-3.646-5.552c-1.993.005-3.605 2.511-3.584 5.595zm2.783 34.112c.016 3.078 1.647 5.562 3.646 5.552 1.992-.016 3.6-2.517 3.584-5.595-.017-3.078-1.643-5.568-3.642-5.558-1.998.01-3.604 2.522-3.588 5.601z" stroke-width="19.353"/><g stroke-width="6.451"><path d="m678.322 663.089 36.56-.188.118 23.121-117.189.6-.124-23.115 35.485-.188 15.052-.071 15.051-.083z"/><path d="m662.503 513.247.403 78.942.369 70.976.029 5.388m14.243-158.071.014 2.7.366 72.699.395 77.208.038 7.534m-45.962-157.222.008 1.608.357 69.512.409 78.798.027 5.387m14.243-158.069.416 81.192.366 71.419.038 7.523m-.09-476.448 1.598 310.858.001.481m7.425-311.035 1.589 310.427.005.907"/></g></g><path d="m527.156 130.365h24.983l19.081 51.874-24.438 3.259-21.97-54.183z" fill="#9e5c26"/><path d="m546.782 185.505-30.528 1.691v-.602l-25.737-75.144v-.08l26.506.726 7.789 19.219 21.97 54.183z" fill="#f6cc4b"/><path d="m143.832 225.04 34.309-2.12 35.587-2.191 34.962-2.164 34.665-2.141 36.407-2.242 32.792-2.025 34.708-2.149 31.493-1.945 33.221-2.047 34.157-2.112 30.208-1.865 33.961-2.098.247 3.977-8.332 48.456-45.037 2.613-16.81-14.415-381.699 34.092-16.809-72.11v-3.934h31.79l-5.059 11.142 32.923-1.822 2.236-.124v15.961z" fill="#9e5c26"/><path d="m485.951 188.873 30.303-1.677v13.478l.087 1.365-30.208 1.865-.182-2.99z" fill="#9e5c26"/><path d="m462.225 110.601 28.292.769v.08l25.737 75.144v.602l-30.303 1.677v-.059l-23.726-78.177z" fill="#f6cc4b"/><path d="m456.81 314.141c-15.488 0-28.06-10.778-28.06-24.089 0-13.297 12.571-24.083 28.06-24.083 15.496 0 28.061 10.785 28.061 24.083-.001 13.31-12.565 24.089-28.061 24.089z" fill="#ffffc2"/><path d="m486.133 203.904-34.157 2.112-.145-2.402v-12.854l.29-.015 33.83-1.872v12.041z" fill="#9e5c26"/><path d="m433.845 109.824 28.38.777v.036l23.726 78.177v.059l-33.83 1.872-.29-1.27z" fill="#f6cc4b"/><path d="m395.297 355.94c-15.496 0-28.045-10.793-28.045-24.097 0-13.297 12.549-24.09 28.045-24.09s28.053 10.793 28.053 24.09c0 13.304-12.557 24.097-28.053 24.097z" fill="#ffffc2"/><path d="m406.395 109.069 27.45.755 17.986 79.651v1.285l-32.502 1.8-13.014-80.464z" fill="#f6cc4b"/><path d="m451.976 206.016-33.221 2.047-.123-1.996v-13.471l.697-.036 32.502-1.8v12.854z" fill="#9e5c26"/><path d="m387.139 208.042v-13.697l.167-.014 31.326-1.735v13.471l.123 1.996-31.493 1.945z" fill="#9e5c26"/><path d="m387.139 192.886-9.769-84.608 29.025.791-.08 3.027 13.014 80.464-.697.036-31.326 1.735z" fill="#f6cc4b"/><path d="m387.262 210.008-34.708 2.149-.058-.922v-14.974l34.643-1.916v13.697z" fill="#9e5c26"/><path d="m377.37 108.278 9.769 84.608v1.459l-34.643 1.916-.407.022-6.017-88.861z" fill="#f6cc4b"/><path d="m352.554 212.157-32.792 2.025-.182-2.947v-13.152l32.509-1.8.407-.022v14.974z" fill="#9e5c26"/><path d="m319.283 198.098v-88.63l.072-2.78 26.717.734 6.017 88.861-32.509 1.8z" fill="#f6cc4b"/><path d="m283.217 214.196v-14.102l36.066-1.996.297-.015v13.152l.182 2.947-36.407 2.242z" fill="#9e5c26"/><path d="m282.651 200.123 7.715-94.226 28.989.791-.072 2.78v88.63l-36.066 1.996z" fill="#f6cc4b"/><path d="m248.269 202.032 15.322-96.867 26.775.732-7.715 94.226v.007l-34.048 1.88z" fill="#f6cc4b"/><path d="m283.355 216.424-34.665 2.141-.087-1.422v-15.133l34.048-1.88v-.007l.566-.029v14.102z" fill="#9e5c26"/><path d="m213.655 203.948 34.614-1.916.334-.022v15.133l.087 1.422-34.962 2.164-.073-1.133z" fill="#9e5c26"/><path d="m213.728 220.729-35.587 2.191v-15.111l-.102-1.894 34.491-1.909 1.125-.058v15.648z" fill="#9e5c26"/><path d="m212.53 204.006 24.373-99.568v-.007l26.688.734-15.322 96.867-34.614 1.916z" fill="#f6cc4b"/><path d="m176.247 206.016 31.761-102.369 28.895.784v.007l-24.373 99.568-34.491 1.909zm-62.595-7.396 37.169-81.785 6.619-14.574 24.497.668-40.421 105.011-32.923 1.822z" fill="#f6cc4b"/><path d="m176.247 206.016 1.792-.101.102 1.894v15.111l-34.309 2.12-.08-1.263v-15.961zm-25.426-89.181-37.169 81.785h-41.712l44.282-82.322h33.424z" fill="#9e5c26"/><path d="m208.008 103.647-31.761 102.369-32.495 1.8-2.236.124 40.421-105.011z" fill="#f6cc4b"/><g fill="none" stroke="#231f20" stroke-width="15.242"><path d="m282.651 200.13-34.048 1.88-.334.022-34.614 1.916-1.125.058-34.491 1.909-1.792.101-32.495 1.8-2.236.124-32.923 1.822 5.059-11.142 37.169-81.785 6.619-14.574 24.497.668 26.071.718 28.895.784 26.688.734 26.775.732 28.989.791 26.717.734 31.298.856 29.025.791 27.45.755 28.38.777 28.292.769 26.506.726 7.789 19.219 21.97 54.183v.007l-30.528 1.691-30.303 1.677-33.83 1.872-.29.015-32.502 1.8-.697.036-31.326 1.735-.167.014-34.643 1.916-.407.022-32.509 1.8-.297.015-36.066 1.996-.566.029m-100.714-97.194-40.421 105.011"/><path d="m208.574 101.811-.566 1.836-31.761 102.369-.944 3.042m61.6-104.62-24.373 99.568v.007m51.061-98.848-15.322 96.867m42.097-96.142v.007l-7.715 94.226v.007m36.632-90.662v88.63m26.789-90.676 6.017 88.861m25.281-88.012v.007l9.769 84.608.167 1.445m19.009-82.235 13.014 80.464v.014m14.516-82.75 17.986 79.651.29 1.27v.015m10.104-80.123 23.726 78.177v12.1m4.566-89.464 25.737 75.144.152.442"/><path d="m104.594 215.488v11.976l39.238-2.424 34.309-2.12 35.587-2.191 34.962-2.164 34.665-2.141 36.407-2.242 32.792-2.025 34.708-2.149 31.493-1.945 33.221-2.047 34.157-2.112 30.208-1.865 33.961-2.098.283-.014v-9.828m-406.833 17.71v15.968m34.389-15.968v15.968m35.514-20.149v15.968m34.948-18.414v15.961m34.614-18.914v15.967m36.363-18.914v15.953m32.916-15.953v15.953m34.643-19.162v15.969m31.493-17.928v15.953m33.199-18.406v15.953m64.423-18.907v15.967m-366.608-84.376h-33.424l-44.282 82.322h42.845"/><path d="m81.862 202.554 16.809 72.11 381.699-34.092 16.81 14.415 45.037-2.613 8.332-48.456m-23.393-73.553h24.983l19.081 51.874-24.438 3.259m-89.972 128.643c-15.488 0-28.06-10.778-28.06-24.089 0-13.297 12.571-24.083 28.06-24.083 15.496 0 28.061 10.785 28.061 24.083-.001 13.31-12.565 24.089-28.061 24.089zm-275.417-24.576h241.63m-27.726 66.375c-15.496 0-28.045-10.793-28.045-24.097 0-13.297 12.549-24.09 28.045-24.09s28.053 10.793 28.053 24.09c0 13.304-12.557 24.097-28.053 24.097zm-275.417-24.59h241.631"/></g><path d="m0 0h850.394v850.394h-850.394z" fill="none"/></svg>