<svg height="850.394" viewBox="0 0 850.394 850.394" width="850.394" xmlns="http://www.w3.org/2000/svg"><path d="m136.449 294.611h279.672v279.668h-279.672z" fill="none"/><g fill="#5668af"><circle cx="416.121" cy="341.223" r="21.438"/><circle cx="416.121" cy="387.834" r="21.438"/><circle cx="416.121" cy="434.446" r="21.438"/><circle cx="416.121" cy="481.058" r="21.438"/><circle cx="416.121" cy="527.669" r="21.438"/><circle cx="369.509" cy="574.279" r="21.438"/><circle cx="322.896" cy="574.279" r="21.438"/><circle cx="276.284" cy="574.279" r="21.438"/><circle cx="229.672" cy="574.279" r="21.438"/><circle cx="183.06" cy="574.279" r="21.438"/><circle cx="136.449" cy="527.668" r="21.438"/><circle cx="136.449" cy="481.057" r="21.438"/><circle cx="136.449" cy="434.444" r="21.438"/><circle cx="136.449" cy="387.833" r="21.438"/><circle cx="136.449" cy="341.222" r="21.438"/><circle cx="183.061" cy="294.611" r="21.438"/><circle cx="229.673" cy="294.611" r="21.438"/><circle cx="276.286" cy="294.611" r="21.438"/><circle cx="322.898" cy="294.611" r="21.438"/><circle cx="369.51" cy="294.611" r="21.438"/><circle cx="416.12" cy="574.279" r="21.438"/><circle cx="136.449" cy="574.278" r="21.438"/><circle cx="136.449" cy="294.611" r="21.438"/><circle cx="416.121" cy="294.612" r="21.438"/></g><path d="m475.365 294.611h279.672v279.668h-279.672z" fill="none"/><circle cx="755.037" cy="341.223" fill="#5668af" r="21.438"/><circle cx="755.037" cy="387.834" fill="#5668af" r="21.438"/><circle cx="755.037" cy="434.446" fill="#5668af" r="21.438"/><circle cx="755.037" cy="481.058" fill="#5668af" r="21.438"/><circle cx="755.037" cy="527.669" fill="#5668af" r="21.438"/><circle cx="708.425" cy="574.279" fill="#5668af" r="21.438"/><circle cx="661.813" cy="574.279" fill="#5668af" r="21.438"/><circle cx="615.2" cy="574.279" fill="#5668af" r="21.438"/><circle cx="568.588" cy="574.279" fill="#5668af" r="21.438"/><circle cx="521.976" cy="574.279" fill="#5668af" r="21.438"/><circle cx="475.365" cy="527.668" fill="#5668af" r="21.438"/><circle cx="475.365" cy="481.057" fill="#5668af" r="21.438"/><circle cx="475.365" cy="434.444" fill="#5668af" r="21.438"/><circle cx="475.365" cy="387.833" fill="#5668af" r="21.438"/><circle cx="475.365" cy="341.222" fill="#5668af" r="21.438"/><circle cx="521.978" cy="294.611" fill="#5668af" r="21.438"/><circle cx="568.59" cy="294.611" fill="#5668af" r="21.438"/><circle cx="615.202" cy="294.611" fill="#5668af" r="21.438"/><circle cx="661.814" cy="294.611" fill="#5668af" r="21.438"/><circle cx="708.427" cy="294.611" fill="#5668af" r="21.438"/><circle cx="755.036" cy="574.279" fill="#5668af" r="21.438"/><circle cx="475.365" cy="574.278" fill="#5668af" r="21.438"/><circle cx="475.366" cy="294.611" fill="#5668af" r="21.438"/><circle cx="755.037" cy="294.612" fill="#5668af" r="21.438"/><path d="m0 0h850.394v850.394h-850.394z" fill="none"/></svg>