<svg height="850.394" viewBox="0 0 850.394 850.394" width="850.394" xmlns="http://www.w3.org/2000/svg"><path d="m312.24 262.29c8.78-22.15 69.95-8.05 86.23-9.7-2.64 3.99-5.21 8.18-7.82 12.43-31.2 14.11-49.27 14.27-71.37 16.02-21.96 1.73-54.48 5.4-76.37-1.02-5.64-7.42-4.75-14.46 13.1-19.64 11.12-3.21 24.41-5.72 35.83-3.08 6.04 1.39 14.93 7.19 20.4 4.99z" fill="#f0947d"/><path d="m390.65 265.02c-11.19 18.26-22.93 37.53-42.82 46.32-26.96 11.92-55.86 9.57-78.06-8.78-8.23-6.79-21.04-14.86-26.86-22.54 21.89 6.42 54.41 2.75 76.37 1.02 22.1-1.75 40.17-1.91 71.37-16.02z" fill="#f0947d"/><g fill="#ffeec8"><path d="m748.03 433.22 1.97 362.78-552-2-83.51-167.36c30.93-24.3 97.2-66.27 133.34-107.779-7.03 86.13 9.03 166.56 72.16 196.17 52.45 24.6 100.19 12.54 151.41-9.3 120.1-51.221 173.2-188.211 204.31-301.071 24.44 9.39 50.99 15.55 72.32 28.56z"/><path d="m589.43 253.27c-.439 26.89 37.88 120.5 37.88 120.5 12.87 14.95 30.04 23.83 48.4 30.89-31.11 112.86-84.21 249.85-204.31 301.07-51.22 21.84-98.96 33.899-151.41 9.3-63.13-29.61-79.19-110.04-72.16-196.17 14.94-17.17 24.73-34.271 24.73-50.011 0-18.76-1.46-44.33-15.57-58.57 40.98 34.17 100.75 16.871 148.25 11.07 63.46-7.74 88.02-75.2 132.17-113.45 19.04-16.48 39.439-33.48 49.96-55z"/><path d="m607.62 110.29c3.18 56.96-12.91 115.93-13.68 121.46-1.051 7.55-3.351 14.56-6.57 21.15-10.521 21.52-30.92 38.52-49.96 55-44.15 38.25-68.71 105.71-132.17 113.45-47.5 5.8-107.27 23.1-148.25-11.07a33.63 33.63 0 0 0 -5.26-4.37c-.01-.01-.03-.02-.04-.03-24.59-20.06-53.92-39.16-73.58-63.91-13.2-16.61-79.81-94.29-79.81-161.8 0-13.96-.7-25.51-1.8-35.5zm-209.15 142.3c-16.28 1.65-77.45-12.45-86.23 9.7-5.47 2.2-14.36-3.6-20.4-4.99-11.42-2.64-24.71-.13-35.83 3.08-17.85 5.18-18.74 12.22-13.1 19.64 5.82 7.68 18.63 15.75 26.86 22.54 22.2 18.35 51.1 20.7 78.06 8.78 19.89-8.79 31.63-28.06 42.82-46.32 2.61-4.25 5.18-8.44 7.82-12.43z"/></g><g fill="none"><g stroke="#231f20"><path d="m311.3 266.07c.16-1.36.47-2.62.94-3.78 8.78-22.15 69.95-8.05 86.23-9.7-2.64 3.99-5.21 8.18-7.82 12.43-11.19 18.26-22.93 37.53-42.82 46.32-26.96 11.92-55.86 9.57-78.06-8.78-8.23-6.79-21.04-14.86-26.86-22.54-5.64-7.42-4.75-14.46 13.1-19.64 11.12-3.21 24.41-5.72 35.83-3.08 6.04 1.39 14.93 7.19 20.4 4.99.93-.37 1.76-.98 2.46-1.87" stroke-width="14"/><path d="m242.91 280.02c21.89 6.42 54.41 2.75 76.37 1.02 22.1-1.75 40.17-1.91 71.37-16.02" stroke-width="14"/><path d="m251.73 405.91a33.63 33.63 0 0 1 5.26 4.37c14.11 14.24 15.57 39.81 15.57 58.57m-20.98-63.04c.04.02.07.05.11.07" stroke-width="23.606"/><path d="m607.62 110.23v.06c3.18 56.96-12.91 115.93-13.68 121.46-1.051 7.55-3.351 14.56-6.57 21.15-10.521 21.52-30.92 38.52-49.96 55-44.15 38.25-68.71 105.71-132.17 113.45-47.5 5.8-107.27 23.1-148.25-11.07-.15-.12-.3-.24-.45-.37-1.58-1.34-3.18-2.67-4.81-4-.01-.01-.03-.02-.04-.03-24.59-20.06-53.92-39.16-73.58-63.91-13.2-16.61-79.81-94.29-79.81-161.8 0-13.96-.7-25.51-1.8-35.5m17.99 481.97c30.93-24.3 97.2-66.27 133.34-107.779 14.94-17.17 24.73-34.271 24.73-50.011m316.87-215.58c-.439 26.89 37.88 120.5 37.88 120.5 12.87 14.95 30.04 23.83 48.4 30.89 24.44 9.39 50.99 15.55 72.32 28.56.899.55 1.779 1.101 2.649 1.67" stroke-width="21"/></g><path d="m247.83 518.8v.061c-7.03 86.13 9.03 166.56 72.16 196.17 52.45 24.6 100.19 12.54 151.41-9.3 120.1-51.221 173.2-188.211 204.31-301.071 0-.01.01-.02.01-.03" stroke="#a800d4" stroke-dasharray="15.7374 23.6061 15.7374 23.6061 15.7374 23.6061" stroke-linecap="round" stroke-linejoin="round" stroke-width="21"/></g><path d="m0 0h850.394v850.394h-850.394z" fill="none"/></svg>