<svg height="850.394" viewBox="0 0 850.394 850.394" width="850.394" xmlns="http://www.w3.org/2000/svg"><path d="m256.26 479.23h79.62v14.31h-79.62zm30.04-31.95h49.58v14.3h-49.58zm362.15 31.6h79.62v14.29h-79.62zm30.03-31.96h49.59v14.29h-49.59zm-324.83 106.32h22.36l-4.8-11.771h-12.77zm36.22 14.01-4.8-11.77h-12.77l-4.8 11.77zm-7.01-27.63 10.17 39.39c1.28 9.86-4.83 10.82-10.81 10.82h-305.28c-5.97 0-12.08-.95-10.81-10.82l10.17-39.39c1.55-7.521 4.83-10.811 10.81-10.811h275.52v-.02h9.42c5.98.001 9.27 3.301 10.81 10.831zm-289.35 16.53h-12.78l-4.79 11.76h22.36zm22.29-2.83-4.79-11.761h-12.78l-4.79 11.761zm13.07 2.65h-12.77l-4.8 11.761h22.37zm22.3-2.82-4.79-11.771h-12.78l-4.79 11.771zm14.77 2.73h-12.78l-4.79 11.76h22.36zm22.29-2.82-4.79-11.77h-12.78l-4.79 11.77zm15.75 3h-12.78l-4.79 11.761h22.36zm22.29-2.82-4.79-11.771h-12.77l-4.79 11.771zm16.97 2.91h-12.78l-4.79 11.76h22.36zm22.29-2.83-4.79-11.761h-12.78l-4.79 11.761zm13.08 2.65h-12.78l-4.8 11.761h22.37zm22.29-2.82-4.79-11.771h-12.78l-4.8 11.771zm14.77 2.73h-12.78l-4.79 11.76h22.36zm22.29-2.82-4.78-11.77h-12.78l-4.8 11.77zm13.8 3h-12.77l-4.8 11.761h22.37zm392.2-.35h-12.78l-4.8 11.75h22.38zm1.87-2.84h22.36l-4.79-11.77h-12.77zm36.23 14.02-4.79-11.77h-12.78l-4.8 11.77zm-7.02-27.63 10.18 39.4c1.28 9.85-4.84 10.81-10.81 10.81h-305.28c-5.97 0-12.07-.96-10.81-10.81l10.17-39.4c1.55-7.529 4.84-10.81 10.8-10.81h275.53v-.021h9.43c5.97.001 9.26 3.301 10.79 10.831zm-289.34 16.53h-12.79l-4.78 11.76h22.36zm22.29-2.83-4.79-11.75h-12.78l-4.79 11.75zm13.07 2.64h-12.77l-4.8 11.771h22.359zm22.3-2.81-4.801-11.771h-12.779l-4.78 11.771zm14.78 2.73h-12.79l-4.79 11.771h22.36zm22.29-2.82-4.8-11.771h-12.78l-4.79 11.771zm15.74 3.01h-12.77l-4.801 11.75h22.36zm22.29-2.84-4.79-11.771h-12.77l-4.79 11.771zm16.97 2.92h-12.77l-4.8 11.76h22.359zm22.29-2.83-4.79-11.75h-12.78l-4.78 11.75zm13.08 2.64h-12.78l-4.8 11.771h22.38zm22.29-2.81-4.79-11.771h-12.78l-4.789 11.771zm14.77 2.73h-12.77l-4.8 11.771h22.36zm22.29-2.82-4.78-11.771h-12.78l-4.8 11.771z" fill="#7a7878"/><path d="m192.86 395.7h72.46v32.52h-72.46zm165.42 32.52v94.21h-258.38v-94.21zm-22.4 65.32v-14.31h-79.62v14.31zm0-31.96v-14.3h-49.58v14.3zm249.17-66.25h72.46v32.52h-72.46zm165.43 32.52v94.21h-258.39v-94.21zm-22.41 65.32v-14.29h-79.62v14.29zm0-31.96v-14.29h-49.59v14.29z" fill="#c8c8c8"/><path d="m785.12 589.47v21.61h-326.57v-21.61h315.86z" fill="#7a7878"/><path d="m777.27 555.12 4.79 11.77h-22.37l4.8-11.77zm-13.87-14.02 4.79 11.77h-22.36l4.8-11.77zm-19.44 14.61 4.8 11.75h-22.38l4.8-11.75zm-18.59-14.78 4.78 11.77h-22.36l4.8-11.77zm-17.51 14.59 4.79 11.77h-22.36l4.8-11.77zm-4.19-178.52c2.89 0 5.24 2.36 5.24 5.25a5.246 5.246 0 0 1 -10.49 0c0-2.89 2.35-5.25 5.25-5.25z" fill="#231f20"/><path d="m519.89 305.66v-51.85c0-7.09 5.75-12.84 12.83-12.84h176.62c7.101 0 12.851 5.75 12.851 12.84v128.32c0 7.09-5.75 12.82-12.851 12.82h-176.62c-7.08 0-12.83-5.73-12.83-12.82zm19.11-.71v64.35h164.55v-110.2h-164.55zm158.08 77.38c0-2.9-2.35-5.25-5.25-5.25s-5.24 2.35-5.24 5.25 2.34 5.25 5.24 5.25 5.25-2.35 5.25-5.25zm1.34-.08a5.245 5.245 0 0 0 10.49 0c0-2.89-2.351-5.25-5.24-5.25-2.9 0-5.25 2.36-5.25 5.25z" fill="#c8c8c8"/><path d="m691.83 377.08a5.25 5.25 0 1 1 0 10.5c-2.9 0-5.24-2.35-5.24-5.25s2.34-5.25 5.24-5.25zm-3.53 163.94 4.79 11.77h-22.36l4.79-11.77zm-17.5 14.58 4.8 11.77h-22.38l4.8-11.77zm-17.87-14.39 4.79 11.75h-22.35l4.78-11.75zm-17.5 14.58 4.79 11.76h-22.36l4.8-11.76z" fill="#231f20"/><path d="m539 304.95v-45.85h164.55v110.2h-164.55z" fill="#fff"/><path d="m613.67 541.1 4.79 11.77h-22.35l4.79-11.77zm-17.5 14.61 4.79 11.75h-22.36l4.8-11.75zm-20.54-14.78 4.8 11.77h-22.37l4.79-11.77zm-17.49 14.59 4.78 11.77h-22.36l4.79-11.77zm-19.58-14.5 4.8 11.77h-22.36l4.78-11.77zm-17.5 14.58 4.79 11.77h-22.36l4.8-11.77zm-17.86-14.39 4.79 11.75h-22.36l4.79-11.75zm-17.5 14.58 4.79 11.76h-22.36l4.78-11.76z" fill="#231f20"/><path d="m392.93 589.83v21.61h-326.56v-21.61h315.85z" fill="#7a7878"/><path d="m385.07 555.48 4.8 11.77h-22.37l4.8-11.77zm-13.86-14.01 4.8 11.77h-22.36l4.79-11.77zm-19.45 14.59 4.8 11.76h-22.37l4.8-11.76zm-18.58-14.77 4.78 11.77h-22.36l4.8-11.77zm-17.51 14.59 4.79 11.76h-22.36l4.79-11.76zm-4.19-178.52c2.89 0 5.24 2.36 5.24 5.25a5.245 5.245 0 0 1 -10.49 0c0-2.89 2.35-5.25 5.25-5.25z" fill="#231f20"/><path d="m304.89 382.69c0-2.9-2.35-5.25-5.24-5.25a5.25 5.25 0 1 0 0 10.5c2.89 0 5.24-2.35 5.24-5.25zm1.34-.08a5.245 5.245 0 0 0 10.49 0c0-2.89-2.35-5.25-5.24-5.25-2.9 0-5.25 2.36-5.25 5.25zm23.77-128.44v128.32c0 7.09-5.75 12.82-12.85 12.82h-176.62c-7.08 0-12.83-5.73-12.83-12.82v-128.32c0-7.09 5.75-12.83 12.83-12.83h176.62c7.1 0 12.85 5.74 12.85 12.83zm-18.63 115.49v-110.2h-164.56v110.2z" fill="#7a7878"/><path d="m299.65 377.44c2.89 0 5.24 2.35 5.24 5.25s-2.35 5.25-5.24 5.25a5.25 5.25 0 1 1 0-10.5zm-3.54 163.94 4.79 11.77h-22.37l4.8-11.77zm-17.5 14.59 4.79 11.76h-22.37l4.8-11.76zm-17.87-14.41 4.79 11.76h-22.36l4.79-11.76zm-17.5 14.59 4.79 11.76h-22.36l4.79-11.76zm-21.76-14.68 4.79 11.77h-22.35l4.79-11.77z" fill="#231f20"/><path d="m146.81 259.46h164.56v110.2h-164.56z" fill="#fff"/><path d="m203.98 556.06 4.79 11.76h-22.36l4.79-11.76zm-20.54-14.77 4.79 11.77h-22.36l4.79-11.77zm-17.5 14.59 4.79 11.76h-22.36l4.79-11.76zm-19.56-14.5 4.79 11.77h-22.36l4.79-11.77zm-17.51 14.59 4.8 11.76h-22.37l4.8-11.76zm-17.86-14.41 4.79 11.76h-22.36l4.79-11.76zm-17.5 14.59 4.79 11.76h-22.36l4.79-11.76z" fill="#231f20"/><g fill="none"><g stroke="#231f20"><path d="m343.11 305.66h176.78" stroke-dasharray="17.803" stroke-width="14"/><path d="m330 382.49c0 7.09-5.75 12.82-12.85 12.82h-176.62c-7.08 0-12.83-5.73-12.83-12.82v-128.32c0-7.09 5.75-12.83 12.83-12.83h176.62c7.1 0 12.85 5.74 12.85 12.83z" stroke-width="14"/><path d="m146.81 259.46h164.56v110.2h-164.56z" stroke-width="8.902"/><path d="m192.86 428.22v-32.52h72.46v32.52m0 0h92.96v94.21h-258.38v-94.21h92.96z" stroke-width="14"/><path d="m256.26 479.23h79.62v14.31h-79.62zm30.04-31.95h49.58v14.3h-49.58z" stroke-width="7"/><path d="m76.94 589.83c-5.97 0-12.08-.95-10.81-10.82l10.17-39.39c1.55-7.521 4.83-10.811 10.81-10.811h281.58" stroke-width="14"/><path d="m382.22 589.83c5.98 0 12.09-.96 10.81-10.82l-10.17-39.39c-1.54-7.53-4.83-10.83-10.81-10.83h-9.42" stroke-width="14"/><path d="m160.46 576.14h136.35" stroke-width="7"/><path d="m382.22 589.83h10.71v21.61h-326.56v-21.61h303.6zm339.97-207.7c0 7.09-5.75 12.82-12.851 12.82h-176.619c-7.08 0-12.83-5.73-12.83-12.82v-128.32c0-7.09 5.75-12.84 12.83-12.84h176.62c7.101 0 12.851 5.75 12.851 12.84v128.32z" stroke-width="14"/><path d="m703.55 369.3h-164.55v-110.2h164.55z" stroke-width="8.902"/><path d="m585.05 427.85v-32.52h72.46v32.52m0 0h92.97v94.21h-258.39v-94.21h92.96z" stroke-width="14"/><path d="m648.45 478.88h79.62v14.29h-79.62zm30.03-31.96h49.59v14.29h-49.59z" stroke-width="7"/><path d="m469.13 589.47c-5.97 0-12.07-.96-10.81-10.81l10.17-39.4c1.55-7.529 4.84-10.81 10.8-10.81h281.58" stroke-width="14"/><path d="m774.41 589.47c5.97 0 12.09-.96 10.81-10.81l-10.18-39.4c-1.53-7.529-4.82-10.83-10.79-10.83h-9.43" stroke-width="14"/><path d="m552.64 575.79h136.36" stroke-width="7"/><path d="m774.41 589.47h10.71v21.61h-326.57v-21.61h303.61zm-235.73-284.52h88.51m-29.93-27.62 30.52 27.72-30.58 27.71m-288.4-27.81h-88.51m29.94-27.62-30.52 27.72 30.58 27.71" stroke-width="14"/></g><path d="m0 0h850.394v850.394h-850.394z"/></g></svg>