<svg height="850.394" viewBox="0 0 850.394 850.394" width="850.394" xmlns="http://www.w3.org/2000/svg"><path d="m618.515 493.237h144.302v144.295h-144.302zm-530.979 0h144.302v144.295h-144.302z" fill="none" stroke="#231f20" stroke-width="21"/><path d="m351.907 491.626h144.301v144.295h-144.301z" fill="none"/><g fill="#5668af"><circle cx="351.907" cy="607.062" r="14.292"/><circle cx="351.907" cy="578.202" r="14.292"/><circle cx="351.907" cy="549.344" r="14.292"/><circle cx="351.907" cy="520.484" r="14.292"/><circle cx="380.767" cy="491.626" r="14.292"/><circle cx="409.627" cy="491.626" r="14.292"/><circle cx="438.488" cy="491.626" r="14.292"/><circle cx="467.349" cy="491.626" r="14.292"/><circle cx="496.208" cy="520.485" r="14.292"/><circle cx="496.208" cy="549.345" r="14.292"/><circle cx="496.208" cy="578.203" r="14.292"/><circle cx="496.208" cy="607.063" r="14.292"/><circle cx="467.348" cy="635.921" r="14.292"/><circle cx="438.487" cy="635.921" r="14.292"/><circle cx="409.626" cy="635.921" r="14.292"/><circle cx="380.766" cy="635.921" r="14.292"/><circle cx="351.907" cy="491.626" r="14.292"/><circle cx="496.208" cy="491.627" r="14.292"/><circle cx="496.207" cy="635.921" r="14.292"/><circle cx="351.907" cy="635.92" r="14.292"/></g><path d="m480.983 266.13-45.766 137.035-130.189-62.891" fill="none" stroke="#231f20" stroke-width="28"/><path d="m136.902 346.689c14.764-61.449 76.111-112.707 139.347-112.707 79.908 0 149.664 65.278 149.664 158.47" fill="none" stroke="#231f20" stroke-width="28"/><path d="m0 0h850.394v850.394h-850.394z" fill="none"/></svg>