<svg height="850.394" viewBox="0 0 850.394 850.394" width="850.394" xmlns="http://www.w3.org/2000/svg"><path d="m213.815 770.275h437.852" fill="none"/><g fill="#060606"><circle cx="226.797" cy="770.275" r="12.761"/><circle cx="252.541" cy="770.275" r="12.761"/><circle cx="278.283" cy="770.275" r="12.761"/><circle cx="304.026" cy="770.275" r="12.761"/><circle cx="329.77" cy="770.275" r="12.761"/><circle cx="355.513" cy="770.275" r="12.761"/><circle cx="381.255" cy="770.275" r="12.761"/><circle cx="406.999" cy="770.275" r="12.761"/><circle cx="432.741" cy="770.275" r="12.761"/><circle cx="458.484" cy="770.275" r="12.761"/><circle cx="484.228" cy="770.275" r="12.761"/><circle cx="509.971" cy="770.275" r="12.761"/><circle cx="535.714" cy="770.275" r="12.761"/><circle cx="561.457" cy="770.275" r="12.761"/><circle cx="587.2" cy="770.275" r="12.761"/><circle cx="612.943" cy="770.275" r="12.761"/><circle cx="638.686" cy="770.275" r="12.761"/></g><g fill="#ffeec8"><path d="m435.25 168.5v-.05c34.21 0 56.73-43.35 56.96-81.28l60.55 28.37s10.87 5.15 25.96 16l14.931 146.79 49.05 482.38h-209.421v.05h-210.24l52.11-481.33 16-147.84-.01-.01c15.09-10.84 25.96-15.99 25.96-15.99l60.96-28.56.23.49c0 38.06 21.93 80.99 56.32 80.99.21 0 .43 0 .64-.01zm11.38 85.12c0-5.14-4.16-9.31-9.3-9.31s-9.3 4.17-9.3 9.31c0 5.13 4.16 9.3 9.3 9.3s9.3-4.17 9.3-9.3zm-.74-46.76c0-5.13-4.159-9.3-9.3-9.3-5.14 0-9.3 4.17-9.3 9.3 0 5.14 4.16 9.3 9.3 9.3s9.3-4.16 9.3-9.3z"/><path d="m652.94 221.16-56.95 56.93-2.34.24-14.93-146.79c22.73 16.34 55.04 45.59 74.22 89.62zm-361.79-89.57-16 147.84h-.01l-58.21-58.22c19.17-44.02 51.48-73.28 74.21-89.63zm144.1 36.86v.05c-.21.01-.43.01-.64.01-34.39 0-56.32-42.93-56.32-80.99l-.23-.49 6.39-3c7.77 12.49 23.29 29.96 50.189 29.96.19 0 .391 0 .58-.01v-.05c26.9 0 42.42-17.46 50.19-29.95l6.8 3.19c-.229 37.93-22.749 81.28-56.959 81.28zm2.08 75.86c5.14 0 9.3 4.17 9.3 9.31 0 5.13-4.16 9.3-9.3 9.3s-9.3-4.17-9.3-9.3c0-5.14 4.16-9.31 9.3-9.31zm-.74-46.75c5.141 0 9.3 4.17 9.3 9.3 0 5.14-4.159 9.3-9.3 9.3-5.14 0-9.3-4.16-9.3-9.3 0-5.13 4.16-9.3 9.3-9.3z"/></g><g fill="none" stroke="#000"><g stroke-width="17.858"><path d="m436.58 113.97c-.45.01-.9.01-1.36.01-.189.01-.39.01-.58.01-26.899 0-42.419-17.47-50.189-29.96l-6.39 3-60.96 28.56s-10.87 5.15-25.96 15.99c-22.73 16.35-55.04 45.61-74.21 89.63l58.21 58.22"/><path d="m436.59 168.47c-.45.01-.89.03-1.34.03-.21.01-.43.01-.64.01-34.39 0-56.32-42.93-56.32-80.99m-87.14 44.07-16 147.84-52.11 481.33h213.55m-3.31-646.84c.649.01 1.29.01 1.939.01 26.9 0 42.42-17.46 50.19-29.95l6.8 3.19 60.55 28.37s10.87 5.15 25.96 16c22.73 16.34 55.04 45.59 74.221 89.62l-56.95 56.93"/><path d="m433.28 168.42c.649.02 1.31.03 1.97.03 34.21 0 56.73-43.35 56.96-81.28.01-.2.01-.41.01-.61m86.5 44.98 14.93 146.79 49.05 482.38h-209.42"/></g><path d="m277.18 299.38h314.97" stroke-width="1.786"/><path d="m284.02 291.4h301.83" stroke-width="17.858"/><path d="m445.89 206.86c0 5.14-4.159 9.3-9.3 9.3-5.14 0-9.3-4.16-9.3-9.3 0-5.13 4.16-9.3 9.3-9.3s9.3 4.17 9.3 9.3zm.74 46.76c0 5.13-4.16 9.3-9.3 9.3s-9.3-4.17-9.3-9.3c0-5.14 4.16-9.31 9.3-9.31s9.3 4.17 9.3 9.31z" stroke-width="11.905"/></g><path d="m0 0h850.394v850.394h-850.394z" fill="none"/></svg>