<svg height="850.394" viewBox="0 0 850.394 850.394" width="850.394" xmlns="http://www.w3.org/2000/svg"><path d="m306.16 526.82-170.34 171.89h-4.73v-171.89zm42.32-70.45 10.15 17.5-52.47 52.95h-212.5l38.23-63.78 5.91-9.86h208.83z" fill="#9c5b16"/><path d="m361.42 527.4v171.31h-225.6l170.34-171.89h55.26zm-2.79-53.53 30.72 52.95h-83.19zm369.91 53.53v171.31h-10.23l-173.47-171.89h183.7z" fill="#9c5b16"/><path d="m544.84 526.82 173.47 171.89h-220.1v-171.89zm0 0h-84.06l31.32-52.26zm-45.83-63.79 5.9-9.85h208.84l1.86 3.21 40.86 70.43h-211.63l-52.74-52.26z" fill="#9c5b16"/><g fill="#0b00ea"><path d="m200.82 315.69c-24.28 7.27-41.52 25.61-41.52 47.09v90.4h-21.5l-5.91 9.86v-58.85c0-83.87 64.49-88.3 68.93-88.5z"/><path d="m200.82 315.69c7.21-2.17 15.05-3.35 23.24-3.35h32.31c7.85 0 15.37 1.09 22.33 3.08 24.75 7.09 42.4 25.61 42.4 47.36v90.4h-161.8v-90.4c0-21.48 17.24-39.82 41.52-47.09z"/><path d="m346.63 453.18h-25.53v-90.4c0-21.75-17.65-40.27-42.4-47.36l.62-2.07s69.16 1.65 69.16 88.51v54.51zm221.31-137.49c-24.28 7.27-41.5 25.61-41.5 47.09v90.4h-21.53l-5.9 9.851v-58.84c0-83.811 64.4-88.291 68.93-88.501z"/><path d="m567.94 315.69c7.21-2.17 15.05-3.35 23.239-3.35h32.29c7.86 0 15.391 1.09 22.36 3.09 24.75 7.09 42.4 25.61 42.4 47.35v90.4h-161.789v-90.4c0-21.48 17.22-39.82 41.5-47.09z"/><path d="m715.61 401.86v54.53l-1.86-3.21h-25.52v-90.4c0-21.74-17.65-40.26-42.4-47.35l.62-2.08s69.16 1.65 69.16 88.51z"/></g><path d="m200.14 185.27 88.42 87.61c-10.05 20.59-28.55 34.39-49.7 34.39-31.9 0-57.75-31.37-57.75-70.04 0-20.61 7.34-39.15 19.03-51.96z" fill="#ffeec8"/><path d="m296.61 237.23c0 13.01-2.93 25.21-8.05 35.65l-88.42-87.61c10.24-11.23 23.82-18.07 38.72-18.07 31.88 0 57.75 31.35 57.75 70.03zm348.04-51.99c11.699 12.81 19.06 31.36 19.06 51.99 0 38.67-25.86 70.04-57.729 70.04-20.801 0-39.03-13.34-49.2-33.35z" fill="#ffeec8"/><path d="m644.65 185.24-87.87 88.68c-5.431-10.67-8.561-23.24-8.561-36.69 0-38.68 25.87-70.03 57.761-70.03 14.88 0 28.44 6.83 38.67 18.04z" fill="#ffeec8"/><g fill="none" stroke="#231f20"><path d="m200.14 185.27c10.24-11.23 23.82-18.07 38.72-18.07 31.88 0 57.75 31.35 57.75 70.03 0 13.01-2.93 25.21-8.05 35.65-10.05 20.59-28.55 34.39-49.7 34.39-31.9 0-57.75-31.37-57.75-70.04 0-20.61 7.34-39.15 19.03-51.96zm120.96 267.91v-90.4c0-21.75-17.65-40.27-42.4-47.36-6.96-1.99-14.48-3.08-22.33-3.08h-32.31c-8.19 0-16.03 1.18-23.24 3.35-24.28 7.27-41.52 25.61-41.52 47.09v90.4" stroke-width="28"/><path d="m321.1 453.18h25.53l1.85 3.19 10.15 17.5 30.72 52.95h-295.69l38.23-63.78 5.91-9.86h21.5zm-190.01 74.22v171.31h230.33v-171.31" stroke-width="35"/><path d="m201.06 315.68s-.08 0-.24.01c-4.44.2-68.93 4.63-68.93 88.5v58.85m147.43-149.69s69.16 1.65 69.16 88.51v58.85m296.17-275.47c11.699 12.81 19.06 31.36 19.06 51.99 0 38.67-25.86 70.04-57.729 70.04-20.801 0-39.03-13.34-49.2-33.35-5.431-10.67-8.561-23.24-8.561-36.69 0-38.68 25.87-70.03 57.761-70.03 14.879 0 28.439 6.83 38.669 18.04zm43.58 267.94v-90.4c0-21.74-17.65-40.26-42.4-47.35-6.97-2-14.5-3.09-22.36-3.09h-32.29c-8.189 0-16.029 1.18-23.239 3.35-24.28 7.27-41.5 25.61-41.5 47.09v90.4" stroke-width="28"/><path d="m688.23 453.18h25.52l1.86 3.21 40.86 70.43h-295.69l31.32-52.26 6.91-11.53 5.9-9.85h21.53zm-190.02 74.22v171.31h230.33v-171.31" stroke-width="35"/><path d="m568.19 315.68s-.091 0-.25.01c-4.53.21-68.931 4.69-68.931 88.5v58.85m147.441-149.69s69.16 1.65 69.16 88.51v58.85" stroke-width="28"/><g stroke-linecap="round" stroke-linejoin="round" stroke-width="42"><path d="m138.21 123.9 61.93 61.37 88.42 87.61 135.85 134.61 67.69 67.07 52.74 52.26 173.47 171.89 15.33 15.19"/><path d="m114.34 720.39 21.48-21.68 170.34-171.89 52.47-52.95 65.78-66.38 132.37-133.57 87.87-88.68 59.73-60.27"/></g></g><path d="m0 0h850.394v850.394h-850.394z" fill="none"/></svg>