<svg height="850.394" viewBox="0 0 850.394 850.394" width="850.394" xmlns="http://www.w3.org/2000/svg"><path d="m90.763 314.839h402.147v402.147h-402.147z" fill="none" stroke="#231f20" stroke-width="21"/><path d="m588.767 396.696h163.415v163.411h-163.415z" fill="none"/><g fill="#5668af"><circle cx="588.767" cy="527.424" r="14.292"/><circle cx="588.767" cy="494.742" r="14.292"/><circle cx="588.767" cy="462.06" r="14.292"/><circle cx="588.767" cy="429.377" r="14.292"/><circle cx="621.45" cy="396.696" r="14.292"/><circle cx="654.133" cy="396.696" r="14.292"/><circle cx="686.816" cy="396.696" r="14.292"/><circle cx="719.499" cy="396.696" r="14.292"/><circle cx="752.182" cy="429.378" r="14.292"/><circle cx="752.182" cy="462.061" r="14.292"/><circle cx="752.182" cy="494.743" r="14.292"/><circle cx="752.182" cy="527.425" r="14.292"/><circle cx="719.498" cy="560.106" r="14.292"/><circle cx="686.815" cy="560.106" r="14.292"/><circle cx="654.132" cy="560.106" r="14.292"/><circle cx="621.449" cy="560.106" r="14.292"/><circle cx="588.768" cy="396.696" r="14.292"/><circle cx="752.182" cy="396.696" r="14.292"/><circle cx="752.182" cy="560.106" r="14.292"/><circle cx="588.767" cy="560.105" r="14.292"/></g><path d="m736.028 159.684-51.829 155.185-147.432-71.22" fill="none" stroke="#231f20" stroke-width="28"/><path d="m346.372 250.914c16.72-69.588 86.193-127.635 157.804-127.635 90.492 0 169.487 73.925 169.487 179.46" fill="none" stroke="#231f20" stroke-width="28"/><path d="m0 0h850.394v850.394h-850.394z" fill="none"/></svg>