<svg height="850.394" viewBox="0 0 850.394 850.394" width="850.394" xmlns="http://www.w3.org/2000/svg"><path d="m596.83 85.07v629.66h-.43v-615.27l-320.37 59.51v579.03h-.03l-30.46-17.63v-635.3z" fill="#fff5b4"/><path d="m596.4 99.46v615.27l-320.37 59.51v-615.27zm-257.23 370.12c0-8.5-6.89-15.38-15.37-15.38-8.5 0-15.38 6.88-15.38 15.38 0 8.479 6.88 15.36 15.38 15.36 8.48 0 15.37-6.88 15.37-15.36z" fill="#34a047"/><path d="m323.8 454.2c8.48 0 15.37 6.88 15.37 15.38 0 8.479-6.89 15.36-15.37 15.36-8.5 0-15.38-6.881-15.38-15.36 0-8.5 6.88-15.38 15.38-15.38z" fill="#fbed24"/><g fill="none"><g stroke="#231f20"><path d="m339.17 469.58c0 8.479-6.89 15.36-15.37 15.36-8.5 0-15.38-6.881-15.38-15.36 0-8.5 6.88-15.38 15.38-15.38 8.48 0 15.37 6.88 15.37 15.38z" stroke-width="14"/><g stroke-width="21"><path d="m169.4 720.37h76.14v-635.3h351.29v632.32h87.85"/><path d="m596.4 714.73-320.37 59.51v-615.27l320.37-59.51z"/></g></g><path d="m0 0h850.394v850.394h-850.394z"/></g></svg>