<svg height="850.394" viewBox="0 0 850.394 850.394" width="850.394" xmlns="http://www.w3.org/2000/svg"><path d="m623.182 332v402h-402.01v-396" fill="none"/><path d="m589.648 371.056c0 18.523 15.018 33.533 33.535 33.533 18.523 0 33.531-15.01 33.531-33.533 0-18.522-15.008-33.535-33.531-33.535-18.517 0-33.535 15.013-33.535 33.535zm0 72.59c0 18.522 15.018 33.533 33.535 33.533 18.523 0 33.531-15.011 33.531-33.533s-15.008-33.535-33.531-33.535c-18.517-.001-33.535 15.012-33.535 33.535zm0 72.588c0 18.523 15.018 33.533 33.535 33.533 18.523 0 33.531-15.01 33.531-33.533 0-18.522-15.008-33.535-33.531-33.535-18.517 0-33.535 15.013-33.535 33.535zm0 72.59c0 18.522 15.018 33.532 33.535 33.532 18.523 0 33.531-15.01 33.531-33.532 0-18.523-15.008-33.535-33.531-33.535-18.517 0-33.535 15.012-33.535 33.535zm0 72.589c0 18.522 15.018 33.533 33.535 33.533 18.523 0 33.531-15.011 33.531-33.533s-15.008-33.535-33.531-33.535c-18.517 0-33.535 15.013-33.535 33.535zm-46.869 39.054c-18.522 0-33.533 15.018-33.533 33.535 0 18.523 15.011 33.531 33.533 33.531s33.535-15.008 33.535-33.531c0-18.518-15.012-33.535-33.535-33.535zm-80.402 0c-18.522 0-33.533 15.018-33.533 33.535 0 18.523 15.011 33.531 33.533 33.531s33.535-15.008 33.535-33.531c0-18.518-15.013-33.535-33.535-33.535zm-80.402 0c-18.522 0-33.533 15.018-33.533 33.535 0 18.523 15.01 33.531 33.533 33.531s33.535-15.008 33.535-33.531c0-18.518-15.012-33.535-33.535-33.535zm-80.403 0c-18.522 0-33.533 15.018-33.533 33.535 0 18.523 15.01 33.531 33.533 33.531s33.535-15.008 33.535-33.531c0-18.518-15.012-33.535-33.535-33.535zm-46.867-38.056c0-18.523-15.017-33.533-33.535-33.533-18.522 0-33.53 15.01-33.53 33.533 0 18.522 15.008 33.535 33.53 33.535 18.518 0 33.535-15.012 33.535-33.535zm0-71.59c0-18.522-15.017-33.532-33.535-33.532-18.522 0-33.53 15.01-33.53 33.532s15.008 33.535 33.53 33.535c18.518 0 33.535-15.012 33.535-33.535zm0-71.589c0-18.522-15.017-33.533-33.535-33.533-18.522 0-33.53 15.011-33.53 33.533s15.008 33.535 33.53 33.535c18.518.001 33.535-15.012 33.535-33.535zm0-71.589c0-18.522-15.017-33.532-33.535-33.532-18.522 0-33.53 15.01-33.53 33.532 0 18.523 15.008 33.535 33.53 33.535 18.518 0 33.535-15.012 33.535-33.535zm0-71.589c0-18.522-15.017-33.533-33.535-33.533-18.522 0-33.53 15.01-33.53 33.533s15.008 33.535 33.53 33.535c18.518 0 33.535-15.013 33.535-33.535zm368.476 324.413c-18.522 0-33.533 15.018-33.533 33.535 0 18.523 15.011 33.531 33.533 33.531s33.535-15.008 33.535-33.531c0-18.518-15.013-33.535-33.535-33.535zm-368.476 33.532c0-18.522-15.017-33.533-33.535-33.533-18.522 0-33.53 15.011-33.53 33.533s15.008 33.535 33.53 33.535c18.518 0 33.535-15.013 33.535-33.535z" fill="#5668af"/><path d="m0 0h850.394v850.394h-850.394z" fill="none"/><path d="m252 364 354-206" fill="none"/><path d="m298.735 375.601c16.009-9.316 21.43-29.845 12.116-45.851-9.316-16.009-29.838-21.431-45.848-12.115-16.009 9.316-21.436 29.838-12.12 45.848 9.315 16.005 29.843 21.434 45.852 12.118zm58.853-34.247c16.009-9.316 21.43-29.845 12.116-45.851-9.316-16.009-29.838-21.431-45.847-12.115s-21.436 29.838-12.12 45.848c9.313 16.005 29.842 21.433 45.851 12.118zm58.852-34.248c16.01-9.316 21.43-29.845 12.116-45.851-9.316-16.009-29.838-21.431-45.848-12.115-16.009 9.316-21.436 29.838-12.12 45.847 9.315 16.006 29.843 21.435 45.852 12.119zm58.853-34.248c16.009-9.316 21.43-29.845 12.116-45.851-9.316-16.009-29.838-21.431-45.848-12.115-16.009 9.316-21.437 29.838-12.12 45.848 9.314 16.006 29.842 21.435 45.852 12.118zm58.853-34.247c16.009-9.316 21.43-29.845 12.116-45.85-9.316-16.01-29.838-21.432-45.848-12.115-16.01 9.316-21.437 29.838-12.12 45.848 9.313 16.005 29.842 21.433 45.852 12.117zm58.852-34.248c16.009-9.316 21.43-29.845 12.116-45.85-9.316-16.009-29.839-21.431-45.848-12.115-16.01 9.316-21.437 29.838-12.12 45.848 9.314 16.005 29.842 21.434 45.852 12.117z" fill="#5668af"/><path d="m462.192 522.884 1.276-212.991m-48.019 51.444 48.2-52.449 47.55 53.109" fill="none" stroke="#000" stroke-linecap="round" stroke-linejoin="round" stroke-width="14"/></svg>