<svg height="850" viewBox="0 0 850 850" width="850" xmlns="http://www.w3.org/2000/svg"><path d="m422 555.5v129.3h-29.7v-129l6.5-.3z" fill="#231f20"/><path d="m392.3 555.3 21-.3-14.5.5-6.5.3z" fill="#a9d7f3"/><path d="m422 553.3v2.2h-23.2l14.5-.5-21 .3h-33.3l-2.2-.5-2-.5-2-.8-2-1-2-1-1.8-1.2-3.7-3-3.8-3.5-3.7-4.5-4.3-5-5-6 1.3 30.7.7 30.3 1 32.5h-149l5.3-99.8-48.5 106 .2.5-24.2-10.2 9.7-34.8 6.3-22.5 5.2-19.7 2-7.3 2.3-7.7 2.7-8.3 3.3-8.2 6.5-16.5 6.7-16 6.3-14 5.2-11.5 5-10.3 3.3-3 3.7-3 4.3-3.2 4.5-3.3 9.7-6.7 9.8-6 8-4.8 4 .5 1 2.3 1.2 2.2 1.5 2 1.5 2 1.8 2 1.7 1.8 2 1.7 2.3 1.3 2.2 1.5 2.3 1.2 2.5 1 2.5.8 2.7.7 2.5.5 2.8.3h5.7l2.8-.3 2.7-.5 2.8-.7 2.5-.8 2.5-1 2.2-1.2 2.3-1.3 2-1.5 2-1.7 2-1.8 1.7-1.7 1.5-2 1.3-2.3 1.2-2.2 1.3-2.3.5-1.5 12.2 6.5 6.5 3.8 6.8 4 6.5 4 6 4.2 5.2 4 4.3 4 9.7 19.3 15 30.7 10.5 22.3h4.5l15.8 2.5 1 .2 28.7 4.5z" fill="#a9d7f3"/><path d="m392.3 555.8v129l-5 2.2-25.8 7.5v-139.2h30.8z" fill="#faa41f"/><path d="m392.3 555.8 6.5-.3z" fill="#231f20"/><path d="m744 78v611h-30.7l-2-4.2v-576h-319v407l-15.8-2.5h-4.5l-10.5-22.3v-413z" fill="#faa41f"/><path d="m711.3 108.8v576h-52.8l39.3-12.8v-549l-275.8 89v308.5l-28.7-4.5-1-.2v-407z" fill="#231f20"/><path d="m697.8 123v549l-39.3 12.8h-236.5v-129.3l14.3.3h14l8-.5 7.5-1 7.5-1 6.5-1.5 5.7-1.8 4.8-1.5 3.2-1.5 1.5-1.2 1.5-1.5 1.3-1.8 1.2-2 1-2.2.5-2.3v-2l-.2-1-.3-1-.7-1.2-.8-1-1.2-1-1.3-.8-3.2-1.7-3.8-1.8-3.7-1.2-3.8-1.3-5.7-1.7v-.8l.2-.7.8-1 1-1 1.2-.8 1.3-.5.7-.7.8-1v-1l-1.3-.5-1.2-.3-3-.2h-2.3l-2.5.2-5.2 1-5.5 1.5-5.5 1.8-5.3 2-4.7 1.7-3.5 1.8-2.3 1.5-2.7-.5-14.8-2.3v-308.5zm-39.3 561.8-236.5 76.2v-76.2z" fill="#f6cc4b"/><path d="m500 532 .3 1 .2 1v2l-.5 2.3-1 2.2-1.2 2-1.3 1.8-1.5 1.5-1.5 1.2-3.2 1.5-4.8 1.5-5.7 1.8-6.5 1.5-7.5 1-7.5 1-8 .5h-14v-30.8l.5-2.2 2.7.5 2.3-1.5 3.5-1.8 4.7-1.7 5.3-2 5.5-1.8 5.5-1.5 5.2-1 2.5-.2h2.3l3 .2 1.2.3 1.3.5v1l-.8 1-.7.7-1.3.5-1.2.8-1 1-.8 1-.2.7v.8l5.7 1.7 3.8 1.3 3.7 1.2 3.8 1.8 3.2 1.7 1.3.8 1.2 1 .8 1z" fill="#ffeec8"/><path d="m436.8 522.8-.5 2.2v30.8l-14.3-.3v-35z" fill="#a9d7f3"/><path d="m180.3 625.5.2-3.7h149l.3 17v15l-.3 18.7-.5 31.5-1 34.8-.7 15.7-.8 12.8-60.5-.3-5.7-95.2-11.8.2-5.5 99.3-60.5-1.3-.7-12.7-.5-15.8-1-35.5-.8-32.5-.2-19 .2-15.2z" fill="#7a7878"/><path d="m276.8 404.3 4 2 8.5 4.2-.5 1.5-1.3 2.3-1.2 2.2-1.3 2.3-1.5 2-1.7 1.7-2 1.8-2 1.7-2 1.5-2.3 1.3-2.2 1.2-2.5 1-2.5.8-2.8.7-2.7.5-2.8.3h-5.7l-2.8-.3-2.5-.5-2.7-.7-2.5-.8-2.5-1-2.3-1.2-2.2-1.5-2.3-1.3-2-1.7-1.7-1.8-1.8-2-1.5-2-1.5-2-1.2-2.2-1-2.3-4-.5 10.7-6.2 4.8-2.8 2.5 1.8 2.5 1.7 2.7 1.3 2.8 1 2.7 1 2.8.5 3 .5h5.7l2.8-.3 2.7-.7 2.8-.8 2.5-1 2.5-1.2 2.5-1.3 2.2-1.5z" fill="#ffeec8"/><path d="m233.3 402.5-2.5-1.7-2.3-2.3-2-2.2-2.2-2.5-1.8-2.8-1.7-2.7-1.8-3-1.5-3.3-1.2-3.2-1.3-3.3-1-3.5-1-3.5-.5-3.7-.5-3.8-.5-3.7v-4l.3-5.8.7-5.7 1-5.5 1.5-5.3 1.8-5 2.2-4.7 2.5-4.3 2.8-4.2 3.2-3.5 3.3-3.3 3.7-3 3.8-2.5 4-1.7 4.2-1.5 4.3-.8 4.5-.5 4.5.5 4.2.8 4.3 1.5 4 1.7 3.7 2.5 3.8 3 3.2 3.3 3 3.5 3 4.2 2.5 4.3 2.3 4.7 1.7 5 1.5 5.3 1 5.5.8 5.7.2 5.8-.2 4-.3 4-.5 3.7-.7 3.8-1 3.7-1 3.5-1.3 3.5-1.5 3.3-1.5 3.2-1.7 3-1.8 2.8-2.2 2.7-2 2.5-2.3 2.5-2.5 2-2.5 2-2.2 1.5-2.5 1.3-2.5 1.2-2.5 1-2.8.8-2.7.7-2.8.3h-5.7l-3-.5-2.8-.5-2.7-1-2.8-1-2.7-1.3-2.5-1.7z" fill="#9e5c26"/><path d="m137.5 628.5.8 4 .7 5.5.8 6.8v13.2l-.5 3-.3 2.8-.5 2.5-.7 2-.8 1.7-1 1.5-.7-.2-.5-.3-.5-.7-.5-1-.3-1.3-.2-1.5-.8-1.2-.7-1-.8-.3-.7-.2-1 2-1 2.7-2 6.5-1.3 3-1.5 2.8-.7 1-1 .7-1 .5-1 .5h-1l-1-.2-2.3-.5-2-1.3-1.7-1.2-1.5-1.8-1.5-1.7-1-2-.8-1.8-.5-3.5-.5-5v-6l.5-6.7.8-7.3 1.2-7.7 1.8-7.8 2-7.5 1-3.2z" fill="#ffeec8"/><g fill="none" stroke="#231f20" stroke-linecap="round" stroke-miterlimit="10"><path d="m422 684.8h-29.7v-129m0-40v-407h319v576h-52.8" stroke-width="19"/><path d="m422 514.8v-302.8l275.8-89v549l-39.3 12.8-236.5 76.2v-207.7" stroke-width="19"/><path d="m361.5 491.3v-413.3h382.5v616.5" stroke-width="14"/><path d="m361.5 694.5v-136.5" stroke-width="19"/><path d="m326.5 767.3.8-12.8.7-15.7 1-34.8.5-31.5.3-18.7v-15l-.3-17-1-32.5-.7-30.3-1.3-30.7m-214.2 93.2 1-3.2 9.7-34.8 6.3-22.5 5.2-19.7 2-7.3 2.3-7.7 2.7-8.3 3.3-8.2 6.5-16.5 6.7-16 6.3-14 5.2-11.5 5-10.3 3.3-3 3.7-3 4.3-3.2 4.5-3.3 9.7-6.7 9.8-6 8-4.8 10.7-6.2 4.8-2.8m-53 226v-3l.2-3.7 5.3-99.8-48.5 106 .2.5.8 4 .7 5.5.8 6.8v13.2l-.5 3-.3 2.8-.5 2.5-.7 2-.8 1.7-1 1.5-.7-.2-.5-.3-.5-.7-.5-1-.3-1.3-.2-1.5-.8-1.2-.7-1-.8-.3-.7-.2-1 2-1 2.7-2 6.5-1.3 3-1.5 2.8-.7 1-1 .7-1 .5-1 .5h-1l-1-.2-2.3-.5-2-1.3-1.7-1.2-1.5-1.8-1.5-1.7-1-2-.8-1.8-.5-3.5-.5-5v-6l.5-6.7.8-7.3 1.2-7.7 1.8-7.8 2-7.5" stroke-width="14"/><path d="m182.5 770-.7-12.7-.5-15.8-1-35.5-.8-32.5-.2-19 .2-15.2.8-13.8m62.7 145.8 5.5-99.3 11.8-.2 5.7 95.2.3 4.3m60.5-149.5h-144m-70.5-3.8 1 .3 24.2 10.2.8.5m83.5-217 1 2.3 1.2 2.2 1.5 2 1.5 2 1.8 2 1.7 1.8 2 1.7 2.3 1.3 2.2 1.5 2.3 1.2 2.5 1 2.5.8 2.7.7 2.5.5 2.8.3h5.7l2.8-.3 2.7-.5 2.8-.7 2.5-.8 2.5-1 2.2-1.2 2.3-1.3 2-1.5 2-1.7 2-1.8 1.7-1.7 1.5-2 1.3-2.3 1.2-2.2 1.3-2.3m-12.8-8.5 2.5-2 2.5-2 2.3-2.5 2-2.5 2.2-2.7 1.8-2.8 1.7-3 1.5-3.2 1.5-3.3 1.3-3.5 1-3.5 1-3.7.7-3.8.5-3.7.3-4 .2-4-.2-5.8-.8-5.7-1-5.5-1.5-5.3-1.7-5-2.3-4.7-2.5-4.3-3-4.2-3-3.5-3.2-3.3-3.8-3-3.7-2.5-4-1.7-4.3-1.5-4.2-.8-4.5-.5-4.5.5-4.3.8-4.2 1.5-4 1.7-3.8 2.5-3.7 3-3.3 3.3-3.2 3.5-2.8 4.2-2.5 4.3-2.2 4.7-1.8 5-1.5 5.3-1 5.5-.7 5.7-.3 5.8v4l.5 3.7.5 3.8.5 3.7 1 3.5 1 3.5 1.3 3.3 1.2 3.2 1.5 3.3 1.8 3 1.7 2.7 1.8 2.8 2.2 2.5 2 2.2 2.3 2.3 2.5 1.7 2.5 1.8 2.5 1.7 2.7 1.3 2.8 1 2.7 1 2.8.5 3 .5h5.7l2.8-.3 2.7-.7 2.8-.8 2.5-1 2.5-1.2 2.5-1.3z" stroke-width="14"/><path d="m275.8 273.3 49.5-15.5-20-47.8" stroke-width="21"/><path d="m318 254.3-5.2-1-5.3-1.3-5-1.5-5-2-4.7-2.2-4.5-2.3-4.3-2.7-4-3-3.5-3.3-3.2-3.2-2.8-3.5-2.5-3.5-1.7-3.5-1.5-3.8-1-3.7-.3-4 .3-2 .2-2.3.3-2 .5-2 1.5-4 2.2-4 2.5-3.5 3.3-3.5 3.5-3.2 4-3 4.5-2.8 4.7-2.2 5.3-2.3 5.5-1.7 5.7-1.3 6-1 6.3-.7 6.2-.3 7.5.3" stroke-width="21"/><path d="m398.8 555.5 14.5-.5-21 .3h-33.3l-2.2-.5-2-.5-2-.8-2-1-2-1-1.8-1.2-3.7-3-3.8-3.5-3.7-4.5-4.3-5-5-6-6.2-8-7.5-9.3m66.7 45.3 12.8-.5 6.5-.3m-6.5 1-12.8-.2" stroke-width="14"/><path d="m442.5 555.8h-6.2l-14.3-.3h-23.2l-6.5.3-19 .2m20-40 28.7 4.5 14.8 2.3 2.7.5 2.3-1.5 3.5-1.8 4.7-1.7 5.3-2 5.5-1.8 5.5-1.5 5.2-1 2.5-.2h2.3l3 .2 1.2.3 1.3.5v1l-.8 1-.7.7-1.3.5-1.2.8-1 1-.8 1-.2.7v.8l5.7 1.7 3.8 1.3 3.7 1.2 3.8 1.8 3.2 1.7 1.3.8 1.2 1 .8 1 .7 1.2.3 1 .2 1v2l-.5 2.3-1 2.2-1.2 2-1.3 1.8-1.5 1.5-1.5 1.2-3.2 1.5-4.8 1.5-5.7 1.8-6.5 1.5-7.5 1-7.5 1-8 .5h-7.8m-166-151.5h.3l4 2 8.5 4.2 12.2 6.5 6.5 3.8 6.8 4 6.5 4 6 4.2 5.2 4 4.3 4 9.7 19.3 15 30.7 10.5 22.3h4.5l15.8 2.5 1 .2m43 39v-30" stroke-width="14"/></g></svg>