<svg height="850" viewBox="0 0 850 850" width="850" xmlns="http://www.w3.org/2000/svg"><path d="m415.5 336.8 2-7.8 1.3-4 1.2-4 1.5-4 1.8-4 2-3.7 2.2-3.5 2.3-3.5 2.7-3 3-2.8 3.3-2.5 3.5-2 3.7-1.7 4-1.3 4.5-.5h3l3 .3 3 .7 3.3 1.3 3 1.5 3 1.7 3 2 2.7 2.3 2.8 2.2 2.5 2.8 2 2.5 2 3 1.5 2.7 1.2 3 .8 2.8.2 3 1.3 1.7-1 .8-.8 1.2-.7 1.5-.8 1.5-1.2 4.3-.8 5-1.2-.3-1-1.5-1.5-1.5-2-1.5-2.5-1.2-2.8-1-3-1-3.2-.8-3.5-.5-3.5-.5h-3.5l-3.3.3-3.5.7-3.2.8-2.8 1.2-2.7 1.8-1 1-1.3 1-1 1.5-1 2-1 2.2-1 2.5-1.7-1-2.3-.7-2.5-.8-3-.2-3-.5h-6.5l-3.5.2z" fill="#ffeec8"/><path d="m327.3 358.8 2 3.7 2 3.8 1.5 4 1.5 4 1 4.2.7 4.3.5 4.2.3 4.5-.3 3.8-.2 3.7-.5 3.8-.8 3.5-1 3.5-1.2 3.5-1.5 3.2-1.5 3.3-2 3.5-2.3 3.5-2.5 3.2-2.7 3.3-2.8 2.7-3.2 2.8-3.3 2.5-3.2 2.5-3.8 2-3.7 1.7-3.8 1.5-4 1.5-4 1-4.2.8-4.5.5h-7.5l-3-.3-3-.5-3.3-.5-2.7-.7-3-.8-5.5-2-5.5-2.5-5-3.2-4.8-3.5-4.2-4-4-4.3-3.5-4.7-3.3-5-2.5-5.3-2-5.7-.7-3-.8-2.8-.5-3-.5-3.2-.2-3v-6.3l.2-3.2.5-3 .5-3 .8-3 .7-3 2-5.5 2.5-5.3 3.3-5.2 3.5-4.8 4-4.2 4.2-4 4.8-3.5 5-3 5.5-2.5 5.5-2.3 3-.7 2.7-.8 3.3-.5 3-.2 3-.3 3.2-.2 4 .2 4 .3 4 .7 3.8 1 3.7 1 3.5 1.3 3.5 1.7 3.5 1.8 3.3 2 3 2 3 2.5 2.7 2.5 2.8 2.5 2.5 3 2.2 3z" fill="#fbee34"/><path d="m553.3 339.5.7-2.2 1-1.8 1.3-1.2 1.2-1 3-1.3 3-.7 3-.5 3.3-.3 3.2.3 3 .2 3.3.8 3 1 3.2 1.2 3.3 1.3 3 1.5 3 1.7 3.2 2 3 2.3 5.8 4.5 1 1 2.5 2.7 3.2 4.3 1.8 2.2 1.5 2.8 1.5 2.7 1.2 3 .8 2.8.2 1.5v1.2l-.2 1.3-.3 1.2-.5 1.3-.7 1-1 1-1.3 1-1.5.7-1.7.8-1 .5-.3.5v.5l.3 1 .7 1.5 1.3 1.7 1.5 1.8 4.2 4.7 5 5.5 2.8 3.3 2.5 3.5 2.5 3.5 2.5 4 2.2 4.2 2 4.5 1 3.3 1 3.5 2.5 7.7 2.3 8.8 2.7 11 2.5 12.5 1.3 6.7 1 7 .5 6.8.5 7 .2 6.7-.2 6.5-1.5 19.3-1.5 16-1.5 13.2-1.5 11.3-1.3 10-1 9.5-1 9.2-.2 10.3-.3 6.7.3 6.8.2 6.7.5 6.5.8 6.5 1 6.3 1.2 6.2 1.3 6 1.7 5.8 2 6 2 5.5 2.5 5.5 2.5 5.5 3 5.2 3 5.3 3.5 5-184.7 51.5-53.5-152.5-31.5-90.5-10.8-30.8-4.7-14.2-1.5-5.5-1-4.3-.8-3.5-.7-9.7-.5-10-.5-12-.3-14.8.3-7.7.2-7.5.5-7.8.8-7.2.7-7.3 1.5-6.5 1.3-5 1-2.7 1-2.5 1-2 1.2-1.8 2.3-2 2.5-1.7 3-1.5 3.2-1.3 3.5-1.2 3.8-.8 4-.7 3.7-.3 3.5-.2h6.5l3 .5 3 .2 2.5.8 2.3.7 1.7 1 1-2.5 1-2.2 1-2 1-1.5 1.3-1 1-1 2.7-1.8 2.8-1.2 3.2-.8 3.5-.7 3.3-.3h3.5l3.5.5 3.5.5 3.2.8 3 1 2.8 1 2.5 1.2 2 1.5 1.5 1.5 1 1.5 1.2.3.8-5 1.2-4.3.8-1.5.7-1.5.8-1.2 1-.8.7-.5 2.3-1 2.2-.7 4.8-1 4.7-.8h4.8l4.7.3 4.8 1 4.5 1 4.2 1.5 4 1.7 4 2 3.5 2.3 3 2.2 2.8 2.5 2.5 2.3 1.7 2.5z" fill="#ffeec8"/><path d="m385.3 357-1.3 5-1.5 6.5-.7 7.3-.8 7.2-.5 7.8-.2 7.5-.3 7.7.3 14.8h-48.5l-2-1 1.5-3.3 1.5-3.2 1.2-3.5 1-3.5.8-3.5.5-3.8.2-3.7.3-3.8-.3-4.5-.5-4.2-.7-4.3-1-4.2-1.5-4-1.5-4-2-3.8-2-3.7 54-1.8zm-109.8 362.8 2 .2 2 .5 2 1 1.5 1.3 1.3 1.7 1 1.8.7 2 .3 2.2-.3 2-.7 2-1 1.8-1.3 1.7-1.5 1.3-2 1-2 .5-2 .2-2.2-.2-2-.5-1.8-1-1.5-1.3-1.5-1.7-1-1.8-.5-2-.2-2 .2-2.2.5-2 1-1.8 1.5-1.7 1.5-1.3 1.8-1 2-.5zm0-612.3 2 .3 2 .5 2 1 1.5 1.2 1.3 1.8 1 1.7.7 2 .3 2.3-.3 2-.7 2-1 2-1.3 1.5-1.5 1.2-2 1-2 .8h-4.2l-2-.8-1.8-1-1.5-1.2-1.5-1.5-1-2-.5-2-.2-2 .2-2.3.5-2 1-1.7 1.5-1.8 1.5-1.2 1.8-1 2-.5z" fill="#fbee34"/><path d="m381.3 355.8v1.3l-54 1.8-2.3-3-2.3-3-2.5-3-2.8-2.5-2.8-2.5-3-2.5-3-2-3.3-2-3.5-1.8-3.5-1.8-3.5-1.3-3.8-1-3.8-1-4-.8-4-.3-4-.3-3.3.3-3 .3-3 .3-3.3.5-2.8.8-3 .8-5.5 2.3-5.5 2.5-5 3-4.8 3.5-4.3 4-4 4.3-3.5 4.8-3.3 5.3-2.5 5.3-2 5.5-.8 3-.8 3-.5 3-.5 3-.3 3.3v6.3l.3 3 .5 3.3.5 3 .8 2.8.8 3 2 5.8 2.5 5.3 3.3 5 3.5 4.8 4 4.3 4.3 4 4.8 3.5 5 3.3 5.5 2.5 5.5 2 3 .8 2.8.8 3.3.5 3 .5 3 .3h7.6l4.5-.5 4.3-.8 4-1 4-1.5 3.8-1.5 3.8-1.8 3.8-2 3.3-2.5 3.3-2.5 3.3-2.8 2.8-2.8 2.8-3.3 2.5-3.3 2.3-3.5 2-3.5 2 1h48.5l.5 12 .5 10v264.5l-.5 4.3-.5 4-.5 3.8-1 4-1 3.8-1.3 3.8-1.5 3.5-1.8 3.8-1.8 3.3-1.8 3.5-2.3 3.3-2.3 3-2.3 3.3-2.5 2.8-2.8 2.8-2.8 2.8-3 2.5-3 2.3-3 2.3-3.3 2.3-3.5 1.8-3.3 1.8-3.8 1.8-3.5 1.5-3.8 1.3-3.8 1-4 1-3.8.5-4 .5-4.3.5h-55.1l-4-.5-4-.5-4-.5-3.8-1-3.8-1-3.8-1.3-3.8-1.5-3.5-1.8-3.5-1.8-3.3-1.8-3.3-2.3-3.3-2.3-3-2.3-2.8-2.5-3-2.8-2.5-2.8-2.5-2.8-2.5-3.3-2.3-3-2-3.3-2-3.5-1.8-3.3-1.5-3.8-1.5-3.5-.1-4.6-1-3.8-1-4-.8-3.8-.5-4-.3-4.3v-563.6l.3-4 .5-4 .8-4 1-3.8 1-3.8 1.3-3.8 1.5-3.8 1.5-3.5 1.8-3.5 2-3.3 2-3.3 2.3-3.3 2.5-3 2.5-3 2.5-2.8 3-2.5 2.8-2.5 3-2.5 3.3-2.3 3.3-2 3.3-2 3.5-1.8 3.5-1.5 3.8-1.5 3.8-1.3 3.8-1 3.8-1 4-.8 4-.5 4-.3 4.3-.3h46.8l4 .3 4.3.3 4 .5 3.8.8 4 1 3.8 1 3.8 1.3 3.5 1.5 3.8 1.5 3.3 1.8 3.5 2 3.3 2 3 2.3 3 2.5 3 2.5 2.8 2.5 2.8 2.8 2.5 3 2.3 3 2.3 3.3 2.3 3.3 1.8 3.3 1.8 3.5 1.8 3.5 1.5 3.8 1.3 3.8 1 3.8 1 3.8.5 4 .5 4 .5 4v212.3zm-81.5 259.2v-4.5l-.5-4.3-.5-4-.8-4-1-4-1.3-3.5-1.3-3.3-1.5-3-1.5-3-2-2.5-1.8-2-2-2-2.3-1.5-2.3-1-2-.4-2.3-.3-2.5.3-2.3.5-2.3 1-2.3 1.5-2 2-1.8 2-1.8 2.5-1.8 3-1.5 3-1.3 3.3-1.3 3.5-1 4-.8 4-.5 4-.5 4.3v9l.5 4.3.5 4.3.8 4 1 3.8 1.3 3.5 1.3 3.5 1.5 3 1.8 2.8 1.8 2.5 1.8 2.3 2 1.8 2.3 1.5 2.3 1 2.3.8 2.5.3 2.3-.3 2.3-.8 2.3-1 2.3-1.5 2-1.8 1.8-2.3 2-2.5 1.5-2.8 1.5-3 1.3-3.5 1.3-3.5 1-3.8.8-4 .5-4.3.5-4.3v-4.6zm-13.5-496.7-.3-2.3-.8-2-1-1.8-1.3-1.8-1.5-1.3-2-1-2-.5-2-.3-2.3.3-2 .5-1.8 1-1.5 1.3-1.5 1.8-1 1.8-.5 2-.3 2.3.3 2 .5 2 1 2 1.5 1.5 1.5 1.3 1.8 1 2 .8h4.3l2-.8 2-1 1.5-1.3 1.3-1.5 1-2 .8-2zm0 612.2-.3-2.3-.8-2-1-1.8-1.3-1.8-1.5-1.3-2-1-2-.5-2-.3-2.3.3-2 .5-1.8 1-1.5 1.3-1.5 1.8-1 1.8-.5 2-.3 2.3.3 2 .5 2 1 1.8 1.5 1.8 1.5 1.3 1.8 1 2 .5 2.3.3 2-.3 2-.5 2-1 1.5-1.3 1.3-1.8 1-1.8.8-2z" fill="#f6cc4b"/><path d="m668.8 390.3-.3 3.2-.5 3-.7 3-1.3 2.8-1.2 2.5-1.8 2.5-1.7 2.5-2.3 2-.7.7-2.5 1.8-2 1.2-3 1.3-3.5 1.7-4.5 1.5-3.3.5-2-4.5-2.2-4.2-2.5-4-2.5-3.5-2.5-3.5-2.8-3.3-5-5.5-4.2-4.7-1.5-1.8-1.3-1.7-.7-1.5-.3-1v-.5l.3-.5 1-.5 1.7-.8 1.5-.7 1.3-1 1-1 .7-1 .5-1.3.3-1.2.2-1.3v-1.2l-.2-1.5-.8-2.8-1.2-3-1.5-2.7 1-.3h18l3.5.3 3.2.5 3 .7 3 1 3 1.3 2.8 1.5 2.5 1.7 2.2 2 2.3 2 1.7 2.5 1.8 2.5 1.2 2.5 1.3 2.8.7 3 .5 3z" fill="#fbee34"/><path d="m276.8 571.8 2.2.2 2.3.5 2.2 1 2.3 1.5 2 2 1.7 2 2 2.5 1.5 3 1.5 3 1.3 3.3 1.2 3.5 1 4 .8 4 .5 4 .5 4.2v9l-.5 4.3-.5 4.2-.8 4-1 3.8-1.2 3.5-1.3 3.5-1.5 3-1.5 2.7-2 2.5-1.7 2.3-2 1.7-2.3 1.5-2.2 1-2.3.8-2.2.2-2.5-.2-2.3-.8-2.2-1-2.3-1.5-2-1.7-1.7-2.3-1.8-2.5-1.7-2.7-1.5-3-1.3-3.5-1.2-3.5-1-3.8-.8-4-.5-4.2-.5-4.3v-9l.5-4.2.5-4 .8-4 1-4 1.2-3.5 1.3-3.3 1.5-3 1.7-3 1.8-2.5 1.7-2 2-2 2.3-1.5 2.2-1 2.3-.5z" fill="#231f20"/><g fill="none" stroke="#231f20" stroke-linecap="round" stroke-miterlimit="10"><path d="m381.3 435.5v271.8l-.5 4.2-.5 4-.5 3.8-1 4-1 3.7-1.3 3.8-1.5 3.5-1.7 3.7-1.8 3.3-1.7 3.5-2.3 3.2-2.2 3-2.3 3.3-2.5 2.7-2.7 2.8-2.8 2.7-3 2.5-3 2.3-3 2.2-3.2 2.3-3.5 1.7-3.3 1.8-3.7 1.7-3.5 1.5-3.8 1.3-3.7 1-4 1-3.8.5-4 .5-4.2.5h-55l-4-.5-4-.5-4-.5-3.8-1-3.7-1-3.8-1.3-3.7-1.5-3.5-1.7-3.5-1.8-3.3-1.7-3.2-2.3-3.3-2.2-3-2.3-2.7-2.5-3-2.7-2.5-2.8-2.5-2.7-2.5-3.3-2.3-3-2-3.2-2-3.5-1.7-3.3-1.5-3.7-1.5-3.5-1.3-3.8-1-3.7-1-4-.7-3.8-.5-4-.3-4.2v-563.8l.3-4 .5-4 .7-4 1-3.7 1-3.8 1.3-3.7 1.5-3.8 1.5-3.5 1.7-3.5 2-3.2 2-3.3 2.3-3.2 2.5-3 2.5-3 2.5-2.8 3-2.5 2.7-2.5 3-2.5 3.3-2.2 3.2-2 3.3-2 3.5-1.8 3.5-1.5 3.7-1.5 3.8-1.2 3.7-1 3.8-1 4-.8 4-.5 4-.2 4.2-.3h46.8l4 .3 4.2.2 4 .5 3.8.8 4 1 3.7 1 3.8 1.2 3.5 1.5 3.7 1.5 3.3 1.8 3.5 2 3.2 2 3 2.2 3 2.5 3 2.5 2.8 2.5 2.7 2.8 2.5 3 2.3 3 2.2 3.2 2.3 3.3 1.7 3.2 1.8 3.5 1.7 3.5 1.5 3.8 1.3 3.7 1 3.8 1 3.7.5 4 .5 4 .5 4v212.3" stroke-width="21"/><path d="m327.3 358.8 2 3.7 2 3.8 1.5 4 1.5 4 1 4.2.7 4.3.5 4.2.3 4.5-.3 3.8-.2 3.7-.5 3.8-.8 3.5-1 3.5-1.2 3.5-1.5 3.2-1.5 3.3-2 3.5-2.3 3.5-2.5 3.2-2.7 3.3-2.8 2.7-3.2 2.8-3.3 2.5-3.2 2.5-3.8 2-3.7 1.7-3.8 1.5-4 1.5-4 1-4.2.8-4.5.5h-7.5l-3-.3-3-.5-3.3-.5-2.7-.7-3-.8-5.5-2-5.5-2.5-5-3.2-4.8-3.5-4.2-4-4-4.3-3.5-4.7-3.3-5-2.5-5.3-2-5.7-.7-3-.8-2.8-.5-3-.5-3.2-.2-3v-6.3l.2-3.2.5-3 .5-3 .8-3 .7-3 2-5.5 2.5-5.3 3.3-5.2 3.5-4.8 4-4.2 4.2-4 4.8-3.5 5-3 5.5-2.5 5.5-2.3 3-.7 2.7-.8 3.3-.5 3-.2 3-.3 3.2-.2 4 .2 4 .3 4 .7 3.8 1 3.7 1 3.5 1.3 3.5 1.7 3.5 1.8 3.3 2 3 2 3 2.5 2.7 2.5 2.8 2.5 2.5 3 2.2 3zm54 62h-49.5m286-60.8h18l3.5.3 3.2.5 3 .7 3 1 3 1.3 2.8 1.5 2.5 1.7 2.2 2 2.3 2 1.7 2.5 1.8 2.5 1.2 2.5 1.3 2.8.7 3 .5 3 .3 3-.3 3.2-.5 3-.7 3-1.3 2.8-1.2 2.5-1.8 2.5-1.7 2.5-2.3 2-.7.7-2.5 1.8-2 1.2-3 1.3-3.5 1.7-4.5 1.5" stroke-width="21"/><path d="m325.5 358.8h1.8l54-1.8h4l2.2-.2" stroke-width="21"/><path d="m286.3 118.3-.3 2-.7 2-1 2-1.3 1.5-1.5 1.2-2 1-2 .8h-4.2l-2-.8-1.8-1-1.5-1.2-1.5-1.5-1-2-.5-2-.2-2 .2-2.3.5-2 1-1.7 1.5-1.8 1.5-1.2 1.8-1 2-.5 2.2-.3 2 .3 2 .5 2 1 1.5 1.2 1.3 1.8 1 1.7.7 2zm0 612.2-.3 2-.7 2-1 1.8-1.3 1.7-1.5 1.3-2 1-2 .5-2 .2-2.2-.2-2-.5-1.8-1-1.5-1.3-1.5-1.7-1-1.8-.5-2-.2-2 .2-2.2.5-2 1-1.8 1.5-1.7 1.5-1.3 1.8-1 2-.5 2.2-.2 2 .2 2 .5 2 1 1.5 1.3 1.3 1.7 1 1.8.7 2z" stroke-width="14"/><path d="m299.8 615v4.5l-.5 4.3-.5 4.2-.8 4-1 3.8-1.2 3.5-1.3 3.5-1.5 3-1.5 2.7-2 2.5-1.7 2.3-2 1.7-2.3 1.5-2.2 1-2.3.8-2.2.2-2.5-.2-2.3-.8-2.2-1-2.3-1.5-2-1.7-1.7-2.3-1.8-2.5-1.7-2.7-1.5-3-1.3-3.5-1.2-3.5-1-3.8-.8-4-.5-4.2-.5-4.3v-9l.5-4.2.5-4 .8-4 1-4 1.2-3.5 1.3-3.3 1.5-3 1.7-3 1.8-2.5 1.7-2 2-2 2.3-1.5 2.2-1 2.3-.5 2.5-.2 2.2.2 2.3.5 2.2 1 2.3 1.5 2 2 1.7 2 2 2.5 1.5 3 1.5 3 1.3 3.3 1.2 3.5 1 4 .8 4 .5 4 .5 4.2z" stroke-width="14.25"/><path d="m436.5 347.3.8-3 .7-2.8 1-2.5 1-2.2 1-2 1-1.5 1.3-1 1-1 2.7-1.8 2.8-1.2 3.2-.8 3.5-.7 3.3-.3h3.5l3.5.5 3.5.5 3.2.8 3 1 2.8 1 2.5 1.2 2 1.5 1.5 1.5 1 1.5m-54 116.3-.5-11.8-.3-12.7v-15.8l.3-17 .5-8.7.5-8.8.5-8.2 1-8 1-7.5 1.2-6.5" stroke-width="21"/><path d="m385.3 465.8-1.5-5.5-1-4.3-.8-3.5-.7-9.7-.5-10-.5-12-.3-14.8.3-7.7.2-7.5.5-7.8.8-7.2.7-7.3 1.5-6.5 1.3-5 1-2.7 1-2.5 1-2 1.2-1.8 2.3-2 2.5-1.7 3-1.5 3.2-1.3 3.5-1.2 3.8-.8 4-.7 3.7-.3 3.5-.2h6.5l3 .5 3 .2 2.5.8 2.3.7 1.7 1 1.8 1 .5.8.5.7m46.2 413.8-1.2-4-53.5-152.5-31.5-90.5-10.8-30.8-4.7-14.2m107.5-10.3-1.5-13.7-1.5-14.8-1.5-18-1.3-19.5-.5-10-.2-9.7-.3-9.5.3-8.8.5-8.2.7-7 .8-5 1.2-4.3.8-1.5.7-1.5.8-1.2 1-.8.7-.5 2.3-1 2.2-.7 4.8-1 4.7-.8h4.8l4.7.3 4.8 1 4.5 1 4.2 1.5 4 1.7 4 2 3.5 2.3 3 2.2 2.8 2.5 2.5 2.3 1.7 2.5 1.3 2.2m11 108-2.8-13.5-2.5-14.2-2.7-17-1.3-9.3-1.2-9-1-9-.8-8.7-.2-8.3v-7.2l.5-6.5.5-2.8.5-2.5.7-2.2 1-1.8 1.3-1.2 1.2-1 3-1.3 3-.7 3-.5 3.3-.3 3.2.3 3 .2 3.3.8 3 1 3.2 1.2 3.3 1.3 3 1.5 3 1.7 3.2 2 3 2.3 5.8 4.5 1 1 2.5 2.7 3.2 4.3 1.8 2.2 1.5 2.8 1.5 2.7 1.2 3 .8 2.8.2 1.5v1.2l-.2 1.3-.3 1.2-.5 1.3-.7 1-1 1-1.3 1-1.5.7-1.7.8-1 .5-.3.5v.5l.3 1 .7 1.5 1.3 1.7 1.5 1.8 4.2 4.7 5 5.5 2.8 3.3 2.5 3.5 2.5 3.5 2.5 4 2.2 4.2 2 4.5 1 3.3 1 3.5 2.5 7.7 2.3 8.8 2.7 11 2.5 12.5 1.3 6.7 1 7 .5 6.8.5 7 .2 6.7-.2 6.5-1.5 19.3-1.5 16-1.5 13.2-1.5 11.3-1.3 10-1 9.5-1 9.2-.2 10.3-.3 6.7.3 6.8.2 6.7.5 6.5.8 6.5 1 6.3 1.2 6.2 1.3 6 1.7 5.8 2 6 2 5.5 2.5 5.5 2.5 5.5 3 5.2 3 5.3 3.5 5 .8 1m-255.8-366.5 2-7.8 1.3-4 1.2-4 1.5-4 1.8-4 2-3.7 2.2-3.5 2.3-3.5 2.7-3 3-2.8 3.3-2.5 3.5-2 3.7-1.7 4-1.3 4.5-.5h3l3 .3 3 .7 3.3 1.3 3 1.5 3 1.7 3 2 2.7 2.3 2.8 2.2 2.5 2.8 2 2.5 2 3 1.5 2.7 1.2 3 .8 2.8.2 3" stroke-width="21"/></g></svg>