<svg height="850" viewBox="0 0 850 850" width="850" xmlns="http://www.w3.org/2000/svg"><path d="m369.8 332.3-.5.2-10.5-1.7-9.5-2-8.5-2.3-7.3-2.5-3-1.2-2.7-1.3-2.5-1.5-2.3-1.2-1.7-1.5-1.3-1.3-1-1.5-.7-1.5v-2.5l.2-1 .5-.7.5-1 1.8-2 2.5-1.8 2.7-1.7 3.8-1.8 4-1.5 4.7-1.7h1.8l1.7-.3 2-.2 1.8-.5 2-.8 1.7-1 1.8-1.2 1.7-1.5 1.8-1.5 1.5-2 1.5-2.3 1.2-2.5 1-3 1-3 .8-3.5.5-4 1.2 52 1.5 3.3 1.8 3.2z" fill="#fbee34"/><path d="m570.5 492.3v160.2l-.2 2.8-.8 2.7-1.2 2.8-1.8 3-2 2.7-2.5 2.5-2.7 2.3-3 2-6.3 3-6.2 2.7-6.3 2.5-6.2 2.3-6.5 2.2-6.3 2-6.5 1.8-6.5 1.7-6.5 1.3-6.5 1.2-6.5 1-6.5 1-6.7.5-6.5.5-6.5.3-6.8.2-6.5-.2-6.5-.3-6.7-.5-6.5-.5-6.5-1-6.5-1-6.5-1.2-6.5-1.3-6.5-1.7-6.5-1.8-6.5-2-6.3-2.2-6.2-2.3-6.3-2.5-6.2-2.7-6.3-3-3-2-2.7-2.3-2.5-2.5-2-2.7-1.8-3-1.2-2.8-1-2.7-.3-2.8v-160.2l.3-1.3v-1l.5-1 .5-.7.5-.8.7-.7 1.8-.8 2-.5 2.5.3 2.7.5 3 1 12.5 3.7 12.8 3.3 13 2.7 12.7 2.3 13 1.7 13 1.3 13 1 13 .2 13.3-.2 13-1 13-1.3 12.7-1.7 13-2.3 12.8-2.7 12.7-3.3 12.8-3.7 3-1 2.7-.5 2.5-.3 2 .5 1.8.8.7.7.5.8.5.7.3 1 .2 1z" fill="#ffffc2"/><path d="m611.8 445-.8 266-.3 1.5-.5 3.8-.5 2.8-1 3-1 3.5-1.5 3.5-1.8 3.8-2.3 4-2.5 3.8-3.3 4-3.3 3.3-4.3 3.5-2.5 1.8-2.5 1.5-2.5 1.5-3 1.3-2.5 1-7.5 2.5-12 3.8-7.3 2-8.3 2.3-9 2-9.8 2-10.3 1.8-11 1.5-11.5 1.3-12 .8-12.3.5-12.5-.3h-2.2l-12.5.3-12.3-.5-12-.8-11.5-1.3-11-1.5-10.3-1.8-9.8-2-9-2-8.3-2.3-7.3-2-12-3.8-7.5-2.5-2.5-1-3-1.3-2.5-1.5-2.5-1.5-2.5-1.8-4.3-3.5-3.5-3.5-3.3-4-2.5-3.8-2.3-4-1.8-3.8-1.5-3.5-1-3.5-1-3-.5-2.8-.5-3.8-.3-1.5-.8-266v-5l.3-4.3.5-4.3.5-3.5.8-3.5.8-3 1-2.5 1.3-2.5 1.3-2.3 1.8-2 1.5-1.8 2-1.8 2-1.5 2.3-1.5 5-3 2.5-1.5 2.3-1.5 2.3-1.8 1.8-2 1.5-2 1.3-1.8 2.3-4 1.3-3.3 1-3 .5-2.5 1.3-2.8 4 1.8 4.8 1.8 5.5 1.5 5.8 1.5 6.5 1.5 6.8 1.3 7.5 1.3 7.8 1.3 8.3 1 8.5 1 9 .8 9.3.5 9.5.5 10 .5 10 .3h10.3l18.5-.3 17.8-.8 16.8-1.3 15.8-1.5 14.5-2 13-2.3 5.8-1.3 5.5-1.5 5-1.5 4.5-1.5 5 .3.5 2.5 1 3 1.3 3.3 2.3 4 1.3 1.8 1.5 2 1.8 2 2.3 1.8 2.3 1.5 2.5 1.5 5 3 2.3 1.5 2 1.5 2 1.8 1.5 1.8 1.5 2 1.5 2.3 1.3 2.5 1 2.5.8 3 .8 3.5.5 3.5.5 4.3.3 4.3v5.1h-1.2zm-41.3 207.5v-161.5l-.3-1-.3-1-.5-.8-.5-.8-.8-.8-1.8-.8-2-.5-2.5.3-2.8.5-3 1-12.8 3.8-12.8 3.3-12.4 2.8-13 2.3-12.8 1.8-13 1.3-13 1-13.3.3-13-.3-13-1-13-1.3-13-1.8-12.8-2.3-13-2.8-12.8-3.3-12.5-3.8-3-1-2.8-.5-2.5-.3-2 .5-1.8.8-.8.8-.5.8-.5.8-.5 1v1l-.3 1.3v160.3l.3 2.8 1 2.8 1.3 2.8 1.8 3 2 2.8 2.5 2.5 2.8 2.3 3 2 6.3 3 6.3 2.8 6.3 2.5 6.3 2.3 6.3 2.3 6.5 2 6.5 1.8 6.5 1.8 6.5 1.3 6.5 1.3 6.5 1 6.5 1 6.5.5 6.8.5 6.5.3 6.5.3 6.8-.3 6.5-.3 6.5-.5 6.8-.5 6.5-1 6.5-1 6.5-1.3 6.5-1.3 6.5-1.8 6.5-1.8 6.3-2 6.5-2.3 6.3-2.3 6.3-2.5 6.3-2.8 6.3-3 3-2 2.8-2.3 2.5-2.5 2-2.8 1.8-3 1.3-2.8.8-2.8z" fill="#f6cc4b"/><path d="m502.5 286.8v2.7l.8 2.3 1 2 1.2 1.7 1.8 1.5 2 1.3 2.2.7 2.5.8h5.3l2.7-.5 3-.8 2.8-1.2 2.7-1.5 2.5-2 2.8-2.3h4l10.2 1.8 9 2.2 7.8 2.3 6.7 2.5 2.8 1.2 2.5 1.5 2.2 1.3 1.8 1.5 1.2 1.5 1 1.2.8 1.5.2 1.5-.2 1.5-.5 1.3-1 1.5-1 1.2-1.5 1.3-1.8 1.2-2 1-4.7 2.5-5.8 2-7 2.3-7.7 1.7-8.5 2-9.5 1.5-10 1.5-10.8 1.3-11.5 1-12 .7-12.2.8-13 .2-13.3.3-10.7-.3-10.8-.2.3-1h2.7l3.3-.8 3.5-1.5 3.5-2 3.2-2.2 2.8-2.5 2.5-2.5 2-2.5 1.5-2.5 1.5-2.8 1-2.7.7-2.8.8-3 .2-3 .5-6.5.5-14.5h3l19 .5 18.3 1.3z" fill="#fbee34"/><path d="m586.5 344.3v22l-.2 1.7-1 1.8-1.3 1.7-2 1.8-2.5 1.5-2.7 1.5-3.5 1.5-3.8 1.5-4.5 1.5-5 1.5-5.5 1.5-5.7 1.2-13 2.3-14.5 2-15.8 1.5-16.7 1.2-17.8.8-18.5.2h-10.2l-10-.2-10-.5-9.5-.5-9.3-.5-9-.8-8.5-1-8.2-1-7.8-1.2-7.5-1.3-6.7-1.2-6.5-1.5-5.8-1.5-5.5-1.5-4.7-1.8-4-1.7-2.5-1.3-2-1.2-1.8-1.3-1.5-1.2-1.2-1.3-.8-1.5-.7-1.2v-1.5l-.3-27.8-.2-25.5.7 1.5 1 1.5 1.3 1.3 1.7 1.5 2.3 1.2 2.5 1.5 2.7 1.3 3 1.2 7.3 2.5 8.5 2.3 9.5 2 10.5 1.7.5-.2 2.7 3.5 1.5 1.7 1.8 1.8 1.7 1.5 1.8 1.2 2 1 2.2.8 2 .7h2.3l2.2-.2 2.5-.5 2.5-1.3 2.5-1.5 2.5-2.2 2.8-2.8 3 .5 12.2.8 12.5.5 10.8.2 10.7.3 13.3-.3 13-.2 12.2-.8 12-.7 11.5-1 10.8-1.3 10-1.5 9.5-1.5 8.5-2 7.7-1.7 7-2.3 5.8-2 4.7-2.5 2-1 1.8-1.2 1.5-1.3 1-1.2 1-1.5.5-1.3.7.3z" fill="#fbee34"/><path d="m502.5 286.8h-1.2l-18.3-1.3-19-.5h-3l.3-7.2.7-8 1-6 1.3-6.8 3.2-15.5 4-16.7 4.3-16.8 7.5-28 3.5-11.5 25.7-28.5-2.5 6-2 5.5-1.7 5.5-1 4.8-.5 5.5-.8 6.7-.7 15.5-.3 18.3-.2 19v50z" fill="#ffeec8"/><path d="m540.8 85.5 2.5 2-4.8 7.3-8 12.5-4.7 7.7-4.8 8-4.5 8.5-4 8.5-25.7 28.5-3.5 11.5-7.5 28-4.3 16.8-4 16.7-3.2 15.5-1.3 6.8-1 6-.7 8-.3 7.2-.5 14.5-.5 6.5-.2 3-.8 3-.7 2.8-1 2.7-1.5 2.8-1.5 2.5-2 2.5-2.5 2.5-2.8 2.5-3.2 2.2-3.5 2-3.5 1.5-3.3.8h-4.5l-1.7-.5-1.5-.5-1.5-.8-1.3-1-1.2-1-2.5-2.2-2-2.8-1.8-3-1.5-3-1.2-3.2-1.5-4.3-.8-3.5-.7-3.2 14.5-162 1.2-2.8 1.5-3 2.5-4.5 3.8-5 4.7-6.2 2.8-3.3 3.2-3.5 3.5-3.5 4-3.7 5.5-5.3 5-5 8.8-9 5.2-5.2 5-4.5 4.5-3.8 2.5-1.5 2.3-1.5 2.2-1 2.5-1 2.3-.5 2.5-.5h5.2l2.8.5 3 .8 6.2 2.2 5.5 2.3 4.3 2.2 3.7 2 3 1.5 2.8 1.3 2.2 1zm-212.8 206.8.8 1 .7.7 1.3 1 1.2.8 1.5.5 1.8.5 1.7.5h2l-4.7 1.7-4 1.5-3.8 1.8-2.7 1.7-2.5 1.8-1.8 2-.5 1-.5.7-.2 1v2.5l.2 25.5h-4.7l-6.3-.2-6-.8-3-.5-3-.7-3-.8-2.7-1.2-2.5-1-2.8-1.5-2.5-1.8-2.2-1.7-2-2-2-2.5-2-2.5-1.5-3-1.3-2.5-.7-2.5-.5-2.5-.5-2.5v-2.3l.2-2.2.5-2.3.8-2.2 1-2 1.2-1.8 1.5-1.7 1.8-1.8 2-1.5 2.2-1.2 2.3-1.3 2.7-1.2 5.3-2 5-2.3 5.2-2.2 4.8-2.5 9.5-5 8.7-5.3 1 8.3 1 7.2 1 5.5.5 2z" fill="#ffeec8"/><path d="m339 297.3h-2l-1.7-.5-1.8-.5-1.5-.5-1.2-.8-1.3-1-.7-.7-.8-1-.5-1.8-.5-2-1-5.5-1-7.2-1-8.3-2.2-23.7-2.5-26v-2.5l.2-2.5.5-2.3.8-2.5.7-2.2 1.3-2.5 1.2-2.3 1.5-2.2 3.5-4.5 4-4 4.3-4 4.5-3.8 4.5-3.5 4.5-3 7.7-5 5.8-3.2 2-1 1-.3-6.8 12 2.3 91.5-.5 4-.8 3.5-1 3-1 3-1.2 2.5-1.5 2.3-1.5 2-1.8 1.5-1.7 1.5-1.8 1.2-1.7 1-2 .8-1.8.5-2 .2-1.7.3z" fill="#ffeec8"/><path d="m362.8 270-2.3-91.5 6.8-12 10-16.7 6.2-9.5 6.5-10 6.8-10 7-9.3 3.5-4.2 3.5-4 3.5-3.8 3.2-3.5 2.3-2 2.2-1.7 2.5-1.5 2.3-1.5 2.2-1.3 2.3-1 2.5-.7 2.2-.8 4.5-.7 4.3-.5 4.2.2 4 .5 3.8.8 3.2.7 3 1 2.5 1.3 3.5 1.7 1.5.5.3.5-8.8 9-5 5-5.5 5.3-4 3.7-3.5 3.5-3.2 3.5-2.8 3.3-4.7 6.2-3.8 5-2.5 4.5-1.5 3-1.2 2.8-14.5 162 .7 3.2.8 3.5 1.5 4.3-1.3.5-1.5 4.5-2 4.5-2.5 4-1.2 2-1.5 1.7-2.8 2.8-2.5 2.2-2.5 1.5-2.5 1.3-2.5.5-2.2.2h-2.3l-2-.7-2.2-.8-2-1-1.8-1.2-1.7-1.5-1.8-1.8-1.5-1.7-2.7-3.5-2.5-3.8-1.8-3.2-1.5-3.3zm317.5 56.8-5.3-1.8-5.2-1.5-4.8-1.2-4.7-1-4.8-.8-4.5-.2h-4.5l-4.2.2-4.5.8-4.3.7-4.5 1.3-4.5 1.5-4.5 1.7-4.5 2-4.7 2.3-5 2.5-9 5-9.5 6h-.8v-31l-.7-.3.2-1.5-.2-1.5-.8-1.5-1-1.2-1.2-1.5-1.8-1.5-2.2-1.3-2.5-1.5-2.8-1.2-6.7-2.5-7.8-2.3-9-2.2-10.2-1.8h-4l-2.8 2.3-2.5 2-2.7 1.5-2.8 1.2-3 .8-2.7.5h-5.3l-2.5-.8-2.2-.7-2-1.3-1.8-1.5-1.2-1.7-1-2-.8-2.3v-2.7l.3-10v-50l.2-19 .3-18.3.7-15.5.8-6.7.5-5.5 1-4.8 1.7-5.5 2-5.5 2.5-6 4-8.5 4.5-8.5 4.8-8 4.7-7.7 8-12.5 4.8-7.3-2.5-2 1.5-.2 1.7-.5 3.3-1.5 4.2-1.8 2.3-.7 2.7-.8 2.8-.5 3-.5h7l3.7.5 4 .8 4.3 1.2 4.5 1.8 4.7 2.2 5 2.8 5.3 3.2 5.2 3.3 10.3 7.5 10.7 7.7 10.8 8.5 11.5 8.8 12.2 8.7 12.8 9 7 4.3 7 4.5 3 1.2 5 1.8 6.7 1.7 8.5 2.3 9.8 2.2 11.5 2.3 26 5 2 203.5-1 1.7-25.8-16.5-23.5-14.7-10-6.3-8.7-5.2-6.8-3.8z" fill="#ffeec8"/><g fill="none" stroke="#231f20" stroke-linecap="round" stroke-miterlimit="10"><path d="m318.3 313v-2.5l.2-1 .5-.7.5-1 1.8-2 2.5-1.8 2.7-1.7 3.8-1.8 4-1.5 4.7-1.7 2.5-.8m27.8 36-10.5-1.7-9.5-2-8.5-2.3-7.3-2.5-3-1.2-2.7-1.3-2.5-1.5-2.3-1.2-1.7-1.5-1.3-1.3-1-1.5-.7-1.5m221.5-21.5 10.2 1.8 9 2.2 7.8 2.3 6.7 2.5 2.8 1.2 2.5 1.5 2.2 1.3 1.8 1.5 1.2 1.5 1 1.2.8 1.5.2 1.5-.2 1.5-.5 1.3-1 1.5-1 1.2-1.5 1.3-1.8 1.2-2 1-4.7 2.5-5.8 2-7 2.3-7.7 1.7-8.5 2-9.5 1.5-10 1.5-10.8 1.3-11.5 1-12 .7-12.2.8-13 .2-13.3.3-10.7-.3-10.8-.2-12.5-.5-12.2-.8" stroke-width="21"/><path d="m464 285 19 .5 18.3 1.3" stroke-width="20.5"/><path d="m318.3 313 .2 25.5.3 27.8v1.5l.7 1.2.8 1.5 1.2 1.3 1.5 1.2 1.8 1.3 2 1.2 2.5 1.3 4 1.7 4.7 1.8 5.5 1.5 5.8 1.5 6.5 1.5 6.7 1.2 7.5 1.3 7.8 1.2 8.2 1 8.5 1 9 .8 9.3.5 9.5.5 10 .5 10 .2h10.2l18.5-.2 17.8-.8 16.7-1.2 15.8-1.5 14.5-2 13-2.3 5.7-1.2 5.5-1.5 5-1.5 4.5-1.5 3.8-1.5 3.5-1.5 2.7-1.5 2.5-1.5 2-1.8 1.3-1.7 1-1.8.2-1.7v-53" stroke-width="21"/><path d="m574.5 379.5.5 2.5 1 3 1.3 3.3 2.2 4 1.3 1.7 1.5 2 1.7 2 2.3 1.8 2.2 1.5 2.5 1.5 5 3 2.3 1.5 2 1.5 2 1.7 1.5 1.8 1.5 2 1.5 2.2 1.2 2.5 1 2.5.8 3 .7 3.5.5 3.5.5 4.3.3 4.2v5l-.8 266-.2 1.5-.5 3.8-.5 2.7-1 3-1 3.5-1.5 3.5-1.8 3.8-2.2 4-2.5 3.7-3.3 4-3.5 3.5-4.2 3.5-2.5 1.8-2.5 1.5-2.5 1.5-3 1.2-2.5 1-7.5 2.5-12 3.8-7.3 2-8.2 2.2-9 2-9.8 2-10.2 1.8-11 1.5-11.5 1.2-12 .8-12.3.5-12.5-.3h-2.5l-12.5.3-12.2-.5-12-.8-11.5-1.2-11-1.5-10.3-1.8-9.7-2-9-2-8.3-2.2-7.2-2-12-3.8-7.5-2.5-2.5-1-3-1.2-2.5-1.5-2.5-1.5-2.5-1.8-4.3-3.5-3.5-3.5-3.2-4-2.5-3.7-2.3-4-1.7-3.8-1.5-3.5-1-3.5-1-3-.5-2.7-.5-3.8-.3-1.5-.7-266v-5l.2-4.2.5-4.3.5-3.5.8-3.5.7-3 1-2.5 1.3-2.5 1.2-2.2 1.8-2 1.5-1.8 2-1.7 2-1.5 2.2-1.5 5-3 2.5-1.5 2.3-1.5 2.2-1.8 1.8-2 1.5-2 1.2-1.7 2.3-4 1.2-3.3 1-3 .5-2.5" stroke-width="21"/><path d="m335.5 492.3.3-1.3v-1l.5-1 .5-.7.5-.8.7-.7 1.8-.8 2-.5 2.5.3 2.7.5 3 1 12.5 3.7 12.8 3.3 13 2.7 12.7 2.3 13 1.7 13 1.3 13 1 13 .2 13.3-.2 13-1 13-1.3 12.7-1.7 13-2.3 12.8-2.7 12.7-3.3 12.8-3.7 3-1 2.7-.5 2.5-.3 2 .5 1.8.8.7.7.5.8.5.7.3 1 .2 1v161.5l-.2 2.8-.8 2.7-1.2 2.8-1.8 3-2 2.7-2.5 2.5-2.7 2.3-3 2-6.3 3-6.2 2.7-6.3 2.5-6.2 2.3-6.5 2.2-6.3 2-6.5 1.8-6.5 1.7-6.5 1.3-6.5 1.2-6.5 1-6.5 1-6.7.5-6.5.5-6.5.3-6.8.2-6.5-.2-6.5-.3-6.7-.5-6.5-.5-6.5-1-6.5-1-6.5-1.2-6.5-1.3-6.5-1.7-6.5-1.8-6.5-2-6.3-2.2-6.2-2.3-6.3-2.5-6.2-2.7-6.3-3-3-2-2.7-2.3-2.5-2.5-2-2.7-1.8-3-1.2-2.8-1-2.7-.3-2.8z" stroke-width="2"/><path d="m362.8 270 1.2 52 1.5 3.3 1.8 3.2 2.5 3.8 2.7 3.5 1.5 1.7 1.8 1.8 1.7 1.5 1.8 1.2 2 1 2.2.8 2 .7h2.3l2.2-.2 2.5-.5 2.5-1.3 2.5-1.5 2.5-2.2 2.8-2.8 1.5-1.7 1.2-2 2.5-4 2-4.5 1.5-4.5m59-228.8-1.5-.5-3.5-1.7-2.5-1.3-3-1-3.2-.7-3.8-.8-4-.5-4.2-.2-4.3.5-4.5.7-2.2.8-2.5.7-2.3 1-2.2 1.3-2.3 1.5-2.5 1.5-2.2 1.7-2.3 2-3.2 3.5-3.5 3.8-3.5 4-3.5 4.2-7 9.3-6.8 10-6.5 10-6.2 9.5-10 16.7-6.8 12 2.3 91.5" stroke-width="21"/><path d="m513.5 139-1 1-25.7 28.5-3.5 11.5-7.5 28-4.3 16.8-4 16.7-3.2 15.5-1.3 6.8-1 6-.7 8-.3 7.2-.5 14.5-.5 6.5-.2 3-.8 3-.7 2.8-1 2.7-1.5 2.8-1.5 2.5-2 2.5-2.5 2.5-2.8 2.5-3.2 2.2-3.5 2-3.5 1.5-3.3.8h-4.5l-1.7-.5-1.5-.5-1.5-.8-1.3-1-1.2-1-2.5-2.2-2-2.8-1.8-3-1.5-3-1.2-3.2-1.5-4.3-.8-3.5-.7-3.2 14.5-162 1.2-2.8 1.5-3 2.5-4.5 3.8-5 4.7-6.2 2.8-3.3 3.2-3.5 3.5-3.5 4-3.7 5.5-5.3 5-5 8.8-9 5.2-5.2 5-4.5 4.5-3.8 2.5-1.5 2.3-1.5 2.2-1 2.5-1 2.3-.5 2.5-.5h5.2l2.8.5 3 .8 6.2 2.2 5.5 2.3 4.3 2.2 3.7 2 3 1.5 2.8 1.3 2.2 1 2.3.2 1.5-.2 1.7-.5 3.3-1.5 4.2-1.8 2.3-.7 2.7-.8 2.8-.5 3-.5h7l3.7.5 4 .8 4.3 1.2 4.5 1.8 4.7 2.2 5 2.8 5.3 3.2 5.2 3.3 10.3 7.5 10.7 7.7 10.8 8.5 11.5 8.8 12.2 8.7 12.8 9 7 4.3 7 4.5 3 1.2 5 1.8 6.7 1.7 8.5 2.3 9.8 2.2 11.5 2.3 26 5 5 .7" stroke-width="21"/><path d="m544 86.8-.7.7-4.8 7.3-8 12.5-4.7 7.7-4.8 8-4.5 8.5-4 8.5-2.5 6-2 5.5-1.7 5.5-1 4.8-.5 5.5-.8 6.7-.7 15.5-.3 18.3-.2 19v50l-.3 10v2.7l.8 2.3 1 2 1.2 1.7 1.8 1.5 2 1.3 2.2.7 2.5.8h5.3l2.7-.5 3-.8 2.8-1.2 2.7-1.5 2.5-2 2.8-2.3 2.7-3.2 1.3-2 1-1.8 1.2-2.2 1-2.3.8-2.2.7-2.8 1-4.5 1-5.5 2-12.7 2-14.8 1.5-15 2.5-25.5.8-11m-189-19.2-2 1-5.8 3.2-7.7 5-4.5 3-4.5 3.5-4.5 3.8-4.3 4-4 4-3.5 4.5-1.5 2.2-1.2 2.3-1.3 2.5-.7 2.2-.8 2.5-.5 2.3-.2 2.5v2.5l2.5 26 2.2 23.7 1 8.3 1 7.2 1 5.5.5 2 .5 1.8.8 1 .7.7 1.3 1 1.2.8 1.5.5 1.8.5 1.7.5h3.8l1.7-.3 2-.2 1.8-.5 2-.8 1.7-1 1.8-1.2 1.7-1.5 1.8-1.5 1.5-2 1.5-2.3 1.2-2.5 1-3 1-3 .8-3.5.5-4 .2-5.5m234.3 73.8 2.2-1.3 2.8-1.5 3.5-2.2 5-3.5 5.5-4.3 6-5.5 3-3 3.2-3.5 3-3.5 3-4 3-4 3-4.5 2.8-4.7 2.5-4.8 2.5-5.5 2.2-5.5" stroke-width="21"/><path d="m587.3 344.3 9.5-6 9-5 5-2.5 4.7-2.3 4.5-2 4.5-1.7 4.5-1.5 4.5-1.3 4.3-.7 4.5-.8 4.2-.2h4.5l4.5.2 4.8.8 4.7 1 4.8 1.2 5.2 1.5 5.3 1.8 4.7 2.2 6.8 3.8 8.7 5.2 10 6.3 23.5 14.7 25.8 16.5 4 2.8m-437.3-112.5-2.5 1.7-8.7 5.3-9.5 5-4.8 2.5-5.2 2.2-5 2.3-5.3 2-2.7 1.2-2.3 1.3-2.2 1.2-2 1.5-1.8 1.8-1.5 1.7-1.2 1.8-1 2-.8 2.2-.5 2.3-.2 2.2v2.3l.5 2.5.5 2.5.7 2.5 1.3 2.5 1.5 3 2 2.5 2 2.5 2 2 2.2 1.7 2.5 1.8 2.8 1.5 2.5 1 2.7 1.2 3 .8 3 .7 3 .5 6 .8 6.3.2m-89.8 81.8 41.8-56-61-34.3" stroke-width="21"/><path d="m256.3 364.5-7.3 2.8-7.5 2.5-8.2 2-8.5 1.7-8.8 1.3-9.2 1-9.5.7h-9.8l-10.7-.2-10.5-.5-10-1.3-9.8-1.7-9-2-8.7-2.5-8-2.8-7.5-3.2-6.8-3.5-3.2-1.8-2.8-2-2.7-2-2.5-2-2.5-2.2-2-2-2-2.3-1.5-2.5-1.5-2.2-1.3-2.3-.7-2.5-.8-2.5-.5-2.5v-4.7l.5-2.3.5-2 .8-2.2.7-2 1.3-2.3 1.2-2 1.5-2 1.5-2 2-1.7 4-3.8 4.8-3.5 5.5-3.2 6-3.3 6.5-2.7 6.7-2.5 7.5-2.3 8-2 8.3-1.7 8.5-1.5 8.7-1" stroke-width="21"/></g></svg>