<svg height="850" viewBox="0 0 850 850" width="850" xmlns="http://www.w3.org/2000/svg"><path d="m760.6 762.5h-580.8l-2.5-103.5-.7-.7 11.7-9.3 13.8-11 15.2-12.7 16.3-14.3 17.5-15.5 18-16.7 9-9 9.2-9 9.3-9.5 9-9.5 1-1h454z" fill="#faa41f"/><path d="m427.1 256.5 2-2.2 2-2 2-1.5 2-1.3 2-1 1.7-.7 2-.5 2-.3 1.8.3 2 .2 2 .8 2 .7 2 1.3 2 1.2 4.5 3.5.5.5.2 1 .3 1 .2 1.5-.2 3.3-.8 4-1 4.5-1.5 5.5-2 5.7-2.5 6.5-5.5 13.8-6.2 15.2-7 15.8-7.3 15.7-1.2 2.8-6.5 13.7-3 6.8-2.5 6.5-3.8 10.7-4.5 10.5-4.7 10.8-5.5 10.7-5.8 10.5-6.2 10.5-6.5 10.5-6.8 10.5-7.2 10.3-7.5 10-7.8 10-8 10-8 9.7-8.2 9.5-8.5 9.5-8.5 9.3-9 9.5-9.3 9.5-9.2 9-9 9-18 16.7-17.5 15.5-16.3 14.3-15.2 12.7-13.8 11-11.7 9.3-11 8.2-7.8 5.5-68-148.7 2.5-2.8 6-7.2 8.8-10.5 4.7-6.3 5-6.7 4.8-6.8 4.7-7 4.3-7 3.5-7 1.7-3.2 1.3-3.3 1-3.2 1-3 .5-2.8.2-2.7v-2.5l-.2-2.3-1-4.7-.8-5.3-.2-5.7-.3-6.3v-6.7l.3-6.8.5-7 .5-7.2.7-7.3 1-7 1-7 1-6.5 1.3-6.5 1.5-6 1.2-5.5 1.5-4.7 3.5-10 4-11 9-23.5 4.3-11.3 3.7-10.5 3-9.2 1.3-4 .7-3.5.3-1.3.7-1.2.8-1.3.7-1 1-.7 1.3-.8 1.2-.7 1.5-.3 3-.7h3.3l3.2.5 3.5 1 1.8.7 1.7 1 1.5 1 1.5 1.3 1.5 1.2 1.5 1.8 1.3 1.5 1 2 1.2 2 .8 2 .7 2.2.5 2.5.5 2.8v5.7l-.2 3.3-.5 4-1 4-1.3 4.2-1.7 4.5-1.8 7.5-1.5 7.8-1.2 8.7-.5 4.3-.3 4.2v4l.5 3.5.5 3 .5 1 .8 1 .5.8 1 .5 1 .2h1l.7-.2 1-.5 2.5-2.3 3-3.5 3.8-4.7 4.2-5.8 5-6.7 10.8-15.8 2.5-3.7 19.5-29.3 19.7-30 19.3-29.5 8.7-14.2 8.5-13.5 7.5-12.5 6.3-10 7.2-10.8 1.8-2.5 1.7-2.2 1.8-2 2-1.8 2-1.5 2.2-1.2 2-1.3 2.3-.7 2-.8 2.2-.5 2-.2h4l2 .2 2 .5 1.8.8 1.7.7 1.8.8 1.5 1 1.2 1.2 1.3 1.5 1.2 1.5.8 1.5 1 1.8.5 1.7.2 2 .3 2v2.3l-.3 2-.5 2.5-1 2.2-1 2.5 15.5-25.2 2-3.3 2.5-2.2 2.5-2 2.5-1.3 2.5-.7 2.5-.5h2.5l2.5.2 2.3.3 2.2.7 3.5 1.3 2.5 1.2.8.5 1.2.8 1 1 1 1 .8 1 1.5 2.5.7 2.7.5 3v3.5l-.2 3.5-.5 3.8-1 4-1.3 4-1.5 4-1.5 4.2-4 8.5-4.2 8.5 3.5-5.2 2-2 2-1.5 2-1 2.2-.5 2.3-.3h2.2l2.3.5 2.2.5 4 1.5 3.3 1.5 3 1.8 1 1.2 1 1.3.7 1.2.5 1.3.5 1.7.5 1.5v4l-.2 2.3-.5 2.5-.8 2.5-1 3-2.5 6.7-4 7.8z" fill="#ffeec8"/><path d="m413.1 378.8 2.5-6.5 3-6.8 6.5-13.7 1 .5h1v1.7h262l71.5 186.8h-454l-1 1 8.5-9.3 8.5-9.5 8.2-9.5 8-9.7 8-10 7.8-10 7.5-10 7.2-10.3 6.8-10.5 6.5-10.5 6.2-10.5 5.8-10.5 5.5-10.7 4.7-10.8 4.5-10.5z" fill="#ffffc2"/><path d="m379.8 164.5 1-2.5 1-2.2.5-2.5.3-2v-2.3l-.3-2-.2-2-.5-1.7-1-1.8-.8-1.5-1.2-1.5-1.3-1.5-1.2-1.2-1.5-1-1.8-.8-1.7-.7-1.8-.8-2-.5-2-.2h-4l-2 .2-2.2.5-2 .8-2.3.7-2 1.3-2.2 1.2-2 1.5-2 1.8-1.8 2-1.7 2.2-1.8 2.5-7.2 10.8-6.3 10-7.5 12.5-8.5 13.5-8.7 14.2-19.3 29.5-19.7 30-19.5 29.3-2.5 3.7-.3-.2v-216.3h447.8v264.8h-261.5l-1-.5 1.2-2.8 7.3-15.7 7-15.8 6.2-15.2 5.5-13.8 2.5-6.5 2-5.7 1.5-5.5 1-4.5.8-4 .2-3.3-.2-1.5-.3-1-.2-1-.5-.5-4.5-3.5-2-1.2-2-1.3-2-.7-2-.8-2-.2-1.8-.3-2 .3-2 .5-1.7.7-2 1-2 1.3-2 1.5-2 2-2 2.2 17.7-34.7 4-7.8 2.5-6.7 1-3 .8-2.5.5-2.5.2-2.3v-4l-.5-1.5-.5-1.7-.5-1.3-.7-1.2-1-1.3-1-1.2-3-1.8-3.3-1.5-4-1.5-2.2-.5-2.3-.5h-2.2l-2.3.3-2.2.5-2 1-2 1.5-2 2-3.5 5.2 4.2-8.5 4-8.5 1.5-4.2 1.5-4 1.3-4 1-4 .5-3.8.2-3.5v-3.5l-.5-3-.7-2.7-1.5-2.5-.8-1-1-1-1-1-1.2-.8-.8-.5-2.5-1.2-3.5-1.3-2.2-.7-2.3-.3-2.5-.2h-2.5l-2.5.5-2.5.7-2.5 1.3-2.5 2-2.5 2.2-2 3.3z" fill="#ffffc2"/><g fill="none" stroke="#231f20" stroke-linecap="round" stroke-miterlimit="10"><path d="m306.6 540.8h454v221.7h-580.8l-2.5-103.5" stroke-width="21"/><path d="m536.3 354h-109.2" stroke-width="21.5"/><path d="m760.6 540.8-71.5-186.8h-152.8" stroke-width="21"/><path d="m629.3 443.3-28.7-54.3-50 35.5" stroke-width="21"/><path d="m479.8 433.8 2 4.5 2.8 4.2 3 4.3 3.2 3.7 3.5 3.8 4 3.2 4.3 3 4.2 2.8 4.5 2.5 4.8 2 5 1.5 4.7 1.2 5 .8 5.3.5 5-.3 5-.5 3-.5 3-.7 3-1 3-1 2.7-1.3 3-1.2 2.5-1.5 2.8-1.8 2.5-1.5 2.5-2 2.2-2 2.3-2 2.2-2.2 2-2.3 2-2.5 2-2.5 1.5-2.5 1.8-2.7 1.5-2.8 1.2-2.7 1.3-3 1-3 1-3.3.7-3.2.8-3.3.5-3.2.2-3.5.3-3.3v-3.5l-.3-3.5-.2-3.7-.5-3.5m-357.8-90.5v-216.3h447.8v264.8h-261.5" stroke-width="21"/><path d="m318.3 183.8 7.5-12.5 6.3-10 7.2-10.8 1.8-2.5 1.7-2.2 1.8-2 2-1.8 2-1.5 2.2-1.2 2-1.3 2.3-.7 2-.8 2.2-.5 2-.2h4l2 .2 2 .5 1.8.8 1.7.7 1.8.8 1.5 1 1.2 1.2 1.3 1.5 1.2 1.5.8 1.5 1 1.8.5 1.7.2 2 .3 2v2.3l-.3 2-.5 2.5-1 2.2-1 2.5m-137.2 135.8 19.5-29.3 19.7-30 19.3-29.5 8.7-14.2 8.5-13.5m-105.2 96.5-.5 4-1 4-1.3 4.2-1.7 4.5-1.8 7.5-1.5 7.8-1.2 8.7-.5 4.3-.3 4.2v4l.5 3.5.5 3 .5 1 .8 1 .5.8 1 .5 1 .2h1l.7-.2 1-.5 2.5-2.3 3-3.5 3.8-4.7 4.2-5.8 5-6.7 10.8-15.8 2.5-3.7m-152.8 223 2.5-2.8 6-7.2 8.8-10.5 4.7-6.3 5-6.7 4.8-6.8 4.7-7 4.3-7 3.5-7 1.7-3.2 1.3-3.3 1-3.2 1-3 .5-2.8.2-2.7v-2.5l-.2-2.3-1-4.7-.8-5.3-.2-5.7-.3-6.3v-6.7l.3-6.8.5-7 .5-7.2.7-7.3 1-7 1-7 1-6.5 1.3-6.5 1.5-6 1.2-5.5 1.5-4.7 3.5-10 4-11 9-23.5 4.3-11.3 3.7-10.5 3-9.2 1.3-4 .7-3.5.3-1.3.7-1.2.8-1.3.7-1 1-.7 1.3-.8 1.2-.7 1.5-.3 3-.7h3.3l3.2.5 3.5 1 1.8.7 1.7 1 1.5 1 1.5 1.3 1.5 1.2 1.5 1.8 1.3 1.5 1 2 1.2 2 .8 2 .7 2.2.5 2.5.5 2.8v5.7l-.2 3.3m213.2 68.7 7.3-15.7 7-15.8 6.2-15.2 5.5-13.8 2.5-6.5 2-5.7 1.5-5.5 1-4.5.8-4 .2-3.3-.2-1.5-.3-1-.2-1-.5-.5-4.5-3.5-2-1.2-2-1.3-2-.7-2-.8-2-.2-1.8-.3-2 .3-2 .5-1.7.7-2 1-2 1.3-2 1.5-2 2-2 2.2-1.3 1.5m.5 91-1.2 2.8-6.5 13.7-3 6.8-2.5 6.5-3.8 10.7-4.5 10.5-4.7 10.8-5.5 10.7-5.8 10.5-6.2 10.5-6.5 10.5-6.8 10.5-7.2 10.3-7.5 10-7.8 10-8 10-8 9.7-8.2 9.5-8.5 9.5-8.5 9.3-9 9.5-9.3 9.5-9.2 9-9 9-18 16.7-17.5 15.5-16.3 14.3-15.2 12.7-13.8 11-11.7 9.3-11 8.2-7.8 5.5-3.7 2.8-.3.2.8-.7" stroke-width="21"/><path d="m357.8 394.5 23.8-47.7 22.5-44.8 23-45.5 17.7-34.7 4-7.8 2.5-6.7 1-3 .8-2.5.5-2.5.2-2.3v-4l-.5-1.5-.5-1.7-.5-1.3-.7-1.2-1-1.3-1-1.2-3-1.8-3.3-1.5-4-1.5-2.2-.5-2.3-.5h-2.2l-2.3.3-2.2.5-2 1-2 1.5-2 2-3.5 5.2-4.5 6.8-5 8.5-12 20-13.3 22.7-13.5 23.3-22.7 40.2-9.5 17.3" stroke-width="21"/><path d="m418.3 190 .3-.5 4.2-8.5 4-8.5 1.5-4.2 1.5-4 1.3-4 1-4 .5-3.8.2-3.5v-3.5l-.5-3-.7-2.7-1.5-2.5-.8-1-1-1-1-1-1.2-.8-.8-.5-2.5-1.2-3.5-1.3-2.2-.7-2.3-.3-2.5-.2h-2.5l-2.5.5-2.5.7-2.5 1.3-2.5 2-2.5 2.2-2 3.3-15.5 25.2-110.2 181.8" stroke-width="21"/></g></svg>