<svg height="850" viewBox="0 0 850 850" width="850" xmlns="http://www.w3.org/2000/svg"><path d="m66.5 361.1h638v421.5h-638v-415zm0-80h199.3l27.2 76.5v3.5h-226.5z" fill="#fff5b4"/><path d="m66.5 361.1h638v421.5h-638v-415" fill="none" stroke="#231f20" stroke-linecap="round" stroke-miterlimit="10" stroke-width="21"/><path d="m66.5 367.6v-86.5h199.3l27.2 76.5" fill="none" stroke="#231f20" stroke-linecap="round" stroke-miterlimit="10" stroke-width="21"/><path d="m789 235.1.3 1v3.3l-.3 2-.7 2-1.3 3-.7 1.2-68 15.5-49.8 11.3-19 4-10.7 2h-2.3l-1.2-.3-1-.5-2-1.2-1.8-1.3-1.2-1.5-1.3-1.5-.7-1.2-14-18.3v-13l.5 1.3.2.5 3 4.5 7 10 4 5.2 3.8 4.5 1.7 1.8 1.5 1.2 1.3.8 1 .2 12.2-2.2 19.8-4.3 50.2-11.2 67-15.5 1-.8.8-1z" fill="#787878"/><path d="m631 253.4 6.8 9 42-9.5 14.7-3.3 13-2.7 13-3 14.8-3.3-8.3-8.5-15.2-15.5 13.2-2.5 7.5 7 7.8 7.5 7.5 7.3 18-4.5 16.5-4 4.2 3.2 1.5 1.3.8 1.2.2 1v1l-.7 1.5-.8 1-1 .8-67 15.5-50.2 11.2-19.8 4.3-12.2 2.2-1-.2-1.3-.8-1.5-1.2-1.7-1.8-3.8-4.5-4-5.2-7-10-3-4.5-.2-.5-.5-1.3-.3-1.2.3-1.5.2-.8.5-.7.5-.8 1-.7 1.3-.8 1.7-.5 4.5-1.2 5.8-1.3 15.7-3 .8.8 6 8-15 3-12.5 2.7h-.3z" fill="#787878"/><path d="m782.3 227.4-16.5 4-8.3-6.8 15.5-3.5z" fill="#787878"/><path d="m773 221.1-15.5 3.5-8.7-7.2 13.7-3 6.3 3.7zm-7.2 10.3-18 4.5-7.5-7.3 17.2-4z" fill="#787878"/><path d="m762.5 214.4-13.7 3-7.5-6.3 3.2-.5 2.3-.2h4.2l2.3.5 4 1 3.5 1.2z" fill="#787878"/><path d="m710.5 118.9.3-3.3.3 1.5.5 1.5 1 1.8 1.5 1.5 1 .8 1 .8 1.5.5 1.5.5 1.5.3 2 .3h38.4v71.8l-55.8 2.8 1.3-.5 1-.8.8-.8.5-1 .8-1.8v-.5l.5-28.8zm43.8 69.2v-8l-34.8 1.5v7.8zm-8-46.5-.3-1.5-.3-1.5-.8-1.3-.8-1-1-1-1.3-.5-1.3-.5-1.5-.3-1.3.3-1.3.5-1.3.5-1 1-.8 1-.8 1.3-.5 1.5v3l.5 1.3.8 1.3.8 1.3 1 .8 1.3.8 1.3.5h2.8l1.3-.5 1.3-.8 1-.8.8-1.3.8-1.3.3-1.3z" fill="#c8c8c8"/><path d="m761 103.1v21.8h-38.5l-2-.3-1.5-.2-1.5-.5-1.5-.5-1-.8-1-.7-1.5-1.5-1-1.8-.5-1.5-.2-1.5.5-46-.3-1.5-.2-1.2-.5-1.3-.8-.7-.7-.8-.8-.7-1.7-.8 54.7 4.3v8.7l-43-1.7v10l43 1.5v8l-43-1.8v10z" fill="#c8c8c8"/><path d="m761 93.4v9.7l-43-1.5v-10zm0-17.8v9.8l-43-1.5v-10zm-3.5 149-17.2 4-7.8-7.5h.3l16-3.7zm-3.2-44.5v8l-34.8 1.3v-7.8z" fill="#787878"/><path d="m741.3 211.1 7.5 6.3-16 3.7h-.3l-7.5-7zm-2-77 1.5.3 1.2.5 1.3.5 1 1 .7 1 .8 1.2.2 1.5.3 1.5-.3 1.5-.2 1.3-.8 1.2-.7 1.3-1 .7-1.3.8-1.2.5h-2.8l-1.2-.5-1.3-.8-1-.7-.7-1.3-.8-1.2-.5-1.3v-3l.5-1.5.8-1.2.7-1 1-1 1.3-.5 1.2-.5zm-12.3 98 8.3 8.5-14.8 3.3v-.3l-6.5-8.5z" fill="#787878"/><path d="m707.5 226.4-5.7-7.8v-.2l10-1.8 15.2 15.5-13 3zm13 17.2v.3l-13 3-6.7-9 13.2-2.8z" fill="#787878"/><path d="m714 235.1-13.2 2.8-6.5-8.8 13.2-2.7z" fill="#787878"/><path d="m706.3 62.6 1.7.8.8.7.7.8.8.7.5 1.3.2 1.2.3 1.5-.5 46-.3 3.3h-1.7l-2 .2-2 .3-2.3.7-1 .5-.7.5-.8.8-.5.7-.5 1v1.3l.3 32.5.7 1.2.8 1.3 1.2 1.5 1.5 1.5 2 1.2 2 1 1.3.3h1.2l-.5 28.7v.5l-.7 1.8-.5 1-.8.7-1 .8-1.2.5-1.3.2-3.2-.5-5.5-1.5-15.8-4.2-24.7-7.5 15.7-2.5v-92.8l-16-.7v-16l49.3-11.8h.7z" fill="#c8c8c8"/><path d="m710.5 118.9-.5 46.5h-1.2l-1.3-.3-2-1-2-1.2-1.5-1.5-1.2-1.5-.8-1.3-.7-1.2-.3-32.5v-1.3l.5-1 .5-.7.8-.8.7-.5 1-.5 2.3-.7 2-.3 2-.2z" fill="#c8c8c8"/><path d="m694.3 229.1-13 2.8-5.8-7.5v-1l26.3-5v.2l5.7 7.8zm6.5 8.8 6.7 9-13 2.7-.2-.2-6.3-8.5z" fill="#787878"/><path d="m700.8 237.9-12.8 3-6.7-9 13-2.8zm-6.5 11.5.2.2-14.7 3.3-.3-.8-6-8.2 14.5-3z" fill="#787878"/><path d="m681.3 231.9 6.7 9-14.5 3-6.7-9.3z" fill="#787878"/><path d="m681.3 231.9-14.5 2.7-6-7.7v-.8l14.7-2.7v1zm-23 15.5 15.2-3.5 6 8.2.3.8-42 9.5-6.8-9 12.5-2.8z" fill="#787878"/><path d="m673.5 243.9-15.2 3.5-7-9.5 15.5-3.3z" fill="#787878"/><path d="m654.5 89.9 16 .8v92.8l-15.8 2.5-29 5-22.8 4h.3l-43.3 7.3v-117.4zm9.3 86v-77.3l-96.5-4.8v97.3z" fill="#c8c8c8"/><path d="m666.8 234.6-15.5 3.3-6-8-.8-.8 16.3-3v.8z" fill="#787878"/><path d="m663.8 98.6v77.3l-96.5 15.2v-97.2z" fill="#fff"/><path d="m660 207.9-.2 1-.8 1.2-1 1-1.5 1-2 1-2.5 1-5.7 2-7 2-8.3 1.5-9 1.5-9.7 1-9.8.8-9.2.2-8.3-.2-7.2-.5-6-1-2.5-.8-2.3-.5-1.5-.7-1.5-1-.7-1-.3-1v-.8l.8-1 1-1.2 1.2-1 1.8-1 2.2-1 5.3-1.8 6.5-1.7 7.5-1.8 8.2-1.2 9-1.3.5 5 .5 2 .3.8.2.5.8.5 1 .5 2 .5 1.5.2h.5l2.7-.2 1.3-.3 1-.5 1-.7 1-1 .5-1v-1.3l.5-2.5.7-3.7h7.8l7 .2 6.2.3 5.5.7 4.5 1 1.8.5 1.5.8 1.2.7 1 .8.8.7zm-8.7 30 7 9.5-14.8 3.2-7.2-9.7z" fill="#787878"/><path d="m636.3 240.9 7.2 9.7-12.5 2.8-7.5-9.8h.3z" fill="#787878"/><path d="m603 194.9 22.8-4-22.5 4z" fill="#fff"/><path d="m603.3 194.9 22.5-4-1.3 3.7-2 6.8-5.7.5-6.3.2-4 .5-.5-2.7-.5-2.5-.5-1-.5-.8-.5-.5z" fill="#787878"/><path d="m622.5 201.4-.7 3.7-.5 2.5v1.3l-.5 1-1 1-1 .7-1 .5-1.3.3-2.7.2h-.5l-1.5-.2-2-.5-1-.5-.8-.5-.2-.5-.3-.8-.5-2-.5-5 4-.5 6.3-.2z" fill="#787878"/><g fill="none" stroke="#000" stroke-linecap="round" stroke-miterlimit="10" stroke-width="6.25"><path d="m654.5 89.9 16 .7v92.8l-15.7 2.5-29 5-22.5 4-43.3 7.2v-117.2z"/><path d="m663.8 98.6-96.5-4.7v97.2l96.5-15.2zm-57.3 104-9 1.3-8.2 1.2-7.5 1.8-6.5 1.7-5.3 1.8-2.2 1-1.8 1-1.2 1-1 1.2-.8 1v.8l.3 1 .7 1 1.5 1 1.5.7 2.3.5 2.5.8 6 1 7.2.5 8.3.2 9.2-.2 9.8-.8 9.7-1 9-1.5 8.3-1.5 7-2 5.7-2 2.5-1 2-1 1.5-1 1-1 .8-1.2.2-1-.2-.8-.8-.7-1-.8-1.2-.7-1.5-.8-1.8-.5-4.5-1-5.5-.7-6.2-.3-7-.2h-7.8"/><path d="m603 194.9h.3l.7.2.5.5.5.8.5 1 .5 2.5.5 2.7.5 5 .5 2 .3.8.2.5.8.5 1 .5 2 .5 1.5.2h.5l2.7-.2 1.3-.3 1-.5 1-.7 1-1 .5-1v-1.3l.5-2.5.7-3.7 2-6.8 1.3-3.7zm51.5-105v-16l49.3-11.8h.7l1.8.5 1.7.8.8.7.7.8.8.7.5 1.3.2 1.2.3 1.5-.5 46-.3 3.3-.5 46.5-.5 28.7v.5l-.7 1.8-.5 1-.8.7-1 .8-1.2.5-1.3.2-3.2-.5-5.5-1.5-15.8-4.2-24.7-7.5h-.3"/><path d="m706.3 62.6 54.7 4.3v129.7l-55.7 2.8"/><path d="m710.8 115.6.2 1.5.5 1.5 1 1.8 1.5 1.5 1 .7 1 .8 1.5.5 1.5.5 1.5.2 2 .3h38.5m-50.5-6h-1.7l-2 .2-2 .3-2.3.7-1 .5-.7.5-.8.8-.5.7-.5 1v1.3l.3 32.5.7 1.2.8 1.3 1.2 1.5 1.5 1.5 2 1.2 2 1 1.3.3h1.2m36.3-23.8-.3 1.5-.2 1.3-.8 1.2-.7 1.3-1 .7-1.3.8-1.2.5h-2.8l-1.2-.5-1.3-.8-1-.7-.7-1.3-.8-1.2-.5-1.3v-3l.5-1.5.8-1.2.7-1 1-1 1.3-.5 1.2-.5 1.3-.3 1.5.3 1.2.5 1.3.5 1 1 .7 1 .8 1.2.2 1.5zm-26.8 47.8 34.8-1.3v-8l-34.8 1.5zm41.5-113.8-43-1.7v10l43 1.5m1.5 129-1.7-1.3-3.5-1.2-4-1-2.3-.5h-4.2l-2.3.2-3.2.5-16.3 3-13.2 2.5-10 1.8-26.3 5-14.7 2.7-16.3 3-15.7 3-5.8 1.3-4.5 1.2-1.7.5-1.3.8-1 .7-.5.8-.5.7-.2.8-.3 1.5.3 1.2.5 1.3.2.5 3 4.5 7 10 4 5.2 3.8 4.5 1.7 1.8 1.5 1.2 1.3.8 1 .2 12.2-2.2 19.8-4.3 50.2-11.2 67-15.5 1-.8.8-1 .7-1.5v-1l-.2-1-.8-1.2-1.5-1.3-4.2-3.2-9.3-6.3-4.2-3z"/><path d="m613.3 241.6v13l14 18.3.7 1.2 1.3 1.5 1.2 1.5 1.8 1.3 2 1.2 1 .5 1.2.3h2.3l10.7-2 19-4 49.8-11.3 68-15.5.7-1.2 1.3-3 .7-2 .3-2v-3.3l-.3-1-.2-.2m-27.8-141.5-43-1.8v10l43 1.5"/><path d="m711.8 216.6 15.2 15.5 8.3 8.5-14.8 3.3-13 3-13 2.7-14.7 3.3-42 9.5-6.8-9-7.5-9.8-6-7.7"/><path d="m630.5 253.4h.5l12.5-2.8 14.8-3.2 15.2-3.5 14.5-3 12.8-3 13.2-2.8 13-3m-103.2 11.5 12.5-2.7 15-3 15.5-3.3 14.5-2.7 13-2.8 13.2-2.7 9.8-2"/><path d="m630.5 233.4 5.8 7.5 7.2 9.7 5.8 7.8m-4-28.5 6 8 7 9.5 5.7 7.5m-3.2-28 6 7.7 6.7 9.3 6 8.2m-4-27.7 5.8 7.5 6.7 9 6.3 8.5m-5-27 5 6.7 6.5 8.8 6.7 9m-5.7-28.3 5.7 7.8 6.5 8.7 6.5 8.5m4.5-29.5 7.5 7 7.8 7.5 7.5 7.3 18-4.5 16.5-4"/><path d="m740.3 228.6 17.2-4 15.5-3.5m-40.2 0 16-3.7 13.7-3"/><path d="m740.8 210.9.5.2 7.5 6.3 8.7 7.2 8.3 6.8"/></g></svg>