<svg height="850.394" viewBox="0 0 850.394 850.394" width="850.394" xmlns="http://www.w3.org/2000/svg"><path d="m426.17 79.18c185.64 0 336.08 155.29 336.08 346.83 0 191.58-150.44 346.87-336.08 346.87-185.59 0-336.09-155.29-336.09-346.87 0-191.54 150.5-346.83 336.09-346.83zm-29.74 142.21 20.01-30.01-36.16 2.64-22.53-27.95-8.8 34.82-33.91 12.72 30.72 18.91 1.56 35.76 27.76-23.13 34.9 9.39z" fill="#ffa500"/><path d="m416.44 191.38-20.01 30.01 13.55 33.15-34.9-9.39-27.76 23.13-1.56-35.76-30.72-18.91 33.91-12.72 8.8-34.82 22.53 27.95z"/><g fill="none"><path d="m762.25 426.01c0 191.58-150.44 346.87-336.08 346.87-185.59 0-336.09-155.29-336.09-346.87 0-191.54 150.5-346.83 336.09-346.83 185.64 0 336.08 155.29 336.08 346.83z" stroke="#000" stroke-width="22.652"/><path d="m0 0h850.394v850.394h-850.394z"/></g></svg>