<svg height="850" viewBox="0 0 850 850" width="850" xmlns="http://www.w3.org/2000/svg"><path d="m767.4 627.5 2 .3 1.8.2 1.7.5 1.8.5 1.5 1 1.7.8 1.3 1.2 1.2 1.3 1.3 1.2 1.2 1.5.8 1.8.7 1.5.8 2 .5 1.7.2 2v3.8l-.2 2-.5 1.7-.8 2-.7 1.5-.8 1.8-1.2 1.5-1.3 1.2-1.2 1.3-1.3 1.2-1.7.8-1.5 1-1.8.5-1.7.5-1.8.2-2 .3-1.7-.3-1.5-.2-1.8-.3-1.5-.5-1.5-.7-1.5-.8-2.7-2.2-2.3-2.3-1.7-3-.8-1.5-.5-1.5-.5-1.7-.2-1.8v-5.2l.2-1.8.5-1.7.5-1.5.8-1.5 1.7-3 2.3-2.3 2.7-2.2 1.5-.8 1.5-.7 1.5-.5 1.8-.3 1.5-.2z" fill="#7a7878"/><path d="m775.7 550.8v25h-26.3v-25z" fill="#231f20"/><path d="m749.2 538.5-1 1.5-1.3 1-1.5 1-1.7 1-3.5 1.3-3.8 1-3.5.7-3 .3-2.7.2h-47.5v-5.7l-12.3-25.8 3.8-2.2 3.5-1.3 3.2-1 3-.2h2.8l2.7.5 2.5.5 2.3 1 2 1.2 3 2.3 3.5 3.2 3.7 3.5 7.3 7.3 5.2 5.7.8.8 1 .7 2 1.3 2.2.5h2.3l2.5-.3 2.2-.7 2.3-1.3 2-1.5 1.7-1.7 1.5-2.3.8-2.5.2-1.2.3-1.3v-1.5l-.3-1.5-.5-1.7-.5-1.5-.7-1.8-1-1.7-1.3-1.8-1.2-1.7 5.5-2 10 15.7 1 1.8 1 2 .5 1.5.2 1.7v1.5l-.2 1.3-.5 1.2z" fill="#ed1d31"/><path d="m749.2 650.5v.5l-.3 1.8-.5 2.3-.5 1.5-.8 1.3-1 1.5-1.3 1.5-1.3 1.5-1.8 1.5-2.3 1.3-2.3 1-3 1-3.3 1-2.3.3-4 .3-12 .5-17 .3-21 .5-51.5.3-58 .3-58-.3-51.5-.3-21.3-.5-17-.3-12-.5-3.8-.3-2.5-.3-3.3-1-2.8-1-2.5-1-2-1.3-1.8-1.5-1.5-1.5-1.3-1.5-.8-1.5-.8-1.3-.5-1.5-.8-2.3v-1.8l-.3-.5v-112l1.3 1.5 1.3 1 1.5 1 1.5 1 3.8 1.3 3.8 1 3.5.8 3 .3 2.8.3h323.6l2.8-.3 3-.3 3.5-.8 3.8-1 3.5-1.3 1.8-1 1.5-1 1.3-1 1-1.5v105.8l-.3 2.8.3 2.5v.9zm-146.5-32.2v-21.5h-75.3v21.5z" fill="#c8c8c8"/><path d="m732.2 512.8 1.2 1.7 1.3 1.8 1 1.7.7 1.8.5 1.5.5 1.7.3 1.5v1.5l-.3 1.3-.2 1.2-.8 2.5-1.5 2.3-1.7 1.7-2 1.5-2.3 1.3-2.2.7-2.5.3h-2.3l-2.2-.5-2-1.3-1-.7-.8-.8-5.2-5.7-7.3-7.3-3.7-3.5-3.5-3.2-3-2.3-2-1.2-2.3-1-2.5-.5-2.7-.5h-2.8l-3 .2-3.2 1-3.5 1.3-3.8 2.2-6.5 4-6.2 3.5-6.3 3-14.7-32.7 7.5-2 7.5-2.3 8.5-3.2 5.5-2.3 5.2-2.5 2.5-1.2 2-1.5 2-1.3 1.5-1.5 2.5-2.2 3-1.8 1.5-.7 1.8-.8 1.7-.2 1.8-.3h3.5l1.7.5 1.8.8 1.5 1.2 1.7 1.3 1.5 1.7 1.5 2 1.3 3 1.5 3 2.2 3.8 3.3 4.5 4 4.7 2.5 2.8 2.5 2.5 3 2.7 3.5 2.8 3.7 3.2z" fill="#0d72ba"/><path d="m717.2 480-1.8 1.8-1.7 1.5-2.3 1.5-2 1.5h-3l-2.2-3.8-1.5-3-1.3-3-1.5-2-1.5-1.7-1.7-1.3-1.5-1.2-1.8-.8-1.7-.5h-3.5l-1.8.3-1.7.2-1.8.8-1.5.7-3 1.8-2.5 2.2-1.5 1.5-2 1.3-2 1.5-2.5 1.2-5.2 2.5-5.5 2.3-.3-.5-1.2-2.5-1.5-2-1.5-1.8-1.5-1.2-2.5-2-1-.5-35-.3h-24.8l.3-2.2-.3-2.3-.2-2.2-.8-1.8-.7-1.7-.8-1.8-2.2-2.5-2-2.2-2-1.5-1.8-1h-36.2l-55.8-.3-24.2-.2h-14l-1 .5-1.5.7-1.5 1.3-3.3 3-3.7 4-2.8-1-2.7-.8-6.5-1.2-7.5-1.3-8.8-1.5v-163.2l.3-3.3.5-3.2.7-3.3 1.3-3 1.5-3 1.5-2.5 2-2.5 2.2-2.5 2.3-2 2.5-2 2.7-1.5 3-1.5 3-1 3.3-1 3.2-.5h258l3.3.5 3.2 1 3 1 3 1.5 2.8 1.5 2.5 2 2.2 2 2.3 2.5 2 2.5 1.5 2.5 1.5 3 1.2 3 .8 3.3.5 3.2.2 3.3v162.7l-.2 3-.5 3-.8 3-1 3-1.2 2.8-1.5 2.5-1.5 2.5z" fill="#eedceb"/><path d="m679.7 540.8v5.7h-217.8v-2.7l3.8-5.5 9.7-14.3 6-8.7 6.8-9 6.7-9 6.5-8.3 5.3-6 2.5-2.7 2.2-2 2.3-1.8 1.7-1.2 1.5-1h12.5l20.8.2h5.5l-2.5 1.5-2.3 1.5-1.7 1.8-1.8 1.7-1.2 1.8-.8 2-.7 2-.3 2 .3 2 .7 2 .8 2 1.2 2 1.8 1.7 2 1.5 2 1.5 2.5 1.5 2.7 1.3 3 1.2 3 1 3.5 1 3.5.5 3.5.5 4 .5h7.8l3.7-.5 3.8-.5 3.5-.5 3.2-1 3.3-1 2.7-1.2 2.8-1.3 2.5-1.5 2.2-1.5 2-1.5 1.5-1.7 1.3-2 1-2 .5-2 .2-2-.2-1.8-.3-1.7-.7-1.8-1-1.5-1.3-1.5-1.2-1.5-1.8-1.5-1.7-1.5v-1.5l35 .3 1 .5 2.5 2 1.5 1.2 1.5 1.8 1.5 2 1.2 2.5.3.5-8.5 3.2-7.5 2.3-7.5 2 14.7 32.7 6.3-3 6.2-3.5 6.5-4z" fill="#abd153"/><path d="m612.7 476 1.7 1.5 1.8 1.5 1.2 1.5 1.3 1.5 1 1.5.7 1.8.3 1.7.2 1.8-.2 2-.5 2-1 2-1.3 2-1.5 1.7-2 1.5-2.2 1.5-2.5 1.5-2.8 1.3-2.7 1.2-3.3 1-3.2 1-3.5.5-3.8.5-3.7.5h-7.8l-4-.5-3.5-.5-3.5-.5-3.5-1-3-1-3-1.2-2.7-1.3-2.5-1.5-2-1.5-2-1.5-1.8-1.7-1.2-2-.8-2-.7-2-.3-2 .3-2 .7-2 .8-2 1.2-1.8 1.8-1.7 1.7-1.8 2.3-1.5 2.5-1.5h57z" fill="#abd153"/><path d="m602.7 596.8v21.5h-75.3v-21.5z" fill="#7a7878"/><path d="m555.7 474.5h-5.5v-2l.5-1.7v-1.5l-.3-1.8-.5-1.7-.7-2-1.3-1.8-1.5-1.5-1.5-1.7-1.7-1.5-2-1.3v-.7h36.2l1.8 1 2 1.5 2 2.2 2.2 2.5.8 1.8.7 1.7.8 1.8.2 2.2.3 2.3-.3 2.2z" fill="#fbee34"/><path d="m550.7 469.3v1.5l-.5 1.7v2l-20.8-.2h-12.5l-1.5 1-1.7 1.2-2.3 1.8-2.2 2-2.5 2.7-5.3 6-.7-.5-5.5-1.2-5-1.5-4.5-2-2-1.3-2-1.2-1.5-1.3-1.5-1.2-1.3-1.5-1.2-1.5-.8-1.5-.5-1.8-.5-1.5v-3.7l.8-2 .7-2 1.3-1.8 1.7-1.7 1.8-1.8 2.2-1.5 2.5-1.5 55.8.3v.7l2 1.3 1.7 1.5 1.5 1.7 1.5 1.5 1.3 1.8.7 2 .5 1.7z" fill="#fbee34"/><path d="m458.9 497 .3-2v-2l-.3-2-.5-1.7-.7-2-.8-1.8-2-3.7-2.7-3.5-2.8-3.3-6-6.2-1.7-1.3-1.5-1.2-2-1-2-1 3.7-4 3.3-3 1.5-1.3 1.5-.7 1-.5h14l24.2.2-2.5 1.5-2.2 1.5-1.8 1.8-1.7 1.7-1.3 1.8-.7 2-.8 2v3.7l.5 1.5.5 1.8.8 1.5 1.2 1.5 1.3 1.5 1.5 1.2 1.5 1.3 2 1.2 2 1.3 4.5 2 5 1.5 5.5 1.2.7.5-6.5 8.3-6.7 9-6.8 9-6 8.7-9.7 14.3-3.8 5.5v2.7h-58.2l-2.8-.2-3-.3-3.5-.7-3.7-1-3.8-1.3-1.5-1-1.5-1-1.2-1-1.3-1.5v-2h1.8l6.7-10 7.3-10.7 8.7-12.5 3 .5 3.3.7 3 .3 3.2.2 6.5.3 6.5-.5 6.8-1.3 6.7-1.5 7-2.2z" fill="#fbee34"/><path d="m443.4 468.8 6 6.2 2.8 3.3 2.7 3.5 2 3.7.8 1.8.7 2 .5 1.7.3 2v2l-.3 2-7 2.8-7 2.2-6.7 1.5-6.8 1.3-6.5.5-6.5-.3-3.2-.2-3-.3-3.3-.7-3-.5 7.3-10 7.5-10 8-10.3 3.7-4.7 3.8-4 2 1 2 1 1.5 1.2z" fill="#ffeec8"/><path d="m407.9 458.5 8.8 1.5 7.5 1.3 6.5 1.2 2.7.8 2.8 1-3.8 4-3.7 4.7-8 10.3-3-2.3-2.5-3-1.5-2-1.5-2.2-1.3-2.3-1-2.5-.7-2.5-.5-2.5-.5-2.7z" fill="#ffeec8"/><path d="m417.7 481 3 2.3-7.5 10-7.3 10-3.2-1-3.3-1.3 15-22.2.8-.8z" fill="#ffeec8"/><path d="m415.2 478-.8.8-15 22.2-2.7-1-2.8-1.5.5-1.7.5-2 .5-4.8.3-5.5.2-5.5.5-6 .3-2.7.5-2.8.7-2.7 1-2.8 1.3-2.2 1.5-2.3 6.2 1 .3 2.8.5 2.7.5 2.5.7 2.5 1 2.5 1.3 2.3 1.5 2.2z" fill="#ffeec8"/><path d="m74.2 472.5-8-2.5 1-4.2 2.5-11.5 4.2-16.8 2.8-10 3.2-11 3.8-11.2 4-11.5 4.5-11.8 4.7-11.7 5.3-11.3 3-5.5 2.7-5.5 3-5 3.3-5 3-4.7 3.5-4.5 3.2-4.3 3.8-4 3.5-4 4-4 3.7-3.7 4.3-3.5 8.2-7 8.5-6.3 8.5-6 8.8-5.2 8.2-5 8.3-4.3 8-4 7.5-3.2 6.7-2.8 6.3-2.2 5.5-1.8 4.5-1.2 3.5-.5 39-5 .5 5 .5 5 1 4.5 1.2 4.7 1.5 4.3 2 4.2 2 3.8 2.3 3.7 2.5 3.3 2.7 3.2 3 2.8 3.3 2.5 3.2 2 3.8 1.7 3.7 1.5 3.8 1 .2 3.3-.2 3.7-.3 4-.7 4.3-1 4.5-1.3 4.2-2.5 8.8-2.5 7.7-2.5 6.3-2.2 6 1 5.5 1.5 5.7 2 7.5 2.7 8.3 1.8 4.2 1.7 4.5 2.3 4.3 2.2 4 2.5 4 2.8 3.5 2.7 3.2 3.5 3 4.5 3.3 4.8 3.2 5.5 3.5 5.7 3.3 12 6.5 8.5 4.2 8.3 3.8 14.7 6.7 10.5 4.5 4 1.5-1.2 1.3-1 1.2-1.5 2.3-1.3 2.2-1 2.8-.7 2.7-.5 2.8-.3 2.7-.5 6-.2 5.5-.3 5.5-.5 4.8-.5 2-.5 1.7-.5 1-.7 1-.8.8-.7.5-1 .5-1 .2h-2.8l-2.2-.5-4.3-1.5-12.7-5-16.8-7-19-8-35.7-15.7-19.5-8.8-1.3-.7-1.5-1.5-1.7-2.3-2.3-3-4.5-7-5.5-8.7-51.5 82.5-22.2-7.3z" fill="#a3d9ff"/><path d="m335.4 177.5 2.5.5 2.3.8 2.5.7 2.2 1 2 1 2.3 1.5 3.7 2.8 3.8 3.5 3.2 4 3 4.2 2.8 4.8 2 5 2 5.5 1.2 5.5 1 6 .5 6v6.5l-.5 6.2-.7 6.5-1 4.3-1.3 4.2-1.2 4-1.5 3.8-1.5 3.7-1.8 3.8-2 3.2-2 3.5-2.2 3-2.5 3-2.3 2.8-2.7 2.5-2.5 2.2-2.8 2.3-3 2-3 1.7-3 1.5-3.2 1.3-3.3 1-3.2.7-3.3.5h-6.7l-3.5-.5-3.8-1-3.7-1.5-3.8-1.7-3.2-2-3.3-2.5-3-2.8-2.7-3.2-2.5-3.3-2.3-3.7-2-3.8-2-4.2-1.5-4.3-1.2-4.7-1-4.5-.5-5-.5-5v-4.5l.2-4.8.5-5 .8-4.7 1.5-6.5 1.7-6 2.5-6 2.5-5.5 3-5 3.5-4.8 3.5-4.5 4-4 4.3-3.2 4.2-3 4.5-2.5 4.8-1.8 4.7-1.5 2.3-.2 2.5-.3 2.5-.2h2.5l2.2.2z" fill="#ffeec8"/><path d="m329.9 384.3 29.5 49-1.5 1-12-6.5-5.7-3.3-5.5-3.5-4.8-3.2-4.5-3.3-3.5-3-2.7-3.2-2.8-3.5-2.5-4-2.2-4-2.3-4.3-1.7-4.5-1.8-4.2-2.7-8.3-2-7.5-1.5-5.7-1-5.5 2.2-6 2.5-6.3 2.5-7.7 2.5-8.8 1.3-4.2 1-4.5.7-4.3.3-4 .2-3.7-.2-3.3 3.5.5h6.7l3.3-.5 3.2-.7 3.3-1 3.2-1.3 3-1.5 2.3.3z" fill="#a3d9ff"/><path d="m197.2 609.8v3.5l-.3 4.7-1.7 14.3-5.3 39.2h-73.5l-3.5-16.5-3-17.2-1.2-9-1.3-9-1-9.5-1-9.5-.2-4.3-.8-3.7-.7-3.8-1-3.5-1.3-3.2-1-3.3-3-6-3-5.7-3.2-6-3.5-6.8-3.3-7.2-3.7-9.5-3.3-8.5-3-8-1-4-1-4-.7-4-.5-4.3-.3-4.7v-4.8l.5-5 .5-5.5 1-6 1.3-6.5 111.5 35.5-1.5 4.5-.3 1.8.3 3.2 1.2 10.5 2 14.5 2.3 16.8 4.7 32 1.8 11.7z" fill="#7a7878"/><g fill="none" stroke="#231f20" stroke-linecap="round" stroke-miterlimit="10"><path d="m407.9 458.5v-163.2l.3-3.3.5-3.2.7-3.3 1.3-3 1.5-3 1.5-2.5 2-2.5 2.2-2.5 2.3-2 2.5-2 2.7-1.5 3-1.5 3-1 3.3-1 3.2-.5h258l3.3.5 3.2 1 3 1 3 1.5 2.8 1.5 2.5 2 2.2 2 2.3 2.5 2 2.5 1.5 2.5 1.5 3 1.2 3 .8 3.3.5 3.2.2 3.3v162.7l-.2 3-.5 3-.8 3-1 3-1.2 2.8-1.5 2.5-1.5 2.5-2 2.2-1.8 1.8-1.7 1.5-2.3 1.5-2 1.5" stroke-width="15.5"/><path d="m716.4 478.8.8 1.2 8 11.8 12.5 19 10 15.7 1 1.8 1 2 .5 1.5.2 1.7v1.5l-.2 1.3-.5 1.2-.5 1-1 1.5-1.3 1-1.5 1-1.7 1-3.5 1.3-3.8 1-3.5.7-3 .3-2.7.2h-323.5l-2.8-.2-3-.3-3.5-.7-3.7-1-3.8-1.3-1.5-1-1.5-1-1.2-1-1.3-1.5-.5-1-.5-1.2v-2.8l.3-1.7.5-1.5.7-2 1.3-1.8 8-12.5 8.2-13" stroke-width="15.5"/><path d="m749.2 537.8v113.2l-.3 1.8-.5 2.2-.5 1.5-.7 1.3-1 1.5-1.3 1.5-1.2 1.5-1.8 1.5-2.2 1.2-2.3 1-3 1-3.2 1-2.3.3-4 .2-12 .5-17 .3-21 .5-51.5.2-58 .3-58-.3-51.5-.2-21.2-.5-17-.3-12-.5-3.8-.2-2.5-.3-3.2-1-2.8-1-2.5-1-2-1.2-1.7-1.5-1.5-1.5-1.3-1.5-.7-1.5-.8-1.3-.5-1.5-.7-2.2v-1.8l-.3-.5v-115.2" stroke-width="15.5"/><path d="m602.7 618.3h-75.3v-21.5h75.3z" stroke-width="12.25"/><path d="m461.9 543.8 3.8-5.5 9.7-14.3 6-8.7 6.8-9 6.7-9 6.5-8.3 5.3-6 2.5-2.7 2.2-2 2.3-1.8 1.7-1.2 1.5-1h12.5l20.8.2h62.5l35 .3 1 .5 2.5 2 1.5 1.2 1.5 1.8 1.5 2 1.2 2.5" stroke-width="14"/><path d="m775.7 575.8h-26.3v-25h26.3zm-26.5 68.5.2-1.8.5-1.7.5-1.5.8-1.5 1.7-3 2.3-2.3 2.7-2.2 1.5-.8 1.5-.7 1.5-.5 1.8-.3 1.5-.2 1.7-.3 2 .3 1.8.2 1.7.5 1.8.5 1.5 1 1.7.8 1.3 1.2 1.2 1.3 1.3 1.2 1.2 1.5.8 1.8.7 1.5.8 2 .5 1.7.2 2v3.8l-.2 2-.5 1.7-.8 2-.7 1.5-.8 1.8-1.2 1.5-1.3 1.2-1.2 1.3-1.3 1.2-1.7.8-1.5 1-1.8.5-1.7.5-1.8.2-2 .3-1.7-.3-1.5-.2-1.8-.3-1.5-.5-1.5-.7-1.5-.8-2.7-2.2-2.3-2.3-1.7-3-.8-1.5-.5-1.5-.5-1.7-.2-1.8-.3-2.5z" stroke-width="12.25"/><path d="m612.7 476 1.7 1.5 1.8 1.5 1.2 1.5 1.3 1.5 1 1.5.7 1.8.3 1.7.2 1.8-.2 2-.5 2-1 2-1.3 2-1.5 1.7-2 1.5-2.2 1.5-2.5 1.5-2.8 1.3-2.7 1.2-3.3 1-3.2 1-3.5.5-3.8.5-3.7.5h-7.8l-4-.5-3.5-.5-3.5-.5-3.5-1-3-1-3-1.2-2.7-1.3-2.5-1.5-2-1.5-2-1.5-1.8-1.7-1.2-2-.8-2-.7-2-.3-2 .3-2 .7-2 .8-2 1.2-1.8 1.8-1.7 1.7-1.8 2.3-1.5 2.5-1.5 1.5-.7m-121-9.5 3.7-4 3.3-3 1.5-1.3 1.5-.7 1-.5h14l24.2.2 55.8.3h36.2l1.8 1 2 1.5 2 2.2 2.2 2.5.8 1.8.7 1.7.8 1.8.2 2.2.3 2.3-.3 2.2m-204.7 62 6.7-10 7.3-10.7 8.7-12.5" stroke-width="14"/><path d="m500.7 488.5-5.5-1.2-5-1.5-4.5-2-2-1.3-2-1.2-1.5-1.3-1.5-1.2-1.3-1.5-1.2-1.5-.8-1.5-.5-1.8-.5-1.5v-3.7l.8-2 .7-2 1.3-1.8 1.7-1.7 1.8-1.8 2.2-1.5 2.5-1.5 1.5-.7m54.3 1.7 2 1.3 1.7 1.5 1.5 1.7 1.5 1.5 1.3 1.8.7 2 .5 1.7.3 1.8v1.5l-.5 1.7m182 40.3 1.2 1.7 1.3 1.8 1 1.7.7 1.8.5 1.5.5 1.7.3 1.5v1.5l-.3 1.3-.2 1.2-.8 2.5-1.5 2.3-1.7 1.7-2 1.5-2.3 1.3-2.2.7-2.5.3h-2.3l-2.2-.5-2-1.3-1-.7-.8-.8-5.2-5.7-7.3-7.3-3.7-3.5-3.5-3.2-3-2.3-2-1.2-2.3-1-2.5-.5-2.7-.5h-2.8l-3 .2-3.2 1-3.5 1.3-3.8 2.2-6.5 4-6.2 3.5-6.3 3-14.7-32.7 7.5-2 7.5-2.3 8.5-3.2 5.5-2.3 5.2-2.5 2.5-1.2 2-1.5 2-1.3 1.5-1.5 2.5-2.2 3-1.8 1.5-.7 1.8-.8 1.7-.2 1.8-.3h3.5l1.7.5 1.8.8 1.5 1.2 1.7 1.3 1.5 1.7 1.5 2 1.3 3 1.5 3 2.2 3.8 3.3 4.5 4 4.7 2.5 2.8 2.5 2.5 3 2.7 3.5 2.8 3.7 3.2zm-202.5 3-19.5 29.7" stroke-width="14"/><path d="m116.9 674.3-.5-2.8-3.5-16.5-3-17.2-1.2-9-1.3-9-1-9.5-1-9.5-.2-4.3-.8-3.7-.7-3.8-1-3.5-1.3-3.2-1-3.3-3-6-3-5.7-3.2-6-3.5-6.8-3.3-7.2-3.7-9.5-3.3-8.5-3-8-1-4-1-4-.7-4-.5-4.3-.3-4.7v-4.8l.5-5 .5-5.5 1-6 1.3-6.5 1-4m109 44-.3 1.8.3 3.2 1.2 10.5 2 14.5 2.3 16.8 4.7 32 1.8 11.7 1 6.8v3.5l-.3 4.7-1.7 14.3-5.3 39.2m84.8-420.7v-4.5l.2-4.8.5-5 .8-4.7 1.5-6.5 1.7-6 2.5-6 2.5-5.5 3-5 3.5-4.8 3.5-4.5 4-4 4.3-3.2 4.2-3 4.5-2.5 4.8-1.8 4.7-1.5 2.3-.2 2.5-.3 2.5-.2h2.5l2.2.2 2.5.5 2.5.5 2.3.8 2.5.7 2.2 1 2 1 2.3 1.5 3.7 2.8 3.8 3.5 3.2 4 3 4.2 2.8 4.8 2 5 2 5.5 1.2 5.5 1 6 .5 6v6.5l-.5 6.2-.7 6.5-1 4.3-1.3 4.2-1.2 4-1.5 3.8-1.5 3.7-1.8 3.8-2 3.2-2 3.5-2.2 3-2.5 3-2.3 2.8-2.7 2.5-2.5 2.2-2.8 2.3-3 2-3 1.7-3 1.5-3.2 1.3-3.3 1-3.2.7-3.3.5h-6.7l-3.5-.5-3.8-1-3.7-1.5-3.8-1.7-3.2-2-3.3-2.5-3-2.8-2.7-3.2-2.5-3.3-2.3-3.7-2-3.8-2-4.2-1.5-4.3-1.2-4.7-1-4.5-.5-5z" stroke-width="15.5"/><path d="m224.9 366.8 1.8 4 3 6.2 8.5 16.8 10.5 19.7 5.5 9.8 5.2 9.5 5.5 8.7 4.5 7 2.3 3 1.7 2.3 1.5 1.5 1.3.7 19.5 8.8 35.7 15.7 19 8 16.8 7 12.7 5 4.3 1.5 2.2.5h2.8l1-.2 1-.5.7-.5.8-.8.7-1 .5-1 .5-1.7.5-2 .5-4.8.3-5.5.2-5.5.5-6 .3-2.7.5-2.8.7-2.7 1-2.8 1.3-2.2 1.5-2.3 1-1.2 1.2-1.3-4-1.5-10.5-4.5-14.7-6.7-8.3-3.8-8.5-4.2-12-6.5-5.7-3.3-5.5-3.5-4.8-3.2-4.5-3.3-3.5-3-2.7-3.2-2.8-3.5-2.5-4-2.2-4-2.3-4.3-1.7-4.5-1.8-4.2-2.7-8.3-2-7.5-1.5-5.7-1-5.5 2.2-6 2.5-6.3 2.5-7.7 2.5-8.8 1.3-4.2 1-4.5.7-4.3.3-4 .2-3.7-.2-3.3" stroke-width="15.5"/><path d="m274.7 250.8-39 5-3.5.5-4.5 1.2-5.5 1.8-6.3 2.2-6.7 2.8-7.5 3.2-8 4-8.3 4.3-8.2 5-8.8 5.2-8.5 6-8.5 6.3-8.2 7-4.3 3.5-3.7 3.7-4 4-3.5 4-3.8 4-3.2 4.3-3.5 4.5-3 4.7-3.3 5-3 5-2.7 5.5-3 5.5-5.3 11.3-4.7 11.7-4.5 11.8-4 11.5-3.8 11.2-3.2 11-2.8 10-4.2 16.8-2.5 11.5-1 4.2 8 2.5 111.5 35.5 22.2 7.3 51.5-82.5" stroke-width="15.5"/><path d="m401.7 457.5 6.2 1 8.8 1.5 7.5 1.3 6.5 1.2 2.7.8 2.8 1 2 1 2 1 1.5 1.2 1.7 1.3 6 6.2 2.8 3.3 2.7 3.5 2 3.7.8 1.8.7 2 .5 1.7.3 2v2l-.3 2-.5 2.3-1 2.2" stroke-width="13.75"/><path d="m359.4 433.3-29.5-49 10.3-84.5m52.5 198.2 1.2.5 2.8 1.5 2.7 1 3.3 1.3 3.2 1 3 .5 3.3.7 3 .3 3.2.2 6.5.3 6.5-.5 6.8-1.3 6.7-1.5 7-2.2 7-2.8 1.3-.7" stroke-width="15.5"/><path d="m667.4 515 12.3 25.8" stroke-width="14"/></g></svg>