<svg height="850" viewBox="0 0 850 850" width="850" xmlns="http://www.w3.org/2000/svg"><path d="m304 194.3 8.3 5.7-.8-.5h-1l-1.2-.2-1 .2-2.5.8-2.5 1.2-2.5 2-2.8 2.5-2.5 3-2.5 3.5-2.2 4-1.8 3.8-1.2 3.5-.5 3.2-.3 3 .3 2.8.5 1 .5 1 .5.7.7.8-9-5.3-69.5-52-.5-.5-.5-.5-.5-1.5-.2-1.7.2-2 .5-2.5.8-2.5 1.2-2.8 1.5-3 2.3-2.7 2.2-2.5 2.5-2 2.3-1.5 1.5-.5 1.2-.3h1.3l1 .5z" fill="#f6cc4b"/><path d="m114.3 105-.8-3.5 8.3-2.2 7.5-2 10-.5h4.7l4.8.5 2.2.2 2 .5 2 .8 2 .7 1.8.8 1.5 1.2 1.5 1.5 1.2 1.5 2 3.3 1.8 3.5 3.2 7.7 1.5 4 1.5 3.3 1.5 3 1.8 2.2 2.5 2.8 2.5 2.5 3 2.5 2.7 2 3.3 2 3.2 1.7 3.3 1.3 3.7.7 4.5.8 5 .2h2.5l2.3-.2 2.2-.5 2-1 2.3-.5 1.2 6-2.7 2.2-2.5 2.8-3.8-.3-2 1-2.2.5-2.5.3-2.8-.3-5.2-.5-4.8-.7-3.7-.8-3.5-1-3.3-1.2-3.2-1.5-3.3-1.8-3-2.2-2.7-2.3-2.8-2.5-2.5-2.7-2-2.8-1.7-3-1.8-3-3.2-6.2-1.8-3-2-3-1.2-1.5-1.5-1.8-1.8-1.5-2-1.5-2-1.5-2.2-1.5-2.5-1.2-2.8-1.3-2.7-1-2.8-.7-3-.8-2.7-.5-3-.5h-3l-3 .3z" fill="#cc82b7"/><path d="m583.5 392.5 1 .8.5.7.5 1 .3 1.3v1l-.3 1.2-.5 1.3-.5 1.2-.7 1-1 1-1 .5-1 .5-1.3.3-1 .2-1-.2-1-.5-1-.3-33.7-19.7-82.8-48.5-169.5-99-.7-.8-.5-.7-.5-1-.5-1-.3-2.8.3-3 .5-3.2 1.2-3.5 1.8-3.8 2.2-4 2.5-3.5 2.5-3 2.8-2.5 2.5-2 2.5-1.2 2.5-.8 1-.2 1.2.2h1l.8.5 223.7 158.5 47 33.3z" fill="#f6cc4b"/><path d="m513.5 318.5-2.2-2.7-2.5-2.8-3.5-2.7-4.8-3-6-3-7.7-3.5-9.5-3.8-12-4-6-2.2-5.8-2.3-5.2-2.2-4.8-2.3-4.2-2.2-3.8-2-3.5-2.3-2.7-2.2-2.5-2.3-2.3-2.5-1.5-2.2-1.5-2.3-.7-2.5-.5-2.5-.3-2.5v-2.5l.5-2.2.5-2.3.8-1.7.7-1.3 1.3-1.2 1.2-1 1.5-.5 1.5-.5 2-.3h2l5 .8 6.3 1.2 7 1.5 14 3.8 14.7 4 17 4.7 17.5 5 16 5.3 6.8 2.2 5.7 2.3 4.5 2 1.5 1 1.3.7 2 2 2.5 3.5 3.2 4.5 3.5 5.5 8.3 13.3 9 15.7 5.2-1.2 2-2.3 1.8-1.7 2-1 2-.5h2.2l2.5.5 3 1 3.5 1.5 2 1.5 2.8 2.2 3.2 3.3 3.5 4h2l.3-1.8.5-1.7 1-1.5 1.5-1.8 1.7-1.2 2-1.3 2.3-1.2 2.5-.8 2.5-.7 2.7-.3h2.8l2.7.3 2.5.7 2.8 1 2.5 1.5 2.2 1.8 4 4.5 4.5 5.2 4.8 6 5.2 6.8 5 7 5.3 7.5 10.2 15.2 9.3 15 4.2 7 3.8 6.5 3 6 2.5 5 1.7 4.3 1 3-21.2 140 .2 1.7 1 5.8 2.5 9.7 1.8 6.3 2.2 7.5 3 8.7 3.3 9.8 4.2 10.7 5 12.3 5.5 13.2 6.5 14.5 7.5 16 8.3 17-162.3 60-5-27.5-6-27.2-3-11.8-2.5-10.5-2.7-9.5-2.5-8.7-2.8-8-2.7-7.3-3-6.7-3.3-6.3-3.2-6-4-6-4-5.7-4.8-6-5-6-5.7-6.3-36.8-40.2-14.5-16-6.2-7-5.8-7-5-6.3-4.5-6.2-4-5.8-3.5-5.7-2.7-5.5-2.5-5.5-2-5.3-1.5-5.7-.3-2.3-.2-3.2-.5-7.5v-9l.2-10 .5-18.8.3-13.7v-4.8l-.3-5.5-.7-6.5-1-7.2-1.3-8-1.7-8.8-2.3-9.2-3-9.8-.5-2.5-.5-2.2-.2-2v-3.8l.5-1.5.5-1.5.5-1.5.7-1 1-1.2 1-1 1-.8 2.5-1.5 2.8-1 3-.7 3-.3 3-.2h2.7l5 .2 3.3.5 2 .5 2.2.8 2 .7 1.8 1 2.7 1.8 2.3 1.7 2 2.3 1.7 2.2 1.5 2.5 1.3 2.5 1 2.5.7 2.5 2.5 13.8 2.5 13.7 3 14 1.5 7 1.8 6.8 1.2 3.7 1.5 3.5 1.5 3.5 2 3.3 2 2.7 2 3 4 4.8 4 4.2 3.5 3 4 3.3 1.5 1.2 1.3 1 1.5.8 1.2.5 3 1 3 .2 3-.2 3.3-.8 2.7-1.2 3-1.8 2.5-2.2 2.5-2.8 2.3-3 1.7-3.7 1.5-4 1-4.5.5-4.8v-5.2l-2.5-31.5.8-1 33.7 19.7 1 .3 1 .5 1 .2 1-.2 1.3-.3 1-.5 1-.5 1-1 .7-1 .5-1.2.5-1.3.3-1.2v-1l-.3-1.3-.5-1-.5-.7-1-.8-.5-.7-47-33.3 1-1.7v-2.3l-.5-2.5-1-2.5-1.2-2.7-1.5-2.8-1.8-2.7-3.7-5.5-4-5.3-4-4.7-3.5-4.3z" fill="#ffeec8"/><path d="m221.3 145.8-2.3.5-2 1-2.2.5-2.3.2h-2.5l-5-.2-4.5-.8-3.7-.7-3.3-1.3-3.2-1.7-3.3-2-2.7-2-3-2.5-2.5-2.5-2.5-2.8-1.8-2.2-1.5-3-1.5-3.3-1.5-4-3.2-7.7-1.8-3.5-2-3.3-1.2-1.5-1.5-1.5-1.5-1.2-1.8-.8-2-.7-2-.8-2-.5-2.2-.2-4.8-.5h-4.7l-10 .5 6.2-1.5 6.8-1.3 6.5-.7 6.5-.5 6.5-.3 6.2.3 6 .7 2.8.8 3 .7-.5 1.3 1 5 1.2 4.7 1.5 5 1 2.3 1 2.5 3.8 6.2 2 3.3 2.2 3 2.5 2.5 2.5 2.5 3 2.2 3 1.8 3.8 1.7 4.2 1.8 2.3.5 2 .5 2.2.2h2z" fill="#cc82b7"/><path d="m220.5 142.5h-2l-2.2-.2-2-.5-2.3-.5-4.2-1.8-3.8-1.7-3-1.8-3-2.2-2.5-2.5-2.5-2.5-2.2-3-2-3.3-3.8-6.2-1-2.5-1-2.3-1.5-5-1.2-4.7-1-5 .5-1.3 4.2 1.5 4.3 2 3 1.8 2.7 2 2.8 2 2.7 2.2 2.5 2.5 2.3 2.5 2.2 2.8 2 2.7 2 3 1.8 3 1.7 3 1.5 3.3 2.8 6.2zm-106.2-37.5 3-.2 3-.3h3l3 .5 2.7.5 3 .8 2.8.7 2.7 1 2.8 1.3 2.5 1.2 2.2 1.5 2 1.5 2 1.5 1.8 1.5 1.5 1.8 1.2 1.5 2 3 1.8 3 3.2 6.2 1.8 3 1.7 3 2 2.8 2.5 2.7 2.8 2.5 2.7 2.3 3 2.2 3.3 1.8 3.2 1.5 3.3 1.2 3.5 1 3.7.8 4.8.7 5.2.5 2.8.3 2.5-.3 2.2-.5 2-1 3.8.3-1.5 2-1.5 2-.8 1.2-1 1.5-2.2 1-3.3 1-3.5 1-4.2.8-4 .5-3.8.2-3.5.3-2.5-.3-3.7-.7-3.3-.8-3.5-1-3.2-1.2-3-1.5-3-1.8-2.8-2.2-2.5-2.3-2.5-2.7-2-3-2-2.8-1.5-3-3.2-6.2-1.8-3-2-3-2.2-3-2.3-2.5-2.7-2.5-2.8-2-3.2-1.8-3.5-1.5-3.5-1-4-.7-4.5-1.8-1.8-.5-2.5-.2-2.7-.5-2.8-.8-2.5-1-1-.5-.7-.7-.5-.8-.3-1v-1.2l.3-1.3.7-.7 1-1 1-.8 1.5-.7 3.5-1.5 3.5-1.3z" fill="#cc82b7"/><path d="m212.5 163.5-2.2 4-1.5 4-3.8 2-4 2-4 1.8-4.2 1.5-4.3 1-4.5.7h-4.2l-2.3-.2-2-.5-3-.8-2.7-1-2.8-1.5-2.7-1.7-2.5-1.8-2.5-2-2.5-2.2-2.3-2.3-2-2.5-2-2.5-1.7-2.7-1.8-2.5-1.5-2.8-1.2-2.5-1-2.7-.8-2.5-1-3.3-1.2-3.7-1.5-3.8-2-3.7-1.3-2-1.5-1.8-1.5-1.7-1.7-1.8-2-1.7-2.3-1.5-2.5-1.5-2.7-1.5 4 .7 3.5 1 3.5 1.5 3.2 1.8 2.8 2 2.7 2.5 2.3 2.5 2.2 3 2 3 1.8 3 3.2 6.2 1.5 3 2 2.8 2 3 2.5 2.7 2.5 2.3 2.8 2.2 3 1.8 3 1.5 3.2 1.2 3.5 1 3.3.8 3.7.7 2.5.3 3.5-.3 3.8-.2 4-.5 4.2-.8 3.5-1 3.3-1z" fill="#cc82b7"/><g fill="none" stroke="#231f20" stroke-linecap="round" stroke-miterlimit="10"><path d="m663.8 402.3-5.3-8-12.7-19-8-11.5-8.3-11.8-8.2-11.2-7.8-9.5-3.5-4-3.2-3.3-2.8-2.2-2-1.5-3.5-1.5-3-1-2.5-.5h-2.2l-2 .5-2 1-1.8 1.7-2 2.3" stroke-width="14"/><path d="m615.5 331.3.3-1.8.5-1.7 1-1.5 1.5-1.8 1.7-1.2 2-1.3 2.3-1.2 2.5-.8 2.5-.7 2.7-.3h2.8l2.7.3 2.5.7 2.8 1 2.5 1.5 2.2 1.8 4 4.5 4.5 5.2 4.8 6 5.2 6.8 5 7 5.3 7.5 10.2 15.2 9.3 15 4.2 7 3.8 6.5 3 6 2.5 5 1.7 4.3 1 3-21.2 140 .2 1.7 1 5.8 2.5 9.7 1.8 6.3 2.2 7.5 3 8.7 3.3 9.8 4.2 10.7 5 12.3 5.5 13.2 6.5 14.5 7.5 16 8.3 17 2.5 4.8m-164.8 55.2-5-27.5-6-27.2-3-11.8-2.5-10.5-2.7-9.5-2.5-8.7-2.8-8-2.7-7.3-3-6.7-3.3-6.3-3.2-6-4-6-4-5.7-4.8-6-5-6-5.7-6.3-36.8-40.2-14.5-16-6.2-7-5.8-7-5-6.3-4.5-6.2-4-5.8-3.5-5.7-2.7-5.5-2.5-5.5-2-5.3-1.5-5.7-.3-2.3-.2-3.2-.5-7.5v-9l.2-10 .5-18.8.3-13.7v-4.8l-.3-5.5-.7-6.5-1-7.2-1.3-8-1.7-8.8-2.3-9.2-3-9.8-.5-2.5-.5-2.2-.2-2v-3.8l.5-1.5.5-1.5.5-1.5.7-1 1-1.2 1-1 1-.8 2.5-1.5 2.8-1 3-.7 3-.3 3-.2h2.7l5 .2 3.3.5 2 .5 2.2.8 2 .7 1.8 1 2.7 1.8 2.3 1.7 2 2.3 1.7 2.2 1.5 2.5 1.3 2.5 1 2.5.7 2.5 2.5 13.8 2.5 13.7 3 14 1.5 7 1.8 6.8 1.2 3.7 1.5 3.5 1.5 3.5 2 3.3 2 2.7 2 3 4 4.8 4 4.2 3.5 3 4 3.3 1.5 1.2 1.3 1 1.5.8 1.2.5 3 1 3 .2 3-.2 3.3-.8 2.7-1.2 3-1.8 2.5-2.2 2.5-2.8 2.3-3 1.7-3.7 1.5-4 1-4.5.5-4.8v-5.2l-2.5-31.5m73 4.5-11.5-21.3-11.7-21-13-23-9-15.7-8.3-13.3-3.5-5.5-3.2-4.5-2.5-3.5-2-2-1.3-.7-1.5-1-4.5-2-5.7-2.3-6.8-2.2-16-5.3-17.5-5-17-4.7-14.7-4-14-3.8-7-1.5-6.3-1.2-5-.8h-2l-2 .3-1.5.5-1.5.5-1.2 1-1.3 1.2-.7 1.3-.8 1.7-.5 2.3-.5 2.2v2.5l.3 2.5.5 2.5.7 2.5 1.5 2.3 1.5 2.2 2.3 2.5 2.5 2.3 2.7 2.2 3.5 2.3 3.8 2 4.2 2.2 4.8 2.3 5.2 2.2 5.8 2.3 6 2.2 12 4 9.5 3.8 7.7 3.5 6 3 4.8 3 3.5 2.7 2.5 2.8 2.2 2.7 2.3 3 3.5 4.3 4 4.7 4 5.3 3.7 5.5 1.8 2.7 1.5 2.8 1.2 2.7 1 2.5.5 2.5v2.3m-328.2-185.3-3.8 2-4 2-4 1.8-4.2 1.5-4.3 1-4.5.7h-4.2l-2.3-.2-2-.5-3-.8-2.7-1-2.8-1.5-2.7-1.7-2.5-1.8-2.5-2-2.5-2.2-2.3-2.3-2-2.5-2-2.5-1.7-2.7-1.8-2.5-1.5-2.8-1.2-2.5-1-2.7-.8-2.5-1-3.3-1.2-3.7-1.5-3.8-2-3.7-1.3-2-1.5-1.8-1.5-1.7-1.7-1.8-2-1.7-2.3-1.5-2.5-1.5-2.7-1.5-4.5-1.8-1.8-.5-2.5-.2-2.7-.5-2.8-.8-2.5-1-1-.5-.7-.7-.5-.8-.3-1v-1.2l.3-1.3.7-.7 1-1 1-.8 1.5-.7 3.5-1.5 3.5-1.3 8.3-2.2 7.5-2 6.2-1.5 6.8-1.3 6.5-.7 6.5-.5 6.5-.3 6.2.3 6 .7 2.8.8 3 .7 4.2 1.5 4.3 2 3 1.8 2.7 2 2.8 2 2.7 2.2 2.5 2.5 2.3 2.5 2.2 2.8 2 2.7 2 3 1.8 3 1.7 3 1.5 3.3 2.8 6.2 2.2 6.5.8 3.3 1.2 6 .3 1.5" stroke-width="14"/><path d="m229.5 150.3-.7-.3-.8-.2-1.7.2-1.8.5-2 1.3-2.7 2.2-2.5 2.8-1.5 2-1.5 2-.8 1.2-1.5 3-1.2 2.8-.8 2.5-.5 2.5-.2 2 .2 1.7.5 1.5.5.5.5.5 69.5 52 9 5.3 169.5 99 82.8 48.5 33.7 19.7" stroke-width="14"/><path d="m209.3 181.8-.8-.5-.5-1-.2-1-.3-1.3v-1.5l.3-1.5 1-3.5 1.5-4 2.2-4 1-1.5 2.3-2.7 2.2-2.5 2.5-2 2.3-1.5 1.5-.5 1.2-.3h1.3l1 .5 76.2 41.3 8.3 5.7 223.7 158.5 47 33.3m.5.7 1 .8.5.7.5 1 .3 1.3v1l-.3 1.2-.5 1.3-.5 1.2-.7 1-1 1-1 .5-1 .5-1.3.3-1 .2-1-.2-1-.5" stroke-width="14"/><path d="m289.8 236.3h-.3l-.7-.8-.5-.7-.5-1-.5-1-.3-2.8.3-3 .5-3.2 1.2-3.5 1.8-3.8 2.2-4 2.5-3.5 2.5-3 2.8-2.5 2.5-2 2.5-1.2 2.5-.8 1-.2 1.2.2h1l.8.5.2.3" stroke-width="14"/><path d="m116.3 117.8h5l4 .7 3.5 1 3.5 1.5 3.2 1.8 2.8 2 2.7 2.5 2.3 2.5 2.2 3 2 3 1.8 3 3.2 6.2 1.5 3 2 2.8 2 3 2.5 2.7 2.5 2.3 2.8 2.2 3 1.8 3 1.5 3.2 1.2 3.5 1 3.3.8 3.7.7 2.5.3 3.5-.3 3.8-.2 4-.5 4.2-.8 3.5-1 3.3-1 2.2-1" stroke-width="6.75"/><path d="m111 106 3.3-1 3-.2 3-.3h3l3 .5 2.7.5 3 .8 2.8.7 2.7 1 2.8 1.3 2.5 1.2 2.2 1.5 2 1.5 2 1.5 1.8 1.5 1.5 1.8 1.2 1.5 2 3 1.8 3 3.2 6.2 1.8 3 1.7 3 2 2.8 2.5 2.7 2.8 2.5 2.7 2.3 3 2.2 3.3 1.8 3.2 1.5 3.3 1.2 3.5 1 3.7.8 4.8.7 5.2.5 2.8.3 2.5-.3 2.2-.5 2-1" stroke-width="6.75"/><path d="m129.3 97.3 10-.5h4.7l4.8.5 2.2.2 2 .5 2 .8 2 .7 1.8.8 1.5 1.2 1.5 1.5 1.2 1.5 2 3.3 1.8 3.5 3.2 7.7 1.5 4 1.5 3.3 1.5 3 1.8 2.2 2.5 2.8 2.5 2.5 3 2.5 2.7 2 3.3 2 3.2 1.7 3.3 1.3 3.7.7 4.5.8 5 .2h2.5l2.3-.2 2.2-.5 2-1" stroke-width="6.75"/><path d="m179.3 96.8 1 5 1.2 4.7 1.5 5 1 2.3 1 2.5 3.8 6.2 2 3.3 2.2 3 2.5 2.5 2.5 2.5 3 2.2 3 1.8 3.8 1.7 4.2 1.8 2.3.5 2 .5 2.2.2h2l1.5-.2" stroke-width="6.75"/></g></svg>