<svg height="850.394" viewBox="0 0 850.394 850.394" width="850.394" xmlns="http://www.w3.org/2000/svg"><g fill="#33a02c"><path d="m601.4 640.39 1.3 7.15c9.22-1.29 22.51 4.96 30.939 8.93 15.58 7.44 28.28 19.24 36.61 34.12 8.33 15.08 8.33 30.95 13.9 46.82 6.439 18.16 35.409 44.25 65.069 42.96l.59 5.75c-8.329.8-17.76.399-22.02.5-4.26.1-8.73 0-13.19-.101-.1 0-.1 0-.199-.1-22.42-4.96-46.931-9.62-53.37-27.77-5.561-15.881-4.17-41.08-9.33-51.4-7.54-15.27-17.851-29.86-33.431-37.3-9.029-4.26-22.319-9.92-31.449-7.34l-4.07-.101c.11-3.77.3-7.439.79-11 5.461-1.888 11.811-5.758 17.861-11.118z"/><path d="m605.67 636.63c9.13-2.59 38.4.89 47.42 5.15 15.57 7.439 28.28 16.069 36.61 30.95 8.33 15.079 8.33 30.96 13.89 46.729 5.65 15.97 16.46 29.76 34.12 36.31 1.99 1.78 4.17 3.471 6.45 5.061 5.25 3.77 28.87 10.22 20.24 20.729-2.28 2.78-8.141 3.971-14.591 4.561l-.59-5.75c-29.66 1.29-58.63-24.8-65.069-42.96-5.57-15.87-5.57-31.74-13.9-46.82-8.33-14.88-21.03-26.68-36.61-34.12-8.43-3.97-21.72-10.22-30.939-8.93l-1.3-7.15c.6-.6 1.189-1.09 1.79-1.68.799-.7 1.689-1.4 2.479-2.08z"/><path d="m586.82 662.61c9.13-2.58 22.42 3.08 31.449 7.34 15.58 7.439 25.891 22.03 33.431 37.3 5.16 10.32 3.77 35.52 9.33 51.4 6.439 18.149 30.95 22.81 53.37 27.77-30.25-.79-62.601-6.15-85.32-20.33l1.189-1.99c.7-11.81 2.29-23.109-.59-35.31-3.88-16.67-8.93-33.74-21.83-45.15-6.64-5.85-16.369-13.88-25.199-15.37 0-1.989 0-3.869.1-5.76z"/><path d="m582.65 668.27c8.83 1.49 18.56 9.521 25.199 15.37 12.9 11.41 17.95 28.48 21.83 45.15 2.88 12.2 1.29 23.5.59 35.31l-1.189 1.99c-4.66-2.88-8.83-6.06-12.6-9.729-23.31-22.611-33.53-56.651-33.83-88.091z"/></g><path d="m455.18 528.98c6.34 6.75 22.61 2.18 38.29-11.9 15.771-14.28 22.71-31.25 16.471-38.19l12.79 13.091 92.469 119.239c4.359 4.87-1 16.87-12.01 27.49-6.851 5.65-13.891 9.22-19.44 10.21-3.67.7-6.75.2-8.44-1.689l-108.92-104.561z" fill="#c8c8c8"/><path d="m605.67 636.63c4.17-3.78 7.64-7.74 10.12-11.51 18.85-4.87 41.57-8.33 59.72 1.479 24.01 13 39.181 48.61 39.29 72.221 0 16.08.29 37.899 22.91 56.949-17.66-6.55-28.47-20.34-34.12-36.31-5.56-15.77-5.56-31.65-13.89-46.729-8.33-14.881-21.04-23.511-36.61-30.95-9.02-4.26-38.29-7.74-47.42-5.15z" fill="#33a02c"/><path d="m509.94 478.89c6.239 6.94-.7 23.91-16.471 38.19-15.68 14.08-31.95 18.65-38.29 11.9-.109-.091-.109-.091-.199-.19l-364.68-447.02-.6-1.39c-3.47-3.87-2.38-10.42 2.38-14.68h16.07z" fill="#f73900"/><g fill="none" stroke="#000"><path d="m714.4 786.42c-30.25-.79-62.601-6.15-85.32-20.33-4.66-2.88-8.83-6.06-12.6-9.729-23.311-22.61-33.53-56.65-33.83-88.091 0-1.989 0-3.869.1-5.76.11-3.77.3-7.439.79-11 0-.899.1-1.8.21-2.59m32.04-23.8c18.85-4.87 41.57-8.33 59.72 1.479 24.01 13 39.181 48.61 39.29 72.221 0 16.08.29 37.899 22.91 56.949 1.99 1.78 4.17 3.471 6.45 5.061 5.25 3.77 28.87 10.22 20.24 20.729-2.28 2.78-8.141 3.971-14.591 4.561-8.329.8-17.76.399-22.02.5-4.26.1-8.73 0-13.19-.101" stroke-width="19.654"/><g stroke-linecap="round" stroke-linejoin="round"><path d="m571.05 651c2.271 2.59 6.94 2.59 12.49.51 5.46-1.89 11.81-5.76 17.86-11.12.6-.6 1.189-1.09 1.79-1.68 11.01-10.62 16.369-22.62 12.01-27.49l-92.47-119.24-12.79-13.091-401.79-413.189m346.83 463.09-364.68-447.02" stroke-width="19.654"/><path d="m619.36 607.46c3.069 3.37 1.479 10.22-3.57 17.66-2.48 3.77-5.95 7.729-10.12 11.51-.79.68-1.68 1.38-2.479 2.08-6.851 5.65-13.891 9.22-19.44 10.21-3.67.7-6.75.2-8.44-1.689l-108.921-104.561-11.21-13.689m-365.48-448.601c-3.47-3.87-2.38-10.42 2.38-14.68 4.77-4.27 11.41-4.67 14.78-.9" stroke-width="19.654"/><path d="m509.94 478.89c6.239 6.94-.7 23.91-16.471 38.19-15.68 14.08-31.95 18.65-38.29 11.9-.109-.091-.109-.091-.199-.19" stroke-width="19.654"/><path d="m745.75 758.05c-2.78-.59-5.56-1.39-8.04-2.28-17.66-6.55-28.47-20.34-34.12-36.31-5.56-15.77-5.56-31.65-13.89-46.729-8.33-14.881-21.04-23.511-36.61-30.95-9.02-4.261-38.29-7.74-47.42-5.15" stroke-width="13.103"/><path d="m749.22 780.37c-29.66 1.29-58.63-24.8-65.069-42.96-5.57-15.87-5.57-31.74-13.9-46.82-8.33-14.88-21.03-26.68-36.61-34.12-8.43-3.97-21.72-10.22-30.939-8.93-.7.09-1.4.19-1.99.39" stroke-width="13.103"/><path d="m714.6 786.52c-.1 0-.1 0-.199-.1-22.42-4.96-46.931-9.62-53.37-27.77-5.561-15.881-4.17-41.08-9.33-51.4-7.54-15.27-17.851-29.86-33.431-37.3-9.029-4.26-22.319-9.92-31.449-7.34" stroke-width="13.103"/><path d="m630.27 764.1c.7-11.81 2.29-23.109-.59-35.31-3.88-16.67-8.93-33.74-21.83-45.15-6.64-5.85-16.369-13.88-25.199-15.37-.98-.3-1.98-.399-2.971-.399" stroke-width="13.103"/></g></g><path d="m0 0h850.394v850.394h-850.394z" fill="none"/></svg>