<svg height="850" viewBox="0 0 850 850" width="850" xmlns="http://www.w3.org/2000/svg"><path d="m220.5 503.8v27.2h-36v-27.2zm0 27.2v36.8h-36v-36.8zm-36 33.3v3.5h-35.7v-64h35.7v27.2zm158-147.5v31.7h-35.2v-31.7zm0-32v32h-35.2v-32zm-35.2 2v30h-36.3v-32h36.3zm0 30v31.7h-36.3v-31.7h3zm-86.8-32v32h-35.5v-32zm0 32v31.7h-35.5v-31.7zm-35.5-30v30h-36.2v-32h36.2zm0 30v31.7h-36.2v-31.7z" fill="#fff"/><path d="m331.5 202.5 7.8 5.5-.8-.2-1-.3h-1l-1.2.3-2.3.5-2.2 1.5-2.5 1.7-2.5 2.5-2.5 2.8-2.5 3.5-2 3.7-1.8 3.5-1.2 3.5-.5 3.3-.3 3 .3 2.5.5 1 .5 1 .5.7.7.5-8.7-5-66.8-50-1-1-.7-1.2v-4l.5-2.3.7-2.5 1.3-2.5 1.2-2.7 2.3-2.8 2.2-2.5 2.5-2 2-1.2 1.5-.5 1.3-.3h1.2l1 .5z" fill="#f6cc4b"/><path d="m600.8 393.8 1 .5.5 1 .5.7.2 1.3v1l-.2 1.2-.5 1.3-.5 1-.8 1-1 1-1 .7-1 .3-1 .2-1 .3-1.2-.3-.8-.5-1-.2-35.2-20.8-77-45-163-95.5h-.3l-.7-.5-.5-.7-.5-1-.5-1-.3-2.5.3-3 .5-3.3 1.2-3.5 1.8-3.5 2-3.7 2.5-3.5 2.5-2.8 2.5-2.5 2.5-1.7 2.2-1.5 2.3-.5 1.2-.3h1l1 .3.8.2 112 79.5 98.2 69.5 50.8 36z" fill="#f6cc4b"/><path d="m629.8 334.8h1.7l.3-1.8.5-1.7 1-1.5 1.5-1.5 1.7-1.5 1.8-1 2.2-1.3 2.5-.7 2.3-.5 2.7-.5h2.5l2.8.2 2.5.8 2.5 1 2.5 1.5 2 1.7 4 4.3 4.5 5 4.5 6 5 6.2 4.7 6.8 5.3 7.2 9.7 14.8 9 14.5 4 6.7 3.5 6.3 3 5.7 2.5 4.8 1.8 4 .7 3.2-20.2 134.8.2 1.7 1 5.8 2.3 9.5 2 6.5 2.2 7.5 2.8 8.5 3.5 9.7 4.2 10.8 5 12.2 5.5 13.3 6.8 14.5 7.2 15.7 8.5 17.3-158.5 53.2-5-26.7-5.7-26-2.8-11.3-2.5-10.2-2.5-9.3-2.5-8.2-2.7-7.8-2.8-7-2.7-6.5-3-6-3.5-6-3.5-5.5-4-5.7-4.5-5.8-5-5.7-5.5-6-35.3-38.8-14-15.2-6-7-5.5-6.5-5-6.3-4.2-6-4-5.5-3.3-5.5-2.7-5.2-2.3-5.3-2-5.2-1.2-5.5-.5-2.3-.3-3-.2-7.5-.3-8.5.3-9.5.5-18.2.5-13.3-.3-4.5-.2-5.2-.5-6.3-1-7-1.3-7.7-1.7-8.3-2.3-9-2.7-9.7-.8-2.3-.2-2-.3-2v-3.5l.5-1.7.3-1.3.7-1.2.8-1.3.7-1 2.3-1.7 2.2-1.5 2.8-1 2.7-.5 2.8-.5 3-.3h2.7l4.8.3 3 .5 2.2.5 2 .7 1.8.8 1.7.7 2.5 1.8 2.3 1.7 2 2.3 1.7 2.2 1.5 2.3 1.3 2.5 1 2.2.5 2.5 2.5 13.3 2.5 13.2 2.7 13.5 1.5 6.8 1.8 6.5 1.2 3.7 1.3 3.3 1.7 3.2 1.8 3.3 1.7 2.7 2 2.8 4 4.7 3.8 4 3.5 3 3.7 3 2.8 2 2.7 1.5 2.8.8 3 .5 2.7-.3 3-.7 2.8-1.3 2.7-1.7 2.8-2.3 2.2-2.5 2-3 1.8-3.5 1.5-4 1-4.2.5-4.8v-5l-5.3-31.7.8-1.3 35.2 20.8 1 .2.8.5 1.2.3 1-.3 1-.2 1-.3 1-.7 1-1 .8-1 .5-1 .5-1.3.2-1.2v-1l-.2-1.3-.5-.7-.5-1-1-.5-.5-.8-50.8-36 1.5-2.2v-2l-.5-2.3-.5-2.2-.7-2.3-1.3-2.5-1.2-2.2-2.8-4.5-3-4.3-3-4-2.7-3.5-2-2.7-2-2.8-2.5-2.5-3.5-2.7-4.5-2.8-5.8-3-7.5-3.2-9.2-3.5-11.3-4-10.2-3.8-8.8-3.7-4-2-3.5-1.8-3-2-2.7-1.7-3.3-2.5-2.5-2.5-2-2.5-1.7-2.5-1-2.5-.8-2.8-.2-2.5v-2.7l.5-2.5.5-1.8.5-1.7 1-1.5 1-1 1.2-1 1.3-.5 1.7-.5 1.8-.3h2l5 .8 5.7 1 7 1.7 13.5 3.5 14 3.8 16.3 4.7 17 4.8 15.5 5 6.5 2.2 5.5 2.3 4.2 2 1.5.7 1.3.8 2 2 2.5 3.5 3.2 4.5 3.8 5.7 8.2 13.8 9 15.7 2.5-1.2 2-2.3 1.8-2 2.2-1.2 2-1 2.5-.5 2.8.2 2.7.8 3.5 1.2 2.3 1.5 2.5 2.3 3 3z" fill="#ffeec8"/><path d="m342.5 497v116h-71.5v-116z" fill="#33a048"/><path d="m381 362.5v250.5h-38.5v-116h-71.5v116h-154v-268.2h262.8zm-38.5 86v-63.8h-71.5v63.8zm-122 119.3v-64.1h-71.8v64h35.8zm0-119.3v-63.8h-71.8v63.8zm14.5-300.2 3.8 1.7 4 1.5 2 .5 2.2.5 2 .3h1.8l1 3-2.3.7-2 .8-2 .5-2.2.2h-2.5l-4.8-.2-4.5-.8-3.2-.7-3.5-1.3-3-1.5-3-1.7-2.8-2.3-2.7-2.2-2.5-2.5-2.5-2.5-1.5-2.3-1.5-2.7-3-7-3-7.5-1.8-3.5-1.7-3.3-1.3-1.5-1.5-1.2-1.5-1-1.7-1-1.8-.8-2-.5-4.2-1-4.5-.2h-4.8l-9.5.5 6.3-1.5 6.2-1.3 6.3-.7 6.2-.5 6.3-.3 6 .3 5.7.7 3 .8 2.5.7-.2 1.3 1 4.7 1 4.8 1.5 4.5 1 2.2 1 2.5 3.5 6 2 3 2.2 2.8 2.3 2.7 2.5 2.5 2.7 2zm8.3 24.7-2.3 4-1.5 3.8-3.5 2-3.7 1.7-4 1.8-4 1.5-4.3 1-4.2.5h-4l-2.3-.3-2-.2-2.7-.8-2.8-1.2-2.7-1.3-2.5-1.5-2.5-1.7-2.3-2-2.5-2.3-2-2.2-2.2-2.3-1.8-2.5-1.7-2.5-1.5-2.5-1.5-2.7-1.3-2.5-1-2.3-.7-2.5-1-3.2-1-3.5-1.5-3.8-2-3.5-1.3-2-1.2-1.7-1.5-1.8-1.8-1.5-2-1.7-2-1.5-2.5-1.5-2.5-1.3 3.8.5 3.5 1 3.2 1.5 3 1.8 2.8 2 2.5 2.2 2.2 2.5 2.3 2.8 1.7 3 1.8 2.7 3 6 1.7 3 1.8 2.8 2 2.7 2.2 2.8 2.5 2.2 2.8 2 2.7 1.8 3 1.5 3.3 1 3 1 3.5.7 3.5.8 2.5.2h3.2l3.5-.5 4-.5 4-.7 3.5-.8 3-1z" fill="#ffffc2"/><path d="m252.8 161.8-2.5 2-2.5 2.7-3.5-.2-2 .7-2.3.5-2.2.3h-2.8l-5-.5-4.7-.8-3.3-.7-3.5-1-3.2-1.3-3.3-1.5-3-1.7-3-2-2.7-2-2.5-2.5-2.3-2.5-2-2.8-1.7-3-1.8-2.7-3-6-1.7-3-1.8-3-1.2-1.5-1.5-1.5-1.8-1.5-1.7-1.5-2-1.5-2.3-1.3-2.5-1.2-2.5-1.3-2.5-1-2.7-.7-2.8-.8-3-.5-2.7-.2-3-.3-2.8.3-2.7.5-.8-3.5 7.8-2.3 7.2-1.7 9.5-.5h4.8l4.5.2 4.2 1 2 .5 1.8.8 1.7 1 1.5 1 1.5 1.2 1.3 1.5 1.7 3.3 1.8 3.5 3 7.5 3 7 1.5 2.7 1.5 2.3 2.5 2.5 2.5 2.5 2.7 2.2 2.8 2.3 3 1.7 3 1.5 3.5 1.3 3.2.7 4.5.8 4.8.2h2.5l2.2-.2 2-.5 2-.8 2.3-.7z" fill="#ffffc2"/><path d="m250.8 152.8h-1.8l-2-.3-2.2-.5-2-.5-4-1.5-3.8-1.7-3-1.8-2.7-2-2.5-2.5-2.3-2.7-2.2-2.8-2-3-3.5-6-1-2.5-1-2.2-1.5-4.5-1-4.8-1-4.7.2-1.3 4.3 1.3 4 2 3 1.7 2.7 1.8 2.5 2.2 2.5 2 2.5 2.5 2.3 2.5 2.2 2.5 2 2.8 1.8 2.7 1.7 3 3.3 5.8 2.5 6.2zm-5.8 17.7-1 1.3-.7 1.2-2.3 1-3 1-3.5.8-4 .7-4 .5-3.5.5h-3.2l-2.5-.2-3.5-.8-3.5-.7-3-1-3.3-1-3-1.5-2.7-1.8-2.8-2-2.5-2.2-2.2-2.8-2-2.7-1.8-2.8-1.7-3-3-6-1.8-2.7-1.7-3-2.3-2.8-2.2-2.5-2.5-2.2-2.8-2-3-1.8-3.2-1.5-3.5-1-3.8-.5-4.5-1.7-1.7-.5-2.3-.3-2.7-.5-2.8-.7-2.2-.8-1-.7-.8-.5-.5-1-.2-.8v-1.2l.2-1.3.8-.7.7-.8 1.3-1 1.5-.7 3-1.3 3.7-1.2.8 3.5 2.7-.5 2.8-.3 3 .3 2.7.2 3 .5 2.8.8 2.7.7 2.5 1 2.5 1.3 2.5 1.2 2.3 1.3 2 1.5 1.7 1.5 1.8 1.5 1.5 1.5 1.2 1.5 1.8 3 1.7 3 3 6 1.8 2.7 1.7 3 2 2.8 2.3 2.5 2.5 2.5 2.7 2 3 2 3 1.7 3.3 1.5 3.2 1.3 3.5 1 3.3.7 4.7.8 5 .5h2.8l2.2-.3 2.3-.5 2-.7 3.5.2-1.5 2z" fill="#ffffc2"/><path d="m179.5 277.8 2.5 2.7-23 19h-13v-54.7h33.5z" fill="#bd2226"/><path d="m379.3 333.3.5 11.5h-264.8v-9.3l44-36 23-19 66.5-54.7z" fill="#bd2226"/><g fill="none" stroke="#231f20" stroke-linecap="round" stroke-miterlimit="10"><path d="m678 403-5-7.5-12.2-18.5-7.8-11.2-8-11.3-8-10.7-7.2-9-3.5-4-3-3-2.5-2.3-2.3-1.5-3.5-1.2-2.7-.8-2.8-.2-2.5.5-2 1-2.2 1.2-1.8 2-2 2.3" stroke-width="14"/><path d="m631.5 334.8.3-1.8.5-1.7 1-1.5 1.5-1.5 1.7-1.5 1.8-1 2.2-1.3 2.5-.7 2.3-.5 2.7-.5h2.5l2.8.2 2.5.8 2.5 1 2.5 1.5 2 1.7 4 4.3 4.5 5 4.5 6 5 6.2 4.7 6.8 5.3 7.2 9.7 14.8 9 14.5 4 6.7 3.5 6.3 3 5.7 2.5 4.8 1.8 4 .7 3.2-20.2 134.8.2 1.7 1 5.8 2.3 9.5 2 6.5 2.2 7.5 2.8 8.5 3.5 9.7 4.2 10.8 5 12.2 5.5 13.3 6.8 14.5 7.2 15.7 8.5 17.3m-158.5 53.2-5-26.7-5.7-26-2.8-11.3-2.5-10.2-2.5-9.3-2.5-8.2-2.7-7.8-2.8-7-2.7-6.5-3-6-3.5-6-3.5-5.5-4-5.7-4.5-5.8-5-5.7-5.5-6-35.3-38.8-14-15.2-6-7-5.5-6.5-5-6.3-4.2-6-4-5.5-3.3-5.5-2.7-5.2-2.3-5.3-2-5.2-1.2-5.5-.5-2.3-.3-3-.2-7.5-.3-8.5.3-9.5.5-18.2.5-13.3-.3-4.5-.2-5.2-.5-6.3-1-7-1.3-7.7-1.7-8.3-2.3-9-2.7-9.7-.8-2.3-.2-2-.3-2v-3.5l.5-1.7.3-1.3.7-1.2.8-1.3.7-1 2.3-1.7 2.2-1.5 2.8-1 2.7-.5 2.8-.5 3-.3h2.7l4.8.3 3 .5 2.2.5 2 .7 1.8.8 1.7.7 2.5 1.8 2.3 1.7 2 2.3 1.7 2.2 1.5 2.3 1.3 2.5 1 2.2.5 2.5 2.5 13.3 2.5 13.2 2.7 13.5 1.5 6.8 1.8 6.5 1.2 3.7 1.3 3.3 1.7 3.2 1.8 3.3 1.7 2.7 2 2.8 4 4.7 3.8 4 3.5 3 3.7 3 2.8 2 2.7 1.5 2.8.8 3 .5 2.7-.3 3-.7 2.8-1.3 2.7-1.7 2.8-2.3 2.2-2.5 2-3 1.8-3.5 1.5-4 1-4.2.5-4.8v-5l-5.3-31.7m73 5.7-10.5-19.5-10.7-19.5-12.3-21.5-9-15.7-8.2-13.8-3.8-5.7-3.2-4.5-2.5-3.5-2-2-1.3-.8-1.5-.7-4.2-2-5.5-2.3-6.5-2.2-15.5-5-17-4.8-16.3-4.7-14-3.8-13.5-3.5-7-1.7-5.7-1-5-.8h-2l-1.8.3-1.7.5-1.3.5-1.2 1-1 1-1 1.5-.5 1.7-.5 1.8-.5 2.5v2.7l.2 2.5.8 2.8 1 2.5 1.7 2.5 2 2.5 2.5 2.5 3.3 2.5 2.7 1.7 3 2 3.5 1.8 4 2 8.8 3.7 10.2 3.8 11.3 4 9.2 3.5 7.5 3.2 5.8 3 4.5 2.8 3.5 2.7 2.5 2.5 2 2.8 2 2.7 2.7 3.5 3 4 3 4.3 2.8 4.5 1.2 2.2 1.3 2.5.7 2.3.5 2.2.5 2.3v2m-311.5-174-3.5 2-3.7 1.7-4 1.8-4 1.5-4.3 1-4.2.5h-4l-2.3-.3-2-.2-2.7-.8-2.8-1.2-2.7-1.3-2.5-1.5-2.5-1.7-2.3-2-2.5-2.3-2-2.2-2.2-2.3-1.8-2.5-1.7-2.5-1.5-2.5-1.5-2.7-1.3-2.5-1-2.3-.7-2.5-1-3.2-1-3.5-1.5-3.8-2-3.5-1.3-2-1.2-1.7-1.5-1.8-1.8-1.5-2-1.7-2-1.5-2.5-1.5-2.5-1.3-4.5-1.7-1.7-.5-2.3-.3-2.7-.5-2.8-.7-2.2-.8-1-.7-.8-.5-.5-1-.2-.8v-1.2l.2-1.3.8-.7.7-.8 1.3-1 1.5-.7 3-1.3 3.7-1.2 7.8-2.3 7.2-1.7 6.3-1.5 6.2-1.3 6.3-.7 6.2-.5 6.3-.3 6 .3 5.7.7 3 .8 2.5.7 4.3 1.3 4 2 3 1.7 2.7 1.8 2.5 2.2 2.5 2 2.5 2.5 2.3 2.5 2.2 2.5 2 2.8 1.8 2.7 1.7 3 3.3 5.8 2.5 6.2 2 6.3 1 3 1 6 .2 1.5m64.8 79.7 163 95.5 77 45 35.2 20.8" stroke-width="14"/><path d="m259.5 160.3-.5-.3-.7-.2-1.8.2-1.7.5-2 1.3-2.5 2-2.5 2.7-1.5 2-1.3 2-1 1.3-1.2 2.7-1.3 2.5-.7 2.5-.5 2.3v4l.7 1.2 1 1 66.8 50 8.7 5m21.8-35 112 79.5 98.2 69.5 50.8 36" stroke-width="14"/><path d="m240.3 190.5-.8-.5-.5-.7-.2-1.3-.3-1v-1.5l.3-1.5.7-3.2 1.5-3.8 2.3-4 .7-1.2 2.3-2.8 2.2-2.5 2.5-2 2-1.2 1.5-.5 1.3-.3h1.2l1 .5 73.5 39.5 7.8 5.5m261.5 185.8 1 .5.5 1 .5.7.2 1.3v1l-.2 1.2-.5 1.3-.5 1-.8 1-1 1-1 .7-1 .3-1 .2-1 .3-1.2-.3-.8-.5" stroke-width="14"/><path d="m317.8 243h-.3l-.7-.5-.5-.7-.5-1-.5-1-.3-2.5.3-3 .5-3.3 1.2-3.5 1.8-3.5 2-3.7 2.5-3.5 2.5-2.8 2.5-2.5 2.5-1.7 2.2-1.5 2.3-.5 1.2-.3h1l1 .3.8.2.2.3" stroke-width="14"/><path d="m150.5 129 2.5-.2 2.5.2 3.8.5 3.5 1 3.2 1.5 3 1.8 2.8 2 2.5 2.2 2.2 2.5 2.3 2.8 1.7 3 1.8 2.7 3 6 1.7 3 1.8 2.8 2 2.7 2.2 2.8 2.5 2.2 2.8 2 2.7 1.8 3 1.5 3.3 1 3 1 3.5.7 3.5.8 2.5.2h3.2l3.5-.5 4-.5 4-.7 3.5-.8 3-1 2.3-1" stroke-width="6.5"/><path d="m145.5 117.5 3.3-.7 2.7-.5 2.8-.3 3 .3 2.7.2 3 .5 2.8.8 2.7.7 2.5 1 2.5 1.3 2.5 1.2 2.3 1.3 2 1.5 1.7 1.5 1.8 1.5 1.5 1.5 1.2 1.5 1.8 3 1.7 3 3 6 1.8 2.7 1.7 3 2 2.8 2.3 2.5 2.5 2.5 2.7 2 3 2 3 1.7 3.3 1.5 3.2 1.3 3.5 1 3.3.7 4.7.8 5 .5h2.8l2.2-.3 2.3-.5 2-.7" stroke-width="6.5"/><path d="m163 109.3 9.5-.5h4.8l4.5.2 4.2 1 2 .5 1.8.8 1.7 1 1.5 1 1.5 1.2 1.3 1.5 1.7 3.3 1.8 3.5 3 7.5 3 7 1.5 2.7 1.5 2.3 2.5 2.5 2.5 2.5 2.7 2.2 2.8 2.3 3 1.7 3 1.5 3.5 1.3 3.2.7 4.5.8 4.8.2h2.5l2.2-.2 2-.5 2-.8" stroke-width="6.5"/><path d="m211.3 108.8 1 4.7 1 4.8 1.5 4.5 1 2.2 1 2.5 3.5 6 2 3 2.2 2.8 2.3 2.7 2.5 2.5 2.7 2 3 1.8 3.8 1.7 4 1.5 2 .5 2.2.5 2 .3h1.8l1.7-.3" stroke-width="6.5"/><path d="m271 613h-154v-268.2h264v268.2h-38.5" stroke-width="14"/><path d="m220.5 416.8v31.7h-71.7v-63.7h71.7zm0 114.2v36.8h-71.7v-64h71.7zm122 82h-71.5v-116h71.5zm0-196.2v31.7h-71.5v-63.7h71.5z" stroke-width="14"/><path d="m399.5 350-20.2-16.7-130.8-107.5-66.5 54.7-23 19-44 36-16.2 13.5" stroke-width="21"/><path d="m159 299.5h-13v-54.7h33.5v33" stroke-width="21"/><path d="m184.5 504.8v59.5m0-33.3h36m-71.7-114.2h71.7m-35.5-30v61.7m122.3-61.7v61.7m-33.3-31.7h68.5" stroke-width="7"/></g></svg>