<svg height="850" viewBox="0 0 850 850" width="850" xmlns="http://www.w3.org/2000/svg"><path d="m337.8 409 .7 33-89.2-.2-4.5-8.8 5-3 5.7-3 7.8-3.7 9-4 5-1.8 5.2-1.7 5.3-1.8 5.7-1.2 5.8-1.3 5.7-.7 8.5-.8 8.3-.7 8-.5 8-.3z" fill="#fff"/><path d="m337.8 408.5h6.7l6.3.3 6.2.5 6 .7 5.5 1 5.3 1.3 4.7 1.7 4.3 2 6.7 3.5 7.5 4.3 15 8.5 16.3 9.7h-89.8l-.7-33zm137.2-215 1 32.8h-89.2l-4.5-8.8 5-3 5.7-3 7.5-3.7 9-4 5-1.8 5.3-1.7 5.5-1.8 5.5-1.2 5.7-1.3 6-.7 8.3-.8 8.2-.7 8.3-.5 7.7-.3z" fill="#fff"/><path d="m475 193h6.8l6.5.3 6.2.5 5.8.7 5.7 1 5 1.3 4.8 1.7 4.5 1.8 6.7 3.7 7.5 4 14.8 8.8 16.2 9.7-89.5-.2-1-32.8z" fill="#fff"/><path d="m521.5 502v2.8l-.2 2.7-.8 2.5-.7 2.5-1 2.3-1.5 2.2-1.5 2.3-1.5 2-2 1.7-2 1.5-2.3 1.5-2.2 1.3-2.5 1-2.5.5-2.8.5-2.7.2h-2.8l-2.5-.2-2.7-.8-2.5-.7-2.3-1-2.2-1.5-2.3-1.5-1.7-1.5-2-2-1.5-2-1.5-2.3-1-2.2-1-2.5-.8-2.5-.5-2.8-.2-2.7v-2.8l.5-2.5.5-2.7.7-2.5 1.3-2.3 1.2-2.2 1.5-2.3 1.8-2 1.7-1.7 2-1.5 2.3-1.5 2.2-1 2.5-1 2.5-.8 2.8-.5 2.7-.2h2.8l2.7.5 2.5.5 2.5.7 2.5 1.3 2.3 1.2 2 1.5 2 1.8 1.7 1.7 1.5 2 1.5 2.3 1.3 2.2 1 2.5.7 2.5.3 2.8zm137.5-215.5v2.8l-.5 2.5-.5 2.7-1 2.5-1 2.3-1.2 2.2-1.5 2.3-1.8 2-1.7 1.7-2 1.5-2.3 1.5-2.2 1-2.5 1-2.5.8-2.8.5-2.7.2h-2.8l-2.7-.5-2.5-.5-2.5-.7-2.5-1.3-2.3-1.2-2-1.5-2-1.8-1.7-1.7-1.5-2-1.5-2.3-1.3-2.2-1-2.5-.7-2.5-.3-2.8-.2-2.7v-2.8l.2-2.5.8-2.7.7-2.5 1-2.3 1.5-2.2 1.5-2.3 1.5-2 2-1.7 2-1.5 2.3-1.5 2.2-1.3 2.5-1 2.5-.5 2.8-.5 2.7-.2h2.8l2.5.2 2.7.8 2.5.7 2.3 1.3 2.2 1.2 2.3 1.5 1.7 1.5 2 2 1.5 2 1.5 2.3 1 2.2 1 2.5.8 2.5.5 2.8z" fill="#7a7878"/><path d="m338.5 442h89.8l-16.3-9.8-15-8.5-7.5-4.3-6.8-3.5-4.3-2-4.8-1.8-5.3-1.3-5.5-1-6-.8-6.3-.5-6.3-.3h-6.8l-8 .3-8 .5-8.3.8-8.5.8-5.8.8-5.8 1.3-5.8 1.3-5.3 1.8-5.3 1.8-5 1.8-9 4-7.7 3.8-5.8 3-5 3 4.5 8.8zm119.5 64.5 1.5.3-.3 2.5-44 1-14.8.3h-60.3l-58.5-.8v-1.8l-.3-.8-.3-.3-.3-1.3h-.5l-1.5-6-1-3.3-1.3-3-1.3-3-1.8-3-1.3-2.3-2-2.3-3.5-3-3.8-2.8-2-1.3-2.3-1-2.5-1-2.2-.8-2.8-.5-2.8-.3-3-.3-3 .3-3.3.3-3.5.8-3.5 1-3.8 1.3-2.5 1.3-2.3 1.3-2 1.5-1.8 1.8-1.8 2-1.3 2-1.3 2-1 2-.8 2.3-.8 2-1 4.5-.8 4-.3 3.5v.3l-32.3-3-2.5-9.3-2.3-8.3-2.5-7.5-.5-2.3-.3-2.3.3-2.3.5-1.8.5-1.8 1-1.5 1.8-2.5 1.3-11 1-10.5v-1.8l-.3-1.8-1-3.3v-1.5l.3-.5.3-.5.5-.5.8-.3 1-.3 1.3-.3 3.5-.3 5-.5 11.5-1.3 15-2.3 23.3-10.5 29.2-13.3 4.8-2 6-2.3 7.5-2.3 4.3-1.3 4.8-1.3 5-1 5.3-.8 5.8-1 6.3-.5 6.5-.5 7-.3 7.3.3 8 .3 10.5.8 9 1 7.3 1.3 6.3 1.3 5 1.5 4.3 1.5 3.5 1.8 3 1.5 5.8 3 14 7 17.5 9.3 8.8 5 7.8 4.5 12.3 1 12.5 1.3 14.8 1.5 15 2 7 1.3 6.8 1.3 5.8 1.3 4.8 1.3 3.8 1.5 1.5.5.8.8 1.5 1.5 1.3 1.5 1 1.5.8 1.5 1.3 3 .8 2.5.3 2.5.3 1.8-.3 1.5 1.3.5 1 1 1.3 1.3 1.3 1.5 1 2 .3 1.3.3 1.5.3 1.5-.3 1.5-.8 10.5-.3 8.5-.3 7.8-.8.5-2.3 1.3-1.8.5-2 .5-2.8.3-2.8.3h-4.8l.3-1v-1.3l1.8-.3v-2.8l-.3-3-.5-2.5-.5-2.5-.8-2.3-1-2-2.3-3.8-2-2.8-2-2.3-2-1.5-2-2.3-2.5-1.8-2.8-1.8-2.8-1.3-2.8-1.3-3-.8-3-.8-3.3-.3h-6.5l-3 .5-3 .8-3 1-2.8 1.3-2.8 1.5-2.4 2.4-2.5 2-2.3 2.3-1.8 2.3-1.8 2.3-1.5 2.3-1.3 2.3-1 2.3-1 2.3-1.3 4.5-.8 4.5-.3 4z" fill="#a9d7f3"/><path d="m477.8 294.8-58.8-.5v-2.5l-.3-.3-.3-1.3h-.8l-1.5-6-1-3.3-1-3-1.5-3-1.5-3-1.8-2.5-2.3-2.3-3.3-3-3.8-2.8-2.3-1.3-2.3-1-2.3-1-2.5-.8-2.5-.5-2.8-.3-3-.3-3 .3-3.3.3-3.5.8-3.5 1-3.8 1.3-2.8 1.3-2.3 1.3-2 1.5-1.8 1.8-1.5 2-1.5 1.8-1 2.3-1 2-1 2.3-.8 2-1 4.3-.5 4.3-.3 3.5-32.5-2.8-2.3-9.3-2.5-8.3-2.3-7.5-.8-2.5v-4.3l.5-1.8.8-1.8.8-1.8 2-2.5 1.3-11 1-10.3v-1.8l.4-1.5-.8-3.3v-1.5l.3-.5.3-.5.5-.5.8-.5h1l1-.3 3.8-.3 4.8-.5 11.8-1.5 14.8-2 23.3-10.5 29.3-13.3 4.8-2 6.3-2.3 7.5-2.5 4.3-1 4.5-1.3 5-1 5.5-1 5.8-.8 6.3-.5 6.5-.5 7-.3h7.3l7.8.5 10.8.8 8.8 1 7.5 1.3 6.3 1.3 5 1.5 4 1.5 3.5 1.8 3.3 1.5 5.5 2.8 14.3 7.3 17.5 9.3 8.8 5 7.8 4.5 12 1 12.8 1.3 14.5 1.5 15 2 7.3 1.3 6.5 1.3 6 1.3 4.8 1.3 3.8 1.3 1.3.8 1 .8 1.5 1.5 1.3 1.5 1 1.5.8 1.5 1.3 3 .8 2.5.3 2.3v3.5l1 .5 1.3 1 1.3 1 1.3 1.8 1 2 .3 1.3.3 1.5v3l-.8 10.3-.5 8.8v7.8l-.8.5-2.3 1-1.8.8-3.9-.2-2.5.3-3 .3h-4.5l.3-1.3v-1.3h1.8v-3l-.3-2.8-.5-2.5-.8-2.5-.8-2.3-1-2.3-2-3.5-2.3-3-1.8-2-2-1.8-2.3-2-2.5-2-2.5-1.5-2.8-1.3-3-1.3-3-.8-3-.8-3-.3-3.3-.3-3 .3-3.3.5-3 .8-2.8 1-3 1.3-2.8 1.5-2.5 1.8-2.3 2-2.3 2.3-2 2.3-1.8 2.3-1.3 2.3-1.3 2.3-1.3 2.3-.8 2.3-1.3 4.5-.8 4.5-.3 4v3.5l1.8.5-.5 2.3-43.8 1.3-13.8.1h-18.5l-41.7-.2zm-1.8-68.5 89.5.3-16.3-9.8-14.8-8.8-7.5-4-6.8-3.8-4.5-1.8-4.8-1.8-5-1.3-5.8-1-5.8-.8-6.3-.5-6.5-.3h-6.4l-7.8.3-8.3.5-8.3.8-8.3.8-6 .8-5.8 1.3-5.5 1.3-5.5 1.8-5.3 1.8-5 1.8-9 4-7.5 3.8-5.8 3-5 3 4.5 8.8h89.6z" fill="#ed1d31"/><path d="m406.8 291.5-.3 2.8-.2 2.5-.5 2.5-.8 2.5-1 2.5-1.2 2-1.3 2.2-1.5 2-1.7 1.8-1.8 1.5-2 1.2-2.2 1.3-2 1-2.5.7-2.3.5h-5l-2.5-.2-2.2-.8-2.5-.7-2-1-2-1.3-2-1.5-1.8-1.7-1.7-1.8-1.3-2-1.5-2.2-1-2.3-.7-2.5-.8-2.5-.5-2.5-.2-2.7.2-2.8.3-2.7.5-2.5.7-2.5 1-2.3 1.3-2.2 1.2-2 1.5-2 1.8-1.8 1.7-1.7 2-1.3 2-1.2 2.3-1 2.5-.5 2.2-.5 2.5-.3h2.5l2.5.5 2.3.5 2.2.8 2.3 1.2 2 1.3 2 1.5 1.7 1.5 1.8 2 1.2 2 1.3 2 1.2 2.2.8 2.5.7 2.5.5 2.8zm-137.5 215.5v2.8l-.5 2.5-.5 2.7-.8 2.3-1 2.5-1 2.2-1.5 2-1.5 2-1.5 1.8-2 1.5-2 1.5-2 1-2.2 1-2.3.7-2.5.5-2.5.3-2.5-.3-2.5-.2-2.2-.5-2.3-1-2.2-1-2-1.3-2-1.5-1.8-1.7-1.5-1.8-1.5-2-1.2-2.2-1.3-2.3-.7-2.5-.8-2.5-.2-2.5-.3-2.7v-2.8l.3-2.7.5-2.5.7-2.5 1-2.3 1.3-2.2 1.2-2 1.5-2 1.8-1.8 1.7-1.5 2-1.5 2.3-1.2 2.2-.8 2.3-.7 2.5-.5 2.5-.3h2.5l2.2.5 2.5.5 2.3.8 2 1.2 2.2 1.3 1.8 1.5 1.7 1.5 1.8 2 1.5 2 1.2 2 1 2.5 1 2.2.5 2.5.5 2.8z" fill="#7a7878"/><g fill="none" stroke="#231f20" stroke-linecap="round" stroke-miterlimit="10"><path d="m664.5 278.5v1.5l.3 1.8.2 1.7.3 1.5v1.3l-.3 1.2h4.5l3-.2 2.5-.3 2.3-.5 1.7-.7 2.3-1 .7-.5v-7.8l.5-8.7.8-10.3v-3l-.3-1.5-.2-1.2-1-2-1.3-1.8-1.2-1-1.3-1-1-.5v-3.5l-.2-2.2-.8-2.5-1.2-3-.8-1.5-1-1.5-1.2-1.5-1.5-1.5-1-.8-1.3-.7-3.7-1.3-4.8-1.2-6-1.3-6.5-1.2-7.2-1.3-15-2-14.5-1.5-12.8-1.2-12-1-7.7-4.5-8.8-5-17.5-9.3-14.2-7.2-5.5-2.8-3.3-1.5-3.5-1.7-4-1.5-5-1.5-6.2-1.3-7.5-1.2-8.8-1-10.7-.8-7.8-.5h-7.2l-7 .3-6.5.5-6.3.5-5.7.7-5.5 1-5 1-4.5 1.3-4.3 1-7.5 2.5-6.2 2.2-4.8 2-29.2 13.3-23.3 10.5-14.7 2-11.8 1.5-4.7.5-3.8.2-1 .3h-1l-.7.5-.5.5-.3.5-.2.5v1.5l.7 3.2.5 1.8v1.7l-1 10.3-1.2 11-.5 2.5" stroke-width="14"/><path d="m595.3 290.8v-3.5l.2-4 .8-4.5 1.2-4.5.8-2.3 1.2-2.2 1.3-2.3 1.2-2.2 1.8-2.3 2-2.2 2.2-2.3 2.3-2 2.5-1.7 2.7-1.5 3-1.3 2.8-1 3-.7 3.2-.5 3-.3 3.3.3 3 .2 3 .8 3 .7 3 1.3 2.7 1.2 2.5 1.5 2.5 2 2.3 2 2 1.8 1.7 2 2.3 3 2 3.5 1 2.2.7 2.3.8 2.5.5 2.5.2 2.7v3" stroke-width="12.5"/><path d="m418.3 289.3.2 1 .3 1.2.2.3v2.5l58.8.5 41.7.2h18.5l14.8-.2 43.7-1.3.5-2.2.8-7.5" stroke-width="14"/><path d="m348.5 290 .3-3.5.5-4.2 1-4.3.7-2 1-2.2 1-2 1-2.3 1.5-1.7 1.5-2 1.8-1.8 2-1.5 2.2-1.2 2.8-1.3 3.7-1.2 3.5-1 3.5-.8 3.3-.2 3-.3 3 .3 2.7.2 2.5.5 2.5.8 2.3 1 2.2 1 2.3 1.2 3.7 2.8 3.3 3 2.2 2.2 1.8 2.5 1.5 3 1.5 3 1 3 1 3.3 1.5 6 .7 3.7" stroke-width="12.5"/><path d="m314.5 245.5-.7.5-1.5 1.8-2 2.5-.8 1.7-.7 1.8-.5 1.7v4.3l.7 2.5 2.3 7.5 2.5 8.2 2.2 9.3 32.5 2.7-.2-2v-4.2" stroke-width="14"/><path d="m406.8 291.5-.3 2.8-.2 2.5-.5 2.5-.8 2.5-1 2.5-1.2 2-1.3 2.2-1.5 2-1.7 1.8-1.8 1.5-2 1.2-2.2 1.3-2 1-2.5.7-2.3.5h-5l-2.5-.2-2.2-.8-2.5-.7-2-1-2-1.3-2-1.5-1.8-1.7-1.7-1.8-1.3-2-1.5-2.2-1-2.3-.7-2.5-.8-2.5-.5-2.5-.2-2.7.2-2.8.3-2.7.5-2.5.7-2.5 1-2.3 1.3-2.2 1.2-2 1.5-2 1.8-1.8 1.7-1.7 2-1.3 2-1.2 2.3-1 2.5-.5 2.2-.5 2.5-.3h2.5l2.5.5 2.3.5 2.2.8 2.3 1.2 2 1.3 2 1.5 1.7 1.5 1.8 2 1.2 2 1.3 2 1.2 2.2.8 2.5.7 2.5.5 2.8zm252.2-5v2.8l-.5 2.5-.5 2.7-1 2.5-1 2.3-1.2 2.2-1.5 2.3-1.8 2-1.7 1.7-2 1.5-2.3 1.5-2.2 1-2.5 1-2.5.8-2.8.5-2.7.2h-2.8l-2.7-.5-2.5-.5-2.5-.7-2.5-1.3-2.3-1.2-2-1.5-2-1.8-1.7-1.7-1.5-2-1.5-2.3-1.3-2.2-1-2.5-.7-2.5-.3-2.8-.2-2.7v-2.8l.2-2.5.8-2.7.7-2.5 1-2.3 1.5-2.2 1.5-2.3 1.5-2 2-1.7 2-1.5 2.3-1.5 2.2-1.3 2.5-1 2.5-.5 2.8-.5 2.7-.2h2.8l2.5.2 2.7.8 2.5.7 2.3 1.3 2.2 1.2 2.3 1.5 1.7 1.5 2 2 1.5 2 1.5 2.3 1 2.2 1 2.5.8 2.5.5 2.8z" stroke-width="21"/><path d="m475 193h6.8l6.5.3 6.2.5 5.8.7 5.7 1 5 1.3 4.8 1.7 4.5 1.8 6.7 3.7 7.5 4 14.8 8.8 16.2 9.7-89.5-.2h-89.2l-4.5-8.8 5-3 5.7-3 7.5-3.7 9-4 5-1.8 5.3-1.7 5.5-1.8 5.5-1.2 5.7-1.3 6-.7 8.3-.8 8.2-.7 8.3-.5z" stroke-width="7"/><path d="m475 193.5 1 32.8 1.8 68.5v3" stroke-width="7"/><path d="m527 494 .3 1.5.2 1.8.3 1.7v3l-.3 1h4.8l2.7-.2 2.8-.3 2-.5 1.7-.5 2.3-1.2.7-.5.3-7.8.2-8.5.8-10.5.2-1.5-.2-1.5-.3-1.5-.2-1.2-1-2-1.3-1.5-1.2-1.3-1-1-1.3-.5.3-1.5-.3-1.7-.2-2.5-.8-2.5-1.2-3-.8-1.5-1-1.5-1.2-1.5-1.5-1.5-.8-.8-1.5-.5-3.7-1.5-4.8-1.2-5.7-1.3-6.8-1.2-7-1.3-15-2-14.7-1.5-12.5-1.2-12.3-1-7.7-4.5-8.8-5-17.5-9.3-14-7-5.7-3-3-1.5-3.5-1.7-4.3-1.5-5-1.5-6.2-1.3-7.3-1.2-9-1-10.5-.8-8-.2-7.2-.3-7 .3-6.5.5-6.3.5-5.7 1-5.3.7-5 1-4.7 1.3-4.3 1.2-7.5 2.3-6 2.2-4.7 2-29.3 13.3-23.2 10.5-15 2.2-11.5 1.3-5 .5-3.5.2-1.3.3-1 .2-.7.3-.5.5-.3.5-.2.5v1.5l1 3.2.2 1.8v1.7l-1 10.5-1.2 11-.3 2.3" stroke-width="14"/><path d="m458 506.5-.2-3.7.2-4 .8-4.5 1.2-4.5 1-2.3 1-2.2 1.3-2.3 1.5-2.2 1.7-2.3 1.8-2.2 2.2-2.3 2.5-2 2.5-1.7 2.8-1.5 2.7-1.3 3-1 3-.7 3-.5h6.3l3.2.2 3 .8 3 .7 2.8 1.3 2.7 1.2 2.8 1.8 2.5 1.7 2 2.3 2 1.5 2 2.2 2 2.8 2.2 3.7 1 2 .8 2.3.5 2.5.5 2.5.2 3v2.7" stroke-width="12.5"/><path d="m280.8 504.8.2 1 .3 1.2.2.3.3.7v1.8l58.5.7h60.2l14.8-.2 44-1 .2-2.5.8-7.3" stroke-width="14"/><path d="m211 505.5.3-3.5.7-4 1-4.5.8-2 .7-2.2 1-2 1.3-2 1.2-2 1.8-2 1.7-1.8 2-1.5 2.3-1.2 2.5-1.3 3.7-1.2 3.5-1 3.5-.8 3.3-.2 3-.3 3 .3 2.7.2 2.8.5 2.2.8 2.5 1 2.3 1 2 1.2 3.7 2.8 3.5 3 2 2.2 1.8 2.5 1.7 3 1.3 3 1.2 3 1 3.3 1.5 6 .5 3.7" stroke-width="12.5"/><path d="m177 461-.5.8-1.7 1.7-1.8 2.5-1 1.5-.5 1.8-.5 1.7-.2 2.3.2 2.2.5 2.3 2.5 7.5 2.3 8.2 2.5 9.3 32.2 3v-6.5" stroke-width="14"/><path d="m269.3 507v2.8l-.5 2.5-.5 2.7-.8 2.3-1 2.5-1 2.2-1.5 2-1.5 2-1.5 1.8-2 1.5-2 1.5-2 1-2.2 1-2.3.7-2.5.5-2.5.3-2.5-.3-2.5-.2-2.2-.5-2.3-1-2.2-1-2-1.3-2-1.5-1.8-1.7-1.5-1.8-1.5-2-1.2-2.2-1.3-2.3-.7-2.5-.8-2.5-.2-2.5-.3-2.7v-2.8l.3-2.7.5-2.5.7-2.5 1-2.3 1.3-2.2 1.2-2 1.5-2 1.8-1.8 1.7-1.5 2-1.5 2.3-1.2 2.2-.8 2.3-.7 2.5-.5 2.5-.3h2.5l2.2.5 2.5.5 2.3.8 2 1.2 2.2 1.3 1.8 1.5 1.7 1.5 1.8 2 1.5 2 1.2 2 1 2.5 1 2.2.5 2.5.5 2.8zm252.2-5v2.8l-.2 2.7-.8 2.5-.7 2.5-1 2.3-1.5 2.2-1.5 2.3-1.5 2-2 1.7-2 1.5-2.3 1.5-2.2 1.3-2.5 1-2.5.5-2.8.5-2.7.2h-2.8l-2.5-.2-2.7-.8-2.5-.7-2.3-1-2.2-1.5-2.3-1.5-1.7-1.5-2-2-1.5-2-1.5-2.3-1-2.2-1-2.5-.8-2.5-.5-2.8-.2-2.7v-2.8l.5-2.5.5-2.7.7-2.5 1.3-2.3 1.2-2.2 1.5-2.3 1.8-2 1.7-1.7 2-1.5 2.3-1.5 2.2-1 2.5-1 2.5-.8 2.8-.5 2.7-.2h2.8l2.7.5 2.5.5 2.5.7 2.5 1.3 2.3 1.2 2 1.5 2 1.8 1.7 1.7 1.5 2 1.5 2.3 1.3 2.2 1 2.5.7 2.5.3 2.8z" stroke-width="21"/><path d="m337.8 408.5h6.7l6.3.3 6.2.5 6 .7 5.5 1 5.3 1.3 4.7 1.7 4.3 2 6.7 3.5 7.5 4.3 15 8.5 16.3 9.7h-89.8l-89.2-.2-4.5-8.8 5-3 5.7-3 7.8-3.7 9-4 5-1.8 5.2-1.7 5.3-1.8 5.7-1.2 5.8-1.3 5.7-.7 8.5-.8 8.3-.7 8-.5z" stroke-width="7"/><path d="m337.8 409 .7 33 1.8 68.5v2.8" stroke-width="7"/><path d="m774.8 230.5-279.3 438.3m-377.7-313.8h577.2m-625.5 214.3 486.5-1" stroke-width="21"/></g></svg>