<svg height="850" viewBox="0 0 850 850" width="850" xmlns="http://www.w3.org/2000/svg"><path d="m603.1 405.9 1 2.3 1 2.2.7 2.8.5 2.7.8 6.5.2 6.5-.2 6.8-.5 6.2-.5 5.5-.5 4.3-1 3.7-1 3.8-1.5 3.5-1.8 3.5-2 3.2-2 3-2.5 3-2.5 2.8-2.7 2.7-3 2.5-3 2.5-3 2.3-3.3 2.2-3.2 2-6.5 3.8-8.3 4.5-7.7 4.7-7.5 5.3-7.5 5.5-14.8 11-7.5 5.7-7.5 5.3-11 8-5.5 3.7-3 1.5-2.7 1.5-3 1.5-3 1-3 1-3 .8-3.3.2h-3.5l-3.5-.2-3.5-.5-3.5-1.3-3.5-1.2-3-1.8-3-2-2.7-2.2-2.5-2.5-2.3-2.8-2.2-3-1.8-3-1.7-3.2-1.5-3.3-1.3-3.5-.7-3.5-.8-3.5-.5-3.5-.2-3.5v-3.5l.5-3.5.5-3.5.7-3.5 1-3.2 1-3.3 2.5-6.2 3.3-6.3 3-6.2 3.2-6.3 3.3-6.2 3.2-7.3 2.8-8 1.5-4.2 1-4.3 1.2-4.5.8-4.5.5-4.5.5-4.5v-9.2l-.5-4.5-1-4.3-1.3-4.2-1.7-4.3-2-.2 1-1.8 1.2-2.2 1-2.5.8-2.8.2-2.7v-1.3l-.5-1.2-.2-1.5-.8-1.3-1-1.2-1-1.3-4.2-3.5 6.2 4 5.8 3.3 2.7 1.2 2.5 1.3 2.5.7 2.5.8 2.5.5 2.3.2h2.2l2.3-.2 2.2-.3 2-.7 2-.8 2.3-1.2 2-2.5 1.7-2.8 1.8-3.5.7-2 .8-2 .2-1.7v-2l-.2-2-.5-1.8-1.3-1.7-1.5-1.5-19.7-14.8 2.7 1.3 2.5 1 2.8.7 2.5.3 2.2-.3 2.5-.2 2.3-.8 2-1 5.5 1.8 6 .2 6 .3 5.7.7 5.5.8 5.5.7 5.3 1 5 1.3 4.7 1.5 3.5 1 3.5 1.5 3.3 1.2 3.2 1.5 6 3.5 5.5 3.8 5 3.7 4.8 4.3 4.2 4.2 3.8 4.3 3.7 4.2 3 4 5.5 8 4.5 6.5 2 2.8z" fill="#f6cc4b"/><path d="m452.6 392.9 1.8 4.3 1.3 4.3 1 4.3.5 4.5v9.3l-.5 4.5-.5 4.5-.8 4.5-1.3 4.5-1 4.3-1.5 4.3-2.8 8-3.3 7.3-3.3 6.3-3.3 6.3-3 6.3-3.3 6.3-2.5 6.3-1 3.3-1 3.3-.8 3.5-.5 3.5-.5 3.5v3.5l.3 3.5.5 3.5.8 3.5.8 3.5 1.3 3.5 1.5 3.3 1.8 3.3 1.8 3 2.3 3 2.3 2.8 2.5 2.5 2.8 2.3 3 2 3 1.8 3.5 1.3 3.5 1.3 3.5.5 3.5.3h3.5l3.3-.3 3-.8 3-1 3-1 3-1.5 2.8-1.5 3-1.5 5.5-3.8 11-8 7.5-5.3 7.5-5.8 14.8-11 7.5-5.5 7.5-5.3 7.8-4.8 8.3-4.5 6.5-3.8 3.3-2 3.3-2.3 3-2.3 3-2.5 3-2.5 2.8-2.8 2.5-2.8 2.5-3 2-3 2-3.3 1.8-3.5 1.5-3.5 1-3.8 1-3.8.5-4.3.5-5.5.5-6.3.3-6.8-.3-6.5-.8-6.5-.5-2.8-.8-2.8-1-2.3-1-2.3 1.3 1.5 2.3 2.5 3.5 5.3 11.5 16.8 16.5 23.5 9.5 13.5 10.5 14.3 11.3 15 12 15 12.5 15.3 12.8 14.8 6.5 7.3 6.5 7 6.8 7 6.8 6.5 6.5 6.3 6.8 6 6.8 5.8 6.5 5.3-244.5 192-2-10.3-2.3-10.5-2.8-10.5-3.3-10.5-3.3-10.8-3.5-10.3-7-20-6.5-18.3-5.8-16.3-2-7-1.8-6.3-1-5.3-.3-2.3-.3-2v-4.5l-.5-4.5-1-4-1-4-1.5-3.8-2-3.8-2-3-2.8-3-2.8-2.5-3.3-2-3.5-1.8-4-1-2-.5-2.3-.3h-4.6l-5 .5-5.5 1.3-5.8 1.8-6 1.3-6.3 1.3-6.8 1.3-7 1-7 1-7.5.8-7.5.5-7.8.3-8 .3h-8.3l-8-.3-8.5-.5-8.3-.8-8.5-.8-8.3-1.3-3-.5-3-.8-3-1-2.8-1-2.8-1.5-2.8-1.3-5.3-3.3-5.3-3.8-4.8-4.3-4.8-4.8-4.5-5-4.3-5-4-5.5-3.8-5.8-3.7-5.8-6.8-11.5-6.3-11h3.3l3-.5 2.8-.5 2.5-1 2.3-1.3 2-1.3 2-1.8 1.8-1.8 1.5-2 1.5-2 1.3-2.5 1.3-2.5 2.5-5.3 2.3-5.5 4.3-11.8 2.8-5.8 3-5.8 1.5-2.8 2-2.8 2-2.5 2-2.5 2.5-2.3 2.5-2 3-2 3-1.8-7.5 1.3-8 1.5-10.3 2.3-11.3 2.5-11.5 3-11.3 3.3-5.3 1.8-4.8 2 2-1.5 2.3-1.3 3.8-1.8 2.8-1 1-.3 4-.8 10.3-2.3 14.5-3.5 8.3-2.3 8.5-2.5 8.8-2.8 8-3 7.8-3.3 3.8-1.8 3.3-1.8 3-1.8 2.8-1.8 2.5-2 2-2 1.8-2 1.3-2 .8-2 .3-2 .3-6.3.5-6.5.5-3.5.8-3.3.8-3.5 1.3-3.5 1.3-3.8 1.5-3.5 2-3.5 2.3-3.8 2.3-3.8 3-3.8 3-3.5 3.8-3.8 2.3-4.3 6 3.3 5.5 3 5.3 2.3 4.8 2 4 1 1.8.5h2.8l1.3-.3 1-.5.8-.8 3.5-5 2.3-3.8.8-1.5.5-1.5.3-1.5v-1.3l-.3-1.3-.5-1.3-1.3-2.8-4.8-7.3 28 18.3 6 3.8 4.8 2.8 4.3 1.5 1.8.5 1.5.5h3l2.8-.3 3-.8 3-1 .5-.8 1.5-2 .8 2.3zm-94.5 63.5 3.3 1.3 3.3 1 3.5.8 3.5.5 3.3.3 3.3-.3 3.3-.3 2.8-.8 2.5-1.3 2.3-1.5 1-1 .8-1 .5-1.3.8-1.3.3-1.5.3-1.5v-3.3l-.3-2-.5-2-1.5-4.5-1.3-2.5-1.3-2-1.3-2-1.5-1.8-1.8-1.5-1.5-1.3-1.8-1-2-1-1.8-.5-1.8-.5-2-.3h-3.8l-1.8.3-1.8.5-1.8.8-1.5 1-1.5 1-1.3 1.3-1.3 1.3-1.3 1.5-1 1.8-.8 1.8-.5 2-.5 2.3v4.6l.3 2.5.5 2.8 1 2.8 1.3 3z" fill="#f6cc4b"/><path d="m390.1 436.9 1.5 4.5.5 2 .2 2v3.3l-.2 1.5-.3 1.5-.7 1.2-.5 1.3-.8 1-1 1-2.2 1.5-2.5 1.2-2.8.8-3.2.2-3.3.3-3.2-.3-3.5-.5-3.5-.7-3.3-1-3.2-1.3-1.3-3-1.2-3-1-2.7-.5-2.8-.3-2.5v-4.5l.5-2.2.5-2 .8-1.8 1-1.7 1.2-1.5 1.3-1.3 1.2-1.2 1.5-1 1.5-1 1.8-.8 1.7-.5 1.8-.2h3.7l2 .2 1.8.5 1.7.5 2 1 1.8 1 1.5 1.3 1.7 1.5 1.5 1.7 1.3 2 1.2 2z" fill="#9e5c26"/><path d="m471.1 339.9 19.7 14.8 1.5 1.5 1.3 1.7.5 1.8.2 2v2l-.2 1.7-.8 2-.7 2-1.8 3.5-1.7 2.8-2 2.5-2.3 1.2-2 .8-2 .7-2.2.3-2.3.2h-2.2l-2.3-.2-2.5-.5-2.5-.8-2.5-.7-2.5-1.3-2.7-1.2-5.8-3.3-6.2-4 4.2 3.5 1 1.3 1 1.2.8 1.3.2 1.5.5 1.2v1.3l-.2 2.7-.8 2.8-1 2.5-1.2 2.2-1 1.8-1.5 2-.5.7-3 1-3 .8-2.8.2h-3l-1.5-.5-1.7-.5-4.3-1.5-4.7-2.7-6-3.8-28-18.2 4.7 7.2 1.3 2.8.5 1.2.2 1.3v1.2l-.2 1.5-.5 1.5-.8 1.5-2.2 3.8-3.5 5-.8.7-1 .5-1.2.3h-2.8l-1.7-.5-4-1-4.8-2-5.2-2.3-5.5-3-6-3.2-10-5.5-10.3-6.3-21.2-12.7-20.8-12.3-12-7.5-5.2-3.2-4-2.8-19.3-14-22-16.5-24-18.5-25-19.7-25.2-20.3-24.5-20-22.8-19-20-17.5 81.5-123.2 11.8 8.5 12.7 8.2 15 9.8 8 4.7 8 4.8 7.8 4.2 7.5 3.8 7 3.2 3.2 1.3 3 1 3 .7 2.5.5 2.3.3h2l8.2-1 9.8-.5h10.5l11.2.5 11 1.2 5.5.5 5 1 5 1 4.8 1.3 4.2 1.2 4 1.5 3.5 1.8 3.8 2.2 3.5 2.5 3.5 2.8 7.5 5.7 7.7 6.3 4 3 4.3 3 4.5 2.7 4.5 2.8 5 2.2 5.2 2 5.5 1.8 5.8 1.2 1.2.3.8.5 1 .5.7.7.5 1 .8.8.5 2.2.2 2.5-.2 2.8-.8 2.7-1 2.8-1.7 2.7-2.3 2.5-2.5 2.3-1.5 1-1.7.7-1.8.8-1.7.5-2 .5-2 .2-2.3.3-2.5-.3-2.5-.2-2.5-.5-3-.8-3.5-1.2-3.2-1.3-3.8-1.7-6-2.3-6-1.7-7.2-1.8-3.5-.7-3.5-.8-3.3-.2h-2.7l-2.5.2-1 .3-1 .5-.5.5-.5.7-.3.8-.2.7.2.8.5 1 1.8 2.2 3 3.3 3.7 3.7 10.3 9.3 13.2 11 23.8 19.2 26.2 20.5 25.5 19.8 22.8 17.5 26 19.5 2 1.7 1.5 1.8 1 1.7 1 2 .5 2.3.2 2-.2 2-.3 2.2-.7 2-.8 2-1 2-1.2 1.8-1.5 1.7-1.8 1.5-1.7 1.3-2 1.2-2 1-2.3.8-2.5.2-2.2.3-2.5-.3-2.8-.7-2.5-1z" fill="#ffeec8"/><path d="m228.8 491.7 4.8-2 5.2-1.8 11.3-3.2 11.5-3 11.2-2.5 10.3-2.3 8-1.5 7.5-1.2-3 1.7-3 2-2.5 2-2.5 2.3-2 2.5-2 2.5-2 2.7-1.5 2.8-3 5.7-2.8 5.8-4.2 11.7-2.3 5.5-2.5 5.3-1.2 2.5-1.3 2.5-1.5 2-1.5 2-1.7 1.7-2 1.8-2 1.2-2.3 1.3-2.5 1-2.7.5-3 .5h-3.3l-8.2-15.3-3.8-6.2-3.2-5.3-1.5-2.2-1-2.3-.8-2-.7-2-.3-2v-3.5l.5-1.5.5-1.5.8-1.5.7-1.2 1-1.3 2-2.2z" fill="#231f20"/><path d="m238.1 543.4-3.3-3.7-3.2-4-4-5.3-4.3-6.2-4-6.3-1.7-3.5-1.5-3.2-1.5-3.3-1-3v-1.7l.2-.8.3-1 1.2-1.7 1.8-1.8 2.2-1.5 2.8-1.7 3.2-1.5 3.5-1.5-2.5 2-2 2.2-1 1.3-.7 1.2-.8 1.5-.5 1.5-.5 1.5v3.5l.3 2 .7 2 .8 2 1 2.3 1.5 2.2 3.2 5.3 3.8 6.2 8.2 15.3z" fill="#231f20"/><g fill="none" stroke="#231f20" stroke-linecap="round" stroke-miterlimit="10"><path d="m240.3 543.7 6.3 11 6.7 11.5 3.8 5.7 3.7 5.8 4 5.5 4.3 5 4.5 5 4.7 4.7 4.8 4.3 5.2 3.7 5.3 3.3 2.7 1.2 2.8 1.5 2.7 1 3 1 3 .8 3 .5 8.3 1.2 8.5.8 8.2.7 8.5.5 8 .3h8.3l8-.3 7.7-.2 7.5-.5 7.5-.8 7-1 7-1 6.8-1.2 6.2-1.3 6-1.2 5.8-1.8 5.5-1.2 5-.5h4.5l2.2.2 2 .5 4 1 3.5 1.8 3.3 2 2.7 2.5 2.8 3 2 3 2 3.7 1.5 3.8 1 4 1 4 .5 4.5v4.5l.2 2 .3 2.2 1 5.3 1.7 6.2 2 7 5.8 16.3 6.5 18.2 7 20 3.5 10.3 3.2 10.7 3.3 10.5 2.7 10.5 2.3 10.5 2 10.3m-160.3-395.3-3.7 3.8-3 3.5-3 3.7-2.3 3.8-2.2 3.7-2 3.5-1.5 3.5-1.3 3.8-1.2 3.5-.8 3.5-.7 3.2-.5 3.5-.5 6.5-.3 6.3-.2 2-.8 2-1.2 2-1.8 2-2 2-2.5 2-2.7 1.7-3 1.8-3.3 1.7-3.7 1.8-7.8 3.2-8 3-8.7 2.8-8.5 2.5-8.3 2.2-14.5 3.5-10.2 2.3-4 .7-1 .3-2.8 1-3.7 1.7-2.3 1.3-2 1.5m374.3-85.8-1.8-2.2-2-2.8-4.5-6.5-5.5-8-3-4-3.7-4.2-3.8-4.3-4.2-4.2-4.8-4.3-5-3.7-5.5-3.8-6-3.5-3.2-1.5-3.3-1.2-3.5-1.5-3.5-1-4.7-1.5-5-1.3-5.3-1-5.5-.7-5.5-.8-5.7-.7-6-.3-6-.2m263.5 251.5-6.5-5.3-6.8-5.7-6.7-6-6.5-6.3-6.8-6.5-6.7-7-6.5-7-6.5-7.2-12.8-14.8-12.5-15.2-12-15-11.2-15-10.5-14.3-9.5-13.5-16.5-23.5-11.5-16.7-3.5-5.3-2.3-2.5-1.2-1.5" stroke-width="21"/><path d="m452.6 392.9 1.7 4.3 1.3 4.2 1 4.3.5 4.5v9.2l-.5 4.5-.5 4.5-.8 4.5-1.2 4.5-1 4.3-1.5 4.2-2.8 8-3.2 7.3-3.3 6.2-3.2 6.3-3 6.2-3.3 6.3-2.5 6.2-1 3.3-1 3.2-.7 3.5-.5 3.5-.5 3.5v3.5l.2 3.5.5 3.5.8 3.5.7 3.5 1.3 3.5 1.5 3.3 1.7 3.2 1.8 3 2.2 3 2.3 2.8 2.5 2.5 2.7 2.2 3 2 3 1.8 3.5 1.2 3.5 1.3 3.5.5 3.5.2h3.5l3.3-.2 3-.8 3-1 3-1 3-1.5 2.7-1.5 3-1.5 5.5-3.7 11-8 7.5-5.3 7.5-5.7 14.8-11 7.5-5.5 7.5-5.3 7.7-4.7 8.3-4.5 6.5-3.8 3.2-2 3.3-2.2 3-2.3 3-2.5 3-2.5 2.7-2.7 2.5-2.8 2.5-3 2-3 2-3.2 1.8-3.5 1.5-3.5 1-3.8 1-3.7.5-4.3.5-5.5.5-6.2.2-6.8-.2-6.5-.8-6.5-.5-2.7-.7-2.8-1-2.2-1-2.3-.8-1-.7-1" stroke-width="21"/><path d="m228.8 491.7-3.5 1.5-3.2 1.5-2.8 1.7-2.2 1.5-1.8 1.8-1.2 1.7-.3 1-.2.8v1.7l1 3 1.5 3.3 1.5 3.2 1.7 3.5 4 6.3 4.3 6.2 4 5.3 3.2 4 3.3 3.7 2.2.3h3.3l3-.5 2.7-.5 2.5-1 2.3-1.3 2-1.2 2-1.8 1.7-1.7 1.5-2 1.5-2 1.3-2.5 1.2-2.5 2.5-5.3 2.3-5.5 4.2-11.7 2.8-5.8 3-5.7 1.5-2.8 2-2.7 2-2.5 2-2.5 2.5-2.3 2.5-2 3-2 3-1.7-7.5 1.2-8 1.5-10.3 2.3-11.2 2.5-11.5 3-11.3 3.2-5.2 1.8z" stroke-width="13.25"/><path d="m358.1 456.4-1.3-3-1.2-3-1-2.7-.5-2.8-.3-2.5v-4.5l.5-2.2.5-2 .8-1.8 1-1.7 1.2-1.5 1.3-1.3 1.2-1.2 1.5-1 1.5-1 1.8-.8 1.7-.5 1.8-.2h3.7l2 .2 1.8.5 1.7.5 2 1 1.8 1 1.5 1.3 1.7 1.5 1.5 1.7 1.3 2 1.2 2 1.3 2.5 1.5 4.5.5 2 .2 2v3.3l-.2 1.5-.3 1.5-.7 1.2-.5 1.3-.8 1-1 1-2.2 1.5-2.5 1.2-2.8.8-3.2.2-3.3.3-3.2-.3-3.5-.5-3.5-.7-3.3-1z" stroke-width="14"/><path d="m469.6 292.2 26 19.5 2 1.7 1.5 1.8 1 1.7 1 2 .5 2.3.2 2-.2 2-.3 2.2-.7 2-.8 2-1 2-1.2 1.8-1.5 1.7-1.8 1.5-1.7 1.3-2 1.2-2 1-2.3.8-2.5.2-2.2.3-2.5-.3-2.8-.7-2.5-1-2.7-1.3m-99.8-124.7 23.8 19.2 26.2 20.5 25.5 19.8 22.8 17.5m-79.3-99.5-3-.8-3.5-1.2-3.2-1.3-3.8-1.7-6-2.3-6-1.7-7.2-1.8-3.5-.7-3.5-.8-3.3-.2h-2.7l-2.5.2-1 .3-1 .5-.5.5-.5.7-.3.8-.2.7.2.8.5 1 1.8 2.2 3 3.3 3.7 3.7 10.3 9.3 13.2 11" stroke-width="21"/><path d="m172.3 67.7 11.8 8.5 12.7 8.2 15 9.8 8 4.7 8 4.8 7.8 4.2 7.5 3.8 7 3.2 3.2 1.3 3 1 3 .7 2.5.5 2.3.3h2l8.2-1 9.8-.5h10.5l11.2.5 11 1.2 5.5.5 5 1 5 1 4.8 1.3 4.2 1.2 4 1.5 3.5 1.8 3.8 2.2 3.5 2.5 3.5 2.8 7.5 5.7 7.7 6.3 4 3 4.3 3 4.5 2.7 4.5 2.8 5 2.2 5.2 2 5.5 1.8 5.8 1.2 1.2.3.8.5 1 .5.7.7.5 1 .8.8.5 2.2.2 2.5-.2 2.8-.8 2.7-1 2.8-1.7 2.7-2.3 2.5-2.5 2.3-1.5 1-1.7.7-1.8.8-1.7.5-2 .5-2 .2-2.3.3-2.5-.3-2.5-.2-2.5-.5m-299.5-1.8 20 17.5 22.8 19 24.5 20 25.2 20.3 25 19.7 24 18.5 22 16.5 19.3 14 4 2.8 5.2 3.2 12 7.5 20.8 12.3 21.2 12.7 10.3 6.3 10 5.5 6 3.2 5.5 3 5.2 2.3 4.8 2 4 1 1.7.5h2.8l1.2-.3 1-.5.8-.7 3.5-5 2.2-3.8.8-1.5.5-1.5.2-1.5v-1.2l-.2-1.3-.5-1.2-1.3-2.8-4.7-7.2-.3-.5" stroke-width="21"/><path d="m272.1 292.9 41.7 27 76.8 50.3 28 18.2 6 3.8 4.7 2.7 4.3 1.5 1.7.5 1.5.5h3l2.8-.2 3-.8 3-1 .5-.7 1.5-2 1-1.8 1.2-2.2 1-2.5.8-2.8.2-2.7v-1.3l-.5-1.2-.2-1.5-.8-1.3-1-1.2-1-1.3-4.2-3.5-12.5-9.7-16.8-12.8-19.5-14.2-20.2-14.8-34.8-25-15-10.5m118.8 87 6.2 4 5.8 3.3 2.7 1.2 2.5 1.3 2.5.7 2.5.8 2.5.5 2.3.2h2.2l2.3-.2 2.2-.3 2-.7 2-.8 2.3-1.2 2-2.5 1.7-2.8 1.8-3.5.7-2 .8-2 .2-1.7v-2l-.2-2-.5-1.8-1.3-1.7-1.5-1.5-19.7-14.8-151.5-115.5" stroke-width="21"/></g></svg>