<svg height="850.394" viewBox="0 0 850.394 850.394" width="850.394" xmlns="http://www.w3.org/2000/svg"><path d="m247.88 516.33c12.49 0 22.63 12.28 22.63 27.42s-10.14 27.42-22.63 27.42c-12.5 0-22.63-12.28-22.63-27.42s10.13-27.42 22.63-27.42zm240.22 177.56c0 19.521-2.479 26.63-19.63 38.49-28.67 19.83-67.24-18.97-82.22-27.2-12.26-6.729-21.31-9.109-17.26-30.27 9.44-14.09 21.58-20.061 27.51-33.22 8.08-17.971 16.85-24.9 36.75-27.83 46.43-6.85 54.85 44.09 54.85 80.03zm-79.1-244.52c-6.96-.5-17.93 1.729-43.62 12.13-59.34 24.01-74.85-41.78-74.85-85.3 0-39.64 33.07-40.04 53.96-55.7 20.89-15.67 47.98-47.85 62.67-49.62 21.76-2.61 62.92 6.95 81.79 18.08 12.75 7.52 24.63 47.87 37.47 70.61 12.84 22.73 42.97 36.38 27.05 72.69-17.479 39.851-58.12 93.87-102.81 48.05-26.92-27.62-33.69-30.14-41.66-30.94zm210.82-165.6c10.18 25.19 1.72 42.18 1.72 42.18s-5.65 15.51-16.57 27.81c-18.66 21.01-52.18-13.98-59.47-35.91-7.27-21.92 12.02-43.37 29.02-60.05 17.01-16.68 35.12.78 45.3 25.97zm-57.94-97.47c2.83 27.98-12.91 52.48-35.149 54.73-22.24 2.25-42.561-18.61-45.391-46.59s12.91-52.48 35.15-54.73c22.24-2.24 42.56 18.62 45.39 46.59zm-138.23-72.79c21.71 5.33 33.87 31.78 27.16 59.09-6.699 27.31-29.729 45.14-51.439 39.8-21.71-5.33-33.87-31.78-27.17-59.09 6.709-27.31 29.729-45.13 51.449-39.8zm-87.08 93.25c11.25 21 23.25 47.24 9.75 65.98-13.49 18.75-55.94 42.13-67.48 16.5-6.75-15-7.49-31.49-7.49-31.49s-3.01-18.74 14.24-39.74c17.25-20.99 39.74-32.24 50.98-11.25z" fill="#9e5c26"/><path d="m663.48 284.51c7.68 26.22-20.801 148.58-31.761 172.641-21.63 47.46-68.92 78.09-77.47 135.779-9.18 61.99-14.33 156.94-15.44 178.971l-333.579-29.271s-7.84-152.32-8.71-210.63c-.87-58.32-4.35-87.04 3.49-112.28 7.83-25.24-3.49-134.04 6.96-159.28 10.44-25.24 66.18-137.75 158.41-174.08 26.64-10.49 70.25-12.71 103.87-8.7l.01-.07c19.98 2.8 40.29 8.97 55.38 16.88 87.8 46 131.16 163.83 138.84 190.04zm-41.94 41.44s8.46-16.99-1.72-42.18c-10.181-25.19-28.29-42.65-45.301-25.97-17 16.68-36.289 38.13-29.02 60.05 7.29 21.93 40.81 56.92 59.47 35.91 10.921-12.3 16.571-27.81 16.571-27.81zm-94.81-84.92c22.239-2.25 37.979-26.75 35.149-54.73-2.83-27.97-23.149-48.83-45.39-46.59-22.24 2.25-37.98 26.75-35.15 54.73s23.151 48.84 45.391 46.59zm26.74 191.23c15.92-36.31-14.21-49.96-27.05-72.69-12.84-22.74-24.72-63.09-37.47-70.61-18.87-11.13-60.03-20.69-81.79-18.08-14.69 1.77-41.78 33.95-62.67 49.62-20.89 15.66-53.96 16.06-53.96 55.7 0 43.52 15.51 109.31 74.85 85.3 25.69-10.4 36.66-12.63 43.62-12.13 7.97.8 14.74 3.32 41.66 30.939 44.69 45.821 85.33-8.199 102.81-48.049zm-85 300.12c17.15-11.86 19.63-18.97 19.63-38.49 0-35.939-8.42-86.88-54.85-80.029-19.9 2.93-28.67 9.859-36.75 27.83-5.93 13.159-18.07 19.13-27.51 33.22-4.05 21.16 5 23.54 17.26 30.27 14.98 8.229 53.55 47.029 82.22 27.199zm-17.66-559.78c6.71-27.31-5.449-53.76-27.16-59.09-21.72-5.33-44.74 12.49-51.45 39.8-6.7 27.31 5.46 53.76 27.17 59.09 21.71 5.34 44.74-12.49 51.44-39.8zm-104.49 100.14c13.5-18.74 1.5-44.98-9.75-65.98-11.24-20.99-33.73-9.74-50.98 11.25-17.25 21-14.24 39.74-14.24 39.74s.74 16.49 7.49 31.49c11.54 25.63 53.99 2.25 67.48-16.5zm-75.81 271.01c0-15.14-10.14-27.42-22.63-27.42-12.5 0-22.63 12.28-22.63 27.42s10.13 27.42 22.63 27.42c12.49 0 22.63-12.28 22.63-27.42z" fill="#f6cc4b"/><g fill="none"><g stroke="#231f20" stroke-width="21"><path d="m561.88 186.3c2.83 27.98-12.91 52.48-35.149 54.73-22.24 2.25-42.561-18.61-45.391-46.59s12.91-52.48 35.15-54.73c22.24-2.24 42.56 18.62 45.39 46.59zm-111.07-13.7c-6.699 27.31-29.729 45.14-51.439 39.8-21.71-5.33-33.87-31.78-27.17-59.09 6.71-27.31 29.73-45.13 51.45-39.8 21.709 5.33 33.869 31.78 27.159 59.09zm-179.46 85.15s-3.01-18.74 14.24-39.74c17.25-20.99 39.74-32.24 50.98-11.25 11.25 21 23.25 47.24 9.75 65.98-13.49 18.75-55.94 42.13-67.48 16.5-6.75-15-7.49-31.49-7.49-31.49zm350.19 68.2s8.46-16.99-1.72-42.18c-10.181-25.19-28.29-42.65-45.301-25.97-17 16.68-36.289 38.13-29.02 60.05 7.29 21.93 40.81 56.92 59.47 35.91 10.921-12.3 16.571-27.81 16.571-27.81zm-212.54 123.42c2.95.21 5.18.899 7.51 1.68"/><path d="m409 449.37c7.97.8 14.74 3.32 41.66 30.939 44.689 45.82 85.33-8.199 102.81-48.05 15.92-36.31-14.21-49.96-27.05-72.69-12.84-22.74-24.72-63.09-37.47-70.61-18.87-11.13-60.03-20.69-81.79-18.08-14.69 1.77-41.78 33.95-62.67 49.62-20.89 15.66-53.96 16.06-53.96 55.7 0 43.52 15.51 109.31 74.85 85.3 25.69-10.399 36.66-12.629 43.62-12.129zm-.54-.06c.18.021.36.03.54.061m-22.75 255.809c-12.26-6.729-21.31-9.109-17.26-30.27 9.44-14.09 21.58-20.061 27.51-33.22 8.08-17.971 16.85-24.9 36.75-27.83 46.43-6.851 54.85 44.09 54.85 80.029 0 19.521-2.479 26.63-19.63 38.49-28.67 19.831-67.24-18.969-82.22-27.199zm-115.74-161.43c0 15.14-10.14 27.42-22.63 27.42-12.5 0-22.63-12.28-22.63-27.42s10.13-27.42 22.63-27.42c12.49 0 22.63 12.28 22.63 27.42z"/><path d="m205.23 742.63s-7.84-152.32-8.71-210.63c-.87-58.32-4.35-87.04 3.49-112.28 7.83-25.24-3.49-134.04 6.96-159.28 10.44-25.24 66.18-137.75 158.41-174.08 26.64-10.49 70.25-12.71 103.87-8.7"/><path d="m538.58 776.58.229-4.68c1.11-22.03 6.261-116.98 15.44-178.971 8.55-57.689 55.84-88.319 77.47-135.779 10.96-24.061 39.44-146.42 31.761-172.641-7.68-26.209-51.04-144.039-138.84-190.039-15.09-7.91-35.399-14.08-55.38-16.88l-1.069-.15"/></g><path d="m0 0h850.394v850.394h-850.394z"/></g></svg>