<svg height="850.394" viewBox="0 0 850.394 850.394" width="850.394" xmlns="http://www.w3.org/2000/svg"><path d="m620 318c-218-42-158 242-260 242-38.74 0-54.9-162.92-84-158-84.97 14.37-6.92 332.94-86.02 247.85-14.5-15.6-34.28-44.76-61.31-91.85-12.01-20.91-20.05-42.38-24.8-63.98-27.91-127.14 58.63-258.99 126.15-310.68 49.03-26.83 100.88-37.24 162.65-16.38 22.89 7.72 38.13 14.95 56.18 25.88 4.49 2.72 9.16 5.67 14.16 8.91 2.3 1.49 4.54 2.93 6.73 4.31 24.109 15.21 42.43 23.88 73.479 27.67 17.07 2.09 40.851 7.31 57.45 1.26 10.771-3.92 27.23-17.3 13.34-28.17l.07-.72c-15.82-28.3-37.811-54.33-67.74-62.99 6.72.46 13.24 1.08 19.141 1.65 30.09 2.91 76.739 24.03 100.89 41.85 25.33 18.69 41.92 37.62 55 60.43 70.49 122.85 34.43 303.09-63.34 399.1-6.03 5.92-12.03 11.7-18.101 17.29-147.929 102.57 193.711-304.27-19.929-345.43z" fill="#ff6b00"/><g fill="#ffff4b"><path d="m360 560c102 0 42-284 260-242 213.64 41.16-128 448 19.93 345.43-22.97 21.17-46.89 39.67-76.6 52.801-7.25 3.21-14.311 6.22-21.25 9.02-1.09.45-2.17.88-3.25 1.31-42.57 16.921-80.74 26.021-130.18 26.021-61.64 0-118.57-22.6-167.27-54.38-10.68-6.96-31.12-23.32-53.17-46.66l1.77-1.69c79.1 85.088 1.05-233.482 86.02-247.852 29.1-4.92 45.26 158 84 158z"/><path d="m128.67 558c27.03 47.09 46.81 76.25 61.31 91.85l-1.77 1.69c-26.61-28.16-55.55-66.51-72.44-110.81-5.03-13.181-9.63-29.561-13.29-46.41l1.39-.301c4.75 21.601 12.79 43.071 24.8 63.981z"/><path d="m230.02 183.34c-67.52 51.69-154.06 183.54-126.15 310.68l-1.39.301a440.6 440.6 0 0 1 -4.01-20.75c-2.23-13.2-3.76-26.011-4.35-37.11-1.14-21.42-1.38-44.12 0-67.08v-.02c.14-2.36.3-4.73.48-7.1 3.99-53.55 17.11-107.97 48.24-150.5 63.71-87.07 187.19-128.23 301.73-86.02 4.529 1.67 11.88 3.26 16.56 5.06-.17 1.22-.36 2.47-.57 3.73-1.369 8.16-3.489 15.7-5.659 23.85-2.24 8.42-2.24 14.56-6.051 34.46-18.05-10.93-33.29-18.16-56.18-25.88-61.77-20.861-113.62-10.451-162.65 16.379zm383.99 23.48c13.891 10.87-2.569 24.25-13.34 28.17-16.6 6.05-40.38.83-57.45-1.26-31.05-3.79-49.37-12.46-73.479-27.67v-.01c.49-4.29 9.71-33.72 11.62-38.65 2-5.15 4.33-10.7 6.949-16.29l.061.03c11.93-9.36 36.03-9.55 57.97-8.03 29.93 8.66 51.92 34.69 67.74 62.99z"/></g><path d="m507.01 120.33c-7.17 8.5-13.51 19.71-18.7 30.78a263.417 263.417 0 0 0 -6.949 16.29c-1.91 4.93-11.13 34.36-11.62 38.65v.01a628.85 628.85 0 0 1 -6.73-4.31c-5-3.24-9.67-6.19-14.16-8.91 3.811-19.9 3.811-26.04 6.051-34.46 2.17-8.15 4.29-15.69 5.659-23.85.21-1.26.4-2.51.57-3.73 1.98-13.95 2.311-25.14 19.601-27.29 6.789-.84 37.8 1.58 26.88 16.11-.202.23-.402.47-.602.71z" fill="#9e5b16"/><path d="m507.01 120.33c.2-.24.4-.48.601-.71-.181.24-.381.48-.601.71z" fill="#fff"/><g fill="none" stroke="#000" stroke-width="20.122"><path d="m94.12 369.36c.14-2.36.3-4.73.48-7.1 3.99-53.55 17.11-107.97 48.24-150.5 63.71-87.07 187.19-128.23 301.73-86.02 4.529 1.67 11.88 3.26 16.56 5.06m27.24 20.34c11.93-9.36 36.03-9.55 57.97-8.03 6.72.46 13.24 1.08 19.141 1.65 30.09 2.91 76.739 24.03 100.89 41.85 25.33 18.69 41.92 37.62 55 60.43 70.49 122.85 34.43 303.09-63.34 399.1-6.03 5.92-12.03 11.7-18.101 17.29-22.97 21.17-46.89 39.67-76.6 52.801-7.25 3.21-14.311 6.22-21.25 9.02-1.09.45-2.17.88-3.25 1.31-42.57 16.921-80.74 26.021-130.18 26.021-61.64 0-118.57-22.6-167.27-54.38-10.68-6.96-31.12-23.32-53.17-46.66-26.61-28.16-55.55-66.51-72.44-110.81-5.03-13.181-9.63-29.561-13.29-46.41a440.6 440.6 0 0 1 -4.01-20.75c-2.23-13.2-3.76-26.011-4.35-37.11-1.14-21.42-1.38-44.12 0-67.08"/><g stroke-linecap="round" stroke-linejoin="round"><path d="m230.02 183.34c49.03-26.83 100.88-37.24 162.65-16.38 22.89 7.72 38.13 14.95 56.18 25.88 4.49 2.72 9.16 5.67 14.16 8.91 2.3 1.49 4.54 2.93 6.73 4.31 24.109 15.21 42.43 23.88 73.479 27.67 17.07 2.09 40.851 7.31 57.45 1.26 10.771-3.92 27.23-17.3 13.34-28.17"/><path d="m448.85 192.84c3.811-19.9 3.811-26.04 6.051-34.46 2.17-8.15 4.29-15.69 5.659-23.85.21-1.26.4-2.51.57-3.73 1.98-13.95 2.311-25.14 19.601-27.29 6.789-.84 37.8 1.58 26.88 16.11-.181.24-.38.48-.601.71-8.109 8.52-38.439 4.83-36.24-9.8 1.461-.15 3.431-.44 4.91-.13"/><path d="m507.61 119.62c-.2.23-.4.47-.601.71-7.17 8.5-13.51 19.71-18.7 30.78a263.417 263.417 0 0 0 -6.949 16.29c-1.91 4.93-11.13 34.36-11.62 38.65"/></g><path d="m94.12 369.36v.02"/></g><path d="m0 0h850.394v850.394h-850.394z" fill="none"/></svg>