<svg height="850.394" viewBox="0 0 850.394 850.394" width="850.394" xmlns="http://www.w3.org/2000/svg"><path d="m268.67 144.83c-.89-9.43-2.46-18.65-4.88-27.56-1.89-6.96-4-13.47-6.16-19.44l3.96-.74 54.41-3.09.43-.33c5.12 6.65 9.9 14.49 14.21 23.73 16.54 35.45 14.1 68.84 4.93 98.5l-66.65-29.37c.95-14.09 1.05-28.11-.25-41.7z" fill="#ffffc2"/><path d="m261.59 97.09-3.96.74c-8.48-23.39-17.77-38.29-17.77-38.29l-.02-.31c22.33-1.49 52.92 3.61 76.59 34.44l-.43.33z" fill="#ffffc2"/><path d="m677.49 532.18c24.979 44.73 59.49 152.221 29.97 184.61-29.52 32.39-60.68 41.32-100.65 1.03-39.97-40.301-79.68-116.681-92.359-157.74-12.67-41.07-3.33-86.13 5.069-105.29 8.41-19.15 14.35-18.79 14.35-18.79s103.76 24.79 143.62 96.18zm-27.1-390.39c20.99 52.73 27.61 138.57 23.181 181.32-4.431 42.74-30.66 80.54-45.91 94.87-15.24 14.33-20.57 11.67-20.57 11.67s-85.75-63.46-94.45-144.771c-5.449-50.94 4.9-163.34 44.761-181.58 39.848-18.239 72.008-14.229 92.988 38.491z" fill="#f6cc4b"/><g fill="#ffffc2"><path d="m746.99 626.77c12.34 37.99 14.2 125.591-39.4 152-36.55 18.011-75.81 16.881-112.55-15.84-36.71-32.71-85.83-83.34-114.22-154.3-15.66-39.149-13.75-94.39-13.75-94.39s12.189-135.07 14.17-171.12c1.99-36.05-11.57-162.56 33.92-236.62 35.45-57.71 92.24-64.86 137.71-19.76 0 0 35.439 32.53 51.1 110.83 16.431 82.15 24.88 142.69-3.51 193.44-28.38 50.75-40.02 70.11-35.47 85.51 4.54 15.4 69.67 112.27 82 150.25zm-39.53 90.02c29.521-32.39-4.99-139.88-29.97-184.61-39.86-71.39-143.62-96.18-143.62-96.18s-5.94-.36-14.351 18.79c-8.399 19.16-17.739 64.22-5.069 105.29 12.68 41.06 52.39 117.439 92.359 157.74 39.971 40.29 71.131 31.36 100.651-1.03zm-33.89-393.68c4.43-42.75-2.19-128.59-23.181-181.32-20.979-52.72-53.139-56.73-92.989-38.49-39.86 18.24-50.21 130.64-44.761 181.58 8.7 81.31 94.45 144.771 94.45 144.771s5.33 2.659 20.57-11.67c15.251-14.331 41.481-52.131 45.911-94.871zm-348.03 394.48.36.15c-9.07 23.02-51.06 114.18-125.8 49.72-8.96-7.729-16.94-15.2-24.04-22.44l1.05-1.05 59.65-82.35c40.1 38.83 88.78 55.97 88.78 55.97zm-122.12-98.87-1.8 1-78.84-.38c.61-8.05 1.7-15.96 2.88-23.83 4.31-28.649 7.15-52.37 8.81-72.24l3.76.32 39.73 6.8 1.86-.189c2.11 14.069 4.6 28.88 7.62 44.649.73 3.82 1.61 7.561 2.62 11.21 3.23 11.74 7.81 22.62 13.36 32.66z"/><path d="m236.76 661.62-59.65 82.35-1.05 1.05c-49.33-50.31-56.05-89.369-53.28-125.68l78.84.38 1.8-1c9.1 16.51 20.8 30.77 33.34 42.9zm-77.82-305.51c-1.36-8.31-2.88-16.79-4.62-25.49-2.11-10.55-4.04-21.77-5.73-33.39l58.13 20.25 1.75-.44c1.5 6.09 3.08 12.17 4.71 18.23a958.28 958.28 0 0 0 8.17 28.53c-5.51 6.17-50.04 56.11-52.34 58.97l-1.54.16c-2.27-22.09-4.77-43.85-8.53-66.82z"/><path d="m193.14 234.56c3.16 27.16 8.54 54.97 15.33 82.48l-1.75.44-58.13-20.25c-2.45-16.9-4.38-34.65-5.56-52.42l42.95-49.45 4.23-.12c.38 12.88 1.39 26.02 2.93 39.32z"/><path d="m190.17 140.15 2.78.4c-1.1 7.7-1.88 15.59-2.35 23.62-.58 10.14-.7 20.51-.39 31.07l-4.23.12-42.95 49.45c-.56-8.29-.94-16.58-1.14-24.79-.97-39.27 2.3-76.76 12.28-103.36l.99.38zm-10.35 390.05-1.86.189-39.73-6.8-3.76-.32c5.16-61.939-1.12-86.399-9.68-105.89-10.83-24.65-18.37-50.07-22.57-76.41l56.72 15.14c3.76 22.97 6.26 44.73 8.53 66.82 2.08 20.16 3.97 40.589 6.46 62.43 1.64 14.241 3.52 29.081 5.89 44.841z"/><path d="m170.39 89 .32.36c-6.85 6.68-12.29 16.01-16.54 27.3-9.98 26.6-13.25 64.09-12.28 103.36l-4.26.11-37.47 32.92c1.61-15.75 4.26-31.83 7.95-48.27 12.28-54.78 35.48-92.56 62.28-115.78z"/><path d="m148.59 297.23c1.69 11.62 3.62 22.84 5.73 33.39 1.74 8.7 3.26 17.18 4.62 25.49l-56.72-15.14c-4.52-28.18-5.22-57.43-2.06-87.92l37.47-32.92 4.26-.11c.2 8.21.58 16.5 1.14 24.79 1.18 17.77 3.11 35.52 5.56 52.42z"/><path d="m170.39 89 .32.36c-6.85 6.68-12.29 16.01-16.54 27.3-9.98 26.6-13.25 64.09-12.28 103.36l-4.26.11-37.47 32.92c1.61-15.75 4.26-31.83 7.95-48.27 12.28-54.78 35.48-92.56 62.28-115.78z"/><path d="m148.59 297.23c1.69 11.62 3.62 22.84 5.73 33.39 1.74 8.7 3.26 17.18 4.62 25.49l-56.72-15.14c-4.52-28.18-5.22-57.43-2.06-87.92l37.47-32.92 4.26-.11c.2 8.21.58 16.5 1.14 24.79 1.18 17.77 3.11 35.52 5.56 52.42z"/><path d="m193.14 234.56c3.16 27.16 8.54 54.97 15.33 82.48l-1.75.44-58.13-20.25c-2.45-16.9-4.38-34.65-5.56-52.42l42.95-49.45 4.23-.12c.38 12.88 1.39 26.02 2.93 39.32z"/><path d="m190.17 140.15 2.78.4c-1.1 7.7-1.88 15.59-2.35 23.62-.58 10.14-.7 20.51-.39 31.07l-4.23.12-42.95 49.45c-.56-8.29-.94-16.58-1.14-24.79-.97-39.27 2.3-76.76 12.28-103.36l.99.38zm-10.35 390.05-1.86.189-39.73-6.8-3.76-.32c5.16-61.939-1.12-86.399-9.68-105.89-10.83-24.65-18.37-50.07-22.57-76.41l56.72 15.14c3.76 22.97 6.26 44.73 8.53 66.82 2.08 20.16 3.97 40.589 6.46 62.43 1.64 14.241 3.52 29.081 5.89 44.841z"/><path d="m158.94 356.11c-1.36-8.31-2.88-16.79-4.62-25.49-2.11-10.55-4.04-21.77-5.73-33.39l58.13 20.25 1.75-.44c1.5 6.09 3.08 12.17 4.71 18.23a958.28 958.28 0 0 0 8.17 28.53c-5.51 6.17-50.04 56.11-52.34 58.97l-1.54.16c-2.27-22.09-4.77-43.85-8.53-66.82zm109.73-211.28-77.73 19.36-.34-.02c.47-8.03 1.25-15.92 2.35-23.62 4.18-29.36 13.12-56.08 28.29-78.46 4.98-1.21 11.36-2.38 18.6-2.86l.02.31s9.29 14.9 17.77 38.29c2.16 5.97 4.27 12.48 6.16 19.44 2.42 8.91 3.99 18.13 4.88 27.56z"/><path d="m268.92 186.53c-1.68 25.17-6.05 50.56-10 74.16l-65.78-26.13c-1.54-13.3-2.55-26.44-2.93-39.32-.31-10.56-.19-20.93.39-31.07l.34.02 77.73-19.36c1.3 13.59 1.2 27.61.25 41.7zm-12.96 92.34c-1.64 10.56-3 20.6-3.77 29.94-.19 2.29-.3 4.48-.35 6.6l-37.61 19.82-1.05.04c-1.63-6.06-3.21-12.14-4.71-18.23-6.79-27.51-12.17-55.32-15.33-82.48l65.78 26.13c-1.03 6.2-2.04 12.27-2.95 18.18z"/><path d="m258.92 260.69c3.95-23.6 8.32-48.99 10-74.16l66.65 29.37c-7.26 23.52-18.76 44.7-28.39 62.7l-2.76-1.47c-3.1 1.99-40.5 1.81-48.45 1.74.91-5.91 1.92-11.98 2.95-18.18zm43.53 169.23c2.77 6.94 5.5 14.54 8.14 22.9 3.35 10.59 5.86 22.109 7.7 34.17l-67.95 26.229-4.74.03c-.37-4.77-.7-9.47-1.02-14.12-2.68-39.95-3.94-75.73-15.18-109.86-2.76-8.38-5.45-16.88-8.05-25.47a958.28 958.28 0 0 1 -8.17-28.53l1.05-.04 37.61-19.82c-.89 42.551 26.38 53.671 50.61 114.511z"/><path d="m318.29 486.99c-1.84-12.061-4.35-23.58-7.7-34.17-2.64-8.36-5.37-15.96-8.14-22.9-24.23-60.84-51.5-71.96-50.61-114.51.05-2.12.16-4.31.35-6.6.77-9.34 2.13-19.38 3.77-29.94h.01c7.95.07 45.35.25 48.45-1.74l2.76 1.47c-7.58 14.17-13.99 26.37-16.28 36.2-8.84 38.09-13.75 44.19 10.44 78.69 24.18 34.49 60.03 86.479 57.13 166.42-2.33 64.3-17.16 115.09-25.33 138.58l-3.28-.87s-10.83-2.08-24.55-13.14l5.42-.551s6.13-33.37 9.58-77.52c2.86-36.689 3.88-80.819-2.02-119.419z"/><path d="m318.29 486.99c5.9 38.6 4.88 82.729 2.02 119.42l-4.12-.12-62.48-28.78c-2.92-15.43-4.89-30.22-6.35-44.46a832.88 832.88 0 0 1 -1.76-19.8l4.74-.03z"/><path d="m253.71 577.51c1.52 8.08 3.31 16.34 5.42 24.79 11.38 45.61 30.64 69.66 46.18 82.181 13.72 11.06 24.55 13.14 24.55 13.14l3.28.87c-3.19 9.189-5.36 14.2-5.36 14.2s-.62 1.88-1.88 5.05l-.36-.15s-48.68-17.14-88.78-55.97c-12.54-12.13-24.24-26.39-33.34-42.9-5.55-10.04-10.13-20.92-13.36-32.66l2.26-.609 53.7-52.26 1.34-.141c1.46 14.239 3.43 29.029 6.35 44.459zm-9.13-78.38-3.18.21c-23.83-5.75-63.76-14.399-63.76-14.399l-3.71.42c-2.49-21.841-4.38-42.271-6.46-62.43l1.54-.16c2.3-2.86 46.83-52.8 52.34-58.97 2.6 8.59 5.29 17.09 8.05 25.47 11.24 34.129 12.5 69.909 15.18 109.859z"/><path d="m247.36 533.05-1.34.141-53.7 52.26-2.26.609c-1.01-3.649-1.89-7.39-2.62-11.21-3.02-15.77-5.51-30.58-7.62-44.649-2.37-15.76-4.25-30.601-5.89-44.84l3.71-.42s39.93 8.649 63.76 14.399l3.18-.21c.32 4.65.65 9.351 1.02 14.12.5 6.48 1.08 13.08 1.76 19.8zm68.83 73.24 4.12.12c-3.45 44.149-9.58 77.52-9.58 77.52l-5.42.551c-15.54-12.521-34.8-36.57-46.18-82.181-2.11-8.45-3.9-16.71-5.42-24.79zm-106.3-540.69s4.28-1.79 11.35-3.51c-15.17 22.38-24.11 49.1-28.29 78.46l-2.78-.4-35.01-23.11-.99-.38c4.25-11.29 9.69-20.62 16.54-27.3l-.32-.36c12.62-10.95 26.04-18.66 39.5-23.4z"/></g><g fill="none" stroke="#231f20" stroke-width="21"><path d="m607.09 429.65s-85.75-63.46-94.45-144.771c-5.449-50.94 4.9-163.34 44.761-181.58 39.85-18.24 72.01-14.23 92.989 38.49 20.99 52.73 27.61 138.57 23.181 181.32-4.431 42.74-30.66 80.54-45.91 94.87-15.241 14.331-20.571 11.671-20.571 11.671zm-73.22 6.35s103.76 24.79 143.62 96.18c24.979 44.73 59.49 152.221 29.97 184.61-29.52 32.39-60.68 41.32-100.65 1.03-39.97-40.301-79.68-116.681-92.359-157.74-12.67-41.07-3.33-86.13 5.069-105.29 8.41-19.15 14.35-18.79 14.35-18.79z"/><path d="m467.07 514.24s12.189-135.07 14.17-171.12c1.99-36.05-11.57-162.56 33.92-236.62 35.45-57.71 92.24-64.86 137.71-19.76 0 0 35.439 32.53 51.1 110.83 16.431 82.15 24.88 142.69-3.51 193.44-28.38 50.75-40.02 70.11-35.47 85.51 4.54 15.4 69.67 112.271 82 150.25 12.34 37.99 14.2 125.591-39.4 152-36.55 18.011-75.81 16.881-112.55-15.84-36.71-32.71-85.83-83.34-114.22-154.3-15.66-39.15-13.75-94.39-13.75-94.39zm-133.93 184.25c-3.19 9.189-5.36 14.2-5.36 14.2s-.62 1.88-1.88 5.05c-9.07 23.02-51.06 114.18-125.8 49.72-8.96-7.729-16.94-15.2-24.04-22.44-49.33-50.31-56.05-89.369-53.28-125.68.61-8.05 1.7-15.96 2.88-23.83 4.31-28.649 7.15-52.37 8.81-72.24 5.16-61.939-1.12-86.399-9.68-105.89-10.83-24.65-18.37-50.07-22.57-76.41-4.52-28.18-5.22-57.43-2.06-87.92 1.61-15.75 4.26-31.83 7.95-48.27 12.28-54.78 35.48-92.56 62.28-115.78 12.62-10.95 26.04-18.66 39.5-23.4 0 0 4.28-1.79 11.35-3.51 4.98-1.21 11.36-2.38 18.6-2.86 22.33-1.49 52.92 3.61 76.59 34.44 5.12 6.65 9.9 14.49 14.21 23.73 16.54 35.45 14.1 68.84 4.93 98.5-7.26 23.52-18.76 44.7-28.39 62.7-7.58 14.17-13.99 26.37-16.28 36.2-8.84 38.09-13.75 44.19 10.44 78.69 24.18 34.49 60.03 86.479 57.13 166.42-2.33 64.3-17.16 115.09-25.33 138.58z"/><path d="m325.54 717.59s-48.68-17.14-88.78-55.97c-12.54-12.13-24.24-26.39-33.34-42.9-5.55-10.04-10.13-20.92-13.36-32.66-1.01-3.649-1.89-7.39-2.62-11.21-3.02-15.77-5.51-30.58-7.62-44.649-2.37-15.76-4.25-30.601-5.89-44.84-2.49-21.841-4.38-42.271-6.46-62.43-2.27-22.09-4.77-43.85-8.53-66.82-1.36-8.31-2.88-16.79-4.62-25.49-2.11-10.55-4.04-21.77-5.73-33.39-2.45-16.9-4.38-34.65-5.56-52.42-.56-8.29-.94-16.58-1.14-24.79-.97-39.27 2.3-76.76 12.28-103.36 4.25-11.29 9.69-20.62 16.54-27.3"/><path d="m222.33 60.52-1.09 1.57c-15.17 22.38-24.11 49.1-28.29 78.46-1.1 7.7-1.88 15.59-2.35 23.62-.58 10.14-.7 20.51-.39 31.07.38 12.88 1.39 26.02 2.93 39.32 3.16 27.16 8.54 54.97 15.33 82.48 1.5 6.09 3.08 12.17 4.71 18.23a958.28 958.28 0 0 0 8.17 28.53c2.6 8.59 5.29 17.09 8.05 25.47 11.24 34.13 12.5 69.91 15.18 109.86.32 4.65.65 9.351 1.02 14.12.5 6.48 1.08 13.08 1.76 19.8 1.46 14.24 3.43 29.03 6.35 44.46 1.52 8.08 3.31 16.34 5.42 24.79 11.38 45.61 30.64 69.66 46.18 82.181 13.72 11.06 24.55 13.14 24.55 13.14"/><path d="m255.97 278.87c.91-5.91 1.92-11.98 2.95-18.18 3.95-23.6 8.32-48.99 10-74.16.95-14.09 1.05-28.11-.25-41.7-.89-9.43-2.46-18.65-4.88-27.56-1.89-6.96-4-13.47-6.16-19.44-8.48-23.39-17.77-38.29-17.77-38.29m70.87 624.39s6.13-33.37 9.58-77.52c2.86-36.69 3.88-80.82-2.02-119.42-1.84-12.061-4.35-23.58-7.7-34.17-2.64-8.36-5.37-15.96-8.14-22.9-24.23-60.84-51.5-71.96-50.61-114.51.05-2.12.16-4.31.35-6.6.77-9.34 2.13-19.38 3.77-29.94m-63.64 306.58 53.7-52.26m-68.38-48.25s39.93 8.649 63.76 14.399m-72.39-76.569c2.3-2.86 46.83-52.8 52.34-58.97.37-.41.56-.63.56-.63m-74.04-66.19.72.25 58.13 20.25m-68.49 206.11 39.73 6.8m23.66 89.33-78.84-.38-2.88-.01m118.53 39.99-1.67 2.3-59.65 82.35"/><path d="m252.66 577.02 1.05.49 62.48 28.78m-65.85-93.07 67.95-26.23 2.42-.93m-78.31-71.29 60.05 15.15 6.75 1.7m-94.97-96.39 37.61-19.82.13-.07m-152.29 24.95 2.54.68 56.72 15.14h.02m-61.14-101.01 2.34-2.05 37.47-32.92m3.81 26.5 1.59-1.82 42.95-49.45m-30.82-78.32 35.01 23.11m2.86 94.36.11.05 65.78 26.13.09.04m-68.07-96.54 77.73-19.36 1.79-.45m-1.92 41.98.38.17 66.65 29.37 2.2.97m-83.28 61.99s.53.01 1.47.01h.01c7.95.07 45.35.25 48.45-1.74m-42.83-180.04 54.41-3.09"/></g><path d="m0 0h850.394v850.394h-850.394z" fill="none"/></svg>