<svg height="850.394" viewBox="0 0 850.394 850.394" width="850.394" xmlns="http://www.w3.org/2000/svg"><path d="m726 654v64h-620v-64h2z" fill="#a9d7f3"/><g fill="#a8d7f4"><path d="m578.65 438.42c-15.95 15.86-38.24-1.09-41.75-19.33-4.61-24.03 3.42-43.47 20.14-61.09h3.61c-5.801 19.95-1.96 28.23 8.59 37.07 11.52 9.68 24.06 28.78 9.41 43.35zm-17.6-81.76c-.14.45-.27.9-.399 1.34h-3.61c.71-.76 1.44-1.51 2.19-2.26zm9.99-96.11c-15.95 15.86-38.25-1.09-41.75-19.33-4.82-25.06 4.13-45.13 22.32-63.35l1.819.92c-6.359 20.92-2.59 29.36 8.19 38.41 11.531 9.68 24.071 28.78 9.421 43.35zm-56-110c-15.95 15.86-38.25-1.09-41.75-19.33-4.82-25.06 4.13-45.13 22.32-63.35l1.819.92c-6.359 20.92-2.59 29.36 8.19 38.41 11.531 9.68 24.071 28.78 9.421 43.35zm-5.97 351.67c-15.95 15.88-38.24-1.1-41.75-19.34-4.82-25.06 4.14-45.13 22.33-63.34l1.819.91c-6.38 20.93-2.59 29.37 8.181 38.42 11.53 9.67 24.07 28.77 9.42 43.35zm-7.62-177.88c-15.95 15.89-38.24-1.09-41.74-19.33-4.82-25.06 4.13-45.13 22.33-63.34l1.82.91c-6.38 20.93-2.591 29.36 8.18 38.42 11.53 9.67 24.07 28.77 9.41 43.34zm-56.41 94.21c-15.95 15.86-38.24-1.09-41.75-19.33-2.96-15.38-.73-28.88 5.63-41.22h15.7c1.03 7.13 4.88 12.07 11 17.2 11.53 9.67 24.07 28.78 9.42 43.35zm.41-204.21c-15.95 15.89-38.24-1.09-41.74-19.33-4.82-25.06 4.13-45.13 22.33-63.34l1.82.91c-6.38 20.93-2.59 29.36 8.18 38.42 11.53 9.67 24.07 28.77 9.41 43.34zm-32.39 136.65c3.46-5.21 7.67-10.23 12.55-15.12l1.82.92c-1.68 5.54-2.66 10.21-2.97 14.24z"/><path d="m424.62 358h-15.7a72.71 72.71 0 0 1 4.14-7.01l11.4.04c-.21 2.56-.15 4.86.16 6.97zm-63.01-150.13 1.82.92c-6.36 20.92-2.59 29.36 8.19 38.41 11.53 9.67 24.07 28.78 9.42 43.35-15.95 15.86-38.25-1.1-41.75-19.33-4.82-25.06 4.13-45.13 22.32-63.35zm-19.75 184.71c-6.38 20.93-2.59 29.36 8.18 38.42 11.53 9.67 24.07 28.77 9.41 43.34-15.95 15.891-38.24-1.09-41.74-19.33-4.82-25.06 4.13-45.13 22.33-63.34zm-64.31-42.03 36.98.12c-.85 1.25-1.87 2.48-3.08 3.68-1.51 1.51-3.08 2.72-4.69 3.65h-19.87c-3.45-1.78-6.65-4.37-9.34-7.45zm29.21 7.45c-6.51 3.83-13.61 3.22-19.87 0z"/><path d="m292.04 271.67 1.82.91c-6.38 20.93-2.59 29.37 8.18 38.42 10.58 8.87 22.01 25.69 12.49 39.67l-36.98-.12c-3.91-4.45-6.76-9.93-7.84-15.54-4.82-25.06 4.13-45.13 22.33-63.34z"/></g><g fill="none" stroke="#231f20"><path d="m726 352v366h-620v-368" stroke-width="21"/><path d="m361.61 207.87c-18.19 18.22-27.14 38.29-22.32 63.35 3.5 18.23 25.8 35.19 41.75 19.33 14.65-14.57 2.11-33.68-9.42-43.35-10.78-9.05-14.55-17.49-8.19-38.41zm-47.08 142.8c9.52-13.98-1.91-30.8-12.49-39.67-10.77-9.05-14.56-17.49-8.18-38.42l-1.82-.91c-18.2 18.21-27.15 38.28-22.33 63.34 1.08 5.61 3.93 11.09 7.84 15.54 2.69 3.08 5.89 5.67 9.34 7.45 6.26 3.22 13.36 3.83 19.87 0 1.61-.93 3.18-2.14 4.69-3.65 1.21-1.2 2.23-2.43 3.08-3.68zm237.08-172.8c-18.19 18.22-27.141 38.29-22.32 63.35 3.5 18.24 25.8 35.19 41.75 19.33 14.65-14.57 2.11-33.67-9.42-43.35-10.78-9.05-14.55-17.49-8.19-38.41zm-69.57 63.8c-18.2 18.21-27.15 38.28-22.33 63.34 3.5 18.24 25.79 35.22 41.74 19.33 14.66-14.57 2.12-33.67-9.41-43.34-10.771-9.06-14.56-17.49-8.18-38.42zm-57.58 109.36c.31-4.03 1.29-8.7 2.97-14.24l-1.82-.92c-4.88 4.89-9.09 9.91-12.55 15.12a72.71 72.71 0 0 0 -4.14 7.01c-6.36 12.34-8.59 25.84-5.63 41.22 3.51 18.24 25.8 35.19 41.75 19.33 14.65-14.57 2.11-33.68-9.42-43.35-6.12-5.13-9.97-10.07-11-17.2-.31-2.11-.37-4.41-.16-6.97zm-84.42 40.64c-18.2 18.21-27.15 38.28-22.33 63.34 3.5 18.24 25.79 35.221 41.74 19.33 14.66-14.57 2.12-33.67-9.41-43.34-10.77-9.06-14.56-17.49-8.18-38.42zm219.19-35.93c-.75.75-1.48 1.5-2.19 2.26-16.72 17.62-24.75 37.06-20.14 61.09 3.51 18.24 25.8 35.19 41.75 19.33 14.649-14.57 2.109-33.67-9.41-43.35-10.55-8.84-14.391-17.12-8.59-37.07.13-.44.26-.89.399-1.34zm-69.58 63.8c-18.19 18.21-27.15 38.28-22.33 63.34 3.51 18.24 25.8 35.22 41.75 19.34 14.649-14.58 2.109-33.68-9.42-43.35-10.771-9.05-14.561-17.49-8.181-38.42zm5.96-351.67c-18.19 18.22-27.141 38.29-22.32 63.35 3.5 18.24 25.8 35.19 41.75 19.33 14.65-14.57 2.11-33.67-9.42-43.35-10.78-9.05-14.55-17.49-8.19-38.41zm-69.57 63.8c-18.2 18.21-27.15 38.28-22.33 63.34 3.5 18.24 25.79 35.22 41.74 19.33 14.66-14.57 2.12-33.67-9.41-43.34-10.77-9.06-14.56-17.49-8.18-38.42z" stroke-width="5.91"/><g stroke-width="7"><path d="m106 358h622" stroke-dasharray="30 14"/><path d="m108 654h618"/></g></g><path d="m0 0h850.394v850.394h-850.394z" fill="none"/></svg>