<svg height="850.394" viewBox="0 0 850.394 850.394" width="850.394" xmlns="http://www.w3.org/2000/svg"><path d="m785.16 684.35 9.5 50-21.3 1.91v.1l-565.85 51.8 577.15-106.31z" fill="#ffeec8"/><path d="m631.35 491.83 10.5 56.8-322.23 59.32-10.5-56.82zm-98.92-327.33 48.11 261.33-260.02 47.91-48.11-261.43z" fill="#be0000"/><path d="m130.06 308.57 81.85 444.98-.74 1.84z"/><path d="m130.06 308.57 81.11 446.82-6.66 16.56-72.41-394.03-32.8-178.51 13.5 15.3zm2.04 69.35 72.41 394.03-7.41 18.51-3.19.6h-4.2l-8.6-44.91-9.71-50.9-9.8-51.61-9.89-51.9-10.01-52.1-9.7-51.3-9.8-50.91-10.6-55.81 14.1-2.5z"/><path d="m207.51 788.16 565.85-51.8.6 6.09 5.3 51.01-582.45-2.4.29-.6 7.41-18.51z" fill="#ffeec8"/><path d="m193.91 791.06 3.19-.6-.29.6zm2.9 0-4.8 12.1-2.21-11.3 4.11-.8zm-7.1 0h4.2l-4.11.8zm-90.41-591.65 32.8 178.51-6.4 1.2-14.1 2.5-9.9-51.9-9.9-52.01-9.8-51.4-9.71-50.91 4.91-.89z"/><path d="m211.17 755.39.74-1.84-81.85-444.98-17.26-93.86-13.5-15.3-5.1-27.6 583.24-107.31 113.42 616.25-6.2 1.1-577.15 106.31-3-16.21zm430.68-206.76-10.5-56.8-322.229 59.3 10.5 56.82zm-61.31-122.8-48.11-261.33-260.02 47.81 48.11 261.43z" fill="#be0000"/><path d="m70.7 167.21 6.5 7.3-4.91.89z"/><g fill="none"><g stroke="#000"><path d="m99.3 199.41-5.1-27.6 583.24-107.31 113.42 616.25-6.2 1.1-577.15 106.31-3-16.21" stroke-width="35.78"/><path d="m580.54 425.83-260.02 47.91-48.11-261.43 260.02-47.81zm61.31 122.8-322.23 59.32-10.5-56.82 322.23-59.3zm-434.34 239.53 565.85-51.8v-.1l21.3-1.91-9.5-50m-588.35 106.71 582.45 2.4-5.3-51.01m-586.55 48.61h2.3" stroke-width="26.835"/><path d="m72.29 175.4-11.3 2.1m26.51-4.89-10.3 1.9m4.8 51.8-11.7 2.2m21.5 49.2-12.1 2.21m22 49.8-12.3 2.2m22.2 49.7-12.5 2.3m23.1 53.51-13.3 2.4m23.1 48.51-13.8 2.5m23.5 48.8-14.1 2.6m24.11 49.5-14.41 2.6m24.3 49.3-14.6 2.71m24.4 48.9-15.4 2.8m25.11 48.1-15.8 2.9m31.79 41.41 7.31-1.3m-26.6 4.9 11.99-2.2" stroke-linecap="round" stroke-linejoin="round" stroke-width="35.78"/><path d="m196.81 791.06-4.8 12.1-2.21-11.3-.09-.8-8.6-44.91-9.71-50.9-9.8-51.61-9.89-51.9-10.01-52.1-9.7-51.3-9.8-50.91-10.6-55.81-9.9-51.9-9.9-52.01-9.8-51.4-9.71-50.91-1.59-8.19 6.5 7.3 22.1 24.9 13.5 15.3 17.26 93.86 81.85 444.98-.74 1.84-6.66 16.56-7.41 18.51z" stroke-linecap="round" stroke-linejoin="round" stroke-width="8.945"/><path d="m106 176 24.06 132.57 81.11 446.82 4.83 26.61" stroke-width="20"/></g><path d="m0 0h850.394v850.394h-850.394z"/></g></svg>