<svg height="850.394" viewBox="0 0 850.394 850.394" width="850.394" xmlns="http://www.w3.org/2000/svg"><path d="m447.65 125.23c1.89-12.28 3.479-22.53 4.619-29.91l5.731.68 73.19 11.19-4.39 29.21-2.37-.36-71.04-10.68z" fill="#c8c8c8"/><path d="m417.07 503.47-44.77 260.35c-1.84 14.689-15.24 25.1-29.93 23.26-13.55-1.71-23.47-13.25-23.47-26.57 0-1.109.07-2.24.21-3.37l6.91-54.529 32-209.69 59.04 10.55h.01z" fill="#abda4d"/><path d="m417.06 503.47-59.04-10.55 58.99-386.54 4.97-28.87c1.39-8.9 9.75-15 18.65-13.61 8.061 1.26 13.82 8.2 13.82 16.1 0 .84-.07 1.69-.2 2.55l-1.98 12.77c-1.14 7.38-2.729 17.63-4.619 29.91-4.37 28.23-10.37 67.18-16.37 106.57-1.83 11.99-3.66 24.02-5.44 35.81-1.88 12.39-3.71 24.5-5.43 36-1.91 12.77-3.7 24.77-5.28 35.55-1.94 13.15-3.57 24.48-4.77 33.16-1.41 10.2-2.22 16.72-2.22 18.2 0 11.18 1.56 25.44 9.48 44.7 5.09 12.4 0 65.03 0 65.03l-.55 3.22z" fill="#abda4d"/><g fill="#c8c8c8"><path d="m505.32 279.25-5.46 36.31-4.351-.65-72.22-10.86-2.88-.44c1.72-11.5 3.55-23.61 5.43-36l2.91.13 72.23 10.86zm-10.8 71.83-4.869 32.36-73.41-11.04-5.88-.08c1.2-8.68 2.83-20.01 4.77-33.16l5.19.76 69.85 10.51z"/><path d="m499.86 315.56-5.341 35.52-4.35-.65-69.85-10.51-5.19-.76c1.58-10.78 3.37-22.78 5.28-35.55l2.88.44 72.22 10.86zm10.8-71.82-5.34 35.51-4.34-.65-72.23-10.86-2.91-.13c1.78-11.79 3.61-23.82 5.44-35.81l2.819.43 72.21 10.86z"/><path d="m431.28 231.8c6-39.39 12-78.34 16.37-106.57l5.739.13 71.04 10.68 2.37.36-16.14 107.34-4.351-.65-72.21-10.86z"/></g><g fill="none" stroke="#231f20" stroke-width="21"><path d="m358.02 492.92 58.99-386.54 4.97-28.87c1.39-8.9 9.75-15 18.65-13.61 8.061 1.26 13.82 8.2 13.82 16.1 0 .84-.07 1.69-.2 2.55l-1.98 12.77c-1.14 7.38-2.729 17.63-4.619 29.91-4.37 28.23-10.37 67.18-16.37 106.57-1.83 11.99-3.66 24.02-5.44 35.81-1.88 12.39-3.71 24.5-5.43 36-1.91 12.77-3.7 24.77-5.28 35.55-1.94 13.15-3.57 24.48-4.77 33.16-1.41 10.2-2.22 16.72-2.22 18.2 0 11.18 1.56 25.44 9.48 44.7 5.09 12.4 0 65.03 0 65.03l-.55 3.22-44.771 260.35c-1.84 14.689-15.24 25.1-29.93 23.26-13.55-1.71-23.47-13.25-23.47-26.57 0-1.109.07-2.24.21-3.37l6.91-54.529zm0 0 59.04 10.55"/><path d="m458 96 73.19 11.19-4.39 29.21-16.14 107.34-5.34 35.51-5.46 36.31-5.34 35.52-4.87 32.36-73.41-11.04m37.15-247.04 71.04 10.68m-78.63 23.69 69.46 10.44m-75.71 25.75 70.26 10.56m-75.71 25.75 72.21 10.86m-77.56 24.65 72.23 10.86m-77.69 25.45 72.22 10.86m-75.19 25.01 69.85 10.51"/></g><path d="m0 0h850.394v850.394h-850.394z" fill="none"/></svg>