<svg height="850.394" viewBox="0 0 850.394 850.394" width="850.394" xmlns="http://www.w3.org/2000/svg"><path d="m212.458 750.551h211.647" fill="none"/><circle cx="228.738" cy="750.551" fill="#060606" r="13.567"/><circle cx="258.586" cy="750.551" fill="#060606" r="13.567"/><circle cx="288.434" cy="750.551" fill="#060606" r="13.567"/><circle cx="318.282" cy="750.551" fill="#060606" r="13.567"/><circle cx="348.13" cy="750.551" fill="#060606" r="13.567"/><circle cx="377.978" cy="750.551" fill="#060606" r="13.567"/><circle cx="407.826" cy="750.551" fill="#060606" r="13.567"/><path d="m641.88 739.88v.5h-214.7l.931.061h-211.101v-.28s-.13-37.87 8.31-95.88c12.82-88.08 49.33-232.58 61.98-273.72 12.66-41.14-16.62-134.48-16.62-134.48 43.25-47.47 33.7-128.69 33.7-128.69l43.21-5.86s18.02 101.85 78.41 101.85c56.55 0 85.03-101.91 85.03-101.91l45.5 4.87s-11.84 82.21 31.41 129.68c0 0-29.29 93.35-16.631 134.49 12.66 41.13 49.171 185.641 61.98 273.71 8.441 58.019 8.591 95.659 8.591 95.659z" fill="#ffeec8"/><path d="m641.88 739.88s-.149-37.64-8.59-95.66c-12.81-88.069-49.32-232.58-61.98-273.71-12.659-41.14 16.631-134.49 16.631-134.49-43.25-47.47-31.41-129.68-31.41-129.68l-45.5-4.87s-28.48 101.91-85.03 101.91c-60.39 0-78.41-101.85-78.41-101.85l-43.21 5.86s9.55 81.22-33.7 128.69c0 0 29.28 93.34 16.62 134.48-12.65 41.14-49.16 185.64-61.98 273.72-8.44 58.01-8.31 95.88-8.31 95.88m425.319.22h-215.15l.93.06h-211.79" fill="none" stroke="#000" stroke-width="18.986"/><path d="m646.031 750.495h-222.451" fill="none"/><g fill="#060606"><circle cx="631.867" cy="750.495" r="13.567"/><circle cx="604.135" cy="750.495" r="13.567"/><circle cx="576.403" cy="750.495" r="13.567"/><circle cx="548.671" cy="750.495" r="13.567"/><circle cx="520.939" cy="750.495" r="13.567"/><circle cx="493.207" cy="750.495" r="13.567"/><circle cx="465.476" cy="750.495" r="13.567"/><circle cx="437.743" cy="750.495" r="13.567"/></g><path d="m0 0h850.394v850.394h-850.394z" fill="none"/></svg>