<svg height="850.394" viewBox="0 0 850.394 850.394" width="850.394" xmlns="http://www.w3.org/2000/svg"><path d="m224.71 526.74 27.72 200.81-99.08 9.37v-119.66z" fill="#f6cc4b"/><path d="m183 82h25l.02.96-18.69.45 98.42 693.93-13.89 2.08-14.77-3.64-6.66-48.23-27.72-200.81-59.36-429.94z" fill="#f6cc4b"/><path d="m287.75 777.34-98.42-693.93 18.69-.45 403.04-9.59 93.721 639.28-416.711 66.94zm348.41-133.86-74.75-492.02-293.42 12.28 75.86 525.479z" fill="#ef947d"/><path d="m561.41 151.46 74.75 492.02-292.31 45.74-75.86-525.48z" fill="#fff5b4"/><g fill="none"><g stroke="#231f20" stroke-width="20.082"><path d="m287.75 777.34-98.42-693.93 18.69-.45 403.04-9.59 93.72 639.28-416.71 66.94zm-5.85 4.06-8.04-1.98-14.77-3.64-6.66-48.23-27.72-200.81-59.36-429.94 17.65-14.8 1.31-1.1"/><path d="m267.99 163.74 293.42-12.28 74.75 492.02-292.31 45.74zm-43.28 363-71.36 90.52v119.66l99.08-9.37"/></g><path d="m0 0h850.394v850.394h-850.394z"/></g></svg>