<svg height="850.394" viewBox="0 0 850.394 850.394" width="850.394" xmlns="http://www.w3.org/2000/svg"><path d="m729.75 434h-302.58v-5.03l144.83-254.97.25-1.75c94.29 49.75 158.97 148.07 160.75 261.68z" fill="#eedceb"/><path d="m429.88 434h299.87l3.25-.07c.03 1.601.04 3.2.04 4.811 0 56.92-15.79 110.149-43.23 155.55l-3.81-2.291-258.83-154.7v-3.3z" fill="#0d72ba"/><path d="m427.17 141.88v294l-2.82-1.7-250.33-150.96c51.94-85.97 145.67-143.86 253.06-145.55h.04z" fill="#fbee34"/><path d="m174.02 283.22 250.33 150.96-210.35 207.82-2.54 1.88c-50.06-53.77-80.67-125.88-80.67-205.14 0-56.9 15.78-110.13 43.23-155.52z" fill="#33a048"/><path d="m427.17 428.97v-287.09l-.05-4.21c1.6-.03 3.189-.04 4.8-.04 50.68 0 98.43 12.51 140.33 34.62l-.25 1.75z" fill="#9e5c26"/><path d="m686 592 3.81 2.29c-52.73 87.26-148.49 145.59-257.89 145.59-87.06 0-165.48-36.939-220.46-96l2.54-1.88 210.35-207.82 2.82 1.7v1.42z" fill="#ed1d31"/><g fill="none"><g stroke="#231f20"><path d="m431.92 137.63c50.68 0 98.43 12.51 140.33 34.62 94.29 49.75 158.97 148.07 160.75 261.68.03 1.601.04 3.2.04 4.811 0 56.92-15.79 110.149-43.23 155.55-52.73 87.259-148.49 145.589-257.89 145.589-87.06 0-165.48-36.939-220.46-96-50.06-53.77-80.67-125.88-80.67-205.14 0-56.9 15.78-110.13 43.23-155.52 51.94-85.97 145.67-143.86 253.06-145.55h.04c1.6-.03 3.19-.04 4.8-.04" stroke-width="21"/><g stroke-width="7"><path d="m686 592-258.83-154.7v-295.42"/><path d="m172 282 2.02 1.22 250.33 150.96 2.82 1.7 6.83 4.12m-7.05-10.64.22-.39 144.83-254.97"/><path d="m425.42 433.13-1.07 1.05-210.35 207.82m215.88-208h299.87"/></g></g><path d="m0 0h850.394v850.394h-850.394z"/></g></svg>