<svg height="850.394" viewBox="0 0 850.394 850.394" width="850.394" xmlns="http://www.w3.org/2000/svg"><path d="m694.6 488.77 25.521-17.63c-4.86 10.5-10.94 20.051-18 28.38zm-8.73-184.98-.01.02-11.091 7.66-15.579-22.29c2.52.88 5.01 1.87 7.449 2.97 6.781 3.06 13.221 6.98 19.231 11.64zm-29.18 211.19 8.72 12.35c-10.65 4.62-22.11 7.13-34.05 7.13-.94 0-1.87-.02-2.801-.05l18.091-12.5z" fill="#f6cc4b"/><path d="m659.19 289.18a84.229 84.229 0 0 0 -16.521-3.93 83.064 83.064 0 0 0 -14.94-.69c.68-2.48 1.579-5 2.51-7.34a109.7 109.7 0 0 1 3.51-7.9c6.73-13.68 16.83-26.92 29.97-34.19 1.53-.85 3.08-1.69 4.641-2.5 12.02-6.3 24.77-11.32 38.21-10.72 7.77.35 24.88 3.63 30.59 14.47-16.47-7.94-45.46 2.96-55.93 16.34-7.681 9.8-13.391 24.78-14.011 38.17l-.58 1.26a91.513 91.513 0 0 0 -7.449-2.97z" fill="#abda4d"/><path d="m673.37 178.98c10.66-5.14 21.88-8.91 33.59-8.38 7.771.36 24.89 3.63 30.6 14.46-16.489-7.94-45.46 2.96-55.939 16.36-6.36 8.12-11.37 19.81-13.26 31.2v.01c-1.561.81-3.11 1.65-4.641 2.5-13.14 7.27-23.239 20.51-29.97 34.19-1 2.03-2.29 4.82-3.51 7.9a120.36 120.36 0 0 0 -3.3-7.37c-1.301-2.65-2.86-5.32-4.61-7.94-1.57-5.52 4.3-24.42 8.56-35.91 1.341-3.61 2.521-6.48 3.261-7.99.93-1.88 1.909-3.75 2.97-5.6 6.59-11.61 15.66-22.32 26.99-28.6a197.66 197.66 0 0 1 9.259-4.83z" fill="#abda4d"/><path d="m656.58 140.11c13.2-18.23 31.56-35.31 56.86-45.04 0 0-23.4 34.12-33.71 61.21-3.091 8.1-5.08 16.01-6.36 22.7-3.13 1.52-6.22 3.15-9.26 4.83-11.33 6.28-20.4 16.99-26.99 28.6l-.32-.18s-1.439-8.78-5.64-21.74c4.75-14.17 12.69-32.81 25.42-50.38zm-25.23-59.12.01.01c-14.15 28.13-17.69 67.6-17.69 67.6l-1.2.73c-2.279-3.76-4.76-7.52-7.46-11.24l.7-.51s-3.25-39.56-3.25-52.6c0-13.03-9.51-35.01-9.51-35.01s3.28-3.28 12.91 3.84c9.64 7.12 25.49 27.18 25.49 27.18z" fill="#abda4d"/><path d="m658.58 84.98c2.9 14.53.27 39.25-2 55.13-12.73 17.57-20.67 36.21-25.42 50.38-3.74-11.51-9.65-26.31-18.69-41.16l1.2-.73s3.54-39.47 17.69-67.6c1.08-2.15 2.22-4.23 3.42-6.22 11.92-19.69 13.81-22.64 13.88-22.63 0 .04-.28.53-.28.53s5.75 10.08 10.2 32.3z" fill="#abda4d"/><path d="m631.16 190.49c4.2 12.96 5.64 21.74 5.64 21.74l.32.18a103.22 103.22 0 0 0 -2.97 5.6c-.74 1.51-1.92 4.38-3.261 7.99l-.26-.09a115.08 115.08 0 0 0 -3.3-7.37c-6.74-13.68-20.061-27.67-33.2-34.94-3.57-1.98-7.22-3.9-10.93-5.63l5.149-.83c-1.29-6.69-3.29-14.6-6.369-22.72-10.301-27.09-33.711-61.21-33.711-61.21 25.221 9.7 43.551 26.71 56.74 44.88 2.7 3.72 5.181 7.48 7.46 11.24 9.042 14.85 14.952 29.65 18.692 41.16z" fill="#abda4d"/><path d="m630.63 225.91.26.09c-4.26 11.49-10.13 30.39-8.56 35.91-7.28-10.91-18-21.13-28.6-27.01-1.25-.69-2.5-1.37-3.761-2.04-1.83-11.54-6.88-23.42-13.34-31.66-10.479-13.4-39.45-24.29-55.939-16.35 5.71-10.85 22.829-14.12 30.6-14.46 11.1-.5 21.76 2.85 31.91 7.58 3.71 1.73 7.359 3.65 10.93 5.63 13.14 7.27 26.46 21.26 33.2 34.94.94 1.92 2.14 4.5 3.3 7.37z" fill="#abda4d"/><path d="m622.33 261.91c1.75 2.62 3.31 5.29 4.61 7.94.939 1.93 2.14 4.51 3.3 7.37-.931 2.34-1.83 4.86-2.51 7.34-13.091.56-25.54 4.14-36.921 10.19l-.5-1.21c.11-14.07-5.84-30.53-14.069-41.03-10.49-13.4-39.46-24.29-55.95-16.35 5.71-10.84 22.83-14.11 30.61-14.46 13.75-.62 26.8 4.67 39.069 11.16 1.261.67 2.511 1.35 3.761 2.04 10.6 5.88 21.32 16.1 28.6 27.01zm111.06 147.56v.44h-.529l-15.71-20.12-21.83 17.28-3.03 2.12-8.58-12.27 25.14-17.39 9.11-6.29 14.67 20.98c.499 5 .759 10.09.759 15.25z" fill="#abda4d"/><path d="m733.29 414.51h.01c-.45 14.03-2.79 27.46-6.72 39.92l-3.39-1.06-15.03-21.49zm-38.69 74.26 7.521 10.75c-10.36 12.23-22.851 21.811-36.71 27.811l-8.72-12.35 26.649-18.431z" fill="#f6cc4b"/><path d="m723.19 453.37 3.39 1.06c-1.75 5.61-3.84 11.03-6.23 16.221l-.71-.32-15.71-20.14-21.84 17.3-1.59 1.109-8.3-11.859 26.569-18.37 9.391-6.49zm-49.38-49.61 9.9-6.84 8.58 12.27 15.87 22.69-9.39 6.49-.39-.57-15.71-20.12-21.83 17.28-2.6 1.82-10.49-15.01zm-67.16 115.7 9.529 13.62c-12.18-2.22-23.649-7.08-34.02-14.09l16.29-11.26z" fill="#abda4d"/><path d="m680.5 468.6 14.1 20.17-11.26 7.78-.27-.39-15.71-20.13-21.84 17.29-2.75 1.94-8.63-12.21 25.01-17.29 13.05-9.02z" fill="#abda4d"/><path d="m642.77 495.26 13.92 19.72-10.04 6.93-.61-.89-15.7-20.14-21.85 17.29-1.84 1.29-8.2-11.73 24.35-16.84 11.34-7.84zm-7.08-65.15 12.06-8.34 10.49 15.01 13.96 19.96-13.05 9.02-.94-1.36-15.72-20.13-21.84 17.29-1.12.79-10-14.16z" fill="#abda4d"/><path d="m600.22 454.63 9.31-6.44 10 14.16 14.61 20.7-11.34 7.84-1.28-1.84-15.71-20.13-21.85 17.29-.38.26-9.59-13.71z" fill="#abda4d"/><path d="m561.12 454.36 12.87 18.399-10.061 6.95-.819-1.19-15.71-20.119-7.66 6.069c-1.42-3.52-2.7-7.12-3.83-10.819l3.64-1.131 13.681-9.449z" fill="#f6cc4b"/><path d="m553.23 443.07-13.681 9.449-3.64 1.131c-4.01-12.99-6.3-27.021-6.54-41.67l1.43-.98 7.87 11.25z" fill="#f6cc4b"/><g fill="#abda4d"><path d="m609.53 448.19-9.31 6.44-14.96-19.17-21.83 17.29-2.31 1.61-7.89-11.29 24.69-17.07 10.71-7.41 7.46 10.57z"/><path d="m635.28 403.94 12.47 17.83-12.06 8.34-15.5-19.85-21.83 17.29-2.27 1.61-7.46-10.57 23.88-16.51 14.48-10z"/><path d="m653.29 373.9 9.65-6.68 7.97 11.39 12.8 18.31-9.9 6.84-14.55-18.62-21.83 17.29-2.15 1.51-8.29-11.86z"/><path d="m687.29 350.39 9.91-6.85 20.76 29.7-9.11 6.29-14.87-19.05-21.85 17.28-1.22.85-7.97-11.39z"/><path d="m664.75 318.4 10.02-6.93 22.43 32.07-9.91 6.85-15.25-19.52-21.83 17.29-.4.28-9.3-13.28z"/><path d="m630.7 341.94 9.81-6.78 9.3 13.28 13.13 18.78-9.65 6.68-15.59-19.97-21.83 17.28-2.34 1.63-8.97-12.83z"/><path d="m626.99 392.08-14.48 10-15.71-20.12-21.83 17.29-8.91-12.62 27.62-19.1 10.88-7.52 8.97 12.83z"/><path d="m588.63 418.59-10.71 7.41-.98-1.42-15.71-20.12-21.83 17.28-.73.51-7.87-11.25 19.42-13.43 15.84-10.94 8.91 12.62z"/></g><path d="m543.08 354.09 9.24 13.09 13.739 19.45-15.84 10.94-2.17-3.14-13.449-19.13-1.359-.31c1.67-7.22 3.88-14.26 6.649-20.9-.08.19-.149.38-.22.57l1.65.65z" fill="#f6cc4b"/><path d="m591.63 341.52 12.93 18.49-10.88 7.52-.1-.15-15.7-20.12-21.84 17.29-3.72 2.63-9.24-13.09 22.67-15.66v-.01l15.99-11.05z" fill="#abda4d"/><path d="m627.79 316.97 12.72 18.19-9.81 6.78-15.03-19.24-21.83 17.28-2.21 1.54-9.89-14.15 17.61-12.17 18.34-12.68z" fill="#abda4d"/><path d="m674.77 311.47-10.02 6.93-14.79-18.95-21.84 17.29-.33.23-10.1-14.45 24.979-17.27c5.66.75 11.18 2.08 16.521 3.93z" fill="#abda4d"/><path d="m534.6 375.3 13.45 19.13 2.17 3.14-19.42 13.43-1.439-2.06h-.011c.04-11.24 1.32-22.82 3.891-33.95zm8.48-21.21-1.76 1.22-1.65-.65c.07-.19.14-.38.22-.57 4.311-10.68 9.841-20.49 16.351-29.17l.01.01 9.5 13.49v.01z" fill="#f6cc4b"/><path d="m581.74 327.37-15.99 11.05-9.5-13.49-.01-.01c4.06-5.41 8.5-10.38 13.27-14.85l.49.52z" fill="#f6cc4b"/><path d="m585.86 297.58 13.489 17.62-17.609 12.17-11.74-16.78-.49-.52c5.09-4.76 10.56-8.95 16.35-12.49zm31.83 4.94-18.34 12.68-13.489-17.62c1.62-1 3.27-1.94 4.949-2.83 11.381-6.05 23.83-9.63 36.921-10.19a83.075 83.075 0 0 1 14.94.69zm109.72 64.7-1.28.37-8.17 5.65-20.76-29.7 10.78-7.45 3.649-3.79c6.691 10.43 12.051 22.2 15.781 34.92z" fill="#f6cc4b"/><path d="m711.63 332.3-3.649 3.79-10.78 7.45-22.431-32.07 11.091-7.66.01-.02c9.859 7.65 18.579 17.31 25.759 28.51zm21.23 77.61h.529c0 1.54-.029 3.08-.09 4.6h-.01l-25.13 17.37-15.87-22.69 3.03-2.12 21.83-17.28zm-49.52 86.64-26.65 18.43-13.92-19.72 2.75-1.94 21.84-17.29 15.71 20.13zm36.3-26.22.71.32c-.069.159-.14.33-.229.489l-25.521 17.631-14.1-20.17 1.59-1.109 21.84-17.3zm-21.26-32.53.39.57-26.57 18.37-13.96-19.96 2.6-1.82 21.83-17.28zm-78.19-27.54 15.5 19.85-26.16 18.08-13.44-19.03 2.27-1.61zm38.02 54.14.94 1.36-25.01 17.29-14.61-20.7 1.12-.79 21.84-17.29zm-59.76 43.33-16.29 11.26c-18.311-12.38-33.19-31.45-42.42-54.521l7.66-6.069 15.71 20.119.819 1.19 10.061-6.95 9.59 13.71zm47.59 13.29.61.891-18.091 12.5a81.851 81.851 0 0 1 -12.38-1.33l-9.529-13.62 1.84-1.29 21.85-17.29z" fill="#f6cc4b"/><path d="m621.52 489.05 1.28 1.84-24.35 16.84-14.87-21.26.38-.26 21.85-17.29zm-36.26-53.59 14.96 19.17-26.23 18.13-12.87-18.4 2.31-1.61zm-8.32-10.88.98 1.42-24.69 17.07-14.56-20.82.73-.51 21.83-17.28zm35.57-22.5-23.88 16.51-13.66-19.34 21.83-17.29zm-18.93-34.7.1.15-27.62 19.1-13.74-19.45 3.72-2.63 21.84-17.29zm44.12-13.45 15.59 19.97-26.3 18.18-13.46-19.24 2.34-1.63zm36.11 49.83-26.06 18.01-12.47-17.83 2.15-1.51 21.83-17.29zm35.04-24.23-25.14 17.39-12.8-18.31 1.22-.85 21.85-17.28zm-36.81-48.66 15.25 19.52-24.35 16.83-13.13-18.78.4-.28zm-7.29-12.47-24.24 16.76-12.72-18.19.33-.23 21.84-17.29zm-49.08 4.3 15.03 19.24-26.14 18.07-12.93-18.49 2.21-1.54zm-186.64 46.94-37.1 352.11c0 38.87-53.82 70.38-120.22 70.38s-120.23-31.51-120.23-70.38l-37.1-352.12.18-.02c2.15 23.58 71.66 42.52 157.1 42.52 85.42 0 154.95-18.94 157.1-42.52z" fill="#f6cc4b"/><g fill="none" stroke="#231f20"><path d="m436.89 294.99c0 .91-.09 1.81-.279 2.7-5.03 24.08-76.94 43.17-164.9 43.17-87.97 0-159.88-19.09-164.91-43.17-.19-.89-.28-1.79-.28-2.7 0-25.33 73.96-45.87 165.19-45.87 91.219 0 165.179 20.54 165.179 45.87zm-8.08 73.49c0 .38-.02.75-.05 1.13-2.149 23.58-71.68 42.52-157.1 42.52-85.44 0-154.95-18.94-157.1-42.52-.03-.38-.05-.75-.05-1.13" stroke-width="21"/><path d="m106.52 294.99.28 2.7 7.58 71.94 37.1 352.12c0 38.87 53.83 70.38 120.23 70.38s120.22-31.51 120.22-70.38l37.1-352.11 7.58-71.95.279-2.7" stroke-width="21"/><path d="m538.72 357.09c.311-.82.62-1.62.95-2.43.07-.19.14-.38.22-.57" stroke-width="7.357"/><g stroke-width="14"><path d="m627.73 284.56c.68-2.48 1.579-5 2.51-7.34a109.7 109.7 0 0 1 3.51-7.9c6.73-13.68 16.83-26.92 29.97-34.19 1.53-.85 3.08-1.69 4.641-2.5 12.02-6.3 24.77-11.32 38.21-10.72 7.77.35 24.88 3.63 30.59 14.47-16.47-7.94-45.46 2.96-55.93 16.34-7.681 9.8-13.391 24.78-14.011 38.17m-36.98-13.67a120.36 120.36 0 0 0 -3.3-7.37c-1.301-2.65-2.86-5.32-4.61-7.94-7.28-10.91-18-21.13-28.6-27.01-1.25-.69-2.5-1.37-3.761-2.04-12.27-6.49-25.319-11.78-39.069-11.16-7.78.35-24.9 3.62-30.61 14.46 16.49-7.94 45.46 2.95 55.95 16.35 8.229 10.5 14.18 26.96 14.069 41.03"/><path d="m622.35 261.98c-.01-.02-.01-.04-.02-.07-1.57-5.52 4.3-24.42 8.56-35.91 1.341-3.61 2.521-6.48 3.261-7.99.93-1.88 1.909-3.75 2.97-5.6 6.59-11.61 15.66-22.32 26.99-28.6 3.04-1.68 6.13-3.31 9.26-4.83 10.66-5.14 21.88-8.91 33.59-8.38 7.771.36 24.89 3.63 30.6 14.46-16.489-7.94-45.46 2.96-55.939 16.36-6.36 8.12-11.37 19.81-13.26 31.2m-37.732-6.71a115.08 115.08 0 0 0 -3.3-7.37c-6.74-13.68-20.061-27.67-33.2-34.94-3.57-1.98-7.22-3.9-10.93-5.63-10.15-4.73-20.811-8.08-31.91-7.58-7.771.34-24.89 3.61-30.6 14.46 16.489-7.94 45.46 2.95 55.939 16.35 6.46 8.24 11.51 20.12 13.34 31.66"/><path d="m631.15 190.52c0-.01.01-.02.01-.03 4.75-14.17 12.689-32.81 25.42-50.38 13.2-18.23 31.56-35.31 56.86-45.04 0 0-23.4 34.12-33.71 61.21-3.091 8.1-5.08 16.01-6.36 22.7v.02"/><path d="m636.8 212.23s-1.439-8.78-5.64-21.74c-3.74-11.51-9.65-26.31-18.69-41.16-2.279-3.76-4.76-7.52-7.46-11.24-13.189-18.17-31.52-35.18-56.74-44.88 0 0 23.41 34.12 33.711 61.21 3.079 8.12 5.079 16.03 6.369 22.72m25.32-28.54s3.54-39.47 17.69-67.6c1.08-2.15 2.22-4.23 3.42-6.22 11.92-19.69 13.81-22.64 13.88-22.63 0 .04-.28.53-.28.53s5.75 10.08 10.2 32.3c2.9 14.53.27 39.25-2 55.13v.02"/><path d="m631.35 80.99s-15.85-20.06-25.489-27.18c-9.63-7.12-12.91-3.84-12.91-3.84s9.51 21.98 9.51 35.01c0 13.04 3.25 52.6 3.25 52.6"/></g><path d="m529.35 412 .02-.02 1.43-.98 19.42-13.43 15.84-10.94 27.62-19.1 10.88-7.52 26.14-18.07 9.81-6.78 24.24-16.76 10.02-6.93 11.09-7.66m-120.11 34.61 15.99-11.05 17.61-12.17 18.34-12.68 24.98-17.27m-101.35 70.06 1.76-1.22 22.67-15.66m-26.2 114.09 13.68-9.45 24.69-17.07 10.71-7.41 23.88-16.51 14.48-10 26.3-18.18 9.65-6.68 24.35-16.83 9.91-6.85 10.78-7.45m-150.28 147.93 6.23-4.31 10.06-6.95 26.23-18.13 9.31-6.44 26.16-18.08 12.06-8.34 26.06-18.01 9.9-6.84 25.14-17.39 9.11-6.29 8.17-5.65m-145.77 152.64 1.8-1.24 16.29-11.26 24.35-16.84 11.34-7.84 25.01-17.29 13.05-9.02 26.57-18.37 9.39-6.49 25.13-17.37m-104.8 119.95.07-.05 18.09-12.5 10.04-6.93 26.65-18.43 11.26-7.78 25.52-17.63" stroke-width="7"/><path d="m609.83 291.28 7.86 11.24 10.1 14.45 12.72 18.19 9.3 13.28 13.13 18.78 7.97 11.39 12.8 18.31 8.58 12.27 15.87 22.69 15.03 21.49m-65.36-166.13 1.36 1.94 15.58 22.29 22.43 32.07 20.76 29.7 14.67 20.98 1.71 2.44m-164.34-86.07 11.74 16.78 9.89 14.15 12.93 18.49 8.97 12.83 13.46 19.24 8.29 11.86 12.47 17.83 10.49 15.01 13.96 19.96 8.3 11.86 14.1 20.17 7.52 10.75 1.26 1.8m-160.3-147.23 9.24 13.09 13.74 19.45 8.91 12.62 13.66 19.34 7.46 10.57 13.44 19.03 10 14.16 14.61 20.7 8.63 12.21 13.92 19.72 8.72 12.35m-136.05-118.39 1.44 2.06 7.87 11.25 14.56 20.82 7.89 11.29 12.87 18.4 9.59 13.71 14.87 21.26 8.2 11.73 9.53 13.62.96 1.38" stroke-width="7"/><path d="m574.97 399.25 21.83-17.29 15.71 20.12m-56.47-37.53 21.84-17.29 15.7 20.12m43.85 35.05 21.83-17.29 14.55 18.62 1.17 1.5m-59.11-34.05 21.83-17.28 15.59 19.97.12.15m-59.57-34.07 21.83-17.28 15.03 19.24.69.88m18.82 5.34 21.83-17.29 15.25 19.52.47.6m-59.64-34.25 21.84-17.29 14.79 18.95.91 1.17m6.47 58.19 21.85-17.28 14.87 19.05.84 1.08m-111.33 46.94 21.83-17.29 15.5 19.85.21.26m-51.94 55.84 21.85-17.29 15.71 20.13m-.87-27.49 21.84-17.29 15.72 20.13m2.63-29.44 21.83-17.28 15.71 20.12m-3.06-30.73 21.83-17.28 15.71 20.12m-50.77 57.58 21.84-17.3 15.71 20.14m-74.12 22.99 21.84-17.29 15.71 20.13m-74.58 22.01 21.85-17.29 15.7 20.14m-82.61-68.27 21.83-17.29 14.96 19.17.75.96m-61.57-33.85 21.83-17.28 15.71 20.12m-39.02 41.33 1.82-1.44 7.66-6.07 15.71 20.12m-15.06-84.09-13.45-19.13m48.83 138.12-13.46-19.14m-4.22-155.85v-.01l-9.5-13.49m43.1-9.73-13.49-17.62" stroke-width="7"/><path d="m539.89 354.09c4.311-10.68 9.841-20.49 16.351-29.17 4.06-5.41 8.5-10.38 13.27-14.85 5.09-4.76 10.561-8.95 16.351-12.49 1.62-1 3.27-1.94 4.949-2.83 11.381-6.05 23.83-9.63 36.921-10.19a83.075 83.075 0 0 1 14.94.69c5.66.75 11.18 2.08 16.521 3.93 2.52.88 5.01 1.87 7.449 2.97 6.78 3.06 13.221 6.98 19.23 11.64 9.86 7.65 18.58 17.31 25.76 28.51 6.69 10.43 12.05 22.2 15.78 34.92 2.52 8.6 4.3 17.64 5.22 27 .5 5 .76 10.09.76 15.25v.44c0 1.54-.029 3.08-.09 4.6-.45 14.03-2.79 27.46-6.72 39.92-1.75 5.61-3.84 11.03-6.23 16.221-.069.159-.14.33-.229.489-4.86 10.5-10.94 20.051-18 28.38-10.36 12.23-22.851 21.811-36.71 27.811-10.65 4.62-22.11 7.13-34.05 7.13-.94 0-1.87-.02-2.801-.05a81.851 81.851 0 0 1 -12.38-1.33c-12.18-2.22-23.649-7.08-34.02-14.09-18.311-12.38-33.19-31.45-42.42-54.521-1.42-3.52-2.7-7.12-3.83-10.819-4.01-12.99-6.3-27.021-6.54-41.67-.01-.84-.021-1.67-.021-2.51v-.53c.04-11.24 1.32-22.82 3.891-33.95 1.668-7.221 3.878-14.261 6.648-20.901" stroke-width="14"/></g><path d="m0 0h850.394v850.394h-850.394z" fill="none"/></svg>