<svg height="850.394" viewBox="0 0 850.394 850.394" width="850.394" xmlns="http://www.w3.org/2000/svg"><path d="m547.27 558.2 14.16-9.79 22.82 32.63a240.586 240.586 0 0 1 1.04 31.55h-.01l-39.101 27.03-38.029-54.38zm36.98 22.84-22.82-32.63 12.71-8.79 1.98-.58c3.93 13.38 6.69 27.44 8.13 42z" fill="#f6cc4b"/><path d="m424.98 399.04c-1.8-4.46-3.67-8.47-5.14-11.46-2.03-4.12-4.44-8.26-7.17-12.34-2.45-8.56 6.68-37.96 13.32-55.86 2.08-5.61 3.91-10.09 5.069-12.44 1.44-2.92 2.971-5.83 4.61-8.7 10.25-18.07 24.38-34.72 42.01-44.49 4.71-2.61 9.5-5.14 14.37-7.49 16.58-8.02 34.03-13.87 52.26-13.06 12.11.55 38.721 5.64 47.601 22.5-25.63-12.35-70.7 4.6-87.01 25.43-9.9 12.64-17.69 30.81-20.631 48.54a354.26 354.26 0 0 0 -7.199 3.89c-20.45 11.32-36.16 31.91-46.62 53.19-1.56 3.17-3.57 7.5-5.47 12.29z" fill="#33a02c"/><g fill="#f6cc4b"><path d="m546.18 639.62 39.101-27.03h.01c-1.03 31.95-8.35 61.91-20.49 88.09l-.02-.01-39.67 27.42-34.841-49.82z"/><path d="m564.8 700.68c-7.58 16.33-17.03 31.19-28 44.13l-11.689-16.72 39.67-27.42zm-39.69 27.41 11.689 16.72c-16.13 19.04-35.55 33.94-57.12 43.28l-13.569-19.22z"/><path d="m525.11 728.09-59 40.78-35.06-49.66 38.89-26.89 20.33-14.05zm-11.4-215.23 15.42-10.65 32.3 46.2-14.16 9.79-23.15-29.65-33.97 26.89-1.9 1.33-12.4-17.73z"/><path d="m529.13 502.21-34.88-49.88 17.24-11.92.02-.03c29.61 22.97 52.59 57.62 64.61 98.66l-1.98.58-12.71 8.79z"/><path d="m481.59 422.27c10.55 4.76 20.561 10.85 29.92 18.11l-.02.03-17.24 11.92-24.25-34.68c3.93 1.36 7.79 2.9 11.59 4.62zm11.16 173.61 15.4-10.64 38.03 54.38-55.91 38.65-38.03-54.38zm-2.6-40.44 33.97-26.89 23.15 29.65-39.12 27.04-19.9-28.47zm-11.48-92.34 15.58-10.77 34.88 49.88-15.42 10.65-23.7-30.37-33.97 26.89-.63.44-14.44-20.66z"/><path d="m444.32 411.53v-.01c8.8 1.19 17.38 3.26 25.68 6.13l24.25 34.68-15.58 10.77-23.02-29.479-33.97 26.89-.51.351-15.71-22.471z"/></g><path d="m426.41 264.16c-5.81-17.91-15.01-40.94-29.07-64.06l1.87-1.13s5.5-61.4 27.5-105.15a137.1 137.1 0 0 1 5.32-9.66c26.45-43.7 21.16-34.39 21.16-34.39s8.949 15.68 15.869 50.25c4.521 22.61.421 61.07-3.119 85.76v.01c-19.8 27.32-32.15 56.32-39.53 78.37z" fill="#33a02c"/><path d="m466.11 768.87-43.74 30.24a132.09 132.09 0 0 1 -19.25-2.07l-27.59-39.45 55.52-38.38zm26.64-172.99-40.51 28.01-32.31-46.2 40.91-28.28 15.01-10.37 12.4 17.73 19.9 28.47zm-36.71-86.5 33.97-26.89 23.7 30.37-37.86 26.18-20.44-29.22zm-22.57 127.49-40.7 28.13-32.52-46.06 37.16-25.68 22.52-15.57 32.31 46.2zm-77.52-206.16c2.53-1.54 5.09-3.01 7.69-4.39 17.7-9.41 37.07-14.98 57.43-15.85v-.01c1.88-.08 3.77-.12 5.67-.12 5.939 0 11.81.4 17.58 1.18v.01l-38.86 26.86-28.51 19.721z" fill="#f6cc4b"/><path d="m425.7 499.72-40.65 28.1-35.5-50.77 27.4-18.94 28.51-19.72 15.71 22.47 19.8 28.3z" fill="#f6cc4b"/><path d="m435.18 297.96s-2.239-13.66-8.77-33.8c7.38-22.05 19.729-51.05 39.53-78.37v-.01c20.54-28.37 49.1-54.93 88.449-70.06 0 0-36.399 53.07-52.43 95.21-4.8 12.61-7.91 24.92-9.91 35.33-4.87 2.35-9.66 4.88-14.37 7.49-17.63 9.77-31.76 26.42-42.01 44.49z" fill="#33a02c"/><path d="m385.74 182.63c4.19 5.77 8.05 11.62 11.6 17.47 14.06 23.12 23.26 46.15 29.07 64.06 6.53 20.14 8.77 33.8 8.77 33.8l.49.28c-1.64 2.87-3.17 5.78-4.61 8.7-1.159 2.35-2.989 6.83-5.069 12.44l-.4-.15c-1.8-4.46-3.67-8.48-5.14-11.46-10.47-21.29-31.2-43.04-51.64-54.36l-1.86-1.02c-.62-.34-1.24-.68-1.86-1.01-1.75-.94-3.5-1.87-5.27-2.78-2-10.41-5.11-27.95-9.91-40.57-16.03-42.14-52.43-95.21-52.43-95.21 39.229 15.09 67.729 41.54 88.259 69.81z" fill="#33a02c"/><path d="m433.47 636.87 18.77-12.98 38.03 54.38-20.33 14.05-1.47-2.13-24.43-31.31-33.97 26.89-1.76 1.24-15.54-22.01zm27.37-87.46-40.91 28.28-34.88-49.87 40.65-28.1 15.27-10.56 14.44 20.66 20.44 29.22zm-38.47 249.7 43.74-30.24 13.569 19.22c-16.55 7.18-34.37 11.09-52.939 11.09-1.46 0-2.92-.02-4.37-.07z" fill="#f6cc4b"/><path d="m387.07 51.54c14.99 11.08 39.64 42.28 39.64 42.28-22 43.75-27.5 105.15-27.5 105.15l-1.87 1.13c-3.55-5.85-7.41-11.7-11.6-17.47l1.09-.8s-5.05-61.53-5.05-81.81c0-20.27-14.8-54.46-14.8-54.46s5.1-5.1 20.09 5.98zm-132.49 203.82c8.88-16.86 35.49-21.95 47.6-22.49a71.441 71.441 0 0 1 5.5-.05h.05c.6.02 1.2.04 1.79.07.23.01.46.02.69.04.44.02.88.05 1.32.09.22.01.43.03.64.05.58.04 1.16.1 1.75.16.68.07 1.37.15 2.06.24.68.08 1.37.18 2.05.29.81.12 1.62.26 2.43.4.47.08.93.17 1.4.26 2.12.42 4.23.91 6.33 1.46.6.16 1.21.32 1.81.49 1.85.53 3.7 1.1 5.54 1.71.41.14.82.28 1.24.43a245.714 245.714 0 0 1 2.87 1.03c.82.31 1.64.62 2.45.94.66.26 1.31.52 1.96.79 1.58.64 3.16 1.32 4.72 2.02.43.19.86.38 1.29.58 2.19.99 4.37 2.03 6.52 3.1l1.62.81c.54.27 1.07.54 1.61.82 1.77.91 3.52 1.84 5.27 2.78.62.33 1.24.67 1.86 1.01l1.86 1.02c20.44 11.32 41.17 33.07 51.64 54.36 1.47 2.98 3.34 7 5.14 11.46l.4.15c-6.64 17.9-15.77 47.3-13.32 55.86-11.32-16.97-27.99-32.88-44.47-42.01a364.28 364.28 0 0 0 -5.86-3.18c-2.84-17.95-10.71-36.45-20.74-49.26-16.32-20.83-61.39-37.78-87.02-25.43z" fill="#33a02c"/><path d="m421.68 460.51 33.97-26.89 23.02 29.48-37.7 26.06-19.8-28.3z" fill="#f6cc4b"/><path d="m426.74 410.34c-1.9 0-3.79.04-5.67.12 1.07-3.86 2.46-7.78 3.91-11.42 1.9-4.79 3.91-9.12 5.47-12.29 10.46-21.28 26.17-41.87 46.62-53.19a354.26 354.26 0 0 1 7.199-3.89c18.69-9.78 38.53-17.59 59.421-16.65 12.109.54 38.72 5.63 47.609 22.49-25.64-12.35-70.71 4.6-87.02 25.43-11.94 15.24-20.811 38.54-21.79 59.37l-.9 1.96c-3.8-1.72-7.66-3.26-11.59-4.62-8.3-2.87-16.88-4.94-25.68-6.13a131.17 131.17 0 0 0 -17.579-1.18z" fill="#33a02c"/><path d="m385.05 527.82 34.88 49.87-22.52 15.57-24.44-31.3-33.97 26.89-13.85-19.63z" fill="#f6cc4b"/><path d="m253.96 335.17c8.89-16.85 35.5-21.95 47.61-22.49 21.39-.96 41.68 7.25 60.77 17.37 1.97 1.04 3.92 2.11 5.86 3.18 16.48 9.13 33.15 25.04 44.47 42.01 2.73 4.08 5.14 8.22 7.17 12.34 1.47 2.99 3.34 7 5.14 11.46-1.45 3.64-2.84 7.56-3.91 11.42v.01c-20.36.87-39.73 6.44-57.43 15.85l-.77-1.89c.19-21.89-9.09-47.48-21.89-63.82-16.31-20.84-61.38-37.78-87.02-25.44z" fill="#33a02c"/><path d="m410.07 685.77 33.97-26.89 24.43 31.31 1.47 2.13-38.89 26.89-22.74-32.2zm-37.1-123.81 24.44 31.3-37.16 25.68-21.25-30.09zm5.33 113.05-40.8 28.2-32.31-46.21 38.41-26.55 16.65-11.51 32.52 46.06zm6.75-147.19-59.9 41.4-35.73-50.6 35.24-24.36 24.89-17.21z" fill="#f6cc4b"/><path d="m375.53 757.59-38.03-54.38 40.8-28.2 14.47-10.01 15.54 22.01 22.74 32.2zm-19.58-326.88 21 27.4-27.4 18.939-18.26-26.109-.75-.801c7.92-7.409 16.42-13.929 25.41-19.429z" fill="#f6cc4b"/><path d="m366.95 252.39c-.62-.34-1.24-.68-1.86-1.01.62.33 1.24.67 1.86 1.01z" fill="#fff"/><path d="m339 588.85 21.25 30.09-16.65 11.51-1.52-2.2-24.43-31.3-33.97 26.88-1.13.79-12.23-17.49 54.83-37.91z" fill="#f6cc4b"/><path d="m358.21 247.78-1.62-.81z" fill="#fff"/><path d="m403.12 797.04c-18.94-3.46-36.79-11.03-52.93-21.94l25.34-17.51z" fill="#f6cc4b"/><path d="m350.07 243.87c-.43-.2-.86-.39-1.29-.58.43.18.86.38 1.29.58zm-10.42-4.33c-.49-.18-.99-.36-1.49-.54.5.17.99.36 1.49.54zm-2.87-1.03c-.42-.15-.83-.29-1.24-.43.41.14.83.28 1.24.43z" fill="#fff"/><path d="m331.29 450.94 18.26 26.109-24.89 17.21-14.76-21.02-.01-.01c6.31-8.421 13.22-16.15 20.65-23.091z" fill="#f6cc4b"/><path d="m330 236.37c-.6-.17-1.21-.33-1.81-.49.6.16 1.21.32 1.81.49z" fill="#fff"/><path d="m321.86 714.02 15.64-10.81 38.03 54.38-25.34 17.51c-28.48-19.25-51.61-48.909-65.98-84.8l11.92-9.439 24.44 31.3z" fill="#f6cc4b"/><path d="m321.86 234.42c-.47-.09-.93-.18-1.4-.26.47.08.93.17 1.4.26zm-7.94-1.19c-.59-.06-1.17-.12-1.75-.16.59.04 1.17.1 1.75.16zm-4.4-.34c-.59-.03-1.19-.05-1.79-.07.59.02 1.19.04 1.79.07z" fill="#fff"/><path d="m284.21 690.3c-9.9-24.71-15.65-52.38-16.12-81.63l2.23-1.54 12.23 17.49 22.64 32.38 32.31 46.21-15.64 10.81-1.29-1.859-24.44-31.3z" fill="#f6cc4b"/><path d="m282.55 624.62 1.13-.79 33.97-26.88 24.43 31.3 1.52 2.2-38.41 26.55zm6.87-106-6.82 4.71c.01-.021.01-.03.02-.05.6-1.561 1.2-3.12 1.83-4.66 6.71-16.61 15.3-31.88 25.44-45.39l.01.01 14.76 21.02z" fill="#f6cc4b"/><path d="m268.07 603.92c.09-28.76 5.28-56.06 14.53-80.59l6.82-4.71 35.73 50.6-54.83 37.91z" fill="#f6cc4b"/><g fill="none" stroke="#000"><g stroke-width="21.158"><path d="m282.62 523.28c.6-1.561 1.2-3.12 1.83-4.66m136.62-108.16c1.88-.08 3.77-.12 5.67-.12 5.939 0 11.81.4 17.58 1.18 8.8 1.19 17.38 3.26 25.68 6.13 3.93 1.36 7.79 2.9 11.59 4.62 10.55 4.76 20.561 10.85 29.92 18.11 29.61 22.97 52.59 57.62 64.61 98.66 3.93 13.38 6.689 27.44 8.13 42a240.586 240.586 0 0 1 1.04 31.55c-1.03 31.95-8.35 61.91-20.49 88.09-7.58 16.33-17.03 31.19-28 44.13-16.13 19.04-35.55 33.94-57.12 43.28-16.55 7.18-34.37 11.09-52.939 11.09-1.46 0-2.92-.02-4.37-.069a132.09 132.09 0 0 1 -19.25-2.07c-18.94-3.46-36.79-11.03-52.93-21.94-28.48-19.25-51.61-48.909-65.98-84.8-9.9-24.71-15.65-52.38-16.12-81.63-.02-1.3-.03-2.6-.03-3.91 0-.279 0-.56.01-.84.09-28.76 5.28-56.06 14.53-80.59.01-.021.01-.03.02-.05"/><path d="m284.45 518.62c6.71-16.61 15.3-31.88 25.44-45.39 6.31-8.421 13.22-16.15 20.65-23.091 7.92-7.409 16.42-13.93 25.41-19.43 2.53-1.54 5.09-3.01 7.69-4.39 17.7-9.41 37.07-14.98 57.43-15.85m0 .001v-.01c1.07-3.86 2.46-7.78 3.91-11.42 1.9-4.79 3.91-9.12 5.47-12.29 10.46-21.28 26.17-41.87 46.62-53.19a354.26 354.26 0 0 1 7.199-3.89c18.69-9.78 38.53-17.59 59.421-16.65 12.109.54 38.72 5.63 47.609 22.49-25.64-12.35-70.71 4.6-87.02 25.43-11.94 15.24-20.811 38.54-21.79 59.37"/><path d="m424.98 399.04c-1.8-4.46-3.67-8.47-5.14-11.46-2.03-4.12-4.44-8.26-7.17-12.34-11.32-16.97-27.99-32.88-44.47-42.01a364.28 364.28 0 0 0 -5.86-3.18c-19.09-10.12-39.38-18.33-60.77-17.37-12.11.54-38.72 5.64-47.61 22.49 25.64-12.34 70.71 4.6 87.02 25.44 12.8 16.34 22.08 41.93 21.89 63.82"/><path d="m412.69 375.33a.292.292 0 0 1 -.02-.09c-2.45-8.56 6.68-37.96 13.32-55.86 2.08-5.61 3.91-10.09 5.069-12.44 1.44-2.92 2.971-5.83 4.61-8.7 10.25-18.07 24.38-34.72 42.01-44.49 4.71-2.61 9.5-5.14 14.37-7.49 16.58-8.02 34.03-13.87 52.26-13.06 12.11.55 38.721 5.64 47.601 22.5-25.63-12.35-70.7 4.6-87.01 25.43-9.9 12.64-17.69 30.81-20.631 48.54m-58.679-10.44c-1.8-4.46-3.67-8.48-5.14-11.46-10.47-21.29-31.2-43.04-51.64-54.36l-1.86-1.02c-.62-.34-1.24-.68-1.86-1.01-1.75-.94-3.5-1.87-5.27-2.78-.54-.28-1.07-.55-1.61-.82l-1.62-.81c-2.15-1.07-4.33-2.11-6.52-3.1-.43-.2-.86-.39-1.29-.58-1.56-.7-3.14-1.38-4.72-2.02-.65-.27-1.3-.53-1.96-.79-.81-.32-1.63-.63-2.45-.94-.5-.18-.99-.37-1.49-.54-.46-.17-.92-.33-1.38-.49-.42-.15-.83-.29-1.24-.43-1.84-.61-3.69-1.18-5.54-1.71-.6-.17-1.21-.33-1.81-.49-2.1-.55-4.21-1.04-6.33-1.46-.47-.09-.93-.18-1.4-.26-.81-.14-1.62-.28-2.43-.4-.68-.11-1.37-.21-2.05-.29-.69-.09-1.37-.17-2.06-.24-.58-.06-1.16-.12-1.75-.16-.21-.02-.42-.04-.64-.05-.44-.04-.88-.07-1.32-.09-.23-.02-.46-.03-.69-.04-.6-.03-1.2-.05-1.79-.07h-.05a71.441 71.441 0 0 0 -5.5.05c-12.11.54-38.72 5.63-47.6 22.49 25.63-12.35 70.7 4.6 87.02 25.43 10.03 12.81 17.9 31.31 20.74 49.26"/><path d="m465.94 185.78c20.54-28.37 49.1-54.93 88.449-70.06 0 0-36.399 53.07-52.43 95.21-4.8 12.61-7.91 24.92-9.91 35.33v.01m-65.649 17.91c0-.01 0-.01.01-.02 7.38-22.05 19.729-51.05 39.53-78.37"/><path d="m435.18 297.96s-2.239-13.66-8.77-33.8c-5.81-17.91-15.01-40.94-29.07-64.06-3.55-5.85-7.41-11.7-11.6-17.47-20.53-28.27-49.03-54.72-88.26-69.81 0 0 36.4 53.07 52.43 95.21 4.8 12.62 7.91 30.16 9.91 40.57m39.39-49.63s5.5-61.4 27.5-105.15a137.1 137.1 0 0 1 5.32-9.66c26.45-43.7 21.16-34.39 21.16-34.39s8.949 15.68 15.869 50.25c4.521 22.61.421 61.07-3.119 85.76v.01"/><path d="m426.71 93.82s-24.65-31.2-39.64-42.28-20.09-5.98-20.09-5.98 14.8 34.19 14.8 54.46c0 20.28 5.05 81.81 5.05 81.81"/></g><path d="m268.06 608.69.03-.02 2.23-1.54 54.83-37.91 59.9-41.4 40.65-28.1 15.27-10.56 37.7-26.06 15.58-10.77 17.24-11.92m-232.55 85.45 3.66-2.53 6.82-4.71 35.24-24.36 24.89-17.21 27.4-18.94 28.51-19.72 38.86-26.86m-160.4 260.18 21.27-14.71 38.41-26.55 16.65-11.51 37.16-25.68 22.52-15.57 40.91-28.28 15.01-10.37 37.86-26.18 15.42-10.65 16.77-11.6m-233.74 230.12 9.7-6.71 15.64-10.81 40.8-28.2 14.47-10.01 40.7-28.13 18.77-12.98 40.51-28.01 15.4-10.64 39.12-27.04 14.16-9.79 12.71-8.79m-226.75 237.42 2.8-1.94 25.34-17.51 55.52-38.38 38.89-26.89 20.33-14.05 55.91-38.65 39.1-27.03m-163.01 186.59.1-.07 43.74-30.24 59-40.78 39.67-27.42" stroke-width="14.105"/><path d="m393.24 420.92 12.22 17.47 15.71 22.47 19.8 28.3 14.44 20.66 20.44 29.22 12.4 17.73 19.9 28.47 38.03 54.38 23.38 33.42m-101.67-258.41 2.11 3.02 24.25 34.68 34.88 49.88 32.3 46.2 22.82 32.63 2.65 3.79m-255.61-133.89 18.26 26.11 35.5 50.77 34.88 49.87 32.31 46.2 38.03 54.38 34.84 49.82 11.69 16.72 1.96 2.8m-249.34-228.99 35.73 50.6 13.85 19.63 21.25 30.09 32.52 46.06 15.54 22.01 22.74 32.2 35.06 49.66 13.57 19.22m-211.61-184.17 2.25 3.21 12.23 17.49 22.64 32.38 32.31 46.21 38.03 54.38 27.59 39.45 1.5 2.14" stroke-width="14.105"/><path d="m339 588.85 33.97-26.89 24.44 31.3m-87.84-58.39 33.97-26.89 24.43 31.31m68.2 54.5 33.97-26.88 22.61 28.97 1.82 2.33m-91.95-52.97 33.97-26.88 24.25 31.05.19.25m-92.68-52.99 33.97-26.89 23.38 29.94 1.06 1.36m29.28 8.3 33.97-26.89 23.7 30.37.73.94m-92.76-53.29 33.97-26.89 23.02 29.48 1.42 1.82m10.06 90.52 33.97-26.89 23.15 29.65 1.29 1.65m-173.18 73.01 33.96-26.89 24.13 30.9.31.4m-80.78 86.84 33.97-26.88 24.43 31.3m-1.33-42.76 33.97-26.89 24.43 31.31m4.1-45.78 33.97-26.89 24.43 31.3m-4.77-47.8 33.97-26.88 24.43 31.3m-78.96 89.55 33.97-26.89 24.44 31.3m-115.3 35.78 33.97-26.89 24.44 31.31m-116 34.23 33.97-26.89 24.44 31.31m-128.51-106.18 33.97-26.89 23.27 29.83 1.16 1.48m-95.78-52.66 33.97-26.88 24.43 31.3m-60.71 64.3 2.84-2.25 11.92-9.44 24.44 31.3m-23.42-130.8-20.93-29.75m75.95 214.83-20.93-29.76m-6.58-242.42-14.76-21.02m67.05-15.13-21-27.4" stroke-width="14.105"/></g><path d="m0 0h850.394v850.394h-850.394z" fill="none"/></svg>