<svg height="850.9" viewBox="0 0 850.9 850.9" width="850.9" xmlns="http://www.w3.org/2000/svg"><path d="m224.8 562.16c71.79 132.34 85.26 123.25 206.36 123.05 1.3-.01 2.61-.01 3.94-.01 28.649 0 56.12-5 81.609-14.17-9.689 14.41 13.42 44.36 46.051 16.03 20.939-19.681 17.51-36.47 8.649-43.46-.12-.101-.25-.2-.38-.29l.09-.12c1.03-.71 2.061-1.43 3.09-2.15 0 0 .011 0 .011-.01 24.359-17.17 44.319-37.24 60.34-61.479.13-.181.25-.351.359-.53.96-1.42 1.91-2.86 2.841-4.3 1.04-1.601 2.06-3.221 3.05-4.841 1.27-2.069 2.5-4.149 3.7-6.26a231.69 231.69 0 0 0 3.81-6.899c.57-1.08 1.13-2.16 1.68-3.24a53.656 53.656 0 0 0 32.61 10.99c7.95 0 15.52-1.73 22.31-4.83-39.03 146.089-158.78 172.679-272.18 172.679-157.58 0-285.31-127.729-285.31-285.3 0-116.27 32.15-188.06 84.93-230.56-29.3 26.5-38.35 88.55-38.35 227.65 0 8.07.4 16.06 1.18 23.93-11.3 9.87-18.44 24.4-18.44 40.57 0 27.78 21.05 50.66 48.05 53.55z" fill="#ed1d31"/><path d="m574.22 641.03c1.02-.72 2.04-1.45 3.05-2.2 8.12-5.93 15.85-12.37 23.16-19.26.91-.85 1.81-1.72 2.71-2.6.67-.65 1.35-1.311 2.01-1.98.1-.1.21-.2.31-.31l.271-.271.09-.09c.44-.44.88-.88 1.31-1.32a153.6 153.6 0 0 0 1.82-1.88c4.58-4.75 8.96-9.7 13.11-14.819a209.95 209.95 0 0 0 5.7-7.261l.479-.63a235.49 235.49 0 0 0 3.99-5.5c.79-1.109 1.57-2.229 2.33-3.359-16.02 24.24-35.98 44.31-60.34 61.48zm0 0c0 .01-.011.01-.011.01v-.01s0 .01.011 0z" fill="#ed1d31"/><g fill="#fbee34"><path d="m577.27 638.83c-1.01.75-2.03 1.48-3.05 2.2 1.02-.73 2.04-1.46 3.05-2.2z"/><path d="m262.13 408.57c9.64-3.4 17.43 1.21 20.93 2.63l.65-.08 7.57-21.15-.01-.28c-3.16.07-11.41-.18-16.9-9.76 20.27-19.72-26.15-49.32-42.89-.68-14.25 47.34 29.7 51.16 30.65 29.32zm114.27 219.42a53.52 53.52 0 0 0 27.44 7.53c29.75 0 53.87-24.12 53.87-53.87 0-29.74-24.119-53.86-53.87-53.86-29.73 0-53.85 24.12-53.85 53.86 0 1.41.05 2.8.16 4.18l-.76.07c-1.16.52-2.47.979-3.91 1.34-13.48-24.84-54.56 11.81-12.28 41.12 22.64 14.41 37.59 8.83 43.2-.37zm54.76 57.219c-121.1.2-134.57 9.29-206.36-123.05 1.9.21 3.85.311 5.81.311 29.74 0 53.86-24.12 53.86-53.86s-24.12-53.86-53.86-53.86c-13.56 0-25.96 5.021-35.42 13.29-.78-7.87-1.18-15.859-1.18-23.93 0-139.1 9.05-201.15 38.35-227.65 2.45-1.97 4.94-3.88 7.48-5.73 35.41-22.83 95.73-7.72 195.26-7.72 31.22 0 58.43 2.07 82.13 6.01 5.26 4.79 13.31 7.43 23.12 4.68 123.43 29.96 135.84 119.84 135.84 230.41 0 4.2-.11 8.39-.32 12.54l.061.52c-26.59 3.29-47.181 25.971-47.181 53.44 0 17.49 8.341 33.03 21.25 42.87-.55 1.08-1.109 2.16-1.68 3.24-.11-.271-.21-.44-.32-.24-3.96 7.75-8.229 15.13-12.83 22.149-.199.311-.399.61-.609.921-.76 1.13-1.54 2.25-2.33 3.359-1.3 1.851-2.64 3.69-3.99 5.5l-.479.63c-1.851 2.46-3.74 4.88-5.7 7.261a230.43 230.43 0 0 1 -13.11 14.819c-.6.63-1.21 1.26-1.82 1.88-.43.44-.869.88-1.31 1.32l-.09.09-.271.271c-.1.109-.199.21-.31.31-.66.67-1.34 1.33-2.01 1.98-.9.87-1.8 1.739-2.71 2.6a241.151 241.151 0 0 1 -23.16 19.26c-1.01.74-2.03 1.471-3.05 2.2-.011.01-.011 0-.011 0-1.029.73-2.05 1.44-3.09 2.16l-.09.12c-6.36-4.75-15.3-4.55-20.12 3.02h-.01c-10.51-1.97-14.88-10.51-17.12-13.12l-.28.131-17.14 14.52-.37.11c2.58 1.399 10.03 5.659 9.99 17.029-4.39 1.101-7.43 3.28-9.271 6.03-25.489 9.17-52.96 14.17-81.609 14.17-1.33 0-2.641 0-3.94.009zm-109.62-392.839c0 29.74 24.12 53.86 53.87 53.86 29.73 0 53.851-24.12 53.851-53.86 0-4.73-.61-9.32-1.761-13.68l2.87-.76a3.76 3.76 0 0 1 -.069-.81l.31.01 22.46.38.24-.1c-1.07-2.96-3.5-10.84 3.819-19.13 25.181 12.84 38.301-40.64-13.149-40.84-37.34 1.32-40.46 26.09-30.71 35.48l-.57.59c-9.68-9.29-22.82-15-37.29-15-29.751 0-53.871 24.12-53.871 53.86zm223.44 288.63c-27.43 6.9-2.061 55.801 36.78 22.061 36.04-33.86-.11-59.16-11.86-40.74-10.51-1.97-14.87-10.5-17.11-13.11l-.279.131-17.15 14.52-.37.11c2.569 1.398 10.029 5.657 9.989 17.028zm58.72-206.66c-5.21 27.78 49.78 25.26 35.46-24.15-15.609-46.93-53.75-24.73-41.939-6.32-5.511 7.75-13.71 8.9-17.78 9.71 1.39-4.78 2.13-9.82 2.13-15.03 0-29.74-24.12-53.86-53.85-53.86-29.74 0-53.86 24.12-53.86 53.86s24.12 53.86 53.86 53.86c23.6 0 43.649-15.19 50.93-36.33l5.46 19.78.24.15c2.619-1.91 9.459-6.31 19.349-1.67zm-154.95 112.27c0 29.74 24.12 53.86 53.86 53.86s53.86-24.12 53.86-53.86c0-29.73-24.12-53.85-53.86-53.85s-53.86 24.119-53.86 53.85z"/><path d="m603.14 616.97c-.9.88-1.8 1.75-2.71 2.6.91-.861 1.81-1.73 2.71-2.6zm45.18-60.25c-1.229 2.319-2.5 4.62-3.81 6.899a244.8 244.8 0 0 1 -3.7 6.26c-.99 1.62-2.01 3.24-3.05 4.841a200.27 200.27 0 0 1 -2.591 3.909c4.601-7.02 8.87-14.399 12.83-22.149.111-.2.21-.03.321.24z"/></g><path d="m605.459 614.68c-.1.109-.21.21-.31.31.111-.1.211-.2.31-.31zm.271-.27.09-.09z" fill="#ef3d27"/><path d="m574.209 641.03v.01a492.01 492.01 0 0 1 -3.09 2.15 314.37 314.37 0 0 0 3.09-2.16z" fill="#fbee34"/><path d="m704.919 559.64a53.628 53.628 0 0 1 -22.31 4.83 53.658 53.658 0 0 1 -32.61-10.99c-12.909-9.84-21.25-25.38-21.25-42.87 0-27.47 20.591-50.15 47.181-53.44a54.34 54.34 0 0 1 6.68-.409c11.62 0 22.37 3.67 31.18 9.93 13.721 9.76 22.681 25.8 22.681 43.92-.001 21.779-12.941 40.539-31.552 49.029z" fill="#ef3d27"/><path d="m718.04 443.85c-.46-109.35-24.819-186.53-88.58-232.72 64.959 44.95 88.169 118.39 88.58 232.72z" fill="#f6cc4b"/><path d="m147.43 447.02c0 157.57 127.73 285.3 285.31 285.3 113.4 0 233.15-26.59 272.18-172.68 18.61-8.49 31.551-27.25 31.551-49.03 0-18.12-8.96-34.16-22.681-43.92l3.931-.04c.22-6.39.33-12.94.33-19.63 0-1.061 0-2.12-.011-3.17-.41-114.33-23.62-187.77-88.58-232.72-15.859-11.5-34.159-21.07-55.14-28.75l-1.14-.35c6.68-21.96-17.16-34.02-26.271-19.7h-.01c-10.51-1.97-14.88-10.51-17.12-13.12l-.28.13-17.14 14.52-.37.11c1.32.71 3.89 2.16 6.09 4.92-21.67-4.03-45.229-6.36-70.75-6.99h-.13c-.91-.04-1.81-.06-2.72-.07-3.79-.08-7.69-.12-11.74-.12-75.31 0-142.6 12.4-192.9 49.02a57.73 57.73 0 0 0 -7.48 5.73c-52.779 42.5-84.929 114.29-84.929 230.56zm283.64-359.73c192.94 0 349.33 159.01 349.33 355.169 0 196.17-156.39 355.181-349.33 355.181-192.93 0-349.32-159.011-349.32-355.181 0-196.159 156.39-355.169 349.32-355.169z" fill="#f6cc4b"/><path d="m718.05 447.02c0 6.689-.11 13.24-.33 19.63l-3.931.04c-8.81-6.26-19.56-9.93-31.18-9.93-2.27 0-4.5.14-6.68.409l-.061-.52c.21-4.15.32-8.34.32-12.54 0-110.57-12.41-200.45-135.84-230.41 5.62-1.57 11.819-4.92 18.41-10.64 8.06-7.57 12.51-14.71 14.42-21.03l1.14.35c20.98 7.68 39.28 17.25 55.14 28.75 63.761 46.19 88.12 123.37 88.58 232.72.012 1.051.012 2.11.012 3.171z" fill="#ed1d31"/><path d="m546.91 162.33c9.11-14.32 32.95-2.26 26.271 19.7-1.91 6.32-6.36 13.46-14.42 21.03-6.591 5.72-12.79 9.07-18.41 10.64-7.311-1.78-15.01-3.34-23.12-4.68-9.49-8.65-9.91-24.33 4.75-28.02.02-5.58-1.76-9.45-3.9-12.11-2.2-2.76-4.77-4.21-6.09-4.92l.37-.11 17.14-14.52.28-.13c2.24 2.61 6.61 11.15 17.12 13.12z" fill="#ffffc2"/><path d="m447.33 161.9c25.521.63 49.08 2.96 70.75 6.99 2.141 2.66 3.92 6.53 3.9 12.11-14.66 3.69-14.24 19.37-4.75 28.02-23.7-3.94-50.91-6.01-82.13-6.01-99.53 0-159.85-15.11-195.26 7.72 50.3-36.62 117.59-49.02 192.9-49.02 4.05 0 7.95.04 11.74.12.91.02 1.82.04 2.72.07z" fill="#ed1d31"/><path d="m603.7 374.34c-9.89-4.64-16.729-.24-19.35 1.67l-.24-.15-5.46-19.78c.28-.82.55-1.66.79-2.5 4.07-.81 12.27-1.96 17.78-9.71-11.811-18.41 26.33-40.61 41.939 6.32 14.321 49.41-40.669 51.93-35.459 24.15zm7.89 6.86c8.609.95 11.819-9.9 9.76-15.98-3.02 7.48-6.431 13.6-9.76 15.98zm-9.961-44.65c3.801.31 9.41 3.5 15.36 7.94-1.249-5.74-8.929-12.73-15.36-7.94z" fill="#ffffc2"/><path d="m621.35 365.22c2.06 6.08-1.15 16.93-9.76 15.98 3.329-2.38 6.74-8.5 9.76-15.98zm-4.36-20.73c-5.95-4.44-11.56-7.63-15.36-7.94 6.43-4.79 14.11 2.2 15.36 7.94z" fill="#9e5c26"/><path d="m544.98 581c.04-11.37-7.42-15.63-9.99-17.029l.37-.11 17.15-14.52.279-.131c2.24 2.61 6.601 11.141 17.11 13.11 11.75-18.42 47.9 6.88 11.86 40.74-38.84 33.74-64.209-15.16-36.779-22.06zm33.39-17.72c1.33 3.561.79 9.99-.74 17.26 4.69-3.53 7.81-13.45.74-17.26zm-17.72 29.92c-8.05.4-15.03-.13-18.61-2.149 2.77 8.229 13.95 6.559 18.61 2.149z" fill="#ffffc2"/><path d="m578.65 356.08c-7.28 21.14-27.33 36.33-50.93 36.33-29.74 0-53.86-24.12-53.86-53.86s24.12-53.86 53.86-53.86c29.729 0 53.85 24.12 53.85 53.86a53.731 53.731 0 0 1 -2.92 17.53z" fill="#ef3d27"/><path d="m577.629 580.54c1.53-7.27 2.07-13.699.74-17.26 7.071 3.81 3.951 13.73-.74 17.26z" fill="#9e5c26"/><path d="m516.709 671.03c1.841-2.75 4.881-4.93 9.271-6.03.04-11.37-7.41-15.63-9.99-17.029l.37-.11 17.14-14.52.28-.131c2.24 2.61 6.61 11.15 17.12 13.12h.01c4.82-7.569 13.76-7.77 20.12-3.02.13.09.26.189.38.29 8.86 6.99 12.29 23.779-8.649 43.46-32.632 28.33-55.741-1.62-46.052-16.03z" fill="#ffffc2"/><path d="m542.04 591.05c3.58 2.02 10.561 2.55 18.61 2.149-4.66 4.411-15.84 6.081-18.61-2.149z" fill="#9e5c26"/><path d="m502.61 432.76c29.74 0 53.86 24.119 53.86 53.85 0 29.74-24.12 53.86-53.86 53.86s-53.86-24.12-53.86-53.86c0-29.731 24.12-53.85 53.86-53.85z" fill="#ef3d27"/><path d="m540.35 213.7c-9.811 2.75-17.86.11-23.12-4.68 8.11 1.34 15.81 2.9 23.12 4.68z" fill="#fbee34"/><path d="m453.36 238.77c6.42-.25 15.93 5.87 12.59 13.88-1.35-3.88-6.25-8.87-12.59-13.88z" fill="#9e5c26"/><path d="m426.08 255.9c-5.13 1.5-9.65.07-12.81-2.98-9.75-9.39-6.63-34.16 30.71-35.48 51.45.2 38.33 53.68 13.149 40.84-7.319 8.29-4.89 16.17-3.819 19.13l-.24.1-22.46-.38-.31-.01c.01-3.4 2.42-12.76-4.22-21.22zm39.87-3.25c3.34-8.01-6.17-14.13-12.59-13.88 6.34 5.01 11.24 10 12.59 13.88zm-33.7-15.54c-5.86-.42-14.74 4.97-11.93 12.5 1.36-3.56 6-8.04 11.93-12.5z" fill="#ffffc2"/><path d="m447.2 161.9c-.899-.03-1.81-.05-2.72-.07.91.01 1.81.03 2.72.07z" fill="#ed1d31"/><path d="m376.4 627.99c-14.68-8.7-24.87-24.2-26.25-42.16-.11-1.38-.16-2.77-.16-4.18 0-29.74 24.12-53.86 53.85-53.86 29.75 0 53.87 24.12 53.87 53.86 0 29.75-24.119 53.87-53.87 53.87a53.52 53.52 0 0 1 -27.44-7.53z" fill="#ef3d27"/><path d="m420.32 249.61c-2.81-7.53 6.07-12.92 11.93-12.5-5.93 4.46-10.57 8.94-11.93 12.5z" fill="#9e5c26"/><path d="m430.37 277.93-2.87.76a53.769 53.769 0 0 0 -14.8-25.18l.57-.59c3.16 3.05 7.68 4.48 12.81 2.98 6.64 8.46 4.23 17.82 4.22 21.22 0 .32.02.59.07.81z" fill="#fbee34"/><path d="m427.5 278.69a53.602 53.602 0 0 1 1.761 13.68c0 29.74-24.121 53.86-53.851 53.86-29.75 0-53.87-24.12-53.87-53.86s24.12-53.86 53.87-53.86c14.47 0 27.61 5.71 37.29 15a53.769 53.769 0 0 1 14.8 25.18z" fill="#ef3d27"/><path d="m345.48 587.24c1.44-.36 2.75-.82 3.91-1.34l.76-.07c1.38 17.96 11.57 33.46 26.25 42.16-5.61 9.2-20.56 14.78-43.2.37-42.28-29.31-1.2-65.96 12.28-41.12zm-7.94 18.219c-2.38-7.72-3.6-14.6-2.53-18.58-7.27 4.721-2.9 15.161 2.53 18.58z" fill="#ffffc2"/><path d="m335.01 586.879c-1.07 3.98.15 10.86 2.53 18.58-5.43-3.419-9.8-13.859-2.53-18.58z" fill="#9e5c26"/><path d="m262.13 408.57c-.95 21.84-44.9 18.02-30.65-29.32 16.74-48.64 63.16-19.04 42.89.68 5.49 9.58 13.74 9.83 16.9 9.76l.01.28-7.57 21.15-.65.08c-3.5-1.42-11.29-6.03-20.93-2.63zm9.76-38.81c-6.51-5.73-15.37 1.29-17.19 7.46 13.41-8.67 8.57-5.95 17.19-7.46zm-25.56 26.91c-2.29 5.42-.03 15.57 8.01 15.34-2.95-2.45-5.7-8.27-8.01-15.34z" fill="#ffffc2"/><path d="m195.19 468.04c9.46-8.27 21.86-13.29 35.42-13.29 29.74 0 53.86 24.12 53.86 53.86s-24.12 53.86-53.86 53.86c-1.96 0-3.91-.101-5.81-.311-27-2.89-48.05-25.77-48.05-53.55 0-16.169 7.14-30.699 18.44-40.569z" fill="#ef3d27"/><path d="m254.7 377.22c1.82-6.17 10.68-13.19 17.19-7.46-8.62 1.51-3.78-1.21-17.19 7.46zm-.36 34.79c-8.04.23-10.3-9.92-8.01-15.34 2.31 7.07 5.06 12.89 8.01 15.34z" fill="#9e5c26"/><path d="m239.84 210.73c-2.54 1.85-5.03 3.76-7.48 5.73a57.73 57.73 0 0 1 7.48-5.73z" fill="#f6cc4b"/><g fill="none"><path d="m574.32 182.38c20.98 7.68 39.28 17.25 55.14 28.75 63.761 46.19 88.12 123.37 88.58 232.72" stroke="#231f20" stroke-width="7"/><path d="m713.79 466.69 3.931-.04c.22-6.39.33-12.94.33-19.63 0-1.061 0-2.12-.011-3.17-.41-114.33-23.62-187.77-88.58-232.72-11.04-7.65-23.3-14.46-36.85-20.52m-145.41-28.71c-.91-.04-1.81-.06-2.72-.07m75.99 7.5c-.79-.15-1.591-.3-2.391-.44-21.67-4.03-45.229-6.36-70.75-6.99m193.481 407.979c1.26-2.069 2.5-4.149 3.7-6.26m-9.95 15.931c.21-.311.41-.61.609-.921.881-1.289 1.74-2.6 2.591-3.909m-9.52 13.69a235.49 235.49 0 0 0 3.99-5.5m-10.17 13.39a209.95 209.95 0 0 0 5.7-7.261m-20.631 23.961a153.6 153.6 0 0 0 1.82-1.88m-3.219 3.29.09-.09m-.67.67c.1-.1.21-.2.31-.31m-5.03 4.89c.91-.86 1.81-1.729 2.71-2.6m-28.92 24.06c1.02-.729 2.04-1.46 3.05-2.2m-6.16 4.36h.01c1.04-.72 2.061-1.43 3.09-2.16" stroke="#231f20" stroke-width="7"/><path d="m634.56 579.55c-.76 1.13-1.54 2.25-2.33 3.359-1.3 1.851-2.64 3.69-3.99 5.5l-.479.63c-1.851 2.46-3.74 4.88-5.7 7.261a230.43 230.43 0 0 1 -13.11 14.819c-.6.63-1.21 1.26-1.82 1.88-.43.44-.869.88-1.31 1.32l-.09.09-.271.271c-.1.109-.199.21-.31.31-.66.67-1.34 1.33-2.01 1.98-.9.88-1.8 1.75-2.71 2.6a241.151 241.151 0 0 1 -23.16 19.26c-1.01.75-2.03 1.48-3.05 2.2-.011.01-.011 0-.011 0v.01m75.791-87.56c-.55 1.08-1.109 2.16-1.68 3.24-1.229 2.319-2.5 4.62-3.81 6.899a221.02 221.02 0 0 1 -3.7 6.26c-.99 1.62-2.01 3.24-3.05 4.841a255.382 255.382 0 0 1 -2.841 4.3m-203.759 106.189c-121.1.2-134.57 9.29-206.36-123.05" stroke="#231f20" stroke-width="7"/><path d="m597.8 344.71c-.2-.28-.4-.56-.58-.84-11.811-18.41 26.33-40.61 41.939 6.32m.001 0c14.32 49.41-40.67 51.93-35.46 24.15.021-.18.061-.36.101-.54" stroke="#000" stroke-width="3.002"/><path d="m597.22 343.87c-5.511 7.75-13.71 8.9-17.78 9.71-1.68.34-2.66.62-2.48 1.28m27.41 19.8c-.229-.11-.45-.22-.67-.32-9.89-4.64-16.729-.24-19.35 1.67-.49.36-.84.64-1.021.74m33.661-32.26c-5.95-4.44-11.56-7.63-15.36-7.94m19.72 28.67c-3.021 7.48-6.431 13.6-9.76 15.98" stroke="#000" stroke-width="3.002"/><path d="m431.07 87.29c192.94 0 349.33 159.01 349.33 355.169 0 196.17-156.39 355.181-349.33 355.181-192.93 0-349.32-159.011-349.32-355.181 0-196.159 156.39-355.169 349.32-355.169z" stroke="#231f20" stroke-width="14"/><path d="m705.02 559.26c-.03.13-.07.25-.101.38-39.029 146.09-158.779 172.68-272.179 172.68-157.58 0-285.31-127.729-285.31-285.3 0-116.27 32.15-188.06 84.93-230.56 2.45-1.97 4.94-3.88 7.48-5.73 50.3-36.62 117.59-49.02 192.9-49.02 4.05 0 7.95.04 11.74.12.91.02 1.82.04 2.72.07h.13c24.96.68 44.931 3.16 67.141 7.43" stroke="#231f20" stroke-width="7"/><path d="m526.59 667.23a226.758 226.758 0 0 1 -9.881 3.8c-25.489 9.17-52.96 14.17-81.609 14.17-1.33 0-2.641 0-3.94.01-121.1.271-134.57 12.29-206.36-120.05-.65-1.21-1.31.57-1.98-.67m426.059-6.75c-.189.38-.38-.5-.56-1.02-.11-.271-.21-.44-.32-.24-3.96 7.75-8.229 15.13-12.83 22.149a6.743 6.743 0 0 1 -.25.391c-.109.18-.229.35-.359.53-16.021 24.239-35.98 44.31-60.34 61.479 0 .01-.011.01-.011.01a492.01 492.01 0 0 1 -3.09 2.15m-375.649-172.449a242.673 242.673 0 0 1 -1.46-26.63c0-139.1 9.05-201.15 38.35-227.65a57.73 57.73 0 0 1 7.48-5.73c35.41-22.83 95.73-7.72 195.26-7.72 31.22 0 58.43 2.07 82.13 6.01 8.11 1.34 15.81 2.9 23.12 4.68 123.43 29.96 135.84 119.84 135.84 230.41 0 4.2-.11 8.39-.32 12.54" stroke="#231f20" stroke-width="7"/><path d="m427.5 278.69a53.602 53.602 0 0 1 1.761 13.68c0 29.74-24.121 53.86-53.851 53.86-29.75 0-53.87-24.12-53.87-53.86s24.12-53.86 53.87-53.86c14.47 0 27.61 5.71 37.29 15a53.769 53.769 0 0 1 14.8 25.18zm-232.31 189.35c9.46-8.27 21.86-13.29 35.42-13.29 29.74 0 53.86 24.12 53.86 53.86s-24.12 53.86-53.86 53.86c-1.96 0-3.91-.101-5.81-.311-27-2.89-48.05-25.77-48.05-53.55 0-16.169 7.14-30.699 18.44-40.569zm154.96 117.79c-.11-1.38-.16-2.77-.16-4.18 0-29.74 24.12-53.86 53.85-53.86 29.75 0 53.87 24.12 53.87 53.86 0 29.75-24.119 53.87-53.87 53.87a53.52 53.52 0 0 1 -27.44-7.53c-14.68-8.7-24.87-24.2-26.25-42.16zm363.64-119.14c13.721 9.76 22.681 25.8 22.681 43.92 0 21.78-12.94 40.54-31.551 49.03a53.628 53.628 0 0 1 -22.31 4.83 53.658 53.658 0 0 1 -32.61-10.99c-12.909-9.84-21.25-25.38-21.25-42.87 0-27.47 20.591-50.15 47.181-53.44a54.34 54.34 0 0 1 6.68-.409c11.619-.001 22.369 3.669 31.179 9.929zm-157.32 19.92c0 29.74-24.12 53.86-53.86 53.86s-53.86-24.12-53.86-53.86c0-29.73 24.12-53.85 53.86-53.85s53.86 24.119 53.86 53.85z" stroke="#231f20" stroke-width="7"/><path d="m616.99 344.49c-1.25-5.74-8.93-12.73-15.36-7.94m19.72 28.67c2.06 6.08-1.15 16.93-9.76 15.98m-33.461-27 .521 1.88 5.46 19.78m-14.74 187.349c.17-.31.351-.6.53-.89 11.75-18.42 47.9 6.88 11.86 40.74m0 .001c-38.841 33.74-64.21-15.16-36.78-22.06.17-.05.34-.09.51-.13" stroke="#000" stroke-width="3.002"/><path d="m569.9 562.32c-10.51-1.97-14.87-10.5-17.11-13.11-.569-.68-1.01-.96-1.37-.649m-6.45 33.189c.01-.25.01-.5.01-.75.04-11.37-7.42-15.63-9.99-17.029-.37-.2-.64-.351-.77-.44m43.409 17.009c4.69-3.529 7.811-13.449.74-17.26m-.74 17.26c1.53-7.27 2.07-13.699.74-17.26m-17.719 29.92c-4.66 4.41-15.84 6.08-18.61-2.149m18.61 2.149c-8.05.4-15.03-.13-18.61-2.149m10.47-41.711-17.15 14.52m-157.31 60.59c-.4 1.22-.95 2.41-1.65 3.54-5.61 9.2-20.56 14.78-43.2.37m0 0c-42.28-29.31-1.2-65.96 12.28-41.12.09.16.18.33.26.49" stroke="#000" stroke-width="3.002"/><path d="m344.75 587.419c.25-.06.49-.1.73-.18 1.44-.36 2.75-.82 3.91-1.34m-11.85 19.56c-5.43-3.42-9.8-13.859-2.53-18.58m2.53 18.58c-2.38-7.72-3.6-14.6-2.53-18.58m-72.86-179.349c.01.36 0 .7-.02 1.04-.95 21.84-44.9 18.02-30.65-29.32m0 0c16.74-48.64 63.16-19.04 42.89.68-.12.12-.26.25-.39.37" stroke="#000" stroke-width="3.002"/><path d="m262.13 408.57c9.64-3.4 17.43 1.21 20.93 2.63 1.1.44 1.78.57 1.97.05m-11.02-31.97c.12.22.24.44.36.65 5.49 9.58 13.74 9.83 16.9 9.76.55-.01.95-.03 1.14-.01m-46.08 6.99c-2.29 5.42-.03 15.57 8.01 15.34m-8.01-15.34c2.31 7.07 5.06 12.89 8.01 15.34m.36-34.79c1.82-6.17 10.68-13.19 17.19-7.46m-17.19 7.46c13.41-8.67 8.57-5.95 17.19-7.46m11.82 41.36 7.57-21.15m135.78-134.39c-.33.12-.66.23-.98.32-5.13 1.5-9.65.07-12.81-2.98-9.75-9.39-6.63-34.16 30.71-35.48m0 0c51.45.2 38.33 53.68 13.149 40.84-.159-.08-.319-.16-.479-.25" stroke="#000" stroke-width="3.002"/><path d="m426.07 255.89.01.01c6.64 8.46 4.23 17.82 4.22 21.22 0 .32.02.59.069.81.08.33.24.52.53.52m26.73-20.73c-.17.19-.34.37-.5.56-7.319 8.29-4.89 16.17-3.819 19.13.189.53.34.9.38 1.09m-21.44-41.39c-5.86-.42-14.74 4.97-11.93 12.5m11.93-12.5c-5.93 4.46-10.57 8.94-11.93 12.5m33.04-10.84c6.42-.25 15.93 5.87 12.59 13.88m-12.59-13.88c6.34 5.01 11.24 10 12.59 13.88m-35.34 24.48 22.46.38" stroke="#000" stroke-width="3.002"/><g stroke="#231f20"><path d="m578.65 356.08c-7.28 21.14-27.33 36.33-50.93 36.33-29.74 0-53.86-24.12-53.86-53.86s24.12-53.86 53.86-53.86c29.729 0 53.85 24.12 53.85 53.86a53.731 53.731 0 0 1 -2.92 17.53z" stroke-width="7"/><path d="m546.379 163.22c.171-.31.351-.6.53-.89 9.11-14.32 32.95-2.26 26.271 19.7-1.91 6.32-6.36 13.46-14.42 21.03m0 0c-6.591 5.72-12.79 9.07-18.41 10.64-9.811 2.75-17.86.11-23.12-4.68-9.49-8.65-9.91-24.33 4.75-28.02.17-.05.34-.09.51-.13m24.41-18.54c-10.51-1.97-14.88-10.51-17.12-13.12-.57-.67-1.01-.96-1.37-.65" stroke-linecap="round" stroke-linejoin="round" stroke-width="3"/><path d="m521.97 181.75c.01-.25.01-.5.01-.75.02-5.58-1.76-9.45-3.9-12.11-2.2-2.76-4.77-4.21-6.09-4.92-.37-.2-.64-.34-.77-.43m43.409 17c1.53-7.26 2.07-13.7.74-17.26m-17.709 29.92c-8.069.4-15.04-.13-18.62-2.15m10.46-41.71-17.14 14.52m59.05 479.74c8.86 6.99 12.29 23.779-8.649 43.46m8.269-43.75c.13.09.26.189.38.29" stroke-linecap="round" stroke-linejoin="round" stroke-width="3"/><path d="m550.91 646.33c4.82-7.569 13.76-7.77 20.12-3.02" stroke-width="7"/><path d="m550.379 647.22c.171-.311.351-.601.53-.891m11.851 40.731c-32.631 28.33-55.74-1.62-46.051-16.03 1.841-2.75 4.881-4.93 9.271-6.03.17-.05.34-.09.51-.13m24.41-18.54c-10.51-1.97-14.88-10.51-17.12-13.12-.57-.67-1.01-.96-1.37-.649" stroke-linecap="round" stroke-linejoin="round" stroke-width="3"/><path d="m525.97 665.75c.01-.25.01-.5.01-.75.04-11.37-7.41-15.63-9.99-17.029-.37-.2-.64-.341-.77-.431m43.409 17c1.53-7.26 2.07-13.699.74-17.26m-17.709 29.92c-8.069.4-15.04-.13-18.62-2.149m10.46-41.711-17.14 14.52" stroke-linecap="round" stroke-linejoin="round" stroke-width="3"/></g></g><path d="m.25.25h850.394v850.394h-850.394z" fill="none"/></svg>