<svg height="850" viewBox="0 0 850 850" width="850" xmlns="http://www.w3.org/2000/svg"><path d="m122.8 312.9-5.5-3.2-2.8-1.8-2.5-1.7-2.5-2.3-2-2.5-2-2.5-1.5-2.7-1.2-2.8-1-3-.8-3-.5-3.2v-6.3l.5-3.2 1-3.3 1-3.2 1.5-3 1.8-3.5 1.2-2 1.5-2.3 1.5-1.7 1.5-1.8 1.8-1.7 2-1.5 2-1.3 2-1.2 2-1.3 2.2-.7 2-.8 2.3-.7 2.2-.3 2.5-.5h4.5l3.3.5 3.2.8 3.3 1 3 1.5 62.5 33.2 1 1-8.5 13-9.5 15.5 1.5-3 1.2-2.7.8-2.8.7-2.5.5-2.5.3-2.5v-4.2l-.5-2-.5-1.8-1-1.5-1-1.5-1.3-1.5-1.5-1.2-1.7-1-1.8-.8-3.5-1.2-3-.5h-1.2l-1.3.2-1.2.3-1.3.7-1 .8-1.2 1-2.3 2.7-2.5 3.8-2.7 5-1.8 2.7-2 3-5 7.3-2.7 4.5-3 5.5-3.3 6-3.2 7-5-2.3z" fill="#f6cc4b"/><path d="m135.8 392.2-.3-5 .3-5.3.5-5.2.7-5 1-5.3 2-9.7 2.5-9 2.5-8 2-6 2.3-6 3.2-7 3.3-6 3-5.5 2.7-4.5 5-7.3 2-3 1.8-2.7 2.7-5 2.5-3.8 2.3-2.7 1.2-1 1-.8 1.3-.7 1.2-.3 1.3-.2h1.2l3 .5 3.5 1.2 1.8.8 1.7 1 1.5 1.2 1.3 1.5 1 1.5 1 1.5.5 1.8.5 2v4.2l-.3 2.5-.5 2.5-.7 2.5-.8 2.8-1.2 2.7-1.5 3-4.8 8.3-4.2 7.7-4 7.5-3.3 6.8-1.7 6.7-1.5 7.5-2 9.5-1.8 11-1.5 12.3-.7 6-.3 6.2-.2 6.3v6l.2 4.2.5 4 .5 3.8.8 3.5h-.8l-1.5.2-4 .5h-2.5l-2.7-.2-3.3-.8-3.2-1-3.3-1.5-1.5-1-1.5-1.2-1.5-1.3-1.5-1.5-1.5-1.7-1.2-1.8-1.3-2.2-1-2.3-1-2.7-1-2.8-.7-3.2-.5-3.5-.5-3.5z" fill="#ffeec8"/><path d="m144.3 325.4 5 2.3-2.3 6-2 6-2.5 8-2.5 9-2 9.7-1 5.3-.7 5-.5 5.2-.3 5.3-2.5-9.8-2.5-9.5-2.2-9.2-1.8-9.3-1.7-9-1.3-8.7-1-8.8-.7-8.5 1-1.5z" fill="#ffeec8"/><path d="m357.8 604.7-1.3-3.8-.7-3.7-1.3-7.3-1-3.5-1.2-3.5-1-1.5-1.3-1.7-1.2-1.5-1.5-1.5-2.8-2.8-2.7-2.7-2.5-2.8-2.3-2.2-1.2-1-1.5-.8-1.3-.5-1.5-.5-1.5-.2-1.5.2-1.5.3-2 .7-2 .3 4.5-4.5 4.8-4.3 4.7-4 4.8-3.7 4.7-3.8 4.8-3.2 4.5-2.8 4.2-2.7 14.8-8.5 6.7 3.2-1.2 2.5-1.5 2.8-1.8 2.5-2 2.5-2.2 2.5-2.5 2.5-2.8 2.5-3.2 2.7.2-1.5.8-1.7-3 4.7 2-1.5-.3 1.5v1.8l.3 1.7.5 1.8.7 1.5 1 1.5 1.3 1.2 1.2 1.3 1.5 1.2 1.8 1 3.7 1.8 4.3 1.7 4.7 1 5 1 5 .8 5 .5 5 .2h9l4-.2 3.5-.3 2.8-.5 4-.7 3.7-1 7.8-2.3 7.7-2.7 7.8-2.5 17.2 5.7 17 5.3 16.8 4.5 8 2 8 1.7 8 1.8 7.7 1.5 7.5 1.2 7.5 1 7.3.8 7 .7 7 .5 6.7.3 1.8 1.5 2.2 1.5 2.8 1.5 3.2 1.2 2.5.5 2.5.5 2.8.3h2.5l5.2-.3 5.3-.2 5.5-.3h2.5l2.7.3 2.8.5 2.5.5 2.7 1 2.5 1.2 2 1.3 2 1.2 3.5 3.3 3.5 3.2 3 3.8 3.3 3.5 3.2 3.2 3.8 3.3 1.7 1.2 2.3 1.3 3.7 1.7 5 1.3 5.5 1.2 6.3 1-9.8 1.3-10 1.7-9.7 2.3-4.5 1-4.5 1.5-4.3 1.2-4 1.5-3.7 1.8-3.3 1.7-3 1.8-2.5 2-2 2-1.5 2.2-3.5 7.3-3 6-2 5.5-1.7 5.2-3.3 11-1.7 6.8-2.5 8-1.8 5.5-2.5 5.5-1.2 2.7-1.5 2.8-1.8 2.7-1.7 2.3-2 2.5-2 2-2.3 2-2.5 1.7-2.5 1.5-2.7 1-3 .8-3 .2h-2.5l-2.5-.2-2.5-.5-2-.8-2.3-1-2-1.2-1.7-1.5-1.8-1.5-3.2-3.5-3.3-4-5.7-8-2-2.5-2-2.3-2-2-1.8-1.7-2-1.5-2-1.3-1.7-1.2-2-.8-1.8-.5-2-.5-1.7-.2h-3.8l-1.7.5-1.8.5-1.7.5-3.5 2-3.5 2.2-3.3 3-3.2 3.3-3.3 4-3.2 4-3 4.5-2.8 4.7-1.7 3-1.3 3.3-1.2 3.5-1 3.7-2.3 8-2.2 8-1.3 3.8-1.2 3.7-1.5 3.3-1.8 3-1.7 2.7-2.3 2-1.2 1-1.3.8-1.5.5-1.2.5-3 .5-2.8.5h-2.7l-2.8-.3-2.5-.2-2.5-.8-2.2-.7-2.3-1-2.2-1-2.3-1.5-2-1.3-2-1.7-4-3.5-3.5-4-3.5-4.3-3-4.5-3.2-4.5-2.8-4.5-5.5-9-2.5-4.2-2.5-4-2.7-3.8-3-3.5-3-3.5-3.3-3.2-3.2-3.3-3.5-3-7-5.7 3.5 1 3.2.7 3.3.3 3.2.2 3-.2 3-.5 3-.8 2.8-1.2 3-1.8 2.5-1.7 2-2 1.7-2 1.5-2 1-2.3.8-2 .5-2.2v-4.8l-.3-2.2-.7-2.5-.8-2.5-1-2.3-2.5-5-3-4.7-3.5-4.8-3.7-4.7-3.8-4.3-7.5-7.7-6.2-6.3-7-6.7-3.3-3.3-3-3-2.7-3.5-2.5-3.5-2.3-4z" fill="#9e5c26"/><path d="m375.3 701.7-6.3-4.8-6.5-4.5-12.7-9.2-6.3-4.8-6-5.2-5.7-5.3-2.8-3-2.7-3-2.8-3.5-2.7-3.7-2.5-4.3-2.5-4.2-2.3-4.3-2-4.5-1.7-4.7-1.5-4.8-1.3-5-1-4.7-.7-5-.5-4.8v-4.7l.5-5 .5-4.5 1.2-4.8 1-3 1.5-3.2 1.8-3.3 2-3 2-3.2 2.5-3 2.5-3 2.7-3 2-.3 2-.7 1.5-.3 1.5-.2 1.5.2 1.5.5 1.3.5 1.5.8 1.2 1 2.3 2.2 2.5 2.8 2.7 2.7 2.8 2.8 1.5 1.5 1.2 1.5 1.3 1.7 1 1.5 1.2 3.5 1 3.5 1.3 7.3.7 3.7 1.3 3.8 1.7 4.7 2.3 4 2.5 3.5 2.7 3.5 3 3 3.3 3.3 7 6.7 6.2 6.3 7.5 7.7 3.8 4.3 3.7 4.7 3.5 4.8 3 4.7 2.5 5 1 2.3.8 2.5.7 2.5.3 2.2v4.8l-.5 2.2-.8 2-1 2.3-1.5 2-1.7 2-2 2-2.5 1.7-3 1.8-2.8 1.2-3 .8-3 .5-3 .2-3.2-.2-3.3-.3-3.2-.7z" fill="#9e5c26"/><path d="m251 628.7.3-2.8.7-2.5 1-2.5 1.3-2.2 1.5-2.3 2-2 2-2 2-1.7 4.7-3.8 4.8-3.2 4.5-3.3 4-3 2.5-2.5 2-2.5 1.7-2.7 1.5-2.5 2.8-5.3 1.2-2.2 1.5-2.5 2-2.3 2-2.2 2.8-1.8 3-1.7 4-1.5 4.5-1.5 5.5-1 6.2-.5-2.7 3-2.5 3-2.5 3-2 3.2-2 3-1.8 3.3-1.5 3.2-1 3-1.2 4.8-.5 4.5-.5 5v4.7l.5 4.8.7 5 1 4.7 1.3 5 1.5 4.8 1.7 4.7 2 4.5 2.3 4.3 2.5 4.2 2.5 4.3 2.7 3.7 2.8 3.5 2.7 3 2.8 3 5.7 5.3 6 5.2 6.3 4.8 12.7 9.2 6.5 4.5 6.3 4.8-4.8-1.5-4.7-2-4.8-2.3-4.5-2.5-4.2-2.7-4-2.5-3.5-2.8-3.3-2.5-6.5-5.2-6.2-4.5-6.3-4.3-6.2-3.7-6.5-3.3-6.8-2.7-7.5-2.8-8.2-2.2-5.5-1.5-5.8-1.5-6.2-2-2.8-1-3-1.3-2.7-1.5-2.5-1.7-2-1.8-2-2.2-1.5-2.3-1.3-2.7-.7-3z" fill="#9e5c26"/><path d="m685.5 219.7 2.8.5 2.2 1 1 .5.8.7.5.8.5.7.2 1 .3 1v1l-.3 1-.5 1-.5 1-1.7 2.5-3.3 3-3.5 3-3.7 2.5-4 2.3-8 4.5-4 2.2-4 2.3-2.8 2.2-2.7 2.3-5.3 5-5 5.2-5 5.3-3 2.2-2.7 2.5-6.3 4.3-6 4.2-6.2 4-5 3.5-5.5 3.5-5.5 3.5-2.8 2-2.7 2-2.5 2.3-2.3 2.2-2 2.3-1.7 2.7-1.5 2.8-1 2.7-.8 3.3-.2 3.5v82.5l-11-9.3v-75.2h4l.5-2.3.5-3.2 1.2-8.3.8-5 1-4.5 1-3.7.5-1.3.7-1 1.8-2.2 1.5-2.3 1.2-2.2.8-2.3 1.5-5 1.5-5.2 1-4.5 1.5-4.5 1.5-4.3 1.7-4 2-3.7 2.3-3.8 2.2-3.2 2.8-3.3 2.7-3 3-3 3.3-2.5 3.5-2.5 3.7-2.2 4-2 4.3-1.8 4.5-1.5 3.7-1.2 3.5-1.3 6.8-2.7 3.2-1 3.5-.8 3.5-.5h4z" fill="#6ebe44"/><path d="m577 309.9-1.2 8.3-.5 3.2-.5 2.3h-4v-5.3l-1-2.5-1.5-3.2-2.3-3.3-2.2-3.5-2.5-3.5-2.5-3-2.3-2.5-2-1.7-5.2-4.3-2.5-2.2-2.5-2.3-2-2.5-2-2.5-2-3-1.8-3-1.2-2.7-1.5-3-2-6-1.8-6-1.2-6-.8-6.3-.7-6.2-1.3-12.8-.5-4.5-1-4.5-1-4.5-1.2-4.5-3-8.5-3-8.7-1.3-4-1.2-4.3-.8-4.2-.5-4.3.3-4.2.2-2.3.3-2 .7-2 .8-2 1-1.7 1.2-2 2-2.5 2.3-2 2.2-1.5 2.3-1 1.2-.3h1.3l1.2.3 1.3.2 2.7.8 3 1.7 1.8 1.5 1.5 1.5 1.5 1.8 1 2 2.5 3.7 1.2 1.8 1.5 1.7 1.3 1.3 1.5 1 3 2 3.2 1.7 3 2 1.5 1.3 1.5 1.5 1 1.5 1 1.5 1 1.7.8 1.8 1.2 3.5.8 4 .5 3.7 1 7.8.7 4.7.3 5v5.3l-.3 5-.5 5.2-.7 5-1 5-1.3 4.8-1.7 6-1 3-.5 2.7-.5 2.8v3l.2 3 .8 3.2 2.2 6.5 2.3 6.5 1.5 6 1.7 8.3 2.8 14.2z" fill="#6ebe44"/><path d="m429 398.2-31 58-3-.5-44.2-22.3-5-1 3-1.2 2-1 2-1.5 1.7-1.3 2-1.7 1.8-2 2-2.3 1.7-2.7 2-3 2.3-3.5 2-4 4.7-9.3 5.3-11.7 6-14.5 1.2.7 38.8 20.5z" fill="#f6cc4b"/><path d="m252.5 287.4.5-1 3.5-5.7 2.8-4.5 1.5-1.8 1.2-1.5 1.3-1.2 1.5-1 1.2-.5 1.5-.5 1.5-.3h1.5l1.5.3 2 .2 4 1.5 2.3 1 2.2 1.5 1.8 1.8 1.5 2 1.2 2.2.8 2.5.7 2.8.3 3 .2 3-.2 3.2-.5 3.5-.8 3.5-1.2 3.5-1.3 3.8-1.7 3.5-1.8 3.7v.3l-2.7 4.2-3.3 5.5-4.7 8-7 12.3-4 7.2-4 7.8-4 8-4 8.2-2 6.8-2 7.5-2.3 9.5-2.2 11-1 6-.8 6-.7 6-.5 6.2v11.8l.2 3.7.5 3.8.8 3.2.7 3 1 3 1 2.8 1.3 2.5 1.2 2.2-3.5 2-1 .3-3.2.5h-5l-2.8-.5-2.7-.5-3.3-1-3-1.3-3-2-3-2.2-1.5-1.5-1.2-1.8-1.5-1.7-1.3-2-1-2-1.2-2.5-1-2.5-.8-2.8-1-4-1-4.2-.5-5-.2-5.3v-12.7l.5-6.5.5-6.3 1-6.2.7-6.3 2-11.5 2-9.7 1.8-7.8 1.7-6.7 2.3-4.5 2.2-4.8 5.5-10.2 6.3-10.5 6.2-10.5 12-18.8z" fill="#ffeec8"/><path d="m195.8 310.4 9.5-15.5 8.5-13 4.2-6.7 2.5-4.3 3.3-5.5 2.7-4.2 1.3-1.8 1.2-1.5 1.3-1 1.2-1 1.5-.5 1.3-.5 1.5-.2h1.5l1.5.2 1.7.3 3.8 1.2 2 1 1.7 1.3 1.5 1.2 1.3 1.8 1.2 1.7.8 2 .7 2 .8 2.3.2 2.2.3 2.3v2.2l-.3 2.3-.2 2.2-.3 2.3-.7 2.2-.8 2-7.5 12-12 18.8-6.2 10.5-6.3 10.5-5.5 10.2-2.2 4.8-2.3 4.5-1.7 6.7-1.8 7.8-2 9.7-2 11.5-.7 6.3-1 6.2-.5 6.3-.5 6.5v12.7l.2 5.3.5 5 1 4.2 1 4-2.5.5-3.5.3h-2.2l-2.3-.3-2.2-.5-2.5-.7-2.3-1.3-2.5-1.5-2.2-2-2.3-2.2-2-3-2-3.5-1.5-4.3-1.2-4.7-.8-3.5-.5-3.8-.5-4-.2-4.2v-6l.2-6.3.3-6.2.7-6 1.5-12.3 1.8-11 2-9.5 1.5-7.5 1.7-6.7 3.3-6.8 4-7.5 4.2-7.7zm134.2 127.8 7.3-2.5.5 1.7-3.5 4.5-5.5 6.8-14.5 17.7-19.5 23.3-4 1.2-4 .8-3.5.5h-5.8l-2.2-.3-1.8-.5h-.7l-2.5-.2-3.5-1-4.5-1.5-2.3-1-2.5-1.3-2.5-1.5-2.7-1.7-2.5-2.3-2.3-2.5-2.2-2.7-2.3-3.3-1.2-2.2-1.3-2.5-1-2.8-1-3-.7-3-.8-3.2-.5-3.8-.2-3.7v-11.8l.5-6.2.7-6 .8-6 1-6 2.2-11 2.3-9.5 2-7.5 2-6.8 4-8.2 4-8 4-7.8 4-7.2 7-12.3 4.7-8 3.3-5.5 2.7-4.2 2-2.3 2-1.7 1.8-1.3 2-.7h4.5l2.5.7 3 1 3 1.3 2.5 1.7 2.2 2 1.5 2.3 1.3 2.2 1 2.5.5 2.8.2 2.7-.2 2.8-.3 2.7-.5 2.8-.7 2.5-.8 2.7-1 2.3-1.2 2.5-1.3 2-3.7 6.2-3 5.5-2.3 5.3-2 4.5-1.5 4.5-1.5 4.2-2.7 9-.8 2.8-.2 3.5v4.5l.2 5 .5.2-3 3-3 3.3-2.5 3-2 3-2 2.7-1.5 2.8-1.2 2.5-1 2.5-.8 2.2-.5 2.3-.2 2.2v3.8l.2 1.7.5 1.8 1.3 3 1.5 2.5 1.7 2.2 2 1.8 2 1.5 1.5 1 1.5.7 1.3.5 10.7-3.5 14.3-5.2z" fill="#ffeec8"/><path d="m288.5 404.9-.5-.2-.2-5v-4.5l.2-3.5.8-2.8 2.7-9 1.5-4.2 1.5-4.5 2-4.5 2.3-5.3 3-5.5 3.7-6.2 1.3-2 1.2-2.5 1-2.3.8-2.7.7-2.5.5-2.8.3-2.7.2-2.8-.2-2.7-.5-2.8-1-2.5-1.3-2.2-1.5-2.3-2.2-2-2.5-1.7-3-1.3-3-1-2.5-.7h-4.5l-2 .7-1.8 1.3-2 1.7-2 2.3v-.3l1.8-3.7 1.7-3.5 1.3-3.8 1.2-3.5.8-3.5.5-3.5.2-3.2-.2-3-.3-3-.7-2.8-.8-2.5-1.2-2.2-1.5-2-1.8-1.8-2.2-1.5-2.3-1-4-1.5-2-.2-1.5-.3h-1.5l-1.5.3-1.5.5-1.2.5-1.5 1-1.3 1.2-1.2 1.5-1.5 1.8-2.8 4.5-3.5 5.7-.5 1 .8-2 .7-2.2.3-2.3.2-2.2.3-2.3v-2.2l-.3-2.3-.2-2.2-.8-2.3-.7-2-.8-2-1.2-1.7-1.3-1.8-1.5-1.2-1.7-1.3-2-1-3.8-1.2-1.7-.3-1.5-.2h-1.5l-1.5.2-1.3.5-1.5.5-1.2 1-1.3 1-1.2 1.5-1.3 1.8-2.7 4.2-3.3 5.5-2.5 4.3-4.2 6.7-1-1-62.5-33.2-3-1.5-3.3-1-3.2-.8-3.3-.5 7.3-15.5 7.5-17.2 7.7-18.3 7.3-18 6.5-17.5 2.7-8.2 2.5-7.8 2.3-7.2 1.7-6.5 1.3-5.8.7-5 3.8-40.5.2-3 157 3-.5 5.3-.5 5-.2 5.2v5l.2 5.3.3 5 .5 5.2.7 5 1.8 10.3 2.2 10.2 2.8 10 3 10 3.2 9.5 3.8 9.5 3.7 9 3.8 8.8 7.5 16.2 6.7 14.5 3.5 7 3.5 6.3 6.5 11.5 3 5.2 2.5 5.5 2.3 5.5.7 3 .8 3 .5 3 .5 3.5.2 3.3v7.7l-.5 4-.5 4.3-.7 4.7-1 5-1.3 5.3-1.5 5.5-1.5 6-4.5 13.2-5.5 15-7.7 19.8-6 14.5-5.3 11.7-4.7 9.3-2 4-2.3 3.5-2 3-1.7 2.7-2 2.3-1.8 2-2 1.7-1.7 1.3-2 1.5-2 1-3 1.2-4 1.8-4.5 1.5-7.3 2.5-20.7 8-14.3 5.2-10.7 3.5-1.3-.5-1.5-.7-1.5-1-2-1.5-2-1.8-1.7-2.2-1.5-2.5-1.3-3-.5-1.8-.2-1.7v-3.8l.2-2.2.5-2.3.8-2.2 1-2.5 1.2-2.5 1.5-2.8 2-2.7 2-3 2.5-3 3-3.3z" fill="#ffeec8"/><path d="m751 599.9.8 3v5l-.5 2.5-1 2-1.3 2.3-1.2 1.7-1.8 2-2 1.5-2.2 1.5-2.5 1.5-2.5 1.3-3 1-3 1-6.3 1.7.8-.7.5-.8.2-1.2-.2-1.3-.3-1.5-.5-1.7-1.7-3.8-2.5-4.5-3-4.7-7.3-10.8-7.7-11-3.8-5.5-3.5-5.5-3.2-5-2.5-4.7-2-4.3-.5-2-.5-1.7-.8-4-1.2-4-1.5-3.5-1.8-3.8-2.2-3.5-2.5-3.5-3-3.5-3.3-3.2 4 2.2 3.8 2.3 3.5 2.5 3.2 2.7 3 2.5 2.8 2.8 5 5.2 8.7 10 4.3 4.5 2 2 2.2 1.8 3 2.2 2.8 1.8 5.7 3.5 5.8 3 5.5 3.2 2.5 1.5 2.5 2 2.2 2 2 2.3 2 2.2 1.5 3 1.5 3z" fill="#9e5c26"/><path d="m724.5 627.9-1.5.5-2 .3zm-7 .3 2 .2 1.5.3-4.7.7-5 .5-5 .3-5 .2h-5.3l-4.7-.2-5-.3-4.5-.5 11.7-1.2 10.5-.5h8.3l3 .2z" fill="#231f20"/><path d="m670.5 528.2 3.3 3.2 3 3.5 2.5 3.5 2.2 3.5 1.8 3.8 1.5 3.5 1.2 4 .8 4 .5 1.7.5 2 2 4.3 2.5 4.7 3.2 5 3.5 5.5 3.8 5.5 7.7 11 7.3 10.8 3 4.7 2.5 4.5 1.7 3.8.5 1.7.3 1.5.2 1.3-.2 1.2-.5.8-.8.7-3.5.8-1.5-.3-2-.2-2.2-.3-3-.2h-8.3l-10.5.5-11.7 1.2-6.3-1-5.5-1.2-5-1.3-3.7-1.7-2.3-1.3-1.7-1.2-3.8-3.3-3.2-3.2-3.3-3.5-3-3.8-3.5-3.2-3.5-3.3-2-1.2-2-1.3-2.5-1.2-2.7-1-2.5-.5-2.8-.5-2.7-.3h-2.5l-5.5.3-5.3.2-5.2.3h-2.5l-2.8-.3-2.5-.5-2.5-.5-3.2-1.2-2.8-1.5-2.2-1.5-1.8-1.5h7.5l7.3-.3 7-.2 6.7-.8 6.5-1 6-1.2 5.8-1.5 5.5-1.8 5.2-2 4.8-2.5 4.2-2.5 4-2.7 3.8-3.3 3.2-3.5 2.8-3.5 2.5-4 2-4.5 1.5-4.7 1-4.8.5-5 3-.7z" fill="#9e5c26"/><path d="m670.5 528.2 1.3 10.5-3 .7.2-3.5-.2-3.2-.3-3.5-.5-3.3z" fill="#231f20"/><path d="m668 525.9.5 3.3.3 3.5.2 3.2-.2 3.5-7.3 1-7.2 1-14.8 1.3-7.2.7-7.3 1-7.2 1.3-7.3 1.7-3 1-3.2 1.5-3.3 1.8-3.5 2.2-3.2 2.3-3.3 2.7-3 3-2.7 3-2.5 3-2 3.3-1.5 3.2-1 3.3-.3 1.5-.2 1.5v1.5l.2 1.5.5 1.5.5 1.2 1 1.5 1 1.3-6.7-.3-7-.5-7-.7-7.3-.8-7.5-1-7.5-1.2-7.7-1.5-8-1.8-8-1.7-8-2-16.8-4.5-17-5.3-17.2-5.7 7.2-2.5 7.3-2 3.7-1 3.8-.8 3.7-.5 4-.2h9.5l9.5.2 18.5.8 9.5.2 9.5-.2 4.8-.3 4.7-.5 4.8-.5 5-1 5.2-1.2 5.8-1.5 6.2-2 6.5-2.5 6.5-2.8 6.3-3 5.7-3.5 2.8-1.7 2.7-2 2.3-1.8 2.2-2 1.8-2.2 1.7-2 1.5-2.3 1-2.2.8-2.3.2-2.2v-2.5l-.5-2.5-.7-2.5-1.3-2.5-1.7-2.5-2.5-2.5-2.8-2.8-3.2-2.5-8.8-6-8.5-5.7-8.2-5.5-8.3-5.8 3.8 1.5 4.2 1.3 5.3 1 5.5.7 11 1 5.2.5 4.8.8 4.5 1.2 2 .5 2 1 2.7 1.5 2.5 1.8 2.3 1.7 2 2 2 2 1.7 2.3 3.3 4.2 3 4.3 3 4 1.5 2 1.5 1.5 1.7 1.5 1.8 1.5 5 3.2 4.5 3 4 3.3z" fill="#c8c8c8"/><path d="m668.8 539.4-.5 5-1 4.8-1.5 4.7-2 4.5-2.5 4-2.8 3.5-3.2 3.5-3.8 3.3-4 2.7-4.2 2.5-4.8 2.5-5.2 2-5.5 1.8-5.8 1.5-6 1.2-6.5 1-6.7.8-7 .2-7.3.3h-7.5l-1-1.3-1-1.5-.5-1.2-.5-1.5-.2-1.5v-1.5l.2-1.5.3-1.5 1-3.3 1.5-3.2 2-3.3 2.5-3 2.7-3 3-3 3.3-2.7 3.2-2.3 3.5-2.2 3.3-1.8 3.2-1.5 3-1 7.3-1.7 7.2-1.3 7.3-1 7.2-.7 14.8-1.3 7.2-1zm-.8-13.5-3.7-3.2-4-3.3-4.5-3-5-3.2-1.8-1.5-1.7-1.5-1.5-1.5-1.5-2-3-4-3-4.3-3.3-4.2-1.7-2.3-2-2-2-2-2.3-1.7-2.5-1.8-2.7-1.5-2-1-2-.5-4.5-1.2-4.8-.8-5.2-.5-11-1-5.5-.7-5.3-1 .3-1.8v-66.2l9 7.7 8.7 7.8 8 7.7 7.8 7.8 7.2 7.7 6.5 7.8 6.5 7.7 5.8 7.5 5.2 7.5 4.8 7.3 4 7.2 3.7 7 3 7 2.8 6.8 1.7 6.7zm-71-29.5.5 2v2l-.2 1.8-.8 1.5-1 1.5-1.5 1.2-1.7 1-2 1-2.3 1-2.7.5-2.8.8-3 .2-6.5.8h-7l-7-.3-7.2-.5-7.3-.7-6.7-1-6-1.3-5.5-1.2-4.3-1.5-3.2-1.3-3.5-2.2-3.3-2.5-2.5-2.5-2.2-2.8-1.8-3-1.5-3-1-3.2-1-3.5 30.5 7.2-18.7-16.2 6.2-1.8 6.5-1.2 6.5-.8 6.3-.7 4.7 3.2 2.8 1.3 3 1.5 3.5 1.2 3.7 1 8 2.3 8.3 2.5 4 1.5 3.7 1.2 3.8 1.8 3.2 1.7 3 2 2.5 2.3 1 1.2 1 1.3.8 1.2z" fill="#c8c8c8"/><path d="m581.8 408.2v66.2l-.3 1.8-4.2-1.3-3.8-1.5-5.5-4 2.8-.5v-70zm-8.3 65.2 8.3 5.8 8.2 5.5 8.5 5.7 8.8 6 3.2 2.5 2.8 2.8 2.5 2.5 1.7 2.5 1.3 2.5.7 2.5.5 2.5v2.5l-.2 2.2-.8 2.3-1 2.2-1.5 2.3-1.7 2-1.8 2.2-2.2 2-2.3 1.8-2.7 2-2.8 1.7-5.7 3.5-6.3 3-6.5 2.8-6.5 2.5-6.2 2-5.8 1.5-5.2 1.2-5 1-4.8.5-4.7.5-4.8.3-9.5.2-9.5-.2-18.5-.8-9.5-.2h-9.5l-4 .2-3.7.5-3.8.8-3.7 1-7.3 2-7.2 2.5-18.3-7-18.2-7.5-18.5-8.3-18.8-9 2.3-4.7 2-5 9.5-5.5 9.2-5 8.8-4.5 8.7-4 8.8-3.5 8.7-3 4.8-1.3 4.5-1.2 4.7-1 4.8-1-6 4.5-6.5 4.2-13 8-6.8 4-6.2 4.3-6.5 4.5-6 5 90.2-33-1.2-3.8-1-4.5-.5-4.5 7.2 1.8 1 3.5 1 3.2 1.5 3 1.8 3 2.2 2.8 2.5 2.5 3.3 2.5 3.5 2.2 3.2 1.3 4.3 1.5 5.5 1.2 6 1.3 6.7 1 7.3.7 7.2.5 7 .3h7l6.5-.8 3-.2 2.8-.8 2.7-.5 2.3-1 2-1 1.7-1 1.5-1.2 1-1.5.8-1.5.2-1.8v-2l-.5-2-.7-1.5-.8-1.2-1-1.3-1-1.2-2.5-2.3-3-2-3.2-1.7-3.8-1.8-3.7-1.2-4-1.5-8.3-2.5-8-2.3-3.7-1-3.5-1.2-3-1.5-2.8-1.3-4.7-3.2h9l4.5.2 4.2.8 4.3.7 4.2 1 4 1.5z" fill="#c8c8c8"/><path d="m570.8 398.9v70l-2.8.5-5.2-4.5-5.3-4.5-4.5-4.2-4.7-4.5-5.3-4.3-5.5-4.5-5.7-4-5.8-4-6-3.5-6.2-3.2-6.3-2.5-3-1.3-3.2-.7-3-.8-3.3-.5-3-.5h-6.2l-3 .5-3 .5-3 .8-3 1.2-2.8 1.3-2.7 1.7-2.8 2-36.5-31.7 36.3-68.3 14.7 8 14.3 8.3 14 8.5 13.5 8.7 13 8.5 12.5 9 12 9z" fill="#c8c8c8"/><path d="m568 469.4 5.5 4-4-1.5-4-1.5-4.2-1-4.3-.7-4.2-.8-4.5-.2h-9l-5.3-4-4.7-4.3-4.3-3.5-2.2-1.2-2-1.3-2.3-.7-2.2-.5-2.5-.3-2.5.5-2.8.8-2.7 1.5-3.3 2-3.5 2.5-33.5-29.3 2.8-2 2.7-1.7 2.8-1.3 3-1.2 3-.8 3-.5 3-.5h6.2l3 .5 3.3.5 3 .8 3.2.7 3 1.3 6.3 2.5 6.2 3.2 6 3.5 5.8 4 5.7 4 5.5 4.5 5.3 4.3 4.7 4.5 4.5 4.2 5.3 4.5z" fill="#c8c8c8"/><path d="m532.5 488.4-30.5-7.2-.7-5.3 6.2-2 6.3-1.7z" fill="#f6cc4b"/><path d="m539.3 467.7-6.3.7-6.5.8-6.5 1.2-6.2 1.8-13.3-11.8v-1.2h-1.5l3.5-2.5 3.3-2 2.7-1.5 2.8-.8 2.5-.5 2.5.3 2.2.5 2.3.7 2 1.3 2.2 1.2 4.3 3.5 4.7 4.3z" fill="#c8c8c8"/><path d="m500.5 460.4 13.3 11.8-6.3 1.7-6.2 2-.5-3.7-.3-3.8zm1.5 20.8-7.2-1.8-.3-1 6.8-2.5zm-1.5-22v1.2l-1.5-1.2z" fill="#fff"/><path d="m499 459.2 1.5 1.2v8l.3 3.8.5 3.7-6.8 2.5-1-6.7-1-3.3-1-3-2.2.8-2 1-4 2.2-3.8 2.5-3.7 3-44.8-10.7 7.8-7.3 7.2-7 6.3-6.2 2.7-2.8 2.3-2.7 2-2.3 2-2.2 2-2 2.2-1.8z" fill="#f6cc4b"/><path d="m495.5 488.7.8-.3 1.2 3.8-90.2 33 6-5 6.5-4.5 6.2-4.3 6.8-4 13-8 6.5-4.2 6-4.5 6-.8 6.2-.7-1.5 1z" fill="#c8c8c8"/><path d="m496.3 488.4-.8.3h-13l-6 .2-6 .3 11-5.3 5.8-2.5 5.7-2.5 1.8.5.5 4.5z" fill="#c8c8c8"/><path d="m495.5 488.7-26.5 1.5 1.5-1 6-.3 6-.2h6.3z" fill="#c8c8c8"/><path d="m494.8 479.4-1.8-.5 1.5-.5z" fill="#fff"/><path d="m494.5 478.4-1.5.5-17.2-4 3.7-3 3.8-2.5 4-2.2 2-1 2.2-.8 1 3 1 3.3z" fill="#f6cc4b"/><path d="m475.8 474.9 17.2 4-5.7 2.5-5.8 2.5-11 5.3-6.2.7-6 .8 2-1.5 4-3.3 3.7-3.7 4-3.8z" fill="#c8c8c8"/><path d="m431 464.2 44.8 10.7-3.8 3.5-4 3.8-3.7 3.7-4 3.3-2 1.5-4.8 1-4.7 1-4.5 1.2-4.8 1.3-8.7 3-8.8 3.5-8.7 4-8.8 4.5-9.2 5-9.5 5.5 2.2-5 2.5-5.5 3-5.8 4-6.2 2.8-3.5 3.2-3.8 3.8-4 4.2-4.5 9.5-9z" fill="#c8c8c8"/><path d="m455.3 562.2-7.8 2.5-7.7 2.7-7.8 2.3-3.7 1-4 .7-2.8.5-3.5.3-4 .2h-9l-5-.2-5-.5-5-.8-5-1-4.7-1-4.3-1.7-3.7-1.8-1.8-1-1.5-1.2-1.2-1.3-1.3-1.2-1-1.5-.7-1.5-.5-1.8-.3-1.7v-1.8l.3-1.5 3.2-2.7 2.8-2.5 2.5-2.5 2.2-2.5 2-2.5 1.8-2.5 1.5-2.8 1.2-2.5 18.8 9 18.5 8.3 18.2 7.5z" fill="#9e5c26"/><path d="m398 456.2 33 8-10 9.2-9.5 9-4.2 4.5-3.8 4-3.2 3.8-2.8 3.5-4 6.2-3 5.8-2.5 5.5-2.2 5-11 6.5-11.3-6 34.5-64.8z" fill="#c8c8c8"/><path d="m429 398.2 36.5 31.7-2.2 1.8-2 2-2 2.2-2 2.3-2.3 2.7-2.7 2.8-6.3 6.2-7.2 7-7.8 7.3-33-8z" fill="#f6cc4b"/><path d="m385.8 520.7-2 5-2.3 4.7-6.7-3.2z" fill="#fff"/><path d="m362.3 552.4 3-4.7-.8 1.7-.2 1.5z" fill="#231f20"/><g fill="none" stroke="#231f20" stroke-linecap="round" stroke-miterlimit="10"><path d="m574.8 323.7.5-2.3.5-3.2 1.2-8.3.8-5 1-4.5 1-3.7.5-1.3.7-1 1.8-2.2 1.5-2.3 1.2-2.2.8-2.3 1.5-5 1.5-5.2 1-4.5 1.5-4.5 1.5-4.3 1.7-4 2-3.7 2.3-3.8 2.2-3.2 2.8-3.3 2.7-3 3-3 3.3-2.5 3.5-2.5 3.7-2.2 4-2 4.3-1.8 4.5-1.5 3.7-1.2 3.5-1.3 6.8-2.7 3.2-1 3.5-.8 3.5-.5h4l24 1.8 2.8.5 2.2 1 1 .5.8.7.5.8.5.7.2 1 .3 1v1l-.3 1-.5 1-.5 1-1.7 2.5-3.3 3-3.5 3-3.7 2.5-4 2.3-8 4.5-4 2.2-4 2.3-2.8 2.2-2.7 2.3-5.3 5-5 5.2-5 5.3-3 2.2-2.7 2.5-6.3 4.3-6 4.2-6.2 4-5 3.5-5.5 3.5-5.5 3.5-2.8 2-2.7 2-2.5 2.3-2.3 2.2-2 2.3-1.7 2.7-1.5 2.8-1 2.7-.8 3.3-.2 3.5v82.5m-7-98.8-2.8-14.2-1.7-8.3-1.5-6-2.3-6.5-2.2-6.5-.8-3.2-.2-3v-3l.5-2.8.5-2.7 1-3 1.7-6 1.3-4.8 1-5 .7-5 .5-5.2.3-5v-5.3l-.3-5-.7-4.7-1-7.8-.5-3.7-.8-4-1.2-3.5-.8-1.8-1-1.7-1-1.5-1-1.5-1.5-1.5-1.5-1.3-3-2-3.2-1.7-3-2-1.5-1-1.3-1.3-1.5-1.7-1.2-1.8-2.5-3.7-1-2-1.5-1.8-1.5-1.5-1.8-1.5-3-1.7-2.7-.8-1.3-.2-1.2-.3h-1.3l-1.2.3-2.3 1-2.2 1.5-2.3 2-2 2.5-1.2 2-1 1.7-.8 2-.7 2-.3 2-.2 2.3-.3 4.2.5 4.3.8 4.2 1.2 4.3 1.3 4 3 8.7 3 8.5 1.2 4.5 1 4.5 1 4.5.5 4.5 1.3 12.8.7 6.2.8 6.3 1.2 6 1.8 6 2 6 1.5 3 1.2 2.7 1.8 3 2 3 2 2.5 2 2.5 2.5 2.3 2.5 2.2 5.2 4.3 2 1.7 2.3 2.5 2.5 3 2.5 3.5 2.2 3.5 2.3 3.3 1.5 3.2 1 2.5v80.5" stroke-width="21"/><path d="m670.5 528.2-2.5-2.3m53 102.8 2-.3 1.5-.5m-349.2 73.8 7 5.7 3.5 3 3.2 3.3 3.3 3.2 3 3.5 3 3.5 2.7 3.8 2.5 4 2.5 4.2 5.5 9 2.8 4.5 3.2 4.5 3 4.5 3.5 4.3 3.5 4 4 3.5 2 1.7 2 1.3 2.3 1.5 2.2 1 2.3 1 2.2.7 2.5.8 2.5.2 2.8.3h2.7l2.8-.5 3-.5 1.2-.5 1.5-.5 1.3-.8 1.2-1 2.3-2 1.7-2.7 1.8-3 1.5-3.3 1.2-3.7 1.3-3.8 2.2-8 2.3-8 1-3.7 1.2-3.5 1.3-3.3 1.7-3 2.8-4.7 3-4.5 3.2-4 3.3-4 3.2-3.3 3.3-3 3.5-2.2 3.5-2 1.7-.5 1.8-.5 1.7-.5h3.8l1.7.2 2 .5 1.8.5 2 .8 1.7 1.2 2 1.3 2 1.5 1.8 1.7 2 2 2 2.3 2 2.5 5.7 8 3.3 4 3.2 3.5 1.8 1.5 1.7 1.5 2 1.2 2.3 1 2 .8 2.5.5 2.5.2h2.5l3-.2 3-.8 2.7-1 2.5-1.5 2.5-1.7 2.3-2 2-2 2-2.5 1.7-2.3 1.8-2.7 1.5-2.8 1.2-2.7 2.5-5.5 1.8-5.5 2.5-8 1.7-6.8 3.3-11 1.7-5.2 2-5.5 3-6 3.5-7.3 1.5-2.2 2-2 2.5-2 3-1.8 3.3-1.7 3.7-1.8 4-1.5 4.3-1.2 4.5-1.5 4.5-1 9.7-2.3 10-1.7 9.8-1.3m-307-102.2-14.8 8.5-4.2 2.7-4.5 2.8-4.8 3.2-4.7 3.8-4.8 3.7-4.7 4-4.8 4.3-4.5 4.5m132.3-2.5-7.8 2.5-7.7 2.7-7.8 2.3-3.7 1-4 .7-2.8.5-3.5.3-4 .2h-9l-5-.2-5-.5-5-.8-5-1-4.7-1-4.3-1.7-3.7-1.8-1.8-1-1.5-1.2-1.2-1.3-1.3-1.2-1-1.5-.7-1.5-.5-1.8-.3-1.7v-1.8l.3-1.5.2-1.5.8-1.7" stroke-width="14"/><path d="m362.3 552.4 2-1.5 3.2-2.7 2.8-2.5 2.5-2.5 2.2-2.5 2-2.5 1.8-2.5 1.5-2.8 1.2-2.5m287.3 9 3-.7m-1.3-10.5 4 2.2 3.8 2.3 3.5 2.5 3.2 2.7 3 2.5 2.8 2.8 5 5.2 8.7 10 4.3 4.5 2 2 2.2 1.8 3 2.2 2.8 1.8 5.7 3.5 5.8 3 5.5 3.2 2.5 1.5 2.5 2 2.2 2 2 2.3 2 2.2 1.5 3 1.5 3 1 3.5.8 3v5l-.5 2.5-1 2-1.3 2.3-1.2 1.7-1.8 2-2 1.5-2.2 1.5-2.5 1.5-2.5 1.3-3 1-3 1-6.3 1.7-3.5.8-4.7.7-5 .5-5 .3-5 .2h-5.3l-4.7-.2-5-.3-4.5-.5-6.3-1-5.5-1.2-5-1.3-3.7-1.7-2.3-1.3-1.7-1.2-3.8-3.3-3.2-3.2-3.3-3.5-3-3.8-3.5-3.2-3.5-3.3-2-1.2-2-1.3-2.5-1.2-2.7-1-2.5-.5-2.8-.5-2.7-.3h-2.5l-5.5.3-5.3.2-5.2.3h-2.5l-2.8-.3-2.5-.5-2.5-.5-3.2-1.2-2.8-1.5-2.2-1.5-1.8-1.5m-256-24.8-2 .3-6.2.5-5.5 1-4.5 1.5-4 1.5-3 1.7-2.8 1.8-2 2.2-2 2.3-1.5 2.5-1.2 2.2-2.8 5.3-1.5 2.5-1.7 2.7-2 2.5-2.5 2.5-4 3-4.5 3.3-4.8 3.2-4.7 3.8-2 1.7-2 2-2 2-1.5 2.3-1.3 2.2-1 2.5-.7 2.5-.3 2.8.3 3 .7 3 1.3 2.7 1.5 2.3 2 2.2 2 1.8 2.5 1.7 2.7 1.5 3 1.3 2.8 1 6.2 2 5.8 1.5 5.5 1.5 8.2 2.2 7.5 2.8 6.8 2.7 6.5 3.3 6.2 3.7 6.3 4.3 6.2 4.5 6.5 5.2 3.3 2.5 3.5 2.8 4 2.5 4.2 2.7 4.5 2.5 4.8 2.3 4.7 2 4.8 1.5 3.5 1 3.2.7 3.3.3 3.2.2 3-.2 3-.5 3-.8 2.8-1.2 3-1.8 2.5-1.7 2-2 1.7-2 1.5-2 1-2.3.8-2 .5-2.2v-4.8l-.3-2.2-.7-2.5-.8-2.5-1-2.3-2.5-5-3-4.7-3.5-4.8-3.7-4.7-3.8-4.3-7.5-7.7-6.2-6.3-7-6.7-3.3-3.3-3-3-2.7-3.5-2.5-3.5-2.3-4-1.7-4.7-1.3-3.8-.7-3.7-1.3-7.3-1-3.5-1.2-3.5-1-1.5-1.3-1.7-1.2-1.5-1.5-1.5-2.8-2.8-2.7-2.7-2.5-2.8-2.3-2.2-1.2-1-1.5-.8-1.3-.5-1.5-.5-1.5-.2-1.5.2-1.5.3z" stroke-width="14"/><path d="m429 398.2 36.3-68.3 14.7 8 14.3 8.3 14 8.5 13.5 8.7 13 8.5 12.5 9 12 9 11.5 9 11 9.3 9 7.7 8.7 7.8 8 7.7 7.8 7.8 7.2 7.7 6.5 7.8 6.5 7.7 5.8 7.5 5.2 7.5 4.8 7.3 4 7.2 3.7 7 3 7 2.8 6.8 1.7 6.7 1.5 6.5.5 3.3.3 3.5.2 3.2-.2 3.5-.5 5-1 4.8-1.5 4.7-2 4.5-2.5 4-2.8 3.5-3.2 3.5-3.8 3.3-4 2.7-4.2 2.5-4.8 2.5-5.2 2-5.5 1.8-5.8 1.5-6 1.2-6.5 1-6.7.8-7 .2-7.3.3h-7.5l-6.7-.3-7-.5-7-.7-7.3-.8-7.5-1-7.5-1.2-7.7-1.5-8-1.8-8-1.7-8-2-16.8-4.5-17-5.3-17.2-5.7-18.3-7-18.2-7.5-18.5-8.3-18.8-9-6.7-3.2-11.3-6 34.5-64.8" stroke-width="21"/><path d="m350.8 433.4 44.2 22.3 3 .5 33 8 44.8 10.7 17.2 4 1.8.5 7.2 1.8 30.5 7.2-18.7-16.2-13.3-11.8-1.5-1.2-33.5-29.3-36.5-31.7-4.7-4.3-38.8-20.5m-241.2-48-21.5-12.5-5.5-3.2-2.8-1.8-2.5-1.7-2.5-2.3-2-2.5-2-2.5-1.5-2.7-1.2-2.8-1-3-.8-3-.5-3.2v-6.3l.5-3.2 1-3.3 1-3.2 1.5-3 1.8-3.5 1.2-2 1.5-2.3 1.5-1.7 1.5-1.8 1.8-1.7 2-1.5 2-1.3 2-1.2 2-1.3 2.2-.7 2-.8 2.3-.7 2.2-.3 2.5-.5h4.5l3.3.5 3.2.8 3.3 1 3 1.5 62.5 33.2m-8.8 169.8-1 .2-2.5.5-3.5.3h-2.2l-2.3-.3-2.2-.5-2.5-.7-2.3-1.3-2.5-1.5-2.2-2-2.3-2.2-2-3-2-3.5-1.5-4.3-1.2-4.7-.8-3.5-.5-3.8-.5-4-.2-4.2v-6l.2-6.3.3-6.2.7-6 1.5-12.3 1.8-11 2-9.5 1.5-7.5 1.7-6.7 3.3-6.8 4-7.5 4.2-7.7 4.8-8.3 9.5-15.5 8.5-13 4.2-6.7 2.5-4.3 3.3-5.5 2.7-4.2 1.3-1.8 1.2-1.5 1.3-1 1.2-1 1.5-.5 1.3-.5 1.5-.2h1.5l1.5.2 1.7.3 3.8 1.2 2 1 1.7 1.3 1.5 1.2 1.3 1.8 1.2 1.7.8 2 .7 2 .8 2.3.2 2.2.3 2.3v2.2l-.3 2.3-.2 2.2-.3 2.3-.7 2.2-.8 2-1.2 2.5-1.8 2.3m38.5 112.5-.2-5v-4.5l.2-3.5.8-2.8 2.7-9 1.5-4.2 1.5-4.5 2-4.5 2.3-5.3 3-5.5 3.7-6.2 1.3-2 1.2-2.5 1-2.3.8-2.7.7-2.5.5-2.8.3-2.7.2-2.8-.2-2.7-.5-2.8-1-2.5-1.3-2.2-1.5-2.3-2.2-2-2.5-1.7-3-1.3-3-1-2.5-.7h-4.5l-2 .7-1.8 1.3-2 1.7-2 2.3-2.7 4.2-3.3 5.5-4.7 8-7 12.3-4 7.2-4 7.8-4 8-4 8.2-2 6.8-2 7.5-2.3 9.5-2.2 11-1 6-.8 6-.7 6-.5 6.2v11.8l.2 3.7.5 3.8.8 3.2.7 3 1 3 1 2.8 1.3 2.5 1.2 2.2 2.3 3.3 2.2 2.7 2.3 2.5 2.5 2.3 2.7 1.7 2.5 1.5 2.5 1.3 2.3 1 4.5 1.5 3.5 1 2.5.2h.7l1.8.5 2.2.3h5.8l3.5-.5 4-.8 4-1.2 19.5-23.3 14.5-17.7 5.5-6.8 3.5-4.5" stroke-width="21"/><path d="m239.5 474.4-1 .3-3.2.5h-5l-2.8-.5-2.7-.5-3.3-1-3-1.3-3-2-3-2.2-1.5-1.5-1.2-1.8-1.5-1.7-1.3-2-1-2-1.2-2.5-1-2.5-.8-2.8-1-4-1-4.2-.5-5-.2-5.3v-12.7l.5-6.5.5-6.3 1-6.2.7-6.3 2-11.5 2-9.7 1.8-7.8 1.7-6.7 2.3-4.5 2.2-4.8 5.5-10.2 6.3-10.5 6.2-10.5 12-18.8 7.5-12 .5-1 3.5-5.7 2.8-4.5 1.5-1.8 1.2-1.5 1.3-1.2 1.5-1 1.2-.5 1.5-.5 1.5-.3h1.5l1.5.3 2 .2 4 1.5 2.3 1 2.2 1.5 1.8 1.8 1.5 2 1.2 2.2.8 2.5.7 2.8.3 3 .2 3-.2 3.2-.5 3.5-.8 3.5-1.2 3.5-1.3 3.8-1.7 3.5-1.8 3.7m-110.5 111.8-1.5.2-4 .5h-2.5l-2.7-.2-3.3-.8-3.2-1-3.3-1.5-1.5-1-1.5-1.2-1.5-1.3-1.5-1.5-1.5-1.7-1.2-1.8-1.3-2.2-1-2.3-1-2.7-1-2.8-.7-3.2-.5-3.5-.5-3.5v-4l-.3-5 .3-5.3.5-5.2.7-5 1-5.3 2-9.7 2.5-9 2.5-8 2-6 2.3-6 3.2-7 3.3-6 3-5.5 2.7-4.5 5-7.3 2-3 1.8-2.7 2.7-5 2.5-3.8 2.3-2.7 1.2-1 1-.8 1.3-.7 1.2-.3 1.3-.2h1.2l3 .5 3.5 1.2 1.8.8 1.7 1 1.5 1.2 1.3 1.5 1 1.5 1 1.5.5 1.8.5 2v4.2l-.3 2.5-.5 2.5-.7 2.5-.8 2.8-1.2 2.7-1.5 3-1.8 3.5m-56.5-69.5v-.5l7.3-15.5 7.5-17.2 7.7-18.3 7.3-18 6.5-17.5 2.7-8.2 2.5-7.8 2.3-7.2 1.7-6.5 1.3-5.8.7-5 3.8-40.5m-53.3 310.8-2.5-9.8-2.5-9.5-2.2-9.2-1.8-9.3-1.7-9-1.3-8.7-1-8.8-.7-8.5" stroke-width="21"/><path d="m348.8 431.2-3 1.2-4 1.8-4.5 1.5-7.3 2.5-20.7 8-14.3 5.2-10.7 3.5-1.3-.5-1.5-.7-1.5-1-2-1.5-2-1.8-1.7-2.2-1.5-2.5-1.3-3-.5-1.8-.2-1.7v-3.8l.2-2.2.5-2.3.8-2.2 1-2.5 1.2-2.5 1.5-2.8 2-2.7 2-3 2.5-3 3-3.3 3-3 5.5-5.2 5-4.5 4.5-3.5 4.3-3 3.7-2.5 3.5-2.3 6.3-3.7 2.7-1.8 2.5-2 2.3-2.2 2-2.8 2-3.5 1.7-4 1.8-4.7 1.7-6 1.3-6.3.7-6 .3-5.5-.5-5.2-1-4.8-1.5-4.5-1.8-4.2-2.5-4.3-2.7-4-3.3-4-3.5-4-3.7-4-8.8-8-9.5-8.5-8.2-7-9.5-8.2-5.3-4.8-5.2-5.2-5.3-5.8-5.2-6.2-5-7-2.5-3.8-2.3-3.7-2.2-4-2-4.3-2-4.2-1.8-4.5-1.7-4.8-1.5-5-1.3-5-1-5.2-1-5.5-.7-5.8-.5-6-.3-6.2m109-91.3-.5 5.3-.5 5-.2 5.2v5l.2 5.3.3 5 .5 5.2.7 5 1.8 10.3 2.2 10.2 2.8 10 3 10 3.2 9.5 3.8 9.5 3.7 9 3.8 8.8 7.5 16.2 6.7 14.5 3.5 7 3.5 6.3 6.5 11.5 3 5.2 2.5 5.5 2.3 5.5.7 3 .8 3 .5 3 .5 3.5.2 3.3v7.7l-.5 4-.5 4.3-.7 4.7-1 5-1.3 5.3-1.5 5.5-1.5 6-4.5 13.2-5.5 15-7.7 19.8-6 14.5-5.3 11.7-4.7 9.3-2 4-2.3 3.5-2 3-1.7 2.7-2 2.3-1.8 2-2 1.7-1.7 1.3-2 1.5-2 1" stroke-width="21"/></g></svg>