<svg height="850.394" viewBox="0 0 850.394 850.394" width="850.394" xmlns="http://www.w3.org/2000/svg"><path d="m723.92 286.67s-.18 6.49-3.41 8.57c-3.22 2.07-11.66 5.33-11.66 5.33l.46 2.98s9.4-1.5 15.58-5.49c6.17-3.98 7.4-9.7 7.4-9.7l.29-1c5.41 1.47 10.93 3.35 16.37 5.38 15.54 5.78 10.25 11.95 1.729 19.63-8.52 7.69-27.55 19.96-27.55 19.96l-82.89 26.71-.01.01-1.03.33s-14.99-3.69-32.271-.54c-17.279 3.12-42.31 18.53-42.31 18.53s-56.41 12.88-73.16 15.87c-20.58 3.68-34.56 4.16-47.45-2.41l-.72-1.12 7.979-5.15s-22.319-5.79-31.439.1l1.66-1.66-57.24-37.37 17.16-6.7 81.85 21.87 111.96-35.11 45.25-14.19c1.98-.7 4.07-1.43 6.25-2.19 26.851-9.27 67.101-21.78 78.271-24.29 5.649-1.26 12.2-.93 19.17.38z" fill="#a3d9ff"/><path d="m519.25 467.61-60.29 54.109-10.479-2.27 116.14-142.08s25.03-15.41 42.31-18.53c17.28-3.15 32.271.54 32.271.54l1.03-.33-47.671 42.78h-.01l-18.58 16.68-37.06 33.26zm107.05-159.51.42 1.21c-2.18.76-4.27 1.49-6.25 2.19l-45.25 14.19-33.66-73.29s8.311-1.53 14.021-.3c2.96.64 21.84 15.65 39.35 29.97 4.03 3.3 8 6.56 11.67 9.61a3274.348 3274.348 0 0 1 19.699 16.42z" fill="#a3d9ff"/><path d="m173.71 441.5 180.82 19.45 75.15 8.09 32.05 123.98-367.07 74.25-.66-3.27-3.27-231.43z" fill="#c8c8c8"/><path d="m451.27 384.56-7.979 5.15-47.07 30.35-14.21 2.25 37.82-37.65c9.119-5.89 31.439-.1 31.439-.1z" fill="#a3d9ff"/><path d="m307.52 336.17v17.24h-205.44v-117.45h205.44zm-29.83-44.63v-32h-20.21v32zm-44.64 0v-32h-20.21v32zm-44.63 0v-32h-20.21v32zm-45.47 0v-32h-20.21v32z" fill="#f6cc4b"/><path d="m307.52 231.54v4.42h-205.44l-5.03-51.16h193.9z" fill="#787878"/><path d="m257.48 259.54h20.21v32h-20.21zm-44.64 0h20.21v32h-20.21zm-44.63 0h20.21v32h-20.21zm-45.47 0h20.21v32h-20.21z" fill="#fff"/><g fill="none"><g stroke="#231f20" stroke-width="14"><path d="m626.3 308.1s-8.54-7.19-19.7-16.42c-3.67-3.05-7.64-6.31-11.67-9.61-17.51-14.32-36.39-29.33-39.35-29.97-5.71-1.23-14.021.3-14.021.3l33.66 73.29.54 1.17"/><path d="m640.24 359.04 82.89-26.71s19.03-12.27 27.55-19.96c8.521-7.68 13.811-13.85-1.729-19.63-5.44-2.03-10.96-3.91-16.37-5.38-2.85-.78-5.67-1.45-8.42-1.96-6.97-1.31-13.521-1.64-19.17-.38-11.17 2.51-51.42 15.02-78.271 24.29-2.18.76-4.27 1.49-6.25 2.19l-45.25 14.19-111.96 35.11-81.85-21.87-17.16 6.7 57.24 37.37-1.66 1.66-37.82 37.65 14.21-2.25 47.07-30.35 7.979-5.15s-22.319-5.79-31.439.1"/><path d="m444.01 390.83c12.891 6.57 26.87 6.09 47.45 2.41 16.75-2.99 73.16-15.87 73.16-15.87s25.03-15.41 42.31-18.53c17.28-3.15 32.271.54 32.271.54l1.03-.33"/><path d="m592.56 401.83 47.67-42.78.01-.01m-75.62 18.33-116.14 142.08 10.48 2.27 60.29-54.11 17.66-15.84 37.06-33.26 18.58-16.68m2.38-119.76s13.98-3.18 16.94-2.54 5.31 7.69.83 10.58l-6.101 1.57"/><path d="m592.55 401.83h.01c.62-.08 22.19-2.91 24.271-1.68.15.09.3.18.45.28 4.22 2.89 5.68 9.41-.78 12.29-.22.1-.45.19-.68.28-7.471 2.82-35.16 1.2-41.851 5.51m-37.06 33.26c7.53-1.529 20.26-2.88 21.84-1.939.3.18.6.38.87.59 4.03 3.12 5.12 9.62-1.87 12.26-.86.32-2.06.61-3.53.87-8.229 1.48-24.779 2.21-34.97 4.061-.23.04-.46.09-.68.13"/><path d="m617.32 402.03c-.061-.01-.11-.01-.17-.01-10.54-.85-11.23 11.62-.771 10.44m-57.289 38.77c-3.77.109-8.25 1.739-8.41 6.229-.08 2.34 1.431 5.05 3.54 6.09.33.17.67.29 1.021.37m168.679-177.249s-.18 6.49-3.41 8.57c-3.22 2.07-11.66 5.33-11.66 5.33l.46 2.98s9.4-1.5 15.58-5.49c6.17-3.98 7.4-9.7 7.4-9.7m-302.61 180.68-75.15-8.09-180.82-19.45-82.98-8.93m371 160.45-367.07 74.25-3.92.79"/><path d="m173.71 441.5 73.57 67.01-138.3 81.15m243.97-130.13 1.58 1.42 58.18 52.56-109.85 64.46m4.66-241.8v17.24h-205.44v-117.45h205.44z"/><path d="m122.74 259.54h20.21v32h-20.21zm45.47 0h20.21v32h-20.21zm44.63 0h20.21v32h-20.21zm44.64 0h20.21v32h-20.21zm50.04-28-16.57-46.74h-193.9"/></g><path d="m0 0h850.394v850.394h-850.394z"/></g></svg>