<svg height="850.394" viewBox="0 0 850.394 850.394" width="850.394" xmlns="http://www.w3.org/2000/svg"><path d="m599.36 691.74-10.74 30.26-8.6-30.26zm-336-570.11 8.6 30.26h-19.34z" fill="#fff"/><path d="m278.11 204.22c-7.8 1.89-10.71 10.71-10.71 10.71l-.03.01s-2.9-8.81-10.7-10.7c-6.93-1.68-16.61.44-21.36 10.5-5.31 11.28-3.19 22.57 6.78 32.55 9.98 9.97 21.06 19.18 25.33 24.18 4.27-5 15.28-14.22 25.25-24.2 9.98-9.98 12.1-21.27 6.79-32.54-4.75-10.08-14.44-12.18-21.35-10.51zm308 425.16s2.909 8.811 10.699 10.71c6.931 1.67 16.61-.45 21.36-10.51 5.311-11.28 3.19-22.57-6.78-32.55-9.979-9.971-21.06-19.181-25.33-24.17-4.27 4.989-15.279 14.22-25.25 24.199-9.979 9.96-12.1 21.271-6.79 32.53 4.75 10.08 14.44 12.19 21.36 10.51 7.8-1.89 10.7-10.699 10.7-10.699zm80.84-524.96v633.38c0 20.65-16.74 37.4-37.41 37.4h-418.92c-20.66 0-37.4-16.75-37.4-37.4v-633.38c0-20.65 16.74-37.4 37.4-37.4h418.92c20.67 0 37.41 16.75 37.41 37.4zm-44.69 561.85v-3.55h-22.95v3.55c3.73.25 5.591 2.131 5.591 5.641 0 1.51-.16 2.93-.48 4.28-.33 1.34-.74 2.729-1.24 4.159l-1.77 5.11h-22.95l-1.45-5.27c-.58-2.08-.99-3.801-1.24-5.16-.25-1.36-.369-2.601-.369-3.71 0-1.5.439-2.67 1.34-3.49.899-.83 2.27-1.34 4.14-1.561v-3.55h-29.67v3.55c1.54.32 2.74.83 3.6 1.53s1.561 1.61 2.101 2.74 1.2 3.04 1.99 5.729l17.729 60.19h14.351l22.409-59.71c.931-2.54 1.811-4.5 2.63-5.86.83-1.359 1.74-2.43 2.74-3.22 1.008-.788 2.168-1.258 3.498-1.398zm-92.31-183.39c43.51-43.51 52.74-92.77 29.569-141.96-20.71-43.95-62.96-53.16-93.17-45.84-34.02 8.23-46.68 46.68-46.68 46.68l-.12.08s-12.67-38.45-46.68-46.69c-30.21-7.31-72.47 1.9-93.17 45.84-23.18 49.2-13.94 98.45 29.58 141.979 43.52 43.521 91.87 83.681 110.48 105.49 18.621-21.809 66.661-62.049 110.191-105.579zm-229.18-301.97v-3.55c-1.54-.32-2.74-.83-3.6-1.53s-1.56-1.61-2.1-2.74-1.2-3.04-1.99-5.72l-17.73-60.19h-14.35l-22.41 59.7c-.93 2.55-1.81 4.5-2.63 5.86-.83 1.36-1.74 2.44-2.75 3.22-1 .79-2.16 1.26-3.49 1.4v3.55h22.95v-3.55c-3.73-.25-5.59-2.13-5.59-5.64 0-1.51.16-2.93.48-4.27.33-1.35.74-2.73 1.24-4.17l1.77-5.1h22.95l1.45 5.26c.57 2.08.99 3.8 1.24 5.16s.37 2.6.37 3.71c0 1.51-.44 2.67-1.34 3.49-.9.83-2.28 1.35-4.14 1.56v3.55z" fill="#fff"/><path d="m622.26 662.72v3.55c-1.33.141-2.49.61-3.5 1.4-1 .79-1.91 1.86-2.74 3.22-.819 1.36-1.699 3.32-2.63 5.86l-22.409 59.71h-14.351l-17.73-60.19c-.79-2.689-1.45-4.6-1.99-5.729s-1.24-2.04-2.101-2.74c-.859-.7-2.06-1.21-3.6-1.53v-3.55h29.67v3.55c-1.87.221-3.24.73-4.14 1.561-.9.82-1.34 1.99-1.34 3.49 0 1.109.119 2.35.369 3.71.25 1.359.66 3.08 1.24 5.16l1.45 5.27h22.95l1.77-5.11c.5-1.43.91-2.819 1.24-4.159.32-1.351.48-2.771.48-4.28 0-3.51-1.86-5.391-5.591-5.641v-3.55h22.953zm-33.64 59.28 10.74-30.26h-19.34zm22.77-124.97c9.971 9.979 12.091 21.27 6.78 32.55-4.75 10.06-14.43 12.18-21.36 10.51-7.79-1.899-10.699-10.71-10.699-10.71l-.03.021s-2.9 8.81-10.7 10.699c-6.92 1.681-16.61-.43-21.36-10.51-5.31-11.26-3.189-22.57 6.79-32.53 9.971-9.979 20.98-19.21 25.25-24.199 4.269 4.989 15.349 14.199 25.329 24.169zm-51.87-256.11c23.171 49.19 13.94 98.45-29.569 141.96-43.53 43.53-91.57 83.771-110.19 105.58-18.61-21.81-66.96-61.97-110.48-105.49-43.52-43.529-52.76-92.78-29.58-141.979 20.7-43.94 62.96-53.15 93.17-45.84 34.01 8.24 46.68 46.69 46.68 46.69l.12-.08s12.66-38.45 46.68-46.68c30.209-7.321 72.459 1.889 93.169 45.839zm-258.75-163.56v3.55h-29.67v-3.55c1.86-.21 3.24-.73 4.14-1.56.9-.82 1.34-1.98 1.34-3.49 0-1.11-.12-2.35-.37-3.71s-.67-3.08-1.24-5.16l-1.45-5.26h-22.95l-1.77 5.1c-.5 1.44-.91 2.82-1.24 4.17-.32 1.34-.48 2.76-.48 4.27 0 3.51 1.86 5.39 5.59 5.64v3.55h-22.95v-3.55c1.33-.14 2.49-.61 3.49-1.4 1.01-.78 1.92-1.86 2.75-3.22.82-1.36 1.7-3.31 2.63-5.86l22.41-59.7h14.35l17.73 60.19c.79 2.68 1.45 4.59 1.99 5.72s1.24 2.04 2.1 2.74 2.06 1.21 3.6 1.53zm-28.81-25.47-8.6-30.26-10.74 30.26zm27.5 62.84c5.31 11.27 3.19 22.56-6.79 32.54-9.97 9.98-20.98 19.2-25.25 24.2-4.27-5-15.35-14.21-25.33-24.18-9.97-9.98-12.09-21.27-6.78-32.55 4.75-10.06 14.43-12.18 21.36-10.5 7.8 1.89 10.7 10.7 10.7 10.7l.03-.01s2.91-8.82 10.71-10.71c6.91-1.67 16.6.43 21.35 10.51z" fill="#ed1c24"/><g fill="none"><path d="m666.95 737.8c0 20.65-16.74 37.4-37.41 37.4h-418.92c-20.66 0-37.4-16.75-37.4-37.4v-633.38c0-20.65 16.74-37.4 37.4-37.4h418.92c20.67 0 37.41 16.75 37.41 37.4z" stroke="#231f20" stroke-width="21"/><path d="m0 0h850.394v850.394h-850.394z"/></g></svg>