<svg height="850.394" viewBox="0 0 850.394 850.394" width="850.394" xmlns="http://www.w3.org/2000/svg"><path d="m592.34 612.35h11.4v21.48h-114.25v-21.48h11.46zm-233.94-465.47v3.83s-4.49 11.43-11.65 29.58c-5.22 13.22-11.86 30-19.22 48.51-5.88 14.81-12.23 30.73-18.68 46.83-25.49 63.61-52.57 129.92-59.05 141.07-10.49 18-40.02 44.67-56.01 53.33-10.34 5.59-34.58 3.779-36.52 3.63 6.99-.38 12.36-1.46 14.59-3.68 8.66-8.681 2.34-18.33 13.33-21.33s41.6-25.13 63.95-79.25c20.04-48.54 62.23-153.76 83.22-213.54.55-1.54 1.08-3.06 1.59-4.54 3.71-10.73 8.17-16.43 9.79-16.43 5.41 0 9.79 1.3 12.31 4.39 1.51 1.85 2.35 4.35 2.35 7.6z" fill="#33a02c"/><path d="m157.24 473.66c-20.15 1.08-53.78-3.68-64.66-3.68-14.65 0-14.08-22.011-4-25.99 10.09-4 23.66-7.66 42.65-26.64 18.99-18.99 58.62-96.59 58.62-96.59 20.52-43.18 60.46-137.89 71.16-167.12.94-2.56 1.65-4.62 2.11-6.1 5.67-18.32 22.99-10.32 22.99-10.32l.34.34 13.32 13.31 28.32.41c1.02 1.44 2.09 2.85 3.22 4.21l1.05.37c-20.99 59.78-63.18 165-83.22 213.54-22.35 54.12-52.96 76.25-63.95 79.25s-4.67 12.649-13.33 21.33c-2.23 2.22-7.6 3.3-14.59 3.68z" fill="#c8c8c8"/><g fill="none"><g stroke="#231f20"><g stroke-width="14"><path d="m157.24 473.66c-20.15 1.08-53.78-3.68-64.66-3.68-14.65 0-14.08-22.011-4-25.99 10.09-4 23.66-7.66 42.65-26.64 18.99-18.99 58.62-96.59 58.62-96.59 20.52-43.18 60.46-137.89 71.16-167.12.94-2.56 1.65-4.62 2.11-6.1 5.67-18.32 22.99-10.32 22.99-10.32l.34.34 13.32 13.31 28.32.41 2.99.04m27.32 1.55s0 .39 0 0v-2.16-3.83c0-3.25-.84-5.75-2.35-7.6-2.52-3.09-6.9-4.39-12.31-4.39-1.62 0-6.08 5.7-9.79 16.43-.51 1.48-1.04 3-1.59 4.54-20.99 59.78-63.18 165-83.22 213.54-22.35 54.12-52.96 76.25-63.95 79.25s-4.67 12.649-13.33 21.33c-2.23 2.22-7.6 3.3-14.59 3.68"/><path d="m358.4 150.71s-4.49 11.43-11.65 29.58c-5.22 13.22-11.86 30-19.22 48.51-5.88 14.81-12.23 30.73-18.68 46.83-25.49 63.61-52.57 129.92-59.05 141.07-10.49 18-40.02 44.67-56.01 53.33-10.34 5.59-34.58 3.779-36.52 3.63h-.03c-.06-.01-.09-.01-.09-.01m201.25-320.78 6.02 28.08 10.94 51.09 11.85 55.27 10.91 50.96 10.25 47.83 2.99 13.94m-13.24-61.77-84.14-5.12m91.99 53.46-84.13-5.1m62.16-93.51-74.52-5.3-2.57-.18m68.45-50.48-47.82-3.24m34.94-47.44-15.73-1.07"/><path d="m308.85 275.63.63 7.07 4.5 50.45 4.35 48.67 1.09 12.22m37.36-254.91-12.64-68.24s-20.05 8.24-26.29 26.03c-5.75 16.35-1.41 37.85 10.24 54.36 1.02 1.44 2.09 2.85 3.22 4.21m-44.71-18.08-12.65-68.25s-20.05 8.24-26.3 26.03c-6.24 17.75-.61 41.54 13.36 58.45.03.04.07.08.1.12"/></g><path d="m600.47 335.62c6.761 3.7 14.23 12.29 16.13 31.98l10.32 104.48 7.76 91.68 18.46 218.24m-359.32-38.46 85.43-188.22 90.69-199.8s2.46-6.56 9.699-12.56c2.561-2.11 5.71-4.15 9.561-5.81 3.04-1.31 6.51-2.38 10.47-3.06l88.8-1.13s3.75-.52 8.53 1.13c1.11.38 2.27.88 3.46 1.53" stroke-width="21"/><path d="m600.44 335.62h.03c.811 0 17.221.55 32.24 38.06l72.32 186.61 8.989 23.2 54.301 150.44" stroke-width="21"/><path d="m634.67 563.76h.01l70.34-3.47m-225.36-217.31-8.54 212.72-6.51 162.21m24.6-380.73 11.74 275.17.24 5.65m95.81-283.91-4.66 278.26-.08 4.73m-212.18-61.38h91.13" stroke-width="21"/><path d="m592.34 612.35h11.4v21.48h-114.25v-21.48h11.46z" stroke-width="14"/></g><path d="m0 0h850.394v850.394h-850.394z"/></g></svg>