<svg height="850" viewBox="0 0 850 850" width="850" xmlns="http://www.w3.org/2000/svg"><path d="m442.2 690-1.5 2.3-1.7 2.2-2 1.8-2 1.5-2 1.5-2.3 1-2.5 1-2.5.7-2.5.5-2.5.3h-2.5l-2.5-.3-2.5-.5-2.5-.7-2.5-1.3-2.2-1.2-3.8-2.3-2.7-1.7-2.3-2-2-2.3-1.7-2.5-1.5-2.7-1-2.8-.8-2.7-.5-3-5-2.5 5.3-2 5-1.5 5.2-1.3 5-1 5.3-1 4.7-.5 4.8-.2h4.2l4.3.2 3.7.8 3.3.7 2.7 1 2.5 1.5.8.8 1 .7.5 1 .5 1 .2 1 .3 1.3z" fill="#a9d7f3"/><path d="m479.5 680.3-1.5.7-4 1.8-5.8 2.2-3 .8-3.5 1-3.2.5-3.3.2-2.7-.2-1.5-.3-1.3-.5-1.2-.5-1-.7-1-1-1-1-.5-1.5-.5-1.5-.5-1.5v-2l-.3-1.3-.2-1-.5-1-.5-1-1-.7-.8-.8-2.5-1.5-2.7-1-3.3-.7-3.7-.8-4.3-.2h-4.2l-4.8.2-4.7.5-5.3 1-5 1-5.2 1.3-5 1.5-5.3 2-4.7 2-4.8 2.2-4.5 2.5-4.2 2.8-5 3.5-4.3 3.2-3.5 3-3.2 3-5.5 5.8-4.8 5.2-4.7 5-2.5 2.8-3 2.5-3 2.7-3.8 3-4 2.8-4.7 3.2-10 6.3-10 6-10.3 5.5-5 2.5-5.2 2.5-5.3 2.2-5.2 2-5.3 1.8-5.3 1.7-5.5 1.3-5.5 1.2-5.7.8-5.8.7-5.7.3h-5.5l-11.5-.3h-16.8l-5.5.3-5.5.7-5.2.8-5 1.2-5 1.8-5 2.2-2.3 1.5-2.5 1.5-2.2 1.5-2.3 2-2 2-2.2 2.3-1-1.3-31.5-198.2 127.5-83.8 78.3-51.5 28.5-18.5 15.5-10 5.2-3 6.3-3.5 16.2-8.2 18.8-9.5 19.7-9.3 34-16 14.8-7 7.2 2.3 8.3 2.5 10.5 3.5 12.2 4.2 13.5 5 14 5.5 14.5 6 11.8 5.8 5.7 2.7 5.5 3 5.3 3 5 3 4.5 3 4.2 3.3 2 1.5 1.5 1.7 1.5 2 1 2 1.3 3 .7 3.3.3 3.2-.3 3.5-.5 3.3-.7 3.2-1.5 3-1.5 3-1.8 2.5-2.2 2.3-2.3 2-2.5 1.5-2.7 1-3 .2h-3l-1.5-.5-1.5-.5-11.8-4.7-12.7-5.5-13.8-5.8-7-2.7-7-2.5-8-2.8-7.5-2.2-7.5-1.8-7-1-3.5-.5h-6.2l-2.8.3-2.7.5-2.5.7-2.5 1-2.3 1.3-17 11.7-17.2 12-19 13.5 6.2 1.8 16.3 4.5 10.7 3 11.8 3.7 12.2 4 12.5 4.3 8.5 3.2 8.3 3.3 7.7 3.2 7 3.3 6.3 3.5 5.2 3.2 2 1.8 2 1.5 1.5 1.5 1 1.7.8 1.3.7 1.5 1 3.2.3 3.5v3.5l-.5 3.8-.8 3.5-1.2 3.7-1.3 3.5-1.7 3.3-1.8 3.2-2 2.8-2 2.5-2 2-2 1.7-2 1-2 .8-.5 1 5.3 2.7 2.2 1.3 1.8 1.5 1.5 1.2 1.2 1.3.8 1.5.5 1.2.2 2.5v5.5l-.2 2.5-1 5-1.3 5-2 4.8-2.2 4.5-2.5 4.2-3 4-3 3.8-3.3 3.2-3.2 3-3.5 2.5-3.3 2.3-3.2 1.5-3 1.2-3 .5 2.2 1.5 1.5 1.5 1 1.8.5 1.5.3 3.5v3.5l-.5 3.2-.8 3.3-1.2 3.2-1.3 3-1.7 3.3-2 2.7-2 3-2.5 2.8-2.8 2.7-2.7 2.8-3 2.5-3 2.2z" fill="#ffeec8"/><path d="m584 456-38.8 59-1-1.7-1.5-1.5-2-1.5-2-1.8-5.2-3.2-6.3-3.5-7-3.3-7.7-3.2-8.3-3.3-8.5-3.2 5.5-2.3 29-49 1.5-2.7 7 2.5 7 2.7 13.8 5.8 12.7 5.5z" fill="#a9d7f3"/><path d="m643.2 259.8-2 .7-10.2 9.3-10.5 8.7-5.5 4.5-5.8 4-5.5 4-6 4-5.7 3.8-6 3.7-6.3 3.3-6.2 3.5-6.3 3-6.5 3-6.5 2.7-6.7 2.5-4 1.3-4.5 1.2-4.5 1-4.5 1-4.8.8-4.7.7-9.8.8-9.7.2-9.5-.2-4.8-.5-4.5-.5-4.5-.5-4.5-1-7.5-1.5-8-1.8-7.7-2.2-3.5-1.5-3.5-1.5-2.8-1.5-2.7-1.8-5.3-4-5-4.2-2.5-1.8-2.7-1.5-2-.7-2-.5-4-1-4-.3-4.3-.2-4-.3-4-.5-2-.5-1.7-.7-2-.8-1.8-1-2-1.2-1.5-1.5-1-1.3-.7-1.5-.3-1.5-.2-1.5.2-1.5.5-1.7 1.5-3.3 2.3-3.7 2.5-3.8 2.5-4.2 2.2-4 2.8-4 2.5-3.8 3-3.7 3-3.8 3.2-3.5 3.3-3.5 3.5-3.5 3.7-3.2 3.5-3 4-3 4-3 4-2.8 4-2.7 4.3-2.5 4.2-2.3 1.3 2-3 6.3-1.3 3-1.2 3.2-1 3.3-.8 3.2-.5 3.5-.2 3.5.2 3.3.3 3.2.5 3.3.5 3.2.7 3.3 1 3 1 3 1.3 3 1.2 3 1.5 2.7 1.8 2.8 1.7 2.5 2 2.7 2 2.3 2 2.5 2.3 2.2 2.5 2.3 2.5 2 2.5 2 2.7 1.7 2.8 1.8 2.7 1.5 3 1.5 3 1.2 3 1.3 3.3 1 3.2.7 3.3.8 3.5.5 3.2.5 3.5.2h7l3.5-.2 3.5-.5 3.3-.5 3.2-.8 3.3-.7 3.2-1 3.3-1.3 3-1.2 2.7-1.5 3-1.5 2.8-1.8 2.7-1.7 2.5-2 2.5-2 2.3-2.3 2.2-2.2 2.3-2.5 2-2.3 2-2.7 1.7-2.5 1.5-2.8 1.5-2.7 1.5-3 1.3-3 1-3 1-3 .7-3.3.5-3.2.5-3.3.3-3.2v-8.3l-.5-4.5-.5-4.2-1-4.3-1.5-4-1.5-3.7-2.3-4-2.5-3.8.8-2 5.2 2 5 2.3 5 2.5 5 2.5 4.8 2.7 5 3 4.5 3 4.7 3.3 4.5 3.2 4.5 3.5 8.8 7.3 8.2 7.7z" fill="#fff"/><path d="m622.2 371 1.3 3.3 1.2 3.2.5 3.3.3 3.5-.3 3.5-.7 3.5-1.3 3.2-1.7 3.3-14.8 24.2-1-2-1.5-2-1.5-1.7-2-1.5-4.2-3.3-4.5-3-5-3-5.3-3-5.5-3-5.7-2.7-11.8-5.8 14-23.2 2.3-2.8 2.2-2.5 2.8-2.2 2.7-1.8 3.3-1.5 3.2-1 3.3-.5 3.2-.2 3.5.2 3.5.8 3.3 1.2 3.2 1.8 3.8 2.2 2.7 2 2.5 2.3 2 2.5zm-171.7-153-1.3-2 7.8-4 7.8-3.3 8-3 8-2.5 8.3-2 8.3-1.5 8.3-1 8.3-.3h7.5l7.3.3 7.3.8 7 1.3 7 1.5 7 1.8 6.8 2 6.5 2.5-.8 2 2.5 3.8 2.3 4 1.5 3.8 1.5 4 1 4.3.5 4.3.5 4.5v8.3l-.3 3.3-.5 3.3-.5 3.2-.8 3.3-1 3-1 3-1.3 3-1.5 3-1.5 2.8-1.5 2.8-1.8 2.5-2 2.8-2 2.3-2.3 2.5-2.4 1.6-2.3 2.3-2.5 2-2.5 2-2.7 1.7-2.8 1.8-3 1.5-2.8 1.5-3 1.3-3.3 1.3-3.3 1-3.3.8-3.3.8-3.3.5-3.5.5-3.5.3h-7l-3.5-.3-3.3-.5-3.5-.5-3.3-.8-3.3-.8-3.3-1-3-1.3-3-1.3-3-1.5-2.8-1.5-2.8-1.8-2.8-1.8-2.5-2-2.5-2-2.5-2.3-2.3-2.3-2-2.5-2-2.3-2-2.8-1.8-2.5-1.8-2.8-1.5-2.8-1.3-3-1.3-3-1-3-1-3 .2-2.9-.5-3.2-.5-3.3-.3-3.3-.3-3.3.3-3.5.5-3.5.8-3.3 1-3.3 1.3-3.3 1.3-3 2.9-6zm102.5 28.5-.3-3.8-.5-3.8-1-3.5-1.5-3.3-1.7-3.1-2-3-2.5-2.8-2.8-2.8-2.8-2.3-3.3-2.3-3.5-1.8-3.5-1.5-4-1.3-4-1-4-.5-4.3-.3-4.3.3-4.3.5-4 1-3.8 1.3-3.5 1.5-3.5 1.8-3.3 2.3-3 2.3-2.5 2.8-2.1 2.8-2 3-1.8 3.3-1.5 3.3-1 3.5-.5 3.8-.3 3.8.3 3.8.5 3.5 1 3.5 1.5 3.5 1.8 3 2 3 2.5 3 2.5 2.5 3 2.3 3.3 2.3 3.5 1.8 3.5 1.5 3.8 1.3 4 1 4.3.5 4.3.3 4.3-.3 4-.5 4-1 4-1.3 3.5-1.5 3.5-1.8 3.3-2.3 2.8-2.3 2.8-2.5 2.5-3 2-3 1.8-3 1.5-3.5 1-3.5.5-3.5z" fill="#a9d7f3"/><path d="m511.5 209.8 4.3.3 4 .5 4 1 4 1.3 3.5 1.5 3.5 1.8 3.3 2.3 2.8 2.3 2.8 2.8 2.5 2.8 2 3 1.8 3.3 1.5 3.3 1 3.5.5 3.8.3 3.8-.3 3.8-.5 3.5-1 3.5-1.5 3.5-1.8 3-2 3-2.5 3-2.8 2.5-2.8 2.3-3.3 2.3-3.5 1.8-3.5 1.5-4 1.3-4 1-4 .5-4.3.3-4.3-.3-4.3-.5-4-1-3.8-1.3-3.5-1.5-3.5-1.8-3.3-2.3-3-2.3-2.5-2.5-2.5-3-2-3-1.8-3-1.5-3.5-1-3.5-.5-3.5-.3-3.8.3-3.8.5-3.8 1-3.5 1.5-3.3 1.8-3.3 2-3 2.5-2.8 2.5-2.8 3-2.3 3.3-2.3 3.5-1.8 3.5-1.5 3.8-1.3 4-1 4.3-.5zm15 36.7-.3-1.8-.3-1.5-.8-3.3-1.5-2.8-1.6-2.1-2.3-2-1.3-.8-1.3-.8-1.1-.4-1.5-.5-1.5-.3h-3l-1.5.3-1.5.5-1.3.5-1.5.8-1 .8-2.3 2-2 2.3-1.3 2.8-.8 3.3-.3 1.5-.3 1.8.3 1.5.3 1.8.8 3 1.3 2.8 2 2.5 2.3 2 1 .8 1.5.8 1.3.5 1.5.3 1.5.3 1.5.3 1.5-.3 1.5-.3 1.5-.3 1.3-.5 1.3-.8 1.3-.8 2.3-2 1.8-2.5 1.5-2.8.8-3 .3-1.8z" fill="#231f20"/><path d="m511.5 230.3h1.5l1.5.2 1.5.5 1.2.5 1.3.8 1.2.7 2.3 2 1.7 2.3 1.5 2.7.8 3.3.2 1.5.3 1.7-.3 1.5-.2 1.8-.8 3-1.5 2.7-1.7 2.5-2.3 2-1.2.8-1.3.7-1.2.5-1.5.3-1.5.2-1.5.3-1.5-.3-1.5-.2-1.5-.3-1.3-.5-1.5-.7-1-.8-2.2-2-2-2.5-1.3-2.7-.7-3-.3-1.8-.2-1.5.2-1.7.3-1.5.7-3.3 1.3-2.7 2-2.3 2.2-2 1-.7 1.5-.8 1.3-.5 1.5-.5 1.5-.2z" fill="#231f20"/><g fill="none" stroke="#231f20" stroke-linecap="round" stroke-miterlimit="10"><path d="m334 160 2.7-4.5 3-4.5 3-4 3-4.2 3.3-4 3.5-3.8 6.7-7.5 7.5-7 7.5-6.5 8-6 8.3-5.5 8.7-5.2 8.8-4.8 9-4.5 9.2-4 9.5-3.5 9.5-3.2 9.8-2.8 9.7-2.5 9.8-2 10-1.7 9.7-1.3 10-1 9.8-.5 9.7-.5 9.8.3 9.7.2 9.3.8 9.2 1 9.3 1.5 8.7 1.5 8.5 2 8.5 2.2 8 2.5 7.5 2.8 8 3.2 7.5 3.3 7 3.2 6.8 3.3 6.2 3.2 6 3.5 5.8 3.3 5 3 9.2 6.2 8 6 6.3 5.3 5 4.5" stroke-width="28"/><path d="m655.2 273.3-1.7-2.3-5-5.7-5.3-5.5-8-8.3-8.2-7.7-8.8-7.3-4.5-3.5-4.5-3.2-4.7-3.3-4.5-3-5-3-4.8-2.7-5-2.5-5-2.5-5-2.3-5.2-2-6.5-2.5-6.8-2-7-1.7-7-1.5-7-1.3-7.2-.7-7.3-.3h-7.5l-8.2.3-8.3 1-8.2 1.5-8.3 2-8 2.5-8 3-7.7 3.2-7.8 4-4.2 2.3-4.3 2.5-4 2.7-4 2.8-4 3-4 3-3.5 3-3.7 3.2-3.5 3.5-3.3 3.5-3.2 3.5-3 3.8-3 3.7-2.5 3.8-2.8 4-2.2 4-2.5 4.2-2.5 3.8-2.3 3.7-1.5 3.3-.5 1.7-.2 1.5.2 1.5.3 1.5.7 1.5 1 1.3 1.5 1.5 2 1.2 1.8 1 2 .8 1.7.7 2 .5 4 .5 4 .3 4.3.2 4 .3 4 1 2 .5 2 .7 2.7 1.5 2.5 1.8 5 4.2 5.3 4 2.7 1.8 2.8 1.5 3.5 1.5 3.5 1.5 7.7 2.2 8 1.8 7.5 1.5 4.5 1 4.5.5 4.5.5 4.8.5 9.5.2 9.7-.2 9.8-.8 4.7-.7 4.8-.8 4.5-1 4.5-1 4.5-1.2 4-1.3 6.7-2.5 6.5-2.7 6.5-3 6.3-3 6.2-3.5 6.3-3.3 6-3.7 5.7-3.8 6-4 5.5-4 5.8-4 5.5-4.5 10.5-8.7 10.2-9.3" stroke-width="21"/><path d="m451.2 216.5-.7 1.5-3 6.3-1.3 3-1.2 3.2-1 3.3-.8 3.2-.5 3.5-.2 3.5.2 3.3.3 3.2.5 3.3.5 3.2.7 3.3 1 3 1 3 1.3 3 1.2 3 1.5 2.7 1.8 2.8 1.7 2.5 2 2.7 2 2.3 2 2.5 2.3 2.2 2.5 2.3 2.5 2 2.5 2 2.7 1.7 2.8 1.8 2.7 1.5 3 1.5 3 1.2 3 1.3 3.3 1 3.2.7 3.3.8 3.5.5 3.2.5 3.5.2h7l3.5-.2 3.5-.5 3.3-.5 3.2-.8 3.3-.7 3.2-1 3.3-1.3 3-1.2 2.7-1.5 3-1.5 2.8-1.8 2.7-1.7 2.5-2 2.5-2 2.3-2.3 2.2-2.2 2.3-2.5 2-2.3 2-2.7 1.7-2.5 1.5-2.8 1.5-2.7 1.5-3 1.3-3 1-3 1-3 .7-3.3.5-3.2.5-3.3.3-3.2v-8.3l-.5-4.5-.5-4.2-1-4.3-1.5-4-1.5-3.7-2.3-4-2.5-3.8" stroke-width="14"/><path d="m501.2 486.5 29-49m-86.2 239.3-1.8 13.2-1.5 2.3-1.7 2.2-2 1.8-2 1.5-2 1.5-2.3 1-2.5 1-2.5.7-2.5.5-2.5.3h-2.5l-2.5-.3-2.5-.5-2.5-.7-2.5-1.3-2.2-1.2-3.8-2.3-2.7-1.7-2.3-2-2-2.3-1.7-2.5-1.5-2.7-1-2.8-.8-2.7-.5-3m194.3-220.8-38.8 59m13.5-124 14-23.2 2.3-2.8 2.2-2.5 2.8-2.2 2.7-1.8 3.3-1.5 3.2-1 3.3-.5 3.2-.2 3.5.2 3.5.8 3.3 1.2 3.2 1.8 3.8 2.2 2.7 2 2.5 2.3 2 2.5 2 2.7 1.3 3.3 1.2 3.2.5 3.3.3 3.5-.3 3.5-.7 3.5-1.3 3.2-1.7 3.3-14.8 24.2-.5.8" stroke-width="21"/><path d="m596 352.8 57.5-81.8 90.2-128.5-121.2 228.3m-219 158 14.7 2.7 15.8 3 19 4.3 20.7 4.7 10.3 2.8 10.2 2.7 9.8 2.8 9 3 8.2 3 7 3 5.3 2.7 2.2 1.3 1.8 1.5 1.5 1.2 1.2 1.3.8 1.5.5 1.2.2 2.5v5.5l-.2 2.5-1 5-1.3 5-2 4.8-2.2 4.5-2.5 4.2-3 4-3 3.8-3.3 3.2-3.2 3-3.5 2.5-3.3 2.3-3.2 1.5-3 1.2-3 .5m-114.5-22.5 14.7 1.5 15.5 1.8 18.5 2.5 9.8 1.5 9.7 1.7 9.5 1.8 9.3 2 8.5 2.2 7.5 2.3 3.5 1.2 3 1.3 2.7 1.5 2.3 1.2 2.2 1.5 1.5 1.5 1 1.8.5 1.5.3 3.5v3.5l-.5 3.2-.8 3.3-1.2 3.2-1.3 3-1.7 3.3-2 2.7-2 3-2.5 2.8-2.8 2.7-2.7 2.8-3 2.5-3 2.2-6.5 4.8-1.5.7-4 1.8-5.8 2.2-3 .8-3.5 1-3.2.5-3.3.2-2.7-.2-1.5-.3-1.3-.5-1.2-.5-1-.7-1-1-1-1-.5-1.5-.5-1.5-.5-1.5v-2l-.3-1.3-.2-1-.5-1-.5-1-1-.7-.8-.8-2.5-1.5-2.7-1-3.3-.7-3.7-.8-4.3-.2h-4.2l-4.8.2-4.7.5-5.3 1-5 1-5.2 1.3-5 1.5-5.3 2-4.7 2-4.8 2.2-4.5 2.5-4.2 2.8-5 3.5-4.3 3.2-3.5 3-3.2 3-5.5 5.8-4.8 5.2-4.7 5-2.5 2.8-3 2.5-3 2.7-3.8 3-4 2.8-4.7 3.2-10 6.3-10 6-10.3 5.5-5 2.5-5.2 2.5-5.3 2.2-5.2 2-5.3 1.8-5.3 1.7-5.5 1.3-5.5 1.2-5.7.8-5.8.7-5.7.3h-5.5l-11.5-.3h-16.8l-5.5.3-5.5.7-5.2.8-5 1.2-5 1.8-5 2.2-2.3 1.5-2.5 1.5-2.2 1.5-2.3 2-2 2-2.2 2.3-3.5 4.2" stroke-width="21"/><path d="m110.7 584.5 3-2.2 127.5-83.8 78.3-51.5 28.5-18.5 15.5-10 5.2-3 6.3-3.5 16.2-8.2 18.8-9.5 19.7-9.3 34-16 14.8-7 7.2 2.3 8.3 2.5 10.5 3.5 12.2 4.2 13.5 5 14 5.5 14.5 6 11.8 5.8 5.7 2.7 5.5 3 5.3 3 5 3 4.5 3 4.2 3.3 2 1.5 1.5 1.7 1.5 2 1 2 1.3 3 .7 3.3.3 3.2-.3 3.5-.5 3.3-.7 3.2-1.5 3-1.5 3-1.8 2.5-2.2 2.3-2.3 2-2.5 1.5-2.7 1-3 .2h-3l-1.5-.5-1.5-.5-11.8-4.7-12.7-5.5-13.8-5.8-7-2.7-7-2.5-8-2.8-7.5-2.2-7.5-1.8-7-1-3.5-.5h-6.2l-2.8.3-2.7.5-2.5.7-2.5 1-2.3 1.3-17 11.7-17.2 12-19 13.5 6.2 1.8 16.3 4.5 10.7 3 11.8 3.7 12.2 4 12.5 4.3 8.5 3.2 8.3 3.3 7.7 3.2 7 3.3 6.3 3.5 5.2 3.2 2 1.8 2 1.5 1.5 1.5 1 1.7.8 1.3.7 1.5 1 3.2.3 3.5v3.5l-.5 3.8-.8 3.5-1.2 3.7-1.3 3.5-1.7 3.3-1.8 3.2-2 2.8-2 2.5-2 2-2 1.7-2 1-2 .8" stroke-width="21"/></g></svg>