<svg height="850.394" viewBox="0 0 850.394 850.394" width="850.394" xmlns="http://www.w3.org/2000/svg"><path d="m246.73 766.7c-102.33 0-98.39-196.8-98.39-196.8v-362.96h42.23v352.6s-3.38 173.7 84.48 173.7h310.88c87.86 0 84.48-173.7 84.48-173.7v-352.6h36.8v362.96s3.94 196.8-98.39 196.8z" fill="#a3d9ff"/><path d="m707.21 206.94h-576.58v-95.36h598.24v95.36z" fill="#0b00ea"/><path d="m670.41 559.54s3.38 173.7-84.48 173.7h-310.88c-87.86 0-84.48-173.7-84.48-173.7v-352.6h479.84z" fill="#a3d9ff"/><g fill="none"><g stroke="#000" stroke-width="23.615"><path d="m148.34 206.94h-17.71v-95.36h598.24v95.36h-538.3zm558.87.4v362.56s3.94 196.8-98.39 196.8h-362.09c-102.33 0-98.39-196.8-98.39-196.8v-362.79"/><path d="m670.41 206.94v352.6s3.38 173.7-84.48 173.7h-310.88c-87.86 0-84.48-173.7-84.48-173.7v-352.6" stroke-dasharray="30" stroke-miterlimit="13"/></g><path d="m0 0h850.394v850.394h-850.394z"/></g></svg>