<svg height="850.394" viewBox="0 0 850.394 850.394" width="850.394" xmlns="http://www.w3.org/2000/svg"><g fill="#0071bc"><path d="m625.312 601.323c52.232 19.214 80.766 43.364 80.766 73.007 0 58.43-125.859 105.79-281.107 105.79s-281.107-47.36-281.107-105.79c0-30.451 27.978-55.59 82.702-74.888l1.364.536-7.505 18.922c0 47.756 91.91 86.445 205.27 86.445 113.389 0 205.289-38.689 205.289-86.445l-6.855-17.106z"/><path d="m624.127 601.794 6.855 17.106c0 47.756-91.899 86.445-205.289 86.445-113.36 0-205.27-38.689-205.27-86.445l7.505-18.922 196.666-495.978z"/></g><g fill="none"><g stroke="#231f20" stroke-width="19.749"><path d="m625.312 601.323c52.232 19.214 80.766 43.364 80.766 73.007 0 58.43-125.859 105.79-281.107 105.79s-281.107-47.36-281.107-105.79c0-30.451 27.978-55.59 82.702-74.888"/><path d="m624.127 601.794 6.855 17.106c0 47.756-91.899 86.445-205.289 86.445-113.36 0-205.27-38.689-205.27-86.445l7.505-18.922 196.666-495.978z"/></g><path d="m0 0h850.394v850.394h-850.394z"/><path d="m162 100.703h163.229m-39.644-52.168 40.415 52.36-40.482 52.34" stroke="#000" stroke-linecap="round" stroke-linejoin="round" stroke-width="14"/></g></svg>