<svg height="850.394" viewBox="0 0 850.394 850.394" width="850.394" xmlns="http://www.w3.org/2000/svg"><path d="m559.12 307.58v413.09c0 33.24-26.55 60.18-59.311 60.18h-148.119c-32.76 0-59.3-26.939-59.3-60.18v-413.09c0-21.3 10.89-40.01 27.33-50.71 9.22-6 20.2-9.48 31.97-9.48h148.119c4.61 0 9.091.53 13.4 1.54 26.301 6.16 45.911 30.08 45.911 58.65zm-24.65 161.72c0-6.62-5.35-11.97-11.97-11.97h-13.68c-3.301 0-6.29 1.34-8.46 3.5-2.16 2.17-3.5 5.16-3.5 8.47 0 6.61 5.359 11.97 11.96 11.97h13.68c6.62 0 11.97-5.36 11.97-11.97zm0 37.99c0-6.62-5.35-11.97-11.97-11.97h-13.68c-3.301 0-6.29 1.34-8.46 3.5-2.16 2.17-3.5 5.16-3.5 8.47 0 6.61 5.359 11.97 11.96 11.97h13.68c6.62 0 11.97-5.36 11.97-11.97zm0 35.7a11.96 11.96 0 0 0 -11.97-11.971h-13.68c-3.301 0-6.29 1.341-8.46 3.5a11.968 11.968 0 0 0 -3.5 8.471c0 6.609 5.359 11.97 11.96 11.97h13.68c6.62 0 11.97-5.36 11.97-11.97zm0 37.99a11.96 11.96 0 0 0 -11.97-11.971h-13.68c-3.301 0-6.29 1.34-8.46 3.5-2.16 2.17-3.5 5.16-3.5 8.471 0 6.609 5.359 11.96 11.96 11.96h13.68c6.62 0 11.97-5.35 11.97-11.96zm-18.1-183.52v-96.68c0-15.79-9.89-28.6-22.09-28.6h-137.05c-12.2 0-22.1 12.81-22.1 28.6v96.68c0 15.8 9.9 28.6 22.1 28.6h137.05c12.2 0 22.09-12.8 22.09-28.6zm-38.86 71.84c0-6.62-5.35-11.97-11.97-11.97h-13.67c-3.311 0-6.3 1.34-8.47 3.5-2.16 2.17-3.5 5.16-3.5 8.47 0 6.61 5.35 11.97 11.97 11.97h13.67c6.62 0 11.97-5.36 11.97-11.97zm0 37.99c0-6.62-5.35-11.97-11.97-11.97h-13.67c-3.311 0-6.3 1.34-8.47 3.5-2.16 2.17-3.5 5.16-3.5 8.47 0 6.61 5.35 11.97 11.97 11.97h13.67c6.62 0 11.97-5.36 11.97-11.97zm0 35.7a11.96 11.96 0 0 0 -11.97-11.971h-13.67c-3.311 0-6.3 1.341-8.47 3.5a11.968 11.968 0 0 0 -3.5 8.471c0 6.609 5.35 11.97 11.97 11.97h13.67c6.62 0 11.97-5.36 11.97-11.97zm0 37.99a11.96 11.96 0 0 0 -11.97-11.971h-13.67c-3.311 0-6.3 1.34-8.47 3.5-2.16 2.17-3.5 5.16-3.5 8.471 0 6.609 5.35 11.96 11.97 11.96h13.67c6.62 0 11.97-5.35 11.97-11.96zm-66.04-111.32c0-6.61-5.36-11.96-11.97-11.96h-13.68c-3.3 0-6.29 1.34-8.46 3.5-2.16 2.16-3.5 5.16-3.5 8.46 0 6.62 5.36 11.97 11.96 11.97h13.68c6.61 0 11.97-5.35 11.97-11.97zm0 37.99c0-6.61-5.36-11.96-11.97-11.96h-13.68c-3.3 0-6.29 1.34-8.46 3.5a11.94 11.94 0 0 0 -3.5 8.46c0 6.619 5.36 11.97 11.96 11.97h13.68c6.61 0 11.97-5.35 11.97-11.97zm0 35.7c0-6.609-5.36-11.97-11.97-11.97h-13.68c-3.3 0-6.29 1.34-8.46 3.51-2.16 2.16-3.5 5.15-3.5 8.46 0 6.62 5.36 11.971 11.96 11.971h13.68c6.61-.001 11.97-5.351 11.97-11.971zm0 37.99c0-6.609-5.36-11.96-11.97-11.96h-13.68c-3.3 0-6.29 1.34-8.46 3.5-2.16 2.16-3.5 5.16-3.5 8.46 0 6.62 5.36 11.97 11.96 11.97h13.68c6.61 0 11.97-5.35 11.97-11.97zm-56.96-111.68c0-6.61-5.36-11.96-11.97-11.96h-13.68c-3.3 0-6.3 1.34-8.46 3.5a11.91 11.91 0 0 0 -3.51 8.46c0 6.62 5.36 11.97 11.97 11.97h13.68c6.61 0 11.97-5.35 11.97-11.97zm0 37.99c0-6.61-5.36-11.96-11.97-11.96h-13.68c-3.3 0-6.3 1.34-8.46 3.5a11.907 11.907 0 0 0 -3.51 8.46c0 6.619 5.36 11.97 11.97 11.97h13.68c6.61 0 11.97-5.35 11.97-11.97zm0 35.7c0-6.609-5.36-11.97-11.97-11.97h-13.68c-3.3 0-6.3 1.34-8.46 3.51a11.892 11.892 0 0 0 -3.51 8.46c0 6.62 5.36 11.971 11.97 11.971h13.68c6.61-.001 11.97-5.351 11.97-11.971zm0 37.99c0-6.609-5.36-11.96-11.97-11.96h-13.68c-3.3 0-6.3 1.34-8.46 3.5a11.91 11.91 0 0 0 -3.51 8.46c0 6.62 5.36 11.97 11.97 11.97h13.68c6.61 0 11.97-5.35 11.97-11.97z" fill="#797878"/><path d="m476.91 168.29 34.25-.09 6.84 77.8-4.79 2.93a58.632 58.632 0 0 0 -13.4-1.54h-29.74v-1.31zm-94.94 74.64v4.46h-30.28c-11.77 0-22.75 3.48-31.97 9.48l-1.72-2.87v-192.58h62.41z" fill="#231f20"/><path d="m522.5 457.33c6.62 0 11.97 5.35 11.97 11.97 0 6.61-5.35 11.97-11.97 11.97h-13.68c-6.601 0-11.96-5.359-11.96-11.97 0-3.31 1.34-6.3 3.5-8.47 2.17-2.16 5.159-3.5 8.46-3.5zm0 37.99c6.62 0 11.97 5.35 11.97 11.97 0 6.61-5.35 11.97-11.97 11.97h-13.68c-6.601 0-11.96-5.359-11.96-11.97 0-3.31 1.34-6.3 3.5-8.47 2.17-2.16 5.159-3.5 8.46-3.5zm0 35.7a11.96 11.96 0 0 1 11.97 11.971c0 6.609-5.35 11.97-11.97 11.97h-13.68c-6.601 0-11.96-5.36-11.96-11.97 0-3.311 1.34-6.3 3.5-8.471a11.962 11.962 0 0 1 8.46-3.5zm0 37.99a11.96 11.96 0 0 1 11.97 11.971c0 6.609-5.35 11.96-11.97 11.96h-13.68c-6.601 0-11.96-5.351-11.96-11.96 0-3.311 1.34-6.301 3.5-8.471 2.17-2.16 5.159-3.5 8.46-3.5zm-56.96 0a11.96 11.96 0 0 1 11.97 11.971c0 6.609-5.35 11.96-11.97 11.96h-13.67c-6.62 0-11.97-5.351-11.97-11.96 0-3.311 1.34-6.301 3.5-8.471 2.17-2.16 5.159-3.5 8.47-3.5zm0-37.99a11.96 11.96 0 0 1 11.97 11.971c0 6.609-5.35 11.97-11.97 11.97h-13.67c-6.62 0-11.97-5.36-11.97-11.97 0-3.311 1.34-6.3 3.5-8.471a11.968 11.968 0 0 1 8.47-3.5zm0-35.7c6.62 0 11.97 5.35 11.97 11.97 0 6.61-5.35 11.97-11.97 11.97h-13.67c-6.62 0-11.97-5.359-11.97-11.97 0-3.31 1.34-6.3 3.5-8.47 2.17-2.16 5.159-3.5 8.47-3.5zm0-37.99c6.62 0 11.97 5.35 11.97 11.97 0 6.61-5.35 11.97-11.97 11.97h-13.67c-6.62 0-11.97-5.359-11.97-11.97 0-3.31 1.34-6.3 3.5-8.47 2.17-2.16 5.159-3.5 8.47-3.5zm-66.04.37c6.61 0 11.97 5.35 11.97 11.96 0 6.62-5.36 11.97-11.97 11.97h-13.68c-6.6 0-11.96-5.35-11.96-11.97 0-3.3 1.34-6.3 3.5-8.46a11.96 11.96 0 0 1 8.46-3.5zm0 37.99c6.61 0 11.97 5.35 11.97 11.96 0 6.619-5.36 11.97-11.97 11.97h-13.68c-6.6 0-11.96-5.351-11.96-11.97 0-3.311 1.34-6.29 3.5-8.46a11.96 11.96 0 0 1 8.46-3.5zm0 35.69c6.61 0 11.97 5.36 11.97 11.97 0 6.62-5.36 11.971-11.97 11.971h-13.68c-6.6 0-11.96-5.351-11.96-11.971 0-3.31 1.34-6.3 3.5-8.46 2.17-2.17 5.16-3.51 8.46-3.51zm0 38c6.61 0 11.97 5.351 11.97 11.96 0 6.62-5.36 11.97-11.97 11.97h-13.68c-6.6 0-11.96-5.35-11.96-11.97 0-3.3 1.34-6.3 3.5-8.46a11.96 11.96 0 0 1 8.46-3.5zm-56.96 0c6.61 0 11.97 5.351 11.97 11.96 0 6.62-5.36 11.97-11.97 11.97h-13.68c-6.61 0-11.97-5.35-11.97-11.97 0-3.3 1.34-6.3 3.51-8.46 2.16-2.16 5.16-3.5 8.46-3.5zm0-38c6.61 0 11.97 5.36 11.97 11.97 0 6.62-5.36 11.971-11.97 11.971h-13.68c-6.61 0-11.97-5.351-11.97-11.971 0-3.31 1.34-6.3 3.51-8.46a11.91 11.91 0 0 1 8.46-3.51zm0-35.69c6.61 0 11.97 5.35 11.97 11.96 0 6.619-5.36 11.97-11.97 11.97h-13.68c-6.61 0-11.97-5.351-11.97-11.97 0-3.311 1.34-6.29 3.51-8.46 2.16-2.16 5.16-3.5 8.46-3.5zm0-37.99c6.61 0 11.97 5.35 11.97 11.96 0 6.62-5.36 11.97-11.97 11.97h-13.68c-6.61 0-11.97-5.35-11.97-11.97 0-3.3 1.34-6.3 3.51-8.46 2.16-2.16 5.16-3.5 8.46-3.5zm173.83-156.92v96.68c0 15.8-9.89 28.6-22.09 28.6h-137.05c-12.2 0-22.1-12.8-22.1-28.6v-96.68c0-15.79 9.9-28.6 22.1-28.6h137.05c12.2 0 22.09 12.81 22.09 28.6z" fill="#c8c8c8"/><g fill="none"><g stroke="#231f20"><path d="m513.21 248.93c26.3 6.16 45.91 30.08 45.91 58.65v413.09c0 33.24-26.55 60.18-59.311 60.18h-148.119c-32.76 0-59.3-26.939-59.3-60.18v-413.09c0-21.3 10.89-40.01 27.33-50.71 9.22-6 20.2-9.48 31.97-9.48h148.119c4.611 0 9.091.53 13.401 1.54z" stroke-width="21"/><path d="m318 254v-192.58h62.41l1.56 181.51m136.03 3.07-6.84-77.8-34.25.09-6.84 77.79m46.3 151.38c0 15.8-9.89 28.6-22.09 28.6h-137.05c-12.2 0-22.1-12.8-22.1-28.6v-96.68c0-15.79 9.9-28.6 22.1-28.6h137.05c12.2 0 22.09 12.81 22.09 28.6z" stroke-width="21"/><path d="m354.51 469.66c0 6.62-5.36 11.97-11.97 11.97h-13.68c-6.61 0-11.97-5.35-11.97-11.97 0-3.3 1.34-6.3 3.51-8.46 2.16-2.16 5.16-3.5 8.46-3.5h13.68c6.61 0 11.97 5.35 11.97 11.96zm0 37.99c0 6.619-5.36 11.97-11.97 11.97h-13.68c-6.61 0-11.97-5.351-11.97-11.97 0-3.311 1.34-6.29 3.51-8.46 2.16-2.16 5.16-3.5 8.46-3.5h13.68c6.61 0 11.97 5.35 11.97 11.96zm0 35.7c0 6.62-5.36 11.971-11.97 11.971h-13.68c-6.61 0-11.97-5.351-11.97-11.971 0-3.31 1.34-6.3 3.51-8.46a11.91 11.91 0 0 1 8.46-3.51h13.68c6.61 0 11.97 5.36 11.97 11.97zm0 37.99c0 6.62-5.36 11.97-11.97 11.97h-13.68c-6.61 0-11.97-5.35-11.97-11.97 0-3.3 1.34-6.3 3.51-8.46 2.16-2.16 5.16-3.5 8.46-3.5h13.68c6.61 0 11.97 5.35 11.97 11.96zm56.96-111.68c0 6.62-5.36 11.97-11.97 11.97h-13.68c-6.6 0-11.96-5.35-11.96-11.97 0-3.3 1.34-6.3 3.5-8.46a11.96 11.96 0 0 1 8.46-3.5h13.68c6.61 0 11.97 5.35 11.97 11.96zm0 37.99c0 6.619-5.36 11.97-11.97 11.97h-13.68c-6.6 0-11.96-5.351-11.96-11.97 0-3.311 1.34-6.29 3.5-8.46a11.96 11.96 0 0 1 8.46-3.5h13.68c6.61 0 11.97 5.35 11.97 11.96zm0 35.7c0 6.62-5.36 11.971-11.97 11.971h-13.68c-6.6 0-11.96-5.351-11.96-11.971 0-3.31 1.34-6.3 3.5-8.46 2.17-2.17 5.16-3.51 8.46-3.51h13.68c6.61 0 11.97 5.36 11.97 11.97zm0 37.99c0 6.62-5.36 11.97-11.97 11.97h-13.68c-6.6 0-11.96-5.35-11.96-11.97 0-3.3 1.34-6.3 3.5-8.46a11.96 11.96 0 0 1 8.46-3.5h13.68c6.61 0 11.97 5.35 11.97 11.96zm66.04-112.04c0 6.61-5.35 11.97-11.97 11.97h-13.67c-6.62 0-11.97-5.359-11.97-11.97 0-3.31 1.34-6.3 3.5-8.47 2.17-2.16 5.159-3.5 8.47-3.5h13.67c6.62 0 11.97 5.35 11.97 11.97zm0 37.99c0 6.61-5.35 11.97-11.97 11.97h-13.67c-6.62 0-11.97-5.359-11.97-11.97 0-3.31 1.34-6.3 3.5-8.47 2.17-2.16 5.159-3.5 8.47-3.5h13.67c6.62 0 11.97 5.35 11.97 11.97zm0 35.7c0 6.609-5.35 11.97-11.97 11.97h-13.67c-6.62 0-11.97-5.36-11.97-11.97 0-3.311 1.34-6.3 3.5-8.471a11.968 11.968 0 0 1 8.47-3.5h13.67a11.96 11.96 0 0 1 11.97 11.971zm0 37.99c0 6.609-5.35 11.96-11.97 11.96h-13.67c-6.62 0-11.97-5.351-11.97-11.96 0-3.311 1.34-6.301 3.5-8.471 2.17-2.16 5.159-3.5 8.47-3.5h13.67a11.96 11.96 0 0 1 11.97 11.971zm56.96-111.68c0 6.61-5.35 11.97-11.97 11.97h-13.68c-6.601 0-11.96-5.359-11.96-11.97 0-3.31 1.34-6.3 3.5-8.47 2.17-2.16 5.159-3.5 8.46-3.5h13.68c6.62 0 11.97 5.35 11.97 11.97zm0 37.99c0 6.61-5.35 11.97-11.97 11.97h-13.68c-6.601 0-11.96-5.359-11.96-11.97 0-3.31 1.34-6.3 3.5-8.47 2.17-2.16 5.159-3.5 8.46-3.5h13.68c6.62 0 11.97 5.35 11.97 11.97zm0 35.7c0 6.609-5.35 11.97-11.97 11.97h-13.68c-6.601 0-11.96-5.36-11.96-11.97 0-3.311 1.34-6.3 3.5-8.471a11.962 11.962 0 0 1 8.46-3.5h13.68a11.96 11.96 0 0 1 11.97 11.971zm0 37.99c0 6.609-5.35 11.96-11.97 11.96h-13.68c-6.601 0-11.96-5.351-11.96-11.96 0-3.311 1.34-6.301 3.5-8.471 2.17-2.16 5.159-3.5 8.46-3.5h13.68a11.96 11.96 0 0 1 11.97 11.971zm-207.32 48.84h197.2m-197.2 19.38h197.2m-197.2 19.37h197.2m-197.2 19.38h197.2m-197.2 19.38h197.2" stroke-width="13.679"/></g><path d="m0 0h850.394v850.394h-850.394z"/></g></svg>