<svg height="850.394" viewBox="0 0 850.394 850.394" width="850.394" xmlns="http://www.w3.org/2000/svg"><g fill="#00e800"><path d="m269.81 442.84c5.29-8.649 22.15-21.96 32.52-19.5-11.09 1.2-21.33 14-26.14 22.51-7.29 12.881-11.36 33.771-13.01 48.431-4.15 36.91-6.07 74.22-9.66 110.979l-28.08-2.62.31-1.25 3.93-15.85 14.85-59.92 10.29-41.53c3.39-12.96 4.43-24.01 14.99-41.25z"/><path d="m244.53 525.62-14.85 59.92-.03-.01-1.85-107.37 8.77-116.93 7.95 164.39zm-23.36 53.77-18.3-87.02 8.52-111.78zm4.57 22h.01l-.31 1.25-26.46 1.271-.41 1.42c-2.15-.62-4.26-1.25-6.33-1.89l-10.01-53.391 3.69-.689c-2.25-28.62-4.34-59.971-7.53-88.48-1.97-17.49-6.83-35.56-15.54-50.94-2.88-5.09-7.4-13.21-12.85-20.22 2.55-1.25 5.15-2.48 7.8-3.69 4.14 3.47 8.08 7.53 11.59 11.67 6.9 8.14 16.15 23.56 22.98 44.74l10.5 49.93 18.3 87.02 2.28 10.851z"/><path d="m192.24 603.44.57 3.05-32.57-12.42c-.16-1.7-.3-3.36-.41-5.011-2.35-34.05 5.95-57.77 2-92.97-1.65-14.649-5.73-35.57-13.01-48.439-4.82-8.511-15.06-21.32-26.14-22.521 10.37-2.46 27.22 10.87 32.51 19.5 10.56 17.271 11.61 28.311 15 41.25l12.04 64.17zm459.88-168.4.14.56-28.069 2.631c-2.54-25.96-4.25-52.19-6.5-78.351-.931-10.89-1.95-21.78-3.171-32.63-1.649-14.65-5.72-35.57-13.01-48.45-4.819-8.5-15.05-21.31-26.14-22.51 10.37-2.46 27.229 10.87 32.51 19.5 10.561 17.26 11.61 28.31 15.01 41.25l15.73 63.48z"/><path d="m673.87 410.55 2.28 10.85 2.29 11.15-.311 1.25-26.01 1.24-13.5-54.52c-2.25-28.62-4.34-59.97-7.54-88.48-1.97-17.49-6.83-35.56-15.54-50.94-5.75-10.15-17.96-32.32-31.2-33.76 12.38-2.94 27.05 8.9 37.75 21.52 6.891 8.14 16.141 23.56 22.98 44.74l10.489 49.9z"/><path d="m673.87 410.55-18.31-87.05 8.52-111.75zm23.35-53.77-14.85 59.92-.02-.01-1.85-107.38 8.76-116.92 7.95 164.39z"/><path d="m722.51 274c5.28-8.65 22.15-21.96 32.521-19.5-11.101 1.2-21.33 14-26.141 22.51-7.29 12.88-11.359 33.77-13.02 48.43-2.58 22.96-4.3 46.07-6.09 69.11-1.101 14-2.221 27.98-3.57 41.87l-28.08-2.62.311-1.25 3.93-15.85 14.85-59.92 10.3-41.53c3.389-12.96 4.419-24.01 14.989-41.25z"/></g><path d="m229.68 585.54-3.93 15.85h-.01l-2.29-11.149-2.28-10.851-9.78-198.8-8.52 111.78-10.5-49.93c-6.83-21.181-16.08-36.601-22.98-44.74-3.51-4.14-7.45-8.2-11.59-11.67 22.78-10.47 49.11-19.58 78.2-27.03l.57 2.23-8.77 116.93 1.85 107.37z" fill="#a3d9ff"/><path d="m185.92 549.36-3.69.689-12.04-64.17c-3.39-12.939-4.44-23.979-15-41.25-5.29-8.63-22.14-21.96-32.51-19.5 11.08 1.2 21.32 14.01 26.14 22.521 7.28 12.869 11.36 33.79 13.01 48.439 3.95 35.2-4.35 58.92-2 92.97-64.99-26.899-94.32-62.619-94.32-103.629 0-36.46 31.76-69.85 84.49-95.709 5.45 7.01 9.97 15.13 12.85 20.22 8.71 15.38 13.57 33.45 15.54 50.94 3.19 28.509 5.28 59.859 7.53 88.479zm523.86-154.81c47.04 25.13 75.04 56.66 75.04 90.88 0 82.09-161.03 148.63-359.65 148.63-77.95 0-166.41-11.229-226.6-28.729l.41-1.42 26.46-1.271 28.08 2.62c3.59-36.76 5.51-74.069 9.66-110.979 1.65-14.66 5.72-35.55 13.01-48.431 4.81-8.51 15.05-21.31 26.14-22.51-10.37-2.46-27.23 10.851-32.52 19.5-10.56 17.24-11.6 28.29-14.99 41.25l-10.29 41.53h-.01l-7.95-164.39-.57-2.23c54.95-14.07 119.76-22.2 189.17-22.2 70.82 0 136.85 8.47 192.521 23.08 2.25 26.16 3.96 52.39 6.5 78.351l28.069-2.631-.14-.56 26.01-1.24 28.08 2.62c1.35-13.89 2.47-27.87 3.57-41.87z" fill="#a3d9ff"/><g fill="none" stroke="#231f20"><path d="m709.78 394.55c47.04 25.13 75.04 56.66 75.04 90.88 0 82.09-161.03 148.63-359.65 148.63-77.95 0-166.41-11.229-226.6-28.729-2.15-.62-4.26-1.25-6.33-1.89-.32-.101-.63-.19-.94-.29m-31.34-14.041a.7.7 0 0 0 -.13-.051c-64.99-26.899-94.32-62.619-94.32-103.629 0-36.46 31.76-69.85 84.49-95.709 2.55-1.25 5.15-2.48 7.8-3.69 22.78-10.47 49.11-19.58 78.2-27.03 54.95-14.07 119.76-22.2 189.17-22.2 70.82 0 136.85 8.47 192.521 23.08.439.11.88.22 1.319.34" stroke-width="21"/><path d="m202.87 492.37 8.52-111.78 9.78 198.8v.04m8.48 6.1-1.85-107.37 8.77-116.93 7.95 164.39" stroke-width="14"/><path d="m225.44 602.64-26.46 1.27" stroke-width="13.615"/><path d="m185.92 549.36c-2.25-28.62-4.34-59.971-7.53-88.48-1.97-17.49-6.83-35.56-15.54-50.94-2.88-5.09-7.4-13.21-12.85-20.22-5.41-6.96-11.76-12.82-18.35-13.54 8.32-1.97 17.67 2.72 26.15 9.85 4.14 3.47 8.08 7.53 11.59 11.67 6.9 8.14 16.15 23.56 22.98 44.74l10.5 49.93 18.3 87.02 2.28 10.851 2.29 11.149" stroke-width="14"/><path d="m192.24 603.44.57 3.05-32.57-12.42c-.16-1.7-.3-3.36-.41-5.011-2.35-34.05 5.95-57.77 2-92.97-1.65-14.649-5.73-35.57-13.01-48.439-4.82-8.511-15.06-21.32-26.14-22.521 10.37-2.46 27.22 10.87 32.51 19.5 10.56 17.271 11.61 28.311 15 41.25l12.04 64.17zm33.2-.8 28.08 2.62c3.59-36.76 5.51-74.069 9.66-110.979 1.65-14.66 5.72-35.55 13.01-48.431 4.81-8.51 15.05-21.31 26.14-22.51-10.37-2.46-27.23 10.851-32.52 19.5-10.56 17.24-11.6 28.29-14.99 41.25l-10.29 41.53-14.85 59.92-3.93 15.85zm430.12-279.11v-.03l8.52-111.75 9.79 198.8v.04m8.48 6.1-1.85-107.38 8.76-116.92 7.95 164.39" stroke-width="14"/><path d="m678.13 433.8-26.01 1.24-.44.02" stroke-width="13.615"/><path d="m638.62 380.52c-2.25-28.62-4.34-59.97-7.54-88.48-1.97-17.49-6.83-35.56-15.54-50.94-5.75-10.15-17.96-32.32-31.2-33.76 12.38-2.94 27.05 8.9 37.75 21.52 6.891 8.14 16.141 23.56 22.98 44.74l10.489 49.9 18.311 87.05 2.28 10.85 2.29 11.15" stroke-width="14"/><path d="m652.12 435.04.14.56-28.069 2.631c-2.54-25.96-4.25-52.19-6.5-78.351-.931-10.89-1.95-21.78-3.171-32.63-1.649-14.65-5.72-35.57-13.01-48.45-4.819-8.5-15.05-21.31-26.14-22.51 10.37-2.46 27.229 10.87 32.51 19.5 10.561 17.26 11.61 28.31 15.01 41.25l15.73 63.48zm26.01-1.24 28.08 2.62c1.35-13.89 2.47-27.87 3.57-41.87 1.79-23.04 3.51-46.15 6.09-69.11 1.66-14.66 5.729-35.55 13.02-48.43 4.811-8.51 15.04-21.31 26.141-22.51-10.37-2.46-27.24 10.85-32.521 19.5-10.569 17.24-11.6 28.29-14.99 41.25l-10.3 41.53-14.85 59.92-3.93 15.85z" stroke-width="14"/><path d="m335.48 394.67c20.41-2.36 25.61-11.8 47.7-6.81 11.48 2.59 16.88 7.96 27.69 13.1 23.06 10.98 51.26 18.39 65.29-8.56m-13.1 80.81c20.41-2.35 25.61-11.8 47.7-6.81 11.48 2.6 16.88 7.97 27.681 13.1 23.06 10.98 51.27 18.4 65.3-8.56m-251.511 98.66c20.41-2.359 25.61-11.8 47.71-6.81 11.47 2.59 16.88 7.96 27.68 13.1 23.06 10.98 51.27 18.4 65.29-8.56" stroke-width="21"/></g><path d="m0 0h850.394v850.394h-850.394z" fill="none"/></svg>