<svg height="850.394" viewBox="0 0 850.394 850.394" width="850.394" xmlns="http://www.w3.org/2000/svg"><path d="m296.15 738.33c1.02-23.7 22.36-49.26 44.22-55.61 26.77-7.77 111.08-38.399 124.479-51.779 17.78-17.79 35.28-42.21 27.761-90.2l-59.8-334.431 195.74-19.47h.01c2.061 24.61 2.73 53.9.15 86.46-6.55 82.57-19.41 325.44-4.71 362.41 12.58 31.64 9.11 82.53-46.62 89.53-4.06.51-63.96-4.98-145.56 38.16-62.2 32.88-116.3 19.29-130.99-5.49-3.57-6.03-4.98-12.73-4.68-19.58z" fill="#f73900"/><path d="m537.08 112.34 77.63-5.52s9.71 30.53 13.85 80.02h-.01l-195.74 19.47-9.03-50.48-6.26-35z" fill="#fff"/><path d="m537.08 112.34-119.56 8.49 6.26 35-78.78 8.29-15.29-85.49 197.19-14s5.86 21.25 10.18 47.71z" fill="#fff"/><path d="m492.61 540.74c7.52 47.99-9.98 72.41-27.761 90.2-13.399 13.38-97.709 44.01-124.479 51.779-21.86 6.351-43.2 31.91-44.22 55.61-40.61 7.63-72.4-4.51-83.13-22.62-15.94-26.9 11.35-67 39.54-75.18 26.77-7.78 111.08-38.4 124.48-51.79 17.78-17.79 35.28-42.21 27.76-90.2l-59.8-334.419 78.78-8.29 9.03 50.48z" fill="#f73900"/><g fill="none" stroke="#000" stroke-width="20.052"><path d="m628.56 186.84c2.061 24.61 2.73 53.9.15 86.46-6.55 82.57-19.41 325.44-4.71 362.41 12.58 31.64 9.11 82.53-46.62 89.53-4.06.51-63.96-4.98-145.56 38.16-62.2 32.88-116.3 19.29-130.99-5.49-3.57-6.03-4.98-12.73-4.68-19.58 1.02-23.7 22.36-49.26 44.22-55.61 26.77-7.77 111.08-38.399 124.479-51.779 17.78-17.79 35.28-42.21 27.761-90.2l-59.8-334.431-9.03-50.48-6.26-35 119.56-8.49 77.63-5.52s9.71 30.53 13.85 80.02zm-195.75 19.47 195.74-19.47"/><path d="m296.17 738.33h-.02c-40.61 7.63-72.4-4.51-83.13-22.62-15.94-26.9 11.35-67 39.54-75.18 26.77-7.78 111.08-38.4 124.48-51.79 17.78-17.79 35.28-42.21 27.76-90.2l-59.8-334.42-15.29-85.49 197.19-14s5.859 21.25 10.18 47.71c.03.2.07.41.1.61m-192.18 51.17 78.78-8.29"/></g><path d="m422.283 130.788 195.546-16.393" fill="none"/><g fill="#060606"><circle cx="440.02" cy="129.301" r="14.329"/><circle cx="472.034" cy="126.617" r="14.329"/><circle cx="504.049" cy="123.933" r="14.329"/><circle cx="536.064" cy="121.249" r="14.329"/><circle cx="568.079" cy="118.565" r="14.329"/><circle cx="600.094" cy="115.881" r="14.329"/></g><path d="m436.404 210.195 195.544-16.396" fill="none"/><circle cx="454.14" cy="208.708" fill="#060606" r="14.329"/><circle cx="486.154" cy="206.024" fill="#060606" r="14.329"/><circle cx="518.17" cy="203.339" fill="#060606" r="14.329"/><circle cx="550.184" cy="200.655" fill="#060606" r="14.329"/><circle cx="582.199" cy="197.971" fill="#060606" r="14.329"/><circle cx="614.213" cy="195.286" fill="#060606" r="14.329"/><path d="m326.472 86.596 195.54-16.397" fill="none"/><circle cx="344.207" cy="85.108" fill="#060606" r="14.329"/><circle cx="376.221" cy="82.424" fill="#060606" r="14.329"/><circle cx="408.235" cy="79.74" fill="#060606" r="14.329"/><circle cx="440.249" cy="77.055" fill="#060606" r="14.329"/><circle cx="472.264" cy="74.371" fill="#060606" r="14.329"/><circle cx="504.277" cy="71.686" fill="#060606" r="14.329"/><path d="m348.59 172.003 80.612-7.144" fill="none"/><circle cx="370.703" cy="170.044" fill="#060606" r="14.329"/><circle cx="407.09" cy="166.819" fill="#060606" r="14.329"/><path d="m0 0h850.394v850.394h-850.394z" fill="none"/></svg>