<svg height="850" viewBox="0 0 850 850" width="850" xmlns="http://www.w3.org/2000/svg"><path d="m515.8 565.3 43.7-23.8 1.3.3-.8-.5 6-3.3-41.5-32.2 2.3-2.5 6.5-4.8 3.2-2.5 3-2.5 2.8-2.2 3-1.8 3.2-1.7 3.5-1.5 3.5-1.3 3.8-1 3.5-1 3.7-.7 6.8-1 6-.5 4.5-.3h2.5l21 .5 10 .3h9.5l9.5-.3 9.5-.5 10-.7 10.5-1.3 6-1 6.7-1.5 7.8-2.2 8-2.8 8.7-3 8.8-3.5 18.7-7.5 44 124.3-5.2 1.5-5.3 1.5-5 1.7-4.7 2-6.3 2.5-5.7 2.5-5.3 2.8-4.7 2.7-4.8 3.3-5 3.2-5 4-5.5 4.5-8.7 7.3-8.5 7.5-4.5 3.5-5 3.7-5.5 3.5-6.3 3.8-7.2 3.7-8.3 3.5-9.2 3.8-11 4-12.3 3.7-14 4-16 4-18 4.3-17.5 2.2-18 2.3-20 2.2-15.2 1.5-13.8 1.3-5.7.2h-8.3l-2.2-.5-2-.7-1.5-1-1.5-1-1.3-1-1-1.5-.7-1.3-.8-1.5-.7-1.5-.5-1.5-.3-1.5v-3l.5-2.7.3-1.3.5-1.2-6 .5h-9l-2.5-.5-1.8-.8-1.7-.7-1.5-1.3-1.3-1.2-1-1.3-1-1.5-.5-1.5-.7-1.5-.3-1.5-.2-1.5-.3-1.5v-1.5l.3-1.5.2-1.5.5-1.2.8-1-8.3.7-6.7.5h-6.8l-1.2-.2-1.8-.8-1.7-1-1.5-1.2-1.3-1-1.2-1.5-.8-1.5-1-1.5-.5-1.5-.5-1.8v-5l.5-1.7.5-1.5.5-1.5 1-1.5 1.8 1.2 18.2-9.7 2-.5-.7-.3z" fill="#ffeec8"/><path d="m593.5 188.3v38.3h-523v-38.3l.3-3.8.5-3.8h83v20.5h28.5v-20.5h37.8v20.8h28.4v-20.8h102.8v20.8h28.2v-20.8h212.8l.5 3.8zm-16.7 14.2v-20.8h-28.3v20.8zm-65-.2v-20.8h-28.3v20.8zm-66.3-.3v-20.8h-28.3v20.8zm-131.7-.2v-20.8h-28.3v20.8zm-196.8-.3v-20.8h-28.2v20.8z" fill="#ed1d31"/><path d="m592.8 180.8h-410v-.3h-28.5v.3h-83l.7-2.5.5-2.3 2-4.7 2.5-4.8 3.3-4.5 3.5-4.5 4.2-4.5 4.8-4.2 5.2-4.3 5.8-4 6.2-4 6.8-4 7-3.7 7.7-3.5 8-3.5 8.3-3.3 8.7-3.2 9-3 9.5-3 9.8-2.8 10-2.5 10.2-2.2 10.5-2.3 11-2 11-2 11.3-1.5 11.5-1.5 11.5-1.2 11.7-1 12-.8 12-.5 12.3-.5h24.5l12.2.5 12 .5 12 .8 11.8 1 11.7 1.2 11.3 1.5 11.2 1.5 11.3 2 10.7 2 10.5 2.3 10.3 2.2 10.2 2.5 9.8 2.8 9.2 3 9 3 8.8 3.2 8.5 3.3 8 3.5 7.5 3.5 7 3.7 6.7 4 6.3 4 5.7 4 5.3 4.3 4.7 4.2 4.3 4.5 3.7 4.5 3 4.5 2.5 4.8 2 4.7.8 2.3zm-16 1v20.7h-28.3v-20.7z" fill="#ed1d31"/><path d="m566 538-6 3.3-39.2-31.3 2-2.2v-3.3l1.7 1.3z" fill="#fff"/><path d="m563.3 226.5v1.8l-1.5.7-3.5 2.8-5.3 4.2-3.2 2.5-3.3 3.3-3.2 3.2-3.3 3.8-3.2 4-3.3 4.2-2.7 4.5-2.5 4.8-2.3 5-1.7 5.2h-383l-1.5-5.2-2.3-5.3-2.5-4.7-2.7-4.8-3.3-4.2-3.2-4.3-3.3-3.7-3.5-3.3-3.2-3.2-3-2.8-5.5-4.2-3.8-2.8-1.2-1v-.5z" fill="#ed1d31"/><path d="m560.8 541.8-1.3-.3.5-.2z" fill="#fff"/><path d="m560 541.3-.5.2-104-13.2-58-7.5-18.5-52.8-18-52h41.8l118 94zm-.5.2-43.7 23.8-51.5 13.5-9.3-47.5.5-3z" fill="#ffffc2"/><path d="m141.3 276.5h383l-.5 3-.5 3-.5 3.3v218.7l-114-88.5h24.5v-59.5h-198v59.5h70.7l-45.2 58.3-13.5 17.5 164.2 127.5-1 1.5-.5 1.5-.5 1.5-.5 1.7v5l.5 1.8.5 1.5 1 1.5.8 1.5 1.2 1.5 1.3 1 1.5 1.2 1.7 1 1.8.8 1.2.2h6.8l6.7-.5 8.3-.7-.8 1-.5 1.2-.2 1.5-.3 1.5v1.5l.3 1.5.2 1.5.3 1.5.7 1.5.5 1.5 1 1.5 1 1.3 1.3 1.2 1.5 1.3 1.7.7 1.8.8 2.5.5h9l6-.5-.5 1.2-.3 1.3-.5 2.7v3l.3 1.5.5 1.5.7 1.5.8 1.5.7 1.3 1 1.5 1.3 1 1.5 1 1.5 1 2 .7 2.2.5h8.3l5.7-.2 13.8-1.3 15.2-1.5.3 1.3v80.7l-380-1v-473.7l-.3-2.8-.2-3-.3-2.7z" fill="#ed1d31"/><path d="m522.8 504.5v3.3l-2 2.2-118-94h6z" fill="#fff"/><path d="m464.3 578.8 51.5-13.5-83 44.7-2-.7-1.8-1.3-1.5-1.2-1-1.3-1-1.7-.5-1.5-.2-1.8-.3-1.7.3-1.8.5-1.7.5-1.5 1-1.8 1.2-1.2 1.3-1.3 1.5-1.2 2-.8 3.7-1.2 7-2z" fill="#ffeec8"/><path d="m511.8 181.5v20.8h-28.3v-20.8z" fill="#ed1d31"/><path d="m455 531.3 9.3 47.5-20.8 5.5-7 2-3.7 1.2-2 .8-1.5 1.2-1.3 1.3-1.2 1.2-1 1.8-.5 1.5-.5 1.7-.3 1.8.3 1.7.2 1.8.5 1.5 1 1.7 1 1.3 1.5 1.2 1.8 1.3 2 .7-1.3.8-4.2.7-3.8 1.3-3.2 1.2-2.8 1.3-3.7 2-1.3.7-1 1.3-164.2-127.5 13.5-17.5 1.2 1 113-6 4-1.3 18.5 52.8 58 7.5z" fill="#ffffc2"/><path d="m445.5 181.3v20.7h-28.2v-20.7z" fill="#ed1d31"/><path d="m433.3 356.5v59.5h-24.5l-64.3-49.7-38.5 49.7h-70.7v-59.5z" fill="#231f20"/><path d="m431.5 610.8-18.2 9.7-1.8-1.2 1-1.3 1.3-.7 3.7-2 2.8-1.3 3.2-1.2 3.8-1.3z" fill="#fff"/><path d="m408.8 416h-6l-57.5-45.7 15.7 45.7h-55l38.5-49.7z" fill="#ffffc2"/><path d="m402.8 416h-41.8l-15.7-45.7z" fill="#ffffc2"/><path d="m380 180.8v20.7h-28.2v-20.7z" fill="#ed1d31"/><path d="m361 416 18 52-4 1.3-113 6-1.2-1 45.2-58.3z" fill="#ffffc2"/><path d="m313.8 181v20.8h-28.3v-20.8zm-64.8-.2v20.7h-28.5v-20.7zm-66.2 0v20.5h-28.5v-20.5zm-65.8 0v20.7h-28.2v-20.7z" fill="#ed1d31"/><g fill="none" stroke="#231f20" stroke-linecap="round" stroke-miterlimit="10"><path d="m592.8 180.8.5 3.7.2 3.8v38.2h-523v-38.2l.3-3.8.5-3.7.7-2.5.5-2.3 2-4.7 2.5-4.8 3.3-4.5 3.5-4.5 4.2-4.5 4.8-4.2 5.2-4.3 5.8-4 6.2-4 6.8-4 7-3.7 7.7-3.5 8-3.5 8.3-3.3 8.7-3.2 9-3 9.5-3 9.8-2.8 10-2.5 10.2-2.2 10.5-2.3 11-2 11-2 11.3-1.5 11.5-1.5 11.5-1.2 11.7-1 12-.8 12-.5 12.3-.5h24.5l12.2.5 12 .5 12 .8 11.8 1 11.7 1.2 11.3 1.5 11.2 1.5 11.3 2 10.7 2 10.5 2.3 10.3 2.2 10.2 2.5 9.8 2.8 9.2 3 9 3 8.8 3.2 8.5 3.3 8 3.5 7.5 3.5 7 3.7 6.7 4 6.3 4 5.7 4 5.3 4.3 4.7 4.2 4.3 4.5 3.7 4.5 3 4.5 2.5 4.8 2 4.7.8 2.3zm-343.8 0h345m-522.7 0h149.2" stroke-width="21"/><path d="m117 276.5h432.3" stroke-width="28"/><path d="m102.3 227 1.2 1 3.8 2.8 5.5 4.2 3 2.8 3.2 3.2 3.5 3.3 3.3 3.7 3.2 4.3 3.3 4.2 2.7 4.8 2.5 4.7 2.3 5.3 1.5 5.2.7 2.8.3 2.7.2 3 .3 2.8v473.7m380-79.7v80.7m40.5-534.2-1.5.7-3.5 2.8-5.3 4.2-3.2 2.5-3.3 3.3-3.2 3.2-3.3 3.8-3.2 4-3.3 4.2-2.7 4.5-2.5 4.8-2.3 5-1.7 5.2-.5 3-.5 3-.5 3.3v218.7" stroke-width="21"/><path d="m306 416h-70.7v-59.5h198v59.5h-24.5" stroke-width="19.25"/><path d="m117 201.5h-28.2v-20.7h28.2zm65.8-20.7v20.5h-28.5v-20.8h28.5z" stroke-width="14"/><path d="m220.5 180.8h28.5" stroke-width="21"/><path d="m249 180.8v20.7h-28.5v-20.7m93.3 21h-28.3v-20.8h28.3zm66.2-21v20.7h-28.2v-20.7zm65.5 21.2h-28.2v-20.7h28.2zm66.3.3h-28.3v-20.8h28.3zm65 .2h-28.3v-20.7h28.3z" stroke-width="14"/><path d="m413.3 620.5-1.8-1.2-164.2-127.5 13.5-17.5 45.2-58.3 38.5-49.7 64.3 49.7 114 88.5 1.7 1.3 41.5 32.2" stroke-width="21"/><path d="m560.8 541.8-1.3-.3-104-13.2-58-7.5-18.5-52.8-18-52-15.7-45.7m109.7 161 9.3 47.5.2 1.2m-89.5-110.7-113 6" stroke-width="14"/><path d="m582 523.3-1.7 2.5-2 2.7-2.3 2.8-2.2 2.5-2.8 2.7-3 2.5-6.2 5.3-6.5 4.7-7 4.3-7.3 3.7-3.5 1.5-3.5 1.3-6.5 2.2-11.7 3.3-51.5 13.5-20.8 5.5-7 2-3.7 1.2-2 .8-1.5 1.2-1.3 1.3-1.2 1.2-1 1.8-.5 1.5-.5 1.7-.3 1.8.3 1.7.2 1.8.5 1.5 1 1.7 1 1.3 1.5 1.2 1.8 1.3 2 .7.7.3 2 .5h4.8l2.7-.3 96.5-15.2 73.3-32.5" stroke-width="14"/><path d="m442.3 641.3-8.3.7-6.7.5h-6.8l-1.2-.2-1.8-.8-1.7-1-1.5-1.2-1.3-1-1.2-1.5-.8-1.5-1-1.5-.5-1.5-.5-1.8v-5l.5-1.7.5-1.5.5-1.5 1-1.5 1-1.3 1.3-.7 3.7-2 2.8-1.3 3.2-1.2 3.8-1.3 4.2-.7 2-.5" stroke-width="14"/><path d="m591.5 607.8-39 18-11.7 2-29 4.2-36 5.3-17.8 2.2-15.7 1.8" stroke-width="14"/><path d="m637 624-75.7 27.5-10 1.5-24.5 3.3-30.5 3.5-14.8 1.5-13.2 1-6 .5h-9l-2.5-.5-1.8-.8-1.7-.7-1.5-1.3-1.3-1.2-1-1.3-1-1.5-.5-1.5-.7-1.5-.3-1.5-.2-1.5-.3-1.5v-1.5l.3-1.5.2-1.5.5-1.2.8-1 1-1.3" stroke-width="14"/><path d="m779.3 580.3-4.3 1-5.2 1.5-5.3 1.5-5 1.7-4.7 2-6.3 2.5-5.7 2.5-5.3 2.8-4.7 2.7-4.8 3.3-5 3.2-5 4-5.5 4.5-8.7 7.3-8.5 7.5-4.5 3.5-5 3.7-5.5 3.5-6.3 3.8-7.2 3.7-8.3 3.5-9.2 3.8-11 4-12.3 3.7-14 4-16 4-18 4.3-17.5 2.2-18 2.3-20 2.2-15.2 1.5-13.8 1.3-5.7.2h-8.3l-2.2-.5-2-.7-1.5-1-1.5-1-1.3-1-1-1.5-.7-1.3-.8-1.5-.7-1.5-.5-1.5-.3-1.5v-3l.5-2.7.3-1.3.5-1.2.7-.8.8-1m57-157.2 6.5-4.8 3.2-2.5 3-2.5 2.8-2.2 3-1.8 3.2-1.7 3.5-1.5 3.5-1.3 3.8-1 3.5-1 3.7-.7 6.8-1 6-.5 4.5-.3h2.5l21 .5 10 .3h9.5l9.5-.3 9.5-.5 10-.7 10.5-1.3 6-1 6.7-1.5 7.8-2.2 8-2.8 8.7-3 8.8-3.5 18.7-7.5 1.8-.7" stroke-width="14"/></g></svg>