<svg height="850.394" viewBox="0 0 850.394 850.394" width="850.394" xmlns="http://www.w3.org/2000/svg"><path d="m756.94 481.36c.1 31.529-.681 63.76-21.471 88.88-20.899 25.24-50.04 40.859-80.439 52.41-47.82 18.17-93.25 32.13-144.21 36.739-75.15 6.79-187 16.311-283.041-30.81-36.7-18-68.45-49.24-91.32-78.62-33.04-42.46-53.92-91.76-53.92-153.6 0 0-1.99-49.09 40.13-78.53 21.01-14.68 52.56-26.6 68.91-65.76 7.33-17.55 22.16-35.02 38.32-43.84 44.99-24.55 97.99-29.16 136.66-26.17 68.29 5.29 123.52 20.66 150.8 31.55 88.12 35.19 123.729 55.81 172.909 103.35 49.802 48.121 66.462 95.271 66.672 164.401z" fill="#ffeec8"/><g fill="none"><path d="m191.58 252.07c7.33-17.55 22.16-35.02 38.32-43.84 44.99-24.55 97.99-29.16 136.66-26.17 68.29 5.29 123.52 20.66 150.8 31.55 88.12 35.19 123.729 55.81 172.909 103.35 49.801 48.12 66.461 95.27 66.671 164.4.1 31.529-.681 63.76-21.471 88.88-20.899 25.24-50.04 40.859-80.439 52.41-47.82 18.17-93.25 32.13-144.21 36.739-75.15 6.79-187 16.311-283.041-30.81-36.7-18-68.45-49.24-91.32-78.62-33.04-42.46-53.92-91.76-53.92-153.6 0 0-1.99-49.09 40.13-78.53 21.011-14.679 52.561-26.599 68.911-65.759zm-14.54 188.06c6.61-20.36 21.77-40.74 43.49-45.31m-22.88 65.92c6.62-20.36 21.77-40.74 43.49-45.3m314.57 70.23c6.61-20.36 21.76-40.74 43.49-45.3m-22.88 65.91c6.609-20.36 21.77-40.74 43.489-45.3m-170.579-206.48c6.609-20.36 21.77-40.74 43.489-45.3m-22.869 65.91c6.61-20.36 21.771-40.73 43.49-45.3" stroke="#000" stroke-width="21.745"/><path d="m0 0h850.394v850.394h-850.394z"/></g></svg>