<svg height="850.394" viewBox="0 0 850.394 850.394" width="850.394" xmlns="http://www.w3.org/2000/svg"><path d="m203.61 392.68c15.42-21.77 51.78-38.96 97.71-46.18 15.29-2.42 31.65-3.72 48.64-3.72 85.25 0 154.38 32.79 154.38 73.25l-.03 1.39c-1.56 39.78-70.079 71.82-154.35 71.82-79.91 0-145.66-28.82-153.56-65.73-.53-2.46-.8-4.95-.8-7.48 0-8.17 2.82-16.02 8.01-23.35z" fill="#f6cc4b"/><path d="m504.31 417.42-1.829 88.65c-2.19 23-47.971 43.54-57.431 46.27-33.34 9.641-61.61 14.91-114.02 11.37-45.89-3.09-94.6-19.11-118.78-43.29-7.61-7.6-13.35-13.42-15.85-24.56v-72.35c7.9 36.91 73.65 65.73 153.56 65.73 84.27 0 152.79-32.04 154.35-71.82z" fill="#ed107f"/><path d="m450.57 649.52c0 46.75 71.81 84.641 160.399 84.641 80.931 0 147.87-31.62 158.851-72.72 1.27 4.38 1.92 8.85 1.92 13.399 0 3.771-.44 7.49-1.32 11.141-10.37 43.34-80.49 76.85-165.46 76.85-92.11 0-166.77-39.39-166.77-87.99 0-11.26 4-22.01 11.3-31.91l1.55.08a45.537 45.537 0 0 0 -.47 6.509z" fill="#ef947d"/><path d="m769.82 661.44c-10.98 41.1-77.92 72.72-158.851 72.72-88.59 0-160.399-37.891-160.399-84.641 0-2.189.16-4.359.47-6.51 6.3-43.7 75.49-78.13 159.93-78.13 88.601 0 160.431 37.9 160.431 84.64a46.055 46.055 0 0 1 -1.581 11.921zm-525.09-578.08c69.56 13.37 112.68 93.04 96.35 177.92-6.33 32.94-20.68 61.82-39.94 84.06l.18 1.16c-45.93 7.22-82.29 24.41-97.71 46.18-5.98-.11-11.99-.74-18.02-1.89-69.53-13.39-112.67-93.03-96.34-177.94 16.34-84.9 85.94-142.87 155.48-129.49zm65.24 166.67c11.74-73.07-22.31-139.29-76.07-147.93-53.77-8.64-106.85 43.6-118.59 116.64-11.74 73.07 22.32 139.3 76.09 147.92 53.76 8.64 106.84-43.59 118.57-116.63z" fill="#ef947d"/><path d="m233.9 102.1c53.76 8.64 87.81 74.86 76.07 147.93-11.73 73.04-64.81 125.27-118.57 116.63-53.77-8.62-87.83-74.85-76.09-147.92 11.74-73.04 64.82-125.28 118.59-116.64z" fill="#fff"/><g fill="none"><g><g stroke="#000"><path d="m309.97 250.03c-11.73 73.04-64.81 125.27-118.57 116.63-53.77-8.62-87.83-74.85-76.09-147.92 11.74-73.04 64.82-125.28 118.59-116.64 53.76 8.64 87.81 74.86 76.07 147.93z" stroke-width="14"/><path d="m504.34 416.03c0 .46-.01.93-.03 1.39-1.56 39.78-70.079 71.82-154.35 71.82-79.91 0-145.66-28.82-153.56-65.73-.53-2.46-.8-4.95-.8-7.48 0-8.17 2.82-16.02 8.01-23.35 15.42-21.77 51.78-38.96 97.71-46.18 15.29-2.42 31.65-3.72 48.64-3.72 85.25 0 154.38 32.79 154.38 73.25z" stroke-width="21"/><path d="m196.4 495.86c2.5 11.14 8.24 16.96 15.85 24.56 24.18 24.18 72.89 40.2 118.78 43.29 52.41 3.54 80.68-1.729 114.02-11.37 9.46-2.729 55.24-23.27 57.431-46.27l1.829-88.65.03-1.39m-307.94 79.83v.75l-.5-3.29c.15.88.31 1.73.5 2.54zm0-72.35v72.35m9.34-103.15c-.71 0-1.42-.01-2.13-.03-5.98-.11-11.99-.74-18.02-1.89-69.53-13.39-112.67-93.03-96.34-177.94 16.34-84.9 85.94-142.87 155.48-129.49 69.56 13.37 112.68 93.04 96.35 177.92-6.33 32.94-20.68 61.82-39.94 84.06m149.9 297.67c-.31 2.15-.47 4.32-.47 6.51 0 46.75 71.81 84.641 160.399 84.641 80.931 0 147.87-31.62 158.851-72.72a46.016 46.016 0 0 0 1.58-11.921c0-46.739-71.83-84.64-160.431-84.64-84.439 0-153.629 34.43-159.929 78.13z" stroke-width="21"/><path d="m449.49 642.93c-7.3 9.9-11.3 20.65-11.3 31.91 0 48.601 74.659 87.99 166.77 87.99 84.97 0 155.09-33.51 165.46-76.85" stroke-width="21"/><path d="m770.42 685.98c.88-3.65 1.32-7.37 1.32-11.141 0-4.55-.65-9.02-1.92-13.399-.04-.16-.09-.32-.141-.48" stroke-width="20.426"/></g><path d="m382.16 701.8-54.16 46.2" stroke="#010101" stroke-linecap="round" stroke-linejoin="round" stroke-width="13.325"/><path d="m382.16 701.8-29.93-44.96m29.93 44.96-173.21 7.57" stroke="#010101" stroke-linecap="round" stroke-linejoin="round" stroke-width="14"/></g><path d="m0 0h850.394v850.394h-850.394z"/></g></svg>