<svg height="850.394" viewBox="0 0 850.394 850.394" width="850.394" xmlns="http://www.w3.org/2000/svg"><g fill="#f6cc4b"><path d="m495.75 152.78c114.43-29.16 265.69 17.22 258.4 194.6 0 0-8.99 122.94-61.7 192.601-12.15-6.891-34.7-21.03-61.51-38.351l.01-.01c43.069-57.98 58.29-150.07 48.29-201.03-8.78-44.71-48.76-106.49-145.851-92.89-43.96 6.15-63.8 51.04-70.649 83.22l-.471.1c-7.81-35.79-21.13-67.4-40.939-91.86l.75-.6c18.52-22.04 42.78-37.91 73.67-45.78zm235 148.28 5.05-13.88-14.54 2.57-14.55 2.56 9.5 11.32 9.49 11.31zm-23.59 169.52-7.38-12.8-7.391-12.79-7.389 12.79-7.37 12.8zm-94.87-287.91-7.37-12.79-7.39-12.79-7.38 12.79-7.381 12.79z"/><path d="m630.94 501.63c26.81 17.32 49.359 31.46 61.51 38.351 45.39 25.72 66.87 38.8 60.51 68.069-7.56 34.8-44.36 19.17-44.36 19.17s-12.02-6.97-30.88-18.18c-3.67-2.18-7.84-4.67-12.439-7.44-15.9-9.54-36.99-22.369-60.61-36.949-54.07-33.36-121.4-75.91-170.05-109.301-23.5-16.13-42.64-30.12-53.82-39.919-5.19-4.54-8.67-8.18-10.07-10.71-15.62-28.18-13.2-54.55-2.07-75.79l.28.15c29.08-10.28 53.22 22.52 69.19 39.56.92.99 1.82 1.92 2.69 2.79 5.01 5.02 27.43 21.11 57.18 41.59 39.239 27.009 91.239 61.649 132.939 88.609zm-14.48 21.05 5.05-13.87-14.54 2.561-14.55 2.57 9.5 11.31 9.49 11.31zm-97.29-59.43 5.05-13.87-14.54 2.561-14.55 2.56 9.49 11.32 9.5 11.3z"/><path d="m604.67 564.65c23.62 14.58 44.71 27.409 60.61 36.949-33.92 50.341-128.27 107.071-234.81 109.431-106.36-2.04-194.479-52.49-228.42-102.86 16.62-10.61 37.18-23.9 59.27-38.29 0 0 62.02 77.74 168.96 80.97-2.21.07-4.44.11-6.68.11h13.56c-2.311 0-4.61-.04-6.88-.11 107.28-3.34 174.39-86.2 174.39-86.2zm-36.33 81.91 5.04-13.869-14.53 2.56-14.55 2.57 9.49 11.31 9.5 11.32zm-204.07 18.98 5.04-13.88-14.53 2.56-14.55 2.57 9.49 11.32 9.5 11.3z"/><path d="m434.62 455.35v.011c-29.71 20.25-108.14 72.109-173.3 114.52-22.09 14.39-42.65 27.68-59.27 38.29-14.71 9.39-26.33 16.67-33.19 20.75-17.37 10.311-28.43 16.73-28.43 16.73s-33.89 14.39-40.85-17.641c-5.86-26.95 13.93-39 55.71-62.68 1.84-1.04 4.39-2.57 7.54-4.521 12.38-7.659 34.12-21.8 59.38-38.47 57.95-38.24 134.39-89.81 158.59-106.91 11.18 9.801 30.32 23.791 53.82 39.921zm-41.19-1.21 5.04-13.88-14.54 2.57-14.54 2.56 9.49 11.32 9.5 11.3zm-151.26 105.7 5.04-13.88-14.54 2.57-14.54 2.56 9.49 11.32 9.5 11.3zm275.33-230.32c15.23 21.91 13.82 50.18-19.5 83.5-29.75-20.48-52.17-36.57-57.18-41.59-.87-.87-1.771-1.8-2.69-2.79l2.021-.67c18.859-21.04 44.6-48.79 74.729-38.14z"/><path d="m309.84 206.54c-97.08-13.59-137.06 48.19-145.84 92.89-11.13 56.69 3.29 168 58.21 222.91-25.26 16.67-47 30.811-59.38 38.47-35.56-35.56-54.31-96.779-63.97-144.75l13.92-3.84 14.23-3.91-10.51-10.37-10.51-10.38-3.73 14.3-3.53 13.56c-7.83-39.07-9.64-69.19-9.64-69.19-7.29-177.38 143.96-223.76 258.39-194.61 30.89 7.87 55.24 24.54 73.85 47.54 19.81 24.46 33.13 56.07 40.939 91.86 2.83 12.96 4.94 26.47 6.37 40.38.5 4.82 24.37-27.87 40.82-11.42 3.03 3.03 5.73 6.21 8.04 9.54l-2.62.31c-30.13-10.65-55.87 17.1-74.729 38.14l-2.021.67c-15.97-17.04-40.11-49.84-69.19-39.56l-.28-.15c1.45-2.76 3.05-5.44 4.77-8.02 2.1-3.14 4.55-6.13 7.39-8.98l.93-.06c-2.669-28.64-14.989-97.36-71.909-105.33zm95.02 48.21 5.05-13.87-14.54 2.56-14.55 2.57 9.5 11.31 9.49 11.31zm-215.35-33.88-7.38-12.79-7.39-12.78-7.38 12.78-7.38 12.79z"/></g><path d="m127.01 408.31-14.23 3.91-13.92 3.84c-.04-.21-.09-.43-.13-.64l3.53-13.56 3.73-14.3 10.51 10.38z"/><path d="m98.73 415.42c.04.21.09.43.13.64l-.32.09zm637.07-128.24-5.05 13.88-5.05 13.88-9.49-11.31-9.5-11.32 14.55-2.56zm-36.02 170.6 7.38 12.8h-29.53l7.37-12.8 7.39-12.79zm-78.27 51.03-5.05 13.87-5.05 13.88-9.49-11.31-9.5-11.31 14.55-2.57zm-16.59-338.93 7.37 12.79h-29.52l7.38-12.79 7.38-12.79zm-31.54 462.81-5.04 13.87-5.05 13.89-9.5-11.32-9.49-11.31 14.55-2.57zm-49.16-183.31-5.05 13.87-5.05 13.87-9.5-11.3-9.49-11.32 14.55-2.56zm-114.31-208.5-5.05 13.87-5.05 13.88-9.49-11.31-9.5-11.31 14.55-2.57zm-11.44 199.38-5.04 13.88-5.05 13.87-9.5-11.3-9.49-11.32 14.54-2.56zm-29.16 211.4-5.04 13.88-5.05 13.87-9.5-11.3-9.49-11.32 14.55-2.57zm-122.1-105.7-5.04 13.88-5.05 13.87-9.5-11.3-9.49-11.32 14.54-2.56zm-65.08-337.88 7.38 12.79h-29.53l7.38-12.79 7.38-12.78z"/><g fill="none" stroke="#000"><g stroke-width="21.869"><path d="m380.82 311.93a59.788 59.788 0 0 0 -7.39 8.98 89.623 89.623 0 0 0 -4.77 8.02c-11.13 21.24-13.55 47.61 2.07 75.79 1.4 2.53 4.88 6.17 10.07 10.71 11.18 9.8 30.32 23.79 53.82 39.919 48.65 33.391 115.98 75.941 170.05 109.301 23.62 14.58 44.71 27.409 60.61 36.949 4.6 2.771 8.77 5.261 12.439 7.44 18.86 11.21 30.88 18.18 30.88 18.18s36.801 15.63 44.36-19.17c6.36-29.27-15.12-42.35-60.51-68.069-12.15-6.891-34.7-21.03-61.51-38.351-41.7-26.96-93.7-61.6-132.94-88.61-29.75-20.48-52.17-36.57-57.18-41.59-.87-.87-1.771-1.8-2.69-2.79-15.97-17.04-40.11-49.84-69.19-39.56m71.211 38.891c18.859-21.04 44.6-48.79 74.729-38.14"/><path d="m168.86 628.92c-17.37 10.311-28.43 16.73-28.43 16.73s-33.89 14.39-40.85-17.641c-5.86-26.95 13.93-39 55.71-62.68 1.84-1.04 4.39-2.57 7.54-4.521 12.38-7.659 34.12-21.8 59.38-38.47 57.95-38.24 134.39-89.81 158.59-106.91h.01"/><path d="m434.62 455.36c-29.71 20.25-108.14 72.109-173.3 114.52-22.09 14.39-42.65 27.68-59.27 38.29-14.71 9.39-26.33 16.67-33.19 20.75m-6.03-68.11c-35.56-35.56-54.31-96.779-63.97-144.75-.04-.21-.09-.43-.13-.64-7.83-39.07-9.64-69.19-9.64-69.19-7.29-177.38 143.96-223.76 258.39-194.61 30.89 7.87 55.24 24.54 73.85 47.54 19.81 24.46 33.13 56.07 40.939 91.86 2.83 12.96 4.94 26.47 6.37 40.38.5 4.82 24.37-27.87 40.82-11.42 3.03 3.03 5.73 6.21 8.04 9.54 15.23 21.91 13.82 50.18-19.5 83.5"/><path d="m382.49 324.32s-.02-4.79-.74-12.45c-2.67-28.64-14.99-97.36-71.91-105.33-97.08-13.59-137.06 48.19-145.84 92.89-11.13 56.69 3.29 168 58.21 222.91m208.26 188.69c-106.36-2.04-194.479-52.49-228.42-102.86m228.42 102.86c-2.29.04-4.58.069-6.87.069h13.56a291.4 291.4 0 0 1 -6.69-.069zm234.81-109.43c-33.92 50.34-128.27 107.07-234.81 109.43m-.19-60.18c-106.94-3.229-168.96-80.97-168.96-80.97m168.96 80.97c-2.21.07-4.44.11-6.68.11h13.56c-2.31 0-4.61-.04-6.88-.11zm174.39-86.2s-67.11 82.859-174.39 86.199"/></g><path d="m692.39 444.99 7.39 12.79 7.38 12.8h-29.53l7.37-12.8zm-593.66-29.57 3.53-13.56 3.73-14.3 10.51 10.38 10.51 10.37-14.23 3.91-13.92 3.84-.32.09zm76.01-220.12 7.39 12.78 7.38 12.79h-29.53l7.38-12.79z" stroke-width="7.29"/><path d="m692.45 539.98c52.71-69.66 61.7-192.601 61.7-192.601 7.29-177.38-143.971-223.76-258.4-194.6-30.89 7.87-55.15 23.74-73.67 45.78" stroke-width="21.869"/><path d="m462.74 290.92c6.85-32.18 26.689-77.07 70.649-83.22 97.091-13.6 137.07 48.18 145.851 92.89 10 50.96-5.221 143.05-48.29 201.03" stroke-width="21.869"/><path d="m597.53 157.09-7.38 12.79-7.38 12.79h29.52l-7.37-12.79zm-53.23 480.73 14.55-2.57 14.53-2.56-5.04 13.87-5.05 13.89-9.5-11.32zm-174.91-192.43 14.54-2.56 14.54-2.57-5.04 13.88-5.05 13.87-9.5-11.3zm125.74 9.11 14.55-2.56 14.54-2.56-5.05 13.87-5.05 13.87-9.5-11.3zm97.29 59.44 14.55-2.57 14.54-2.56-5.05 13.87-5.05 13.88-9.49-11.31zm-374.29 37.15 14.54-2.56 14.54-2.57-5.04 13.88-5.05 13.87-9.5-11.3zm162.69-305.08 14.55-2.57 14.54-2.56-5.05 13.87-5.05 13.88-9.49-11.31zm325.89 46.3 14.55-2.56 14.54-2.57-5.05 13.88-5.05 13.88-9.49-11.31zm-366.48 364.48 14.55-2.57 14.53-2.56-5.04 13.88-5.05 13.87-9.5-11.3z" stroke-width="7.29"/></g><path d="m0 0h850.394v850.394h-850.394z" fill="none"/></svg>