<svg height="850.394" viewBox="0 0 850.394 850.394" width="850.394" xmlns="http://www.w3.org/2000/svg"><path d="m707.7 680.85c6 5.261 6.59 14.4 1.33 20.4l-1.2 1.35c-5.28 6-14.42 6.61-20.42 1.33l-85.74-75.34-83.13-73.05-.45-.54a98.591 98.591 0 0 0 11.5-11.12 97.303 97.303 0 0 0 8.82-11.689l.42.27 60.689 53.33z" fill="#7a7878"/><g fill="#ffffc2"><path d="m508.54 418.82c33.2 29.17 36.47 79.74 7.28 112.96-29.181 33.22-79.761 36.47-112.96 7.31-33.22-29.189-36.48-79.77-7.29-112.979 29.18-33.211 79.75-36.481 112.97-7.291z"/><path d="m518.54 555.54 83.13 73.05-1.42 1.62v134.3h-452.16v-687.55h306.55v160.94h145.61v347.06l-.73.83-60.689-53.33-.42-.27c25.84-40.07 19.149-94.091-17.74-126.51-40.64-35.71-102.52-31.72-138.21 8.91-35.71 40.63-31.72 102.521 8.91 138.22 36.55 32.11 90.3 32.101 126.72 2.19z"/><path d="m454.64 76.96 145.61 160.94h-145.61z"/></g><g fill="none" stroke="#231f20"><path d="m600.25 584.96v-347.06l-145.61-160.94h-306.55v687.55h452.16v-134.3" stroke-width="21"/><path d="m454.64 75.87v162.03h145.61" stroke-width="21"/><path d="m518.09 555c-36.42 29.91-90.17 29.92-126.72-2.19-40.63-35.699-44.62-97.59-8.91-138.22 35.69-40.63 97.57-44.62 138.21-8.91 36.89 32.419 43.58 86.44 17.74 126.51a97.33 97.33 0 0 1 -8.82 11.689 98.598 98.598 0 0 1 -11.5 11.121z" stroke-width="26.276"/><path d="m508.54 418.82c33.2 29.17 36.47 79.74 7.28 112.96-29.181 33.22-79.761 36.47-112.96 7.31-33.22-29.189-36.48-79.77-7.29-112.979 29.18-33.211 79.75-36.481 112.97-7.291z" stroke-width="17.517"/><path d="m538.83 532.46 60.689 53.33 108.181 95.06c6 5.261 6.59 14.4 1.33 20.4l-1.2 1.35c-5.28 6-14.42 6.61-20.42 1.33l-85.74-75.34-83.13-73.05" stroke-width="21"/></g><path d="m0 0h850.394v850.394h-850.394z" fill="none"/></svg>