<svg height="850" viewBox="0 0 850 850" width="850" xmlns="http://www.w3.org/2000/svg"><path d="m678.4 413.8 5.5 19-.3 4.7-19.2-.7-20.5-.3h-40.3l-31 .5-12.2.5-5-2.2-6.8-3.3-16.2-8.2-15.5-8.3-6-2.7-2.3-1-1.7-.5-2-.5-2-.3h-3.8l-.2-1.5 21-97.7 25.5-13.8 21.2-11.2 20-10.8 2.8-1.2 2 3 2 3 2.2 2.7 2.3 2.8 2.5 2.5 2.5 2.2 2.7 2.3 2.5 2 3 2 2.8 1.7 3 1.5 3.2 1.5 3 1.3 3.3 1 3.5.7 3.2.8 5.3.5 5.2.2 5-.2 5-.8 5.5-1.5 5.5-1.7 5.8-.5 6.2-.3 6.8.3 7.5.2 8 1 8.2 1.5 8.8 2 9.2 2.5 1.3.5 1.2.8 1.3 1 1.5 1.2 2.5 3 2.7 3.8 2.5 4.5 2.5 5 2.8 6 2.5 6.5 2.2 7.2 2.5 7.5 2.3 8.3 2.2 8.7 2 9.3 2.3 9.5 1.7 10 1.8 10.2h-.3l-84 2z" fill="#a9d7f3"/><path d="m197.9 389.5 2.5-3.5 3.2-4 6.5-7.5 5.5-6 5-5 4.3-4 2.2-1.5 2-1.2 2-1.3 2-1 2.3-.5 2.2-.7 2.3-.3 2.5-.2h2.2l3 .5 9.5 1 13.5 1.7 18 2 22.3 2 13 1 14.2 1 15.3.8 16.5.7 17.7.8 19 .2 8.8.3 3.5.2 3.2-.2 3-.5 3-1 3.3-1.3 3.7-2.2 8-5 9.3-5.5.2.2 18 52-4.5 1.5-2.5-.5-1.2.3h-1.3l-1 .5-.7.5-.5.5-.5.7-.3 1v2.3l.5 1.5 1.3 3.2 2.2 4 3 4.5-12 3.5-153.7-24-33.8-5.2-9.7-2.8-4.3-1-3.7-.5-4-.5h-3.3l-2.7.5-2 .8-2.3 1.2-2 1.5-5.2 4.8-2.5 2.5-2.3 2.5-2.2 2.5-2.5 2.5-2.5 2.2-1.5 1-1.3.8-1.5.7-1.7.5-1.8.3h-1.7l-2.3-.3-2.2-.5-2-.7-2-1.3-1.3-3.5-.5-3.5-.5-3v-2.7l.5-2.8.8-2.5 1-2.5z" fill="#ffeec8"/><path d="m470.6 401.5-18-52-.2-.2 15.2-9 17-9.5 35.3-19.5-21 97.7.2 1.5-3.7.3-3 .5-2.8.5-1 .2-1.5.8-5.2-2.8-5.5-3-5.5-2.5-2.5-1-2.3-.5z" fill="#a9d7f3"/><path d="m653.4 303.5.2 1.5-5 .8-5 .2-5.2-.2-5.3-.5-3.2-.8-3.5-.7-3.3-1-3-1.3-3.2-1.5-3-1.5-2.8-1.7-3-2-2.5-2-2.7-2.3-2.5-2.2-2.5-2.5-2.3-2.8-2.2-2.7-2-3-2-3-2.3-3.5-2-3.8-1.7-4-1.8-4-1.5-4.2-1.2-4.3-1.3-4.5-.7-4.5-.8-4.5-.5-4.7-.5-4.8-.2-4.7.2-5 .3-5 .5-4.8.7-5.2.8-4.5 1-4.5 1.2-4.5 1.3-4.5 1.5-4.3 1.7-4 1.8-4.2 2-3.8 2-3.7 2.2-3.8 2.3-3.5 2.5-3.5 2.7-3.2 2.5-3 2.8-3 3-2.8 3-2.5 3-2.5 3.2-2.2 3-2 3.5-2 3.3-1.8 3.5-1.5 3.2-1.2 3.5-1 3.8-1 3.5-.5 3.5-.5 3.7-.3h3.8l3.5.3 3.7.5 3.8.7 3.5.8 3.5 1.2 3.5 1.5 3.2 1.5 3.3 1.8 3 2 3 2 2.7 2.5 2.8 2.5 2.7 2.5 2.5 3 2.3 3 2.2 3 2.3 3.2 2 3.5 1.7 3.5 1.8 3.8 1.5 3.7 1.5 3.8 1.2 4 1.3 4.2.7 4 .8 4.3.7 4.5.5 4.2.3 4.5v9l-.3 4.8-.5 4.7-.7 4.5-1.3 6.8-1.7 6.5-2 6.5-2.3 6-2.7 6-3 5.5-3 5.5-3.5 5-3.8 4.7-4 4.3-4.2 4.2-4.3 3.8-4.5 3.2-4.7 3-4.8 2.5-5 2.3-6.2.7zm-387.8 92.3 7.5 2 8.3 1.7 4.5.5 4.5.8 4.5.2h4.5l153.7 24-9 2.8-9.7 2.5-9.8 2.2-10 2-9.5 1.8-8.7 1.2-4.3.3h-7.2l-3.3-.3-10.2-1.7-13.3-2.5-31.2-6.3-30.3-6.5-20.7-4.2-4.3 4.5-3.2 3.2-2.8 2.3-2.5 2-2.5 1.5-3.2 2-9.3 5.7-1.5.8-1.7.5-1.8.5h-3.5l-2-.3-4-.7-4.2-1.5-4.3-2-4.2-2.3-4-2.5-4-2.5-3.5-2.5-6.3-5-4.2-3.5-1.5-1.2-1-2.8 2 1.3 2 .7 2.2.5 2.3.3h1.7l1.8-.3 1.7-.5 1.5-.7 1.3-.8 1.5-1 2.5-2.2 2.5-2.5 2.2-2.5 2.3-2.5 2.5-2.5 5.2-4.8 2-1.5 2.3-1.2 2-.8 2.7-.5h3.3l4 .5 3.7.5 4.3 1zm200.5 7.2 2.3.5 2.5 1 5.5 2.5 5.5 3 5.2 2.8-5 2.2-6.5 3.3-10.5 3.2-3-4.5-2.2-4-1.3-3.2-.5-1.5v-2.3l.3-1 .5-.7.5-.5.7-.5 1-.5h1.3l1.2-.3z" fill="#ffeec8"/><path d="m683.6 437.5.3-4.7-5.5-19 .2-.3 84-2h.3l1.7 10.3 1.3 10.2 1.2 10.5 1.3 10.8.7 9.5.3 8.5-.3 7.7-.5 7-1 6-1.2 5.5-1.8 4.8-2.2 4-2.3 3.5-2.7 3-3 2.2-3.3 2-3.7 1.5-3.8 1-4 .8-4 .5h-7.5l-7.7-.3-8-.7-8.5-1-7.3-1-7.5-1.3-7.7-1.7-7.8-2-8-2.3-8-2.5-16.2-5.5-16.3-5.7-15.7-5.8-15-5.5-14-4.7-1.5-.5-2-.3h-5.5l-3.5.5-4.3.8-4.2 1.7-5.3 2.3-2.7 1.2-3 .8-3.3.7-4 .5h-4.5l-5.2-.5-1.3-.2-1.7-.3-2.8-.7-2.7-.8-5.3-2-5-2-4.2-2-3.5-1.5-2.5-1.2-1-.3h-.5l-.5.3v2.2l-.5.5-.5.5-.5.3-.8.2-1.7.3-1.8-.3-1.5-.2-1.5-.5-1.7-.8-1.8-1-1.7-1-1.5-1.2-1-1.3-1-1.5-.8-1.7-.2-1.8.2-.7.8-1-1.5-.3-1.8-.5-2-1-2-1.5-1.7-1.7-1.5-2.3-1-2.5-.3-1.2-.2-1.3.2-.7.5-.8 1-1 1.3-1-.3-.2h-1l-1.2-.8-1.3-1.2-1.2-1.5-1-1.8-.8-1.7-.2-1.8.2-.7.3-.8.5-1.2 1-1 1-1 2.5-1.8 3-2 6.5-4-.8-1.5-16.7-2.5 1-1.5 1.5-1.5 2-1.5 2-1.5 4.7-2.7 6.5-3.3 5-2.2 1.5-.8 1-.2 2.8-.5 3-.5 3.7-.3h3.8l2 .3 2 .5 1.7.5 2.3 1 6 2.7 15.5 8.3 16.2 8.2 6.8 3.3 5 2.2 12.2-.5 31-.5h40.3l20.5.3z" fill="#ffeec8"/><path d="m703.9 518.8 8.5 1 8 .7 7.7.3h7.5v1.2l-1 3-2.5 9.5-3.5 15.8-2.2 10-2.3 11.7-2.5 13.3-2.5 15-2.2 16.2-2.5 18-2.3 19.5-2 21-2 22.5-1.7 24-250.8-17.7 35-220.3 1-3.2 1.5.5 1.5.2 1.8.3 1.7-.3.8-.2.5-.3.5-.5.5-.5v-2.2l.5-.3h.5l1 .3 2.5 1.2 3.5 1.5 4.2 2 5 2 5.3 2 2.7.8 2.8.7 1.7.3 1.3.2 5.2.5h4.5l4-.5 3.3-.7 3-.8 2.7-1.2 5.3-2.3 4.2-1.7 4.3-.8 3.5-.5h5.5l2 .3 1.5.5 14 4.7 15 5.5 15.7 5.8 16.3 5.7 16.2 5.5 8 2.5 8 2.3 7.8 2 7.7 1.7 7.5 1.3z" fill="#a9d7f3"/><g fill="none" stroke="#231f20" stroke-linecap="round" stroke-miterlimit="10" stroke-width="14"><path d="m589.4 274.3-2.3-3.5-2-3.8-1.7-4-1.8-4-1.5-4.2-1.2-4.3-1.3-4.5-.7-4.5-.8-4.5-.5-4.7-.5-4.8-.2-4.7.2-5 .3-5 .5-4.8.7-5.2.8-4.5 1-4.5 1.2-4.5 1.3-4.5 1.5-4.3 1.7-4 1.8-4.2 2-3.8 2-3.7 2.2-3.8 2.3-3.5 2.5-3.5 2.7-3.2 2.5-3 2.8-3 3-2.8 3-2.5 3-2.5 3.2-2.2 3-2 3.5-2 3.3-1.8 3.5-1.5 3.2-1.2 3.5-1 3.8-1 3.5-.5 3.5-.5 3.7-.3h3.8l3.5.3 3.7.5 3.8.7 3.5.8 3.5 1.2 3.5 1.5 3.2 1.5 3.3 1.8 3 2 3 2 2.7 2.5 2.8 2.5 2.7 2.5 2.5 3 2.3 3 2.2 3 2.3 3.2 2 3.5 1.7 3.5 1.8 3.8 1.5 3.7 1.5 3.8 1.2 4 1.3 4.2.7 4 .8 4.3.7 4.5.5 4.2.3 4.5v9l-.3 4.8-.5 4.7-.7 4.5-1.3 6.8-1.7 6.5-2 6.5-2.3 6-2.7 6-3 5.5-3 5.5-3.5 5-3.8 4.7-4 4.3-4.2 4.2-4.3 3.8-4.5 3.2-4.7 3-4.8 2.5-5 2.3-5.5 1.7-5.5 1.5-5 .8-5 .2-5.2-.2-5.3-.5-3.2-.8-3.5-.7-3.3-1-3-1.3-3.2-1.5-3-1.5-2.8-1.7-3-2-2.5-2-2.7-2.3-2.5-2.2-2.5-2.5-2.3-2.8-2.2-2.7-2-3zm146.2 247.7-1 3-2.5 9.5-3.5 15.8-2.2 10-2.3 11.7-2.5 13.3-2.5 15-2.2 16.2-2.5 18-2.3 19.5-2 21-2 22.5-1.7 24-.3 6m-236.2-288.7-1 1-1 1-.5 1.2-.3.8-.2.7.2 1.8.8 1.7 1 1.8 1.2 1.5 1.3 1.2 1.2.8h1m21.5-28-4.2 2-9 4.7-6.5 4-3 2-2.5 1.8m5.7-20.5-4.7 2.7-2 1.5-2 1.5-1.5 1.5-1 1.5-.3.3-.5 1.7v2l.3 2.3.2 2 .5 2 .8 1.5 1 1 .5.2h.2m25.3-28.7-2.8.5-1 .2-1.5.8-5 2.2-6.5 3.3m16.8-7 3-.5 3.7-.3h3.8l2 .3 2 .5 1.7.5 2.3 1 6 2.7 15.5 8.3 16.2 8.2 6.8 3.3 5 2.2 12.2-.5 31-.5h40.3l20.5.3 19.2.7 11 .8 9.8.7 8.2 1.3 3.3.7 2.7.8m-215-3-3.5 1.2-8.5 3.5-5 2.3-4.7 2.2-4.5 2.5-3.5 2-1.3 1-1 1-.5.8-.2.7.2 1.3.3 1.2 1 2.5 1.5 2.3 1.7 1.7 2 1.5 2 1 1.8.5 1.5.3"/><path d="m530.1 487.8 1.3.2 5.2.5h4.5l4-.5 3.3-.7 3-.8 2.7-1.2 5.3-2.3 4.2-1.7 4.3-.8 3.5-.5h5.5l2 .3 1.5.5 14 4.7 15 5.5 15.7 5.8 16.3 5.7 16.2 5.5 8 2.5 8 2.3 7.8 2 7.7 1.7 7.5 1.3 7.3 1 8.5 1 8 .7 7.7.3h7.5l4-.5 4-.8 3.8-1 3.7-1.5 3.3-2 3-2.2 2.7-3 2.3-3.5 2.2-4 1.8-4.8 1.2-5.5 1-6 .5-7 .3-7.7-.3-8.5-.7-9.5-1.3-10.8-1.2-10.5-1.3-10.2-1.7-10.3-1.8-10.2-1.7-10-2.3-9.5-2-9.3-2.2-8.7-2.3-8.3-2.5-7.5-2.2-7.2-2.5-6.5-2.8-6-2.5-5-2.5-4.5-2.7-3.8-2.5-3-1.5-1.2-1.3-1-1.2-.8-1.3-.5-9.2-2.5-8.8-2-8.2-1.5-8-1-7.5-.2-6.8-.3-6.2.3-5.8.5-6.2.7-5 1-3.8.8-2.7.7-2.3.5m-116.2 182 1.7.3m-38.5-7.5 1.5.5 1.5.2 1.8.3 1.7-.3.8-.2.5-.3.5-.5.5-.5v-2.2l.5-.3h.5l1 .3 2.5 1.2 3.5 1.5 4.2 2 5 2 5.3 2 2.7.8 2.8.7m-17.8-30.2-3.5 1-8.5 2.7-4.7 1.8-4.5 1.7-3.8 2-1.5.8-1.2 1-.8 1-.2.7.2 1.8.8 1.7 1 1.5 1 1.3 1.5 1.2 1.7 1 1.8 1 1.7.8m95-204.8-20 10.8-21.2 11.2-25.5 13.8-35.3 19.5-17 9.5-15.2 9-9.3 5.5-8 5-3.7 2.2-3.3 1.3-3 1-3 .5-3.2.2-3.5-.2-8.8-.3-19-.2-17.7-.8-16.5-.7-15.3-.8-14.2-1-13-1-22.3-2-18-2-13.5-1.7-9.5-1-3-.5h-2.2l-2.5.2-2.3.3-2.2.7-2.3.5-2 1-2 1.3-2 1.2-2.2 1.5-4.3 4-5 5-5.5 6-6.5 7.5-3.2 4-2.5 3.5-1.5 2.5-1 2.5-.8 2.5-.5 2.8v2.7l.5 3 .5 3.5 1.3 3.5 1 2.8 1.5 1.2 4.2 3.5 6.3 5 3.5 2.5 4 2.5 4 2.5 4.2 2.3 4.3 2 4.2 1.5 4 .7 2 .3h3.5l1.8-.5 1.7-.5 1.5-.8 9.3-5.7 3.2-2 2.5-1.5 2.5-2 2.8-2.3 3.2-3.2 4.3-4.5 3-3.5"/><path d="m520.1 310.8-.2.5-21 97.7m-227 6.3 4 1 20.7 4.2 30.3 6.5 31.2 6.3 13.3 2.5 10.2 1.7 3.3.3h7.2l4.3-.3 8.7-1.2 9.5-1.8 10-2 9.8-2.2 9.7-2.5 9-2.8 12-3.5 10.5-3.2 2.8-1m12.2 66.2-35 220.3m-253.5-315.5-2.2.7-2 .5-2.3 1-1.7 1.3-1.3 1.2-1.2 1.5-.8 1.5-.7 1.5-.3 1.8-.2 1.5.2 1.7.5 1.8.5 1.5.8 1.5 1 1.5 1.2 1.5 1.3 1.2 1.5 1 2 1.3 2 .7 2.2.5 2.3.3h1.7l1.8-.3 1.7-.5 1.5-.7 1.3-.8 1.5-1 2.5-2.2 2.5-2.5 2.2-2.5 2.3-2.5 2.5-2.5 5.2-4.8 2-1.5 2.3-1.2 2-.8 2.7-.5h3.3l4 .5 3.7.5 4.3 1 9.7 2.8 7.5 2 8.3 1.7 4.5.5 4.5.8 4.5.2h6.2m-221-21 123.5 2m339.3 109.3 1.7 1.7 2.5 2.3 3 3.5 3.8 4.5 4.5 5.7 5 7 5.5 8.5 6 10 6.5 11.5 6.7 13.3 6.8 15 3.5 8 3.7 8.7 3.5 9 3.5 9.5 3.8 10.3 3.5 10.5 3.7 11 3.5 11.7m46-269.5 8.8 30.3 5.5 19"/><path d="m493.6 416.8-6.5-4-5.2-2.8-5.5-3-5.5-2.5-2.5-1-2.3-.5-2.5-.5-1.2.3h-1.3l-1 .5-.7.5-.5.5-.5.7-.3 1v2.3l.5 1.5 1.3 3.2 2.2 4 3 4.5 1.8 2.5m-228.3-32.5 27 4.3 33.8 5.2 153.7 24 11.3 2 16.7 2.5m-255.2 0 23-23m203.7-57 18 52m208 12 84-2"/></g></svg>