<svg height="850" viewBox="0 0 850 850" width="850" xmlns="http://www.w3.org/2000/svg"><path d="m364.5 372.1-4 6.3-4.5 7-10 14.2-10.5 14.3-10 13.2-11.5 15.5-3.7 5.5-1 1.8-.8 1.2-1.2 4.3-.8 4-.5 3.2-.2 2.8v3.7l.2 1.3.3 3.2.2 3.3.8 3 1.2 3 1.3 3 1.5 2.7 1.7 2.5 2 2.5 2 2 2.5 2 2.5 1.8 2.5 1.2 3 1 2.8.8h6.2l2.5-.8 3.5-1.2 6.8-2.5 2.7-1.3 2.8-1.2 2.2-1.8 2.3-1.7 2-1.8 1.7-2 3.8-4.2 3.2-4.5 3.3-4.8 3.2-4.7 3.5-4.5 1.5-1.8 1.8-1.5 2-1.2 2.2-1.3 2.5-1 2.5-.7 2.5-.5 2.8-.3 3.2.3 3.5 1 2.3.7 2.2 1.5 1.3 1 1.2 1.3 1 1.2.8 1.5.7 1.8.3 2v2.2l-.3 2.3-1 2.7-1.2 2.8-1.8 3.2-2.5 3.3-1.7 2.7-2 3.8-2.3 4.5-2.2 5.2-5 11.5-4.8 12.5-8.5 23.5-3.2 8.8-1.5 3-1 2-1 1.5-1.3 1.5-1.5 1.5-1.7 1.5-4.3 3-5.2 3.5-5.5 4-6 4.5-3.3 2.5-3 3-3.2 3-3 3.5-3.5 4-3.5 4.5-2 3-2 3.5-2 3.5-1.8 4-3.7 8.2-3.5 9.5-3 10-2.8 10.8-2.2 11.2-1.5 11.8-133.8-38.5 3-5.5 2.8-5.8 2.5-6 2.2-6.2 1.8-6.5 1.7-6.5 1.3-6.8 1.2-6.7 1-6.8.8-6.7 1.2-13.3.5-12.5.3-11.5v-10.2l-.3-8.3v-10.2l.5-10v-9l.3-8.8.5-8.7.5-4.3.5-4.2.7-4.5 1-4.3 1.3-4.7 1.5-4.5 1.7-4.8 2.3-5 6.2-5.7 6.5-6 8-7 8.5-7.3 8.8-7 4.2-3 4-2.5 3.5-2 3.3-1.5 2.5-1.7 2-1.3 1.5-.7 1.7-.5 1.8-.5 2-.3h3.5l1.7.5 1.8.3 1.5.5 1.5.7 1.2.8 1 .7 1 1 .8 1 .5 1v1l2-1.2 2.2-1 2.3-.3h2.2l2.3.5 2 .8 1.7 1.2 1.8 1.3 1.5 1.5 1 1.2 25.2-31.5.5-.5 15.5-18.7 5.8-6.8 4-4.5 2.2-2 2.3-1.2 2-.8 2.2-.5h2l2 .5 1.8.8 1.5 1.2 1.5 1.3 1.5 1.5 1.2 1.5 1 1.5.8 1.7.5 1.5.2 1.5.3 1.5-.3 2-.7 2.3-1.5 3.2-1.8 3.8-2.2 4.2z" fill="#ffeec8"/><path d="m325.5 218.1.5 146-.5 5z" fill="#ffffc2"/><path d="m350.8 342.1-4 4.5-5.8 6.8-15.5 18.7v-3l.5-5-.5-146 159.3 17.8v392.5l-148.5-32 3-3.5 3.2-3 3-3 3.3-2.5 6-4.5 5.5-4 5.2-3.5 4.3-3 1.7-1.5 1.5-1.5 1.3-1.5 1-1.5 1-2 1.5-3 3.2-8.8 8.5-23.5 4.8-12.5 5-11.5 2.2-5.2 2.3-4.5 2-3.8 1.7-2.7 2.5-3.3 1.8-3.2 1.2-2.8 1-2.7.3-2.3v-2.2l-.3-2-.7-1.8-.8-1.5-1-1.2-1.2-1.3-1.3-1-2.2-1.5-2.3-.7-3.5-1-3.2-.3v-4.2h57v-96.5h-82l.7-2.3.3-2-.3-1.5-.2-1.5-.5-1.5-.8-1.7-1-1.5-1.2-1.5-1.5-1.5-1.5-1.3-1.5-1.2-1.8-.8-2-.5h-2l-2.2.5-2 .8-2.3 1.2z" fill="#ffffc2"/><path d="m325.5 427.1 10-13.2 10.5-14.3 10-14.2 4.5-7 4-6.3v80.8h33.3v4.2l-2.8.3-2.5.5-2.5.7-2.5 1-2.2 1.3-2 1.2-1.8 1.5-1.5 1.8-3.5 4.5-3.2 4.7-3.3 4.8-3.2 4.5-3.8 4.2-1.7 2-2 1.8-2.3 1.7-2.2 1.8-2.8 1.2-2.7 1.3-6.8 2.5-3.5 1.2-2.5.8h-6.2l-2.8-.8-3-1-2.5-1.2-2.5-1.8-2.5-2-2-2-2-2.5-1.7-2.5-1.5-2.7-1.3-3-1.2-3-.8-3-.2-3.3-.3-3.2-.2-1.3v-3.7l.2-2.8.5-3.2.8-4 1.2-4.3.8-1.2 1-1.8 3.7-5.5z" fill="#ffffc2"/><path d="m671.3 256.9v411.5l-186.5-40v-392.5z" fill="#f6cc4b"/><path d="m454.8 356.4v96.5h-90.3v-80.8l2.8-4.5 2.2-4.2 1.8-3.8 1.5-3.2z" fill="#a9d7f3"/><path d="m322.8 215.6 101.5-45.5 332.2 29.5.3 380-85.5 88.8v-411.5l-186.5-21-159.3-17.8v-2.5z" fill="#f6cc4b"/><path d="m280.8 400.1v-1l-.5-1-.8-1-1-1-1-.7-1.2-.8-1.5-.7-1.5-.5-1.8-.3-1.7-.5h-3.5l-2 .3-1.8.5-1.7.5-1.5.7-2 1.3-2.5 1.7-3.3 1.5-3.5 2-4 2.5-4.2 3-8.8 7-8.5 7.3-8 7-6.5 6-6.2 5.7-2.3 5-1.7 4.8-1.5 4.5-1.3 4.7-1 4.3-.7 4.5-.5 4.2-.5 4.3-.5 8.7-.3 8.8v9l-.5 10v10.2l.3 8.3v10.2l-.3 11.5-.5 12.5-1.2 13.3-.8 6.7-1 6.8-3.2-.3h-93.3v-376h234.5v2.5h-.5v154.5l-25.2 31.5-1-1.2-1.5-1.5-1.8-1.3-1.7-1.2-2-.8-2.3-.5h-2.2l-2.3.3-2.2 1z" fill="#ffffc2"/><g fill="none" stroke="#231f20" stroke-linecap="round" stroke-miterlimit="10" stroke-width="14"><path d="m325.5 372.1v-154m345.8 38.8v411.5m-186.5-432.5v392.5m-159.8-251.8v-158.5h.5l159.3 17.8 186.5 21 78.5-50.8"/><path d="m321 216.4 1.8-.8 101.5-45.5 332.2 29.5.3 380-85.5 88.8-186.5-40-148.5-32-3.8-.8m174.3-243.7v66.7"/><path d="m184.3 591.6h-93.3v-376h234.5v2.5l.5 146-.5 5-.5 3.5m.5 52v4.8"/><path d="m267.3 495.4-.3-49.8 32.8-41.5 25.2-31.5.5-.5 15.5-18.7 5.8-6.8 4-4.5 2.2-2 2.3-1.2 2-.8 2.2-.5h2l2 .5 1.8.8 1.5 1.2 1.5 1.3 1.5 1.5 1.2 1.5 1 1.5.8 1.7.5 1.5.2 1.5.3 1.5-.3 2-.7 2.3-1.5 3.2-1.8 3.8-2.2 4.2-2.8 4.5-4 6.3-4.5 7-10 14.2-10.5 14.3-10 13.2-11.5 15.5-3.7 5.5-1 1.8-.8 1.2-1.2 4.3-.8 4-.5 3.2-.2 2.8v3.7l.2 1.3.3 3.2.2 3.3.8 3 1.2 3 1.3 3 1.5 2.7 1.7 2.5 2 2.5 2 2 2.5 2 2.5 1.8 2.5 1.2 3 1 2.8.8h6.2l2.5-.8 3.5-1.2 6.8-2.5 2.7-1.3 2.8-1.2 2.2-1.8 2.3-1.7 2-1.8 1.7-2 3.8-4.2 3.2-4.5 3.3-4.8 3.2-4.7 3.5-4.5 1.5-1.8 1.8-1.5 2-1.2 2.2-1.3 2.5-1 2.5-.7 2.5-.5 2.8-.3 3.2.3 3.5 1 2.3.7 2.2 1.5 1.3 1 1.2 1.3 1 1.2.8 1.5.7 1.8.3 2v2.2l-.3 2.3-1 2.7-1.2 2.8-1.8 3.2-2.5 3.3-1.7 2.7-2 3.8-2.3 4.5-2.2 5.2-5 11.5-4.8 12.5-8.5 23.5-3.2 8.8-1.5 3-1 2-1 1.5-1.3 1.5-1.5 1.5-1.7 1.5-4.3 3-5.2 3.5-5.5 4-6 4.5-3.3 2.5-3 3-3.2 3-3 3.5-3.5 4-3.5 4.5-2 3-2 3.5-2 3.5-1.8 4-3.7 8.2-3.5 9.5-3 10-2.8 10.8-2.2 11.2-1.5 11.8m-66.3-198.5 2-45.5 4.8-4.8 11.5-10.5 13.2-12.2 6-5 4.8-3.8 2-1.2 2.2-1 2.3-.3h2.2l2.3.5 2 .8 1.7 1.2 1.8 1.3 1.5 1.5"/><path d="m214.5 471.9 5-45 13.3-11.5 11.5-9.5 5.7-4.5 4.8-3.8 2.5-1.7 2-1.3 1.5-.7 1.7-.5 1.8-.5 2-.3h3.5l1.7.5 1.8.3 1.5.5 1.5.7 1.2.8 1 .7 1 1 .8 1 .5 1v1"/><path d="m171 641.9 3-5.5 2.8-5.8 2.5-6 2.2-6.2 1.8-6.5 1.7-6.5 1.3-6.8 1.2-6.7 1-6.8.8-6.7 1.2-13.3.5-12.5.3-11.5v-10.2l-.3-8.3v-10.2l.5-10v-9l.3-8.8.5-8.7.5-4.3.5-4.2.7-4.5 1-4.3 1.3-4.7 1.5-4.5 1.7-4.8 2.3-5 6.2-5.7 6.5-6 8-7 8.5-7.3 8.8-7 4.2-3 4-2.5 3.5-2 3.3-1.5m109.7-25.5v80.8h90.3v-96.5h-82m-47.3 70.7-1.5 69"/></g></svg>