<svg height="850" viewBox="0 0 850 850" width="850" xmlns="http://www.w3.org/2000/svg"><path d="m407.6 304.3 2.3-5.5 2.5-5.7 5.5-12.3 6.5-12.2 6.2-11.5 6-10.3 4.8-8.5 4.5-7.5-18 2.8-16.3 2.5-16 2.7-2 .5-2.2 1.3-2.3 2-2.2 2.5-2.5 2.7-2.5 3.5-2.8 3.8-2.7 4.2-5.5 9.5-5.8 10.8-5.7 11.7-6 12.3-5.8 12.7-5.7 13-18 40.3-4.8 10.7-1.2 1.8-1.3 1.7-2 1.5-2.5 1.3-2.5.7-2.7.8-3 .2h-3l-3-.5-3-.7-3-1-2.8-1.3-2.5-1.5-2.2-2-2-2.2-1.5-2.8-1-2.7-.5-1.8v-4.2l.2-3.3 1.5-6.2 2.5-7.8 3.3-9.5 3.7-10.5 4.8-12.5 5.2-13.2 9-22 9.3-22.5 18-42 13.7-31.3 5.5-12.2 1.5-.8 5.3-2 10-3.2 15.7-5 22.5-6.3 14-3.5 16.3-4.2 18.5-4.5 20.7-4.8 23.3-5.2 25.7-5.8 13.5-2.5 22.5-4 59.5-10.2 80.3-13.5 38.2 152-3.2 2.7-3.3 3-6.2 6-6.3 6.3-3.2 3-3.3 3-15 12.5-8 6.7-8.2 6.5-4.3 3-4.5 2.8-4.2 2.7-4.5 2.5-4.5 2.3-4.5 1.7-4.8 1.8-4.5 1-4.2.7-4 .8-3.5.2-3.3.3h-6l-5.5-.5-5.5-.5h-9.5l-3.7.2-4.3.5-4.7.5-4.3 1-4.2 1-4.3 1.5-4.2 1.8-4 2-4 2-4 2.5-3.5 2.2-4.3 3.5-4 3.3-3 3.5-2.5 3.2-1 1.5-.7 1.5-.5 1.5-.3 1.5-.2 1.3.2 1.2.5 1.3.8 1 1 1 .7 1.2.5 1 .3 1 .2 1.3v1l-.2 1-.5 1-1 1.7-1.5 1.8-1.8 1.5-2 1.5-2.5 1.5-2.2 1-4.5 2-3.5 1.2-1.3.5-4.2.5-4.3.5-4 .3h-4.2l-3.8-.3-3.7-.5-3.5-1-3.3-1.2-3.2-1.5-3-2-2.5-2.3-2.3-2.7-.7-1-.3-1.5v-1.8l.5-2-2 1.3-2.2 1-2.8.7-3 .5-3.2.5-3.5.3-3.8-.3-3.7-.5-3.8-.5-3.7-1-3.8-1.5-3.5-1.5-3.5-2-3.2-2.5-3-2.7-2.8-3.3-.5-1-.2-1-.3-1.5.3-1.5.7-3.7 1.5-4.5-.7-.3-1 .5-1.5.5-1.5.3h-1.8l-3.7-.3-4.3-1-4.5-1.5-4.2-2-2-1.2-1.8-1.3-1.7-1.5-1.8-1.5-1.2-1.7-1.3-1.8-.7-2-.8-1.7-.2-1.8v-1.7l.2-2 .5-2.3 1.3-5z" fill="#ffeec8"/><path d="m405.6 329.6-18.2-.3h-45.5l5.7-13 5.8-12.7 4.7.7h49.5l-1.7 5.5-1.3 5-.5 2.3-.2 2v1.7l.2 1.8.8 1.7.7 2 1.3 1.8 1.2 1.7z" fill="#7a7878"/><path d="m323.9 369.6 18-40.3h45.5l18.2.3 2.5.2 1.8 1.5 1.7 1.5 1.8 1.3 2 1.2 4.2 2 4.5 1.5 4.3 1 3.7.3h1.8l1.5-.3 1.5-.5 1-.5.7.3-1.5 4.5-.7 3.7-.3 1.5.3 1.5.2 1 .5 1 2.8 3.3 3 2.7 3.2 2.5 3.5 2 3.5 1.5 3.8 1.5 3.7 1 3.8.5 3.7.5 3.8.3 3.5-.3 3.2-.5 3-.5 2.8-.7 2.2-1 2-1.3-.5 2v1.8l.3 1.5.7 1h-160.5z" fill="#c8c8c8"/><path d="m430.1 399.3v12.8l-.2 2.2-.8 2-1 2-1.2 1.8-1.8 1.2-2 1-2 .8-2.2.2h-55.8v-3.5h35v-31.7h20.8l2.2.2 2 .8 2 1 1.8 1.2 1.2 1.8 1 2 .8 2z" fill="#ffffc2"/><path d="m514.4 381.6v47.3l-.3 2.5-1 2.3-1.3 2.3-1.5 1.8-2 1.5-2.5 1.3-2.5.8-2.8.3h-219.4l-2.8-.3-2.5-.8-2.3-1.3-2-1.5-1.8-1.8-1.3-2.3-.8-2.3-.3-2.5v-46.3l.3-2.3.5-2.3 1-2 1.5-1.8 1.8-1.5 2-1.3 2.3-.8 2.5-.5v1.5l.5 1.8 1 2.8 1.5 2.8 2 2.3 2.3 2 2.5 1.5 2.8 1.3 3 1-2.3 2-1.8 2-1.5 2-1.5 2.5-1 2.5-.8 2.8-.5 2.8-.3 3v2.5l.5 2.3.5 2.5 1 2.3 1 2 1.3 2 1.3 2 1.5 1.8 1.8 1.5 2 1.5 2 1.3 2.3 1 2.3.8 2.3.5 2.5.5h5l2.3-.5 2.5-.5 2.3-.8 2-1 2-1.3 2-1.5 1.8-1.5 1.5-1.8 1.5-2 1.3-2 1-2 .8-2.3.8-2.5.3-2.3.3-2.5-.5-3.8-.8-3.5-1.3-3.5-1.8-3-2.3-2.8-2.5-2.5-2.8-2-3.3-1.5-2.8-.3 1.3-1.8 1.3-1.8 4.8-10.8 4.8.5h160.5l2.3 2.8 2.5 2.3 3 2 3.3 1.5 3.3 1.3 3.5 1 3.8.5zm-17.5 25v-2.5l-.5-2.5-.5-2.3-.8-2.3-1.3-2.3-1-2-1.5-2-1.5-1.8-1.8-1.5-2-1.3-2-1.3-2-1-2.3-1-2.5-.5-2.5-.5h-5l-2.3.5-2.5.5-2.3 1-2 1-2 1.3-2 1.3-1.8 1.5-1.5 1.8-1.5 2-1.3 2-1 2.3-.8 2.3-.5 2.3-.5 2.5v5l.5 2.3.5 2.5.8 2.3 1 2 1.3 2 1.5 2 1.5 1.8 1.8 1.5 2 1.5 2 1.3 2 1 2.3.8 2.5.5 2.3.5h5l2.5-.5 2.5-.5 2.3-.8 2-1 2-1.3 2-1.5 1.8-1.5 1.5-1.8 1.5-2 1-2 1.3-2 .8-2.3.5-2.5.5-2.3zm-66.8 5.5v-12.8l-.3-2.3-.8-2-1-2-1.3-1.8-1.8-1.3-2-1-2-.8-2.3-.3h-56.1l-2.3.3-2 .8-2 1-1.5 1.3-1.5 1.8-1 2-.8 2-.3 2.3v12.8l.3 2.3.8 2 1 2 1.5 1.8 1.5 1.3 2 1 2 .8 2.3.3h56.1l2.3-.3 2-.8 2-1 1.8-1.3 1.3-1.8 1-2 .8-2z" fill="#ffffc2"/><path d="m319.4 384.1 3.2 1.5 2.8 2 2.5 2.5 2.2 2.7 1.8 3 1.2 3.5.8 3.5.5 3.8-.3 2.5-.2 2.2-.8 2.5-.7 2.3-1 2-1.3 2-1.5 2-1.5 1.7-1.7 1.5-2 1.5-2 1.3-2 1-2.3.7-2.5.5-2.2.5h-5l-2.5-.5-2.3-.5-2.2-.7-2.3-1-2-1.3-2-1.5-1.7-1.5-1.5-1.7-1.3-2-1.2-2-1-2-1-2.3-.5-2.5-.5-2.2v-2.5l.2-3 .5-2.8.8-2.7 1-2.5 1.5-2.5 1.5-2 1.7-2 2.3-2 3 .7 3 .5h3l3-.2 2.7-.8 2.5-.7 2.5-1.3 2-1.5zm153-2h2.5l2.5.5 2.5.5 2.2 1 2 1 2 1.2 2 1.3 1.8 1.5 1.5 1.7 1.5 2 1 2 1.2 2.3.8 2.2.5 2.3.5 2.5v5l-.5 2.2-.5 2.5-.8 2.3-1.2 2-1 2-1.5 2-1.5 1.7-1.8 1.5-2 1.5-2 1.3-2 1-2.2.7-2.5.5-2.5.5h-5l-2.3-.5-2.5-.5-2.2-.7-2-1-2-1.3-2-1.5-1.8-1.5-1.5-1.7-1.5-2-1.2-2-1-2-.8-2.3-.5-2.5-.5-2.2v-5l.5-2.5.5-2.3.8-2.2 1-2.3 1.2-2 1.5-2 1.5-1.7 1.8-1.5 2-1.3 2-1.2 2-1 2.2-1 2.5-.5 2.3-.5z" fill="#fff"/><path d="m545.1 374.3v90.3l-.7 1.2-.8 1.3-1.2 1.2-1.5.8-1.5.7-2 .5h-293.3l-1.7-.5-1.8-.7-1.5-.8-1-1.2-1-1.3-.5-1.2-.2-1.5v-126l.2-1.5.5-1.5 1-1.3 1-1 1.5-1 1.8-.7 1.7-.5h43.3l3.2.7-3.7 10.5-3.3 9.5-2.5 7.8-1.5 6.2-.2 3.3v2.7l-2.5.5-2.3.8-2 1.2-1.7 1.5-1.5 1.8-1 2-.5 2.2-.3 2.3v46.2l.3 2.5.7 2.3 1.3 2.2 1.7 1.8 2 1.5 2.3 1.2 2.5.8 2.7.2h219.5l2.8-.2 2.5-.8 2.5-1.2 2-1.5 1.5-1.8 1.2-2.2 1-2.3.3-2.5v-47.2h4.2l4-.3 4.3-.5 4.2-.5 1.3-.5 3.5-1.2 4.5-2 2.2-1 2.5-1.5z" fill="#c8c8c8"/><path d="m565.6 503.6-.2 2-.8 2.2-1 1.8-1.2 1.7-1.8 1.3-1.7 1.2-2 .5-2.3.3h-68l-36.7-41.3v-3h87.5l2-.5 1.5-.7 1.5-.8 1.2-1.2.8-1.3.7-1.2v-90.5l2-1.5 1.8-1.5 1.5-1.8 1-1.7.5-1 .2-1v-1l-.2-1.3-.3-1-.5-1-.7-1.2-1-1-.8-1-.5-1.3-.2-1.2.2-1.3.3-1.5.5-1.5.7-1.5 1-1.5 2.5-3.2 3-3.5 4-3.3 4.3-3.5z" fill="#7a7878"/><path d="m497.4 575.1 50.3 177.5h-394.6l-50.3-177.5zm-12.8 73.2-13.3-44h-325.4l13.3 44z" fill="#c8c8c8"/><path d="m449.9 473.3 36.7 41.3h-199l37.3-41.5v-2.8h125z" fill="#7a7878"/><path d="m471.4 604.3 13.2 44h-325.5l-13.2-44z" fill="#ffffc2"/><path d="m398.1 390.3v29.5h-35v-29.5z" fill="#231f20"/><path d="m324.9 470.3v2.8l-37.3 41.5h-60.2l-2.3-.3-2-.5-2-1.2-1.5-1.3-1.5-1.7-1-1.8-.5-2.2-.2-2v-188.3l.2-2.2.5-2 1-2 1.5-1.5 1.5-1.5 2-1 2-.5 2.3-.3h72.5l.7.3-5.2 13.2-4.8 12.5-3.2-.7h-43.3l-1.7.5-1.8.7-1.5 1-1 1-1 1.3-.5 1.5-.2 1.5v126l.2 1.5.5 1.2 1 1.3 1 1.2 1.5.8 1.8.7 1.7.5h2z" fill="#7a7878"/><g fill="none" stroke="#231f20" stroke-linecap="round" stroke-miterlimit="10"><path d="m410.6 304.3h-31.7" stroke-width="20.25"/><path d="m299.9 304.3h-72.5l-2.3.3-2 .5-2 1-1.5 1.5-1.5 1.5-1 2-.5 2-.2 2.2v188.3l.2 2 .5 2.2 1 1.8 1.5 1.7 1.5 1.3 2 1.2 2 .5 2.3.3h327.2l2.3-.3 2-.5 1.7-1.2 1.8-1.3 1.2-1.7 1-1.8.8-2.2.2-2-1.2-168.8v-.5" stroke-width="21"/><path d="m378.9 304.3h-20.8" stroke-width="20.25"/><path d="m287.4 329.6h-43.3l-1.7.5-1.8.7-1.5 1-1 1-1 1.3-.5 1.5-.2 1.5v126l.2 1.5.5 1.2 1 1.3 1 1.2 1.5.8 1.8.7 1.7.5h293.3l2-.5 1.5-.7 1.5-.8 1.2-1.2.8-1.3.7-1.2v-90.3" stroke-width="14"/><path d="m405.6 329.6-18.2-.3h-45.5" stroke-width="20.25"/><path d="m281.1 370.1-1.7.2-2.5.5-2.3.8-2 1.2-1.7 1.5-1.5 1.8-1 2-.5 2.2-.3 2.3v46.2l.3 2.5.7 2.3 1.3 2.2 1.7 1.8 2 1.5 2.3 1.2 2.5.8 2.7.2h219.5l2.8-.2 2.5-.8 2.5-1.2 2-1.5 1.5-1.8 1.2-2.2 1-2.3.3-2.5v-43.7" stroke-width="14"/><path d="m489.6 370.1h-161" stroke-width="20.25"/><path d="m488.1 516.1-1.5-1.5-36.7-41.3m-163.3 42.5 1-1.2 37.3-41.5m123.2-66.5v2.5l.5 2.2.5 2.5.8 2.3 1 2 1.2 2 1.5 2 1.5 1.7 1.8 1.5 2 1.5 2 1.3 2 1 2.2.7 2.5.5 2.3.5h5l2.5-.5 2.5-.5 2.2-.7 2-1 2-1.3 2-1.5 1.8-1.5 1.5-1.7 1.5-2 1-2 1.2-2 .8-2.3.5-2.5.5-2.2v-5l-.5-2.5-.5-2.3-.8-2.2-1.2-2.3-1-2-1.5-2-1.5-1.7-1.8-1.5-2-1.3-2-1.2-2-1-2.2-1-2.5-.5-2.5-.5h-5l-2.3.5-2.5.5-2.2 1-2 1-2 1.2-2 1.3-1.8 1.5-1.5 1.7-1.5 2-1.2 2-1 2.3-.8 2.2-.5 2.3-.5 2.5zm-149-22-2.2 1.2-2 1.3-2.3 2-1.7 2-1.5 2-1.5 2.5-1 2.5-.8 2.7-.5 2.8-.2 3v2.5l.5 2.2.5 2.5 1 2.3 1 2 1.2 2 1.3 2 1.5 1.7 1.7 1.5 2 1.5 2 1.3 2.3 1 2.2.7 2.3.5 2.5.5h5l2.2-.5 2.5-.5 2.3-.7 2-1 2-1.3 2-1.5 1.7-1.5 1.5-1.7 1.5-2 1.3-2 1-2 .7-2.3.8-2.5.2-2.2.3-2.5-.5-3.8-.8-3.5-1.2-3.5-1.8-3-2.2-2.7-2.5-2.5-2.8-2-3.2-1.5m78.7 4h-35.2l-2.3.2-2 .8-2 1-1.5 1.2-1.5 1.8-1 2-.7 2-.3 2.2v12.8l.3 2.2.7 2 1 2 1.5 1.8 1.5 1.2 2 1 2 .8 2.3.2h56l2.2-.2 2-.8 2-1 1.8-1.2 1.2-1.8 1-2 .8-2 .2-2.2v-12.8l-.2-2.2-.8-2-1-2-1.2-1.8-1.8-1.2-2-1-2-.8-2.2-.2z" stroke-width="14"/><path d="m363.1 419.8h35v-29.5h-35z" stroke-width="20.25"/><path d="m341.9 329.3 5.7-13 5.8-12.7 6-12.3 5.7-11.7 5.8-10.8 5.5-9.5 2.7-4.2 2.8-3.8 2.5-3.5 2.5-2.7 2.2-2.5 2.3-2 2.2-1.3 2-.5 16-2.7 16.3-2.5 18-2.8-4.5 7.5-4.8 8.5-6 10.3-6.2 11.5-6.5 12.2-5.5 12.3-2.5 5.7-2.3 5.5-1.7 5.5-1.3 5-.5 2.3-.2 2v1.7l.2 1.8.8 1.7.7 2 1.3 1.8 1.2 1.7 1.8 1.5 1.7 1.5 1.8 1.3 2 1.2 4.2 2 4.5 1.5 4.3 1 3.7.3h1.8l1.5-.3 1.5-.5 1-.5" stroke-width="21"/><path d="m705.4 99.1-80.3 13.5-59.5 10.2-22.5 4-13.5 2.5-25.7 5.8-23.3 5.2-20.7 4.8-18.5 4.5-16.3 4.2-14 3.5-22.5 6.3-15.7 5-10 3.2-5.3 2-1.5.8-5.5 12.2-13.7 31.3-18 42-9.3 22.5-9 22-5.2 13.2-4.8 12.5-3.7 10.5-3.3 9.5-2.5 7.8-1.5 6.2-.2 3.3v4.2l.5 1.8 1 2.7 1.5 2.8 2 2.2 2.2 2 2.5 1.5 2.8 1.3 3 1 3 .7 3 .5h3l3-.2 2.7-.8 2.5-.7 2.5-1.3 2-1.5 1.3-1.7 1.2-1.8 4.8-10.7 18-40.3" stroke-width="21"/><path d="m491.9 253.3-6.8 9.5-7.2 10.3-8.5 12.7-9 14-8.8 14-4 7-3.5 6.5-3 6.3-2.5 5.5-1.5 4.5-.7 3.7-.3 1.5.3 1.5.2 1 .5 1 2.8 3.3 3 2.7 3.2 2.5 3.5 2 3.5 1.5 3.8 1.5 3.7 1 3.8.5 3.7.5 3.8.3 3.5-.3 3.2-.5 3-.5 2.8-.7 2.2-1 2-1.3" stroke-width="21"/><path d="m541.1 288.8-7.5 8.8-7.7 9.5-9 11.5-9.5 12.5-4.3 6.2-4.2 6-3.5 5.8-3 5.5-2.3 5-1 2.2-.5 2-.5 2v1.8l.3 1.5.7 1 2.3 2.7 2.5 2.3 3 2 3.2 1.5 3.3 1.2 3.5 1 3.7.5 3.8.3h4.2l4-.3 4.3-.5 4.2-.5 1.3-.5 3.5-1.2 4.5-2 2.2-1 2.5-1.5 2-1.5 1.8-1.5 1.5-1.8 1-1.7.5-1 .2-1v-1l-.2-1.3-.3-1-.5-1-.7-1.2-1-1-.8-1-.5-1.3-.2-1.2.2-1.3.3-1.5.5-1.5.7-1.5 1-1.5 2.5-3.2 3-3.5 4-3.3 4.3-3.5 3.5-2.2 4-2.5 4-2 4-2 4.2-1.8 4.3-1.5 4.2-1 4.3-1 4.7-.5 4.3-.5 3.7-.2h9.5l5.5.5 5.5.5h6l3.3-.3 3.5-.2 4-.8 4.2-.7 4.5-1 4.8-1.8 4.5-1.7 4.5-2.3 4.5-2.5 4.2-2.7 4.5-2.8 4.3-3 8.2-6.5 8-6.7 15-12.5 3.3-3 3.2-3 6.3-6.3 6.2-6 3.3-3 3.2-2.7 1.8-1.5m-197.8 503-50.2-177.5h-394.5l50.2 177.5z" stroke-width="21"/><path d="m484.6 648.3-13.2-44h-325.5l13.2 44z" stroke-width="14"/></g></svg>