<svg height="850" viewBox="0 0 850 850" width="850" xmlns="http://www.w3.org/2000/svg"><path d="m333.8 396v157h-168v-143l5.7-2.3 6.5-3.2 7.3-3.8 7.7-4.7z" fill="#a9d7f3"/><path d="m237.5 204.7 1-2.7 1.5-2.8 3.5-6.2 4.5-7 5.3-7.3 5.7-7.5 6-7.7 6.5-7.5 6.3-7.5 12.2-14 10.5-11.3 9.8-10.7 8.7-3.8 8.5-3.2 8-2.8 8-2 7.8-1.7 7.5-1.3 7.5-1 7.5-.7 7.5-.5 7.5-.3 15.2-.5 16-.2 8.3-.3 8.7-.5 9.3-.5 14-.5 8.5-.2 9.2-.8 10.3-.7 11-1.3 11.7-1.5 12.3-2 12.7-2.2 13.3-3 13.5-3.5 13.7-4.3 7-2.2 7-2.5 7-2.8 7.3-3 103 153.3-20 6-11.3 3.5-11.2 4-5.5 2.2-5.5 2.5-5 2.5-5 2.8-4.5 3-4.3 3-3.7 3.5-3.3 3.5-2.7 3.7-2.8 3.8-5 7.5-4.5 7.7-4.5 8-4.7 8.3-5 8.7-5.8 9-6.7 9.8-5 6.5-5.5 6-5.5 5.7-6 5.5-6.3 5-6.5 5-13 9.3-13.2 9.5-6.8 4.7-6.5 4.8-6.2 5.2-6.3 5.3-5.7 5.7-5.8 6.3-2.2 2.2-2.8 2.5-2.7 2.3-3.3 2.5-6.7 4.5-7.3 4.5-7.2 4-7.5 4-13.3 7-11.7 6.5-6.3 3.5-6.5 3.7-7 4.3-7.2 4.7-7.5 5.5-8 5.8-5.8 4.2-5 3.3-4.5 2.2-4 1.3-1.7.5-1.8.2h-3l-1.2-.2-1.3-.5-2-1-1.7-1.5-1.5-1.8-1.3-2.2-.7-2-1.5-4.3-1.3-3.7-.7-3.3-.8-3-.2-3.2v-6.3l.5-3 .7-3 .8-2.7 1-2.8 1.2-2.5 1.3-2.5 1.5-2.5 1.7-2.2 1.5-2 2-2 1.8-1.8 4-3 4-3 8.2-6 8.3-5.5 7.7-5.7 3.8-3 3.7-3 3.5-3.5 3.3-3.5 3-3.8 2.5-4 2.5-4.5 2.2-4.7 4.3-11.8 2.2-6.5 1-4.2.3-2.8.2-2.7-.2-2.5-.3-2.8-.5-2.5-.5-2.5-.7-2.5-1-2.2-1-2.5-1.3-2.3-3-4.2-3.2-4.3-3.8-3.7-4.2-3.3-4.5-3.2-5-2.5-5-2.3-5.3-2-5.2-1.2-5.5-.8-5.5-.2-2.3-.3-2.7-.2-4 .2-4.8.3-5.7 1-6.8 1.2-7.5 2.3-2.7 1.2-4 2.5-5.5 3.8-6.5 4.7-16.3 12-19 14.3-21 15.7-21.5 15.8-10.7 7.5-10.5 7.2-10.3 6.8-9.5 6-7.7 4.7-7.3 3.8-6.5 3.2-5.7 2.3-4.3 1.2-1.7.5h-4l-2.5-.5-2.5-.7-2.5-1-2.3-1.5-2.2-1.5-2-2-1.8-2.3-1.2-2.5-1-2.7-.3-1.5v-3l.3-1.5.5-1.8.5-1.7.7-1.8 1-1.7 1.3-1.8 1.2-2 1.8-1.7 1.7-2 6-5.8 9.3-8 25.2-22.2 31.3-27 33-28.3-4.5-3.7-2.8-2.8-2.2-3-2-3.2-.8-1.8-.7-1.7-.5-1.8-.3-2-.2-2v-1.7l.2-2 .5-2 .8-2 .7-2 2.3-3.5-1.8-.3-1.7-.7-1.8-1-1.7-1.8-1.3-1.7-1.5-2.3-1-2.5-1-2.7-.7-3-.3-3-.2-3v-3.3l.2-3.2.8-3 1-3.3 1.5-2.7 2-3.5z" fill="#ffeec8"/><g fill="none" stroke="#231f20" stroke-linecap="round" stroke-miterlimit="10" stroke-width="21"><path d="m193 396 9.5-6 10.3-6.8 10.5-7.2 10.7-7.5 21.5-15.8 21-15.7 19-14.3 16.3-12 6.5-4.7 5.5-3.8 4-2.5 2.7-1.2 7.5-2.3 6.8-1.2 5.7-1 4.8-.3 4-.2 2.7.2 2.3.3 5.5.2 5.5.8 5.2 1.2 5.3 2 5 2.3 5 2.5 4.5 3.2 4.2 3.3 3.8 3.7 3.2 4.3 3 4.2 1.3 2.3 1 2.5 1 2.2.7 2.5.5 2.5.5 2.5.3 2.8.2 2.5-.2 2.7-.3 2.8-1 4.2-2.2 6.5-4.3 11.8-2.2 4.7-2.5 4.5-2.5 4-3 3.8-3.3 3.5-3.5 3.5-3.7 3-3.8 3-7.7 5.7-8.3 5.5-8.2 6-4 3-4 3-1.8 1.8-2 2-1.5 2-1.7 2.2-1.5 2.5-1.3 2.5-1.2 2.5-1 2.8-.8 2.7-.7 3-.5 3v6.3l.2 3.2.8 3 .7 3.3 1.3 3.7 1.5 4.3.7 2 1.3 2.2 1.5 1.8 1.7 1.5 2 1 1.3.5 1.2.2h3l1.8-.2 1.7-.5 4-1.3 4.5-2.2 5-3.3 5.8-4.2 8-5.8 7.5-5.5 7.2-4.7 7-4.3 6.5-3.7 6.3-3.5 11.7-6.5 13.3-7 7.5-4 7.2-4 7.3-4.5 6.7-4.5 3.3-2.5 2.7-2.3 2.8-2.5 2.2-2.2 5.8-6.3 5.7-5.7 6.3-5.3 6.2-5.2 6.5-4.8 6.8-4.7 13.2-9.5 13-9.3 6.5-5 6.3-5 6-5.5 5.5-5.7 5.5-6 5-6.5 6.7-9.8 5.8-9 5-8.7 4.7-8.3 4.5-8 4.5-7.7 5-7.5 2.8-3.8 2.7-3.7 3.3-3.5 3.7-3.5 4.3-3 4.5-3 5-2.8 5-2.5 5.5-2.5 5.5-2.2 11.2-4 11.3-3.5 20-6m-300 10.5-87-.5-20.8 17.5-48.7 41.7-33 28.3-31.3 27-25.2 22.2-9.3 8-6 5.8-1.7 2-1.8 1.7-1.2 2-1.3 1.8-1 1.7-.7 1.8-.5 1.7-.5 1.8-.3 1.5v3l.3 1.5 1 2.7 1.2 2.5 1.8 2.3 2 2 2.2 1.5 2.3 1.5 2.5 1 2.5.7 2.5.5h4l1.7-.5 4.3-1.2 5.7-2.3 6.5-3.2 7.3-3.8 7.7-4.7m191-219.8-79.2 3.8-8 8.5-18.8 19.7-10.5 11.8-10.5 11.5-8.7 10.5-3.5 4.2-3 3.8-2.3 3.5-.7 2-.8 2-.5 2-.2 2v1.7l.2 2 .3 2 .5 1.8.7 1.7.8 1.8 2 3.2 2.2 3 2.8 2.8"/><path d="m366.8 134.7-78.3 8.8-5.7 6.7-14.3 16.3-17 20.2-7.7 9.5-6.3 8.5-3.2 4.3-2 3.5-1.5 2.7-1 3.3-.8 3-.2 3.2v3.3l.2 3 .3 3 .7 3 1 2.7 1 2.5 1.5 2.3 1.3 1.7 1.7 1.8 1.8 1 1.7.7 1.8.3"/><path d="m604.8 62.7-7.3 3-7 2.8-7 2.5-7 2.2-13.7 4.3-13.5 3.5-13.3 3-12.7 2.2-12.3 2-11.7 1.5-11 1.3-10.3.7-9.2.8-8.5.2-14 .5-9.3.5-8.7.5-8.3.3-16 .2-15.2.5-7.5.3-7.5.5-7.5.7-7.5 1-7.5 1.3-7.8 1.7-8 2-8 2.8-8.5 3.2-8.7 3.8-9.8 10.7-10.5 11.3-12.2 14-6.3 7.5-6.5 7.5-6 7.7-5.7 7.5-5.3 7.3-4.5 7-3.5 6.2-1.5 2.8-1 2.7m-44.5 191.3h140.8v157h-168v-143m83.7 198.5v177.7m-61.7-66.7 62 68.2 61.7-68.2"/></g></svg>