<svg height="850.394" viewBox="0 0 850.394 850.394" width="850.394" xmlns="http://www.w3.org/2000/svg"><g fill="#efdcef"><path d="m746 552-244.26-44.54 19.47 211.11-.59 2.36-421.85-105.46 366.46-518.26 287.92 452.83-5.45 4.18z"/><path d="m501.74 507.46 244.26 44.54 1.7 2.22-219.65 168.57-7.43-1.86.59-2.36z"/></g><g fill="none"><g><path d="m112 612 293.02-122.17 56.98-375.83m-56.98 375.83 96.72 17.63 244.26 44.54" stroke="#904788" stroke-width="11"/><g stroke="#50264c" stroke-width="18"><path d="m747.7 554.22 5.45-4.18-287.92-452.83-366.46 518.26 421.85 105.46 7.43 1.86z"/><path d="m465.26 111.98 36.48 395.48 19.47 211.11"/></g></g><path d="m0 0h850.394v850.394h-850.394z"/></g></svg>