<svg height="850.394" viewBox="0 0 850.394 850.394" width="850.394" xmlns="http://www.w3.org/2000/svg"><path d="m780.76 678.5c13.07 17.04-68.72-1.7-68.72-1.7s-22.01-7.56-49.03-25.06c-22.52-14.58-48.529-36.061-68.17-65.84 58.601 25.229 112.09 47.729 112.09 47.729s-13.069-37.49-28.97-67.59-53.96-142-110.19-186.3c-56.229-44.3-139.149-69.86-186.299-70.99-47.14-1.14-65.88 15.9-65.88 15.9s-23.29 28.4-7.95 78.95c2.31 7.63 7.02 15.6 13.47 23.69l-1.02.82-61.28-76.601c7.85.55 15.54.13 22.06-.62l-28.67-7.64-60.201-75.248-2.05-.01c.02-4.85.04-9.54.02-13.99h.03s5.18-5.46 24.49-19.66 35.8-30.23 33.51-49.42c-4.55-38.05-30.67-57.93-30.67-57.93 38.05 2.84 57.36-9.66 84.63 19.88l.39-.27c6.33 9.07 12.88 19.51 19.49 31.51 0 0 23.29 38.05 77.24 55.09 53.96 17.04 130.64 31.24 193.12 99.4 62.47 68.16 80.08 134.05 103.939 194.25 23.851 60.21 71.561 134.61 84.621 151.65zm-503.61-386.96-59.64-20.45c12.78 18.74 40.9 21.3 59.64 20.45z" fill="#9e5c26"/><path d="m594.84 585.9c-55.82-24.03-116.26-50.54-139.53-62.46-39.14-20.03-104.77-59.261-134.2-96.15-6.45-8.09-11.16-16.06-13.47-23.69-15.34-50.55 7.95-78.95 7.95-78.95s18.74-17.04 65.88-15.9c47.15 1.13 130.07 26.69 186.299 70.99 56.23 44.3 94.29 156.2 110.19 186.3s28.97 67.59 28.97 67.59-53.489-22.5-112.089-47.73z" fill="#9e5c26"/><path d="m320.09 428.11 1.02-.82c29.43 36.89 95.06 76.12 134.2 96.15 23.271 11.92 83.71 38.43 139.53 62.46 19.641 29.779 45.65 51.26 68.17 65.84l-.399.62c-1.54-.28-89.521-16.891-177.57-43.57-5.83-1.771-11.66-3.58-17.46-5.43-5.061-1.61-10.1-3.261-15.11-4.94-86.979-29.16-124.95-41.47-178.34-88.04-48.01-41.88-72.14-107.92-79.52-147.11-5.15-27.34-4.78-64.62-4.66-95.28l2.049.01 60.2 75.25-32.26-8.6c9.14 11.58 24.27 15.87 38.87 16.86zm21.09 69.95-57.52-25.81c11.02 19.83 38.78 24.95 57.52 25.81zm-45.96-62.22-59.32-21.39c12.5 18.95 40.56 21.95 59.32 21.39zm-13.57-44.77-61.01-15.93c14.15 17.73 42.38 18.19 61.01 15.93z" fill="#ffffc2"/><path d="m531.43 735.59-44.39 2.04c16.91-6.96 29.23-5.05 44.39-2.04zm-174.95-39.04-40.61-18.03c18.24 1.35 28.4 8.57 40.61 18.03z" fill="#7bd3f7"/><path d="m283.66 472.25 57.52 25.81c-18.74-.86-46.5-5.98-57.52-25.81z" fill="#231f20"/><path d="m302.35 146.6-.39.27c-27.27-29.54-46.58-17.04-84.63-19.88s-61.34-19.88-61.34-19.88h-3.41c1.1-3.86 2.91-7.37 5.3-10.51 1.76-2.31 3.84-4.42 6.19-6.32 17.88-14.37 51.47-16.25 80.52-.21 0 0 26.06 11.05 57.76 56.53z" fill="#9e5c26"/><path d="m235.9 414.45 59.32 21.39c-18.76.56-46.82-2.44-59.32-21.39zm-15.26-39.31 61.01 15.93c-18.63 2.26-46.86 1.8-61.01-15.93zm31.56-31.89 28.67 7.64c-6.52.75-14.21 1.17-22.06.62zm-34.69-72.16 59.64 20.45c-18.74.85-46.86-1.71-59.64-20.45z" fill="#231f20"/><path d="m252.2 343.25 6.61 8.26c-14.6-.99-29.73-5.28-38.87-16.86z" fill="#231f20"/><path d="m248 184.92c2.29 19.19-14.2 35.22-33.51 49.42s-24.49 19.66-24.49 19.66h-.03c-.03-7.75-.14-14.8-.47-20.8-1.71-31.24-28.97-64.18-28.97-64.18s-1.08-1.55-2.57-4.42c-3.54-6.84-9.39-21.15-8.38-39.68.04-.7.08-1.4.14-2.11.39-4.97 1.29-10.22 2.86-15.7h3.41s23.29 17.04 61.34 19.88c0 0 26.12 19.88 30.67 57.93zm-46.57-47.14c0-7.22-5.98-13.06-13.35-13.06s-13.35 5.84-13.35 13.06c0 7.21 5.98 13.06 13.35 13.06s13.35-5.85 13.35-13.06z" fill="#ffffc2"/><path d="m188.08 124.72c7.37 0 13.35 5.84 13.35 13.06 0 7.21-5.98 13.06-13.35 13.06s-13.35-5.85-13.35-13.06c0-7.22 5.98-13.06 13.35-13.06z" fill="#9e5c26"/><path d="m157.96 164.6-2.54 1.58-47.71 5.11s-17.61 6.82.57-17.04c19.9-26.11 37.48-29.53 37.48-29.53l3.96-1.91c-.06.71-.1 1.41-.14 2.11-1.01 18.53 4.84 32.84 8.38 39.68z" fill="#f6cc4b"/><g fill="none"><g stroke="#231f20"><path d="m662.63 652.37s-.01 0-.02-.01c-1.54-.28-89.521-16.891-177.57-43.57-5.83-1.771-11.66-3.58-17.46-5.43-5.061-1.61-10.1-3.261-15.11-4.94-86.979-29.16-124.95-41.47-178.34-88.04-48.01-41.88-72.14-107.92-79.52-147.11-5.15-27.34-4.78-64.62-4.66-95.28.02-4.85.04-9.54.02-13.99-.03-7.75-.14-14.8-.47-20.8-1.71-31.24-28.97-64.18-28.97-64.18s-1.08-1.55-2.57-4.42c-3.54-6.84-9.39-21.15-8.38-39.68.04-.7.08-1.4.14-2.11.39-4.97 1.29-10.22 2.86-15.7 1.1-3.86 2.91-7.37 5.3-10.51 1.76-2.31 3.84-4.42 6.19-6.32 17.88-14.37 51.47-16.25 80.52-.21 0 0 26.06 11.05 57.76 56.53 6.33 9.07 12.88 19.51 19.49 31.51 0 0 23.29 38.05 77.24 55.09 53.96 17.04 130.64 31.24 193.12 99.4 62.47 68.16 80.08 134.05 103.939 194.25 23.851 60.21 71.561 134.61 84.62 151.65 13.07 17.04-68.72-1.7-68.72-1.7s-22.01-7.56-49.03-25.06c-22.52-14.58-48.529-36.061-68.17-65.84-.13-.181-.25-.36-.37-.551" stroke-width="14"/><path d="m321.11 427.29c-6.45-8.09-11.16-16.06-13.47-23.69-15.34-50.55 7.95-78.95 7.95-78.95s18.74-17.04 65.88-15.9c47.15 1.13 130.07 26.69 186.299 70.99 56.23 44.3 94.29 156.2 110.19 186.3s28.97 67.59 28.97 67.59-53.489-22.5-112.09-47.729c-55.82-24.03-116.26-50.54-139.53-62.46-39.139-20.031-104.769-59.261-134.199-96.151zm-175.35-302.57s-17.58 3.42-37.48 29.53c-18.18 23.86-.57 17.04-.57 17.04l47.71-5.11" stroke-width="14"/><path d="m201.43 137.78c0 7.21-5.98 13.06-13.35 13.06s-13.35-5.85-13.35-13.06c0-7.22 5.98-13.06 13.35-13.06s13.35 5.84 13.35 13.06z" stroke-width="13.632"/><g stroke-width="14"><path d="m155.99 107.11s23.29 17.04 61.34 19.88 57.36-9.66 84.63 19.88"/><path d="m217.33 126.99s26.12 19.88 30.67 57.93c2.29 19.19-14.2 35.22-33.51 49.42s-24.49 19.66-24.49 19.66"/><path d="m466.57 606.55s15.76 98.59 10.43 118.25c-.47 1.71-1.09 2.82-1.89 3.22-10.101 5.061-40.37 14.591-44.57 27.2" stroke-linecap="round" stroke-linejoin="round"/><path d="m440.6 795.86c17.551-26.771 33.521-47.17 48.181-63.46.77-.851 1.97-2.131 1.91-3.95-.691-20.45-11.441-102.16-12.691-116.45m9.04 125.63c16.91-6.96 29.229-5.05 44.39-2.04m-175.43-167.59s-31.4 83.47-43.77 95.17c-.99.93-1.9 1.43-2.73 1.43-11.29 0-42.63-5.02-52.03 4.381" stroke-linecap="round" stroke-linejoin="round"/><path d="m248.29 709.82c27.67-16.09 51.08-27.181 71.47-35.2 1.19-.47 3.42-.99 3.82-2.94 4.42-21.68 37.48-83.609 42.71-96.83m-50.42 103.67c18.24 1.351 28.4 8.57 40.61 18.03m-29.53-337.82c12.78 18.74 40.89 21.3 59.64 20.44m-47.51 14.89c14.06 17.8 42.28 18.39 60.92 16.24m-42.38 23.86c17.62 14.29 45.29 8.689 63 2.5m-22.11-114.57c12.78 18.74 40.9 21.3 59.641 20.45m-136.311-20.45c12.78 18.74 40.89 21.3 59.63 20.45m27.47 25.11c14.06 17.8 42.28 18.39 60.93 16.24m-43.24 28.97c17.62 14.291 45.29 8.69 63 2.5m-36.5 36.06c16.94 15.11 44.83 10.811 62.82 5.46m-59.29 30.37c11.02 19.83 38.78 24.95 57.52 25.81m-143.73-46.47c17.25 14.74 45.05 9.83 62.91 4.08m-215.85-199.58c12.78 18.74 40.9 21.3 59.64 20.45m85.69 231.55c12.78 18.74 40.89 21.3 59.63 20.45m-202.53-208.89c9.14 11.58 24.27 15.87 38.87 16.86 7.85.55 15.54.13 22.06-.62m-60.23 24.25c14.15 17.73 42.38 18.19 61.01 15.93m-45.75 23.38c12.5 18.95 40.56 21.95 59.32 21.39m-11.56 36.41c11.02 19.83 38.78 24.95 57.52 25.81" stroke-linecap="round" stroke-linejoin="round"/></g></g><path d="m0 0h850.394v850.394h-850.394z"/></g></svg>