<svg height="850" viewBox="0 0 850 850" width="850" xmlns="http://www.w3.org/2000/svg"><path d="m650 638.3-1-2.8-1-2.7-1.3-2.5-1.7-2.3-.5-.7-1-.5-2.3-1-2.5-1.3-2.7-1.5-1.3-1-1.2-1-1-1-.8-1.2-.5-1.5-.2-1.5.2-2 .5-2 .3 4.7h35.2v.8l2.8 5.2 2.7 5.3 3.3 5.5 2.7 5.2 1 1.8.3 1.7.2 1.8-.2 1.7-.3 1.5-.7 1.3-.8 1.5-1 1-1.2 1.2-1.3 1-1.2.8-1.3.5-1.5.5-1.2.5h-2.8l-1.5-.3-1.7-.5-1.5-.5-1.5-.7-2.5-2-2.3-2.3-2-2.5-1.5-2.7-1.2-2.8zm-56.3-27.5.8 2.2.2 2v1.8l-.5 1.5-.5 1.2-1 1.3-1 1-1.2 1-2.5 1.5-2.8 1.5-2.2 1-.8.5-.5.7-1.7 2.3-1.3 2.5-1 2.7-1 2.8-1 2.7-1.2 2.8-1.8 2.7-1.7 2.5-2.3 2.3-2.7 2-1.3.7-1.5.5-1.7.5-1.8.3h-2.5l-1.2-.5-1.5-.5-1.3-.5-1.5-.8-1.2-1-1-1.2-1-1-.8-1.5-.7-1.3-.3-1.5-.2-1.7v-1.8l.5-1.7.7-1.8 3-5.5 3.3-5.5 3-5.5 2.5-5.2 32.5-.3.5-5.7zm-102.2 94.2.7 1.8.5 1.7v3.3l-.5 1.7-.5 1.3-1 1.5-1 1-1 1.2-1.2 1-1.3.8-1.5.5-1.2.5-1.5.5h-2.5l-1.8-.3-1.5-.5-1.5-.5-1.5-.7-2.5-2-2.2-2.3-2-2.5-1.8-2.7-1.2-2.8-1-2.7-1-2.8-1-2.7-1.3-2.5-1.5-2.3-1.2-1-2-1-2-1.2-2.5-1-2-1.5-1-1-1-1-.5-1-.5-1.3-.3-1.5-.2-1.5.2 1.5h35.3v.8l2.5 5.2 3 5.3 3 5.5zm-85.3-27.7.8 2.2.2 2v1.8l-.2 1.5-.8 1.2-.7 1.3-1.3 1-1 1-2.7 1.5-2.5 1.5-2.3 1-.7.5-.8.7-1.5 2.3-1.5 2.5-1 2.7-.7 2.8-1 2.7-1.5 2.8-1.5 2.7-2 2.5-2.3 2.3-2.5 2-1.5.7-1.5.5-1.5.5-1.7.3h-2.5l-1.5-.5-1.3-.5-1.5-.5-1.2-.8-1.3-1-1.2-1.2-.8-1-1-1.5-.5-1.3-.5-1.7-.2-1.5.2-1.8.5-1.7.8-1.8 3-5.5 3-5.5 3-5.5 2.7-5.2 32.3-.3.7-5.7zm-100.2 99.2.7 1.8.5 1.7.3 1.5-.3 1.8-.5 1.5-.5 1.5-1 1.2-1 1.3-1 1-1.2 1-1.3.7-1.5.8-1.2.5-1.5.2-1.3.3-1.2-.3-1.8-.2-1.5-.5-1.5-.5-1.5-.8-2.5-1.7-2.2-2.3-2-2.5-1.5-2.7-1.5-3-1-2.8-.8-2.7-1.2-2.5-1.3-2.8-1.5-2.2-1.2-1-1.8-1-2.2-1-2.5-1.3-2-1.5-1-1-1-1-.5-1-.5-1.2-.3-1.5v-1.5 1.5h35.3v.7l2.5 5.3 3 5.5 3 5.2zm-86.5-26 .5 2v3.3l-.5 1.2-.5 1.3-.8 1-1 1-1 .7-2.2 1.5-2 1-2 1.3-1.3 1-1.5 2.2-1.2 2.8-1.3 2.5-.7 2.7-1 2.8-1.3 3-1.7 2.7-2 2.5-2.3 2.3-2.5 1.7-1.5.8-1.5.5-1.5.5-1.7.2-1.3.3-1.2-.3-1.5-.2-1.3-.5-1.5-.8-1.2-.7-1.3-1-1-1-1-1.3-1-1.2-.5-1.5-.5-1.5v-3.3l.5-1.7.8-1.8 3-5.5 3.2-5.7 3-5.3 2.5-5.5 32.5-.2z" fill="#231f20"/><path d="m219.5 750.5-.3 3.8-32.5.2-10.2.3-.3-6.8v-11l.3-32 .5-41 .5-45.7 2.2-126v-5.3h119v5.8l2.3 134.2 2.2 127.3h-44v-1.5l-19.5-211.5v-1zm152.7-67.2h-10.2l-.3-6.8v-42.7l.5-41.3.8-45.5 2.2-126v-5.2h119v5.7l2.3 134.3 2 127.2h-43.8l-.2-1.5-19.3-211.7v-1l-20 208.5-.7 5.7zm187.3-66.5h-10.3v-6.8l-.2-10.7.2-32 .5-41.3.8-45.5 2-126v-5.2h119l.2 5.7 2 134.3 2.3 127.2h-44l-.3-4.7-19.2-208.5v-1l-20 208.5-.5 5.7z" fill="#7a7878"/><path d="m342 434.5 5.2 37.8 4 28.7-31 5-25.5-106.2h-1l4.3 71.5h.2l.3 7.5.2 8.2h-119l.3-12.7.2-13.8 1.3-27.2 1.5-34.3-25.5 106.3-31-4.8 6-45.2 4-26.8 1.7-11 1.3-8.2 2.7-13.5 2.5-11.8 2.5-10.7 2.3-9 2-8.3 2-6.7 3.5-10.8 2.7-7.2 2-4.5 1.3-2.3.2-.5 2.8-2.2 3.2-2.5 3.5-2.3 4.3-2.2 4.2-2.3 4.5-2 8.8-4 7.5-3 6.5-2.5h3.7l1 2 1 1.8 1 1.5 1.3 1.5 2.7 3 3.3 2.2 3.7 2 4 1.5 4 1 4.5.5h2.8l2.5-.2 2.5-.3 2.2-.7 2.3-.5 2.2-1 2-1 2-1.3 1.8-1.2 1.5-1.5 1.5-1.5 1.5-1.8 1.2-1.7 1-2 1-2 .8-2.3 11.5 4.8 6.7 3 7.3 3.5 7 3.5 6.5 3.7 5.7 3.8 2.3 1.7 2 1.8.5.7 1.5 2.5 1 2.5 1.2 3.3 1.5 4.5 1.8 5.5 2.7 11 3.5 14.2 3.8 18.3 4 22.7 1.7 10.3z" fill="#a9d7f3"/><path d="m479.2 328.5 4.3 71.5h.2l.3 7.5.2 8.3h-119l.3-12.8.2-13.7 1-27.3 1.8-34.2-26.5 106.7-2.3-14.2-1.7-10.3-4-22.7-3.8-18.3-3.5-14.2-2.7-11 1-6 2.7-13.3 2.5-12 2.5-10.5 2.3-9.2 2-8 2-7 3.5-10.8 2.7-7.2 2-4.3 1.3-2.2.2-.5 2.8-2.5 3-2.3 3.7-2.2 3.8-2.3 8.5-4.5 8.5-4 7.2-3 6-2.2h5.5l1 1.7.8 1.8 1.2 1.7 1.3 1.5 1.2 1.5 1.5 1.3 3.3 2.5 3.7 2 3.8 1.5 4.2 1 4.5.5h2.8l2.5-.3 2.5-.5 2.2-.5 2.3-.7 2.2-.8 2-1 1.8-1.2 1.7-1.3 1.8-1.5 1.5-1.5 1.5-1.7 1.2-2 1-1.8 1-2 .8-2.2-1.8-1.5 10 4.2 6.8 3 7.7 3.8 7.5 3.7 7.5 4.3 3.3 2 3 2.2 2.7 2 2.3 2 .5.8.7 1.2 1 2.3 1.5 3.2 1.5 4.3 1.8 6 2 7.5 2.7 10.7 3 13.3 3.3 16.2 3.5 19.5 2.2 14.5 3 19.8 7.8 57-31 5-25.3-106.3z" fill="#a9d7f3"/><path d="m640.2 161.3-1.5-1.5 9.8 4.2 7 3 7.5 3.8 7.7 3.7 7.3 4.3 3.5 2 3 2.2 2.5 2 2.2 2 .5.5 1 1.8 1.8 4.2 2.5 6.8 3 10.7 2 6.8 1.7 8.2 2.3 9.3 2 10.7 2.5 12.3 2.5 13.7 3 19.5 3.7 26.5 6.3 45.3-31 5-25.5-106.3h-1l4.5 71.5.5 7.5v8.3h-119l.2-12.8.5-13.7 1-27.3 1.5-34.2-27 111.2v.3l-3-19.8-2.2-14.5-3.5-19.5-3.3-16.2-3-13.3-2.7-10.7 1.5-7.5 2.5-13.3 2.7-12 2.3-10.5 2.2-9.2 2.3-8 2-7 3.2-10.8 2.8-7.2 2-4.3 1.2-2.2.5-.5 2.5-2.5 3.3-2.3 3.5-2.2 4-2.3 8.2-4.5 8.8-4 7-3 6.2-2.2h5.5l.8 1.7 1 1.8 1 1.7 1.2 1.5 3 2.8 3.3 2.5 3.5 2 4 1.5 4.2 1 4.3.5h2.7l2.5-.3 2.5-.5 2.5-.5 2.3-.7 2-.8 2-1 2-1.2 1.7-1.3 1.8-1.5 1.5-1.5 1.2-1.7 1.3-1.8 1-2 1-2z" fill="#a9d7f3"/><path d="m693 368.3 31-5 .5 4.7.5 3 .2 3-.2 3.3v3l-1 6.2-1 5.8-1.5 5.2-1.5 4.8-1.5 3.7-1.3 2.8-.5 1.2-1.2 1.5-1.3 1.3-1.5 1-1.5 1-1.7.5-1.5.2h-1.8l-.7-.5-.8-.5-.5-.7-.5-.8-1-2.2-.5-2.5-1-5.3-.2-2.2-.8-2-1 .5-1 .5-.5 1-.5 1-.5 1-.2.7-.8.5-.7.3-.8-1.5-.7-1.8-.5-2.2-.5-2.5-.5-5.8-.3-6v-4.7l.5-4.3.5-3.2.8-2.3zm-187.5 66.5 31-5 .7 4.7.3 3 .2 3v3.3l-.2 3-.8 6.2-1.2 5.8-1.5 5.2-1.5 4.8-1.3 3.7-1.2 2.8-.8 1.2-1 1.5-1.2 1.3-1.5 1-1.5 1-1.8.5-1.7.2h-1.5l-1-.5-.5-.5-.8-.7-.5-1-.7-2-.8-2.5-.7-5.3-.5-2.5-.5-1.7-1.3.5-.7.5-.8 1-.2 1-.5 1-.5.7-.5.5-.8.3-1-1.5-.7-1.8-.5-2.2-.5-2.5-.5-5.8-.3-6 .3-4.7.2-4.3.5-3.2.8-2.3zm-153.8 71 .5 3v6.2l-.2 3-.8 6.3-1.2 5.7-1.3 5.5-1.7 4.5-1.3 4-1.2 2.8-.8 1.2-1 1.3-1.2 1.2-1.5 1.3-1.5.7-1.8.8-1.7.2-1.5-.2-.8-.3-.7-.7-.8-.8-.5-.7-.7-2.3-.5-2.5-1-5.2-.5-2.3-.5-1.7-1.3.2-.7.8-.5.7-.5 1-.5 1-.5 1-.5.5h-.8l-1-1.2-.5-2-.7-2.3-.3-2.5-.7-5.7-.3-5.8.3-4.7.2-4.3.5-3.5.8-2.2-.3-1.8 31-5zm-225.7-.8.5-4.5 31 4.8-.5 1.7.7 2.3.5 3.5.5 4.2v10.5l-.7 5.8-.5 2.5-.5 2.2-.8 2-.7 1.3h-.8l-.7-.5-.3-1-.5-1-.5-1-.5-.8-1-.7-1-.3-.7 1.8-.3 2.2-1 5.3-.5 2.5-.7 2.2-.8.8-.5.7-.7.8-.8.2-1.7.3-1.5-.3-1.8-.7-1.5-.8-1.5-1.2-1.2-1.3-1.3-1.2-.5-1.3-1.2-2.7-1.5-4-1.5-4.5-1.5-5.5-1-5.8-1-6.2v-3l-.3-3 .3-3.3zm86-205.2 2-1.5 1.7-1.8 1.3-1.7 1.2-1.8 1.8-2.7.5-1 1.7-1.8 2 1.5 2 1 2.3 1 2 1 2.2.8 2.3.5 2.5.2h4.5l2.5-.2 2.2-.5 2.3-.8 2-1 2.2-1 2-1 2-1.5 2.3.3.7 1.5 1.5 3 1.3 1.7 1.2 2 1.5 1.5 1.8 1.5-.8 2.3-1 2-1 2-1.2 1.7-1.5 1.8-1.5 1.5-1.5 1.5-1.8 1.2-2 1.3-2 1-2.2 1-2.3.5-2.2.7-2.5.3-2.5.2h-2.8l-4.5-.5-4-1-4-1.5-3.7-2-3.3-2.2-2.7-3-1.3-1.5-1-1.5-1-1.8-1-2h-3.7z" fill="#ffeec8"/><path d="m239.7 194 3.8.3 3.7.7 3.5 1.3 3.3 1.5 3.2 2.2 3 2.5 2.8 2.8 2.7 3.2 2.3 3.5 2.2 4 1.8 4 1.5 4.3 1.2 4.7 1 4.8.5 5 .3 5-.3 3.5-.2 3.5-.3 3.2-.7 3.3-.8 3.2-.7 3.3-1.3 3-1 2.7-1.5 2.8-1.5 2.7-1.5 2.5-1.7 2.3-1.8 2.2-2 2-2 1.8-2 1.7-2 1.5-2 1-2.2 1-2 1-2.3.8-2.2.5-2.5.2h-4.5l-2.5-.2-2.3-.5-2.2-.8-2-1-2.3-1-2-1-2-1.5-2-1.7-2-1.8-2-2-1.7-2.2-1.8-2.3-1.5-2.5-1.5-2.7-1.5-2.8-1-2.7-1.2-3-.8-3.3-.7-3.2-.8-3.3-.2-3.2-.3-3.5-.2-3.5.2-5 .5-5 1-4.8 1.3-4.7 1.5-4.3 1.7-4 2.3-4 2.2-3.5 2.8-3.2 2.7-2.8 3-2.5 3.3-2.2 3.2-1.5 3.5-1.3 3.8-.7zm185.5-71.5 3.8.3 3.5.7 3.5 1.3 3.5 1.7 3.2 2 3 2.5 2.8 3 2.7 3.3 2.3 3.5 2.2 3.7 1.8 4.3 1.5 4.2 1.2 4.5 1 4.8.5 5 .3 5.2-.3 3.5-.2 3.3-.5 3.5-.5 3.2-.8 3.3-1 3-1 3-1.2 3-1.3 2.7-1.5 2.5-1.5 2.5-1.7 2.5-1.8 2.3-2 2-2 1.7-2 1.8-2 1.2-2 1.3-2.2 1-2.3 1-2 .5-2.5.5-2.2.2-2.3.3-2.5-.3-2.2-.2-2.3-.5-2.2-.5-2.3-1-2-1-2-1.3-2-1.2-2.2-1.8-2-1.7-1.8-2-1.7-2.3-1.8-2.5-1.7-2.5-1.3-2.5-1.5-2.7-1.2-3-1-3-.8-3-.7-3.3-.8-3.2-.5-3.5-.2-3.3v-3.5l.2-5.2.5-5 1-4.8 1.3-4.5 1.5-4.2 1.7-4.3 2.3-3.7 2.2-3.5 2.5-3.3 3-3 3-2.5 3.3-2 3.2-1.7 3.5-1.3 3.8-.7z" fill="#ffeec8"/><path d="m399.2 227 1.5-1.5 1.3-1.5 2.2-3 1.3-2.2.5-1 1.7-1.5 2 1.2 2 1.3 2 1 2.3 1 2.2.5 2.3.5 2.2.2 2.5.3 2.3-.3 2.2-.2 2.5-.5 2-.5 2.3-1 2.2-1 2-1.3 2-1.2 2.3.2.5 1 1.2 2.5 2 3.3 1.3 1.5 1.2 1.5 1.8 1.5-.8 2.2-1 2-1 1.8-1.2 2-1.5 1.7-1.5 1.5-1.8 1.5-1.7 1.3-1.8 1.2-2 1-2.2.8-2.3.7-2.2.5-2.5.5-2.5.3h-2.8l-4.5-.5-4.2-1-3.8-1.5-3.7-2-3.3-2.5-1.5-1.3-1.2-1.5-1.3-1.5-1.2-1.7-.8-1.8-1-1.7h-5.5zm186-63.7h-5.5l6.8-2.8 1.5-1.2 1.5-1.8 2.2-3 1.3-2.2.5-1 1.5-1.5 2 1.2 2 1.3 2.2 1 2.3 1 2 .5 2.5.5 2.2.2 2.3.3 2.5-.3 2.2-.2 2.3-.5 2.2-.5 2.3-1 2-1 2-1.3 2-1.2 2.2.2.5 1 1.3 2.5 2 3.3 1.2 1.5 1.5 1.5 1.5 1.5-.7 2.2-1 2-1 2-1.3 1.8-1.2 1.7-1.5 1.5-1.8 1.5-1.7 1.3-2 1.2-2 1-2 .8-2.3.7-2.5.5-2.5.5-2.5.3h-2.7l-4.3-.5-4.2-1-4-1.5-3.5-2-3.3-2.5-3-2.8-1.2-1.5-1-1.7-1-1.8z" fill="#ffeec8"/><path d="m612.5 56 3.7.3 3.8.7 3.5 1.3 3.2 1.7 3.3 2 3 2.5 3 3 2.5 3.3 2.5 3.5 2 3.7 1.7 4.3 1.8 4.2 1 4.5 1 5 .5 4.8.2 5.2v3.5l-.2 3.5-.5 3.3-.5 3.2-1 3.3-.8 3-1 3-1.2 3-1.3 2.7-1.5 2.8-1.7 2.2-1.5 2.5-2 2.3-1.8 2-2 1.7-2.2 1.8-2 1.2-2 1.3-2 1-2.3 1-2.2.5-2.3.5-2.2.2-2.5.3-2.3-.3-2.2-.2-2.5-.5-2-.5-2.3-1-2.2-1-2-1.3-2-1.2-2-1.8-2-1.7-2-2-1.8-2.3-1.7-2.5-1.5-2.2-1.5-2.8-1.3-2.7-1.2-3-1-3-1-3-.8-3.3-.5-3.2-.5-3.3-.2-3.5v-8.7l.7-4.8.8-5 1.2-4.5 1.5-4.2 2-4.3 2-3.7 2.5-3.5 2.5-3.3 2.8-3 3-2.5 3.2-2 3.5-1.7 3.5-1.3 3.5-.7z" fill="#ffeec8"/><g fill="none" stroke="#231f20" stroke-linecap="round" stroke-miterlimit="10" stroke-width="14"><path d="m595 149.8-2-1.8-2-1.7-2-2-1.8-2.3-1.7-2.5-1.5-2.2-1.5-2.8-1.3-2.7-1.2-3-1-3-1-3-.8-3.3-.5-3.2-.5-3.3-.2-3.5v-8.7l.7-4.8.8-5 1.2-4.5 1.5-4.2 2-4.3 2-3.7 2.5-3.5 2.5-3.3 2.8-3 3-2.5 3.2-2 3.5-1.7 3.5-1.3 3.5-.7 3.8-.3 3.7.3 3.8.7 3.5 1.3 3.2 1.7 3.3 2 3 2.5 3 3 2.5 3.3 2.5 3.5 2 3.7 1.7 4.3 1.8 4.2 1 4.5 1 5 .5 4.8.2 5.2v3.5l-.2 3.5-.5 3.3-.5 3.2-1 3.3-.8 3-1 3-1.2 3-1.3 2.7-1.5 2.8-1.7 2.2-1.5 2.5-2 2.3-1.8 2-2 1.7-2.2 1.8-2 1.2-2 1.3-2 1-2.3 1-2.2.5-2.3.5-2.2.2-2.5.3-2.3-.3-2.2-.2-2.5-.5-2-.5-2.3-1-2.2-1-2-1.3zm76 184.7v-1l-4.5-71.5v-1"/><path d="m555.7 260.5v.8l-1.5 34.2-1 27.3-.5 13.7-.2 12.8v5.2l-2 126-.8 45.5-.5 41.3-.2 32 .2 10.7v6.8h10.3l32.5-.3.5-5.7 20-208.5v1l19.2 208.5.3 4.7h44l-2.3-127.2-2-134.3-.2-5.7v-8.3l-.5-7.5v-1.2m-116 17h114m-158-70.3v-.2l1.5-7.5 2.5-13.3 2.7-12 2.3-10.5 2.2-9.2 2.3-8 2-7 3.2-10.8 2.8-7.2 2-4.3 1.2-2.2.5-.5 2.5-2.5 3.3-2.3 3.5-2.2 4-2.3 8.2-4.5 8.8-4 7-3 6.2-2.2 6.8-2.8 1-.2m-31.8 101-27 111.2m195.8-4.5-.5-4.7-6.3-45.3-3.7-26.5-3-19.5-2.5-13.7-2.5-12.3-2-10.7-2.3-9.3-1.7-8.2-2-6.8-3-10.7-2.5-6.8-1.8-4.2-1-1.8-.5-.5-2.2-2-2.5-2-3-2.2-3.5-2-7.3-4.3-7.7-3.7-7.5-3.8-7-3-9.8-4.2-2-.8m30.8 103 25.5 106.3.5 1.7-.8 2.3-.5 3.2-.5 4.3v4.7l.3 6 .5 5.8.5 2.5.5 2.2.7 1.8.8 1.5.7-.3.8-.5.2-.7.5-1 .5-1 .5-1 1-.5 1-.5.8 2 .2 2.2 1 5.3.5 2.5 1 2.2.5.8.5.7.8.5.7.5h1.8l1.5-.2 1.7-.5 1.5-1 1.5-1 1.3-1.3 1.2-1.5.5-1.2 1.3-2.8 1.5-3.7 1.5-4.8 1.5-5.2 1-5.8 1-6.2v-3l.2-3.3-.2-3-.5-3"/><path d="m724 363.3-31 5-1.3.2m-51.2-207.5-.3.3-.7 2.2-1 2-1 2-1.3 1.8-1.2 1.7-1.5 1.5-1.8 1.5-1.7 1.3-2 1.2-2 1-2 .8-2.3.7-2.5.5-2.5.5-2.5.3h-2.7l-4.3-.5-4.2-1-4-1.5-3.5-2-3.3-2.5-3-2.8-1.2-1.5-1-1.7-1-1.8-.8-1.7"/><path d="m632.2 150 .5 1 1.3 2.5 2 3.3 1.2 1.5 1.5 1.5 1.5 1.5 1.5.7 1.3.5m-49.5-11.2-.5 1-1.3 2.2-2.2 3-1.5 1.8-1.5 1.2-2 1.5-2.3 1.3m-22.5 453-.2.5-2.5 5.2-3 5.5-3.3 5.5-3 5.5-.7 1.8-.5 1.7v1.8l.2 1.7.3 1.5.7 1.3.8 1.5 1 1 1 1.2 1.2 1 1.5.8 1.3.5 1.5.5 1.2.5h2.5l1.8-.3 1.7-.5 1.5-.5 1.3-.7 2.7-2 2.3-2.3 1.7-2.5 1.8-2.7 1.2-2.8 1-2.7 1-2.8 1-2.7 1.3-2.5 1.7-2.3.5-.7.8-.5 2.2-1 2.8-1.5 2.5-1.5 1.2-1 1-1 1-1.3.5-1.2.5-1.5v-1.8l-.2-2-.8-2.2m73.5 6.5 2.8 5.2 2.7 5.3 3.3 5.5 2.7 5.2 1 1.8.3 1.7.2 1.8-.2 1.7-.3 1.5-.7 1.3-.8 1.5-1 1-1.2 1.2-1.3 1-1.2.8-1.3.5-1.5.5-1.2.5h-2.8l-1.5-.3-1.7-.5-1.5-.5-1.5-.7-2.5-2-2.3-2.3-2-2.5-1.5-2.7-1.2-2.8-1-2.7-1-2.8-1-2.7-1.3-2.5-1.7-2.3-.5-.7-1-.5-2.3-1-2.5-1.3-2.7-1.5-1.3-1-1.2-1-1-1-.8-1.2-.5-1.5-.2-1.5.2-2 .5-2 .3-1m-224.3-394.5-2.2-1.8-2-1.7-1.8-2-1.7-2.3-1.8-2.5-1.7-2.5-1.3-2.5-1.5-2.7-1.2-3-1-3-.8-3-.7-3.3-.8-3.2-.5-3.5-.2-3.3v-3.5l.2-5.2.5-5 1-4.8 1.3-4.5 1.5-4.2 1.7-4.3 2.3-3.7 2.2-3.5 2.5-3.3 3-3 3-2.5 3.3-2 3.2-1.7 3.5-1.3 3.8-.7 3.7-.3 3.8.3 3.5.7 3.5 1.3 3.5 1.7 3.2 2 3 2.5 2.8 3 2.7 3.3 2.3 3.5 2.2 3.7 1.8 4.3 1.5 4.2 1.2 4.5 1 4.8.5 5 .3 5.2-.3 3.5-.2 3.3-.5 3.5-.5 3.2-.8 3.3-1 3-1 3-1.2 3-1.3 2.7-1.5 2.5-1.5 2.5-1.7 2.5-1.8 2.3-2 2-2 1.7-2 1.8-2 1.2-2 1.3-2.2 1-2.3 1-2 .5-2.5.5-2.2.2-2.3.3-2.5-.3-2.2-.2-2.3-.5-2.2-.5-2.3-1-2-1-2-1.3zm75.8 184.7v-1l-4.3-71.5v-1"/><path d="m368.5 327v.8l-1.8 34.2-1 27.3-.2 13.7-.3 12.8v5.2l-2.2 126-.8 45.5-.5 41.3v42.7l.3 6.8h10.2l32.3-.3.7-5.7 20-208.5v1l19.3 211.7.2 1.5h43.8l-2-127.2-2.3-134.3v-5.7l-.2-8.3-.3-7.5-.2-1.2m-116 17h114m-157.8-70.3.3-1.7 1-6 2.7-13.3 2.5-12 2.5-10.5 2.3-9.2 2-8 2-7 3.5-10.8 2.7-7.2 2-4.3 1.3-2.2.2-.5 2.8-2.5 3-2.3 3.7-2.2 3.8-2.3 8.5-4.5 8.5-4 7.2-3 6-2.2 7-2.8.8-.2"/><path d="m368.5 327.8-26.5 106.7-.3.5m195.5-.5-.7-4.7-7.8-57-3-19.8-2.2-14.5-3.5-19.5-3.3-16.2-3-13.3-2.7-10.7-2-7.5-1.8-6-1.5-4.3-1.5-3.2-1-2.3-.7-1.2-.5-.8-2.3-2-2.7-2-3-2.2-3.3-2-7.5-4.3-7.5-3.7-7.7-3.8-6.8-3-10-4.2-2-.8m31 103 25.3 106.3.5 1.7-.8 2.3-.5 3.2-.2 4.3-.3 4.7.3 6 .5 5.8.5 2.5.5 2.2.7 1.8 1 1.5.8-.3.5-.5.5-.7.5-1 .2-1 .8-1 .7-.5 1.3-.5.5 1.7.5 2.5.7 5.3.8 2.5.7 2 .5 1 .8.7.5.5 1 .5h1.5l1.7-.2 1.8-.5 1.5-1 1.5-1 1.2-1.3 1-1.5.8-1.2 1.2-2.8 1.3-3.7 1.5-4.8 1.5-5.2 1.2-5.8.8-6.2.2-3v-3.3l-.2-3-.3-3"/><path d="m536.5 429.8-31 5-1 .2m-51.5-207.5v.3l-.8 2.2-1 2-1 1.8-1.2 2-1.5 1.7-1.5 1.5-1.8 1.5-1.7 1.3-1.8 1.2-2 1-2.2.8-2.3.7-2.2.5-2.5.5-2.5.3h-2.8l-4.5-.5-4.2-1-3.8-1.5-3.7-2-3.3-2.5-1.5-1.3-1.2-1.5-1.3-1.5-1.2-1.7-.8-1.8-1-1.7"/><path d="m445 216.5.5 1 1.2 2.5 2 3.3 1.3 1.5 1.2 1.5 1.8 1.5 1.2.7 1.3.5m-49.5-11.2-.5 1-1.3 2.2-2.2 3-1.3 1.5-1.5 1.5-2 1.5-2.2 1.3m-22.5 453-.3.5-2.7 5.2-3 5.5-3 5.5-3 5.5-.8 1.8-.5 1.7-.2 1.8.2 1.5.5 1.7.5 1.3 1 1.5.8 1 1.2 1.2 1.3 1 1.2.8 1.5.5 1.3.5 1.5.5h2.5l1.7-.3 1.5-.5 1.5-.5 1.5-.7 2.5-2 2.3-2.3 2-2.5 1.5-2.7 1.5-2.8 1-2.7.7-2.8 1-2.7 1.5-2.5 1.5-2.3.8-.7.7-.5 2.3-1 2.5-1.5 2.7-1.5 1-1 1.3-1 .7-1.3.8-1.2.2-1.5v-1.8l-.2-2-.8-2.2m73.8 6.5 2.5 5.2 3 5.3 3 5.5 3 5.2.7 1.8.5 1.7v3.3l-.5 1.7-.5 1.3-1 1.5-1 1-1 1.2-1.2 1-1.3.8-1.5.5-1.2.5-1.5.5h-2.5l-1.8-.3-1.5-.5-1.5-.5-1.5-.7-2.5-2-2.2-2.3-2-2.5-1.8-2.7-1.2-2.8-1-2.7-1-2.8-1-2.7-1.3-2.5-1.5-2.3-1.2-1-2-1-2-1.2-2.5-1-2-1.5-1-1-1-1-.5-1-.5-1.3-.3-1.5-.2-1.5.5-2 .7-2.2m-223.5-389.8-2-1.7-2-1.8-2-2-1.7-2.2-1.8-2.3-1.5-2.5-1.5-2.7-1.5-2.8-1-2.7-1.2-3-.8-3.3-.7-3.2-.8-3.3-.2-3.2-.3-3.5-.2-3.5.2-5 .5-5 1-4.8 1.3-4.7 1.5-4.3 1.7-4 2.3-4 2.2-3.5 2.8-3.2 2.7-2.8 3-2.5 3.3-2.2 3.2-1.5 3.5-1.3 3.8-.7 3.7-.3 3.8.3 3.7.7 3.5 1.3 3.3 1.5 3.2 2.2 3 2.5 2.8 2.8 2.7 3.2 2.3 3.5 2.2 4 1.8 4 1.5 4.3 1.2 4.7 1 4.8.5 5 .3 5-.3 3.5-.2 3.5-.3 3.2-.7 3.3-.8 3.2-.7 3.3-1.3 3-1 2.7-1.5 2.8-1.5 2.7-1.5 2.5-1.7 2.3-1.8 2.2-2 2-2 1.8-2 1.7-2 1.5-2 1-2.2 1-2 1-2.3.8-2.2.5-2.5.2h-4.5l-2.5-.2-2.3-.5-2.2-.8-2-1-2.3-1-2-1zm75.8 184.8v-1l-4.3-71.5v-1"/><path d="m183 398.5v.5l-1.5 34.3-1.3 27.2-.2 13.8-.3 12.7v5.3l-2.2 126-.5 45.7-.5 41-.3 32v11l.3 6.8 10.2-.3 32.5-.2.3-3.8 20.2-210.2v1l19.5 211.5v1.5h44l-2.2-127.3-2.3-134.2v-5.8l-.2-8.2-.3-7.5v-1.3m-116 17h114m-170.2 18 .5-4.5 6-45.2 4-26.8 1.7-11 1.3-8.2 2.7-13.5 2.5-11.8 2.5-10.7 2.3-9 2-8.3 2-6.7 3.5-10.8 2.7-7.2 2-4.5 1.3-2.3.2-.5 2.8-2.2 3.2-2.5 3.5-2.3 4.3-2.2 4.2-2.3 4.5-2 8.8-4 7.5-3 6.5-2.5 3.5-1.2 4.5-1.8"/><path d="m183 399-25.5 106.3-.5 1.7.7 2.3.5 3.5.5 4.2v10.5l-.7 5.8-.5 2.5-.5 2.2-.8 2-.7 1.3h-.8l-.7-.5-.3-1-.5-1-.5-1-.5-.8-1-.7-1-.3-.7 1.8-.3 2.2-1 5.3-.5 2.5-.7 2.2-.8.8-.5.7-.7.8-.8.2-1.7.3-1.5-.3-1.8-.7-1.5-.8-1.5-1.2-1.2-1.3-1.3-1.2-.5-1.3-1.2-2.7-1.5-4-1.5-4.5-1.5-5.5-1-5.8-1-6.2v-3l-.3-3 .3-3.3.5-3"/><path d="m125.5 500.3 1 .2 31 4.8 1.2.2m193 .3-.5-4.8-4-28.7-5.2-37.8-2.3-14.2-1.7-10.3-4-22.7-3.8-18.3-3.5-14.2-2.7-11-1.8-5.5-1.5-4.5-1.2-3.3-1-2.5-1.5-2.5-.5-.7-2-1.8-2.3-1.7-5.7-3.8-6.5-3.7-7-3.5-7.3-3.5-6.7-3-11.5-4.8-5.8-2.2m33 103 25.5 106.2.3 1.8-.8 2.2-.5 3.5-.2 4.3-.3 4.7.3 5.8.7 5.7.3 2.5.7 2.3.5 2 1 1.2h.8l.5-.5.5-1 .5-1 .5-1 .5-.7.7-.8 1.3-.2.5 1.7.5 2.3 1 5.2.5 2.5.7 2.3.5.7.8.8.7.7.8.3 1.5.2 1.7-.2 1.8-.8 1.5-.7 1.5-1.3 1.2-1.2 1-1.3.8-1.2 1.2-2.8 1.3-4 1.7-4.5 1.3-5.5 1.2-5.7.8-6.3.2-3v-6.2l-.5-3"/><path d="m351.2 501-31 5-1.2.3m-51.3-207.5-.2.2-.8 2.3-1 2-1 2-1.2 1.7-1.5 1.8-1.5 1.5-1.5 1.5-1.8 1.2-2 1.3-2 1-2.2 1-2.3.5-2.2.7-2.5.3-2.5.2h-2.8l-4.5-.5-4-1-4-1.5-3.7-2-3.3-2.2-2.7-3-1.3-1.5-1-1.5-1-1.8-1-2"/><path d="m259.5 287.8.7 1.5 1.5 3 1.3 1.7 1.2 2 1.5 1.5 1.8 1.5 1.2.8 1.5.5m-49.7-11-.5 1-1.8 2.7-1.2 1.8-1.3 1.7-1.7 1.8-2 1.5-2.5 1.2m-22.5 453-.3.5-2.5 5.5-3 5.3-3.2 5.7-3 5.5-.8 1.8-.5 1.7v3.3l.5 1.5.5 1.5 1 1.2 1 1.3 1 1 1.3 1 1.2.7 1.5.8 1.3.5 1.5.2 1.2.3 1.3-.3 1.7-.2 1.5-.5 1.5-.5 1.5-.8 2.5-1.7 2.3-2.3 2-2.5 1.7-2.7 1.3-3 1-2.8.7-2.7 1.3-2.5 1.2-2.8 1.5-2.2 1.3-1 2-1.3 2-1 2.2-1.5 1-.7 1-1 .8-1 .5-1.3.5-1.2v-3.3l-.5-2-.8-1.7m75.8 6.2 2.5 5.3 3 5.5 3 5.2 3 5.5.7 1.8.5 1.7.3 1.5-.3 1.8-.5 1.5-.5 1.5-1 1.2-1 1.3-1 1-1.2 1-1.3.7-1.5.8-1.2.5-1.5.2-1.3.3-1.2-.3-1.8-.2-1.5-.5-1.5-.5-1.5-.8-2.5-1.7-2.2-2.3-2-2.5-1.5-2.7-1.5-3-1-2.8-.8-2.7-1.2-2.5-1.3-2.8-1.5-2.2-1.2-1-1.8-1-2.2-1-2.5-1.3-2-1.5-1-1-1-1-.5-1-.5-1.2-.3-1.5v-1.5l.3-2 .7-2"/></g></svg>