<svg height="850.394" viewBox="0 0 850.394 850.394" width="850.394" xmlns="http://www.w3.org/2000/svg"><path d="m425.82 108.24h149.07v20.43h-149.07z" fill="#c8c8c8"/><path d="m274.86 108.24h150.96v20.43h-150.96z" fill="#c8c8c8"/><path d="m445.04 310.64v449.05c0 5.17-4.1 9.369-9.15 9.369h-22.03c-5.05 0-9.15-4.199-9.15-9.369v-449.05c0-5.17 4.1-9.37 9.15-9.37h22.03c5.05 0 9.15 4.2 9.15 9.37z" fill="#fff"/><path d="m464.53 157.98v134.15c0 5.05-4.09 9.14-9.141 9.14h-59.14c-5.05 0-9.14-4.09-9.14-9.14v-134.15c0-5.05 4.09-9.14 9.14-9.14h59.14a9.138 9.138 0 0 1 9.141 9.14z" fill="#ffa500"/><path d="m574.89 128.67v12.85c0 4.04-4.1 7.32-9.14 7.32h-139.93v-20.17z" fill="#fff"/><path d="m425.82 128.67v20.17h-141.81c-5.06 0-9.15-3.28-9.15-7.32v-12.85zm149.07-37.04v16.61h-149.07v-23.93h139.93c5.04 0 9.14 3.28 9.14 7.32zm-149.07-7.32v23.93h-150.96v-16.61c0-4.04 4.09-7.32 9.15-7.32z" fill="#fff"/><g fill="none"><g stroke="#000"><path d="m396.25 148.84h-112.24c-5.06 0-9.15-3.28-9.15-7.32v-49.89c0-4.04 4.09-7.32 9.15-7.32h281.74c5.04 0 9.14 3.28 9.14 7.32v49.89c0 4.04-4.1 7.32-9.14 7.32h-110.36" stroke-width="19.357"/><path d="m413.86 301.27h-17.61c-5.05 0-9.14-4.09-9.14-9.14v-134.15c0-5.05 4.09-9.14 9.14-9.14h59.14a9.138 9.138 0 0 1 9.141 9.14v134.15c0 5.05-4.09 9.14-9.141 9.14h-19.5m0 0c5.051 0 9.15 4.2 9.15 9.37v449.05c0 5.17-4.1 9.369-9.15 9.369h-22.03c-5.05 0-9.15-4.199-9.15-9.369v-449.05c0-5.17 4.1-9.37 9.15-9.37zm-10.07-152.43v-64.53" stroke-width="19.357"/><path d="m274.86 108.24h300.03m-300.03 20.43h300.03" stroke-width="12.905"/></g><path d="m0 0h850.394v850.394h-850.394z"/></g></svg>