<svg height="850" viewBox="0 0 850 850" width="850" xmlns="http://www.w3.org/2000/svg"><path d="m509 530.3-11.7-1.5-2.8-.3-2-.5-1.5-.5-1.2-.5-.8-.5-.7-.7-1.3-2v-1l.3-1.3.2-1.2.5-1.3.8-1 1.2-1 .8-.2h2.7l-2.7-.3-2.3-.5-2.2-.5-1.8-.7-1.5-1-1.2-1-1-1.3-.8-1.5v-1.2l.3-1.3.2-1.5.5-1.5.8-1 .5-.5.7-.5.8-.2h.7l9 .5-1.5-.5-1.2-.5-1.3-.8-.7-1-.8-1.2-.5-1-.2-1.3v-2.5l.2-1.2.5-1 .8-1 .7-.8 1-.7 1.3-.3h1.5l12 .5 20.5.8 30.7 1.7h4.5l3-.5 2-.7 1-.5.5-.8-.2-.7-.3-.8-.7-.5-2-1.5-2.8-1.5-5.2-2.2-2.3-1-3.2-.8-2.5-1.2-1.8-1-1.5-1.3-1.2-1.2-.8-1.3-.5-1.5-.2-1.2-.3-1.3.3-1.2.2-1.3.5-1 .8-1 .7-.7.8-.5 1-.5h.7l1 .2 2.8.8 3.7 1 9.3 1.7 8.7 1.5 3.8.8 3.5.7 2.7 1 3 1.3 3.3 1.7 3.2 1.8 3 2 3.3 2 2.7 2 2.5 2 2.3 1.7 5.7 4.8 3.5 3.5 3.5 3.7 3.5 4.3 3.5 4.5.8 1.5.7 1.7 1 3.3.8 3.5v3.5l-.3 3.5-.5 3.2-.5 3.3-.7 2.7-2 5.3-.8 2-1 1.2-1.5 1-2.2 1-2.5 1-3.3.8-3.2.7-7.8 1.5-11 1.3-11 .7-9 .3h-6.2l-14.3-1.8-13-1.5-11.5-1.7-5.7-1-5.5-1.3-4.8-1.2-3.7-1.3-1.5-.5-1.3-.7-.5-.8-.2-.5v-2.2l.2-1.5.5-1.3.5-.7.8-.8 1-.2z" fill="#ffeec8"/><path d="m626.8 533.5.7-2.7.5-3.3.5-3.2.3-3.5v-3.5l-.8-3.5-1-3.3-.7-1.7-.8-1.5-3.5-4.5-3.5-4.3-3.5-3.7-3.5-3.5-5.7-4.8-2.3-1.7-2.5-2-2.7-2-3.3-2-3-2-3.2-1.8-3.3-1.7-3-1.3-2.7-1-3.5-.7-3.8-.8-8.7-1.5v-.2l-1.3-5.5-38.2-70.8-133.5 25.3v-.5l-.3-3.3-.7-10.5-1-18-.8-26v-4.2l.3-4.3.7-4.2.8-4 1-4.3 1.2-4 1.3-4 1.5-4 1.7-3.7 1.8-3.8 4-7.2 4.2-7 4.5-6.3 4.3-5.7 4.5-5.3 4-4.5 3.5-4 5.5-5.2 2-2 2-3.3 6.2 3 6.3 2 6.5 1.8 3.2.5 3.5.5 3.3.5h9.7l3.5-.5 3.3-.5 3.2-.5 3.3-1 3.7-1 3.3-1.3 3.5-1.5 3.2-1.5 3.3-1.7 3-2 3-2 2.7-2.3 2.8-2.5 2.7-2.5 2.5-2.5 2.5-2.7 2.3-3 2.2-3 2-3.3 2-3.2 14.8 4.7 14 4.3 17.2 5 4.8 1.5 4.5 1.5 4.2 1.7 4.3 2 4 2 4 2.3 3.7 2.2 3.5 2.5 3.5 2.8 3.5 2.7 3.3 2.8 3.2 3 6 6.2 5.8 6.8 5.2 7 5.3 7 4.7 7.5 4.8 7.5 9 15 8.7 15.2 13 22 7 11.5 6.5 11.3 6.5 11.5 5.8 11.2 5.2 11.3 2.5 5.5 2 5.2 1.8 5.5 1.7 5 1.3 5.3 1 5 .7 4.7.3 4.8v4.7l-.5 4.3-.8 4.2-1.2 4.3-1.8 3.7-2.2 3.8-2.8 3.5-3.2 3.2-3.8 3-4.2 2.8-6.3 3.5-6.2 3.2-5.8 3-5.7 2.5-5.8 2.5-5.5 2.3-5.2 2-5 1.5-5 1.5-4.8 1.2-4.5 1-4.5.8-4 .5-4 .2-3.7.3-3.5-.3z" fill="#a9d7f3"/><path d="m667.3 528.8.7 4.7 1 5.3 1.3 7 1.2 8.5 1 9.5.8 10.5.5 11v11.5l-.5 5.7-.5 5.8-.5 5.5-1 5.7-1.3 5.5-1.2 5.5-1.8 5-2 5-2.2 4.8-2.5 4.5-3 4.2-3.5 3.8-3.5 3.5-4.3 3-8 5-8 4.2-8 3.8-8.2 3.2-8.3 2.8-8 2.2-8.2 1.8-8 1.2-8.3 1-8 .5-7.7.3h-7.8l-7.7-.3-7.3-.5-7.5-.7-7-.8-10-1.5-9.2-1.7-9-2-8-1.8-14-3.5-5.8-1.2-4.5-1-.5-1 12.5-3.5 11.5-3.5 10.5-3.5 9.5-3.8 8.5-3.5 7-3.5 3.3-1.7 2.7-1.8 2.5-1.7 2-1.8 2-2 2.3-2.2 1.7-2.3 1.8-2.2 1.5-2.5 1.2-2.5 1.3-2.5 1.2-2.5.8-2.5.7-2.8.8-2.5.5-2.7.2-2.5v-8l-.5-2.5-.2-2.8-.8-2.5-.7-2.5-1-2.5-1-2.2-1.3-2.5-1.5-2.3-1.5-2.2-1.7-2-2-2-2-2-2.3-1.8-2.2-1.7-2.5-1.5-2.8-1.5 93-11.8-6.2-11-5.3-1 7.8-1.5 3.2-.7 3.3-.8 2.5-1 2.2-1 1.5-1 1-1.2.8-2 2-5.3h4l3.5.3 3.7-.3 4-.2 4-.5 4.5-.8 4.5-1 4.8-1.2 5-1.5z" fill="#7a7878"/><path d="m325.3 429 65.5-12.2 133.5-25.3 38.2 70.8 1.3 5.5v.2l-9.3-1.7-3.7-1-2.8-.8-1-.2h-.7l-1 .5-.8.5-.7.7-.8 1-.5 1-.2 1.3-.3 1.2.3 1.3.2 1.2.5 1.5.8 1.3 1.2 1.2 1.5 1.3 1.8 1 2.5 1.2 3.2.8 2.3 1 5.2 2.2 2.8 1.5 2 1.5.7.5.3.8.2.7-.5.8-1 .5-2 .7-3 .5h-4.5l-30.7-1.7-20.5-.8-12-.5h-1.5l-1.3.3-1 .7-.7.8-.8 1-.5 1-.2 1.2v2.5l.2 1.3.5 1 .8 1.2.7 1 1.3.8 1.2.5 1.5.5-9-.5h-.7l-.8.2-.7.5-.5.5-.8 1-.5 1.5-.2 1.5-.3 1.3v1.2l.8 1.5 1 1.3 1.2 1 1.5 1 1.8.7 2.2.5 2.3.5 2.7.3h-2.7l-.8.2-1.2 1-.8 1-.5 1.3-.2 1.2-.3 1.3v1l1.3 2 .7.7.8.5 1.2.5 1.5.5 2 .5 2.8.3 11.7 1.5-2.7 1-1 .2-.8.8-.5.7-.5 1.3-.2 1.5v2.2l.2.5.5.8 1.3.7 1.5.5 3.7 1.3 4.8 1.2 5.5 1.3 5.7 1 11.5 1.7 13 1.5 14.3 1.8h6.2l9-.3 11-.7 11-1.3 5.3 1 6.2 11-93 11.8-3.2-1.8-3.8-1.2-3.7-1.3-4-.7-4.3-.8-4.5-.5-4.7-.2-5 .2-7 .5-6.8 1-6.7 1.3-6.5 1.7-6.5 2-6.3 2.3-6.2 2.5-6.3 2.7-6.2 3-6 3.3-12.5 7-25.8 15-.2-.3-60.3-99-42.2-69-1-2.2z" fill="#ed1d31"/><path d="m533.5 237.3-2 3.2-2 3.3-2.2 3-2.3 3-2.5 2.7-2.5 2.5-2.7 2.5-2.8 2.5-2.7 2.3-3 2-3 2-3.3 1.7-3.2 1.5-3.5 1.5-3.3 1.3-3.7 1-3.3 1-3.2.5-3.3.5-3.5.5h-9.7l-3.3-.5-3.5-.5-3.2-.5-6.5-1.8-6.3-2-6.2-3-4.8-2.5-4.7-2.7-4.5-3-4.3-3.5-4.2-3.8-4.3-4-4-4.2-3.7-4.5-3.5-4.8-3.3-5-3.2-5.2-3-5.3-2.5-5.7-2.5-5.8-2.3-6.2-1.7-6.3-1.3-5-1.2-5.2-.8-5.3-.7-5-.3-5.2-.2-5v-10l.5-5 .5-4.8 1-4.7 1-4.8 1-4.5 1.5-4.5 1.5-4.2 1.7-4.3 1.8-4 2.2-4 2.3-4 2.2-3.5 2.5-3.5 2.8-3.5 3-3 3-3 3.2-3 3.3-2.5 3.5-2.5 3.5-2.2 3.7-2 4-1.8 4-1.5 4-1.2 4.3-1 4.2-.8 4.3-.5h8.5l4.2.3 4.3.5 4 .7 4.2 1 4 1.3 4 1.5 4 1.7 4 2 4 2.3 3.8 2.2 3.7 2.5 3.5 2.8 3.8 3 3.2 3 3.5 3.5 3.3 3.5 3 3.5 3 4 2.7 4 2.8 4.2 2.5 4.3 2.5 4.5 2.2 4.5 2 4.7 2 5 1.8 5 1.5 5 1.5 6 1.2 6 .8 5.8.7 6 .3 5.7v5.8l-.3 5.7-.2 5.5-.8 5.5-1 5.5-1.2 5.3-1.5 5-1.8 5-2 5-2.2 4.5zm-12.5 334.5 2.8 1.5 2.5 1.5 2.2 1.7 2.3 1.8 2 2 2 2 1.7 2 1.5 2.2 1.5 2.3 1.3 2.5 1 2.2 1 2.5.7 2.5.8 2.5.2 2.8.5 2.5v8l-.2 2.5-.5 2.7-.8 2.5-.7 2.8-.8 2.5-1.2 2.5-1.3 2.5-1.2 2.5-1.5 2.5-1.8 2.2-1.7 2.3-2.3 2.2-2 2-2 1.8-2.5 1.7-2.7 1.8-3.3 1.7-7 3.5-8.5 3.5-9.5 3.8-10.5 3.5-11.5 3.5-12.5 3.5-10 2.7-10.7 2.5-22.3 5-23.5 4.8-24.2 4.2-20.8 3.3-21 2.7-20.7 2.3-20.3 2-19.5 1-9.5.5-9.2.2h-9l-8.8-.2-8.2-.3-8-.5h-2.3l-2.2.3-5.5 1.2-6.3 1.5-3.7.8-4 .5-4.3.5-4.7.2h-5l-5.5-.5-5.8-.7-6.2-1.3-6.8-1.7-7.2-2.5-2-.8-1.8-1-3.7-2.2-3.5-3-3-3.5-3-3.8-2.5-4-2-4.5-1.3-4.5-.5-2.2-.5-2.3v-6.5l.5-2.2.5-2 1-2.3 1-2 1.3-1.7 1.5-1.8 1.7-1.7 2-1.8 2.3-1.5 2.7-1.2 2.8-1.3 3-1 3.2-.7 3.3-.8 3.2-.7 6.5-.8 6.8-.2h6.7l6.8.5 6.5.7 6.2 1 5.8 1 5.5 1 9 2.3 6 1.7 2 .8 1 .2 3 1.3 2.2.7 3 .5 3.5.8 4 .5 4.5.5h11.3l6.5-.5 7.5-.8 7.7-1 8.8-1.7 9.5-2 6.5-1.8 7-2 7.2-2.2 7.5-2.8 9.5-3.5 9-3.5 8.8-4 8.2-4 8.3-4 7.7-4.2 15-8.5 25.8-15 12.5-7 6-3.3 6.2-3 6.3-2.7 6.2-2.5 6.3-2.3 6.5-2 6.5-1.7 6.7-1.3 6.8-1 7-.5 5-.2 4.7.2 4.5.5 4.3.8 4 .7 3.7 1.3 3.8 1.2z" fill="#ffeec8"/><path d="m520 688-.2 2 .2 1.3.3 5v19l-.5 10.2-.8 25.8-.5 5-.5 4.2-.5 4-1 3.3-1 3-1.7 2.5-1.8 2-2.5 1.7-3 1.3-3.5 1-4 .7-4.7.5h-1.5l-1.3-.2-1.2-.3-1-.5-1.3-.7-1-.8-1.7-2-1.8-2.5-1.5-3-1.2-3.2-1.3-3.8-2.5-8.5-2.5-9-2.5-9.2-1.7-4.8-1.8-4.5-1.7-3.7-2-3.3-2.3-3.2-2.7-2.8-3-2.7-3-2.5-3.5-2.3-3.5-2-3.8-1.7-3.7-1.5-4-1.5-4-1.5-4-1-4.3-1-8.2-1.5-8.3-1.3-8-.5-7.2-.5h-12.5l-4.8.3-5.7.2 24.2-4.2 23.5-4.8 22.3-5 10.7-2.5 10-2.7.5 1 4.5 1 5.8 1.2 14 3.5 8 1.8 9 2 9.2 1.7zm-135.2-80.5.2.3-15 8.5-7.7 4.2-8.3 4-8.2 4-8.8 4-9 3.5-9.5 3.5-7.5 2.8-7.2 2.2-7 2-6.5 1.8-.3-.5-4.7-4-13.3-11.3-9.2-8.2-10.5-9.8-11.8-11-12.7-12.5-3-3.2-2.8-3.3-2.5-3.2-2-3.3-1.7-3.2-1.8-3-1.2-3.3-1-3-.8-3.2-.5-3-.2-3-.3-3 .3-3 .2-2.8.5-2.7.5-2.8 1.5-5.2 2.3-4.8 2.2-4.5 2.8-4.2 2.7-3.8 3-3.2 2.8-2.5 2.7-2.3 1.3-.7 1.7-.8 2-.7 2.3-.5 5-1 6-.8 6.7-.5 7-.2h15.3l14.7.5 13.5.5 17.5 1.2z" fill="#ffeec8"/><path d="m325.3 429-44 8.3-6-13.5-2.5-81.5z" fill="#ffffc2"/><g fill="none" stroke="#231f20" stroke-linecap="round" stroke-miterlimit="10"><path d="m436.8 267.5-4.8-2.5-4.7-2.7-4.5-3-4.3-3.5-4.2-3.8-4.3-4-4-4.2-3.7-4.5-3.5-4.8-3.3-5-3.2-5.2-3-5.3-2.5-5.7-2.5-5.8-2.3-6.2-1.7-6.3-1.3-5-1.2-5.2-.8-5.3-.7-5-.3-5.2-.2-5v-10l.5-5 .5-4.8 1-4.7 1-4.8 1-4.5 1.5-4.5 1.5-4.2 1.7-4.3 1.8-4 2.2-4 2.3-4 2.2-3.5 2.5-3.5 2.8-3.5 3-3 3-3 3.2-3 3.3-2.5 3.5-2.5 3.5-2.2 3.7-2 4-1.8 4-1.5 4-1.2 4.3-1 4.2-.8 4.3-.5h8.5l4.2.3 4.3.5 4 .7 4.2 1 4 1.3 4 1.5 4 1.7 4 2 4 2.3 3.8 2.2 3.7 2.5 3.5 2.8 3.8 3 3.2 3 3.5 3.5 3.3 3.5 3 3.5 3 4 2.7 4 2.8 4.2 2.5 4.3 2.5 4.5 2.2 4.5 2 4.7 2 5 1.8 5 1.5 5 1.5 6 1.2 6 .8 5.8.7 6 .3 5.7v5.8l-.3 5.7-.2 5.5-.8 5.5-1 5.5-1.2 5.3-1.5 5-1.8 5-2 5-2.2 4.5-2.3 4.5-2 3.2-2 3.3-2.2 3-2.3 3-2.5 2.7-2.5 2.5-2.7 2.5-2.8 2.5-2.7 2.3-3 2-3 2-3.3 1.7-3.2 1.5-3.5 1.5-3.3 1.3-3.7 1-3.3 1-3.2.5-3.3.5-3.5.5h-9.7l-3.3-.5-3.5-.5-3.2-.5-6.5-1.8-6.3-2zm-52 340-60.3-99-42.2-69-1.3-2.2h.3l44-8.3 65.5-12.2 133.5-25.3 38.2 70.8 1.3 5.5m-44 104h1.2l93-11.8-6.2-11" stroke-width="14"/><path d="m275.5 430-.2-6.2-2.5-81.5 52.5 86.7.5 1m109-159.2-2 2-5.5 5.2-3.5 4-4 4.5-4.5 5.3-4.3 5.7-4.5 6.3-4.2 7-4 7.2-1.8 3.8-1.7 3.7-1.5 4-1.3 4-1.2 4-1 4.3-.8 4-.7 4.2-.3 4.3v4.2l.8 26 1 18 .7 10.5.3 3.3m142.5-179h.2l14.8 4.7 14 4.3 17.2 5 4.8 1.5 4.5 1.5 4.2 1.7 4.3 2 4 2 4 2.3 3.7 2.2 3.5 2.5 3.5 2.8 3.5 2.7 3.3 2.8 3.2 3 6 6.2 5.8 6.8 5.2 7 5.3 7 4.7 7.5 4.8 7.5 9 15 8.7 15.2 13 22 7 11.5 6.5 11.3 6.5 11.5 5.8 11.2 5.2 11.3 2.5 5.5 2 5.2 1.8 5.5 1.7 5 1.3 5.3 1 5 .7 4.7.3 4.8v4.7l-.5 4.3-.8 4.2-1.2 4.3-1.8 3.7-2.2 3.8-2.8 3.5-3.2 3.2-3.8 3-4.2 2.8-6.3 3.5-6.2 3.2-5.8 3-5.7 2.5-5.8 2.5-5.5 2.3-5.2 2-5 1.5-5 1.5-4.8 1.2-4.5 1-4.5.8-4 .5-4 .2-3.7.3-3.5-.3" stroke-width="14"/><path d="m585.8 285.5-1 1-2.8 3.5-1.5 2.5-1.7 2.8-2 3.5-1.5 3.7-1.5 4.3-1.5 4.5-.8 4.7-.5 5.3v5.5l.5 3 .3 2.7.7 3 .8 3.3 1 3 1.2 3.2 3.3 6.5 4.2 7.5 4.5 7.8 5.5 8.2 5.5 8.3 6 8.5 12.3 16.2 11.2 14.8 9.8 12 9 10.7m30.5-10-4.8 2.5-9.7 5.3-27.3 15-38.2 21.2m-271.5 29.3-1.3-.3-17.5-1.2-13.5-.5-14.7-.5h-15.3l-7 .2-6.7.5-6 .8-5 1-2.3.5-2 .7-1.7.8-1.3.7-2.7 2.3-2.8 2.5-3 3.2-2.7 3.8-2.8 4.2-2.2 4.5-2.3 4.8-1.5 5.2-.5 2.8-.5 2.7-.2 2.8-.3 3 .3 3 .2 3 .5 3 .8 3.2 1 3 1.2 3.3 1.8 3 1.7 3.2 2 3.3 2.5 3.2 2.8 3.3 3 3.2 12.7 12.5 11.8 11 10.5 9.8 9.2 8.2 13.3 11.3 4.7 4m377.3-119 .7 4.7 1 5.3 1.3 7 1.2 8.5 1 9.5.8 10.5.5 11v11.5l-.5 5.7-.5 5.8-.5 5.5-1 5.7-1.3 5.5-1.2 5.5-1.8 5-2 5-2.2 4.8-2.5 4.5-3 4.2-3.5 3.8-3.5 3.5-4.3 3-8 5-8 4.2-8 3.8-8.2 3.2-8.3 2.8-8 2.2-8.2 1.8-8 1.2-8.3 1-8 .5-7.7.3h-7.8l-7.7-.3-7.3-.5-7.5-.7-7-.8-10-1.5-9.2-1.7-9-2-8-1.8-14-3.5-5.8-1.2-4.5-1" stroke-width="14"/><path d="m368.3 693.5 24.2-4.2 23.5-4.8 22.3-5 10.7-2.5 10-2.7 12.5-3.5 11.5-3.5 10.5-3.5 9.5-3.8 8.5-3.5 7-3.5 3.3-1.7 2.7-1.8 2.5-1.7 2-1.8 2-2 2.3-2.2 1.7-2.3 1.8-2.2 1.5-2.5 1.2-2.5 1.3-2.5 1.2-2.5.8-2.5.7-2.8.8-2.5.5-2.7.2-2.5v-8l-.5-2.5-.2-2.8-.8-2.5-.7-2.5-1-2.5-1-2.2-1.3-2.5-1.5-2.3-1.5-2.2-1.7-2-2-2-2-2-2.3-1.8-2.2-1.7-2.5-1.5-2.8-1.5-3.2-1.8-3.8-1.2-3.7-1.3-4-.7-4.3-.8-4.5-.5-4.7-.2-5 .2-7 .5-6.8 1-6.7 1.3-6.5 1.7-6.5 2-6.3 2.3-6.2 2.5-6.3 2.7-6.2 3-6 3.3-12.5 7-25.8 15-15 8.5-7.7 4.2-8.3 4-8.2 4-8.8 4-9 3.5-9.5 3.5-7.5 2.8-7.2 2.2-7 2-6.5 1.8-9.5 2-8.8 1.7-7.7 1-7.5.8-6.5.5h-11.3l-4.5-.5-4-.5-3.5-.8-3-.5-2.2-.7-3-1.3-1-.2-2-.8-6-1.7-9-2.3-5.5-1-5.8-1-6.2-1-6.5-.7-6.8-.5h-6.7l-6.8.2-6.5.8-3.2.7-3.3.8-3.2.7-3 1-2.8 1.3-2.7 1.2-2.3 1.5-2 1.8-1.7 1.7-1.5 1.8-1.3 1.7-1 2-1 2.3-.5 2-.5 2.2v6.5l.5 2.3.5 2.2 1.3 4.5 2 4.5 2.5 4 3 3.8 3 3.5 3.5 3 3.7 2.2 1.8 1 2 .8 7.2 2.5 6.8 1.7 6.2 1.3 5.8.7 5.5.5h5l4.7-.2 4.3-.5 4-.5 3.7-.8 6.3-1.5 5.5-1.2 2.2-.3h2.3l8 .5 8.2.3 8.8.2h9l9.2-.2 9.5-.5 19.5-1 20.3-2 20.7-2.3 21-2.7z" stroke-width="14"/><path d="m367.8 693.5h.5l5.7-.2 4.8-.3h12.5l7.2.5 8 .5 8.3 1.3 8.2 1.5 4.3 1 4 1 4 1.5 4 1.5 3.7 1.5 3.8 1.7 3.5 2 3.5 2.3 3 2.5 3 2.7 2.7 2.8 2.3 3.2 2 3.3 1.7 3.7 1.8 4.5 1.7 4.8 2.5 9.2 2.5 9 2.5 8.5 1.3 3.8 1.2 3.2 1.5 3 1.8 2.5 1.7 2 1 .8 1.3.7 1 .5 1.2.3 1.3.2h1.5l4.7-.5 4-.7 3.5-1 3-1.3 2.5-1.7 1.8-2 1.7-2.5 1-3 1-3.3.5-4 .5-4.2.5-5 .8-25.8.5-10.2v-19l-.3-5-.2-1.3" stroke-width="14"/><path d="m556.5 492-30.7-1.7-20.5-.8-12-.5h-1.5l-1.3.3-1 .7-.7.8-.8 1-.5 1-.2 1.2v2.5l.2 1.3.5 1 .8 1.2.7 1 1.3.8 1.2.5 1.5.5" stroke-width="7"/><path d="m509.5 530-.5.3-2.7 1-1 .2-.8.8-.5.7-.5 1.3-.2 1.5v2.2l.2.5.5.8 1.3.7 1.5.5 3.7 1.3 4.8 1.2 5.5 1.3 5.7 1 11.5 1.7 13 1.5 14.3 1.8h6.2l9-.3 11-.7 11-1.3 7.8-1.5 3.2-.7 3.3-.8 2.5-1 2.2-1 1.5-1 1-1.2.8-2 2-5.3.7-2.7.5-3.3.5-3.2.3-3.5v-3.5l-.8-3.5-1-3.3-.7-1.7-.8-1.5-3.5-4.5-3.5-4.3-3.5-3.7-3.5-3.5-5.7-4.8-2.3-1.7-2.5-2-2.7-2-3.3-2-3-2-3.2-1.8-3.3-1.7-3-1.3-2.7-1-3.5-.7-3.8-.8-8.7-1.5-9.3-1.7-3.7-1-2.8-.8-1-.2h-.7l-1 .5-.8.5-.7.7-.8 1-.5 1-.2 1.3-.3 1.2.3 1.3.2 1.2.5 1.5.8 1.3 1.2 1.2 1.5 1.3 1.8 1 2.5 1.2 3.2.8 2.3 1 5.2 2.2 2.8 1.5 2 1.5.7.5.3.8.2.7-.5.8-1 .5-2 .7-3 .5h-8.2l-4-.5" stroke-width="10"/><path d="m561 537.3-18.2-2.5-33.8-4.5-11.7-1.5-2.8-.3-2-.5-1.5-.5-1.2-.5-.8-.5-.7-.7-1.3-2v-1l.3-1.3.2-1.2.5-1.3.8-1 1.2-1 .8-.2h2.7l6 .2 7.8.5 17.7 1.5 22.5 2m-54-4.2-2.7-.3-2.3-.5-2.2-.5-1.8-.7-1.5-1-1.2-1-1-1.3-.8-1.5v-1.2l.3-1.3.2-1.5.5-1.5.8-1 .5-.5.7-.5.8-.2h.7l9 .5 43.5 2.2 26.5 1.8" stroke-width="7"/></g></svg>