<svg height="850" viewBox="0 0 850 850" width="850" xmlns="http://www.w3.org/2000/svg"><path d="m659.9 548.1-1-2.7-.3-2.5-.2-2.3.2-2 .8-1.7.7-1.8 1-1.5 1.3-1 1.2-1 1.3-.7 1.5-.5h2.5l1 .5 1 .7.7 1 .8 1.3 1.7 3.2 2.5 3.5 6 8.3 6 8.5 5.5 7.7 1 2.5 1 3.3 1 4.5.8 5 .5 6 .5 6.2.7 13.8v14.2l-.2 13.8-.5 6.2-.5 6-.5 5.3-1 4.5-.8 3.2-1.2 3-1.3 2.5-1.7 2.3-1.8 2-1.7 1.7-1.8 1.3-2 1-1.7 1-1.8.5-3 1-2 .2-.7.3-4.5-.8-11.8-2.5-13-3-6.7-1.7-7-2-6.8-2.3-6.2-2.5-5.8-2.5-2.2-1.5-2.3-1.2-5.7-4-6.3-3.8-13-8-6.2-3.7-5.5-3.8-4.5-3.2-2-1.8-1.5-1.5-1.3-1.2-.7-1.3-.3-1.2v-1l1.5-3 1-2.3 1.3-1.5 1-.7 1.5-.3h1.5l4.7.3-15.7-8.8-3.3-1.7-2.5-1.8-1.7-1.5-1.3-1.2-.7-1.5-.5-1.5-.8-3.3.5-1.5.8-1.5 1.2-1.5 1.3-1.5 1.5-1.2 1-.3 1-.2h1l1.2.2 2.5 1-3.2-2-3-1.7-2.5-2-2-2-1.5-2-1-2.3-.5-2.2-.3-2.8.8-1.5.7-1.7 1-1.8 1.5-1.7.8-.8 1-.5.7-.2 1-.3h1.3l1 .5 11.7 5.3-2-1.3-1.2-1.5-1.3-1.7-.5-1.8-.5-2v-2l.3-1.7.5-1.8 1-1.7 1-1.5 1.2-1.3 1.3-1 1.5-.5 1.7-.5 1.8.3 1.7.5 15.5 7.5 29.3 13.2 16 7.3 14.7 6.2 7.5 3 6.5 2.5 4.8 1.5 1.7.3 1.3.2h.7l.8-.7.5-1.3.5-1.5.2-2-.2-2v-2.5l-.5-2.5-.8-2.7-.7-3-1-3-1.3-3.3-1.5-3-1.7-3-1.8-3-2.2-3-2.3-2.7z" fill="#ffeec8"/><path d="m673.4 520.6-1 13.3-.8-1.3-.7-1-1-.7-1-.5h-2.5l-1.5.5-1.3.7-1.2 1-1.3 1-1 1.5-.7 1.8-.8 1.7-.2 2 .2 2.3.3 2.5 1 2.7.2 1.8 2.3 2.7 2.2 3 1.8 3 1.7 3 1.5 3 1.3 3.3 1 3 .7 3 .8 2.7.5 2.5v2.5l.2 2-.2 2-.5 1.5-.5 1.3-.8.7h-.7l-1.3-.2-1.7-.3-4.8-1.5-6.5-2.5-7.5-3-14.7-6.2-16-7.3-29.3-13.2-15.5-7.5-1.7-.5-1.8-.3-1.7.5-1.5.5-1.3 1-1.2 1.3-1 1.5-1 1.7-.5 1.8-.3 1.7v2l.5 2 .5 1.8 1.3 1.7 1.2 1.5 2 1.3-11.7-5.3-1-.5h-1.3l-1 .3-.7.2-1 .5-.8.8-1.5 1.7-1 1.8-.7 1.7-.8 1.5.3 2.8.5 2.2 1 2.3 1.5 2 2 2 2.5 2 3 1.7 3.2 2-2.5-1-1.2-.2h-1l-1 .2-1 .3-1.5 1.2-1.3 1.5-1.2 1.5-.8 1.5-.5 1.5.8 3.3.5 1.5.7 1.5 1.3 1.2 1.7 1.5 2.5 1.8 3.3 1.7 15.7 8.8-4.7-.3h-1.5l-1.5.3-1 .7-1.3 1.5-1 2.3-1.5 3v1l.3 1.2.7 1.3 1.3 1.2 1.5 1.5 2 1.8 4.5 3.2 5.5 3.8 6.2 3.7 13 8 6.3 3.8 5.7 4 2.3 1.2 2.2 1.5 5.8 2.5 6.2 2.5 6.8 2.3 7 2 6.7 1.7 13 3-.2.3-7.5 12-45.8 19.2-156.5 66.5-2.2 1-2.3.8-2.2.2h-2l-2-.2-1.8-.5-1.7-.8-1.5-1-1.5-1.5-1.3-1.5-1-1.7-1-2-.7-2.3-.5-2.2-.3-2.8-.2-2.7v-312.8l.2-3 .3-3 .5-2.7.7-3 1-2.8 1-3 1.3-2.7 1.5-2.5 1.5-2.8 1.7-2.2 1.8-2.3 2-2.2 2-1.8 2.2-1.7 2.3-1.5 2.2-1.3 94.3-40 108-46 2.2-.7 2.3-.8 2-.2h2l2 .2 1.7.5 1.8.8 1.5 1 1.5 1.2 1.2 1.8 1 1.7 1 2 .8 2 .5 2.5.5 2.8v2.7z" fill="#ed1d31"/><path d="m489.1 301.1-3.5 3-3.2 3-3.5 2.5-3.5 2.5-3.8 2.5-3.7 2.3-3.8 2-4 1.7-3.7 1.5-4 1.5-4.3 1.3-4 1-4.2.7-4.3.5-4.2.3-4.5.2-4.5-.2-4.5-.3-4.5-.7-4.5-.8-4.3-1.2-4.5-1.3-4-1.5-4.2-1.7-4-2-4-2.3-4-2.5-3.8-2.5-3.7-2.7-3.5-3-3.5-3.3-3.3-3.2-4.2-4.8-4.3-4.7-3.7-5.3-3.5-5.5-3.5-5.5-3-6-3-6.2-2.5-6.3-2.3-6.5-2.2-6.7-1.8-7-1.5-7-1-7.3-1-7.5-.5-7.5v-14.2l.5-6.5.5-6.8 1-6.2 1.3-6.3 1.2-6.2 1.8-6 1.7-6 2-5.8 2.3-5.7 2.5-5.5 2.7-5.3 2.8-5 3.2-5 3.3-4.7 3.2-4.5 3.5-4.3 3.8-4.2 4-3.8 4-3.7 4.2-3.3 4.3-3.2 4.5-2.8 4.5-2.7 4.7-2.3 4.8-2 4.7-1.7 5-1.5 5-1.3 5.3-.7 5.2-.5 5.3-.3 5.2.3 5.3.5 5.2.7 5 1.3 5 1.5 4.8 1.7 5 2 4.5 2.3 4.5 2.7 4.5 2.8 4.2 3.2 4.3 3.3 4 3.7 4 3.8 3.7 4.2 3.5 4.3 3.5 4.5 3.3 4.7 3 5 2.7 5 2.8 5.3 2.5 5.5 2.2 5.7 2 5.8 2 6 1.5 6 1.5 6.2 1 6.3 1 6.2.5 6.8.5 6.5.3 6.7-.3 8-.5 7.8-1 7.5-1.2 7.5-1.5 7.2-2 7.3-2.3 7-2.5 6.7-2.7 6.5-3 6.3-3.5 6-3.5 6-4 5.5-4 5.2-4.3 4.8z" fill="#ffeec8"/><path d="m449.1 402.6-2.2 1.3-2.3 1.5-2.2 1.7-2 1.8-2 2.2-1.8 2.3-1.7 2.2-1.5 2.8-1.5 2.5-1.3 2.7-1 3-1 2.8-.7 3-.5 2.7-.3 3-.2 3v312.8h-3.5v-315.8l-.3-3-.7-2.7-.8-3-.7-2.8-1.3-3-1.2-2.7-1.5-2.5-1.5-2.8-1.8-2.2-1.7-2.3-2-2.2-2-1.8-2-1.7-2.3-1.5-2.2-1.3-97.3-41.2.5-1 5.8-.5 5.5-1 5-1.3 4.7-1.7 4.3-1.8 4-2 3.5-2 3.2-2.5.5.3.8.2 2.7 1.5 4.3 2.3 5.7 2.7 7.3 3.3 8.5 3.2 4.5 1.8 5 1.5 5.2 1.2 5.5 1.3 5.8 1.2 6 .8 6.2.7 6.3.5h6.7l6.8-.2 7-.5 7-.8 7.2-1.5 7.5-1.7 7.5-2.3 7.8-2.7 7.7-3.5 8-3.8 8-4.5 8-5.2 3.3 3 3.5 3 4.2 2.7 4.5 2.3 4.8 2.2 5.5 1.8 6.2 1.5 6.5 1 .8 1.7z" fill="#a9d7f3"/><path d="m426.9 753.9.2 2.7.3 2.8.5 2.2.7 2.3 1 2 1 1.7 1.3 1.5 1.5 1.5 1.5 1 1.7.8 1.8.5 2 .2h2l2.2-.2 2.3-.8 2.2-1 156.5-66.5v80.5l-360-1.5v-80.5l155.8 68 2.2 1 2.3.8 2 .2h2l2-.2 1.7-.5 1.8-.8 1.5-1 1.5-1.5 1.2-1.5 1.3-1.7.7-2 .8-2.3.7-2.2.3-2.8v-2.7z" fill="#a9d7f3"/><path d="m362.1 298.4 3.3 3.2 3.5 3.3 3.5 3 3.7 2.7 3.8 2.5 4 2.5 4 2.3 4 2 4.2 1.7 4 1.5 4.5 1.3 4.3 1.2 4.5.8 4.5.7 4.5.3 4.5.2 4.5-.2 4.2-.3 4.3-.5 4.2-.7 4-1 4.3-1.3 4-1.5 3.7-1.5 4-1.7 3.8-2 3.7-2.3 3.8-2.5 3.5-2.5 3.5-2.5 3.2-3 3.5-3-.2 2.5.2 4 .8 5 1 5.5.7 3.3 1 3 1.3 3.2 1.5 3.3 1.7 3.2 2 3 2.5 3.3 2.5 3-8 5.2-8 4.5-8 3.8-7.7 3.5-7.8 2.7-7.5 2.3-7.5 1.7-7.2 1.5-7 .8-7 .5-6.8.2h-6.7l-6.3-.5-6.2-.7-6-.8-5.8-1.2-5.5-1.3-5.2-1.2-5-1.5-4.5-1.8-8.5-3.2-7.3-3.3-5.7-2.7-4.3-2.3-2.7-1.5-.8-.2-.5-.3 4-3.5 3.5-3.7 2.8-4 2.5-4 2-4 1.7-4 1.3-4 1-3.8.7-3.5.5-3.2.5-5.5v-5zm-86 251 1.8-.8h1.7l1.8.3 1.5.7 1.5.8 1 1.2 1.2 1.5.8 1.8.5 1.7.2 2v1.8l-.2 2-.8 1.7-1 1.8-1.5 1.5-2 1.5 11.8-5.5 1.2-.3 1-.2 1 .2.8.3 1 .7.7.5 1.5 1.8 1 1.7 1 1.8.5 1.7-.2 2.5-.5 2.3-1 2.2-1.5 2.3-2 1.7-2.5 2-2.8 2-3.5 1.8 2.5-1 1.3-.3h1l1 .3 1 .2 1.5 1.3 1.5 1.5 1 1.5.7 1.5.5 1.5-.7 3.2-.5 1.5-.8 1.5-1.2 1.5-1.8 1.5-2.5 1.5-3.2 2-15.8 8.5 4.8-.2h1.5l1.5.5 1 .7 1.2 1.5 1.3 2 1.2 3.3v1l-.2 1-.8 1.2-1.2 1.5-1.5 1.5-1.8 1.5-4.7 3.5-5.5 3.5-6 4-13 7.8-6.3 4-5.7 3.7-2.3 1.3-2.2 1.5-5.3 2.5-6 2.2-6.2 2.3-6.5 1.7-6.8 2-12.5 3-13.2 2.5-5.5 1h-.8l-2-.5-3-.7-1.7-.8-1.8-.7-2-1.3-1.7-1.2-1.8-1.8-1.7-1.7-1.5-2.3-1.5-2.5-1.3-3-.7-3.5-.8-4.5-.7-5.2-.5-5.8-.5-6.5-.3-13.7v-14.3l.8-13.7.5-6.3.5-5.7.7-5.3 1-4.2 1-3.5 1-2.5 5.3-7.3 5.7-8 5.8-8 2.5-3.7 2-3 1.5-2.5.5-1 1-.8 1-.2 1.2-.3 1.5.3 1.3.5 1.2.5 1.5 1 1 1.2 1 1.3 1 1.7.5 1.8.3 2.2v2.3l-.5 2.5-1 2.7-.3 1.8-2.2 2.7-2.3 2.8-1.7 3-1.8 3-1.5 3.2-1.2 3-1 3-.8 3-.7 2.8-.3 2.7-.2 2.3v4l.5 1.5.5 1.2.7.8h2l1.8-.5 5-1.5 6.2-2.5 7.5-3 15-6.3 15.8-7 29.2-13.5z" fill="#ffeec8"/><path d="m282.6 568.9 2-1.5 1.5-1.5 1-1.8.8-1.7.2-2v-1.8l-.2-2-.5-1.7-.8-1.8-1.2-1.5-1-1.2-1.5-.8-1.5-.7-1.8-.3h-1.7l-1.8.8-15.5 7.2-29.2 13.5-15.8 7-15 6.3-7.5 3-6.2 2.5-5 1.5-1.8.5h-2l-.7-.8-.5-1.2-.5-1.5v-4l.2-2.3.3-2.7.7-2.8.8-3 1-3 1.2-3 1.5-3.2 1.8-3 1.7-3 2.3-2.8 2.2-2.7.3-1.8 1-2.7.5-2.5v-2.3l-.3-2.2-.5-1.8-1-1.7-1-1.3-1-1.2-1.5-1-1.2-.5-1.3-.5-1.5-.3-1.2.3-1 .2-1 .8-.5 1-1.5 2.5-.5-.5v-202.3l.2-2.7.3-2.8.5-2.5.7-2 1-2 1.3-1.7 1.2-1.8 1.3-1.2 1.7-1 1.5-.8 2-.5 1.8-.2h2.2l2 .2 2.3.8 2.2.7 105 44.8 97.3 41.2 2.2 1.3 2.3 1.5 2 1.7 2 1.8 2 2.2 1.7 2.3 1.8 2.2 1.5 2.8 1.5 2.5 1.2 2.7 1.3 3 .7 2.8.8 3 .7 2.7.3 3v318.5l-.3 2.8-.7 2.2-.8 2.3-.7 2-1.3 1.7-1.2 1.5-1.5 1.5-1.5 1-1.8.8-1.7.5-2 .2h-2l-2-.2-2.3-.8-2.2-1-155.8-68-48-21-3.7-7-.3-.5 12.5-3 6.8-2 6.5-1.7 6.2-2.3 6-2.2 5.3-2.5 2.2-1.5 2.3-1.3 5.7-3.7 6.3-4 13-7.8 6-4 5.5-3.5 4.7-3.5 1.8-1.5 1.5-1.5 1.2-1.5.8-1.2.2-1v-1l-1.2-3.3-1.3-2-1.2-1.5-1-.7-1.5-.5h-1.5l-4.8.2 15.8-8.5 3.2-2 2.5-1.5 1.8-1.5 1.2-1.5.8-1.5.5-1.5.7-3.2-.5-1.5-.7-1.5-1-1.5-1.5-1.5-1.5-1.3-1-.2-1-.3h-1l-1.3.3-2.5 1 3.5-1.8 2.8-2 2.5-2 2-1.7 1.5-2.3 1-2.2.5-2.3.2-2.5-.5-1.7-1-1.8-1-1.7-1.5-1.8-.7-.5-1-.7-.8-.3-1-.2-1 .2-1.2.3z" fill="#ed1d31"/><g fill="none" stroke="#231f20" stroke-linecap="round" stroke-miterlimit="10"><path d="m672.1 535.4.3-1.5 1-13.3v-189.2l-.5-2.8-.5-2.5-.8-2-1-2-1-1.7-1.2-1.8-1.5-1.2-1.5-1-1.8-.8-1.7-.5-2-.2h-2l-2 .2-2.3.8-2.2.7-108 46-94.3 40-2.2 1.3-2.3 1.5-2.2 1.7-2 1.8-2 2.2-1.8 2.3-1.7 2.2-1.5 2.8-1.5 2.5-1.3 2.7-1 3-1 2.8-.7 3-.5 2.7-.3 3-.2 3v312.8l.2 2.7.3 2.8.5 2.2.7 2.3 1 2 1 1.7 1.3 1.5 1.5 1.5 1.5 1 1.7.8 1.8.5 2 .2h2l2.2-.2 2.3-.8 2.2-1 156.5-66.5 45.8-19.2 7.5-12m-465 1.7 3.7 7 48 21 155.8 68 2.2 1 2.3.8 2 .2h2l2-.2 1.7-.5 1.8-.8 1.5-1 1.5-1.5 1.2-1.5 1.3-1.7.7-2 .8-2.3.7-2.2.3-2.8v-318.5l-.3-3-.7-2.7-.8-3-.7-2.8-1.3-3-1.2-2.7-1.5-2.5-1.5-2.8-1.8-2.2-1.7-2.3-2-2.2-2-1.8-2-1.7-2.3-1.5-2.2-1.3-97.3-41.2-105-44.8-2.2-.7-2.3-.8-2-.2h-2.2l-1.8.2-2 .5-1.5.8-1.7 1-1.3 1.2-1.2 1.8-1.3 1.7-1 2-.7 2-.5 2.5-.3 2.8-.2 2.7v202.3l.5.5 3 3.2m181.7-241.7-4.2-4.8-4.3-4.7-3.7-5.3-3.5-5.5-3.5-5.5-3-6-3-6.2-2.5-6.3-2.3-6.5-2.2-6.7-1.8-7-1.5-7-1-7.3-1-7.5-.5-7.5v-14.2l.5-6.5.5-6.8 1-6.2 1.3-6.3 1.2-6.2 1.8-6 1.7-6 2-5.8 2.3-5.7 2.5-5.5 2.7-5.3 2.8-5 3.2-5 3.3-4.7 3.2-4.5 3.5-4.3 3.8-4.2 4-3.8 4-3.7 4.2-3.3 4.3-3.2 4.5-2.8 4.5-2.7 4.7-2.3 4.8-2 4.7-1.7 5-1.5 5-1.3 5.3-.7 5.2-.5 5.3-.3 5.2.3 5.3.5 5.2.7 5 1.3 5 1.5 4.8 1.7 5 2 4.5 2.3 4.5 2.7 4.5 2.8 4.2 3.2 4.3 3.3 4 3.7 4 3.8 3.7 4.2 3.5 4.3 3.5 4.5 3.3 4.7 3 5 2.7 5 2.8 5.3 2.5 5.5 2.2 5.7 2 5.8 2 6 1.5 6 1.5 6.2 1 6.3 1 6.2.5 6.8.5 6.5.3 6.7-.3 8-.5 7.8-1 7.5-1.2 7.5-1.5 7.2-2 7.3-2.3 7-2.5 6.7-2.7 6.5-3 6.3-3.5 6-3.5 6-4 5.5-4 5.2-4.3 4.8-4.5 4.7-3.5 3-3.2 3-3.5 2.5-3.5 2.5-3.8 2.5-3.7 2.3-3.8 2-4 1.7-3.7 1.5-4 1.5-4.3 1.3-4 1-4.2.7-4.3.5-4.2.3-4.5.2-4.5-.2-4.5-.3-4.5-.7-4.5-.8-4.3-1.2-4.5-1.3-4-1.5-4.2-1.7-4-2-4-2.3-4-2.5-3.8-2.5-3.7-2.7-3.5-3-3.5-3.3z" stroke-width="15.25"/><path d="m260.6 556.6 15.5-7.2 1.8-.8h1.7l1.8.3 1.5.7 1.5.8 1 1.2 1.2 1.5.8 1.8.5 1.7.2 2v1.8l-.2 2-.8 1.7-1 1.8-1.5 1.5-2 1.5m-82 14.5 15-6.3 15.8-7 29.2-13.5" stroke-width="15.25"/><path d="m178.9 590.9h1.2l1.8-.5 5-1.5 6.2-2.5 7.5-3" stroke-width="15"/><path d="m253.4 650.4 13-7.8 6-4 5.5-3.5 4.7-3.5 1.8-1.5 1.5-1.5 1.2-1.5.8-1.2.2-1v-1l-1.2-3.3-1.3-2-1.2-1.5-1-.7-1.5-.5h-1.5l-4.8.2m-22.2 34.3-6.3 4-5.7 3.7-2.3 1.3-2.2 1.5-5.3 2.5-6 2.2-6.2 2.3-6.5 1.7-6.8 2-12.5 3-13.2 2.5-5.5 1h-.8l-2-.5-3-.7-1.7-.8-1.8-.7-2-1.3-1.7-1.2-1.8-1.8-1.7-1.7-1.5-2.3-1.5-2.5-1.3-3-.7-3.5-.8-4.5-.7-5.2-.5-5.8-.5-6.5-.3-13.7v-14.3l.8-13.7.5-6.3.5-5.7.7-5.3 1-4.2 1-3.5 1-2.5 5.3-7.3 5.7-8 5.8-8 2.5-3.7 2-3 1.5-2.5.5-1 1-.8 1-.2 1.2-.3 1.5.3 1.3.5 1.2.5 1.5 1 1 1.2 1 1.3 1 1.7.5 1.8.3 2.2v2.3l-.5 2.5-1 2.7-.3 1.8-2.2 2.7-2.3 2.8-1.7 3-1.8 3-1.5 3.2-1.2 3-1 3-.8 3-.7 2.8-.3 2.7-.2 2.3v4l.5 1.5.5 1.2.7.8h.8" stroke-width="15.25"/><path d="m212.1 649.9 22.3-11.8 41.2-22 15.8-8.5 3.2-2 2.5-1.5 1.8-1.5 1.2-1.5.8-1.5.5-1.5.7-3.2-.5-1.5-.7-1.5-1-1.5-1.5-1.5-1.5-1.3-1-.2-1-.3h-1l-1.3.3-2.5 1-7.2 3.2-9.8 4.8-22.5 10.7-27.5 14" stroke-width="15.25"/><path d="m289.9 588.6.2-.2 3.5-1.8 2.8-2 2.5-2 2-1.7 1.5-2.3 1-2.2.5-2.3.2-2.5-.5-1.7-1-1.8-1-1.7-1.5-1.8-.7-.5-1-.7-.8-.3-1-.2-1 .2-1.2.3-11.8 5.5-83.7 39m390.7-53-15.5-7.5-1.7-.5-1.8-.3-1.7.5-1.5.5-1.3 1-1.2 1.3-1 1.5-1 1.7-.5 1.8-.3 1.7v2l.5 2 .5 1.8 1.3 1.7 1.2 1.5 2 1.3" stroke-width="15.25"/><path d="m649.6 581.6-14.7-6.2-16-7.3-29.3-13.2m81.8 34.2-1.3-.2-1.7-.3-4.8-1.5-6.5-2.5-7.5-3" stroke-width="15"/><path d="m597.1 648.6-13-8-6.2-3.7-5.5-3.8-4.5-3.2-2-1.8-1.5-1.5-1.3-1.2-.7-1.3-.3-1.2v-1l1.5-3 1-2.3 1.3-1.5 1-.7 1.5-.3h1.5l4.7.3m22.5 34.2 6.3 3.8 5.7 4 2.3 1.2 2.2 1.5 5.8 2.5 6.2 2.5 6.8 2.3 7 2 6.7 1.7 13 3 11.8 2.5 4.5.8.7-.3 2-.2 3-1 1.8-.5 1.7-1 2-1 1.8-1.3 1.7-1.7 1.8-2 1.7-2.3 1.3-2.5 1.2-3 .8-3.2 1-4.5.5-5.3.5-6 .5-6.2.2-13.8v-14.2l-.7-13.8-.5-6.2-.5-6-.8-5-1-4.5-1-3.3-1-2.5-5.5-7.7-6-8.5-6-8.3-2.5-3.5-1.7-3.2-.8-1.3-.7-1-1-.7-1-.5h-2.5l-1.5.5-1.3.7-1.2 1-1.3 1-1 1.5-.7 1.8-.8 1.7-.2 2 .2 2.3.3 2.5 1 2.7.2 1.8 2.3 2.7 2.2 3 1.8 3 1.7 3 1.5 3 1.3 3.3 1 3 .7 3 .8 2.7.5 2.5v2.5l.2 2-.2 2-.5 1.5-.5 1.3-.8.7h-.7" stroke-width="15.25"/><path d="m638.1 647.9-22.2-11.5-41.3-22-15.7-8.8-3.3-1.7-2.5-1.8-1.7-1.5-1.3-1.2-.7-1.5-.5-1.5-.8-3.3.5-1.5.8-1.5 1.2-1.5 1.3-1.5 1.5-1.2 1-.3 1-.2h1l1.2.2 2.5 1 7.5 3.3 9.8 4.5 22.2 11 27.8 13.7m-67-32.5h-.3l-3.2-2-3-1.7-2.5-2-2-2-1.5-2-1-2.3-.5-2.2-.3-2.8.8-1.5.7-1.7 1-1.8 1.5-1.7.8-.8 1-.5.7-.2 1-.3h1.3l1 .5 11.7 5.3 83.8 39m-290.3-306.5v5l-.5 5.5-.5 3.2-.7 3.5-1 3.8-1.3 4-1.7 4-2 4-2.5 4-2.8 4-3.5 3.7-4 3.5-3.2 2.5-3.5 2-4 2-4.3 1.8-4.7 1.7-5 1.3-5.5 1-5.8.5m184.5-60.5v1.2l-.2 2.5.2 4 .8 5 1 5.5.7 3.3 1 3 1.3 3.2 1.5 3.3 1.7 3.2 2 3 2.5 3.3 2.5 3 3.3 3 3.5 3 4.2 2.7 4.5 2.3 4.8 2.2 5.5 1.8 6.2 1.5 6.5 1m-297 342.5v80.2m360-79.5v81" stroke-width="15.25"/><path d="m340.6 347.9v-.3l.5.3.8.2 2.7 1.5 4.3 2.3 5.7 2.7 7.3 3.3 8.5 3.2 4.5 1.8 5 1.5 5.2 1.2 5.5 1.3 5.8 1.2 6 .8 6.2.7 6.3.5h6.7l6.8-.2 7-.5 7-.8 7.2-1.5 7.5-1.7 7.5-2.3 7.8-2.7 7.7-3.5 8-3.8 8-4.5 8-5.2" stroke-width="15"/></g></svg>