<svg height="850" viewBox="0 0 850 850" width="850" xmlns="http://www.w3.org/2000/svg"><path d="m655.9 369.6-.3-4.5-.5-4-.7-4-1.3-3.7-1.2-3.5-1.8-3.3-2-3.2-2.5-2.8-2.5-2.5-3-2.2-3.2-2-3.5-1.5-3.5-1.3-4.3-1-4.2-.5-4.5-.2-4.8.2-4.7.8-4.5 1.2-4.5 1.5-4.3 2-4 2.5-3.7 3-3.3 3.3-3.2 3.5-2.8 4.2-2.5 4.3-2 4.7-1.7 5-1 5.5-.8 5.8-.2 6v4.7l.7 4.8 1 4.2 1.3 4.3 1.7 3.7 2 3.5 2.3 3.3 2.7 3 2.8 2.7 3.2 2.3 3.3 2 3.7 1.7 3.8 1.3 4 1 4.2.5 4.5.2 3.3-.2 3.5-.3 3.2-.5 3-.5 3-.7 3-1 2.8-1.3 2.5-1.2 2.5 7-3.3 1.5-3.5 1.5-3.2 1-3.5 1-3.8.5-3.5.5-4 .2h-3.7l-5-.2-4.8-.5-4.5-1.3-4.5-1.5-4.2-1.7-4-2.5-3.8-2.5-3.5-3.3-3.2-3.2-2.8-3.8-2.5-4.2-2-4.5-1.7-4.8-1.3-5-.7-5.2-.3-5.8.3-6.2.7-6 1.3-5.8 2-5.5 2.2-5.5 2.8-5 3-4.7 3.7-4.5 4-4 4.5-3.5 2.3-1.8 2.5-1.5 2.5-1.5 2.7-1.2 2.8-1 2.7-1 2.8-1 3-.5 3.2-.8 3-.2 3.3-.3 3.2-.2 5.3.2 4.7.8 4.8 1 4.5 1.5 4 2 3.7 2.2 3.8 2.5 3 3 3 3.3 2.5 3.5 2.2 3.7 1.8 4.3 1.5 4.2 1 4.5.7 4.8.3 5-.3 4.5-.5 4-.7 4-1 3.7-1.3 3.3-1.2 3.2-1.8 2.8-2 2.7-2 2.3-2.2 2-2.3 1.7-2.5 1.5-2.5 1-2.7.8-2.8.5-2.7.2-2.3-.2-2.2-.5-2.3-1-1.7-1.5-1.5-2-1-2.5-.8-3-.2-3.5h-4l1.5-1.8 1.5-2 1.2-2 1.3-2 1-2 .7-2.2.8-2.3.5-2 3.2-18 5.5 1-3.7 21.8-.8 4.2-.2 3.5v3.3l.2 2.5 1 1.7.5.8.5.7.8.5.7.3 1.8.2h1.7l1.5-.2 1.5-.8 1.5-.7 1.5-1 1.5-1.5 1.3-1.5 1.2-1.8 1.3-2 1-2.2 1-2.3.7-2.7.8-2.8.5-3 .2-3.2z" fill="#231f20"/><path d="m632.1 358.1-3.2 18-.5 2-.8 2.3-.7 2.2-1 2-1.3 2-1.2 2-1.5 2-1.5 1.8-2.5 2.2-2.8 1.8-1.5.7-1.5.5-1.5.3h-1.5l-2.5-.3-2.2-.5-1.8-1.2-1.5-1.3-1.2-1.7-.8-2.3-.5-2.2-.2-2.8.2-2.7.3-2.8.7-2.7.8-2.8 1.2-2.5 1.3-2.5 1.5-2 1.5-2.2 2-1.8 1.7-1.7 2.3-1.5 2.2-1.3 2.3-1 2.5-.7 2.5-.5h5.2l2.3.2 2 .5z" fill="#ffffc2"/><path d="m601.1 406.6 3.5-.3 3.5-.8 3-1 3-1.5 2.8-2 2.5-2.5 2.5-2.8 2.3-3.5h.3l.3 3.5.8 3 1 2.5 1.5 2 1.8 1.5 2.3 1 2.3.5 2.3.3 2.8-.3 2.8-.5 2.8-.8 2.5-1 2.5-1.5 2.3-1.8 2.3-2 2-2.3 2-2.8 1.8-2.8 1.3-3.3 1.3-3.3 1-3.8.8-4 .5-4 .3-4.5-.3-5-.8-4.8-1-4.5-1.5-4.3-1.8-4.3-2.3-3.8-2.5-3.5-3-3.3-3-3-3.8-2.5-3.8-2.3-4-2-4.5-1.5-4.8-1-4.8-.8-5.3-.3-3.3.3-3.3.3-3 .3-3.3.8-3 .5-2.8 1-2.8 1-2.8 1-2.8 1.3-2.5 1.5-2.5 1.5-2.3 1.8-4.5 3.5-4 4-3.8 4.5-3 4.8-2.8 5-2.3 5.5-2 5.5-1.3 5.8-.8 6-.3 6.3.3 5.8.8 5.3 1.3 5 1.8 4.8 2 4.5 2.5 4.3 2.8 3.8 3.3 3.3 3.5 3.3 3.8 2.5 4 2.5 4.3 1.8 4.5 1.5 4.5 1.3 4.8.5 5 .3h3.8l4-.3 3.5-.5 3.8-.5 3.5-1 3.3-1 3.5-1.5 3.3-1.5-2.5-7-2.5 1.3-2.8 1.3-3 1-3 .8-3 .5-3.3.5-3.5.3-3.3.3-4.5-.3-4.3-.5-4-1-3.8-1.3-3.8-1.8-3.3-2-3.3-2.3-2.8-2.8-2.8-3-2.3-3.3-2-3.5-1.8-3.8-1.3-4.3-1-4.3-.8-4.8v-4.8l.3-6 .8-5.8 1-5.5 1.8-5 2-4.8 2.5-4.3 2.8-4.3 3.3-3.5 3.3-3.3 3.8-3 4-2.5 4.3-2 4.5-1.5 4.5-1.3 4.8-.8 4.8-.3 4.5.3 4.3.5 4.3 1 3.5 1.3 3.5 1.5 3.3 2 3 2.3 2.5 2.5 2.5 2.8 2 3.3 1.8 3.3 1.3 3.5 1.3 3.8.8 4 .5 4 .3 4.5-.3 3.3-.3 3.3-.5 3-.8 2.8-.8 2.8-1 2.3-1 2.3-1.3 2-1.3 1.8-1.3 1.5-1.5 1.5-1.5 1-1.5.8-1.5.8-1.5.3h-1.8l-1.8-.3-.8-.3-.8-.5-.5-.8-.5-.8-1-1.8-.3-2.5v-3.3l.3-3.5.8-4.3 3.8-21.8 1.5-7.5-3.5-1.3-4-1-4.8-.8-5-.3-4 .3-4 .5-3.8 1-3.5 1.3-3.5 1.8-3 2-3 2.3-2.5 2.5-2.5 2.8-2 3-2 3-1.5 3.5-1.3 3.3-.8 3.8-.5 3.5-.3 3.8v2.3l.3 2.3.5 2 .8 2 .8 1.8.8 1.8 1 1.5 1.3 1.3 1.3 1.3 1.3 1.3 1.5.8 1.5.8 1.5.8 1.8.5 1.5.3h1.4zm121.5-95v134.8h-231.7v-134.8z" fill="#ffffc2"/><path d="m609.1 397.9h1.5l1.5-.3 1.5-.5 1.5-.7 2.8-1.8 2.5-2.2h3.7l-2.2 3.5-2.5 2.7-2.5 2.5-2.8 2-3 1.5-3 1-3.5.8-3.5.2h-1.7l-1.5-.2-1.8-.5-1.5-.8-1.5-.7-1.5-.8-1.2-1.2-1.3-1.3-1.2-1.2-1-1.5-.8-1.8-.7-1.7-.8-2-.5-2-.2-2.3v-2.2l.2-3.8.5-3.5.8-3.7 1.2-3.3 1.5-3.5 2-3 2-3 2.5-2.7 2.5-2.5 3-2.3 3-2 3.5-1.7 3.5-1.3 3.8-1 4-.5 4-.2 5 .2 4.7.8 4 1 3.5 1.2-1.5 7.5-5.5-1-1.2-.5-2-.5-2.3-.2h-5.2l-2.5.5-2.5.7-2.3 1-2.2 1.3-2.3 1.5-1.7 1.7-2 1.8-1.5 2.2-1.5 2-1.3 2.5-1.2 2.5-.8 2.8-.7 2.7-.3 2.8-.2 2.7.2 2.8.5 2.2.8 2.3 1.2 1.7 1.5 1.3 1.8 1.2 2.2.5z" fill="#231f20"/><path d="m772.4 282.6v210.8l-.3 2.3-.3 2-.5 2-.8 2-.8 1.8-1.3 1.8-1 1.8-1.5 1.5-1.5 1.3-1.5 1.3-1.8 1-2 1-1.8.8-2 .5-2.3.3-2 .3h-289.9l-2-.3-2.3-.3-2-.5-1.8-.8-2-1-1.8-1-1.5-1.3-1.5-1.3-1.5-1.5-1-1.8-1.3-1.8-.8-1.8-.8-2-.5-2-.3-2-.3-2.3v-210.8l.3-2 .3-2.3.5-2 .8-1.8.8-2 1.3-1.8 1-1.5 1.5-1.5 1.5-1.5 1.5-1.3 1.8-1 2-.8 1.8-.8 2-.5 2.3-.5h294.3l2.3.5 2 .5 1.8.8 2 .8 1.8 1 1.5 1.3 1.5 1.5 1.5 1.5 1 1.5 1.3 1.8.8 2 .8 1.8.5 2 .3 2.3zm-21.8 211-.3-1.8-.5-1.5-.8-1.5-1-1.3-1.3-1.3-1.5-.8-1.8-.5h-3.6l-1.5.5-1.5.8-1.3 1.3-1 1.3-.8 1.5-.5 1.5-.3 1.8.3 1.8.5 1.5.8 1.5 1 1.3 1.3 1.3 1.5.8 1.5.5h3.6l1.8-.5 1.5-.8 1.3-1.3 1-1.3.8-1.5.5-1.5zm-8.7-21.2v-181h-270.3v181zm-10.8 21.2-.3-1.5-.5-1.8-.8-1.5-1-1.3-1.3-1-1.5-.8-1.8-.5-1.8-.3-1.5.3-1.8.5-1.5.8-1.3 1-1 1.3-.8 1.5-.5 1.8-.3 1.5.3 1.8.5 1.8.8 1.5 1 1.3 1.3 1 1.5.8 1.8.5 1.5.3 1.8-.3 1.8-.5 1.5-.8 1.3-1 1-1.3.8-1.5.5-1.8z" fill="#7a7878"/><path d="m741.9 485.1h1.7l1.8.5 1.5.8 1.2 1.2 1 1.3.8 1.5.5 1.5.2 1.7-.2 1.8-.5 1.5-.8 1.5-1 1.2-1.2 1.3-1.5.7-1.8.5h-3.5l-1.5-.5-1.5-.7-1.2-1.3-1-1.2-.8-1.5-.5-1.5-.2-1.8.2-1.7.5-1.5.8-1.5 1-1.3 1.2-1.2 1.5-.8 1.5-.5z" fill="#231f20"/><path d="m741.9 291.4v181h-270.3v-181zm-19.3 155v-134.8h-231.7v134.8z" fill="#fff"/><path d="m722.4 485.1 1.7.3 1.8.5 1.5.7 1.2 1 1 1.3.8 1.5.5 1.7.2 1.5-.2 1.8-.5 1.7-.8 1.5-1 1.3-1.2 1-1.5.7-1.8.5-1.7.3-1.5-.3-1.8-.5-1.5-.7-1.2-1-1-1.3-.8-1.5-.5-1.7-.2-1.8.2-1.5.5-1.7.8-1.5 1-1.3 1.2-1 1.5-.7 1.8-.5z" fill="#231f20"/><path d="m692.9 574.1v14.5l-60.8.3h-112.7v-14.5l6.2-1 5.5-1.3 5.3-1.2 4.5-1.5 4-1.5 3.7-1.5 3.3-1.5 2.7-1.5 4.3-2.8 2.7-2.2 1.8-1.5.5-.8v-41.5h84.5v41.5l.5.5 1.7 1.5 2.8 2.3 4.2 2.7 2.8 1.5 3.2 1.5 3.8 1.5 4 1.5 4.5 1.5 5.2 1.3 5.5 1.2z" fill="#7a7878"/><g fill="none" stroke="#231f20" stroke-linecap="round" stroke-miterlimit="10"><path d="m563.9 514.6h-102.8l-2-.2-2.2-.3-2-.5-1.8-.7-2-1-1.7-1-1.5-1.3-1.5-1.2-1.5-1.5-1-1.8-1.3-1.7-.7-1.8-.8-2-.5-2-.2-2-.3-2.2v-210.8l.3-2 .2-2.2.5-2 .8-1.8.7-2 1.3-1.7 1-1.5 1.5-1.5 1.5-1.5 1.5-1.3 1.7-1 2-.7 1.8-.8 2-.5 2.2-.5h294.3l2.2.5 2 .5 1.8.8 2 .7 1.7 1 1.5 1.3 1.5 1.5 1.5 1.5 1 1.5 1.3 1.7.7 2 .8 1.8.5 2 .2 2.2.3 2v210.8l-.3 2.2-.2 2-.5 2-.8 2-.7 1.8-1.3 1.7-1 1.8-1.5 1.5-1.5 1.2-1.5 1.3-1.7 1-2 1-1.8.7-2 .5-2.2.3-2 .2h-103z" stroke-width="23.25"/><path d="m741.9 472.4h-270.3v-181h270.3z" stroke-width="15.5"/><path d="m648.4 514.6v41.5l.5.5 1.7 1.5 2.8 2.3 4.2 2.7 2.8 1.5 3.2 1.5 3.8 1.5 4 1.5 4.5 1.5 5.2 1.3 5.5 1.2 6.3 1v14.5l-60.8.3h-112.7v-14.5l6.2-1 5.5-1.3 5.3-1.2 4.5-1.5 4-1.5 3.7-1.5 3.3-1.5 2.7-1.5 4.3-2.8 2.7-2.2 1.8-1.5.5-.8v-40.2" stroke-width="23.25"/><path d="m722.6 446.4h-231.7v-134.8h231.7z" stroke-width="7.75"/><path d="m76.6 377.1h255m-33.7 45.3 34.2-45.5-34.2-45.3" stroke-width="23.25"/></g></svg>