<svg height="850" viewBox="0 0 850 850" width="850" xmlns="http://www.w3.org/2000/svg"><path d="m390.4 543.3-177-53.3-1-4.7 4.3-1 66-25 4.2-1.8 2 4.5 2.5 4.5 2.5 4.3 3 4 3.3 3.7 3.7 3.5 2 1.5 2.3 1.3 2.2 1.2 2.3 1.3 4.5 1.7 4.7 1.5 4.5 1.5 4.8 1 4.5.8 4.7.7 4.5.3h9.3l4.5-.5 4.7-.8 4.5-1 4.5-1 4.5-1.5 4.3-1.7 4.5-2 3-.3 2.2-.2h2.5l3 .2 3.5.8 3.5.7 4 1.5 4 2 4.3 2.3 4.5 3.2 4.5 3.8 4.5 4.7 4.5 5.5 2.2 3.3 2.3 3.2 2 3.5 2.2 4h-.2l-51.5 20.5z" fill="#f6cc4b"/><path d="m559.9 675.8-41.7 18.5-10 4.2-10.5-30.7-8-22.3-6-16.2-4.8-12.5-10-25.5-7-18.3-9-25.2-2.5-6.5-2.7-6-2.5-5.5-2.8-5.3-2.2-4-2-3.5-2.3-3.2-2.2-3.3-4.5-5.5-4.5-4.7-4.5-3.8-4.5-3.2-4.3-2.3-4-2-4-1.5-3.5-.7-3.5-.8-3-.2h-2.5l-2.2.2-3 .3 4.7-2.3 4.8-3 4.7-3 4.8-3.2 19.5-15.3 16-12 15-11 87.7 145.8h-.2l29.2 88.2z" fill="#7a7878"/><path d="m286.9 457.5-4.2 1.8-66 25-4.3 1-60.2-284.8 103.2-36.2 4.5-1.5 1.8 4.2 2 3.8 2.2 3.7 2.3 3.5 2.5 3.5 2.5 3.3 2.7 3 2.8 2.7-3.5 3-2.8 1.5-7.5 4.3-5 3.2-5.5 3.8-5.7 4.5-6.3 4.7-6 5.5-6 6-2.7 3-2.5 3.3-2.5 3.2-2.5 3.5-2 3.5-2 3.8-1.8 3.5-1.2 4-1.3 3.7-.7 4-.5 4v4l.2 7.5.8 9 1.2 9.8 1.5 10.5 2.3 11.2 2.5 11.5 3 11.8 3.7 12 2 5.7 2.3 5.8 2.2 5.5 2.5 5.5 2.8 5.5 2.7 5.2 3 4.8 3.3 4.7 3.2 4.5 3.5 4.3 3.8 3.7 4 3.5 4 3.3 4.2 2.7 4.5 2.5 4.8 1.8.7 5.5 1.3 8.2 1 4.8 1.5 5.2 1.7 5.5z" fill="#f6cc4b"/><path d="m339.7 196.8-3.8 2.5-4 2.2-4.2 1.8-4.5 1.5-3 .5-2.8.2-3 .3h-3l-2.7-.3-3-.5-2.8-.7-3-.8-2.7-1-2.8-1.2-2.7-1.5-2.8-1.5-2.5-1.8-2.7-1.7-2.5-2.3-2.5-2-2.8-2.7-2.7-3-2.5-3.3-2.5-3.5-2.3-3.5-2.2-3.7-2-3.8-1.8-4.2-1.5-3.5-1.2-3.8-1-3.7-1-4-1.5-7.3-.8-7-.2-6.7.2-7 .8-6.5 1.2-6.3 1.8-6 2.2-5.7 2.8-5.3 3-5 1.7-2.2 1.8-2 2-2.3 2-1.7 2-1.8 2.2-1.7 2.3-1.5 2.2-1.3 2.5-1.2 2.5-1 2.5-1 2.8-.8 2.7-.5 2.8-.2 2.5-.3h2.7l2.8.3 2.7.2 2.8.5 2.5.8 2.7.7 2.5 1 2.5 1.3 2.8 1.2 4.7 3.3 4.8 3.5 4.5 4 4.2 4.7 4 5 3.5 5.5 3.3 6 2.7 6.3 2.5 6.7 2 7 1 5.8.8 5.5.5 5.5v5.2l-.3 5.5-.5 5-.7 5.3-1.3 4.7-1.5 4.8-1.7 4.5-2 4.2-2.3 4-2.5 3.8-3 3.5-3 3z" fill="#ffeec8"/><path d="m592.2 735 1 2.3 2.5 5.5 1.5 3.7 1.5 4 1.2 4.5 1 4.8.8 4.5v4.5l-.3 2.2-.5 2.3-.5 2-1 1.7-1 1.8-1.5 1.7-1.5 1.5-2 1.3-2 1-2.5.7-3 .8-3 .2h-1.5l-1.5-.2-3-.8-3.2-1.2-3.5-2-3.5-2.5-3.5-2.8-3.5-3.2-3.3-3.5-3.2-3.5-3-4-2.8-4-2.2-4-2-4.3-1.5-4-.8-4-.2-2-.3-1.7v-3.8l-.5-3.5-.5-3.5-1-3.7-1-3.3-1.2-3.5-1.3-3-1.5-3.2-1.7-2.8-1.8-2.7-1.7-2.5-2-2.3-2-2-2-1.7-2-1.5-2-1 41.7-18.5 2 4.7 2.8 6.5 3.7 8 4.5 8.5 6.5 11.3 6.3 10zm76.2-129.7 7.3 4 6.2 3 9.8 4.7 3.2 2 1.5 1 1 1 .8 1 .5 1 .5 1.3v1.2l-.3 1.3-.2 1.2-1.3 2-1.7 2-2.3 2-2.7 1.8-3 1.5-3.8 1-4 1-4.2.7-4.5.3-5 .2-5-.5-5.3-.7-5.5-1-5.5-1.5-5.5-2-9.2-3.8-6.5-2.2-4.5-1.3-2.8-.2h-2.5l-2.2.5-3.3.5-4.7.2-6.3-.5-5.5-.5-4.7-1.2-3.8-1.3-3.2-1.7-2.3-2-2-2.3-1.5-2.2-.7-2.5-.8-2.5-.2-2.8-.3-2.7v-5.3l.3-5h-.3l42.3-24.2 21.2 13.5 18 11z" fill="#231f20"/><path d="m455.2 436.5-15 11-16 12-19.5 15.3-4.8 3.2-4.7 3-4.8 3-4.7 2.3-4.5 2-4.3 1.7-4.5 1.5-4.5 1-4.5 1-4.7.8-4.5.5h-9.3l-4.5-.3-4.7-.7-4.5-.8-4.8-1-4.5-1.5-4.7-1.5-4.5-1.7-2.3-1.3-2.2-1.2-2.3-1.3-2-1.5-3.7-3.5-3.3-3.7-3-4-2.5-4.3-2.5-4.5-2-4.5-2-5.5-1.7-5.5-1.5-5.2-1-4.8-1.3-8.2-.7-5.5 5 1.5 5.2 1 6.3-.5 3.5-.5 3.7-.8 4.3-1 4.2-1.2 9.8-3.3 10.2-4.2 11-4.8 11.5-5.5 11.8-5.7 12.2-6 24-12.5 23-11.5 10.8-5.3 10-4.7 9-3.8 8-3h.2l2.5-.2h3l3.3.2 4 .8 2 .5 2 .7 1.7 1 2 1 1.8 1.3 1.5 1.5 2.2 2.2 2.3 2.8 4.7 7 5.5 8.7 6.5 10.8 15.8 27.7 10 17.3 11.5 19.5 35.5 59.2 21.2 36 13.3 22.8-42.3 24.2-15.7 9.3-13.8-23z" fill="#7a7878"/><path d="m462.2 351-8 3-9 3.8-10 4.7-10.8 5.3-23 11.5-24 12.5-12.2 6-11.8 5.7-11.5 5.5-11 4.8-10.2 4.2-9.8 3.3-4.2 1.2-4.3 1-3.7.8-3.5.5-6.3.5-5.2-1-5-1.5-4.8-1.8-4.5-2.5-4.2-2.7-4-3.3-4-3.5-3.8-3.7-3.5-4.3-3.2-4.5-3.3-4.7-3-4.8-2.7-5.2-2.8-5.5-2.5-5.5-2.2-5.5-2.3-5.8-2-5.7-3.7-12-3-11.8-2.5-11.5-2.3-11.2-1.5-10.5-1.2-9.8-.8-9-.2-7.5v-4l.5-4 .7-4 1.3-3.7 1.2-4 1.8-3.5 2-3.8 2-3.5 2.5-3.5 2.5-3.2 2.5-3.3 2.7-3 6-6 6-5.5 6.3-4.7 5.7-4.5 5.5-3.8 5-3.2 7.5-4.3 2.8-1.5 3.5-3 2.5 2 2.5 2.3 2.7 1.7 2.5 1.8 2.8 1.5 2.7 1.5 2.8 1.2 2.7 1 3 .8 2.8.7 3 .5 2.7.3h3l3-.3 2.8-.2 3-.5 4.5-1.5 4.2-1.8 4-2.2 3.8-2.5 4.7.2 8.5.8 11 1.5 6.3 1 6.2 1.5 6.3 1.5 6.2 1.7 6 2 5.5 2.5 2.5 1.3 2.5 1.2 2.3 1.5 2 1.5 2 1.8 1.5 1.7 1.2 1.8 1.3 2 4.7 11 6.3 14.7 7.2 17.5 7.3 18.8 7 19 3.2 9.2 3 8.8 2.5 8 2 7.2 1.5 6.5 1 5.3z" fill="#a9d7f3"/><g fill="none" stroke="#231f20" stroke-linecap="round" stroke-miterlimit="10" stroke-width="21"><path d="m279.7 424.3 2.2.5 2.3.5h4.7l6.3-.5 3.5-.5 3.7-.8 4.3-1 4.2-1.2 9.8-3.3 10.2-4.2 11-4.8 11.5-5.5 11.8-5.7 12.2-6 24-12.5 23-11.5 10.8-5.3 10-4.7 9-3.8 8-3h.2l2.5-.2h3l3.3.2 4 .8 2 .5 2 .7 1.7 1 2 1 1.8 1.3 1.5 1.5 2.2 2.2 2.3 2.8 4.7 7 5.5 8.7 6.5 10.8 15.8 27.7 10 17.3 11.5 19.5 35.5 59.2 21.2 36 13.3 22.8-42.3 24.2-15.7 9.3-13.8-23-87.7-145.8-15 11-16 12-19.5 15.3-4.8 3.2-4.7 3-4.8 3-4.7 2.3-4.5 2-4.3 1.7-4.5 1.5-4.5 1-4.5 1-4.7.8-4.5.5h-9.3l-4.5-.3-4.7-.7-4.5-.8-4.8-1-4.5-1.5-4.7-1.5-4.5-1.7-2.3-1.3-2.2-1.2-2.3-1.3-2-1.5-3.7-3.5-3.3-3.7-3-4-2.5-4.3-2.5-4.5-2-4.5-2-5.5-1.7-5.5-1.5-5.2-1-4.8-1.3-8.2-.7-5.5v-1.5m196.2-2.8-26 22.8"/><path d="m384.7 486.5 1-.2 3-.3 2.2-.2h2.5l3 .2 3.5.8 3.5.7 4 1.5 4 2 4.3 2.3 4.5 3.2 4.5 3.8 4.5 4.7 4.5 5.5 2.2 3.3 2.3 3.2 2 3.5 2.2 4 2.8 5.3 2.5 5.5 2.7 6 2.5 6.5 9 25.2 7 18.3 10 25.5 4.8 12.5 6 16.2 8 22.3 10.5 30.7 10-4.2 41.7-18.5 12-5.3-29.2-88.2m72-10.5 21.2 13.5 18 11 14.5 9 7.3 4 6.2 3 9.8 4.7 3.2 2 1.5 1 1 1 .8 1 .5 1 .5 1.3v1.2l-.3 1.3-.2 1.2-1.3 2-1.7 2-2.3 2-2.7 1.8-3 1.5-3.8 1-4 1-4.2.7-4.5.3-5 .2-5-.5-5.3-.7-5.5-1-5.5-1.5-5.5-2-9.2-3.8-6.5-2.2-4.5-1.3-2.8-.2h-2.5l-2.2.5-3.3.5-4.7.2-6.3-.5-5.5-.5-4.7-1.2-3.8-1.3-3.2-1.7-2.3-2-2-2.3-1.5-2.2-.7-2.5-.8-2.5-.2-2.8-.3-2.7v-5.3l.3-5"/><path d="m559.2 673.5.7 2.3 2 4.7 2.8 6.5 3.7 8 4.5 8.5 6.5 11.3 6.3 10 6.5 10.2 1 2.3 2.5 5.5 1.5 3.7 1.5 4 1.2 4.5 1 4.8.8 4.5v4.5l-.3 2.2-.5 2.3-.5 2-1 1.7-1 1.8-1.5 1.7-1.5 1.5-2 1.3-2 1-2.5.7-3 .8-3 .2h-1.5l-1.5-.2-3-.8-3.2-1.2-3.5-2-3.5-2.5-3.5-2.8-3.5-3.2-3.3-3.5-3.2-3.5-3-4-2.8-4-2.2-4-2-4.3-1.5-4-.8-4-.2-2-.3-1.7v-3.8l-.5-3.5-.5-3.5-1-3.7-1-3.3-1.2-3.5-1.3-3-1.5-3.2-1.7-2.8-1.8-2.7-1.7-2.5-2-2.3-2-2-2-1.7-2-1.5-2-1-.5-.3m-257.8-531.2-1.5-3.5-1.2-3.8-1-3.7-1-4-1.5-7.3-.8-7-.2-6.7.2-7 .8-6.5 1.2-6.3 1.8-6 2.2-5.7 2.8-5.3 3-5 1.7-2.2 1.8-2 2-2.3 2-1.7 2-1.8 2.2-1.7 2.3-1.5 2.2-1.3 2.5-1.2 2.5-1 2.5-1 2.8-.8 2.7-.5 2.8-.2 2.5-.3h2.7l2.8.3 2.7.2 2.8.5 2.5.8 2.7.7 2.5 1 2.5 1.3 2.8 1.2 4.7 3.3 4.8 3.5 4.5 4 4.2 4.7 4 5 3.5 5.5 3.3 6 2.7 6.3 2.5 6.7 2 7 1 5.8.8 5.5.5 5.5v5.2l-.3 5.5-.5 5-.7 5.3-1.3 4.7-1.5 4.8-1.7 4.5-2 4.2-2.3 4-2.5 3.8-3 3.5-3 3-3.2 3-3.8 2.5-4 2.2-4.2 1.8-4.5 1.5-3 .5-2.8.2-3 .3h-3l-2.7-.3-3-.5-2.8-.7-3-.8-2.7-1-2.8-1.2-2.7-1.5-2.8-1.5-2.5-1.8-2.7-1.7-2.5-2.3-2.5-2-2.8-2.7-2.7-3-2.5-3.3-2.5-3.5-2.3-3.5-2.2-3.7-2-3.8z"/><path d="m339.2 196.5.5.3 4.7.2 8.5.8 11 1.5 6.3 1 6.2 1.5 6.3 1.5 6.2 1.7 6 2 5.5 2.5 2.5 1.3 2.5 1.2 2.3 1.5 2 1.5 2 1.8 1.5 1.7 1.2 1.8 1.3 2 4.7 11 6.3 14.7 7.2 17.5 7.3 18.8 7 19 3.2 9.2 3 8.8 2.5 8 2 7.2 1.5 6.5 1 5.3m-186.2-154.8-2.8 1.5-7.5 4.3-5 3.2-5.5 3.8-5.7 4.5-6.3 4.7-6 5.5-6 6-2.7 3-2.5 3.3-2.5 3.2-2.5 3.5-2 3.5-2 3.8-1.8 3.5-1.2 4-1.3 3.7-.7 4-.5 4v4l.2 7.5.8 9 1.2 9.8 1.5 10.5 2.3 11.2 2.5 11.5 3 11.8 3.7 12 2 5.7 2.3 5.8 2.2 5.5 2.5 5.5 2.8 5.5 2.7 5.2 3 4.8 3.3 4.7 3.2 4.5 3.5 4.3 3.8 3.7 4 3.5 4 3.3 4.2 2.7 4.5 2.5 4.8 1.8 5 1.5 5.2 1h.3"/><path d="m382.4 249.3 6.8 15.2 7 15.8 7.7 18.7 3.8 9.8 3.7 9.7 3.5 9.5 3 9 2.3 8.3 1.7 7.2.5 3 .3 2.8v2.5l-.3 2"/><path d="m264.4 274.3 3.5 16.5 3.8 16.7 5 19.3 2.5 9.7 3 9.5 2.7 9 3 8.3 3 6.7 1.5 3 1.3 2.5 1.5 2 1.5 1.5 1.2 1 1.5.5h3.5l5.8-.7 7-1.5 8.5-2 19.7-5.3 21.3-6.2 20.7-6.3 17.8-5.5 17-5.2"/><path d="m255.4 164.3-103.2 36.2 60.2 284.8 1 4.7 177 53.3.3 1.7 31.5 204.8m-208.8-259.8-27.2 207.8m30.5-213.5 66-25"/><path d="m389.2 545.5 1.5-.5 51.5-20.5m-118 2 3.7 77"/></g></svg>