<svg height="850" viewBox="0 0 850 850" width="850" xmlns="http://www.w3.org/2000/svg"><path d="m416.6 435.8v-109.2h136v136h-136zm350 45.8v136h-136v-136z" fill="#a9d7f3"/><path d="m401.1 381.8 3.7 1.5 3 1.5 1.3.8.7 1 .8.7.2.8.8 3.7.2 3.5-.2 3.3-.3 3-.7 3-1 3-1.3 2.7-1.2 2.8-1.5 2.5-1.5 2.5-1.8 2.2-1.7 2-2 2-1.8 1.5-1.7 1.5-2 1-1.8.8-1.5.7 1.5.8 1.3 1 .7 1 .5 1 .5 2v2l.3 2.2-.3 2-.7 3.5-1.3 3.5-1.5 3.5-2.2 3.3-2.5 3.2-2.8 3.3-3 3-3.2 2.7-3.8 2.3-3.5 2-4.5 1.7-2 .5-2.2.5h-2l-2-.2-1.8-.8-.7-.5-.5-.7-.8-.8-.5-1-.2-1.2-.3-1.3-.2-1-.5-.7-.5-.8-.8-.7-1-.5-1-.5-2.5-.8-2.7-.2h-3.5l-3.8.2-3.7.8-4.3 1-4.2 1.2-4.3 1.5-4.2 1.8-4.3 2-4 2.5-3.7 2.5-3.5 2.7-3 2.8-2.8 2.7-4.2 4.8-3.3 4.2-2.7 4-3 4-3.3 4-4.2 4.3-2.5 2.5-3 2.5-3.3 2.2-3.7 2.3-3.8 2-4 2-4.2 1.5-4.3 1.5-4.5 1.5-4.5 1-9 2.2-9 1.8-17 3-4.2.5-4 .7-8.3.8-8.2.7-4 .8-3.8.7-4 1-3.5 1-3.7 1.8-3.3 1.7-3.2 2.5-3 2.8-2.8 3.2-2.7 3.8-52.3-131 58.8-50.8 36.7-31.7 14-11.8 8.3-7 18.5-14.5 16.5-12.7 28.5-21.5 22.2-16.3 17-11.7 12-8 8-5 4.3-2.5 1.2-.5 23 6.5 24.3 6.7 28.5 8.5 29.7 9 14.5 4.8 13.5 4.2 12.5 4.5 11 3.8 8.8 3.7 3.7 1.5 2.8 1.5 1.7 1 1.5 1 1.3 1.3 1.2 1.2.8 1.3.7 1.5.8 1.2.5 1.5.5 3v3l-.5 3-1 2.8-1.3 3-1.5 2.5-2 2.5-2 2.2-2.2 1.8-2.5 1.2-2.5.8-2.5.2h-1l-1.3-.2-16.5-4.5-19.7-5.5-21.3-6-21.7-5.8-10.5-2.5-10-2-9.3-1.7-8.5-1.3-7.5-.7h-6.2l-2.5.5-2.3.5-2 .5-1.5 1-10.7 9.5-10.8 9.7-12 10.8 12 1.7 12.5 2 14.5 3 7.8 1.5 7.5 1.8 7.2 2 6.8 2 6 2 5 2.2 2 1.3 2 1 1.5 1.2 1 1.3 1.2 2 1 2.5.5 2.5.3 2.7-.3 3.8-.7 3.7-1.3 3.5-1.5 3.3-1.5 3-1.7 2.5-2 1.7-1 .5-.8.3z" fill="#ffeec8"/><g fill="none" stroke="#231f20" stroke-linecap="round" stroke-miterlimit="10" stroke-width="21"><path d="m416.6 435.8v26.8h136v-136h-136v68.7zm214 181.8h136v-136h-136z"/><path d="m87.8 428.6 1.5-1.5 58.8-50.8 36.7-31.7 14-11.8 8.3-7 18.5-14.5 16.5-12.7 28.5-21.5 22.2-16.3 17-11.7 12-8 8-5 4.3-2.5 1.2-.5 23 6.5 24.3 6.7 28.5 8.5 29.7 9 14.5 4.8 13.5 4.2 12.5 4.5 11 3.8 8.8 3.7 3.7 1.5 2.8 1.5 1.7 1 1.5 1 1.3 1.3 1.2 1.2.8 1.3.7 1.5.8 1.2.5 1.5.5 3v3l-.5 3-1 2.8-1.3 3-1.5 2.5-2 2.5-2 2.2-2.2 1.8-2.5 1.2-2.5.8-2.5.2h-1l-1.3-.2-16.5-4.5-19.7-5.5-21.3-6-21.7-5.8-10.5-2.5-10-2-9.3-1.7-8.5-1.3-7.5-.7h-6.2l-2.5.5-2.3.5-2 .5-1.5 1-10.7 9.5-10.8 9.7-12 10.8 12 1.7 12.5 2 14.5 3 7.8 1.5 7.5 1.8 7.2 2 6.8 2 6 2 5 2.2 2 1.3 2 1 1.5 1.2 1 1.3 1.2 2 1 2.5.5 2.5.3 2.7-.3 3.8-.7 3.7-1.3 3.5-1.5 3.3-1.5 3-1.7 2.5-2 1.7-1 .5-.8.3"/><path d="m312.8 369.8 10.3.8 11 1 13.5 1.2 14.5 1.5 14.5 2.3 7 1 6.5 1.5 5.7 1.2 5.3 1.5 3.7 1.5 3 1.5 1.3.8.7 1 .8.7.2.8.8 3.7.2 3.5-.2 3.3-.3 3-.7 3-1 3-1.3 2.7-1.2 2.8-1.5 2.5-1.5 2.5-1.8 2.2-1.7 2-2 2-1.8 1.5-1.7 1.5-2 1-1.8.8-1.5.7m-80.5-6.5 10-.2h11l12.8.2 13.7.8 6.8.5 6.5.7 6 .8 5.2 1 4.8 1.2 3.7 1.5 1.5.8 1.3 1 .7 1 .5 1 .5 2v2l.3 2.2-.3 2-.7 3.5-1.3 3.5-1.5 3.5-2.2 3.3-2.5 3.2-2.8 3.3-3 3-3.2 2.7-3.8 2.3-3.5 2-4.5 1.7-2 .5-2.2.5h-2l-2-.2-1.8-.8-.7-.5-.5-.7-.8-.8-.5-1-.2-1.2-.3-1.3-.2-1-.5-.7-.5-.8-.8-.7-1-.5-1-.5-2.5-.8-2.7-.2h-3.5l-3.8.2-3.7.8-4.3 1-4.2 1.2-4.3 1.5-4.2 1.8-4.3 2-4 2.5-3.7 2.5-3.5 2.7-3 2.8-2.8 2.7-4.2 4.8-3.3 4.2-2.7 4-3 4-3.3 4-4.2 4.3-2.5 2.5-3 2.5-3.3 2.2-3.7 2.3-3.8 2-4 2-4.2 1.5-4.3 1.5-4.5 1.5-4.5 1-9 2.2-9 1.8-17 3-4.2.5-4 .7-8.3.8-8.2.7-4 .8-3.8.7-4 1-3.5 1-3.7 1.8-3.3 1.7-3.2 2.5-3 2.8-2.8 3.2-2.7 3.8m255-116 10.5-3.5 9.5-2.8 1-.2"/></g></svg>