<svg height="850" viewBox="0 0 850 850" width="850" xmlns="http://www.w3.org/2000/svg"><path d="m495.5 204-5.7-4-4.3-2.7-3.5-2.3-.2.3-4.8 3.2-5.5 3.3-6 3.2-6.2 3.5-14.5 7-15.8 7.5-17 7.3-17.7 7.5-18.3 7.5-18.2 7.2-35.3 13.8-31 12.5-13 5.2-10.7 4.8-8.3 4-3.2 1.7-2.3 1.5-6 6.5-15.2 16.3-9.8 10.7-10.2 11.8-10.3 12.2-10 12.3-6.5 8.5-5.7 8-4.8 7.5-2 3.5-1.5 3.2-2.5-77 .3-11.2 1-11 1.2-10.8 2-10.2 2.3-10.3 2.5-9.7 3-9.5 3.5-9 3.5-8.8 4-8.5 4.2-8.2 4.3-7.8 4.5-7.5 4.5-7 4.7-6.7 4.5-6.3 4.8-6 4.7-5.7 4.5-5.3 4.5-5 8.3-8.7 7.7-7.3 6.3-5.5 5-4.2 4.2-3.3 8-5 6-3.7 5.3-3 9.7-5.5 10.3-5 10.2-4.5 11-4 11-3.8 11.8-3 11.7-2.7 12.5-2.3 12.8-1.7 13-1.3 13.5-.7 14-.3 14.2.3 14.8.5 15 1.2 15.5 1.5 9.5 1.5 9.2 1.8 9.3 2.5 9 2.7 8.7 3.5 8.8 3.8 8.5 4.2 8.2 4.8 8 5 8 5.5 7.5 6 7.5 6.2 7.3 6.8 7 7.2 6.7 7.5 6.5 7.8 6.3 8 6 8.5 5.7 8.7 5.5 9 5 9.5 5 9.5 4.5 10 4.3 10.3 4 10.2 3.7 10.5 3.3 11 3 11 2.5 11.3 2.5 11.2 1.7 11.8 1.8 11.7.7 8 .3 8.5.2 9-.2 9.3-.5 9.2-.8 9-1 9-1.2 8.3-5 1.5-2.8-.5h-7.5l-2.2.5-2.5.2-4.5 1.3-2.5.2-.5-1.7-1-3.5-1-3.5-1.3-3.5-1.5-3.3-3.2-6.7-3.8-6.5-4.2-6.3-4.5-6-4.5-5.7-4.8-5.5-4.7-5.5-4.8-5-8.5-9-7.5-7.8-2.7-3.2-2.5-3-8-11-8-10.5-7.8-9.5-7.5-9.3-7.2-8.5-7-7.7-6.8-7.3-6.5-6.7-6-6-5.7-5.8-10.8-9.7-9.2-7.8z" fill="#9e5c26"/><path d="m435 605.3h-1 2.3zm219.3-209.8.8 28.3.3 25.8-.4 12.4-.8 12.8-1.3 12.5-1.8 12.5-2 12.5-2.5 12.3-2.8 12-3.3 12-2.8 9.3-3 9-3.3 9-3.3 8.8-3.5 8.8-3.5 8.5-4 8.5-3.8 8.5-4.3 8-4.3 8-4.3 8-4.5 7.8-3.9 7.2-4.8 7.3-4.8 7.3-4.8 7-4.8 6.8-5 6.8-5 6.5-5 6-5 6-5.3 5.8-5 5.5-5 5.5-5.3 5-5 4.8-5 4.5-5 4.3-5 4-5 3.8-5 3.5-4.8 3.3-4.5 2-4.5 2-4.5 1.5-3.9.8-4.5 1-4.3.8-4.3.8-4.3.5-8.8.5-9.3.3-20-.3-18.5.3-8.5.3-8-.3-3.8-.5-4-.3-4-.8-4-.8-4-1-4-1.3-4.3-1.5-4.3-1.8-5.3-3.3-5.3-3.3-5.3-3.5-5.3-4-5.5-4.3-5.3-4.5-5.5-4.8-5.3-5-5.3-5-5.5-5.5-5.3-5.8-5.3-6-5.3-6.3-5-6.3-5.3-6.8-5-6.8-5-7-4.8-7.3-4.8-7.5-3.7-6.9-4.5-7.8-4.5-8-4.3-8-4.3-8.3-4-8.5-4-8.5-3.5-8.8-3.8-8.8-3.3-9-3.3-9-3-9.3-2.5-9-3.3-12.3-3-12.5-2.5-12.5-2-12.8-1.8-12.8-1.3-12.8-.8-13-.3-13 .3-51.5.5-30.5-2.5-1.8 10-12.3 10.3-12.3 10.3-11.8 9.8-10.8 15.3-16.3 6-6.5 2.3-1.5 3.3-1.8 8.3-4 10.8-4.8 13-5.3 31-12.5 35.3-13.8 18.3-7.3 18.3-7.5 17.8-7.5 17-7.3 15.8-7.5 14.5-7 6.3-3.5 6-3.3 5.5-3.3 4.8-3.3.8 1 1.3 1 3.5 2.3 4.3 2.5 4 2 7.8 6 9.3 7.8 10.8 9.8 5.8 5.8 6 6 6.5 6.8 6.8 7.3 7 7.8 7.3 8.5 7.5 9.3 7.8 9.5 8 10.5 8 11 2.5 3 2.8 3.3 7.5 7.8 8.5 9 4.8 5 4.8 5.5 4.8 5.5 4.5 5.8 4.5 6 4.3 6.3 3.8 6.5 3.3 6.8 1.5 3.3 1.3 3.5 1 3.5 1 3.5v2z" fill="#ffeec8"/><path d="m654.8 395.5 2.5-.2 4.5-1.3 2.5-.2 2.2-.5h7.5l2.8.5 2.5.5 2.2.5 2 .7 2 1 1.8 1 1.7 1.3 1.5 1 1.3 1.5 1.2 1.5 1 1.5 1.8 3.2 1.2 3.5.8 3.5.2 4v3.8l-.2 4-.5 3.7-1 3.8-1 3.5-1.3 3.2-1.2 3-3 6.8-2.5 6.2-2.3 5.8-1.5 5.2-1 5-1 4.8-.5 4.5-.2 4.5v8.5l.2 8.5v14l-.2 5-.5 2.2-.5 2.3-.8 2.5-1.2 2.5-1.3 2.5-1.7 2.5-2 2.5-2.3 2.2-2.5 2-2.7 2-3.3 1.5-3.2 1.3-3.8 1-4 .5-4.2-.3-4.8-.5-1.2-.5 3.2-12 2.8-12 2.5-12.2 2-12.5 1.7-12.5 1.3-12.5.7-12.8.3-12.5-.3-25.7-.7-28.3zm-445.8 155.5-2.2.5-4.8.8h-4.2l-4-.3-3.8-1-3.5-1.2-3-1.5-2.7-2-2.5-2-2.3-2.5-2-2.3-1.7-2.5-1.3-2.7-1.2-2.5-.8-2.3-.5-2.5-.5-2-.2-5.2v-13.8l.2-8.5v-8.5l-.2-4.5-.5-4.5-1-4.7-1-5-1.8-5.5-2-5.5-2.5-6.3-3-6.7-1.5-3-1-3.3-1.2-3.5-.8-3.7-.5-3.8-.5-4 .3-4 .2-3.7.8-3.8 1.2-3.5 1.8-3.2 1-1.5 1.2-1.3 1.3-1.5 1.5-1.2 1.7-1 1.8-1 2-1 2-.8 2.2-.7 2.5-.3 2.5-.5 2.8-.2h2.5l2.5.2 2.2.3 2.5.5 4.5 1.2h3l-.2 51.5.2 13 .8 13 1.2 12.8 1.8 12.7 2 12.8 2.5 12.5 3 12.5z" fill="#ffeec8"/><g fill="none" stroke="#231f20" stroke-linecap="round" stroke-miterlimit="10"><path d="m191.5 398-4.5-1.2-2.5-.5-2.2-.3-2.5-.2h-2.5l-2.8.2-2.5.5-2.5.3-2.2.7-2 .8-2 1-1.8 1-1.7 1-1.5 1.2-1.3 1.5-1.2 1.3-1 1.5-1.8 3.2-1.2 3.5-.8 3.8-.2 3.7-.3 4 .5 4 .5 3.8.8 3.7 1.2 3.5 1 3.3 1.5 3 3 6.7 2.5 6.3 2 5.5 1.8 5.5 1 5 1 4.7.5 4.5.2 4.5v8.5l-.2 8.5v13.8l.2 5.2.5 2 .5 2.5.8 2.3 1.2 2.5 1.3 2.7 1.7 2.5 2 2.3 2.3 2.5 2.5 2 2.7 2 3 1.5 3.5 1.2 3.8 1 4 .3h4.2l4.8-.8m450.5-156.2 4.5-1.3 2.5-.2 2.2-.5h7.5l2.8.5 2.5.5 2.2.5 2 .7 2 1 1.8 1 1.7 1.3 1.5 1 1.3 1.5 1.2 1.5 1 1.5 1.8 3.2 1.2 3.5.8 3.5.2 4v3.8l-.2 4-.5 3.7-1 3.8-1 3.5-1.3 3.2-1.2 3-3 6.8-2.5 6.2-2.3 5.8-1.5 5.2-1 5-1 4.8-.5 4.5-.2 4.5v8.5l.2 8.5v14l-.2 5-.5 2.2-.5 2.3-.8 2.5-1.2 2.5-1.3 2.5-1.7 2.5-2 2.5-2.3 2.2-2.5 2-2.7 2-3.3 1.5-3.2 1.3-3.8 1-4 .5-4.2-.3-4.8-.5m-271.2 123.5 6.5 2.3 6.7 2 7.3 1.5 7.5 1.5 7.5.7 7.7.8 8 .5h7.8l7.7-.3 7.8-.5 7.5-1 7.2-1 7-1.5 6.5-1.5 6-2 5.8-2.2" stroke-width="21"/><path d="m654.3 390.8v4.7l.7 28.3.3 25.7-.3 12.5-.7 12.8-1.3 12.5-1.7 12.5-2 12.5-2.5 12.2-2.8 12-3.2 12-2.8 9.3-3 9-3.2 9-3.3 8.7-3.5 8.8-3.5 8.5-4 8.5-3.7 8.5-4.3 8-4.2 8-4.3 8-4.5 7.7-4.5 7.5-4.7 7.3-4.8 7.2-4.7 7-4.8 6.8-5 6.7-5 6.5-5 6-5 6-5.2 5.8-5 5.5-5 5.5-5.3 5-5 4.7-5 4.5-5 4.3-5 4-5 3.7-5 3.5-4.7 3.3-4.5 2-4.5 2-4.5 1.5-4.3 1.2-4.5 1-4.2.8-4.3.7-4.2.5-8.8.5-9.2.3-20-.3-18.5.3-8.5.2-8-.2-3.8-.5-4-.3-4-.7-4-.8-4-1-4-1.2-4.2-1.5-4.3-1.8-5.2-3.2-5.3-3.3-5.2-3.5-5.3-4-5.5-4.2-5.2-4.5-5.5-4.8-5.3-5-5.2-5-5.5-5.5-5.3-5.7-5.2-6-5.3-6.3-5-6.2-5.2-6.8-5-6.7-5-7-4.8-7.3-4.7-7.5-4.8-7.5-4.5-7.7-4.5-8-4.2-8-4.3-8.3-4-8.5-4-8.5-3.5-8.7-3.7-8.8-3.3-9-3.2-9-3-9.2-2.8-9.3-3.2-12.2-3-12.5-2.5-12.5-2-12.8-1.8-12.7-1.2-12.8-.8-13-.2-13 .2-51.5.5-30.5" stroke-width="21"/><path d="m435 605.3 2-.5 2-.8 3-1.2 2.5-1.5 2-1.5 2-1 1.3-.5 1.2-.3 1.8-.2 1.7.2 2 .3 2.3.5 8.7 2.2 4.3.8h3.7l1.8-.3 1.7-.7 1.5-.8 1.5-1.2 1.3-1.8 1-2.2.7-2.5.8-3.3.2-2.2v-2l-.2-1.8-.5-1.7-.5-1.5-.8-1.3-1.7-2.5-4.5-5-2.5-2.7-1-1.8-1-1.7m-38.3 40.5h1.3-2.3zm-39.5-156.8 1.8 2.3 1.7 2.5 1.8 2.5 1.2 2.7 1.3 3 1.2 3 1 3 1 3.3 1.3 6.7 1 7 .5 7.3.2 7.5-.2 7.5-.5 7.5-1 7.2-1 7.3-1.3 6.7-1.5 6.5-1.5 6-1.7 5.8-4 10.7-1 2-1 1.5-2.3 3-4.7 4.8-1.8 2.5-.7 1.5-.5 1.5-.5 1.5-.3 2v2l.3 2.2.7 3 .8 2.8 1 2 1.2 1.7 1.5 1.3 1.5 1 1.8.5 1.7.2 1.8.3 2-.3 4.2-.7 8.8-2.3 2.2-.5 2-.2h1.8l1.5.2 1.2.5 1.3.5 2 1.5 2 1.5 2.2 1.5 1.5.5 1.8.5 1.7.5 2.5.3" stroke-width="14"/><path d="m681.8 392.3 1.2-8.3 1-9 .8-9 .5-9.2.2-9.3-.2-9-.3-8.5-.7-8-1.8-11.7-1.7-11.8-2.5-11.2-2.5-11.3-3-11-3.3-11-3.7-10.5-4-10.2-4.3-10.3-4.5-10-5-9.5-5-9.5-5.5-9-5.7-8.7-6-8.5-6.3-8-6.5-7.8-6.7-7.5-7-7.2-7.3-6.8-7.5-6.2-7.5-6-8-5.5-8-5-8.2-4.8-8.5-4.2-8.8-3.8-8.7-3.5-9-2.7-9.3-2.5-9.2-1.8-9.5-1.5-15.5-1.5-15-1.2-14.8-.5-14.2-.3-14 .3-13.5.7-13 1.3-12.8 1.7-12.5 2.3-11.7 2.7-11.8 3-11 3.8-11 4-10.2 4.5-10.3 5-9.7 5.5-5.3 3-6 3.7-8 5-4.2 3.3-5 4.2-6.3 5.5-7.7 7.3-8.3 8.7-4.5 5-4.5 5.3-4.7 5.7-4.8 6-4.5 6.3-4.7 6.7-4.5 7-4.5 7.5-4.3 7.8-4.2 8.2-4 8.5-3.5 8.8-3.5 9-3 9.5-2.5 9.7-2.3 10.3-2 10.2-1.2 10.8-1 11-.3 11.2 2.5 77 1.5-3.2 2-3.5 4.8-7.5 5.7-8 6.5-8.5 10-12.3 10.3-12.2 10.2-11.8 9.8-10.7 15.2-16.3 6-6.5 2.3-1.5 3.2-1.7 8.3-4 10.7-4.8 13-5.2 31-12.5 35.3-13.8 18.2-7.2 18.3-7.5 17.7-7.5 17-7.3 15.8-7.5 14.5-7 6.2-3.5 6-3.2 5.5-3.3 4.8-3.2.2-.3 3.5 2.3 4.3 2.7 5.7 4 7.8 6 9.2 7.8 10.8 9.7 5.7 5.8 6 6 6.5 6.7 6.8 7.3 7 7.7 7.2 8.5 7.5 9.3 7.8 9.5 8 10.5 8 11 2.5 3 2.7 3.2 7.5 7.8 8.5 9 4.8 5 4.7 5.5 4.8 5.5 4.5 5.7 4.5 6 4.2 6.3 3.8 6.5 3.2 6.7 1.5 3.3 1.3 3.5 1 3.5 1 3.5.5 1.7 1 5 .5 5.3" stroke-width="21"/><path d="m501.8 206.3h-1l-1.5-.5-3.8-1.8-4-2-4.2-2.5-3.5-2.2-1.3-1-.7-1-.3-.5 2.5-2.8 2.8-3 2.5-3 2.2-3.5 2.3-3.5 2.2-3.5 2-3.7 1.8-3.8 1.7-4 1.5-4.2 1.3-4 1.2-4.3.8-4.2.7-4.5.3-4.3.2-4.5" stroke-width="21"/><path d="m372 440.5-1.2 2-1.5 2.3-1.8 2.2-2 2-2.2 2-2.3 2-2.7 1.8-3 2-3 1.5-3.3 1.7-3.5 1.3-3.5 1.5-4 1-4 1.2-4 .8-4.5.7-6 .5h-6.7l-4-.5-4-.7-4-1-3.5-1.5-3-1.3-2.8-1.7-2.7-2-2.5-2.3-1.8-1.7-1.2-1.8-2.5-3.2-1.5-3.3-1-3-.8-2.2-.2-2v-1.8" stroke-width="14"/><path d="m262.5 430.5 1.3-1 3.2-2.5 5.3-3.5 3.2-1.7 3.8-2.3 4.2-2 4.3-1.7 4.7-1.8 5.3-1.7 5.2-1.3 5.8-.7 5.7-.8h6l6.8.5 3.7.5 3.5.8 3.8.7 4 1 3.5 1.3 3.7 1.5 3.5 1.7 3.5 1.8 3 2.2 3 2.3 2.5 2.7 2.3 3 2 3.3 1.5 3.5" stroke-width="7"/><path d="m249.3 389.3 1.7-1.3 5.3-3.2 3.7-1.8 4.5-2.2 5.3-2 5.7-2 6.3-1.8 7-1.7 7.2-1 3.8-.3 4-.2h8l4.2.2 4.3.5 4.5.8 4.2 1 4.5 1.2 4.5 1.3 7.3 2.7 6.5 3.3 5.7 3 4.8 3 4 2.5 2.7 2 2.5 2" stroke-width="14"/><path d="m269 470.8 1.3-2.8 1.2-3 1.8-3.2 1.7-3.5 2-2.8 1.3-1.2 1-1 1-.5 1-.3m-3.8 24.8 1-3 1.5-2.8 1.5-3.5 2-3.2 2-3 1-1 1-1 1-.5 1-.3m-2.5 23.5 1-2.7 2.3-6.5 1.5-3.3 1.7-3.2 1-1.3.8-1 1-.7 1-.5h.2m1.8 22.2.2-2.5 1-5.7.8-3.3 1-3.2 1-3 .7-1 .8-1 .5-.8.7-.2m4 18.7v-7.5l.3-3 .5-2.7.5-1 .2-1 .8-.8.5-.5.2-.2m4.8 17-.3-2.5.3-5.3.2-3 .5-2.7.5-1 .5-1 .5-.8.8-.5m6.2 16.5-.2-2.2-.5-5.5v-2.8l.2-2.7.3-1.3.5-1 .5-.7.5-.5m7 16.2-.3-2.5-.5-5.2v-3l.3-2.8.2-1 .5-1 .5-1 .5-.5" stroke-width="4.25"/><path d="m482.3 439.5 1.2 2.3 1.5 2.2 1.8 2 2 2.3 2 2 2.5 2 2.7 1.7 2.8 1.8 3.2 1.7 3.3 1.5 3.5 1.5 3.5 1.5 4 1 4 1 4 1 4.5.5 6 .5 3.2.3 3.3-.3 4.2-.2 4-.8 3.8-1 3.7-1.5 3-1.2 2.8-1.8 2.7-2 2.5-2.2 1.5-1.8 1.5-1.7 2.3-3.5 1.7-3 1-3 .8-2.5.2-1.8v-1.7" stroke-width="14"/><path d="m591.8 429.8-1.3-1-3.2-2.5-5.3-3.5-3.2-2-3.8-2-4.2-2-4.5-1.8-4.8-2-5-1.5-5.2-1.2-5.8-1-5.7-.5h-6l-6.8.5-3.7.5-3.8.5-3.7 1-3.8 1-3.7 1.2-3.5 1.5-3.5 1.5-3.5 2-3 2.3-3 2.2-2.5 2.8-2.5 3-1.8 3.2-1.5 3.5" stroke-width="7"/><path d="m605 388.3-2-1.3-5-3-4-2-4.2-2-5.3-2-5.7-2-6.3-2-7-1.5-7.2-1-3.8-.5h-4l-4-.2-4.2.2-4 .3-4.3.5-4.5.7-4.2 1-4.5 1-4.5 1.5-7.3 2.8-6.5 3-5.7 3.2-5 2.8-3.8 2.7-3 2-2.2 2" stroke-width="14"/><path d="m585.3 470-1.3-2.7-1.2-3-1.8-3.3-2-3.5-2-3-1-1-1-1-1-.5-1-.2m3.8 24.5-1-2.8-1.5-3-1.5-3.2-2-3.3-2-3-1-1.2-1-.8-1-.7h-1m2.5 23.5-1-3-2.3-6.3-1.5-3.5-1.7-3-1-1.2-1-1-.8-.8-1-.5h-.2m-1.8 22.3-.2-2.5-1-5.8-.8-3.5-1-3.2-1-2.8-.7-1.2-.8-.8-.7-.7-.8-.3m-3.7 18.5v-7.5l-.3-2.7-.5-2.8-.5-1.2-.5-1-.5-.8-.7-.5m-4.8 17v-7.7l-.2-3-.5-2.8-.5-1-.5-1-.5-.7-.8-.5m-6.5 16.5.5-2.5.5-5.3v-3l-.2-2.7-.5-1-.3-1-.5-.8-.7-.5m-6.8 16 .3-2.2.5-5.3v-3l-.3-2.7-.2-1.3-.5-1-.5-.7-.5-.5" stroke-width="4.25"/></g></svg>