<svg height="850" viewBox="0 0 850 850" width="850" xmlns="http://www.w3.org/2000/svg"><path d="m742.5 223.3v404.7l-.3 3.8-.5 3.8-1 3.5-1.3 3.5-1.5 3.3-2 3.3-2.3 2.8-2.3 2.8-2.8 2.5-3 2-3 2-3.3 1.5-3.5 1.3-3.8 1-3.5.5-4 .3h-561.1l-4-.3-3.5-.5-3.8-1-3.5-1.3-3.3-1.5-3-2-3-2-2.8-2.5-2.3-2.8-2.1-3-2-3.3-1.5-3.3-1.3-3.5-1-3.5-.5-3.8-.3-3.8v-404.5l.3-4 .5-3.8 1-3.5 1.3-3.5 1.5-3.3 2-3 2.3-3 2.3-2.8 2.8-2.5 3-2 3-2 3.3-1.5 3.5-1.3 3.8-1 3.5-.5 4-.3h561.5l4 .3 3.5.5 3.8 1 3.5 1.3 3.3 1.5 3 2 3 2 2.8 2.5 2.3 2.8 2.3 3 2 3 1.5 3.3 1.3 3.5 1 3.5.5 3.8zm-82.5 332.2v-261.7l-113.3 65.5-113.3 65.5 113.3 65.5zm-251 0v-261.7l-113.3 65.5-113.3 65.5 113.3 65.5z" fill="#ffffc2"/><path d="m660 424.8v130.7l-113.2-65.2-113.3-65.5 113.3-65.5 113.2-65.5zm-251 0v130.7l-113.2-65.2-113.3-65.5 113.3-65.5 113.2-65.5z" fill="#231f20"/><g fill="none" stroke="#231f20" stroke-linecap="round" stroke-miterlimit="10"><path d="m742.5 628-.2 3.8-.5 3.7-1 3.5-1.3 3.5-1.5 3.3-2 3.2-2.2 2.8-2.3 2.7-2.7 2.5-3 2-3 2-3.3 1.5-3.5 1.3-3.7 1-3.5.5-4 .2h-561.5l-4-.2-3.5-.5-3.8-1-3.5-1.3-3.2-1.5-3-2-3-2-2.8-2.5-2.2-2.7-2.3-2.8-2-3.2-1.5-3.3-1.2-3.5-1-3.5-.5-3.7-.3-3.8v-404.7l.3-4 .5-3.8 1-3.5 1.2-3.5 1.5-3.2 2-3 2.3-3 2.2-2.8 2.8-2.5 3-2 3-2 3.2-1.5 3.5-1.2 3.8-1 3.5-.5 4-.3h561.5l4 .3 3.5.5 3.7 1 3.5 1.2 3.3 1.5 3 2 3 2 2.7 2.5 2.3 2.8 2.2 3 2 3 1.5 3.2 1.3 3.5 1 3.5.5 3.8.2 4z" stroke-width="35"/><path d="m182.5 424.8 113.3 65.5 113.2 65.2v-261.7l-113.2 65.5zm251 0 113.3 65.5 113.2 65.2v-261.7l-113.2 65.5z" stroke-width="28.25"/></g></svg>