<svg height="850.394" viewBox="0 0 850.394 850.394" width="850.394" xmlns="http://www.w3.org/2000/svg"><path d="m548.01 72.74c54.04.78 106.721 16.08 106.721 16.08v34.02s-49.011-13.82-103.86-13.05l-.021-2.33-2.85-34.28zm-297.31 13.91 72.73 39.77s2.12-.69 5.97-1.92l.08.24v31.2c-10.5 2.79-16.8 4.51-16.8 4.51l-82.53-45.85 18.19-23.63z" fill="#ef3d27"/><path d="m250.7 86.65-2.36 4.32-18.19 23.63-37.21-20.67-3.89-.77c14.51-24.16 19.76-29.41 19.76-29.41z" fill="#ef3d27"/><path d="m230.15 114.6 82.53 45.85s6.3-1.72 16.8-4.51v-.01c13.23-3.52 33.13-8.75 55.52-14.42 18.88-4.78 39.52-9.87 59.41-14.5 19.64-4.57 38.55-8.69 54.3-11.63 7.42-1.38 14.14-2.5 19.91-3.28 10.76-1.45 21.62-2.16 32.25-2.31 54.85-.77 103.86 13.05 103.86 13.05s34.02 8.96 34.02 34.03v64.47c0 30.44-16.12 419.05-16.12 419.05s20.73 45.15 8.96 75.21c-16.12 41.19 0 59.101 0 59.101s-107.45 14.33-191.62-3.58-130.729-8.96-198.78 1.79c-68.05 10.74-98.49 30.439-119.98-41.19-21.49-71.63 7.16-139.68 7.16-218.479s19.7-154.01 0-211.32c-19.7-57.3-32.24-132.52-5.37-180.87 6.3-11.33 11.61-20.5 16.05-27.89l3.89.77zm363.69 530.55v-387.39c0-11.21-9.09-20.3-20.31-20.3h-292.48c-11.21 0-20.3 9.09-20.3 20.3v387.39c0 11.22 9.09 20.31 20.3 20.31h292.48c11.22 0 20.31-9.09 20.31-20.31z" fill="#ef3d27"/><path d="m375.69 558.55c8.31 1.62 25.17 10.33 20.84 18.87-4.86 9.561-17.21 8.09-25.97 3.51-15.66-7.56-26.47-3.55-20.14-16.569 3.53-7.271 18.53-7.141 25.27-5.811zm17.73-38.17c6.58 7.38 11.05 18.99 2.97 26.04-7.22 6.3-19.79-7.91-23.41-15.56-2.94-6.21-6.75-20.721-.57-25.92 11.06-9.33 9.83 2.14 21.01 15.44zm57.32 11.17c4.21 5.431 11.06 18.76 6.16 25.181-8.801 11.52-10.07.039-23.87-10.53-8.01-5.78-14.88-16.15-8.53-24.78 5.7-7.711 21.04 3.439 26.24 10.129zm90.77 19.57c3.48 14.05-6.26 7.88-23.14 12.02-9.53 2.641-21.92 1.521-24.67-8.83-2.46-9.26 15.84-14.27 24.3-14.13 6.87.1 21.56 3.09 23.51 10.94zm-58.04-66.66c6.62 1.88 20.05 8.54 19.91 16.63-.26 14.48-8.08 5.99-25.47 5.65-9.88.109-21.561-4.15-21.561-14.87.011-9.58 18.981-9.71 27.121-7.41zm43.28-2.66c8.14-2.3 27.12-2.17 27.12 7.41 0 10.72-11.68 14.99-21.561 14.87-17.39.34-25.21 8.82-25.46-5.66-.139-8.08 13.291-14.75 19.901-16.62zm20.56-49.72c5.21 6.67 12.24 24.28 3.37 27.91-9.92 4.04-18.279-5.17-21.92-14.36-6.87-15.97-17.67-20.02-4.359-25.71 7.439-3.18 18.679 6.74 22.909 12.16zm-61.49-9.5c13.319 5.689 2.51 9.74-4.36 25.71-3.63 9.2-11.99 18.4-21.92 14.35-8.88-3.609-1.83-21.229 3.38-27.899 4.23-5.421 15.47-15.341 22.9-12.161zm-49.79 30.97c4.21 5.431 11.069 18.76 6.16 25.181-8.79 11.52-10.061.039-23.871-10.53-8.01-5.78-14.87-16.15-8.52-24.78 5.681-7.721 21.041 3.439 26.231 10.129zm-37.73 8.31c6.33 13.02-4.49 9.01-20.14 16.59-8.77 4.56-21.12 6.05-25.97-3.51-4.33-8.551 12.53-17.25 20.83-18.881 6.75-1.319 21.74-1.459 25.28 5.801zm-45.82 18.65c12.83 6.73 1.73 9.92-6.38 25.29-4.34 8.87-13.4 17.4-22.98 12.58-8.56-4.31-.15-21.32 5.57-27.56 4.65-5.06 16.64-14.06 23.79-10.31zm-9.41-43.24c6.33 13.03-4.49 9.021-20.14 16.591-8.76 4.56-21.11 6.05-25.96-3.511-4.35-8.55 12.51-17.26 20.82-18.89 6.75-1.32 21.75-1.46 25.28 5.81zm45.67-24.16c6.58 7.38 11.05 18.98 2.97 26.03-7.22 6.301-19.79-7.909-23.41-15.56-2.94-6.2-6.75-20.71-.57-25.92 11.06-9.34 9.83 2.13 21.01 15.45zm44.46-19.96c4.2 5.43 11.06 18.77 6.16 25.19-8.801 11.521-10.07.05-23.88-10.54-8-5.77-14.87-16.14-8.52-24.77 5.69-7.71 21.04 3.44 26.24 10.12zm45.6-15.97c6.601 1.88 20.03 8.54 19.891 16.63-.25 14.48-8.07 5.99-25.46 5.65-9.881.12-21.561-4.15-21.561-14.87 0-9.59 18.99-9.71 27.13-7.41zm52.63-2.66c8.15-2.3 27.12-2.18 27.12 7.41 0 10.71-11.67 14.99-21.56 14.87-17.391.33-25.2 8.83-25.46-5.66-.15-8.08 13.29-14.74 19.9-16.62zm-49.36-49.37c4.199 5.43 11.06 18.76 6.16 25.19-8.801 11.51-10.07.04-23.87-10.54-8.021-5.78-14.88-16.15-8.53-24.78 5.69-7.71 21.04 3.44 26.24 10.13zm-49.56 9.74c6.33 13.03-4.479 9.01-20.14 16.59-8.76 4.57-21.11 6.04-25.97-3.51-4.33-8.55 12.53-17.25 20.84-18.88 6.74-1.33 21.74-1.46 25.27 5.8zm-73.35 42.09c1.53 14.41-7.28 6.96-24.58 8.76-9.78 1.31-21.9-1.49-23.22-12.13-1.18-9.51 17.64-11.96 26.01-10.69 6.78 1.06 20.94 6.03 21.79 14.06z" fill="#ffffc2"/><path d="m503.38 501.09c.14-8.09-13.29-14.75-19.91-16.63-8.14-2.3-27.109-2.17-27.12 7.41 0 10.72 11.681 14.979 21.561 14.87 17.389.34 25.209 8.83 25.469-5.65zm3.47-2.67c.25 14.48 8.07 6 25.46 5.66 9.881.12 21.561-4.15 21.561-14.87 0-9.58-18.98-9.71-27.12-7.41-6.611 1.87-20.041 8.54-19.901 16.62zm-154.37-17.91c-7.15-3.75-19.14 5.25-23.79 10.311-5.72 6.239-14.13 23.25-5.57 27.56 9.58 4.82 18.64-3.71 22.98-12.58 8.11-15.371 19.21-18.561 6.38-25.291zm-.29-5.57c4.85 9.56 17.2 8.069 25.97 3.51 15.65-7.58 26.47-3.57 20.14-16.59-3.54-7.261-18.53-7.12-25.28-5.801-8.3 1.631-25.16 10.331-20.83 18.881zm241.65-217.18v387.39c0 11.22-9.09 20.31-20.31 20.31h-292.48c-11.21 0-20.3-9.09-20.3-20.31v-387.39c0-11.21 9.09-20.3 20.3-20.3h292.48c11.22 0 20.31 9.09 20.31 20.3zm-43.16 202.23c8.87-3.63 1.84-21.24-3.37-27.91-4.229-5.42-15.47-15.34-22.909-12.16-13.311 5.69-2.511 9.74 4.359 25.71 3.64 9.19 12 18.4 21.92 14.36zm7.87-78.06c0-9.59-18.97-9.71-27.12-7.41-6.609 1.88-20.05 8.54-19.899 16.62.26 14.49 8.069 5.99 25.46 5.66 9.889.12 21.559-4.16 21.559-14.87zm-40.18 181.21c16.88-4.14 26.62 2.03 23.14-12.02-1.95-7.851-16.64-10.84-23.51-10.94-8.46-.14-26.76 4.87-24.3 14.13 2.75 10.35 15.14 11.47 24.67 8.83zm-19.68-169.33c.14-8.09-13.29-14.75-19.891-16.63-8.14-2.3-27.13-2.18-27.13 7.41 0 10.72 11.68 14.99 21.561 14.87 17.39.34 25.21 8.83 25.46-5.65zm-10.46-43.47c4.899-6.43-1.961-19.76-6.16-25.19-5.2-6.69-20.551-17.84-26.24-10.13-6.35 8.63.51 19 8.53 24.78 13.8 10.58 15.07 22.05 23.87 10.54zm-6.77 97.95c6.87-15.97 17.68-20.021 4.36-25.71-7.431-3.18-18.67 6.74-22.9 12.16-5.21 6.67-12.26 24.29-3.38 27.899 9.93 4.051 18.29-5.149 21.92-14.349zm-24.56 108.44c4.899-6.421-1.95-19.75-6.16-25.181-5.2-6.689-20.54-17.84-26.24-10.13-6.35 8.63.52 19 8.53 24.78 13.8 10.571 15.07 22.051 23.87 10.531zm-14.71-78c4.909-6.421-1.95-19.75-6.16-25.181-5.19-6.689-20.55-17.85-26.23-10.13-6.35 8.63.51 19 8.52 24.78 13.81 10.571 15.08 22.051 23.87 10.531zm-2.83-60.39c4.899-6.42-1.96-19.76-6.16-25.19-5.2-6.68-20.55-17.83-26.24-10.12-6.35 8.63.52 19 8.52 24.77 13.81 10.59 15.08 22.06 23.88 10.54zm-26.99-66.86c15.66-7.58 26.47-3.56 20.14-16.59-3.529-7.26-18.53-7.13-25.27-5.8-8.31 1.63-25.17 10.33-20.84 18.88 4.86 9.55 17.21 8.08 25.97 3.51zm-15.98 194.94c8.08-7.05 3.61-18.66-2.97-26.04-11.18-13.3-9.95-24.77-21.01-15.439-6.18 5.199-2.37 19.71.57 25.92 3.62 7.649 16.19 21.859 23.41 15.559zm.14 31c4.33-8.54-12.53-17.25-20.84-18.87-6.74-1.33-21.74-1.46-25.27 5.811-6.33 13.02 4.48 9.01 20.14 16.569 8.76 4.58 21.11 6.05 25.97-3.51zm-4.82-138.28c8.08-7.05 3.61-18.649-2.97-26.03-11.18-13.32-9.95-24.79-21.01-15.45-6.18 5.21-2.37 19.72.57 25.92 3.62 7.65 16.19 21.86 23.41 15.56zm-57.13-53.4c17.3-1.8 26.11 5.65 24.58-8.76-.85-8.03-15.01-13-21.79-14.06-8.37-1.27-27.19 1.18-26.01 10.69 1.32 10.64 13.44 13.44 23.22 12.13zm-11.65 68.12c15.65-7.57 26.47-3.561 20.14-16.591-3.53-7.27-18.53-7.13-25.28-5.81-8.31 1.63-25.17 10.34-20.82 18.89 4.85 9.561 17.2 8.071 25.96 3.511z" fill="#f6cc4b"/><g fill="#ef3d27"><path d="m550.85 107.46.021 2.33c-10.63.15-21.49.86-32.25 2.31-5.771.78-12.49 1.9-19.91 3.28l-.05-3.68-2.7-32.72c19.11-3.84 35.91-6.28 47.74-6.28 1.439 0 2.88.01 4.31.04l-.011.44z"/><path d="m498.66 111.7.05 3.68c-15.75 2.94-34.66 7.06-54.3 11.63l-.05-.22-9.33-33.11-.05-.18c20.869-5.54 42.06-10.71 60.979-14.52z"/><path d="m444.36 126.79.05.22c-19.89 4.63-40.53 9.72-59.41 14.5l-6.08-27.58-4.37-3.34c17.96-5.35 39.03-11.41 60.431-17.09l.05.18z"/><path d="m378.92 113.93 6.08 27.58c-22.39 5.67-42.29 10.9-55.52 14.42v-31.19l-.08-.24c8.33-2.66 24.73-7.83 45.15-13.91z"/></g><g fill="none" stroke="#231f20"><g stroke-width="14"><path d="m250.7 86.65 72.73 39.77s2.12-.69 5.97-1.92c8.33-2.66 24.73-7.83 45.15-13.91 17.96-5.35 39.03-11.41 60.431-17.09 20.869-5.54 42.06-10.71 60.979-14.52 19.11-3.84 35.91-6.28 47.74-6.28 1.439 0 2.88.01 4.31.04 54.04.78 106.721 16.08 106.721 16.08v34.02s34.02 8.96 34.02 34.03v64.47c0 30.44-16.12 419.05-16.12 419.05s20.73 45.15 8.96 75.21c-16.12 41.19 0 59.101 0 59.101s-107.45 14.33-191.62-3.58-130.729-8.96-198.78 1.79c-68.05 10.74-98.49 30.439-119.98-41.19-21.49-71.63 7.16-139.68 7.16-218.479s19.7-154.01 0-211.32c-19.7-57.3-32.24-132.52-5.37-180.87 6.3-11.33 11.61-20.5 16.05-27.89 14.51-24.16 19.76-29.41 19.76-29.41z"/><path d="m593.84 645.15c0 11.22-9.09 20.31-20.31 20.31h-292.48c-11.21 0-20.3-9.09-20.3-20.31v-387.39c0-11.21 9.09-20.3 20.3-20.3h292.48c11.22 0 20.31 9.09 20.31 20.3zm-264.36-489.22c13.23-3.52 33.13-8.75 55.52-14.42 18.88-4.78 39.52-9.87 59.41-14.5 19.64-4.57 38.55-8.69 54.3-11.63 7.42-1.38 14.14-2.5 19.91-3.28 10.76-1.45 21.62-2.16 32.25-2.31 54.85-.77 103.86 13.05 103.86 13.05m-461.79-28.91 37.21 20.67 82.53 45.85s6.3-1.72 16.8-4.51"/><path d="m248.34 90.97-18.19 23.63-.81 1.05m64.44-4.25-16 22.68m101.14-20.15 6.08 27.58m50.03-47.83 9.33 33.11m51.47-49.38.13 1.57 2.7 32.72m49.34-38.52 2.85 34.28m54.3-27.28 2.84 27.28m-278.51 17.28v31.2"/></g><path d="m393.42 520.38c-11.18-13.3-9.95-24.77-21.01-15.439-6.18 5.199-2.37 19.71.57 25.92 3.62 7.649 16.19 21.859 23.41 15.56 8.08-7.051 3.61-18.661-2.97-26.041zm-47.32-14.58c8.11-15.37 19.21-18.56 6.38-25.29-7.15-3.75-19.14 5.25-23.79 10.311-5.72 6.239-14.13 23.25-5.57 27.56 9.58 4.819 18.64-3.711 22.98-12.581zm86.93 40.4c13.8 10.569 15.069 22.05 23.87 10.53 4.899-6.421-1.95-19.75-6.16-25.181-5.2-6.689-20.54-17.84-26.24-10.13-6.35 8.631.52 19.001 8.53 24.781zm44.88-39.46c17.39.34 25.21 8.83 25.47-5.65.14-8.09-13.29-14.75-19.91-16.63-8.14-2.3-27.109-2.17-27.12 7.41 0 10.72 11.68 14.98 21.56 14.87zm-99.75-28.29c15.65-7.58 26.47-3.57 20.14-16.59-3.54-7.261-18.53-7.12-25.28-5.801-8.3 1.631-25.16 10.33-20.83 18.881 4.85 9.56 17.2 8.07 25.97 3.51zm-55.23-24.59c15.65-7.57 26.47-3.561 20.14-16.591-3.53-7.27-18.53-7.13-25.28-5.81-8.31 1.63-25.17 10.34-20.82 18.89 4.85 9.561 17.2 8.071 25.96 3.511zm65.81-40.75c-11.18-13.32-9.95-24.79-21.01-15.45-6.18 5.21-2.37 19.72.57 25.92 3.62 7.65 16.19 21.86 23.41 15.56 8.08-7.05 3.61-18.65-2.97-26.03zm29.58 55.09c13.81 10.569 15.081 22.05 23.871 10.53 4.909-6.421-1.95-19.75-6.16-25.181-5.19-6.689-20.55-17.85-26.23-10.13-6.351 8.631.509 19.001 8.519 24.781zm-2.84-60.4c13.81 10.59 15.08 22.061 23.88 10.54 4.899-6.42-1.96-19.76-6.16-25.19-5.2-6.68-20.55-17.83-26.24-10.12-6.35 8.63.52 19 8.52 24.77zm65.98 40.49c6.87-15.97 17.68-20.021 4.36-25.71-7.431-3.18-18.67 6.74-22.9 12.16-5.21 6.67-12.26 24.29-3.38 27.899 9.93 4.051 18.29-5.149 21.92-14.349zm-8.23-48.83c17.39.34 25.21 8.83 25.46-5.65.14-8.09-13.29-14.75-19.891-16.63-8.14-2.3-27.13-2.18-27.13 7.41.001 10.72 11.681 14.99 21.561 14.87zm-60.86-47.98c15.66-7.58 26.47-3.56 20.14-16.59-3.529-7.26-18.53-7.13-25.27-5.8-8.31 1.63-25.17 10.33-20.84 18.88 4.86 9.55 17.21 8.08 25.97 3.51zm51.99-11.68c13.8 10.58 15.069 22.05 23.87 10.54 4.899-6.43-1.961-19.76-6.16-25.19-5.2-6.69-20.551-17.84-26.24-10.13-6.35 8.63.51 19 8.53 24.78zm-129.78 45.94c17.3-1.8 26.11 5.65 24.58-8.76-.85-8.03-15.01-13-21.79-14.06-8.37-1.27-27.19 1.18-26.01 10.69 1.32 10.64 13.44 13.44 23.22 12.13zm183.79 177.4c16.88-4.14 26.62 2.03 23.14-12.02-1.95-7.851-16.64-10.84-23.51-10.94-8.46-.14-26.76 4.87-24.3 14.13 2.75 10.35 15.14 11.47 24.67 8.83zm13.94-59.06c-17.39.34-25.21 8.82-25.46-5.66-.14-8.08 13.29-14.75 19.9-16.62 8.14-2.3 27.12-2.17 27.12 7.41 0 10.72-11.68 14.99-21.56 14.87zm-3.55-58.45c-6.87-15.97-17.67-20.02-4.359-25.71 7.439-3.18 18.68 6.74 22.909 12.16 5.21 6.67 12.24 24.28 3.37 27.91-9.92 4.04-18.28-5.17-21.92-14.36zm8.23-48.83c-17.391.33-25.2 8.83-25.46-5.66-.15-8.08 13.29-14.74 19.899-16.62 8.15-2.3 27.12-2.18 27.12 7.41.001 10.71-11.669 14.99-21.559 14.87zm-166.43 184.13c-15.66-7.56-26.47-3.55-20.14-16.569 3.53-7.271 18.53-7.141 25.27-5.811 8.31 1.62 25.17 10.33 20.84 18.87-4.86 9.56-17.21 8.09-25.97 3.51z" stroke-width="7"/></g><path d="m0 0h850.394v850.394h-850.394z" fill="none"/></svg>