<svg height="850.394" viewBox="0 0 850.394 850.394" width="850.394" xmlns="http://www.w3.org/2000/svg"><path d="m588.17 377.46c8.13 1.6 24.63 10.12 20.38 18.48-4.74 9.36-16.83 7.91-25.399 3.43-15.311-7.4-25.891-3.48-19.7-16.22 3.459-7.11 18.129-6.98 24.719-5.69zm-144.5-49.1c7.96-2.25 26.53-2.13 26.53 7.25 0 10.48-11.42 14.66-21.09 14.55-17.011.33-24.66 8.63-24.91-5.53-.13-7.91 13.01-14.43 19.47-16.27zm113.23-84.92c6.05 5.1 2.319 19.29-.561 25.37-3.54 7.48-15.84 21.38-22.899 15.21-7.9-6.89-3.53-18.25 2.909-25.46 10.941-13.03 9.731-24.25 20.551-15.12zm-187.59 133.59c4.11 5.31 10.82 18.36 6.03 24.65-8.61 11.26-9.86.04-23.36-10.32-7.83-5.65-14.56-15.78-8.34-24.23 5.57-7.55 20.58 3.36 25.67 9.9z" fill="#fff"/><path d="m422.49 656.8v-.02c86.16 0 158.41-15.82 211.26-53.88 3.92 5.06 6 10.34 6 15.77 0 37.18-97.24 76.67-217.24 76.67-119.97 0-217.24-39.49-217.24-76.67 0-5.42 2.07-10.7 5.98-15.75 52.84 38.06 125.09 53.88 211.24 53.88z" fill="#a3d9ff"/><path d="m396.76 226.01c6.46 1.84 19.6 8.36 19.46 16.27-.25 14.17-7.89 5.86-24.91 5.53-9.66.12-21.09-4.06-21.09-14.55 0-9.37 18.57-9.49 26.54-7.25zm118.99 62.2c6.22 8.44-.5 18.59-8.34 24.24-13.5 10.35-14.74 21.57-23.351 10.31-4.8-6.29 1.91-19.33 6.021-24.64 5.09-6.55 20.1-17.46 25.67-9.91z" fill="#fff"/><path d="m211.25 602.92c-45.08-32.47-76.05-81.11-89.49-149.93l-15.67-66.3c59.26 38.28 178.4 64.42 315.71 64.42 137.46 0 257.391-27.47 317-66.581l-15.56 68.44c-13.44 68.82-44.41 117.46-89.49 149.931-52.85 38.06-125.1 53.88-211.26 53.88v.02c-86.15 0-158.4-15.82-211.24-53.88z" fill="#a3d9ff"/><g fill="#fff"><path d="m595.09 334.59c5.601 6.1 13.82 22.74 5.44 26.96-9.36 4.71-18.221-3.62-22.471-12.31-7.939-15.04-18.79-18.15-6.239-24.74 6.99-3.67 18.73 5.13 23.27 10.09zm-42.76 13.81c6.04 5.09 2.31 19.28-.57 25.36-3.54 7.48-15.83 21.38-22.899 15.21-7.9-6.89-3.53-18.24 2.909-25.46 10.94-13.03 9.73-24.25 20.56-15.11zm109.48-24.98c6.051 5.1 2.32 19.29-.56 25.36-3.54 7.48-15.84 21.38-22.9 15.22-7.909-6.9-3.529-18.25 2.9-25.47 10.95-13.03 9.74-24.25 20.56-15.11zm-73.88-37.88c8.13 1.6 24.63 10.11 20.38 18.47-4.75 9.35-16.829 7.91-25.399 3.44-15.32-7.41-25.9-3.49-19.7-16.23 3.459-7.1 18.129-6.97 24.719-5.68zm-73.98 48.54c6.21 8.45-.51 18.59-8.34 24.24-13.511 10.35-14.75 21.57-23.36 10.31-4.79-6.28 1.92-19.33 6.03-24.64 5.08-6.54 20.1-17.45 25.67-9.91zm-23.35 55.23c8.131 1.59 24.62 10.1 20.381 18.47-4.74 9.35-16.82 7.91-25.4 3.43-15.311-7.4-25.89-3.47-19.7-16.22 3.459-7.11 18.129-6.98 24.719-5.68zm-89.45-212.54c4.05 6 9.19 17.28 4.83 22.98-8.6 11.27-9.85.04-23.35-10.3-3.81-2.75-7.35-6.56-9.28-10.72-2.03-4.4-2.25-9.19.94-13.53 5.57-7.54 20.58 3.37 25.67 9.92.38.49.78 1.04 1.19 1.65zm-92.49 84.39c6.44 7.22 10.81 18.57 2.91 25.47-7.07 6.16-19.37-7.74-22.91-15.22-2.88-6.07-6.6-20.26-.56-25.36 10.82-9.13 9.61 2.09 20.56 15.11zm9.34 47.7c6.2 12.74-4.38 8.82-19.7 16.23-8.57 4.47-20.65 5.91-25.4-3.44-4.24-8.36 12.25-16.87 20.38-18.47 6.6-1.3 21.26-1.43 24.72 5.68zm-169.56-6.74c12.55 6.59 1.7 9.7-6.24 24.75-4.25 8.68-13.11 17.01-22.47 12.3-8.38-4.21-.15-20.85 5.44-26.96 4.55-4.95 16.28-13.76 23.27-10.09z"/><path d="m305.7 194.32c-.06 1.03.14 2.08.67 3.12 4.75 9.34 16.83 7.9 25.41 3.43 15.31-7.41 25.89-3.48 19.7-16.22-.54-1.1-1.34-2.03-2.35-2.81 5.85-.01 18.39-3.11 24.22-3.11 1.93 4.16 5.47 7.97 9.28 10.72 13.5 10.34 14.75 21.57 23.35 10.3 4.36-5.7-.78-16.98-4.83-22.98h31.66c2.091 3.51 6.78 8.1 10.69 15.7 4.18 8.71 12.97 17.12 22.39 12.5 7.641-3.77 1.67-17.89-3.64-25.06 12.83.01 36.55 10.94 49.39 10.96-8.47 4.94.91 9.46 7.061 23.77 3.56 9 11.74 18.01 21.45 14.04 7.279-2.96 3.619-15.53-.75-23.36 10.359 4.14 23.81 10.72 31.72 18.44-2.39 4.45 5.42 8.97 11.52 20.53 4.25 8.68 13.11 17.02 22.48 12.3 6.14-3.09 3.35-12.86-.78-20.26 8.76 0 30.4 3.63 38.7 3.63-6.46 1.84-19.6 8.36-19.46 16.27.25 14.17 7.9 5.86 24.91 5.53 9.66.12 24.34-7.31 24.34-17.8 58.91 18.51 94.21 42.1 103.51 69.87l-.729.24c-18.21 60.24-169.67 107.24-353.8 107.24-181.36 0-331.02-45.59-352.89-104.52l-.17-.06c9.88-28.17 47.78-52.72 106.93-71.31 1.73 8.57 12.02 12.04 20.83 11.94 17.02.33 24.66 8.63 24.91-5.54.12-6.61-9.06-12.25-15.84-15 7.3-1.42 21.9-8.05 28.62-10.16 3.52 6.99 13.32 8.82 21.47 7.73 16.93-1.77 25.54 5.53 24.05-8.57-.5-4.77-5.81-8.44-11.39-10.82 12.27-6.45 19.86-16.29 36.8-20.71zm257.75 188.83c-6.19 12.74 4.39 8.82 19.7 16.22 8.569 4.48 20.659 5.93 25.399-3.43 4.25-8.36-12.25-16.88-20.38-18.48-6.589-1.29-21.259-1.42-24.719 5.69zm151.67-34.16c8.38-4.22.16-20.86-5.44-26.96-4.55-4.96-16.279-13.76-23.279-10.09-12.54 6.59-1.69 9.7 6.239 24.74 4.25 8.69 13.11 17.02 22.48 12.31zm-42.1-54c4.25-8.37-12.25-16.88-20.359-18.48-6.61-1.29-21.271-1.42-24.73 5.69-6.199 12.74 4.38 8.81 19.7 16.22 8.569 4.47 20.649 5.92 25.389-3.43zm-11.77 53.79c2.88-6.07 6.61-20.26.56-25.36-10.819-9.14-9.609 2.08-20.56 15.11-6.43 7.22-10.81 18.57-2.9 25.47 7.06 6.16 19.36-7.74 22.9-15.22zm-52.94-44.77c4.25-8.36-12.25-16.87-20.38-18.47-6.59-1.29-21.26-1.42-24.72 5.68-6.2 12.74 4.38 8.82 19.7 16.23 8.57 4.47 20.65 5.91 25.4-3.44zm-7.78 57.54c8.38-4.22.16-20.86-5.44-26.96-4.54-4.96-16.28-13.76-23.27-10.09-12.551 6.59-1.7 9.7 6.239 24.74 4.251 8.69 13.111 17.02 22.471 12.31zm-44.19-92.74c2.88-6.08 6.61-20.27.561-25.37-10.82-9.13-9.61 2.09-20.551 15.12-6.439 7.21-10.81 18.57-2.909 25.46 7.059 6.17 19.359-7.73 22.899-15.21zm-4.58 104.95c2.88-6.08 6.61-20.27.57-25.36-10.83-9.14-9.62 2.08-20.561 15.11-6.439 7.22-10.81 18.57-2.909 25.46 7.07 6.17 19.36-7.73 22.9-15.21zm-41.58-120.4c7.84-5.64 14.57-15.78 8.34-24.23-5.56-7.54-20.569 3.37-25.659 9.91-4.11 5.31-10.83 18.36-6.03 24.64 8.609 11.26 9.859.04 23.349-10.32zm-2.77 59.09c7.84-5.65 14.56-15.8 8.34-24.24-5.57-7.55-20.58 3.36-25.67 9.91-4.11 5.31-10.82 18.35-6.021 24.64 8.611 11.26 9.851.04 23.351-10.31zm-1.8 45.87c7.83-5.65 14.55-15.79 8.34-24.24-5.57-7.54-20.59 3.37-25.67 9.91-4.11 5.31-10.82 18.36-6.03 24.64 8.61 11.26 9.85.04 23.36-10.31zm5.37 49.46c4.239-8.37-12.25-16.88-20.381-18.47-6.59-1.3-21.26-1.43-24.72 5.68-6.189 12.75 4.39 8.82 19.7 16.22 8.581 4.48 20.661 5.92 25.401-3.43zm-43.9-100.76c8.68-3.54 1.8-20.78-3.3-27.3-4.141-5.3-15.13-15-22.41-11.9-13.021 5.57-2.45 9.53 4.27 25.16 3.55 8.99 11.74 18 21.44 14.04zm7.7-76.36c0-9.38-18.561-9.5-26.53-7.25-6.47 1.84-19.61 8.36-19.47 16.26.25 14.17 7.899 5.87 24.91 5.54 9.67.11 21.09-4.07 21.09-14.55zm-4.58 104.95c0-9.38-18.57-9.5-26.53-7.25-6.46 1.84-19.6 8.36-19.47 16.27.25 14.16 7.899 5.86 24.91 5.53 9.67.11 21.09-4.07 21.09-14.55zm-51.09 53.64c16.52-4.06 26.05 1.98 22.64-11.77-1.91-7.68-16.28-10.6-23-10.7-8.28-.14-26.18 4.76-23.77 13.82 2.69 10.13 14.81 11.22 24.13 8.65zm1.69-42.02c.14-7.91-13-14.43-19.47-16.26-7.96-2.25-26.53-2.13-26.53 7.25 0 10.48 11.42 14.66 21.09 14.54 17.01.33 24.66 8.64 24.91-5.53zm-4.58-104.95c.14-7.91-13-14.43-19.46-16.27-7.97-2.24-26.54-2.12-26.54 7.25 0 10.49 11.43 14.67 21.09 14.55 17.02.33 24.66 8.64 24.91-5.53zm-16.85 53.3c6.71-15.63 17.28-19.58 4.26-25.16-7.27-3.1-18.27 6.6-22.4 11.91-5.1 6.52-11.99 23.75-3.31 27.29 9.71 3.96 17.89-5.04 21.45-14.04zm-24.03 106.1c4.79-6.29-1.92-19.34-6.03-24.65-5.09-6.54-20.1-17.45-25.67-9.9-6.22 8.45.51 18.58 8.34 24.23 13.5 10.36 14.75 21.58 23.36 10.32zm-14.39-76.32c4.79-6.28-1.91-19.32-6.03-24.64-5.08-6.54-20.1-17.45-25.66-9.91-6.22 8.45.5 18.59 8.33 24.24 13.51 10.35 14.75 21.58 23.36 10.31zm-2.78-59.08c4.8-6.28-1.91-19.33-6.02-24.64-5.09-6.54-20.11-17.45-25.67-9.9-6.22 8.44.5 18.58 8.34 24.23 13.5 10.36 14.74 21.58 23.35 10.31zm-59.87 58.81c15.32-7.41 25.9-3.49 19.7-16.23-3.46-7.11-18.12-6.98-24.72-5.68-8.13 1.6-24.62 10.11-20.38 18.47 4.75 9.35 16.83 7.91 25.4 3.44zm17.84 66.49c7.9-6.9 3.53-18.25-2.9-25.47-10.95-13.02-9.74-24.24-20.56-15.11-6.05 5.1-2.32 19.29.56 25.36 3.54 7.49 15.84 21.38 22.9 15.22zm-4.57-104.95c7.9-6.9 3.53-18.25-2.91-25.47-10.95-13.02-9.74-24.24-20.56-15.11-6.04 5.1-2.32 19.29.56 25.36 3.54 7.48 15.84 21.38 22.91 15.22zm-31.61 112.39c4.24-8.36-12.25-16.87-20.38-18.47-6.59-1.3-21.27-1.43-24.72 5.68-6.2 12.74 4.38 8.81 19.7 16.22 8.57 4.48 20.65 5.92 25.4-3.43zm-13.02-47.17c7.94-15.05 18.79-18.16 6.24-24.75-6.99-3.67-18.72 5.14-23.27 10.09-5.6 6.1-13.82 22.74-5.44 26.96 9.36 4.71 18.22-3.62 22.47-12.3zm-22.67-50.83c15.32-7.4 25.9-3.47 19.71-16.22-3.46-7.11-18.13-6.98-24.73-5.69-8.13 1.6-24.62 10.12-20.37 18.48 4.74 9.36 16.83 7.9 25.39 3.43zm-37.61 65.58c7.9-6.89 3.53-18.25-2.91-25.46-10.94-13.03-9.73-24.25-20.56-15.12-6.04 5.1-2.31 19.29.56 25.36 3.54 7.49 15.84 21.39 22.91 15.22zm-11.52-61.61c4.79-6.28-1.92-19.32-6.03-24.63-5.08-6.55-20.1-17.46-25.66-9.91-6.22 8.44.5 18.59 8.33 24.24 13.51 10.35 14.75 21.57 23.36 10.3zm-52.94 21.88c7.94-15.05 18.79-18.16 6.24-24.75-6.99-3.67-18.72 5.14-23.27 10.09-5.59 6.11-13.82 22.75-5.44 26.96 9.36 4.71 18.22-3.62 22.47-12.3z"/><path d="m463.78 279.72c5.1 6.52 11.979 23.76 3.3 27.3-9.7 3.96-17.89-5.05-21.44-14.04-6.72-15.63-17.29-19.59-4.27-25.16 7.28-3.1 18.27 6.6 22.41 11.9zm-288.1-34.3c-.17-.82-.26-1.69-.26-2.61 0-9.38 18.57-9.5 26.54-7.25 1.06.3 2.29.73 3.62 1.26 6.78 2.75 15.96 8.39 15.84 15-.25 14.17-7.89 5.87-24.91 5.54-8.81.1-19.1-3.37-20.83-11.94zm179.24 55.3c4.12 5.32 10.82 18.36 6.03 24.64-8.61 11.27-9.85.04-23.36-10.31-7.83-5.65-14.55-15.79-8.33-24.24 5.56-7.54 20.58 3.37 25.66 9.91zm46.41 30.25c6.47 1.83 19.61 8.35 19.47 16.26-.25 14.17-7.9 5.86-24.91 5.53-9.67.12-21.09-4.06-21.09-14.54 0-9.38 18.57-9.5 26.53-7.25zm117.19-101.84c6.23 8.45-.5 18.59-8.34 24.23-13.489 10.36-14.739 21.58-23.35 10.32-4.8-6.28 1.92-19.33 6.03-24.64 5.09-6.54 20.1-17.45 25.66-9.91zm-314.77 112.01c6.44 7.21 10.81 18.57 2.91 25.46-7.07 6.17-19.37-7.73-22.91-15.22-2.87-6.07-6.6-20.26-.56-25.36 10.83-9.13 9.62 2.09 20.56 15.12zm199.88-70.72c13.02 5.58 2.45 9.53-4.26 25.16-3.56 9-11.74 18-21.45 14.04-8.68-3.54-1.79-20.77 3.31-27.29 4.13-5.31 15.13-15.01 22.4-11.91zm58.62-90.51c5.31 7.17 11.28 21.29 3.64 25.06-9.42 4.62-18.21-3.79-22.39-12.5-3.91-7.6-8.6-12.19-10.69-15.7-2.06-3.48-1.59-5.89 4.681-9.11 7.029-3.61 18.68 5.3 23.18 10.3.509.57 1.039 1.22 1.579 1.95zm-110.1 61.73c4.11 5.31 10.82 18.36 6.02 24.64-8.61 11.27-9.85.05-23.35-10.31-7.84-5.65-14.56-15.79-8.34-24.23 5.56-7.55 20.58 3.36 25.67 9.9zm96.1-18.23c7.97-2.25 26.53-2.13 26.53 7.25 0 10.48-11.42 14.66-21.09 14.55-17.011.33-24.66 8.63-24.91-5.54-.14-7.9 13-14.42 19.47-16.26zm-99.12-41.57c1.01.78 1.81 1.71 2.35 2.81 6.19 12.74-4.39 8.81-19.7 16.22-8.58 4.47-20.66 5.91-25.41-3.43a6.008 6.008 0 0 1 -.67-3.12c.42-7.26 13.94-13.96 21.05-15.35 5.58-1.1 16.91-1.36 22.38 2.87zm-80.8 33.16c5.58 2.38 10.89 6.05 11.39 10.82 1.49 14.1-7.12 6.8-24.05 8.57-8.15 1.09-17.95-.74-21.47-7.73-.63-1.22-1.06-2.59-1.25-4.14-1.14-9.3 17.26-11.7 25.46-10.45 2.6.4 6.31 1.4 9.92 2.93zm-79.22 65.36c4.11 5.31 10.82 18.35 6.03 24.63-8.61 11.27-9.85.05-23.36-10.3-7.83-5.65-14.55-15.8-8.33-24.24 5.56-7.55 20.58 3.36 25.66 9.91zm124.13 85.75c6.43 7.22 10.8 18.57 2.9 25.47-7.06 6.16-19.36-7.73-22.9-15.22-2.88-6.07-6.61-20.26-.56-25.36 10.82-9.13 9.61 2.09 20.56 15.11zm257.88-142.35c.71-1.35 2.37-2.69 5.28-4.21 7-3.67 18.72 5.13 23.27 10.08 1.49 1.63 3.17 4.01 4.67 6.7 4.13 7.4 6.92 17.17.78 20.26-9.37 4.72-18.23-3.62-22.48-12.3-6.1-11.56-13.91-16.08-11.52-20.53zm-311.54 156.79c8.13 1.6 24.62 10.11 20.38 18.47-4.75 9.35-16.83 7.91-25.4 3.43-15.32-7.41-25.9-3.48-19.7-16.22 3.45-7.11 18.13-6.98 24.72-5.68zm393.08-104.04c8.109 1.6 24.609 10.11 20.359 18.48-4.739 9.35-16.819 7.9-25.39 3.43-15.32-7.41-25.899-3.48-19.7-16.22 3.461-7.11 18.121-6.98 24.731-5.69zm57.02 45.52c5.601 6.1 13.82 22.74 5.44 26.96-9.37 4.71-18.23-3.62-22.48-12.31-7.93-15.04-18.779-18.15-6.239-24.74 6.999-3.67 18.729 5.13 23.279 10.09zm-267.93 55.45c3.41 13.75-6.12 7.71-22.64 11.77-9.32 2.57-21.44 1.48-24.13-8.65-2.41-9.06 15.49-13.96 23.77-13.82 6.72.1 21.09 3.02 23 10.7zm201.29-137.52c7.97-2.24 29.79-5.37 29.79 4 0 10.49-14.68 17.92-24.34 17.8-17.01.33-24.66 8.64-24.91-5.53-.14-7.91 13-14.43 19.46-16.27zm-369.86 87.14c12.55 6.59 1.7 9.7-6.24 24.75-4.25 8.68-13.11 17.01-22.47 12.3-8.38-4.22-.16-20.86 5.44-26.96 4.55-4.95 16.28-13.76 23.27-10.09zm238.46-136.23c.78-.46 1.71-.91 2.801-1.38 7.27-3.11 18.27 6.59 22.409 11.9.83 1.06 1.7 2.4 2.551 3.93 4.369 7.83 8.029 20.4.75 23.36-9.71 3.97-17.891-5.04-21.45-14.04-6.151-14.31-15.531-18.83-7.061-23.77zm-247.66 93.93c6.19 12.75-4.39 8.82-19.71 16.22-8.56 4.47-20.65 5.93-25.39-3.43-4.25-8.36 12.24-16.88 20.37-18.48 6.6-1.29 21.27-1.42 24.73 5.69z"/></g><path d="m738.8 384.53c-59.609 39.11-179.54 66.581-317 66.581-137.31 0-256.45-26.14-315.71-64.42-25.51-16.47-39.93-35.19-39.93-55.04 0-5.07.87-10.05 2.59-14.92l.17.06c21.87 58.93 171.53 104.52 352.89 104.52 184.13 0 335.59-47 353.8-107.24l.729-.24c1.66 4.94 2.5 10.01 2.5 15.21.001 19.799-14.469 38.719-40.039 55.489z" fill="#a3d9ff"/><g fill="none" stroke="#000"><path d="m422.51 656.8h-.02c-86.15 0-158.4-15.819-211.24-53.88-45.08-32.47-76.05-81.11-89.49-149.93l-15.67-66.3m316.4 270.09c86.16 0 158.41-15.82 211.26-53.88 45.08-32.471 76.05-81.11 89.49-149.931l15.56-68.44.11-.5" stroke-width="21.023"/><path d="m633.72 602.86c.011.01.021.029.03.04 3.92 5.06 6 10.34 6 15.77 0 37.18-97.24 76.67-217.24 76.67-119.97 0-217.24-39.49-217.24-76.67 0-5.42 2.07-10.7 5.98-15.75 0-.01 0-.01.01-.02" stroke-width="21.023"/><path d="m313.24 366.11c-10.95-13.02-9.74-24.24-20.56-15.11-6.05 5.1-2.32 19.29.56 25.36 3.54 7.49 15.84 21.38 22.9 15.22 7.9-6.9 3.53-18.25-2.9-25.47zm-46.3-14.26c7.94-15.05 18.79-18.16 6.24-24.75-6.99-3.67-18.72 5.14-23.27 10.09-5.6 6.1-13.82 22.74-5.44 26.96 9.36 4.71 18.22-3.62 22.47-12.3zm85.04 39.51c13.5 10.36 14.75 21.58 23.36 10.32 4.79-6.29-1.92-19.34-6.03-24.65-5.09-6.54-20.1-17.45-25.67-9.9-6.22 8.45.51 18.58 8.34 24.23zm43.91-38.6c17.01.33 24.66 8.64 24.91-5.53.14-7.91-13-14.43-19.47-16.26-7.96-2.25-26.53-2.13-26.53 7.25 0 10.48 11.42 14.66 21.09 14.54zm-97.59-27.67c15.32-7.41 25.9-3.49 19.7-16.23-3.46-7.11-18.12-6.98-24.72-5.68-8.13 1.6-24.62 10.11-20.38 18.47 4.75 9.35 16.83 7.91 25.4 3.44zm-54.03-24.07c15.32-7.4 25.9-3.47 19.71-16.22-3.46-7.11-18.13-6.98-24.73-5.69-8.13 1.6-24.62 10.12-20.37 18.48 4.74 9.36 16.83 7.9 25.39 3.43zm64.39-39.86c-10.95-13.02-9.74-24.24-20.56-15.11-6.04 5.1-2.32 19.29.56 25.36 3.54 7.48 15.84 21.38 22.91 15.22 7.9-6.9 3.53-18.25-2.91-25.47zm28.93 53.89c13.51 10.35 14.75 21.58 23.36 10.31 4.79-6.28-1.91-19.32-6.03-24.64-5.08-6.54-20.1-17.45-25.66-9.91-6.22 8.45.5 18.59 8.33 24.24zm-2.77-59.08c13.5 10.36 14.74 21.58 23.35 10.31 4.8-6.28-1.91-19.33-6.02-24.64-5.09-6.54-20.11-17.45-25.67-9.9-6.22 8.44.5 18.58 8.34 24.23zm64.55 39.61c6.71-15.63 17.28-19.58 4.26-25.16-7.27-3.1-18.27 6.6-22.4 11.91-5.1 6.52-11.99 23.75-3.31 27.29 9.71 3.96 17.89-5.04 21.45-14.04zm-8.06-47.77c17.02.33 24.66 8.64 24.91-5.53.14-7.91-13-14.43-19.46-16.27-7.97-2.24-26.54-2.12-26.54 7.25 0 10.49 11.43 14.67 21.09 14.55zm-59.53-46.94c15.31-7.41 25.89-3.48 19.7-16.22-.54-1.1-1.34-2.03-2.35-2.81-5.47-4.23-16.8-3.97-22.38-2.87-7.11 1.39-20.63 8.09-21.05 15.35-.06 1.03.14 2.08.67 3.12 4.75 9.34 16.83 7.9 25.41 3.43m50.85-11.42c13.5 10.34 14.75 21.57 23.35 10.3 4.36-5.7-.78-16.98-4.83-22.98-.41-.61-.81-1.16-1.19-1.65-5.09-6.55-20.1-17.46-25.67-9.92-3.19 4.34-2.97 9.13-.94 13.53 1.93 4.16 5.47 7.97 9.28 10.72m-126.96 44.94c16.93-1.77 25.54 5.53 24.05-8.57-.5-4.77-5.81-8.44-11.39-10.82-3.61-1.53-7.32-2.53-9.92-2.93-8.2-1.25-26.6 1.15-25.46 10.45.19 1.55.62 2.92 1.25 4.14 3.52 6.99 13.32 8.82 21.47 7.73m-59.16 22.97c17.02.33 24.66 8.63 24.91-5.54.12-6.61-9.06-12.25-15.84-15-1.33-.53-2.56-.96-3.62-1.26-7.97-2.25-26.54-2.13-26.54 7.25 0 .92.09 1.79.26 2.61 1.73 8.57 12.02 12.04 20.83 11.94m7.24 83.78c-10.94-13.03-9.73-24.25-20.56-15.12-6.04 5.1-2.31 19.29.56 25.36 3.54 7.49 15.84 21.39 22.91 15.22 7.9-6.89 3.53-18.25-2.91-25.46zm-61.55-14.27c7.94-15.05 18.79-18.16 6.24-24.75-6.99-3.67-18.72 5.14-23.27 10.09-5.59 6.11-13.82 22.75-5.44 26.96 9.36 4.71 18.22-3.62 22.47-12.3zm29.58-32.18c13.51 10.35 14.75 21.57 23.36 10.3 4.79-6.28-1.92-19.32-6.03-24.63-5.08-6.55-20.1-17.46-25.66-9.91-6.22 8.44.5 18.59 8.33 24.24zm247.33 94.56c16.52-4.06 26.05 1.98 22.64-11.77-1.91-7.68-16.28-10.6-23-10.7-8.28-.14-26.18 4.76-23.77 13.82 2.69 10.13 14.81 11.22 24.13 8.65z" stroke-width="14.015"/><path d="m672.83 243.96c58.91 18.51 94.21 42.1 103.51 69.87 1.66 4.94 2.5 10.01 2.5 15.21 0 19.8-14.47 38.72-40.04 55.49-59.609 39.11-179.54 66.581-317 66.581-137.31 0-256.45-26.14-315.71-64.42-25.51-16.47-39.93-35.19-39.93-55.04 0-5.07.87-10.05 2.59-14.92 9.88-28.17 47.78-52.72 106.93-71.31.01 0 .02-.01.03-.01" stroke-width="21.023"/><path d="m485.58 411.21c-15.311-7.4-25.89-3.47-19.7-16.22 3.46-7.11 18.13-6.98 24.72-5.68 8.131 1.59 24.62 10.1 20.381 18.47-4.741 9.35-16.821 7.91-25.401 3.43zm97.57-11.84c-15.311-7.4-25.891-3.48-19.7-16.22 3.46-7.11 18.13-6.98 24.72-5.69 8.13 1.6 24.63 10.12 20.38 18.48-4.74 9.36-16.83 7.91-25.4 3.43zm-51.38-35.86c10.94-13.03 9.73-24.25 20.561-15.11 6.04 5.09 2.31 19.28-.57 25.36-3.54 7.48-15.83 21.38-22.899 15.21-7.902-6.89-3.532-18.24 2.908-25.46zm46.29-14.27c-7.939-15.04-18.79-18.15-6.239-24.74 6.989-3.67 18.729 5.13 23.27 10.09 5.601 6.1 13.82 22.74 5.44 26.96-9.361 4.71-18.221-3.62-22.471-12.31zm-72.45 9.08c-13.511 10.35-14.75 21.57-23.36 10.31-4.79-6.28 1.92-19.33 6.03-24.64 5.08-6.54 20.1-17.45 25.67-9.91 6.21 8.45-.51 18.59-8.34 24.24zm-56.5-8.16c-17.011.33-24.66 8.63-24.91-5.53-.13-7.91 13.01-14.43 19.47-16.27 7.96-2.25 26.53-2.13 26.53 7.25 0 10.48-11.42 14.66-21.09 14.55zm133.8-42.71c-15.32-7.41-25.9-3.49-19.7-16.23 3.46-7.1 18.13-6.97 24.72-5.68 8.13 1.6 24.63 10.11 20.38 18.47-4.75 9.35-16.83 7.91-25.4 3.44zm64.72-9.03c-15.32-7.41-25.899-3.48-19.7-16.22 3.46-7.11 18.12-6.98 24.73-5.69 8.109 1.6 24.609 10.11 20.359 18.48-4.739 9.35-16.819 7.9-25.389 3.43zm-111.28-39.86c10.94-13.03 9.73-24.25 20.551-15.12 6.05 5.1 2.319 19.29-.561 25.37-3.54 7.48-15.84 21.38-22.899 15.21-7.901-6.89-3.531-18.25 2.909-25.46zm46.29-14.27c-6.1-11.56-13.909-16.08-11.52-20.53.71-1.35 2.37-2.69 5.28-4.21 7-3.67 18.72 5.13 23.27 10.08 1.49 1.63 3.17 4.01 4.67 6.7 4.13 7.4 6.92 17.17.78 20.26-9.37 4.72-18.23-3.62-22.48-12.3m-75.23 68.16c-13.5 10.35-14.74 21.57-23.351 10.31-4.8-6.29 1.91-19.33 6.021-24.64 5.09-6.55 20.1-17.46 25.67-9.91 6.22 8.44-.5 18.59-8.34 24.24zm2.77-59.09c-13.489 10.36-14.739 21.58-23.35 10.32-4.8-6.28 1.92-19.33 6.03-24.64 5.09-6.54 20.1-17.45 25.659-9.91 6.231 8.45-.499 18.59-8.339 24.23zm-64.54 39.62c-6.72-15.63-17.29-19.59-4.27-25.16 7.28-3.1 18.27 6.6 22.41 11.9 5.1 6.52 11.979 23.76 3.3 27.3-9.7 3.96-17.89-5.05-21.44-14.04zm8.05-47.77c-17.011.33-24.66 8.63-24.91-5.54-.141-7.9 13-14.42 19.47-16.26 7.97-2.25 26.53-2.13 26.53 7.25 0 10.48-11.42 14.66-21.09 14.55zm-10.19-52.74c-3.91-7.6-8.6-12.19-10.69-15.7-2.06-3.48-1.59-5.89 4.681-9.11 7.029-3.61 18.68 5.3 23.18 10.3.51.57 1.04 1.22 1.58 1.95 5.31 7.17 11.28 21.29 3.64 25.06-9.421 4.62-18.211-3.79-22.391-12.5m75.2 22.17c-6.15-14.31-15.53-18.83-7.061-23.77.78-.46 1.71-.91 2.801-1.38 7.27-3.11 18.27 6.59 22.409 11.9.83 1.06 1.7 2.4 2.551 3.93 4.369 7.83 8.029 20.4.75 23.36-9.71 3.97-17.89-5.04-21.45-14.04m129.79 47.12c-17.01.33-24.66 8.64-24.91-5.53-.14-7.91 13-14.43 19.46-16.27 7.97-2.24 29.79-5.37 29.79 4 0 10.49-14.68 17.92-24.34 17.8m-393.93 140.69c-15.32-7.41-25.9-3.48-19.7-16.22 3.45-7.11 18.13-6.98 24.72-5.68 8.13 1.6 24.62 10.11 20.38 18.47-4.75 9.35-16.83 7.91-25.4 3.43zm386.69-63.92c10.95-13.03 9.74-24.25 20.56-15.11 6.051 5.1 2.32 19.29-.56 25.36-3.54 7.48-15.84 21.38-22.9 15.22-7.91-6.9-3.53-18.25 2.9-25.47zm51.39-1.85c-7.93-15.04-18.779-18.15-6.239-24.74 7-3.67 18.729 5.13 23.279 10.09 5.601 6.1 13.82 22.74 5.44 26.96-9.37 4.71-18.23-3.62-22.48-12.31z" stroke-width="14.015"/><path d="m775.61 314.07c-18.21 60.24-169.67 107.24-353.8 107.24-181.36 0-331.02-45.59-352.89-104.52" stroke-width="21.023"/></g><path d="m0 0h850.394v850.394h-850.394z" fill="none"/></svg>