<svg height="850.394" viewBox="0 0 850.394 850.394" width="850.394" xmlns="http://www.w3.org/2000/svg"><g fill="#ffeec8"><path d="m712.11 266.73c-18.29-18.69-45.931-6.2-62.99 10.85-30.87 29.1-58.97 27.68-34.7 53.35 13.55 14.32 48.35 3.02 63.061-5 18.139-9.89 50.979-42.5 34.629-59.2zm-293.91 92.69c-41.95 6.36-64.25-10.8-58.88 24.14 2.98 19.48 38.02 29.98 54.69 31.75 20.54 2.19 66.11-5.94 62.16-28.99-4.41-25.76-34.25-31.22-57.97-26.9zm-85.17 15.14c19.4 3.5 40.71-26.24 47.8-41.42 8.74-18.72 15.85-64.45-7.23-68.21-25.81-4.19-40.65 22.26-44.27 46.1-7.6 41.74-31.07 57.27 3.7 63.53zm-216.81 26.66c26.07 2.05 38.69-25.53 40.32-49.59 4.13-42.22 26.24-59.63-8.94-63.01-19.62-1.88-38.4 29.51-44.22 45.23-7.16 19.37-10.47 65.54 12.84 67.37zm69.97-49.58c-19.61-1.88-38.4 29.51-44.22 45.23-7.15 19.37-10.47 65.54 12.85 67.37 26.06 2.05 38.68-25.53 40.31-49.59 4.13-42.22 26.24-59.64-8.94-63.01zm199.92 148.46c-4.31 11.66-7.23 38.91-3.78 54.48v.01c-161.21-11.45-286.87-88.64-292.84-183.35-.16-2.35-.23-4.7-.23-7.07 0-105.98 149.8-191.88 334.59-191.88s334.59 85.9 334.59 191.88c0 45.24-27.29 86.811-72.95 119.61-60.24 43.279-152.45 71.279-256.12 72.239 5.91-9.43 8.78-26.829 9.89-38.14 4.13-42.22 26.24-59.63-8.93-63.01-19.62-1.879-38.41 29.521-44.22 45.231zm315.69-90.56c8.74-18.72 15.851-64.46-7.229-68.21-25.811-4.19-40.66 22.26-44.271 46.1-7.6 41.74-31.08 57.26 3.7 63.53 19.4 3.49 40.71-26.24 47.8-41.42zm-72.92 92.96c10.561-16.65-8.93-47.61-20.32-59.9-14.05-15.149-53.71-38.99-65.899-19.04-13.62 22.32 5.28 46.05 25.99 58.39 35.789 22.8 41.309 50.39 60.229 20.55zm-92.5-235.33c20.54 2.18 66.101-5.94 62.17-28.99-4.41-25.76-34.26-31.23-57.979-26.9-41.94 6.36-64.25-10.8-58.88 24.13 2.989 19.49 38.029 29.99 54.689 31.76zm15.81 92.87c18.14-9.88 50.989-42.49 34.63-59.2-18.29-18.68-45.931-6.19-62.98 10.86-30.88 29.09-58.979 27.67-34.7 53.34 13.55 14.32 48.33 3.02 63.05-5zm-34.99 92.53c4.12-42.22 26.229-59.63-8.95-63-19.62-1.88-38.4 29.51-44.22 45.23-7.16 19.37-10.471 65.54 12.85 67.37 26.06 2.05 38.67-25.54 40.32-49.6zm-54.8-159.9c22.199-13.82 15.989-43.51 3.04-63.85-21.721-36.44-14.24-63.57-44.561-45.43-16.91 10.13-13.42 46.53-8.78 62.64 5.731 19.86 30.441 58.98 50.301 46.64zm-102.2 249.85c22.2-13.819 15.99-43.5 3.04-63.84-21.72-36.45-14.24-63.58-44.56-45.44-16.92 10.13-13.42 46.54-8.78 62.64 5.73 19.86 30.44 58.99 50.3 46.64zm-34.01-262.66c18.14-9.89 50.99-42.5 34.64-59.21-18.29-18.68-45.94-6.19-62.99 10.86-17.02 16.03-33.2 22.8-40.22 29.94 10.86-12.72 17.58-27.46 8.24-37-18.29-18.69-45.94-6.2-62.99 10.85-30.87 29.1-58.98 27.68-34.7 53.35 13.55 14.32 48.34 3.02 63.05-5 7.32-3.99 17.03-11.68 24.94-20.53-4.1 5.35-2.88 11.3 6.98 21.73 13.55 14.32 48.34 3.02 63.05-4.99zm-18.28 97.73c10.56-16.64-8.93-47.6-20.32-59.89-14.04-15.16-53.71-38.99-65.9-19.04-13.62 22.32 5.28 46.05 26 58.39 35.78 22.79 41.31 50.39 60.22 20.54zm-68.75 100.75c42.42.03 61.88 20.34 61.85-14.979-.02-19.7-33.09-35.38-49.29-39.65-19.98-5.25-57.92-4.09-57.5 19.29.48 26.139 20.83 36.029 44.94 35.339z"/><path d="m382.33 554.58c-3.45-15.57-.53-42.82 3.78-54.48 5.81-15.71 24.6-47.109 44.22-45.229 35.17 3.38 13.06 20.79 8.93 63.01-1.109 11.311-3.979 28.71-9.89 38.14-1.83.021-3.68.03-5.52.03-14.06 0-27.92-.5-41.52-1.46zm376.11-190.41v110.1c0 42.16-23.71 81.141-63.891 112.801l-1.14-1.44c11.46-9.39 17.37-26.89 18.46-42.85 4.13-42.23 26.229-59.641-8.95-63-5.63-.54-11.189 1.66-16.39 5.439l-1.04-1.439c45.661-32.801 72.951-74.371 72.951-119.611zm-46.33-97.44c16.35 16.7-16.49 49.31-34.63 59.2-14.711 8.02-49.511 19.32-63.061 5-24.27-25.67 3.83-24.25 34.7-53.35 17.061-17.05 44.701-29.54 62.991-10.85z"/><path d="m702.92 479.78c35.18 3.359 13.08 20.77 8.95 63-1.09 15.96-7 33.46-18.46 42.85-5.82 4.76-13.07 7.43-21.851 6.74-23.319-1.83-20.01-48-12.85-67.37 4.15-11.21 14.89-30.38 27.82-39.78 5.201-3.78 10.761-5.98 16.391-5.44zm-8.35-138.45c23.08 3.75 15.97 49.49 7.229 68.21-7.09 15.18-28.399 44.91-47.8 41.42-34.78-6.27-11.3-21.79-3.7-63.53 3.611-23.84 18.461-50.29 44.271-46.1z"/><path d="m693.41 585.63 1.14 1.44c-60.83 47.93-159.42 79.08-270.7 79.08-139.82 0-259.6-49.181-309.63-119.021 10.63 7.39 25.71 10.38 39.34 9.99 42.42.03 61.89 20.34 61.85-14.98-.02-19.699-33.09-35.38-49.29-39.64-19.97-5.26-66.24-4.09-65.82 19.28.01.58.04 1.16.08 1.72-7.26-15.71-11.12-32.21-11.12-49.23v-103.019l.23-.01c5.97 94.71 131.63 171.899 292.84 183.35 13.6.96 27.46 1.46 41.52 1.46 1.84 0 3.69-.01 5.52-.03 103.67-.96 195.88-28.96 256.12-72.239l1.04 1.439c-12.931 9.4-23.67 28.57-27.82 39.78-7.16 19.37-10.47 65.54 12.85 67.37 8.78.69 16.03-1.98 21.85-6.74zm-117.51 25.65c25.85-33.63 53.819-36.71 25.76-58.181-15.65-11.979-48.2 4.7-61.46 14.971-16.32 12.63-43.57 50.06-24.76 63.949 21.03 15.541 46.33-1.189 60.46-20.739zm-151.48 31.56c20.55 2.18 66.11-5.95 62.18-28.99-4.43-25.77-34.27-31.229-57.989-26.899-41.94 6.359-64.25-10.8-58.88 24.13 2.989 19.489 38.029 29.989 54.689 31.759zm-134.56-2.06c42.42.029 61.89 20.35 61.85-14.98-.02-19.7-33.09-35.38-49.29-39.64-19.97-5.26-66.24-4.09-65.82 19.28.48 26.14 29.15 36.03 53.26 35.34z"/><path d="m608.56 442.6c11.391 12.29 30.881 43.25 20.32 59.9-18.92 29.84-24.439 2.25-60.229-20.55-20.71-12.34-39.61-36.07-25.99-58.39 12.189-19.95 51.849 3.89 65.899 19.04zm-6.9 110.5c28.06 21.471.09 24.551-25.76 58.181-14.131 19.55-39.431 36.279-60.46 20.739-18.811-13.89 8.439-51.319 24.76-63.949 13.26-10.271 45.81-26.951 61.46-14.971zm-3.11-314.92c3.931 23.05-41.63 31.17-62.17 28.99-16.66-1.77-51.7-12.27-54.689-31.76-5.37-34.93 16.939-17.77 58.88-24.13 23.719-4.33 53.569 1.14 57.979 26.9zm-11.73 62.66c16.359 16.71-16.49 49.32-34.63 59.2-14.721 8.02-49.5 19.32-63.051 5-24.279-25.67 3.82-24.25 34.7-53.34 17.051-17.05 44.691-29.54 62.981-10.86zm-78.57 88.73c35.18 3.37 13.07 20.78 8.95 63-1.65 24.06-14.26 51.649-40.32 49.6-23.32-1.83-20.01-48-12.85-67.37 5.82-15.72 24.6-47.11 44.22-45.23zm-21.65 224.28c3.931 23.04-41.63 31.17-62.18 28.99-16.66-1.77-51.7-12.27-54.69-31.76-5.37-34.93 16.94-17.771 58.88-24.13 23.72-4.33 53.56 1.13 57.99 26.9zm-10.43-227.53c3.95 23.05-41.62 31.18-62.16 28.99-16.67-1.77-51.71-12.27-54.69-31.75-5.37-34.94 16.93-17.78 58.88-24.14 23.72-4.32 53.56 1.14 57.97 26.9zm-10.73-157.5c12.949 20.34 19.159 50.03-3.04 63.85-19.86 12.34-44.57-26.78-50.3-46.64-4.64-16.11-8.13-52.51 8.78-62.64 30.32-18.14 22.84 8.99 44.56 45.43z"/><path d="m373.6 264.93c23.08 3.76 15.97 49.49 7.23 68.21-7.09 15.18-28.4 44.92-47.8 41.42-34.77-6.26-11.3-21.79-3.7-63.53 3.62-23.84 18.46-50.29 44.27-46.1zm-10.36 213.75c12.95 20.34 19.16 50.021-3.04 63.84-19.86 12.351-44.57-26.779-50.3-46.64-4.64-16.1-8.14-52.51 8.78-62.64 30.32-18.14 22.84 8.99 44.56 45.44zm-2.41-258.03c16.35 16.71-16.5 49.32-34.64 59.21-14.71 8.01-49.5 19.31-63.05 4.99-9.86-10.43-11.08-16.38-6.98-21.73.49-.55.98-1.1 1.45-1.66l.01-.01c7.02-7.14 23.2-13.91 40.22-29.94 17.05-17.05 44.7-29.54 62.99-10.86zm-9.12 405.15c.04 35.33-19.43 15.01-61.85 14.98-24.11.689-52.78-9.2-53.26-35.34-.42-23.37 45.85-24.54 65.82-19.28 16.2 4.26 49.27 19.94 49.29 39.64z"/><path d="m287.59 317.7c11.39 12.29 30.88 43.25 20.32 59.89-18.91 29.85-24.44 2.25-60.22-20.54-20.72-12.34-39.62-36.07-26-58.39 12.19-19.95 51.86 3.88 65.9 19.04zm13.42 145.66c.03 35.319-19.43 15.01-61.85 14.979-24.11.69-44.46-9.2-44.94-35.34-.42-23.38 37.52-24.54 57.5-19.29 16.2 4.271 49.27 19.951 49.29 39.651zm-35.15-238.91c9.34 9.54 2.62 24.28-8.24 37l-.01.01c-.54.55-1.03 1.1-1.45 1.66-7.91 8.85-17.62 16.54-24.94 20.53-14.71 8.02-49.5 19.32-63.05 5-24.28-25.67 3.83-24.25 34.7-53.35 17.05-17.05 44.7-29.54 62.99-10.85zm-50.45 317.69c.04 35.32-19.43 15.011-61.85 14.98-13.63.39-28.71-2.601-39.34-9.99-5.47-7.64-10.11-15.53-13.84-23.63-.04-.56-.07-1.14-.08-1.72-.42-23.37 45.85-24.54 65.82-19.28 16.2 4.26 49.27 19.94 49.29 39.64zm-29.22-190.5c35.18 3.37 13.07 20.79 8.94 63.01-1.63 24.06-14.25 51.64-40.31 49.59-23.32-1.83-20-48-12.85-67.37 5.82-15.72 24.61-47.11 44.22-45.23z"/><path d="m147.6 288.62c35.18 3.38 13.07 20.79 8.94 63.01-1.63 24.06-14.25 51.64-40.32 49.59-23.31-1.83-20-48-12.84-67.37 5.82-15.72 24.6-47.11 44.22-45.23z"/></g><g fill="none"><g stroke="#000" stroke-width="23.142"><path d="m758.44 364.17c0 45.24-27.29 86.811-72.95 119.61-60.24 43.279-152.45 71.279-256.12 72.239-1.83.021-3.68.03-5.52.03-14.06 0-27.92-.5-41.52-1.46-161.21-11.449-286.87-88.639-292.84-183.349-.16-2.35-.23-4.7-.23-7.07 0-105.98 149.8-191.88 334.59-191.88s334.59 85.9 334.59 191.88z"/><path d="m89.26 371.25v103.02c0 17.021 3.86 33.521 11.12 49.23 3.73 8.1 8.37 15.99 13.84 23.63 50.03 69.84 169.81 119.021 309.63 119.021 111.28 0 209.87-31.15 270.7-79.08 40.181-31.66 63.891-70.641 63.891-112.801v-110.1m-500.821-102.72c10.86-12.72 17.58-27.46 8.24-37-18.29-18.69-45.94-6.2-62.99 10.85m0 0c-30.87 29.1-58.98 27.68-34.7 53.35 13.55 14.32 48.34 3.02 63.05-5 7.32-3.99 17.03-11.68 24.94-20.53.49-.55.98-1.1 1.45-1.66"/><path d="m297.84 231.51c-17.02 16.03-33.2 22.8-40.22 29.94l-.01.01c-.54.55-1.03 1.1-1.45 1.66-4.1 5.35-2.88 11.3 6.98 21.73 13.55 14.32 48.34 3.02 63.05-4.99 18.14-9.89 50.99-42.5 34.64-59.21-18.29-18.68-45.94-6.19-62.99 10.86m-50.15 125.54c35.78 22.79 41.31 50.39 60.22 20.54 10.56-16.64-8.93-47.6-20.32-59.89-14.04-15.16-53.71-38.99-65.9-19.04-13.62 22.32 5.28 46.05 26 58.39z"/><path d="m329.33 311.03c-7.6 41.74-31.07 57.27 3.7 63.53 19.4 3.5 40.71-26.24 47.8-41.42 8.74-18.72 15.85-64.45-7.23-68.21-25.81-4.19-40.65 22.26-44.27 46.1zm194.51.67c-30.88 29.09-58.979 27.67-34.7 53.34 13.551 14.32 48.33 3.02 63.051-5 18.14-9.88 50.989-42.49 34.63-59.2-18.291-18.68-45.931-6.19-62.981 10.86zm125.28-34.12c-30.87 29.1-58.97 27.68-34.7 53.35 13.55 14.32 48.35 3.02 63.061-5 18.14-9.89 50.979-42.5 34.63-59.2-18.291-18.69-45.931-6.2-62.991 10.85zm-80.47 204.37c35.79 22.8 41.31 50.39 60.229 20.55 10.561-16.65-8.93-47.61-20.32-59.9-14.05-15.149-53.71-38.99-65.899-19.04-13.62 22.32 5.28 46.05 25.99 58.39zm81.65-94.52c-7.6 41.74-31.08 57.26 3.7 63.53 19.4 3.49 40.71-26.24 47.8-41.42 8.74-18.72 15.851-64.46-7.229-68.21-25.811-4.19-40.661 22.26-44.271 46.1zm-133.1 65.14c4.12-42.22 26.229-59.63-8.95-63-19.62-1.88-38.4 29.51-44.22 45.23-7.16 19.37-10.471 65.54 12.85 67.37 26.06 2.05 38.67-25.54 40.32-49.6zm-87.83 103.45c5.91-9.43 8.78-26.829 9.89-38.14 4.13-42.22 26.24-59.63-8.93-63.01-19.62-1.88-38.41 29.52-44.22 45.229-4.31 11.66-7.23 38.91-3.78 54.48"/><path d="m418.2 359.42c-41.95 6.36-64.25-10.8-58.88 24.14 2.98 19.48 38.02 29.98 54.69 31.75 20.54 2.19 66.11-5.94 62.16-28.99-4.41-25.76-34.25-31.22-57.97-26.9zm-54.96 119.26c-21.72-36.45-14.24-63.58-44.56-45.44-16.92 10.13-13.42 46.54-8.78 62.64 5.73 19.86 30.44 58.99 50.3 46.64 22.2-13.82 15.99-43.5 3.04-63.84zm212.66 132.6c25.85-33.63 53.819-36.71 25.76-58.181-15.65-11.979-48.2 4.7-61.46 14.971-16.32 12.63-43.57 50.06-24.76 63.949 21.03 15.541 46.33-1.189 60.46-20.739zm135.97-68.5c4.13-42.23 26.229-59.641-8.95-63-5.63-.54-11.189 1.66-16.39 5.439-12.931 9.4-23.67 28.57-27.82 39.78-7.16 19.37-10.47 65.54 12.85 67.37 8.78.689 16.03-1.98 21.851-6.74 11.459-9.389 17.369-26.889 18.459-42.849m-283.26 44.17c-41.94 6.359-64.25-10.8-58.88 24.13 2.99 19.49 38.03 29.99 54.69 31.76 20.55 2.18 66.11-5.95 62.18-28.99-4.43-25.77-34.27-31.23-57.99-26.9zm-233.48-172.3c4.13-42.22 26.24-59.64-8.94-63.01-19.61-1.88-38.4 29.51-44.22 45.23-7.15 19.37-10.47 65.54 12.85 67.37 26.06 2.05 38.68-25.53 40.31-49.59z"/><path d="m156.54 351.63c4.13-42.22 26.24-59.63-8.94-63.01-19.62-1.88-38.4 29.51-44.22 45.23-7.16 19.37-10.47 65.54 12.84 67.37 26.07 2.05 38.69-25.53 40.32-49.59zm82.62 126.71c42.42.03 61.88 20.34 61.85-14.979-.02-19.7-33.09-35.38-49.29-39.65-19.98-5.25-57.92-4.09-57.5 19.29.48 26.139 20.83 36.029 44.94 35.339zm50.7 162.44c42.42.029 61.89 20.35 61.85-14.98-.02-19.7-33.09-35.38-49.29-39.64-19.97-5.26-66.24-4.09-65.82 19.28.48 26.14 29.15 36.03 53.26 35.34zm-136.3-83.66c42.42.03 61.89 20.34 61.85-14.98-.02-19.699-33.09-35.38-49.29-39.64-19.97-5.26-66.24-4.09-65.82 19.28.01.58.04 1.16.08 1.72.7 10.49 6.08 18.23 13.84 23.63 10.63 7.39 25.71 10.38 39.34 9.99m387.01-345.84c-41.94 6.36-64.25-10.8-58.88 24.13 2.989 19.49 38.029 29.99 54.689 31.76 20.54 2.18 66.101-5.94 62.17-28.99-4.409-25.76-34.259-31.23-57.979-26.9zm-75.13 17.54c-21.721-36.44-14.24-63.57-44.561-45.43-16.91 10.13-13.42 46.53-8.78 62.64 5.73 19.86 30.44 58.98 50.3 46.64 22.201-13.82 15.991-43.51 3.041-63.85z"/></g><path d="m0 0h850.394v850.394h-850.394z"/></g></svg>