<svg height="850" viewBox="0 0 850 850" width="850" xmlns="http://www.w3.org/2000/svg"><path d="m310.3 470.5-2.3 3.5-3.7-2.5-3.8-2.5 3.8-6zm17.2 9.5-5.5 9-.7-1-2-4-2-3.5 4.5-7 1-.5h2.5l1 .5.7.8.5.5.5 1 .3.7v1.8l-.3 1z" fill="#ffeec8"/><path d="m317.3 480.5-.8 1.3-.5-.5 1-1.5z" fill="#fff"/><path d="m314 475.3 3 4.5-1 1.5-3-3-3.2-3 2-3z" fill="#fff"/><path d="m321.8 489-3.5 5.8-1 1-1 .5-1 .5-1.3.2-1-.2-1.2-.5-.8-.5-.5-.8-.5-.7-.2-1v-1.8l.2-1 .5-.7.8-1 1-.8.7-1 3.5-5.2 2.5 3 2.3 3.2z" fill="#ffeec8"/><path d="m297.5 455.5-6 9.5-5-1.5-5.2-1.2-5.3-.8-5.5-.2-15.2-15.5-17.3-17-35.2-35-17.5-17.5-14.8-15 5.3-31 20.2 20 30.3 30.5 19.2 19.7 19.3 19.8 17.7 18.7z" fill="#7a7878"/><path d="m321.8 473.5-4.5 7-.3-.7 3-4.5.8-1zm-16.3-22 .8.5.7.8.3.7.2 1v1.8l-.2 1-.5.7-3 4.8-6.3-7.3 1.8-2.5.7-.7 1-.8 1-.5 1.3-.2 1.2.2z" fill="#ffeec8"/><path d="m332 528h349l2.3-.2 2-.3 1.7-.5 2-.7 1.8-.8 1.7-1 1.5-1.2 1.5-1.3 2.3.3 9 26.5h-565.3l9.5-27.5 1.5 1.5 1.5 1.2 1.8 1.3 1.7.7 2 .8 2 .7 2.3.3 2 .2z" fill="#7a7878"/><path d="m317.3 480.5 2 3.5 2 4-2.3-3.2-2.5-3z" fill="#ffeec8"/><path d="m622.3 348.5-.5-2.2.7-1.5.5-1.5v-6.8l.3-1.7.2-1.8.8-2 1-2.5.5-1.2.2-1.3.3-1.5v-1.5l-.5-1.2-.8-1.3-1-.7-1.7-.8h-1l1.7-7.7.5-3.3.3-2.5-.8-3.5-.5-3.5-1-3.5-1-3.2-1.2-3.3-1.3-3-1.5-3-1.7-2.7-2.5-3.8-3-3.5-3.3-3.2-3.2-2.5-3.8-2.3-3.7-2-4-1.2-4.3-.8-5.7-.5h-10.8l-4.7.8-4.5.7-4.5 1.3-4 1.7-3.8 2-1 .5-2.5 1.8-.7.5-2.3 1.7-3 3-3.5 4.3-1.7 2.5-1.8 2.7-1.5 3-1.5 3.3-1.2 3.5-.8 3.7-.7 4-.3 4.3.5 14.2-1.5.8-1.2.7-.8 1.3-.5 1.2v1.5l.3 1.5.2 1.3.5 1.2 1 2.3.8 1.7.2 1.8.3 1.5h-.3l-2.2 12.2-1.8-.2-5.2.2-5 .8-5 1.2-4.8 1.5-4.7 2-4.5 2.5-4.3 2.8-4 3.2-3.7 3.3-3.3 3.7-3 4-2.5 4.3-2 4.5-1.5 4.7-.5 2.5-.5 2.3-.2 2.5v67.2l-7 16-6.8 16.3-6.2 15.7-2.8 7.8-2.5 7.2v3.5h-40v-3.5l-4.7-14-5.5-15-6-15.2-6.3-15-.5-68.8-.2-5-.8-4.7-1-4.8-1.7-4.2-2-4.3-2.5-4-2.8-3.7-3.2-3.5-3.3-3.3-3.7-2.7-4-2.5-4.3-2-4.5-1.5-4.7-1.3-4.8-.7-5-.3h-13.5l1.3-1 1-1.2.5-1 .2-1v-7l.3-1.5.2-2 .8-2 1-2.5.5-1.3.2-1.2.3-1.5v-1.5l-.5-1.3-.8-1.2-1-.8-1.7-.5.5-14.5-.3-4.2-.5-4-1-3.8-1.2-3.5-1.5-3.2-1.5-3-1.8-2.8-1.7-2.5-3.5-4-3-3-2-2-1-.5-2.5-1.7-1-.5-3.8-2-4-1.5-4.2-1.5-4.8-.8-4.7-.5-5.3-.2h-5.5l-5.7.5-3.5.7-3.3 1-3.5 1.3-3 1.7-3 2-3 2.3-2.5 2.7-2.5 2.8-2.5 3.2-2 3.3-2 3.5-1.5 4-1.5 3.7-1.2 4.3-1 4.2-.5 4.3v3l.2 3 1 6v1.7l-1.5.5-1.2.8-.8 1.2-.2 1.3-.3 1.5.3 1.5.2 1.2.5 1.3 1.3 2.5.5 2 .5 2v8.5l.5 1.2.7 1.3 1.3 1.2.7.5.8.5h-16.8l-3.7.3-3.8.2-3.5.8-3.5 1-20.2-20 11.7-69.8v-2l.5-2 .5-2 .5-1.7 1-1.8 1-1.7 1.3-1.5 1.2-1.5 1.5-1.3 1.5-1.2 1.5-1 1.8-.8 2-.7 2-.5 2-.3 2-.2h431.5l2 .2 2 .3 2 .5 1.7.7 1.8.8 1.7 1 1.5 1.2 1.5 1.3 1.3 1.5 1.2 1.5 1 1.7.8 1.8.7 1.7.5 2 .3 2 .2 2 12 71.5h-.7l-20 20-.5-1.7-2.3-.3-3-.5-7.7-.7-7.8-.5h-5.7z" fill="#fff"/><path d="m331.5 521v1l.3-1v-1zm-21.2-50.5 4.3-6.5.5-1 .3-.8v-2l-.3-.8-.5-.8-.6-.6-.8-.5-1-.8h-2.5l-1 .5-1 .8-1 1-2.5 4-.5-.3 3-4.8.5-.8.3-1v-1.8l-.3-1-.3-.8-.8-.8-.8-.5-1-.5-1.3-.3-1 .6-1 .5-1 .8-.8.8-1.8 2.5-15-16.5-17.8-18.8-19.3-19.8-19.3-19.8 6.3-2 5.5-1.5 4.5-1 2.8-.5 3 2.8 3 2.5 3.3 2.3 3.3 1.8 1.8.8 1.8.5 3.3.8h13.9l3-.5 1.5-.3 1.5-.8 3.8-1.8 3.5-2.3 3.3-2.8 3.3-3 .3.3 1.8.3 4.5.8 6.8 1.8 4 1 4.3 1.5 4.5 1.8 4.3 2 4.5 2.5 4.5 2.8 4 3 3.8 3.8 1.8 1.8 1.8 2 1.5 2.3 1.5 2.3 4.7 10.3 7 14.3 7.5 16.5 8 18.5 6.3 15 6 15.3 5.5 15 4.8 14v3.5h-70v-1.5l-1.8-9.5-1-4.8-1-4.8-1.5-4.8-1.5-4.5-1.5-4.8-2-4.5h.3l5.5-9 .5-.8.3-1v-1.8l-.3-.8-.5-1-.5-.5-.8-.8-1-.5h-2.6l-1 .5.8-1 .5-1 .3-1v-1.8l-.3-.4-.5-.8-.5-.8-.8-.8-1.3-.5h-2.3l-1.3.5-1 .8-.8 1-3 4.8z" fill="#a9d7f3"/><path d="m706.8 548.8-9-26.5-2.3-.3 1.5-1.7 1.3-2 1-2 1-2 .7-3.3.3-3.2-25.3-149.3-4.5-26.5-12-71.5-.2-2-.3-2-.5-2-.7-1.7-.8-1.8-1-1.7-1.2-1.5-1.3-1.5-1.5-1.3-1.5-1.2-1.7-1-1.8-.8-1.7-.7-2-.5-2-.3-2-.2h-431.5l-2 .2-2 .3-2 .5-2 .7-1.8.8-1.5 1-1.5 1.2-1.5 1.3-1.2 1.5-1.3 1.5-1 1.7-1 1.8-.5 1.7-.5 2-.5 2v2l-11.7 69.8-5.3 31-24.7 146.5v2l.2 2 .5 2 .8 1.7 1.5 3 2.2 2.8-9.5 27.5-40.5 120.2-1-.5 11.8-145.5 4 .3 51-328 .2-2 .3-2 .5-2 .7-1.8 1-1.7 1-1.8 1.3-1.5 1.5-1.5 1.5-1.2 1.7-1.3 1.8-1 2-.7 2-.8 2-.5 2.2-.2 2.3-.3h469.5l2.2.3 2 .2 2.3.5 2 .8 2 .7 1.7 1 1.8 1.3 1.5 1.2 1.5 1.5 1.2 1.5 1 1.8 1 1.7.8 1.8.5 2 .2 2 .3 2 51.7 328 4.3-.5 13 152.2z" fill="#6ebe44"/><path d="m313.3 457.5.7.5.5.8.5.7.3.8v2l-.3.7-.5 1-4.2 6.5-6-7.5 2.5-4 1-1 1-.7 1-.5h2.5z" fill="#ffeec8"/><path d="m245.3 375.8-2.8.5-4.5 1-5.5 1.5-6.2 2-30.3-30.5 3.5-1 3.5-.8 3.8-.2 3.7-.3h16.8l1.5.3h1.7l1.3 4 1.2 4 1.8 3.7 1.7 3.5 2 3.5 2 3 2.3 3z" fill="#c8c8c8"/><path d="m303.8 462.8-3.8 6-4.2-2-4.3-1.8 6-9.5zm13.2 17-3-4.5-2.2-3 3-4.8.7-1 1-.7 1.3-.5h2.2l1.3.5.7.7.5.8.5.7.3.8v1.7l-.3 1-.5 1-.7 1-1 .8-.8 1zm-5.2-7.5-2 3-1.8-1.3 2.3-3.5zm10.2 16.7h-.2l-.5-1z" fill="#ffeec8"/><path d="m212.8 477.5-1.3.3-1.3.5-.8.5-.5.8-.3.8-.3 1-.3.8.3 1 .3 1 .3.8 6.5 10 3 4.5.8 1 1 .8 1.3.5h2.3l1.3-.5.8-.8.5-.8.5-.8.3-.8v-1.8l-.5-1-.3-.8-.8-1.3 1 .5h2.3l1.3-.5.8-.8.5-.5.5-1 .3-.8v-1.8l-.3-1-.5-.8-4.8-7.3-4.8-7.5-.8-1-1-.5-1-.5-1.3-.3-1.3.3-1 .5-.8.5-.5.8-.5.8-.3 1v1.8l.3 1 .5.8.5 1-1-.3zm-3.5 43.5v-1 1.8zm30-43.7.8 1 1 .8 1 .5h1.3l2.5-.8.8-.5.5-.8.3-.8.3-.8.3-1-.3-1-.3-.8-.3-1-3.3-5-6.3-9.5-.8-1-1-.8-1.3-.3-1-.3-1.3.3-1.3.5-.8.5-.5.8-.5.8-.1.9v2l.5.8.3 1 6 9zm-1.3 7.5.8-.8.5-.5.5-1 .3-.8v-1.7l-.5-1-.3-.8-4-6-5.5-8.8-.8-.8-1-.8-1-.5-1.3-.3-2.5.8-.8.5-.5.8-.3.8-.3 1-.3.8.3 1 .3 1 .3.8 6.3 9.5 3.3 5 .8 1 1 .8 1.3.5 1 .3 1.3-.3zm67.5-2.8-.5.8-.3 1-.3 1 .3.8.3 1 .3.8.8.8.8.5 1 .5 1.3.3 1-.3 1.3-.3-.8 1-.5.8-.3 1v1.8l.3 1 .5.8.5.8.8.5 1.3.5 1 .3 1.3-.3 1-.5 1-.5 1-1 3.5-5.8 2 4.5 1.5 4.8 1.5 4.5 1.5 4.8 1 4.8 1 4.8 1.8 9.5v1.5h-166.6l-2-.3-2.3-.3-2-.8-2-.8-1.8-.8-1.7-1.5-1.5-1.3-1.5-1.5-2.3-2.8-1.5-3 2.8-.3 5.3-15.3 5.5-16 6-16 5.8-15.8 5.8-14.5 5.5-13.3 5-10.8 2-4.8 2.3-3.8 2-3.3 2.3-3 2.8-2.8 2.8-2.5 35.3 35 17.3 17 15.3 15.5 5.5.3 5.3.8 5.3 1.3 5 1.5-1.8 2.8-.5.8-.3 1v1.8l.3.8.5 1 .5.5.8.8 1.3.5 1 .3 1.3-.3 1.3-.5 1-.8.8-1 2.5-3.8.5.3-3 4.5-.5 1-.3.8v1.8l.3 1 .5.8.5.8.8.5 1.3.5 1 .3 1.3-.3 1-.3 1-.8 1-1 2.8-4.5 1.8 1.3-5.3 6.8z" fill="#a9d7f3"/><path d="m495 405.5-5.5 10-6.7 13.3-7.5 15.5-8 17.2v-67.2l.2-2.5.5-2.3.5-2.5 1.5-4.7 2-4.5 2.5-4.3 3-4 3.3-3.7 3.7-3.3 4-3.2 4.3-2.8 4.5-2.5 4.7-2 4.8-1.5 5-1.2 5-.8 5.2-.2 1.8.2-6.5 37.3-3.3 1.7-3.2 1.8-3 2.2-3 2.3-2.8 2.7-2.7 2.8-2.3 3z" fill="#c8c8c8"/><path d="m517.3 385.8 5.5-2.8 5.7-2 5-1.7 4.8-1.3 4-.7 3.2-.8 2.5-.2.3-.3 3.2 3 3.3 2.8 3.5 2.2 3.7 1.8 1.8.7 1.5.3 3 .5h10.2l3.5-.3 3-.5 1.8-.5 1.7-.7 3.3-1.8 3.2-2.2 3-2.5 3-2.8 3 .5 4.8 1 6 1.5 6.7 2.3-28.7 29.2-14 14.5-13.3 14.3-12.2 13-10.5 11.5-8.5 10-3.3 4-2.5 3.5-6.5 9-2.5 4-2.2 3.5-2 3.5-1.8 4-1.2 4-1.3 5-3-1-.5-2.8-.7-2.2-.8-1.5-.7-1-.8-.5-1-.3-1 .5-1.2.8-1 1.2-1.3 1.5-2.2 4-2.5 5.3-2.3 6.2v3.5h-50v-3.5l2.5-7.2 2.8-7.8 6.2-15.7 6.8-16.3 7-16 8-17.2 7.5-15.5 6.7-13.3 5.5-10 2-3.2 2.3-3 2.7-2.8 2.8-2.7 3-2.3 3-2.2 3.2-1.8z" fill="#a9d7f3"/><path d="m298 375.8 2.5-2.8 2.3-3 2.2-3.2 1.8-3.3 2-3.7 1.5-3.8 1.2-4 1.3-4h17.7l5 .3 4.8.7 4.7 1.3 4.5 1.5 4.3 2 4 2.5 3.7 2.7 3.3 3.3 3.2 3.5 2.8 3.7 2.5 4 2 4.3 1.7 4.2 1 4.8.8 4.7.2 5 .5 68.8-8-18.5-7.5-16.5-7-14.3-5.5-10.7-1.5-2.3-1.5-2.2-1.7-2-1.8-1.8-3.7-3.7-4-3-4.5-2.8-4.5-2.5-4.3-2-4.5-1.7-4.2-1.5-4-1-6.8-1.8-4.5-.7-1.7-.3z" fill="#c8c8c8"/><path d="m269.8 355.8h-.3.5zm23.2-31.5v-.8l-.5-.5-.5-.3-.8-.3-.8.3-.4.3-.3.5-.3.8.3.5.3.5.5.5h1.6l.5-.5.5-.5zm-47.7 51.5-2.5-2.8-2.3-3-2-3-2-3.5-1.8-3.5-1.8-3.8-1.3-4-1.3-4v-.2l-1-4.5-.8-4.5-.5-4.8v-15.2l1-2.8 1.3-2.5 1.8-2.3 1.8-2.3 3.3-3.5 2.5-2.8 3.8-5 3.8-4.3 3.3-3.5 2.8-3 2.5-2 2-1.8 2.5-1.8.5-.3 2 1.3 2.3 1.3 5.8 2.8 6.5 2.8 7 2.8 12.5 5 4.5 1.8 2.5 1.5 4 4.3 3.8 4.3 4 4.5-.8.5v20.3l-.5 4.8-.8 4.5-1 4.5-1.3 4-1.3 4-1.5 3.8-2 3.8-1.8 3.3-2.3 3.3-2.3 3-2.5 2.8-3.3 3-3.3 2.8-3.5 2.3-3.8 1.8-1.5.8-1.5.3-3 .5h-13.4l-3.3-.8-1.8-.5-1.8-.8-3.3-1.8-3.3-2.3-3-2.5zm6.7-51.5-.3-.8-.5-.5-.5-.3-.8-.3-.5.3-.8.3-.3.5-.3.8.3.5.3.5.8.3.5.3.8-.3.5-.3.5-.5z" fill="#ffeec8"/><path d="m554 295.5-1.7.8-1.8 1-1.7 1.2-1.5 1.3-2.8 2.7-2.5 3-2 3.5-1.7 3.8-1.5 3.7-1.3 3.8-1 3.7-1 3.5-1 6-.5 4.3v1.5l-.5-4.8-.2-5v-9.5h-.5l-1.8-.5h-2l-.5-14.2.3-4.3.7-4 .8-3.7 1.2-3.5 1.5-3.3 1.5-3 1.8-2.7 1.7-2.5 3.5-4.3 3-3 2.3-1.7.7-.5 2.5-1.8 1-.5 3.8-2 4-1.7 4.5-1.3 4.5-.7 4.7-.8h10.8l5.7.5 4.3.8 4 1.2 3.7 2 3.8 2.3 3.2 2.5 3.3 3.2 3 3.5 2.5 3.8-1.5 1.7-6.3 1.3-15 3-10 2.2-10.2 2.3-9.8 2.7-4.2 1.3z" fill="#f6cc4b"/><path d="m225.8 461.3 1.2.2 1 .5 1 .8.8.7 5.5 8.8-3.8 2.7-3.2 3-6.3-9.5-.2-.7-.3-1-.2-1 .2-.8.3-1 .2-.7.5-.8.8-.5zm20 17.5-2.5.7h-1.3l-1-.5-1-.7-.7-1-3.5-5.5 3.7-2.3 4.3-2.2 3.2 5 .3 1 .2.7.3 1-.3 1-.2.8-.3.7-.5.8z" fill="#ffeec8"/><path d="m642.5 393-59.5 61.3-37.7 38.7-3 3-2.8 3.5-2.7 3.5-2.8 4.3-2.5 4.2-2.5 4.8-2.5 5-2.5 5.2v1.5h-32v-3.5l2.3-6.2 2.5-5.3 2.2-4 1.3-1.5 1-1.2 1.2-.8 1-.5 1 .3.8.5.7 1 .8 1.5.7 2.2.5 2.8 3 1 1.3-5 1.2-4 1.8-4 2-3.5 2.2-3.5 2.5-4 6.5-9 2.5-3.5 3.3-4 8.5-10 10.5-11.5 12.2-13 13.3-14.3 14-14.5 28.7-29.2 7.3-7.3 22-22 20-20h.7l4.5 26.5h-.2z" fill="#7a7878"/><path d="m545.3 493 37.7-38.7 59.5-61.3 3.3 2.8 2.7 3 2.8 3.2 2.2 3.5 4.3 8.3 5 10.7 6 12.8 6 14.5 6.5 15.2 6.2 16 6 15.5 5.3 15.3 1.5.5-1 2-1 2-1.3 2-1.5 1.7-1.5 1.3-1.5 1.2-1.7 1-1.8.8-2 .7-1.7.5-2 .3-2.3.2h-25v-5.5l-2-6-1-2.5-1.2-2.5-1-2-1.3-1.7-1-1.3-1.2-1-1-.7h-1.3l-1 .2-.7.5-1 1.3-.8 1.5-.5 2.2-.5 2.8-1 4-.7 2.7-.8 3v5h-114v-1.5l2.5-5.2 2.5-5 2.5-4.8 2.5-4.2 2.8-4.3 2.7-3.5 2.8-3.5z" fill="#a9d7f3"/><path d="m706.8 548.8 42.5 126.2-649.5-2 1.2-4 40.5-120.2z" fill="#6ebe44"/><path d="m676 358.5 25.3 149.3-.3 3.2-.7 3.3-1.5-.5-5.3-15.3-6-15.5-6.2-16-6.5-15.2-6-14.5-6-12.8-5-10.7-4.3-8.3-2.2-3.5-2.8-3.2-2.7-3-3.3-2.8 33.3-34.5zm-25.7-8.2.5 1.7-22 22-1.3-2.5-5.2-23 1.5-.2h5.7l7.8.5 7.7.7 3 .5z" fill="#c8c8c8"/><path d="m627.5 371.5 1.3 2.5-7.3 7.3-6.7-2.3-6-1.5-4.8-1-3-.5 2.5-2.7 2.3-3 2.2-3 2-3.5 1.8-3.5 1.5-3.8 1.5-4 1-4h2l1.7-.5 1.3-.7 1-1 .5 2.2z" fill="#c8c8c8"/><path d="m618 319.5h-.5l-1-4.2-1.5-3.8-1.5-3.5-1.7-3.2-1.8-3-2-2.8-2.2-2.5-2-2-4-3.7-3.5-2.5-2.5-1.8-1.8-.7 15-3 6.3-1.3 1.5-1.7 1.7 2.7 1.5 3 1.3 3 1.2 3.3 1 3.2 1 3.5.5 3.5.8 3.5-.3 2.5-.5 3.3-1.7 7.7h-1.3l-1.5.5z" fill="#f6cc4b"/><path d="m576.8 355.8-.3.3zm39-7.3-1 4-1.5 4-1.5 3.8-1.8 3.5-2 3.5-2.3 3-2.3 3-2.4 2.7-3 2.8-3 2.5-3.3 2.3-3.3 1.8-1.8.8-1.8.5-3 .5-3.5.3h-10.3l-3-.5-1.5-.3-1.8-.8-3.8-1.8-3.5-2.3-3.3-2.8-3.3-3-2.3-2.8-2.3-3-2.3-3-2-3.3-1.8-3.5-1.5-3.8-1.3-4-1.3-4-1-4.5-.8-5v-1.5l.5-4.3 1-6 1-3.5 1-3.8 1.3-3.8 1.5-3.8 1.8-3.8 2-3.5 2.5-3 2.8-2.8 1.5-1.3 1.8-1.3 1.8-1 1.8-.8 3.8-1.3 4.3-1.3 9.8-2.8 10.6-1.5 10-2.3 1.8.8 2.5 1.8 3.5 2.5 4 3.8 2 2 2.3 2.5 2 2.8 1.8 3 1.8 3.3 1.5 3.5 1.5 3.8 1 4.3.5 2.5.3 7.5-.3 5-.5 4.8-.8 4.8zm-17.8-24.2v-.5l-.5-.5-.5-.5h-1.6l-.5.5-.5.5v1.3l.5.5.5.3.8.3.8-.3.5-.3.5-.5zm-41.2 0v-.5l-.5-.5-.5-.3-.8-.3-.8.3-.5.3-.3.5-.3.5.3.8.3.5.5.3.8.3.8-.3.5-.3.5-.5z" fill="#ffeec8"/><path d="m548.3 376-.3.3-2.5.2-3.2.8-4 .7-4.8 1.3-5 1.7-5.7 2-5.5 2.8 6.5-37.3 2.2-12.2h.3v7.5l.2 1 .3.7.7 1 .8 1 1 .8 1.2.5 1.5.2 1.5-.2h.3l1.2 4 1.3 4 1.5 3.7 1.7 3.5 2 3.3 2.3 3 2.2 3z" fill="#c8c8c8"/><path d="m228.3 319v.3h-.5l-1.8-.5-2 .2v-1.7l-1-6-.2-3v-3l.5-4.3 1-4.2 1.2-4.3 1.5-3.7 1.5-4 2-3.5 2-3.3 2.5-3.2 2.5-2.8 2.5-2.7 3-2.3 3-2 3-1.7 3.5-1.3 3.3-1 3.5-.7 5.7-.5h5.5l5.3.2 4.7.5 4.8.8 4.2 1.5 4 1.5 3.8 2 1 .5 2.5 1.7 1 .5 2 2 3 3 3.5 4 1.7 2.5 1.8 2.8 1.5 3 1.5 3.2 1.2 3.5 1 3.8.5 4 .3 4.2-.5 14.5-1.5-2.7-2.3-3.3-4-4.5-3.7-4.2-4-4.3-2.5-1.5-4.5-1.7-12.5-5-7-2.8-6.5-2.7-5.8-2.8-2.2-1.2-2-1.3-.5.3-2.5 1.7-2 1.8-2.5 2-2.8 3-3.2 3.5-3.8 4.2-3.7 5-2.5 2.8-3.3 3.5-1.7 2.2-1.8 2.3-1.2 2.5z" fill="#9e5c26"/><path d="m316.5 481.8-3.5 5.2-.7 1-1 .8 4.7-7.5z" fill="#fff"/><path d="m316 481.3-4.7 7.5-1.3.2-1 .3-1.2-.3-1-.5-.8-.5-.7-.7-.3-.8-.2-1-.3-.7.3-1 .2-1 .5-.8 4.3-6.7 3.2 3zm-8-7.3-2.7 4.5-1 1-1 .8-1 .2-1.3.3-1-.3-1.2-.5-.8-.5-.5-.7-.5-.8-.2-1v-1.7l.2-.8.5-1 3-4.5 3.8 2.5zm-8-5.2-2.5 3.7-.7 1-1 .8-1.3.5-1.2.2-1-.2-1.3-.5-.7-.8-.5-.5-.5-1-.3-.7v-1.8l.3-1 .5-.7 1.7-2.8 4.3 1.8zm-62.5-11 6.3 9.5-4.3 2.2-3.7 2.3-6-9-.3-1-.5-.8v-2l.3-.7.5-.8.5-.7.7-.5 1.3-.5 1.2-.3 1 .3 1.3.2 1 .8zm1.8 20.5.2.7.5 1v1.8l-.2.7-.5 1-.5.5-.8.8-1.2.5-1.3.2-1-.2-1.2-.5-1-.8-.8-1-3.2-5 3.2-3 3.8-2.7zm-8 8.5.5.7.2 1v1.8l-.2.7-.5 1-.5.5-.8.8-1.2.5h-2.3l-1-.5-4.7-7.3 2.7-3.2 3-3.3z" fill="#ffeec8"/><path d="m221.8 472 4.7 7.5-3 3.3-2.7 3.2-4-6.2-.8-1-1.2-.8-.5-1-.5-.7-.3-1v-1.8l.3-1 .5-.7.5-.8.7-.5 1-.5 1.3-.2 1.2.2 1 .5 1 .5zm4.5 22.5.2.8.5 1v1.7l-.2.8-.5.7-.5.8-.8.7-1.2.5h-2.3l-1.2-.5-1-.7-.8-1-3-4.5 2.3-4.3 2.7-3.7 3 4.7 1 1 1 .8z" fill="#ffeec8"/><path d="m220.8 486 4.7 7.3-1-.8-1-1-3-4.7z" fill="#ffeec8"/><path d="m216.8 479.8 4 6.2-.3.8-5.7-8.8 1.2.8z" fill="#ffeec8"/><path d="m214.8 478 5.7 8.8-2.7 3.7-2.3 4.3-6.5-10-.2-.8-.3-1-.2-1 .2-.7.3-1 .2-.8.5-.7.8-.5 1.2-.5 1.3-.3 1 .3z" fill="#ffeec8"/><path d="m209.3 521v.8-1.8z" fill="#a9d7f3"/><path d="m202.8 393.8-2.8 2.5-2.7 2.7-2.3 3-2 3.3-2.2 3.7-2 4.8-5 10.7-5.5 13.3-5.8 14.5-5.7 15.7-6 16-5.5 16-5.3 15.3-2.7.2-.8-1.7-.5-2-.2-2v-2l24.7-146.5 14.8 15z" fill="#c8c8c8"/><g fill="none" stroke="#231f20" stroke-linecap="round" stroke-miterlimit="10"><path d="m228.3 318.3v16l.5 4.7.7 4.5 1 4.5v.3l1.3 4 1.2 4 1.8 3.7 1.7 3.5 2 3.5 2 3 2.3 3 2.5 2.8 3 2.7 3 2.5 3.2 2.3 3.3 1.7" stroke-width="12"/><path d="m301.8 326.5-2-2.2-1.3-1-1.2-.8-1.3-.7-1.5-.5-1.5-.3h-2.7l-1.3.3-1.2.5-1.3.7-1.2.8-1 .7-.8 1-.7 1" stroke-width="4.5"/><path d="m286.3 324.3.2 1 .3.7.5 1 .5.5.7.8.8.5 1 .2h2l1-.2.7-.5.8-.8.7-.5.3-1 .5-.7v-2.3" stroke-width="3"/><path d="m239.5 326.3 2-2.3 1.3-1 1.2-.7 1.5-.5 1.3-.5 1.5-.5h1.5l1.5.2 1.2.3 1.3.5 1.2.5 1 .7 1 .8 1 1 .5 1.2" stroke-width="4.5"/><path d="m255 323.5v1.5l-.2 1-.5.8-.8.7-.7.5-.8.5-1 .3h-2l-1-.3-.7-.5-.8-.5-.5-.7-.5-.8-.2-1-.3-1v-.7l.3-.5" stroke-width="3"/><path d="m315.5 319.8 1.8-.5 2 .2 1.7.5 1 .8.8 1.2.5 1.3v1.5l-.3 1.5-.2 1.2-.5 1.3-1 2.5-.8 2-.2 2-.3 1.5v7l-.2 1-.5 1-1 1.2-1.3 1-.7.5-1 .3h-2.5m-85-29.5-1.8-.5-2 .2-1.5.5-1.2.8-.8 1.2-.2 1.3-.3 1.5.3 1.5.2 1.2.5 1.3 1.3 2.5.5 2 .5 2v8.5l.5 1.2.7 1.3 1.3 1.2.7.5.8.5 1.5.3h2" stroke-width="7"/><path d="m281.8 368.3-2.5.7-2.8.8-3 .2h-5.7l-2.8-.5-2.5-.5-2.2-.7" stroke-width="6"/><path d="m284.3 385.5 3.7-1.7 3.5-2.3 3.3-2.7 3.2-3 2.5-2.8 2.3-3 2.2-3.2 1.8-3.3 2-3.7 1.5-3.8 1.2-4 1.3-4 1-4.5.7-4.5.5-4.7v-20.3m-57.2 71 1.7.8 1.8.5 3.2.7h13.8l3-.5 1.5-.2 1.5-.8" stroke-width="12"/><path d="m269.8 355.8-1.5-.5-.8-.8-.7-.2-1.5.2-1.8.3-1.5.2-.5-.2-.7-.3-.3-.7-.5-1.3v-.7l.3-.5.5-1 1-1 .7-1.3m7.3 7.8h-.3.5zm7.5-29.5-.8.7-.5 1-1 2.3-.2 2.7-.3 2.8.3 2.7.2 2.8.5 2.5.8 2.2.7 2 .8 1.3.7.7.8 1.3v1.2l-.3 1.3-.5.7-.5.3-.7.2-1.5-.2-1.5-.3-1-.2h-.5l-.8.5-1 .5-.5.2-.7.3" stroke-width="6"/><path d="m289.5 324.3.3.5.2.5.5.5h1.5l.5-.5.5-.5v-1.3l-.5-.5-.5-.2-.7-.3-.8.3-.5.2-.2.5zm-41.2 0 .2.5.3.5.7.2.5.3.8-.3.5-.2.5-.5.2-.5-.2-.8-.5-.5-.5-.2-.8-.3-.5.3-.7.2-.3.5z" stroke-width="3"/><path d="m279.8 318.3 1-1.5 1.5-1.5 2-1 2-.8 2.2-.5 2.3-.2 2-.3 1.7.3 2.5.7 2.5.8 2.3 1 2.7 2m-42 0-1-1.5-1.5-1.5-2-1-2-.8-2.2-.5-2.3-.2-2-.3-1.7.3-2.5.7-2.5.8-2.3 1-2.7 2" stroke-width="6"/><path d="m224 317.3-1-6-.2-3v-3l.5-4.3 1-4.2 1.2-4.3 1.5-3.7 1.5-4 2-3.5 2-3.3 2.5-3.2 2.5-2.8 2.5-2.7 3-2.3 3-2 3-1.7 3.5-1.3 3.3-1 3.5-.7 5.7-.5h5.5l5.3.2 4.7.5 4.8.8 4.2 1.5 4 1.5 3.8 2 1 .5 2.5 1.7 1 .5 2 2 3 3 3.5 4 1.7 2.5 1.8 2.8 1.5 3 1.5 3.2 1.2 3.5 1 3.8.5 4 .3 4.2-.5 14.5-1.5-2.7-2.3-3.3-4-4.5-3.7-4.2-4-4.3-2.5-1.5-4.5-1.7-12.5-5-7-2.8-6.5-2.7-5.8-2.8-2.2-1.2-2-1.3-.5.3-2.5 1.7-2 1.8-2.5 2-2.8 3-3.2 3.5-3.8 4.2-3.7 5-2.5 2.8-3.3 3.5-1.7 2.2-1.8 2.3-1.2 2.5-1 2.7v.3l-.3 2" stroke-width="12"/><path d="m257.3 282h1.5l1.5-.2.5-.3h.2l-2-2.5-1.5-2.7-.7-1.5-.3-1.5-.2-1.8-.3-1.5" stroke-width="12"/><path d="m402 524.5-4.7-14-5.5-15-6-15.2-6.3-15-8-18.5-7.5-16.5-7-14.3-5.5-10.7-1.5-2.3-1.5-2.2-1.7-2-1.8-1.8-3.7-3.7-4-3-4.5-2.8-4.5-2.5-4.3-2-4.5-1.7-4.2-1.5-4-1-6.8-1.8-4.5-.7-1.7-.3m23.5 113 2 4.5 1.5 4.8 1.5 4.5 1.5 4.7 1 4.8 1 4.7 1.7 9.5m-21.7-56 1.5 1.8m-8-9.5.5.2m-129.8-134 1.3 1.3 20.2 20 30.3 30.5 19.2 19.7 19.3 19.8 17.7 18.7 15 16.5m-27 5.8-15.2-15.5-17.3-17-35.2-35-17.5-17.5-14.8-15-1-.8" stroke-width="14"/><path d="m224.8 381.3 1.5-.5 6.2-2 5.5-1.5 4.5-1 2.8-.5h1m-96.3 139.5 5.3-15.3 5.5-16 6-16 5.7-15.7 5.8-14.5 5.5-13.3 5-10.7 2-4.8 2.2-3.7 2-3.3 2.3-3 2.7-2.7 2.8-2.5 1-1m26.7-44.8h-20l-3.7.3-3.8.2-3.5.8-3.5 1m183.5 115.7v-.7l-.5-68.8-.2-5-.8-4.7-1-4.8-1.7-4.2-2-4.3-2.5-4-2.8-3.7-3.2-3.5-3.3-3.3-3.7-2.7-4-2.5-4.3-2-4.5-1.5-4.7-1.3-4.8-.7-5-.3h-17.7" stroke-width="14"/><path d="m618 318.5v3.5l.3 7.5-.3 5-.5 4.8-.7 4.7-1 4.5-1 4-1.5 4-1.5 3.8-1.8 3.5-2 3.5-2.2 3-2.3 3-2.5 2.7-3 2.8-3 2.5-3.2 2.2-3.3 1.8" stroke-width="12"/><path d="m544.5 326.5 2-2 1.3-1 1.2-.7 1.5-.8 1.3-.5 1.5-.2 1.5-.3 1.5.3 1.2.2 1.3.5 1.2.5 1 .8 1 1 1 1 .5 1" stroke-width="4.5"/><path d="m560 324.5v1l-.2.8-.5.7-.8.8-.7.7-.8.3-1 .5h-2l-1-.5-.7-.3-.8-.7-.5-.8-.5-.7-.2-.8-.3-1 .3-1.5" stroke-width="3"/><path d="m606.8 326.5-2-2.2-1.3-1-1.2-.8-1.3-.7-1.5-.5-1.5-.3h-2.7l-1.3.5-1.2.3-1.3.7-1.2.8-1 .7-.8 1-.7 1" stroke-width="4.5"/><path d="m591.3 323.5v.8l.2 1 .3 1 .5.7.5.8.7.5.8.5 1 .2h2l1-.2.7-.5.8-.5.7-.8.5-.7.3-1v-2.5" stroke-width="3"/><path d="m530.8 320-1.8-.5h-2l-1.5.8-1.2.7-.8 1.3-.5 1.2v1.5l.3 1.5.2 1.3.5 1.2 1 2.3.8 1.7.2 1.8.3 1.5v7.5l.2 1 .3.7.7 1 .8 1 1 .8 1.2.5 1.5.2 1.5-.2m85-29.3 1.5-.5h2.3l1.7.8 1 .7.8 1.3.5 1.2v1.5l-.3 1.5-.2 1.3-.5 1.2-1 2.5-.8 2-.2 1.8-.3 1.7v6.8l-.5 1.5-.7 1.5-1 1-1.3.7-1.7.5h-2v-.2" stroke-width="7"/><path d="m564.5 368.5 2.5.8 2.8.7 3 .3h5.7l2.8-.5 2.7-.5 2-.8" stroke-width="6"/><path d="m562 385.8-3.7-1.8-3.5-2.2-3.3-2.8-3.2-3-2.3-2.7-2.2-3-2.3-3-2-3.3-1.7-3.5-1.5-3.7-1.3-4-1.2-4-1-4.5-.8-5-.5-4.8-.2-5v-9.5l.2-5.7m57 71-1.7.7-1.8.5-3 .5-3.5.3h-10.2l-3-.5-1.5-.3-1.8-.7" stroke-width="12"/><path d="m576.8 355.8 1.2-.3.8-.7 1-.3h1.5l1.5.5 1.5.3.7-.3.5-.5.5-.5.3-1.2v-1.5l-.8-1-.7-.8-.8-1.2m-7.2 7.5-.3.2zm-7.5-29.5.7 1 .5 1 .8 2.2.5 2.5v5.8l-.5 2.7-.5 2.5-.5 2.3-.8 2-1 1.2-.7.8-.5 1-.3.7v.8l.5 1 .3.7.5.5.7.3 1.5-.3 1.8-.5h1.2l1 .5.8.5.5.3h1" stroke-width="6"/><path d="m556.8 324.3v.7l-.5.5-.5.3-.8.2-.7-.2-.5-.3-.3-.5-.2-.7.2-.5.3-.5.5-.3.7-.2.8.2.5.3.5.5zm41.2 0v.7l-.5.5-.5.3-.7.2-.8-.2-.5-.3-.5-.5v-1.2l.5-.5.5-.5h1.5l.5.5.5.5z" stroke-width="3"/><path d="m566.5 318.5-1-1.7-1.5-1.3-2-1-2-.7-2.2-.5-2-.5h-2l-1.8.2-2.7.5-2.3.8-2.5 1.2-2.7 2m42 0 1.2-1.7 1.5-1.3 1.8-1 2.2-.7 2-.5 2.3-.3 2-.2 1.7.2 2.8.5 2.2.8 2.3 1.2 2.7 2" stroke-width="6"/><path d="m619.8 325.8 1.5-6.8 1.7-7.7.5-3.3.3-2.5-.8-3.5-.5-3.5-1-3.5-1-3.2-1.2-3.3-1.3-3-1.5-3-1.7-2.7-2.5-3.8-3-3.5-3.3-3.2-3.2-2.5-3.8-2.3-3.7-2-4-1.2-4.3-.8-5.7-.5h-10.8l-4.7.8-4.5.7-4.5 1.3-4 1.7-3.8 2-1 .5-2.5 1.8-.7.5-2.3 1.7-3 3-3.5 4.3-1.7 2.5-1.8 2.7-1.5 3-1.5 3.3-1.2 3.5-.8 3.7-.7 4-.3 4.3.5 14.2" stroke-width="12"/><path d="m508 513.3-.5-2.8-.7-2.2-.8-1.5-.7-1-.8-.5-1-.3-1 .5-1.2.8-1 1.2-1.3 1.5-2.2 4-2.5 5.3-2.3 6.2" stroke-width="18"/><path d="m442 524.5 2.5-7.2 2.8-7.8 6.2-15.7 6.8-16.3 7-16 8-17.2 7.5-15.5 6.7-13.3 5.5-10 2-3.2 2.3-3 2.7-2.8 2.8-2.7 3-2.3 3-2.2 3.2-1.8 3.3-1.7 5.5-2.8 5.7-2 5-1.7 4.8-1.3 4-.7 3.2-.8 2.5-.2m122.8-44.3-20 20-22 22-7.3 7.3-28.7 29.2-14 14.5-13.3 14.3-12.2 13-10.5 11.5-8.5 10-3.3 4-2.5 3.5-6.5 9-2.5 4-2.2 3.5-2 3.5-1.8 4-1.2 4-1.3 5-1 6.2m14 6 2.5-5.2 2.5-5 2.5-4.8 2.5-4.2 2.8-4.3 2.7-3.5 2.8-3.5 3-3 37.7-38.7 59.5-61.3 33.3-34.5" stroke-width="14"/><path d="m638 526.5v-3.5l.8-3 .7-2.7 1-4 .5-2.8.5-2.2.8-1.5 1-1.3.7-.5 1-.2h1.3l1 .7 1.2 1 1 1.3 1.3 1.7 1 2 1.2 2.5 1 2.5 2 6" stroke-width="18"/><path d="m621.5 381.3-6.7-2.3-6-1.5-4.8-1-3-.5-1-.2m98.8 138-5.3-15.3-6-15.5-6.2-16-6.5-15.2-6-14.5-6-12.8-5-10.7-4.3-8.3-2.2-3.5-2.8-3.2-2.7-3-3.3-2.8m-18.7-44.7h5.7l7.8.5 7.7.7 3 .5 2.3.3m-183 115.7v-71.7l.2-2.5.5-2.3.5-2.5 1.5-4.7 2-4.5 2.5-4.3 3-4 3.3-3.7 3.7-3.3 4-3.2 4.3-2.8 4.5-2.5 4.7-2 4.8-1.5 5-1.2 5-.8 5.2-.2" stroke-width="14"/><path d="m676 358.5 25.3 149.3-.3 3.2-.7 3.3-1 2-1 2-1.3 2-1.5 1.7-1.5 1.3-1.5 1.2-1.7 1-1.8.8-2 .7-1.7.5-2 .3-2.3.2h-515.2l-2-.2-2.3-.3-2-.7-2-.8-1.7-.7-1.8-1.3-1.5-1.2-1.5-1.5-2.2-2.8-1.5-3-.8-1.7-.5-2-.2-2v-2l24.7-146.5 5.3-31 11.7-69.8v-2l.5-2 .5-2 .5-1.7 1-1.8 1-1.7 1.3-1.5 1.2-1.5 1.5-1.3 1.5-1.2 1.5-1 1.8-.8 2-.7 2-.5 2-.3 2-.2h431.5l2 .2 2 .3 2 .5 1.7.7 1.8.8 1.7 1 1.5 1.2 1.5 1.3 1.3 1.5 1.2 1.5 1 1.7.8 1.8.7 1.7.5 2 .3 2 .2 2 12 71.5z" stroke-width="14"/><path d="m115.8 523.3 51-328 .2-2 .3-2 .5-2 .7-1.8 1-1.7 1-1.8 1.3-1.5 1.5-1.5 1.5-1.2 1.7-1.3 1.8-1 2-.7 2-.8 2-.5 2.2-.2 2.3-.3h469.5l2.2.3 2 .2 2.3.5 2 .8 2 .7 1.7 1 1.8 1.3 1.5 1.2 1.5 1.5 1.2 1.5 1 1.8 1 1.7.8 1.8.5 2 .2 2 .3 2 51.7 328" stroke-width="14"/><path d="m331.5 521v1l.3-1v-1zm-9.5-32 2 3.5 2 3.8 1.5 3.7 1.5 4 1 4 .8 4.3.5 4.2.2 4.5m-23.5-47 1.8 1.3m-9.8-6.5.5.2m-56.7-1.7 3-1.3 3.2-1.2 3.3-1 3.2-.8 3.3-.7 3.5-.5 3.5-.3 3.7-.2 5.5.2 5.3.8 5.2 1.2 5 1.5m-56.2 7.3.5-.5m-9.3 7.7 1.8-1.5m-19 43 .2-3.5.3-3.5.5-3.5.7-3.2.8-3.3 1.2-3.2 1-3 1.5-3m-6.2 26.2v-1 1.8z" stroke-width="12"/><path d="m151.3 520.3-.3 1-9.5 27.5-40.5 120.2-1.2 4m598-150.7 9 26.5 42.5 126.2m-612.8-126.2h576.3" stroke-width="14"/><path d="m235.3 472.3 4 6 .2.7.5 1v1.8l-.2.7-.5 1-.5.5-.8.8-1.2.5-1.3.2-1-.2-1.2-.5-1-.8-.8-1-3.2-5-6.3-9.5-.2-.7-.3-1-.2-1 .2-.8.3-1 .2-.7.5-.8.8-.5 2.5-.7 1.2.2 1 .5 1 .8.8.7zm8.5-5 3.2 5 .3 1 .2.7.3 1-.3 1-.2.8-.3.7-.5.8-.7.5-2.5.7h-1.3l-1-.5-1-.7-.7-1-3.5-5.5-6-9-.3-1-.5-.8v-2l.3-.7.5-.8.5-.7.7-.5 1.3-.5 1.2-.3 1 .3 1.3.2 1 .8.7 1zm-29 10.7-.5-1-.5-.7-.3-1v-1.8l.3-1 .5-.7.5-.8.7-.5 1-.5 1.3-.2 1.2.2 1 .5 1 .5.8 1 4.7 7.5 4.8 7.3.5.7.2 1v1.8l-.2.7-.5 1-.5.5-.8.8-1.2.5h-2.3l-1-.5" stroke-width="7"/><path d="m225.5 493.3.8 1.2.2.8.5 1v1.7l-.2.8-.5.7-.5.8-.8.7-1.2.5h-2.3l-1.2-.5-1-.7-.8-1-3-4.5-6.5-10-.2-.8-.3-1-.2-1 .2-.7.3-1 .2-.8.5-.7.8-.5 1.2-.5 1.3-.3 1 .3 1 .2 1.2.8.8 1 4 6.2zm75-24.3-3 4.5-.5 1-.2.8v1.7l.2 1 .5.8.5.7.8.5 1.2.5 1 .3 1.3-.3 1-.2 1-.8 1-1 2.7-4.5 2.3-3.5 4.2-6.5.5-1 .3-.7v-2l-.3-.8-.5-.7-.5-.8-.7-.5-1-.7h-2.5l-1 .5-1 .7-1 1-2.5 4zm-9-4-1.7 2.8-.5.7-.3 1v1.8l.3.7.5 1 .5.5.7.8 1.3.5 1 .2 1.2-.2 1.3-.5 1-.8.7-1 2.5-3.7 3.8-6 3-4.8.5-.7.2-1v-1.8l-.2-1-.3-.7-.7-.8-.8-.5-1-.5-1.2-.2-1.3.2-1 .5-1 .8-.7.7-1.8 2.5zm30.3 8.5.7-1 .5-1 .3-1v-1.7l-.3-.8-.5-.7-.5-.8-.7-.7-1.3-.5h-2.2l-1.3.5-1 .7-.7 1-3 4.8-2 3-4.3 6.7-.5.8-.2 1-.3 1 .3.7.2 1 .3.8.7.7.8.5 1 .5 1.2.3 1-.3 1.3-.2" stroke-width="7"/><path d="m311.3 488.8-.8 1-.5.7-.2 1v1.8l.2 1 .5.7.5.8.8.5 1.2.5 1 .2 1.3-.2 1-.5 1-.5 1-1 3.5-5.8h.2l5.5-9 .5-.7.3-1v-1.8l-.3-.7-.5-1-.5-.5-.7-.8-1-.5h-2.5l-1 .5-1 .8-.8 1-3 4.5-1 1.5z" stroke-width="7"/><path d="m592 285.8-10 2.2-10.2 2.3-9.8 2.7-4.2 1.3-3.8 1.2-1.7.8-1.8 1-1.7 1.2-1.5 1.3-2.8 2.7-2.5 3-2 3.5-1.7 3.8-1.5 3.7-1.3 3.8-1 3.7-1 3.5-1 6-.5 4.3v1.5m81.3-57.8-6.3 1.3-15 3" stroke-width="12"/><path d="m591.8 285.5.2.3 1.8.7 2.5 1.8 3.5 2.5 4 3.7 2 2 2.2 2.5 2 2.8 1.8 3 1.7 3.2 1.5 3.5 1.5 3.8 1 4.2.5 2.5.5 3.5.3 3.8m-92.8 7-2.2 12.2-6.5 37.3-.5 1.7m103.5-47.2 1.5 6 .5 2.2 5.2 23" stroke-width="12"/></g></svg>