<svg height="850.394" viewBox="0 0 850.394 850.394" width="850.394" xmlns="http://www.w3.org/2000/svg"><path d="m472.5 481.14a2830.95 2830.95 0 0 1 -46.72 3.271c-14.71.899-29.37 1.66-43.68 2.229-91.9 3.67-171.17 53.091-217.54 79.221-7.67 4.33-14.44 8.01-20.22 10.75-40.7 19.279-42.84-12.851-42.84-12.851l-3.17-159.58c-.03-1.61-.05-3.21-.05-4.82 0-115.94 83.54-213.6 197.32-243.09a87.3 87.3 0 0 1 3.09-.78c22.01-5.45 45.12-8.35 68.95-8.35 5.94 0 11.83.18 17.67.54 133.14 8.07 239.92 106.71 250.78 230.79 0 0 9.57 71.669-.25 83.959-.75.94-1.609 1.53-2.59 1.721-12.4 2.39-82.4 10.87-160.75 16.99z" fill="#9c5c25"/><path d="m749.29 496.31c20.21 8.58 6 31.58-48.06 37.391-54.06 5.799-228.63-51.341-228.63-51.341l-.1-1.221c78.35-6.12 148.35-14.6 160.75-16.989.98-.19 1.84-.78 2.59-1.721l.41.351s85.73 21.92 113.04 33.53z" fill="#9c5c25"/><path d="m298.69 155.49c-1.03.24-2.06.5-3.09.78-.69-2.64-1.06-5.39-1.06-8.2 0-21.07 20.32-38.15 45.39-38.15 24.9 0 45.13 16.87 45.38 37.76-5.84-.36-11.73-.54-17.67-.54-23.83 0-46.94 2.9-68.95 8.35z" fill="#231f20"/><g fill="none"><g stroke="#231f20" stroke-width="21"><path d="m635.84 462.43c9.82-12.29.25-83.959.25-83.959-10.86-124.081-117.64-222.721-250.78-230.791-5.84-.36-11.73-.54-17.67-.54-23.83 0-46.94 2.9-68.95 8.35-1.03.24-2.06.5-3.09.78-113.78 29.49-197.32 127.15-197.32 243.09 0 1.61.02 3.21.05 4.82l3.17 159.58s2.14 32.13 42.84 12.851c5.78-2.74 12.55-6.42 20.22-10.75 46.37-26.13 125.64-75.551 217.54-79.221 14.31-.569 28.97-1.33 43.68-2.229 15.65-.96 31.34-2.07 46.72-3.271 78.35-6.12 148.35-14.6 160.75-16.989.98-.191 1.84-.781 2.59-1.721z"/><path d="m295.69 156.63-.09-.36c-.69-2.64-1.06-5.39-1.06-8.2 0-21.07 20.32-38.15 45.39-38.15 24.9 0 45.13 16.87 45.38 37.76v.39c0 1.09-.05 2.16-.15 3.22m87.44 331.07s174.57 57.14 228.631 51.34c54.06-5.811 68.27-28.811 48.06-37.391-27.311-11.609-113.041-33.529-113.041-33.529m-471.63 103.18 235.68 45.73m25.7-123.69-25.7 123.69v131.73"/><path d="m299.63 154.63s-.33.28-.94.86c-7.35 6.82-55.93 54.66-75 142.66-13.85 63.89 0 228.12 0 228.12m158.77-376.99s43.51 47.12 64.17 142.44c13.851 63.9 21.15 182.07 21.15 182.07"/></g><path d="m0 0h850.394v850.394h-850.394z"/></g></svg>