<svg height="850" viewBox="0 0 850 850" width="850" xmlns="http://www.w3.org/2000/svg"><path d="m460.8 204.8-.3 6-.2 5.7-.8 6-.7 5.8-1.3 5.5-1.2 5.7-1.5 5.5-2 5.3-2 5.2-2.3 5.3-2.2 5-2.8 5-2.7 4.7-3 4.8-3.3 4.5-3.5 4.5-15.7-21 .2-.3 2.3-3.2 2-3.5 2-3.5 2-3.8 1.7-3.7 1.5-3.8 1.5-3.7 1.3-4 1.2-3.8 1-4.2 1-4 .5-4.3.8-4 .2-4.2.3-4.3.2-4.5-.2-5.5-.3-5.7-.7-5.3-1-5.5-1.3-5.2-1.5-5.3-1.7-5-2-5-2-5-2.5-4.7-2.8-4.5-2.7-4.5-3-4.3-3.3-4-3.5-4-3.7-4-3.8-3.5-4-3.5-4-3.2-4.2-3-4.5-2.8-4.5-2.7-4.8-2.5-5-2-5-2-5-1.8-5.2-1.5-5.3-1.2-5.5-1-5.2-.8-5.8-.2-5.5-.3-5.7.3-5.5.2-5.5.8-5.5 1-5.3 1.2-5.2 1.5-5 1.8-5 2-4.8 2-4.7 2.5-4.5 2.7-4.5 2.8-4.3 3-4.2 3.2-4 3.5-3.8 3.5-3.7 4-3.3 4-3.2 4-3 4.3-3 4.5-2.5 4.5-2.5 4.7-2.3 5-2 5-1.7 5-1.3 5.3-1.2 5.2-1 5.5-.8 5.3-.5 5.7v11.3l.5 5.5.8 5.5 1 5.5 1.2 5.2 1.3 5 1.7 5.3 2 5 2.3 4.7 2.5 4.8 2.5 4.5 3 4.5 3 4.2 3.2 4.3 3.3 4 3.7 3.7 3.8 3.5 4 3.5 4.2 3.3 4.3 3 4.5 3 4.5 2.5 4.7 2.5 4.8 2.2 5 2 5 1.8 5.2 1.2 5.3 1.3 5.5 1 5.5.7 5.5.5h10.7l5.3-.5 5-.5 5-.7 4.7-1 4.8-1.3 4.7-1.5 4.8-1.7 13 22.7-1.3.8-6.2 2.5-6 1.7-6 1.5-6.3 1.3-6.2.7-6.5.5-6.8.3h-14l-6.7-.5-6.8-1-6.7-1-6.5-1.8-6.5-1.7-6.3-2-6-2.5-6-2.8-5.7-3-5.8-3.2-5.5-3.5-5.2-3.8-5.3-4-4.7-4.2-4.8-4.5-4.5-4.8-4.2-4.7-4-5.3-3.8-5.2-3.5-5.5-3.2-5.5-3-6-2.8-6-2.5-6-2-6.3-1.7-6.5-1.5-6.5-1.3-6.7-1-6.8-.5-6.7v-14l.5-6.8 1-7 1.3-6.5 1.5-6.5 1.7-6.5 2-6.2 2.5-6.3 2.8-6 3-5.7 3.2-5.8 3.5-5.5 3.8-5.2 4-5 4.2-5 4.5-4.8 4.8-4.2 4.7-4.3 5.3-4 5.2-4 5.5-3.5 5.8-3.2 5.7-3 6-2.5 6-2.5 6.3-2.3 6.5-1.7 6.5-1.5 6.7-1.3 6.8-.7 6.7-.5 7-.3 7 .3 7 .5 6.8.7 6.5 1.3 6.5 1.5 6.5 1.7 6.2 2.3 6.3 2.5 6 2.5 5.7 3 5.8 3.2 5.5 3.5 5.2 4 5 4 5 4.3 4.8 4.2 4.5 4.8 4.2 5 4 5 3.8 5.2 3.5 5.5 3.2 5.8 3 5.7 2.5 6 2.5 6.3 2.3 6.2 1.7 6.5 1.5 6.5 1.3 6.5.7 7 .5 6.8z" fill="#ffffc2"/><path d="m431 289.3 85.8 114.2 3.7 7.3 4.3 7.7 5.5 9.5 6.7 10.8 3.5 5.5 3.8 5.5 4 5.2 4.2 5.3 4.3 5 4.2 4.5 3 3 3.8 3.2 8.5 6.5 9.5 7.5 4.7 4 5 4.3 4.8 4.5 4.5 5 4.2 5.2 4 5.8 1.8 2.7 1.7 3.3 1.5 3.2 1.5 3.3 1.3 3.5 1.2 3.5 1 3.7.8 3.8 1.2 5.7 1.3 4.8 1.7 4 1.8 3.2 1 1.3 1.2 1.2 2.5 2.3 3 1.7 3.5 1.8 3.5 2 3 2 2.5 2.7 2 2.8 2 3 1.3 3.5 1.2 3.7.8 3.8.7 4.2.5 4.3.5 9.2.5 20 .3 16.5v11.8l-.3 10.7-264 104.8-6.7-4.8-7.3-5.2-8.5-7-9.2-8-4.5-4.3-4.5-4.5-4-4.5-4-4.5-3.3-4.2-2.7-4.5-5.5-10.5-7-13.3-14.8-29.2-17.7-35.8-8.3-12.5-8.2-13.5-8.3-13.7-8.2-13.8-15.5-26.5-7-12-6.3-10.2-12-19.5-5.7-9.5-5-9.3 2 3 2 2.8 2 2.2 2 2.3 2 1.7 2 1.3 2 1.2 1.7 1 2 .8 2 .5 1.8.2h3.7l1.8-.2 3.2-1 3.3-1.5 3-1.8 3-1.7 2.5-2 4.2-3.8 3-2.5 1.5-1.2 1.3-1.5 1-2 1-2 1.7-4.3 1-4 .3-1.7-.3-2.5-.7-3-1-3.3-1-3.5-1.5-3.5-1.5-3.2-1.5-3 9.5 11.5 11.7 15 27.8 35.2 26.5 34.5 11 14.3 7.7 10.7 2.3 2.8 2.5 2.7 2.5 2.5 2.7 2 2.8 2 3 1.8 3.2 1.5 3.3 1.2 3.5 1 3.7.8 3.8.7 3.7.3 4 .2h4.3l4-.2 4.5-.5 4.2-.5 4.5-.8 4.5-1 4.8-1 9.5-2.7 9.7-3.5 3.5-1.5 3-1.8 3-2.2 2.5-2.3 2.3-2.7 2-3 1.7-3 1.8-3.3 1.2-3.7 1-3.5.8-4 .7-3.8.5-4.2.3-4v-8.8l-.5-8.5-1-8.7-1.3-8.5-1.7-8.3-1.8-7.7-2-7-2-6.5-2-5.5h.3-.3l-1.5-3.8-2.2-5-6.8-13.2-8.7-16.8-10.8-19.5-11.7-21.5-12.8-22.5-25.7-45-13-22.7-18.5-31.3-7-11.5-4.8-7.7-3.5-5.5-2.7-5.3-2.3-5.5-2-5-1-3.7-.7-3.5-.8-3.5-.2-3.5v-6.5l.2-3.3.8-3 .7-3 1-3 1.5-2.7 1.5-2.8 1.8-2.7 2-2.5 2.2-2.3 2.5-2.2 2-1.5 2.3-1 2.2-.5 2-.3 2.3.5 2.2.5 2 1 2.3 1.3 2 1.5 2 1.7 4 3.8 3.5 4 3 4 2.5 3.7 2 3 1.5 3 42 55.8z" fill="#ffeec8"/><path d="m325.5 173-3.5.3-3 .5-3.2.7-3 1-2.8 1.5-2.7 1.5-2.5 2-2.3 2-2.2 2.5-1.8 2.5-1.7 2.5-1.3 3-1 3-1 3-.5 3.3v6.5l.3 3.2.7 2.8.8 2.7 1 2.5 1 2.5 1.5 2 1.5 2 1.7 2 2 1.8 2 1.5 2.3 1.2 2.5 1.3 2.5 1.2 2.7 1 3 .8h-.2.5-.3l5.5-1.3 2 5 2.3 5.5 2.7 5.3 3.5 5.5 4.8 7.7 7 11.5 18.5 31.3-4.8 1.7-4.7 1.5-4.8 1.3-4.7 1-5 .7-5 .5-5.3.5h-10.7l-5.5-.5-5.5-.7-5.5-1-5.3-1.3-5.2-1.2-5-1.8-5-2-4.8-2.2-4.7-2.5-4.5-2.5-4.5-3-4.3-3-4.2-3.3-4-3.5-3.8-3.5-3.7-3.7-3.3-4-3.2-4.3-3-4.2-3-4.5-2.5-4.5-2.5-4.8-2.3-4.7-2-5-1.7-5.3-1.3-5-1.2-5.2-1-5.5-.8-5.5-.5-5.5v-11.3l.5-5.7.8-5.3 1-5.5 1.2-5.2 1.3-5.3 1.7-5 2-5 2.3-5 2.5-4.7 2.5-4.5 3-4.5 3-4.3 3.2-4 3.3-4 3.7-4 3.8-3.5 4-3.5 4.2-3.2 4.3-3 4.5-2.8 4.5-2.7 4.7-2.5 4.8-2 5-2 5-1.8 5.2-1.5 5.3-1.2 5.5-1 5.5-.8 5.5-.2 5.7-.3 5.5.3 5.8.2 5.2.8 5.5 1 5.3 1.2 5.2 1.5 5 1.8 5 2 5 2 4.8 2.5 4.5 2.7 4.5 2.8 4.2 3 4 3.2 4 3.5 3.8 3.5 3.7 4 3.5 4 3.3 4 3 4.3 2.7 4.5 2.8 4.5 2.5 4.7 2 5 2 5 1.7 5 1.5 5.3 1.3 5.2 1 5.5.7 5.3.3 5.7.2 5.5-.2 4.5-.3 4.3-.2 4.2-.8 4-.5 4.3-1 4-1 4.2-1.2 3.8-1.3 4-1.5 3.7-1.5 3.8-1.7 3.7-2 3.8-2 3.5-2 3.5-2.3 3.2-.2.3-42-55.8-1.5-3-2-3-2.5-3.7-3-4-3.5-4-4-3.8-2-1.7-2-1.5-2-2.5-2-2.3-2.3-2.2-2.5-2-2.7-1.8-3-1.2-3-1.3-3.3-.7-3.2-.5z" fill="#ffffc2"/><path d="m352.8 187.8-2.3-1.3-2-1-2.2-.5-2.3-.5-2 .3-2.2.5-2.3 1-2 1.5-2.5 2.2-2.2 2.3-2 2.5-1.8 2.7-1.5 2.8-1.5 2.7-1 3-.7 3-.8 3-.2 3.3v6.5l.2 3.5.8 3.5.7 3.5 1 3.7-5.5 1.3-3-.8-2.7-1-2.5-1.2-2.5-1.3-2.3-1.2-2-1.5-2-1.8-1.7-2-1.5-2-1.5-2-1-2.5-1-2.5-.8-2.7-.7-2.8-.3-3.2v-6.5l.5-3.3 1-3 1-3 1.3-3 1.7-2.5 1.8-2.5 2.2-2.5 2.3-2 2.5-2 2.7-1.5 2.8-1.5 3-1 3.2-.7 3-.5 3.5-.3 3.3.3 3.2.5 3.3.7 3 1.3 3 1.2 2.7 1.8 2.5 2 2.3 2.2 2 2.3z" fill="#231f20"/><path d="m318.5 237.3h.3-.5zm-57.7 222.5 1.5 3 1.5 3.2 1.5 3.5 1 3.5 1 3.3.7 3 .3 2.5-.3 1.7-1 4-1.7 4.3-1 2-1 2-1.3 1.5-1.5 1.2-3 2.5-4.2 3.8-2.5 2-3 1.7-3 1.8-3.3 1.5-3.2 1-1.8.2h-3.7l-1.8-.2-2-.5-2-.8-1.7-1-2-1.2-2-1.3-2-1.7-2-2.3-2-2.2-2-2.8-2-3-4.5-8-3.8-7.5-3.2-6.7-2.3-5.8-.7-2.2-.5-2.3-.3-2.2.3-2 .2-2.3.5-2 .8-2 1-2 1-1.7 1.5-1.8 1.5-1.7 1.5-1.5 2-1.5 1.7-1.3 2.3-1 2-1 2.5-1 2.2-.5 2.5-.5 2.8-.2h2.5l2.7.2 2.8.5 3 .5 2.7 1 2.8 1 3 1.5 2.7 1.8 3 2 2.8 2.5 2.7 2.5 2.8 3zm197.2 18 2 5.5 2 6.5 2 7 1.8 7.7 1.7 8.3 1.3 8.5 1 8.7.5 8.5v8.8l-.3 4-.5 4.2-.7 3.8-.8 4-1 3.5-1.2 3.7-1.8 3.3-1.7 3-2 3-2.3 2.7-2.5 2.3-3 2.2-3 1.8-3.5 1.5-9.7 3.5-9.5 2.7-4.8 1-4.5 1-4.5.8-4.2.5-4.5.5-4 .2h-4.3l-4-.2-3.7-.3-3.8-.7-3.7-.8-3.5-1v-.2l-1.5-4.8-1.3-5-1.2-5.7-.8-6-.5-6.3-.5-6.5v-13.2l.3-6.5.7-6.8.8-6.2 1-6.3 1.2-5.7 1.5-5.5 1.8-5.3 2-4.5 1.5-2.2 1.5-2 1.5-1.8 1.7-1.5 1.8-1.2 2-1 2-.8 2.2-.7 4.5-1.3 4.5-1 5-1.2 5-1.5 6-2 6.5-1.8 7.3-1.5 6.7-1.2 11.8-1.8z" fill="#ffeec8"/><g fill="none" stroke="#231f20" stroke-linecap="round" stroke-miterlimit="10"><path d="m458 477.8 2 5.5 2 6.5 2 7 1.8 7.7 1.7 8.3 1.3 8.5 1 8.7.5 8.5v8.8l-.3 4-.5 4.2-.7 3.8-.8 4-1 3.5-1.2 3.7-1.8 3.3-1.7 3-2 3-2.3 2.7-2.5 2.3-3 2.2-3 1.8-3.5 1.5-9.7 3.5-9.5 2.7-4.8 1-4.5 1-4.5.8-4.2.5-4.5.5-4 .2h-4.3l-4-.2-3.7-.3-3.8-.7-3.7-.8-3.5-1-3.3-1.2-3.2-1.5-3-1.8-2.8-2-2.7-2-2.5-2.5-2.5-2.7-2.3-2.8-7.7-10.7-11-14.3-26.5-34.5-27.8-35.2-11.7-15-9.5-11.5-5-6-2.8-3-2.7-2.5-2.8-2.5-3-2-2.7-1.8-3-1.5-2.8-1-2.7-1-3-.5-2.8-.5-2.7-.2h-2.5l-2.8.2-2.5.5-2.2.5-2.5 1-2 1-2.3 1-1.7 1.3-2 1.5-1.5 1.5-1.5 1.7-1.5 1.8-1 1.7-1 2-.8 2-.5 2-.2 2.3-.3 2 .3 2.2.5 2.3.7 2.2 2.3 5.8 3.2 6.7 3.8 7.5 4.5 8 5 9.3 5.7 9.5 12 19.5 6.3 10.2 7 12 15.5 26.5 8.2 13.8 8.3 13.7 8.2 13.5 8.3 12.5 17.7 35.8 14.8 29.2 7 13.3 5.5 10.5 2.7 4.5 3.3 4.2 4 4.5 4 4.5 4.5 4.5 4.5 4.3 9.2 8 8.5 7 7.3 5.2 6.7 4.8m264-104.5v-.3l.3-10.7v-11.8l-.3-16.5-.5-20-.5-9.2-.5-4.3-.7-4.2-.8-3.8-1.2-3.7-1.3-3.5-2-3-2-2.8-2.5-2.7-3-2-3.5-2-3.5-1.8-3-1.7-2.5-2.3-1.2-1.2-1-1.3-1.8-3.2-1.7-4-1.3-4.8-1.2-5.7-.8-3.8-1-3.7-1.2-3.5-1.3-3.5-1.5-3.3-1.5-3.2-1.7-3.3-1.8-2.7-4-5.8-4.2-5.2-4.5-5-4.8-4.5-5-4.3-4.7-4-9.5-7.5-8.5-6.5-3.8-3.2-3-3-4.2-4.5-4.3-5-4.2-5.3-4-5.2-3.8-5.5-3.5-5.5-6.7-10.8-5.5-9.5-4.3-7.7-3.7-7.3-85.8-114.2-15.7-21-42-55.8-1.5-3-2-3-2.5-3.7-3-4-3.5-4-4-3.8-2-1.7-2-1.5-2.3-1.3-2-1-2.2-.5-2.3-.5-2 .3-2.2.5-2.3 1-2 1.5-2.5 2.2-2.2 2.3-2 2.5-1.8 2.7-1.5 2.8-1.5 2.7-1 3-.7 3-.8 3-.2 3.3v6.5l.2 3.5.8 3.5.7 3.5 1 3.7 2 5 2.3 5.5 2.7 5.3 3.5 5.5 4.8 7.7 7 11.5 18.5 31.3 13 22.7 25.7 45 12.8 22.5 11.7 21.5 10.8 19.5 8.7 16.8 6.8 13.2 2.2 5 1.5 3.8" stroke-width="21"/><path d="m458 477.8h.3-.3l-5.7.7-11.8 1.8-6.7 1.2-7.3 1.5-6.5 1.8-6 2-5 1.5-5 1.2-4.5 1-4.5 1.3-2.2.7-2 .8-2 1-1.8 1.2-1.7 1.5-1.5 1.8-1.5 2-1.5 2.2-2 4.5-1.8 5.3-1.5 5.5-1.2 5.7-1 6.3-.8 6.2-.7 6.8-.3 6.5v13.2l.5 6.5.5 6.3.8 6 1.2 5.7 1.3 5 1.5 4.8" stroke-width="21"/><path d="m408.3 538.5 2.5-.7 2.7-.5 2.3-.3 2.5.3 2.2.2 2.3.5 2.2 1 2 1 2 1.3 2 1.5 1.8 1.5 1.7 1.7 3.3 3.8 2.7 4.2 2.5 4.5 2 4.8 1.8 4.7 1 4.8.5 4.2.2 4-.5 3.8-.2 1.5-.8 1.5m-191.2-134 1.2.7 1.3 1.3 1.2 1.7 1.3 2.3 1.5 3 1.5 3.2 1.5 3.5 1 3.5 1 3.3.7 3 .3 2.5-.3 1.7-1 4-1.7 4.3-1 2-1 2-1.3 1.5-1.5 1.2-3 2.5-4.2 3.8-2.5 2-3 1.7-3 1.8-3.3 1.5-3.2 1-1.8.2h-3.7l-1.8-.2-2-.5-2-.8-1.7-1-2-1.2-2-1.3-2-1.7-2-2.3-2-2.2-2-2.8-2-3" stroke-width="21"/><path d="m318.5 237.3-3-.8-2.7-1-2.5-1.2-2.5-1.3-2.3-1.2-2-1.5-2-1.8-1.7-2-1.5-2-1.5-2-1-2.5-1-2.5-.8-2.7-.7-2.8-.3-3.2v-6.5l.5-3.3 1-3 1-3 1.3-3 1.7-2.5 1.8-2.5 2.2-2.5 2.3-2 2.5-2 2.7-1.5 2.8-1.5 3-1 3.2-.7 3-.5 3.5-.3 3.3.3 3.2.5 3.3.7 3 1.3 3 1.2 2.7 1.8 2.5 2 2.3 2.2m-30.3 54.3h-.2.5zm30.3-54.3 2 2.3 2 2.5 1.7 3.5" stroke-width="27.25"/><path d="m367 306.8-2.2 1-4.8 1.7-4.7 1.5-4.8 1.3-4.7 1-5 .7-5 .5-5.3.5h-10.7l-5.5-.5-5.5-.7-5.5-1-5.3-1.3-5.2-1.2-5-1.8-5-2-4.8-2.2-4.7-2.5-4.5-2.5-4.5-3-4.3-3-4.2-3.3-4-3.5-3.8-3.5-3.7-3.7-3.3-4-3.2-4.3-3-4.2-3-4.5-2.5-4.5-2.5-4.8-2.3-4.7-2-5-1.7-5.3-1.3-5-1.2-5.2-1-5.5-.8-5.5-.5-5.5v-11.3l.5-5.7.8-5.3 1-5.5 1.2-5.2 1.3-5.3 1.7-5 2-5 2.3-5 2.5-4.7 2.5-4.5 3-4.5 3-4.3 3.2-4 3.3-4 3.7-4 3.8-3.5 4-3.5 4.2-3.2 4.3-3 4.5-2.8 4.5-2.7 4.7-2.5 4.8-2 5-2 5-1.8 5.2-1.5 5.3-1.2 5.5-1 5.5-.8 5.5-.2 5.7-.3 5.5.3 5.8.2 5.2.8 5.5 1 5.3 1.2 5.2 1.5 5 1.8 5 2 5 2 4.8 2.5 4.5 2.7 4.5 2.8 4.2 3 4 3.2 4 3.5 3.8 3.5 3.7 4 3.5 4 3.3 4 3 4.3 2.7 4.5 2.8 4.5 2.5 4.7 2 5 2 5 1.7 5 1.5 5.3 1.3 5.2 1 5.5.7 5.3.3 5.7.2 5.5-.2 4.5-.3 4.3-.2 4.2-.8 4-.5 4.3-1 4-1 4.2-1.2 3.8-1.3 4-1.5 3.7-1.5 3.8-1.7 3.7-2 3.8-2 3.5-2 3.5-2.3 3.2" stroke-width="14"/><path d="m376.5 331.3-6.2 2.5-6 1.7-6 1.5-6.3 1.3-6.2.7-6.5.5-6.8.3h-14l-6.7-.5-6.8-1-6.7-1-6.5-1.8-6.5-1.7-6.3-2-6-2.5-6-2.8-5.7-3-5.8-3.2-5.5-3.5-5.2-3.8-5.3-4-4.7-4.2-4.8-4.5-4.5-4.8-4.2-4.7-4-5.3-3.8-5.2-3.5-5.5-3.2-5.5-3-6-2.8-6-2.5-6-2-6.3-1.7-6.5-1.5-6.5-1.3-6.7-1-6.8-.5-6.7v-14l.5-6.8 1-7 1.3-6.5 1.5-6.5 1.7-6.5 2-6.2 2.5-6.3 2.8-6 3-5.7 3.2-5.8 3.5-5.5 3.8-5.2 4-5 4.2-5 4.5-4.8 4.8-4.2 4.7-4.3 5.3-4 5.2-4 5.5-3.5 5.8-3.2 5.7-3 6-2.5 6-2.5 6.3-2.3 6.5-1.7 6.5-1.5 6.7-1.3 6.8-.7 6.7-.5 7-.3 7 .3 7 .5 6.8.7 6.5 1.3 6.5 1.5 6.5 1.7 6.2 2.3 6.3 2.5 6 2.5 5.7 3 5.8 3.2 5.5 3.5 5.2 4 5 4 5 4.3 4.8 4.2 4.5 4.8 4.2 5 4 5 3.8 5.2 3.5 5.5 3.2 5.8 3 5.7 2.5 6 2.5 6.3 2.3 6.2 1.7 6.5 1.5 6.5 1.3 6.5.7 7 .5 6.8.3 7-.3 6-.2 5.7-.8 6-.7 5.8-1.3 5.5-1.2 5.7-1.5 5.5-2 5.3-2 5.2-2.3 5.3-2.2 5-2.8 5-2.7 4.7-3 4.8-3.3 4.5-3.5 4.5-.7 1" stroke-width="21"/></g></svg>