<svg height="850" viewBox="0 0 850 850" width="850" xmlns="http://www.w3.org/2000/svg"><path d="m461.6 355.9 3.7 3 9.8 8.5 13.2 12 7.3 7 7.5 7.5 7.2 7.5 6.8 7.5 6.2 7.2 2.5 3.8 2.5 3.5 2 3.2 1.5 3 1.3 3 1 2.8.2 2.5v2.2l-.2 1.3-.5.7-.5 1-.8.8-3.5 3-4 2.7-4.5 2.8-5 2.7-5.7 2.5-6 2.3-6.3 2.2-7 2.3-14.2 4.2-15.5 4-16.3 3.8-16.2 3.7-8.3 1.8-8 1.5-7.5 1.2-7.7.8-7.3.7-7.5.3-7-.3-7.2-.7-7-1.3-6.8-1.7-7-2.3-3.5-1.5-3.2-1.5-3.5-1.7-3.5-2-3.3-2-3.5-2.3-7-5-6.7-6-7.3-6.7-8-7.8-8.2-8.5-8.8-9-17.7-19.2-17-19.3-15.3-17.5-12.5-14.5-11.2-13.5-2.5-3.5-2-3.5-1.3-2-1-2.2-.7-2.5-.5-2.3-.3-2.2v-2.3l.8-2.2 1-2 .7-1 .8-.8 1.2-.7 1.3-.8 1.5-.7 2.5-.5 6.5-1.3 8.5-.7 10.2-.8 11.8-.5 12.7-.2 26.5-.5h26l22.3.2 21.2.3h2l5.5.5 8.3 1.2 5 .8 5.5 1.2 6 1.3 6.5 1.7 6.5 2 7 2.5 7 2.8 7.2 3.2 7 3.5 7.3 4.3z" fill="#f6cc4b"/><g fill="none" stroke="#231f20" stroke-linecap="round" stroke-miterlimit="10"><path d="m461.6 355.9 3.7 3 9.8 8.5 13.2 12 7.3 7 7.5 7.5 7.2 7.5 6.8 7.5 6.2 7.2 2.5 3.8 2.5 3.5 2 3.2 1.5 3 1.3 3 1 2.8.2 2.5v2.2l-.2 1.3-.5.7-.5 1-.8.8-3.5 3-4 2.7-4.5 2.8-5 2.7-5.7 2.5-6 2.3-6.3 2.2-7 2.3-14.2 4.2-15.5 4-16.3 3.8-16.2 3.7-8.3 1.8-8 1.5-7.5 1.2-7.7.8-7.3.7-7.5.3-7-.3-7.2-.7-7-1.3-6.8-1.7-7-2.3-3.5-1.5-3.2-1.5-3.5-1.7-3.5-2-3.3-2-3.5-2.3-7-5-6.7-6-7.3-6.7-8-7.8-8.2-8.5-8.8-9-17.7-19.2-17-19.3-15.3-17.5-12.5-14.5-11.2-13.5-2.5-3.5-2-3.5-1.3-2-1-2.2-.7-2.5-.5-2.3-.3-2.2v-2.3l.8-2.2 1-2 .7-1 .8-.8 1.2-.7 1.3-.8 1.5-.7 2.5-.5 6.5-1.3 8.5-.7 10.2-.8 11.8-.5 12.7-.2 26.5-.5h26l22.3.2 21.2.3h2l5.5.5 8.3 1.2 5 .8 5.5 1.2 6 1.3 6.5 1.7 6.5 2 7 2.5 7 2.8 7.2 3.2 7 3.5 7.3 4.3zm-48-42.5 25.7-62.3 22.8-54.2 11.2-26.5 10-23 6-13.8 4.5-10 8-16.5 6.8-13.7 5.2-10.3 4.3-8.2m187.7 93.2-6.7 8.8-7.8 10.5-10.5 14.5-7.2 10.2-7.5 11-10.3 16.3-15.2 24.7-17.5 28.5-35.8 59-40.5 67.8-2.7 5.2-3 6.5-4.3 9.5-5.2 12.5-6.3 16-6.7 19.5-7.8 23.3-9.7 31.2-8.5 28.8-7.5 25.2-6.3 22-8.2 31-3 11.3" stroke-width="28"/><path d="m501.8 107.1 4.5 1.5 13 4.3 9.3 3.5 10.5 4 11.7 4.7 13 5.5 13.8 6.3 14.2 7 15 7.7 7.5 4.3 7.5 4.2 7.8 4.5 7.5 4.8 7.5 5 7.5 5 7.2 5.5 7.5 5.5 7 5.7 7 5.8" stroke-width="45"/><path d="m478.3 145.9 5 1.5 11 3.7 16 5.8 9.8 3.7 10.5 4.5 11.2 4.8 12 5.5 12.3 6 13 6.5 13 7.2 13 7.8 13 8.2 6.5 4.3 6.5 4.5 6.2 4.7 6.3 4.8 6.2 5 6 5 1.5 1.2" stroke-width="21"/><path d="m209.6 348.1-68 215.3m208-77.5-76.3 241.5" stroke-width="28"/><path d="m388.8 782.4 4.5-71.3 6 1.3 64.3 12.2m42.7 2.3 55.3-45.3 38 60.8" stroke-width="21"/><path d="m560.1 691.4v3.2l-.3 3.3-.7 6.5-1.3 6.5-2 6.5-2.2 6.2-3 6.3-3.3 5.7-3.7 5.8-4.3 5.2-4.5 5-4.7 4.5-5.3 4.3-5.5 3.5-6 3.2-3 1.3-3 1.2-3 1.3-3.2.7-4 1-3.8.8-4 .5-4 .2-4 .3h-3.7l-4-.3-3.8-.5-4-.5-3.7-.7-3.8-1-3.7-1.3-3.8-1.2-3.5-1.5-3.7-1.8-3.5-1.7-3.3-2-3.2-2.3-3.3-2.5-3.2-2.5-3-2.5-3-3-2.8-3-2.7-3-2.5-3.5-2.3-3.5-2.5-3.5-2-3.7-2-4-1.7-4-1.8-4.3-1.5-4.2-1.2-4.5" stroke-width="21"/></g></svg>