<svg height="850.394" viewBox="0 0 850.394 850.394" width="850.394" xmlns="http://www.w3.org/2000/svg"><path d="m52.72 204.37c-.143.14-.457.73-.914 1.7l1.2.44s133.678 115.78 147.619 129.28c17.94 17.38 30.891 23.39 30.891 23.39l2.219 2.45 49.87-49.86-2.267-2.5s-6.018-12.95-23.397-30.89c-13.503-13.94-129.288-147.62-129.288-147.62l-.438-1.2c-.857.4-1.409.69-1.628.85l-.009-.01-37.205 36.73-36.662 37.23z" fill="#fff"/><path d="m146.07 122.98c-8.466 2.64-14.922 5.22-17.855 6.58l.438 1.2s115.785 133.68 129.288 147.62c17.379 17.94 23.397 30.89 23.397 30.89l2.267 2.5 7.094-7.1-4.028-4.03s10.551-18.35-1.209-33.43c-11.75-15.09-46.575-54.12-62.868-72.9-19.54-22.49-58.735-65.4-58.735-65.4s-8.276-8.9-17.789-5.93zm-94.264 83.09c-1.362 2.93-3.942 9.37-6.59 17.85-2.961 9.53 5.942 17.79 5.942 17.79s42.899 39.2 65.382 58.73c18.788 16.31 57.802 51.13 72.895 62.89 15.093 11.75 33.434 1.19 33.434 1.19l3.99 3.99 6.875-6.88-2.219-2.45s-12.951-6.01-30.891-23.39c-13.941-13.5-147.619-129.28-147.619-129.28z" fill="#fff"/><path d="m237.658 379.31 63.829-63.85-10.789-10.79-7.094 7.1-49.87 49.86-6.875 6.88z" fill="#fff"/><path d="m334.892 372.81c-1.733 1.73-3.581 2.67-4.152 2.1-.562-.56.381-2.41 2.104-4.14 1.733-1.73 3.59-2.67 4.152-2.11.572.57-.371 2.43-2.104 4.15zm-33.405-57.35-63.83 63.85.581.58-.362.74s11.817 9.98 15.541 22.6c3.723 12.61 12.913 23.64 28.025 20.98s38.452-26.04 38.452-26.04l.267-.33s23.521-23.51 26.187-38.62c2.667-15.13-8.361-24.31-20.978-28.03-11.437-3.38-20.702-13.4-22.34-15.25l-1 .06zm-7.247 97.83c-1.733 1.72-3.59 2.66-4.161 2.1-.562-.57.381-2.42 2.104-4.15 1.724-1.73 3.59-2.68 4.142-2.11.582.57-.37 2.43-2.085 4.16zm1.343-15.46c-.571-.57.372-2.43 2.104-4.15 1.733-1.73 3.581-2.67 4.143-2.1.571.56-.372 2.41-2.104 4.13-1.724 1.74-3.572 2.69-4.143 2.12zm17.636-17.64c-.562-.57.391-2.44 2.114-4.16 1.733-1.72 3.581-2.66 4.142-2.1.571.57-.371 2.42-2.104 4.14-1.714 1.73-3.571 2.69-4.152 2.12zm48.746 159.34c-2.657 3.6-6.99 12.439-3.895 16.689 5.552 7.641 6.352.03 15.074-6.979 5.047-3.83 9.39-10.7 5.371-16.431-3.599-5.109-13.274 2.291-16.55 6.721zm0 41.79c-2.657 3.6-6.99 12.439-3.895 16.689 5.552 7.63 6.352.03 15.074-6.99 5.047-3.829 9.39-10.689 5.371-16.42-3.599-5.109-13.274 2.291-16.55 6.721z" fill="#fff5b4"/><path d="m549.587 717.11c-80.569 0-151.484-25.101-192.745-63.13 17.902 63.189 96.482 110.779 190.717 110.779 91.788 0 168.73-45.149 189.194-105.88-41.89 35.281-110.119 58.231-187.166 58.231z" fill="#abd150"/><path d="m390.009 594.54c-4.143 4.89-6.971 12.59-1.867 17.26 4.562 4.17 12.484-5.24 14.779-10.31 1.847-4.11 4.266-13.74.362-17.19-6.99-6.18-6.199 1.41-13.274 10.24zm20.035 34.47c-4.171 1.24-12.636 5.65-12.551 11.021.162 9.6 5.095 3.96 16.074 3.75 6.228.069 13.607-2.761 13.607-9.86.001-6.351-11.988-6.431-17.13-4.911z" fill="#fff5b4"/><path d="m424.347 542.31c-5.695 4.841-9.904 8.83-7.409 17.25 2.438 8.23 8.941 19.78 18.245 18.221 9.837-1.65 14.569-10.23 23.33-13.34 5.666-2.021 10.779-1.78 12.418-8.71.209-.931 2.304-6.25 2.304-6.25.81-8.33.677-6.9-3.275-12.36-3.428-4.75-9.36-4.75-14.046-7.12-7.142-3.63-9.989-7.68-17.607-2.33-5.542 3.879-8.789 10.239-13.96 14.639z" fill="#9c5c25"/><path d="m425.528 603.84c-4 8.641 2.819 5.97 12.694 11 5.542 3.03 13.331 4 16.397-2.33 2.742-5.67-7.903-11.43-13.15-12.51-4.257-.88-13.713-.97-15.941 3.84zm13.303 35.75c-2.647 3.61-6.98 12.45-3.886 16.7 5.552 7.63 6.352.03 15.064-6.99 5.047-3.83 9.399-10.689 5.391-16.42-3.599-5.11-13.284 2.29-16.569 6.71zm28.063 13.23c-4.161 4.89-6.971 12.59-1.886 17.26 4.571 4.17 12.494-5.25 14.789-10.311 1.856-4.119 4.257-13.739.361-17.189-6.989-6.18-6.208 1.41-13.264 10.24zm25.844-26.43c-8.104 4.46-1.105 6.57 4.018 16.761 2.743 5.89 8.466 11.529 14.503 8.34 5.409-2.86.096-14.13-3.523-18.26-2.933-3.361-10.494-9.331-14.998-6.841zm15.474 43.79c-3.999 8.63 2.818 5.98 12.703 11 5.532 3.021 13.322 4 16.389-2.33 2.742-5.67-7.904-11.43-13.151-12.52-4.248-.87-13.722-.97-15.941 3.85z" fill="#fff5b4"/><path d="m736.753 658.88c27.387-23.04 43.527-51.35 43.527-81.96 0-69.86-84.074-127.78-194.088-138.439.961.59 1.885 1.21 2.771 1.85 5.419 3.93 9.761 9.24 15.084 13.41 6.903 5.41 15.684 6.08 24.082 6.939 11.999 1.21 21.188 2.82 27.073 10.71 62.182 20.74 103.957 59.25 103.957 103.32 0 66.05-93.825 119.59-209.563 119.59-115.736 0-209.563-53.54-209.563-119.59 0-44.66 42.899-83.6 106.462-104.14 5.904-7.051 14.817-8.561 26.292-9.73 8.408-.84 17.188-1.52 24.092-6.93 5.313-4.17 10.428-8.53 15.084-13.41.6-.63 1.229-1.22 1.904-1.77l-2.638-.07c-109.157 11.1-192.327 68.78-192.327 138.26 0 28.47 13.96 54.95 37.938 77.061 41.261 38.029 112.176 63.13 192.745 63.13 77.049-.001 145.278-22.951 187.168-58.231z" fill="#fff"/><path d="m515.782 564.77c-1.552 8.471-1.009 21.87 7.904 25.101 9.398 3.43 17.436-1.78 26.549-.19 5.903 1.03 10.313 3.771 14.864-1.529.609-.71 4.847-4.37 4.847-4.37 4.457-6.94 3.695-5.74 2.667-12.53-.886-5.87-6.114-8.82-9.189-13.23-4.666-6.739-5.343-11.72-14.475-10.779-6.628.68-12.351 4.67-18.883 5.99-7.189 1.447-12.703 2.877-14.284 11.537zm3.429-80.05c-1.543 8.471-1 21.87 7.903 25.11 9.418 3.42 17.445-1.79 26.549-.21 5.913 1.03 10.313 3.78 14.874-1.521.609-.71 4.838-4.369 4.838-4.369 4.466-6.94 3.694-5.74 2.676-12.521-.886-5.88-6.123-8.83-9.189-13.24-4.676-6.729-5.352-11.71-14.465-10.77-6.637.67-12.36 4.67-18.902 5.99-7.19 1.441-12.704 2.871-14.284 11.531z" fill="#9c5c25"/><path d="m545.293 641.15c-5 1.97-14.589 9.52-10.979 14.64 4.019 5.7 11.541 3.37 16.512-.58 8.951-6.68 16.112-5.24 10.799-13.05-2.953-4.36-12.275-2.62-16.332-1.01zm29.158 29.2c-5.247 1.08-15.884 6.851-13.151 12.521 3.066 6.33 10.865 5.34 16.398 2.32 9.884-5.021 16.702-2.36 12.703-10.99-2.228-4.821-11.684-4.731-15.95-3.851zm16.416-33.11c-3.608 4.13-8.922 15.41-3.514 18.26 6.037 3.2 11.761-2.45 14.503-8.33 5.123-10.189 12.122-12.3 4.028-16.77-4.513-2.48-12.083 3.49-15.017 6.84z" fill="#fff5b4"/><path d="m612.15 520.17c-1.924 8.91-5.333 13.1 1.99 20.33 5.323 5.25 12.607 7.32 18.369 12.04 6.342 5.2 11.446 8.93 19.388 4.04 7.78-4.79 17.912-14.94 14.018-25-4.114-10.62-14.018-13.82-19.351-22.87-3.456-5.87-4.484-11.66-11.96-11.78-.98-.01-6.923-1.05-6.923-1.05-8.675 1.16-7.189.96-11.77 6.75-3.979 5.02-2.514 11.69-3.761 17.54z" fill="#9c5c25"/><path d="m618.454 646.6c-3.895 3.45-1.495 13.061.362 17.181 2.295 5.069 10.218 14.489 14.778 10.31 5.104-4.67 2.276-12.359-1.875-17.25-7.056-8.831-6.275-16.431-13.265-10.241z" fill="#fff5b4"/><path d="m435.184 577.78c-9.304 1.56-15.808-9.99-18.245-18.221-2.495-8.42 1.714-12.409 7.409-17.25 5.17-4.399 8.417-10.76 13.959-14.64 7.618-5.35 10.466-1.3 17.607 2.33 4.686 2.37 10.618 2.37 14.046 7.12 3.952 5.46 4.085 4.03 3.275 12.36 0 0-2.095 5.319-2.304 6.25-1.639 6.93-6.752 6.689-12.418 8.71-8.76 3.111-13.492 11.691-23.329 13.341zm220.018-106.39c-5.885-7.89-15.074-9.5-27.073-10.71-8.398-.859-17.179-1.529-24.082-6.939-5.323-4.17-9.665-9.48-15.084-13.41-.886-.64-1.81-1.26-2.771-1.85-10.047-6.211-23.568-9.421-36.319-8.801 0 0-23.769-1.109-36.005 9.051-.676.55-1.305 1.14-1.904 1.77-4.656 4.88-9.771 9.24-15.084 13.41-6.903 5.41-15.684 6.09-24.092 6.93-11.475 1.17-20.388 2.68-26.292 9.73-2.447 2.91-4.38 6.76-5.771 11.93-1.79 6.68-4.476 12.55-16.426 18.29-7.208 3.46-23.549 13.35-26.549 21.49-6.247 16.87-7.323 42.18 13.265 52.979 8.704 4.561 32.272 7.771 41.395 10.7 13.055 4.19 17.293 10.9 23.511 18.41 18.922 22.899 50.479 27.5 72 24.979l5.085-.159c21.502 2.5 53.069-2.08 72-24.99 3.694-4.48 6.704-8.67 11.274-12.21l.372-.271c23.653-14.75 68.181 1.87 85.483-24.85 11.398-17.58-2.98-41.79-33.995-59.59-4.514-2.59-8.646-5.29-11.513-6.66-11.951-5.73-14.646-11.61-16.437-18.29-1.236-4.599-2.903-8.159-4.988-10.939zm-131.515 118.48c-8.913-3.23-9.456-16.63-7.904-25.101 1.581-8.659 7.095-10.09 14.284-11.539 6.532-1.32 12.255-5.311 18.883-5.99 9.132-.94 9.809 4.04 14.475 10.779 3.075 4.41 8.304 7.36 9.189 13.23 1.028 6.79 1.79 5.59-2.667 12.53 0 0-4.237 3.66-4.847 4.37-4.552 5.3-8.961 2.56-14.864 1.529-9.114-1.588-17.151 3.622-26.549.192zm3.427-80.04c-8.903-3.24-9.446-16.64-7.903-25.11 1.58-8.66 7.094-10.09 14.283-11.529 6.542-1.32 12.266-5.32 18.902-5.99 9.113-.94 9.789 4.04 14.465 10.77 3.066 4.41 8.304 7.36 9.189 13.24 1.019 6.78 1.79 5.58-2.676 12.521 0 0-4.229 3.659-4.838 4.369-4.562 5.301-8.961 2.551-14.874 1.521-9.102-1.582-17.13 3.628-26.548.208zm87.027 30.67c-7.323-7.23-3.914-11.42-1.99-20.33 1.247-5.85-.219-12.52 3.762-17.54 4.58-5.79 3.095-5.59 11.77-6.75 0 0 5.942 1.04 6.923 1.05 7.476.12 8.504 5.91 11.96 11.78 5.333 9.05 15.236 12.25 19.351 22.87 3.895 10.06-6.237 20.21-14.018 25-7.941 4.89-13.046 1.16-19.388-4.04-5.763-4.72-13.047-6.79-18.37-12.04z" fill="#ed1e29"/><path d="m643.213 636.9c-4.009 5.72.333 12.59 5.38 16.42 8.714 7.02 9.523 14.609 15.074 6.989 3.096-4.26-1.237-13.1-3.895-16.699-3.275-4.43-12.959-11.82-16.559-6.71zm13.922-32.88c-5.247 1.07-15.884 6.841-13.141 12.5 3.066 6.341 10.855 5.37 16.388 2.33 9.875-5.02 16.703-2.35 12.703-10.989-2.229-4.821-11.693-4.721-15.95-3.841zm31.433 29.01c-5.142-1.53-17.121-1.45-17.121 4.899 0 7.101 7.37 9.94 13.599 9.86 10.979.229 15.921 5.86 16.073-3.75.086-5.359-8.389-9.769-12.551-11.009zm6.762-32.96c-3.904 3.46-1.495 13.069.361 17.189 2.286 5.07 10.218 14.49 14.779 10.311 5.104-4.67 2.275-12.37-1.876-17.25-7.065-8.83-6.284-16.44-13.264-10.25zm24.759-21.45c-4.01 5.72.323 12.59 5.38 16.42 8.713 7.02 9.522 14.62 15.074 6.99 3.085-4.261-1.238-13.101-3.895-16.7-3.276-4.43-12.96-11.82-16.559-6.71z" fill="#fff5b4"/><path d="m492.738 626.39c4.504-2.489 12.064 3.48 14.997 6.841 3.619 4.13 8.933 15.399 3.523 18.26-6.037 3.189-11.76-2.45-14.503-8.34-5.122-10.191-12.121-12.301-4.017-16.761zm240.149-66.64c-5.057-3.83-9.39-10.7-5.39-16.42 3.6-5.11 13.293 2.28 16.569 6.71 2.656 3.61 6.979 12.44 3.895 16.7-5.562 7.63-6.371.03-15.074-6.99zm-44.746-52.47c31.015 17.8 45.394 42.01 33.995 59.59-17.303 26.72-61.83 10.1-85.483 24.85l-.372.271c-4.57 3.54-7.58 7.729-11.274 12.21-18.931 22.91-50.498 27.49-72 24.99l-5.085.159c-21.521 2.521-53.078-2.08-72-24.979-6.218-7.51-10.456-14.22-23.511-18.41-9.123-2.93-32.691-6.14-41.395-10.7-20.587-10.8-19.511-36.109-13.265-52.979 3-8.141 19.34-18.03 26.549-21.49 11.951-5.74 14.636-11.61 16.426-18.29 1.391-5.17 3.323-9.02 5.771-11.93-63.563 20.54-106.462 59.479-106.462 104.14 0 66.05 93.826 119.59 209.563 119.59s209.563-53.54 209.563-119.59c0-44.07-41.775-82.58-103.957-103.32 2.085 2.78 3.752 6.341 4.989 10.94 1.79 6.68 4.485 12.56 16.437 18.29 2.864 1.368 6.997 4.068 11.511 6.658zm-330.071 48.94c-3.095-4.25 1.238-13.09 3.895-16.689 3.276-4.431 12.951-11.83 16.55-6.721 4.019 5.73-.324 12.601-5.371 16.431-8.723 7.009-9.522 14.619-15.074 6.979zm0 41.79c-3.095-4.25 1.238-13.09 3.895-16.689 3.276-4.431 12.951-11.83 16.55-6.721 4.019 5.73-.324 12.591-5.371 16.42-8.723 7.02-9.522 14.62-15.074 6.99zm30.072 13.79c-5.104-4.67-2.276-12.37 1.867-17.26 7.075-8.83 6.285-16.42 13.274-10.24 3.904 3.45 1.485 13.08-.362 17.19-2.295 5.07-10.217 14.48-14.779 10.31zm9.351 28.23c-.085-5.37 8.38-9.78 12.551-11.021 5.142-1.52 17.131-1.439 17.131 4.91 0 7.1-7.38 9.93-13.607 9.86-10.98.211-15.913 5.851-16.075-3.749zm40.729-25.19c-9.875-5.03-16.693-2.359-12.694-11 2.228-4.81 11.684-4.72 15.941-3.84 5.247 1.08 15.893 6.84 13.15 12.51-3.066 6.33-10.855 5.36-16.397 2.33zm-3.277 41.45c-3.095-4.25 1.238-13.09 3.886-16.7 3.285-4.42 12.97-11.82 16.569-6.71 4.009 5.73-.344 12.59-5.391 16.42-8.712 7.02-9.512 14.62-15.064 6.99zm30.063 13.79c-5.085-4.67-2.275-12.37 1.886-17.26 7.057-8.83 6.275-16.42 13.265-10.24 3.896 3.45 1.495 13.07-.361 17.189-2.296 5.061-10.219 14.481-14.79 10.311zm55.907 11.1c-9.885-5.02-16.702-2.37-12.703-11 2.219-4.819 11.693-4.72 15.94-3.85 5.247 1.09 15.894 6.85 13.151 12.52-3.066 6.33-10.856 5.35-16.388 2.33zm13.398-25.39c-3.609-5.12 5.979-12.67 10.979-14.64 4.057-1.61 13.379-3.351 16.331 1.01 5.313 7.81-1.848 6.37-10.799 13.05-4.97 3.95-12.492 6.28-16.511.58zm26.987 27.08c-2.732-5.67 7.904-11.44 13.151-12.521 4.266-.88 13.722-.97 15.95 3.851 3.999 8.63-2.819 5.97-12.703 10.99-5.533 3.02-13.332 4.01-16.398-2.32zm26.054-27.37c-5.408-2.85-.095-14.13 3.514-18.26 2.934-3.351 10.504-9.32 15.018-6.84 8.094 4.47 1.095 6.58-4.028 16.77-2.744 5.88-8.467 11.53-14.504 8.33zm31.462 8.28c-1.857-4.12-4.257-13.73-.362-17.181 6.99-6.189 6.209 1.41 13.266 10.24 4.151 4.891 6.979 12.58 1.875 17.25-4.561 4.181-12.484-5.239-14.779-10.309zm29.777-10.46c-5.047-3.83-9.389-10.7-5.38-16.42 3.6-5.11 13.284 2.279 16.56 6.71 2.657 3.6 6.99 12.439 3.895 16.699-5.552 7.621-6.361.031-15.075-6.989zm-4.599-36.8c-2.743-5.659 7.894-11.43 13.141-12.5 4.257-.88 13.722-.979 15.95 3.841 4 8.64-2.828 5.97-12.703 10.989-5.532 3.04-13.321 4.01-16.388-2.33zm27.453 21.41c0-6.35 11.979-6.43 17.121-4.899 4.162 1.239 12.637 5.649 12.551 11.01-.152 9.61-5.094 3.979-16.073 3.75-6.229.079-13.599-2.761-13.599-9.861zm24.244-20.67c-1.856-4.12-4.266-13.729-.361-17.189 6.979-6.19 6.199 1.42 13.265 10.25 4.151 4.88 6.98 12.58 1.876 17.25-4.562 4.179-12.493-5.241-14.78-10.311zm29.778-22.22c-5.057-3.83-9.39-10.7-5.38-16.42 3.599-5.11 13.283 2.28 16.56 6.71 2.656 3.6 6.979 12.439 3.895 16.7-5.553 7.63-6.362.03-15.075-6.99z" fill="#fff5b4"/><path d="m727.497 543.33c-4 5.72.333 12.59 5.39 16.42 8.703 7.02 9.513 14.62 15.074 6.99 3.085-4.26-1.238-13.09-3.895-16.7-3.276-4.43-12.969-11.82-16.569-6.71z" fill="#fff5b4"/><g fill="none"><g stroke="#231f20"><g stroke-width="13.662"><path d="m446.525 470.56c-.01 0-.02.011-.029.011-63.563 20.54-106.462 59.479-106.462 104.14 0 66.05 93.826 119.59 209.563 119.59s209.563-53.54 209.563-119.59c0-44.07-41.775-82.58-103.957-103.32-13.274-4.43-27.482-8.05-42.404-10.739"/><path d="m511.23 438.66c-109.157 11.1-192.327 68.78-192.327 138.26 0 28.47 13.96 54.95 37.938 77.061 41.261 38.029 112.176 63.13 192.745 63.13 77.047 0 145.276-22.95 187.166-58.23 27.387-23.04 43.527-51.35 43.527-81.96 0-69.86-84.074-127.78-194.088-138.439"/><path d="m631.72 656.84c-7.057-8.83-6.275-16.43-13.266-10.24-3.895 3.45-1.495 13.061.362 17.181 2.295 5.069 10.218 14.489 14.778 10.31 5.105-4.671 2.277-12.361-1.874-17.251zm-29.864-9.67c5.123-10.189 12.122-12.3 4.028-16.77-4.514-2.48-12.084 3.489-15.018 6.84-3.608 4.13-8.922 15.41-3.514 18.26 6.039 3.2 11.762-2.45 14.504-8.33zm46.737 6.15c8.714 7.02 9.523 14.609 15.074 6.989 3.096-4.26-1.237-13.1-3.895-16.699-3.275-4.431-12.96-11.82-16.56-6.71-4.008 5.72.334 12.59 5.381 16.42zm60.002-43c-7.065-8.83-6.285-16.44-13.265-10.25-3.904 3.46-1.495 13.069.361 17.189 2.286 5.07 10.218 14.49 14.779 10.311 5.105-4.67 2.276-12.37-1.875-17.25zm16.874-15.28c8.713 7.02 9.522 14.62 15.074 6.99 3.085-4.261-1.238-13.101-3.895-16.7-3.276-4.43-12.961-11.82-16.56-6.71-4.009 5.72.324 12.59 5.381 16.42zm7.418-35.29c8.703 7.02 9.513 14.62 15.074 6.99 3.085-4.26-1.238-13.09-3.895-16.7-3.276-4.43-12.97-11.82-16.569-6.71-4 5.72.333 12.59 5.39 16.42zm-47.841 88.04c10.979.229 15.921 5.86 16.073-3.75.086-5.36-8.389-9.771-12.551-11.01-5.142-1.53-17.121-1.45-17.121 4.899 0 7.101 7.37 9.941 13.599 9.861zm-24.664-28.94c9.875-5.02 16.703-2.35 12.703-10.989-2.229-4.82-11.693-4.721-15.95-3.841-5.247 1.07-15.884 6.841-13.141 12.5 3.067 6.34 10.856 5.37 16.388 2.33zm-82.684 66.34c9.884-5.021 16.702-2.36 12.703-10.99-2.229-4.82-11.685-4.73-15.95-3.851-5.247 1.08-15.884 6.851-13.151 12.521 3.066 6.33 10.865 5.34 16.398 2.32zm-26.873-29.98c8.951-6.68 16.112-5.24 10.799-13.05-2.952-4.36-12.274-2.62-16.331-1.01-5 1.97-14.589 9.52-10.979 14.64 4.018 5.7 11.54 3.37 16.511-.58zm-83.931-2.39c7.057-8.83 6.275-16.42 13.265-10.24 3.896 3.45 1.495 13.07-.361 17.189-2.295 5.061-10.218 14.48-14.789 10.311-5.086-4.67-2.277-12.37 1.885-17.26zm29.862-9.67c-5.123-10.19-12.122-12.301-4.018-16.761 4.504-2.489 12.064 3.48 14.997 6.841 3.619 4.13 8.933 15.399 3.523 18.26-6.036 3.19-11.759-2.45-14.502-8.34zm-46.746 6.15c-8.713 7.021-9.513 14.62-15.064 6.99-3.095-4.25 1.238-13.09 3.886-16.7 3.285-4.42 12.97-11.82 16.569-6.71 4.008 5.73-.344 12.59-5.391 16.42zm-60.001-54.76c7.075-8.83 6.285-16.42 13.274-10.24 3.904 3.45 1.485 13.08-.362 17.19-2.295 5.069-10.218 14.479-14.779 10.31-5.104-4.67-2.276-12.37 1.867-17.26zm-16.865-3.52c-8.723 7.021-9.522 14.62-15.074 6.99-3.095-4.25 1.238-13.09 3.895-16.689 3.276-4.431 12.951-11.83 16.55-6.721 4.019 5.73-.324 12.59-5.371 16.42zm0-41.78c-8.723 7.01-9.522 14.62-15.074 6.979-3.095-4.25 1.238-13.09 3.895-16.689 3.276-4.431 12.951-11.83 16.55-6.721 4.019 5.731-.324 12.601-5.371 16.431zm40.423 94.54c-10.979.21-15.912 5.85-16.074-3.75-.085-5.37 8.38-9.78 12.551-11.021 5.142-1.52 17.131-1.439 17.131 4.91 0 7.101-7.38 9.931-13.608 9.861zm24.655-28.94c-9.875-5.03-16.693-2.359-12.694-11 2.228-4.81 11.684-4.72 15.941-3.84 5.247 1.08 15.893 6.84 13.15 12.51-3.066 6.33-10.855 5.36-16.397 2.33zm82.693 66.34c-9.885-5.02-16.702-2.37-12.703-11 2.219-4.819 11.693-4.72 15.94-3.85 5.247 1.09 15.894 6.85 13.151 12.52-3.066 6.33-10.856 5.35-16.388 2.33zm49.031-97.4c4.457-6.94 3.695-5.74 2.667-12.53-.886-5.87-6.114-8.82-9.189-13.23-4.666-6.739-5.343-11.72-14.475-10.779-6.628.68-12.351 4.67-18.883 5.99-7.189 1.449-12.703 2.88-14.284 11.539-1.552 8.471-1.009 21.87 7.904 25.101 9.398 3.43 17.436-1.78 26.549-.19 5.903 1.03 10.313 3.771 14.864-1.529.61-.712 4.847-4.372 4.847-4.372zm3.429-80.05c4.466-6.94 3.694-5.74 2.676-12.521-.886-5.88-6.123-8.83-9.189-13.24-4.676-6.729-5.352-11.71-14.465-10.77-6.637.67-12.36 4.67-18.902 5.99-7.189 1.439-12.703 2.869-14.283 11.529-1.543 8.471-1 21.87 7.903 25.11 9.418 3.42 17.445-1.79 26.549-.21 5.913 1.03 10.313 3.78 14.874-1.521.608-.707 4.837-4.367 4.837-4.367zm-100.14 45.75c.81-8.33.677-6.9-3.275-12.36-3.428-4.75-9.36-4.75-14.046-7.12-7.142-3.63-9.989-7.68-17.607-2.33-5.542 3.88-8.789 10.24-13.959 14.64-5.695 4.841-9.904 8.83-7.409 17.25 2.438 8.23 8.941 19.78 18.245 18.221 9.837-1.65 14.569-10.23 23.33-13.34 5.666-2.021 10.779-1.78 12.418-8.71.209-.931 2.303-6.251 2.303-6.251zm154.447-53.6c-8.675 1.16-7.189.96-11.77 6.75-3.98 5.021-2.515 11.69-3.762 17.54-1.924 8.91-5.333 13.1 1.99 20.33 5.323 5.25 12.607 7.32 18.369 12.04 6.342 5.2 11.446 8.93 19.388 4.04 7.78-4.79 17.912-14.94 14.018-25-4.114-10.62-14.018-13.82-19.351-22.87-3.456-5.87-4.484-11.66-11.96-11.78-.98-.01-6.922-1.05-6.922-1.05z"/><path d="m356.823 653.9c.009.029.019.05.019.08 17.902 63.189 96.482 110.779 190.717 110.779 91.788 0 168.73-45.149 189.194-105.88.143-.42.285-.83.419-1.25m-81.97-186.239c2.085 2.78 3.752 6.341 4.989 10.94 1.79 6.68 4.485 12.56 16.437 18.29 2.866 1.37 6.999 4.07 11.513 6.66 31.015 17.8 45.394 42.01 33.995 59.59-17.303 26.72-61.83 10.1-85.483 24.85l-.372.271c-4.57 3.54-7.58 7.729-11.274 12.21-18.931 22.91-50.498 27.49-72 24.99l-5.085.159c-21.521 2.521-53.078-2.08-72-24.979-6.218-7.51-10.456-14.22-23.511-18.41-9.123-2.93-32.691-6.14-41.395-10.7-20.587-10.8-19.511-36.109-13.265-52.979 3-8.141 19.34-18.03 26.549-21.49 11.951-5.74 14.636-11.61 16.426-18.29 1.391-5.17 3.323-9.02 5.771-11.93 5.904-7.051 14.817-8.561 26.292-9.73 8.408-.84 17.188-1.52 24.092-6.93 5.313-4.17 10.428-8.53 15.084-13.41.6-.63 1.229-1.22 1.904-1.77 12.236-10.16 36.005-9.051 36.005-9.051 12.751-.62 26.272 2.59 36.319 8.801.961.59 1.885 1.21 2.771 1.85 5.419 3.93 9.761 9.24 15.084 13.41 6.903 5.41 15.684 6.08 24.082 6.939 11.998 1.209 21.187 2.819 27.072 10.709z"/><path d="m235.801 381.16 1.857-1.85 63.829-63.85 1.733-1.73m-77.38 55.8 1.019-1.02 6.875-6.88 49.87-49.86 7.094-7.1 2.571-2.57" stroke-linecap="round" stroke-linejoin="round"/><path d="m238.238 379.89-.581-.58-10.799-10.8-3.99-3.99s-18.34 10.56-33.434-1.19c-15.093-11.76-54.107-46.58-72.895-62.89-22.483-19.53-65.382-58.73-65.382-58.73s-8.904-8.26-5.942-17.79c2.647-8.48 5.228-14.92 6.59-17.85.457-.97.771-1.56.914-1.7"/><path d="m231.516 359.18s-12.951-6.01-30.891-23.39c-13.941-13.5-147.619-129.28-147.619-129.28m249.766 109.13.257.3c1.638 1.85 10.903 11.87 22.34 15.25 12.617 3.72 23.645 12.9 20.978 28.03-2.666 15.11-26.187 38.62-26.187 38.62l-.267.33s-23.339 23.38-38.452 26.04-24.302-8.37-28.025-20.98c-3.724-12.62-15.541-22.6-15.541-22.6m64.155-64.63-.542-.54-10.789-10.79-4.028-4.03s10.551-18.35-1.209-33.43c-11.75-15.09-46.575-54.12-62.868-72.9-19.54-22.49-58.735-65.4-58.735-65.4s-8.275-8.9-17.788-5.93c-8.466 2.64-14.922 5.22-17.855 6.58-.857.4-1.409.69-1.628.85-.028.02-.047.04-.066.06m.541-.55-.486.48-37.204 36.73-36.662 37.23-.552.57"/><path d="m281.337 309.27s-6.018-12.95-23.397-30.89c-13.503-13.94-129.288-147.62-129.288-147.62"/></g><path d="m301.83 391.58c-.562-.57-2.409.37-4.143 2.1-1.733 1.72-2.676 3.58-2.104 4.15.571.57 2.419-.38 4.143-2.12 1.732-1.72 2.675-3.57 2.104-4.13zm-5.504 17.55c-.552-.57-2.418.38-4.142 2.11s-2.667 3.58-2.104 4.15c.571.56 2.428-.38 4.161-2.1 1.714-1.73 2.666-3.59 2.085-4.16zm40.671-40.47c-.562-.56-2.418.38-4.152 2.11-1.724 1.73-2.666 3.58-2.104 4.14.571.57 2.419-.37 4.152-2.1 1.732-1.72 2.675-3.58 2.104-4.15zm-17.522 5.27c-.562-.56-2.409.38-4.142 2.1-1.724 1.72-2.676 3.59-2.114 4.16.581.57 2.438-.39 4.152-2.12 1.733-1.72 2.675-3.57 2.104-4.14z" stroke-width="6.831"/></g><path d="m0 0h850.394v850.394h-850.394z"/><path d="m308 422 58 104m-36-124 64 76m-44-98 90 74" stroke="#231f20" stroke-dasharray="10 15" stroke-width="9"/><path d="m0 0h850.394v850.394h-850.394z"/></g></svg>