<svg height="850.394" viewBox="0 0 850.394 850.394" width="850.394" xmlns="http://www.w3.org/2000/svg"><path d="m103.52 320.216h228.464v228.46h-228.464z" fill="none"/><g fill="#5668af"><circle cx="331.983" cy="348.774" r="13.175"/><circle cx="331.983" cy="377.332" r="13.175"/><circle cx="331.983" cy="405.889" r="13.175"/><circle cx="331.983" cy="434.447" r="13.175"/><circle cx="331.983" cy="463.005" r="13.175"/><circle cx="331.983" cy="491.563" r="13.175"/><circle cx="331.983" cy="520.12" r="13.175"/><circle cx="303.425" cy="548.677" r="13.175"/><circle cx="274.867" cy="548.677" r="13.175"/><circle cx="246.309" cy="548.677" r="13.175"/><circle cx="217.751" cy="548.677" r="13.175"/><circle cx="189.193" cy="548.677" r="13.175"/><circle cx="160.635" cy="548.677" r="13.175"/><circle cx="132.077" cy="548.677" r="13.175"/><circle cx="103.52" cy="520.119" r="13.175"/><circle cx="103.52" cy="491.562" r="13.175"/><circle cx="103.52" cy="463.004" r="13.175"/><circle cx="103.52" cy="434.446" r="13.175"/><circle cx="103.52" cy="405.888" r="13.175"/><circle cx="103.52" cy="377.331" r="13.175"/><circle cx="103.52" cy="348.773" r="13.175"/><circle cx="132.078" cy="320.216" r="13.175"/><circle cx="160.636" cy="320.216" r="13.175"/><circle cx="189.194" cy="320.216" r="13.175"/><circle cx="217.752" cy="320.216" r="13.175"/><circle cx="246.31" cy="320.216" r="13.175"/><circle cx="274.868" cy="320.216" r="13.175"/><circle cx="303.426" cy="320.216" r="13.175"/><circle cx="331.983" cy="548.677" r="13.175"/><circle cx="103.52" cy="548.677" r="13.175"/><circle cx="103.52" cy="320.216" r="13.175"/><circle cx="331.983" cy="320.217" r="13.175"/></g><path d="m520.499 320.216h228.463v228.46h-228.463z" fill="none"/><circle cx="748.962" cy="348.774" fill="#5668af" r="13.175"/><circle cx="748.962" cy="377.332" fill="#5668af" r="13.175"/><circle cx="748.962" cy="405.889" fill="#5668af" r="13.175"/><circle cx="748.962" cy="434.447" fill="#5668af" r="13.175"/><circle cx="748.962" cy="463.005" fill="#5668af" r="13.175"/><circle cx="748.962" cy="491.563" fill="#5668af" r="13.175"/><circle cx="748.962" cy="520.12" fill="#5668af" r="13.175"/><circle cx="720.404" cy="548.677" fill="#5668af" r="13.175"/><circle cx="691.846" cy="548.677" fill="#5668af" r="13.175"/><circle cx="663.288" cy="548.677" fill="#5668af" r="13.175"/><circle cx="634.73" cy="548.677" fill="#5668af" r="13.175"/><circle cx="606.172" cy="548.677" fill="#5668af" r="13.175"/><circle cx="577.614" cy="548.677" fill="#5668af" r="13.175"/><circle cx="549.056" cy="548.677" fill="#5668af" r="13.175"/><circle cx="520.499" cy="520.119" fill="#5668af" r="13.175"/><circle cx="520.499" cy="491.562" fill="#5668af" r="13.175"/><circle cx="520.499" cy="463.004" fill="#5668af" r="13.175"/><circle cx="520.499" cy="434.446" fill="#5668af" r="13.175"/><circle cx="520.499" cy="405.888" fill="#5668af" r="13.175"/><circle cx="520.499" cy="377.331" fill="#5668af" r="13.175"/><circle cx="520.499" cy="348.773" fill="#5668af" r="13.175"/><circle cx="549.057" cy="320.216" fill="#5668af" r="13.175"/><circle cx="577.615" cy="320.216" fill="#5668af" r="13.175"/><circle cx="606.173" cy="320.216" fill="#5668af" r="13.175"/><circle cx="634.73" cy="320.216" fill="#5668af" r="13.175"/><circle cx="663.289" cy="320.216" fill="#5668af" r="13.175"/><circle cx="691.847" cy="320.216" fill="#5668af" r="13.175"/><circle cx="720.405" cy="320.216" fill="#5668af" r="13.175"/><circle cx="748.962" cy="548.677" fill="#5668af" r="13.175"/><circle cx="520.499" cy="548.677" fill="#5668af" r="13.175"/><circle cx="520.499" cy="320.216" fill="#5668af" r="13.175"/><circle cx="748.962" cy="320.217" fill="#5668af" r="13.175"/><path d="m0 0h850.394v850.394h-850.394z" fill="none"/><path d="m379.468 429.427h91.83" fill="#fff" stroke="#231f20" stroke-width="14"/><path d="m379.407 455.763h91.831" fill="#fff" stroke="#231f20" stroke-width="14"/></svg>