<svg height="850.394" viewBox="0 0 850.394 850.394" width="850.394" xmlns="http://www.w3.org/2000/svg"><path d="m691.49 200.95 106.05 211.7-1.6 7.29h-14.46c-6.881-4.3-22.551-26.24-28.131-34.52-6.79-10.18-19.26-12.77-25.85-22.45-5.58-8.28-4.68-18.55-14.86-25.14-5.989-3.79-13.17-2.69-19.149-6.28-7.78-4.79-6.891-8.09-9.59-13.67v-116.93zm104.95 218.99v257.28h-731.86v-257.28h731.36z" fill="#ffa500"/><path d="m663.16 371.95c3.29 0 5.979-2.7 5.979-5.99s-2.689-5.98-5.979-5.98-5.99 2.69-5.99 5.98 2.7 5.99 5.99 5.99zm0-49.39c3.29 0 5.979-2.69 5.979-5.98 0-3.39-2.689-5.98-5.979-5.98s-5.99 2.59-5.99 5.98c0 3.29 2.7 5.98 5.99 5.98zm-8.98 71.84c3.29 0 5.98-2.7 5.98-5.99s-2.69-5.99-5.98-5.99-5.979 2.7-5.979 5.99 2.689 5.99 5.979 5.99zm0-49.39c3.29 0 5.98-2.69 5.98-5.98s-2.69-5.99-5.98-5.99-5.979 2.7-5.979 5.99c-.001 3.29 2.689 5.98 5.979 5.98zm-13.46 35.92c3.28 0 5.98-2.7 5.98-5.99s-2.7-5.98-5.98-5.98c-3.3 0-6 2.69-6 5.98s2.7 5.99 6 5.99zm0-49.38c3.28 0 5.98-2.7 5.98-5.99 0-3.4-2.7-5.99-5.98-5.99-3.3 0-6 2.59-6 5.99 0 3.29 2.7 5.99 6 5.99zm-28.44 40.4c3.29 0 5.989-2.7 5.989-5.99s-2.699-5.98-5.989-5.98c-3.391 0-5.98 2.69-5.98 5.98s2.59 5.99 5.98 5.99zm-22.55 8.98c3.39 0 5.979-2.7 5.979-5.99s-2.59-5.98-5.979-5.98c-3.29 0-5.98 2.69-5.98 5.98s2.69 5.99 5.98 5.99zm13.57 13.47c3.29 0 5.99-2.7 5.99-5.99s-2.7-5.99-5.99-5.99c-3.399 0-6.08 2.7-6.08 5.99s2.68 5.99 6.08 5.99zm-74.92-22.45c3.29 0 5.99-2.7 5.99-5.99s-2.7-5.98-5.99-5.98c-3.3 0-5.99 2.69-5.99 5.98s2.69 5.99 5.99 5.99zm0-49.39c3.29 0 5.99-2.69 5.99-5.98 0-3.39-2.7-5.98-5.99-5.98-3.3 0-5.99 2.59-5.99 5.98 0 3.29 2.69 5.98 5.99 5.98zm-8.98 71.84c3.3 0 5.979-2.7 5.979-5.99s-2.68-5.99-5.979-5.99c-3.29 0-5.99 2.7-5.99 5.99s2.7 5.99 5.99 5.99zm0-49.39c3.3 0 5.979-2.69 5.979-5.98s-2.68-5.99-5.979-5.99c-3.29 0-5.99 2.7-5.99 5.99s2.7 5.98 5.99 5.98zm-13.47 35.92c3.29 0 5.99-2.7 5.99-5.99s-2.7-5.98-5.99-5.98c-3.3 0-5.979 2.69-5.979 5.98s2.679 5.99 5.979 5.99zm0-49.38c3.29 0 5.99-2.7 5.99-5.99 0-3.4-2.7-5.99-5.99-5.99-3.3 0-5.979 2.59-5.979 5.99-.001 3.29 2.679 5.99 5.979 5.99zm-28.53 40.4c3.39 0 5.979-2.7 5.979-5.99s-2.59-5.98-5.979-5.98c-3.29 0-5.99 2.69-5.99 5.98s2.7 5.99 5.99 5.99zm-8.98 22.45c3.39 0 5.98-2.7 5.98-5.99s-2.591-5.99-5.98-5.99c-3.29 0-5.979 2.7-5.979 5.99s2.689 5.99 5.979 5.99zm-13.46-13.47c3.29 0 5.98-2.7 5.98-5.99s-2.69-5.98-5.98-5.98c-3.3 0-6 2.69-6 5.98s2.7 5.99 6 5.99zm-62.86-44.9c0-2.09-1.1-3.89-2.69-4.99l14.96.2c1 1.1 2.59 1.8 4.19 1.8 3.29 0 5.99-2.69 5.99-5.98 0-3.3-2.7-5.99-5.99-5.99l10.87-22.65c3.2 1.1 6.49 2 10.08 2.7 14.57 2.69 33.521 4.38 47.78.59 12.68-3.49 23.76-12.67 36.12-16.96 27.34-9.37 31.13.5 52.38 15.67 37.91 27.03 89.29-28.63 116.62 14.56.6 1 1.1 2 1.49 2.9 2.699 5.58 1.81 8.88 9.59 13.67 5.979 3.59 13.16 2.49 19.149 6.28 10.181 6.59 9.28 16.86 14.86 25.14 6.59 9.68 19.06 12.27 25.85 22.45 5.58 8.28 21.25 30.22 28.131 34.52h-381.9v-15.07c3.3 0 5.99-2.59 5.99-5.98a6 6 0 0 0 -5.99-5.99c-2.09 0-3.89 1.1-4.98 2.69l-8.49-4.19c3.3 0 5.99-2.69 5.99-5.98 0-2.1-1.1-3.89-2.69-4.99l14.96.2c1 1.1 2.59 1.79 4.19 1.79 3.29 0 5.99-2.69 5.99-5.98s-2.7-5.99-5.99-5.99c-.8 0-1.6.2-2.29.5l-6.69-15.46c3.3 0 5.99-2.7 5.99-5.99s-2.69-5.98-5.99-5.98c-2.09 0-3.89 1.09-4.98 2.69l-8.49-4.19a6 6 0 0 0 5.99-5.99z" fill="#fff400"/><path d="m180.6 314.78c-.99.5-1.99 1-2.89 1.6l-.6-1.8v-105.15l-6.09-3.19 3-5.69 509.88.4v116.93c-.391-.9-.891-1.9-1.49-2.9-27.33-43.19-78.71 12.47-116.62-14.56-21.25-15.17-25.04-25.04-52.38-15.67-12.36 4.29-23.44 13.47-36.12 16.96-14.26 3.79-33.21 2.1-47.78-.59-3.59-.7-6.88-1.6-10.08-2.7-22.44-8.08-37.9-26.93-60.75-35.81-26.84-10.38-57.86-9.98-81.91 6.58-23.24 16.06-26.23 31.03-57.96 29.33-13.77-.7-35.32-.5-38.21 16.26z" fill="#ffa500"/><path d="m663.16 310.6c3.29 0 5.979 2.59 5.979 5.98 0 3.29-2.689 5.98-5.979 5.98s-5.99-2.69-5.99-5.98c0-3.39 2.7-5.98 5.99-5.98zm0 49.38c3.29 0 5.979 2.69 5.979 5.98s-2.689 5.99-5.979 5.99-5.99-2.7-5.99-5.99 2.7-5.98 5.99-5.98zm-8.98-26.94c3.29 0 5.98 2.7 5.98 5.99s-2.69 5.98-5.98 5.98-5.979-2.69-5.979-5.98c-.001-3.29 2.689-5.99 5.979-5.99zm0 49.38c3.29 0 5.98 2.7 5.98 5.99s-2.69 5.99-5.98 5.99-5.979-2.7-5.979-5.99 2.689-5.99 5.979-5.99zm-13.46-62.85c3.28 0 5.98 2.59 5.98 5.99 0 3.29-2.7 5.99-5.98 5.99-3.3 0-6-2.7-6-5.99 0-3.4 2.7-5.99 6-5.99zm0 49.39c3.28 0 5.98 2.69 5.98 5.98s-2.7 5.99-5.98 5.99c-3.3 0-6-2.7-6-5.99s2.7-5.98 6-5.98zm-28.44-8.98c3.29 0 5.989 2.69 5.989 5.98s-2.699 5.99-5.989 5.99c-3.391 0-5.98-2.7-5.98-5.99s2.59-5.98 5.98-5.98zm-8.98 22.44c3.29 0 5.99 2.7 5.99 5.99s-2.7 5.99-5.99 5.99c-3.399 0-6.08-2.7-6.08-5.99s2.68-5.99 6.08-5.99zm-13.57-1.49c-3.29 0-5.98-2.7-5.98-5.99s2.69-5.98 5.98-5.98c3.39 0 5.979 2.69 5.979 5.98s-2.589 5.99-5.979 5.99zm-61.35-70.33c3.29 0 5.99 2.59 5.99 5.98 0 3.29-2.7 5.98-5.99 5.98-3.3 0-5.99-2.69-5.99-5.98 0-3.39 2.69-5.98 5.99-5.98zm0 49.38c3.29 0 5.99 2.69 5.99 5.98s-2.7 5.99-5.99 5.99c-3.3 0-5.99-2.7-5.99-5.99s2.69-5.98 5.99-5.98zm-8.98-26.94c3.3 0 5.979 2.7 5.979 5.99s-2.68 5.98-5.979 5.98c-3.29 0-5.99-2.69-5.99-5.98s2.7-5.99 5.99-5.99zm0 49.38c3.3 0 5.979 2.7 5.979 5.99s-2.68 5.99-5.979 5.99c-3.29 0-5.99-2.7-5.99-5.99s2.7-5.99 5.99-5.99zm-13.47-50.87c-3.3 0-5.979-2.7-5.979-5.99 0-3.4 2.68-5.99 5.979-5.99 3.29 0 5.99 2.59 5.99 5.99 0 3.29-2.7 5.99-5.99 5.99zm0 49.38c-3.3 0-5.979-2.7-5.979-5.99s2.68-5.98 5.979-5.98c3.29 0 5.99 2.69 5.99 5.98s-2.7 5.99-5.99 5.99zm-28.53-8.98c-3.29 0-5.99-2.7-5.99-5.99s2.7-5.98 5.99-5.98c3.39 0 5.979 2.69 5.979 5.98s-2.589 5.99-5.979 5.99zm-8.98 10.47c3.39 0 5.98 2.7 5.98 5.99s-2.591 5.99-5.98 5.99c-3.29 0-5.979-2.7-5.979-5.99s2.689-5.99 5.979-5.99zm-13.46-13.46c3.29 0 5.98 2.69 5.98 5.98s-2.69 5.99-5.98 5.99c-3.3 0-6-2.7-6-5.99s2.7-5.98 6-5.98zm-46.4 1.49c3.29 0 5.99 2.7 5.99 5.99s-2.7 5.98-5.99 5.98c-1.6 0-3.19-.69-4.19-1.79-1.09-1-1.8-2.6-1.8-4.19 0-2.49 1.5-4.59 3.7-5.49.69-.3 1.49-.5 2.29-.5zm0-49.38c3.29 0 5.99 2.69 5.99 5.99 0 3.29-2.7 5.98-5.99 5.98-1.6 0-3.19-.7-4.19-1.8-1.09-1.09-1.8-2.49-1.8-4.18 0-3.3 2.7-5.99 5.99-5.99zm-8.98 22.45c3.3 0 5.99 2.69 5.99 5.98s-2.69 5.99-5.99 5.99c-3.29 0-5.98-2.7-5.98-5.99 0-1.2.4-2.39 1-3.29 1.09-1.6 2.89-2.69 4.98-2.69zm0 49.38a6 6 0 0 1 5.99 5.99c0 3.39-2.69 5.98-5.99 5.98-3.29 0-5.98-2.59-5.98-5.98 0-1.2.4-2.4 1-3.3 1.09-1.59 2.89-2.69 4.98-2.69z"/><path d="m357.58 382.42c3.39 0 5.99-2.69 5.99-5.98s-2.6-5.99-5.99-5.99c-3.29 0-5.98 2.7-5.98 5.99s2.69 5.98 5.98 5.98zm-22.44 8.98c3.29 0 5.98-2.69 5.98-5.98 0-3.3-2.69-5.99-5.98-5.99a6 6 0 0 0 -5.99 5.99c0 3.29 2.69 5.98 5.99 5.98zm13.47 13.47c3.29 0 5.98-2.59 5.98-5.98 0-3.3-2.69-5.99-5.98-5.99a6 6 0 0 0 -5.99 5.99c0 3.39 2.69 5.98 5.99 5.98zm-34.42-47.89c3.29 0 5.98-2.69 5.98-5.98 0-3.3-2.69-5.99-5.98-5.99a6 6 0 0 0 -5.99 5.99c0 3.29 2.69 5.98 5.99 5.98zm0-49.48c3.29 0 5.98-2.59 5.98-5.98 0-3.3-2.69-5.99-5.98-5.99a6 6 0 0 0 -5.99 5.99c0 3.39 2.69 5.98 5.99 5.98zm-8.98 71.93c3.29 0 5.98-2.69 5.98-5.99 0-3.29-2.69-5.98-5.98-5.98-3.3 0-5.99 2.69-5.99 5.98a6 6 0 0 0 5.99 5.99zm0-49.38c3.29 0 5.98-2.7 5.98-5.99 0-3.39-2.69-5.98-5.98-5.98-3.3 0-5.99 2.59-5.99 5.98 0 3.29 2.69 5.99 5.99 5.99zm-13.47 35.91c3.29 0 5.99-2.69 5.99-5.98s-2.7-5.99-5.99-5.99-5.99 2.7-5.99 5.99 2.7 5.98 5.99 5.98zm0-49.38c3.29 0 5.99-2.69 5.99-5.98 0-3.4-2.7-6.09-5.99-6.09s-5.99 2.69-5.99 6.09c0 3.29 2.7 5.98 5.99 5.98zm-37.51 62.85c3.39 0 5.98-2.69 5.98-5.99 0-3.29-2.59-5.98-5.98-5.98-3.29 0-5.99 2.69-5.99 5.98 0 3.3 2.7 5.99 5.99 5.99zm8.98-22.45c3.39 0 6.08-2.69 6.08-5.98 0-3.3-2.69-5.99-6.08-5.99a6 6 0 0 0 -5.99 5.99c0 3.29 2.69 5.98 5.99 5.98zm-22.45 8.98c3.29 0 5.99-2.69 5.99-5.98s-2.7-5.99-5.99-5.99-5.99 2.7-5.99 5.99 2.7 5.98 5.99 5.98zm-140.87 53.98c14.97-13.47 25.14-34.92 34.52-49.49 6.59-10.17 14.07-9.97 26.74-10.77 0-19.26 2.79-35.02 16.56-43.3.9-.6 1.9-1.1 2.89-1.6 2.89-16.76 24.44-16.96 38.21-16.26 31.73 1.7 34.72-13.27 57.96-29.33 24.05-16.56 55.07-16.96 81.91-6.58 22.85 8.88 38.31 27.73 60.75 35.81l-10.87 22.65c-3.29 0-5.99 2.69-5.99 5.99 0 1.69.71 3.09 1.8 4.18l-14.96-.2c-.9-.59-2.1-.99-3.3-.99-3.39 0-5.98 2.69-5.98 5.98 0 3.3 2.59 5.99 5.98 5.99l8.49 4.19c-.6.9-1 2.09-1 3.29 0 3.29 2.69 5.99 5.98 5.99l6.69 15.46c-2.2.9-3.7 3-3.7 5.49 0 1.59.71 3.19 1.8 4.19l-14.96-.2c-.9-.6-2.1-1-3.3-1-3.39 0-5.98 2.69-5.98 5.99 0 3.29 2.59 5.98 5.98 5.98l8.49 4.19c-.6.9-1 2.1-1 3.3 0 3.39 2.69 5.98 5.98 5.98v15.07z" fill="#fff400"/><path d="m389.41 331.04c1.59 1.1 2.69 2.9 2.69 4.99a6 6 0 0 1 -5.99 5.99c-3.39 0-5.98-2.69-5.98-5.99 0-3.29 2.59-5.98 5.98-5.98 1.2 0 2.4.4 3.3.99zm0 49.39c1.59 1.1 2.69 2.89 2.69 4.99 0 3.29-2.69 5.98-5.99 5.98-3.39 0-5.98-2.69-5.98-5.98 0-3.3 2.59-5.99 5.98-5.99 1.2 0 2.4.4 3.3 1zm-31.83-9.98c3.39 0 5.99 2.7 5.99 5.99s-2.6 5.98-5.99 5.98c-3.29 0-5.98-2.69-5.98-5.98s2.69-5.99 5.98-5.99zm-8.97 22.45c3.29 0 5.98 2.69 5.98 5.99 0 3.39-2.69 5.98-5.98 5.98-3.3 0-5.99-2.59-5.99-5.98a6 6 0 0 1 5.99-5.99zm-13.47-13.47c3.29 0 5.98 2.69 5.98 5.99 0 3.29-2.69 5.98-5.98 5.98-3.3 0-5.99-2.69-5.99-5.98a6 6 0 0 1 5.99-5.99zm-20.95-71.93c-3.3 0-5.99-2.59-5.99-5.98a6 6 0 0 1 5.99-5.99c3.29 0 5.98 2.69 5.98 5.99 0 3.39-2.69 5.98-5.98 5.98zm0 49.48c-3.3 0-5.99-2.69-5.99-5.98a6 6 0 0 1 5.99-5.99c3.29 0 5.98 2.69 5.98 5.99 0 3.29-2.69 5.98-5.98 5.98zm-8.98-26.93c-3.3 0-5.99-2.7-5.99-5.99 0-3.39 2.69-5.98 5.99-5.98 3.29 0 5.98 2.59 5.98 5.98 0 3.29-2.69 5.99-5.98 5.99zm0 49.38a6 6 0 0 1 -5.99-5.99c0-3.29 2.69-5.98 5.99-5.98 3.29 0 5.98 2.69 5.98 5.98 0 3.3-2.69 5.99-5.98 5.99zm-13.47-74.92c3.29 0 5.99 2.69 5.99 6.09 0 3.29-2.7 5.98-5.99 5.98s-5.99-2.69-5.99-5.98c0-3.4 2.7-6.09 5.99-6.09zm0 49.48c3.29 0 5.99 2.7 5.99 5.99s-2.7 5.98-5.99 5.98-5.99-2.69-5.99-5.98 2.7-5.99 5.99-5.99zm-28.53-8.98c3.39 0 6.08 2.69 6.08 5.99 0 3.29-2.69 5.98-6.08 5.98-3.3 0-5.99-2.69-5.99-5.98a6 6 0 0 1 5.99-5.99zm-8.98 34.42c-3.29 0-5.99-2.69-5.99-5.99 0-3.29 2.7-5.98 5.99-5.98 3.39 0 5.98 2.69 5.98 5.98 0 3.3-2.59 5.99-5.98 5.99zm-13.47-25.44c3.29 0 5.99 2.7 5.99 5.99s-2.7 5.98-5.99 5.98-5.99-2.69-5.99-5.98 2.7-5.99 5.99-5.99z"/><path d="m177.11 314.58.6 1.8c-13.77 8.28-16.56 24.04-16.56 43.3-12.67.8-20.15.6-26.74 10.77-9.38 14.57-19.55 36.02-34.52 49.49h-34.81v-10.38l105.94-203.32 6.09 3.19z" fill="#ffa500"/><g fill="none"><g stroke="#000" stroke-width="26.96"><path d="m795.94 419.94h.5v257.28h-731.86v-257.28h716.9zm-730.86-10.38 105.94-203.32 3-5.69 509.88.4h7.59l106.05 211.7-1.6 7.29m-618.83-210.51v105.15m506.79-111.83v115.13"/><path d="m99.89 419.94c14.97-13.47 25.14-34.92 34.52-49.49 6.59-10.17 14.07-9.97 26.74-10.77 0-19.26 2.79-35.02 16.56-43.3.9-.6 1.9-1.1 2.89-1.6 2.89-16.76 24.44-16.96 38.21-16.26 31.73 1.7 34.72-13.27 57.96-29.33 24.05-16.56 55.07-16.96 81.91-6.58 22.85 8.88 38.31 27.73 60.75 35.81 3.2 1.1 6.49 2 10.08 2.7 14.57 2.69 33.521 4.38 47.78.59 12.68-3.49 23.76-12.67 36.12-16.96 27.34-9.37 31.13.5 52.38 15.67 37.91 27.03 89.29-28.63 116.62 14.56.6 1 1.1 2 1.49 2.9 2.699 5.58 1.81 8.88 9.59 13.67 5.979 3.59 13.16 2.49 19.149 6.28 10.181 6.59 9.28 16.86 14.86 25.14 6.59 9.68 19.06 12.27 25.85 22.45 5.58 8.28 21.25 30.22 28.131 34.52"/></g><path d="m0 0h850.394v850.394h-850.394z"/></g></svg>