<svg height="850.394" viewBox="0 0 850.394 850.394" width="850.394" xmlns="http://www.w3.org/2000/svg"><path d="m125.66 547.11-.18 1.939c10.95.99 22 4.34 30.95 12.01 28.47 24.391 96.57 54.891 120.97 56.921 24.4 2.039 37.61 20.329 37.61 73.189 0 42.54-10.53 59.4-14.64 64.37-45.77 6.97-148.3-21.65-167.66-61.32-20.33-41.67-42.35-112.83-42.35-112.83s-36.6-25.42-10.17-41.68c0 0 72.18-57.94 125.04-101.66 52.86-43.71 239.9-219.57 277.51-256.17 35.09-34.129 77.25-88.609 125.66-85.879-8.87 9.89-70.58 78.52-102.61 109.6-34.57 33.55-157.94 152.08-214.49 204.33-79.06 73.04-163.03 135.26-165.64 137.18zm153.44 170.16c9.49-14.909 0-62.35-21.69-67.77-21.69-5.43-116.56-55.57-116.56-55.57s-20.33-2.71 0 42.021c6.2 13.63 8.13 36.59 37.95 60.99 29.82 24.399 90.81 35.239 100.3 20.329z" fill="#f6cc4b"/><path d="m758.23 176.8c20.329 40.66 7.109 74.21-8.131 93.52-1.79 2.26-8.08 9.3-17.81 19.97l-2.521-1.67c-2.039-27.45-17.479-82.11-26.5-88.87-9.02-6.77-83.289-34.47-83.289-34.47s-12.2 7.46 7.109 17.62c19.32 10.17 55.91 13.22 68.11 37.61 12.2 24.4 23.38 80.31 23.38 80.31l1.689 2.6c-86.659 94.35-329.01 353.19-329.01 353.19s-42.7 86.409-84.38 97.59c-2.01.54-4.19.979-6.51 1.34 4.11-4.97 14.64-21.83 14.64-64.37 0-52.86-13.21-71.15-37.61-73.189-24.4-2.03-92.5-32.53-120.97-56.921-8.95-7.67-20-11.02-30.95-12.01l.18-1.939c2.61-1.92 86.58-64.141 165.64-137.18 56.55-52.25 179.92-170.78 214.49-204.33 32.03-31.08 93.74-99.71 102.61-109.6 3.489.19 7.01.69 10.56 1.51 42.783 9.869 118.943 38.629 139.273 79.289z" fill="#f6cc4b"/><path d="m257.41 649.5c21.69 5.42 31.18 52.86 21.69 67.77s-70.48 4.07-100.3-20.329c-29.82-24.4-31.75-47.36-37.95-60.99-20.33-44.73 0-42.021 0-42.021s94.87 50.14 116.56 55.57z" fill="#ee947d"/><g fill="none"><g stroke="#231f20"><path d="m300.37 755.54c-45.77 6.97-148.3-21.65-167.66-61.32-20.33-41.67-42.35-112.83-42.35-112.83s-36.6-25.42-10.17-41.68c0 0 72.18-57.94 125.04-101.66 52.86-43.71 239.9-219.57 277.51-256.17 35.09-34.13 77.25-88.61 125.66-85.88 3.489.19 7.01.69 10.56 1.51 42.78 9.87 118.94 38.63 139.271 79.29 20.329 40.66 7.109 74.21-8.131 93.52-1.79 2.26-8.08 9.3-17.81 19.97-3.56 3.91-7.59 8.3-12.021 13.13-86.659 94.35-329.01 353.19-329.01 353.19s-42.7 86.409-84.38 97.59c-2.009.54-4.189.98-6.509 1.34z" stroke-width="21"/><path d="m78.16 555.97s23.42-9.08 47.32-6.92c10.95.99 22 4.34 30.95 12.01 28.47 24.39 96.57 54.89 120.97 56.92 24.4 2.039 37.61 20.329 37.61 73.189 0 42.54-10.53 59.4-14.64 64.37-1 1.21-1.62 1.71-1.62 1.71" stroke-width="21"/><path d="m125.6 547.16s.02-.021.06-.05c2.61-1.92 86.58-64.141 165.64-137.18 56.55-52.25 179.92-170.78 214.49-204.33 32.03-31.08 93.74-99.71 102.61-109.6.71-.78 1.08-1.2 1.08-1.2" stroke-width="14"/><g stroke-width="21"><path d="m729.77 288.62c-2.039-27.45-17.479-82.11-26.5-88.87-9.02-6.77-83.289-34.47-83.289-34.47s-12.2 7.46 7.109 17.62c19.32 10.17 55.91 13.22 68.11 37.61 12.2 24.4 23.38 80.31 23.38 80.31m-83.35 83.36c-2.04-27.45-17.48-82.12-26.5-88.88-9.021-6.77-83.29-34.46-83.29-34.46s-12.2 7.45 7.119 17.62c19.311 10.16 55.91 13.21 68.101 37.61 12.2 24.4 23.38 80.31 23.38 80.31m-92.5 100.63c-2.03-27.439-17.47-82.11-26.5-88.87-9.021-6.77-83.29-34.47-83.29-34.47s-12.2 7.46 7.12 17.62c19.31 10.17 55.91 13.22 68.11 37.62 12.189 24.39 23.38 80.3 23.38 80.3m-98.61 102.67c-2.03-27.439-17.47-82.11-26.49-88.87-9.02-6.77-83.3-34.46-83.3-34.46s-12.19 7.45 7.12 17.61c19.32 10.17 55.91 13.22 68.11 37.62 12.2 24.39 23.38 80.3 23.38 80.3" stroke-linecap="round" stroke-linejoin="round"/><path d="m140.85 593.93s94.87 50.141 116.56 55.57c21.69 5.42 31.18 52.86 21.69 67.77s-70.48 4.07-100.3-20.329c-29.82-24.4-31.75-47.36-37.95-60.99-20.33-44.731 0-42.021 0-42.021z"/></g></g><path d="m0 0h850.394v850.394h-850.394z"/></g></svg>