<svg height="850.394" viewBox="0 0 850.394 850.394" width="850.394" xmlns="http://www.w3.org/2000/svg"><path d="m442.15 54.48 11.71 62.45-11.97 43.71v313.9h-33.31v-313.9l-14.32-43.9 11.71-62.45z" fill="#c8c8c8"/><path d="m460.94 474.54c7.829 0 14.189 8.52 14.189 19.04s-6.36 19.05-14.189 19.05h-69.18c-3.92 0-7.46-2.13-10.03-5.58-2.56-3.45-4.15-8.21-4.15-13.47 0-10.521 6.35-19.04 14.18-19.04zm21.19 140.27c9.11 51.78-9.54 143.811-9.54 143.811 0 21.12-21.32 38.25-47.62 38.25s-47.62-17.13-47.62-38.25c0 0-19.78-92.48-10.68-144.26 9.8-55.67 27.94-71.021 27.94-101.73h59.59c0 30.699 18.14 46.509 27.93 102.179z" fill="#f73900"/><g fill="none"><g stroke="#000" stroke-width="18.735"><path d="m394.61 512.63c0 30.71-18.14 46.061-27.94 101.73-9.1 51.779 10.68 144.26 10.68 144.26 0 21.12 21.32 38.25 47.62 38.25 26.299 0 47.62-17.13 47.62-38.25 0 0 18.65-92.03 9.54-143.811-9.79-55.67-27.93-71.479-27.93-102.18"/><path d="m408.58 474.54h-16.82c-7.83 0-14.18 8.52-14.18 19.04 0 5.26 1.59 10.02 4.15 13.47 2.57 3.45 6.11 5.58 10.03 5.58h69.18c7.829 0 14.189-8.53 14.189-19.05 0-10.521-6.36-19.04-14.189-19.04h-19.05m-33.31 0v-313.9l-14.32-43.9 11.71-62.45 36.18.19 11.71 62.45-11.97 43.71v313.9z"/></g><path d="m0 0h850.394v850.394h-850.394z"/></g></svg>