<svg height="850" viewBox="0 0 850 850" width="850" xmlns="http://www.w3.org/2000/svg"><path d="m594 490.1-9.5 4.3-7.5 3.7-4.7 3-6 4-1.5-1.2-.3-4-.2-4.5-1.5-10.3-2-10.7-2.5-11-2.3-9.8-2-8-2-7.5-1.7-5 24-8.7 5.2 1 2.3 7.2 2.2 8 2.8 9.5 2.5 10.5 2.2 10.8 1 5 .8 5 .2 4.2.3 4z" fill="#f6cc4b"/><path d="m593.8 489.6-.3-4-.2-4.2-.8-5-1-5-2.2-10.8-2.5-10.5-2.8-9.5-2.2-8-2.3-7.2-5.2-1 23.5-8.8 3.5-1.2 5.2 1.2 2.5 7.3 2.8 7.7 3 9.5 2.7 10.3 2.8 10.7 1 5 .7 4.8.5 4.5.3 4-15.3 5.5-13.5 5.2zm-27.5 15.5-13.3 8.5-8 5-8.7 5-9 5-9.5 5-10.3 5-11 4.8-11.7 4.7-12.3 4-6.5 2-6.5 1.8-6.5 1.7-7 1.5-9.2 1.8-.5-4.3-.3-15.2-.2-12.3-.5-14-.8-14.2-1-13.8-.5-6-.7-5.2-.8-4.8-.7-3.5.5-3.5 5.7.5 5.5.3 5.3-.3 5.2-.2 5-.5 4.5-.8 4.5-.7 4.3-1 10-3.3 17.7-6.2 51.3-18.8 1.7 5 2 7.5 2 8 2.3 9.8 2.5 11 2 10.7 1.5 10.3.2 4.5.3 4zm-339.8-108.7-1.2 4.7-3.3 7-7.7 17-9.5 22-4.8 11.5-4.5 10.8-3.7 10.7-3 9-2 7.8-1.3 6-1 4.7-.5 3.3v2.5l-8.5-4.3-6.7-4-2.8-2-2.2-1.7-1.8-1.8-1.5-1.5-1-1.7-.5-2-.5-2.3v-5.7l.5-3.3.8-3.5 1-3.7 2.5-7.8 3.2-8.2 3.5-8.5 4.3-8.8 4.2-8.5 4.5-8.2 4.3-7.8 7.7-13.2 5.8-9.3 2-3.5v-1l4.2.3 4.8 1 6.2 1.5z" fill="#f6cc4b"/><path d="m424.3 334.9h-4.8l-28.5 6.7-13.7 3-13 2.8-4.3-.5.5-4.5.8-4.3 1-3.7 1.2-3.8 1.5-3.5 1.8-3 2-2.5 2.5-2.2 17-13.5 17.7-13.5 19.3-15-.5 17.5-.5 18.2zm-324.3-189.8 1.8.3 2 .2 1.7.5 1.8.5 1.5.8 1.7 1 1.3 1.2 1.5 1 1.2 1.5 1 1.5 1 1.5.8 1.5.5 1.8.5 1.7.2 2 .3 2-.3 1.8-.2 2-.5 1.7-.5 1.8-.8 1.5-1 1.7-1 1.3-1.2 1.5-1.5 1.2-1.3 1-1.7 1-1.5.8-1.8.5-1.7.5-2 .2-1.8.3-2-.3-2-.2-1.7-.5-1.8-.5-1.5-.8-1.7-1-1.3-1-1.5-1.2-1.2-1.5-1-1.3-1-1.7-.8-1.5-.5-1.8-.5-1.7-.2-2-.3-1.8.3-2 .2-2 .5-1.7.5-1.8.8-1.5 1-1.5 1-1.5 1.2-1.5 1.5-1 1.3-1.2 1.7-1 1.5-.8 1.8-.5 1.7-.5 2-.2zm-19.2 356.3-1.5-3-1.3-3.3-1-3.5-.5-3.5-.5-4v-8.2l.5-4 1-8.3 1.3-7.7 1.7-7.3 1.8-6-2.5-2.2-2.5-2.3-2.5-2-2-2.2-2-2.5-.8-1.3-.5-1.5-.7-1.7-.3-1.8-.2-2-.3-2 .3-3.7.5-3.8.7-3.7 1.3-3.5 1.7-3.3 2.3-3 2.7-2.7 1.5-1.3 1.5-1.2 1.8-1 2-.8 2-.5 2-.5 4.2-.7 4.3-.3 4.2-.2 4-.5 4-.8 1.8-.5 1.7-1 2-1.2 2-1.5 1.3-1.5 1.2-1.5.8-1.8.2-1.7.3-1.8v-1.7l-.3-2-.2-1.8-1.3-4-1.7-3.7-1.8-3.8-1.7-4.5-1.3-4.5-.7-4.2v-4l.2-4 1-3.8 1.3-3.5 1.7-3.2 2.3-3.3 2.7-3 3-2.5 3.3-2.5 3.7-2.2 4.3-2 4.2-1.8 4.5-1.5 4.5-1.5 3.8-1.5 1.2-.7 1.3-1 1-1 .7-1.3.8-1.2.2-1.5.5-1.8v-6.5l-.5-5.5-.5-4.2-1-4-1.2-4-1.5-4-3-7.5-1.3-4-1-4.3-.5-2.2-.2-2.3v-2.2l.2-2.3.5-2.2.5-2.3.8-2.2 1-2.3 2-4.5 2.7-4.5 3.3-4 3.5-4 4-3.7 4-3.3 4.5-2.7 4.5-2.5 4.5-2 4.5-1.5 2.2-.3 2-.5h4.5l4.5.5 4.3.8 3.7 1.5 3.5 1.7 3.3 2 3 2.5 3.2 2.8 3 3 1.8 1.7 1.7 1.3 1.5 1 1.5.7 1.3.5 1.2.3h1.5l1.3-.3 1.5-.5 1.2-.5 3.3-1.7 8-5 11.5-6.8 5.7-3.2 5.8-2.8 5.7-2.7 5.5-2.5 5.8-2 6-1.8 5.7-1.2 6-.8 6-.5h6l6.3.5 6.2 1.3 6.5 1.5 6.8 2.2 3.7 1.8 3.5 2 3.3 2.5 3 2.5 2.7 2.7 2.5 3 2 3.3 1.8 3.5 2.2 3.5-10.7 9.7-9.5 9-8.5 8.5-7.5 7.5-6.3 7-5.5 6.3-4.7 5.5-3.8 5-3.2 4.2-2.5 3.8-3.3 5.5-1.7 3.2-.5 1.3v16.5l.2 17.7.5 10.5.5 11.3.3 1.2-4.5.3h-23.3l-14 .2-14.7.5-14.3 1-6.7.5-6.5.8-6 1-5.5 1-4.5 1-4 1.2-4.5.3-3.8.5-3.5.5-2.7.5-3.8 1-1.5.5 1 4.2 1 4.3 1.5 4.7 1 2.5 1.3 2.5 1 2 1.5 2 1.5 1.8 1.7 1 1.8.7 1 .3h.7l4-.3h3.3v1l-2 3.5-5.8 9.3-7.7 13.2-4.3 7.8-4.5 8.2-4.2 8.5-4.3 8.8-3.5 8.5-3.2 8.2-2.5 7.8-1 3.7-.8 3.5-.5 3.3v5.7l.5 2.3-1.7.5-6 6.2-3.3 3.3-3.2 3.2-3.5 3-3.5 2.8-3.8 2.2-2 1-2 .8-3 .7-3.2.8-3.3.2-3.2.3-3.5-.3-3.5-.2-3.5-.8-3.5-.7-3.3-1.3-3.2-1.2-3.3-1.8-3-1.7-2.7-2-2.8-2.5-2.2-2.5zm82 73 2.2-6.3 1.3-2.7 1.2-2.8 1.8-2.5 2.2-2.2 1.3-1 1.5-1 1.5-1 2-.8 3.5-1.2 3.7-.8 3.8-.5h3.7l3.8.5 3.7 1 3.5 1.5 1.5 1 1.8 1.3 1.5 1.2 1.5 1.5 1.2 1.5 1 1.8 2 3.7 1.8 4 1.7 4 2 3.5 2 3.5 1.3 1.5 1.2 1.3 2 1.5 2 1.2 2 .8 1.8.5 1.7.2 2-.2 1.8-.5 1.5-.5 1.7-1 1.8-1 3-2.5 3-2.8 3-3 3.7-3.2 3.8-2.8 3.7-2 3.8-1.7 3.7-1 3.8-.5 3.7.2 3.8.5 3.7 1 3.8 1.5 3.5 1.8 3.5 2.5 3.2 2.5 3.5 3.2 3 3.5 3 3.8 3 3.7 2.5 2.8 1.5 1 1.3.7 1.2.8 1.5.2h3l1.8-.2 1.7-.5 4.3-1.5 5-2.5 3.7-2 3.5-2.5 3.3-2.5 3.2-2.8 6-5.2 3.5-2.8 3.5-2.5 1.8-1 2.2-1 2-.7 2.3-.5 2.2-.5 2.3-.3h5l5 .5 5 1 5 1.5 4.7 2 4.8 2.5 4.7 2.8 4 3 4 3.2 3.3 3.5 3 3.8 1.2 2 1 2 .8 2 .7 2 1.3 4.5.5 4.2v4l-.3 3.8-.7 3.7-1.3 3.8-1.5 4-1.7 4-1 2.2-.8 2-.5 1.8-.2 1.5v1.5l.2 1.5.5 1.2.8 1 .7 1.3 1.3 1 2.7 2.5 7.5 5.7 10.3 8.5 5 4.3 4.7 4.2 4.3 4.5 4.2 4.5 4 4.8 3.5 4.7 3.3 5 3 5.3 2.5 5.5 2 5.7 1.7 6 1 6.3.8 6.7.2 7-.5 5-.7 4.5-1.5 4.5-1.8 4.3-2.2 4-2.8 3.5-3 3.2-3.2 3-3.8 2.3-3.7 2-4.3 1.5-4.2.7-2.3.3-2.2.2h-2.3l-2.2-.2-2.3-.5-2.5-.5-2.2-.8-2.5-.7-4.3-2.3-3.7-2.2-3.3-2.8-3-3-2.5-3.5-2.5-3.5-2.2-3.5-2-4-1 5.8-1.5 5.2-1.8 5.3-2.2 5-2.3 4.5-3 4.2-3 4-3.5 3.5-3.7 3.3-4.3 2.7-4.5 2.5-4.7 1.8-5 1.7-5.5 1-5.8.8h-6l-4-.3-4-.2-4-.8-4.2-.7-4-1-4.3-1.3-4.2-1.5-4-1.5-4-2-4-1.7-3.8-2.3-3.5-2.2-3.5-2.5-3-2.5-3-2.8-2.7-3-2.8-3.5-2.5-3.7-2-3.8-1.7-3.7-1.3-3.8-1-3.7-.7-3.8-.5-3.7-.3-4-.2-4v-16l-.5-8.5-.3-3.3-.7-3.2-.8-2.5-1.2-2.5-1.3-2.3-1.5-1.7-1.7-1.5-2-1.5-2-1-2.3-1-2.2-.8-2.5-.5-2.8-.5-2.5-.2h-5.7l-5.8.2-6 .8-11.7 1.5-5.8.7-5.5.3-5 .2-2.2-.2-2-.3-3.3-.7-3-.8-3.2-1.2-3.3-1.5-3-1.8-3.2-1.7-2.8-2.3-2.7-2.2-2.5-2.5-2.3-2.5-2-3-1.7-3-1.3-3-1-3.3-.5-3.5v-5.7l.5-2.3.5-2 .5-2.2 1-2 .8-1.8 1-1.7 1.2-1.8 1.3-1.5 1.5-1.2 1.5-1.3 1.7-1 1.8-1 1.7-.5 2-.5 2.3-.2-2.5-1.3-2.5-.7-2.8-.5-2.7-.3-5.5-.2-5.8.2-5.5.3h-5.7l-2.8-.3-3-.2-2.7-.8-2.5-.7-4.5-1.8-4-2.2-4-2.5-3.5-3.3-3-3.2-2.8-4-2.2-4-.8-2.3-.7-2.2-1-3.8-.5-4v-4l.2-4.2.5-2 .5-2 .8-1.8 1-1.7 1-1.8 1.2-1.5 1.5-1.2 1.5-1.3 2-1 2.3-1 2-.5 2.2-.2 2.3-.3 2.5.3 4.5.5 4.7 1 4.5 1 4.5 1zm379.7 54.2h1.8l2 .3 1.7.5 1.8.7 1.7.8 1.5 1 1.5 1 1.3 1.2 1.2 1.3 1 1.5 1 1.5.8 1.7.7 1.8.3 1.7.5 1.8v4l-.5 1.7-.3 1.8-.7 1.7-.8 1.8-1 1.5-1 1.5-1.2 1.2-1.3 1.3-1.5 1-1.5 1-1.7.7-1.8.8-1.7.5-2 .2h-3.8l-1.7-.2-2-.5-1.5-.8-1.8-.7-1.5-1-1.5-1-1.2-1.3-1.3-1.2-1.2-1.5-.8-1.5-1-1.8-.5-1.7-.5-1.8-.2-1.7v-4l.2-1.8.5-1.7.5-1.8 1-1.7.8-1.5 1.2-1.5 1.3-1.3 1.2-1.2 1.5-1 1.5-1 1.8-.8 1.5-.7 2-.5 1.7-.3z" fill="#fff"/><path d="m369.8 447.1-.5 1.3-.3 8.2v8.5l.5 17.3.3 17.2v8.5l-.3 8.3-.5 11-.5 12-.2 23.5-8.3-1-8.5-1-8-1-8.2-1.5.5-2-.8-2.5-.7-3.3-.8-4.7-.7-6.3-.8-8-.2-9.5v-11.2l.5-13.5.7-14.3 2-26.7.8-5.3 3.5.5h3.5l3.2-.2 3.3-.8 3.2-1 2.8-1.2 2.7-1.8 2.3-2h2.5zm-112.3 93.3-10.5-3-10.5-3.3-10-3.2-9.7-3.5-9-3.5-8.8-3.5-7.7-3.5-7.3-3.5v-2.5l.5-3.3 1-4.7 1.3-6 2-7.8 3-9 3.7-10.7 4.5-10.8 4.8-11.5 9.5-22 7.7-17 3.3-7 1.2-4.7 5 1.2 5.5 1.5 7 2.3 18 6.2 21.8 7.8 24.2 8.7-1.5 4-1.2 7.5-3.5 18.3-4 24-1.8 12.2-1.5 11.3-1.2 11.5-.5 9.5-.3 7.7v6.3l.5 4.7.3 3.5.5 2.5-4.5 1.5-16.5-4.2z" fill="#f6cc4b"/><path d="m401.8 461.4-.3 7.2v7.5l.5 15 .5 15v7.3l-.5 7.5-.5 10.2-.2 11.3-.3 21.7h-8.2l-8.3-.2-8-.5-8.2-.5.2-23.5.5-12 .5-11 .3-8.3v-8.5l-.3-17.2-.5-17.3v-8.5l.3-8.2.5-1.3 18.7 7 6.8 2.3 6.5 2.2zm-66-10.3-.8 5.3-2 26.7-.7 14.3-.5 13.5v11.2l.2 9.5.8 8 .7 6.3.8 4.7.7 3.3.8 2.5-.5 2-12-2.3-11.8-2.2-11.5-2.8-10.7-2.5 4.5-1.5-.5-2.5-.3-3.5-.5-4.7v-6.3l.3-7.7.5-9.5 1.2-11.5 1.5-11.3 1.8-12.2 4-24 3.5-18.3 1.2-7.5 1.5-4 4 1.5h2l1.8 5.8 1.7 5.2 1.5 3 1.5 2.8 2 2.2 2.5 2 2.5 1.5 2.5 1.5 3 1zm375.2-18 .8 3.5.7 5.5.3 2.8-.3 2.5-.2 1-.3 1-.5.7-.5.5-1.7.8-4.5 2-7.8 3.2-10.7 3.8-.3-4-.7-4.5-1-5-1.3-5-1.7-5.5-1.8-5.5-3.7-10.5-3.8-9.8-3.5-8-3.2-7.5-1.5-4 27.5-10.2 2.5 6.7 2.5 7 6 13.3 2.7 6.5 2.5 6.5 2 6.2.8 3z" fill="#f6cc4b"/><path d="m686.3 460.4-10.3 3-11.7 3.2-12.8 3.5-.2-.7.2-2.3.3-2.5.2-5.2-.5-5.5-.7-5.5-1.3-5.8-1.2-5.5-1.8-5.5-1.7-5.2-3.8-9.5-3.5-7.8-3.5-7 29.8-11 1.5 4 3.2 7.5 3.5 8 3.8 9.8 3.7 10.5 1.8 5.5 1.7 5.5 1.3 5 1 5 .7 4.5zm-250 96.2.5 4.3-9 1.2-8.8 1-9 .5-9 .5.3-21.7.2-11.3.5-10.2.5-7.5v-7.3l-.5-15-.5-15v-7.5l.3-7.2v-2.8l7.7 2 7.5 1.5 7.3 1.3 7 .7-.5 3.5.7 3.5.8 4.8.7 5.2.5 6 1 13.8.8 14.2.5 14 .2 12.3z" fill="#f6cc4b"/><path d="m651.3 469.4.2.7-14.5 4.5-14.2 4.8-.3-4-.5-4.5-.7-4.8-1-5-2.8-10.7-2.7-10.3-3-9.5-2.8-7.7-2.5-7.3-5.2-1.2 32.7-12.3 3.5 7 3.5 7.8 3.8 9.5 1.7 5.2 1.8 5.5 1.2 5.5 1.3 5.8.7 5.5.5 5.5-.2 5.2-.3 2.5z" fill="#f6cc4b"/><path d="m487 409.4-1.2.2-1 1.8-1.8 1.5-2.2 1.7-2.8 1.3-3.2 1.2-3.5 1.3-3.8.7-3.7.5-4 .5h-4l-4-.2-3.8-.8-3.5-1-3.2-1.5-1.8-1-1.2-1-1.5-1-1-1.2-1.5-2.3-1.5-2.5-1.3-3.2-1-3.8-1-4-1-4.5-1.5-10-1-11.2-.7-11.8-.5-12.2-.5-12v-21.8l.5-18.2.5-17.5-19.3 15-17.7 13.5-17 13.5-2.5 2.2-2 2.5-1.8 3-1.5 3.5-1.2 3.8-1 3.7-.8 4.3-.5 4.5-.5 4.7v1.5l-.5 6.8.3 7v7.2l.5 7.5 1.2 14.8 1.3 14.2 1.2 11.8.8 10.5v3.2l-.3 1.8-.5 1.5-.7 1.2-.8 1.5-1.7 2.5-2.3 2-2.7 1.8-2.8 1.2-3.2 1-3.3.8-3.2.2h-3.5l-3.5-.5-2.8-.5-3-1-2.5-1.5-2.5-1.5-2.5-2-2-2.2-1.5-2.8-1.5-3-1.7-5.2-1.8-5.8-2-8.5-1.7-9-1.8-9.2-1.2-9.8-1-8.7-.8-8.8-1.2-17-.3-1.2-.5-11.3-.5-10.5-.2-17.7v-16.5l.5-1.3 1.7-3.2 3.3-5.5 2.5-3.8 3.2-4.2 3.8-5 4.7-5.5 5.5-6.3 6.3-7 7.5-7.5 8.5-8.5 9.5-9 10.7-9.7 11.8-10.5 13.2-11 68-56.3 108.5-89.2 206.8 132.2-2.5 4.5-2.8 4.3-2.7 4.2-3 4-3.3 4-3.2 4-6.8 7.5-7.2 7.5-7.8 7-7.7 7-8.3 7-4.5 4-4.2 3-4 2.8-3.8 2.5-3.5 2-3.5 1.7-6.5 3-6.7 3.3-7.5 3.7-4 2.3-4.3 2.7-4.7 3.3-5 3.7-5 4.3-5 5-4.5 5.2-4.3 5.5-3 4.3-2.7 4.5-2.5 4.7-2.3 4.5-2 4.5-1.7 4.3-1.5 4.2-1 4-.8 4-.5 3.5v3.3l.3 3 .7 2.2 1 2.3.8.7.7.8 1 .5 1 .5 2.3 1 1.7 1 1.5 1.2 1.3 1.3.7 1.5.5 1.5.3 1.7v1.8l-.5 2-.5 2.2-1 2.3-1 2.2-2.5 4.3-2.8 4-2.7 3.5-2.5 2.7-2.3 2.5-6.2 4.8-3 2.2-3.3 2.3-3.2 1.7-3.3 1.8-3.2 1.5-3.5 1.2-3.8 1.5-3.7.8-4 .7-3.8.3-3.7-.3-4-.5-3.8-1-3.5-1.5-1.5-1-1.2-1.5-1-2-1-2.5-1.5 2.5-2 2.8-2.8 2.7-3 2.8-3.7 2.5-4 2.5-4.3 2.2-4.7 1.8-5 1.7-5 1.3-5.3 1-5.2.2h-5.5l-2.8-.2-2.7-.5-2.5-.5-2.8-.8-2.7-1-2.5-1.2-1.5-.8-.8-1.2-1-1.3-.7-1.5-.5-2-1.3-4.5z" fill="#ffeec8"/><path d="m307.3 389.1-2.3.5-24.5-8.2-22-7-18-5.5-12.5-3.5-4-1-4-.8-7.2-1-6.5-.5h-6l4-1.2 4.5-1 5.5-1 6-1 6.5-.8 6.7-.5 14.3-1 14.7-.5 14-.2h23.3l4.5-.3 1.2 17 .8 8.8z" fill="#a9d7f3"/><path d="m200.3 362.1h6l6.5.5 7.2 1 4 .8 4 1 12.5 3.5 18 5.5 22 7 24.5 8.2 2.3-.5 1.2 9.8 1.8 9.2 1.7 9 2 8.5h-2l-4-1.5-24.2-8.7-21.8-7.8-18-6.2-7-2.3-5.5-1.5-5-1.2-8.5-2.5-6.2-1.5-4.8-1-4.2-.3h-3.3l-4 .3h-.7l-1-.3-1.8-.7-1.7-1-1.5-1.8-1.5-2-1-2-1.3-2.5-1-2.5-1.5-4.7-1-4.3-1-4.2 1.5-.5 3.8-1 2.7-.5 3.5-.5 3.8-.5zm286.7 47.3 1 5.2 1.3 4.5.5 2 .7 1.5 1 1.3.8 1.2-7 2.3-8 2-4.5 1-4.3.7-4.7.8-4.8.5-4.7.5h-10.3l-5-.3-5.2-.7-5.3-.8-5-1.2-5.2-1.8-52.3-18-3.7.5-1.3-14.2-1.2-14.8-.5-7.5v-7.2l-.3-7 .5-6.8v-1.5l.5-4.7 4.3.5 13-2.8 13.7-3 28.5-6.7h4.8l.5 12 .5 12.2.7 11.8 1 11.2 1.5 10 1 4.5 1 4 1 3.8 1.3 3.2 1.5 2.5 1.5 2.3 1 1.2 1.5 1 1.2 1 1.8 1 3.2 1.5 3.5 1 3.8.8 4 .2h4l4-.5 3.7-.5 3.8-.7 3.5-1.3 3.2-1.2 2.8-1.3 2.2-1.7 1.8-1.5 1-1.8z" fill="#a9d7f3"/><path d="m597.8 415.6-23.5 8.8-24 8.7-51.3 18.8-17.7 6.2-10 3.3-4.3 1-4.5.7-4.5.8-5 .5-5.2.2-5.3.3-5.5-.3-5.7-.5-7-.7-7.3-1.3-7.5-1.5-7.7-2-6.5-2.2-6.8-2.3-18.7-7-7-2.5h-2.5l1.7-2.5.8-1.5.7-1.2.5-1.5.3-1.8v-3.2l-.8-10.5-1.2-11.8 3.7-.5 52.3 18 5.2 1.8 5 1.2 5.3.8 5.2.7 5 .3h10.3l4.7-.5 4.8-.5 4.7-.8 4.3-.7 4.5-1 8-2 7-2.3 1.5.8 2.5 1.2 2.7 1 2.8.8 2.5.5 2.7.5 2.8.2h5.5l5.2-.2 5.3-1 5-1.3 5-1.7 4.7-1.8 4.3-2.2 4-2.5 3.7-2.5 3-2.8 2.8-2.7 2-2.8 1.5-2.5 1 2.5 1 2 1.2 1.5 1.5 1 3.5 1.5 3.8 1 4 .5 3.7.3 3.8-.3 4-.7 3.7-.8 3.8-1.5zm91.2-64.7-.5 3.7-.5 3.8v3.7l.3 3.8.5 3.7.7 3.8.8 3.7 1 3.8-27.5 10.2-29.8 11-32.7 12.3-3.5 1.2-1-2.5 3.5-1.2 3.2-1.5 3.3-1.8 3.2-1.7 3.3-2.3 3-2.2 6.2-4.8 2.3-2.5 2.5-2.7 2.7-3.5 2.8-4 2.5-4.3 1-2.2 1-2.3.5-2.2.5-2h4l43.5-14.8 2-3z" fill="#a9d7f3"/><path d="m689 350.9-1.2 3.2-2 3-43.5 14.8h-4v-1.8l-.3-1.7-.5-1.5-.7-1.5-1.3-1.3-1.5-1.2-1.7-1-2.3-1-1-.5-1-.5-.7-.8-.8-.7-1-2.3-.7-2.2-.3-3v-3.3l.5-3.5.8-4 1-4 1.5-4.2 1.7-4.3 2-4.5 2.3-4.5 2.5-4.7 2.7-4.5 3-4.3 4.3.8 5.2 2 5.3 2.2 5 2.3 4.5 2.2 4.2 2.5 4 2.8 3.5 2.7 3.3 2.8 2.5 3 2.2 3 1.8 3 1.5 3.2.5 3.3.2 3.2-.2 3.5z" fill="#a9d7f3"/><g fill="none" stroke="#231f20" stroke-linecap="round" stroke-miterlimit="10"><path d="m686.3 460.4 10.7-3.8 7.8-3.2 4.5-2 1.7-.8.5-.5.5-.7.3-1 .2-1 .3-2.5-.3-2.8-.7-5.5-.8-3.5-.7-3-.8-3-2-6.2-2.5-6.5-2.7-6.5-6-13.3-2.5-7-2.5-6.7-1-3.8-.8-3.7-.7-3.8-.5-3.7-.3-3.8v-3.7l.5-3.8.5-3.7 1.3-4m-487.5 45.2-2 3.5-5.8 9.3-7.7 13.2-4.3 7.8-4.5 8.2-4.2 8.5-4.3 8.8-3.5 8.5-3.2 8.2-2.5 7.8-1 3.7-.8 3.5-.5 3.3v5.7l.5 2.3.5 2 1 1.7 1.5 1.5 1.8 1.8 2.2 1.7 2.8 2 6.7 4 8.5 4.3 7.3 3.5 7.7 3.5 8.8 3.5 9 3.5 9.7 3.5 10 3.2 10.5 3.3 10.5 3 15.3 4 16.5 4.2 10.7 2.5 11.5 2.8 11.8 2.2 12 2.3 8.2 1.5 8 1 8.5 1 8.3 1 8.2.5 8 .5 8.3.2h8.2l9-.5 9-.5 8.8-1 9-1.2 9.2-1.8 7-1.5 6.5-1.7 6.5-1.8 6.5-2 12.3-4 11.7-4.7 11-4.8 10.3-5 9.5-5 9-5 8.7-5 8-5 13.3-8.5 6-4 4.7-3 7.5-3.7 9.5-4.3 13.5-5.2 15.3-5.5 14.2-4.8 14.5-4.5 12.8-3.5 11.7-3.2 10.3-3m-386.5-105.5h-23.3l-14 .2-14.7.5-14.3 1-6.7.5-6.5.8-6 1-5.5 1-4.5 1-4 1.2-1 .5m220.2-27.7-28.5 6.7-13.7 3-13 2.8" stroke-width="14"/><path d="m642.3 371.9 43.5-14.8 2-3 1.2-3.2 1.3-3.3.2-3.5-.2-3.2-.5-3.3-1.5-3.2-1.8-3-2.2-3-2.5-3-3.3-2.8-3.5-2.7-4-2.8-4.2-2.5-4.5-2.2-5-2.3-5.3-2.2-5.2-2m-280.8 104.2 52.3 18 5.2 1.8 5 1.2 5.3.8 5.2.7 5 .3h10.3l4.7-.5 4.8-.5 4.7-.8 4.3-.7 4.5-1 8-2 7-2.3 2.5-1m-182.8 1.5-4-1.5-24.2-8.7-21.8-7.8-18-6.2-7-2.3-5.5-1.5-5-1.2-8.5-2.5-6.2-1.5-4.8-1-4.2-.3h-3.3l-4 .3h-.7l-1-.3-1.8-.7-1.7-1-1.5-1.8-1.5-2-1-2-1.3-2.5-1-2.5-1.5-4.7-1-4.3-1-4.2 1.5-.5 3.8-1 2.7-.5 3.5-.5 3.8-.5 4.5-.3h6l6.5.5 7.2 1 4 .8 4 1 12.5 3.5 18 5.5 22 7 24.5 8.2" stroke-width="14"/><path d="m692 380.6-.7.3-27.5 10.2-29.8 11-32.7 12.3-3.5 1.2-23.5 8.8-24 8.7-51.3 18.8-17.7 6.2-10 3.3-4.3 1-4.5.7-4.5.8-5 .5-5.2.2-5.3.3-5.5-.3-5.7-.5-7-.7-7.3-1.3-7.5-1.5-7.7-2-6.5-2.2-6.8-2.3-18.7-7-7-2.5m-137.5-43.5-3.3 7-7.7 17-9.5 22-4.8 11.5-4.5 10.8-3.7 10.7-3 9-2 7.8-1.3 6-1 4.7-.5 3.3v2.5m66.3-101.8-2.5 7-6 17.8-7.8 23-3.7 11.7-3.3 11-3 11-2 9.3-1.5 7.7-.7 6.3-.5 4.7v6m59-107-2.3 7.3-5 18-6 23.2-3 12-2.5 11.5-2.2 11-1.5 9.5-.8 7.8-.5 6.2v8l.3 2.8m51.7-109.3-1.2 7.5-3.5 18.3-4 24-1.8 12.2-1.5 11.3-1.2 11.5-.5 9.5-.3 7.7v6.3l.5 4.7.3 3.5.5 2.5m41.2-90.7-2 26.7-.7 14.3-.5 13.5v11.2l.2 9.5.8 8 .7 6.3.8 4.7.7 3.3.8 2.5m33.5-108-.3 8.2v8.5l.5 17.3.3 17.2v8.5l-.3 8.3-.5 11-.5 12-.2 23.5v3m33.5-104.5-.3 7.2v7.5l.5 15 .5 15v7.3l-.5 7.5-.5 10.2-.2 11.3-.3 21.7m29.8-96.5.7 3.5.8 4.8.7 5.2.5 6 1 13.8.8 14.2.5 14 .2 12.3.3 15.2m27.7-88 1.8 9.5 4 22.8 2 13.5 2 13.5 1.2 12.5.5 5.2v4.5m20.8-91.5 1.7 9 4 21.8 2.3 13 1.7 13 1.5 11.7.3 5.3.2 4.5m13.5-88 2.3 8.7 2.5 9.5 2.7 11.5 2.5 12.5 2.5 12.3 1 6 .8 5.2.2 5 .3 4m15.7-85.5 2 7.5 2 8 2.3 9.8 2.5 11 2 10.7 1.5 10.3.2 4.5.3 4m14.7-78.5 2.3 7.2 2.2 8 2.8 9.5 2.5 10.5 2.2 10.8 1 5 .8 5 .2 4.2.3 4m12.7-74 2.5 7.3 2.8 7.7 3 9.5 2.7 10.3 2.8 10.7 1 5 .7 4.8.5 4.5.3 4" stroke-width="14"/><path d="m634 402.1 3.5 7 3.5 7.8 3.8 9.5 1.7 5.2 1.8 5.5 1.2 5.5 1.3 5.8.7 5.5.5 5.5-.2 5.2-.3 2.5-.2 2.3m14-74.3 3.2 7.5 3.5 8 3.8 9.8 3.7 10.5 1.8 5.5 1.7 5.5 1.3 5 1 5 .7 4.5.3 4m-192.5-186.3-1.8 15.5-1.7 16.8-1.8 20.5-1.7 22.2-.5 11.3-.3 11-.2 10.7v10l.5 9.3.7 8 1 5.2 1.3 4.5.5 2 .7 1.5 1 1.3.8 1.2 1.5.8 2.5 1.2 2.7 1 2.8.8 2.5.5 2.7.5 2.8.2h5.5l5.2-.2 5.3-1 5-1.3 5-1.7 4.7-1.8 4.3-2.2 4-2.5 3.7-2.5 3-2.8 2.8-2.7 2-2.8 1.5-2.5m13.2-122.2-3.2 15-3 16.2-3.3 19.3-1.5 10.5-1.5 10.2-1 10.3-.7 9.7-.5 9.3v12.2l.5 3.5.5 3 .5 3 1 2.5 1 2 1.2 1.5 1.5 1 3.5 1.5 3.8 1 4 .5 3.7.3 3.8-.3 4-.7 3.7-.8 3.8-1.5 3.5-1.2 3.2-1.5 3.3-1.8 3.2-1.7 3.3-2.3 3-2.2 6.2-4.8 2.3-2.5 2.5-2.7 2.7-3.5 2.8-4 2.5-4.3 1-2.2 1-2.3.5-2.2.5-2v-1.8l-.3-1.7-.5-1.5-.7-1.5-1.3-1.3-1.5-1.2-1.7-1-2.3-1-1-.5-1-.5-.7-.8-.8-.7-1-2.3-.7-2.2-.3-3v-3.3l.5-3.5.8-4 1-4 1.5-4.2 1.7-4.3 2-4.5 2.3-4.5 2.5-4.7 2.7-4.5 3-4.3 4.3-5.5 4.5-5.2 5-5 5-4.3 5-3.7 4.7-3.3 4.3-2.7 4-2.3 7.5-3.7 6.7-3.3 6.5-3 3.5-1.7 3.5-2 3.8-2.5 4-2.8 4.2-3 4.5-4 8.3-7 7.7-7 7.8-7 7.2-7.5 6.8-7.5 3.2-4 3.3-4 3-4 2.7-4.2 2.8-4.3 2.5-4.5m-419.3 165.5.5-4.7.5-4.5.8-4.3 1-3.7 1.2-3.8 1.5-3.5 1.8-3 2-2.5 2.5-2.2 17-13.5 17.7-13.5 19.3-15-.5 17.5-.5 18.2v21.8l.5 12 .5 12.2.7 11.8 1 11.2 1.5 10 1 4.5 1 4 1 3.8 1.3 3.2 1.5 2.5 1.5 2.3 1 1.2 1.5 1 1.2 1 1.8 1 3.2 1.5 3.5 1 3.8.8 4 .2h4l4-.5 3.7-.5 3.8-.7 3.5-1.3 3.2-1.2 2.8-1.3 2.2-1.7 1.8-1.5 1-1.8m-126.3-56.5v-1.5m-55.5 1.8.3 1.2 1.2 17 .8 8.8 1 8.7 1.2 9.8 1.8 9.2 1.7 9 2 8.5 1.8 5.8 1.7 5.2 1.5 3 1.5 2.8 2 2.2 2.5 2 2.5 1.5 2.5 1.5 3 1 2.8.5 3.5.5h3.5l3.2-.2 3.3-.8 3.2-1 2.8-1.2 2.7-1.8 2.3-2 1.7-2.5.8-1.5.7-1.2.5-1.5.3-1.8v-3.2l-.8-10.5-1.2-11.8-1.3-14.2-1.2-14.8-.5-7.5v-7.2l-.3-7 .5-6.8m212.5-299.2-108.5 89.2-68 56.3-13.2 11-11.8 10.5-10.7 9.7-9.5 9-8.5 8.5-7.5 7.5-6.3 7-5.5 6.3-4.7 5.5-3.8 5-3.2 4.2-2.5 3.8-3.3 5.5-1.7 3.2-.5 1.3v16.5l.2 17.7.5 10.5.5 11.3m-141.2 221 2.2.2h2.3" stroke-width="14"/><path d="m162.8 574.4 2.2-6.3 1.3-2.7 1.2-2.8 1.8-2.5 2.2-2.2 1.3-1 1.5-1 1.5-1 2-.8 3.5-1.2 3.7-.8 3.8-.5h3.7l3.8.5 3.7 1 3.5 1.5 1.5 1 1.8 1.3 1.5 1.2 1.5 1.5 1.2 1.5 1 1.8 2 3.7 1.8 4 1.7 4 2 3.5 2 3.5 1.3 1.5 1.2 1.3 2 1.5 2 1.2 2 .8 1.8.5 1.7.2 2-.2 1.8-.5 1.5-.5 1.7-1 1.8-1 3-2.5 3-2.8 3-3 3.7-3.2 3.8-2.8 3.7-2 3.8-1.7 3.7-1 3.8-.5 3.7.2 3.8.5 3.7 1 3.8 1.5 3.5 1.8 3.5 2.5 3.2 2.5 3.5 3.2 3 3.5 3 3.8 3 3.7 2.5 2.8 1.5 1 1.3.7 1.2.8 1.5.2h3l1.8-.2 1.7-.5 4.3-1.5 5-2.5 3.7-2 3.5-2.5 3.3-2.5 3.2-2.8 6-5.2 3.5-2.8 3.5-2.5 1.8-1 2.2-1 2-.7 2.3-.5 2.2-.5 2.3-.3h5l5 .5 5 1 5 1.5 4.7 2 4.8 2.5 4.7 2.8 4 3 4 3.2 3.3 3.5 3 3.8 1.2 2 1 2 .8 2 .7 2 1.3 4.5.5 4.2v4l-.3 3.8-.7 3.7-1.3 3.8-1.5 4-1.7 4-1 2.2-.8 2-.5 1.8-.2 1.5v1.5l.2 1.5.5 1.2.8 1 .7 1.3 1.3 1 2.7 2.5 7.5 5.7 10.3 8.5 5 4.3 4.7 4.2 4.3 4.5 4.2 4.5 4 4.8 3.5 4.7 3.3 5 3 5.3 2.5 5.5 2 5.7 1.7 6 1 6.3.8 6.7.2 7-.5 5-.7 4.5-1.5 4.5-1.8 4.3-2.2 4-2.8 3.5-3 3.2-3.2 3-3.8 2.3-3.7 2-4.3 1.5-4.2.7-2.3.3-2.2.2h-2.3l-2.2-.2-2.3-.5-2.5-.5-2.2-.8-2.5-.7-4.3-2.3-3.7-2.2-3.3-2.8-3-3-2.5-3.5-2.5-3.5-2.2-3.5-2-4-1 5.8-1.5 5.2-1.8 5.3-2.2 5-2.3 4.5-3 4.2-3 4-3.5 3.5-3.7 3.3-4.3 2.7-4.5 2.5-4.7 1.8-5 1.7-5.5 1-5.8.8h-6l-4-.3-4-.2-4-.8-4.2-.7-4-1-4.3-1.3-4.2-1.5-4-1.5-4-2-4-1.7-3.8-2.3-3.5-2.2-3.5-2.5-3-2.5-3-2.8-2.7-3-2.8-3.5-2.5-3.7-2-3.8-1.7-3.7-1.3-3.8-1-3.7-.7-3.8-.5-3.7-.3-4-.2-4v-16l-.5-8.5-.3-3.3-.7-3.2-.8-2.5-1.2-2.5-1.3-2.3-1.5-1.7-1.7-1.5-2-1.5-2-1-2.3-1-2.2-.8-2.5-.5-2.8-.5-2.5-.2h-5.7l-5.8.2-6 .8-11.7 1.5-5.8.7-5.5.3-5 .2-2.2-.2-2-.3-3.3-.7-3-.8-3.2-1.2-3.3-1.5-3-1.8-3.2-1.7-2.8-2.3-2.7-2.2-2.5-2.5-2.3-2.5-2-3-1.7-3-1.3-3-1-3.3-.5-3.5v-5.7l.5-2.3.5-2 .5-2.2 1-2 .8-1.8 1-1.7 1.2-1.8 1.3-1.5 1.5-1.2 1.5-1.3 1.7-1 1.8-1 1.7-.5 2-.5 2.3-.2-2.5-1.3-2.5-.7-2.8-.5-2.7-.3-5.5-.2-5.8.2-5.5.3h-5.7l-2.8-.3-3-.2-2.7-.8-2.5-.7-4.5-1.8-4-2.2-4-2.5-3.5-3.3-3-3.2-2.8-4-2.2-4-.8-2.3-.7-2.2-1-3.8-.5-4v-4l.2-4.2.5-2 .5-2 .8-1.8 1-1.7 1-1.8 1.2-1.5 1.5-1.2 1.5-1.3 2-1 2.3-1 2-.5 2.2-.2 2.3-.3 2.5.3 4.5.5 4.7 1 4.5 1 4.5 1z" stroke-width="14"/><path d="m160.3 578.9 1.2-2.3 1.3-2.2m-5.5-79.5-6 6.2-3.3 3.3-3.2 3.2-3.5 3-3.5 2.8-3.8 2.2-2 1-2 .8-3 .7-3.2.8-3.3.2-3.2.3-3.5-.3-3.5-.2-3.5-.8-3.5-.7-3.3-1.3-3.2-1.2-3.3-1.8-3-1.7-2.7-2-2.8-2.5-2.2-2.5-2-3-1.5-3-1.3-3.3-1-3.5-.5-3.5-.5-4v-8.2l.5-4 1-8.3 1.3-7.7 1.7-7.3 1.8-6 1.5-4.5" stroke-width="14"/><path d="m85.3 446.1-3-3.5-2.5-2.2-2.5-2.3-2.5-2-2-2.2-2-2.5-.8-1.3-.5-1.5-.7-1.7-.3-1.8-.2-2-.3-2 .3-3.7.5-3.8.7-3.7 1.3-3.5 1.7-3.3 2.3-3 2.7-2.7 1.5-1.3 1.5-1.2 1.8-1 2-.8 2-.5 2-.5 4.2-.7 4.3-.3 4.2-.2 4-.5 4-.8 1.8-.5 1.7-1 2-1.2 2-1.5 1.3-1.5 1.2-1.5.8-1.8.2-1.7.3-1.8v-1.7l-.3-2-.2-1.8-1.3-4-1.7-3.7-1.8-3.8-1.7-4.5-1.3-4.5-.7-4.2v-4l.2-4 1-3.8 1.3-3.5 1.7-3.2 2.3-3.3 2.7-3 3-2.5 3.3-2.5 3.7-2.2 4.3-2 4.2-1.8 4.5-1.5 4.5-1.5 3.8-1.5 1.2-.7 1.3-1 1-1 .7-1.3.8-1.2.2-1.5.5-1.8v-6.5l-.5-5.5-.5-4.2-1-4-1.2-4-1.5-4-3-7.5-1.3-4-1-4.3-.5-2.2-.2-2.3v-2.2l.2-2.3.5-2.2.5-2.3.8-2.2 1-2.3 2-4.5 2.7-4.5 3.3-4 3.5-4 4-3.7 4-3.3 4.5-2.7 4.5-2.5 4.5-2 4.5-1.5 2.2-.3 2-.5h4.5l4.5.5 4.3.8 3.7 1.5 3.5 1.7 3.3 2 3 2.5 3.2 2.8 3 3 1.8 1.7 1.7 1.3 1.5 1 1.5.7 1.3.5 1.2.3h1.5l1.3-.3 1.5-.5 1.2-.5 3.3-1.7 8-5 11.5-6.8 5.7-3.2 5.8-2.8 5.7-2.7 5.5-2.5 5.8-2 6-1.8 5.7-1.2 6-.8 6-.5h6l6.3.5 6.2 1.3 6.5 1.5 6.8 2.2 3.7 1.8 3.5 2 3.3 2.5 3 2.5 2.7 2.7 2.5 3 2 3.3 1.8 3.5" stroke-width="14"/><path d="m561.3 647.4v2l-.5 1.7-.3 1.8-.7 1.7-.8 1.8-1 1.5-1 1.5-1.2 1.2-1.3 1.3-1.5 1-1.5 1-1.7.7-1.8.8-1.7.5-2 .2h-3.8l-1.7-.2-2-.5-1.5-.8-1.8-.7-1.5-1-1.5-1-1.2-1.3-1.3-1.2-1.2-1.5-.8-1.5-1-1.8-.5-1.7-.5-1.8-.2-1.7v-4l.2-1.8.5-1.7.5-1.8 1-1.7.8-1.5 1.2-1.5 1.3-1.3 1.2-1.2 1.5-1 1.5-1 1.8-.8 1.5-.7 2-.5 1.7-.3h3.8l2 .3 1.7.5 1.8.7 1.7.8 1.5 1 1.5 1 1.3 1.2 1.2 1.3 1 1.5 1 1.5.8 1.7.7 1.8.3 1.7.5 1.8zm-442.5-483.3-.3 1.8-.2 2-.5 1.7-.5 1.8-.8 1.5-1 1.7-1 1.3-1.2 1.5-1.5 1.2-1.3 1-1.7 1-1.5.8-1.8.5-1.7.5-2 .2-1.8.3-2-.3-2-.2-1.7-.5-1.8-.5-1.5-.8-1.7-1-1.3-1-1.5-1.2-1.2-1.5-1-1.3-1-1.7-.8-1.5-.5-1.8-.5-1.7-.2-2-.3-1.8.3-2 .2-2 .5-1.7.5-1.8.8-1.5 1-1.5 1-1.5 1.2-1.5 1.5-1 1.3-1.2 1.7-1 1.5-.8 1.8-.5 1.7-.5 2-.2 2-.3 1.8.3 2 .2 1.7.5 1.8.5 1.5.8 1.7 1 1.3 1.2 1.5 1 1.2 1.5 1 1.5 1 1.5.8 1.5.5 1.8.5 1.7.2 2z" stroke-width="7"/></g></svg>