<svg height="850" viewBox="0 0 850 850" width="850" xmlns="http://www.w3.org/2000/svg"><path d="m493.5 462.4-32.8 37.2-2.5-2-.2-18-.5-17.2z" fill="#a9d7f3"/><path d="m458.2 497.6 2.5 2-3.2 3.8-36.5-41h36.5l.5 17.2zm-136.7-32.5-227.8 251h-2.5v-369l228.5 116.5z" fill="#a9d7f3"/><path d="m421 462.1v.3h-97l-2.5 2.7-1.8-1.5-228.5-116.5h346.5l3.8 11.5 3.5 12.5 3 13 2.7 14 2.3 15 1.7 15.5 1.5 16.5 1.3 17z" fill="#ffffc2"/><path d="m757.5 716.1h2v3.8h-668.3v-3.8h2.5l227.8-251 2.5-2.7h97l36.5 41 3.2-3.8 32.8-37.2v-.3h33.5l1.5 2z" fill="#a9d7f3"/><path d="m493.5 462.1h-36l-1.3-17-1.5-16.5-1.7-15.5-2.3-15-2.7-14-3-13-3.5-12.5-3.8-11.5h320.5l-229.7 117-1.5-2z" fill="#ffffc2"/><path d="m759.5 347.1v369h-2l-229-252 229.7-117z" fill="#a9d7f3"/><path d="m437.7 347.1h-346.5l-2-3.2 335.5-209.5 337.5 210-.7 1.2-3.3 1.5z" fill="#ffffc2"/><g fill="none" stroke="#231f20" stroke-linecap="round" stroke-miterlimit="10"><path d="m759.5 716.1v3.8h-668.3v-372.8h668.3zm4.5-370.7-1.8-1-337.5-210-335.5 209.5-2.7 1.7" stroke-width="21"/><path d="m93.7 716.1 227.8-251 2.5-2.7h178.2" stroke-width="14"/><path d="m757.5 716.1-229-252-1.5-2h-178.3m-257.5-115 228.5 116.5" stroke-width="14"/><path d="m761.5 345.6-3.3 1.5-229.7 117-2 1" stroke-width="14"/><path d="m301 332.1 3.2-6.2 3.5-6 3.8-5.5 3.7-5.3 3.8-4.7 4-4.8 3.7-4 4-3.7 4.3-3.5 4-3 4.2-2.5 4.3-2.3 4.2-1.5 4.3-1.2 4.2-.8 4.5-.2 5.8.2 5.5.8 5.5 1.5 5.5 2 5.2 2.5 5 3 4.8 3.7 4.7 4 4.5 4.8 4.5 5.2 4 5.8 4 6.5 4 6.7 3.5 7.3 3.3 8 3.2 8.2 3.8 11.5 3.5 12.5 3 13 2.7 14 2.3 15 1.7 15.5 1.5 16.5 1.3 17v.3l.5 17.2.2 18" stroke-width="21"/><path d="m387.5 424.1 33.5 38v.3l36.5 41 3.2-3.8 32.8-37.2v-.3l33.7-38" stroke-width="21"/></g></svg>