<svg height="850" viewBox="0 0 850 850" width="850" xmlns="http://www.w3.org/2000/svg"><path d="m674.8 368.3v196.7l-.3 3-.2 3.3-.5 3-.5 3.2-1 3-1 2.8-1 3-1.5 2.7-1.5 2.8-1.5 2.7-1.8 2.5-2 2.5-4 4.8-4.7 4.5-5 4-5.3 3.5-5.5 3-6 2.7-6 2-6.5 1.5-3 .8-3.2.2-3.3.3h-323.2l-2.8 1.7-21-38-20.5-36.7-16.5-29-5.7-9.8-3.5-5.2-3.3-4.5-4.5-5.3-11.5-13.2 3-.5v-118l.3-3.3.2-3 .5-3.2.5-3 1-3 1-3 1-2.8 1.5-2.7 1.5-2.8 1.5-2.7 1.8-2.5 2-2.5 4-4.8 4.7-4.5 5-4 5.3-3.5 5.7-3.2 5.8-2.5 6.2-2 6.3-1.8 3-.5 3.2-.2 3.3-.3 3.2-.2h337.8l3.2.2 3.3.3 3.2.2 3 .5 6.5 1.8 6 2 6 2.5 5.5 3.2 5.3 3.5 5 4 4.7 4.5 4 4.8 2 2.5 1.8 2.5 1.5 2.7 1.5 2.8 1.5 2.7 1 2.8 1 3 1 3 .5 3 .5 3.2.2 3z" fill="#a9d7f3"/><path d="m700.3 354.8v227.5l-.3 3.5-.5 3.5-.5 3.5-1 3.5-.7 3.2-1.3 3.3-1.2 3.2-1.5 3-1.5 3.3-1.8 2.7-1.7 3-2 2.8-2 2.7-2.3 2.5-2.2 2.5-2.5 2.3-2.5 2.2-2.8 2-2.7 2-3 1.8-2.8 1.7-3.2 1.5-3 1.5-3.3 1.3-3.2 1.2-3.3.8-3.5 1-3.5.5-3.5.5-3.5.2h-338.7l-11.3-20.5 2.8-1.7h323.2l3.3-.3 3.2-.2 3-.8 6.5-1.5 6-2 6-2.7 5.5-3 5.3-3.5 5-4 4.7-4.5 4-4.8 2-2.5 1.8-2.5 1.5-2.7 1.5-2.8 1.5-2.7 1-3 1-2.8 1-3 .5-3.2.5-3 .2-3.3.3-3v-196.7l-.3-3.3-.2-3-.5-3.2-.5-3-1-3-1-3-1-2.8-1.5-2.7-1.5-2.8-1.5-2.7-1.8-2.5-2-2.5-4-4.8-4.7-4.5-5-4-5.3-3.5-5.5-3.2-6-2.5-6-2-6.5-1.8-3-.5-3.2-.2-3.3-.3-3.2-.2h-337.8l-3.2.2-3.3.3-3.2.2-3 .5-6.3 1.8-6.2 2-5.8 2.5-5.7 3.2-5.3 3.5-5 4-4.7 4.5-4 4.8-2 2.5-1.8 2.5-1.5 2.7-1.5 2.8-1.5 2.7-1 2.8-1 3-1 3-.5 3-.5 3.2-.2 3-.3 3.3v118l-3 .5-11.7-13.5-10.8-11.8v-110.5l.3-3.5.5-3.5.7-3.5.8-3.5 1-3.2 1-3.3 1.2-3.2 1.5-3.3 1.5-3 1.8-3 1.7-2.7 2-2.8 2-2.7 2.3-2.5 2.5-2.5 2.2-2.3 2.8-2.2 2.5-2 2.7-2 3-2 3-1.5 3-1.8 3-1.2 3.3-1.3 3.2-1.2 3.3-1 3.5-.8 3.5-.5 3.5-.5 3.5-.2h392.2l3.5.2 3.5.5 3.5.5 3.5.8 3.3 1 3.2 1.2 3.3 1.3 3 1.2 3.2 1.8 2.8 1.5 3 2 2.7 2 2.8 2 2.5 2.2 2.5 2.3 2.2 2.5 2.3 2.5 2 2.7 2 2.8 1.7 2.7 1.8 3 1.5 3 1.5 3.3 1.2 3.2 1.3 3.3.7 3.2 1 3.5.5 3.5.5 3.5.3 3.5z" fill="#0d72ba"/><path d="m773.5 236v163.8h-30.5l-.5-6.3-1-6.5-1.2-6.5-1.5-5.7-2-6-2.3-5-2-4.8-1.5-4.5-.7-2.7-.5-2.8-.5-3.2v-3.5l-.3-3.8.3-4.7.2-5 .5-5.8 1.5-11.7 1.8-11 2-10 2-9.5 4-17.5 2-8.3 1.7-8.2 1.5-7.3 1.5-6.7 1.8-5.5 1-2.5 1.2-2.3 1.3-2 1.2-1.5 1.5-1.2 1.8-1 1.7-.5 2.3-.3h2.2l2.5.5h.3l.7.3 1.3.5 1.2 1.2.8 1 .5 1.3.7 1.7.5 1.8.5 2.2.3 2.8.2 3.2zm0 163.8v265.7h-30l.5-245.2-.2-6v-6.5l-.8-8zm-645.7 235.5v28.5h-27.5v-24.8l.7-1.5 1.5.8 1.5.5 1.5.2h1.5l1.3-.2 1.2-.8 1.3-1.2.7-1.8.5-.7.5-.5 1.3-1 1.7-.5h2l2.3.2 2.5.5 2.5 1zm-.3-154.8-.2 2 .2 32.8-.2 3h-1l-7-.3h-13l-5.5.8-.3-1 .3-34.5v-3.8h13.5l6.7.5zm-38.7-240.5h50.5l2.2 38.8 2 31 1 13.2.8 9.8.5 5v4.7l-.3 4.5-.7 4.3-1 4-1.5 3.5-1.8 3-1 1.5-1.2 1.2-4.8 4.8-2.2 2.7-2.3 2.8-2 3-1.5 3.2-1.5 3.5-.7 4-.5 2v2.3l.2 5 .5 5 1 4.7 1 4.3.8 3.5 1 3v30.7h-6.5l-6.8.3-6.7.2-6.3.3-.2-1.8v-29.7l1-3 1-3.5.7-4.3 1-4.7.5-5 .3-5v-2.3l-.3-2-1-4-1.5-3.5-1.5-3.2-2-3-2.2-2.8-2.3-2.7-4.7-4.8-1.3-1.2-1-1.5-1.7-3-1.5-3.5-1-4-.8-4.3-.2-4.5v-4.7l.5-5 .7-9.8 1-13.2 2-31zm544.2-65.2.3 27.2-222-.5-2.8-.7-7-1.8-4.2-.7-4.5-.5-4.5-.3-2 .3-2 .2-3 .5-2.8 1-2.7 1.3-2.3 1.5-3.5 2.7-8.2 6.5-5.5 3.8-5.8 4-6 3.7-5.7 3-5.5 2.5-5.3 2-2.5.8-2.7.7-2.8.5-2.7.3h-5.8l-3.2-.3-3.3-.2-7-1.3-7.7-2-8-2.5-7.3-2.7-6.2-2.8-5.8-3-2.5-1.7-2.2-1.5-2.3-1.8-1.7-1.7-1.8-2-1.5-2-1.2-2-1.3-2.3-1.7-4-1-3.5-.5-3-.3-3.5v-1.2l.5-3.8 1-4.7.8-2.8 1.2-2.5 1-2.2 1.3-2 1.5-2 1.7-2 2-1.8 2-1.7 2.5-1.8 2.5-1.5 5.5-3 6.5-3 7-2.5 8-2.5 8-2 7-1.2 3.3-.5 3-.3h3l2.7.3 3 .2 2.5.5 2.8.5 2.7.8 5.3 2 5.5 2.5 5.7 3.2 5.8 3.5 5.7 4 5.5 4 8.5 6.5 3.3 2.8 2.5 1.2 2.5 1.3 2.7 1 3.3.7 1.7.3h6.5l4.5-.5 4.3-1 7-1.8 3-.7z" fill="#c8c8c8"/><path d="m294.8 649 21 38-121 16.3-.3-.8-6.5-6-5.2-5.2-6.3-6.3-6.5-7-6.2-7.2-5.8-7.3-2.5-3.2-2.2-3.5-2.5-3.3-2.8-3.2-3-3-3-3-3.5-2.5-3.2-2.5-3.5-2-3.5-1.8-.5-.2-3-1.3-2.5-1-2.5-.5-2.3-.2h-2l-1.7.5-1.3 1-.5.5-.5.7-.7 1.8-1.3 1.2-1.2.8-1.3.2h-1.5l-1.5-.2-1.5-.5-1.5-.8-2-1.2-1.7-1.5-3.3-2.8-2.2-2.2-.8-1-2.5-4.3-2.2-4-1.8-4.2-1.2-4.3-.5-2.2-.3-2v-4l.5-2 .5-2 .8-2 .7-2 .8-.8 1-.5 1.2-.5 1.5-.5-1.5-1-1.5-1.2-1.2-1.8-1.5-1.7-1.3-2.3-1.2-2.5-1-2.5-.8-2.7-.7-3-.5-3-.3-3 .3-3 .2-3.3.8-3 1-3 1.5-2.7.5-.8.7-.5 1-.5 1-.5 3-.5 3.5-.2v-.8l-1-.7-.7-1-.8-1.5-.7-1.5-.5-2-.5-2-.3-2.3-.2-2.2.2-2.3v-2.2l.5-2.3.5-2 .8-2 1.2-1.7 1.3-1.8 1.5-1.2 1.2-.8 2-.7 2.3-.5 2.5-.5 5.5-.8h13l7 .3h1l7.7.5 7.8.5 13.7 1.5 13.5 1.7-7.2-11.7-7-11-6.8-10.5-1.5-1.8-1.7-1.5-2.5-1.5-2.5-1-3-1-3.3-.7-3.2-.8-3.8-.5-6.5-.5-6.7-.5h-29.5l-2.3-.2-2-1-1.5-1-1.5-1.5-1-2-.7-2-.5-2.3-.3-2.2.3-2.3.2-2.5.8-2.2 1.2-2 1.3-2 1.7-1.5 2-1.3 2.5-1 3.5-.7 4-.8 8.5-1.2 6.3-.3 6.7-.2 6.8-.3h6.5l14.5.8 12.2.7 11.3 1 9.2 10 10.8 11.8 11.7 13.5 11.5 13.2 4.5 5.3 3.3 4.5 3.5 5.2 5.7 9.8 16.5 29 20.5 36.7 21 38z" fill="#ffeec8"/><g fill="none" stroke="#231f20" stroke-linecap="round" stroke-miterlimit="10"><path d="m743 399.8.8 8v6.5l.2 6-.5 245.2h30v-433l-.2-3.2-.3-2.8-.5-2.2-.5-1.8-.7-1.7-.5-1.3-.8-1-1.2-1.2-1.3-.5-.7-.3h-.3l-2.5-.5h-2.2l-2.3.3-1.7.5-1.8 1-1.5 1.2-1.2 1.5-1.3 2-1.2 2.3-1 2.5-1.8 5.5-1.5 6.7-1.5 7.3-1.7 8.2-2 8.3-4 17.5-2 9.5-2 10-1.8 11-1.5 11.7-.5 5.8-.2 5-.3 4.7.3 3.8v3.5l.5 3.2.5 2.8.7 2.7 1.5 4.5 2 4.8 2.3 5 2 6 1.5 5.7 1.2 6.5 1 6.5zm0 0h30.5m-672.7 48.2v-29.7l1-3 1-3.5.7-4.3 1-4.7.5-5 .3-5v-2.3l-.3-2-1-4-1.5-3.5-1.5-3.2-2-3-2.2-2.8-2.3-2.7-4.7-4.8-1.3-1.2-1-1.5-1.7-3-1.5-3.5-1-4-.8-4.3-.2-4.5v-4.7l.5-5 .7-9.8 1-13.2 2-31 2.3-38.8m11.7 277.8.3-34.5m27 149.7v30.8h-27.5v-24.8m27-156.5.2 32.8m11.8-275.3 2.2 38.8 2 31 1 13.2.8 9.8.5 5v4.7l-.3 4.5-.7 4.3-1 4-1.5 3.5-1.8 3-1 1.5-1.2 1.2-4.8 4.8-2.2 2.7-2.3 2.8-2 3-1.5 3.2-1.5 3.5-.7 4-.5 2v2.3l.2 5 .5 5 1 4.7 1 4.3.8 3.5 1 3v29.7m-23.8-208v80.8m19-80.8v80.8m52 143.2v-113l.3-3.5.5-3.5.7-3.5.8-3.5 1-3.2 1-3.3 1.2-3.2 1.5-3.3 1.5-3 1.8-3 1.7-2.7 2-2.8 2-2.7 2.3-2.5 2.5-2.5 2.2-2.3 2.8-2.2 2.5-2 2.7-2 3-2 3-1.5 3-1.8 3-1.2 3.3-1.3 3.2-1.2 3.3-1 3.5-.8 3.5-.5 3.5-.5 3.5-.2h392.2l3.5.2 3.5.5 3.5.5 3.5.8 3.3 1 3.2 1.2 3.3 1.3 3 1.2 3.2 1.8 2.8 1.5 3 2 2.7 2 2.8 2 2.5 2.2 2.5 2.3 2.2 2.5 2.3 2.5 2 2.7 2 2.8 1.7 2.7 1.8 3 1.5 3 1.5 3.3 1.2 3.2 1.3 3.3.7 3.2 1 3.5.5 3.5.5 3.5.3 3.5v231.3l-.3 3.5-.5 3.5-.5 3.5-1 3.5-.7 3.2-1.3 3.3-1.2 3.2-1.5 3-1.5 3.3-1.8 2.7-1.7 3-2 2.8-2 2.7-2.3 2.5-2.2 2.5-2.5 2.3-2.5 2.2-2.8 2-2.7 2-3 1.8-2.8 1.7-3.2 1.5-3 1.5-3.3 1.3-3.2 1.2-3.3.8-3.5 1-3.5.5-3.5.5-3.5.2h-340.2" stroke-width="14"/><path d="m200 486.3v-118l.3-3.3.2-3 .5-3.2.5-3 1-3 1-3 1-2.8 1.5-2.7 1.5-2.8 1.5-2.7 1.8-2.5 2-2.5 4-4.8 4.7-4.5 5-4 5.3-3.5 5.7-3.2 5.8-2.5 6.2-2 6.3-1.8 3-.5 3.2-.2 3.3-.3 3.2-.2h337.8l3.2.2 3.3.3 3.2.2 3 .5 6.5 1.8 6 2 6 2.5 5.5 3.2 5.3 3.5 5 4 4.7 4.5 4 4.8 2 2.5 1.8 2.5 1.5 2.7 1.5 2.8 1.5 2.7 1 2.8 1 3 1 3 .5 3 .5 3.2.2 3 .3 3.3v196.7l-.3 3-.2 3.3-.5 3-.5 3.2-1 3-1 2.8-1 3-1.5 2.7-1.5 2.8-1.5 2.7-1.8 2.5-2 2.5-4 4.8-4.7 4.5-5 4-5.3 3.5-5.5 3-6 2.7-6 2-6.5 1.5-3 .8-3.2.2-3.3.3h-323.2" stroke-width="7"/><path d="m245 189 .3 3.5.5 3 1 3.5 1.7 4 1.3 2.3 1.2 2 1.5 2 1.8 2 1.7 1.7 2.3 1.8 2.2 1.5 2.5 1.7 5.8 3 6.2 2.8 7.3 2.7 8 2.5 7.7 2 7 1.3 3.3.2 3.2.3h5.8l2.7-.3 2.8-.5 2.7-.7 2.5-.8 5.3-2 5.5-2.5 5.7-3 6-3.7 5.8-4 5.5-3.8 8.2-6.5 3.5-2.7 2.3-1.5 2.7-1.3 2.8-1 3-.5 2-.2 2-.3 4.5.3 4.5.5 4.2.7 7 1.8 2.8.7 222 .5-.3-27.2-221.7.5-3 .7-7 1.8-4.3 1-4.5.5h-6.5l-1.7-.3-3.3-.7-2.7-1-2.5-1.3-2.5-1.2-3.3-2.8-8.5-6.5-5.5-4-5.7-4-5.8-3.5-5.7-3.2-5.5-2.5-5.3-2-2.7-.8-2.8-.5-2.5-.5-3-.2-2.7-.3h-3l-3 .3-3.3.5-7 1.2-8 2-8 2.5-7 2.5-6.5 3-5.5 3-2.5 1.5-2.5 1.8-2 1.7-2 1.8-1.7 2-1.5 2-1.3 2-1 2.2-1.2 2.5-.8 2.8-1 4.7-.5 3.8zm-118.7 329.3-7-.3h-13l-5.5.8-2.5.5-2.3.5-2 .7-1.2.8-1.5 1.2-1.3 1.8-1.2 1.7-.8 2-.5 2-.5 2.3v2.2l-.2 2.3.2 2.2.3 2.3.5 2 .5 2 .7 1.5.8 1.5.7 1 1 .7" stroke-width="14"/><path d="m315.8 687-21-38-11.3-20.5-21-38-20.5-36.7-16.5-29-5.7-9.8-3.5-5.2-3.3-4.5-4.5-5.3-11.5-13.2-11.7-13.5-10.8-11.8-9.2-10-11.3-1-12.2-.7-14.5-.8h-6.5l-6.8.3-6.7.2-6.3.3-8.5 1.2-4 .8-3.5.7-2.5 1-2 1.3-1.7 1.5-1.3 2-1.2 2-.8 2.2-.2 2.5-.3 2.3.3 2.2.5 2.3.7 2 1 2 1.5 1.5 1.5 1 2 1 2.3.2h29.5l6.7.5 6.5.5 3.8.5 3.2.8 3.3.7 3 1 2.5 1 2.5 1.5 1.7 1.5 1.5 1.8 6.8 10.5 7 11 7.2 11.7-13.5-1.7-13.7-1.5-7.8-.5-7.7-.5h-1m42.2 43.5-8.7-1.8-9.5-2-11.8-2-12.5-2.2-12.7-1.8-6-.5-5.8-.5-5.2-.2h-4.8l-3.5.2-3 .5-1 .5-1 .5-.7.5-.5.8-1.5 2.7-1 3-.8 3-.2 3.3-.3 3 .3 3 .5 3 .7 3 .8 2.7 1 2.5 1.2 2.5 1.3 2.3 1.5 1.7 1.2 1.8 1.5 1.2 1.5 1m38.8 42 3.5 1.8 3.5 2 3.2 2.5 3.5 2.5 3 3 3 3 2.8 3.2 2.5 3.3 2.2 3.5 2.5 3.2 5.8 7.3 6.2 7.2 6.5 7 6.3 6.3 5.2 5.2 6.5 6m-36-95-8.5-2.5-9-2.5-11-3-11.5-2.7-5.7-1.3-5.8-1-5.2-.7-4.8-.5h-4l-3.5.2-1.5.5-1.2.5-1 .5-.8.8-.7 2-.8 2-.5 2-.5 2v4l.3 2 .5 2.2 1.2 4.3 1.8 4.2 2.2 4 2.5 4.3.8 1 2.2 2.2 3.3 2.8 1.7 1.5 2 1.2 1.5.8 1.5.5 1.5.2h1.5l1.3-.2 1.2-.8 1.3-1.2.7-1.8.5-.7.5-.5 1.3-1 1.7-.5h2l2.3.2 2.5.5 2.5 1 3 1.3.5.2" stroke-width="14"/></g></svg>