<svg height="850.394" viewBox="0 0 850.394 850.394" width="850.394" xmlns="http://www.w3.org/2000/svg"><path d="m648.68 399.62 54.431 42.95 6.889 5.43v1.77h-253.84c-17.84 0-32.3 15.57-32.3 34.761h-.28v-81.49h-.57v-1l.12-2.4c10.29.53 208.48 10.58 224.53-.1z" fill="#faa41f"/><path d="m777.55 382.83c3.24 6.5 5.061 13.85 5.061 21.63 0 20.83-14.811 44.17-40.46 51.01l-5.971.24c-5.16-3.75-11.37-5.94-18.06-5.94h-8.12v-1.77l-6.89-5.43.67-.851c-11.83-9.229-16.34-23.38-16.34-37.26 0-26.6 21.31-48.15 47.579-48.15 18.601.001 34.701 10.791 42.531 26.521z" fill="#f6cc4b"/><path d="m750.41 484.53c0 7.8-2.38 15-6.41 20.8-5.89 8.479-15.29 13.97-25.88 13.97h-261.96c-17.84 0-32.3-15.569-32.3-34.77 0-19.19 14.46-34.761 32.3-34.761h261.96c6.689 0 12.899 2.19 18.06 5.94a33.06 33.06 0 0 1 4.78 4.24c5.84 6.291 9.45 14.991 9.45 24.581z" fill="#faa41f"/><path d="m687.44 404.46c0 13.88 4.51 28.03 16.34 37.26l-.67.851-54.431-42.95-1.02-.08c.74-.5 1.1-1.04 1.02-1.63-3.42-26.22 2.811-49.62 12.551-60.98 13.529-15.79 31.029-20.67 41.38-22.16l.22 1.64s12.02 11.09 41.03 28.5c19.449 11.67 29 26.48 33.689 37.92-7.83-15.73-23.93-26.52-42.53-26.52-26.269-.001-47.579 21.549-47.579 48.149z" fill="#f6cc4b"/><path d="m422.72 399.62s.14.01.41.02l-.12 2.4v81.5h-.29c0-19.2-14.45-34.76-32.29-34.76h-254.43v-.78c5.13-3.42 9.67-8.45 13.34-14.2l2.4.72 46.16-35.899.52-.48c11.53 11.14 207.65 1.39 224.31.54z" fill="#faa41f"/><path d="m104.44 454.47c-25.65-6.84-40.47-30.17-40.47-51 0-7.8 1.84-15.18 5.1-21.69 7.83-15.71 23.92-26.47 42.49-26.47 26.28 0 47.59 21.56 47.59 48.16 0 9.25-3.7 20.77-9.81 30.33-3.67 5.75-8.21 10.78-13.34 14.2v.78h-7.54c-8.08 0-15.47 3.189-21.13 8.479z" fill="#f6cc4b"/><path d="m111.56 355.31c-18.57 0-34.66 10.76-42.49 26.47 4.68-11.43 14.23-26.21 33.66-37.87 29.01-17.4 41.03-28.49 41.03-28.49l.25-1.64c10.35 1.5 27.83 6.38 41.35 22.15 9.74 11.36 15.96 34.76 12.54 60.98-.06.44.12.85.52 1.23l-.52.48-46.16 35.899-2.4-.72c6.11-9.56 9.81-21.08 9.81-30.33 0-26.599-21.31-48.159-47.59-48.159z" fill="#f6cc4b"/><path d="m390.43 448.78c17.84 0 32.29 15.56 32.29 34.76s-14.45 34.76-32.29 34.76h-261.97c-10.87 0-20.48-5.78-26.33-14.64-3.76-5.68-5.96-12.62-5.96-20.12 0-9.6 3.61-18.29 9.46-24.58.55-.59 1.11-1.16 1.7-1.7 5.66-5.29 13.05-8.479 21.13-8.479h261.97z" fill="#faa41f"/><path d="m423.01 483.54v166.4h-331.68l-15.39-10.26 24.51-135.06 1.68-.96c5.85 8.859 15.46 14.64 26.33 14.64h261.97c17.84 0 32.29-15.56 32.29-34.76zm323.12 22.08 24.51 135.06-15.38 10.261h-331.68v-166.411h.28c0 19.2 14.46 34.77 32.3 34.77h261.96c10.59 0 19.99-5.49 25.88-13.97zm-322.27-107-.56-36.92 1.99-130.49s-4.56-25.93 24.51-28.21c29.061-2.28 238.78 7.41 238.78 7.41s23.939-4.56 25.07 32.49c1.149 37.04-2.271 71.23-2.271 71.23s-3.43-.13-8.77.64c-10.351 1.49-27.851 6.37-41.38 22.16-9.74 11.36-15.971 34.76-12.551 60.98.08.59-.279 1.13-1.02 1.63-16.05 10.68-214.24.63-224.53.1-.27-.01-.41-.02-.41-.02l.01-.94z" fill="#f6cc4b"/><path d="m421.3 230.22 2 131.48-.57 36.98c-16.66.85-212.78 10.6-224.31-.54-.4-.38-.58-.79-.52-1.23 3.42-26.22-2.8-49.62-12.54-60.98-13.52-15.77-31-20.65-41.35-22.15-5.35-.77-8.8-.64-8.8-.64s-3.42-34.2-2.28-71.24 25.08-32.48 25.08-32.48 209.72-9.69 238.78-7.41c29.07 2.28 24.51 28.21 24.51 28.21z" fill="#f6cc4b"/><g fill="none"><g stroke="#231f20" stroke-width="14"><path d="m422.73 398.68 1.13-.06-.56-36.92-2-131.48s4.56-25.93-24.51-28.21c-29.06-2.28-238.78 7.41-238.78 7.41s-23.94-4.56-25.08 32.48 2.28 71.24 2.28 71.24 3.45-.13 8.8.64c10.35 1.5 27.83 6.38 41.35 22.15 9.74 11.36 15.96 34.76 12.54 60.98-.06.44.12.85.52 1.23 11.53 11.14 207.65 1.39 224.31.54zm-.01 84.86c0 19.2-14.45 34.76-32.29 34.76h-261.97c-10.87 0-20.48-5.78-26.33-14.64-3.76-5.68-5.96-12.62-5.96-20.12 0-9.6 3.61-18.29 9.46-24.58.55-.59 1.11-1.16 1.7-1.7 5.66-5.29 13.05-8.479 21.13-8.479h261.97c17.84-.001 32.29 15.559 32.29 34.759z"/><path d="m100.45 504.62-24.51 135.06 15.39 10.26h331.68v-247.9m-320.28 51.29c-5.23-3.83-12.54-12.96-12.54-19.94v-27.93c0-11.64 9.44-21.08 21.09-21.08 5.82 0 11.09 2.36 14.9 6.18 3.82 3.81 6.18 9.08 6.18 14.9v34.771"/><path d="m104.44 454.47c-25.65-6.84-40.47-30.17-40.47-51 0-7.8 1.84-15.18 5.1-21.69 7.83-15.71 23.92-26.47 42.49-26.47 26.28 0 47.59 21.56 47.59 48.16 0 9.25-3.7 20.77-9.81 30.33-3.67 5.75-8.21 10.78-13.34 14.2m61.9-49.38-46.16 35.9"/><path d="m64.55 399.76s.25-7.6 4.52-17.98c4.68-11.43 14.23-26.21 33.66-37.87 29.01-17.4 41.03-28.49 41.03-28.49m279.37 84.22c-.27-.01-.41-.02-.41-.02l.01-.94.57-36.98 1.99-130.49s-4.56-25.93 24.51-28.21c29.061-2.28 238.78 7.41 238.78 7.41s23.939-4.56 25.07 32.49c1.149 37.04-2.271 71.23-2.271 71.23s-3.43-.13-8.77.64c-10.351 1.49-27.851 6.37-41.38 22.16-9.74 11.36-15.971 34.76-12.551 60.98.08.59-.279 1.13-1.02 1.63-16.048 10.68-214.238.63-224.528.1zm.73 84.89c0 19.2 14.46 34.77 32.3 34.77h261.96c10.59 0 19.99-5.49 25.88-13.97 4.03-5.8 6.41-13 6.41-20.8 0-9.59-3.61-18.29-9.45-24.58a33.114 33.114 0 0 0 -4.78-4.24c-5.16-3.75-11.37-5.94-18.06-5.94h-261.96c-17.84 0-32.3 15.57-32.3 34.76z"/><path d="m746.13 505.62 24.51 135.06-15.38 10.26h-331.68v-247.9m320.28 51.29c5.229-3.84 12.529-12.97 12.529-19.95v-27.93c0-11.64-9.43-21.08-21.069-21.08-5.82 0-11.101 2.36-14.91 6.17a21.018 21.018 0 0 0 -6.18 14.91v34.77"/><path d="m742.15 455.47c25.649-6.84 40.46-30.18 40.46-51.01 0-7.78-1.82-15.13-5.061-21.63-7.83-15.73-23.93-26.52-42.53-26.52-26.27 0-47.579 21.55-47.579 48.15 0 13.88 4.51 28.03 16.34 37.26.79.62 1.62 1.21 2.47 1.78m-57.57-43.88 54.43 42.95 6.89 5.43"/><path d="m782.04 400.76s-.25-7.59-4.49-17.93c-4.689-11.44-14.24-26.25-33.689-37.92-29.011-17.41-41.03-28.5-41.03-28.5"/></g><path d="m0 0h850.394v850.394h-850.394z"/></g></svg>