<svg height="850" viewBox="0 0 850 850" width="850" xmlns="http://www.w3.org/2000/svg"><path d="m418.5 393.3 11.5 12.2 11 11.5 5 4.8 4.5 4.2 4.3 3.3 3.5 2.5 4.2 2.2 4.5 2.3 9.3 4.2 10 4 11 3.8 11.7 3.5 12.8 3.2 13.7 3 14.8 2.8 15.7 2.7 17 2.5 18.3 2.3 19.5 2.2 20.7 2 22 1.8 23.5 2 25 1.7-20 287.5h-618l20.3-233.2 284.7-120.5 38-16z" fill="#a9d7f3"/><path d="m335.3 183.5-3.8 61.8 2.3 4.7-2.8 1-2.7 1.5-2.5 1.5-2.8 1.8-2.2 2-3 2.5-3.3 3.2-3 3.5-1.5 2.3-1.2 2-1 2.2-.8 2.5-.7 2.5-.3 2.5.3 2.8.5 2.7-2.8 1.5-2.5 1.3-2.2 1-2.5 1-2.5.5-2.8.2h-3l-3.2-.5-3-1-2.8-1-3-1.7-2.5-1.8-2-2.5-1-1.2-.7-1.5-.8-1.5-.5-1.5-.2-1.8-.3-1.7v-4l.5-2.3.5-2.2.8-2.3 1-2.5 1.2-2.5 1.5-2.7 3.5-5 5.3-7 7-8.5 8.2-9.8 18.8-21z" fill="#ffeec8"/><path d="m480 289.8 3-1.3 2.8-1.3 2.5-1.5 2.3-1.8 2-1.8 1.8-1.8 1.5-1.8 1.5-2 1-2 1-2 .5-2 .5-2.3.5-2v-6.2l-1-5.3-1.5-5.3-2-5.5-2.8-5.3-2.8-5.3-3.5-5-3.8-4.8-4-4.5-4.5-4-4.8-3.8-4.8-3.3-5.3-2.8-2.5-1-2.8-1-2.5-1-2.8-.8-2.5-.3-2.8-.3-2.8-.3-3 .3-4.8.3-4.8.8-4.8.8-4.5 1.3-4.8 1.5-4.5 1.5-4.3 2-4.5 2.3-5.3 3-5.3 3.8-5.8 4-5.8 4.5-12 9.5-6 4.5-6 4.3-.3 2.8 4.8.8 4.8 1.5 4.3 1.5 4 2.3 5 3 4.8 3.3 9.3 6.5 9 6.8 9 6.5 4.5 2.8 4.8 2.8 4.8 2.5 5 2.3 5.3 1.8 5.5 1.5 5.5 1 6 .3h2l2.8-.3 7.5-1zm43.5-168.8.3-.3-.5-1-.3-1v-2.3l.3-2.3 1-2.5 1.3-2.3 1.8-2.5 2-2.3 2.5-2 2.5-2 3-1.5 3-1.3 3.3-1 3.3-.5h3.5l3.5.5 1.8.5 1.5.8 18 7.5 10.8 4.8 41.3 19 3 1.5 8.5 4.5 13.3 7.5 8 4.8 9 5.3 9.8 6.3 10.3 6.8 11 7.5 11.3 8 11.8 8.8 11.8 9.3 12.3 10 12 10.5-47.5 257.4v.5l-25-1.8-23.5-2-22-1.8-20.8-2-19.5-2.3-18.2-2.1-17-2.5-15.8-2.8-14.8-2.8-13.8-3-12.8-3.3-11.8-3.5-11-3.8-10-4-9.3-4.3-4.5-2.3-4.3-2.3-3.5-2.5-4.3-3.3-4.5-4.3-5-4.8-11-11.5-11.5-12.3-20.1-22.2-8.5-9.3-3.5-3.5-3.3-3-11-10-6-5.5-6.5-5.8-7.3-5.8-7.8-6-8.5-6.3-9.3-6.3-4.3-3-3.8-3-3.3-3-2.8-2.8-2-2.8-1.8-3-1.3-2.5-.8-2.8-.5-2.8.3-2.3.3-2.5.8-2.5.8-2.5 1-2.3 1.3-2 1.5-2.3 3-3.5 3.3-3.3 3-2.5 2.3-2 2.8-1.8 2.5-1.5 2.8-1.5 2.8-1-2.3-4.8 3.8-61.8 25.3-28.2 1.3-1.3 1.3-1.3 1.8-1.5 2-1.3 4.5-2.8 5.5-2.8 6-2.5 6.8-2.3 7-2.3 7-2.3 7.3-2 7.3-1.8 6.8-1.5 6.3-1.3 6-1 5-.5 4-.5h3.3l1.5.3 2 .5 5.5 1.8 6.8 2.8 8 3.8 5.3-.5 1.3-3.8 1.8-4 1.3-1.8 1-1.8 1.5-1.5 1.5-1.5 1.5-1.5 1.8-1.3 2-1 1.8-1 2.3-.8 2.3-.5 2.3-.3h2.5l1.5.3 1.8.3 4.8 1.5 5.8 2 5.4 3z" fill="#ffeec8"/><g fill="none" stroke="#231f20" stroke-linecap="round" stroke-miterlimit="10" stroke-width="21"><path d="m514.8 215.3.2 12.2.3 5.8-.3 5.5-.2 5.2-.5 5-.8 4.5-1 4.5-1.5 4.5-1.7 4-2.3 4-2.5 3.8-3.2 3.7-3.8 3.5-4.2 3.5-5 3.3-8.3 1.5-16.2 3-7.5 1-2.8.2h-2l-6-.2-5.5-1-5.5-1.5-5.2-1.8-5-2.2-4.8-2.5-4.7-2.8-4.5-2.7-9-6.5-9-6.8-9.3-6.5-4.7-3.2-5-3-4-2.3-4.3-1.5-4.7-1.5-4.8-.7-2.7-.3h-5.5l-2.8.3-2.7.5-2.8.5-2.7.7-2.5 1-2.8 1-2.7 1.5-2.5 1.5-2.8 1.8-2.2 2-3 2.5-3.3 3.2-3 3.5-1.5 2.3-1.2 2-1 2.2-.8 2.5-.7 2.5-.3 2.5.3 2.8.5 2.7.7 2.8 1.3 2.5 1.7 3 2 2.7 2.8 2.8 3.2 3 3.8 3 4.2 3 9.3 6.2 8.5 6.3 7.7 6 7.3 5.7 6.5 5.8 6 5.5 11 10 3.2 3 3.5 3.5 8.5 9.2 20.5 22.8 11.5 12.2 11 11.5 5 4.8 4.5 4.2 4.3 3.3 3.5 2.5 4.2 2.2 4.5 2.3 9.3 4.2 10 4 11 3.8 11.7 3.5 12.8 3.2 13.7 3 14.8 2.8 15.7 2.7 17 2.5 18.3 2.3 19.5 2.2 20.7 2 22 1.8 23.5 2 25 1.7 5.3.3"/><path d="m588.5 197-12.2-7-30-16.7-18.5-10-19-10.3-18.5-9.5-16.8-8-8-3.7-6.7-2.8-5.5-1.7-2-.5-1.5-.3h-3.3l-4 .5-5 .5-6 1-6.2 1.3-6.8 1.5-7.2 1.7-7.3 2-7 2.3-7 2.2-6.7 2.3-6 2.5-5.5 2.7-4.5 2.8-2 1.2-1.8 1.5-1.2 1.3-1.3 1.2-25.7 28.5-18.5 21-18.8 21-8.2 9.8-7 8.5-5.3 7-3.5 5-1.5 2.7-1.2 2.5-1 2.5-.8 2.3-.5 2.2-.5 2.3v4l.3 1.7.2 1.8.5 1.5.8 1.5.7 1.5 1 1.2 2 2.5 2.5 1.8 3 1.7 2.8 1 3 1 3.2.5h3l2.8-.2 2.5-.5 2.5-1 2.2-1 2.5-1.3 2.8-1.5 1.5-1m305.2-120.5-9.2-5-23.3-11.7-14.5-7.3-15-7.2-14.5-7-13.5-5.8-6.5-2.5-5.7-2-4.8-1.5-1.7-.2-1.5-.3h-2.5l-2.3.3-2.2.5-2.3.7-1.7 1-2 1-1.8 1.3-1.5 1.5-1.5 1.5-1.5 1.5-1 1.7-1.2 1.8-1.8 4-1.2 3.7m45-14.2-.5-1-.3-1v-2.3l.3-2.2 1-2.5 1.2-2.3 1.8-2.5 2-2.2 2.5-2 2.5-2 3-1.5 3-1.3 3.2-1 3.3-.5h3.5l3.5.5 1.7.5 1.5.8 18 7.5 10.8 4.7 41.2 19 3 1.5 8.5 4.5 13.3 7.5 8 4.8 9 5.2 9.7 6.3 10.3 6.7 11 7.5 11.2 8 11.8 8.8 11.7 9.2 12.3 10 12 10.5"/><path d="m355.8 244.5 6-4.2 6-4.5 12-9.5 5.7-4.5 5.8-4 5.2-3.8 5.3-3 4.5-2.2 4.2-2 4.5-1.5 4.8-1.5 4.5-1.3 4.7-.7 4.8-.8 4.7-.2 3-.3 2.8.3 2.7.2 2.8.5 2.7.8 2.5 1 2.8 1 2.5 1 5.2 2.7 4.8 3.3 4.7 3.7 4.5 4.3 4 4.5 3.8 4.7 3.5 5 2.7 5.3 2.8 5.2 2 5.5 1.5 5.3 1 5.2v6.5l-.5 2-.5 2.3-.5 2-1 2-1 2-1.5 2-1.5 1.7-1.8 1.8-2 1.7-2.2 1.8-2.5 1.5-2.8 1.2-3 1.3-4 1.2m-144.5-45.7 3.8-61.8 2.7-43m-14 221.5v-1l.8-50.7m-230.5 222 284.7-120.5 38-16"/><path d="m319.8 358.3 4.2 2.7 4.8 3.5 6 4.5 6.5 5.3m20.2 17.7 3.8 3.5 3.7 4 3.5 4 3.5 4 3 4.3.5.5m11.3 24.2v.3l.2 3.5-.2 3.5-.8 3.2-1.2 3-1.8 3.3-2.2 2.7-2.8 2.8-1.5 1.2m-23.7 13.3-1.8 1-19.5 9.7-2.7 1.3m-24.5 11.7-12.3 5.8-12.2 5.5m-24.5 11.2-3 1.5-21.5 9.5m-24.8 11-2.5 1-9 3.8-13.5 5.2m-24.7 10.8-6 3-8 4.5-3.8 2.5-3.7 2.5-1.8 1.2m-19 19.3-1.2 1.7-2.3 4-2.2 4-2 4.3-1.8 4.7-1.5 4.8v.7m-1.5 26.8 1 4.5 1.5 5.5 2 5.2 2.5 5 2.8 5m16 21.5 1.5 1.8 3.7 4 4 3.7 3.8 3.5 6.7 5.5m22.8 14.3 6 2.7 7.7 3.3 8 3 3.3 1m26.2 6.2 3.3.8 8.5 1 8.2 1 6.8.5m27 0 6.5-.3 8.7-1 9.3-1.2 2.5-.3m26.2-5.5h.3l9.7-2.7 9.8-3.3 6-2.2m24-12.3 3.5-2.5 3.2-2.7 3.3-2.8 3-2.7 2.5-3.3 2.2-3 1.3-2"/></g></svg>