<svg height="850" viewBox="0 0 850 850" width="850" xmlns="http://www.w3.org/2000/svg"><path d="m397.5 741.5.8-7.5h.2l1 2.8.3 2.5v2l-.3 2-.7 1.7-1 1.5-1 1.3-1.5 1.2-3 2-3 1.5-2.5 1.5-1 .8-.8.7-2 2.8-1.5 3.2-1.2 3.3-1 3.2-1.3 3.3-1.7 3.5-1.8 3.2-2.5 3.3-2.7 2.5-1.5 1.2-1.5 1-1.8 1-2 .8-1.7.5-2.3.2-1.5.3-1.5-.3-1.7-.5-1.5-.5-1.8-.7-1.5-1-1.5-1.3-1.5-1.2-1.2-1.5-1-1.5-.8-1.8-.5-2v-4l.5-2 1-2.2 3.8-6.5 3.7-6.8 3.8-6.7 3-6.5zm48.8 0h42.7v1l3 6.3 3.8 6.5 3.7 6.5 3.5 6.5 1 2.2.5 2v4l-.5 2-.7 1.8-1 1.5-1.3 1.5-1.5 1.2-1.5 1.3-1.5 1-1.7.7-1.5.5-1.8.5-1.5.3-1.5-.3-2.2-.2-1.8-.5-2-.8-1.7-1-1.5-1-1.5-1.2-2.8-2.5-2.5-3.3-1.7-3.2-1.8-3.5-1.2-3.3-1-3.2-1.3-3.3-1.5-3.2-2-2.8-.7-.7-1.3-.8-2.7-1.5-3.5-1.5-3.5-2-1.8-1.2-1.2-1.3-1.3-1.5-1-1.7-.5-2-.2-2 .2-2.5 1-2.8z" fill="#231f20"/><path d="m358.3 741.8-12.3.2-.5-8.2v-13.3l.3-38.5.5-50 1-55.2 1.7-102.3.8-50.7v-6.3h141.2l3.3-.2v7l2.5 163 2.7 154.2h-53.2l-.8-7.5-23-251v-1.2l-24.2 252.2-.8 7.5z" fill="#7a7878"/><path d="m558.5 440 .5 3.8v7.5l-.2 3.7-.3 3.8-.7 3.7-1.3 7-1.7 6.5-2 5.8-1.8 4.5-1.2 3.5-1 1.5-1.3 1.7-1.5 1.5-1.7 1.3-2 1-2 .7-2 .5h-1l-1-.2-1-.5-1-.8-.8-.7-.5-1.3-1-2.5-.7-3-1-6.5-.5-2.7-.8-2.3-.7.3-.8.2-1 .8-.7 1.2-.5 1.3-.5 1-.5 1-.8.7h-1l-1-1.5-.7-2.5-.8-2.5-.5-3.2-.5-3.3-.2-3.5-.3-7.2.3-5.8.2-5 .8-4.2.5-1.5.2-1.3-.5-2 37.5-6.2h.3zm-273-6.5 37.3 6-.5 2.3.5 1 .5 1.7.5 4 .5 5.3.2 5.7-.2 7-.3 3.5-.5 3.5-.5 3-.7 2.8-.8 2.2-1 1.8h-.7l-.5-.3-.5-.5-.8-1-.2-1.2-.8-1.3-.5-1.2-1.2-.8-.5-.2h-.8l-.7 2-.5 2.7-1 6.5-.8 3-1 2.8-.7 1-.8 1-.7.7-1 .3-1 .2h-1l-2-.2-2-.8-2-1.2-1.8-1.3-1.5-1.5-1.2-1.7-1-1.5-1.5-3.3-1.5-4.7-2-5.5-1.8-6.5-1.5-7.3-.5-3.5-.5-3.7-.2-3.8v-4l.2-3.7.5-3.5.8-6zm137-371.5h2.3l2.2.3 2.3.2 2.2.5 4.3 1.5 4.2 2.3 3.8 2.5 3.7 3 3.3 3.5 3.2 3.7 3 4.3 2.5 4.7 2.3 5 1.7 5.3 1.5 5.5 1.3 5.7.5 6 .2 6.3v4.2l-.2 4.3-.8 4-.5 4-1 4-1.2 3.7-1.3 3.5-1.2 3.5-1.8 3.5-1.7 3.3-2 3-2 2.7-2.3 2.8-2.2 2.5-2.5 2-2.5 2.2-2.5 1.5-2.3 1.5-2.7 1.3-2.5 1-2.8.7-2.7.8-2.8.2-3 .3-2.7-.3-2.8-.2-2.7-.8-2.8-.7-2.7-1-2.5-1.3-2.5-1.5-2.5-1.5-2.5-2.2-2.5-2-2.3-2.5-2.2-2.8-2-2.7-1.8-3-2-3.3-1.5-3.5-1.5-3.5-1.2-3.5-1-3.7-1-4-.8-4-.5-4-.2-4.3-.3-4.2.3-6.3.7-6 1-5.7 1.5-5.5 2-5.3 2.3-5 2.5-4.7 2.7-4.3 3.3-3.7 3.5-3.5 3.5-3 4-2.5 4-2.3 4.2-1.5 2.3-.5 2.2-.2 2.3-.3z" fill="#ffeec8"/><path d="m454.5 187.5 2 1.5-1 2.8-1.2 2.5-1.3 2.2-1.5 2.3-1.7 2.2-1.8 2-2 1.8-2.2 1.5-2.3 1.5-2.5 1.2-2.5 1-2.7 1-3 .5-3 .5-3 .3h-6l-2.8-.5-2.5-.5-2.5-.5-2.5-1-2.5-1-2.2-1-2-1.3-2-1.5-2-1.5-1.8-1.7-1.7-1.8-1.5-1.7-1.3-2-1.2-2.3-1-2-5.3-1 5-1.7 2.3-1.8 2.2-1.7 1.8-2 1.5-2 2-3 .5-1.5 2-1.8 2.5 1.5 2.5 1.5 2.5 1.3 2.7 1 2.8.7 2.7.8 2.8.2 2.7.3 3-.3 2.8-.2 2.7-.8 2.8-.7 2.5-1 2.7-1.3 2.3-1.5 2.5-1.5 2.7.3.8 1.2 1.5 3 2.5 4 1.5 1.8z" fill="#ffeec8"/><path d="m493.3 398.3h.2l.5 9.2.3 9.8-3.3.2h-141.2l.2-15.5.5-16.7 1.3-33 1.2-27.3.8-14.2-31 128.7-37.3-6-.2-.2 3-22.8 4.2-32 4.8-32.2 2-13.3 1.7-10 3.3-16.2 3.2-14.5 2.8-12.8 2.7-11.2 2.8-9.8 2.2-8.2 2.3-7.3 2-6 1.7-4.7 1.5-4 2.5-5.3 1.5-2.5.5-.7 3-3 3.8-2.8 4.5-2.7 4.5-2.8 5-2.7 5.2-2.5 10.3-5 9.7-4 8-3.3 5.3 1 1 2 1.2 2.3 1.3 2 1.5 1.7 1.7 1.8 1.8 1.7 2 1.5 2 1.5 2 1.3 2.2 1 2.5 1 2.5 1 2.5.5 2.5.5 2.8.5h6l3-.3 3-.5 3-.5 2.7-1 2.5-1 2.5-1.2 2.3-1.5 2.2-1.5 2-1.8 1.8-2 1.7-2.2 1.5-2.3 1.3-2.2 1.2-2.5 1-2.8-2-1.5 11.8 5 8.2 3.8 9.3 4.5 9.2 4.7 9 5 4 2.5 3.8 2.8 3.2 2.5 2.8 2.5.2.5 1.5 2.2 2 5 1.5 3.5 1.5 4.8 1.8 5.7 2 7.3 2.2 8.2 2.3 9.8 2.5 11.5 2.7 13 2.8 14.7 3 16.8 3.7 23.5 4.5 32.2 7.8 54.8h-.3l-37.5 6.2-30.7-129-1.3.3z" fill="#a9d7f3"/><g fill="none" stroke="#231f20" stroke-linecap="round" stroke-miterlimit="10" stroke-width="14"><path d="m401.3 175.5-2.5-2.2-2.5-2-2.3-2.5-2.2-2.8-2-2.7-1.8-3-2-3.3-1.5-3.5-1.5-3.5-1.2-3.5-1-3.7-1-4-.8-4-.5-4-.2-4.3-.3-4.2.3-6.3.7-6 1-5.7 1.5-5.5 2-5.3 2.3-5 2.5-4.7 2.7-4.3 3.3-3.7 3.5-3.5 3.5-3 4-2.5 4-2.3 4.2-1.5 2.3-.5 2.2-.2 2.3-.3h4.5l2.2.3 2.3.2 2.2.5 4.3 1.5 4.2 2.3 3.8 2.5 3.7 3 3.3 3.5 3.2 3.7 3 4.3 2.5 4.7 2.3 5 1.7 5.3 1.5 5.5 1.3 5.7.5 6 .2 6.3v4.2l-.2 4.3-.8 4-.5 4-1 4-1.2 3.7-1.3 3.5-1.2 3.5-1.8 3.5-1.7 3.3-2 3-2 2.7-2.3 2.8-2.2 2.5-2.5 2-2.5 2.2-2.5 1.5-2.3 1.5-2.7 1.3-2.5 1-2.8.7-2.7.8-2.8.2-3 .3-2.7-.3-2.8-.2-2.7-.8-2.8-.7-2.7-1-2.5-1.3-2.5-1.5zm92 224v-1.2l-5.3-86.5v-1.3"/><path d="m353.8 310v.8l-.8 14.2-1.2 27.3-1.3 33-.5 16.7-.2 15.5v6.3l-.8 50.7-1.7 102.3-1 55.2-.5 50-.3 38.5v13.3l.5 8.2 12.3-.2 39.2-.3.8-7.5 24.2-252.2v1.2l23 251 .8 7.5h53.2l-2.7-154.2-2.5-163v-7l-.3-9.8-.5-9.2v-1.5m-140.7 20.7h138.2m-206.5 21.8.8-6 3-22.8 4.2-32 4.8-32.2 2-13.3 1.7-10 3.3-16.2 3.2-14.5 2.8-12.8 2.7-11.2 2.8-9.8 2.2-8.2 2.3-7.3 2-6 1.7-4.7 1.5-4 2.5-5.3 1.5-2.5.5-.7 3-3 3.8-2.8 4.5-2.7 4.5-2.8 5-2.7 5.2-2.5 10.3-5 9.7-4 8-3.3 5-1.7 2.5-1"/><path d="m353.8 310.8-31 128.7-.5 2.3.5 1 .5 1.7.5 4 .5 5.3.2 5.7-.2 7-.3 3.5-.5 3.5-.5 3-.7 2.8-.8 2.2-1 1.8h-.7l-.5-.3-.5-.5-.8-1-.2-1.2-.8-1.3-.5-1.2-1.2-.8-.5-.2h-.8l-.7 2-.5 2.7-1 6.5-.8 3-1 2.8-.7 1-.8 1-.7.7-1 .3-1 .2h-1l-2-.2-2-.8-2-1.2-1.8-1.3-1.5-1.5-1.2-1.7-1-1.5-1.5-3.3-1.5-4.7-2-5.5-1.8-6.5-1.5-7.3-.5-3.5-.5-3.7-.2-3.8v-4l.2-3.7.5-3.5"/><path d="m285.5 433.5 37.3 6 1.5.3m130.2-252.3-2.2-.7m106.2 253.2-.7-5.7-7.8-54.8-4.5-32.2-3.7-23.5-3-16.8-2.8-14.7-2.7-13-2.5-11.5-2.3-9.8-2.2-8.2-2-7.3-1.8-5.7-1.5-4.8-1.5-3.5-2-5-1.5-2.2-.2-.5-2.8-2.5-3.2-2.5-3.8-2.8-4-2.5-9-5-9.2-4.7-9.3-4.5-8.2-3.8-11.8-5m34.8 124 30.7 129 .5 2-.2 1.3-.5 1.5-.8 4.2-.2 5-.3 5.8.3 7.2.2 3.5.5 3.3.5 3.2.8 2.5.7 2.5 1 1.5h1l.8-.7.5-1 .5-1 .5-1.3.7-1.2 1-.8.8-.2.7-.3.8 2.3.5 2.7 1 6.5.7 3 1 2.5.5 1.3.8.7 1 .8 1 .5 1 .2h1l2-.5 2-.7 2-1 1.7-1.3 1.5-1.5 1.3-1.7 1-1.5 1.2-3.5 1.8-4.5 2-5.8 1.7-6.5 1.3-7 .7-3.7.3-3.8.2-3.7v-7.5l-.5-3.8"/><path d="m557.5 434.3-37.5 6.2-1.5.3m-62-251.8-1 2.8-1.2 2.5-1.3 2.2-1.5 2.3-1.7 2.2-1.8 2-2 1.8-2.2 1.5-2.3 1.5-2.5 1.2-2.5 1-2.7 1-3 .5-3 .5-3 .3h-6l-2.8-.5-2.5-.5-2.5-.5-2.5-1-2.5-1-2.2-1-2-1.3-2-1.5-2-1.5-1.8-1.7-1.7-1.8-1.5-1.7-1.3-2-1.2-2.3-1-2m57.2-16.2.8 1.2 1.5 3 2.5 4 1.5 1.8 1.7 1.7 2 1.5 1.5 1 1.5.5m-60.2-13.2-.5 1.5-2 3-1.5 2-1.8 2-2.2 1.7-2.3 1.8-2.7 1.2m-27.8 550.8-.2.5-3 6.5-3.8 6.7-3.7 6.8-3.8 6.5-1 2.2-.5 2v4l.5 2 .8 1.8 1 1.5 1.2 1.5 1.5 1.2 1.5 1.3 1.5 1 1.8.7 1.5.5 1.7.5 1.5.3 1.5-.3 2.3-.2 1.7-.5 2-.8 1.8-1 1.5-1 1.5-1.2 2.7-2.5 2.5-3.3 1.8-3.2 1.7-3.5 1.3-3.3 1-3.2 1.2-3.3 1.5-3.2 2-2.8.8-.7 1-.8 2.5-1.5 3-1.5 3-2 1.5-1.2 1-1.3 1-1.5.7-1.7.3-2v-2l-.3-2.5-1-2.8m90.5 8.5 3 6.3 3.8 6.5 3.7 6.5 3.5 6.5 1 2.2.5 2v4l-.5 2-.7 1.8-1 1.5-1.3 1.5-1.5 1.2-1.5 1.3-1.5 1-1.7.7-1.5.5-1.8.5-1.5.3-1.5-.3-2.2-.2-1.8-.5-2-.8-1.7-1-1.5-1-1.5-1.2-2.8-2.5-2.5-3.3-1.7-3.2-1.8-3.5-1.2-3.3-1-3.2-1.3-3.3-1.5-3.2-2-2.8-.7-.7-1.3-.8-2.7-1.5-3.5-1.5-3.5-2-1.8-1.2-1.2-1.3-1.3-1.5-1-1.7-.5-2-.2-2 .2-2.5 1-2.8m-193.7-533v-3.5l.5-3.5.5-3.2 1.2-3.3 1.3-3.2 1.5-3 2-3 2-2.5 2.2-2.8 2.5-2.2 2.8-2.3 2.7-2 2.8-1.7 3-1.5 3-1.3 3.2-1m-50.2 26.8v-3.5l.5-3.5.7-3.5 1-3.3 1.3-3 1.7-3 1.8-3 2-2.7 2.2-2.5 2.5-2.3 2.8-2.2 2.7-2 3-1.8 2.8-1.5 3.2-1.2 3-1m-51.2 315.7-2.5-2.7-1.8-3-1.7-3-1.3-3-1-3.3-.7-3.5-.5-3.2-.3-3.5.3-3.3.2-3.5.5-3.2 1-3.5 1-3 1.3-3.3 1.5-3 1.7-2.7m-20.7 52.7-2.5-2.5-1.8-3-1.7-3-1.3-3.2-1-3.3-.7-3.2-.5-3.3-.3-3.5.3-3.5.2-3.2.5-3.5 1-3.3 1-3.2 1.3-3 1.5-3 1.7-2.8m76.3 312-3.3-1-3-1.5-3-2-2.7-2-2.5-2.2-2.3-2.5-2.2-2.8-1.8-2.7-1.7-3-1.5-3.3-1-3-1-3.2-.8-3.5-.5-3.3v-6.5m8.5 56-3.2-1.2-3.3-1.5-2.7-1.8-2.8-2-2.5-2.2-2.2-2.5-2.3-2.8-1.7-2.7-1.8-3-1.5-3.3-1-3.2-1-3.3-.7-3.2-.5-3.3v-6.5m380.2-499.5v-3.5l-.5-3.5-.7-3.2-1-3.3-1.3-3.2-1.7-3-1.8-2.8-2-2.7-2.2-2.8-2.5-2.2-2.8-2.3-2.7-2-2.8-1.7-3-1.5-3.2-1.3-3-1m50 26.8v-3.5l-.3-3.5-.7-3.3-1-3.2-1.3-3.3-1.7-3-1.8-3-2.2-2.5-2.3-2.7-2.5-2.3-2.5-2.2-2.7-2-3-1.8-3-1.5-3-1.2-3-1m51.2 315.7 2.3-2.7 2-2.8 1.7-3.2 1.3-3 1-3.3.7-3.2.5-3.5.3-3.5-.3-3.3-.2-3.5-.8-3.2-.7-3.5-1-3-1.3-3.3-1.5-3-1.7-2.7m20.7 52.7 2.3-2.5 2-3 1.7-3 1.3-3 1-3.2.7-3.5.5-3.3.3-3.5-.3-3.5-.2-3.2-.5-3.5-1-3.3-1-3.2-1.3-3-1.5-3-1.7-2.8m-76.5 312 3.5-1 3-1.5 3-1.7 2.7-2.3 2.5-2.2 2.3-2.5 2.2-2.8 1.8-2.7 1.7-3 1.3-3 1.2-3.3 1-3.2.8-3.5.2-3.3.3-3.2v-3.3m-8.5 56 3.2-1 3-1.5 3-2 2.8-2 2.5-2.2 2.2-2.5 2.3-2.8 1.7-2.7 1.8-3 1.2-3.3 1.3-3 1-3.2.7-3.5.5-3.3v-6.5"/></g></svg>