<svg height="850.394" viewBox="0 0 850.394 850.394" width="850.394" xmlns="http://www.w3.org/2000/svg"><path d="m399.06 56.34 336.12 168.16 1.101.54v1.98h-2.721l-275.95 186.18-.16.1-1.05.7-343.28-208.26-2.14.01-.01-1.56 1.39-.71zm91.08 173.18 45.61-56.89-81.32 1.58-50.17-57.15-20.42 67.6-76.56 21.54 68.64 40.1 2.89 70.49 62.85-42.71 78.33 21.92z" fill="#f73900"/><path d="m535.75 172.63-45.61 56.89 29.85 66.48-78.33-21.92-62.85 42.71-2.89-70.49-68.64-40.1 76.56-21.54 20.42-67.6 50.17 57.15z" fill="#be0000"/><path d="m736.28 227.02.399 357.69-281.329 208.64-1.71-2.31 3.971-377.5-.16-.24.16-.1 275.949-186.18zm-72.28 331.33 7.82-175.33-142.24 62.56z" fill="#00e800"/><path d="m671.82 383.02-7.82 175.33-134.42-112.77z" fill="#33a02c"/><path d="m457.45 413.3.16.24-3.971 377.5 1.71 2.31-2.96 2.2-338.929-189.31-2.48-400.49 2.14-.01 343.28 208.26zm-72.02 144.95-8.62-115.98-104.75-50.53-96.13 65.47 8.62 115.87 104.75 50.52z" fill="#a3d9ff"/><path d="m376.81 442.27 8.62 115.98-96.13 65.35-104.75-50.52-8.62-115.87 96.13-65.47z" fill="#0b00ea"/><g fill="none"><g stroke="#000"><path d="m535.75 172.63-45.61 56.89 29.85 66.48-78.33-21.92-62.85 42.71-2.89-70.49-68.64-40.1 76.56-21.54 20.42-67.6 50.17 57.15z" stroke-width="16.995"/><path d="m113.12 205.74 343.28 208.26 1.05-.7.16-.1 275.95-186.18" stroke-width="25.493"/><path d="m455.35 793.35-2.96 2.2-338.93-189.31-2.48-400.49-.01-1.56 1.39-.71 286.7-147.14 336.12 168.16 1.1.54v1.98l.4 357.69zm2.26-379.81-3.97 377.5" stroke-width="25.493"/><path d="m385.43 558.25-96.13 65.35-104.75-50.52-8.62-115.87 96.13-65.47 104.75 50.53zm286.39-175.23-142.24 62.56 134.42 112.77z" stroke-width="16.995"/></g><path d="m0 0h850.394v850.394h-850.394z"/></g></svg>