<svg height="850.394" viewBox="0 0 850.394 850.394" width="850.394" xmlns="http://www.w3.org/2000/svg"><path d="m643.51 304.38c4.11-4.59 6.59-10.6 6.59-17.17 0-14.39-11.89-26.06-26.569-26.06-14.67 0-26.57 11.67-26.57 26.06 0 12.49 8.97 22.94 20.94 25.47l-2.66.86c-.26 1.31-.4 2.67-.391 4.07 0 11.15 8.631 20.18 19.29 20.18 10.65 0 19.28-9.03 19.28-20.18 0-5.7-2.25-10.86-5.89-14.53zm26.49-27.09 47.04 81.49h-188.18l47.05-81.49 47.04-81.49z" fill="#ef947d"/><path d="m222.74 544.28c4.09-4.59 6.57-10.59 6.57-17.16 0-14.4-11.89-26.061-26.57-26.061-14.67 0-26.57 11.66-26.57 26.061 0 12.5 8.97 22.939 20.94 25.47l-2.66.86c-.26 1.31-.4 2.67-.39 4.06 0 11.15 8.63 20.19 19.29 20.19 10.65 0 19.29-9.04 19.29-20.19 0-5.7-2.26-10.85-5.91-14.529zm23.94-78.48v162.49c0 13.54-10.98 24.53-24.52 24.53h-37.81c-13.55 0-24.53-10.99-24.53-24.53v-162.49c0-13.55 10.98-24.53 24.53-24.53h37.81c13.54 0 24.52 10.98 24.52 24.53z" fill="#cb82b7"/><path d="m237.28 273.73c4.11-4.59 6.59-10.6 6.59-17.17 0-14.4-11.89-26.06-26.57-26.06-14.67 0-26.57 11.66-26.57 26.06 0 12.49 8.96 22.93 20.92 25.46l-2.64.86c-.26 1.32-.4 2.68-.39 4.07 0 11.15 8.63 20.19 19.29 20.19 10.65 0 19.29-9.04 19.29-20.19 0-5.7-2.26-10.85-5.9-14.52zm66.89-51.41v111.39c0 13.55-10.98 24.53-24.53 24.53h-115.48c-13.54 0-24.52-10.98-24.52-24.53v-111.39c0-13.55 10.98-24.53 24.52-24.53h115.48c13.55 0 24.53 10.98 24.53 24.53z" fill="#58b947"/><path d="m416.08 287.72c0 11.15 8.63 20.18 19.29 20.18 10.649 0 19.29-9.03 19.29-20.18 0-5.71-2.26-10.86-5.9-14.53l-4.02 1.3c4.109-4.59 6.59-10.6 6.59-17.17 0-14.39-11.89-26.06-26.57-26.06-14.67 0-26.57 11.67-26.57 26.06 0 12.5 8.97 22.94 20.94 25.47l-2.66.86c-.26 1.31-.39 2.67-.39 4.07zm10.21-86.86c44.31 0 80.22 35.91 80.22 80.22s-35.91 80.22-80.22 80.22c-44.3 0-80.22-35.91-80.22-80.22s35.92-80.22 80.22-80.22z" fill="#0071bc"/><path d="m414.08 548.88c4.11-4.58 6.59-10.59 6.59-17.17 0-14.39-11.89-26.06-26.57-26.06-14.67 0-26.57 11.67-26.57 26.06 0 12.51 8.97 22.94 20.94 25.47l-2.66.86c-.26 1.32-.4 2.68-.39 4.07 0 11.149 8.63 20.189 19.29 20.189 10.65 0 19.29-9.04 19.29-20.189 0-5.7-2.27-10.851-5.91-14.53zm68.34-30.04-44.33 43.34 10.15 61.511-54.42-29.25-54.67 28.779 10.68-61.42-43.95-43.72 61.03-8.71 27.51-55.811 27.03 56.04z" fill="#fbed24"/><path d="m635.86 546.58c4.1-4.58 6.58-10.59 6.58-17.16 0-14.4-11.9-26.07-26.57-26.07-14.68 0-26.58 11.67-26.58 26.07 0 12.49 8.97 22.93 20.94 25.46l-2.66.86a21.842 21.842 0 0 0 -.391 4.069c0 11.15 8.641 20.19 19.29 20.19 10.65 0 19.29-9.04 19.29-20.19 0-5.699-2.26-10.85-5.899-14.529zm66.87-51.41v111.4c0 13.55-10.98 24.529-24.53 24.529h-115.47c-13.551 0-24.53-10.979-24.53-24.529v-111.4c0-13.54 10.979-24.52 24.53-24.52h115.47c13.55 0 24.53 10.98 24.53 24.52z" fill="#ed1e29"/><path d="m229.31 527.12c0 6.57-2.48 12.57-6.57 17.16l-25.63 8.31c-11.97-2.53-20.94-12.97-20.94-25.47 0-14.4 11.9-26.061 26.57-26.061 14.68.001 26.57 11.661 26.57 26.061zm191.36 4.59c0 6.58-2.48 12.59-6.59 17.17l-25.61 8.3c-11.97-2.529-20.94-12.96-20.94-25.47 0-14.39 11.9-26.06 26.57-26.06 14.68 0 26.57 11.67 26.57 26.06zm221.77-2.29c0 6.57-2.48 12.58-6.58 17.16l-25.63 8.3c-11.971-2.53-20.94-12.97-20.94-25.46 0-14.4 11.9-26.07 26.58-26.07 14.67 0 26.57 11.67 26.57 26.07zm7.66-242.21c0 6.57-2.479 12.58-6.59 17.17l-25.609 8.3c-11.971-2.53-20.94-12.98-20.94-25.47 0-14.39 11.9-26.06 26.57-26.06 14.679 0 26.569 11.67 26.569 26.06zm-198.77-29.89c0 6.57-2.48 12.58-6.59 17.17l-25.61 8.3c-11.97-2.53-20.94-12.97-20.94-25.47 0-14.39 11.9-26.06 26.57-26.06 14.68 0 26.57 11.67 26.57 26.06z" fill="#f6cc4b"/><path d="m746.68 171.22v506.89c0 13.54-10.989 24.529-24.529 24.529h-595.8c-13.55 0-24.53-10.989-24.53-24.529v-506.89c0-13.55 10.98-24.53 24.53-24.53h595.8c13.539 0 24.529 10.98 24.529 24.53zm-29.64 187.56-47.04-81.49-47.05-81.49-47.04 81.49-47.05 81.49zm-14.31 247.79v-111.4c0-13.54-10.98-24.52-24.53-24.52h-115.47c-13.551 0-24.53 10.979-24.53 24.52v111.4c0 13.55 10.979 24.529 24.53 24.529h115.47c13.55.001 24.53-10.979 24.53-24.529zm-196.22-325.49c0-44.31-35.91-80.22-80.22-80.22-44.3 0-80.22 35.91-80.22 80.22s35.92 80.22 80.22 80.22c44.31 0 80.22-35.91 80.22-80.22zm-68.42 281.1 44.33-43.34-60.97-9.24-27.03-56.04-27.51 55.811-61.03 8.71 43.95 43.72-10.68 61.42 54.67-28.779 54.42 29.25zm-133.92-228.47v-111.39c0-13.55-10.98-24.53-24.53-24.53h-115.48c-13.54 0-24.52 10.98-24.52 24.53v111.39c0 13.55 10.98 24.53 24.52 24.53h115.48c13.55 0 24.53-10.98 24.53-24.53zm-57.49 294.58v-162.49c0-13.55-10.98-24.53-24.52-24.53h-37.81c-13.55 0-24.53 10.98-24.53 24.53v162.49c0 13.54 10.98 24.53 24.53 24.53h37.81c13.54 0 24.52-10.99 24.52-24.53z" fill="#f6cc4b"/><path d="m243.87 256.56c0 6.57-2.48 12.58-6.59 17.17l-25.63 8.29c-11.96-2.53-20.92-12.97-20.92-25.46 0-14.4 11.9-26.06 26.57-26.06 14.68 0 26.57 11.66 26.57 26.06z" fill="#f6cc4b"/><g fill="#231f20"><path d="m647.53 303.08c3.64 3.67 5.89 8.83 5.89 14.53 0 11.15-8.63 20.18-19.28 20.18-10.659 0-19.29-9.03-19.29-20.18-.01-1.4.131-2.76.391-4.07l2.66-.86c1.81.39 3.699.59 5.63.59 7.97 0 15.12-3.44 19.979-8.89zm-7.67 242.2c3.64 3.68 5.899 8.83 5.899 14.529 0 11.15-8.64 20.19-19.29 20.19-10.649 0-19.29-9.04-19.29-20.19 0-1.39.141-2.75.391-4.069l2.66-.86c1.819.39 3.699.59 5.64.59 7.97 0 15.12-3.439 19.99-8.89z"/><path d="m617.9 312.68 25.609-8.3c-4.859 5.45-12.01 8.89-19.979 8.89-1.93 0-3.82-.2-5.63-.59zm-7.67 242.2 25.63-8.3c-4.87 5.45-12.021 8.89-19.99 8.89-1.94 0-3.82-.2-5.64-.59zm-161.47-281.69c3.641 3.67 5.9 8.82 5.9 14.53 0 11.15-8.641 20.18-19.29 20.18-10.66 0-19.29-9.03-19.29-20.18 0-1.4.13-2.76.39-4.07l2.66-.86c1.81.39 3.7.59 5.63.59 7.971 0 15.12-3.44 19.98-8.89z"/><path d="m419.13 282.79 25.61-8.3c-4.86 5.45-12.01 8.89-19.98 8.89-1.93 0-3.82-.2-5.63-.59zm-1.04 264.79c3.64 3.68 5.91 8.83 5.91 14.53 0 11.149-8.64 20.189-19.29 20.189-10.66 0-19.29-9.04-19.29-20.189-.01-1.391.13-2.75.39-4.07l2.66-.86c1.81.391 3.7.59 5.63.59 7.97 0 15.12-3.439 19.98-8.89z"/><path d="m388.47 557.18 25.61-8.3c-4.86 5.45-12.01 8.89-19.98 8.89-1.93 0-3.82-.2-5.63-.59zm-147.17-284.75c3.64 3.67 5.9 8.82 5.9 14.52 0 11.15-8.64 20.19-19.29 20.19-10.66 0-19.29-9.04-19.29-20.19-.01-1.39.13-2.75.39-4.07l2.64-.86c1.82.4 3.71.6 5.65.6 7.97 0 15.12-3.44 19.98-8.89z"/><path d="m211.65 282.02 25.63-8.29c-4.86 5.45-12.01 8.89-19.98 8.89-1.94 0-3.83-.2-5.65-.6zm15.08 260.96c3.65 3.68 5.91 8.829 5.91 14.529 0 11.15-8.64 20.19-19.29 20.19-10.66 0-19.29-9.04-19.29-20.19-.01-1.39.13-2.75.39-4.06l2.66-.86c1.81.391 3.7.59 5.63.59 7.98 0 15.13-3.449 20-8.899z"/><path d="m197.11 552.59 25.63-8.31c-4.87 5.45-12.02 8.899-20 8.899-1.93.001-3.82-.199-5.63-.589z"/></g><g fill="none" stroke="#231f20" stroke-linecap="round" stroke-linejoin="round"><path d="m448.24 623.69-54.42-29.25-54.67 28.78 10.68-61.42-43.95-43.72 61.03-8.71 27.51-55.81 27.03 56.04 60.97 9.24-44.33 43.34z" stroke-width="14"/><path d="m746.68 678.11c0 13.54-10.989 24.529-24.529 24.529h-595.8c-13.55 0-24.53-10.989-24.53-24.529v-506.89c0-13.55 10.98-24.53 24.53-24.53h595.8c13.54 0 24.529 10.98 24.529 24.53z" stroke-width="21"/><g stroke-width="14"><path d="m304.17 333.71c0 13.55-10.98 24.53-24.53 24.53h-115.48c-13.54 0-24.52-10.98-24.52-24.53v-111.39c0-13.55 10.98-24.53 24.52-24.53h115.48c13.55 0 24.53 10.98 24.53 24.53zm202.34-52.63c0 44.31-35.91 80.22-80.22 80.22-44.3 0-80.22-35.91-80.22-80.22s35.92-80.22 80.22-80.22c44.31 0 80.22 35.91 80.22 80.22zm116.44-85.28 47.05 81.49 47.04 81.49h-188.18l47.05-81.49zm-376.27 432.49c0 13.54-10.98 24.53-24.52 24.53h-37.81c-13.55 0-24.53-10.99-24.53-24.53v-162.49c0-13.55 10.98-24.53 24.53-24.53h37.81c13.54 0 24.52 10.98 24.52 24.53z"/><path d="m211.65 282.02c-11.96-2.53-20.92-12.97-20.92-25.46 0-14.4 11.9-26.06 26.57-26.06 14.68 0 26.57 11.66 26.57 26.06 0 6.57-2.48 12.58-6.59 17.17m4.02-1.3c3.64 3.67 5.9 8.82 5.9 14.52 0 11.15-8.64 20.19-19.29 20.19-10.66 0-19.29-9.04-19.29-20.19-.01-1.39.13-2.75.39-4.07m493.72 323.69c0 13.55-10.98 24.529-24.53 24.529h-115.47c-13.551 0-24.53-10.979-24.53-24.529v-111.4c0-13.54 10.979-24.52 24.53-24.52h115.47c13.55 0 24.53 10.979 24.53 24.52z"/><path d="m610.23 554.88c-11.971-2.53-20.94-12.97-20.94-25.46 0-14.4 11.9-26.07 26.58-26.07 14.67 0 26.57 11.67 26.57 26.07 0 6.57-2.48 12.58-6.58 17.16"/><path d="m639.86 545.28c3.64 3.68 5.899 8.83 5.899 14.529 0 11.15-8.64 20.19-19.29 20.19-10.649 0-19.29-9.04-19.29-20.19 0-1.39.141-2.75.391-4.069m-219.1 1.44c-11.97-2.529-20.94-12.96-20.94-25.47 0-14.39 11.9-26.06 26.57-26.06 14.68 0 26.57 11.67 26.57 26.06 0 6.58-2.48 12.59-6.59 17.17"/><path d="m418.09 547.58c3.64 3.68 5.91 8.83 5.91 14.53 0 11.149-8.64 20.189-19.29 20.189-10.66 0-19.29-9.04-19.29-20.189-.01-1.391.13-2.75.39-4.07m-188.7-5.45c-11.97-2.53-20.94-12.97-20.94-25.47 0-14.4 11.9-26.061 26.57-26.061 14.68 0 26.57 11.66 26.57 26.061 0 6.57-2.48 12.57-6.57 17.16"/><path d="m226.73 542.98c3.65 3.68 5.91 8.829 5.91 14.529 0 11.15-8.64 20.19-19.29 20.19-10.66 0-19.29-9.04-19.29-20.19-.01-1.39.13-2.75.39-4.06m224.68-270.659c-11.97-2.53-20.94-12.97-20.94-25.47 0-14.39 11.9-26.06 26.57-26.06 14.681 0 26.57 11.67 26.57 26.06 0 6.57-2.48 12.58-6.59 17.17"/><path d="m448.76 273.19c3.641 3.67 5.9 8.82 5.9 14.53 0 11.15-8.641 20.18-19.29 20.18-10.66 0-19.29-9.03-19.29-20.18 0-1.4.13-2.76.39-4.07m201.43 29.03c-11.971-2.53-20.94-12.98-20.94-25.47 0-14.39 11.9-26.06 26.57-26.06 14.68 0 26.569 11.67 26.569 26.06 0 6.57-2.479 12.58-6.59 17.17"/><path d="m647.53 303.08c3.64 3.67 5.89 8.83 5.89 14.53 0 11.15-8.63 20.18-19.28 20.18-10.659 0-19.29-9.03-19.29-20.18-.01-1.4.131-2.76.391-4.07"/></g></g><path d="m0 0h850.394v850.394h-850.394z" fill="none"/></svg>