<svg height="850" viewBox="0 0 850 850" width="850" xmlns="http://www.w3.org/2000/svg"><path d="m661.9 277.8-4.5 38.5-10.5 85.5-25.5 74.5-2 .2-1.3-1.5-1.7-1.5-2-1.7-2.5-1.5-11.5-6.8-8.8-4.7-3.7-1.5-3.3-1.5-3-1-2.7-1-5.8-1.3-6-1-7.5-1.2-9.5-2 23.3-71.8 22.5-38.5 40.5-68.7 1.5-2.5 1.7-2.8 2.5-2.7 1.5-1.3 1.5-1.2 1.5-1.3 1.8-.7 2-.8 1.7-.2h2l2 .5.5.2 1.5 1.3 1.3 1.2 1 1.5.7 1.8.5 1.5.5 1.7.3 3.8.2 3.2-.2 2.8z" fill="#7a7878"/><path d="m661.9 277.8.5-2.5.2-2.8-.2-3.2-.3-3.8-.5-1.7-.5-1.5-.7-1.8-1-1.5-1.3-1.2-1.5-1.3-.5-.2-2-.5h-2l-1.7.2-2 .8-1.8.7-1.5 1.3-1.5 1.2-1.5 1.3-2.5 2.7-1.7 2.8-1.5 2.5-40.5 68.7-1.8-1-3 .8-30 8.7-15.5 4-13.5 3.5-10.5 2.8-7.5 1.7-126.5 26.8-.2-2.3-.3-6-.5-4-.7-4.5-1-4.7-1.3-4.8-1.5-4.7-2.2-4.5-1.3-2.3-1.2-1.7-1.5-2-1.5-1.5-1.8-1.5-2-1.3-2-1-2.2-.7-2.5-.5-2.5-.3h-2.8l-2.7.5.5-.2-.8.2-1.7-6.7-2.3-7.8-2.5-9.2-3.2-10.3 309-72.2 7.2-1.5 8.3-1.5 10.5-1.3 6-.7 6.2-.5 6.8-.3h14l7 .5 7.2.8 7 1.2 14 4.8 12.8 4.7 6.5 2.5 6 2.5-.8 1.5-2.7 3.8-1.8 2.5-2.5 3.2-3.2 3.5-3.5 3.8-4.3 4-4.7 4.2-5.5 4.5-6 4.5-7 4.5-7.5 4.5-8.5 4.5-9 4.5-6.5 3.5-9.8 4.3-10.5 4.2-11 4.3-11.7 4h-.5z" fill="#c8c8c8"/><path d="m623.1 486.5.3 4.3.2 4.5-.2 4-.5 4-1 3.5-.5 1.5-.8 1.2-.7 1-.8.8-.7.5-1 .2-3.5.5 2.5 2.3 1 1 .7 1 .8 1.7.5 1.5.2 1.8v3.7l-.2 2-1 3.8-1.5 3.7-1.8 3.5-2.2 3-2.3 2.5-1.2 1-1 .8-1.3.5-1 .2-.5.8 3.5 2 2.8 1.7 1 1 .7 1 .5.8.3 1 .2 3.5-.5 3.5-.5 3.5-1.2 3.2-1.3 3.3-1.5 3-2 2.7-2 2.5-2 2.5-2.2 2.3-2.5 1.7-2.3 1.8-2.2 1.2-2.3 1.3-2 .7-1.7.3 1.2 1 1 1 .8 1.2.2 1v4.8l-.5 2.2-.5 2-.7 2.3-1 2-1.3 2-1.5 2-1.5 2-1.5 1.7-3.7 3.5-4.3 3.3-4.5 3-2.2 1-2.8 1-3.2 1-3.5 1-3.5.2h-1.8l-1.5-.2-1.5-.3-1.2-.7-1-1-1-1.3-.3-1.7-.2-2v-1l-.5-.5-.3-.3-.7-.2h-.8l-.7.5-2.3 1-3 1.5-3.2 2.2-8.5 5.8-10 7-5.8 3.5-6 3.7-6.5 3.5-6.5 3.5-7 3.3-7.2 3-4.3 1.5-3 1-7 2-6.5 1.5-6 1.2-5.7.8-5.3.2-4.7.3-4.8-.3-4.2-.2-4.3-.5-3.7-.8-7.5-1.7-7.5-2-7.3-2-6.2-1.5-5.5-1-5-.8-4.8-.5-4.2-.2-4 .2-4 .5-3.8.8-3.7 1-3.8 1.5-3.7 1.5-4 2.2-8.8 5-10 6.5-42.2-113.7 1.7-1.3 5.5-3.2 10.3-6 15.7-8.8 22-11.5 29-14.5 36.8-17.7 21.5-10.3 24-11 26.5-12.7 13.5-6.3 13.2-6 5.3-2 5-1.5 5.2-1.2 5-.8 5-.5 4.5-.2h8.3l7 .5 2.7.5 9.5 2 7.5 1.2 6 1 5.8 1.3 2.7 1 3 1 3.3 1.5 3.7 1.5 8.8 4.7 11.5 6.8 2.5 1.5 2 1.7 1.7 1.5 1.3 1.5.7.8 1 2 .8 2.2.5 2.5zm-319.2-106.7-2.8-3-2.2-2.8-1.8-2.2-1-2.3-2.7-7-2.8-7-1.2-4-1-4.2-1-5.3-1-6-.8-3.7-1.2-4.3-1-2-1-2-1.3-2-1.5-1.7-1.5-1.5-1.7-1.3-1.8-1.2-2-.8-2.2-.7h-2.3l-2.5.2-2.5.8-3.2 1-2.3 1.5-1 .7-.7.8-.8 1-.5 1-.2 1.2-.3 1.3v3.2l.3 4.3 1 4.7.2 3.3v4.5l-.2 11.2v6.8l.5 7 .7 7 .8 3.7.7 3.5 3.3 5.3 3.5 5.7 4.7 7.3 5.3 8 6 8.5 6.5 8.2 3 3.8 3.2 3.7 2.3 2.3 2 2 2.2 1.7 2.3 1.5 2 1.5 2 1 2.2 1 2 .8-1.2 3-.8.7-1.7 2-3 2.5-2 1.3-2.3 1-2.2 1-2.8.7-3 .5h-3l-3.2-.5-3.8-1-3.7-1.7-3.8-2.5-2.7-1.8-2.8-2.5-3-2.7-2.7-3.3-6.8-8-6.7-8.5-6.5-8.7-5.8-8.3-8.7-13-3.3-5.2-1-4-.7-4.3-.8-4.5-.5-4.7-.5-9.5-.2-9.8v-23l-.5-4-.8-8.2-.7-1.8-1-1.5-1-1.2-1-1.3-1.3-1-1.5-1-2.7-1.2-2.8-1-3-.3h-2.7l-2.5.5-3 1.3-2.5 1.2-1 1-.8.8-.5 1-.5 1-.2 1.2-.3 1.3v3.5l.3 4 1 5-5 1-3 1.2-3.3 1-7.5 2-8 1.5-8.2 1.5-13.3 2-5.7.8-1-.3-3.3.3-2.2.2-2.5.5-2.5 1-2.8 1-2.5-5-3.5-12.5-3.7-13-4-13-4.3-12.2-4-11.5-4.2-10.3-3.8-8.5-1.7-3.2-1.8-3-2.5-3.3-3.5-5-4.7-6.2-6-7.3 82-130.7 5.5 12 5.7 11.5 5.8 11 6 10.5 3 4.7 3.2 4.8 3.5 4.7 3.3 4.3 3.7 4.2 3.8 3.8 3.7 3.7 4.3 3.5 8 6.5 7.7 5.5 7.8 5 7.7 4.8 8 4.2 8 4.3 17.8 8.7 6 2.5 5.5 2.3 10 3.7 4.5 2 4.2 2 4.3 2.5 4 2.8 2 1.7 2 1.8 2 2.2 2 2.3 1.7 2.5 2 2.7 3.8 6.3 4 7.7 4 8.8 4 10.5 4.2 12.2 3.3 10 3.2 10.3 2.5 9.2 2.3 7.8 1.7 6.7-.7.3h.7l1 5 .8 4.5.2 4 .3 3.5-.3 3-.5 2.7-.5 2.5-1 2.3-1 2.2-1.2 2-3 4.8-3 5.2-9 15.5-6.3 10.8-4.7 7.7-1 .3-3 .5h-4l-2.5-.5-2.3-.8-2.2-1.2-2.3-2-1-1-1-1.3-.7-1.5-1-1.7-.8-1.8-.5-2-.5-2.2-.5-2.5-.2-2.8-.3-3v-3.2l.3-3.5.2-3.5z" fill="#ffeec8"/><path d="m623.1 486.5 5 3.5 5 3.8 2.5 2.2 2.5 2.3 2.3 2.2 2.2 2.5 2 2.8 1.5 2.5 1.5 2.7 1.3 3 .7 2.8.3 3v3l-.5 3-.8 2-1.2 2-1.8 2-2 1.7-2.2 1.8-2.5 1.7-3 1.5-2.8 1.5-3 1.3-3.2 1-3 .7-3 .8-3 .5-2.5.2-2.5-.2-2.3-.3 2.3-2.5 2.2-3 1.8-3.5 1.5-3.7 1-3.8.2-2v-3.7l-.2-1.8-.5-1.5-.8-1.7-.7-1-1-1-2.5-2.3 3.5-.5 1-.2.7-.5.8-.8.7-1 .8-1.2.5-1.5 1-3.5.5-4 .2-4-.2-4.5z" fill="#ffeec8"/><path d="m568.4 627.8-40.5 122.7-73.3-26 20-58-4-3.7 3-1 4.3-1.5 7.2-3 7-3.3 6.5-3.5 6.5-3.5 6-3.7 5.8-3.5 10-7 8.5-5.8 3.2-2.2 3-1.5 2.3-1 .7-.5h.8l.7.2.3.3.5.5v1l.2 2 .3 1.7 1 1.3 1 1 1.2.7 1.5.3 1.5.2h1.8l3.5-.2 3.5-1 3.2-1z" fill="#7a7878"/><path d="m355.6 337.5v.3h-.7zm-3.7 37.3.2 4.7v25.8l-.2 24.5-2 3-2 2.5-2 2.2-2 1.5-3.3 2.3-1.2.7-2.3 1.5-2.5 1.3-3.5 1.2-2.2.5-2.3.5-2.2.5h-5.3l-2.7-.2-2.8-.5-3-1-2-.8-2.2-1-2-1-2-1.5-2.3-1.5-2.2-1.7-2-2-2.3-2.3-3.2-3.7-3-3.8-6.5-8.2-6-8.5-5.3-8-4.7-7.3-3.5-5.7-3.3-5.3-.7-3.5-.8-3.7-.7-7-.5-7v-6.8l.2-11.2v-4.5l-.2-3.3-1-4.7-.3-4.3v-3.2l.3-1.3.2-1.2.5-1 .8-1 .7-.8 1-.7 2.3-1.5 3.2-1 2.5-.8 2.5-.2h2.3l2.2.7 2 .8 1.8 1.2 1.7 1.3 1.5 1.5 1.5 1.7 1.3 2 1 2 1 2 1.2 4.3.8 3.7 1 6 1 5.3 1 4.2 1.2 4 2.8 7 2.7 7 1 2.3 1.8 2.2 2.2 2.8 2.8 3h.2l-.2 3.5-.3 3.5v3.2l.3 3 .2 2.8.5 2.5.5 2.2.5 2 .8 1.8 1 1.7.7 1.5 1 1.3 1 1 2.3 2 2.2 1.2 2.3.8 2.5.5h4l3-.5 1-.3 4.7-7.7 6.3-10.8 9-15.5 3-5.2zm-89 67.7 2.7 3.3 3 2.7 2.8 2.5 2.7 1.8-1.2 1.7-2.3 2-1.2 1-1.5 1-1.8.8-2 .7-2 .5-2.5.5-2.2-.2-2.8-.3-2.7-.7-3-1.3-3.3-2-3.2-2.2-2.3-1.8-2.2-2-2.3-2.5-2.5-2.5-6.5-7.7-6.5-8.3-6.2-8.5-5.5-7.7-8.8-12.8-3.5-5-1-4-.7-4.7-.5-4.8-.5-5.2-.5-10.8-.3-10.5v-21.5l-.2-3.7-1-5-.3-4v-3.5l.3-1.3.2-1.2.5-1 .5-1 .8-.8 1-1 2.5-1.2 3-1.3 2.5-.5h2.7l3 .3 2.8 1 2.7 1.2 1.5 1 1.3 1 1 1.3 1 1.2 1 1.5.7 1.8.8 8.2.5 4v23l.2 9.8.5 9.5.5 4.7.8 4.5.7 4.3 1 4 3.3 5.2 8.7 13 5.8 8.3 6.5 8.7 6.7 8.5z" fill="#ffeec8"/><path d="m198.6 447.3-5.2-7-5.3-7.5-4.7-7.3-4.3-7-6.2-11.2-2.5-4.3-1.8-6.7-1-6-1-6.8-.7-5.5-.3-4.7-.5-3.8-.5-2.5v-4l.3-1.7.5-1.5.5-1.5.7-1.3 1-1 1-1 1-1 2.8-1.2 2.7-1.3 3-1 2-.5 2-.2h2l1.8.5 1.7.7 1.5 1.3 1.5 1.5 1.5 1.7h.5l.3 10.5.5 10.8.5 5.2.5 4.8.7 4.7 1 4 3.5 5 8.8 12.8 5.5 7.7 6.2 8.5 6.5 8.3 6.5 7.7 2.5 2.5 2.3 2.5 2.2 2 2.3 1.8-.5.5-.8 1-2.2 2.2-1.5 1.3-2 1.2-2.3 1.3-2.5 1-3 .7-3 .3-3.5-.3-1.7-.5-1.8-.5-1.7-.7-2-.8-2-1.2-2-1.3-2-1.7-2.3-1.8-2-2-2.2-2.5z" fill="#ffeec8"/><path d="m146.1 400.8-4.5.5h-4.5l-4.7-.8-2.3-.5-2.2-.5-2.3-1-2-1-2.2-1-1.8-1.5-2-1.5-1.7-1.7-1.8-1.8-1.5-2-1.2-2-1-2.2-.8-2-.7-2.3-.3-2-.5-2.2v-4.3l.5-4.5.8-4 1.5-4 1.5-3.5 1.2-2 1.3-2 1.5-1.5 1.5-1.5 1.5-1.2 1.5-1 3.2-1.8 2.8-1 2.5-1 2.5-.5 2.2-.2 3.3-.3 1 .3 5.7-.8 13.3-2 8.2-1.5 8-1.5 7.5-2 3.3-1 3-1.2 5-1 .2 3.7v21.5h-.5l-1.5-1.7-1.5-1.5-1.5-1.3-1.7-.7-1.8-.5h-2l-2 .2-2 .5-3 1-2.7 1.3-2.8 1.2-1 1-1 1-1 1-.7 1.3-.5 1.5-.5 1.5-.3 1.7v4l.5 2.5.5 3.8.3 4.7.7 5.5 1 6.8-2.2.5-1.5 1.7-1.8 1.8-2 1.5-2.5 1.5-2.5 1.2-2.7 1-3 .8z" fill="#c8c8c8"/><path d="m170.4 403 2.5 4.3 6.2 11.2 4.3 7 4.7 7.3 5.3 7.5 5.2 7-6.7-5-7-5.5-7.3-6-7.2-6.3-6.8-6.2-6.5-6.3-5.7-5.7-5.3-5.5 3.3-.5 3-.8 2.7-1 2.5-1.2 2.5-1.5 2-1.5 1.8-1.8 1.5-1.7 2.2-.5 1 6z" fill="#ffeec8"/><g fill="none" stroke="#231f20" stroke-linecap="round" stroke-miterlimit="10" stroke-width="14"><path d="m621.4 476.3 25.5-74.5 10.5-85.5 4.5-38.5.5-2.5.2-2.8-.2-3.2-.3-3.8-.5-1.7-.5-1.5-.7-1.8-1-1.5-1.3-1.2-1.5-1.3-.5-.2-2-.5h-2l-1.7.2-2 .8-1.8.7-1.5 1.3-1.5 1.2-1.5 1.3-2.5 2.7-1.7 2.8-1.5 2.5-40.5 68.7-22.5 38.5-23.3 71.8m-75.5 218.2-20 58 73.3 26 40.5-122.7.2-.5m41.3-117.5 4 2.7 2.5 2.3 1 1 .7 1 .8 1.7.5 1.5.2 1.8v3.7l-.2 2-1 3.8-1.5 3.7-1.8 3.5-2.2 3-2.3 2.5-1.2 1-1 .8-1.3.5-1 .2m-67.5-63.7 8.3 2.5 8.7 2.7 10.8 3.5 11.7 4.3 11.8 4.5 5.7 2.2 5.3 2.5 4.7 2.3 4.3 2.5"/><path d="m540.4 447.3 7 .5 2.7.5 9.5 2 7.5 1.2 6 1 5.8 1.3 2.7 1 3 1 3.3 1.5 3.7 1.5 8.8 4.7 11.5 6.8 2.5 1.5 2 1.7 1.7 1.5 1.3 1.5.7.8 1 2 .8 2.2.5 2.5.7 2.5.3 4.3.2 4.5-.2 4-.5 4-1 3.5-.5 1.5-.8 1.2-.7 1-.8.8-.7.5-1 .2m-335 50.8 1.7-1.3 5.5-3.2 10.3-6 15.7-8.8 22-11.5 29-14.5 36.8-17.7 21.5-10.3 24-11 26.5-12.7 13.5-6.3 13.2-6 5.3-2 5-1.5 5.2-1.2 5-.8 5-.5 4.5-.2h8.3m-17.8 76.2 9.8 2 10.5 2.5 12.7 3 13.8 3.8 13.7 4 6.5 2 6 2.2 5.3 2.3 4.7 2 3.5 2 2.8 1.7 1 1 .7 1 .5.8.3 1 .2 3.5-.5 3.5-.5 3.5-1.2 3.2-1.3 3.3-1.5 3-2 2.7-2 2.5-2 2.5-2.2 2.3-2.5 1.7-2.3 1.8-2.2 1.2-2.3 1.3-2 .7-1.7.3h-.3m-114.5 70-3 1-7 2-6.5 1.5-6 1.2-5.7.8-5.3.2-4.7.3-4.8-.3-4.2-.2-4.3-.5-3.7-.8-7.5-1.7-7.5-2-7.3-2-6.2-1.5-5.5-1-5-.8-4.8-.5-4.2-.2-4 .2-4 .5-3.8.8-3.7 1-3.8 1.5-3.7 1.5-4 2.2-8.8 5-10 6.5m153.3-16.2-4.3 1.5m97-35-2.2 1-2.8 1-3.2 1-3.5 1-3.5.2h-1.8l-1.5-.2-1.5-.3-1.2-.7-1-1-1-1.3-.3-1.7-.2-2v-1l-.5-.5-.3-.3-.7-.2h-.8l-.7.5-2.3 1-3 1.5-3.2 2.2-8.5 5.8-10 7-5.8 3.5-6 3.7-6.5 3.5-6.5 3.5-7 3.3-7.2 3"/><path d="m511.6 574.5 9.8 1.3 10.5 1.5 12.5 2 13 2.5 6.5 1.5 6 1.5 5.7 1.5 5 1.7 4.3 1.8 3.5 2 1.2 1 1 1 .8 1.2.2 1v4.8l-.5 2.2-.5 2-.7 2.3-1 2-1.3 2-1.5 2-1.5 2-1.5 1.7-3.7 3.5-4.3 3.3-4.5 3m50.3-141.5 2.2 1.2 5 3.5 5 3.8 2.5 2.2 2.5 2.3 2.3 2.2 2.2 2.5 2 2.8 1.5 2.5 1.5 2.7 1.3 3 .7 2.8.3 3v3l-.5 3-.8 2-1.2 2-1.8 2-2 1.7-2.2 1.8-2.5 1.7-3 1.5-2.8 1.5-3 1.3-3.2 1-3 .7-3 .8-3 .5-2.5.2-2.5-.2-2.3-.3-.5-.2m-444.7-153-1.5 1.7-1.8 1.8-2 1.5-2.5 1.5-2.5 1.2-2.7 1-3 .8-3.3.5-4.5.5h-4.5l-4.7-.8-2.3-.5-2.2-.5-2.3-1-2-1-2.2-1-1.8-1.5-2-1.5-1.7-1.7-1.8-1.8-1.5-2-1.2-2-1-2.2-.8-2-.7-2.3-.3-2-.5-2.2v-4.3l.5-4.5.8-4 1.5-4 1.5-3.5 1.2-2 1.3-2 1.5-1.5 1.5-1.5 1.5-1.2 1.5-1 3.2-1.8 2.8-1 2.5-1 2.5-.5 2.2-.2 3.3-.3 1 .3 5.7-.8 13.3-2 8.2-1.5 8-1.5 7.5-2 3.3-1 3-1.2m373.7 15.2-15.5 4-13.5 3.5-10.5 2.8-7.5 1.7-126.5 26.8-.2-2.3-.3-6-.5-4-.7-4.5-1-4.7-1.3-4.8-1.5-4.7-2.2-4.5-1.3-2.3-1.2-1.7-1.5-2-1.5-1.5-1.8-1.5-2-1.3-2-1-2.2-.7-2.5-.5-2.5-.3h-2.8l-2.7.5-.3.3h-.7l.7-.3.8-.2-.5.2m235.2.3-30 8.7m33-9.5-3 .8m-247-34 1.8-.3 309-72.2 7.2-1.5 8.3-1.5 10.5-1.3 6-.7 6.2-.5 6.8-.3h14l7 .5 7.2.8 7 1.2 14 4.8 12.8 4.7 6.5 2.5 6 2.5-.8 1.5-2.7 3.8-1.8 2.5-2.5 3.2-3.2 3.5-3.5 3.8-4.3 4-4.7 4.2-5.5 4.5-6 4.5-7 4.5-7.5 4.5-8.5 4.5-9 4.5-6.5 3.5-9.8 4.3-10.5 4.2-11 4.3-11.7 4m-383.3 136-.5.5-1.2 1.7-2.3 2-1.2 1-1.5 1-1.8.8-2 .7-2 .5-2.5.5-2.2-.2-2.8-.3-2.7-.7-3-1.3-3.3-2-3.2-2.2-2.3-1.8-2.2-2-2.3-2.5-2.5-2.5-6.5-7.7-6.5-8.3-6.2-8.5-5.5-7.7-8.8-12.8-3.5-5-1-4-.7-4.7-.5-4.8-.5-5.2-.5-10.8-.3-10.5v-21.5l-.2-3.7-1-5-.3-4v-3.5l.3-1.3.2-1.2.5-1 .5-1 .8-.8 1-1 2.5-1.2 3-1.3 2.5-.5h2.7l3 .3 2.8 1 2.7 1.2 1.5 1 1.3 1 1 1.3 1 1.2 1 1.5.7 1.8.3 1m83.5 60-2.8-3-2.2-2.8-1.8-2.2-1-2.3-2.7-7-2.8-7-1.2-4-1-4.2-1-5.3-1-6-.8-3.7-1.2-4.3-1-2-1-2-1.3-2-1.5-1.7-1.5-1.5-1.7-1.3-1.8-1.2-2-.8-2.2-.7h-2.3l-2.5.2-2.5.8-3.2 1-2.3 1.5-1 .7-.7.8-.8 1-.5 1-.2 1.2-.3 1.3v3.2l.3 4.3 1 4.7.2 3.3v4.5l-.2 11.2v6.8l.5 7 .7 7 .8 3.7.7 3.5 3.3 5.3 3.5 5.7 4.7 7.3 5.3 8 6 8.5 6.5 8.2 3 3.8 3.2 3.7 2.3 2.3 2 2 2.2 1.7 2.3 1.5 2 1.5 2 1 2.2 1 2 .8 3 1 2.8.5 2.7.2h5.3l2.2-.5 2.3-.5 2.2-.5 3.5-1.2 2.5-1.3 2.3-1.5 1.2-.7 3.3-2.3 2-1.5 2-2.2 2-2.5 2-3 .2-24.5v-25.8l-.2-4.7m-132.8-66.8 1.8-1.5 2.2-2.2 2.8-1.8 1.5-.7 1.2-.8 2.3-.5h4l2 .5 2 1 1.7 1 2 1.3 1.5 1.7 1.8 2 1.5 2 1.5 2.5 1.2 2.5 1.3 3 1 3 .7 3 .8 3.5"/><path d="m309.4 448.8-.8.7-1.7 2-3 2.5-2 1.3-2.3 1-2.2 1-2.8.7-3 .5h-3l-3.2-.5-3.8-1-3.7-1.7-3.8-2.5-2.7-1.8-2.8-2.5-3-2.7-2.7-3.3-6.8-8-6.7-8.5-6.5-8.7-5.8-8.3-8.7-13-3.3-5.2-1-4-.7-4.3-.8-4.5-.5-4.7-.5-9.5-.2-9.8v-23l-.5-4-.8-8.2-.2-1.3m22 137.3-.8 1-2.2 2.2-1.5 1.3-2 1.2-2.3 1.3-2.5 1-3 .7-3 .3-3.5-.3-1.7-.5-1.8-.5-1.7-.7-2-.8-2-1.2-2-1.3-2-1.7-2.3-1.8-2-2-2.2-2.5-2.8-3.2-5.2-7-5.3-7.5-4.7-7.3-4.3-7-6.2-11.2-2.5-4.3-1.8-6.7-1-6-1-6.8-.7-5.5-.3-4.7-.5-3.8-.5-2.5v-4l.3-1.7.5-1.5.5-1.5.7-1.3 1-1 1-1 1-1 2.8-1.2 2.7-1.3 3-1 2-.5 2-.2h2l1.8.5 1.7.7 1.5 1.3 1.5 1.5 1.5 1.7m-70.5-16.5-3.5-12.5-3.7-13-4-13-4.3-12.2-4-11.5-4.2-10.3-3.8-8.5-1.7-3.2-1.8-3-2.5-3.3-3.5-5-4.7-6.2-6-7.3m124.7 217.3-6.7-5-7-5.5-7.3-6-7.2-6.3-6.8-6.2-6.5-6.3-5.7-5.7-5.3-5.5-.7-.8"/><path d="m355.6 365.3-1 2.2-1.2 2-3 4.8-3 5.2-9 15.5-6.3 10.8-4.7 7.7-1 .3-3 .5h-4l-2.5-.5-2.3-.8-2.2-1.2-2.3-2-1-1-1-1.3-.7-1.5-1-1.7-.8-1.8-.5-2-.5-2.2-.5-2.5-.2-2.8-.3-3v-3.2l.3-3.5.2-3.5.8-6 1-5.5 1-4.5 1-4.3 2.2-6.7 2-5.5.8-2.5.5-2.5.2-2.5v-3l-.5-3-1-3.5-1.5-4-2-4.5-2.5-4.8-2.5-4-2.7-3.5-2.8-3.2-3.2-2.5-3.3-2-3.5-1.8-3.5-1.5-4-1-4-1-4.2-.5-4.5-.5-9.5-.7-10.5-.5h-8.5l-10.5-.3-5.8-.5-6-.5-6.2-1-6.5-1.2-6.8-1.8-6.7-2.2-3.5-1.5-3.5-1.5-3.5-1.8-3.5-2-3.5-2-3.3-2.2-3.5-2.5-3.5-2.8-3.5-3-3.2-3.2-3.5-3.5-3.3-3.8"/><path d="m155.9 99.3 5.5 12 5.7 11.5 5.8 11 6 10.5 3 4.7 3.2 4.8 3.5 4.7 3.3 4.3 3.7 4.2 3.8 3.8 3.7 3.7 4.3 3.5 8 6.5 7.7 5.5 7.8 5 7.7 4.8 8 4.2 8 4.3 17.8 8.7 6 2.5 5.5 2.3 10 3.7 4.5 2 4.2 2 4.3 2.5 4 2.8 2 1.7 2 1.8 2 2.2 2 2.3 1.7 2.5 2 2.7 3.8 6.3 4 7.7 4 8.8 4 10.5 4.2 12.2 3.3 10 3.2 10.3 2.5 9.2 2.3 7.8 1.7 6.7v.3l1 5 .8 4.5.2 4 .3 3.5-.3 3-.5 2.7-.5 2.5-1 2.3"/></g></svg>