<svg height="850.394" viewBox="0 0 850.394 850.394" width="850.394" xmlns="http://www.w3.org/2000/svg"><path d="m702.41 501.03v186.51l-.61 1.58c-11.51 10.58-61.35 18.55-121.08 18.55-68.26 0-124.149-9.88-124.149-22.71v-183.93c0-8.561 2.59-16.54 7.06-23.29 4.11 11.41 54.66 20.42 116.39 20.42 56.381 0 103.421-7.51 114.301-17.51l1.91-1.511c.26.42.51.851.75 1.28 3.468 6.151 5.428 13.171 5.428 20.611z" fill="#0b00ea"/><path d="m696.23 479.14-1.91 1.511c-10.88 10-57.92 17.51-114.301 17.51-61.729 0-112.279-9.01-116.39-20.42 8.19-12.351 22.7-20.561 39.24-20.561h153.24c17.161 0 32.131 8.82 40.121 21.96z" fill="#0b00ea"/><path d="m156.65 223.84c-.21-.81-.32-1.63-.32-2.45 0-8.42 11.17-16.12 29.67-22.05l-.46 1.73s17.81 20.93 94.47 20.93h2.32c76.67 0 93.66-20.93 93.66-20.93l-.31-1.15c17.46 5.84 27.94 13.32 27.94 21.47 0 1.74-.48 3.45-1.4 5.12v.01c-9.01 16.29-60.31 28.78-122.24 28.78-65.29 0-118.76-13.87-123.33-31.46z" fill="#c8c8c8"/><path d="m402.22 226.52v490.93c0 39.399-54.74 71.33-122.26 71.33-67.53 0-122.27-31.931-122.27-71.33h-.01l-1.03-493.61c4.57 17.59 58.04 31.46 123.33 31.46 61.93 0 113.23-12.49 122.24-28.78z" fill="#0b00ea"/><path d="m338.34 63.31h56.23v21.12h-56.23zm37.34 136.61.31 1.15s-16.99 20.93-93.66 20.93h-2.32c-76.66 0-94.47-20.93-94.47-20.93l.46-1.73 23.16-86.23h143.21zm-146.67-133.16h101.93v40h-101.93z" fill="#fff"/><g fill="none" stroke="#000"><g stroke-width="20.908"><path d="m402.22 723.57v-497.05m-245.57-2.82v.14l1.03 493.61.01 4.82m244.53-4.82c0 39.399-54.74 71.33-122.26 71.33-67.53 0-122.27-31.931-122.27-71.33m536.63-236.8c-10.88 10-57.92 17.51-114.301 17.51-61.729 0-112.279-9.01-116.39-20.42-.189-.5-.28-1-.28-1.51"/><path d="m696.98 480.42c3.47 6.15 5.43 13.17 5.43 20.61v186.51l-.61 1.58c-11.51 10.58-61.35 18.55-121.08 18.55-68.26 0-124.149-9.88-124.149-22.71v-183.93c0-8.561 2.59-16.54 7.06-23.29 8.19-12.351 22.7-20.561 39.24-20.561h153.24c17.159 0 32.13 8.82 40.12 21.96.259.421.509.851.749 1.281m-323.69-281.28c.81.26 1.61.52 2.39.78 17.46 5.84 27.94 13.32 27.94 21.47 0 1.74-.48 3.45-1.4 5.12v.01c-9.01 16.29-60.31 28.78-122.24 28.78-65.29 0-118.76-13.87-123.33-31.46-.21-.81-.32-1.63-.32-2.45 0-8.42 11.17-16.12 29.67-22.05 1.24-.39 2.5-.78 3.8-1.16"/><path d="m186 199.34-.46 1.73s17.81 20.93 94.47 20.93h2.32c76.67 0 93.66-20.93 93.66-20.93l-.31-1.15-23.31-86.81h-143.21zm43.01-132.58h101.93v40h-101.93z"/></g><path d="m338.34 63.31h56.23v21.12h-56.23z" stroke-width="13.938"/></g><path d="m350.237 361.958v6.37c0 2.003-2.032 3.628-4.53 3.628h-69.364v-9.998z" fill="#fff"/><path d="m276.343 351.832h73.894v10.127h-73.894z" fill="#c8c8c8"/><path d="m350.237 343.598v8.234h-73.894v-11.862h69.363c2.499-.001 4.531 1.625 4.531 3.628z" fill="#fff"/><path d="m295.532 376.487v66.498a4.529 4.529 0 0 1 -4.531 4.531h-29.315a4.529 4.529 0 0 1 -4.53-4.531v-66.498a4.53 4.53 0 0 1 4.53-4.531h29.316a4.53 4.53 0 0 1 4.53 4.531z" fill="#ffa500"/><path d="m285.871 452.161v222.594c0 2.563-2.033 4.645-4.536 4.645h-10.92c-2.503 0-4.536-2.082-4.536-4.645v-222.594c0-2.563 2.032-4.645 4.536-4.645h10.92c2.503.001 4.536 2.083 4.536 4.645zm-9.528-90.203v9.998h-70.295c-2.508 0-4.536-1.625-4.536-3.628v-6.37z" fill="#fff"/><path d="m201.512 351.832h74.831v10.127h-74.831z" fill="#c8c8c8"/><path d="m276.343 339.969v11.862h-74.831v-8.234c0-2.002 2.027-3.628 4.536-3.628z" fill="#fff"/><g fill="none"><g stroke="#000"><g stroke-width="9.595"><path d="m261.685 371.957h-55.637c-2.508 0-4.536-1.625-4.536-3.628v-24.731c0-2.002 2.027-3.628 4.536-3.628h139.658c2.498 0 4.53 1.626 4.53 3.628v24.731c0 2.003-2.032 3.628-4.53 3.628h-54.706"/><path d="m270.415 447.517h-8.729a4.529 4.529 0 0 1 -4.53-4.531v-66.498a4.53 4.53 0 0 1 4.53-4.531h29.316a4.53 4.53 0 0 1 4.531 4.531v66.498a4.529 4.529 0 0 1 -4.531 4.531h-9.666"/><path d="m281.335 447.517c2.503 0 4.536 2.082 4.536 4.645v222.594c0 2.563-2.033 4.645-4.536 4.645h-10.92c-2.503 0-4.536-2.082-4.536-4.645v-222.595c0-2.563 2.032-4.645 4.536-4.645h10.92zm-4.992-75.56v-31.988"/></g><path d="m201.512 351.832h148.725m-148.725 10.126h148.725" stroke-width="6.397"/></g><path d="m0 0h850.394v850.394h-850.394z"/></g></svg>