<svg height="850.394" viewBox="0 0 850.394 850.394" width="850.394" xmlns="http://www.w3.org/2000/svg"><g fill="#a3d9ff"><path d="m657.4 640.67 12.85 61.67v77.08h-262.45v-.33h48.04v-584.32c14.16-6.4 26.82-9.34 46.16 2.15 20.79 12.34 77.83 55.59 77.83 55.59s-6.45-76.54-20.34-106.43c26.38 11.02 80.71 35.76 95.83 44.34 24.04 13.64 41.569 90.31 41.569 90.31s30.33 171.85 48.4 261.48c5.49 27.23 11.4 53.88 16.61 76.48h-.011z"/><path d="m670.25 702.34-12.85-61.67 104.49-21.98h.011c8.54 37.04 15.229 63.189 15.229 63.189zm76.31-47.09c0-4.5-3.64-8.13-8.119-8.13-4.49 0-8.12 3.63-8.12 8.13a8.12 8.12 0 1 0 16.239 0zm-187.07-509.17c13.89 29.89 20.34 106.43 20.34 106.43s-57.04-43.25-77.83-55.59c-19.34-11.49-32-8.55-46.16-2.15v-7.28l-1.37-.48c21.431-19.27 47.38-43.93 41.03-86.24-.65-4.34-2.77-7.95-5.87-10.94 3.08 1.9 39.33 24.48 63.69 46.86 2.2 2.02 4.26 5.26 6.17 9.39zm-150.43 38.75v9.31c-13.88-6.19-26.45-8.84-45.47 2.45-20.79 12.34-77.83 55.59-77.83 55.59s6.45-76.57 20.34-106.44c1.91-4.13 3.97-7.36 6.17-9.38 25.01-22.97 62.55-46.16 63.86-46.96-3.2 3-5.39 6.64-6.05 11.04-6.14 40.97 17.99 65.39 38.98 84.39z"/><path d="m455.84 194.77v584.32h-46.78v-594.26c-20.99-19-45.12-43.42-38.98-84.39.66-4.4 2.85-8.04 6.05-11.04 0 0 0-.01.01-.01 15.97-15.03 56.96-14.29 56.96-14.29s40.811-.52 56.53 14.73c3.101 2.99 5.22 6.6 5.87 10.94 6.35 42.31-19.6 66.97-41.03 86.24l1.37.48zm-14.94 63.48a8.12 8.12 0 0 0 -8.12-8.12c-4.49 0-8.13 3.63-8.13 8.12s3.64 8.12 8.13 8.12a8.12 8.12 0 0 0 8.12-8.12zm-.33 88.64c0-4.49-3.641-8.13-8.12-8.13-4.48 0-8.12 3.64-8.12 8.13 0 4.48 3.64 8.12 8.12 8.12s8.12-3.64 8.12-8.12zm0 86.83a8.12 8.12 0 0 0 -16.24 0c0 4.48 3.64 8.12 8.12 8.12s8.12-3.64 8.12-8.12zm0 87.05c0-4.489-3.641-8.13-8.12-8.13-4.48 0-8.12 3.641-8.12 8.13 0 4.48 3.64 8.12 8.12 8.12s8.12-3.64 8.12-8.12zm0 89a8.12 8.12 0 0 0 -8.12-8.119 8.12 8.12 0 0 0 -8.12 8.119c0 4.49 3.64 8.131 8.12 8.131 4.48-.001 8.12-3.641 8.12-8.131zm0 90.44a8.12 8.12 0 0 0 -16.24 0c0 4.48 3.64 8.12 8.12 8.12s8.12-3.64 8.12-8.12z"/></g><path d="m432.45 692.09a8.12 8.12 0 0 1 8.12 8.12c0 4.48-3.641 8.12-8.12 8.12a8.12 8.12 0 1 1 0-16.24zm0-90.44a8.12 8.12 0 0 1 8.12 8.119c0 4.49-3.641 8.131-8.12 8.131-4.48 0-8.12-3.641-8.12-8.131a8.12 8.12 0 0 1 8.12-8.119zm0-89.01c4.479 0 8.12 3.641 8.12 8.13 0 4.48-3.641 8.12-8.12 8.12-4.48 0-8.12-3.64-8.12-8.12 0-4.49 3.64-8.13 8.12-8.13zm0-87.04a8.12 8.12 0 0 1 8.12 8.12c0 4.48-3.641 8.12-8.12 8.12a8.12 8.12 0 1 1 0-16.24zm0-86.84c4.479 0 8.12 3.64 8.12 8.13 0 4.48-3.641 8.12-8.12 8.12-4.48 0-8.12-3.64-8.12-8.12 0-4.49 3.64-8.13 8.12-8.13zm.33-88.63a8.12 8.12 0 0 1 0 16.24c-4.49 0-8.13-3.63-8.13-8.12s3.64-8.12 8.13-8.12zm305.66 396.99a8.121 8.121 0 0 1 8.119 8.13 8.12 8.12 0 1 1 -16.239 0c0-4.5 3.63-8.13 8.12-8.13zm-610.03 0c4.49 0 8.12 3.63 8.12 8.13a8.12 8.12 0 1 1 -16.24 0c0-4.5 3.64-8.13 8.12-8.13z" fill="#fff"/><path d="m195.33 702.02-106.87-20.46s6.69-26.159 15.23-63.199l104.49 21.989zm-58.8-46.77c0-4.5-3.63-8.13-8.12-8.13-4.48 0-8.12 3.63-8.12 8.13a8.12 8.12 0 1 0 16.24 0z" fill="#a3d9ff"/><path d="m208.18 640.35-104.49-21.99c5.21-22.591 11.12-49.24 16.61-76.471 18.07-89.63 48.39-261.49 48.39-261.49s17.54-76.66 41.58-90.31c15.12-8.58 69.46-33.33 95.83-44.35-13.89 29.87-20.34 106.44-20.34 106.44s57.04-43.25 77.83-55.59c19.02-11.29 31.59-8.64 45.47-2.45v584.95h-213.73v-77.07z" fill="#a3d9ff"/><g fill="none" stroke="#000"><path d="m306.1 145.74c-26.37 11.02-80.71 35.77-95.83 44.35-24.04 13.65-41.58 90.31-41.58 90.31s-30.32 171.86-48.39 261.49c-5.49 27.23-11.4 53.88-16.61 76.471-8.54 37.04-15.23 63.199-15.23 63.199l106.87 20.46 12.85-61.67 48.86-234.57m198.8-218.29v591.6m-79.7-689.7c.02-.01.03-.02.03-.02" stroke-width="23.388"/><path d="m412.96 195.94c-1.32-.63-2.61-1.23-3.9-1.8-13.88-6.19-26.45-8.84-45.47 2.45-20.79 12.34-77.83 55.59-77.83 55.59s6.45-76.57 20.34-106.44c1.91-4.13 3.97-7.36 6.17-9.38 25.01-22.97 62.55-46.16 63.86-46.96m81.66 689.69h-262.46v-84.86m-91.64-75.87 104.49 21.99m200.88-455.52v594.26" stroke-width="23.388"/><path d="m440.9 258.25a8.12 8.12 0 0 1 -8.12 8.12c-4.49 0-8.13-3.63-8.13-8.12s3.64-8.12 8.13-8.12a8.12 8.12 0 0 1 8.12 8.12zm-.33 88.64c0 4.48-3.641 8.12-8.12 8.12-4.48 0-8.12-3.64-8.12-8.12 0-4.49 3.64-8.13 8.12-8.13s8.12 3.64 8.12 8.13zm0 86.83c0 4.48-3.641 8.12-8.12 8.12a8.12 8.12 0 1 1 8.12-8.12zm0 87.05c0 4.48-3.641 8.12-8.12 8.12-4.48 0-8.12-3.64-8.12-8.12 0-4.489 3.64-8.13 8.12-8.13s8.12 3.64 8.12 8.13zm0 89c0 4.49-3.641 8.131-8.12 8.131-4.48 0-8.12-3.641-8.12-8.131a8.12 8.12 0 0 1 8.12-8.119 8.118 8.118 0 0 1 8.12 8.119zm-304.04 45.48a8.12 8.12 0 1 1 -16.24 0c0-4.5 3.64-8.13 8.12-8.13 4.49 0 8.12 3.63 8.12 8.13zm610.03 0a8.12 8.12 0 1 1 -16.239 0c0-4.5 3.63-8.13 8.12-8.13a8.121 8.121 0 0 1 8.119 8.13zm-305.99 44.96c0 4.48-3.641 8.12-8.12 8.12a8.12 8.12 0 1 1 0-16.24 8.12 8.12 0 0 1 8.12 8.12z" stroke-width="7.796"/><g stroke-width="23.388"><path d="m559.48 146.07.01.01c26.38 11.02 80.71 35.76 95.83 44.34 24.04 13.64 41.569 90.31 41.569 90.31s30.33 171.85 48.4 261.48c5.49 27.23 11.4 53.88 16.61 76.48 8.54 37.04 15.229 63.189 15.229 63.189l-106.88 20.46-12.85-61.67-48.86-234.56m-167.608-206.589c3.99-3.99 8.641-8.11 13.54-12.51 21.431-19.27 47.38-43.93 41.03-86.24-.65-4.34-2.77-7.95-5.87-10.94-15.72-15.25-56.53-14.73-56.53-14.73s-40.99-.74-56.959 14.29c-.01 0-.01.01-.01.01-3.2 3-5.39 6.64-6.05 11.04-6.14 40.97 17.99 65.39 38.98 84.39 5.64 5.11 11.05 9.82 15.59 14.36"/><path d="m452.62 196.27c1.08-.52 2.16-1.02 3.22-1.5 14.16-6.4 26.82-9.34 46.16 2.15 20.79 12.34 77.83 55.59 77.83 55.59s-6.45-76.54-20.34-106.43c-1.91-4.13-3.971-7.37-6.17-9.39-24.36-22.38-60.61-44.96-63.69-46.86-.14-.09-.21-.13-.21-.13m-81.62 689.72h262.45v-84.87m91.64-75.86-104.49 21.98"/></g></g><path d="m0 0h850.394v850.394h-850.394z" fill="none"/></svg>