<svg height="850.394" viewBox="0 0 850.394 850.394" width="850.394" xmlns="http://www.w3.org/2000/svg"><path d="m540.31 397.7-.43 189.06h-380.48v-189.06z" fill="#fff5b4"/><path d="m157.35 103.62h534.81v98.88h-534.81z" fill="#fff"/><path d="m691.84 397.7v350.2h-131.34l.81-350.17-12.6-.03zm-25.55 152.5v-111.39h-90.96v111.39zm-75.62 83.8v-57.23h-14.31v57.23z" fill="#34a047"/><path d="m575.33 438.81h90.96v111.391h-90.96z" fill="#fff"/><path d="m539.88 586.76.43-189.06h8.4l12.6.03-.81 350.17h-21zm20.62 161.14v2.12l-21-.04v-2.08zm-11.79-350.2h-8.4v-.02z" fill="#231f20"/><path d="m539.88 586.76-.38 161.14h-380.1v-161.14z" fill="#9c5c25"/><path d="m425.23 265.86h265.9l69.5 126.72h-670.73l69.5-126.72z" fill="#bd2025"/><g fill="none" stroke="#231f20"><path d="m548.71 397.7h143.13v350.2h-532.44v-350.2h380.91z" stroke-width="21"/><path d="m575.33 438.81h90.96v111.391h-90.96z" stroke-width="14"/><path d="m576.36 576.77h14.31v57.23h-14.31z" stroke-width="18.738"/><path d="m159.4 586.76h392.43m139.3-320.9h-531.73l-69.5 126.72h670.73zm-533.78-162.24h534.81v98.88h-534.81z" stroke-width="21"/></g><path d="m77.409 403.319h694.347" fill="none"/><g fill="#444041"><circle cx="96.059" cy="403.319" r="17.854"/><circle cx="132.561" cy="403.319" r="17.854"/><circle cx="169.064" cy="403.319" r="17.854"/><circle cx="205.567" cy="403.319" r="17.854"/><circle cx="242.069" cy="403.319" r="17.854"/><circle cx="278.572" cy="403.319" r="17.854"/><circle cx="315.075" cy="403.319" r="17.854"/><circle cx="351.578" cy="403.319" r="17.854"/><circle cx="388.081" cy="403.319" r="17.854"/><circle cx="424.583" cy="403.319" r="17.854"/><circle cx="461.086" cy="403.319" r="17.854"/><circle cx="497.589" cy="403.319" r="17.854"/><circle cx="534.092" cy="403.319" r="17.854"/><circle cx="570.594" cy="403.319" r="17.854"/><circle cx="607.097" cy="403.319" r="17.854"/><circle cx="643.6" cy="403.319" r="17.854"/><circle cx="680.103" cy="403.319" r="17.854"/><circle cx="716.605" cy="403.319" r="17.854"/><circle cx="753.107" cy="403.319" r="17.854"/></g><path d="m0 0h850.394v850.394h-850.394z" fill="none"/></svg>