<svg height="850.394" viewBox="0 0 850.394 850.394" width="850.394" xmlns="http://www.w3.org/2000/svg"><g fill="#ffeec8"><path d="m415.49 61.64c63.62 0 115.189 67.31 115.189 150.34 0 50.6-19.149 95.36-48.51 122.61-18.81 17.46-41.83 27.73-66.68 27.73-21.87 0-42.31-7.95-59.72-21.76-33.25-26.37-55.46-74.08-55.46-128.58.001-83.03 51.571-150.34 115.181-150.34z"/><path d="m314.75 407.96c40.25-2.79 39.61-66.21 39.61-66.21l1.41-1.19c17.41 13.81 37.85 21.76 59.72 21.76 24.85 0 47.87-10.27 66.68-27.73l1.17.58s2.59 72.59 41.54 76.69c21.3 2.23 97.39 12.21 112.22 23.45 22.54 17.101 45.771 48.641 74 156.511 10.83 41.46 23.761 119.79 34.99 191.55l-4.09.629-104.34 5.41c-14.23-67.78-29.12-138.55-39.61-174.15-15.899 15.44-17.5 57.04-18.64 69.21-1.16 12.46-1.17 55.12-.811 101.82l-317.609 2.6c.41-49.189.46-95.29-.76-108.319-1.15-12.181-2.74-53.771-18.63-69.21-10.6 35.949-25.68 107.759-40.03 176.149l-108.75-3.36c11.4-73 24.65-153.87 35.73-196.221 28.22-107.88 51.45-139.42 74-156.51 14.82-11.249 90.85-21.979 112.2-23.459z"/></g><g fill="none"><g stroke="#231f20"><g stroke-width="14"><path d="m483.34 335.17s2.59 72.59 41.54 76.69c21.3 2.23 97.39 12.21 112.22 23.45 22.54 17.101 45.771 48.641 74 156.511 10.83 41.46 23.761 119.79 34.99 191.55.25 1.63.51 3.26.76 4.89m-155.25-191.451c1.881 4.011 4.04 10.311 6.45 18.45 10.49 35.601 25.38 106.37 39.61 174.15"/><path d="m598.24 615.07c-.061.06-.13.12-.19.189-15.899 15.44-17.5 57.04-18.64 69.21-1.16 12.46-1.17 55.12-.811 101.82m-224.239-444.539s.64 63.42-39.61 66.21c-21.35 1.48-97.38 12.21-112.2 23.46-22.55 17.09-45.78 48.63-74 156.51-11.08 42.35-24.33 123.22-35.73 196.22-.24 1.529-.47 3.06-.71 4.58m155.94-195.82c-1.88 4.01-4.05 10.31-6.45 18.45-10.6 35.95-25.68 107.76-40.03 176.15"/><path d="m241.41 611.17c.06.061.13.12.19.19 15.89 15.439 17.48 57.029 18.63 69.21 1.22 13.029 1.17 59.13.76 108.319m94.78-448.329c-33.25-26.37-55.46-74.08-55.46-128.58 0-83.03 51.57-150.34 115.18-150.34 63.62 0 115.189 67.31 115.189 150.34 0 50.6-19.149 95.36-48.51 122.61-18.81 17.46-41.83 27.73-66.68 27.73-21.869 0-42.309-7.95-59.719-21.76z"/></g><path d="m603.6 202.33v185.51m-50.68-54.96 50.87 56.03 50.85-56.11" stroke-width="21"/></g><path d="m0 0h850.394v850.394h-850.394z"/></g></svg>