<svg height="850" viewBox="0 0 850 850" width="850" xmlns="http://www.w3.org/2000/svg"><path d="m466.1 366.3 1.3-.3 1-.5 1-.8 1-.8.5-1.3.5-1.3.3-1.3.3-1.5-.3-1.3-.5-1.3-.5-1.3-.8-1-1-.8-1-.8-1-.3-1.3-.3-1.3.3-1 .5-1 .8-.8.8-.8 1.3-.5 1-.3 1.5v2.8l.5 1.3.5 1.3.8 1 1 .8 1 .8 1.3.3zm-.3-22.8 1.5 2 1.3 2.3 1.5 2.8 1.3 3.5.5 1.8.5 2v4l-.5 2.3-.8 2.3-1.5 3.5-1 2-.5.8h-.3l-1.3.8-.5-.8-2-.3-2-.8-1.8-.8-1.5-1-1.3-1-1.3-1.3-2-2.3-.3-.8-.3-.8-.3-1.8v-2l.3-2 1-3.8.8-2.3 4.3-3.3 3.3-2.8z" fill="#9e5c26"/><path d="m454.3 365.3 2 2.2 1.3 1.3 1.2 1 1.5 1 1.8.7 2 .8 2 .2.5.8-1.8.7-2.2.8-3.5.5-4.3.5-9.7.2-12-.2-14.8-.3h-.2l-.3-.7-.2-.8v-.7l.2-.5.5-.8.8-1 1.2-1 1.5-1 1.8-1 2.5-1 6.2-2.5 3.5-1.5 3.3-1.2 6.2-3.3 5.5-3.2 4.8-3.3-.8 2.3-1 3.7-.2 2v2l.2 1.8.3.7z" fill="#fff"/><path d="m467.1 626 80.7 100.8-466 11.7 1.3-4.7 1.7-4.8 2-4.2 2-4.3 2.5-4.2 2.5-4 2.8-3.8 3-3.7 3-3.8 3.5-3.5 3.5-3.5 3.5-3.2 4-3.3 3.7-3 8.5-6 8.8-5.7 9.2-5.5 9.5-5 10-5.3 10-4.7 10.3-5 20.7-9.5 11.3-5 5.5-2.8 2.7-1.5 2.5-1.7 5 5.2 6 5.8 3.8 3.2 4.5 3.8 4.7 3.7 5.5 4 5.8 4 6.2 4 6.8 3.8 7.2 3.7 7.5 3.5 8 3 8.3 3 8.7 2.3 4.3 1 4.7.7 4.5.8 4.8.5 4.7.5 5 .2h4.8l5-.2 5.2-.3 5-.7 5.3-.8 5.2-1 5.3-1.2 5.5-1.5 5.2-1.8 5.5-2 5.5-2.2 5.8-2.8 5.5-2.7 5.7-3.3 5.8-3.5 5.7-3.7 5.8-4 5.7-4.5 6-4.8 5.8-5 6-5.5z" fill="#a9d7f3"/><path d="m455.6 352-4.8 3.3-5.5 3.3-6.3 3.3-3.3 1.3-3.5 1.5-6.3 2.5-2.5 1-1.8 1-1.5 1-1.3 1-.8 1-.5.8-.3.5v.8l.3.8.3.8h.3l14.8.3 12 .3 9.8-.3 4.3-.5 3.5-.5 2.3-.8 1.8-.8 1.3-.8h.3l.5-.8 1-2 1.5-3.5.8-2.3.5-2.3v-4l-.5-2-.5-1.8-1.3-3.5-1.5-2.8-1.3-2.3-1.5-2-2.8 2.5-3.3 2.8zm30.2 222.8-4.5 1-3.8 1.3-3.5 1.8-1.5.8-1.5 1-2.8 2.5-2.3 2.8-1.8 2.5-1.5 2.8-1 3-.8 2.8-.5 3-.3 3 .3 3 .3 3 .8 3 .8 3 1 2.8 1 3 2.8 5.5-6 6-6 5.5-5.8 5-6 4.8-5.8 4.5-5.8 4-5.8 3.8-5.8 3.5-5.8 3.3-5.5 2.8-5.8 2.8-5.5 2.3-5.5 2-5.3 1.8-5.5 1.5-5.3 1.3-5.3 1-5.3.8-5 .8-5.3.3-5 .3h-4.8l-5-.3-4.8-.5-4.8-.5-4.5-.8-4.8-.8-4.3-1-8.8-2.3-8.3-3-8-3-7.5-3.5-7.3-3.8-6.8-3.8-6.3-4-5.8-4-5.5-4-4.8-3.8-4.5-3.8-3.8-3.3-6-5.8-5-5.3 2.5-2 2.5-2 2.3-2.3 2-2.5 1.8-2.8 1.5-3.3 1.3-3.3 1-4 1-4.5.3-5v-4.8l-.3-4.8-.5-5-.8-4.8-2-10-2.3-9.5-2.5-9.8-2.3-9.3-.8-4.5-.5-4.5 1.8-.5 1.8-1 1.3-1 1.3-1 1-1.3.8-1.5.8-1.5.5-1.8 1-4 1-4.3 1.3-5.3 1.8-5.5 10.8-35.8-1.3-4-1.8-3.8-2-3.5-2.3-3.3-2.5-3.5-2.5-3-5.5-6.5-5.5-6.5-2.5-3.5-2.5-3.5-2.3-3.8-2-4-1.8-4-1.3-4.5-1-5.3-.8-5v-5l.3-4.5.8-4.5 1.3-4 1.5-4 1.8-3.8 2.3-3.5 2.5-3.3 2.8-3 3-2.8 3.3-2.8 3.5-2.3 3.5-2 4-2 3.8-1.3 3.5-.8 3.3-.3 3 .3 2.8.8 2.8 1.3 2.5 1.8 2.3 2 2.3 2.5 2 2.8 2.3 3.3 2 3.3 3.8 7.5 4 8.3.3 2 .8 1.8.3.8.8.5.5.5h1l1-.3 1-1 1.5-1.3 1.5-1.8 1.8-2.8 2-3.3 2-4 1.8-4 1.5-4.3 1.3-4.5.8-4.8 1-4.8 1-10 1-10.3.8-10.5 1-10 .8-5 .8-4.8.5-2.3.8-2.3.5-1.8 1-1.8 1-1.5 1-1.5 1.3-1 1.3-1.3 1.3-1 1.5-.8 3.5-1.3 3.8-1.3 4.5-.5 4.8-.8 5.3-.3 12.3-1 6.8-.5 7.3-1 7.8-1 8.3-1.5 15.8-3 13.3-2 11.3-1.5 9.8-1.8 4.5-.8 4.3-1 4-1.3 4-1.5 4-1.5 3.8-2.3 4-2.3 4.3-3 4.8-3.8 4.3-4 3.8-4.3 3-4.5 1.5.5 3 2.5 3 2.5 2.5 3.3 2.3 3.5 2.3 4.5 2.3 5.5 2 6.8 2 8.3 1.3 6.5.8 5.5.5 5.3v4.8l-.3 4.8-.5 5-1 11.5-.3 5.8v8.3l.3 2.5.5 2.5.8 2.5.8 2.5 1 2.5 1.5 2.5 1.5 2.5 1.8 2.5 2.3 2.8 2.5 2.8 2.8 2.8 12 11 8.3 7.5 6.8 5.8 7.3 6 1.8 1.8 1.5 2 1.3 2 .5 2 .5 2 .3 2-.3 2.3-.3 2-.8 2-.8 1.8-1 1.8-1 1.5-1.3 1.3-1.3 1.3-1.3 1-1.5.5-5.8 2-3 1-4 .5-8.8 1.5-1 .5-1.3.8-.8 1-.8 1.5-.8 1.5-.5 1.8-.3 1.8-.3 2v4l.3 2 .5 1.8.5 1.8.5 1.8 1 1.3 1 1 4 3.8 1.8 1.8.8 1 .5.8.3 1v1l-.3.8-.5 1-.8.8-1.3 1-1.8 1-2 1-6.3 2.5-5.8 2.8-5.5 3-5.3 3-5.8 3.5-6 3.8-14 9.3 6 2.3 14.3 4.8 8.8 2.8 8.5 2.5 7.8 2 3.5.8 3 .3-1.3 5.8-1.8 8-.8 4.3-.3 4v3.5l.3 1.3.3 1.3 1 3 .5 3.5.3 4v2.3l-.3 2-.5 2.3-.8 2.3-.8 2.3-1 2.3-1.3 2-1.5 2-1.5 1.8-2 1.8-4.5 2-5 2-6.8 2.5-3.5 1-3.5 1-7.5 1.5-6.3 1-5-.2z" fill="#ffeec8"/><path d="m234.1 528.5-2 .5-2.3.5-5 .5h-4l-3.5-.2-3.5-.5-3.2-1-3.3-1.3-3.2-1.5-3.3-2.2-3.2-2.3-3.5-3-3.8-3.2-8.7-8-23-22.5-3.8-3.8-3.7-4-3.5-4-3.3-4.2-3-4.3-3-4.5-2.7-4.2-2.8-4.5-4.7-9-4.3-9.3-3.7-9.2-3.3-9-2.7-9-2.5-9-2-8.5-1.8-8-2.7-14.8-2-12.5-.8-5.7-.7-6.8-.5-7.5-.3-8.2-.2-8.5v-9l.5-9.3.5-9.5.7-9.5 1.3-9.2 1.5-9 1.7-8.8 2.3-8.2 1.2-3.8 1.3-3.7 1.5-3.8 1.5-3.2 1.7-3.3 1.8-3 7.5-10.7 7-9.8 6.5-8.7 6-7.3 8.7-10.5 3.3-3.7 3-2.5 8-6.8 5.7-4.5 6.8-5.2 7.5-5.3 8-5.7 8.7-5.5 9-5.5 9.5-5.3 9.5-4.7 4.8-2 4.7-1.8 4.8-1.7 4.7-1.5 4.8-1.3 4.5-.7 4.7-.8 4.3-.2 17.5-.5 17-.8 16.2-.7 8-.3h7.5l7.8.3 7.2.2 7 .8 7 .7 6.5 1.3 6.5 1.5 6 2 5.8 2.2 6 3 6.2 3.5 6.5 3.8 6.5 4.2 7 4.8 7 4.7 6.8 5 7 5.3 13.2 10.7 12 10.5 5.5 5 5 4.5 4.5 4.5 3.8 4 2.2 2.8 2 3 1.5 2.7 1.5 2.8 1 3 .8 3 .5 3 .5 2.7-.3 3-.2 3-.5 3-.8 2.8-.7 3-1.3 2.7-1.5 2.8-1.7 2.7-3 4.5-3.8 4.3-4.2 4-4.8 3.7-4.2 3-4 2.3-3.8 2.2-4 1.5-4 1.5-4 1.3-4.2 1-4.5.7-9.8 1.8-11.2 1.5-13.3 2-15.7 3-8.3 1.5-7.7 1-7.3 1-6.7.5-12.3 1-5.2.2-4.8.8-4.5.5-3.7 1.2-3.5 1.3-1.5.7-1.3 1-1.2 1.3-1.3 1-1 1.5-1 1.5-1 1.7-.5 1.8-.7 2.2-.5 2.3-.8 4.7-.7 5-1 10-.8 10.5-1 10.3-1 10-1 4.7-.7 4.8-1.3 4.5-1.5 4.2-1.7 4-2 4-2 3.3-1.8 2.7-1.5 1.8-1.5 1.2-1 1-1 .3h-1l-.5-.5-.7-.5-.3-.8-.7-1.7-.3-2-4-8.3-3.7-7.5-2-3.2-2.3-3.3-2-2.7-2.2-2.5-2.3-2-2.5-1.8-2.7-1.2-2.8-.8-3-.2-3.2.2-3.5.8-3.8 1.2-4 2-3.5 2-3.5 2.3-3.2 2.7-3 2.8-2.8 3-2.5 3.2-2.2 3.5-1.8 3.8-1.5 4-1.2 4-.8 4.5-.2 4.5v5l.7 5 1 5.2 1.3 4.5 1.7 4 2 4 2.3 3.8 2.5 3.5 2.5 3.5 5.5 6.5 5.5 6.5 2.5 3 2.5 3.5 2.2 3.2 2 3.5 1.8 3.8 1.2 4-10.7 35.7-1.8 5.5-1.2 5.3-1 4.2-1 4-.5 1.8-.8 1.5-.7 1.5-1 1.2-1.3 1-1.2 1-1.8 1z" fill="#9e5c26"/><path d="m471.8 358.8-.2 1.5-.3 1.2-.5 1.3-.5 1.2-1 .8-1 .7-1 .5-1.2.3-1-.3-1.3-.2-1-.8-1-.7-.7-1-.5-1.3-.5-1.2v-2.8l.2-1.5.5-1 .8-1.2.7-.8 1-.7 1-.5 1.3-.3 1.2.3 1 .2 1 .8 1 .7.8 1 .5 1.3.5 1.2z" fill="#231f20"/><g fill="none" stroke="#231f20" stroke-linecap="round" stroke-miterlimit="10"><path d="m466.6 373.3 1.2-.8h.3l.5-.7 1-2 1.5-3.5.7-2.3.5-2.2v-4l-.5-2-.5-1.8-1.2-3.5-1.5-2.7-1.3-2.3-1.5-2-2.7 2.5-3.3 2.8-4.2 3.2-4.8 3.3-5.5 3.2-6.2 3.3-3.3 1.2-3.5 1.5-6.2 2.5-2.5 1-1.8 1-1.5 1-1.2 1-.8 1-.5.8-.2.5v.7l.2.8.3.7h.2l14.8.3 12 .2 9.7-.2 4.3-.5 3.5-.5 2.2-.8z" stroke-width="7"/><path d="m478.6 319.3-.8-.3-2.2-.5-3.5-.7-5.3-.5h-3.2l-3.5.2-4 .3-4.3.7-5 .8-5 1.2-5.7 1.8-6 2-6.8 2.7-6.2 2.8-5.5 3-4.8 3-4.2 3-3.8 3-3 2.7-3 2.8" stroke-width="14"/><path d="m455.6 352-.8 2.3-1 3.7-.2 2v2l.2 1.8.3.7.2.8 2 2.2 1.3 1.3 1.2 1 1.5 1 1.8.7 2 .8 2 .2" stroke-width="6.75"/><path d="m490.1 237-3 4.5-3.8 4.3-4.2 4-4.8 3.7-4.2 3-4 2.3-3.8 2.2-4 1.5-4 1.5-4 1.3-4.2 1-4.5.7-9.8 1.8-11.2 1.5-13.3 2-15.7 3-8.3 1.5-7.7 1-7.3 1-6.7.5-12.3 1-5.2.2-4.8.8-4.5.5-3.7 1.2-3.5 1.3-1.5.7-1.3 1-1.2 1.3-1.3 1-1 1.5-1 1.5-1 1.7-.5 1.8-.7 2.2-.5 2.3-.8 4.7-.7 5-1 10-.8 10.5-1 10.3-1 10-1 4.7-.7 4.8-1.3 4.5-1.5 4.2-1.7 4-2 4-2 3.3-1.8 2.7-1.5 1.8-1.5 1.2-1 1-1 .3h-1l-.5-.5-.7-.5-.3-.8-.7-1.7-.3-2-4-8.3-3.7-7.5-2-3.2-2.3-3.3-2-2.7-2.2-2.5-2.3-2-2.5-1.8-2.7-1.2-2.8-.8-3-.2-3.2.2-3.5.8-3.8 1.2-4 2-3.5 2-3.5 2.3-3.2 2.7-3 2.8-2.8 3-2.5 3.2-2.2 3.5-1.8 3.8-1.5 4-1.2 4-.8 4.5-.2 4.5v5l.7 5 1 5.2 1.3 4.5 1.7 4 2 4 2.3 3.8 2.5 3.5 2.5 3.5 5.5 6.5 5.5 6.5 2.5 3 2.5 3.5 2.2 3.2 2 3.5 1.8 3.8 1.2 4-10.7 35.7-1.8 5.5-1.2 5.3-1 4.2-1 4-.5 1.8-.8 1.5-.7 1.5-1 1.2-1.3 1-1.2 1-1.8 1-1.7.5-2 .5-2.3.5-5 .5h-4l-3.5-.2-3.5-.5-3.2-1-3.3-1.3-3.2-1.5-3.3-2.2-3.2-2.3-3.5-3-3.8-3.2-8.7-8-23-22.5-3.8-3.8-3.7-4-3.5-4-3.3-4.2-3-4.3-3-4.5-2.7-4.2-2.8-4.5-4.7-9-4.3-9.3-3.7-9.2-3.3-9-2.7-9-2.5-9-2-8.5-1.8-8-2.7-14.8-2-12.5-.8-5.7-.7-6.8-.5-7.5-.3-8.2-.2-8.5v-9l.5-9.3.5-9.5.7-9.5 1.3-9.2 1.5-9 1.7-8.8 2.3-8.2 1.2-3.8 1.3-3.7 1.5-3.8 1.5-3.2 1.7-3.3 1.8-3 7.5-10.7 7-9.8 6.5-8.7 6-7.3 8.7-10.5 3.3-3.7 3-2.5 8-6.8 5.7-4.5 6.8-5.2 7.5-5.3 8-5.7 8.7-5.5 9-5.5 9.5-5.3 9.5-4.7 4.8-2 4.7-1.8 4.8-1.7 4.7-1.5 4.8-1.3 4.5-.7 4.7-.8 4.3-.2 17.5-.5 17-.8 16.2-.7 8-.3h7.5l7.8.3 7.2.2 7 .8 7 .7 6.5 1.3 6.5 1.5 6 2 5.8 2.2 6 3 6.2 3.5 6.5 3.8 6.5 4.2 7 4.8 7 4.7 6.8 5 7 5.3 13.2 10.7 12 10.5 5.5 5 5 4.5 4.5 4.5 3.8 4 2.2 2.8 2 3 1.5 2.7 1.5 2.8 1 3 .8 3 .5 3 .5 2.7-.3 3-.2 3-.5 3-.8 2.8-.7 3-1.3 2.7-1.5 2.8z" stroke-width="21"/><path d="m233.6 522.3v3.2l.5 3 .5 4.5.7 4.5 2.3 9.3 2.5 9.7 2.2 9.5 2 10 .8 4.8.5 5 .2 4.7v4.8l-.2 5-1 4.5-1 4-1.3 3.2-1.5 3.3-1.7 2.7-2 2.5-2.3 2.3-2.5 2-2.5 2-2.5 1.7-2.7 1.5-5.5 2.8-11.3 5-20.7 9.5-10.3 5-10 4.7-10 5.3-9.5 5-9.2 5.5-8.8 5.7-8.5 6-3.7 3-4 3.3-3.5 3.2-3.5 3.5-3.5 3.5-3 3.8-3 3.7-2.8 3.8-2.5 4-2.5 4.2-2 4.3-2 4.2-1.7 4.8-1.3 4.7m404-163.7 1.8-.3m60.2 152.3-80.7-100.8-2.8-5.5-1-3-1-2.7-.7-3-.8-3-.2-3-.3-3 .3-3 .5-3 .7-2.8 1-3 1.5-2.7 1.8-2.5 2.2-2.8 2.8-2.5 1.5-1 1.5-.7 3.5-1.8 3.7-1.2 4.5-1" stroke-width="21"/><path d="m390.3 578.5 9 .5 10.3.3 12.7.2 14.8-.2 7.7-.3 8-.5 8.3-.5 8-.7 8.2-1 7.8-1.3.7-.2 4.3-.5 6.2-1 7.5-1.5 3.5-1 3.5-1 6.8-2.5 5-2 4.5-2 2-1.8 1.5-1.7 1.5-2 1.2-2 1-2.3.8-2.2.7-2.3.5-2.2.3-2v-2.3l-.3-4-.5-3.5-1-3-.2-1.2-.3-1.3v-3.5l.3-4 .7-4.2 1.8-8 1.2-5.8-3-.2-3.5-.8-7.7-2-8.5-2.5-8.8-2.7-14.2-4.8-6-2.2 14-9.3 6-3.7 5.7-3.5 5.3-3 5.5-3 5.7-2.8 6.3-2.5 2-1 1.7-1 1.3-1 .7-.7.5-1 .3-.8v-1l-.3-1-.5-.7-.7-1-1.8-1.8-4-3.7-1-1-1-1.3-.5-1.7-.5-1.8-.5-1.7-.2-2v-4l.2-2 .3-1.8.5-1.7.7-1.5.8-1.5.7-1 1.3-.8 1-.5 8.7-1.5 4-.5 3-1 5.8-2 1.5-.5 1.2-1 1.3-1.2 1.2-1.3 1-1.5 1-1.7.8-1.8.7-2 .3-2 .2-2.2-.2-2-.5-2-.5-2-1.3-2-1.5-2-1.7-1.8-7.3-6-6.7-5.7-8.3-7.5-12-11-2.7-2.8-2.5-2.7-2.3-2.8-1.7-2.5-1.5-2.5-1.5-2.5-1-2.5-.8-2.5-.7-2.5-.5-2.5-.3-2.5v-8.2l.3-5.8 1-11.5.5-5 .2-4.7v-4.8l-.5-5.2-.7-5.5-1.3-6.5-2-8.3-2-6.7-2.2-5.5-2.3-4.5-2.2-3.5-2.5-3.3-3-2.5-3-2.5" stroke-width="21"/><path d="m579.1 448.3 179.2-121.3m-170.2 95.8 179.2-135m-186 214.7 179.3 121.5m-170.3-95.7 179.3 134.7" stroke-width="14"/><path d="m229.8 626.8 5 5.2 6 5.8 3.8 3.2 4.5 3.8 4.7 3.7 5.5 4 5.8 4 6.2 4 6.8 3.8 7.2 3.7 7.5 3.5 8 3 8.3 3 8.7 2.3 4.3 1 4.7.7 4.5.8 4.8.5 4.7.5 5 .2h4.8l5-.2 5.2-.3 5-.7 5.3-.8 5.2-1 5.3-1.2 5.5-1.5 5.2-1.8 5.5-2 5.5-2.2 5.8-2.8 5.5-2.7 5.7-3.3 5.8-3.5 5.7-3.7 5.8-4 5.7-4.5 6-4.8 5.8-5 6-5.5 6-6" stroke-width="21"/></g></svg>