<svg height="850.394" viewBox="0 0 850.394 850.394" width="850.394" xmlns="http://www.w3.org/2000/svg"><path d="m531.21 171.45-.28 33.2h-213.29v-33.2c0-60.05 47.81-108.74 106.78-108.74 58.98 0 106.79 48.69 106.79 108.74zm-2.9 76.18h-210.67v-42.98h213.29l-.37 42.98z" fill="#faa41a"/><g fill="#fff5b4"><path d="m557.2 352.99 28.87 105.25c-15.61-7.03-36.641-12.971-61.41-17.32l-17.66-101.98c20.16 3.55 37.34 8.36 50.2 14.05z"/><path d="m528.31 247.63 28.89 105.36c-12.86-5.69-30.04-10.5-50.2-14.05l-15.19-87.73v-3.58z"/><path d="m507 338.94 17.66 101.98c-18.59-3.28-39.29-5.66-61.38-6.96l-7.38-100.79c18.39 1.06 35.62 3.05 51.1 5.77zm-57.18-88.71 6.08 82.94c-10.17-.59-20.7-.9-31.48-.9v-84.64h25.4z"/><path d="m424.42 332.27v100.6c-13.62.01-26.9.439-39.7 1.229l7.39-100.879c10.43-.62 21.24-.95 32.31-.95z"/><path d="m455.9 333.17 7.38 100.79c-12.34-.71-25.11-1.09-38.19-1.09h-.67v-100.6c10.78 0 21.31.31 31.48.9zm35.91-81.96 15.19 87.73c-15.48-2.72-32.71-4.71-51.1-5.77l-6.08-82.94v-2.6h41.989v3.58zm-67.39 0v81.06c-11.07 0-21.88.33-32.31.95l5.94-81.03v-4.56h26.37z"/><path d="m398.05 247.63v4.56l-5.94 81.03c-18.34 1.09-35.51 3.09-50.92 5.83l14.87-85.89v-5.53z"/><path d="m392.11 333.22-7.39 100.88c-22.08 1.36-42.74 3.83-61.24 7.181l17.71-102.23c15.41-2.741 32.58-4.741 50.92-5.831zm-36.05-85.59v5.53l-14.87 85.89c-20.15 3.59-37.28 8.43-50.05 14.16l28.78-104.93v-.65z"/><path d="m341.19 339.05-17.71 102.23c-24.98 4.52-46.03 10.66-61.4 17.899l29.06-105.97c12.77-5.729 29.9-10.569 50.05-14.159z"/><path d="m323.48 441.28-6.49 37.489s-69.34 190.461-77.16 258.82v3.91l-51.76 29.3-37.11-33.21c13.67-94.729 105.48-257.84 105.48-257.84l5.64-20.57c15.37-7.239 36.42-13.379 61.4-17.899z"/><path d="m384.72 434.1-3.27 44.67s-58.6 241.24-59.58 266.641l-41.02 30.27-41.02-34.18v-3.91c7.82-68.359 77.16-258.82 77.16-258.82l6.49-37.489c18.5-3.352 39.16-5.822 61.24-7.182z"/><path d="m424.42 501.24v241.24l-62.5 34.18-40.05-31.25c.98-25.4 59.58-266.641 59.58-266.641l3.27-44.67c12.8-.79 26.08-1.22 39.7-1.229z"/><path d="m526 743.45-40.05 31.26-61.53-32.229v-309.611h.67c13.08 0 25.851.38 38.19 1.09l3.14 42.86s58.6 241.24 59.58 266.63z"/><path d="m526 743.45-40.05 31.26-61.53-32.229v-309.611h.67c13.08 0 25.851.38 38.19 1.09l3.14 42.86s58.6 241.24 59.58 266.63zm170.92-7.81-37.12 33.21-51.76-29.3v-3.91c-7.82-68.37-77.16-258.819-77.16-258.819l-6.22-35.9c24.77 4.35 45.8 10.29 61.41 17.32l5.359 19.56c.001-.001 91.811 163.099 105.491 257.839z"/><path d="m608.04 735.64v3.91l-41.02 34.18-41.02-30.28c-.98-25.391-59.58-266.63-59.58-266.63l-3.14-42.86c22.09 1.3 42.79 3.68 61.38 6.96l6.22 35.9s69.34 190.45 77.16 258.82z"/></g><g fill="none" stroke="#231f20" stroke-width="21"><path d="m530.93 204.65.28-33.2c0-60.05-47.81-108.74-106.79-108.74-58.97 0-106.78 48.69-106.78 108.74v76.18h212.919zm-174.87 48.51-14.87 85.89-17.71 102.23-6.49 37.489s-69.34 190.461-77.16 258.82m158.22-485.399-5.94 81.03-7.39 100.88-3.27 44.67s-58.6 241.24-59.58 266.641"/><path d="m527.95 246.33.359 1.3 28.891 105.36 28.87 105.25 5.359 19.56s91.811 163.101 105.49 257.84l-37.12 33.21-51.76-29.3-41.019 34.18-41.02-30.28-40.05 31.26-61.53-32.229-62.5 34.18-40.05-31.25-41.02 30.27-41.02-34.18-51.76 29.3-37.11-33.21c13.67-94.729 105.48-257.84 105.48-257.84l5.64-20.57 29.06-105.97 28.78-104.93"/><path d="m491.81 251.21 15.19 87.73 17.66 101.98 6.22 35.9s69.34 190.449 77.16 258.819m-158.22-485.409 6.08 82.94 7.38 100.79 3.14 42.86s58.6 241.239 59.58 266.63m-101.58-492.24v491.27"/><path d="m288.08 354.63c.99-.48 2.01-.96 3.06-1.42 12.77-5.73 29.9-10.57 50.05-14.16 15.41-2.74 32.58-4.74 50.92-5.83 10.43-.62 21.24-.95 32.31-.95 10.78 0 21.311.31 31.48.9 18.39 1.06 35.619 3.05 51.1 5.77 20.16 3.55 37.34 8.36 50.2 14.05.67.29 1.33.59 1.979.89m-298.449 105.94c.44-.221.89-.431 1.35-.641 15.37-7.239 36.42-13.38 61.4-17.899 18.5-3.351 39.16-5.82 61.24-7.181 12.8-.79 26.08-1.22 39.7-1.229h.67c13.08 0 25.851.38 38.19 1.09 22.09 1.3 42.79 3.68 61.38 6.96 24.77 4.35 45.8 10.29 61.41 17.32.489.22.979.45 1.46.67m-267.93-254.26h210.96"/></g><path d="m0 0h850.394v850.394h-850.394z" fill="none"/></svg>