<svg height="850" viewBox="0 0 850 850" width="850" xmlns="http://www.w3.org/2000/svg"><path d="m364 141.5v92l-1.5-1.5-1.2-1.5-1.8-1.2-1.5-1-2-.8-1.7-.7-2-.3-2-.2-2.8.2-2.7.8-2.5 1.2-2.3 1.5-2 2-2 2.3-1.5 2.7-1 2.8h-45.7v-76.3zm-13.7 128.3v4h-60.3l1-2.5.8-2.8.5-2.7v-5l-.3-2-.5-2-.5-1.8-.5-2-1-1.7-.7-1.5-1-1.5v-8.5h45.7l-.7 2-.5 2-.3 2v4.5l.5 2.2.3 2 .7 2 .8 2 1 1.8 1 1.7 1 1.5 1.5 1.3 1.2 1.2 1.5 1.3 1.8.7 1.5.8 1.7.7 2 .3zm-136.8-30h74.3v8.5l-1.5-1.5-1.5-1.5-1.5-1.3-1.8-1-1.7-.7-1.8-.8-2-.2-2-.3-1.7.3-2 .2-1.8.5-1.5.8-1.7 1-1.5 1-1.3 1.2-1.5 1.5-1 1.5-1 1.8-1 1.7-.7 1.8-.8 2-.2 2.2-.5 2v2.3l.2 3 .5 2.7.8 2.8 1 2.5h-44.8z" fill="#fff"/><path d="m213.5 239.8h74.3v8.5l-1.5-1.5-1.5-1.5-1.5-1.3-1.8-1-1.7-.7-1.8-.8-2-.2-2-.3-1.7.3-2 .2-1.8.5-1.5.8-1.7 1-1.5 1-1.3 1.2-1.5 1.5-1 1.5-1 1.8-1 1.7-.7 1.8-.8 2-.2 2.2-.5 2v2.3l.2 3 .5 2.7.8 2.8 1 2.5h-44.8zm136.8 30v4h-60.3l1-2.5.8-2.8.5-2.7v-5l-.3-2-.5-2-.5-1.8-.5-2-1-1.7-.7-1.5-1-1.5v-8.5h45.7l-.7 2-.5 2-.3 2v4.5l.5 2.2.3 2 .7 2 .8 2 1 1.8 1 1.7 1 1.5 1.5 1.3 1.2 1.2 1.5 1.3 1.8.7 1.5.8 1.7.7 2 .3zm13.7-128.3v92l-1.5-1.5-1.2-1.5-1.8-1.2-1.5-1-2-.8-1.7-.7-2-.3-2-.2-2.8.2-2.7.8-2.5 1.2-2.3 1.5-2 2-2 2.3-1.5 2.7-1 2.8h-45.7v-76.3z" fill="#fff"/><path d="m743.8 615.3 4.7.5h4.8l-3.8 2-3.7 2.2-5 .3-5.3.2-5.2.8-5.3 1-5.2 1-5.3 1.2-5.5 1.5-5.2 1.5-10.8 3.8-10.5 4-10.5 4.2-10.2 4.8-19.5 8.7-9.3 4.3-9 4-8.2 3.2-7.5 2.8-3.5 1.2-3.5.8-3.3.7-3 .5-10.7 1-12 .8-25.5 1.5-20.8.7-8.5.3 3-.3-9-.2-22-1-27-1.3-12.5-1-11-1-2.7-.2-3-.8-3-1-3.3-1-6.5-2.7-7-3.3-7.2-4-7.5-4.2-15.8-9.3-8-4.5-8.5-4.5-8.7-4.2-8.8-4-4.5-1.8-4.5-1.5-4.5-1.5-4.7-1.2-4.5-1-4.8-1-4.7-.8-4.5-.2 6.5-1 6.5-1.3 6.2-1.2 6-1.5 11.5-3.3 11.8-3.5 24-7.7 13.2-4.3 14.5-4 6-1.5 5.8-1.2 6-1 5.7-.8 6-.7 6-.3 5.8-.2 6 .2 6 .3 6 .7 6 .8 6 1.2 6 1.5 6 1.8 6 2 6 2.5 7 1.7 4.5.5 7-2 6-2.2 6.2-2 6-2 6-1.3 6-1.2 6-1 6-.5 5.8-.5h12l6 .5 5.7.5 6 .7 5.8 1 6 1.3 5.7 1.5 32.3 8.7 15 4 14.2 3.5 14.5 3 7.3 1.5 7.2 1.3 7.8 1 7.7 1 8 1z" fill="#ed1d31"/><path d="m312.3 617.3 4.5.2 4.7.8 4.8 1 4.5 1 4.7 1.2 4.5 1.5 4.5 1.5 4.5 1.8 8.8 4 8.7 4.2 8.5 4.5 8 4.5 15.8 9.3 7.5 4.2 7.2 4 7 3.3 6.5 2.7 3.3 1 3 1 3 .8 2.7.2 11 1 12.5 1 27 1.3 22 1 9 .2-3 .3 8.5-.3 20.8-.7 25.5-1.5 12-.8 10.7-1 3-.5 3.3-.7 3.5-.8 3.5-1.2 7.5-2.8 8.2-3.2 9-4 9.3-4.3 19.5-8.7 10.2-4.8 10.5-4.2 10.5-4 10.8-3.8 5.2-1.5 5.5-1.5 5.3-1.2 5.2-1 5.3-1 5.2-.8 5.3-.2 5-.3-3.8 2.8-4 3.2-3.5 3.5-3.7 3.5-3.5 4-3.5 4.3-7.3 9-7.2 9.2-7.5 9.8-8 10-4.5 4.7-4.5 5-4.8 4.8-5 4.5-5.2 4.5-5.5 4.5-6 4-6.3 4-6.5 3.7-7 3.3-7.2 3.2-8 2.8-8.3 2.5-8.7 2-9.3 1.7-9.7 1-10.3.8-11 .2-52.5 1.3-45.5-1.5-10.7-.3-10.3-.7-9.7-1.3-9-1.7-8.8-2-8-2.3-7.7-3-7.3-3-7-3.5-6.2-3.5-6.3-4-5.7-4.2-5.5-4.3-5-4.5-5-4.7-4.5-4.8-4.5-4.7-4-5-8-9.8-7.3-10-7-9.5-6.7-9-3.5-4-3.5-4.2-3.5-3.8-3.5-3.5-3.8-3.2-3.7-2.8 5-1.5 3.7-.2 3.8-.3h3.7z" fill="#ee947d"/><path d="m544.3 514.3 3.5-1.5 4-1.5 4-1.3 4.2-1 4.5-.5 4.5-.5h4.5l4.8.5 5 .8 5 1.2 5 2 5.2 2.3 5 3 5.3 3.5 5.5 4.2 5.2 5 9.3 9.3 9.2 8.7 9 8.3 8.8 7.7 8.5 7.3 8.2 6.7 8.3 6 7.7 5.8 7.8 5 7.5 4.7 7.2 4 7 3.5 6.8 2.8 6.5 2.2 6.5 1.8 6 1-8.3-.5-8-1-7.7-1-7.8-1-7.2-1.3-7.3-1.5-14.5-3-14.2-3.5-15-4-32.3-8.7-5.7-1.5-6-1.3-5.8-1-6-.7-5.7-.5-6-.5h-12l-5.8.5-6 .5-6 1-6 1.2-6 1.3-6 2-6.2 2-6 2.2-7 2-4.5-.5-7-1.7-6-2.5-6-2-6-1.8-6-1.5-6-1.2-6-.8-6-.7-6-.3-6-.2-5.8.2-6 .3-6 .7-5.7.8-6 1-5.8 1.2-6 1.5-14.5 4-13.2 4.3-24 7.7-11.8 3.5-11.5 3.3-6 1.5-6.2 1.2-6.5 1.3-6.5 1-3.8-.3h-3.7l-3.8.3-3.7.2-5 1.5-4.8-3-2.5-1.5-2.5-1 3-.2 3.3-.3 3.2-.5 3.3-.5 6.7-1.7 7.3-2.3 7.2-3 7.8-3.7 8-4.3 8.2-5 8.5-5.5 8.5-6.2 9-6.8 9.3-7.5 9.5-8 9.5-8.7 9.7-9.3 10.3-9.7 5.5-5.3 5.5-4.2 5.5-3.8 5.2-3 5.5-2.5 5.3-1.7 5-1.3 5.2-.5 4.8-.5 4.7.3 4.8.5 4.5 1 4.2 1 4.3 1.5 3.7 1.5 3.8 1.7h.2l5.3 2.5 5 2.8 4.2 2.7 3.5 2.5 5.3 4 1.7 1.5 1.8-1.7 2.2-1.8 3.3-2.5 3.7-2.5 4.5-2.7 5.3-3z" fill="#ee947d"/><path d="m214.3 308.8-.8-1-1.3-1.8-1.5-1.3-1.5-1.3-1.8-1.3-1.8-.8-1.6-.3-2-.5h-4.3l-2 .5-2 .8-1.8 1-2 1.3-1.5 1.3-1.4 1.6-1.3 1.8-1.8 3-1.3 3.3-.8 3.5-.3 3.8.3 3.5.8 3.5 1 3 1.5 3 2 2.5 2 2.3 2.5 1.8 2.8 1.3 2.8.8 2.8.3 2.8-.3 2.8-.8 2.8-1.3 2.5-1.8 2-2.3 2-2.5 1.5-3 1-3 .8-3.5.3-3.5-.3-3.8-.8-3.5-1.3-3.3zm153-69-1.5-3.3-1.8-3v-92l-76.3 22v76.3h-74.3v34h44.8l1.3 2.3 1.5 2.3 1.8 1.8 2 1.5 2.3 1.5 2.3.8 2.3.8h5l2.5-.8 2.3-.8 2-1.5 2-1.5 1.8-1.8 1.5-2.3 1.5-2.3h60.3v-4h2l1.8-.3 1.8-.8 1.8-.8 1.5-.8 1.5-1.3 1.5-1.3 1.3-1.3 1.3-1.5 1-1.8 1-1.8.8-2 .5-2 .5-2 .3-2.3v-4.1l-.3-2-.5-2zm110.5 224.5-2.5.5-2.5.5h-5.3l-5.5-.3-5.3-1-5.5-1.5-5.3-2.3-5.3-2.3-5.3-3-5.5-3.3-5-3.5-5.3-3.8-5-4.3-5-4.3-4.8-4.5-4.8-4.5-4.5-4.8-8.5-9.3-7.8-9.3-7-8.5-6-8-4.8-6.5-3.5-5.3-3-4.5h-214.3l-4.8-.3-4.7-.2-4.5-1.3-4.5-1.5-4-2-4-2.5-3.8-2.8-3.3-3-3-3.3-2.8-3.8-2.5-4-2-4-1.5-4.5-1.1-4.3-.8-4.8-.3-4.8v-163l.3-4.8.8-4.6 1.3-4.5 1.5-4.5 2-4 2.5-4 2.8-3.8 3-3.3 3.3-3.3 3.8-2.8 4-2.3 4-2 4.5-1.5 4.5-1.3 4.8-.8 4.8-.3h244.8l4.8.3 4.8.8 4.5 1.3 4.5 1.5 4.3 2 3.8 2.3 3.8 2.8 3.3 3.3 3.3 3.3 2.8 3.8 2.3 4 2 4 1.8 4.5 1 4.5.8 4.8.3 4.8v186.8l.5 7.5.8 7.5.8 7 1.3 6.8 1.3 6.8 1.5 6.3 1.5 6.3 1.8 5.8 2 5.8 1.8 5.3 2.3 5 2 4.8 4.3 9 4.5 7.8 4.3 7 3.8 5.8 3.8 4.5 3 3.8 2.3 2.8.5 1.3z" fill="#fff"/><path d="m364 239.8h3.3l.5 2 .5 2 .2 2v4.5l-.2 2.2-.5 2-.5 2-.8 2-1 1.8-1 1.7-1.2 1.5-1.3 1.3-1.5 1.2-1.5 1.3-1.5.7-1.7.8-1.8.7-1.7.3h-3.8l-2-.3-1.7-.7-1.5-.8-1.8-.7-1.5-1.3-1.2-1.2-1.5-1.3-1-1.5-1-1.7-1-1.8-.8-2-.7-2-.3-2-.5-2.2v-4.5l.3-2 .5-2 .7-2zm3.3 0h-3.3v-6.3l1.8 3zm-3.3-6.3v6.3h-30.5l1-2.8 1.5-2.7 2-2.3 2-2 2.3-1.5 2.5-1.2 2.7-.8 2.8-.2 2 .2 2 .3 1.7.7 2 .8 1.5 1 1.8 1.2 1.2 1.5zm-76.2 14.8 1 1.5.7 1.5 1 1.7.5 2 .5 1.8.5 2 .3 2v5l-.5 2.7-.8 2.8-1 2.5h-31.7l-1-2.5-.8-2.8-.5-2.7-.2-3v-2.3l.5-2 .2-2.2.8-2 .7-1.8 1-1.7 1-1.8 1-1.5 1.5-1.5 1.3-1.2 1.5-1 1.7-1 1.5-.8 1.8-.5 2-.2 1.7-.3 2 .3 2 .2 1.8.8 1.7.7 1.8 1 1.5 1.3 1.5 1.5zm-29.5 25.5h31.7l-1.5 2.2-1.5 2.3-1.7 1.7-2 1.5-2 1.5-2.3.8-2.5.7h-5l-2.2-.7-2.3-.8-2.2-1.5-2-1.5-1.8-1.7-1.5-2.3zm-44.8 35h.8l1.7 3 1.3 3.2.7 3.5.3 3.8-.3 3.5-.7 3.5-1 3-1.5 3-2 2.5-2 2.2-2.5 1.8-2.8 1.2h-11l-2.7-1.2-2.5-1.8-2-2.2-2-2.5-1.5-3-1-3-.8-3.5-.2-3.5.2-3.8.8-3.5 1.2-3.2 1.8-3zm.8 0h-.8v-1zm-.8-1v1h-27.7l1.2-1.8 1.5-1.7 1.5-1.3 2-1.2 1.8-1 2-.8 2-.5h4.2l2 .5 1.8.5 1.7.8 1.8 1.2 1.5 1.3 1.5 1.2zm-19 35.2h11l-2.7.8-2.8.2-2.7-.2z" fill="#231f20"/><g fill="none" stroke="#231f20" stroke-linecap="round" stroke-miterlimit="10"><path d="m355.3 371h-214.8l-4.7-.2-4.8-.8-4.5-1.2-4.5-1.5-4-2-4-2.5-3.7-2.8-3.3-3-3-3.2-2.7-3.8-2.5-4-2-4-1.5-4.5-1.3-4.5-.7-4.7-.3-4.8v-163l.3-4.7.7-4.8 1.3-4.5 1.5-4.5 2-4 2.5-4 2.7-3.7 3-3.3 3.3-3.2 3.7-2.8 4-2.2 4-2 4.5-1.5 4.5-1.3 4.8-.7 4.7-.3h244.8l4.7.3 4.8.7 4.5 1.3 4.5 1.5 4.2 2 3.8 2.2 3.7 2.8 3.3 3.2 3.2 3.3 2.8 3.7 2.2 4 2 4 1.8 4.5 1 4.5.7 4.8.3 4.7v186.8l.5 7.5.7 7.5.8 7 1.2 6.7 1.3 6.8 1.5 6.2 1.5 6.3 1.7 5.7 2 5.8 1.8 5.2 2.2 5 2 4.8 4.3 9 4.5 7.7 4.2 7 3.8 5.8 3.7 4.5 3 3.7 2.3 2.8 2 2-2.5.5-2.5.5h-5.3l-5.5-.3-5.2-1-5.5-1.5-5.3-2.2-5.2-2.3-5.3-3-5.5-3.2-5-3.5-5.2-3.8-5-4.2-5-4.3-4.8-4.5-4.7-4.5-4.5-4.7-8.5-9.3-7.8-9.2-7-8.5-6-8-4.7-6.5-3.5-5.3zm143 147.3-6-3.3-3.8-1.7-3.7-1.5-4.3-1.5-4.2-1-4.5-1-4.8-.5-4.7-.3-4.8.5-5.2.5-5 1.3-5.3 1.7-5.5 2.5-5.2 3-5.5 3.8-5.5 4.2-5.5 5.3-10.3 9.7-9.7 9.3-9.5 8.7-9.5 8-9.3 7.5-9 6.8-8.5 6.2-8.5 5.5-8.2 5-8 4.3-7.8 3.7-7.2 3-7.3 2.3-6.7 1.7-3.3.5-3.2.5-3.3.3-3 .2" stroke-width="14"/><path d="m516 532.3-1.2-1.3-3.5-3.2-2.5-2.3-3-2.2-3.8-2.5-3.7-2.5" stroke-width="14"/><path d="m492.5 515 5.3 2.5 5 2.8 4.2 2.7 3.5 2.5 5.3 4 1.7 1.5 1.8-1.7 2.2-1.8 3.3-2.5 3.7-2.5 4.5-2.7 5.3-3 6-2.5 3.5-1.5" stroke-width="14"/><path d="m536 518.5 4-2.2 4.3-2 3.5-1.5 4-1.5 4-1.3 4.2-1 4.5-.5 4.5-.5h4.5l4.8.5 5 .8 5 1.2 5 2 5.2 2.3 5 3 5.3 3.5 5.5 4.2 5.2 5 9.3 9.3 9.2 8.7 9 8.3 8.8 7.7 8.5 7.3 8.2 6.7 8.3 6 7.7 5.8 7.8 5 7.5 4.7 7.2 4 7 3.5 6.8 2.8 6.5 2.2 6.5 1.8 6 1 4.7.5h5.5m-236-83 1.3-1.5 3.5-3.3 2.7-2 3-2.5 3.5-2.5 4-2.5m-22.5 219.3-45.5-1.5-10.7-.3-10.3-.7-9.7-1.3-9-1.7-8.8-2-8-2.3-7.7-3-7.3-3-7-3.5-6.2-3.5-6.3-4-5.7-4.2-5.5-4.3-5-4.5-5-4.7-4.5-4.8-4.5-4.7-4-5-8-9.8-7.3-10-7-9.5-6.7-9-3.5-4-3.5-4.2-3.5-3.8-3.5-3.5-3.8-3.2-3.7-2.8-4.8-3-2.5-1.5-2.5-1m231 124.3h-2 3.3z" stroke-width="14"/><path d="m754.8 615.3-1.5.5-3.8 2-3.7 2.2-3.8 2.8-4 3.2-3.5 3.5-3.7 3.5-3.5 4-3.5 4.3-7.3 9-7.2 9.2-7.5 9.8-8 10-4.5 4.7-4.5 5-4.8 4.8-5 4.5-5.2 4.5-5.5 4.5-6 4-6.3 4-6.5 3.7-7 3.3-7.2 3.2-8 2.8-8.3 2.5-8.7 2-9.3 1.7-9.7 1-10.3.8-11 .2-52.5 1.3" stroke-width="14"/><path d="m750.3 620h-4.5l-5 .3-5.3.2-5.2.8-5.3 1-5.2 1-5.3 1.2-5.5 1.5-5.2 1.5-10.8 3.8-10.5 4-10.5 4.2-10.2 4.8-19.5 8.7-9.3 4.3-9 4-8.2 3.2-7.5 2.8-3.5 1.2-3.5.8-3.3.7-3 .5-10.7 1-12 .8-25.5 1.5-20.8.7-8.5.3 3-.3-9-.2-22-1-27-1.3-12.5-1-11-1-2.7-.2-3-.8-3-1-3.3-1-6.5-2.7-7-3.3-7.2-4-7.5-4.2-15.8-9.3-8-4.5-8.5-4.5-8.7-4.2-8.8-4-4.5-1.8-4.5-1.5-4.5-1.5-4.7-1.2-4.5-1-4.8-1-4.7-.8-4.5-.2-3.8-.3h-3.7l-3.8.3-3.7.2" stroke-width="14"/><path d="m745.5 615.5-1.7-.2-8.3-.5-8-1-7.7-1-7.8-1-7.2-1.3-7.3-1.5-14.5-3-14.2-3.5-15-4-32.3-8.7-5.7-1.5-6-1.3-5.8-1-6-.7-5.7-.5-6-.5h-12l-5.8.5-6 .5-6 1-6 1.2-6 1.3-6 2-6.2 2-6 2.2-7 2-4.5-.5-7-1.7-6-2.5-6-2-6-1.8-6-1.5-6-1.2-6-.8-6-.7-6-.3-6-.2-5.8.2-6 .3-6 .7-5.7.8-6 1-5.8 1.2-6 1.5-14.5 4-13.2 4.3-24 7.7-11.8 3.5-11.5 3.3-6 1.5-6.2 1.2-6.5 1.3-6.5 1-6.8.7-7 .5" stroke-width="14"/><path d="m287.8 248.3 1 1.5.7 1.5 1 1.7.5 2 .5 1.8.5 2 .3 2v5l-.5 2.7-.8 2.8-1 2.5-1.5 2.2-1.5 2.3-1.7 1.7-2 1.5-2 1.5-2.3.8-2.5.7h-5l-2.2-.7-2.3-.8-2.2-1.5-2-1.5-1.8-1.7-1.5-2.3-1.2-2.2-1-2.5-.8-2.8-.5-2.7-.2-3v-2.3l.5-2 .2-2.2.8-2 .7-1.8 1-1.7 1-1.8 1-1.5 1.5-1.5 1.3-1.2 1.5-1 1.7-1 1.5-.8 1.8-.5 2-.2 1.7-.3 2 .3 2 .2 1.8.8 1.7.7 1.8 1 1.5 1.3 1.5 1.5zm79.5-8.5.5 2 .5 2 .2 2v4.5l-.2 2.2-.5 2-.5 2-.8 2-1 1.8-1 1.7-1.2 1.5-1.3 1.3-1.5 1.2-1.5 1.3-1.5.7-1.7.8-1.8.7-1.7.3h-3.8l-2-.3-1.7-.7-1.5-.8-1.8-.7-1.5-1.3-1.2-1.2-1.5-1.3-1-1.5-1-1.7-1-1.8-.8-2-.7-2-.3-2-.5-2.2v-4.5l.3-2 .5-2 .7-2 1-2.8 1.5-2.7 2-2.3 2-2 2.3-1.5 2.5-1.2 2.7-.8 2.8-.2 2 .2 2 .3 1.7.7 2 .8 1.5 1 1.8 1.2 1.2 1.5 1.5 1.5 1.8 3z" stroke-width="6.5"/><path d="m287.8 263v-99.5l76.2-22v106.5" stroke-width="12.75"/><path d="m214.3 308.8 1.7 3 1.3 3.2.7 3.5.3 3.8-.3 3.5-.7 3.5-1 3-1.5 3-2 2.5-2 2.2-2.5 1.8-2.8 1.2-2.7.8-2.8.2-2.7-.2-2.8-.8-2.7-1.2-2.5-1.8-2-2.2-2-2.5-1.5-3-1-3-.8-3.5-.2-3.5.2-3.8.8-3.5 1.2-3.2 1.8-3 1.2-1.8 1.5-1.7 1.5-1.3 2-1.2 1.8-1 2-.8 2-.5h4.2l2 .5 1.8.5 1.7.8 1.8 1.2 1.5 1.3 1.5 1.2 1.2 1.8z" stroke-width="6.5"/><path d="m213.5 322.5v-99.7" stroke-width="12.75"/><path d="m132.8 239.8h258.2m-258.2 34h258.2m-258.2 35h258.2m-258.2 34.2h258.2" stroke-width="7"/></g></svg>