<svg height="850.394" viewBox="0 0 850.394 850.394" width="850.394" xmlns="http://www.w3.org/2000/svg"><path d="m772.73 520.2h-.12l-229.88 18.73-4.2-.06c.229-19.73.489-42.76.76-66.68 0 0 66.09 3.39 134.52-.021 74.9-3.74 97.73-15.479 97.73-15.479.46 25.1.89 47.91 1.19 63.51z" fill="#33a02c"/><path d="m539.29 472.19c.47-41.62.95-85.931 1.3-120.19.141-12.88.25-24.34.34-33.7h35.99c16.29 0 192.35 4.86 192.35 4.86.41 30.73 1.4 86.21 2.271 133.53 0 0-22.83 11.739-97.73 15.479-68.431 3.411-134.521.021-134.521.021z" fill="#fff"/><path d="m769.07 302.82c0 3.83.069 10.92.199 20.34 0 0-176.06-4.86-192.35-4.86h-35.99c.11-12.22.17-20.87.17-24.43 0-24.85 19.681-31.15 20.301-31.34h.01c47.91-1.68 119.16-1.42 177.53 10.17 0 0 30.13 1.63 30.13 30.12z" fill="#33a02c"/><path d="m754.61 525.61c5.85 0 10.59 4.279 10.59 9.569 0 5.28-4.74 9.561-10.59 9.561-5.841 0-10.58-4.28-10.58-9.561 0-5.289 4.74-9.569 10.58-9.569z" fill="#ffa500"/><path d="m722.51 527.92c-5.84 0-10.58 4.29-10.58 9.57 0 5.29 4.74 9.569 10.58 9.569 5.851 0 10.59-4.279 10.59-9.569 0-5.28-4.74-9.57-10.59-9.57zm32.1-2.31c-5.841 0-10.58 4.279-10.58 9.569 0 5.28 4.739 9.561 10.58 9.561 5.85 0 10.59-4.28 10.59-9.561 0-5.289-4.74-9.569-10.59-9.569zm-211.88 13.32 229.88-18.73h.12c.25 13.14.409 21.17.409 21.17s6.511 23.61-20.359 29.31c-26.86 5.7-214.94 28.5-214.94 28.5s.29-24.8.69-60.31zm69.96 13.36c0-5.29-4.74-9.57-10.58-9.57-5.851 0-10.591 4.28-10.591 9.57 0 5.28 4.74 9.56 10.591 9.56 5.84 0 10.58-4.28 10.58-9.56zm-32.1 2.31c0-5.279-4.74-9.56-10.59-9.56-5.84 0-10.58 4.28-10.58 9.56 0 5.29 4.74 9.57 10.58 9.57 5.85 0 10.59-4.28 10.59-9.57z" fill="#c8c8c8"/><path d="m722.51 527.92c5.851 0 10.59 4.29 10.59 9.57 0 5.29-4.739 9.569-10.59 9.569-5.84 0-10.58-4.279-10.58-9.569 0-5.28 4.74-9.57 10.58-9.57zm-120.4 14.8c5.84 0 10.58 4.28 10.58 9.57 0 5.28-4.74 9.56-10.58 9.56-5.851 0-10.591-4.279-10.591-9.56.001-5.29 4.741-9.57 10.591-9.57z" fill="#fff400"/><path d="m570 545.04c5.85 0 10.59 4.28 10.59 9.56 0 5.29-4.74 9.57-10.59 9.57-5.84 0-10.58-4.28-10.58-9.57 0-5.28 4.74-9.56 10.58-9.56z" fill="#ffa500"/><path d="m561.4 262.53c-.62.19-20.301 6.49-20.301 31.34 0 3.56-.06 12.21-.17 24.43h-.01l-97.68 2.93-82.96 2.49-57.63 1.73-61 1.84-49.74 1.49-51.96 1.56-59.66 1.79h-4.889v-25.24l432.05-41.24s21.68-2 53.95-3.12z" fill="#33a02c"/><path d="m540.92 318.3h.01c-.09 9.36-.199 20.82-.34 33.7h-.59l-96.6.14v-25.71l-.16-5.2z" fill="#fff"/><path d="m540.59 352c-.35 34.26-.83 78.57-1.3 120.19l-95.89-10.7v-109.35l96.6-.14z" fill="#fff"/><path d="m443.4 461.49 95.89 10.7c-.271 23.92-.53 46.949-.76 66.68-.4 35.51-.69 60.31-.69 60.31l-103.52-22.67c2.319-10.99 2.38-15.529 1.91-24.41-.04-.88-.091-1.8-.15-2.779-1.94-33.94-23.15-49.25-42.49-49.25-19.33 0-35.01 22.05-35.01 49.25 0 .42-.01.83-.03 1.25-.27 5.1-2.02 9.93-2.02 9.93l-175.79-46.35s.3-4.15.52-8.45c.13-2.59.24-5.23.24-7.07 0-19.62-12.71-35.52-28.4-35.52-15.68 0-28.39 15.899-28.39 35.52 0 2.97-.26 3.101.29 5.86l-21.1-7.08-28.5-25.511v-51.02h4.07l60.46 6.75 52.01 5.8 49.16 5.49 61.56 6.86 57.62 6.43z" fill="#33a02c"/><path d="m443.4 352.14v109.35l-83.12-9.28v-99.96zm0-25.71v25.71l-83.12.11v-28.53l82.96-2.49z" fill="#fff"/><path d="m432.16 552.32c.06.93.08 1.87.08 2.819 0 24.261-16.29 43.92-36.38 43.92-20.08 0-36.37-19.659-36.37-43.92 0-1.52.06-3.01.19-4.489 1.86-22.15 17.36-39.44 36.18-39.44 19.31 0 35.1 18.16 36.3 41.11z" fill="#787878"/><g fill="#fff"><path d="m360.28 352.25v99.96l-57.62-6.43.12-1.1v-92.35z"/><path d="m360.28 323.72v28.53l-57.5.08v-22.64l-.13-4.24zm-57.5 28.61v92.35l-.12 1.1-61.56-6.86.56-5.02v-81.48z"/><path d="m302.78 329.69v22.64l-61.12.09v-24.83l-.01-.3 61-1.84zm-61.12 22.73v81.48l-.56 5.02-49.16-5.49.12-1.1v-79.84z"/><path d="m241.66 327.59v24.83l-49.6.07v-18.73l-.15-4.98 49.74-1.49z"/><path d="m192.06 352.49v79.84l-.12 1.1-52.01-5.8.02-.22v-97.07l51.96-1.56.15 4.98z"/></g><path d="m179.01 504c0 .53-.01 1.06-.03 1.59-.69 16.29-11.84 29.24-25.5 29.24-13.98 0-25.34-13.57-25.52-30.4-.01-.14-.01-.29-.01-.43 0-17.02 11.43-30.83 25.53-30.83s25.53 13.81 25.53 30.83z" fill="#787878"/><path d="m139.95 330.4v97.01l-.02.22-60.46-6.75h-4.07v-88.75h4.89l59.66-1.79z" fill="#fff"/><g fill="none" stroke="#231f20"><path d="m561.4 262.53c-.62.19-20.301 6.49-20.301 31.34 0 3.56-.06 12.21-.17 24.43-.09 9.36-.199 20.82-.34 33.7-.35 34.26-.83 78.57-1.3 120.19-.271 23.92-.53 46.949-.76 66.68-.4 35.51-.69 60.31-.69 60.31m23.571-336.66v.01" stroke-width="19.54"/><path d="m80.29 332.13 59.66-1.79 51.96-1.56 49.74-1.49 61-1.84 57.63-1.73 82.96-2.49 97.68-2.93h36c16.29 0 192.35 4.86 192.35 4.86m-689.8 97.72 60.46 6.75 52.01 5.8 49.16 5.49 61.56 6.86 57.62 6.43 83.121 9.28 95.89 10.7s66.09 3.39 134.52-.021c74.9-3.74 97.73-15.479 97.73-15.479" stroke-width="21"/><path d="m139.95 330.4v97.01m52.11-93.65v98.57m0-79.84 49.6-.07 61.12-.09 57.5-.08 83.12-.11 96.6-.14m-298.34-24.41v106.31m61.12-104.21v114.99m57.5-120.96v128.49m83.12-125.78v135.06" stroke-width="14"/><path d="m542.73 538.93 229.88-18.73" stroke-width="21"/><path d="m580.59 554.6c0 5.29-4.74 9.57-10.59 9.57-5.84 0-10.58-4.28-10.58-9.57 0-5.279 4.74-9.56 10.58-9.56 5.85 0 10.59 4.28 10.59 9.56zm32.1-2.31c0 5.28-4.74 9.56-10.58 9.56-5.851 0-10.591-4.279-10.591-9.56 0-5.29 4.74-9.57 10.591-9.57 5.84 0 10.58 4.28 10.58 9.57zm120.41-14.8c0 5.29-4.739 9.569-10.59 9.569-5.84 0-10.58-4.279-10.58-9.569 0-5.28 4.74-9.57 10.58-9.57 5.85 0 10.59 4.29 10.59 9.57zm32.1-2.31c0 5.28-4.74 9.561-10.59 9.561-5.841 0-10.58-4.28-10.58-9.561 0-5.29 4.739-9.569 10.58-9.569 5.85-.001 10.59 4.279 10.59 9.569z" stroke-width="14"/><g stroke-width="21"><path d="m537.84 599.18s188.08-22.8 214.94-28.5c26.87-5.699 20.359-29.31 20.359-29.31s-.159-8.03-.409-21.17c-.301-15.601-.73-38.41-1.19-63.51-.87-47.32-1.86-102.8-2.271-133.53-.13-9.42-.199-16.51-.199-20.34 0-28.49-30.13-30.12-30.13-30.12-58.37-11.59-129.62-11.85-177.53-10.17h-.01c-32.271 1.12-53.95 3.12-53.95 3.12l-432.05 41.24v165.01l28.5 25.51 21.1 7.08c-.55-2.76-.29-2.891-.29-5.86 0-19.62 12.71-35.52 28.39-35.52 15.69 0 28.4 15.899 28.4 35.52 0 1.84-.11 4.48-.24 7.07-.22 4.3-.52 8.45-.52 8.45l175.79 46.35s1.75-4.83 2.02-9.93c.02-.42.03-.83.03-1.25 0-27.2 15.68-49.25 35.01-49.25 19.34 0 40.55 15.31 42.49 49.25.06.979.11 1.899.15 2.779.47 8.881.409 13.42-1.91 24.41z"/><path d="m127.96 504.43c-.01-.14-.01-.29-.01-.43 0-17.02 11.43-30.83 25.53-30.83s25.53 13.811 25.53 30.83c0 .53-.01 1.06-.03 1.59-.69 16.29-11.84 29.24-25.5 29.24-13.98 0-25.34-13.57-25.52-30.4zm304.2 47.89c.06.93.08 1.87.08 2.819 0 24.261-16.29 43.92-36.38 43.92-20.08 0-36.37-19.659-36.37-43.92 0-1.52.06-3.01.19-4.489 1.86-22.15 17.36-39.44 36.18-39.44 19.31 0 35.1 18.16 36.3 41.11z"/></g></g><path d="m0 0h850.394v850.394h-850.394z" fill="none"/></svg>