<svg height="850" viewBox="0 0 850 850" width="850" xmlns="http://www.w3.org/2000/svg"><path d="m645.5 693.8 4.5 5.7 4 5 6.3 7.5 2 2.8.7 1.2.8 1.3.2 1v1.2l-.2 1-.5 1.3-1.3 1.5-1.7 1.5-2 1-2.5.7-3 .5h-3l-3.5-.2-3.8-.8-3.7-1-4-1.5-4-1.7-4-2-4-2.5-4-2.8-4-3.5-4-3.5-6.3-6.5-4.5-4.2-3.2-2.5-2.3-1.5-2-.5-2-.5-3-.8-3.7-1.7-5.3-2.5-4.2-2.8-3.5-2.5-2.5-2.5-2-2.5-1.5-2.5-.8-2.5-.2-2.5.2-2.5.3-2.2.7-2.3 1-2.2 1.8-4.5 2-4 43.5-4.8 12.7 19 10.8 15.5z" fill="#231f20"/><path d="m613.3 646.5-43.5 4.8-16.5 1.7-12.8-97.7 7.8-33.3 6.2-25.2 2.3-9.8 1.7-8.5 1-7 .3-2.7v-4.8l-.5-2-.5-1.7-.8-1.8-1.7-3.2-2.3-3-2-2.3-1.7-1.7-1.8-1.5-3.7-1.8-4.3-1.7-9.2-3-10-3.3-11.3-3-23.7-5.7-24.8-6.3 16.3.3 22.5-.3 47.2-.2h19.3l3.5.2 2 .8 2.5 1.2 2.7 1.5 2.8 2 2.7 2.3 1.5 1.5 1 1.5 1 1.7 1 1.8 1.5 5.2 1.3 6 1 7.3 1 8.7 2.2 24.3 1.8 16.2 2.2 19.8 7.5 61.7 4.5 37.5z" fill="#7a7878"/><path d="m582.5 248.3.8 4 .5 4.2.2 4.5-.2 5-.3 5.3-.2 5.5-1.5 11.7-2.3 12.3-2.5 12.7-3 13-3.2 13.3-3.5 12.7-3.5 12.5-6.8 22.8-9.5 30.2v3.8l-47.2.2-22.5.3-16.3-.3-18.5-4.7-9-2.8-8.5-2.7-8.2-2.8-7.5-3.2-7-3.3-6.3-3.2-2-1.5-2.5-2-6-5.3-2.7-2.7-2.8-2.8-2-2.5-1-1.7-3-.3v-1.2l50-92.5 46.3-113.3 4-1.5 2.5 5.3 1.5 2.5 1.5 2.5 1.7 2.2 1.8 2.3 2 2 1.7 1.7 2.3 1.8 2 1.7 2.2 1.5 2.3 1.3 2.5 1 2.5 1 2.5.7 2.7.8 3.5.5h3.8l3.5-.3 3.7-.5 3.5-.7 3.5-1.3 3.5-1.5 3.3-2 2.7.5 6.5 5.3 6.5 5.7 7.8 7.5 4 4 4 4.3 3.7 4.5 3.5 4.5 3.3 4.5 2.5 4.5 2 4.2.7 2.3z" fill="#a9d7f3"/><path d="m530.3 74.5 2.5.5 2.2.8 2.3 1 2.2 1 2.3 1 2 1.2 4 3 3.5 3.5 3.5 3.8 3 4.5 2.5 4.5 2.2 5 1.8 5.5 1.5 5.5.7 6 .5 6 .3 6.2-.5 6.5-1 6.3-1 4.2-1 3.8-1.3 4-1.2 3.5-1.5 3.7-1.8 3.3-1.7 3.5-2 3-2 3-2.3 3-2.2 2.5-2.5 2.5-2.5 2.5-2.5 2-2.8 2-2.7 1.7-3.3 2-3.5 1.5-3.5 1.3-3.5.7-3.7.5-3.5.3h-3.8l-3.5-.5-2.7-.8-2.5-.7-2.5-1-2.5-1-2.3-1.3-2.2-1.5-2-1.7-2.3-1.8-1.7-1.7-2-2-1.8-2.3-1.7-2.2-1.5-2.5-1.5-2.5-2.5-5.3-1.8-4.7-1.5-5-1-5.3-.7-5.5-.3-5.7v-5.5l.5-6 1-6 1.3-6.3 2-6 2.2-6 2.8-5.2 3-5.3 3.5-4.7 3.5-4.3 4-4 4-3.2 4.5-3 4.5-2.5 4.5-1.8 4.7-1.2 2.5-.5 2.5-.3h4.8l2.5.3z" fill="#ffeec8"/><path d="m540.5 555.3-2.2 9.7-14 60.8-8.5 36.7-5.5 22.8-42.8-10-23.2-5.3 46-172-9.3-1.2-24.5-3-22.7-2.5-5-.5-5-.8-5-1-4.8-1.2-5-1.3-4.7-1.5-4.5-2-4.5-2-4.3-2.2-4.2-2.8-3.8-2.7-3.7-3.3-3.5-3.5-3.3-3.7-2.7-4-2.5-4.5 4.2-45.8 3-28 3 .3 1 1.7 2 2.5 2.8 2.8 2.7 2.7 6 5.3 2.5 2 2 1.5 6.3 3.2 7 3.3 7.5 3.2 8.2 2.8 8.5 2.7 9 2.8 18.5 4.7 24.8 6.3 23.7 5.7 11.3 3 10 3.3 9.2 3 4.3 1.7 3.7 1.8 1.8 1.5 1.7 1.7 2 2.3 2.3 3 1.7 3.2.8 1.8.5 1.7.5 2v4.8l-.3 2.7-1 7-1.7 8.5-2.3 9.8-6.2 25.2z" fill="#7a7878"/><path d="m524.5 740.8 2.3 7 2 6 3.5 9.2 1 3.3.2 1.5v2.5l-.5 1-.5 1-.7 1-1.8 1-2.2.7-2.3.3h-2.7l-2.8-.8-3-1-3-1.5-3.2-1.7-3.3-2.3-3.2-2.7-3.3-3-3-3.3-3-3.7-2.7-4-2.8-4.5-2.2-4.8-3.8-8.2-3-5.5-2-3.5-1.7-2-1.5-1.5-2-1-2.3-1.8-3.2-2.7-4-4.3-3-4-2.3-3.5-1.7-3.2-1-3-.5-2.8.2-2.7.5-2.3.8-2.2 1.2-2 1.5-2 1.5-1.8 3.3-3.5 3.2-3.2 42.8 10 5.5 22.2 4.7 18.5z" fill="#231f20"/><path d="m367.3 454.3-2 22.7-.8 9.3-.2 7.7-38-2.2h-1.8l1.3-72.3 1-51.5 4.2-14 4.5-13 4.5-12.2 4.3-11.8 6.7-17.2 6.8-15.8 6.2-14.2 6-13.3 10.8-23 4.7-10.2 4-9.8 1.8-3.2 1.7-3.3 2-3 2.3-2.7 2.7-2.5 2.5-2.5 3-2.3 3-2.2 3.3-2 3.2-1.8 3.5-1.7 3.3-1.5 7-2.8 7-2.2 7-1.8 6.2-1.5 6-1 5.3-1 7.7-.7 2.8-.3-46.3 113.3-50 92.5v1.2l-3 28z" fill="#a9d7f3"/><path d="m456.5 493.8-.2 2-2 2.5-2.8 2.2-3.5 2.5-3.7 2.3-4 2-4.5 2.2-9.8 4-10 4-10 3.5-9 3.5-7.5 3-5 2.5-4 1.8-3.7 1.2-4.5.8-4.3-.5.3-3.3.2-3v-4.7l-.7-3.8-1-3.7-1-3.8-1-4.2-.3-2.8-.2-2.7-.3-3.5.3-3.8.2-7.7.8-9.3 2-22.7 2.5 4.5 2.7 4 3.3 3.7 3.5 3.5 3.7 3.3 3.8 2.7 4.2 2.8 4.3 2.2 4.5 2 4.5 2 4.7 1.5 5 1.3 4.8 1.2 5 1 5 .8 5 .5z" fill="#f6cc4b"/><path d="m318.8 517 3.2-10.5 2.8-7.7 1-3.3-1.3 2.5v-6.2h1.8l38 2.2-.3 3.8.3 3.5.2 2.7.3 2.8 1 4.2 1 3.8 1 3.7.7 3.8v4.7l-.2 3-.3 3.3-1.5 7.5-2.2 9.5-1.3 3.2-1 3-1.2 2.8-1.5 2.2-1.5 2.3-1.5 1.7-1.5 1.5-1.8 1.3-1.7 1-1.8 1-2 .5-1.7.2-2 .3h-2l-1.8-.3-2-.2-3.7-1.3-3.8-1.7-3.5-2-3.5-2.5-3-2.5-2.5-3-2.2-2.8-1.5-2.7-.5-1.3-.5-1.5-.3-3.5.3-4.2.5-4.5 1-5 1-5z" fill="#ffeec8"/><path d="m324.5 498 1.3-2.5-1 3.3-2.8 7.7-3.2 10.5-8.3-4.5-19.7-11.7-9.3-5.8-8.7-5.7-7.8-5.8-3.5-2.7-3-2.8-3-2.7-2.2-2.8-2.3-2.7-1.5-2.8-.2-.7-.3-.8v-1.5l.5-1.5.8-1.5 1-1.5 1.5-1.7 1.5-1.5 4.2-3.5 4.8-3.5 5.5-3.5 6-3.3 6.2-3.2 12.3-6 10.5-5 10.5-4.5 11.5-4.3-1.3 72.3z" fill="#f6cc4b"/><g fill="none" stroke="#231f20" stroke-linecap="round" stroke-miterlimit="10"><path d="m372.3 533.8 4.5-.8 3.7-1.2 4-1.8 5-2.5 7.5-3 9-3.5 10-3.5 10-4 9.8-4 4.5-2.2 4-2 3.7-2.3 3.5-2.5 2.8-2.2 2-2.5m-130.5-76.3-11.5 4.3-10.5 4.5-10.5 5-12.3 6-6.2 3.2-6 3.3-5.5 3.5-4.8 3.5-4.2 3.5-1.5 1.5-1.5 1.7-1 1.5-.8 1.5-.5 1.5v1.5l.3.8.2.7 1.5 2.8 2.3 2.7 2.2 2.8 3 2.7 3 2.8 3.5 2.7 7.8 5.8 8.7 5.7 9.3 5.8 19.7 11.7 8.3 4.5" stroke-width="21"/><path d="m344.3 317.8v-.8l-.3-7-.5-7.2-1.2-13.3-1.3-11.2-1.2-8.3-1.8-12.5-2.5-13.5-2.2-11.2-2.5-10.5" stroke-width="18"/><path d="m192.3 255.5 3 9 8 26.3 2 6.2 2.2 8.3 5.5 22 6.8 26.5 6.7 28 12 50 5 21.7.5 3 1.3 9 1 9.5 1 12.3.5 15.5.2 19-.2 12.2-.5 13.3-.8 14-1 14.2-2.5 29.5-3 28.3-3 25.5-2.5 20.5-2.5 19" stroke-width="21"/><path d="m338 257.5-4 .5-9.2 1-13.3 2-8 1.5-8.7 1.5-9.5 2-10 2.3-10.5 2.5-10.8 3-11.2 3.5-11.3 3.7-11.2 4.3-11.3 4.5" stroke-width="35"/><path d="m348.3 571.8 11 192.2" stroke-width="21"/><path d="m460 422h1.5l16.3.3 22.5-.3 47.2-.2h19.3l3.5.2 2 .8 2.5 1.2 2.7 1.5 2.8 2 2.7 2.3 1.5 1.5 1 1.5 1 1.7 1 1.8 1.5 5.2 1.3 6 1 7.3 1 8.7 2.2 24.3 1.8 16.2 2.2 19.8 7.5 61.7 4.5 37.5 2.8 23.5-43.5 4.8-16.5 1.7-12.8-97.7-.5-2" stroke-width="14"/><path d="m613.3 646.5 12.7 19 10.8 15.5 8.7 12.8 4.5 5.7 4 5 6.3 7.5 2 2.8.7 1.2.8 1.3.2 1v1.2l-.2 1-.5 1.3-1.3 1.5-1.7 1.5-2 1-2.5.7-3 .5h-3l-3.5-.2-3.8-.8-3.7-1-4-1.5-4-1.7-4-2-4-2.5-4-2.8-4-3.5-4-3.5-6.3-6.5-4.5-4.2-3.2-2.5-2.3-1.5-2-.5-2-.5-3-.8-3.7-1.7-5.3-2.5-4.2-2.8-3.5-2.5-2.5-2.5-2-2.5-1.5-2.5-.8-2.5-.2-2.5.2-2.5.3-2.2.7-2.3 1-2.2 1.8-4.5 2-4m-192.3-270.5 1 1.7 2 2.5 2.8 2.8 2.7 2.7 6 5.3 2.5 2 2 1.5 6.3 3.2 7 3.3 7.5 3.2 8.2 2.8 8.5 2.7 9 2.8 18.5 4.7 24.8 6.3 23.7 5.7 11.3 3 10 3.3 9.2 3 4.3 1.7 3.7 1.8 1.8 1.5 1.7 1.7 2 2.3 2.3 3 1.7 3.2.8 1.8.5 1.7.5 2v4.8l-.3 2.7-1 7-1.7 8.5-2.3 9.8-6.2 25.2-7.8 33.3-2.2 9.7-14 60.8-8.5 36.7-5.5 22.8-42.8-10-23.2-5.3 46-172-9.3-1.2-24.5-3-22.7-2.5-5-.5-5-.8-5-1-4.8-1.2-5-1.3-4.7-1.5-4.5-2-4.5-2-4.3-2.2-4.2-2.8-3.8-2.7-3.7-3.3-3.5-3.5-3.3-3.7-2.7-4-2.5-4.5" stroke-width="14"/><path d="m510.3 685.3 5.5 22.2 4.7 18.5 4 14.8 2.3 7 2 6 3.5 9.2 1 3.3.2 1.5v2.5l-.5 1-.5 1-.7 1-1.8 1-2.2.7-2.3.3h-2.7l-2.8-.8-3-1-3-1.5-3.2-1.7-3.3-2.3-3.2-2.7-3.3-3-3-3.3-3-3.7-2.7-4-2.8-4.5-2.2-4.8-3.8-8.2-3-5.5-2-3.5-1.7-2-1.5-1.5-2-1-2.3-1.8-3.2-2.7-4-4.3-3-4-2.3-3.5-1.7-3.2-1-3-.5-2.8.2-2.7.5-2.3.8-2.2 1.2-2 1.5-2 1.5-1.8 3.3-3.5 3.2-3.2v-.3m7.3-503-1.8-4.7-1.5-5-1-5.3-.7-5.5-.3-5.7v-5.5l.5-6 1-6 1.3-6.3 2-6 2.2-6 2.8-5.2 3-5.3 3.5-4.7 3.5-4.3 4-4 4-3.2 4.5-3 4.5-2.5 4.5-1.8 4.7-1.2 2.5-.5 2.5-.3h4.8l2.5.3 2.5.2 2.5.5 2.2.8 2.3 1 2.2 1 2.3 1 2 1.2 4 3 3.5 3.5 3.5 3.8 3 4.5 2.5 4.5 2.2 5 1.8 5.5 1.5 5.5.7 6 .5 6 .3 6.2-.5 6.5-1 6.3-1 4.2-1 3.8-1.3 4-1.2 3.5-1.5 3.7-1.8 3.3-1.7 3.5-2 3-2 3-2.3 3-2.2 2.5-2.5 2.5-2.5 2.5-2.5 2-2.8 2-2.7 1.7-3.3 2-3.5 1.5-3.5 1.3-3.5.7-3.7.5-3.5.3h-3.8l-3.5-.5-2.7-.8-2.5-.7-2.5-1-2.5-1-2.3-1.3-2.2-1.5-2-1.7-2.3-1.8-1.7-1.7-2-2-1.8-2.3-1.7-2.2-1.5-2.5-1.5-2.5z" stroke-width="14"/><path d="m537.5 195 6.5 5.3 6.5 5.7 7.8 7.5 4 4 4 4.3 3.7 4.5 3.5 4.5 3.3 4.5 2.5 4.5 2 4.2.7 2.3.5 2 .8 4 .5 4.2.2 4.5-.2 5-.3 5.3-.2 5.5-1.5 11.7-2.3 12.3-2.5 12.7-3 13-3.2 13.3-3.5 12.7-3.5 12.5-6.8 22.8-9.5 30.2m-76.7-244.5-2.8.3-7.7.7-5.3 1-6 1-6.2 1.5-7 1.8-7 2.2-7 2.8-3.3 1.5-3.5 1.7-3.2 1.8-3.3 2-3 2.2-3 2.3-2.5 2.5-2.7 2.5-2.3 2.7-2 3-1.7 3.3-1.8 3.2-4 9.8-4.7 10.2-10.8 23-6 13.3-6.2 14.2-6.8 15.8-6.7 17.2-4.3 11.8-4.5 12.2-4.5 13-4.2 14-1 51.5-1.3 72.3v6.2l1.3-2.5-1 3.3-2.8 7.7-3.2 10.5-3 10.3-1 5-1 5-.5 4.5-.3 4.2.3 3.5.5 1.5.5 1.3 1.5 2.7 2.2 2.8 2.5 3 3 2.5 3.5 2.5 3.5 2 3.8 1.7 3.7 1.3 2 .2 1.8.3h2l2-.3 1.7-.2 2-.5 1.8-1 1.7-1 1.8-1.3 1.5-1.5 1.5-1.7 1.5-2.3 1.5-2.2 1.2-2.8 1-3 1.3-3.2 2.2-9.5 1.5-7.5.3-3.3.2-3v-4.7l-.7-3.8-1-3.7-1-3.8-1-4.2-.3-2.8-.2-2.7-.3-3.5.3-3.8.2-7.7.8-9.3 2-22.7 4.2-45.8 3-28v-1.2l50-92.5" stroke-width="21"/><path d="m550.5 283.5-31.2 130.3m-193 78 38 2.2" stroke-width="14"/></g></svg>