<svg height="850.394" viewBox="0 0 850.394 850.394" width="850.394" xmlns="http://www.w3.org/2000/svg"><path d="m167 590.3-16.44-2.77s-2.96-20.82 8.54-27.3c11.49-6.48 11.49-6.471 11.49-6.471v-.01l77.16-21.58c21.74 3.7 47.26 2.7 73.11-2.46l119.71 62.91c-4.021 6.41-7.09 14.22-8.67 22.89-1.23 6.721-1.44 13.271-.771 19.33z" fill="#f0947d"/><path d="m320.86 529.71c-25.85 5.16-51.37 6.16-73.11 2.46-9.75-1.66-18.74-4.27-26.66-7.87-9.77-4.46-19.78-14.77-27.45-25.92-7.59-11.04-12.89-22.89-13.41-30.68 3.03 12.72 12.73 23.7 29.37 31.28 47.08 21.43 131.92 7.619 189.52-30.87l253.87-169.63c32.569-21.77 49.439-46.76 49.439-68.24 0-1.07-.04-2.12-.13-3.17 6.53 37.41 7.29 66.57-37.819 96.72l-253.87 169.64c-26.3 17.57-58.28 30-89.75 36.28z" fill="#f0947d"/><path d="m702.3 227.07c.09 1.05.13 2.1.13 3.17 0 21.48-16.87 46.47-49.439 68.24l-253.871 169.63c-57.6 38.489-142.44 52.3-189.52 30.87-16.64-7.58-26.34-18.561-29.37-31.28a38.92 38.92 0 0 1 -1.04-8.99c0-21.479 16.87-46.47 49.44-68.24l253.89-169.63c57.58-38.48 142.41-52.29 189.5-30.85 19.13 8.71 29.08 21.91 30.28 37.08z" fill="#f0037f"/><g fill="#787878"><path d="m114.47 520.25 31.74 5.97c-15.81-.899-31.54 16.561-35.92 40.54-4.61 25.26 5.14 48.2 21.77 51.23l-34.58-6.19c-16.63-3.03-26.37-25.97-21.77-51.24 4.61-25.25 21.83-43.27 38.46-40.239z"/><path d="m146.21 526.22c.85.04 1.69.141 2.54.29 11.05 2.01 19.06 12.811 21.84 27.24v.01s0-.01-11.49 6.471c-11.5 6.479-8.54 27.3-8.54 27.3l16.44 2.769c-7.13 18.38-21.22 30.2-34.94 27.69-16.63-3.03-26.38-25.971-21.77-51.23 4.38-23.98 20.11-41.44 35.92-40.54zm294.36 66.4c7.689-12.26 18.87-19.351 29.79-17.351l.3-.079 31.68 5.96c-15.79-.841-31.5 16.6-35.859 40.56-4.601 25.26 5.14 48.19 21.77 51.23l-34.58-6.19c-12.21-2.23-20.71-15.18-22.54-31.91-.67-6.06-.46-12.609.771-19.33 1.578-8.67 4.648-16.48 8.668-22.89z"/><path d="m502.34 581.15c.86.04 1.72.149 2.59.3 16.641 3.04 26.391 25.97 21.771 51.24-4.601 25.26-21.82 43.279-38.45 40.25-16.63-3.04-26.37-25.971-21.77-51.23 4.359-23.96 20.069-41.4 35.859-40.56zm255.41-302c.6.03 1.19.1 1.78.21 11.81 2.15 18.729 18.44 15.45 36.38-3.261 17.94-15.5 30.74-27.311 28.58-11.81-2.14-18.729-18.44-15.46-36.39 3.111-17.03 14.301-29.43 25.541-28.78z"/><path d="m735.17 274.91 22.58 4.24c-11.24-.65-22.43 11.75-25.54 28.78-3.27 17.95 3.65 34.25 15.46 36.39l-24.55-4.39c-11.82-2.15-18.74-18.45-15.47-36.39 3.279-17.94 15.51-30.74 27.33-28.58z"/></g><g fill="none" stroke="#231f20" stroke-width="21"><path d="m702.3 227.07c.09 1.05.13 2.1.13 3.17 0 21.48-16.87 46.47-49.439 68.24l-253.871 169.63c-57.6 38.489-142.44 52.3-189.52 30.87-16.64-7.58-26.34-18.561-29.37-31.28a38.92 38.92 0 0 1 -1.04-8.99c0-21.479 16.87-46.47 49.44-68.24l253.89-169.63c57.58-38.48 142.41-52.29 189.5-30.85 19.13 8.71 29.08 21.91 30.28 37.08z"/><path d="m700.98 219.73c.46 2.48.899 4.93 1.319 7.34 6.53 37.41 7.29 66.57-37.819 96.72l-253.87 169.64c-26.3 17.57-58.28 30-89.75 36.28-25.85 5.16-51.37 6.16-73.11 2.46-9.75-1.66-18.74-4.27-26.66-7.87-9.77-4.46-19.78-14.77-27.45-25.92-7.59-11.04-12.89-22.89-13.41-30.68-.01-.08-.02-.16-.02-.24m-13.21 122.83v.01c-7.13 18.38-21.22 30.2-34.94 27.69-16.63-3.03-26.38-25.971-21.77-51.23 4.38-23.979 20.11-41.439 35.92-40.54.85.04 1.69.141 2.54.29 11.05 2.01 19.06 12.811 21.84 27.24"/><path d="m146.61 526.29-.4-.07-31.74-5.97-.3.07c-16.63-3.03-33.85 14.989-38.46 40.239-4.6 25.271 5.14 48.21 21.77 51.24l34.58 6.19m370.28-36.839c.86.04 1.72.149 2.59.3 16.641 3.04 26.391 25.97 21.771 51.24-4.601 25.26-21.82 43.279-38.45 40.25-16.63-3.04-26.37-25.971-21.77-51.23 4.359-23.96 20.069-41.4 35.859-40.56z"/><path d="m502.81 581.24-.47-.09-31.68-5.96-.3.079c-10.92-2-22.101 5.091-29.79 17.351-4.021 6.41-7.09 14.22-8.67 22.89-1.23 6.721-1.44 13.271-.771 19.33 1.83 16.73 10.33 29.68 22.54 31.91l34.58 6.19m269.501-393.79c.6.03 1.19.1 1.78.21 11.81 2.15 18.729 18.44 15.45 36.38-3.261 17.94-15.5 30.74-27.311 28.58-11.81-2.14-18.729-18.44-15.46-36.39 3.111-17.03 14.301-29.43 25.541-28.78z"/><path d="m758.01 279.2-.26-.05-22.58-4.24-.189.05c-11.82-2.16-24.051 10.64-27.33 28.58-3.271 17.94 3.649 34.24 15.47 36.39l24.55 4.39m-577.081 209.43 77.16-21.58.06-.02m-77.22 21.6v.01s0-.01-11.49 6.471c-11.5 6.479-8.54 27.3-8.54 27.3l16.44 2.769 264.13 44.54h.021m-110.301-105.14.01.01 119.71 62.91.02.01"/></g><path d="m0 0h850.394v850.394h-850.394z" fill="none"/></svg>