<svg height="850" viewBox="0 0 850 850" width="850" xmlns="http://www.w3.org/2000/svg"><path d="m548.5 381-.5 3.5-1 3.8-1.2 3.7-1.5 4-2 3.3-3 4.5-4 5.7-5 6.3-11.8 14.7-13.5 15.8-13.2 15.5-12.3 13.5-9.5 10-3.2 3.5-2.3 1.7-2.2 1.8-2.3 1.2-2.5 1.3-2.5 1-11.5-8.8-72-55.7-.5-.3 3.8-5.5 9-12.7 10.5-16 4.7-7.8 3.8-6.5 2.5 1 2.7.8 3.3.5 3.2.2h3.3l3.2-.2 3.3-.5 3.5-.8 6.7-1.7 6.5-2 6.5-2.3 6.3-2.2 5.7-1.8 5-1.7 5-1.8 5.5-2 5.3-2.5 5.5-2.5 5.2-2.7 5.3-3.3 5-3.2 4.5-3.5 4.2-3.8 3.8-4 1.7-2.2 1.5-2 1.5-2.3 1.3-2.2 1-2.3.7-2.5.8-2.2.5-2.5.2-2.5v-2.5l7.8 11.7 3.7 5.8 3.5 6 2.8 4.5 2.2 4.7 2 4.5 1.5 4.8 1.3 4.7.7 5 .3 5z" fill="#7a7878"/><path d="m443.5 487 7.8 10-6.5 2-6.5 1.5-7 2-3.3 1-3.5 1.5-5.7 2.8-6 2.5-12.5 5-6.3 2.7-6 2.8-5.5 3.2-5.2 3.3-2.5 2-1.8 2.2-1.5 2.5-1.2 3-.5 3-.5 3-.3 3.5.3 3.3.5 7 .5 7 .5 7v3.2l-.3 3-1.2 8.5-1.5 8.3-1.8 7.7-2 7.8-2.2 7.2-2.3 7.3-4.7 13.5-4.3 12.7-2 6.3-2 6.2-1.5 6-1.2 6-1 5.8-.5 6-38.5-3.8-1.3-.2.5-2.5.3-2.8v-6l.2-4.5.5-12.2.3-17v-9.5l-.3-9.8-.2-11.7v-32l.5-17.8.7-17.2 1.3-15.8.5-6.7 1-6 .7-5 1-4 .5-1.8 1-1.7 2.5-4.3 3.5-5 4.3-5 4.5-5.5 5-5.7 10.7-11.3 10.5-10.5 8.8-8.7 8.7-8 2-3z" fill="#ffeec8"/><path d="m455 495.8 2.5-1 2.5-1.3 2.3-1.2 2.2-1.8 2.3-1.7 3.2-3.5 9.5-10 12.3-13.5 13.2-15.5 13.5-15.8 11.8-14.7 5-6.3 4-5.7 3-4.5 2-3.3 1.5-4 1.2-3.7 1-3.8.5-3.5-10.7 129.3-7.8-1.3-78.5-11.7-.2-.3z" fill="#7a7878"/><path d="m455 495.8-3.7 1.2-7.8-10z" fill="#ffeec8"/><path d="m205.5 298.8-.2-2.8h2.2l2.3-.5 2-1 2-1 1.7-1.2 1.8-1.3 1.7-1.7 1.5-1.8 1.3-1.7 1.2-2 1-2.3.8-2 .7-2.2.5-2.3.3-2.2v-2.3l3.2.8 2.8.5h2.5l2-.5 2-.8 1.5-1 1.2-1.2 1.3-1.8 1.2-2 1-2.2 1.8-5 2-5.5 2.7-6.3 6.3-12.7 4-8 4.7-8.5 2.8-4.3 2.5-4 3-4 2.7-4 3-3.5 3-3.2 3.3-2.8 3.2-2.5.8 4.8 1 5.5 1.5 5.5 1.5 6 3.5 12.5 4.5 13 4.7 12.5 2.5 6 2.5 5.5 2.5 5.2 2.5 4.8 2.5 4.2 2.5 3.5-.5.3h-1.2l-3.8.2-3.5.3-3.2.5-3 .7-3 1-2.5 1-2.5 1.3-2.5 1.2-2 1.5-2 1.5-3.8 3.5-3.5 4-3 4-5.7 8.5-3 4.3-3.3 4.2-3.2 4-4 3.8-2 1.5-2.3 1.7-2.5 1.5-2.5 1.3-5 2.2-2.5.8-2.2.5-2.3.5-2 .2h-2l-2-.2-2-.3-1.7-.2-1.8-.8-1.7-.5-3.3-1.7-3.2-2.3-2.8-2.7-2.7-3-2.8-3.5-2.5-3.8-5-8-5-8.5z" fill="#a9d7f3"/><path d="m205.3 296 .2 2.8-4-1.3-10-3-7.2-2-5.3-1.7-2.2-1-2.5-1-2.3-1.5-2-1.5-2-1.8-1.7-1.7-3.5-4-3-4-2-3 1 1 1.5 1 1.7 1 1.8 1 2.2.7 2 .5 2-.2 1-.3 1-.5 1-.7.8-1 .7-.8.5-1.2.3-1v-1.3l-.3-1.2-.2-1.3 2 1.3 1 .5 1 .2h1.2l1.3-.2 1.5-.3 1.5-.5 1.5-1 1.2-1 .5-1 .3-1.2-.3-1.3-.5-1.2-.7-1-.8-1.3.8.5 1 .5 1.2.3 1.5.2 1.5-.5 1.3-.7 1.5-1.3 1-2.2.5-1.5.2-1.8-.2-1.5-.8-1.5-1-2-1.2-1.5-1.8-1.7-1.5-1.3-.7-3-.3-3.2.3-.8.5-.5.7-.5h3.5l3 .3.3.2 4.5 1.5 4 1.8 4 2.2 3 2 2 1.5.7.8 2 2 1.3 2.2 1.2 2.3 1 2.2 1.8 5 1 2.5 1.5 2.8.2-.3.5 1.8.3 1.5.5 3.2v2.3l-.3 2.2-.5 2.3-.7 2.2-.8 2-1 2.3-1.2 2-1.3 1.7-1.5 1.8-1.7 1.7-1.8 1.3-1.7 1.2-2 1-2 1-2.3.5z" fill="#ffeec8"/><path d="m251 743.3-3.2.2-3.3-.2-2-.5-2-.8-1.7-1-1.8-1.2-1.5-1.3-1.5-1.5-1-1.5-1.2-1.7-.8-1.8-.7-1.7-.5-1.8-.3-2-.2-2 .2-1.7.3-2 .5-1.8 1-2.2 1.2-2 1.8-2 2-1.5 2.5-1.5 2.7-1.3 3.3-.7 3.7-.5 13.5-.8 4-.5 4.3-.5 4.2-.7 4.3-1 4-1.3 3.7-1.5 3.8-2 3.5-2.2 1.5-1.3 1.2-1.5 1.5-1.7 1.3-1.8 1-1.7 1-2 .7-2.3.5-2.2 1.3.2 38.5 3.8-.3 3.2v5.8l.3 5.5 1 9.7.7 8.5.8 7.5v3.3l-.3 3-.5 3-.7 2.7-1.3 2.5-1.5 2.5-2.2 2.3-2.8 2.2-1 .5-1.2.5-3.3.5-4.5.3h-5.2l-9-.8-10-1-20.8-2.2-9.5-1.3-8.7-.7-6.8-.5h-2.5zm369.3-92.3 4.2 4 4.3 3.5 7.7 6 6.8 5.3 5.7 4.5 2.5 2.2 2.3 2.3 1.7 2.2 1.5 2.5 1 2.8.5 2.7.3 3.3v3.5l-.5 1-.5 1.2-1.8 2.8-3 3.5-3.5 3.7-6.7 6.3-8 7-16.5 14-7.8 6.7-6.7 5.8-5.3 4.7-1.7 2-1.3 1.5-2.2 2.8-2.3 2-2 1.2-1.7.8-2 .7-2 .5-2 .3h-2l-1.8-.3-2-.2-2-.8-1.7-.5-1.8-1-1.5-1-1.5-1.2-1.5-1.5-1-1.5-1-1.5-1-2.3-.5-2.2-.2-2.5v-2.8l.7-2.7 1-3 1.8-3 2.2-3 3.5-4.8 4.3-5.7 2.5-3.3 2.2-3.7 2-3.8 2-3.7 2-4 1.5-4.3 1-4.2.8-4.3.2-4.2v-2.3l-.2-2-.3-2.2-.5-2-.7-2.3-1-2 2.2-.2 28.8-25.5z" fill="#9e5c26"/><path d="m578.3 663.5-3-3-6.8-7-10.2-10-6.3-5.7-7-6-7.2-6.3-7.8-6.2-8.2-6.5-8.5-6-8.8-5.8-8.7-5.2-4.5-2.3-4.5-2.2-4.3-2.3-4.5-1.7-6.5-2.8-6.2-2.7-5.5-2.8-5.3-2.7-4.7-3-4-3-3.8-3-3-3.3-2.5-3.5-1-1.7-1-2-.5-1.8-.7-2-.3-2-.2-2v-4.2l.2-2.3.5-2.5.8-2.2.7-2.5 2.3-5.3 14.2-32.7 78.5 11.7-14.7 25.3-1.5 2.5-1.3 2.7-1 3-.7 3-.3 1.5.3 1.3.2 1 .8 1 1.2.5 1.3.2 3.7.3 4 .7 4.3 1 4.2 1.3 4.3 1.5 4.7 2.2 4.5 2.5 4.5 3 4.8 3.3 4.5 4 4.5 4.5 4.2 4.7 4.3 5.8 4 6 3.7 6.7 3.5 7.3 2.8 4.5 3 4.5 4 5.7 4.7 6.3 5.5 6.5 2.8 3 3 2.7 2.7 2.8 3 2.5 2.3 2.7 2 1.8-28.8 25.5-2.2.2-1.5-3-2-2.7-2.3-2.8-3-2.5zm8.5-339.5.5-3.5v-3.5l-.3-3.5-.5-3.5-1-3.2-1-3.3-1.7-3.2-1.8-3 1-.5 2.3 3 2.7 3 3.3 3 3 3.5 3.7 4.7-.5 2-.7 2-1 2-1.3 2-1.5 1.3-.7.5-.8.5-1 .2h-1l-.7-.2z" fill="#ffeec8"/><path d="m631.5 315.3v1l-.5 1-.7 1-1.3 1-2 1.2-2 1-1 .5h-1l-.7-.2-.5-.5v2.2l-.5 1.3-.5.5-.5.7-2 1-2 .8-2 .2h-2l-.3.8-.5.5-.5.5-.7.2-.8.3h-.7l-1-.3-.8-.5-.7-.5-.8-1.2-1.7-3.3-2.8-4.7-1.7-2.8-2.3-3-3.7-4.7-3-3.5-3.3-3-2.7-3-2.3-3-1.7-2.8-.5-1.5-.5-1.2-.3-2.8-.2-2.7v-5.8l.2-6.7-.2-3.8-.3-4.7 3-1.5 2.8-2 6.5-4 3.7-2 4-2 4.5-1.5 4.8-1.3 9.7 8.3 2.8 2.2 2.2 2.5 2 2.3 1.5 2 1.5 4.7 3 10.3 1.5 6 1.5 6.2.8 6 .2 2.5.3 2.5-.5 2.3-.8 2.5-1 2.5zm-446-56.3.8 1.3.7 1 .5 1.2.3 1.3-.3 1.2-.5 1-1.2 1-1.5 1-1.5.5-1.5.3-1.3.2h-1.2l-1-.2-1-.5-2-1.3-1.8-1.5-1.7-1.7-4.5-4-2.3-1.8-1.5-1.2-1.5-1h-1l-1-.3 1.5-.7.5-1.8 1-2 1.5-2 .8-1 1-.7.7-.5.8-.3h1.5l1.2.3 1.3.2.5.8 1 .5 1.5 1 1.5 1 3 2.7 2.5 2.8 1.5 1.2 1.5 1z" fill="#ffeec8"/><path d="m182.5 238.8 3 1.5 2 1.2 2 1.5.5 1.5 1 1.5 1 1.3 1.3 1.2 1 .5.7.5.8 1.5.2 1.5-.2 1.8-.5 1.5-1 2.2-1.5 1.3-1.3.7-1.5.5-1.5-.2-1.2-.3-1-.5-.8-.5-1.2-1-1.5-1-1.5-1.2-2.5-2.8-3-2.7-1.5-1-1.5-1-1-.5-.5-.8-.5-.7.2-1 .3-.8.7-1 1.8-2 2-2 1.2-.7 1-.5h2l1.5.2zm-7.7 28.2.2 1.3.3 1.2v1.3l-.3 1-.5 1.2-.7.8-.8 1-1 .7-1 .5-1 .3-2 .2-2-.5-2.2-.7-1.8-1-1.7-1-1.5-1-1-1-2.5-3.8-1-2-.5-1.7-.3-1.3v-1.2l.5-1.5.8-1.3 1-1.2 1-.8 1.2-.7 1.5-.3 1 .3h1l1.5 1 1.5 1.2 2.3 1.8 4.5 4 1.7 1.7zm191.5-146.5-.3 6-.5 5.5-1 5.5-1.2 5.3-1.8 5.2-2 4.8-2.5 4.7-2.5 4.3-2 2.7-1.7 2.3-2 2.5-2.3 2.2-2.2 2-2.3 2-2.5 1.8-2.5 1.5-2.5 1.5-2.7 1.2-2.8 1-2.7 1-2.8.8-3 .5-2.7.2h-5.8l-3-.2-2.7-.5-2.5-.8-4.5-1.2-4-2-4-2.3-3.8-2.5-3.5-3-3.2-3.5-3.3-3.7-2.7-4-2.8-4.3-2.2-4.5-2-4.7-1.5-5.3-1.5-5.2-.8-5.3-.7-5.7-.3-5.8.5-6.5.8-6.5 1.2-6 1.8-6 2-5.7 2.7-5.3 3-5 3.3-4.5 3.7-4.2 3.8-3.5 4.2-3.3 4.8-2.7 2.2-1.3 2.3-1 2.5-.7 2.5-.8 2.5-.7 2.7-.3 2.5-.2 2.8-.3 2.5.3 2.7.2 2.5.3 2.5.7 2.5.8 2.5.7 2.5 1 2.3 1.3 4.5 2.7 4.2 3.3 4 3.5 3.8 4.2 3.2 4.5 3 5 2.5 5.3 2.3 5.7 1.7 6 1.3 6 .7 6.5z" fill="#ffeec8"/><path d="m523 319.3v2.5l-.2 2.5-.5 2.5-.8 2.2-.7 2.5-1 2.3-1.3 2.2-1.5 2.3-1.5 2-1.7 2.2-3.8 4-4.2 3.8-4.5 3.5-5 3.2-5.3 3.3-5.2 2.7-5.5 2.5-5.3 2.5-5.5 2-5 1.8-5 1.7-5.7 1.8-6.3 2.2-6.5 2.3-6.5 2-6.7 1.7-3.5.8-3.3.5-3.2.2h-3.3l-3.2-.2-3.3-.5-2.7-.8-2.5-1-2.8-1.5-2.2-2-1.8-2-1.5-2.5-1.5-2.7-1.2-3.3-3-7.2-3.3-7-3.5-6.3-3.2-6.2-3.8-5.8-3.5-5.7-4-5.3-3.7-5.2-4.3-5-4.2-4.8-4.3-4.7-4.7-4.5-4.8-4.8-10-9.2-10.7-9.5h1.2l.5-.3-2.5-3.5-2.5-4.2-2.5-4.8-2.5-5.2-2.5-5.5-2.5-6-4.7-12.5-4.5-13-3.5-12.5-1.5-6-1.5-5.5-1-5.5-.8-4.8 3.3-2 3.5-1.2 1.7-.5 1.5-.3h3.5l.3-.5 2.5.8 2.7.5 3 .2h5.8l2.7-.2 3-.5 2.8-.8 2.7-1 2.8-1 2.7-1.2 2.5-1.5 2.5-1.5 2.5-1.8 2.3-2 2.2-2 2.3-2.2 2-2.5 1.7-2.3 2-2.7.8.5 9.2-3.8 9-3.2 8.8-2.8 8.5-2.2 8.5-1.8 8.5-1.2 8.7-.5h8.5v1.7l.3 2.5.5 6.5.7 4.5.8 5 1.2 5.5 1.5 6 2.3 6 2.5 6 3 6.3 1.7 3 2 2.7 2 2.8 2.3 2.7 2.2 2.8 2.8 2.2 2.7 2.3 3 2.2 3 2 3.5 1.5 4.5 2 4.8 1.5 5.2 1 5.5.5.5-.2 6 13 6 11.7 11.3 21.5 5 10.5 2.5 5 2 5.3 2 5 1.5 5.5 1.5 5.2 1.2 5.8.5 2.5z" fill="#a9d7f3"/><path d="m578.5 264.8-3.2 1.5-1.5.5-1.8.2-1.5.3-1.7-.3-1.8-.5-1.7-.5-3.8-1.7-3.5-2.5-3.5-2.5-3.2-2.5-3.3-2.3-2.5-1.7-14-9-12.2-8-11-7-5-3-4.8-2.8-4.7-2-4.3-1.7-4.5-1.3-4.2-.7-2.3-.3h-2l-2.2.3-2.3.2-2 .5-2.2.8-2.3.7-2.2 1-.3.5-3.5-1.5-3-2-3-2.2-2.7-2.3-2.8-2.2-2.2-2.8-2.3-2.7-2-2.8-2-2.7-1.7-3-3-6.3-2.5-6-2.3-6-1.5-6-1.2-5.5-.8-5-.7-4.5-.5-6.5-.3-2.5v-1.7l8.8.5 8.7 1 9.3 1.5 9.5 2.2 9.7 2.8 10.3 3.2 11 4 11.2 4.5 10.5 4.5 9.8 4.5 9 4.8 8.5 4.5 7.7 5 7.5 4.7 6.8 5 6.2 5.3 5.8 5.2 5.5 5.3 5 5.5 5 5.7 4.5 5.8 4.2 6 4.3 6 4 6.2-4.8 1.3-4.5 1.5-4 2-3.7 2-6.5 4-2.8 2z" fill="#a9d7f3"/><g fill="none" stroke="#231f20" stroke-linecap="round" stroke-miterlimit="10"><path d="m303.8 183.5-4.5-1.2-4-2-4-2.3-3.8-2.5-3.5-3-3.2-3.5-3.3-3.7-2.7-4-2.8-4.3-2.2-4.5-2-4.7-1.5-5.3-1.5-5.2-.8-5.3-.7-5.7-.3-5.8.5-6.5.8-6.5 1.2-6 1.8-6 2-5.7 2.7-5.3 3-5 3.3-4.5 3.7-4.2 3.8-3.5 4.2-3.3 4.8-2.7 2.2-1.3 2.3-1 2.5-.7 2.5-.8 2.5-.7 2.7-.3 2.5-.2 2.8-.3 2.5.3 2.7.2 2.5.3 2.5.7 2.5.8 2.5.7 2.5 1 2.3 1.3 4.5 2.7 4.2 3.3 4 3.5 3.8 4.2 3.2 4.5 3 5 2.5 5.3 2.3 5.7 1.7 6 1.3 6 .7 6.5.3 6.5-.3 6-.5 5.5-1 5.5-1.2 5.3-1.8 5.2-2 4.8-2.5 4.7-2.5 4.3-2 2.7-1.7 2.3-2 2.5-2.3 2.2-2.2 2-2.3 2-2.5 1.8-2.5 1.5-2.5 1.5-2.7 1.2-2.8 1-2.7 1-2.8.8-3 .5-2.7.2h-5.8l-3-.2-2.7-.5zm-.3.5h-3.5l-1.5.3-1.7.5-3.5 1.2-3.3 2-3.2 2.5-3.3 2.8-3 3.2-3 3.5-2.7 4-3 4-2.5 4-2.8 4.3-4.7 8.5-4 8-6.3 12.7-2.7 6.3-2 5.5-1.8 5-1 2.2-1.2 2-1.3 1.8-1.2 1.2-1.5 1-2 .8-2 .5h-2.5l-2.8-.5-3.2-.8-1.3-.5m-25.2 24.5 1.7 3 5 8.5 5 8 2.5 3.8 2.8 3.5 2.7 3 2.8 2.7 3.2 2.3 3.3 1.7 1.7.5 1.8.8 1.7.2 2 .3 2 .2h2l2-.2 2.3-.5 2.2-.5 2.5-.8 5-2.2 2.5-1.3 2.5-1.5 2.3-1.7 2-1.5 4-3.8 3.2-4 3.3-4.2 3-4.3 5.7-8.5 3-4 3.5-4 3.8-3.5 2-1.5 2-1.5 2.5-1.2 2.5-1.3 2.5-1 3-1 3-.7 3.2-.5 3.5-.3 3.8-.2h1.2" stroke-width="14"/><path d="m316 273.3 4.8 4 10.7 9.5 10 9.2 4.8 4.8 4.7 4.5 4.3 4.7 4.2 4.8 4.3 5 3.7 5.2 4 5.3 3.5 5.7 3.8 5.8 3.2 6.2 3.5 6.3 3.3 7 3 7.2 1.2 3.3 1.5 2.7 1.5 2.5 1.8 2 2.2 2 2.8 1.5 2.5 1 2.7.8 3.3.5 3.2.2h3.3l3.2-.2 3.3-.5 3.5-.8 6.7-1.7 6.5-2 6.5-2.3 6.3-2.2 5.7-1.8 5-1.7 5-1.8 5.5-2 5.3-2.5 5.5-2.5 5.2-2.7 5.3-3.3 5-3.2 4.5-3.5 4.2-3.8 3.8-4 1.7-2.2 1.5-2 1.5-2.3 1.3-2.2 1-2.3.7-2.5.8-2.2.5-2.5.2-2.5v-5l-.5-2.5-1.2-5.8-1.5-5.2-1.5-5.5-2-5-2-5.3-2.5-5-5-10.5-11.3-21.5-6-11.7-6-13-1.5-3.5" stroke-width="14"/><path d="m355.3 162.3 9.2-3.8 9-3.2 8.8-2.8 8.5-2.2 8.5-1.8 8.5-1.2 8.7-.5h8.5l8.8.5 8.7 1 9.3 1.5 9.5 2.2 9.7 2.8 10.3 3.2 11 4 11.2 4.5 10.5 4.5 9.8 4.5 9 4.8 8.5 4.5 7.7 5 7.5 4.7 6.8 5 6.2 5.3 5.8 5.2 5.5 5.3 5 5.5 5 5.7 4.5 5.8 4.2 6 4.3 6 4 6.2-4.8 1.3-4.5 1.5-4 2-3.7 2-6.5 4-2.8 2-3 1.5-3.2 1.5-1.5.5-1.8.2-1.5.3-1.7-.3-1.8-.5-1.7-.5-3.8-1.7-3.5-2.5-3.5-2.5-3.2-2.5-3.3-2.3-2.5-1.7-14-9-12.2-8-11-7-5-3-4.8-2.8-4.7-2-4.3-1.7-4.5-1.3-4.2-.7-2.3-.3h-2l-2.2.3-2.3.2-2 .5-2.2.8-2.3.7-2.2 1" stroke-width="14"/><path d="m538 342.8-3.5-6-3.7-5.8-7.8-11.7v-.3" stroke-width="16.5"/><path d="m455 495.8 2.5-1 2.5-1.3 2.3-1.2 2.2-1.8 2.3-1.7 3.2-3.5 9.5-10 12.3-13.5 13.2-15.5 13.5-15.8 11.8-14.7 5-6.3 4-5.7 3-4.5 2-3.3 1.5-4 1.2-3.7 1-3.8.5-3.5.3-5-.3-5-.7-5-1.3-4.7-1.5-4.8-2-4.5-2.2-4.7-2.8-4.5m-168.5 91.5-8.7 8-8.8 8.7-10.5 10.5-10.7 11.3-5 5.7-4.5 5.5-4.3 5-3.5 5-2.5 4.3-1 1.7-.5 1.8-1 4-.7 5-1 6-.5 6.7-1.3 15.8-.7 17.2-.5 17.8v32l.2 11.7.3 9.8v9.5l-.3 17-.5 12.2-.2 4.5v6l-.3 2.8-.5 2.5-.5 2.2-.7 2.3-1 2-1 1.7-1.3 1.8-1.5 1.7-1.2 1.5-1.5 1.3-3.5 2.2-3.8 2-3.7 1.5-4 1.3-4.3 1-4.2.7-4.3.5-4 .5-13.5.8-3.7.5-3.3.7-2.7 1.3-2.5 1.5-2 1.5-1.8 2-1.2 2-1 2.2-.5 1.8-.3 2-.2 1.7.2 2 .3 2 .5 1.8.7 1.7.8 1.8 1.2 1.7 1 1.5 1.5 1.5 1.5 1.3 1.8 1.2 1.7 1 2 .8 2 .5 3.3.2 3.2-.2h4.5l6.8.5 8.7.7 9.5 1.3 20.8 2.2 10 1 9 .8h5.2l4.5-.3 3.3-.5 1.2-.5 1-.5 2.8-2.2 2.2-2.3 1.5-2.5 1.3-2.5.7-2.7.5-3 .3-3v-3.3l-.8-7.5-.7-8.5-1-9.7-.3-5.5v-5.8l.3-3.2.5-6 1-5.8 1.2-6 1.5-6 2-6.2 2-6.3 4.3-12.7 4.7-13.5 2.3-7.3 2.2-7.2 2-7.8 1.8-7.7 1.5-8.3 1.2-8.5.3-3v-3.2l-.5-7-.5-7-.5-7-.3-3.3.3-3.5.5-3 .5-3 1.2-3 1.5-2.5 1.8-2.2 2.5-2 5.2-3.3 5.5-3.2 6-2.8 6.3-2.7 12.5-5 6-2.5 5.7-2.8 3.5-1.5 3.3-1 7-2 6.5-1.5 6.5-2 3.7-1.2m-165.2-309 .2 1.2.8 4.8 1 5.5 1.5 5.5 1.5 6 3.5 12.5 4.5 13 4.7 12.5 2.5 6 2.5 5.5 2.5 5.2 2.5 4.8 2.5 4.2 2.5 3.5 2.8 3.3 1.2 1.2 1.3 1" stroke-width="14"/><path d="m196.5 235.3-2.5-.8h-3.7l-2.3.8-2.2.7-1.8.8-1.2.7-.5.8v.2l.2.3 3 1.5 2 1.2 2 1.5 1.5 1.3 1.8 1.7 1.2 1.5 1 2 .8 1.5.2 1.5-.2 1.8-.5 1.5-1 2.2-1.5 1.3-1.3.7-1.5.5-1.5-.2-1.2-.3-1-.5-.8-.5h-.2m20-20.2-4-1.8-4.5-1.5m28 28.8-1.5-2.8-1-2.5-1.8-5-1-2.2-1.2-2.3-1.3-2.2-2-2-.7-.8-2-1.5-3-2-4-2.2" stroke-width="7"/><path d="m182.8 239-.3-.2-1-.3-1.5-.2h-2l-1 .5-1.2.7-2 2-1.8 2-.7 1-.3.8-.2 1 .5.7.5.8 1 .5 1.5 1 1.5 1 3 2.7 2.5 2.8 1.5 1.2 1.5 1 1.2 1 .8 1.3.7 1 .5 1.2.3 1.3-.3 1.2-.5 1-1.2 1-1.5 1-1.5.5-1.5.3-1.3.2h-1.2l-1-.2-1-.5-2-1.3-1.8-1.5-1.7-1.7-4.5-4" stroke-width="7"/><path d="m171.8 247.5-.5-.5-1.3-.2-1.2-.3h-1.5l-.8.3-.7.5-1 .7-.8 1-1.5 2-1 2-.5 1.8m49.5 45.5-5-1.5-4-1.3-10-3-7.2-2-5.3-1.7-2.2-1-2.5-1-2.3-1.5-2-1.5-2-1.8-1.7-1.7-3.5-4-3-4-2-3-2.5-3.8-1-2-.5-1.7-.3-1.3v-1.2l.5-1.5.8-1.3 1-1.2 1-.8 1.2-.7 1.5-.3 1 .3h1l1.5 1 1.5 1.2 2.3 1.8 2 1.5 2.7 1.5" stroke-width="7"/><path d="m170.3 261.8 1.5 1.2 1.2 1.3 1 1.5.8 1.2.2 1.3.3 1.2v1.3l-.3 1-.5 1.2-.7.8-.8 1-1 .7-1 .5-1 .3-2 .2-2-.5-2.2-.7-1.8-1-1.7-1-1.5-1-1-1m450-20.8 9.7 8.3 2.8 2.2 2.2 2.5 2 2.3 1.5 2 1.5 4.7 3 10.3 1.5 6 1.5 6.2.8 6 .2 2.5.3 2.5-.5 2.3-.8 2.5-1 2.5-1 2-1 1.2h-.2l-.3-.2-.2-4-.8-4.3-1.7-7.2-.5-1.8-1-2.2-2.5-4.8-3.3-6" stroke-width="7"/><path d="m631.5 313.8v2.5l-.5 1-.7 1-1.3 1-2 1.2-2 1-1 .5h-1l-.7-.2-.5-.5-.5-.8-.3-.7-.7-3.3-.8-3.5-1.5-4.2-2.7-5.8-7.3-14.2" stroke-width="7"/><path d="m621.5 320.8.3.5v2.2l-.5 1.3-.5.5-.5.7-2 1-2 .8-2 .2h-1.5m-34.5-65.5.2 2.3.3 4.7.2 3.8-.2 6.7v5.8l.2 2.7.3 2.8.5 1.2.5 1.5 1.7 2.8 2.3 3 2.7 3 3.3 3 3 3.5 3.7 4.7 2.3 3 1.7 2.8 2.8 4.7 1.7 3.3.8 1.2.7.5.8.5 1 .3h.7l.8-.3.7-.2.5-.5.5-.5.3-.8v-1.7l-.5-2.5-.5-2.5-1.5-4-3.3-6.5-1.2-3-2-4-1.5-2.3-1.8-3-2.5-3.2-3-3.8" stroke-width="7"/><path d="m205 296h2.5l2.3-.5 2-1 2-1 1.7-1.2 1.8-1.3 1.7-1.7 1.5-1.8 1.3-1.7 1.2-2 1-2.3.8-2 .7-2.2.5-2.3.3-2.2v-2.3l-.5-3.2-.3-1.5-.5-1.8-.7-1" stroke-width="14"/><path d="m580.5 296.5.5.8 1.8 3 1.7 3.2 1 3.3 1 3.2.5 3.5.3 3.5v3.5l-.5 3.5 1 .3.7.2h1l1-.2.8-.5.7-.5 1.5-1.3 1.3-2 1-2 .7-2 .5-2 .3-.7m-392-74.5-1.5-1-2-.8-2.5-1-2.5-.5-.3-.2-3-.3h-3.5l-.7.5-.5.5-.3.8.3 3.2.7 3 .5 1.5 1 1.5 1 1.3 1.3 1.2 1 .5.7.5 1.8.3 1.5.2h3l1.2.3 1 .2.8.8.2 1.2v4.8l.5 3.7 1 3.3 1 2.2 1.3 2 1.2 1.8 3.3 3" stroke-width="7"/><path d="m456.8 497.3-1.8-1.5-11.5-8.8-72-55.7-.5-.3 3.8-5.5 9-12.7 10.5-16 4.7-7.8 3.8-6.5.2-.5m22-233.5.3 2.5.5 6.5.7 4.5.8 5 1.2 5.5 1.5 6 2.3 6 2.5 6 3 6.3 1.7 3 2 2.7 2 2.8 2.3 2.7 2.2 2.8 2.8 2.2 2.7 2.3 3 2.2 3 2 3.5 1.5 4.5 2 4.8 1.5 5.2 1 5.5.5m-179.2 456.5 38.5 3.8h1m188-179.3-1.3 2-14.7 25.3-1.5 2.5-1.3 2.7-1 3-.7 3-.3 1.5.3 1.3.2 1 .8 1 1.2.5 1.3.2 3.7.3 4 .7 4.3 1 4.2 1.3 4.3 1.5 4.7 2.2 4.5 2.5 4.5 3 4.8 3.3 4.5 4 4.5 4.5 4.2 4.7 4.3 5.8 4 6 3.7 6.7 3.5 7.3 2.8 4.5 3 4.5 4 5.7 4.7 6.3 5.5 6.5 2.8 3 3 2.7 2.7 2.8 3 2.5 2 1.2m-164-148.2-14.2 32.7-2.3 5.3-.7 2.5-.8 2.2-.5 2.5-.2 2.3v4.2l.2 2 .3 2 .7 2 .5 1.8 1 2 1 1.7 2.5 3.5 3 3.3 3.8 3 4 3 4.7 3 5.3 2.7 5.5 2.8 6.2 2.7 6.5 2.8 4.5 1.7 4.3 2.3 4.5 2.2 4.5 2.3 8.7 5.2 8.8 5.8 8.5 6 8.2 6.5 7.8 6.2 7.2 6.3 7 6 6.3 5.7 10.2 10 6.8 7 3 3" stroke-width="14"/><path d="m548.8 378-.3 3-10.7 129.3-7.8-1.3-78.5-11.7-.2-.3-7.8-10-.5-1" stroke-width="14"/><path d="m341.3 775.8-23.5-2.5-65.3-7.3-3-.2-7.5-1-5-1-5.2-1.3-5.3-1.5-5.2-2.2-2.3-1.3-2.2-1.2-2.3-1.5-1.7-1.5-1.8-1.8-1.2-2-1.3-2-.5-2.2" stroke-width="21"/><path d="m244.5 743.3-2.5 21.5-.5 2.7m78.8-16.7-2.5 22.5-.3 1.7" stroke-width="19.75"/><path d="m577 662.5 1 1 3 2.5 2.3 2.8 2 2.7 1.5 3 1 2 .7 2.3.5 2 .3 2.2.2 2v2.3l-.2 4.2-.8 4.3-1 4.2-1.5 4.3-2 4-2 3.7-2 3.8-2.2 3.7-2.5 3.3-4.3 5.7-3.5 4.8-2.2 3-1.8 3-1 3-.7 2.7v2.8l.2 2.5.5 2.2 1 2.3 1 1.5 1 1.5 1.5 1.5 1.5 1.2 1.5 1 1.8 1 1.7.5 2 .8 2 .2 1.8.3h2l2-.3 2-.5 2-.7 1.7-.8 2-1.2 2.3-2 2.2-2.8 1.3-1.5 1.7-2 5.3-4.7 6.7-5.8 7.8-6.7 16.5-14 8-7 6.7-6.3 3.5-3.7 3-3.5 1.8-2.8.5-1.2.5-1v-3.5l-.3-3.3-.5-2.7-1-2.8-1.5-2.5-1.7-2.2-2.3-2.3-2.5-2.2-5.7-4.5-6.8-5.3-7.7-6-4.3-3.5-4.2-4-2.5-2.2-2-1.8-2.3-2.7-.5-1" stroke-width="14"/><path d="m589 674.3 28.8-25.5 1-.8" stroke-width="14"/><path d="m682.8 710.5-18 15.5-51.8 44.5-2.2 2-5.8 4.8-4 3-4.5 3-5 2.7-5 2.3-2.5 1-2.5.7-2.5.5-2.5.3h-2.5l-2.2-.3-2.3-.5-2-1.2" stroke-width="21"/><path d="m591 760.8 14 16.5 1.8 2.2m43.5-70.7 14.5 17.2 1.2 1.3" stroke-width="19.75"/></g></svg>