<svg height="850" viewBox="0 0 850 850" width="850" xmlns="http://www.w3.org/2000/svg"><path d="m189 312.5 2 5.3-.7-.8-2.5-1.5-1.8-1-2-1-2.2-.7-2.5-.5-2.8-.3h-3l-3 .5-3 1.3-1.5.7-1.5 1-1.5 1.3-1.7 1.5-1.5 1.5-1.5 1.7-1.5 2-1.5 2.3-1.5 3-1.5 3.2-1.3 3.3-1.2 3.7-1 3.8-.8 4-.7 4.2-.5 4.5-1.8-.2-.7-2-2-5-2.3-7.3-1-4.2-1-4.5-.7-4.8-.5-4.7v-4.5l.5-4.5.2-2.3.5-2 .8-2 .7-1.7 1.3-1.8 1-1.7 1.5-1.5 1.7-1.3 3-2 3.3-1.5 3.2-1 3-.7 3.3-.5h3l3 .5 2.7.7 2.8.8 2.5 1.2 2.5 1.5 2.5 1.8 2 2 2 2.2 1.7 2.3 1.8 2.5z" fill="#c8c8c8"/><path d="m190.8 376.8.2 4.2v8l-.5 3.8-.2 3.7-.8 3.5-.7 3.3-1 3-1 2.7-1.3 2.3-1.2 2.2-1.5 2-1.5 1.5-1.8 1-1.7.8-1.8.5h-2l-1.7-.5-1.8-1-2-1-1.7-1.8-1.5-1.7-1.8-2.3-1.5-2.5-1.5-3-1.2-3-1.3-3.2-1-3.5-1-3.8-.7-3.7-.8-4-.5-4.3-.2-4.2v-8l.5-3.8.2-3.5.8-3.5.7-3.2 1-3 1-2.8 1.3-2.5 1.2-2.2 1.5-1.8 1.5-1.5 1.8-1.2 1.7-.8 1.8-.2h2l1.7.5 1.8.7 2 1.3 1.7 1.5 1.5 2 1.8 2.2 1.5 2.5 1.5 2.8 1.2 3 1.3 3.2 1 3.5 1 3.8.7 4 .8 4z" fill="#c8c8c8"/><path d="m146 362.5.8-7 .5-4.5.8-4.3.8-4 1-3.8 1.3-3.8 1.3-3.3 1.5-3.3 1.5-3 1.5-2.3 1.5-2 1.5-1.8 1.5-1.5 1.8-1.5 1.5-1.3 1.5-1 1.5-.8 3-1.3 3-.5h3l2.8.3 2.5.5 2.3.8 2 1 1.8 1 2.5 1.5.8.8 6.8 16.8 3.8 9.8 4 9.3 4 8.5 2 3.8 2 3.5 1.8 2.8 2 2 1.8 1.5.8.5 1 .3 10 1.3 2.5.3.8 5 .3 4.5-.3 4.5v6.5l-.5 5.8-.8 5.3-1 4.8-1.3 4.3-2.2 3.5-1.3 3.5-1.5 3-1.5 2.5-1.5 2.3-2.5 3.3-1.8 1.8-.8.8-2.3 1.8-2.5 1.8-2.8 1.5-3 1.3-3.3 1-3.2.4-3.5.5h-3.8l-4-.3-3.8-.8-4-1-4-1.5-3.8-1.8-4-2.5-3.8-2.8-3.5-3.3-2.3-2.5-2.3-3-1.8-3.3-2-3.8-1.5-4-1.5-4.3-1.3-4.5-1.3-4.8-1-4.8-.8-5.3-.8-5-.5-5.3-.3-5.3-.3-5.3v-5.3zm30 56.8 1.8-.5 1.8-.8 1.8-1 1.5-1.5 1.5-2 1.3-2.3 1.3-2.3 1-2.8 1-3 .8-3.3.8-3.5.3-3.8.5-3.8v-8l-.3-4.3-.5-4-.8-4-.8-4-1-3.8-1-3.5-1.3-3.3-1.3-3-1.5-2.8-1.5-2.5-1.8-2.3-1.5-2-1.8-1.5-2-1.3-1.8-.8-1.8-.5h-2l-1.7.9-1.8.8-1.8 1.3-1.5 1.5-1.5 1.8-1.3 2.3-1.1 2.3-1 2.8-1 3-.8 3.3-.8 3.5-.3 3.5-.5 3.8v8l.3 4.3.5 4.3.8 4 .8 3.8 1 3.8 1 3.5 1.3 3.3 1.3 3 1.5 3 1.5 2.5 1.8 2.3 1.5 1.8 1.8 1.8 2 1 1.8 1 1.8.5h1.7zm311.8-67.8.7 2.8.5 3 .5 3v7l-.7 4-1 3.7-1.5 3.8-1.8 3.2-2 3.3-2.2 3.2-2.8 2.8-3 2.5-3.2 2.2-3.3 2-3.7 1.8-3.8 1.2-4 1-4 .5-4.2.3-4.3-.3-4-.5-4-1-3.7-1.2-3.5-1.8-3.5-2-3.3-2.2-2.7-2.5-2.8-2.8-2.2-3-2.3-3.2-1.7-3.3-1.3-3.7-1.2-3.8-.5-3.7-.3-4 24.8-3 21.7-3 18.3-2.8 6.5-1.2 4.5-1z" fill="#7a7878"/><path d="m407 363.8-30.7 3.5-30.5 3.5-.5-4v-30.5l108.2-11.5v33l-21.7 3z" fill="#fbee34"/><path d="m284.3 311.8.2 3.5-18.5 1-18.5 1-6.2.5h-16.5l.2-3.5-.2-1.8v-4.5l.2-6.5.3-3.7.7-3.8 1-3.7 1-4 1.8-3.5 2-3.3 1.2-1.5 1.3-1.2 1.5-1.3 1.5-1 1.7-1 2-.5 2-.5 2-.5 8.8-.5h4l3.7.3 3.5.5 3 .5 3 1 2.8 1.2 2.2 1.8 2.3 2 1.7 2.5 1.5 3 1.3 3.2.7 4 .5 4.3.3 5zm247.5-64.8.5 5.8.2 6.5v7l-.2 7.2-.8 1-.7 1.3-1.3 1.2-1.2 1.3-3.3 2.2-4 2-4.7 2.3-5.3 2-6 2-6.5 1.7-6.7 2-7.5 1.5-15.5 3.3-16.5 3-16.8 2.5-.5-4 15.5-2.5 7-1.5 6.5-1.3 5.5-1.5 4.8-1.7 3.7-1.5 1.3-1 1-.8 2-2.2 1.7-2.3 1.5-2.2 1.3-2.5 1-2.5.7-2.3.8-2.5.2-2.7.8-5v-14.8l1.5-1.7 2-1.8 2.5-1.5 2.5-1.5 2.7-1 3-1 3.3-1 3-.5 3.2-.5h5.8l2.7.5 2.5.5 2.3 1 1.7 1.3 1.3 1.5 1 2.5z" fill="#ed1d31"/><path d="m233.3 377.8-2.5-.3-10-1.2-1-.3-.8-.5-1.7-1.5-2-2-1.8-2.7-2-3.5-2-3.8-4-8.5-4-9.2-3.7-9.8-6.8-16.7-2-5.3-1.7-3.2 2 1.2 2.7 1.3 3.8 1.2 5 1.5 6.5 1.5 8 1 4.5.5 5 .3h16.5l6.2-.5 18.5-1 18.5-1 24-1.3 20.3-.7 18.7-.5 7.5-.8 19.8-1.7 28.2-3 16-2 16.5-2.5 16.8-2.5 16.5-3 15.5-3.3 7.5-1.5 6.7-2 6.5-1.7 6-2 5.3-2 4.7-2.3 4-2 3.3-2.2 1.2-1.3 1.3-1.2.7-1.3.8-1-.5 8.5-1 8.8-1 8.5-1.3 8.2-1.2 7.5-1.5 6.5-1.5 5.5-1.8 4.3-2 4.2-1 1.8-1.2 1.5-1.3 1.5-1.2 1.2-1.5 1-1.8 1-4 1.8-5.5 1.7-15.2 4.5-5 1.3-4.5 1-6.5 1.2-18.3 2.8v-33l-108.2 11.5v30.5l.5 4-47.8 5-19.7 2-2.8.5-3.5.2-4.7.5h-14l-9.3-.5z" fill="#7a7878"/><path d="m182.3 132-.3 19.8-.2 14.5-.5 15.5-1 15-.5 6.5-.8 6-.7 5-1 3.7-.5 1.5-.8 1-.5.8h-.7l-15.5-.5-26.8-1.8-36.7-2.2 1.5-5.8 4.5-14 2.7-8.5 3-8.7 3-8 3.3-7.3 8.7-18.2 5.5-10.5 2.5-5 .8-1.3 8-1.5 8.2-1.2 9.3-1 4.7-.3h8.8l4 .5 3.2 1 1.3.5 1.2.8 1 .7.5 1 .5 1zm301.2 89.8 1.5 1.5 1.3 1.7 1 1.8.7 2 .8 2.2.5 2.5.5 2.5.2 3-6.7 1.8-9.5 2-12.3 2.2-15.5 2.5-20 3-24.5 2.8-12.7 1.2-14 .8-16.8.5-17 .2h-31.7l-23.8-.5-9.7-.2-1.5-1.5-1.5-1.3-2-1.2-1.8-1.3-8.5-4.7-4.2-2.8-4.3-3-4.2-3.2-4-3.5-4-3.8-4-4-3.8-4.2-3.2-4.8-3.3-5-3-5.5-2.5-5.7-2.2-6.3-1.8-6.5-1.5-7.2-2-13.3-1.2-11.2-.8-8.8-.5-6.7v-8.3l.3-2.5 14.2-.5 35-1.2 45.3-1.3 22.5-.5h27.5l6.5.5 7.7.8 8.5 1 4 1 3.8.7 3.7 1.3 3 1.2 2.8 1.5 2.2 1.5z" fill="#fff"/><path d="m490.3 248v14.8l-.8 5-.2 2.7-.8 2.5-.7 2.3-1 2.5-1.3 2.5-1.5 2.2-1.7 2.3-2 2.2-1 .8-1.3 1-3.7 1.5-4.8 1.7-5.5 1.5-6.5 1.3-7 1.5-15.5 2.5-13 1.7-13 1.5-23.7 2.5-17.5 1.5-6.8.5-8.7 1-9.3.5-10.7.5h-11.3l-5.5-.2-5-.5-4.7-1-4.3-1-1.7-.5-1.5-.8-1.3-1-1.2-.7-1.5-2-1.3-2.3-1.2-2.5-1-2.7-1.5-6-1.5-6.5-1.8-6.8-1.2-3.5-1.3-3.2-1.5-3.3-1.7-3-2-3-2.5-2.7 9.7.2 23.8.5h31.7l17-.2 16.8-.5v.2l2.2 1 2 1.5 3.5 3 1.8 1.3 2 1.5 2 1 2.5.5 3.2.5 3.3.2h3.2l3.3-.2 6.5-.8 6.5-.5 4-.5 4.2-.5 4.3-1 1.7-.7 1.8-1 1.5-1 1.7-1.8 3.3-4.2 1.5-2 1.7-1.8 1.8-1.5.7-.5 1-.5 15.5-2.5 12.3-2.2 9.5-2 6.7-1.8.3 7.5z" fill="#a9d7f3"/><path d="m490 239-.3-3-.5-2.5-.5-2.5-.8-2.3-.8-2-1-1.8-1.3-1.8-1.5-1.5-86.3-86.6-2.3-1.5-2.7-1.5-3-1.3-3.8-1.3-3.8-.8-4-1-8.5-1-7.8-.8-6.5-.5h-27.6l-22.5.5-45.3 1.3-35 1.2-14.3.5-.3 2.5v8.3l.5 6.8.8 8.8 1.3 11.3 2 13.3 1.5 7.3 1.8 6.5 2.3 6.3 2.5 5.8 3 5.5 3.3 5 3.3 4.8 3.8 4.3 4 4 4 3.8 4 3.5 4.3 3.3 4.3 3 4.3 2.8 8.5 4.8 1.8 1.3 2 1.3 1.5 1.3 1.5 1.5 2.5 2.8 2 3 1.8 3 1.5 3.3 1.3 3.3 1.3 3.5 1.8 6.8 1.5 6.5 1.5 6 1 2.8 1.3 2.5 1.3 2.3 1.5 2 1.3.8 1.3 1 1.5.8 1.8.5 4.3 1 4.8 1 5 .5 5.5.3h11.3l10-1.6 9.3-.5 8.8-1 6.8-.5 17.5-1.5 23.6-2.5 13-1.5 13-1.8.5 4-16.5 2.5-16 2-28.3 3-19.7 1.8-7.5.8-18.8.5-20.3.8-24 1.3-.3-3.5v-11l-.3-5-.5-4.3-.8-4-1.3-3.3-1.5-3-1.8-2.5-2.3-2-2.3-1.8-2.8-1.3-3-1-3-.5-3.5-.5-3.8-.3h-4l-8.2.6-2 .5-2 .5-2 .5-1.8 1-1.5 1-1.5 1.3-1.2 1.2-1.3 1.5-2 3.3-1.8 3.5-1 4-1 3.8-.8 3.8-.3 3.8-.3 6.5v4.5l.3 1.8-.3 3.5-5-.3-4.5-.5-8-1-6.5-1.5-5-1.5-3.8-1.3-2.8-1.3-2-1.3-1.8-2.5-1.8-2.3-2-2.3-2-2-2.5-1.8-2.5-1.5-2.5-1.3-2.8-.8-2.8-.8-3-.5h-3l-3.3.5-3 .8-3.3 1-3.3 1.5-3 2-1.8 1.3-1.5 1.5-1 1.8-1.3 1.8-.8 1.8-.8 2-.5 2-.3 2.3-.5 4.5v4.5l.5 4.8.8 4.8 1 4.5 1 4.3 2.3 7.3 2 5 .8 2 1.8.3-.8 7-72.2-21.8-1-233.5 12.5-.5 32-1.5 20.8-.8 22.8-.5 23.5-.5 23.3-.3 97-2 47 .5 38.3 1.8 3.3 1 3 1 2.8 1 2.8 1.5 2.8 1.3 2.5 1.5 4.5 3.5 4 3.3 3.5 3.5 6 6 17.8 16.7 15.5 15 17.8 17.3 9 9.3 9 9.3 8.5 9.3 7.8 9 7.2 8.5 6 7.8 2.5 3.8 2.3 3.3 1.8 3.3 1.3 2.8-1.3-1.5-1.8-1.3-2.3-1-2.5-.5-2.8-.5h-6.2l-3.2.5-3 .5-3.3 1-3 1-2.8 1-2.5 1.5-2.5 1.5-2 1.8-1.5 1.8v-1.5zm-315.2-17.7h.8l.5-.8.8-1 .5-1.5 1-3.8.8-5 .8-6 .5-6.5 1-15 .5-15.5.3-14.5.3-19.8-.3-1-.5-1-.5-1-1-.8-1.3-.7-1.3-.5-3.3-1-4-.5h-8.9l-4.8.3-9.3 1-8.3 1.2-8 1.5-.8 1.3-2.5 5-5.5 10.5-8.8 18.3-3.3 7.3-3 8-3 8.8-2.8 8.5-4.5 14-1.5 5.8 36.8 2.3 26.8 1.8z" fill="#a9d7f3"/><g fill="none" stroke="#231f20" stroke-linecap="round" stroke-miterlimit="10" stroke-width="21"><path d="m450.8 748 12.2-1.5 11.3-2 10.5-2.2 9.5-2.5 8.7-2.5 8-2.8 7.3-3 6.5-3 6-3 5.5-3 5-3 4.5-3.2 4-3 3.7-3 6.5-5.5 3.3-2.8 3-3 2.7-3 2.8-3 2.7-3.2 2.3-3.3 2.2-3 2-3.2 2-3.3 1.5-3.2 1.8-3.5 1.2-3.3 1.3-3.2 1-3.5 1-3.3.7-3.5.5-3.5.3-3.2.2-3.5v-6.8l-.2-3.2-.5-3.5-.8-3.3-.7-3.5-1-3.2-1-3.3-1.5-3.2-1.5-3.3-1.5-3-1.8-3.2-2-3-2.2-3-2.3-3-2.5-3-2.7-2.8-2.8-2.7-3-2.8-3.2-2.7-3.3-2.5-3.5-2.5-3.7-2.5-3.8-2.3-4-2.2-4.2-2.3-4.3-2-4.7-2-4.5-2-5-1.7-5-1.8-5.3-1.5-5.2-1.5-5.8-1.2-5.7-1.3-5.8-1-6-1-6.2-.7-6.5-.8-6.5-.5-6.8-.5-7-.2h-14.5l-7.2.2-18.3.8-18 .5-9 .2-8.5-.2-8.7-.3-8.3-.5-8.2-1-7.8-1.5-7.7-1.7-3.8-1.3-3.5-1.2-3.5-1.5-3.5-1.5-3.2-1.8-3.3-2-3-2-3-2.2-2.7-2.5-2.8-2.8-2.7-2.7-2.3-2.8-2-3-1.5-3-1.5-2.7-1.2-3.3-1-3-.8-3-.5-3-.2-3-.3-2.7.3-3 .2-2.8.5-2.7.8-2.8.7-2.5m450.3 227.8 3.7-3.8 3.8-3.7 3.5-3.8 3.2-4 3.3-3.7 3-4.3 2.5-4 2.5-4.2 2.5-4 2-4.3 2-4.5 1.5-4.2 1.5-4.3 1.5-4.5 1-4.2.7-4.5.8-4.5.5-4.5.2-4.3v-9l-.5-4.5-.5-4.2-.7-4.5-1-4.3-1.3-4.5-1.2-4.2-1.8-4.3-1.7-4.2-2-4.3-2.3-4-2.2-4.2-2.8-4-2.7-3.8-3.3-4-3.2-3.7-3.5-3.8-3.5-3.7-4-3.5-4-3.5-4.5-3.3-4.5-3.2-4.8-3-5-3.3-5-2.7-5.5-2.8-5.5-2.7-6-2.5-6-2.5-6.2-2.3-6.3-2-6.7-2-7-1.7-7-1.5-7.3-1.5-7.7-1.3-7.8-1.2-7.7-1-8.3-.8-8.5-.5-8.5-.5h-18l-9.2.3-11.5.2-11.3-.2-11-.8-10.7-1-10.3-1.5-10-2-4.5-1.2-4.5-1.3-4.5-1.5-4.2-1.5-3.8-1.7-3.7-1.8-3.8-1.7-3.2-2-3-2.3-2.8-2.2-2.5-2.5-2.2-2.5-2-2.8-1.5-2.7-1.3-3-1-3.3-.5-3.2-.2-3.3v-3.5l.5-3.7m-184-190.5 2.5 2.7 2 3 1.7 3 1.5 3.3 1.3 3.2 1.2 3.5 1.8 6.8 1.5 6.5 1.5 6 1 2.7 1.2 2.5 1.3 2.3 1.5 2 1.2.7 1.3 1 1.5.8 1.7.5 4.3 1 4.7 1 5 .5 5.5.2h11.3l10.7-.5 9.3-.5 8.7-1 6.8-.5 17.5-1.5 23.7-2.5 13-1.5 13-1.7 15.5-2.5 7-1.5 6.5-1.3 5.5-1.5 4.8-1.7 3.7-1.5 1.3-1 1-.8 2-2.2 1.7-2.3 1.5-2.2 1.3-2.5 1-2.5.7-2.3.8-2.5.2-2.7.8-5v-16.3l-.3-7.5-.2-3-.5-2.5-.5-2.5-.8-2.2-.7-2-1-1.8-1.3-1.7-1.5-1.5-86.5-86.8-2.2-1.5-2.8-1.5-3-1.2-3.7-1.3-3.8-.7-4-1-8.5-1-7.7-.8-6.5-.5h-27.5l-22.5.5-45.3 1.3-35 1.2-14.2.5-.3 2.5v8.3l.5 6.7.8 8.8 1.2 11.2 2 13.3 1.5 7.2 1.8 6.5 2.2 6.3 2.5 5.7 3 5.5 3.3 5 3.2 4.8 3.8 4.2 4 4 4 3.8 4 3.5 4.2 3.2 4.3 3 4.2 2.8 8.5 4.7 1.8 1.3 2 1.2 1.5 1.3z"/><path d="m72 107.5 12.5-.5 32-1.5 20.8-.7 22.7-.5 23.5-.5 23.3-.3 97-2 47 .5 38.2 1.8 3.3 1 3 1 2.7 1 2.8 1.5 2.7 1.2 2.5 1.5 4.5 3.5 4 3.3 3.5 3.5 6 6 17.8 16.7 15.5 15 17.7 17.3 9 9.2 9 9.3 8.5 9.2 7.8 9 7.2 8.5 6 7.8 2.5 3.7 2.3 3.3 1.7 3.2 1.3 2.8 1 2.5.5 2.2.5 5.8.2 6.5v7l-.2 7.2-.5 8.5-1 8.8-1 8.5-1.3 8.2-1.2 7.5-1.5 6.5-1.5 5.5-1.8 4.3-2 4.2-1 1.8-1.2 1.5-1.3 1.5-1.2 1.2-1.5 1-1.8 1-4 1.8-5.5 1.7-15.2 4.5-5 1.3-4.5 1-6.5 1.2-18.3 2.8-21.7 3-24.8 3-30.7 3.5-30.5 3.5-47.8 5-19.7 2-2.8.5-3.5.2-4.7.5h-14l-9.3-.5-10.7-.7-2.5-.3"/><path d="m131.3 129.5 8-1.5 8.2-1.2 9.3-1 4.7-.3h8.8l4 .5 3.2 1 1.3.5 1.2.8 1 .7.5 1 .5 1 .3 1-.3 19.8-.2 14.5-.5 15.5-1 15-.5 6.5-.8 6-.7 5-1 3.7-.5 1.5-.8 1-.5.8h-.7l-15.5-.5-26.8-1.8-36.7-2.2 1.5-5.8 4.5-14 2.7-8.5 3-8.7 3-8 3.3-7.3 8.7-18.2 5.5-10.5 2.5-5zm93.7 184.8-.2-1.8v-4.5l.2-6.5.3-3.7.7-3.8 1-3.7 1-4 1.8-3.5 2-3.3 1.2-1.5 1.3-1.2 1.5-1.3 1.5-1 1.7-1 2-.5 2-.5 2-.5 8.8-.5h4l3.7.3 3.5.5 3 .5 3 1 2.8 1.2 2.2 1.8 2.3 2 1.7 2.5 1.5 3 1.3 3.2.7 4 .5 4.3.3 5v11m-97-2.5 1.7 3.2 2 5.3 6.8 16.7 3.7 9.8 4 9.2 4 8.5 2 3.8 2 3.5 1.8 2.7 2 2 1.7 1.5.8.5 1 .3 10 1.2m-85.8-22.2-.7-2-2-5-2.3-7.3-1-4.2-1-4.5-.7-4.8-.5-4.7v-4.5l.5-4.5.2-2.3.5-2 .8-2 .7-1.7 1.3-1.8 1-1.7 1.5-1.5 1.7-1.3 3-2 3.3-1.5 3.2-1 3-.7 3.3-.5h3l3 .5 2.7.7 2.8.8 2.5 1.2 2.5 1.5 2.5 1.8 2 2 2 2.2 1.7 2.3 1.8 2.5"/><path d="m187.3 309.3 2 1.2 2.7 1.3 3.8 1.2 5 1.5 6.5 1.5 8 1 4.5.5 5 .3h16.5l6.2-.5 18.5-1 18.5-1 24-1.3 20.3-.7 18.7-.5 7.5-.8 19.8-1.7 28.2-3 16-2 16.5-2.5 16.8-2.5 16.5-3 15.5-3.3 7.5-1.5 6.7-2 6.5-1.7 6-2 5.3-2 4.7-2.3 4-2 3.3-2.2 1.2-1.3 1.3-1.2.7-1.3.8-1m-42.8-24.2.8-1.3 1.5-1.7 2-1.8 2.5-1.5 2.5-1.5 2.7-1 3-1 3.3-1 3-.5 3.2-.5h5.8l2.7.5 2.5.5 2.3 1 1.7 1.3 1.3 1.5m-42.5 109.2.7 2.8.5 3 .5 3v7l-.7 4-1 3.7-1.5 3.8-1.8 3.2-2 3.3-2.2 3.2-2.8 2.8-3 2.5-3.2 2.2-3.3 2-3.7 1.8-3.8 1.2-4 1-4 .5-4.2.3-4.3-.3-4-.5-4-1-3.7-1.2-3.5-1.8-3.5-2-3.3-2.2-2.7-2.5-2.8-2.8-2.2-3-2.3-3.2-1.7-3.3-1.3-3.7-1.2-3.8-.5-3.7-.3-4v-.5"/><path d="m345.3 366.8v-30.5l108.2-11.5v33m-262.7 19 .2 4.2v8l-.5 3.8-.2 3.7-.8 3.5-.7 3.3-1 3-1 2.7-1.3 2.3-1.2 2.2-1.5 2-1.5 1.5-1.8 1-1.7.8-1.8.5h-2l-1.7-.5-1.8-1-2-1-1.7-1.8-1.5-1.7-1.8-2.3-1.5-2.5-1.5-3-1.2-3-1.3-3.2-1-3.5-1-3.8-.7-3.7-.8-4-.5-4.3-.2-4.2v-8l.5-3.8.2-3.5.8-3.5.7-3.2 1-3 1-2.8 1.3-2.5 1.2-2.2 1.5-1.8 1.5-1.5 1.8-1.2 1.7-.8 1.8-.2h2l1.7.5 1.8.7 2 1.3 1.7 1.5 1.5 2 1.8 2.2 1.5 2.5 1.5 2.8 1.2 3 1.3 3.2 1 3.5 1 3.8.7 4 .8 4z"/><path d="m191 317.8-.7-.8-2.5-1.5-1.8-1-2-1-2.2-.7-2.5-.5-2.8-.3h-3l-3 .5-3 1.3-1.5.7-1.5 1-1.5 1.3-1.7 1.5-1.5 1.5-1.5 1.7-1.5 2-1.5 2.3-1.5 3-1.5 3.2-1.3 3.3-1.2 3.7-1 3.8-.8 4-.7 4.2-.5 4.5-.8 7-.2 5.3v5.2l.2 5.3.3 5.2.5 5.3.7 5 .8 5.2 1 4.8 1.2 4.7 1.3 4.5 1.5 4.3 1.5 4 2 3.7 1.7 3.3 2.3 3 2.2 2.5 3.5 3.2 3.8 2.8 4 2.5 3.7 1.7 4 1.5 4 1 3.8.8 4 .2h3.7l3.5-.5 3.5-.7 3.3-1 3-1.3 2.7-1.5 2.5-1.7 2.3-1.8.7-.7 1.8-1.8 2.5-3.2 1.5-2.3 1.5-2.5 1.5-3 1.2-3.5 1.5-3.7 1.3-4.3 1-4.7.7-5.3.5-5.7v-6.5l.3-4.5-.3-4.5-.7-5m-160.3-36.8 73 21.5m129.8-107.2 9.7.2 23.8.5h31.7l17-.2 16.8-.5 14-.8 12.7-1.2 24.5-2.8 20-3 15.5-2.5 12.3-2.2 9.5-2 6.7-1.8 4.8-1.5 3-1 1.7-1"/><path d="m374.8 255.5 2.2 1 2 1.5 3.5 3 1.8 1.3 2 1.5 2 1 2.5.5 3.2.5 3.3.2h3.2l3.3-.2 6.5-.8 6.5-.5 4-.5 4.2-.5 4.3-1 1.7-.7 1.8-1 1.5-1 1.7-1.8 3.3-4.2 1.5-2 1.7-1.8 1.8-1.5.7-.5 1-.5"/></g></svg>