<svg height="850.394" viewBox="0 0 850.394 850.394" width="850.394" xmlns="http://www.w3.org/2000/svg"><path d="m639.93 629.54v34.62c0 1.13-.17 2.22-.489 3.25a10.995 10.995 0 0 1 -2.71 4.47 10.891 10.891 0 0 1 -7.73 3.2c-6.02 0-10.92-4.88-10.92-10.92v-34.62c0-3.021 1.22-5.74 3.2-7.72 1.979-1.98 4.71-3.2 7.72-3.2 6.029 0 10.929 4.89 10.929 10.92zm-410.63-.09v34.62c0 6.04-4.89 10.93-10.92 10.93-3.02 0-5.74-1.22-7.72-3.2-.5-.5-.94-1.04-1.34-1.62-.58-.87-1.05-1.83-1.37-2.859-.32-1.03-.49-2.12-.49-3.25v-34.62c0-6.04 4.89-10.92 10.92-10.92a10.903 10.903 0 0 1 10.92 10.919zm139.78-208.26 3.5 168.94-1.56.03h-51.07l3.51-168.97s-1.1-25.46-2.69-62.16l24.99-31.75 24.72 31.77 1.29.05c-1.59 36.66-2.69 62.09-2.69 62.09zm154.84.09 3.51 168.97h-51.06l-1.57-.03 3.51-168.94s-1.1-25.43-2.689-62.09l1.28-.05 24.729-31.77 24.98 31.75c-1.59 36.7-2.69 62.16-2.69 62.16z" fill="#ed1e29"/><path d="m527.43 590.25 4.12 198.33h-60.87l4.12-198.36 1.57.03zm-154.85-.12 4.12 198.36h-60.87l4.12-198.33h51.07zm-23.34-529.37s35.1-1.11 33.57 38.84c-1.07 27.94-7.36 174.15-11.04 259.5l-1.29-.05-24.72-31.77-24.99 31.75c-3.68-85.36-9.97-231.5-11.04-259.43-1.53-39.95 33.56-38.84 33.56-38.84zm154.85.09s35.101-1.11 33.561 38.84c-1.061 27.94-7.351 174.08-11.04 259.43l-24.98-31.75-24.731 31.77-1.28.05c-3.68-85.34-9.98-231.55-11.04-259.5-1.53-39.95 33.56-38.84 33.56-38.84z" fill="#f6cc4b"/><g fill="none"><g stroke="#231f20" stroke-width="14"><path d="m372.58 590.13 4.12 198.36h-60.87l4.12-198.33 3.51-168.97s-1.1-25.46-2.69-62.16c-3.68-85.36-9.97-231.5-11.04-259.43-1.53-39.95 33.56-38.84 33.56-38.84h5.95s35.1-1.11 33.57 38.84c-1.07 27.94-7.36 174.15-11.04 259.5-1.59 36.66-2.69 62.09-2.69 62.09z"/><path d="m320.76 359.05.01-.02 24.99-31.75 24.72 31.77m-51.59 231.11h52.13"/><path d="m217.97 181.2v433.62m-10.02 52.5c-.32-1.03-.49-2.12-.49-3.25v-34.62c0-6.04 4.89-10.92 10.92-10.92a10.903 10.903 0 0 1 10.92 10.919v34.62c0 6.04-4.89 10.93-10.92 10.93-3.02 0-5.74-1.22-7.72-3.2-.5-.5-.94-1.04-1.34-1.62a11.075 11.075 0 0 1 -1.37-2.859zm-2.55.46s-34.63 32.77-41.43 43.069c-6.8 10.311-5.35 32.15 15.46 31.12 20.82-1.029 31.74-12.569 28.24-33.59-3.51-21.02-4.13-32.77-.83-37.09m-6.18-459.999h36.27" stroke-linecap="round" stroke-linejoin="round"/><path d="m474.8 590.22-4.12 198.36h60.869l-4.12-198.33-3.51-168.97s1.1-25.46 2.69-62.16c3.689-85.35 9.979-231.49 11.04-259.43 1.54-39.95-33.561-38.84-33.561-38.84h-5.95s-35.09-1.11-33.56 38.84c1.06 27.95 7.36 174.16 11.04 259.5 1.59 36.66 2.689 62.09 2.689 62.09z"/><path d="m526.62 359.14-.01-.02-24.98-31.75-24.73 31.77m51.6 231.11h-52.13"/><path d="m629.42 181.3v433.61m10.02 52.5c.319-1.03.489-2.12.489-3.25v-34.62c0-6.03-4.899-10.92-10.93-10.92-3.01 0-5.74 1.22-7.72 3.2a10.863 10.863 0 0 0 -3.2 7.72v34.62c0 6.04 4.9 10.92 10.92 10.92a10.89 10.89 0 0 0 8.429-3.97 10.962 10.962 0 0 0 2.012-3.7zm2.55.46s34.62 32.77 41.42 43.08c6.8 10.3 5.359 32.14-15.45 31.109-20.82-1.029-31.74-12.569-28.24-33.59 3.5-21.02 4.12-32.77.82-37.09m6.19-459.999h-36.27" stroke-linecap="round" stroke-linejoin="round"/></g><path d="m0 0h850.394v850.394h-850.394z"/></g></svg>