<svg height="850.394" viewBox="0 0 850.394 850.394" width="850.394" xmlns="http://www.w3.org/2000/svg"><g fill="#9e5c26"><path d="m755.18 317.73-326.82 66.57-37.54-18.77.01-.01 323.29-62.46.55-1.38zm-78.3-31.03-320.03 61.84-34.91-17.45 305.74-57.86 10.28-1.95 18.54 7.35z"/><path d="m714.67 301.68-.55 1.38-323.29 62.46-.01.01-33.97-16.99 320.03-61.84zm40.51 16.05 10.18-2.07v12.33l-320.93 68.56-1.01-4.72-15.06-7.53z"/></g><g fill="none"><g stroke="#231f20"><path d="m72.46 357.58s16.24 124.31 107.67 133.16c7.43.72 14.3 1.229 20.84 1.529 38.03 1.75 64.77-3.85 124.65-19.76 32.49-8.63 74.74-20.3 133.85-35.479 5.9-1.511 11.971-3.061 18.21-4.65 45.021-11.44 132.33-34.52 132.33-34.52" stroke-linecap="round" stroke-linejoin="round" stroke-width="28"/><path d="m182.09 441.86s.94 3.77 2.93 10.1c2.93 9.23 8.11 23.9 15.95 40.31 19.94 41.73 57.1 94.69 118.07 97.921 84.78 4.479 92.06-13.971 314.2-85.271 48.899-15.689 142.8-46.24 142.8-46.24" stroke-linecap="round" stroke-linejoin="round" stroke-width="28"/><path d="m86.43 375.66 235.51-44.57 305.74-57.86 10.28-1.95 18.54 7.35 20.38 8.07 37.79 14.98 40.51 16.05 1.68.67" stroke-width="21"/><path d="m424.25 395.66-.09-1.65-.46-8.76 4.66-.95 326.82-66.57 10.18-2.07v12.33l-320.93 68.56-12.65 2.7-99.75 21.3-147.01 31.41-23.79 5.08" stroke-linecap="round" stroke-linejoin="round" stroke-width="21"/><path d="m668.37 349.36s25.479 9.04 27.12 50.14c1.649 41.1 4.109 77.26 4.109 77.26m-227.679 70.69s-4.11-53.431-9.86-98.63a66.71 66.71 0 0 0 -2.59-11.79c-5.66-17.99-17.91-30.36-27.689-37.78a91.472 91.472 0 0 0 -7.62-5.24c-3.92-2.4-6.49-3.55-6.49-3.55s-54.24-33.7-67.4-27.95c-12.66 5.55-12.77 20.78-18.24 58.04-.21 1.44-.43 2.92-.66 4.43-4.11 27.12-6.58 44.39-6.58 44.39" stroke-linecap="round" stroke-linejoin="round" stroke-width="28"/><path d="m356.85 348.54 320.03-61.84 3.27-.63m-289.32 79.45 323.29-62.46" stroke-width="14"/><path d="m320.69 330.46 1.25.63 34.91 17.45 33.97 16.99 37.54 18.77 15.06 7.53" stroke-width="21"/><path d="m627 269.63 30.14-6.03.54 12.06" stroke-linecap="round" stroke-linejoin="round" stroke-width="13.151"/></g><path d="m0 0h850.394v850.394h-850.394z"/></g></svg>