<svg height="850" viewBox="0 0 850 850" width="850" xmlns="http://www.w3.org/2000/svg"><path d="m426.6 627.8 2.7-2.5 217.3-192.5 81-71.8 14.5-13 45 54.8-423.3 373.7-.7-1-62.5-36.2 25.7-22.8z" fill="#a9d7f3"/><path d="m66.8 391 391.8-316.5 269 286.5-81 71.8-2.5-3-8.3 2.7-1-3.2-1-2.8-1.2-2.2-1.5-1.8-1.3-1.5-1.7-1.5-3.5-2.7-2-1.5-2.3-1.3-2.7-1.2-2.5-1.3-5.8-2-5-1.7-10.7-3-10.5-3-5-1.8-5-2-5.3-2.2-5-2.8-6-4-5.2-4-4.8-4-4.2-4.2-3.8-4.3-3.2-4.2-3.3-4.8-3-4.7-5.7-10-6.5-11.3-3.8-6.2-4-6.3-4.7-7-5.3-7.2-8.5-10.8-8.5-9.7-8-9-8-8.3-7.7-7.2-7.5-6.5-7.5-5.8-7.3-5.2-6.7-4.5-6.8-4-6.5-3.3-6.2-3-6-2.5-5.8-2-5.2-1.5-5.3-1.5-6.2-1.2-6.3-.8-6-.5-6-.2-5.7.2-5.3.5-5.2.8-5 1-4.8 1-4.2 1.2-7.8 2.5-6 2.5-4.5 2-4.5 2.3-4.2 2.5-4 2.5-4.3 2.7-4 2.8-4.2 3.2-4 3.8-4.3 4-4.2 3.7-4.3 4-4 4.3-3.5 4-3.5 4.2-3 4.3-3 4.2-2.7 4.3-2.5 4.2-2.5 4.3-2.8 6-3 7.5-1.5 4.2-1.2 4.5-1.3 5-1 5.3-1 5.2-.5 5.8-.2 5.7v6l.5 6.3 1 6.5 1 5.2 1.2 5.5 1.8 5.8 2 6.2 2.5 6.3 3 6.7 3.5 7 4.2 7.3 4.8 7.2 5.2 7.8 6 8 7 8.2 7.5 8.5 8.5 8.5 9.3 9 10.5 9 6.7 5.8 6.5 5.2 6.3 4.5 5.7 4 11 7 9.8 6.5 4.5 3.5 4.2 3.3 4.3 3.7 4 4 4 4.3 3.7 5 3.8 5.5 3.5 6.2 2.5 5.3 2 5.2 1.7 5.3 1.3 5 2.5 10.7 2.2 10.8 1.5 5.2 1.8 5.8 1 2.7 1 2.8 1.2 2.2 1.3 2.3 2.5 3.5 1.2 1.5 1.3 1.5 1.5 1.2 1.7 1.3 2.3 1.2 3 1.3-100.3 88.7-1-1z" fill="#a9d7f3"/><path d="m477.1 446.8 7.2-3.3 6.3-3.2 6.2-3.5v.5l-.2 1-1 4.2-2.5-1-3 4-3.3 4-6.5 7-5 5-2 1.8-3 3-2 1.7-5.5 4.8-7.2 6-4 3-4.3 2.7-2.5-.5 4.3-6.7 4.5-8.3 1-1.5 1-1.5 2-2.2 2-1.8 2-1 1.7-.5 1.3-.2h1.2l1.8-1.8.2-1.2.3-1.3.7-1.7 1-1.8 1.8-2 2.5-2 1.5-.7z" fill="#ee947d"/><path d="m447.3 484.5 4.3-2.7 4-3 7.2-6 5.5-4.8 2-1.7 3-3 2-1.8 5-5 6.5-7 3.3-4 3-4 2.5 1-2.3 6.3-2.2 6.7-2.3 6-2 3.8-1 1.7-1.2 1.5-2.3 2.5-1.7 1.5-.8.5-.5.8-1.7 1.7-2.8 2.3-1.7 1-1.8 1-2.5 1.2-4 1.3-9.7 3-9 2.2-2.8.8h-1l2.5-4.3z" fill="#ee947d"/><path d="m635.8 432.5 8.3-2.7 2.5 3-217.3 192.5-1-1 8.5-20.8 7.5-20.5 3.3-9 2.5-7.7 1.7-6 .5-2.3.3-1.7-.3-2.5-.7-2.5-.8-2.8-1.2-2.7-1.5-2.8-1.5-2.7-3.5-5.3-3.5-5-3-3.7-2.8-3.5v-.3l5 1 4.5.5 8.3.8 8 .7 8 .3 3.7-.3 3.8-.2 4-.5 3.7-.8 4-1.2 3.8-1.5 4-1.8 4-2.5 4-2.7 4.2-3.3 6.5-6 3.5-4 3-4 2.5-3.7 2.3-3.8 1.7-4 1.3-3.7 1-3.8.7-3.7.8-3.8.2-4 .3-7.7-.3-8-.2-8.3-.3-4.7-.5-5 3.5 3 3.5 3.2 4.8 3.8 5 3.7 2.7 1.8 2.8 1.7 2.5 1.3 2.7 1 2.5.7 2.3.5 2-.2 2.2-.3 6.8-1.2 8.7-2.3 10-3 22.3-6.7z" fill="#ffeec8"/><path d="m530.1 442.5.3 8.3.3 8-.3 7.8-.3 4-.8 3.8-.8 3.8-1 3.8-1.3 3.8-1.8 4-2.3 3.8-2.5 3.8-3 4-3.5 4-6.5 6-4.3 3.3-4 2.8-4 2.5-4 1.8-3.8 1.5-4 1.3-3.8.8-4 .5-3.8.3-3.8.3-8-.3-8-.8-8.3-.8-4.5-.5-5-1-8.8-2-8.8-2.5-9-3-8.8-3.5-8-3.5-7.3-3.5-6-3.5-2.3-1.8-2-1.5-10.5-9.5-6.8-6.5-7.5-7.5-8-8.5-8-9-8-9.8-3.8-5.3-3.8-5 .8 1-1.3-2-1-1.8-.8-2-.8-1.8-.3-1.8-.3-1.8-.3-3.8.3-4.3.5-4.5.5-5 .3-6v-7l-.5-7.8-.5-8.3-.8-8-1.5-13.5-1-6 7.8-3 7.5-3.3 7-3.8 7-3.5 6.5-3.8 6-3.8 10.3-6.3 9.5-6 10-6.3 5-3 5-2.8 5.3-2.5 5-2.3 5-2 5-1.5 5-1 4.8-.5h4.6l2.3.5 2.3.5 2 .5 2.3 1 2 1 2 1.3.3.3 11.8 9.3 5 4 4.8 4 9.3 8.5 8.8 8.3 7.8 8.3 6.8 7.8 6 7 8.8 11 1.5 2 1.5 2.5 3 6 3.3 7.5 3 8.3 2.8 8.8 2.5 9.3 2.3 9 1.5 8.8.5 5zm-34.5 0 1-4.3.3-1v-.5l-6.3 3.5-6.3 3.3-7.3 3.3-1.5 1-1.5.8-2.5 2-1.8 2-1 1.8-.8 1.8-.3 1.3-.3 1.3-1.8 1.8h-1.3l-1.3.3-1.8.5-2 1-2 1.8-2 2.3-1 1.5-1 1.5-4.5 8.3-4.3 6.8-2.5 4.3h1.1l2.8-.8 9-2.3 9.8-3 4-1.3 2.5-1.3 1.8-1 1.8-1 2.8-2.3 1.8-1.8.5-.8.8-.5 1.8-1.5 2.3-2.5 1.3-1.5 1-1.8 2-3.8 2.3-6 2.3-6.8z" fill="#ffeec8"/><path d="m428.3 624.3 1 1-2.7 2.5-3-1.3-2.3-1.2-1.7-1.3-1.5-1.2-1.3-1.5-1.2-1.5-2.5-3.5-1.3-2.3-1.2-2.2-1-2.8-1-2.7-1.8-5.8-1.5-5.2-2.2-10.8-2.5-10.7-1.3-5-1.7-5.3-2-5.2-2.5-5.3-3.5-6.2-3.8-5.5-3.7-5-4-4.3-4-4-4.3-3.7-4.2-3.3-4.5-3.5-9.8-6.5-11-7-5.7-4-6.3-4.5-6.5-5.2-6.7-5.8-10.5-9-9.3-9-8.5-8.5-7.5-8.5-7-8.2-6-8-5.2-7.8-4.8-7.2-4.2-7.3-3.5-7-3-6.7-2.5-6.3-2-6.2-1.8-5.8-1.2-5.5-1-5.2-1-6.5-.5-6.3v-6l.2-5.7.5-5.8 1-5.2 1-5.3 1.3-5 1.2-4.5 1.5-4.2 3-7.5 2.8-6 2.5-4.3 2.5-4.2 2.7-4.3 3-4.2 3-4.3 3.5-4.2 3.5-4 4-4.3 4.3-4 4.2-3.7 4.3-4 4-3.8 4.2-3.2 4-2.8 4.3-2.7 4-2.5 4.2-2.5 4.5-2.3 4.5-2 6-2.5 7.8-2.5 4.2-1.2 4.8-1 5-1 5.2-.8 5.3-.5 5.7-.2 6 .2 6 .5 6.3.8 6.2 1.2 5.3 1.5 5.2 1.5 5.8 2 6 2.5 6.2 3 6.5 3.3 6.8 4 6.7 4.5 7.3 5.2 7.5 5.8 7.5 6.5 7.7 7.2 8 8.3 8 9 8.5 9.7 8.5 10.8 5.3 7.2 4.7 7 4 6.3 3.8 6.2 6.5 11.3 5.7 10 3 4.7 3.3 4.8 3.2 4.2 3.8 4.3 4.2 4.2 4.8 4 5.2 4 6 4 5 2.8 5.3 2.2 5 2 5 1.8 10.5 3 10.7 3 5 1.7 5.8 2 2.5 1.3 2.7 1.2 2.3 1.3 2 1.5 3.5 2.7 1.7 1.5 1.3 1.5 1.5 1.8 1.2 2.2 1 2.8 1 3.2-22.2 7.3-22.3 6.7-10 3-8.7 2.3-6.8 1.2-2.2.3-2 .2-2.3-.5-2.5-.7-2.7-1-2.5-1.3-2.8-1.7-2.7-1.8-5-3.7-4.8-3.8-3.5-3.2-3.5-3-1.5-8.8-2.2-9-2.5-9.2-2.8-8.8-3-8.2-3.2-7.5-3-6-1.5-2.5-1.5-2-8.8-11-6-7-6.7-7.8-7.8-8.2-8.7-8.3-9.3-8.5-4.7-4-5-4-11.8-9.2-.2-.3-2-1.2-2-1-2.3-1-2-.5-2.2-.5-2.3-.5h-4.5l-4.7.5-5 1-5 1.5-5 2-5 2.2-5.3 2.5-5 2.8-5 3-10 6.2-9.5 6-10.2 6.3-6 3.7-6.5 3.8-7 3.5-7 3.7-7.5 3.3-7.8 3 1 6 1.5 13.5.8 8 .5 8.2.5 7.8v7l-.3 6-.5 5-.5 4.5-.2 4.2.2 3.8.3 1.7.2 1.8.8 1.7.7 2 1 1.8 1.3 2-.8-1 3.8 5 3.7 5.2 8 9.8 8 9 8 8.5 7.5 7.5 6.8 6.5 10.5 9.5 2 1.5 2.2 1.7 6 3.5 7.3 3.5 8 3.5 8.7 3.5 9 3 8.8 2.5 8.7 2v.3l2.8 3.5 3 3.7 3.5 5 3.5 5.3 1.5 2.7 1.5 2.8 1.2 2.7.8 2.8.7 2.5.3 2.5-.3 1.7-.5 2.3-1.7 6-2.5 7.7-3.3 9-7.5 20.5z" fill="#fbee34"/><g fill="none" stroke="#231f20" stroke-linecap="round" stroke-miterlimit="10"><path d="m403.1 361.3 1.5-3.5 1.7-4 2.5-4.8 1.5-2.5 2-2.5 2-2.7 2.3-2.8 2.5-2.5 2.7-2.2 3.3-2.3 3.2-2 2.5-1.5 2.8-1 5-2 5.5-1.7m3.7 117.7.8-.2 1.7-1 .8-1 .7-1.3.5-1.5v-1.7l-.2-2.8v-2.2l.5-2.3.7-1.7.8-1.3 1.2-1 1.3-.5.5.3h.7l.8.2.5-.2.5-.3.2-.7.3-.8v-.7l-.3-1-.2-1-.8-1-.7-1-1-1-1.3-1-1.5-1-1.7-.8-2-.5-2.5-.2-2.3-.5-2.2-.5-2.3-.5-2-.8-1.7-.7-1.8-1-3.2-2.5-3.3-3-3.5-3.3-7.7-8.5-1.3-1.2-2.7-3-1.8-2.3-2-2.7-1.5-2.8-1.5-3.2" stroke-width="13"/><path d="m529.3 432.8 3.5 3 3.5 3.2 4.8 3.8 5 3.7 2.7 1.8 2.8 1.7 2.5 1.3 2.7 1 2.5.7 2.3.5 2-.2 2.2-.3 6.8-1.2 8.7-2.3 10-3 22.3-6.7 22.2-7.3 8.3-2.7" stroke-width="14"/><path d="m370.1 392.3-3.8 1.2-4 1.5-4.7 2.3-2.8 1.5-2.7 1.7-2.8 1.8-2.7 2.2-2.8 2.3-2.5 2.7-2.5 3-2 3-1.5 2.5-1.5 2.8-2.2 4.7-2 5.3m122.2 6.7-.5.8-.5.7-.5.8-1 .7-1.2.8-1.8.2h-1.7l-2.5-.5h-2.5l-2 .3-2 .5-1.3 1-1 1-.5 1.2v1.3l.3.7-.3.5-.5.5-.5.3h-1.5l-1-.3-1-.2-1-.8-1-.7-1-1-1-1.5-.7-1.5-.5-1.8-.5-2.2-.3-2.3-.2-2.5-.3-2.2-.5-2.3-.5-2-.7-1.7-1-1.8-2-3.5-2.8-3.5-3.2-3.5-8-8.2" stroke-width="13"/><path d="m433.8 522.8 2.8 3.5 3 3.7 3.5 5 3.5 5.3 1.5 2.7 1.5 2.8 1.2 2.7.8 2.8.7 2.5.3 2.5-.3 1.7-.5 2.3-1.7 6-2.5 7.7-3.3 9-7.5 20.5-8.5 20.8" stroke-width="14"/><path d="m351.3 439.3h3l3-.3 2.8-.5 2.7-.7 2.8-1 2.5-1.5 2.5-1.5 2.2-2 2-2.3 1.8-2.5 1.2-2.7 1-2.8.8-3 .2-3v-3l-.5-3m42.8-36.5h3l2.7-.2 3-.5 2.8-.8 2.7-1 2.5-1.2 2.5-1.8 2.3-2 2-2.2 1.7-2.5 1.3-2.5 1-3 .7-3 .3-3v-3l-.5-2.8" stroke-width="13"/><path d="m310.3 352.8 1 6 1.5 13.5.8 8 .5 8.2.5 7.8v7l-.3 6-.5 5-.5 4.5-.2 4.2.2 3.8.3 1.7.2 1.8.8 1.7.7 2 1 1.8 1.3 2-.8-1 3.8 5 3.7 5.2 8 9.8 8 9 8 8.5 7.5 7.5 6.8 6.5 10.5 9.5 2 1.5 2.2 1.7 6 3.5 7.3 3.5 8 3.5 8.7 3.5 9 3 8.8 2.5 8.7 2 5 1 4.5.5 8.3.8 8 .7 8 .3 3.7-.3 3.8-.2 4-.5 3.7-.8 4-1.2 3.8-1.5 4-1.8 4-2.5 4-2.7 4.2-3.3 6.5-6 3.5-4 3-4 2.5-3.7 2.3-3.8 1.7-4 1.3-3.7 1-3.8.7-3.7.8-3.8.2-4 .3-7.7-.3-8-.2-8.3-.3-4.7-.5-5-1.5-8.8-2.2-9-2.5-9.2-2.8-8.8-3-8.2-3.2-7.5-3-6-1.5-2.5-1.5-2-8.8-11-6-7-6.7-7.8-7.8-8.2-8.7-8.3-9.3-8.5-4.7-4-5-4-11.8-9.2-.2-.3-2-1.2-2-1-2.3-1-2-.5-2.2-.5-2.3-.5h-4.5l-4.7.5-5 1-5 1.5-5 2-5 2.2-5.3 2.5-5 2.8-5 3-10 6.2-9.5 6-10.2 6.3-6 3.7-6.5 3.8-7 3.5-7 3.7-7.5 3.3-7.8 3-7 2.5-7.2 1.7-3.5.8-3.3.5-3.5.5h-6.5l-3.2-.3-3.3-.5-2.7-.5-3-1-2.8-1.2-2.5-1.5-2.5-2" stroke-width="14"/><path d="m428.3 628.5-1.7-.7-3-1.3-2.3-1.2-1.7-1.3-1.5-1.2-1.3-1.5-1.2-1.5-2.5-3.5-1.3-2.3-1.2-2.2-1-2.8-1-2.7-1.8-5.8-1.5-5.2-2.2-10.8-2.5-10.7-1.3-5-1.7-5.3-2-5.2-2.5-5.3-3.5-6.2-3.8-5.5-3.7-5-4-4.3-4-4-4.3-3.7-4.2-3.3-4.5-3.5-9.8-6.5-11-7-5.7-4-6.3-4.5-6.5-5.2-6.7-5.8-10.5-9-9.3-9-8.5-8.5-7.5-8.5-7-8.2-6-8-5.2-7.8-4.8-7.2-4.2-7.3-3.5-7-3-6.7-2.5-6.3-2-6.2-1.8-5.8-1.2-5.5-1-5.2-1-6.5-.5-6.3v-6l.2-5.7.5-5.8 1-5.2 1-5.3 1.3-5 1.2-4.5 1.5-4.2 3-7.5 2.8-6 2.5-4.3 2.5-4.2 2.7-4.3 3-4.2 3-4.3 3.5-4.2 3.5-4 4-4.3 4.3-4 4.2-3.7 4.3-4 4-3.8 4.2-3.2 4-2.8 4.3-2.7 4-2.5 4.2-2.5 4.5-2.3 4.5-2 6-2.5 7.8-2.5 4.2-1.2 4.8-1 5-1 5.2-.8 5.3-.5 5.7-.2 6 .2 6 .5 6.3.8 6.2 1.2 5.3 1.5 5.2 1.5 5.8 2 6 2.5 6.2 3 6.5 3.3 6.8 4 6.7 4.5 7.3 5.2 7.5 5.8 7.5 6.5 7.7 7.2 8 8.3 8 9 8.5 9.7 8.5 10.8 5.3 7.2 4.7 7 4 6.3 3.8 6.2 6.5 11.3 5.7 10 3 4.7 3.3 4.8 3.2 4.2 3.8 4.3 4.2 4.2 4.8 4 5.2 4 6 4 5 2.8 5.3 2.2 5 2 5 1.8 10.5 3 10.7 3 5 1.7 5.8 2 2.5 1.3 2.7 1.2 2.3 1.3 2 1.5 3.5 2.7 1.7 1.5 1.3 1.5 1.5 1.8 1.2 2.2 1 2.8 1 3.2v.3" stroke-width="14"/><path d="m495.6 442.5 1-4.2.2-1v-.5l-6.2 3.5-6.3 3.2-7.2 3.3-1.5 1-1.5.7-2.5 2-1.8 2-1 1.8-.7 1.7-.3 1.3-.2 1.2-1.8 1.8h-1.2l-1.3.2-1.7.5-2 1-2 1.8-2 2.2-1 1.5-1 1.5-4.5 8.3-4.3 6.7-2.5 4.3h1l2.8-.8 9-2.2 9.7-3 4-1.3 2.5-1.2 1.8-1 1.7-1 2.8-2.3 1.7-1.7.5-.8.8-.5 1.7-1.5 2.3-2.5 1.2-1.5 1-1.7 2-3.8 2.3-6 2.2-6.7z" stroke-width="7"/><path d="m447.3 484.5 4.3-2.7 4-3 7.2-6 5.5-4.8 2-1.7 3-3 2-1.8 5-5 6.5-7 3.3-4 3-4" stroke-width="6.5"/><path d="m325.3 715.5-258.5-324.5 391.8-316.5 269 286.5" stroke-width="14"/><path d="m300.6 739.3 25.7-22.8 100.3-88.7 2.7-2.5 217.3-192.5 81-71.8 14.5-13" stroke-width="14"/><path d="m359.1 780.8 4.7-4.3 423.3-373.7" stroke-width="7"/></g></svg>