<svg height="850.394" viewBox="0 0 850.394 850.394" width="850.394" xmlns="http://www.w3.org/2000/svg"><path d="m754.89 517.46c7.83 4 9.94 9.05 9.46 13.85-.819 8.33-9.46 15.91-9.46 15.91l-226.67 189.04-122.53-64.76s213.55-168.91 231.93-180.29 35.88-5.26 35.88-5.26 63.58 22.42 81.39 31.51z" fill="#fff"/><path d="m764.35 531.31v105.47l-235.9 100.03-.23-.55 226.67-189.04s8.64-7.58 9.46-15.91z" fill="#fff"/><path d="m572.25 255.27c0 .01-.01.02-.01.03v-.03z" fill="#f6cc4b"/><g fill="#fff"><path d="m572.24 325.29v77.32c0 76.8-110.99 139.06-244.51 139.06-133.5 0-243.59-62.26-243.59-139.06v-77.32c0 76.8 110.09 139.05 243.59 139.05 133.52 0 244.51-62.25 244.51-139.05z"/><path d="m572.24 255.3v69.99c0 76.8-110.99 139.05-244.51 139.05-133.5 0-243.59-62.25-243.59-139.05v-75.84c11.39 61.68 116.61 110.01 244.74 110.01 124.05 0 226.63-45.29 243.36-104.16z"/><path d="m530.23 252.35 42.01 2.92v.03c-16.73 58.87-119.311 104.16-243.36 104.16-128.13 0-233.35-48.33-244.74-110.01-.67-3.66-1.02-7.37-1.02-11.12 0-66.9 110.03-121.14 245.76-121.14 76.23 0 153.42 20.98 198.5 47.84l-198.5 73.3z"/><path d="m530.23 165.03v87.32l-201.35-14.02 198.5-73.3z"/></g><g fill="none" stroke="#231f20"><path d="m84.14 326.55v77.32-1.26c0 76.8 110.09 139.06 243.59 139.06 133.52 0 244.51-62.26 244.51-139.06v-148.33m-488.1-5.19v76.2" stroke-width="21"/><path d="m84.14 326.55v-1.26c0 76.8 110.09 139.05 243.59 139.05 133.52 0 244.51-62.25 244.51-139.05" stroke-width="21"/><path d="m530.23 162.62v89.91" stroke-width="19.298"/><g stroke-width="21"><path d="m527.38 165.03c-45.08-26.86-122.27-47.84-198.5-47.84-135.73 0-245.76 54.24-245.76 121.14 0 3.75.35 7.46 1.02 11.12 11.39 61.68 116.61 110.01 244.74 110.01 124.05 0 226.63-45.29 243.36-104.16 0-.01.01-.02.01-.03"/><path d="m572.25 255.27h-.01l-42.01-2.92-201.35-14.02 198.5-73.3m236.97 366.28c.48-4.8-1.63-9.85-9.46-13.85-17.81-9.09-81.39-31.51-81.39-31.51s-17.5-6.12-35.88 5.26-231.93 180.29-231.93 180.29l122.53 64.76 226.67-189.04s8.64-7.58 9.46-15.91z"/><path d="m764.35 531.31v105.47l-235.9 100.03-1.93.82"/></g></g><path d="m0 0h850.394v850.394h-850.394z" fill="none"/><path d="m666.619 302.786-36.809 36.258 38.325 20.877" fill="none" stroke="#231f20" stroke-width="14"/><path d="m700.966 465.231c49.35-39.856 45.387-77.416 30.987-102.62-18.192-31.847-60.178-44.636-97.44-23.206" fill="none" stroke="#231f20" stroke-width="14"/></svg>