<svg height="850.394" viewBox="0 0 850.394 850.394" width="850.394" xmlns="http://www.w3.org/2000/svg"><path d="m368 368.249h113.386v113.386h-113.386z" fill="none"/><g fill="#cb82b7"><path d="m128.36 445.95c0 8.46-2.85 20.46-2.85 20.46l-8.56 45.49v.01l-16.57 88.08-38.55-5.96 2.39-21.98 20.88-160.48s5.48-31.03 20.73-40.9c0 0 22.53 22.44 22.53 75.28zm29.86-90.88c5.3-9.87 16.95-16.73 30.46-16.73 13.5 0 25.13 6.83 30.44 16.67h.01c1.98 3.66 3.08 7.74 3.08 12.03 0 15.84-14.71 33.31-33.22 33.31s-33.82-17.47-33.82-33.31c0-4.27 1.09-8.33 3.05-11.97z"/><path d="m236.72 360.71-.51 1.69c.07.96.11 1.93.11 2.89 0 23.05-21.19 48.27-47.33 48.27-26.15 0-47.34-25.22-47.34-48.27 0-.81.04-1.63.12-2.47l-5.34-.83c7.79-2.26 15.89-4.81 21.79-6.92-1.96 3.64-3.05 7.7-3.05 11.97 0 15.84 15.31 33.31 33.82 33.31s33.22-17.47 33.22-33.31c0-4.29-1.1-8.37-3.08-12.03 4.84 1.73 11.17 3.77 17.59 5.7zm76.44 211.34 2.39 21.98-38.55 5.96-16.58-88.09-8.56-45.49s-2.85-12-2.85-20.46c0-52.84 22.53-75.28 22.53-75.28v-.01c15.26 9.87 20.74 40.91 20.74 40.91zm93.44-101.79c0 7.351-2.48 17.75-2.48 17.75l-7.42 39.44-14.37 76.399-33.43-5.17 2.07-19.06 18.11-139.16s4.75-26.91 17.98-35.47c0 .001 19.54 19.451 19.54 65.271zm78.7-78.85c1.72 3.17 2.681 6.7 2.681 10.43 0 13.74-12.761 28.891-28.811 28.891s-29.33-15.15-29.33-28.891c0-3.71.95-7.22 2.65-10.38h.01c4.57-8.56 14.68-14.51 26.41-14.51 11.7 0 21.8 5.92 26.39 14.46z"/><path d="m500.56 396.35-.439 1.47c.06.83.09 1.66.09 2.51 0 19.98-18.37 41.85-41.04 41.85-22.68 0-41.05-21.87-41.05-41.85 0-.71.03-1.42.1-2.15l-4.62-.72c6.74-1.96 13.77-4.17 18.89-6-1.7 3.16-2.65 6.67-2.65 10.38 0 13.74 13.28 28.891 29.33 28.891s28.811-15.15 28.811-28.891c0-3.73-.961-7.26-2.681-10.43 4.199 1.5 9.689 3.27 15.259 4.94z"/><path d="m530.76 404.98-.01.01s-19.53 19.45-19.53 65.27c0 7.351 2.471 17.75 2.471 17.75l7.42 39.44-6.28 95.819h-110.091l-8.04-95.819 7.42-39.44s2.48-10.399 2.48-17.75c0-45.82-19.54-65.27-19.54-65.27 1.99-1.3 4.17-2.17 6.55-2.48 3.09-.39 11.31-2.52 19.99-5.05l4.62.72c-.07.73-.1 1.44-.1 2.15 0 19.98 18.37 41.85 41.05 41.85 22.67 0 41.04-21.87 41.04-41.85 0-.85-.03-1.68-.09-2.51l.439-1.47c9.94 2.99 20.131 5.71 23.65 6.16 2.381.31 4.561 1.18 6.551 2.47z"/><path d="m566.84 579.62 2.08 19.06-33.43 5.17-14.38-76.399-7.42-39.44s-2.471-10.399-2.471-17.75c0-45.82 19.53-65.27 19.53-65.27l.01-.01c13.221 8.57 17.971 35.48 17.971 35.48zm82.35-85.08c0 6.26-2.101 15.11-2.101 15.11l-6.32 33.59-12.239 65.05-28.46-4.4 1.76-16.229 15.42-118.49s4.05-22.9 15.31-30.2c0-.001 16.63 16.569 16.63 55.569zm67.02-67.12c1.47 2.7 2.28 5.7 2.28 8.86 0 11.71-10.86 24.6-24.53 24.6s-24.97-12.89-24.97-24.6c0-3.15.8-6.141 2.26-8.83 3.9-7.29 12.5-12.35 22.49-12.35 9.97 0 18.56 5.05 22.47 12.32z"/><path d="m716.21 427.42c3.58 1.271 8.25 2.771 12.99 4.19l-.37 1.25c.05.71.07 1.42.07 2.14 0 17.02-15.641 35.63-34.94 35.63-19.31 0-34.96-18.61-34.96-35.63 0-.6.03-1.21.09-1.83l-5.16-.26c6.11-1.75 12.65-3.79 17.32-5.46a18.4 18.4 0 0 0 -2.26 8.83c0 11.71 11.3 24.6 24.97 24.6s24.53-12.89 24.53-24.6c0-3.16-.81-6.16-2.28-8.86z"/><path d="m729.2 431.61c8.47 2.55 17.14 4.87 20.14 5.25 2.03.26 3.88 1.01 5.57 2.109 0 0-16.63 16.57-16.63 55.57 0 6.26 2.1 15.11 2.1 15.11l6.32 33.59-5.351 81.59h-93.729l-6.851-81.59 6.32-33.59s2.101-8.851 2.101-15.11c0-39-16.631-55.57-16.631-55.57 1.69-1.1 3.551-1.85 5.58-2.109 2.48-.32 8.86-1.95 15.79-3.95l5.16.26c-.06.62-.09 1.23-.09 1.83 0 17.02 15.65 35.63 34.96 35.63 19.3 0 34.94-18.61 34.94-35.63 0-.72-.021-1.43-.07-2.14z"/><path d="m785.63 587.66 1.78 16.229-28.47 4.4-12.24-65.05-6.32-33.59s-2.1-8.851-2.1-15.11c0-39 16.63-55.57 16.63-55.57 11.27 7.28 15.31 30.2 15.31 30.2zm-514.09-217v.01s-22.53 22.44-22.53 75.28c0 8.46 2.85 20.46 2.85 20.46l8.56 45.49-7.25 110.489h-126.95l-9.27-110.479v-.01l8.56-45.49s2.85-12 2.85-20.46c0-52.84-22.53-75.28-22.53-75.28 2.3-1.49 4.81-2.5 7.56-2.85 3.55-.46 13.03-2.91 23.04-5.83l5.34.83c-.08.84-.12 1.66-.12 2.47 0 23.05 21.19 48.27 47.34 48.27 26.14 0 47.33-25.22 47.33-48.27 0-.96-.04-1.93-.11-2.89l.51-1.69c11.46 3.45 23.21 6.58 27.27 7.11 2.75.35 5.26 1.35 7.55 2.84z"/></g><g fill="none"><g stroke="#231f20"><path d="m219.13 355.01c1.98 3.66 3.08 7.74 3.08 12.03 0 15.84-14.71 33.31-33.22 33.31s-33.82-17.47-33.82-33.31c0-4.27 1.09-8.33 3.05-11.97 5.3-9.87 16.95-16.73 30.46-16.73 13.5 0 25.13 6.83 30.44 16.67" stroke-width="14"/><path d="m236.21 362.4c.07.96.11 1.93.11 2.89 0 23.05-21.19 48.27-47.33 48.27-26.15 0-47.34-25.22-47.34-48.27 0-.81.04-1.63.12-2.47" stroke-width="6.523"/><g stroke-width="14"><path d="m116.95 511.91-16.57 88.08-38.55-5.96 2.39-21.98 20.88-160.48s5.48-31.03 20.73-40.9c2.3-1.49 4.81-2.5 7.56-2.85 3.55-.46 13.03-2.91 23.04-5.83 7.79-2.26 15.89-4.81 21.79-6.92h.01"/><path d="m105.83 370.67s22.53 22.44 22.53 75.28c0 8.46-2.85 20.46-2.85 20.46l-8.56 45.49m154.59-141.23s-22.53 22.44-22.53 75.28c0 8.46 2.85 20.46 2.85 20.46l8.56 45.49 16.58 88.09 38.55-5.96-2.39-21.98-20.88-160.48s-5.48-31.04-20.74-40.91c-2.29-1.49-4.8-2.49-7.55-2.84-4.06-.53-15.81-3.66-27.27-7.11-6.42-1.93-12.75-3.97-17.59-5.7h-.01"/><path d="m260.42 511.9-7.25 110.49h-126.95l-9.27-110.48v-.01m315.55-120.44c4.57-8.56 14.68-14.51 26.41-14.51 11.7 0 21.8 5.92 26.39 14.46 1.72 3.17 2.681 6.7 2.681 10.43 0 13.74-12.761 28.891-28.811 28.891s-29.33-15.15-29.33-28.891c0-3.71.95-7.22 2.65-10.38"/></g><path d="m500.12 397.82c.06.83.09 1.66.09 2.51 0 19.98-18.37 41.85-41.04 41.85-22.68 0-41.05-21.87-41.05-41.85 0-.71.03-1.42.1-2.15" stroke-width="6.523"/><path d="m387.06 404.99s19.54 19.45 19.54 65.27c0 7.351-2.48 17.75-2.48 17.75l-7.42 39.44-14.37 76.399-33.43-5.17 2.07-19.06 18.11-139.16c0 .001 4.75-26.909 17.98-35.469 1.99-1.3 4.17-2.17 6.55-2.48 3.09-.39 11.31-2.52 19.99-5.05 6.74-1.96 13.77-4.17 18.89-6h.01m98.25 13.53s-19.53 19.45-19.53 65.27c0 7.351 2.471 17.75 2.471 17.75l7.42 39.44 14.38 76.399 33.43-5.17-2.08-19.06-18.111-139.159s-4.75-26.91-17.971-35.48c-1.99-1.29-4.17-2.16-6.55-2.47-3.52-.45-13.71-3.17-23.65-6.16-5.569-1.67-11.06-3.44-15.26-4.94h-.01" stroke-width="14"/><path d="m521.11 527.45-6.28 95.82h-110.09l-8.04-95.82m319.51-100.03c1.47 2.7 2.28 5.7 2.28 8.86 0 11.71-10.86 24.6-24.53 24.6s-24.97-12.89-24.97-24.6c0-3.15.8-6.141 2.26-8.83 3.9-7.29 12.5-12.35 22.49-12.35 9.97 0 18.56 5.05 22.47 12.32z" stroke-width="14"/><path d="m728.83 432.86c.05.71.07 1.42.07 2.14 0 17.02-15.641 35.63-34.94 35.63-19.31 0-34.96-18.61-34.96-35.63 0-.6.03-1.21.09-1.83" stroke-width="6.523"/><path d="m632.56 438.97s16.631 16.57 16.631 55.57c0 6.26-2.101 15.11-2.101 15.11l-6.32 33.59-12.239 65.05-28.46-4.4 1.76-16.229 15.42-118.49c-.001-.001 4.049-22.901 15.309-30.201 1.69-1.1 3.551-1.85 5.58-2.109 2.48-.32 8.86-1.95 15.79-3.95 6.11-1.75 12.65-3.79 17.32-5.46m83.66 11.519s-16.63 16.57-16.63 55.57c0 6.26 2.1 15.11 2.1 15.11l6.32 33.59 12.24 65.05 28.47-4.4-1.78-16.229-15.41-118.49c0-.001-4.04-22.921-15.31-30.201-1.69-1.1-3.54-1.85-5.57-2.109-3-.38-11.67-2.7-20.14-5.25-4.74-1.42-9.41-2.92-12.99-4.19l-.01-.01" stroke-width="14"/><path d="m746.7 543.24-5.35 81.59h-93.73l-6.85-81.59" stroke-width="14"/><path d="m694.4 212.47v153.22m34.31-37.21-34.44 37.93-34.44-38" stroke-width="21"/></g><path d="m0 0h850.394v850.394h-850.394z"/><path d="m0 0h850.394v850.394h-850.394z"/></g></svg>