<svg height="850" viewBox="0 0 850 850" width="850" xmlns="http://www.w3.org/2000/svg"><path d="m536 243.8-2 36.5.3 1-3.5 1-3.5 1.5-4 1.7-3.8 2.3-1.5.5-1.5-4-1.7-4.5-2-4.3-2.5-3.7-2.5-3.3-2.8-2.7-3-2.5-3.2-2-3.5-1.8.2-.2 10.5-5 10.5-4.8 5-2 4.8-1.7 5-1.3zm-82.5 184.5-109.2-15.5-9.3-1.5 2.5-36 2-1.3 1.8 2 1.7 1.8 1.8 1.5 1.7 1 2 .5 2.3.2h2l2.2-.2 2.3-.5 2.2-.8 2.5-1.2 2.5-1.3 5.3-3 5.2-3.7 3.5-2.8 4.3-3.2 10.2-8.8 25-22 13.5-11.5 6.8-5.2 6.5-5.3 6.2-4.7 5.8-4.3 5.5-3.5 5-2.7 4.5-2 2-.8 1.7-.2 1.5-.3 1.3.3 1.2.5 1 .7 7.3 8.3-15 128z" fill="#a9d7f3"/><path d="m385 294.3 9.3-4 10.5-4.8 11.5-5.7 6-3.3 6.2-3.5 4.8-2.7 4.5-2.3 4.5-2.2 4.2-2 4.5-1.8 4.3-1.5 4.2-1.2 4-1 .5 2 2 34 1.3 2-5 2.7-5.5 3.5-5.8 4.3-6.2 4.7-6.5 5.3-6.8 5.2-13.5 11.5-25 22-10.2 8.8-4.3 3.2-3.5 2.8-5.2 3.7-5.3 3-2.5 1.3-2.5 1.2-2.2.8-2.3.5-2.2.2h-2l-2.3-.2-2-.5-1.7-1-1.8-1.5-1.7-1.8-1.8-2-1.2-2.2-1.3-2.5-1-3-1.2-3.3-1-3.7-.8-4-1-4.3-.7-5-1.5-11-1.3-10.5-1-10.2-1-9.5-.7-9.3-.5-8.5-.5-16 .2-14.2.5-12.3 1-11 1.3-9.2 1.5-8 1.5-6.8 1.5-5.2 1.5-4.3 1.2-3 1.3-2.2 1-1.5 1.5-2 2-1.8 2.5-2.5 3.2-2.7 3.5-2.8 4-2.5 4.5-2 3.3-1.2 3.5-.8 3.7-.2h1.8l1.7.2 1.8.3 2 .7 1.7.8 1.8.7 1.7 1.3 1.8 1.2 1.7 1.5 1.8 2 1.7 2 1.5 2.8 1.3 2.7 1 3.3.7 3.5.8 3.7.5 4 .2 4 .3 9-.3 9-.5 9.5-1 9.3-1.2 9.2-1.3 8.5-2.7 15-2 10.3-1 4z" fill="#a9d7f3"/><path d="m472.8 179 1 1.3 3 3.5 1.7 2.7 2 3.5 2.3 3.8 2 4.7 2 5.3 1.7 5.7 1.5 6.5 1.3 7 .5 7.8.2 4v4.2l-.2 4.5-.3 4.5-.7 4.8-.8 5-2.7-.8-3.3-.5h-3.2l-3.3-.2-3.2.2-3.5.5-3.5.5-3.8.8-4 1-4.2 1.2-4.3 1.5-4.5 1.8-4.2 2-4.5 2.2-4.5 2.3-4.8 2.7-6.2 3.5-6 3.3-11.5 5.7-10.5 4.8-9.3 4-.2-1 1-4 2-10.3 2.7-15 1.3-8.5 1.2-9.2 1-9.3.5-9.5.3-9-.3-9-.2-4-.5-4-.8-3.7-.7-3.5-1-3.3-1.3-2.7-1.5-2.8-1.7-2-1.8-2-1.7-1.5-1.8-1.2-1.7-1.3-1.8-.7-1.7-.8-2-.7-1.8-.3-1.7-.2h-1.8l-3.7.2-3.5.8-3.3 1.2 7.8-4.7 6-3 6.7-3.5 3.5-1.5 3.8-1.3 3.5-1.2 3.5-1 3.2-.8 3.3-.2h3l2.5.5 1.2 2.7 1.3 2.8 1.2 2.5 1.5 2.5 1.8 2.2 1.7 2.3 1.8 2.2 2 1.8 2 2 2 1.5 2.2 1.5 2.3 1.2 2.5 1.3 2.5 1 2.5.7 2.7.5 4.5.5h4.5l4.5-.5 4.3-1.2 4.2-1.8 4.3-2 4-2.7 3.7-3z" fill="#a9d7f3"/><path d="m294.3 672.5-12.5-8.7 61.2-93.3 13.5-21 12-18.5 9.5-15.5 6.8-11.7 1.2-1.8 3.8 2.8 3.5 2.7 14.5 9.5 13.5 8.8 12 7.2 9.7 5.8-1.2 2.5-117 152-10-6.8z" fill="#7a7878"/><path d="m420.3 722-32.5-18.2-4.8-2.5 68.3-157.8-2.3-1.2-6-3.5-9.7-5.8-12-7.2-13.5-8.8-14.5-9.5-3.5-2.7-3.8-2.8-3.7-3.2-3.8-3.8-4-3.7-3.5-4.3-3.7-4.5-3.5-4.7-3.3-5-3.2-5.3-2.8-5.7-2.7-5.8-2.3-6.2-2-6.5-1.5-6.8-1-7.2-.7-7.3-.3-7.7.3-1.5 109.2 15.5 19 28.7 13.8 21.5 11.2 18 11.5 19 1 1.5 2.3 3.8 1.5 2.7 1.7 3.3 1.5 3.7 1.5 4 1.3 4.5 1 4.5.7 5 .3 5-.3 5.3-.2 2.5-.5 2.5-.8 2.7-1 2.5-1 2.8-1.2 2.5-20.5 38.2-27.8 52-34.7 65z" fill="#7a7878"/><path d="m314.8 686.5-1.5 2.3-2 23-2.5 32.5-.3 6-.2 5.2.2 8.3-.2 2.7-.5 2.3-.5 1-.5.7-.8.5-.7.5-1.8.3h-1.7l-2-.3-2-1-2-1.2-2-1.8-2.3-2-1.7-2.2-2-2.8-1.8-3-1.7-3.2-1.3-3.5-1.2-3.8-1.3-4-.7-4-.5-4.5-.5-7.5-.8-5-.5-3.2-.7-2.3-1-1.5-1-1.2-1.5-2-1.5-3.3-2-4.2-1-4-.8-3.5v-3.3l.5-2.7 1-2.5 1.5-2.3 1.8-2 2-1.7 2.5-1.5 2.5-1.5 2.7-1.5 6-2.5 5.8-2.8zm127 67.8 3.7 5 3.3 4 5 6.2 1.7 2.5 1 2 .3 1v.8l-.3 1-.2 1-1.3 1.2-1.5 1.3-1.7.7-2 .5-2.5.3h-2.5l-3-.3-3-.5-3-1-3.3-1.2-3.2-1.5-3.5-1.8-3.3-2.2-3.2-2.5-3.3-2.8-3-3-5.2-5.5-3.8-3.5-2.5-2.2-2-1.3-1.5-.5-1.7-.5-2.3-.7-3.2-1.3-4.3-2.2-3.5-2.5-2.5-2.3-2-2.5-1.2-2.5-1-2.5-.3-2.7.3-2.8.5-2.5 1-2.7 1-3 1.2-2.8 3-5.7 3-5.8 1.8-3.2 32.5 18.2 9.2 14zm92.2-474 2-36.5 2.5-.3h2.5l2.5.3 2.5.5 2.5.7 2.3 1 2.5 1.3 2.2 1.5 2.3 1.7 2.2 2 2.3 2.5 2.2 2.8 2 3.2 2.3 3.5 2 3.8 2 4.2 3.2 7.8 2.3 6.5 1.5 6 1 5 .2 4.2-.2 3.8-.3 1.5-.5 1.2-.5 1.3-.5 1-.7.7-.8.8-.7.5-1 .5-1.8.2h-2.2l-2-.7-2-1-2-1.5-1.8-2-6.2-7.5-4.5-5-12.5-14-.5-.5-.5-.3-1.5-.2h-2l-2 .5zm-44-22.5 2.8.7 2.5 1 3.5 1.8 3.2 2 3 2.5 2.8 2.7 2.5 3.3 2.5 3.7 2 4.3 1.7 4.5 1.5 4 2.3 8.2 1.7 7 1.3 6.3.5 5.2v4.5l-.3 3.8-.7 2.7-.5 1.3-.8 1-.7.7-.8.8-.7.5-.8.2-2 .3-1.7-.3-2.3-.7-2-1.5-2-1.5-2-2.3-10-12-8.7-9.7-7.3-8.3-1-.7-1.2-.5-1.3-.3-1.5.3-1.7.2-2 .8-4.5 2-1.3-2-2-34-.5-2 3.8-.8 3.5-.5 3.5-.5 3.2-.2 3.3.2h3.2l3.3.5zm-84.7-97.5-1.5-4.3-1-4.7-1-4.8-.5-4.7-.3-5v-5.3l.5-5 .8-5.5 1.2-6 2-5.7 2-5.5 2.5-5.3 3-4.7 3-4.5 3.5-4.3 3.8-3.7 3.7-3.3 4.3-2.7 4.2-2.3 4.3-1.7 4.7-1.3 4.5-.7 2.3-.3 2.2.3h2.5l2.3.5 2.2.5 2.3.5 2.2.7 2.3 1 4 2.3 3.7 2.7 3.5 3.3 3 3.7 3 4 2.5 4.5 2 4.8 1.8 5 1.5 5.5.7 5.5.5 5.7.3 6-.5 6-.8 6-1.5 6.3-1.7 6-2.3 5.7-2.7 5.3-3 5-3.3 4.5-3.5 4.2-4 3.8-3.7 3-4 2.7-4.3 2-4.2 1.8-4.3 1.2-4.5.5h-4.5l-4.5-.5-2.7-.5-2.5-.7-2.5-1-2.5-1.3-2.3-1.2-2.2-1.5-2-1.5-2-2-2-1.8-1.8-2.2-1.7-2.3-1.8-2.2-1.5-2.5-1.2-2.5-1.3-2.8z" fill="#ffeec8"/><g fill="none" stroke="#231f20" stroke-linecap="round" stroke-miterlimit="10" stroke-width="14"><path d="m451.8 425.3 1.7 3 19 28.7 13.8 21.5 11.2 18 11.5 19 1 1.5 2.3 3.8 1.5 2.7 1.7 3.3 1.5 3.7 1.5 4 1.3 4.5 1 4.5.7 5 .3 5-.3 5.3-.2 2.5-.5 2.5-.8 2.7-1 2.5-1 2.8-1.2 2.5-20.5 38.2-27.8 52-34.7 65-13.5-7.5-32.5-18.2-4.8-2.5 68.3-157.8-2.3-1.2-6-3.5-9.7-5.8-12-7.2-13.5-8.8-14.5-9.5-3.5-2.7-3.8-2.8-3.7-3.2-3.8-3.8-4-3.7-3.5-4.3-3.7-4.5-3.5-4.7-3.3-5-3.2-5.3-2.8-5.7-2.7-5.8-2.3-6.2-2-6.5-1.5-6.8-1-7.2-.7-7.3-.3-7.7"/><path d="m470.5 549.3-21.5-7-3-1m-26.2 180 .5.7 9.2 14 12.3 18.3 3.7 5 3.3 4 5 6.2 1.7 2.5 1 2 .3 1v.8l-.3 1-.2 1-1.3 1.2-1.5 1.3-1.7.7-2 .5-2.5.3h-2.5l-3-.3-3-.5-3-1-3.3-1.2-3.2-1.5-3.5-1.8-3.3-2.2-3.2-2.5-3.3-2.8-3-3-5.2-5.5-3.8-3.5-2.5-2.2-2-1.3-1.5-.5-1.7-.5-2.3-.7-3.2-1.3-4.3-2.2-3.5-2.5-2.5-2.3-2-2.5-1.2-2.5-1-2.5-.3-2.7.3-2.8.5-2.5 1-2.7 1-3 1.2-2.8 3-5.7 3-5.8m-72.7-18.2-2 23-2.5 32.5-.3 6-.2 5.2.2 8.3-.2 2.7-.5 2.3-.5 1-.5.7-.8.5-.7.5-1.8.3h-1.7l-2-.3-2-1-2-1.2-2-1.8-2.3-2-1.7-2.2-2-2.8-1.8-3-1.7-3.2-1.3-3.5-1.2-3.8-1.3-4-.7-4-.5-4.5-.5-7.5-.8-5-.5-3.2-.7-2.3-1-1.5-1-1.2-1.5-2-1.5-3.3-2-4.2-1-4-.8-3.5v-3.3l.5-2.7 1-2.5 1.5-2.3 1.8-2 2-1.7 2.5-1.5 2.5-1.5 2.7-1.5 6-2.5 5.8-2.8.2-.2"/><path d="m384.8 503.8-6.8 11.7-9.5 15.5-12 18.5-13.5 21-61.2 93.3 12.5 8.7 20.5 14 10 6.8 117-152m-36.5-381-1.5-4.3-1-4.7-1-4.8-.5-4.7-.3-5v-5.3l.5-5 .8-5.5 1.2-6 2-5.7 2-5.5 2.5-5.3 3-4.7 3-4.5 3.5-4.3 3.8-3.7 3.7-3.3 4.3-2.7 4.2-2.3 4.3-1.7 4.7-1.3 4.5-.7 2.3-.3 2.2.3h2.5l2.3.5 2.2.5 2.3.5 2.2.7 2.3 1 4 2.3 3.7 2.7 3.5 3.3 3 3.7 3 4 2.5 4.5 2 4.8 1.8 5 1.5 5.5.7 5.5.5 5.7.3 6-.5 6-.8 6-1.5 6.3-1.7 6-2.3 5.7-2.7 5.3-3 5-3.3 4.5-3.5 4.2-4 3.8-3.7 3-4 2.7-4.3 2-4.2 1.8-4.3 1.2-4.5.5h-4.5l-4.5-.5-2.7-.5-2.5-.7-2.5-1-2.5-1.3-2.3-1.2-2.2-1.5-2-1.5-2-2-2-1.8-1.8-2.2-1.7-2.3-1.8-2.2-1.5-2.5-1.2-2.5-1.3-2.8zm-20.5 133 1-4 2-10.3 2.7-15 1.3-8.5 1.2-9.2 1-9.3.5-9.5.3-9-.3-9-.2-4-.5-4-.8-3.7-.7-3.5-1-3.3-1.3-2.7-1.5-2.8-1.7-2-1.8-2-1.7-1.5-1.8-1.2-1.7-1.3-1.8-.7-1.7-.8-2-.7-1.8-.3-1.7-.2h-1.8l-3.7.2-3.5.8-3.3 1.2-4.5 2-4 2.5-3.5 2.8-3.2 2.7-2.5 2.5-2 1.8-1.5 2-1 1.5-1.3 2.2-1.2 3-1.5 4.3-1.5 5.2-1.5 6.8-1.5 8-1.3 9.2-1 11-.5 12.3-.2 14.2.5 16 .5 8.5.7 9.3 1 9.5 1 10.2 1.3 10.5 1.5 11 .7 5 1 4.3.8 4 1 3.7 1.2 3.3 1 3 1.3 2.5 1.2 2.2 1.8 2 1.7 1.8 1.8 1.5 1.7 1 2 .5 2.3.2h2l2.2-.2 2.3-.5 2.2-.8 2.5-1.2 2.5-1.3 5.3-3 5.2-3.7 3.5-2.8 4.3-3.2 10.2-8.8 25-22 13.5-11.5 6.8-5.2 6.5-5.3 6.2-4.7 5.8-4.3 5.5-3.5 5-2.7 4.5-2 2-.8 1.7-.2 1.5-.3 1.3.3 1.2.5 1 .7 7.3 8.3 8.7 9.7 10 12 2 2.3 2 1.5 2 1.5 2.3.7 1.7.3 2-.3.8-.2.7-.5.8-.8.7-.7.8-1 .5-1.3.7-2.7.3-3.8v-4.5l-.5-5.2-1.3-6.3-1.7-7-2.3-8.2-1.5-4-1.7-4.5-2-4.3-2.5-3.7-2.5-3.3-2.8-2.7-3-2.5-3.2-2-3.5-1.8-2.5-1-2.8-.7-2.7-.8-3.3-.5h-3.2l-3.3-.2-3.2.2-3.5.5-3.5.5-3.8.8-4 1-4.2 1.2-4.3 1.5-4.5 1.8-4.2 2-4.5 2.2-4.5 2.3-4.8 2.7-6.2 3.5-6 3.3-11.5 5.7-10.5 4.8-9.3 4-10.7 3.7-8 2.5-5.3 1.5-1.7.3"/><path d="m519.5 287.8 3.8-2.3 4-1.7 3.5-1.5 3.5-1 2-.5h2l1.5.2.5.3.5.5 12.5 14 4.5 5 6.2 7.5 1.8 2 2 1.5 2 1 2 .7h2.2l1.8-.2 1-.5.7-.5.8-.8.7-.7.5-1 .5-1.3.5-1.2.3-1.5.2-3.8-.2-4.2-1-5-1.5-6-2.3-6.5-3.2-7.8-2-4.2-2-3.8-2.3-3.5-2-3.2-2.2-2.8-2.3-2.5-2.2-2-2.3-1.7-2.2-1.5-2.5-1.3-2.3-1-2.5-.7-2.5-.5-2.5-.3h-2.5l-2.5.3-4.7.7-5 1.3-4.8 1.7-5 2-10.5 4.8-10.5 5m-7.2 40-.5 3.5-15 128-19.3-2.5-109.2-15.5-9.3-1.5 2.5-36m135.3-196.3 1 1.3 3 3.5 1.7 2.7 2 3.5 2.3 3.8 2 4.7 2 5.3 1.7 5.7 1.5 6.5 1.3 7 .5 7.8.2 4v4.2l-.2 4.5-.3 4.5-.7 4.8-.8 5v.5m-132.5-80.8 1-.5 7.8-4.7 6-3 6.7-3.5 3.5-1.5 3.8-1.3 3.5-1.2 3.5-1 3.2-.8 3.3-.2h3l2.5.5.7.2m58 99.8 2 34"/><path d="m536 242.3v1.5l-2 36.5"/></g></svg>