<svg height="850.394" viewBox="0 0 850.394 850.394" width="850.394" xmlns="http://www.w3.org/2000/svg"><g fill="#c8c8c8"><path d="m415.75 261.78 101.78 5.99a77.64 77.64 0 0 0 -5.57 8.86l-87.32-8.36c-2.87-3.21-5.92-5.25-8.89-6.49z"/><path d="m463.3 115.51c8.9-3.53 16.931-.07 16.931-.07 31.31 11.33 21.6 45.88 21.6 45.88s36.55 4.63 54.51 23.75c16.92 18 22.29 39.38 19.82 59.25-15.13-2.27-39.45-1.32-57.36 21.77-.78-7.75-5.92-38.76-37.96-45.66 0 0-11.17-3.02-23.46-1.86-17.16 1.62-39.18 13.2-42.02 43.06-8.89-3.54-16.93-.09-16.93-.09-30.85 11.16-21.86 44.89-21.6 45.86l-156.35.55s-52.89 2.16-70.7-26.44c-17.81-28.61-6.79-61.85 5.94-80.43 19.88-28.98 54.51-23.74 54.51-23.74s-11.29-33.98 20.4-45.65c0 0 13.07-5.08 24.4 3.01 0 0 5.4-19.43 33.46-32.92 0 0 43.47-17.75 71.38 18.21.78-7.75 5.92-38.76 37.96-45.66 0 0 11.17-3.02 23.45-1.86 17.169 1.63 39.169 13.2 42.019 43.04z"/><path d="m722.95 347.18c12.729 18.58 23.74 51.82 5.93 80.419-17.81 28.61-70.71 26.44-70.71 26.44l-267.9-.93s-52.49 2.79-73.49-26.45c-18.76-26.11-22.65-65.51 5.54-95.49 17.97-19.12 54.52-23.75 54.52-23.75s0-.01-.01-.02l111.56-.39s52.49 2.79 73.49-26.44c7.51-10.45 12.63-23.01 14.28-36.25 8.439 1.27 14.01 3.55 14.01 3.55 28.08 13.51 33.47 32.93 33.47 32.93 11.33-8.09 24.391-3 24.391-3 31.7 11.66 20.399 45.64 20.399 45.64s34.64-5.239 54.52 23.741z"/></g><path d="m586.77 495.8c6.971 0 12.61 5.65 12.61 12.61 0 6.97-5.64 12.609-12.61 12.609s-12.609-5.64-12.609-12.609c-.001-6.96 5.639-12.61 12.609-12.61z" fill="#fff"/><path d="m518.8 266.09c17.91-23.09 42.23-24.04 57.36-21.77-1.65 13.24-6.771 25.8-14.28 36.25-21 29.23-73.49 26.44-73.49 26.44l-111.56.39c-.26-.97-9.25-34.7 21.6-45.86 0 0 8.04-3.45 16.93.09 0 .04-.01.09-.01.13l.4.02c2.97 1.24 6.02 3.28 8.89 6.49l87.32 8.36a77.78 77.78 0 0 1 5.57-8.86l1.41.08s-.02-.64-.14-1.76z" fill="#c8c8c8"/><path d="m518.94 267.85-1.41-.08c.41-.57.84-1.13 1.27-1.68.12 1.12.14 1.76.14 1.76z" fill="#fff"/><path d="m518.8 266.09c-.43.55-.859 1.11-1.27 1.68l-101.78-5.99a3.12 3.12 0 0 0 -.39-.15c2.84-29.86 24.86-41.44 42.02-43.06 12.29-1.16 23.46 1.86 23.46 1.86 32.04 6.9 37.18 37.91 37.96 45.66z" fill="#c8c8c8"/><path d="m502.09 540.84c6.97 0 12.61 5.65 12.61 12.62 0 6.96-5.641 12.61-12.61 12.61s-12.609-5.65-12.609-12.61c-.001-6.97 5.639-12.62 12.609-12.62zm-14.42 88.29c6.97 0 12.62 5.64 12.62 12.61s-5.65 12.609-12.62 12.609c-6.96 0-12.61-5.64-12.61-12.609 0-6.97 5.65-12.61 12.61-12.61zm-63.05-66.67c6.96 0 12.61 5.65 12.61 12.62 0 6.96-5.65 12.61-12.61 12.61-6.97 0-12.62-5.65-12.62-12.61 0-6.97 5.65-12.62 12.62-12.62zm-7.21 106.3c6.97 0 12.609 5.65 12.609 12.61 0 6.97-5.64 12.62-12.609 12.62-6.97 0-12.61-5.65-12.61-12.62 0-6.96 5.64-12.61 12.61-12.61zm-1.66-406.98-.4-.02c0-.04.01-.09.01-.13.13.04.26.09.39.15zm-12.75 495.26c6.96 0 12.61 5.65 12.61 12.62 0 6.96-5.65 12.609-12.61 12.609-6.97 0-12.62-5.649-12.62-12.609 0-6.97 5.65-12.62 12.62-12.62zm-30.63-239.62c6.96 0 12.61 5.65 12.61 12.61 0 6.97-5.65 12.609-12.61 12.609-6.97 0-12.62-5.64-12.62-12.609 0-6.96 5.65-12.61 12.62-12.61zm-14.42 88.28c6.97 0 12.61 5.649 12.61 12.62 0 6.96-5.64 12.609-12.61 12.609-6.96 0-12.61-5.649-12.61-12.609 0-6.97 5.65-12.62 12.61-12.62zm-18.01 84.68c6.96 0 12.61 5.65 12.61 12.62 0 6.96-5.65 12.61-12.61 12.61-6.97 0-12.62-5.65-12.62-12.61 0-6.97 5.65-12.62 12.62-12.62zm-45.05-151.34c6.97 0 12.62 5.65 12.62 12.61 0 6.97-5.65 12.609-12.62 12.609-6.96 0-12.61-5.64-12.61-12.609 0-6.96 5.65-12.61 12.61-12.61zm-25.22 82.88c6.96 0 12.61 5.64 12.61 12.61s-5.65 12.609-12.61 12.609-12.61-5.64-12.61-12.609c0-6.97 5.65-12.61 12.61-12.61zm-14.41 88.28c6.96 0 12.61 5.649 12.61 12.609 0 6.971-5.65 12.61-12.61 12.61-6.97 0-12.61-5.64-12.61-12.61 0-6.959 5.64-12.609 12.61-12.609zm-1.8-317.1c6.96 0 12.61 5.65 12.61 12.62 0 6.96-5.65 12.61-12.61 12.61-6.97 0-12.62-5.65-12.62-12.61 0-6.97 5.65-12.62 12.62-12.62zm-45.05 77.48c6.97 0 12.61 5.64 12.61 12.61s-5.64 12.609-12.61 12.609c-6.96 0-12.61-5.64-12.61-12.609 0-6.97 5.65-12.61 12.61-12.61zm-14.41 88.28c6.96 0 12.61 5.64 12.61 12.609 0 6.971-5.65 12.61-12.61 12.61s-12.61-5.64-12.61-12.61c0-6.969 5.65-12.609 12.61-12.609zm-1.8 84.68c6.96 0 12.61 5.64 12.61 12.61s-5.65 12.609-12.61 12.609c-6.97 0-12.61-5.64-12.61-12.609 0-6.97 5.64-12.61 12.61-12.61zm-23.42-273.86c6.96 0 12.61 5.65 12.61 12.61 0 6.97-5.65 12.62-12.61 12.62-6.97 0-12.62-5.65-12.62-12.62 0-6.96 5.65-12.61 12.62-12.61zm-37.84 122.52c6.96 0 12.61 5.64 12.61 12.609 0 6.971-5.65 12.61-12.61 12.61s-12.61-5.64-12.61-12.61c0-6.969 5.65-12.609 12.61-12.609z" fill="#fff"/><g fill="none" stroke="#231f20"><g stroke-width="21"><path d="m463.32 115.67c-.011-.05-.011-.11-.021-.16-2.85-29.84-24.85-41.41-42.02-43.04-12.28-1.16-23.45 1.86-23.45 1.86-32.04 6.9-37.18 37.91-37.96 45.66-.12 1.12-.14 1.76-.14 1.76"/><path d="m576.16 244.32c2.47-19.87-2.9-41.25-19.82-59.25-17.96-19.12-54.51-23.75-54.51-23.75s9.71-34.55-21.6-45.88c0 0-8.03-3.46-16.931.07-3.08 1.23-6.28 3.31-9.27 6.66m-87.319 8.36c-2.14-3.94-4.43-7.44-6.84-10.54-27.91-35.96-71.38-18.21-71.38-18.21-28.06 13.49-33.46 32.92-33.46 32.92-11.33-8.09-24.4-3.01-24.4-3.01-31.69 11.67-20.4 45.65-20.4 45.65s-34.63-5.24-54.51 23.74c-12.73 18.58-23.75 51.82-5.94 80.43 17.81 28.6 70.7 26.44 70.7 26.44l156.35-.55m38.53-45.77c2.84-29.86 24.86-41.44 42.02-43.06 12.29-1.16 23.46 1.86 23.46 1.86 32.04 6.9 37.18 37.91 37.96 45.66"/><path d="m511.96 276.63a77.78 77.78 0 0 1 5.57-8.86c.41-.57.84-1.13 1.27-1.68 17.91-23.09 42.23-24.04 57.36-21.77 8.439 1.27 14.01 3.55 14.01 3.55 28.08 13.51 33.47 32.93 33.47 32.93 11.33-8.09 24.391-3 24.391-3 31.7 11.66 20.399 45.64 20.399 45.64s34.641-5.24 54.521 23.74c12.729 18.58 23.74 51.82 5.93 80.419-17.81 28.61-70.71 26.44-70.71 26.44l-267.9-.93s-52.49 2.79-73.49-26.45c-18.76-26.11-22.65-65.51 5.54-95.49 17.97-19.12 54.52-23.75 54.52-23.75s0-.01-.01-.02c-.26-.97-9.25-34.7 21.6-45.86 0 0 8.04-3.45 16.93.09.13.04.26.09.39.15 2.97 1.24 6.02 3.28 8.89 6.49"/></g><path d="m221.02 483.19c0 6.97-5.64 12.609-12.61 12.609-6.96 0-12.61-5.64-12.61-12.609 0-6.971 5.65-12.61 12.61-12.61 6.97 0 12.61 5.64 12.61 12.61zm45.05-77.47c0 6.96-5.65 12.61-12.61 12.61-6.97 0-12.62-5.65-12.62-12.61 0-6.97 5.65-12.62 12.62-12.62 6.96 0 12.61 5.65 12.61 12.62zm-84.68-23.43c0 6.97-5.65 12.62-12.61 12.62-6.97 0-12.62-5.65-12.62-12.62 0-6.96 5.65-12.61 12.62-12.61 6.96 0 12.61 5.65 12.61 12.61zm25.22 189.18c0 6.971-5.65 12.61-12.61 12.61s-12.61-5.64-12.61-12.61 5.65-12.609 12.61-12.609 12.61 5.639 12.61 12.609zm-63.06-66.66c0 6.971-5.65 12.61-12.61 12.61s-12.61-5.64-12.61-12.61 5.65-12.609 12.61-12.609 12.61 5.639 12.61 12.609zm241.43 25.22c0 6.97-5.65 12.609-12.61 12.609-6.97 0-12.62-5.64-12.62-12.609 0-6.96 5.65-12.61 12.62-12.61 6.96 0 12.61 5.65 12.61 12.61zm-14.42 88.29c0 6.96-5.64 12.609-12.61 12.609-6.96 0-12.61-5.649-12.61-12.609 0-6.971 5.65-12.62 12.61-12.62 6.97 0 12.61 5.65 12.61 12.62zm-63.05-66.67c0 6.97-5.65 12.609-12.62 12.609-6.96 0-12.61-5.64-12.61-12.609 0-6.96 5.65-12.61 12.61-12.61 6.97 0 12.62 5.65 12.62 12.61zm207.19 1.81c0 6.96-5.641 12.61-12.61 12.61s-12.609-5.65-12.609-12.61c0-6.97 5.64-12.62 12.609-12.62s12.61 5.65 12.61 12.62zm-14.41 88.28c0 6.97-5.65 12.609-12.62 12.609-6.96 0-12.61-5.64-12.61-12.609 0-6.971 5.65-12.61 12.61-12.61 6.97 0 12.62 5.64 12.62 12.61zm-63.06-66.66c0 6.96-5.65 12.61-12.61 12.61-6.97 0-12.62-5.65-12.62-12.61 0-6.97 5.65-12.62 12.62-12.62 6.96 0 12.61 5.65 12.61 12.62zm-7.21 106.29c0 6.97-5.64 12.62-12.609 12.62-6.97 0-12.61-5.65-12.61-12.62 0-6.96 5.64-12.61 12.61-12.61 6.969 0 12.609 5.65 12.609 12.61zm-14.41 88.29c0 6.96-5.65 12.609-12.61 12.609-6.97 0-12.62-5.649-12.62-12.609 0-6.97 5.65-12.62 12.62-12.62 6.96 0 12.61 5.65 12.61 12.62zm183.77-261.25c0 6.97-5.64 12.609-12.61 12.609s-12.609-5.64-12.609-12.609c0-6.96 5.64-12.61 12.609-12.61 6.97 0 12.61 5.65 12.61 12.61zm-246.83 194.59c0 6.96-5.65 12.61-12.61 12.61-6.97 0-12.62-5.65-12.62-12.61 0-6.97 5.65-12.62 12.62-12.62 6.96 0 12.61 5.65 12.61 12.62zm-70.27-68.47c0 6.97-5.65 12.609-12.61 12.609s-12.61-5.64-12.61-12.609c0-6.971 5.65-12.61 12.61-12.61s12.61 5.64 12.61 12.61zm-14.41 88.28c0 6.971-5.65 12.61-12.61 12.61-6.97 0-12.61-5.64-12.61-12.61 0-6.96 5.64-12.609 12.61-12.609 6.96-.001 12.61 5.649 12.61 12.609zm-63.06-66.66c0 6.97-5.65 12.609-12.61 12.609-6.97 0-12.61-5.64-12.61-12.609 0-6.971 5.64-12.61 12.61-12.61 6.96 0 12.61 5.64 12.61 12.61z" stroke-linecap="round" stroke-linejoin="round" stroke-width="14"/></g><path d="m0 0h850.394v850.394h-850.394z" fill="none"/></svg>