<svg height="850.894" viewBox="0 0 850.894 850.894" width="850.894" xmlns="http://www.w3.org/2000/svg"><path d="m445.1 508.67 7.601 181.04c-5.2-.66-10.49-1.12-15.82-1.4z" fill="#fff"/><path d="m532.31 93.89c-17.479 7.62-58.779 12.96-106.939 12.96s-89.46-5.34-106.94-12.96c-5.74-2.49-8.91-5.23-8.91-8.11 0-11.63 51.87-21.06 115.85-21.06 63.979 0 115.85 9.43 115.85 21.06-.001 2.88-3.171 5.62-8.911 8.11z" fill="#9e5b16"/><path d="m532.31 93.89v42.91c0 10.7-47.689 19.37-106.53 19.37-58.84 0-106.53-8.67-106.53-19.37h-.82v-42.91c17.48 7.62 58.78 12.96 106.94 12.96s89.46-5.34 106.94-12.96z" fill="#9e5b16"/><g fill="none"><g><path d="m318.52 728.86c8.72-15.351 27.09-26.38 49.61-33.07 8.99-2.68 18.63-4.67 28.59-5.96 6.59-.86 13.33-1.41 20.09-1.66 6.69-.25 13.41-.2 20.07.14 5.33.28 10.62.74 15.82 1.4a197.07 197.07 0 0 1 12.229 1.93c8.66 1.66 16.92 3.88 24.53 6.67 20.83 7.631 36.771 19.521 42.48 35.671" stroke="#000" stroke-width="14"/><path d="m377.78 206.56 18.94 483.27 2.53 64.44m-50.03-534.74 18.91 476.26 1.78 44.94m32.79-547.13 14.11 494.57 2.27 79.71m12.19-588.38 13.83 329.17 7.6 181.04 3.06 72.73m57.35-542.91-23.65 478.78-2.47 50.01m-2.44-557.02-19.62 500.34-3.06 78.1" stroke="#f6cc4b" stroke-width="20"/><path d="m459.63 191.2-14.53 317.47-8.22 179.64-3.67 80.11" stroke="#f6cc4b" stroke-width="20"/><g stroke="#000" stroke-width="20.444"><path d="m318.43 93.89c-5.74-2.49-8.91-5.23-8.91-8.11 0-11.63 51.87-21.06 115.85-21.06 63.979 0 115.85 9.43 115.85 21.06 0 2.88-3.17 5.62-8.91 8.11-17.479 7.62-58.779 12.96-106.939 12.96s-89.461-5.34-106.941-12.96zm213.88 42.91c0 10.7-47.689 19.37-106.53 19.37-58.84 0-106.53-8.67-106.53-19.37"/><path d="m532.31 87.4v641.46c0 1.72-.119 3.43-.359 5.12-4.49 31.829-50.46 56.85-106.53 56.85-59.04 0-106.9-27.74-106.9-61.97l-.09-1.44v-634.35"/></g></g><path d="m.25.25h850.394v850.394h-850.394z"/></g></svg>