<svg height="850.89" viewBox="0 0 850.89 850.89" width="850.89" xmlns="http://www.w3.org/2000/svg"><path d="m401.96 154.08c0 7.26 7.07 13.15 15.82 13.15h15.81c8.74 0 15.811-5.89 15.811-13.15v-13.15c0-7.26-7.07-13.14-15.811-13.14h-15.81c-8.75 0-15.82 5.88-15.82 13.14zm-132.03 171.93c-1.35 4.98-2.68 9.83-5.94 23.34-2.64 10.95-6.44 26.03-10.82 43.13l-.92-.23-88.04-17.61.01-.04c9.73-56.2 19.02-106.3 25.1-129.54 22.99-87.91 41.93-113.61 60.3-127.54 12.08-9.17 74.45-15.18 91.44-19.12 17.01-3.93 32.27-37.45 32.27-37.45h104.57s15.27 33.52 32.279 37.46c16.98 3.93 79.36 9.95 91.44 19.12 18.37 13.92 37.3 39.62 60.3 127.54 6.71 25.66 17.34 84.12 28.16 147.36l-90.1 7.51c-5.181-20.14-9.721-38.07-12.74-50.58-3.73-15.5-4.94-19.6-6.54-25.57l-.851.22s-8.46 49.65-17.96 103.521c-10.359 58.72-5.29 82.399-1.06 107.76 4.54 27.16 30.87 92.12 46.71 227.34l-148.9 27.521s-10.31-34.07-26.149-39.62c-15.85-5.55-30.9 39.62-30.9 39.62l-157.91-21.19c15.85-135.21 42.19-200.17 46.72-227.34 4.23-25.36 9.3-49.04-1.06-107.76-9.5-53.87-19.01-107.75-19.01-107.75zm179.87 345.69v-13.16c0-7.25-7.069-13.13-15.8-13.13h-15.82c-8.74 0-15.82 5.88-15.82 13.13v13.16c0 7.26 7.08 13.149 15.82 13.149h15.82c8.73.001 15.8-5.889 15.8-13.149zm0-59.01v-13.15c0-7.26-7.069-13.14-15.8-13.14h-15.82c-8.74 0-15.82 5.88-15.82 13.14v13.15c0 7.26 7.08 13.149 15.82 13.149h15.82c8.73.001 15.8-5.889 15.8-13.149zm0-56.99v-13.16c0-7.25-7.069-13.13-15.8-13.13h-15.82c-8.74 0-15.82 5.88-15.82 13.13v13.16c0 7.26 7.08 13.149 15.82 13.149h15.82c8.73.001 15.8-5.889 15.8-13.149zm0-57v-13.16c0-7.25-7.069-13.13-15.8-13.13h-15.82c-8.74 0-15.82 5.88-15.82 13.13v13.16c0 7.26 7.08 13.149 15.82 13.149h15.82c8.73.001 15.8-5.889 15.8-13.149zm0-59v-13.16c0-7.25-7.069-13.13-15.8-13.13h-15.82c-8.74 0-15.82 5.88-15.82 13.13v13.16c0 7.26 7.08 13.149 15.82 13.149h15.82c8.73.001 15.8-5.889 15.8-13.149zm0-56v-13.15c0-7.26-7.069-13.14-15.8-13.14h-15.82c-8.74 0-15.82 5.88-15.82 13.14v13.15c0 7.26 7.08 13.15 15.82 13.15h15.82c8.73 0 15.8-5.89 15.8-13.15zm0-58v-13.15c0-7.26-7.069-13.14-15.8-13.14h-15.82c-8.74 0-15.82 5.88-15.82 13.14v13.15c0 7.26 7.08 13.15 15.82 13.15h15.82c8.73 0 15.8-5.89 15.8-13.15zm0-58v-13.15c0-7.26-7.069-13.14-15.8-13.14h-15.82c-8.74 0-15.82 5.88-15.82 13.14v13.15c0 7.26 7.08 13.15 15.82 13.15h15.82c8.73 0 15.8-5.89 15.8-13.15zm0-56v-13.15c0-7.26-7.069-13.14-15.8-13.14h-15.82c-8.74 0-15.82 5.88-15.82 13.14v13.15c0 7.26 7.08 13.15 15.82 13.15h15.82c8.73 0 15.8-5.89 15.8-13.15zm0-115.01v-13.15c0-7.26-7.069-13.14-15.8-13.14h-15.82c-8.74 0-15.82 5.88-15.82 13.14v13.15c0 7.26 7.08 13.16 15.82 13.16h15.82c8.73 0 15.8-5.9 15.8-13.16z" fill="#ffeec8"/><path d="m449.8 658.54v13.16c0 7.26-7.069 13.149-15.8 13.149h-15.82c-8.74 0-15.82-5.89-15.82-13.149v-13.16c0-7.25 7.08-13.13 15.82-13.13h15.82c8.73 0 15.8 5.88 15.8 13.13zm0-59v13.15c0 7.26-7.069 13.149-15.8 13.149h-15.82c-8.74 0-15.82-5.89-15.82-13.149v-13.15c0-7.26 7.08-13.14 15.82-13.14h15.82c8.73 0 15.8 5.88 15.8 13.14zm0-57v13.16c0 7.26-7.069 13.149-15.8 13.149h-15.82c-8.74 0-15.82-5.89-15.82-13.149v-13.16c0-7.25 7.08-13.13 15.82-13.13h15.82c8.73 0 15.8 5.88 15.8 13.13zm0-57v13.16c0 7.26-7.069 13.149-15.8 13.149h-15.82c-8.74 0-15.82-5.89-15.82-13.149v-13.16c0-7.25 7.08-13.13 15.82-13.13h15.82c8.73 0 15.8 5.88 15.8 13.13zm0-59v13.16c0 7.26-7.069 13.149-15.8 13.149h-15.82c-8.74 0-15.82-5.89-15.82-13.149v-13.16c0-7.25 7.08-13.13 15.82-13.13h15.82c8.73 0 15.8 5.88 15.8 13.13zm0-55.99v13.15c0 7.26-7.069 13.15-15.8 13.15h-15.82c-8.74 0-15.82-5.89-15.82-13.15v-13.15c0-7.26 7.08-13.14 15.82-13.14h15.82c8.73 0 15.8 5.88 15.8 13.14zm0-58v13.15c0 7.26-7.069 13.15-15.8 13.15h-15.82c-8.74 0-15.82-5.89-15.82-13.15v-13.15c0-7.26 7.08-13.14 15.82-13.14h15.82c8.73 0 15.8 5.88 15.8 13.14zm0-58v13.15c0 7.26-7.069 13.15-15.8 13.15h-15.82c-8.74 0-15.82-5.89-15.82-13.15v-13.15c0-7.26 7.08-13.14 15.82-13.14h15.82c8.73 0 15.8 5.88 15.8 13.14zm0-56v13.15c0 7.26-7.069 13.15-15.8 13.15h-15.82c-8.74 0-15.82-5.89-15.82-13.15v-13.15c0-7.26 7.08-13.14 15.82-13.14h15.82c8.73 0 15.8 5.88 15.8 13.14zm0-115.01v13.15c0 7.26-7.069 13.16-15.8 13.16h-15.82c-8.74 0-15.82-5.9-15.82-13.16v-13.15c0-7.26 7.08-13.14 15.82-13.14h15.82c8.73 0 15.8 5.88 15.8 13.14zm-16.21 44.25c8.74 0 15.811 5.88 15.811 13.14v13.15c0 7.26-7.07 13.15-15.811 13.15h-15.81c-8.75 0-15.82-5.89-15.82-13.15v-13.15c0-7.26 7.07-13.14 15.82-13.14z" fill="#ffffc2"/><g fill="none"><g stroke="#231f20" stroke-width="14"><path d="m373.33 60.95s-15.26 33.52-32.27 37.45c-16.99 3.94-79.36 9.95-91.44 19.12-18.37 13.93-37.31 39.63-60.3 127.54-6.08 23.24-15.37 73.34-25.1 129.54m115.62-89.69c-6.33 27.65-8.13 34.49-9.91 41.1-1.35 4.98-2.68 9.83-5.94 23.34-2.64 10.95-6.44 26.03-10.82 43.13v.01m17.16-66.38s9.51 53.88 19.01 107.75c10.36 58.72 5.29 82.399 1.06 107.76-4.53 27.17-30.87 92.13-46.72 227.34m234.22-708.01s15.27 33.52 32.279 37.46c16.98 3.93 79.36 9.95 91.44 19.12 18.37 13.92 37.3 39.62 60.3 127.54 6.71 25.66 17.34 84.12 28.16 147.36l.03.19m-118.719-107.7c5.63 24.59 7.67 32.72 9.311 38.87 1.6 5.97 2.81 10.07 6.54 25.57 3.02 12.51 7.56 30.44 12.74 50.58.39 1.52.779 3.05 1.18 4.6m-21.311-80.53s-8.46 49.65-17.96 103.521c-10.359 58.72-5.29 82.399-1.06 107.76 4.54 27.16 30.87 92.12 46.71 227.34m-205.95 27.519s15.05-45.17 30.9-39.62c15.84 5.55 26.149 39.62 26.149 39.62m-9.239-649.22v13.15c0 7.26-7.07 13.15-15.811 13.15h-15.81c-8.75 0-15.82-5.89-15.82-13.15v-13.15c0-7.26 7.07-13.14 15.82-13.14h15.81c8.741 0 15.811 5.88 15.811 13.14z"/><path d="m449.8 211.7c0 7.26-7.069 13.15-15.8 13.15h-15.82c-8.74 0-15.82-5.89-15.82-13.15v-13.15c0-7.26 7.08-13.14 15.82-13.14h15.82c8.73 0 15.8 5.88 15.8 13.14zm0 56c0 7.26-7.069 13.15-15.8 13.15h-15.82c-8.74 0-15.82-5.89-15.82-13.15v-13.15c0-7.26 7.08-13.14 15.82-13.14h15.82c8.73 0 15.8 5.88 15.8 13.14zm0 58c0 7.26-7.069 13.15-15.8 13.15h-15.82c-8.74 0-15.82-5.89-15.82-13.15v-13.15c0-7.26 7.08-13.14 15.82-13.14h15.82c8.73 0 15.8 5.88 15.8 13.14zm0 58c0 7.26-7.069 13.15-15.8 13.15h-15.82c-8.74 0-15.82-5.89-15.82-13.15v-13.15c0-7.26 7.08-13.14 15.82-13.14h15.82c8.73 0 15.8 5.88 15.8 13.14zm0 56c0 7.26-7.069 13.149-15.8 13.149h-15.82c-8.74 0-15.82-5.89-15.82-13.149v-13.16c0-7.25 7.08-13.13 15.82-13.13h15.82c8.73 0 15.8 5.88 15.8 13.13zm0 59c0 7.26-7.069 13.149-15.8 13.149h-15.82c-8.74 0-15.82-5.89-15.82-13.149v-13.16c0-7.25 7.08-13.13 15.82-13.13h15.82c8.73 0 15.8 5.88 15.8 13.13zm0 57c0 7.26-7.069 13.149-15.8 13.149h-15.82c-8.74 0-15.82-5.89-15.82-13.149v-13.16c0-7.25 7.08-13.13 15.82-13.13h15.82c8.73 0 15.8 5.88 15.8 13.13zm0 56.99c0 7.26-7.069 13.149-15.8 13.149h-15.82c-8.74 0-15.82-5.89-15.82-13.149v-13.15c0-7.26 7.08-13.14 15.82-13.14h15.82c8.73 0 15.8 5.88 15.8 13.14zm0 59.01c0 7.26-7.069 13.149-15.8 13.149h-15.82c-8.74 0-15.82-5.89-15.82-13.149v-13.16c0-7.25 7.08-13.13 15.82-13.13h15.82c8.73 0 15.8 5.88 15.8 13.13zm0-575.01c0 7.26-7.069 13.16-15.8 13.16h-15.82c-8.74 0-15.82-5.9-15.82-13.16v-13.15c0-7.26 7.08-13.14 15.82-13.14h15.82c8.73 0 15.8 5.88 15.8 13.14z" stroke-linecap="round" stroke-linejoin="round"/></g><path d="m.25.25h850.394v850.394h-850.394z"/></g></svg>