<svg height="850.394" viewBox="0 0 850.394 850.394" width="850.394" xmlns="http://www.w3.org/2000/svg"><g fill="#fff400"><path d="m721.46 501.08c6.65 0 12.05 5.4 12.05 12.06s-5.399 12.061-12.05 12.061c-6.67 0-12.07-5.4-12.07-12.061 0-6.66 5.4-12.06 12.07-12.06zm-58.78 93.5c6.66 0 12.061 5.4 12.061 12.05 0 6.67-5.4 12.07-12.061 12.07s-12.06-5.4-12.06-12.07c0-6.65 5.4-12.05 12.06-12.05zm-102.5-33.73c6.66 0 12.061 5.4 12.061 12.051 0 6.659-5.4 12.06-12.061 12.06s-12.06-5.4-12.06-12.06c0-6.651 5.4-12.051 12.06-12.051zm-82.58 67.62c6.65 0 12.051 5.4 12.051 12.05 0 6.671-5.4 12.061-12.051 12.061-6.659 0-12.06-5.39-12.06-12.061 0-6.65 5.4-12.05 12.06-12.05zm-136.9-90.86c12.14 0 21.99 9.85 21.99 21.989 0 12.15-9.85 22-21.99 22-12.16 0-22-9.85-22-22 0-12.139 9.84-21.989 22-21.989zm-115.77-19.97c6.66 0 12.06 5.4 12.06 12.051 0 6.67-5.4 12.06-12.06 12.06s-12.06-5.39-12.06-12.06c0-6.651 5.4-12.051 12.06-12.051zm-96.47-112.4c6.65 0 12.05 5.4 12.05 12.06s-5.4 12.061-12.05 12.061c-6.66 0-12.06-5.4-12.06-12.061 0-6.66 5.4-12.06 12.06-12.06zm465.49-103.7c6.649 0 12.05 5.4 12.05 12.05 0 6.67-5.4 12.07-12.05 12.07-6.67 0-12.07-5.4-12.07-12.07 0-6.65 5.4-12.05 12.07-12.05zm62.71 38.3c12.13 0 21.979 9.84 21.979 21.98 0 12.16-9.85 22.01-21.979 22.01-12.16 0-22.01-9.85-22.01-22.01 0-12.14 9.85-21.98 22.01-21.98zm-33.22 83.49c6.649 0 12.05 5.39 12.05 12.05 0 6.67-5.4 12.07-12.05 12.07-6.671 0-12.07-5.4-12.07-12.07 0-6.66 5.4-12.05 12.07-12.05zm-119.54 36.59c6.649 0 12.05 5.4 12.05 12.061 0 6.659-5.4 12.06-12.05 12.06-6.67 0-12.07-5.4-12.07-12.06 0-6.661 5.4-12.061 12.07-12.061zm-96.67-27.93c6.65 0 12.05 5.39 12.05 12.05s-5.4 12.06-12.05 12.06c-6.67 0-12.07-5.399-12.07-12.06s5.4-12.05 12.07-12.05zm34.88-166.52c12.14 0 21.989 9.85 21.989 21.99 0 12.15-9.85 22-21.989 22-12.16 0-22.01-9.85-22.01-22 0-12.14 9.85-21.99 22.01-21.99zm-92.19 65.44c6.66 0 12.06 5.4 12.06 12.05 0 6.67-5.4 12.06-12.06 12.06-6.67 0-12.06-5.39-12.06-12.06 0-6.65 5.39-12.05 12.06-12.05zm-126.49 14.21c6.66 0 12.06 5.4 12.06 12.05 0 6.67-5.4 12.06-12.06 12.06s-12.06-5.39-12.06-12.06c0-6.65 5.4-12.05 12.06-12.05zm98.75-144.88c6.65 0 12.05 5.4 12.05 12.06s-5.4 12.06-12.05 12.06c-6.67 0-12.07-5.4-12.07-12.06s5.4-12.06 12.07-12.06zm-75.42 24.56c12.14 0 21.98 9.84 21.98 21.98 0 12.16-9.84 22.01-21.98 22.01-12.17 0-22.01-9.85-22.01-22.01 0-12.14 9.84-21.98 22.01-21.98zm-86.95 51.42c6.66 0 12.06 5.39 12.06 12.05s-5.4 12.06-12.06 12.06c-6.67 0-12.06-5.4-12.06-12.06s5.39-12.05 12.06-12.05z"/><path d="m765.78 399.21v132.05s-1.811 65.12-65.12 106.73c-63.311 41.6-168.22 72.35-256.86 50.64-88.63-21.7-322.88-174.55-338.26-189.93 0 0-21.7-16.28-21.7-46.12v-129.34s-1.05-7.13.14-18.25c0 0 3.47 47.71 103.11 103.12 109.36 60.82 195.21 123.15 298.32 123.15 103.1 0 171.41-26.97 211.63-54.26 50.65-34.37 64.75-66.08 64.75-114.33h.01c2.55 10.43 3.98 22.5 3.98 36.54zm-32.27 113.93c0-6.659-5.399-12.06-12.05-12.06-6.67 0-12.07 5.4-12.07 12.06s5.4 12.061 12.07 12.061c6.65-.001 12.05-5.401 12.05-12.061zm-58.77 93.49c0-6.649-5.4-12.05-12.061-12.05s-12.06 5.4-12.06 12.05c0 6.67 5.399 12.07 12.06 12.07s12.061-5.4 12.061-12.07zm-102.5-33.73c0-6.65-5.4-12.051-12.061-12.051s-12.06 5.4-12.06 12.051c0 6.659 5.399 12.06 12.06 12.06s12.061-5.4 12.061-12.06zm-82.59 67.62c0-6.649-5.4-12.05-12.051-12.05-6.659 0-12.06 5.4-12.06 12.05 0 6.671 5.4 12.061 12.06 12.061 6.651-.001 12.051-5.391 12.051-12.061zm-126.96-80.92c0-12.14-9.85-21.989-21.99-21.989-12.16 0-22 9.85-22 21.989 0 12.15 9.84 22 22 22 12.14 0 21.99-9.85 21.99-22zm-125.7-29.91c0-6.65-5.4-12.051-12.06-12.051s-12.06 5.4-12.06 12.051c0 6.67 5.4 12.06 12.06 12.06s12.06-5.39 12.06-12.06zm-96.48-112.39c0-6.66-5.4-12.06-12.05-12.06-6.66 0-12.06 5.4-12.06 12.06s5.4 12.061 12.06 12.061c6.65-.001 12.05-5.401 12.05-12.061z"/><path d="m761.8 362.67h-.01c0 48.25-14.1 79.96-64.75 114.33-40.22 27.29-108.53 54.26-211.63 54.26-103.11 0-188.96-62.33-298.32-123.15-99.64-55.41-103.11-103.12-103.11-103.12 2.29-21.53 12.98-58.03 55.93-86.66 65.12-43.41 142.9-72.36 226.11-57.89 83.21 14.48 296.65 117.58 329.21 132.05 26.24 11.66 56.01 26.85 66.57 70.18zm-83.16-.85c0-12.14-9.85-21.98-21.979-21.98-12.16 0-22.01 9.84-22.01 21.98 0 12.16 9.85 22.01 22.01 22.01 12.129 0 21.979-9.85 21.979-22.01zm-43.15 73.56c0-6.66-5.4-12.05-12.05-12.05-6.671 0-12.07 5.39-12.07 12.05 0 6.67 5.399 12.07 12.07 12.07 6.65 0 12.05-5.4 12.05-12.07zm-29.49-121.79c0-6.65-5.4-12.05-12.05-12.05-6.67 0-12.07 5.4-12.07 12.05 0 6.67 5.4 12.07 12.07 12.07 6.65 0 12.05-5.4 12.05-12.07zm-90.05 158.39c0-6.66-5.4-12.061-12.05-12.061-6.67 0-12.07 5.4-12.07 12.061 0 6.659 5.4 12.06 12.07 12.06 6.65 0 12.05-5.4 12.05-12.06zm-51.85-184.52c0-12.14-9.85-21.99-21.989-21.99-12.16 0-22.01 9.85-22.01 21.99 0 12.15 9.85 22 22.01 22 12.139 0 21.989-9.85 21.989-22zm-44.82 156.58c0-6.66-5.4-12.05-12.05-12.05-6.67 0-12.07 5.39-12.07 12.05s5.4 12.06 12.07 12.06c6.65 0 12.05-5.4 12.05-12.06zm-57.3-101.08c0-6.65-5.4-12.05-12.06-12.05-6.67 0-12.06 5.4-12.06 12.05 0 6.67 5.39 12.06 12.06 12.06 6.66 0 12.06-5.39 12.06-12.06zm-27.75-130.66c0-6.66-5.4-12.06-12.05-12.06-6.67 0-12.07 5.4-12.07 12.06s5.4 12.06 12.07 12.06c6.65 0 12.05-5.4 12.05-12.06zm-65.49 34.48c0-12.14-9.84-21.98-21.98-21.98-12.17 0-22.01 9.84-22.01 21.98 0 12.16 9.84 22.01 22.01 22.01 12.14 0 21.98-9.85 21.98-22.01zm-33.25 110.39c0-6.65-5.4-12.05-12.06-12.05s-12.06 5.4-12.06 12.05c0 6.67 5.4 12.06 12.06 12.06s12.06-5.39 12.06-12.06zm-63.62-68.9c0-6.66-5.4-12.05-12.06-12.05-6.67 0-12.06 5.39-12.06 12.05s5.39 12.06 12.06 12.06c6.66 0 12.06-5.4 12.06-12.06z"/></g><g fill="none"><g stroke="#000"><path d="m761.8 362.67c2.55 10.43 3.98 22.5 3.98 36.54v132.05s-1.811 65.12-65.12 106.73c-63.311 41.6-168.22 72.35-256.86 50.64-88.63-21.7-322.88-174.55-338.26-189.93 0 0-21.7-16.28-21.7-46.12v-129.34s-1.05-7.13.14-18.25c2.29-21.53 12.98-58.03 55.93-86.66 65.12-43.41 142.9-72.36 226.11-57.89 83.21 14.48 296.65 117.58 329.21 132.05 26.24 11.66 56.01 26.85 66.57 70.18z" stroke-width="21.706"/><path d="m83.98 304.99s3.47 47.71 103.11 103.12c109.36 60.82 195.21 123.15 298.32 123.15 103.1 0 171.41-26.97 211.63-54.26 50.65-34.37 64.75-66.08 64.75-114.33" stroke-width="21.706"/><path d="m419.28 444.04c0 6.66-5.4 12.06-12.05 12.06-6.67 0-12.07-5.399-12.07-12.06s5.4-12.05 12.07-12.05c6.65 0 12.05 5.39 12.05 12.05zm-182.29 85.65c0 6.67-5.4 12.06-12.06 12.06s-12.06-5.39-12.06-12.06c0-6.65 5.4-12.051 12.06-12.051 6.66.001 12.06 5.401 12.06 12.051zm-96.48-112.39c0 6.66-5.4 12.061-12.05 12.061-6.66 0-12.06-5.4-12.06-12.061 0-6.66 5.4-12.06 12.06-12.06 6.65 0 12.05 5.4 12.05 12.06zm349.14 223.22c0 6.671-5.4 12.061-12.051 12.061-6.659 0-12.06-5.39-12.06-12.061 0-6.649 5.4-12.05 12.06-12.05 6.651 0 12.051 5.4 12.051 12.05zm26.3-168.54c0 6.659-5.4 12.06-12.05 12.06-6.67 0-12.07-5.4-12.07-12.06s5.4-12.061 12.07-12.061c6.65.001 12.05 5.401 12.05 12.061zm90.05-158.39c0 6.67-5.4 12.07-12.05 12.07-6.67 0-12.07-5.4-12.07-12.07 0-6.65 5.4-12.05 12.07-12.05 6.65 0 12.05 5.4 12.05 12.05zm29.49 121.79c0 6.67-5.4 12.07-12.05 12.07-6.671 0-12.07-5.4-12.07-12.07 0-6.66 5.399-12.05 12.07-12.05 6.65 0 12.05 5.39 12.05 12.05zm-400-78.21c0 6.67-5.4 12.06-12.06 12.06s-12.06-5.39-12.06-12.06c0-6.65 5.4-12.05 12.06-12.05s12.06 5.4 12.06 12.05zm126.49-14.21c0 6.67-5.4 12.06-12.06 12.06-6.67 0-12.06-5.39-12.06-12.06 0-6.65 5.39-12.05 12.06-12.05 6.66 0 12.06 5.4 12.06 12.05zm-93.24-96.18c0 12.16-9.84 22.01-21.98 22.01-12.17 0-22.01-9.85-22.01-22.01 0-12.14 9.84-21.98 22.01-21.98 12.14 0 21.98 9.84 21.98 21.98zm195.36 40.68c0 12.15-9.85 22-21.989 22-12.16 0-22.01-9.85-22.01-22 0-12.14 9.85-21.99 22.01-21.99 12.139 0 21.989 9.85 21.989 21.99zm-101.41 272.14c0 12.15-9.85 22-21.99 22-12.16 0-22-9.85-22-22 0-12.14 9.84-21.989 22-21.989 12.14-.001 21.99 9.849 21.99 21.989zm315.95-197.78c0 12.16-9.85 22.01-21.979 22.01-12.16 0-22.01-9.85-22.01-22.01 0-12.14 9.85-21.98 22.01-21.98 12.129 0 21.979 9.84 21.979 21.98zm-506.77-73.55c0 6.66-5.4 12.06-12.06 12.06-6.67 0-12.06-5.4-12.06-12.06s5.39-12.05 12.06-12.05c6.66 0 12.06 5.39 12.06 12.05zm162.36-75.97c0 6.66-5.4 12.06-12.05 12.06-6.67 0-12.07-5.4-12.07-12.06s5.4-12.06 12.07-12.06c6.65 0 12.05 5.4 12.05 12.06zm238.01 360.6c0 6.659-5.4 12.06-12.061 12.06s-12.06-5.4-12.06-12.06c0-6.65 5.399-12.051 12.06-12.051s12.061 5.401 12.061 12.051zm102.5 33.73c0 6.67-5.4 12.07-12.061 12.07s-12.06-5.4-12.06-12.07c0-6.649 5.399-12.05 12.06-12.05s12.061 5.4 12.061 12.05zm58.77-93.49c0 6.66-5.399 12.061-12.05 12.061-6.67 0-12.07-5.4-12.07-12.061 0-6.659 5.4-12.06 12.07-12.06 6.65 0 12.05 5.4 12.05 12.06z" stroke-width="14.471"/></g><path d="m0 0h850.394v850.394h-850.394z"/></g></svg>