<svg height="850.394" viewBox="0 0 850.394 850.394" width="850.394" xmlns="http://www.w3.org/2000/svg"><path d="m299.9 532.11a5.896 5.896 0 1 1 0 11.79 5.896 5.896 0 0 1 0-11.79z" fill="#ed1d31"/><path d="m437.56 612.76c-.34.07-.689.12-1.05.181l2.34-.15a28.5 28.5 0 0 1 -1.29-.031zm75.46-179.99 4.99 2.36c.05.851.33 1.771.33 3.82 0 14.49 12.311 26.25 27.5 26.25 15.15 0 27.47-11.76 27.47-26.25 0-3.96.28-5.78-.699-8.09l1.35-4.391c-8.28-3.89-17.3-6.08-26.95-5.87-11.971.281-24.221 4.811-33.991 12.171zm-226.12-3.66 4.72 3.199c-.7 2.03-.47 3.86-.47 7.45 0 14.5 12.32 26.25 27.49 26.25 15.19 0 25.36-19.51 25.36-34.01l1.31-2.47c-8.52-4.94-18.27-7.89-27.85-8.11-11.08-.239-21.32 2.681-30.56 7.691zm378.64-34.27c.58 23.01.83 36.66.83 56.12 0 35.3-5.58 70.021-15.03 102.98-29.23 102.01-95.53 187.25-148.46 220.99-26 12.551-45.81 10.761-75.87 10.761-27.8 0-45.6 2.77-69.98-8.03-57.14-32.021-124.49-117.7-154.1-221.23-9.65-33.68-15.29-69.25-15.29-105.47 0-12 .02-33.03.19-53.33.09-11.38.23-22.52.45-31.72l-2.49-1.93c26.15-33.46 63.87-72.35 63.87-72.35 21.13-15.5 187.359-70.31 236.6-104.69.55.48 1.57.91 2.87 1.29 10.84 6.69 55.09 37.02 113.561 117.75 10.84 14.98 53.13 48.18 62.81 87.14.009.579.029 1.149.039 1.719zm-81.73 203.8c0-3.26-2.64-5.899-5.899-5.899s-5.9 2.64-5.9 5.899c0 3.261 2.641 5.891 5.9 5.891s5.899-2.631 5.899-5.891zm-5.92-72.54a5.895 5.895 0 1 0 -11.79 0 5.896 5.896 0 0 0 11.79 0zm-9.09 141.69c0-3.26-2.64-5.9-5.899-5.9-3.261 0-5.891 2.641-5.891 5.9s2.63 5.9 5.891 5.9a5.898 5.898 0 0 0 5.899-5.9zm-33.77-57.36c0-3.26-2.641-5.899-5.9-5.899s-5.899 2.64-5.899 5.899c0 3.261 2.64 5.9 5.899 5.9s5.9-2.64 5.9-5.9zm-14.48 32.7c0-3.26-2.63-5.899-5.89-5.899s-5.9 2.64-5.9 5.899 2.641 5.9 5.9 5.9 5.89-2.64 5.89-5.9zm-4.65-325.03c0-3.26-2.641-5.89-5.9-5.89s-5.9 2.63-5.9 5.89 2.641 5.9 5.9 5.9 5.9-2.64 5.9-5.9zm-1.78 392.04a5.896 5.896 0 0 0 -11.79 0 5.895 5.895 0 1 0 11.79 0zm-62.32-174.14c0-3.26-2.64-5.9-5.899-5.9-3.261 0-5.9 2.641-5.9 5.9s2.64 5.9 5.9 5.9a5.898 5.898 0 0 0 5.899-5.9zm-19.16 206.84a5.896 5.896 0 0 0 -11.789 0 5.889 5.889 0 0 0 5.89 5.891 5.89 5.89 0 0 0 5.899-5.891zm-57.89-8.04c0-3.26-2.64-5.899-5.9-5.899s-5.9 2.64-5.9 5.899c0 3.25 2.64 5.891 5.9 5.891a5.897 5.897 0 0 0 5.9-5.891zm-10.85-420.8c0-3.25-2.65-5.89-5.9-5.89s-5.9 2.64-5.9 5.89 2.65 5.9 5.9 5.9 5.9-2.65 5.9-5.9zm-17.03 325.91a5.895 5.895 0 1 0 -11.79 0 5.895 5.895 0 1 0 11.79 0zm-41.07-101.91c0-3.25-2.64-5.89-5.9-5.89a5.896 5.896 0 1 0 0 11.79c3.26 0 5.9-2.64 5.9-5.9zm-7.17 126.57a5.89 5.89 0 0 0 -5.9-5.891 5.89 5.89 0 0 0 -5.9 5.891c0 3.26 2.64 5.899 5.9 5.899a5.897 5.897 0 0 0 5.9-5.899zm-15.01-69.15a5.89 5.89 0 0 0 -5.9-5.89c-3.26 0-5.9 2.63-5.9 5.89s2.64 5.9 5.9 5.9 5.9-2.64 5.9-5.9z" fill="#ffeec8"/><circle cx="445.9" cy="536" fill="#ed1d31" r="5.9"/><path d="m665.89 394.84 2.71-.02c6.051-2.16 12.83-2.9 20.221-1.72 28.14 4.51 24.35 36.1 16.609 51.86-18.79 38.35-10.189 52.46-12.58 81.72-.92 11.12-13.6 32.73-40.09 27.67l-1.42-.409c9.45-32.96 15.03-67.681 15.03-102.98 0-19.46-.25-33.11-.83-56.12h.35z" fill="#ffeec8"/><path d="m489.13 188.23c-1.68-1.04-2.56-1.51-2.56-1.51-.101.07-.21.14-.311.22-49.24 34.38-215.47 89.19-236.6 104.69 0 0-37.72 38.89-63.87 72.35-9.38 12.02-17.27 23.34-21.39 31.9l-2.47-79.75c0-127.23 103.85-201.07 103.85-201.07 12.01-8.17 20.04-12.27 20.04-12.27 52.96-31.51 121.46-42.62 208.82-32.43 105.481 12.29 186.441 117.36 201.871 248.14 2.5 21.26-4.01 52.11-7.689 74.6-7.391-1.18-14.17-.44-20.221 1.72l-2.71.02c-.12-.57-.25-1.15-.39-1.72-9.68-38.96-51.97-72.16-62.81-87.14-58.47-80.73-102.72-111.06-113.56-117.75z" fill="#9c5c25"/><path d="m577.91 592.74c3.26 0 5.899 2.64 5.899 5.899 0 3.261-2.64 5.891-5.899 5.891s-5.9-2.63-5.9-5.891a5.898 5.898 0 0 1 5.9-5.899zm-5.91-72.54c3.25 0 5.89 2.64 5.89 5.899a5.895 5.895 0 1 1 -11.79 0 5.898 5.898 0 0 1 5.9-5.899z" fill="#ed1d31"/><path d="m573.96 426.47-1.35 4.391c.979 2.31.699 4.13.699 8.09 0 14.49-12.319 26.25-27.47 26.25-15.189 0-27.5-11.76-27.5-26.25 0-2.05-.28-2.97-.33-3.82l-4.99-2.36c9.771-7.359 22.021-11.89 33.99-12.169 9.651-.212 18.671 1.978 26.951 5.868zm-18.36 12.72c0-4.9-4.439-8.851-9.92-8.851-5.479 0-9.92 3.95-9.92 8.851 0 4.88 4.44 8.84 9.92 8.84s9.92-3.96 9.92-8.84z" fill="#fff"/><path d="m562.9 661.89c3.26 0 5.899 2.641 5.899 5.9s-2.64 5.9-5.899 5.9c-3.261 0-5.891-2.641-5.891-5.9s2.631-5.9 5.891-5.9z" fill="#ed1d31"/><path d="m545.68 430.34c5.48 0 9.92 3.95 9.92 8.851 0 4.88-4.439 8.84-9.92 8.84-5.479 0-9.92-3.96-9.92-8.84 0-4.901 4.44-8.851 9.92-8.851z" fill="#231f20"/><circle cx="529.13" cy="610.43" fill="#ed1d31" r="5.9"/><path d="m514.66 637.23c3.26 0 5.89 2.64 5.89 5.899s-2.63 5.9-5.89 5.9-5.9-2.641-5.9-5.9 2.64-5.899 5.9-5.899zm-4.66-325.02c3.26 0 5.9 2.63 5.9 5.89s-2.641 5.9-5.9 5.9-5.9-2.64-5.9-5.9a5.89 5.89 0 0 1 5.9-5.89zm-1.78 392.03c3.261 0 5.9 2.64 5.9 5.899a5.896 5.896 0 0 1 -11.79 0 5.896 5.896 0 0 1 5.89-5.899zm-81.48 32.7c3.26 0 5.899 2.64 5.899 5.899s-2.64 5.891-5.899 5.891c-3.25 0-5.89-2.631-5.89-5.891s2.64-5.899 5.89-5.899zm-57.89-8.04c3.26 0 5.9 2.64 5.9 5.899 0 3.25-2.64 5.891-5.9 5.891s-5.9-2.641-5.9-5.891a5.898 5.898 0 0 1 5.9-5.899zm-10.85-420.79c3.25 0 5.9 2.64 5.9 5.89s-2.65 5.9-5.9 5.9-5.9-2.65-5.9-5.9 2.65-5.89 5.9-5.89zm-17.03 325.91c3.26 0 5.9 2.641 5.9 5.891a5.896 5.896 0 1 1 -5.9-5.891z" fill="#ed1d31"/><path d="m345.31 429.53-1.31 2.47c0 14.5-10.17 34.01-25.36 34.01-15.17 0-27.49-11.75-27.49-26.25 0-3.59-.23-5.42.47-7.45l-4.72-3.199c9.24-5.01 19.48-7.93 30.56-7.69 9.58.219 19.33 3.169 27.85 8.109zm-16.84 9.72c0-4.89-4.44-8.85-9.92-8.85s-9.92 3.96-9.92 8.85 4.44 8.84 9.92 8.84 9.92-3.95 9.92-8.84z" fill="#fff"/><path d="m318.55 430.4c5.48 0 9.92 3.96 9.92 8.85s-4.44 8.84-9.92 8.84-9.92-3.95-9.92-8.84 4.44-8.85 9.92-8.85z" fill="#231f20"/><path d="m292.73 658.68c3.26 0 5.9 2.63 5.9 5.891 0 3.26-2.64 5.899-5.9 5.899s-5.9-2.64-5.9-5.899a5.89 5.89 0 0 1 5.9-5.891zm-15.01-69.15c3.26 0 5.9 2.63 5.9 5.89s-2.64 5.9-5.9 5.9-5.9-2.641-5.9-5.9 2.64-5.89 5.9-5.89z" fill="#ed1d31"/><path d="m202.93 556.43-2.47.71c-26.49 5.061-39.17-16.55-40.09-27.67-2.39-29.27 6.21-43.37-12.59-81.729-7.72-15.76-11.51-47.34 16.62-51.86 7.39-1.18 14.17-.43 20.22 1.73l3.21.02c-.17 20.3-.19 41.33-.19 53.33 0 36.219 5.64 71.789 15.29 105.469z" fill="#ffeec8"/><g fill="none"><g stroke="#231f20"><path d="m260.43 451.57c7.5-9.061 16.39-17 26.47-22.46 9.24-5.01 19.48-7.93 30.56-7.69 9.58.22 19.33 3.17 27.85 8.11 8.51 4.939 15.79 11.87 20.42 20.06" stroke-linecap="square" stroke-miterlimit="10" stroke-width="14"/><path d="m344 432c0 14.5-10.17 34.01-25.36 34.01-15.17 0-27.49-11.75-27.49-26.25 0-3.59-.23-5.42.47-7.45m312.42 18.43c-8.38-10.12-18.5-18.851-30.08-24.271-8.28-3.89-17.3-6.08-26.95-5.87-11.97.28-24.22 4.81-33.99 12.169-5.85 4.421-10.819 9.86-14.289 16.011" stroke-linecap="square" stroke-miterlimit="10" stroke-width="14"/><path d="m518.01 435.13c.05.851.33 1.771.33 3.82 0 14.49 12.311 26.25 27.5 26.25 15.15 0 27.47-11.76 27.47-26.25 0-3.96.28-5.78-.699-8.09" stroke-linecap="square" stroke-miterlimit="10" stroke-width="14"/><path d="m184.62 397.61c-6.05-2.16-12.83-2.91-20.22-1.73-28.13 4.52-24.34 36.101-16.62 51.86 18.8 38.359 10.2 52.46 12.59 81.729.92 11.12 13.6 32.73 40.09 27.67m468.14-162.319c6.051-2.16 12.83-2.9 20.221-1.72 28.14 4.51 24.35 36.1 16.609 51.86-18.79 38.35-10.189 52.46-12.58 81.72-.92 11.12-13.6 32.73-40.09 27.67m-281.86 128.27c34.57 13.78 89.46 12.17 118.87-.67" stroke-width="21"/><path d="m665.42 390.11c.03 1.02.05 2.03.08 3.01.01.58.03 1.15.04 1.72.58 23.01.83 36.66.83 56.12 0 35.3-5.58 70.021-15.03 102.98-29.23 102.01-95.53 187.25-148.46 220.99-26 12.551-45.81 10.761-75.87 10.761-27.8 0-45.6 2.77-69.98-8.03-57.14-32.021-124.49-117.7-154.1-221.23-9.65-33.68-15.29-69.25-15.29-105.47 0-12 .02-33.03.19-53.33.09-11.38.23-22.52.45-31.72" stroke-width="21"/><path d="m437.56 612.76c13.101-2.42 10.761-10.18 24.811-6.779 12.12 2.939 24.99 8.989 28.01-9.971 2.08-13.04-7.72-14.76-12.939-25.24m-39.882 41.99c.421.021.851.03 1.29.03l-2.34.15c.36-.06.71-.11 1.05-.18zm-41-162.61c21.75 23.869 15.17 79.93 5.44 109.119l-4.09 11.37c-5.22 10.471-15.02 12.181-12.94 25.23 3.02 18.95 15.88 12.899 28 9.979 14-3.39 10.83 6.341 24.589 6.91" stroke-width="14"/><path d="m328.47 439.25c0 4.89-4.44 8.84-9.92 8.84s-9.92-3.95-9.92-8.84 4.44-8.85 9.92-8.85 9.92 3.96 9.92 8.85zm227.13-.06c0 4.88-4.439 8.84-9.92 8.84-5.479 0-9.92-3.96-9.92-8.84 0-4.9 4.44-8.851 9.92-8.851 5.48.001 9.92 3.951 9.92 8.851z" stroke-width="8.577"/><path d="m382.14 406.34c-11.72-24.7-57.62-34.34-80.86-29.69-21.84 4.34-32.66 6.97-55.44 24.63m231.42-.35c11.73-24.7 57.63-34.34 80.86-29.7 21.87 4.36 32.689 6.98 55.45 24.63" stroke-width="14"/><path d="m688.82 393.1c3.68-22.49 10.189-53.34 7.689-74.6-15.429-130.78-96.389-235.85-201.869-248.14-87.36-10.19-155.86.92-208.82 32.43 0 0-8.03 4.1-20.04 12.27 0 0-103.85 73.84-103.85 201.07l2.47 79.75c4.12-8.56 12.01-19.88 21.39-31.9 26.15-33.46 63.87-72.35 63.87-72.35 21.13-15.5 187.359-70.31 236.6-104.69.101-.08.21-.15.311-.22 0 0 .88.47 2.56 1.51 10.84 6.69 55.09 37.02 113.561 117.75 10.84 14.98 53.13 48.18 62.81 87.14.14.57.27 1.15.39 1.72a63.629 63.629 0 0 1 1.5 10.74" stroke-width="21"/><path d="m505.78 190.38c-2.45.03-11.641-.69-16.65-2.15-1.3-.38-2.32-.81-2.87-1.29-.2-.17-.33-.35-.399-.53 15.1-14.7 27.029-38.71 27.029-63.05" stroke-width="21"/><g stroke-width="2"><path d="m305.8 538c0 3.26-2.64 5.9-5.9 5.9a5.896 5.896 0 0 1 0-11.79c3.26 0 5.9 2.64 5.9 5.89zm58.1-224c0 3.25-2.65 5.9-5.9 5.9s-5.9-2.65-5.9-5.9 2.65-5.89 5.9-5.89 5.9 2.64 5.9 5.89zm152 4.1c0 3.26-2.641 5.9-5.9 5.9s-5.9-2.64-5.9-5.9 2.641-5.89 5.9-5.89 5.9 2.63 5.9 5.89zm-217.27 346.47c0 3.26-2.64 5.899-5.9 5.899s-5.9-2.64-5.9-5.899a5.89 5.89 0 0 1 5.9-5.891 5.891 5.891 0 0 1 5.9 5.891zm-15.01-69.15c0 3.26-2.64 5.9-5.9 5.9s-5.9-2.641-5.9-5.9 2.64-5.89 5.9-5.89 5.9 2.63 5.9 5.89zm63.25 44.49a5.896 5.896 0 1 1 -5.9-5.891 5.897 5.897 0 0 1 5.9 5.891zm27.88 94.89c0 3.25-2.64 5.891-5.9 5.891s-5.9-2.641-5.9-5.891c0-3.26 2.64-5.899 5.9-5.899a5.897 5.897 0 0 1 5.9 5.899zm139.37-24.66a5.896 5.896 0 0 1 -11.79 0 5.895 5.895 0 1 1 11.79 0zm-81.48 32.7a5.89 5.89 0 0 1 -5.899 5.891c-3.25 0-5.89-2.631-5.89-5.891a5.895 5.895 0 1 1 11.789 0z"/><circle cx="529.13" cy="610.43" r="5.9"/><path d="m566.1 526.1a5.896 5.896 0 0 0 11.79 0 5.895 5.895 0 1 0 -11.79 0z"/><circle cx="445.9" cy="536" r="5.9"/><path d="m557.01 667.79c0 3.26 2.63 5.9 5.891 5.9 3.26 0 5.899-2.641 5.899-5.9s-2.64-5.9-5.899-5.9a5.89 5.89 0 0 0 -5.891 5.9zm15-69.15c0 3.261 2.641 5.891 5.9 5.891s5.899-2.63 5.899-5.891c0-3.26-2.64-5.899-5.899-5.899s-5.9 2.639-5.9 5.899zm-63.25 44.49c0 3.26 2.641 5.9 5.9 5.9s5.89-2.641 5.89-5.9-2.63-5.899-5.89-5.899-5.9 2.639-5.9 5.899z"/></g></g><path d="m0 0h850.394v850.394h-850.394z"/></g></svg>