<svg height="850" viewBox="0 0 850 850" width="850" xmlns="http://www.w3.org/2000/svg"><path d="m485 264.4 3 30.7 2.5 26.8 1 11 .5 9 .3 6.5v2.5l-.3 1.7-2 4.8-4.2 9-92 31.7-11.3-145-82.2-126.7 140.2-48.3 19.8 148 24 38.5z" fill="#a9d7f3"/><path d="m483 372.6 2.8-6.2 4.2-9 2-4.8.3-1.7v-2.5l-.3-6.5-.5-9-1-11-2.5-26.8-3-30.7-3.5-38.3-1.5-18.7-1.2-17.8-.8-16.2-.5-14.3.3-6 .2-5.5.5-4.7.5-3.8.5-2 .8-2 1.7-4 2.5-3.5 2.8-3.2 3-3 3.2-2.3 3.5-2 1.8-.7 1.7-.5 1.8-.5h1.7l1.8-.3 1.7.3 1.8.2 1.7.5 1.5.8 1.5 1 1.5 1.2 1.3 1.3 1.2 1.7 1.3 1.8 1 2.2.7 2.5.8 2.5.5 3 5.7 35.5 6.5 43.8 7 49.5 7.3 52 3.5-.5h4.2l4.5.5 4.8 1 2.5.7 2.2 1 2.3 1 2 1.3 2 1.5 1.7 1.5 1.8 1.7 1.2 1.8 1.3 2.2.7 2.3 1.3 4.2 1.7-1.2 2-.8 2.3-.5h2.5l2.7.5 2.8.8 3 1 2.7 1.5 3 1.5 2.8 2 2.7 2.2 2.5 2.8 2.3 2.7 2 3 1.5 3.3 1.5 3.2 1.5 5.5 2 8 2.5 6.8 2.5 8.2 2.5 9 2.2 9.8 2.3 10.2 2.2 10.5 4 21.3 3.5 19.5 2.5 16.2 2.5 15.3-3.7 10-4 9.2-4.3 8.8-4.5 8-4.5 7.5-5 7.2-5 6.8-5.2 6.7-5.5 6.3-5.8 6.2-11.7 12.8-12.3 13.2-6.2 7-6.3 7.3-7 7.7-10.7 11.8-6.3 7.2-6.7 8-7.5 9-7.8 9.8-7.7 10.5-8 11.5-8.3 12.2-8 13-7.7 13.8-3.8 7-3.5 7.2-3.7 7.5-3.5 7.8-3.3 7.7-3.2 8-204.5-36.7 11-21 5.7-11.8 2.8-6.2 2.7-6 2.5-6.3 2.3-6.2 2-6.3 1.7-6 1.3-6 .7-6 .3-5.5-.3-2.7-.2-2.8-.8-5.2-.7-5-2.3-10-2.7-9.8-2.8-10-3.2-10.2-3-11-2.8-11.8-1.5-6.2-1.2-6.5-.8-4.8-.5-4.5-.5-4.5-.2-4.7v-9l.2-9 .8-9 1.2-9 1.3-9 1.2-9 3-18 1.3-9 1.2-9.3.8-9 .5-9.2v-9.3l-.5-9.5v-7.7l.2-4.3.5-4.2 1.8-9 2-9.3 2.5-9.5 2.7-9 4.8-16.2 4-14.3 2-8 2-8.2 2-9 1.7-9.5 1.8-10.3 1.5-11.2 1-7.8 1.5-6.7.7-2.8 1-2.5 1-2.5 1-2 1-1.5 1.3-1.7 1-1.3 1.2-1 1.3-.7 1.2-.8 1.3-.5 1.2-.2 2.5-.3 2.8.3 2.5.5 2.5 1 4.5 2 3.7 2 3.5 1.7 3 2 2.8 2.3 2.7 2.5 2.3 2.5 2 2.7 2 2.8 1.5 3 1.5 3 1.2 3 1 3 .8 3 .5 3 .2 3v6l-.5 5.5-.7 5.7-1.8 11.3-1.7 11-1.8 10.7-.5 5.5-.2 5.3v5.5l.2 5.2.8 5.5 1 5.5 1.7 5.3 2.3 5.5 6 12.7 3.5 6.8 2.7 4.5 2 2.2 2 2.3 2.3 2 2.2 1.7 2.5 1.5 2.5 1.5 2.5 1.3 2.8 1.2 2.7 1 2.8.8 3 .5 2.7.5 3 .5h9l6-.8 6-1.2 6-1.8 5.8-2.5 5.7-2.7 5.3-3.3 4.7-3.7 2.5-2 2-2.3 1.5-1.2 1.8-1.5 2.2-2.5 2.8-3.5 3.2-4.5 3.5-5.8z" fill="#ffeec8"/><g fill="none" stroke="#231f20" stroke-linecap="round" stroke-miterlimit="10" stroke-width="21"><path d="m485.8 366.4-92 31.7-11.3-145-82.2-126.7 140.2-48.3 19.8 148 24 38.5m272-93.5h-171.5m59.5-54.7-60.8 55 61 55m-552-56h171.3m-59.5-54.8 60.7 55-60.7 55"/><path d="m483 372.6-4 7-3.5 5.8-3.2 4.5-2.8 3.5-2.2 2.5-1.8 1.5-1.5 1.2-2 2.3-2.5 2-4.7 3.7-5.3 3.3-5.7 2.7-5.8 2.5-6 1.8-6 1.2-6 .8h-9l-3-.5-2.7-.5-3-.5-2.8-.8-2.7-1-2.8-1.2-2.5-1.3-2.5-1.5-2.5-1.5-2.2-1.7-2.3-2-2-2.3-2-2.2-2.7-4.5-3.5-6.8-6-12.7-2.3-5.5-1.7-5.3-1-5.5-.8-5.5-.2-5.2v-5.5l.2-5.3.5-5.5 1.8-10.7 1.7-11 1.8-11.3.7-5.7.5-5.5v-6l-.2-3-.5-3-.8-3-1-3-1.2-3-1.5-3-1.5-3-2-2.8-2-2.7-2.3-2.5-2.7-2.5-2.8-2.3-3-2-3.5-1.7-3.7-2-4.5-2-2.5-1-2.5-.5-2.8-.3-2.5.3-1.2.2-1.3.5-1.2.8-1.3.7-1.2 1-1 1.3-1.3 1.7-1 1.5-1 2-1 2.5-1 2.5-.7 2.8-1.5 6.7-1 7.8-1.5 11.2-1.8 10.3-1.7 9.5-2 9-2 8.2-2 8-4 14.3-4.8 16.2-2.7 9-2.5 9.5-2 9.3-1.8 9-.5 4.2-.2 4.3v7.7l.5 9.5v9.3l-.5 9.2-.8 9-1.2 9.3-1.3 9-3 18-1.2 9-1.3 9-1.2 9-.8 9-.2 9v9l.2 4.7.5 4.5.5 4.5.8 4.8 1.2 6.5 1.5 6.2 2.8 11.8 3 11 3.2 10.2 2.8 10 2.7 9.8 2.3 10 .7 5 .8 5.2.2 2.8.3 2.7-.3 5.5-.7 6-1.3 6-1.7 6-2 6.3-2.3 6.2-2.5 6.3-2.7 6-2.8 6.2-5.7 11.8-11 21"/><path d="m484.5 486.6 37.8-43.5 26-30.5 8.5-10.2 2.5-3.3 1-1.5-.5-1.5-11-81.2-7.3-52-7-49.5-6.5-43.8-5.7-35.5-.5-3-.8-2.5-.7-2.5-1-2.2-1.3-1.8-1.2-1.7-1.3-1.3-1.5-1.2-1.5-1-1.5-.8-1.7-.5-1.8-.2-1.7-.3-1.8.3h-1.7l-1.8.5-1.7.5-1.8.7-3.5 2-3.2 2.3-3 3-2.8 3.2-2.5 3.5-1.7 4-.8 2-.5 2-.5 3.8-.5 4.7-.2 5.5-.3 6 .5 14.3.8 16.2 1.2 17.8 1.5 18.7 3.5 38.3 3 30.7 2.5 26.8 1 11 .5 9 .3 6.5v2.5l-.3 1.7-2 4.8-4.2 9-2.8 6.2-2 4.8"/><path d="m543.8 506.9 59.2-67-2-13-5-30.3-6-34.7-2.7-15.3-2.5-11.5-1.3-4.2-.7-2.3-1.3-2.2-1.2-1.8-1.8-1.7-1.7-1.5-2-1.5-2-1.3-2.3-1-2.2-1-2.5-.7-4.8-1-4.5-.5h-4.2"/><path d="m590.8 525.6 54.5-70-7-31.7-6.3-28-5.7-25.3-2-8-1.5-5.5-1.5-3.2-1.5-3.3-2-3-2.3-2.7-2.5-2.8-2.7-2.2-2.8-2-3-1.5-2.7-1.5-3-1-2.8-.8-2.7-.5h-2.5l-2.3.5-2 .8-1.7 1.2-.3.3"/><path d="m462.3 774.1 3.2-8 3.3-7.7 3.5-7.8 3.7-7.5 3.5-7.2 3.8-7 7.7-13.8 8-13 8.3-12.2 8-11.5 7.7-10.5 7.8-9.8 7.5-9 6.7-8 6.3-7.2 10.7-11.8 7-7.7 6.3-7.3 6.2-7 12.3-13.2 11.7-12.8 5.8-6.2 5.5-6.3 5.2-6.7 5-6.8 5-7.2 4.5-7.5 4.5-8 4.3-8.8 4-9.2 3.7-10-2.5-15.3-2.5-16.2-3.5-19.5-4-21.3-2.2-10.5-2.3-10.2-2.2-9.8-2.5-9-2.5-8.2-2.5-6.8-1.5-3.2"/></g></svg>