<svg height="850.394" viewBox="0 0 850.394 850.394" width="850.394" xmlns="http://www.w3.org/2000/svg"><path d="m678.32 380.66-9.42 11.8 19.89 1.94h-21.81l7.619-10.78s14.62-42.78 14.62-46.14c0-5.12 1.681-41.09 1.681-41.09l14.72 14.72c1.62 1.62 2.71 11.21 3.439 22.5l-13.899 41.7-1.58 4.75h-.01zm-154.5-50.01c7.35-25.31 16.1-55.92 16.1-58.04 0 0 .18-.17.521-.53l4.72.18c-.3 2.35-5.24 40.15-5.24 53.97 0 8.02 1.45 25.61 2.71 39.47l-.03-.26h-14.52l-4.26-34.78z" fill="#9c5b16"/><path d="m404.86 116.34c-.17.05-1.37.3-6.12-1.32-5.19-1.77-7.91 3.9-7.91 3.9s2.15 1.39 4.4 2.15c2.17.74 9.22-4.42 9.63-4.73zm-52.61 41.6c-.13-4.26-3.96-9.26 6.58-17.79 10.55-8.52 41.75-42.15 45.24-43.86.48-.24 1.2-.6 2.14-1-1.32-4.42-2.7-9.52-1.53-15.92 1.11 1.94 11.17 4.99 18.59 11.66 5.55.17 10.83 2.52 18.32 7.24 2.28 1.43 4.79 3.02 7.43 4.7l-1.039 1.51c-9.671 10.93-7.28 24.12-4.551 37.45 1.771-4.58 3.12-9.1 5.74-13.46.72 3.93 3.07 7.57 4.61 11.23.989 2.35 1.58 6.06 3.479 7.66.601-4.52 1.84-8.97 3.4-13.19 1.58 3.14 2.2 6.54 3.85 9.69 1.98 3.78 3.971 7.25 5.561 11.23 2.75 6.91 3.37 13.3 3.54 20.59 3.939-3.14 5.319-8.62 8.199-12.57 2.131 5.25 1.98 11.3 3.83 16.65 2.801-4 5.9-8.23 9.57-11.5 1.04 5.67.96 11.58 2.12 17.28 2.66-2.17 4.84-5.36 7.189-7.91 4.011-4.36 8.24-8.28 11.641-13.17 2.96-4.26 5.47-8.74 6.39-13.85l.2-.77c4.28 3 9.82 6.83 10.31 6.83 4 0 26.53 3.24 46.641 7.13 10.52 2.03 57.189-4.14 68.6-6.99s39.931-.57 61.61 13.12c5.609 3.54 9.99 8.19 13.34 13.36 9.64 14.79 10.86 33.81 8.32 43.12a256.91 256.91 0 0 1 -1.59 5.56c-3.601 12.13-8.681 27.48-8.681 34.36 0 7.99 6.59 31.1 6.59 31.1l-1.449 80.71v11.83l-.24-10.67h-16.02l-1.22-.54 1.521-3.48s-.221-23.13-1.421-41.67c-.729-11.29-1.819-20.88-3.439-22.5l-14.72-14.72c-5.62-5.62-11.66-11.67-16.21-16.23-10.33-10.3-12.98-26.34-17.801-32.74-.97-1.3-2.029-2.2-3.27-2.57l-.01-.01c-.42-.12-.86-.19-1.33-.19-8.561 0-18.82 5.71-39.92 14.84-21.101 9.13-67.181 12.66-67.181 12.66s-.01.04-.02.11l-4.72-.18c-.341.36-.521.53-.521.53 0 2.12-8.75 32.73-16.1 58.04v.01c-5.301 18.28-9.87 33.79-9.87 33.79l-.98 3.43h-16.968s14.15-75.78 6.27-86c-33.88-43.94-36.22-74.65-36.22-74.65-2.31-4.9-7.38-13.09-10.27-17.67-3.971-6.29-7.98-12.56-12.17-18.71-2.391-3.52-4.96-8.49-8.49-11.04-4.87-3.5-19.13-6.11-26.25-2.61s-35.31 8.92-39.58 11.02-16.91-6.03-17.04-10.28z" fill="#9c5b16"/><path d="m724.29 182.61c14.37-1.76 22.72 17.67 23.22 28.19 1 21.12-.34 38.46 11.26 57.31 7.261 11.82 17.87 23.53 16.48 38.18-1.2 12.58-5.89 25.63-19.14 28.98 11.979-14.98-3.721-27.48-13.63-37.35-15.311-15.27-14.061-45.18-11.761-65.72l-.739-.23a256.91 256.91 0 0 0 1.59-5.56c2.54-9.31 1.319-28.33-8.32-43.12zm-201.54-32.77-.2.77c-.92 5.11-3.43 9.59-6.39 13.85-3.4 4.89-7.63 8.81-11.641 13.17-2.35 2.55-4.529 5.74-7.189 7.91-1.16-5.7-1.08-11.61-2.12-17.28-3.67 3.27-6.77 7.5-9.57 11.5-1.85-5.35-1.699-11.4-3.83-16.65-2.88 3.95-4.26 9.43-8.199 12.57-.17-7.29-.79-13.68-3.54-20.59-1.59-3.98-3.58-7.45-5.561-11.23-1.649-3.15-2.27-6.55-3.85-9.69-1.561 4.22-2.8 8.67-3.4 13.19-1.899-1.6-2.49-5.31-3.479-7.66-1.54-3.66-3.891-7.3-4.61-11.23-2.62 4.36-3.97 8.88-5.74 13.46-2.729-13.33-5.12-26.52 4.551-37.45l1.039-1.51c18.54 11.76 43.86 28.04 43.86 28.04s11.98 7.5 26.7 16.62c.03.02.05.04.08.06.849.59 1.919 1.34 3.089 2.15zm-173.22 377.08v94.03l-61.72-10.97h-3.46v-87.68h1.73z" fill="#f6cc4b"/><path d="m284.35 522.3v10.96s-2.89-3.46-12.12-1.149c-9.23 2.31-10.38 37.489-15.29 57.97-4.91 20.479-18.46 17.31-24.52 11.25-6.05-6.061-8.07-45.57-13.26-61.15-5.19-15.571-16.16-8.651-16.16-8.651v-25.959h81.35z" fill="#f6cc4b"/><path d="m613.74 712.1-203.74 51.9h-5.09v-252.66l-68.07-5.77 154.02-84.8-.3-3.69 4.35-.35 118.83 89.99z" fill="#9c5b16"/><path d="m284.35 609.98v13.279h-2.32l-79.03-7.5v-84.229s10.97-6.92 16.16 8.649c5.19 15.58 7.21 55.09 13.26 61.15 6.06 6.06 19.61 9.229 24.52-11.25 4.91-20.48 6.06-55.66 15.29-57.97 9.23-2.311 12.12 1.149 12.12 1.149z" fill="#ffa500"/><path d="m490.56 417.08.3 3.69-154.02 84.8h-250.36l136.14-66.92z" fill="#9c5b16"/><path d="m203 615.76v95.76l-1.15 4.79-103.84-24.99-.01-183.32v-2.43h105v25.96z" fill="#ffa500"/><path d="m284.35 623.26v-13.28h3.46l61.72 10.97v-94.03l-63.45-4.62h-1.73v-16.73h52.49l68.07 5.77v253.83l-203.06-48.86 1.15-4.79v-95.76l79.03 7.5z" fill="#ffa500"/><g fill="#231f20"><path d="m726.2 379.3.24 10.67h-18.59l2.33-10.67zm-32.62.76-4.79 14.34 4.78-14.34z"/><path d="m693.57 380.06-4.78 14.34-19.89-1.94 9.42-11.8zm-149.23 3.43.15 1.5h-21.69l5.28-19.55h14.52l.03.26.21 2.27c.66 7.07 1.23 12.89 1.5 15.52z"/><path d="m542.84 367.97 1.5 15.52c-.27-2.63-.84-8.45-1.5-15.52zm-29.86-.09-2.14 7.48 2.13-7.48z"/><path d="m512.97 367.88-2.13 7.48-1.87 6.51-25.52 2.55 12.55-16.54z"/></g><path d="m398.74 115.02c4.75 1.62 5.95 1.37 6.12 1.32-.41.31-7.46 5.47-9.63 4.73-2.25-.76-4.4-2.15-4.4-2.15s2.72-5.67 7.91-3.9z"/><g fill="none" stroke="#231f20"><path d="m72.63 505.57h264.21l68.07 5.77v253.83l-203.06-48.86-103.84-24.99-.01-183.32" stroke-width="14"/><path d="m86.48 505.57 136.14-66.92 267.94-21.57 4.35-.35 118.83 89.99v205.38l-203.74 51.9m-73.16-258.43 154.02-84.8" stroke-width="21"/><g stroke-width="14"><path d="m203 510.77v200.75m81.35-201.33v219.79m-81.35-114.22 79.03 7.5m4.05-100.96 63.45 4.62v94.03l-61.72-10.97m-84.81-78.45s10.97-6.92 16.16 8.649c5.19 15.58 7.21 55.09 13.26 61.15 6.06 6.06 19.61 9.229 24.52-11.25 4.91-20.48 6.06-55.66 15.29-57.97 9.23-2.311 12.12 1.149 12.12 1.149m409.23-153.198 1.58-4.75 13.9-41.7m-18.16-37.22s-1.681 35.97-1.681 41.09c0 3.36-14.62 46.14-14.62 46.14l-7.619 10.78h21.81"/><path d="m653.62 244.85c1.24.37 2.3 1.27 3.27 2.57 4.82 6.4 7.471 22.44 17.801 32.74 4.55 4.56 10.59 10.61 16.21 16.23l14.72 14.72c1.62 1.62 2.71 11.21 3.439 22.5 1.2 18.54 1.421 41.67 1.421 41.67l-1.521 3.48h-.01l-6.47 14.79h23.96v-15.41l1.449-80.71s-6.59-23.11-6.59-31.1c0-6.88 5.08-22.23 8.681-34.36a256.91 256.91 0 0 0 1.59-5.56c2.54-9.31 1.319-28.33-8.32-43.12-3.35-5.17-7.73-9.82-13.34-13.36-21.68-13.69-50.2-15.97-61.61-13.12s-58.08 9.02-68.6 6.99c-20.11-3.89-42.641-7.13-46.641-7.13-.489 0-6.029-3.83-10.31-6.83-1.17-.81-2.24-1.56-3.09-2.15"/><path d="m542.63 365.7c-1.26-13.86-2.71-31.45-2.71-39.47 0-13.82 4.94-51.62 5.24-53.97.01-.07.02-.11.02-.11s46.08-3.53 67.181-12.66c21.1-9.13 31.359-14.84 39.92-14.84.47 0 .91.07 1.33.19m-129.791 85.82 4.26 34.78"/><path d="m637.43 223c3.17 10.66 8.771 15.95 16.181 21.84l.01.01c1.05.84 2.14 1.69 3.27 2.57m31.899 146.98-19.89-1.94 9.42-11.8 15.25-.6h.01zm21.39-15.1h16.02l.24 10.67h-18.59zm-289.17-288.23c.76-.05 1.51-.07 2.26-.04 5.55.17 10.83 2.52 18.32 7.24 2.28 1.43 4.79 3.02 7.43 4.7 18.54 11.76 43.86 28.04 43.86 28.04s11.98 7.5 26.7 16.62c.03.02.05.04.08.06 1.87 1.15 3.79 2.34 5.729 3.54m-117.549-56.61c-.6.23-1.14.46-1.63.67-.94.4-1.66.76-2.14 1-3.49 1.71-34.69 35.34-45.24 43.86-10.54 8.53-6.71 13.53-6.58 17.79.13 4.25 12.77 12.38 17.04 10.28s32.46-7.52 39.58-11.02 21.38-.89 26.25 2.61c3.53 2.55 6.1 7.52 8.49 11.04 4.189 6.15 8.199 12.42 12.17 18.71 2.89 4.58 7.96 12.77 10.27 17.67 0 0 2.34 30.71 36.22 74.65 7.881 10.22-6.27 86-6.27 86l-12.55 16.54h24.8l2.59-9.06 2.13-7.48.98-3.43s4.569-15.51 9.87-33.79v-.01c7.35-25.31 16.1-55.92 16.1-58.04 0 0 .18-.17.521-.53 1.829-1.95 8.189-9.34 14.8-24.27"/><path d="m429.43 99.1c-1.46-3.17-3.66-5.82-6.16-8.07-7.42-6.67-17.48-9.72-18.59-11.66-1.17 6.4.21 11.5 1.53 15.92.51 1.68 1 3.26 1.34 4.77"/></g><path d="m354.81 148.84c3.29-.82 6.43-1.45 4.8 2.94-.62 1.64-3.91 5.81-4.99 2.26m93.36-49.56c-9.671 10.93-7.28 24.12-4.551 37.45 1.771-4.58 3.12-9.1 5.74-13.46.72 3.93 3.07 7.57 4.61 11.23.989 2.35 1.58 6.06 3.479 7.66.601-4.52 1.84-8.97 3.4-13.19 1.58 3.14 2.2 6.54 3.85 9.69 1.98 3.78 3.971 7.25 5.561 11.23 2.75 6.91 3.37 13.3 3.54 20.59 3.939-3.14 5.319-8.62 8.199-12.57 2.131 5.25 1.98 11.3 3.83 16.65 2.801-4 5.9-8.23 9.57-11.5 1.04 5.67.96 11.58 2.12 17.28 2.66-2.17 4.84-5.36 7.189-7.91 4.011-4.36 8.24-8.28 11.641-13.17 2.96-4.26 5.47-8.74 6.39-13.85m-117.668-34.28s-.01 0-.02.01" stroke-width="7"/><path d="m404.86 116.34c-.41.31-7.46 5.47-9.63 4.73-2.25-.76-4.4-2.15-4.4-2.15s2.72-5.67 7.91-3.9c4.75 1.62 5.95 1.37 6.12 1.32z" stroke-width="7"/><path d="m724.29 182.61c14.37-1.76 22.72 17.67 23.22 28.19 1 21.12-.34 38.46 11.26 57.31 7.261 11.82 17.87 23.53 16.48 38.18-1.2 12.58-5.89 25.63-19.14 28.98 11.979-14.98-3.721-27.48-13.63-37.35-15.311-15.27-14.061-45.18-11.761-65.72" stroke-width="14"/><path d="m425.51 143.02c0 4.49-3.8 8.64-8.67 11" stroke-width="12.909"/></g><path d="m0 0h850.394v850.394h-850.394z" fill="none"/></svg>