<svg height="850" viewBox="0 0 850 850" width="850" xmlns="http://www.w3.org/2000/svg"><path d="m268.8 646.3-6 1.8-5.7 1.2-5.8 1.3-5.5 1-5.2.5-5 .2h-9.8l-4.2-.5-4.3-.7-3.7-.8-3.8-1-3.2-1.2-3-1.5-2.5-1.5-2.3-1.8-1.7-1.7-1.5-1.8-1.3-2.2-.5-2-.2-2.3.2-2.2.5-2.3 1.3-2.5 1.7-2.5 2-2.2 2.8-2.5 3.2-2.5 3.8-2.3 4.5-2.5 4.7-2.2 5.5-2.3 6.5-2.5 7.3-2.7 7.7-3.5 8-4 8.3-4.5 4.2-2.5 4-2.5 4-3 4-3 3.8-3 3.5-3.5 3.5-3.5 3.2-3.8 3.3-3.7 2.7-4.3 2.5-4.2 2.3-4.5 1.7-4.8 1.5-5 1-5 .8-5.5.2-5.5-.2-6-.5-6-1.3-6.5-1.7-6.5-2.5-6.7v-4.3l84-3v.5l-1.3 4.5-1 4.8-.7 4.7-.3 4.8v10.2l.5 5 .8 5.3 1.5 10.7 2.2 10.8 4.8 21.5 2.2 10.2 1.5 10 .8 4.8.2 4.5.3 4.5v4.2l-.5 4-.5 4-1.3 3.5-1.2 3.5-1.8 3-2.2 3-2.8 2.5-3 2.3-3 1.5-3.2 1.2-3.3.8-3.5.7-3.7.3-4 .2h-7.8l-7.7-.5-7.5-.7-7-.5h-6l-8.8.7-7.7.8-6.8 1.2-6.5 1.3-6.2 1.7-6.8 2z" fill="#a9d7f3"/><path d="m385.6 483.8-84 3-19.5.8-31.5-312 126.2-107.8 114.8 32.5 2 36.8 3.5 67-5.5.2-87.8 47-5.2 232z" fill="#7a7878"/><path d="m612.6 643.1 1.2 7.5 1.3 7.5 1 7.5.7 7.2.3 7-.3 3.5v3.5l-.5 3.3-.5 3.2-.7 3-1 3-1 3-1.5 2.8-1.5 2.7-1.8 2.5-2 2.5-2.5 2.3-2.5 2-3 2-3 1.7-3.5 1.5-3.7 1.5-4.3 1.3-4.5 1-4.7.7-5.3.8-5.5.2-4.2.3-3.8-.3-2.7-.2-2.5-.3-4-.7h-1.8l-2-.3-2.2.3-2.8.5-3.2 1-3.8 1.2-10.7 4.3-15.5 6.5-4.5 2-4.8 1.7-4.5 1.5-4.5 1.3-4.5 1.2-4.2 1-4.5.8-4.3.7-4.2.3-4.3.5-8 .2-7.7-.5-7.3-.7-6.7-1.5-3-1-3-.8-2.8-1.2-2.7-1.3-2.3-1.2-2.2-1.3-2-1.5-2-1.5-1.5-1.7-1.3-1.5-1.2-1.8-.8-2-.7-1.7-.3-2v-2.3l.3-2 1-1.7 1.2-1.8 1.8-1.7 2.2-1.8 2.5-1.5 3-1.7 7-4 8.8-4.5 10.5-5.5 5.7-3.5 6-3.5 9.8-6.5 12.2-7.8 27.3-18.2 38-25.8 70.7 3.8z" fill="#a9d7f3"/><path d="m542.1 634.3-23.3-1-7.7-156-7-140-7-133.2-3.5-67-2-36.8 165 11.5-13 527.8-30.8-1.5z" fill="#7a7878"/><g fill="none" stroke="#231f20" stroke-linecap="round" stroke-miterlimit="10" stroke-width="21"><path d="m385.6 484.3-1.3 4.5-1 4.8-.7 4.7-.3 4.8v10.2l.5 5 .8 5.3 1.5 10.7 2.2 10.8 4.8 21.5 2.2 10.2 1.5 10 .8 4.8.2 4.5.3 4.5v4.2l-.5 4-.5 4-1.3 3.5-1.2 3.5-1.8 3-2.2 3-2.8 2.5-3 2.3-3 1.5-3.2 1.2-3.3.8-3.5.7-3.7.3-4 .2h-7.8l-7.7-.5-7.5-.7-7-.5h-6l-8.8.7-7.7.8-6.8 1.2-6.5 1.3-6.2 1.7-6.8 2-15.5 5-6 1.8-5.7 1.2-5.8 1.3-5.5 1-5.2.5-5 .2h-9.8l-4.2-.5-4.3-.7-3.7-.8-3.8-1-3.2-1.2-3-1.5-2.5-1.5-2.3-1.8-1.7-1.7-1.5-1.8-1.3-2.2-.5-2-.2-2.3.2-2.2.5-2.3 1.3-2.5 1.7-2.5 2-2.2 2.8-2.5 3.2-2.5 3.8-2.3 4.5-2.5 4.7-2.2 5.5-2.3 6.5-2.5 7.3-2.7 7.7-3.5 8-4 8.3-4.5 4.2-2.5 4-2.5 4-3 4-3 3.8-3 3.5-3.5 3.5-3.5 3.2-3.8 3.3-3.7 2.7-4.3 2.5-4.2 2.3-4.5 1.7-4.8 1.5-5 1-5 .8-5.5.2-5.5-.2-6-.5-6-1.3-6.5-1.7-6.5-2.5-6.7m190-286.8-87.8 47-5.2 232-13 .5-84 3-19.5.8-31.5-312 126.2-107.8m-58 604.8v109m-40.5-44 40.8 44.7 40.5-44.7m132-637.3 2 36.8 3.5 67 7 133.2 7 140 7.7 156 23.3 1 70.7 3.8 30.8 1.5 13-527.8"/><path d="m542.8 633.8-.7.5-38 25.8-27.3 18.2-12.2 7.8-9.8 6.5-6 3.5-5.7 3.5-10.5 5.5-8.8 4.5-7 4-3 1.7-2.5 1.5-2.2 1.8-1.8 1.7-1.2 1.8-1 1.7-.3 2v2.3l.3 2 .7 1.7.8 2 1.2 1.8 1.3 1.5 1.5 1.7 2 1.5 2 1.5 2.2 1.3 2.3 1.2 2.7 1.3 2.8 1.2 3 .8 3 1 6.7 1.5 7.3.7 7.7.5 8-.2 4.3-.5 4.2-.3 4.3-.7 4.5-.8 4.2-1 4.5-1.2 4.5-1.3 4.5-1.5 4.8-1.7 4.5-2 15.5-6.5 10.7-4.3 3.8-1.2 3.2-1 2.8-.5 2.2-.3 2 .3h1.8l4 .7 2.5.3 2.7.2 3.8.3 4.2-.3 5.5-.2 5.3-.8 4.7-.7 4.5-1 4.3-1.3 3.7-1.5 3.5-1.5 3-1.7 3-2 2.5-2 2.5-2.3 2-2.5 1.8-2.5 1.5-2.7 1.5-2.8 1-3 1-3 .7-3 .5-3.2.5-3.3v-3.5l.3-3.5-.3-7-.7-7.2-1-7.5-1.3-7.5-1.2-7.5"/></g></svg>