<svg height="850.89" viewBox="0 0 850.89 850.89" width="850.89" xmlns="http://www.w3.org/2000/svg"><path d="m752.86 306.52-11.69 11.03 2.76 15.58-14.45-7.36-14.45 7.36 2.76-15.58-11.69-11.03 16.15-2.27 7.23-14.17 7.22 14.17z" fill="#ffffc2"/><path d="m676.67 431.16 18.09 5.88-222.34 72.23-72.89-71.2v-1.84h275.49z" fill="#fbee34"/><path d="m676.67 431.16-1.65 5.07h-275.49v-1.14l72.89-70.28z" fill="#fbee34"/><path d="m655.8 670.69-11.69 11.03 2.76 15.57-14.45-7.35-14.45 7.35 2.76-15.57-11.69-11.03 16.16-2.27 7.22-14.17 7.23 14.17zm-46-554-11.69 11.03 2.76 15.57-14.45-7.35-14.45 7.35 2.76-15.57-11.69-11.03 16.16-2.27 7.22-14.17 7.23 14.17z" fill="#ffffc2"/><path d="m399.53 435.09-1.19 1.14h-.69l-66.18-66.19-3.6-4.43 72.85-261.84 71.7 261.04zm0 2.98 72.89 71.2-71.7 271.28-70.33-271.28 67.6-72.7z" fill="#fbee34"/><path d="m397.99 436.57-67.6 72.7-222.34-72.23 219.82-71.43 3.6 4.43 66.18 66.19z" fill="#fbee34"/><path d="m235.8 612.69-11.69 11.03 2.76 15.57-14.45-7.35-14.45 7.35 2.76-15.57-11.69-11.03 16.16-2.27 7.22-14.17 7.23 14.17zm-42-438-11.69 11.03 2.76 15.57-14.45-7.35-14.45 7.35 2.76-15.57-11.69-11.03 16.16-2.27 7.22-14.17 7.23 14.17z" fill="#ffffc2"/><g fill="none"><g stroke="#231f20"><path d="m472.42 509.27-71.7 271.28-70.33-271.28-222.34-72.23 219.82-71.43 72.85-261.84 71.7 261.04 204.25 66.35 18.09 5.88z" stroke-width="21"/><path d="m331.47 370.04 66.18 66.19.34.34.35-.34 1.19-1.14 72.89-70.28m-142.03 144.46 67.6-72.7 1.54 1.5 72.89 71.2" stroke-width="14"/><path d="m399.53 130.7v611.38m-264.92-305.85h540.41m-504.6-242.29 14.45 7.35-2.76-15.57 11.69-11.03-16.15-2.27-7.23-14.17-7.22 14.17-16.16 2.27 11.69 11.03-2.76 15.57zm416-58 14.45 7.35-2.76-15.57 11.69-11.03-16.15-2.27-7.23-14.17-7.22 14.17-16.16 2.27 11.69 11.03-2.76 15.57zm-374 496 14.45 7.35-2.76-15.57 11.69-11.03-16.15-2.27-7.23-14.17-7.22 14.17-16.16 2.27 11.69 11.03-2.76 15.57zm517.06-306.17 14.45 7.36-2.76-15.58 11.69-11.03-16.16-2.27-7.22-14.17-7.23 14.17-16.15 2.27 11.69 11.03-2.76 15.58zm-97.06 364.17 14.45 7.35-2.76-15.57 11.69-11.03-16.15-2.27-7.23-14.17-7.22 14.17-16.16 2.27 11.69 11.03-2.76 15.57z" stroke-width="7"/></g><path d="m.25.25h850.394v850.394h-850.394z"/></g></svg>