<svg height="850.394" viewBox="0 0 850.394 850.394" width="850.394" xmlns="http://www.w3.org/2000/svg"><path d="m687.87 283.8h-54.14c-.811 0-1.61.07-2.381.21-6.29 1.09-11.069 6.46-11.069 12.93v144.57c0 2.84.92 5.48 2.5 7.63v1.96h1.75c2.399 2.21 5.64 3.561 9.2 3.561h133.62c7.431 0 13.45-5.891 13.45-13.15v-144.57c0-7.26-6.02-13.14-13.45-13.14h-79.48zm109.4-5.63v288.95c0 10.689-8.67 19.35-19.35 19.35h-154.14c-10.681 0-19.351-8.66-19.351-19.35v-288.95c0-10.69 8.67-19.35 19.351-19.35h154.14c10.68 0 19.35 8.66 19.35 19.35zm-50.34 240.9c0-24.971-21.01-45.23-46.93-45.23s-46.93 20.26-46.93 45.23 21.01 45.22 46.93 45.22 46.93-20.25 46.93-45.22z" fill="#c8c8c8"/><path d="m766.44 436.02h14.36v5.49c0 7.26-6.02 13.15-13.45 13.15h-133.62c-3.561 0-6.801-1.351-9.2-3.561h76.829v-15.08h65.081z" fill="#787878"/><path d="m780.8 420.98v15.04h-14.36v-15.04h13.1zm0-15v15h-14.36v-15h13.1zm0-15v15h-14.36v-15h13.1zm0-15.05v15.05h-14.36v-15.05h13.1zm0-15.02v15.02h-14.36v-15.18zm0-16.89v16.89l-14.36-.16-.41-.01.02-1.71v-15.01h13.1z" fill="#787878"/><path d="m780.8 328.98v15.04h-14.75v-15.04h13.1zm0-15v15h-14.75v-15h13.1zm0-15v15h-14.75v-15h13.1zm0-2.04v2.04h-14.75v-15.18h1.3c7.43 0 13.45 5.88 13.45 13.14zm-27.44 124.04h13.08v15.04h-13.08zm0-15h13.08v15h-13.08zm0-15h13.08v15h-13.08zm0-15.05h13.08v15.05h-13.08zm13.08-15v15h-13.08v-15.33l12.67.14.41.01z" fill="#787878"/><path d="m766.05 344.02v15.01l-.02 1.71-12.67-.14-.42-.01.02-1.56v-15.01z" fill="#787878"/><path d="m752.96 328.98h13.09v15.04h-13.09zm0-15h13.09v15h-13.09zm0-15h13.09v15h-13.09zm0-15.18h13.09v15.18h-13.09zm-12.71 137.18h13.11v15.04h-13.11zm0-15h13.11v15h-13.11zm0-15h13.11v15h-13.11zm0-15.05h13.11v15.05h-13.11zm13.11-15v15h-13.11v-15l.01-.48 12.68.14.42.01z" fill="#787878"/><path d="m752.96 344.02v15.01l-.02 1.56-12.68-.14-.42-.01.02-1.41v-15.01z" fill="#787878"/><path d="m739.86 328.98h13.1v15.04h-13.1zm0-15h13.1v15h-13.1zm0-15h13.1v15h-13.1zm0-15.18h13.1v15.18h-13.1zm.4 76.65-.01.48v15h-13.11v-15l.01-.63 12.69.14zm-13.11 60.53h13.1v15.04h-13.1zm0-15h13.1v15h-13.1zm13.1-15v15h-13.1l-.01-15zm-13.11-15.05h13.11v15.05h-13.11z" fill="#787878"/><path d="m739.86 344.02v15.01l-.02 1.41-12.69-.14-.4-.01.01-1.26v-15.01z" fill="#787878"/><path d="m726.76 328.98h13.101v15.04h-13.101zm13.1-15v15h-13.1l-.01-15zm-13.11-15h13.11v15h-13.11zm0-15.18h13.11v15.18h-13.11zm-26.75 190.04c25.92 0 46.93 20.26 46.93 45.23s-21.01 45.22-46.93 45.22-46.93-20.25-46.93-45.22 21.01-45.23 46.93-45.23zm18.56 45.23c0-10.261-8.31-18.561-18.56-18.561s-18.56 8.3-18.56 18.561c0 10.25 8.31 18.55 18.56 18.55s18.56-8.3 18.56-18.55zm8.59-158.77-.01.63v15h-13.07v-15l.01-.78 12.67.14zm-13.08 60.68h13.08v15.04h-13.08zm0-15h13.08v15h-13.08zm13.08 0h-13.08v-15h13.07zm-13.08-30.05h13.069v15.05h-13.069z" fill="#787878"/><path d="m726.76 344.02v15.01l-.01 1.26-12.67-.14h-.42l.01-1.12v-15.01z" fill="#787878"/><path d="m713.67 328.98h13.09v15.04h-13.09zm13.08-15 .01 15h-13.09v-15zm-13.08-15h13.08v15h-13.08zm0-15.18h13.08v15.18h-13.08zm.41 76.35-.01.78v15h-12.71v-14.94l.01-.99 12.29.15zm-.01 60.83v15.04h-12.71v-15.04zm0-15v15h-12.71v-15zm0-15v15h-12.71v-15zm0-15.05v15.05h-12.71v-15.05zm-14.07 124.58c10.25 0 18.56 8.3 18.56 18.561 0 10.25-8.31 18.55-18.56 18.55s-18.56-8.3-18.56-18.55c0-10.261 8.31-18.561 18.56-18.561z" fill="#787878"/><path d="m713.67 344.02v15.01l-.01 1.12-12.29-.15h-.42l.01-.9v-15.08z" fill="#787878"/><path d="m713.67 328.98v15.04h-12.71v-15.04zm0-15v15h-12.71v-15zm0-15v15h-12.71v-15zm0-15.18v15.18h-12.71v-15.18zm-12.31 92.13v.07h-13.11v-15.01l.01-1.14 12.69.15h.42l-.01.99zm-13.11 60.16h13.11v15.01h-13.11zm13.11-.07v.07h-13.11v-15.04h13.11z" fill="#787878"/><path d="m701.36 420.98v.07h-13.11v-15h13.11zm0-15v.07h-13.11v-15.01h13.11zm0-15v.06h-13.11v-15.04h13.11zm-.4-46.88v15l-.01.9-12.69-.15h-.4l.01-.75v-15zm0-.08v.08h-13.09v-15.05h13.09z" fill="#787878"/><path d="m700.96 328.98v.07h-13.09v-15h13.09zm0-15v.07h-13.09v-15h13.09zm0-15v.07h-13.09v-15.04h13.09zm-12.7 60.87-.01 1.14v15.01h-13.08v-15.01l.01-1.29 12.68.15zm-13.09 76.24h13.08v15.01h-13.08z" fill="#787878"/><path d="m675.17 421.05h13.08v15.04h-13.08zm0-15h13.08v15h-13.08zm0-15.01h13.08v15.01h-13.08zm0-15.04h13.08v15.04h-13.08zm12.7-31.9v15l-.01.75-12.68-.15h-.41l.01-.6v-15zm-13.09-15.05h13.09v15.05h-13.09zm0-15h13.09v15h-13.09zm0-15h13.09v15h-13.09zm0-15.04h13.09v15.04h-13.09z" fill="#787878"/><path d="m675.18 359.7-.01 1.29v15.01h-13.1v-15.01l.02-1.44 12.68.15zm-13.11 76.39h13.1v15.01h-13.1z" fill="#787878"/><path d="m662.07 421.05h13.1v15.04h-13.1zm0-15h13.1v15h-13.1zm0-15.01h13.1v15.01h-13.1zm0-15.04h13.1v15.04h-13.1zm12.71-31.9v15l-.01.6-12.68-.15h-.43l.01-.45v-15zm-13.11-15.05h13.11v15.05h-13.11zm0-15h13.11v15h-13.11zm0-15h13.11v15h-13.11zm0-15.04h13.11v15.04h-13.11z" fill="#787878"/><path d="m662.09 359.55-.02 1.44v15.01h-13.11v-15.01l.02-1.59 12.68.15zm-13.13 76.54h13.11v15.01h-13.11z" fill="#787878"/><path d="m648.96 421.05h13.11v15.04h-13.11zm0-15h13.11v15h-13.11zm0-15.01h13.11v15.01h-13.11zm0-15.04h13.11v15.04h-13.11zm12.71-31.9v15l-.01.45-12.68-.15h-.41v-15.3zm-13.1-15.05h13.1v15.05h-13.1zm0-15h13.1v15h-13.1zm0-15h13.1v15h-13.1zm0-15.04h13.1v15.04h-13.1z" fill="#787878"/><path d="m648.98 359.4-.02 1.59v15.01h-13.07v-15.01l.02-1.74 12.66.15zm-13.09 76.69h13.07v15.01h-13.07z" fill="#787878"/><path d="m635.89 421.05h13.07v15.04h-13.07zm0-15h13.07v15h-13.07zm0-15.01h13.07v15.01h-13.07zm0-15.04h13.07v15.04h-13.07zm12.68-16.9v.3l-12.66-.15h-.42v-15.15h13.08zm-13.08-30.05h13.08v15.05h-13.08zm0-15h13.08v15h-13.08zm0-15h13.08v15h-13.08zm0-15.04h13.08v15.04h-13.08z" fill="#787878"/><path d="m635.91 359.25-.02 1.74v15.01h-13.11v-15.01l.02-1.89 12.69.15zm-.02 76.84v15.01h-11.36c-.65-.6-1.24-1.25-1.75-1.96v-13.05z" fill="#787878"/><path d="m622.78 421.05h13.109v15.04h-13.109zm0-15h13.109v15h-13.109zm0-15.01h13.109v15.01h-13.109zm0-15.04h13.109v15.04h-13.109zm12.71-16.9v.15l-12.69-.15h-.42v-15h13.11zm-13.11-30.05h13.11v15.05h-13.11zm0-15h13.11v15h-13.11z" fill="#787878"/><path d="m622.38 314.05v45.05h.42l-.02 1.89v88.15a12.837 12.837 0 0 1 -2.5-7.63v-142.46h15.21v15zm13.11-30.04v15.04h-15.21v-2.11c0-6.47 4.779-11.84 11.069-12.93z" fill="#787878"/><path d="m566.89 356.66v201.99c0 13.01-9.39 23.569-20.949 23.569h-235.191c-11.57 0-20.95-10.56-20.95-23.569v-201.99zm-24.11 195.68v-27.3h-229.31v27.3zm-.64-70.53v-89.88h-227.82v89.879h227.82zm24.75-196v70.85h-277.09v-70.85c0-13.02 9.38-23.58 20.95-23.58h235.19c11.56 0 20.95 10.56 20.95 23.58zm-30.72 7.71c0-5.18-8.14-9.39-18.2-9.39s-18.2 4.21-18.2 9.39 8.141 9.39 18.2 9.39c10.06 0 18.2-4.21 18.2-9.39zm0 30.76c0-5.19-8.14-9.39-18.2-9.39s-18.2 4.2-18.2 9.39c0 5.18 8.141 9.38 18.2 9.38 10.06 0 18.2-4.2 18.2-9.38zm-68.26 3.98v-38.31h-153.87v38.31z" fill="#c8c8c8"/><path d="m313.47 525.04h229.31v27.3h-229.31z" fill="#787878"/><path d="m428.66 391.93h113.479v89.879h-113.479z" fill="#ffeec8"/><path d="m517.97 284.13c10.061 0 18.2 4.21 18.2 9.39s-8.14 9.39-18.2 9.39-18.2-4.21-18.2-9.39 8.14-9.39 18.2-9.39zm0 30.76c10.061 0 18.2 4.2 18.2 9.39 0 5.18-8.14 9.38-18.2 9.38s-18.2-4.2-18.2-9.38c0-5.19 8.14-9.39 18.2-9.39z"/><path d="m314.04 289.95h153.87v38.31h-153.87z" fill="#00efdc"/><path d="m314.32 391.93h114.34v89.879h-114.34z" fill="#ffeec8"/><path d="m142.52 283.45h-54.13c-.81 0-1.61.07-2.38.21-6.3 1.09-11.08 6.46-11.08 12.93v144.57c0 2.84.93 5.479 2.5 7.63v1.96h1.75c2.4 2.21 5.64 3.56 9.21 3.56h133.62c7.43 0 13.45-5.89 13.45-13.149v-144.57c0-7.26-6.02-13.14-13.45-13.14h-79.49zm109.41-5.63v288.95c0 10.69-8.67 19.36-19.35 19.36h-154.14c-10.69 0-19.35-8.67-19.35-19.36v-288.95c0-10.69 8.66-19.35 19.35-19.35h154.14c10.68 0 19.35 8.66 19.35 19.35zm-50.35 240.9c0-24.979-21.01-45.22-46.93-45.22-25.91 0-46.92 20.24-46.92 45.22 0 24.971 21.01 45.221 46.92 45.221 25.92-.001 46.93-20.251 46.93-45.221z" fill="#c8c8c8"/><g fill="#787878"><path d="m221.1 435.67h14.36v5.49c0 7.26-6.02 13.149-13.45 13.149h-133.62c-3.57 0-6.81-1.35-9.21-3.56h76.83v-15.08h65.09z"/><path d="m235.46 420.63v15.04h-14.36v-15.04h13.1zm0-15v15h-14.36v-15h13.1zm0-15v15h-14.36v-15h13.1zm0-15.05v15.05h-14.36v-15.05h13.1zm0-15.02v15.02h-14.36v-15.18zm0-16.89v16.89l-14.36-.16-.42-.01.02-1.71v-15.01h13.11zm0-15.04v15.04h-14.76v-15.04h13.11zm0-15v15h-14.76v-15h13.11zm0-15v15h-14.76v-15h13.11zm0-2.04v2.04h-14.76v-15.18h1.31c7.43 0 13.45 5.88 13.45 13.14z"/><path d="m208.02 420.63h13.08v15.04h-13.08zm0-15h13.08v15h-13.08zm0-15h13.08v15h-13.08zm0-15.05h13.08v15.05h-13.08zm13.08-15v15h-13.08v-15.33l12.66.14.42.01z"/><path d="m220.7 343.67v15.01l-.02 1.71-12.66-.14-.42-.01.02-1.56v-15.01zm-13.08-15.04h13.08v15.04h-13.08zm0-15h13.08v15h-13.08zm0-15h13.08v15h-13.08zm0-15.18h13.08v15.18h-13.08zm-12.71 137.18h13.11v15.04h-13.11zm0-15h13.11v15h-13.11zm0-15h13.11v15h-13.11zm0-15.05h13.11v15.05h-13.11z"/><path d="m208.02 360.58v15h-13.11v-15l.01-.48 12.68.14.42.01z"/><path d="m207.62 343.67v15.01l-.02 1.56-12.68-.14-.42-.01.02-1.41v-15.01zm-13.1-15.04h13.1v15.04h-13.1zm0-15h13.1v15h-13.1zm0-15h13.1v15h-13.1zm0-15.18h13.1v15.18h-13.1z"/><path d="m194.92 360.1-.01.48v15h-13.11v-15l.01-.63 12.69.14zm-13.11 60.53h13.1v15.04h-13.1zm0-15h13.1v15h-13.1zm13.1-15v15h-13.1l-.01-15z"/><path d="m181.8 375.58h13.11v15.05h-13.11zm12.72-31.91v15.01l-.02 1.41-12.69-.14-.4-.01.01-1.26v-15.01zm-13.1-15.04h13.1v15.04h-13.1zm13.1-15v15h-13.1l-.01-15zm-13.11-15h13.11v15h-13.11zm0-15.18h13.11v15.18h-13.11zm-26.76 190.05c25.92 0 46.93 20.24 46.93 45.22 0 24.971-21.01 45.221-46.93 45.221-25.91 0-46.92-20.25-46.92-45.221 0-24.98 21.01-45.22 46.92-45.22zm18.56 45.22c0-10.25-8.3-18.56-18.56-18.56-10.25 0-18.55 8.31-18.55 18.56s8.3 18.561 18.55 18.561c10.26-.001 18.56-8.311 18.56-18.561z"/><path d="m181.81 359.95-.01.63v15h-13.07v-15l.01-.78 12.67.14zm-13.08 60.68h13.08v15.04h-13.08zm0-15h13.08v15h-13.08zm13.08 0h-13.08v-15h13.07zm-13.08-30.05h13.07v15.05h-13.07z"/><path d="m181.42 343.67v15.01l-.01 1.26-12.67-.14h-.42l.01-1.12v-15.01zm-13.09-15.04h13.09v15.04h-13.09zm13.08-15 .01 15h-13.09v-15zm-13.08-15h13.08v15h-13.08zm0-15.18h13.08v15.18h-13.08z"/><path d="m168.74 359.8-.01.78v15h-12.72v-14.94l.01-.99 12.3.15zm-.01 60.83v15.04h-12.72v-15.04zm0-15v15h-12.72v-15zm0-15v15h-12.72v-15zm0-15.05v15.05h-12.72v-15.05zm-14.08 124.58c10.26 0 18.56 8.31 18.56 18.56s-8.3 18.561-18.56 18.561c-10.25 0-18.55-8.311-18.55-18.561s8.3-18.56 18.55-18.56z"/><path d="m168.33 343.67v15.01l-.01 1.12-12.3-.15h-.41l.01-.9v-15.08zm0-15.04v15.04h-12.71v-15.04zm0-15v15h-12.71v-15zm0-15v15h-12.71v-15zm0-15.18v15.18h-12.71v-15.18z"/><path d="m156.01 375.58v.07h-13.1v-15.01l.01-1.14 12.69.15h.41l-.01.99zm-13.1 60.16h13.1v15.01h-13.1zm13.1-.07v.07h-13.1v-15.04h13.1zm0-15.04v.07h-13.1v-15h13.1zm0-15v.07h-13.1v-15.01h13.1zm0-15v.06h-13.1v-15.04h13.1z"/><path d="m155.62 343.75v15l-.01.9-12.69-.15h-.41l.01-.75v-15zm0-.08v.08h-13.1v-15.05h13.1zm0-15.04v.07h-13.1v-15h13.1zm0-15v.07h-13.1v-15h13.1zm0-15v.07h-13.1v-15.04h13.1z"/><path d="m142.92 359.5-.01 1.14v15.01h-13.08v-15.01l.01-1.29 12.67.15zm-13.09 76.24h13.08v15.01h-13.08zm0-15.04h13.08v15.04h-13.08zm0-15h13.08v15h-13.08zm0-15.01h13.08v15.01h-13.08zm0-15.04h13.08v15.04h-13.08z"/><path d="m142.52 343.75v15l-.01.75-12.67-.15h-.41l.01-.6v-15zm-13.08-15.05h13.08v15.05h-13.08zm0-15h13.08v15h-13.08zm0-15h13.08v15h-13.08z"/><path d="m129.44 283.66h13.08v15.04h-13.08zm.4 75.69-.01 1.29v15.01h-13.11v-15.01l.02-1.44 12.69.15zm-13.12 76.39h13.11v15.01h-13.11zm0-15.04h13.11v15.04h-13.11zm0-15h13.11v15h-13.11zm0-15.01h13.11v15.01h-13.11z"/><path d="m116.72 375.65h13.11v15.04h-13.11zm12.72-31.9v15l-.01.6-12.69-.15h-.42l.01-.45v-15zm-13.11-15.05h13.11v15.05h-13.11zm0-15h13.11v15h-13.11zm0-15h13.11v15h-13.11z"/><path d="m116.33 283.66h13.11v15.04h-13.11zm.41 75.54-.02 1.44v15.01h-13.1v-15.01l.02-1.59 12.68.15zm-13.12 76.54h13.1v15.01h-13.1zm0-15.04h13.1v15.04h-13.1zm0-15h13.1v15h-13.1zm0-15.01h13.1v15.01h-13.1zm0-15.04h13.1v15.04h-13.1z"/><path d="m116.33 343.75v15l-.01.45-12.68-.15h-.41v-15.3zm-13.1-15.05h13.1v15.05h-13.1zm0-15h13.1v15h-13.1zm0-15h13.1v15h-13.1z"/><path d="m103.23 283.66h13.1v15.04h-13.1zm.41 75.39-.02 1.59v15.01h-13.07v-15.01l.02-1.74 12.66.15zm-13.09 76.69h13.07v15.01h-13.07zm0-15.04h13.07v15.04h-13.07zm0-15h13.07v15h-13.07zm0-15.01h13.07v15.01h-13.07zm0-15.04h13.07v15.04h-13.07z"/><path d="m103.23 358.75v.3l-12.66-.15h-.42v-15.15h13.08zm-13.08-30.05h13.08v15.05h-13.08zm0-15h13.08v15h-13.08zm0-15h13.08v15h-13.08z"/><path d="m90.15 283.66h13.08v15.04h-13.08zm.42 75.24-.02 1.74v15.01h-13.12v-15.01l.02-1.89 12.7.15zm-.02 76.84v15.01h-11.37c-.65-.6-1.24-1.25-1.75-1.96v-13.05zm-13.12-15.04h13.12v15.04h-13.12zm0-15h13.12v15h-13.12zm0-15.01h13.12v15.01h-13.12zm0-15.04h13.12v15.04h-13.12z"/><path d="m90.15 358.75v.15l-12.7-.15h-.41v-15h13.11zm-13.11-30.05h13.11v15.05h-13.11zm0-15h13.11v15h-13.11z"/><path d="m77.04 313.7v45.05h.41l-.02 1.89v88.15c-1.57-2.15-2.5-4.79-2.5-7.63v-142.46h15.22v15z"/><path d="m90.15 283.66v15.04h-15.22v-2.11c0-6.47 4.78-11.84 11.08-12.93z"/></g><g fill="none" stroke="#000"><path d="m566.89 356.66v201.99c0 13.01-9.39 23.569-20.949 23.569h-235.191c-11.57 0-20.95-10.56-20.95-23.569v-272.84c0-13.02 9.38-23.58 20.95-23.58h235.19c11.56 0 20.949 10.56 20.949 23.58v70.85zm-277.09 0h277.09" stroke-width="20.478"/><path d="m314.04 289.95h153.87v38.31h-153.87zm114.62 101.98h113.48v89.88h-227.82v-89.88zm0 89.88v-89.88m-115.19 133.11h229.31v27.3h-229.31zm483.8 42.08c0 10.689-8.67 19.35-19.35 19.35h-154.14c-10.681 0-19.351-8.66-19.351-19.35v-288.95c0-10.69 8.67-19.35 19.351-19.35h154.14c10.68 0 19.35 8.66 19.35 19.35z" stroke-width="13.652"/><path d="m746.93 519.07c0 24.97-21.01 45.22-46.93 45.22s-46.93-20.25-46.93-45.22c0-24.971 21.01-45.23 46.93-45.23s46.93 20.26 46.93 45.23z" stroke-width="13.652"/><path d="m700.96 436.02h78.58m-78.58-15.04h78.58m-78.58-15h78.58m-78.58-15h78.58m-78.58-15.05h78.58m-13.1-15v90.1m-13.08-90.1v90.1m-13.11-90.1v90.1m-13.11-90.1v30.05l.01 15v45.05m-13.08-90.1v90.1m-12.71-90.04v90.11h-78.58v-90.11m0 75.1h78.58m-78.58-15.04h78.58m-78.58-15h78.58m-78.58-15.01h78.58m-78.58-15.04h78.58m-13.11-15.01v90.11m-13.08-90.11v90.11m-13.1-90.11v90.11m-13.11-90.11v90.11m-13.07-90.11v90.11m64.67-107.08h78.59m-78.59-15.04h78.59m-78.59-15h78.59m-78.59-15h78.59m-13.1-17.51v77.56m-13.09-75.23v75.23m-13.1-75.23v75.23m-13.11-75.23v30.18l.01 15v30.05m-13.09-75.23v75.23" stroke-width="6.826"/><path d="m782.22 360.93-1.42-.02-14.36-.16-.41-.01-12.67-.14-.42-.01-12.68-.14-.42-.01-12.69-.14-.4-.01-12.67-.14h-.42l-12.29-.15h-.42l-12.69-.15h-.4l-12.68-.15h-.41l-12.68-.15h-.43l-12.68-.15h-.41l-12.66-.15h-.42l-12.69-.15h-.42v-54.46m78.58-20.84v75.3m-78.58-15h78.58m-78.58-15.05h78.58m-78.58-15h78.58m-78.58-15h78.58m-78.58-15.04h78.58m-13.09-1.08v76.17m-13.09-75.3v75.3m-13.11-75.3v75.3m-13.1-75.3v75.3m-13.08-75.09v75.09" stroke-width="6.826"/><path d="m780.8 436.02v5.49c0 7.26-6.02 13.15-13.45 13.15h-133.62c-3.561 0-6.801-1.351-9.2-3.561-.65-.6-1.24-1.25-1.75-1.96a12.837 12.837 0 0 1 -2.5-7.63v-144.569c0-6.47 4.779-11.84 11.069-12.93.771-.14 1.57-.21 2.381-.21h133.62c7.431 0 13.45 5.88 13.45 13.14z" stroke-width="13.652"/><path d="m718.56 519.07c0 10.25-8.31 18.55-18.56 18.55s-18.56-8.3-18.56-18.55c0-10.261 8.31-18.561 18.56-18.561s18.56 8.301 18.56 18.561z" stroke-width="10.239"/><path d="m251.93 566.77c0 10.69-8.67 19.36-19.35 19.36h-154.14c-10.69 0-19.35-8.67-19.35-19.36v-288.95c0-10.69 8.66-19.35 19.35-19.35h154.14c10.68 0 19.35 8.66 19.35 19.35z" stroke-width="13.652"/><path d="m201.58 518.72c0 24.971-21.01 45.221-46.93 45.221-25.91 0-46.92-20.25-46.92-45.221 0-24.979 21.01-45.22 46.92-45.22 25.92 0 46.93 20.24 46.93 45.22z" stroke-width="13.652"/><path d="m155.62 435.67h78.58m-78.58-15.04h78.58m-78.58-15h78.58m-78.58-15h78.58m-78.58-15.05h78.58m-13.1-15v90.09m-13.08-90.09v90.09m-13.11-90.09v90.09m-13.11-90.09v30.05l.01 15v45.04m-13.08-90.09v90.09m-12.72-90.03v90.11h-78.58v-90.11m0 75.1h78.58m-78.58-15.04h78.58m-78.58-15h78.58m-78.58-15.01h78.58m-78.58-15.04h78.58m-13.1-15.01v90.11m-13.08-90.11v90.11m-13.11-90.11v90.11m-13.1-90.11v90.11m-13.07-90.11v90.11m64.67-107.08h78.59m-78.59-15.04h78.59m-78.59-15h78.59m-78.59-15h78.59m-13.11-17.51v77.56m-13.08-75.23v75.23m-13.1-75.23v75.23m-13.11-75.23v30.18l.01 15v30.05m-13.09-75.23v75.23" stroke-width="6.826"/><path d="m236.88 360.58-1.42-.02-14.36-.16-.42-.01-12.66-.14-.42-.01-12.68-.14-.42-.01-12.69-.14-.4-.01-12.67-.14h-.42l-12.3-.15h-.41l-12.69-.15h-.41l-12.67-.15h-.41l-12.69-.15h-.42l-12.68-.15h-.41l-12.66-.15h-.42l-12.7-.15h-.41v-54.46m78.58-20.84v75.3m-78.58-15h78.58m-78.58-15.05h78.58m-78.58-15h78.58m-78.58-15h78.58m-78.58-15.04h78.58m-13.1-.53v75.62m-13.08-75.3v75.3m-13.11-75.3v75.3m-13.1-75.3v75.3m-13.08-75.09v75.09" stroke-width="6.826"/><path d="m235.46 435.67v5.49c0 7.26-6.02 13.149-13.45 13.149h-133.62c-3.57 0-6.81-1.35-9.21-3.56-.65-.6-1.24-1.25-1.75-1.96-1.57-2.15-2.5-4.79-2.5-7.63v-144.569c0-6.47 4.78-11.84 11.08-12.93.77-.14 1.57-.21 2.38-.21h133.62c7.43 0 13.45 5.88 13.45 13.14z" stroke-width="13.652"/><path d="m173.21 518.72c0 10.25-8.3 18.561-18.56 18.561-10.25 0-18.55-8.311-18.55-18.561s8.3-18.56 18.55-18.56c10.26 0 18.56 8.31 18.56 18.56z" stroke-width="10.239"/></g><path d="m0 0h850.394v850.394h-850.394z" fill="none"/></svg>