<svg height="850" viewBox="0 0 850 850" width="850" xmlns="http://www.w3.org/2000/svg"><path d="m416 212.5 9.5 1.8 11.3 1.8 6 1 6.3.8 6.5.5 6.3.3h6.3l6.3-.5 6-.8 5.8-1.3 2.8-.8 2.8-1 2.5-1.3 2.5-1.3 2.3-1.5 2.3-1.8 2-1.8 1.8-2 1.8-1.8 1.5-1.8 1.3-1.5 1.3-1.8.8-1.8.8-1.5.5-1.8.3-1.5.3-1.8v-1.5l-.5-3-.8-2.8-1.5-2.5-1-1.3-1.3-1.3-1.5-1.3-1.8-1-2.5-.6-2-.8-4.5-1.8-5.3-1.3-5.3-1-5.8-.5-6-.5h-6l-6 .3-5.8.5-5.5.8-5.3 1-4.8 1-4.3 1.5-3.3 1.8-1.5.8-1 .8-1 1-1 1.3-1.8 2.8-1.5 3.5-1.8 4.8-2.3 5.8-5.8 16.3v.4zm42.5-118.5v-.3l-.8-.8-.8-1.3-.5-1.5v-3.6l.3-1.8.8-2 .8-1.8 1-1.8 1-1.8 1.5-1.8 1.5-1.3 1.8-1.3 2-1 2.3-.5 2.3-.5 19.8-.8 29-.8 19 2.5 48.8 6.8 31.5 4.8 34.3 5 35.3 5.8 34.8 5.8-17.5 140.8.3.5-57.8 23.7-26 10.3-12 4.5-11.5 4.3-11 4-10.5 3.3-9.8 3-9.3 2.3-8.5 2-7.8 1.3-7 .5h-6.6l-6.8-.8-6.5-1-6.8-1.8-6.8-2-6.5-2.5-6.3-2.5-6.3-2.8-6-2.8-11-5.5-9.8-5.3-8-4-3-1.3-2.8-1-9.3-2.8-10.3-2.8-5.8-1.5-6-1.3-6.8-1-7-1-3.3-.8-3-.5-2.8-.8-2.3-1-2-1-1.8-1.3-1.5-1-1.3-1.5-2 3.3-2.3 2.3-.1 1.5-1.8.8-1.8.8-2 .8-2 .3-2.3.3h-2l-2-.5-2-.8-1.5-1-1.5-1.3-1-1.8-.8-2.3-.3-2.8.5-3 .8-3.5 17.3-57 7.8-25.3 2.5-6.8 2.8-6 2.8-5.3 2.5-4.5 2.8-3.8 2.5-3.3 2.8-2.8 2.5-2 2.5-1.8 2.3-1.5 2.3-1 2.3-1 3.8-1.3 3.3-1.3 1.3-.3 1.5-.5 4.3-.5 5.5-.3h6.5v-1.8l-.3-2.5v-2.8l.3-2.8.8-2.5 1.3-2.5 1.5-2 1-1 1.3-1 1.3-.8h.6l2.3-.8 3-.5 4-.3z" fill="#ffeec8"/><path d="m393.7 264-18.2 47-15 38.8-4.5 1.7-4.8 1.8-5.2 1.5-5.5 1.5 21.5-55.3 16.5-43z" fill="#ffffc2"/><path d="m360.5 349.8-65 168.2-8.8.3-9 .2 62.8-162.2 5.5-1.5 5.2-1.5 4.8-1.8z" fill="#ffffc2"/><path d="m295.5 518-44.3 114v.3l-2.5 17-5 39.2-.7 5-1 5.3-1.3 6.2-1.7 6.8-2 6.5-1.3 2.7-1.2 2.8-1.3 2.2-1.5 2-4.5 4.5-4 3.8-2 1.2-1.7 1.3-2 1-1.8.7-1.7.5-1.8.3-1.7.2-2-.2-1.8-.3-1.7-.2-4-1.3-.3-.2-3.7-1.5-1.5-1-1.8-1-1.2-1.3-1.3-1.2-1.2-1.5-1-1.5-.8-1.8-1-2-.5-2.2-.5-2.3-.5-2.7-.2-2.8v-8.7l.7-2.8.8-2.7 1.2-3 2.8-6 3.2-6 3.3-5.8 3-4.5 2.7-4 32.8-47 41.7-107.5 9-.2z" fill="#ffffc2"/><path d="m385 716.8v3.7l-.3 3-.5 3.3-.7 4-1.3 4.2-1.7 4.5-2.3 4.8-2.7 4.7-1.8 2.5-2 2.3-2 2.5-2.5 2.2-2.5 2.3-2.7 2.2-3 2.3-3.3 2-3.5 2-3.7 1.7-4.3 1.8-4.2 1.5-5.5 1.7-5.5 1.3-6 1.2-6 .8-6 .7-6 .5-11.5.8-10 .2-8.3-.2-7.5-.3h-1.5l-5.5.3-6.2-.3-7.8-.5-9.2-.7-10-1.5-5.3-1-5.2-1.3-5.3-1.2-5.2-1.8-4.5-1.5-4-1.7-3.8-1.8-3.5-2-3.2-2-3-2.2-2.8-2.3-2.7-2.2-2.3-2.3-2-2.5-2-2.2-1.7-2.5-3-4.8-2.3-4.7-1.5-4.5-1.2-4.3-.8-4-.5-3.2-.2-3v-3.8l-.5-82.2v-145.3l.2 1.8.5 1.5.8 1.5 1.2 1.5 1.3 1.5 1.5 1.5 2 1.2 2 1.5 4.7 2.8 5.8 2.5 6.5 2.2 7.2 2.3 7.8 2 8.7 1.7 9 1.5 9.8 1.3 10 1 10.7.7 11 .5h16l-41.7 107.5-32.8 47-2.7 4-3 4.5-3.3 5.8-3.2 6-2.8 6-1.2 3-.8 2.7-.7 2.8v8.7l.2 2.8.5 2.7.5 2.3.5 2.2 1 2 .8 1.8 1 1.5 1.2 1.5 1.3 1.2 1.2 1.3 1.8 1 1.5 1 3.7 1.5.3.2 4 1.3 1.7.2 1.8.3 2 .2 1.7-.2 1.8-.3 1.7-.5 1.8-.7 2-1 1.7-1.3 2-1.2 4-3.8 4.5-4.5 1.5-2 1.3-2.2 1.2-2.8 1.3-2.7 2-6.5 1.7-6.8 1.3-6.2 1-5.3.7-5 5-39.2 2.5-17v-.3l44.3-114 9.2-.7 9-.8 8.8-1 8.2-1.5 7.8-1.2 7.2-1.8 6.8-1.7 6.5-2 5.5-2 5.2-2.3 4.3-2.2 3.7-2.5 3-2.5 1.3-1.3 1-1.2.7-1.5.8-1.3.2-1.2.3-1.5z" fill="#f6cc4b"/><g fill="none" stroke="#231f20" stroke-linecap="round" stroke-miterlimit="10" stroke-width="14"><path d="m161 488v-31.7l.5-20.8v-15.2l-.3-6.5-.2-6.3-1-10.2-1-8.5-1.3-6.3-1-4.2-1.2-3.5-3-6.8-3.3-6.7-3.7-7-3.5-6.5-6.8-11.8-5.2-8.5-1.5-2.5m256.5 3.3v392.2l-.3 3-.5 3.3-.7 4-1.3 4.2-1.7 4.5-2.3 4.8-2.7 4.7-1.8 2.5-2 2.3-2 2.5-2.5 2.2-2.5 2.3-2.7 2.2-3 2.3-3.3 2-3.5 2-3.7 1.7-4.3 1.8-4.2 1.5-5.5 1.7-5.5 1.3-6 1.2-6 .8-6 .7-6 .5-11.5.8-10 .2-8.3-.2-7.5-.3h-1.5l-5.5.3-6.2-.3-7.8-.5-9.2-.7-10-1.5-5.3-1-5.2-1.3-5.3-1.2-5.2-1.8-4.5-1.5-4-1.7-3.8-1.8-3.5-2-3.2-2-3-2.2-2.8-2.3-2.7-2.2-2.3-2.3-2-2.5-2-2.2-1.7-2.5-3-4.8-2.3-4.7-1.5-4.5-1.2-4.3-.8-4-.5-3.2-.2-3v-3.8l-.5-82.2v-145.3"/><path d="m357.7 299.5-5-2-5.5-2-5.5-1.5-6-1.5-5.7-1.2-6.3-1-6.2-1-6.3-.8-12.7-1.2-12.8-.8-12.5-.5h-12l-13.7.3-13.3.5-12.7 1.2-12.3 1.5-11.2 2-10.8 2.3-10 2.5-9 3-4.5 2.2-10.7 5.8-6.8 4-7.2 4.2-7 4.5-6.5 4.5 4.5 3 39.2 25 9 3 10 2.5 10.5 2.3 11.5 1.7 12 1.5 12.5 1 13 .8 13.5.2 11.3-.2 10.7-.5 10.8-.8 10-1 10-1.2 9.2-1.5 9-1.8 8.3-2.2 5.5-1.5 5.2-1.5 4.8-1.8 4.5-1.7 4.7-2.3 4.5-2.2 3.8-2.5 3.2-2.3 3-2.5 2.3-2.7 1.7-2.8 1.3-2.5.5-2.2.2-2-.2-1.8-.3-1.7-.7-1.8-.8-1.7-1-1.8-1.2-1.5-1.5-1.7-1.8-1.5"/><path d="m277.7 518.5-41.7 107.5-32.8 47-2.7 4-3 4.5-3.3 5.8-3.2 6-2.8 6-1.2 3-.8 2.7-.7 2.8v8.7l.2 2.8.5 2.7.5 2.3.5 2.2 1 2 .8 1.8 1 1.5 1.2 1.5 1.3 1.2 1.2 1.3 1.8 1 1.5 1 3.7 1.5.3.2 4 1.3 1.7.2 1.8.3 2 .2 1.7-.2 1.8-.3 1.7-.5 1.8-.7 2-1 1.7-1.3 2-1.2 4-3.8 4.5-4.5 1.5-2 1.3-2.2 1.2-2.8 1.3-2.7 2-6.5 1.7-6.8 1.3-6.2 1-5.3.7-5 5-39.2 2.5-17v-.3l44.3-114 65-168.2 15-38.8 18.2-47-15.2-6-16.5 43-21.5 55.3z"/><path d="m385 487.3v.5l-.3 1.5-.2 1.2-.8 1.3-.7 1.5-1 1.2-1.3 1.3-3 2.5-3.7 2.5-4.3 2.2-5.2 2.3-5.5 2-6.5 2-6.8 1.7-7.2 1.8-7.8 1.2-8.2 1.5-8.8 1-9 .8-9.2.7-8.8.3-9 .2h-16l-11-.5-10.7-.7-10-1-9.8-1.3-9-1.5-8.7-1.7-7.8-2-7.2-2.3-6.5-2.2-5.8-2.5-4.7-2.8-2-1.5-2-1.2-1.5-1.5-1.3-1.5-1.2-1.5-.8-1.5-.5-1.5-.2-1.8-.3-.7m346.3-285.3-2.3 2.8-1.7 2-2 1.7-2.3 1.8-2.2 1.5-2.5 1.2-2.5 1.3-2.8 1-2.7.7-5.8 1.3-6 .7-6.2.5h-6.3l-6.2-.2-6.5-.5-6.3-.8-6-1-11.2-1.7-9.5-1.8-6.5-.7h-3.8l-4 .2-3.7 1.3-4 1.5-1.8 1-2 1.2-1.7 1.3-1.5 1.5-1.8 1.7-1.2 1.8-1.5 2-1 2-2 4-.8 2.7-.7 3-.5 3v1.8l.2 1.5.5 1.5.5 1.7.8 1.5 1 1.3 1.2 1.5 1.5 1 1.8 1.2 2 1 2.2 1 2.8.8 3 .5 3.2.7 7 1 6.8 1 6 1.3 5.7 1.5 10.3 2.7 9.2 2.8 2.8 1 3 1.2 8 4 9.7 5.3 11 5.5 6 2.7 6.3 2.8 6.2 2.5 6.5 2.5 6.8 2 6.7 1.7 6.5 1 6.8.8h6.5l7-.5 7.7-1.3 8.5-2 9.3-2.2 9.7-3 10.5-3.3 11-4 11.5-4.2 12-4.5 26-10.3 57.3-23.2 4.7-2"/><path d="m517 119.3-8.5-.5-20.5-1-26.3-1.3-13-.2h-18.5l-5.5.2-4.2.5-1.5.5-1.3.3-3.2 1.2-3.8 1.3-2.2 1-2.3 1-2.2 1.5-2.5 1.7-2.5 2-2.8 2.8-2.5 3.2-2.7 3.8-2.5 4.5-2.8 5.2-2.7 6-2.5 6.8-7.8 25.2-17.2 57-.8 3.5-.5 3 .3 2.8.7 2.2 1 1.8 1.5 1.2 1.5 1 2 .8 2 .5h2l2.3-.3 2-.2 2-.8 1.7-.7 1.8-.8 1.2-1.2 2.3-2.3 2-3.2.7-.8m141.3-154.5-6.8-.2-16.7-.3h-31l-9.5.5-4.3.5-4 .3-3 .5-2.2.7-1.3.8-1.2.7-1.3 1-1 1-1.5 2-1.2 2.5-.8 2.5-.2 2.8v2.7l.2 2.5"/><path d="m458.5 93.8-.8-.8-.7-1.2-.5-1.5v-3.5l.2-1.8.8-2 .7-1.7 1-1.8 1-1.7 1.5-1.8 1.5-1.2 1.8-1.3 2-1 2.2-.5 2.3-.5 19.7-.7 29-.8 19 2.5 48.8 6.8 31.5 4.7 34.2 5 35.3 5.8 34.7 5.7 5 .8m-312.7 110.5 5.7-16.3 2.3-5.7 1.7-4.8 1.5-3.5 1.8-2.7 1-1.3 1-1 1-.7 1.5-.8 3.2-1.7 4.3-1.5 4.7-1 5.3-1 5.5-.8 5.7-.5 6-.2h6l6 .5 5.8.5 5.2 1 5.3 1.2 4.5 1.8 2 .7 1.7 1.3 1.8 1 1.5 1.2 1.2 1.3 1 1.2 1.5 2.5.8 2.8.5 3v1.5l-.3 1.7-.2 1.5-.5 1.8-.8 1.5-.7 1.7-1.3 1.8-1.2 1.5-1.5 1.7-1.8 1.8"/></g></svg>