<svg height="850.394" viewBox="0 0 850.394 850.394" width="850.394" xmlns="http://www.w3.org/2000/svg"><path d="m338.94 428.19h7.16v-.04c105.45-1.261 190.15-30.2 192.82-66.05l2.64.15-6.31 113.49-6.41 115.399s-2.8 54.811-31.88 75.86c-31.88 23.09-72.56 45.08-166 45.08l.42-.09c-80.06-2.811-117.27-23.3-146.89-44.76-29.07-21.051-31.88-75.86-31.88-75.86l-13.04-225.45c8.35 34.861 94.42 62.271 199.37 62.271z" fill="#9e5c26"/><g fill="#ed1d31"><path d="m785.55 593.41-143.62 32.54-1.96-1.28 1.96-3.02 23.32-45.42-75.06-9.61 114.35-24.15-21.49 25.16 89.61 18.42 1.88-3.27 11.01 6.34z"/><path d="m615.93 609.05v154l-1.59 2.03-52.21-40.93v-151.61l28.06-5.92 75.06 9.61-23.32 45.42-1.96 3.02z"/><path d="m785.55 593.41v152.84l-142.77 37.03-.85-3.28v-154.05zm-11.01-10.63-1.88 3.27-89.61-18.42 21.49-25.16z"/><path d="m641.93 780 .85 3.28-3.92 1.02-24.52-19.22 1.59-2.03v-154l24.04 15.62 1.96 1.28v3.06z"/></g><path d="m346.1 428.15c-2.37.029-4.76.04-7.16.04-104.95 0-191.02-27.411-199.37-62.271l-.49-8.42c4.4-36.15 92.2-64.99 199.86-64.99 110.48 0 200.05 30.37 200.05 67.84 0 .59-.021 1.17-.07 1.75-2.67 35.851-87.37 64.791-192.82 66.051z" fill="#9e5c26"/><g fill="none" stroke="#231f20"><path d="m553.72 143.36-.069 1.23-2.971 53.56-9.12 164.1-6.31 113.49-6.41 115.399s-2.8 54.811-31.88 75.86c-31.88 23.09-72.56 45.08-166 45.08l.42-.09c-80.06-2.811-117.27-23.3-146.89-44.76-29.07-21.051-31.88-75.86-31.88-75.86l-13.04-225.45-.49-8.42-4.28-73.96s2.17-43.97-23.76-80.25c-25.92-36.28-49.68-60.47-49.68-60.47l7.87-3.81 65.38-31.66c35.96-25.389 111.29-42.859 198.39-42.859 121.99 0 220.89 34.27 220.89 76.55 0 1.19-.08 2.37-.239 3.55-5.341 40.62-102.091 72.99-220.651 72.99-93.54 0-168.37-26.32-187.23-45.29-6.24-6.28-74.69-29.47-74.69-29.47" stroke-width="21"/><path d="m554.07 198.34h46.55s49.47 10.72 54.83 54.84c5.35 44.11-7.84 126.56-30.101 157.9-22.26 31.34-48.22 53.52-75.859 61.01-5.931 1.61-6.59 2.88-10.24 3.87" stroke-width="28"/><path d="m346.1 382.49v310.58" stroke-width="14"/><path d="m304.95 372.94h82.45" stroke-width="21"/><path d="m304.8 482.61h82.46" stroke-width="14"/><path d="m316.27 405.23h60.47" stroke-width="7"/><path d="m316.39 428.19h60.46" stroke-width="13.142"/><path d="m316.07 450.13h60.47" stroke-width="7"/><path d="m387.39 591.07h-82.45" stroke-width="14"/><path d="m376.07 558.78h-60.47m60.35-22.96h-60.46m60.79-21.95h-60.48m59.46 154.04h-60.46m60.35-22.95h-60.46m60.78-21.95h-60.47" stroke-width="7"/><g stroke-width="14"><path d="m704.54 542.47 70 40.31 11.01 6.34v157.13l-142.77 37.03-3.92 1.02-24.52-19.22-52.21-40.93v-151.61l28.06-5.92zm-62.61 86.54v150.99"/><path d="m568.27 578.07 47.66 30.98 24.04 15.62 1.96 1.28 143.62-32.54m-169.62 15.63v154.01"/><path d="m590.19 566.62 75.06 9.61-23.32 45.42m62.61-79.18-21.49 25.16 89.61 18.42m-633.58-228.55c4.4-36.15 92.2-64.99 199.86-64.99 110.48 0 200.05 30.37 200.05 67.84 0 .59-.021 1.17-.07 1.75-2.67 35.85-87.37 64.79-192.82 66.05-2.37.029-4.76.04-7.16.04-104.95 0-191.02-27.411-199.37-62.271-.45-1.84-.67-3.69-.67-5.57 0-.959.06-1.909.18-2.849z"/></g></g><path d="m0 0h850.394v850.394h-850.394z" fill="none"/></svg>