<svg height="850" viewBox="0 0 850 850" width="850" xmlns="http://www.w3.org/2000/svg"><path d="m779 516.8-61.5-1.2h-3l.3-10.5.2-11 .3-20.3-.3-21-.2-4.2-.3-4-.7-4.3-.5-4.2 4.2-.5 61.5.2z" fill="#a9d7f3"/><path d="m537.3 517.6-1.3-21-1-11.3-1-11-1.2-11-1.8-10-1.7-9-1-4.2-1-3.5-1-3-1-2.5-5.8-11.5-5.2-10.5-8.8-17.3-3.2-6.7-2.3-5.8-.7-2.2-.3-2v-1.8l.3-1.5 1-2.2 1.2-2.3 1.8-2 1.7-2 2-1.5 2.3-1.2 2.5-1 2.7-.5h2.8l3 .2 3.2.8 3 1.5 3.5 2 3.3 2.5 3.2 3.5 3.5 3.7.5-2 .8-4 1.5-5 1-2.5 1.5-2.5 1.5-2.7 1.7-2.3 2-2 2.3-1.7 2.7-1.3 1.3-.5 1.7-.2h3.3l1.7.2 1.8.3 2 .7 2 .8 2 1.2 2 1.3 2 1.5 1.7 1.7 3.8 4 3.7 4.8 3.5 5 3.3 5.5 3.2 5.5.8-3 1.2-4.5 1.8-5.5 1.2-3 1.5-3 1.8-2.8 1.7-2.5 2.3-2.2 2.5-1.8 2.5-1.5 1.5-.5 1.5-.2 1.7-.3h1.5l1.8.3 2 .2 2 .8 2 1 2 1.2 2 1.3 2 1.7 2 1.8 3.7 4.2 3.8 4.8 3.7 5.5 3.5 5.5 3.3 6 .2-.3v-1.2l.5-3.8 1.3-5 .7-2.5 1-2.7 1.3-2.5 1.5-2.5 1.7-2 1-.8 1.3-.7 1-.8 1.5-.2 1.2-.3 1.5-.2 1.5.2 1.5.3 1.8.5 2 .7 1.7 1.3 2 1.7 2.5 2.5 2.5 3 2.5 3.5 2.8 4 3 4.8 2.7 4.7 2.8 5.5 3 5.5 2.5 6 2.5 6.3 2.5 6.2 2 6.5 2 6.8 1.5 6.7.5 2.3.5 4.2.7 4.3.3 4 .2 4.2.3 21-.3 20.3-.2 11-.3 10.5-.5 8-.5 7.2-.7 6-.8 5-1 4.3-1.5 5-3.7 11.5-4.3 13-4.7 13.2-8.5 22.5-3.5 9.8-149.8.5-1.2-3-3.8-8.8-3-6.5-3.7-7.7-4.5-9-5.3-10-5.7-10.8-5-10.2-4.5-9.5-4-8.8-5.5-12.7-2-5v-2.3l46.7.3z" fill="#ffeec8"/><path d="m313.5 515.6h-3l.3-4.3 1.5-20 .7-10.2 1.3-10.3 1.2-9.5 1.5-9 1.8-8.2.7-3.5 1-3.3 5 .3h198l3.8-1 1 3.5 1 4.2 1.7 9 1.8 10 1.2 11 1 11 1 11.3 1.3 21h-3.8l-46.7-.3-126.3-1.2z" fill="#a9d7f3"/><path d="m253.5 381.1 3.3-5.5 3.2-5.5 3.5-5 3.8-4.5 3.7-4 1.8-1.8 2-1.5 1.7-1.2 2-1.3 2-1 2-.5 2-.5h1.8l1.7-.2 1.8.2 1.5.5 1.5.5 1.2.5 1.5.8 2.3 2 2 2.2 1.7 2.5 1.3 2.8 1.2 2.7 1 2.8 1.3 5 .5 3.7.2 1.3 3.5-4 3.5-3.5 3.3-2.8 3.2-2 3.3-1.5 3.2-.7 3-.5h2.8l2.7.7 2.5.8 2.3 1.2 2 1.5 2 2 1.5 2 1.2 2.3 1.3 2.2.2 1.5-.2 1.8-.3 2-.7 2.2-2.3 5.5-3 6.8-8.7 17.2-5.3 10.3-5.7 11.7-1.8 4.5-1 3.3-.7 3.5-1.8 8.2-1.5 9-1.2 9.5-1.3 10.3-.7 10.2-1.5 20-.3 4.3h3l47 .5v4.5l-2 4.7-5.5 12.8-4 8.5-4.5 9.7-5 10-5.5 10.8-5.2 10-4.5 8.7-3.8 7.8-3 6.2-3.7 9-1.3 3-148.5-.7-3.5-9.5-8.2-22.3-4.8-13.2-4.5-13-3.5-11.5-1.5-4.8-1-4.2-.7-4.8-.8-6.2-.5-7-.5-7.8-.2-10.5-.3-10.7-.2-20.3.2-21 .3-4.5.5-4.5.5-4.5 1-4.5 1.5-6.7 1.7-6.3 2.3-6.5 2.2-6.2 2.5-5.8 2.8-5.7 2.7-5.5 3-5.3 3-4.7 2.8-4.3 2.7-4 2.8-3.2 2.5-3 2.5-2.3 2-2 1.7-1 2-.7 1.8-.5 1.5-.5h4.2l1.3.5 1.2.2 2 1.5 1.8 1.5 1.5 2 1.2 2.3.8 2.2.7 2.5 1 4.3.5 3.2v1.3l.8.2 3.2-5.7 3.3-5.5 3.5-5.3 3.7-4.5 3.8-4.2 2-1.8 2-1.5 2-1.5 2-1 2-1 2-.7 1.7-.3 1.8-.2h1.5l1.7.2 1.5.3 1.3.5 2.7 1.5 2.5 1.7 2 2.3 2 2.5 1.5 2.7 1.5 2.8 1.3 3 2 5.5 1.2 4.5z" fill="#ffeec8"/><path d="m133.5 435.6 2.8.7-1 4.5-.5 4.5-.5 4.5-.3 4.5-.2 21 .2 20.3.3 10.7.2 10.5h-64.5v-81z" fill="#a9d7f3"/><g fill="none" stroke="#231f20" stroke-linecap="round" stroke-miterlimit="10"><path d="m403.8 277.6h-159.8m44-40.5-44.7 40.7 45 40.8m162.2-42h159.5m-44-40.8 45 41-45 40.5" stroke-width="21"/><path d="m538.3 546.3-.3-8.2-.7-20.5-1.3-21-1-11.3-1-11-1.2-11-1.8-10-1.7-9-1-4.2-1-3.5-1-3-1-2.5-5.8-11.5-5.2-10.5-8.8-17.3-3.2-6.7-2.3-5.8-.7-2.2-.3-2v-1.8l.3-1.5 1-2.2 1.2-2.3 1.8-2 1.7-2 2-1.5 2.3-1.2 2.5-1 2.7-.5h2.8l3 .2 3.2.8 3 1.5 3.5 2 3.3 2.5 3.2 3.5 3.5 3.7 3.5 4.8 3.3 5.5 8.2 14.2 6.5 11.8 5.8 10.5" stroke-width="14"/><path d="m540 373.6v-.3l.5-2 .8-4 1.5-5 1-2.5 1.5-2.5 1.5-2.7 1.7-2.3 2-2 2.3-1.7 2.7-1.3 1.3-.5 1.7-.2h3.3l1.7.2 1.8.3 2 .7 2 .8 2 1.2 2 1.3 2 1.5 1.7 1.7 3.8 4 3.7 4.8 3.5 5 3.3 5.5 3.2 5.5 3.3 6 3 6 5 11.5 4 9.5 2.5 6.7" stroke-width="14"/><path d="m594.5 379.8v-.7l.8-3 1.2-4.5 1.8-5.5 1.2-3 1.5-3 1.8-2.8 1.7-2.5 2.3-2.2 2.5-1.8 2.5-1.5 1.5-.5 1.5-.2 1.7-.3h1.5l1.8.3 2 .2 2 .8 2 1 2 1.2 2 1.3 2 1.7 2 1.8 3.7 4.2 3.8 4.8 3.7 5.5 3.5 5.5 3.3 6 3 5.7 2.7 5.8 4.8 11 3.7 9 2.8 6.5m44 13.2.5 2.3.5 4.2.7 4.3.3 4 .2 4.2.3 21-.3 20.3-.2 11-.3 10.5-.5 8-.5 7.2-.7 6-.8 5-1 4.3-1.5 5-3.7 11.5-4.3 13-4.7 13.2-8.5 22.5-3.5 9.8m-32.8-238.8v-1.2l.5-3.8 1.3-5 .7-2.5 1-2.7 1.3-2.5 1.5-2.5 1.7-2 1-.8 1.3-.7 1-.8 1.5-.2 1.2-.3 1.5-.2 1.5.2 1.5.3 1.8.5 2 .7 1.7 1.3 2 1.7 2.5 2.5 2.5 3 2.5 3.5 2.8 4 3 4.8 2.7 4.7 2.8 5.5 3 5.5 2.5 6 2.5 6.3 2.5 6.2 2 6.5 2 6.8 1.5 6.7m-226 85.8 2 5 5.5 12.7 4 8.8 4.5 9.5 5 10.2 5.7 10.8 5.3 10 4.5 9 3.7 7.7 3 6.5 3.8 8.8 1.2 3m-224.2-110.3 1.5-20 .7-10.2 1.3-10.3 1.2-9.5 1.5-9 1.8-8.2.7-3.5 1-3.3 1.8-4.5 5.7-11.7 5.3-10.3 8.7-17.2 3-6.8 2.3-5.5.7-2.2.3-2 .2-1.8-.2-1.5-1.3-2.2-1.2-2.3-1.5-2-2-2-2-1.5-2.3-1.2-2.5-.8-2.7-.7h-2.8l-3 .5-3.2.7-3.3 1.5-3.2 2-3.3 2.8-3.5 3.5-3.5 4-3 4.5-3 5-8.2 14.2-6.3 11.5-5.7 10.5" stroke-width="14"/><path d="m309.5 546.8.3-9 .7-22.2.3-4.3m-3.8-135.2-.2-1.3-.5-3.7-1.3-5-1-2.8-1.2-2.7-1.3-2.8-1.7-2.5-2-2.2-2.3-2-1.5-.8-1.2-.5-1.5-.5-1.5-.5-1.8-.2-1.7.2h-1.8l-2 .5-2 .5-2 1-2 1.3-1.7 1.2-2 1.5-1.8 1.8-3.7 4-3.8 4.5-3.5 5-3.2 5.5-3.3 5.5-3 6-3 6-5 11.2-4 9.5-2.7 6.8" stroke-width="14"/><path d="m253.8 381.8-.3-.7-.5-3-1.2-4.5-2-5.5-1.3-3-1.5-2.8-1.5-2.7-2-2.5-2-2.3-2.5-1.7-2.7-1.5-1.3-.5-1.5-.3-1.7-.2h-1.5l-1.8.2-1.7.3-2 .7-2 1-2 1-2 1.5-2 1.5-2 1.8-3.8 4.2-3.7 4.5-3.5 5.3-3.3 5.5-3.2 5.7-3 5.8-3 6-4.8 11-4 9.2-2.5 6.5" stroke-width="14"/><path d="m196.5 383.6v-1.3l-.5-3.2-1-4.3-.7-2.5-.8-2.2-1.2-2.3-1.5-2-1.8-1.5-2-1.5-1.2-.2-1.3-.5h-4.2l-1.5.5-1.8.5-2 .7-1.7 1-2 2-2.5 2.3-2.5 3-2.8 3.2-2.7 4-2.8 4.3-3 4.7-3 5.3-2.7 5.5-2.8 5.7-2.5 5.8-2.2 6.2-2.3 6.5-1.7 6.3-1.5 6.7-1 4.5-.5 4.5-.5 4.5-.3 4.5-.2 21 .2 20.3.3 10.7.2 10.5.5 7.8.5 7 .8 6.2.7 4.8 1 4.2 1.5 4.8 3.5 11.5 4.5 13 4.8 13.2 8.2 22.3 3.5 9.5m196.5-100.5-2 4.7-5.5 12.8-4 8.5-4.5 9.7-5 10-5.5 10.8-5.2 10-4.5 8.7-3.8 7.8-3 6.2-3.7 9-1.3 3" stroke-width="14"/><path d="m135.8 516.8h-65.8v-81l63.5-.2m400 82-46.7-.3-126.3-1.2-47-.5m404-80 61.5.2v81l-61.5-1.2m-392-78h198" stroke-width="14"/></g></svg>