<svg height="850.394" viewBox="0 0 850.394 850.394" width="850.394" xmlns="http://www.w3.org/2000/svg"><path d="m468.98 357.01c0-2.39-.9-4.58-2.4-6.29l.86-.31c1.93 2.2 4.84 3.6 8.1 3.6h14.63c2.19 0 4.23-.64 5.92-1.72.3 2.87.59 5.72.88 8.57-1.84-1.48-4.21-2.36-6.8-2.36h-14.63c-2.9 0-5.521 1.11-7.42 2.9-.19.18-.38.37-.561.56a9.39 9.39 0 0 0 1.421-4.95zm-.8 49.17c0-2.39-.899-4.59-2.39-6.3l.85-.3c1.931 2.19 4.841 3.59 8.101 3.59h14.64c2.14 0 4.13-.61 5.8-1.65 1.42-.88 2.59-2.08 3.41-3.49a9.417 9.417 0 0 0 1.29-4.75c0-.35-.02-.7-.06-1.04l.189-.02c.811 8.95 1.53 17.42 2.101 25.1l-2.82.21c-.07-1.28-.4-2.48-.93-3.58-1.66-3.4-5.301-5.76-9.54-5.76h-14.621c-2.87 0-5.47 1.09-7.37 2.84a9.384 9.384 0 0 0 1.35-4.85zm-32.21-227.68-2.739-.64c1.89-1.79 3.069-4.26 3.069-6.99 0-2.22-.78-4.27-2.08-5.91l2.57-.11c1.92 2.42 4.97 3.98 8.41 3.98h14.63c1.57 0 3.06-.33 4.4-.92 1.949 3.57 3.77 7.53 5.479 11.89.05.13.1.26.15.4l-.03.01c-.05-.13-.1-.27-.15-.4-1.47-3.79-5.33-6.49-9.85-6.49h-14.629c-2.9 0-5.521 1.11-7.42 2.9-.71.67-1.32 1.44-1.81 2.28zm-98.46 424.46c-.27-.6-.54-1.2-.8-1.81 1.39.659 2.97 1.02 4.63 1.02h14.63c2.89 0 5.52-1.11 7.42-2.89.24-.221.46-.46.67-.7l2.72 1.05c-1.49 1.71-2.39 3.91-2.39 6.3 0 2.051.66 3.95 1.79 5.53l-2.07.09c-1.88-2.63-5.07-4.359-8.7-4.359h-14.63c-.41 0-.81.02-1.2.06a95.347 95.347 0 0 1 -2.07-4.291z" fill="#fff400"/><path d="m337.51 602.96c-.27-.6-.54-1.2-.8-1.81 1.39.659 2.97 1.02 4.63 1.02h14.63c2.89 0 5.52-1.11 7.42-2.89.24-.221.46-.46.67-.7l2.72 1.05c-1.49 1.71-2.39 3.91-2.39 6.3 0 2.051.66 3.95 1.79 5.53l-2.07.09c-1.88-2.63-5.07-4.359-8.7-4.359h-14.63c-.41 0-.81.02-1.2.06a95.347 95.347 0 0 1 -2.07-4.291zm98.46-424.46-2.739-.64c1.89-1.79 3.069-4.26 3.069-6.99 0-2.22-.78-4.27-2.08-5.91l2.57-.11c1.92 2.42 4.97 3.98 8.41 3.98h14.63c1.57 0 3.06-.33 4.4-.92 1.949 3.57 3.77 7.53 5.479 11.89.05.13.1.26.15.4l-.03.01c-.05-.13-.1-.27-.15-.4-1.47-3.79-5.33-6.49-9.85-6.49h-14.629c-2.9 0-5.521 1.11-7.42 2.9-.71.67-1.32 1.44-1.81 2.28zm33.01 178.51c0-2.39-.9-4.58-2.4-6.29l.86-.31c1.93 2.2 4.84 3.6 8.1 3.6h14.63c2.19 0 4.23-.64 5.92-1.72.3 2.87.59 5.72.88 8.57-1.84-1.48-4.21-2.36-6.8-2.36h-14.63c-2.9 0-5.521 1.11-7.42 2.9-.19.18-.38.37-.561.56a9.39 9.39 0 0 0 1.421-4.95zm-.8 49.17c0-2.39-.899-4.59-2.39-6.3l.85-.3c1.931 2.19 4.841 3.59 8.101 3.59h14.64c2.14 0 4.13-.61 5.8-1.65 1.42-.88 2.59-2.08 3.41-3.49a9.417 9.417 0 0 0 1.29-4.75c0-.35-.02-.7-.06-1.04l.189-.02c.811 8.95 1.53 17.42 2.101 25.1l-2.82.21c-.07-1.28-.4-2.48-.93-3.58-1.66-3.4-5.301-5.76-9.54-5.76h-14.621c-2.87 0-5.47 1.09-7.37 2.84a9.384 9.384 0 0 0 1.35-4.85zm-67.39-73.19c0-2.39-.9-4.58-2.39-6.29l2.85-.89c1.92 2.42 4.97 3.98 8.41 3.98h14.63c3.08 0 5.85-1.25 7.77-3.24l2.66.56-1.52 5.13c0 2.22.77 4.27 2.08 5.92l-2.73.21c-1.93-2.2-4.84-3.6-8.1-3.6h-14.62c-2.9 0-5.53 1.11-7.43 2.9-.48.45-.9.94-1.28 1.46l-2.41-.23a9.428 9.428 0 0 0 2.08-5.91zm-3.02 67.62 2.86-.87c1.91 2.42 4.97 3.98 8.41 3.98h14.62c3.08 0 5.85-1.25 7.77-3.24l2.66.56-1.52 5.14c0 5.46 4.699 9.89 10.489 9.89h14.641c2.87 0 5.47-1.09 7.35-2.85a9.402 9.402 0 0 0 -1.35 4.86c0 2.39.899 4.58 2.399 6.29l-.869.3c-1.931-2.19-4.841-3.59-8.11-3.59h-14.62c-2.9 0-5.52 1.1-7.42 2.89-.59.56-1.12 1.19-1.55 1.87l-2.66-.56c1.689-1.76 2.72-4.1 2.72-6.66 0-5.46-4.7-9.88-10.49-9.88h-14.63c-2.89 0-5.52 1.1-7.42 2.89-.47.45-.9.94-1.28 1.46l-1.69-.27a9.436 9.436 0 0 0 2.09-5.91c0-2.39-.9-4.59-2.4-6.3zm92.48 32.26c5.8 0 10.5 4.439 10.5 9.89 0 5.471-4.7 9.891-10.5 9.891h-14.62c-3.26 0-6.18-1.4-8.11-3.591-1.489-1.71-2.39-3.909-2.39-6.3l1.79-5.529c.38-.521.8-1.011 1.28-1.461 1.899-1.789 4.53-2.899 7.43-2.899h14.62zm0 24.28c5.8 0 10.5 4.42 10.5 9.88 0 5.47-4.7 9.899-10.5 9.899h-14.62c-3.26 0-6.18-1.399-8.11-3.6-1.489-1.71-2.39-3.91-2.39-6.3 0-1.8.51-3.49 1.4-4.94.42-.46.8-.96 1.12-1.49.17-.189.359-.38.55-.56 1.899-1.78 4.53-2.89 7.43-2.89h14.62zm-.23 76.08c5.801 0 10.48 4.449 10.48 9.899s-4.68 9.89-10.48 9.89h-14.62c-3.271 0-6.19-1.399-8.11-3.6-.36-.41-.69-.85-.98-1.32-.14-.239-.279-.479-.399-.72-.09-.18-.17-.35-.25-.54-.05-.1-.09-.2-.13-.31a6.94 6.94 0 0 1 -.19-.54 2.34 2.34 0 0 1 -.08-.28c-.05-.16-.1-.32-.12-.479-.029-.11-.06-.221-.069-.32-.011-.01-.021-.021-.011-.03a5.806 5.806 0 0 1 -.1-.59c-.03-.271-.06-.54-.06-.81-.011-.11-.011-.23-.011-.351l2.73-6.649c.11-.11.229-.23.35-.341 1.9-1.8 4.53-2.909 7.431-2.909z" fill="#fff400"/><path d="m489.38 383.39c2.8 0 5.351 1.04 7.24 2.73 1.75 1.58 2.93 3.72 3.2 6.12.04.34.06.69.06 1.04 0 1.72-.47 3.34-1.29 4.75s-1.99 2.61-3.41 3.49a10.944 10.944 0 0 1 -5.8 1.65h-14.64c-3.26 0-6.17-1.4-8.101-3.59-1.489-1.71-2.39-3.91-2.39-6.3 0-1.65.43-3.21 1.19-4.58.949-.8 1.75-1.75 2.34-2.82 1.85-1.55 4.29-2.49 6.96-2.49zm.64 174.12c5.801 0 10.48 4.431 10.48 9.9 0 5.45-4.68 9.89-10.48 9.89h-14.62c-3.271 0-6.19-1.399-8.11-3.6-1.5-1.71-2.4-3.91-2.4-6.29 0-1.811.511-3.51 1.42-4.97.41-.45.78-.94 1.091-1.45.18-.2.369-.391.569-.58 1.9-1.79 4.53-2.9 7.431-2.9zm-.57-75.48c5.81 0 10.51 4.42 10.51 9.89 0 5.46-4.7 9.89-10.51 9.89h-14.63c-3.261 0-6.17-1.399-8.101-3.6-1.489-1.71-2.39-3.9-2.39-6.29 0-1.65.43-3.21 1.18-4.57.96-.81 1.76-1.77 2.36-2.85 1.85-1.53 4.28-2.47 6.95-2.47zm-.63-73.84c4.239 0 7.88 2.36 9.54 5.76.529 1.1.859 2.3.93 3.58.01.18.02.37.02.55 0 2.73-1.17 5.2-3.069 6.99-1.9 1.791-4.521 2.89-7.42 2.89h-14.621c-3.26 0-6.181-1.4-8.101-3.59-1.5-1.71-2.399-3.9-2.399-6.29 0-1.77.49-3.43 1.35-4.86.7-.64 1.3-1.38 1.78-2.19 1.9-1.75 4.5-2.84 7.37-2.84zm.39 174.2c5.81 0 10.51 4.431 10.51 9.9 0 5.46-4.7 9.88-10.51 9.88h-14.62c-3.26 0-6.17-1.4-8.1-3.59-1.49-1.71-2.391-3.9-2.391-6.29 0-1.65.431-3.2 1.181-4.57.95-.8 1.75-1.75 2.34-2.83 1.85-1.55 4.29-2.5 6.97-2.5zm-.32-75.56c5.79 0 10.5 4.41 10.5 9.88s-4.71 9.89-10.5 9.89h-14.63c-3.25 0-6.16-1.399-8.08-3.59-1.5-1.71-2.399-3.91-2.399-6.3 0-1.76.489-3.41 1.34-4.84.7-.65 1.31-1.39 1.8-2.21 1.89-1.76 4.49-2.83 7.34-2.83zm1.28-172.6c1.44 0 2.82.27 4.07.77h.02c.62 5.73 1.23 11.52 1.83 17.29a10.977 10.977 0 0 1 -5.92 1.72h-14.63c-3.26 0-6.17-1.4-8.1-3.6-1.49-1.71-2.391-3.91-2.391-6.3l2.08-5.91c.3-.38.63-.74.99-1.08 1.899-1.78 4.52-2.89 7.42-2.89zm-.15-24.77c.49 0 .971.03 1.45.1.69 6.19 1.4 12.6 2.11 19.1-1.11.38-2.311.59-3.561.59h-14.619c-3.271 0-6.19-1.4-8.11-3.6-1.5-1.72-2.4-3.91-2.4-6.3 0-1.76.49-3.42 1.351-4.85.689-.64 1.29-1.37 1.779-2.18 1.9-1.77 4.511-2.86 7.381-2.86zm-1.38-24.79c.721 6.18 1.48 12.82 2.261 19.77-.11.01-.221.01-.33.01h-14.63c-3.261 0-6.171-1.4-8.101-3.6-1.5-1.71-2.399-3.9-2.399-6.29 0-1.66.439-3.23 1.21-4.6a9.89 9.89 0 0 0 2.319-2.79c1.851-1.55 4.29-2.5 6.971-2.5zm-5.92-29.38h-5.979c-3.26 0-6.181-1.4-8.101-3.6-1.5-1.71-2.399-3.9-2.399-6.29l2.09-5.91c.3-.38.63-.74.99-1.08 1.899-1.79 4.52-2.9 7.42-2.9h3.38l2.58-.35c.31 2.25.62 4.55.91 6.89 0 0 .6 4.91 1.6 13.24zm-23.05-6.89c3.26 0 6.18 1.4 8.11 3.6 1.5 1.71 2.399 3.9 2.399 6.29 0 1.81-.52 3.52-1.43 4.98-.41.45-.78.94-1.09 1.46-1.94 2.11-4.8 3.45-7.99 3.45h-14.62c-3.439 0-6.5-1.56-8.41-3.97a9.477 9.477 0 0 1 -2.08-5.92l1.521-5.13c.43-.67.96-1.3 1.55-1.86 1.9-1.79 4.521-2.9 7.42-2.9zm0 24.28c3.26 0 6.18 1.4 8.11 3.59 1.5 1.71 2.399 3.91 2.399 6.3 0 1.66-.439 3.23-1.21 4.6-.149.13-.3.26-.45.4-.739.7-1.38 1.51-1.869 2.39a10.878 10.878 0 0 1 -6.98 2.5h-14.62c-5.8 0-10.49-4.43-10.49-9.89l1.521-5.13c.43-.68.96-1.31 1.55-1.87 1.9-1.79 4.521-2.89 7.42-2.89zm.16-99.36c4.52 0 8.38 2.7 9.85 6.49.051.13.101.27.15.4.31.95.49 1.96.49 3 0 1.68-.45 3.27-1.24 4.65-.63.53-1.2 1.15-1.68 1.82-.2.29-.391.58-.561.89-1.859 1.57-4.32 2.53-7.01 2.53h-14.629c-5.79 0-10.5-4.43-10.5-9.89 0-1.71.46-3.31 1.27-4.71.49-.84 1.101-1.61 1.811-2.28 1.899-1.79 4.52-2.9 7.42-2.9zm-.79 24.89c3.26 0 6.17 1.4 8.09 3.59 1.49 1.71 2.39 3.9 2.39 6.29 0 1.78-.5 3.45-1.369 4.89-.011.01-.011.01-.021.03h-.01c-.67.63-1.25 1.34-1.72 2.12-1.891 1.77-4.49 2.85-7.36 2.85h-14.63c-5.8 0-10.49-4.42-10.49-9.89l1.521-5.13c.43-.67.96-1.3 1.55-1.86 1.899-1.78 4.52-2.89 7.42-2.89z" fill="#fff400"/><path d="m458.89 297.56c3.261 0 6.17 1.4 8.091 3.6 1.5 1.71 2.399 3.9 2.399 6.29 0 1.77-.5 3.43-1.36 4.87-.02.01-.029.02-.05.04-.68.63-1.26 1.35-1.729 2.14-1.891 1.76-4.5 2.84-7.351 2.84h-14.64c-5.79 0-10.49-4.43-10.49-9.89l1.521-5.13c.439-.67.96-1.3 1.55-1.86 1.9-1.79 4.53-2.9 7.42-2.9zm-.41-74.56c3.26 0 6.17 1.4 8.1 3.6 1.5 1.71 2.4 3.9 2.4 6.29s-.9 4.58-2.4 6.29c-1.93 2.2-4.84 3.6-8.1 3.6h-14.63c-3.08 0-5.84-1.25-7.77-3.24-1.69-1.76-2.72-4.09-2.72-6.65l1.52-5.13c.44-.67.96-1.3 1.55-1.86 1.9-1.79 4.53-2.9 7.42-2.9zm0 148.4c3.26 0 6.18 1.4 8.1 3.59 1.5 1.71 2.4 3.9 2.4 6.29 0 1.66-.431 3.23-1.2 4.6a10.174 10.174 0 0 0 -2.34 2.82c-1.851 1.55-4.29 2.49-6.96 2.49h-14.62c-5.801 0-10.5-4.43-10.5-9.91l1.52-5.13c.44-.67.97-1.3 1.561-1.86 1.899-1.79 4.52-2.89 7.42-2.89zm.08 74.37c3.261 0 6.171 1.4 8.101 3.601 1.49 1.71 2.39 3.899 2.39 6.29 0 1.8-.51 3.49-1.399 4.939-.42.46-.801.96-1.12 1.49-1.92 2.11-4.78 3.45-7.971 3.45h-14.63c-3.439 0-6.5-1.56-8.41-3.97-1.31-1.65-2.079-3.69-2.079-5.91l1.52-5.13c.43-.67.96-1.3 1.55-1.86 1.9-1.79 4.521-2.9 7.42-2.9zm0 24.28c3.261 0 6.171 1.4 8.101 3.59 1.49 1.71 2.39 3.91 2.39 6.301 0 1.649-.42 3.199-1.18 4.56-.16.14-.32.28-.47.42-.75.71-1.391 1.53-1.891 2.43-1.85 1.54-4.279 2.471-6.95 2.471h-14.63c-5.8 0-10.489-4.42-10.489-9.88l1.52-5.141c.43-.67.96-1.3 1.55-1.859 1.9-1.78 4.521-2.891 7.42-2.891h14.629zm-.23 100.36c3.26 0 6.17 1.399 8.09 3.59 1.5 1.71 2.4 3.91 2.4 6.3 0 1.66-.431 3.22-1.2 4.59a10.12 10.12 0 0 0 -2.34 2.83c-1.851 1.54-4.29 2.48-6.95 2.48h-14.63c-5.8 0-10.5-4.431-10.5-9.9l1.52-5.14c.44-.67.971-1.3 1.561-1.86 1.899-1.78 4.52-2.89 7.42-2.89zm-.01-248.06c3.26 0 6.17 1.4 8.09 3.6 1.49 1.71 2.39 3.9 2.39 6.29 0 2.22-.77 4.27-2.08 5.92-1.91 2.42-4.96 3.98-8.399 3.98h-14.621c-3.45 0-6.5-1.56-8.42-3.98a9.47 9.47 0 0 1 -2.08-5.92l1.52-5.13c.431-.67.96-1.3 1.55-1.86 1.9-1.79 4.53-2.9 7.431-2.9zm.01 223.79c3.26 0 6.17 1.4 8.09 3.601 1.5 1.71 2.4 3.899 2.4 6.279a9.45 9.45 0 0 1 -1.42 4.971c-.41.45-.771.93-1.091 1.45-1.92 2.13-4.779 3.479-7.979 3.479h-14.63c-3.44 0-6.5-1.56-8.41-3.979-1.31-1.65-2.09-3.7-2.09-5.921l3.08-6.979c1.899-1.79 4.52-2.9 7.42-2.9h14.63zm.15-199.02c3.26 0 6.18 1.4 8.1 3.6 1.5 1.71 2.4 3.9 2.4 6.29 0 1.8-.521 3.49-1.421 4.95-.399.45-.77.94-1.09 1.46-1.92 2.13-4.79 3.48-7.989 3.48h-14.62c-3.44 0-6.5-1.56-8.41-3.98a9.43 9.43 0 0 1 -2.09-5.91l1.52-5.13c.44-.67.97-1.3 1.561-1.86 1.899-1.79 4.52-2.9 7.42-2.9zm-.72 147.81c3.271 0 6.181 1.4 8.11 3.59 1.49 1.711 2.39 3.9 2.39 6.29 0 1.761-.49 3.421-1.34 4.851-.02.02-.05.04-.07.06-.67.63-1.26 1.36-1.729 2.15-1.89 1.76-4.5 2.84-7.36 2.84h-14.62c-5.8 0-10.489-4.43-10.489-9.9l1.52-5.13c.43-.68.96-1.3 1.55-1.859 1.9-1.79 4.521-2.891 7.42-2.891h14.618zm12.42-212.36c0-2.39-.899-4.59-2.399-6.3l.859-.3c-1.5-1.71-2.399-3.91-2.399-6.29 0-1.8.52-3.49 1.42-4.95.399-.45.77-.94 1.09-1.46a9.394 9.394 0 0 0 1.43-4.98c0-2.39-.899-4.58-2.399-6.29l.859-.31c1.92 2.2 4.841 3.6 8.101 3.6h8.469c.88 7.42 2.07 17.57 3.43 29.38h-12.701c-2.681 0-5.12.95-6.971 2.5a9.356 9.356 0 0 0 1.211-4.6zm-12.65 312.72c3.26 0 6.17 1.4 8.1 3.6 1.5 1.71 2.4 3.9 2.4 6.28 0 1.76-.49 3.42-1.36 4.86l-.06.06c-.66.63-1.24 1.34-1.71 2.12-1.9 1.771-4.511 2.86-7.37 2.86h-14.63c-5.801 0-10.49-4.431-10.49-9.9l1.52-5.12c.431-.68.96-1.3 1.551-1.859 1.899-1.79 4.52-2.9 7.42-2.9h14.629z" fill="#fff400"/><path d="m433.35 538.68c-.25-.399-.529-.79-.83-1.149-.1-.12-.199-.24-.31-.351-.04-.05-.09-.1-.14-.149l2.739-.771a9.727 9.727 0 0 0 1.49 1.271c.11.09.23.17.351.239a9.49 9.49 0 0 0 1.379.75c.149.07.31.141.47.2.15.07.3.12.45.17.35.12.71.23 1.08.32.14.03.279.06.43.09.14.03.28.05.42.07.18.03.37.05.561.07.369.04.75.06 1.14.06h14.63c3.08 0 5.84-1.25 7.771-3.24l2.64.221-2.73 6.649v.24l-2.159.04c-8.9 0-17.721-.33-26.561-.34l-1.39.09c-.011-.15-.021-.3-.04-.44a6.66 6.66 0 0 0 -.141-.92c-.029-.149-.06-.3-.1-.45-.07-.29-.16-.58-.27-.869-.051-.15-.11-.29-.171-.431a.857.857 0 0 0 -.069-.16c-.05-.13-.11-.26-.181-.39a6.18 6.18 0 0 0 -.25-.47 2.396 2.396 0 0 0 -.209-.35z" fill="#fff"/><path d="m457.21 519.71c3.26 0 6.17 1.4 8.09 3.6 1.5 1.721 2.4 3.91 2.4 6.301 0 2.56-1.03 4.89-2.72 6.649-1.931 1.99-4.69 3.24-7.771 3.24h-14.63c-.39 0-.771-.02-1.14-.06-.19-.021-.37-.04-.561-.07-.14-.021-.28-.04-.42-.07l-.43-.09c-.37-.09-.73-.2-1.08-.32-.15-.05-.3-.109-.45-.17-.16-.06-.32-.13-.47-.2a9.49 9.49 0 0 1 -1.379-.75c-.12-.079-.23-.159-.351-.239-.3-.21-.59-.431-.859-.67a8.744 8.744 0 0 1 -.631-.601c-.17-.17-.319-.35-.47-.529-.06-.07-.109-.141-.17-.211-.18-.22-.34-.449-.5-.68-.12-.17-.22-.34-.32-.52a9.145 9.145 0 0 1 -1-2.48c-.029-.12-.06-.24-.08-.359-.029-.15-.06-.301-.079-.461a3.6 3.6 0 0 1 -.061-.46c-.03-.31-.05-.63-.05-.949l1.52-5.13c.44-.681.971-1.311 1.561-1.87 1.899-1.79 4.52-2.9 7.42-2.9h14.631zm-.09-98.63c3.27 0 6.18 1.4 8.11 3.59 1.489 1.71 2.39 3.91 2.39 6.3a9.478 9.478 0 0 1 -2.08 5.92c-1.92 2.42-4.97 3.98-8.42 3.98h-14.62c-3.44 0-6.5-1.561-8.41-3.98a9.472 9.472 0 0 1 -2.08-5.92l1.521-5.13c.43-.68.96-1.31 1.55-1.87 1.9-1.79 4.52-2.89 7.42-2.89zm12.26-113.63c0-2.39-.899-4.58-2.399-6.29l.859-.31c1.93 2.2 4.84 3.6 8.101 3.6h14.63c.109 0 .22 0 .33-.01.189 1.69.38 3.4.569 5.12-.479-.07-.96-.1-1.45-.1h-14.62c-2.87 0-5.48 1.09-7.381 2.86a9.455 9.455 0 0 0 1.361-4.87zm-12.4 312.64c3.26 0 6.17 1.4 8.1 3.59 1.49 1.71 2.39 3.91 2.39 6.301 0 5.46-4.7 9.89-10.489 9.89h-14.631c-.18 0-.359 0-.54-.01-5.55-.271-9.96-4.591-9.96-9.88l1.521-5.141c.43-.67.96-1.3 1.55-1.859 1.9-1.78 4.53-2.891 7.43-2.891zm9.6-245.1.86-.3c-1.49-1.71-2.391-3.91-2.391-6.3 0-1.81.521-3.51 1.42-4.97.41-.45.78-.94 1.09-1.46.181-.19.37-.38.561-.56 1.899-1.79 4.52-2.9 7.42-2.9h14.63c2.59 0 4.96.88 6.8 2.36 1.09 10.76 2.13 21.36 3.04 31.36l-.189.02c-.271-2.4-1.45-4.54-3.2-6.12-1.89-1.69-4.44-2.73-7.24-2.73h-14.64c-2.67 0-5.11.94-6.96 2.49.77-1.37 1.2-2.94 1.2-4.6-.001-2.39-.901-4.58-2.401-6.29zm1.75-135.5-1.75-.31c1.5-1.71 2.4-3.9 2.4-6.29s-.9-4.58-2.4-6.29l.86-.31c-1.5-1.71-2.4-3.9-2.4-6.29 0-1.77.5-3.43 1.36-4.87.67-.62 1.26-1.34 1.729-2.12.01-.02.01-.02.021-.03a9.43 9.43 0 0 0 1.369-4.89c0-2.39-.899-4.58-2.39-6.29l.87-.3c1.93 2.19 4.84 3.59 8.1 3.59l1.141-.26c2.08 8.98 3.899 19.06 5.46 30.33l-2.58.35h-3.38c-2.9 0-5.521 1.11-7.42 2.9-.36.34-.69.7-.99 1.08z" fill="#fff400"/><path d="m467.29 549.42c-.36-.42-.69-.86-.98-1.32.29.47.62.91.98 1.32zm1.51-217.18c0-2.39-.899-4.58-2.39-6.29l.88-.3c1.92 2.2 4.84 3.6 8.11 3.6h14.619c1.25 0 2.45-.21 3.561-.59.229 2.11.45 4.22.68 6.34h-.02c-1.25-.5-2.63-.77-4.07-.77h-14.63c-2.9 0-5.521 1.11-7.42 2.89-.36.34-.69.7-.99 1.08l-.41-.04a9.477 9.477 0 0 0 2.08-5.92z" fill="#fff"/><path d="m457.7 396.29c3.26 0 6.17 1.4 8.09 3.59 1.49 1.71 2.39 3.91 2.39 6.3 0 1.76-.489 3.42-1.35 4.85l-.05.05a9.874 9.874 0 0 0 -1.73 2.14c-1.88 1.76-4.479 2.85-7.35 2.85h-14.64c-5.79 0-10.489-4.43-10.489-9.89l1.52-5.14c.43-.67.96-1.3 1.55-1.86 1.9-1.78 4.521-2.89 7.42-2.89z" fill="#fff400"/><path d="m465.34 545.99c.061.189.12.37.19.54-.07-.18-.13-.36-.19-.54z" fill="#fff"/><path d="m467.62 536.48-2.64-.221c1.689-1.76 2.72-4.09 2.72-6.649 0-2.391-.9-4.58-2.4-6.301l.88-.3c1.92 2.19 4.83 3.59 8.08 3.59h14.63c5.79 0 10.5-4.42 10.5-9.89s-4.71-9.88-10.5-9.88h-14.63c-2.85 0-5.45 1.07-7.34 2.83a9.472 9.472 0 0 0 1.34-4.851c0-2.39-.899-4.579-2.39-6.29l.85-.31c1.931 2.2 4.84 3.6 8.101 3.6h14.63c5.81 0 10.51-4.43 10.51-9.89 0-5.47-4.7-9.89-10.51-9.89h-14.63c-2.67 0-5.101.939-6.95 2.47a9.298 9.298 0 0 0 1.18-4.56c0-2.391-.899-4.591-2.39-6.301l.859-.31c1.931 2.2 4.851 3.6 8.11 3.6h14.62c5.8 0 10.5-4.43 10.5-9.899 0-5.46-4.7-9.88-10.5-9.88h-14.62c-2.899 0-5.53 1.109-7.43 2.89-.19.18-.38.37-.55.56a9.406 9.406 0 0 0 1.399-4.939c0-2.391-.899-4.58-2.39-6.29l.859-.311c1.931 2.19 4.851 3.591 8.11 3.591h14.62c5.8 0 10.5-4.42 10.5-9.891 0-5.45-4.7-9.89-10.5-9.89h-14.62c-2.899 0-5.53 1.11-7.43 2.899-.48.45-.9.94-1.28 1.461l-1.38-.341a9.472 9.472 0 0 0 2.08-5.92c0-2.39-.9-4.59-2.39-6.3l.869-.3c1.92 2.189 4.841 3.59 8.101 3.59h14.62c2.899 0 5.52-1.1 7.42-2.89 1.899-1.79 3.069-4.26 3.069-6.99 0-.18-.01-.37-.02-.55l2.82-.21c.1 1.33.199 2.63.29 3.91 3.159 44.68 13.01 127.16 4.33 164.73-7.461 32.31-6.421 22.79-27.511 41.01h-5.189c-3.261 0-6.17-1.399-8.09-3.6-1.5-1.71-2.4-3.9-2.4-6.29 0-1.771.5-3.43 1.36-4.87a9.535 9.535 0 0 0 1.77-2.18 9.362 9.362 0 0 0 1.36-4.86c0-2.38-.9-4.57-2.4-6.28l.86-.31c1.93 2.189 4.84 3.59 8.1 3.59h14.62c5.81 0 10.51-4.42 10.51-9.88 0-5.47-4.7-9.9-10.51-9.9h-14.62c-2.68 0-5.12.95-6.97 2.5a9.32 9.32 0 0 0 1.2-4.59c0-2.39-.9-4.59-2.4-6.3l.87-.3c1.92 2.2 4.84 3.6 8.11 3.6h14.619c5.801 0 10.48-4.439 10.48-9.89 0-5.47-4.68-9.9-10.48-9.9h-14.616c-2.9 0-5.53 1.11-7.431 2.9a9.7 9.7 0 0 0 -.569.58 9.45 9.45 0 0 0 1.42-4.971c0-2.38-.9-4.569-2.4-6.279l.87-.32c1.92 2.2 4.84 3.6 8.11 3.6h14.619c5.801 0 10.48-4.439 10.48-9.89s-4.68-9.899-10.48-9.899h-14.619c-2.9 0-5.53 1.109-7.431 2.909-.119.113-.239.233-.349.343z" fill="#fff400"/><path d="m465.26 545.71c.021.1.05.19.08.28-.03-.09-.06-.18-.08-.28zm-.19-.8c.01.1.04.21.069.32a1.265 1.265 0 0 1 -.069-.32zm-.11-.62c.021.2.06.4.1.59-.04-.2-.07-.39-.1-.59zm-.07-1.16c0 .12 0 .24.011.351-.011-.04-.011-.07-.011-.11z" fill="#fff"/><path d="m449.12 149.05c5.7 4.59 10.72 10.77 15.11 18.86-1.341.59-2.83.92-4.4.92h-14.63c-3.44 0-6.49-1.56-8.41-3.98a9.436 9.436 0 0 1 -2.09-5.91l3.08-6.99c1.899-1.79 4.52-2.9 7.42-2.9z" fill="#fff400"/><path d="m457.66 137.25c-.32-1.19-.65-2.4-.98-3.63.34 1.22.66 2.43.98 3.63zm-1.78-6.58c.26.94.51 1.87.76 2.8-.25-.92-.51-1.86-.76-2.8zm-1.16-4.25c.4 1.43.78 2.85 1.16 4.25-.38-1.41-.77-2.83-1.16-4.25zm-2.8-10.1c.21.73.41 1.48.62 2.22-.21-.74-.42-1.48-.62-2.22zm-.45-1.6c-.18-.64-.359-1.27-.54-1.9.18.63.36 1.26.54 1.9z" fill="#fff"/><path d="m449.47 107.71c-.13-.47-.27-.94-.399-1.41.129.47.269.94.399 1.41zm-.65 10.04c1.83 10.97-3.181 15.07-10.601 16.32-3.689-8.85-7-17.68-9-27.09-1.279-5.99-2.31-12.93-3.79-19.07 2.26.32 4.83.89 8.37 1.87 6.92 1.91 10.42 8.51 12.47 15.6 1.221 4.25 1.931 8.68 2.551 12.37z" fill="#33a02c"/><path d="m444.57 91.2c-3.931-12.69-3.931-6.65 24.569 39.02 30.091 48.25 54.061 181.4 62.98 257.81 10.24 87.6 25.61 221.5-.4 247.51s-59.689 20.66-66.92 66.9l2.72 74.72-8.729-.38c-1.67-5.75-11.14-38.08-19.01-61.431-2.46-7.31-10.16-17.319-19.9-27.89-1-1.09-2.03-2.18-3.07-3.28 17.88-18.449 34.81-33.05 45.16-41.66 1.99-1.659 3.74-3.09 5.21-4.279 4.67-4.681 8.641-8.33 12.04-11.271 21.09-18.22 20.05-8.7 27.511-41.01 8.68-37.57-1.171-120.05-4.33-164.73-.091-1.28-.19-2.58-.29-3.91-.57-7.68-1.29-16.15-2.101-25.1-.91-10-1.95-20.6-3.04-31.36-.29-2.85-.58-5.7-.88-8.57-.6-5.77-1.21-11.56-1.83-17.29-.229-2.12-.45-4.23-.68-6.34-.71-6.5-1.42-12.91-2.11-19.1a4567.48 4567.48 0 0 0 -2.83-24.89c-1.359-11.81-2.55-21.96-3.43-29.38-1-8.33-1.6-13.24-1.6-13.24-.29-2.34-.601-4.64-.91-6.89-1.561-11.27-3.38-21.35-5.46-30.33-1.58-6.87-3.33-13.1-5.24-18.74a124.6 124.6 0 0 0 -2.14-5.89c-.051-.14-.101-.27-.15-.4-1.71-4.36-3.53-8.32-5.479-11.89.449-.19.88-.41 1.3-.67 2.88-1.76 4.79-4.82 4.79-8.3 0-5.15-4.181-9.38-9.511-9.85-.97-3.66-2.02-7.66-3.149-11.84-.32-1.2-.641-2.41-.98-3.63-.01-.05-.02-.1-.04-.15-.25-.93-.5-1.86-.76-2.8-.38-1.4-.76-2.82-1.16-4.25a907.81 907.81 0 0 0 -2.18-7.88c-.21-.74-.41-1.49-.62-2.22-.15-.54-.3-1.07-.45-1.6-.18-.64-.359-1.27-.54-1.9-.479-1.72-.97-3.42-1.46-5.11-.13-.47-.27-.94-.399-1.41-.141-.48-.271-.94-.41-1.41a823.926 823.926 0 0 0 -4.092-13.689z" fill="#33a02c"/><path d="m461.97 642.52-20.22-.64.06-2.02c.181.01.36.01.54.01h14.631c5.789 0 10.489-4.43 10.489-9.89 0-2.391-.899-4.591-2.39-6.301l.86-.31c1.92 2.2 4.829 3.6 8.09 3.6h5.189c-3.399 2.94-7.37 6.59-12.04 11.271a464.958 464.958 0 0 0 -5.209 4.28zm-21.94-103.31.43.09c-.15-.03-.29-.06-.43-.09zm-1.53-.49c.15.061.3.12.45.17-.15-.05-.3-.1-.45-.17zm-2.2-1.19c.12.08.23.16.351.239a2.557 2.557 0 0 1 -.351-.239z" fill="#fff"/><path d="m425.64 236.06c3.26 0 6.18 1.4 8.1 3.6 1.5 1.71 2.399 3.9 2.399 6.29 0 2.56-1.029 4.89-2.729 6.65-1.92 1.99-4.69 3.24-7.77 3.24h-14.62c-3.44 0-6.5-1.56-8.41-3.98-1.31-1.65-2.09-3.69-2.09-5.91 0-2.73 1.18-5.2 3.08-6.99s4.52-2.9 7.42-2.9zm-13.01-98.23c8 0 15.271.97 21.86 3.21a9.445 9.445 0 0 1 1.81 5.55c0 5.47-4.7 9.89-10.49 9.89h-14.64c-5.79 0-10.49-4.42-10.49-9.89 0-2.73 1.18-5.2 3.07-6.99.36-.33.74-.64 1.14-.93.01 0 .01-.01.01-.01 2.48-.55 5.06-.83 7.73-.83z" fill="#fff400"/><path d="m432.07 550.33c.229-.25.449-.5.66-.771.1-.119.189-.239.27-.359.16-.22.32-.46.47-.71.07-.12.141-.24.2-.37.14-.26.271-.54.39-.82.061-.13.11-.27.171-.42a9.941 9.941 0 0 0 .439-1.73c.01-.021.01-.04.01-.061.03-.16.051-.31.061-.47.029-.311.05-.63.05-.95 0-.17 0-.34-.01-.51l1.39-.09c8.84.01 17.66.34 26.561.34l2.159-.04c0 .04 0 .07.011.11 0 .27.029.539.06.81.03.2.06.39.1.59-.01.01 0 .021.011.03.01.109.029.21.069.32.021.159.07.319.12.479.021.1.05.19.08.28.061.18.12.359.19.54.04.109.08.21.13.31.07.18.16.36.25.54.12.24.26.48.399.72.29.46.62.9.98 1.32l-.87.32c-1.92-2.2-4.83-3.601-8.09-3.601h-14.631c-2.9 0-5.521 1.11-7.42 2.9-.59.56-1.12 1.19-1.561 1.86z" fill="#fff"/><path d="m436.28 549.04-3.08 6.979 1.52-5.119c.44-.67.97-1.3 1.56-1.86z" fill="#fff"/><path d="m425.64 260.33c3.44 0 6.5 1.57 8.41 3.98 1.311 1.65 2.09 3.7 2.09 5.92 0 2.55-1.029 4.89-2.729 6.65-1.92 1.99-4.69 3.24-7.77 3.24h-14.62c-3.44 0-6.5-1.57-8.41-3.98-1.31-1.65-2.09-3.69-2.09-5.91l1.8-5.53c.38-.53.8-1.02 1.28-1.47 1.9-1.79 4.52-2.9 7.42-2.9zm-1.11 173.09c3.26 0 6.17 1.4 8.1 3.6 1.5 1.711 2.4 3.91 2.4 6.29 0 2.561-1.03 4.9-2.73 6.66-1.92 1.99-4.689 3.24-7.77 3.24h-14.63c-3.44 0-6.49-1.56-8.41-3.979a9.477 9.477 0 0 1 -2.08-5.921c0-2.729 1.17-5.199 3.07-6.989s4.52-2.9 7.42-2.9h14.63z" fill="#fff400"/><path d="m434.34 535.73c.15.18.3.359.47.529-.16-.169-.32-.349-.47-.529z" fill="#fff"/><path d="m424.45 334.77c3.26 0 6.17 1.4 8.1 3.6 1.49 1.71 2.391 3.9 2.391 6.29 0 2.56-1.03 4.9-2.721 6.66-1.92 1.99-4.689 3.24-7.77 3.24h-14.62c-3.44 0-6.5-1.56-8.42-3.98a9.456 9.456 0 0 1 -2.08-5.92l1.79-5.53c.38-.52.8-1.01 1.28-1.46 1.9-1.79 4.53-2.9 7.43-2.9z" fill="#fff400"/><path d="m425.81 160.98c3.44 0 6.49 1.56 8.41 3.98 1.3 1.64 2.08 3.69 2.08 5.91 0 2.73-1.18 5.2-3.069 6.99-1.9 1.79-4.53 2.9-7.42 2.9h-14.64c-3.44 0-6.49-1.56-8.41-3.98-1.3-1.65-2.08-3.69-2.08-5.91l1.79-5.53c.38-.52.81-1.01 1.28-1.46 1.9-1.79 4.53-2.9 7.42-2.9z" fill="#fff400"/><path d="m434.6 541.8c.07.3.11.601.141.92a9.573 9.573 0 0 0 -.141-.92zm.07 3.35c-.02.13-.04.26-.07.39.03-.13.05-.26.07-.39zm1.41-267.71-2.67-.56c1.7-1.76 2.729-4.1 2.729-6.65 0-2.22-.779-4.27-2.09-5.92l2.59-.1c1.91 2.41 4.971 3.97 8.41 3.97h14.62c3.19 0 6.05-1.34 7.99-3.45a9.398 9.398 0 0 0 -1.42 4.95c0 2.38.899 4.58 2.399 6.29l-.859.3c-1.931-2.19-4.851-3.59-8.11-3.59h-14.62c-2.899 0-5.52 1.1-7.42 2.89a9.914 9.914 0 0 0 -1.549 1.87z" fill="#fff"/><path d="m425.01 185.86c5.79 0 10.5 4.43 10.5 9.89 0 2.56-1.029 4.89-2.729 6.65-1.92 1.99-4.69 3.24-7.771 3.24h-14.63c-3.44 0-6.49-1.56-8.41-3.98-1.31-1.65-2.09-3.69-2.09-5.91l1.8-5.53c.38-.52.8-1.01 1.28-1.46 1.9-1.79 4.52-2.9 7.42-2.9zm-.71 372.2c3.44 0 6.49 1.561 8.41 3.98 1.3 1.64 2.08 3.69 2.08 5.91 0 2.56-1.03 4.899-2.72 6.66-1.931 1.979-4.69 3.229-7.771 3.229h-14.63c-3.26 0-6.17-1.399-8.1-3.59-1.5-1.71-2.4-3.91-2.4-6.3l1.8-5.53c.37-.52.81-1.01 1.28-1.46 1.9-1.79 4.53-2.9 7.42-2.9h14.631z" fill="#fff400"/><path d="m434.5 541.35c-.08-.3-.17-.59-.27-.869.11.289.2.579.27.869zm-.33-5.83c.061.07.11.141.17.211a1.638 1.638 0 0 1 -.17-.211z" fill="#fff"/><path d="m436.08 253.16-2.67-.56c1.7-1.76 2.729-4.09 2.729-6.65 0-2.39-.899-4.58-2.399-6.29l2.34-.12c1.93 1.99 4.689 3.24 7.77 3.24h14.631c3.26 0 6.17-1.4 8.1-3.6l1.75.31-2.09 5.91c0 2.39.899 4.58 2.399 6.29l-.86.31c-1.931-2.2-4.851-3.6-8.11-3.6h-14.62c-2.899 0-5.52 1.11-7.42 2.9-.59.56-1.12 1.19-1.55 1.86z" fill="#fff400"/><path d="m434.23 540.48c-.061-.15-.11-.29-.171-.431.061.141.121.281.171.431zm-.17 6.82c.061-.14.11-.28.171-.42-.061.15-.111.29-.171.42z" fill="#fff"/><path d="m424.53 457.7c3.44 0 6.49 1.56 8.411 3.97 1.31 1.65 2.09 3.69 2.09 5.91 0 2.56-1.03 4.9-2.73 6.66-1.92 1.99-4.689 3.24-7.77 3.24h-14.631c-3.26 0-6.17-1.4-8.1-3.601-1.49-1.71-2.39-3.899-2.39-6.3l1.79-5.53c.38-.52.8-1.01 1.28-1.46 1.9-1.79 4.52-2.89 7.42-2.89h14.63zm.32-172.49c5.8 0 10.5 4.44 10.5 9.9 0 2.55-1.029 4.89-2.72 6.65-1.93 1.99-4.7 3.24-7.78 3.24h-14.62c-3.44 0-6.5-1.57-8.42-3.98-1.31-1.65-2.08-3.69-2.08-5.91l1.79-5.53c.38-.53.8-1.02 1.28-1.47 1.9-1.79 4.53-2.9 7.43-2.9zm-.4 73.84c3.439 0 6.5 1.56 8.41 3.97a9.477 9.477 0 0 1 2.08 5.92c0 2.56-1.03 4.9-2.721 6.66-1.92 1.99-4.689 3.24-7.77 3.24h-14.62c-3.44 0-6.5-1.56-8.42-3.98a9.456 9.456 0 0 1 -2.08-5.92l1.79-5.54c.38-.52.8-1.01 1.28-1.46 1.9-1.78 4.53-2.89 7.43-2.89z" fill="#fff400"/><path d="m424.45 210.66c5.8 0 10.49 4.43 10.49 9.89 0 2.56-1.03 4.89-2.721 6.65-1.92 1.99-4.689 3.24-7.77 3.24h-14.62c-3.44 0-6.5-1.56-8.42-3.98-1.31-1.65-2.08-3.69-2.08-5.91l1.79-5.53c.38-.52.8-1.01 1.28-1.46 1.9-1.79 4.53-2.9 7.43-2.9zm-.16 99.35c5.79 0 10.5 4.43 10.5 9.89 0 2.56-1.03 4.89-2.73 6.65-1.92 1.99-4.689 3.24-7.77 3.24h-14.63c-3.44 0-6.49-1.56-8.41-3.98-1.31-1.65-2.08-3.69-2.08-5.91l1.79-5.53c.38-.52.8-1.01 1.28-1.46 1.9-1.79 4.52-2.9 7.42-2.9z" fill="#fff400"/><path d="m425.43 87.91c1.48 6.14 2.51 13.08 3.79 19.07 2 9.41 5.311 18.24 9 27.09-3.52.59-7.59.54-11.729.27h-.04c-.07 0-.13 0-.2-.01-9.65-.62-23.61 1.4-33.12-2.7 10.99-11.71 16.26-21.59 18.08-40.74.06-.65.21-1.82.43-3.29 6.399-.02 9.529-.29 13.789.31z" fill="#33a02c"/><path d="m433.35 534.32c.101.18.2.35.32.52-.11-.17-.22-.34-.32-.52zm.12 14.17c.07-.12.141-.24.2-.37-.06.13-.13.25-.2.37zm1.49-73.69-2.66-.56c1.7-1.76 2.73-4.101 2.73-6.66 0-2.22-.78-4.26-2.09-5.91l2.579-.1c1.91 2.41 4.971 3.97 8.41 3.97h14.63c3.19 0 6.051-1.34 7.971-3.45a9.404 9.404 0 0 0 -1.4 4.94c0 2.39.9 4.59 2.39 6.3l-.859.31c-1.93-2.189-4.84-3.59-8.101-3.59h-14.63c-2.899 0-5.52 1.11-7.42 2.891-.59.559-1.12 1.189-1.55 1.859z" fill="#fff"/><path d="m434.88 376.15-2.66-.55c1.69-1.76 2.721-4.1 2.721-6.66 0-2.22-.771-4.27-2.08-5.92l2.59-.1c1.91 2.42 4.97 3.98 8.41 3.98h14.62c3.199 0 6.069-1.35 7.989-3.48a9.45 9.45 0 0 0 -1.42 4.97c0 2.39.9 4.59 2.391 6.3l-.86.3c-1.92-2.19-4.84-3.59-8.1-3.59h-14.62c-2.9 0-5.521 1.1-7.42 2.89a10.58 10.58 0 0 0 -1.561 1.86zm-11.15 106.42c5.81 0 10.5 4.43 10.5 9.89 0 2.56-1.03 4.9-2.721 6.66-1.92 1.99-4.689 3.24-7.78 3.24h-14.62c-3.26 0-6.17-1.4-8.1-3.601-1.49-1.71-2.39-3.899-2.39-6.3l1.79-5.53c.38-.52.81-1.01 1.28-1.46 1.9-1.79 4.52-2.899 7.42-2.899zm10.99 92.59-2.649-.55c1.689-1.761 2.72-4.101 2.72-6.66 0-2.22-.78-4.271-2.08-5.91l2.58-.1c1.91 2.42 4.97 3.979 8.41 3.979h14.63c3.2 0 6.06-1.35 7.979-3.479a9.357 9.357 0 0 0 -1.42 4.97c0 2.38.9 4.58 2.4 6.29l-.87.3c-1.92-2.19-4.83-3.59-8.09-3.59h-14.63c-2.9 0-5.521 1.109-7.42 2.89-.59.56-1.12 1.19-1.56 1.86zm.24-124.63-2.66-.561c1.7-1.76 2.73-4.1 2.73-6.66 0-2.38-.9-4.579-2.4-6.29l1.46-.13c1.91 2.42 4.97 3.98 8.41 3.98h14.62c3.45 0 6.5-1.561 8.42-3.98l1.38.341-1.79 5.529c0 2.391.9 4.59 2.39 6.3l-.859.311c-1.93-2.2-4.84-3.601-8.101-3.601h-14.63c-2.899 0-5.52 1.11-7.42 2.9-.59.561-1.12 1.191-1.55 1.861z" fill="#fff400"/><path d="m434.88 351.88-2.66-.56c1.69-1.76 2.721-4.1 2.721-6.66 0-2.39-.9-4.58-2.391-6.29l2.73-.21c1.92 2.42 4.97 3.98 8.42 3.98h14.62c3.439 0 6.489-1.56 8.399-3.98l.41.04-2.08 5.91c0 2.39.9 4.59 2.391 6.3l-.86.31c-1.92-2.2-4.84-3.6-8.1-3.6h-14.62c-2.9 0-5.521 1.11-7.42 2.9-.59.56-1.12 1.19-1.56 1.86z" fill="#fff"/><path d="m423.51 582.94c5.78 0 10.49 4.43 10.49 9.89 0 2.56-1.03 4.89-2.73 6.66-1.92 1.99-4.689 3.24-7.76 3.24h-14.64c-3.44 0-6.49-1.57-8.41-3.98-1.3-1.65-2.08-3.7-2.08-5.92l1.79-5.53c.38-.52.81-1.01 1.28-1.46 1.9-1.79 4.53-2.899 7.42-2.899h14.64zm.15-199c5.8 0 10.49 4.42 10.49 9.89 0 2.56-1.03 4.89-2.721 6.65-1.92 1.99-4.689 3.24-7.77 3.24h-14.62c-3.44 0-6.5-1.56-8.41-3.98-1.31-1.65-2.09-3.69-2.09-5.91l2.09-5.92c.3-.38.63-.74.99-1.08 1.9-1.79 4.52-2.89 7.42-2.89zm-.48 123.44c5.79 0 10.5 4.42 10.5 9.89 0 2.561-1.029 4.891-2.729 6.65-1.92 1.98-4.69 3.23-7.77 3.23h-14.63c-3.44 0-6.49-1.561-8.41-3.971-1.3-1.649-2.08-3.689-2.08-5.91l2.08-5.92c.31-.38.64-.739.99-1.08 1.9-1.789 4.53-2.89 7.42-2.89h14.629z" fill="#fff400"/><path d="m422.94 607.74c5.8 0 10.5 4.42 10.5 9.89 0 2.561-1.03 4.89-2.73 6.65-1.92 1.979-4.69 3.229-7.77 3.229h-14.62c-3.44 0-6.5-1.56-8.41-3.97-1.31-1.65-2.09-3.69-2.09-5.91l2.09-5.92c.3-.38.63-.74.99-1.08 1.9-1.79 4.52-2.89 7.42-2.89h14.62z" fill="#fff400"/><path d="m432.27 531.48c.021.119.051.239.08.359a4.521 4.521 0 0 1 -.08-.359zm-.08-.46c.02.16.05.311.079.461a8.381 8.381 0 0 1 -.079-.461z" fill="#fff"/><path d="m423.1 408.74c5.79 0 10.49 4.42 10.49 9.88 0 2.56-1.03 4.9-2.72 6.66-1.93 1.98-4.69 3.23-7.77 3.23h-14.63c-3.44 0-6.49-1.56-8.41-3.97-1.3-1.65-2.08-3.69-2.08-5.92l1.79-5.53c.38-.52.81-1.01 1.28-1.46 1.9-1.79 4.53-2.89 7.42-2.89z" fill="#fff400"/><path d="m428.85 552.59c.15-.07.301-.14.45-.22-.15.08-.29.16-.45.22zm-.59-18.07c.15.061.311.12.46.19-.15-.07-.3-.13-.46-.19zm-.33 18.44c.15-.05.301-.11.45-.17-.15.07-.3.12-.45.17zm.33-18.44c-.1-.039-.22-.079-.33-.119.11.029.22.069.33.119zm-1.27-.4c-.15-.04-.3-.07-.45-.101.15.031.3.061.45.101zm-.99 19.32c.18-.03.36-.061.54-.101-.18.041-.36.071-.54.101zm-.56.07c.19-.02.37-.04.56-.069-.18.029-.37.049-.56.069z" fill="#fff"/><path d="m424.3 533.79c.77 0 1.52.08 2.24.229.15.03.3.061.45.101.319.08.64.17.939.28.11.04.23.08.33.119.16.061.311.12.46.19a10.545 10.545 0 0 1 3.491 2.469c.11.12.21.23.31.351.301.359.58.75.83 1.149.08.11.15.23.21.351.091.149.171.31.25.47.07.13.131.26.181.39.029.051.05.101.069.16.061.141.11.28.171.431.1.279.189.569.27.869.04.15.07.301.1.45.061.3.11.61.141.92.02.141.029.29.04.44.01.17.01.34.01.51 0 .32-.021.64-.05.95a3.6 3.6 0 0 1 -.061.47c0 .021 0 .04-.01.061-.02.13-.04.26-.07.39-.09.46-.22.91-.369 1.34-.061.14-.11.28-.171.42-.119.28-.25.561-.39.82-.06.13-.13.25-.2.37-.149.25-.31.49-.47.71a12.568 12.568 0 0 1 -.93 1.13c-.801.82-1.73 1.51-2.771 2.04-.149.08-.3.149-.45.22a6.03 6.03 0 0 1 -.47.2c-.149.06-.3.12-.45.17-.449.16-.92.29-1.39.38-.18.04-.36.07-.54.101-.19.029-.37.05-.56.069-.37.04-.75.061-1.14.061h-14.63c-.2 0-.41-.011-.61-.021-.71-.04-1.41-.14-2.08-.31-.14-.04-.28-.07-.42-.12-.17-.04-.33-.09-.49-.15-.48-.17-.95-.37-1.39-.59-.15-.08-.3-.16-.44-.24-.15-.08-.29-.17-.43-.26-.37-.229-.72-.49-1.05-.76-.11-.09-.21-.18-.31-.26-.31-.29-.61-.58-.88-.891-.22-.26-.43-.52-.61-.79-.13-.149-.23-.31-.32-.47-.07-.1-.13-.21-.19-.31-.08-.141-.16-.28-.23-.42-.07-.15-.14-.29-.2-.431a4.84 4.84 0 0 1 -.21-.47c-.05-.15-.11-.3-.16-.45a7.64 7.64 0 0 1 -.35-1.43 8.581 8.581 0 0 1 -.11-1c-.01-.16-.02-.32-.02-.48v-.029-.021c0-2.729 1.18-5.189 3.08-6.979s4.53-2.9 7.42-2.9h14.63z" fill="#fff400"/><path d="m410.22 87.6h1.42c-.22 1.47-.37 2.64-.43 3.29-1.82 19.15-7.09 29.03-18.08 40.74-4.6-1.98-8.16-5.4-9.67-11.26 1.33-4.83 2.7-9.7 4.07-14.45.74-2.59 1.48-5.13 2.2-7.61.22-.72.43-1.43.64-2.13.19-.63.37-1.26.56-1.88.2-.66.4-1.33.59-1.98.22-.7.43-1.4.64-2.08l.36-1.17c1.94-.57 4.08-.72 6.34-.83z" fill="#33a02c"/><path d="m409.67 553.57c-.2 0-.41-.011-.61-.021.2.011.41.021.61.021zm-3.11-.45c.14.05.28.08.42.12a3.31 3.31 0 0 1 -.42-.12zm-.49-.15c-.48-.16-.94-.359-1.39-.59.44.22.91.42 1.39.59zm-1.83-.83c.14.08.29.16.44.24-.15-.07-.3-.15-.44-.24zm-.43-.26c.14.09.28.18.43.26a3.78 3.78 0 0 1 -.43-.26zm-1.36-1.02c.1.08.2.17.31.26-.11-.09-.21-.18-.31-.26z" fill="#fff"/><path d="m385.2 149.79c5.75-5.59 12.3-9.51 19.69-11.12-.4.29-.78.6-1.14.93-1.89 1.79-3.07 4.26-3.07 6.99 0 5.47 4.7 9.89 10.49 9.89h14.64c5.79 0 10.49-4.42 10.49-9.89 0-2.06-.67-3.97-1.81-5.55 5.31 1.8 10.18 4.42 14.63 8.01h-3.92c-2.9 0-5.521 1.11-7.42 2.9l-3.08 6.99c0 2.22.78 4.27 2.09 5.91l-2.57.11c-1.92-2.42-4.97-3.98-8.41-3.98h-14.64c-2.89 0-5.52 1.11-7.42 2.9-.47.45-.9.94-1.28 1.46l-1.96-.13a9.46 9.46 0 0 0 1.79-5.53c0-5.46-4.7-9.89-10.49-9.89zm-17.88 30.77a9.883 9.883 0 0 1 2.44-3.59c1.9-1.79 4.52-2.9 7.42-2.9h14.63c3.26 0 6.17 1.4 8.09 3.6 1.5 1.71 2.4 3.9 2.4 6.29 0 2.22-.78 4.27-2.08 5.91-1.92 2.42-4.97 3.98-8.41 3.98h-14.63c-5.79 0-10.49-4.43-10.49-9.89 0-1.19.22-2.34.63-3.4zm24.33 68.59c3.26 0 6.18 1.4 8.11 3.59 1.49 1.71 2.39 3.9 2.39 6.3 0 2.05-.66 3.95-1.79 5.53-1.89 2.62-5.08 4.35-8.71 4.35h-14.62c-3.81 0-7.14-1.9-8.98-4.75a9.47 9.47 0 0 1 -1.52-5.13l3.07-7c1.9-1.78 4.53-2.89 7.43-2.89zm0 24.27c3.26 0 6.18 1.4 8.11 3.6 1.49 1.71 2.39 3.9 2.39 6.29 0 2.22-.78 4.27-2.08 5.92-1.92 2.41-4.98 3.97-8.42 3.97h-14.62c-3.63 0-6.82-1.73-8.71-4.36a9.46 9.46 0 0 1 -1.79-5.53l3.07-6.99c1.9-1.79 4.53-2.9 7.43-2.9z" fill="#fff400"/><path d="m371.72 168.13c3.89-7.13 8.37-13.39 13.48-18.34h6.61c5.79 0 10.49 4.43 10.49 9.89 0 2.05-.66 3.95-1.79 5.53-1.89 2.63-5.08 4.36-8.7 4.36h-14.63c-2 0-3.87-.53-5.46-1.44zm27.29 394.17a9.483 9.483 0 0 0 1.79-5.53c0-.279-.01-.55-.04-.819-.02-.23-.04-.46-.08-.69l-.03-.18c-.05-.24-.1-.49-.17-.72-.06-.24-.13-.471-.21-.69a8.37 8.37 0 0 0 -.3-.75c-.04-.1-.08-.189-.14-.29-.09-.2-.19-.39-.3-.58-.1-.18-.22-.359-.34-.54 0-.02-.01-.029-.03-.05-.14-.21-.29-.41-.44-.61l2.85-.88c.27.311.57.601.88.891.1.08.2.17.31.26.33.27.68.53 1.05.76.14.101.28.18.43.26.14.091.29.17.44.24.45.23.91.43 1.39.59.16.061.32.11.49.15.14.05.28.09.42.12.67.17 1.37.27 2.08.31.2.01.41.021.61.021h14.63c.39 0 .77-.021 1.14-.061.19-.02.38-.04.56-.069.18-.03.36-.061.54-.101.47-.09.94-.22 1.39-.38.15-.05.301-.1.45-.17.16-.06.32-.13.47-.2.16-.06.301-.14.45-.22 1.04-.53 1.97-1.22 2.771-2.04l2.649.57-1.52 5.119c0 2.221.78 4.271 2.09 5.921l-2.58.1c-1.92-2.42-4.97-3.98-8.41-3.98h-14.63c-2.89 0-5.52 1.11-7.42 2.9-.47.45-.91.94-1.28 1.46zm-8-363.35c3.26 0 6.18 1.4 8.11 3.6 1.49 1.71 2.39 3.9 2.39 6.29 0 2.22-.78 4.27-2.08 5.91-1.92 2.42-4.98 3.98-8.42 3.98h-14.62c-3.44 0-6.49-1.56-8.41-3.98a9.436 9.436 0 0 1 -2.09-5.91c0-2.73 1.18-5.2 3.08-6.99s4.53-2.9 7.42-2.9zm-.14 99.35c3.25 0 6.16 1.4 8.09 3.6 1.5 1.71 2.4 3.9 2.4 6.29 0 2.22-.78 4.27-2.09 5.92-1.91 2.41-4.97 3.97-8.4 3.97h-14.64c-3.63 0-6.82-1.73-8.7-4.36a9.46 9.46 0 0 1 -1.79-5.53l3.07-6.99c1.9-1.79 4.52-2.9 7.42-2.9z" fill="#fff400"/><path d="m400.64 548.71c.09.16.19.32.32.47a6.52 6.52 0 0 1 -.32-.47z" fill="#fff"/><path d="m390.54 446.51c3.26 0 6.17 1.4 8.1 3.601 1.49 1.71 2.39 3.909 2.39 6.3 0 2.04-.66 3.939-1.79 5.52-1.89 2.63-5.08 4.36-8.7 4.36h-14.63c-3.8 0-7.13-1.91-8.97-4.76a9.462 9.462 0 0 1 -1.52-5.12c0-2.391.9-4.59 2.4-6.3.21-.24.43-.48.67-.7 1.9-1.79 4.53-2.9 7.42-2.9h14.63zm-.08-222.76c3.26 0 6.18 1.4 8.1 3.59 1.5 1.71 2.4 3.9 2.4 6.3 0 5.46-4.7 9.88-10.5 9.88h-14.63c-3.63 0-6.82-1.73-8.71-4.35a9.46 9.46 0 0 1 -1.79-5.53l2.08-5.92c.3-.38.63-.74.99-1.08 1.9-1.78 4.53-2.89 7.43-2.89zm0 124.11c3.26 0 6.18 1.4 8.1 3.6 1.5 1.71 2.4 3.9 2.4 6.29 0 2.05-.66 3.95-1.8 5.53-1.88 2.63-5.08 4.36-8.7 4.36h-14.63c-3.8 0-7.13-1.91-8.98-4.76a9.47 9.47 0 0 1 -1.52-5.13l3.08-6.99c1.9-1.79 4.53-2.9 7.42-2.9zm0 24.28c3.26 0 6.18 1.4 8.1 3.59 1.5 1.71 2.4 3.91 2.4 6.3 0 2.05-.66 3.95-1.8 5.53-1.88 2.63-5.08 4.36-8.7 4.36h-14.63c-3.62 0-6.82-1.73-8.7-4.36a9.399 9.399 0 0 1 -1.8-5.53c0-2.39.9-4.59 2.4-6.3.22-.24.44-.48.68-.7 1.9-1.79 4.53-2.89 7.42-2.89z" fill="#fff400"/><path d="m400.8 556.77c0 2.04-.66 3.95-1.79 5.53-1.89 2.63-5.08 4.36-8.7 4.36h-14.63c-3.8 0-7.13-1.91-8.97-4.76a9.5 9.5 0 0 1 -1.52-5.131c0-2.39.9-4.59 2.39-6.3.22-.239.44-.479.68-.7 1.9-1.789 4.52-2.899 7.42-2.899h14.63c.21 0 .43.01.64.02.24.011.48.03.71.061.17.02.33.05.5.069.97.171 1.89.45 2.75.851.13.06.27.13.4.2.59.3 1.15.66 1.67 1.06.1.08.2.15.29.23.53.449 1.02.939 1.45 1.489.15.2.3.4.44.61.02.021.03.03.03.05.12.17.23.351.34.54.11.19.21.38.3.58.05.09.1.19.14.29.11.24.21.49.3.75.08.22.15.45.21.69.07.229.12.479.17.72l.03.18c.03.23.06.45.08.69.03.27.04.54.04.82z" fill="#fff400"/><path d="m400.76 555.95c-.02-.24-.05-.46-.08-.69.04.23.06.46.08.69zm-.11-.87c-.05-.24-.1-.49-.17-.72.07.23.12.48.17.72zm-.2-6.68c.06.1.12.21.19.31-.08-.1-.14-.21-.19-.31z" fill="#fff"/><path d="m390.3 323.1c3.26 0 6.17 1.4 8.1 3.6 1.49 1.71 2.39 3.9 2.39 6.29 0 2.22-.77 4.27-2.08 5.91-1.91 2.42-4.97 3.98-8.41 3.98h-14.62c-3.62 0-6.82-1.73-8.7-4.36a9.399 9.399 0 0 1 -1.8-5.53l3.08-6.99c1.9-1.79 4.52-2.9 7.42-2.9z" fill="#fff400"/><path d="m400.02 547.55c.06.141.13.28.2.431a2.433 2.433 0 0 1 -.2-.431z" fill="#fff"/><path d="m402.3 183.96c0-2.39-.9-4.58-2.4-6.29l2.86-.89c1.92 2.42 4.97 3.98 8.41 3.98h14.64c2.89 0 5.52-1.11 7.42-2.9l2.739.64c-.81 1.4-1.27 3-1.27 4.71 0 5.46 4.71 9.89 10.5 9.89h14.63c2.689 0 5.15-.96 7.01-2.53a9.284 9.284 0 0 0 -1.229 4.63c0 2.39.899 4.59 2.39 6.3l-.87.3c-1.92-2.19-4.83-3.59-8.09-3.59h-14.63c-2.9 0-5.521 1.11-7.42 2.89-.59.56-1.12 1.19-1.55 1.86l-2.66-.56c1.7-1.76 2.729-4.09 2.729-6.65 0-5.46-4.71-9.89-10.5-9.89h-14.63c-2.9 0-5.52 1.11-7.42 2.9-.48.45-.9.94-1.28 1.46l-1.46-.35c1.301-1.64 2.081-3.69 2.081-5.91zm-11.76 286.83c3.44 0 6.49 1.56 8.41 3.97 1.31 1.65 2.08 3.69 2.08 5.91s-.78 4.271-2.08 5.92c-1.92 2.42-4.97 3.98-8.41 3.98h-14.63c-3.62 0-6.81-1.73-8.7-4.37a9.437 9.437 0 0 1 -1.79-5.53c0-2.39.9-4.57 2.4-6.28.21-.239.43-.479.67-.699 1.9-1.79 4.53-2.9 7.42-2.9h14.63zm11.61-211.75c0-2.4-.9-4.59-2.39-6.3l2.85-.88c1.91 2.42 4.97 3.98 8.41 3.98h14.62c3.08 0 5.85-1.25 7.77-3.24l2.67.56-1.521 5.13c0 2.22.771 4.27 2.08 5.92l-2.59.1c-1.91-2.41-4.97-3.98-8.41-3.98h-14.62c-2.9 0-5.52 1.11-7.42 2.9-.48.45-.9.94-1.28 1.47l-1.96-.13a9.453 9.453 0 0 0 1.791-5.53zm0 24.27c0-2.39-.9-4.58-2.39-6.29l2.85-.88c1.91 2.41 4.97 3.98 8.41 3.98h14.62c3.08 0 5.85-1.25 7.77-3.24l2.67.56-1.521 5.13c0 5.46 4.69 9.89 10.49 9.89h14.62c2.68 0 5.12-.95 6.98-2.5a9.355 9.355 0 0 0 -1.21 4.6c0 2.39.899 4.58 2.399 6.29l-.859.31c-1.921-2.2-4.83-3.6-8.091-3.6h-14.64c-2.89 0-5.52 1.11-7.42 2.9-.59.56-1.11 1.19-1.55 1.86l-2.65-.56c1.69-1.76 2.72-4.1 2.72-6.65 0-5.46-4.699-9.9-10.5-9.9h-14.62c-2.9 0-5.53 1.11-7.43 2.9-.48.45-.9.94-1.28 1.47l-1.45-.35c1.302-1.65 2.082-3.7 2.082-5.92z" fill="#fff400"/><path d="m390.31 571.15c3.44 0 6.49 1.56 8.41 3.979 1.3 1.65 2.08 3.7 2.08 5.92s-.78 4.26-2.08 5.91c-1.92 2.41-4.97 3.97-8.41 3.97h-14.63c-3.62 0-6.81-1.729-8.7-4.35a9.46 9.46 0 0 1 -1.79-5.53c0-2.39.9-4.59 2.39-6.3.22-.24.44-.48.68-.7 1.9-1.79 4.52-2.899 7.42-2.899zm-.8 24.89c3.26 0 6.17 1.4 8.1 3.59 1.49 1.71 2.39 3.91 2.39 6.3 0 2.051-.66 3.95-1.79 5.53-1.88 2.62-5.07 4.35-8.7 4.35h-14.63c-3.62 0-6.81-1.729-8.7-4.35a9.457 9.457 0 0 1 -1.79-5.53c0-2.39.9-4.59 2.39-6.3.22-.24.44-.479.68-.7 1.9-1.79 4.52-2.89 7.42-2.89z" fill="#fff400"/><path d="m399.65 546.63c.05.15.11.3.16.45-.06-.15-.11-.3-.16-.45z" fill="#fff"/><path d="m389.67 397.02c3.26 0 6.17 1.4 8.1 3.59 1.5 1.71 2.4 3.91 2.4 6.3 0 2.22-.78 4.27-2.09 5.91-1.92 2.42-4.97 3.98-8.41 3.98h-14.63c-3.62 0-6.82-1.73-8.7-4.36a9.399 9.399 0 0 1 -1.8-5.53c0-2.39.9-4.59 2.4-6.3.22-.24.44-.48.68-.7 1.9-1.79 4.52-2.89 7.42-2.89z" fill="#fff400"/><path d="m399.53 552.05c-.11-.189-.22-.37-.34-.54.12.18.24.36.34.54z" fill="#fff"/><path d="m389.18 520.47c3.26 0 6.18 1.4 8.1 3.59 1.5 1.71 2.4 3.9 2.4 6.301 0 5.47-4.7 9.89-10.5 9.89h-14.63c-3.26 0-6.17-1.4-8.09-3.59-1.49-1.71-2.39-3.91-2.39-6.3 0-2.4.9-4.591 2.39-6.301.22-.239.44-.479.68-.699 1.9-1.78 4.52-2.891 7.41-2.891zm-.07-98.66c3.26 0 6.17 1.4 8.1 3.6 1.49 1.71 2.39 3.91 2.39 6.3 0 5.46-4.69 9.89-10.49 9.89h-14.63c-3.64 0-6.85-1.75-8.73-4.399a9.413 9.413 0 0 1 -1.77-5.49c0-2.39.9-4.59 2.4-6.3.22-.24.44-.48.68-.7 1.9-1.79 4.52-2.9 7.42-2.9h14.63zm12.4-212.97c0-2.39-.9-4.58-2.39-6.29l2.85-.89c1.92 2.42 4.97 3.98 8.41 3.98h14.63c3.08 0 5.851-1.25 7.771-3.24l2.66.56-1.521 5.13c0 5.47 4.69 9.89 10.49 9.89h14.63c2.87 0 5.47-1.08 7.36-2.85a9.463 9.463 0 0 0 -1.36 4.87c0 2.39.9 4.58 2.4 6.29l-.86.31c-1.93-2.2-4.84-3.6-8.1-3.6h-14.63c-2.89 0-5.52 1.11-7.42 2.9-.59.56-1.109 1.19-1.55 1.86l-2.66-.56c1.69-1.76 2.721-4.09 2.721-6.65 0-5.46-4.69-9.89-10.49-9.89h-14.62c-2.9 0-5.53 1.11-7.43 2.9-.48.45-.9.94-1.28 1.46l-1.69-.27c1.299-1.64 2.079-3.69 2.079-5.91zm-11.76 286.82c3.44 0 6.5 1.57 8.41 3.979 1.31 1.66 2.08 3.7 2.08 5.92 0 2.051-.66 3.95-1.79 5.53-1.88 2.63-5.07 4.36-8.7 4.36h-14.63c-3.62 0-6.82-1.73-8.7-4.36a9.396 9.396 0 0 1 -1.8-5.53c0-2.39.9-4.579 2.4-6.29.22-.25.44-.489.68-.71 1.9-1.79 4.52-2.899 7.42-2.899z" fill="#fff400"/><path d="m399.23 544.7c.02.17.04.33.07.5-.03-.16-.05-.33-.07-.5z" fill="#fff"/><path d="m401.36 308.19c0-2.39-.9-4.58-2.4-6.29l2.85-.88c1.92 2.41 4.98 3.98 8.42 3.98h14.62c3.08 0 5.85-1.25 7.78-3.24l2.65.56-1.521 5.13c0 5.46 4.7 9.89 10.49 9.89h14.64c2.851 0 5.46-1.08 7.351-2.84a9.384 9.384 0 0 0 -1.351 4.85c0 2.39.9 4.58 2.4 6.3l-.88.3c-1.92-2.2-4.83-3.6-8.09-3.6h-14.619c-2.9 0-5.53 1.11-7.431 2.9-.59.56-1.119 1.19-1.55 1.86l-2.66-.56c1.7-1.76 2.73-4.09 2.73-6.65 0-5.46-4.71-9.89-10.5-9.89h-14.63c-2.9 0-5.52 1.11-7.42 2.9-.48.45-.9.94-1.28 1.46l-1.69-.26c1.311-1.65 2.091-3.7 2.091-5.92z" fill="#fff400"/><path d="m399.19 544.2c.01.17.02.33.04.5-.02-.16-.03-.33-.04-.5z" fill="#fff"/><path d="m400.41 486.93-1.46-.34c1.3-1.649 2.08-3.7 2.08-5.92s-.77-4.26-2.08-5.91l2.85-.88c1.93 2.2 4.84 3.601 8.1 3.601h14.63c3.081 0 5.85-1.25 7.77-3.24l2.66.56-1.52 5.141c0 5.46 4.689 9.88 10.489 9.88h14.63c2.671 0 5.101-.931 6.95-2.471a9.445 9.445 0 0 0 -1.18 4.57c0 2.39.9 4.58 2.39 6.29l-.85.31c-1.93-2.189-4.84-3.59-8.11-3.59h-14.62c-2.899 0-5.52 1.101-7.42 2.891-.59.56-1.12 1.18-1.55 1.859l-2.66-.56c1.69-1.76 2.721-4.101 2.721-6.66 0-5.46-4.69-9.89-10.5-9.89h-14.62c-2.9 0-5.52 1.109-7.42 2.899-.47.45-.9.94-1.28 1.46z" fill="#fff400"/><path d="m364.86 549.42c.35-.4.66-.82.94-1.26.15-.24.29-.48.41-.73.07-.13.13-.26.19-.39.07-.14.13-.28.18-.42.02-.03.03-.061.04-.09.07-.17.13-.34.18-.511.08-.239.15-.479.21-.72.01-.03.01-.069.02-.1.05-.2.09-.4.12-.61.04-.24.07-.479.08-.729.01-.07.02-.13.02-.2l1.02.08h28.57l2.33-.05v.029c0 .16.01.33.02.48.01.17.02.34.04.5.02.17.04.34.07.5.07.49.19.97.35 1.43.05.15.1.3.16.45.06.16.13.31.21.47.05.15.12.29.2.431.07.14.15.279.23.42.05.1.11.21.19.31.1.16.2.31.32.47.18.271.39.53.61.79l-2.85.88c-.43-.55-.92-1.04-1.45-1.489-.09-.08-.19-.16-.29-.23-.52-.399-1.08-.76-1.67-1.06-.13-.07-.26-.141-.4-.2-.86-.4-1.78-.68-2.75-.851-.17-.02-.33-.05-.5-.069-.23-.03-.47-.05-.71-.061-.21-.01-.42-.02-.64-.02h-14.63c-2.9 0-5.52 1.11-7.42 2.899-.24.221-.46.461-.68.7z" fill="#fff400"/><path d="m399.16 551.46c-.14-.21-.29-.41-.44-.61.15.2.3.4.44.61z" fill="#fff"/><path d="m400.17 587.3-1.45-.34c1.3-1.65 2.08-3.69 2.08-5.91s-.78-4.27-2.08-5.92l2.85-.88c1.93 2.19 4.84 3.59 8.1 3.59h14.63c3.08 0 5.84-1.25 7.771-3.229l2.649.55-1.52 5.14c0 5.47 4.7 9.9 10.5 9.9h14.63c2.66 0 5.1-.94 6.95-2.48a9.475 9.475 0 0 0 -1.181 4.57c0 2.39.9 4.58 2.391 6.29l-.86.31c-1.93-2.199-4.84-3.6-8.1-3.6h-14.63c-2.9 0-5.521 1.11-7.42 2.9a9.851 9.851 0 0 0 -1.551 1.859l-2.66-.56c1.7-1.771 2.73-4.101 2.73-6.66 0-5.46-4.71-9.89-10.49-9.89h-14.64c-2.89 0-5.52 1.109-7.42 2.899a11.2 11.2 0 0 0 -1.279 1.461z" fill="#fff400"/><path d="m401.03 456.41c0-2.391-.9-4.59-2.39-6.3l2.85-.88c1.92 2.42 4.97 3.979 8.41 3.979h14.63c3.081 0 5.85-1.25 7.77-3.24l2.66.561-1.52 5.13c0 2.22.77 4.26 2.079 5.91l-2.579.1c-1.921-2.41-4.971-3.97-8.411-3.97h-14.629c-2.9 0-5.52 1.1-7.42 2.89-.48.45-.9.94-1.28 1.46l-1.96-.12a9.452 9.452 0 0 0 1.79-5.52z" fill="#fff"/><path d="m398.56 375.73 2.85-.87c1.92 2.42 4.98 3.98 8.42 3.98h14.62c3.08 0 5.85-1.25 7.77-3.24l2.66.55-1.52 5.13c0 5.48 4.699 9.91 10.5 9.91h14.62c2.67 0 5.109-.94 6.96-2.49a9.4 9.4 0 0 0 -1.19 4.58c0 2.39.9 4.59 2.39 6.3l-.85.3c-1.92-2.19-4.83-3.59-8.09-3.59h-14.64c-2.899 0-5.52 1.11-7.42 2.89-.59.56-1.12 1.19-1.55 1.86l-2.66-.56c1.69-1.76 2.721-4.09 2.721-6.65 0-5.47-4.69-9.89-10.49-9.89h-14.62c-2.9 0-5.52 1.1-7.42 2.89-.36.34-.69.7-.99 1.08l-1.47-.35a9.399 9.399 0 0 0 1.8-5.53c-.001-2.39-.901-4.59-2.401-6.3zm0-24.27 2.85-.88c1.92 2.42 4.98 3.98 8.42 3.98h14.62c3.08 0 5.85-1.25 7.77-3.24l2.66.56-1.52 5.13c0 2.22.779 4.27 2.09 5.91l-2.59.1c-1.91-2.41-4.971-3.97-8.41-3.97h-14.62c-2.9 0-5.53 1.11-7.43 2.89-.48.45-.9.94-1.28 1.46l-1.96-.12a9.399 9.399 0 0 0 1.8-5.53c0-2.39-.9-4.58-2.4-6.29zm1.58 159.89-1.69-.26a9.457 9.457 0 0 0 1.79-5.53c0-2.22-.77-4.26-2.08-5.92l2.85-.88c1.93 2.2 4.84 3.601 8.1 3.601h14.62c3.09 0 5.86-1.25 7.78-3.24l2.66.56-1.52 5.13c0 5.471 4.689 9.9 10.489 9.9h14.62c2.86 0 5.471-1.08 7.36-2.84a9.425 9.425 0 0 0 -1.34 4.84c0 2.39.899 4.59 2.399 6.3l-.88.3c-1.92-2.199-4.83-3.6-8.09-3.6h-14.63c-2.9 0-5.521 1.11-7.42 2.9-.59.56-1.12 1.189-1.561 1.87l-2.649-.561c1.7-1.76 2.729-4.09 2.729-6.65 0-5.47-4.71-9.89-10.5-9.89h-14.63c-2.89 0-5.52 1.101-7.42 2.89-.347.34-.677.7-.987 1.08zm-.14 94.58c0-2.39-.9-4.59-2.39-6.3l2.85-.88c1.92 2.41 4.97 3.98 8.41 3.98h14.64c3.07 0 5.84-1.25 7.76-3.24l2.66.56-1.52 5.12c0 5.47 4.689 9.9 10.49 9.9h14.63c2.859 0 5.47-1.09 7.37-2.86a9.463 9.463 0 0 0 -1.36 4.87c0 2.39.9 4.58 2.4 6.29l-.86.31c-1.93-2.189-4.84-3.59-8.1-3.59h-14.63c-2.899 0-5.529 1.11-7.43 2.891-.59.56-1.12 1.189-1.55 1.859l-2.66-.56c1.7-1.761 2.73-4.09 2.73-6.65 0-5.47-4.7-9.89-10.5-9.89h-14.62c-2.9 0-5.52 1.1-7.42 2.89-.36.34-.69.7-.99 1.08l-1.7-.25a9.46 9.46 0 0 0 1.79-5.53z" fill="#fff400"/><path d="m397.27 549.36c-.09-.08-.19-.15-.29-.23.1.07.2.15.29.23zm-2.88-466.28c-.01.01-.02.01-.03.03zm-.73 1.22c-.06.12-.13.24-.21.37.08-.13.14-.25.21-.37zm-.85 1.55c-.12.22-.24.46-.39.71.14-.25.27-.49.39-.71z" fill="#fff"/><path d="m441.75 641.88-50.17-1.57c4.52-1.1 7.87-4.97 7.87-9.59 0-2.39-.9-4.58-2.39-6.29l2.85-.89c1.91 2.41 4.97 3.97 8.41 3.97h14.62c3.08 0 5.85-1.25 7.77-3.229l2.66.56-1.521 5.141c0 5.289 4.41 9.609 9.96 9.88z" fill="#fff400"/><path d="m392.16 547.02c-.17-.02-.33-.05-.5-.069.17.019.33.049.5.069zm0-456.78c-.21.68-.42 1.38-.64 2.08.22-.7.43-1.39.64-2.08zm-.66-2c-.08.15-.16.32-.26.48.09-.16.18-.32.26-.48z" fill="#fff"/><path d="m392.52 89.07c-.65.18-1.27.41-1.86.71.2-.37.4-.72.58-1.06.1-.16.18-.33.26-.48.35-.62.66-1.18.92-1.68.15-.25.27-.49.39-.71.25-.45.46-.84.64-1.18.08-.13.15-.25.21-.37.38-.68.6-1.07.7-1.19.01-.02.02-.02.03-.03.21-.17-.62 1.95-1.81 5.8-.02.06-.04.13-.06.19zm-1.59 5.23c-.19.62-.37 1.25-.56 1.88.18-.63.37-1.26.56-1.88zm-.62 452.57c.22 0 .43.01.64.02-.21-.01-.43-.02-.64-.02zm-2.78-440.95c.74-2.59 1.47-5.13 2.2-7.61-.72 2.48-1.46 5.02-2.2 7.61zm.01-10.6c.25-.44.5-.87.74-1.29-.24.42-.48.85-.74 1.29zm-2.39 4.17c.32-.54.62-1.07.91-1.58-.29.51-.59 1.04-.91 1.58zm-1.03 1.78c.31-.53.61-1.06.91-1.56-.29.5-.59 1.02-.91 1.56z" fill="#fff"/><path d="m383.15 119.02c-.91-4.69-.97-10.77.14-16.32.2-.35.4-.69.6-1.03.08-.13.16-.27.23-.4.32-.54.62-1.06.91-1.56.04-.08.08-.15.12-.22.32-.54.62-1.07.91-1.58.53-.91 1.02-1.77 1.48-2.59.26-.44.5-.87.74-1.29.9-1.61 1.69-3.02 2.38-4.25.59-.3 1.21-.53 1.86-.71l-.36 1.17c-.21.69-.42 1.38-.64 2.08-.19.65-.39 1.32-.59 1.98-.19.62-.38 1.25-.56 1.88-.21.7-.42 1.41-.64 2.13-.73 2.48-1.46 5.02-2.2 7.61-1.37 4.75-2.74 9.62-4.07 14.45-.12-.43-.22-.88-.31-1.35z" fill="#fff"/><path d="m383.89 101.67c-.2.34-.4.68-.6 1.03.2-.35.4-.69.6-1.03z" fill="#fff"/><path d="m379.23 135.9c1.16-4.34 2.4-8.9 3.68-13.52-1.28 4.62-2.51 9.18-3.68 13.52zm-1.48 5.54c.46-1.76.95-3.56 1.45-5.41-.5 1.85-.98 3.66-1.45 5.41z" fill="#33a02c"/><path d="m356.6 210.97c2.33-10.7 5.47-21.29 9.47-30.94l1.25.53a9.417 9.417 0 0 0 -.63 3.4c0 5.46 4.7 9.89 10.49 9.89h14.63c3.44 0 6.49-1.56 8.41-3.98l1.46.35-1.8 5.53c0 2.22.78 4.26 2.09 5.91l-2.85.89c-1.93-2.2-4.85-3.6-8.11-3.6h-14.62c-2.89 0-5.52 1.11-7.42 2.9s-3.08 4.26-3.08 6.99c0 2.22.78 4.27 2.09 5.91l-1.78.14c-1.92-2.2-4.84-3.6-8.1-3.6z" fill="#fff400"/><path d="m358.1 235.51c3.44 0 6.5 1.56 8.41 3.98a9.436 9.436 0 0 1 2.09 5.91l-3.08 6.99c-1.9 1.79-4.52 2.9-7.42 2.9h-7.21c.34-3.96.63-7.66.88-11.05.21-2.86.47-5.77.81-8.73zm0 24.28c3.81 0 7.14 1.91 8.98 4.76a9.47 9.47 0 0 1 1.52 5.13l-3.08 6.99c-1.9 1.79-4.52 2.9-7.42 2.9h-9.44c.69-7.03 1.31-13.67 1.84-19.78zm-19.89 117.72c1.25.5 2.63.77 4.08.77h14.62c2.9 0 5.53-1.1 7.43-2.89.24-.22.46-.46.68-.7l2.71 1.04c-1.5 1.71-2.4 3.91-2.4 6.3 0 2.05.66 3.95 1.8 5.53l-2.31.18a9.429 9.429 0 0 1 1.8 5.54c0 2.39-.9 4.58-2.4 6.29-.22.24-.44.48-.68.7-1.9 1.79-4.52 2.89-7.42 2.89h-14.62c-2.29 0-4.41-.68-6.13-1.85h-.01c.88-7.56 1.81-15.56 2.75-23.81z" fill="#fff400"/><path d="m356.6 210.97 1.5.32c3.26 0 6.18 1.4 8.1 3.6 1.5 1.71 2.4 3.91 2.4 6.3l-2.4 6.29 1.21.24-2.08 5.92c0 2.05.66 3.95 1.79 5.53l-.61.32c-1.91-2.42-4.97-3.98-8.41-3.98h-5.52c.88-8 2.21-16.3 4.02-24.54zm10.65 332.6v.09c0 .07-.01.13-.02.2.01-.09.02-.19.02-.29z" fill="#fff"/><g fill="#fff400"><path d="m366.02 289.03c-1.89-2.63-5.08-4.36-8.71-4.36h-9.15c.17-1.72.34-3.42.5-5.1h9.44c2.9 0 5.52-1.11 7.42-2.9l3.08-6.99c0-1.88-.56-3.63-1.52-5.13l.97-.38c1.84 2.85 5.17 4.75 8.98 4.75h14.62c3.63 0 6.82-1.73 8.71-4.35l1.96.13-1.8 5.53c0 2.22.78 4.26 2.09 5.91l-2.85.88c-1.93-2.2-4.85-3.6-8.11-3.6h-14.62c-2.9 0-5.53 1.11-7.43 2.9l-3.07 6.99c0 2.05.66 3.95 1.79 5.53z"/><path d="m357 457.15c3.8 0 7.13 1.899 8.97 4.75a9.47 9.47 0 0 1 1.52 5.13c0 2.39-.9 4.59-2.39 6.3-1.93 2.2-4.84 3.6-8.1 3.6h-14.64c-5.79 0-10.49-4.43-10.49-9.899 0-2.73 1.17-5.2 3.07-6.99 1.9-1.78 4.52-2.89 7.42-2.89h14.64zm.31-172.48c3.63 0 6.82 1.73 8.71 4.36a9.46 9.46 0 0 1 1.79 5.53l-3.07 6.99c-1.9 1.79-4.53 2.9-7.43 2.9h-11.16c.71-6.8 1.38-13.43 2.01-19.78zm-.4 73.83c3.81 0 7.14 1.91 8.98 4.76a9.47 9.47 0 0 1 1.52 5.13c0 2.39-.9 4.59-2.39 6.3-.22.24-.44.48-.68.7-1.9 1.79-4.53 2.89-7.43 2.89h-14.62c-1.45 0-2.83-.27-4.08-.77l-.1-.01c.56-4.87 1.12-9.82 1.69-14.83.15-1.32.3-2.64.44-3.97.66-.13 1.35-.2 2.05-.2zm-.15 174.73c3.26 0 6.18 1.409 8.1 3.609 1.5 1.71 2.4 3.91 2.4 6.29 0 .15 0 .29-.01.44 0 .1-.01.199-.02.29-.01.25-.04.489-.08.729-.03.2-.07.41-.12.61-.01.03-.01.069-.02.1-.06.24-.13.49-.21.72a5.1 5.1 0 0 1 -.18.511c-.01.029-.02.06-.04.09-.05.14-.11.28-.18.42-.05.13-.12.26-.19.39-.12.25-.26.49-.41.73-.28.439-.59.859-.94 1.26-1.92 2.2-4.84 3.6-8.1 3.6h-14.63c-5.79 0-10.49-4.439-10.49-9.89 0-2.729 1.18-5.2 3.07-6.99 1.9-1.8 4.53-2.909 7.42-2.909z"/><path d="m350.5 259.79c.14-1.54.27-3.04.39-4.5h7.21c2.9 0 5.52-1.11 7.42-2.9l3.08-6.99c0-2.22-.78-4.27-2.09-5.91l.61-.32c1.89 2.62 5.08 4.35 8.71 4.35h14.63c5.8 0 10.5-4.42 10.5-9.88 0-2.4-.9-4.59-2.4-6.3l2.85-.88c1.92 2.42 4.98 3.98 8.42 3.98h14.62c3.08 0 5.85-1.25 7.77-3.24l2.66.56-1.52 5.13c0 2.56 1.029 4.89 2.72 6.65l-2.34.12c-1.92-2.2-4.84-3.6-8.1-3.6h-14.62c-2.9 0-5.52 1.11-7.42 2.9s-3.08 4.26-3.08 6.99c0 2.22.78 4.26 2.09 5.91l-2.85.88c-1.93-2.19-4.85-3.59-8.11-3.59h-14.62c-2.9 0-5.53 1.11-7.43 2.89l-3.07 7c0 1.88.56 3.63 1.52 5.13l-.97.38c-1.84-2.85-5.17-4.76-8.98-4.76z"/><path d="m357 432.87c3.62 0 6.81 1.729 8.7 4.36a9.477 9.477 0 0 1 1.79 5.529c0 2.4-.9 4.59-2.39 6.3-.22.24-.44.48-.68.7-1.9 1.78-4.52 2.891-7.42 2.891h-14.64c-2.89 0-5.52-1.101-7.42-2.891-1.89-1.79-3.07-4.27-3.07-7 0-.34.02-.68.05-1.01.11-.99.37-1.95.77-2.83 1.6-3.55 5.33-6.05 9.67-6.05h14.64zm-14.71-78.86c-.51 0-1.02-.04-1.51-.1.64-5.72 1.28-11.47 1.91-17.22l.27-2.46h13.95c3.63 0 6.82 1.73 8.71 4.35a9.46 9.46 0 0 1 1.79 5.53l-3.07 7c-1.9 1.79-4.53 2.9-7.43 2.9zm23.91-126.53 2.4-6.29c0-2.39-.9-4.59-2.4-6.3l1.78-.14c1.92 2.42 4.97 3.98 8.41 3.98h14.62c3.44 0 6.5-1.56 8.42-3.98l1.69.27-1.79 5.53c0 2.22.77 4.26 2.08 5.91l-2.85.88c-1.92-2.19-4.84-3.59-8.1-3.59h-14.63c-2.9 0-5.53 1.11-7.43 2.89-.36.34-.69.7-.99 1.08z"/><path d="m356.76 309.46c3.62 0 6.81 1.73 8.7 4.36a9.483 9.483 0 0 1 1.79 5.53l-3.07 7c-1.9 1.79-4.52 2.9-7.42 2.9h-13.25c.72-6.67 1.43-13.3 2.11-19.79zm9.31-129.43c1.73-4.16 3.61-8.15 5.65-11.9 1.59.91 3.46 1.44 5.46 1.44h14.63c3.62 0 6.81-1.73 8.7-4.36l1.96.13-1.79 5.53c0 2.22.78 4.26 2.08 5.91l-2.86.89c-1.92-2.2-4.83-3.6-8.09-3.6h-14.63c-2.9 0-5.52 1.11-7.42 2.9a9.883 9.883 0 0 0 -2.44 3.59z"/></g><path d="m366.21 547.43c.07-.13.14-.26.19-.39-.06.13-.12.26-.19.39z" fill="#fff"/><path d="m365.46 313.82c-1.89-2.63-5.08-4.36-8.7-4.36h-11.14c.18-1.68.35-3.35.53-5.01h11.16c2.9 0 5.53-1.11 7.43-2.9l3.07-6.99c0-2.05-.66-3.95-1.79-5.53l2.3-.19c1.89 2.63 5.08 4.36 8.71 4.36h14.62c3.44 0 6.5-1.56 8.42-3.97l1.45.35-1.79 5.53c0 2.22.77 4.26 2.08 5.91l-2.85.88c-1.93-2.2-4.84-3.6-8.09-3.6h-14.64c-2.9 0-5.52 1.11-7.42 2.9l-3.07 6.99c0 2.05.66 3.95 1.79 5.53zm-8.7 243.69c3.81 0 7.14 1.91 8.98 4.771a9.442 9.442 0 0 1 1.52 5.13c0 2.39-.9 4.58-2.4 6.29-1.92 2.2-4.84 3.6-8.1 3.6h-14.63c-5.79 0-10.49-4.439-10.49-9.89 0-2.73 1.18-5.21 3.07-7 1.9-1.79 4.53-2.9 7.42-2.9h14.63zm11.06-83.12-2.72-1.06c1.49-1.71 2.39-3.91 2.39-6.3 0-1.88-.56-3.63-1.52-5.13l.97-.37c1.84 2.85 5.17 4.76 8.97 4.76h14.63c3.62 0 6.81-1.73 8.7-4.36l1.96.12-1.79 5.53c0 2.4.9 4.59 2.39 6.3l-2.85.88c-1.92-2.41-4.97-3.97-8.41-3.97h-14.63c-2.89 0-5.52 1.11-7.42 2.9-.24.22-.46.46-.67.7zm-11.85 108c3.62 0 6.81 1.73 8.7 4.37a9.437 9.437 0 0 1 1.79 5.53c0 2.39-.9 4.58-2.4 6.29-.21.24-.43.479-.67.7-1.9 1.779-4.53 2.89-7.42 2.89h-14.63c-1.66 0-3.24-.36-4.63-1.02a122.15 122.15 0 0 1 -4.77-13.271c.44-.83.99-1.6 1.66-2.28 1.92-1.979 4.68-3.21 7.74-3.21h14.63zm-15.19-228.48c.49.06 1 .1 1.51.1h14.62c2.9 0 5.53-1.11 7.43-2.9l3.07-7c0-2.05-.66-3.95-1.79-5.53l1.36-.06c1.88 2.63 5.08 4.36 8.7 4.36h14.62c3.44 0 6.5-1.56 8.41-3.98l2.41.23-1.79 5.53c0 2.23.77 4.27 2.08 5.92l-2.85.88c-1.92-2.2-4.84-3.6-8.1-3.6h-14.63c-2.89 0-5.52 1.11-7.42 2.9l-3.08 6.99c0 1.88.56 3.63 1.52 5.13l-.96.38c-1.84-2.85-5.17-4.76-8.98-4.76h-14.62c-.7 0-1.39.07-2.05.2z" fill="#fff400"/><path d="m367.73 375.73-2.71-1.04c1.49-1.71 2.39-3.91 2.39-6.3 0-1.88-.56-3.63-1.52-5.13l.96-.38c1.85 2.85 5.18 4.76 8.98 4.76h14.63c3.62 0 6.82-1.73 8.7-4.36l1.96.12-1.79 5.54c0 2.23.77 4.27 2.08 5.92l-2.85.87c-1.92-2.19-4.84-3.59-8.1-3.59h-14.63c-2.89 0-5.52 1.1-7.42 2.89-.24.22-.46.46-.68.7zm-11.53 106.3c3.62 0 6.82 1.729 8.7 4.35 1.13 1.59 1.79 3.49 1.79 5.54 0 2.39-.9 4.58-2.39 6.29-1.93 2.2-4.84 3.6-8.1 3.6h-14.63c-5.79 0-10.49-4.43-10.49-9.89 0-2.74 1.18-5.21 3.07-7 1.9-1.78 4.53-2.89 7.42-2.89zm9.42-143.45c-1.89-2.62-5.08-4.35-8.71-4.35h-13.95c.18-1.66.36-3.32.55-4.98h13.25c2.9 0 5.52-1.11 7.42-2.9l3.07-7c0-2.04-.66-3.95-1.79-5.53l2.07-.1c1.88 2.63 5.07 4.36 8.7 4.36h14.64c3.43 0 6.49-1.56 8.4-3.97l1.69.26-1.79 5.53c0 2.22.77 4.26 2.08 5.91l-2.85.89c-1.93-2.2-4.84-3.6-8.1-3.6h-14.62c-2.9 0-5.52 1.11-7.42 2.9l-3.08 6.99c0 2.05.66 3.95 1.8 5.53z" fill="#fff400"/><path d="m367.82 450.11-2.72-1.051c1.49-1.71 2.39-3.899 2.39-6.3 0-2.04-.66-3.95-1.79-5.529l.05-.03c1.88 2.649 5.09 4.399 8.73 4.399h14.63c5.8 0 10.49-4.43 10.49-9.89 0-2.39-.9-4.59-2.39-6.3l2.85-.87c1.92 2.41 4.97 3.97 8.41 3.97h14.63c3.08 0 5.84-1.25 7.77-3.23l2.66.56-1.521 5.13c0 2.221.771 4.271 2.08 5.92l-1.46.13c-1.93-2.199-4.84-3.6-8.1-3.6h-14.629c-2.9 0-5.52 1.11-7.42 2.9s-3.07 4.26-3.07 6.989c0 2.221.77 4.271 2.08 5.921l-2.85.88c-1.93-2.2-4.84-3.601-8.1-3.601h-14.63c-2.89 0-5.52 1.11-7.42 2.9-.24.222-.46.462-.67.702zm1.92 189.52c-1.84-.84-3.37-2.17-4.41-3.81 5.82 3.56 10.32 5.64-.54-.94a9.523 9.523 0 0 1 -.96-4.16l3.07-6.989c1.9-1.79 4.52-2.9 7.42-2.9h14.64c3.26 0 6.17 1.4 8.1 3.6 1.49 1.71 2.39 3.9 2.39 6.29 0 4.62-3.35 8.49-7.87 9.59h-.02l-21.81-.68h-.01zm-14.09-132.8c3.62 0 6.81 1.72 8.7 4.35a9.46 9.46 0 0 1 1.79 5.53c0 2.39-.9 4.59-2.4 6.3-1.92 2.19-4.83 3.59-8.09 3.59h-14.64c-5.79 0-10.49-4.42-10.49-9.89 0-2.729 1.18-5.21 3.07-6.99 1.9-1.79 4.53-2.89 7.42-2.89zm-.08-98.65c3.62 0 6.81 1.73 8.7 4.36a9.46 9.46 0 0 1 1.79 5.53c0 2.39-.9 4.59-2.4 6.3-.21.24-.43.48-.67.7-1.9 1.791-4.53 2.89-7.42 2.89h-14.64c-2.42 0-4.65-.77-6.42-2.07-.68-.5-1.3-1.07-1.83-1.71l1.62-13.77c.54-.42 1.12-.78 1.74-1.09a10.93 10.93 0 0 1 4.89-1.14zm11.69 134.95c0-2.38-.9-4.58-2.4-6.29l1.6-.18c1.92 2.189 4.83 3.59 8.09 3.59h14.63c5.8 0 10.5-4.42 10.5-9.89 0-2.4-.9-4.591-2.4-6.301l2.86-.88c1.92 2.41 4.97 3.971 8.41 3.971h14.63c3.08 0 5.85-1.25 7.77-3.23l2.649.561-1.52 5.13c0 .319.02.64.05.949.01.15.03.311.061.46.02.15.05.311.079.461.021.119.051.239.08.359.21.88.551 1.71 1 2.48.101.18.21.35.32.52.16.23.32.46.5.68.05.07.1.141.17.211.15.18.311.359.47.529l-2.739.771a10.491 10.491 0 0 0 -3.351-2.32c-.149-.07-.31-.13-.46-.19-.109-.05-.22-.09-.33-.119-.3-.11-.62-.2-.939-.28-.15-.04-.3-.07-.45-.101a11.05 11.05 0 0 0 -2.24-.229h-14.63c-2.89 0-5.52 1.11-7.42 2.9s-3.08 4.25-3.08 6.979v.021l-2.33.05h-28.57l-1.02-.08v-.09c.01-.152.01-.292.01-.442zm-.24-43.86-2.72-1.06c1.49-1.71 2.39-3.9 2.39-6.29 0-2.05-.66-3.95-1.79-5.54l2.31-.18c1.89 2.64 5.08 4.37 8.7 4.37h14.63c3.44 0 6.49-1.561 8.41-3.98l1.46.34-1.79 5.53c0 2.4.9 4.59 2.39 6.3l-2.85.88c-1.91-2.409-4.97-3.979-8.41-3.979h-14.63c-2.9 0-5.52 1.109-7.42 2.899-.24.22-.46.46-.68.71z" fill="#fff400"/><path d="m366.94 400.61-2.72-1.04c1.5-1.71 2.4-3.9 2.4-6.29 0-2.05-.66-3.96-1.8-5.54l2.31-.18c1.88 2.63 5.08 4.36 8.7 4.36h14.63c3.62 0 6.82-1.73 8.7-4.36l1.47.35-2.09 5.92c0 2.22.78 4.26 2.09 5.91l-2.86.87c-1.93-2.19-4.84-3.59-8.1-3.59h-14.63c-2.9 0-5.52 1.1-7.42 2.89-.24.22-.46.46-.68.7z" fill="#fff"/><path d="m366.46 592.29c0-2.05-.66-3.96-1.79-5.53l2.31-.18c1.89 2.62 5.08 4.35 8.7 4.35h14.63c3.44 0 6.49-1.56 8.41-3.97l1.45.34-1.79 5.53c0 2.22.78 4.27 2.08 5.92l-2.85.88c-1.93-2.189-4.84-3.59-8.1-3.59h-14.63c-2.9 0-5.52 1.1-7.42 2.89-.24.221-.46.46-.68.7l-2.72-1.05c1.5-1.71 2.4-3.9 2.4-6.29zm0-68.23-2.72-1.05c1.5-1.71 2.4-3.91 2.4-6.3 0-2.05-.66-3.95-1.79-5.53l2.07-.09c1.88 2.63 5.08 4.36 8.7 4.36h14.63c3.63 0 6.82-1.73 8.7-4.36l1.69.26-2.08 5.92c0 2.221.78 4.261 2.08 5.91l-2.86.88c-1.92-2.189-4.84-3.59-8.1-3.59h-14.63c-2.89 0-5.51 1.11-7.41 2.891-.24.219-.46.459-.68.699z" fill="#fff400"/><path d="m366.06 418.07c0-2.05-.66-3.95-1.79-5.53l2.07-.1c1.88 2.63 5.08 4.36 8.7 4.36h14.63c3.44 0 6.49-1.56 8.41-3.98l1.69.27-1.79 5.53c0 2.23.78 4.27 2.08 5.92l-2.85.87c-1.93-2.2-4.84-3.6-8.1-3.6h-14.63c-2.9 0-5.52 1.11-7.42 2.9-.24.22-.46.46-.68.7l-2.72-1.04c1.5-1.71 2.4-3.91 2.4-6.3z" fill="#fff"/><path d="m358.56 631.29c1.86 1.43 4.42 3.1 6.77 4.53 1.04 1.64 2.57 2.97 4.41 3.81h.01c1.38.64 2.93.99 4.57.99h14.64c.9 0 1.77-.11 2.6-.311h.02l50.17 1.57 20.22.64c-10.35 8.61-27.279 23.211-45.16 41.66-22.45-23.609-53.36-48.929-58.25-52.889z" fill="#33a02c"/><path d="m355.41 626.97c2.9 0 5.52-1.109 7.42-2.899l3.07-6.99c0-2.05-.66-3.95-1.79-5.53l2.07-.09c1.89 2.62 5.08 4.35 8.7 4.35h14.63c3.63 0 6.82-1.729 8.7-4.35l1.7.25-2.09 5.92c0 2.22.78 4.26 2.09 5.91l-2.85.89c-1.93-2.199-4.84-3.6-8.1-3.6h-14.64c-2.9 0-5.52 1.11-7.42 2.9l-3.07 6.989c0 1.49.35 2.9.96 4.16-1.83-1.12-4.09-2.479-6.86-4.11-.01-.01-.02-.01-.03-.02a56.813 56.813 0 0 1 -4.18-3.78z" fill="#fff400"/><path d="m353.72 626.97c-5.39-5.31-10.13-11.859-14.14-19.72.39-.04.79-.06 1.2-.06h14.63c3.63 0 6.82 1.729 8.7 4.359a9.46 9.46 0 0 1 1.79 5.53l-3.07 6.99c-1.9 1.79-4.52 2.899-7.42 2.899h-1.69zm-17.68-217.65c-.62.31-1.2.67-1.74 1.09.34-2.95.7-5.99 1.06-9.1h.01c1.72 1.17 3.84 1.85 6.13 1.85h14.62c2.9 0 5.52-1.1 7.42-2.89.24-.22.46-.46.68-.7l2.72 1.04c-1.5 1.71-2.4 3.91-2.4 6.3 0 2.05.66 3.95 1.8 5.53l-2.07.1c-1.89-2.63-5.08-4.36-8.7-4.36h-14.64c-1.76 0-3.43.41-4.89 1.14zm-7.77 51.64s.89-7.31 2.33-19.37l1.32.16c-.03.33-.05.67-.05 1.01 0 2.73 1.18 5.21 3.07 7 1.9 1.79 4.53 2.891 7.42 2.891h14.64c2.9 0 5.52-1.11 7.42-2.891.24-.22.46-.46.68-.7l2.72 1.051c-1.5 1.71-2.4 3.909-2.4 6.3 0 1.87.56 3.62 1.52 5.12l-.97.37c-1.84-2.851-5.17-4.75-8.97-4.75h-14.64c-2.9 0-5.52 1.109-7.42 2.89-1.9 1.79-3.07 4.26-3.07 6.99 0 5.47 4.7 9.899 10.49 9.899h14.64c3.26 0 6.17-1.399 8.1-3.6l2.72 1.06c-1.5 1.71-2.4 3.891-2.4 6.28 0 2.05.66 3.96 1.79 5.53l-2.31.18c-1.88-2.62-5.08-4.35-8.7-4.35h-14.63c-2.89 0-5.52 1.109-7.42 2.89-1.89 1.79-3.07 4.26-3.07 7 0 5.46 4.7 9.89 10.49 9.89h14.63c3.26 0 6.17-1.399 8.1-3.6l2.72 1.06c-1.5 1.711-2.4 3.9-2.4 6.29 0 2.051.66 3.95 1.8 5.53l-2.07.09c-1.89-2.63-5.08-4.35-8.7-4.35h-14.64c-2.89 0-5.52 1.1-7.42 2.89-1.89 1.78-3.07 4.261-3.07 6.99 0 5.47 4.7 9.89 10.49 9.89h14.64c3.26 0 6.17-1.399 8.09-3.59l2.72 1.05c-1.49 1.71-2.39 3.9-2.39 6.301 0 2.39.9 4.59 2.39 6.3l-1.6.18c-1.92-2.2-4.84-3.609-8.1-3.609h-14.63c-2.89 0-5.52 1.109-7.42 2.909-1.89 1.79-3.07 4.261-3.07 6.99 0 5.45 4.7 9.89 10.49 9.89h14.63c3.26 0 6.18-1.399 8.1-3.6l2.72 1.05c-1.49 1.71-2.39 3.91-2.39 6.3a9.5 9.5 0 0 0 1.52 5.131l-.97.38c-1.84-2.86-5.17-4.771-8.98-4.771h-14.63c-2.89 0-5.52 1.11-7.42 2.9-1.89 1.79-3.07 4.27-3.07 7 0 5.45 4.7 9.89 10.49 9.89h14.63c3.26 0 6.18-1.399 8.1-3.6l2.72 1.05c-1.49 1.71-2.39 3.91-2.39 6.3 0 2.05.66 3.95 1.79 5.53l-2.31.18c-1.89-2.64-5.08-4.37-8.7-4.37h-14.63c-3.06 0-5.82 1.23-7.74 3.21a9.74 9.74 0 0 0 -1.66 2.28c-8.8-29.481-10.63-71.181-3.67-126.921zm2.33-19.37c.61-5.03 1.31-10.899 2.08-17.41.53.64 1.15 1.21 1.83 1.71 1.77 1.3 4 2.07 6.42 2.07h14.64c2.89 0 5.52-1.1 7.42-2.89.24-.22.46-.46.67-.7l2.72 1.04c-1.5 1.71-2.4 3.91-2.4 6.3 0 2.03.65 3.92 1.77 5.49l-.05.03c-1.89-2.631-5.08-4.36-8.7-4.36h-14.64c-4.34 0-8.07 2.5-9.67 6.05-.4.88-.66 1.84-.77 2.83z" fill="#fff400"/><path d="m328.27 460.96c-6.96 55.74-5.13 97.44 3.67 126.92-.13.25-.25.49-.36.75a9.348 9.348 0 0 0 -.74 3.66c0 3.89 2.39 7.26 5.87 8.86a102.105 102.105 0 0 0 2.87 6.1c4.01 7.86 8.75 14.41 14.14 19.72a56.365 56.365 0 0 0 4.18 3.78c.01.01.02.01.03.02.03.03.05.051.08.07l.01.01c.07.061.15.12.22.181.02.01.03.02.05.04.09.069.18.14.27.22 4.89 3.96 35.8 29.28 58.25 52.89 1.04 1.101 2.07 2.19 3.07 3.28 9.74 10.57 17.44 20.58 19.9 27.89 7.87 23.351 17.34 55.681 19.01 61.431.15.51.24.81.25.89l-87.65-.9.96-76.649c-7.23-41.851-42.93-33.17-68.94-66.28-22.72-28.92-7.43-156.47-.21-233.05 7.23-76.59 34.71-224.65 64.81-272.9.61-.97 1.2-1.92 1.77-2.86 5.62-9.04 10.04-16.42 13.51-22.33-1.11 5.55-1.05 11.63-.14 16.32.09.47.19.92.31 1.35-.18.67-.37 1.34-.55 2.01-1.28 4.62-2.52 9.18-3.68 13.52l-.03.13c-.5 1.85-.99 3.65-1.45 5.41-.8 3-1.55 5.84-2.24 8.47a10.74 10.74 0 0 0 -5.75 2.78c-1.9 1.79-3.07 4.26-3.07 6.99 0 3.24 1.66 6.12 4.21 7.92.26.19.54.36.82.53-2.04 3.75-3.92 7.74-5.65 11.9-4 9.65-7.14 20.24-9.47 30.94a234.64 234.64 0 0 0 -4.02 24.54c-.34 2.96-.6 5.87-.81 8.73-.25 3.39-.54 7.09-.88 11.05-.12 1.46-.25 2.96-.39 4.5-.53 6.11-1.15 12.75-1.84 19.78-.16 1.68-.33 3.38-.5 5.1-.63 6.35-1.3 12.98-2.01 19.78-.18 1.66-.35 3.33-.53 5.01-.68 6.49-1.39 13.12-2.11 19.79-.19 1.66-.37 3.32-.55 4.98l-.27 2.46c-.63 5.75-1.27 11.5-1.91 17.22l-.54 4.79c-.14 1.33-.29 2.65-.44 3.97-.57 5.01-1.13 9.96-1.69 14.83-.94 8.25-1.87 16.25-2.75 23.81-.36 3.11-.72 6.15-1.06 9.1-.91.69-1.69 1.53-2.31 2.48a9.47 9.47 0 0 0 -1.55 5.18c0 2.3.83 4.43 2.24 6.11-.77 6.51-1.47 12.379-2.08 17.41-1.44 12.057-2.33 19.367-2.33 19.367z" fill="#33a02c"/><g fill="none" stroke="#000"><g stroke-width="18.711"><path d="m419.88 687.46c9.74 10.57 17.44 20.58 19.9 27.89 7.87 23.351 17.34 55.681 19.01 61.431.15.51.24.81.26.89h-.01l-87.65-.9.96-76.649c-7.23-41.851-42.93-33.17-68.94-66.28-22.72-28.92-7.43-156.47-.21-233.05 7.23-76.59 34.71-224.65 64.81-272.9.61-.97 1.2-1.92 1.77-2.86 5.62-9.04 10.04-16.42 13.51-22.33.2-.35.4-.69.6-1.03.08-.13.16-.27.23-.4.32-.54.62-1.06.91-1.56.04-.08.08-.15.12-.22.32-.54.62-1.07.91-1.58.53-.91 1.02-1.77 1.48-2.59.25-.44.5-.87.74-1.29.9-1.61 1.69-3.02 2.38-4.25.2-.37.4-.72.58-1.06.1-.16.18-.33.26-.48.35-.62.66-1.18.92-1.68.15-.25.27-.49.39-.71.25-.45.46-.84.64-1.18.08-.13.15-.25.21-.37.38-.68.6-1.07.7-1.19l.03-.03c.21-.17-.62 1.95-1.81 5.8-.02.06-.04.13-.06.19l-.36 1.17c-.21.69-.42 1.38-.64 2.08-.19.65-.39 1.32-.59 1.98-.19.62-.38 1.25-.56 1.88-.21.7-.42 1.41-.64 2.13-.73 2.48-1.46 5.02-2.2 7.61-1.37 4.75-2.74 9.62-4.07 14.45-.18.67-.37 1.34-.55 2.01-1.28 4.62-2.51 9.18-3.68 13.52l-.03.13c-.5 1.85-.98 3.66-1.45 5.41-.8 3-1.55 5.84-2.24 8.47-2.75 10.51-4.56 17.64-4.56 17.64"/><path d="m358.56 631.29c4.89 3.96 35.8 29.28 58.25 52.89 1.04 1.101 2.07 2.19 3.07 3.28"/><path d="m337.51 602.96c.67 1.47 1.35 2.9 2.07 4.29 4.01 7.86 8.75 14.41 14.14 19.72a56.365 56.365 0 0 0 4.18 3.78c.01.01.02.01.03.02.03.03.05.051.08.07l.01.01c.07.061.15.12.22.181.02.01.03.02.05.04.09.069.18.14.27.22 1.86 1.43 4.42 3.1 6.77 4.53 5.82 3.56 10.32 5.64-.54-.94-1.83-1.12-4.09-2.479-6.86-4.11"/><path d="m339.8 362.67c-.57 5.01-1.13 9.96-1.69 14.83-.94 8.25-1.87 16.25-2.75 23.81-.36 3.11-.72 6.15-1.06 9.1l-1.62 13.77c-.77 6.51-1.47 12.379-2.08 17.41-1.44 12.061-2.33 19.37-2.33 19.37-6.96 55.74-5.13 97.44 3.67 126.92 1.41 4.74 3.01 9.16 4.77 13.271.26.609.53 1.21.8 1.81m5.18-266.271c-.63 5.75-1.27 11.5-1.91 17.22l-.54 4.79c-.14 1.33-.29 2.65-.44 3.97m65.09-224c-7.39 1.61-13.94 5.53-19.69 11.12-5.11 4.95-9.59 11.21-13.48 18.34-2.04 3.75-3.92 7.74-5.65 11.9-4 9.65-7.14 20.24-9.47 30.94a234.64 234.64 0 0 0 -4.02 24.54c-.34 2.96-.6 5.87-.81 8.73-.25 3.39-.54 7.09-.88 11.05-.12 1.46-.25 2.96-.39 4.5-.53 6.11-1.15 12.75-1.84 19.78-.16 1.68-.33 3.38-.5 5.1-.63 6.35-1.3 12.98-2.01 19.78-.18 1.66-.35 3.33-.53 5.01-.68 6.49-1.39 13.12-2.11 19.79-.19 1.66-.37 3.32-.55 4.98l-.27 2.46m124.35 301.68c.05-.05.09-.09.14-.13 4.67-4.681 8.641-8.33 12.04-11.271 21.09-18.22 20.05-8.7 27.511-41.01 8.68-37.57-1.171-120.05-4.33-164.73-.091-1.28-.19-2.58-.29-3.91-.57-7.68-1.29-16.15-2.101-25.1-.91-10-1.95-20.6-3.04-31.36-.29-2.85-.58-5.7-.88-8.57-.6-5.77-1.21-11.56-1.83-17.29-.229-2.12-.45-4.23-.68-6.34-.71-6.5-1.42-12.91-2.11-19.1a4567.48 4567.48 0 0 0 -2.83-24.89c-1.359-11.81-2.55-21.96-3.43-29.38-1-8.33-1.6-13.24-1.6-13.24-.29-2.34-.601-4.64-.91-6.89-1.561-11.27-3.38-21.35-5.46-30.33-1.58-6.87-3.33-13.1-5.24-18.74a124.6 124.6 0 0 0 -2.14-5.89c-.051-.14-.101-.27-.15-.4-1.71-4.36-3.53-8.32-5.479-11.89-4.391-8.09-9.41-14.27-15.11-18.86-4.45-3.59-9.32-6.21-14.63-8.01-6.59-2.24-13.86-3.21-21.86-3.21-2.67 0-5.25.28-7.73.83"/><path d="m447.66 776.3 11.13.48 8.729.38-2.72-74.72c7.23-46.24 40.91-40.891 66.92-66.9 26.011-26.01 10.641-159.91.4-247.51-8.92-76.41-32.89-209.56-62.98-257.81-28.5-45.67-28.5-51.71-24.569-39.02 1.319 4.27 2.699 8.89 4.09 13.69.14.47.27.93.41 1.41.13.47.27.94.399 1.41.49 1.69.98 3.39 1.46 5.11.181.63.36 1.26.54 1.9.15.53.3 1.06.45 1.6.21.73.41 1.48.62 2.22.74 2.63 1.47 5.27 2.18 7.88.4 1.43.78 2.85 1.16 4.25.26.94.51 1.87.76 2.8.021.05.03.1.04.15.34 1.22.66 2.43.98 3.63 1.13 4.18 2.18 8.18 3.149 11.84 2.15 8.17 3.841 14.71 4.721 18.15.43 1.7.67 2.64.67 2.64"/><path d="m470.28 635.69c-.811.67-1.851 1.52-3.101 2.55-1.47 1.189-3.22 2.62-5.21 4.279-10.35 8.61-27.279 23.211-45.16 41.66l-.01.011"/><path d="m391.58 640.31 50.17 1.57 20.22.64h.13m-92.35-2.89 21.81.68m-22.2-.69.38.01m19.83-504.34c1.25-1.25 2.43-2.46 3.56-3.66 10.99-11.71 16.26-21.59 18.08-40.74.06-.65.21-1.82.43-3.29 1.32-8.58 5.21-27.5 9.78-15.11 1.43 3.87 2.15 8.72 3.18 12.27.29 1.02.57 2.07.83 3.15 1.48 6.14 2.51 13.08 3.79 19.07 2 9.41 5.311 18.24 9 27.09.75 1.79 1.511 3.58 2.28 5.38"/></g><path d="m352.58 235.51h5.52c3.44 0 6.5 1.56 8.41 3.98a9.436 9.436 0 0 1 2.09 5.91l-3.08 6.99c-1.9 1.79-4.52 2.9-7.42 2.9h-9.47m9.47-44c3.26 0 6.18 1.4 8.1 3.6 1.5 1.71 2.4 3.91 2.4 6.3l-2.4 6.29c-.22.24-.44.48-.68.7-1.9 1.78-4.52 2.89-7.42 2.89m-7.6 28.72h7.6c3.81 0 7.14 1.91 8.98 4.76a9.47 9.47 0 0 1 1.52 5.13l-3.08 6.99c-1.9 1.79-4.52 2.9-7.42 2.9h-11.54m-.53 5.1h11.28c3.63 0 6.82 1.73 8.71 4.36a9.46 9.46 0 0 1 1.79 5.53l-3.07 6.99c-1.9 1.79-4.53 2.9-7.43 2.9h-14.62m-.56 5.01h14.63c3.62 0 6.81 1.73 8.7 4.36a9.483 9.483 0 0 1 1.79 5.53l-3.07 7c-1.9 1.79-4.52 2.9-7.42 2.9h-14.63m-4.75 6.12c1.47-.73 3.14-1.14 4.91-1.14h14.62c3.63 0 6.82 1.73 8.71 4.35a9.46 9.46 0 0 1 1.79 5.53l-3.07 7c-1.9 1.79-4.53 2.9-7.43 2.9h-14.62c-.51 0-1.02-.04-1.51-.1-.82-.12-1.6-.32-2.34-.59m-1.12 6.36c.9-.46 1.88-.8 2.92-.98.66-.13 1.35-.2 2.05-.2h14.62c3.81 0 7.14 1.91 8.98 4.76a9.47 9.47 0 0 1 1.52 5.13c0 2.39-.9 4.59-2.39 6.3-.22.24-.44.48-.68.7-1.9 1.79-4.53 2.89-7.43 2.89h-14.62c-1.45 0-2.83-.27-4.08-.77m3.29 5.87h14.62c3.62 0 6.82 1.73 8.7 4.36a9.429 9.429 0 0 1 1.8 5.54c0 2.39-.9 4.58-2.4 6.29-.22.24-.44.48-.68.7-1.9 1.79-4.52 2.89-7.42 2.89h-14.62c-2.29 0-4.41-.68-6.13-1.85m-.86 24.58c-.68-.5-1.3-1.07-1.83-1.71a9.47 9.47 0 0 1 -2.24-6.11c0-1.9.57-3.67 1.55-5.18.62-.95 1.4-1.79 2.31-2.48.54-.42 1.12-.78 1.74-1.09" stroke-width="6.237"/><path d="m336.04 409.32a10.93 10.93 0 0 1 4.89-1.14h14.64c3.62 0 6.81 1.73 8.7 4.36a9.46 9.46 0 0 1 1.79 5.53c0 2.39-.9 4.59-2.4 6.3-.21.24-.43.48-.67.7-1.9 1.791-4.53 2.89-7.42 2.89h-14.64c-2.42 0-4.65-.77-6.42-2.07m.43 23.87c-1.89-1.79-3.07-4.27-3.07-7 0-.34.02-.68.05-1.01.11-.99.37-1.95.77-2.83m0 0c1.6-3.55 5.33-6.05 9.67-6.05h14.64c3.62 0 6.81 1.729 8.7 4.36a9.477 9.477 0 0 1 1.79 5.529c0 2.4-.9 4.59-2.39 6.3-.22.24-.44.48-.68.7-1.9 1.78-4.52 2.891-7.42 2.891h-14.64c-2.89 0-5.52-1.101-7.42-2.891m31.03 12.141a9.47 9.47 0 0 1 1.52 5.13c0 2.39-.9 4.59-2.39 6.3-1.93 2.2-4.84 3.6-8.1 3.6h-14.64c-5.79 0-10.49-4.43-10.49-9.899 0-2.73 1.17-5.2 3.07-6.99 1.9-1.78 4.52-2.89 7.42-2.89h14.64c3.8-.001 7.13 1.899 8.97 4.749zm-1.07 24.48c1.13 1.59 1.79 3.49 1.79 5.54 0 2.39-.9 4.58-2.39 6.29-1.93 2.2-4.84 3.6-8.1 3.6h-14.63c-5.79 0-10.49-4.43-10.49-9.89 0-2.74 1.18-5.21 3.07-7 1.9-1.78 4.53-2.89 7.42-2.89h14.63c3.62 0 6.82 1.73 8.7 4.35zm-.55 24.8a9.46 9.46 0 0 1 1.79 5.53c0 2.39-.9 4.59-2.4 6.3-1.92 2.19-4.83 3.59-8.09 3.59h-14.64c-5.79 0-10.49-4.42-10.49-9.89 0-2.729 1.18-5.21 3.07-6.99 1.9-1.79 4.53-2.89 7.42-2.89h14.64c3.62 0 6.81 1.72 8.7 4.35zm.51 25.66c1.5 1.71 2.4 3.91 2.4 6.29 0 .15 0 .29-.01.44v.09c0 .07-.01.13-.02.2-.01.25-.04.489-.08.729-.03.2-.07.41-.12.61-.01.03-.01.069-.02.1-.06.24-.13.49-.21.72a5.1 5.1 0 0 1 -.18.511c-.01.029-.02.06-.04.09-.05.14-.11.28-.18.42-.05.13-.12.26-.19.39-.12.25-.26.49-.41.73-.28.439-.59.859-.94 1.26-1.92 2.2-4.84 3.6-8.1 3.6h-14.63c-5.79 0-10.49-4.439-10.49-9.89 0-2.729 1.18-5.2 3.07-6.99 1.9-1.8 4.53-2.909 7.42-2.909h14.63c3.26-.001 6.18 1.409 8.1 3.609zm.88 25.44a9.442 9.442 0 0 1 1.52 5.13c0 2.39-.9 4.58-2.4 6.29-1.92 2.2-4.84 3.6-8.1 3.6h-14.63c-5.79 0-10.49-4.439-10.49-9.89 0-2.73 1.18-5.21 3.07-7 1.9-1.79 4.53-2.9 7.42-2.9h14.63c3.81 0 7.14 1.91 8.98 4.77zm-32.14 23.32c1.92-1.979 4.68-3.21 7.74-3.21h14.63c3.62 0 6.81 1.73 8.7 4.37a9.437 9.437 0 0 1 1.79 5.53c0 2.39-.9 4.58-2.4 6.29-.21.24-.43.479-.67.7-1.9 1.779-4.53 2.89-7.42 2.89h-14.63c-1.66 0-3.24-.36-4.63-1.02-3.48-1.601-5.87-4.971-5.87-8.86 0-1.29.26-2.53.74-3.66.11-.26.23-.5.36-.75.44-.83.99-1.6 1.66-2.28m3.1 22.37c.9-.359 1.87-.609 2.88-.72.39-.04.79-.06 1.2-.06h14.63c3.63 0 6.82 1.729 8.7 4.359a9.46 9.46 0 0 1 1.79 5.53l-3.07 6.99c-1.9 1.79-4.52 2.899-7.42 2.899h-8.86m38.65-477.178h6.61c5.79 0 10.49 4.43 10.49 9.89 0 2.05-.66 3.95-1.79 5.53-1.89 2.63-5.08 4.36-8.7 4.36h-14.63c-2 0-3.87-.53-5.46-1.44-.28-.17-.56-.34-.82-.53-2.55-1.8-4.21-4.68-4.21-7.92 0-2.73 1.17-5.2 3.07-6.99a10.74 10.74 0 0 1 7.42-2.9zm14.7 27.88c1.5 1.71 2.4 3.9 2.4 6.29 0 2.22-.78 4.27-2.08 5.91-1.92 2.42-4.97 3.98-8.41 3.98h-14.63c-5.79 0-10.49-4.43-10.49-9.89 0-1.19.22-2.34.63-3.4a9.883 9.883 0 0 1 2.44-3.59c1.9-1.79 4.52-2.9 7.42-2.9h14.63c3.26 0 6.17 1.4 8.09 3.6zm-.78 24.88c1.49 1.71 2.39 3.9 2.39 6.29 0 2.22-.78 4.27-2.08 5.91-1.92 2.42-4.98 3.98-8.42 3.98h-14.62c-3.44 0-6.49-1.56-8.41-3.98a9.436 9.436 0 0 1 -2.09-5.91c0-2.73 1.18-5.2 3.08-6.99s4.53-2.9 7.42-2.9h14.62c3.26 0 6.18 1.4 8.11 3.6zm-.56 24.79c1.5 1.71 2.4 3.9 2.4 6.3 0 5.46-4.7 9.88-10.5 9.88h-14.63c-3.63 0-6.82-1.73-8.71-4.35a9.46 9.46 0 0 1 -1.79-5.53l2.08-5.92c.3-.38.63-.74.99-1.08 1.9-1.78 4.53-2.89 7.43-2.89h14.63c3.26 0 6.18 1.4 8.1 3.59zm1.2 25.4c1.49 1.71 2.39 3.9 2.39 6.3 0 2.05-.66 3.95-1.79 5.53-1.89 2.62-5.08 4.35-8.71 4.35h-14.62c-3.81 0-7.14-1.9-8.98-4.75a9.47 9.47 0 0 1 -1.52-5.13l3.07-7c1.9-1.78 4.53-2.89 7.43-2.89h14.62c3.26 0 6.18 1.4 8.11 3.59zm0 24.28c1.49 1.71 2.39 3.9 2.39 6.29 0 2.22-.78 4.27-2.08 5.92-1.92 2.41-4.98 3.97-8.42 3.97h-14.62c-3.63 0-6.82-1.73-8.71-4.36a9.46 9.46 0 0 1 -1.79-5.53l3.07-6.99c1.9-1.79 4.53-2.9 7.43-2.9h14.62c3.26 0 6.18 1.4 8.11 3.6zm-.8 24.88c1.5 1.71 2.4 3.9 2.4 6.29 0 2.22-.78 4.27-2.09 5.92-1.91 2.41-4.97 3.97-8.4 3.97h-14.64c-3.63 0-6.82-1.73-8.7-4.36a9.46 9.46 0 0 1 -1.79-5.53l3.07-6.99c1.9-1.79 4.52-2.9 7.42-2.9h14.64c3.25 0 6.16 1.4 8.09 3.6zm-.56 24.8c1.49 1.71 2.39 3.9 2.39 6.29 0 2.22-.77 4.27-2.08 5.91-1.91 2.42-4.97 3.98-8.41 3.98h-14.62c-3.62 0-6.82-1.73-8.7-4.36a9.399 9.399 0 0 1 -1.8-5.53l3.08-6.99c1.9-1.79 4.52-2.9 7.42-2.9h14.62c3.26 0 6.17 1.4 8.1 3.6zm.16 24.76c1.5 1.71 2.4 3.9 2.4 6.29 0 2.05-.66 3.95-1.8 5.53-1.88 2.63-5.08 4.36-8.7 4.36h-14.63c-3.8 0-7.13-1.91-8.98-4.76a9.47 9.47 0 0 1 -1.52-5.13l3.08-6.99c1.9-1.79 4.53-2.9 7.42-2.9h14.63c3.26 0 6.18 1.4 8.1 3.6zm0 24.27c1.5 1.71 2.4 3.91 2.4 6.3 0 2.05-.66 3.95-1.8 5.53-1.88 2.63-5.08 4.36-8.7 4.36h-14.63c-3.62 0-6.82-1.73-8.7-4.36a9.399 9.399 0 0 1 -1.8-5.53c0-2.39.9-4.59 2.4-6.3.22-.24.44-.48.68-.7 1.9-1.79 4.53-2.89 7.42-2.89h14.63c3.26 0 6.18 1.4 8.1 3.59zm-.79 24.88c1.5 1.71 2.4 3.91 2.4 6.3 0 2.22-.78 4.27-2.09 5.91-1.92 2.42-4.97 3.98-8.41 3.98h-14.63c-3.62 0-6.82-1.73-8.7-4.36a9.399 9.399 0 0 1 -1.8-5.53c0-2.39.9-4.59 2.4-6.3.22-.24.44-.48.68-.7 1.9-1.79 4.52-2.89 7.42-2.89h14.63c3.26 0 6.17 1.4 8.1 3.59zm-.56 24.8c1.49 1.71 2.39 3.91 2.39 6.3 0 5.46-4.69 9.89-10.49 9.89h-14.63c-3.64 0-6.85-1.75-8.73-4.399a9.413 9.413 0 0 1 -1.77-5.49c0-2.39.9-4.59 2.4-6.3.22-.24.44-.48.68-.7 1.9-1.79 4.52-2.9 7.42-2.9h14.63c3.26-.001 6.17 1.399 8.1 3.599zm1.43 24.7c1.49 1.71 2.39 3.909 2.39 6.3 0 2.04-.66 3.939-1.79 5.52-1.89 2.63-5.08 4.36-8.7 4.36h-14.63c-3.8 0-7.13-1.91-8.97-4.76a9.462 9.462 0 0 1 -1.52-5.12c0-2.391.9-4.59 2.4-6.3.21-.24.43-.48.67-.7 1.9-1.79 4.53-2.9 7.42-2.9h14.63c3.26 0 6.17 1.4 8.1 3.6zm.31 24.65c1.31 1.65 2.08 3.69 2.08 5.91s-.78 4.271-2.08 5.92c-1.92 2.42-4.97 3.98-8.41 3.98h-14.63c-3.62 0-6.81-1.73-8.7-4.37a9.437 9.437 0 0 1 -1.79-5.53c0-2.39.9-4.57 2.4-6.28.21-.239.43-.479.67-.699 1.9-1.79 4.53-2.9 7.42-2.9h14.63c3.44-.001 6.49 1.559 8.41 3.969zm-.79 24.88c1.31 1.66 2.08 3.7 2.08 5.92 0 2.051-.66 3.95-1.79 5.53-1.88 2.63-5.07 4.36-8.7 4.36h-14.63c-3.62 0-6.82-1.73-8.7-4.36a9.396 9.396 0 0 1 -1.8-5.53c0-2.39.9-4.579 2.4-6.29.22-.25.44-.489.68-.71 1.9-1.79 4.52-2.899 7.42-2.899h14.63c3.44-.001 6.5 1.569 8.41 3.979zm-.88 24.42c1.5 1.71 2.4 3.9 2.4 6.301 0 5.47-4.7 9.89-10.5 9.89h-14.63c-3.26 0-6.17-1.4-8.09-3.59-1.49-1.71-2.39-3.91-2.39-6.3 0-2.4.9-4.591 2.39-6.301.22-.239.44-.479.68-.699 1.9-1.78 4.52-2.891 7.41-2.891h14.63c3.26 0 6.18 1.4 8.1 3.59zm-29.7 26.41c.22-.239.44-.479.68-.7 1.9-1.789 4.52-2.899 7.42-2.899h14.63c.22 0 .43.01.64.02.24.011.48.03.71.061.17.02.33.05.5.069.97.171 1.89.45 2.75.851.13.06.27.13.4.2.59.3 1.15.66 1.67 1.06.1.08.2.15.29.23.53.449 1.02.939 1.45 1.489.15.2.3.4.44.61.02.021.03.03.03.05.12.181.24.36.34.54.11.19.21.38.3.58.05.09.1.19.14.29.11.24.21.49.3.75.08.22.15.45.21.69.07.229.12.479.17.72l.03.18c.04.23.06.46.08.69.03.27.04.54.04.819 0 2.04-.66 3.95-1.79 5.53-1.89 2.63-5.08 4.36-8.7 4.36h-14.63c-3.8 0-7.13-1.91-8.97-4.76a9.5 9.5 0 0 1 -1.52-5.131c0-2.389.9-4.589 2.39-6.299zm31.14 24.66c1.3 1.65 2.08 3.7 2.08 5.92s-.78 4.26-2.08 5.91c-1.92 2.41-4.97 3.97-8.41 3.97h-14.63c-3.62 0-6.81-1.729-8.7-4.35a9.46 9.46 0 0 1 -1.79-5.53c0-2.39.9-4.59 2.39-6.3.22-.24.44-.48.68-.7 1.9-1.79 4.52-2.899 7.42-2.899h14.63c3.44-.001 6.49 1.559 8.41 3.979zm-1.11 24.5c1.49 1.71 2.39 3.91 2.39 6.3 0 2.051-.66 3.95-1.79 5.53-1.88 2.62-5.07 4.35-8.7 4.35h-14.63c-3.62 0-6.81-1.729-8.7-4.35a9.457 9.457 0 0 1 -1.79-5.53c0-2.39.9-4.59 2.39-6.3.22-.24.44-.479.68-.7 1.9-1.79 4.52-2.89 7.42-2.89h14.63c3.26 0 6.17 1.4 8.1 3.59zm-.55 24.8c1.49 1.71 2.39 3.9 2.39 6.29 0 4.62-3.35 8.49-7.87 9.59h-.02c-.83.2-1.7.311-2.6.311h-14.64c-1.64 0-3.19-.351-4.57-.99h-.01c-1.84-.84-3.37-2.17-4.41-3.81-.2-.301-.38-.62-.54-.94a9.523 9.523 0 0 1 -.96-4.16l3.07-6.989c1.9-1.79 4.52-2.9 7.42-2.9h14.64c3.26-.002 6.17 1.398 8.1 3.598zm37.43-483.39a9.445 9.445 0 0 1 1.81 5.55c0 5.47-4.7 9.89-10.49 9.89h-14.64c-5.79 0-10.49-4.42-10.49-9.89 0-2.73 1.18-5.2 3.07-6.99.36-.33.74-.64 1.14-.93.01 0 .01-.01.01-.01a10.97 10.97 0 0 1 6.27-1.95h14.64c.18 0 .36 0 .54.01 3.39.16 6.35 1.84 8.14 4.32zm-.27 23.92c1.3 1.64 2.08 3.69 2.08 5.91 0 2.73-1.18 5.2-3.069 6.99-1.9 1.79-4.53 2.9-7.42 2.9h-14.64c-3.44 0-6.49-1.56-8.41-3.98-1.3-1.65-2.08-3.69-2.08-5.91l1.79-5.53c.38-.52.81-1.01 1.28-1.46 1.9-1.79 4.53-2.9 7.42-2.9h14.64c3.439 0 6.489 1.56 8.409 3.98zm-32.54 25.26c.38-.52.8-1.01 1.28-1.46 1.9-1.79 4.52-2.9 7.42-2.9h14.63c5.79 0 10.5 4.43 10.5 9.89 0 2.56-1.029 4.89-2.729 6.65-1.92 1.99-4.69 3.24-7.771 3.24h-14.63c-3.44 0-6.49-1.56-8.41-3.98-1.31-1.65-2.09-3.69-2.09-5.91zm-.56 24.8c.38-.52.8-1.01 1.28-1.46 1.9-1.79 4.53-2.9 7.43-2.9h14.62c5.8 0 10.49 4.43 10.49 9.89 0 2.56-1.03 4.89-2.721 6.65-1.92 1.99-4.689 3.24-7.77 3.24h-14.62c-3.44 0-6.5-1.56-8.42-3.98-1.31-1.65-2.08-3.69-2.08-5.91zm32.62 24.64c1.5 1.71 2.399 3.9 2.399 6.29 0 2.56-1.029 4.89-2.729 6.65-1.92 1.99-4.69 3.24-7.77 3.24h-14.62c-3.44 0-6.5-1.56-8.41-3.98-1.31-1.65-2.09-3.69-2.09-5.91 0-2.73 1.18-5.2 3.08-6.99s4.52-2.9 7.42-2.9h14.62c3.26 0 6.18 1.4 8.1 3.6zm.31 24.65c1.311 1.65 2.09 3.7 2.09 5.92 0 2.55-1.029 4.89-2.729 6.65-1.92 1.99-4.69 3.24-7.77 3.24h-14.62c-3.44 0-6.5-1.57-8.41-3.98-1.31-1.65-2.09-3.69-2.09-5.91l1.8-5.53c.38-.53.8-1.02 1.28-1.47 1.9-1.79 4.52-2.9 7.42-2.9h14.62c3.439 0 6.499 1.57 8.409 3.98zm-32.53 25.27c.38-.53.8-1.02 1.28-1.47 1.9-1.79 4.53-2.9 7.43-2.9h14.62c5.8 0 10.5 4.44 10.5 9.9 0 2.55-1.029 4.89-2.72 6.65-1.93 1.99-4.7 3.24-7.78 3.24h-14.62c-3.44 0-6.5-1.57-8.42-3.98-1.31-1.65-2.08-3.69-2.08-5.91zm-.56 24.79c.38-.52.8-1.01 1.28-1.46 1.9-1.79 4.52-2.9 7.42-2.9h14.63c5.79 0 10.5 4.43 10.5 9.89 0 2.56-1.03 4.89-2.73 6.65-1.92 1.99-4.689 3.24-7.77 3.24h-14.63c-3.44 0-6.49-1.56-8.41-3.98-1.31-1.65-2.08-3.69-2.08-5.91zm31.59 24c1.49 1.71 2.391 3.9 2.391 6.29 0 2.56-1.03 4.9-2.721 6.66-1.92 1.99-4.689 3.24-7.77 3.24h-14.62c-3.44 0-6.5-1.56-8.42-3.98a9.456 9.456 0 0 1 -2.08-5.92l1.79-5.53c.38-.52.8-1.01 1.28-1.46 1.9-1.79 4.53-2.9 7.43-2.9h14.62c3.26 0 6.17 1.4 8.1 3.6zm.31 24.65a9.477 9.477 0 0 1 2.08 5.92c0 2.56-1.03 4.9-2.721 6.66-1.92 1.99-4.689 3.24-7.77 3.24h-14.62c-3.44 0-6.5-1.56-8.42-3.98a9.456 9.456 0 0 1 -2.08-5.92l1.79-5.54c.38-.52.8-1.01 1.28-1.46 1.9-1.78 4.53-2.89 7.43-2.89h14.62c3.441 0 6.501 1.56 8.411 3.97zm-32.23 24.89c.3-.38.63-.74.99-1.08 1.9-1.79 4.52-2.89 7.42-2.89h14.62c5.8 0 10.49 4.42 10.49 9.89 0 2.56-1.03 4.89-2.721 6.65-1.92 1.99-4.689 3.24-7.77 3.24h-14.62c-3.44 0-6.5-1.56-8.41-3.98-1.31-1.65-2.09-3.69-2.09-5.91zm-.86 25.18c.38-.52.81-1.01 1.28-1.46 1.9-1.79 4.53-2.89 7.42-2.89h14.63c5.79 0 10.49 4.42 10.49 9.88 0 2.56-1.03 4.9-2.72 6.66-1.93 1.98-4.69 3.23-7.77 3.23h-14.63c-3.44 0-6.49-1.56-8.41-3.97-1.3-1.65-2.08-3.69-2.08-5.92zm32.86 23.93c1.5 1.711 2.4 3.91 2.4 6.29 0 2.561-1.03 4.9-2.73 6.66-1.92 1.99-4.689 3.24-7.77 3.24h-14.63c-3.44 0-6.49-1.56-8.41-3.979a9.477 9.477 0 0 1 -2.08-5.921c0-2.729 1.17-5.199 3.07-6.989s4.52-2.9 7.42-2.9h14.63c3.26-.001 6.17 1.399 8.1 3.599zm.31 24.65c1.31 1.65 2.09 3.69 2.09 5.91 0 2.56-1.03 4.9-2.73 6.66-1.92 1.99-4.689 3.24-7.77 3.24h-14.63c-3.26 0-6.17-1.4-8.1-3.601-1.49-1.71-2.39-3.899-2.39-6.3l1.79-5.53c.38-.52.8-1.01 1.28-1.46 1.9-1.79 4.52-2.89 7.42-2.89h14.63c3.44.001 6.49 1.561 8.41 3.971zm-32.53 25.26c.38-.52.81-1.01 1.28-1.46 1.9-1.79 4.52-2.899 7.42-2.899h14.62c5.81 0 10.5 4.43 10.5 9.89 0 2.56-1.03 4.9-2.721 6.66-1.92 1.99-4.689 3.24-7.78 3.24h-14.62c-3.26 0-6.17-1.4-8.1-3.601-1.49-1.71-2.39-3.899-2.39-6.3zm-.27 24.42c.31-.38.64-.739.99-1.08 1.9-1.789 4.53-2.89 7.42-2.89h14.63c5.79 0 10.5 4.42 10.5 9.89 0 2.561-1.029 4.891-2.729 6.65-1.92 1.98-4.69 3.23-7.77 3.23h-14.63c-3.44 0-6.49-1.561-8.41-3.971-1.3-1.649-2.08-3.689-2.08-5.91zm34.64 31.81c.01.17.01.34.01.51 0 .32-.021.64-.05.95a3.6 3.6 0 0 1 -.061.47c0 .021 0 .04-.01.061-.02.13-.04.26-.07.39-.09.46-.22.91-.369 1.34-.061.15-.11.29-.171.42-.119.28-.25.561-.39.82-.06.13-.13.25-.2.37-.149.25-.31.49-.47.71a12.568 12.568 0 0 1 -.93 1.13c-.801.82-1.73 1.51-2.771 2.04-.149.08-.3.149-.45.22a6.03 6.03 0 0 1 -.47.2c-.149.06-.3.12-.45.17-.449.16-.92.29-1.39.38-.18.04-.36.07-.54.101-.18.029-.37.05-.56.069-.37.04-.75.061-1.14.061h-14.63c-.2 0-.41-.011-.61-.021-.71-.04-1.41-.14-2.08-.31-.14-.04-.28-.07-.42-.12-.17-.04-.33-.09-.49-.15-.48-.17-.95-.37-1.39-.59-.15-.08-.3-.16-.44-.24-.15-.08-.29-.17-.43-.26-.37-.229-.72-.49-1.05-.76-.11-.09-.21-.18-.31-.26-.31-.29-.61-.58-.88-.891-.22-.26-.43-.52-.61-.79a6.52 6.52 0 0 1 -.32-.47c-.07-.1-.13-.21-.19-.31-.08-.141-.16-.28-.23-.42-.07-.15-.14-.29-.2-.431a4.84 4.84 0 0 1 -.21-.47c-.05-.15-.11-.3-.16-.45a7.64 7.64 0 0 1 -.35-1.43 8.581 8.581 0 0 1 -.11-1c-.01-.16-.02-.32-.02-.48v-.029-.021c0-2.729 1.18-5.189 3.08-6.979s4.53-2.9 7.42-2.9h14.63c.77 0 1.52.08 2.24.229.15.03.3.061.45.101.319.08.64.17.939.28.11.04.23.08.33.119.16.061.311.12.46.19a10.545 10.545 0 0 1 3.491 2.469c.11.12.21.23.31.351.301.359.58.75.83 1.149.08.11.15.23.21.351.091.149.171.31.25.47.07.13.131.26.181.39.029.051.05.101.069.16.061.141.12.28.171.431.109.289.199.579.27.869.04.15.07.301.1.45.07.3.11.601.141.92.02.141.03.291.04.441zm-2.07 18.88c1.3 1.64 2.08 3.69 2.08 5.91 0 2.56-1.03 4.899-2.72 6.66-1.931 1.979-4.69 3.229-7.771 3.229h-14.63c-3.26 0-6.17-1.399-8.1-3.59-1.5-1.71-2.4-3.91-2.4-6.3l1.8-5.53c.37-.52.81-1.01 1.28-1.46 1.9-1.79 4.53-2.9 7.42-2.9h14.63c3.441.001 6.491 1.561 8.411 3.981zm-32.54 25.26c.38-.52.81-1.01 1.28-1.46 1.9-1.79 4.53-2.899 7.42-2.899h14.64c5.78 0 10.49 4.43 10.49 9.89 0 2.56-1.03 4.89-2.73 6.66-1.92 1.99-4.689 3.24-7.76 3.24h-14.64c-3.44 0-6.49-1.57-8.41-3.98-1.3-1.65-2.08-3.7-2.08-5.92zm-.26 24.41c.3-.38.63-.74.99-1.08 1.9-1.79 4.52-2.89 7.42-2.89h14.62c5.8 0 10.5 4.42 10.5 9.89 0 2.561-1.03 4.89-2.73 6.65-1.92 1.979-4.69 3.229-7.77 3.229h-14.62c-3.44 0-6.5-1.56-8.41-3.97-1.31-1.65-2.09-3.69-2.09-5.91zm60.9-462.62c5.33.47 9.511 4.7 9.511 9.85 0 3.48-1.91 6.54-4.79 8.3-.42.26-.851.48-1.3.67-1.341.59-2.83.92-4.4.92h-14.631c-3.44 0-6.49-1.56-8.41-3.98a9.436 9.436 0 0 1 -2.09-5.91l3.08-6.99c1.899-1.79 4.52-2.9 7.42-2.9h14.63c.33 0 .66.01.98.04zm-24.84 29.41c.49-.84 1.101-1.61 1.811-2.28 1.899-1.79 4.52-2.9 7.42-2.9h14.63c4.52 0 8.38 2.7 9.85 6.49.051.13.101.27.15.4.31.95.49 1.96.49 3 0 1.68-.45 3.27-1.24 4.65a9.89 9.89 0 0 1 -2.24 2.71c-1.859 1.57-4.32 2.53-7.01 2.53h-14.631c-5.79 0-10.5-4.43-10.5-9.89 0-1.71.46-3.31 1.27-4.71zm32.16 34.51c-.47.78-1.06 1.5-1.729 2.12-1.891 1.77-4.49 2.85-7.36 2.85h-14.63c-5.8 0-10.49-4.42-10.49-9.89l1.521-5.13c.43-.67.96-1.3 1.55-1.86 1.899-1.78 4.52-2.89 7.42-2.89h14.63c3.26 0 6.17 1.4 8.09 3.59 1.49 1.71 2.39 3.9 2.39 6.29 0 1.78-.5 3.45-1.369 4.89m-1.573 13.62c1.5 1.71 2.4 3.9 2.4 6.29s-.9 4.58-2.4 6.29c-1.93 2.2-4.84 3.6-8.1 3.6h-14.63c-3.08 0-5.84-1.25-7.77-3.24-1.69-1.76-2.72-4.09-2.72-6.65l1.52-5.13c.44-.67.96-1.3 1.55-1.86 1.9-1.79 4.53-2.9 7.42-2.9h14.631c3.259 0 6.169 1.4 8.099 3.6zm1.2 25.4c1.5 1.71 2.399 3.9 2.399 6.29 0 1.81-.52 3.52-1.43 4.98-.32.52-.69 1.01-1.09 1.46-1.94 2.11-4.8 3.45-7.99 3.45h-14.62c-3.439 0-6.5-1.56-8.41-3.97a9.477 9.477 0 0 1 -2.08-5.92l1.521-5.13c.43-.67.96-1.3 1.55-1.86 1.9-1.79 4.521-2.9 7.42-2.9h14.62c3.26 0 6.18 1.4 8.11 3.6zm0 24.27c1.5 1.71 2.399 3.91 2.399 6.3 0 1.66-.439 3.23-1.21 4.6a9.89 9.89 0 0 1 -2.319 2.79 10.878 10.878 0 0 1 -6.98 2.5h-14.62c-5.8 0-10.49-4.43-10.49-9.89l1.521-5.13c.43-.68.96-1.31 1.55-1.87 1.9-1.79 4.521-2.89 7.42-2.89h14.62c3.259 0 6.179 1.4 8.109 3.59zm-.8 24.89c1.5 1.71 2.399 3.9 2.399 6.29 0 1.77-.5 3.43-1.36 4.87-.489.81-1.09 1.54-1.779 2.18-1.891 1.76-4.5 2.84-7.351 2.84h-14.64c-5.79 0-10.49-4.43-10.49-9.89l1.521-5.13c.439-.67.96-1.3 1.55-1.86 1.9-1.79 4.53-2.9 7.42-2.9h14.64c3.26 0 6.17 1.4 8.09 3.6zm-.57 24.79c1.49 1.71 2.39 3.9 2.39 6.29 0 2.22-.77 4.27-2.08 5.92-1.91 2.42-4.96 3.98-8.399 3.98h-14.621c-3.45 0-6.5-1.56-8.42-3.98a9.47 9.47 0 0 1 -2.08-5.92l1.52-5.13c.431-.67.96-1.3 1.55-1.86 1.9-1.79 4.53-2.9 7.431-2.9h14.62c3.259 0 6.169 1.4 8.089 3.6zm.17 24.77c1.5 1.71 2.4 3.9 2.4 6.29 0 1.8-.521 3.49-1.421 4.95-.31.52-.68 1.01-1.09 1.46-1.92 2.13-4.79 3.48-7.989 3.48h-14.62c-3.44 0-6.5-1.56-8.41-3.98a9.43 9.43 0 0 1 -2.09-5.91l1.52-5.13c.44-.67.97-1.3 1.561-1.86 1.899-1.79 4.52-2.9 7.42-2.9h14.62c3.259 0 6.179 1.4 8.099 3.6zm0 24.27c1.5 1.71 2.4 3.9 2.4 6.29 0 1.66-.431 3.23-1.2 4.6a10.06 10.06 0 0 1 -2.34 2.82c-1.851 1.55-4.29 2.49-6.96 2.49h-14.62c-5.801 0-10.5-4.43-10.5-9.91l1.52-5.13c.44-.67.97-1.3 1.561-1.86 1.899-1.79 4.52-2.89 7.42-2.89h14.62c3.259 0 6.179 1.4 8.099 3.59zm-.79 24.89c1.49 1.71 2.39 3.91 2.39 6.3 0 1.76-.489 3.42-1.35 4.85-.48.81-1.08 1.55-1.78 2.19-1.88 1.76-4.479 2.85-7.35 2.85h-14.64c-5.79 0-10.489-4.43-10.489-9.89l1.52-5.14c.43-.67.96-1.3 1.55-1.86 1.9-1.78 4.521-2.89 7.42-2.89h14.639c3.26 0 6.17 1.4 8.09 3.59zm-.56 24.79c1.489 1.71 2.39 3.91 2.39 6.3a9.478 9.478 0 0 1 -2.08 5.92c-1.92 2.42-4.97 3.98-8.42 3.98h-14.62c-3.44 0-6.5-1.561-8.41-3.98a9.472 9.472 0 0 1 -2.08-5.92l1.521-5.13c.43-.68.96-1.31 1.55-1.87 1.9-1.79 4.52-2.89 7.42-2.89h14.62c3.269 0 6.179 1.4 8.109 3.59zm1.43 24.7c1.49 1.71 2.39 3.899 2.39 6.29 0 1.8-.51 3.49-1.399 4.939-.32.53-.7 1.03-1.12 1.49-1.92 2.11-4.78 3.45-7.971 3.45h-14.63c-3.439 0-6.5-1.56-8.41-3.97-1.31-1.65-2.079-3.69-2.079-5.91l1.52-5.13c.43-.67.96-1.3 1.55-1.86 1.9-1.79 4.521-2.9 7.42-2.9h14.63c3.259.001 6.169 1.401 8.099 3.601zm0 24.27c1.49 1.71 2.39 3.91 2.39 6.301 0 1.649-.42 3.199-1.18 4.56-.601 1.08-1.4 2.04-2.36 2.85-1.85 1.54-4.279 2.471-6.95 2.471h-14.63c-5.8 0-10.489-4.42-10.489-9.88l1.52-5.141c.43-.67.96-1.3 1.55-1.859 1.9-1.78 4.521-2.891 7.42-2.891h14.63c3.259-.001 6.169 1.399 8.099 3.589zm-.79 24.88c1.49 1.711 2.39 3.9 2.39 6.29 0 1.761-.49 3.421-1.34 4.851-.49.82-1.1 1.56-1.8 2.21-1.89 1.76-4.5 2.84-7.36 2.84h-14.62c-5.8 0-10.489-4.43-10.489-9.9l1.52-5.13c.43-.68.96-1.3 1.55-1.859 1.9-1.79 4.521-2.891 7.42-2.891h14.62c3.269-.001 6.179 1.399 8.109 3.589zm-.57 24.79c1.5 1.721 2.4 3.91 2.4 6.301 0 2.56-1.03 4.89-2.72 6.649-1.931 1.99-4.69 3.24-7.771 3.24h-14.63c-.39 0-.771-.02-1.14-.06-.19-.021-.381-.04-.561-.07-.14-.021-.28-.04-.42-.07l-.43-.09c-.37-.09-.73-.2-1.08-.32-.15-.05-.3-.109-.45-.17-.16-.06-.32-.13-.47-.2a9.49 9.49 0 0 1 -1.379-.75c-.12-.079-.23-.159-.351-.239-.3-.21-.59-.431-.859-.67a8.744 8.744 0 0 1 -.631-.601 13.96 13.96 0 0 1 -.47-.529c-.06-.07-.109-.141-.17-.211-.18-.22-.34-.449-.5-.68-.11-.17-.22-.34-.32-.52a9.145 9.145 0 0 1 -1-2.48c-.029-.12-.06-.24-.08-.359a7.4 7.4 0 0 1 -.079-.461 3.6 3.6 0 0 1 -.061-.46c-.03-.31-.05-.63-.05-.949l1.52-5.13c.44-.681.971-1.311 1.561-1.87 1.899-1.79 4.52-2.9 7.42-2.9h14.63c3.261-.001 6.171 1.399 8.091 3.599zm1.12 26.43c1.5 1.71 2.4 3.899 2.4 6.279a9.45 9.45 0 0 1 -1.42 4.971c-.311.51-.681 1-1.091 1.45-1.92 2.13-4.779 3.479-7.979 3.479h-14.63c-3.44 0-6.5-1.56-8.41-3.979-1.31-1.65-2.09-3.7-2.09-5.921l3.08-6.979c1.899-1.79 4.52-2.9 7.42-2.9h14.63c3.26 0 6.17 1.4 8.09 3.6zm0 24.26c1.5 1.71 2.4 3.91 2.4 6.3 0 1.66-.431 3.22-1.2 4.59a9.945 9.945 0 0 1 -2.34 2.83c-1.851 1.54-4.29 2.48-6.95 2.48h-14.63c-5.8 0-10.5-4.431-10.5-9.9l1.52-5.14c.44-.67.971-1.3 1.561-1.86 1.899-1.78 4.52-2.89 7.42-2.89h14.63c3.259 0 6.169 1.4 8.089 3.59zm-.79 24.89c1.5 1.71 2.4 3.9 2.4 6.28 0 1.76-.49 3.42-1.36 4.86a9.482 9.482 0 0 1 -1.77 2.18c-1.9 1.771-4.511 2.86-7.37 2.86h-14.63c-5.801 0-10.49-4.431-10.49-9.9l1.52-5.12c.431-.68.96-1.3 1.551-1.859 1.899-1.79 4.52-2.9 7.42-2.9h14.63c3.259-.001 6.169 1.399 8.099 3.599zm-.55 24.79c1.49 1.71 2.39 3.91 2.39 6.301 0 5.46-4.7 9.89-10.489 9.89h-14.631c-.18 0-.359 0-.54-.01-5.55-.271-9.96-4.591-9.96-9.88l1.521-5.141c.43-.67.96-1.3 1.55-1.859 1.9-1.78 4.53-2.891 7.43-2.891h14.631c3.258 0 6.168 1.4 8.098 3.59z" stroke-width="6.237"/><path d="m476.1 205.09c-3.26 0-6.17-1.4-8.1-3.59-1.49-1.71-2.39-3.91-2.39-6.3 0-1.67.439-3.25 1.229-4.63.17-.31.36-.6.561-.89a9.97 9.97 0 0 1 1.68-1.82c.86-.74 1.84-1.34 2.92-1.77m7.09 43.8h-3.55c-3.26 0-6.17-1.4-8.1-3.6-1.5-1.71-2.4-3.9-2.4-6.29 0-1.77.5-3.43 1.36-4.87.47-.78 1.05-1.49 1.72-2.12h.01c.01-.02.01-.02.021-.03 1.899-1.77 4.51-2.87 7.39-2.87m7.179 45.18h-5.979c-3.26 0-6.181-1.4-8.101-3.6-1.5-1.71-2.399-3.9-2.399-6.29l2.09-5.91c.3-.38.63-.74.99-1.08 1.899-1.79 4.52-2.9 7.42-2.9h3.38m5.089 19.78h-2.49m2.6 24.28h-8.58c-3.26 0-6.181-1.4-8.101-3.6-1.5-1.71-2.399-3.91-2.399-6.29 0-1.8.52-3.49 1.42-4.95.31-.52.68-1.01 1.09-1.46.18-.2.37-.39.57-.58 1.899-1.79 4.52-2.9 7.42-2.9h6.5m12.82 43.19a10.79 10.79 0 0 1 -5.159 1.46c-.11.01-.221.01-.33.01h-14.63c-3.261 0-6.171-1.4-8.101-3.6-1.5-1.71-2.399-3.9-2.399-6.29 0-1.66.439-3.23 1.21-4.6.489-.88 1.13-1.69 1.869-2.39.15-.14.301-.27.45-.4 1.851-1.55 4.29-2.5 6.971-2.5h14.63c1.31 0 2.56.23 3.72.64m3.179 41.01a10.606 10.606 0 0 1 -3.89 2.34c-1.11.38-2.311.59-3.561.59h-14.619c-3.271 0-6.19-1.4-8.11-3.6-1.5-1.72-2.4-3.91-2.4-6.3 0-1.76.49-3.42 1.351-4.85.47-.79 1.05-1.51 1.729-2.14.021-.02.03-.03.05-.04 1.9-1.77 4.511-2.86 7.381-2.86h14.619c.49 0 .971.03 1.45.1.86.11 1.7.33 2.48.63m2.14 42.1a10.977 10.977 0 0 1 -5.92 1.72h-14.63c-3.26 0-6.17-1.4-8.1-3.6-1.49-1.71-2.391-3.91-2.391-6.3l2.08-5.91c.3-.38.63-.74.99-1.08 1.899-1.78 4.52-2.89 7.42-2.89h14.63c1.44 0 2.82.27 4.07.77m.951 42.09c-1.49.76-3.2 1.2-5.021 1.2h-14.63c-3.26 0-6.17-1.4-8.1-3.6-1.49-1.71-2.391-3.91-2.391-6.3 0-1.81.521-3.51 1.42-4.97.32-.52.69-1.01 1.09-1.46.181-.19.37-.38.561-.56 1.899-1.79 4.52-2.9 7.42-2.9h14.63c2.59 0 4.96.88 6.8 2.36.011 0 .011 0 .021.01m-1.81 40.65a10.944 10.944 0 0 1 -5.8 1.65h-14.64c-3.26 0-6.17-1.4-8.101-3.59-1.489-1.71-2.39-3.91-2.39-6.3 0-1.65.43-3.21 1.19-4.58a10.174 10.174 0 0 1 2.34-2.82c1.85-1.55 4.29-2.49 6.96-2.49h14.64c2.8 0 5.351 1.04 7.24 2.73" stroke-width="6.237"/><path d="m496.62 386.12c1.75 1.58 2.93 3.72 3.2 6.12.04.34.06.69.06 1.04 0 1.72-.47 3.34-1.29 4.75s-1.99 2.61-3.41 3.49m3.18 12.43c.529 1.1.859 2.3.93 3.58.01.18.02.37.02.55 0 2.73-1.17 5.2-3.069 6.99-1.9 1.791-4.521 2.89-7.42 2.89h-14.621c-3.26 0-6.181-1.4-8.101-3.59-1.5-1.71-2.399-3.9-2.399-6.29 0-1.77.49-3.43 1.35-4.86a9.933 9.933 0 0 1 1.73-2.14l.05-.05c1.9-1.75 4.5-2.84 7.37-2.84h14.62c4.24 0 7.88 2.36 9.54 5.76m-31.44 23.28c.38-.521.8-1.011 1.28-1.461 1.899-1.789 4.53-2.899 7.43-2.899h14.62c5.8 0 10.5 4.439 10.5 9.89 0 5.471-4.7 9.891-10.5 9.891h-14.62c-3.26 0-6.18-1.4-8.11-3.591-1.489-1.71-2.39-3.909-2.39-6.3zm.73 23.37c.17-.189.359-.38.55-.56 1.899-1.78 4.53-2.89 7.43-2.89h14.62c5.8 0 10.5 4.42 10.5 9.88 0 5.47-4.7 9.899-10.5 9.899h-14.62c-3.26 0-6.18-1.399-8.11-3.6-1.489-1.71-2.39-3.91-2.39-6.3 0-1.8.51-3.49 1.4-4.94.32-.529.7-1.029 1.12-1.489zm.22 23.9c1.85-1.53 4.28-2.47 6.95-2.47h14.63c5.81 0 10.51 4.42 10.51 9.89 0 5.46-4.7 9.89-10.51 9.89h-14.63c-3.261 0-6.17-1.399-8.101-3.6-1.489-1.71-2.39-3.9-2.39-6.29 0-1.65.43-3.21 1.18-4.57a10.143 10.143 0 0 1 2.361-2.85zm-.95 25.16c1.89-1.76 4.49-2.83 7.34-2.83h14.63c5.79 0 10.5 4.41 10.5 9.88s-4.71 9.89-10.5 9.89h-14.63c-3.25 0-6.16-1.399-8.08-3.59-1.5-1.71-2.399-3.91-2.399-6.3 0-1.76.489-3.41 1.34-4.84a9.96 9.96 0 0 1 1.729-2.15c.02-.02.05-.04.07-.06zm.7 26.82c.11-.11.229-.23.35-.341 1.9-1.8 4.53-2.909 7.431-2.909h14.619c5.801 0 10.48 4.449 10.48 9.899s-4.68 9.89-10.48 9.89h-14.62c-3.271 0-6.19-1.399-8.11-3.6-.36-.42-.69-.86-.98-1.32-.14-.239-.279-.479-.399-.72-.09-.18-.17-.35-.25-.54-.05-.1-.09-.2-.13-.31a6.94 6.94 0 0 1 -.19-.54 2.34 2.34 0 0 1 -.08-.28c-.05-.16-.1-.32-.12-.479-.04-.11-.06-.211-.069-.32-.011-.01-.021-.021-.011-.03a5.806 5.806 0 0 1 -.1-.59c-.03-.271-.06-.54-.06-.81-.011-.04-.011-.07-.011-.11v-.24zm-.22 24.51c.18-.2.369-.391.569-.58 1.9-1.79 4.53-2.9 7.431-2.9h14.619c5.801 0 10.48 4.431 10.48 9.9 0 5.45-4.68 9.89-10.48 9.89h-14.619c-3.271 0-6.19-1.399-8.11-3.6-1.5-1.71-2.4-3.91-2.4-6.29 0-1.811.511-3.51 1.42-4.97.32-.52.68-1 1.09-1.45zm.22 23.9c1.85-1.55 4.29-2.5 6.97-2.5h14.62c5.81 0 10.51 4.431 10.51 9.9 0 5.46-4.7 9.88-10.51 9.88h-14.62c-3.26 0-6.17-1.4-8.1-3.59-1.49-1.71-2.391-3.9-2.391-6.29 0-1.65.431-3.2 1.181-4.57.5-.899 1.14-1.72 1.89-2.43.15-.14.3-.27.45-.4zm15.63 42.08h-9.219c-3.261 0-6.17-1.399-8.09-3.6-1.5-1.71-2.4-3.9-2.4-6.29 0-1.771.5-3.43 1.36-4.87.47-.78 1.05-1.49 1.71-2.12l.06-.06c1.89-1.75 4.5-2.84 7.36-2.84h14.63c2.6 0 4.979.89 6.82 2.38" stroke-width="6.237"/><path d="m402.56 530.3c8.71-.01 17.57-.42 26.22.33m-60.51 13.11h28.57m39.33-.67c8.84.01 17.66.34 26.561.34" stroke-width="5"/></g><path d="m0 0h850.394v850.394h-850.394z" fill="none"/></svg>