<svg height="850.394" viewBox="0 0 850.394 850.394" width="850.394" xmlns="http://www.w3.org/2000/svg"><path d="m744.47 287.8c51.24 2.79 69.95 50.14 33.931 87.46-32.471 33.61-23.761 18.25-83.57 62.971 0 0-77.55 54.979-198.33 102.449 0 0-149.74 57.391-233.42 42.431-87.241-15.601-118.271-16.811-178.031-67.221-40.19-33.899-41.69-65-2.94-91.09 38.75-26.08 33.51-28.14 111.95-68.79 72-37.31 154.74-62.1 154.74-62.1s107.8-35.03 215.19-32.48c107.37 2.55 129.24 23.57 180.48 26.37zm-193.64-21.27 38.71 49.91c-1.37-22.29-19.42-40.35-38.71-49.91zm-23.53 17.49 38.72 49.9c-1.37-22.27-19.43-40.34-38.72-49.9zm-156.78 217.71c.13-22.311-16.69-41.53-35.3-52.36zm-24.63 15.9c.11-22.33-16.7-41.55-35.31-52.37z" fill="#eb6b80"/><path d="m589.54 316.44-38.71-49.91c19.29 9.56 37.34 27.62 38.71 49.91zm-23.52 17.48-38.72-49.9c19.29 9.56 37.35 27.63 38.72 49.9zm-230.8 115.45c18.61 10.83 35.43 30.05 35.3 52.36zm-24.64 15.89c18.61 10.82 35.42 30.04 35.31 52.37z" fill="#fff"/><g fill="none"><path d="m348.8 293.91s107.8-35.03 215.19-32.48c107.37 2.55 129.24 23.57 180.48 26.37 51.24 2.79 69.95 50.14 33.931 87.46-32.471 33.61-23.761 18.25-83.57 62.971 0 0-77.55 54.979-198.33 102.449 0 0-149.74 57.391-233.42 42.431-87.241-15.601-118.271-16.811-178.031-67.221-40.19-33.899-41.69-65-2.94-91.09 38.75-26.08 33.51-28.14 111.95-68.79 72-37.31 154.74-62.1 154.74-62.1zm202.03-27.38c19.29 9.56 37.34 27.62 38.71 49.91m-62.24-32.42c19.29 9.56 37.351 27.63 38.72 49.9m-230.8 115.45c18.61 10.83 35.43 30.05 35.3 52.36m-59.94-36.47c18.61 10.82 35.42 30.04 35.31 52.37" stroke="#000" stroke-width="21.868"/><path d="m0 0h850.394v850.394h-850.394z"/></g></svg>