<svg height="850.394" viewBox="0 0 850.394 850.394" width="850.394" xmlns="http://www.w3.org/2000/svg"><path d="m350.959 404v229.87c0 6.74-2.1 12.87-5.55 17.521h-57.86c-3.45-4.65-5.55-10.78-5.55-17.521v-211.05h67.87v-18.82zm0-129.16v129.16h-68.959v-129.16c0-13.86 8.89-25.2 20.17-26.19.53-.06 1.07-.08 1.61-.08h25.4c.53 0 1.05.02 1.57.07 11.3.97 20.209 12.331 20.209 26.2z" fill="#fff5b4"/><path d="m282 404h67.87v18.82h-67.87z" fill="#231f20"/><path d="m333.439 651.391h11.97c-3.08 4.16-7.25 7.12-11.97 8.25z" fill="#fff"/><path d="m333.439 771.79v5.011h-33.92v-117.16c1.38.33 2.8.5 4.26.5h25.4c1.46 0 2.88-.17 4.26-.5z" fill="#fff5b4"/><path d="m333.439 653.57v6.07c-1.38.33-2.8.5-4.26.5h-25.4c-1.46 0-2.88-.17-4.26-.5v-8.25h33.92z" fill="#fff"/><path d="m331.26 188.771v54.73l-.51 5.14c-.52-.05-1.04-.07-1.57-.07h-25.4c-.54 0-1.08.02-1.61.08l-.27-2.74c-.13-.78-.2-1.59-.2-2.41v-54.73c0-8.17 6.62-14.78 14.78-14.78 4.08 0 7.78 1.65 10.45 4.33a14.742 14.742 0 0 1 4.33 10.45z" fill="#c8c8c8"/><path d="m299.52 653.57v6.07c-4.72-1.13-8.89-4.09-11.97-8.25h11.97z" fill="#fff"/><g fill="none" stroke="#231f20"><path d="m282 404v-129.16c0-13.86 8.89-25.2 20.17-26.19.53-.06 1.07-.08 1.61-.08h25.4c.53 0 1.05.02 1.57.07 11.3.97 20.21 12.33 20.21 26.2v359.03c0 6.74-2.1 12.87-5.55 17.521-3.08 4.16-7.25 7.12-11.97 8.25-1.38.33-2.8.5-4.26.5h-25.4c-1.46 0-2.88-.17-4.26-.5-4.72-1.13-8.89-4.09-11.97-8.25-3.45-4.65-5.55-10.78-5.55-17.521v-211.05" stroke-width="21"/><path d="m333.439 653.57v118.22m-33.919 0v-118.22" stroke-width="19.703"/><path d="m256.83 651.391h118.21m-13.13 125.41h-91.4" stroke-linecap="round" stroke-linejoin="round" stroke-width="28"/><path d="m301.899 245.911c-.13-.78-.2-1.59-.2-2.41v-54.73c0-8.17 6.62-14.78 14.78-14.78 4.08 0 7.78 1.65 10.45 4.33 2.67 2.67 4.33 6.37 4.33 10.45v54.73" stroke-width="21"/><g stroke-linecap="round" stroke-linejoin="round"><path d="m315.939 60.84v111.65" stroke-width="14"/><path d="m282 404h67.87v18.82h-67.87" stroke-width="13.135"/><path d="m282 422.82v-18.82" stroke-width="21"/></g></g><path d="m0 0h850.394v850.394h-850.394z" fill="none"/><path d="m759.212 151.069v31.762l-26.09 4.535v33.576l-29.036 5.898v-34.938l-27.452 4.992v-32.44l26.316-4.536v-31.534l28.587-4.54v31.535z" fill="#fff"/><path d="m745.437 68.262a45.35 45.35 0 0 1 1.438-.021c8.202 0 14.856 2.118 14.856 4.729 0 2.607-6.654 4.726-14.856 4.726-8.206 0-14.859-2.118-14.859-4.726 0-2.458 5.89-4.478 13.421-4.708z" fill="#231f20"/><path d="m624.879 101.56 181.694-20.323v167.949l-181.694 39.448zm134.333 81.271v-31.761l-27.675 4.31v-31.535l-28.587 4.54v31.534l-26.316 4.536v32.44l27.452-4.992v34.938l29.036-5.898v-33.576z" fill="#34a047"/><path d="m644.22 87.603c-8.206 0-14.86-2.118-14.86-4.729s6.654-4.726 14.86-4.726c.982 0 1.938.029 2.866.087 6.833.424 11.989 2.337 11.989 4.638 0 2.611-6.65 4.73-14.855 4.73z" fill="#231f20"/><path d="m745.437 68.262c-7.53.23-13.421 2.25-13.421 4.708 0 2.607 6.653 4.726 14.859 4.726 8.202 0 14.856-2.118 14.856-4.726 0-2.611-6.654-4.729-14.856-4.729-.485-.001-.968.006-1.438.021zm-116.078 14.612c0 2.611 6.654 4.729 14.86 4.729 8.205 0 14.855-2.118 14.855-4.729 0-2.301-5.156-4.214-11.989-4.638a45.217 45.217 0 0 0 -2.866-.087c-8.205-.001-14.86 2.113-14.86 4.725zm177.214-1.637-181.694 20.323v187.074l-39.419-46.621.143-170.483 67.779-6.175 85.171-7.757 16.024-1.46 52.68 23.573z" fill="#34a047"/><g fill="none" stroke="#231f20"><path d="m624.879 101.56v187.074m183.791-208.292-1.413-.631-52.68-23.573-16.024 1.46-85.171 7.757-67.779 6.175-.143 170.484 39.419 46.62 181.694-39.448v-167.949l-181.694 20.323-35.848-26.597" stroke-width="7.669"/><path d="m731.537 155.379v-31.535l-28.587 4.54v31.534l-26.316 4.536v32.44l27.452-4.992v34.938l29.036-5.898v-33.576l26.09-4.535v-31.762z" stroke-width="5.113"/><path d="m647.086 78.235 6.296-12.88 12.898-26.381 57.632-4.054 14.641 22.678 6.884 10.664" stroke-linecap="round" stroke-linejoin="round" stroke-width="15.338"/><path d="m659.075 82.874c0 2.611-6.65 4.729-14.855 4.729-8.206 0-14.86-2.118-14.86-4.729s6.654-4.726 14.86-4.726c.982 0 1.938.029 2.866.087 6.833.424 11.989 2.338 11.989 4.639zm102.656-9.905c0 2.607-6.654 4.726-14.856 4.726-8.206 0-14.859-2.118-14.859-4.726 0-2.458 5.891-4.477 13.421-4.708a45.35 45.35 0 0 1 1.438-.021c8.202 0 14.856 2.118 14.856 4.729z" stroke-width="2.701"/></g></svg>