<svg height="850.394" viewBox="0 0 850.394 850.394" width="850.394" xmlns="http://www.w3.org/2000/svg"><path d="m755.49 325.25v271.38c0 14.74-11.95 26.69-26.69 26.69h-637.26c-14.74 0-26.7-11.95-26.7-26.69v-271.38c0-14.74 11.96-26.69 26.7-26.69h637.26c14.74 0 26.69 11.95 26.69 26.69zm-81.18 226.89v-42.26c0-5.53-2.239-10.54-5.869-14.16a19.943 19.943 0 0 0 -14.15-5.859c-11.06 0-20.021 8.96-20.021 20.02v42.26c0 5.53 2.24 10.54 5.86 14.16 3.63 3.62 8.63 5.86 14.16 5.86 11.05-.001 20.02-8.961 20.02-20.021zm0-137.91v-42.26a19.95 19.95 0 0 0 -5.869-14.16 19.943 19.943 0 0 0 -14.15-5.86c-11.05 0-20.021 8.96-20.021 20.02v42.26c0 5.53 2.24 10.53 5.87 14.16 3.62 3.62 8.62 5.86 14.15 5.86 11.05 0 20.02-8.96 20.02-20.02zm-97.59 137.9v-42.26c0-5.53-2.239-10.53-5.87-14.15a19.926 19.926 0 0 0 -14.149-5.87c-11.061 0-20.021 8.971-20.021 20.021v42.26c0 5.53 2.24 10.54 5.86 14.16s8.63 5.86 14.16 5.86c11.05-.001 20.02-8.951 20.02-20.021zm0-137.9v-42.27c0-5.52-2.239-10.53-5.87-14.15a19.926 19.926 0 0 0 -14.149-5.87c-11.05 0-20.021 8.97-20.021 20.02v42.27c0 5.53 2.24 10.53 5.87 14.15 3.62 3.63 8.63 5.87 14.15 5.87 11.05 0 20.02-8.97 20.02-20.02zm-97.6 138.46v-42.26c0-5.529-2.24-10.529-5.86-14.16a19.946 19.946 0 0 0 -14.149-5.859c-11.061 0-20.021 8.96-20.021 20.02v42.261c0 5.529 2.24 10.529 5.86 14.159 3.63 3.62 8.63 5.86 14.16 5.86 11.05-.001 20.01-8.961 20.01-20.021zm0-137.91v-42.26c0-5.53-2.24-10.54-5.86-14.16a19.943 19.943 0 0 0 -14.149-5.86c-11.061 0-20.021 8.96-20.021 20.02v42.26c0 5.53 2.24 10.54 5.86 14.161a19.988 19.988 0 0 0 14.16 5.859c11.05 0 20.01-8.96 20.01-20.02zm-97.59 137.08v-42.26c0-5.529-2.24-10.54-5.86-14.159a19.985 19.985 0 0 0 -14.16-5.86c-11.06 0-20.02 8.96-20.02 20.02v42.261c0 5.529 2.24 10.54 5.86 14.159 3.63 3.62 8.63 5.86 14.16 5.86 11.06-.001 20.02-8.961 20.02-20.021zm0-137.91v-42.26c0-5.53-2.24-10.53-5.86-14.16a19.985 19.985 0 0 0 -14.16-5.86c-11.05 0-20.02 8.96-20.02 20.02v42.26c0 5.53 2.24 10.53 5.87 14.149a19.906 19.906 0 0 0 14.15 5.87c11.06.001 20.02-8.969 20.02-20.019zm-97.59 137.9v-42.26c0-5.53-2.24-10.53-5.87-14.149a19.924 19.924 0 0 0 -14.15-5.87c-11.06 0-20.02 8.97-20.02 20.02v42.26c0 5.53 2.24 10.54 5.86 14.16s8.63 5.86 14.16 5.86c11.05-.001 20.02-8.951 20.02-20.021zm0-137.9v-42.27c0-5.52-2.24-10.53-5.86-14.15a19.934 19.934 0 0 0 -14.16-5.87c-11.05 0-20.02 8.97-20.02 20.02v42.27c0 5.53 2.24 10.53 5.87 14.149 3.62 3.62 8.63 5.86 14.15 5.86 11.06.001 20.02-8.959 20.02-20.009zm-97.59 138.46v-42.26c0-5.53-2.24-10.53-5.87-14.16a19.943 19.943 0 0 0 -14.15-5.86c-11.06 0-20.02 8.96-20.02 20.021v42.26c0 5.53 2.24 10.53 5.86 14.16a19.984 19.984 0 0 0 14.16 5.859c11.05 0 20.02-8.96 20.02-20.02zm0-137.91v-42.26c0-5.53-2.24-10.54-5.87-14.16a19.943 19.943 0 0 0 -14.15-5.86c-11.06 0-20.02 8.96-20.02 20.02v42.26c0 5.53 2.24 10.54 5.86 14.16a19.984 19.984 0 0 0 14.16 5.859c11.05.001 20.02-8.959 20.02-20.019z" fill="#fff"/><path d="m687.65 750.65c11.06 0 20.02 8.97 20.02 20.02 0 5.53-2.24 10.53-5.86 14.16-3.63 3.62-8.63 5.86-14.159 5.86h-42.261c-11.05 0-20.01-8.96-20.01-20.021 0-5.53 2.24-10.53 5.86-14.15a19.91 19.91 0 0 1 14.149-5.869z" fill="#fbed24"/><path d="m674.31 509.88v42.26c0 11.061-8.97 20.021-20.02 20.021-5.53 0-10.53-2.24-14.16-5.86a19.967 19.967 0 0 1 -5.86-14.16v-42.26c0-11.06 8.961-20.02 20.021-20.02 5.53 0 10.53 2.239 14.15 5.859a19.937 19.937 0 0 1 5.869 14.16zm0-137.91v42.26c0 11.06-8.97 20.02-20.02 20.02-5.53 0-10.53-2.24-14.15-5.86a19.952 19.952 0 0 1 -5.87-14.16v-42.26c0-11.06 8.971-20.02 20.021-20.02 5.53 0 10.53 2.24 14.15 5.86a19.955 19.955 0 0 1 5.869 14.16z" fill="#fff5b4"/><path d="m614.81 675.58c11.051 0 20.011 8.97 20.011 20.02a19.96 19.96 0 0 1 -5.86 14.15 19.91 19.91 0 0 1 -14.15 5.87h-42.26c-11.069 0-20.02-8.97-20.02-20.021 0-5.52 2.239-10.529 5.859-14.149 3.62-3.63 8.63-5.87 14.16-5.87z" fill="#fbed24"/><path d="m576.72 509.87v42.26c0 11.07-8.97 20.021-20.02 20.021-5.53 0-10.54-2.24-14.16-5.86s-5.86-8.63-5.86-14.16v-42.26c0-11.05 8.96-20.021 20.021-20.021 5.52 0 10.53 2.24 14.149 5.87a19.91 19.91 0 0 1 5.87 14.15zm0-137.91v42.27c0 11.05-8.97 20.02-20.02 20.02-5.521 0-10.53-2.24-14.15-5.87a19.91 19.91 0 0 1 -5.87-14.15v-42.27c0-11.05 8.971-20.02 20.021-20.02 5.52 0 10.53 2.24 14.149 5.87 3.63 3.62 5.87 8.63 5.87 14.15zm-97.6 138.47v42.261c0 11.06-8.96 20.02-20.01 20.02-5.53 0-10.53-2.24-14.16-5.86-3.62-3.63-5.86-8.63-5.86-14.159v-42.262c0-11.06 8.96-20.02 20.021-20.02 5.529 0 10.529 2.24 14.149 5.859 3.62 3.631 5.86 8.631 5.86 14.161zm0-137.91v42.26c0 11.06-8.96 20.02-20.01 20.02-5.53 0-10.53-2.24-14.16-5.859a19.97 19.97 0 0 1 -5.86-14.161v-42.26c0-11.06 8.96-20.02 20.021-20.02 5.529 0 10.529 2.24 14.149 5.86s5.86 8.63 5.86 14.16zm-97.59 137.08v42.261c0 11.06-8.96 20.02-20.02 20.02-5.53 0-10.53-2.24-14.16-5.86a19.965 19.965 0 0 1 -5.86-14.159v-42.262c0-11.06 8.96-20.02 20.02-20.02 5.53 0 10.53 2.24 14.16 5.86 3.62 3.62 5.86 8.63 5.86 14.16zm0-137.91v42.26c0 11.05-8.96 20.02-20.02 20.02-5.53 0-10.53-2.239-14.15-5.87a19.91 19.91 0 0 1 -5.87-14.149v-42.26c0-11.06 8.97-20.02 20.02-20.02 5.53 0 10.53 2.24 14.16 5.86a19.98 19.98 0 0 1 5.86 14.159zm-97.59 137.9v42.26c0 11.07-8.97 20.021-20.02 20.021-5.53 0-10.54-2.24-14.16-5.86a19.967 19.967 0 0 1 -5.86-14.16v-42.26c0-11.05 8.96-20.02 20.02-20.02 5.52 0 10.53 2.239 14.15 5.87a19.906 19.906 0 0 1 5.87 14.149zm0-137.91v42.27c0 11.05-8.96 20.01-20.02 20.01-5.52 0-10.53-2.24-14.15-5.86a19.91 19.91 0 0 1 -5.87-14.149v-42.27c0-11.05 8.97-20.02 20.02-20.02 5.53 0 10.54 2.24 14.16 5.87a19.957 19.957 0 0 1 5.86 14.149zm-97.59 138.47v42.26c0 11.06-8.97 20.02-20.02 20.02-5.53 0-10.53-2.239-14.16-5.859a19.985 19.985 0 0 1 -5.86-14.16v-42.26c0-11.061 8.96-20.021 20.02-20.021 5.53 0 10.53 2.24 14.15 5.86 3.63 3.63 5.87 8.63 5.87 14.16zm0-137.91v42.26c0 11.06-8.97 20.02-20.02 20.02-5.53 0-10.53-2.239-14.16-5.859a19.967 19.967 0 0 1 -5.86-14.16v-42.26c0-11.06 8.96-20.02 20.02-20.02 5.53 0 10.53 2.24 14.15 5.86a19.93 19.93 0 0 1 5.87 14.159z" fill="#fff5b4"/><g fill="none" stroke="#231f20"><path d="m91.54 623.32c-14.74 0-26.7-11.95-26.7-26.69v-271.38c0-14.74 11.96-26.69 26.7-26.69h637.26c14.74 0 26.69 11.95 26.69 26.69v271.38c0 14.74-11.95 26.69-26.69 26.69z" stroke-width="21"/><path d="m186.35 414.5c0 11.06-8.97 20.02-20.02 20.02-5.53 0-10.53-2.239-14.16-5.859a19.967 19.967 0 0 1 -5.86-14.16v-42.26c0-11.06 8.96-20.02 20.02-20.02 5.53 0 10.53 2.24 14.15 5.86 3.63 3.62 5.87 8.63 5.87 14.16zm0 137.91c0 11.06-8.97 20.02-20.02 20.02-5.53 0-10.53-2.239-14.16-5.859a19.985 19.985 0 0 1 -5.86-14.16v-42.26c0-11.061 8.96-20.021 20.02-20.021 5.53 0 10.53 2.24 14.15 5.86 3.63 3.63 5.87 8.63 5.87 14.16zm97.59-138.46c0 11.05-8.96 20.01-20.02 20.01-5.52 0-10.53-2.24-14.15-5.86a19.91 19.91 0 0 1 -5.87-14.149v-42.27c0-11.05 8.97-20.02 20.02-20.02 5.53 0 10.54 2.24 14.16 5.87 3.62 3.62 5.86 8.63 5.86 14.15zm0 137.9c0 11.07-8.97 20.021-20.02 20.021-5.53 0-10.54-2.24-14.16-5.86a19.967 19.967 0 0 1 -5.86-14.16v-42.26c0-11.05 8.96-20.02 20.02-20.02 5.52 0 10.53 2.239 14.15 5.87a19.906 19.906 0 0 1 5.87 14.149zm97.59-137.9c0 11.05-8.96 20.02-20.02 20.02-5.53 0-10.53-2.239-14.15-5.87a19.91 19.91 0 0 1 -5.87-14.149v-42.26c0-11.06 8.97-20.02 20.02-20.02 5.53 0 10.53 2.24 14.16 5.86 3.62 3.63 5.86 8.63 5.86 14.16zm0 137.91c0 11.06-8.96 20.02-20.02 20.02-5.53 0-10.53-2.24-14.16-5.86a19.965 19.965 0 0 1 -5.86-14.159v-42.261c0-11.06 8.96-20.02 20.02-20.02 5.53 0 10.53 2.24 14.16 5.86a19.965 19.965 0 0 1 5.86 14.159zm263.86 238.83c-11.05 0-20.01-8.96-20.01-20.021 0-5.53 2.24-10.53 5.86-14.15a19.91 19.91 0 0 1 14.149-5.869h42.261c11.06 0 20.02 8.97 20.02 20.02 0 5.53-2.24 10.53-5.86 14.16-3.63 3.62-8.63 5.86-14.159 5.86zm-72.84-75.07c-11.069 0-20.02-8.97-20.02-20.021 0-5.52 2.239-10.529 5.859-14.149 3.62-3.63 8.63-5.87 14.16-5.87h42.26c11.051 0 20.011 8.97 20.011 20.02a19.96 19.96 0 0 1 -5.86 14.15 19.91 19.91 0 0 1 -14.15 5.87zm-93.43-300.84c0 11.06-8.96 20.02-20.01 20.02-5.53 0-10.53-2.24-14.16-5.859a19.97 19.97 0 0 1 -5.86-14.161v-42.26c0-11.06 8.96-20.02 20.021-20.02 5.529 0 10.529 2.24 14.149 5.86s5.86 8.63 5.86 14.16zm0 137.91c0 11.06-8.96 20.02-20.01 20.02-5.53 0-10.53-2.24-14.16-5.86-3.62-3.63-5.86-8.63-5.86-14.159v-42.261c0-11.06 8.96-20.02 20.021-20.02 5.529 0 10.529 2.24 14.149 5.859 3.62 3.631 5.86 8.631 5.86 14.16zm97.6-138.46c0 11.05-8.97 20.02-20.02 20.02-5.521 0-10.53-2.24-14.15-5.87a19.91 19.91 0 0 1 -5.87-14.15v-42.27c0-11.05 8.971-20.02 20.021-20.02 5.52 0 10.53 2.24 14.149 5.87a19.924 19.924 0 0 1 5.87 14.15zm0 137.9c0 11.07-8.97 20.021-20.02 20.021-5.53 0-10.54-2.24-14.16-5.86s-5.86-8.63-5.86-14.16v-42.26c0-11.05 8.96-20.021 20.021-20.021 5.52 0 10.53 2.24 14.149 5.87a19.906 19.906 0 0 1 5.87 14.15zm97.59-137.9c0 11.06-8.97 20.02-20.02 20.02-5.53 0-10.53-2.24-14.15-5.86a19.952 19.952 0 0 1 -5.87-14.16v-42.26c0-11.06 8.971-20.02 20.021-20.02 5.53 0 10.53 2.24 14.15 5.86a19.95 19.95 0 0 1 5.869 14.16zm0 137.91c0 11.061-8.97 20.021-20.02 20.021-5.53 0-10.53-2.24-14.16-5.86a19.967 19.967 0 0 1 -5.86-14.16v-42.26c0-11.06 8.961-20.02 20.021-20.02 5.53 0 10.53 2.239 14.15 5.859a19.933 19.933 0 0 1 5.869 14.16z" stroke-width="14"/></g><path d="m0 0h850.394v850.394h-850.394z" fill="none"/><path d="m802.837 74.411v146.824l-158.84 34.486v-163.543zm-41.404 88.815v-27.766l-24.193 3.767v-27.568l-24.991 3.968v27.568l-23.006 3.965v28.36l23.998-4.364v30.544l25.385-5.156v-29.353z" fill="#34a047"/><path d="m761.433 135.46v27.766l-22.808 3.965v29.352l-25.385 5.157v-30.544l-23.998 4.365v-28.36l23.006-3.966v-27.568l24.991-3.968v27.568z" fill="#fff"/><path d="m749.391 63.068c.411-.013.833-.019 1.258-.019 7.17 0 12.987 1.852 12.987 4.134 0 2.28-5.817 4.131-12.987 4.131-7.174 0-12.991-1.852-12.991-4.131-.001-2.148 5.149-3.914 11.733-4.115zm-85.98 8.719c5.973.37 10.48 2.043 10.48 4.055 0 2.283-5.813 4.134-12.987 4.134s-12.99-1.852-12.99-4.134 5.816-4.131 12.99-4.131c.86-.001 1.696.025 2.507.076z" fill="#231f20"/><path d="m749.391 63.068c-6.584.201-11.733 1.967-11.733 4.115 0 2.28 5.817 4.131 12.991 4.131 7.17 0 12.987-1.852 12.987-4.131 0-2.283-5.817-4.134-12.987-4.134-.425 0-.847.006-1.258.019zm-85.98 8.719a39.983 39.983 0 0 0 -2.507-.077c-7.174 0-12.99 1.849-12.99 4.131s5.816 4.134 12.99 4.134 12.987-1.852 12.987-4.134c.001-2.011-4.507-3.684-10.48-4.054zm-19.414 20.391v163.543l-34.461-40.756.124-149.04 59.255-5.398 74.457-6.781 14.009-1.277 46.054 20.608-.598 1.334z" fill="#34a047"/><g fill="none" stroke="#231f20"><path d="m643.997 92.178v163.543m160.673-182.092-1.235-.552-46.054-20.608-14.009 1.277-74.457 6.781-59.255 5.398-.124 149.04 34.461 40.756 158.84-34.486v-146.824l-158.84 17.767-31.339-23.252" stroke-width="6.704"/><path d="m737.239 139.227v-27.568l-24.991 3.968v27.568l-23.006 3.966v28.36l23.998-4.365v30.544l25.385-5.157v-29.352l22.808-3.965v-27.766z" stroke-width="4.47"/><path d="m663.411 71.787 5.504-11.26 11.276-23.064 50.382-3.543 12.799 19.826 6.019 9.322" stroke-linecap="round" stroke-linejoin="round" stroke-width="13.409"/><path d="m673.892 75.842c0 2.283-5.813 4.134-12.987 4.134s-12.99-1.852-12.99-4.134 5.816-4.131 12.99-4.131c.859 0 1.695.025 2.507.077 5.972.369 10.48 2.042 10.48 4.054zm89.744-8.659c0 2.28-5.817 4.131-12.987 4.131-7.174 0-12.991-1.852-12.991-4.131 0-2.148 5.149-3.914 11.733-4.115.411-.013.833-.019 1.258-.019 7.169 0 12.987 1.851 12.987 4.134z" stroke-width="2.362"/></g></svg>