<svg height="850.394" viewBox="0 0 850.394 850.394" width="850.394" xmlns="http://www.w3.org/2000/svg"><g fill="#cd82be"><path d="m209.27 514.8c-59.19-9.28-58.6-50.47-71.95-63.819-13.34-13.341-60.34-17.4-60.34-17.4l49.59-172.9 218.8 111.83-2.11 4.12-45.05 201.49-4.03-.9c0-.361-23.19-52.741-84.91-62.421z"/><path d="m348.69 374.21.52 232.34-52.13-23.38 1.13-5.05 45.05-201.49 2.11-4.12z"/><path d="m693.94 202.24-335.33 167.03-9.92 4.94-3.32-1.7-218.8-111.83v-4.16l397.16-121.16 171.87 58.77v11.4z"/><path d="m392.95 564.58.82 4.76-42.16 38.29-1.46-.65-.94-.43-.52-232.34 9.92-4.94.93 1.87z"/><path d="m695.6 205.53 77.61 153.78s-11.02 11.02-40.61 3.48c-11.229-2.86-22.46.13-33.27 7.35-17.69 11.8-34.28 34.91-47.96 62.27-22.04 44.09-104.44 82.39-161.29 82.39-53.84 0-93.12 45-97.13 49.78l-33.41-193.44-.93-1.87 335.33-167.03z"/></g><g fill="none"><g stroke="#231f20" stroke-width="21"><path d="m126.57 272.28v-15.76l397.16-121.16 171.87 58.77v16.65"/><path d="m126.57 260.68 218.8 111.83 3.32 1.7 9.92-4.94 335.33-167.03m-400.34 373.69c.38.92.58 1.33.58 1.29 0-.359-23.19-52.739-84.91-62.42-59.19-9.28-58.6-50.47-71.95-63.819-13.34-13.341-60.34-17.4-60.34-17.4l49.59-172.9m216.69 115.949-45.05 201.49-1.13 5.05-1.08 4.83"/><path d="m290 580 7.08 3.17 52.13 23.38.94.43 1.46.65 42.16-38.29-.82-4.76-33.41-193.44"/><path d="m392.6 564.99s.11-.141.35-.41c4.01-4.78 43.29-49.78 97.13-49.78 56.85 0 139.25-38.3 161.29-82.39 13.68-27.36 30.27-50.47 47.96-62.27 10.81-7.22 22.04-10.21 33.27-7.35 29.591 7.54 40.61-3.48 40.61-3.48l-77.61-153.78-1.659-3.29m-560.401 250.38v179m216.61-25.91v125.55m349.18-361.12v148.54m-350.64-144.47.52 232.34v.04"/></g><path d="m0 0h850.394v850.394h-850.394z"/></g></svg>