<svg height="850" viewBox="0 0 850 850" width="850" xmlns="http://www.w3.org/2000/svg"><path d="m184.8 479-70.3 153.8.8 2.2.5 3.3 1.2 8.7 1 10.5.3 5.8v10.5l-.3 4.7-.5 4.5-.5 4-.7 3.8-1 3.2-1.3 2.8-.7 1.2-1 .8h-.8l-.7-.3-.5-.7-.5-.5-.5-1.8-.5-2-.5-2-1-2-.5-.7-.8-.8-1-.5-1.2-.2-.8 1.2-1 1.8-1.2 4.2-3.3 9.8-1.7 4.7-1 2-1.3 2-1.2 1.5-1.3 1.3-1.5.7-1.7.5h-3l-1.8-.5-1.5-.5-1.5-.7-1.5-1-2.7-2-2.5-2.8-2-2.7-1.8-2.8-1-2.5-.5-2.5-.5-3-.2-3.5-.3-4 .3-9 .5-10.5 1.2-11 1.8-11.7 1.2-5.8 1.3-5.7 1.5-6 1.7-5.5 13.3-46.3 11-40 5.2-19.2 4.3-16.5 2.7-10.8 3.8-11.5 4-12 4.5-12.2 58 23.5z" fill="#ffeec8"/><path d="m125.3 454.8 7.5-19.3 7.7-18.7 7.5-17.5 7.3-16 11.2-24 4.5-9.3 5-4.5 5.8-4.7 6.5-4.8 7-4.7 7.5-4.8 7.7-4.7 15.3-8.8 14.2-7.5 11.8-6 11-5.5.5-2.2 3.7 2.2 3.8 2 4 1.8 3.7 1.5 4.3 1 4 1 4.2.5h9l4.5-.8 4.5-.7 4.3-1.3 4.2-1.7 4-2 4-2.3 3.8-2.5.2.5 152.5 9.5 7.3.8 7.7.7 7.8 1.3 7.7 1.5 13.8 2.7 10.7 2.3 1.8 3.2 1.7 3.3 2 3 2 3 2.3 3 2.2 2.7 2.3 2.5 2.5 2.5-.5.5-65 16.5-2.3.5-2.2.8-2.3.7-2.2 1.3-2 1-2.3 1.5-4 3.2-4 3.8-4 4.5-3.7 4.7-3.5 5.5-3.8 5.8-3.2 6.2-3.5 6.8-3.3 7-3 7.2-3 7.5-3 7.8-2.7 8-5.5 16.2-5 16.5-4.8 16.8-4.2 16.2-7.5 30.8-6.5 26-2 6-1.8 6.5-3.5 13-3 13-2.5 12-2 10.7-1.5 8.5-1.5 7.5.3 3.8v3.2l.2 2.3.5 2 .8 3.2 1 3.3 1 2.2-200.8-1.5 1.3-47.2 1.5-49.5 2.7-74.3.5-9-3.2 7-1.5-.7z" fill="#a9d7f3"/><path d="m669.3 658.3v2.7l-.3 2.5-.5 2.5-1 2.3-1.2 2.2-1.8 1.8-2 1.7-2.5 1.5-2.5 1-3.5.8-4.5 1-5 .7-5.7.8-6 .7-6.5.5-6.3.3-6.5.2h-6.2l-5.8-.2-5.2-.5-4.5-.8-3.8-1-1.5-.7-1.2-.5-1-.8-.8-1 2.3-22.5.2-4 16.8 1.5 21.7 1.5 11.5.8 11.8.5 11.2.2h10.3zm-173.5-55.8.7-2.5 1-1.7.8-.8.7-.7 1.8-1.3 2.7-.7 3.5-.8 10.8-1.7 3-.3h3l3.2.5 3.3.5 7 1.8 7.2 2.2 7.5 2 7.3 1.8 3.5.7 3.5.3 3.5.2 3.2-.2 3.8 41-.5.7-1 .8-1.3.7-1.5.8-3.7 1-4.8.7-5.2.5-5.8.3h-6l-6.5-.3-6.5-.5-6.2-.5-6-.5-5.8-.7-5-.8-4.5-1-3.5-.7-2.5-1-2.2-1.3-1.5-1.2-1.5-1.3-1.3-1.7-1-1.5-.7-1.8-.5-2-.5-2-.3-3 .3-3 .2-3.2.5-3 1.5-6.3 1.5-5.5zm201.7-217.5-1.5.3h-1.2l-3.5-.3-3.8-1-4-1.2-4.2-1.8-4.5-2.2-4.8-2.5-4.5-2.5-8.7-5.8-8-5.5-6-4.7-2.3-2-1.5-1.5-11.7-14-.5-.5 3.2-2.3 3-2.5 3-2.7 2.8-3 2.7-3 2.5-3.3 2.5-3.5 2.3-3.5.7.5 5.8 1.3 5.7 1.5 5.8 1.7 5.5 2 11 4 10.2 4.5 9.3 4.5 8 4.5 3.2 2 3 2 2.5 2 1.8 1.8 1.7 2.2 1.8 2.8 1.2 3 1 3.5.5 3.5v3.2l-.2 1.8-.5 1.5-.5 1.5-1 1.2-.5.8-.8.7-1.7.8-2 .7-2.3.3-3.2-.3-3.5-.5-7.5-1.2-6.8-1.5-3-.5h-2.5l-.2 1.2v1l.2 1 .3 1 1.2 1.8 1.5 1.5 1.5 1.2 1.3 1.5.5.8v1.5z" fill="#ffeec8"/><path d="m576.8 642.8-3.8-41-3.3.3-3.5-.3-3.5-.3-3.5-.8-7.2-1.7-7.5-2-7.3-2.3-7-1.8-3.3-.5-3.3-.5h-3l-3 .3-10.6 1.8-3.5.8-2.8.8-1.8 1.3-.8.8-.8.8-1 1.8-.8 2.5-3-1-1.5-.3h-2.5l-1.3.5-1.3.5-1 1-1 1.3-1 1.8-.8 2-.8 2.3-.3 1.5-.3 1.5v1.5l.3 1.3.8 2.5 1.3 2.5 1.8 2.3 1.8 2 4.3 4.3.3-.3.5 2 .5 2 .8 1.8 1 1.5 1.3 1.8 1.5 1.3 1.5 1.3 2.3 1.3 2.5 1 3.5.8 4.5 1 5 .8 5.8.8 6 .5 6.3.5 6.5.5 6.5.3h6l5.8-.3 5.3-.5 4.8-.8 3.8-1 1.5-.8 1.3-.8 1-.8v-1.4zm62.2-288.5 1.5 1.5 2.3 2 6 4.8 8 5.5 8.8 5.8 4.5 2.5 4.8 2.5 4.5 2.3 4.3 1.8 4 1.3 3.8 1 3.5.3h1.3l1.5-.3.3-.8v-1.5l-.5-.8-1.3-1.5-1.5-1.3-1.5-1.5-1.3-1.8-.3-1-.3-1v-1l.3-1.3h2.5l3 .5 6.8 1.5 7.5 1.3 3.5.5 3.3.3v2.3l3 4.8 2.8 5.3 3 6 2.8 6.8 3 7.3 2.8 7.5 2.8 8.3 2.8 8.3 5.5 18 5.3 18.5 5 19 4.8 19 4.3 18.3 3.8 17.3 6.5 30 4 20.8 1.5 7.5v3.8l-.3 3-.3 2.5-.3 2-1 3.3-1 3.3-.8 2-1.3 2.3-1.3 2-1.8 1.8-2 2-2 1.5-2.5 1.8-2.5 1.5-5.8 3-6.3 2.8-6.8 2.3-7 2.3-7.3 2-7.5 1.5-7.3 1.5-7 1.5-13.3 2-11 1.5-3.3.5-4 .3-9 .3h-10.3l-11.3-.3-11.8-.5-11.5-.8-21.8-1.5-16.8-1.5-.3 4-2.3 22.5-.5 6-13.3 1.3-14.3 1.3-17 1-18.3 1-17.7.8h-15.8l-6.5-.3-5.5-.5-10.5-1.5-12.5-2.3-14-2.5-7-1.5-7.3-2-6.8-2-6.8-2.3-6.3-2.5-5.8-2.8-2.5-1.3-2.5-1.8-2.3-1.5-2-1.8-2-1.8-1.5-1.8-1.5-2-1-2-1-2.3-1-3.3-.8-3.3-.5-2-.3-2.3v-3.3l-.3-3.8 1.5-7.5 1.5-8.5 2-10.8 2.5-12 3-13 3.5-13 1.8-6.5 2-6 6.5-26 7.5-30.8 4.3-16.3 4.8-16.8 5-16.5 5.5-16.3 2.8-8 3-7.8 3-7.5 3-7.3 3.3-7 3.5-6.8 3.3-6.3 3.8-5.8 3.5-5.5 3.8-4.8 4-4.5 4-3.8 4-3.3 2.3-1.5 2-1 2.3-1.3 2.3-.8 2.3-.8 2.3-.5 65-16.5.5-.5 4.5 3.8 4.5 3.3 5 3 5 2.5 5.3 1.8 5.3 1.5 5.5.8 5.8.5 4.5-.3 4.3-.5 4-.8 4.3-1.3 4-1.5 3.8-1.8 4-2 3.5-2.3.5.5z" fill="#f6cc4b"/><path d="m537 309.8-2.2-5-2-5-1.5-5-1.5-5.5-1-5.5-.8-5.5-.5-5.8-.2-6v-4.2l.2-4.3.5-4.2.5-4 .8-4 1-4 1-3.8 1.2-4 1.5-3.5 1.3-3.7 1.7-3.5 1.8-3.3 1.7-3.2 2-3.3 2.3-3 2.2-3 2.3-2.7 2.5-2.5 2.5-2.5 2.7-2.3 2.8-2.2 2.7-2 2.8-1.8 3-1.7 3.2-1.5 3-1.3 3.3-1.2 3.2-1 3.3-.5 3.5-.8 3.2-.2h7l3.5.2 3.3.8 3.2.5 3.3 1 3.2 1.2 3.3 1.3 3 1.5 3 1.7 2.7 1.8 3 2 2.8 2.2 2.5 2.3 2.5 2.5 2.5 2.5 2.2 2.7 2.3 3 2.2 3 2 3.3 1.8 3.2 1.7 3.3 1.8 3.5 1.5 3.7 1.2 3.5 1.3 4 1 3.8 1 4 .7 4 .5 4 .5 4.2.3 4.3v4.2l-.3 7-.5 6.8-1.2 6.5-1.5 6.2-1.8 6.3-2.2 5.7-2.5 5.8-3 5.2-2.3 3.5-2.5 3.5-2.5 3.3-2.7 3-2.8 3-3 2.7-3 2.5-3.2 2.3-3.5 2.2-4 2-3.8 1.8-4 1.5-4.2 1.2-4 .8-4.3.5-4.5.2-5.7-.5-5.5-.7-5.3-1.5-5.2-1.8-5-2.5-5-3-4.5-3.2-4.5-3.8-2.5-2.5-2.3-2.5-2.2-2.7-2.3-3-2-3-2-3-1.7-3.3zm-241.5-174.8 3.5.3 3.3.2 3.5.5 3.2.8 3.3 1 3.2 1 3 1.5 3.3 1.5 2.7 1.5 3 2 2.8 2 2.7 2 2.8 2.5 2.5 2.5 2.5 2.5 2.2 2.7 2.3 3 2 3 2 3 2 3.3 1.7 3.5 1.5 3.5 1.5 3.5 1.5 3.7 1.3 3.8 1 4 .7 4 .8 4 .7 4 .5 4.2.3 4.3v4.2l-.3 5.8-.5 5.5-.7 5.5-1 5.5-1.3 5.2-1.5 5-2 5-2 4.8-2.2 4.5-2.5 4.2-2.8 4.3-3 3.7-3.2 3.8-3.3 3.2-3.5 3.3-3.7 2.7-3.8 2.5-4 2.3-4 2-4.2 1.7-4.3 1.3-4.5.7-4.5.8h-9l-4.2-.5-4-1-4.3-1-3.7-1.5-4-1.8-3.8-2-3.7-2.2-3.8-2.8-3.7-3-3.5-3.5-3.3-3.7-3-3.8-3-4.2-2.7-4.5-2.3-4.5-2.2-4.8-2-5.2-1.8-5-1.2-5.5-1.3-5.5-.7-5.5-.5-6v-10l.2-4.3.5-4.2.5-4 .8-4 1-4 1-4 1.2-3.8 1.3-3.7 1.5-3.5 1.7-3.5 1.8-3.5 1.7-3.3 2-3 2.3-3 2-3 2.5-2.7 2.5-2.5 2.5-2.5 2.5-2.5 2.7-2 2.8-2 3-2 3-1.5 3-1.5 3.2-1.5 3-1 3.5-1 3.3-.8 3.2-.5 3.5-.2z" fill="#ffeec8"/><g fill="none" stroke="#231f20" stroke-linecap="round" stroke-miterlimit="10" stroke-width="14"><path d="m538.3 310-1.3-.2-10.7-2.3-13.8-2.7-7.7-1.5-7.8-1.3-7.7-.7-7.3-.8-152.5-9.5m297.8 49.3 11.7 14 1.5 1.5 2.3 2 6 4.7 8 5.5 8.7 5.8 4.5 2.5 4.8 2.5 4.5 2.2 4.2 1.8 4 1.2 3.8 1 3.5.3h1.2l1.5-.3.3-.7v-1.5l-.5-.8-1.3-1.5-1.5-1.2-1.5-1.5-1.2-1.8-.3-1-.2-1v-1l.2-1.2h2.5l3 .5 6.8 1.5 7.5 1.2 3.5.5 3.2.3 2.3-.3 2-.7 1.7-.8.8-.7.5-.8 1-1.2.5-1.5.5-1.5.2-1.8v-3.2l-.5-3.5-1-3.5-1.2-3-1.8-2.8-1.7-2.2-1.8-1.8-2.5-2-3-2-3.2-2-8-4.5-9.3-4.5-10.2-4.5-11-4-5.5-2-5.8-1.7-5.7-1.5-5.8-1.3m-573 306.8 13.3-46.3 11-40 5.2-19.2 4.3-16.5 2.7-10.8 3.8-11.5 4-12 4.5-12.2 7.5-19.3 7.7-18.7 7.5-17.5 7.3-16 11.2-24 4.5-9.3 5-4.5 5.8-4.7 6.5-4.8 7-4.7 7.5-4.8 7.7-4.7 15.3-8.8 14.2-7.5 11.8-6 11-5.5m122.2 359.5h-2.2l-200.8-1.5 1.3-47.2 1.5-49.5 2.7-74.3.5-9-3.2 7-70.3 153.8.8 2.2.5 3.3 1.2 8.7 1 10.5.3 5.8v10.5l-.3 4.7-.5 4.5-.5 4-.7 3.8-1 3.2-1.3 2.8-.7 1.2-1 .8h-.8l-.7-.3-.5-.7-.5-.5-.5-1.8-.5-2-.5-2-1-2-.5-.7-.8-.8-1-.5-1.2-.2-.8 1.2-1 1.8-1.2 4.2-3.3 9.8-1.7 4.7-1 2-1.3 2-1.2 1.5-1.3 1.3-1.5.7-1.7.5h-3l-1.8-.5-1.5-.5-1.5-.7-1.5-1-2.7-2-2.5-2.8-2-2.7-1.8-2.8-1-2.5-.5-2.5-.5-3-.2-3.5-.3-4 .3-9 .5-10.5 1.2-11 1.8-11.7 1.2-5.8 1.3-5.7 1.5-6 1.7-5.5m48.8-168.5 58 23.5m211.5 85.5 2-7.5 6.5-26 7.5-30.8 4.2-16.2 4.8-16.8 5-16.5 5.5-16.2 2.7-8 3-7.8 3-7.5 3-7.2 3.3-7 3.5-6.8 3.2-6.2 3.8-5.8 3.5-5.5 3.7-4.7 4-4.5 4-3.8 4-3.2 2.3-1.5 2-1 2.2-1.3 2.3-.7 2.2-.8 2.3-.5 65-16.5m208 206.3-188.8 58.5.5 3.5 3.8 41 .7 6 8.5.7 16.8 1.5 21.7 1.5 11.5.8 11.8.5 11.2.2h10.3l9-.2 4-.3 3.2-.5 11-1.5 13.3-2 7-1.5 7.2-1.5 7.5-1.5 7.3-2 7-2.2 6.7-2.3 6.3-2.7 5.7-3 2.5-1.5 2.5-1.8 2-1.5 2-2 1.8-1.7 1.2-2 1.3-2.3.7-2 1-3.2 1-3.3.3-2 .2-2.5.3-3v-3.7l-1.5-7.5-4-20.8-6.5-30-3.8-17.2-4.2-18.3-4.8-19-5-19-5.2-18.5-5.5-18-2.8-8.2-2.7-8.3-2.8-7.5-3-7.2-2.7-6.8-3-6-2.8-5.2-3-4.8m-223 227.5-1.5 5.5-1.5 6.3-.5 3-.2 3.2-.3 3 .3 3 .5 2 .5 2 .7 1.8 1 1.5 1.3 1.7 1.5 1.3 1.5 1.2 2.2 1.3 2.5 1 3.5.7 4.5 1 5 .8 5.8.7 6 .5 6.2.5 6.5.5 6.5.3h6l5.8-.3 5.2-.5 4.8-.7 3.7-1 1.5-.8 1.3-.7 1-.8.5-.7"/><path d="m576.8 601-1.8.5-2 .3-3.2.2-3.5-.2-3.5-.3-3.5-.7-7.3-1.8-7.5-2-7.2-2.2-7-1.8-3.3-.5-3.2-.5h-3l-3 .3-10.8 1.7-3.5.8-2.7.7-1.8 1.3-.7.7-.8.8-1 1.7-.7 2.5-.8 3"/><path d="m496.5 602.8-.7-.3-3-1-1.5-.2h-2.8l-1.2.5-1.3.5-1 1-1 1.2-1 1.8-.7 2-.8 2.2-.2 1.5-.3 1.5v1.5l.3 1.3.7 2.5 1.3 2.5 1.7 2.2 1.8 2 4.2 4.3"/><path d="m585.8 653.5-2.3 22.5-.5 6-13.2 1.3-14.3 1.2-17 1-18.2 1-17.8.8h-15.7l-6.5-.3-5.5-.5-10.5-1.5-12.5-2.2-14-2.5-7-1.5-7.3-2-6.7-2-6.8-2.3-6.2-2.5-5.8-2.7-2.5-1.3-2.5-1.7-2.2-1.5-2-1.8-2-1.7-1.5-1.8-1.5-2-1-2-1-2.2-1-3.3-.8-3.2-.5-2-.2-2.3v-3.2l-.3-3.8 1.5-7.5 1.5-8.5 2-10.7 2.5-12 3-13 3.5-13 1.8-6.5 2-6"/><path d="m399.3 573 90.7 28.3 3 .7m176.3 56.3v2.7l-.3 2.5-.5 2.5-1 2.3-1.2 2.2-1.8 1.8-2 1.7-2.5 1.5-2.5 1-3.5.8-4.5 1-5 .7-5.7.8-6 .7-6.5.5-6.3.3-6.5.2h-6.2l-5.8-.2-5.2-.5-4.5-.8-3.8-1-1.5-.7-1.2-.5-1-.8-.8-1m-320.2-384.2-3.8-2.8-3.7-3-3.5-3.5-3.3-3.7-3-3.8-3-4.2-2.7-4.5-2.3-4.5-2.2-4.8-2-5.2-1.8-5-1.2-5.5-1.3-5.5-.7-5.5-.5-6v-10l.2-4.3.5-4.2.5-4 .8-4 1-4 1-4 1.2-3.8 1.3-3.7 1.5-3.5 1.7-3.5 1.8-3.5 1.7-3.3 2-3 2.3-3 2-3 2.5-2.7 2.5-2.5 2.5-2.5 2.5-2.5 2.7-2 2.8-2 3-2 3-1.5 3-1.5 3.2-1.5 3-1 3.5-1 3.3-.8 3.2-.5 3.5-.2 3.5-.3 3.5.3 3.3.2 3.5.5 3.2.8 3.3 1 3.2 1 3 1.5 3.3 1.5 2.7 1.5 3 2 2.8 2 2.7 2 2.8 2.5 2.5 2.5 2.5 2.5 2.2 2.7 2.3 3 2 3 2 3 2 3.3 1.7 3.5 1.5 3.5 1.5 3.5 1.5 3.7 1.3 3.8 1 4 .7 4 .8 4 .7 4 .5 4.2.3 4.3v4.2l-.3 5.8-.5 5.5-.7 5.5-1 5.5-1.3 5.2-1.5 5-2 5-2 4.8-2.2 4.5-2.5 4.2-2.8 4.3-3 3.7-3.2 3.8-3.3 3.2-3.5 3.3-3.7 2.7-3.8 2.5-4 2.3-4 2-4.2 1.7-4.3 1.3-4.5.7-4.5.8h-9l-4.2-.5-4-1-4.3-1-3.7-1.5-4-1.8-3.8-2zm273.7 18-2.2-5-2-5-1.5-5-1.5-5.5-1-5.5-.8-5.5-.5-5.8-.2-6v-4.2l.2-4.3.5-4.2.5-4 .8-4 1-4 1-3.8 1.2-4 1.5-3.5 1.3-3.7 1.7-3.5 1.8-3.3 1.7-3.2 2-3.3 2.3-3 2.2-3 2.3-2.7 2.5-2.5 2.5-2.5 2.7-2.3 2.8-2.2 2.7-2 2.8-1.8 3-1.7 3.2-1.5 3-1.3 3.3-1.2 3.2-1 3.3-.5 3.5-.8 3.2-.2h7l3.5.2 3.3.8 3.2.5 3.3 1 3.2 1.2 3.3 1.3 3 1.5 3 1.7 2.7 1.8 3 2 2.8 2.2 2.5 2.3 2.5 2.5 2.5 2.5 2.2 2.7 2.3 3 2.2 3 2 3.3 1.8 3.2 1.7 3.3 1.8 3.5 1.5 3.7 1.2 3.5 1.3 4 1 3.8 1 4 .7 4 .5 4 .5 4.2.3 4.3v4.2l-.3 7-.5 6.8-1.2 6.5-1.5 6.2-1.8 6.3-2.2 5.7-2.5 5.8-3 5.2-2.3 3.5-2.5 3.5-2.5 3.3-2.7 3-2.8 3-3 2.7-3 2.5-3.2 2.3-3.5 2.2-4 2-3.8 1.8-4 1.5-4.2 1.2-4 .8-4.3.5-4.5.2-5.7-.5-5.5-.7-5.3-1.5-5.2-1.8-5-2.5-5-3-4.5-3.2-4.5-3.8-2.5-2.5-2.3-2.5-2.2-2.7-2.3-3-2-3-2-3-1.7-3.3zm-351.5 174.7 2-3.5 26.8-43.5"/></g></svg>