<svg height="850.394" viewBox="0 0 850.394 850.394" width="850.394" xmlns="http://www.w3.org/2000/svg"><path d="m154.39 548.59c-25.17 0-29.86-20.479-29.86-20.479l-28.98-80.211c1.78.3 3.65.569 5.6.81 24.02 3 171.07 4.04 279.58 3.09l2.85.311c-45.67 23.47-72.05 56.33-72.05 78.01 0 6.29 1.92 12.35 5.57 18.22l-.4.25z" fill="#ffffc2"/><path d="m320.51 553.16c-1.27-1.59-2.41-3.2-3.41-4.82-3.65-5.87-5.57-11.93-5.57-18.22 0-21.68 26.38-54.54 72.05-78.01a243.18 243.18 0 0 1 27.32-11.94c40.47-14.83 94.36-22.5 127.01-23.79 3.29-.13 6.37-.19 9.2-.19l.39-.03c30.83 0 87.85 3.44 136.21 23.99 61.1 25.949 99.37 64.239 99.37 89.939 0 10.061-4.65 20.22-13.46 29.84-13.72 14.98-37.53 28.67-69.63 38.71-51.38 16.061-99.34 19.11-152.88 19.11 0 0-45.44 2.36-92.721-4.24-1.34-.18-2.689-.38-4.029-.58-19.49-2.93-39.081-7.42-55.74-14.279-35.12-14.47-61.23-29.28-74.11-45.49zm434.17-36.24c1.44-2.439-1.35-6.77-6.25-9.64-4.899-2.891-10.02-3.23-11.46-.78-1.45 2.43 1.36 6.75 6.25 9.63 4.89 2.89 10.02 3.24 11.46.79zm-42 16.42c1.42-2.439-1.37-6.76-6.26-9.64s-10.02-3.23-11.47-.79c-1.431 2.45 1.359 6.77 6.25 9.649 4.89 2.881 10.03 3.231 11.48.781zm-27.22-48.2c1.43-2.439-1.35-6.76-6.25-9.64-4.89-2.88-10.03-3.24-11.47-.79-1.431 2.44 1.37 6.771 6.26 9.64 4.89 2.89 10.02 3.25 11.46.79zm-7.5 89.66c2.7-.88 3.45-5.97 1.69-11.37-1.78-5.39-5.4-9.05-8.091-8.16-2.699.891-3.46 5.971-1.689 11.37 1.77 5.39 5.4 9.05 8.09 8.16zm-44.88-56.97c2.7-.9 3.46-5.99 1.689-11.38-1.76-5.391-5.39-9.05-8.09-8.17-2.699.89-3.439 5.979-1.689 11.38 1.77 5.39 5.4 9.04 8.09 8.17zm-8.31-55.92c1.44-2.45-1.359-6.76-6.25-9.65-4.89-2.88-10.02-3.229-11.46-.79-1.449 2.45 1.351 6.761 6.23 9.641 4.91 2.889 10.05 3.239 11.48.799zm-14.82 108.65c2.7-.89 3.45-5.979 1.689-11.38-1.76-5.38-5.399-9.04-8.09-8.16-2.689.891-3.439 5.98-1.67 11.381 1.751 5.389 5.381 9.039 8.071 8.159zm-36.09-49.28c2.77-.54 4.159-5.49 3.09-11.07-1.07-5.57-4.2-9.65-6.99-9.12-2.79.54-4.18 5.5-3.1 11.07 1.07 5.57 4.2 9.66 7 9.12zm-5.3-47.16c2.801-.54 4.181-5.49 3.11-11.07-1.09-5.569-4.22-9.649-7-9.12-2.79.54-4.18 5.5-3.1 11.08 1.07 5.56 4.21 9.65 6.99 9.11zm-14.98 95.4c1.08-5.579-.311-10.529-3.1-11.069-2.79-.54-5.921 3.55-6.99 9.12-1.07 5.569.31 10.54 3.09 11.069 2.8.54 5.93-3.55 7-9.12zm-20.14-102.53c1.079-5.57-.311-10.53-3.101-11.061-2.78-.54-5.92 3.54-7 9.11-1.07 5.58.32 10.53 3.101 11.06 2.79.551 5.93-3.529 7-9.109zm-5.29 47.16c1.069-5.58-.32-10.53-3.101-11.07-2.79-.54-5.92 3.54-6.99 9.12-1.069 5.569.32 10.54 3.101 11.06 2.79.54 5.92-3.53 6.99-9.11zm-35.01 50.24c1.771-5.39 1.021-10.489-1.68-11.37-2.7-.89-6.32 2.761-8.09 8.16-1.771 5.391-1.01 10.49 1.689 11.37 2.691.88 6.311-2.78 8.081-8.16zm-11.44-101.28c4.899-2.88 7.689-7.2 6.25-9.65-1.44-2.45-6.57-2.09-11.47.79-4.881 2.88-7.69 7.2-6.24 9.64 1.44 2.45 6.58 2.1 11.46-.78zm-11.68 48.53c1.75-5.39 1.011-10.479-1.689-11.359-2.7-.891-6.32 2.76-8.09 8.16-1.76 5.39-1.01 10.489 1.68 11.369 2.699.89 6.329-2.77 8.099-8.17zm-49-25.29c4.89-2.88 7.69-7.21 6.24-9.64-1.44-2.45-6.56-2.1-11.46.78-4.89 2.88-7.69 7.2-6.25 9.64 1.44 2.45 6.58 2.09 11.47-.78zm4.12 82.27c1.77-5.38 1.01-10.48-1.68-11.36-2.71-.88-6.32 2.771-8.09 8.17-1.77 5.391-1.02 10.48 1.68 11.36 2.7.89 6.31-2.76 8.09-8.17zm-31.33-34.08c4.89-2.87 7.68-7.19 6.25-9.65-1.44-2.439-6.58-2.08-11.47.79-4.89 2.891-7.69 7.2-6.25 9.65s6.58 2.1 11.47-.79zm-42.02-16.41c4.9-2.89 7.7-7.21 6.25-9.649-1.44-2.44-6.57-2.091-11.47.779-4.88 2.891-7.68 7.21-6.24 9.65s6.57 2.1 11.46-.78z" fill="#f6cc4b"/><path d="m542.3 656.8c-9.6-3.81-15.689-12.939-25.87-14.35-7.84-1.11-12.76 3.55-19.76 4.76-23.24 4-38.28-10.83-42.5-32.05l.22-1.65c47.28 6.601 92.721 4.24 92.721 4.24 53.54 0 101.5-3.05 152.88-19.11 32.1-10.04 55.91-23.729 69.63-38.71 14.66 10.09 21.689 14.11 18.64 30.59-1.34 7.29-8.01 17.221-16.43 22.711-3.87 2.529-8.11 4.119-12.37 4.079-36.09-.359-25.79 15.431-55.06 15.431-24.48 0-19.851 17.58-36.32 22.88-18.5 5.97-50.74-.101-60.38-5.5-35.621-19.981-46.441 14.209-65.401 6.679zm-110.18-18.41c-18.62 6.681-25.19 5.57-41.64-5.8-11.12-7.66-33.06 2.96-43.88-8.33-8.71-9.069-3.5-16.43-15.01-20.319-.01-.011-.01-.011-.02-.011-6.26-2.109-16.27-5.12-18.86-7.949-6.57-7.2-22.58-35.4 6.7-41.591l1.1-1.229c12.88 16.21 38.99 31.02 74.11 45.49 16.66 6.859 36.25 11.35 55.74 14.279l-.051.301c-1.409 12.439-5.699 20.669-18.189 25.159z" fill="#9e5c26"/><path d="m576.95 510.21c1.069 5.58-.32 10.53-3.09 11.07-2.801.54-5.931-3.55-7-9.12-1.08-5.57.31-10.53 3.1-11.07 2.79-.53 5.92 3.55 6.99 9.12zm-46.61-54.28c2.79.53 4.18 5.49 3.101 11.061-1.07 5.58-4.21 9.66-7 9.109-2.78-.529-4.171-5.479-3.101-11.06 1.08-5.57 4.22-9.65 7-9.11zm-172.3 52.55c1.45 2.439-1.35 6.76-6.25 9.649-4.89 2.88-10.02 3.22-11.46.78s1.36-6.76 6.24-9.65c4.9-2.869 10.03-3.219 11.47-.779zm348.38 15.22c4.89 2.88 7.68 7.2 6.26 9.64-1.449 2.45-6.59 2.101-11.479-.78-4.891-2.88-7.681-7.199-6.25-9.649 1.449-2.441 6.579-2.091 11.469.789zm42.01-16.42c4.9 2.87 7.69 7.2 6.25 9.64-1.439 2.45-6.569 2.1-11.46-.79-4.89-2.88-7.7-7.2-6.25-9.63 1.44-2.45 6.56-2.11 11.46.78zm-68.78 56.15c1.76 5.4 1.01 10.49-1.69 11.37-2.69.891-6.32-2.77-8.09-8.16-1.771-5.399-1.01-10.479 1.689-11.37 2.691-.89 6.311 2.77 8.091 8.16zm-.44-87.93c4.9 2.88 7.68 7.2 6.25 9.64-1.44 2.46-6.57 2.101-11.46-.79-4.89-2.869-7.69-7.199-6.26-9.64 1.44-2.45 6.58-2.09 11.47.79zm-67.57 83.68c1.761 5.4 1.011 10.49-1.689 11.38-2.69.881-6.32-2.77-8.07-8.159-1.77-5.4-1.02-10.49 1.67-11.381 2.689-.88 6.329 2.78 8.089 8.16zm23.13-52.73c1.771 5.39 1.011 10.479-1.689 11.38-2.69.87-6.32-2.78-8.09-8.17-1.75-5.4-1.01-10.49 1.689-11.38 2.7-.88 6.33 2.78 8.09 8.17zm-16.25-54.19c4.891 2.891 7.69 7.2 6.25 9.65-1.43 2.439-6.569 2.09-11.479-.8-4.88-2.88-7.68-7.19-6.23-9.641 1.439-2.439 6.569-2.089 11.459.791zm-127.06 100.76c2.7.881 3.45 5.98 1.68 11.37-1.77 5.38-5.39 9.04-8.08 8.16-2.699-.88-3.46-5.979-1.689-11.37 1.769-5.4 5.389-9.05 8.089-8.16zm59.02 5.43c2.789.54 4.18 5.49 3.1 11.069-1.07 5.57-4.2 9.66-7 9.12-2.78-.529-4.16-5.5-3.09-11.069 1.07-5.57 4.2-9.66 6.99-9.12zm-123.22-81.74c1.45 2.43-1.35 6.76-6.24 9.64-4.89 2.87-10.03 3.23-11.47.78-1.44-2.439 1.36-6.76 6.25-9.64 4.9-2.88 10.02-3.23 11.46-.78zm-27.2 48.18c1.43 2.46-1.36 6.78-6.25 9.65-4.89 2.89-10.03 3.24-11.47.79s1.36-6.76 6.25-9.65c4.89-2.87 10.03-3.23 11.47-.79zm171.61-61.84c1.07 5.58-.31 10.53-3.11 11.07-2.779.54-5.92-3.55-6.989-9.11-1.08-5.58.31-10.54 3.1-11.08 2.779-.53 5.909 3.55 6.999 9.12zm-103.34 37.23c2.7.88 3.439 5.97 1.689 11.359-1.77 5.4-5.399 9.061-8.1 8.17-2.689-.88-3.439-5.979-1.68-11.369 1.771-5.4 5.391-9.05 8.091-8.16zm56.72 2.8c2.78.54 4.17 5.49 3.101 11.07-1.07 5.58-4.2 9.649-6.99 9.109-2.78-.52-4.17-5.49-3.101-11.06 1.07-5.579 4.2-9.659 6.99-9.119zm-101.59 54.18c2.69.88 3.45 5.98 1.68 11.36-1.78 5.41-5.39 9.06-8.09 8.17-2.7-.88-3.45-5.97-1.68-11.36 1.77-5.4 5.38-9.05 8.09-8.17zm64.49-103.8c1.439 2.45-1.351 6.771-6.25 9.65-4.88 2.88-10.021 3.229-11.46.779-1.45-2.439 1.359-6.76 6.24-9.64 4.9-2.879 10.03-3.239 11.47-.789zm285.03 194.81c-21.94 32.15-111.961 54.04-223.271 54.04-114.08 0-208.97-25.869-228.64-59.97-2.46-4.26-3.74-8.649-3.74-13.13 0-8.88 5.03-17.4 14.26-25.27 11.51 3.89 6.3 11.25 15.01 20.319 10.82 11.29 32.76.67 43.88 8.33 16.45 11.37 23.02 12.48 41.64 5.8 12.49-4.489 16.78-12.72 18.189-25.159l.051-.301c1.34.2 2.689.4 4.029.58l-.22 1.65c4.22 21.22 19.26 36.05 42.5 32.05 7-1.21 11.92-5.87 19.76-4.76 10.181 1.41 16.271 10.54 25.87 14.35 18.96 7.53 29.78-26.66 65.4-6.68 9.64 5.399 41.88 11.47 60.38 5.5 16.47-5.3 11.84-22.88 36.32-22.88 29.27 0 18.97-15.79 55.06-15.431 4.26.04 8.5-1.55 12.37-4.079l1.14.21c3.37 4.96 5.141 14.109 5.141 19.38.001 5.361-1.759 10.531-5.129 15.451z" fill="#ffffc2"/><path d="m772.98 648.27.949.19c-2.729 16.76-4.43 65.68-37.72 88.3-32.14 21.851-78.14 31.51-141.52 34.931-19.061 1.029-66.65 1.699-85.69.67-63.4-3.42-100.98-11.2-145.95-33.04-48.27-23.44-41.98-83.71-41.98-96.98 19.67 34.101 114.56 59.97 228.64 59.97 111.311-.001 201.331-21.891 223.271-54.041z" fill="#f6cc4b"/><g fill="#ffffc2"><path d="m103.16 150.86h.01c16.65-2.2 33.66-1.48 33.66-1.48h323.72s17.01-.72 33.66 1.48c9.69 1.29 19.61 11.94 19.021 19.59-3.12 40.39-5.211 68.31-8.301 89.28-3.199 21.7-28.58 21.35-54.92 21.35h-302.649c-26.34 0-51.71.35-54.91-21.35-3.09-20.97-5.18-48.89-8.31-89.28-.591-7.65 9.329-18.3 19.019-19.59z"/><path d="m472.84 99.04c10.03 25.21 18.68 45.53 21.37 51.82-16.65-2.2-33.66-1.48-33.66-1.48h-106.16v-.1l-22.53-21.36-68.19.1-22.53 21.36h-104.31s-17.01-.72-33.66 1.48c2.69-6.29 11.33-26.61 21.36-51.82 8.29-20.82 35.13-27.71 42.15-27.71h264.02c7.02 0 33.86 6.89 42.14 27.71z"/><path d="m354.39 149.28v.1h-113.25l22.53-21.36 68.19-.1zm76.89 156.97h11.7s53.27-1.17 64.979 20.49c9.97 18.44 25.46 71.27 29.84 86.54l.11 3.1c-32.65 1.29-86.54 8.96-127.01 23.79-9.74 3.57-18.86 7.6-27.32 11.94l-2.85-.311c-108.51.95-255.56-.09-279.58-3.09-1.95-.24-3.82-.51-5.6-.81-45.29-7.471-37.16-30.43-37.16-30.43s19.32-69.07 31.02-90.73c11.71-21.66 64.98-20.49 64.98-20.49h276.891z"/></g><g fill="none" stroke="#231f20"><g stroke-width="21"><path d="m380.73 451.8c-108.51.95-255.56-.09-279.58-3.09-1.95-.24-3.82-.51-5.6-.81-45.29-7.471-37.16-30.43-37.16-30.43s19.32-69.07 31.02-90.73c11.71-21.66 64.98-20.49 64.98-20.49h288.59s53.27-1.17 64.979 20.49c9.97 18.44 25.46 71.27 29.84 86.54"/><path d="m95.55 447.89v.011l28.98 80.21s4.69 20.479 29.86 20.479h162.31m-213.53-397.73c2.69-6.29 11.33-26.61 21.36-51.82 8.29-20.82 35.13-27.71 42.15-27.71h264.02c7.02 0 33.859 6.89 42.14 27.71 10.03 25.21 18.68 45.53 21.37 51.82.58 1.33.88 2.03.88 2.03m-392.8 0 .87-2.03"/><path d="m164.36 281.08h-17c-26.34 0-51.71.35-54.91-21.35-3.09-20.97-5.18-48.89-8.31-89.28-.59-7.65 9.33-18.3 19.02-19.59h.01c16.65-2.2 33.66-1.48 33.66-1.48h323.72s17.01-.72 33.66 1.48c9.69 1.29 19.61 11.94 19.021 19.59-3.12 40.39-5.211 68.31-8.301 89.28-3.199 21.7-28.58 21.35-54.92 21.35z"/></g><path d="m354.39 149.28-22.53-21.36-68.19.1-22.53 21.36" stroke-width="14"/><path d="m164.36 285.76v20.98m266.92-20.98v20.98m23.11 306.77c47.28 6.601 92.721 4.24 92.721 4.24 53.54 0 101.5-3.05 152.88-19.11 32.1-10.04 55.91-23.729 69.63-38.71 8.81-9.62 13.46-19.779 13.46-29.84 0-25.7-38.271-63.99-99.37-89.939-48.36-20.55-105.38-23.99-136.21-23.99l-.39.03c-2.83 0-5.91.06-9.2.19-32.65 1.29-86.54 8.96-127.01 23.79-9.74 3.57-18.86 7.6-27.32 11.94-45.67 23.47-72.05 56.33-72.05 78.01 0 6.29 1.92 12.35 5.57 18.22 1 1.62 2.14 3.23 3.41 4.82 12.88 16.21 38.99 31.02 74.11 45.49 16.66 6.859 36.25 11.35 55.74 14.279 1.339.2 2.689.4 4.029.58zm-133.32 28.83c0 13.271-6.29 73.54 41.98 96.98 44.97 21.84 82.55 29.62 145.95 33.04 19.04 1.029 66.63.359 85.69-.67 63.38-3.421 109.38-13.08 141.52-34.931 33.29-22.62 34.99-71.54 37.72-88.3" stroke-width="21"/><path d="m393.81 534.54c-4.89 2.89-10.03 3.24-11.47.79s1.36-6.76 6.25-9.65c4.89-2.87 10.03-3.229 11.47-.79 1.43 2.46-1.36 6.78-6.25 9.65zm-42.02-16.41c-4.89 2.88-10.02 3.22-11.46.78s1.36-6.76 6.24-9.65c4.9-2.87 10.03-3.22 11.47-.779 1.45 2.439-1.35 6.759-6.25 9.649zm69.23-31.78c-4.89 2.87-10.03 3.23-11.47.78-1.44-2.439 1.36-6.76 6.25-9.64 4.9-2.88 10.02-3.23 11.46-.78 1.45 2.43-1.35 6.76-6.24 9.64zm60.68-23.24c-4.88 2.88-10.021 3.229-11.46.779-1.45-2.439 1.359-6.76 6.24-9.64 4.899-2.88 10.029-3.24 11.47-.79 1.44 2.451-1.35 6.771-6.25 9.651zm46.45 51.04c-1.07 5.58-4.2 9.649-6.99 9.109-2.78-.52-4.17-5.49-3.101-11.06 1.07-5.58 4.2-9.66 6.99-9.12 2.781.541 4.171 5.491 3.101 11.071zm25.43 55.37c-1.07 5.57-4.2 9.66-7 9.12-2.78-.529-4.16-5.5-3.09-11.069 1.069-5.57 4.2-9.66 6.99-9.12 2.79.539 4.18 5.489 3.1 11.069zm-20.14-102.53c-1.07 5.58-4.21 9.66-7 9.109-2.78-.529-4.171-5.479-3.101-11.06 1.08-5.57 4.22-9.65 7-9.11 2.791.531 4.181 5.491 3.101 11.061zm-108.3 101.63c-1.78 5.41-5.39 9.06-8.09 8.17-2.7-.88-3.45-5.97-1.68-11.36 1.77-5.399 5.38-9.05 8.09-8.17 2.69.88 3.45 5.98 1.68 11.36zm68-4.23c-1.77 5.38-5.39 9.04-8.08 8.16-2.699-.88-3.46-5.979-1.689-11.37 1.77-5.399 5.39-9.05 8.09-8.16 2.699.88 3.449 5.98 1.679 11.37zm-23.12-52.75c-1.77 5.4-5.399 9.061-8.1 8.17-2.689-.88-3.439-5.979-1.68-11.369 1.77-5.4 5.39-9.051 8.09-8.16 2.7.879 3.44 5.969 1.69 11.359zm231.18 20.92c4.89 2.881 10.03 3.23 11.479.78 1.42-2.439-1.37-6.76-6.26-9.64s-10.02-3.23-11.47-.79c-1.429 2.45 1.361 6.77 6.251 9.65zm42.02-16.43c4.891 2.89 10.021 3.24 11.46.79 1.44-2.439-1.35-6.77-6.25-9.64-4.899-2.891-10.02-3.23-11.46-.78-1.45 2.43 1.36 6.75 6.25 9.63zm-69.22-31.78c4.89 2.891 10.02 3.25 11.46.79 1.43-2.439-1.35-6.76-6.25-9.64-4.89-2.88-10.03-3.24-11.47-.79-1.43 2.44 1.37 6.77 6.26 9.64zm-60.71-23.24c4.91 2.89 10.05 3.239 11.479.8 1.44-2.45-1.359-6.76-6.25-9.65-4.89-2.88-10.02-3.229-11.46-.79-1.449 2.45 1.351 6.76 6.231 9.64zm-46.43 51.05c1.069 5.57 4.199 9.66 7 9.12 2.77-.54 4.159-5.49 3.09-11.07-1.07-5.57-4.2-9.65-6.99-9.12-2.79.54-4.18 5.5-3.1 11.07zm-5.29-47.15c1.069 5.561 4.21 9.65 6.989 9.11 2.801-.54 4.181-5.49 3.11-11.07-1.09-5.569-4.22-9.649-7-9.12-2.789.54-4.179 5.5-3.099 11.08zm108.3 101.63c1.77 5.391 5.399 9.051 8.09 8.16 2.7-.88 3.45-5.97 1.69-11.37-1.78-5.39-5.4-9.05-8.091-8.16-2.699.89-3.459 5.97-1.689 11.37zm-67.99-4.24c1.75 5.39 5.38 9.04 8.07 8.159 2.7-.89 3.45-5.979 1.689-11.38-1.76-5.38-5.399-9.04-8.09-8.16-2.689.891-3.439 5.981-1.669 11.381zm23.11-52.74c1.77 5.39 5.399 9.04 8.09 8.17 2.7-.9 3.46-5.99 1.689-11.38-1.76-5.391-5.39-9.05-8.09-8.17-2.699.89-3.439 5.98-1.689 11.38z" stroke-width="6.944"/><path d="m319.41 554.39c-29.28 6.19-13.27 34.391-6.7 41.591 2.59 2.829 12.6 5.84 18.86 7.949.01 0 .01 0 .02.011 11.51 3.89 6.3 11.25 15.01 20.319 10.82 11.29 32.76.67 43.88 8.33 16.45 11.37 23.02 12.48 41.64 5.8 12.49-4.489 16.78-12.72 18.189-25.159m3.861 1.929c4.22 21.22 19.26 36.05 42.5 32.05 7-1.21 11.92-5.87 19.76-4.76 10.181 1.41 16.271 10.54 25.87 14.35 18.96 7.53 29.78-26.66 65.4-6.68 9.64 5.399 41.88 11.47 60.38 5.5 16.47-5.3 11.84-22.88 36.32-22.88 29.27 0 18.97-15.79 55.06-15.431 4.26.04 8.5-1.55 12.37-4.079 8.42-5.49 15.09-15.421 16.43-22.711 3.05-16.479-3.979-20.5-18.64-30.59-.061-.04-.11-.08-.17-.12" stroke-width="21"/><path d="m772.97 613.44c3.37 4.96 5.141 14.109 5.141 19.38 0 5.359-1.761 10.529-5.13 15.449-21.94 32.15-111.961 54.04-223.271 54.04-114.08 0-208.97-25.869-228.64-59.97-2.46-4.26-3.74-8.649-3.74-13.13 0-8.88 5.03-17.4 14.26-25.27.26-.23.52-.45.79-.671" stroke-width="21"/></g><path d="m0 0h850.394v850.394h-850.394z" fill="none"/></svg>