<svg height="850.394" viewBox="0 0 850.394 850.394" width="850.394" xmlns="http://www.w3.org/2000/svg"><path d="m713.38 470.44 1.09 7.77c0 7.61-6.08 13.79-13.56 13.79h-558.34c-7.49 0-13.56-6.18-13.56-13.79l.86-6.09 33.35-236.85c0-7.62 6.07-13.79 13.56-13.79h489.91c7.489 0 13.56 6.17 13.56 13.79z" fill="#ffffc2"/><g fill="#c8c8c8"><path d="m689.8 266.12 28.14 203.68-4.561.641-33.13-235.17c0-7.62-6.07-13.79-13.56-13.79h-28.25v-5.74l30.77-38.43v-1.87h29.5c9.73 0 17.63 8.87 17.63 19.81l5.32 39.01z"/><path d="m758.62 505.05-40.68-35.25-28.14-203.68 31.86-31.86zm-81.62 33.03-34.51 124.99c0 6.76-7.891 12.239-17.641 12.239l-407.43-.029c-9.74 0-17.64-5.49-17.64-12.24l-34.51-124.99z"/><path d="m758.62 505.05 1.81 13.23c0 10.93-7.899 19.8-17.64 19.8h-48.74v-.04l-33.59-38.43-477.98.01-33.59 38.43h-49.41c-9.74 0-17.64-8.88-17.64-19.81l1.48-10.84 41.54-35.99 5.01.71-.86 6.09c0 7.61 6.07 13.79 13.56 13.79h558.34c7.479 0 13.56-6.18 13.56-13.79l-1.09-7.77 4.561-.641zm-638.14-269.86 32.52 32.53-28.14 203.69-41.54 35.99 37.15-272.21z"/><path d="m677 538.08-511.73-.03h-16.38l33.59-38.43 477.98-.01 33.59 38.43v.04zm-473.94-322.34h435.38v5.74h-461.66c-7.49 0-13.56 6.17-13.56 13.79l-33.35 236.85-5.01-.71 28.14-203.69-32.52-32.53h-.01l5.46-39.99c0-10.93 7.9-19.8 17.63-19.8h28.74v1.91z"/><path d="m669.21 175.44v1.87l-30.77 38.43h-435.38l-30.76-38.43v-1.91z"/></g><g fill="none" stroke="#231f20" stroke-width="14"><path d="m148.89 538.05h-49.41c-9.74 0-17.64-8.88-17.64-19.81l1.48-10.84 37.15-272.21 5.46-39.99c0-10.93 7.9-19.8 17.63-19.8h28.74l496.91.04h29.5c9.73 0 17.63 8.87 17.63 19.81l5.32 39.01 36.96 270.79 1.81 13.23c0 10.93-7.899 19.8-17.64 19.8h-65.79l-511.73-.03z"/><path d="m164.51 535.29.76 2.76 34.51 124.99c0 6.75 7.9 12.24 17.64 12.24l407.43.029c9.75 0 17.641-5.479 17.641-12.239l34.509-124.99.76-2.76"/><path d="m694.05 538.04-33.59-38.43-477.98.01-33.59 38.43m23.41-360.74 30.76 38.43h435.38l30.77-38.43m-548.73 57.88 32.52 32.53-28.14 203.69-41.54 35.99m639.01-273.81-.67.67-31.86 31.86 28.14 203.68 40.68 35.25.86.74m-46.1-35.35 1.09 7.77c0 7.61-6.08 13.79-13.56 13.79h-558.34c-7.49 0-13.56-6.18-13.56-13.79l.86-6.09 33.35-236.85c0-7.62 6.07-13.79 13.56-13.79h489.91c7.489 0 13.56 6.17 13.56 13.79z"/></g><path d="m0 0h850.394v850.394h-850.394z" fill="none"/></svg>