<svg height="850" viewBox="0 0 850 850" width="850" xmlns="http://www.w3.org/2000/svg"><path d="m587.1 651 90.7 107.5-522 18-1.7-.5 1.7-5 2-4.7 2.3-4.8 2.5-4.7 2.7-4.5 3-4.3 3.3-4.2 3.2-4 3.5-4 3.8-3.8 4-3.7 4-3.5 4.2-3.5 4.5-3.5 9.3-6.5 9.7-6.3 10.3-6 10.5-5.7 10.7-5.5 11.3-5.5 11.2-5.5 22.5-10.5 7.3-3.5 7.5-3.5 3.5-1.8 3.5-2 3.2-2.2 3-2.3 3 2.5 5 4.5 7.3 6 4.5 3.3 4.7 3.5 5.5 3.7 5.8 3.5 6.5 3.8 6.7 3.5 7.3 3.5 7.5 3.2 8.2 3 8.5 2.5 8.8 2.5 9.5 1.8 9.5 1.2 5 .5 5 .3 5.2.2h5.3l5.2-.2 5.5-.3 5.5-.5 5.5-.7 5.5-1 5.8-1 5.7-1.5 6-1.5 6-1.8 6-2.2 6-2.3 6.3-2.5 6.2-2.7 6.3-3.3 6.2-3.2 6.5-3.8 6.5-4 6.5-4.2 6.8-4.5 6.5-4.8 6.7-5.2 6.8-5.5zm-3-293.5 1.5-.3 1.3-.5 1-.8 1-1 .8-1.3.5-1.3.3-1.8v-1.5l-.3-1.5-.3-1.5-.8-1.3-1-1.3-1-1-1-.5-1.3-.5h-1.5l-1.3.3-1.3.5-1 .8-1 1-.8 1.3-.5 1.3-.3 1.5-.3 1.8.3 1.5.5 1.5.8 1.3.8 1.3 1 .8 1.3.8 1.3.5zm-.5-25.5 1.8 2.3 1.5 2.5 1.8 3 .8 2 .8 2 .5 2 .3 2.3.3 2.3-.3 2.5-.3 2.3-.8 2.5-1.8 4.3-1 2-.8.8-.3.3-1.5.8-.3-.8-2.5-.3-2.3-.8-2-1-1.8-1-1.5-1.3-1.3-1.3-2.3-2.8-.5-.8-.3-.8-.3-2 .3-2.3.3-2.3 1-4.3.8-2.5 4.8-3.8 3.8-3z" fill="#a9d7f3"/><path d="m570.8 356.5 2.3 2.8 1.2 1.2 1.5 1.3 1.8 1 2 1 2.2.7 2.5.3.3.7-1.8 1-2.7.8-3.8.7-4.7.5-11.3.3h-13.5l-16.5-.3-.2-.2-.5-.5-.3-1v-.8l.3-.7.7-1 .8-.8 1.2-1.2 1.8-1 2.2-1.3 2.5-1.2 3.3-1.5 4-1.5 3.7-1.5 3.8-1.5 3.5-1.8 3.5-1.7 6.2-3.8 5.3-3.7-.8 2.5-1 4.2-.2 2.3-.3 2.2.3 2 .2.8z" fill="#fff"/><path d="m572.1 341.8-5.3 3.8-6.3 3.8-3.5 1.8-3.5 1.8-3.8 1.5-3.8 1.5-4 1.5-3.3 1.5-2.5 1.3-2.3 1.3-1.8 1-1.3 1.3-.8.8-.8 1-.3.8v.8l.3 1 .5.5.3.3 16.5.3h13.5l11.3-.3 4.8-.5 3.8-.8 2.8-.8 1.8-1 1.5-.8.3-.3.8-.8 1-2 1.8-4.3.8-2.5.3-2.3.3-2.5-.3-2.3-.3-2.3-.5-2-.8-2-.8-2-1.8-3-1.5-2.5-1.8-2.3-3 3-3.8 3zm52 247.2-6.8 1-6.8 1.3-6.5 1.5-3 .8-2.8 1-4 1.8-1.8 1.3-1.5 1-2.8 2.8-2.5 2.5-2 3-1.5 2.8-1.3 3-1 3.3-.5 3-.3 3.3v3.3l.3 3.3.5 3.3.8 3 .8 3.3 1 3.3 2.5 6-6.8 5.5-6.8 5.3-6.5 4.8-6.8 4.5-6.5 4.3-6.5 4-6.5 3.8-6.3 3.3-6.3 3.3-6.3 2.8-6.3 2.5-6 2.3-6 2.3-6 1.8-6 1.5-5.8 1.5-5.8 1-5.5 1-5.5.8-5.5.5-5.5.3-5.3.3h-5.3l-5.3-.3-5-.3-5-.5-9.5-1.3-9.5-1.8-8.8-2.5-8.5-2.5-8.3-3-7.5-3.3-7.3-3.5-6.8-3.5-6.5-3.8-5.8-3.5-5.5-3.8-4.8-3.5-4.5-3.3-7.3-6-5-4.5-3-2.5 2.5-2 2-2.3 2-2.5 2-2.5 1.5-2.8 1.5-3.3 1-3.5 1-3.5.8-5.5.5-5.3v-5.5l-.3-5.5-.8-5.5-.8-5.5-1.3-5.5-1.3-5.5-2.8-11-2.8-10.8-2.5-10.5-1-5-.8-5 2.3-1 1.8-.8 1.8-1.3 1.3-1.3 1-1.5 1-1.5.8-1.8.8-2 1-4.5 1-5 1.5-5.8 1.8-6.2 12-40.5-1.8-4.3-1.8-4.3-2.3-4-2.8-3.8-2.8-3.8-2.8-3.8-6.3-7-6.3-7.5-3-3.8-2.8-4-2.5-4.3-2.5-4.5-1.8-4.5-1.5-5-1.3-6-.8-5.8-.3-5.5.3-5.3 1-5 1.3-4.5 1.5-4.5 2.3-4.3 2.3-4 2.8-3.8 3.3-3.5 3.3-3 3.8-3 4-2.5 4-2.5 4.3-2 4.3-1.8 4-.8 2-.3 1.8-.3 1.8.3 1.8.3 3 .8 3 1.5 3 1.8 2.5 2.5 2.5 2.8 2.5 3 2.3 3.5 2.3 4 4.5 8.3 4.5 9.3.3.8.3 1.5.5 2 .5.8.8.8.8.5h1l1-.5 1.5-.8 1.5-1.5 1.8-2.3 2-3 2.3-3.8 2.3-4.3 1.8-4.8 1.8-4.8 1.3-5.3 1-5.3 1-5.5 1.3-11.3.8-11.5 1-11.8 1-11.5.8-5.5.8-5.5.8-2.5.5-2.5.8-2 1-2 1-1.8 1.3-1.5 1.3-1.5 1.5-1.3 1.8-1 1.5-1 2-.8 2-.8 4.3-1.3 5-.8 5.3-.8 6-.5 13.8-1 7.8-.8 8-1 9-1.3 9.3-2 9.3-1.8 8.5-1.5 15-2.5 12.8-1.8 11-1.8 5-1.3 4.8-1 4.5-1.5 4.5-1.5 4.3-2 4.5-2.3 4.5-2.8 4.8-3.5 5.3-4.3 4.8-4.5 4-4.8 2-2.5 1.8-2.5 1.8.3 3.3 2.8 3.3 3 3 3.5 1.3 2 1.5 2 1.3 2.5 1.3 2.5 2.5 6.3 2.3 7.5 2.5 9.3 1.5 7.5.8 6.3.5 6v5.3l-.3 5.5-.5 5.5-1 13-.3 6.8v9l.5 2.8.5 3 .8 2.8 1 2.8 1.3 2.8 1.5 3 1.8 2.8 2.3 3 2.3 3 3 3 3.3 3 13.3 12.5 9.5 8.3 7.8 6.8 8.3 6.5 2 2 1.8 2.3 1.3 2.3.8 2.3.5 2.3.3 2.5-.3 2.3-.5 2.3-.5 2.3-1 2-1 2-1.3 1.8-1.3 1.5-1.5 1.3-1.5 1-1.5.8-6.8 2.5-3.3.8-4.5 1-9.8 1.8-1.3.5-1.3.8-1 1.3-1 1.5-.5 1.8-.8 2-.3 2-.3 2.3v4.6l.3 2.3.5 2 .8 2 .8 1.8 1 1.5 1 1.3 4.8 4.3 2 2 .8 1 .5 1 .3 1 .3 1-.3 1-.8 1-1 1-1.3 1-1.8 1.3-2.5 1-7 3.3-6.5 3-6 3.3-6.3 3.5-6.3 4-6.8 4.3-16.7 9.9 6.8 2.3 16.3 5.5 9.8 2.8 9.8 2.8 8.8 2.3 3.8.7 3.5.5-1.3 6.3-2 9.3-.8 4.8-.5 4.5.3 4 .3 1.5.3 1.3.8 1.8.5 2 .5 2.3.3 2.5v5.6l-.3 2.8-.5 3-.8 2.8-1.3 3-1.5 2.8-1.8 2.5-2 2.5-2.5 2.3-3 2-3.5 1.8-2.5 1-2.8.8-5.8 1.5-6.3 1.3-6.6.1z" fill="#ffeec8"/><path d="m323.1 542.8-2 .5-2.5.5-5.8.5h-4.5l-4-.3-4-.5-3.7-1-3.5-1.5-3.8-1.7-3.5-2.3-3.7-2.7-4-3.3-4.5-3.5-9.5-9.2-26.3-25-4.5-4.5-4-4.3-4-4.7-3.7-4.8-3.5-4.7-3.5-4.8-3.3-5-3-5-2.7-5-2.8-5.2-2.5-5.3-2.2-5-4.3-10.5-3.7-10.2-3.3-10.3-2.7-9.7-2.5-9.8-2-9-1.8-8.7-1.5-8-2.2-14-1-6.5-.8-7.8-.5-8.5-.5-9-.2-9.7v-10.3l.2-10.5.5-10.5 1-10.7 1.3-10.5 1.5-10.3 2-9.7 2.5-9.3 1.2-4.5 1.5-4.2 1.8-4 1.7-3.8 1.8-3.7 2-3.3 8.2-12.2 8-11.3 7.3-9.7 6.7-8.3 5.5-7 4.3-5 3.7-4 3.3-3 9-7.7 6.5-5.3 7.5-5.7 8.2-6.3 9.3-6.2 9.7-6.5 10.3-6.3 10.5-6 5.2-2.7 5.5-2.5 5.5-2.5 5.3-2 5.5-2 5.2-1.8 5.3-1.2 5.2-1 5.3-.8 5-.5 19.5-.7 19-1 18.5-.8 9-.2 8.7-.3 8.5.3 8.3.2 8 .8 7.7 1 7.5 1.2 7.3 1.8 7 2 6.5 2.7 6.5 3.3 7 3.7 7.5 4.3 7.5 4.7 7.7 5.3 8 5.5 7.8 5.5 8 6 7.5 6 7.5 6 7 5.7 6.7 5.8 6.3 5.7 5.5 5.3 5 5 4.2 4.5 2.8 3 2.2 3.2 1.8 3.3 1.7 3.2 1.3 3.3.7 3.2.8 3.3.2 3.5v3.2l-.2 3.3-.5 3.5-1 3.2-1 3.3-1.3 3.2-1.7 3.3-1.8 3-1.7 2.5-2 2.5-4 4.7-4.8 4.5-5.2 4.3-4.8 3.5-4.5 2.7-4.5 2.3-4.2 2-4.5 1.5-4.5 1.5-4.8 1-5 1.2-11 1.8-12.7 1.7-15 2.5-8.5 1.5-9.3 1.8-9.2 2-9 1.2-8 1-7.8.8-13.7 1-6 .5-5.3.7-5 .8-4.2 1.2-2 .8-2 .7-1.5 1-1.8 1-1.5 1.3-1.2 1.5-1.3 1.5-1 1.7-1 2-.7 2-.5 2.5-.8 2.5-.7 5.5-.8 5.5-1 11.5-1 11.8-.7 11.5-1.3 11.2-1 5.5-1 5.3-1.2 5.2-1.8 4.8-1.7 4.7-2.3 4.3-2.2 3.7-2 3-1.8 2.3-1.5 1.5-1.5.7-1 .5h-1l-.7-.5-.8-.7-.5-.8-.5-2-.2-1.5-.3-.7-4.5-9.3-4.5-8.2-2.2-4-2.3-3.5-2.5-3-2.5-2.8-2.5-2.5-3-1.7-3-1.5-3-.8-1.7-.2-1.8-.3-1.7.3-2 .2-4 .8-4.3 1.7-4.2 2-4 2.5-4 2.5-3.8 3-3.2 3-3.3 3.5-2.7 3.8-2.3 4-2.2 4.2-1.5 4.5-1.3 4.5-1 5-.2 5.3.2 5.5.8 5.7 1.2 6 1.5 5 1.8 4.5 2.5 4.5 2.5 4.3 2.7 4 3 3.7 6.3 7.5 6.2 7 2.8 3.8 2.7 3.7 2.8 3.8 2.2 4 1.8 4.2 1.7 4.3-12 40.5-1.7 6.2-1.5 5.8-1 5-1 4.5-.8 2-.7 1.7-1 1.5-1 1.5-1.3 1.3-1.7 1.2-1.8.8z" fill="#9e5c26"/><path d="m590.3 349.3v1.5l-.2 1.7-.5 1.3-.8 1.2-1 1-1 .8-1.2.5-1.5.2h-1.3l-1.2-.5-1.3-.7-1-.8-.7-1.2-.8-1.3-.5-1.5-.2-1.5.2-1.7.3-1.5.5-1.3.7-1.2 1-1 1-.8 1.3-.5 1.2-.2h1.5l1.3.5 1 .5 1 1 1 1.2.7 1.3.3 1.5z" fill="#231f20"/><g fill="none" stroke="#231f20" stroke-linecap="round" stroke-miterlimit="10"><path d="m572.1 341.8-5.3 3.7-6.2 3.8-3.5 1.7-3.5 1.8-3.8 1.5-3.7 1.5-4 1.5-3.3 1.5-2.5 1.2-2.2 1.3-1.8 1-1.2 1.2-.8.8-.7 1-.3.7v.8l.3 1 .5.5.2.2 16.5.3h13.5l11.3-.3 4.7-.5 3.8-.7 2.7-.8 1.8-1 1.5-.7.2-.3.8-.7 1-2 1.7-4.3.8-2.5.2-2.2.3-2.5-.3-2.3-.2-2.2-.5-2-.8-2-.7-2-1.8-3-1.5-2.5-1.7-2.3-3 3-3.8 3z" stroke-width="7"/><path d="m597.8 304.5-1-.2-2.2-.8-4.3-.7-2.7-.3-3-.2h-3.8l-4 .2-4.5.5-4.7.8-5.5 1-5.8 1.5-6.5 1.7-6.7 2.5-7.8 3-6.7 3.3-6.3 3.5-5.2 3.2-4.8 3.5-4.2 3.5-3.8 3.3-3 3" stroke-width="14"/><path d="m572.1 341.5v.3l-.8 2.5-1 4.2-.2 2.3-.3 2.2.3 2 .2.8.5.7 2.3 2.8 1.2 1.2 1.5 1.3 1.8 1 2 1 2.2.7 2.5.3" stroke-width="7"/><path d="m610.3 211.8-1.7 2.5-2 2.5-4 4.7-4.8 4.5-5.2 4.3-4.8 3.5-4.5 2.7-4.5 2.3-4.2 2-4.5 1.5-4.5 1.5-4.8 1-5 1.2-11 1.8-12.7 1.7-15 2.5-8.5 1.5-9.3 1.8-9.2 2-9 1.2-8 1-7.8.8-13.7 1-6 .5-5.3.7-5 .8-4.2 1.2-2 .8-2 .7-1.5 1-1.8 1-1.5 1.3-1.2 1.5-1.3 1.5-1 1.7-1 2-.7 2-.5 2.5-.8 2.5-.7 5.5-.8 5.5-1 11.5-1 11.8-.7 11.5-1.3 11.2-1 5.5-1 5.3-1.2 5.2-1.8 4.8-1.7 4.7-2.3 4.3-2.2 3.7-2 3-1.8 2.3-1.5 1.5-1.5.7-1 .5h-1l-.7-.5-.8-.7-.5-.8-.5-2-.2-1.5-.3-.7-4.5-9.3-4.5-8.2-2.2-4-2.3-3.5-2.5-3-2.5-2.8-2.5-2.5-3-1.7-3-1.5-3-.8-1.7-.2-1.8-.3-1.7.3-2 .2-4 .8-4.3 1.7-4.2 2-4 2.5-4 2.5-3.8 3-3.2 3-3.3 3.5-2.7 3.8-2.3 4-2.2 4.2-1.5 4.5-1.3 4.5-1 5-.2 5.3.2 5.5.8 5.7 1.2 6 1.5 5 1.8 4.5 2.5 4.5 2.5 4.3 2.7 4 3 3.7 6.3 7.5 6.2 7 2.8 3.8 2.7 3.7 2.8 3.8 2.2 4 1.8 4.2 1.7 4.3-12 40.5-1.7 6.2-1.5 5.8-1 5-1 4.5-.8 2-.7 1.7-1 1.5-1 1.5-1.3 1.3-1.7 1.2-1.8.8-2.2 1-2 .5-2.5.5-5.8.5h-4.5l-4-.3-4-.5-3.7-1-3.5-1.5-3.8-1.7-3.5-2.3-3.7-2.7-4-3.3-4.5-3.5-9.5-9.2-26.3-25-4.5-4.5-4-4.3-4-4.7-3.7-4.8-3.5-4.7-3.5-4.8-3.3-5-3-5-2.7-5-2.8-5.2-2.5-5.3-2.2-5-4.3-10.5-3.7-10.2-3.3-10.3-2.7-9.7-2.5-9.8-2-9-1.8-8.7-1.5-8-2.2-14-1-6.5-.8-7.8-.5-8.5-.5-9-.2-9.7v-10.3l.2-10.5.5-10.5 1-10.7 1.3-10.5 1.5-10.3 2-9.7 2.5-9.3 1.2-4.5 1.5-4.2 1.8-4 1.7-3.8 1.8-3.7 2-3.3 8.2-12.2 8-11.3 7.3-9.7 6.7-8.3 5.5-7 4.3-5 3.7-4 3.3-3 9-7.7 6.5-5.3 7.5-5.7 8.2-6.3 9.3-6.2 9.7-6.5 10.3-6.3 10.5-6 5.2-2.7 5.5-2.5 5.5-2.5 5.3-2 5.5-2 5.2-1.8 5.3-1.2 5.2-1 5.3-.8 5-.5 19.5-.7 19-1 18.5-.8 9-.2 8.7-.3 8.5.3 8.3.2 8 .8 7.7 1 7.5 1.2 7.3 1.8 7 2 6.5 2.7 6.5 3.3 7 3.7 7.5 4.3 7.5 4.7 7.7 5.3 8 5.5 7.8 5.5 8 6 7.5 6 7.5 6 7 5.7 6.7 5.8 6.3 5.7 5.5 5.3 5 5 4.2 4.5 2.8 3 2.2 3.2 1.8 3.3 1.7 3.2 1.3 3.3.7 3.2.8 3.3.2 3.5v3.2l-.2 3.3-.5 3.5-1 3.2-1 3.3-1.3 3.2-1.7 3.3z" stroke-width="21"/><path d="m322.6 535.5.2 3.5.3 3.8.7 5 1 5 2.5 10.5 2.8 10.7 2.7 11 1.3 5.5 1.2 5.5.8 5.5.7 5.5.3 5.5v5.5l-.5 5.3-.8 5.5-1 3.5-1 3.5-1.5 3.2-1.5 2.8-2 2.5-2 2.5-2 2.2-2.5 2-3 2.3-3.2 2.2-3.5 2-3.5 1.8-7.5 3.5-7.3 3.5-22.5 10.5-11.2 5.5-11.3 5.5-10.7 5.5-10.5 5.7-10.3 6-9.7 6.3-9.3 6.5-4.5 3.5-4.2 3.5-4 3.5-4 3.7-3.8 3.8-3.5 4-3.2 4-3.3 4.2-3 4.3-2.7 4.5-2.5 4.7-2.3 4.8-2 4.7-1.7 5-1.3 4.8m525-22.3-90.7-107.5-2-3.7-2.5-6-1-3.3-.8-3.2-.7-3-.5-3.3-.3-3.2v-3.3l.3-3.2.5-3 1-3.3 1.2-3 1.5-2.7 2-3 2.5-2.5 2.8-2.8 1.5-1 1.7-1.2 4-1.8 2.8-1 3-.7 6.5-1.5 6.7-1.3 6.8-1 6.5-1 6.2-1.2 5.8-1.5 2.7-.8 2.5-1 3.5-1.7 3-2 2.5-2.3 2-2.5 1.8-2.5 1.5-2.7 1.2-3 .8-2.8.5-3 .2-2.7v-5.5l-.2-2.5-.5-2.3-.5-2-.8-1.7-.2-1.3-.3-1.5-.2-4 .5-4.5.7-4.7 2-9.3 1.3-6.2-3.5-.5-3.8-.8-8.7-2.2-9.8-2.8-9.7-2.7-16.3-5.5-6.7-2.3 15.7-10.7 6.8-4.3 6.2-4 6.3-3.5 6-3.2 6.5-3 7-3.3 2.5-1 1.7-1.2 1.3-1 1-1 .7-1 .3-1-.3-1-.2-1-.5-1-.8-1-2-2-4.7-4.3-1-1.2-1-1.5-.8-1.8-.7-2-.5-2-.3-2.2v-4.5l.3-2.3.2-2 .8-2 .5-1.7 1-1.5 1-1.3 1.2-.7 1.3-.5 9.7-1.8 4.5-1 3.3-.7 6.7-2.5 1.5-.8 1.5-1 1.5-1.2 1.3-1.5 1.2-1.8 1-2 1-2 .5-2.2.5-2.3.3-2.2-.3-2.5-.5-2.3-.7-2.2-1.3-2.3-1.7-2.2-2-2-8.3-6.5-7.7-6.8-9.5-8.2-13.3-12.5-3.2-3-3-3-2.3-3-2.2-3-1.8-2.8-1.5-3-1.2-2.7-1-2.8-.8-2.7-.5-3-.5-2.8v-9l.3-6.7 1-13 .5-5.5.2-5.5v-5.3l-.5-6-.7-6.2-1.5-7.5-2.5-9.3-2.3-7.5-2.5-6.2-1.2-2.5-1.3-2.5-1.5-2-1.2-2-3-3.5-3.3-3-3.2-2.8" stroke-width="21"/><path d="m500.1 598 9 .3 10.2.5h13l15.3-.3 16.5-.5 8.5-.5 8.7-.7 8.5-1 8.5-1.3 6.8-1 6.5-1.2 6.5-1.5 6-1.8 5.5-1.7m-307.8 63.2.5.5 3 2.5 5 4.5 7.3 6 4.5 3.3 4.7 3.5 5.5 3.7 5.8 3.5 6.5 3.8 6.7 3.5 7.3 3.5 7.5 3.2 8.2 3 8.5 2.5 8.8 2.5 9.5 1.8 9.5 1.2 5 .5 5 .3 5.2.2h5.3l5.2-.2 5.5-.3 5.5-.5 5.5-.7 5.5-1 5.8-1 5.7-1.5 6-1.5 6-1.8 6-2.2 6-2.3 6.3-2.5 6.2-2.7 6.3-3.3 6.2-3.2 6.5-3.8 6.5-4 6.5-4.2 6.8-4.5 6.5-4.8 6.7-5.2 6.8-5.5.7-.8" stroke-width="21"/></g></svg>