<svg height="850" viewBox="0 0 850 850" width="850" xmlns="http://www.w3.org/2000/svg"><path d="m545 443.3v-.8l-.3-1-.7-1.5-.5-.5-.5-.5-.8-.3h-1.6l-.6.3-.5.3-.8.5-.8 1.5-.3.8-.3 1v.8l.3 1 .8 1.5.5.5.5.5.8.3h1.6l.8-.3.8-.3.5-.5.8-1.5.5-.8v-1zm3-4.5.3 1.3.5 2.5.3 1.3v2.6l-.5.8-1.3 1.5-1.5 1.5-1 .5-1 .5-1.3.5-1.3.3v.8l-1-.8h-.2l-.5-.5-.8-1.3-.8-2.5-.5-1.3-.3-1.5v-2.6l.5-2.5.8-2.3 1-1.8 1-1.3 1-1.3 1.5 1.5 2.3 1.8zm-240.8 9 .8-.3.8-.3.8-.5.5-.5.8-1.5v-2.5l-.3-1-1-1.3-.5-.5-.8-.5-.5-.3h-.8l-.8.3-.8.3-.8.5-.5.5-.8 1.5v2.6l.3 1 1 1.3.5.5.5.5.8.3zm-.2-14.5 1 1.3.8 1.5 1 1.8.8 2.3.8 2.3v2.8l-.3 1.3-.5 1.5-1 2.3-.5 1.3-.5.5-1 .5-.3-.5-1.3-.3-1.3-.3-1-.5-1-.8-1.8-1.5-1.3-1.3-.3-1-.3-1v-1.5l.3-1.5.5-2.3.5-1.5 2.8-2 2-1.8zm378.5 181.2 2-2.5 2 1.5 1.7 1.5 4.3 2.3 8.7 4 12.8 6 12.5 6.2 6 3 6 3.3 5.5 3.2 5.5 3.5 5.2 3.8 5 4 4.5 4 4 4.2 3.8 4.8 3.2 4.7 1.3 2.5 1.5 2.8 1 2.7 1 2.8-3.5 1.7-292-8 52-63.7.7 1 2.5 1.7 4 2.8 5.5 3.2 6.5 3.5 8 3.5 4.3 1.8 4.5 1.7 5 1.8 5 1.2 5.2 1.5 5.5 1 5.5.8 6 .7 5.8.3h6.2l6.3-.5 6.2-.8 6.5-1 6.5-1.7 6.8-2 6.5-2.5 6.7-3.3 6.8-3.7 6.7-4.3zm-376.5-1.5 50.5 63.5-295 9.5.7-3 1.3-3 1-2.7 1.5-2.8 1.2-2.7 1.8-2.5 3.5-4.8 4.2-4.7 4.5-4.3 5-4 5.3-3.7 5.5-3.8 5.7-3.5 6.3-3.2 6.2-3.3 12.8-6.2 13.2-6.3 5-2.5 5-2.2 2.5-1.5 2.3-1.5 2-1.8 2-2 .5.5.7.5 2.3 1.5 3.5 2.5 4.7 3 6 3.3 7.3 3.5 4 1.7 4 1.5 4.5 1.5 4.7 1.5 5 1 5.3 1.3 5.5.7 5.5.5 6 .3 6-.3 6-.5 6.5-.7 6.5-1.3 6.7-1.7 6.8-2 7-2.8 7-3.2 7.2-3.8 7.5-4.5 7.3-5z" fill="#a9d7f3"/><path d="m548 438.8 3 2 3.2 2 4 2 4.3 1.7 4 1.8 2.7 1.5 1.8 1.2.7 1 .3.8-.3.5-.2.5-9.5.2h-7.5l-6.3-.2-2.5-.3-1.7-.2-2.8-.8v-.7l1.3-.3 1.2-.5 1-.5 1-.5 1.5-1.5 1.3-1.5.5-.7v-2.5l-.3-1.3-.5-2.5zm-248.3 8.5 1.3 1.2 1.7 1.5 1 .8 1 .5 1.3.2 1.2.3.3.5-1 .5-1.8.5-2 .2-2.5.3-6.2.2h-17l-.5-.5v-.7l.2-.8.8-1 1.5-1.2 2.7-1.5 4-1.5 4.5-1.8 3.8-2 3.5-2 3-2.2-.5 1.5-.5 2.2-.3 1.5v1.3l.3 1zm239.8-260.8v95.8l-.3 2.2-.2 2.3-.5 2.2-.8 2-1 2-1.2 1.8-1.3 1.7-1.5 1.8-1.5 1.2-1.7 1.5-1.8 1-2 1-2.2.8-2 .5-2.3.5h-103.7l-4 9.2-10.5 25-6.8 17.5-7.7 19.8-8.5 22-8.5 23.2 1.2-14.7 2.8-36 3-44.5 1.2-21.5 1-18.8v-101.7l.5-2.3.5-2 .8-2.2 1-2 1-1.8 1.2-1.7 1.5-1.5 1.8-1.5 1.7-1.3 1.8-1.2 2-1 2-.8 2.2-.5 2.3-.2 2.2-.3h115.8l2.2.3 2.3.2 2 .5 2.2.8 2 1 1.8 1.2 1.7 1.3 1.5 1.5 1.5 1.5 1.3 1.7 1.2 1.8 1 2 .8 2.2.5 2 .2 2.3z" fill="#fff"/><path d="m300.5 438.8-3 2.3-3.5 2-3.8 2-4.5 1.8-4 1.5-2.8 1.5-1.5 1.3-.8 1-.3.8v.8l.5.5h17.1l6.3-.3 2.5-.3 2-.3 1.8-.5 1-.5 1-.5.5-.5.5-1.3 1-2.3.5-1.5.3-1.3v-2.8l-.8-2.3-.8-2.3-1-1.8-.8-1.5-1-1.3-1.8 1.8-2 1.8zm14.7 142.5-2.3 1-1.8 1.3-1.5 1.3-1.3 1.5-1.3 1.5-.8 1.5-.8 1.5-.5 1.5-.5 1.8v1.5l-.3 3.5.5 3.3 1 3.5 1 3.3-7.3 5-7.5 4.5-7.3 3.8-7 3.3-7 2.8-6.8 2-6.8 1.8-6.5 1.3-6.5.8-6 .5-6 .3-6-.3-4.9-1.1-5.5-.8-5.3-1.3-5-1-4.8-1.5-4.4-1.4-4-1.5-4-1.8-7.3-3.5-6-3.3-4.8-3-3.5-2.5-2.3-1.5-.8-.5-.3-.4 1.5-2 1.3-2.3 1-2.5.8-3 .5-3 .3-3v-3l-.3-3-.8-6.3-1.5-6.3-3-12.3-1.5-6-1-5.5 1.3-.5 1.3-.5.8-.8.8-.8 1.3-1.8.8-2 .5-2.5.8-2.8.8-3.3 1-3.8 6.3-22-1-2.5-1-2.5-1.3-2.3-1.5-2-3.3-4.3-3.5-4-3.5-4.3-3.3-4.3-1.5-2.5-1.1-2.3-1-2.5-1-2.8-.5-3.5-.5-3.2v-6l.5-2.8.8-2.5 1-2.8 1-2.3 1.5-2.3 1.5-2 1.8-2 2-1.8 2-1.8 2.3-1.5 2.3-1.3 2.5-1.3 2.3-.8 2.3-.5 2-.3 2 .3 1.8.5 1.8.8 1.5 1 1.5 1.3 1.5 1.8 1.5 1.8 2.5 4 2.5 4.8 2.5 5.3.3 1.3.5 1 .5 1 .5.3h.5l.8-.3.8-.5.8-1 1-1 2.5-4 1.3-2.3 1-2.8.8-2.8.8-2.8 1.3-6.3.5-6.3 1-13 .8-6.5.8-6.3.8-2.8 1-2.3 1.3-2 1.5-1.5 2-1 2-1 2.5-.5 2.8-.5 6.5-.8 7.8-.5 8.8-1 5-.8 5.2-1 10-2 8.5-1.3 7.3-1.3 6-1 5.5-1.3 2.8-.8 2.5-.8 2.5-1.3 2.5-1.3 2.5-1.5 2.5-2 3-2.3 2.8-2.5 2.3-2.8 2-3 1 .3 2 1.5 1.8 1.8 1.5 2 1.8 2.3 1.3 2.8 1.5 3.5 1.3 4.3 1.3 5.3 1 4.3.5 3.5.3 3.3v3l-.5 6.3-.5 7.3-.3 3.8v3.5l.3 3.3.8 3.3 1.3 3 2 3.3 2.5 3.3 3.5 3.5 7.5 7 5.3 4.8 9 7.5 1.3 1.3 1 1 .5 1.3.5 1.3.3 1.5.3 1.3-.3 1.3-.3 1.3-.8 2.5-1.3 2-1.5 1.8-1 .5-.8.5-5.4 1.2-2 .5-8 1.5-.8.3-.8.5-.5.8-.5.8-.8 2-.3 2.5v2.5l.5 2.5.8 2 .5 1 .8.8 2.5 2.3 1.3 1.3.8 1 .3.5v.8l-.3.5-.3.5-.5.5-1 .8-2.3 1.3-7.5 3.5-7 3.8-7.3 4.5-9 6 4 1.5 9 3 11 3.3 5 1.3 4 .5-.8 3.8-1 5-.5 2.8-.3 2.5v2.3l.5 1.8.5 2 .5 2.8v3l-.5 3.3-.5 1.5-.5 1.8-.8 1.5-1 1.5-1.3 1.3-1.5 1.3-1.4.2-1.8 1-3 1-3.3.8-7 1.3-7.8 1.3-3.8.8zm217.8-.3-3.3-1-3.5-.8-7.8-1.3-7.3-1.3-3.3-1-2.8-1-2-1-1.8-1-1.3-1.3-.9-1.3-1-1.5-.8-1.5-.8-1.5-.5-1.8-.3-3.3v-3l.3-2.5.8-2.3.5-2 .3-3 .3-7.8v-7.8l-.5-4.8 8.8-.8 10-.5 11.5-.8-5.6-1.1-4.3-1.5-3.7-1.5-3-1.3-5.8-3.3-3.2-1.4-3.8-1.8-1.5-.8-1-.8-.7-.6-.8-1-.5-1-.3-1v-2.3l.5-2.3 1-2 1.3-1.8 1.3-1.5.5-.8.5-.8 1-2 .3-2.5v-2.5l-.3-2.5-.8-2-.5-1-.5-.8-.7-.2-.8-.3-8-1.3-1.8-.8-3.8-1.3-1-.3-.8-.8-1.5-1.5-1.3-2-1-2.5-.3-1.3v-2.4l.3-1.3.5-1.3.8-1.3 1-1.3 1-1 9-7.5 5.3-4.8 7.8-7 3.3-3.5 2.8-3.3 1.8-3.3 1.3-3.3.8-3 .3-3.3v-7.3l-.8-7.3-.3-6.3v-3l.3-3.3.5-3.8.8-4 1.3-5.3 1.5-4.3 1.3-3.5 1.5-2.8 1.5-2.5 1.8-1.8 1.8-1.8 2-1.5 1-.3 2 2.8 2.3 2.8 2.8 2.5 2.8 2.5 2.8 1.8 2.5 1.8 2.5 1.3 2.5 1 2.5 1 2.5.8 5.5 1.3 6.3 1 7.3 1 8.3 1.5 10 1.8 5.3 1 5 .8 9 1 7.8.8 6.3.5 2.8.5 2.5.8 2.3.8 1.8 1.3 1.5 1.5 1.3 1.8 1 2.3.8 3 1 6 .5 6.5 1 13 .8 6.5 1 6 .8 3 1 2.8 1 2.5 1.3 2.5 2.5 3.8 1 1.3.8.8.8.5.8.3h.5l.3-.3.8-.8.3-1 .3-1.5 2.8-5 2.5-4.8 2.5-4.3 1.3-1.8 1.5-1.5 1.5-1.3 1.5-1.3 1.8-.8 1.8-.5 2-.3 2 .3 2.3.5 2.5 1 2.3 1.3 2.5 1.3 2.3 1.5 2 1.5 1.8 2 1.8 1.8 1.8 2.3 1.3 2.3 1.3 2.3 1 2.5.5 2.8.5 2.8.3 3v3l-.5 3.3-.8 3.3-.8 2.8-1.3 2.8-1.3 2.5-1.5 2.3-3 4.5-3.5 4.3-3.5 4-3.3 4-1.5 2.3-1.3 2.3-1.3 2.3-.8 2.5 6.8 22.8 1 3.8.8 3 .5 3 .8 2.5.8 2 1.3 1.8.5.8 1 .5 1 .5 1.3.5-1 5.8-1.3 6-3.3 12.3-1.3 6-1 6.3v6.3l.3 3 .5 3 .3 2 .8 1.8.8 1.5.8 1.5 1.8 2.8 2.3 2.3-2 2.5-6.8 5-6.8 4.3-6.8 3.8-6.8 3.3-6.5 2.5-6.8 2-6.5 1.8-6.5 1-6.3.8-6.3.5h-6.3l-5.8-.3-6-.8-5.5-.8-5.5-1-5.3-1.5-5-1.3-5-1.8-4.5-1.8-4.3-1.8-8-3.5-6.5-3.5-5.5-3.3-4-2.8-2.5-1.8-.8-1 1.5-3.5 1.5-3.8 1-3.8.3-2v-4l-.3-2-2.3-2.4-.5-2-1-1.8-1.3-1.8-1.2-1.4-1.8-1.8-2-1.3-2.2-.9zm15-142.2-2.8-2.3-2.3-1.8-1.5-1.5-1 1.3-1 1.3-1 1.8-.8 2.3-.5 2.5v2.6l.3 1.5.5 1.3.8 2.5.8 1.3.5.5h.3l1 .8 2.8.8 1.8.3 2.5.3 6.3.3h7.5l9.5-.3.3-.5.3-.5-.3-.8-.8-1-1.8-1.3-2.8-1.5-4-1.8-4.3-1.8-4-2-3.3-2z" fill="#ffeec8"/><path d="m688 551.8-1.3-.5-1-.5-1-.5-.5-.8-1.2-1.7-.8-2-.7-2.5-.5-3-.8-3-1-3.8-6.7-22.7.7-2.5 1.3-2.3 1.2-2.2 1.5-2.3 3.3-4 3.5-4 3.5-4.2 3-4.5 1.5-2.3 1.2-2.5 1.3-2.7.7-2.8.8-3.2.5-3.3v-3l-.3-3-.5-2.7-.5-2.8-1-2.5-1.2-2.2-1.3-2.3-1.7-2.2-1.8-1.8-1.7-2-2-1.5-2.3-1.5-2.5-1.2-2.2-1.3-2.5-1-2.3-.5-2-.2-2 .2-1.7.5-1.8.8-1.5 1.2-1.5 1.3-1.5 1.5-1.2 1.7-2.5 4.3-2.5 4.7-2.8 5-.2 1.5-.3 1-.7.8-.3.2h-.5l-.7-.2-.8-.5-.7-.8-1-1.2-2.5-3.8-1.3-2.5-1-2.5-1-2.7-.7-3-1-6-.8-6.5-1-13-.5-6.5-1-6-.7-3-1-2.3-1.3-1.7-1.5-1.5-1.7-1.3-2.3-.7-2.5-.8-2.7-.5-6.3-.5-7.7-.7-9-1-5-.8-5.3-1-10-1.7-8.2-1.5-7.3-1-6.2-1-5.5-1.3-2.5-.7-2.5-1-2.5-1-2.5-1.3-2.5-1.7-2.8-1.8-2.7-2.5-2.8-2.5-2.2-2.7-2-2.8-2-3.5-1.5-3.7-.5-1.8-.3-2-.2-1.7v-2l.2-1.8.5-2 .5-1.7.5-2 1-1.8 1-1.7 1.3-1.8 1.5-1.7 5.2-5.5 6.8-6 7.7-6.5 8.5-6.8 8.8-6.5 8.7-6 8.5-5.2 4-2 3.8-1.8 3.5-1.5 4-1.2 4-1 4.2-.8 4.3-.5 4.7-.5 9.3-.2 10 .2 10.5.5 10.7.5 11 .5 2.8.3 3 .5 2.7.5 3 .7 6 2 6.3 2.5 6 3 6 3.5 5.7 3.5 5.5 3.5 5 3.8 4.8 3.5 7.7 6 5.3 4.5 1.7 1.5 2.3 2.5 5.5 6.5 3.7 4.7 4 5.5 4.5 6.3 4.8 7 2 4 2 4.2 1.5 5 1.5 5.3 1 5.5 1 5.7.7 6 .5 6 .3 6 .2 5.8-.2 11.2-.5 10-1 8-1.5 7.8-1.8 9.5-1 5-1.5 5.5-1.5 5.5-1.7 5.7-2.3 5.8-2.2 6-2.8 5.7-3.2 5.8-3.3 5.5-4 5.5-4.2 5.2-5 5-14.8 14.3-5.5 5-4.5 3.7-2.2 1.8-2 1.2-2 1-2 .8-2.3.5-2 .2-2.5.3h-2.5l-3.2-.3z" fill="#f6cc4b"/><path d="m160.2 552-2.5.5-3.2.3h-4.8l-2.2-.5-2-.5-2-.8-2-1-2.3-1.2-2-1.5-4.7-4-5.5-5-14.8-14.3-4.7-5-4.3-5-4-5.5-3.5-5.7-3-5.8-2.7-5.7-2.5-5.8-2-5.7-2-5.8-1.5-5.7-1.3-5.3-1.2-5.2-1.8-9.3-1.2-8-1-8-.8-10v-17l.5-6 .5-6 .5-6 1-5.7 1.3-5.5 1.2-5.3 1.8-4.7 1.7-4.5 2.3-4 4.5-6.8 4.5-6.2 4.2-5.5 3.8-4.8 5.5-6.7 2-2.3 2-1.7 5-4.3 7.7-6.2 4.8-3.5 5.2-3.5 5.5-3.8 5.8-3.5 5.7-3.2 6.3-3 6-2.5 6-2.3 3-.7 3-.5 2.7-.5h3l11-.5 10.8-.5 10.2-.5 10-.3 9.5.3 4.5.2 4.5.5 4 .8 4.3 1 3.7 1.2 3.8 1.5 3.7 1.8 4 2.2 8.3 5 9 6 8.7 6.5 8.5 6.8 7.8 6.5 6.7 6.2 5 5.3 1.5 1.7 1.3 1.8 1.2 2 .8 1.7.7 1.8.5 2 .3 1.7.2 2v3.8l-.5 1.7-.5 2-1.2 3.5-2 3.5-2 3-2.3 2.8-2.7 2.5-3 2.2-2.5 2-2.5 1.5-2.5 1.3-2.5 1.2-2.5.8-2.8.7-5.5 1.3-6 1-7.2 1.2-8.5 1.3-10 2-5.3 1-5 .7-8.7 1-7.8.5-6.5.8-2.7.5-2.5.5-2 1-2 1-1.5 1.5-1.3 2-1 2.2-.7 2.8-.8 6.2-.7 6.5-1 13-.5 6.3-1.3 6.2-.7 2.8-.8 2.7-1 2.8-1.2 2.2-2.5 4-1 1-.8 1-.7.5-.8.3h-.5l-.5-.3-.5-1-.5-1-.2-1.2-2.5-5.3-2.5-4.7-2.5-4-1.5-1.8-1.5-1.7-1.5-1.3-1.5-1-1.8-.7-1.7-.5-2-.3-2 .3-2.3.5-2.2.7-2.5 1.3-2.3 1.2-2.2 1.5-2 1.8-2 1.7-1.8 2-1.5 2-1.5 2.3-1 2.2-1 2.8-.7 2.5-.5 2.7v6l.5 3.3.5 3.5 1 2.7 1 2.5 1.2 2.5 1.5 2.5 3.3 4.3 3.5 4.2 3.5 4 3.2 4.3 1.5 2 1.3 2.2 1 2.5 1 2.5-6.8 22.5-1 3.8-.7 3.2-.8 2.8-.5 2.5-.7 2-1.3 1.7-.7.8-.8.7-1.2.5z" fill="#9e5c26"/><path d="m541.5 438.8h.7l.8.2.5.5.5.5.7 1.5.3 1v1.8l-.5.7-.8 1.5-.5.5-.7.3-.8.2h-1.5l-.7-.2-.5-.5-.5-.5-.8-1.5-.2-1v-.8l.2-1 .3-.7.7-1.5.8-.5.5-.3.7-.2zm-234.5 0h.7l.5.2.8.5.5.5 1 1.3.2 1v2.5l-.7 1.5-.5.5-.8.5-.7.2-.8.3h-.7l-.8-.3-.5-.5-.5-.5-1-1.2-.2-1v-2.5l.7-1.5.5-.5.8-.5.7-.3z" fill="#231f20"/><g fill="none" stroke="#231f20" stroke-linecap="round" stroke-miterlimit="10"><path d="m307.5 452.3 1-.5.5-.5.5-1.3 1-2.2.5-1.5.2-1.3v-2.7l-.7-2.3-.8-2.2-1-1.8-.7-1.5-1-1.2-1.8 1.7-2 1.8-2.7 2-3 2.2-3.5 2-3.8 2-4.5 1.8-4 1.5-2.7 1.5-1.5 1.2-.8 1-.2.8v.7l.5.5h17l6.2-.2 2.5-.3 2-.2 1.8-.5z" stroke-width="7"/><path d="m315 417.8-1.8-.5-2.5-.3-3.2-.5-4.3.3-5.2.7-3 .5-3.5.8-3.5 1.2-3.8 1.3-4.5 1.7-3.7 1.8-3.5 2-3 1.7-2.8 2-2.2 2-3.8 3.5" stroke-width="14"/><path d="m300.5 438.8-.5 1.5-.5 2.2-.3 1.5v1.3l.3 1 .2 1 1.3 1.2 1.7 1.5 1 .8 1 .5 1.3.2 1.2.3" stroke-width="6.5"/><path d="m322 365.5-2 3-2.3 2.8-2.7 2.5-3 2.2-2.5 2-2.5 1.5-2.5 1.3-2.5 1.2-2.5.8-2.8.7-5.5 1.3-6 1-7.2 1.2-8.5 1.3-10 2-5.3 1-5 .7-8.7 1-7.8.5-6.5.8-2.7.5-2.5.5-2 1-2 1-1.5 1.5-1.3 2-1 2.2-.7 2.8-.8 6.2-.7 6.5-1 13-.5 6.3-1.3 6.2-.7 2.8-.8 2.7-1 2.8-1.2 2.2-2.5 4-1 1-.8 1-.7.5-.8.3h-.5l-.5-.3-.5-1-.5-1-.2-1.2-2.5-5.3-2.5-4.7-2.5-4-1.5-1.8-1.5-1.7-1.5-1.3-1.5-1-1.8-.7-1.7-.5-2-.3-2 .3-2.3.5-2.2.7-2.5 1.3-2.3 1.2-2.2 1.5-2 1.8-2 1.7-1.8 2-1.5 2-1.5 2.3-1 2.2-1 2.8-.7 2.5-.5 2.7v6l.5 3.3.5 3.5 1 2.7 1 2.5 1.2 2.5 1.5 2.5 3.3 4.3 3.5 4.2 3.5 4 3.2 4.3 1.5 2 1.3 2.2 1 2.5 1 2.5-6.8 22.5-1 3.8-.7 3.2-.8 2.8-.5 2.5-.7 2-1.3 1.7-.7.8-.8.7-1.2.5-1.3.5-2.5.5-3.2.3h-4.8l-2.2-.5-2-.5-2-.8-2-1-2.3-1.2-2-1.5-4.7-4-5.5-5-14.8-14.3-4.7-5-4.3-5-4-5.5-3.5-5.7-3-5.8-2.7-5.7-2.5-5.8-2-5.7-2-5.8-1.5-5.7-1.3-5.3-1.2-5.2-1.8-9.3-1.2-8-1-8-.8-10v-17l.5-6 .5-6 .5-6 1-5.7 1.3-5.5 1.2-5.3 1.8-4.7 1.7-4.5 2.3-4 4.5-6.8 4.5-6.2 4.2-5.5 3.8-4.8 5.5-6.7 2-2.3 2-1.7 5-4.3 7.7-6.2 4.8-3.5 5.2-3.5 5.5-3.8 5.8-3.5 5.7-3.2 6.3-3 6-2.5 6-2.3 3-.7 3-.5 2.7-.5h3l11-.5 10.8-.5 10.2-.5 10-.3 9.5.3 4.5.2 4.5.5 4 .8 4.3 1 3.7 1.2 3.8 1.5 3.7 1.8 4 2.2 8.3 5 9 6 8.7 6.5 8.5 6.8 7.8 6.5 6.7 6.2 5 5.3 1.5 1.7 1.3 1.8 1.2 2 .8 1.7.7 1.8.5 2 .3 1.7.2 2v3.8l-.5 1.7-.5 2-1.2 3.5z" stroke-width="14"/><path d="m160 548 .2 4 1 5.5 1.5 6 3 12.3 1.5 6.2.8 6.3.2 3v3l-.2 3-.5 3-.8 3-1 2.5-1.2 2.2-1.5 2-2 2-2 1.8-2.3 1.5-2.5 1.5-5 2.2-5 2.5-13.2 6.3-12.8 6.2-6.2 3.3-6.3 3.2-5.7 3.5-5.5 3.8-5.3 3.7-5 4-4.5 4.3-4.2 4.7-3.5 4.8-1.8 2.5-1.2 2.7-1.5 2.8-1 2.7-1.3 3-.7 3m265.5-108 7-1.2 3.2-.8 3-1 1.8-1 1.7-1.2 1.5-1.3 1.3-1.2 1-1.5.7-1.5.5-1.8.5-1.5.5-3.2v-3l-.5-2.8-.5-2-.5-1.7v-2.3l.3-2.5.5-2.7 1-5 .7-3.8-4-.5-5-1.2-11-3.3-9-3-4-1.5 9-6 7.3-4.5 7-3.7 7.5-3.5 2.2-1.3 1-.7.5-.5.3-.5.2-.5v-.8l-.2-.5-.8-1-1.2-1.2-2.5-2.3-.8-.7-.5-1-.7-2-.5-2.5v-2.5l.2-2.5.8-2 .5-.8.5-.7.7-.5.8-.3 8-1.5 2-.5 3.7-1.2.8-.5 1-.5 1.5-1.8 1.2-2 .8-2.5.2-1.2.3-1.3-.3-1.2-.2-1.5-.5-1.3-.5-1.2-1-1-1.3-1.3-9-7.5-5.2-4.7-7.5-7-3.5-3.5-2.5-3.3-2-3.2-1.3-3-.7-3.3-.3-3.2v-3.5l.3-3.8.5-7.2.5-6.3v-3l-.3-3.2-.5-3.5-1-4.3-1.2-5.2-1.3-4.3-1.5-3.5-1.2-2.7-1.8-2.3-1.5-2-1.7-1.7-2-1.5m36.5 310.7-50.5-63.5-2-4-1-3.2-1-3.5-.5-3.3.2-3.5v-1.5l.5-1.7.5-1.5.8-1.5.7-1.5 1.3-1.5 1.2-1.5 1.5-1.3 1.8-1.2 2.2-1 3.3-1.3 3.7-.7 7.8-1.3" stroke-width="14"/><path d="m260 583 5 .3 13.2.2h8.5l9.3-.5 9.7-.7 9.5-1 7.5-1.5 3.8-.8 3.5-1 2.7-1" stroke-width="14"/><path d="m541.2 452.5-1-.7h-.2l-.5-.5-.8-1.3-.7-2.5-.5-1.2-.3-1.5v-2.5l.5-2.5.8-2.3 1-1.7 1-1.3 1-1.2 1.5 1.5 2.2 1.7 2.8 2.3 3 2 3.2 2 4 2 4.3 1.7 4 1.8 2.7 1.5 1.8 1.2.7 1 .3.8-.3.5-.2.5-9.5.2h-7.5l-6.3-.2-2.5-.3-1.7-.2z" stroke-width="7"/><path d="m533.5 417.8 1.7-.5 2.3-.5 3.2-.3h4.5l5.3.8 3 .7 3.2.8 3.5 1 4 1.2 4.3 1.8 4 2 3.2 1.7 3.3 2 2.5 2 2.5 1.8 3.7 3.7" stroke-width="14"/><path d="m547.7 438.5.3.3.2 1.2.5 2.5.3 1.3v2.5l-.5.7-1.3 1.5-1.5 1.5-1 .5-1 .5-1.2.5-1.3.3h-.2" stroke-width="6.5"/><path d="m526.5 365.5 2 2.8 2.2 2.7 2.8 2.5 2.7 2.5 2.8 1.8 2.5 1.7 2.5 1.3 2.5 1 2.5 1 2.5.7 5.5 1.3 6.2 1 7.3 1 8.2 1.5 10 1.7 5.3 1 5 .8 9 1 7.7.7 6.3.5 2.7.5 2.5.8 2.3.7 1.7 1.3 1.5 1.5 1.3 1.7 1 2.3.7 3 1 6 .5 6.5 1 13 .8 6.5 1 6 .7 3 1 2.7 1 2.5 1.3 2.5 2.5 3.8 1 1.2.7.8.8.5.7.2h.5l.3-.2.7-.8.3-1 .2-1.5 2.8-5 2.5-4.7 2.5-4.3 1.2-1.7 1.5-1.5 1.5-1.3 1.5-1.2 1.8-.8 1.7-.5 2-.2 2 .2 2.3.5 2.5 1 2.2 1.3 2.5 1.2 2.3 1.5 2 1.5 1.7 2 1.8 1.8 1.7 2.2 1.3 2.3 1.2 2.2 1 2.5.5 2.8.5 2.7.3 3v3l-.5 3.3-.8 3.2-.7 2.8-1.3 2.7-1.2 2.5-1.5 2.3-3 4.5-3.5 4.2-3.5 4-3.3 4-1.5 2.3-1.2 2.2-1.3 2.3-.7 2.5 6.7 22.7 1 3.8.8 3 .5 3 .7 2.5.8 2 1.2 1.7.5.8 1 .5 1 .5 1.3.5 2.5.7 3.2.3h2.5l2.5-.3 2-.2 2.3-.5 2-.8 2-1 2-1.2 2.2-1.8 4.5-3.7 5.5-5 14.8-14.3 5-5 4.2-5.2 4-5.5 3.3-5.5 3.2-5.8 2.8-5.7 2.2-6 2.3-5.8 1.7-5.7 1.5-5.5 1.5-5.5 1-5 1.8-9.5 1.5-7.8 1-8 .5-10 .2-11.2-.2-5.8-.3-6-.5-6-.7-6-1-5.7-1-5.5-1.5-5.3-1.5-5-2-4.2-2-4-4.8-7-4.5-6.3-4-5.5-3.7-4.7-5.5-6.5-2.3-2.5-1.7-1.5-5.3-4.5-7.7-6-4.8-3.5-5-3.8-5.5-3.5-5.7-3.5-6-3.5-6-3-6.3-2.5-6-2-3-.7-2.7-.5-3-.5-2.8-.3-11-.5-10.7-.5-10.5-.5-10-.2-9.3.2-4.7.5-4.3.5-4.2.8-4 1-4 1.2-3.5 1.5-3.8 1.8-4 2-8.5 5.2-8.7 6-8.8 6.5-8.5 6.8-7.7 6.5-6.8 6-5.2 5.5-1.5 1.7-1.3 1.8-1 1.7-1 1.8-.5 2-.5 1.7-.5 2-.2 1.8v2l.2 1.7.3 2 .5 1.8 1.5 3.7z" stroke-width="14"/><path d="m688.2 547.8-.2 4-1 5.7-1.3 6-3.2 12.3-1.3 6-1 6.2v6.3l.3 3 .5 3 .2 2 .8 1.7.7 1.5.8 1.5 1.7 2.8 2.3 2.2 2 1.5 1.7 1.5 4.3 2.3 8.7 4 12.8 6 12.5 6.2 6 3 6 3.3 5.5 3.2 5.5 3.5 5.2 3.8 5 4 4.5 4 4 4.2 3.8 4.8 3.2 4.7 1.3 2.5 1.5 2.8 1 2.7 1 2.8 1 3m-265.5-107.8-7.3-1.2-3.2-1-2.8-1-2-1-1.7-1-1.3-1.3-1.2-1.5-1-1.5-.8-1.5-.7-1.5-.5-1.7-.3-3.3v-3l.3-2.5.7-2.2.5-2 .3-3 .2-7.8v-7.7l-.5-4.8 8.8-.7 10-.5 11.5-.8-5.5-1.5-4.3-1.5-3.7-1.5-3-1.2-5.8-3.3-3.2-1.5-3.8-1.7-1.5-.8-1-.7-.7-.8-.8-1-.5-1-.2-1v-2.2l.5-2.3 1-2 1.2-1.7 1.3-1.5.5-.8.5-.7 1-2 .2-2.5v-2.5l-.2-2.5-.8-2-.5-1-.5-.8-.7-.5-.8-.2-8-1.3-1.7-.7-3.8-1.3-1-.2-.7-.8-1.5-1.5-1.3-2-1-2.5-.2-1.2v-2.8l.2-1.2.5-1.3.8-1.2 1-1.3 1-1 9-7.5 5.2-4.7 7.8-7 3.2-3.5 2.8-3.3 1.7-3.2 1.3-3.3.7-3 .3-3.2v-7.3l-.8-7.2-.2-6.3v-3l.2-3.2.5-3.8.8-4 1.2-5.2 1.5-4.3 1.3-3.5 1.5-2.7 1.5-2.5 1.7-1.8 1.8-1.7 2-1.5m-38 310.7 52-63.7 1.5-3.5 1.5-3.8 1-3.7.2-2v-4l-.2-2-.5-1.8-.5-2-1-1.7-1.3-1.8-1.2-1.5-1.8-1.7-2-1.3-2.2-1-3.3-1-3.5-.7-7.7-1.3" stroke-width="14"/><path d="m588.5 583-5.3.3-13 .2-8.5-.2-9.5-.3-9.5-.7-9.7-1.3-7.5-1.2-7-1.8-3-1m-100-272.2h103.7l2.3-.5 2-.5 2.2-.8 2-1 1.8-1 1.7-1.5 1.5-1.2 1.5-1.8 1.3-1.7 1.2-1.8 1-2 .8-2 .5-2.2.2-2.3.3-2.2v-95.8l-.3-2.2-.2-2.3-.5-2-.8-2.2-1-2-1.2-1.8-1.3-1.7-1.5-1.5-1.5-1.5-1.7-1.3-1.8-1.2-2-1-2.2-.8-2-.5-2.3-.2-2.2-.3h-115.8l-2.2.3-2.3.2-2.2.5-2 .8-2 1-1.8 1.2-1.7 1.3-1.8 1.5-1.5 1.5-1.2 1.7-1 1.8-1 2-.8 2.2-.5 2-.5 2.3v101.7l-1 18.8-1.2 21.5-3 44.5-2.8 36-1.2 14.7 8.5-23.2 8.5-22 7.7-19.8 6.8-17.5 10.5-25zm-252 305.7.7.5 2.3 1.5 3.5 2.5 4.7 3 6 3.3 7.3 3.5 4 1.7 4 1.5 4.5 1.5 4.7 1.5 5 1 5.3 1.3 5.5.7 5.5.5 6 .3 6-.3 6-.5 6.5-.7 6.5-1.3 6.7-1.7 6.8-2 7-2.8 7-3.2 7.2-3.8 7.5-4.5 7.3-5 .5-.5m232 4.3.7 1 2.5 1.7 4 2.8 5.5 3.2 6.5 3.5 8 3.5 4.3 1.8 4.5 1.7 5 1.8 5 1.2 5.2 1.5 5.5 1 5.5.8 6 .7 5.8.3h6.2l6.3-.5 6.2-.8 6.5-1 6.5-1.7 6.8-2 6.5-2.5 6.7-3.3 6.8-3.7 6.7-4.3 6.8-5" stroke-width="14"/></g></svg>