<svg height="850.394" viewBox="0 0 850.394 850.394" width="850.394" xmlns="http://www.w3.org/2000/svg"><path d="m658.03 386.42-60.391.16h-112.159v-14.43c34.27-5.05 44.14-18.03 44.14-18.03v-41.49h84.27v41.31s9.87 12.98 44.141 18.05v14.43z" fill="#c8c8c8"/><path d="m692.97 748.45 6.07-.32c22.86-1.56 26-21 26-21l1.59-15.13 2.88-27.47h-132.36l2.89 27.39 1.6 15.21s3.13 19.44 25.99 21l5.83.311 29.87 1.6h.02zm54.18-292.48v131.11c0 50.76-5.15 138.25-5.761 148.41-5.56 17.59-39.01 31.09-78.1 31.09-38.91 0-72.22-13.39-78-30.86-.51-8.51-5.78-97.39-5.78-148.71v-131.109s3.99-13.11 17.431-17.41c20.75-6.65 66.409-8.9 66.409-8.9s45.62 2.32 66.36 8.96c13.451 4.299 17.441 17.419 17.441 17.419zm-18.8 211.05 1.65-207.03h-67.2l-25.06.029-41.641.04 1.67 207.03s34.23 5.61 65.561 6.22l-.53-.05c31.31-.619 65.55-6.239 65.55-6.239z" fill="#ed1d31"/><path d="m741.39 735.49-.06.97s-3.74 26.95-14.11 37.33-42.31 15.67-63.89 15.67v-.06c-21.58 0-53.521-5.301-63.91-15.681-10.37-10.37-14.09-37.34-14.09-37.34s-.01-.229-.04-.66c5.78 17.471 39.09 30.86 78 30.86 39.09.001 72.54-13.499 78.1-31.089z" fill="#ed1d31"/><path d="m637.74 460.02 25.06-.029h67.2l-1.65 207.029s-34.239 5.62-65.55 6.24l.53.05c-31.33-.609-65.561-6.22-65.561-6.22l-1.67-207.03zm75.64 182.06v-149.94h-100.68v149.94z" fill="#c8c8c8"/><path d="m729.51 684.53-2.88 27.47-.25-.03h-27.61l-1.72-.27 4.22-27.14v-.03z" fill="#7a7878"/><path d="m726.63 712-1.59 15.13s-3.14 19.44-26 21l-6.07.32 1.65-21.17 2.43-15.58 1.72.27h27.61zm-113.93-219.86h100.68v149.94h-100.68z" fill="#7a7878"/><path d="m706.89 283.28c4.73 0 8.561 3.84 8.561 8.57s-3.83 8.57-8.561 8.57c-4.729 0-8.569-3.84-8.569-8.57s3.839-8.57 8.569-8.57z" fill="#231f20"/><path d="m437.84 90.63h268.86v180.06h-268.86zm225.25 636.62h-31.3l-2.42-15.6-4.21-27.12h76.11v.029l-4.22 27.141-2.43 15.58h-31.53zm11.7-20.76v-1.221c0-4.569-3.72-8.289-8.3-8.289h-6.33c-4.58 0-8.3 3.72-8.3 8.289v1.221c0 4.56 3.72 8.279 8.3 8.279h6.33c4.58.001 8.3-3.719 8.3-8.279z" fill="#7a7878"/><path d="m687.56 283.42c4.721 0 8.57 3.83 8.57 8.56s-3.85 8.57-8.57 8.57c-4.739 0-8.569-3.84-8.569-8.57s3.829-8.56 8.569-8.56z" fill="#231f20"/><path d="m694.62 727.28-1.65 21.17-29.62 1.59h-.02l-29.87-1.6-1.67-21.19h31.3v.03z" fill="#7a7878"/><path d="m674.79 705.27v1.221c0 4.56-3.72 8.279-8.3 8.279h-6.33c-4.58 0-8.3-3.72-8.3-8.279v-1.221c0-4.569 3.72-8.289 8.3-8.289h6.33c4.58-.001 8.3 3.719 8.3 8.289z" fill="#c8c8c8"/><path d="m631.79 727.25 1.67 21.19-5.83-.311c-22.86-1.56-25.99-21-25.99-21l-1.6-15.21h27.6l1.73-.27z" fill="#7a7878"/><path d="m625.16 684.53 4.21 27.12-1.73.27h-27.6l-2.89-27.39z" fill="#7a7878"/><path d="m529.93 648.68c.79 6.45-1.81 14.59-5.89 18.67-9.5 9.511-22.26 11.971-22.26 11.971-43.69 10.43-263.05 66.33-285.12 69.39 0 0-24.91 3.25-35.66-12.12-2.78-3.97-8.36-18.12-14.71-35.63h.01c6.95 18.58 29.37 25.04 44.38 25.04 9.26-.001 300.31-72.591 319.25-77.321z" fill="#ed1d31"/><path d="m698.32 291.85c0 4.73 3.84 8.57 8.569 8.57 4.73 0 8.561-3.84 8.561-8.57s-3.83-8.57-8.561-8.57c-4.729 0-8.569 3.84-8.569 8.57zm-2.19.13c0-4.73-3.85-8.56-8.57-8.56-4.739 0-8.569 3.83-8.569 8.56s3.83 8.57 8.569 8.57c4.72 0 8.57-3.84 8.57-8.57zm-166.51 20.65h-102.03c-11.58 0-20.97-9.4-20.97-20.98v-209.65c0-11.58 9.39-20.97 20.97-20.97h288.58c11.58 0 20.97 9.39 20.97 20.97v209.65c0 11.58-9.39 20.98-20.97 20.98zm177.08-41.94v-180.06h-268.86v180.06zm-309.8 307.92-16.47-11.24-31.57 4.88-29.94 4.63-24.79 3.83-30.45 4.71-30.34 4.69-20.91 3.239-23.56 3.641-29.63 4.58 8.25 17.92 6.97 15.14 6.87 14.91 30.29-5.99 26.11-5.17 27.9-5.52 30.11-5.95 29.34-5.8 39.13-7.74 29.96-5.93 34.88-6.9-18.63-12.71zm-234.97 4.73 9.54-1.91-.93-7.04 22.83-3.729 2.09 6.5 31.96-4.71 109.92-15.41v-6.83l22.86-3.41 1.29 7 10.49-1.189c1.06-.24 2.05-.57 2.97-.99 8.17-.51 18.03 4.399 18.03 4.399 4.78 0 124.57 80.061 132.35 84.57 2.74 1.59 4.17 4.58 4.6 8.09-18.94 4.729-309.99 77.319-319.25 77.319-15.01 0-37.43-6.46-44.38-25.04h-.01c-13.59-37.479-30.7-90.35-31.37-91.69-9.57-19.109 4.52-26.17 4.52-26.17 3.18 1.5 7.08 2.19 11.85 1.591zm261.76 72.39-32.42-32.43-84.32 18.1 27.52 35.189z" fill="#c8c8c8"/><path d="m429.05 600.54-34.88 6.9v-.01l-15.65-12.15 30.84-5.9 1.06-1.55zm-37.78 22.76 32.42 32.43-89.22 20.86-27.52-35.19z" fill="#7a7878"/><path d="m410.42 587.83-1.06 1.55-30.84 5.9-14.18-11.01 32.56-5.66zm-29.99-20.46 16.47 11.24-32.56 5.66-15.48-12.02z" fill="#7a7878"/><path d="m394.17 607.43v.01l-29.96 5.93-15.87-12.32 30.18-5.77z" fill="#7a7878"/><path d="m362.93 332.77c27.99 0 24.58 24.58 24.58 24.58v161.12s2.03 26.63-12.56 33.15c-.92.42-1.91.75-2.97.99l-10.49 1.189-1.29-7-22.86 3.41v6.83l-109.92 15.41-31.96 4.71-2.09-6.5-22.83 3.729.93 7.04-9.54 1.91-10.64 1.351c-4.77.6-8.67-.091-11.85-1.591-12.99-6.119-14.09-25.72-14.09-25.72s-23.89-168.62-26.97-194.91c-3.06-26.29 22.88-22.87 22.88-22.87s213.69-6.828 241.67-6.828zm9.56 191.16-2.04-168.63-254.66 9.56 25.27 189.121z" fill="#c8c8c8"/><g fill="#7a7878"><path d="m378.52 595.28-30.18 5.77-14.73-11.43 30.73-5.35zm-8.07-239.98 2.04 168.63-231.43 30.05-25.27-189.12z"/><path d="m364.34 584.27-30.73 5.35-14.45-11.22-.24-1.52 29.94-4.63zm-.13 29.1-39.13 7.74-.37-1.87-9.42-11.87 33.05-6.32z"/><path d="m348.34 601.05-33.05 6.32-10.16-12.8 28.48-4.95z"/><path d="m319.16 578.4 14.45 11.22-28.48 4.95-11-13.86 24.79-3.83zm5.55 40.84.37 1.87-29.34 5.8-.29-1.47-9.84-12.39 29.68-5.68z"/><path d="m315.29 607.37-29.68 5.68-10.51-13.25 30.03-5.23z"/><path d="m305.13 594.57-30.03 5.23-11.42-14.38 30.45-4.71zm-9.68 30.87.29 1.47-30.11 5.95-.22-1.13-10.21-12.86 30.41-5.82z"/><path d="m275.1 599.8 10.51 13.25-30.41 5.82-10.89-13.71z"/><path d="m275.1 599.8-30.79 5.36-10.74-13.53-.23-1.52 30.34-4.69zm-9.47 33.06-27.9 5.52-.57-2.89-7.18-11.8 25.22-4.82 10.21 12.86z"/><path d="m255.2 618.87-25.22 4.82-8.83-14.5 23.16-4.03zm-21.63-27.24 10.74 13.53-23.16 4.03-8.41-13.81-.31-2.03 20.91-3.24z"/><path d="m237.16 635.49.57 2.89-26.11 5.17-.58-2.95-6.17-12.11 25.11-4.8z"/><path d="m229.98 623.69-25.11 4.8-7.71-15.13 23.99-4.17z"/><path d="m221.15 609.19-23.99 4.17-8.27-16.23-.02-.14 23.56-3.64.31 2.03zm-10.11 31.41.58 2.95-30.29 5.99-6.87-14.91 1.2-.55 29.21-5.59z"/><path d="m197.16 613.36 7.71 15.13-29.21 5.59-1.2.55-6.97-15.14 3.39-1.56z"/><path d="m188.89 597.13 8.27 16.23-26.28 4.57-3.39 1.56-8.25-17.92 29.63-4.58z"/></g><g fill="none" stroke="#231f20"><path d="m529.62 312.63h-102.03c-11.58 0-20.97-9.4-20.97-20.98v-209.65c0-11.58 9.39-20.97 20.97-20.97h288.58c11.58 0 20.97 9.39 20.97 20.97v209.65c0 11.58-9.39 20.98-20.97 20.98z" stroke-width="14"/><path d="m437.84 90.63h268.86v180.06h-268.86zm176.05 223.92v39.39s9.87 12.98 44.141 18.05v14.43l-60.391.16h-112.16v-14.43c34.27-5.05 44.14-18.03 44.14-18.03v-39.39m55.67 420.99c-.51-8.51-5.78-97.39-5.78-148.71v-131.109s3.99-13.11 17.431-17.41c20.75-6.65 66.409-8.9 66.409-8.9s45.62 2.32 66.36 8.96c13.45 4.3 17.44 17.42 17.44 17.42v131.11c0 50.76-5.15 138.25-5.761 148.41l-.06.97s-3.74 26.95-14.11 37.33-42.31 15.67-63.89 15.67v-.06c-21.58 0-53.521-5.301-63.91-15.681-10.37-10.37-14.09-37.34-14.09-37.34s-.009-.23-.039-.66z" stroke-width="14"/><g stroke-width="8.928"><path d="m662.8 673.26c31.311-.62 65.55-6.24 65.55-6.24l1.65-207.03h-67.2l-25.06.029-41.641.04 1.67 207.03s34.23 5.61 65.561 6.22z"/><path d="m612.7 492.14h100.68v149.94h-100.68z"/><path d="m637.74 460.02h52.56m51.59 273.53c-.13.65-.29 1.3-.5 1.94-5.56 17.59-39.01 31.09-78.1 31.09-38.91 0-72.22-13.39-78-30.86-.2-.6-.37-1.21-.5-1.819" stroke-linecap="round" stroke-linejoin="round"/><path d="m663.33 750.04h.02l29.62-1.59 6.07-.32c22.86-1.56 26-21 26-21l1.59-15.13 2.88-27.47h-132.36l2.89 27.39 1.6 15.21s3.13 19.44 25.99 21l5.83.311z"/><path d="m625.16 684.53 4.21 27.12 2.42 15.6h31.54m-63.31-15.33h27.62m4.15 15.33 1.67 21.19v.01"/><path d="m701.27 684.56-4.22 27.14-2.43 15.58h-31.53m63.29-15.31h-27.61m-4.15 15.31-1.65 21.17v.01m-18.18-41.97c0 4.56-3.72 8.279-8.3 8.279h-6.33c-4.58 0-8.3-3.72-8.3-8.279v-1.221c0-4.569 3.72-8.289 8.3-8.289h6.33c4.58 0 8.3 3.72 8.3 8.289z"/></g><path d="m161.11 583.51.82-.17 9.54-1.91-.93-7.04 22.83-3.729 2.09 6.5 31.96-4.71 109.92-15.41v-6.83l22.86-3.41 1.29 7 10.49-1.189c1.06-.24 2.05-.57 2.97-.99 14.59-6.521 12.56-33.15 12.56-33.15v-161.122s3.41-24.58-24.58-24.58c-27.98 0-241.67 6.83-241.67 6.83s-25.94-3.42-22.88 22.87c3.08 26.29 26.97 194.91 26.97 194.91s1.1 19.601 14.09 25.72c3.18 1.5 7.08 2.19 11.85 1.591l10.64-1.351.12-.01" stroke-width="14"/><path d="m370.45 355.3-254.66 9.56 25.27 189.12 231.43-30.05z" stroke-width="8.928"/><path d="m374.95 551.62c8.17-.51 18.03 4.399 18.03 4.399 4.78 0 124.57 80.061 132.35 84.57 2.74 1.59 4.17 4.58 4.6 8.09.79 6.45-1.81 14.59-5.89 18.67-9.5 9.511-22.26 11.971-22.26 11.971-43.69 10.43-263.05 66.33-285.12 69.39 0 0-24.91 3.25-35.66-12.12-2.78-3.97-8.36-18.12-14.71-35.63-13.59-37.479-30.7-90.35-31.37-91.69-9.57-19.109 4.52-26.17 4.52-26.17" stroke-width="14"/><path d="m396.9 578.61-16.47-11.24-31.57 4.88-29.94 4.63-24.79 3.83-30.45 4.71-30.34 4.69-20.91 3.24-23.56 3.64-29.63 4.58 8.25 17.92 6.97 15.14 6.87 14.91 30.29-5.99 26.11-5.17 27.9-5.52 30.11-5.95 29.34-5.8 39.13-7.74 29.96-5.93 34.88-6.9-18.63-12.71z" stroke-width="8.928"/><path d="m397.24 578.55-.34.06-32.56 5.66-30.73 5.35-28.48 4.95-30.03 5.23-30.79 5.36-23.16 4.03-23.99 4.17-26.28 4.57m238.48-28.55-30.84 5.9-30.18 5.77-33.05 6.32-29.68 5.68-30.41 5.82-25.22 4.82-25.11 4.8-29.21 5.59m248.03 21.65-32.42-32.43-84.32 18.1 27.52 35.19z" stroke-width="8.928"/><path d="m530.9 648.44s-.33.079-.971.239c-18.939 4.731-309.989 77.321-319.249 77.321-15.01 0-37.43-6.46-44.38-25.04" stroke-width="14"/><path d="m394.17 607.43-15.65-12.15-14.18-11.01-15.48-12.02m15.62 41.33-.27-.21-15.87-12.32-14.73-11.43-14.45-11.22m5.55 40.84-9.42-11.87-10.16-12.8-11-13.86-1.26-1.58m2.58 46.31-9.84-12.39-10.51-13.25-11.42-14.38-.07-.09m1.8 46.4-10.21-12.86-10.89-13.71-10.74-13.53m3.59 43.86-7.18-11.8-8.83-14.5-8.41-13.81m-1.7 45.22-6.17-12.11-7.71-15.13-8.27-16.23" stroke-width="8.928"/></g><path d="m0 0h850.394v850.394h-850.394z" fill="none"/></svg>