<svg height="850.394" viewBox="0 0 850.394 850.394" width="850.394" xmlns="http://www.w3.org/2000/svg"><g fill="#fff"><path d="m432 372c4 16 2.39 30.37 2.27 44.47-.17 18.36.961 32.03.961 32.03s11.39.88 56.939-.87c1.35-.05 2.76-.13 4.22-.24l.16 1.99v40.3l.17 3.99c-29.92 1.26-52.729 1.26-52.729 1.26l-17.521.431-18.62.449s-22.81 0-52.73-1.27l.17-3.99v-40.29l.16-2c1.46.11 2.87.19 4.22.24 45.56 1.76 56.94.88 56.94.88s3.54-42.66-2.8-78.49c5.76-.23 11.89-.47 18.11-.73z"/><path d="m426.47 495.36 17.521-.431s22.81 0 52.729-1.26c28.99-1.229 64.66-3.62 92.69-8.37 17.85-3.02 35.35-10.609 51.34-20.149 35.03-20.89 62.83-51.12 71.25-63.15 17.32-24.74 28.56-65.64 22.83-69.13-3.3-2-20.12 1.59-45.84 6.44-11.33 2.14-24.4 4.53-38.79 6.79-17.62 2.76-37.23 5.34-58.11 7.05l-3.149.66c-23.65 4.88-46.33 8.08-65.33 10.17-36.281 4.02-59.131 4.02-49.611 4.02l.02.52c-10.47.38-23.25.89-36.02 1.4l-6.08.24c-6.22.26-12.35.5-18.11.73-16.12.63-29.37 1.11-33.81 1.11-.54 0-56.66-7.72-117.76-15.98-20.49-2.77-41.54-5.59-61.24-8.21-13.23-1.76-25.85-3.42-37.28-4.91-20.4-2.66-37.02-4.74-46.59-5.8-5.47-.61-8.63-.88-8.88-.73-20.14 12.27 10.52 53.44 22.78 70.96 8.51 12.16 41.09 40.79 79.27 60.39 16.81 8.63 34.72 15.511 52.13 18.45 28.03 4.74 63.7 7.15 92.69 8.37 29.92 1.27 52.73 1.27 52.73 1.27zm330.26-181.76c20.149 21.02 7.39 61.82-7.011 93.73-32.41 71.84-98.109 159.439-173.45 174.33-75.34 14.89-225.359 15.77-300.7.88-75.33-14.9-141.04-102.5-173.45-174.33-14.4-31.91-27.16-72.71-7.01-93.74 20.15-21.02 159.44-50.81 219.89-60.44 56.66-9.04 101.78 13.49 109.36 17.07l2.11-.43c2.63-.87 49.931-27.15 110.38-17.52 60.441 9.64 199.731 39.42 219.881 60.45z"/><path d="m474.02 368.52-.02-.52c-9.52 0 13.33 0 49.61-4.02 19-2.09 41.68-5.29 65.33-10.17 9.77 19.28 9.46 50.22 10.1 65.79l2 5.06c-39.48 10.979-80.18 20.87-104.65 22.729-1.46.11-2.87.19-4.22.24-45.55 1.75-56.939.87-56.939.87s-1.131-13.67-.961-32.03c.12-14.099 1.73-28.469-2.27-44.469l-.08-1.84 6.08-.24c12.77-.51 25.55-1.02 36.02-1.4zm-322.1 26.16c3.48 1.84 7.31 3.44 11.52 4.77 7.96 2.51 17.59 5.51 28.29 8.79 6.67 2.03 13.75 4.18 21.12 6.37l-1.23 4.11v46.43l-1.32 2.569c-38.18-19.6-70.76-48.229-79.27-60.39-12.26-17.52-42.92-58.69-22.78-70.96.25-.15 3.41.12 8.88.73.69 10.351 5.23 42.021 34.79 57.581z"/><path d="m212.85 414.61c48.89 14.53 110.09 31.19 142.6 33.65l-.16 2v40.29l-.17 3.99c-28.99-1.22-64.66-3.63-92.69-8.37-17.41-2.939-35.32-9.82-52.13-18.45l1.32-2.569v-46.43zm283.54 32.78c24.471-1.859 65.17-11.75 104.65-22.729 12.99-3.6 25.84-7.33 37.95-10.93l1.229 4.11v46.43l.53.881c-15.99 9.54-33.49 17.13-51.34 20.149-28.03 4.75-63.7 7.141-92.69 8.37l-.17-3.99v-40.3z"/><path d="m699.92 393.8c35.63-18.76 34.91-60.93 34.91-60.93 5.729 3.49-5.51 44.39-22.83 69.13-8.42 12.03-36.22 42.26-71.25 63.15l-.53-.881v-46.43l-1.229-4.11c7.359-2.19 14.45-4.34 21.12-6.37 10.71-3.28 20.33-6.28 28.29-8.79 4.209-1.329 8.039-2.929 11.519-4.769z"/><path d="m734.83 332.87s.72 42.17-34.91 60.93c1.1-3.32 8.26-27.44-8.02-47.79a36 36 0 0 0 -2.08-2.38l-.83-4.32c25.72-4.85 42.54-8.44 45.84-6.44z"/><path d="m689.82 343.63a36 36 0 0 1 2.08 2.38c16.279 20.35 9.119 44.47 8.02 47.79-3.479 1.84-7.31 3.44-11.52 4.77-7.96 2.51-17.58 5.51-28.29 8.79l-.551-1.78c-.59-14.09-.3-42.28-9.359-59.46v-.02c14.39-2.26 27.46-4.65 38.79-6.79z"/><path d="m592.09 353.15c20.88-1.71 40.49-4.29 58.11-7.05v.02c9.06 17.18 8.77 45.37 9.359 59.46l.551 1.78c-6.67 2.03-13.761 4.18-21.12 6.37-12.11 3.6-24.96 7.33-37.95 10.93l-2-5.06c-.64-15.57-.33-46.51-10.1-65.79zm-329.85 2.87c61.1 8.26 117.22 15.98 117.76 15.98 4.44 0 17.69-.48 33.81-1.11 6.34 35.83 2.8 78.49 2.8 78.49s-11.38.88-56.94-.88c-1.35-.05-2.76-.13-4.22-.24-32.51-2.46-93.71-19.12-142.6-33.65-7.37-2.19-14.45-4.34-21.12-6.37l.55-1.78c.58-13.71.31-40.74 8.64-58.01l.08-.64c19.7 2.62 40.75 5.44 61.24 8.21z"/><path d="m201 347.81-.08.64c-8.33 17.27-8.06 44.3-8.64 58.01l-.55 1.78c-10.7-3.28-20.33-6.28-28.29-8.79-4.21-1.33-8.04-2.93-11.52-4.77-1.1-3.32-8.26-27.44 8.02-47.79 1.23-1.54 2.5-2.87 3.78-3.99 11.43 1.49 24.05 3.15 37.28 4.91z"/><path d="m163.72 342.9a30.988 30.988 0 0 0 -3.78 3.99c-16.28 20.35-9.12 44.47-8.02 47.79-29.56-15.56-34.1-47.23-34.79-57.58 9.57 1.06 26.19 3.14 46.59 5.8z"/></g><g fill="none"><g stroke="#231f20"><path d="m434.27 416.47c.12-14.1 1.73-28.47-2.27-44.47m302.83-39.13s.72 42.17-34.91 60.93c-3.479 1.84-7.31 3.44-11.52 4.77-7.96 2.51-17.58 5.51-28.29 8.79-6.67 2.03-13.761 4.18-21.12 6.37-12.11 3.6-24.96 7.33-37.95 10.93-39.48 10.979-80.18 20.87-104.65 22.729-1.46.11-2.87.19-4.22.24-45.55 1.75-56.939.87-56.939.87s-1.131-13.67-.961-32.03" stroke-width="14"/><path d="m523.2 361.77c.14.73.28 1.47.41 2.21 2.51 13.48 4.71 26.98 5.35 34.59 2.63 31.541 2.63 36.8 2.63 36.8m56.98-82.3c.13.24.26.49.37.74 9.77 19.28 9.46 50.22 10.1 65.79m51.16-73.48c9.06 17.18 8.77 45.37 9.359 59.46m29.551-62.65c.239.23.47.46.71.7a36 36 0 0 1 2.08 2.38c16.279 20.35 9.119 44.47 8.02 47.79-.08.26-.13.39-.13.39m-203.24 55.19v40.3m77.97-55.19v46.43m65.7-63.08v46.43m-523.21-130.52s-.02 1.23.12 3.35c.69 10.35 5.23 42.02 34.79 57.58 3.48 1.84 7.31 3.44 11.52 4.77 7.96 2.51 17.59 5.51 28.29 8.79 6.67 2.03 13.75 4.18 21.12 6.37 48.89 14.53 110.09 31.19 142.6 33.65 1.46.11 2.87.19 4.22.24 45.56 1.76 56.94.88 56.94.88s3.54-42.66-2.8-78.49l-.15-.83" stroke-width="14"/><path d="m328.35 366.09c-2.43 10.77-4.57 22.53-5.47 33.36-2.63 31.53-2.63 36.79-2.63 36.79m-55.65-84.64c-.85 1.4-1.64 2.87-2.36 4.42-9.09 19.34-8.81 49.24-9.44 64.45m-51.88-72.02c-8.33 17.27-8.06 44.3-8.64 58.01m-24.91-66.25a24.21 24.21 0 0 0 -3.65 2.69 30.988 30.988 0 0 0 -3.78 3.99c-16.28 20.35-9.12 44.47-8.02 47.79.08.26.13.39.13.39" stroke-width="14"/><g stroke-width="21"><path d="m592.09 353.15-3.149.66c-23.65 4.88-46.33 8.08-65.33 10.17-36.281 4.02-59.131 4.02-49.611 4.02"/><path d="m438 369.92-6.08.24c-6.22.26-12.35.5-18.11.73-16.12.63-29.37 1.11-33.81 1.11-.54 0-56.66-7.72-117.76-15.98-20.49-2.77-41.54-5.59-61.24-8.21-13.23-1.76-25.85-3.42-37.28-4.91-20.4-2.66-37.02-4.74-46.59-5.8-5.47-.61-8.63-.88-8.88-.73-20.14 12.27 10.52 53.44 22.78 70.96 8.51 12.16 41.09 40.79 79.27 60.39 16.81 8.63 34.72 15.511 52.13 18.45 28.03 4.74 63.7 7.15 92.69 8.37 29.92 1.27 52.73 1.27 52.73 1.27l18.62-.449 17.521-.431s22.81 0 52.729-1.26c28.99-1.229 64.66-3.62 92.69-8.37 17.85-3.02 35.35-10.609 51.34-20.149 35.03-20.891 62.83-51.121 71.25-63.151 17.32-24.74 28.56-65.64 22.83-69.13-3.3-2-20.12 1.59-45.84 6.44-11.33 2.14-24.4 4.53-38.79 6.79-17.62 2.76-37.23 5.34-58.11 7.05"/><path d="m498 368c-.87-.23-10.51.03-23.98.52-10.47.38-23.25.89-36.02 1.4"/><path d="m424.36 271.1c-7.58-3.58-52.7-26.11-109.36-17.07-60.45 9.63-199.74 39.42-219.89 60.44-20.15 21.03-7.39 61.83 7.01 93.74 32.41 71.83 98.12 159.43 173.45 174.33 75.34 14.89 225.36 14.01 300.7-.88 75.341-14.891 141.04-102.49 173.45-174.33 14.4-31.91 27.16-72.71 7.011-93.73-20.15-21.03-159.44-50.81-219.881-60.45-60.449-9.63-107.75 16.65-110.38 17.52z"/></g><path d="m355.29 450.26v40.29m-77.96-55.18v46.42m-65.71-63.07v46.43m214.85-14.02v45.56" stroke-width="14"/></g><path d="m0 0h850.394v850.394h-850.394z"/></g></svg>