<svg height="850" viewBox="0 0 850 850" width="850" xmlns="http://www.w3.org/2000/svg"><path d="m706 573.3.3 7.7.2 8.3-.2 8.7-.5 8.8-.5 8.7-1.3 9-1.2 8.5-2 8.5-1 4-1.3 3.8-1.2 3.7-1.5 3.5-1.5 3.5-1.8 3-2 3-2 2.8-2 2.5-2.5 2-2.5 2-2.7 1.5-2.8 1.2-3 1-3.2.5-3.3.3-4.5-.3-4.2-1-4.5-1.2-4.5-2-4.5-2.5-4.5-2.8-4.5-3.2-4.5-3.8-4.3-4-4.5-4.5-4.5-4.7-4.2-4.8-4.3-5.2-4.2-5.5-4.3-5.8-4.2-5.7-8-11.8-7.8-12.2-7-12.3-6.7-11.7-6.3-11.5-5.5-11-5-9.8-4-8.7-26-56.3-10.7-23 18.2-11.2 37.8-23.5 12.2-7.8z" fill="#a8d7f4"/><path d="m706 573.3-128.5-161.3-12.2 7.8-6-26.8-3-14.5-.8-5.2-.5-2.8-.2-9.7v-10.3l.5-10 1-9.7 1-8.3.7-8.7 2.8.2 3.7 1 10.3 2.5 14.2 4.3 8.3 2.5 8.5 2.7 8.7 3.3 8.3 3.5 8 3.5 7.2 4 3.5 2 3 2 2.8 2 2.5 2.2 2 2.3 1.7 2.2 1.3 2.3.7 2.2 3.5 13.5 5.8 20.8 15 55.2 8 29.8 7 28.7 3.2 13 2.5 12 2.3 10.5 1.5 8.8 1 9.5.5 6.2zm-381 70.5-5-.3-5-.2-4.7-.8-4.3-.7-3.5-1-3-1.3-1.2-.7-1-.8-.8-1-.2-.7-1-3.3-.5-3.2-.8-6.5-.2-6.3-.3-3-.5-2.7-.2-2.3-.8-2-.7-2-1-1.7-1.3-1.8-1.5-1.7-1.7-1.5-2.3-1.3-1.7-.7-2.5-.8-2.8-.5-3.5-.7-8.2-1-9.5-.8-10.5-.5-10.8-.2-11 .2-10.5.3-9.7.5-8.5 1h-1.5l-.5-4.8 1.5-11 1.7-10.7 2-10.8 2-10.7 4.5-21 4.8-20.5 5.2-19.8 5.5-19 5.5-18 5.8-17 5.5-15.5 5.2-14.2 5-12.8 4.8-11 4.2-9 3.5-7.2 2.8-5 1.2-1.8 1-1.2 2.8-2.3 4.2-2.7 5.5-3.5 6.5-3.5 14.8-8 16.2-8 15.8-7.5 13.5-6.5 12.7-6 1.3-1 3 3 3 3 3.2 3 3 2.5 3.3 2.7 3.5 2.3 3.2 2.2 3.5 2 3.5 2 3.5 1.8 3.8 1.5 3.5 1.2 3.7 1.3 3.8 1 3.7.7 3.8.5.2 1 .5 3.5.8 3 1.2 2.8 1.8 2.7 2 2.3 2 2.2 2.5 1.8 2.7 1.7 2.8 1.3 3 1.2 3 .8 3 .7 3.2.3 3.3.2 3.2-.2 3.3-.3 3.2-.7 3.3-1 3-1.3 2.7-1.5 2.8-1.5 2.5-2 5.5-4 4.2-3.5 6-5 6.3-5.5 5-5 .5 7.3.5 7.5.2 15v21.5l.5 2.5.8 3.5 1.5 4 2 4.5 4.7 10.2 5.5 10.5 5.5 10.3 4.8 8.5 4.7 8 1 1.5-18.2 11.2 10.7 23 26 56.3 4 8.7 5 9.8 5.5 11 6.3 11.5 6.7 11.7 7 12.3 7.8 12.2 8 11.8 4.2 5.7 4.3 5.8 4.2 5.5 4.3 5.2 4.2 4.8 4.5 4.7 4.5 4.5 4.3 4 4.5 3.8 4.5 3.2 4.5 2.8 4.5 2.5 4.5 2 4.5 1.2 4.2 1 4.5.3-335.7 34.2-.8.3z" fill="#a8d7f4"/><path d="m495.3 328.5-.8-6.7-.7-5.8-.5-2.5-.8-1.7-.7-1.5-.8-1.3-2.5-2.2-3-2.3-3.5-2-3.2-1.7-5.5-2.8-2.3-1.2-.2-3v-3l.2-3.3.5-3.5.8-3.2 1-3.5 1.2-3.5 1.3-3.3 1.7-3.2 1.5-3 1.8-3 2-3 2-2.5 1.7-2.5 2-2 2.3-1.8 1.7-1.5 1.8-1 1.7-.7 2-.5 1.8-.3h1.7l1.8.3 1.7.2 3.5 1 3.5 1.3 3.8 1.5 4 1.5 6.2 2 5.5 1.7 4.8 1.5 4 1.8 1.7.7 1.8 1 1.5 1.3 1.5 1.5 1.2 1.5 1.5 2 1.3 2 1.2 2.5 2 5 1.8 5 1.2 5.2.8 5.5.5 5.5v11.3l-.3 5.5-.7 8.7-1 8.3-1 9.7-.5 10v10.3l.2 9.7.5 2.8.8 5.2 3 14.5 6 26.8-37.8 23.5-1-1.5-4.7-8-4.8-8.5-5.5-10.3-5.5-10.5-4.7-10.2-2-4.5-1.5-4-.8-3.5-.5-2.5v-21.5l-.2-15-.5-7.5z" fill="#ffeec8"/><path d="m505.5 194.3 1.8-2.5 2-2 2.2-2.3 2.3-1.7 2.2-1.5 2.8-1.3 2.5-1 2.7-.7 2-.3h2.3l2.2.3 2.3.5 2 .7 2 .8 2 1.2 2 1.3 1.7 1.2 1.8 1.5 1.5 1.8 1.5 1.7 1.2 1.8 1.3 1.7 1 2 .7 1.8.8 2.5.5 3 .2 3.2.3 3.5-.3 3.8-.2 4-.5 4-.8 4.2-1 4.3-1 4.2-1 4-1.5 4.3-1.2 3.7-1.5 3.8-1.8 3.2-1.7 3-.5.3-4-1.8-4.8-1.5-5.5-1.7-6.2-2-4-1.5-3.8-1.5-3.5-1.3-3.5-1v-.7l1.3-5.3.5-5 .2-2.5v-2.5l-.2-2.5-.5-2.5-.8-2-.7-2.2-2.3-4.8-1.2-2.2-.8-2.3-.2-2.2v-2.5l.7-3.3 1-3.2 1.5-3z" fill="#abd150"/><path d="m506.3 225 .5 2.5.2 2.5v2.5l-.2 2.5-.5 5-1.3 5.3v.7l-1.7-.2-1.8-.3h-1.7l-1.8.3-2 .5-1.7.7-1.8 1-1.7 1.5-2.3 1.8-2 2-1.7 2.5-2 2.5-2 3-1.8 3-1.5 3-1.7 3.2-1.3 3.3-1.2 3.5-1 3.5-.8 3.2-.5 3.5-.2 3.3v3l.2 3-1.2 1.2-1.3 1.3-3 1.7-3 1.3-3 .7-3 .3-3-.3-2.5-.5-2.2-1-2.5-1.2-2.3-.5-2.2-.3-2.3.5-2.2.5-2 1-4.5 2.5-4 2.5-3.8 3-3.2 3.5-1.5 1.8-1.3 2-1.2 2-1 2-.8 2.2-.7 2-.5 2.5-.3 2.3-.2 2.2v2.5l-3.8-.5-3.7-.7-3.8-1-3.7-1.3-3.5-1.2-3.8-1.5-3.5-1.8-3.5-2-3.5-2-3.2-2.2-3.5-2.3-3.3-2.7-3-2.5-3.2-3-3-3-3-3-3.3-4-3.2-4-3.3-4-2.7-4.5-3-4.5-2.8-4.8-2.5-4.7-2.2-5-2.3-5.3-2.2-5.2-1.8-5.3-1.7-5.5-1.5-5.7-1.5-5.8-1-6-1-6-.8-6.2-.7-6.5-.3-6.3v-6.2l.3-6 .2-6.3.8-6 .7-5.7 1-5.8 1.3-5.7 1.5-5.5 1.7-5.3 1.8-5.2 2.2-5.3 2.3-4.7 2.2-4.8 2.8-4.7 2.7-4.3 3-4.2 3-4 3.5-3.8 3.3-3.5 3.7-3.2 3.8-3 3.7-3 4-2.5 4.3-2.3 4.2-2 4.3-1.7 4.5-1.5 4.7-1.3 4.8-.7 4.7-.5 4.5-.3h4.8l4.7.5 4.5.8 4.5 1 4.5 1.2 4.5 1.5 4.5 2 4.3 2 4.2 2.5 4.3 2.5 4 2.8 4 3.2 3.7 3.3 4 3.5 3.5 3.7 3.5 4 3.5 4.3 3.3 4.2 3 4.8 3 4.7 3 5 2.5 5 2.5 5.3 2.2 5.5 2.3 5.5 2 5.7 1.7 5.8 1.5 6 1.3 6.2 1.2 6.3-2 3-1.5 3-1 3.2-.7 3.3v2.5l.2 2.2.8 2.3 1.2 2.2 2.3 4.8.7 2.2z" fill="#ffeec8"/><path d="m412.3 334.5v-2.5l.2-2.2.3-2.3.5-2.5.7-2 .8-2.2 1-2 1.2-2 1.3-2 1.5-1.8 3.2-3.5 3.8-3 4-2.5 4.5-2.5 2-1 2.2-.5 2.3-.5 2.2.3 2.3.5 2.5 1.2 2.2 1 2.5.5 3 .3 3-.3 3-.7 3-1.3 3-1.7 1.3-1.3 1.2-1.2 2.3 1.2 5.5 2.8 3.2 1.7 3.5 2 3 2.3 2.5 2.2.8 1.3.7 1.5.8 1.7.5 2.5.7 5.8.8 6.7-5 5-6.3 5.5-6 5-4.2 3.5-5.5 4-2.5 2-2.8 1.5-2.7 1.5-3 1.3-3.3 1-3.2.7-3.3.3-3.2.2-3.3-.2-3.2-.3-3-.7-3-.8-3-1.2-2.8-1.3-2.7-1.7-2.5-1.8-2-2.2-2-2.3-1.8-2.7-1.2-2.8-.8-3-.5-3.5zm-82.3 379.8 2 30.5v2.8l-.3 2.5-.8 2.3-.8 2-1 1.8-1.3 1.5-1.3 1.5-1.5 1.3-1.8 1-2 .8-1.8.8-2.3.5-4.1.4-4.8.3h-145.8l-5-.3-4.3-.8-2.3-.5-2-.8-1.8-.8-1.8-1-1.2-1.1-1.3-1.5-1.3-1.5-1-1.8-.8-2-.6-2.2-.3-2.5-.3-2.8 6.8-100.8h5l4.3-.5 4-.5 3.3-1 3-1.3 2-1.5 1-.8.8-.8.5-1 .5-1 .8-3.3.5-3 .8-6.5.3-6 .5-5.8h21.3v12h78.8v-12h20.4l.5 2.8.3 3 .3 6.3.8 6.5.5 3.3 1 3.3.3.8.8 1 1 .8 1.3.8 3 1.3 3.5 1 4.3.8 4.8.8 5 .3 5 .3zm-49.5-48.8v-21h-20.5v21zm-.2 68.5v-21h-20.8v21zm0-33.5v-21h-20.8v21zm-35.5-35v-21h-20.8v21zm-.5 68.5v-21h-20.5v21zm0-33.5v-21h-20.5v21zm-35.5-35v-21h-20.8v21zm-.3 68.5v-21h-20.8v21zm0-33.5v-21h-20.8v21z" fill="#abd150"/><path d="m280.5 644.5v21h-20.5v-21zm-.2 68.5v21h-20.8v-21zm0-33.5v21h-20.8v-21z" fill="#c8c8c8"/><path d="m272.3 611.3v12h-78.8v-12zm0-11.8v11.8h-78.8v-11.8h.8z" fill="#abd150"/><path d="m244.8 644.5v21h-20.8v-21zm-.5 68.5v21h-20.5v-21zm0-33.5v21h-20.5v-21zm-35.5-35v21h-20.8v-21zm-.3 68.5v21h-20.7v-21zm0-33.5v21h-20.7v-21z" fill="#c8c8c8"/><g fill="none" stroke="#231f20" stroke-linecap="round" stroke-miterlimit="10"><path d="m505 245.3 1.3-5.3.5-5 .2-2.5v-2.5l-.2-2.5-.5-2.5-.8-2-.7-2.2-2.3-4.8-1.2-2.2-.8-2.3-.2-2.2v-2.5l.7-3.3 1-3.2 1.5-3 2-3 1.8-2.5 2-2 2.2-2.3 2.3-1.7 2.2-1.5 2.8-1.3 2.5-1 2.7-.7 2-.3h2.3l2.2.3 2.3.5 2 .7 2 .8 2 1.2 2 1.3 1.7 1.2 1.8 1.5 1.5 1.8 1.5 1.7 1.2 1.8 1.3 1.7 1 2 .7 1.8.8 2.5.5 3 .2 3.2.3 3.5-.3 3.8-.2 4-.5 4-.8 4.2-1 4.3-1 4.2-1 4-1.5 4.3-1.2 3.7-1.5 3.8-1.8 3.2-1.7 3m-14.3 183.8-4.7-8-4.8-8.5-5.5-10.3-5.5-10.5-4.7-10.2-2-4.5-1.5-4-.8-3.5-.5-2.5v-21.5l-.2-15-.5-7.5-.5-7.3-.8-6.7-.7-5.8-.5-2.5-.8-1.7-.7-1.5-.8-1.3-2.5-2.2-3-2.3-3.5-2-3.2-1.7-5.5-2.8-2.3-1.2-1.2 1.2-1.3 1.3-3 1.7-3 1.3-3 .7-3 .3-3-.3-2.5-.5-2.2-1-2.5-1.2-2.3-.5-2.2-.3-2.3.5-2.2.5-2 1-4.5 2.5-4 2.5-3.8 3-3.2 3.5-1.5 1.8-1.3 2-1.2 2-1 2-.8 2.2-.7 2-.5 2.5-.3 2.3-.2 2.2v2.5l.2 1 .5 3.5.8 3 1.2 2.8 1.8 2.7 2 2.3 2 2.2 2.5 1.8 2.7 1.7 2.8 1.3 3 1.2 3 .8 3 .7 3.2.3 3.3.2 3.2-.2 3.3-.3 3.2-.7 3.3-1 3-1.3 2.7-1.5 2.8-1.5 2.5-2 5.5-4 4.2-3.5 6-5 6.3-5.5 5-5 2.2-2.7" stroke-width="21"/><path d="m471 296.8-.2-3v-3l.2-3.3.5-3.5.8-3.2 1-3.5 1.2-3.5 1.3-3.3 1.7-3.2 1.5-3 1.8-3 2-3 2-2.5 1.7-2.5 2-2 2.3-1.8 1.7-1.5 1.8-1 1.7-.7 2-.5 1.8-.3h1.7l1.8.3 1.7.2 3.5 1 3.5 1.3 3.8 1.5 4 1.5 6.2 2 5.5 1.7 4.8 1.5 4 1.8 1.7.7 1.8 1 1.5 1.3 1.5 1.5 1.2 1.5 1.5 2 1.3 2 1.2 2.5 2 5 1.8 5 1.2 5.2.8 5.5.5 5.5v11.3l-.3 5.5-.7 8.7-1 8.3-1 9.7-.5 10v10.3l.2 9.7.5 2.8.8 5.2 3 14.5 6 26.8m-209.3-115-12.7 6-13.5 6.5-15.8 7.5-16.2 8-14.8 8-6.5 3.5-5.5 3.5-4.2 2.7-2.8 2.3-1 1.2-1.2 1.8-2.8 5-3.5 7.2-4.2 9-4.8 11-5 12.8-5.2 14.2-5.5 15.5-5.8 17-5.5 18-5.5 19-5.2 19.8-4.8 20.5-4.5 21-2 10.7-2 10.8-1.7 10.7-1.5 11" stroke-width="21"/><path d="m560.8 314 3.7 1 10.3 2.5 14.2 4.3 8.3 2.5 8.5 2.7 8.7 3.3 8.3 3.5 8 3.5 7.2 4 3.5 2 3 2 2.8 2 2.5 2.2 2 2.3 1.7 2.2 1.3 2.3.7 2.2 3.5 13.5 5.8 20.8 15 55.2 8 29.8 7 28.7 3.2 13 2.5 12 2.3 10.5 1.5 8.8 1 9.5.5 6.2.2 6.8.3 7.7.2 8.3-.2 8.7-.5 8.8-.5 8.7-1.3 9-1.2 8.5-2 8.5-1 4-1.3 3.8-1.2 3.7-1.5 3.5-1.5 3.5-1.8 3-2 3-2 2.8-2 2.5-2.5 2-2.5 2-2.7 1.5-2.8 1.2-3 1-3.2.5-3.3.3-4.5-.3-4.2-1-4.5-1.2-4.5-2-4.5-2.5-4.5-2.8-4.5-3.2-4.5-3.8-4.3-4-4.5-4.5-4.5-4.7-4.2-4.8-4.3-5.2-4.2-5.5-4.3-5.8-4.2-5.7-8-11.8-7.8-12.2-7-12.3-6.7-11.7-6.3-11.5-5.5-11-5-9.8-4-8.7-26-56.3-10.7-23 18.2-11.2 37.8-23.5 12.2-7.8 128.5 161.3m-293.5-238.8h-.2l-3.8-.5-3.7-.7-3.8-1-3.7-1.3-3.5-1.2-3.8-1.5-3.5-1.8-3.5-2-3.5-2-3.2-2.2-3.5-2.3-3.3-2.7-3-2.5-3.2-3-3-3-3-3-3.3-4-3.2-4-3.3-4-2.7-4.5-3-4.5-2.8-4.8-2.5-4.7-2.2-5-2.3-5.3-2.2-5.2-1.8-5.3-1.7-5.5-1.5-5.7-1.5-5.8-1-6-1-6-.8-6.2-.7-6.5-.3-6.3v-6.2l.3-6 .2-6.3.8-6 .7-5.7 1-5.8 1.3-5.7 1.5-5.5 1.7-5.3 1.8-5.2 2.2-5.3 2.3-4.7 2.2-4.8 2.8-4.7 2.7-4.3 3-4.2 3-4 3.5-3.8 3.3-3.5 3.7-3.2 3.8-3 3.7-3 4-2.5 4.3-2.3 4.2-2 4.3-1.7 4.5-1.5 4.7-1.3 4.8-.7 4.7-.5 4.5-.3h4.8l4.7.5 4.5.8 4.5 1 4.5 1.2 4.5 1.5 4.5 2 4.3 2 4.2 2.5 4.3 2.5 4 2.8 4 3.2 3.7 3.3 4 3.5 3.5 3.7 3.5 4 3.5 4.3 3.3 4.2 3 4.8 3 4.7 3 5 2.5 5 2.5 5.3 2.2 5.5 2.3 5.5 2 5.7 1.7 5.8 1.5 6 1.3 6.2 1.2 6.3.5 2.7m-271.5 567.3h-72l-5-.3-4.2-.7-2.3-.5-2-.8-1.7-.7-1.8-1-1.5-1.3-1.2-1.5-1.3-1.5-1-1.7-.7-2-.8-2.3-.2-2.5-.3-2.7 6.8-100.8.7-8.7m88.5 129h73.8l4.7-.3 4.5-.7 2.3-.5 1.7-.8 2-.7 1.8-1 1.5-1.3 1.2-1.5 1.3-1.5 1-1.7.7-2 .8-2.3.2-2.5v-2.7l-2-30.5-5-70.5-.7-8.3" stroke-width="21"/><path d="m272.3 611.3h19.7m-118.7 0h20.2" stroke-width="15.25"/><path d="m208.8 665.5h-20.8v-21h20.8zm36 0h-20.8v-21h20.8zm35.7 0h-20.5v-21h20.5zm-72 35h-20.7v-21h20.7zm35.8 0h-20.5v-21h20.5zm36 0h-20.8v-21h20.8zm-71.8 33.5h-20.7v-21h20.7zm35.8 0h-20.5v-21h20.5zm36 0h-20.8v-21h20.8z" stroke-width="7.5"/><path d="m272.3 611.3v12h-78.8v-23.8h78.8z" stroke-width="14"/><path d="m144.8 644h5.5l4.2-.5 4-.5 3.3-1 3-1.2 2-1.5 1-.8.7-.7.5-1 .5-1 .8-3.3.5-3 .7-6.5.3-6 .5-5.7.5-2.3.5-2.2.7-2 1-1.8 1.3-2 1.5-1.5 2-1.5 2.2-1.5 1.8-.7 2.5-.8 3-.5 3.5-.7h1.5l8.5-1 9.7-.5 10.5-.3 11-.2 10.8.2 10.5.5 9.5.8 8.2 1 3.5.7 2.8.5 2.5.8 1.7.7 2.3 1.3 1.7 1.5 1.5 1.7 1.3 1.8 1 1.7.7 2 .8 2 .2 2.3.5 2.7.3 3 .2 6.3.8 6.5.5 3.2 1 3.3.2.7.8 1 1 .8 1.2.7 3 1.3 3.5 1 4.3.7 4.7.8 5 .2 5 .3h5l5-.3" stroke-width="21"/><path d="m378.5 405.5 24.5.3m-28 22.2 24-4m-23 29.5 22-11m-22 37.3 22-10.8m-22 32 22-11m-22 32.5 22-11m-27.5 57.3 24.5-1m-33 20.5 24.5-1.3m-33.2 21 24.5-1.2m-33.5 21.7 24.5-1.2m-33 20.5 24.5-1m-33.3 20.7 24.5-1.2m50.3-301 23.5 6.7m-37.8 8.8 23.5 6.7m-38.2 159.3 23.5-6.3" stroke-width="15.25"/><path d="m279 478-5.2 111" stroke-width="14"/></g></svg>