<svg height="850" viewBox="0 0 850 850" width="850" xmlns="http://www.w3.org/2000/svg"><path d="m452.3 477.8-13.3 5 6.5 26.2 16.3 64.3 5.2 21 3.3 13.2 4 14.5 4.5 15.8 5 16.2 5.5 17 6.2 17 3.3 8.5 3.5 8.5 3.5 8.3 3.7 8 4 8 4 7.7 4.3 7.5 4.2 7.3 4.5 6.7 4.8 6.5 5 6 5 5.5 5 5 5.5 4.5 5.5 4 2.7 1.8 2.8 1.7-351.5-35.2.7-17.3.8-16.7.7-15.8 1.3-15.2 1-14.5 1.5-13.8 1.2-13.2 1.5-12.5 1.8-11.8 1.5-11 1.7-10.5 1.8-10 3.7-18 3.5-15.5 3.8-13.5 3.2-11.2 3.3-9.3 2.7-7.5 2.5-5.5 1.8-3.7 1.5-3 41.5-67.5.7-2 .8-2.3 5 2.3 4.5 1.7 5.5 1.8 6.2 1.7 7.5 1.5 8 1.3 4.3.5 4.5.2 4.5.3h4.7l5-.3 5-.5 5-.7 5-1 5.3-1.3 5.2-1.5 5.3-2 5.2-2 5.5-2.7 5.3-3 5.2-3.3 5.3-3.7 5.2-4.3 5.3-4.7h1v14l.2 2.5.8 3 1 3.2 1.5 3.5 2 3.8 2 4 4.2 7.5 4.5 7 3.8 5.7 3.7 5.5z" fill="#a9d7f3"/><path d="m566.8 793.5-2.8-1.7-2.7-1.8-5.5-4-5.5-4.5-5-5-5-5.5-5-6-4.8-6.5-4.5-6.7-4.2-7.3-4.3-7.5-4-7.7-4-8-3.7-8-3.5-8.3-3.5-8.5-3.3-8.5-6.2-17-5.5-17-5-16.2-4.5-15.8-4-14.5-3.3-13.2-5.2-21-16.3-64.3-6.5-26.2 13.3-5 46.7-17.3 21.5-8 107.5 232.3.5 1.2.8 3.3 1.5 4.2 1 4.5 1 4.5.7 4.8.8 4.5.2 4.7v9.8l-.2 4.7-.3 4.8-.7 4.7-.8 4.8-1 4.7-1 4.5-1.2 4.5-1.5 4.3-1.8 4.2-1.7 4-2 3.8-2 3.5-2.3 3.5-2.2 3.2-2.5 2.8-2.8 2.7-2.7 2.3-2.8 2-3 1.7-3.2 1.3-3.3 1-3.2.5h-3.5l-3.5-.3-4.8-.7-4.7-1.5-4.5-1.8z" fill="#a9d7f3"/><path d="m408.3 339.8-1.3-2.5-.7-2.5-.5-3v-3l.2-3.3.3-3.5.7-3.5 1-3.2 1-3.5 1.5-3.5 1.5-3.3 1.8-3 1.7-2.7 2-2.8 2-2.2 2.3-2 2-1.5 2-1 1.7-.8 2-.5 2-.2 1.8-.3 2 .3 2 .2 3.7 1.3 4 1.2 4 1.8 4.3 1.5.5.2 9.7 3 7.8 2.3 3.2 1.2 3 1.5 2.8 2 2.5 2.3 1.5 1.5 1.2 2 1.5 2.2 1.3 2.5 1.7 3.8 1.5 3.7 1 3.8 1 4 .8 4 .5 4 .2 4.2.3 4-.3 8.5-.5 8.3-.7 8-.8 8-1 10.2-.7 10.8v10.7l.2 10.5 1 7.8 2.5 14 2.5 13 1.5 4.2-46.7 17.3-.3-.8-3.7-5.5-3.8-5.7-4.5-7-4.2-7.5-2-4-2-3.8-1.5-3.5-1-3.2-.8-3-.2-2.5v-14l-.3-15.5-.2-8.3-.5-8.2-.8-10.3-1-8.5-.5-3.7-1-3-.7-2.3-1-1.5-5-5.2-4.5-5.3z" fill="#ffeec8"/><path d="m293.3 229.5h.3l.3.3 1.5.8 2.8.8 1.8.3 2.3.3h24.3l.5-.5v-.5l-.3-1-.8-1-1.8-1.3-2.8-1.5-4.3-1.8-5-2-4.5-2.5-4-2.5-3.3-2.3-4-3.3-1.3-1.5-1 1.3-1 1.5-1 1.8-.8 2.3-.8 2.8v2.8l.3 1.3.5 1.5 1.5 3.3zm-10.3-82.7 2.8 1.8 2.8 1.8 2.5 1.3 2.8 1.3 2.5 1 2.8.8 5.8 1.3 6.5 1.3 7.5 1 8.8 1.5 10.5 2 5.5 1 5.3.8 9.3 1 8 .8 6.8.5 2.8.5 2.8.8 2.3 1 1.8 1.3 1.8 1.5 1.3 2 1 2.3.8 3 2.3 13.8 1.3 7.5 1.5 7.8 2 7.5 2.3 7.5 1.3 3.5 1.5 3.5 1.5 3.3 1.8 3.3 2.8 1.8-1 2-1 2.5-31 119-.5 1.8v3.3l.3 1.5.3 1.8.5 1.5.8 1.5.8 1.3 1 1.5 1 1.3 1.3 1.3 1.3 1 1.3 1 1.8.8 1.5.8 1.8.5 26.5 7 2 .3 2 .3h2l2-.3 1.8-.5 2-.8 1.5-.8 1.8-1h1l.5 8.3.3 8.3.3 15.5h-1l-7 3.4-5.3 4.3-5.3 3.8-5.3 3.3-5.3 3-5.5 2.8-5.3 2-5.3 2-5.3 1.5-5.3 1.3-5 1-5 .8-5 .5-5 .3h-4.8l-4.5-.3-4.5-.3-4.3-.5-8-1.3-7.5-1.5-6.3-1.8-5.5-1.8-4.5-1.8-5-2.3.8-2.5.5-3 .3-3.5.3-3.5-.3-3.8-.3-4.3-.8-4.5-1-4.8-1-6.5-1.8-4.5-1.8-3.8-1.5-3.5-1.8-2.8-2-2.5-1.8-2.3-2-1.8-2.3-2-1.3-1-1.8-.8-1.8-.8-2-.5-4-1-4.5-1-9.3-1.5-4.3-.8-3.8-1.3-2-1-1.5-1.3-1.5-1.3-1.3-1.5.4-.6-.8-1.8-.5-1.5-.5-1.8-.3-3.3v-3l.5-5 .5-5.8.3-5.8.3-4.8-.3-3.3 4-.8 4.5-1 4.8-1.5 4.8-1.5 7.8-2.8 3.3-1-9.5-5.3-6.5-4-13.8-8.8-2.3-1.8-1.3-1.3-.3-.5-.3-.8v.2l.3-.5.8-1 1-1 2.5-2.3.8-.8.5-.8.8-2.3.5-2.5v-2.5l-.3-2.5-.8-2-.5-1-.5-.5-.8-.5-.8-.5-8.3-1.3-1.8-.8-4-1.3-.8-.5-1-.5-1.5-1.8-1.3-2-1-2.5-.3-1.3v-1.3l.3-1.5.3-1.3.5-1.3.5-1.3 1-1.3 1.3-1.3 9-7.5 5.5-4.8 7.8-7.3 3.5-3.5 2.5-3.3 2-3.3 1.3-3.3.8-3.3.3-3.5v-3.5l-.3-3.8-.5-7.3-.5-6.5v-3l.3-3.3.5-3.8 1-4.3.8-2.8 1-3 2.3-5.5 2.8-5.3 2.8-4.8 3-4.5 3-3.5 2.8-3 2.5-2 .8-1 2.2 3.5z" fill="#ffeec8"/><path d="m299.5 216 .5 1 .5 2.5.3 1.5.2 1.5-.2 1.3-.5 1-1 1.5-1.8 1.2-1.7 1.3-1.3.5-1.2.2-.5-1-1.5-3.2-.5-1.5-.3-1.3v-2.7l.8-2.8.7-2.2 1-1.8 1-1.5 1-1.2 1.3 1.5 4 3.2z" fill="#231f20"/><path d="m300.3 215 3.2 2.3 4 2.5 4.5 2.5 5 2 4.3 1.7 2.7 1.5 1.8 1.3.7 1 .3 1v.5l-.5.5h-24.3l-2.2-.3-1.8-.2-2.7-.8-1.5-.7-.3-.3h-.2l1.2-.2 1.3-.5 1.7-1.3 1.8-1.2 1-1.5.5-1 .2-1.3-.2-1.5-.3-1.5-.5-2.5-.5-1z" fill="#fff"/><path d="m454.8 291.5-1 3-.5-.2-4.3-1.5-4-1.8-4-1.2-3.7-1.3-2-.2-2-.3-1.8.3-2 .2-2 .5-1.7.8-2 1-2 1.5-2.3 2-2 2.2-2 2.8-1.7 2.7-1.8 3-1.5 3.3-1.5 3.5-1 3.5-1 3.2-.7 3.5-.3 3.5-.2 3.3v3l.5 3 .7 2.5 1.3 2.5 4.5 5.7 4.5 5.3 5 5.2 1 1.5.7 2.3 1 3 .5 3.7 1 8.5.8 10.3h-1l-1.8 1-1.5.7-2 .8-1.7.5-2 .2h-2l-2-.2-2-.3-26.5-7-1.8-.5-1.5-.7-1.7-.8-1.3-1-1.2-1-1.3-1.2-1-1.3-1-1.5-.7-1.2-.8-1.5-.5-1.5-.2-1.8-.3-1.5v-3.2l.5-1.8 31-119 1-2.5 1-2 1.8-2 1.7-2 2.3-1.5 2.5-1 2.5-.7 2.7-.5h3l2.8.7 26.5 6.8 1.7.5 1.8.7 1.5.8 1.2 1 1.5 1.2 1 1 1.3 1.3.7 1.5 1 1.2.5 1.5.5 1.5.5 1.8v5l-.5 1.5z" fill="#ed1d31"/><path d="m520 127.8 2.3 4 2 4.5 1.5 5.2 1.5 5.5 1.2 5.8 1 6 .8 6.2.5 6.3.2 6.2.3 6v6l-.3 5.8-.7 10.5-.3 4.5-.7 3.7-1.3 8.5-2 10.5-1.2 5.8-1.5 6-1.8 6.5-2.2 6.2-2.8 6.8-3 6.5-3.5 6.5-4.2 6.2-2.3 3.3-2.2 3-2.8 3-2.7 3-2.8 2.7-3 2.8-3.2 2.5-3.5 2.5-.5.5-2.5-2.3-2.8-2-3-1.5-3.2-1.2-7.8-2.3-9.7-3 1-3 8.7-34.2.5-1.5v-5l-.5-1.8-.5-1.5-.5-1.5-1-1.2-.7-1.5-1.3-1.3-1-1-1.5-1.2-1.2-1-1.5-.8-1.8-.7-1.7-.5-26.5-6.8-2.8-.7h-3l-2.7.5-2.5.7-2.5 1-2.3 1.5-1.7 2-1.8 2-2.7-1.7-1.8-3.3-1.5-3.2-1.5-3.5-1.2-3.5-2.3-7.5-2-7.5-1.5-7.8-1.2-7.5-2.3-13.7-.7-3-1-2.3-1.3-2-1.7-1.5-1.8-1.2-2.2-1-2.8-.8-2.7-.5-6.8-.5-8-.7-9.2-1-5.3-.8-5.5-1-10.5-2-8.7-1.5-7.5-1-6.5-1.2-5.8-1.3-2.7-.7-2.5-1-2.8-1.3-2.5-1.2-2.7-1.8-2.8-1.7-2.5-2-2.2-2.3-2-2.2-2-2.3-1.5-2.2-1.5-2.5-1.3-2.5-.7-2.5-.8-2.8-.2-2.5v-2.7l.2-2.5.5-2.5 1-2.8 1.3-2.5 1.7-2.5 2-2.5 5.5-5.5 6.8-6.5 8.2-6.7 8.8-7 9.2-6.8 9.3-6.2 4.5-3 4.2-2.5 4.3-2.3 3.7-1.7 4-1.5 4-1.3 4.3-1 4.5-1 4.5-.5 4.7-.2 4.8-.3h15.5l10.7.5 11.3.8 11.5.5 3 .2 3 .3 3.2.7 3 .8 6.3 2 6.5 2.7 6.2 3.3 6.3 3.2 6 3.8 5.7 3.7 5.3 3.8 5 3.7 8.2 6.5 5.3 4.5 2 1.8 2.2 2.5 5.8 7 3.7 4.7 4.5 6 4.5 6.5z" fill="#9e5c26"/><path d="m628 684.8-107.5-232.3-21.5 8-1.5-4.2-2.5-13-2.5-14 4.8-.5 9.7 4 10.5 4.2 12 5.3 12.8 6 6 3 5.7 3.2 5 3 4.5 3 3.8 3 1.2 1.3 1.3 1.5 1 1.7 1.2 2.5 3 7 3.5 9.8 4 11.7 4.5 13.8 4.5 15.2 4.8 16.3 4.7 17.2 4.8 17.5 4.5 17.8 4.2 17.2 4 16.8 3.3 16 3 14.2 2 13z" fill="#a9d7f3"/><g fill="none" stroke="#231f20" stroke-linecap="round" stroke-miterlimit="10"><path d="m452 477-3.7-5.5-3.8-5.7-4.5-7-4.2-7.5-2-4-2-3.8-1.5-3.5-1-3.2-.8-3-.2-2.5v-14l-.3-15.5-.2-8.3-.5-8.2-.8-10.3-1-8.5-.5-3.7-1-3-.7-2.3-1-1.5-5-5.2-4.5-5.3-4.5-5.7-1.3-2.5-.7-2.5-.5-3v-3l.2-3.3.3-3.5.7-3.5 1-3.2 1-3.5 1.5-3.5 1.5-3.3 1.8-3 1.7-2.7 2-2.8 2-2.2 2.3-2 2-1.5 2-1 1.7-.8 2-.5 2-.2 1.8-.3 2 .3 2 .2 3.7 1.3 4 1.2 4 1.8 4.3 1.5.5.2 9.7 3 7.8 2.3 3.2 1.2 3 1.5 2.8 2 2.5 2.3 1.5 1.5 1.2 2 1.5 2.2 1.3 2.5 1.7 3.8 1.5 3.7 1 3.8 1 4 .8 4 .5 4 .2 4.2.3 4-.3 8.5-.5 8.3-.7 8-.8 8-1 10.2-.7 10.8v10.7l.2 10.5 1 7.8 2.5 14 2.5 13m130.5 228.5.5 1.2.8 3.3 1.5 4.2 1 4.5 1 4.5.7 4.8.8 4.5.2 4.7v9.8l-.2 4.7-.3 4.8-.7 4.7-.8 4.8-1 4.7-1 4.5-1.2 4.5-1.5 4.3-1.8 4.2-1.7 4-2 3.8-2 3.5-2.3 3.5-2.2 3.2-2.5 2.8-2.8 2.7-2.7 2.3-2.8 2-3 1.7-3.2 1.3-3.3 1-3.2.5h-3.5l-3.5-.3-4.8-.7-4.7-1.5-4.5-1.8-4.5-2-2.8-1.7-2.7-1.8-5.5-4-5.5-4.5-5-5-5-5.5-5-6-4.8-6.5-4.5-6.7-4.2-7.3-4.3-7.5-4-7.7-4-8-3.7-8-3.5-8.3-3.5-8.5-3.3-8.5-6.2-17-5.5-17-5-16.2-4.5-15.8-4-14.5-3.3-13.2-5.2-21-16.3-64.3-6.5-26.2 13.3-5 46.7-17.3 21.5-8z" stroke-width="14"/><path d="m426.3 385.3-1.8 1-1.5.7-2 .8-1.7.5-2 .2h-2l-2-.2-2-.3-26.5-7-1.8-.5-1.5-.7-1.7-.8-1.3-1-1.2-1-1.3-1.2-1-1.3-1-1.5-.7-1.2-.8-1.5-.5-1.5-.2-1.8-.3-1.5v-3.2l.5-1.8 31-119 1-2.5 1-2 1.8-2 1.7-2 2.3-1.5 2.5-1 2.5-.7 2.7-.5h3l2.8.7 26.5 6.8 1.7.5 1.8.7 1.5.8 1.2 1 1.5 1.2 1 1 1.3 1.3.7 1.5 1 1.2.5 1.5.5 1.5.5 1.8v5l-.5 1.5-8.7 34.2" stroke-width="14"/><path d="m300.3 215 3.2 2.3 4 2.5 4.5 2.5 5 2 4.3 1.7 2.7 1.5 1.8 1.3.7 1 .3 1v.5l-.5.5h-24.3l-2.2-.3-1.8-.2-2.7-.8-1.5-.7-.3-.3h-.2l-.5-1-1.5-3.2-.5-1.5-.3-1.3v-2.7l.8-2.8.7-2.2 1-1.8 1-1.5 1-1.2 1.3 1.5z" stroke-width="7"/><path d="m286.5 187.5 2-.5 2.5-.5 3.5-.2h4.3l5.7.7 3 .8 3.5.7 3.8 1.3 4 1.2 4.5 1.8 4 2 3.7 2 3 2 3 2 2.3 2 4 3.7" stroke-width="14"/><path d="m299.5 216 .5 1 .5 2.5.3 1.5.2 1.5-.2 1.3-.5 1-1 1.5-1.8 1.2-1.7 1.3-1.3.5-1.2.2h-.8" stroke-width="7"/><path d="m483.3 306.3 3.5-2.5 3.2-2.5 3-2.8 2.8-2.7 2.7-3 2.8-3 2.2-3 2.3-3.3 4.2-6.2 3.5-6.5 3-6.5 2.8-6.8 2.2-6.2 1.8-6.5 1.5-6 1.2-5.8 2-10.5 1.3-8.5.7-3.7.3-4.5.7-10.5.3-5.8v-6l-.3-6-.2-6.2-.5-6.3-.8-6.2-1-6-1.2-5.8-1.5-5.5-1.5-5.2-2-4.5-2.3-4-5-7.3-4.5-6.5-4.5-6-3.7-4.7-5.8-7-2.2-2.5-2-1.8-5.3-4.5-8.2-6.5-5-3.7-5.3-3.8-5.7-3.7-6-3.8-6.3-3.2-6.2-3.3-6.5-2.7-6.3-2-3-.8-3.2-.7-3-.3-3-.2-11.5-.5-11.3-.8-10.7-.5h-15.5l-4.8.3-4.7.2-4.5.5-4.5 1-4.3 1-4 1.3-4 1.5-3.7 1.7-4.3 2.3-4.2 2.5-4.5 3-9.3 6.2-9.2 6.8-8.8 7-8.2 6.7-6.8 6.5-5.5 5.5-2 2.5-1.7 2.5-1.3 2.5-1 2.8-.5 2.5-.2 2.5v2.7l.2 2.5.8 2.8.7 2.5 1.3 2.5 1.5 2.5 1.5 2.2 2 2.3 2 2.2 2.2 2.3 2.5 2 2.8 1.7 2.7 1.8 2.5 1.2 2.8 1.3 2.5 1 2.7.7 5.8 1.3 6.5 1.2 7.5 1 8.7 1.5 10.5 2 5.5 1 5.3.8 9.2 1 8 .7 6.8.5 2.7.5 2.8.8 2.2 1 1.8 1.2 1.7 1.5 1.3 2 1 2.3.7 3 2.3 13.7 1.2 7.5 1.5 7.8 2 7.5 2.3 7.5 1.2 3.5 1.5 3.5 1.5 3.2 1.8 3.3m-103 201.5.5.2 5 2.3 4.5 1.7 5.5 1.8 6.2 1.7 7.5 1.5 8 1.3 4.3.5 4.5.2 4.5.3h4.7l5-.3 5-.5 5-.7 5-1 5.3-1.3 5.2-1.5 5.3-2 5.2-2 5.5-2.7 5.3-3 5.2-3.3 5.3-3.7 5.2-4.3 5.3-4.7m70 11.5 9.7 4 10.5 4.2 12 5.3 12.8 6 6 3 5.7 3.2 5 3 4.5 3 3.8 3 1.2 1.3 1.3 1.5 1 1.7 1.2 2.5 3 7 3.5 9.8 4 11.7 4.5 13.8 4.5 15.2 4.8 16.3 4.7 17.2 4.8 17.5 4.5 17.8 4.2 17.2 4 16.8 3.3 16 3 14.2 2 13 1.2 10.8" stroke-width="14"/><path d="m279.8 145.8-2.5 2-2.8 3-3 3.5-3 4.5-2.7 4.7-2.8 5.3-2.2 5.5-1 3-.8 2.7-1 4.3-.5 3.7-.2 3.3v3l.5 6.5.5 7.2.2 3.8v3.5l-.2 3.5-.8 3.2-1.2 3.3-2 3.2-2.5 3.3-3.5 3.5-7.8 7.2-5.5 4.8-9 7.5-1.2 1.2-1 1.3-.5 1.2-.5 1.3-.3 1.2-.2 1.5v1.3l.2 1.2 1 2.5 1.3 2 1.5 1.8 1 .5.7.5 4 1.2 1.8.8 8.2 1.2.8.5.7.5.5.5.5 1 .8 2 .2 2.5v2.5l-.5 2.5-.7 2.3-.5.7-.8.8-2.5 2.2-1 1-.7 1-.3.5v.5l.3.8.2.5 1.3 1.2 2.2 1.8 13.8 8.7 6.5 4 9.5 5.3-3.3 1-7.7 2.7-4.8 1.5-4.7 1.5-4.5 1-4 .8.2 3.2-.2 4.8-.3 5.7-.5 5.8-.5 5v3l.3 3.2.5 1.8.5 1.5.7 1.7.8 1.3 1.2 1.5 1.5 1.2 1.5 1.3 2 1 3.8 1.2 4.2.8 9.3 1.5 4.5 1 4 1 2 .5 1.7.7 1.8.8 1.2 1 2.3 2 2 1.7 1.7 2.3 2 2.5 1.8 2.7 1.5 3.5 1.7 3.8 1.8 4.5 1 6.5 1 4.7.7 4.5.3 4.3.2 3.7-.2 3.5-.3 3.5-.5 3-.7 2.5-.8 2.3-.7 2-41.5 67.5-1.5 3-1.8 3.7-2.5 5.5-2.7 7.5-3.3 9.3-3.2 11.2-3.8 13.5-3.5 15.5-3.7 18-1.8 10-1.7 10.5-1.5 11-1.8 11.8-1.5 12.5-1.2 13.2-1.5 13.8-1 14.5-1.3 15.2-.7 15.8-.8 16.7-.7 17.3" stroke-width="14"/></g></svg>