<svg height="850.394" viewBox="0 0 850.394 850.394" width="850.394" xmlns="http://www.w3.org/2000/svg"><g fill="#7a7878"><path d="m348.88 754.92v3.27h-39.25v-39.84h39.25v.62zm-79.09 2.38v-38.95h39.84v39.84h-39.84z"/><path d="m269.79 757.3v.89h-47.28v-39.84h47.28v1zm79.09-38.33v-.62h159.07v39.84h-159.07v-3.27zm159.07 35.66v-36.28h38.66v39.84h-38.66zm79.09.3v3.26h-40.43v-39.84h40.43v.63zm0-35.95v-.63h39.55v39.84h-39.55v-3.26zm-.89-16.68v3.26h-40.43v-39.84h40.43v.63z"/><path d="m586.15 665.72h40.44v39.84h-40.44v-39.21zm-40.43 37.48v2.36h-38.66v-39.84h38.66v1.52zm-38.66-1.2v3.56h-40.44v-39.84h40.44v.33zm-40.44.9v2.66h-41.03v-39.84h41.03v1.22zm-41.03-36.07v38.73h-37.76v-39.84h37.76z"/><path d="m387.83 702v3.56h-39.84v-39.84h39.84v.33zm197.88-55v3.25h-40.44v-39.84h40.44v1.63zm40.88-36.59v39.84h-40.88v-39.84zm-81.32 37.48v2.36h-38.65v-39.84h38.65v2.53zm-38.65-1.19v3.55h-40.44v-39.84h40.44v1.33zm-40.44.89v2.66h-41.04v-39.84h41.04v1.23zm-41.04.89v1.77h-37.76v-39.84h37.76v1.12zm-37.76-1.78v3.55h-39.84v-39.84h39.84v1.33z"/><path d="m347.54 648.99v1.26h-39.25v-39.84h39.25v1.63zm237.27-92.36v-.63h41.78v39.84h-41.78v-3.25zm0 35.96v3.25h-40.43v-39.84h40.43v.63zm-40.43.89v2.36h-38.66v-39.84h38.66v1.52zm-38.66-1.19v3.55h-40.44v-39.84h40.44v.33zm-40.44.89v2.66h-41.03v-39.84h41.03v1.22zm-41.03.89v1.77h-37.76v-39.84h37.76v1.12zm-37.76-1.78v3.55h-39.84v-39.84h39.84v.33zm-39.84.29v3.26h-39.25v-39.84h39.25v.62z"/></g><path d="m446.41 472.26v13.45c0 3.72-3 6.73-6.72 6.73h-30.27a6.727 6.727 0 0 1 -6.73-6.73v-13.45c0-3.72 3.01-6.729 6.73-6.729h30.271a6.716 6.716 0 0 1 6.719 6.729z" fill="#c8c8c8"/><path d="m293.43 472.3v13.45c0 3.72-3.01 6.73-6.73 6.73h-30.27a6.727 6.727 0 0 1 -6.73-6.73v-13.45c0-3.72 3.01-6.729 6.73-6.729h30.27a6.725 6.725 0 0 1 6.73 6.729z" fill="#33a048"/><path d="m598.95 472.26v13.45c0 3.72-3.01 6.73-6.73 6.73h-30.27a6.727 6.727 0 0 1 -6.73-6.73v-13.45a6.726 6.726 0 0 1 6.73-6.729h30.27a6.725 6.725 0 0 1 6.73 6.729z" fill="#ed1d31"/><path d="m474.16 452.71v52.56a6.722 6.722 0 0 1 -6.72 6.721h-85.77c-3.72 0-6.73-3.01-6.73-6.721v-52.56c0-3.72 3.01-6.729 6.73-6.729h85.771c3.709-.001 6.719 3.009 6.719 6.729zm-27.75 33v-13.45c0-3.72-3-6.729-6.72-6.729h-30.27c-3.72 0-6.73 3.01-6.73 6.729v13.45c0 3.72 3.01 6.73 6.73 6.73h30.271a6.717 6.717 0 0 0 6.719-6.73zm-137.67 219.26v.59h-39.84v-39.84h39.84v.3zm-39.84-.3v.89h-46.39v-39.84h46.39zm79.09-2.37v3.26h-39.25v-39.84h39.25zm-79.54-52.93v.88h-45.94v-39.84h45.94zm39.84.3v.58h-39.84v-39.84h39.84v.3zm-40.73-54.71v.88h-45.05v-39.84h45.05z" fill="#7a7878"/><path d="m307.4 595.26v.58h-39.84v-39.84h39.84v.3z" fill="#7a7878"/><path d="m507.95 718.35h-285.44v-12.79h404.08v12.79h-79.98zm-1.33-107.94h-284.11v-14.57h404.08v14.57h-81.32zm.44 55.31h-284.55v-15.47h404.08v15.47h-80.87zm119.53 92.47v6.689c0 11.82-9.58 21.4-21.41 21.4h-361.26c-11.82 0-21.41-9.58-21.41-21.4v-6.689zm-120.87-202.19h-283.21v-26.17h404.08v26.17h-82.21zm120.87-109.57v83.4h-404.08v-83.4c0-11.819 9.59-21.41 21.41-21.41h361.26c11.83 0 21.41 9.59 21.41 21.41zm-27.64 39.28v-13.45c0-3.72-3.01-6.729-6.73-6.729h-30.27c-3.72 0-6.73 3.01-6.73 6.729v13.45c0 3.72 3.011 6.73 6.73 6.73h30.27c3.72 0 6.73-3.01 6.73-6.73zm-124.79 19.56v-52.56c0-3.72-3.01-6.729-6.72-6.729h-85.77c-3.72 0-6.73 3.01-6.73 6.729v52.56a6.724 6.724 0 0 0 6.73 6.721h85.771a6.723 6.723 0 0 0 6.719-6.721zm-180.73-19.52v-13.45c0-3.72-3.01-6.729-6.73-6.729h-30.27c-3.72 0-6.73 3.01-6.73 6.729v13.45c0 3.72 3.01 6.73 6.73 6.73h30.27c3.72 0 6.73-3.01 6.73-6.73zm333.61-402.81v318.44c0 11.83-9.58 21.41-21.41 21.41h-361.26c-11.83 0-21.41-9.58-21.41-21.41v-318.44c0-11.83 9.58-21.41 21.41-21.41h361.26c11.83 0 21.41 9.58 21.41 21.41zm-26.54 276.97v-214.09c0-11.82-9.58-21.4-21.41-21.4h-308.19c-11.82 0-21.4 9.58-21.4 21.4v214.09c0 11.82 9.58 21.4 21.4 21.4h308.19c11.83 0 21.41-9.58 21.41-21.4z" fill="#c8c8c8"/><path d="m600.5 145.82v214.09c0 11.82-9.58 21.4-21.41 21.4h-308.19c-11.82 0-21.4-9.58-21.4-21.4v-214.09c0-11.82 9.58-21.4 21.4-21.4h308.19c11.83 0 21.41 9.58 21.41 21.4z" fill="#7a7878"/><g fill="none" stroke="#231f20"><path d="m627.04 401.38c0 11.83-9.58 21.41-21.41 21.41h-361.26c-11.83 0-21.41-9.58-21.41-21.41v-318.44c0-11.83 9.58-21.41 21.41-21.41h361.26c11.83 0 21.41 9.58 21.41 21.41zm-.45 356.81v6.689c0 11.82-9.58 21.4-21.41 21.4h-361.26c-11.82 0-21.41-9.58-21.41-21.4v-318.449c0-11.819 9.59-21.41 21.41-21.41h361.26c11.83 0 21.41 9.59 21.41 21.41z" stroke-width="21"/><path d="m600.5 359.91c0 11.82-9.58 21.4-21.41 21.4h-308.19c-11.82 0-21.4-9.58-21.4-21.4v-214.09c0-11.82 9.58-21.4 21.4-21.4h308.19c11.83 0 21.41 9.58 21.41 21.4zm-375.16 169.92h402" stroke-width="14"/><path d="m446.41 485.71c0 3.72-3 6.73-6.72 6.73h-30.27a6.727 6.727 0 0 1 -6.73-6.73v-13.45c0-3.72 3.01-6.729 6.73-6.729h30.271c3.72 0 6.72 3.01 6.72 6.729v13.45zm-152.98.04c0 3.72-3.01 6.73-6.73 6.73h-30.27a6.727 6.727 0 0 1 -6.73-6.73v-13.45c0-3.72 3.01-6.729 6.73-6.729h30.27c3.72 0 6.73 3.01 6.73 6.729zm305.52-.04c0 3.72-3.01 6.73-6.73 6.73h-30.27a6.727 6.727 0 0 1 -6.73-6.73v-13.45a6.726 6.726 0 0 1 6.73-6.729h30.27c3.721 0 6.73 3.01 6.73 6.729z" stroke-width="14.272"/><path d="m474.16 505.27a6.722 6.722 0 0 1 -6.72 6.721h-85.77c-3.72 0-6.73-3.01-6.73-6.721v-52.56c0-3.72 3.01-6.729 6.73-6.729h85.771c3.71 0 6.72 3.01 6.72 6.729v52.56z" stroke-width="14.272"/><path d="m224.15 556h402.59m-405.57 39.84h402.6m-356.21-39.84v38.96m39.84-38.66v38.96m39.25-38.64v35.96m39.84-36.25v35.96m37.76-35.17v36.95m41.03-36.85v35.96m40.44-36.85v35.96m38.66-34.77v35.96m40.43-36.85v35.96m-359.77 17.82h402.6m-405.58 39.84h402.6m-356.21-39.84v38.96m39.84-38.66v38.96m39.25-37.63v36.95m39.84-37.25v34.96m37.76-35.17v36.95m41.04-36.84v35.95m40.44-35.85v34.96m38.65-33.76v34.95m40.44-35.85v34.96m-360.23 18.72h402.6m-405.57 39.84h402.6m-356.21-39.84v38.95m39.84-38.65v38.95m39.25-39.63v36.96m39.84-36.25v35.95m37.76-35.17v36.96m41.03-36.85v35.96m40.44-36.85v35.95m38.66-34.76v35.96m40.43-36.85v35.95m-359.77 16.05h402.59m-405.57 39.84h402.6m-356.21-38.84v37.95m39.84-35.65v35.95m39.25-38.63v35.95m159.07-36.24v35.95m38.66-34.76v35.95m40.43-36.84v35.95" stroke-width="7.136"/></g><path d="m0 0h850.394v850.394h-850.394z" fill="none"/></svg>