<svg height="850.394" viewBox="0 0 850.394 850.394" width="850.394" xmlns="http://www.w3.org/2000/svg"><path d="m348.288 434.268v313.95c0 14.84-6.02 28.28-15.74 38.01-9.73 9.73-23.17 15.75-38 15.75-29.69 0-53.76-24.069-53.76-53.76v-313.95s6.02-52.26 14.44-88.96c8.43-36.7 36.11-186.79 37.91-210.86.41-5.45.67-12.88.82-21.1.15 7.62.39 14.47.78 19.59 1.8 24.07 29.48 174.16 37.9 210.86 8.43 36.7 15.65 90.47 15.65 90.47zm-23.17 223.96v-10.83c0-15.95-12.93-28.88-28.88-28.88h-4.21c-15.95 0-28.89 12.93-28.89 28.88v10.83c0 15.95 12.94 28.88 28.89 28.88h4.21c15.95-.001 28.88-12.93 28.88-28.88zm-11.73-94.98v-61.57c0-9.91-5.17-17.95-11.55-17.95h-15.4c-6.38 0-11.56 8.04-11.56 17.95v61.57c0 9.91 5.18 17.949 11.56 17.949h15.4c6.38 0 11.55-8.039 11.55-17.949z" fill="#fff5b4"/><path d="m325.118 647.397v10.83c0 15.95-12.93 28.88-28.88 28.88h-4.21c-15.95 0-28.89-12.93-28.89-28.88v-10.83c0-15.95 12.94-28.88 28.89-28.88h4.21c15.95.001 28.88 12.93 28.88 28.88z" fill="#ef947d"/><path d="m313.388 501.678v61.57c0 9.91-5.17 17.949-11.55 17.949h-15.4c-6.38 0-11.56-8.039-11.56-17.949v-61.57c0-9.91 5.18-17.95 11.56-17.95h15.4c6.38 0 11.55 8.04 11.55 17.95z" fill="#fff"/><g fill="none" stroke="#231f20"><g stroke-width="21"><path d="m293.928 59.278c.1-7.87.2-12.98.2-12.98m-.17 67.05c-.36-17.7-.2-39.55-.03-53.4m.03 53.4c-.15 8.22-.41 15.65-.82 21.1-1.8 24.07-29.48 174.16-37.91 210.86-8.42 36.7-14.44 88.96-14.44 88.96v313.95c0 29.69 24.07 53.76 53.76 53.76 14.83 0 28.27-6.02 38-15.75 9.72-9.729 15.74-23.17 15.74-38.01v-313.95s-7.22-53.77-15.65-90.47c-8.42-36.7-36.1-186.79-37.9-210.86-.39-5.12-.63-11.97-.78-19.59z" stroke-linecap="round" stroke-linejoin="round"/><path d="m293.748 47.808s.09 4.47.18 12.14c0-.22 0-.45 0 0 .18 13.35.36 35.31.03 53.4" stroke-linecap="round" stroke-linejoin="round"/><path d="m263.138 647.397c0-15.95 12.94-28.88 28.89-28.88h4.21c15.95 0 28.88 12.93 28.88 28.88v10.83c0 15.95-12.93 28.88-28.88 28.88h-4.21c-15.95 0-28.89-12.93-28.89-28.88z"/></g><path d="m274.878 501.678c0-9.91 5.18-17.95 11.56-17.95h15.4c6.38 0 11.55 8.04 11.55 17.95v61.57c0 9.91-5.17 17.949-11.55 17.949h-15.4c-6.38 0-11.56-8.039-11.56-17.949z" stroke-width="14"/></g><path d="m0 0h850.394v850.394h-850.394z" fill="none"/><path d="m807.789 78.587v143.835l-155.607 33.784v-160.214zm-40.561 87.006v-27.201l-23.701 3.691v-27.007l-24.482 3.887v27.007l-22.538 3.885v27.782l23.511-4.275v29.922l24.867-5.051v-28.755z" fill="#34a047"/><path d="m767.228 138.393v27.2l-22.344 3.885v28.755l-24.867 5.051v-29.922l-23.511 4.276v-27.783l22.538-3.884v-27.007l24.482-3.887v27.006z" fill="#fff"/><path d="m755.43 67.475c.404-.013.816-.019 1.232-.019 7.025 0 12.724 1.814 12.724 4.05 0 2.233-5.698 4.047-12.724 4.047-7.027 0-12.726-1.814-12.726-4.047.001-2.105 5.045-3.835 11.494-4.031zm-84.229 8.541c5.852.363 10.268 2.002 10.268 3.972 0 2.236-5.695 4.05-12.723 4.05s-12.727-1.814-12.727-4.05 5.698-4.047 12.727-4.047c.841 0 1.66.025 2.455.075z" fill="#231f20"/><path d="m671.201 76.016a39.139 39.139 0 0 0 -2.455-.075c-7.028 0-12.727 1.811-12.727 4.047s5.698 4.05 12.727 4.05c7.027 0 12.723-1.814 12.723-4.05 0-1.97-4.416-3.609-10.268-3.972zm84.229-8.541c-6.448.197-11.493 1.926-11.493 4.031 0 2.233 5.698 4.047 12.726 4.047 7.025 0 12.724-1.814 12.724-4.047 0-2.236-5.698-4.05-12.724-4.05-.417 0-.829.006-1.233.019zm-5.896-9.133 13.725-1.251 45.115 20.188-.585 1.308-155.607 17.405v160.214l-33.759-39.927.122-146.006 58.048-5.289z" fill="#34a047"/><g fill="none" stroke="#231f20"><path d="m652.182 95.992v160.214m157.403-178.386-1.211-.541-45.115-20.188-13.725 1.251-72.941 6.643-58.048 5.288-.122 146.006 33.759 39.927 155.607-33.784v-143.835l-155.607 17.405-30.701-22.779" stroke-width="6.568"/><path d="m743.526 142.083v-27.006l-24.482 3.887v27.007l-22.538 3.884v27.783l23.511-4.276v29.922l24.867-5.051v-28.755l22.344-3.885v-27.2z" stroke-width="4.379"/><path d="m671.201 76.016 5.392-11.031 11.047-22.594 49.356-3.472 12.538 19.423 5.896 9.133" stroke-linecap="round" stroke-linejoin="round" stroke-width="13.136"/><path d="m681.469 79.988c0 2.236-5.695 4.05-12.723 4.05s-12.727-1.814-12.727-4.05 5.698-4.047 12.727-4.047c.841 0 1.66.025 2.455.075 5.852.363 10.268 2.002 10.268 3.972zm87.917-8.482c0 2.233-5.698 4.047-12.724 4.047-7.027 0-12.726-1.814-12.726-4.047 0-2.105 5.045-3.834 11.493-4.031.404-.013.816-.019 1.232-.019 7.027 0 12.725 1.814 12.725 4.05z" stroke-width="2.314"/></g></svg>