<svg height="850" viewBox="0 0 850 850" width="850" xmlns="http://www.w3.org/2000/svg"><path d="m212.3 533.8-2.8-2-2.8-1.8-3-1.3-3-1.3-3.3-1-3.3-.8-3-.5-3.1-.1h-3.3l-3.3.3-3.3.8-3 .8-3 1-3 1.3-2.8 1.3-2.8 1.8 5.5 1.5v6.6l.3 1.8.5 1.8.8 1.8.8 1.8 1 1.5 1.3 1.5 1.3 1.3 1.3 1.3 1.5 1 1.8 1 1.8.8 1.8.8 1.8.3 2 .5h4l2-.5 1.8-.3 2-.8 1.5-.8 1.8-1 1.5-1 1.5-1.3 1.3-1.3 1-1.5 1-1.5.8-1.8.8-1.8.5-1.8.3-1.8v-2zm61.2 127.5-.8.3 1.8-.3zm35-303.5 1.5 1 4.5 3 7.5 5.5 4.5 3.5 5.3 4.5 5.8 5.3 6.3 6.3 7 6.8 7.3 8 7.8 8.8 8 9.8 8.5 10.8 9 12 1.5 2.3 2.3 2.3 5.5 5.8 6.5 6.8 6.8 7.5 3.5 4.3 3.5 4.3 3.3 4.5 3 4.8 2.8 4.8 2.5 4.8 2 5.3 1.8 5v1.3l.5 21v19l-.3 9.5-.5 9.3-1.2 8.3-1.3 9.3-1.5 9.3-2 9-2 9-2.5 9-2 6.8-2.3 6.8-2.3 6.5-2.5 6.5-5.3 12.8-5.8 12.5-6 12-6.5 11.5-7 11-7 10.5-7.3 10-7.5 9.3-7.5 8.8-7.5 8-7.5 7.3-7.5 6.8-7.3 5.8-7.3 4.8-3.5 1.8-3.3 1.3-3.3 1-3.3 1-3.3.8-3 .8h-5.9l-6.5.5h-21.5l-13.8.3h-6.2l-5.8-.3-6-.5-5.8-1-3-.8-3-1-3.3-1.3-3-1.3-4-2.3-3.8-2.5-4-2.8-4-2.8-7.8-6.5-8-7-7.8-8-8-8.8-7.5-9.3-7.5-10-7.5-10.5-7-11-6.5-11.8-6.3-12-6-12.5-2.8-6.5-2.5-6.5-2.5-6.8-2.5-6.8-2-6.8-2.3-6.8-1.8-8.6-2.3-9-1.8-9.3-1.8-9.5-1.3-9.5-.8-9.5-.5-9.5-.3-9.8v-38l.5-22.5h-3l7.5-9.3 7.8-9.3 7.8-9 7.3-8 11.8-12.5 4.8-5 1.5-1 2.5-1.3 6-3 8-3.5 9.5-4 23-9.3 26-10.3 27-10.8 13.3-5.5 12.5-5.5 11.8-5.5 10.8-5.3 9.3-5 3.8-2.5 3.8-2.3zm16.8 177h5.5l.3 1v1.8l.3 2 .3 1.8.5 1.8.5 1.8 1 1.5 1 1.8 1 1.3 1.3 1.5 1.5 1.3 1.5 1 1.5 1 1.8.8 1.8.5 2 .5 2 .3 2 .3 2-.3 1.8-.3 2-.5 1.8-.5 1.8-.8 1.5-1 1.5-1 1.5-1.3 1.3-1.5 1-1.3 1-1.8 1-1.5.5-1.8.5-1.8.3-1.8.3-2v-3.3l-.9-1.3-.3-1.3 1-3.3-4.5-1.8-4.8-1.3-5-1h-4.9l-3.5.3-3.5.5-3.5.9-3.5 1.3-3.3 1.5-3.3 1.8-3 2z" fill="#ffeec8"/><path d="m391.3 442.8-9-12-8.5-10.8-8-9.7-7.8-8.8-7.2-8-7-6.7-6.3-6.3-5.7-5.2-5.3-4.5-4.5-3.5-7.5-5.5-4.5-3-1.5-1-.2.2-3.8 2.3-3.7 2.5-9.3 5-10.7 5.2-11.8 5.5-12.5 5.5-13.2 5.5-27 10.8-26 10.2-23 9.3-9.5 4-8 3.5-6 3-2.5 1.2-1.5 1-4.8 5-11.7 12.5-7.3 8-7.7 9-7.8 9.3-7.5 9.2-4.2 5.8-4 5.7-3.3 5.3-2.5 4.5-1.7-56.8v-8.5l.7-8 1-8 1.3-7.7 1.7-7.5 2-7.3 2.3-7 2.5-6.7 2.7-6.5 2.8-6.3 3-6 3.2-5.7 3.3-5.5 3.5-5.3 3.5-5 3.5-4.7 3.2-4.3 3.5-4.2 6.8-7.5 6.2-6.5 5.5-5.5 4.8-4 3.7-3 3-2.5 6-3.8 4.5-2.7 4-2.3 7-4 7.5-3.7 7.8-3.3 8-3.2 8.2-2.5 8.8-2.3 8.7-2 9-1.7 9.5-1.3 9.8-1 10-.5 10.2-.2 10.5.2 11 .3 11.3 1 11.5 1 7 1.2 6.7 1.3 6.8 1.7 6.7 2.3 6.5 2.5 6.5 2.7 6.3 3 6 3.5 6 4 5.7 4 5.8 4.5 5.5 4.5 5.5 5 5 5.3 5 5.5 5 5.7 4.5 6 4.5 6.5 4.2 6.3 4 6.7 3.8 7 3.7 7.3 3.3 7.2 3.2 7.5 3 7.8 2.5 7.7 2.5 8 2.3 8.3 2 8.2 1.7 8.5 1.3 8.5 1.2 8.8.3 2.7v3l-.3 3-.2 3.3-1.3 6.7-1.5 7-3.5 14-1.5 6.8-1.5 6.2h-2.7l-2.5.3-2.8.5-2.5.7h-1.7l-.3-1.2-1.7-5-2-5.3-2.5-4.7-2.8-4.8-3-4.7-3.2-4.5-3.5-4.3-3.5-4.2-6.8-7.5-6.5-6.8-5.5-5.7-2.2-2.3z" fill="#9e5c26"/><path d="m188.8 531.5h1.5l1.2.3 1.3.7 1 .8.7 1 .8 1 .5 1.2v2.5l-.5 1.3-.8 1-.7 1-1 .7-1.3.5-1.2.3-1.5.2-1.5-.2-1.3-.3-1.2-.5-1-.7-1-1-.5-1-.5-1.3v-2.5l.5-1.2.5-1 1-1 1-.8 1.2-.7 1.3-.3zm161.7-.2 1.5.2 1.3.3 1.2.7 1 .8 1 .7.5 1.3.5 1v2.7l-.5 1-.5 1.3-1 .7-1 .8-1.2.7-1.3.3-1.5.2-1.5-.2-1.2-.3-1.3-.7-1-.8-.7-.7-.8-1.3-.5-1v-2.7l.5-1 .8-1.3.7-.7 1-.8 1.3-.7 1.2-.3z" fill="#231f20"/><path d="m370.8 528.5-1 3.3.3 1.3.3 1.3v3.3l-.3 2-.3 1.8-.5 1.8-.5 1.8-1 1.5-1 1.8-1 1.3-1.3 1.5-1.5.8-1.5 1-1.5 1-1.8.8-1.8.5-2 .5-1.8.3-2 .3-2-.3-2-.3-2-.5-1.8-.5-1.8-.8-1.5-1-1.5-1-1.5-1.3-1.3-1.5-1-1.3-1-1.8-1-1.5-.2-1.6-.5-1.8-.3-1.8-.3-2v-1.8l-.3-1h-5.5l2.8-2.3 3-2 3.3-1.8 3.3-1.5 3.5-1.3 3.5-.8 3.5-.5 3.5-.3h5l5 1 4.8 1.3zm-13.3 9.3v-1.5l-.5-1-.5-1.3-1-.8-1-.8-1.3-.8-1.3-.3-1.5-.3-1.5.3-1.3.3-1.3.8-1 .8-.8.8-.8 1.3-.5 1v2.8l.5 1 .8 1.3.8.8 1 .8 1.3.8 1.3.3 1.5.3 1.5-.3 1.3-.3 1.3-.8 1-.8 1-.8.5-1.3.5-1zm-188.2-4.3-5.5-1.5 2.8-1.8 2.8-1.3 3-1.3 3-1 3-.8 3.3-.8 3.3-.3h3.3l3.3.3 3 .5 3.3.8 3.3 1 3 1.3 3 1.3 2.8 1.8 2.8 2-4 4.3v2l-.3 1.8-.5 1.8-.8 1.8-1.2 1.6-1 1.5-1 1.5-1.3 1.3-1.5 1.3-1.5 1-1.8 1-1.5.8-2 .8-1.8.3-2 .5h-4l-2-.5-1.6-.5-1.8-.8-1.8-.8-1.8-1-1.5-1-1.3-1.3-1.3-1.3-1.3-1.5-1-1.5-.8-1.8-.8-1.8-.5-1.8-.3-1.8v-6.1zm26.5 4.3v-1.3l-.5-1.3-.8-1-.8-1-1-.8-1.3-.8-1.3-.3h-3l-1.3.3-1.3.8-1 .8-1 1-.5 1-.5 1.3v2.6l.5 1.3.5 1 1 1 1 .8 1.3.5 1.3.3 1.5.3 1.5-.3 1.3-.3 1.3-.5 1-.8.8-1 .8-1 .5-1.3z" fill="#fff"/><path d="m448.5 504.5 4 .3 3.5.7 3 1.3 2.5 1.7 2 1.8 1.8 2.2 1.2 2.5 1 2.5.5 2.8.3 2.7v3l-.3 2.8-.2 3-.8 2.7-.7 2.5-1 2.5-1 2.3-2.3 5-1.7 4.5-1.5 4.2-1.3 4-.7 3.8-.8 3.5-.2 3.2-.3 3.3v12.7l.3 6.5-.3 7.5-.2 1.5-.5 1.8-.8 1.7-.7 2-1 1.8-1.3 2-1.5 1.7-1.5 1.8-2 1.5-2 1.2-2.2 1.3-2.5 1-2.8.7-3 .3h-3.2l-3.5-.5-1-.3 2.5-9 2-9 2-9 1.5-9.2 1.2-9.3.8-9.2.5-9.3.2-9.5v-19l-.5-21h2l2.5-.7 2.8-.5 2.5-.3zm-342.2 116.8-1.8.5-3.2.5h-3.3l-3-.5-2.7-.5-2.5-1-2.3-1.3-2.2-1.2-1.8-1.5-1.7-1.8-1.5-2-1-1.7-1.3-1.8-.7-2-.5-1.7-.5-1.8-.3-1.5-.2-7.5v-6.5l.2-6.5v-6.2l-.2-3.3-.5-3.2-.5-3.5-1-3.8-1-4-1.5-4.2-2-4.5-2.3-5-1-2.3-.7-2.5-.8-2.5-.7-2.7-.5-3-.3-2.8v-3l.5-2.7.5-2.8 1-2.5 1.3-2.5 1.5-2.2 2.2-1.8 2.5-1.7 3-1.3 3.5-.7 3.8-.3h3.7l3.5.5 3.3 1h2.2v38l.3 9.8.5 9.5.7 9.5 1.3 9.5 1.7 9.5 1.8 9.2 2.2 9z" fill="#ffeec8"/><path d="m643 66h7.3l7.2.8 7.3 1 7 1.2 7 1.8 6.7 2 6.8 2.5 6.5 2.7 6.2 3 6.3 3.3 6 3.7 5.7 4 5.5 4.3 5.5 4.5 5.3 4.7 5 5 4.7 5.3 4.5 5.5 4.3 5.7 4 6 3.7 6.3 3.3 6.2 3.2 6.8 2.8 6.7 2.7 6.8 2.3 7 1.7 7.2 1.8 7.5 1.2 7.5 1 7.5.5 7.8.3 7.7-.3 8-.5 7.8-1 7.5-1.2 7.5-1.8 7.5-1.7 7.2-2.3 7-2.7 7-2.8 6.5-3.2 6.8-3.3 6.2-3.7 6.3-4 6-4.3 5.7-4.5 5.5-4.7 5.3-5 5-5.3 4.7-5.5 4.5-5.5 4.3-5.7 4-6 3.7-6.3 3.3-6.2 3-6.5 2.7-6.8 2.5-6.7 2-7 1.8-7 1.2-7.3 1-7.2.8h-14.5l-7.3-.8-7-.7-6.7-1.3-6.8-1.7-6.7-2-6.5-2.3-6.3-2.5-6.2-3-6-3.2-6-3.5-5.8-3.8-5.5-4-5.2-4.2-5.3-4.5-5-5-4.7-5-4.3-5.3-4.5-5.5-4-5.7-3.7-6-3.5-6-3.3-6.3-3-6.5-2.5-6.7-2.5-6.8-2-6.7-1.7-7.3-1.5-7.2-1.3-7.3-.7-7.5-.5-7.5 3-1.5 3-1.5 2.5-1.7 2.7-2 2.5-2.3 2.3-2.5 2-2.5 2-2.7 1.7-3 1.5-3 1.3-3 1.2-3.3.8-3.5.7-3.5.5-3.5v-3.7l-.2-4.5-.5-4.5-1-4.5-1.5-4.3-1.8-4-2.2-3.7-2.3-3.5-2.7-3.3 2.2-4.5 2.5-4.5 2.5-4.5 2.8-4.2 2.7-4.3 3-4 3-4 3.3-3.7 3.5-3.8 3.2-3.5 3.8-3.5 3.5-3.5 3.7-3.2 4-3 4-3 4-2.8 4.3-2.7 4.2-2.5 4.3-2.3 4.5-2.2 4.5-2 4.5-2 4.7-1.8 4.8-1.5 4.7-1.5 5-1.2 5-1 4.8-.8 5.2-.7 5-.5 5.3-.3z" fill="#fff"/><path d="m515.3 149 2.7 3.3 2.3 3.5 2.2 3.7 1.8 4 1.5 4.3 1 4.5.5 4.5.2 4.5v3.7l-.5 3.5-.7 3.5-.8 3.5-1.2 3.3-1.3 3-1.5 3-1.7 3-2 2.7-2 2.5-2.3 2.5-2.5 2.3-2.7 2-2.5 1.7-3 1.5-3 1.5v-6.5l.2-9.2.8-9 1.2-9 1.8-8.8 2.2-8.5 2.5-8.5 3.3-8z" fill="#fff"/><path d="m484 135 4.5.3 4.3.7 4.2 1 4.3 1.8 3.7 2 3.8 2.5 3.2 2.7 3.3 3-3.5 8-3.3 8-2.5 8.5-2.2 8.5-1.8 8.8-1.2 9-.8 9-.2 9.2v6.5l-3.8 1.3-4 1-4 .7-4 .3-4.5-.3-4.5-.7-4-1.3-4-1.5-4-2-3.5-2.2-3.2-2.8-3.3-3-2.7-3.2-2.5-3.5-2.3-3.8-1.7-4.2-1.5-4.3-1-4.2-.8-4.8-.2-4.7.2-4.8.8-4.5 1-4.5 1.5-4.2 1.7-4 2.3-3.8 2.5-3.7 2.7-3.3 3.3-3 3.2-2.7 3.5-2.3 4-2 4-1.5 4-1 4.5-.7zm-84 77.3 2.8.2 2.7.5 2.5.8 2.5.7 2.5 1.3 2 1.5 2.3 1.5 1.7 2 1.8 2 1.5 2.2 1.5 2.3 1 2.5 1 2.7.7 2.8.3 2.7.2 3-.2 2.8-.3 3-.7 2.7-1 2.5-1 2.5-1.5 2.5-1.5 2-1.8 2-1.7 2-2.3 1.5-2 1.5-2.5 1.3-2.5 1-2.5.7-2.7.3-2.8.2-2.7-.2-2.5-.3-2.8-.7-2.5-1-2.2-1.3-2.3-1.5-2-1.5-2-2-1.7-2-1.5-2-1.3-2.5-1.2-2.5-.8-2.5-.7-2.7-.5-3v-5.8l.5-2.7.7-2.8.8-2.7 1.2-2.5 1.3-2.3 1.5-2.2 1.7-2 2-2 2-1.5 2.3-1.5 2.2-1.3 2.5-.7 2.8-.8 2.5-.5z" fill="#fff"/><g fill="none" stroke="#231f20" stroke-linecap="round" stroke-miterlimit="10"><path d="m515.3 149 2.2-4.5 2.5-4.5 2.5-4.5 2.8-4.2 2.7-4.3 3-4 3-4 3.3-3.7 3.5-3.8 3.2-3.5 3.8-3.5 3.5-3.5 3.7-3.2 4-3 4-3 4-2.8 4.3-2.7 4.2-2.5 4.3-2.3 4.5-2.2 4.5-2 4.5-2 4.7-1.8 4.8-1.5 4.7-1.5 5-1.2 5-1 4.8-.8 5.2-.7 5-.5 5.3-.3h12.5l7.2.8 7.3 1 7 1.2 7 1.8 6.7 2 6.8 2.5 6.5 2.7 6.2 3 6.3 3.3 6 3.7 5.7 4 5.5 4.3 5.5 4.5 5.3 4.7 5 5 4.7 5.3 4.5 5.5 4.3 5.7 4 6 3.7 6.3 3.3 6.2 3.2 6.8 2.8 6.7 2.7 6.8 2.3 7 1.7 7.2 1.8 7.5 1.2 7.5 1 7.5.5 7.8.3 7.7-.3 8-.5 7.8-1 7.5-1.2 7.5-1.8 7.5-1.7 7.2-2.3 7-2.7 7-2.8 6.5-3.2 6.8-3.3 6.2-3.7 6.3-4 6-4.3 5.7-4.5 5.5-4.7 5.3-5 5-5.3 4.7-5.5 4.5-5.5 4.3-5.7 4-6 3.7-6.3 3.3-6.2 3-6.5 2.7-6.8 2.5-6.7 2-7 1.8-7 1.2-7.3 1-7.2.8h-14.5l-7.3-.8-7-.7-6.7-1.3-6.8-1.7-6.7-2-6.5-2.3-6.3-2.5-6.2-3-6-3.2-6-3.5-5.8-3.8-5.5-4-5.2-4.2-5.3-4.5-5-5-4.7-5-4.3-5.3-4.5-5.5-4-5.7-3.7-6-3.5-6-3.3-6.3-3-6.5-2.5-6.7-2.5-6.8-2-6.7-1.7-7.3-1.5-7.2-1.3-7.3-.7-7.5-.5-7.5" stroke-width="14"/><path d="m515.3 149 2.7 3.3 2.3 3.5 2.2 3.7 1.8 4 1.5 4.3 1 4.5.5 4.5.2 4.5v3.7l-.5 3.5-.7 3.5-.8 3.5-1.2 3.3-1.3 3-1.5 3-1.7 3-2 2.7-2 2.5-2.3 2.5-2.5 2.3-2.7 2-2.5 1.7-3 1.5-3 1.5-3.8 1.3-4 1-4 .7-4 .3-4.5-.3-4.5-.7-4-1.3-4-1.5-4-2-3.5-2.2-3.2-2.8-3.3-3-2.7-3.2-2.5-3.5-2.3-3.8-1.7-4.2-1.5-4.3-1-4.2-.8-4.8-.2-4.7.2-4.8.8-4.5 1-4.5 1.5-4.2 1.7-4 2.3-3.8 2.5-3.7 2.7-3.3 3.3-3 3.2-2.7 3.5-2.3 4-2 4-1.5 4-1 4.5-.7 4.5-.3 4.5.3 4.3.7 4.2 1 4.3 1.8 3.7 2 3.8 2.5 3.2 2.7zm-88.3 92-.2 2.8-.3 3-.7 2.7-1 2.5-1 2.5-1.5 2.5-1.5 2-1.8 2-1.7 2-2.3 1.5-2 1.5-2.5 1.3-2.5 1-2.5.7-2.7.3-2.8.2-2.7-.2-2.5-.3-2.8-.7-2.5-1-2.2-1.3-2.3-1.5-2-1.5-2-2-1.7-2-1.5-2-1.3-2.5-1.2-2.5-.8-2.5-.7-2.7-.5-3v-5.8l.5-2.7.7-2.8.8-2.7 1.2-2.5 1.3-2.3 1.5-2.2 1.7-2 2-2 2-1.5 2.3-1.5 2.2-1.3 2.5-.7 2.8-.8 2.5-.5 2.7-.2 2.8.2 2.7.5 2.5.8 2.5.7 2.5 1.3 2 1.5 2.3 1.5 1.7 2 1.8 2 1.5 2.2 1.5 2.3 1 2.5 1 2.7.7 2.8.3 2.7z" stroke-width="14"/><path d="m147.3 546.5 3.7-4.2 4-3.8 4.3-3.5 4.5-3 2.7-1.7 2.8-1.3 3-1.2 3-1 3-.8 3.2-.7 3.3-.3h3.2l3.3.3 3 .5 3.2.7 3.3 1 3 1.3 3 1.2 2.7 1.8 2.8 2 3 2.5 2.5 2.7 2.5 2.8 2 3.2" stroke-width="13"/><path d="m208.3 538v2l-.3 1.8-.5 1.7-.7 1.8-.8 1.7-1 1.5-1 1.5-1.2 1.3-1.5 1.2-1.5 1-1.8 1-1.5.8-2 .7-1.7.3-2 .5h-4l-2-.5-1.8-.3-1.7-.7-1.8-.8-1.7-1-1.5-1-1.3-1.2-1.2-1.3-1.3-1.5-1-1.5-.7-1.7-.8-1.8-.5-1.7-.2-1.8v-6.5l.2-.7m222.5 13-2.2-2.5-2.3-2.5-2.5-2.5-2.7-2.3-2.8-2.2-2.7-1.8-3-2-3-1.5-4.5-1.7-4.8-1.3-5-1h-5l-3.5.3-3.5.5-3.5.7-3.5 1.3-3.2 1.5-3.3 1.7-3 2-2.7 2.3-2.5 2.2-2 2.3-2 2.5-1.8 2.7" stroke-width="13"/><path d="m330.8 534.8.2 1v1.7l.3 2 .2 1.8.5 1.7.5 1.8 1 1.5 1 1.7 1 1.3 1.3 1.5 1.5 1.2 1.5 1 1.5 1 1.7.8 1.8.5 2 .5 2 .2 2 .3 2-.3 1.7-.2 2-.5 1.8-.5 1.7-.8 1.5-1 1.5-1 1.5-1.2 1.3-1.5 1-1.3 1-1.7 1-1.5.5-1.8.5-1.7.2-1.8.3-2v-3.2l-.3-1.3-.2-1.2" stroke-width="13"/><path d="m93.3 508-3.3-1-3.5-.5h-3.7l-3.8.3-3.5.7-3 1.3-2.5 1.7-2.2 1.8-1.5 2.2-1.3 2.5-1 2.5-.5 2.8-.5 2.7v3l.3 2.8.5 3 .7 2.7.8 2.5.7 2.5 1 2.3 2.3 5 2 4.5 1.5 4.2 1 4 1 3.8.5 3.5.5 3.2.2 3.3v6.2l-.2 6.5v6.5l.2 7.5.3 1.5.5 1.8.5 1.7.7 2 1.3 1.8 1 1.7 1.5 2 1.7 1.8 1.8 1.5 2.2 1.2 2.3 1.3 2.5 1 2.7.5 3 .5h3.3l3.2-.5m333.5-115.8 2.5-.7 2.8-.5 2.5-.3h2.7l4 .3 3.5.7 3 1.3 2.5 1.7 2 1.8 1.8 2.2 1.2 2.5 1 2.5.5 2.8.3 2.7v3l-.3 2.8-.2 3-.8 2.7-.7 2.5-1 2.5-1 2.3-2.3 5-1.7 4.5-1.5 4.2-1.3 4-.7 3.8-.8 3.5-.2 3.2-.3 3.3v12.7l.3 6.5-.3 7.5-.2 1.5-.5 1.8-.8 1.7-.7 2-1 1.8-1.3 2-1.5 1.7-1.5 1.8-2 1.5-2 1.2-2.2 1.3-2.5 1-2.8.7-3 .3h-3.2l-3.5-.5" stroke-width="14"/><path d="m226 711 4.8 1.8 5 1.5 5.5 1.2 5.5 1 5.5.8 5.7.5 6 .2h5.8l5.7-.2 5.8-.5 5.5-.5 5.2-.8 5.3-1.2 4.7-1 4.5-1.5 4.3-1.8" stroke-width="21"/><path d="m435.8 502.8.2 2v1.2l.5 21v19l-.2 9.5-.5 9.3-.8 9.2-1.2 9.3-1.5 9.2-2 9-2 9-2.5 9-2 6.8-2.3 6.7-2.2 6.5-2.5 6.5-5.3 12.8-5.7 12.5-6 12-6.5 11.5-7 11-7 10.5-7.3 10-7.5 9.2-7.5 8.8-7.5 8-7.5 7.2-7.5 6.8-7.2 5.7-7.3 4.8-3.5 1.7-3.2 1.3-3.3 1-3.2 1-3.3.7-3 .8-6.5.7-6.5.5h-21.5l-13.7.3h-6.3l-5.7-.3-6-.5-5.8-1-3-.7-3-1-3.2-1.3-3-1.2-4-2.3-3.8-2.5-4-2.7-4-2.8-7.7-6.5-8-7-7.8-8-8-8.7-7.5-9.3-7.5-10-7.5-10.5-7-11-6.5-11.7-6.2-12-6-12.5-2.8-6.5-2.5-6.5-2.5-6.8-2.5-6.7-2-6.8-2.2-6.7-2.3-9.3-2.2-9-1.8-9.2-1.7-9.5-1.3-9.5-.7-9.5-.5-9.5-.3-9.8v-38l.5-22.5" stroke-width="14"/><path d="m273.5 661.3 3-.8 2.3-1 1.7-1.2 1.5-1 1.8-.8 1.7-.5h2.5l3.3.5 6.5 1.8 3 .5h2.7l1.5-.3 1.3-.5 1-.5 1-1 1-1.2.7-1.5.8-2 .5-2.5v-4.3l-.5-1.2-1-2.3-1.3-1.7-3.2-3.8-1.8-2-1.5-2.5" stroke-width="14"/><path d="m244.3 545.5 1.5 1.5 1.2 2 1.3 1.8 1 2 1.7 4.5 1.5 4.5 1 5 .8 5.2.2 5.5.3 5.5-.3 5.5-.5 5.5-.5 5.3-.7 5.5-1 5-1 4.7-1.3 4.5-1.2 4.3-3 8-1.5 2.5-1.8 2.2-3.2 3.5-1.5 2-1 2-.3 1.3-.2 1.2v1.5l.2 1.8.5 2.2.8 2 .7 1.5.8 1.3 1.2 1 1 .7 1.3.5 1.2.3h1.5l1.5-.3 3-.5 6.5-1.7 1.8-.3 1.5-.2 1.2.2h1l1.8.8 1.5 1 1.5 1.2 1.7 1 1 .5 1.3.3 1.5.5h2.7l-1.7.2.7-.2" stroke-width="14"/><path d="m195.8 537.8v1.2l-.5 1.3-.8 1-.7 1-1 .7-1.3.5-1.2.3-1.5.2-1.5-.2-1.3-.3-1.2-.5-1-.7-1-1-.5-1-.5-1.3v-2.5l.5-1.2.5-1 1-1 1-.8 1.2-.7 1.3-.3h3l1.2.3 1.3.7 1 .8.7 1 .8 1 .5 1.2zm161.7 0v1.2l-.5 1-.5 1.3-1 .7-1 .8-1.2.7-1.3.3-1.5.2-1.5-.2-1.2-.3-1.3-.7-1-.8-.7-.7-.8-1.3-.5-1v-2.7l.5-1 .8-1.3.7-.7 1-.8 1.3-.7 1.2-.3 1.5-.2 1.5.2 1.3.3 1.2.7 1 .8 1 .7.5 1.3.5 1z" stroke-width="6.5"/><path d="m234 514.3-.7-1.8-1-1.5-2.5-2.7-2.8-2.8-3.2-2.5-3.5-2.2-3.8-1.8-4-1.7-4.2-1.5-4.3-1.3-4.2-.7-4.3-.8-4.2-.5-4-.2h-4l-3.5.2-3.3.5-5.5 1.3-5 1-4.7 1.5-4.3 1.5-4.5 2-4.7 2.7-5 3.5-5.8 4.3m164.8-.3 1-1.7 1-1.5 2.2-3 2.8-2.8 3.2-2.2 3.5-2.3 3.8-2 4-1.5 4.2-1.5 4.3-1.2 4.2-1 4.5-.8 4-.2 4.3-.3h3.7l3.5.3 3.5.5 5.5 1 4.8 1.2 4.7 1.3 4.5 1.7 4.5 2 4.5 2.8 5.3 3.2 5.7 4.3" stroke-width="14"/><path d="m448.3 506.3.2-1.8 1.5-6.2 1.5-6.8 3.5-14 1.5-7 1.3-6.7.2-3.3.3-3v-3l-.3-2.7-1.2-8.8-1.3-8.5-1.7-8.5-2-8.2-2.3-8.3-2.5-8-2.5-7.7-3-7.8-3.2-7.5-3.3-7.2-3.7-7.3-3.8-7-4-6.7-4.2-6.3-4.5-6.5-4.5-6-5-5.7-5-5.5-5-5.3-5.5-5-5.5-4.5-5.8-4.5-5.7-4-6-4-6-3.5-6.3-3-6.5-2.7-6.5-2.5-6.7-2.3-6.8-1.7-6.7-1.3-7-1.2-11.5-1-11.3-1-11-.3-10.5-.2-10.2.2-10 .5-9.8 1-9.5 1.3-9 1.7-8.7 2-8.8 2.3-8.2 2.5-8 3.2-7.8 3.3-7.5 3.7-7 4-4 2.3-4.5 2.7-6 3.8-3 2.5-3.7 3-4.8 4-5.5 5.5-6.2 6.5-6.8 7.5-3.5 4.2-3.2 4.3-3.5 4.7-3.5 5-3.5 5.3-3.3 5.5-3.2 5.7-3 6-2.8 6.3-2.7 6.5-2.5 6.7-2.3 7-2 7.3-1.7 7.5-1.3 7.7-1 8-.7 8v8.5l1.7 56.8 2.5-4.5 3.3-5.3 4-5.7 4.2-5.8 7.5-9.2 7.8-9.3 7.7-9 7.3-8 11.7-12.5 4.8-5 1.5-1 2.5-1.2 6-3 8-3.5 9.5-4 23-9.3 26-10.2 27-10.8 13.2-5.5 12.5-5.5 11.8-5.5 10.7-5.2 9.3-5 3.7-2.5 3.8-2.3.2-.2 1.5 1 4.5 3 7.5 5.5 4.5 3.5 5.3 4.5 5.7 5.2 6.3 6.3 7 6.7 7.2 8 7.8 8.8 8 9.7 8.5 10.8 9 12 1.5 2.2 2.2 2.3 5.5 5.7 6.5 6.8 6.8 7.5 3.5 4.2 3.5 4.3 3.2 4.5 3 4.7 2.8 4.8 2.5 4.7 2 5.3 1.7 5 .3 1.2.7 3.8.3 4" stroke-width="14"/><path d="m322.3 368.3-1.3-.3-1.7-1-4.3-3-4.2-3.2-1.5-1.5-1-1.3-.3-.5 3.8-4.2 3.7-4.8 3.3-5.2 2.7-5.5 1.3-3 1.2-3 .8-3.3 1-3 .5-3.2.5-3.3.2-3.2.3-3.3" stroke-width="14"/></g></svg>