<svg height="850.394" viewBox="0 0 850.394 850.394" width="850.394" xmlns="http://www.w3.org/2000/svg"><g fill="#fff5b4"><path d="m141.56 618.87c14.9 0 26.96-12.07 26.96-26.95 0-14.91-12.06-26.979-26.96-26.979-14.89 0-26.96 12.069-26.96 26.979 0 14.88 12.07 26.95 26.96 26.95zm71.13-98.84v217.31h-141.4v-217.31zm-37.49 199.88v-69.31h-20.99l-12.35 47.28-12.53-47.28h-20.94v69.311h12.94l.03-54.561 13.67 54.561h13.5l13.7-54.561.03 54.561h12.94z"/><path d="m283.52 618.87c14.9 0 26.96-12.07 26.96-26.95 0-14.91-12.06-26.979-26.96-26.979-14.89 0-26.96 12.069-26.96 26.979 0 14.88 12.07 26.95 26.96 26.95zm70.57-98.84v217.31h-141.4v-217.31zm-42.77 142.32v-11.75h-55.06v11.75h20.56v57.561h14v-57.561zm113.6-43.48c14.88 0 26.95-12.07 26.95-26.95 0-14.91-12.07-26.979-26.95-26.979-14.9 0-26.96 12.069-26.96 26.979 0 14.88 12.06 26.95 26.96 26.95zm70.73-98.84v217.31h-141.56v-217.31zm-43.05 199.88 16.76-69.31h-14.09l-10.63 48.41-12.15-48.41h-16.67l-12.62 47.61-10.39-47.61h-14.39l16.47 69.311h15.26l13.74-51.82 13.77 51.82h14.94z"/><path d="m565.89 618.88c14.891 0 26.95-12.07 26.95-26.95 0-14.91-12.06-26.97-26.95-26.97-14.899 0-26.96 12.06-26.96 26.97 0 14.88 12.06 26.95 26.96 26.95zm71.17-98.85v217.31h-141.41v-217.31zm-18.46 199.88v-29.44c0-4.5-.229-7.819-.689-9.97a15.839 15.839 0 0 0 -2.55-5.85c-1.25-1.771-3.101-3.221-5.561-4.351s-5.22-1.7-8.27-1.7c-5.96 0-11.08 2.511-15.37 7.53v-25.529h-13.31v69.311h13.311v-25.12c0-4.22.399-7.4 1.2-9.56.81-2.16 2.069-3.771 3.8-4.841 1.74-1.069 3.7-1.6 5.91-1.6 1.92 0 3.51.41 4.79 1.25 1.279.83 2.159 1.96 2.67 3.37.5 1.42.75 4.76.75 10.01v26.49zm-54.59-57.56v-11.75h-55.06v11.75h20.56v57.561h14v-57.561zm143.6-43.33c14.89 0 26.949-12.079 26.949-26.96 0-14.909-12.06-26.979-26.949-26.979-14.9 0-26.96 12.07-26.96 26.979 0 14.88 12.06 26.96 26.96 26.96zm70.84-98.99v217.31h-141.39v-217.31zm-45.94 142.32v-11.75h-47.56v69.311h14v-29.44h29v-11.75h-29v-16.37h33.56z"/></g><path d="m734.56 592.06c0 14.881-12.06 26.96-26.949 26.96-14.9 0-26.96-12.079-26.96-26.96 0-14.909 12.06-26.979 26.96-26.979 14.889-.001 26.949 12.069 26.949 26.979zm-141.72-.13c0 14.88-12.06 26.95-26.95 26.95-14.899 0-26.96-12.07-26.96-26.95 0-14.91 12.061-26.97 26.96-26.97 14.89 0 26.95 12.06 26.95 26.97zm-140.97-.01c0 14.88-12.07 26.95-26.95 26.95-14.9 0-26.96-12.07-26.96-26.95 0-14.91 12.06-26.979 26.96-26.979 14.88-.001 26.95 12.069 26.95 26.979zm-141.39 0c0 14.88-12.06 26.95-26.96 26.95-14.89 0-26.96-12.07-26.96-26.95 0-14.91 12.07-26.979 26.96-26.979 14.9-.001 26.96 12.069 26.96 26.979zm-141.96 0c0 14.88-12.06 26.95-26.96 26.95-14.89 0-26.96-12.07-26.96-26.95 0-14.91 12.07-26.979 26.96-26.979 14.9-.001 26.96 12.069 26.96 26.979z" fill="#fbed24"/><path d="m732.51 650.6v11.75h-33.56v16.37h29v11.75h-29v29.44h-14v-69.31zm-113.91 39.87v29.44h-13.32v-26.49c0-5.25-.25-8.59-.75-10.01-.511-1.41-1.391-2.54-2.67-3.37-1.28-.84-2.87-1.25-4.79-1.25-2.21 0-4.17.53-5.91 1.6-1.73 1.07-2.99 2.681-3.8 4.841-.801 2.159-1.2 5.34-1.2 9.56v25.12h-13.31v-69.311h13.311v25.53c4.29-5.02 9.41-7.53 15.37-7.53 3.05 0 5.81.57 8.27 1.7s4.311 2.58 5.561 4.351a15.839 15.839 0 0 1 2.55 5.85c.458 2.149.688 5.469.688 9.969zm-54.59-39.87v11.75h-20.5v57.56h-14v-57.56h-20.56v-11.75zm-94.65 0-16.76 69.31h-14.94l-13.77-51.82-13.74 51.82h-15.26l-16.47-69.31h14.39l10.39 47.61 12.62-47.61h16.67l12.15 48.41 10.63-48.41zm-158.04 0v11.75h-20.5v57.56h-14v-57.56h-20.56v-11.75zm-136.12 0v69.31h-12.94l-.03-54.56-13.7 54.56h-13.5l-13.67-54.56-.03 54.56h-12.94v-69.31h20.94l12.53 47.28 12.35-47.28z" fill="#231f20"/><g fill="none" stroke="#231f20"><path d="m168.52 591.92c0 14.88-12.06 26.95-26.96 26.95-14.89 0-26.96-12.07-26.96-26.95 0-14.91 12.07-26.979 26.96-26.979 14.9-.001 26.96 12.069 26.96 26.979zm-27.16-31.89v-20.51m-16.37 24.5-11.33-17.09m-.41 29.71-18.58-8.69m63.63-4.25 11.33-17.09m.41 29.69 18.58-8.68m-31 52.39 11.33 17.09m.42-29.69 18.58 8.68m-63.63 4.26-11.33 17.09m-.42-29.7-18.58 8.68m15.44-24.2h-20.51m104.98 0h-20.52m-32.02 51.65v-20.52m169.12-31.43c0 14.88-12.06 26.95-26.96 26.95-14.89 0-26.96-12.07-26.96-26.95 0-14.91 12.07-26.979 26.96-26.979 14.9-.001 26.96 12.069 26.96 26.979zm-27.16-31.89v-20.51m-16.37 24.5-11.33-17.09m-.41 29.71-18.59-8.69m63.64-4.25 11.33-17.09m.41 29.69 18.58-8.68m-31 52.39 11.33 17.09m.42-29.69 18.58 8.68m-63.63 4.26-11.33 17.09m-.42-29.7-18.58 8.68m15.44-24.2h-20.51m104.98 0h-20.52m-32.02 51.65v-20.52m168.55-31.43c0 14.88-12.07 26.95-26.95 26.95-14.9 0-26.96-12.07-26.96-26.95 0-14.91 12.06-26.979 26.96-26.979 14.88-.001 26.95 12.069 26.95 26.979zm-27.16-31.89v-20.51m-16.37 24.5-11.33-17.09m-.41 29.71-18.58-8.69m63.63-4.25 11.33-17.09m.41 29.69 18.59-8.68m-31.01 52.39 11.33 17.09m.42-29.69 18.58 8.68m-63.63 4.26-11.33 17.09m-.42-29.7-18.58 8.68m15.44-24.2h-20.51m104.98 0h-20.52m-32.02 51.65v-20.52m168.13-31.42c0 14.88-12.06 26.95-26.95 26.95-14.899 0-26.96-12.07-26.96-26.95 0-14.91 12.061-26.97 26.96-26.97 14.89 0 26.95 12.06 26.95 26.97zm-27.16-31.89v-20.5m-16.36 24.5-11.33-17.09m-.42 29.7-18.59-8.68m63.64-4.26 11.33-17.09m.41 29.7 18.59-8.69m-31.01 52.39 11.33 17.1m.42-29.7 18.59 8.68m-63.64 4.26-11.33 17.1m-.41-29.71-18.59 8.69m15.44-24.2h-20.51m104.98 0h-20.52m-32.02 51.64v-20.52m168.88-31.3c0 14.881-12.06 26.96-26.949 26.96-14.9 0-26.96-12.079-26.96-26.96 0-14.909 12.06-26.979 26.96-26.979 14.889-.001 26.949 12.069 26.949 26.979zm-27.16-31.89v-20.5m-16.36 24.5-11.33-17.09m-.42 29.7-18.58-8.68m63.63-4.26 11.33-17.09m.42 29.7 18.58-8.69m-31.01 52.39 11.34 17.1m.41-29.7 18.59 8.68m-63.64 4.26-11.33 17.09m-.41-29.7-18.59 8.69m15.45-24.2h-20.52m104.98 0h-20.52m-32.02 51.64v-20.52" stroke-width="6.686"/><path d="m212.69 737.34h-141.4v-217.31h707.16v217.31h-424.36zm424.37-217.31v217.31m-141.41-217.31v217.31m-141.56-217.31v217.31m-141.4-217.31v217.31" stroke-width="20.059"/><path d="m425.86 112.16v322.81m94.42-105.54-94.77 107.59-94.73-107.76" stroke-width="28"/></g><path d="m0 0h850.394v850.394h-850.394z" fill="none"/></svg>