<svg height="850.394" viewBox="0 0 850.394 850.394" width="850.394" xmlns="http://www.w3.org/2000/svg"><path d="m112.592 298.814-44.179 20.249-17.533-26.963 69.583-38.53h39.559v321.623h-47.43z" fill="#50264b"/><path d="m0 0h850.394v850.394h-850.394z" fill="none"/><g fill="#50264b"><path d="m270.555 292.105c-33.786 0-55.748 46.396-55.748 120.537-.851 76.875 21.117 123.275 55.328 123.275h.42c37.591 0 55.753-47.765 55.753-123.275 0-72.777-16.895-120.537-55.753-120.537zm3.064-38.883c60.386 0 95.465 58.345 95.465 157.334 0 105.685-36.854 164.029-99.906 164.029h-.447c-56.393 0-95.022-56.91-95.913-159.724.001-104.73 42.186-161.639 100.801-161.639z"/><path d="m487.535 253.989c60.386 0 95.465 58.345 95.465 157.334 0 105.684-36.854 164.029-99.906 164.029h-.447c-56.393 0-95.022-56.909-95.912-159.723-.001-104.731 42.184-161.64 100.8-161.64zm52.689 159.426c0-72.777-16.896-120.542-55.753-120.542-33.786 0-55.749 46.4-55.749 120.542-.846 76.871 21.121 123.27 55.328 123.27h.421c37.591 0 55.753-47.764 55.753-123.27z"/><path d="m642.722 412.416c-.847 76.87 21.121 123.271 55.327 123.271h.421c37.591 0 55.753-47.765 55.753-123.271 0-72.777-16.896-120.542-55.753-120.542-33.785 0-55.748 46.4-55.748 120.542zm53.924 161.938c-56.393 0-95.022-56.909-95.913-159.723 0-104.73 42.186-161.64 100.801-161.64 60.387 0 95.465 58.345 95.465 157.334 0 105.684-36.854 164.029-99.905 164.029z"/></g></svg>