<svg height="850.89" viewBox="0 0 850.89 850.89" width="850.89" xmlns="http://www.w3.org/2000/svg"><path d="m600.31 424.21c0 .09 0 .19-.01.28h-14.28v-14.57c7.89 0 14.29 6.39 14.29 14.29zm-14.29.28h14.28c-.14 7.76-6.479 14.01-14.28 14.01z" fill="#444041"/><path d="m586.02 230.21c7.891 0 14.29 6.4 14.29 14.3 0 7.89-6.399 14.29-14.29 14.29v-14.3h-14.29c.01-7.9 6.4-14.29 14.29-14.29zm0 29.95c7.891 0 14.29 6.4 14.29 14.3 0 7.89-6.399 14.29-14.29 14.29zm0 29.95c7.891 0 14.29 6.4 14.29 14.3 0 7.89-6.399 14.29-14.29 14.29zm0 29.95c7.891 0 14.29 6.4 14.29 14.3 0 7.89-6.399 14.29-14.29 14.29zm0 29.95c7.891 0 14.29 6.4 14.29 14.3 0 7.89-6.399 14.29-14.29 14.29zm0 119.81c7.891 0 14.29 6.39 14.29 14.29 0 7.89-6.399 14.29-14.29 14.29zm0 29.95c7.891 0 14.29 6.4 14.29 14.29 0 7.9-6.399 14.29-14.29 14.29zm0 29.95c7.891 0 14.29 6.4 14.29 14.29 0 7.9-6.399 14.29-14.29 14.29zm0 29.95c7.891 0 14.29 6.4 14.29 14.29 0 7.9-6.399 14.29-14.29 14.29zm0 29.95c7.891 0 14.29 6.399 14.29 14.29 0 7.899-6.399 14.29-14.29 14.29-7.899 0-14.289-6.391-14.289-14.29h14.289z" fill="#394ea1"/><path d="m586.02 589.62v14.29h-14.29c0-7.89 6.39-14.29 14.29-14.29zm0-29.95v28.58c-7.89 0-14.289-6.39-14.289-14.29-.001-7.89 6.399-14.29 14.289-14.29zm0-29.95v28.58c-7.89 0-14.289-6.39-14.289-14.29-.001-7.89 6.399-14.29 14.289-14.29zm0-29.95v28.58c-7.89 0-14.289-6.39-14.289-14.29-.001-7.89 6.399-14.29 14.289-14.29zm0-29.95v28.58c-7.89 0-14.289-6.4-14.289-14.29-.001-7.9 6.399-14.29 14.289-14.29z" fill="#394ea1"/><path d="m586.02 424.49v14.01c-7.8 0-14.14-6.25-14.279-14.01zm0-14.57v14.57h-14.28c-.01-.09-.01-.19-.01-.28 0-7.9 6.4-14.29 14.29-14.29z" fill="#444041"/><path d="m586.02 350.01v28.59c-7.89 0-14.289-6.4-14.289-14.29-.001-7.9 6.399-14.3 14.289-14.3zm0-29.95v28.59c-7.89 0-14.289-6.4-14.289-14.29-.001-7.9 6.399-14.3 14.289-14.3zm0-29.95v28.59c-7.89 0-14.289-6.4-14.289-14.29-.001-7.9 6.399-14.3 14.289-14.3zm0-29.95v28.59c-7.89 0-14.289-6.4-14.289-14.29-.001-7.9 6.399-14.3 14.289-14.3zm-14.29-15.66h14.289v14.3c-7.89 0-14.289-6.4-14.289-14.29zm-16.27-14.29c7.9 0 14.29 6.4 14.29 14.29h-28.58c0-7.89 6.4-14.29 14.29-14.29zm0 359.41c7.89 0 14.29 6.399 14.29 14.29h-28.58c0-7.89 6.4-14.29 14.29-14.29zm-14.29-345.12h28.58c0 7.9-6.39 14.3-14.29 14.3-7.89 0-14.29-6.4-14.29-14.3zm0 359.41h28.58c0 7.899-6.4 14.29-14.29 14.29s-14.29-6.39-14.29-14.29zm-16.27-373.7c7.899 0 14.29 6.4 14.29 14.29h-28.58c0-7.89 6.4-14.29 14.29-14.29zm0 359.41c7.89 0 14.29 6.399 14.29 14.29h-28.58c0-7.89 6.4-14.29 14.29-14.29zm-14.29-345.12h28.58c0 7.9-6.391 14.3-14.29 14.3-7.89 0-14.29-6.4-14.29-14.3zm0 359.41h28.58c0 7.899-6.4 14.29-14.29 14.29s-14.29-6.39-14.29-14.29zm-16.27-373.7c7.9 0 14.29 6.4 14.29 14.29h-28.58c0-7.89 6.4-14.29 14.29-14.29zm0 359.41c7.9 0 14.29 6.399 14.29 14.29h-28.58c0-7.89 6.4-14.29 14.29-14.29zm-14.29-345.12h28.58c0 7.9-6.39 14.3-14.29 14.3-7.89 0-14.29-6.4-14.29-14.3zm0 359.41h28.58c0 7.899-6.39 14.29-14.29 14.29-7.89 0-14.29-6.39-14.29-14.29zm-16.27-373.7c7.899 0 14.3 6.4 14.3 14.29h-28.59c0-7.89 6.4-14.29 14.29-14.29zm0 359.41c7.899 0 14.3 6.399 14.3 14.29h-28.59c0-7.89 6.4-14.29 14.29-14.29zm-14.29-345.12h28.59c0 7.9-6.4 14.3-14.3 14.3-7.89 0-14.29-6.4-14.29-14.3zm0 359.41h28.59c0 7.899-6.4 14.29-14.3 14.29-7.89 0-14.29-6.39-14.29-14.29zm-16.27-373.7c7.9 0 14.3 6.4 14.3 14.29h-28.59c0-7.89 6.4-14.29 14.29-14.29zm0 359.41c7.9 0 14.3 6.399 14.3 14.29h-28.59c0-7.89 6.4-14.29 14.29-14.29zm-14.29-345.12h28.589c0 7.9-6.399 14.3-14.3 14.3-7.889 0-14.289-6.4-14.289-14.3zm0 359.41h28.589c0 7.899-6.399 14.29-14.3 14.29-7.889 0-14.289-6.39-14.289-14.29zm-16.26-373.7c7.89 0 14.29 6.4 14.29 14.29h-28.59c0-7.89 6.4-14.29 14.3-14.29zm-.01 359.41c7.9 0 14.3 6.399 14.3 14.29h-28.59c0-7.89 6.4-14.29 14.29-14.29zm-14.29-345.12h28.59c0 7.9-6.4 14.3-14.29 14.3-7.9 0-14.3-6.4-14.3-14.3zm0 359.41h28.59c0 7.899-6.4 14.29-14.3 14.29-7.89 0-14.29-6.39-14.29-14.29zm-16.26-373.7c7.89 0 14.29 6.4 14.29 14.29h-28.59c0-7.89 6.4-14.29 14.3-14.29zm0 359.41c7.89 0 14.29 6.399 14.29 14.29h-28.59c0-7.89 6.4-14.29 14.3-14.29zm-14.3-345.12h28.59c0 7.9-6.4 14.3-14.29 14.3-7.9 0-14.3-6.4-14.3-14.3zm0 359.41h28.59c0 7.899-6.4 14.29-14.29 14.29-7.9 0-14.3-6.39-14.3-14.29zm-16.26-373.7c7.89 0 14.29 6.4 14.29 14.29h-28.59c0-7.89 6.4-14.29 14.3-14.29zm0 359.41c7.89 0 14.29 6.399 14.29 14.29h-28.59c0-7.89 6.4-14.29 14.3-14.29zm-14.3-345.12h28.59c0 7.9-6.4 14.3-14.29 14.3-7.9 0-14.3-6.4-14.3-14.3zm0 359.41h28.59c0 7.899-6.4 14.29-14.29 14.29-7.9 0-14.3-6.39-14.3-14.29zm-16.26-373.7c7.89 0 14.29 6.4 14.29 14.29h-28.58c0-7.89 6.39-14.29 14.29-14.29zm0 359.41c7.89 0 14.29 6.399 14.29 14.29h-28.58c0-7.89 6.39-14.29 14.29-14.29zm-14.29-345.12h28.58c0 7.9-6.4 14.3-14.29 14.3-7.9 0-14.29-6.4-14.29-14.3zm0 359.41h28.58c0 7.899-6.4 14.29-14.29 14.29-7.9 0-14.29-6.39-14.29-14.29zm-16.27-373.7c7.89 0 14.29 6.4 14.29 14.29h-28.58c0-7.89 6.4-14.29 14.29-14.29zm0 359.41c7.89 0 14.29 6.399 14.29 14.29h-28.58c0-7.89 6.39-14.29 14.29-14.29zm-14.29-345.12h28.58c0 7.9-6.4 14.3-14.29 14.3s-14.29-6.4-14.29-14.3zm0 359.41h28.58c0 7.899-6.4 14.29-14.29 14.29-7.9 0-14.29-6.39-14.29-14.29zm-16.27-373.7c7.9 0 14.29 6.4 14.29 14.29h-28.58c0-7.89 6.4-14.29 14.29-14.29zm0 359.41c7.89 0 14.29 6.399 14.29 14.29h-28.58c0-7.89 6.4-14.29 14.29-14.29zm-14.29-345.12h28.58c0 7.9-6.39 14.3-14.29 14.3-7.89 0-14.29-6.4-14.29-14.3zm0 359.41h28.58c0 7.899-6.4 14.29-14.29 14.29s-14.29-6.39-14.29-14.29zm-16.27-373.7c7.9 0 14.29 6.4 14.29 14.29h-14.29v14.3c-7.89 0-14.29-6.4-14.29-14.3 0-7.89 6.4-14.29 14.29-14.29z" fill="#394ea1"/><path d="m233.6 424.21c0 .09 0 .19-.01.28h-14.28v-14.57c7.89 0 14.29 6.39 14.29 14.29z" fill="#444041"/><path d="m219.31 589.62c7.89 0 14.29 6.399 14.29 14.29h-14.29zm0-345.12h14.29c0 7.9-6.39 14.3-14.29 14.3z" fill="#394ea1"/><path d="m219.31 603.91h14.29c0 7.89-6.4 14.29-14.29 14.29s-14.29-6.4-14.29-14.29c0-7.891 6.4-14.29 14.29-14.29z" fill="#394ea1"/><path d="m219.31 424.49h14.28c-.14 7.76-6.48 14.01-14.28 14.01z" fill="#444041"/><path d="m219.31 260.16c7.89 0 14.29 6.4 14.29 14.29 0 7.9-6.4 14.3-14.29 14.3zm0 29.95c7.89 0 14.29 6.4 14.29 14.3 0 7.89-6.4 14.29-14.29 14.29zm0 29.95c7.89 0 14.29 6.4 14.29 14.3 0 7.89-6.4 14.29-14.29 14.29zm0 29.95c7.89 0 14.29 6.4 14.29 14.3 0 7.89-6.4 14.29-14.29 14.29zm0 119.81c7.89 0 14.29 6.39 14.29 14.29 0 7.89-6.4 14.29-14.29 14.29zm0 29.95c7.89 0 14.29 6.4 14.29 14.29 0 7.891-6.4 14.29-14.29 14.29zm0 29.95c7.89 0 14.29 6.4 14.29 14.29 0 7.891-6.4 14.29-14.29 14.29zm0 29.95c7.89 0 14.29 6.4 14.29 14.29 0 7.9-6.4 14.29-14.29 14.29zm0 0v28.58c-7.89 0-14.29-6.39-14.29-14.29 0-7.89 6.4-14.29 14.29-14.29zm0-29.95v28.58c-7.89 0-14.29-6.399-14.29-14.29 0-7.89 6.4-14.29 14.29-14.29zm0-29.95v28.58c-7.89 0-14.29-6.399-14.29-14.29 0-7.89 6.4-14.29 14.29-14.29zm0-29.95v28.58c-7.89 0-14.29-6.4-14.29-14.29 0-7.9 6.4-14.29 14.29-14.29z" fill="#394ea1"/><path d="m219.31 424.49v14.01c-7.8 0-14.14-6.25-14.28-14.01zm0-14.57v14.57h-14.28c-.01-.09-.01-.19-.01-.28 0-7.9 6.4-14.29 14.29-14.29z" fill="#444041"/><path d="m219.31 350.01v28.59c-7.89 0-14.29-6.4-14.29-14.29 0-7.9 6.4-14.3 14.29-14.3zm0-29.95v28.59c-7.89 0-14.29-6.4-14.29-14.29 0-7.9 6.4-14.3 14.29-14.3zm0-29.95v28.59c-7.89 0-14.29-6.4-14.29-14.29 0-7.9 6.4-14.3 14.29-14.3zm0-29.95v28.59c-7.89 0-14.29-6.4-14.29-14.3 0-7.89 6.4-14.29 14.29-14.29z" fill="#394ea1"/><g fill="none"><path d="m80.8 424.49h688.27m-136.14 121.78 138.78-122.23-139-122.19" stroke="#231f20" stroke-width="28"/><path d="m.25.25h850.394v850.394h-850.394z"/></g></svg>