<svg height="850" viewBox="0 0 850 850" width="850" xmlns="http://www.w3.org/2000/svg"><path d="m394.8 658h.7l-3.5 5-2.2 3.5-2 4-2.3 4.8-2 5.2-4.5 11.3-4.5 11.7-2.7 5.8-2.5 5.2-3 4.8-3 4.2-1.8 2-1.5 1.5-1.7 1.5-2 1.3-1.8 1-2 .5-2 .5h-2l-3.7-.3-3.3-.7-3-1.5-2.7-1.5 4.2-.3 1.8-102.5z" fill="#ffffc2"/><path d="m379.8 617 6.5 5.3 5.2 4.7 3.8 3.8 1.2 1.5.5 1.2 1.8 5 .7 2.5.5 2.8-.2 3-.5 3.5-.8 1.7-.7 1.8-2.3 4.2h-.7l-53-33-1.8 102.5-4.2.3-2.3-1.8-2-2-1.7-2-1.5-2.2-1.5-2.3-1.3-2.2-2-4.8-1.5-4-1-3.5-.5-3-.7-5-7.3-59-2.7.3-130.8 36.2-2.2 1.5-2.5 2-3.3 2.5-2-2.2 64.8-57.3 51.5-19-90.3 15.8-.2-1.3 1.2-4 1.5.3 1.8.2h4.2l5.3-.5 5.7-.7 6.3-1 6.5-1.3 13.5-2.7 12.7-3.3 10.8-2.7 10.2-2.8-.5-1.7-.7-1.8-.3-2.2v-2.8l.5-1.5.3-1.7.7-1.5 1-1.8 1.3-1.5 1.5-1.7.5 1.5-.3.2 71.5-13.5 38 35.8.5.5.5.2h.3v-.2l1.2.2-1 3-1.2 2.5-1.5 2.3-1.5 1.7-1.5 1.8-1.5 1.2z" fill="#ffffc2"/><path d="m317 745.3-77 27.5h-12.2l-12.5-.3-14.8-.5-15-.7-7.2-.8-6.5-.7-5.8-.8-5-1.2-2-.8-1.7-.5-1.3-.7-1-1-1.5-2-1.5-2.5-1.2-3.3-1.3-3.5-1-4-.7-4.5-.8-4.5-.5-4.7v-10l.5-5 .5-4.8 1.3-4.7 1.2-4.5 1.8-4 2-4 2.5-3.3 2.2-3.2 4.5-5.5 4.3-4.5 3.7-3.8 3.3-2.5 2.5-2 2.2-1.5 130.8-36.2 2.7-.3 7.3 59h-.5v13.5l-.8 16.8z" fill="#ffffc2"/><path d="m129.8 555.3 29 3.3-3.3-12.3-28-18-15.5 19.5-2.3 3zm66.2 55.2h-.3l-1.3-.3-1.5.3-1.3.5-1.3 1-1.5 1-1.3 1.5-2.5 3.8-2.8 4.3-2.5 5-2.3 5.5-2.3 5.8-4 11.3-3.3 10-2.8 9.8-1 2.8-2 5.2-1.8 3.8-2 4-2.5 4-2.5 4-3 4-3 3.5-3.3 3.3-1.8 1.3-1.8 1.3-2 .8-1.8.8-1.5.2-2 .3-2-.3-2-.3-2-.8-2-1-2-1.5-2-1.8-2-2.3-2-2.8-4.8-6.5-4.3-7-4-7.3-3.8-7.5-3.5-7.3-3-7.3-3-7-2.5-6.8-4.1-11.8-3.3-9.5-2.5-8.8-.3-2.3-.8-5.5-.8-8v-14.6l.8-4.8.9-4.5 1.3-4.3.8-2 1-1.8 1-1.8 1.3-1.8 1.3-1.3 1.3-1 1.8-1 1.8-.8 2.5-.8 2.5-.5 2.5-.3 2.8-.3-.3-2 17.5-25.3 62-39.8 85.5-18.5 10 5 10.3 5.3 12.1 6 12.5 5.8 11.8 5.3 5.3 2 4.5 1.5 3.8 1 2.5.5 3.8.3 1.8.3 1.5.3 1.3.8 1.3.5 1 1 .8 1 .5 1 .3 1.5v1.5l-.5 1.5-.5 2-1.3 2-1.3 2.5-1.8 2.5-2.5 3.5-2.5 4-5.3 8.5-2.8 4.8-3.3 4.5-3.5 4.5-3.8 4.3-2.5 2.3-2.5 2.3-2.8 2.3-3 1.8-3.3 2-3.5 1.8-3.8 1.5-4 1.3-5.8 2.3-4.8 2.3-3.8 2.3-2.8 2.5-1.5 1.8-1.3 1.5-1 1.8-.8 1.5-.3 1.8-.5 1.5v2.8l.3 2.3.8 1.8.5 1.8-10.3 2.8-10.8 2.8-12.8 3.3-13.5 2.8-6.5 1.3-6.3 1-5.8.8-5.3.5h-4.3l-1.8-.3z" fill="#ffffc2"/><path d="m495.3 174 25.5-28-2.5 5.8-2 5.7-1.5 5.3-1 4.7-.8 7-.7 8.5-.5 9.8-.3 10.7-.2 23.3-.3 23.2h-1.5l-6.7-3.7-6.8-3.3-7-3-7.2-2.5-3-.7 5.5-22.5 5.5-20.3z" fill="#ffeec8"/><path d="m548.5 92.3 2.8 1.7-4.5 6.8-8 12.2-4.5 7.8-4.8 8.2-4.5 8.5-4.2 8.5-25.5 28-5.5 20-5.5 20.3-5.5 22.5-2.5 10.5-2.3 10-1.7 9-1.3 7.7-.5 4.5-.2 4.3-.3 8.2-.2 7.5-.3 7-.2 3.3-.3 3.2-.7 3-.8 3-1 2.8-1.2 2.7-1.8 2.5-2 2.5-1.7 2-2 1.8-2.3 1.7-2.5 1.8-2.5 1.5-2.7 1-2.5.5h-2.3l-2.2-.3-2.3-.5-2-1-1.7-1.2-2-1.3-1.5-1.7-1.8-1.8-1.2-1.7-2.8-4-2-4-1.7-4-1.3-3-1-3 14.3-159.5 1.2-2.8 1.5-3.2 2.5-4 3.8-5.3 4.5-6 6-6.5 3.5-3.7 3.7-3.8 5.5-5 5-4.7 8.8-9 5-5.3 5-4.5 4.5-3.5 2.2-1.7 2.3-1.3 2.2-1.2 2.5-.8 2.3-.7 2.5-.3h5.2l2.8.5 2.7.8 6.3 2.2 5.2 2.3 4.5 2 3.5 2 3 1.5 2.5 1.5 2.5.7z" fill="#ffeec8"/><path d="m379.3 334.3-2.3-3.5-1.5-2.8-1.2-2.5-1.3-51.5-2-90.2 6.8-11.8 9.7-16.5 6-9.2 6.5-10 6.8-9.5 7-9.3 3.5-4.2 3.2-4 3.5-3.8 3.3-3.2 2.2-2 2.3-1.8 2.2-1.7 2.3-1.3 2.2-1.2 2.3-1 2.2-.8 2.3-.7 4.5-.8 4.5-.2h4l4 .5 3.5.7 3.2.8 3 1 2.5 1.2 3.5 1.5 1.3.8.5.5-8.8 9-5 4.7-5.5 5-3.7 3.8-3.5 3.7-6 6.5-4.5 6-3.8 5.3-2.5 4-1.5 3.2-1.2 2.8-14.3 159.5 1 3 1.3 3 1.7 4-2.2 1.2-1.5 4.8-2 4.2-2.5 4-2.8 3.8-2.7 2.7-2.5 2.3-2.8 1.5-2.5 1.2-2.5.5h-2.2l-2.3-.2-2.2-.5-2-1-2-1.3-2-1.5-1.8-1.5-1.5-1.7-1.7-2z" fill="#ffeec8"/><path d="m335 271.5-2.2-23.2-2.3-25.8-.2-2.2.2-2.5.5-2.3.8-2.5 1-2.2 1-2.3 1.2-2.5 1.5-2 3.5-4.5 4-4 4.3-4 4.2-3.7 4.5-3.3 4.3-3 7.7-5 5.5-3 2.3-1.2 1-.3-6.8 11.8 2 90.2-.2 3-.5 3-.8 2.5-.5 2.3-1 2.2-1 2-1 2-1 1.5-1.2 1.5-1.3 1.3-2.7 2.2-2.8 1.8-3 1-2.7.5-2.8.2-2.7-.2-2.5-.5-2.3-.8-1.7-1-1.3-1.2-1-1.3-.5-1.5-.5-2.2-1-5.3-1-7z" fill="#ffeec8"/><path d="m374.3 325.5 1.2 2.5 1.5 2.8 2.3 3.5-12.5 2.7-6 1.3-6.3 1.2-6.2.8-6.3.7-6.2.5-6.3.3h-6.5l-6.7-.8-3.3-.2-3.2-.8-3.3-.7-3-1-3-1-3-1.5-2.5-1.5-2.7-2-2.3-2.3-2.2-2.5-2-2.7-1.8-3-1.2-2.5-.8-2.5-.5-2.5-.5-2.5v-2.3l.3-2.2.5-2.3.7-2 1-2 1.3-1.7 1.5-1.8 1.7-1.7 2-1.5 2-1.3 2.5-1.2 2.5-1 5.3-2 5-2.3 5-2.2 4.7-2.5 9.5-5 8.5-5.3 1 8.5 1 7 1 5.3.5 2.2.5 1.5 1 1.3 1.3 1.2 1.7 1 2.3.8 2.5.5 2.7.2 2.8-.2 2.7-.5 3-1 2.8-1.8 2.7-2.2 1.3-1.3 1.2-1.5 1-1.5 1-2 1-2 1-2.2.5-2.3.8-2.5.5-3 .2-3zm238.2 11-5.7 3.3-6 3.5-13 8.2-10 6.3-4.8 1.7-4.5 1.5-4.5 1-4 1-4.2.5-3.8.3h-7.5l-3.5-.5-3.5-.5-3.2-.8-3.5-1-3-1-3.3-1.2-6.2-2.8-6.3-3.2-6-3.5-12.7-7.3-6.5-3.5-7-3.5-7.5-3-3.8-1.5-4-1.2-3-.8 2-2.5 1.8-2.5 1.2-2.7 1-2.8.8-3 .7-3 .3-3.2.2-3.3.3-7 .2-7.5.3-8.2.2-4.3.5-4.5 1.3-7.7 1.7-9 2.3-10 2.5-10.5 3 .7 27.7 12.5h1.5l.3-23.2.2-23.3.3-10.7.5-9.8.7-8.5.8-7 1-4.7 1.5-5.3 2-5.7 2.5-5.8 4.2-8.5 4.5-8.5 4.8-8.2 4.5-7.8 8-12.2 4.5-6.8-2.8-1.7 1.8-.3 1.7-.5 3-1.5 4.3-1.7 2.2-.8 2.5-.7 2.8-.5 3.2-.3 3.3-.2 3.5.2 3.5.3 4 1 4.2 1.2 4.5 1.5 4.8 2.3 5 2.7 5 3 5 3.5 10.2 7.3 10.5 7.7 10.8 8.3 11.5 8.7 11.7 8.8 12.8 8.7 6.7 4.3 7 4.2 3.3 1.5 5.2 1.5 7 2 9 2.3 10.5 2.2 12 2.5 13 2.5 14.5 2.5v204.3l-26.5-17-24.5-15.5-10.5-6.5-9-5.5-7-3.8-2.7-1.5-2.3-1-5-1.7-5.2-1.5-4.8-1.3-4.7-1-4.5-.5-4.5-.2h-4.5l-4.3.2-4.2.5-4.5 1-4.3 1-4.2 1.5-4.5 1.8-4.8 2-4.5 2.2z" fill="#ffeec8"/><path d="m509.5 250-27.7-12.5 7.2 2.5 7 3 6.8 3.3z" fill="#fff"/><path d="m384.8 585.3 2.5 7.7 1.5 5 .5 2.8v1.7h-.3l-.5-.2-.5-.5-38-35.8.5-6 11.8.8.7.2 1.8.5 2.5 1.3 3.2 2 2 1.2 1.8 1.8 1.7 2 2 2.2 1.8 2.8 1.7 3.2 1.8 3.5z" fill="#ffffc2"/><path d="m350.5 560-.5 6-71.5 13.5.3-.2 43-20.8z" fill="#231f20"/><path d="m285.3 600-51.5 19-64.8 57.3-4.5 4.2 2.8-7 23-56.7 4.7-1zm-129.8-53.7 3.3 12.2-29-3.2-20-4.5 2.2-3 15.5-19.5z" fill="#ffffc2"/><g fill="none" stroke="#231f20" stroke-linecap="round" stroke-miterlimit="10"><path d="m183.5 540 .5 5.3v2.5l-.2 2.2-.3 2-.7 1.8-.8 1.7-1 1.5-1.2 1.5-1.8 1-1.7 1.3-2.3.7-2.5.8-2.7.5-3 .5-3.5.2h-6.8l-3.5-.5-3.7-.5-7.8-1.5-8.2-1.7-8.5-2-8.3-1.5-4-.5-4-.5-4-.3h-3.7l-2.8.3-2.5.2-2.5.5-2.5.8-1.7.7-1.8 1-1.5 1.3-1.2 1.2-1.3 1.8-1 1.7-1 1.8-.7 2-1.3 4.2-.7 4.8-.8 4.7v14.5l.8 8 .7 5.5.3 2.3 2.5 8.7 3.2 9.5 4.3 12.3 2.5 6.7 3 7 3 7.3 3.5 7.2 3.7 7.5 4 7.3 4.3 7 4.7 6.5 2 2.7 2 2.3 2 1.7 2 1.5 2 1 2 .8 2 .2 2 .3 2-.3 1.8-.5 1.7-.7 2-.8 1.8-1.2 1.7-1.3 3.3-3.2 3-3.5 3-4 2.5-4 2.5-4 2-4 1.7-3.8 2.5-5.5 1-2.7 2.8-9.8 3.2-10 4-11.2 2.3-5.8 2.2-5.5 2.5-5 2.8-4.2 2.5-3.8 1.2-1.5 1.5-1 1.3-1 1.2-.5 1.5-.2 1.3.2h.2l1.5.3 1.8.2h4.2l5.3-.5 5.7-.7 6.3-1 6.5-1.3 13.5-2.7 12.7-3.3 10.8-2.7 10.2-2.8-.5-1.7-.7-1.8-.3-2.2v-2.8l.5-1.5.3-1.7.7-1.5 1-1.8 1.3-1.5 1.5-1.7 2.7-2.5 3.8-2.3 4.7-2.2 5.8-2.3 4-1.2 3.7-1.5 3.5-1.8 3.3-2 3-1.7 2.7-2.3 2.5-2.2 2.5-2.3 3.8-4.2 3.5-4.5 3.2-4.5 2.8-4.8 5.2-8.5 2.5-4 2.5-3.5 1.8-2.5 1.2-2.5 1.3-2 .5-2 .5-1.5v-1.5l-.3-1.5-.5-1-.7-1-1-1-1.3-.5-1.2-.7-1.5-.3-1.8-.2-3.7-.3-2.5-.5-3.8-1-4.5-1.5-5.2-2-11.8-5.2-12.5-5.8-12.2-5.7-10.3-5.3-10-5-85.5 18.5-62 39.8-17.5 25.2" stroke-width="21"/><path d="m321 554 56 6.3 1.8 1.7 2.2 2.5 2.3 3.3 2.5 4.2 1.2 2.5 1.3 2.8 1 3 1 3 .7 3.5.5 3.7.3 3.3-.3 3.2-.2 3-.8 2.5-1 3-1.2 2.5-1.5 2.3-1.5 1.7-1.5 1.8-1.5 1.2-2.5 2-1.8.8" stroke-width="19.25"/><path d="m332.3 581 16.5 12 15.2 11.8 15.8 12.2 6.5 5.3 5.2 4.7 3.8 3.8 1.2 1.5.5 1.2 1.8 5 .7 2.5.5 2.8-.2 3-.5 3.5-.8 1.7-.7 1.8-2.3 4.2-3.5 5-2.2 3.5-2 4-2.3 4.8-2 5.2-4.5 11.3-4.5 11.7-2.7 5.8-2.5 5.2-3 4.8-3 4.2-1.8 2-1.5 1.5-1.7 1.5-2 1.3-1.8 1-2 .5-2 .5h-2l-3.7-.3-3.3-.7-3-1.5-2.7-1.5-2.3-1.8-2-2-1.7-2-1.5-2.2-1.5-2.3-1.3-2.2-2-4.8-1.5-4-1-3.5-.5-3-.7-5-7.3-59-1.5-13.2m-1.2 13.5-130.8 36.2-2.2 1.5-2.5 2-3.3 2.5-3.7 3.8-4.3 4.5-4.5 5.5-2.2 3.2-2.5 3.3-2 4-1.8 4-1.2 4.5-1.3 4.7-.5 4.8-.5 5v10l.5 4.7.8 4.5.7 4.5 1 4 1.3 3.5 1.2 3.3 1.5 2.5 1.5 2 1 1 1.3.7 1.7.5 2 .8 5 1.2 5.8.8 6.5.7 7.2.8 15 .7 14.8.5 12.5.3h12.2l77-27.5 1.5-20 .8-16.8v-13.5m-211.3-69.2.8 2 2.5 5.5 3.5 7.2 2 4 2.2 4 2.5 3.8 2.5 3.5 2.8 2.7 1.2 1.3 1.5 1 1.3.7 1.2.5 1.5.5h1.3l1.2-.5 1.3-.5 1.2-1 1.3-1.2 2.5-3.3 2-3.7 1.7-4 1.5-4.3 1.5-4.2 1.3-4.5 2-8.8 1.2-8 1-6.5.5-6m54.3-95.5 2.2-.5 5.8-.7 8.7-.8 5-.2h5.3l5.5.2 5.5.5 5.2.8 5.3 1.5 2.5.7 2.2 1 2.3 1 2 1.3 2 1.2 1.7 1.5 1.5 1.8 1.5 2 2.3 3.7 1.7 3.5 1.3 3.3.7 3.2.5 3v2.8l-.5 2.5-.5 2.5-1 2.2-1.2 2.3-1.3 2-1.5 2-1.7 1.7-1.8 1.8-3.7 3" stroke-width="21"/><path d="m249.5 511.5-.5 2.8-1.5 7.5-2.5 10.2-1.5 6-1.7 6.3-2 6.5-2 6.2-2.5 6-2.5 5.5-2.8 4.8-1.5 2.2-1.5 2-1.7 1.8-1.5 1.2-1.8 1.3-1.7.7-2.5 1.3-2.3 1.2-2.2 1.5-2.3 1.8-2 1.7-1.7 2-3.3 4-2.7 4-2.3 4-1.7 3.5-1.3 3-1.2 4" stroke-width="21"/><path d="m169 676.3-4.5 4.2 2.8-7 23-56.7 4.7-1 90.3-15.8-51.5 19z" stroke-width="19.25"/><path d="m278.8 579.3-.3.2 71.5-13.5 38 35.8.5.5.5.2h.3v-1.7l-.5-2.8-1.5-5-2.5-7.7-1.5-3.8-1.8-3.5-1.7-3.2-1.8-2.8-2-2.2-1.7-2-1.8-1.8-2-1.2-3.2-2-2.5-1.3-1.8-.5-.7-.2-11.8-.8-28.7-1.5zm-98.8 130.2 48.3-4.5 53.5 48m58.2-25.5 1.8-102.5 53 33" stroke-width="21"/><path d="m109.8 550.8 2.2-3 15.5-19.5 28 18 3.3 12.2-29-3.2z" stroke-width="19.25"/><path d="m481.8 237.5 7.2 2.5 7 3 6.8 3.3 6.7 3.7m-136.5 24 1.3 51.5 1.2 2.5 1.5 2.8 2.3 3.5 2.5 3.5 1.7 2 1.5 1.7 1.8 1.5 2 1.5 2 1.3 2 1 2.2.5 2.3.2h2.2l2.5-.5 2.5-1.2 2.8-1.5 2.5-2.3 2.7-2.7 2.8-3.8 2.5-4 2-4.2 1.5-4.8m58-225.2-1.3-.8-3.5-1.5-2.5-1.2-3-1-3.2-.8-3.5-.7-4-.5h-4l-4.5.2-4.5.8-2.3.7-2.2.8-2.3 1-2.2 1.2-2.3 1.3-2.2 1.7-2.3 1.8-2.2 2-3.3 3.2-3.5 3.8-3.2 4-3.5 4.2-7 9.3-6.8 9.5-6.5 10-6 9.2-9.7 16.5-6.8 11.8 2 90.2" stroke-width="21"/><path d="m521.8 145-1 1-25.5 28-5.5 20-5.5 20.3-5.5 22.5-2.5 10.5-2.3 10-1.7 9-1.3 7.7-.5 4.5-.2 4.3-.3 8.2-.2 7.5-.3 7-.2 3.3-.3 3.2-.7 3-.8 3-1 2.8-1.2 2.7-1.8 2.5-2 2.5-1.7 2-2 1.8-2.3 1.7-2.5 1.8-2.5 1.5-2.7 1-2.5.5h-2.3l-2.2-.3-2.3-.5-2-1-1.7-1.2-2-1.3-1.5-1.7-1.8-1.8-1.2-1.7-2.8-4-2-4-1.7-4-1.3-3-1-3 14.3-159.5 1.2-2.8 1.5-3.2 2.5-4 3.8-5.3 4.5-6 6-6.5 3.5-3.7 3.7-3.8 5.5-5 5-4.7 8.8-9 5-5.3 5-4.5 4.5-3.5 2.2-1.7 2.3-1.3 2.2-1.2 2.5-.8 2.3-.7 2.5-.3h5.2l2.8.5 2.7.8 6.3 2.2 5.2 2.3 4.5 2 3.5 2 3 1.5 2.5 1.5 2.5.7 2 .3 1.8-.3 1.7-.5 3-1.5 4.3-1.7 2.2-.8 2.5-.7 2.8-.5 3.2-.3 3.3-.2 3.5.2 3.5.3 4 1 4.2 1.2 4.5 1.5 4.8 2.3 5 2.7 5 3 5 3.5 10.2 7.3 10.5 7.7 10.8 8.3 11.5 8.7 11.7 8.8 12.8 8.7 6.7 4.3 7 4.2 3.3 1.5 5.2 1.5 7 2 9 2.3 10.5 2.2 12 2.5 13 2.5 14.5 2.5" stroke-width="21"/><path d="m551.8 93.5-.5.5-4.5 6.8-8 12.2-4.5 7.8-4.8 8.2-4.5 8.5-4.2 8.5-2.5 5.8-2 5.7-1.5 5.3-1 4.7-.8 7-.7 8.5-.5 9.8-.3 10.7-.2 23.3-.3 23.2v42.3l.3 1.5.2 1.5.8 1.5.7 1.2.8 1 1 1 1.2 1 1.3.8 1.2.5 1.5.5 1.5.5 3.5.2 3.5-.2 3.5-.8 3.5-1.5 1.8-1 1.7-1 1.8-1.2 1.7-1.5 1.5-1.5 1.5-1.8 1.5-1.7 1.3-2.3 1.2-2.2 1-2.3 1-2.7.8-2.8 1.2-4.2 1-5.5 1.8-12.8 2-14.5 1.5-14.7 2.2-25.3 1-10.7m-186.2-19-2.3 1.2-5.5 3-7.7 5-4.3 3-4.5 3.3-4.2 3.7-4.3 4-4 4-3.5 4.5-1.5 2-1.2 2.5-1 2.3-1 2.2-.8 2.5-.5 2.3-.2 2.5.2 2.2 2.3 25.8 2.2 23.2 1 8.5 1 7 1 5.3.5 2.2.5 1.5 1 1.3 1.3 1.2 1.7 1 2.3.8 2.5.5 2.7.2 2.8-.2 2.7-.5 3-1 2.8-1.8 2.7-2.2 1.3-1.3 1.2-1.5 1-1.5 1-2 1-2 1-2.2.5-2.3.8-2.5.5-3 .2-3 .5-5.5m230.8 73 2.2-1.2 2.8-1.5 3.2-2.3 5-3.2 5.5-4.5 5.8-5.3 3.2-3 3-3.2 3-3.8 3-3.7 3-4 2.8-4.5 2.7-4.5 2.8-5 2.2-5.3 2.3-5.5" stroke-width="21"/><path d="m464.5 329.3 4 1.2 3.8 1.5 7.5 3 7 3.5 6.5 3.5 12.7 7.3 6 3.5 6.3 3.2 6.2 2.8 3.3 1.2 3 1 3.5 1 3.2.8 3.5.5 3.5.5h7.5l3.8-.3 4.2-.5 4-1 4.5-1 4.5-1.5 4.8-1.7 10-6.3 13-8.2 6-3.5 5.7-3.3 5-2.5 4.5-2.2 4.8-2 4.5-1.8 4.2-1.5 4.3-1 4.5-1 4.2-.5 4.3-.2h4.5l4.5.2 4.5.5 4.7 1 4.8 1.3 5.2 1.5 5 1.7 2.3 1 2.7 1.5 7 3.8 9 5.5 10.5 6.5 24.5 15.5 26.5 17m-431-110.8-2.5 1.5-8.5 5.3-9.5 5-4.7 2.5-5 2.2-5 2.3-5.3 2-2.5 1-2.5 1.2-2 1.3-2 1.5-1.7 1.7-1.5 1.8-1.3 1.7-1 2-.7 2-.5 2.3-.3 2.2v2.3l.5 2.5.5 2.5.8 2.5 1.2 2.5 1.8 3 2 2.7 2.2 2.5 2.3 2.3 2.7 2 2.5 1.5 3 1.5 3 1 3 1 3.3.7 3.2.8 3.3.2 6.7.8h6.5l6.3-.3 6.2-.5 6.3-.7 6.2-.8 6.3-1.2 6-1.3 12.5-2.7.7-.3m-93 84.3 38 39.2 34.3-42.7" stroke-width="21"/><path d="m417.5 389.5-3-3.2-3.2-3-3.5-3-3.8-2.5-4-2-4.2-2-4.3-1.5-4.5-1.3-4.5-1-4.5-.5-4.5-.2-4.5.2-4.5.5-4.5 1-4.2 1.3-4.3 1.7-4.7 2.5-4.8 3.3-4 3.5-4 4-3.2 4.2-3 4.8-2.5 4.7-2 5.3-1.8 5.2-1 5.5-.5 5.8.3 5.7.5 6 1.2 6 1 3 1 3 1.3 3 1.2 3" stroke-width="21"/></g></svg>