<svg height="850" viewBox="0 0 850 850" width="850" xmlns="http://www.w3.org/2000/svg"><path d="m554.6 378.5 2.7 1.3 3 1.5 6.8 4 7.5 5.2 8.2 6.3-33.5 134 9.8 8.2-6.3-3.2-6.2-2.5-2.8-.8-3-.7-2.7-.8-2.8-.2-2.5-.3h-5l-2.2.3-4.8.7-4.2 1.5-4 1.8-3.5 2.5-3.5 2.7-3.3 3-3 3.5-2.7 3.5-2.5 4-2.3 4.3-2.2 4.2-1.8 4.3-1.7 4.5-1.5 4.5-2.8 9-1.7 8.7-1.5 7.8-1 7-.5 5.5-.3 4-1.2 33.2-1 41.5-1 40-.5 30.5-5.8-.2h-281.5l-.5-30-.7-40.5-1.3-41.5-1-33.8-.2-3.7-.5-5.3-1-6.5-1.3-7.2-1.7-8-2.3-8.5-1.2-4.5-1.8-4.3-1.5-4.2-2-4-2-4.3-2.2-3.7-2.3-3.8-2.7-3.5-2.8-3.2-3-3-3.5-2.5-3.5-2.3-3.7-2-4-1.5-4.3-.7-4.5-.5h-4.7l-5 .7-5.3 1.3-5.7 1.7-3.3.8-2.7.7-2.3 1-2.2 1.3-1.8-2.5-9.7-147.3 4.7-3.2 4.5-2.5 4-2.3 3.5-1.7 8.8-4 3.5-1.8 5-1.7 5.7-1.5 6.8-1.8 15.2-3.2 16.8-3 33-5.8 13.5-2.2 10-2 2.2-.8 2-.7 1.8-1.3 2-1.2h.7l1 1.7 2.8 3.8 4.5 5.7 2.7 3.3 3.3 3.5 3.7 3.7 4 4 4.5 3.8 4.8 4 5.2 3.7 5.5 3.5 6 3.5 6.3 3 6.5 2.8 7 2.2 7.2 2 3.8.5 3.7.8 4 .2 3.8.3h8.2l4.3-.5 4.2-.5 4.3-.8 4.2-.7 4.5-1.3 4.5-1.5 4.8-1.5 4.5-2 4.7-2 4.8-2.5 4.7-2.7 5-3 4.8-3.3 5-3.5 5.2-3.7 5-4.3 5.3-4.5 5.2-5 5.3-5 5.2-5.7 2.5-2.5 2 1.7 2 1.5 2.3 1.3 2.5.7 9.7 2 13.5 2.3 33 5.7 17 3 15.3 3.3 6.7 1.7 5.8 1.5 4.7 1.8 3.8 1.7z" fill="#a9d7f3"/><path d="m559.1 539-9.8-8.2 33.5-134 9.3 7.5 10 8.7 10.5 9.8 11.2 11 11.5 12.2 12.3 13.3 12.5 14.2 12.7 15.5 16.8 20.5 14.5 17.3 23.7 28.5 10.3 12.5 10 12.7 10.2 13.5 10.8 15.3-62 61.7-26.3-23.7-40-36.3-22.2-20-21.8-19.5-20.2-17.7zm51.7 112.8 4.3 4.5 1.5 2.2 1.2 2 1 2 .5 2.3-.2 2.2-.5 2.5-1.3 3.3-1 2.7-2.2 3.8-.8 1.5-.2 1.2-.3 1 .5 1.3h-1l-2-1.5-5.5-3.8-7.7-4.5-4-2.2-4.3-2.3-12.5-11.5-9-2.5-9-2.5-10-2.7-9.2-2-7.5-1.5-3.8-.5h-3.7l-6.3-.3-3-.2-2.5-.5-2.5-1-1.2-.8-1-1-1.8-1.7-1.7-2.3-.8-1.2-.5-1.3-.2-1v-1l.2-1 .3-1 1-1.7 1.2-1.5 1.8-1.5 1.7-1 1.8-1 3.2-1.3 1.3-.5 71.5 7 1.2.5 3.3 2 2.2 1.5 2.8 2.3 3 2.5 3.2 3.5 4.5 4.5z" fill="#ffeec8"/><path d="m588.8 670 4.3 2.3 4 2.2 7.7 4.5 5.5 3.8 2 1.5h1l1.3 3.2.7 2.3.3 2.5v3l-.3 1.7-.2 1.8-.5 2-.8 2-1 2-1.2 2.2-3 4.5-3.3 4.5-7.5 9.5-7.7 10.5-4 5.8-4 6-.5 1.5-.8 2.2-2 7.3-2.2 10-2.3 12.2-91.7-.7 14.7-22.5 5.5-8.8 1.8-3.2 1-2.3 1.7-4.5 1-4.2.3-4v-4l-.8-4-1-3.8-1.7-4-2-4.5-3-5.2-3.8-6-2.7-4.5-1.3-4-1-4-.2-3.5v-3.3l.5-3.2.7-3 1-2.8 1.3-2.7 3.2-5.5 3.3-5.8 1.5-3 1.7-3 1.3-3.2 1.2-3.8.8-1 1 1 1.2.8 2.5 1 2.5.5 3 .2 6.3.3h3.7l3.8.5 7.5 1.5 9.2 2-.2 1.5-5.8 12.5v.5l20.8.5 9.2.2 3.8.5 3.2.3 2.3.5 2.2.7zm-56.7-66.7 40.5-.5 5 2.7 7.2 4.5 8.8 5.8 4.2 3 4.3 3.2 3.7 3.3 3 3 1.8 2 1.2 2 1 2.2.8 2 .2 2 .3 1.8-.3 2-.2 1.7-.8 3-.7 2.5-1.3 2v.3l-4-4-4.5-4.5-3.2-3.5-3-2.5-2.8-2.3-2.2-1.5-3.3-2-1.2-.5-71.5-7-1.3.5-3.2 1.3-.5-1-2-.8-2-.7-1.8-1.3-1.7-1.2-1.3-1.3-1-1.2-.7-1-.5-1.3-.3-1v-1.2l.3-1 .2-1 1-1.8 1.5-1.5 1.5-1.5 1.8-1.2 2.7-1.5 1-.5z" fill="#ffeec8"/><path d="m576.3 658.5 12.5 11.5-5-2-2.2-.7-2.3-.5-3.2-.3-3.8-.5-9.2-.2-20.8-.5v-.5l1.8-3 1.5-3.3 1.2-3 1.3-3.2.2-1.5 10 2.7 9 2.5zm-43-72.2 22-2 2 .2 2.3.5 2 1 2 1.3 2 1.5 1.7 1.7 1.8 2 1.7 2 2.8 4 2.2 3.3 1.8 3.5v.2l-5-2.7-40.5.5-2.8-.3-2-.7-2-.8-1.5-1-1.2-1-1-1.2-.8-1.3-.5-1.5-.2-1.2v-2.5l.2-1 .3-1 .5-.8.5-.7.7-.3 1.5-.5 2.5-.5z" fill="#ffeec8"/><path d="m542.3 664.8 5.8-12.5-1.3 3.2-1.2 3-1.5 3.3z" fill="#fff"/><path d="m532.1 603.3-23.3.5-1 .5-2.7 1.5-1.3-5.5-1-5.5-.7-5.5-.3-5.8v-3l.3-3 .5-3 .7-2.7 1.3-2.5 1.5-2.5 1-1 1.2-1 1.3-.8 1.2-.7 2.3-1 2.2-.3h2l2 .5 1.8 1 1.5 1.5 1.2 1.8 1 2.2 1.8 4.8 2.2 4.5 2 4 2.5 4-7 .7-2.5.5-1.5.5-.7.3-.5.7-.5.8-.3 1-.2 1v2.5l.2 1.2.5 1.5.8 1.3 1 1.2 1.2 1 1.5 1 2 .8 2 .7zm-104.3-257-2.5 2.5-5.2 5.7-5.3 5-5.2 5-5.3 4.5-5 4.3-5.2 3.7-5 3.5-4.8 3.3-5 3-4.7 2.7-4.8 2.5-4.7 2-4.5 2-4.8 1.5-4.5 1.5-4.5 1.3-4.2.7-4.3.8-4.2.5-4.3.5h-8.2l-3.8-.3-4-.2-3.7-.8-3.8-.5-7.2-2-7-2.2-6.5-2.8-6.3-3-6-3.5-5.5-3.5-5.2-3.7-4.8-4-4.5-3.8-4-4-3.7-3.7-3.3-3.5-2.7-3.3-4.5-5.7-2.8-3.8-1-1.7h-.7l2.5-2.5 2.5-3 2.2-3 2-3.5 2-3.5 1.8-3.8 2.7-7.2 2.3-6.8 1.5-5.5 1.2-5.2 1-1.5 3.8 4.5 4 4 4 3.7 4.2 3.8 4.3 3.2 4.5 3.3 4.7 2.7 4.8 2.8 4.7 2.2 5 2 5.3 1.8 5 1.5 5.2 1.2 5.5.8 5.3.5 5.5.2 6-.2 5.7-.5 5.5-1 5.8-1.3 5.2-1.7 5.5-2 5.3-2.3 5-2.5 5-3 4.7-3.2 4.8-3.5 4.5-3.8 4.2-4 4.3-4.2 4-4.5 3.7-4.8 2 8.3 1.5 6.5 2.3 7.2 2.7 7.5 1.8 3.8 1.7 3.7 1.8 3.5 2.2 3.3 2 3z" fill="#ffeec8"/><path d="m407.3 297-3.7 4.8-4 4.5-4.3 4.2-4.2 4-4.5 3.8-4.8 3.5-4.7 3.2-5 3-5 2.5-5.3 2.3-5.5 2-5.2 1.7-5.8 1.3-5.5 1-5.7.5-6 .2-5.5-.2-5.3-.5-5.5-.8-5.2-1.2-5-1.5-5.3-1.8-5-2-4.7-2.2-4.8-2.8-4.7-2.7-4.5-3.3-4.3-3.2-4.2-3.8-4-3.7-4-4-3.8-4.5-3.7-4.5-3.5-5-3.3-5-3-5.5-3-5.3-2.7-5.7-2.5-5.8-2-6-2-6.2-2-6.3-1.5-6.5-1.3-6.5-.7-6.7-.8-6.8-.5-7-.2-7 .2-7 .5-6.7.5-6.8 1-6.5 1.3-6.5 1.5-6.2 1.7-6.3 1.8-6 2.2-6 2.5-5.7 2.5-5.8 2.8-5.2 3.2-5.3 3-5.2 3.5-4.8 3.5-4.7 4-4.3 3.8-4.2 4.2-4 4.3-3.8 4.2-3.5 4.5-3.2 4.8-3 4.7-2.5 5-2.5 5-2 5.3-2 5.2-1.5 5.3-1 5.5-1 5.5-.5 5.5-.3 5.7.3 5.5.5 5.3 1 5.5 1 5.2 1.5 5 2 5.3 2 4.7 2.5 4.8 2.5 4.7 3 4.5 3.2 4.5 3.5 4.3 3.8 4 4 4 4.2 3.7 4.3 3.8 4.7 3.2 4.8 3.3 5.2 3 5.3 2.7 5.2 2.8 5.8 2.5 5.7 2 6 2 6 1.7 6.3 1.5 6.2 1.3 6.5.7 6.5.8 6.8.5 6.7v13.5l-.5 6.5-.5 6.5-1 6.3-1 6.2-1.5 6.3-1.5 6-1.8 5.7-2 5.8-2.2 5.5-2.3 5.5-2.7 5.2-2.8 5-3 5-3 4.8z" fill="#ffeec8"/><g fill="none" stroke="#231f20" stroke-linecap="round" stroke-miterlimit="10"><path d="m407.3 297-3.7 4.8-4 4.5-4.3 4.2-4.2 4-4.5 3.8-4.8 3.5-4.7 3.2-5 3-5 2.5-5.3 2.3-5.5 2-5.2 1.7-5.8 1.3-5.5 1-5.7.5-6 .2-5.5-.2-5.3-.5-5.5-.8-5.2-1.2-5-1.5-5.3-1.8-5-2-4.7-2.2-4.8-2.8-4.7-2.7-4.5-3.3-4.3-3.2-4.2-3.8-4-3.7-4-4-3.8-4.5-3.7-4.5-3.5-5-3.3-5-3-5.5-3-5.3-2.7-5.7-2.5-5.8-2-6-2-6.2-2-6.3-1.5-6.5-1.3-6.5-.7-6.7-.8-6.8-.5-7-.2-7 .2-7 .5-6.7.5-6.8 1-6.5 1.3-6.5 1.5-6.2 1.7-6.3 1.8-6 2.2-6 2.5-5.7 2.5-5.8 2.8-5.2 3.2-5.3 3-5.2 3.5-4.8 3.5-4.7 4-4.3 3.8-4.2 4.2-4 4.3-3.8 4.2-3.5 4.5-3.2 4.8-3 4.7-2.5 5-2.5 5-2 5.3-2 5.2-1.5 5.3-1 5.5-1 5.5-.5 5.5-.3 5.7.3 5.5.5 5.3 1 5.5 1 5.2 1.5 5 2 5.3 2 4.7 2.5 4.8 2.5 4.7 3 4.5 3.2 4.5 3.5 4.3 3.8 4 4 4 4.2 3.7 4.3 3.8 4.7 3.2 4.8 3.3 5.2 3 5.3 2.7 5.2 2.8 5.8 2.5 5.7 2 6 2 6 1.7 6.3 1.5 6.2 1.3 6.5.7 6.5.8 6.8.5 6.7v13.5l-.5 6.5-.5 6.5-1 6.3-1 6.2-1.5 6.3-1.5 6-1.8 5.7-2 5.8-2.2 5.5-2.3 5.5-2.7 5.2-2.8 5-3 5-3 4.8z" stroke-width="21"/><path d="m548.1 652.3-1.3 3.2-1.2 3-1.5 3.3-1.8 3" stroke-width="12.75"/><path d="m610.8 651.5 1.3-2 .7-2.5.8-3 .2-1.7.3-2-.3-1.8-.2-2-.8-2-1-2.2-1.2-2-1.8-2-3-3-3.7-3.3-4.3-3.2-4.2-3-8.8-5.8-7.2-4.5-5-2.7-40.5.5-23.3.5-1 .5-2.7 1.5-1.8 1.2-1.5 1.5-1.5 1.5-1 1.8-.2 1-.3 1v1.2l.3 1 .5 1.3.7 1 1 1.2 1.3 1.3 1.7 1.2 1.8 1.3 2 .7 2 .8" stroke-width="14"/><path d="m589.3 670.5-.5-.5-12.5-11.5-9-2.5-9-2.5-10-2.7-9.2-2-7.5-1.5-3.8-.5h-3.7l-6.3-.3-3-.2-2.5-.5-2.5-1-1.2-.8-1-1-1.8-1.7-1.7-2.3-.8-1.2-.5-1.3-.2-1v-1l.2-1 .3-1 1-1.7 1.2-1.5 1.8-1.5 1.7-1 1.8-1 3.2-1.3 1.3-.5 71.5 7 1.2.5 3.3 2 2.2 1.5 2.8 2.3 3 2.5 3.2 3.5 4.5 4.5 4 4 4.3 4.5 1.5 2.2 1.2 2 1 2 .5 2.3-.2 2.2-.5 2.5-1.3 3.3-1 2.7-2.2 3.8-.8 1.5-.2 1.2-.3 1 .5 1.3 1.3 3.2.7 2.3.3 2.5v3l-.3 1.7-.2 1.8-.5 2-.8 2-1 2-1.2 2.2-3 4.5-3.3 4.5-7.5 9.5-7.7 10.5-4 5.8-4 6-.5 1.5-.8 2.2-2 7.3-2.2 10-2.3 12.2" stroke-width="14"/><path d="m612.3 684.3-2-1.5-5.5-3.8-7.7-4.5-4-2.2-4.3-2.3-5-2-2.2-.7-2.3-.5-3.2-.3-3.8-.5-9.2-.2-20.8-.5h-11l-7.2-.3-1.5.3-1.3.2-1 .8-1 1-.5 1.2-.5 1.3-.2 1.5.2 1.7.3 1.5.7 1.8.8 1.5 1.2 1.5 1.5 1.5 1.8 1 2 1.2 2.5.8 4.2 1 5.8.7 13.2 1.8 11.3 1.2 4.7.3m9.3-83.5-1.8-3.5-2.2-3.3-2.8-4-1.7-2-1.8-2-1.7-1.7-2-1.5-2-1.3-2-1-2.3-.5-2-.2-22 2-7 .7-2.5.5-1.5.5-.7.3-.5.7-.5.8-.3 1-.2 1v2.5l.2 1.2.5 1.5.8 1.3 1 1.2 1.2 1 1.5 1 2 .8 2 .7 2.8.3 2.2.2" stroke-width="14"/><path d="m500.8 706.8.5 1 1.8 2.7 1.5 2.3 2 2.5 2.2 2.7 2.8 2.8 3.5 2.7 3.7 2.5 4.3 2.5 4.7 2" stroke-width="12.75"/><path d="m506.8 644-1.2 3.8-1.3 3.2-1.7 3-1.5 3-3.3 5.8-3.2 5.5-1.3 2.7-1 2.8-.7 3-.5 3.2v3.3l.2 3.5 1 4 1.3 4 2.7 4.5 3.8 6 3 5.2 2 4.5 1.7 4 1 3.8.8 4v4l-.3 4-1 4.2-1.7 4.5-1 2.3-1.8 3.2-5.5 8.8-14.7 22.5m51.2-193-.5-1-2.5-4-2-4-2.2-4.5-1.8-4.8-1-2.2-1.2-1.8-1.5-1.5-1.8-1-2-.5h-2l-2.2.3-2.3 1-1.2.7-1.3.8-1.2 1-1 1-1.5 2.5-1.3 2.5-.7 2.7-.5 3-.3 3v3l.3 5.8.7 5.5 1 5.5 1.3 5.5v.5" stroke-width="14"/><path d="m407.3 296v1l2 8.3 1.5 6.5 2.3 7.2 2.7 7.5 1.8 3.8 1.7 3.7 1.8 3.5 2.2 3.3 2 3 2.5 2.5 2 1.7 2 1.5 2.3 1.3 2.5.7 9.7 2 13.5 2.3 33 5.7 17 3 15.3 3.3 6.7 1.7 5.8 1.5 4.7 1.8 3.8 1.7 8.5 4 2.7 1.3 3 1.5 6.8 4 7.5 5.2 8.2 6.3 9.3 7.5 10 8.7 10.5 9.8 11.2 11 11.5 12.2 12.3 13.3 12.5 14.2 12.7 15.5 16.8 20.5 14.5 17.3 23.7 28.5 10.3 12.5 10 12.7 10.2 13.5 10.8 15.3m-219.8-78.5 9.8 8.2 17.5 14.8 20.2 17.7 21.8 19.5 22.2 20 40 36.3 26.3 23.7 3.2 2.8" stroke-width="21"/><path d="m562.1 540.5-3-1.5-6.3-3.2-6.2-2.5-2.8-.8-3-.7-2.7-.8-2.8-.2-2.5-.3h-5l-2.2.3-4.8.7-4.2 1.5-4 1.8-3.5 2.5-3.5 2.7-3.3 3-3 3.5-2.7 3.5-2.5 4-2.3 4.3-2.2 4.2-1.8 4.3-1.7 4.5-1.5 4.5-2.8 9-1.7 8.7-1.5 7.8-1 7-.5 5.5-.3 4-1.2 33.2-1 41.5-1 40-.5 30.5v4m-221.8-464.2-1.2 5.2-1.5 5.5-2.3 6.8-2.7 7.2-1.8 3.8-2 3.5-2 3.5-2.2 3-2.5 3-2.5 2.5-2 1.2-1.8 1.3-2 .7-2.2.8-10 2-13.5 2.2-33 5.8-16.8 3-15.2 3.2-6.8 1.8-5.7 1.5-5 1.7-3.5 1.8-8.8 4-3.5 1.7-4 2.3-4.5 2.5-4.7 3.2-7.8 5.8m35.5 139.5-5.7.7-3.3.8-2.7.7-2.3 1-2.2 1.3-1.8 1.2-1.5 1.5-4 3.8-5.2 5.2-6.8 6.5" stroke-width="21"/><path d="m97.1 539.8 6.2-3.5 6.3-2.8 5.7-1.7 5.3-1.3 5-.7h4.7l4.5.5 4.3.7 4 1.5 3.7 2 3.5 2.3 3.5 2.5 3 3 2.8 3.2 2.7 3.5 2.3 3.8 2.2 3.7 2 4.3 2 4 1.5 4.2 1.8 4.3 1.2 4.5 2.3 8.5 1.7 8 1.3 7.2 1 6.5.5 5.3.2 3.7 1 33.8 1.3 41.5.7 40.5.5 30v3.5" stroke-width="21"/><path d="m446.8 542.5.3-3.2.7-3.3 1-3.2 1.5-3 1.5-2.8 2-2.7 2-2.8 2.3-2.2 2.5-2.3 2.5-2 2.7-1.7 3-1.8 2.8-1.2 3.2-1.3 3-.7 3-.8m-50.7 20.3.2-3.3.8-3.2 1-3.3 1.5-3 1.5-2.7 2-2.8 2-2.5 2.2-2.5 2.5-2.2 2.5-2 2.8-1.8 3-1.5 2.7-1.5 3.3-1 3-1 3-.7" stroke-width="12.75"/><path d="m87.3 384.8.3 2.7 9.7 147.3m486-140-.5 2-33.5 134m-318-184 1 1.7 2.8 3.8 4.5 5.7 2.7 3.3 3.3 3.5 3.7 3.7 4 4 4.5 3.8 4.8 4 5.2 3.7 5.5 3.5 6 3.5 6.3 3 6.5 2.8 7 2.2 7.2 2 3.8.5 3.7.8 4 .2 3.8.3h8.2l4.3-.5 4.2-.5 4.3-.8 4.2-.7 4.5-1.3 4.5-1.5 4.8-1.5 4.5-2 4.7-2 4.8-2.5 4.7-2.7 5-3 4.8-3.3 5-3.5 5.2-3.7 5-4.3 5.3-4.5 5.2-5 5.3-5 5.2-5.7" stroke-width="14"/></g></svg>