<svg height="850" viewBox="0 0 850 850" width="850" xmlns="http://www.w3.org/2000/svg"><path d="m323.5 291.8h235v97.5h-140.5l-3.3.5-3.2 1-3 1-2.8 1.5-2.7 1.5-2.5 2-2.3 2-2.2 2.5-1.8 2.5-1.7 2.7-1.3 2.8-1.2 3-.8 3.2-.5 3.3-.2 3.2.2 3.3.5 3.5.8 3 1.2 3 1.3 3 1.7 2.5 1.8 2.7 2.2 2.3 2.3 2 2.5 2 2.7 1.5 2.8 1.5 3 1 3.2 1 3.3.5h140.5v7.2h-235z" fill="#ffffc2"/><path d="m163.2 379.3-1.7-2.8-1.8-3-3-6.2-2.5-6.8-2.2-7-1.5-7.5-1-7.7-.3-3.8v-12.2l.5-4 .5-4 .5-4 .8-3.8 1-3.7 1-3.8 2.5-7.2 3-6.8 3.2-6.2 2-3 2-2.8 2-2.7 2.3-2.8 2-2.5 2.5-2.2 2.2-2.3 2.5-2 2.8-2 2.5-1.7 2.7-1.5 2.8-1.5 2.7-1.3 2.8-1 3-1 3-.5 3-.5 3-.5h6l3.2.3 3 .5 2.8.7 3 1 2.7 1 2.8 1.3 2.7 1.5 2.8 1.5 2.5 1.7 2.5 2 2.2 2 2.3 2.3 2.2 2.2 2.3 2.5 2 2.8 1.7 2.7 2 2.8 1.5 3 1.8 3 1.2 3.2 2.8 6.8 2 7 1.5 7.5.7 3.7.3 4 .2 3.8.3 4v4l-.3 4.2-.5 5-.5 5-1 4.8-1 4.7-1.5 4.5-1.5 4.5-1.7 4.3-1.8 4.2-2 4-2.2 3.8-2.5 3.7-2.5 3.5-2.8 3.3-2.7 3-3 2.7-3 2.8-3.8 2.7-4 2.5-4.2 2-4.3 1.8-4.5 1.2-4.5 1-4.5.3h-4.7l-3-.3-3-.5-3-.7-3-.8-2.8-1.2-2.7-1.3-2.8-1.2-2.5-1.8-2.7-1.7-2.3-2-2.5-2-2.2-2.3-2.3-2.2-2-2.5-2-2.8z" fill="#ffeec8"/><path d="m468.7 596.3 3.5.2 3.3.5 3.2.8 3 1 2.8 1.5 2.7 1.5 2.5 2 2.3 2 2.2 2.5 1.8 2.5 1.7 2.7 1.3 2.8 1.2 3 .8 3.2.5 3.3.2 3.2-.2 3.5-.5 3.3-.8 3-1.2 3-1.3 3-1.7 2.7-1.8 2.5-2.2 2.3-2.3 2.2-2.5 1.8-2.7 1.7-2.8 1.3-3 1.2-3.2.8-3.3.5-3.5.2h-37.5l-6-.7-7.5-1-4.2-.5-3.5-.5-2.8-.8-2.2-.5-1.5-1-1-.7-.5-1-.3-1.3.3-1.2.5-1.5 1.7-3.5 2-4.3 1-2.2 1-2.8 1-2.5.5-2.7.3-2.3v-2.2l-.3-2-.5-2-.5-1.5-.5-1.5-.7-1.3-1-1-.8-.7-1-.8-.7-.2h-1l-.8.2-.7.5-1.3 1.8-2 2.7-2.2 3.3-3.3 4-3.7 4.2-5 4.8-2.8 2.5-3.2 2.5-3.5 2.5-3.8 2.2-2.5 1.5-3 .8-3.2.5-3.3.2h-3.5l-3.7-.2-3.5-.3-3.5-.5-6.5-1.5-5.3-1.2-5-1.5h-2v-6.8l-25.5-6.7 1.3-4.3v-3.2l.5-3.3 1-3.2 1-3 1.5-2.8 1.5-2.7 2-2.5 2-2.5 2.2-2 2.8-2 2.5-1.5 3-1.5 3-1 3-.8 3.5-.5 3.2-.2zm0-65.5h3.5l3.3.5 3.2.7 3 1.3 2.8 1.2 2.7 1.8 2.5 2 2.3 2 2.2 2.2 1.8 2.5 1.7 2.8 1.3 3 1.2 3 .8 3 .5 3.2.2 3.5-.2 3.3-.5 3.2-.8 3.3-1.2 3-1.3 2.7-1.7 2.8-1.8 2.5-2.2 2.5-2.3 2-2.5 2-2.7 1.5-2.8 1.5-3 1-3.2.7-3.3.5-3.5.3h-134.5l-3.2-.3-3.5-.5-3-.7-3-1-3-1.5-2.5-1.5-2.8-2-2.2-2-2-2.5-2-2.5-1.5-2.8-1.5-2.7-1-3-1-3.3-.5-3.2v-6.8l.5-3.2 1-3 1-3 1.5-3 1.5-2.8 2-2.5 2-2.2 2.2-2 2.8-2 2.5-1.8 3-1.2 3-1.3 3-.7 3.5-.5h3.2zm89.8-141.5v65.5h-140.5l-3.3-.5-3.2-1-3-1-2.8-1.5-2.7-1.5-2.5-2-2.3-2-2.2-2.3-1.8-2.7-1.7-2.5-1.3-3-1.2-3-.8-3-.5-3.5-.2-3.3.2-3.2.5-3.3.8-3.2 1.2-3 1.3-2.8 1.7-2.7 1.8-2.5 2.2-2.5 2.3-2 2.5-2 2.7-1.5 2.8-1.5 3-1 3.2-1 3.3-.5h138z" fill="#cc82b7"/><path d="m431.2 662 4.3 1 3.2 1 1.3.5 1 .8.7.7.8 1 .5 1 .2 1 .3 1.3v4.2l-.8 3.8-.7 2.5-1 2.2-1.5 2.5-1.8 2.3-2 2-2.5 2-2.5 1.7-3 1.5-3 1.5-3.5 1.3-3.5 1-3.7 1-3.8.5-4 .2-4 .3-4.2-.3-4.5-.5-5.3-.5-11-2-11.5-2.2-11.5-2.5-19-4.8-7.7-2h-1.5l-.3-39.2h2l5 1.5 5.3 1.2 6.5 1.5 3.5.5 3.5.3 3.7.2h3.5l3.3-.2 3.2-.5 3-.8 2.5-1.5 3.8-2.2 3.5-2.5 3.2-2.5 2.8-2.5 5-4.8 3.7-4.2 3.3-4 2.2-3.3 2-2.7 1.3-1.8.7-.5.8-.2h1l.7.2 1 .8.8.7 1 1 .7 1.3.5 1.5.5 1.5.5 2 .3 2v2.2l-.3 2.3-.5 2.7-1 2.5-1 2.8-1 2.2-2 4.3-1.7 3.5-.5 1.5-.3 1.2.3 1.3.5 1 1 .7 1.5 1 2.2.5 2.8.8 3.5.5 4.2.5 7.5 1z" fill="#ffeec8"/><path d="m118.2 672 174.8 18-1 41-.5 18-.5 6-.3 3.8-214 5.5-5-216.5h.8z" fill="#a9d7f3"/><path d="m293 690-174.8-18-45.7-124.2h-.8l-.7-37.3.2-2 1.5-6 2.8-8.7 1.7-5.5 2.3-5.8 2.5-6.2 3-6.8 3.5-6.7 4-7 4.5-6.8 5-7 5.7-6.7 3-3.5 3-3.3 5.3-5 5.2-4.2 5-4 4.8-3.5 36.5 187.7 121.7 31.8 8 2 25.5 6.7v6.8l.3 39.2v7.5z" fill="#a9d7f3"/><path d="m293.5 627.3-1.3 4-121.7-31.8-36.5-187.7 11.5-8 5-3.5 4.2-3.8 2-1.7 1.5-2 1.5-1.8 1.3-2.2 1-2 .7-2.3.3-2.5.2-2.7 2 2.7 2 2.8 2 2.5 2.3 2.2 2.2 2.3 2.5 2 2.3 2 2.7 1.7 2.5 1.8 2.8 1.2 2.7 1.3 2.8 1.2 3 .8 3 .7 3 .5 3 .3h4.7l4.5-.3 4.5-1 4.5-1.2 4.3-1.8 4.2-2 4-2.5 3.8-2.7h3.7l5 5.7 5 6.5 6.3 8 6.7 9.3 3.3 4.7 3 5 3 4.8 2.5 5 2.2 4.5 2 4.5 1.5 5.2 1.5 6 1.3 7.3 1.2 8.2 1 9.3 1 9.7.8 10.8.7 11.2 1.3 24.5 1 26.5.5 28z" fill="#a9d7f3"/><path d="m729.2 123.5v4.5l-4.2 3.5-166.5 46.5v113.8h-235v-168.3z" fill="#ffffc2"/><path d="m775.7 86.8v3l-46.5 38.2v-4.5h-405.7l-1.5-3 61.2-33.7z" fill="#faa41f"/><path d="m733.2 462.5-3.5 1-.5-1.5v-334l46.5-38.2v305.5z" fill="#faa41f"/><path d="m729.2 462 .5 1.5-171.2 43v-328.5l166.5-46.5 4.2-3.5z" fill="#faa41f"/><g fill="none" stroke="#231f20" stroke-linecap="round" stroke-miterlimit="10" stroke-width="21"><path d="m468.7 596.3 3.5.2 3.3.5 3.2.8 3 1 2.8 1.5 2.7 1.5 2.5 2 2.3 2 2.2 2.5 1.8 2.5 1.7 2.7 1.3 2.8 1.2 3 .8 3.2.5 3.3.2 3.2-.2 3.5-.5 3.3-.8 3-1.2 3-1.3 3-1.7 2.7-1.8 2.5-2.2 2.3-2.3 2.2-2.5 1.8-2.7 1.7-2.8 1.3-3 1.2-3.2.8-3.3.5-3.5.2h-37.5m-129.7-33v-3.2l.5-3.3 1-3.2 1-3 1.5-2.8 1.5-2.7 2-2.5 2-2.5 2.2-2 2.8-2 2.5-1.5 3-1.5 3-1 3-.8 3.5-.5 3.2-.2m0 0-3.2-.3-3.5-.5-3-.7-3-1-3-1.5-2.5-1.5-2.8-2-2.2-2-2-2.5-2-2.5-1.5-2.8-1.5-2.7-1-3-1-3.3-.5-3.2v-6.8l.5-3.2 1-3 1-3 1.5-3 1.5-2.8 2-2.5 2-2.2 2.2-2 2.8-2 2.5-1.8 3-1.2 3-1.3 3-.7 3.5-.5h141.2l3.3.5 3.2.7 3 1.3 2.8 1.2 2.7 1.8 2.5 2 2.3 2 2.2 2.2 1.8 2.5 1.7 2.8 1.3 3 1.2 3 .8 3 .5 3.2.2 3.5-.2 3.3-.5 3.2-.8 3.3-1.2 3-1.3 2.7-1.7 2.8-1.8 2.5-2.2 2.5-2.3 2-2.5 2-2.7 1.5-2.8 1.5-3 1-3.2.7-3.3.5-3.5.3zm221.8-141.5h-138l-3.3-.5-3.2-1-3-1-2.8-1.5-2.7-1.5-2.5-2-2.3-2-2.2-2.3-1.8-2.7-1.7-2.5-1.3-3-1.2-3-.8-3-.5-3.5-.2-3.3.2-3.2.5-3.3.8-3.2 1.2-3 1.3-2.8 1.7-2.7 1.8-2.5 2.2-2.5 2.3-2 2.5-2 2.7-1.5 2.8-1.5 3-1 3.2-1 3.3-.5h138m-392.8-10-1.7-2.8-1.8-3-3-6.2-2.5-6.8-2.2-7-1.5-7.5-1-7.7-.3-3.8v-12.2l.5-4 .5-4 .5-4 .8-3.8 1-3.7 1-3.8 2.5-7.2 3-6.8 3.2-6.2 2-3 2-2.8 2-2.7 2.3-2.8 2-2.5 2.5-2.2 2.2-2.3 2.5-2 2.8-2 2.5-1.7 2.7-1.5 2.8-1.5 2.7-1.3 2.8-1 3-1 3-.5 3-.5 3-.5h6l3.2.3 3 .5 2.8.7 3 1 2.7 1 2.8 1.3 2.7 1.5 2.8 1.5 2.5 1.7 2.5 2 2.2 2 2.3 2.3 2.2 2.2 2.3 2.5 2 2.8 1.7 2.7 2 2.8 1.5 3 1.8 3 1.2 3.2 2.8 6.8 2 7 1.5 7.5.7 3.7.3 4 .2 3.8.3 4v4l-.3 4.2-.5 5-.5 5-1 4.8-1 4.7-1.5 4.5-1.5 4.5-1.7 4.3-1.8 4.2-2 4-2.2 3.8-2.5 3.7-2.5 3.5-2.8 3.3-2.7 3-3 2.7-3 2.8-3.8 2.7-4 2.5-4.2 2-4.3 1.8-4.5 1.2-4.5 1-4.5.3h-4.7l-3-.3-3-.5-3-.7-3-.8-2.8-1.2-2.7-1.3-2.8-1.2-2.5-1.8-2.7-1.7-2.3-2-2.5-2-2.2-2.3-2.3-2.2-2-2.5-2-2.8zm129.8 310.5v.2l-1 41-.5 18-.5 6-.3 3.8-214 5.5-5-216.5-.7-37.3.2-2 1.5-6 2.8-8.7 1.7-5.5 2.3-5.8 2.5-6.2 3-6.8 3.5-6.7 4-7 4.5-6.8 5-7 5.7-6.7 3-3.5 3-3.3 5.3-5 5.2-4.2 5-4 4.8-3.5 11.5-8 5-3.5 4.2-3.8 2-1.7 1.5-2 1.5-1.8 1.3-2.2 1-2 .7-2.3.3-2.5.2-2.7m79 14.5 5 5.7 5 6.5 6.3 8 6.7 9.3 3.3 4.7 3 5 3 4.8 2.5 5 2.2 4.5 2 4.5 1.5 5.2 1.5 6 1.3 7.3 1.2 8.2 1 9.3 1 9.7.8 10.8.7 11.2 1.3 24.5 1 26.5.5 28 .5 28.8"/><path d="m72.5 547.8 45.7 124.2 174.8 18 33 3.5v-7.5l-.3-39.2v-6.8l-25.5-6.7-8-2-121.7-31.8-36.5-187.7m193.7 235 5 1.5 5.3 1.2 6.5 1.5 3.5.5 3.5.3 3.7.2h3.5l3.3-.2 3.2-.5 3-.8 2.5-1.5 3.8-2.2 3.5-2.5 3.2-2.5 2.8-2.5 5-4.8 3.7-4.2 3.3-4 2.2-3.3 2-2.7 1.3-1.8.7-.5.8-.2h1l.7.2 1 .8.8.7 1 1 .7 1.3.5 1.5.5 1.5.5 2 .3 2v2.2l-.3 2.3-.5 2.7-1 2.5-1 2.8-1 2.2-2 4.3-1.7 3.5-.5 1.5-.3 1.2.3 1.3.5 1 1 .7 1.5 1 2.2.5 2.8.8 3.5.5 4.2.5 7.5 1 6 .7 4.3 1 3.2 1 1.3.5 1 .8.7.7.8 1 .5 1 .2 1 .3 1.3v4.2l-.8 3.8-.7 2.5-1 2.2-1.5 2.5-1.8 2.3-2 2-2.5 2-2.5 1.7-3 1.5-3 1.5-3.5 1.3-3.5 1-3.7 1-3.8.5-4 .2-4 .3-4.2-.3-4.5-.5-5.3-.5-11-2-11.5-2.2-11.5-2.5-19-4.8-7.7-2m229.7-224h-233.7v-338.5h405.7v338.5h-5"/><path d="m775.7 89.8-46.5 38.2-4.2 3.5-166.5 46.5v328.5l171.2-43 3.5-1 2.8-.5"/><path d="m318.7 122 3.3-1.5 61.2-33.7h392.5v308.5l-42.5 67.2-2.2 3.8m-139.8-177.8v82.3m-266.2-79h233.5"/></g></svg>