<svg height="850.394" viewBox="0 0 850.394 850.394" width="850.394" xmlns="http://www.w3.org/2000/svg"><path d="m757.8 521.16-29.12 130.19h-304.86l-304.11.05-29.12-130.19v-.01l64.54-.01 268.69-.03h281.31z" fill="#787878"/><g fill="#c8c8c8"><path d="m423.82 207.77v-.04h215.8c3.39 0 6.66.45 9.78 1.29l-10.49 118.64h-416.33l-10.6-119.89z"/><path d="m211.98 207.77 10.6 119.89h-2.68l-64.77 193.53-64.54.01c-10.73 0-22.62-5.5-19.42-19.431l103.34-274.58c6.76-10.73 19.41-19.42 34.26-19.42h3.21z"/><path d="m638.91 327.66h1.46l64.76 193.5h-281.31l-268.69.03 64.77-193.53h211.52z"/><path d="m777.22 501.73c3.2 13.93-8.689 19.43-19.42 19.43h-52.67l-64.76-193.5h-1.46l10.49-118.64c10.529 2.79 19.26 9.86 24.479 18.13z"/></g><g fill="none" stroke="#231f20" stroke-width="21"><path d="m423.82 207.73h215.8c3.39 0 6.66.45 9.78 1.29 10.529 2.79 19.26 9.86 24.479 18.13l103.341 274.58c3.2 13.93-8.689 19.43-19.42 19.43h-333.98l-268.69.03-64.54.01c-10.73 0-22.62-5.5-19.42-19.431l103.34-274.58c6.76-10.73 19.41-19.42 34.26-19.42h215.8"/><path d="m757.8 521.16-29.12 130.19h-304.86l-304.11.05-29.12-130.19m614.54-.05-64.76-193.5h-420.47l-64.77 193.53"/><path d="m211.89 206.71.09 1.06 10.6 119.89.01.1m427.01-121.05-.2 2.31-10.49 118.64-.01.1"/></g><path d="m0 0h850.394v850.394h-850.394z" fill="none"/></svg>