<svg height="850.394" viewBox="0 0 850.394 850.394" width="850.394" xmlns="http://www.w3.org/2000/svg"><path d="m119.18 510.5c7.8 4.35 15.39 10.42 22.11 18.02 19.75 22.37 25.37 50.561 14.61 67.24l-.01.021a28.82 28.82 0 0 1 -5.1 5.93c-17.11 15.12-49.1 6.86-71.46-18.44-22.35-25.31-26.61-58.069-9.5-73.189 1.07-.94 2.19-1.79 3.37-2.561 12.02-7.791 29.46-6.251 45.98 2.979zm12.47 78.15c11.26-9.96 8.81-31.12-5.48-47.29-14.28-16.16-34.99-21.2-46.25-11.261-11.26 9.96-8.81 31.12 5.47 47.28 14.29 16.181 35 21.221 46.26 11.271z" fill="#f6cc4b"/><g fill="#c8c8c8"><path d="m492.55 127.66-.02.04-373.35 382.8c-16.52-9.23-33.96-10.77-45.98-2.98l371.02-371.01s11.17-12.05 22.78-12.05c0 0 11.92-1.73 25.55 3.2z"/><path d="m520.71 151.55s18.15 26.86 2.18 55.89c0 0-37.02 42.34-53.47 58.79s-145.65 154.37-145.65 154.37l-167.87 175.16c10.76-16.68 5.14-44.87-14.61-67.24-6.72-7.6-14.31-13.67-22.11-18.02l373.35-382.8.02-.04c9.75 3.53 20.39 10.46 28.16 23.89z"/><path d="m788.79 301.8-29.03 39.54-.01-.01-583.61 270.51-25.35-10.13c1.98-1.75 3.68-3.74 5.1-5.93l.01-.021 167.87-175.159s129.2-137.92 145.65-154.37 53.47-58.79 53.47-58.79z"/><path d="m759.76 341.34-29.73 40.48h-.01l-522.93 242.39-30.95-12.37 583.61-270.51z"/><path d="m730.02 381.82-256.25 348.95-266.68-106.56z"/></g><path d="m126.17 541.36c14.29 16.17 16.74 37.33 5.48 47.29-11.26 9.949-31.97 4.909-46.26-11.271-14.28-16.16-16.73-37.32-5.47-47.28 11.26-9.939 31.97-4.899 46.25 11.261z" fill="#231f20"/><g fill="none" stroke="#231f20"><path d="m155.89 595.78a28.82 28.82 0 0 1 -5.1 5.93c-17.11 15.12-49.1 6.86-71.46-18.44-22.35-25.31-26.61-58.069-9.5-73.189 1.07-.94 2.19-1.79 3.37-2.561 12.02-7.789 29.46-6.25 45.98 2.98 7.8 4.35 15.39 10.42 22.11 18.02 19.75 22.37 25.37 50.561 14.61 67.24" stroke-width="21"/><path d="m73.2 507.52 371.02-371.01s11.17-12.05 22.78-12.05c0 0 11.92-1.73 25.55 3.2 9.75 3.53 20.391 10.46 28.16 23.89 0 0 18.15 26.86 2.18 55.89 0 0-37.02 42.34-53.47 58.79s-145.65 154.37-145.65 154.37l-167.87 175.16-.01.021" stroke-width="21"/><path d="m119.16 510.53.02-.03 373.35-382.8" stroke-width="14"/><path d="m730.02 381.82-256.25 348.95-266.68-106.56-30.95-12.37-25.35-10.13m372.1-394.27 265.9 94.36-29.03 39.54-29.73 40.48" stroke-width="21"/><path d="m176.14 611.84 583.61-270.51m-552.67 282.88h.01l522.93-242.39h.01" stroke-width="14"/></g><path d="m0 0h850.394v850.394h-850.394z" fill="none"/></svg>