<svg height="850.394" viewBox="0 0 850.394 850.394" width="850.394" xmlns="http://www.w3.org/2000/svg"><g fill="#fbee34"><path d="m445.98 593.56-24.971 30.19-8.08 3.54-1.32-3.021s1.16-9.199 2.66-20.97l20.72-29.52zm4.56-185.84 13.21 25.839-27.71-11.72-4.92-3.29c6.16-5.47 12.45-10.85 18.75-16.21l2.51 4.31zm105.11-87.29 8.47 10.51c-9.57 1.56-21.26 3.53-31.13 5.2h-.01l-12.41-4.08c2.25-3.21 4.35-6.51 6.31-9.89 1.271-2.2 2.47-4.43 3.61-6.7zm-265.21-175.42c-3.57-.08-7.2-.14-10.86-.21-1.66-.03-3.32-.05-4.99-.08l-2.4-.03c-3.49-.06-7-.1-10.52-.14l-9.04-28.4 5.13-12.48c5.98 7.62 13.34 16.92 19.55 24.76 7.37 9.29 13.13 16.53 13.13 16.53zm142.48 11.96c-5.979-1.24-12.03-2.29-18.09-3.21l.2-1.3-4.8-29.71 6.91-11.6c4.79 8.43 10.7 18.72 15.69 27.39 5.92 10.27 10.55 18.28 10.55 18.28l-.58 2.37c-3.27-.8-6.56-1.54-9.88-2.22zm38.9 53.66 22.09 2.32-26.15 33.54-2.09-1.63-3.49-23.69zm-14.03-19.33 2.67 18.15-13.01-1.36zm-23.65-19.87 4.23 35.71-16.63-1.74zm-1.03-8.76 1.029 8.76-12.399 33.97-21.1-2.21 12.47-27.25c9.38-7.24 16.72-12.88 16.72-12.88z"/><path d="m413.11 175.94-12.47 27.25-11.49-1.2-.99-6.73c7.65-5.96 17.03-13.22 24.95-19.32z"/><path d="m388.16 195.26.99 6.73-8.47-.89c2.16-1.7 4.71-3.69 7.48-5.84z"/><path d="m386.19 181.9 1.97 13.36c-2.77 2.15-5.32 4.14-7.48 5.84l-5.93-.62zm-23.64-19.87 4.45 37.64-17.53-1.83zm-34.34 33.59-7.98 17.44-6.73-18.98zm-31.45-3.29-3.64 9.75-3.39-10.49zm-44.26-4.63-6.02 25.2-9.01-25.37c.37-.43.74-.85 1.12-1.29zm-15.54-1.63.51 1.46c-6.74 7.77-11.84 13.72-12.11 14.28l-2.17-.81 5.88-15.75z"/><path d="m223.19 201-2.13 5.71-7.46-23.08 15.47 1.62zm248.63 9.63 22.09 2.32-26.15 33.54-2.09-1.63-3.49-23.69zm-14.03-19.33 2.67 18.15-13.01-1.36zm-23.65-19.87 4.23 35.71-16.63-1.74zm-1.03-8.76 1.029 8.76-12.399 33.97-21.1-2.21 12.47-27.25c9.38-7.24 16.72-12.88 16.72-12.88z"/><path d="m413.11 175.94-12.47 27.25-11.49-1.2-.99-6.73c7.65-5.96 17.03-13.22 24.95-19.32z"/><path d="m388.16 195.26.99 6.73-8.47-.89c2.16-1.7 4.71-3.69 7.48-5.84z"/><path d="m386.19 181.9 1.97 13.36c-2.77 2.15-5.32 4.14-7.48 5.84l-5.93-.62zm-23.64-19.87 4.45 37.64-17.53-1.83zm-34.34 33.59-7.98 17.44-6.73-18.98zm-31.45-3.29-3.64 9.75-3.39-10.49zm-44.26-4.63-6.02 25.2-9.01-25.37c.37-.43.74-.85 1.12-1.29zm-15.54-1.63.51 1.46c-6.74 7.77-11.84 13.72-12.11 14.28l-2.17-.81 5.88-15.75z"/><path d="m223.19 201-2.13 5.71-7.46-23.08 15.47 1.62zm260.65 521.88-14.14 16.45.97-23.83zm-52.07-351.58 7.14 12.25-13.75-4.94z"/><path d="m425.16 378.61-19.09 21.11c-2.98-10.98-6.24-22.9-8.52-31.04zm-11.56 48.96-.89 3.17-8.5-2.391-13.14-12.06 12.57-13.9 4.45 4.78c3.1 11.451 5.51 20.401 5.51 20.401zm-22.53-11.28 13.14 12.06-19.16-5.4z"/><path d="m385.05 422.95-12.47 13.78-12.15-16.78-3.58-4.94zm-10.87 228.05 4.89 7.03-30.59 24.37-3.18-3.99 12.31-24.2c4.93-.97 10.68-2.08 16.57-3.21zm-1.6-214.27 4.23 5.85-7.77-1.94z"/><path d="m365.56 638.58 8.62 12.42c-5.89 1.13-11.64 2.24-16.57 3.21zm-.22-193.45-6.26 10.69-21.47-23.07 26.12 6.55c.52 1.87 1.06 3.83 1.61 5.83zm-24.9 77.3-19.66-1.12 4.63-7.909c5.11 3.069 10.31 6.189 15.03 9.029zm-15.78 57.3 8.63 12.42c-12 .489-24.85 1.04-32.97 1.46zm159.18 143.15-14.14 16.45.97-23.83zm-52.07-351.58 7.14 12.25-13.75-4.94z"/><path d="m425.16 378.61-19.09 21.11c-2.98-10.98-6.24-22.9-8.52-31.04zm-11.56 48.96-.89 3.17-8.5-2.391-13.14-12.06 12.57-13.9 4.45 4.78c3.1 11.451 5.51 20.401 5.51 20.401zm-22.53-11.28 13.14 12.06-19.16-5.4z"/><path d="m385.05 422.95-12.47 13.78-12.15-16.78-3.58-4.94zm-10.87 228.05 4.89 7.03-30.59 24.37-3.18-3.99 12.31-24.2c4.93-.97 10.68-2.08 16.57-3.21zm-1.6-214.27 4.23 5.85-7.77-1.94z"/><path d="m365.56 638.58 8.62 12.42c-5.89 1.13-11.64 2.24-16.57 3.21zm-.22-193.45-6.26 10.69-21.47-23.07 26.12 6.55c.52 1.87 1.06 3.83 1.61 5.83zm-24.9 77.3-19.66-1.12 4.63-7.909c5.11 3.069 10.31 6.189 15.03 9.029zm-15.78 57.3 8.63 12.42c-12 .489-24.85 1.04-32.97 1.46zm84.56-52.33-11.48-20.68 8.31-11.85-.08-.19 8.97-3.99 18.06 35.33-11.17 20.99-1.38.6z"/><path d="m409.22 527.4-11.48-20.68 8.31-11.85-.08-.19 8.97-3.99 18.06 35.33-11.17 20.99-1.38.6zm158.33 179.95c6.05.881 12.13 1.61 18.181 2.21l-17 23.99-2.54 3.59-6.32-27.33.58-3.55c2.359.39 4.719.75 7.099 1.09z"/><path d="m541.25 720.15-1.73-8.591-.84-4.18.84-5.2c6.83 1.57 13.841 2.92 20.931 4.08l-.58 3.55 6.32 27.33-16.191 22.861-.82-.46z"/><path d="m567.55 707.35c6.05.881 12.13 1.61 18.181 2.21l-17 23.99-2.54 3.59-6.32-27.33.58-3.55c2.359.39 4.719.75 7.099 1.09z"/><path d="m541.25 720.15-1.73-8.591-.84-4.18.84-5.2c6.83 1.57 13.841 2.92 20.931 4.08l-.58 3.55 6.32 27.33-16.191 22.861-.82-.46zm53.36-61.92-19.99 34.31 2.32-38.67z"/><path d="m576.94 653.87-2.32 38.67-4.43 7.61-2.851-1.66s-4.49-8.11-10.22-18.5l-.601-31.16z"/><path d="m574.62 692.54 19.99-34.31 6.189 1.529 3.391 23.74-18.46 26.06a400.71 400.71 0 0 1 -18.181-2.21l.49-3.52 2.15-3.68zm-50.84-51.79-18.56 31.86 2.15-35.91z"/><path d="m507.37 636.7-2.15 35.91-4.45 7.63-2.84-1.66s-4.489-8.1-10.21-18.48l-.55-28.38zm-20.44-17.45.24 12.47-17.36-4.29c-.189-.35-.38-.699-.569-1.04z"/><path d="m469.24 626.39-1.39.56-3.85-.95-4.89-8.81 6.99-13.14 19.61-8.57.79 1.81.43 21.96zm-14.64-17.32-33.59 14.68 24.97-30.19zm140.01 49.16-19.99 34.31 2.32-38.67z"/><path d="m576.94 653.87-2.32 38.67-4.43 7.61-2.851-1.66s-4.49-8.11-10.22-18.5l-.601-31.16z"/><path d="m574.62 692.54 19.99-34.31 6.189 1.529 3.391 23.74-18.46 26.06a400.71 400.71 0 0 1 -18.181-2.21l.49-3.52 2.15-3.68zm-50.84-51.79-18.56 31.86 2.15-35.91z"/><path d="m507.37 636.7-2.15 35.91-4.45 7.63-2.84-1.66s-4.489-8.1-10.21-18.48l-.55-28.38zm-20.44-17.45.24 12.47-17.36-4.29c-.189-.35-.38-.699-.569-1.04z"/><path d="m469.24 626.39-1.39.56-3.85-.95-4.89-8.81 6.99-13.14 19.61-8.57.79 1.81.43 21.96zm-14.64-17.32-33.59 14.68 24.97-30.19zm-45.38-81.67 11.23 20.21-43.74 19.12zm9.4-74.55 15.939 29.12-12.43 5.53-11.25-4.76-13.21-25.84-3.37-1.131c2.01-2.449 4.09-4.859 6.21-7.239 2.41-2.69 4.88-5.34 7.4-7.95l4.43.8 2.04 3.73z"/><path d="m390.14 460.99c1.36-1.76 2.74-3.5 4.16-5.221l3.37 1.131 13.21 25.84-27.72-11.73-.16-.1c2.26-3.38 4.65-6.69 7.14-9.92z"/><path d="m378.98 477.2c1.29-2.13 2.63-4.23 4.02-6.29l.16.1 27.72 11.73 4.06 7.95-8.97 3.989-11.97 5.321 3.74 6.72-27.77 39.59c1.36-10.649 3-23.42 4.33-33.369.91-6.811 1.67-12.311 2.09-14.9l-.63-.16-5.21-4.78c.2-.449.41-.899.62-1.35 1.39-2.99 2.88-5.91 4.46-8.77 1.08-1.951 2.19-3.881 3.35-5.781z"/><path d="m369.97 546.31 27.77-39.59 11.48 20.681-32.51 39.33-11.97 5.229-.47.15c-1.39-4.271-2.51-8.63-3.32-13.08l.83-.471-.18-.319z"/><path d="m409.22 527.4 11.23 20.21-43.74 19.12zm9.4-74.55 15.939 29.12-12.43 5.53-11.25-4.76-13.21-25.84-3.37-1.131c2.01-2.449 4.09-4.859 6.21-7.239 2.41-2.69 4.88-5.34 7.4-7.95l4.43.8 2.04 3.73z"/><path d="m390.14 460.99c1.36-1.76 2.74-3.5 4.16-5.221l3.37 1.131 13.21 25.84-27.72-11.73-.16-.1c2.26-3.38 4.65-6.69 7.14-9.92z"/><path d="m378.98 477.2c1.29-2.13 2.63-4.23 4.02-6.29l.16.1 27.72 11.73 4.06 7.95-8.97 3.989-11.97 5.321 3.74 6.72-27.77 39.59c1.36-10.649 3-23.42 4.33-33.369.91-6.811 1.67-12.311 2.09-14.9l-.63-.16-5.21-4.78c.2-.449.41-.899.62-1.35 1.39-2.99 2.88-5.91 4.46-8.77 1.08-1.951 2.19-3.881 3.35-5.781z"/><path d="m369.97 546.31 27.77-39.59 11.48 20.681-32.51 39.33-11.97 5.229-.47.15c-1.39-4.271-2.51-8.63-3.32-13.08l.83-.471-.18-.319zm135.25 126.3 18.561-31.86 8.02 1.98 3.021 21.09 7.12-11.46c4.64 8.5 10.34 18.87 15.18 27.63 5.729 10.39 10.22 18.5 10.22 18.5l2.851 1.66-2.15 3.68-.49 3.52c-2.38-.34-4.74-.699-7.1-1.09-7.09-1.16-14.101-2.51-20.931-4.08-10.619-2.43-20.819-5.359-30.25-8.87-.869-.319-1.739-.649-2.6-.979-4.13-1.61-8.32-3.311-12.55-5.12l4.51-3.3 2.14-3.67zm36.03 47.54 7.93 39.39-16.27-9.13zm-10.76-404.68c-1.141 2.27-2.34 4.5-3.61 6.7l-2.189-2.63-3.95-1.55 1.2-3.07s-1.511-9.14-3.471-20.84c-.819-4.94-1.729-10.33-2.63-15.69l2.16-2.39-5.83-25.82 2.87-17.12 19.59-16.74c1.311 2.14 2.5 4.36 3.561 6.66 1.39 2.98 2.56 6.12 3.52 9.42.42 1.47.8 2.98 1.13 4.52.3 1.33.561 2.7.78 4.1.55 3.42.899 7.02 1.02 10.82a129.76 129.76 0 0 1 -1.99 27.27 131.725 131.725 0 0 1 -4.92 19.08 132.695 132.695 0 0 1 -7.241 17.28z"/><path d="m541.25 720.15-8.34 30.26-17.44-9.78 5.16-14.229c8.771-7.971 15.64-14.19 15.64-14.19l3.25-.65z"/><path d="m520.63 726.4c-3.66 3.34-7.67 6.979-11.64 10.6l-17.26-9.69.17-13.8 17.369-20.2c9.431 3.511 19.631 6.44 30.25 8.87l-.84 5.2.84 4.18-3.25.65c.001 0-6.869 6.22-15.639 14.19zm7.05-519.6a71.383 71.383 0 0 1 6.95 9.52l-19.59 16.74 4.79-28.63 3.12-2.76c1.67 1.67 3.25 3.38 4.73 5.13z"/><path d="m477.23 204.72c-4.4 1.58-9.181 3.3-13.95 5.02l-2.82-.29-2.67-18.15 14.1-22.92c2.811 1.13 5.57 2.32 8.28 3.59 6.43 3.01 12.59 6.43 18.38 10.33 5.62 3.78 10.84 7.55 15.59 11.44 3.15 2.58 6.091 5.21 8.811 7.93l-3.12 2.76-4.79 28.63-5.65 4.82-5.391-23.88-6.62-.69 1.26-6.43 1.7-8.64-3.24-.64s-8.72 3.11-19.87 7.12zm44.71 110.2-1.2 3.07-8.2-3.21-14.73-16.47 12.971-14.33 7.689 10.1c1.96 11.7 3.47 20.84 3.47 20.84zm-1.31 411.48-5.16 14.229-6.48-3.629c3.97-3.62 7.98-7.26 11.64-10.6zm-4.79-448.01-5.06 5.59-3.5-4.6 4.31-25.7c1.14 6.43 2.69 15.51 4.25 24.71z"/><path d="m520.57 332.06c-.21.31-.431.62-.65.93-1.479 2.08-3.01 4.13-4.58 6.15-1.25 1.62-2.53 3.22-3.84 4.8l-4.58-5.36 1.29-3.59-24.35-8.75-4.44-7.6 11.25-12.43 21.87 8.57 8.2 3.21 3.95 1.55 2.189 2.63a136.278 136.278 0 0 1 -6.309 9.89z"/><path d="m497.81 298.31 14.73 16.47-21.87-8.57zm11.85 47.82c-2.68 3.18-5.47 6.29-8.351 9.35l-2.3-3.24-15.149-26 24.35 8.75-1.29 3.59 4.58 5.36c-.61.73-1.22 1.46-1.84 2.19zm-.27-108.25 2.78 12.3-.58 3.5-4.31 25.7-18.2-23.91.06-.29z"/><path d="m504 214 5.39 23.88-20.25 17.3 8.24-41.87zm3.28 65.38 3.5 4.6-12.97 14.33-15.25-17.06 1.76-1.58 4.76-24.2zm-19.56 380.72a9705.129 9705.129 0 0 0 10.21 18.48l2.84 1.66-2.14 3.67-4.51 3.3c-.63-.27-1.26-.55-1.89-.82a379.52 379.52 0 0 1 -19.971-9.359 350.74 350.74 0 0 1 -21.25-11.62c-4.46-2.63-8.859-5.38-13.18-8.24l12.27-23.06 17.75-7.16 1.96.479c4.961 9.15 12.071 22.09 17.911 32.67zm12.62-461.86-1.7 8.64-4.729 6.07-22.09-2.32 5.41-5.91c11.149-4.01 19.869-7.12 19.869-7.12zm-23.34 173.99s-1.51-9.14-3.47-20.84c-1.16-6.94-2.471-14.77-3.73-22.12l5.521-6.09 8.54 3.06 15.149 26 2.3 3.24c-1.18 1.26-2.38 2.52-3.6 3.76-4.49 4.63-9.18 9.14-13.979 13.58a313.21 313.21 0 0 1 -4.271 3.91l-3.66-1.43z"/><path d="m471.7 690.13.359-8.79.171-4.25.029-.06c6.67 3.37 13.36 6.489 19.971 9.359l-.33 27.12-8.061 9.37-13.17-7.38zm5.3-317.9-1.2 3.07-8.2-3.21-18.159-20.31 13.239-14.64 10.851 14.25c1.959 11.7 3.469 20.84 3.469 20.84z"/><path d="m479.46 376.73c-5.66 5.12-11.46 10.15-17.32 15.17l-23.229-8.35-7.141-12.25 8.86-9.78 26.97 10.57 8.2 3.21zm-7.4 304.61-.359 8.79-11.011 19.77-16.66-9.351 6.16-9.25c10.409-5.67 18.56-10.09 18.56-10.09zm-6.69-515.44c2.2.79 4.37 1.61 6.52 2.48l-14.1 22.92-4.23-28.72.141-.47c3.949 1.15 7.849 2.41 11.669 3.79z"/><path d="m460.69 709.9 11.01-19.77-1.03 25.37zm-9.68-44.49a350.74 350.74 0 0 0 21.25 11.62l-.029.06-.171 4.25-3.31-.13s-8.15 4.42-18.56 10.09c-3.641 1.97-7.561 4.11-11.511 6.25l-15.93-8.939 2.39-7.15 25.68-15.729zm-12.1-281.86 23.229 8.35c-4.069 3.48-8.18 6.96-12.27 10.44z"/><path d="m450.19 691.3-6.16 9.25-5.351-3c3.951-2.14 7.871-4.28 11.511-6.25z"/><path d="m438.68 697.55c-8.43 4.62-16.99 9.311-23.2 12.771l7.27-21.71zm6.79-537.7c1.55.4 3.101.81 4.641 1.24 1.199.33 2.399.67 3.59 1.02l-.141.47 4.23 28.72-10.34 16.79-9.08-.95-4.23-35.71-1.029-8.76-.5-4.21.31-1.49c3.32.68 6.61 1.42 9.88 2.22.889.21 1.779.44 2.669.66zm-7.64 497.32c4.32 2.86 8.72 5.61 13.18 8.24l-.189.32-25.68 15.729 8.97-26.78c1.229.841 2.469 1.671 3.719 2.491z"/><path d="m413.11 175.94c-7.92 6.1-17.3 13.36-24.95 19.32l-1.97-13.36 15.77-25.62.3-4.25c4.19.51 8.38 1.08 12.57 1.73 6.06.92 12.11 1.97 18.09 3.21l-.31 1.49.5 4.21-3.28.39s-7.34 5.64-16.72 12.88zm10.08 469.03-.9 1.2c-1.76-1.34-3.5-2.7-5.22-4.09a225.748 225.748 0 0 1 -12.83-11.1l4.79-1.99 3.9-1.7 8.08-3.54 33.59-14.68 4.511 8.12-9.011 16.92z"/><path d="m417.07 642.08c1.72 1.39 3.46 2.75 5.22 4.09 3.84 2.93 7.79 5.771 11.82 8.51l-8.97 26.78-7.24 4.44-14.01-7.86 9.17-25.03 3.03-8.24zm14.05-223.53c-4.92 4.36-9.75 8.79-14.45 13.311l-3.96-1.12.89-3.17s-2.41-8.95-5.51-20.4c-.65-2.39-1.33-4.9-2.02-7.45l19.09-21.11 13.75 4.94 10.96 18.79c-6.3 5.359-12.59 10.739-18.75 16.209z"/><path d="m416.09 644.77-3.03 8.24-20.17 18.86-6.89-3.87-6.93-9.97 13.17-10.48c11.65-2.21 20.75-3.92 20.75-3.92zm.58-212.91a326.04 326.04 0 0 0 -8.76 8.72 291.24 291.24 0 0 0 -7.4 7.95l-23.7-5.95-4.23-5.85 12.47-13.78 19.16 5.399 8.5 2.391z"/><path d="m404.24 630.98c4.1 3.829 8.39 7.539 12.83 11.1l-.98 2.689-3.1-1.14s-9.1 1.71-20.75 3.92c-5.67 1.08-11.94 2.271-18.06 3.45l-8.62-12.42 4.28-8.42 23.64-10.05c3.4 3.731 7 7.351 10.76 10.871zm-1.98-478.95-.3 4.25-15.77 25.62-4.23-28.71.29-3.29c4.21.38 8.46.81 12.73 1.28 2.42.26 4.85.55 7.28.85zm-25.45 290.55 23.7 5.95c-2.12 2.38-4.2 4.79-6.21 7.239-1.42 1.721-2.8 3.461-4.16 5.221zm0 0 13.33 18.41c-2.49 3.229-4.88 6.54-7.14 9.92-1.39 2.06-2.73 4.16-4.02 6.29l-6.92-7.431c-2.1-7.729-4.51-16.609-6.72-24.64l.66-1.129 3.04-3.36z"/><path d="m370.71 587.68c3.21 6.391 7.02 12.561 11.34 18.49l-12.21 23.99-7.82 3.33-10.12-14.57 10.17-18.66 4.21-7.729 2.03-3.721zm1.35-117.91c1.38 5.091 2.62 9.681 3.57 13.211a140.832 140.832 0 0 0 -4.46 8.77l-3.02-.85-19.25-17.66 10.18-17.42z"/><path d="m372.06 469.77-12.98-13.949 6.26-10.69c2.21 8.029 4.62 16.909 6.72 24.639zm-29.77 122.01c-2.88.12-5.91.239-9 .37l-8.63-12.42 17.69-10.091 22.46 4.091c1.64 4.76 3.62 9.42 5.9 13.949l-2.4 1.13-2.03 3.721-2.9-1.58s-9.25.36-21.09.83zm25.86-100.88 2.4 2.199c-2.54 5.57-4.74 11.37-6.56 17.41-.04.15-.09.29-.13.44l-23.1-5.8-5.82-8.04 7.81-13.36z"/><path d="m382.05 606.17c-4.32-5.93-8.13-12.1-11.34-18.49a112.665 112.665 0 0 1 -5.9-13.949l5.33.96v-.021l6.57-7.939 43.74-19.12.54.97-2.04 3.83-13.14 24.67 12.51-5.05c-1.27 9.6-2.78 21.35-4.05 31.27-1.5 11.771-2.66 20.97-2.66 20.97l1.32 3.021-3.9 1.7-4.79 1.99a193.96 193.96 0 0 1 -10.76-10.87 162.548 162.548 0 0 1 -11.43-13.942zm-33.15-132.93 19.25 17.66-25.4-7.15zm12.18-325.07c4.22.32 8.51.65 12.86 1.01 2.75.22 5.52.46 8.31.72l-.29 3.29 4.23 28.71-11.44 18.58-7.75-.81-4.45-37.64-1.04-8.75-.5-4.22zm5.2 444.36-4.21 7.729-15.64 10.79-10.74-15.45 6.6-3.819c11.84-.471 21.09-.83 21.09-.83z"/><path d="m361.51 153.28 1.04 8.75-13.08 35.81-21.26-2.22 13.31-29.08c9.38-7.24 16.72-12.87 16.72-12.87zm.51 480.21-23.51 10 13.39-24.57zm-2.69-93.26c-.07 6.43.49 12.699 1.62 18.8l-18.6 10.609-28.28-5.14-1.89-2.73 40.12-21.38zm4.53-29.28c-1.9 6.39-3.17 12.649-3.87 18.78l-1.57-.19-4.6-6.35-13.06-18.04z"/><path d="m359.63 533.42c-.09 1.05-.15 2.11-.19 3.16l-7.14 3.81-43.23.95 11.71-20.03 19.66 1.12c10.15 6.11 18.07 10.9 18.07 10.9zm-18.87-28.27 13.06 18.04-13.38-.761c-4.72-2.84-9.92-5.96-15.03-9.029l6.17-10.561zm11.54 35.24-40.12 21.38-8.18-11.77 5.07-8.66zm-9.95 29.25-17.69 10.09-10.59-15.23zm-37.33-399.47 9.16-24.55c.47.02.95.03 1.42.04 5.51.19 10.79.39 15.78.62 6.85.31 13.14.67 18.7 1.08 3.6.27 7.27.53 11 .81l-.07.89.5 4.22-3.27.39s-7.34 5.63-16.72 12.87c-9.64 7.43-21.44 16.56-29.64 22.98zm-11.1-25.09c.74.02 1.48.03 2.21.05l8.89 25.04-8.26 22.16-7.03-.74-11.74-36.35 1.59-10.18v-.26c3.66.07 7.29.13 10.86.21 1.17.02 2.33.05 3.48.07zm-19.33-.36 3.4 10.52-5.42 34.56-20.07-2.1 5.71-23.96c7.82-8.92 13.93-15.87 13.93-15.87l.05-3.18z"/><path d="m261.67 144.55c3.52.04 7.03.08 10.52.14l-.05 3.18s-6.11 6.95-13.93 15.87c-6.21 7.1-13.49 15.44-19.62 22.5l-1.63-.17-4-11.26 10.52-28.2.02-2.24c6.05.05 12.12.11 18.17.18z"/><path d="m258.21 163.74-5.71 23.96-13.91-1.46c6.13-7.06 13.41-15.4 19.62-22.5zm-58.07-19.56c6.5.01 13.24.03 20.13.05.99.01 1.99.01 3 .01l-.02 3.21 9.71 27.36-3.89 10.44-15.47-1.62-7.67-23.75-4.02-12.43-1.95-.11zm305.08 528.43 18.561-31.86 8.02 1.98 3.021 21.09 7.12-11.46c4.64 8.5 10.34 18.87 15.18 27.63 5.729 10.39 10.22 18.5 10.22 18.5l2.851 1.66-2.15 3.68-.49 3.52c-2.38-.34-4.74-.699-7.1-1.09-7.09-1.16-14.101-2.51-20.931-4.08-10.619-2.43-20.819-5.359-30.25-8.87-.869-.319-1.739-.649-2.6-.979-4.13-1.61-8.32-3.311-12.55-5.12l4.51-3.3 2.14-3.67zm36.03 47.54 7.93 39.39-16.27-9.13zm-10.76-404.68c-1.141 2.27-2.34 4.5-3.61 6.7l-2.189-2.63-3.95-1.55 1.2-3.07s-1.511-9.14-3.471-20.84c-.819-4.94-1.729-10.33-2.63-15.69l2.16-2.39-5.83-25.82 2.87-17.12 19.59-16.74c1.311 2.14 2.5 4.36 3.561 6.66 1.39 2.98 2.56 6.12 3.52 9.42.42 1.47.8 2.98 1.13 4.52.3 1.33.561 2.7.78 4.1.55 3.42.899 7.02 1.02 10.82a129.76 129.76 0 0 1 -1.99 27.27 131.725 131.725 0 0 1 -4.92 19.08 132.695 132.695 0 0 1 -7.241 17.28z"/><path d="m541.25 720.15-8.34 30.26-17.44-9.78 5.16-14.229c8.771-7.971 15.64-14.19 15.64-14.19l3.25-.65z"/><path d="m520.63 726.4c-3.66 3.34-7.67 6.979-11.64 10.6l-17.26-9.69.17-13.8 17.369-20.2c9.431 3.511 19.631 6.44 30.25 8.87l-.84 5.2.84 4.18-3.25.65c.001 0-6.869 6.22-15.639 14.19zm7.05-519.6a71.383 71.383 0 0 1 6.95 9.52l-19.59 16.74 4.79-28.63 3.12-2.76c1.67 1.67 3.25 3.38 4.73 5.13z"/><path d="m477.23 204.72c-4.4 1.58-9.181 3.3-13.95 5.02l-2.82-.29-2.67-18.15 14.1-22.92c2.811 1.13 5.57 2.32 8.28 3.59 6.43 3.01 12.59 6.43 18.38 10.33 5.62 3.78 10.84 7.55 15.59 11.44 3.15 2.58 6.091 5.21 8.811 7.93l-3.12 2.76-4.79 28.63-5.65 4.82-5.391-23.88-6.62-.69 1.26-6.43 1.7-8.64-3.24-.64s-8.72 3.11-19.87 7.12zm44.71 110.2-1.2 3.07-8.2-3.21-14.73-16.47 12.971-14.33 7.689 10.1c1.96 11.7 3.47 20.84 3.47 20.84zm-1.31 411.48-5.16 14.229-6.48-3.629c3.97-3.62 7.98-7.26 11.64-10.6zm-4.79-448.01-5.06 5.59-3.5-4.6 4.31-25.7c1.14 6.43 2.69 15.51 4.25 24.71z"/><path d="m520.57 332.06c-.21.31-.431.62-.65.93-1.479 2.08-3.01 4.13-4.58 6.15-1.25 1.62-2.53 3.22-3.84 4.8l-4.58-5.36 1.29-3.59-24.35-8.75-4.44-7.6 11.25-12.43 21.87 8.57 8.2 3.21 3.95 1.55 2.189 2.63a136.278 136.278 0 0 1 -6.309 9.89z"/><path d="m497.81 298.31 14.73 16.47-21.87-8.57zm11.85 47.82c-2.68 3.18-5.47 6.29-8.351 9.35l-2.3-3.24-15.149-26 24.35 8.75-1.29 3.59 4.58 5.36c-.61.73-1.22 1.46-1.84 2.19zm-.27-108.25 2.78 12.3-.58 3.5-4.31 25.7-18.2-23.91.06-.29z"/><path d="m504 214 5.39 23.88-20.25 17.3 8.24-41.87zm3.28 65.38 3.5 4.6-12.97 14.33-15.25-17.06 1.76-1.58 4.76-24.2zm-19.56 380.72a9705.129 9705.129 0 0 0 10.21 18.48l2.84 1.66-2.14 3.67-4.51 3.3c-.63-.27-1.26-.55-1.89-.82a379.52 379.52 0 0 1 -19.971-9.359 350.74 350.74 0 0 1 -21.25-11.62c-4.46-2.63-8.859-5.38-13.18-8.24l12.27-23.06 17.75-7.16 1.96.479c4.961 9.15 12.071 22.09 17.911 32.67zm12.62-461.86-1.7 8.64-4.729 6.07-22.09-2.32 5.41-5.91c11.149-4.01 19.869-7.12 19.869-7.12zm-23.34 173.99s-1.51-9.14-3.47-20.84c-1.16-6.94-2.471-14.77-3.73-22.12l5.521-6.09 8.54 3.06 15.149 26 2.3 3.24c-1.18 1.26-2.38 2.52-3.6 3.76-4.49 4.63-9.18 9.14-13.979 13.58a313.21 313.21 0 0 1 -4.271 3.91l-3.66-1.43z"/><path d="m471.7 690.13.359-8.79.171-4.25.029-.06c6.67 3.37 13.36 6.489 19.971 9.359l-.33 27.12-8.061 9.37-13.17-7.38zm5.3-317.9-1.2 3.07-8.2-3.21-18.159-20.31 13.239-14.64 10.851 14.25c1.959 11.7 3.469 20.84 3.469 20.84z"/><path d="m479.46 376.73c-5.66 5.12-11.46 10.15-17.32 15.17l-23.229-8.35-7.141-12.25 8.86-9.78 26.97 10.57 8.2 3.21zm-7.4 304.61-.359 8.79-11.011 19.77-16.66-9.351 6.16-9.25c10.409-5.67 18.56-10.09 18.56-10.09zm-6.69-515.44c2.2.79 4.37 1.61 6.52 2.48l-14.1 22.92-4.23-28.72.141-.47c3.949 1.15 7.849 2.41 11.669 3.79z"/><path d="m460.69 709.9 11.01-19.77-1.03 25.37zm-9.68-44.49a350.74 350.74 0 0 0 21.25 11.62l-.029.06-.171 4.25-3.31-.13s-8.15 4.42-18.56 10.09c-3.641 1.97-7.561 4.11-11.511 6.25l-15.93-8.939 2.39-7.15 25.68-15.729zm-12.1-281.86 23.229 8.35c-4.069 3.48-8.18 6.96-12.27 10.44z"/><path d="m450.19 691.3-6.16 9.25-5.351-3c3.951-2.14 7.871-4.28 11.511-6.25z"/><path d="m438.68 697.55c-8.43 4.62-16.99 9.311-23.2 12.771l7.27-21.71zm6.79-537.7c1.55.4 3.101.81 4.641 1.24 1.199.33 2.399.67 3.59 1.02l-.141.47 4.23 28.72-10.34 16.79-9.08-.95-4.23-35.71-1.029-8.76-.5-4.21.31-1.49c3.32.68 6.61 1.42 9.88 2.22.889.21 1.779.44 2.669.66zm-7.64 497.32c4.32 2.86 8.72 5.61 13.18 8.24l-.189.32-25.68 15.729 8.97-26.78c1.229.841 2.469 1.671 3.719 2.491z"/><path d="m413.11 175.94c-7.92 6.1-17.3 13.36-24.95 19.32l-1.97-13.36 15.77-25.62.3-4.25c4.19.51 8.38 1.08 12.57 1.73 6.06.92 12.11 1.97 18.09 3.21l-.31 1.49.5 4.21-3.28.39s-7.34 5.64-16.72 12.88zm10.08 469.03-.9 1.2c-1.76-1.34-3.5-2.7-5.22-4.09a225.748 225.748 0 0 1 -12.83-11.1l4.79-1.99 3.9-1.7 8.08-3.54 33.59-14.68 4.511 8.12-9.011 16.92z"/><path d="m417.07 642.08c1.72 1.39 3.46 2.75 5.22 4.09 3.84 2.93 7.79 5.771 11.82 8.51l-8.97 26.78-7.24 4.44-14.01-7.86 9.17-25.03 3.03-8.24zm14.05-223.53c-4.92 4.36-9.75 8.79-14.45 13.311l-3.96-1.12.89-3.17s-2.41-8.95-5.51-20.4c-.65-2.39-1.33-4.9-2.02-7.45l19.09-21.11 13.75 4.94 10.96 18.79c-6.3 5.359-12.59 10.739-18.75 16.209z"/><path d="m416.09 644.77-3.03 8.24-20.17 18.86-6.89-3.87-6.93-9.97 13.17-10.48c11.65-2.21 20.75-3.92 20.75-3.92zm.58-212.91a326.04 326.04 0 0 0 -8.76 8.72 291.24 291.24 0 0 0 -7.4 7.95l-23.7-5.95-4.23-5.85 12.47-13.78 19.16 5.399 8.5 2.391z"/><path d="m404.24 630.98c4.1 3.829 8.39 7.539 12.83 11.1l-.98 2.689-3.1-1.14s-9.1 1.71-20.75 3.92c-5.67 1.08-11.94 2.271-18.06 3.45l-8.62-12.42 4.28-8.42 23.64-10.05c3.4 3.731 7 7.351 10.76 10.871zm-1.98-478.95-.3 4.25-15.77 25.62-4.23-28.71.29-3.29c4.21.38 8.46.81 12.73 1.28 2.42.26 4.85.55 7.28.85zm-25.45 290.55 23.7 5.95c-2.12 2.38-4.2 4.79-6.21 7.239-1.42 1.721-2.8 3.461-4.16 5.221zm0 0 13.33 18.41c-2.49 3.229-4.88 6.54-7.14 9.92-1.39 2.06-2.73 4.16-4.02 6.29l-6.92-7.431c-2.1-7.729-4.51-16.609-6.72-24.64l.66-1.129 3.04-3.36z"/><path d="m370.71 587.68c3.21 6.391 7.02 12.561 11.34 18.49l-12.21 23.99-7.82 3.33-10.12-14.57 10.17-18.66 4.21-7.729 2.03-3.721zm1.35-117.91c1.38 5.091 2.62 9.681 3.57 13.211a140.832 140.832 0 0 0 -4.46 8.77l-3.02-.85-19.25-17.66 10.18-17.42z"/><path d="m372.06 469.77-12.98-13.949 6.26-10.69c2.21 8.029 4.62 16.909 6.72 24.639zm-29.77 122.01c-2.88.12-5.91.239-9 .37l-8.63-12.42 17.69-10.091 22.46 4.091c1.64 4.76 3.62 9.42 5.9 13.949l-2.4 1.13-2.03 3.721-2.9-1.58s-9.25.36-21.09.83zm25.86-100.88 2.4 2.199c-2.54 5.57-4.74 11.37-6.56 17.41-.04.15-.09.29-.13.44l-23.1-5.8-5.82-8.04 7.81-13.36z"/><path d="m382.05 606.17c-4.32-5.93-8.13-12.1-11.34-18.49a112.665 112.665 0 0 1 -5.9-13.949l5.33.96v-.021l6.57-7.939 43.74-19.12.54.97-2.04 3.83-13.14 24.67 12.51-5.05c-1.27 9.6-2.78 21.35-4.05 31.27-1.5 11.771-2.66 20.97-2.66 20.97l1.32 3.021-3.9 1.7-4.79 1.99a193.96 193.96 0 0 1 -10.76-10.87 162.548 162.548 0 0 1 -11.43-13.942zm-33.15-132.93 19.25 17.66-25.4-7.15zm12.18-325.07c4.22.32 8.51.65 12.86 1.01 2.75.22 5.52.46 8.31.72l-.29 3.29 4.23 28.71-11.44 18.58-7.75-.81-4.45-37.64-1.04-8.75-.5-4.22zm5.2 444.36-4.21 7.729-15.64 10.79-10.74-15.45 6.6-3.819c11.84-.471 21.09-.83 21.09-.83z"/><path d="m361.51 153.28 1.04 8.75-13.08 35.81-21.26-2.22 13.31-29.08c9.38-7.24 16.72-12.87 16.72-12.87zm.51 480.21-23.51 10 13.39-24.57zm-2.69-93.26c-.07 6.43.49 12.699 1.62 18.8l-18.6 10.609-28.28-5.14-1.89-2.73 40.12-21.38zm4.53-29.28c-1.9 6.39-3.17 12.649-3.87 18.78l-1.57-.19-4.6-6.35-13.06-18.04z"/><path d="m359.63 533.42c-.09 1.05-.15 2.11-.19 3.16l-7.14 3.81-43.23.95 11.71-20.03 19.66 1.12c10.15 6.11 18.07 10.9 18.07 10.9zm-18.87-28.27 13.06 18.04-13.38-.761c-4.72-2.84-9.92-5.96-15.03-9.029l6.17-10.561zm11.54 35.24-40.12 21.38-8.18-11.77 5.07-8.66zm-9.95 29.25-17.69 10.09-10.59-15.23zm-37.33-399.47 9.16-24.55c.47.02.95.03 1.42.04 5.51.19 10.79.39 15.78.62 6.85.31 13.14.67 18.7 1.08 3.6.27 7.27.53 11 .81l-.07.89.5 4.22-3.27.39s-7.34 5.63-16.72 12.87c-9.64 7.43-21.44 16.56-29.64 22.98zm-11.1-25.09c.74.02 1.48.03 2.21.05l8.89 25.04-8.26 22.16-7.03-.74-11.74-36.35 1.59-10.18v-.26c3.66.07 7.29.13 10.86.21 1.17.02 2.33.05 3.48.07zm-19.33-.36 3.4 10.52-5.42 34.56-20.07-2.1 5.71-23.96c7.82-8.92 13.93-15.87 13.93-15.87l.05-3.18z"/><path d="m261.67 144.55c3.52.04 7.03.08 10.52.14l-.05 3.18s-6.11 6.95-13.93 15.87c-6.21 7.1-13.49 15.44-19.62 22.5l-1.63-.17-4-11.26 10.52-28.2.02-2.24c6.05.05 12.12.11 18.17.18z"/><path d="m258.21 163.74-5.71 23.96-13.91-1.46c6.13-7.06 13.41-15.4 19.62-22.5zm-58.07-19.56c6.5.01 13.24.03 20.13.05.99.01 1.99.01 3 .01l-.02 3.21 9.71 27.36-3.89 10.44-15.47-1.62-7.67-23.75-4.02-12.43-1.95-.11zm405.26 99.68 4.6 6.14-4.26 22.01c-9.55 1.56-21.21 3.52-31.04 5.18l-13.87-4.55-.41-.32 17.15-22.31zm-2.46 42.6-3.99 20.63-41.86-17.51-5.71-6.7 2.5-2.14s9.13-1.56 20.82-3.55z"/><path d="m557.09 289.58 41.86 17.51-.95 4.91-11.25 12.31zm34.02-64.77-40.51 10.16 29.18-25.26z"/><path d="m557.09 289.58 29.66 34.73-1.75 1.9-29.35-5.78-17.92-22.24c2.109-6.22 3.76-12.6 4.92-19.08l5.96.53 2.77 3.24z"/><path d="m555.65 320.43 29.35 5.78-2.02 2.22-.36-.33c-.61-.05-8.36 1.17-18.5 2.84z"/><path d="m564.12 330.94c10.14-1.67 17.89-2.89 18.5-2.84l.36.33-11.11 12.14zm3.34-137.66 12.32 16.43-29.18 25.26-7.76 1.95c-.33-1.54-.71-3.05-1.13-4.52.89-3 3.04-10.14 5.62-18.69zm-7.04 79.04.41.32 13.87 4.55c-11.69 1.99-20.82 3.55-20.82 3.55l-2.5 2.14-2.77-3.24-5.96-.53c1.359-7.53 2.05-15.19 2.06-22.9l4.54.05 28.32-6.25z"/><path d="m564.12 330.94 7.75 9.63-5.86 6.41-33.02-10.84c9.87-1.67 21.56-3.64 31.13-5.2z"/><path d="m566.01 346.98-15.029 16.43-35.561-14.87-3.92-4.6c1.31-1.58 2.59-3.18 3.84-4.8 3.641-.62 10.11-1.73 17.641-3h.01zm-31.38-130.66c-2.03-3.34-4.35-6.5-6.95-9.52l15.67-20.38 13.17-2.91a7832.66 7832.66 0 0 0 -9.189 30.2l-9.14 9.27a64.497 64.497 0 0 0 -3.561-6.66zm-18.26-44.92 29.189-7.32 7.391 9.85-9.601 12.49-28.349 6.26-.86 1.06c-4.75-3.89-9.97-7.66-15.59-11.44-5.79-3.9-11.95-7.32-18.38-10.33l4.62-.88-4.81-29.7 21.159-35.48.861.09 17.43 23.25c-2.12 6.96-4.35 14.33-6.319 20.87-3.44 11.35-6.101 20.23-6.101 20.23l.8 3.2zm34.61 192.01-11.83 12.93-23.73-27.8zm-1.73-107.15-4.54-.05c0-1.46-.02-2.91-.07-4.37-.12-3.8-.47-7.4-1.02-10.82l6.979-6.05 40.511-10.16 2.88 3.85-16.42 21.35z"/><path d="m537.39 153.19 8.17 10.89-29.19 7.32zm5.96 33.23-15.67 20.38a83.708 83.708 0 0 0 -4.729-5.13c-2.72-2.72-5.66-5.35-8.811-7.93l.86-1.06zm-27.93 162.12 23.73 27.8-6.2 6.78-19.01-3.74-16.23-20.14c1.22-1.24 2.42-2.5 3.6-3.76 2.881-3.06 5.671-6.17 8.351-9.35z"/><path d="m525.59 137.45 11.8 15.74-21.02 18.21-8.561 2.15-.8-3.2s2.66-8.88 6.101-20.23z"/><path d="m525.59 137.45-12.479 12.67c1.97-6.54 4.199-13.91 6.319-20.87zm-4.72 258.87-9.51 10.41-20.11-11.59c9.35.36 20.32.79 29.62 1.18zm-23.16-37.08 16.23 20.14-29.53-5.82-.68-.74c4.8-4.44 9.49-8.95 13.98-13.58z"/><path d="m511.36 406.73-13.67 14.94-26.2-18-4.24-7.74 2.89-1.58s9.261.34 21.11.79zm-10.22-300.82-21.16 35.48-5.43-33.61 2.4-4.3zm-3.45 315.76-10.22 11.18-15.98-29.18zm-17.31 18.93-4.79 5.24c-1.78-.08-3.7-.17-5.7-.26l-6.14-12.021z"/><path d="m474.55 107.78 5.431 33.61-14.61 24.51c-3.82-1.38-7.72-2.64-11.67-3.79-1.19-.35-2.391-.69-3.59-1.02l.02-.06.43-10.29z"/><path d="m473.8 103.16.75 4.62-23.99 42.96 2.06-49.71zm-3.91 342.42 2.13 4.16-8.369 9.149-25.271-14.569c9.99.38 21.83.84 31.51 1.26zm1.6-41.91 15.979 29.18-7.09 7.75-16.63-7.04-13.21-25.839 1.84-1.07-2.51-4.31c4.09-3.48 8.2-6.96 12.27-10.44l3.62 1.3 1.49 2.73z"/><path d="m438.38 444.32c-11.85-.45-21.11-.79-21.11-.79l-2.89 1.58-2.04-3.73-4.43-.8c2.85-2.95 5.78-5.86 8.76-8.72 4.7-4.521 9.53-8.95 14.45-13.311l4.92 3.29 27.71 11.72 6.14 12.021c-9.68-.42-21.52-.88-31.51-1.26zm52.87-49.18c-11.85-.45-21.11-.79-21.11-.79l-2.89 1.58-1.49-2.73-3.62-1.3c5.86-5.02 11.66-10.05 17.32-15.17 1.44-1.29 2.86-2.6 4.271-3.91l.68.74 29.53 5.82 10.51 13.04-3.58 3.9c-9.301-.39-20.271-.82-29.621-1.18z"/><path d="m438.38 444.32 25.271 14.569-13.98 15.29-31.05-21.33-4.24-7.739 2.89-1.58c-.001 0 9.259.34 21.109.79zm-19.76 8.53 31.05 21.33-1.67 1.82-13.44 5.97zm31.94-302.11-5.09 9.11c-.89-.22-1.779-.45-2.67-.66l.58-2.37s-4.63-8.01-10.55-18.28l-1.5-39.65 21.29 2.14z"/><path d="m431.33 98.89 1.5 39.65c-4.99-8.67-10.9-18.96-15.69-27.39l7.7-12.92zm-14.19 12.26-6.91 11.6-4.27-26.42 3.03.31c1.46 2.71 4.47 8.06 8.15 14.51z"/><path d="m380.8 132.09 20.24-36.25 4.92.49 4.27 26.42-14.87 24.93-.38 3.5c-4.27-.47-8.52-.9-12.73-1.28-2.79-.26-5.56-.5-8.31-.72l.48-5.67 2.07-3.71z"/><path d="m401.04 95.84-20.24 36.25 1.58-38.13zm-18.66-1.88-1.58 38.13-4.31 7.71-2.87-1.61s-4.63-8.01-10.55-18.27l-1.06-28.01z"/><path d="m363.07 119.92c5.92 10.26 10.55 18.27 10.55 18.27l2.87 1.61-2.07 3.71-.48 5.67c-4.35-.36-8.64-.69-12.86-1.01-3.73-.28-7.4-.54-11-.81-5.56-.41-11.85-.77-18.7-1.08l-7-21.99 14.26-34.74 7.47.76c5 8.79 11.53 20.15 16.96 29.61zm-24.43-30.37-14.26 34.74-10.34-32.46 1.73-4.58zm-24.46 56.07c-5.4-.17-11-.33-16.76-.46l-.78-7.29 17.4-46.04 10.34 32.46-8.78 21.37c-.47-.01-.95-.02-1.42-.04zm-17.54-7.75-2.72 7.21c-1.15-.02-2.31-.05-3.48-.07v-.05s-5.76-7.24-13.13-16.53l-8.62-45.92 22.28 2.24zm-71.74-8.12 17.4-46.05 1.85 5.81 8.48 26.64-11.03 26.85-.01 1.36c-6.17-.05-12.29-.08-18.32-.12-1.01 0-2.01 0-3-.01l.01-2.27 1.5-3.98z"/><path d="m241.03 79.73 1.27 3.97-17.4 46.05-5.59-52.21zm-16.13 50.02-3.12 8.23-3.08-1.16s-5.77-7.25-13.13-16.54l-3.13-16.66 1.56-27.62 15.31 1.54z"/></g><g fill="none"><g stroke="#231f20" stroke-width="14"><path d="m208.26 134.62-2.69-14.34-3.13-16.66-8.47-45.07m32.02 81.44-1.09-10.24-5.59-52.21-1.33-12.48"/><path d="m220.28 141.96 1.5-3.98 3.12-8.23 17.4-46.05 1.4-3.7 7.42-19.65"/><path d="m261.76 144.83-.09-.28-9.04-28.4-8.48-26.64-1.85-5.81-1.27-3.97-7.56-23.76"/><path d="m241.6 143 11.03-26.85 5.13-12.48 8.78-21.37 1.45-3.54 5.21-12.69m-54.5 70.75s-5.77-7.25-13.13-16.54c-1.23-1.55-2.51-3.16-3.8-4.8-12.25-15.46-26.72-33.82-27.16-34.81"/><path d="m280 142.76-2.69-14.33-8.62-45.92-.7-3.75-2.27-12.07m32.02 81.44-.32-2.97-.78-7.29-5.67-53.12-1.24-11.55"/><path d="m292.02 150.1 1.9-5.02 2.72-7.21 17.4-46.04 1.73-4.58 7.09-18.76"/><path d="m333.51 152.97-2.13-6.69-7-21.99-10.34-32.46-1.56-4.91-7.26-22.8"/><path d="m313.35 151.14 2.25-5.48 8.78-21.37 14.26-34.74 2.97-7.23 3.33-8.11m-54.5 70.75s-5.76-7.24-13.13-16.53c-6.21-7.84-13.57-17.14-19.55-24.76-6.36-8.09-11.16-14.3-11.41-14.86m117.27 45.67-.55-14.56-1.06-28.01-1.31-34.78m19.67 85.27.43-10.31 1.58-38.13 1.11-26.85"/><path d="m374.42 143.51 2.07-3.71 4.31-7.71 20.24-36.25 3.75-6.71 12.17-21.79"/><path d="m415.03 152.46-4.8-29.71-4.27-26.42-1.17-7.2-4.64-28.72"/><path d="m395.36 147.68 14.87-24.93 6.91-11.6 7.7-12.92 6.08-10.2 7.03-11.78m-64.33 61.94s-4.63-8.01-10.55-18.27c-5.43-9.46-11.96-20.82-16.96-29.61-1.72-3.03-3.26-5.76-4.5-7.99-1.98-3.54-3.23-5.84-3.32-6.17"/><path d="m433.38 153.11-.55-14.57-1.5-39.65-.41-10.86-.46-12.27m19.67 85.27.43-10.29 2.06-49.71.63-15.29"/><path d="m444.19 162.14 1.28-2.29 5.09-9.11 23.99-42.96 2.4-4.3 9.78-17.51"/><path d="m484.79 171.09-4.81-29.7-5.43-33.61-.75-4.62-3.9-24.12"/><path d="m465.12 166.31.25-.41 14.61-24.51 21.16-35.48 6.58-11.03m-64.34 61.94s-4.63-8.01-10.55-18.28c-4.99-8.67-10.9-18.96-15.69-27.39-3.68-6.45-6.69-11.8-8.15-14.51-.56-1.04-.89-1.69-.94-1.86m94.81 65.74 10.25-10.4 12.48-12.67 31.6-32.06m-48.62 72.76 7.8-6.75 21.02-18.21 28.15-24.37"/><path d="m503.69 174.58 4.12-1.03 8.56-2.15 29.19-7.32 18.55-4.66 24.2-6.07"/><path d="m525 210.29 2.68-3.49 15.67-20.38 9.6-12.49 11.16-14.51 17.73-23.06"/><path d="m515 192.68 28.35-6.26 13.17-2.91 3.1-.68 23.2-5.12 13.39-2.96m-89.2-4.4s2.66-8.88 6.101-20.23c1.97-6.54 4.199-13.91 6.319-20.87 4.29-14.05 8.13-26.47 8.551-27.15"/><path d="m537.1 224.09 1.09-1.11 9.14-9.27 20.13-20.43 15.36-15.57 8.62-8.75m-48.63 72.76.81-.7 6.98-6.05 29.18-25.26 20-17.32"/><path d="m537.93 238.15 4.91-1.23 7.76-1.95 40.51-10.16 7.23-1.81 24.21-6.07"/><path d="m559.24 273.85 1.18-1.53 17.15-22.31 16.42-21.35 4.35-5.66 17.74-23.07"/><path d="m549.25 256.26 28.32-6.25 27.83-6.15 25.06-5.53m-89.21-4.41s.16-.54.46-1.52a8013.45 8013.45 0 0 1 15.86-52.31c2.5-8.1 4.359-13.95 4.649-14.41m-1.389 106.96 13.87 4.55 28.24 9.27 31.43 10.32m-86.78-11.18 9.5 3.98 41.86 17.51 18.15 7.59"/><path d="m548.61 279.64 2.77 3.24 5.71 6.7 29.66 34.73 2.3 2.7 16.21 18.98"/><path d="m526.11 314.61 4.38.86 25.16 4.96 29.35 5.78 4.05.8 28.55 5.62"/><path d="m537.43 297.82.3.37 17.92 22.24 8.47 10.51 7.75 9.63 9.14 11.33 8.6 10.68m-35.73-81.84s9.13-1.56 20.82-3.55c9.83-1.66 21.49-3.62 31.04-5.18 10.18-1.68 17.97-2.91 18.59-2.85"/><path d="m532.99 336.14 33.02 10.84 15 4.92 11.66 3.83m-73.54-24.14 1.44.47 12.41 4.08m-27.1 8.41 3.78 1.58 5.76 2.41 35.56 14.87 24.42 10.22"/><path d="m506.92 338.58 4.58 5.36 3.92 4.6 23.73 27.8 8.22 9.62 16.19 18.97"/><path d="m484.41 373.56 29.53 5.82 19.01 3.74 14.42 2.84 28.52 5.62"/><path d="m495.72 356.77 1.99 2.47 16.23 20.14 10.51 13.04 3.39 4.21 20.07 24.9m-35.73-81.85s1.15-.2 3.16-.54c3.641-.62 10.11-1.73 17.641-3h.01c9.87-1.67 21.56-3.64 31.13-5.2 10.14-1.67 17.89-2.89 18.5-2.84m-104.021 59.75 12.65 7.29 20.11 11.59 33.84 19.5.46.27m-82.67-28.67 8.5 5.84 26.2 18 27.4 18.83"/><path d="m465.21 392.2.55 1 1.49 2.73 4.24 7.74 15.98 29.18 7.66 13.99 11.98 21.88"/><path d="m436.04 421.84 27.71 11.72 16.63 7.04 14.75 6.24 26.78 11.33"/><path d="m450.54 407.72 13.21 25.84 6.14 12.02 2.13 4.16 10.12 19.8 6.25 12.23m-18.25-87.42s9.261.34 21.11.79c9.35.36 20.32.79 29.62 1.18 2.46.11 4.81.21 6.97.31 7.69.34 13.141.63 13.63.78"/><path d="m425.73 437.03 12.65 7.29 25.27 14.57 18.49 10.65 10.65 6.14m-82.67-28.67 8.5 5.84 31.05 21.33 22.55 15.49"/><path d="m412.34 441.38 2.04 3.73 4.24 7.74 15.94 29.12 7.68 14.04 11.99 21.9"/><path d="m383.16 471.01 27.72 11.73 11.25 4.76 20.11 8.51 26.8 11.34"/><path d="m397.67 456.9 13.21 25.84 4.06 7.95 18.06 35.33 2.52 4.93m-18.25-87.42s9.26.34 21.11.79c9.99.38 21.83.84 31.51 1.26 2 .09 3.92.18 5.7.26 7.36.33 12.54.61 13.01.75m-127 111.65 8.37-11.93 27.77-39.59 8.31-11.85m-35.91 79.8 6.57-7.94 32.51-39.33 8.94-10.8"/><path d="m364.74 571.96 11.97-5.23 43.74-19.12 1.38-.6 22.84-9.99"/><path d="m391.67 603.65 14.14-26.57 13.14-24.67 2.04-3.83.84-1.57 11.17-20.99 2.49-4.68"/><path d="m378.89 587.95 26.92-10.87 12.51-5.05 12.82-5.17 12.14-4.9 12.73-5.14m-88.7 10.42s1.15-9.181 2.66-20.931c1.36-10.649 3-23.42 4.33-33.369.91-6.811 1.67-12.311 2.09-14.9.15-.89.25-1.43.31-1.57"/><path d="m405.88 615.26 8.39-11.96 20.72-29.52 8.29-11.82 7.06-10.06m-35.9 79.8 6.57-7.95 24.97-30.19 16.47-19.93"/><path d="m409.03 628.99 3.9-1.7 8.08-3.54 33.59-14.68 11.5-5.02 19.61-8.57 3.26-1.43"/><path d="m435.96 660.68 1.87-3.51 12.27-23.06 9.01-16.92 6.99-13.14 13.67-25.69"/><path d="m423.19 644.97 26.91-10.86 17.75-7.16 1.39-.56 17.69-7.14 13.38-5.4m-88.7 10.42s1.16-9.199 2.66-20.97c1.27-9.92 2.78-21.67 4.05-31.27 1.36-10.2 2.44-17.96 2.67-18.53"/><path d="m488 674.68-.28-14.58-.55-28.38-.24-12.47-.43-21.96m18.1 85.62.62-10.3 2.15-35.91 1.74-29"/><path d="m498.63 683.91 2.14-3.67 4.45-7.63 18.56-31.86 6.22-10.66 12.56-21.55"/><path d="m539.07 693.62-4.25-29.8-3.02-21.09-1.8-12.64-4.11-28.79"/><path d="m519.49 688.47 15.33-24.65 7.12-11.46 3.84-6.18 10.37-16.68 7.25-11.67m-65.47 60.75s-4.489-8.1-10.21-18.48c-5.84-10.58-12.95-23.52-17.91-32.67-.189-.35-.38-.699-.569-1.04-3.2-5.92-5.38-10.04-5.49-10.489"/><path d="m557.4 694.6-.28-14.61-.6-31.16-.37-19.33-.24-12.3m18.09 85.62.62-10.28 2.32-38.67 1.58-26.26"/><path d="m568.04 703.83 2.15-3.68 4.43-7.61 19.99-34.31 4.79-8.23 12.57-21.56"/><path d="m608.48 713.53-.33-2.3-3.93-27.5-.03-.23-3.39-23.74-1.4-9.76-4.11-28.79"/><path d="m588.9 708.38 15.32-24.65 1.42-2.28 11.05-17.77 16.12-25.94m-65.47 60.75s-4.49-8.11-10.22-18.5a6612.98 6612.98 0 0 1 -15.18-27.63c-1.66-3.04-3.171-5.83-4.46-8.23-2.561-4.74-4.23-7.92-4.33-8.32m-343.61-481.62-3.39 14.2-14.58 61.09m35.95-79.78-1.59 10.18-3.54 22.58-6.53 41.68"/><path d="m201.91 147.45 4.02 12.43 7.67 23.75 7.46 23.08 7.67 23.75"/><path d="m243.48 146.61-10.52 28.2-3.89 10.44-5.88 15.75-2.13 5.71-10.17 27.26"/><path d="m223.25 147.45 9.71 27.36 4 11.26.51 1.46 9.01 25.37 4.59 12.93m-50.99-73.32-.44.5c-1.53 1.74-6.91 7.86-13.49 15.38-13.59 15.52-32.31 36.98-32.85 38.05"/><path d="m261.6 149.56-3.39 14.18-5.71 23.96-6.02 25.2-2.85 11.95m35.95-79.79-1.59 10.18-5.42 34.56-4.65 29.71"/><path d="m273.97 142.81.62 1.91 3.4 10.52 11.74 36.35 3.39 10.49 7.67 23.75"/><path d="m315.54 141.97-1.36 3.65-9.16 24.55-8.26 22.16-3.64 9.75-10.17 27.26"/><path d="m295.31 142.81.82 2.32 8.89 25.04 6.86 19.35 1.62 4.56 6.73 18.98 2.89 8.13m-50.98-73.32s-6.11 6.95-13.93 15.87c-6.21 7.1-13.49 15.44-19.62 22.5-.38.44-.75.86-1.12 1.29-6.74 7.77-11.84 13.72-12.11 14.28"/><path d="m347.58 153.28-6.06 13.26-13.31 29.08-7.98 17.44-4.85 10.61m50.7-71.32-3.53 9.68-13.08 35.81-9.23 25.29"/><path d="m361.01 149.06.5 4.22 1.04 8.75 4.45 37.64 1.33 11.24 2.94 24.79"/><path d="m401.96 156.28-15.77 25.62-11.44 18.58-6.42 10.43-15.25 24.78"/><path d="m381.96 153.19 4.23 28.71 1.97 13.36.99 6.73 2.93 19.91 2 13.57m-35.84-81.8s-7.34 5.63-16.72 12.87c-9.64 7.43-21.44 16.56-29.64 22.98-1.85 1.44-3.51 2.75-4.93 3.87-2.96 2.35-4.84 3.88-5.04 4.14"/><path d="m419.17 162.68-6.06 13.26-12.47 27.25-8.56 18.71-5.11 11.17m50.71-71.33-3.54 9.69-12.4 33.97-9.9 27.13"/><path d="m432.61 158.46.5 4.21 1.03 8.76 4.23 35.71 1.32 11.18.24 1.99 2.64 22.3.29 2.48"/><path d="m473.56 165.67-1.67 2.71-14.1 22.92-10.34 16.79-5.87 9.54-1.65 2.68-15.25 24.77"/><path d="m453.56 162.58 4.23 28.72 2.67 18.15.18 1.24 1.54 10.48 3.49 23.69m-35.84-81.8s-7.34 5.64-16.72 12.88c-7.92 6.1-17.3 13.36-24.95 19.32-2.77 2.15-5.32 4.14-7.48 5.84-4.17 3.29-6.92 5.51-7.17 5.83"/><path d="m487.08 193.96-9.85 10.76-5.41 5.91-9.64 10.54-19.61 21.44-7.75 8.46m70.16-52.32-6.34 8.13-4.73 6.07-26.15 33.54-9.11 11.69"/><path d="m501.16 194.07-.82 4.17-1.7 8.64-1.26 6.43-8.24 41.87-.06.29-4.76 24.2"/><path d="m537.92 213.51-3.29 2.81-19.59 16.74-5.65 4.82-20.25 17.3-.17.14-16.78 14.34-5.18 4.42"/><path d="m519.83 204.43-4.79 28.63-2.87 17.12-.58 3.5-4.31 25.7-1.18 7.07m-9-88.85s-8.72 3.11-19.869 7.12c-4.4 1.58-9.181 3.3-13.95 5.02-.88.32-1.761.64-2.641.95-6.909 2.51-13.659 4.96-19.06 6.94-.65.24-1.28.47-1.89.69-5.551 2.06-9.301 3.49-9.66 3.73"/><path d="m527.31 305.7-8.84-11.62-7.69-10.1-3.5-4.6-18.2-23.91-.11-.15-8.54-11.22m38.98 78.36-6.87-7.68-14.73-16.47-15.25-17.06-10.37-11.59-3.02-3.38"/><path d="m524.69 319.54-3.95-1.55-8.2-3.21-21.87-8.57-23.97-9.39-23.24-9.11"/><path d="m499.01 352.24-15.15-26-4.44-7.6-10.98-18.84-1.74-2.98-14.65-25.14"/><path d="m511.18 336.06-2.97-1.07-24.35-8.75-8.54-3.06-6.99-2.52-25.03-8.99-10.39-3.73m89.03 6.98s-1.511-9.14-3.471-20.84c-.819-4.94-1.729-10.33-2.63-15.69-1.56-9.2-3.109-18.28-4.25-24.71-.93-5.25-1.59-8.75-1.76-9.12"/><path d="m482.37 363.01-8.84-11.62-10.85-14.25-19.38-25.47-7.81-10.26m38.98 78.36-6.87-7.68-18.16-20.31-25.21-28.19"/><path d="m479.75 376.85-.29-.12-3.66-1.43-8.2-3.21-26.97-10.57-18.87-7.39-23.24-9.11"/><path d="m454.07 409.55-1.69-2.9-2.51-4.31-10.96-18.79-7.14-12.25-10.01-17.17-14.65-25.14"/><path d="m466.24 393.37-.48-.17-3.62-1.3-23.23-8.35-13.75-4.94-27.61-9.93-9.59-3.44m89.04 6.99s-1.51-9.14-3.47-20.84c-1.16-6.94-2.471-14.77-3.73-22.12-.5-2.98-1-5.88-1.47-8.61-1.78-10.32-3.19-18.22-3.45-18.79m-109.88 221.39-1.18-.07-13.38-.76-19.66-1.12-43.06-2.46m84.88 21.31-3.27.07-7.03.16-43.23.95-21.81.48"/><path d="m363.81 534.25-4.37 2.33-7.14 3.81-40.12 21.38-3.32 1.78-22.03 11.74"/><path d="m371.98 575.03-1.84-.34-5.33-.96-22.46-4.09-28.28-5.14-5.21-.95-28.63-5.21"/><path d="m367.58 555.25-5.8 3.31-.83.47-18.6 10.61-17.69 10.09-24.34 13.88-4.99 2.85m63.18-63.13s-7.92-4.79-18.07-10.9c-4.72-2.84-9.92-5.96-15.03-9.029-14.04-8.41-27.39-16.341-28.24-16.591m57.74 87.66-12.62 7.31-6.6 3.82-47.76 27.67m82.62-28.86-8.48 5.85-15.64 10.79-37.91 26.16"/><path d="m368.31 588.81-2.03 3.72-4.21 7.73-10.17 18.66-13.39 24.57-11.95 21.91"/><path d="m397.55 618.38-4.07 1.73-23.64 10.05-7.82 3.33-23.51 10-26.78 11.38"/><path d="m383.01 604.28-.96 1.89-12.21 23.99-4.28 8.42-7.95 15.63-12.31 24.2m18.08-87.46s-9.25.359-21.09.83c-2.88.12-5.91.239-9 .37-12 .489-24.85 1.04-32.97 1.46-4.77.25-7.9.449-8.26.56m111.59 44.29-11.41 9.09-13.17 10.48-30.59 24.37-5.38 4.28m77.48-40.69-7.52 7.02-20.17 18.86-27.37 25.58"/><path d="m417.55 640.78-.48 1.3-.98 2.69-3.03 8.24-9.17 25.03-7.78 21.21-8.59 23.43"/><path d="m450.82 665.73-25.68 15.73-7.24 4.44-21.79 13.35-24.81 15.2"/><path d="m434.36 653.92-.25.76-8.97 26.78-2.39 7.15-7.27 21.71-7.52 22.47m5.03-89.16s-9.1 1.71-20.75 3.92c-5.67 1.08-11.94 2.271-18.06 3.45-5.89 1.13-11.64 2.24-16.57 3.21-8.26 1.62-14.21 2.85-14.7 3.08m115.37 21.85-8.09 12.16-6.16 9.25-28.65 43.03m61.33-62.44-5.01 8.99-11.01 19.77-20.66 37.07"/><path d="m472.23 677.09-.17 4.25-.36 8.79-1.03 25.37-.97 23.83-1.02 24.93"/><path d="m511.53 690.68-2.26 2.63-17.37 20.2-8.06 9.37-14.14 16.45-18.98 22.06"/><path d="m492.25 684.48-.02 1.91-.33 27.12-.17 13.8-.31 25.81-.18 14.51m-22.49-86.42s-8.15 4.42-18.56 10.09c-3.641 1.97-7.561 4.11-11.511 6.25-8.43 4.62-16.99 9.311-23.2 12.771-5.34 2.97-8.95 5.029-9.27 5.33m119.401-2.971-4.98 13.72-5.16 14.23-16.26 44.82m44.77-75.2-2.73 9.9-8.34 30.26-8.95 32.49"/><path d="m538.68 707.38.84 4.18 1.73 8.59 7.93 39.39 1.79 8.91 4.92 24.45"/><path d="m580.08 711.26-11.35 22.29-2.31 4.56-15.45 30.34-13.19 25.92"/><path d="m559.87 709.81 6.32 27.33.23.97 12.19 52.72m-42.34-78.62s-6.869 6.22-15.64 14.19c-3.66 3.34-7.67 6.979-11.64 10.6-6.46 5.89-12.83 11.73-17.57 16.12-4.479 4.149-7.49 7-7.729 7.37m-65.651-342.62-9.95-10.7-4.45-4.78-38.33-41.2m46.51 74.14-7.61-6.98-13.14-12.06-34.78-31.91"/><path d="m416.79 431.89-.12-.03-3.96-1.12-8.5-2.39-19.16-5.4-28.2-7.94-24.03-6.77"/><path d="m394.47 466.97-4.33-5.98-13.33-18.41-4.23-5.85-12.15-16.78-3.58-4.94-17.06-23.56"/><path d="m404.97 449.65-4.46-1.12-23.7-5.95-7.77-1.94-5.31-1.34-26.12-6.55-13.3-3.34m89.29-1.84s-2.41-8.95-5.51-20.4c-.65-2.39-1.33-4.9-2.02-7.45-2.98-10.98-6.24-22.9-8.52-31.04-1.61-5.71-2.73-9.56-2.95-9.93"/><path d="m381.98 480.43-3-3.23-6.92-7.43-12.98-13.95-21.47-23.07-8.36-8.99m46.51 74.12-5.21-4.78-2.4-2.2-19.25-17.66-28.66-26.3"/><path d="m380.74 494.44-9.57-2.69-3.02-.85-25.4-7.15-21.95-6.17-24.04-6.76"/><path d="m358.42 529.54-4.6-6.35-13.06-18.04-5.82-8.04-14.14-19.53-17.07-23.57"/><path d="m368.92 512.22-5.06-1.27-23.1-5.8-9.18-2.31-33.79-8.48-9.54-2.4m89.3-1.85s-.74-2.74-1.92-7.13c-.95-3.53-2.19-8.12-3.57-13.211-2.1-7.729-4.51-16.609-6.72-24.64-.55-2-1.09-3.96-1.61-5.83-2.73-9.91-4.87-17.45-5.18-17.99"/><path d="m145.73 144.21c12.77 0 32.18-.06 54.41-.03 6.5.01 13.24.03 20.13.05.99.01 1.99.01 3 .01 6.03.04 12.15.07 18.32.12.64 0 1.27 0 1.91.01 6.05.05 12.12.11 18.17.18 3.52.04 7.03.08 10.52.14l2.4.03c1.67.03 3.33.05 4.99.08 3.66.07 7.29.13 10.86.21 1.17.02 2.33.05 3.48.07.74.02 1.48.03 2.21.05l1.29.03c5.76.13 11.36.29 16.76.46.47.02.95.03 1.42.04 5.51.19 10.79.39 15.78.62 6.85.31 13.14.67 18.7 1.08 3.6.27 7.27.53 11 .81 4.22.32 8.51.65 12.86 1.01 2.75.22 5.52.46 8.31.72 4.21.38 8.46.81 12.73 1.28 2.42.26 4.85.55 7.28.85 4.19.51 8.38 1.08 12.57 1.73 6.06.92 12.11 1.97 18.09 3.21 3.32.68 6.61 1.42 9.88 2.22.891.21 1.78.44 2.67.66 1.55.4 3.101.81 4.641 1.24 1.199.33 2.399.67 3.59 1.02 3.95 1.15 7.85 2.41 11.67 3.79 2.2.79 4.37 1.61 6.52 2.48 2.811 1.13 5.57 2.32 8.28 3.59 6.43 3.01 12.59 6.43 18.38 10.33 5.62 3.78 10.84 7.55 15.59 11.44 3.15 2.58 6.091 5.21 8.811 7.93 1.67 1.67 3.25 3.38 4.729 5.13a71.383 71.383 0 0 1 6.95 9.52c1.311 2.14 2.5 4.36 3.561 6.66 1.39 2.98 2.56 6.12 3.52 9.42.42 1.47.8 2.98 1.13 4.52.3 1.33.561 2.7.78 4.1.55 3.42.899 7.02 1.02 10.82a129.76 129.76 0 0 1 -1.99 27.27 131.725 131.725 0 0 1 -4.92 19.08c-2 5.92-4.421 11.69-7.24 17.28-1.141 2.27-2.34 4.5-3.61 6.7-1.96 3.38-4.06 6.68-6.31 9.89-.21.31-.431.62-.65.93-1.479 2.08-3.01 4.13-4.58 6.15-1.25 1.62-2.53 3.22-3.84 4.8-.61.73-1.22 1.46-1.84 2.19-2.68 3.18-5.47 6.29-8.351 9.35-1.18 1.26-2.38 2.52-3.6 3.76-4.49 4.63-9.18 9.14-13.979 13.58a313.21 313.21 0 0 1 -4.271 3.91c-5.66 5.12-11.46 10.15-17.32 15.17-4.069 3.48-8.18 6.96-12.27 10.44-6.3 5.36-12.59 10.74-18.75 16.21-4.92 4.36-9.75 8.79-14.45 13.311a326.04 326.04 0 0 0 -8.76 8.72 291.24 291.24 0 0 0 -7.4 7.95c-2.12 2.38-4.2 4.79-6.21 7.239-1.42 1.721-2.8 3.461-4.16 5.221-2.49 3.229-4.88 6.54-7.14 9.92-1.39 2.06-2.73 4.16-4.02 6.29-1.16 1.899-2.27 3.83-3.35 5.78a140.832 140.832 0 0 0 -4.46 8.77c-.21.45-.42.9-.62 1.35-2.54 5.57-4.74 11.37-6.56 17.41-.04.15-.09.29-.13.44-1.9 6.39-3.17 12.649-3.87 18.78-.15 1.229-.27 2.46-.36 3.689-.09 1.05-.15 2.11-.19 3.16-.07 1.22-.1 2.439-.11 3.65-.07 6.43.49 12.699 1.62 18.8.81 4.45 1.93 8.81 3.32 13.08l.54 1.62c1.64 4.76 3.62 9.42 5.9 13.949 3.21 6.391 7.02 12.561 11.34 18.49 3.5 4.8 7.32 9.45 11.43 13.94 3.4 3.729 7 7.35 10.76 10.87 4.1 3.829 8.39 7.539 12.83 11.1 1.72 1.39 3.46 2.75 5.22 4.09 3.84 2.93 7.79 5.771 11.82 8.51 1.229.84 2.47 1.67 3.72 2.49 4.32 2.86 8.72 5.61 13.18 8.24a350.74 350.74 0 0 0 21.25 11.62c6.67 3.37 13.36 6.489 19.971 9.359.63.271 1.26.551 1.89.82 4.229 1.81 8.42 3.51 12.55 5.12.86.33 1.73.66 2.6.979 9.431 3.511 19.631 6.44 30.25 8.87 6.83 1.57 13.841 2.92 20.931 4.08 2.359.391 4.72.75 7.1 1.09 6.05.881 12.13 1.61 18.181 2.21 7.56.761 15.069 1.311 22.42 1.671 43.739 2.17 81.92-2.221 90.449-9.65"/></g><path d="m0 0h850.394v850.394h-850.394z"/></g></svg>