<svg height="850.394" viewBox="0 0 850.394 850.394" width="850.394" xmlns="http://www.w3.org/2000/svg"><path d="m785.93 399.27-5.65 125.34-602.34 175.46-.67-2.29v-121.22z" fill="#a3d9ff"/><path d="m177.27 697.78.67 2.29-6.32 1.84-103.88-217.95v-116.31l109.53 208.91z" fill="#0b00ea"/><path d="m630.82 338.27s-33.36-45.65-49.96-90.41c-.601-1.61-1.17-3.22-1.71-4.82l67.88-16.55 138.9 172.78-608.66 177.29-109.53-208.91 100.3-24.44c15.3 25.09 32.83 53.39 41.87 78.25h-.01c-4.69 7.48-6.45 14.64-4.84 21.22 1.35 5.48 4.96 10.24 10.54 14.25 30.3 21.801 118.71 21.74 217.99-2.609 117.57-28.841 205.87-80.801 197.23-116.051z" fill="#a3d9ff"/><path d="m579.15 243.04c.54 1.6 1.109 3.21 1.71 4.82 16.6 44.76 49.96 90.41 49.96 90.41 8.64 35.25-79.66 87.21-197.23 116.05-99.28 24.35-187.69 24.41-217.99 2.609 1.5-10.22-.91-22.37-5.69-35.47-9.04-24.86-26.57-53.16-41.87-78.25-6.93-11.35-13.4-22.04-18.43-31.46-22.02-41.22-58.59-62.67-34.45-62.67 39.52 0 161.48-23.71 212.3-35.01 50.81-11.29 241.65-100.5 241.65-86.95s-5.641 45.17 4.52 95.99c1.29 6.471 3.19 13.171 5.52 19.931z" fill="#fff"/><g fill="none"><g stroke="#000" stroke-width="20.326"><path d="m579.15 243.04 67.88-16.55 138.9 172.78-5.65 125.34-602.34 175.46-6.32 1.84-103.88-217.95v-116.31l100.3-24.44"/><path d="m67.74 367.65 109.53 208.91 608.66-177.29m-608.66 177.29v121.22"/><path d="m621.98 325.31c4.619 3.73 7.63 8.05 8.84 12.96 8.64 35.25-79.66 87.21-197.23 116.05-99.28 24.35-187.69 24.41-217.99 2.609-5.58-4.01-9.19-8.77-10.54-14.25-1.61-6.58.15-13.739 4.84-21.22"/><path d="m580.86 247.86c-.601-1.61-1.17-3.22-1.71-4.82-2.33-6.76-4.23-13.46-5.521-19.93-10.16-50.82-4.52-82.44-4.52-95.99s-190.84 75.66-241.65 86.95c-50.82 11.3-172.78 35.01-212.3 35.01-24.14 0 12.43 21.45 34.45 62.67 5.03 9.42 11.5 20.11 18.43 31.46 15.3 25.09 32.83 53.39 41.87 78.25 4.78 13.1 7.19 25.25 5.69 35.47m415.221-118.66s-33.36-45.65-49.96-90.41"/></g><path d="m0 0h850.394v850.394h-850.394z"/></g></svg>