<svg height="850.394" viewBox="0 0 850.394 850.394" width="850.394" xmlns="http://www.w3.org/2000/svg"><path d="m629.52 312.41c-34.35 11.73-87.949 24.79-108.71 29.7-25.579 3.33-40.85 17.87-56.17 48.51-13.75 27.48-37 101.47-37 101.47s1.051 4.74 3.051 12.48l-5.21 1.109c-12.13 4.021-27.97 7.511-49.63 9.4-74.15 6.439-117.31-30.12-117.31-30.12l-2.6.59c-4.71-20.78-12.96-41.17-22.19-56.3-21.57-35.36-79.7-62.92-79.7-62.92l-.49.29c-15.26-25.63-34.68-47.44-52.25-38.65 7.4-47.56 67.39-76.86 67.39-76.86 36.02-25.1 56.92-131.38 186.02-67.64 5.129 2.531 103.279-121.469 239.919-20.349 10.07 7.46 43.86-57.87 84.03-3.43l57.07 12.15s59.189 34.88 13.74 76.1c-24.601 22.31-45.021 35.02-65.45 44.33-17.31 7.9-34.64 13.36-54.51 20.14zm107.81-109.39c0-4.38-4.15-7.93-9.26-7.93-5.101 0-9.24 3.55-9.24 7.93s4.14 7.92 9.24 7.92c5.11 0 9.26-3.54 9.26-7.92zm-71.35 40.16c0-18.39-16.44-33.29-36.721-33.29-20.29 0-36.729 14.9-36.729 33.29s16.439 33.3 36.729 33.3c20.281 0 36.721-14.91 36.721-33.3zm-413.79 139.52c12.43-1.35 11.3-14.13-.19-11.8-9.48 1.92-8.91 14.86.19 11.8zm-19.91-9.12c13.88-1.51 12.61-15.78-.23-13.17-10.58 2.14-9.95 16.59.23 13.17zm-1.37 20.18c13.88-1.51 12.61-15.78-.22-13.17-10.59 2.14-9.96 16.6.22 13.17zm-31.03-55.45c12.42-1.35 11.29-14.13-.2-11.8-9.48 1.92-8.91 14.86.2 11.8zm-19.92-9.12c13.88-1.51 12.61-15.78-.22-13.18-10.59 2.15-9.96 16.6.22 13.18zm-1.37 20.18c13.88-1.51 12.62-15.78-.22-13.17-10.59 2.14-9.95 16.6.22 13.17zm542.89 72.79c.149-4.15 6.119-7.5 13.47-7.5 7.439 0 13.47 3.44 13.47 7.67 0 4.24-6.03 7.67-13.47 7.67-2.59 0-5.01-.42-7.061-1.14-3.85-1.341-6.42-3.76-6.42-6.53.001-.06.001-.11.011-.17zm-8.3 40.51c.271-2.439 2.551-4.58 5.91-5.87 2.15-.83 4.74-1.31 7.53-1.31 7.45 0 13.479 3.43 13.479 7.67 0 4.229-6.029 7.66-13.479 7.66-7.44 0-13.47-3.431-13.47-7.66 0-.16.01-.33.03-.49z" fill="#9c5c25"/><path d="m728.07 195.09c5.109 0 9.26 3.55 9.26 7.93s-4.15 7.92-9.26 7.92c-5.101 0-9.24-3.54-9.24-7.92s4.14-7.93 9.24-7.93z" fill="#f6cc4b"/><path d="m574.4 407.65c12.359-12 24.54-20.68 36.229-27.98l29.19 29.19 31.27.33 16.62 16.36 31.12 30.61.26.64c-3.359 1.29-5.64 3.431-5.91 5.87l-56.71-32.41-31.71 1.19 22.46 35.39c-1.1-.16-2.25-.25-3.43-.25-3.62 0-6.88.811-9.3 2.12-17.7-21.7-36.28-23.92-36.28-23.92l-82.61 38.74-1.119-2.38c9.18-12.62 35.47-48.15 54.789-68.331a212.842 212.842 0 0 1 5.131-5.169zm92.48 255.91c2.29-2.359 6.71-3.949 11.79-3.949 7.44 0 13.47 3.43 13.47 7.67 0 4.229-6.029 7.66-13.47 7.66-1.78 0-3.47-.2-5.02-.551-4.96-1.13-8.46-3.89-8.46-7.109 0-1.351.61-2.621 1.69-3.721z" fill="#9c5c25"/><path d="m520.81 342.11c7.721-1.01 16.381-1 26.271-.1 20.82 1.89 26.39 54.63 27.32 65.64-1.7 1.66-3.42 3.38-5.131 5.17-19.32 20.18-45.61 55.71-54.79 68.33-2.12 2.909-3.33 4.6-3.33 4.6s12.68 44.39 24.3 85.61c11.63 41.22 13.21 58.659 29.069 57.609 0 0 11.61-1.399 26.391-15.45 1.67 1.641 4.399 2.9 7.649 3.48l-.22 1.65-15.59 17.18s53.64 22.46 54.43 22.99c.771.51 27.391 4.399 29.7 4.739-1.08 1.101-1.689 2.37-1.689 3.721 0 3.22 3.5 5.979 8.46 7.109v.021l-82.181-4.76 17.181 38.319.27 1.28c-2.46.52-4.58 1.45-6.11 2.63l-49.92-52.79s-58.659-14.27-84.02-54.96c-18.83-30.21-32.42-77.29-38.18-99.56-2-7.74-3.051-12.48-3.051-12.48s23.25-73.99 37-101.47c15.321-30.638 30.591-45.178 56.171-48.508z" fill="#9c5c25"/><path d="m610.63 379.67c-11.689 7.3-23.87 15.98-36.229 27.98-.931-11.01-6.5-63.75-27.32-65.64-9.89-.9-18.55-.91-26.271.1 20.761-4.91 74.36-17.97 108.71-29.7 19.87-6.78 37.2-12.24 54.511-20.14-3.601 7.93-28.061 60.7-47.11 71.93-8.371 4.94-17.181 9.79-26.291 15.47z" fill="#f6cc4b"/><path d="m657.97 233.91c1.45 4.76-9.91 12.4-25.34 17.07-15.439 4.69-29.12 4.62-30.56-.12-1.45-4.76 10.42-14.1 25.859-18.78 15.441-4.68 28.611-2.93 30.041 1.83z" fill="#231f20"/><path d="m629.26 209.89c20.28 0 36.721 14.9 36.721 33.29s-16.44 33.3-36.721 33.3c-20.29 0-36.729-14.91-36.729-33.3-.001-18.39 16.439-33.29 36.729-33.29zm3.37 41.09c15.43-4.67 26.79-12.31 25.34-17.07-1.43-4.76-14.6-6.51-30.04-1.83-15.439 4.68-27.31 14.02-25.859 18.78 1.439 4.74 15.119 4.81 30.559.12z" fill="#fbed24"/><path d="m647.22 466.84c5.78.86 10.04 3.851 10.04 7.41 0 4.24-6.029 7.67-13.47 7.67-7.45 0-13.48-3.43-13.48-7.67 0-2.18 1.601-4.15 4.181-5.54 2.42-1.31 5.68-2.12 9.3-2.12 1.179 0 2.329.09 3.429.25zm-44.41 245.04c1.53-1.18 3.65-2.11 6.11-2.63 1.47-.32 3.07-.49 4.74-.49 7.45 0 13.479 3.431 13.479 7.66 0 4.24-6.029 7.67-13.479 7.67-7.44 0-13.47-3.43-13.47-7.67 0-1.7.97-3.27 2.62-4.54zm-11.9-98.36c-1.16-1.13-1.82-2.449-1.82-3.85 0-4.229 6.03-7.66 13.48-7.66 7.439 0 13.47 3.431 13.47 7.66 0 4.24-6.03 7.67-13.47 7.67-1.4 0-2.75-.12-4.011-.34-3.249-.58-5.979-1.84-7.649-3.48zm-437.35-246.9.49-.29s58.13 27.56 79.7 62.92c9.23 15.13 17.48 35.52 22.19 56.3 6.32 27.79 6.34 56.26-6 73.74-11.29 16-28.12 23.95-45.98 23.24-7.77-.3-15.74-2.23-23.52-5.86-8.52-3.96-16.82-9.93-24.43-17.99-30.56-32.36-58.13-115.06-69.51-147.42-1.3-3.7-2.46-7.48-3.44-11.28-7.63-29.41-5.1-60.33 18.25-72.01 17.57-8.79 36.99 13.02 52.25 38.65z" fill="#9c5c25"/><path d="m252 370.9c11.49-2.33 12.62 10.45.19 11.8-9.1 3.06-9.67-9.88-.19-11.8z" fill="#f6cc4b"/><path d="m226.59 606.21c7.62 0 13.8 3.521 13.8 7.86 0 4.33-6.18 7.84-13.8 7.84s-13.8-3.51-13.8-7.84c0-.46.07-.9.2-1.34l.62.25 2.57-4.07c2.53-1.65 6.26-2.7 10.41-2.7z" fill="#9c5c25"/><path d="m232.05 360.41c12.84-2.61 14.11 11.66.23 13.17-10.18 3.42-10.81-11.03-.23-13.17zm-1.36 20.18c12.83-2.61 14.1 11.66.22 13.17-10.18 3.43-10.81-11.03-.22-13.17z" fill="#f6cc4b"/><path d="m203.86 584.84 16.24 17.86-3.92 6.21c-1.62 1.06-2.75 2.37-3.19 3.82l-28.6-11.66-1.11.08c-.92-11.771-2-20.881-3.23-23.341l.39-1.14c7.78 3.63 15.75 5.561 23.52 5.86z" fill="#9c5c25"/><path d="m199.68 326.51c11.49-2.33 12.62 10.45.2 11.8-9.11 3.06-9.68-9.88-.2-11.8z" fill="#f6cc4b"/><path d="m177.08 679.8c7.62 0 13.8 3.51 13.8 7.851 0 4.34-6.18 7.85-13.8 7.85s-13.8-3.51-13.8-7.85c0-4.341 6.18-7.851 13.8-7.851zm9.74-2.43-14.07-1.62s-17.58-50.87-23-60.06c-5.41-9.2-26.51 7.569-26.51 7.569l-1.32-.83c2.87-4.58 6.4-10.29 10.52-17.02 11.9-19.49 4.87-30.84-23.81-80.63-26.85-46.61-25.81-116.12-25.57-124.8.98 3.8 2.14 7.58 3.44 11.28 11.38 32.36 38.95 115.061 69.51 147.42 7.61 8.061 15.91 14.03 24.43 17.99l-.39 1.14c1.23 2.46 2.31 11.57 3.23 23.341 2.29 29.65 3.54 76.22 3.54 76.22z" fill="#9c5c25"/><path d="m179.74 316.01c12.83-2.6 14.1 11.67.22 13.18-10.18 3.42-10.81-11.03-.22-13.18zm-1.37 20.19c12.84-2.61 14.1 11.66.22 13.17-10.17 3.43-10.81-11.03-.22-13.17z" fill="#f6cc4b"/><path d="m117.57 629.34c5.49 1.03 9.45 3.97 9.45 7.45 0 4.34-6.17 7.85-13.79 7.85-7.63 0-13.8-3.51-13.8-7.85s6.17-7.85 13.8-7.85c1.52 0 2.98.14 4.34.4z" fill="#9c5c25"/><g fill="none"><g stroke="#231f20"><path d="m512.2 344.12s3.18-.73 8.609-2.01c20.761-4.91 74.36-17.97 108.71-29.7 19.87-6.78 37.2-12.24 54.511-20.14 20.43-9.31 40.85-22.02 65.45-44.33 45.449-41.22-13.74-76.1-13.74-76.1l-57.07-12.15c-40.17-54.44-73.96 10.89-84.03 3.43-136.64-101.12-234.79 22.88-239.92 20.35-129.1-63.74-150 42.54-186.02 67.64 0 0-59.99 29.3-67.39 76.86" stroke-width="14"/><path d="m665.98 243.18c0 18.39-16.44 33.3-36.721 33.3-20.29 0-36.729-14.91-36.729-33.3s16.439-33.29 36.729-33.29c20.281 0 36.721 14.9 36.721 33.29z" stroke-width="14"/><path d="m657.97 233.91c1.45 4.76-9.91 12.4-25.34 17.07-15.439 4.69-29.12 4.62-30.56-.12-1.45-4.76 10.42-14.1 25.859-18.78 15.441-4.68 28.611-2.93 30.041 1.83z" stroke-width="14"/><path d="m737.33 203.02c0 4.38-4.15 7.92-9.26 7.92-5.101 0-9.24-3.54-9.24-7.92s4.14-7.93 9.24-7.93c5.11 0 9.26 3.55 9.26 7.93z" stroke-width="12.683"/><path d="m154.05 366.33s58.13 27.56 79.7 62.92c9.23 15.13 17.48 35.52 22.19 56.3 6.32 27.79 6.34 56.26-6 73.74-11.29 16-28.12 23.95-45.98 23.24-7.77-.3-15.74-2.23-23.52-5.86-8.52-3.96-16.82-9.93-24.43-17.99-30.56-32.36-58.13-115.06-69.51-147.42-1.3-3.7-2.46-7.48-3.44-11.28-7.63-29.41-5.1-60.33 18.25-72.01 17.57-8.79 36.99 13.02 52.25 38.65 7.66 12.84 14.26 26.65 19.06 38.06 14.39 34.16 29.37 98.28 29.37 98.28" stroke-width="14"/><path d="m608.92 709.25c1.47-.32 3.07-.49 4.74-.49 7.45 0 13.479 3.431 13.479 7.66 0 4.24-6.029 7.67-13.479 7.67-7.44 0-13.47-3.43-13.47-7.67 0-1.7.97-3.27 2.619-4.54 1.531-1.18 3.651-2.11 6.111-2.63zm-18.01-95.73c-1.16-1.13-1.82-2.449-1.82-3.85 0-4.229 6.03-7.66 13.48-7.66 7.439 0 13.47 3.431 13.47 7.66 0 4.24-6.03 7.67-13.47 7.67-1.4 0-2.75-.12-4.011-.34-3.249-.58-5.979-1.84-7.649-3.48zm56.31-146.68c5.78.86 10.04 3.851 10.04 7.41 0 4.24-6.029 7.67-13.47 7.67-7.45 0-13.48-3.43-13.48-7.67 0-2.18 1.601-4.15 4.181-5.54 2.42-1.31 5.68-2.12 9.3-2.12 1.179 0 2.329.09 3.429.25zm71.87-10.04c2.15-.83 4.74-1.31 7.53-1.31 7.45 0 13.479 3.43 13.479 7.67 0 4.229-6.029 7.66-13.479 7.66-7.44 0-13.47-3.431-13.47-7.66 0-.16.01-.33.029-.49.271-2.44 2.551-4.58 5.911-5.87zm2.39-34.64c.149-4.15 6.119-7.5 13.47-7.5 7.439 0 13.47 3.44 13.47 7.67 0 4.24-6.03 7.67-13.47 7.67-2.59 0-5.01-.42-7.061-1.14-3.85-1.341-6.42-3.76-6.42-6.53.001-.06.001-.11.011-.17zm-54.6 241.4c2.29-2.359 6.71-3.949 11.79-3.949 7.44 0 13.47 3.43 13.47 7.67 0 4.229-6.029 7.66-13.47 7.66-1.78 0-3.47-.2-5.02-.551-4.96-1.13-8.46-3.89-8.46-7.109 0-1.351.61-2.621 1.69-3.721z" stroke-width="12.683"/><path d="m83.09 399.08-.03.9c-.24 8.68-1.28 78.19 25.57 124.8 28.68 49.79 35.71 61.14 23.81 80.63-4.12 6.729-7.65 12.439-10.52 17.02-1.69 2.7-3.15 5.011-4.35 6.91-2.65 4.18-4.07 6.37-4.07 6.37m9.74-12.45s21.1-16.77 26.51-7.569c5.42 9.189 23 60.06 23 60.06l14.07 1.62s-1.25-46.57-3.54-76.22c-.92-11.771-2-20.881-3.23-23.341" stroke-width="14"/><path d="m127.02 636.79c0 4.34-6.17 7.85-13.79 7.85-7.63 0-13.8-3.51-13.8-7.85s6.17-7.85 13.8-7.85c1.52 0 2.98.14 4.34.399 5.49 1.031 9.45 3.971 9.45 7.451zm89.16-27.88c2.53-1.65 6.26-2.7 10.41-2.7 7.62 0 13.8 3.521 13.8 7.86 0 4.33-6.18 7.84-13.8 7.84s-13.8-3.51-13.8-7.84c0-.46.07-.9.2-1.34.44-1.45 1.57-2.76 3.19-3.82zm-25.3 78.74c0 4.34-6.18 7.85-13.8 7.85s-13.8-3.51-13.8-7.85c0-4.341 6.18-7.851 13.8-7.851s13.8 3.511 13.8 7.851z" stroke-width="12.683"/><g stroke-width="14"><path d="m184.39 601.07 28.6 11.66.62.25 2.57-4.07 3.92-6.21-16.24-17.86m54.68-99.88s43.16 36.56 117.31 30.12c21.66-1.89 37.5-5.38 49.63-9.4m149.08-96.03s-.05-.72-.159-2c-.931-11.01-6.5-63.75-27.32-65.64-9.89-.9-18.55-.91-26.271.1-25.579 3.33-40.85 17.87-56.17 48.51-13.75 27.48-37 101.47-37 101.47s1.051 4.74 3.051 12.48c5.76 22.27 19.35 69.35 38.18 99.56 25.36 40.69 84.02 54.96 84.02 54.96l49.92 52.79.551.58"/><path d="m684.48 291.27s-.15.35-.45 1c-3.601 7.93-28.061 60.7-47.11 71.93-8.37 4.94-17.18 9.79-26.29 15.47-11.689 7.3-23.87 15.98-36.229 27.98-1.7 1.66-3.42 3.38-5.131 5.17-19.32 20.18-45.61 55.71-54.79 68.33-2.12 2.909-3.33 4.6-3.33 4.6s12.68 44.39 24.3 85.61c11.63 41.22 13.21 58.659 29.069 57.609 0 0 11.61-1.399 26.391-15.45a91.528 91.528 0 0 0 4.92-5.029m12.82 99.48-17.18-38.32 82.18 4.76m-75.31-55.76-15.59 17.18s53.64 22.46 54.43 22.99c.771.51 27.391 4.399 29.7 4.739.11.011.16.021.16.021"/><path d="m610.49 379.53.14.14 29.19 29.19 31.27.33 5.2.06s31.71 11.35 45.19 12.91c1.22.14 2.279.2 3.159.17m-209.269 61.31.229-.109 82.61-38.74s18.58 2.22 36.28 23.92c1.12 1.37 2.24 2.82 3.35 4.35m10.311-4.751-.93-1.47-22.46-35.39 31.71-1.19 56.71 32.41 4.33 2.47"/><path d="m718.83 456.16-31.12-30.61-16.62-16.36-.75-.73m57.47 20.61s-39.27-4.62-39.27-4.37c0 0 .01 0 .03.01"/></g><path d="m195.78 386.28c12 10.8 29.46-14.36 19.52-19.4-8.2-4.14-20.43 3.59-23.21 10.97m38.82 15.91c13.88-1.51 12.61-15.78-.22-13.17-10.59 2.14-9.96 16.6.22 13.17zm21.28-11.06c12.43-1.35 11.3-14.13-.19-11.8-9.48 1.92-8.91 14.86.19 11.8zm-19.91-9.12c13.88-1.51 12.61-15.78-.23-13.17-10.58 2.14-9.95 16.59.23 13.17zm-88.82-31.69c12.01 10.8 29.46-14.37 19.52-19.4-8.19-4.14-20.43 3.58-23.21 10.97m38.82 15.91c13.88-1.51 12.62-15.78-.22-13.17-10.59 2.14-9.95 16.6.22 13.17zm21.29-11.06c12.42-1.35 11.29-14.13-.2-11.8-9.48 1.92-8.91 14.86.2 11.8zm-19.92-9.12c13.88-1.51 12.61-15.78-.22-13.18-10.59 2.15-9.96 16.6.22 13.18z" stroke-width="6.342"/></g><path d="m0 0h850.394v850.394h-850.394z"/><path d="m254 272c-18-26 22-68 66-38m114 28c-14-22 20-78 68-30m-180 112c-10-32 30-88 106-40m40-128c0-32 44-58 76-10" stroke="#231f20" stroke-width="14"/></g></svg>