<svg height="850.394" viewBox="0 0 850.394 850.394" width="850.394" xmlns="http://www.w3.org/2000/svg"><g fill="#ffffc2"><path d="m244.96 459.97v126.64l-37.96-2.64v-125.53zm508.08-143.93v8.2l-7.34-2.56-239.33-83.49-1.83.27-61.93 8.98-.15-1.05v-66.38h.81zm-6.56 231.92v33.59l-39.05 12.39v-37.56l35.77-8.42z"/><path d="m746.48 422.31v125.65h-3.28l-35.77 8.42v-126.06z"/><path d="m640.77 443.99-79.76 16.35-50.26 10.31-6.01-.24v-146.17l240.92 53.9.82.18v43.99l-39.05 8.01z"/><path d="m745.7 321.68-.04.1v56.36l-240.92-53.9v-84.41l-.2-1.37 1.83-.27zm-38.27 234.7v37.56l-66.66 21.16v-43.02z"/><path d="m707.43 430.32v126.06l-66.66 15.7v-128.09zm-66.66 141.76v43.02l-79.76 25.32v-49.56z"/><path d="m640.77 443.99v128.09l-79.76 18.78v-130.52zm-79.76 146.87v49.56l-54.64 17.34-2.01-.2.38-3.89v-49.56z"/><path d="m561.01 460.34v130.52l-56.27 13.25v-133.7l6.01.24zm-56.27 143.77v49.56l-.38 3.89-28.57-2.78v-52.17l27.31 1.89z"/><path d="m504.74 470.41v133.7l-1.64.39-27.31-1.89v-133.37z"/><path d="m475.79 469.24-68.84-2.76-65.56-2.64-8.74-.35v-117.95l-.39-3.8 172.48-17.5v146.17z"/><path d="m504.74 239.83v84.41l-172.48 17.5-214.25 21.74-.07-.73c-1.64-28.68-29.5-49.17-29.5-49.17v-14.75l34.07-4.94 320.101-46.45 61.93-8.98zm-28.95 362.78v52.17l-68.84-6.72v-50.23z"/><path d="m475.79 469.24v133.37l-68.84-4.78v-131.35zm-33.33-222.85.15 1.05-320.1 46.45-.47-3.25v-81.13l143.41-54.08 177.01-14.75v39.33zm-35.51 351.44v50.23l-65.56-6.4v-48.37z"/><path d="m406.95 466.48v131.35l-65.56-4.54v-129.45zm-65.56 126.81v48.37l-69.93-6.83v-45.81l61.19 4.01v-.35z"/></g><path d="m332.65 592.68v.35l-61.19-4.01v-.58z" fill="#231f20"/><path d="m332.65 463.49v129.19l-61.19-4.24v-127.41z" fill="#f6cc4b"/><path d="m271.46 461.03-26.5-1.06v-105.41l87.69-9.02v117.95z" fill="#f6cc4b"/><path d="m207 458.44-64.47-2.59-25.41-1.02v-91.26l.89-.09 214.25-21.74.39 3.8-87.69 9.02v105.41zm64.46 130.58v45.81l-64.46-6.29v-44.57l37.96 2.64v.68z" fill="#ffffc2"/><path d="m271.46 588.44v.58l-26.5-1.73v-.68z" fill="#231f20"/><path d="m271.46 461.03v127.41l-26.5-1.83v-126.64z" fill="#f6cc4b"/><path d="m207 583.97v44.57l-64.47-6.29v-42.75z" fill="#ffffc2"/><path d="m207 458.44v125.53l-64.47-4.47v-123.65zm-64.47 121.06v42.75l-47.53-4.64v-31.14l17.89-9.28.14.27z" fill="#ffffc2"/><path d="m142.53 455.85v123.65l-29.5-2.04-.14-.27 4.23-2.19v-120.17z" fill="#ffffc2"/><g fill="none" stroke="#231f20"><path d="m745.66 378.14.82.18v203.23l-39.05 12.39-66.66 21.16-79.76 25.32-54.64 17.34-2.01-.2-28.57-2.78-68.84-6.72-65.56-6.4-69.93-6.83-64.46-6.29-64.47-6.29-47.53-4.64v-31.14l17.89-9.28 4.23-2.19v-211.43l.89-.09 214.25-21.74 172.48-17.5zm-240.92-138.31v413.84" stroke-width="21"/><path d="m244.96 354.56v232.73l26.5 1.73 61.19 4.01v-247.49" stroke-width="19.667"/><path d="m122.04 290.64v-81.13l143.41-54.08 177.01-14.75v105.71" stroke-width="21"/><path d="m443.27 180.01 309.77 136.03v8.2l-7.34-2.56-239.33-83.49-1.83.27-61.93 8.98-320.1 46.45-34.07 4.94v14.75s27.86 20.49 29.5 49.17" stroke-width="21"/><path d="m745.66 321.78v57.36" stroke-width="19.667"/><path d="m113.03 577.46 29.5 2.04 64.47 4.47 37.96 2.64 26.5 1.83 61.19 4.24 8.74.61 65.56 4.54 68.84 4.78 27.31 1.89 1.64-.39 56.27-13.25 79.76-18.78 66.66-15.7 35.77-8.42" stroke-width="21"/><g stroke-linecap="round" stroke-linejoin="round" stroke-width="14"><path d="m75.88 411.65v244.75l66.52 7.69 63.99 7.39 64.49 7.46 69.88 8.07 65.81 7.61 69.18 7.99v.01l35 4.04 50.52-16.7 80.7-26.67v-.01l66.6-22.01 63.31-20.93.95-202.57.14-29.06"/><path d="m75.88 453.17 41.24 1.66 25.41 1.02 64.47 2.59 37.96 1.53 26.5 1.06 61.19 2.46 8.74.35 65.56 2.64 68.84 2.76 28.95 1.17 6.01.24 50.26-10.31 79.76-16.35 66.66-13.67 39.05-8.01 22.26-4.56m-626.21 4.83v240.38m64.47-237.11v240.38m199.95-234.92v260.05m68.84-255.67v266.6m164.98-289.55v246.93m-79.76-237.1v266.6m146.42-291.73v240.37m-435.97-210.86v246.94m69.93-242.57v250.21"/></g></g><path d="m0 0h850.394v850.394h-850.394z" fill="none"/></svg>