<svg height="850.394" viewBox="0 0 850.394 850.394" width="850.394" xmlns="http://www.w3.org/2000/svg"><path d="m240.6 429.79c27.97 0 50.63 22.65 50.63 50.62 0 27.96-22.66 50.609-50.63 50.609-27.95 0-50.61-22.649-50.61-50.609 0-27.97 22.66-50.62 50.61-50.62zm365.79 0c27.95 0 50.62 22.65 50.62 50.62 0 27.96-22.67 50.609-50.62 50.609-27.96 0-50.62-22.649-50.62-50.609 0-27.97 22.66-50.62 50.62-50.62z" fill="#fbed24"/><g fill="none"><g stroke="#231f20"><path d="m406.87 629.13h-330.75" stroke-width="21"/><path d="m291.23 480.41c0 27.96-22.66 50.609-50.63 50.609-27.95 0-50.61-22.649-50.61-50.609 0-27.97 22.66-50.62 50.61-50.62 27.97 0 50.63 22.65 50.63 50.62zm-51.02-59.84v-38.51m-30.72 46.01-21.27-32.11m-.78 55.76-34.89-16.3m119.47-7.97 21.27-32.1m.78 55.77 34.89-16.31m-58.21 98.36 21.28 32.11m.78-55.78 34.89 16.31m-119.47 7.98-21.27 32.09m-.78-55.76-34.89 16.3m28.98-45.41h-38.51m197.09 0h-38.51m-60.13 96.94v-38.5" stroke-width="14"/><path d="m772.65 629.13h-330.75" stroke-width="21"/><path d="m657.01 480.41c0 27.96-22.67 50.609-50.62 50.609-27.96 0-50.62-22.649-50.62-50.609 0-27.97 22.66-50.62 50.62-50.62 27.95 0 50.62 22.65 50.62 50.62zm-51.01-59.84v-38.51m-30.73 46.01-21.27-32.11m-.78 55.76-34.89-16.3m119.47-7.97 21.27-32.1m.78 55.77 34.89-16.31m-58.21 98.36 21.28 32.11m.78-55.78 34.89 16.31m-119.47 7.98-21.27 32.09m-.78-55.76-34.89 16.3m28.98-45.41h-38.51m197.09 0h-38.51m-60.12 96.94v-38.5" stroke-width="14"/><g stroke-width="21"><path d="m560 247.89-31.3 93.72-89.04-43.01"/><path d="m324.68 302.99c10.09-42.03 52.05-77.09 95.29-77.09 54.66 0 102.37 44.65 102.37 108.39"/></g></g><path d="m0 0h850.394v850.394h-850.394z"/></g></svg>