<svg height="850.394" viewBox="0 0 850.394 850.394" width="850.394" xmlns="http://www.w3.org/2000/svg"><g fill="#abda4d"><path d="m752.07 115.56c2.319.19 4.66.75 7 1.76 18.72 8.03 19.8 49.23 3.739 83.47-12.47 26.61-27.52 55.03-49.689 60.6l-2.16-.09c.17-.18.26-.27.26-.27l-66.96-16.74.311-1.23s62.069-53.51 58.319-85.07c0 0 1.74-3.35 4.811-8.18 8.109-12.78 25.509-35.87 44.369-34.25z"/><path d="m752.07 115.56c-18.86-1.62-36.261 21.47-44.37 34.25l-21.7-1.81-.54 1.33-51.81-21.13 1.819-4.46s27.021-36.11 45.221-32.9c17.73 3.13 68.82 23.69 71.38 24.72zm-66.61 33.77 8.57 3.5s-253.221 151.72-269.95 161.06c-16.74 9.35-9.47 20.31-1.11 35.28 8.36 14.99-16.6 27.19-16.6 27.19l-168.57 109.21-159.89-108.36s176.23-88 193.42-97.59c17.18-9.59 25.99-14.51 48.85-3.58s46.25-6.18 46.25-6.18l264.61-142.72 2.61 1.06zm-41.2 94.96 66.96 16.74s-.09.09-.26.27c-8.58 9.06-228.32 241.15-243.27 256.101-15.25 15.25-4.011 24.88 9.63 38.52 13.64 13.65-9.63 34.51-9.63 34.51l-148.14 170.619-206.27-68.22s163.74-149.29 179.39-164.94c15.65-15.649 23.67-23.67 51.76-18.859 28.09 4.819 48.16-20.86 48.16-20.86l251.21-244z"/></g><g fill="none"><g stroke="#231f20" stroke-width="21"><path d="m205.76 669.32 27.3-45.38" stroke-linecap="round" stroke-linejoin="round"/><path d="m710.96 261.3c.17-.18.26-.27.26-.27l-66.96-16.74-.46-.12-251.21 244s-20.07 25.68-48.16 20.86c-28.09-4.811-36.11 3.21-51.76 18.859-15.65 15.65-179.39 164.94-179.39 164.94l206.27 68.22 148.14-170.619s23.27-20.859 9.63-34.51c-13.641-13.64-24.88-23.27-9.63-38.52 14.95-14.95 234.69-247.04 243.27-256.1z"/><path d="m302.2 596.78 27.31-45.38m37.03 62.96 43.06-30.84m-117.46 109.51 43.07-30.84" stroke-linecap="round" stroke-linejoin="round"/><path d="m633.65 128.2-2.61-1.06-264.61 142.72s-23.39 17.11-46.25 6.18-31.67-6.01-48.85 3.58c-17.19 9.59-193.42 97.59-193.42 97.59l159.89 108.36 168.57-109.21s24.96-12.2 16.6-27.19c-8.36-14.97-15.63-25.93 1.11-35.28 16.729-9.34 269.95-161.06 269.95-161.06l-8.57-3.5z"/><path d="m177.84 385.58 34.35-32.19m50.59-12.54 34.36-32.19m16.41 62.83 44.31-15.94m-127.02 65.2 44.32-15.94" stroke-linecap="round" stroke-linejoin="round"/><path d="m644.57 243.06s62.069-53.51 58.319-85.07c0 0 1.74-3.35 4.811-8.18 8.109-12.78 25.51-35.87 44.37-34.25 2.319.19 4.66.75 7 1.76 18.72 8.03 19.8 49.23 3.739 83.47-12.47 26.61-27.52 55.03-49.689 60.6"/><path d="m635.47 123.74s27.021-36.11 45.221-32.9c17.729 3.13 68.819 23.69 71.38 24.72.069.03.1.04.1.04"/></g><path d="m0 0h850.394v850.394h-850.394z"/></g></svg>