<svg height="850.394" viewBox="0 0 850.394 850.394" width="850.394" xmlns="http://www.w3.org/2000/svg"><path d="m671.87 412.75s118.2 39.79 114.689 66.7c-3.52 26.91-54.31 80.06-95.979 121.71-50.32 50.34-99.48 74.91-182.561 80.77-47.06 3.301-81.27 5.261-81.27 5.261l-.98-.11s-35.04-2.43-82.11-5.74c-83.09-5.85-132.24-30.43-182.57-80.77-41.65-41.65-92.45-94.79-95.97-121.7-3.51-26.92 114.7-66.71 114.7-66.71s88.94-36.28 131.07-32.77c42.14 3.51 73.73 12.88 87.78 18.73 12.96 5.39 25.98 4.69 27.91 4.55 4.27.16 16.46.19 26.439-3.97 14.04-5.85 45.641-15.21 87.78-18.72 42.122-3.521 131.072 32.769 131.072 32.769z" fill="#ee947d"/><g fill="none"><g stroke="#231f20" stroke-width="21"><path d="m426.58 402.67c4.27.16 16.46.19 26.439-3.97 14.04-5.85 45.641-15.21 87.78-18.72 42.12-3.52 131.07 32.77 131.07 32.77s118.2 39.79 114.689 66.7c-3.52 26.91-54.31 80.06-95.979 121.71-50.32 50.34-99.48 74.91-182.561 80.77-47.06 3.301-81.27 5.261-81.27 5.261l-.98-.11s-35.04-2.43-82.11-5.74c-83.09-5.85-132.24-30.43-182.57-80.77-41.65-41.65-92.45-94.79-95.97-121.7-3.51-26.92 114.7-66.71 114.7-66.71s88.94-36.28 131.07-32.77c42.14 3.51 73.73 12.88 87.78 18.73 12.962 5.389 25.982 4.689 27.912 4.549z"/><path d="m425.95 402.65c.189.01.399.02.63.02.17-.01.25-.02.25-.02zm357.69 72.71s-42.14 28.08-149.22 50.909c-19.67 4.19-109.4 10.761-142.79 20.48-32.17 9.37-63.77 9.95-63.77 9.95s-32.19 0-64.38-9.37c-33.38-9.72-123.11-16.29-142.78-20.48-107.08-22.809-149.22-50.899-149.22-50.899m667.85-343.89-121.69 191.03m85.12-22.52-85.97 23.46-15-87.9"/></g><path d="m0 0h850.394v850.394h-850.394z"/></g></svg>