<svg height="850.394" viewBox="0 0 850.394 850.394" width="850.394" xmlns="http://www.w3.org/2000/svg"><path d="m738.6 365.03 8.12 8.12s-72.58 37.78-134.13 89.99c-42.87 36.38-93.41 73.021-94.229 104.431 0-21.801-22.011-41.65-58.141-56.61l1.3-3.08c7.86-5.97 65.74-49.63 122.2-83.23 0 0 121.82-72.29 147.71-66.78z" fill="#231f20"/><path d="m512.87 586.18.06.04c-.479 1.07-31.449 69.761-44.56 87.471-15.69 21.229-51.1 35.68-92.53 44.149-37.36 7.65-68.77 7.65-81.51 7.65h-.11c-12.75 0-44.14 0-81.52-7.65-41.42-8.47-76.82-22.92-92.53-44.149-12.89-17.421-43.05-84.131-44.51-87.36 8.64 14.29 26.92 27.189 52.14 37.7 41.02 17.069 100.38 27.81 166.42 27.81 64.79 0 123.16-10.34 164.08-26.87 26.52-10.711 45.71-24.011 54.57-38.791z" fill="#a9d7f3"/><path d="m75.63 586.26a40.583 40.583 0 0 1 -3.18-6.41c-1.56-4.02-2.37-8.109-2.37-12.279 0-46.53 100.35-84.24 224.14-84.24 65.81 0 125 10.66 166 27.63 36.13 14.96 58.141 34.81 58.141 56.61 0 6.39-1.891 12.62-5.49 18.609-8.86 14.78-28.05 28.08-54.57 38.79l-2.42-3.89c-8.68-24.82-77.74-44.17-161.66-44.17-84.18 0-153.43 19.45-161.74 44.39l-4.68 2.73c-25.22-10.511-43.5-23.41-52.14-37.7-.011-.03-.021-.05-.031-.07z" fill="#c8c8c8"/><path d="m455.88 621.08 2.42 3.89c-40.92 16.53-99.29 26.87-164.08 26.87-66.04 0-125.4-10.74-166.42-27.81l4.68-2.73c8.31-24.939 77.56-44.39 161.74-44.39 83.92 0 152.98 19.35 161.66 44.17z" fill="#c8c8c8"/><path d="m470.29 237.92c14.2 48.17 1.35 74.36-28.13 103.82-29.47 29.47-70.33 52.24-109.85 57.6-39.51 5.35-97.79 8.05-142.66-21.44-7.38-4.84-22.11-15.9-22.11-15.9-22.59-18.08-58.69-62.88-62.94-89.92-6.88-43.67 13.01-82.05 35.48-101.8 27.46-24.12 62.3-30.81 62.3-30.81s65.71-15.59 114.53-11.39c62.29 5.37 134.62 46.21 153.38 109.84z" fill="#f6cc4b"/><g fill="none"><g stroke="#231f20" stroke-width="21"><path d="m75.63 586.26a40.583 40.583 0 0 1 -3.18-6.41c-1.56-4.02-2.37-8.109-2.37-12.279 0-46.53 100.35-84.24 224.14-84.24 65.81 0 125 10.66 166 27.63 36.13 14.96 58.141 34.81 58.141 56.61 0 6.39-1.891 12.62-5.49 18.609-8.86 14.78-28.05 28.08-54.57 38.79-40.92 16.53-99.29 26.87-164.08 26.87-66.04 0-125.4-10.74-166.42-27.81-25.22-10.511-43.5-23.41-52.14-37.7"/><path d="m512.94 586.21-.011.01c-.479 1.07-31.449 69.761-44.56 87.471-15.69 21.229-51.1 35.68-92.53 44.149-37.36 7.65-68.77 7.65-81.51 7.65h-.11c-12.75 0-44.14 0-81.52-7.65-41.42-8.47-76.82-22.92-92.53-44.149-12.89-17.421-43.05-84.131-44.51-87.36-.01-.03-.02-.05-.03-.07-.01-.029-.02-.05-.02-.05"/><path d="m132.48 621.3c8.31-24.939 77.56-44.39 161.74-44.39 83.92 0 152.98 19.35 161.66 44.17m4.74-112.51s.31-.24.899-.69c7.86-5.97 65.74-49.63 122.2-83.23 0 0 121.82-72.29 147.71-66.78l7.17 7.16 8.12 8.12s-72.58 37.78-134.13 89.99c-42.87 36.38-93.41 73.021-94.229 104.431"/><path d="m788.53 354.35c.34 9.74-11.44 18.08-26.32 18.61-9.94.36-18.75-2.86-23.61-7.93-2.409-2.53-3.85-5.52-3.97-8.75-.33-9.73 11.44-18.06 26.32-18.59 14.87-.55 27.23 6.92 27.58 16.66zm-620.99 7.65c-22.59-18.08-58.69-62.88-62.94-89.92-6.88-43.67 13.01-82.05 35.48-101.8 27.46-24.12 62.3-30.81 62.3-30.81s65.71-15.59 114.53-11.39c62.29 5.37 134.62 46.21 153.38 109.84 14.2 48.17 1.35 74.36-28.13 103.82-29.47 29.47-70.33 52.24-109.85 57.6-39.51 5.35-97.79 8.05-142.66-21.44-7.38-4.84-22.11-15.9-22.11-15.9zm-101.95-99.27c0 27.07 11.49 47.91 16.25 57.75m370.98-181.22c24.91 10.61 39.59 29.35 46.779 37.58"/></g><path d="m0 0h850.394v850.394h-850.394z"/></g></svg>