<svg height="850.394" viewBox="0 0 850.394 850.394" width="850.394" xmlns="http://www.w3.org/2000/svg"><path d="m529.72 487.88v44.47c0 7.57-29.479 16.67-29.97 5.45-.01-.02-.01-.05-.01-.08l-1.521-49.84z" fill="#ffeec8"/><path d="m512.89 298.24c4.44 7.17 7.82 16.04 9.28 27.02 6.87 51.86 7.55 128.221 7.55 128.221v34.399h-31.5l-1.06-34.399v-.29h.31v-121.661c0-25.21-12.34-48.77-31.239-62.91 4.979.7 31.749 5.49 46.659 29.62zm-16.61-178.46c5.09 12.73 18.02 16.89 18.02 16.89v.08h-163.36c.32-6.13 1.24-12.08 2.67-17.79 8.8-35.02 37.36-60.67 71.23-60.67 34.14 0 62.88 26.05 71.44 61.49z" fill="#33a02c"/><path d="m513.63 805.04h-82.85c0-27.81 18.55-50.34 41.43-50.34 22.87 0 41.42 22.53 41.42 50.34zm-.32-570.38v59.22c0 1.49-.14 2.95-.42 4.36-14.909-24.13-41.68-28.92-46.659-29.62-5.99-4.49-12.65-8.02-19.78-10.37l-2.05-1.56c17.949-7.13 32.71-23.55 40.81-44.86h5.271c12.608 0 22.828 10.22 22.828 22.83z" fill="#9e5b16"/><path d="m422.19 560.34-8.33 184.57h-73.01l6.36-207.44v-.029l1.53-49.851 1.05-34.399h147.37v.29l1.06 34.399 1.521 49.84c0 .03 0 .061.01.08l6.36 207.391-72.98.01-10.54-184.84zm75.28-132.32v25.171h-147.68v-121.661c0-11.29 2.48-22.24 6.91-32.18l.03.01 58.01 53.03c-.24.84-.36 1.72-.36 2.63 0 5.46 4.43 9.88 9.88 9.88 1.22 0 2.4-.22 3.48-.63zm-63.32-38.6c0-5.45-4.431-9.88-9.88-9.88-5.46 0-9.88 4.43-9.88 9.88 0 5.46 4.42 9.88 9.88 9.88 5.45 0 9.88-4.42 9.88-9.88zm-.22 34.83c0-5.46-4.43-9.89-9.88-9.89-5.46 0-9.88 4.43-9.88 9.89 0 5.45 4.42 9.87 9.88 9.87 5.45 0 9.88-4.42 9.88-9.87z" fill="#33a02c"/><path d="m466.23 268.62c18.899 14.14 31.239 37.7 31.239 62.91v96.49l-69.729-63.75a9.877 9.877 0 0 0 6.399-9.25c0-5.45-4.42-9.88-9.88-9.88-4.54 0-8.37 3.07-9.52 7.25l-58.01-53.03-.03-.01c5.53-12.4 14.11-23.22 24.73-31.09 6.97-5.17 14.82-9.08 23.26-11.34 6.2 2.38 12.77 3.66 19.57 3.66 7.01 0 13.78-1.36 20.141-3.89l2.05 1.56c7.13 2.35 13.79 5.88 19.78 10.37zm12.78 67.11v-22.24h-11.33v22.24zm-15.1 0v-22.24h-11.33v22.24zm-30.4-15.11c0-5.45-4.42-9.88-9.88-9.88-5.45 0-9.88 4.43-9.88 9.88 0 5.46 4.43 9.88 9.88 9.88 5.46 0 9.88-4.42 9.88-9.88z" fill="#33a02c"/><path d="m485.21 211.83c-8.1 21.31-22.86 37.73-40.81 44.86-6.36 2.53-13.131 3.89-20.141 3.89-6.8 0-13.37-1.28-19.57-3.66-6.09-2.35-11.82-5.76-17.04-10.05a72.35 72.35 0 0 1 -6.12-5.67c-7.69-8-13.99-18.12-18.33-29.66-4.27-11.34-6.67-24.04-6.67-37.47 0-13.28 2.34-25.86 6.53-37.11l120.41 4.2c4.49 10.13 8.521 21.17 8.521 32.91 0 13.54-2.43 26.35-6.78 37.76zm-30.17-43.37c0-8.31-4.36-15.05-9.74-15.05s-9.74 6.74-9.74 15.05 4.36 15.04 9.74 15.04 9.74-6.73 9.74-15.04zm-39.41.29c0-8.31-4.36-15.04-9.74-15.04s-9.74 6.73-9.74 15.04 4.36 15.05 9.74 15.05 9.74-6.74 9.74-15.05z" fill="#ffeec8"/><path d="m467.68 313.49h11.33v22.24h-11.33zm-15.1 0h11.33v22.24h-11.33z"/><path d="m445.3 153.41c5.38 0 9.74 6.74 9.74 15.05s-4.36 15.04-9.74 15.04-9.74-6.73-9.74-15.04 4.36-15.05 9.74-15.05z" fill="#9e5b16"/><path d="m424.26 345.14c5.46 0 9.88 4.43 9.88 9.88 0 4.24-2.659 7.84-6.399 9.25l-13-11.88c1.149-4.18 4.979-7.25 9.519-7.25zm.01 34.4c5.45 0 9.88 4.43 9.88 9.88 0 5.46-4.431 9.88-9.88 9.88-5.46 0-9.88-4.42-9.88-9.88 0-5.45 4.42-9.88 9.88-9.88zm-.22 34.82c5.45 0 9.88 4.43 9.88 9.89 0 5.45-4.43 9.87-9.88 9.87-5.46 0-9.88-4.42-9.88-9.87 0-5.46 4.42-9.89 9.88-9.89zm-.42-103.62c5.46 0 9.88 4.43 9.88 9.88 0 5.46-4.42 9.88-9.88 9.88-5.45 0-9.88-4.42-9.88-9.88 0-5.45 4.43-9.88 9.88-9.88zm-8.89 41.65 13 11.88a9.81 9.81 0 0 1 -3.48.63c-5.45 0-9.88-4.42-9.88-9.88 0-.91.12-1.79.36-2.63z"/><path d="m416.18 804.76h-82.86c0-27.81 18.55-50.34 41.43-50.34s41.43 22.53 41.43 50.34zm-10.29-651.05c5.38 0 9.74 6.73 9.74 15.04s-4.36 15.05-9.74 15.05-9.74-6.74-9.74-15.05 4.36-15.04 9.74-15.04zm-18.24 93.16c5.22 4.29 10.95 7.7 17.04 10.05-8.44 2.26-16.29 6.17-23.26 11.34-1.93.21-31.43 3.89-47.36 29.69-.28-1.41-.42-2.86-.42-4.35v-59.22c0-12.61 10.22-22.84 22.83-22.84h6.72c4.34 11.54 10.64 21.66 18.33 29.66a72.35 72.35 0 0 0 6.12 5.67z" fill="#9e5b16"/><path d="m334.07 297.95c15.93-25.8 45.43-29.48 47.36-29.69-10.62 7.87-19.2 18.69-24.73 31.09-4.43 9.94-6.91 20.89-6.91 32.18v121.66l-1.05 34.399h-31.51v-34.399s.68-76.351 7.56-128.21c1.45-10.98 4.84-19.86 9.28-27.03z" fill="#33a02c"/><path d="m348.74 487.59-1.53 49.851v.029c-.4 11.29-29.98 2.181-29.98-5.41v-44.47z" fill="#ffeec8"/><g fill="none"><g stroke="#000"><path d="m483.47 141.16c4.49 10.13 8.521 21.17 8.521 32.91 0 13.54-2.431 26.35-6.78 37.76-8.1 21.31-22.86 37.73-40.81 44.86-6.36 2.53-13.131 3.89-20.141 3.89-6.8 0-13.37-1.28-19.57-3.66-6.09-2.35-11.82-5.76-17.04-10.05a72.35 72.35 0 0 1 -6.12-5.67c-7.69-8-13.99-18.12-18.33-29.66-4.27-11.34-6.67-24.04-6.67-37.47 0-13.28 2.34-25.86 6.53-37.11" stroke-width="20.137"/><path d="m415.63 168.75c0 8.31-4.36 15.05-9.74 15.05s-9.74-6.74-9.74-15.05 4.36-15.04 9.74-15.04 9.74 6.73 9.74 15.04zm39.41-.29c0 8.31-4.36 15.04-9.74 15.04s-9.74-6.73-9.74-15.04 4.36-15.05 9.74-15.05 9.74 6.74 9.74 15.05z" stroke-width="10.069"/><path d="m350.94 136.75c.32-6.13 1.24-12.08 2.67-17.79 8.8-35.02 37.36-60.67 71.23-60.67 34.141 0 62.88 26.05 71.44 61.49 1.16 4.77 1.95 9.72 2.33 14.8" stroke-width="20.137"/><path d="m330.5 136.75h186.27" stroke-linecap="round" stroke-linejoin="round" stroke-width="20.137"/><path d="m408.51 218.15h33.68" stroke-linecap="round" stroke-linejoin="round" stroke-width="13.425"/><path d="m335.25 136.75s13.53-4.36 18.36-17.79c.46-1.24.83-2.55 1.11-3.94m159.58 21.65s-12.93-4.16-18.02-16.89a26.49 26.49 0 0 1 -1.45-4.84m-90.12 141.97c-.01 0-.01 0-.02.01-8.44 2.26-16.29 6.17-23.26 11.34-10.62 7.87-19.2 18.69-24.73 31.09-4.43 9.94-6.91 20.89-6.91 32.18v121.66h147.68v-121.66c0-25.21-12.34-48.77-31.239-62.91-5.99-4.49-12.65-8.02-19.78-10.37" stroke-width="20.137"/><path d="m381.53 268.24s-.03 0-.1.02c-1.93.21-31.43 3.89-47.36 29.69-4.44 7.17-7.83 16.05-9.28 27.03-6.88 51.86-7.56 128.21-7.56 128.21v34.399h31.68" stroke-width="20.137"/><path d="m413.83 745.6.03-.69 8.33-184.57 1.44-31.91" stroke-width="13.425"/><g stroke-width="20.137"><path d="m347.21 537.47-6.36 207.44h80.05m-71.11-291.72-1.05 34.4-1.53 49.85m68.97 267.32c0-27.81-18.55-50.34-41.43-50.34s-41.43 22.53-41.43 50.34z"/><path d="m317.23 487.59v44.47c0 7.591 29.58 16.7 29.98 5.41v-.029m-11.72-234.851c-.64-1.47-1.12-3.03-1.42-4.64-.28-1.41-.42-2.86-.42-4.35v-59.22c0-12.61 10.22-22.84 22.83-22.84h6.72m102.22 56.98s.28.03.811.1c4.979.7 31.75 5.49 46.659 29.62 4.44 7.17 7.82 16.04 9.28 27.02 6.87 51.86 7.55 128.221 7.55 128.221v34.399h-31.68m1.71 49.92 6.36 207.39-72.98.01h-6.98"/><path d="m497.16 453.48 1.06 34.4 1.52 49.84m-68.96 267.32c0-27.81 18.55-50.34 41.43-50.34 22.87 0 41.42 22.53 41.42 50.34zm98.94-317.16v44.47c0 7.57-29.479 16.67-29.97 5.45-.01-.02-.01-.05-.01-.08m11.73-234.85c.63-1.47 1.11-3.02 1.42-4.63.28-1.41.42-2.87.42-4.36v-59.22c0-12.61-10.22-22.83-22.829-22.83h-6.731m-127.02 87.53 58.01 53.03 13 11.88 69.73 63.75"/></g><path d="m422.59 560.36 10.54 184.84.02.4" stroke-width="13.425"/></g><path d="m0 0h850.394v850.394h-850.394z"/></g></svg>