<svg height="850" viewBox="0 0 850 850" width="850" xmlns="http://www.w3.org/2000/svg"><path d="m558.8 344-56.5-43.2 10.3 2.5 8.2 2.5 6.8 2.2 5.2 2 4 2.3 3.3 2 2.5 2 2 2.2 1.7 2.3 2.5 2.2 2.5 2.8 2.5 3 2.3 3.2 2 3.5.7 1.8.8 1.7.2 1.8.3 1.7z" fill="#ffffc2"/><path d="m502.3 300.8 56.5 43.2 4 3.3 77.8 53.7v.3l-1-.5h-1.3l-1.2.5-1.3.5-1.2.7-1.3 1-1 1.3-1 1.5-1 1.5-.5 1.5-.5 1.5-.2 1.5v1.2l.2 1.3.3 1 .5.7-60.3-41.7-58-40.3-1.2.3-2-10.5-.8-3-1.2-2.8-1.5-2.7-2.3-2.5-2.5-2.3-2.7-2-1.5-.7-1.8-.8-1.7-.5-1.8-.5-3.2-.5h-2.5l-2.8-.2-2.7.2-3 .5-2.8.5-2.5 1.3-1-1.5-8.5-10-9.2-11.3-.8-1.2v-.8l.5-.7.8-.5 1.5-.8 1-.2 13.2 5.7 2.5 2 3 1.8 3.5 1.7 4 1.8 4.3 1.7 5 1.5 5.2 1.8z" fill="#faa41f"/><path d="m502.3 300.8-6-1.5-5.2-1.8-5-1.5-4.3-1.7-4-1.8-3.5-1.7-3-1.8-2.5-2-1.7-1.5-1.5-1.5-1.3-1.7-1-1.8-.7-1.7-.5-1.8-.3-1.7v-4l.5-1.8.3-1.5.7-1.2.8-1.3 1-.7 1.2-.8 1.3-.2 1.5-.5h6.2l5 .5 6.3 1 12 2 12.5 2.2 14.5 2.8 15 3 13.7 3 6 1.5 5 1.5 3.8 1.2 2.5 1.3 1.7 1.5 2.5 2.7 3 3.5 3.3 4.5 8 10.8 8.7 12.5 2-2 2-1.5 2.3-1.5 2.5-1 2.7-.5 2.5-.3 3 .5 2.8 1 1.7 1 2.5 2 2.5 2.8 3 3.5h1.8v-1.5l.5-1.5 1-1.5 1-1.3 1.5-1 1.7-1.2 2-.8 2-.7 2.3-.5 2.2-.3h4.5l2.3.8 2.2.7 2 1.3 1.8 1.5 3.5 3.7 3.7 4.5 4.3 5 4 5.5 8.7 12.3 8.8 13 7.7 12.5 6.5 11.2 2.8 5 2 4.3 1.5 3.5.7 2.7-17.7 117.5.2 1.8 1.3 6 1 4.2 1.5 5.8 2 6.5 2.5 7.7 3.2 9 3.8 10 4.5 11.5 5.5 12.5 6.2 14 7.3 15 8.2 16.8 9.5 17.7 9.5 17.5 10.3 18.5-156.8 39.5-8.2-44.5-9-49.5-5.3-22.7-4.5-18.5-2.2-8.3-2.3-7.2-2.2-6.5-2.3-6.3-2.5-5.5-2.7-5.5-2.8-5-3.2-5-3.5-4.7-4-5-4.3-5-4.7-5.5-30.8-33.5-12.2-13.5-5.3-6-4.7-5.8-4.3-5.2-3.7-5.3-3.5-5-2.8-4.7-2.5-4.5-2-4.5-1.7-4.8-1-4.5-.5-2.2-.3-2.5-.2-6.5v-15.8l.5-16 .5-11.2-.3-4-.2-4.8-.5-5.2-.8-6.3-1.2-6.7-1.5-7.3-1.8-7.7-2.5-8.3-.7-3.5-.5-2.7.2-2.5.5-2.3 1-2 1.3-1.5 1.5-1.2 1.7-1 2.5-1.3 2.8-.5 3-.5 2.7-.2 2.8.2h2.5l3.2.5 1.8.5 1.7.5 1.8.8 1.5.7 2.7 2 2.5 2.3 2.3 2.5 1.5 2.7 1.2 2.8.8 3 2 10.5 3.5 17.7 1.7 9 2.3 9 1 3.3 1.2 3 1.5 2.7 1.5 2.8 1.5 2.5 1.8 2.2 3.5 4.3 3.5 3.2 2.7 2.8 3.5 2.7 2.3 1.8 2.2 1.2 2.5.8 2.5.2 2.8-.2 2.5-.5 2.5-1.3 2.2-1.5 2.3-1.7 2-2.3 2-2.7 1.5-3 1.2-3.5.8-3.8.5-4v-4.2l.2-.5 60.3 41.7 1 .8 1 .5 1.2.2 1.3-.2 1.2-.5 1.5-1 1.3-1 1.2-1.3 1-1.5 1-1.7.5-1.8.5-1.5.3-1.7-.3-1.3-.2-1.2-.8-1-.7-1h-.5v-.3l-77.8-53.7-4-3.3 1.3-1.5-.3-1.7-.2-1.8-.8-1.7-.7-1.8-2-3.5-2.3-3.2-2.5-3-2.5-2.8-2.5-2.2-1.7-2.3-2-2.2-2.5-2-3.3-2-4-2.3-5.2-2-6.8-2.2-8.2-2.5z" fill="#ffeec8"/><path d="m720.1 131h30.2v525l-9.5-17.7-8.2-16.8-7.3-15-6.2-14-5.5-12.5-4.5-11.5-3.8-10-3.2-9-2.5-7.7-2-6.5-1.5-5.8-1-4.2-1.3-6-.2-1.8 17.7-117.5-.7-2.7-1.5-3.5-2-4.3-2.8-5-6.5-11.2-7.7-12.5-8.8-13-8.7-12.3-4-5.5-4.3-5-3.7-4.5-3.5-3.7-1.8-1.5-2-1.3-2.2-.7-2.3-.8h-4.5l-2.2.3-2.3.5-2 .7-2 .8-1.7 1.2-1.5 1-1 1.3-1 1.5-.5 1.5v1.5h-1.8l-3-3.5-2.5-2.8-2.5-2-1.7-1-2.8-1-3-.5-2.5.3-2.7.5-2.5 1-2.3 1.5-2 1.5-2 2-8.7-12.5-8-10.8-3.3-4.5-3-3.5-2.5-2.7-1.7-1.5-2.5-1.3-3.8-1.2-5-1.5-6-1.5-13.7-3-15-3-14.5-2.8-12.5-2.2-12-2-6.3-1-5-.5h-6.2l-1.5.5-1.3.2-1.2.8-1 .7-.8 1.3-.7 1.2-.3 1.5-.5 1.8v4l.3 1.7.5 1.8.7 1.7 1 1.8 1.3 1.7 1.5 1.5 1.7 1.5-13.2-5.7-10-3.3 7 7.5 9.2 11.3 8.5 10 1 1.5-1.7 1-1.5 1.2-1.3 1.5-1 2-.5 2.3-.2 2.5.5 2.7.7 3.5 2.5 8.3 1.8 7.7 1.5 7.3 1.2 6.7.8 6.3.5 5.2.2 4.8.3 4-.5 11.2-.5 16v15.8l.2 6.5.3 2.5.5 2.2 1 4.5 1.7 4.8 2 4.5 2.5 4.5 2.8 4.7 3.5 5 3.7 5.3 4.3 5.2 4.7 5.8 5.3 6 12.2 13.5 30.8 33.5 4.7 5.5 4.3 5 4 5 3.5 4.7 3.2 5 2.8 5 2.7 5.5 2.5 5.5 2.3 6.3 2.2 6.5 2.3 7.2 2.2 8.3 4.5 18.5 5.3 22.7 9 49.5-3.3.5h-339l-2-.7 4-4.8 4.3-4.5 4.5-4.2 4.7-4 4.8-3.5 5-3 5.2-2.8 5.3-2 6.2-2.2 6.3-2.8 5.7-3.2 5.8-3.5 5.7-4 5.3-4 5.2-4.3 5-4.2 4.8-4.5 4.5-4.5 8.2-8.5 13.3-14.5 6-6.8 6.2-7.5 13.5-16.2 6.5-7.8 6-7.2 5.5-6 2.5-2.3 2.3-2 .7-1 .8-.7.5-1 .2-1 .3-1.3.2-1-.5-2.5-.7-2.5-1.3-2.2-1.7-2.3-2.3-2.2-2.5-1.8-3-1.2-3.2-1-1.8-.3h-3.7l-2 .3-2 .5-2 .5-2 .7-2.3 1-2.2 1.5-2.3 1.5-2.5 2-2.5 2.3-2.7 2.7-2.5 3.3-4.8 4.2-5 4.3-6 4.5-3 2-3 2-2.7 1.7-2.8 1-2.5.8-1 .2h-1l-.7-.2-.8-.5-.5-.5-.5-.8-.2-.7.2-1 .8-3 1.2-4 2.3-5.3 5.7-12.7 7.8-15.5 7-13.5 7.5-14.3 16-29.5 16-28.7 14-25.3 16.5-29 .7-1.7.8-1.5.2-1.8.3-1.7v-3l-.5-1.8-.5-1.5-.5-1.2-.8-1.5-2-2.5-2.5-2.3-2.7-1.7-3-1.3-3.3-.7-1.5-.3h-3.5l-1.7.3-1.5.5-1.8.5-1.7.7-1.5 1-1.8 1.3-1.5 1.5-1.2 1.5-1.5 1.7 8.7-15.5 6.5-12 1.5-3.5.8-3 .5-3-.3-2.7-.7-2.3-1-2.2-1.3-1.8-1.2-1.7-1.8-1.5-1.5-1.3-3-1.7-2.5-1-.7-.3-2.5-.2-2.3.2-2.2.8-2.3 1-2 1.2-2.2 1.5-2 1.8-2 2-2 2.2-2 2.5-4 5.8-4 6-4.3 6.7v-.2l2.5-5 1.3-2.8.5-2.5v-2.2l-.5-2.3-.8-2-1.2-1.5-1.3-1.7-1.7-1.3-1.5-1.2-1.8-1-3.2-1.5-2.3-.8-.7-.2-2-.3h-1.8l-1.5.3-1.7.2-1.5.8-1.5.7-1.5 1-1.5 1.3-3 2.7-3 3.5-3 3.8-3.3 4.5-11 15.7-13.2 19.3h-.3l1.3-2.8.7-2.5.5-2.2.3-2.5-.3-2.3-.5-2-.7-2-1-2-1.3-1.7-1.5-1.5-1.5-1.3-1.7-1-1.8-1-1.7-.5-1.8-.5h-2l-1 .3-1.5.5-1.5 1-1.7 1.5-4.3 3.5-5 4.5-5.5 5.5-5.7 6.2-12.5 13.8-12.5 14.2-11.3 13.3-9 11-5.7 7.2-4 5.8-4.3 6.5-4.2 7.5-4.5 7.7-4.5 8.5-4.5 9-9 19-8.8 19.8-8.5 19.7-7.7 19.3-7.3 18v-428.8z" fill="#ffffc2"/><path d="m721.6 97-1.5 34h-560.3v428.8l-7.2 18.7-5.8 15.3-4.7 13.2-2.8 4.8-3.2 5.5-4.3 6.7-.7-.5v-526.5z" fill="#fff"/><path d="m630.1 416.5-.5-.7-.3-1-.2-1.3v-1.2l.2-1.5.5-1.5.5-1.5 1-1.5 1-1.5 1-1.3 1.3-1 1.2-.7 1.3-.5 1.2-.5h1.3l1 .5h.5l.7 1 .8 1 .2 1.2.3 1.3-.3 1.7-.5 1.5-.5 1.8-1 1.7-1 1.5-1.2 1.3-1.3 1-1.5 1-1.2.5-1.3.2-1.2-.2-1-.5z" fill="#faa41f"/><path d="m569.8 374.8-.2.5v4.2l-.5 4-.8 3.8-1.2 3.5-1.5 3-2 2.7-2 2.3-2.3 1.7-2.2 1.5-2.5 1.3-2.5.5-2.8.2-2.5-.2-2.5-.8-2.2-1.2-2.3-1.8-3.5-2.7-2.7-2.8-3.5-3.2-3.5-4.3-1.8-2.2-1.5-2.5-1.5-2.8-1.5-2.7-1.2-3-1-3.3-2.3-9-1.7-9-3.5-17.7 1.2-.3z" fill="#ffffc2"/><path d="m407.6 357 1.5-1.7 1.2-1.5 1.5-1.5 1.8-1.3 1.5-1 1.7-.7 1.8-.5 1.5-.5 1.7-.3h3.5l1.5.3 3.3.7 3 1.3 2.7 1.7 2.5 2.3 2 2.5.8 1.5.5 1.2.5 1.5.5 1.8v3l-.3 1.7-.2 1.8-.8 1.5-.7 1.7-16.5 29-14 25.3-16 28.7-16 29.5-7.5 14.3-7 13.5-7.8 15.5-5.7 12.7-2.3 5.3-1.2 4-.8 3-.2 1 .2.7.5.8.5.5.8.5.7.2h1l1-.2 2.5-.8 2.8-1 2.7-1.7 3-2 3-2 6-4.5 5-4.3 4.8-4.2 2.5-3.3 2.7-2.7 2.5-2.3 2.5-2 2.3-1.5 2.2-1.5 2.3-1 2-.7 2-.5 2-.5 2-.3h3.7l1.8.3 3.2 1 3 1.2 2.5 1.8 2.3 2.2 1.7 2.3 1.3 2.2.7 2.5.5 2.5-.2 1-.3 1.3-.2 1-.5 1-.8.7-.7 1-2.3 2-2.5 2.3-5.5 6-6 7.2-6.5 7.8-13.5 16.2-6.2 7.5-6 6.8-13.3 14.5-8.2 8.5-4.5 4.5-4.8 4.5-5 4.2-5.2 4.3-5.3 4-5.7 4-5.8 3.5-5.7 3.2-6.3 2.8-6.2 2.2-5.3 2-5.2 2.8-5 3-4.8 3.5-4.7 4-4.5 4.2-4.3 4.5-4 4.8-4.5 5.2-4 5.8-3.7 5.5-3.5 5.7-3.3 5.5-3 5.5-5.2 10.3-4 8.7-3 7.3-2.5 6.2-144.5-74 4.2-2.5 4-3 4-3 4-3.2 3.8-3.3 3.5-3.5 7-7.2 6.5-7.5 5.7-7.5 5-7 4.5-6.8 4.3-6.7 3.2-5.5 2.8-4.8 4.7-13.2 5.8-15.3 7.2-18.7 7.3-18 7.7-19.3 8.5-19.7 8.8-19.8 9-19 4.5-9 4.5-8.5 4.5-7.7 4.2-7.5 4.3-6.5 4-5.8 5.7-7.2 9-11 11.3-13.3 12.5-14.2 12.5-13.8 5.7-6.2 5.5-5.5 5-4.5 4.3-3.5 1.7-1.5 1.5-1 1.5-.5 1-.3h2l1.8.5 1.7.5 1.8 1 1.7 1 1.5 1.3 1.5 1.5 1.3 1.7 1 2 .7 2 .5 2 .3 2.3-.3 2.5-.5 2.2-.7 2.5-1.3 2.8h.3l13.2-19.3 11-15.7 3.3-4.5 3-3.8 3-3.5 3-2.7 1.5-1.3 1.5-1 1.5-.7 1.5-.8 1.7-.2 1.5-.3h1.8l2 .3.7.2 2.3.8 3.2 1.5 1.8 1 1.5 1.2 1.7 1.3 1.3 1.7 1.2 1.5.8 2 .5 2.3v2.2l-.5 2.5-1.3 2.8-2.5 5v.2l4.3-6.7 4-6 4-5.8 2-2.5 2-2.2 2-2 2-1.8 2.2-1.5 2-1.2 2.3-1 2.2-.8 2.3-.2 2.5.2.7.3 2.5 1 3 1.7 1.5 1.3 1.8 1.5 1.2 1.7 1.3 1.8 1 2.2.7 2.3.3 2.7-.5 3-.8 3-1.5 3.5-6.5 12z" fill="#ffeec8"/><g fill="none" stroke="#231f20" stroke-linecap="round" stroke-miterlimit="10"><path d="m424.1 401.5 16.5-29 .7-1.7.8-1.5.2-1.8.3-1.7v-3l-.5-1.8-.5-1.5-.5-1.2-.8-1.5-2-2.5-2.5-2.3-2.7-1.7-3-1.3-3.3-.7-1.5-.3h-3.5l-1.7.3-1.5.5-1.8.5-1.7.7-1.5 1-1.8 1.3-1.5 1.5-1.2 1.5-1.5 1.7" stroke-width="14"/><path d="m363.6 512.8 7-13.5 7.5-14.3 16-29.5 16-28.7 14-25.3m-33.8 124.5-2.5 2-2.5 2.3-2.7 2.7-2.5 3.3-4.8 4.2-5 4.3-6 4.5-3 2-3 2-2.7 1.7-2.8 1-2.5.8-1 .2h-1l-.7-.2-.8-.5-.5-.5-.5-.8-.2-.7.2-1 .8-3 1.2-4 2.3-5.3 5.7-12.7 7.8-15.5" stroke-width="14"/><path d="m224.1 752.5 2.5-6.2 3-7.3 4-8.7 5.2-10.3 3-5.5 3.3-5.5 3.5-5.7 3.7-5.5 4-5.8 4.5-5.2 4-4.8 4.3-4.5 4.5-4.2 4.7-4 4.8-3.5 5-3 5.2-2.8 5.3-2 6.2-2.2 6.3-2.8 5.7-3.2 5.8-3.5 5.7-4 5.3-4 5.2-4.3 5-4.2 4.8-4.5 4.5-4.5 8.2-8.5 13.3-14.5 6-6.8 6.2-7.5 13.5-16.2 6.5-7.8 6-7.2 5.5-6 2.5-2.3 2.3-2 .7-1 .8-.7.5-1 .2-1 .3-1.3.2-1-.5-2.5-.7-2.5-1.3-2.2-1.7-2.3-2.3-2.2-2.5-1.8-3-1.2-3.2-1-1.8-.3h-3.7l-2 .3-2 .5-2 .5-2 .7-2.3 1-2.2 1.5-2.3 1.5m-73-163.7 1.3-2.8.7-2.5.5-2.2.3-2.5-.3-2.3-.5-2-.7-2-1-2-1.3-1.7-1.5-1.5-1.5-1.3-1.7-1-1.8-1-1.7-.5-1.8-.5h-2l-1 .3-1.5.5-1.5 1-1.7 1.5-4.3 3.5-5 4.5-5.5 5.5-5.7 6.2-12.5 13.8-12.5 14.2-11.3 13.3-9 11-5.7 7.2-4 5.8-4.3 6.5-4.2 7.5-4.5 7.7-4.5 8.5-4.5 9-9 19-8.8 19.8-8.5 19.7-7.7 19.3-7.3 18-7.2 18.7-5.8 15.3-4.7 13.2-2.8 4.8-3.2 5.5-4.3 6.7-4.5 6.8-5 7-5.7 7.5-6.5 7.5-7 7.2-3.5 3.5-3.8 3.3-4 3.2-4 3-4 3-4.2 2.5m167.7-211.5 23.5-35.5 22.8-34 24-35.2 13.2-19.3 11-15.7 3.3-4.5 3-3.8 3-3.5 3-2.7 1.5-1.3 1.5-1 1.5-.7 1.5-.8 1.7-.2 1.5-.3h1.8l2 .3.7.2 2.3.8 3.2 1.5 1.8 1 1.5 1.2 1.7 1.3 1.3 1.7 1.2 1.5.8 2 .5 2.3v2.2l-.5 2.5-1.3 2.8-2.5 5-7.7 13.5-10.5 17.7-24 40-30 49.5m72.2-120.5 4.3-6.7 4-6 4-5.8 2-2.5 2-2.2 2-2 2-1.8 2.2-1.5 2-1.2 2.3-1 2.2-.8 2.3-.2 2.5.2.7.3 2.5 1 3 1.7 1.5 1.3 1.8 1.5 1.2 1.7 1.3 1.8 1 2.2.7 2.3.3 2.7-.5 3-.8 3-1.5 3.5-6.5 12-8.7 15.5-27 47.8-29 50.5-32.5 56.5m351.2-129.5-4.2-6.8-10.8-16-6.7-9.7-7-9.8-6.8-9.2-6.5-8-3-3.5-2.5-2.8-2.5-2-1.7-1-2.8-1-3-.5-2.5.3-2.7.5-2.5 1-2.3 1.5-2 1.5-2 2-1.2 1.5" stroke-width="14"/><path d="m630.1 322.8v-1.5l.5-1.5 1-1.5 1-1.3 1.5-1 1.7-1.2 2-.8 2-.7 2.3-.5 2.2-.3h4.5l2.3.8 2.2.7 2 1.3 1.8 1.5 3.5 3.7 3.7 4.5 4.3 5 4 5.5 8.7 12.3 8.8 13 7.7 12.5 6.5 11.2 2.8 5 2 4.3 1.5 3.5.7 2.7-17.7 117.5.2 1.8 1.3 6 1 4.2 1.5 5.8 2 6.5 2.5 7.7 3.2 9 3.8 10 4.5 11.5 5.5 12.5 6.2 14 7.3 15 8.2 16.8 9.5 17.7 9.5 17.5 10.3 18.5" stroke-width="14"/><path d="m569.6 375.3v4.2l-.5 4-.8 3.8-1.2 3.5-1.5 3-2 2.7-2 2.3-2.3 1.7-2.2 1.5-2.5 1.3-2.5.5-2.8.2-2.5-.2-2.5-.8-2.2-1.2-2.3-1.8-3.5-2.7-2.7-2.8-3.5-3.2-3.5-4.3-1.8-2.2-1.5-2.5-1.5-2.8-1.5-2.7-1.2-3-1-3.3-2.3-9-1.7-9-3.5-17.7-2-10.5-.8-3-1.2-2.8-1.5-2.7-2.3-2.5-2.5-2.3-2.7-2-1.5-.7-1.8-.8-1.7-.5-1.8-.5-3.2-.5h-2.5l-2.8-.2-2.7.2-3 .5-2.8.5-2.5 1.3-1.7 1-1.5 1.2-1.3 1.5-1 2-.5 2.3-.2 2.5.5 2.7.7 3.5 2.5 8.3 1.8 7.7 1.5 7.3 1.2 6.7.8 6.3.5 5.2.2 4.8.3 4-.5 11.2-.5 16v15.8l.2 6.5.3 2.5.5 2.2 1 4.5 1.7 4.8 2 4.5 2.5 4.5 2.8 4.7 3.5 5 3.7 5.3 4.3 5.2 4.7 5.8 5.3 6 12.2 13.5 30.8 33.5 4.7 5.5 4.3 5 4 5 3.5 4.7 3.2 5 2.8 5 2.7 5.5 2.5 5.5 2.3 6.3 2.2 6.5 2.3 7.2 2.2 8.3 4.5 18.5 5.3 22.7 9 49.5 8.2 44.5" stroke-width="10"/><path d="m633.8 370.3-11.2-16.8-11.3-16.5-12.5-18.2-8.7-12.5-8-10.8-3.3-4.5-3-3.5-2.5-2.7-1.7-1.5-2.5-1.3-3.8-1.2-5-1.5-6-1.5-13.7-3-15-3-14.5-2.8-12.5-2.2-12-2-6.3-1-5-.5h-6.2l-1.5.5-1.3.2-1.2.8-1 .7-.8 1.3-.7 1.2-.3 1.5-.5 1.8v4l.3 1.7.5 1.8.7 1.7 1 1.8 1.3 1.7 1.5 1.5 1.7 1.5 2.5 2 3 1.8 3.5 1.7 4 1.8 4.3 1.7 5 1.5 5.2 1.8 6 1.5 10.3 2.5 8.2 2.5 6.8 2.2 5.2 2 4 2.3 3.3 2 2.5 2 2 2.2 1.7 2.3 2.5 2.2 2.5 2.8 2.5 3 2.3 3.2 2 3.5.7 1.8.8 1.7.2 1.8.3 1.7" stroke-width="14"/><path d="m640.6 401.3-1-.5h-1.3l-1.2.5-1.3.5-1.2.7-1.3 1-1 1.3-1 1.5-1 1.5-.5 1.5-.5 1.5-.2 1.5v1.2l.2 1.3.3 1 .5.7 1 .8 1 .5 1.2.2 1.3-.2 1.2-.5 1.5-1 1.3-1 1.2-1.3 1-1.5 1-1.7.5-1.8.5-1.5.3-1.7-.3-1.3-.2-1.2-.8-1-.7-1z" stroke-width="7"/><path d="m511.8 334.5 58 40.3 60.3 41.7.5.5m-67.8-69.7-4-3.3-56.5-43.2m138.3 100.2-77.8-53.7" stroke-width="10"/><path d="m475.1 289.8-6.3-2.8-13.2-5.7-1 .2-1.5.8-.8.5-.5.7v.8l.8 1.2 9.2 11.3 8.5 10" stroke-width="7"/><path d="m455.6 281.3-10-3.3 7 7.5" stroke-width="7"/><path d="m601.8 687.5h-339m-103-127v-429.5h590.5v525" stroke-width="14"/><path d="m131.1 623.5v-526.5h590.5l-1.5 34v1.5" stroke-width="14"/></g></svg>