<svg height="850.394" viewBox="0 0 850.394 850.394" width="850.394" xmlns="http://www.w3.org/2000/svg"><path d="m533.01 103.23v377.63c0 18.979-15.39 34.37-34.37 34.37h-125.28c-18.99 0-34.37-15.391-34.37-34.37v-377.63c0-18.98 15.38-34.37 34.37-34.37h125.28c18.98 0 34.37 15.39 34.37 34.37zm-41.81 49.1c0-30.48-24.71-55.19-55.2-55.19s-55.2 24.71-55.2 55.19c0 30.49 24.71 55.2 55.2 55.2s55.2-24.71 55.2-55.2zm0 138.3c0-30.49-24.71-55.2-55.2-55.2s-55.2 24.71-55.2 55.2c0 30.48 24.71 55.19 55.2 55.19s55.2-24.71 55.2-55.19zm0 140.5c0-30.49-24.71-55.2-55.2-55.2s-55.2 24.71-55.2 55.2c0 30.48 24.71 55.2 55.2 55.2s55.2-24.72 55.2-55.2z" fill="#787878"/><path d="m436 97.14c30.49 0 55.2 24.71 55.2 55.19 0 30.49-24.71 55.2-55.2 55.2s-55.2-24.71-55.2-55.2c0-30.48 24.71-55.19 55.2-55.19z" fill="#ff001c"/><path d="m436 235.43c30.49 0 55.2 24.71 55.2 55.2 0 30.48-24.71 55.19-55.2 55.19s-55.2-24.71-55.2-55.19c0-30.49 24.71-55.2 55.2-55.2z" fill="#ffa500"/><path d="m436 375.93c30.49 0 55.2 24.71 55.2 55.2 0 30.48-24.71 55.2-55.2 55.2s-55.2-24.72-55.2-55.2c0-30.49 24.71-55.2 55.2-55.2z" fill="#00e800"/><path d="m413.42 515.6h45.16v271.04h-45.16z" fill="#787878"/><g fill="none"><g stroke="#231f20" stroke-width="21"><path d="m533.01 480.86c0 18.979-15.39 34.37-34.37 34.37h-125.28c-18.99 0-34.37-15.391-34.37-34.37v-377.63c0-18.98 15.38-34.37 34.37-34.37h125.28c18.98 0 34.37 15.39 34.37 34.37z"/><path d="m491.2 152.33c0 30.49-24.71 55.2-55.2 55.2s-55.2-24.71-55.2-55.2c0-30.48 24.71-55.19 55.2-55.19s55.2 24.71 55.2 55.19zm0 138.3c0 30.48-24.71 55.19-55.2 55.19s-55.2-24.71-55.2-55.19c0-30.49 24.71-55.2 55.2-55.2s55.2 24.71 55.2 55.2zm0 140.5c0 30.48-24.71 55.2-55.2 55.2s-55.2-24.72-55.2-55.2c0-30.49 24.71-55.2 55.2-55.2s55.2 24.71 55.2 55.2zm-77.78 355.51v-271.04h45.16v271.04"/></g><path d="m0 0h850.394v850.394h-850.394z"/></g></svg>