<svg height="850.394" viewBox="0 0 850.394 850.394" width="850.394" xmlns="http://www.w3.org/2000/svg"><path d="m368 368.25h113.386v113.386h-113.386z" fill="none"/><path d="m525.57 422.85c1.75-1.73 3.43-3.41 5.04-5.01 3.97-3.97 7.51-7.54 10.54-10.57 2.85-2.85 5.71-5.97 8.58-9.25 10.39-11.85 20.97-25.61 31.939-34.86 9.28-7.84 18.85-12.45 28.83-9.93 2.78 4.78 4.26 8.13 4.26 8.13s24.05 34.25 48.46 48.46 41.53 8.75 50.65-6.19c6.25-10.25 7.35-23.94 6.25-36.46 8.52 13.72 24.59 46.64 36.26 71.19 4.83 17.71-23.439 38.59-37.41 43.42-22.12 7.64-46.739.88-69.17 8.58-3.319 1.13-6.38 2.6-9.29 4.29z" fill="#fff"/><path d="m525.57 422.85 114.939 71.8c-9.899 5.76-17.93 14.08-27.529 20.5l-111.91-68.83c8.93-8.22 17.26-16.3 24.5-23.47z" fill="#f73900"/><path d="m640.51 494.65c2.91-1.69 5.971-3.16 9.29-4.29 22.431-7.7 47.05-.94 69.17-8.58 13.971-4.83 42.24-25.71 37.41-43.42 8.021 16.859 13.96 29.77 13.96 29.77 10.94 25.5 16.4 36.07 6.2 46.271-10.21 10.199-34.98 17.479-69.96 26.96-34.98 9.47-37.89 12.39-50.28 3.64-12.39-8.74-29.88 8.75-37.899 16.77-8.011 8.021-56.11 19.671-90.36 26.23-34.26 6.56-83.08 14.58-147.94 9.47-64.85-5.1-63.4-16.75-63.4-16.75s-5.09-17.439-3.93-34.34l1.02.08c14.65-22.56 30.56 4.28 43.88 14.4 9.88 7.489 24.39 7.25 36.3 6.77 16.55-.649 33.51-1.35 50.049-2.77 40.681-3.49 85.4-8.021 123.49-23.271 16.75-6.689 30.67-16.57 45.471-26.439 9.599-6.421 17.629-14.741 27.529-20.501zm-110.53-77.44.63.63c-1.61 1.6-3.29 3.28-5.04 5.01-7.24 7.169-15.57 15.25-24.5 23.47l-.12-.07c-8.34-10.5-21.8-22.43-35.271-27.48 18.351-8.06 42.931-8.42 61.04-5.14l.15-.13a96.337 96.337 0 0 1 3.111 3.71z" fill="#ffeec8"/><path d="m612.98 515.15c-14.801 9.869-28.721 19.75-45.471 26.439-38.09 15.25-82.81 19.78-123.49 23.271-16.539 1.42-33.5 2.12-50.049 2.77-11.91.48-26.42.72-36.3-6.77-13.32-10.12-29.23-36.96-43.88-14.4l-1.02-.08c.63-9.07 3.05-17.979 9.03-23.97 9.2-9.19 20.7-14.811 32.43-19.51 1.07.359 39.53 12.71 77.61-5.261 12.67-5.979 26.44-15.409 40-26.159 10.04-7.95 19.96-16.631 29.23-25.16z" fill="#fff"/><path d="m431.94 450.34c10.8-10.689 21.68-22.109 30.979-32.57l.12.1c.88.27 1.76.57 2.64.9 13.471 5.05 26.931 16.98 35.271 27.48l.12.07c-9.271 8.529-19.19 17.21-29.23 25.16l-2.29-1.37c-8.79-10.511-17.05-16.69-29.84-21.74-2.56.689-5.02 1.49-7.34 2.399z" fill="#ffeec8"/><path d="m468.99 410.83a508.29 508.29 0 0 1 -6.07 6.94c-9.3 10.46-20.18 21.88-30.979 32.57-8.681 8.58-17.32 16.69-25.05 23.44-12.39-8.73-32.18 6.439-40.2 14.46-8.01 8.02-56.11 19.68-90.36 26.24s-83.08 14.569-147.93 9.47c-64.861-5.1-63.401-16.76-63.401-16.76s-5.09-17.431-3.93-34.33l1.01.08c14.65-22.561 30.56 4.279 43.89 14.399 9.87 7.49 24.38 7.25 36.29 6.771 16.56-.66 33.51-1.351 50.05-2.78 40.69-3.49 85.4-8.021 123.5-23.26 16.74-6.69 30.67-16.58 45.46-26.45 9.6-6.41 17.63-14.73 27.53-20.49 2.9-1.69 5.97-3.16 9.29-4.3 19.06-6.54 51.56-2.64 70.9-6z" fill="#ffeec8"/><path d="m273.87 349.32 114.93 71.81c-9.9 5.76-17.93 14.08-27.53 20.49l-111.91-68.83c8.94-8.21 17.27-16.3 24.51-23.47z" fill="#f73900"/><path d="m497.45 372.11c-4.62 6.5-9.061 13.01-13.141 19.13-3.51 5.26-8.85 12.04-15.319 19.59-19.34 3.36-51.84-.54-70.9 6-3.32 1.14-6.39 2.61-9.29 4.3l-114.93-71.81c1.75-1.73 3.43-3.4 5.04-5 3.97-3.97 7.51-7.54 10.54-10.57 2.85-2.85 5.7-5.97 8.57-9.25 10.39-11.85 20.97-25.62 31.95-34.87 9.28-7.84 18.85-12.44 28.82-9.92l.01-.01c2.77 4.79 4.25 8.14 4.25 8.14s24.05 34.24 48.46 48.46c24.42 14.21 41.54 8.75 50.65-6.19 6.25-10.25 7.35-23.94 6.25-36.46 7.92 12.73 24.96 44.66 36.359 68.46a487.108 487.108 0 0 0 -7.319 10z" fill="#fff"/><path d="m180.23 376.82c10.81-10.69 21.69-22.12 30.99-32.58l.12.11c.88.27 1.75.57 2.63.9 13.47 5.04 26.93 16.96 35.27 27.47l.12.07c-9.27 8.54-19.18 17.21-29.22 25.17l-2.3-1.38c-8.79-10.5-17.05-16.69-29.83-21.72a68.01 68.01 0 0 0 -7.35 2.39z" fill="#ffeec8"/><path d="m273.87 349.32c-7.24 7.17-15.57 15.26-24.51 23.47l-.12-.07c-8.34-10.51-21.8-22.43-35.27-27.47 18.35-8.07 42.94-8.42 61.04-5.14l.15-.14a97.21 97.21 0 0 1 3.11 3.71l.64.64c-1.61 1.6-3.29 3.27-5.04 5z" fill="#ffeec8"/><path d="m361.27 441.62c-14.79 9.87-28.72 19.76-45.46 26.45-38.1 15.239-82.81 19.77-123.5 23.26-16.54 1.43-33.49 2.12-50.05 2.78-11.91.479-26.42.72-36.29-6.771-13.33-10.12-29.24-36.96-43.89-14.399l-1.01-.08c.62-9.07 3.05-17.99 9.03-23.971 9.19-9.189 20.7-14.819 32.43-19.51 1.07.351 39.52 12.7 77.61-5.26 12.67-5.98 26.44-15.42 40-26.16 10.04-7.96 19.95-16.63 29.22-25.17z" fill="#fff"/><g fill="#ffeec8"><path d="m139 413.28c10.36-7.3 25.72-21.12 41.23-36.46l.43.43a68.01 68.01 0 0 1 7.35-2.39c12.78 5.03 21.04 11.22 29.83 21.72l2.3 1.38c-13.56 10.74-27.33 20.18-40 26.16-38.09 17.96-76.54 5.61-77.61 5.26 10.12-4.06 20.4-7.43 29.51-11.82 1.92-.93 4.26-2.37 6.93-4.26.01-.01.02-.01.03-.02zm581.12-46.11c1.1 12.52 0 26.21-6.25 36.46-9.12 14.94-26.24 20.4-50.65 6.19s-48.46-48.46-48.46-48.46-1.479-3.35-4.26-8.13c-.71-1.23-1.5-2.54-2.38-3.92.56.34 14.27 8.58 30.12 17.2 5.43 2.95 11.109 5.95 16.6 8.7 21.86 10.93 38.04 13.43 43.72 0 8.021-18.95 8.631-40.18 8.631-40.18l.01-.01c1.62.9 3.21 2.26 4.67 4.05 2.39 2.91 4.42 6.97 5.64 12.09.71 2.95 1.34 6.16 1.84 9.52.309 2.11.579 4.28.769 6.49z"/><path d="m710.59 315.45c.36 10.21 1.28 20.28 1.28 23.62-1.46-1.79-3.05-3.15-4.67-4.05-3.641-2.06-7.41-1.85-10.09.84-1.341 1.34-2.82 2.74-4.38 4.01 0 0-9.83-24.78-2.551-26.24 7.291-1.46 20.041-8.38 20.411 1.82z"/><path d="m707.2 335.02-.01.01s-.61 21.23-8.631 40.18c-5.68 13.43-21.859 10.93-43.72 0-5.49-2.75-11.17-5.75-16.6-8.7.87-3.53 5.25-20.03 13.689-28.47 9.471-9.47 17.12-3.28 24.04 3.65 5.34 5.33 11.53 2.45 16.761-1.82 1.56-1.27 3.039-2.67 4.38-4.01 2.681-2.69 6.451-2.9 10.091-.84zm-99.08 14.29c.88 1.38 1.67 2.69 2.38 3.92-9.98-2.52-19.55 2.09-28.83 9.93-2.72-.83-4.5-1.3-4.5-1.3-19.96-4.37-46.32-4.4-67.85 4.24-4.17 1.66-8.15 3.66-11.87 6.01 2.399-3.36 4.84-6.71 7.319-10 13.23-17.63 27.271-33.46 38.57-38.64 17.49-8.02 40.45-1.82 52.47 10.2 5.051 5.05 9.201 10.74 12.311 15.64z"/><path d="m536.73 384.18c-7.95-7.25-17.461-13.69-26.811-16.56l-.6-1.52c21.529-8.64 47.89-8.61 67.85-4.24 0 0 1.78.47 4.5 1.3-10.97 9.25-21.55 23.01-31.939 34.86l-1.91-2.02c-3.08-3.89-6.87-7.97-11.09-11.82z"/><path d="m547.82 396 1.91 2.02c-2.87 3.28-5.73 6.4-8.58 9.25-3.03 3.03-6.57 6.6-10.54 10.57l-.63-.63a99.1 99.1 0 0 0 -3.11-3.71c-8.601-9.74-20.93-19.87-33.18-24.12 13.149-4.44 28.77-5.79 43.04-5.2 4.22 3.85 8.01 7.93 11.09 11.82z"/><path d="m493.69 389.38c-2.66.88-5.21 1.9-7.631 3.06l-1.75-1.2c4.08-6.12 8.521-12.63 13.141-19.13 3.72-2.35 7.7-4.35 11.87-6.01l.6 1.52c9.35 2.87 18.86 9.31 26.811 16.56-14.271-.59-29.891.76-43.041 5.2z"/><path d="m526.87 413.5-.15.13c-18.109-3.28-42.689-2.92-61.04 5.14-.88-.33-1.76-.63-2.64-.9l-.12-.1c2.11-2.37 4.14-4.69 6.07-6.94 6.47-7.55 11.81-14.33 15.319-19.59l1.75 1.2a64.65 64.65 0 0 1 7.631-3.06c12.25 4.25 24.58 14.38 33.18 24.12zm-119.98 60.28c7.73-6.75 16.37-14.86 25.05-23.44l.43.43c2.32-.909 4.78-1.71 7.34-2.399 12.79 5.05 21.05 11.229 29.84 21.74l2.29 1.37c-13.56 10.75-27.33 20.18-40 26.159-38.08 17.971-76.54 5.62-77.61 5.261 10.12-4.061 20.41-7.431 29.52-11.82 1.93-.93 4.29-2.39 6.99-4.3 4.55-3.211 10.07-7.681 16.15-13.001zm-20.35-180.8c5.42 2.96 11.1 5.96 16.59 8.71 21.86 10.93 38.04 13.43 43.73 0 8.01-18.96 8.62-40.18 8.62-40.18l.01-.02c1.62.91 3.21 2.26 4.67 4.05v.01c2.399 2.92 4.43 6.97 5.649 12.09.7 2.95 1.341 6.15 1.83 9.52.311 2.11.58 4.28.771 6.49 1.1 12.52 0 26.21-6.25 36.46-9.11 14.94-26.23 20.4-50.65 6.19-24.41-14.22-48.46-48.46-48.46-48.46s-1.48-3.35-4.25-8.14c-.72-1.22-1.51-2.54-2.38-3.92.56.34 14.27 8.58 30.12 17.2z"/><path d="m458.88 241.93c.37 10.19 1.28 20.25 1.28 23.61-1.46-1.79-3.05-3.14-4.67-4.05-3.641-2.06-7.4-1.85-10.09.84-1.341 1.34-2.82 2.74-4.381 4.01 0 0-9.829-24.78-2.539-26.23 7.28-1.46 20.03-8.39 20.4 1.82z"/><path d="m455.49 261.49-.01.02s-.61 21.22-8.62 40.18c-5.69 13.43-21.87 10.93-43.73 0-5.49-2.75-11.17-5.75-16.59-8.71.86-3.55 5.25-20.04 13.68-28.46 9.47-9.48 17.12-3.28 24.05 3.64 5.33 5.33 11.52 2.45 16.75-1.82 1.561-1.27 3.04-2.67 4.381-4.01 2.689-2.69 6.449-2.9 10.089-.84zm-96.69 18.21-.01.01c-9.97-2.52-19.54 2.08-28.82 9.92-2.73-.83-4.51-1.3-4.51-1.3-19.97-4.36-46.32-4.4-67.85 4.25-4.17 1.67-8.16 3.67-11.88 6.02 15.22-21.36 32.49-42.51 45.9-48.66 17.49-8.01 40.45-1.82 52.47 10.21 5.05 5.04 9.19 10.72 12.3 15.62 0 0 .01 0 .02.01.87 1.38 1.66 2.7 2.38 3.92z"/><path d="m285.03 310.66c-7.95-7.25-17.46-13.7-26.82-16.56l-.6-1.52c21.53-8.65 47.88-8.61 67.85-4.25 0 0 1.78.47 4.51 1.3-10.98 9.25-21.56 23.02-31.95 34.87l-1.91-2.03c-3.07-3.88-6.86-7.96-11.08-11.81z"/><path d="m296.11 322.47 1.91 2.03c-2.87 3.28-5.72 6.4-8.57 9.25-3.03 3.03-6.57 6.6-10.54 10.57l-.64-.64a97.21 97.21 0 0 0 -3.11-3.71c-8.59-9.73-20.92-19.85-33.16-24.12 13.15-4.43 28.76-5.79 43.03-5.19 4.22 3.85 8.01 7.93 11.08 11.81z"/><path d="m242 315.85c-2.66.89-5.22 1.91-7.65 3.07l-1.75-1.2a734.88 734.88 0 0 1 13.13-19.12c3.72-2.35 7.71-4.35 11.88-6.02l.6 1.52c9.36 2.86 18.87 9.31 26.82 16.56-14.27-.6-29.88.76-43.03 5.19z"/><path d="m275.16 339.97-.15.14c-18.1-3.28-42.69-2.93-61.04 5.14-.88-.33-1.75-.63-2.63-.9l-.12-.11c9.19-10.32 16.84-19.7 21.38-26.52l1.75 1.2c2.43-1.16 4.99-2.18 7.65-3.07 12.24 4.27 24.57 14.39 33.16 24.12z"/></g><g fill="none" stroke="#000" stroke-width="13.117"><path d="m638.08 367.19s.05-.24.16-.68c.87-3.53 5.25-20.03 13.689-28.47 9.471-9.47 17.12-3.28 24.04 3.65 5.34 5.33 11.53 2.45 16.761-1.82 1.56-1.27 3.039-2.67 4.38-4.01 2.68-2.69 6.449-2.9 10.09-.84 1.62.9 3.21 2.26 4.67 4.05 2.39 2.91 4.42 6.97 5.64 12.09.71 2.95 1.34 6.16 1.84 9.52.311 2.11.58 4.28.771 6.49 1.1 12.52 0 26.21-6.25 36.46-9.12 14.94-26.24 20.4-50.65 6.19s-48.46-48.46-48.46-48.46-1.479-3.35-4.26-8.13c-.71-1.23-1.5-2.54-2.38-3.92-3.11-4.9-7.26-10.59-12.311-15.64-12.02-12.02-34.979-18.22-52.47-10.2-11.3 5.18-25.34 21.01-38.57 38.64-2.479 3.29-4.92 6.64-7.319 10-4.62 6.5-9.061 13.01-13.141 19.13-3.51 5.26-8.85 12.04-15.319 19.59a508.29 508.29 0 0 1 -6.07 6.94c-9.3 10.46-20.18 21.88-30.979 32.57-8.681 8.58-17.32 16.69-25.05 23.44-6.08 5.319-11.6 9.79-16.15 13-2.7 1.91-5.06 3.37-6.99 4.3-9.11 4.39-19.4 7.76-29.52 11.82-11.732 4.7-23.232 10.32-32.432 19.51-5.98 5.99-8.4 14.899-9.03 23.97-1.16 16.9 3.93 34.34 3.93 34.34s-1.45 11.65 63.4 16.75c64.86 5.11 113.68-2.91 147.94-9.47 34.25-6.56 82.35-18.21 90.36-26.23 8.02-8.02 25.51-25.51 37.899-16.77 12.391 8.75 15.3 5.83 50.28-3.64 34.979-9.48 59.75-16.761 69.96-26.96 10.2-10.2 4.74-20.771-6.2-46.271 0 0-5.939-12.91-13.96-29.77-11.67-24.55-27.74-57.47-36.26-71.19-.01 0-.01-.01-.01-.01"/><path d="m608.1 349.3s.011 0 .021.01c.56.34 14.27 8.58 30.12 17.2 5.43 2.95 11.109 5.95 16.6 8.7 21.86 10.93 38.04 13.43 43.72 0 8.021-18.95 8.631-40.18 8.631-40.18m-352.982 167.87h.02c1.07.359 39.53 12.71 77.61-5.261 12.67-5.979 26.44-15.409 40-26.159 10.04-7.95 19.96-16.631 29.23-25.16 8.93-8.221 17.26-16.301 24.5-23.47 1.75-1.73 3.43-3.41 5.04-5.01 3.97-3.97 7.51-7.54 10.54-10.57 2.85-2.85 5.71-5.97 8.58-9.25 10.39-11.85 20.97-25.61 31.939-34.86 9.28-7.84 18.85-12.45 28.83-9.93"/><path d="m692.73 339.87s-9.83-24.78-2.551-26.24c7.29-1.46 20.04-8.38 20.41 1.82.36 10.21 1.28 20.28 1.28 23.62m-398.079 207.39c14.65-22.56 30.56 4.28 43.88 14.4 9.88 7.489 24.39 7.25 36.3 6.77 16.55-.649 33.51-1.35 50.049-2.77 40.681-3.49 85.4-8.021 123.49-23.271 16.75-6.689 30.67-16.57 45.471-26.439 9.6-6.42 17.63-14.74 27.529-20.5 2.91-1.69 5.971-3.16 9.29-4.29 22.431-7.7 47.05-.94 69.17-8.58 13.971-4.83 42.24-25.71 37.41-43.42"/><path d="m390.67 486.82c.02-.011.05-.03.07-.04 16.37-9.21 49.81-13.04 66.79-9.73m-25.16-26.28c2.32-.909 4.78-1.71 7.34-2.399 16.58-4.48 37.42-4.54 53.08-2.43m-29.75-28.071c.88.27 1.76.57 2.64.9 13.471 5.05 26.931 16.98 35.271 27.48m-8.871-57.41c.54.16 1.07.34 1.61.54 12.25 4.25 24.579 14.38 33.18 24.12a97.21 97.21 0 0 1 3.11 3.71m-20.06-49.59c9.35 2.87 18.86 9.31 26.811 16.56 4.22 3.85 8.01 7.93 11.09 11.82" stroke-linecap="round" stroke-linejoin="round"/><path d="m438.29 447.82c.479.18.95.37 1.42.55 12.79 5.05 21.05 11.229 29.84 21.74m-7.68-49.51c1.24-.65 2.51-1.26 3.81-1.83 18.351-8.06 42.931-8.42 61.04-5.14m-40.66-21.19a64.65 64.65 0 0 1 7.631-3.06c13.149-4.44 28.77-5.79 43.04-5.2 5.93.26 11.63.85 16.81 1.7m-56.281-13.65c.061-.04.13-.08.19-.12 3.72-2.35 7.7-4.35 11.87-6.01 21.529-8.64 47.89-8.61 67.85-4.24 0 0 1.78.47 4.5 1.3 7.07 2.16 20.54 6.79 25.8 12.05m-106.52 71.04.12.07 111.91 68.83m-87.41-92.3 114.94 71.8.01.01" stroke-linecap="round" stroke-linejoin="round"/><path d="m504.97 362.53c-.069-.14-.13-.28-.2-.42-11.399-23.8-28.439-55.73-36.359-68.46-.01 0-.01-.01-.01-.01m-329.431 119.66c-2.67 1.89-5.01 3.33-6.93 4.26-9.11 4.39-19.39 7.76-29.51 11.82-11.73 4.69-23.24 10.32-32.43 19.51-5.98 5.98-8.41 14.9-9.03 23.971-1.16 16.899 3.93 34.329 3.93 34.329s-1.46 11.659 63.4 16.76c64.85 5.1 113.68-2.91 147.93-9.47 34.25-6.561 82.35-18.221 90.36-26.24 8.02-8.021 27.81-23.19 40.2-14.46 0 .01.01.01.01.01m-50.5-198.02c-3.11-4.9-7.25-10.58-12.3-15.62-12.02-12.03-34.98-18.22-52.47-10.21-13.41 6.15-30.68 27.3-45.9 48.66-4.62 6.49-9.06 13-13.13 19.12-4.54 6.82-12.19 16.2-21.38 26.52-9.3 10.46-20.18 21.89-30.99 32.58-15.51 15.34-30.87 29.16-41.23 36.46"/><path d="m460.16 265.55c2.399 2.92 4.43 6.97 5.649 12.09.7 2.95 1.341 6.15 1.83 9.52.311 2.11.58 4.28.771 6.49 1.1 12.52 0 26.21-6.25 36.46-9.11 14.94-26.23 20.4-50.65 6.19-24.41-14.22-48.46-48.46-48.46-48.46s-1.48-3.35-4.25-8.14c-.72-1.22-1.51-2.54-2.38-3.92"/><path d="m386.37 293.67s.05-.24.17-.69c.86-3.55 5.25-20.04 13.68-28.46 9.47-9.48 17.12-3.28 24.05 3.64 5.33 5.33 11.52 2.45 16.75-1.82 1.561-1.27 3.04-2.67 4.381-4.01 2.689-2.69 6.449-2.9 10.09-.84 1.62.91 3.21 2.26 4.67 4.05"/><path d="m356.4 275.77s.01 0 .02.01c.56.34 14.27 8.58 30.12 17.2 5.42 2.96 11.1 5.96 16.59 8.71 21.86 10.93 38.04 13.43 43.73 0 8.01-18.96 8.62-40.18 8.62-40.18m-352.97 167.87h.02c1.07.351 39.52 12.7 77.61-5.26 12.67-5.98 26.44-15.42 40-26.16 10.04-7.96 19.95-16.63 29.22-25.17 8.94-8.21 17.27-16.3 24.51-23.47 1.75-1.73 3.43-3.4 5.04-5 3.97-3.97 7.51-7.54 10.54-10.57 2.85-2.85 5.7-5.97 8.57-9.25 10.39-11.85 20.97-25.62 31.95-34.87 9.28-7.84 18.85-12.44 28.82-9.92"/><path d="m441.02 266.34s-9.829-24.78-2.539-26.23c7.279-1.46 20.029-8.39 20.399 1.82.37 10.19 1.28 20.25 1.28 23.61v.01m-398.08 207.39c14.65-22.561 30.56 4.279 43.89 14.399 9.87 7.49 24.38 7.25 36.29 6.771 16.56-.66 33.51-1.351 50.05-2.78 40.69-3.49 85.4-8.021 123.5-23.26 16.74-6.69 30.67-16.58 45.46-26.45 9.6-6.41 17.63-14.73 27.53-20.49 2.9-1.69 5.97-3.16 9.29-4.3 19.06-6.54 51.561-2.64 70.9-6"/><g stroke-linecap="round" stroke-linejoin="round"><path d="m138.97 413.3c.01-.01.02-.01.03-.02 16.35-9.23 49.83-13.06 66.82-9.76m-25.16-26.27a68.01 68.01 0 0 1 7.35-2.39c16.58-4.49 37.42-4.55 53.07-2.45m-29.74-28.06c.88.27 1.75.57 2.63.9 13.47 5.04 26.93 16.96 35.27 27.47m-8.87-57.41c.54.17 1.08.34 1.63.54 12.24 4.27 24.57 14.39 33.16 24.12a97.21 97.21 0 0 1 3.11 3.71m-20.06-49.58c9.36 2.86 18.87 9.31 26.82 16.56 4.22 3.85 8.01 7.93 11.08 11.81"/><path d="m186.59 374.3c.48.18.95.36 1.42.56 12.78 5.03 21.04 11.22 29.83 21.72m-7.68-49.5c1.24-.65 2.51-1.26 3.81-1.83 18.35-8.07 42.94-8.42 61.04-5.14m-40.66-21.19c2.43-1.16 4.99-2.18 7.65-3.07 13.15-4.43 28.76-5.79 43.03-5.19 5.93.26 11.62.85 16.8 1.7m-56.27-13.65.17-.11c3.72-2.35 7.71-4.35 11.88-6.02 21.53-8.65 47.88-8.61 67.85-4.25 0 0 1.78.47 4.51 1.3 7.08 2.17 20.53 6.8 25.79 12.06m-106.52 71.03.12.07 111.91 68.83m-87.41-92.3h.01l114.93 71.81"/></g></g><path d="m0 0h850.394v850.394h-850.394z" fill="none"/></svg>