<svg height="850" viewBox="0 0 850 850" width="850" xmlns="http://www.w3.org/2000/svg"><path d="m365.6 441h412.2v16h-436.5v-16h7z" fill="#7a7878"/><path d="m315.3 340.5-.2 49.5-109.5 3.5-.8-3.2 8-7.5 17.8-16.3 9.5-8.7 9-7.8 6.7-5.7 2.3-1.5 1.5-.8 3.7-.2 7-.3 19-.5z" fill="#fff"/><path d="m365.6 329.8v111.2h-17.3v-111.2l.3-1.8.5-1.5.7-1.5 1-1.2 1.3-1.3 1.5-.7 1.5-.5h3.5l1.7.5 1.3.7 1.2 1.3 1.3 1.2.7 1.5.5 1.5z" fill="#7a7878"/><path d="m363.3 298.5 6.5 10.8-6.5 11h-12.5l-6.2-11 6.2-10.8z" fill="#faa41f"/><path d="m449.3 378.3 2.8.2 2.7.5 2.5.8 2.5 1 2.5 1.2 2.3 1.5 2 1.5 2 2 1.7 2 1.5 2 1.3 2.5 1.2 2.3.8 2.7.7 2.5.3 2.8v3l-.3 2.7-.5 2.8-.7 2.5-1 2.5-1 2.5-1.5 2.2-1.8 2-1.7 2-2 1.8-2.3 1.5-2.2 1.2-2.5 1-2.5 1-2.8.5-2.7.5h-2.8l-2.7-.2-2.8-.5-2.7-.8-2.5-1-2.3-1.2-2.2-1.3-2-1.7-2-1.8-1.8-2-1.5-2.2-1.2-2.3-1.3-2.5-.7-2.5-.8-2.7-.2-2.8v-5.5l.5-2.7.7-2.8 1-2.5 1.3-2.2 1.5-2.3 1.7-2.2 1.8-1.8 2-1.7 2.2-1.5 2.3-1.5 2.5-1 2.5-.8 2.5-.7 2.7-.3z" fill="#7a7878"/><path d="m609.6 309.5v.5l-1 33.8h-91.8l16.5-10 15.3-8.8 7.7-4.2 7-3.8 4.5-2 4.8-1.7 5.2-1.3 5.8-1 6-.7 6.5-.5 6.5-.3z" fill="#fff"/><path d="m704.8 334.5-4.7 9-91.5.3 1-33.8v-.5l8 .3 8.2.5 8.5.7 8.8.8 5.7.7 6 1.3 5.8 1.5 5.5 1.5 5.5 2 5 1.7 4.7 2 4.5 2 7.8 3.8 6 3.2z" fill="#fff"/><path d="m608.6 343.8 91.5-.3 4.8-9-5.3-3-6-3.3-7.8-3.8-4.5-2-4.8-2-5-1.8-5.5-2-5.5-1.5-5.8-1.5-6-1.3-5.8-.8-8.8-.8-8.5-.8-8.3-.5-8-.3h-7l-6.5.3-6.5.5-6 .8-5.8 1-5.3 1.3-4.8 1.8-4.5 2-7 3.8-7.8 4.3-15.3 8.8-16.5 10zm59 65.2-.3 1.3-.3.5-.3.5v2l-60 .5-43 .3h-19l-14.8-.3-45.2-1.3-.3-2.5 1.8-.3v-3.7l-.3-4.3-.8-4.3-1.3-4.8-1-2.3-1-2.5-1.3-2.3-1.5-2.3-1.8-2.5-2-2.3-2.3-2-2.5-2.3-2.5-1.8-2.8-1.8-3-1.3-3-1-3-.8-3.3-.3-3.3-.3h-3.3l-3 .5-3.3.5-3 1-3 1-2.8 1.5-2.8 1.8-2.5 1.8-2.3 2.3-2 1.8-2 2-2.3 3-1 1.8-1 2-1 2.3-1 2.3-.5 2.5-.5 2.8-.3 2.8v3l1.8.3v1.3l.3 1.3-4.8-.3h-3l-2.5-.5-2.3-.5-1.8-.5-2.3-1.3-1-.5v-8l-.5-8.8-.8-10.8v-2.7l.3-1.5.5-1.3 1-2.3 1.3-1.5 1.3-1.3 1-1 1.3-.5v-3.6l.3-2.3.8-2.8 1.3-3 .8-1.5 1-1.5 1.3-1.5 1.5-1.5 1-.8 1.5-.8 3.8-1.5 5-1.3 6-1.5 6.8-1 7.3-1.3 15.5-2 15-1.8 12.8-1.3 12.5-1 8-4.8 8.7-5 18.3-9.5 14.3-7.3 6-3 3-1.8 3.8-1.5 4.3-1.5 5-1.5 6.3-1.5 7.8-1.3 9-1 11-.8 8-.5h7.5l7.3.3 6.5.5 6.5.5 5.8 1 5.5.8 5.3 1.3 4.8 1 4.5 1.3 7.5 2.5 6.3 2.3 5 2 30 13.8 23.8 10.8 15.3 2 12 1.5 5 .5 3.5.3 1.3.3 1 .3.8.3.5.5.3.5.3.5v1.5l-.3 1.8-.5 1.8-.5 1.8v1.8l1 10.8 1.5 11.3 1 1 .8 1.5 1 1.5.5 2 .5 1.8.3 2.3-.3 2.3-.5 2.5-2.5 7.8-2.3 8.3-2.5 9.5-33.3 3-.3-3.8-.8-4.3-1-4.3-.8-2.3-.8-2.3-1-2.3-1.3-2-1.5-2-1.5-2-2-1.8-2-1.5-2.3-1.5-2.8-1-3.8-1.5-3.8-1-3.5-.8-3.3-.3-3.3-.3-3 .3-2.8.3-2.8.8-2.5.8-2.5.8-2.3 1.3-2 1.3-4 2.8-3.5 3-2 2.3-2 2.8-1.5 3-1.5 3-1 3.3-1.3 3.3-1.5 6.3z" fill="#a9d7f3"/><path d="m646.1 505 .8-3.8 1.3-3.8 1.5-3.5 1.8-3.3 2-3 2.3-3 2.3-2.8 2.8-2.5 3-2.5 3.3-2 3.3-1.8 3.5-1.5 3.5-1 3.8-1 3.8-.5 4-.3h1.3l4.3.5 4.3.8 4 1 4 1.5 3.5 2 3.5 2 3.3 2.5 3 2.8 2.8 3.3 2.3 3.3 2.3 3.5 1.8 3.8 1.3 3.8 1 4.3.8 4.3.3 4.3-.3 4.5-.8 4.3-1 4-1.5 4-1.8 3.8-2.3 3.5-2.5 3.5-2.8 3-3 2.8-3.3 2.5-3.5 2.3-4 1.8-3.8 1.5-4.3 1-4.3.8-4.5.3-4.3-.3-4.3-.8-4.3-1-4-1.5-3.8-1.8-3.5-2.3-3.3-2.5-3.3-2.8-2.8-3-2.5-3.5-2-3.5-2-3.8-1.5-4-1-4-.5-4.3-.3-4.5v-3.8zm44 6.8v-.8l-.5-.3-.3-.5h-1.3l-.5.5-.3.3-.3.8.3.5.3.5.5.3.5.3.8-.3.3-.3.5-.5zm-583.8-3.5.8-3.8 1-3.8 1.5-3.5 1.5-3.5 2-3.3 2.3-3 2.5-2.8 2.8-2.8 3-2.3 3-2 3.5-2 3.5-1.5 3.5-1.3 4-.8 3.8-.5 4-.3 4.5.3 4.3.5 4.3 1.3 4 1.5 3.8 1.8 3.5 2 3.3 2.5 3 3 3 3 2.3 3.3 2.3 3.5 1.8 3.8 1.5 4 1 4.3.8 4.3.3 4.5-.3 3.3-.3 3.5-.8 3.8-1.3 3.8-1.5 3.5-1.5 3.3-2 3.3-2.3 3-2.5 2.8-2.8 2.5-3 2.5-3 2-3.5 1.8-3.5 1.5-3.5 1.3-3.8.8-4 .5-4 .3-4.3-.3-4.3-.5-4.3-1.3-4-1.3-3.8-2-3.5-2-3.3-2.5-3.3-2.8-2.8-3.3-2.5-3.3-2-3.5-2-3.8-1.3-4-1.3-4.3-.5-4.3-.3-4.3v-3.3zm44 5.7v-.5l-.3-.5-.5-.3h-1.3l-.5.3-.3.5-.3.5.3.8.3.5.5.3h1.3l.5-.3.3-.5z" fill="#7a7878"/><path d="m90.6 470.5v-.7l3.7 1 .8-2.3 1.2-2.5 1.8-3 2.5-3.5 3.2-4 2-2 2.3-2 2.7-2 2.8-1.7 2-1.3 2.5-1.2 3-1.3 3.5-1 4-1.2 4.2-1 4.5-.8 4.8-.7 5-.5 5.2-.3 5.3.3 5.2.2 5.5 1 5.3 1.3 5.2 1.7 5 2.3 4.3 2.2 4 2.5 3.7 2.8 3.3 2.5 2.7 2.7 2.5 2.5 2 2.5 2 2.5 2.8 4.5 2 3.3 1 2.5.2.7v41h-2.2l-20 4h-.5l.2-3.5.3-3.2-.3-4.5-.7-4.3-1-4.2-1.5-4-1.8-3.8-2.2-3.5-2.3-3.2-3-3-3-3-3.2-2.5-3.5-2-3.8-1.8-4-1.5-4.2-1.2-4.3-.5-4.5-.3-4 .3-3.7.5-4 .7-3.5 1.3-3.5 1.5-3.5 2-3 2-3 2.2-2.8 2.8-2.5 2.7-2.2 3-2 3.3-1.5 3.5-1.5 3.5-1 3.7-.8 3.8-15.7-11.5z" fill="#c8c8c8"/><path d="m689.1 457 1 6.5-.3 5.5h-1.2l-4 .3-3.8.5-3.7 1-3.5 1-3.5 1.5-3.3 1.7-3.2 2-3 2.5-2.8 2.5-2.2 2.8-2.3 3-2 3-1.7 3.2-1.5 3.5-1.3 3.8-.7 3.7h-205.5v-33.7h-104v-14.3h4.7z" fill="#33a048"/><path d="m440.6 505v18.8h-226.3v-47.3l122.3-1v-4.2h104z" fill="#7a7878"/><path d="m72.6 465.5-3.5-.8.3-16.5 1.3-37.5.5-2.8.8-2.5 1-2.3 1.8-2 2-2.3 2.3-1.8 2.5-2 2.8-1.5 3.3-1.8 3.3-1.5 3.8-1.3 3.8-1.3 7.8-2.3 8.3-2 8.5-1.8 8.5-1.3 16-2.3 13.3-1.8 5-.8 4-.8 3.3-1 3.5-1.5 4-2 4-2.3 4.5-2.8 4.5-3 9.5-6.8 19.5-14.3 9.5-6.8 4.5-3 4.5-2.8 2-1 2.3-1 2.5-1 2.8-.8 6.3-1.3 7-1.3 7.8-1 8-.8 8.3-.5 8.3-.3 15.5-.5h25.5v155.6l-122.3 1-.3-.8-1-2.5-2-3.3-2.8-4.5-2-2.5-2-2.5-2.5-2.5-2.8-2.8-3.3-2.5-3.8-2.8-4-2.5-4.3-2.3-5-2.3-5.3-1.8-5.3-1.3-5.5-1-5.3-.3-5.3-.3-5.3.3-5 .5-4.8.8-4.5.8-4.3 1-4 1.3-3.5 1-3 1.3-2.5 1.3-2 1.3-2.8 1.8-2.8 2-2.3 2-2 2-3.3 4-2.5 3.5-1.8 3-1.3 2.5-.8 2.3-3.8-1-17.9-3zm242.5-75.5.3-49.5-26 .5-19 .5-7 .3-3.8.3-1.5.8-2.3 1.5-6.8 5.8-9 7.8-9.5 8.8-17.8 16.3-8 7.5.8 3.3z" fill="#33a048"/><path d="m705.3 383.8 2.5.2 2.5.5 2.5.8 2.3 1 2 1 2.2 1.5 1.8 1.7 1.7 1.8 1.5 2 1.5 2 1.3 2.2 1 2.5.7 2.5.5 2.5.3 2.8v5.7l-.5 2.5-.8 2.8-1 2.5-1 2.2-1.2 2.3-1.5 2-1.8 2-1.7 1.7-2 1.5-2 1.3-2.3 1-2.5 1-2.2.5-2.5.5h-2.8l-2.5-.3-2.5-.5-2.2-.7-2.3-1-2.2-1.3-2-1.2-1.8-1.8-1.7-1.7-1.8-2-1.2-2-1.3-2.3-1-2.5-.7-2.5-.5-2.7-.3-2.5-.2-3 .2-2.8.5-2.7.8-2.5.7-2.5 1.3-2.3 1.2-2.2 1.5-2 1.8-2 1.7-1.8 2-1.5 2-1.2 2.3-1 2.2-1 2.5-.5 2.5-.5z" fill="#7a7878"/><g fill="none" stroke="#231f20" stroke-linecap="round" stroke-miterlimit="10"><path d="m106.3 508.3.8-3.8 1-3.7 1.5-3.5 1.5-3.5 2-3.3 2.2-3 2.5-2.7 2.8-2.8 3-2.2 3-2 3.5-2 3.5-1.5 3.5-1.3 4-.7 3.7-.5 4-.3 4.5.3 4.3.5 4.2 1.2 4 1.5 3.8 1.8 3.5 2 3.2 2.5 3 3 3 3 2.3 3.2 2.2 3.5 1.8 3.8 1.5 4 1 4.2.7 4.3.3 4.5-.3 3.2-.2 3.5-.8 3.8-1.2 3.7-1.5 3.5-1.5 3.3-2 3.2-2.3 3-2.5 2.8-2.7 2.5-3 2.5-3 2-3.5 1.7-3.5 1.5-3.5 1.3-3.8.7-4 .5-4 .3-4.2-.3-4.3-.5-4.2-1.2-4-1.3-3.8-2-3.5-2-3.2-2.5-3.3-2.7-2.7-3.3-2.5-3.2-2-3.5-2-3.8-1.3-4-1.2-4.2-.5-4.3-.3-4.2v-3.3z" stroke-width="19.25"/><path d="m348.3 442.8v-113l.3-1.8.5-1.5.7-1.5 1-1.2 1.3-1.3 1.5-.7 1.5-.5h3.5l1.7.5 1.3.7 1.2 1.3 1.3 1.2.7 1.5.5 1.5.3 1.8v113m-29 14.2v-137h-25.5l-15.5.5-8.3.3-8.2.5-8 .7-7.8 1-7 1.3-6.2 1.2-2.8.8-2.5 1-2.2 1-2 1-4.5 2.7-4.5 3-9.5 6.8-19.5 14.2-9.5 6.8-4.5 3-4.5 2.7-4 2.3-4 2-3.5 1.5-3.3 1-4 .7-5 .8-13.2 1.7-16 2.3-8.5 1.2-8.5 1.8-8.3 2-7.7 2.2-3.8 1.3-3.7 1.2-3.3 1.5-3.2 1.8-2.8 1.5-2.5 2-2.2 1.7-2 2.3-1.8 2-1 2.2-.7 2.5-.5 2.8-1.3 37.5-.2 16.5 3.5.7 18 4.3 3.7 1 .8-2.3 1.2-2.5 1.8-3 2.5-3.5 3.2-4 2-2 2.3-2 2.7-2 2.8-1.7 2-1.3 2.5-1.2 3-1.3 3.5-1 4-1.2 4.2-1 4.5-.8 4.8-.7 5-.5 5.2-.3 5.3.3 5.2.2 5.5 1 5.3 1.3 5.2 1.7 5 2.3 4.3 2.2 4 2.5 3.7 2.8 3.3 2.5 2.7 2.7 2.5 2.5 2 2.5 2 2.5 2.8 4.5 2 3.3 1 2.5.2.7 122.3-1v-4.2z" stroke-width="14"/><path d="m214.3 477v46.8h226.3v-52.5h-104m29-30.3h412.2v16h-436.5v-16h7z" stroke-width="14"/><path d="m150.3 514v.8l-.2.5-.5.2h-1.3l-.5-.2-.2-.5-.3-.8.3-.5.2-.5.5-.2h1.3l.5.2.2.5zm539.5-45 4.3.5 4.2.8 4 1 4 1.5 3.5 2 3.5 2 3.3 2.5 3 2.7 2.7 3.3 2.3 3.2 2.2 3.5 1.8 3.8 1.2 3.7 1 4.3.8 4.2.2 4.3-.2 4.5-.8 4.2-1 4-1.5 4-1.7 3.8-2.3 3.5-2.5 3.5-2.7 3-3 2.7-3.3 2.5-3.5 2.3-4 1.7-3.7 1.5-4.3 1-4.2.8-4.5.2-4.3-.2-4.2-.8-4.3-1-4-1.5-3.7-1.7-3.5-2.3-3.3-2.5-3.2-2.7-2.8-3-2.5-3.5-2-3.5-2-3.8-1.5-4-1-4-.5-4.2-.2-4.5v-3.8l.5-3.5.7-3.7 1.3-3.8 1.5-3.5 1.7-3.2 2-3 2.3-3 2.2-2.8 2.8-2.5 3-2.5 3.2-2 3.3-1.7 3.5-1.5 3.5-1 3.7-1 3.8-.5 4-.3z" stroke-width="19.25"/><path d="m690.1 511.8v.5l-.5.5-.3.2-.7.3-.5-.3-.5-.2-.3-.5-.2-.5.2-.8.3-.2.5-.5h1.2l.3.5.5.2zm-599.5-41.3v34h-3l-3-.5-3-.7-3-1-4.3-2-1.7-1v-34.8" stroke-width="19.25"/><path d="m415.3 397v1.8l-.2 1.7-.5 1.8v3l.2 1.2-4.7-.2h-3l-2.5-.5-2.3-.5-1.7-.5-2.3-1.3-1-.5v-8l-.5-8.7-.7-10.8v-3l.2-1.5.5-1.2 1-2.3 1.3-1.5 1.2-1.2 1-1 1.3-.5v-3.5l.2-2.3.8-2.7 1.2-3 .8-1.5 1-1.5 1.2-1.5 1.5-1.5 1-.8 1.5-.7 3.8-1.5 5-1.3 6-1.5 6.7-1 7.3-1.2 15.5-2 15-1.8 12.7-1.2 12.5-1 8-4.8 8.8-5 18.2-9.5 14.3-7.2 6-3 3-1.8 3.7-1.5 4.3-1.5 5-1.5 6.2-1.5 7.8-1.2 9-1 11-.8 8-.5h7.5l7.2.3 6.5.5 6.5.5 5.8 1 5.5.7 5.2 1.3 4.8 1 4.5 1.2 7.5 2.5 6.2 2.3 5 2 30 13.7 23.8 10.8 15.2 2 12 1.5 5 .5 3.5.2 1.3.3 1 .2.7.3.5.5.3.5.2.5v1.5l-.2 1.7-.5 1.8-.5 1.7v1.8l1 10.7 1.5 11.3.2 2.5" stroke-width="14"/><path d="m486.3 409.8v-3.8l-.2-4.2-.8-4.3-1.2-4.7-1-2.3-1-2.5-1.3-2.2-1.5-2.3-1.7-2.5-2-2.2-2.3-2-2.5-2.3-2.5-1.7-2.7-1.8-3-1.2-3-1-3-.8-3.3-.2-3.2-.3h-3.3l-3 .5-3.2.5-3 1-3 1-2.8 1.5-2.7 1.8-2.5 1.7-2.3 2.3-2 1.7-2 2-2.2 3-1 1.8-1 2-1 2.2-1 2.3-.5 2.5-.5 2.7-.3 2.8v3" stroke-width="14"/><path d="m667.8 408-.2 1-.3 1.3-.2.5-.3.5v2l-60 .5-43 .2h-19l-14.7-.2-45.3-1.3-.2-2.5-.8-7.5m255.5 6.5-.2-3.7-.8-4.3-1-4.2-.7-2.3-.8-2.2-1-2.3-1.2-2-1.5-2-1.5-2-2-1.7-2-1.5-2.3-1.5-2.7-1-3.8-1.5-3.7-1-3.5-.8-3.3-.2-3.2-.3-3 .3-2.8.2-2.7.8-2.5.7-2.5.8-2.3 1.2-2 1.3-4 2.7-3.5 3-2 2.3-2 2.7-1.5 3-1.5 3-1 3.3-1.2 3.2-1.5 6.3-.5 3.5m106.5-49.5.7.7 1.8 1.8 1 1 .7 1.5 1 1.5.5 2 .5 1.7.3 2.3-.3 2.2-.5 2.5-2.5 7.8-2.2 8.2-2.5 9.5-33.3 3 .3-2.2-.3-4.3" stroke-width="14"/><path d="m679.6 410.3.2 3 .3 2.5.5 2.7.7 2.5 1 2.5 1.3 2.3 1.2 2 1.8 2 1.7 1.7 1.8 1.8 2 1.2 2.2 1.3 2.3 1 2.2.7 2.5.5 2.5.3h2.8l2.5-.5 2.2-.5 2.5-1 2.3-1 2-1.3 2-1.5 1.7-1.7 1.8-2 1.5-2 1.2-2.3 1-2.2 1-2.5.8-2.8.5-2.5v-5.7l-.3-2.8-.5-2.5-.7-2.5-1-2.5-1.3-2.2-1.5-2-1.5-2-1.7-1.8-1.8-1.7-2.2-1.5-2-1-2.3-1-2.5-.8-2.5-.5-2.5-.2h-2.5l-2.5.5-2.5.5-2.2 1-2.3 1-2 1.2-2 1.5-1.7 1.8-1.8 2-1.5 2-1.2 2.2-1.3 2.3-.7 2.5-.8 2.5-.5 2.7zm-258.5-5v2.7l.2 2.8.8 2.7.7 2.5 1.3 2.5 1.2 2.3 1.5 2.2 1.8 2 2 1.8 2 1.7 2.2 1.3 2.3 1.2 2.5 1 2.7.8 2.8.5 2.7.2h2.8l2.7-.5 2.8-.5 2.5-1 2.5-1 2.2-1.2 2.3-1.5 2-1.8 1.7-2 1.8-2 1.5-2.2 1-2.5 1-2.5.7-2.5.5-2.8.3-2.7v-3l-.3-2.8-.7-2.5-.8-2.7-1.2-2.3-1.3-2.5-1.5-2-1.7-2-2-2-2-1.5-2.3-1.5-2.5-1.2-2.5-1-2.5-.8-2.7-.5-2.8-.2-3 .2-2.7.3-2.5.7-2.5.8-2.5 1-2.3 1.5-2.2 1.5-2 1.7-1.8 1.8-1.7 2.2-1.5 2.3-1.3 2.2-1 2.5-.7 2.8-.5 2.7z" stroke-width="19.25"/><path d="m609.6 309.5h-7l-6.5.3-6.5.5-6 .7-5.8 1-5.2 1.3-4.8 1.7-4.5 2-7 3.8-7.7 4.2-15.3 8.8-16.5 10h91.8l91.5-.3 4.7-9-5.2-3-6-3.2-7.8-3.8-4.5-2-4.7-2-5-1.7-5.5-2-5.5-1.5-5.8-1.5-6-1.3-5.7-.7-8.8-.8-8.5-.7-8.2-.5z" stroke-width="14"/><path d="m609.6 310-1 33.8-1.8 70v3.2" stroke-width="7"/><path d="m204.8 390.3 8-7.5 17.8-16.3 9.5-8.7 9-7.8 6.7-5.7 2.3-1.5 1.5-.8 3.7-.2 7-.3 19-.5 26-.5-.2 49.5-109.5 3.5z" stroke-width="14"/><path d="m350.8 320.3-6.2-11 6.2-10.8h12.5l6.5 10.8-6.5 11z" stroke-width="6.5"/><path d="m438.3 505h209" stroke-width="14"/></g></svg>