<svg height="850.394" viewBox="0 0 850.394 850.394" width="850.394" xmlns="http://www.w3.org/2000/svg"><path d="m612.529 443.806c4.525 16.552 5.278 35.518 3.52 41.825-1.118 3.974-6.285 9.632-11.153 9.028-5.391-.574-6.605-13.278-9.237-17.334-4.086.843-1.983 6.807-5.003 6.807-2.616-2.609-3.488-9.804-3.488-17.318 0-8.864 1.215-18.191 2.243-21.017z" fill="#ffeec8"/><path d="m541.637 405.665c1.565 4.205 5.621 16.044 8.275 32.647l-1.514.238-126.868-.76c2.319-19.996 6.099-32.073 6.099-32.073l-4.213-53.805-42.645 93.371-22.09-5.562s13.912-47.901 19.578-70.751c8.201-33.146 35.309-87.816 35.309-87.816 6.911-6.896 18.542-15.023 28.45-21.419 9.654-6.233 17.669-10.833 18.064-11.064 6.046 6.345 13.747 10.147 22.135 10.147 9.133 0 17.453-4.503 23.7-11.884.515.298 9.513 5.427 20.145 12.182 10.952 6.956 23.626 15.641 30.545 22.545 0 0 27.107 54.663 35.309 87.809 5.628 22.851 19.563 70.767 19.563 70.767.373 1.17.716 2.363 1.051 3.57l-23.119 1.991-42.667-93.371z" fill="#a9d7f3"/><path d="m540.235 669.711.037-.015c.022 7.478 14.501 14.083 25.803 20.531 7.046 4.026 11.071 10.989 8.983 18.438-1.752 6.181-15.365 9.64-22.254 5.688-11.943-6.821-4.167-4.488-13.062-7.933-20.487-8.007-24.409-4.168-25.833-28.42z" fill="#231f20"/><path d="m552.395 469.162c0 34.189-11.049 185.467-12.159 200.549l-26.325 8.29-2.445-16.372h-.022l-20.109-177.079-10.206-.037-20.539 177.817.037.008-1.745 13.837-25.832-8.402c0 .224-.016.439-.045.663-1.454-18.108-13.249-165.971-13.249-199.759 0-11.607.746-22.022 1.774-30.887l126.868.76 1.514-.238c1.446 9.028 2.483 19.465 2.483 30.85z" fill="#7a7878"/><path d="m505.918 246.933c-6.247 7.381-14.567 11.884-23.7 11.884-8.388 0-16.089-3.802-22.135-10.147-7.963-8.357-13.055-21.136-13.055-35.458 0-25.184 15.753-45.612 35.189-45.612 19.451 0 35.204 20.428 35.204 45.612.001 13.36-4.436 25.386-11.503 33.721z" fill="#ffeec8"/><path d="m433.005 668.436c.029-.224.045-.439.045-.663l25.832 8.402c-1.438 24.267-5.36 20.428-25.862 28.427-8.887 3.43-1.11 1.118-13.054 7.94-6.896 3.943-20.495.47-22.254-5.703-2.11-7.434 1.931-14.404 8.984-18.415 10.973-6.271 25.437-12.764 26.309-19.988z" fill="#231f20"/><path d="m380.772 445.282c1.021 2.833 2.244 12.152 2.244 21.017 0 7.522-.88 14.709-3.497 17.318-2.997 0-.924-5.964-5.01-6.791-2.602 4.04-3.84 16.774-9.23 17.341-4.861.581-10.042-5.063-11.161-9.043-1.901-6.777-.872-28.085 4.563-45.403z" fill="#ffeec8"/><g fill="none" stroke="#231f20" stroke-width="10.438"><path d="m460.083 248.669c-7.963-8.357-13.055-21.136-13.055-35.458 0-25.184 15.753-45.612 35.189-45.612 19.451 0 35.204 20.428 35.204 45.612 0 13.36-4.437 25.386-11.504 33.721-6.247 7.381-14.567 11.884-23.7 11.884-8.387 0-16.088-3.802-22.134-10.147z"/><path d="m358.682 439.721s13.912-47.901 19.578-70.751c8.201-33.146 35.309-87.816 35.309-87.816 6.911-6.896 18.542-15.023 28.45-21.419 9.654-6.233 17.669-10.833 18.064-11.064.007-.007.015-.007.015-.007"/><path d="m433.154 670.255s-.053-.626-.149-1.819c-1.454-18.108-13.249-165.971-13.249-199.759 0-11.607.746-22.022 1.774-30.887 2.319-19.996 6.099-32.073 6.099-32.073l-4.213-53.805-42.645 93.371c1.021 2.833 2.244 12.152 2.244 21.017 0 7.522-.88 14.709-3.497 17.318-2.997 0-.924-5.964-5.01-6.791-2.602 4.04-3.84 16.774-9.23 17.341-4.861.581-10.042-5.063-11.161-9.043-1.901-6.777-.872-28.085 4.563-45.403m252.799.513s-13.935-47.916-19.563-70.767c-8.201-33.146-35.309-87.809-35.309-87.809-6.919-6.904-19.593-15.589-30.545-22.545-10.632-6.755-19.63-11.884-20.145-12.182-.015 0-.022-.007-.022-.007m35.555 160.685.187-1.946 5.106-53.239 42.667 93.371c-1.028 2.825-2.243 12.152-2.243 21.017 0 7.515.872 14.709 3.488 17.318 3.02 0 .917-5.964 5.003-6.807 2.632 4.056 3.847 16.76 9.237 17.334 4.868.604 10.035-5.055 11.153-9.028 1.759-6.308 1.006-25.273-3.52-41.825a98.434 98.434 0 0 0 -1.051-3.57"/><path d="m540.146 670.926.09-1.215c1.11-15.082 12.159-166.359 12.159-200.549 0-11.385-1.036-21.822-2.482-30.851-2.654-16.603-6.71-28.442-8.275-32.647a53.716 53.716 0 0 0 -.648-1.678m-80.296 257.844-.067.508-1.745 13.837c-1.438 24.267-5.36 20.428-25.862 28.427-8.887 3.43-1.11 1.118-13.054 7.94-6.896 3.943-20.495.47-22.254-5.703-2.11-7.434 1.931-14.404 8.984-18.415 10.974-6.271 25.438-12.764 26.31-19.988.029-.224.045-.439.045-.663"/><path d="m511.465 661.629 2.445 16.372c1.424 24.252 5.346 20.413 25.833 28.42 8.895 3.444 1.118 1.111 13.062 7.933 6.889 3.951 20.502.492 22.254-5.688 2.088-7.448-1.938-14.411-8.983-18.438-11.302-6.448-25.78-13.054-25.803-20.531m-28.704-6.92-.127-1.148-20.107-177.079-10.206-.037-20.539 177.817m-39.685-224.548.626.008 126.867.76m-189.716 1.171 22.09 5.561m208.638.515 23.119-1.991.724-.06m-180.203 224.026 25.832 8.403"/><path d="m513.91 678.001 26.325-8.29.037-.015"/></g><path d="m0 0h850.394v850.394h-850.394z" fill="none"/><path d="m755 741.486h-593.49v-636.325h593.49zm-103.325-318.162c0-106.161-86.06-192.23-192.23-192.23-106.161 0-192.23 86.069-192.23 192.23 0 106.171 86.069 192.239 192.23 192.239 106.17 0 192.23-86.068 192.23-192.239z" fill="#abd153"/><g fill="none" stroke="#231f20" stroke-width="14"><path d="m161.51 105.161h593.49v636.325h-593.49z"/><path d="m651.675 423.324c0 106.171-86.06 192.239-192.23 192.239-106.161 0-192.23-86.068-192.23-192.239 0-106.161 86.069-192.23 192.23-192.23 106.17 0 192.23 86.069 192.23 192.23z" stroke-linecap="round" stroke-linejoin="round"/></g><g stroke="#231f20" stroke-width="21"><path d="m65.529 401.019 252.398-.802" fill="#fff"/><path d="m235.17 326.655 84.361 73.834-84.022 74.337" fill="none"/></g><path d="m0 0h850.394v850.394h-850.394z" fill="none"/></svg>