<svg height="850.394" viewBox="0 0 850.394 850.394" width="850.394" xmlns="http://www.w3.org/2000/svg"><g fill="#9e5b16"><path d="m784.79 417.29c.71 1.87 1.04 3.81 1.04 5.75 0 8.479-6.43 17.09-16.46 20.89-12.32 4.69-25.4.34-29.21-9.689l-43.63-114.96a16.15 16.15 0 0 1 -1.05-5.75c0-8.48 6.43-17.08 16.46-20.89 12.31-4.68 25.399-.34 29.21 9.71zm-631.88-103.72c0 1.94-.33 3.88-1.04 5.75l-43.64 114.95c-3.81 10.04-16.89 14.381-29.21 9.69-10.02-3.79-16.46-12.4-16.46-20.88 0-1.94.34-3.88 1.05-5.75l43.63-114.95c3.81-10.04 16.9-14.39 29.22-9.71 10.03 3.82 16.45 12.42 16.45 20.9zm602.52 235.51-22.11 61.24h-309.49l-308.76.05-22.1-61.24v-.02h37.98l292.88-.03h305.4z"/><path d="m423.83 237.92v-.04h214.26c14.73 0 27.29 8.63 34.01 19.28l102.6 272.63c3.18 13.83-8.63 19.29-19.271 19.29h-26.199l-90.4-246.54h-417.47l-90.41 246.57h-37.98c-10.65 0-22.46-5.45-19.28-19.28l102.6-272.63c6.72-10.65 19.28-19.28 34.01-19.28z"/><path d="m638.83 302.54 90.4 246.54h-305.4l-292.88.03 90.41-246.57h210.01z"/></g><g fill="none"><g stroke="#000" stroke-width="20.406"><path d="m108.23 434.27c-3.81 10.04-16.89 14.381-29.21 9.69-10.02-3.79-16.46-12.4-16.46-20.88 0-1.94.34-3.88 1.05-5.75l43.63-114.95c3.81-10.04 16.9-14.39 29.22-9.71 10.03 3.82 16.45 12.42 16.45 20.9 0 1.94-.33 3.88-1.04 5.75zm315.6-196.39h214.26c14.73 0 27.29 8.63 34.01 19.28l102.6 272.63c3.18 13.83-8.63 19.29-19.271 19.29h-331.599l-292.88.03h-37.98c-10.65 0-22.46-5.45-19.28-19.28l102.6-272.63c6.72-10.65 19.28-19.28 34.01-19.28h214.27m315.59 196.32c3.81 10.029 16.89 14.38 29.21 9.689 10.03-3.8 16.46-12.41 16.46-20.89 0-1.94-.33-3.88-1.04-5.75l-43.64-114.94c-3.811-10.05-16.9-14.39-29.21-9.71-10.03 3.81-16.46 12.41-16.46 20.89 0 1.94.34 3.88 1.05 5.75z"/><path d="m755.43 549.08-22.11 61.24h-309.49l-308.76.05-22.1-61.24m636.26-.05-90.4-246.54h-417.47l-90.41 246.57"/></g><path d="m0 0h850.394v850.394h-850.394z"/></g></svg>