<svg height="850" viewBox="0 0 850 850" width="850" xmlns="http://www.w3.org/2000/svg"><path d="m455.1 97.2 1.3 1.5 1 2.3 1 3 1 3.5.7 3.7.8 4.5 1.2 9.8.8 10.7.7 11.5.3 11.5.2 11-.2 11.8-1 13.2-1 14.3-1.5 14.5-2 14.2-1.8 13.5-2.2 12-2 10.3-3.5 16.5-1 4.5-1.3 4.7-1.5 4.8-1.7 5-1-2.5-4.5-10.8-4.3-12-9.7-29-5.5-16.7-6.5-22.3 7.7-28 7.5-28 6-24 2.3-9.5 1.5-7.2.7-4.3 1-3.7 1-3.5 1-2.8 1-2.7 1.3-2 1-2 1.2-1.5 1.3-1 1.2-.8 1.3-.5 1.2-.2 1.3.2 1.2.5 1.3 1z" fill="#c8c8c8"/><path d="m411.9 216.2 6.5 22.3 5.5 16.8 9.8 29 4.3 12 4.5 10.8 1 2.5.8 1.3 2.3 5 2.8 4.8 2.5 4.8 3 4.3 5.8 8.3 5.5 7 4.8 5.8 4.3 4.5 4 4.3-2.3-1-2.5-.5-2.3-.3-2.3.3-2.3.5-2.3.8-2.3 1-2 1.3-1.8 1.5-2 1.5-1.5 1.8-1.5 2-1.5 1.8-1.3 2-.8 1.8-.8 2-1.8.5-1 .5-3.3.8-4.8.5-2.5.3-3 .3h-3l-3.3-.5-3.3-.5-3-1-3-1.3-2.8-1.5-2.8-2.3-1.3-1.3-1-1.5-1.8-2.5-3.5-6.8-4.3-8.3-4.5-9-4.8-10-3.3-7.3-3.3-7.5-3-7.5-2.8-7.5-2.5-7.5-2.3-7.5-2-7.3-1.3-6.8-3.8-22.5-1.8-13.5-2-14.3-1.8-14.5-1.3-14.3-1-13-.3-6.3v-5.5l.3-11.3.3-11.5.5-11.3 1-11 1.3-9.8.8-4.3.8-4 1-3.5 1-2.8 1-2.3 1.3-1.8 1.3-1 1.3-.8 1.3-.5 1.3-.3 1.3.3 1.3.3 1.3.8 1.3 1.3 1.3 1.5 1 1.8 1.3 2.3 1 2.5 1 3 1 3.3 1 3.8.8 4.3 1.5 7.3 2.3 9.8 6 24.5 7.5 28zm12.7 116.8-.3-2-.8-1.8-.8-1.8-1.5-1.3-1.5-1.3-1.8-1-2-.5-2-.3-2.3.3-2 .5-1.8 1-1.5 1.3-1.3 1.3-1 1.8-.5 1.8-.3 2 .3 2 .5 1.8 1 1.8 1.3 1.5 1.5 1 1.8 1 2 .5 2.3.3 2-.3 2-.5 1.8-1 1.5-1 1.5-1.5.8-1.8.8-1.8zm-55.5 26.5 2.5-1.3 2.5-.5h2.8l2.5.5 2.5.8 2.5 1 2.2 1.2 2 1.5 2.3 2 1.7 1.8 1.8 2 1.2 2.2 1.3 2 1 2.3.7 2 .3 1.7v2l-.8 2.3-1 3-1.7 3.5-2 4-2.3 4.2-5.7 9.5-6.5 10.3-.8-3.5-1-3.3-1.2-3-1.8-2.7-1.7-2.5-2.3-2.3-2.2-1.7-2.5-1.8-2.8-1.5-2.7-1.2-3-1.3-3.3-.7-3-.8-3.2-.2-3.5-.5h-3.3l14.3-17.3 5.5-6.2 3.5-3.8 2.5-2.2z" fill="#c8c8c8"/><path d="m478.9 359.2 2.5 1.5 2.5 2.3 8.7 9.2 12 13.5-1.2.8-3.3.2-3.2.3-3.3.2-3 .8-3 .7-3 1-2.7 1.3-2.5 1.2-2.5 1.8-2.5 1.7-2 2-2 2.3-1.5 2.5-1.5 2.7-1.3 3-.7 3.3-6.8-10.8-2.7-4.7-2.5-4.5-2-4.3-1.5-3.5-.8-2.7-.2-1.3v-1l.5-1.7.5-1.5.7-2 .8-1.8 1.2-2 1.5-1.7 1.5-2 1.5-1.8 2-1.5 1.8-1.5 2-1.2 2.2-1 2.3-.8 2.2-.5 2.3-.2 2.2.2 2.5.5z" fill="#c8c8c8"/><path d="m312.1 515.2 1.8 2.3-10.8 16.2-10.7 15.8-8 11.5-7.5 10.2-6.8 9.3-6 7.5-4 4.7-4 3.8-3.7 3-4 2.2-3.8 1.8-3.7 1-3.5.5h-3.5l-3.3-.3-3-1-2.7-1-2.8-1.5-2.2-1.7-2.3-2-1.7-2.3-1.5-2.2-1.8-.5 2.5-3.8 2.3-3.2 1.2-3 1-2.5 1.8-9.3 1.2-5.2 1.5-5.3 2-5 1-2.5 1.3-2.2 1.5-2 1.5-2 1.7-1.8 2-1.5 2.3-1 2.7-1.2 3.3-.8 3.5-.7 7.7-1.3 8.8-1.5 9.2-1.7 4.8-1.3 4.5-1.2 4.7-1.5 4.3-2 4.2-2.3 4-2.7 3-2.3 2.8-2.2 2.2-2.3 2-2z" fill="#faa41f"/><path d="m309.1 515.2 1.8-2 1.2-2 1-2 .8-1.7.5-1.8.5-2v-1.5l-.3-1.7-.2-1.5-.5-1.8-.8-1.5-1-1.2-2-3-2.7-2.5-.5-.3-1-.2-2.5-.3-4 .3-5.3.7-14.5 2.5-20.5 3.8-.2-1 1.2-1.8 2.3-3.2 7-9.5 15-19.3 18.2-23.2 19.5-24.5 18.5-22.5h3.3l3.5.5 3.2.2 3 .8 3.3.7 3 1.3 2.7 1.2 2.8 1.5 2.5 1.8 2.2 1.7 2.3 2.3 1.7 2.5 1.8 2.7 1.2 3 1 3.3.8 3.5-17.8 27.5-20.5 32-26.7 40.5-1.8-2.3zm327.8 78.3-1.8.5-1.5 2.2-1.7 2.3-2 2-2.5 1.7-2.5 1.5-3 1-3 1-3.3.3h-3.2l-3.8-.5-3.5-1-4-1.8-3.7-2.2-4-3-4-3.8-4-4.7-6.3-8-7.2-9.5-7.8-11-8.2-12-20.5-29.8 2-2.5 2-1.5 2 2.5 2.5 2.5 3 2.5 3.5 2.8 4 2.7 4.2 2.3 4.5 2 4.5 1.5 4.8 1.2 4.5 1.3 9.2 1.7 8.8 1.5 8 1.3 3.5.7 3 .8 2.7 1 2.5 1.2 1.8 1.5 1.7 1.8 1.8 2 1.2 2 1.3 2.2 1.2 2.5 1.8 5 1.5 5.3 1.2 5.2 2 9.3.8 2.5 1.5 3 2 3.2z" fill="#faa41f"/><path d="m581.1 480.5 5.8 8.5 2 3.5 1.7 3-.2 1-20.5-3.8-14.5-2.5-5.3-.7-3.7-.3-2.8.3-.7.2-.8.3-2.5 2.5-2 2.7-1 1.3-.7 1.5-.5 1.5-.3 1.5-.2 1.5v3.2l.5 1.8.5 1.7 1 1.8 1 2 1.5 1.7-2 1.5-2 2.5-14.3-21.5-13.2-20.2-21-32.3-10.8-16.5-10.7-16.7.7-3.3 1.3-3 1.5-2.7 1.5-2.5 2-2.3 2-2 2.5-1.7 2.5-1.8 2.5-1.2 2.7-1.3 3-1 3-.7 3-.8 3.3-.2 3.2-.3 3.3-.2 1.2-.8 19.5 22.8 21 25.5 10.3 12.7 9.5 12.3 8.7 11.2z" fill="#faa41f"/><path d="m578.1 603.5 2 3.5 2.5 3.5 5.8 7.7 3 3.8 2.7 3.7 2.3 3.5 1.7 3.5.5 1.5.3 1.5.2 1.5v1.3l-.5 1.2-.5 1.3-.7 1-1.3 1-.5.2-1 .8-1.7.7-2.3.5h-1.2l-1.8-.2-1.5-.3-1.7-.7-2-1-2-1.3-2.3-1.7-2.2-2-2.8-2.8-2.2-2.7-1.8-3-1.5-2.8-.2-1.5-.5-1.5v-3l.2-1.7.3-1.8.5-1.7.7-1.8.3-.5 1.2.3h1.3l1.2-.3 1-.7.8-.8.7-1.2.8-1.5.2-2v-3.3zm-22.2-55-4.5 2.2-2.8 2.5-3.2 2.3-3.3 2-3.2 1.5-3.3 1-3.2.7-3 .3-3-.3-2.5-.7-1-.8-1-.5-1-.7-.5-.8-1-2-.5-2-.3-2.2.3-2.5.7-2.8 1-2.7 1-2.8 1.5-3 1.5-3 3.5-5.7 3.8-5.3 3.5-4.5z" fill="#ffeec8"/><path d="m576.1 603.7v3.3l-.2 2-.8 1.5-.7 1.2-.8.8-1 .7-1.2.3h-1.3l-1.2-.3-2.3-.5-2-1-2.2-1.2-2.3-1.5-4-2.8-3.2-2.5-2.8-2.2-2.7-2.5-2.5-2.8-2.3-3-2-3-1.2-3.5-.5-1.7-.3-1.8-.2-1.7v-2l.2-1.8.5-1.5 1-3.2 1.5-2.8 1.8-2.5 3.7-5 2-2.7 1.8-2.8-5.5-1.7 3.2-2.3 2.8-2.5 4.5-2.2 8.2 12 7.8 11 7.2 9.5 6.3 8 4 4.7 4 3.8 4 3 3.7 2.2 4 1.8 3.5 1 3.8.5h3.2l3.3-.3 3-1 3-1 2.5-1.5 2.5-1.7 2-2 1.7-2.3 1.5-2.2 1.8-.5 3 3.7 3 4 7.2 8.3 7.8 8.5 7.7 7.7-.2.5-2.8-1.5-2.7-1.5-2.5-1-2.8-1-2.7-.7-2.8-.5-3-.3-2.7-.2-5.5.2-5.5.5-5.3 1-5 1.5-4.5 1.5-4.5 1.8-3.7 1.5-3.3 1.7-4.7 2.5-1.5 1h-1.8l-1.7-3.5-2.3-3.5-2.7-3.7-3-3.8-5.8-7.7-2.5-3.5-2-3.5z" fill="#ffeec8"/><path d="m590.4 496.5.2-1-1.7-3-2-3.5-5.8-8.5 3.5-1.8 3.8-1.5 7-2.2 3.2-1 2.8-.8 2.5-.2h18.5l19.2-.3 22.5-.5h.8l2.2.3 3.3 1 4.5 1.5 2.2 1 2.8 1.2 2.5 1.5 2.7 2 3 2 2.8 2.5 2.7 3 3 3.3 7.8 9 11.2 12.5 13.8 14.5 14.2 15.2 25 26.3 11 11.2-66.2 79.5-3.8-1.7-3.7-2-5-2.8-5.5-3.2-6-3.8-6-4.2-5.8-4.8-5.7-5.2-6.3-6.3-7.7-7.7-7.8-8.5-7.2-8.3-3-4-3-3.7-2.5-3.8-2-3.2-1.5-3-.8-2.5-2-9.3-1.2-5.2-1.5-5.3-1.8-5-1.2-2.5-1.3-2.2-1.2-2-1.8-2-1.7-1.8-1.8-1.5-2.5-1.2-2.7-1-3-.8-3.5-.7-8-1.3-8.8-1.5-9.2-1.7-4.5-1.3-4.8-1.2-4.5-1.5-4.5-2-4.2-2.3-4-2.7-3.5-2.8-3-2.5-2.5-2.5-2-2.5-1.5-1.7-1-2-1-1.8-.5-1.7-.5-1.8v-3.2l.2-1.5.3-1.5.5-1.5.7-1.5 1-1.3 2-2.7 2.5-2.5.8-.3.7-.2 2.8-.3 3.7.3 5.3.7 14.5 2.5zm-276.5 21 3.5 4.5 3.7 5.2 3.5 5.8 1.8 3 1.5 3 1 2.7 1 3 .7 2.5.3 2.8v2.2l-.5 2-1 2-.8.8-.7.7-1.3.8-1.2.5-1.5.5-1.5.2-1.5.3h-1.8l-3.5-.5-3.7-1-3.8-1.8-3.7-2-3.5-2.7-2.8-2.3-5.7-.2 10.7-15.8z" fill="#ffeec8"/><path d="m273.4 602.7-1.8-.2-2 3.5-2.7 3.7-5.8 7.8-3 3.7-2.7 4-2.3 3.5-1.7 3.5-1.5-.5-1.8-1-4.7-2.5-3.3-1.7-3.7-1.5-4.3-1.8-4.7-1.5-5-1.2-5.3-1.3-5.5-.5h-8.2l-2.8.3-2.7.5-2.8.7-2.7 1-2.8 1-2.7 1.5-2.5 1.5-.3-.2 7.8-8 7.7-8.5 7-8.3 3.3-4 2.7-3.7 1.8.5 1.5 2.2 1.7 2.3 2.3 2 2.2 1.7 2.8 1.5 2.7 1 3 1 3.3.3h3.5l3.5-.5 3.7-1 3.8-1.8 4-2.2 3.7-3 4-3.8 4-4.7 6-7.5 6.8-9.3 7.5-10.2 8-11.5 5.7.2 2.8 2.3-2.5 3.5 1.7 3 2 2.7 4 5 1.8 2.8 1.5 3 1.2 3 .3 1.7.2 1.8v3.7l-.5 1.8-.5 1.7-1.2 3.5-1.8 3-2.2 3-2.8 2.8-2.7 2.5-2.8 2.2-3.2 2.5-4 2.8-2 1.5-2.3 1.2-2.2 1-2 .5-1.5.3h-1.3l-1-.3-1-.5-1-1-.7-1.2-.5-1.5-.5-2v-1.5z" fill="#ffeec8"/><path d="m280.9 612.7.7 1.8.5 1.7.5 1.8v4.7l-.2 1.5-.5 1.5-1.3 3-1.7 2.8-2.5 2.7-2.5 2.8-2.3 2-2.2 1.7-2 1.3-2 1-1.8.7-1.7.3-1.5.2h-1.5l-2.3-.5-1.7-.7-1-.5-.3-.5-1.2-.8-.8-1.2-.7-1-.3-1.3v-2.5l.3-1.5.5-1.5 1.7-3.5 2.3-3.5 2.7-4 3-3.7 5.8-7.8 2.7-3.7 2-3.5 1.8.2v3.3l.5 2 .5 1.5.7 1.2 1 1 1 .5 1 .3h1.3l1.5-.3zm-21.8-117.2 20.5-3.8 14.5-2.5 5.3-.7 4-.3 2.5.3 1 .2.5.3 2.7 2.5 2 3 1 1.2.8 1.5.5 1.8.2 1.5.3 1.7v1.5l-.5 2-.5 1.8-.8 1.7-1 2-1.2 2-1.8 2-2 2-2.2 2.3-2.8 2.2-3 2.3-4 2.7-4.2 2.3-4.3 2-4.7 1.5-4.5 1.2-4.8 1.3-9.2 1.7-8.8 1.5-7.7 1.3-3.5.7-3.3.8-2.7 1.2-2.3 1-2 1.5-1.7 1.8-1.5 2-1.5 2-1.3 2.2-1 2.5-2 5-1.5 5.3-1.2 5.2-1.8 9.3-1 2.5-1.2 3-2.3 3.2-2.5 3.8-2.7 3.7-3.3 4-7 8.3-7.7 8.5-7.8 8-6.5 6-5.7 5.2-5.8 4.8-6 4.2-5.7 3.8-5.8 3.2-4.7 2.8-4 2-3.5 1.7-66.5-79.5 11-11.2 25.2-26.3 14.3-15.2 13.5-14.5 11.5-12.5 7.7-9 2.8-3.3 2.7-3 3-2.5 2.8-2 2.7-2 2.8-1.5 2.5-1.2 2.5-1 4.2-1.5 3.5-.8 2.3-.5h.7l22.3.5 19.2.3h18.8l2.5.5 3 .5 3.2 1 3.5 1.2 3.8 1.3 3.7 1.7 3.8 1.8-7 9.5-2.3 3.2-1.2 1.8z" fill="#ffeec8"/><path d="m460.4 584.2 3.2 5.8 1.5 3 1.3 3.2 1 3 .5 2.8v1.5l-.3 1.2-.2 1.3-.3 1-1 1.2-66.7-42.7 1.5 2 3.5 4 3.2 3.5 3 3 3 3 5.8 4.7 5.2 3.8 5 3 4.5 2.5 8 3.7 5.5 2.5 2.3 1 3.5 1.3 8 3 4.7 1.7-.7 1.3-1.3 1-1.2 1-1.5 1-1.5.5-2 .7-2 .3-2.3.2-4.5.5-4.5.5-6.2.3-9.3-.3-5-.5-5-1-4.7-1.2-4.5-2-4.3-2-3.7-2.5-3-2.8-2.8-3-2.5-3.2-2-3.5-1.7-3.3-1.3-3.5-1.2-3.5-.8-3.2-.7-3.3-.8-3.2-.5-5.8-.2-4.7-.3-3.5v-2.3l-1-5.2-.5-4.5-.5-3.5-.5-2.3 2 1 2 .5 2 .5 2.3.3 4 .2 4-.2 8.2-1 4-.3h4.3l3.5.5 3.2.8 3.3 1.2 3 1.5 3.2 1.5 2.8 2 2.7 2 2.8 2.3 3 3 2.7 3.2 3 4 3 4 5.3 8z" fill="#6ebe44"/><path d="m442.1 598.7-8-3.7-4.5-2.5-5-3-5.2-3.8-5.8-4.7-3-3-3-3-3.2-3.5-3.5-4-1.5-2 66.7 42.7-4.7-1.7-8-3-3.5-1.3-2.3-1zm-64 151.3 66.8-43-1.5 2.2-3.5 3.8-3.3 3.5-3 3.2-3 2.8-5.7 4.7-5.3 4-5 3-4.5 2.5-8 3.8-5.2 2.5-2.5 1-3.5 1-8 3z" fill="#fff"/><path d="m377.1 748.5-.2-1-.3-1.3-.2-1.2v-1.3l.7-3 .8-3 1.2-3 1.5-3.2 3.3-5.5 4.5-7.5 5.2-8.3 3-4 3-3.7 3-3.5 2.8-3 2.7-2.3 2.8-2 2.7-1.7 3.3-1.8 3-1.5 3.2-1 3.5-.7 3.3-.5 4.2-.3 4 .5 8.3.8 4 .2h4.2l2-.2 2-.5 2-.8 2-.7-.5 2.2-.5 3.3-.5 4.5-1 5.2v2.3l-.2 3.5-.3 5-.5 5.7-.7 3-.5 3.3-1 3.5-1.3 3.2-1.2 3.5-1.8 3.5-2 3.3-2.5 3.2-2.5 3-3.2 2.8-3.8 2.5-4.2 2.2-4.5 1.8-4.8 1.5-4.7 1-5.3.5h-15.5l-4.5-.5-4.5-.5-2.2-.3-2-.5-2-.5-1.5-.7-1.5-.8-1.3-1-1.2-1-.8-1.2 4.8-2 8-3 3.5-1 2.5-1 5.2-2.5 8-3.8 4.5-2.5 5-3 5.3-4 5.7-4.7 3-2.8 3-3.2 3.3-3.5 3.5-3.8 1.5-2.2-66.8 43z" fill="#6ebe44"/><g fill="none" stroke="#231f20" stroke-linecap="round" stroke-miterlimit="10"><path d="m424.6 333-.2 2-.8 1.7-.7 1.8-1.5 1.5-1.5 1-1.8 1-2 .5-2 .2-2.2-.2-2-.5-1.8-1-1.5-1-1.2-1.5-1-1.8-.5-1.7-.3-2 .3-2 .5-1.8 1-1.7 1.2-1.3 1.5-1.2 1.8-1 2-.5 2.2-.3 2 .3 2 .5 1.8 1 1.5 1.2 1.5 1.3.7 1.7.8 1.8z" stroke-width="21"/><path d="m369.1 359.5 5.3-7 14.7-19.8m-20 26.8" stroke-width="25.75"/><path d="m478.9 359.2 2.5 1.5 2.5 2.3 8.7 9.2 12 13.5 19.5 22.8 21 25.5 10.3 12.7 9.5 12.3 8.7 11.2 7.5 10.3 5.8 8.5 2 3.5 1.7 3" stroke-width="21"/><path d="m635.1 594-1.5 2.2-1.7 2.3-2 2-2.5 1.7-2.5 1.5-3 1-3 1-3.3.3h-3.2l-3.8-.5-3.5-1-4-1.8-3.7-2.2-4-3-4-3.8-4-4.7-6.3-8-7.2-9.5-7.8-11-8.2-12-20.5-29.8-14.3-21.5-13.2-20.2-21-32.3-10.8-16.5-10.7-16.7-6.8-10.8-2.7-4.7-2.5-4.5-2-4.3-1.5-3.5-.8-2.7-.2-1.3v-1l.5-1.7.5-1.5.7-2 .8-1.8 1.2-2 1.5-1.7 1.5-2 1.5-1.8 2-1.5 1.8-1.5 2-1.2 2.2-1 2.3-.8 2.2-.5 2.3-.2 2.2.2 2.5.5 2.3 1" stroke-width="21"/><path d="m478.9 359.2-4-4.2-4.3-4.5-4.7-5.8-5.5-7-5.8-8.2-3-4.3-2.5-4.7-2.7-4.8-2.3-5-.7-1.2m-45.3 73.7v-.2l4-4.5 3.5-4 3.3-4.8" stroke-width="25.75"/><path d="m443.4 309.5.7 1.2m4 65.3-1 .5-3.2.7-4.8.5-2.5.3-3 .2h-3l-3.2-.5-3.3-.5-3-1-3-1.2-2.7-1.5-2.8-2.3-1.2-1.2-1-1.5-1.8-2.5-3.5-6.8-4.2-8.2-4.5-9-4.8-10-3.2-7.3-3.3-7.5-3-7.5-2.7-7.5-2.5-7.5-2.3-7.5-2-7.2-1.2-6.8-3.8-22.5-1.7-13.5-2-14.2-1.8-14.5-1.2-14.3-1-13-.3-6.2v-5.5l.3-11.3.2-11.5.5-11.2 1-11 1.3-9.8.7-4.2.8-4 1-3.5 1-2.8 1-2.2 1.2-1.8 1.3-1 1.2-.7 1.3-.5 1.2-.3 1.3.3 1.2.2 1.3.8 1.2 1.2 1.3 1.5 1 1.8 1.2 2.2 1 2.5 1 3 1 3.3 1 3.7.8 4.3 1.5 7.2 2.2 9.8 6 24.5 7.5 28 7.8 28.2 6.5 22.3 5.5 16.7 9.7 29 4.3 12 4.5 10.8 1 2.5" stroke-width="21"/><path d="m442.9 310.7.5-1.2 1.7-5 1.5-4.8 1.3-4.7 1-4.5 3.5-16.5 2-10.3 2.2-12 1.8-13.5 2-14.2 1.5-14.5 1-14.3 1-13.2.2-11.8-.2-11-.3-11.5-.7-11.5-.8-10.7-1.2-9.8-.8-4.5-.7-3.7-1-3.5-1-3-1-2.3-1.3-1.5-1.2-1-1.3-1-1.2-.5-1.3-.2-1.2.2-1.3.5-1.2.8-1.3 1-1.2 1.5-1 2-1.3 2-1 2.7-1 2.8-1 3.5-1 3.7-.7 4.3-1.5 7.2-2.3 9.5-6 24-7.5 28-7.7 28m-71.3 174.3h3.3l3.5.5 3.2.2 3 .8 3.3.7 3 1.3 2.7 1.2 2.8 1.5 2.5 1.8 2.2 1.7 2.3 2.3 1.7 2.5 1.8 2.7 1.2 3 1 3.3.8 3.5.2 1m124.3-32-3.3.2-3.2.3-3.3.2-3 .8-3 .7-3 1-2.7 1.3-2.5 1.2-2.5 1.8-2.5 1.7-2 2-2 2.3-1.5 2.5-1.5 2.7-1.3 3-.7 3.3-.5 3" stroke-width="21"/><path d="m580.4 480.7.7-.2 3.5-1.8 3.8-1.5 7-2.2 3.2-1 2.8-.8 2.5-.2h18.5l19.2-.3 22.5-.5h.8l2.2.3 3.3 1 4.5 1.5 2.2 1 2.8 1.2 2.5 1.5 2.7 2 3 2 2.8 2.5 2.7 3 3 3.3 7.8 9 11.2 12.5 13.8 14.5 14.2 15.2 25 26.3 11 11.2" stroke-width="14"/><path d="m668.1 496.5-9.5.5-22 .7-13 .5h-12.5l-11-.5-4.5-.2-3.7-.5-1.5-.5-20.5-3.8-14.5-2.5-5.3-.7-3.7-.3-2.8.3-.7.2-.8.3-2.5 2.5-2 2.7-1 1.3-.7 1.5-.5 1.5-.3 1.5-.2 1.5v3.2l.5 1.8.5 1.7 1 1.8 1 2 1.5 1.7 2 2.5 2.5 2.5 3 2.5 3.5 2.8 4 2.7 4.2 2.3 4.5 2 4.5 1.5 4.8 1.2 4.5 1.3 9.2 1.7 8.8 1.5 8 1.3 3.5.7 3 .8 2.7 1 2.5 1.2 1.8 1.5 1.7 1.8 1.8 2 1.2 2 1.3 2.2 1.2 2.5 1.8 5 1.5 5.3 1.2 5.2 2 9.3.8 2.5 1.5 3 2 3.2 2.5 3.8 3 3.7 3 4 7.2 8.3 7.8 8.5 7.7 7.7 6.3 6.3 5.7 5.2 5.8 4.8 6 4.2 6 3.8 5.5 3.2 5 2.8 3.7 2 3.8 1.7m-176-143.5-2 2.5-3.5 4.5-3.8 5.3-3.5 5.7-1.5 3-1.5 3-1 2.8-1 2.7-.7 2.8-.3 2.5.3 2.2.5 2 1 2 .5.8 1 .7 1 .5 1 .8 2.5.7 3 .3 3-.3 3.2-.7 3.3-1 3.2-1.5 3.3-2 3.2-2.3 2.8-2.5m-.3 5.8-.2.7-1.8 2.8-2 2.7-3.7 5-1.8 2.5-1.5 2.8-1 3.2-.5 1.5-.2 1.8v2l.2 1.7.3 1.8.5 1.7 1.2 3.5 2 3 2.3 3 2.5 2.8 2.7 2.5 2.8 2.2 3.2 2.5 4 2.8 2.3 1.5 2.2 1.2 2 1 2.3.5 1.2.3h1.3l1.2-.3 1-.7.8-.8.7-1.2.8-1.5.2-2v-3.3l-.2-1.7-.5-1.5-1.3-3.5-2-3.3-2.2-3-2.5-2.7-2.5-2.5-2.8-1.8-2.7-1.2" stroke-width="14"/><path d="m578.1 603.5 2 3.5 2.5 3.5 5.8 7.7 3 3.8 2.7 3.7 2.3 3.5 1.7 3.5.5 1.5.3 1.5.2 1.5v1.3l-.5 1.2-.5 1.3-.7 1-1.3 1-.5.2-1 .8-1.7.7-2.3.5h-1.2l-1.8-.2-1.5-.3-1.7-.7-2-1-2-1.3-2.3-1.7-2.2-2-2.8-2.8-2.2-2.7-1.8-3-1.5-2.8-.2-1.5-.5-1.5v-3l.2-1.7.3-1.8.5-1.7.7-1.8m31.3 19 1.5-1 4.7-2.5 3.3-1.7 3.7-1.5 4.5-1.8 4.5-1.5 5-1.5 5.3-1 5.5-.5 5.5-.2 2.7.2 3 .3 2.8.5 2.7.7 2.8 1 2.5 1 2.7 1.5 2.8 1.5" stroke-width="14"/><path d="m214.4 593 1.5 2.2 1.7 2.3 2.3 2 2.2 1.7 2.8 1.5 2.7 1 3 1 3.3.3h3.5l3.5-.5 3.7-1 3.8-1.8 4-2.2 3.7-3 4-3.8 4-4.7 6-7.5 6.8-9.3 7.5-10.2 8-11.5 10.7-15.8 10.8-16.2 26.7-40.5 20.5-32 17.8-27.5 6.5-10.3 5.7-9.5 2.3-4.2 2-4 1.7-3.5 1-3 .8-2.3v-2l-.3-1.7-.7-2-1-2.3-1.3-2-1.2-2.2-1.8-2-1.7-1.8-2.3-2-2-1.5-2.2-1.2-2.5-1-2.5-.8-2.5-.5h-2.8l-2.5.5-2.5 1.3-2.7 1.5-2.5 2.2-3.5 3.8-5.5 6.2-14.3 17.3-18.5 22.5-19.5 24.5-18.2 23.2-15 19.3-7 9.5-2.3 3.2-1.2 1.8" stroke-width="21"/><path d="m269.4 480-3.8-1.8-3.7-1.7-3.8-1.3-3.5-1.2-3.2-1-3-.5-2.5-.5h-18.8l-19.2-.3-22.3-.5h-.7l-2.3.5-3.5.8-4.2 1.5-2.5 1-2.5 1.2-2.8 1.5-2.7 2-2.8 2-3 2.5-2.7 3-2.8 3.3-7.7 9-11.5 12.5-13.5 14.5-14.3 15.2-25.2 26.3-11 11.2" stroke-width="14"/><path d="m181.4 495.5 9.5.5 22.2 1 12.8.2h12.5l11-.5 4.5-.2 3.7-.5 1.5-.5 20.5-3.8 14.5-2.5 5.3-.7 4-.3 2.5.3 1 .2.5.3 2.7 2.5 2 3 1 1.2.8 1.5.5 1.8.2 1.5.3 1.7v1.5l-.5 2-.5 1.8-.8 1.7-1 2-1.2 2-1.8 2-2 2-2.2 2.3-2.8 2.2-3 2.3-4 2.7-4.2 2.3-4.3 2-4.7 1.5-4.5 1.2-4.8 1.3-9.2 1.7-8.8 1.5-7.7 1.3-3.5.7-3.3.8-2.7 1.2-2.3 1-2 1.5-1.7 1.8-1.5 2-1.5 2-1.3 2.2-1 2.5-2 5-1.5 5.3-1.2 5.2-1.8 9.3-1 2.5-1.2 3-2.3 3.2-2.5 3.8-2.7 3.7-3.3 4-7 8.3-7.7 8.5-7.8 8-6.5 6-5.7 5.2-5.8 4.8-6 4.2-5.7 3.8-5.8 3.2-4.7 2.8-4 2-3.5 1.7m175.7-143.5 1.8 2.3 3.5 4.5 3.7 5.2 3.5 5.8 1.8 3 1.5 3 1 2.7 1 3 .7 2.5.3 2.8v2.2l-.5 2-1 2-.8.8-.7.7-1.3.8-1.2.5-1.5.5-1.5.2-1.5.3h-1.8l-3.5-.5-3.7-1-3.8-1.8-3.7-2-3.5-2.7-2.8-2.3m.3 5.8 1.7 3 2 2.7 4 5 1.8 2.8 1.5 3 1.2 3 .3 1.7.2 1.8v3.7l-.5 1.8-.5 1.7-1.2 3.5-1.8 3-2.2 3-2.8 2.8-2.7 2.5-2.8 2.2-3.2 2.5-4 2.8-2 1.5-2.3 1.2-2.2 1-2 .5-1.5.3h-1.3l-1-.3-1-.5-1-1-.7-1.2-.5-1.5-.5-2v-3.3l.5-1.7.2-1.5 1.5-3.5 1.8-3.3 2.2-3 2.5-2.7 2.8-2.3 2.7-2 2.5-1.2" stroke-width="14"/><path d="m271.6 602.5-2 3.5-2.7 3.7-5.8 7.8-3 3.7-2.7 4-2.3 3.5-1.7 3.5-.5 1.5-.3 1.5v2.5l.3 1.3.7 1 .8 1.2 1.2.8.3.5 1 .5 1.7.7 2.3.5h1.5l1.5-.2 1.7-.3 1.8-.7 2-1 2-1.3 2.2-1.7 2.3-2 2.5-2.8 2.5-2.7 1.7-2.8 1.3-3 .5-1.5.2-1.5v-4.7l-.5-1.8-.5-1.7-.7-1.8m-31 19-1.8-1-4.7-2.5-3.3-1.7-3.7-1.5-4.3-1.8-4.7-1.5-5-1.2-5.3-1.3-5.5-.5h-8.2l-2.8.3-2.7.5-2.8.7-2.7 1-2.8 1-2.7 1.5-2.5 1.5m230.7 131.8 5.3-.5 4.7-1 4.8-1.5 4.5-1.8 4.2-2.2 3.8-2.5 3.2-2.8 2.5-3 2.5-3.2 2-3.3 1.8-3.5 1.2-3.5 1.3-3.2 1-3.5.5-3.3.7-3 .5-5.7.3-5 .2-3.5v-2.3l1-5.2.5-4.5.5-3.3.5-2.2-2 .7-2 .8-2 .5-2 .2h-4.2l-4-.2-8.3-.8-4-.5-4.2.3-3.3.5-3.5.7-3.2 1-3 1.5-3.3 1.8-2.7 1.7-2.8 2-2.7 2.3-2.8 3-3 3.5-3 3.7-3 4-5.2 8.3-4.5 7.5-3.3 5.5-1.5 3.2-1.2 3-.8 3-.7 3v1.3l.2 1.2.3 1.3.2 1 1 1.5.8 1.2 1.2 1 1.3 1 1.5.8 1.5.7 2 .5 2 .5 2.2.3 4.5.5 4.5.5h6.3z" stroke-width="14"/><path d="m378.1 750 4.8-2 8-3 3.5-1 2.5-1 5.2-2.5 8-3.8 4.5-2.5 5-3 5.3-4 5.7-4.7 3-2.8 3-3.2 3.3-3.5 3.5-3.8 1.5-2.2m-66.8 43-2.7 1.5-3.3 1.7-4.2 1.5-4.5 1.3-5.3 1-5.2 1-5.5.7-5.5.8m87.2-144.3-5-.5-5-1-4.7-1.2-4.5-2-4.3-2-3.7-2.5-3-2.8-2.8-3-2.5-3.2-2-3.5-1.7-3.3-1.3-3.5-1.2-3.5-.8-3.2-.7-3.3-.8-3.2-.5-5.8-.2-4.7-.3-3.5v-2.3l-1-5.2-.5-4.5-.5-3.5-.5-2.3 2 1 2 .5 2 .5 2.3.3 4 .2 4-.2 8.2-1 4-.3h4.3l3.5.5 3.2.8 3.3 1.2 3 1.5 3.2 1.5 2.8 2 2.7 2 2.8 2.3 3 3 2.7 3.2 3 4 3 4 5.3 8 4.5 7.5 3.2 5.8 1.5 3 1.3 3.2 1 3 .5 2.8v1.5l-.3 1.2-.2 1.3-.3 1-1 1.2-.7 1.3-1.3 1-1.2 1-1.5 1-1.5.5-2 .7-2 .3-2.3.2-4.5.5-4.5.5-6.2.3z" stroke-width="14"/><path d="m466.1 608.2-4.7-1.7-8-3-3.5-1.3-2.3-1-5.5-2.5-8-3.7-4.5-2.5-5-3-5.2-3.8-5.8-4.7-3-3-3-3-3.2-3.5-3.5-4-1.5-2m66.7 42.7 2.8 1.8 3.2 1.5 4.3 1.5 4.5 1.2 5.2 1.3 5.3 1 5.5.7 5.5.5" stroke-width="14"/></g></svg>