<svg height="850" viewBox="0 0 850 850" width="850" xmlns="http://www.w3.org/2000/svg"><path d="m605.3 169h103.2l63.8 227.5h-331.5l63.5-227.5z" fill="#ffffc2"/><path d="m472.3 462.5 4.5 2 5 3 5.5 3.5 5.7 4.3 6 4.5 6.3 5 12.2 10.2 11 9.8 9.3 8.2 8.5 8 3 7 2.5 6.8 2.2 6.5 1.8 6.5 1.2 6 1.3 6.2.7 6 .5 6 .3 6 .2 6 .5 12.3.3 12.7.5 13.8 1 15 .7 10.2 1 12.3 1.5 13.5 2 14.5 2.5 15.2 1.3 8 1.7 8-170.5 71-7.2-8.2-6.8-8.3-6-8-5.7-8-5.3-8-5.2-7.7-9.5-15.3-9.5-14.7-5-7.3-5-7-5.5-7-5.8-6.7-6.5-6.5-6.7-6.3-2-2-1.8-2.2-2-2.8-2-2.7-3.5-6.8-3.5-7.2-6.5-14.5-3-6.3-2.7-5.5-5-9.2-6-10.5-3.5-5.5-3.8-5.8-4.2-6-4.8-6.5-3.5-4.5-2.5-4.2-1.7-3.5-1-3.3-.5-2.7v-2.3l.5-2 .7-1.7 1.3-1.5 1.5-1 1.5-1 1.7-.8 3.5-1.2 3-.8 2.3-.7 2.5-.5 2.5-.3 2.2-.2 3.8.2 3.7.8 3.5 1 3.3 1.5 3 1.5 2.7 2 2.5 2.2 2.3 2.3 2.5 3 2.5 3.2 4.5 6.8 4.5 6.5 4.5 6.2 2.5 3 2.5 3 2.7 2.8 2.8 2.5 3 2.5 3.2 2.2 3.8 2 3.7 1.5 4.3 1.3 6 1.2 9.7 1.8 1.3.7 1.5.5 1.2.3h1.5l1.5-.3 1.3-.2 3-1 3-1.5 2.7-2.3 3-2.5 2.8-3.2 2.7-3.3 2.8-3.7 2.5-4 2.5-4.3 2-4.2 2-4.5 1.7-4.5 1.5-4.5.3-1.8.2-2.2-.2-3-.3-4-.7-4.5-1-5.5-1.8-6-.7-1.8-1.8-2.7-5.2-8-7.3-10.5-9-12.5-20.5-28.3-10.5-14.7-9.7-14.3-7.8-11.5-6.5-10.2-2.7-4.5-2-4.3-1.8-3.5-1.2-2.7-.8-3.5-.2-3.5v-3.5l.7-3.5 1-3.5 1.3-3.3 1.7-3 1.8-2.7 2.2-2.3 2.5-1.7 1.3-.8 1.5-.5 1.2-.5 1.5-.2h3l1.5.5 1.5.5 1.5.7 1.8 1 1.5 1.3 1.5 1.5 4.5 5 6.5 7.5 17.5 21.7 21.2 27 22 28.5.8-.5 2-2 2.2-2 2.8-1.5 2.7-1.2 3.3-.8h3l1.5.3 1.5.2 1.7.5 1.5.8 2.8 1.7.2-1.5.5-1.2 1-1.5 1.3-1.3 1.5-1.2 2-1 2-.8 2-.7 2.5-.8 2.2-.2 2.8-.3h2.5l2.5.5 2.5.5 2.5.8 2.2 1 2.8 1.7z" fill="#ffeec8"/><path d="m329.5 445.3 2.3 3.5 2 3.7 1.5 4 1.5 4 1 4.3 1 4.2.5 4.3v7.7l-.3 3-.5 3.3-.5 3-.7 3-1 3-1 3-1.3 2.7-1.2 2.8-1.5 2.7-1.5 2.5-1.8 2.5-4 5-4.2 4.3-4.8 4-5.2 3.7-5.5 3-5.8 2.8-3 1.2-3.2 1-3 .8-3.3.7-3.2.5-3.5.5-3.3.3h-7.7l-3.3-.3-3.5-.2-3.2-.8-3.3-.5-3.2-1-3.3-1-3-1-3-1.2-2.7-1.5-5.8-3-5-3.8-5-4-4.2-4.5-2-2.2-2-2.5-1.8-2.5-1.5-2.8-1.5-2.7-1.2-2.8-1.3-2.7-1-3-1-3-.7-3-.5-3-.5-3.3-.3-3-.2-3.2.2-3.3.3-3.2.5-3 .5-3.3.7-3 1-3 1-2.7 1.3-3 1.2-2.8 1.5-2.7 1.5-2.5 1.8-2.5 2-2.5 2-2.5 4.2-4.3 5-4.2 5-3.5 5.8-3.3 2.7-1.2 3-1.3 3-1.2 3.3-1 3.2-.8 3.3-.7 3.2-.5 3.5-.3 3.3-.2 3.5-.3 4.5.3 4.5.2 4.5.8 4.2 1 4.3 1.2 4 1.3 4 1.7 3.7 1.8 3.5 2.2 3.5 2.3 3.3 2.5 3.2 2.7 3 2.8 2.8 3 2.5 3.2z" fill="#f6cc4b"/><g fill="none" stroke="#231f20" stroke-linecap="round" stroke-miterlimit="10" stroke-width="21"><path d="m329.5 445.3 2.3 3.5 2 3.7 1.5 4 1.5 4 1 4.3 1 4.2.5 4.3v7.7l-.3 3-.5 3.3-.5 3-.7 3-1 3-1 3-1.3 2.7-1.2 2.8-1.5 2.7-1.5 2.5-1.8 2.5-4 5-4.2 4.3-4.8 4-5.2 3.7-5.5 3-5.8 2.8-3 1.2-3.2 1-3 .8-3.3.7-3.2.5-3.5.5-3.3.3h-7.7l-3.3-.3-3.5-.2-3.2-.8-3.3-.5-3.2-1-3.3-1-3-1-3-1.2-2.7-1.5-5.8-3-5-3.8-5-4-4.2-4.5-2-2.2-2-2.5-1.8-2.5-1.5-2.8-1.5-2.7-1.2-2.8-1.3-2.7-1-3-1-3-.7-3-.5-3-.5-3.3-.3-3-.2-3.2.2-3.3.3-3.2.5-3 .5-3.3.7-3 1-3 1-2.7 1.3-3 1.2-2.8 1.5-2.7 1.5-2.5 1.8-2.5 2-2.5 2-2.5 4.2-4.3 5-4.2 5-3.5 5.8-3.3 2.7-1.2 3-1.3 3-1.2 3.3-1 3.2-.8 3.3-.7 3.2-.5 3.5-.3 3.3-.2 3.5-.3 4.5.3 4.5.2 4.5.8 4.2 1 4.3 1.2 4 1.3 4 1.7 3.7 1.8 3.5 2.2 3.5 2.3 3.3 2.5 3.2 2.7 3 2.8 2.8 3 2.5 3.2z"/><path d="m454.8 599.3.5-69.8-13.5-17.7-31.8-41.3-22-28.5-21.2-27-17.5-21.7-6.5-7.5-4.5-5-1.5-1.5-1.5-1.3-1.8-1-1.5-.7-1.5-.5-1.5-.5h-3l-1.5.2-1.2.5-1.5.5-1.3.8-2.5 1.7-2.2 2.3-1.8 2.7-1.7 3-1.3 3.3-1 3.5-.7 3.5v3.5l.2 3.5.8 3.5 1.2 2.7 1.8 3.5 2 4.3 2.7 4.5 6.5 10.2 7.8 11.5 9.7 14.3 10.5 14.7 20.5 28.3 9 12.5 7.3 10.5 5.2 8 1.8 2.7.7 1.8 1.8 6 1 5.5.7 4.5.3 4 .2 3-.2 2.2-.3 1.8-1.5 4.5-1.7 4.5-2 4.5-2 4.2-2.5 4.3-2.5 4-2.8 3.7-2.7 3.3-2.8 3.2-3 2.5-2.7 2.3-3 1.5-3 1-1.3.2-1.5.3h-1.5l-1.2-.3-1.5-.5-1.3-.7-9.7-1.8-6-1.2-4.3-1.3-3.7-1.5-3.8-2-3.2-2.2-3-2.5-2.8-2.5-2.7-2.8-2.5-3-2.5-3-4.5-6.2-4.5-6.5-4.5-6.8-2.5-3.2-2.5-3-2.3-2.3-2.5-2.2-2.7-2-3-1.5-3.3-1.5-3.5-1-3.7-.8-3.8-.2-2.2.2-2.5.3-2.5.5-2.3.7-3 .8-3.5 1.2-1.7.8-1.5 1-1.5 1-1.3 1.5-.7 1.7-.5 2v2.3l.5 2.7 1 3.3 1.7 3.5 2.5 4.2 3.5 4.5 4.8 6.5 4.2 6 3.8 5.8 3.5 5.5 6 10.5 5 9.2 2.7 5.5 3 6.3 6.5 14.5 3.5 7.2 3.5 6.8 2 2.7 2 2.8 1.8 2.2 2 2 6.7 6.3 6.5 6.5 5.8 6.7 5.5 7 5 7 5 7.3 9.5 14.7 9.5 15.3 5.2 7.7 5.3 8 5.7 8 6 8 6.8 8.3 7.2 8.2m96.8-214.5-7.3-59.5-6.7-6.5-16-14.7-9.3-8.5-9.2-8.5-8.5-7-6.5-5.3-2.8-1.7-1.5-.8-1.7-.5-1.5-.2-1.5-.3h-3l-3.3.8-2.7 1.2-2.8 1.5-2.2 2-2 2m61.5-7.5-3.5-2.5-2.8-1.7-2.2-1-2.5-.8-2.5-.5-2.5-.5h-2.5l-2.8.3-2.2.2-2.5.8-2 .7-2 .8-2 1-1.5 1.2-1.3 1.3-1 1.5-.5 1.2-.2 1.5m92.5 100.5-6.8-63-18.7-16-16-13.5-7.8-6.2-6.7-5.3"/><path d="m574.3 724.8-1.3-5.3-1.7-8-1.3-8-2.5-15.2-2-14.5-1.5-13.5-1-12.3-.7-10.2-1-15-.5-13.8-.3-12.7-.5-12.3-.2-6-.3-6-.5-6-.7-6-1.3-6.2-1.2-6-1.8-6.5-2.2-6.5-2.5-6.8-3-7-8.5-8-9.3-8.2-11-9.8-12.2-10.2-6.3-5-6-4.5-5.7-4.3-5.5-3.5-5-3-4.5-2m-351.8-3.7-.2-4.3-.3-4.5v-4.5l.3-4.2.2-4.5.5-4.3.5-4.2 1-4.5.8-4.3 1.2-4.2 1.3-4 1.5-4.3 1.5-4 1.7-4 1.8-4 2-3.7 2.2-4 2.3-3.5 2.5-3.8 2.5-3.5 2.7-3.5 2.8-3.2 3-3.3 3.2-3.2 3.3-2.8 3.2-3 3.5-2.7 3.5-2.5 3.8-2.5 3.7-2.3 4-2.2 4-2 3.8-1.8 3.7-1.5 4-1.5 3.8-1 3.7-1.2 4-.8 3.8-.7 4-.5 3.7-.5 3.8-.3h7.7l3.8.3 3.7.2 3.8.8 3.7.5"/><path d="m77.8 415.8 44 54.5 42.7-53.8m440.8-360v112.5m167 227.5-63.8-227.5h-204.2l-63.5 227.5z"/></g></svg>