<svg height="850.394" viewBox="0 0 850.394 850.394" width="850.394" xmlns="http://www.w3.org/2000/svg"><g fill="#f6cc4b"><path d="m624.69 303.88c8.71 6.72 16.06 14.65 20.46 24.04.22.46.43.93.63 1.39-14.63-7.47-46.061 14.02-61.931 19.04-3.46 1.09-9.33 1.73-16.84 2.02l-.01-.35c-.29-3.16-2.98-10.48-6.81-19.63 4.72.01 8.14-.12 9.869-.43 11.172-1.97 41.962-18.92 54.632-26.08z"/><path d="m567 350.02.01.35c-26.97 1.03-75.01-2.42-107.71-5.37-8.66-.78-18.53-1.04-29.21-.94 1.93-4.26 3.09-11.31 3.73-19.57 39.39 2.03 101.27 5.89 126.37 5.9 3.83 9.15 6.52 16.47 6.81 19.63z"/><path d="m433.82 324.49c-.641 8.26-1.801 15.31-3.73 19.57-31.43.27-69.79 3.61-104.38 5.73l-.02-.32 5.98-24.49c32.27-.94 61.7-1.71 71.21-1.71 5.61 0 16.83.49 30.94 1.22z"/><path d="m224.83 328.29s56.82-1.85 106.84-3.31l-5.98 24.49.02.32c-10.38.64-20.42 1.17-29.83 1.48-15.16.5-30.6-.1-44.85-1.18-34.08-2.6-61.31-8.01-61.31-8.01l-.22-.5c9.57-4.22 21.62-9.55 34.46-15.24z"/></g><path d="m564.21 273.95c15.5 6.11 41.3 15.12 60.48 29.93-12.671 7.16-43.46 24.11-54.631 26.08-1.729.31-5.149.44-9.869.43-9.94-23.71-27.58-59.61-31.051-66.64 12.991 2.7 24.631 6.09 35.071 10.2zm-220.93 3.52-4.35-1.06c28.37-9.38 63.13-17.52 93.55-19.83l.21 2.61s3.189 38.87 1.13 65.3c-14.11-.73-25.33-1.22-30.94-1.22-9.51 0-38.94.77-71.21 1.71z" fill="#9e5c26"/><path d="m529.14 263.75c3.471 7.03 21.11 42.93 31.051 66.64-25.101-.01-86.98-3.87-126.37-5.9 2.06-26.43-1.13-65.3-1.13-65.3l-.21-2.61c7.289-.56 14.329-.78 20.97-.6 29.349.78 54.349 3.33 75.689 7.77zm-185.86 13.72-11.61 47.51c-50.02 1.46-106.84 3.31-106.84 3.31l-.87-1.95v-.01c29.71-13.19 63.61-28.38 80.7-36.5 9.33-4.44 21.11-9.06 34.27-13.42z" fill="#9e5c26"/><path d="m788.23 351.69c4.6 15.47 2.93 32.6-13.37 38.04-16.301 5.43-41.38 9.61-41.38 9.61l-2.53.46c-3.16-8.84-10.95-16.23-27.561-19.69-40.13-8.36-53.92-29.67-53.92-29.67a48.24 48.24 0 0 0 -.649-11.05 46.558 46.558 0 0 0 -3.04-10.08c-.2-.46-.41-.93-.63-1.39l.979-.47s74.811-2.09 94.46-4.18c19.641-2.09 43.051 12.96 47.641 28.42zm-17.13 8.99c4.801 4.8 10.65-.21 7.521-10.24-3.13-10.03-15.88-6.9-15.88-6.9s3.549 12.33 8.359 17.14z" fill="#ffffc2"/><path d="m649.47 350.44s13.79 21.31 53.92 29.67c16.61 3.46 24.4 10.85 27.561 19.69 4.46 12.51-.33 27.931-2.49 39.25-6.26 33.01-12.53 57.26-30.51 64.78-17.97 7.52-62.69-7.521-68.54-21.74-1.15-2.79-1.59-5.439-1.48-7.99.391-10.439 9.811-19.05 16.53-27.109 2.44-2.931 3.81-13.78 4.53-27.67 1.399-27.17.31-65.98-.17-79.93.619 3.509.859 7.189.649 11.049zm-398.44-.35c13.05 5.3 32.78 40.13 23.53 42.14-20.37 4.43-45.37 7.22-72.33 9.23-17.25 1.3-35.31 2.28-53.48 3.16-6.96.34-13.94.67-20.89.99-53.5 2.51-65.2-.84-68.96-17.14-3.79-16.42 109.5-37.61 109.5-37.61s8.36-3.67 21.1-9.28l.22.5s27.23 5.41 61.31 8.01z" fill="#ffffc2"/><path d="m267.54 429.65c-3.64 2.369-35.62 23.17-56.09 36.56-15.98 10.45-76.9 48.07-96.97 48.9-20.06.84-30.92-23.82-22.98-42.21 6.99-16.19 57.26-68.13 57.26-68.13l-.01-.15c18.17-.88 36.23-1.86 53.48-3.16l.03.39s34.64 15.19 65.28 27.8zm381.45-10.33c-.721 13.89-2.09 24.74-4.53 27.67-6.72 8.06-16.14 16.67-16.53 27.109-9.41 26.04-14.069 29.42-23.6 44.36-10.26 16.07-28.42 56.84-75.65 78.99-47.229 22.149-59.77 13.38-65.199.84-5.431-12.54 21.729-24.66 39.289-46.81 17.551-22.16 38.87-85.69 38.87-85.69l-.479-3.26c53.869-8.059 96.549-25.009 107.829-43.209z" fill="#ffffc2"/><path d="m430.09 344.06c10.68-.1 20.55.16 29.21.94 32.7 2.95 80.74 6.4 107.71 5.37 7.51-.29 13.38-.93 16.84-2.02 15.87-5.02 47.301-26.51 61.931-19.04a46.558 46.558 0 0 1 3.04 10.08c.479 13.95 1.569 52.76.17 79.93-11.28 18.2-53.96 35.15-107.83 43.21-20.97 3.14-43.641 4.939-66.811 4.939-74.04 0-143.78-14.21-172.2-24.25-8.63-3.05-21.24-8.06-34.61-13.569-30.64-12.61-65.28-27.8-65.28-27.8l-.03-.39c26.96-2.01 51.96-4.8 72.33-9.23 9.25-2.01-10.48-36.84-23.53-42.14 14.25 1.08 29.69 1.68 44.85 1.18 9.41-.31 19.45-.84 29.83-1.48 34.59-2.12 72.95-5.46 104.38-5.73z" fill="#ffffc2"/><path d="m778.62 350.44c3.13 10.03-2.72 15.04-7.521 10.24-4.81-4.81-8.359-17.14-8.359-17.14s12.75-3.13 15.88 6.9z" fill="#231f20"/><g fill="none" stroke="#231f20"><g stroke-width="14"><path d="m249.49 349.6c.5.11 1.02.28 1.54.49 13.05 5.3 32.78 40.13 23.53 42.14-20.37 4.43-45.37 7.22-72.33 9.23-17.25 1.3-35.31 2.28-53.48 3.16-6.96.34-13.94.67-20.89.99-53.5 2.51-65.2-.84-68.96-17.14-3.79-16.42 109.5-37.61 109.5-37.61s8.36-3.67 21.1-9.28c9.57-4.22 21.62-9.55 34.46-15.24v-.01c29.71-13.19 63.61-28.38 80.7-36.5 9.33-4.44 21.11-9.06 34.27-13.42 28.37-9.38 63.13-17.52 93.55-19.83 7.289-.56 14.329-.78 20.97-.6 29.35.78 54.35 3.33 75.689 7.77 12.99 2.7 24.63 6.09 35.07 10.2 15.5 6.11 41.3 15.12 60.48 29.93 8.71 6.72 16.06 14.65 20.46 24.04.22.46.43.93.63 1.39a46.558 46.558 0 0 1 3.04 10.08c.62 3.51.859 7.19.649 11.05 0 0 13.79 21.31 53.92 29.67 16.61 3.46 24.4 10.85 27.561 19.69 4.46 12.51-.33 27.931-2.49 39.25-6.26 33.01-12.53 57.26-30.51 64.78-17.97 7.52-62.69-7.521-68.54-21.74-1.15-2.79-1.59-5.439-1.48-7.99.391-10.439 9.811-19.05 16.53-27.109 2.44-2.931 3.81-13.78 4.53-27.67 1.399-27.17.31-65.98-.17-79.93-.11-3.34-.19-5.25-.19-5.25"/><path d="m148.76 404.77s-50.27 51.94-57.26 68.13c-7.94 18.39 2.92 43.05 22.98 42.21 20.07-.83 80.99-38.45 96.97-48.9 20.47-13.39 52.45-34.19 56.09-36.56.22-.141.34-.221.34-.221m-78.16-87.349s27.23 5.41 61.31 8.01c14.25 1.08 29.69 1.68 44.85 1.18 9.41-.31 19.45-.84 29.83-1.48 34.59-2.12 72.95-5.46 104.38-5.73 10.68-.1 20.55.16 29.21.94 32.7 2.95 80.74 6.4 107.71 5.37 7.51-.29 13.38-.93 16.84-2.02 15.87-5.02 47.301-26.51 61.931-19.04.01.01.02.01.029.02"/><path d="m202.26 401.85s34.64 15.19 65.28 27.8c13.37 5.51 25.98 10.52 34.61 13.569 28.42 10.04 98.16 24.25 172.2 24.25 23.17 0 45.841-1.8 66.811-4.939 53.87-8.061 96.55-25.011 107.83-43.21.319-.53.63-1.06.899-1.59m-3.76-90.28s74.811-2.09 94.46-4.18c19.641-2.09 43.05 12.96 47.641 28.42 4.6 15.47 2.93 32.6-13.37 38.04-16.301 5.43-41.38 9.61-41.38 9.61m-191.841 66.45s-21.319 63.53-38.87 85.69c-17.56 22.149-44.72 34.27-39.289 46.81 5.43 12.54 17.97 21.31 65.199-.84 47.23-22.15 65.391-62.92 75.65-78.99 9.53-14.94 14.189-18.32 23.6-44.36.301-.84.61-1.699.92-2.59"/></g><path d="m749.57 379.9s36.359-2.5 37.199-2.29" stroke-linecap="round" stroke-linejoin="round" stroke-width="13.375"/><path d="m343.53 276.46-.25 1.01-11.61 47.51-5.98 24.49m107-90.28s3.189 38.87 1.13 65.3c-.641 8.26-1.801 15.31-3.73 19.57l-.18.39m98.63-81.92s.21.43.6 1.22c3.471 7.03 21.11 42.93 31.051 66.64 3.829 9.15 6.52 16.47 6.81 19.63" stroke-width="14"/><path d="m224.83 328.29s56.82-1.85 106.84-3.31c32.27-.94 61.7-1.71 71.21-1.71 5.61 0 16.83.49 30.94 1.22 39.39 2.03 101.27 5.89 126.37 5.9 4.72.01 8.14-.12 9.869-.43 11.171-1.97 41.96-18.92 54.631-26.08 3.449-1.95 5.56-3.18 5.56-3.18" stroke-width="7"/></g><path d="m0 0h850.394v850.394h-850.394z" fill="none"/></svg>