<svg height="850.394" viewBox="0 0 850.394 850.394" width="850.394" xmlns="http://www.w3.org/2000/svg"><path d="m262.102 263.018-80.79 32.515-32.064-43.297 127.247-61.867h72.343v516.438h-86.736z" fill="#50264b"/><path d="m0 0h850.394v850.394h-850.394z" fill="none"/><path d="m700.299 620.382v80.729h-303.122v-26.504l146.602-238.272c29.274-47.674 43.923-87.794 43.923-120.359 0-38.604-20.977-57.903-62.924-57.903-32.053 0-57.873 18.697-77.483 56.09l-55.265-48.061c10.949-24.372 28.16-44.636 51.64-60.762 23.48-16.142 49.435-24.201 77.87-24.201 47.369 0 84.436 11.908 111.177 35.729 26.749 23.822 40.12 56.877 40.12 99.181 0 38.805-17.167 87.14-51.478 145.012l-94.761 159.319h173.701z" fill="#50264b"/><path d="m397.177 701.111v-26.504l146.602-238.272c29.274-47.674 43.923-87.794 43.923-120.359 0-38.604-20.977-57.903-62.924-57.903-32.053 0-57.873 18.697-77.483 56.09l-55.265-48.061c10.949-24.372 28.16-44.636 51.64-60.762 23.48-16.142 49.435-24.201 77.87-24.201 47.369 0 84.436 11.908 111.177 35.729 26.749 23.822 40.12 56.877 40.12 99.181 0 38.805-17.167 87.14-51.478 145.012l-94.761 159.319h173.7v80.729h-303.121z" fill="none" stroke="#000" stroke-linecap="round" stroke-linejoin="round" stroke-width=".375"/></svg>