<svg height="850.89" viewBox="0 0 850.89 850.89" width="850.89" xmlns="http://www.w3.org/2000/svg"><path d="m387.86 172.04c59.42 0 105.92 11.95 139.46 35.87 33.55 23.92 50.319 57.1 50.319 99.57 0 38.96-21.529 87.48-64.569 145.58l-118.86 159.94h217.88v81.04h-380.22v-26.6l183.89-239.21c36.721-47.851 55.09-88.13 55.09-120.831 0-38.75-26.31-58.13-78.93-58.13-40.2 0-72.59 18.78-97.18 56.31l-69.33-48.24c13.74-24.47 35.33-44.81 64.78-61 29.45-16.199 62.01-24.299 97.67-24.299z" fill="#50264b"/><path d="m.25.25h850.394v850.394h-850.394z" fill="none"/></svg>