<svg height="850" viewBox="0 0 850 850" width="850" xmlns="http://www.w3.org/2000/svg"><path d="m549.8 290.3 14.5 87.2h-.5l-30-75-1.3-2.7-1.2-2.3-1.3-1.7-1.5-1.8-1.7-1.2-1.5-.8-1.8-.7-1.5-.5h24.8zm-186.5 97.7-.3-5.5-.7-4.7h120l1.7.5-.7 4.7-.5 5.8-.3 6.5-.2 4-1.3 9.5-1.2 6.2-1.3 6.8-1.7 7-2.3 6.5-.7 2.2-.5 2.5h-95l-5 .5-.5-3-1-2.7-2.3-6.8-1.7-7-1.3-6.5-1.2-6.2-1.3-9.8-.2-3.7z" fill="#c8c8c8"/><path d="m482 377.8h-119.7l-.5-2.8-.8-2.2-1-2-1-1.5-1-1.3-1-1-1-.7-1.2-.3-1-.2h-1.3l-2.2.5-2.3.5-1.7 1-1.8.7-1.7 1-1.5 1.3-1.5 1.2-2.5 3-2 3.3-1.8 2.7-1 2.5-1 2.5-1.2 4.8-.8 4v6.5l.5 2.7.3 2.8.5 3 .2 3.2.3 3.8v4.2l-.3 4.5-.5 4.8-1 4.7-.7 2.3-.8 2.2-1.2 2-1 2-1.5 2-1.5 1.8-3 1.2-2.5-5.7-2-6.3-1.8-6.5-1.5-6.7-.7-6.5-.5-6.8v-3l.2-3.2.5-3 .5-3v-1.3l.8-3.5 1.5-5.7 4.5-16 11.5-39.3 2 .5h181.7l1.8-.5 11.5 39.5 4.7 16.3 1.5 5.7.8 3.5v1.5l.5 3 .5 3 .2 3v3.3l-.5 6.5-.7 6.7-1.5 6.8-1.8 6.2-2 6.3-2.5 6-3-1.5-1.5-1.5-1.5-2-1-2-1.2-2.3-.8-2-.7-2.5-1-4.5-.5-4.7-.3-4.5v-4.3l.3-3.7.2-3.3.5-3 .3-2.7.5-3v-6.3l-.8-4-1.2-5-1-2.2-1-2.5-1.8-3-2-3-2.5-3-1.5-1.3-1.5-1.2-1.7-1-1.8-1-1.7-.8-2.3-.7-2.2-.3h-2.3l-1 .5-1.2.5-1 1-1 1.3-1 1.5-.8 1.7-.7 2.5-.8 2.8-1.7-.5z" fill="#c8c8c8"/><path d="m336.5 290.8h182l-2.2.7-2 1-2 1.5-1.5 1.8-1.3 2-.7 2.5-.5 2.5.2 2.5.8 3.5 1.5 6 5 17.2-1.8.5h-181.7l-2-.5 5-17.7 1.7-6 .8-3.5.2-2-.2-2-.3-2-.7-1.5-1-1.8-1-1.2-1.3-1.3-1.5-1.2-1.5-.8z" fill="#c8c8c8"/><path d="m296.5 251.3h252.8l.5 1-1.3 1.5-1 1.7-.5 1.8-.2 2-.3 2.7v7l.5 4.5.8 4.8 2 12-3 .5h-210.3l-6 .2-.5-.2-2.2-.5-2.3-.3-2.5.5-2.2.8-2.3 1.7-1.2 1-1 1.3-1 1.2-1 1.5-1.8 3.8-30 75.2-.5-.2 16.5-99.3.8-4.7.5-4.3v-7.2l-.3-2.8-.2-2-.5-1.7-1-1.8z" fill="#c8c8c8"/><path d="m594.5 356.5-7-33-7.5-32.5-3.5-14-3-11.5-2.7-8.5-1-2.5-.8-1.5-1.2-1.5-1.3-1-1.2-1-1.5-.7-1.3-.5-1.2-.5-1.3-.3h-2.5l-1.2.3-2.5 1-2 1.5-2 2-.5-1h-252.8l-2-1.8-2-1.5-2.2-.7-2.3-.5-2.5.2-1.2.3-1.3.5-1.2.7-1.3.8-2.2 2-1 1-.8 1.5-1.2 2.7-2.5 8.3-3 11.5-3.5 14-7.5 32.5-7 33h-.3l5-79.3-1.2-2.5-2-2-1-1-1.3-1-1.2-.5-1.3-.7-1.5-.3-1.5-.2h-1.5l-1.5.5-1.5.5-1.5.7-1.5 1.3-1.5 1.5-.5.7-.5 1.3-1.2 3.5-1.3 4.7-1.2 6-2.8 14.5-2.7 16.8-2.8 18-2.7 18-4 29.2.7-72.5-.2-2-.5-1.5-.8-1.5-1-1-1.2-1-1.3-.7-1.5-.5-1.5-.3h-1.5l-1.5.3-1.7.5-1.5.7-1.5 1-1.5 1.3-1.3 1.5-1.2 1.7-.5 1.5-.5 2-1.3 5.8-1 7.5-.7 9-1.8 20.2-1.2 20.5-3-.2h-92.3l-4.5-.5-2.2-.5-2-.8-2-.7-1.8-1-1.5-1.3-1.5-1.7-1-1.8-1-2.2-.7-2.5-.3-3v-3.3l.3-3.7 38-110.8 1.2-5.5 1-2.5.8-2.2 1-2 1.2-2 1.3-1.5 1.2-1.5 1.5-1.5 1.8-1 1.5-1 2-.8 1.7-.5 2-.5 2.3-.2h578.2l2.3.2 2 .5 1.7.5 1.8 1 1.7.8 1.5 1.2 1.5 1.3 1.3 1.5 1.2 1.7 1 1.8 1 2.2 1 2.3.8 2.2 1.5 5.5 37.7 110.8.5 3.7-.2 3.3-.3 3-.5 2.5-1 2.2-1.2 1.8-1.3 1.7-1.7 1.3-1.8 1-1.7.7-2.3.8-2 .5-4.7.5h-97.8l4.8 47.5-3-19.8-.8-5.5-1.5-21.5-1.7-27.5-1.3-13.2-1.2-11.8-.8-4.7-.5-4-.7-3-.8-2-1.2-1.8-1.3-1.5-1.5-1.2-1.5-1-1.5-.8-1.7-.5-1.5-.2h-1.5l-1.5.2-1.5.5-1.3.8-1.2.7-1 1.3-.8 1.5-.5 1.5-.2 1.7.5 72.5-3.8-29.2-2.7-17.8-2.8-18-2.7-17-2.8-14.5-1.2-5.7-1.3-4.8-1.2-3.5-.5-1.2-.5-.8-1.5-1.5-1.5-1.2-1.5-.8-1.5-.7-1.5-.3h-1.5l-1.5.3-1.5.2-1.3.5-1.2.8-1.3.7-1 1-2 2.3-1.2 2.5 5 79z" fill="#c8c8c8"/><path d="m526.5 449.3 2.5-6 2-6.3 1.8-6.2 1.5-6.8.7-6.7.5-6.5v-3.3l-.2-3-.5-3-.5-3v-1.5l-.8-3.5-1.5-5.7-4.7-16.3-11.5-39.5-5-17.2-1.5-6-.8-3.5-.2-2.5.5-2.5.7-2.5 1.3-2 1.5-1.8 2-1.5 2-1 2.2-.7h3.5l1.5.5 1.8.7 1.5.8 1.7 1.2 1.5 1.8 1.3 1.7 1.2 2.3 1.3 2.7 30 75h.5l-14.5-87.2-2-12-.8-4.8-.5-4.5v-7l.3-2.7.2-2 .5-1.8 1-1.7 1.3-1.5 2-2 2-1.5 2.5-1 1.2-.3h2.5l1.3.3 1.2.5 1.3.5 1.5.7 1.2 1 1.3 1 1.2 1.5.8 1.5 1 2.5 2.7 8.5 3 11.5 3.5 14 7.5 32.5 7 33 .3-.2-5-79 1.2-2.5 2-2.3 1-1 1.3-.7 1.2-.8 1.3-.5 1.5-.2 1.5-.3h1.5l1.5.3 1.5.7 1.5.8 1.5 1.2 1.5 1.5.5.8.5 1.2 1.2 3.5 1.3 4.8 1.2 5.7 2.8 14.5 2.7 17 2.8 18 2.7 17.8 3.8 29.2-.5-72.5.2-1.7.5-1.5.8-1.5 1-1.3 1.2-.7 1.3-.8 1.5-.5 1.5-.2h1.5l1.5.2 1.7.5 1.5.8 1.5 1 1.5 1.2 1.3 1.5 1.2 1.8.8 2 .7 3 .5 4 .8 4.7 1.2 11.8 1.3 13.2 1.7 27.5 1.5 21.5.8 5.5 3 19.8 1.2 14.7h.5l.3 3 1.2 12.5.8 11.3.5 10.2v9l-.3 8.5-.5 7.3-.7 6.7-1 6.3-1.3 5.5-1.5 5.2-1.5 5-1.5 4.8-3.2 9-3.3 9.5-2.2 6.7-1.8 6.3-1.5 5.7-1 5.8-1 5.5-.5 6-.5 6.2v13l.5 6.5.5 6.5.8 6.8-133.3 1.5.3-20.8v-9.7l-.3-9.5-.5-9-.7-8-1-7.3-1.3-6.2-2.7-10.3-3-9.5-3-9.2-3.3-9-3.5-9-3.7-9-8.3-19.5-1-2.3-1.2-3.7-1.5-5-1.3-6-1.2-6.8-.5-3.2-.3-3.5-.2-3.5.2-3.5.3-3.5.5-3.3.5-2.5.7-2.2 2.3-6.5 1.7-7 1.3-6.8 1.2-6.2 1.3-9.5.2-4 .3-6.5.5-5.8.7-4.7.8-2.8.7-2.5.8-1.7 1-1.5 1-1.3 1-1 1.2-.5 1-.5h2.3l2.2.3 2.3.7 1.7.8 1.8 1 1.7 1 1.5 1.2 1.5 1.3 2.5 3 2 3 1.8 3 1 2.5 1 2.2 1.2 5 .8 4v6.3l-.5 3-.3 2.7-.5 3-.2 3.3-.3 3.7v4.3l.3 4.5.5 4.7 1 4.5.7 2.5.8 2 1.2 2.3 1 2 1.5 2 1.5 1.5zm-309.7-63.8 4-29.2 2.7-18 2.8-18 2.7-16.8 2.8-14.5 1.2-6 1.3-4.7 1.2-3.5.5-1.3.5-.7 1.5-1.5 1.5-1.3 1.5-.7 1.5-.5 1.5-.5h1.5l1.5.2 1.5.3 1.3.7 1.2.5 1.3 1 1 1 2 2 1.2 2.5-5 79.3h.3l7-33 7.5-32.5 3.5-14 3-11.5 2.5-8.3 1.2-2.7.8-1.5 1-1 2.2-2 1.3-.8 1.2-.7 1.3-.5 1.2-.3 2.5-.2 2.3.5 2.2.7 2 1.5 2 1.8 1.3 1.7 1 1.8.5 1.7.2 2 .3 2.8v7.2l-.5 4.3-.8 4.7-16.5 99.3.5.2 30-75.2 1.8-3.8 1-1.5 1-1.2 1-1.3 1.2-1 2.3-1.7 2.2-.8 2.5-.5 2.3.3 2.2.5.5.2 1.5.8 1.5 1.2 1.3 1.3 1 1.2 1 1.8.7 1.5.3 2 .2 2-.2 2-.8 3.5-1.7 6-5 17.7-11.5 39.3-4.5 16-1.5 5.7-.8 3.5v1.3l-.5 3-.5 3-.2 3.2v3l.5 6.8.7 6.5 1.5 6.7 1.8 6.5 2 6.3 2.5 5.7 3-1.2 1.5-1.8 1.5-2 1-2 1.2-2 .8-2.2.7-2.3 1-4.7.5-4.8.3-4.5v-4.2l-.3-3.8-.2-3.2-.5-3-.3-2.8-.5-2.7v-6.5l.8-4 1.2-4.8 1-2.5 1-2.5 1.8-2.7 2-3.3 2.5-3 1.5-1.2 1.5-1.3 1.7-1 1.8-.7 1.7-1 2.3-.5 2.2-.5h1.3l1 .2 1.2.3 1 .7 1 1 1 1.3 1 1.5 1 2 .8 2.2.5 2.8.7 4.7.3 5.5.5 6.8.2 3.7 1.3 9.8 1.2 6.2 1.3 6.5 1.7 7 2.3 6.8 1 2.7.5 3 .5 3.3.2 3.2v3.5l-.2 3.5-.8 6.8-1.2 6.2-1.5 6-1.5 4.8-1 3.5-1 2.2-8.3 19.5-3.7 9-3.5 9-3.3 9-3 9.3-3 9.5-2.7 10.2-1.3 6.3-1 7.2-.7 8.3-.5 8.7-.3 9.5v9.8l.3 21-133.5-1.8 1-6.7.5-6.5.5-6.5v-13l-.5-6.3-.5-5.7-1-5.8-1-5.5-1.5-6-1.8-6-2.2-7-3.8-10.7-3.7-10.8-1.8-5.5-1.7-6-1.3-6.5-1.2-7.2-.8-8-.5-9.3v-10.2l.5-11.5.8-13 1.5-14.8 2-16.2 2.7-18.5.8-5.5 1.5-21.3 1.2-20.5 1.8-20.2.7-9 1-7.5 1.3-5.8.5-2 .5-1.5 1.2-1.7 1.3-1.5 1.5-1.3 1.5-1 1.5-.7 1.7-.5 1.5-.3h1.5l1.5.3 1.5.5 1.3.7 1.2 1 1 1 .8 1.5.5 1.5.2 2z" fill="#ffeec8"/><path d="m662.5 440h-.5l-1.2-14.7z" fill="#fff"/><path d="m660.8 425.3-4.8-47.5h115.8v62.2h-109.3zm-473-47.5-8.8 62.2h-101.2v-62.2h109.2z" fill="#c8c8c8"/><g fill="none" stroke="#231f20" stroke-linecap="round" stroke-miterlimit="10"><path d="m100.3 377.8h-4.8l-4.5-.5-2.2-.5-2-.8-2-.7-1.8-1-1.5-1.3-1.5-1.7-1-1.8-1-2.2-.7-2.5-.3-3v-3.3l.3-3.7 38-110.8 1.2-5.5 1-2.5.8-2.2 1-2 1.2-2 1.3-1.5 1.2-1.5 1.5-1.5 1.8-1 1.5-1 2-.8 1.7-.5 2-.5 2.3-.2h576.5" stroke-width="14"/><path d="m363.8 377.8h-2.3" stroke-width="19.25"/><path d="m711.5 377.8h42.3l4.7-.5 2-.5 2.3-.8 1.7-.7 1.8-1 1.7-1.3 1.3-1.7 1.2-1.8 1-2.2.5-2.5.3-3 .2-3.3-.5-3.7-37.7-110.8-1.5-5.5-.8-2.2-1-2.3-1-2.2-1-1.8-1.2-1.7-1.3-1.5-1.5-1.3-1.5-1.2-1.7-.8-1.8-1-1.7-.5-2-.5-2.3-.2h-2.2l-.5-.3h-20m-4.3 111.5h18.3m-52 0h19m-340 0h19m19 0h19m19 0h19m19 0h19m19 0h19m-358.8 0h19m19 0h8.3m426.5-41.7h19m19 0h19m-337.8 0h19m19 0h19m19 0h19m19 0h19m19 0h19m19 0h19m-378 0h19m19 0h19m354.8-39.5h19m19 0h19m-342 0h19m19 0h19m19 0h19m19 0h19m19 0h19m19 0h19m19 0h19m-355 0h19m19 0h19m19 0h17.5m195.5 188.7h-97m277.7-62.2h115.8v62.2h-109.8m-298.2-62.2h118.5m-303.3 62.2h-101.2v-62.2h110m330.2 86.5 2.3-3 2-3.5 2.2-4 2-4.5 2.5-6 2-6.3 1.8-6.2 1.5-6.8.7-6.7.5-6.5v-3.3l-.2-3-.5-3-.5-3v-1.5l-.8-3.5-1.5-5.7-4.7-16.3-11.5-39.5-5-17.2-1.5-6-.8-3.5-.2-2.5.5-2.5.7-2.5 1.3-2 1.5-1.8 2-1.5 2-1 2.2-.7h3.5l1.5.5 1.8.7 1.5.8 1.7 1.2 1.5 1.8 1.3 1.7 1.2 2.3 1.3 2.7 30 75 6.5 16.5 2 51.3m36.7-2.5-5.5-43.5-2.5-12.5-6.5-30.3-7-33-7.5-32.5-3.5-14-3-11.5-2.7-8.5-1-2.5-.8-1.5-1.2-1.5-1.3-1-1.2-1-1.5-.7-1.3-.5-1.2-.5-1.3-.3h-2.5l-1.2.3-2.5 1-2 1.5-2 2-1.3 1.5-1 1.7-.5 1.8-.2 2-.3 2.7v7l.5 4.5.8 4.8 2 12 14.5 87.2m72.5 71.3-5.8-51-1.7-11.8-3.8-29.2-2.7-17.8-2.8-18-2.7-17-2.8-14.5-1.2-5.7-1.3-4.8-1.2-3.5-.5-1.2-.5-.8-1.5-1.5-1.5-1.2-1.5-.8-1.5-.7-1.5-.3h-1.5l-1.5.3-1.5.2-1.3.5-1.2.8-1.3.7-1 1-2 2.3-1.2 2.5 5 79" stroke-width="14"/><path d="m662.8 443-.3-3-1.7-14.7-3-19.8-.8-5.5-1.5-21.5-1.7-27.5-1.3-13.2-1.2-11.8-.8-4.7-.5-4-.7-3-.8-2-1.2-1.8-1.3-1.5-1.5-1.2-1.5-1-1.5-.8-1.7-.5-1.5-.2h-1.5l-1.5.2-1.5.5-1.3.8-1.2.7-1 1.3-.8 1.5-.5 1.5-.2 1.7.5 72.5.2 1.5" stroke-width="14"/><path d="m643.8 628.8-.8-6.8-.5-6.5-.5-6.5v-13l.5-6.2.5-6 1-5.5 1-5.8 1.5-5.7 1.8-6.3 2.2-6.7 3.3-9.5 3.2-9 1.5-4.8 1.5-5 1.5-5.2 1.3-5.5 1-6.3.7-6.7.5-7.3.3-8.5v-9l-.5-10.2-.8-11.3-1.2-12.5m-139.3 4.8-1.5-1.5-1.5-2-1-2-1.2-2.3-.8-2-.7-2.5-1-4.5-.5-4.7-.3-4.5v-4.3l.3-3.7.2-3.3.5-3 .3-2.7.5-3v-6.3l-.8-4-1.2-5-1-2.2-1-2.5-1.8-3-2-3-2.5-3-1.5-1.3-1.5-1.2-1.7-1-1.8-1-1.7-.8-2.3-.7-2.2-.3h-2.3l-1 .5-1.2.5-1 1-1 1.3-1 1.5-.8 1.7-.7 2.5-.8 2.8-.7 4.7-.5 5.8-.3 6.5-.2 4-1.3 9.5-1.2 6.2-1.3 6.8-1.7 7-2.3 6.5-.7 2.2-.5 2.5-.5 3.3-.3 3.5-.2 3.5.2 3.5.3 3.5.5 3.2 1.2 6.8 1.3 6 1.5 5 1.2 3.7 1 2.3 8.3 19.5 3.7 9 3.5 9 3.3 9 3 9.2 3 9.5 2.7 10.3 1.3 6.2 1 7.3.7 8 .5 9 .3 9.5v9.7l-.3 20.8m-180.5-339.5-2.2-.5-2.3-.3-2.5.5-2.2.8-2.3 1.7-1.2 1-1 1.3-1 1.2-1 1.5-1.8 3.8-30 75.2-6.7 16.3-1.8 51.5" stroke-width="14"/><path d="m332 291.8-1.5-.8-.5-.2" stroke-width="12.75"/><path d="m328.3 463.5-2.3-3-2-3.5-2.2-4-2-4.5-2.5-5.7-2-6.3-1.8-6.5-1.5-6.7-.7-6.5-.5-6.8v-3l.2-3.2.5-3 .5-3v-1.3l.8-3.5 1.5-5.7 4.5-16 11.5-39.3 5-17.7 1.7-6 .8-3.5.2-2-.2-2-.3-2-.7-1.5-1-1.8-1-1.2-1.3-1.3-1.5-1.2m-94.7 150.2 5.5-43.5 2.5-12.5 6.5-30.2 7-33 7.5-32.5 3.5-14 3-11.5 2.5-8.3 1.2-2.7.8-1.5 1-1 2.2-2 1.3-.8 1.2-.7 1.3-.5 1.2-.3 2.5-.2 2.3.5 2.2.7 2 1.5 2 1.8 1.3 1.7 1 1.8.5 1.7.2 2 .3 2.8v7.2l-.5 4.3-.8 4.7-16.5 99.3m-72.5 71.2 5.8-50.7 1.5-11.8 4-29.2 2.7-18 2.8-18 2.7-16.8 2.8-14.5 1.2-6 1.3-4.7 1.2-3.5.5-1.3.5-.7 1.5-1.5 1.5-1.3 1.5-.7 1.5-.5 1.5-.5h1.5l1.5.2 1.5.3 1.3.7 1.2.5 1.3 1 1 1 2 2 1.2 2.5-5 79.3" stroke-width="14"/><path d="m202.3 628 1-6.7.5-6.5.5-6.5v-13l-.5-6.3-.5-5.7-1-5.8-1-5.5-1.5-6-1.8-6-2.2-7-3.8-10.7-3.7-10.8-1.8-5.5-1.7-6-1.3-6.5-1.2-7.2-.8-8-.5-9.3v-10.2l.5-11.5.8-13 1.5-14.8 2-16.2 2.7-18.5.8-5.5 1.5-21.3 1.2-20.5 1.8-20.2.7-9 1-7.5 1.3-5.8.5-2 .5-1.5 1.2-1.7 1.3-1.5 1.5-1.3 1.5-1 1.5-.7 1.7-.5 1.5-.3h1.5l1.5.3 1.5.5 1.3.7 1.2 1 1 1 .8 1.5.5 1.5.2 2-.7 72.5v1.5m106 60.3 1.5-1.8 1.5-2 1-2 1.2-2 .8-2.2.7-2.3 1-4.7.5-4.8.3-4.5v-4.2l-.3-3.8-.2-3.2-.5-3-.3-2.8-.5-2.7v-6.5l.8-4 1.2-4.8 1-2.5 1-2.5 1.8-2.7 2-3.3 2.5-3 1.5-1.2 1.5-1.3 1.7-1 1.8-.7 1.7-1 2.3-.5 2.2-.5h1.3l1 .2 1.2.3 1 .7 1 1 1 1.3 1 1.5 1 2 .8 2.2.5 2.8.7 4.7.3 5.5.5 6.8.2 3.7 1.3 9.8 1.2 6.2 1.3 6.5 1.7 7 2.3 6.8 1 2.7.5 3 .5 3.3.2 3.2v3.5l-.2 3.5-.8 6.8-1.2 6.2-1.5 6-1.5 4.8-1 3.5-1 2.2-8.3 19.5-3.7 9-3.5 9-3.3 9-3 9.3-3 9.5-2.7 10.2-1.3 6.3-1 7.2-.7 8.3-.5 8.7-.3 9.5v9.8l.3 21" stroke-width="14"/></g></svg>