<svg height="850.394" viewBox="0 0 850.394 850.394" width="850.394" xmlns="http://www.w3.org/2000/svg"><g fill="#cb82b7"><path d="m421.75 90.92c148.19 15.81 138 17.6 151.89 27.79 33.29 24.41 102.63 105.22 103.71 106.49l-.229.24c-21.2-21.01-43.5-40.71-64.58-54.87-64.83-43.53-176.9-68.53-176.9-68.53l-2.439.37c-6.05-5.04-9.6-7.78-9.6-7.78l-3.09-1.24v-2.47zm-3.4 4.02s-3.26 2.51-8.86 7.16l-3.18.24s-112.06 25.01-176.89 68.54c-21.08 14.15-43.38 33.86-64.59 54.88l-.24-.24s70.18-81.9 103.73-106.51c13.89-10.18 3.7-11.97 151.88-27.78h.31v2.16z"/><path d="m406.31 102.34 3.18-.24c-25.56 21.21-99.91 86.94-135.61 161.39-43.53 90.76-78.72 185.229-78.72 185.229s-12.04-35.2-39.83-66.68c-27.78-31.49-73.16-58.35-73.16-58.35l-4.19-.75c18.46-22.6 51.11-61.76 86.85-97.18 21.21-21.02 43.51-40.73 64.59-54.88 64.83-43.529 176.89-68.539 176.89-68.539z"/><path d="m423.6 94.63s3.55 2.74 9.6 7.78c26.24 21.85 99.51 87.03 134.88 160.77 43.53 90.76 78.72 185.23 78.72 185.23s-75.01-15.74-221.34-10.19l-8.96.311c-146.33-5.561-221.34 10.189-221.34 10.189s35.19-94.47 78.72-185.229c35.7-74.45 110.05-140.18 135.61-161.39 5.6-4.65 8.86-7.16 8.86-7.16l2.16-1.55z"/><path d="m686.63 381.73c-27.79 31.49-39.83 66.68-39.83 66.68s-35.189-94.47-78.72-185.23c-35.37-73.74-108.64-138.92-134.88-160.77l2.439-.37s112.07 25 176.9 68.53c21.08 14.16 43.38 33.86 64.58 54.87 34.84 34.53 66.74 72.61 85.43 95.44l-2.76 2.5c.001 0-45.379 26.86-73.159 58.35z"/></g><g fill="none"><g stroke="#000" stroke-linecap="round" stroke-linejoin="round" stroke-width="21"><path d="m406.31 102.34s-112.06 25.01-176.89 68.54c-21.08 14.15-43.38 33.86-64.59 54.88-35.74 35.42-68.39 74.58-86.85 97.18-.46.57-.92 1.13-1.37 1.68"/><path d="m164.59 225.52s70.18-81.9 103.73-106.51c13.89-10.18 3.7-11.97 151.88-27.78m-338.03 232.46s45.38 26.86 73.16 58.35c27.79 31.48 39.83 66.68 39.83 66.68s35.19-94.47 78.72-185.229c35.7-74.45 110.05-140.18 135.61-161.39 5.6-4.65 8.86-7.16 8.86-7.16m17.29 7.099s112.07 25 176.9 68.53c21.08 14.16 43.38 33.86 64.58 54.87 34.84 34.53 66.74 72.61 85.43 95.44.97 1.19 1.9 2.33 2.8 3.43"/><path d="m677.36 225.21-.011-.01c-1.08-1.27-70.42-82.08-103.71-106.49-13.89-10.19-3.699-11.98-151.89-27.79m338.041 232.46s-45.38 26.86-73.16 58.35c-27.79 31.49-39.83 66.68-39.83 66.68s-35.189-94.47-78.72-185.23c-35.37-73.74-108.64-138.92-134.88-160.77-6.05-5.04-9.6-7.78-9.6-7.78m223.2 353.78s-75.01-15.74-221.34-10.19l-8.96.311c-146.33-5.561-221.34 10.189-221.34 10.189m225.35-384.65v29.32"/><path d="m420.2 445.01v290.81s4.17 39.359-33.34 39.819c-29.63.37-32.87-26.859-33.64-46"/></g><path d="m0 0h850.394v850.394h-850.394z"/></g></svg>