<svg height="850.394" viewBox="0 0 850.394 850.394" width="850.394" xmlns="http://www.w3.org/2000/svg"><path d="m112.959 157.03h379.654v379.658h-379.654z" fill="none" stroke="#231f20" stroke-width="21"/><path d="m252.73 602.712h154.275v154.276h-154.275z" fill="none"/><g fill="#5668af"><circle cx="283.585" cy="602.712" r="14.292"/><circle cx="314.44" cy="602.712" r="14.292"/><circle cx="345.296" cy="602.712" r="14.292"/><circle cx="376.151" cy="602.712" r="14.292"/><circle cx="407.005" cy="633.567" r="14.292"/><circle cx="407.005" cy="664.423" r="14.292"/><circle cx="407.005" cy="695.278" r="14.292"/><circle cx="407.005" cy="726.134" r="14.292"/><circle cx="376.15" cy="756.988" r="14.292"/><circle cx="345.295" cy="756.988" r="14.292"/><circle cx="314.439" cy="756.988" r="14.292"/><circle cx="283.584" cy="756.988" r="14.292"/><circle cx="252.73" cy="726.133" r="14.292"/><circle cx="252.73" cy="695.277" r="14.292"/><circle cx="252.73" cy="664.422" r="14.292"/><circle cx="252.73" cy="633.566" r="14.292"/><circle cx="407.005" cy="602.713" r="14.292"/><circle cx="407.005" cy="756.988" r="14.292"/><circle cx="252.73" cy="756.988" r="14.292"/><circle cx="252.73" cy="602.712" r="14.292"/></g><path d="m662.955 671.212-146.506-48.931 67.238-139.187" fill="none" stroke="#231f20" stroke-width="28"/><path d="m514.075 80.347c183.679 37.217 228.235 166.413 228.235 274.998 0 137.21-88.323 256.99-214.409 256.99" fill="none" stroke="#231f20" stroke-width="28"/><path d="m0 0h850.394v850.394h-850.394z" fill="none"/></svg>