<svg height="850" viewBox="0 0 850 850" width="850" xmlns="http://www.w3.org/2000/svg"><path d="m138 460.5v23.3h9v-23.3h7.3v7.8l-.5 5.7-.5 5.3-1 5.2-1.3 4.8-1.5 4.2-1.7 4-1.8 3.5-2 3.3-2 3-2 2.2-2 2-2 1.8-2 1-1.7.7-1.8.3-1.2-.3h-1l-2.5-1-2.3-1.5-2.2-2-2-2.5-2-3-1.8-3.5-1.7-3.7-1.5-4.3-1.3-4.7-1.2-4.8-1-5.2-.8-5.5-.7-5.8-.3-6v-12l.3-6 .7-5.7.8-5.5 1-5.3 1.2-4.7 1.3-4.8 1.5-4.2 1.7-3.8 1.8-3.5 2-3 2-2.5 2.2-2 2.3-1.5 2.5-.7 1-.3 1.2-.2 2 .2 1.8.5 1.7.8 1.5 1.2 1.8 1.5 1.5 1.8 1.5 2 1.5 2.2 1.5 2.5 1.2 2.8 1.3 3 1 3.2 2 7 1.7 7.8v.2h-21.5v15.3h2.3v12.7z" fill="#ffffc2"/><path d="m147 460.5v23.3h-9v-23.3zm28.3 0v23.3h-9v-23.3zm5.2-12.7v12.7h-47.2v-12.7zm117.8-15.3 3.5.5-.8 3.8v7.2l.8 3.8h-170.8v-15.3h21.5z" fill="#fbee34"/><path d="m387.8 471.8.5 5.5-5.3 17.7-5 16.8-6.2 18.7-3.3 9.3-3.5 8.7-3.2 8-3.3 7-2.5 4.5-2.5 3.8-2.7 3.2-2.5 2.8-2.5 2-2.8 1.7-2.5 1.3-2.5.7-2.7.5h-2.5l-2.5-.2-2.5-.8-2.5-.7-2.5-1-2.3-1.3-2.5-1.2-1-1-.7-1.5-.5-1.8-.5-2.5-.3-2.5v-3l.5-7 1-7.7 1.5-8.5 2-9 2-9.3 4.5-17.7 4.3-15.3 4.5-14.7.2-4.3 3.8.3 4 .2h11l11-.2 11.2-.8zm-38-67.5 13.7-.5 15-.5.3 5-2.5 6.7-1.5 3-1.5 2.8-1.5 2.7-1.5 2.5-1.8 2.5-1.7 2-1.8 2-1.7 1.8-2 1.7-2 1.5-2.3 1.5-2 1.3-4.5 2.2-4.7 1.8-5.3 1.2-5.2 1-5.5.5-6 .5-6 .3-13 .2-1.8-.2h-1.2l-.8-3.8v-7.2l.8-3.8.7-2.7.8-2.8 1.2-2.7 1.3-2.8 1.5-2.5 1.7-2.2 1.8-2.3 2-2.2 2.2-1.8 2.3-1.7 2.2-1.5 2.5-1.3 2.8-1 2.7-.7 2.8-.3 3-.2 7.5.2z" fill="#ffeec8"/><path d="m349.8 404.3 13.7-.5 15-.5.3 5-2.5 6.7-1.5 3-1.5 2.8-1.5 2.7-1.5 2.5-1.8 2.5-1.7 2-1.8 2-1.7 1.8-2 1.7-2 1.5-2.3 1.5-2 1.3-4.5 2.2-4.7 1.8-5.3 1.2-5.2 1-5.5.5-6 .5-6 .3-13 .2-1.8-.2h-1.2l-.8-3.8v-7.2l.8-3.8.7-2.7.8-2.8 1.2-2.7 1.3-2.8 1.5-2.5 1.7-2.2 1.8-2.3 2-2.2 2.2-1.8 2.3-1.7 2.2-1.5 2.5-1.3 2.8-1 2.7-.7 2.8-.3 3-.2 7.5.2zm38 67.5.5 5.5-5.3 17.7-5 16.8-6.2 18.7-3.3 9.3-3.5 8.7-3.2 8-3.3 7-2.5 4.5-2.5 3.8-2.7 3.2-2.5 2.8-2.5 2-2.8 1.7-2.5 1.3-2.5.7-2.7.5h-2.5l-2.5-.2-2.5-.8-2.5-.7-2.5-1-2.3-1.3-2.5-1.2-1-1-.7-1.5-.5-1.8-.5-2.5-.3-2.5v-3l.5-7 1-7.7 1.5-8.5 2-9 2-9.3 4.5-17.7 4.3-15.3 4.5-14.7.2-4.3 3.8.3 4 .2h11l11-.2 11.2-.8z" fill="#ffeec8"/><path d="m445 512.5 4.8 9 5 8.8 4.7 9 4.5 9 .5 1 1.5 4.2 1 3.8.5 3.7v3.5l-.5 3.3-.7 3-1.5 2.5-1.5 2.5-2.3 2-2.2 1.7-2.8 1.3-3 .7-3.5.5h-3.5l-4-.5-4-1-2.2-.7-2-1.3-2.3-1.5-2.2-2-2.5-2.2-2.3-2.5-4.5-5.8-4.5-6.7-4.5-7-4.5-7.8-4-7.5-4-7.7-3.5-7.3-5.7-12.7-3.8-9-1.5-3.5-1-.3 5.3-17.7-.5-5.5 26-2.3 12.2-1 11.5-.7 11-.5h14l4.3.5 3.7.2 3.5.8 16.3 3.5 18 3.2 21.2 3.8-.2 1.2 10.2 31.8-.7.2-1-2.2-1.5-2.3-2-2-2.5-2-2.8-2-3.5-1.5-3.7-1.2-4.3-1-4-.5h-4.5l-5 .2-5.2.8-5.5 1-5.5 1.2-11 2.8-10.3 3-8.2 2.7-7.5 2.8z" fill="#ffeec8"/><path d="m335.5 473-3.7-.5-3.5-.7-3.3-.8-3.2-1.2-2.8-1.3-2.7-1.2-2.3-1.5-2.2-1.8-2-1.7-1.8-1.8-1.5-2-1.5-2-1-2-1-2.2-.7-2.3-.5-2.2h1.2l1.8.2 13-.2 6-.3 6-.5 5.5-.5 5.2-1 5.3-1.2 4.7-1.8 4.5-2.2 2-1.3 2.3-1.5 2-1.5 2-1.7 1.7-1.8 1.8-2 1.7-2 1.8-2.5 1.5-2.5 1.5-2.7 1.5-2.8 1.5-3 2.5-6.7-.3-5-15 .5-13.7.5 20.2-23.5 17.3-19.8 19.7-22 10.3-11.2 10.2-10.8 10-10.5 9.5-9.7 9-8.5 8-7.3 3.8-3 3.2-2.5 3-2.2 2.8-1.5 2.7-1.3 3-1.2 3-.8 3-.7 3.3-.3 3.5-.2 3.5-.3 3.7.3 8 .5 8.5 1.2 9 1.5 9.8 2 21.5 4.8 24.2 5.2 13.3 2.5 13.7 2.5 14.8 2.3 15.5 2 9.2.7 9 .8 8.5.5 8 .2h7.5l7.3-.2 6.7-.5 6.3-.5 6-.5 5.5-.8 5.2-1 5-1 8.5-2 7.3-2.2v193.7l-9 3.5-9.5 3-10 2.5-10 2.5-10 1.8-10.5 1.2-5.3.5-5.2.3h-10.8l-14.5-.5-15.7-1.3-16.5-1.5-17.3-2-17.2-2.2-17.3-2.3-16.5-2.7-16-2.5-21.2-3.8-18-3.2-16.3-3.5-3.5-.8-3.7-.2-4.3-.5h-14l-11 .5-11.5.7-12.2 1-26 2.3-11.3.7-11.2.8-11 .2h-11l-4-.2zm214.8 49.5 2.7 2.3 2.3 2.5 2 2.7 1.5 2.5 1.5 2.3.7 2.5.8 2.5.2 2.2-.2 2-.3 2-.7 1.8-.8 1.7-1.2 1.3-1.5 1.2-1.8 1-2 .5-2.2.3h-3.3l-3.7-.3-4.3-.5-9.7-1.5-10.5-1.7-10.3-2.3-9.5-2-12-2.7 14.3-4.8 14.2-5.2 6.5-2.5 5.5-2.5 4.3-2.3 1.5-1 1.2-.7 1.5-1.8 1.3-1.7.5-1.8.5-2h1.2l2.8 1.5 2.7 1.3 2.3 1.5z" fill="#ffeec8"/><path d="m488 542.8-14.5 4.7-5.7 1.8h-3.3l-.5-1-4.5-9-4.7-9-5-8.8-4.8-9 5.8-.2 7.5-2.8 8.2-2.7 10.3-3 11-2.8 5.5-1.2 5.5-1 5.2-.8 5-.2h4.5l4 .5 4.3 1 3.7 1.2 3.5 1.5 2.8 2 2.5 2 2 2 1.5 2.3 1 2.2.2 2 .3 2-.5 2-.5 1.8-1.3 1.7-1.5 1.8-1.2.7-1.5 1-4.3 2.3-5.5 2.5-6.5 2.5-14.2 5.2z" fill="#ffeec8"/><g fill="none" stroke="#231f20" stroke-linecap="round" stroke-miterlimit="10"><path d="m180.5 447.8h122.5m-4.7-15.3h-167.3v15.3h2.3" stroke-width="9"/><path d="m166.3 460.5h-19.3m-9 0h-4.7v-12.7h47.2v12.7h-5.2" stroke-width="11.25"/><path d="m175.3 460.5v23.3h-9v-23.3zm-28.3 0v23.3h-9v-23.3z" stroke-width="7"/><path d="m740.8 285.3-7.3 2.2-8.5 2-5 1-5.2 1-5.5.8-6 .5-6.3.5-6.7.5-7.3.2h-7.5l-8-.2-8.5-.5-9-.8-9.2-.7-15.5-2-14.8-2.3-13.7-2.5-13.3-2.5-24.2-5.2-21.5-4.8-9.8-2-9-1.5-8.5-1.2-8-.5-3.7-.3-3.5.3-3.5.2-3.3.3-3 .7-3 .8-3 1.2-2.7 1.3-2.8 1.5-3 2.2-3.2 2.5-3.8 3-8 7.3-9 8.5-9.5 9.7-10 10.5-10.2 10.8-10.3 11.2-19.7 22-17.3 19.8-20.2 23.5-.8 1m-13.7 72-4.5 14.7-4.3 15.3-4.5 17.7-2 9.3-2 9-1.5 8.5-1 7.7-.5 7v3l.3 2.5.5 2.5.5 1.8.7 1.5 1 1 2.5 1.2 2.3 1.3 2.5 1 2.5.7 2.5.8 2.5.2h2.5l2.7-.5 2.5-.7 2.5-1.3 2.8-1.7 2.5-2 2.5-2.8 2.7-3.2 2.5-3.8 2.5-4.5 3.3-7 3.2-8 3.5-8.7 3.3-9.3 6.2-18.7 5-16.8 5.3-17.7m102-5 18 3.2 21.2 3.8 16 2.5 16.5 2.7 17.3 2.3 17.2 2.2 17.3 2 16.5 1.5 15.7 1.3 14.5.5h10.8l5.2-.3 5.3-.5 10.5-1.2 10-1.8 10-2.5 10-2.5 9.5-3 9-3.5" stroke-width="14"/><path d="m490.3 472.3-16.3-3.5-3.5-.8-3.7-.2-4.3-.5h-14l-11 .5-11.5.7-12.2 1-26 2.3-11.3.7-11.2.8-11 .2h-11l-4-.2-3.8-.3-3.7-.5-3.5-.7-3.3-.8-3.2-1.2-2.8-1.3-2.7-1.2-2.3-1.5-2.2-1.8-2-1.7-1.8-1.8-1.5-2-1.5-2-1-2-1-2.2-.7-2.3-.5-2.2-.8-3.8v-7.2l.8-3.8.7-2.7.8-2.8 1.2-2.7 1.3-2.8 1.5-2.5 1.7-2.2 1.8-2.3 2-2.2 2.2-1.8 2.3-1.7 2.2-1.5 2.5-1.3 2.8-1 2.7-.7 2.8-.3 3-.2 7.5.2 9-.2 13.7-.5 15-.5 31.5-2 28-1.8 11-.7 10.5-1.5 10-1.8 9.5-2.5 9.5-2.7 9.3-3.3 9.2-3.7 9.5-4.5 2.3-1.3 2-1 1.5-1.5 1.2-1.2 1-1.3.8-1.2.2-1.5.3-1.3v-1.5l-.3-1.2-.5-1.5-.5-1.3-1.5-2.7-2-2.8-2.2-2.2-2.5-2.5-2.5-2-2.3-1.8-3.7-2.5-1.5-1m-122.3 149.8 1.5 3.5 3.8 9 5.7 12.7 3.5 7.3 4 7.7 4 7.5 4.5 7.8 4.5 7 4.5 6.7 4.5 5.8 2.3 2.5 2.5 2.2 2.2 2 2.3 1.5 2 1.3 2.2.7 4 1 4 .5h3.5l3.5-.5 3-.7 2.8-1.3 2.2-1.7 2.3-2 1.5-2.5 1.5-2.5.7-3 .5-3.3v-3.5l-.5-3.7-1-3.8-1.5-4.2-.5-1-4.5-9-4.7-9-5-8.8-4.8-9-1.2-2.2-4-8.3-3.8-7.2-4-8.8-5-12.5m23.8 38.8 7.5-2.8 8.2-2.7 10.3-3 11-2.8 5.5-1.2 5.5-1 5.2-.8 5-.2h4.5l4 .5 4.3 1 3.7 1.2 3.5 1.5 2.8 2 2.5 2 2 2 1.5 2.3 1 2.2.2 2 .3 2-.5 2-.5 1.8-1.3 1.7-1.5 1.8-1.2.7-1.5 1-4.3 2.3-5.5 2.5-6.5 2.5-14.2 5.2-14.3 4.8-14.5 4.7-5.7 1.8" stroke-width="14"/><path d="m540.5 516.5 2.8 1.5 2.7 1.3 2.3 1.5 2 1.7 2.7 2.3 2.3 2.5 2 2.7 1.5 2.5 1.5 2.3.7 2.5.8 2.5.2 2.2-.2 2-.3 2-.7 1.8-.8 1.7-1.2 1.3-1.5 1.2-1.8 1-2 .5-2.2.3h-3.3l-3.7-.3-4.3-.5-9.7-1.5-10.5-1.7-10.3-2.3-9.5-2-12-2.7-1-.3m-332.7-80.2v6l-.5 5.7-.5 5.3-1 5.2-1.3 4.8-1.5 4.2-1.7 4-1.8 3.5-2 3.3-2 3-2 2.2-2 2-2 1.8-2 1-1.7.7-1.8.3-1.2-.3h-1l-2.5-1-2.3-1.5-2.2-2-2-2.5-2-3-1.8-3.5-1.7-3.7-1.5-4.3-1.3-4.7-1.2-4.8-1-5.2-.8-5.5-.7-5.8-.3-6v-12l.3-6 .7-5.7.8-5.5 1-5.3 1.2-4.7 1.3-4.8 1.5-4.2 1.7-3.8 1.8-3.5 2-3 2-2.5 2.2-2 2.3-1.5 2.5-.7 1-.3 1.2-.2 2 .2 1.8.5 1.7.8 1.5 1.2 1.8 1.5 1.5 1.8 1.5 2 1.5 2.2 1.5 2.5 1.2 2.8 1.3 3 1 3.2 2 7 1.7 7.8m152.3 15.7 13-.2 6-.3 6-.5 5.5-.5 5.2-1 5.3-1.2 4.7-1.8 4.5-2.2 2-1.3 2.3-1.5 2-1.5 2-1.7 1.7-1.8 1.8-2 1.7-2 1.8-2.5 1.5-2.5 1.5-2.7 1.5-2.8 1.5-3 2.5-6.7m150.5 72.2 10.2 31.8.3 1" stroke-width="14"/></g></svg>