<svg height="850.394" viewBox="0 0 850.394 850.394" width="850.394" xmlns="http://www.w3.org/2000/svg"><path d="m424.02 459.75c28.47-3.21 58.11-.23 68.04 4.24 6.7 3.05 15.381 14.14 13.11 23.149-2.38 10.011-25.14 9.32-32.92 13.24.42 7.9 11.46 5.42 10.71 11.061-2.479 2.01-6.63 3.06-11.7 3.43l-1.029.06c-15.58.83-39.04-4.34-50.23-8.229-.17-.63-.35-1.271-.52-1.9-4.01-14.55-8.43-28.93-12.84-42.37l4.17-.699c4.319-.832 8.749-1.482 13.209-1.982z" fill="#ffeec8"/><path d="m726.34 556.38-14.97-4.96-10.19 11.92 26.221 8.68zm24.28 7.29-10.19 11.93 26.221 8.681-1.061-15.66zm5.22-1.19-1.04-15.65-14.97-4.96-10.2 11.93zm-70.71-23.66 26.2 8.68-1.04-15.64-14.98-4.971zm-130.96-43.14 26.2 8.681-1.04-15.65-14.97-4.96zm-1.01 3.33-14.98-4.96-10.18 11.92 26.2 8.681zm-46.26-19.38 26.199 8.68-1.04-15.659-14.97-4.96zm162.24 57.56-10.18 11.93 26.2 8.68-1.05-15.64zm-27.49-12.65 26.21 8.68-1.051-15.649-14.97-4.96zm-1.01 3.33-14.97-4.96.67-3.21-1.04-15.65-14.979-4.96-10.19 11.93.08.03-1.09 3.3-14.97-4.96-10.19 11.931 23.021 7.62c-12.48-.23-26.25.54-39.221 2.76l-.02-.12c-5.41.91-14.58 2.45-25.83 4.3l-60.92-20.18.27-.83c5.07-.37 9.221-1.42 11.7-3.43.75-5.641-10.29-3.16-10.71-11.061 7.78-3.92 30.54-3.229 32.92-13.24 2.271-9.01-6.41-20.1-13.11-23.149-9.93-4.471-39.569-7.45-68.04-4.24l1.979-25.751h.06v14.9h71.44l279.43 89.8.311-.92 3.27 1.08c6.33 2.1 8.55 7.12 7.26 16.479l-4.51 49.74c-2.47 12-9.319 10.97-15.66 8.87l-13-4.3-5.75-1.91-120.51-39.92c9.08-1.67 19.311-3.65 20.87-10.181 1.69-6.75-2.729-14.64-7.87-19.47z" fill="#7a7878"/><path d="m765.59 568.62 1.06 15.66-26.22-8.68 10.19-11.93zm-10.79-21.79 1.04 15.65-26.21-8.68 10.2-11.93zm-28.46 9.55 1.06 15.64-26.22-8.68 10.19-11.92z" fill="#231f20"/><path d="m619.09 395.58h98.28v17.65h-98.28zm37.07-39.45h61.21v17.66h-61.21z" fill="#7a7878"/><path d="m710.29 531.86 1.04 15.64-26.2-8.68 10.18-11.93z" fill="#231f20"/><path d="m687.25 269.82c3.58 0 6.47 2.91 6.47 6.48s-2.89 6.47-6.47 6.47c-3.57 0-6.46-2.9-6.46-6.47s2.89-6.48 6.46-6.48z" fill="#7a7878"/><path d="m483.98 124.26h203.14v136.05h-203.14z" fill="#fff"/><path d="m684.11 542.16 1.05 15.64-26.2-8.68 10.18-11.93z" fill="#231f20"/><path d="m687.25 282.77c3.58 0 6.47-2.9 6.47-6.47s-2.89-6.48-6.47-6.48c-3.57 0-6.46 2.91-6.46 6.48s2.89 6.47 6.46 6.47zm7.01-180.88c8.76 0 15.86 7.1 15.86 15.85v158.41c0 8.75-7.101 15.83-15.86 15.83h-218.04c-8.739 0-15.84-7.08-15.84-15.83v-158.41c0-8.75 7.101-15.85 15.84-15.85zm-15.14 174.5c0-3.57-2.9-6.47-6.47-6.47-3.58 0-6.48 2.9-6.48 6.47 0 3.58 2.9 6.48 6.48 6.48 3.57 0 6.47-2.9 6.47-6.48zm8-16.08v-136.05h-203.14v136.05z" fill="#c8c8c8"/><path d="m672.65 269.92a6.475 6.475 0 1 1 -.01 12.95 6.475 6.475 0 0 1 .01-12.95z" fill="#7a7878"/><path d="m666.81 517.57 1.05 15.65-26.21-8.68 10.19-11.93zm-41.51-13.52 1.04 15.65-26.13-8.65-.08-.03 10.19-11.93z" fill="#231f20"/><path d="m626.34 519.7-.67 3.21-6.51 7.62c-5.61-.761-12.09-1.29-19.05-1.511l-.99-14.67 1.09-3.3zm2 48.12 120.51 39.92 5.75 1.91 13 4.3 11.33 3.76-8.39 25.32-159.81-56.79-.41-.73c7.319.05 13.43-.939 16.67-3.569.76-5.641-10.29-3.16-10.7-11.061 2.7-1.36 7.21-2.17 12.04-3.06z" fill="#7a7878"/><path d="m596.98 528.94-23.021-7.62 10.19-11.931 14.97 4.96.99 14.67c-1.029-.039-2.079-.059-3.129-.079zm-17.65-40.23 1.04 15.65-26.2-8.68 10.19-11.93zm-26.17 10.3 1.04 15.64-26.2-8.68 10.18-11.92zm-21.1-26.36 1.04 15.66-26.2-8.68 10.19-11.94z" fill="#231f20"/><path d="m497.5 448.9h-71.44v-116.3h318.98v116.3zm219.87-35.67v-17.65h-98.28v17.65zm0-39.44v-17.66h-61.21v17.66z" fill="#c8c8c8"/><path d="m208.83 328.62.81-2.3c10.51 6.63 22.55 10.4 35.35 10.4 11.74 0 22.84-3.17 32.71-8.82 2.35 1.05 19.95 8.99 40.4 19.58 21.97 11.38 47.22 25.84 60.33 38.12 0 0 14.06 33.7 28.21 76.83 4.41 13.44 8.83 27.82 12.84 42.37-.12-.02-.23-.04-.32-.06a.831.831 0 0 0 -.17-.12c-.09.04-.01.08.17.12.65.58-1.21 1.25.84 1.96 4.11 15.05 7.75 30.26 10.46 44.819.15.801.3 1.591.44 2.381l-.061.01-54.87 70.439-1.08 1.391-11.41 17.22h-2v79.51h-291.219v-117.84c3.06-87.36 12.46-141.91 21.09-174.61 8.63-32.709 16.49-43.58 16.49-43.58 26.22-24.57 100.99-57.82 100.99-57.82z" fill="#a9d7f3"/><path d="m626.99 581.94c-3.24 2.63-9.351 3.619-16.67 3.569-18.641-.1-45.03-6.92-51.301-10.39-25 11.1-49.979 22.2-74.979 33.32-14.55 6.449-29.84 12.119-43.94 19.479-23.58 12.33-38.2 8.18-62.209-2.18-.11-.05-.16-.05-.16-.021l-1.76-1.37 54.87-70.439.061-.01c-.141-.79-.29-1.58-.44-2.381 27.32-3.6 71.66-10.729 101.45-15.64 11.25-1.85 20.42-3.39 25.83-4.3l.02.12c12.971-2.22 26.74-2.99 39.221-2.76l3.199 1.06-.069-.98c6.96.221 13.439.75 19.05 1.511l-3.68 4.3 26.22 8.689-.36-5.35c5.141 4.83 9.561 12.72 7.87 19.47-1.56 6.53-11.79 8.511-20.87 10.181h-.01c-4.83.89-9.34 1.699-12.04 3.06.407 7.902 11.457 5.422 10.697 11.062z" fill="#ffeec8"/><path d="m277.7 327.9c-9.87 5.65-20.97 8.82-32.71 8.82-12.8 0-24.84-3.77-35.35-10.4-23.12-14.58-38.81-43.03-38.81-75.74 0-47.57 33.2-86.14 74.16-86.14s74.17 38.57 74.17 86.14c0 33.94-16.9 63.3-41.46 77.32z" fill="#9e5c26"/><g fill="none"><g stroke="#231f20"><path d="m710.12 276.15c0 8.75-7.101 15.83-15.86 15.83h-218.04c-8.739 0-15.84-7.08-15.84-15.83v-158.41c0-8.75 7.101-15.85 15.84-15.85h218.04c8.76 0 15.86 7.1 15.86 15.85z" stroke-width="14.526"/><path d="m483.98 124.26h203.14v136.05h-203.14z" stroke-width="14.526"/><path d="m687.25 269.82c3.58 0 6.47 2.91 6.47 6.48s-2.89 6.47-6.47 6.47c-3.57 0-6.46-2.9-6.46-6.47s2.89-6.48 6.46-6.48zm-14.6.1a6.475 6.475 0 1 1 -.01 12.95 6.475 6.475 0 0 1 .01-12.95z" stroke-width="6.225"/><path d="m540.81 332.6v-40.15h89.46v40.15m0 0h114.77v116.3h-318.98v-116.3h114.75z" stroke-width="14.526"/><path d="m619.09 395.58h98.28v17.65h-98.28zm37.07-39.45h61.21v17.66h-61.21z" stroke-width="9.196"/><path d="m496.13 448.46 1.37.44 279.43 89.8m-246.7-4.39 1.68 1.57-60.92-20.18-.73-.24" stroke-width="13.82"/><path d="m767.6 613.95c6.341 2.1 13.19 3.13 15.66-8.87l4.51-49.74c1.29-9.359-.93-14.38-7.26-16.479l-3.27-1.08-6.721-2.23" stroke-width="13.82"/><path d="m628.34 567.82 120.51 39.92 5.75 1.91 13 4.3 11.33 3.76-8.39 25.32-159.81-56.79" stroke-width="14.526"/><path d="m580.37 504.36-26.2-8.68 10.19-11.93 14.97 4.96zm-26.17 10.29-26.2-8.68 10.18-11.92 14.98 4.96zm72.14 5.05-26.13-8.65-.08-.03 10.19-11.93 14.98 4.96zm41.52 13.52-26.21-8.68 10.19-11.93 14.97 4.96zm43.47 14.28-26.2-8.68 10.18-11.93 14.98 4.97zm44.51 14.98-26.21-8.68 10.2-11.93 14.97 4.96zm-155.73-33.46.07.98-3.2-1.06-23.02-7.62 10.19-11.93 14.97 4.96zm41.23 9.15.36 5.35-26.22-8.69 3.68-4.3 6.51-7.62 14.97 4.96zm43.82 19.63-26.2-8.68 10.18-11.93 14.97 4.97zm42.24 14.22-26.22-8.68 10.19-11.92 14.97 4.96zm39.25 12.26-26.22-8.68 10.19-11.93 14.97 4.95z" stroke-width="9.196"/><g stroke-width="14.526"><path d="m209.64 326.32c-23.12-14.58-38.81-43.03-38.81-75.74 0-47.57 33.2-86.14 74.16-86.14s74.17 38.57 74.17 86.14c0 33.94-16.9 63.3-41.46 77.32-9.87 5.65-20.97 8.82-32.71 8.82-12.8 0-24.84-3.77-35.35-10.4z"/><path d="m431.98 553.19c-.341-2.08-.7 2.819-1.08.71-.141-.79-.29-1.58-.44-2.381-2.71-14.56-6.35-29.77-10.46-44.819-.17-.63-.35-1.271-.52-1.9-4.01-14.55-8.43-28.93-12.84-42.37-14.15-43.13-28.21-76.83-28.21-76.83-13.11-12.28-38.36-26.74-60.33-38.12-20.45-10.59-38.05-18.53-40.4-19.58l-.27-.12m84.05 362.69v32"/><path d="m430.84 553.91-54.87 70.44-1.08 1.39-11.41 17.22m199.55-112.27-5.29.89c-5.41.91-14.58 2.45-25.83 4.3-29.79 4.91-74.13 12.04-101.45 15.64-1.9.25 1.28.48-.45.7m-50.79 75.35c.79.35-1.49-1.61-1.49-1.851 0-.029.05-.029.16.021 24.01 10.359 38.63 14.51 62.209 2.18 14.101-7.36 29.391-13.03 43.94-19.479 25-11.12 49.979-22.221 74.979-33.32 6.271 3.47 32.66 10.29 51.301 10.39 7.319.05 13.43-.939 16.67-3.569.76-5.641-10.29-3.16-10.7-11.061 2.7-1.36 7.21-2.17 12.04-3.06h.01c9.08-1.67 19.311-3.65 20.87-10.181 1.69-6.75-2.729-14.64-7.87-19.47-1.74-1.63-3.55-2.91-5.24-3.68-3.5-1.58-9.449-2.971-16.939-3.96-5.61-.761-12.09-1.29-19.05-1.511-1.03-.039-2.08-.06-3.13-.079-12.48-.23-26.25.54-39.221 2.76-.979.17-1.95.35-2.92.53m-346.009-203.61s-74.77 33.25-100.99 57.82c0 0-7.86 10.87-16.49 43.58-8.63 32.7-18.03 87.25-21.09 174.61v117.84m291.22-143.89v111.89m57.68-185.73c.65.58-1.21 1.25.84 1.96 11.19 3.89 34.65 9.06 50.23 8.229l1.029-.06c5.07-.37 9.221-1.42 11.7-3.43.75-5.641-10.29-3.16-10.71-11.061 7.78-3.92 30.54-3.229 32.92-13.24 2.271-9.01-6.41-20.1-13.11-23.149-9.93-4.471-39.569-7.45-68.04-4.24-4.46.5-8.89 1.15-13.21 1.98"/><path d="m419.16 504.74c-.18-.04-.26-.08-.17-.12.07.04.13.08.17.12zm2.52.47c.31-.14-1.32-.27-2.2-.41-.12-.02-.23-.04-.32-.06"/></g><path d="m533.1 488.31-26.2-8.68 10.19-11.94 14.97 4.96z" stroke-width="9.196"/></g><path d="m0 0h850.394v850.394h-850.394z"/></g></svg>