<svg height="850" viewBox="0 0 850 850" width="850" xmlns="http://www.w3.org/2000/svg"><path d="m179.5 471.6.5 12h-82.7l.5-18.5.7-19 1-23.8-17.7 73.8-20.3-3.5h-1.2l4.2-31.5 2.8-18.5 2.2-13.3 3.5-17.5 3.3-13.7 3-10.5 2.2-7.3 2-5.2 1.3-3 1-1.5.2-.3 1.8-1.7 2.2-1.5 2.5-1.8 2.8-1.5 6.2-3 6.3-2.7 8.5-3.5 5.7-2-1 1-1 .7 1.3 2.5 1.7 2.3 1.8 2 2.2 1.5 2.5 1.5 2.8 1 3 .7 3 .3 3.7-.3 3.3-.5 3-1 2.7-1.5 2.3-2 2-2.2 1.7-2.5 1.3-2.8v-.5l8 3.3 9.7 4.5 4.8 2.5 4.7 2.5 3.8 2.7 1.7 1.3 1.3 1.2.2.3.8 1.2 1.2 3 1.8 4.8 2.2 7.2 2.5 10.5 3 14 3.3 18 2.2 13.5 2.5 18.3 4.3 31.5h-1l-20.5 3.5-17.5-73.8h-.8z" fill="#a9d7f3"/><path d="m102.3 669.3h-7.3v-34.5l.8-60.2 1.5-87.5v-3.5h82.7v4l1.5 93.2 1.5 88.3h-30.5l-.2-4-13.3-144v-.8l-14 144.8-.2 4z" fill="#7a7878"/><path d="m124.8 669.1.2-4h1l.5 1.7.3 1.3v1.2l-.3 1-.5 1-.5.8-1.7 1.5-1.8 1-2 1-1.5.7-1 .8-1 1.5-1 2-1.2 3.7-.8 1.8-1 2-1 2-1.5 1.7-1.5 1.5-1.7 1.3-2 1-2.3.5h-2l-1.7-.8-2-1-1.5-1.2-1.3-1.8-.5-1-.2-1.2-.3-1 .3-1.3.2-1.2.5-1.3 4.3-7.5 2.2-3.7 1.8-3.8zm27.7 0h24.5v.5l1.8 3.7 2.2 3.8 4 7.2.5 1.3.5 1.2v1.3l-.2 1-.3 1.2-.2 1-1.3 1.8-1.7 1.2-1.8 1-2 .8h-1.7l-2.3-.5-2-1-2-1.3-1.5-1.5-1.2-1.7-1.3-2-.7-2-.8-1.8-1.5-3.7-.7-2-1.3-1.5-1-.8-1.7-.7-2-1-2-1-1.8-1.5-.7-.8-.5-1-.3-1-.2-1.2.2-1.3.5-1.7h.3z" fill="#231f20"/><path d="m81.8 496.1-.3 1.2.5 1.5.5 2.5.3 3v7.3l-.5 4-.8 3.2-.5 1.3-.5 1h-.5l-.5-.3-.5-1.5-.5-.5-.2-.7-.8-.5-.7-.3-.3 1.3-.5 1.7-.5 3.5-.5 1.8-.5 1.5-.7 1.2-.5.5h-.5l-1.3.3-1.2-.3-1-.2-1.3-.8-1-.7-.7-1-.8-.8-.5-1-1.7-4.5-1.3-3.2-1-3.8-.7-4-.5-4.2-.3-4.5.3-2 .2-2.3.3-3.2h1.2zm135 .5.2 2 .3 2.2-.3 4.3-.5 4.2-.7 4-1 3.8-1.3 3.2-1.7 4.5-.5 1-.8 1-.7.8-1 .7-1.3.8-1 .2-1.2.3h-1.3l-.5-.3-.5-.5-.7-1.2-.5-1.5-.5-1.8-.5-3.5-.5-1.7-.3-1.3-.7.3-.8.5-.2.7-.5.8-.5 1.2-.5.3h-.5l-.5-1-.5-1.3-.8-3.2-.5-4v-7.3l.3-3 .5-2.5.5-1.5-.5-1.2 20.5-3.5h1zm-59.8-144.3h.3l1 1-1.3 2.8-1.7 2.5-2 2.2-2.3 2-2.7 1.5-3 1-3.3.5-3.7.3-3-.3-3-.7-2.8-1-2.5-1.5-2.2-1.5-1.8-2-1.7-2.3-1.3-2.5 1-.7 1-1 1.5-2.3 1.3-2 1-2.2 1-1.3 3 1.8 3 1.5 3 .7 3.2.3 3.3-.3 3.2-.7 2.8-1.5 3-1.8 1.5.3 1.2 2.7 1.3 2.3z" fill="#ffeec8"/><path d="m139 279.8 2.5.3 2.8.5 2.2.7 2.5 1.3 2.3 1.5 2 1.7 2 2 1.7 2.3 1.8 2.5 1.5 2.5 1.2 3 1 3 .8 3 .7 3.5.3 3.2.2 3.8-.2 4.7-.8 4.5-1.2 4.5-1.5 4-2 3.8-2.3 3.5-2.5 2.7-2.7 2.5-3 1.8-2.8 1.5-3.2.7-3.3.3-3.2-.3-3-.7-3-1.5-3-1.8-2.8-2.5-2.5-2.7-2.2-3.5-2-3.8-1.5-4-1.3-4.5-.7-4.5-.3-4.7.3-3.8.2-3.2.8-3.5.7-3 1-3 1.3-3 1.5-2.5 1.7-2.5 1.8-2.3 2-2 2-1.7 2.2-1.5 2.5-1.3 2.3-.7 2.7-.5z" fill="#ffeec8"/><path d="m703 522.3v153.3h-94.5v-153.3z" fill="#33a048"/><path d="m494.8 611.1v4.5h-47.3v-84.3h47.3v36zm47.2-79.8v36h-47.2v-36zm0 36v48.3h-47.2v-48.3zm114.3-190.2v39.7h-47.8v-42.2h47.8zm0 39.7v42h-47.8v-42h4.3zm46.7-42.2v42.2h-46.7v-42.2zm0 42.2v42h-46.7v-42zm-207.7-39.7v39.7h-47.8v-42.2h47.8zm46.7-2.5v42.2h-46.7v-42.2zm-46.7 42.2v42h-47.8v-42zm46.7 0v42h-46.7v-42z" fill="#fff"/><path d="m751.3 322.1h2.3v353.5h-50.6v-153.3h-94.5v153.3h-202.7v-345l.5-8.5zm-48.3 136.7v-84.3h-94.6v84.3zm-161 156.8v-84.3h-94.6v84.3zm0-156.8v-84.3h-94.6v84.3z" fill="#ffffc2"/><path d="m488.3 237.6 1 1.2-28.5 23.3h-17v-72h44.5z" fill="#bd2226"/><path d="m751.3 306.8v15.3h-345l.7-15.5 53.8-44.5 28.5-23.3 89.7-74z" fill="#bd2226"/><g fill="none" stroke="#231f20" stroke-linecap="round" stroke-miterlimit="10"><path d="m608.5 675.6h-202.7v-353.5h347.7v353.5h-50.5" stroke-width="19.5"/><path d="m542 416.8v42h-94.5v-84.2h94.5zm0 150.5v48.3h-94.5v-84.3h94.5zm161 108.3h-94.5v-153.3h94.5zm0-258.8v42h-94.5v-84.2h94.5z" stroke-width="19.5"/><path d="m460.8 262.1-53.8 44.5-25.5 21m396.5 1.2-26.7-22-172.3-142-89.7 74-28.5 23.3" stroke-width="26"/><path d="m460.8 262.1h-17v-72h44.5v47.5" stroke-width="19.5"/><path d="m494.8 532.6v78.5m0-43.8h47.2m-94.5-150.5h94.5m-46.7-39.7v81.7m161-81.7v81.7m-43.5-42h90.2" stroke-width="13"/><path d="m369.8 482.8h-120m77-39.7 43.7 39.7-43.7 39.8" stroke-width="19.5"/><path d="m126.8 344.8-2.8-2.5-2.5-2.7-2.2-3.5-2-3.8-1.5-4-1.3-4.5-.7-4.5-.3-4.7.3-3.8.2-3.2.8-3.5.7-3 1-3 1.3-3 1.5-2.5 1.7-2.5 1.8-2.3 2-2 2-1.7 2.2-1.5 2.5-1.3 2.3-.7 2.7-.5 2.5-.3 2.5.3 2.8.5 2.2.7 2.5 1.3 2.3 1.5 2 1.7 2 2 1.7 2.3 1.8 2.5 1.5 2.5 1.2 3 1 3 .8 3 .7 3.5.3 3.2.2 3.8-.2 4.7-.8 4.5-1.2 4.5-1.5 4-2 3.8-2.3 3.5-2.5 2.7-2.7 2.5-3 1.8-2.8 1.5-3.2.7-3.3.3-3.2-.3-3-.7-3-1.5zm52.7 128.5v-1.7l-3-48.8v-.5" stroke-width="13"/><path d="m99.5 421.8v.5l-1 23.8-.7 19-.5 18.5v3.5l-1.5 87.5-.8 60.2v34.5h7.3l22.5-.2.2-4 14-144.8v.8l13.3 144 .2 4h30.5l-1.5-88.3-1.5-93.2v-4l-.5-12m-80.5 12h79.3m-118.3 12.2.3-3.2 4.2-31.5 2.8-18.5 2.2-13.3 3.5-17.5 3.3-13.7 3-10.5 2.2-7.3 2-5.2 1.3-3 1-1.5.2-.3 1.8-1.7 2.2-1.5 2.5-1.8 2.8-1.5 6.2-3 6.3-2.7 8.5-3.5 5.7-2 1-.3" stroke-width="13"/><path d="m99.5 422.3-17.7 73.8-.3 1.2.5 1.5.5 2.5.3 3v7.3l-.5 4-.8 3.2-.5 1.3-.5 1h-.5l-.5-.3-.5-1.5-.5-.5-.2-.7-.8-.5-.7-.3-.3 1.3-.5 1.7-.5 3.5-.5 1.8-.5 1.5-.7 1.2-.5.5h-.5l-1.3.3-1.2-.3-1-.2-1.3-.8-1-.7-.7-1-.8-.8-.5-1-1.7-4.5-1.3-3.2-1-3.8-.7-4-.5-4.2-.3-4.5.3-2 .2-2.3" stroke-width="13"/><path d="m61.5 492.6 20.3 3.5 1 .2m74.2-144-2.7-1m62.5 145.3-.5-3.5-4.3-31.5-2.5-18.3-2.2-13.5-3.3-18-3-14-2.5-10.5-2.2-7.2-1.8-4.8-1.2-3-.8-1.2-.2-.3-1.3-1.2-1.7-1.3-3.8-2.7-4.7-2.5-4.8-2.5-9.7-4.5-8-3.3-1-.5m20 70.5 17.5 73.8.5 1.2-.5 1.5-.5 2.5-.3 3v7.3l.5 4 .8 3.2.5 1.3.5 1h.5l.5-.3.5-1.2.5-.8.2-.7.8-.5.7-.3.3 1.3.5 1.7.5 3.5.5 1.8.5 1.5.7 1.2.5.5.5.3h1.3l1.2-.3 1-.2 1.3-.8 1-.7.7-.8.8-1 .5-1 1.7-4.5 1.3-3.2 1-3.8.7-4 .5-4.2.3-4.3-.3-2.2-.2-2" stroke-width="13"/><path d="m215.3 493.1-20.5 3.5-.8.2m-35.5-144.2-.2.2v.5l-1.3 2.8-1.7 2.5-2 2.2-2.3 2-2.7 1.5-3 1-3.3.5-3.7.3-3-.3-3-.7-2.8-1-2.5-1.5-2.2-1.5-1.8-2-1.7-2.3-1.3-2.5" stroke-width="13"/><path d="m152.8 345.1 1.2 2.7 1.3 2.3 1.7 2.2h.3l1 1 .7.8 1 .2m-34.2-8.2-1 2.2-1.3 2-1.5 2.3-1 1-1 .7-1.7 1m-16 313.8v.2l-1.8 3.8-2.2 3.7-4.3 7.5-.5 1.3-.2 1.2-.3 1.3.3 1 .2 1.2.5 1 1.3 1.8 1.5 1.2 2 1 1.7.8h2l2.3-.5 2-1 1.7-1.3 1.5-1.5 1.5-1.7 1-2 1-2 .8-1.8 1.2-3.7 1-2 1-1.5 1-.8 1.5-.7 2-1 1.8-1 1.7-1.5.5-.8.5-1 .3-1v-1.2l-.3-1.3-.5-1.7m51 4.5 1.8 3.7 2.2 3.8 4 7.2.5 1.3.5 1.2v1.3l-.2 1-.3 1.2-.2 1-1.3 1.8-1.7 1.2-1.8 1-2 .8h-1.7l-2.3-.5-2-1-2-1.3-1.5-1.5-1.2-1.7-1.3-2-.7-2-.8-1.8-1.5-3.7-.7-2-1.3-1.5-1-.8-1.7-.7-2-1-2-1-1.8-1.5-.7-.8-.5-1-.3-1-.2-1.2.2-1.3.5-1.7" stroke-width="13"/></g></svg>