<svg height="850" viewBox="0 0 850 850" width="850" xmlns="http://www.w3.org/2000/svg"><path d="m735.9 167.1-.8 1.5-.5 1.8-.2 1.5v3.7l.5 2 .5 2 .7 2 .8 2 1.2 2 1.3 2 1.5 2 1.5 2 1.7 2 2 1.8 2 1.7 4.3 3 4.2 2.5 4.3 1.8 4 1 4 .7h1.7l2-.2 1.5-.3 1.8-.5 1.5-.5 1.2-.7-38.7 48.2-1.3.8-1.5.5-1.7.5-1.8.2-1.7.3h-1.8l-4-.8-4.2-1-4-2-4.3-2.2-4.2-3-2.3-1.8-2-2-1.7-2-1.8-2.2-1.5-2-1.2-2-1-2.3-1-2-.5-2.2-.5-2-.3-2v-1.8l.3-2 .2-1.5.8-1.7 1-1.5z" fill="#fbee34"/><path d="m778.6 203.9-1.2.7-1.5.5-1.8.5-1.5.3-2 .2h-1.7l-4-.7-4-1-4.3-1.8-4.2-2.5-4.3-3-2-1.7-2-1.8-1.7-2-1.5-2-1.5-2-1.3-2-1.2-2-.8-2-.7-2-.5-2-.5-2v-3.7l.2-1.5.5-1.8.8-1.5 1-1 1.2-1.5 1.3-1 1.5-.7 1.7-.8 2-.2 2-.3h2l2.3.3 2.2.2 2.3.8 2.5.7 2.2 1 2.5 1.3 2.5 1.2 2.3 1.5 2.2 1.8 2.3 2 2 2 2 2 1.5 2 1.5 2.2 1.2 2 1.3 2.3.7 2 .8 2.2.5 2 .2 2v2l-.2 1.8-.5 1.7-.8 1.5-1 1.5-1.2 1.3z" fill="#fbee34"/><path d="m573.6 455.6-2.7.8h-3.3l-3.2-.3-3.5-.7-3.5-1.3-3.5-1.7-3.8-2-3.5-2.5-2.7-2.8-2.8-2.7-2.2-2.8-2-2.7-1.5-3-1.3-2.8-.7-3-.5-2.7v-3l.2-1.5.5-1.5.8-1.5 1-1.3 162.5-202.2-1 1.5-.8 1.7-.2 1.5-.3 2v1.8l.3 2 .5 2 .5 2.2 1 2 1 2.3 1.2 2 1.5 2 1.8 2.2 1.7 2 2 2 2.3 1.8 4.2 3 4.3 2.2 4 2 4.2 1 4 .8h1.8l1.7-.3 1.8-.2 1.7-.5 1.5-.5 1.3-.8-160.8 199.8-1.2 1.2-1.3 1-1.5 1z" fill="#faa41f"/><path d="m516.6 492.6-21.5 16.3-1-2 11.3-24.5.2 2.5.5 2.7 1 2.8.5 1.2.8 1 1 1 1 .5 1.2.3h1.5l1.5-.8z" fill="#c8c8c8"/><path d="m561.1 463.6-2.2 1.5-3.5 2.3-24 15.5-14.5 9.5-.3.2-2 1-1.5.8h-1.5l-1.2-.3-1-.5-1-1-.8-1-.5-1.2-1-2.8-.5-2.7-.2-2.5 27.2-56.8.3-.2.5 2.7.7 3 1.3 2.8 1.5 3 2 2.7 2.2 2.8 2.8 2.7 2.7 2.8 3.5 2.5 3.8 2 3.5 1.7 3.5 1.3 3.5.7 3.2.3h3.3l2.7-.8z" fill="#c8c8c8"/><path d="m558.9 465.1 34 64.2-312 172.8-213.3-403.2 316.3-148.8 149.7 269.3-.5 1.5-.3 1.5v3l-.3.3-27.2 56.8-11.3 24.5-35.8-64.3-69.3 32.8 44.8 83.7 68.3-37.8-7-12.5 21.5-16.3.3-.3 14.5-9.5 24-15.5zm-117.8-58.7-45.5-83-69.3 32.5 44.8 84zm-61.5-113.3-45.3-85-69.3 32.5 44.5 84z" fill="#fff"/><path d="m458.4 442.6 35.7 64.3-1.7 4.2 2.7-2.2 7 12.5-68.2 37.7-44.8-83.7zm-62.8-119.2 45.5 83-70 33.5-44.7-84zm-61.2-115.3 45.2 85-70 31.5-44.5-84z" fill="#fff"/><g fill="none" stroke="#231f20" stroke-linecap="round" stroke-miterlimit="10" stroke-width="14"><path d="m535.4 422.6-1.8-3.2-149.7-269.3-316.3 148.8 213.3 403.2 312-172.7-34-64.3-4-7.7"/><path d="m334.4 208.1-69.3 32.5 44.5 84 70-31.5zm61.2 115.3-69.2 32.5 44.7 84 70-33.5zm98.5 183.5-35.7-64.3-69.3 32.8 44.8 83.7 68.2-37.7-7-12.5zm241.8-339.8-.8 1.5-.5 1.8-.2 1.5v3.7l.5 2 .5 2 .7 2 .8 2 1.2 2 1.3 2 1.5 2 1.5 2 1.7 2 2 1.8 2 1.7 4.3 3 4.2 2.5 4.3 1.8 4 1 4 .7h1.7l2-.2 1.5-.3 1.8-.5 1.5-.5 1.2-.7 1.3-1 1.2-1.3 1-1.5.8-1.5.5-1.7.2-1.8v-2l-.2-2-.5-2-.8-2.2-.7-2-1.3-2.3-1.2-2-1.5-2.2-1.5-2-2-2-2-2-2.3-2-2.2-1.8-2.3-1.5-2.5-1.2-2.5-1.3-2.2-1-2.5-.7-2.3-.8-2.2-.2-2.3-.3h-2l-2 .3-2 .2-1.7.8-1.5.7-1.3 1-1.2 1.5zm-37.8 47-.2.3-1 1.5-.8 1.7-.2 1.5-.3 2v1.8l.3 2 .5 2 .5 2.2 1 2 1 2.3 1.2 2 1.5 2 1.8 2.2 1.7 2 2 2 2.3 1.8 4.2 3 4.3 2.2 4 2 4.2 1 4 .8h1.8l1.7-.3 1.8-.2 1.7-.5 1.5-.5 1.3-.8 1.2-1 1.3-1.2m-162.8 202.5v-.3m-6 3.5 1.5-.5 1.5-1 1.3-1 1.2-1.2m-43.7-35.3-1 1.3-.8 1.5-.5 1.5-.2 1.5v3l.5 2.7.7 3 1.3 2.8 1.5 3 2 2.7 2.2 2.8 2.8 2.7 2.7 2.8 3.5 2.5 3.8 2 3.5 1.7 3.5 1.3 3.5.7 3.2.3h3.3l2.7-.8"/><path d="m579.1 451.9 160.8-199.8 38.7-48.2 1-1.3m-43.7-35.5-38 47.3-162.5 202.2h-.3m26 47 12.5-8m-18.2 11.8 3.5-2.3 2.2-1.5m-44.2 28.8 14.5-9.5 24-15.5m-22.8-41.8-27.2 56.8.2 2.5.5 2.7 1 2.8.5 1.2.8 1 1 1 1 .5 1.2.3h1.5l1.5-.8 2-1"/><path d="m505.4 482.4-11.3 24.5-1.7 4.2 2.7-2.2 21.5-16.3.3-.2m-103.8-8 35.3 10 38.2 10.7"/><path d="m437.6 532.9 10.8-38.5 10-34.8m-313.3-105.2 97.3-45.5m-35.5 162.7 98.5-47.5m-30.8 167.8 98-49.5"/></g></svg>