<svg height="850.394" viewBox="0 0 850.394 850.394" width="850.394" xmlns="http://www.w3.org/2000/svg"><path d="m512.51 63.82-88.05 197.7-87.99-197.57c9.69 20.7 37.79 29.93 87.18 29.93 49.4 0 78.77-15.44 88.86-30.06zm-48.75 482.11c7.95 0 14.38 6.44 14.38 14.391 0 7.939-6.43 14.38-14.38 14.38-7.939 0-14.39-6.44-14.39-14.38 0-7.951 6.45-14.391 14.39-14.391zm.22-61.66c7.949 0 14.38 6.44 14.38 14.391 0 7.939-6.431 14.38-14.38 14.38-7.94 0-14.391-6.44-14.391-14.38.001-7.951 6.451-14.391 14.391-14.391zm0-61.88c7.949 0 14.38 6.44 14.38 14.39 0 7.939-6.431 14.38-14.38 14.38-7.94 0-14.391-6.44-14.391-14.38.001-7.95 6.451-14.39 14.391-14.39zm222.25 104.59 10.65 40.92-133.08 34.64-10.66-40.92zm-390.39 34.78-10.65 40.91-133.09-34.64 10.65-40.92z" fill="#33a02c"/><path d="m424.46 261.52 1.46 3.27v472.14l-103.54 54.61-190.27-100.42s0-8.8 9.69-66.94 0-222.86 0-222.86l32.59-32.59c21.15-21.14 37-37 54.62-88.09 17.61-51.09 10.57-176.17 10.57-176.17l96.89-40.52zm-139.27 341.15 10.65-40.91-133.09-34.65-10.65 40.92z" fill="#be0000"/><path d="m716.87 690.99-185.39 100.64-103.54-54.62-2.021-.08v-472.14l-1.46-3.27 88.05-197.7 96.891 40.52s-7.051 125.08 10.569 176.17 33.471 66.95 54.61 88.09c21.15 21.14 32.6 32.59 32.6 32.59s-9.689 164.72 0 222.85c9.691 58.14 9.691 66.95 9.691 66.95zm-19.99-123.09-10.649-40.92-133.091 34.64 10.66 40.92zm-218.52-131.12c0-7.95-6.431-14.39-14.38-14.39-7.94 0-14.391 6.44-14.391 14.39 0 7.939 6.45 14.38 14.391 14.38 7.95 0 14.38-6.44 14.38-14.38zm0 61.88c0-7.95-6.431-14.391-14.38-14.391-7.94 0-14.391 6.44-14.391 14.391 0 7.939 6.45 14.38 14.391 14.38 7.95 0 14.38-6.44 14.38-14.38zm-.22 61.66c0-7.95-6.43-14.391-14.38-14.391-7.939 0-14.39 6.44-14.39 14.391 0 7.939 6.45 14.38 14.39 14.38 7.95 0 14.38-6.44 14.38-14.38z" fill="#be0000"/><g fill="none"><g stroke="#000"><g stroke-width="21.141"><path d="m285.19 602.67-133.09-34.64 10.65-40.92 133.09 34.65z"/><path d="m425.92 736.93v-472.14l-1.46-3.27-87.99-197.57-96.89 40.52s7.04 125.08-10.57 176.17c-17.62 51.09-33.47 66.95-54.62 88.09l-32.59 32.59s9.69 164.72 0 222.86c-9.69 58.141-9.69 66.94-9.69 66.94l190.27 100.42z"/><path d="m423.07 264.65 1.39-3.13 88.05-197.7 96.891 40.52s-7.051 125.08 10.569 176.17 33.471 66.95 54.61 88.09c21.15 21.14 32.6 32.59 32.6 32.59s-9.689 164.72 0 222.85c9.69 58.14 9.69 66.95 9.69 66.95l-185.39 100.64-103.54-54.62"/><path d="m563.8 602.54 133.08-34.64-10.65-40.92-133.09 34.64z"/></g><path d="m478.36 436.78c0 7.939-6.431 14.38-14.38 14.38-7.94 0-14.391-6.44-14.391-14.38 0-7.95 6.45-14.39 14.391-14.39 7.95 0 14.38 6.44 14.38 14.39zm0 61.88c0 7.939-6.431 14.38-14.38 14.38-7.94 0-14.391-6.44-14.391-14.38 0-7.95 6.45-14.391 14.391-14.391 7.95.001 14.38 6.441 14.38 14.391zm-.22 61.66c0 7.939-6.43 14.38-14.38 14.38-7.939 0-14.39-6.44-14.39-14.38 0-7.95 6.45-14.391 14.39-14.391 7.95.001 14.38 6.441 14.38 14.391z" stroke-width="14.094"/><path d="m512.51 63.82c-10.09 14.62-39.46 30.06-88.86 30.06-49.39 0-77.49-9.23-87.18-29.93" stroke-width="21.141"/></g><path d="m0 0h850.394v850.394h-850.394z"/></g></svg>