<svg height="850" viewBox="0 0 850 850" width="850" xmlns="http://www.w3.org/2000/svg"><path d="m641.5 581.3 2 201-329.7 1.5v-101.3h110.5v-101.2z" fill="#f6cc4b"/><path d="m571 553.3-1.2-.5-1-.8-1-1.2-.8-2-2.2-5.3-1.3-3.5-1.7-4-4-8.2-5.3-10-6.2-12.3 20.2-31.2 2.5.2 2.8.3 2.5.5 1.5.5 1 .7 1.2 1 1 1 .8 1.5.7 1.8.5 2 .3 2.5.2 2.7-.2 3.3-.5 3-.8 2.7-1 3-1 3-.7 3.5-.3 2v4.3l.5 2.5.5 2.7.8 2.8.7 3 .5 3 .5 3v5.5l-.2 2.7-.5 2.3-.5 2.2-.8 2.3-.7 1.7-1 1.8-1 1.2-1 1.3-1.3.7-1.2.5zm-105.2 17.2-3 1.3-2.8 1-2.7 1-2.8.5-2.7.5-2.5.2h-2.5l-2.5-.2-2-.3-2-.5-1.8-.7-1.5-.8-1.5-.7-1-1-.5-1.3-.5-1.2v-1.3l.8-1.2 1.2-1 1.5-1.3 5-3 3.3-2 3.7-2.5 4-2.7 4.8-3 9.5-5.8 36.2-6 .5 3.8.5 6.2v3.5l-.2 1.8-.3 1.7-.7 1.8-.8 1.7-1.2 1.5-1.8 1.3-1.7 1.2-2.5 1-3 1-3.3.5h-5l-2-.2h-2l-2.5.5-3 .7-3.7 1.5z" fill="#231f20"/><path d="m502.5 370.3-1.5 1.2-1.7 1-2 1-2.3.8-2.5.7-2.2.3h-5l-2.3-.8-2-.7-1.7-1.5-1.5-1.8-1.3-2.2-.7-3-.5-3.3.2-4 1-6.2 1-4.5 1-3.3 1.3-2.5 1.2-2 1.3-1.7 1.5-2 1.5-2.3 1.5-2.7 1.5-3.8 27.2 6h.3l-2.3 5.3-.5 3-1.5 7.7-1.2 4.5-1.3 4.8-1.7 4.5-1.8 3.7-1.5 2.3zm-38.2-216.5h-2.8l-2.7-.3-2.8-.5-2.5-.7-2.5-1.3-2.2-1.2-2.5-1.5-2.3-1.8-3-3-2.7-3.5-2.3-3.7-2.2-4-1.8-4.5-1.5-4.8-1-5-.5-5v-4.5l.3-4.2.5-4.3.7-4 1.3-3.7 1.2-3.8 1.8-3.2 1.7-3.3 2.3-3 2.2-2.5 2.5-2.5 2.8-2 3-1.5 3-1.2 3.2-1 3.3-.3h3.2l3.3.5 3.2.8 3 1.2 3 1.8 2.8 1.7 2.7 2.5 2.5 2.5 2.3 3 2 3.3 1.7 3.2 1.8 3.8 1.2 3.7 1 4.3 1 4.2.3 4.3.2 4.7-.2 4.5-.8 4.5-1 4.3-1.2 4-1.5 3.7-2 3.5-2 3.3-2.3 2.7-2.2 2.3-2.3 2-2.7 1.7-2.8 1.5-2.7 1-3 .8z" fill="#ffeec8"/><path d="m446.8 438.3 52 35.2-.3.5 7.3 64-2.3.5-36.2 6-1 .3-9.3-50.3-10.2-56z" fill="#7a7878"/><path d="m417 223.5 1-14.5 1-12.7.8-5.3.7-4.7 1-4 .8-3.3 1-2.5 1.2-2.5 2.8-5 3.2-5 3.5-5 5.8-7.5 2.5-2.7 1.7-2.3 2.3 1.8 2.5 1.5 2.2 1.2 2.5 1.3 2.5.7 2.8.5 2.7.3h2.8l3-.5 3-.8 2.7-1 2.8-1.5 2.7-1.7 2.3-2 2.2-2.3 2.3-2.7 3.5 1 4.7 1.2 5.8 2 6.2 2.5 3.3 1.5 3.2 1.8 3 1.7 3 2 2.8 2.3 2.5 2.2 2.2 2.8 1.8 2.7 3 8 1.7 10.8 2 10 1.8 9.5 1.7 9.7 1.3 9.8 1 10.7.5 11.5v12.5l-2 22.3-13.5 31.7-9 21.5h-.3l-27.2-6-1.5 3.8-1.5 2.7-1-.2-49.5.2v.3l-8-.5-9.8-.5-.5-5-.2-8.3-.3-11.2-.2-13.3v-35.2l.5-18.5z" fill="#a9d7f3"/><path d="m434.8 333.5 49.5-.2 1 .2-1.5 2.3-1.5 2-1.3 1.7-1.2 2-1.3 2.5-1 3.3-1 4.5-1 6.2-.2 4 .5 3.3.7 3 1.3 2.2 1.5 1.8 1.7 1.5 2 .7 2.3.8h5l2.2-.3 2.5-.7 2.3-.8 2-1 1.7-1 1.5-1.2 1.5-1.5 1.5-2.3.5.5-3.2 5.8-6.3 11.7-5.7 9.8-4 6.5-1.8 2.2 88.8 59.8-7.3 11.5-20.2 31.2-47.5-32-52-35.2-3-2-1.3-1-1-1-2-2.5-1.5-2.5-1.2-3-1-3.3-.8-3.2-.5-3.3-.5-3.2-.2-5v-4.3l.2-4 2.3-13.2 1.2-10.3 2-14.7 4.3-27.5-9-.5z" fill="#7a7878"/><path d="m401.5 312.3-18-10.5 3.5-6.5 4.5-9.8 5-11.7 5.3-12.5 9.5-23.5 5.7-14.3-.7 17.8-.5 18.5v35.2h-1.5l-3.8 5.8-2.7 5-4 7.7z" fill="#a9d7f3"/><path d="m390.3 347-1.8.8-2 .7-2.2.5-2.3.5-2.5.3-2.5-.3-2.5-.2-2.2-.8-2-.7-2-1.3-1.5-1.7-1.3-2-.7-2.5-.3-3 .3-3.3 1-4 2.2-7 1.3-2.5 1-2.2 1-1.8 1-1.5 2-2.2 2-1.8 2-2 2.5-3 1.2-1.7 1.5-2.5 18 10.5 2.3 1.2-1.8 3-.5 4-1 4.3-1.2 5-1.8 5.2-1 2.8-1 2.2-1.2 2.3-1.3 2-1.2 1.5z" fill="#ffeec8"/><g fill="none" stroke="#231f20" stroke-linecap="round" stroke-miterlimit="10" stroke-width="14"><path d="m443.8 334.3-4.3 27.5-2 14.7-1.2 10.3-2.3 13.2-.2 4v4.3l.2 5 .5 3.2.5 3.3.8 3.2 1 3.3 1.2 3 1.5 2.5 2 2.5 1 1 1.3 1 3 2 52 35.2 47.5 32 20.2-31.2 7.3-11.5-88.8-59.8 1.8-2.2 4-6.5 5.7-9.8 6.3-11.7 3.2-5.8 3.8-6.2 3.5-5.5 5.7-8.5 2.5-3.5 2.3-3.5 1.7-3.3 1.5-3.7 1-4 .5-4.5.3-5.5-.3-6.3"/><path d="m546.3 505.5 6.2 12.3 5.3 10 4 8.2 1.7 4 1.3 3.5 2.2 5.3.8 2 1 1.2 1 .8 1.2.5 1.3-.3 1.2-.5 1.3-.7 1-1.3 1-1.2 1-1.8.7-1.7.8-2.3.5-2.2.5-2.3.2-2.7v-5.5l-.5-3-.5-3-.7-3-.8-2.8-.5-2.7-.5-2.5v-4.3l.3-2 .7-3.5 1-3 1-3 .8-2.7.5-3 .2-3.3-.2-2.7-.3-2.5-.5-2-.7-1.8-.8-1.5-1-1-1.2-1-1-.7-1.5-.5-2.5-.5-2.8-.3-2.5-.2h-1m-80.2-333 2-3.3 2-3.5 1.5-3.7 1.2-4 1-4.3.8-4.5.2-4.5-.2-4.7-.3-4.3-1-4.2-1-4.3-1.2-3.7-1.8-3.8-1.7-3.2-2-3.3-2.3-3-2.5-2.5-2.7-2.5-2.8-1.7-3-1.8-3-1.2-3.2-.8-3.3-.5h-3.2l-3.3.3-3.2 1-3 1.2-3 1.5-2.8 2-2.5 2.5-2.2 2.5-2.3 3-1.7 3.3-1.8 3.2-1.2 3.8-1.3 3.7-.7 4-.5 4.3-.3 4.2v4.5l.5 5 1 5 1.5 4.8 1.8 4.5 2.2 4 2.3 3.7 2.7 3.5 3 3 2.3 1.8 2.5 1.5 2.2 1.2 2.5 1.3 2.5.7 2.8.5 2.7.3h2.8l3-.5 3-.8 2.7-1 2.8-1.5 2.7-1.7 2.3-2 2.2-2.3zm-68.3 82.2-.7 17.8-.5 18.5v35.2l.2 13.3.3 11.2.2 8.3.5 5 9.8.5 8 .5 9 .5h1.5m-3-185.5-2.5 2.7-5.8 7.5-3.5 5-3.2 5-2.8 5-1.2 2.5-1 2.5-.8 3.3-1 4-.7 4.7-.8 5.3-1 12.7-1 14.5"/><path d="m483.3 141 2 .3 3.5 1 4.7 1.2 5.8 2 6.2 2.5 3.3 1.5 3.2 1.8 3 1.7 3 2 2.8 2.3 2.5 2.2 2.2 2.8 1.8 2.7 3 8 1.7 10.8 2 10 1.8 9.5 1.7 9.7 1.3 9.8 1 10.7.5 11.5v12.5l-.3 9.5-.7 10.5-1 2.3-13.5 31.7-9 21.5-2.3 5.3-.5 3-1.5 7.7-1.2 4.5-1.3 4.8-1.7 4.5-1.8 3.7-1.5 2.3-1.5 1.5-1.5 1.2-1.7 1-2 1-2.3.8-2.5.7-2.2.3h-5l-2.3-.8-2-.7-1.7-1.5-1.5-1.8-1.3-2.2-.7-3-.5-3.3.2-4 1-6.2 1-4.5 1-3.3 1.3-2.5 1.2-2 1.3-1.7 1.5-2 1.5-2.3 1.5-2.7 1.5-3.8 5-14.7 5.7-18 6.8-21.3-6.8-62m-84.7 84-3.8 5.8-2.7 5-4 7.7-1.8 3-.5 4-1 4.3-1.2 5-1.8 5.2-1 2.8-1 2.2-1.2 2.3-1.3 2-1.2 1.5-1.5 1.2-1.8.8-2 .7-2.2.5-2.3.5-2.5.3-2.5-.3-2.5-.2-2.2-.8-2-.7-2-1.3-1.5-1.7-1.3-2-.7-2.5-.3-3 .3-3.3 1-4 2.2-7 1.3-2.5 1-2.2 1-1.8 1-1.5 2-2.2 2-1.8 2-2 2.5-3 1.2-1.7 1.5-2.5 3.5-6.5 4.5-9.8 5-11.7 5.3-12.5 9.5-23.5 5.7-14.3.5-1.2"/><path d="m515.5 333h.3l11.2-.2h6.3l5-53 2-22.3.2-3m-105.7 79 49.5-.2m-37.5 105.2 10.2 56 9.3 50.3 1-.3 36.2-6 2.3-.5-7.3-64"/><path d="m472.5 541.5-5.2 3-9.5 5.8-4.8 3-4 2.7-3.7 2.5-3.3 2-5 3-1.5 1.3-1.2 1-.8 1.2v1.3l.5 1.2.5 1.3 1 1 1.5.7 1.5.8 1.8.7 2 .5 2 .3 2.5.2h2.5l2.5-.2 2.7-.5 2.8-.5 2.7-1 2.8-1 3-1.3 5-2.5 3.7-1.5 3-.7 2.5-.5h2l2 .2h5l3.3-.5 3-1 2.5-1 1.7-1.2 1.8-1.3 1.2-1.5.8-1.7.7-1.8.3-1.7.2-1.8v-3.5l-.5-6.2m-77.2-207.3 7 78.3.2 3m-231 367.5h110.8v-101.3h110.5v-101.2h222.2m-263-279.5 18 10.5m86.8 14.7 27.2 6"/></g></svg>