<svg height="850" viewBox="0 0 850 850" width="850" xmlns="http://www.w3.org/2000/svg"><path d="m593.2 196.8 2.2-1.5 1.8-2 1.7-2 1.3-2 1.7-3 .8-1.3 1.7-2 2.3 1.8 2.5 1.2 2.2 1.3 2.5 1 2.5.7 2.8.5 2.5.3 2.7.2 2.8-.2 2.7-.3 2.5-.5 2.5-.7 2.5-1 2.5-1.3 2.3-1.2 2.2-1.8 2.8.5.2 1.5 1 3 .8 1.8 1 2 1.5 1.7 1.7 1.5 1.3 1 1.5.8-1 2.5-1 2.2-1.3 2-1.5 2.3-1.5 1.7-1.7 1.8-2 1.7-2 1.5-2 1.3-2.5 1.2-2.3 1-2.5.8-2.7.5-2.8.5-3 .2h-3l-2.5-.2-2.5-.3-2.5-.5-2.5-.7-2.2-.8-2.3-.7-2-1.3-2-1-2-1.5-1.7-1.5-1.8-1.5-1.5-1.7-1.5-1.8-1.2-1.7-1-2-1-2-4.5-.3z" fill="#ffeec8"/><path d="m686.4 311.8 5 83 .5 8 .3 8.7h-136.3l.3-14.5.2-15.7 1.3-31.3 1.2-25.7.5-13.5-29.2 122.2-1.5-.2-32.5-6-1.3-.3 2.8-21.7 4-30 4.5-30.5 2-12.5 1.5-9.5 3.2-15.3 2.8-13.5 3-12 2.5-10.7 2.5-9.3 2.2-7.7 2-6.8 1.8-5.7 3.2-8.3 2.3-5 1.2-2.5.5-.5 3-2.7 3.8-2.8 4.2-2.5 4.5-2.7 5-2.5 5-2.5 10.5-4.5 8.3-3.5 7.5-2.8 4.5.3 1 2 1 2 1.2 1.7 1.5 1.8 1.5 1.7 1.8 1.5 1.7 1.5 2 1.5 2 1 2 1.3 2.3.7 2.2.8 2.5.7 2.5.5 2.5.3 2.5.2h3l3-.2 2.8-.5 2.7-.5 2.5-.8 2.3-1 2.5-1.2 2-1.3 2-1.5 2-1.7 1.7-1.8 1.5-1.7 1.5-2.3 1.3-2 1-2.2 1-2.5.2-.5 13 5.5 7.8 3.5 8.2 3.7 8 4 7.5 4.3 3.5 2.2 3 2.3 2.8 2 2.2 2 .5.5 1.3 2.2 2 4.5 1.2 3.5 1.5 4.5 1.8 5.5 1.7 6.8 2 7.7 2.3 9.3 2.5 10.7 2.5 12.5 2.5 14 3 15.8 3.5 22 4.2 30.2 7 51.8-1.2.2-31.5 6.3-2.3.5-29.5-122.5z" fill="#a9d7f3"/><path d="m656.4 196.3-.2.5-1.5-.8-1.3-1z" fill="#ffeec8"/><path d="m670.7 717.8h-5.3l-41-244.3v-1l-42.2 245.3h-1l-36 .2h-11.8l.5-11.2 1-15 2.8-39.5 7.7-98.5 7.3-91.3 2.2-30.7.8-14 .2-6.3h136.3v6.8l1 16 2.7 35.2 8 102.5 11.8 145.8h-9.8z" fill="#7a7878"/><path d="m685.9 742.5.3 1-.5-.7-2-4.3-3.3-7.7-.7-.5-.8-.5-2-.8-2-.7-2.2-.8-1-.5-.8-.7-.5-.8-.5-1-.2-1.2v-1.5l.2-2 .8-2h35.2v.7l3 6 3.3 6.3 3.5 6 3.5 6.2.7 2 .5 2 .3 2-.3 1.8-.5 1.7-.7 1.8-1 1.5-1 1.2-1.3 1.3-1.5 1-1.5 1-1.5.7-1.5.5-1.7.5-1.5.3-1.5-.3-1.8-.2-2-.5-1.5-.8-1.7-.7-1.5-1-1.5-1.3-2.5-2.5-2.3-2.7-1.7-3.3-1.8-3.2z" fill="#231f20"/><path d="m752.7 433 .5 3.5.2 3.5v3.5l-.2 3.8-.5 3.5-.5 3.5-1.3 6.5-1.7 6.2-1.8 5.3-1.5 4.5-1.5 3-.7 1.5-1.3 1.5-1.5 1.5-1.5 1.2-2 1-1.7.8-2 .5-1.8-.3-1-.5-.7-.5-.8-1-.7-1-.8-2.5-.7-3-1-6-.5-2.5-.8-2h-.7l-.5.3-1 .7-.8 1-.5 1.3-.5 1.2-.5.8-.5.7h-1l-1-1.5-.7-2.2-.8-2.5-.5-3-.5-6.3-.2-7v-5.2l.5-5 .5-3.8.5-1.5.5-1-.3-1.2 2.3-.5 31.5-6.3 1.2-.2zm-128.3-357 4.3.3 4.2.7 4 1.5 4 2 3.5 2.3 3.5 3 3.3 3.2 3 3.5 2.7 4.3 2.5 4.2 2 4.8 1.8 5 1.5 5.2 1 5.5.7 5.5v10l-.2 4-.5 3.8-.8 3.7-.7 3.8-1.3 3.5-1 3.5-1.5 3.2-1.5 3.3-1.7 3-1.8 2.7-2 2.8-2 2.5-2.2 2.2-2.3 2.3-2.5 1.7-2.2 1.8-2.3 1.2-2.5 1.3-2.5 1-2.5.7-2.5.5-2.7.3-2.8.2-2.7-.2-2.5-.3-2.8-.5-2.5-.7-2.5-1-2.2-1.3-2.5-1.2-2.3-1.8-2.2-1.7-2.5-2.3-2-2.2-2.3-2.5-1.7-2.8-2-2.7-1.5-3-1.5-3.3-1.5-3.2-1.3-3.5-1-3.5-.7-3.8-.8-3.7-.5-3.8-.2-4-.3-4 .3-6 .7-5.5 1-5.5 1.3-5.2 1.7-5 2.3-4.8 2.5-4.2 2.5-4.3 3-3.5 3.2-3.2 3.5-3 3.8-2.3 3.7-2 4-1.5 4.3-.7z" fill="#ffeec8"/><path d="m581.2 717.8v1.5l-.3 1.2-.5 1.3-.5 1-1.5 2-1.5 1.5-2 1.2-1.7 1.3-1.5 1-1.3 1-1.7 2.7-1.5 3-1.3 3-1 3-1.2 3.3-1.5 3.2-1.8 3.3-2.2 2.7-2.5 2.5-1.5 1.3-1.5 1-1.8.7-1.7.8-1.8.5-2 .2-1.5.3-1.5-.3-1.5-.5-1.5-.5-1.5-.7-1.5-1-1.5-1-1.2-1.3-1.3-1.2-1-1.5-.5-1.8-.5-1.7-.2-1.8.2-2 .5-2 .8-2 3.5-6.2 3.5-6.5 3.5-6.3 3-6z" fill="#231f20"/><path d="m530.2 433-.3 1.5.3 1 .5 1.5.5 4 .5 4.8.2 5.5-.2 6.7-.8 6.5-.5 3-.7 2.5-.8 2-1 1.8h-.5l-.2-.3-.8-.5-.5-1-.5-1-.5-1.2-.7-1-1-.8-.5-.2-.8-.3-.7 2-.5 2.8-1 6-.5 2.7-1 2.8-.8 1-.5.7-1 .8-.7.2-2 .3-2-.3-1.8-.7-1.7-1-1.8-1.3-1.5-1.5-1.2-1.5-.8-1.5-1.2-3.2-1.8-4.3-1.7-5.5-1.8-6-1.2-6.7-.5-3.5-.5-3.5-.3-3.5v-3.5l.3-3.5.5-3.5.7-5.8 1.3.3 32.5 6z" fill="#ffeec8"/><path d="m375.4 715 5.3 2.5 4.7 2 7.3 3 2.5 1.3 1.7 1.2.8.8.5.7.2 1v.8l-.2 1.7-.8 1.8-1 1.5-1.5 1.5-2 1.2-2.2 1.3-2.5 1-2.8 1-3.2.5-3.3.5-3.5.2h-3.7l-3.8-.2-4-.5-4-.8-4-1.2-4-1-3.5-1-3.5-.5-3-.3h-2.7l-2.8.3-2.2.5-2.3.5-4.2 1.2-4 1.3-3.8 1-2 .5-2 .2h-4.5l-4-.2-3.5-.5-2.7-.8-2.3-1-2-1-1.5-1.5-1-1.5-1-1.5-.5-1.7-.5-1.8-.2-2-.3-7 42.8-26.5 16.2 8.8 13.5 7.2z" fill="#231f20"/><path d="m340.7 434.8.7 2.7.3 2.8.2 2.2v4.3l-.5 2-.5 1.7-.5 1.5-.7 1.5-1 1.3-1 1-1.3 1.2-1.2.8-1.3.7-3 1.3-3 .7-3.2.3h-3.5l-3.3-.3-3-.5-3-1-2.7-1-2.3-1.2-2-1.8-1.7-2.2-1.8-2.5-1.5-3-1.2-3.5-1.3-3.5-2-7-1.5-7-1-5.8-.7-5.5-3.3-6.2 2.8-1 26-11.8 2 3.3 1.7 2.7 1.5 2 1.5 1.8 3 3 2.5 2.5 1.5 1.5 1.3 1.5 1.2 2 1.3 2.5 1.2 3 1.3 3.5 1.5 4.5z" fill="#ffeec8"/><path d="m291.9 720-15.7 9.5-68.3-134.5-35-69.2-19.5-39-2.7-5.3.5-1.5 1.2 2 1.5 1.5 2 1.8 2.5 1.5 2.8 1.2 3 1.3 3 1 3.2.5 3.3.2 3.2-.2 3-.5 1.5-.8 1.5-.5 1.3-.7 1.2-1 1.3-1.3 1-1.2.7-1.3 1-1.7.5-1.8.5-2 .5-2.2.3-2.3v-2.7l-.3-2.8-.7-7.7-1-6-1.3-4.5-1.2-3.3-1.5-2.7-1.5-2.3-1.8-2.2-1.7-2.5 2.5-.3h52v.3l18.5 50 17.2 46.2 15.8 41 14 35.5 11.7 29.5 9.8 23.5 7 17 6 14z" fill="#7a7878"/><path d="m317.7 396-26 11.8-2.8 1-4.7-10-3.5-6.3-4-7h-2l.7-23 .5-24.7.3-25-.3-24.3 7 19.5 12 32.3 6.5 17.2 6.3 16 5.7 13.3 2.3 5.2z" fill="#a9d7f3"/><path d="m275.9 288.5.3 24.3-.3 25-.5 24.7-.7 23-1 18-.8 14.8-1 11.5-.7 6.7h-88.5l-2.5.3-1.3-2.3-1.2-2.2-1.3-3-1.2-3.5-32 6.7h-5.3l-11.7-30.2-16.5-42.8-2-30 .2-8.7.3-8.5.5-8 .7-7.5.8-7.3 1-7 2.2-13.2 2.8-13 2.7-13 3-13.3 3-14.2 4.3-11 1.5-2.3 1.7-2 3.5-4 3.8-3.5 4.2-3.2 4.3-2.8 4.2-2.5 4.5-2.2 4.3-1.8 4.2-1.5 4-1.5 6.8-1.7 5.2-1.3 2.5-.5 2.3-1 2.7 4 3 3.5 3.3 3 3.5 2.8 4 2.2 3.7 1.8 4.3 1.2 4.5.8 3.2.2 3-.2 3.3-.5 3-.8 3-1 3-1.2 3-1.5 2.7-1.8 5.5.8 3.3 4.2 3.2 4.5 4.3 5.8 4.2 6.7 4.3 7 2 3.5 1.7 3.5 1.5 3.5 1.3 3.3 1 4.2 1 5.5.7 6.5.8 7.3.5 8.2.5 9z" fill="#a9d7f3"/><path d="m265.2 436.5v5.5l-10.8 44.3-1.2.5-18.5-50v-.3z" fill="#7a7878"/><path d="m226.2 76.5 2.2.3 2.3.5 4.2 1.2 4 1.8 3.8 2.2 3.5 3 3.5 3.3 3 3.5 2.7 4 2.5 4.5 2 4.7 1.8 5 1.2 5.3 1 5.2.5 5.8.3 5.7-.3 6-.5 3.8-.7 3.7-.8 3.8-1 3.5-1 3.5-1.5 3.2-1.2 3.3-1.5 3-1.8 3-1.7 2.7-2 2.8-2 2.5-2.3 2.2-2.2 2.3-2.3 2-2.5 1.7-2.7 1.8-3 1.5-3 1.2-3 1-3 .8-3.3.5-3 .2-3.2-.2-4.5-.8-4.3-1.2-3.7-1.8-4-2.2-3.5-2.8-3.3-3-3-3.5-2.7-4-2.5-4.2-2.3-4.8-1.7-5.2-1.5-5.3-1-5.5-.5-5.7-.3-6 .5-6 .8-6 1.2-5.8 1.5-5.2 2-5.3 2.3-5 2.7-4.5 3-4.2 3.3-3.8 3.2-3.5 3.8-3 4-2.5 4-2 4.2-1.7 4.3-1 4.5-.5h2.2z" fill="#ffeec8"/><path d="m145.2 718.5-44.5-9-3.3-.7 53.3-227.3 2.7 5.3 19.5 39 35 69.2-1.5.8-1 3-2 5.2-6.5 15.3-9 20-10.2 22.2-18.5 40-8.5 18z" fill="#7a7878"/><path d="m173.7 735.5 4.7 3.5 4.3 3 6.7 4.3 2.3 1.5 1.5 1.7.5.8.2.7v2l-.5 1.5-1 1.5-1.5 1.3-1.7 1.2-2 1-2.5.8-2.8.5-3 .5h-3l-3.5-.3-3.5-.2-3.5-.8-3.7-1-3.8-1.2-3.7-1.5-3.8-2-6.7-3.5-5.3-2-4-1.3-3.2-.7h-8.5l-3.5-.3-4.8-.7-3.7-1.3-3.3-1.5-2.5-1.7-2.2-1.8-1.5-2.2-1.3-2.3-.7-2.2-.5-2.5-.3-2.5v-2.5l.3-2.3 1-8.5 1-5 44.5 9 6 3.3 7.7 4.2 8 5 3.5 2.3z" fill="#231f20"/><path d="m151.2 480-1.5-2.5-1.3-2.7-1-3-1-3.3-2-6.7-1.5-6.5-1-6-.7-5-.5-4.5-2.8-7.3h5.3l32-6.7 1.2 3.5 1.3 3 1.2 2.2 1.3 2.3 1.7 2.5 1.8 2.2 1.5 2.3 1.5 2.7 1.2 3.3 1.3 4.5 1 6 .7 7.7.3 2.8v2.7l-.3 2.3-.5 2.2-.5 2-.5 1.8-1 1.7-.7 1.3-1 1.2-1.3 1.3-1.2 1-1.3.7-1.5.5-1.5.8-3 .5-3.2.2-3.3-.2-3.2-.5-3-1-3-1.3-2.8-1.2-2.5-1.5-2-1.8-1.5-1.5z" fill="#ffeec8"/><path d="m126.2 402.3-4.8 1.7-.7 8.8v7.2l.2 3.3.5 3 .5 3 .5 2.5-8.2-.3-4.5-72z" fill="#a9d7f3"/><g fill="none" stroke="#231f20" stroke-linecap="round" stroke-miterlimit="10"><path d="m234.7 436.8 18.5 50 17.2 46.2 15.8 41 14 35.5 11.7 29.5 9.8 23.5 7 17 6 14-42.8 26.5-15.7 9.5-68.3-134.5-35-69.2-19.5-39-2.7-5.3-5-9.5-4.5-7.7-4.3-6.8-4-5.7-3.2-5-3-5-2.3-4.8-1-2.5-1-2.7-.5-2.5-.5-3-.5-3-.2-3.3v-7.2l.7-8.8" stroke-width="14"/><path d="m334.7 693.5 16.2 8.8 13.5 7.2 11 5.5 5.3 2.5 4.7 2 7.3 3 2.5 1.3 1.7 1.2.8.8.5.7.2 1v.8l-.2 1.7-.8 1.8-1 1.5-1.5 1.5-2 1.2-2.2 1.3-2.5 1-2.8 1-3.2.5-3.3.5-3.5.2h-3.7l-3.8-.2-4-.5-4-.8-4-1.2-4-1-3.5-1-3.5-.5-3-.3h-2.7l-2.8.3-2.2.5-2.3.5-4.2 1.2-4 1.3-3.8 1-2 .5-2 .2h-4.5l-4-.2-3.5-.5-2.7-.8-2.3-1-2-1-1.5-1.5-1-1.5-1-1.5-.5-1.7-.5-1.8-.2-2-.3-7-.2-.5m-105.5-546.5-2.5-4.2-2.3-4.8-1.7-5.2-1.5-5.3-1-5.5-.5-5.7-.3-6 .5-6 .8-6 1.2-5.8 1.5-5.2 2-5.3 2.3-5 2.7-4.5 3-4.2 3.3-3.8 3.2-3.5 3.8-3 4-2.5 4-2 4.2-1.7 4.3-1 4.5-.5h2.2l2.3.2 2.2.3 2.3.5 4.2 1.2 4 1.8 3.8 2.2 3.5 3 3.5 3.3 3 3.5 2.7 4 2.5 4.5 2 4.7 1.8 5 1.2 5.3 1 5.2.5 5.8.3 5.7-.3 6-.5 3.8-.7 3.7-.8 3.8-1 3.5-1 3.5-1.5 3.2-1.2 3.3-1.5 3-1.8 3-1.7 2.7-2 2.8-2 2.5-2.3 2.2-2.2 2.3-2.3 2-2.5 1.7-2.7 1.8-3 1.5-3 1.2-3 1-3 .8-3.3.5-3 .2-3.2-.2-4.5-.8-4.3-1.2-3.7-1.8-4-2.2-3.5-2.8-3.3-3-3-3.5zm58.7 13.3 3.3 4.2 3.2 4.5 4.3 5.8 4.2 6.7 4.3 7 2 3.5 1.7 3.5 1.5 3.5 1.3 3.3 1 4.2 1 5.5.7 6.5.8 7.3.5 8.2.5 9 .7 19.5.3 24.3-.3 25-.5 24.7-.7 23-1 18-.8 14.8-1 11.5-.7 6.7h-88.5" stroke-width="14"/><path d="m183.9 174-2.5.5-5.2 1.3-6.8 1.7-4 1.5-4.2 1.5-4.3 1.8-4.5 2.2-4.2 2.5-4.3 2.8-4.2 3.2-3.8 3.5-3.5 4-1.7 2-1.5 2.3-4.3 11-3 14.2-3 13.3-2.7 13-2.8 13-2.2 13.2-1 7-.8 7.3-.7 7.5-.5 8-.3 8.5-.2 8.7.2 12.8.5 14 1.3 3.2 16.5 42.8 11.7 30.2 2.8 7.3.5 4.5.7 5 1 6 1.5 6.5 2 6.7 1 3.3 1 3 1.3 2.7 1.5 2.5 1.2 2 1.5 1.5 2 1.8 2.5 1.5 2.8 1.2 3 1.3 3 1 3.2.5 3.3.2 3.2-.2 3-.5 1.5-.8 1.5-.5 1.3-.7 1.2-1 1.3-1.3 1-1.2.7-1.3 1-1.7.5-1.8.5-2 .5-2.2.3-2.3v-2.7l-.3-2.8-.7-7.7-1-6-1.3-4.5-1.2-3.3-1.5-2.7-1.5-2.3-1.8-2.2-1.7-2.5-1.3-2.3-1.2-2.2-1.3-3-1.2-3.5-6.3-20.3-7-24.5-8.2-29.2 11.7-83.8m111.3 117.5 4 7 3.5 6.3 4.7 10 3.3 6.2.7 5.5 1 5.8 1.5 7 2 7 1.3 3.5 1.2 3.5 1.5 3 1.8 2.5 1.7 2.2 2 1.8 2.3 1.2 2.7 1 3 1 3 .5 3.3.3h3.5l3.2-.3 3-.7 3-1.3 1.3-.7 1.2-.8 1.3-1.2 1-1 1-1.3.7-1.5.5-1.5.5-1.7.5-2v-4.3l-.2-2.2-.3-2.8-.7-2.7-1.5-5-1.5-4.5-1.3-3.5-1.2-3-1.3-2.5-1.2-2-1.3-1.5-1.5-1.5-2.5-2.5-3-3-1.5-1.8-1.5-2-1.7-2.7-2-3.3-2-4-2.3-5.2-5.7-13.3-6.3-16-6.5-17.2-12-32.3-7-19.5-.7-1.5" stroke-width="14"/><path d="m138.2 432.5h-.3l-15.5-.7-8.2-.3-4.5-72-2-30-.3-4.2m99 270.5-1 3-2 5.2-6.5 15.3-9 20-10.2 22.2-18.5 40-8.5 18-5.5-1-44.5-9-3.3-.7 53.3-227.3.5-1.5" stroke-width="14"/><path d="m142.4 716.8 2.8 1.7 6 3.3 7.7 4.2 8 5 3.5 2.3 3.3 2.2 4.7 3.5 4.3 3 6.7 4.3 2.3 1.5 1.5 1.7.5.8.2.7v2l-.5 1.5-1 1.5-1.5 1.3-1.7 1.2-2 1-2.5.8-2.8.5-3 .5h-3l-3.5-.3-3.5-.2-3.5-.8-3.7-1-3.8-1.2-3.7-1.5-3.8-2-6.7-3.5-5.3-2-4-1.3-3.2-.7h-8.5l-3.5-.3-4.8-.7-3.7-1.3-3.3-1.5-2.5-1.7-2.2-1.8-1.5-2.2-1.3-2.3-.7-2.2-.5-2.5-.3-2.5v-2.5l.3-2.3 1-8.5m165.5-272.5-10.8 44.3m350-303.3-2.2-1.7-2.5-2.3-2-2.2-2.3-2.5-1.7-2.8-2-2.7-1.5-3-1.5-3.3-1.5-3.2-1.3-3.5-1-3.5-.7-3.8-.8-3.7-.5-3.8-.2-4-.3-4 .3-6 .7-5.5 1-5.5 1.3-5.2 1.7-5 2.3-4.8 2.5-4.2 2.5-4.3 3-3.5 3.2-3.2 3.5-3 3.8-2.3 3.7-2 4-1.5 4.3-.7 4.2-.3 4.3.3 4.2.7 4 1.5 4 2 3.5 2.3 3.5 3 3.3 3.2 3 3.5 2.7 4.3 2.5 4.2 2 4.8 1.8 5 1.5 5.2 1 5.5.7 5.5v10l-.2 4-.5 3.8-.8 3.7-.7 3.8-1.3 3.5-1 3.5-1.5 3.2-1.5 3.3-1.7 3-1.8 2.7-2 2.8-2 2.5-2.2 2.2-2.3 2.3-2.5 1.7-2.2 1.8-2.3 1.2-2.5 1.3-2.5 1-2.5.7-2.5.5-2.7.3-2.8.2-2.7-.2-2.5-.3-2.8-.5-2.5-.7-2.5-1-2.2-1.3-2.5-1.2zm87 211.8-5-83v-1.3" stroke-width="14"/><path d="m559.7 310-.3.8-.5 13.5-1.2 25.7-1.3 31.3-.2 15.7-.3 14.5-.2 6.3-.8 14-2.2 30.7-7.3 91.3-7.7 98.5-2.8 39.5-1 15-.5 11.2h11.8l36-.2h1l42.2-245.3v1l41 244.3h50.3l-11.8-145.8-8-102.5-2.7-35.2-1-16v-6.8l-.3-8.7-.5-8v-2.8m-132.7 19.5h130.5m-195 20.8.7-5.8 2.8-21.7 4-30 4.5-30.5 2-12.5 1.5-9.5 3.2-15.3 2.8-13.5 3-12 2.5-10.7 2.5-9.3 2.2-7.7 2-6.8 1.8-5.7 3.2-8.3 2.3-5 1.2-2.5.5-.5 3-2.7 3.8-2.8 4.2-2.5 4.5-2.7 5-2.5 5-2.5 10.5-4.5 8.3-3.5 7.5-2.8 4.5-1.7 4.7-1.5m-38.5 115.5-29.2 122.2-.3 1.5.3 1 .5 1.5.5 4 .5 4.8.2 5.5-.2 6.7-.8 6.5-.5 3-.7 2.5-.8 2-1 1.8h-.5l-.2-.3-.8-.5-.5-1-.5-1-.5-1.2-.7-1-1-.8-.5-.2-.8-.3-.7 2-.5 2.8-1 6-.5 2.7-1 2.8-.8 1-.5.7-1 .8-.7.2-2 .3-2-.3-1.8-.7-1.7-1-1.8-1.3-1.5-1.5-1.2-1.5-.8-1.5-1.2-3.2-1.8-4.3-1.7-5.5-1.8-6-1.2-6.7-.5-3.5-.5-3.5-.3-3.5v-3.5l.3-3.5.5-3.5m2-5.5 32.5 6m224 .2-.8-5.7-7-51.8-4.2-30.2-3.5-22-3-15.8-2.5-14-2.5-12.5-2.5-10.7-2.3-9.3-2-7.7-1.7-6.8-1.8-5.5-1.5-4.5-1.2-3.5-2-4.5-1.3-2.2-.5-.5-2.2-2-2.8-2-3-2.3-3.5-2.2-7.5-4.3-8-4-8.2-3.7-7.8-3.5-13-5.5-3-1.3-3.7-1.2m37.7 118 29.5 122.5.3 1.2-.5 1-.5 1.5-.5 3.8-.5 5v5.2l.2 7 .5 6.3.5 3 .8 2.5.7 2.2 1 1.5h1l.5-.7.5-.8.5-1.2.5-1.3.8-1 1-.7.5-.3h.7l.8 2 .5 2.5 1 6 .7 3 .8 2.5.7 1 .8 1 .7.5 1 .5 1.8.3 2-.5 1.7-.8 2-1 1.5-1.2 1.5-1.5 1.3-1.5.7-1.5 1.5-3 1.5-4.5 1.8-5.3 1.7-6.2 1.3-6.5.5-3.5.5-3.5.2-3.8v-3.5l-.2-3.5-.5-3.5m-2-5.5-31.5 6.3" stroke-width="14"/><path d="m656.4 196v.3l-.2.5-1 2.5-1 2.2-1.3 2-1.5 2.3-1.5 1.7-1.7 1.8-2 1.7-2 1.5-2 1.3-2.5 1.2-2.3 1-2.5.8-2.7.5-2.8.5-3 .2h-3l-2.5-.2-2.5-.3-2.5-.5-2.5-.7-2.2-.8-2.3-.7-2-1.3-2-1-2-1.5-1.7-1.5-1.8-1.5-1.5-1.7-1.5-1.8-1.2-1.7-1-2-1-2" stroke-width="14"/><path d="m647.2 183.5.2 1.5 1 3 .8 1.8 1 2 1.5 1.7 1.7 1.5 1.3 1 1.5.8 2 .7m-55.5-12.5-.8 1.3-1.7 3-1.3 2-1.7 2-1.8 2-2.2 1.5-1.5 1-1.5.7m-44.8 519-.2.5-3 6-3.5 6.3-3.5 6.5-3.5 6.2-.8 2-.5 2-.2 2 .2 1.8.5 1.7.5 1.8 1 1.5 1.3 1.2 1.2 1.3 1.5 1 1.5 1 1.5.7 1.5.5 1.5.5 1.5.3 1.5-.3 2-.2 1.8-.5 1.7-.8 1.8-.7 1.5-1 1.5-1.3 2.5-2.5 2.2-2.7 1.8-3.3 1.5-3.2 1.2-3.3 1-3 1.3-3 1.5-3 1.7-2.7 1.3-1 1.5-1 1.7-1.3 2-1.2 1.5-1.5 1.5-2 .5-1 .5-1.3.3-1.2v-3l-.5-1.5-.5-1.8-.5-1.7m126.2 7.2 3 6 3.3 6.3 3.5 6 3.5 6.2.7 2 .5 2 .3 2-.3 1.8-.5 1.7-.7 1.8-1 1.5-1 1.2-1.3 1.3-1.5 1-1.5 1-1.5.7-1.5.5-1.7.5-1.5.3-1.5-.3-1.8-.2-2-.5-1.5-.8-1.7-.7-1.5-1-1.5-1.3-2.5-2.5-2.3-2.7-1.7-3.3-1.8-3.2-1-3.3.3 1-.5-.7-2-4.3-3.3-7.7-.7-.5-.8-.5-2-.8-2-.7-2.2-.8-1-.5-.8-.7-.5-.8-.5-1-.2-1.2v-1.5l.2-2 .8-2 .5-1.5" stroke-width="14"/><path d="m295.4 253.3h144.5m-50.2-46.3 51.2 46.5-51.2 46.5" stroke-width="21"/><path d="m143.2 432.5 32-6.7m116.5-18 26-11.8" stroke-width="14"/></g></svg>