<svg height="850" viewBox="0 0 850 850" width="850" xmlns="http://www.w3.org/2000/svg"><path d="m646.4 247 3-.5.8-1.7.7-1.3 1-1.5 1-1.2 1.5-1 1.5-1 1.5-.8 1.8-.7 1.5-.3 2-.2h1.7l1.8.5 1.7.5 1.8.7 1.5 1.3 1.5 1.5 14.2 15.5 23.5 26 23.5 26.5 9 10.5 5.8 7.2.7 1.3 1 2 2 4.7 2.3 5.8 2.2 7.2 2 7.8 2.3 8.7 4.5 18.5 4 19 3.2 17.8 2.5 15.2 1.5 11.3.3 2.2-.3 2.5-.7 6-1.3 6.8-2 7.5-2.2 7.7-2.8 8.3-3 8.2-3 8.3-6 15.5-5.5 13-5.2 12-3.3 11.2-2.2 9.3-1.3 7.7-.7 6.8-.3 5.7.5 5.8.8 5.7 1 6.5 1.5 9.8.7 4 1.3 5 2 5.7 2.5 6.5 2.7 7 3.3 7.5 7 15.8 7.5 15.7 7.7 14.8 7 13 3.3 5.2 3 4.5-168.5 51.3-5.3-37.3-4.5-33.5-4-32-.7-4-.8-3.5-1-3.5-1.2-3-1.5-3-1.3-2.7-3-4.8-2.7-3.7-2.5-2.8-2.3-2.2-4.5-2.3-4-2.7-4-2.5-3.7-3-3.8-3-3.2-3.3-3.3-3.2-3.2-3.5-5.8-7-5.5-7-9.5-13-2.7-4-2.8-4-5.2-8.5-10.8-18.3-5.7-9.5-6.5-9.7-3.5-4.8-3.5-5-4-4.7-4.3-4.8-8.2-8.5-7-6.7-6-5.5-5-4.3-4-3.5-3.3-3-2.2-2.7-1-1.3-.5-1.5-.8-1.5-.2-1.2v-2.5l.2-1.3.5-1.2.5-1.3.8-1 2.2-2.2 2.5-2.3 3.5-2.2 4-2 2-1 2-.8 2.3-.7 2-.3 2.2-.5h2.3l4.5.3 4.7.7 4.8 1.3 4.7 2 4.8 2.2 4.7 3 4.8 3.3 4.7 3.7 4.5 4 4.5 4.8 4.3 4.7 4.2 5.3 4 5.5 1.8 2.2 1.5 2 1.7 1.8 1.8 1.5 1.5 1.5 1.7 1.2 1.8 1 1.7.8 1.8.7 1.7.5 1.8.3 1.5.2h3.5l3.2-.7 3.3-1 3-1.8 3-2 2.7-2.5 2.5-2.7 2-3 2-3.3 1.8-3.5 2.7-5.2 2-4.5 1.8-4 2.7-8.5 1-4.3 1-4 1-5.7 1-6.8 1.8-15.5 1.5-16.7.5-8 .2-8v-6.5l-.2-6-.3-5-.7-4-1-3-1.8-4.3-2.5-5-3-5.5-7.2-13.2-8.5-14.8-8.8-15.2-8-14.5-7-13-2.7-5.8-2.3-5-1-2.5-.5-2.2-.7-2.3-.3-2.2-.2-2v-1.8l.2-1.7.3-1.5.5-1.5.5-1.3 1.5-2.5 1.7-2 2-1.5 2.3-1.2 2.2-1 2.3-.8 2.2-.5 4-.5h2.3l-4-7-3-5.7-1.3-3-.2-2.8v-2.7l.7-2.5 1-2.3 1.5-2.2 1.8-1.8 2-1.7 2.2-1.3 2.3-.7 2.5-.5 2.7-.3 2.5.5 2.5 1 2.3 1.3 2.2 2 4.3 5.5 8.5 11h2.5v-2l.2-2 .8-2 1-1.8 1.2-1.5 1.8-1.2 1.7-1 2-.8 2.3-.5 2.2-.2 2.3.2 2.5.5 2.2 1 2.3 1.3 2.2 2 2.3 2.2zm-365-4h2.3l4 .5 2 .5 2.5.8 2.2 1 2.3 1.2 2 1.5 1.7 2 1.5 2.5.5 1.3.5 1.5.3 1.5.2 1.7-.2 1.8v2l-.5 2.2-.5 2.3-.8 2.2-.7 2.5-2.3 5-2.7 5.8-7 13-8.3 14.7-8.5 15-8.5 14.8-7.2 13.2-3 5.8-2.5 5-1.8 4-1 3.2-.7 3.8-.5 5v12.5l.2 8 .5 8 1.5 16.7 1.8 15.5 1 6.8 1 5.7.7 4 1.3 4.3 2.5 8.5 1.7 4 2.3 4.5 2.7 5.2 1.5 3.5 2 3.3 2.3 3 2.5 2.7 2.7 2.5 3 2 3 1.8 3.3 1 3.2.7h3.3l1.7-.2 1.8-.3 1.7-.5 1.8-.7 1.7-.8 1.8-1 1.5-1.2 1.7-1.5 1.8-1.5 1.7-1.8 1.5-2 1.8-2.2 4-5.5 4-5.3 4.5-4.7 4.5-4.8 4.5-4 4.7-3.7 4.8-3.3 4.7-3 4.8-2.2 4.7-2 4.8-1.3 4.7-.7 4.5-.3h2.3l2.2.5 2 .3 2.3.7 2 .8 2 1 4 2 3.2 2.2 2.8 2.3 2.2 2.2.8 1 .5 1.3.5 1.2.2 1.3v2.5l-.5 1.2-.5 1.5-.7 1.5-.8 1.3-2.2 2.7-3.3 3-4 3.5-5 4.3-6 5.5-7.2 6.7-8 8.5-4.3 4.8-4 4.7-3.7 5-3.5 4.8-6.3 9.7-6 9.5-10.5 18.3-5.2 8.5-2.8 4-2.7 4-9.5 13-5.5 7-5.8 7-3.2 3.5-3.3 3.2-3.5 3.3-3.5 3-3.7 3-4 2.5-4.3 2.7-4.2 2.3-2.3 2.2-2.5 2.8-2.7 3.7-3 4.8-1.5 2.7-1.3 3-1.2 3-1 3.5-.8 3.5-.7 4-4 32-4.5 33.5-5.3 37.3-168.5-51.3 2.8-4.5 3.2-5.2 7.3-13 7.7-14.8 7.5-15.7 7-15.8 3.3-7.5 2.7-7 2.5-6.5 1.8-5.7 1.5-5 .7-4 1.5-9.8 1-6.5.8-5.7.2-5.5v-6l-.7-6.8-1.5-7.7-2.3-9.3-3-11.2-5.2-12-5.5-13-6-15.5-3-8.3-3-8.2-2.8-8.3-2.2-7.7-2-7.5-1.5-6.8-.8-6v-2.5l.3-2.2 1.2-11.3 2.8-15.2 3.2-17.8 4-19 4.5-18.5 2-8.7 2.3-7.8 2.2-7.2 2-5.8 2-4.7 1-2 1-1.3 5.8-7.2 9-10.5 23.5-26.5 23.5-26 14-15.5 1.7-1.5 1.5-1.3 1.8-.7 1.7-.5 1.8-.5h1.7l1.8.2 1.7.3 1.8.7 1.5.8 1.5 1 1.2 1 1.3 1.2 1 1.5.7 1.3.8 1.7 2 1.5 19.2-24 2.3-2.2 2-2 2.5-1.3 2.2-1 2.5-.5 2.3-.2 2.2.2 2.3.5 2 .8 1.7 1 1.5 1.2 1.5 1.5 1 1.8.8 2 .2 2v2l1.8 1 8.7-11.8 4.8-5.7 2.2-2 2.3-1.3 2.5-1 2.5-.5 2.5.3 2.5.5 2.5.7 2.2 1.3 2 1.7 1.8 1.8 1.5 2.2 1 2.3.7 2.5v2.7l-.5 2.8-1 3-3 5.7z" fill="#ffeec8"/><g fill="none" stroke="#231f20" stroke-linecap="round" stroke-miterlimit="10" stroke-width="21"><path d="m108.4 612.8 1.5-9.8m3.3-166.5 11.2-49.5 8.5-35.7 3.3-12.8 1-4.2.7-2.5 1-1.5 1.5-2.3 5.3-7.2 16.2-21.5 20.5-26 19.8-25.3 19.2-24 2.3-2.2 2-2 2.5-1.3 2.2-1 2.5-.5 2.3-.2 2.2.2 2.3.5 2 .8 1.7 1 1.5 1.2 1.5 1.5 1 1.8.8 2 .2 2v2"/><path d="m163.7 406 5.2-33.7 4-24.5 1.8-9.3.7-3 .5-1.7 1-1.8 1.8-3 6.2-9 19.8-27.5 24-32.7 21.5-29 8.7-11.8 4.8-5.7 2.2-2 2.3-1.3 2.5-1 2.5-.5 2.5.3 2.5.5 2.5.7 2.2 1.3 2 1.7 1.8 1.8 1.5 2.2 1 2.3.7 2.5v2.7l-.5 2.8-1 3-3 5.7-4 7-7 10.3-7.7 11-8.5 11.7-8.8 11.8-16.5 21.7-6.7 9.5-5.3 7.5-.7 1.5-1 2.3-2 5.2-2.3 6.5-2 7.3-4 15-3 12.5m40.8 16 .2 8 .5 8 1.5 16.7 1.8 15.5 1 6.8 1 5.7.7 4 1.3 4.3 2.5 8.5 1.7 4 2.3 4.5 2.7 5.2 1.5 3.5 2 3.3 2.3 3 2.5 2.7 2.7 2.5 3 2 3 1.8 3.3 1 3.2.7h3.3l1.7-.2 1.8-.3 1.7-.5 1.8-.7 1.7-.8 1.8-1 1.5-1.2 1.7-1.5 1.8-1.5 1.7-1.8 1.5-2 1.8-2.2 4-5.5 4-5.3 4.5-4.7 4.5-4.8 4.5-4 4.7-3.7 4.8-3.3 4.7-3 4.8-2.2 4.7-2 4.8-1.3 4.7-.7 4.5-.3h2.3l2.2.5 2 .3 2.3.7 2 .8 2 1 4 2 3.2 2.2 2.8 2.3 2.2 2.2.8 1 .5 1.3.5 1.2.2 1.3v2.5l-.5 1.2-.5 1.5-.7 1.5-.8 1.3-2.2 2.7-3.3 3-4 3.5-5 4.3-6 5.5-7.2 6.7-8 8.5-4.3 4.8-4 4.7-3.7 5-3.5 4.8-6.3 9.7-6 9.5-10.5 18.3-5.2 8.5-2.8 4-2.7 4-9.5 13-5.5 7-5.8 7-3.2 3.5-3.3 3.2-3.5 3.3-3.5 3-3.7 3-4 2.5-4.3 2.7-4.2 2.3-2.3 2.2-2.5 2.8-2.7 3.7-3 4.8-1.5 2.7-1.3 3-1.2 3-1 3.5-.8 3.5-.7 4-4 32-4.5 33.5-5.3 37.3"/><path d="m280.9 243h2.8l4 .5 2 .5 2.5.8 2.2 1 2.3 1.2 2 1.5 1.7 2 1.5 2.5.5 1.3.5 1.5.3 1.5.2 1.7-.2 1.8v2l-.5 2.2-.5 2.3-.8 2.2-.7 2.5-2.3 5-2.7 5.8-7 13-8.3 14.7-8.5 15-8.5 14.8-7.2 13.2-3 5.8-2.5 5-1.8 4-1 3.2-.7 3.8-.5 5v12.5m-174 53.5 1.2-11.3 2.8-15.2 3.2-17.8 4-19 4.5-18.5 2-8.7 2.3-7.8 2.2-7.2 2-5.8 2-4.7 1-2 1-1.3 5.8-7.2 9-10.5 23.5-26.5 23.5-26 14-15.5 1.7-1.5 1.5-1.3 1.8-.7 1.7-.5 1.8-.5h1.7l1.8.2 1.7.3 1.8.7 1.5.8 1.5 1 1.2 1 1.3 1.2 1 1.5.7 1.3.8 1.7"/><path d="m109.9 603 1-6.5.8-5.7.2-5.5v-6l-.7-6.8-1.5-7.7-2.3-9.3-3-11.2-5.2-12-5.5-13-6-15.5-3-8.3-3-8.2-2.8-8.3-2.2-7.7-2-7.5-1.5-6.8-.8-6v-2.5l.3-2.2m-12.3 271.2 2.8-4.5 3.2-5.2 7.3-13 7.7-14.8 7.5-15.7 7-15.8 3.3-7.5 2.7-7 2.5-6.5 1.8-5.7 1.5-5 .7-4m632.8 0-1.5-9.8m-3.5-166.5-11-49.5-8.5-35.7-3.3-12.8-1-4.2-1-2.5-.7-1.5-1.8-2.5-5.2-7.3-16.5-21.7-20.8-26.5-20-25.3-18.2-23-2.3-2.2-2.2-2-2.3-1.3-2.2-1-2.5-.5-2.3-.2-2.2.2-2.3.5-2 .8-1.7 1-1.8 1.2-1.2 1.5-1 1.8-.8 2-.2 2v2"/><path d="m685.9 406-5.2-33.7-4.3-24.5-1.5-9.3-.7-3-.5-1.7-1-1.8-2-3-6.3-9.2-20-28-24.2-33-21.5-29-8.5-11-4.3-5.5-2.2-2-2.3-1.3-2.5-1-2.5-.5-2.7.3-2.5.5-2.3.7-2.2 1.3-2 1.7-1.8 1.8-1.5 2.2-1 2.3-.7 2.5v2.7l.2 2.8 1.3 3 3 5.7 4 7 6.7 10.3 8 11 8.5 11.7 8.8 11.8 16.5 21.7 6.7 9.5 5.3 7.5.7 1.5 1 2.3 2 5.2 2.3 6.5 2 7.3 4 15 3 12.5m-40.8 16-.2 8-.5 8-1.5 16.7-1.8 15.5-1 6.8-1 5.7-1 4-1 4.3-2.7 8.5-1.8 4-2 4.5-2.7 5.2-1.8 3.5-2 3.3-2 3-2.5 2.7-2.7 2.5-3 2-3 1.8-3.3 1-3.2.7h-3.5l-1.5-.2-1.8-.3-1.7-.5-1.8-.7-1.7-.8-1.8-1-1.7-1.2-1.5-1.5-1.8-1.5-1.7-1.8-1.5-2-1.8-2.2-4-5.5-4.2-5.3-4.3-4.7-4.5-4.8-4.5-4-4.7-3.7-4.8-3.3-4.7-3-4.8-2.2-4.7-2-4.8-1.3-4.7-.7-4.5-.3h-2.3l-2.2.5-2 .3-2.3.7-2 .8-2 1-4 2-3.5 2.2-2.5 2.3-2.2 2.2-.8 1-.5 1.3-.5 1.2-.2 1.3v2.5l.2 1.2.8 1.5.5 1.5 1 1.3 2.2 2.7 3.3 3 4 3.5 5 4.3 6 5.5 7 6.7 8.2 8.5 4.3 4.8 4 4.7 3.5 5 3.5 4.8 6.5 9.7 5.7 9.5 10.8 18.3 5.2 8.5 2.8 4 2.7 4 9.5 13 5.5 7 5.8 7 3.2 3.5 3.3 3.2 3.2 3.3 3.8 3 3.7 3 4 2.5 4 2.7 4.5 2.3 2.3 2.2 2.5 2.8 2.7 3.7 3 4.8 1.3 2.7 1.5 3 1.2 3 1 3.5.8 3.5.7 4 4 32 4.5 33.5 5.3 37.3"/><path d="m568.7 243h-2.8l-4 .5-2.2.5-2.3.8-2.2 1-2.3 1.2-2 1.5-1.7 2-1.5 2.5-.5 1.3-.5 1.5-.3 1.5-.2 1.7v1.8l.2 2 .3 2.2.7 2.3.5 2.2 1 2.5 2.3 5 2.7 5.8 7 13 8 14.5 8.8 15.2 8.5 14.8 7.2 13.2 3 5.5 2.5 5 1.8 4.3 1 3 .7 4 .3 5 .2 6v6.5m174 53.5-1.5-11.3-2.5-15.2-3.2-17.8-4-19-4.5-18.5-2.3-8.7-2-7.8-2.2-7.2-2.3-5.8-2-4.7-1-2-.7-1.3-5.8-7.2-9-10.5-23.5-26.5-23.5-26-14.2-15.5-1.5-1.5-1.5-1.3-1.8-.7-1.7-.5-1.8-.5h-1.7l-2 .2-1.5.3-1.8.7-1.5.8-1.5 1-1.5 1-1 1.2-1 1.5-.7 1.3-.8 1.7m90.3 356.5-1-6.5-.8-5.7-.5-5.8.3-5.7.7-6.8 1.3-7.7 2.2-9.3 3.3-11.2 5.2-12 5.5-13 6-15.5 3-8.3 3-8.2 2.8-8.3 2.2-7.7 2-7.5 1.3-6.8.7-6 .3-2.5-.3-2.2m12.3 271.2-3-4.5-3.3-5.2-7-13-7.7-14.8-7.5-15.7-7-15.8-3.3-7.5-2.7-7-2.5-6.5-2-5.7-1.3-5-.7-4"/></g><path d="m361.2 206.5-.3-1.7-.2-1.8-.5-1.7-.5-1.5-.8-1.5-.7-1.5-1-1.5-1.3-1-1.2-1.3-1.3-1-1.5-.7-1.5-.8-1.5-.7-1.7-.3-1.8-.2-1.7-.3-1.8.3-1.7.2-1.8.3-1.5.7-1.5.8-1.5.7-1.2 1-1.3 1.3-1.2 1-1 1.5-.8 1.5-.7 1.5-.5 1.5-.5 1.7-.3 1.8-.2 1.7.2 1.8.3 1.7.5 1.5.5 1.8.7 1.5.8 1.5 1 1.2 1.2 1.3 1.3 1 1.2 1 1.5 1 1.5.7 1.5.5 1.8.5 1.7.3h3.5l1.8-.3 1.7-.5 1.5-.5 1.5-.7 1.5-1 1.3-1 1.2-1 1.3-1.3 1-1.2.7-1.5.8-1.5.5-1.8.5-1.5.2-1.7zm0-40-.3-1.7-.2-1.8-.5-1.7-.5-1.5-.8-1.5-.7-1.5-1-1.5-1.3-1-1.2-1.3-1.3-1-1.5-.7-1.5-.8-1.5-.7-1.7-.3-1.8-.2-1.7-.3-1.8.3-1.7.2-1.8.3-1.5.7-1.5.8-1.5.7-1.2 1-1.3 1.3-1.2 1-1 1.5-.8 1.5-.7 1.5-.5 1.5-.5 1.7-.3 1.8-.2 1.7.2 1.8.3 1.7.5 1.5.5 1.8.7 1.5.8 1.5 1 1.2 1.2 1.3 1.3 1 1.2 1 1.5 1 1.5.7 1.5.5 1.8.5 1.7.3h3.5l1.8-.3 1.7-.5 1.5-.5 1.5-.7 1.5-1 1.3-1 1.2-1 1.3-1.3 1-1.2.7-1.5.8-1.5.5-1.8.5-1.5.2-1.7zm0-40-.3-1.7-.2-1.8-.5-1.7-.5-1.5-.8-1.5-.7-1.5-1-1.5-1.3-1-1.2-1.3-1.3-1-1.5-.7-1.5-.8-1.5-.7-1.7-.3-1.8-.2-1.7-.3-1.8.3-1.7.2-1.8.3-1.5.7-1.5.8-1.5.7-1.2 1-1.3 1.3-1.2 1-1 1.5-.8 1.5-.7 1.5-.5 1.5-.5 1.7-.3 1.8-.2 1.7.2 1.8.3 1.7.5 1.5.5 1.8.7 1.5.8 1.5 1 1.2 1.2 1.3 1.3 1 1.2 1 1.5 1 1.5.7 1.5.5 1.8.5 1.7.3h3.5l1.8-.3 1.7-.5 1.5-.5 1.5-.7 1.5-1 1.3-1 1.2-1 1.3-1.3 1-1.2.7-1.5.8-1.5.5-1.8.5-1.5.2-1.7zm22.5-22.7h1.7l1.8-.3 1.7-.5 1.5-.5 1.5-.7 1.5-1 1.3-1 1.2-1 1.3-1.3 1-1.2.7-1.5.8-1.5.5-1.8.5-1.5.2-1.7.3-1.8-.3-1.7-.2-1.8-.5-1.7-.5-1.5-.8-1.5-.7-1.5-1-1.5-1.3-1-1.2-1.3-1.3-1-1.5-.7-1.5-.8-1.5-.7-1.7-.3-1.8-.2-1.7-.3-1.8.3-1.7.2-1.8.3-1.5.7-1.5.8-1.5.7-1.2 1-1.3 1.3-1.2 1-1 1.5-.8 1.5-.7 1.5-.5 1.5-.5 1.7-.3 1.8-.2 1.7.2 1.8.3 1.7.5 1.5.5 1.8.7 1.5.8 1.5 1 1.2 1.2 1.3 1.3 1 1.2 1 1.5 1 1.5.7 1.5.5 1.8.5 1.7.3zm40 0h1.7l1.8-.3 1.7-.5 1.5-.5 1.5-.7 1.5-1 1.3-1 1.2-1 1.3-1.3 1-1.2.7-1.5.8-1.5.5-1.8.5-1.5.2-1.7.3-1.8-.3-1.7-.2-1.8-.5-1.7-.5-1.5-.8-1.5-.7-1.5-1-1.5-1.3-1-1.2-1.3-1.3-1-1.5-.7-1.5-.8-1.5-.7-1.7-.3-1.8-.2-1.7-.3-1.8.3-1.7.2-1.8.3-1.5.7-1.5.8-1.5.7-1.2 1-1.3 1.3-1.2 1-1 1.5-.8 1.5-.7 1.5-.5 1.5-.5 1.7-.3 1.8-.2 1.7.2 1.8.3 1.7.5 1.5.5 1.8.7 1.5.8 1.5 1 1.2 1.2 1.3 1.3 1 1.2 1 1.5 1 1.5.7 1.5.5 1.8.5 1.7.3zm40 0h1.7l1.8-.3 1.7-.5 1.5-.5 1.5-.7 1.5-1 1.3-1 1.2-1 1.3-1.3 1-1.2.7-1.5.8-1.5.5-1.8.5-1.5.2-1.7.3-1.8-.3-1.7-.2-1.8-.5-1.7-.5-1.5-.8-1.5-.7-1.5-1-1.5-1.3-1-1.2-1.3-1.3-1-1.5-.7-1.5-.8-1.5-.7-1.7-.3-1.8-.2-1.7-.3-1.8.3-1.7.2-1.8.3-1.5.7-1.5.8-1.5.7-1.2 1-1.3 1.3-1.2 1-1 1.5-.8 1.5-.7 1.5-.5 1.5-.5 1.7-.3 1.8-.2 1.7.2 1.8.3 1.7.5 1.5.5 1.8.7 1.5.8 1.5 1 1.2 1.2 1.3 1.3 1 1.2 1 1.5 1 1.5.7 1.5.5 1.8.5 1.7.3zm22.5 22.7.2 1.8.3 1.7.5 1.5.5 1.8.7 1.5.8 1.5 1 1.2 1.2 1.3 1.3 1 1.2 1 1.5 1 1.5.7 1.5.5 1.8.5 1.7.3h3.5l1.8-.3 1.7-.5 1.5-.5 1.5-.7 1.5-1 1.3-1 1.2-1 1.3-1.3 1-1.2.7-1.5.8-1.5.5-1.8.5-1.5.2-1.7.3-1.8-.3-1.7-.2-1.8-.5-1.7-.5-1.5-.8-1.5-.7-1.5-1-1.5-1.3-1-1.2-1.3-1.3-1-1.5-.7-1.5-.8-1.5-.7-1.7-.3-1.8-.2-1.7-.3-1.8.3-1.7.2-1.8.3-1.5.7-1.5.8-1.5.7-1.2 1-1.3 1.3-1.2 1-1 1.5-.8 1.5-.7 1.5-.5 1.5-.5 1.7-.3 1.8zm0 40 .2 1.8.3 1.7.5 1.5.5 1.8.7 1.5.8 1.5 1 1.2 1.2 1.3 1.3 1 1.2 1 1.5 1 1.5.7 1.5.5 1.8.5 1.7.3h3.5l1.8-.3 1.7-.5 1.5-.5 1.5-.7 1.5-1 1.3-1 1.2-1 1.3-1.3 1-1.2.7-1.5.8-1.5.5-1.8.5-1.5.2-1.7.3-1.8-.3-1.7-.2-1.8-.5-1.7-.5-1.5-.8-1.5-.7-1.5-1-1.5-1.3-1-1.2-1.3-1.3-1-1.5-.7-1.5-.8-1.5-.7-1.7-.3-1.8-.2-1.7-.3-1.8.3-1.7.2-1.8.3-1.5.7-1.5.8-1.5.7-1.2 1-1.3 1.3-1.2 1-1 1.5-.8 1.5-.7 1.5-.5 1.5-.5 1.7-.3 1.8zm0 40 .2 1.8.3 1.7.5 1.5.5 1.8.7 1.5.8 1.5 1 1.2 1.2 1.3 1.3 1 1.2 1 1.5 1 1.5.7 1.5.5 1.8.5 1.7.3h3.5l1.8-.3 1.7-.5 1.5-.5 1.5-.7 1.5-1 1.3-1 1.2-1 1.3-1.3 1-1.2.7-1.5.8-1.5.5-1.8.5-1.5.2-1.7.3-1.8-.3-1.7-.2-1.8-.5-1.7-.5-1.5-.8-1.5-.7-1.5-1-1.5-1.3-1-1.2-1.3-1.3-1-1.5-.7-1.5-.8-1.5-.7-1.7-.3-1.8-.2-1.7-.3-1.8.3-1.7.2-1.8.3-1.5.7-1.5.8-1.5.7-1.2 1-1.3 1.3-1.2 1-1 1.5-.8 1.5-.7 1.5-.5 1.5-.5 1.7-.3 1.8zm-22.5 22.5-1.8.3-1.7.2-1.8.3-1.5.7-1.5.8-1.5.7-1.2 1-1.3 1.3-1.2 1-1 1.5-.8 1.5-.7 1.5-.5 1.5-.5 1.7-.3 1.8-.2 1.7.2 1.8.3 1.7.5 1.5.5 1.8.7 1.5.8 1.5 1 1.2 1.2 1.3 1.3 1 1.2 1 1.5 1 1.5.7 1.5.5 1.8.5 1.7.3h3.5l1.8-.3 1.7-.5 1.5-.5 1.5-.7 1.5-1 1.3-1 1.2-1 1.3-1.3 1-1.2.7-1.5.8-1.5.5-1.8.5-1.5.2-1.7.3-1.8-.3-1.7-.2-1.8-.5-1.7-.5-1.5-.8-1.5-.7-1.5-1-1.5-1.3-1-1.2-1.3-1.3-1-1.5-.7-1.5-.8-1.5-.7-1.7-.3-1.8-.2zm-40 0-1.8.3-1.7.2-1.8.3-1.5.7-1.5.8-1.5.7-1.2 1-1.3 1.3-1.2 1-1 1.5-.8 1.5-.7 1.5-.5 1.5-.5 1.7-.3 1.8-.2 1.7.2 1.8.3 1.7.5 1.5.5 1.8.7 1.5.8 1.5 1 1.2 1.2 1.3 1.3 1 1.2 1 1.5 1 1.5.7 1.5.5 1.8.5 1.7.3h3.5l1.8-.3 1.7-.5 1.5-.5 1.5-.7 1.5-1 1.3-1 1.2-1 1.3-1.3 1-1.2.7-1.5.8-1.5.5-1.8.5-1.5.2-1.7.3-1.8-.3-1.7-.2-1.8-.5-1.7-.5-1.5-.8-1.5-.7-1.5-1-1.5-1.3-1-1.2-1.3-1.3-1-1.5-.7-1.5-.8-1.5-.7-1.7-.3-1.8-.2zm-40 0-1.8.3-1.7.2-1.8.3-1.5.7-1.5.8-1.5.7-1.2 1-1.3 1.3-1.2 1-1 1.5-.8 1.5-.7 1.5-.5 1.5-.5 1.7-.3 1.8-.2 1.7.2 1.8.3 1.7.5 1.5.5 1.8.7 1.5.8 1.5 1 1.2 1.2 1.3 1.3 1 1.2 1 1.5 1 1.5.7 1.5.5 1.8.5 1.7.3h3.5l1.8-.3 1.7-.5 1.5-.5 1.5-.7 1.5-1 1.3-1 1.2-1 1.3-1.3 1-1.2.7-1.5.8-1.5.5-1.8.5-1.5.2-1.7.3-1.8-.3-1.7-.2-1.8-.5-1.7-.5-1.5-.8-1.5-.7-1.5-1-1.5-1.3-1-1.2-1.3-1.3-1-1.5-.7-1.5-.8-1.5-.7-1.7-.3-1.8-.2zm-40-125.2h1.7l1.8-.3 1.7-.5 1.5-.5 1.5-.7 1.5-1 1.3-1 1.2-1 1.3-1.3 1-1.2.7-1.5.8-1.5.5-1.8.5-1.5.2-1.7.3-1.8-.3-1.7-.2-1.8-.5-1.7-.5-1.5-.8-1.5-.7-1.5-1-1.5-1.3-1-1.2-1.3-1.3-1-1.5-.7-1.5-.8-1.5-.7-1.7-.3-1.8-.2-1.7-.3-1.8.3-1.7.2-1.8.3-1.5.7-1.5.8-1.5.7-1.2 1-1.3 1.3-1.2 1-1 1.5-.8 1.5-.7 1.5-.5 1.5-.5 1.7-.3 1.8-.2 1.7.2 1.8.3 1.7.5 1.5.5 1.8.7 1.5.8 1.5 1 1.2 1.2 1.3 1.3 1 1.2 1 1.5 1 1.5.7 1.5.5 1.8.5 1.7.3zm142.5-17.3.2 1.8.3 1.7.5 1.5.5 1.8.7 1.5.8 1.5 1 1.2 1.2 1.3 1.3 1 1.2 1 1.5 1 1.5.7 1.5.5 1.8.5 1.7.3h3.5l1.8-.3 1.7-.5 1.5-.5 1.5-.7 1.5-1 1.3-1 1.2-1 1.3-1.3 1-1.2.7-1.5.8-1.5.5-1.8.5-1.5.2-1.7.3-1.8-.3-1.7-.2-1.8-.5-1.7-.5-1.5-.8-1.5-.7-1.5-1-1.5-1.3-1-1.2-1.3-1.3-1-1.5-.7-1.5-.8-1.5-.7-1.7-.3-1.8-.2-1.7-.3-1.8.3-1.7.2-1.8.3-1.5.7-1.5.8-1.5.7-1.2 1-1.3 1.3-1.2 1-1 1.5-.8 1.5-.7 1.5-.5 1.5-.5 1.7-.3 1.8zm17.5 142.5-1.8.3-1.7.2-1.8.3-1.5.7-1.5.8-1.5.7-1.2 1-1.3 1.3-1.2 1-1 1.5-.8 1.5-.7 1.5-.5 1.5-.5 1.7-.3 1.8-.2 1.7.2 1.8.3 1.7.5 1.5.5 1.8.7 1.5.8 1.5 1 1.2 1.2 1.3 1.3 1 1.2 1 1.5 1 1.5.7 1.5.5 1.8.5 1.7.3h3.5l1.8-.3 1.7-.5 1.5-.5 1.5-.7 1.5-1 1.3-1 1.2-1 1.3-1.3 1-1.2.7-1.5.8-1.5.5-1.8.5-1.5.2-1.7.3-1.8-.3-1.7-.2-1.8-.5-1.7-.5-1.5-.8-1.5-.7-1.5-1-1.5-1.3-1-1.2-1.3-1.3-1-1.5-.7-1.5-.8-1.5-.7-1.7-.3-1.8-.2zm-142.5 17.5-.3-1.7-.2-1.8-.5-1.7-.5-1.5-.8-1.5-.7-1.5-1-1.5-1.3-1-1.2-1.3-1.3-1-1.5-.7-1.5-.8-1.5-.7-1.7-.3-1.8-.2-1.7-.3-1.8.3-1.7.2-1.8.3-1.5.7-1.5.8-1.5.7-1.2 1-1.3 1.3-1.2 1-1 1.5-.8 1.5-.7 1.5-.5 1.5-.5 1.7-.3 1.8-.2 1.7.2 1.8.3 1.7.5 1.5.5 1.8.7 1.5.8 1.5 1 1.2 1.2 1.3 1.3 1 1.2 1 1.5 1 1.5.7 1.5.5 1.8.5 1.7.3h3.5l1.8-.3 1.7-.5 1.5-.5 1.5-.7 1.5-1 1.3-1 1.2-1 1.3-1.3 1-1.2.7-1.5.8-1.5.5-1.8.5-1.5.2-1.7z" fill="#5668af"/></svg>