<svg height="850.394" viewBox="0 0 850.394 850.394" width="850.394" xmlns="http://www.w3.org/2000/svg"><path d="m493.45 298.04c3.95 3.21 6.77 7.32 7.97 12.12 3.87 15.56-9.1 37.03-30.82 42.45s-43.97-7.24-47.859-22.79c-1.22-4.9-.63-9.94 1.44-14.71 4.48-10.41 15.95-19.58 30.86-23.3 15.009-3.75 29.569-.98 38.409 6.23z" fill="#fff400"/><path d="m627.25 346-31.09 51.79-30.34-18.22 43.81 170.03-170.79 42.59-41.29-170.65-18.21 30.34-51.77-31.09 38.3-81.59 58.3-24.09h.01c-2.07 4.77-2.66 9.81-1.44 14.71 3.89 15.55 26.14 28.21 47.859 22.79 21.721-5.42 34.69-26.89 30.82-42.45-1.2-4.8-4.02-8.91-7.97-12.12l61.62-6.03z" fill="#fff400"/><g fill="#cd82be"><path d="m679.58 112.19-8.18 582.56-382.81 82.68v-611.09l-.47-3.63zm-83.42 285.6 31.09-51.79-72.18-53.99-61.62 6.03c-8.84-7.21-23.4-9.98-38.41-6.23-14.91 3.72-26.38 12.89-30.86 23.3h-.01l-58.3 24.09-38.3 81.59 51.77 31.09 18.21-30.34 41.29 170.65 170.79-42.59-43.81-170.03z"/><path d="m288.59 166.34v611.09l-117.79-63.8v-588.19l26.99 8.87v63.12l64.14 21.07v-63.12l23.39 7.69 2.8-.36z"/><path d="m261.93 155.38v63.12l-64.14-21.07v-63.12z"/><path d="m680.67 108.72-1.09 3.47-391.46 50.52-2.8.36-23.39-7.69-64.14-21.07-26.99-8.87-.67-5.44 391.4-48.54z"/></g><g fill="none" stroke="#231f20" stroke-width="21"><path d="m288.59 777.43-117.79-63.8v-588.19l26.99 8.87 64.14 21.07 23.39 7.69 2.8-.36 391.46-50.52-8.18 582.56z"/><path d="m197.79 134.31v63.12l64.14 21.07v-63.12m-99.86-34.38 8.06-1 391.4-48.54 119.14 37.26 5.14 1.61m-397.22 56.01v611.09m204.86-479.39c3.95 3.21 6.77 7.32 7.97 12.12 3.87 15.56-9.1 37.03-30.82 42.45s-43.97-7.24-47.859-22.79c-1.22-4.9-.63-9.94 1.44-14.71 4.48-10.41 15.95-19.58 30.86-23.3 15.009-3.75 29.569-.98 38.409 6.23z"/><path d="m492.29 298.15 1.16-.11 61.62-6.03 72.18 53.99-31.09 51.79-30.34-18.22 43.81 170.03-170.79 42.59-41.29-170.65-18.21 30.34-51.77-31.09 38.3-81.59 58.3-24.09"/></g><path d="m0 0h850.394v850.394h-850.394z" fill="none"/></svg>