<svg height="850.394" viewBox="0 0 850.394 850.394" width="850.394" xmlns="http://www.w3.org/2000/svg"><path d="m701.39 179.81 3.03.37c-1.49 9.76-65.17 426.32-88.86 514.16-25.59 94.9-189.75 92.88-189.75 92.88s-164.16 2.021-189.75-92.88c-23.97-88.88-88.89-514.33-88.89-514.33l.71-1.08c43.6 28.71 151.38 49.02 277.43 49.02 124.77 0 231.64-19.9 276.08-48.14z" fill="#6ebe44"/><path d="m723.42 150.55c0 10.35-7.83 20.23-22.03 29.26-44.439 28.24-151.31 48.14-276.08 48.14-126.05 0-233.83-20.31-277.43-49.02-13.35-8.79-20.68-18.36-20.68-28.38 0-42.74 133.47-77.4 298.11-77.4 164.65 0 298.11 34.66 298.11 77.4z" fill="#fff"/><g fill="none"><path d="m147.88 178.93c-13.35-8.79-20.68-18.36-20.68-28.38 0-42.74 133.47-77.4 298.11-77.4 164.65 0 298.11 34.66 298.11 77.4 0 10.35-7.83 20.23-22.03 29.26-44.439 28.24-151.31 48.14-276.08 48.14-126.05 0-233.83-20.31-277.43-49.02zm277.93 608.29s-164.16 2.021-189.75-92.88c-23.97-88.88-88.89-514.33-88.89-514.33m278.64 607.21s164.16 2.021 189.75-92.88c23.69-87.84 87.37-504.4 88.86-514.16.021-.11.03-.17.03-.17" stroke="#231f20" stroke-width="21"/><path d="m0 0h850.394v850.394h-850.394z"/></g></svg>