<svg height="850.394" viewBox="0 0 850.394 850.394" width="850.394" xmlns="http://www.w3.org/2000/svg"><path d="m311.29 313.93-3.61 69.41c-56.95-2.95-100.77-16.25-104.75-32.47-.2-.8-.3-1.61-.3-2.42.07-17.63 47.18-32.12 108.66-34.52zm147.08 35.14c-.05 17.75-47.89 32.33-109.97 34.6l-4.17-.22 3.62-69.56 2.15.11c57.9 3.51 108.39 18.13 108.37 35.07z" fill="#f0947d"/><g fill="#ff001c"><path d="m307.68 383.34 3.61-69.41 8.71-167.24c.57-11.04 8.77-19.65 18.47-19.65.27 0 .55.01.83.02 10.06.53 17.75 10.15 17.15 21.5l-8.6 165.33-3.62 69.56-.98 18.88c-.58 11.06-8.79 19.64-18.51 19.64-.26 0-.53-.01-.8-.02-10.07-.52-17.74-10.16-17.15-21.49zm449.93-29.65c-12.82-2.95-35.351-15.35-58.841-33.13-26.819-20.31-46.529-41.34-49.779-52.16-.721-2.36-.641-4.24.319-5.52 5.41-7.11 36.261 7.18 68.96 31.95 32.7 24.76 54.811 50.59 49.421 57.71-1.51 2-5.05 2.3-10.08 1.15z"/><path d="m658.35 333.22-9.359-64.82c3.25 10.82 22.96 31.85 49.779 52.16 23.49 17.78 46.021 30.18 58.841 33.13l-61.811 7.76-201.8 244.55-2.58.33-12.04-93.74 4.62-.59z"/><path d="m479.38 512.59 12.04 93.74 5.53 43.03 1.2 5.76c-5.91 33.42-79.021 59.72-168.22 59.49-93.01-.221-168.35-29.17-168.26-64.601l37.31-298.72 3.95-.42c3.98 16.22 47.8 29.52 104.75 32.47l-.89 17.12c-.59 11.33 7.08 20.97 17.15 21.49.27.01.54.02.8.02 9.72 0 17.93-8.58 18.51-19.64l.98-18.88 4.17.22c62.08-2.27 109.92-16.85 109.97-34.6z"/></g><g fill="none" stroke="#231f20" stroke-width="21"><path d="m311.32 313.93h-.03c-61.48 2.4-108.59 16.89-108.66 34.52 0 .81.1 1.62.3 2.42 3.98 16.22 47.8 29.52 104.75 32.47h.02m40.7.33c62.08-2.27 109.92-16.85 109.97-34.6.02-16.94-50.47-31.56-108.37-35.07"/><g stroke-linecap="round"><path d="m198.98 351.29-37.31 298.72c-.09 35.431 75.25 64.38 168.26 64.601 89.2.229 162.31-26.07 168.22-59.49l-1.2-5.76-5.53-43.03-12.04-93.74-21.01-163.52m299.24 4.619c5.029 1.15 8.569.85 10.08-1.15 5.39-7.12-16.721-32.95-49.421-57.71-32.699-24.77-63.55-39.06-68.96-31.95-.96 1.28-1.04 3.16-.319 5.52 3.25 10.82 22.96 31.85 49.779 52.16 23.491 17.78 46.021 30.18 58.841 33.13z"/><path d="m757.75 353.67-.14.02-61.81 7.76-201.8 244.55m154.9-338.22.09.62 9.36 64.82-174.35 178.78m-341.18-46.83c15.07 20.22 25.2 48.65 25.2 83.12m30.96-197c-13.99-48-100.31-39.31-114.89.41-2.92 7.95-3.26 15.65-1.88 23.07 4.15 22.27 23.99 42.13 36.71 59.22 7.08 9.51 15.59 20 23.9 31.18m164.86-81.83-.89 17.12c-.59 11.33 7.08 20.97 17.15 21.49.27.01.54.02.8.02 9.72 0 17.93-8.58 18.51-19.64l.98-18.88 3.62-69.56 8.6-165.33c.6-11.35-7.09-20.97-17.15-21.5-.28-.01-.56-.02-.83-.02-9.7 0-17.9 8.61-18.47 19.65l-8.71 167.24z"/></g></g><path d="m0 0h850.394v850.394h-850.394z" fill="none"/></svg>