<svg height="850.394" viewBox="0 0 850.394 850.394" width="850.394" xmlns="http://www.w3.org/2000/svg"><g fill="none"><g stroke="#231f20" stroke-width="35"><path d="m539.945 72.497v163.561c0 26.816-23.601 48.556-52.693 48.556h-10.978c-29.1 0-52.694-21.74-52.694-48.556v-163.561m2.133 703.888v-157.155c.006-26.816 23.614-48.553 52.7-48.553h10.984c29.099 0 50.68 17.083 52.688 48.553v157.154"/><path d="m285.335 363.938 184.684-123.837s34.166-18.146 55.515 27.757"/><path d="m522.325 266.789s12.816 12.814 11.747 45.907c-1.07 33.093 0 219.92 0 219.92s5.335 60.888-35.229 76.9"/><path d="m380.345 410.908 44.837 172.943s40.568 63.027 88.611 16.058"/></g><path d="m0 0h850.394v850.394h-850.394z"/></g></svg>