<svg height="850.394" viewBox="0 0 850.394 850.394" width="850.394" xmlns="http://www.w3.org/2000/svg"><path d="m338.72 690.67v-84.47h171.56v84.13s20.06 26.4 89.83 36.72v29.34l-122.91.37h-228.33v-29.35c69.76-10.31 89.85-36.74 89.85-36.74z" fill="#7a7878"/><path d="m699.57 546.46c9.649 0 17.46 7.82 17.46 17.44 0 9.649-7.811 17.46-17.46 17.46-9.63 0-17.431-7.811-17.431-17.46.001-9.62 7.801-17.44 17.431-17.44z" fill="#231f20"/><path d="m357.67 281.78h-19.93l-14.88 68.54-17.2-68.54h-23.6l-17.83 67.41-14.76-67.41h-20.3l23.28 98.13h21.63l19.4-73.36 19.44 73.36h21.27zm129.35 0h-19.93l-14.89 68.54-17.2-68.54h-23.59l-17.83 67.41-14.76-67.41h-20.3l23.27 98.13h21.63l19.41-73.36 19.439 73.36h21.261zm.84 0 23.279 98.13h21.63l19.4-73.36 19.44 73.36h21.27l23.48-98.13h-19.929l-14.88 68.54-17.2-68.54h-23.6l-17.83 67.41-14.76-67.41zm211.33-127.47v366.54h-547.29v-366.54z" fill="#fff"/><path d="m510.28 606.2h-379.25c-23.58 0-42.69-19.11-42.69-42.7v-426.75c0-23.58 19.11-42.7 42.69-42.7h587.43c23.58 0 42.7 19.12 42.7 42.7v426.75c0 23.59-19.12 42.7-42.7 42.7zm167.39-42.02c0-9.63-7.82-17.43-17.46-17.43s-17.44 7.8-17.44 17.43c0 9.65 7.801 17.44 17.44 17.44s17.46-7.79 17.46-17.44zm4.47-.28c0 9.649 7.801 17.46 17.431 17.46 9.649 0 17.46-7.811 17.46-17.46 0-9.62-7.811-17.44-17.46-17.44-9.631 0-17.431 7.82-17.431 17.44zm17.05-43.05v-366.54h-547.29v366.54z" fill="#7a7878"/><path d="m660.21 546.75c9.64 0 17.46 7.8 17.46 17.43 0 9.65-7.82 17.44-17.46 17.44s-17.44-7.79-17.44-17.44c0-9.63 7.8-17.43 17.44-17.43zm-43.85-264.97-23.48 98.13h-21.27l-19.44-73.36-19.4 73.36h-21.63l-23.28-98.13h20.3l14.76 67.41 17.83-67.41h23.6l17.2 68.54 14.88-68.54zm-129.34 0-23.49 98.13h-21.26l-19.44-73.36-19.41 73.36h-21.63l-23.27-98.13h20.3l14.76 67.41 17.83-67.41h23.59l17.2 68.54 14.89-68.54zm-129.35 0-23.48 98.13h-21.27l-19.44-73.36-19.4 73.36h-21.63l-23.28-98.13h20.3l14.76 67.41 17.83-67.41h23.6l17.2 68.54 14.88-68.54z" fill="#231f20"/><g fill="none"><g stroke="#231f20" stroke-width="21"><path d="m338.72 606.2h-207.69c-23.58 0-42.69-19.11-42.69-42.7v-426.75c0-23.58 19.11-42.7 42.69-42.7h587.43c23.58 0 42.7 19.12 42.7 42.7v426.75c0 23.59-19.12 42.7-42.7 42.7z"/><path d="m151.9 154.31h547.291v366.54h-547.291zm358.38 451.64v84.38s20.06 26.4 89.83 36.72v29.34l-122.91.37h-228.33v-29.35c69.76-10.311 89.85-36.74 89.85-36.74v-84.38"/></g><path d="m0 0h850.394v850.394h-850.394z"/></g></svg>