<svg height="850" viewBox="0 0 850 850" width="850" xmlns="http://www.w3.org/2000/svg"><path d="m425 155.3-2.5-.3-11.8.5-11.3.8-11.3 1.5-10.5 1.8-10 2.5-9.5 2.8-4.5 1.5-4.5 1.8-4 1.8-4 1.8-4 2-3.5 2-3.5 2.3-3.1 1.9-3 2.3-2.8 2.3-2.5 2.5-2.3 2.5-2.3 2.5-1.8 2.5-1.5 2.8-1.3 2.8-1 2.8-.8 2.8-.5 3v5.8l.5 2.8.8 2.8 1 3 1.3 2.5 1.5 2.8 1.8 2.8 2.3 2.5 2.3 2.5 2.5 2.3 2.8 2.5 3 2.3 3.3 2.3 3.5 2 3.5 2 4 2 4 2 4 1.8 4.5 1.5 4.5 1.8 9.5 2.8 10 2.3 10.5 2 11.3 1.3 11.3 1 11.8.3h2.5l11.5-.5 11.3-.8 10.8-1.5 10.5-2 9.8-2.5 9.5-2.8 8.5-3.3 4.3-1.8 3.8-1.8 3.8-2 3.5-2 3.5-2.3 3-2 3-2.3 2.8-2.5 2.5-2.3 2.3-2.5 2-2.5 1.8-2.8 1.5-2.5 1.3-2.8 1-2.8.8-2.8.5-2.8v-5.8l-.5-2.8-.8-3-1-2.8-1.3-2.5-1.5-2.8-1.8-2.5-2-2.5-2.3-2.5-2.5-2.5-2.8-2.3-3-2.3-3-2.3-3.5-2-3.5-2-3.8-2-3.8-2-4.3-1.8-9.1-3.2-9.3-2.8-9.8-2.5-10.5-1.8-10.8-1.5-11.3-1zm-260 550-4.3-1-3.8-1-3.8-1-3.8-1.5-3.5-1.5-3.5-1.5-3.3-1.8-3.3-2-3.3-2-3-2-2.8-2.3-2.8-2.3-5.3-5-4.8-5.3-4.3-5.5-4-5.8-3.5-6-3.3-6-2.8-6-2.3-6-2-6.3-1.8-5.8-1.3-5.8-1-6-1-6.3-1-6.3-1-12.8-.8-12 .4-10-.3-8.5v-7.5l-1.3-23.3-1-25-.8-26-.3-27.2-.5-27.8-.3-28.2v-28.5l.3-28 .5-27.8.5-26.8.8-25.8.8-24.3 1.3-22.8 1.3-20.5 1.3-18.3 1.8-15.8.5-3.5.5-3.3.8-3.3 1-3.3 2-6 2.8-5.5 2.8-5 3.5-4.8 3.8-4.5 3.8-3.8 4.3-3.8 4.5-3.3 4.8-3 4.8-2.5 5-2.3 5-2.3 5-1.8 5-1.5 5-1.5 5-1 5-1 4.8-.8 8.8-1.3 8-.5 6.8-.3h9.6l225-1 224.8 1h9.5l6.8.3 8 .5 9 1.3 4.8.8 4.8 1 5 1 5 1.5 5 1.5 5.3 1.8 5 2.3 4.8 2.3 5 2.5 4.5 3 4.5 3.3 4.3 3.8 4 3.8 3.8 4.5 3.3 4.8 3 5 2.5 5.5 2 6 1 3.3.8 3.3.8 3.3.5 3.5 1.5 15.8 1.5 18.3 1.3 20.5 1 22.8 1 24.3.8 25.8.5 26.8.3 27.8.3 28v28.5l-.3 28.3-.3 27.8-.8 27.3-.8 26-1 25-1.3 23.3v16l-.5 10.5-.8 12-1.3 12.8-.8 6.3-1 6.3-1.3 6-1.3 5.8-1.5 5.8-2 6.3-2.5 6-2.8 6-3 6-3.8 6-3.8 5.8-4.5 5.5-4.8 5.3-5.3 5-2.8 2.3-3.7 1.6-3 2-3 2-3.3 2-3.5 1.8-3.3 1.5-3.8 1.5-3.5 1.5-3.8 1-4 1-4 1-8.3 1-11 1 7-10.8 8-12.8 8.5-14.5 8.8-15.5 4.3-7.8 4-8 3.8-7.8 3.8-7.8 3.3-7.5 2.8-7.3 2.5-6.8 1.8-6.5 2-8.3 1.5-8.3 1.5-8.3 1.3-8 1-7.8.8-7.5 1.3-14.8 1.5-25.2.8-11 .5-4.8.8-4.3 1.8-11.3.3-4.8.3-4v-4l-.3-3.5-.5-3.8-.8-4-1.3-4.8-1.5-5.8-.8-2.3-.8-2-1-1.8-1.3-1.5h2.5v-261.8l-.7-1.5-1-1.8-1.5-2.3-2.3-2.5-3-2.8-3.8-2.8-2.3-1.3-2.5-1.3-2.5-1.3-3-1.3-3.3-1-3.5-1-4-.8-4-.5-4.5-.5-4.8-.3-5-.3-5.5.3-5.8.5-6.3.5-6.5 1-7 1.3-7.3 1.5-7.8 1.8-6.5 1.8-6 2-5.5 2-5.3 2.3-4.5 2.3-4.3 2.3-4 2.5-3.3 2.8-3.3 2.5-2.8 2.8-2.5 3-2.3 2.8-2 3.3-1.8 3-1.5 3-1.3 3.3-1.3 3.3-1 3.5-1.5 6.8-1.3 6.8-1.3 7.3-1.3 7-1.3 7-1.8 7.3-1 3.5-1.3 3.5h-3.3l-4.3-1.3-4.3-1-4.5-.8-4.5-.3-4.5.3-4.5.3-4.5 1-4.3 1-4.3 1.8-4 2-3.8 2.5-3.5 3-3.3 3.3-2.8 4-1.3 2-1 2.3-1 2.5-1 2.5-2.3 6.8-7.3 21.5-6.8 2-6.8 1.5-6.8 1.3-6.3 1.3-6 .8-5.8.8-10.3.8-8.8.3h-6.5l-3.4-1-8.8-.5-7.8-.5-10-1-11.3-1.5-12.5-2-6.5-1.3-6.5-1.5-6.5-1.5-6.8-1.8-5.8-17.8-2.3-6.8-1.8-4.5-2.3-4.3-2.5-3.8-3-3.3-3.3-2.8-3.3-2.5-3.8-2-3.8-1.8-4-1.5-4.3-1-4.3-.5-4.3-.3h-3.5l-4.3.3-4 .8-4.3.8v-.5l-1.3-3.5-1-3.5-1.5-7-1.5-7.3-1-7-1.3-6.8-1.3-7-1.8-6.5-1-3.3-1.3-3.3-1.3-3.3-1.5-3-1.8-3-2-3-2.3-3-2.5-2.8-2.8-2.8-3-2.8-3.5-2.5-4-2.3-4-2.5-4.8-2.3-5-2-5.5-2-5.8-2-6.5-1.8-7.8-1.8-7.5-1.5-6.8-1.3-6.8-1-6-.5-6-.5-5.3-.3-5.3.3-4.8.3-4.5.5-4 .5-3.8.8-3.5 1-3.3 1-3 1.3-2.8 1.3-2.5 1.3-2.3 1.3-3.8 2.8-3 2.8-2 2.5-1.8 2.3-1 1.8-.8 1.5v260l-1.3.5-1.3.8-1.3 1-1.3 1-1.3 1.5-1 1.8-.8 2-1 2.5-1.5 5.5-1 5-.8 3.8-.5 3.8-.3 3.8v8.1l.5 4.5 1.8 11.3.8 4.5.5 4.8.8 10.8 1.8 25.8 1.3 14.8.8 7.5 1 8 1.3 8 1.3 8 1.8 8.3 2 8.3 1.8 6.5 2.5 7 2.8 7.3 3.3 7.5 3.5 7.5 4 8 4 7.8 4.3 8 9.8 14.7 8.8 14.3 7.8 13 7 10.5-4.8-.5-2.8-.3-1.5-.8-1-.5-.5-.3z" fill="#c8c8c8"/><path d="m133.3 448.3-2.5-8.3-1-4.2-1-4.3-1-5-.5-5.5v-5.5l.2-5.5 4.5 4 2 1.3 1.8 1.2 2.2.5 2.5.5h3.3l4-.5 2.2-.5 2.8-.7 5.7-2.5 5.8-2.5 4.5-2.5h.5l-3.5-13.8-1.8-7-1.7-7.2-1.8-9.3-.7-4.7-.5-4.8 5.5 4.5 2.2 1.5 2.5 1.3 2.5.7 3 .3h3.5l4.5-.5 3-.5 3.3-1 2.7-1.3 3-1.5 2.8-1.5 2.5-1.7 5.2-3.8 2.3 7.8 2 8.2 3.5 15 1.7 6.5 1.3 5 .7 2 .8 1.8.7 1 .8.5.5.2.2-.2.5-.5.3-1.3.2-1.7-.5-4.8-.7-6.7-1.5-7.8-2-9-2.3-9.7-2.5-10-4.5-15.8-4.5-14.7-.7-2.8 6 4.8 3 2 2.7 1.5 3.3 1.2 3.5.8 3.7.2 4.5-.5 3.5-.5 3.3-1.2 3.2-1.5 3-1.5 3-2 3-2 5.5-4 2.5 8.5 2.3 8.7 4 17.3 3.2 14.7 1.3 5.5 1 3.8 1 2.2.7 1.5 1 1 1 .8h1l1-.3.8-.5.7-.7.5-1.3.3-1.5.2-1.7v-2l-.2-2.3-.8-2.2-1-2.5-1.2-2.8-2-4-2-4.7-1.8-5.3-1.7-5.7-1.8-6.5-1.5-7-1.5-7.3-1.5-8-2.5-16 .8 3 1.2 2.8 1.3 2.5 1.7 2.5 1.8 2.2 2 2.3 2.2 1.7 2.5 1.8 2.8 1.5 3 1.2 3.2.8 3.5.7 3.8.5h4.2l4.3-.2 4.5-.5 6.5-1.3 5.7-1.5 5.3-1.7 4.7-2 4-2.3 3.5-2.2 3-2.5 2.5-2.5 2-2.8 1.8-2.7 1.2-3 1-2.8.5-3 .5-2.7v-3l-.2-2.8 1-.2 5.7 17.7 10.5 31.5 11.5 36.5 5.8 18.5 5.5 18 4.7 17 4.3 15.3 1.5 7.7 1.7 10.3 2 12.7 2 14.8 4.3 34.7 4.2 39.5 4.3 41.5 3.7 41.3 3.5 38 2.8 32.5h.5l.5 9.5.2 8.7v16l-.2 12.3-.3 6.7-235.7-44.2-8.3-12.5-7-10.5-7.7-13-8.8-14.3-8.7-15.5-4.3-8-4-7.7-4-8-3.5-7.5-3.2-7.5-2.8-7.3-2.5-7-1.7-6.5-2-8.2-1.8-8.3-1.2-8-1.3-8-1-8-.7-7.5-1.3-14.7-1.7-25.8-.8-10.7-.5-4.8-.7-4.5-1.8-11.2-.5-4.5v-8l.3-3.8.5-3.7.7-3.8h.3l.7 2 1 1.8 1.3 1 1.5 1 1.5.2 1.7.3 2-.3 1.8-.2 2-.8 2-.7 3.7-2 3.8-2.5 3.2-2.3z" fill="#ffeec8"/><path d="m427.8 705.3-2 22.2-1.8 19-2 18.3-1.5-.3.3-6.7.2-12.3v-16l-.2-8.7-.5-9.5h-.5l-2.8-32.5-3.5-38-3.7-41.3-4.3-41.5-4.2-39.5-4.3-34.7-2-14.8-2-12.7-1.7-10.3-1.5-7.7-4.3-15.3-4.7-17-5.5-18-5.8-18.5-11.5-36.5-10.5-31.5 6.8 1.8 6.5 1.5 6.5 1.5 6.5 1.2 12.5 2 11.2 1.5 10 1 7.8.5 8.7.5 5.5.3h6.5l8.8-.3 10.2-.7 5.8-.8 6-.7 6.2-1.3 6.8-1.2 6.7-1.5 6.8-2-10.3 31.2-11.2 35.5-5.5 17.8-5 17.5-4.8 16.2-4 14.8-1.5 7.2-1.5 10-1.7 12.3-1.5 14.5-3.3 33.5-3.2 38.2-3.3 40.8-3 40.2-5.2 71zm77.2-403.8-.7-1.7-1-2-.8-2-.5-2-.5-2.3-.2-4v-4.2h-.8l2.3-6.8 1-2.5 1-2.5 1-2.2 1.2-2 2.8-4 3.2-3.3 3.5-3 3.8-2.5 4-2 4.2-1.7 4.3-1 4.5-1 4.5-.3 4.5-.2 4.5.2 4.5.8 4.2 1 4.3 1.2 2.7 1.3 2.8 1 2.5 1.5 2.5 1.5 2.5 1.5 2 2 2 1.7 1.7 2 1.8 2.3 1.2 2.2 1.3 2.3.7 2.5.8 2.5.2 2.5.3 2.7-.3 2.8-2.2 15.7-1 2.8-1 3-1.3 2.5-1.7 2.5-1.8 2.2-2 2-2.2 2-2.5 1.8-2.8 1.5-3 1-3.2 1-3.5.7-4 .3h-4l-4.3-.3-4.5-.5-7.7-1.5-3.5-.7-3.5-1-3-1.3-2.8-1-2.7-1.2-2.3-1.5-2.2-1.3-2.3-1.5-1.7-1.5-1.8-1.5-1.5-1.5-1.2-1.7z" fill="#ffeec8"/><path d="m501.3 283.3v4.2l.2 4 .5 2.3.5 2 .8 2 1 2 .7 1.7 2.3 3.3 1.2 1.7 1.5 1.5 1.8 1.5 1.7 1.5 2.3 1.5 2.2 1.3 2.3 1.5 2.7 1.2 2.8 1 3 1.3 3.5 1 3.5.7 7.7 1.5 4.5.5 4.3.3h4l4-.3 3.5-.7 3.2-1 3-1 2.8-1.5 2.5-1.8 2.2-2 2-2 1.8-2.2 1.7-2.5 1.3-2.5 1-3 1-2.8-2.5 15.8-1.5 8-1.5 7.5-1.5 7-1.8 6.5-1.7 5.7-1.8 5.3-2 4.7-2 4-1.2 2.5-1 2.5-.8 2.5-.2 2v3.8l.5 1.5.5 1.2.7 1 .8.5 1 .3 1-.3 1-.5.7-1.2 1-1.5 1-2 1-3.8 1.3-5.5 3.2-14.7 4-17.3 2.3-8.7 2.5-8.5 5.5 4 3 2 2.7 1.7 3.3 1.8 3 1.5 3.5 1 3.5.7 4.5.5 3.7-.2 3.5-.8 3-1.2 3-1.8 3-2 6-4.7-1 3-4.5 14.7-4.2 15.8-2.5 10-2.3 9.5-2 9-1.5 8-1 6.5-.2 5 .2 1.7.3 1.3.5.5h.7l.8-.5.7-1.3.5-1.5.8-2 1.5-5.2 1.5-6.3 3.7-15.2 2-8 2.3-8 5.2 3.7 2.5 1.8 2.8 1.7 2.7 1.5 3 1 3 1 3.3.8 4.5.5h3.5l3-.5 2.5-.8 2.5-1 2.2-1.7 5.5-4.3-1 8-1.5 8.3-1.7 7.7-2 7.8-3.8 14.7.5.3 4.3 2.2 5.7 2.8 6 2.2 2.8.8 2.2.5 4 .5h3.3l2.5-.3 2.2-.7 1.8-1 2-1.5 4.5-4 .2 5.7v5.5l-.5 5.3-1 5.2-1 4.3-1 4.2-2.5 8 2.3.8 3.2 2.5 3.5 2.2 4 2 2 1 2 .5 1.8.5 1.7.3 1.8-.3 1.7-.5 1.5-.7 1.3-1.3 1-1.5.7-2.2h.3l.7 4 .5 3.7.3 3.5v4l-.3 4-.2 4.8-1.8 11.2-.7 4.3-.5 4.7-.8 11-1.7 25.8-1.3 14.7-.7 7.5-1 7.8-1.3 8-1.5 8.2-1.5 8.3-2 8.2-1.7 6.5-2.5 6.8-2.8 7.2-3.2 7.5-3.8 7.8-3.7 7.7-4 8-4.3 7.8-8.7 15.5-8.5 14.5-8 12.7-7 10.8-5.5 8.5-238.3 49 2-18.3 1.8-19 2-22.2.5.2 5.2-71 3-40.2 3.3-40.8 3.2-38.2 3.3-33.5 1.5-14.5 1.7-12.3 1.5-10 1.5-7.2 4-14.8 4.8-16.2 5-17.5 5.5-17.8 11.2-35.5 10.3-31.2 7.2-21.5z" fill="#ffeec8"/><path d="m425 265.3v2.2h-2.5l-11.7-.2-11.3-1-11.2-1.3-10.5-2-10-2.2-9.5-2.8-4.5-1.7-4.5-1.5-4-1.8-4-2-4-2-3.5-2-3.5-2-3.3-2.2-3-2.3-2.7-2.5-2.5-2.2-2.3-2.5-2.2-2.5-1.8-2.8-1.5-2.7-1.2-2.5-1-3-.8-2.8-.5-2.7v-5.8l.5-3 .8-2.7 1-2.8 1.2-2.7 1.5-2.8 1.8-2.5 2.2-2.5 2.3-2.5 2.5-2.5 2.7-2.2 3-2.3 3.3-2.2 3.5-2.3 3.5-2 4-2 4-1.7 4-1.8 4.5-1.7 4.5-1.5 9.5-2.8 10-2.5 10.5-1.7 11.2-1.5 11.3-.8 11.7-.5 2.5.3zm112.8-54v3l-.5 2.7-.8 2.8-1 2.7-1.2 2.8-1.5 2.5-1.8 2.7-2 2.5-2.2 2.5-2.5 2.3-2.8 2.5-3 2.2-3 2-3.5 2.3-3.5 2-3.7 2-3.8 1.7-4.2 1.8-8.5 3.2-9.5 2.8-9.8 2.5-10.5 2-10.7 1.5-11.3.7-11.5.5v-112.2l11.5.2 11.3 1 10.7 1.5 10.5 1.8 9.8 2.5 9.2 2.7 8.8 3.3 4.2 1.7 3.8 2 3.7 2 3.5 2 3.5 2 3 2.3 3 2.2 2.8 2.3 2.5 2.5 2.2 2.5 2 2.5 1.8 2.5 1.5 2.7 1.2 2.5 1 2.8.8 3 .5 2.7z" fill="#fff"/><path d="m733.8 170.5v262.3h-2.5l-1.5-1.5-1.3-.8-1.2-.5-1.5-.5-1.3-.2-2.5-.3-2.5.3-2.2.5-1.5.7-1.5.5h-.8l1-5.2.5-5.3v-5.5l-.2-5.7-.5-4.8-.8-3-.5-2.7-1-2.8-.7-2.2-1-2.3-1-2-2.3-3.5-2.5-2.7-2.5-2-2.7-1.8-2.5-1.2-2.8-.8-2.2-.2-2.5-.3h-1.8l-3 .3-1.2.2-2.8-.2 1.5-8.3 1-8 .3-3.7.2-2.8-.2-2.5-.3-2.2-.2-2.3-.5-2-.8-1.7-.7-1.8-1-1.5-1-1.2-1-1.3-2.5-2-2.5-1.7-2.8-1.3-3-.7-2.7-.5-2.8-.3h-5l-2 .3-1.5.5-1 .2-1.2.8-1.3.7-2.2 2-2 2.5-2 3-1.8 3.5-1.7 3.8-1.5 4.2-1.5 4.3-4.5-3.3-1.5-.2 4.2-15.8 4.5-14.7 1-3 .5-2.5.5-2.5v-6.8l-.5-2-.5-1.7-.7-1.8-.8-1.5-1-1.5-1.2-1.2-1-1.3-2.8-2-3.2-1.7-3.3-1.3-3.5-.7-3.5-.5-3.5-.3h-3.5l-3.5.3-3 .5-2.7.7-1 .3-1 .7-2 1.8-1.8 2.5-1.7 3-1.8 3.5-1.7 4.2-1.5 4.5-1.5 4.8-2.8-1.8-2.7-.7 2.5-15.8 2.2-15.7.3-2.8-.3-2.7-.2-2.5-.8-2.5-.7-2.5-1.3-2.3-1.2-2.2-1.8-2.3-1.7-2-2-1.7-2-2-2.5-1.5-2.5-1.5-2.5-1.5-2.8-1-2.7-1.3h3.2l1.3-3.5 1-3.5 1.7-7.2 1.3-7 1.2-7 1.3-7.3 1.2-6.7 1.5-6.8 1-3.5 1.3-3.2 1.2-3.3 1.5-3 1.8-3 2-3.2 2.2-2.8 2.5-3 2.8-2.7 3.2-2.5 3.3-2.8 4-2.5 4.2-2.2 4.5-2.3 5.3-2.2 5.5-2 6-2 6.5-1.8 7.7-1.7 7.3-1.5 7-1.3 6.5-1 6.2-.5 5.8-.5 5.5-.2 5 .2 4.7.3 4.5.5 4 .5 4 .7 3.5 1 3.3 1 3 1.3 2.5 1.2 2.5 1.3 2.2 1.2 3.8 2.8 3 2.7 2.2 2.5 1.5 2.3 1 1.7z" fill="#ffffc2"/><path d="m603.3 292.5 2.7-.7 3-.5 3.5-.3h3.5l3.5.3 3.5.5 3.5.7 3.3 1.3 3.2 1.7 2.8 2 1 1.3 1.2 1.2 1 1.5.8 1.5.7 1.8.5 1.7.5 2v6.8l-.5 2.5-.5 2.5-6 4.7-3 2-3 1.8-3 1.2-3.5.8-3.7.2-4.5-.5-3.5-.7-3.5-1-3-1.5-3.3-1.8-2.7-1.7-3-2-5.5-4 1.5-4.8 1.5-4.5 1.7-4.2 1.8-3.5 1.7-3 1.8-2.5 2-1.8 1-.7zm111 112 .5 4.8-4.5 4-2 1.5-1.8 1-2.2.7-2.5.3h-3.3l-4-.5-2.2-.5-2.8-.8-6-2.2-5.7-2.8-4.3-2.2-.5-.3 3.8-14.7 2-7.8 1.7-7.7 2.8.2 1.2-.2 3-.3h1.8l2.5.3 2.2.2 2.8.8 2.5 1.2 2.7 1.8 2.5 2 2.5 2.7 2.3 3.5 1 2 1 2.3.7 2.2 1 2.8.5 2.7zm23.5 46.3h-.3l-.7 2.2-1 1.5-1.3 1.3-1.5.7-1.7.5-1.8.3-1.7-.3-1.8-.5-2-.5-2-1-4-2-3.5-2.2-3.2-2.5-2.3-.8 2.5-8 1-4.2 1-4.3h.8l1.5-.5 1.5-.7 2.2-.5 2.5-.3 2.5.3 1.3.2 1.5.5 1.2.5 1.3.8 1.5 1.5 1.2 1.5 1 1.7.8 2 .7 2.3 1.5 5.7zm-568.5-42.5h-.5l-4.5 2.5-5.8 2.5-5.7 2.5-2.8.7-2.2.5-4 .5h-3.3l-2.5-.5-2.2-.5-1.8-1.2-2-1.3-4.5-4 .5-4.7.8-3 .5-3 .7-2.5 1-2.5 1-2.3 1-2 2.3-3.2 2.5-2.8 2.5-2.2 2.7-1.8 2.5-1 2.8-.7 2.2-.5 2.3-.3h2l3 .3 1 .2 3.5 2.3 1.7 7.2 1.8 7zm-53.3 21.7 2.3-.2h2.2l2 .2 1.8.3 2.7 1 1 .5.8-.3 1 4.3 1 4.2 2.5 8.3-2.3.7-3.2 2.3-3.8 2.5-3.7 2-2 .7-2 .8-1.8.2-2 .3-1.7-.3-1.5-.2-1.5-1-1.3-1-1-1.8-.7-2h-.3l1-5 1.5-5.5 1-2.5.8-2 1-1.7 1.2-1.5 1.3-1 1.2-1 1.3-.8zm89.5-72-5.2 3.8-2.5 1.7-2.8 1.5-3 1.5-2.7 1.3-3.3 1-3 .5-4.5.5h-3.5l-3-.3-2.5-.7-2.5-1.3-2.2-1.5-5.5-4.5-.5-3.7v-5.3l.2-2.2.5-2 .5-2 .8-2 .7-1.5 1-1.5 1-1.5 1-1.3 2.3-2 2.7-1.7 2.8-1 2.7-1 3-.5 2.8-.3h2.5l2.5.3 2 .2 1.5.3 1 .2 1.2.8 1.3.7 2.2 2 2 2.5 2 3.3 1.8 3.2 1.7 4 1.5 4zm47.5-39.7-5.5 4-3 2-3 2-3 1.5-3.2 1.5-3.3 1.2-3.5.5-4.5.5-3.7-.2-3.5-.8-3.3-1.2-2.7-1.5-3-2-6-4.8-.5-2.7-.5-2.5-.3-2.3v-2.2l.3-2.3.5-1.7.5-2 .7-1.5.8-1.8 1-1.2 1-1.5 1.2-1 2.8-2.3 3.2-1.5 3.3-1.2 3.5-1 3.5-.5 3.5-.3h3.5l3.5.3 3 .5 2.7.7 1 .5 1 .5 1.8 1.8 2 2.5 1.7 3 1.8 3.7 1.7 4 1.5 4.5z" fill="#ffeec8"/><path d="m256 300 2.5 16-3 .5-2.5 1.8-1.5-4.8-1.5-4.5-1.7-4-1.8-3.7-1.7-3-2-2.5-1.8-1.8-1-.5-1-.5-2.7-.7-3-.5-3.5-.3h-3.5l-3.5.3-3.5.5-3.5 1-3.3 1.2-3.2 1.5-2.8 2.3-1.2 1-1 1.5-1 1.2-.8 1.8-.7 1.5-.5 2-.5 1.7-.3 2.3v2.2l.3 2.3.5 2.5.5 2.7.7 2.8 4.5 14.7 4.5 15.8-1.5.5-4.5 3.2-1.5-4.5-1.5-4-1.7-4-1.8-3.2-2-3.3-2-2.5-2.2-2-1.3-.7-1.2-.8-1-.2-1.5-.3-2-.2-2.5-.3h-2.5l-2.8.3-3 .5-2.7 1-2.8 1-2.7 1.7-2.3 2-1 1.3-1 1.5-1 1.5-.7 1.5-.8 2-.5 2-.5 2-.2 2.2v5.3l.5 3.7.5 4.8.7 4.7 1.8 9.3-3.5-2.3-1-.2-3-.3h-2l-2.3.3-2.2.5-2.8.7-2.5 1-2.7 1.8-2.5 2.2-2.5 2.8-2.3 3.2-1 2-1 2.3-1 2.5-.7 2.5-.5 3-.8 3-.5 4.7-.2 5.5v5.5l.5 5.5 1 5-.8.3-1-.5-2.7-1-1.8-.3-2-.2h-2.2l-2.3.2v-259.5l.8-1.5 1-1.7 1.7-2.3 2-2.5 3-2.7 3.8-2.8 2.2-1.2 2.5-1.3 2.8-1.2 3-1.3 3.2-1 3.5-1 3.8-.7 4-.5 4.5-.5 4.7-.3 5.3-.2 5.2.2 6 .5 6 .5 6.8 1 6.7 1.3 7.5 1.5 7.8 1.7 6.5 1.8 5.7 2 5.5 2 5 2 4.8 2.2 4 2.5 4 2.3 3.5 2.5 3 2.7 2.7 2.8 2.5 2.7 2.3 3 2 3 1.7 3 1.5 3 1.3 3.3 1.2 3.2 1 3.3 1.8 6.5 1.2 7 1.3 6.7 1 7 1.5 7.3 1.5 7 1 3.5 1.2 3.5v.5l-3 1-3.2 1.2-3 1.3-2.8 1.5-2.7 1.5-2.5 2-2.3 1.7-2 2.3-2 2.2-1.7 2.3-1.3 2.5-1 2.5-.7 2.7-.5 3-.3 3 .3 3z" fill="#ffffc2"/><path d="m341.8 283.8-1 .2.2 2.8v3l-.5 2.7-.5 3-1 2.8-1.2 3-1.8 2.7-2 2.8-2.5 2.5-3 2.5-3.5 2.2-4 2.3-4.7 2-5.3 1.7-5.7 1.5-6.5 1.3-4.5.5-4.3.2h-4.2l-3.8-.5-3.5-.7-3.2-.8-3-1.2-2.8-1.5-2.5-1.8-2.2-1.7-2-2.3-1.8-2.2-1.7-2.5-1.3-2.5-1.2-2.8-.8-3-2.2-15.5-.3-3 .3-3 .5-3 .7-2.7 1-2.5 1.3-2.5 1.7-2.3 2-2.2 2-2.3 2.3-1.7 2.5-2 2.7-1.5 2.8-1.5 3-1.3 3.2-1.2 3-1 4.3-.8 4-.7 4.2-.3h4.3l4.2.3 4.3.5 4.2 1 4 1.5 3.8 1.7 3.7 2 3.3 2.5 3.2 2.8 3 3.2 2.5 3.8 2.3 4.2 1.7 4.5zm310.2 48.7 1-.2 1.5-.5 2-.3h5l2.8.3 2.7.5 3 .7 2.8 1.3 2.5 1.7 2.5 2 1 1.3 1 1.2 1 1.5.7 1.8.8 1.7.5 2 .2 2.3.3 2.2.2 2.5-.2 2.8-.3 3.7-5.5 4.3-2.2 1.7-2.5 1-2.5.8-3 .5h-3.5l-4.5-.5-3.3-.8-3-1-3-1-2.7-1.5-2.8-1.7-2.5-1.8-5.2-3.7 1.5-4.3 1.5-4.2 1.7-3.8 1.8-3.5 2-3 2-2.5 2.2-2 1.3-.7z" fill="#ffeec8"/><g fill="none" stroke="#231f20" stroke-linecap="round" stroke-miterlimit="10"><path d="m425 155.3 11.5.2 11.3 1 10.7 1.5 10.5 1.8 9.8 2.5 9.2 2.7 8.8 3.3 4.2 1.7 3.8 2 3.7 2 3.5 2 3.5 2 3 2.3 3 2.2 2.8 2.3 2.5 2.5 2.2 2.5 2 2.5 1.8 2.5 1.5 2.7 1.2 2.5 1 2.8.8 3 .5 2.7v5.8l-.5 2.7-.8 2.8-1 2.7-1.2 2.8-1.5 2.5-1.8 2.7-2 2.5-2.2 2.5-2.5 2.3-2.8 2.5-3 2.2-3 2-3.5 2.3-3.5 2-3.7 2-3.8 1.7-4.2 1.8-8.5 3.2-9.5 2.8-9.8 2.5-10.5 2-10.7 1.5-11.3.7-11.5.5h-2.5l-11.7-.2-11.3-1-11.2-1.3-10.5-2-10-2.2-9.5-2.8-4.5-1.7-4.5-1.5-4-1.8-4-2-4-2-3.5-2-3.5-2-3.3-2.2-3-2.3-2.7-2.5-2.5-2.2-2.3-2.5-2.2-2.5-1.8-2.8-1.5-2.7-1.2-2.5-1-3-.8-2.8-.5-2.7v-5.8l.5-3 .8-2.7 1-2.8 1.2-2.7 1.5-2.8 1.8-2.5 2.2-2.5 2.3-2.5 2.5-2.5 2.7-2.2 3-2.3 3.3-2.2 3.5-2.3 3.5-2 4-2 4-1.7 4-1.8 4.5-1.7 4.5-1.5 9.5-2.8 10-2.5 10.5-1.7 11.2-1.5 11.3-.8 11.7-.5z" stroke-width="21"/><path d="m171.8 707.3-2.8-.3-1.5-.7-1-.5-.5-.3-1-.2-4.2-1-3.8-1-3.7-1-3.8-1.5-3.5-1.5-3.5-1.5-3.2-1.8-3.3-2-3.2-2-3-2-2.8-2.2-2.7-2.3-5.3-5-4.7-5.2-4.3-5.5-4-5.8-3.5-6-3.2-6-2.8-6-2.2-6-2-6.2-1.8-5.8-1.2-5.7-1-6-1-6.3-1-6.2-1-12.8-.8-12-.5-10.5-.2-8.5v-7.5l-1.3-23.2-1-25-.7-26-.5-27.3-.5-27.7-.3-28.3v-28.5l.3-28 .5-27.7.5-26.8.7-25.7.8-24.3 1.2-22.7 1.3-20.5 1.2-18.3 1.8-15.7.5-3.5.5-3.3.7-3.2 1-3.3 2-6 2.8-5.5 2.7-5 3.5-4.7 3.8-4.5 3.7-3.8 4.3-3.7 4.5-3.3 4.7-3 4.8-2.5 5-2.2 5-2.3 5-1.7 5-1.5 5-1.5 5-1 5-1 4.7-.8 8.8-1.2 8-.5 6.7-.3h9.5l225-1h1" stroke-width="21"/><path d="m423.8 86.5h1.2l224.8 1h9.5l6.7.3 8 .5 9 1.2 4.8.8 4.7 1 5 1 5 1.5 5 1.5 5.3 1.7 5 2.3 4.7 2.2 5 2.5 4.5 3 4.5 3.3 4.3 3.7 4 3.8 3.7 4.5 3.3 4.7 3 5 2.5 5.5 2 6 1 3.3.7 3.2.8 3.3.5 3.5 1.5 15.7 1.5 18.3 1.2 20.5 1 22.7 1 24.3.8 25.7.5 26.8.2 27.7.3 28v28.5l-.3 28.3-.2 27.7-.8 27.3-.7 26-1 25-1.3 23.2v16l-.5 10.5-.7 12-1.3 12.8-.7 6.2-1 6.3-1.3 6-1.2 5.7-1.5 5.8-2 6.2-2.5 6-2.8 6-3 6-3.7 6-3.8 5.8-4.5 5.5-4.7 5.2-5.3 5-2.7 2.3-2.8 2.2-3 2-3 2-3.2 2-3.5 1.8-3.3 1.5-3.7 1.5-3.5 1.5-3.8 1-4 1-4 1-8.2 1-11 1h-1.3" stroke-width="21"/><path d="m344.8 300.5 2.7 1 6.8 1.8 6.5 1.5 6.5 1.5 6.5 1.2 12.5 2 11.2 1.5 10 1 7.8.5 8.7.5h.3m-308.3 117.5v-260l.8-1.5 1-1.7 1.7-2.3 2-2.5 3-2.7 3.8-2.8 2.2-1.2 2.5-1.3 2.8-1.2 3-1.3 3.2-1 3.5-1 3.8-.7 4-.5 4.5-.5 4.7-.3 5.3-.2 5.2.2 6 .5 6 .5 6.8 1 6.7 1.3 7.5 1.5 7.8 1.7 6.5 1.8 5.7 2 5.5 2 5 2 4.8 2.2 4 2.5 4 2.3 3.5 2.5 3 2.7 2.7 2.8 2.5 2.7 2.3 3 2 3 1.7 3 1.5 3 1.3 3.3 1.2 3.2 1 3.3 1.8 6.5 1.2 7 1.3 6.7 1 7 1.5 7.3 1.5 7 1 3.5 1.2 3.5m284.5 1.2 1.3-3.5 1-3.5 1.7-7.2 1.3-7 1.2-7 1.3-7.3 1.2-6.7 1.5-6.8 1-3.5 1.3-3.2 1.2-3.3 1.5-3 1.8-3 2-3.2 2.2-2.8 2.5-3 2.8-2.7 3.2-2.5 3.3-2.8 4-2.5 4.2-2.2 4.5-2.3 5.3-2.2 5.5-2 6-2 6.5-1.8 7.7-1.7 7.3-1.5 7-1.3 6.5-1 6.2-.5 5.8-.5 5.5-.2 5 .2 4.7.3 4.5.5 4 .5 4 .7 3.5 1 3.3 1 3 1.3 2.5 1.2 2.5 1.3 2.2 1.2 3.8 2.8 3 2.7 2.2 2.5 1.5 2.3 1 1.7.8 1.5v262.3" stroke-width="14"/><path d="m424 313 5.5.3h6.5l8.8-.3 10.2-.7 5.8-.8 6-.7 6.2-1.3 6.8-1.2 6.7-1.5 6.8-2 4.5-1.5m-72.8-148.3v110.3m-81.2-43.3 44.7 38m-9-61.7 31.3 63m93.5-39.3-44.8 38m9-61.7-31.2 63m-17.5 450-2.8-32.5-3.5-38-3.7-41.3-4.3-41.5-4.2-39.5-4.3-34.7-2-14.8-2-12.7-1.7-10.3-1.5-7.7-4.3-15.3-4.7-17-5.5-18-5.8-18.5-11.5-36.5-10.5-31.5-5.7-17.7-2.3-6.8-1.7-4.5-2.3-4.2-2.5-3.8-3-3.2-3.2-2.8-3.3-2.5-3.7-2-3.8-1.7-4-1.5-4.2-1-4.3-.5-4.2-.3h-4.3l-4.2.3-4 .7-4.3.8-3 1-3.2 1.2-3 1.3-2.8 1.5-2.7 1.5-2.5 2-2.3 1.7-2 2.3-2 2.2-1.7 2.3-1.3 2.5-1 2.5-.7 2.7-.5 3-.3 3 .3 3 2.2 15.5 2.5 16 1.5 8 1.5 7.3 1.5 7 1.8 6.5 1.7 5.7 1.8 5.3 2 4.7 2 4 1.2 2.8 1 2.5.8 2.2.2 2.3v2l-.2 1.7-.3 1.5-.5 1.3-.7.7-.8.5-1 .3h-1l-1-.8-1-1-.7-1.5-1-2.2-1-3.8-1.3-5.5-3.2-14.7-4-17.3-2.3-8.7-2.5-8.5-1.5-4.8-1.5-4.5-1.7-4-1.8-3.7-1.7-3-2-2.5-1.8-1.8-1-.5-1-.5-2.7-.7-3-.5-3.5-.3h-3.5l-3.5.3-3.5.5-3.5 1-3.3 1.2-3.2 1.5-2.8 2.3-1.2 1-1 1.5-1 1.2-.8 1.8-.7 1.5-.5 2-.5 1.7-.3 2.3v2.2l.3 2.3.5 2.5.5 2.7.7 2.8 4.5 14.7 4.5 15.8 2.5 10 2.3 9.7 2 9 1.5 7.8.7 6.7.5 4.8-.2 1.7-.3 1.3-.5.5-.2.2-.5-.2-.8-.5-.7-1-.8-1.8-.7-2-1.3-5-1.7-6.5-3.5-15-2-8.2-2.3-7.8-1.5-4.5-1.5-4-1.7-4-1.8-3.2-2-3.3-2-2.5-2.2-2-1.3-.7-1.2-.8-1-.2-1.5-.3-2-.2-2.5-.3h-2.5l-2.8.3-3 .5-2.7 1-2.8 1-2.7 1.7-2.3 2-1 1.3-1 1.5-1 1.5-.7 1.5-.8 2-.5 2-.5 2-.2 2.2v5.3l.5 3.7.5 4.8.7 4.7 1.8 9.3 1.7 7.2 1.8 7 3.5 13.8 2 8 .7 4 .5 3.7.5 3.5v3.3l-.2 3-.3 3m247.8 328.5.2-.8.3-6.7.2-12.3v-16l-.2-8.7-.5-9.5-.5-6m-261-327.3-1-.2-3-.3h-2l-2.3.3-2.2.5-2.8.7-2.5 1-2.7 1.8-2.5 2.2-2.5 2.8-2.3 3.2-1 2-1 2.3-1 2.5-.7 2.5-.5 3-.8 3-.5 4.7-.2 5.5v5.5l.5 5.5 1 5 1 4.3 1 4.2 2.5 8.3 3.5 10.2 1.7 5 1.5 5 1.3 5 1 5 .5 5v5m-14.8-56.7-1-.5-2.7-1-1.8-.3-2-.2h-2.2l-2.3.2-1.2.5-1.3.8-1.2 1-1.3 1-1.2 1.5-1 1.7-.8 2-1 2.5-1.5 5.5-1 5-.7 3.8-.5 3.7-.3 3.8v8l.5 4.5 1.8 11.2.7 4.5.5 4.8.8 10.7 1.7 25.8 1.3 14.7.7 7.5 1 8 1.3 8 1.2 8 1.8 8.3 2 8.2 1.7 6.5 2.5 7 2.8 7.3 3.2 7.5 3.5 7.5 4 8 4 7.7 4.3 8 8.7 15.5 8.8 14.3 7.7 13 7 10.5 8.3 12.5.5 1" stroke-width="14"/><path d="m255.5 298.5.5 1.5.8 3 1.2 2.8 1.3 2.5 1.7 2.5 1.8 2.2 2 2.3 2.2 1.7 2.5 1.8 2.8 1.5 3 1.2 3.2.8 3.5.7 3.8.5h4.2l4.3-.2 4.5-.5 6.5-1.3 5.7-1.5 5.3-1.7 4.7-2 4-2.3 3.5-2.2 3-2.5 2.5-2.5 2-2.8 1.8-2.7 1.2-3 1-2.8.5-3 .5-2.7v-3l-.2-2.8m-140 36.3 1 .7 6 4.8 3 2 2.7 1.5 3.3 1.2 3.5.8 3.7.2 4.5-.5 3.5-.5 3.3-1.2 3.2-1.5 3-1.5 3-2 3-2 5.5-4 2.5-1.8m-97.2 44.3 1 .7 5.5 4.5 2.2 1.5 2.5 1.3 2.5.7 3 .3h3.5l4.5-.5 3-.5 3.3-1 2.7-1.3 3-1.5 2.8-1.5 2.5-1.7 5.2-3.8 4.5-3.2m-84.5 53.7 2 1.5 4.5 4 2 1.3 1.8 1.2 2.2.5 2.5.5h3.3l4-.5 2.2-.5 2.8-.7 5.7-2.5 5.8-2.5 4.5-2.5m-64 43.2.7 2 1 1.8 1.3 1 1.5 1 1.5.2 1.7.3 2-.3 1.8-.2 2-.8 2-.7 3.7-2 3.8-2.5 3.2-2.3m296.8 262.3.5-5.8 5.2-71 3-40.2 3.3-40.8 3.2-38.2 3.3-33.5 1.5-14.5 1.7-12.3 1.5-10 1.5-7.2 4-14.8 4.8-16.2 5-17.5 5.5-17.8 11.2-35.5 10.3-31.2 7.2-21.5 2.3-6.8 1-2.5 1-2.5 1-2.2 1.2-2 2.8-4 3.2-3.3 3.5-3 3.8-2.5 4-2 4.2-1.7 4.3-1 4.5-1 4.5-.3 4.5-.2 4.5.2 4.5.8 4.2 1 4.3 1.2 2.7 1.3 2.8 1 2.5 1.5 2.5 1.5 2.5 1.5 2 2 2 1.7 1.7 2 1.8 2.3 1.2 2.2 1.3 2.3.7 2.5.8 2.5.2 2.5.3 2.7-.3 2.8-2.2 15.7-2.5 15.8-1.5 8-1.5 7.5-1.5 7-1.8 6.5-1.7 5.7-1.8 5.3-2 4.7-2 4-1.2 2.5-1 2.5-.8 2.5-.2 2v3.8l.5 1.5.5 1.2.7 1 .8.5 1 .3 1-.3 1-.5.7-1.2 1-1.5 1-2 1-3.8 1.3-5.5 3.2-14.7 4-17.3 2.3-8.7 2.5-8.5 1.5-4.8 1.5-4.5 1.7-4.2 1.8-3.5 1.7-3 1.8-2.5 2-1.8 1-.7 1-.3 2.7-.7 3-.5 3.5-.3h3.5l3.5.3 3.5.5 3.5.7 3.3 1.3 3.2 1.7 2.8 2 1 1.3 1.2 1.2 1 1.5.8 1.5.7 1.8.5 1.7.5 2v6.8l-.5 2.5-.5 2.5-1 3-4.5 14.7-4.2 15.8-2.5 10-2.3 9.5-2 9-1.5 8-1 6.5-.2 5 .2 1.7.3 1.3.5.5h.7l.8-.5.7-1.3.5-1.5.8-2 1.5-5.2 1.5-6.3 3.7-15.2 2-8 2.3-8 1.5-4.3 1.5-4.2 1.7-3.8 1.8-3.5 2-3 2-2.5 2.2-2 1.3-.7 1.2-.8 1-.2 1.5-.5 2-.3h5l2.8.3 2.7.5 3 .7 2.8 1.3 2.5 1.7 2.5 2 1 1.3 1 1.2 1 1.5.7 1.8.8 1.7.5 2 .2 2.3.3 2.2.2 2.5-.2 2.8-.3 3.7-1 8-1.5 8.3-1.7 7.7-2 7.8-3.8 14.7-2 8.3-.7 3.7-.5 3.8-.5 3.5v6.5l.5 2.7m-247.8 328.8 2-18.3 1.8-19 2-22.2m255.5-327.8 1.2-.2 3-.3h1.8l2.5.3 2.2.2 2.8.8 2.5 1.2 2.7 1.8 2.5 2 2.5 2.7 2.3 3.5 1 2 1 2.3.7 2.2 1 2.8.5 2.7.8 3 .5 4.8.2 5.7v5.5l-.5 5.3-1 5.2-1 4.3-1 4.2-2.5 8-3.5 10.3-1.7 5.2-1.5 4.8-1.3 5-1 5-.5 5-.2 5m30.5-56.5 1.5 1.5 1.2 1.5 1 1.7.8 2 .7 2.3 1.5 5.7 1.3 4.8.7 4 .5 3.7.3 3.5v4l-.3 4-.2 4.8-1.8 11.2-.7 4.3-.5 4.7-.8 11-1.7 25.8-1.3 14.7-.7 7.5-1 7.8-1.3 8-1.5 8.2-1.5 8.3-2 8.2-1.7 6.5-2.5 6.8-2.8 7.2-3.2 7.5-3.8 7.8-3.7 7.7-4 8-4.3 7.8-8.7 15.5-8.5 14.5-8 12.7-7 10.8-5.5 8.5-3.5 5" stroke-width="14"/><path d="m714.3 431 1.5-.5 1.5-.7 2.2-.5 2.5-.3 2.5.3 1.3.2 1.5.5 1.2.5 1.3.8" stroke-width="20.5"/><path d="m504.3 299.8-1-2-.8-2-.5-2-.5-2.3-.2-4v-4.2" stroke-width="14"/><path d="m505 301.5-.7-1.7" stroke-width="20.5"/><path d="m586.5 298-.2 1.5-1 2.8-1 3-1.3 2.5-1.7 2.5-1.8 2.2-2 2-2.2 2-2.5 1.8-2.8 1.5-3 1-3.2 1-3.5.7-4 .3h-4l-4.3-.3-4.5-.5-7.7-1.5-3.5-.7-3.5-1-3-1.3-2.8-1-2.7-1.2-2.3-1.5-2.2-1.3-2.3-1.5-1.7-1.5-1.8-1.5-1.5-1.5-1.2-1.7-2.3-3.3m136.5 18-1 .8-6 4.7-3 2-3 1.8-3 1.2-3.5.8-3.7.2-4.5-.5-3.5-.7-3.5-1-3-1.5-3.3-1.8-2.7-1.7-3-2-5.5-4-2.8-1.8m97.5 44.3-1 .7-5.5 4.3-2.2 1.7-2.5 1-2.5.8-3 .5h-3.5l-4.5-.5-3.3-.8-3-1-3-1-2.7-1.5-2.8-1.7-2.5-1.8-5.2-3.7-4.5-3.3m84.2 53.8-1.7 1.5-4.5 4-2 1.5-1.8 1-2.2.7-2.5.3h-3.3l-4-.5-2.2-.5-2.8-.8-6-2.2-5.7-2.8-4.3-2.2m64 43-.7 2.2-1 1.5-1.3 1.3-1.5.7-1.7.5-1.8.3-1.7-.3-1.8-.5-2-.5-2-1-4-2-3.5-2.2-3.2-2.5" stroke-width="14"/></g></svg>