<svg height="850.394" viewBox="0 0 850.394 850.394" width="850.394" xmlns="http://www.w3.org/2000/svg"><path d="m368 368.249h113.386v113.386h-113.386z" fill="none"/><path d="m633.63 246.64c54.601 45.84 114.01 136.35 44.61 205.37-75.57 75.16-181.2-5.17-197.8-91.57-22.82-118.73 19.56-213.82 105.76-300.12l8.62 4.35c-30.15 99.09-12.27 139.12 38.81 181.97zm-329.67 302.27c54.62 45.8 114.03 136.31 44.59 205.37-75.56 75.229-181.16-5.21-197.78-91.61-22.82-118.73 19.59-213.82 105.79-300.07l8.63 4.3c-30.22 99.14-12.28 139.12 38.77 182.01z" fill="#a8d7f4"/><g fill="none"><path d="m586.2 60.32c-86.2 86.3-128.58 181.39-105.76 300.12 16.6 86.4 122.229 166.73 197.8 91.57 69.399-69.02 9.99-159.53-44.61-205.37-51.08-42.85-68.96-82.88-38.81-181.97zm-329.64 302.28c-86.2 86.25-128.61 181.34-105.79 300.07 16.62 86.4 122.22 166.84 197.78 91.61 69.44-69.061 10.03-159.57-44.59-205.37-51.05-42.891-68.99-82.87-38.77-182.01z" stroke="#231f20" stroke-width="28"/><path d="m0 0h850.394v850.394h-850.394z"/></g></svg>