<svg height="850.394" viewBox="0 0 850.394 850.394" width="850.394" xmlns="http://www.w3.org/2000/svg"><path d="m413.302 476.292v49.057m-102.533-340.941c0-65.021 49.427-117.73 110.38-117.73 60.955 0 110.367 52.709 110.367 117.73 0 48.677-27.689 90.455-67.198 108.38 0 0-51.016 19.145-51.016 62.083v79.722" fill="none" stroke="#231f20" stroke-width="35"/><path d="m345.476 622.586h152.852v152.845h-152.852z" fill="none"/><g fill="#5668af"><circle cx="345.476" cy="744.861" r="14.292"/><circle cx="345.476" cy="714.292" r="14.292"/><circle cx="345.476" cy="683.724" r="14.292"/><circle cx="345.476" cy="653.154" r="14.292"/><circle cx="376.047" cy="622.586" r="14.292"/><circle cx="406.617" cy="622.586" r="14.292"/><circle cx="437.188" cy="622.586" r="14.292"/><circle cx="467.759" cy="622.586" r="14.292"/><circle cx="498.328" cy="653.155" r="14.292"/><circle cx="498.328" cy="683.725" r="14.292"/><circle cx="498.328" cy="714.293" r="14.292"/><circle cx="498.328" cy="744.862" r="14.292"/><circle cx="467.758" cy="775.431" r="14.292"/><circle cx="437.187" cy="775.431" r="14.292"/><circle cx="406.616" cy="775.431" r="14.292"/><circle cx="376.046" cy="775.431" r="14.292"/><circle cx="345.477" cy="622.586" r="14.292"/><circle cx="498.328" cy="622.586" r="14.292"/><circle cx="498.328" cy="775.431" r="14.292"/><circle cx="345.476" cy="775.43" r="14.292"/></g><path d="m0 0h850.394v850.394h-850.394z" fill="none"/></svg>