<svg height="850.394" viewBox="0 0 850.394 850.394" width="850.394" xmlns="http://www.w3.org/2000/svg"><g stroke="#231f20" stroke-width="28"><path d="m422.011 387.104v35.347m-73.878-245.658c0-46.849 35.613-84.827 79.534-84.827 43.922 0 79.521 37.979 79.521 84.827 0 35.081-19.951 65.17-48.412 78.093 0 0-36.765 13.792-36.765 44.732v57.434" fill="none"/><path d="m423.475 467.779v289.742" fill="#fff"/><path d="m508.214 662.786-85.054 96.571-85.025-96.72" fill="none"/><g><path d="m563.604 421.178 199.374 210.233" fill="#fff"/><path d="m759.278 504.36 4.739 128.602-128.252-11.676" fill="none"/></g><g><path d="m284.868 421.097-199.375 210.229" fill="#fff"/><path d="m89.193 504.282-4.738 128.602 128.252-11.683" fill="none"/></g></g><path d="m0 0h850.394v850.394h-850.394z" fill="none"/></svg>