<svg height="850.394" viewBox="0 0 850.394 850.394" width="850.394" xmlns="http://www.w3.org/2000/svg"><path d="m418.81 585.895v46.707m-97.622-324.608c0-61.903 47.059-112.094 105.093-112.094s105.079 50.191 105.079 112.094c0 46.349-26.362 86.122-63.979 103.188 0 0-48.571 18.228-48.571 59.109v75.903" fill="none" stroke="#231f20" stroke-width="35"/><path d="m616.468 364.216h145.529v145.523h-145.529z" fill="none"/><g fill="#5668af"><circle cx="616.468" cy="480.635" r="14.292"/><circle cx="616.468" cy="451.529" r="14.292"/><circle cx="616.468" cy="422.425" r="14.292"/><circle cx="616.468" cy="393.32" r="14.292"/><circle cx="645.574" cy="364.216" r="14.292"/><circle cx="674.68" cy="364.216" r="14.292"/><circle cx="703.786" cy="364.216" r="14.292"/><circle cx="732.892" cy="364.216" r="14.292"/><circle cx="761.997" cy="393.321" r="14.292"/><circle cx="761.997" cy="422.426" r="14.292"/><circle cx="761.997" cy="451.53" r="14.292"/><circle cx="761.997" cy="480.636" r="14.292"/><circle cx="732.891" cy="509.739" r="14.292"/><circle cx="703.785" cy="509.739" r="14.292"/><circle cx="674.679" cy="509.739" r="14.292"/><circle cx="645.573" cy="509.739" r="14.292"/><circle cx="616.469" cy="364.216" r="14.292"/><circle cx="761.997" cy="364.216" r="14.292"/><circle cx="761.996" cy="509.739" r="14.292"/><circle cx="616.468" cy="509.738" r="14.292"/></g><path d="m87.897 364.216h145.53v145.523h-145.53z" fill="none"/><circle cx="87.897" cy="480.635" fill="#5668af" r="14.292"/><circle cx="87.897" cy="451.529" fill="#5668af" r="14.292"/><circle cx="87.897" cy="422.425" fill="#5668af" r="14.292"/><circle cx="87.897" cy="393.32" fill="#5668af" r="14.292"/><circle cx="117.003" cy="364.216" fill="#5668af" r="14.292"/><circle cx="146.11" cy="364.216" fill="#5668af" r="14.292"/><circle cx="175.216" cy="364.216" fill="#5668af" r="14.292"/><circle cx="204.322" cy="364.216" fill="#5668af" r="14.292"/><circle cx="233.427" cy="393.321" fill="#5668af" r="14.292"/><circle cx="233.427" cy="422.426" fill="#5668af" r="14.292"/><circle cx="233.427" cy="451.53" fill="#5668af" r="14.292"/><circle cx="233.427" cy="480.636" fill="#5668af" r="14.292"/><circle cx="204.321" cy="509.739" fill="#5668af" r="14.292"/><circle cx="175.215" cy="509.739" fill="#5668af" r="14.292"/><circle cx="146.109" cy="509.739" fill="#5668af" r="14.292"/><circle cx="117.002" cy="509.739" fill="#5668af" r="14.292"/><circle cx="87.898" cy="364.216" fill="#5668af" r="14.292"/><circle cx="233.427" cy="364.216" fill="#5668af" r="14.292"/><circle cx="233.427" cy="509.739" fill="#5668af" r="14.292"/><circle cx="87.897" cy="509.738" fill="#5668af" r="14.292"/><path d="m0 0h850.394v850.394h-850.394z" fill="none"/></svg>