<svg height="850.394" viewBox="0 0 850.394 850.394" width="850.394" xmlns="http://www.w3.org/2000/svg"><g fill="none"><path d="m272.995 707.514v61.781m-129.106-429.302c0-81.874 62.239-148.244 138.99-148.244 76.752 0 138.968 66.37 138.968 148.244 0 61.288-34.864 113.9-84.612 136.462 0 0-64.24 24.11-64.24 78.167v100.397" stroke="#231f20" stroke-width="35"/><path d="m590.571 467.986v47.099m-98.429-327.305c0-62.419 47.453-113.02 105.97-113.02s105.954 50.601 105.954 113.02c0 46.73-26.578 86.842-64.509 104.042 0 0-48.985 18.382-48.985 59.596v76.545" stroke="#231f20" stroke-width="37.738"/><path d="m0 0h850.394v850.394h-850.394z"/></g></svg>