<svg height="850" viewBox="0 0 850 850" width="850" xmlns="http://www.w3.org/2000/svg"><path d="m581 368.3 2.3-1.2 1.7-.8 1.8-.2h1.7l3 1 3 1.5 2.8 1.5 2.7 2 2.3 2.2 2.2 2.3 2 2.7 2 2.8 1.8 3 1.5 3.2 1.5 3.3 1.2 3.5 1 3.5 1 3.5 1.8 7.5v5.7l-.3 5.8-.2 3.2-.5 3.3-.8 3-1 3-1.2 2.5-.8 1-1 1-.7 1-1.3.5-1 .5-1.2.5h-3l-1.8-.5-1.7-.5-1.3-.5h-1.2l-1.3.2-1.2.3-1.5.7-1.3 1-1.2 1-1.3 1.5-2.5 3.3-2.2 4-2 4.7-2 5-1.8 5.8-1.2 6-1 6-.8 6.5-.5 6.2v6.5l.5 6.3 1 6 1.5 5.7 1.3 4.8 1.2 4.5 1.5 4 3 6.7 2.8 6.3 2.7 6 1.3 3.2 1.5 3.5 1 3.8 1.2 4.2 1 4.8 1 5.2.8 5.8.2 5.7-.2 6-.5 6-1 6.3-1.3 6-1.2 6.2-1.8 6.3-3.7 12.2-4 12.3-8 22.2-2 5.5-2 5.3-4.8 10.5-4.5 10.2-2 5.3-1.7 5.2-1.5 5.3-1 5.2-.5 5.3v5.2l.2 2.8.3 2.7.5 2.8.7 2.7 1 2.8 1.3 2.7 1.2 3 1.5 2.8.5 1 1.8 2.2 1.5 1.8 2 2.2 2.7 2.3 3.3 2.7-163.8 15-26.2-183-19-131.2-10.5-70.8v-2.5l.2-4.7.5-12.3 1.3-16.7 7.2-132.5 5-93.5 2-32.5.8-14.8.5-2.2.5-2.3.7-2 1-2 1.3-1.5 1.2-1.5 1.5-1.2 1.5-1 1.8-1 1.7-.8 2-.5 2-.2h4l2 .2 2.3.3 2 .5 2.2.7 2 1 2 1 2 1.3 2 1.2 1.8 1.5 1.7 1.8 1.5 2 1.5 2 1.5 2 1 2.2 1.3 2.5.7 2.8.5 2.7.5 2.8 1.5 259 .8 2 15.2-17.8 8-9 8-8.7 7.5-8 7.3-7.3 6.5-6 5.7-4.7 3.8-3 3.7-2 3.3-1.5 1.2-.5 1.5-.5h3.3l1.7.2 1.8.5 3.5 1.3 3.5 1.7 3.5 2.3 3.2 2.7 3.3 3.3 3 3.2 2.7 3.8 2.3 3.7 2 4 1.5 3.8.7 4v5.5l-.5 1.7-.5 1.8-.7 1.7 3.5-3.2 3.5-3 3-2.8 3-2 2.5-1.5 2.5-1.2 2-.5h1l.7.2 4.8 1.5 4.2 2 3.8 2.5 3.2 2.5 3 3 2.5 3 2 3.5 1.8 3.3 1.2 3.5 1 3.5.8 3.5.2 3.2.3 3.3-.3 3.2-.2 2.8z" fill="#ffeec8"/><g fill="none" stroke="#231f20" stroke-linecap="round" stroke-miterlimit="10" stroke-width="21"><path d="m484 297.6 3.8-3 3.7-2 3.3-1.5 1.2-.5 1.5-.5h3.3l1.7.2 1.8.5 3.5 1.3 3.5 1.7 3.5 2.3 3.2 2.7 3.3 3.3 3 3.2 2.7 3.8 2.3 3.7 2 4 1.5 3.8.7 4v5.5l-.5 1.7-.5 1.8-.7 1.7m-47.8-37.7-5.7 4.7-6.5 6-7.3 7.3-7.5 8-8 8.7-8 9-15.2 17.8-14.5 17.5-10 12.2"/><path d="m414 780.3-26.2-183-19-131.2-10.5-70.8v-2.5l.2-4.7.5-12.3 1.3-16.7 7.2-132.5 5-93.5 2-32.5.8-14.8.5-2.2.5-2.3.7-2 1-2 1.3-1.5 1.2-1.5 1.5-1.2 1.5-1 1.8-1 1.7-.8 2-.5 2-.2h4l2 .2 2.3.3 2 .5 2.2.7 2 1 2 1 2 1.3 2 1.2 1.8 1.5 1.7 1.8 1.5 2 1.5 2 1.5 2 1 2.2 1.3 2.5.7 2.8.5 2.7.5 2.8 1.5 259m34.5 69 7.3-10 8-11 10-13.5 11.5-15 12-15 6.2-7.3 6-6.7 5.8-6.5 5.5-5.8 3.5-3.2 3.5-3 3-2.8 3-2 2.5-1.5 2.5-1.2 2-.5h1l.7.2 4.8 1.5 4.2 2 3.8 2.5 3.2 2.5 3 3 2.5 3 2 3.5 1.8 3.3 1.2 3.5 1 3.5.8 3.5.2 3.2.3 3.3-.3 3.2-.2 2.8-.8 2.7m-62.5 92.3 6.8-12.5 7.5-12.8 9-15.5 5-8 5-7.7 5.2-7.8 5.3-7.5 5-6.5 5-5.7 4.5-4.8 2.2-2 2-1.5 2.3-1.2 1.7-.8 1.8-.2h1.7l3 1 3 1.5 2.8 1.5 2.7 2 2.3 2.2 2.2 2.3 2 2.7 2 2.8 1.8 3 1.5 3.2 1.5 3.3 1.2 3.5 1 3.5 1 3.5 1.8 7.5v5.7l-.3 5.8-.2 3.2-.5 3.3-.8 3-1 3-1.2 2.5-.8 1-1 1-.7 1-1.3.5-1 .5-1.2.5h-3l-1.8-.5-1.7-.5-1.3-.5h-1.2l-1.3.2-1.2.3-1.5.7-1.3 1-1.2 1-1.3 1.5-2.5 3.3-2.2 4-2 4.7-2 5-1.8 5.8-1.2 6-1 6-.8 6.5-.5 6.2v6.5l.5 6.3 1 6 1.5 5.7 1.3 4.8 1.2 4.5 1.5 4 3 6.7 2.8 6.3 2.7 6 1.3 3.2 1.5 3.5 1 3.8 1.2 4.2 1 4.8 1 5.2.8 5.8.2 5.7-.2 6-.5 6-1 6.3-1.3 6-1.2 6.2-1.8 6.3-3.7 12.2-4 12.3-8 22.2-2 5.5-2 5.3-4.8 10.5-4.5 10.2-2 5.3-1.7 5.2-1.5 5.3-1 5.2-.5 5.3v5.2l.2 2.8.3 2.7.5 2.8.7 2.7 1 2.8 1.3 2.7 1.2 3 1.5 2.8.5 1 1.8 2.2 1.5 1.8 2 2.2 2.7 2.3 3.3 2.7m-306.5-595.5-.8-2-.7-2.2-.8-3.3-.7-3.7-.5-4.3-.3-4.7.3-4.8.5-2.5.5-2.7.7-2.5 1-2.5 1.3-2.5 1.2-2.5 1.8-2.5 1.7-2.3 2.3-2.5 2.5-2 3-2.2 3-2 3.5-1.8 4-1.7 4.2-1.5 4.8-1.3m-70.5 40.5-.8-2-.7-2.5-.8-3-.7-3.7-.5-4.3-.3-4.7.5-5 .3-2.5.5-2.5.7-2.5 1-2.5 1.3-2.8 1.2-2.2 1.8-2.5 2-2.5 2-2.3 2.7-2.2 2.8-2 3.2-2 3.5-1.8 3.8-1.7 4.2-1.5 4.8-1.3m258 61.3.7-2 .5-2.5 1-3.3.5-3.7.5-4.3.3-4.5-.3-5-.5-2.5-.5-2.5-.7-2.5-1-2.7-1-2.5-1.5-2.5-1.5-2.5-2-2.3-2.3-2.2-2.5-2.3-2.7-2-3.3-2-3.5-2-4-1.5-4.2-1.5-4.8-1.5m70.5 40.5.8-2 .7-2.2 1-3.3.5-3.7.5-4.3.3-4.7-.3-4.8-.5-2.5-.5-2.7-.7-2.5-1-2.5-1-2.5-1.5-2.5-1.8-2.5-1.7-2.5-2.3-2.3-2.5-2.2-3-2-3-2-3.5-1.8-4-1.7-4.2-1.5-4.8-1.3"/></g></svg>