<svg height="850.394" viewBox="0 0 850.394 850.394" width="850.394" xmlns="http://www.w3.org/2000/svg"><path d="m752.4 512.89-10.25 100.36-367.95 78.2-.57-2.66 12.55-108.59 1.11-5.34.37.08 357.13-60.75v-.01z" fill="#7a7878"/><path d="m744.79 514.19-357.13 60.75-.37-.08-5.92-1.23 49.99-424.14 1.25-4.5 337.87 93.53-25.9 274.46.21 1.2z" fill="#c8c8c8"/><path d="m129.88 438.16c9.02 0 16.33 7.31 16.33 16.32s-7.31 16.319-16.33 16.319c-9.01 0-16.32-7.31-16.32-16.319 0-9.01 7.31-16.32 16.32-16.32z" fill="#7a7878"/><path d="m181.01 322.97v373.37c0 3.58-2.9 6.48-6.48 6.48h-88.49c-3.57 0-6.47-2.9-6.47-6.48v-373.37c0-3.58 2.9-6.48 6.47-6.48h88.49c3.58 0 6.48 2.9 6.48 6.48zm-34.8 131.51c0-9.011-7.31-16.32-16.33-16.32-9.01 0-16.32 7.31-16.32 16.32s7.31 16.319 16.32 16.319c9.02.001 16.33-7.309 16.33-16.319zm-8.91 133.41c0-4.17-3.38-7.55-7.55-7.55s-7.56 3.38-7.56 7.55c0 4.181 3.39 7.551 7.56 7.551s7.55-3.371 7.55-7.551zm0 37.5c0-4.18-3.38-7.56-7.55-7.56s-7.56 3.38-7.56 7.56c0 4.17 3.39 7.551 7.56 7.551s7.55-3.381 7.55-7.551z" fill="#c8c8c8"/><path d="m367.43 257.95-24.28 186.95h-14.17l-2.57-.33 23.99-186.48 2.05.26zm13.94 315.68 5.92 1.23-1.11 5.34-12.55 108.59.57 2.66-2.73.58-85.25-19.43 15.65-115.47 9.8 2.03z" fill="#7a7878"/><path d="m431.36 144.64 1.25.35-1.25 4.5-49.99 424.14-69.7-14.47 14.74-114.59 2.57.33h14.17l24.28-186.95-14.98.4-2.05-.26 14.6-113.45z" fill="#c8c8c8"/><g fill="none"><g stroke="#231f20"><g stroke-width="14"><path d="m744.58 512.98 25.9-274.46-337.87-93.53-1.25-.35h-66.36l-14.6 113.45-23.99 186.48-14.74 114.59-.09.67"/><path d="m431.36 149.49-49.99 424.14-.19 1.58"/><path d="m374.2 691.45-2.73.58-85.25-19.43 15.65-115.47 9.8 2.03 69.7 14.47 5.92 1.23.37.08 357.13-60.75v-.01l7.61-1.29-10.25 100.36zm11.98-111.25-12.55 108.59"/><path d="m407.08 178.63-40.87 349.23" stroke-linecap="round" stroke-linejoin="round"/><path d="m352.45 258.35 14.98-.4-24.28 186.95h-14.17m-147.97 251.44c0 3.58-2.9 6.48-6.48 6.48h-88.49c-3.57 0-6.47-2.9-6.47-6.48v-373.37c0-3.58 2.9-6.48 6.47-6.48h88.49c3.58 0 6.48 2.9 6.48 6.48z"/></g><path d="m129.75 362.89v52.34m-24.82-25.36h49.64" stroke-width="19.424"/><path d="m146.21 454.48c0 9.01-7.31 16.319-16.33 16.319-9.01 0-16.32-7.31-16.32-16.319 0-9.011 7.31-16.32 16.32-16.32 9.02 0 16.33 7.31 16.33 16.32zm-8.91 133.41c0 4.181-3.38 7.551-7.55 7.551s-7.56-3.37-7.56-7.551c0-4.17 3.39-7.55 7.56-7.55s7.55 3.38 7.55 7.55zm0 37.5c0 4.17-3.38 7.551-7.55 7.551s-7.56-3.381-7.56-7.551c0-4.18 3.39-7.56 7.56-7.56s7.55 3.38 7.55 7.56z" stroke-width="12.95"/><path d="m105.74 677.73h49.1" stroke-linecap="round" stroke-linejoin="round" stroke-width="14"/></g><path d="m0 0h850.394v850.394h-850.394z"/></g></svg>