<svg height="850.394" viewBox="0 0 850.394 850.394" width="850.394" xmlns="http://www.w3.org/2000/svg"><g fill="#7a7878"><path d="m604 564c109.32 20.47 175.52 57.52 175.52 102.73 0 66.27-159.06 119.989-355.26 119.989-196.2.001-355.26-53.719-355.26-119.989 0-45.39 65-82.34 175-102.73l3.59 1.27-28.5 80.931c0 38.569 92.56 69.85 206.75 69.85 114.18 0 206.74-31.28 206.74-69.85l-28.91-82.08z"/><path d="m603.67 564.12 28.91 82.08c0 38.569-92.561 69.85-206.74 69.85-114.19 0-206.75-31.28-206.75-69.85l28.5-80.931 178.25-506.119z"/></g><g fill="none"><g stroke="#231f20" stroke-width="21"><path d="m604 564c109.32 20.47 175.52 57.52 175.52 102.73 0 66.27-159.06 119.989-355.26 119.989-196.2.001-355.26-53.719-355.26-119.989 0-45.39 65-82.34 175-102.73"/><path d="m603.67 564.12 28.91 82.08c0 38.569-92.561 69.85-206.74 69.85-114.19 0-206.75-31.28-206.75-69.85l28.5-80.931 178.25-506.119z"/></g><path d="m0 0h850.394v850.394h-850.394z"/></g></svg>