<svg height="850.394" viewBox="0 0 850.394 850.394" width="850.394" xmlns="http://www.w3.org/2000/svg"><g fill="#33a02c"><path d="m658.8 513.53-11.29-3.08-15.38-98.82-14.62 164.01-18.65 209.14-12.36-2.72-8.06-197.14-3.63-89-8.54-208.9 98.37 12.94 26.38 359.24-19.57 5.11-21.41-137.6zm-466.32-275.67-14.76 70.87-69.6 334.17-11.92-4.26 39.23-408.28z"/><path d="m197.6 440.25-19.88-131.52 14.76-70.87 39.25 5.16v.01l1.99 192.38-22.76-4.04z"/><path d="m233.72 435.41.71 68.66-28.19-6.63-8.64-57.19 13.36-8.88z"/><path d="m234.43 504.07.5 48.61-19.57 5.11-9.12-60.35z"/></g><path d="m770 263.87 5.67 29.5-18.72 18.73-92.311-12.14-98.37-12.94-334.54-43.99v-.01l-39.25-5.16-57.05-7.5-64.48-8.48v-28.37l36.31-12.48 29.51 3.68v21.85l65.25 10.22 41.42-8.51v-9.74l190.08 22.91v20.3l18.16 3.26v-20.49l196.801 24.18-1.181 20.57 64.25 7.66 20.01-17.86v.01z" fill="#787878"/><path d="m451.68 224.51v20.49l-18.16-3.26v-40.86h18.16zm196.8 24.18 3.5-61.14 2.12-20.85 62.99 3.83v26.39l14.47 62.14-20.01 17.86-64.25-7.66zm-468.98-87.8c-5.72.93-10.1 6.23-10.1 12.62 0 7.05 5.33 12.77 11.91 12.77s11.92-5.72 11.92-12.77-5.34-12.77-11.92-12.77c-.62 0-1.22.05-1.81.15zm63.94 37.64v9.74l-41.42 8.51-65.25-10.22v-21.85-64.39c0-32.91 35.18-35.18 35.18-35.18l69.22 4.53v30.28c-1.09 4.46-1.7 9.38-1.7 14.55 0 8.05 1.47 15.5 3.97 21.57zm277.47-20.91v11.92l-69.23 11.34h-18.16l-54.47-34.04v-6.81z" fill="#33a02c"/><path d="m289.16 110.12c11.59 0 20.99 16.51 20.99 36.88 0 20.38-9.4 36.89-20.99 36.89-7.6 0-14.26-7.09-17.94-17.71 6.13-6.43 10.24-18.21 10.24-31.68 0-7.02-1.12-13.58-3.06-19.17 3.15-3.31 6.83-5.21 10.76-5.21z" fill="#787878"/><path d="m278.4 115.33c1.94 5.59 3.06 12.15 3.06 19.17 0 13.47-4.11 25.25-10.24 31.68-3.15 3.3-6.83 5.2-10.76 5.2-7.01 0-13.21-6.03-17.02-15.31-2.5-6.07-3.97-13.52-3.97-21.57 0-5.17.61-10.09 1.7-14.55 3.21-13.14 10.64-22.33 19.29-22.33 7.6 0 14.26 7.09 17.94 17.71zm-98.9 45.56c.59-.1 1.19-.15 1.81-.15 6.58 0 11.92 5.72 11.92 12.77s-5.34 12.77-11.92 12.77-11.91-5.72-11.91-12.77c0-6.39 4.38-11.69 10.1-12.62z" fill="#787878"/><g fill="none" stroke="#000"><g stroke-width="13.618"><path d="m231.73 243.02-39.25-5.16-57.05-7.5-64.48-8.48v-28.37l36.31-12.48 29.51 3.68m594.79 74.36 38.44 4.8 5.67 29.5-18.72 18.73-92.31-12.14-98.37-12.94-334.54-43.99m219.95-18.52 196.8 24.18 2.31.28m-407.35-50.44 190.08 22.91m-155.12-106.11c1.94 5.59 3.06 12.15 3.06 19.17 0 13.47-4.11 25.25-10.24 31.68-3.15 3.3-6.83 5.2-10.76 5.2-7.01 0-13.21-6.03-17.02-15.31-2.5-6.07-3.97-13.52-3.97-21.57 0-5.17.61-10.09 1.7-14.55 3.21-13.14 10.64-22.33 19.29-22.33 7.6 0 14.26 7.09 17.94 17.71z"/><path d="m278.38 115.35.02-.02c3.15-3.31 6.83-5.21 10.76-5.21 11.59 0 20.99 16.51 20.99 36.88 0 20.38-9.4 36.89-20.99 36.89-7.6 0-14.26-7.09-17.94-17.71m-30.05-44.16v-32.35l-69.22-4.53s-35.18 2.27-35.18 35.18v86.24l65.25 10.22 41.42-8.51v-52.24m208.24 68.48v20.49l-18.16-3.26v-40.86h18.16zm-18.16-23.63-54.47-34.04v-6.81l141.86 17.59v11.92l-69.23 11.34m196.8 47.81-1.18 20.57 64.25 7.66 20.01-17.86-14.47-62.14v-26.39l-62.99-3.83-2.12 20.85zm-513.05-18.33-39.23 408.28 11.92 4.26 69.6-334.17 14.76-70.87m-14.76 70.87 19.88 131.52 8.64 57.19 9.12 60.35 19.57-5.11-.5-48.61-.71-68.66-1.99-192.38v-.01m334.54 44 8.54 208.9 3.63 89 8.06 197.14 12.36 2.72 18.65-209.14 14.62-164.01 9.63-108.04m-9.63 108.04 15.38 98.82 2.53 16.26 21.41 137.6 19.57-5.11-26.38-359.24"/><path d="m193.23 173.51c0 7.05-5.34 12.77-11.92 12.77s-11.91-5.72-11.91-12.77c0-6.39 4.38-11.69 10.1-12.62.59-.1 1.19-.15 1.81-.15 6.58 0 11.92 5.72 11.92 12.77z"/><path d="m179.4 162.66.1-1.77 2.24-39.72m374.35 97.31-102.14-10.21m279.25-27.24c.67-16.76 5.85-29.79 12.13-29.79 6.74 0 12.21 14.98 12.21 33.47 0 11.02-1.94 20.79-4.94 26.89-2.029 4.14-4.55 6.59-7.27 6.59-6.73 0-12.2-14.98-12.2-33.48 0-1.24.02-2.47.07-3.68zm-14.84 0h14.85"/><path d="m751.99 211.54.61.06 24.49 2.62"/></g><path d="m650.84 172.52h-17.59" stroke-width="20.427"/><path d="m146.75 474.05 50.85-33.8 13.36-8.88 22.76 4.04 341.09 60.51m54.57 9.59 18.13 4.94 11.29 3.08-8.76 13.18-32.53 48.93m-471.61-92.38 60.34 14.18 28.19 6.63 344.01 80.85h.01" stroke-width="16"/></g><path d="m0 0h850.394v850.394h-850.394z" fill="none"/></svg>