<svg height="850.394" viewBox="0 0 850.394 850.394" width="850.394" xmlns="http://www.w3.org/2000/svg"><g fill="#a800d4"><path d="m667.45 366.21a266.353 266.353 0 0 1 -15.811 73.84l-.04-.01-60.33 53.54-1.609 1.38-59.88-69.92 134.96-119.8a268.04 268.04 0 0 1 2.71 60.97z"/><path d="m498.6 388.64-26.52-30.96.75-.64 163.28-136.38.029-.01c14 26.16 23.811 54.61 28.601 84.59l-134.96 119.8z"/><path d="m636.14 220.65-.029.01-163.281 136.38-.75.64-30.43-35.53.119-.1 165.391-145.13h.01c11 13.67 20.72 28.3 28.97 43.73z"/><path d="m607.16 176.92-165.39 145.13-.119.1-31.101-36.31.27-.23 163.07-141.89.88-.98a291.115 291.115 0 0 1 32.39 34.18z"/><path d="m574.77 142.74-.88.98-163.07 141.89-.27.23-30.09-35.14 135.5-117.34 47.68-.15h.011c3.789 3.09 7.499 6.27 11.119 9.53z"/></g><path d="m563.65 133.21h-.011c-3.01-2.46-6.09-4.87-9.21-7.22 3.851 2.28 6.991 4.72 9.221 7.22z" fill="#fff"/><path d="m563.64 133.21-47.68.15 18.38-15.91c7.74 2.37 14.63 5.3 20.09 8.54 3.12 2.35 6.2 4.76 9.21 7.22z" fill="#a800d4"/><path d="m534.34 117.45c-21.29-6.52-49.04-8.8-71.31-1.62-4.79 1.55-9.33 3.53-13.49 6-6.32 3.74-12.521 7.93-18.9 11.81l-29.3.1 50-58.55v-.01c38.03 10.68 72.93 28.12 103.09 50.81-5.46-3.24-12.35-6.17-20.09-8.54z" fill="#a800d4"/><path d="m534.34 117.45-18.38 15.91-73.33.24 20.4-17.77c22.27-7.18 50.02-4.9 71.31 1.62z" fill="#a800d4"/><path d="m515.96 133.36-135.5 117.34-30.89-36.06.33-.28 92.73-80.76z" fill="#a800d4"/><path d="m463.03 115.83-20.4 17.77-11.99.04c6.38-3.88 12.58-8.07 18.9-11.81 4.16-2.47 8.7-4.45 13.49-6z" fill="#fff"/><path d="m451.34 75.18v.01c-10.88 4.14-33.32 17.33-41.29 25.29-11.97 11.98-16.08 22.46-18.38 33.29l-30.77.1 1.74-69.54-.01-1.2h.69c30.6 0 60.16 4.21 88.02 12.05z" fill="#a800d4"/><path d="m451.34 75.19-50 58.55-9.67.03c2.3-10.83 6.41-21.31 18.38-33.29 7.97-7.96 30.41-21.15 41.29-25.29z" fill="#a800d4"/><path d="m401.34 133.74 29.3-.1c-8.81 5.37-17.95 10.14-28.169 12.33-3.56.76-8.1 1.52-13.19 2.22l-.04-.29z" fill="#fff"/><path d="m329.06 480.55 89.11 98.13-.7.641-57.91 52.72c-57.51-.65-111.19-16.17-156.83-42.63l.24-.42 125.32-107.74z" fill="#a800d4"/><path d="m401.34 133.74-12.1 14.16c.79-4.87 1.45-9.53 2.43-14.13z" fill="#fff"/><path d="m360.9 133.87 30.77-.1c-.98 4.6-1.64 9.26-2.43 14.13l.04.29c-8.73 1.21-19.06 2.27-28.81 2.96v-.01zm1.73-70.74.01 1.2c-1.54 15.57-2.44 47.37-2.44 69.54l-23.79.08c-5.64-15.17-14.9-28.8-26.26-37.48-15.26-11.66-31.22-15.67-51.63-16.03l-.01-.04c32.47-11.1 67.54-17.19 104.12-17.27z" fill="#a800d4"/><path d="m362.64 64.33-1.74 69.54h-.7c0-22.17.9-53.97 2.44-69.54zm-1.74 69.54-.43 17.27c-.18-4.26-.27-10.29-.27-17.27z" fill="#fff"/><path d="m360.47 151.14v.01c-4.14.29-8.17.52-11.93.66-2.58.1-5.02.16-7.29.17a98.029 98.029 0 0 0 -4.84-18.03l23.79-.08c0 6.98.09 13.01.27 17.27z" fill="#fff"/><path d="m348.54 151.81c3.76-.14 7.79-.37 11.93-.66 9.75-.69 20.08-1.75 28.81-2.96 5.09-.7 9.63-1.46 13.19-2.22 10.22-2.19 19.36-6.96 28.169-12.33l11.99-.04-92.73 80.76-.33.28-68.96-80.51.88-.01c17.65 8.52 34.71 16.99 53.61 17.78 1.83.08 3.9.11 6.15.08 2.271-.01 4.711-.07 7.291-.17z" fill="#a800d4"/><path d="m341.25 151.98c-2.25.03-4.32 0-6.15-.08-18.9-.79-35.96-9.26-53.61-17.78l38.97-.12z" fill="#a800d4"/><path d="m341.25 151.98-20.79-17.98 15.95-.05a98.029 98.029 0 0 1 4.84 18.03z" fill="#a800d4"/><path d="m336.41 133.95-15.95.05-61.94-53.56c20.41.36 36.37 4.37 51.63 16.03 11.36 8.68 20.62 22.31 26.26 37.48zm-70.23 277.34 62.88 69.26-.77.7-125.32 107.74-.24.42c-28.03-16.25-53.03-36.62-74.01-60.22l135.92-116.5z" fill="#a800d4"/><path d="m320.46 134-38.97.12c-.49-.23-.99-.47-1.49-.71-23.73-11.43-48.63-22.57-80.55-14.94-11.33 2.7-23.56 7.78-36.93 16.04l-.45-.55c28.05-23.04 60.67-41.34 96.44-53.56l.01.04z" fill="#a800d4"/><path d="m281.49 134.12-.88.01-.61-.72c.5.24 1 .48 1.49.71z" fill="#fff"/><path d="m280 133.41.61.72-67.92.22-12.99-14.79-.25-1.09c31.92-7.63 56.82 3.51 80.55 14.94zm-13.82 277.88-1.54 1.4-135.92 116.5c-10.5-11.801-19.99-24.4-28.35-37.69l133.32-113.78 1.1-1z" fill="#a800d4"/><path d="m199.7 119.56 12.99 14.79-50.17.16c13.37-8.26 25.6-13.34 36.93-16.04z" fill="#fff"/><path d="m589.66 494.96 1.609-1.38 60.33-53.54.04.01c-41.109 111.72-154.669 192.01-288.319 192.01-1.25 0-2.51-.01-3.76-.02l57.91-52.72.7-.641-89.11-98.13-62.88-69.26-31.39-34.57-1.1 1-133.32 113.781c-26.59-42.22-41.83-91.4-41.83-143.9 0-24.44 3.3-48.15 9.51-70.79 15.42-56.19 48.76-105.68 94.02-142.85l.45.55 50.17-.16 67.92-.22 68.96 80.51 30.89 36.06 30.09 35.14 31.101 36.31 30.43 35.53 26.52 30.96 31.181 36.4z" fill="#a800d4"/><g fill="none" stroke="#000"><path d="m626.03 495.1c48.029 0 76.739-.79 103.27 9.66 56.351 22.19 80.45 73.96 28.8 115.01-60.84 48.381-155.14 36.83-210.96 98.561-36.59 40.46-1.189 88.51 68.48 71.25" stroke-linecap="round" stroke-linejoin="round" stroke-width="34.832"/><g stroke-width="26.124"><path d="m607.17 176.92c11 13.67 20.72 28.3 28.97 43.73 14 26.16 23.811 54.61 28.601 84.59a268.04 268.04 0 0 1 2.71 60.97 266.353 266.353 0 0 1 -15.811 73.84c-41.11 111.72-154.67 192.01-288.32 192.01-1.25 0-2.51-.01-3.76-.02-57.51-.65-111.19-16.17-156.83-42.63-28.03-16.25-53.03-36.62-74.01-60.22-10.5-11.801-19.99-24.4-28.35-37.69-26.59-42.22-41.83-91.4-41.83-143.9 0-24.44 3.3-48.15 9.51-70.79 15.42-56.19 48.76-105.68 94.02-142.85 28.05-23.04 60.67-41.34 96.44-53.56 32.47-11.1 67.54-17.19 104.12-17.27h.69c30.6 0 60.16 4.21 88.02 12.05 38.03 10.68 72.93 28.12 103.09 50.81"/><path d="m563.65 133.21c3.79 3.09 7.5 6.27 11.119 9.53a291.207 291.207 0 0 1 32.391 34.18m-444.64-42.41c13.37-8.26 25.6-13.34 36.93-16.04 31.92-7.63 56.82 3.51 80.55 14.94.5.24 1 .48 1.49.71 17.65 8.52 34.71 16.99 53.61 17.78 1.83.08 3.9.11 6.15.08 2.27-.01 4.71-.07 7.29-.17 3.76-.14 7.79-.37 11.93-.66 9.75-.69 20.08-1.75 28.81-2.96 5.09-.7 9.63-1.46 13.19-2.22 10.22-2.19 19.36-6.96 28.169-12.33 6.38-3.88 12.58-8.07 18.9-11.81 4.16-2.47 8.7-4.45 13.49-6 22.27-7.18 50.02-4.9 71.31 1.62 7.74 2.37 14.63 5.3 20.09 8.54 3.851 2.28 6.99 4.72 9.221 7.22"/><path d="m280 133.41.61.72 68.96 80.51 30.89 36.06 30.09 35.14 31.1 36.31 30.43 35.53 26.52 30.96 31.18 36.4 59.88 69.92 12.64 14.76m-477.61-329.15 374.02 416.42m-264.25-220.63.33.36 31.39 34.57 62.88 69.26 89.11 98.13 32.02 35.26m-354.59-390.49 138.86 152.91m-71.06-228.94 371.33 421.01m-335.03-448.87 12.99 14.79 357.46 406.98m-305.51-128.64-135.92 116.5m445.17-385.47-163.07 141.89m-237.81 24.31-102.8 84.06m70.47-116.39-82.09 67.13m48.99-100.23-39.53 32.32m280.49-125-27.79 22.23m-116.08 170.77-122.49 99.6m381.04-328.74-.19.16-20.4 17.77-92.73 80.76m-116.21 163.36-133.32 113.78"/><path d="m535.81 116.18-1.47 1.27-18.38 15.91-135.5 117.34-.32.28m8.36 296.88-86.08 73.26m115.05-41.8-57.91 52.72m305.19-326.81-.01.01-134.96 119.8-.09.08m137.76-58.91-104.18 92.48m88.33-18.65-60.33 53.54m-294.79-46.65-130.24 112.74m440.93-382.75h-.01l-165.39 145.13m-113.48 159.2-125.32 107.74m433.14-368.33-163.28 136.38m-116.6 156.55-103.34 92.1m392.41-344.15-146.7 127.1-.38.33m-239.7-308.53c20.41.36 36.37 4.37 51.63 16.03 11.36 8.68 20.62 22.31 26.26 37.48a98.029 98.029 0 0 1 4.84 18.03m110.09-76.79c-10.88 4.14-33.32 17.33-41.29 25.29-11.97 11.98-16.08 22.46-18.38 33.29-.98 4.6-1.64 9.26-2.43 14.13m-26.6-83.57c-1.54 15.57-2.44 47.37-2.44 69.54 0 6.98.09 13.01.27 17.27"/></g></g><path d="m0 0h850.394v850.394h-850.394z" fill="none"/></svg>