<svg height="850" viewBox="0 0 850 850" width="850" xmlns="http://www.w3.org/2000/svg"><path d="m589.8 387.5.5 1.5 4.5 11.3 4.2 11.2-63.5 29.3-2.2-5 .2 6 1.5 46.5 1.3 36.7 1 42.8v4.5l-237.3 1.2-.2-2.5.7-23 .8-22.2 1.7-40 1.5-31.3 1.3-19.2.2-4.5-1.7 4-65.3-22.5 6.5-16.5 6.8-16.5 6.5-15.5 6.5-14.8 11.5-25 8-17.2 3.2-6.3 5.3-5 6.2-5 6.8-5 7.7-5 7.8-5.2 8.2-4.8 8.3-5 8-4.5 11-5.7 9.7-5.3 14.5-7.2 4.3-2 .7-2.5 4 2.5 4 2.2 4 1.8 4.3 1.5 4.5 1.2 4.5.8 4.5.7h8.7l4.3-.5 4-.7 4-1 4-1.3 4-1.7 3.7-1.8 3.5-2 5.8 2.8 14.2 7.2 9 4.8 10.3 5.5 8 4.5 8.2 4.7 8.3 5 8 5 7.5 5.3 7 5 6 5 5.5 4.7 3.5 7.5 9.2 19.3 6 13.2 6.5 15 7 16z" fill="#a9d7f3"/><path d="m241.5 572-14 30.5.8 2.5.7 3.5.8 4.3.5 5 .5 5.5.5 5.7.2 6.3.3 6-.3 5.2-.2 5-.5 4.8-.5 4.2-1 4.3-1 3.2-1.5 3-.8 1.3-.7 1-1-.3-.8-.2-.5-.5-.5-.8-.7-2-.5-2-.5-2.2-1-2-.5-.8-1-.7-1-.8-1.3-.2-1 2-1 2.2-2 6-2 6.5-1.2 3.3-1.3 3-30.7-28.3.2-7 .5-7.5 1-7.7 1-8 1.3-8.3 1.7-8.5 2-8 2.3-8.2 5.5-18.8 15.5-55 8.2-30.2 7-26.3 3-11.5 3.8-12.2 4.5-12.8 4.7-13.2 65.3 22.5z" fill="#ffeec8"/><path d="m593.3 571.8-56 .5v-4.5l-1-42.8-1.3-36.7-1.5-46.5 2-1 60.5 129.7zm-348 2-3.8-1.8 62.8-137.2 1.5.5-1.3 19.2-1.5 31.3-1.7 40-.8 22.2-.7 23 .2 2.5z" fill="#c8c8c8"/><path d="m241.5 572 3.8 1.8 54.7-.3 237.3-1.2 56-.5 2.7-1.3 14.5 31.3-.7 2.5-.8 3.5-.5 4.2-.7 5-.5 5.5-.5 5.8-.3 6v11.2l.3 5 .5 4.8.5 4.5 1 4 1 3.5 1.5 3 .7 1 .8 1h1l.7-.5.5-.5.5-.8.8-1.7.5-2 .5-2.3 1-2 .7-1 .8-.7 1-.5 1.2-.5 1 1.7.8 1.8 1.5 4.5 1.7 5.2 1.8 5.3 1.7 4.7 1.3 2.3 1.2 2 1.3 1.7 1.5 1.3 1.5 1 1.7.5h1.8l1.7-.3 1.5-.2 1.8-.8 1.5-.7 1.7-1 3-2.3 2.5-2.7 2.3-2.8 1.7-3 1-3 .8-2.5.5-3.2.2-3.8.3-4.2-.3-9.8-.5-11-1.2-11.7-1-6.3-1-6.2-1.3-6.3-1.5-6.2-1.5-6.3-1.7-6-5.5-18.7 3.5-1 133.2 1.2.8 184.8h-234l-1.8.5-36-155h-181.5l-36.2 156.7-.5-.2h-228l.7-186.8h124.3l2 .5-5.5 18.8-2.3 8.2-2 8-1.7 8.5-1.3 8.3-1 8-1 7.7-.5 7.5-.2 7 .2 6.3.3 5.7.5 4.8.7 3.7 1 2.8 1.8 3 2.2 3 2.8 2.7 2.7 2.3 1.8 1 1.5.7 1.7.5 1.5.5 1.8.3 1.7-.3 1.3-.2 1.5-.5 1-1 1.2-1 1-1.3.8-1.5 1.7-3.2 1.3-3 1.2-3.3 2-6.5 2-6 1-2.2 1-2 1.3.2 1 .8 1 .7.5.8 1 2 .5 2.2.5 2 .7 2 .5.8.5.5.8.2 1 .3.7-1 .8-1.3 1.5-3 1-3.2 1-4.3.5-4.2.5-4.8.2-5 .3-5.2-.3-6-.2-6.3-.5-5.7-.5-5.5-.5-5-.8-4.3-.7-3.5-.8-2.5z" fill="#f6cc4b"/><path d="m615.3 461.3 6.7 26 8.3 30.2 15.5 55.3 5.5 18.7 1.7 6 1.5 6.3 1.5 6.2 1.3 6.3 1 6.2 1 6.3 1.2 11.7.5 11 .3 9.8-.3 4.2-.2 3.8-.5 3.2-.8 2.5-1 3-1.7 3-2.3 2.8-2.5 2.7-3 2.3-1.7 1-1.5.7-1.8.8-1.5.2-1.7.3h-1.8l-1.7-.5-1.5-1-1.5-1.3-1.3-1.7-1.2-2-1.3-2.3-1.7-4.7-1.8-5.3-1.7-5.2-1.5-4.5-.8-1.8-1-1.7-1.2.5-1 .5-.8.7-.7 1-1 2-.5 2.3-.5 2-.8 1.7-.5.8-.5.5-.7.5h-1l-.8-1-.7-1-1.5-3-1-3.5-1-4-.5-4.5-.5-4.8-.3-5v-11.2l.3-6 .5-5.8.5-5.5.7-5 .5-4.2.8-3.5.7-2.5-14.5-31.3-60.5-129.7 63.5-29.3 4.8 13 4.5 13 3.7 12.3z" fill="#ffeec8"/><path d="m533.3 435.8 2.2 5-2 1zm56.5-177.3v129l-7.3-17-7-16-6.5-15-6-13.2-9.2-19.3-3.5-7.5-5.5-4.7-6-5-7-5-7.5-5.3-8-5-8.3-5-8.2-4.7-8-4.5-10.3-5.5-9-4.8-14.2-7.2.2-.5h121.8l1 .2 1 .5 1 .5 1.7 1.5 1.5 2 1.5 2.5 1 2.8.5 3z" fill="#c8c8c8"/><path d="m547.5 758.3 5.3 21.7h-263.8l4.8-20 36.2-156.7h181.5z" fill="#fff"/><path d="m452.5 240-3.5 2-3.7 1.8-4 1.7-4 1.3-4 1-4 .7-4.3.5h-8.7l-4.5-.7-4.5-.8-4.5-1.2-4.3-1.5-4-1.8-4-2.2-4-2.5-4-3-4-3.3-3.7-3.5-3.5-4-3.3-4.2-3.2-4.5-2.8-4.8-2.7-4.7-2.3-5.3-2-5.2-1.7-5.8-1.5-5.5-1.3-6-.7-6-.8-6.2v-10.8l.3-4.5.5-4.5.7-4.5.8-4.2 1-4.3 1-4 1.2-4.2 1.5-3.8 1.5-4 1.8-3.7 2-3.5 2-3.5 2-3.5 2.2-3.3 2.5-3 2.5-3 2.5-2.7 2.8-2.5 3-2.5 2.7-2.5 3-2 3.3-2 3-1.8 3.2-1.7 3.5-1.3 3.3-1.2 3.5-1 3.7-.8 3.5-.5 3.8-.5h7.2l3.8.5 3.5.5 3.5.8 3.5 1 3.5 1.2 3.2 1.3 3.3 1.7 3.2 1.8 3 2 3 2 3 2.5 2.8 2.5 2.7 2.5 2.8 2.7 2.5 3 2.2 3 2.3 3.3 2.2 3.5 2 3.5 1.8 3.5 1.7 3.7 1.8 4 1.2 3.8 1.3 4.2 1.2 4 1 4.3.8 4.2.7 4.5.3 4.5.5 4.5v4.5l-.3 6.5-.5 6.5-1 6.3-1.2 6-1.5 6-2 5.7-2.3 5.5-2.5 5.3-2.7 5-3 4.7-3.3 4.5-3.7 4.3-3.8 4-4 3.5-4 3.2z" fill="#ffeec8"/><path d="m381 242.3.5.5-14.5 7.2-9.7 5.3-11 5.7-8 4.5-8.3 5-8.2 4.8-7.8 5.2-7.7 5-6.8 5-6.2 5-5.3 5-3.2 6.3-8 17.2-11.5 25-6.5 14.8-6.5 15.5-.3-.3v-120.5l.3-3.2.5-3 1-2.8 1.2-2.5 1.5-2 2-1.5 1-.5 1-.5 1-.2h1z" fill="#c8c8c8"/><path d="m176.8 655.5 30.7 28.3-1.7 3.2-.8 1.5-1 1.3-1.2 1-1 1-1.5.5-1.3.2-1.7.3-1.8-.3-1.5-.5-1.7-.5-1.5-.7-1.8-1-2.7-2.3-2.8-2.7-2.2-3-1.8-3-1-2.8-.7-3.7-.5-4.8-.3-5.7z" fill="#ffeec8"/><g fill="none" stroke="#231f20" stroke-linecap="round" stroke-miterlimit="10" stroke-width="14"><path d="m649.3 571.8 133.2 1.2m-537.2.8 54.7-.3 237.3-1.2 56-.5m-527.3 1.2h124.3"/><path d="m299.8 571 .7-23 .8-22.2 1.7-40 1.5-31.3 1.3-19.2.2-4.5-1.7 4-62.8 137.2-14 30.5.8 2.5.7 3.5.8 4.3.5 5 .5 5.5.5 5.7.2 6.3.3 6-.3 5.2-.2 5-.5 4.8-.5 4.2-1 4.3-1 3.2-1.5 3-.8 1.3-.7 1-1-.3-.8-.2-.5-.5-.5-.8-.7-2-.5-2-.5-2.2-1-2-.5-.8-1-.7-1-.8-1.3-.2-1 2-1 2.2-2 6-2 6.5-1.2 3.3-1.3 3-1.7 3.2-.8 1.5-1 1.3-1.2 1-1 1-1.5.5-1.3.2-1.7.3-1.8-.3-1.5-.5-1.7-.5-1.5-.7-1.8-1-2.7-2.3-2.8-2.7-2.2-3-1.8-3-1-2.8-.7-3.7-.5-4.8-.3-5.7-.2-6.3.2-7 .5-7.5 1-7.7 1-8 1.3-8.3 1.7-8.5 2-8 2.3-8.2"/><path d="m239 412.3 65.3 22.5 1.5.5 1.5.5m79.2-197.5-4-3-4-3.3-3.7-3.5-3.5-4-3.3-4.2-3.2-4.5-2.8-4.8-2.7-4.7-2.3-5.3-2-5.2-1.7-5.8-1.5-5.5-1.3-6-.7-6-.8-6.2v-10.8l.3-4.5.5-4.5.7-4.5.8-4.2 1-4.3 1-4 1.2-4.2 1.5-3.8 1.5-4 1.8-3.7 2-3.5 2-3.5 2-3.5 2.2-3.3 2.5-3 2.5-3 2.5-2.7 2.8-2.5 3-2.5 2.7-2.5 3-2 3.3-2 3-1.8 3.2-1.7 3.5-1.3 3.3-1.2 3.5-1 3.7-.8 3.5-.5 3.8-.5h7.2l3.8.5 3.5.5 3.5.8 3.5 1 3.5 1.2 3.2 1.3 3.3 1.7 3.2 1.8 3 2 3 2 3 2.5 2.8 2.5 2.7 2.5 2.8 2.7 2.5 3 2.2 3 2.3 3.3 2.2 3.5 2 3.5 1.8 3.5 1.7 3.7 1.8 4 1.2 3.8 1.3 4.2 1.2 4 1 4.3.8 4.2.7 4.5.3 4.5.5 4.5v4.5l-.3 6.5-.5 6.5-1 6.3-1.2 6-1.5 6-2 5.7-2.3 5.5-2.5 5.3-2.7 5-3 4.7-3.3 4.5-3.7 4.3-3.8 4-4 3.5-4 3.2-4.5 3-3.5 2-3.7 1.8-4 1.7-4 1.3-4 1-4 .7-4.3.5h-8.7l-4.5-.7-4.5-.8-4.5-1.2-4.3-1.5-4-1.8-4-2.2z"/><path d="m590.3 389-.5-1.5-7.3-17-7-16-6.5-15-6-13.2-9.2-19.3-3.5-7.5-5.5-4.7-6-5-7-5-7.5-5.3-8-5-8.3-5-8.2-4.7-8-4.5-10.3-5.5-9-4.8-14.2-7.2-5.8-2.8-.2-.2m199 351.7-5.5-18.7-15.5-55.3-8.3-30.2-6.7-26-3.3-11.5-3.7-12.3-4.5-13-4.8-13-4.2-11.2-4.5-11.3m-53 178.8-1-42.8-1.3-36.7-1.5-46.5-.2-6 2.2 5 60.5 129.7 14.5 31.3-.7 2.5-.8 3.5-.5 4.2-.7 5-.5 5.5-.5 5.8-.3 6v11.2l.3 5 .5 4.8.5 4.5 1 4 1 3.5 1.5 3 .7 1 .8 1h1l.7-.5.5-.5.5-.8.8-1.7.5-2 .5-2.3 1-2 .7-1 .8-.7 1-.5 1.2-.5 1 1.7.8 1.8 1.5 4.5 1.7 5.2 1.8 5.3 1.7 4.7 1.3 2.3 1.2 2 1.3 1.7 1.5 1.3 1.5 1 1.7.5h1.8l1.7-.3 1.5-.2 1.8-.8 1.5-.7 1.7-1 3-2.3 2.5-2.7 2.3-2.8 1.7-3 1-3 .8-2.5.5-3.2.2-3.8.3-4.2-.3-9.8-.5-11-1.2-11.7-1-6.3-1-6.2-1.3-6.3-1.5-6.2-1.5-6.3-1.7-6"/><path d="m599 411.5-63.5 29.3-2 1h-.2m-346.5 150.5 5.5-18.8 15.5-55 8.2-30.2 7-26.3 3-11.5 3.8-12.2 4.5-12.8 4.7-13.2 6.5-16.5 6.8-16.5 6.5-15.5 6.5-14.8 11.5-25 8-17.2 3.2-6.3 5.3-5 6.2-5 6.8-5 7.7-5 7.8-5.2 8.2-4.8 8.3-5 8-4.5 11-5.7 9.7-5.3 14.5-7.2 4.3-2m161.7 517.5 5.3 21.7h-263.8l4.8-20 36.2-156.7h181.5zm-401.7-131.5 31 28.7 30.7 28.3 12.5 11.5m238.5-453h121.8l1 .2 1 .5 1 .5 1.7 1.5 1.5 2 1.5 2.5 1 2.8.5 3 .3 3.2v130.8"/><path d="m252 379v-120.5l.3-3.2.5-3 1-2.8 1.2-2.5 1.5-2 2-1.5 1-.5 1-.5 1-.2h119.5"/></g></svg>