<svg height="850.394" viewBox="0 0 850.394 850.394" width="850.394" xmlns="http://www.w3.org/2000/svg"><path d="m368 368.249h113.386v113.386h-113.386z" fill="none"/><path d="m741.82 78.05 1.81 651.91c-172.22 65.19-399.16 35.49-421.79 32.3 1.41-2.84 2.15-5.79 2.15-8.81l.01-.681v-642.189h3.9s232.48 36.15 413.92-32.53zm-60.01 98.44 3.79-3.69-5.239-.76-2.341-4.74-2.34 4.74-5.239.76 3.8 3.69-.9 5.22 4.68-2.47 4.681 2.47zm-9.36 186.02 3.79-3.7-5.24-.76-2.33-4.74-2.35 4.74-5.23.76 3.78 3.7-.89 5.21 4.689-2.47 4.68 2.47zm-7.92 168.7 3.79-3.69-5.23-.77-2.35-4.73-2.34 4.73-5.23.77 3.78 3.69-.891 5.22 4.681-2.47 4.68 2.47zm-65.79 148.94 3.779-3.69-5.229-.76-2.34-4.75-2.34 4.75-5.23.76 3.78 3.69-.891 5.22 4.681-2.47 4.68 2.47zm-49.62-395.21 3.8-3.69-5.24-.76-2.34-4.75-2.34 4.75-5.24.76 3.79 3.69-.89 5.22 4.68-2.47 4.68 2.47zm-55.29 209.67 3.79-3.7-5.24-.75-2.33-4.75-2.35 4.75-5.23.75 3.79 3.7-.89 5.21 4.68-2.46 4.681 2.46zm-69.89 163.89 3.791-3.7-5.23-.76-2.34-4.74-2.35 4.74-5.22.76 3.78 3.7-.9 5.21 4.69-2.47 4.68 2.47zm-6.44-463.49 3.79-3.69-5.23-.76-2.34-4.74-2.35 4.74-5.23.76 3.79 3.69-.9 5.22 4.69-2.46 4.68 2.46zm-18.86 194.77 3.79-3.69-5.24-.77-2.34-4.74-2.34 4.74-5.24.77 3.79 3.69-.89 5.21 4.68-2.46 4.69 2.46z" fill="#eedceb"/><path d="m321.84 762.26c-9.77 19.71-51.65 34.53-101.82 34.53-57.43 0-103.97-19.41-103.97-43.34l-.4-650.33c6.14 21.62 50.28 38.4 103.8 38.4 56.68 0 102.83-18.81 104.49-42.27l.06.01v653.51l-.01.681c0 3.019-.74 5.969-2.15 8.809zm-54.79-240.77 3.79-3.69-5.24-.76-2.33-4.74-2.35 4.74-5.23.76 3.79 3.69-.89 5.22 4.68-2.46 4.68 2.46zm-7.06-307.62 3.79-3.69-5.24-.76-2.33-4.74-2.35 4.74-5.23.76 3.79 3.69-.89 5.22 4.68-2.46 4.68 2.46zm-72.44 157.8 3.79-3.69-5.23-.76-2.34-4.74-2.35 4.74-5.23.76 3.79 3.69-.89 5.22 4.68-2.46 4.68 2.46zm-12.25 319.81 3.79-3.7-5.24-.75-2.34-4.75-2.34 4.75-5.23.75 3.78 3.7-.89 5.21 4.68-2.46 4.68 2.46z" fill="#eedceb"/><path d="m115.65 103.12c-.49-1.7-.74-3.43-.74-5.18 0-24.07 46.81-43.59 104.54-43.59 57.74 0 104.54 19.52 104.54 43.59 0 .44-.02.88-.05 1.31-1.66 23.46-47.81 42.27-104.49 42.27-53.52 0-97.66-16.78-103.8-38.4z" fill="#ffffc2"/><g fill="none"><g stroke="#231f20"><g stroke-width="21"><path d="m115.65 103.12c-.49-1.7-.74-3.43-.74-5.18 0-24.07 46.81-43.59 104.54-43.59 57.74 0 104.54 19.52 104.54 43.59 0 .44-.02.88-.05 1.31-1.66 23.46-47.81 42.27-104.49 42.27-53.52 0-97.66-16.78-103.8-38.4z"/><path d="m324 99.26v653.51l-.01.681c0 3.02-.74 5.97-2.15 8.81-9.77 19.71-51.65 34.53-101.82 34.53-57.43 0-103.97-19.41-103.97-43.34l-.4-650.33v-.08"/><path d="m320 762 1.84.26c22.63 3.19 249.57 32.891 421.79-32.3l-1.81-651.91c-181.44 68.68-413.92 32.53-413.92 32.53"/></g><path d="m413.72 185.82 2.34 4.74 5.23.76-3.79 3.69.9 5.22-4.68-2.46-4.69 2.46.9-5.22-3.79-3.69 5.23-.76zm131.62 89.92 2.34 4.75 5.24.76-3.8 3.69.9 5.22-4.68-2.47-4.68 2.47.89-5.22-3.79-3.69 5.24-.76zm-125.18 373.56 2.34 4.74 5.23.76-3.79 3.7.9 5.21-4.68-2.47-4.69 2.47.9-5.21-3.78-3.7 5.22-.76zm174.79 21.65 2.34 4.75 5.23.76-3.78 3.69.89 5.22-4.68-2.47-4.68 2.47.89-5.22-3.78-3.69 5.23-.76zm65.79-148.93 2.35 4.73 5.23.77-3.79 3.69.89 5.22-4.68-2.47-4.68 2.47.89-5.22-3.78-3.69 5.23-.77zm-265.89-141.44 2.34 4.74 5.24.77-3.79 3.69.9 5.21-4.69-2.46-4.68 2.46.89-5.21-3.79-3.69 5.24-.77zm95.2 104.83 2.33 4.75 5.24.75-3.79 3.7.9 5.21-4.68-2.46-4.68 2.46.89-5.21-3.79-3.7 5.23-.75zm-233.84-280.73 2.33 4.74 5.24.76-3.79 3.69.9 5.22-4.68-2.46-4.68 2.46.89-5.22-3.79-3.69 5.23-.76zm-72.44 157.8 2.34 4.74 5.23.76-3.79 3.69.9 5.22-4.68-2.46-4.68 2.46.89-5.22-3.79-3.69 5.23-.76zm79.5 149.82 2.33 4.74 5.24.76-3.79 3.69.9 5.22-4.68-2.46-4.68 2.46.89-5.22-3.79-3.69 5.23-.76zm-91.76 169.98 2.34 4.75 5.24.75-3.79 3.7.89 5.21-4.68-2.46-4.68 2.46.89-5.21-3.78-3.7 5.23-.75zm497.16-328.97 2.33 4.74 5.24.76-3.79 3.7.9 5.21-4.68-2.47-4.69 2.47.89-5.21-3.78-3.7 5.23-.76zm9.35-186.01 2.34 4.74 5.24.76-3.79 3.69.89 5.22-4.68-2.47-4.68 2.47.9-5.22-3.8-3.69 5.24-.76z" stroke-width="21.69"/></g><path d="m0 0h850.394v850.394h-850.394z"/></g></svg>