<svg height="850" viewBox="0 0 850 850" width="850" xmlns="http://www.w3.org/2000/svg"><path d="m329.4 308.4-2.7 4-2.3-1.3-2.2-1-2.3-1-2.7-.5-3.5-.5-2.8-.2h-3l-3.2.2-3.3.3-3.2.7-3 1.3-1-1.5-9.5-11.5-10.3-12.5-.2-.3-.8-1.2v-1l.5-.8.8-.5 2-.7 1-.3 14.7 6.5 2.5 1.8 2.5 1.7 3 1.5 3.3 1.8 3.5 1.5 4 1.5 9 3-.3 2.5z" fill="#0d72ba"/><path d="m329.4 308.4 60.3 40.2 9 5.8 87.5 60.7-1.3-.2h-1.2l-1.5.2-1.5.8-1.3.7-1.5 1.3-1.2 1.5-1.3 1.7-.7 1.5-.8 1.8-.5 1.5-.2 1.7v2.8l.5 1.2.5 1-67.8-47.2-65.5-45.3-1.2.3-2.3-12-.5-2-1-2.3-1-2.2-1.2-2-1.3-2-1.7-2-2-1.8-2-1.7z" fill="#0d72ba"/><path d="m474.2 432.6-.5-1-.5-1.2v-2.8l.2-1.7.5-1.5.8-1.8.7-1.5 1.3-1.7 1.2-1.5 1.5-1.3 1.3-.7 1.5-.8 1.5-.2h1.2l1.3.2.5.3.7 1 .8 1 .5 1.5v3.2l-.5 2-.8 1.8-1 2-1.2 1.7-1.5 1.5-1.5 1.3-1.5.7-1.5.8-1.3.2-1.5-.2-1.2-.5z" fill="#0d72ba"/><path d="m330.4 302.1 11.3 2.8 9.5 2.7 7.5 2.5 6 2.5 4.5 2.3 3.5 2.2 3 2.5 2 2.5 4 5 2 3 1.7 3.3 1.8 3.5 1.2 3.5 1 4 .3 4v.2l-60.3-40.2-9.5-6.5.3-2.5zm10.5 38 65.5 45.3-.5.5v5l-.5 4.5-1 4.2-1.2 3.8-1.8 3.5-2 3-2.2 2.5-2.5 2.2-2.8 1.5-2.7 1.3-3 .7-2.8.3-3-.3-2.7-1-2.8-1.2-2.5-2-3.7-3-3.3-3-3.7-4-4-4.5-2-2.8-1.8-2.7-1.7-3-1.5-3.3-1.5-3.2-1-3.5-2.5-10.3-2.3-10.2-3.7-20z" fill="#fff"/><path d="m472.2 326.9-3.3-3.8-3-3.2-2.5-2.3-2.2-1.2-3.3-1.5-3-.8-2.5-.2-2.5.2-2.2.5-2 1.3-1.8 1.7-2 2.3-1.7.7-10.3-15.5-9.2-13.2-4-5.5-3.5-4.5-2.8-3.3-2.2-1.7-1.3-.8-1.5-.7-4.2-1.3-5.8-1.2-6.5-1.5-15.5-2.5-17-2.3-16.5-2-14-1.7-13.5-1.3-7-1-5.7-.7h-6.8l-1.7.5-1.5.5-1.3.7-1.2.8-.8 1.2-.7 1.5-.5 1.8-.5 2v4.5l.2 2 .5 2 1 2 1 2 1.5 1.7 1.5 1.8 2 1.7-14.7-6.5-11.3-3.5 7.8 8 .2.3 10.3 12.5 9.5 11.5 1 1.5-1.8 1.2-1.7 1.5-1.5 1.8-1 2-.5 2.5-.3 3 .5 3.2.8 3.8 2.7 9.2 2.3 8.8 1.7 8.2 1.3 7.5.7 7 .8 6 .2 5.3v4.5l-.2 13-.5 17.7-.3 9.3v8.7l.5 7.3.3 2.7.2 2.3 1.5 5.2 1.8 5.3 2.2 5.2 2.8 5.3 3.2 5.2 3.8 5.5 4.2 5.8 5 6 5.3 6.5 6 6.7 13.5 15.3 35 37.7 5.2 6 4.8 5.8 4.5 5.7 4 5.5 3.5 5.5 3.2 5.8 3 6 2.8 6.2 2.7 7 2.5 7.5 2.5 8.3 2.5 9 2.5 10 2.5 11 5.8 25.7 11 58.5-3 .5-70 38.8-286-531.5 392.2-184.8 281 502-156.2 86.5-2.3 1.3-13-25-10.2-20.5-8-16.5-5.8-13-4.2-9.3-2.5-6.5-1.8-4.7 2-14 1.8-13.5 1.2-13.5 1.3-13 1-12.5.5-11.8 1-21.5.2-18v-13.7l-.2-12-.8-3-1.7-4-2.3-4.8-3-5.5-3.5-6.2-4-6.8-8.7-14-9.8-14.5-4.7-7-5-6.7-4.8-6.3-4.5-5.7-4.2-5-4-4.3-2-1.7-2.5-1.3-2.3-1-2.5-.7-2.7-.3h-2.5l-2.5.5-2.5.5-2.3.8-2.2 1-2 1.2-1.5 1.3-1.5 1.5-.8 1.5-.7 1.7v1.8z" fill="#fff"/><path d="m440.2 320.6 1.7-.7 2-2.3 1.8-1.7 2-1.3 2.2-.5 2.5-.2 2.5.2 3 .8 3.3 1.5 2.2 1.2 2.5 2.3 3 3.2 3.3 3.8h2v-1.8l.7-1.7.8-1.5 1.5-1.5 1.5-1.3 2-1.2 2.2-1 2.3-.8 2.5-.5 2.5-.5h2.5l2.7.3 2.5.7 2.3 1 2.5 1.3 2 1.7 4 4.3 4.2 5 4.5 5.7 4.8 6.3 5 6.7 4.7 7 9.8 14.5 8.7 14 4 6.8 3.5 6.2 3 5.5 2.3 4.8 1.7 4 .8 3 .2 12v13.7l-.2 18-1 21.5-.5 11.8-1 12.5-1.3 13-1.2 13.5-1.8 13.5-2 14 1.8 4.7 2.5 6.5 4.2 9.3 5.8 13 8 16.5 10.2 20.5 13 25 10 18.5 11.3 20.7 12.7 22.8 14 25-195.2 47.5-8.5-47.3-11-58.5-5.8-25.7-2.5-11-2.5-10-2.5-9-2.5-8.3-2.5-7.5-2.7-7-2.8-6.2-3-6-3.2-5.8-3.5-5.5-4-5.5-4.5-5.7-4.8-5.8-5.2-6-35-37.7-13.5-15.3-6-6.7-5.3-6.5-5-6-4.2-5.8-3.8-5.5-3.2-5.2-2.8-5.3-2.2-5.2-1.8-5.3-1.5-5.2-.2-2.3-.3-2.7-.5-7.3v-8.7l.3-9.3.5-17.7.2-13v-4.5l-.2-5.3-.8-6-.7-7-1.3-7.5-1.7-8.2-2.3-8.8-2.7-9.2-.8-3.8-.5-3.2.3-3 .5-2.5 1-2 1.5-1.8 1.7-1.5 1.8-1.2 3-1.3 3.2-.7 3.3-.3 3.2-.2h3l2.8.2 3.5.5 2.7.5 2.3 1 2.2 1 2.3 1.3 2 1.7 2 1.8 1.7 2 1.3 2 1.2 2 1 2.2 1 2.3.5 2 2.3 12 3.7 20 2.3 10.2 2.5 10.3 1 3.5 1.5 3.2 1.5 3.3 1.7 3 1.8 2.7 2 2.8 4 4.5 3.7 4 3.3 3 3.7 3 2.5 2 2.8 1.2 2.7 1 3 .3 2.8-.3 3-.7 2.7-1.3 2.8-1.5 2.5-2.2 2.2-2.5 2-3 1.8-3.5 1.2-3.8 1-4.2.5-4.5v-5l.5-.5 67.8 47.2 1 .8 1.2.5 1.5.2 1.3-.2 1.5-.8 1.5-.7 1.5-1.3 1.5-1.5 1.2-1.7 1-2 .8-1.8.5-2v-3.2l-.5-1.5-.8-1-.7-1-.5-.3-87.5-60.7-9-5.8v-.2l-.3-4-1-4-1.2-3.5-1.8-3.5-1.7-3.3-2-3-4-5-2-2.5-3-2.5-3.5-2.2-4.5-2.3-6-2.5-7.5-2.5-9.5-2.7-11.3-2.8-10.2-2.7-9-3-4-1.5-3.5-1.5-3.3-1.8-3-1.5-2.5-1.7-2.5-1.8-2-1.7-1.5-1.8-1.5-1.7-1-2-1-2-.5-2-.2-2v-4.5l.5-2 .5-1.8.7-1.5.8-1.2 1.2-.8 1.3-.7 1.5-.5 1.7-.5h6.8l5.7.7 7 1 13.5 1.3 14 1.7 16.5 2 17 2.3 15.5 2.5 6.5 1.5 5.8 1.2 4.2 1.3 1.5.7 1.3.8 2.2 1.7 2.8 3.3 3.5 4.5 4 5.5 9.2 13.2z" fill="#ffeec8"/><g fill="none" stroke="#231f20" stroke-linecap="round" stroke-miterlimit="10" stroke-width="14"><path d="m604.7 651.6 156.2-86.5-281-502-392.2 184.8 286 531.5 70-38.8"/><path d="m519.7 393.9-5-7.5-12-18-7.5-11-8-11-7.8-10.5-7.2-9-3.3-3.8-3-3.2-2.5-2.3-2.2-1.2-3.3-1.5-3-.8-2.5-.2-2.5.2-2.2.5-2 1.3-1.8 1.7-2 2.3"/><path d="m474.2 326.9v-1.8l.7-1.7.8-1.5 1.5-1.5 1.5-1.3 2-1.2 2.2-1 2.3-.8 2.5-.5 2.5-.5h2.5l2.7.3 2.5.7 2.3 1 2.5 1.3 2 1.7 4 4.3 4.2 5 4.5 5.7 4.8 6.3 5 6.7 4.7 7 9.8 14.5 8.7 14 4 6.8 3.5 6.2 3 5.5 2.3 4.8 1.7 4 .8 3 .2 12v13.7l-.2 18-1 21.5-.5 11.8-1 12.5-1.3 13-1.2 13.5-1.8 13.5-2 14 1.8 4.7 2.5 6.5 4.2 9.3 5.8 13 8 16.5 10.2 20.5 13 25 10 18.5 11.3 20.7 12.7 22.8 14 25m-244.5-354v5l-.5 4.5-1 4.2-1.2 3.8-1.8 3.5-2 3-2.2 2.5-2.5 2.2-2.8 1.5-2.7 1.3-3 .7-2.8.3-3-.3-2.7-1-2.8-1.2-2.5-2-3.7-3-3.3-3-3.7-4-4-4.5-2-2.8-1.8-2.7-1.7-3-1.5-3.3-1.5-3.2-1-3.5-2.5-10.3-2.3-10.2-3.7-20-2.3-12-.5-2-1-2.3-1-2.2-1.2-2-1.3-2-1.7-2-2-1.8-2-1.7-2.3-1.3-2.2-1-2.3-1-2.7-.5-3.5-.5-2.8-.2h-3l-3.2.2-3.3.3-3.2.7-3 1.3-1.8 1.2-1.7 1.5-1.5 1.8-1 2-.5 2.5-.3 3 .5 3.2.8 3.8 2.7 9.2 2.3 8.8 1.7 8.2 1.3 7.5.7 7 .8 6 .2 5.3v4.5l-.2 13-.5 17.7-.3 9.3v8.7l.5 7.3.3 2.7.2 2.3 1.5 5.2 1.8 5.3 2.2 5.2 2.8 5.3 3.2 5.2 3.8 5.5 4.2 5.8 5 6 5.3 6.5 6 6.7 13.5 15.3 35 37.7 5.2 6 4.8 5.8 4.5 5.7 4 5.5 3.5 5.5 3.2 5.8 3 6 2.8 6.2 2.7 7 2.5 7.5 2.5 8.3 2.5 9 2.5 10 2.5 11 5.8 25.7 11 58.5 8.5 47.3m23-407-12-19.3-12-19.2-14-21.3-10.3-15.5-9.2-13.2-4-5.5-3.5-4.5-2.8-3.3-2.2-1.7-1.3-.8-1.5-.7-4.2-1.3-5.8-1.2-6.5-1.5-15.5-2.5-17-2.3-16.5-2-14-1.7-13.5-1.3-7-1-5.7-.7h-6.8l-1.7.5-1.5.5-1.3.7-1.2.8-.8 1.2-.7 1.5-.5 1.8-.5 2v4.5l.2 2 .5 2 1 2 1 2 1.5 1.7 1.5 1.8 2 1.7 2.5 1.8 2.5 1.7 3 1.5 3.3 1.8 3.5 1.5 4 1.5 9 3 10.2 2.7 11.3 2.8 9.5 2.7 7.5 2.5 6 2.5 4.5 2.3 3.5 2.2 3 2.5 2 2.5 4 5 2 3 1.7 3.3 1.8 3.5 1.2 3.5 1 4 .3 4m96.5 66.7-1.3-.2h-1.2l-1.5.2-1.5.8-1.3.7-1.5 1.3-1.2 1.5-1.3 1.7-.7 1.5-.8 1.8-.5 1.5-.2 1.7v2.8l.5 1.2.5 1 1 .8 1.2.5 1.5.2 1.3-.2 1.5-.8 1.5-.7 1.5-1.3 1.5-1.5 1.2-1.7 1-2 .8-1.8.5-2v-3.2l-.5-1.5-.8-1-.7-1zm-194.3-108.7h.3"/><path d="m340.9 340.1 65.5 45.3 67.8 47.2.7.3m-76.2-78.5-9-5.8-60.3-40.2-9.5-6.5m166.3 113.2-87.5-60.7m-124.3-69.5 10.3 12.5 9.5 11.5m5.2-19-7-3.3-14.7-6.5-1 .3-2 .7-.8.5-.5.8v1l.8 1.2"/><path d="m277.7 280.1-11.3-3.5 7.8 8 .2.3"/></g></svg>