<svg height="850" viewBox="0 0 850 850" width="850" xmlns="http://www.w3.org/2000/svg"><path d="m406.2 354 67.3 46.8 1 1 1.2.5h1.5l1.5-.3 1.5-.5 1.8-1 1.5-1.2 1.5-1.8 1.2-1.7 1.3-2 .7-2 .5-2v-3.8l-.5-1.5-.7-1.2-1-.8-.5-.2-93.3-64.8-4.7-3.2 2-3-.3-2-.5-2.3-.7-2.2-1-2-1-2-1.5-2-3-3.8-3-3.5-3.3-3-3-3-2.2-2.5-2.3-2.7-3-2.5-3.7-2.5-5-2.5-6.3-2.5-8.2-2.8-9.8-2.7-12.2-3.3-6.5-1.5-5.8-1.7-5.2-1.8-5-1.7-4.5-1.8-4-2-3.5-1.7-3.3-2-2.5-2-2.2-2-1.8-1.8-1.5-2-1.2-2-.8-2.2-.7-2.3-.3-2v-2.5l.3-2.2.2-2.3.5-1.7.8-1.5 1-1.3 1.2-1 1.3-1 1.7-.5 2-.2 2-.3 5 .3 6.3.5 7.5 1.2 14.2 1.5 15 1.5 17.5 2.3 18 2.5 8.8 1.2 7.7 1.5 7.3 1.5 6 1.3 4.5 1.5 1.7.7 1.3.8 2.2 1.7 3 3.5 3.5 4.5 4.3 5.8 9.7 14 10.5 16 1.8-1 2-2.3 2.2-1.7 1-.5 1.3-.5 1.2-.5h4l3 .5 3.3 1 3.5 1.5 2.2 1.5 2.8 2.5 3.2 3.2 3.5 4h2v-1.7l.8-1.8 1-1.7 1.5-1.5 1.7-1.5 2-1.3 2.3-1 2.5-1 2.5-.5 2.7-.5h2.8l2.7.5 2.8.5 2.7 1 2.3 1.5 2.2 2 3.3 3.3 3.2 3.7 7.3 8.8 7.5 10.2 8 11 7.7 11.8 7.3 11.5 6.7 11 5.8 10 3.2 6 2.5 5 1.8 4.2 1 3.3.2 12.5v10.7l-.2 13.3-.3 15.5-.7 17.5-1.3 19.2-1.7 20.5-2.3 21.5-1.5 11.3-1.7 11 .7 2.2 2.8 7 5.2 12.5 4 8.5 4.8 10.3 5.7 12.2 7 13.8 8 16 9.5 17.7 10.8 20.3 12.2 22.2 13.8 24.8 15.2 27-208.2 50.7-20.8-112.7-6-27.5-2.7-11.8-2.8-10.7-2.7-9.5-2.5-8.8-2.8-8-2.7-7.5-3-6.7-3.3-6.3-3.5-6.2-3.7-5.8-4.3-6-4.7-6-5-6-5.8-6.5-30-32.5-12.5-13.5-10.7-12.2-9.5-11-4-5.3-4-4.7-3.3-4.8-3.2-4.7-2.8-4.5-2.5-4.3-2.2-4.7-2-5-1.8-4.8-1.2-5-.3-2.2-.5-3.3-.2-7.7v-9l.2-10 .5-19 .3-13.8v-4.7l-.3-5.5-.7-6.5-1-7.5-1.3-8-1.7-8.8-2.5-9.5-2.8-9.7-1-4-.5-3.5.3-3.3.7-2.5 1-2.2 1.5-2 1.8-1.5 2-1.3 3.2-1.2 3.5-.8 3.3-.5 3.5-.2h3.2l2.8.2 4 .5 2.7.8 2.5.7 2.5 1.3 2.3 1.5 2.2 1.5 2 2 1.8 2 1.5 2.2 1.5 2.3 1 2.2 1 2.5.5 2.3 2.5 12.5 4 21.5 2.2 11 2.8 10.7 1.2 3.8 1.3 3.5 1.7 3.5 1.8 3.2 2 3 2 2.8 4.2 5 4 4 3.5 3.2 4.3 3.3 2.7 2.2 2.8 1.8 3.2 1 3.3.7 3.2.3h3.5l3.3-.8 3.2-1.2 3-1.8 2.8-2.2 2.5-2.5 1-1.5 1-1.8.7-1.7 1-2 .5-2 .5-2 .5-2.3.3-2.5v-5.2z" fill="#ffeec8"/><path d="m574 393.3h-2.8l-.2-12.5-1-3.3-1.8-4.2-2.5-5-3.2-6 1.5-1 25.7-5.8 20.5-4.5 15.8-3.5 11.7-2.7 19.5-5 18-5 16.5-5 15-5 13.5-5 12-4.5 10.3-4.3 8.5-3.5h5.7l17 54z" fill="#ffffc2"/><path d="m505.7 281-2.2-2-2.3-1.5-2.7-1-2.8-.5-2.7-.5h-2.8l-2.7.5-2.5.5-2.5 1-2.3 1-2 1.3-1.7 1.5-1.5 1.5-1 1.7-.8 1.8v1.7h-2l-3.5-4-3.2-3.2-2.8-2.5-2.2-1.5-3.5-1.5-3.3-1-3-.5h-4l-1.2.5-1.3.5-1 .5-2.2 1.7-2 2.3-1.8 1-10.5-16-9.7-14-4.3-5.8-3.5-4.5-3-3.5-2.2-1.7-1.3-.8-1.7-.7-4.5-1.5-6-1.3-7.3-1.5-7.7-1.5-8.8-1.2-18-2.5-17.5-2.3-15-1.5-14.2-1.5-7.5-1.2-6.3-.5-5-.3-2 .3-2 .2-1.7.5-1.3 1-1.2 1-1 1.3-.8 1.5-.5 1.7-.2 2.3-.3 2.2v2.5l.3 2 .7 2.3.8 2.2 1.2 2 1.5 2 1.8 1.8 2.2 2-16-7-12-3.8 8.5 8.8 11.3 13.5 10 12.2 1 1.5-2 1.3-1.8 1.5-1.5 2-1 2.2-.7 2.5-.3 3.3.5 3.5 1 4 2.8 9.7 2.5 9.5 1.7 8.8 1.3 8 1 7.5.7 6.5.3 5.5v4.7l-.3 13.8-.5 19-.2 10v9l.2 7.7.5 3.3.3 2.2 1.2 5 1.8 4.8 2 5 2.2 4.7-3.5 2.5-189.5 34-.5-2.2 42.3-9.8-.5-2-24.3-246-1-4.7 272.3-57.3 137-29.2 48.7-10.5 28-6.3 30.3-7.2 11.5-3 9.7-3 9-3 8.8-3.8 9.5-4.5 10.5-5.5 75 225.8-4.3 2-5.2 2.5-7 3.2-8.5 3.5-10.3 4.3-12 4.5-13.5 5-15 5-16.5 5-18 5-19.5 5-11.7 2.7-15.8 3.5-20.5 4.5-25.7 5.8-1.5 1-5.8-10-6.7-11-7.3-11.5-7.7-11.8-8-11-7.5-10.2-7.3-8.8-3.2-3.7z" fill="#ffffc2"/><path d="m143 460-42.3 9.8-7.7 1.7-20.5-254.7 44.7-9.5 1 4.7 24.3 246z" fill="#231f20"/><path d="m319 268-3 4.8-2.3-1.5-2.5-1.3-2.5-.7-2.7-.8-4-.5-2.8-.2h-3.2l-3.5.2-3.3.5-3.5.8-3.2 1.2-1-1.5-10-12.2-11.3-13.5-.5-.8-.2-.5-.3-.5v-.7l.5-.8 1-.7 1-.5 1-.3 1-.2 16 7 2.5 2 3.3 2 3.5 1.7 4 2 4.5 1.8 5 1.7 5.2 1.8 5.8 1.7-1.5 3.3z" fill="#0d72ba"/><path d="m392.7 317.5 93.3 64.8-1.3-.5h-1.5l-1.5.5-1.5.5-1.5 1-1.5 1.2-1.2 1.8-1.3 1.7-1 1.8-.7 1.7-.5 1.8-.3 1.5v3.2l.5 1.3.8 1-67.3-46.8-75-52-1.2.3-2.5-12.5-.5-2.3-1-2.5-1-2.2-1.5-2.3-1.5-2.2-1.8-2-2-2-2.2-1.5 3-4.8 69 46.3z" fill="#0d72ba"/><path d="m320 261.5 12.2 3.3 9.8 2.7 8.2 2.8 6.3 2.5 5 2.5 3.7 2.5 3 2.5 2.3 2.7 2.2 2.5 3 3 3.3 3 3 3.5 3 3.8 1.5 2 1 2 1 2 .7 2.2.5 2.3.3 2-2 3-69-46.3-7-4.7 1.5-3.3z" fill="#ffffc2"/><path d="m473.5 400.8-.8-1-.5-1.3v-3.2l.3-1.5.5-1.8.7-1.7 1-1.8 1.3-1.7 1.2-1.8 1.5-1.2 1.5-1 1.5-.5 1.5-.5h1.5l1.3.5.5.2 1 .8.7 1.2.5 1.5v3.8l-.5 2-.7 2-1.3 2-1.2 1.7-1.5 1.8-1.5 1.2-1.8 1-1.5.5-1.5.3h-1.5l-1.2-.5z" fill="#0d72ba"/><path d="m406.2 354-2.2 3.3v5.2l-.3 2.5-.5 2.3-.5 2-.5 2-1 2-.7 1.7-1 1.8-1 1.5-2.5 2.5-2.8 2.2-3 1.8-3.2 1.2-3.3.8h-3.5l-3.2-.3-3.3-.7-3.2-1-2.8-1.8-2.7-2.2-4.3-3.3-3.5-3.2-4-4-4.2-5-2-2.8-2-3-1.8-3.2-1.7-3.5-1.3-3.5-1.2-3.8-2.8-10.7-2.2-11-4-21.5 1.2-.3z" fill="#ffffc2"/><g fill="none" stroke="#231f20" stroke-linecap="round" stroke-miterlimit="10"><path d="m284 427.3-141 32.7-42.3 9.8-7.7 1.7-20.5-254.7 44.7-9.5 272.3-57.3 137-29.2 48.7-10.5 28-6.3 30.3-7.2 11.5-3 9.7-3 9-3 8.8-3.8 9.5-4.5 10.5-5.5 75 225.8-4.3 2-5.2 2.5-7 3.2-8.5 3.5-10.3 4.3-12 4.5-13.5 5-15 5-16.5 5-18 5-19.5 5-11.7 2.7-15.8 3.5-20.5 4.5-25.7 5.8m10 32 199.7-31.8-17-54m-655.5 164.5 189.5-34m-172.5-226 24.3 246" stroke-width="14"/><path d="m521.7 359.5-5.2-8-12.8-19.2-8-11.8-8.5-11.7-8.2-11.3-7.8-9.5-3.5-4-3.2-3.2-2.8-2.5-2.2-1.5-3.5-1.5-3.3-1-3-.5h-4l-1.2.5-1.3.5-1 .5-2.2 1.7-2 2.3" stroke-width="14"/><path d="m473.2 288v-1.7l.8-1.8 1-1.7 1.5-1.5 1.7-1.5 2-1.3 2.3-1 2.5-1 2.5-.5 2.7-.5h2.8l2.7.5 2.8.5 2.7 1 2.3 1.5 2.2 2 3.3 3.3 3.2 3.7 7.3 8.8 7.5 10.2 8 11 7.7 11.8 7.3 11.5 6.7 11 5.8 10 3.2 6 2.5 5 1.8 4.2 1 3.3.2 12.5v10.7l-.2 13.3-.3 15.5-.7 17.5-1.3 19.2-1.7 20.5-2.3 21.5-1.5 11.3-1.7 11 .7 2.2 2.8 7 5.2 12.5 4 8.5 4.8 10.3 5.7 12.2 7 13.8 8 16 9.5 17.7 10.8 20.3 12.2 22.2 13.8 24.8 15.2 27m-257.2-371v5.2l-.3 2.5-.5 2.3-.5 2-.5 2-1 2-.7 1.7-1 1.8-1 1.5-2.5 2.5-2.8 2.2-3 1.8-3.2 1.2-3.3.8h-3.5l-3.2-.3-3.3-.7-3.2-1-2.8-1.8-2.7-2.2-4.3-3.3-3.5-3.2-4-4-4.2-5-2-2.8-2-3-1.8-3.2-1.7-3.5-1.3-3.5-1.2-3.8-2.8-10.7-2.2-11-4-21.5-2.5-12.5-.5-2.3-1-2.5-1-2.2-1.5-2.3-1.5-2.2-1.8-2-2-2-2.2-1.5-2.3-1.5-2.5-1.3-2.5-.7-2.7-.8-4-.5-2.8-.2h-3.2l-3.5.2-3.3.5-3.5.8-3.2 1.2-2 1.3-1.8 1.5-1.5 2-1 2.2-.7 2.5-.3 3.3.5 3.5 1 4 2.8 9.7 2.5 9.5 1.7 8.8 1.3 8 1 7.5.7 6.5.3 5.5v4.7l-.3 13.8-.5 19-.2 10v9l.2 7.7.5 3.3.3 2.2 1.2 5 1.8 4.8 2 5 2.2 4.7 2.5 4.3 2.8 4.5 3.2 4.7 3.3 4.8 4 4.7 4 5.3 9.5 11 10.7 12.2 12.5 13.5 30 32.5 5.8 6.5 5 6 4.7 6 4.3 6 3.7 5.8 3.5 6.2 3.3 6.3 3 6.7 2.7 7.5 2.8 8 2.5 8.8 2.7 9.5 2.8 10.7 2.7 11.8 6 27.5 20.8 112.7m24.7-434-13.2-21-13.3-20.7-15-23-10.5-16-9.7-14-4.3-5.8-3.5-4.5-3-3.5-2.2-1.7-1.3-.8-1.7-.7-4.5-1.5-6-1.3-7.3-1.5-7.7-1.5-8.8-1.2-18-2.5-17.5-2.3-15-1.5-14.2-1.5-7.5-1.2-6.3-.5-5-.3-2 .3-2 .2-1.7.5-1.3 1-1.2 1-1 1.3-.8 1.5-.5 1.7-.2 2.3-.3 2.2v2.5l.3 2 .7 2.3.8 2.2 1.2 2 1.5 2 1.8 1.8 2.2 2 2.5 2 3.3 2 3.5 1.7 4 2 4.5 1.8 5 1.7 5.2 1.8 5.8 1.7 6.5 1.5 12.2 3.3 9.8 2.7 8.2 2.8 6.3 2.5 5 2.5 3.7 2.5 3 2.5 2.3 2.7 2.2 2.5 3 3 3.3 3 3 3.5 3 3.8 1.5 2 1 2 1 2 .7 2.2.5 2.3.3 2m96 71-1.3-.5h-1.5l-1.5.5-1.5.5-1.5 1-1.5 1.2-1.2 1.8-1.3 1.7-1 1.8-.7 1.7-.5 1.8-.3 1.5v3.2l.5 1.3.8 1 1 1 1.2.5h1.5l1.5-.3 1.5-.5 1.8-1 1.5-1.2 1.5-1.8 1.2-1.7 1.3-2 .7-2 .5-2v-3.8l-.5-1.5-.7-1.2-1-.8z" stroke-width="14"/><path d="m279 266.3h.2" stroke-width="13.5"/><path d="m331.2 302 75 52 67.3 46.8.5.5m-81.3-83.8-4.7-3.2-69-46.3-7-4.7m174 119-93.3-64.8m-105.7-69-7.3-3.2-16-7-1 .2-1 .3-1 .5-1 .7-.5.8v.7l.3.5.2.5.5.8 11.3 13.5 10 12.2" stroke-width="14"/><path d="m263.7 238.3-12-3.8 8.5 8.8" stroke-width="13.5"/></g></svg>