<svg height="850.394" viewBox="0 0 850.394 850.394" width="850.394" xmlns="http://www.w3.org/2000/svg"><path d="m358.34 765.74c-5.27.13-10.55-.08-15.81-.66-61.49-42.86-75.94-123.68-51.48-202.35 20.42-65.69 66.73-114.061 118.21-130.891 17.05-5.57 34.65-7.68 52.08-5.82l.01-.01c5.471 3.8 10.631 8.05 15.45 12.721-65.09 1.64-129.64 56.319-154.83 137.329-22.94 73.801-6.57 148.131 36.37 189.681z" fill="#0b00ea"/><path d="m409.26 431.84c-51.48 16.83-97.79 65.2-118.21 130.891-24.46 78.67-10.01 159.489 51.48 202.35-7.29-.79-14.54-2.28-21.71-4.51-76.17-23.69-113.57-121.25-83.52-217.91 27.37-88.05 101.26-145 171.79-136.54v25.189z" fill="#a3d9ff"/><path d="m358.34 765.74c-42.94-41.55-59.31-115.88-36.37-189.681 25.19-81.01 89.74-135.689 154.83-137.329 12.57-.32 25.17 1.35 37.5 5.18 76.17 23.67 113.57 121.229 83.53 217.899-30.05 96.66-116.16 155.83-192.33 132.15-18.02-5.599-33.86-15.329-47.16-28.219z" fill="#a3d9ff"/><g fill="none"><g stroke="#000"><path d="m476.8 438.73c12.57-.32 25.17 1.35 37.5 5.18 76.17 23.67 113.57 121.229 83.53 217.899-30.05 96.66-116.16 155.83-192.33 132.15-18.02-5.6-33.86-15.33-47.16-28.22-42.94-41.55-59.31-115.88-36.37-189.681 25.19-81.008 89.74-135.688 154.83-137.328z" stroke-width="23.907"/><path d="m366.28 651.85c-3.05-20.319-1.51-42.6 5.39-64.819 19.94-64.15 77.08-103.41 127.63-87.69 24.19 7.521 42.5 26.28 52.82 50.83" stroke-linecap="round" stroke-linejoin="round" stroke-width="15.938"/><g stroke-width="23.907"><path d="m342.71 765.21c-.06-.04-.12-.08-.18-.13-61.49-42.86-75.94-123.68-51.48-202.35 20.42-65.69 66.73-114.061 118.21-130.891 17.05-5.57 34.65-7.68 52.08-5.82"/><path d="m358.37 765.74h-.03c-5.27.13-10.55-.08-15.81-.66-7.29-.79-14.54-2.28-21.71-4.51-76.17-23.69-113.57-121.25-83.52-217.91 27.37-88.05 101.26-145 171.79-136.54 6.9.83 13.76 2.28 20.54 4.39a115.58 115.58 0 0 1 31.72 15.5c5.471 3.8 10.631 8.05 15.45 12.721m-67.71-399.541v392.12"/></g></g><path d="m850.394 0v850.394h-850.394"/><path d="m0 0h850.394v850.394h-850.394z"/></g></svg>