<svg height="850.89" viewBox="0 0 850.89 850.89" width="850.89" xmlns="http://www.w3.org/2000/svg"><path d="m461.605 630.25v166.512m-58.696-196.512v184.512" stroke="#000" stroke-dasharray="10 60" stroke-miterlimit="20" stroke-width="64"/><g fill="#787878"><path d="m497.45 369.54-29.25 74.77v-13.25h-20.46v-48.34h-35.97v48.34h-20.46v14.27l-29.65-75.79 37.07-37.07h61.65z"/><path d="m468.2 444.31v129.54h-76.89v-128.52h20.46v3.3h35.97v-3.3h20.06zm-20.46 108.53v-35.42h-35.97v35.42z"/><path d="m468.2 431.06v13.25l-.4 1.02h-20.06v-14.27zm-56.43 86.36h35.97v35.42h-35.97zm0-72.09h35.97v3.3h-35.97z"/><path d="m411.77 431.06h35.97v14.271h-35.97zm0-48.34h35.97v48.339h-35.97zm-20.46 48.34h20.46v14.271h-20.46z"/></g><g fill="none"><g stroke="#000"><path d="m659.23 80.96c-151.48 60.22-179.19 143.91-203.2 229.29m-238.56-231.44c99.57 39.59 153.18 165.83 167.55 223.69" stroke-dasharray="10 60" stroke-miterlimit="20" stroke-width="64"/><path d="m468.2 444.31 29.25-74.77-37.07-37.07h-61.65l-37.07 37.07 29.65 75.79" stroke-width="19.771"/><path d="m447.74 431.06h20.46v142.79h-76.89v-142.79h20.46" stroke-width="19.771"/><path d="m411.77 517.42h35.97v35.42h-35.97zm35.97-72.09v3.3h-35.97v-65.91h35.97v48.34z" stroke-width="13.181"/></g><path d="m.25.25h850.394v850.394h-850.394z"/></g></svg>