<svg width="131" height="128" viewBox="0 0 131 128" fill="none" xmlns="http://www.w3.org/2000/svg">
<path d="M4 12.897H125.119C126.396 12.897 127.432 13.9322 127.432 15.2093V19.5891H4V12.897Z" fill="#794FB0"/>
<path d="M4 5.76453V16.2932C4 16.8823 4.47754 17.3598 5.06662 17.3598H63.6494C64.0345 17.3598 64.4347 17.3437 64.7777 17.1686C68.6629 15.1853 61.7511 2.37126 57.6247 0.763536C57.326 0.647162 57.0037 0.628467 56.6831 0.626226L9.50658 0.29632C6.47163 0.275097 4 2.7295 4 5.76453Z" fill="#794FB0"/>
<g filter="url(#filter0_d)">
<path d="M4 19.5889H127.432V117.476C127.432 120.496 124.983 122.944 121.963 122.944H9.46834C6.44826 122.944 4 120.496 4 117.476V19.5889Z" fill="#D2ABFF"/>
</g>
<defs>
<filter id="filter0_d" x="0.919472" y="18.0486" width="129.593" height="109.517" filterUnits="userSpaceOnUse" color-interpolation-filters="sRGB">
<feFlood flood-opacity="0" result="BackgroundImageFix"/>
<feColorMatrix in="SourceAlpha" type="matrix" values="0 0 0 0 0 0 0 0 0 0 0 0 0 0 0 0 0 0 127 0" result="hardAlpha"/>
<feOffset dy="1.54026"/>
<feGaussianBlur stdDeviation="1.54026"/>
<feColorMatrix type="matrix" values="0 0 0 0 0 0 0 0 0 0 0 0 0 0 0 0 0 0 0.15 0"/>
<feBlend mode="normal" in2="BackgroundImageFix" result="effect1_dropShadow"/>
<feBlend mode="normal" in="SourceGraphic" in2="effect1_dropShadow" result="shape"/>
</filter>
</defs>
</svg>
