<svg enable-background="new 0 0 850.4 850.4" height="850.4" viewBox="0 0 850.4 850.4" width="850.4" xmlns="http://www.w3.org/2000/svg"><path d="m810.9 324.8-1.8 20.3-29.3-30.6s-10.6-10.4-24.9-23.8c-20.1-18.7-47.6-43.2-63.4-52.5-25-14.7-83.2-3.4-120.5-41.5-3.2-3.3-6.3-7-9.2-11.1-28.5-40.3 3.9-78 3.9-78s34-17.5 72 10.5c26.6 19.6 42 58.1 62.2 81.2l-1 1c-4.1 1-8.2 1.8-12.2 2.4-7.3 1.1-14.5 1.6-21.4 1.6v2.9l144.9 117.5z" fill="#9e5c26"/><path d="m812 312.3-1.1 12.5-.8-.1-144.9-117.5v-2.9c6.9 0 14.1-.5 21.4-1.6l.2 1 124.4 108.5z" fill="#9e5c26"/><path d="m813 301.4-1 10.9-.9-.1-124.4-108.5-.2-1c4-.6 8.1-1.4 12.2-2.4l1-1c4.6 5.2 9.4 9.7 14.7 12.9.7.8 1.1.9 1.1.9z" fill="#9e5c26"/><path d="m691.5 238.2c15.8 9.3 43.3 33.8 63.4 52.5-26.4-21.6-59.5-25.5-79.8-10.3-20.7 15.5-46.5 22.8-46.5 22.8s-17.2 8.2-42.6 4.3c-32.1-4.9-71.5-20.3-93.1-52.1-7.4-10.9-11.8-23.9-14.4-36.9 2.4 2.1 8 6.6 12.6 8 15.5 4.7 36.1-15.5 42.2-37.5 1.9-6.8 2.1-15.9 2-21.8l35.6 29.5.1-.1c37.3 38.2 95.5 26.9 120.5 41.6z" fill="#ffffc2"/><path d="m704.8 188.2c4.5 16.5 8 22.1 9.6 24-5.3-3.3-10.1-7.7-14.7-12.9-20.2-23.1-35.6-61.6-62.2-81.2-37.9-28-72-10.5-72-10.5s-32.4 37.6-3.9 78c2.9 4.1 6 7.8 9.2 11.1l-.1.1-35.6-29.5c-.1-3.5-.2-5.8-.2-5.8-7.1-49.4 15.9-60.1 25-77.4 2-3.9 3.3-8 3.5-13l1.6-1.3c.7.6 1.5 1.2 2.2 1.8 0 0 37 .9 68.5 21.1 31.7 20.1 57.3 52.1 69.1 95.5z" fill="#9e5c26"/><path d="m565.2 69.7-1.6 1.3c-.2 5-1.5 9.2-3.5 13l-1.6.4c-5.2.4-4 8.5-26.4-.5-6.9-2.8-12.2-3.4-16.2-2.8l-.1-.8c-19.8-23.2-44.6-8-52.5-2.1 3.4-9.6 9.7-20.3 21.4-26.2 26.2-13 43.7-11.2 80.5 17.7z" fill="#9e5c26"/><path d="m515.9 81.1c4-.5 9.3 0 16.2 2.8 22.4 9 21.2 1 26.4.5l1.6-.4c-9 17.4-32 28.1-25 77.4 0 0 .2 2.3.2 5.8.1 5.9-.1 15-2 21.8-6.1 21.9-26.7 42.2-42.2 37.5-4.6-1.4-10.2-6-12.6-8-5-25.1-3.1-49.9-2-58.8 3.1-25.5-6.7-38.6-10.8-42.8.8.1 1.6.2 2.4.4l3.3-11.7-7.5-7s-1.7.4-4.4 1l-.2-1.4s.2-9.3 4-19.9c8-5.9 32.7-21.2 52.5 2.1zm-10.4 6.1c-1.4 1.5-2.3 3.7-2.3 6 0 4.6 3.5 8.4 7.8 8.4s7.8-3.8 7.8-8.4-3.5-8.4-7.8-8.4c-2.1 0-4.1.9-5.5 2.4z" fill="#ef3d27"/><path d="m505.5 87.2c1.4-1.5 3.3-2.4 5.4-2.4 4.3 0 7.8 3.8 7.8 8.4s-3.5 8.4-7.8 8.4-7.8-3.8-7.8-8.4c.1-2.3 1-4.5 2.4-6z" fill="#9e5c26"/><path d="m465.7 117c-14.9-2.2-35.7-4.5-37.4-7.1-1.5-2.2 21.4-7.9 31.2-10.2 2.7-.6 4.4-1 4.4-1l7.5 7-3.3 11.7c-.8-.2-1.6-.3-2.4-.4z" fill="#f6cc4b"/><path d="m459.5 99.6c2.7-.6 4.4-1 4.4-1l7.5 7-3.3 11.7c-.8-.1-1.5-.2-2.4-.4-14.9-2.2-35.7-4.5-37.4-7.1-1.5-2.2 21.3-7.9 31.2-10.2z" fill="none" stroke="#231f20" stroke-width="7.279"/><path d="m464 115.4s.7.5 1.7 1.6c4.1 4.2 13.9 17.3 10.8 42.8-1.1 8.8-3 33.7 2 58.8 2.6 13 7 26 14.4 36.9 21.5 31.9 61 47.2 93.1 52.1 25.4 3.9 42.6-4.3 42.6-4.3s25.9-7.3 46.5-22.8c20.3-15.2 53.3-11.4 79.8 10.3.6.4 1.1.9 1.6 1.4" fill="none" stroke="#231f20" stroke-width="7.279"/><path d="m518.7 93.2c0 4.6-3.5 8.4-7.8 8.4s-7.8-3.8-7.8-8.4c0-2.4.9-4.5 2.3-6s3.3-2.4 5.4-2.4c4.4 0 7.9 3.8 7.9 8.4z" fill="none" stroke="#231f20" stroke-width="10.3401"/><path d="m504.5 89.1s.3-.8 1.1-1.9c1.4-2.1 4.5-5.3 10.4-6.1 4-.5 9.3 0 16.2 2.8 22.4 9 21.2 1 26.4.5" fill="none" stroke="#231f20" stroke-width="7.279"/><path d="m716.5 213.4c-.7-.4-1.3-.8-2-1.2-5.3-3.3-10.1-7.7-14.7-12.9-20.2-23.1-35.6-61.6-62.2-81.2-37.9-28-72-10.5-72-10.5s-32.4 37.6-3.9 78c2.9 4.1 6 7.8 9.2 11.1 37.3 38.1 95.5 26.8 120.5 41.5 15.8 9.3 43.3 33.8 63.4 52.5 14.3 13.3 24.9 23.8 24.9 23.8l29.3 30.6 1.8-20.3 1.1-12.5 1-10.9-97.4-88.2s-.4-.1-1.1-.9c-1.7-1.9-5.1-7.5-9.6-24-11.8-43.4-37.5-75.4-68.9-95.6-31.5-20.3-68.5-21.1-68.5-21.1-.8-.6-1.5-1.2-2.2-1.8-36.8-28.9-54.3-30.7-80.5-17.6-11.7 5.8-18 16.5-21.4 26.2-3.8 10.6-4 19.9-4 19.9" fill="none" stroke="#231f20" stroke-width="7.279"/><path d="m665.2 207.2 144.9 117.5" fill="none" stroke="#231f20" stroke-width="7.279"/><path d="m686.7 203.7 124.4 108.5" fill="none" stroke="#231f20" stroke-width="7.279"/><path d="m612.9 310-20.1 41.4-1.7 2-.7.9c-5.3 1.5-9.1 4.7-13.7 7.6.4 2.8 4.2 8.8 4.2 8.8" fill="none" stroke="#231f20" stroke-linecap="round" stroke-linejoin="round" stroke-width="10.9185"/><path d="m591.5 353.5c-.1-.1-.2-.1-.3-.2-4.9-2.2-13.3-1.5-18.3-.4-4.2.9-4.8 1-6.1 5-.9 2.9.4 7.4 1.3 10.3" fill="none" stroke="#231f20" stroke-linecap="round" stroke-linejoin="round" stroke-width="10.9185"/><path d="m563.5 304.8-17.5 32.8-1.7 2-.7.9c-5.3 1.5-9.1 4.7-13.7 7.6.4 2.8 4.2 8.8 4.2 8.8" fill="none" stroke="#231f20" stroke-linecap="round" stroke-linejoin="round" stroke-width="10.9185"/><path d="m544.6 339.8c-.1-.1-.2-.1-.3-.2-4.9-2.2-13.3-1.5-18.3-.4-4.1.9-4.8 1-6 5-.9 2.9-1.3 6-.4 8.9" fill="none" stroke="#231f20" stroke-linecap="round" stroke-linejoin="round" stroke-width="10.9185"/><path d="m563.5 71c-.2 5-1.5 9.2-3.5 13-9 17.4-32 28.1-25 77.4 0 0 .2 2.3.2 5.8.1 5.9-.1 15-2 21.8-6.1 21.9-26.7 42.2-42.2 37.5-4.6-1.4-10.2-6-12.6-8-.7-.6-1.1-1-1.1-1" fill="none" stroke="#231f20" stroke-width="7.279"/><path d="m604 193.4s27 11 61.2 10.9c6.9 0 14.1-.5 21.4-1.6 4-.6 8.1-1.4 12.2-2.4" fill="none" stroke="#231f20" stroke-width="7.279"/><path d="m534.5 166.6.8.7 35.6 29.5" fill="none" stroke="#231f20" stroke-width="7.279"/><path d="m416.8 438.4 10.6 12.5-9.5 28.2-12-28.1.7-1.3c1.3 0 10.2-11.3 10.2-11.3z" fill="#fbed24"/><path d="m385.4 420.5c8.1 0 14.7 5.5 14.7 12.4 0 6.8-6.6 12.4-14.7 12.4s-14.7-5.5-14.7-12.4 6.6-12.4 14.7-12.4zm4.6 12.9c0-2.6-2.4-4.8-5.4-4.8s-5.4 2.1-5.4 4.8 2.4 4.8 5.4 4.8 5.4-2.2 5.4-4.8z" fill="#fbed24"/><path d="m448.2 418.2c8.1 0 14.7 5.5 14.7 12.4s-6.6 12.4-14.7 12.4-14.7-5.5-14.7-12.4 6.6-12.4 14.7-12.4zm6.2 12.9c0-2.6-2.4-4.8-5.4-4.8s-5.4 2.1-5.4 4.8 2.4 4.8 5.4 4.8 5.4-2.2 5.4-4.8z" fill="#fbed24"/><path d="m638.2 753.7c1 8.3-10.2 5.6-24.4-.3-4.3-1.8-12.4-12-21.6-25.3-20.8-30.2-47.1-76.4-47.1-76.4l.2-.4c29.1 15.7 57.7 29.8 68.2 35l-.4.8c25.9 60 24 58 25.1 66.6z" fill="#9c5c25"/><path d="m420.7 497.3c5-1.7 10-3.2 15.1-4.8 4.3-1.3 8.6-2.6 13.1-4.1 18.4-6 45.3-.5 47.5-1 1 .3 39.3 18.8 71 75s56.5 77.6 63.4 83.6c14.9 12.9 33.7 38.6 24.4 47.2-9.2 8.6-31.7 2.3-37.7-5 0 0-1.5-.7-4.2-2.1-10.5-5.2-39.1-19.3-68.2-35-27.3-14.7-55.2-30.7-69.3-41.9-46.6-37-61.8-108.4-61.8-108.4l-.4-1.2c2.5-.7 4.8-1.5 7.1-2.3z" fill="#9c5c25"/><path d="m400.1 432.9c0-6.8-6.6-12.4-14.7-12.4s-14.7 5.5-14.7 12.4c0 6.8 6.6 12.4 14.7 12.4s14.7-5.6 14.7-12.4zm27.3 18-10.6-12.5s-8.9 11.3-10.2 11.3l-.7 1.3 12 28.1zm20.8-32.7c-8.1 0-14.7 5.5-14.7 12.4s6.6 12.4 14.7 12.4 14.7-5.5 14.7-12.4-6.6-12.4-14.7-12.4zm38.1 25.3c-.9 4.1-1.7 8.6-3.8 12.7-2.2 4.3-6 8.1-9 11.9-4.6 5.7-9.9 10.6-15.9 14.9-5.2 3.7-16 7.3-21.8 9.4v.1c-5.1 1.6-10.1 3.1-15.1 4.8-2.6-.2-5.5.6-8.1.7-4.1 0-8.3.2-12.3-.4-6.9-1-13.6-2.6-20.2-4.8-7.4-2.4-14-7.8-19.7-13-.8-.7-7.8-6.7-9.1-19.3h-.1c-.1-13.7 1.9-28.3 7.8-41.1 13.9-30.1 53.9-26.1 53.9-26.1s51.2-10.2 66.1 25.8c3.5 8.6 5.8 16.8 7.3 24.4z" fill="#fff5b4"/><path d="m457.6 483c6-4.3 11.3-9.2 15.9-14.9 3.1-3.8 6.8-7.6 9-11.9 2.1-4.1 2.9-8.7 3.8-12.7 4.8 23.9 2.2 41.2 10.1 43.9-2.2.5-29.1-4.9-47.5 1-4.5 1.5-8.8 2.8-13.1 4.1v-.1c5.8-2.1 16.6-5.6 21.8-9.4z" fill="#9c5c25"/><path d="m412.6 498c2.6 0 5.5-.9 8.1-.7-2.3.8-4.6 1.6-6.9 2.4-2.7 1-5.4 2-8.2 3.2-12.4 5.2-35.1 9.5-46.6.6l-.7.1c-3.3-9.1-7-25.4-7.2-43.2h.1c1.2 12.6 8.2 18.6 9.1 19.3 5.6 5.1 12.3 10.5 19.7 13 6.6 2.2 13.3 3.8 20.2 4.8 4.2.7 8.3.5 12.4.5z" fill="#9c5c25"/><path d="m359 503.6c11.5 8.9 34.2 4.5 46.6-.6 2.8-1.1 5.5-2.2 8.2-3.2l.4 1.2s15.2 71.4 61.8 108.4c14 11.1 41.9 27.2 69.3 41.9l-.2.4s26.3 46.2 47.1 76.4l-.2.2c-.4-.5-5.1-6.4-22.4-15.5-18.2-9.6-41.3-6.3-41.3-6.3s9.2 18.8 8.6 26.1c-.7 8-17.4 46.4-21 57.6-.7 2.3-1.4 4.6-2.2 6.9-.6 1.7-1.8 5-3.2 7.7l-2.4-1-9.1-3.4 2.5-11.2s2.9-26.3 3.1-47.9h-.1l-20 57.5-10-2.5c2.1-11.6 5.8-35.5 3.9-56.3-2.6-28.7-35.3-57.5-35.3-57.5-42.9-40-76.7-118.2-80.3-131.2-3.8-13.7-2.4-42.4-4-46.6-.1-.3-.2-.6-.3-.9z" fill="#fff5b4"/><path d="m449 426.3c3 0 5.4 2.1 5.4 4.8s-2.4 4.8-5.4 4.8-5.4-2.1-5.4-4.8 2.4-4.8 5.4-4.8z" fill="#231f20"/><path d="m384.6 428.6c3 0 5.4 2.1 5.4 4.8 0 2.6-2.4 4.8-5.4 4.8s-5.4-2.1-5.4-4.8 2.4-4.8 5.4-4.8z" fill="#231f20"/><path d="m406.6 449.7c1.3 0 10.2-11.3 10.2-11.3l10.6 12.5-9.5 28.2-12-28.1z" fill="none" stroke="#231f20" stroke-width="7.9285"/><path d="m427.7 449.5c3.9 1.7-3.7-24 10.3-30.5 21.5-9.9 29.7 5.3 29.7 5.3" fill="none" stroke="#231f20" stroke-width="7.9285"/><path d="m462.9 430.6c0 6.8-6.6 12.4-14.7 12.4s-14.7-5.5-14.7-12.4 6.6-12.4 14.7-12.4 14.7 5.5 14.7 12.4z" fill="none" stroke="#231f20" stroke-width="7.9285"/><path d="m406.2 450.3c-4.5 1.9 3.8-22.4-10.5-29-21.5-9.9-29.7 5.3-29.7 5.3" fill="none" stroke="#231f20" stroke-width="7.9285"/><path d="m370.7 432.9c0 6.8 6.6 12.4 14.7 12.4s14.7-5.5 14.7-12.4c0-6.8-6.6-12.4-14.7-12.4s-14.7 5.5-14.7 12.4z" fill="none" stroke="#231f20" stroke-width="7.9285"/><path d="m414.2 500.9s15.2 71.4 61.8 108.4c14 11.1 41.9 27.2 69.3 41.9 29.1 15.7 57.7 29.8 68.2 35 2.7 1.3 4.2 2.1 4.2 2.1 5.9 7.3 28.4 13.5 37.7 5 9.2-8.6-9.6-34.4-24.4-47.2-6.9-6-31.7-27.4-63.4-83.6s-70-74.7-71-75c-7.9-2.6-5.3-19.9-10.1-43.9-1.5-7.6-3.8-15.8-7.4-24.5-14.9-36-66.1-25.8-66.1-25.8s-40-4-53.9 26.1c-5.9 12.8-7.9 27.4-7.8 41.1.1 17.8 3.8 34.1 7.2 43.2.1.3.2.6.3.9 1.6 4.1.2 32.9 4 46.6 3.6 13 37.3 91.2 80.3 131.2 0 0 32.7 28.7 35.3 57.5 1.9 20.8-1.7 44.8-3.9 56.3-.8 4.4-1.4 7-1.4 7" fill="none" stroke="#231f20" stroke-width="12.5694"/><path d="m359 503.6c11.5 8.9 34.2 4.5 46.6-.6 2.8-1.1 5.5-2.2 8.2-3.2 2.3-.9 4.6-1.7 6.9-2.4 5-1.7 10-3.2 15.1-4.8 4.3-1.3 8.6-2.6 13.1-4.1 18.4-6 45.3-.5 47.5-1" fill="none" stroke="#231f20" stroke-width="12.5694"/><path d="m351.3 460.5c1.2 12.6 8.2 18.6 9.1 19.3 5.6 5.1 12.3 10.5 19.7 13 6.6 2.2 13.3 3.8 20.2 4.8 4.1.6 8.2.4 12.3.4 2.6 0 5.5-.9 8.1-.7h.1" fill="none" stroke="#231f20" stroke-width="12.5694"/><path d="m435.8 492.4c5.8-2.1 16.6-5.7 21.8-9.4 6-4.3 11.3-9.2 15.9-14.9 3.1-3.8 6.8-7.6 9-11.9 2.1-4.1 2.9-8.7 3.8-12.7.1-.4.1-.7.2-1.1" fill="none" stroke="#231f20" stroke-width="12.5694"/><path d="m545 651.6s26.3 46.2 47.1 76.4c9.2 13.3 17.3 23.5 21.6 25.3 14.2 5.9 25.4 8.6 24.4.3-1-8.6.9-6.6-25.1-66.7" fill="none" stroke="#231f20" stroke-width="12.5694"/><path d="m441.6 651.3s58.5 50.5 61.8 70c.9 5.1 1.1 12.2 1.1 19.8-.2 21.6-3.1 47.9-3.1 47.9l-2.5 11.2-1.1 5" fill="none" stroke="#231f20" stroke-width="12.5694"/><path d="m501.2 810.1c2.4-.7 4.8-.1 6.7-1.7.8-.7 1.6-2.1 2.4-3.7 1.4-2.7 2.6-6 3.2-7.7.8-2.3 1.5-4.6 2.2-6.9 3.6-11.2 20.3-49.6 21-57.6.7-7.3-8.6-26.1-8.6-26.1s23.1-3.3 41.3 6.3c17.3 9.1 22 15 22.4 15.5" fill="none" stroke="#231f20" stroke-width="12.5694"/><path d="m481.9 805.9 2.5-7.3 20-57.5" fill="none" stroke="#231f20" stroke-width="12.5694"/><path d="m504.4 806.3-1.9 2.3-.8 1c-.2 0-.3.1-.5.1-5.8 1.8-10.1 5.3-15.3 8.6.5 3.3 4.8 10.2 4.8 10.2" fill="none" stroke="#231f20" stroke-linecap="round" stroke-linejoin="round" stroke-width="8.3796"/><path d="m481.5 808.1c-4.8 1-5.6 1.1-7 5.7-1 3.3.4 8.5 1.5 11.8" fill="none" stroke="#231f20" stroke-linecap="round" stroke-linejoin="round" stroke-width="8.3796"/><path d="m502.9 808.8c-.1-.1-.2-.1-.4-.2-1.4-.7-3.2-1.1-5-1.4-5.1-.7-11.2-.1-15.4.7-.2 0-.4.1-.6.1" fill="none" stroke="#231f20" stroke-linecap="round" stroke-linejoin="round" stroke-width="8.3796"/><path d="m471.5 803.6c-6.1 1.7-11.9 6-17.3 9.4.5 3.3 4.8 10.2 4.8 10.2" fill="none" stroke="#231f20" stroke-linecap="round" stroke-linejoin="round" stroke-width="8.3796"/><path d="m467.3 804.1c-7.7.3-23-.3-24.4 4.3-1 3.3-1.5 6.9-.4 10.3" fill="none" stroke="#231f20" stroke-linecap="round" stroke-linejoin="round" stroke-width="8.3796"/><path d="m273.5 251.4c12.1-7.9 23.3-21 31.7-30.3.3-.4.6-.7 1-1.1 10.6-11.6 19.8-35.5 46-37.6 30.4-2.4 31.1 19.6 37.1 27.5s9.2 14.7 9.2 14.7 0 4.6-5.1-1c-5.1-5.5-9.2-5.5-16.6-5.5 0 0-10.4 1-20.2 16.9-9.9 15.9-12.3 47-15.4 58.8-3.6 13.5-13.2 43.3-44.6 56.5-20.6 8.7-40.8 13.2-57.2 14.8 0 0-17.7 11.9-31.5 14.1l-70 89-20.9-74.8 58.1-37.9c3.2-27.9 13.5-45.9 14.1-46.9l-.2-1.2c-6 1-13.5 1.5-22.6.9-29.4-1.9-33.5-18.6-33.5-18.6-23.5-1.1-24.8-16.6-24.8-20-1.7-.4-3.2-.9-4.8-1.4-25.1-8.2-21.7-23.6-21.7-23.6l.6-1.6c-9.4-3.2-16.8-7.1-20.2-11.5-9.7-12.2-3.6-25-2.5-27.1-5.3-3.7-9.3-7.4-11.3-10.8-8.7-14.7 1-23.6 1-23.6l1.1-1.7c-5.2-4.4-9-8.7-10.7-12.5-6.4-14.1 2.6-25 4.4-26.9-1.9-2.7-3.2-5.3-3.8-7.5-4.8-16.6 6.8-22.8 6.8-22.8l1.8-.4c-.4-1.8-.7-3.5-.8-4.9-.5-8.2 7.2-14.5 10.1-8.7 2.7 5.4 18.5 22.7 20.5 24.8l1.7-.1c-2.4-12.7-1.9-24.5-.1-23.8 2.4 1 3.4 1.4 17.8 37.1s84.3 82.9 97.3 85.8c.5.1 1.1.3 1.8.5 15.8 5.5 72.1 41.8 76.4 42.4zm86.8-43.6c3.2-.5 5.5-3.5 5.1-6.7-.5-3.3-3.5-5.5-6.7-5.1-3.3.5-5.5 3.5-5.1 6.7.4 3.3 3.4 5.6 6.7 5.1z" fill="#fff"/><path d="m365.4 201.1c.5 3.3-1.8 6.2-5.1 6.7s-6.3-1.8-6.7-5.1c-.5-3.3 1.8-6.3 5.1-6.7 3.2-.4 6.2 1.9 6.7 5.1z" fill="#9e5c26"/><path d="m254.1 72.7.7-.2s-2.6-17.4-.3-30.1c2.2-12.7 11.1-15.6 12.5-3.3.8 7 3.4 15.9 6 23.5.5-4.4 2.7-20.5 6.3-31 4.2-12.2 13.4-13.7 12.8-1.3-.3 8.4 1.4 19.8 3 28.6 1.1-2.9 8.8-22.6 15.6-31.8 7.4-10 16.1 3.2 11.2 21.2-4.8 18-18.6 172.5-17.7 171.8l1 .9c-8.4 9.3-19.7 22.4-31.7 30.3-4.3-.6-60.5-37-76.4-42.4 2-8.4 5.4-14.1 6.7-16-2.9-2.8-5.9-6.5-6.6-9.7-.7-3.5 1.8-6.8 3.9-8.9-2-4.4-4-10.5-3.3-14.3 1-5.6 3.6-7.8 5.5-8.7-2-5.3-3.6-12.4-2.8-17.1.6-3.5 3.1-5.8 5.5-7.2-.8-5.3-1.1-12.7 1.7-17.4 3.9-6.4 13.5-4.8 13.5-4.8l2.3.4c-6.1-6.6-7.9-11.6-8.1-19.6-.3-13.2 19-11.9 19-11.9l1.4-.4c-.9-3-1.6-6.8-2-11.3-1-12.9 6.8-17.9 11.3-6.3 2.2 5.3 5.5 11.3 9 17z" fill="#fff"/><g fill="none" stroke="#231f20"><path d="m304.2 220.3c-1 .6 12.8-153.8 17.7-171.8 4.8-18-3.8-31.2-11.2-21.2-6.8 9.2-14.5 28.9-15.6 31.8-.1.2-.1.4-.1.4" stroke-width="8.2623"/><path d="m297.8 71.9s-1.4-5.5-2.8-12.9c-1.7-8.7-3.4-20.2-3-28.6.5-12.4-8.7-10.9-12.8 1.3-3.6 10.5-5.7 26.6-6.3 31-.1.7-.1 1.1-.1 1.1" stroke-width="8.2623"/><path d="m279.1 79.2s-3.1-7.3-6.2-16.5c-2.6-7.6-5.2-16.6-6-23.5-1.4-12.3-10.3-9.4-12.5 3.3s.3 30.1.3 30.1" stroke-width="8.2623"/><path d="m267 91.5s-6.7-8.8-12.9-18.8c-3.5-5.7-6.9-11.7-8.8-16.9-4.4-11.6-12.3-6.6-11.3 6.3.3 4.5 1.1 8.3 2 11.3 1.6 5.7 3.5 8.7 3.5 8.7s8.5 16.4 14.3 22.9" stroke-width="8.2623"/><path d="m221.4 104.9s-9.6-1.6-13.5 4.8c-2.8 4.6-2.5 12.1-1.7 17.4.3 2 .7 3.7 1.1 4.8" stroke-width="8.2623"/><path d="m211.5 125s-2.6.5-5.3 2.1c-2.4 1.4-4.9 3.7-5.5 7.2-.8 4.8.8 11.9 2.8 17.1 1.1 2.9 2.3 5.3 3.2 6.4" stroke-width="8.2623"/><path d="m205.6 150.9s-1 0-2.3.6c-1.9.9-4.5 3.1-5.5 8.7-.7 3.8 1.3 9.8 3.3 14.3 1.1 2.3 2.1 4.2 2.8 5.1" stroke-width="8.2623"/><path d="m203.8 193c.8.7 1.5 1.4 2.2 2 1.4 1.1 2.6 2 3.3 2.4" stroke-width="8.2623"/><path d="m203.7 172.2s-1.2.8-2.5 2.2c-2.1 2.1-4.6 5.4-3.9 8.9.7 3.3 3.6 6.9 6.6 9.7" stroke-width="8.2623"/><path d="m204.3 192.3s-.2.2-.5.7c-1.3 1.9-4.8 7.6-6.7 16-.2.7-.3 1.5-.5 2.2" stroke-width="8.2623"/><path d="m234.5 73.8s-19.3-1.3-19 11.9c.2 8 1.9 13.1 8.1 19.6 3.9 4.2 9.7 9 17.9 15.7" stroke-width="8.2623"/><path d="m207.9 129.7s14.1 8.7 32.1 13.5" stroke-width="8.2623"/><path d="m205.4 154.3s16 4.4 34.6 4.1" stroke-width="8.2623"/><path d="m204.1 175.5s16 4.4 34.6 4.1" stroke-width="8.2623"/><path d="m205 194.8s.4.1 1 .3c3.8 1 17.7 4.1 33.6 3.8" stroke-width="8.2623"/><path d="m273.5 251.4c-4.3-.6-60.5-37-76.4-42.4-.7-.2-1.2-.4-1.8-.5-13-2.9-82.9-50.1-97.3-85.8s-15.4-36.1-17.8-37c-1.8-.7-2.3 11.1.1 23.8.8 4.2 1.8 8.4 3.3 12.3" stroke-width="8.2623"/><path d="m273.6 251.4s-.1 0-.2 0" stroke-width="8.2623"/><path d="m78.8 109.8s-.1-.1-.2-.2c-2-2.1-17.8-19.4-20.5-24.8-2.9-5.8-10.6.5-10.1 8.7.1 1.4.4 3.1.8 4.9 2.2 8.9 8.6 22 19 31.2" stroke-width="8.2623"/><path d="m47 98.7s-11.6 6.3-6.7 22.6c.7 2.3 2 4.8 3.8 7.5 11.5 16.9 43.4 40.5 67.5 48.8" stroke-width="8.2623"/><path d="m44.4 128.6s-.1.1-.3.3c-1.8 2-10.8 12.9-4.4 26.9 1.7 3.8 5.5 8.1 10.7 12.5 16.2 13.9 45.9 29 67.9 33.3" stroke-width="8.2623"/><path d="m49.2 170s-9.7 8.9-1 23.6c2 3.4 6 7.1 11.3 10.8 17.4 12.2 49.1 24.4 71.7 26.3" stroke-width="8.2623"/><path d="m59.7 204.1s-.1.1-.2.3c-1.2 2.2-7.2 15 2.5 27.1 3.4 4.4 10.8 8.3 20.2 11.5 19.5 6.7 47.7 10.5 67.6 9.5" stroke-width="8.2623"/><path d="m81.6 244.7s-3.4 15.4 21.7 23.6c1.5.5 3.1 1 4.8 1.4 18.6 4.8 45 5.2 62.7-1.9" stroke-width="8.2623"/><path d="m108.1 269v.6c0 3.4 1.4 18.9 24.8 20 19.5.9 45.9 1.2 60-7.7" stroke-width="8.2623"/><path d="m132.9 289.6s4.1 16.7 33.5 18.6c9.1.6 16.6.1 22.6-.9 13.3-2.2 19.3-6.8 19.3-6.8" stroke-width="8.2623"/><path d="m189.2 308.6c-.6 1-10.9 18.9-14.1 46.9l-58.1 37.9 20.9 74.8 70-89c13.8-2.2 31.5-14.1 31.5-14.1 16.4-1.6 36.6-6.1 57.2-14.8 31.3-13.2 41-43 44.6-56.5 3.2-11.8 5.5-42.9 15.4-58.8s20.2-16.9 20.2-16.9c7.5 0 11.6 0 16.6 5.5 5.1 5.5 5.1 1 5.1 1s-3.1-6.7-9.2-14.7c-6-7.9-6.7-29.9-37.1-27.5-26.2 2.1-35.4 26-46 37.6-.3.3-.6.7-1 1.1-8.4 9.3-19.7 22.4-31.7 30.3-3 2-6.1 3.6-9.2 4.8" stroke-width="8.2623"/><path d="m125.3 415.2 58.5-50.4" stroke-width="8.2623"/><path d="m133.4 442.8 63.2-70.9" stroke-width="8.2623"/><path d="m232.1 371 9.4 25.2 1.4 1.7.6.7c4.6 1.3 7.8 4 11.8 6.5-.3 2.4-3.6 7.6-3.6 7.6" stroke-linecap="round" stroke-linejoin="round" stroke-width="8.2623"/><path d="m242.7 398c.1 0 .2-.1.3-.1 4.2-1.9 11.4-1.3 15.7-.4 3.6.8 4.2.8 5.2 4.3.8 2.5-.3 6.3-1.2 8.9" stroke-linecap="round" stroke-linejoin="round" stroke-width="8.2623"/><path d="m252.4 368.1 12.8 24.1 1.4 1.7.6.7c4.6 1.3 7.8 4 11.8 6.5-.4 2.4-3.6 7.6-3.6 7.6" stroke-linecap="round" stroke-linejoin="round" stroke-width="8.2623"/><path d="m266.3 394c.1 0 .2-.1.3-.1 4.2-1.9 11.4-1.3 15.7-.4 3.6.8 4.2.8 5.2 4.3.8 2.5 1.1 5.2.3 7.7" stroke-linecap="round" stroke-linejoin="round" stroke-width="8.2623"/><path d="m365.4 201.1c.5 3.3-1.8 6.2-5.1 6.7s-6.3-1.8-6.7-5.1c-.5-3.3 1.8-6.3 5.1-6.7 3.2-.4 6.2 1.9 6.7 5.1z" stroke-width="4.1311"/></g></svg>