<svg enable-background="new 0 0 850.4 850.4" height="850.4" viewBox="0 0 850.4 850.4" width="850.4" xmlns="http://www.w3.org/2000/svg"><path d="m540.1 624h1.2c2.7-.9 5.6-1.3 8.8-.8 12.3 2 10.6 15.8 7.3 22.7-8.2 16.8-4.5 23-5.5 35.8-.4 4.9-5.9 14.3-17.5 12.1l-.6-.2c4.1-14.4 6.6-29.6 6.6-45.1 0-8.5-.1-14.5-.4-24.6z" fill="#ffeec8"/><path d="m541.2 624h-1.2c-.1-.3-.1-.5-.2-.8-4.2-17-22.7-31.6-27.5-38.1-25.6-35.3-44.9-48.6-49.7-51.5-.7-.5-1.1-.7-1.1-.7s-.1.1-.1.1c-10.1 7-36.3 17.3-57.1 25.6l-.1.5c-7.8-1.7-15.5-3.4-22.2-5-12.7-3.1-21.9-5.7-22.6-7.2-2.5-4.9 18.9-7.1 18.9-7.1 2.9.1 5.4-.2 7.5-.7 14.8-3.5 11-20.1 4.7-18.2-16.3 4.8-30.3-3.6-41.5-3.1 10.1-12.1 15.8-16.1 15.8-16.1 5.3-3.6 8.8-5.4 8.8-5.4 23.2-13.8 53.1-18.6 91.4-14.2 46.2 5.4 81.6 51.3 88.3 108.6 1.1 9.3-1.7 22.8-3.4 32.6-3-.6-6-.2-8.7.7z" fill="#9c5c25"/><path d="m499.8 637.9-.6 1.9c.4 1 .3 1.8.3 3.5 0 6.3-5.4 11.5-12 11.5s-12-5.1-12-11.5c0-.9-.1-1.3-.1-1.7l-2.2-1c4.3-3.2 9.6-5.2 14.9-5.3 4.2-.1 8.1.9 11.7 2.6zm-8 5.5c0-2.1-1.9-3.9-4.3-3.9s-4.3 1.7-4.3 3.9c0 2.1 1.9 3.9 4.3 3.9s4.3-1.7 4.3-3.9z" fill="#fff"/><path d="m492.4 580.5c-1.4 3.6-.8 5.1 1 6.9 1.9 1.9 3.9 5.4 1.1 7.8-3 2.6-6.7-.7-7.1-3.9-.5-4.5 1.3-7.9 4.7-10.9z" fill="#a8d7f4"/><path d="m487.5 639.6c2.4 0 4.3 1.7 4.3 3.9 0 2.1-1.9 3.9-4.3 3.9s-4.3-1.7-4.3-3.9c-.1-2.2 1.9-3.9 4.3-3.9z" fill="#231f20"/><path d="m453.5 609.4c1.1.3 2 .5 2.7.7 6.4 1.9 3.9 11.2 3.9 11.2-3.3 3.4-4.8 5.1-15.7 3.6-4.6-.6-10.6-1.3-17.2-2.1 6.2 3.9 7.7 3.4 5.8 12.8-.9 4.7-20.2 2.7-38.9 1-2.1-.6-4.2-1-6.4-1-1.3 0-2.5 0-3.7.2-2.9-.2-5.7-.4-8.3-.5-7.2-.3-23.9-3.9-43-8.7-3.8-1-7.8-2-11.8-3-35.6-9.2-74.3-20.5-74.3-20.5l1.1-1.9 6.6-70.8s47.3 8.2 56 2.4 27.7-14.5 38.9-15 25.1 7.9 41.5 3.1c6.3-1.8 10.2 14.7-4.7 18.2-2.1.5-4.6.7-7.5.7 0 0-21.4 2.3-18.9 7.1.8 1.5 10 4.1 22.6 7.2 6.7 1.6 14.3 3.3 22.2 5 14.8 3.2 30.5 6.3 41.9 8.6 9 1.8 15.4 3 16.8 3.3 10.6 2.1 7.7 20.2-5.1 18.9 5.3 1.1 9.7 1.9 12.6 2.5 6.6 1.3 3.7 12 3.7 12-3.7 5.5-10 6.7-20.8 5z" fill="#ffeec8"/><path d="m440.2 719.4c-.2 0-.3.1-.5.1l1-.1c-.2 0-.3 0-.5 0zm4.1-94.4c11 1.4 12.4-.2 15.7-3.6 0 0 2.6-9.3-3.9-11.2-.7-.2-1.7-.5-2.7-.7 10.8 1.7 17.1.5 20.8-5 0 0 2.9-10.7-3.7-12-2.9-.6-7.3-1.5-12.6-2.5 12.8 1.3 15.7-16.8 5.1-18.9-1.4-.3-7.8-1.5-16.8-3.3-11.5-2.3-27.1-5.4-41.9-8.6l.1-.5c20.7-8.3 46.9-18.6 57.1-25.6.2.2.7.4 1.3.6 4.8 2.9 24.1 16.2 49.7 51.5 4.7 6.6 23.2 21.1 27.5 38.1v.8c.3 10.1.4 16 .4 24.6 0 15.4-2.4 30.6-6.6 45.1-12.8 44.6-41.8 81.9-65 96.7-11.4 5.5-20 4.7-33.2 4.7-12.2 0-20 1.2-30.6-3.5-25-14-54.5-51.5-67.4-96.8-4.2-14.7-6.7-30.3-6.7-46.2 0-4.7 1.2-11.9 1.3-19.8l.5-2.1c19.1 4.8 35.8 8.4 43 8.7 2.6.1 5.4.3 8.3.5-3.5.4-6.7 1.5-9.7 3.2l2.1 1.4c-.3.9-.2 1.7-.2 3.3 0 6.3 5.4 11.5 12 11.5s12.8-7.4 12.8-13.8l.9-1.1c-2.4-1.7-5-3-7.9-3.8 18.7 1.7 38 3.7 38.9-1 1.9-9.4.4-8.9-5.8-12.8 6.6.7 12.6 1.5 17.2 2.1zm55.5 12.9c-3.6-1.7-7.6-2.7-11.8-2.6-5.2.1-10.6 2.1-14.9 5.3l2.2 1c0 .4.1.8.1 1.7 0 6.3 5.4 11.5 12 11.5s12-5.1 12-11.5c0-1.7.1-2.5-.3-3.5zm-5.3-42.8c2.8-2.4.8-5.9-1.1-7.8-1.8-1.7-2.3-3.3-1-6.9l-.3-.2c-3.4 3-5.3 6.4-4.7 10.9.3 3.3 4 6.6 7.1 4zm-127.5 101c2.8-2.4.8-5.9-1.1-7.8-1.8-1.7-2.3-3.3-1-6.9l-.3-.2c-3.4 3-5.3 6.4-4.7 10.9.4 3.3 4.1 6.6 7.1 4z" fill="#ffeec8"/><path d="m388.1 639.6c2.4 0 4.3 1.7 4.3 3.9 0 2.1-1.9 3.9-4.3 3.9s-4.3-1.7-4.3-3.9c-.1-2.2 1.9-3.9 4.3-3.9z" fill="#231f20"/><path d="m383.9 635.8c1.9.1 3.8.3 5.8.5 1.4.1 2.9.2 4.3.4 2.8.8 5.5 2.1 7.9 3.8l-.9 1.1c0 6.3-6.2 13.6-12.8 13.6s-12-5.1-12-11.5c0-1.6-.1-2.4.2-3.3l-2.1-1.4c2.9-1.6 6.2-2.7 9.6-3.2zm8.5 7.7c0-2.1-1.9-3.9-4.3-3.9s-4.3 1.7-4.3 3.9c0 2.1 1.9 3.9 4.3 3.9 2.4-.1 4.3-1.8 4.3-3.9z" fill="#fff"/><path d="m364.9 681.5c-1.4 3.6-.8 5.1 1 6.9 1.9 1.8 3.9 5.4 1.1 7.8-3 2.6-6.7-.7-7.1-3.9-.5-4.5 1.3-7.9 4.7-10.9z" fill="#a8d7f4"/><path d="m337.5 694.7-1.1.3c-11.6 2.2-17.1-7.2-17.5-12.1-1-12.8 2.7-19-5.5-35.8-3.4-6.9-5-20.7 7.3-22.7l.2-.8c4 1 7.9 2 11.8 3l-.5 2.1c-.1 7.9-1.3 15.2-1.3 19.8-.1 15.9 2.4 31.5 6.6 46.2z" fill="#ffeec8"/><g fill="none"><path d="m446.2 567.7c9 1.8 15.4 3 16.8 3.3 10.6 2.1 7.7 20.2-5.1 18.9m-75.7-35.8c6.7 1.6 14.3 3.3 22.2 5 14.8 3.2 30.5 6.3 41.9 8.6m-60.4-28.6c-2.1.5-4.6.7-7.5.7 0 0-21.4 2.3-18.9 7.1.8 1.5 10 4.1 22.6 7.2m-127.8-23.7s47.3 8.2 56 2.4 27.7-14.5 38.9-15 25.1 7.9 41.5 3.1c6.3-1.8 10.2 14.7-4.7 18.2m3.7 97.2c1.4.1 2.9.2 4.3.4 18.7 1.7 38 3.7 38.9-1 1.9-9.4.4-8.9-5.8-12.8-.1-.1-.3-.2-.4-.3" stroke="#231f20" stroke-width="9.639"/><path d="m246.6 603.1s38.7 11.3 74.3 20.5c4 1 7.9 2 11.8 3 19.1 4.8 35.8 8.4 43 8.7 2.6.1 5.4.3 8.3.5 1.9.1 3.8.3 5.8.5m63.6-26.9c-16.3-3.9-68.5-12.2-68.5-12.2m-24 18s38.7 4.3 66.2 7.6c6.6.8 12.6 1.5 17.2 2.1 11 1.4 12.4-.2 15.7-3.6 0 0 2.6-9.3-3.9-11.2-.7-.2-1.7-.5-2.7-.7" stroke="#231f20" stroke-width="9.639"/><path d="m453.4 609.4h.1c10.8 1.7 17.1.5 20.8-5 0 0 2.9-10.7-3.7-12-2.9-.6-7.3-1.5-12.6-2.5-30.1-6-90.5-17.9-90.5-17.9" stroke="#231f20" stroke-width="9.639"/><path d="m362.7 648.8c3.3-4 7.2-7.4 11.6-9.8 3-1.6 6.2-2.7 9.7-3.2 1.2-.2 2.4-.2 3.7-.2 2.1.1 4.3.4 6.4 1 2.8.8 5.5 2.1 7.9 3.8 2.8 2 5.3 4.6 6.9 7.5" stroke="#231f20" stroke-linecap="square" stroke-miterlimit="10" stroke-width="6.426"/><path d="m401 641.6c0 6.3-6.2 13.6-12.8 13.6s-12-5.1-12-11.5c0-1.6-.1-2.4.2-3.3m136.6 8.1c-3.7-4.4-8.1-8.2-13.2-10.6-3.6-1.7-7.6-2.7-11.8-2.6-5.2.1-10.6 2.1-14.9 5.3-2.6 1.9-4.7 4.3-6.3 7" stroke="#231f20" stroke-linecap="square" stroke-miterlimit="10" stroke-width="6.426"/><path d="m475.4 641.7c0 .4.1.8.1 1.7 0 6.3 5.4 11.5 12 11.5s12-5.1 12-11.5c0-1.7.1-2.5-.3-3.5" stroke="#231f20" stroke-linecap="square" stroke-miterlimit="10" stroke-width="6.426"/><path d="m320.6 624.5c-12.3 2-10.6 15.8-7.3 22.7 8.2 16.8 4.5 23 5.5 35.8.4 4.9 5.9 14.3 17.5 12.1m204.9-71.1c2.7-.9 5.6-1.3 8.8-.8 12.3 2 10.6 15.8 7.3 22.7-8.2 16.8-4.5 23-5.5 35.8-.4 4.9-5.9 14.3-17.5 12.1m-123.3 56.1c15.1 6 39.1 5.3 52-.3" stroke="#231f20" stroke-width="9.639"/><path d="m539.9 622v1.3.8c.3 10.1.4 16 .4 24.6 0 15.4-2.4 30.6-6.6 45.1-12.8 44.6-41.8 81.9-65 96.7-11.4 5.5-20 4.7-33.2 4.7-12.2 0-20 1.2-30.6-3.5-25-14-54.5-51.5-67.4-96.8-4.2-14.7-6.7-30.3-6.7-46.2 0-4.7 1.2-11.9 1.3-19.8" stroke="#231f20" stroke-width="9.639"/><path d="m440.2 719.4c5.7-1.1 4.7-4.5 10.8-3 5.3 1.3 10.9 3.9 12.3-4.4.9-5.7-3.4-6.5-5.7-11" stroke="#231f20" stroke-width="6.426"/><path d="m422.2 648.2c9.5 10.4 6.6 35 2.4 47.7l-1.8 5c-2.3 4.6-6.6 5.3-5.7 11 1.3 8.3 6.9 5.6 12.3 4.4 6.1-1.5 4.7 2.8 10.8 3h.5l-1 .1c.2 0 .3-.1.5-.1" stroke="#231f20" stroke-width="6.426"/><path d="m392.4 643.5c0 2.1-1.9 3.9-4.3 3.9s-4.3-1.7-4.3-3.9c0-2.1 1.9-3.9 4.3-3.9s4.3 1.7 4.3 3.9zm99.4-.1c0 2.1-1.9 3.9-4.3 3.9s-4.3-1.7-4.3-3.9c0-2.1 1.9-3.9 4.3-3.9 2.4.1 4.3 1.8 4.3 3.9z" stroke="#231f20" stroke-width="4.304"/><path d="m457.5 626.7c5.1-10.8 25.2-15 35.4-13 9.6 1.9 14.3 3.1 24.3 10.8m-112.8-65.8c20.7-8.3 46.9-18.6 57.1-25.6 0 0 .1-.1.1-.1s.4.2 1.1.7c4.8 2.9 24.1 16.2 49.7 51.5 4.7 6.6 23.2 21.1 27.5 38.1.1.3.1.5.2.8.3 1.5.6 3.1.7 4.7" stroke="#231f20" stroke-width="9.639"/><path d="m550.1 623.3c1.6-9.8 4.5-23.3 3.4-32.6-6.7-57.2-42.2-103.2-88.3-108.6-38.2-4.5-68.2.4-91.4 14.2 0 0-3.5 1.8-8.8 5.4 0 0-5.8 4-15.8 16.1" stroke="#231f20" stroke-width="9.639"/><path d="m470 534.6c-1.1 0-5.1-.3-7.3-.9-.6-.2-1-.4-1.3-.6-.1-.1-.1-.2-.2-.2 6.6-6.4 11.8-16.9 11.8-27.6" stroke="#231f20" stroke-width="9.639"/><path d="m364.6 681.3c-3.4 3-5.3 6.4-4.7 10.9.4 3.3 4.1 6.5 7.1 3.9 2.8-2.4.8-5.9-1.1-7.8-1.8-1.7-2.3-3.3-1-6.9zm127.5-101c-3.4 3-5.3 6.4-4.7 10.9.4 3.3 4.1 6.5 7.1 3.9 2.8-2.4.8-5.9-1.1-7.8-1.8-1.7-2.3-3.3-1-6.9z" stroke="#231f20" stroke-width="8.6085"/></g><path d="m771.7 404.7c-11.4 2.6-20.7 6.6-31.9 9.9-17.1 5.1-36 8.5-53.8 8.8-41 .7-84.2 4.6-122.3-13 10-10 12.2-10.4 14.8-23.3 18.8 7.7 50.9 6.3 63.6-1.5 27-16.6 47.8-31.1 59.4-47.8l.4.3c-.2 25.5 19.3 39.6 19.3 39.6 12.9 14.9 37.7 13 50.5 27zm-30.6-177.4c2.8 4.4 1.2 9.6.4 18.8-1.6 19.6-9.3 40.3-14.3 45.3-5.2 5.2-8.8 4.1-13.1-.2.4-8.3.4-18.2.1-32.4-.1-3.8-.2-7.9-.3-12.3v-.1c0-.6 0-1.3-.1-1.9.3-11.7 9.9-28.8 21.2-22.3 3.1 1.7 4.9 3.4 6.1 5.1z" fill="#ffeec8"/><path d="m512.5 255.5c-8.6-3.1-10.1-10.7-10.1-10.7-2.1-28.6-3.4-86.8 18.7-116 44.9-59.3 85.8-60.7 150-49 48.7 8.9 80.4 58.7 69.9 147.5-1.1-1.8-3-3.4-6-5.1-11.3-6.5-20.9 10.7-21.2 22.3 0 .7 0 1.3.1 1.9v.1c.1 4.4.2 8.5.3 12.3h-1c-8.7-12.9-2.2-54.5-15.5-67.8-13.2-13.2-22.7-49.2-22.7-49.2-.2-.1-.5-.3-.7-.4-5.6-2.5-15 4-20.1 6.9-7.9 4.5-12.1 2.9-30.7 10.1-23.9 9.2-44.1-18.2-92.8 8.2l-11 33.8c-5.7 23.5 1.1 34.1 1.1 44.8v11.6c-3.2 0-6-.5-8.3-1.3z" fill="#9e5b16"/><path d="m536.4 241.7c4.8 4.4 9.9 7.5 20 7.9h.5c10.3.3 16-2.6 17.3-2.9 3.5-.9 2.6 2.7 4.4 1.6 2.1-1.3.5-2.7-.7-4.8-2.7-4.9-7.1-8.4-12.2-10.2-2.6-.9-5.4-1.4-8.3-1.4-3.9 0-7 .4-9.5 1.1-4.7 1.4-7.7 4.3-11.5 8.7zm42.1 145.4c-4-1.6-7.4-3.7-9.8-6.2-10.6-10.6-16.1-18.4-27.4-38.4-4.4-7.7-15.7-24.6-18.8-49.8-.5-4-.8-8.1-1.1-12.1-.5-8-.5-15.9-.5-23.8 0-3.9 0-7.8 0-11.6 0-10.7-6.8-21.3-1.1-44.8l11-33.8c48.7-26.4 68.9 1 92.8-8.2 18.6-7.2 22.8-5.6 30.7-10.1 5.1-2.9 14.5-9.4 20.1-6.9.2.1.5.2.7.4 0 0 9.5 35.9 22.7 49.2 13.2 13.2 6.8 54.9 15.5 67.8h1c.3 14.2.3 24.1-.1 32.4-.5 9-1.5 16.1-3.1 24.6-1.5 7.8-4.8 15-9.5 21.8-11.7 16.7-32.5 31.2-59.4 47.8-12.8 8-44.9 9.4-63.7 1.7zm6.2-85.6c-1.9-1-3.4-2.1-4.3-3.6-3-4.8-1.5-9.2.4-13.8-3.2 1.9-8.2 12.8 3.9 17.4zm61.1-51.7c6.5 0 15.5-2.5 20.3-7-4.9-5.9-8.1-9.6-13.9-10.9-1.8-.4-3.9-.6-6.4-.5-2.4.1-4.8.4-7.1 1.1-6 1.7-11.5 5.3-14.5 10.6-1.2 2.1-2.7 3.5-.7 4.8 1.7 1.1 1.7-1.8 3.6-.9 1.2.6 10.2 2.7 17.8 2.9.4-.1.6-.1.9-.1zm-31.3 96.7c13.8-1.2 18.7-4.4 28.9-.8-8.5-8.5-18.9-18.3-27.6-19.2-6.6-.7-10 4-16 1.3-11.6-5.2-20.5 3.2-32.2 14.9 9.5-3.6 11.4.6 18.5 2.2 8.2 2 20.2 2.3 28.4 1.6z" fill="#ffeec8"/><path d="m666.1 242.9c-4.8 4.5-13.9 7-20.3 7-.3 0-.5 0-.8 0v-.9c6.8 0 14.4-8.1 7-16.3l.1-.6c5.9 1.2 9.1 4.9 14 10.8z" fill="#fff"/><path d="m652.1 232.6c7.4 8.2-.3 16.3-7 16.3-6.8 0-13.7-9.4-6-15.5l-.2-.9c2.3-.6 4.7-1 7.1-1.1 2.5-.1 4.5.1 6.4.5zm0 7c0-3.2-3-5.9-6.7-5.9s-6.7 2.6-6.7 5.9 3 5.9 6.7 5.9 6.7-2.6 6.7-5.9z" fill="#9e5b16"/><path d="m645.4 233.7c3.7 0 6.7 2.6 6.7 5.9s-3 5.9-6.7 5.9-6.7-2.6-6.7-5.9c0-3.2 3-5.9 6.7-5.9zm2.8 6c0-1.6-1.2-2.9-2.7-2.9s-2.7 1.3-2.7 2.9 1.2 2.9 2.7 2.9c1.5.1 2.7-1.2 2.7-2.9z"/><path d="m645.5 236.8c1.5 0 2.7 1.3 2.7 2.9s-1.2 2.9-2.7 2.9-2.7-1.3-2.7-2.9 1.2-2.9 2.7-2.9zm-.5 12.1v.9c-7.6-.1-16.6-2.3-17.8-2.9-1.9-.9-1.9 2-3.6.9-2.1-1.3-.5-2.7.7-4.8 3-5.3 8.5-8.9 14.5-10.6l.2.9c-7.7 6.2-.8 15.6 6 15.6z" fill="#fff"/><path d="m643.4 345.7c-10.2-3.6-15.2-.4-28.9.8-8.2.7-20.2.4-28.3-1.5-7-1.7-8.9-5.9-18.5-2.2 11.7-11.7 20.6-20 32.2-14.9 6 2.7 9.4-2 16-1.3 8.6.8 19 10.6 27.5 19.1z" fill="#fad7d9"/><path d="m578 243.5c1.2 2.1 2.7 3.5.7 4.8-1.7 1.1-.9-2.5-4.4-1.6-1.4.3-7 3.2-17.3 2.9-.2 0-.3 0-.5 0v-.2h.5c6.8 0 13-7.3 8.4-15l.4-1c5 1.7 9.4 5.2 12.2 10.1z" fill="#fff"/><path d="m565.7 233.3-.4 1c4.5 7.7-1.7 15-8.4 15-.2 0-.3 0-.5 0-6.6-.4-12.9-8.1-7.3-15.6l-1.1-.7c2.5-.8 5.6-1.1 9.5-1.1 2.8-.1 5.6.4 8.2 1.4zm-2.2 6.7c0-3.2-3-5.9-6.7-5.9s-6.7 2.6-6.7 5.9 3 5.9 6.7 5.9 6.7-2.6 6.7-5.9z" fill="#9e5b16"/><path d="m556.8 234.1c3.7 0 6.7 2.6 6.7 5.9s-3 5.9-6.7 5.9-6.7-2.6-6.7-5.9c0-3.2 3-5.9 6.7-5.9zm2.7 5.4c0-1.6-1.2-2.9-2.7-2.9s-2.7 1.3-2.7 2.9 1.2 2.9 2.7 2.9 2.7-1.3 2.7-2.9z"/><path d="m556.8 236.6c1.5 0 2.7 1.3 2.7 2.9s-1.2 2.9-2.7 2.9-2.7-1.3-2.7-2.9 1.2-2.9 2.7-2.9zm-.3 12.7v.2c-10.2-.4-15.3-3.4-20-7.9 3.8-4.4 6.8-7.3 11.6-8.7l1.2.8c-5.7 7.5.5 15.3 7.2 15.6z" fill="#fff"/><path d="m581.4 225c-5.5-8.7-5.4-8.3-15.3-8.3-14.9 0-32.8 7.8-42.5 15.3" fill="none" stroke="#000" stroke-width="8.5076"/><path d="m535.3 243c.4-.5.7-.9 1.1-1.3 3.8-4.4 6.8-7.3 11.6-8.7 2.5-.8 5.6-1.1 9.5-1.1 2.9 0 5.7.5 8.3 1.4 5.1 1.8 9.5 5.4 12.2 10.2 1.2 2.1 2.7 3.5.7 4.8-1.7 1.1-.9-2.5-4.4-1.6-1.4.3-7 3.2-17.3 2.9-.2 0-.3 0-.5 0-10.2-.4-15.3-3.4-20-7.9" fill="none" stroke="#000" stroke-linecap="square" stroke-miterlimit="10" stroke-width="4.2787"/><path d="m565.4 234.3c4.5 7.7-1.7 15-8.4 15-.2 0-.3 0-.5 0-6.6-.4-12.9-8.1-7.3-15.6" fill="none" stroke="#000" stroke-linecap="square" stroke-miterlimit="10" stroke-width="2.8359"/><path d="m666.1 242.9c-4.9-5.9-8.1-9.6-13.9-10.9-1.8-.4-3.9-.6-6.4-.5-2.4.1-4.8.4-7.1 1.1-6 1.7-11.5 5.3-14.5 10.6-1.2 2.1-2.7 3.5-.7 4.8 1.7 1.1 1.7-1.8 3.6-.9 1.2.6 10.2 2.7 17.8 2.9h.8c6.5-.2 15.6-2.6 20.4-7.1" fill="none" stroke="#000" stroke-linecap="square" stroke-miterlimit="10" stroke-width="4.2787"/><path d="m639 233.4c-7.7 6.1-.8 15.5 6 15.5s14.4-8.1 7-16.3" fill="none" stroke="#000" stroke-linecap="square" stroke-miterlimit="10" stroke-width="2.8359"/><path d="m741.1 227.3c10.5-88.9-21.3-138.6-69.9-147.5-64.2-11.8-105.1-10.3-150 49-22.1 29.2-20.7 87.4-18.7 116 0 0 1.5 7.5 10.1 10.7 2.3.8 5 1.3 8.4 1.3m193-10.3c0-.6 0-1.3-.1-1.9 0-.2 0-.3 0-.5" fill="none" stroke="#000" stroke-width="8.5076"/><path d="m713.3 258.9c-8.7-12.9-2.2-54.5-15.5-67.8-13.2-13.2-22.7-49.2-22.7-49.2-.2-.1-.5-.3-.7-.4-5.6-2.5-15 4-20.1 6.9-7.9 4.5-12.1 2.9-30.7 10.1-23.9 9.2-44.1-18.2-92.8 8.2l-11 33.8c-5.7 23.5 1.1 34.1 1.1 44.8v11.6c0 7.8 0 15.8.5 23.8.2 4.1.6 8.1 1.1 12.1 3.1 25.3 14.4 42.2 18.8 49.8 11.3 19.9 16.8 27.8 27.4 38.4 2.5 2.5 5.9 4.5 9.8 6.2 18.8 7.7 50.9 6.3 63.6-1.5 27-16.6 47.8-31.1 59.4-47.8 4.8-6.8 8-14 9.5-21.8 1.7-8.6 2.7-15.6 3.1-24.6.4-8.3.4-18.2.1-32.4-.1-3.8-.2-7.9-.3-12.3m-39.4-105.2c4.1-11.8 10.7-23.5 18.7-32.3" fill="none" stroke="#000" stroke-width="8.5076"/><path d="m567.7 342.7c9.5-3.6 11.4.6 18.5 2.2 8.1 2 20.1 2.2 28.3 1.5 13.8-1.2 18.7-4.4 28.9-.8-8.5-8.5-18.9-18.3-27.6-19.2-6.6-.7-10 4-16 1.3-11.5-5-20.4 3.4-32.1 15z" fill="none" stroke="#000" stroke-width="5.4107"/><path d="m573.7 340c13.2-3.6 16.8-3.3 31.2-3.3 11.9 0 16.1 1 29.9 4.8" fill="none" stroke="#000" stroke-width="5.4107"/><path d="m588.6 234.1c1 17.3-1.2 21-5 41.7-.5 2.9-1.7 5.7-2.8 8.4-1.9 4.6-3.4 9-.4 13.8.9 1.4 2.4 2.6 4.3 3.6 5.2 2.6 13.2 3.4 17.6 1.3 6.5-3 6.5-2.4 15.7-.4 5.9 1.3 10.4-2.7 10.4-7.6 0-4.7-1-5.3-3.4-7.7m-44.2-3c-3.2 1.8-8.2 12.7 3.9 17.3" fill="none" stroke="#000" stroke-width="5.6717"/><path d="m616.2 221.6c5.6-11.6 20.7-8.8 29.6-5.8 14 4.8 20 3.1 31.3 14.4m36.9 16.4c-.1-.7-.1-1.4-.1-2 .3-11.7 9.9-28.8 21.2-22.3 2.9 1.7 4.8 3.3 6 5.1 2.8 4.4 1.2 9.6.4 18.8-1.6 19.6-9.3 40.3-14.3 45.3-5.2 5.2-8.8 4.1-13.1-.2m-201.7-36.9c0 .4.1.7.1 1.1 1.7 16.8.2 19.4 8.8 25.1m180.6 57.4c-.2 25.5 19.3 39.6 19.3 39.6 12.9 15 37.6 13 50.5 27.1m-193.1-18.2c0 .2-.1.4-.1.6-2.6 12.9-4.8 13.3-14.8 23.3" fill="none" stroke="#000" stroke-width="8.5076"/><path d="m170 281.7c-3.2 1.8-8.1 12.6 3.9 17.1-1.9-.9-3.4-2.1-4.2-3.5-3-4.7-1.5-9.1.3-13.6zm-2.3 101.7c-3.9-1.6-7.3-3.6-9.7-6.1-10.5-10.5-15.9-18.2-27.1-37.9-4.3-7.6-15.5-24.3-18.6-49.2-.5-4-.8-8-1.1-12-.4-7.9-.5-15.7-.4-23.5 0-3.9 0-7.7 0-11.4 0-10.5-6.7-21-1.1-44.2l10.9-33.4c48.1-26.1 68 1 91.7-8.1 18.4-7.1 22.5-5.5 30.3-9.9 5-2.8 14.3-9.2 19.8-6.8.2.1.5.2.7.4 0 0 9.3 35.5 22.4 48.6s6.7 54.2 15.3 67h1c.3 14 .3 23.8-.1 32-.5 8.9-1.5 15.9-3.1 24.3-1.5 7.7-4.7 14.8-9.4 21.6-11.5 16.5-32.1 30.8-58.7 47.3-12.5 7.5-44.2 8.9-62.8 1.3zm-41.6-143.7c4.7 4.4 9.7 7.4 19.8 7.8h.5c10.2.3 15.8-2.5 17.1-2.9 3.5-.9 2.6 2.6 4.3 1.6 2-1.3.5-2.7-.7-4.7-2.7-4.8-7-8.3-12.1-10.1-2.6-.9-5.3-1.4-8.2-1.4-3.9 0-6.9.4-9.4 1.1-4.5 1.4-7.5 4.2-11.3 8.6zm112.5 72.3c-10.5 1.2-29.5-1.5-39-1.9-8-.4-6.4 2.5-9.3 2.5-5 0-2-2.5-5.7-2.5-8.8.6-24.8 3.1-35 3.1 6.9 0 17.4 20.5 26.2 26.5 6.1 4.2 18.5 5.8 29.6 2 12.5-4.3 23.1-28.6 33.2-29.7zm-4.4-64.3c6.4 0 15.3-2.4 20.1-6.9-4.8-5.8-8-9.5-13.8-10.8-1.8-.4-3.8-.6-6.3-.5-2.4.1-4.7.4-7 1-6 1.6-11.4 5.2-14.3 10.5-1.2 2.1-2.7 3.5-.7 4.7 1.7 1.1 1.7-1.8 3.6-.9 1.2.6 10.1 2.7 17.6 2.8.3.1.5.1.8.1z" fill="#ffeec8"/><path d="m216.5 327.2c6.7-5.8 11.9-12.3 11.9-12.3-10.9 2.8-16.3 2.9-37.6 2.9-14.3 0-19.3.5-33.2-3.1 0 0 4.8 6.7 12.2 12.7 3.6 3 7.8 5.8 12.3 7.6 8.1 3.3 19.5 1.1 22.8-.2 4-1.6 8-4.5 11.6-7.6zm-40.7 12.4c-8.8-6.1-19.3-26.5-26.2-26.5 10.1 0 26.2-2.5 35-3.1 3.7 0 .7 2.5 5.7 2.5 2.9 0 1.4-2.9 9.3-2.5 9.5.5 28.5 3.1 39 1.9-10.1 1.1-20.7 25.5-33.2 29.7-11.1 3.8-23.5 2.2-29.6-2z" fill="#fad7d9"/><path d="m358.6 400.8c-11.3 2.6-20.5 6.5-31.5 9.8-16.9 5-35.5 8.4-53.2 8.7-40.6.7-83.2 4.5-120.9-12.9 9.9-9.9 12.1-10.3 14.6-23 18.6 7.6 50.3 6.2 62.8-1.5 26.6-16.4 47.2-30.8 58.7-47.3l.4.3c-.2 25.2 19.1 39.2 19.1 39.2 12.9 14.7 37.4 12.8 50 26.7zm-30.2-175.3c2.8 4.3 1.2 9.5.4 18.6-1.6 19.4-9.1 39.8-14.1 44.8-5.1 5.1-8.7 4-12.9-.2.4-8.2.4-18 .1-32-.1-3.7-.2-7.8-.3-12.1v-.1c0-.6 0-1.2-.1-1.9.3-11.5 9.8-28.5 20.9-22.1 3 1.6 4.8 3.3 6 5z" fill="#ffeec8"/><path d="m262.6 140.8c-5.5-2.5-14.8 3.9-19.8 6.8-7.8 4.4-12 2.8-30.3 9.9-23.6 9.1-43.6-17.9-91.7 8.1l-11 33.4c-5.6 23.2 1.1 33.7 1.1 44.2v11.4c-3.3 0-6-.5-8.3-1.3-8.5-3.1-10-10.5-10-10.5-2-28.3-3.4-85.8 18.5-114.7 44.4-58.6 84.7-60 148.2-48.4 48.1 8.8 79.5 58 69.1 145.8-1.1-1.8-3-3.4-5.9-5-11.1-6.4-20.6 10.6-20.9 22.1 0 .6 0 1.3.1 1.9v.1c.1 4.4.2 8.4.3 12.1h-1c-8.6-12.8-2.2-53.9-15.3-67s-22.4-48.6-22.4-48.6c-.3-.1-.5-.2-.7-.3z" fill="#9e5b16"/><path d="m254.3 240.9c-4.8 4.4-13.7 6.9-20.1 6.9-.3 0-.5 0-.8 0v-.9c6.7 0 14.2-8.1 7-16.1l.1-.6c5.8 1.2 8.9 4.8 13.8 10.7z" fill="#fff"/><path d="m240.4 230.7c7.3 8.1-.3 16.1-7 16.1s-13.5-9.2-6-15.3l-.2-.9c2.3-.6 4.6-1 7-1 2.4-.1 4.5.1 6.3.5zm.1 6.9c0-3.2-3-5.8-6.6-5.8-3.7 0-6.6 2.6-6.6 5.8s3 5.8 6.6 5.8c3.6.1 6.6-2.5 6.6-5.8z" fill="#9e5b16"/><path d="m233.8 231.8c3.6 0 6.6 2.6 6.6 5.8s-3 5.8-6.6 5.8c-3.7 0-6.6-2.6-6.6-5.8s3-5.8 6.6-5.8zm2.8 6c0-1.6-1.2-2.9-2.6-2.9-1.5 0-2.6 1.3-2.6 2.9s1.2 2.9 2.6 2.9 2.6-1.3 2.6-2.9z"/><path d="m234 234.9c1.5 0 2.6 1.3 2.6 2.9s-1.2 2.9-2.6 2.9c-1.5 0-2.6-1.3-2.6-2.9-.1-1.6 1.1-2.9 2.6-2.9zm-.5 11.9v.9c-7.5-.1-16.4-2.3-17.6-2.8-1.9-.9-1.9 2-3.6.9-2-1.3-.5-2.7.7-4.7 3-5.2 8.4-8.8 14.3-10.5l.2.9c-7.6 6.1-.7 15.3 6 15.3zm-5.1 68.1s-5.1 6.5-11.9 12.3c-16.9 3.3-30.8 3.5-46.7.2-7.4-6.1-12.2-12.7-12.2-12.7 13.9 3.6 18.9 3.1 33.2 3.1 21.3-.1 26.7-.1 37.6-2.9z" fill="#fff"/><path d="m216.5 327.2c-3.6 3.1-7.6 6-11.6 7.6-3.3 1.3-14.6 3.5-22.8.2-4.5-1.8-8.7-4.7-12.3-7.6 15.9 3.3 29.8 3.1 46.7-.2z"/><path d="m167.2 241.4c1.2 2.1 2.7 3.5.7 4.7-1.7 1.1-.9-2.4-4.3-1.6-1.3.3-6.9 3.2-17.1 2.9-.2 0-.3 0-.5 0v-.2h.5c6.7 0 12.8-7.2 8.3-14.9l.4-1c5 1.9 9.3 5.3 12 10.1z" fill="#fff"/><path d="m155.1 231.4-.4 1c4.5 7.7-1.6 14.9-8.3 14.9-.2 0-.3 0-.5 0-6.5-.3-12.7-8-7.3-15.4l-1.1-.7c2.5-.8 5.5-1.1 9.4-1.1 2.9-.2 5.6.3 8.2 1.3zm-2.2 6.6c0-3.2-2.9-5.8-6.6-5.8s-6.6 2.6-6.6 5.8 3 5.8 6.6 5.8 6.6-2.6 6.6-5.8z" fill="#9e5b16"/><path d="m146.3 232.2c3.7 0 6.6 2.6 6.6 5.8s-2.9 5.8-6.6 5.8-6.6-2.6-6.6-5.8 2.9-5.8 6.6-5.8zm2.6 5.3c0-1.6-1.2-2.9-2.6-2.9-1.5 0-2.6 1.3-2.6 2.9s1.2 2.9 2.6 2.9c1.5 0 2.6-1.3 2.6-2.9z"/><path d="m146.3 234.7c1.5 0 2.6 1.3 2.6 2.9s-1.2 2.9-2.6 2.9c-1.5 0-2.6-1.3-2.6-2.9-.1-1.6 1.1-2.9 2.6-2.9zm-.4 12.5v.2c-10.1-.4-15.1-3.4-19.8-7.8 3.7-4.4 6.7-7.2 11.4-8.6l1.1.7c-5.4 7.5.8 15.2 7.3 15.5z" fill="#fff"/><path d="m170.6 223.2c-9.9-8.1-10.6-8.5-29.6-8.5-14.7 0-18 2.1-27.5 9.5" fill="none" stroke="#000" stroke-width="8.4059"/><path d="m125 241c.4-.4.7-.9 1.1-1.3 3.7-4.4 6.7-7.2 11.4-8.6 2.5-.8 5.5-1.1 9.4-1.1 2.8 0 5.6.5 8.2 1.4 5.1 1.8 9.4 5.3 12.1 10.1 1.2 2.1 2.7 3.5.7 4.7-1.7 1.1-.9-2.4-4.3-1.6-1.3.3-6.9 3.2-17.1 2.9-.2 0-.3 0-.5 0-10.1-.4-15.1-3.4-19.8-7.8" fill="none" stroke="#000" stroke-linecap="square" stroke-miterlimit="10" stroke-width="4.2276"/><path d="m154.7 232.4c4.5 7.7-1.6 14.9-8.3 14.9-.2 0-.3 0-.5 0-6.5-.3-12.7-8-7.3-15.4" fill="none" stroke="#000" stroke-linecap="square" stroke-miterlimit="10" stroke-width="2.802"/><path d="m254.3 240.9c-4.8-5.8-8-9.5-13.8-10.8-1.8-.4-3.8-.6-6.3-.5-2.4.1-4.7.4-7 1-6 1.6-11.4 5.2-14.3 10.5-1.2 2.1-2.7 3.5-.7 4.7 1.7 1.1 1.7-1.8 3.6-.9 1.2.6 10.1 2.7 17.6 2.8h.8c6.4 0 15.3-2.4 20.1-6.8" fill="none" stroke="#000" stroke-linecap="square" stroke-miterlimit="10" stroke-width="4.2276"/><path d="m227.5 231.5c-7.6 6-.8 15.3 6 15.3 6.7 0 14.2-8.1 7-16.1" fill="none" stroke="#000" stroke-linecap="square" stroke-miterlimit="10" stroke-width="2.802"/><path d="m328.4 225.5c10.4-87.8-21-136.9-69.1-145.8-63.4-11.6-103.8-10.2-148.2 48.4-21.9 28.9-20.5 86.4-18.5 114.7 0 0 1.5 7.4 10 10.5 2.2.8 5 1.3 8.3 1.3m190.7-10.2c0-.6 0-1.2-.1-1.9 0-.2 0-.3 0-.5" fill="none" stroke="#000" stroke-width="8.4059"/><path d="m301 256.7c-8.6-12.8-2.2-53.9-15.3-67s-22.4-48.6-22.4-48.6c-.2-.1-.5-.3-.7-.4-5.5-2.5-14.8 3.9-19.8 6.8-7.8 4.4-12 2.8-30.3 9.9-23.6 9.1-43.6-17.9-91.7 8.1l-11 33.5c-5.6 23.2 1.1 33.7 1.1 44.2v11.4c0 7.7 0 15.6.4 23.5.2 4 .6 8 1.1 12 3.1 25 14.3 41.7 18.6 49.2 11.2 19.7 16.6 27.4 27.1 37.9 2.5 2.5 5.8 4.5 9.7 6.1 18.6 7.6 50.3 6.2 62.8-1.5 26.6-16.4 47.2-30.8 58.7-47.3 4.7-6.7 7.9-13.8 9.4-21.6 1.7-8.5 2.6-15.4 3.1-24.3.4-8.2.4-18 .1-32-.1-3.7-.2-7.8-.3-12.1m-39-103.7c4.1-11.6 10.6-23.2 18.4-31.9" fill="none" stroke="#000" stroke-width="8.4059"/><path d="m184.6 310c-8.8.6-24.8 3.1-35 3.1 6.9 0 17.4 20.5 26.2 26.5 6.1 4.2 18.5 5.8 29.6 2 12.5-4.3 23.1-28.6 33.2-29.7-10.5 1.2-29.5-1.5-39-1.9-8-.4-6.4 2.5-9.3 2.5-5.1.1-2-2.5-5.7-2.5z" fill="none" stroke="#000" stroke-width="5.346"/><path d="m216.5 327.2c6.7-5.8 11.9-12.3 11.9-12.3-10.9 2.8-16.3 2.9-37.6 2.9-14.3 0-19.3.5-33.2-3.1 0 0 4.8 6.7 12.2 12.7 3.6 3 7.8 5.8 12.3 7.6 8.1 3.3 19.5 1.1 22.8-.2 4-1.6 8-4.5 11.6-7.6z" fill="none" stroke="#000" stroke-width="5.346"/><path d="m177.7 232.2c1 17.1-1.2 20.7-4.9 41.2-.5 2.9-1.7 5.6-2.8 8.3-1.9 4.6-3.3 8.9-.4 13.6.9 1.4 2.4 2.6 4.2 3.5 5.2 2.6 13.1 3.3 17.4 1.3 6.4-3 6.5-2.4 15.5-.4 5.8 1.3 10.3-2.7 10.3-7.5 0-4.7-1-5.2-3.4-7.6m-43.6-2.9c-3.2 1.8-8.1 12.6 3.9 17.1" fill="none" stroke="#000" stroke-width="5.6039"/><path d="m207.9 222.1c12.1-7.9 12-9.6 31-9.6 10.4 0 13.7 2.9 23.2 10.3m39.5 21.7c-.1-.7-.1-1.4-.1-2 .3-11.5 9.8-28.5 20.9-22.1 2.9 1.7 4.8 3.3 5.9 5 2.8 4.3 1.2 9.5.4 18.6-1.6 19.4-9.1 39.8-14.1 44.8-5.1 5.1-8.7 4-12.9-.2m-199.3-36.4c0 .4.1.7.1 1.1 1.7 16.6.2 19.2 8.7 24.8m178.5 56.8c-.2 25.2 19.1 39.2 19.1 39.2 12.7 14.8 37.2 12.9 49.9 26.7m-190.9-18c0 .2-.1.4-.1.6-2.6 12.7-4.8 13.2-14.6 23" fill="none" stroke="#000" stroke-width="8.4059"/><path d="m168.2 327.1c.6.1 1.1.2 1.7.3 15.9 3.3 29.8 3.1 46.7-.2h.1" fill="none" stroke="#000" stroke-width="3.2881"/></svg>