<svg enable-background="new 0 0 850.4 850.4" height="850.4" viewBox="0 0 850.4 850.4" width="850.4" xmlns="http://www.w3.org/2000/svg"><path d="m783.6 422.4c3 .7 5 3.6 4.3 6.5-.7 2.8-3.7 4.6-6.7 3.8-3.1-.7-5-3.6-4.3-6.5.6-2.8 3.6-4.5 6.7-3.8z" fill="#f6cc4b"/><path d="m759.2 377.4c3 .7 5 3.6 4.3 6.5-.7 2.8-3.7 4.6-6.7 3.8-3.1-.7-5-3.6-4.3-6.5.6-2.8 3.6-4.6 6.7-3.8z" fill="#f6cc4b"/><path d="m787.9 348.4c3.1.7 5 3.6 4.3 6.5-.7 2.8-3.7 4.6-6.7 3.8-3.1-.7-5-3.6-4.3-6.5.6-2.8 3.6-4.6 6.7-3.8z" fill="#f6cc4b"/><path d="m735.8 299.3c3 .7 5 3.6 4.3 6.5-.7 2.8-3.7 4.6-6.7 3.8s-5-3.6-4.3-6.5c.6-2.8 3.6-4.5 6.7-3.8z" fill="#f6cc4b"/><path d="m715.7 328c3 .7 5 3.6 4.3 6.5-.7 2.8-3.7 4.6-6.7 3.8-3.1-.7-5-3.6-4.3-6.5.6-2.8 3.6-4.5 6.7-3.8z" fill="#f6cc4b"/><path d="m695.4 373.1c3 .7 5 3.6 4.3 6.5-.7 2.8-3.7 4.6-6.7 3.8-3.1-.7-5-3.6-4.3-6.5.6-2.8 3.6-4.5 6.7-3.8z" fill="#f6cc4b"/><path d="m652.2 356.8c3.1 0 5.7 2.4 5.7 5.3s-2.5 5.3-5.7 5.3c-3.1 0-5.7-2.4-5.7-5.3.1-2.9 2.6-5.3 5.7-5.3z" fill="#f6cc4b"/><path d="m661.6 308.2c3.1 0 5.7 2.4 5.7 5.3s-2.5 5.3-5.7 5.3c-3.1 0-5.7-2.4-5.7-5.3.1-2.9 2.6-5.3 5.7-5.3z" fill="#f6cc4b"/><path d="m674.6 275.7c3.1 0 5.7 2.4 5.7 5.3s-2.5 5.3-5.7 5.3c-3.1 0-5.7-2.4-5.7-5.3s2.5-5.3 5.7-5.3z" fill="#f6cc4b"/><path d="m594.6 341.6c3.1 0 5.7 2.4 5.7 5.3s-2.5 5.3-5.7 5.3-5.7-2.4-5.7-5.3c.1-3 2.6-5.3 5.7-5.3z" fill="#f6cc4b"/><path d="m604.8 295.3c3.1 0 5.7 2.4 5.7 5.3s-2.5 5.3-5.7 5.3c-3.1 0-5.7-2.4-5.7-5.3s2.6-5.3 5.7-5.3z" fill="#f6cc4b"/><path d="m541 327.8c3.1 0 5.7 2.4 5.7 5.3s-2.5 5.3-5.7 5.3c-3.1 0-5.7-2.4-5.7-5.3s2.5-5.3 5.7-5.3z" fill="#f6cc4b"/><path d="m539.8 288.3c3.1 0 5.7 2.4 5.7 5.3s-2.5 5.3-5.7 5.3-5.7-2.4-5.7-5.3c0-3 2.5-5.3 5.7-5.3z" fill="#f6cc4b"/><path d="m485.7 325.1c3.1 0 5.7 2.4 5.7 5.3s-2.5 5.3-5.7 5.3c-3.1 0-5.7-2.4-5.7-5.3s2.6-5.3 5.7-5.3z" fill="#f6cc4b"/><path d="m481.2 292.4c3.1 0 5.7 2.4 5.7 5.3s-2.5 5.3-5.7 5.3c-3.1 0-5.7-2.4-5.7-5.3 0-3 2.6-5.3 5.7-5.3z" fill="#f6cc4b"/><path d="m443.4 335.3c3.1 0 5.7 2.4 5.7 5.3s-2.5 5.3-5.7 5.3c-3.1 0-5.7-2.4-5.7-5.3s2.5-5.3 5.7-5.3z" fill="#f6cc4b"/><path d="m438.9 302.6c3.1 0 5.7 2.4 5.7 5.3s-2.5 5.3-5.7 5.3c-3.1 0-5.7-2.4-5.7-5.3 0-3 2.5-5.3 5.7-5.3z" fill="#f6cc4b"/><path d="m392.8 329.8c3.1 0 5.7 2.4 5.7 5.3s-2.5 5.3-5.7 5.3c-3.1 0-5.7-2.4-5.7-5.3s2.6-5.3 5.7-5.3z" fill="#f6cc4b"/><path d="m425.2 295.9c-6.3 13-5 34.6-1.4 47.8 1.4 5.3 5.2 11.1 10.3 16h-.9c-7.1-3.9-14.1 2.4-22.7 7.8-8.6 5.5-22.7 13.7-31.7-6.3s4.7-46.6 18.4-60.3 25.1-6.7 25.1-6.7zm-26.7 39.2c0-2.9-2.5-5.3-5.7-5.3-3.1 0-5.7 2.4-5.7 5.3s2.5 5.3 5.7 5.3 5.7-2.4 5.7-5.3z" fill="#abd150"/><path d="m434.1 359.8c-5.1-4.9-8.8-10.8-10.3-16-3.6-13.2-4.9-34.8 1.4-47.8 1.9-3.9 4.5-7.1 8-9 14.9-8.2 35.5-1.5 35.5-1.5l.3.2c-2.2 3-3.8 6.6-4.6 10.7-2.8 13.7 11.8 50.3 17.2 63.2l-2.9 1.4c-14.5 16.3-33.1 9.9-44.6-1.2zm15-19.2c0-2.9-2.5-5.3-5.7-5.3-3.1 0-5.7 2.4-5.7 5.3s2.5 5.3 5.7 5.3c3.1 0 5.7-2.4 5.7-5.3zm-4.5-32.7c0-2.9-2.5-5.3-5.7-5.3-3.1 0-5.7 2.4-5.7 5.3s2.5 5.3 5.7 5.3c3.1 0 5.7-2.4 5.7-5.3z" fill="#abd150"/><path d="m492.9 274.6c1.7.1 3.3.5 5 .9 13.6 4.1 17.8 7.8 17.8 7.8l3.2 1.5c-.9 1.5-1.7 3.1-2.3 4.8-6.6 16.9 8.8 70.4 10.2 75.2l-2 .6c-6.3 2.5-11.5 13.8-19.9 15.6-9.6 2.1-14.7-4.8-21.3-17 0 0-.7-1.7-1.9-4.5-5.4-12.8-20-49.4-17.2-63.2.8-4.1 2.5-7.7 4.6-10.7 4.6-6.4 11.7-10.2 19-11 1.5-.1 3.1-.2 4.8 0zm-1.5 55.8c0-2.9-2.5-5.3-5.7-5.3-3.1 0-5.7 2.4-5.7 5.3s2.5 5.3 5.7 5.3c3.1 0 5.7-2.4 5.7-5.3zm-4.5-32.7c0-2.9-2.5-5.3-5.7-5.3-3.1 0-5.7 2.4-5.7 5.3s2.5 5.3 5.7 5.3c3.1 0 5.7-2.4 5.7-5.3z" fill="#abd150"/><path d="m631.4 372.6c-9.2-10.3-20.2 16.1-33.7 15.5-9-.4-13.1-5.8-16-15-.8-2.6-1.6-5.5-2.4-8.8 0 0-9.6-64.5-1.3-82.8.2-.4.4-.8.6-1.2 9.4-16.6 30.6-20.4 44.7-12.3s17.5 13.2 17.5 13.2l.9.4c-10.9 16.4-9.4 82.9-9.4 82.9.3 3 .7 5.8 1.1 8.4l-1.5.3c-.2-.3-.3-.4-.5-.6zm-20.9-72c0-2.9-2.5-5.3-5.7-5.3-3.1 0-5.7 2.4-5.7 5.3s2.5 5.3 5.7 5.3 5.7-2.4 5.7-5.3zm-10.2 46.3c0-2.9-2.5-5.3-5.7-5.3s-5.7 2.4-5.7 5.3 2.5 5.3 5.7 5.3 5.7-2.4 5.7-5.3z" fill="#abd150"/><path d="m687.9 274.4c12.9 9.8 15.7 15.3 15.7 15.3l.6.8c-5.8 2.3-9.9 7.2-14.7 18-9 20.4-16.1 67.8-16.1 67.8l-1.2 1.5c-6.5 0-13.9 14.4-24.6 12.6-9.1-1.6-12.4-7.6-14.2-17.5-.5-2.5-.8-5.3-1.1-8.4 0 0-1.5-66.5 9.4-82.9.1-.2.3-.4.4-.6 11.3-15.3 32.9-16.4 45.8-6.6zm-7.6 6.6c0-2.9-2.5-5.3-5.7-5.3-3.1 0-5.7 2.4-5.7 5.3s2.5 5.3 5.7 5.3c3.1 0 5.7-2.4 5.7-5.3zm-13 32.5c0-2.9-2.5-5.3-5.7-5.3-3.1 0-5.7 2.4-5.7 5.3s2.5 5.3 5.7 5.3 5.7-2.3 5.7-5.3zm-9.4 48.6c0-2.9-2.5-5.3-5.7-5.3-3.1 0-5.7 2.4-5.7 5.3s2.5 5.3 5.7 5.3 5.7-2.3 5.7-5.3z" fill="#abd150"/><path d="m765.6 323.5c7.7-3 16.2-.4 25 8.1 10.2 9.8 17.6 26.6 17.6 26.6s1.5 2.5 3.4 6.7l-1 .3c-6.7 11.8-20.5 28.8-38.4 38.8-23.1 12.9-40.4 11.4-40.4 11.4l-3.4.9c-9.4-16.5-9.9-32.6-18.6-26.7-11 7.4-25.1 2.7-32.9-8.6-1.6-2.3-3.1-3.2-4.8-3.2l1.2-1.5s7.1-47.4 16.1-67.8c4.8-10.8 8.9-15.7 14.7-18 5.1-2.1 11.4-2.2 20.6-2.7 19.6-1.2 34.9 25.1 40 33.3zm26.6 31.3c.7-2.8-1.3-5.7-4.3-6.5-3.1-.7-6.1 1-6.7 3.8-.7 2.8 1.3 5.7 4.3 6.5s6-.9 6.7-3.8zm-28.7 29c.7-2.8-1.3-5.7-4.3-6.5-3.1-.7-6.1 1-6.8 3.8s1.3 5.7 4.3 6.5c3.1.8 6.1-.9 6.8-3.8zm-23.4-78c.7-2.8-1.3-5.7-4.3-6.5-3.1-.7-6.1 1-6.7 3.8-.7 2.8 1.3 5.7 4.3 6.5 3 .7 6-1 6.7-3.8zm-20.1 28.6c.7-2.8-1.3-5.7-4.3-6.5-3.1-.7-6.1 1-6.8 3.8s1.3 5.7 4.3 6.5c3.1.8 6.1-.9 6.8-3.8zm-20.3 45.2c.7-2.8-1.3-5.7-4.3-6.5-3.1-.7-6.1 1-6.8 3.8s1.3 5.7 4.3 6.5c3.1.7 6.1-1 6.8-3.8z" fill="#abd150"/><path d="m811.6 364.9c5.4 11.8 14.4 37.1 4.8 58.7-12.9 29.4-61.5 23.5-79.5 4.3-3.5-3.7-6.2-7.7-8.5-11.7l3.4-.9s17.2 1.6 40.4-11.4c17.9-10 31.7-27 38.4-38.8zm-23.7 64c.7-2.8-1.3-5.7-4.3-6.5-3.1-.7-6.1 1-6.8 3.8s1.3 5.7 4.3 6.5c3.1.7 6.1-1 6.8-3.8z" fill="#abd150"/><path d="m579.3 364.3c.8 3.2 1.5 6.1 2.4 8.8-10.5-8.1-20 11.6-33.3 12.9-11.5 1.1-16.1-6.9-21.6-20.9 0 0 0-.1-.1-.4-1.4-4.8-16.8-58.2-10.2-75.2.7-1.7 1.4-3.3 2.3-4.8 8.4-14.2 26.5-19.3 40.1-13.8 14.1 5.6 18.6 9.9 19.1 10.5-8.3 18.5 1.3 82.9 1.3 82.9zm-32.7-31.2c0-2.9-2.5-5.3-5.7-5.3-3.1 0-5.7 2.4-5.7 5.3s2.5 5.3 5.7 5.3 5.7-2.3 5.7-5.3zm-1.1-39.5c0-2.9-2.5-5.3-5.7-5.3s-5.7 2.4-5.7 5.3 2.5 5.3 5.7 5.3c3.1-.1 5.7-2.4 5.7-5.3z" fill="#abd150"/><g fill="none" stroke="#231f20"><path d="m716.9 385.6s36.4-54.9 45.1-60.3c1.2-.7 2.4-1.4 3.6-1.8 7.7-3 16.2-.4 25 8.1 10.2 9.8 17.6 26.6 17.6 26.6s1.5 2.5 3.4 6.7c5.4 11.8 14.4 37.1 4.8 58.7-12.9 29.4-61.5 23.5-79.5 4.3-3.5-3.7-6.2-7.7-8.5-11.7-9.4-16.5-9.9-32.6-18.6-26.7-11 7.4-25.1 2.7-32.9-8.6-1.6-2.3-3.1-3.2-4.8-3.2-6.5 0-13.9 14.4-24.6 12.6-9.1-1.6-12.4-7.6-14.2-17.5-.5-2.5-.8-5.3-1.1-8.4 0 0-1.5-66.5 9.4-82.9.1-.2.3-.4.4-.6 11.4-15.3 32.9-16.5 45.8-6.7s15.7 15.3 15.7 15.3" stroke-width="13.2076"/><path d="m631.9 373.1c-.1-.2-.3-.3-.4-.5-9.2-10.3-20.2 16.1-33.7 15.5-9-.4-13.1-5.8-16-15-.8-2.6-1.6-5.5-2.4-8.8 0 0-9.6-64.5-1.3-82.8.2-.4.4-.8.6-1.2 9.4-16.6 30.6-20.4 44.7-12.3s17.5 13.2 17.5 13.2" stroke-width="13.2076"/><path d="m582.5 373.8c-.2-.1-.3-.3-.5-.4-.1-.1-.2-.2-.3-.3-10.5-8.1-20 11.6-33.3 12.9-11.5 1.1-16.1-6.9-21.6-20.9 0 0 0-.1-.1-.4-1.4-4.8-16.8-58.2-10.2-75.2.7-1.7 1.4-3.3 2.3-4.8 8.4-14.2 26.5-19.3 40.1-13.8 14.1 5.6 18.6 9.9 19.1 10.5 0 0 .1.1.1.1" stroke-width="13.2076"/><path d="m524.7 365.4c-6.3 2.5-11.5 13.8-19.9 15.6-9.6 2.1-14.7-4.8-21.3-17 0 0-.7-1.7-1.9-4.5-5.4-12.8-20-49.4-17.2-63.2.8-4.1 2.5-7.7 4.6-10.7 4.6-6.4 11.7-10.2 19-11 1.6-.2 3.3-.2 4.9 0 1.7.1 3.3.5 5 .9 13.6 4.1 17.8 7.8 17.8 7.8" stroke-width="13.2076"/><path d="m673.4 376.2s7.1-47.4 16.1-67.8c4.8-10.8 8.9-15.7 14.7-18 5.1-2.1 11.4-2.2 20.6-2.7 19.6-1.2 34.9 25.1 40 33.3" stroke-width="13.2076"/><path d="m468.7 285.4s-20.6-6.8-35.5 1.5c-3.5 1.9-6.1 5.1-8 9-6.3 13-5 34.6-1.4 47.8 1.4 5.3 5.2 11.1 10.3 16 11.6 11.2 30.2 17.5 44.6 1.2" stroke-width="13.2076"/><path d="m422.2 294.3s-11.4-7.1-25.1 6.7c-13.7 13.7-27.4 40.4-18.4 60.3 9 20 23.1 11.8 31.7 6.3s15.7-11.8 22.7-7.8" stroke-width="13.2076"/><path d="m486.9 297.7c0 2.9-2.5 5.3-5.7 5.3-3.1 0-5.7-2.4-5.7-5.3s2.5-5.3 5.7-5.3c3.1 0 5.7 2.3 5.7 5.3z" stroke-width="4.7023"/><path d="m545.5 293.6c0 2.9-2.5 5.3-5.7 5.3s-5.7-2.4-5.7-5.3 2.5-5.3 5.7-5.3c3.1 0 5.7 2.3 5.7 5.3z" stroke-width="4.7023"/><path d="m546.6 333.1c0 2.9-2.5 5.3-5.7 5.3-3.1 0-5.7-2.4-5.7-5.3s2.5-5.3 5.7-5.3 5.7 2.4 5.7 5.3z" stroke-width="4.7023"/><path d="m610.5 300.6c0 2.9-2.5 5.3-5.7 5.3-3.1 0-5.7-2.4-5.7-5.3s2.5-5.3 5.7-5.3 5.7 2.4 5.7 5.3z" stroke-width="4.7023"/><path d="m680.3 281c0 2.9-2.5 5.3-5.7 5.3-3.1 0-5.7-2.4-5.7-5.3s2.5-5.3 5.7-5.3c3.1 0 5.7 2.4 5.7 5.3z" stroke-width="4.7023"/><path d="m667.3 313.5c0 2.9-2.5 5.3-5.7 5.3-3.1 0-5.7-2.4-5.7-5.3s2.5-5.3 5.7-5.3 5.7 2.4 5.7 5.3z" stroke-width="4.7023"/><path d="m657.9 362.1c0 2.9-2.5 5.3-5.7 5.3-3.1 0-5.7-2.4-5.7-5.3s2.5-5.3 5.7-5.3 5.7 2.4 5.7 5.3z" stroke-width="4.7023"/><path d="m740.1 305.8c-.7 2.8-3.7 4.6-6.7 3.8-3.1-.7-5-3.6-4.3-6.5.7-2.8 3.7-4.6 6.7-3.8 3 .7 4.9 3.6 4.3 6.5z" stroke-width="4.7023"/><path d="m720 334.4c-.7 2.8-3.7 4.6-6.7 3.8-3.1-.7-5-3.6-4.3-6.5.7-2.8 3.7-4.6 6.8-3.8 2.9.8 4.9 3.7 4.2 6.5z" stroke-width="4.7023"/><path d="m792.2 354.8c-.7 2.8-3.7 4.6-6.7 3.8-3.1-.7-5-3.6-4.3-6.5.7-2.8 3.7-4.6 6.7-3.8s4.9 3.7 4.3 6.5z" stroke-width="4.7023"/><path d="m763.5 383.8c-.7 2.8-3.7 4.6-6.7 3.8-3.1-.7-5-3.6-4.3-6.5.7-2.8 3.7-4.6 6.8-3.8 2.9.8 4.9 3.7 4.2 6.5z" stroke-width="4.7023"/><path d="m787.9 428.9c-.7 2.8-3.7 4.6-6.7 3.8-3.1-.7-5-3.6-4.3-6.5.7-2.8 3.7-4.6 6.8-3.8 2.9.7 4.8 3.6 4.2 6.5z" stroke-width="4.7023"/><path d="m699.7 379.6c-.7 2.8-3.7 4.6-6.7 3.8-3.1-.7-5-3.6-4.3-6.5.7-2.8 3.7-4.6 6.8-3.8 2.9.7 4.8 3.6 4.2 6.5z" stroke-width="4.7023"/><path d="m600.3 346.9c0 2.9-2.5 5.3-5.7 5.3s-5.7-2.4-5.7-5.3 2.5-5.3 5.7-5.3 5.7 2.3 5.7 5.3z" stroke-width="4.7023"/><path d="m491.4 330.4c0 2.9-2.5 5.3-5.7 5.3-3.1 0-5.7-2.4-5.7-5.3s2.5-5.3 5.7-5.3c3.1 0 5.7 2.4 5.7 5.3z" stroke-width="4.7023"/><path d="m444.6 307.9c0 2.9-2.5 5.3-5.7 5.3-3.1 0-5.7-2.4-5.7-5.3s2.5-5.3 5.7-5.3c3.1 0 5.7 2.3 5.7 5.3z" stroke-width="4.7023"/><path d="m449.1 340.6c0 2.9-2.5 5.3-5.7 5.3-3.1 0-5.7-2.4-5.7-5.3s2.5-5.3 5.7-5.3c3.1 0 5.7 2.4 5.7 5.3z" stroke-width="4.7023"/><path d="m398.5 335.1c0 2.9-2.5 5.3-5.7 5.3-3.1 0-5.7-2.4-5.7-5.3s2.5-5.3 5.7-5.3 5.7 2.4 5.7 5.3z" stroke-width="4.7023"/><path d="m386.9 277.1 14.2 16.1" stroke-width="3.5267"/><path d="m397.2 271.6 7.7 20" stroke-width="3.5267"/><path d="m406.7 267.8 5.3 22.6" stroke-width="3.5267"/><path d="m426 262.9 8.7 19.5" stroke-width="3.5267"/><path d="m437.4 260.7 1.5 21.3" stroke-width="3.5267"/><path d="m447.7 259.9.4 20.3" stroke-width="3.5267"/><path d="m480.1 257 7.8 17.6.9 1.9" stroke-width="3.5267"/><path d="m491.5 254.8 1.4 19.8.1 1.6" stroke-width="3.5267"/><path d="m505.3 257.5-4.7 18.4" stroke-width="3.5267"/><path d="m542.1 250.8 4.3 17.3" stroke-width="3.5267"/><path d="m558.2 250.1-1.6 16" stroke-width="3.5267"/><path d="m741.9 270-6.9 16.4" stroke-width="3.5267"/><path d="m755.2 279-10.9 11.9" stroke-width="3.5267"/><path d="m797.5 313.1-6.9 16.4" stroke-width="3.5267"/><path d="m810.8 322.1-10.9 11.9" stroke-width="3.5267"/><path d="m617.8 245-4 18.8" stroke-width="3.5267"/><path d="m629.5 251.2-7 15.3" stroke-width="3.5267"/><path d="m687.9 250.1-5.9 20.7" stroke-width="3.5267"/><path d="m702 256.7-12.1 17.7" stroke-width="3.5267"/><path d="m810.5 365.3c-6.7 11.8-20.5 28.8-38.4 38.8-23.1 12.9-40.4 11.4-40.4 11.4" stroke-width="13.2076"/></g><path d="m758.8 530.2c-1.5-1-2.8-2.5-3.8-4.3-2.9-5.5-1.2-12 3.8-14.7s11.4-.4 14.3 5.1 1.2 12-3.8 14.7c-3.4 1.8-7.4 1.3-10.5-.8z" fill="#9c5c25"/><path d="m778.1 629.1c-.2-.3-.3-.6-.5-.8-2.9-5.5-1.2-12 3.8-14.7s11.4-.4 14.3 5.1 1.2 12-3.8 14.7c-4.7 2.4-10.7.5-13.8-4.3z" fill="#9c5c25"/><path d="m706.8 702c-5.4-4.9-12.5-8.8-25.4-11l.8-4.3c.7-.3 1.9-.8 3.5-1.5 12.4-5.3 50.3-22.2 72.8-38.8l2.4.8c-19.8 20.2-48.8 49.4-54.1 54.8z" fill="#9c5c25"/><path d="m710.1 625c16.8-29.9 25.9-46.9 30.5-56-21 44.6-49.8 105.2-54.9 116.1-1.6.7-2.8 1.2-3.5 1.5l-.8 4.3c-7.5-1.3-17-2.1-29.1-2.2v-2.7c0 .1 32.1-15.3 57.8-61z" fill="#9c5c25"/><path d="m706.8 702c3.1 2.8 5.6 6 8.2 9.3 11.4 14.6 21.2 48.8-2.4 73.3-23.6 24.4-209.2 25.2-209.2 25.2-87.1-1.6-166.1 5.7-263.8-18.7s-121.3-7.3-153-10.6c-31.8-3.3-13.8-24.4 16.3-44.8s59.4-20.4 59.4-20.4l2.3-2.9c10 10.3 23.3 20 40.8 27.4 48.4 20.3 109.3 4.6 138.4-15.5 31.8-22 32.6-37.5 32.6-37.5 9 8.1 82.2-2.4 116.4-4.1 17.4-.8 24.3-2.3 25.6-4.7 15.1 4.1 56.7 13.8 109.5 11.2 9.2-.5 17.2-.6 24.4-.6 12.2.1 21.6.9 29.1 2.2 12.8 2.4 20 6.3 25.4 11.2z" fill="#9c5c25"/><path d="m164.5 712.5c-18.4-18.9-25.9-39.7-28.9-51.6 5.1 15 16 29.4 36.4 40.7 57.2 31.7 148.8 3.3 191.9-28.9l.3.4s3.3 5.7 12.2 13.8c0 0-.8 15.5-32.6 37.5-29 20.1-90 35.8-138.4 15.5-17.6-7.4-30.8-17.2-40.9-27.4z" fill="#f6cc4b"/><path d="m363.8 672.7c-43.1 32.2-134.7 60.5-191.9 28.8-20.4-11.3-31.3-25.7-36.4-40.7-11.8-34.7 7.4-72.6 12-82.2 6.5-13.8 73.7-123.8 203.5-91.2 116.5 29.4 139.3 103.4 140.9 115.6s10.6 56.2 19.5 65.1c4.4 4.4 8.2 7.6 6.9 9.9-1.4 2.4-8.2 3.9-25.6 4.7-34.2 1.6-107.5 12.2-116.4 4.1-9-8.1-12.2-13.8-12.2-13.8z" fill="#f6cc4b"/><path d="m265.6 542.8s-7.3-11.4 4.1-11.4 17.9 26.9-7.3 29.3c-25.2 2.5-27.9-21.6-11.4-35 22-17.9 74.9-6.5 42.3 42.3 0 0-29.5 33-64.3 8.1-11.4-8.1-28.5-39.9 26.9-65.9 0 0 52.1-15.5 76.5 8.1s17.1 65.9-30.1 96.1c-47.2 30.1-131.1 12.5-121.3-48 9.8-60.2 92-69.2 99.3-70 0 0 39.9-8.1 83 22s45.6 99.3 18.7 136.8c-3.5 4.9-8.6 10-14.9 15-1.1.8-2.2 1.7-3.3 2.5-43.1 32.2-134.7 60.5-191.9 28.9-20.4-11.3-31.3-25.7-36.4-40.7-11.8-34.7 7.4-72.6 12-82.2 6.5-13.8 73.7-123.9 203.5-91.2 116.5 29.3 139.3 103.3 140.9 115.5s10.6 56.2 19.5 65.1c4.4 4.4 8.2 7.6 6.9 9.9-1.4 2.4-8.2 3.9-25.6 4.7-34.2 1.6-107.5 12.2-116.4 4.1-9-8.1-12.2-13.8-12.2-13.8" fill="none" stroke="#231f20" stroke-linecap="round" stroke-linejoin="round" stroke-width="14"/><path d="m133.7 651.1s.3 3.7 1.9 9.8c3 11.9 10.6 32.7 28.9 51.6 10 10.3 23.3 20 40.8 27.4 48.4 20.3 109.3 4.6 138.4-15.5 31.8-22 32.6-37.5 32.6-37.5" fill="none" stroke="#231f20" stroke-width="14"/><path d="m162.2 715.4s-29.3 0-59.4 20.4c-30.1 20.3-48 41.5-16.3 44.8 31.8 3.3 55.4-13.8 153 10.6 97.7 24.4 176.7 17.1 263.8 18.7 0 0 185.6-.8 209.2-25.2s13.8-58.6 2.4-73.3c-2.6-3.4-5.1-6.5-8.2-9.3-5.4-4.9-12.5-8.8-25.4-11-7.5-1.3-17-2.1-29.1-2.2-7.1 0-15.2.1-24.4.6-52.8 2.6-94.5-7.1-109.5-11.2-4-1.1-6.1-1.8-6.1-1.8" fill="none" stroke="#231f20" stroke-linecap="round" stroke-linejoin="round" stroke-width="14"/><path d="m705.9 702.8s.3-.3.8-.9c5.3-5.4 34.4-34.6 54.1-54.8 8.1-8.3 14.6-15.1 17.3-18.1 1-1.2 1.5-1.8 1.2-1.6" fill="none" stroke="#231f20" stroke-linecap="round" stroke-linejoin="round" stroke-width="14"/><path d="m684.8 686.9s.3-.6.8-1.7c5.2-10.9 34-71.6 54.9-116.2 7.6-16.1 14.1-30 18.2-38.8 3-6.5 4.7-10.2 4.3-9.8" fill="none" stroke="#231f20" stroke-linecap="round" stroke-linejoin="round" stroke-width="14"/><path d="m773.1 516.3c2.9 5.5 1.2 12-3.8 14.7-3.4 1.8-7.4 1.3-10.5-.8-1.5-1-2.8-2.5-3.8-4.3-2.9-5.5-1.2-12 3.8-14.7 5-2.6 11.4-.4 14.3 5.1z" fill="none" stroke="#231f20" stroke-linecap="round" stroke-linejoin="round" stroke-width="14"/><path d="m795.7 618.6c2.9 5.5 1.2 12-3.8 14.7-4.7 2.5-10.7.6-13.8-4.2-.2-.3-.3-.6-.5-.8-2.9-5.5-1.2-12 3.8-14.7s11.4-.5 14.3 5z" fill="none" stroke="#231f20" stroke-linecap="round" stroke-linejoin="round" stroke-width="14"/><path d="m729.6 729.2s34.2 0 33.4 2.5" fill="none" stroke="#231f20" stroke-linecap="round" stroke-linejoin="round" stroke-width="14"/><path d="m728 771.6 27.7 20.3" fill="none" stroke="#231f20" stroke-linecap="round" stroke-linejoin="round" stroke-width="14"/><path d="m652.3 686.1s32.1-15.4 57.8-61.1c16.8-29.9 25.9-46.9 30.5-56 3.4-6.7 4.5-9.1 4.5-9.1" fill="none" stroke="#231f20" stroke-linecap="round" stroke-linejoin="round" stroke-width="14"/><path d="m681.6 686.9s.2-.1.6-.2c.7-.3 1.9-.8 3.5-1.5 12.4-5.3 50.3-22.2 72.8-38.8.4-.3.9-.6 1.3-1" fill="none" stroke="#231f20" stroke-linecap="round" stroke-linejoin="round" stroke-width="14"/><path d="m175.4 220.5c0-33.7 11.6-61.3 26.2-63.4.5-.1 1-.1 1.5-.1h.3c15.5 0 28 28.4 28 63.5s-12.5 63.5-28 63.5c-15.4.1-28-28.4-28-63.5z" fill="#bd2025"/><path d="m203.8 285.9c26 0 47 31 47 69.1 0 38.2-21.1 69.1-47 69.1-26 0-47-31-47-69.1-.1-38.1 21-69.1 47-69.1z" fill="#bd2025"/><path d="m203.2 156.1v.9c-.5 0-1 .1-1.5.1l-.1-.8c-24.7-.7-32.4-5-26.2-29.9s24.3-24.9 24.3-24.9l5.3-.2s18.1 0 24.3 24.9c6.3 24.9-1.4 29.2-26.1 29.9z" fill="#bd2025"/><path d="m316.4 52c-13.4 8-38.1 24.4-48.3 42.5l-48.3 10.7" fill="none" stroke="#231f20" stroke-linecap="round" stroke-linejoin="round" stroke-width="10.7912"/><path d="m186.3 105s-24.9-3.5-48.7-1c0 0-14.9-27.3-45.9-35" fill="none" stroke="#231f20" stroke-linecap="round" stroke-linejoin="round" stroke-width="10.7912"/><path d="m250.8 355.1c0 38.2-21.1 69.1-47 69.1-26 0-47-31-47-69.1 0-38.2 21.1-69.1 47-69.1 25.9-.1 47 30.9 47 69.1z" fill="none" stroke="#231f20" stroke-linecap="round" stroke-linejoin="round" stroke-width="10.7912"/><path d="m203.2 156.1c24.7-.7 32.4-5 26.2-29.9s-24.3-24.9-24.3-24.9l-5.3.2s-18.1 0-24.3 24.9 1.5 29.2 26.2 29.9" fill="none" stroke="#231f20" stroke-linecap="round" stroke-linejoin="round" stroke-width="10.7912"/><path d="m203.2 157h.3c15.5 0 28 28.4 28 63.5s-12.5 63.5-28 63.5-28-28.4-28-63.5c0-33.7 11.6-61.3 26.2-63.4.5-.1 1-.1 1.5-.1z" fill="none" stroke="#231f20" stroke-linecap="round" stroke-linejoin="round" stroke-width="10.7912"/><path d="m217.2 285.9 54.8 11.9 23.6 79.7 23.7 26.2" fill="none" stroke="#231f20" stroke-width="10.7912"/><path d="m230.2 246.7 54.9 5 36.7 36.1" fill="none" stroke="#231f20" stroke-width="10.7912"/><path d="m227.1 185.6 39.9 3.8 46.7-15.6" fill="none" stroke="#231f20" stroke-width="10.7912"/><path d="m190.4 287.2-54.8 11.8-23.7 79.7-23.7 26.2" fill="none" stroke="#231f20" stroke-width="10.7912"/><path d="m173.8 244.8-47.6 4.4-36.7 36.1" fill="none" stroke="#231f20" stroke-width="10.7912"/><path d="m176.9 184.2-32.6 2.7-46.7-15.6" fill="none" stroke="#231f20" stroke-width="10.7912"/></svg>