<svg enable-background="new 0 0 850.4 850.4" height="850.4" viewBox="0 0 850.4 850.4" width="850.4" xmlns="http://www.w3.org/2000/svg"><path d="m690.3 366.5v381h-43.3l.7-351.8s.3-13.2-1.1-29.3z" fill="#c8c8c8"/><path d="m690.3 131.7v234.8h-43.6c-1-11.8-2.9-25.2-6.3-36.1-8.1-25.6-17.6-27.1-12.4-74.1 5.1-46.9 15-78 21.3-109.3 5.9-29.4 10.8-48.8 30.8-43.3 0 .1 10.2-1.3 10.2 28z" fill="#c8c8c8"/><path d="m646.7 366.5c1.3 16.1 1.1 29.3 1.1 29.3l-.7 351.8h43.3s0-206.9 0-381c0-119.1 0-222.9 0-234.8 0-29.4-10.3-27.9-10.3-27.9-20.1-5.6-24.9 13.9-30.8 43.3-6.3 31.3-16.2 62.4-21.3 109.3s4.4 48.4 12.4 74.1c3.4 10.7 5.3 24.1 6.3 35.9z" fill="none" stroke="#000" stroke-width="17.6022"/><path d="m646.7 366.5h43.6" fill="none" stroke="#000" stroke-width="17.6022"/><path d="m422 111.3c0-9.2 18.4-5.1 38-5.1 15.7 0 37.1-6.3 37.4 5.5s6 109.1 9.2 139.1c2.1 20.2-.8 37.5-10.4 47.3-9.7 9.7-19.6 19.6-22.7 36-3 16.3 6.1 44.7 6.1 44.7l.8 367.4h-41.1l.8-367.4s9.2-28.3 6.2-44.7c-3-16.3-13-26.3-22.8-36-9.7-9.7-12.6-27-10.4-47.3 3.1-30.1 9.2-139.1 9.2-139.1z" fill="#c8c8c8"/><g fill="none" stroke="#000"><path d="m497.6 111.6s6 109.1 9.2 139.1c2.1 20.2-.8 37.5-10.4 47.3-9.7 9.7-19.6 19.6-22.7 36-3 16.3 6.1 44.7 6.1 44.7l.8 367.4h-41.1l.8-367.4s9.2-28.3 6.2-44.7c-3-16.3-13-26.3-22.8-36-9.7-9.7-12.6-27-10.4-47.3 3.1-30.1 9.2-139.1 9.2-139.1" stroke-width="18.379"/><path d="m444.4 111.8v120.9" stroke-width="18.379"/><path d="m472.7 111.8v120.8" stroke-width="18.379"/></g><path d="m302 176.2c10.9 37.2 7.7 56.6-4.6 81.3-12.3 24.8-40 57.9-40 57.9-3.3 5.2-5.9 11-7.2 18.1-3.1 16.5 6.2 45.2 6.2 45.2l.8 371.4-45.5-.2.8-371.4s9.3-28.7 6.2-45.2c-1.3-7-3.9-12.9-7.2-18.1 0 0-27.6-33.3-40-58-12.4-24.8-15.5-44.1-4.7-81.3 10.9-37.2 23.5-60.7 43.3-69.7 11.8-5.4 25.3-5.9 25.3-5.9 8.1.3 13.4 1.6 23.4 6.1 19.8 9.1 32.4 32.6 43.2 69.8z" fill="#c8c8c8"/><path d="m235.3 100.4c8.1.3 13.4 1.6 23.4 6.1 19.9 8.9 32.5 32.5 43.3 69.7 10.9 37.2 7.7 56.6-4.6 81.3-12.3 24.8-40 57.9-40 57.9-3.3 5.2-5.9 11-7.2 18.1-3.1 16.5 6.2 45.2 6.2 45.2l.8 371.4-45.5-.2.8-371.4s9.3-28.7 6.2-45.2c-1.3-7-3.9-12.9-7.2-18.1 0 0-27.6-33.3-40-58-12.4-24.8-15.5-44.1-4.7-81.3 10.9-37.2 23.5-60.7 43.3-69.7 11.7-5.2 25.2-5.8 25.2-5.8z" fill="none" stroke="#000" stroke-width="18.5794"/></svg>