<svg enable-background="new 0 0 850.4 850.4" height="850.4" viewBox="0 0 850.4 850.4" width="850.4" xmlns="http://www.w3.org/2000/svg"><path d="m577.5 114c0 2.3-2 4.2-4.5 4.2s-4.5-1.9-4.5-4.2 2-4.1 4.5-4.1 4.5 1.8 4.5 4.1z" fill="#c8c8c8"/><path d="m511.3 123.4c.5 12.1-42.5 30.9-42.5 30.9s-22.7 6.1-51.9.6c-29.3-5.5 28.2-29.3 55.2-37s38.6-6.6 39.2 5.5z" fill="#fff"/><path d="m538.3 238.9s27.6 48.1 21.5 68-31.5 28.7-49.2 17.7c-17.6-11.1-38.6-28.8-38.6-28.8l-1.9-2.3c2.3-1.9 4.6-3.9 6.9-5.8 9.4-7.9 18.8-15.9 28.2-24 11.5-9.9 21.8-18.9 31.1-27.2z" fill="#231f20"/><path d="m233.9 397.5c32 22.7 72.6 15.1 77.9 14-31.8 19.7-83.1 53-102.8 73.4-10 10.4-19.2 19-27.5 27.2l-.7-.7c-8.3-22.6 17.7-50.3 11-61.9-6.6-11.6-35.9 18.8-51.4 34.8s-28.2 5.5-27.1-40.3c1.1-45.9 18.8-58 39.8-70.2 21.1-12.2 56.5 6.5 80.8 23.7z" fill="#fff"/><path d="m466.6 248.8c-8.8-11.4-23.3-15.5-22.2-28.6 2.2-27.6 45.2-60.3 97.2-65.8 59.9-6.2 89.9-23.3 96.8-27.7-1 9.4-12.2 20-28.8 39.8 0 0-18.4 21.1-73.4 70-9.3 8.3-19.6 17.3-31.1 27.2-9.3 8.1-18.7 16.1-28.2 24l-1.1-1.3c3.9-9.4 1.7-17.1-6.1-32.6-.8-1.8-1.9-3.5-3.1-5z" fill="#fff"/><path d="m225 101.9c32.4 33 70.9 32.7 73.4 32.6-2.2.9-4.3 1.8-6.5 2.8-58.1 25-108.5 81.4-127.9 105.2l-.3-.2c20.4-30.4 12.7-74 12.7-74-1.1-19.9-9.4-53.6-31.5-84-14.3-19.7-26.6-25-6.6-31.5 22.1-7.3 58.6 20.4 86.7 49.1z" fill="#231f20"/><path d="m637.8 121.2c.6 1.8.8 3.6.6 5.5-6.9 4.4-36.9 21.4-96.8 27.7-52 5.4-95 38.1-97.2 65.8-1.1 13.1 13.5 17.3 22.2 28.6 1.2 1.5 2.3 3.2 3.2 5.1 7.7 15.5 10 23.2 6.1 32.6l1.1 1.3c-2.3 1.9-4.6 3.9-6.9 5.8-45.2 37.7-90.6 73.2-131.8 101.7 0 0-10.9 6.4-26.5 16.2-5.3 1.1-45.9 8.8-77.9-14-24.3-17.2-59.7-35.9-80.7-23.8s-38.7 24.3-39.8 70.2 11.6 56.4 27.1 40.3c15.5-16 44.8-46.4 51.4-34.8s-19.3 39.2-11 61.9l.7.7c-15.9 15.8-28.8 30.5-39.4 55.1-16 37.6-27.6 70.7-24.3 95s18.1 40.7 30.4 61.9c12.2 21 10.5 27.1-14.4 17.7s-21-15.5-27.6 3.9c-6.6 19.3-20.4 47.5-32.1 29.8-11.6-17.7-9.9-50.8-7.2-101.1 0 0-7.7-39.2-7.7-97.3 0-58 6.7-151.8 31.5-210 30.4-71.3 64.6-113.8 64.6-113.8s3-4.1 8.5-10.9c19.4-23.8 69.8-80.2 127.9-105.2 2.2-.9 4.4-1.9 6.5-2.8 72-30.1 136.9-43.3 201.8-49.2 66.9-6.1 97.8 5 108.8 17.1 11.2 12.4 22.1-.4 28.9 19zm-64.8-3c2.5 0 4.5-1.9 4.5-4.2s-2-4.1-4.5-4.1-4.5 1.8-4.5 4.1 2 4.2 4.5 4.2zm-104.3 36.2s43.1-18.8 42.5-30.9c-.5-12.2-12.2-13.3-39.2-5.5-27.1 7.7-84.5 31.5-55.3 37 29.4 5.5 52-.6 52-.6z" fill="#231f20"/><path d="m181.5 512c-15.9 15.8-28.8 30.5-39.4 55.1-16 37.6-27.6 70.7-24.3 95s18.1 40.7 30.4 61.9c12.2 21 10.5 27.1-14.4 17.7s-21-15.5-27.6 3.9c-6.6 19.3-20.4 47.5-32.1 29.8-11.6-17.7-9.9-50.8-7.2-101.1 0 0-7.7-39.2-7.7-97.3 0-58 6.7-151.8 31.5-210 30.4-71.3 64.6-113.8 64.6-113.8s3-4.1 8.5-10.9c19.4-23.8 69.8-80.2 127.9-105.2 2.2-.9 4.4-1.9 6.5-2.8 72-30.1 136.9-43.3 201.8-49.2 66.9-6.1 97.8 5 108.8 17.1 11 12.2 21.9-.7 28.7 18.8.6 1.8.8 3.6.6 5.5-1 9.4-12.2 20-28.8 39.8 0 0-18.4 21.1-73.4 70-9.3 8.3-19.6 17.3-31.1 27.2-9.3 8.1-18.7 16.1-28.2 24-2.3 1.9-4.6 3.9-6.9 5.8-45.2 37.7-90.6 73.2-131.8 101.7 0 0-10.9 6.4-26.5 16.2-31.8 19.7-83.1 53-102.8 73.4-9.6 10.6-18.8 19.2-27.1 27.4z" fill="none" stroke="#231f20" stroke-width="14"/><path d="m298.5 134.5s0 0-.1 0c-2.4.1-41 .4-73.4-32.6-28.2-28.7-64.6-56.4-86.8-49.2-20 6.5-7.7 11.8 6.6 31.5 22.1 30.4 30.4 64.1 31.5 84 0 0 7.7 43.7-12.7 74" fill="none" stroke="#231f20" stroke-width="14"/><path d="m538.3 238.9s27.6 48.1 21.5 68-31.5 28.7-49.2 17.7c-17.6-11.1-38.6-28.8-38.6-28.8" fill="none" stroke="#231f20" stroke-width="14"/><path d="m640 125.6s-.5.4-1.6 1.1c-6.9 4.4-36.9 21.4-96.8 27.7-52 5.4-95 38.1-97.2 65.8-1.1 13.1 13.5 17.3 22.2 28.6 1.2 1.5 2.3 3.2 3.2 5.1 7.7 15.5 10 23.2 6.1 32.6" fill="none" stroke="#231f20" stroke-width="14"/><path d="m312.3 411.3s-.2 0-.6.1c-5.3 1.1-45.9 8.8-77.9-14-24.3-17.2-59.7-35.9-80.7-23.8-21 12.2-38.7 24.3-39.8 70.2s11.6 56.4 27.1 40.3c15.5-16 44.8-46.4 51.4-34.8s-19.3 39.2-11 61.9" fill="none" stroke="#231f20" stroke-width="14"/><path d="m468.7 154.4s43.1-18.8 42.5-30.9c-.5-12.2-12.2-13.3-39.2-5.5-27.1 7.7-84.5 31.5-55.3 37 29.4 5.5 52-.6 52-.6z" fill="none" stroke="#231f20" stroke-width="14"/><path d="m577.5 114c0 2.3-2 4.2-4.5 4.2s-4.5-1.9-4.5-4.2 2-4.1 4.5-4.1 4.5 1.8 4.5 4.1z" fill="none" stroke="#797878" stroke-width="13.2612"/><path d="m467.1 247.8s-.2.4-.5 1c-3.9 8.6-32.4 69.8-68.1 84.6-38.4 16-11.7-51.2 6.4-116.3" fill="none" stroke="#231f20" stroke-width="14"/><path d="m782.4 400.1c10.2 3.4 13.8 12.2-2.5 18.9-16.7 6.9-54.8 19.5-69.7 24.3 0 0-6.6 1.4-5.4 5.9s11.9 37.3 19.7 60.6c3 9.1 5.6 22.6-1.2 25.1-12.7 4.6-20.1-5.4-37.5-29.7-20-28.1-26.3-34.8-28.7-34.8l-.3-.2c-5.3-1.1-13.7 7.7-35.4 32.6-19.6 22.5-27.2 32.4-39.6 26.9-6.6-3-3.1-16.3.6-25.1 9.4-22.6 22.5-54.6 24.1-58.9 1.6-4.4-4.9-6.2-4.9-6.2-14.5-6-51.6-21.3-67.8-29.4-15.7-7.9-11.5-16.4-1.1-19s56.4 3.4 79.2 5.9c16.1 1.7 16.4 1.5 16.4 1.5 3.1-10.5 9.4-32.5 14.2-50.8s6.5-35.8 17.8-35h.7c11.5-.3 11.8 17.7 15.2 36.2 1.9 10.2 4.1 21.5 6.1 31.4-.7-.8-1.8-1.3-3.1-1.3-2.1.1-3.7 1.6-3.6 3.3.1 1.8 1.8 3.2 3.8 3.1 1.7-.1 3-1 3.5-2.3.6 3 1.2 5.8 1.7 8.3-.7-.9-1.9-1.5-3.2-1.4-2.1.1-3.7 1.6-3.6 3.3.1 1.8 1.8 3.2 3.8 3.1 1.8-.1 3.2-1.1 3.6-2.6.5 2.5 1 4.8 1.4 6.7 0 0 .2.2 16.4-.3 22.9-.8 69.2-3.5 79.4-.1zm-1.4 11.4c0-2.1-1.4-3.7-3.2-3.7s-3.2 1.7-3.2 3.7c0 2.1 1.4 3.7 3.2 3.8 1.7 0 3.2-1.7 3.2-3.8zm-10-3c0-2.1-1.4-3.7-3.2-3.7s-3.2 1.7-3.2 3.7c0 2.1 1.4 3.7 3.2 3.7 1.7.1 3.2-1.6 3.2-3.7zm-5.1 10.2c0-2.1-1.4-3.7-3.2-3.7s-3.2 1.7-3.2 3.7c0 2.1 1.4 3.7 3.2 3.7 1.7 0 3.2-1.7 3.2-3.7zm-8.7-8.3c1.8-.1 3.1-1.9 2.9-4s-1.7-3.6-3.5-3.5-3.1 1.9-2.9 4c.1 2.1 1.7 3.6 3.5 3.5zm-4.9 8.5c1.8-.1 3.1-1.9 2.9-4s-1.7-3.6-3.5-3.5-3.1 1.9-2.9 4c.1 2.1 1.7 3.7 3.5 3.5zm-3.3 4.6c0-2.1-1.4-3.7-3.2-3.7s-3.2 1.7-3.2 3.7c0 2.1 1.4 3.7 3.2 3.7 1.7 0 3.2-1.6 3.2-3.7zm-3.9-13.4c1.8-.1 3.1-1.9 2.9-4s-1.7-3.6-3.5-3.5-3.1 1.9-2.9 4 1.7 3.6 3.5 3.5zm-4.8 5.9c0-2.1-1.4-3.7-3.2-3.7s-3.2 1.7-3.2 3.7c0 2.1 1.4 3.7 3.2 3.7 1.7 0 3.2-1.7 3.2-3.7zm-6.1 13.4c1.8-.1 3.1-1.9 2.9-4s-1.7-3.6-3.5-3.5-3.1 1.9-2.9 4 1.8 3.7 3.5 3.5zm-2.6-20.6c1.8-.1 3.1-1.9 2.9-4s-1.7-3.6-3.5-3.5-3.1 1.9-2.9 4 1.8 3.7 3.5 3.5zm-2.4 9c0-2.1-1.4-3.7-3.2-3.8-1.8 0-3.2 1.7-3.2 3.7 0 2.1 1.4 3.7 3.2 3.7 1.7.1 3.2-1.5 3.2-3.6zm-5.9 14.3c1.8-.1 3.1-1.9 2.9-4s-1.7-3.6-3.5-3.5-3.1 1.9-2.9 4 1.8 3.7 3.5 3.5zm.4-22.4c.3-2-.9-3.9-2.7-4.1s-3.4 1.2-3.7 3.3c-.3 2 .9 3.9 2.7 4.1 1.8.3 3.4-1.2 3.7-3.3zm-3.3 121.5c1.9-.8 2.9-2.7 2.3-4.4-.7-1.7-2.8-2.4-4.7-1.6s-2.9 2.7-2.3 4.4c.7 1.6 2.8 2.4 4.7 1.6zm-1-10.4c1.9-.8 2.9-2.7 2.3-4.4-.7-1.7-2.8-2.4-4.7-1.6s-2.9 2.7-2.3 4.4c.7 1.6 2.8 2.3 4.7 1.6zm-2.1-10.9c1.8-.9 2.7-3 1.9-4.6s-2.9-2.1-4.8-1.2c-1.8.9-2.7 3-1.9 4.6s3 2.1 4.8 1.2zm0-90.3c0-2.1-1.4-3.7-3.2-3.7s-3.2 1.7-3.2 3.7c0 2.1 1.4 3.7 3.2 3.7 1.7 0 3.1-1.6 3.2-3.7zm-4.2 79c1.9-.9 2.7-3 1.9-4.6s-2.9-2.1-4.8-1.2c-1.8.9-2.7 3-1.9 4.6s3 2.1 4.8 1.2zm-1.5-63.7c1.8-.1 3.1-1.9 2.9-4s-1.7-3.6-3.5-3.5-3.1 1.9-2.9 4 1.7 3.7 3.5 3.5zm.9-24.8c.3-2.1-.9-3.9-2.7-4.1s-3.4 1.2-3.7 3.3c-.3 2 .9 3.9 2.7 4.1 1.7.2 3.4-1.2 3.7-3.3zm-3.3 75.5c1.8-.9 2.7-3 1.9-4.6s-2.9-2.1-4.8-1.2c-1.8.9-2.7 3-1.9 4.6s3 2.1 4.8 1.2zm-1.1 34.2c1.9-.8 2.9-2.7 2.3-4.4-.7-1.7-2.8-2.4-4.7-1.6s-2.9 2.7-2.3 4.4c.7 1.7 2.8 2.4 4.7 1.6zm-.6-11.3c1.9-.9 2.7-3 1.9-4.6s-2.9-2.1-4.8-1.2c-1.8.9-2.7 3-1.9 4.6.9 1.6 3 2.2 4.8 1.2zm-1.3-87.1c0-2.1-1.4-3.7-3.2-3.8-1.8 0-3.2 1.7-3.2 3.7 0 2.1 1.4 3.7 3.2 3.7 1.7.2 3.2-1.5 3.2-3.6zm-5.5 16.2c1.8-.1 3.1-1.9 2.9-4s-1.7-3.6-3.5-3.5-3.1 1.9-2.9 4 1.7 3.7 3.5 3.5zm-.1 39.8c2-.5 3.3-2.3 2.8-4.1-.4-1.7-2.4-2.7-4.4-2.2s-3.3 2.3-2.8 4.1c.4 1.7 2.4 2.7 4.4 2.2zm.4 17.7c1.9-.8 2.9-2.7 2.3-4.4-.7-1.7-2.8-2.4-4.7-1.6s-2.9 2.7-2.3 4.4c.7 1.6 2.8 2.3 4.7 1.6zm2-47.7c.8-1.6-.1-3.6-1.9-4.6-1.9-.9-4-.4-4.8 1.2s.1 3.6 1.9 4.6c1.8.9 4 .4 4.8-1.2zm-2.6-37.1c.3-2-.9-3.9-2.7-4.1s-3.4 1.2-3.7 3.3c-.3 2 .9 3.9 2.7 4.1 1.8.3 3.5-1.2 3.7-3.3zm-3.1 95.7c1.9-.8 2.9-2.7 2.3-4.4-.7-1.7-2.8-2.4-4.7-1.6s-2.9 2.7-2.3 4.4c.7 1.6 2.8 2.3 4.7 1.6zm-1.2-38.9c2-.5 3.3-2.3 2.8-4.1-.4-1.7-2.4-2.7-4.4-2.2s-3.3 2.3-2.8 4.1c.4 1.7 2.4 2.7 4.4 2.2zm-.9 18.4c1.9-.8 2.9-2.7 2.3-4.4-.7-1.7-2.8-2.4-4.7-1.6s-2.9 2.7-2.3 4.4c.7 1.6 2.8 2.3 4.7 1.6zm-3.9-29.5c2-.5 3.3-2.3 2.8-4.1-.4-1.7-2.4-2.7-4.4-2.2s-3.3 2.3-2.8 4.1c.5 1.7 2.4 2.7 4.4 2.2zm-.2 39.7c1.8-.9 2.7-3 1.9-4.6s-2.9-2.1-4.8-1.2c-1.8.9-2.7 3-1.9 4.6s2.9 2.2 4.8 1.2zm-2-20.6c1.9-.8 2.9-2.7 2.3-4.4-.7-1.7-2.8-2.4-4.7-1.6s-2.9 2.7-2.3 4.4c.6 1.6 2.7 2.3 4.7 1.6zm2.2-43.9c.2-1.8-1.3-3.4-3.4-3.6s-3.9 1.1-4.1 2.8c-.2 1.8 1.3 3.4 3.4 3.6 2.1.3 4-1 4.1-2.8zm-.7-11.2c.2-1.8-1.3-3.4-3.4-3.6s-3.9 1.1-4.1 2.8c-.2 1.8 1.3 3.4 3.4 3.6 2.1.3 4-1 4.1-2.8zm-3.8 25.7c2-.5 3.3-2.3 2.8-4.1-.4-1.7-2.4-2.7-4.4-2.2s-3.3 2.3-2.8 4.1c.4 1.8 2.4 2.8 4.4 2.2zm2.4-35c.3-2.1-.9-3.9-2.7-4.1s-3.4 1.2-3.7 3.3c-.3 2 .9 3.9 2.7 4.1s3.4-1.2 3.7-3.3zm-4.7 75.9c1.9-.9 2.7-3 1.9-4.6s-2.9-2.1-4.8-1.2c-1.8.9-2.7 3-1.9 4.6s2.9 2.2 4.8 1.2zm-1.3-21.1c1.9-.8 2.9-2.7 2.3-4.4-.7-1.7-2.8-2.4-4.7-1.6s-2.9 2.7-2.3 4.4c.7 1.6 2.8 2.4 4.7 1.6zm-5.7 11.3c1.9-.9 2.7-3 1.9-4.6s-2.9-2.1-4.8-1.2c-1.8.9-2.7 3-1.9 4.6s3 2.1 4.8 1.2zm1.9-35.2c.8-1.6-.1-3.6-1.9-4.6-1.9-.9-4-.4-4.8 1.2s.1 3.6 1.9 4.6c1.9.9 4 .4 4.8-1.2zm-2.5-31c.2-1.8-1.3-3.4-3.4-3.6s-3.9 1.1-4.1 2.8c-.2 1.8 1.3 3.4 3.4 3.6s3.9-1 4.1-2.8zm-.2 13.6c.5-1.7-.7-3.6-2.7-4.2s-4 .4-4.5 2.1.7 3.6 2.7 4.1 4-.2 4.5-2zm-1.2 29.8c.8-1.6-.1-3.6-1.9-4.6-1.9-.9-4-.4-4.8 1.2s.1 3.6 1.9 4.6c1.8.9 4 .4 4.8-1.2zm-1.8-54.5c.2-1.8-1.3-3.4-3.4-3.6s-3.9 1-4.1 2.8 1.3 3.4 3.4 3.6 3.9-1 4.1-2.8zm-.7-11.2c.2-1.8-1.3-3.4-3.4-3.6s-3.9 1.1-4.1 2.8c-.2 1.8 1.3 3.4 3.4 3.6s3.9-1.1 4.1-2.8zm-2.1 79.4c1.9-.9 2.7-3 1.9-4.6s-2.9-2.1-4.8-1.2c-1.8.9-2.7 3-1.9 4.6s3 2.1 4.8 1.2zm1.5-91.5c.2-1.8-1.3-3.4-3.4-3.6s-3.9 1.1-4.1 2.8c-.2 1.8 1.3 3.4 3.4 3.6 2.1.3 3.9-1 4.1-2.8zm-.5 58.2c.5-1.7-.7-3.6-2.7-4.1-2-.6-4 .4-4.5 2.1s.7 3.6 2.7 4.2c2 .4 4-.5 4.5-2.2zm-.2-69.4c.2-1.8-1.3-3.4-3.4-3.6s-3.9 1.1-4.1 2.8c-.2 1.8 1.3 3.4 3.4 3.6 2.1.3 3.9-1 4.1-2.8zm0-11.7c.3-1.8-1.1-3.5-3.1-3.9s-3.9.7-4.3 2.5c-.3 1.8 1.1 3.5 3.1 3.9s3.9-.7 4.3-2.5zm-1.7-17.5c.3-1.8-1-3.5-3.1-3.9-2-.4-3.9.7-4.3 2.5-.3 1.8 1 3.5 3.1 3.9s4-.7 4.3-2.5zm-3.2 109.5c.5-1.7-.7-3.6-2.7-4.2s-4 .4-4.5 2.1.7 3.6 2.7 4.1c2 .7 4-.3 4.5-2zm-1.1-125.7c.3-1.8-1.1-3.5-3.1-3.9s-4 .7-4.3 2.5 1 3.5 3.1 3.9 4-.7 4.3-2.5zm-1 25.8c.2-1.8-1.3-3.4-3.4-3.6s-3.9 1.1-4.1 2.8c-.2 1.8 1.3 3.4 3.4 3.6s3.9-1.1 4.1-2.8zm-2 15.1c.3-1.8-1.1-3.5-3.1-3.9s-3.9.7-4.3 2.5c-.3 1.8 1 3.5 3.1 3.9 2 .4 4-.7 4.3-2.5zm-.2 11.3c.3-1.8-1.1-3.5-3.1-3.9s-3.9.7-4.3 2.5c-.3 1.8 1.1 3.5 3.1 3.9 2 .3 3.9-.8 4.3-2.5zm-.1 47.5c.4-1.7-.8-3.6-2.8-4.1s-4 .5-4.4 2.2.8 3.5 2.8 4.1c2 .5 4-.5 4.4-2.2zm-.4-35.5c.3-1.8-1-3.5-3.1-3.9-2-.4-3.9.7-4.3 2.5-.3 1.8 1.1 3.5 3.1 3.9 2.1.4 4-.8 4.3-2.5zm0 71.7c.5-1.7-.7-3.6-2.7-4.1-2-.6-4 .4-4.5 2.1s.7 3.6 2.7 4.1 4-.4 4.5-2.1zm-.2-60.5c.3-1.8-1.1-3.5-3.1-3.9s-3.9.7-4.3 2.5c-.3 1.8 1 3.5 3.1 3.9s4-.7 4.3-2.5zm-.8-66.1c.3-1.8-1.1-3.5-3.1-3.9s-3.9.7-4.3 2.5c-.3 1.8 1.1 3.5 3.1 3.9s3.9-.7 4.3-2.5zm-.2 77.6c.2-1.8-1.3-3.4-3.4-3.6s-3.9 1.1-4.1 2.8c-.2 1.8 1.3 3.4 3.4 3.6s3.9-1.1 4.1-2.8zm-2.9 23c.4-1.7-.8-3.5-2.8-4.1-2-.5-4 .5-4.4 2.2s.8 3.5 2.8 4.1c2 .5 3.9-.4 4.4-2.2zm-.7-90.5c.2-1.8-1.3-3.4-3.4-3.6s-3.9 1.1-4.1 2.8c-.2 1.8 1.3 3.4 3.4 3.6s3.9-1.1 4.1-2.8zm-2.2 126.1c.8-1.6-.1-3.6-1.9-4.6-1.8-.9-4-.4-4.8 1.2s.1 3.6 1.9 4.6c1.8.9 4 .4 4.8-1.2zm-.3-114.3c.2-1.8-1.3-3.4-3.4-3.6s-3.9 1.1-4.1 2.8c-.2 1.8 1.3 3.4 3.4 3.6s3.9-1 4.1-2.8zm-1.5 89.8c.4-1.7-.8-3.6-2.8-4.1s-4 .5-4.4 2.2.8 3.6 2.8 4.1 3.9-.5 4.4-2.2zm-.2-64.6c.6-1.7-.6-3.6-2.6-4.2s-4 .2-4.6 1.9.6 3.6 2.6 4.2c2 .7 4-.2 4.6-1.9zm-1.5 42.9c.7-1.7-.4-3.6-2.3-4.4s-4-.1-4.7 1.6.4 3.6 2.3 4.4 4 .1 4.7-1.6zm-.2-31.8c.6-1.7-.6-3.6-2.6-4.2s-4 .2-4.6 1.9.6 3.6 2.6 4.2c2 .7 4.1-.2 4.6-1.9zm-.3-23.3c.2-1.8-1.3-3.4-3.4-3.6s-3.9 1.1-4.1 2.8c-.2 1.8 1.3 3.4 3.4 3.6 2.1.3 3.9-1 4.1-2.8zm-1.7 35.2c.6-1.7-.6-3.6-2.6-4.2s-4 .2-4.6 1.9.6 3.6 2.6 4.2 4.1-.2 4.6-1.9zm-.7 51.9c.4-1.7-.8-3.5-2.8-4.1-2-.5-4 .5-4.4 2.2s.8 3.5 2.8 4.1c2 .5 4-.5 4.4-2.2zm-1-40.8c.6-1.7-.6-3.6-2.6-4.2s-4 .2-4.6 1.9.6 3.6 2.6 4.2c2 .7 4.1-.2 4.6-1.9zm-1.9 18.4c.7-1.7-.4-3.6-2.3-4.4s-4-.1-4.7 1.6.4 3.6 2.3 4.4 4 .1 4.7-1.6zm-2.3 33.5c.8-1.6-.1-3.6-1.9-4.6-1.8-.9-4-.4-4.8 1.2s.1 3.6 1.9 4.6c1.9.9 4 .3 4.8-1.2zm-1.8-74.5c.8-1.6-.1-3.6-1.9-4.6-1.9-.9-4-.4-4.8 1.2s.1 3.6 1.9 4.6c1.9.9 4 .4 4.8-1.2zm-2 51.4c.7-1.7-.4-3.6-2.3-4.4s-4 0-4.7 1.6c-.7 1.7.3 3.6 2.3 4.4 1.9.8 4 0 4.7-1.6zm-1.3-20.5c.8-1.6-.1-3.6-1.9-4.6-1.8-.9-4-.4-4.8 1.2s.1 3.6 1.9 4.6c1.9 1 4 .4 4.8-1.2zm-.8-17.7c.8-1.6-.1-3.6-1.9-4.6-1.8-.9-4-.4-4.8 1.2s.1 3.6 1.9 4.6c1.8.9 4 .4 4.8-1.2zm-.7 70.3c.8-1.6-.1-3.6-1.9-4.6-1.8-.9-4-.4-4.8 1.2s.1 3.6 1.9 4.6c1.9 1 4 .4 4.8-1.2zm-3.1-22.5c.7-1.7-.4-3.6-2.3-4.4s-4 0-4.7 1.6c-.7 1.7.4 3.6 2.3 4.4s4 0 4.7-1.6zm-2-19.1c.7-1.7-.4-3.6-2.3-4.4s-4 0-4.7 1.6c-.7 1.7.4 3.6 2.3 4.4s4 .1 4.7-1.6zm-.7 29.9c.7-1.7-.4-3.6-2.3-4.4s-4-.1-4.7 1.6.3 3.6 2.3 4.4 4.1.1 4.7-1.6zm-1.1 21.6c.8-1.6-.1-3.6-1.9-4.6-1.9-.9-4-.4-4.8 1.2s.1 3.6 1.9 4.6c1.8.9 4 .4 4.8-1.2zm-1.9-71c0-2.1-1.4-3.7-3.2-3.7s-3.2 1.7-3.2 3.7c0 2.1 1.4 3.7 3.2 3.7 1.8.1 3.2-1.6 3.2-3.7zm-2.8 59c.7-1.7-.4-3.6-2.3-4.4s-4-.1-4.7 1.6.4 3.6 2.3 4.4 4 .1 4.7-1.6zm-1.9 21.1c.8-1.6-.1-3.6-1.9-4.6-1.9-.9-4-.4-4.8 1.2s.1 3.6 1.9 4.6c1.8.9 4 .4 4.8-1.2zm-.1-51.3c.4-1.7-.8-3.5-2.8-4.1-2-.5-4 .5-4.4 2.2s.8 3.5 2.8 4.1c2 .5 3.9-.5 4.4-2.2zm-.5 10.6c.4-1.7-.8-3.5-2.8-4.1-2-.5-4 .5-4.4 2.2s.8 3.5 2.8 4.1c1.9.5 3.9-.5 4.4-2.2zm-.6-27.8c.7-1.7-.4-3.6-2.3-4.4s-4-.1-4.7 1.6.4 3.6 2.3 4.4c2 .7 4.1 0 4.7-1.6zm-3 57.8c.7-1.7-.4-3.6-2.3-4.4s-4-.1-4.7 1.6.4 3.6 2.3 4.4 4 .1 4.7-1.6zm-1.1-18.9c.4-1.7-.8-3.6-2.8-4.1s-4 .5-4.4 2.2.8 3.6 2.8 4.1c1.9.5 3.9-.5 4.4-2.2zm-1 39.4c.7-1.7-.4-3.6-2.3-4.4s-4-.1-4.7 1.6.4 3.6 2.3 4.4 4 .1 4.7-1.6zm-.1-91.7c0-2.1-1.4-3.7-3.2-3.7s-3.2 1.7-3.2 3.7c0 2.1 1.4 3.7 3.2 3.7s3.2-1.7 3.2-3.7zm-3.5 62.5c.4-1.7-.8-3.5-2.8-4.1-2-.5-4 .5-4.4 2.2s.8 3.5 2.8 4.1c2 .5 4-.4 4.4-2.2zm-.2 18.3c.7-1.7-.4-3.6-2.3-4.4s-4-.1-4.7 1.6.4 3.6 2.3 4.4c2 .8 4.1.1 4.7-1.6zm-2.7-56.8c.4-2-.6-4-2.4-4.3-1.7-.4-3.5 1-4 3-.4 2 .6 4 2.4 4.3 1.8.4 3.6-1 4-3zm-.8-13c.3-2.1-.9-3.9-2.7-4.1s-3.4 1.2-3.7 3.3c-.3 2 1 3.9 2.7 4.1 1.8.3 3.5-1.2 3.7-3.3zm-2.9 83.7c.8-1.6-.1-3.6-1.9-4.6-1.9-.9-4-.4-4.8 1.2s.1 3.6 1.9 4.6c1.9.9 4 .4 4.8-1.2zm-.6 10.9c.7-1.7-.4-3.6-2.3-4.4s-4-.1-4.7 1.6.4 3.6 2.3 4.4 4 0 4.7-1.6zm-1-33.8c.8-1.6-.1-3.6-1.9-4.6-1.8-.9-4-.4-4.8 1.2s.1 3.6 1.9 4.6c1.8.9 4 .4 4.8-1.2zm-.2-73.6c0-2.1-1.4-3.7-3.2-3.7s-3.2 1.7-3.2 3.7c0 2.1 1.4 3.7 3.2 3.7s3.2-1.7 3.2-3.7zm-3.7 86.5c.8-1.6-.1-3.6-1.9-4.6-1.8-.9-4-.4-4.8 1.2s.1 3.6 1.9 4.6 4 .4 4.8-1.2zm-1.2-64.8c.4-2-.6-4-2.4-4.3-1.7-.4-3.5 1-4 3-.4 2 .6 4 2.4 4.3s3.5-1 4-3zm-1.1-12.1c.3-2.1-1-3.9-2.7-4.1-1.8-.2-3.4 1.2-3.7 3.3s1 3.9 2.7 4.1 3.4-1.3 3.7-3.3zm-2 88.2c.8-1.6-.1-3.6-1.9-4.6-1.9-.9-4-.4-4.8 1.2s.1 3.6 1.9 4.6c1.9 1 4 .4 4.8-1.2zm-2.2 10.5c.7-1.7-.4-3.6-2.3-4.4s-4-.1-4.7 1.6.4 3.6 2.3 4.4c2 .8 4.1.1 4.7-1.6zm-.9 10.4c.7-1.7-.4-3.6-2.3-4.4s-4-.1-4.7 1.6.4 3.6 2.3 4.4 4 .1 4.7-1.6zm0-120.6c0-2.1-1.4-3.7-3.2-3.7s-3.2 1.7-3.2 3.7c0 2.1 1.4 3.7 3.2 3.7 1.8.1 3.2-1.6 3.2-3.7zm-5.1 19.3c.4-2-.6-4-2.4-4.3-1.7-.4-3.5 1-4 3-.4 2 .6 4 2.4 4.3s3.6-1 4-3zm-1.4-11.2c.3-2.1-1-3.9-2.7-4.1-1.8-.2-3.4 1.2-3.7 3.3-.3 2 .9 3.9 2.7 4.1s3.4-1.2 3.7-3.3zm-3.7-13c.4-2-.6-4-2.4-4.3-1.7-.4-3.5 1-4 3-.4 2 .6 4 2.4 4.3s3.5-1 4-3zm-5.3 20c.4-2-.6-4-2.4-4.3-1.7-.4-3.5 1-4 3-.4 2 .6 4 2.4 4.3 1.8.4 3.5-.9 4-3zm-1.8-10.3c.3-2.1-.9-3.9-2.7-4.1s-3.4 1.2-3.7 3.3c-.3 2 1 3.9 2.7 4.1 1.8.3 3.5-1.2 3.7-3.3zm-6.5-10.3c.4-2-.6-4-2.4-4.3-1.7-.4-3.5 1-4 3-.4 2 .6 4 2.4 4.3 1.8.4 3.6-1 4-3zm-3.1 16.6c.3-2-.9-3.9-2.7-4.1s-3.4 1.2-3.7 3.3 1 3.9 2.7 4.1c1.8.3 3.4-1.2 3.7-3.3zm-5.1-8.7c.4-2-.6-4-2.4-4.3-1.7-.4-3.5 1-4 3s.6 4 2.4 4.3 3.5-1 4-3zm-3.8-9.2c.4-2-.6-4-2.4-4.3-1.7-.4-3.5 1-4 3-.4 2 .6 4 2.4 4.3 1.8.4 3.6-.9 4-3zm-7.2 10.9c.3-2.1-1-3.9-2.7-4.1-1.8-.2-3.4 1.2-3.7 3.3-.3 2 1 3.9 2.7 4.1 1.8.2 3.4-1.2 3.7-3.3zm-3.7-10.7c.3-2.1-.9-3.9-2.7-4.1s-3.4 1.2-3.7 3.3c-.3 2 1 3.9 2.7 4.1s3.4-1.3 3.7-3.3zm-10.4 1.6c.3-2.1-.9-3.9-2.7-4.1s-3.4 1.2-3.7 3.3c-.3 2 1 3.9 2.7 4.1 1.8.3 3.5-1.2 3.7-3.3z" fill="#f6cc4b"/><path d="m777.8 407.8c1.8 0 3.2 1.7 3.2 3.7 0 2.1-1.5 3.7-3.2 3.7-1.8 0-3.2-1.7-3.2-3.8-.1-2 1.4-3.6 3.2-3.6z" fill="#ffffc2"/><path d="m767.8 404.8c1.8 0 3.2 1.7 3.2 3.7 0 2.1-1.5 3.7-3.2 3.7-1.8 0-3.2-1.7-3.2-3.7-.1-2.1 1.4-3.7 3.2-3.7z" fill="#ffffc2"/><path d="m762.7 414.9c1.8 0 3.2 1.7 3.2 3.7 0 2.1-1.5 3.7-3.2 3.7-1.8 0-3.2-1.7-3.2-3.7-.1-2 1.4-3.7 3.2-3.7z" fill="#ffffc2"/><path d="m760.1 406.4c.2 2.1-1.1 3.8-2.9 4-1.8.1-3.4-1.4-3.5-3.5-.2-2.1 1.1-3.8 2.9-4 1.8-.1 3.4 1.4 3.5 3.5z" fill="#ffffc2"/><path d="m755.2 415c.2 2.1-1.1 3.8-2.9 4-1.8.1-3.4-1.4-3.5-3.5-.2-2.1 1.1-3.8 2.9-4s3.3 1.4 3.5 3.5z" fill="#ffffc2"/><path d="m745.8 419.8c1.8 0 3.2 1.7 3.2 3.7 0 2.1-1.5 3.7-3.2 3.7-1.8 0-3.2-1.7-3.2-3.7-.1-2.1 1.4-3.8 3.2-3.7z" fill="#ffffc2"/><path d="m748 406.1c.2 2.1-1.1 3.9-2.9 4s-3.4-1.4-3.5-3.5c-.2-2.1 1.1-3.9 2.9-4s3.4 1.4 3.5 3.5z" fill="#ffffc2"/><path d="m737 412.2c1.8 0 3.2 1.7 3.2 3.7 0 2.1-1.5 3.7-3.2 3.7-1.8 0-3.2-1.7-3.2-3.7s1.4-3.7 3.2-3.7z" fill="#ffffc2"/><path d="m737.2 425.4c.2 2.1-1.1 3.8-2.9 4-1.8.1-3.4-1.4-3.5-3.5-.2-2.1 1.1-3.8 2.9-4 1.7-.1 3.3 1.5 3.5 3.5z" fill="#ffffc2"/><path d="m734.6 404.9c.2 2.1-1.1 3.8-2.9 4-1.8.1-3.4-1.4-3.5-3.5-.2-2.1 1.1-3.9 2.9-4 1.7-.2 3.3 1.4 3.5 3.5z" fill="#ffffc2"/><path d="m725.9 414.1c1.8 0 3.2 1.7 3.2 3.8s-1.5 3.7-3.2 3.7c-1.8 0-3.2-1.7-3.2-3.7 0-2.2 1.5-3.8 3.2-3.8z" fill="#ffffc2"/><path d="m726.3 428.2c.2 2.1-1.1 3.8-2.9 4-1.8.1-3.4-1.4-3.5-3.5-.2-2.1 1.1-3.8 2.9-4 1.7-.2 3.3 1.4 3.5 3.5z" fill="#ffffc2"/><path d="m721 405.6c1.8.2 3 2.1 2.7 4.1s-1.9 3.5-3.7 3.3-3-2.1-2.7-4.1c.3-2.1 1.9-3.5 3.7-3.3z" fill="#ffffc2"/><path d="m722.7 526.8c.7 1.7-.4 3.6-2.3 4.4s-4 0-4.7-1.6c-.7-1.7.4-3.6 2.3-4.4s4-.1 4.7 1.6z" fill="#ffffc2"/><path d="m721.7 516.4c.7 1.7-.4 3.6-2.3 4.4s-4 .1-4.7-1.6.4-3.6 2.3-4.4 4-.1 4.7 1.6z" fill="#ffffc2"/><path d="m719.2 505.3c.8 1.6-.1 3.6-1.9 4.6-1.8.9-4 .4-4.8-1.2s.1-3.6 1.9-4.6c1.9-.9 4-.4 4.8 1.2z" fill="#ffffc2"/><path d="m714 415.9c1.8 0 3.2 1.7 3.2 3.7 0 2.1-1.5 3.7-3.2 3.7-1.8 0-3.2-1.7-3.2-3.7 0-2.1 1.4-3.8 3.2-3.7z" fill="#ffffc2"/><path d="m715 494c.8 1.6 0 3.6-1.9 4.6-1.8.9-4 .4-4.8-1.2s.1-3.6 1.9-4.6c1.9-.9 4-.4 4.8 1.2z" fill="#ffffc2"/><path d="m714.5 430.9c.2 2.1-1.1 3.9-2.9 4s-3.4-1.4-3.5-3.5c-.2-2.1 1.1-3.8 2.9-4 1.8-.1 3.4 1.5 3.5 3.5z" fill="#ffffc2"/><path d="m709.8 406c1.8.2 3 2.1 2.7 4.1s-1.9 3.5-3.7 3.3-3-2.1-2.7-4.1c.2-2.1 1.9-3.6 3.7-3.3z" fill="#ffffc2"/><path d="m711.1 481.1c.8 1.6-.1 3.6-1.9 4.6-1.8.9-4 .4-4.8-1.2s.1-3.6 1.9-4.6c1.9-1 4-.4 4.8 1.2z" fill="#ffffc2"/><path d="m710.4 515.4c.7 1.7-.4 3.6-2.3 4.4s-4 .1-4.7-1.6.4-3.6 2.3-4.4c1.9-.7 4 0 4.7 1.6z" fill="#ffffc2"/><path d="m709.5 504c.8 1.6-.1 3.6-1.9 4.6-1.8.9-4 .4-4.8-1.2s.1-3.6 1.9-4.6 4-.4 4.8 1.2z" fill="#ffffc2"/><path d="m702.9 417.7c1.8 0 3.2 1.7 3.2 3.8s-1.5 3.7-3.2 3.7c-1.8 0-3.2-1.7-3.2-3.7 0-2.2 1.5-3.8 3.2-3.8z" fill="#ffffc2"/><path d="m703.6 433.7c.2 2.1-1.1 3.8-2.9 4-1.8.1-3.4-1.4-3.5-3.5-.2-2.1 1.1-3.9 2.9-4 1.8-.2 3.4 1.4 3.5 3.5z" fill="#ffffc2"/><path d="m703.4 473.3c.4 1.7-.8 3.5-2.8 4.1-2 .5-4-.5-4.4-2.2s.8-3.5 2.8-4.1c2-.5 4 .5 4.4 2.2z" fill="#ffffc2"/><path d="m703.3 490.7c.7 1.7-.4 3.6-2.3 4.4s-4 .1-4.7-1.6.4-3.6 2.3-4.4 4-.1 4.7 1.6z" fill="#ffffc2"/><path d="m701.1 442.8c1.8.9 2.7 3 1.9 4.6s-2.9 2.1-4.8 1.2c-1.8-.9-2.7-3-1.9-4.6s2.9-2.1 4.8-1.2z" fill="#ffffc2"/><path d="m697.7 406.2c1.8.2 3 2.1 2.7 4.1-.3 2.1-1.9 3.5-3.7 3.3s-3-2.1-2.7-4.1c.3-2.1 1.9-3.5 3.7-3.3z" fill="#ffffc2"/><path d="m699.6 501.6c.7 1.7-.4 3.6-2.3 4.4s-4 .1-4.7-1.6.4-3.6 2.3-4.4 4-.1 4.7 1.6z" fill="#ffffc2"/><path d="m698.9 463c.4 1.7-.8 3.5-2.8 4.1-2 .5-4-.5-4.4-2.2s.8-3.6 2.8-4.1 3.9.5 4.4 2.2z" fill="#ffffc2"/><path d="m697.4 481.1c.7 1.7-.4 3.6-2.3 4.4s-4 0-4.7-1.6.4-3.6 2.3-4.4c2-.8 4.1-.1 4.7 1.6z" fill="#ffffc2"/><path d="m694.2 452c.4 1.7-.8 3.5-2.8 4.1-2 .5-4-.5-4.4-2.2s.8-3.6 2.8-4.1c1.9-.6 3.9.4 4.4 2.2z" fill="#ffffc2"/><path d="m693 491.2c.8 1.6-.1 3.6-1.9 4.6-1.9.9-4 .4-4.8-1.2s.1-3.6 1.9-4.6c1.9-1 4-.4 4.8 1.2z" fill="#ffffc2"/><path d="m691.3 470.7c.7 1.7-.4 3.6-2.3 4.4s-4 .1-4.7-1.6.3-3.6 2.3-4.4 4.1-.1 4.7 1.6z" fill="#ffffc2"/><path d="m688 427.6c2.1.2 3.6 1.8 3.4 3.6s-2 3-4.1 2.8-3.6-1.8-3.4-3.6c.2-1.7 2-3 4.1-2.8z" fill="#ffffc2"/><path d="m687.3 416.4c2.1.2 3.6 1.8 3.4 3.6s-2 3-4.1 2.8-3.6-1.8-3.4-3.6c.2-1.7 2-3 4.1-2.8z" fill="#ffffc2"/><path d="m689.6 441.7c.4 1.7-.8 3.5-2.8 4.1-2 .5-4-.5-4.4-2.2s.8-3.6 2.8-4.1 4 .4 4.4 2.2z" fill="#ffffc2"/><path d="m686.5 406.6c1.8.2 3 2.1 2.7 4.1s-1.9 3.5-3.7 3.3-3-2.1-2.7-4.1c.3-2.1 1.9-3.6 3.7-3.3z" fill="#ffffc2"/><path d="m686.4 482.1c.8 1.6-.1 3.6-1.9 4.6-1.8.9-4 .4-4.8-1.2s.1-3.6 1.9-4.6 4-.4 4.8 1.2z" fill="#ffffc2"/><path d="m685.5 461.1c.7 1.7-.4 3.6-2.3 4.4s-4 .1-4.7-1.6.4-3.6 2.3-4.4 4-.1 4.7 1.6z" fill="#ffffc2"/><path d="m684.6 391.3c.2.8.4 1.7.5 2.4-.4 1.4-1.8 2.5-3.6 2.6-2.1.1-3.8-1.3-3.8-3.1-.1-1.8 1.6-3.3 3.6-3.3 1.4 0 2.6.5 3.3 1.4z" fill="#ffffc2"/><path d="m682.3 380.2c.2 1 .4 1.9.6 2.8-.5 1.3-1.8 2.3-3.5 2.3-2.1.1-3.8-1.3-3.8-3.1s1.6-3.3 3.6-3.3c1.3-.1 2.4.4 3.1 1.3z" fill="#ffffc2"/><path d="m679.4 472.2c.8 1.6-.1 3.6-1.9 4.6-1.8.9-4 .4-4.8-1.2s.1-3.6 1.9-4.6c1.9-.9 4-.4 4.8 1.2z" fill="#ffffc2"/><path d="m677.5 437c1.8.9 2.7 3 1.9 4.6s-2.9 2.1-4.8 1.2c-1.8-.9-2.7-3-1.9-4.6s3-2.1 4.8-1.2z" fill="#ffffc2"/><path d="m673.5 407c2.1.2 3.6 1.8 3.4 3.6s-2 3-4.1 2.8-3.6-1.8-3.4-3.6 2-3 4.1-2.8z" fill="#ffffc2"/><path d="m674 420.1c2 .6 3.2 2.4 2.7 4.2-.5 1.7-2.5 2.6-4.5 2.1-2-.6-3.2-2.4-2.7-4.1s2.5-2.8 4.5-2.2z" fill="#ffffc2"/><path d="m673.6 449.4c1.8.9 2.7 3 1.9 4.6s-2.9 2.1-4.8 1.2c-1.8-.9-2.7-3-1.9-4.6s2.9-2.1 4.8-1.2z" fill="#ffffc2"/><path d="m670.3 395.9c2.1.2 3.6 1.8 3.4 3.6s-2 3-4.1 2.8-3.6-1.8-3.4-3.6 2-3 4.1-2.8z" fill="#ffffc2"/><path d="m669.6 384.7c2.1.2 3.6 1.8 3.4 3.6s-2 3-4.1 2.8-3.6-1.8-3.4-3.6 2-3.1 4.1-2.8z" fill="#ffffc2"/><path d="m672.8 463.1c.8 1.6-.1 3.6-1.9 4.6-1.8.9-4 .4-4.8-1.2s.1-3.6 1.9-4.6c1.9-.9 4-.3 4.8 1.2z" fill="#ffffc2"/><path d="m669 372.6c2.1.2 3.6 1.8 3.4 3.6s-2 3-4.1 2.8-3.6-1.8-3.4-3.6c.2-1.7 2.1-3 4.1-2.8z" fill="#ffffc2"/><path d="m669.2 430.2c2 .6 3.2 2.4 2.7 4.1s-2.5 2.6-4.5 2.1c-2-.6-3.2-2.4-2.7-4.2.5-1.6 2.5-2.5 4.5-2z" fill="#ffffc2"/><path d="m668.3 361.4c2.1.2 3.6 1.8 3.4 3.6s-2 3-4.1 2.8-3.6-1.8-3.4-3.6c.2-1.7 2.1-3 4.1-2.8z" fill="#ffffc2"/><path d="m668.6 349.4c2 .4 3.4 2.1 3.1 3.9s-2.2 2.9-4.3 2.5c-2-.4-3.4-2.1-3.1-3.9.3-1.7 2.3-2.9 4.3-2.5z" fill="#ffffc2"/><path d="m666.9 331.9c2 .4 3.4 2.1 3.1 3.9s-2.2 2.9-4.3 2.5c-2-.4-3.4-2.1-3.1-3.9.4-1.7 2.3-2.8 4.3-2.5z" fill="#ffffc2"/><path d="m664.1 441.2c2 .6 3.2 2.4 2.7 4.2-.5 1.7-2.5 2.6-4.5 2.1-2-.6-3.2-2.4-2.7-4.1.5-1.9 2.5-2.8 4.5-2.2z" fill="#ffffc2"/><path d="m662.7 315.8c2 .4 3.4 2.1 3.1 3.9s-2.2 2.9-4.3 2.5c-2-.4-3.4-2.1-3.1-3.9s2.2-2.9 4.3-2.5z" fill="#ffffc2"/><path d="m661.3 341.8c2.1.2 3.6 1.8 3.4 3.6s-2 3-4 2.8c-2.1-.2-3.6-1.8-3.4-3.6.1-1.8 2-3 4-2.8z" fill="#ffffc2"/><path d="m659.6 356.6c2 .4 3.4 2.1 3.1 3.9s-2.2 2.9-4.3 2.5c-2-.4-3.4-2.1-3.1-3.9.3-1.7 2.3-2.8 4.3-2.5z" fill="#ffffc2"/><path d="m659.4 367.9c2 .4 3.4 2.1 3.1 3.9s-2.2 2.9-4.3 2.5c-2-.4-3.4-2.1-3.1-3.9s2.2-2.9 4.3-2.5z" fill="#ffffc2"/><path d="m659.6 415.2c2 .5 3.3 2.3 2.8 4.1-.4 1.7-2.4 2.7-4.4 2.2s-3.3-2.3-2.8-4.1c.4-1.7 2.4-2.7 4.4-2.2z" fill="#ffffc2"/><path d="m659 379.9c2 .4 3.4 2.1 3.1 3.9s-2.2 2.9-4.3 2.5c-2-.4-3.4-2.1-3.1-3.9s2.2-2.9 4.3-2.5z" fill="#ffffc2"/><path d="m659.3 451.3c2 .6 3.2 2.4 2.7 4.1s-2.5 2.6-4.5 2.1c-2-.6-3.2-2.4-2.7-4.1s2.5-2.7 4.5-2.1z" fill="#ffffc2"/><path d="m658.7 391.2c2 .4 3.4 2.1 3.1 3.9s-2.2 2.9-4.3 2.5c-2-.4-3.4-2.1-3.1-3.9.4-1.8 2.3-2.9 4.3-2.5z" fill="#ffffc2"/><path d="m657.9 325.1c2 .4 3.4 2.1 3.1 3.9s-2.2 2.9-4.3 2.5c-2-.4-3.4-2.1-3.1-3.9s2.2-2.9 4.3-2.5z" fill="#ffffc2"/><path d="m657.4 402.8c2.1.2 3.6 1.8 3.4 3.6s-2 3-4.1 2.8-3.6-1.8-3.4-3.6c.2-1.7 2-3 4.1-2.8z" fill="#ffffc2"/><path d="m655.1 425.5c2 .5 3.3 2.3 2.8 4.1-.4 1.7-2.4 2.7-4.4 2.2s-3.3-2.3-2.8-4.1c.4-1.8 2.4-2.7 4.4-2.2z" fill="#ffffc2"/><path d="m653.8 335.4c2.1.2 3.6 1.8 3.4 3.6s-2 3-4.1 2.8-3.6-1.8-3.4-3.6 2-3 4.1-2.8z" fill="#ffffc2"/><path d="m653.1 460.5c1.8.9 2.7 3 1.9 4.6s-2.9 2.1-4.8 1.2c-1.8-.9-2.7-3-1.9-4.6.8-1.5 2.9-2.1 4.8-1.2z" fill="#ffffc2"/><path d="m651.3 347.2c2.1.2 3.6 1.8 3.4 3.6s-2 3-4.1 2.8-3.6-1.8-3.4-3.6 2-3 4.1-2.8z" fill="#ffffc2"/><path d="m650.4 436.6c2 .5 3.3 2.3 2.8 4.1-.4 1.7-2.4 2.7-4.4 2.2s-3.3-2.3-2.8-4.1c.4-1.8 2.3-2.8 4.4-2.2z" fill="#ffffc2"/><path d="m650.4 371.8c2 .6 3.1 2.5 2.6 4.2-.6 1.7-2.6 2.6-4.6 1.9-2-.6-3.1-2.5-2.6-4.2.6-1.7 2.7-2.6 4.6-1.9z" fill="#ffffc2"/><path d="m649.2 414.5c1.9.8 2.9 2.7 2.3 4.4-.7 1.7-2.8 2.4-4.7 1.6s-2.9-2.7-2.3-4.4c.7-1.7 2.8-2.4 4.7-1.6z" fill="#ffffc2"/><path d="m648.8 382.9c2 .6 3.1 2.5 2.6 4.2-.6 1.7-2.6 2.6-4.6 1.9-2-.6-3.1-2.5-2.6-4.2s2.6-2.6 4.6-1.9z" fill="#ffffc2"/><path d="m647.6 360.2c2.1.2 3.6 1.8 3.4 3.6s-2 3-4.1 2.8-3.6-1.8-3.4-3.6c.2-1.7 2.1-3 4.1-2.8z" fill="#ffffc2"/><path d="m646.8 394.8c2 .6 3.1 2.5 2.6 4.2-.6 1.7-2.6 2.6-4.6 1.9s-3.1-2.5-2.6-4.2c.6-1.7 2.6-2.6 4.6-1.9z" fill="#ffffc2"/><path d="m645.8 446.8c2 .5 3.3 2.3 2.8 4.1-.4 1.7-2.4 2.7-4.4 2.2s-3.3-2.3-2.8-4.1c.4-1.7 2.4-2.7 4.4-2.2z" fill="#ffffc2"/><path d="m645.1 405.9c2 .6 3.1 2.5 2.6 4.2-.6 1.7-2.6 2.6-4.6 1.9-2-.6-3.1-2.5-2.6-4.2.6-1.7 2.6-2.6 4.6-1.9z" fill="#ffffc2"/><path d="m643.4 424.1c1.9.8 2.9 2.7 2.3 4.4s-2.8 2.4-4.7 1.6-2.9-2.7-2.3-4.4c.7-1.7 2.8-2.4 4.7-1.6z" fill="#ffffc2"/><path d="m641.5 457.4c1.8.9 2.7 3 1.9 4.6s-2.9 2.1-4.8 1.2-2.7-3-1.9-4.6 3-2.1 4.8-1.2z" fill="#ffffc2"/><path d="m639.7 382.9c1.8.9 2.7 3 1.9 4.6s-2.9 2.1-4.8 1.2c-1.8-.9-2.7-3-1.9-4.6s3-2.1 4.8-1.2z" fill="#ffffc2"/><path d="m637.3 434.5c1.9.8 2.9 2.7 2.3 4.4-.7 1.7-2.8 2.4-4.7 1.6s-2.9-2.7-2.3-4.4c.7-1.7 2.8-2.4 4.7-1.6z" fill="#ffffc2"/><path d="m636.4 413.9c1.8.9 2.7 3 1.9 4.6s-2.9 2.1-4.8 1.2c-1.8-.9-2.7-3-1.9-4.6s3-2.1 4.8-1.2z" fill="#ffffc2"/><path d="m635.6 396.1c1.8.9 2.7 3 1.9 4.6s-2.9 2.1-4.8 1.2c-1.8-.9-2.7-3-1.9-4.6s2.9-2.1 4.8-1.2z" fill="#ffffc2"/><path d="m634.9 466.5c1.8.9 2.7 3 1.9 4.6s-2.9 2.1-4.8 1.2-2.7-3-1.9-4.6 3-2.2 4.8-1.2z" fill="#ffffc2"/><path d="m631.4 444.1c1.9.8 2.9 2.7 2.3 4.4-.7 1.7-2.8 2.4-4.7 1.6s-2.9-2.7-2.3-4.4c.7-1.7 2.8-2.4 4.7-1.6z" fill="#ffffc2"/><path d="m629.4 425c1.9.8 2.9 2.7 2.3 4.4-.7 1.7-2.8 2.4-4.7 1.6s-2.9-2.7-2.3-4.4c.7-1.6 2.8-2.3 4.7-1.6z" fill="#ffffc2"/><path d="m628.8 454.9c1.9.8 2.9 2.7 2.3 4.4-.7 1.7-2.8 2.4-4.7 1.6s-2.9-2.7-2.3-4.4c.7-1.6 2.8-2.3 4.7-1.6z" fill="#ffffc2"/><path d="m628 476.3c1.8.9 2.7 3 1.9 4.6s-2.9 2.1-4.8 1.2-2.7-3-1.9-4.6 2.9-2.1 4.8-1.2z" fill="#ffffc2"/><path d="m624.8 406.2c1.8 0 3.2 1.7 3.2 3.7 0 2.1-1.4 3.7-3.2 3.7s-3.2-1.7-3.2-3.7c-.1-2 1.4-3.7 3.2-3.7z" fill="#ffffc2"/><path d="m622.9 464.5c1.9.8 2.9 2.7 2.3 4.4-.7 1.7-2.8 2.4-4.7 1.6s-2.9-2.7-2.3-4.4c.7-1.6 2.8-2.3 4.7-1.6z" fill="#ffffc2"/><path d="m621.4 485.4c1.8.9 2.7 3 1.9 4.6s-2.9 2.1-4.8 1.2c-1.8-.9-2.7-3-1.9-4.6s2.9-2.1 4.8-1.2z" fill="#ffffc2"/><path d="m620.4 434.6c2 .5 3.3 2.3 2.8 4.1-.4 1.7-2.4 2.7-4.4 2.2s-3.3-2.3-2.8-4.1c.4-1.7 2.4-2.7 4.4-2.2z" fill="#ffffc2"/><path d="m619.8 445.2c2 .5 3.3 2.3 2.8 4.1-.4 1.7-2.4 2.7-4.4 2.2s-3.3-2.3-2.8-4.1c.5-1.7 2.4-2.7 4.4-2.2z" fill="#ffffc2"/><path d="m619.9 417.1c1.9.8 2.9 2.7 2.3 4.4-.7 1.7-2.8 2.4-4.7 1.6s-2.9-2.7-2.3-4.4 2.7-2.4 4.7-1.6z" fill="#ffffc2"/><path d="m616.8 474.9c1.9.8 2.9 2.7 2.3 4.4-.7 1.7-2.8 2.4-4.7 1.6s-2.9-2.7-2.3-4.4c.7-1.6 2.8-2.4 4.7-1.6z" fill="#ffffc2"/><path d="m615.1 456.3c2 .5 3.3 2.3 2.8 4.1-.4 1.7-2.4 2.7-4.4 2.2s-3.3-2.3-2.8-4.1c.4-1.7 2.4-2.7 4.4-2.2z" fill="#ffffc2"/><path d="m614.7 495.4c1.9.8 2.9 2.7 2.3 4.4-.7 1.7-2.8 2.4-4.7 1.6s-2.9-2.7-2.3-4.4 2.8-2.3 4.7-1.6z" fill="#ffffc2"/><path d="m613.7 404.3c1.8 0 3.2 1.7 3.2 3.7s-1.4 3.7-3.2 3.7-3.2-1.7-3.2-3.7 1.4-3.7 3.2-3.7z" fill="#ffffc2"/><path d="m610.6 466.6c2 .5 3.3 2.3 2.8 4.1-.4 1.7-2.4 2.7-4.4 2.2s-3.3-2.3-2.8-4.1c.4-1.8 2.4-2.7 4.4-2.2z" fill="#ffffc2"/><path d="m611 484.5c1.9.8 2.9 2.7 2.3 4.4-.7 1.7-2.8 2.4-4.7 1.6s-2.9-2.7-2.3-4.4c.7-1.6 2.8-2.4 4.7-1.6z" fill="#ffffc2"/><path d="m608.1 427.8c1.7.4 2.8 2.3 2.4 4.3s-2.2 3.3-4 3c-1.7-.4-2.8-2.3-2.4-4.3.5-2.1 2.3-3.4 4-3z" fill="#ffffc2"/><path d="m607 415c1.8.2 3 2.1 2.7 4.1s-1.9 3.5-3.7 3.3-3-2.1-2.7-4.1 1.9-3.5 3.7-3.3z" fill="#ffffc2"/><path d="m604.9 498.2c1.8.9 2.7 3 1.9 4.6s-2.9 2.1-4.8 1.2-2.7-3-1.9-4.6 3-2.1 4.8-1.2z" fill="#ffffc2"/><path d="m603.9 509.3c1.9.8 2.9 2.7 2.3 4.4-.7 1.7-2.8 2.4-4.7 1.6s-2.9-2.7-2.3-4.4c.7-1.7 2.8-2.4 4.7-1.6z" fill="#ffffc2"/><path d="m603.3 475.3c1.8.9 2.7 3 1.9 4.6s-2.9 2.1-4.8 1.2c-1.8-.9-2.7-3-1.9-4.6s2.9-2.1 4.8-1.2z" fill="#ffffc2"/><path d="m601.8 402.5c1.8 0 3.2 1.7 3.2 3.7 0 2.1-1.4 3.7-3.2 3.7s-3.2-1.7-3.2-3.7c-.1-2 1.4-3.7 3.2-3.7z" fill="#ffffc2"/><path d="m599.4 488.3c1.8.9 2.7 3 1.9 4.6s-2.9 2.1-4.8 1.2c-1.8-.9-2.7-3-1.9-4.6s2.9-2.2 4.8-1.2z" fill="#ffffc2"/><path d="m597.7 423.6c1.7.4 2.8 2.3 2.4 4.3s-2.2 3.4-4 3-2.8-2.3-2.4-4.3c.5-2 2.3-3.3 4-3z" fill="#ffffc2"/><path d="m596.3 411.7c1.8.2 3 2.1 2.7 4.1s-1.9 3.5-3.7 3.3-3-2.1-2.7-4.1c.2-2 1.9-3.5 3.7-3.3z" fill="#ffffc2"/><path d="m595.1 499.6c1.8.9 2.7 3 1.9 4.6s-2.9 2.1-4.8 1.2c-1.8-.9-2.7-3-1.9-4.6s3-2.2 4.8-1.2z" fill="#ffffc2"/><path d="m592.6 510.2c1.9.8 2.9 2.7 2.3 4.4s-2.8 2.4-4.7 1.6-2.9-2.7-2.3-4.4c.6-1.6 2.7-2.3 4.7-1.6z" fill="#ffffc2"/><path d="m591.6 520.6c1.9.8 2.9 2.7 2.3 4.4-.7 1.7-2.8 2.4-4.7 1.6s-2.9-2.7-2.3-4.4c.7-1.6 2.8-2.3 4.7-1.6z" fill="#ffffc2"/><path d="m590.7 400.7c1.8 0 3.2 1.7 3.2 3.7 0 2.1-1.4 3.7-3.2 3.7s-3.2-1.7-3.2-3.7c0-2.1 1.4-3.7 3.2-3.7z" fill="#ffffc2"/><path d="m586.4 419.3c1.7.4 2.8 2.3 2.4 4.3s-2.2 3.3-4 3c-1.7-.4-2.8-2.3-2.4-4.3.5-2 2.3-3.3 4-3z" fill="#ffffc2"/><path d="m584.7 408.4c1.8.2 3 2.1 2.7 4.1s-1.9 3.5-3.7 3.3-3-2.1-2.7-4.1c.3-2.1 1.9-3.5 3.7-3.3z" fill="#ffffc2"/><path d="m581.3 395.1c1.7.4 2.8 2.3 2.4 4.3s-2.2 3.3-4 3c-1.7-.4-2.8-2.3-2.4-4.3.5-2 2.3-3.3 4-3z" fill="#ffffc2"/><path d="m576 415.2c1.7.4 2.8 2.3 2.4 4.3s-2.2 3.4-4 3c-1.7-.4-2.8-2.3-2.4-4.3.5-2.1 2.3-3.4 4-3z" fill="#ffffc2"/><path d="m573.9 405.1c1.8.2 3 2.1 2.7 4.1s-1.9 3.5-3.7 3.3-3-2.1-2.7-4.1 2-3.5 3.7-3.3z" fill="#ffffc2"/><path d="m567.8 394.6c1.7.4 2.8 2.3 2.4 4.3s-2.2 3.4-4 3c-1.7-.4-2.8-2.3-2.4-4.3.5-2.1 2.2-3.4 4-3z" fill="#ffffc2"/><path d="m564.3 411.4c1.8.2 3 2.1 2.7 4.1s-1.9 3.5-3.7 3.3-3-2.1-2.7-4.1 1.9-3.5 3.7-3.3z" fill="#ffffc2"/><path d="m559.5 402.4c1.7.4 2.8 2.3 2.4 4.3s-2.2 3.3-4 3c-1.7-.4-2.8-2.3-2.4-4.3s2.3-3.3 4-3z" fill="#ffffc2"/><path d="m555.8 393.3c1.7.4 2.8 2.3 2.4 4.3s-2.2 3.4-4 3c-1.7-.4-2.8-2.3-2.4-4.3s2.2-3.4 4-3z" fill="#ffffc2"/><path d="m548.2 404.4c1.8.2 3 2.1 2.7 4.1s-1.9 3.5-3.7 3.3-3-2.1-2.7-4.1c.2-2.1 1.9-3.5 3.7-3.3z" fill="#ffffc2"/><path d="m544.4 393.7c1.8.2 3 2.1 2.7 4.1s-1.9 3.5-3.7 3.3-3-2.1-2.7-4.1c.3-2.1 2-3.6 3.7-3.3z" fill="#ffffc2"/><path d="m534.1 395.3c1.8.2 3 2.1 2.7 4.1s-1.9 3.5-3.7 3.3-3-2.1-2.7-4.1c.3-2.1 2-3.5 3.7-3.3z" fill="#ffffc2"/><g fill="none"><path d="m685.1 393.8c.5 2.5 1 4.8 1.4 6.7 0 0 .2.2 16.4-.3 22.9-.8 69.2-3.4 79.5 0 10.2 3.4 13.8 12.2-2.5 18.9-16.7 6.9-54.8 19.5-69.7 24.3 0 0-6.6 1.4-5.4 5.9s11.9 37.3 19.7 60.6c3 9.1 5.6 22.6-1.2 25.1-12.7 4.6-20.1-5.4-37.5-29.7-20-28.1-26.3-34.8-28.7-34.8l-.3-.2c-5.3-1.1-13.7 7.7-35.4 32.6-19.6 22.5-27.2 32.4-39.6 26.9-6.6-3-3.1-16.3.6-25.1 9.4-22.6 22.5-54.6 24.1-58.9 1.6-4.4-4.9-6.2-4.9-6.2-14.5-6-51.6-21.3-67.8-29.4-15.7-7.9-11.5-16.4-1.1-19s56.4 3.4 79.2 5.9c16.1 1.7 16.4 1.5 16.4 1.5 3.1-10.5 9.4-32.5 14.2-50.8s6.5-35.8 17.8-35h.7c11.5-.3 11.8 17.7 15.2 36.2 1.9 10.2 4.1 21.5 6.1 31.4.2 1 .4 1.9.6 2.8.6 3 1.2 5.8 1.7 8.3.2.7.3 1.5.5 2.3z" stroke="#231f20" stroke-width="5.0577"/><path d="m605 406.3c0 2.1-1.4 3.7-3.2 3.7s-3.2-1.7-3.2-3.7c0-2.1 1.4-3.7 3.2-3.7 1.8-.1 3.2 1.6 3.2 3.7z" stroke="#231f20" stroke-width="2.4782"/><path d="m593.9 404.4c0 2.1-1.4 3.7-3.2 3.7s-3.2-1.7-3.2-3.7c0-2.1 1.4-3.7 3.2-3.7s3.2 1.6 3.2 3.7z" stroke="#231f20" stroke-width="2.4782"/><path d="m628 409.9c0 2.1-1.4 3.7-3.2 3.7s-3.2-1.7-3.2-3.7c0-2.1 1.4-3.7 3.2-3.7s3.2 1.7 3.2 3.7z" stroke="#231f20" stroke-width="2.4782"/><path d="m616.9 408.1c0 2.1-1.4 3.7-3.2 3.7s-3.2-1.7-3.2-3.7c0-2.1 1.4-3.7 3.2-3.7s3.2 1.6 3.2 3.7z" stroke="#231f20" stroke-width="2.4782"/><path d="m587.4 412.5c-.3 2-1.9 3.5-3.7 3.3s-3-2.1-2.7-4.1c.3-2.1 1.9-3.5 3.7-3.3 1.7.2 3 2.1 2.7 4.1z" stroke="#231f20" stroke-width="2.4782"/><path d="m576.6 409.2c-.3 2-1.9 3.5-3.7 3.3s-3-2.1-2.7-4.1c.3-2.1 1.9-3.5 3.7-3.3s3 2.1 2.7 4.1z" stroke="#231f20" stroke-width="2.4782"/><path d="m609.7 419.1c-.3 2-1.9 3.5-3.7 3.3s-3-2.1-2.7-4.1c.3-2.1 1.9-3.5 3.7-3.3s3 2.1 2.7 4.1z" stroke="#231f20" stroke-width="2.4782"/><path d="m599 415.9c-.3 2-1.9 3.5-3.7 3.3s-3-2.1-2.7-4.1 1.9-3.5 3.7-3.3c1.7.2 2.9 2 2.7 4.1z" stroke="#231f20" stroke-width="2.4782"/><path d="m547.2 397.8c-.3 2-1.9 3.5-3.7 3.3s-3-2.1-2.7-4.1c.3-2.1 1.9-3.5 3.7-3.3 1.7.2 2.9 2 2.7 4.1z" stroke="#231f20" stroke-width="2.4782"/><path d="m536.8 399.4c-.3 2-1.9 3.5-3.7 3.3s-3-2.1-2.7-4.1 1.9-3.5 3.7-3.3 3 2.1 2.7 4.1z" stroke="#231f20" stroke-width="2.4782"/><path d="m567 415.5c-.3 2-1.9 3.5-3.7 3.3s-3-2.1-2.7-4.1 1.9-3.5 3.7-3.3c1.7.2 3 2.1 2.7 4.1z" stroke="#231f20" stroke-width="2.4782"/><path d="m550.9 408.5c-.3 2-1.9 3.5-3.7 3.3s-3-2.1-2.7-4.1c.3-2.1 1.9-3.5 3.7-3.3 1.7.2 3 2.1 2.7 4.1z" stroke="#231f20" stroke-width="2.4782"/><path d="m588.8 423.7c-.4 2-2.2 3.3-4 3-1.7-.4-2.8-2.3-2.4-4.3s2.2-3.4 4-3c1.8.3 2.9 2.3 2.4 4.3z" stroke="#231f20" stroke-width="2.4782"/><path d="m578.4 419.5c-.4 2-2.2 3.4-4 3-1.7-.4-2.8-2.3-2.4-4.3s2.2-3.4 4-3c1.7.4 2.8 2.3 2.4 4.3z" stroke="#231f20" stroke-width="2.4782"/><path d="m610.5 432.1c-.4 2-2.2 3.3-4 3-1.7-.4-2.8-2.3-2.4-4.3s2.2-3.4 4-3 2.9 2.3 2.4 4.3z" stroke="#231f20" stroke-width="2.4782"/><path d="m600.1 428c-.4 2-2.2 3.4-4 3s-2.8-2.3-2.4-4.3 2.2-3.4 4-3c1.7.3 2.8 2.3 2.4 4.3z" stroke="#231f20" stroke-width="2.4782"/><path d="m561.9 406.8c-.4 2-2.2 3.3-4 3-1.7-.4-2.8-2.3-2.4-4.3s2.2-3.4 4-3c1.8.3 2.8 2.3 2.4 4.3z" stroke="#231f20" stroke-width="2.4782"/><path d="m558.1 397.6c-.4 2-2.2 3.4-4 3-1.7-.4-2.8-2.3-2.4-4.3s2.2-3.4 4-3 2.9 2.3 2.4 4.3z" stroke="#231f20" stroke-width="2.4782"/><path d="m583.7 399.5c-.4 2-2.2 3.3-4 3-1.7-.4-2.8-2.3-2.4-4.3s2.2-3.4 4-3c1.7.3 2.8 2.3 2.4 4.3z" stroke="#231f20" stroke-width="2.4782"/><path d="m570.1 398.9c-.4 2-2.2 3.4-4 3-1.7-.4-2.8-2.3-2.4-4.3s2.2-3.4 4-3 2.9 2.3 2.4 4.3z" stroke="#231f20" stroke-width="2.4782"/><path d="m615.1 456.3c2 .5 3.3 2.3 2.8 4.1-.4 1.7-2.4 2.7-4.4 2.2s-3.3-2.3-2.8-4.1c.4-1.7 2.4-2.7 4.4-2.2z" stroke="#231f20" stroke-width="2.4782"/><path d="m610.6 466.6c2 .5 3.3 2.3 2.8 4.1-.4 1.7-2.4 2.7-4.4 2.2s-3.3-2.3-2.8-4.1c.4-1.8 2.4-2.7 4.4-2.2z" stroke="#231f20" stroke-width="2.4782"/><path d="m620.4 434.6c2 .5 3.3 2.3 2.8 4.1-.4 1.7-2.4 2.7-4.4 2.2s-3.3-2.3-2.8-4.1c.4-1.7 2.4-2.7 4.4-2.2z" stroke="#231f20" stroke-width="2.4782"/><path d="m619.8 445.2c2 .5 3.3 2.3 2.8 4.1-.4 1.7-2.4 2.7-4.4 2.2s-3.3-2.3-2.8-4.1c.5-1.7 2.4-2.7 4.4-2.2z" stroke="#231f20" stroke-width="2.4782"/><path d="m616.8 474.9c1.9.8 2.9 2.7 2.3 4.4-.7 1.7-2.8 2.4-4.7 1.6s-2.9-2.7-2.3-4.4c.7-1.6 2.8-2.4 4.7-1.6z" stroke="#231f20" stroke-width="2.4782"/><path d="m611 484.5c1.9.8 2.9 2.7 2.3 4.4-.7 1.7-2.8 2.4-4.7 1.6s-2.9-2.7-2.3-4.4c.7-1.6 2.8-2.4 4.7-1.6z" stroke="#231f20" stroke-width="2.4782"/><path d="m628.8 454.9c1.9.8 2.9 2.7 2.3 4.4-.7 1.7-2.8 2.4-4.7 1.6s-2.9-2.7-2.3-4.4c.7-1.6 2.8-2.3 4.7-1.6z" stroke="#231f20" stroke-width="2.4782"/><path d="m622.9 464.5c1.9.8 2.9 2.7 2.3 4.4-.7 1.7-2.8 2.4-4.7 1.6s-2.9-2.7-2.3-4.4c.7-1.6 2.8-2.3 4.7-1.6z" stroke="#231f20" stroke-width="2.4782"/><path d="m592.6 510.2c1.9.8 2.9 2.7 2.3 4.4s-2.8 2.4-4.7 1.6-2.9-2.7-2.3-4.4c.6-1.6 2.7-2.3 4.7-1.6z" stroke="#231f20" stroke-width="2.4782"/><path d="m591.6 520.6c1.9.8 2.9 2.7 2.3 4.4-.7 1.7-2.8 2.4-4.7 1.6s-2.9-2.7-2.3-4.4c.7-1.6 2.8-2.3 4.7-1.6z" stroke="#231f20" stroke-width="2.4782"/><path d="m614.7 495.4c1.9.8 2.9 2.7 2.3 4.4-.7 1.7-2.8 2.4-4.7 1.6s-2.9-2.7-2.3-4.4 2.8-2.3 4.7-1.6z" stroke="#231f20" stroke-width="2.4782"/><path d="m603.9 509.3c1.9.8 2.9 2.7 2.3 4.4-.7 1.7-2.8 2.4-4.7 1.6s-2.9-2.7-2.3-4.4c.7-1.7 2.8-2.4 4.7-1.6z" stroke="#231f20" stroke-width="2.4782"/><path d="m628 476.3c1.8.9 2.7 3 1.9 4.6s-2.9 2.1-4.8 1.2-2.7-3-1.9-4.6 2.9-2.1 4.8-1.2z" stroke="#231f20" stroke-width="2.4782"/><path d="m621.4 485.4c1.8.9 2.7 3 1.9 4.6s-2.9 2.1-4.8 1.2c-1.8-.9-2.7-3-1.9-4.6s2.9-2.1 4.8-1.2z" stroke="#231f20" stroke-width="2.4782"/><path d="m641.5 457.4c1.8.9 2.7 3 1.9 4.6s-2.9 2.1-4.8 1.2-2.7-3-1.9-4.6 3-2.1 4.8-1.2z" stroke="#231f20" stroke-width="2.4782"/><path d="m634.9 466.5c1.8.9 2.7 3 1.9 4.6s-2.9 2.1-4.8 1.2-2.7-3-1.9-4.6 3-2.2 4.8-1.2z" stroke="#231f20" stroke-width="2.4782"/><path d="m604.9 498.2c1.8.9 2.7 3 1.9 4.6s-2.9 2.1-4.8 1.2-2.7-3-1.9-4.6 3-2.1 4.8-1.2z" stroke="#231f20" stroke-width="2.4782"/><path d="m595.1 499.6c1.8.9 2.7 3 1.9 4.6s-2.9 2.1-4.8 1.2c-1.8-.9-2.7-3-1.9-4.6s3-2.2 4.8-1.2z" stroke="#231f20" stroke-width="2.4782"/><path d="m603.3 475.3c1.8.9 2.7 3 1.9 4.6s-2.9 2.1-4.8 1.2c-1.8-.9-2.7-3-1.9-4.6s2.9-2.1 4.8-1.2z" stroke="#231f20" stroke-width="2.4782"/><path d="m599.4 488.3c1.8.9 2.7 3 1.9 4.6s-2.9 2.1-4.8 1.2c-1.8-.9-2.7-3-1.9-4.6s2.9-2.2 4.8-1.2z" stroke="#231f20" stroke-width="2.4782"/><path d="m694.5 460.8c-2 .5-3.3 2.3-2.8 4.1.4 1.7 2.4 2.7 4.4 2.2s3.3-2.3 2.8-4.1c-.5-1.7-2.4-2.7-4.4-2.2z" stroke="#231f20" stroke-width="2.4782"/><path d="m699 471.1c-2 .5-3.3 2.3-2.8 4.1.4 1.7 2.4 2.7 4.4 2.2s3.3-2.3 2.8-4.1c-.4-1.7-2.4-2.7-4.4-2.2z" stroke="#231f20" stroke-width="2.4782"/><path d="m685.2 439.5c-2 .5-3.3 2.3-2.8 4.1.4 1.7 2.4 2.7 4.4 2.2s3.3-2.3 2.8-4.1c-.4-1.8-2.4-2.7-4.4-2.2z" stroke="#231f20" stroke-width="2.4782"/><path d="m689.7 449.7c-2 .5-3.3 2.3-2.8 4.1.4 1.7 2.4 2.7 4.4 2.2s3.3-2.3 2.8-4.1c-.4-1.7-2.4-2.7-4.4-2.2z" stroke="#231f20" stroke-width="2.4782"/><path d="m692.8 479.5c-1.9.8-2.9 2.7-2.3 4.4.7 1.7 2.8 2.4 4.7 1.6s2.9-2.7 2.3-4.4c-.7-1.7-2.8-2.4-4.7-1.6z" stroke="#231f20" stroke-width="2.4782"/><path d="m698.6 489.1c-1.9.8-2.9 2.7-2.3 4.4.7 1.7 2.8 2.4 4.7 1.6s2.9-2.7 2.3-4.4c-.7-1.7-2.8-2.4-4.7-1.6z" stroke="#231f20" stroke-width="2.4782"/><path d="m680.8 459.5c-1.9.8-2.9 2.7-2.3 4.4.7 1.7 2.8 2.4 4.7 1.6s2.9-2.7 2.3-4.4c-.7-1.7-2.8-2.4-4.7-1.6z" stroke="#231f20" stroke-width="2.4782"/><path d="m686.6 469.1c-1.9.8-2.9 2.7-2.3 4.4.7 1.7 2.8 2.4 4.7 1.6s2.9-2.7 2.3-4.4-2.7-2.4-4.7-1.6z" stroke="#231f20" stroke-width="2.4782"/><path d="m717 514.8c-1.9.8-2.9 2.7-2.3 4.4.7 1.7 2.8 2.4 4.7 1.6s2.9-2.7 2.3-4.4c-.7-1.7-2.8-2.4-4.7-1.6z" stroke="#231f20" stroke-width="2.4782"/><path d="m718 525.2c-1.9.8-2.9 2.7-2.3 4.4.7 1.7 2.8 2.4 4.7 1.6s2.9-2.7 2.3-4.4c-.7-1.7-2.8-2.4-4.7-1.6z" stroke="#231f20" stroke-width="2.4782"/><path d="m694.9 500c-1.9.8-2.9 2.7-2.3 4.4.7 1.7 2.8 2.4 4.7 1.6s2.9-2.7 2.3-4.4c-.7-1.7-2.8-2.4-4.7-1.6z" stroke="#231f20" stroke-width="2.4782"/><path d="m705.7 513.8c-1.9.8-2.9 2.7-2.3 4.4.7 1.7 2.8 2.4 4.7 1.6s2.9-2.7 2.3-4.4c-.7-1.6-2.8-2.3-4.7-1.6z" stroke="#231f20" stroke-width="2.4782"/><path d="m681.6 480.9c-1.8.9-2.7 3-1.9 4.6s2.9 2.1 4.8 1.2 2.7-3 1.9-4.6-3-2.2-4.8-1.2z" stroke="#231f20" stroke-width="2.4782"/><path d="m688.2 489.9c-1.8.9-2.7 3-1.9 4.6s2.9 2.1 4.8 1.2c1.8-.9 2.7-3 1.9-4.6-.8-1.5-2.9-2.1-4.8-1.2z" stroke="#231f20" stroke-width="2.4782"/><path d="m668 461.9c-1.8.9-2.7 3-1.9 4.6s2.9 2.1 4.8 1.2 2.7-3 1.9-4.6c-.8-1.5-2.9-2.1-4.8-1.2z" stroke="#231f20" stroke-width="2.4782"/><path d="m674.6 471c-1.8.9-2.7 3-1.9 4.6s2.9 2.1 4.8 1.2 2.7-3 1.9-4.6-2.9-2.1-4.8-1.2z" stroke="#231f20" stroke-width="2.4782"/><path d="m704.7 502.7c-1.8.9-2.7 3-1.9 4.6s2.9 2.1 4.8 1.2 2.7-3 1.9-4.6c-.8-1.5-3-2.1-4.8-1.2z" stroke="#231f20" stroke-width="2.4782"/><path d="m714.4 504.1c-1.8.9-2.7 3-1.9 4.6s2.9 2.1 4.8 1.2c1.8-.9 2.7-3 1.9-4.6s-2.9-2.1-4.8-1.2z" stroke="#231f20" stroke-width="2.4782"/><path d="m706.3 479.8c-1.8.9-2.7 3-1.9 4.6s2.9 2.1 4.8 1.2c1.8-.9 2.7-3 1.9-4.6-.8-1.5-2.9-2.1-4.8-1.2z" stroke="#231f20" stroke-width="2.4782"/><path d="m710.2 492.8c-1.8.9-2.7 3-1.9 4.6s2.9 2.1 4.8 1.2 2.7-3 1.9-4.6-2.9-2.1-4.8-1.2z" stroke="#231f20" stroke-width="2.4782"/><path d="m646.7 389c2 .6 4-.2 4.6-1.9s-.6-3.6-2.6-4.2-4 .2-4.6 1.9c-.5 1.7.7 3.6 2.6 4.2z" stroke="#231f20" stroke-width="2.4782"/><path d="m648.4 377.9c2 .6 4-.2 4.6-1.9s-.6-3.6-2.6-4.2-4 .2-4.6 1.9c-.5 1.7.7 3.6 2.6 4.2z" stroke="#231f20" stroke-width="2.4782"/><path d="m643.1 412c2 .6 4-.2 4.6-1.9s-.6-3.6-2.6-4.2-4 .2-4.6 1.9c-.5 1.7.6 3.6 2.6 4.2z" stroke="#231f20" stroke-width="2.4782"/><path d="m644.8 400.9c2 .6 4-.2 4.6-1.9s-.6-3.6-2.6-4.2-4 .2-4.6 1.9c-.5 1.7.6 3.6 2.6 4.2z" stroke="#231f20" stroke-width="2.4782"/><path d="m658.2 374.2c2 .4 3.9-.7 4.3-2.5.3-1.8-1.1-3.5-3.1-3.9s-3.9.7-4.3 2.5c-.3 1.8 1 3.6 3.1 3.9z" stroke="#231f20" stroke-width="2.4782"/><path d="m658.4 363c2 .4 3.9-.7 4.3-2.5.3-1.8-1.1-3.5-3.1-3.9s-3.9.7-4.3 2.5c-.3 1.8 1.1 3.5 3.1 3.9z" stroke="#231f20" stroke-width="2.4782"/><path d="m657.5 397.5c2 .4 4-.7 4.3-2.5s-1.1-3.5-3.1-3.9-3.9.7-4.3 2.5c-.3 1.8 1.1 3.5 3.1 3.9z" stroke="#231f20" stroke-width="2.4782"/><path d="m657.8 386.3c2 .4 3.9-.7 4.3-2.5.3-1.8-1-3.5-3.1-3.9-2-.4-3.9.7-4.3 2.5s1 3.5 3.1 3.9z" stroke="#231f20" stroke-width="2.4782"/><path d="m656.7 331.4c2 .4 3.9-.7 4.3-2.5.3-1.8-1.1-3.5-3.1-3.9s-3.9.7-4.3 2.5c-.3 1.8 1.1 3.5 3.1 3.9z" stroke="#231f20" stroke-width="2.4782"/><path d="m661.5 322.1c2 .4 4-.7 4.3-2.5s-1.1-3.5-3.1-3.9-4 .7-4.3 2.5c-.4 1.8 1 3.5 3.1 3.9z" stroke="#231f20" stroke-width="2.4782"/><path d="m667.4 355.8c2 .4 3.9-.7 4.3-2.5.3-1.8-1.1-3.5-3.1-3.9s-3.9.7-4.3 2.5c-.3 1.8 1.1 3.5 3.1 3.9z" stroke="#231f20" stroke-width="2.4782"/><path d="m665.7 338.3c2 .4 3.9-.7 4.3-2.5.3-1.8-1-3.5-3.1-3.9-2-.4-3.9.7-4.3 2.5-.3 1.8 1.1 3.5 3.1 3.9z" stroke="#231f20" stroke-width="2.4782"/><path d="m668.3 379.1c2.1.2 3.9-1.1 4.1-2.8.2-1.8-1.3-3.4-3.4-3.6s-3.9 1.1-4.1 2.8c-.1 1.7 1.4 3.3 3.4 3.6z" stroke="#231f20" stroke-width="2.4782"/><path d="m667.7 367.8c2.1.2 3.9-1.1 4.1-2.8.2-1.8-1.3-3.4-3.4-3.6s-3.9 1.1-4.1 2.8c-.2 1.8 1.3 3.4 3.4 3.6z" stroke="#231f20" stroke-width="2.4782"/><path d="m669.6 402.3c2.1.2 3.9-1.1 4.1-2.8.2-1.8-1.3-3.4-3.4-3.6s-3.9 1-4.1 2.8 1.4 3.4 3.4 3.6z" stroke="#231f20" stroke-width="2.4782"/><path d="m668.9 391.1c2.1.2 3.9-1.1 4.1-2.8.2-1.8-1.3-3.4-3.4-3.6s-3.9 1.1-4.1 2.8c-.2 1.8 1.4 3.4 3.4 3.6z" stroke="#231f20" stroke-width="2.4782"/><path d="m660.7 348.2c2.1.2 3.9-1.1 4-2.8.2-1.8-1.3-3.4-3.4-3.6s-3.9 1.1-4.1 2.8c-.1 1.8 1.4 3.4 3.5 3.6z" stroke="#231f20" stroke-width="2.4782"/><path d="m653.1 341.8c2.1.2 3.9-1.1 4.1-2.8.2-1.8-1.3-3.4-3.4-3.6s-3.9 1.1-4.1 2.8c-.1 1.8 1.4 3.4 3.4 3.6z" stroke="#231f20" stroke-width="2.4782"/><path d="m647 366.6c2.1.2 3.9-1.1 4.1-2.8.2-1.8-1.3-3.4-3.4-3.6s-3.9 1.1-4.1 2.8c-.2 1.8 1.3 3.4 3.4 3.6z" stroke="#231f20" stroke-width="2.4782"/><path d="m650.6 353.6c2.1.2 3.9-1.1 4.1-2.8.2-1.8-1.3-3.4-3.4-3.6s-3.9 1.1-4.1 2.8c-.2 1.8 1.4 3.4 3.4 3.6z" stroke="#231f20" stroke-width="2.4782"/><path d="m684.6 391.3c-.7-.9-1.9-1.5-3.2-1.4-2.1.1-3.7 1.6-3.6 3.3.1 1.8 1.8 3.2 3.8 3.1 1.8-.1 3.2-1.1 3.6-2.6.1-.2.1-.5.1-.8-.1-.5-.3-1.1-.7-1.6z" stroke="#231f20" stroke-width="2.4782"/><path d="m682.3 380.2c-.7-.8-1.8-1.3-3.1-1.3-2.1.1-3.7 1.6-3.6 3.3.1 1.8 1.8 3.2 3.8 3.1 1.7-.1 3-1 3.5-2.3.1-.3.2-.7.2-1-.1-.7-.4-1.3-.8-1.8z" stroke="#231f20" stroke-width="2.4782"/><path d="m672.8 413.4c2.1.2 3.9-1.1 4.1-2.8.2-1.8-1.3-3.4-3.4-3.6s-3.9 1.1-4.1 2.8c-.1 1.8 1.4 3.4 3.4 3.6z" stroke="#231f20" stroke-width="2.4782"/><path d="m656.7 409.3c2.1.2 3.9-1.1 4.1-2.8.2-1.8-1.3-3.4-3.4-3.6s-3.9 1.1-4.1 2.8c-.2 1.8 1.4 3.4 3.4 3.6z" stroke="#231f20" stroke-width="2.4782"/><path d="m687.3 434.1c2.1.2 3.9-1.1 4.1-2.8.2-1.8-1.3-3.4-3.4-3.6s-3.9 1.1-4.1 2.8 1.3 3.3 3.4 3.6z" stroke="#231f20" stroke-width="2.4782"/><path d="m686.6 422.8c2.1.2 3.9-1.1 4.1-2.8.2-1.8-1.3-3.4-3.4-3.6s-3.9 1.1-4.1 2.8c-.2 1.8 1.3 3.4 3.4 3.6z" stroke="#231f20" stroke-width="2.4782"/><path d="m706.1 409.3c-.3 2 .9 3.9 2.7 4.1s3.4-1.2 3.7-3.3-.9-3.9-2.7-4.1c-1.8-.3-3.5 1.2-3.7 3.3z" stroke="#231f20" stroke-width="2.4782"/><path d="m717.3 408.9c-.3 2 .9 3.9 2.7 4.1s3.4-1.2 3.7-3.3c.3-2-.9-3.9-2.7-4.1s-3.4 1.2-3.7 3.3z" stroke="#231f20" stroke-width="2.4782"/><path d="m682.8 409.9c-.3 2 .9 3.9 2.7 4.1s3.4-1.2 3.7-3.3-.9-3.9-2.7-4.1c-1.8-.3-3.4 1.2-3.7 3.3z" stroke="#231f20" stroke-width="2.4782"/><path d="m694 409.5c-.3 2 .9 3.9 2.7 4.1s3.4-1.2 3.7-3.3c.3-2-.9-3.9-2.7-4.1s-3.4 1.2-3.7 3.3z" stroke="#231f20" stroke-width="2.4782"/><path d="m722.7 417.8c0 2.1 1.4 3.7 3.2 3.7s3.2-1.7 3.2-3.7c0-2.1-1.4-3.7-3.2-3.8-1.7.1-3.2 1.7-3.2 3.8z" stroke="#231f20" stroke-width="2.4782"/><path d="m733.8 416c0 2.1 1.4 3.7 3.2 3.7s3.2-1.7 3.2-3.7c0-2.1-1.4-3.7-3.2-3.7-1.8-.1-3.2 1.6-3.2 3.7z" stroke="#231f20" stroke-width="2.4782"/><path d="m699.7 421.4c0 2.1 1.4 3.7 3.2 3.7s3.2-1.7 3.2-3.7c0-2.1-1.4-3.7-3.2-3.8-1.7.1-3.2 1.7-3.2 3.8z" stroke="#231f20" stroke-width="2.4782"/><path d="m710.8 419.6c0 2.1 1.4 3.7 3.2 3.7s3.2-1.7 3.2-3.7c0-2.1-1.4-3.7-3.2-3.7-1.8-.1-3.2 1.6-3.2 3.7z" stroke="#231f20" stroke-width="2.4782"/><path d="m764.5 408.5c0 2.1 1.4 3.7 3.2 3.7s3.2-1.7 3.2-3.7c0-2.1-1.4-3.7-3.2-3.7-1.7 0-3.2 1.6-3.2 3.7z" stroke="#231f20" stroke-width="2.4782"/><path d="m774.5 411.5c0 2.1 1.4 3.7 3.2 3.8 1.8 0 3.2-1.7 3.2-3.7 0-2.1-1.4-3.7-3.2-3.7-1.7-.1-3.2 1.5-3.2 3.6z" stroke="#231f20" stroke-width="2.4782"/><path d="m742.5 423.5c0 2.1 1.4 3.7 3.2 3.7s3.2-1.7 3.2-3.7c0-2.1-1.4-3.7-3.2-3.7-1.7-.1-3.2 1.6-3.2 3.7z" stroke="#231f20" stroke-width="2.4782"/><path d="m759.4 418.7c0 2.1 1.4 3.7 3.2 3.7s3.2-1.7 3.2-3.7c0-2.1-1.4-3.7-3.2-3.7-1.7-.1-3.2 1.6-3.2 3.7z" stroke="#231f20" stroke-width="2.4782"/><path d="m719.8 428.7c.2 2.1 1.7 3.6 3.5 3.5s3.1-1.9 2.9-4-1.7-3.6-3.5-3.5c-1.7.1-3 1.9-2.9 4z" stroke="#231f20" stroke-width="2.4782"/><path d="m730.7 425.9c.2 2.1 1.7 3.6 3.5 3.5s3.1-1.9 2.9-4-1.7-3.6-3.5-3.5c-1.7.2-3 2-2.9 4z" stroke="#231f20" stroke-width="2.4782"/><path d="m697.2 434.2c.2 2.1 1.7 3.6 3.5 3.5s3.1-1.9 2.9-4-1.7-3.6-3.5-3.5-3.1 1.9-2.9 4z" stroke="#231f20" stroke-width="2.4782"/><path d="m708.1 431.4c.2 2.1 1.7 3.6 3.5 3.5s3.1-1.9 2.9-4-1.7-3.6-3.5-3.5c-1.8.2-3.1 2-2.9 4z" stroke="#231f20" stroke-width="2.4782"/><path d="m748.7 415.5c.2 2.1 1.7 3.6 3.5 3.5s3.1-1.9 2.9-4-1.7-3.6-3.5-3.5c-1.7.1-3 1.9-2.9 4z" stroke="#231f20" stroke-width="2.4782"/><path d="m753.7 406.9c.2 2.1 1.7 3.6 3.5 3.5s3.1-1.9 2.9-4-1.7-3.6-3.5-3.5c-1.8.2-3.1 2-2.9 4z" stroke="#231f20" stroke-width="2.4782"/><path d="m728.1 405.4c.2 2.1 1.7 3.6 3.5 3.5s3.1-1.9 2.9-4-1.7-3.6-3.5-3.5c-1.7.1-3 1.9-2.9 4z" stroke="#231f20" stroke-width="2.4782"/><path d="m741.6 406.6c.2 2.1 1.7 3.6 3.5 3.5s3.1-1.9 2.9-4-1.7-3.6-3.5-3.5c-1.8.2-3.1 1.9-2.9 4z" stroke="#231f20" stroke-width="2.4782"/><path d="m650.4 436.6c2 .5 3.3 2.3 2.8 4.1-.4 1.7-2.4 2.7-4.4 2.2s-3.3-2.3-2.8-4.1c.4-1.8 2.3-2.8 4.4-2.2z" stroke="#231f20" stroke-width="2.4782"/><path d="m645.8 446.8c2 .5 3.3 2.3 2.8 4.1-.4 1.7-2.4 2.7-4.4 2.2s-3.3-2.3-2.8-4.1c.4-1.7 2.4-2.7 4.4-2.2z" stroke="#231f20" stroke-width="2.4782"/><path d="m659.6 415.2c2 .5 3.3 2.3 2.8 4.1-.4 1.7-2.4 2.7-4.4 2.2s-3.3-2.3-2.8-4.1c.4-1.7 2.4-2.7 4.4-2.2z" stroke="#231f20" stroke-width="2.4782"/><path d="m655.1 425.5c2 .5 3.3 2.3 2.8 4.1-.4 1.7-2.4 2.7-4.4 2.2s-3.3-2.3-2.8-4.1c.4-1.8 2.4-2.7 4.4-2.2z" stroke="#231f20" stroke-width="2.4782"/><path d="m637.3 434.5c1.9.8 2.9 2.7 2.3 4.4-.7 1.7-2.8 2.4-4.7 1.6s-2.9-2.7-2.3-4.4c.7-1.7 2.8-2.4 4.7-1.6z" stroke="#231f20" stroke-width="2.4782"/><path d="m631.4 444.1c1.9.8 2.9 2.7 2.3 4.4-.7 1.7-2.8 2.4-4.7 1.6s-2.9-2.7-2.3-4.4c.7-1.7 2.8-2.4 4.7-1.6z" stroke="#231f20" stroke-width="2.4782"/><path d="m649.2 414.5c1.9.8 2.9 2.7 2.3 4.4-.7 1.7-2.8 2.4-4.7 1.6s-2.9-2.7-2.3-4.4c.7-1.7 2.8-2.4 4.7-1.6z" stroke="#231f20" stroke-width="2.4782"/><path d="m643.4 424.1c1.9.8 2.9 2.7 2.3 4.4s-2.8 2.4-4.7 1.6-2.9-2.7-2.3-4.4c.7-1.7 2.8-2.4 4.7-1.6z" stroke="#231f20" stroke-width="2.4782"/><path d="m619.9 417.1c1.9.8 2.9 2.7 2.3 4.4-.7 1.7-2.8 2.4-4.7 1.6s-2.9-2.7-2.3-4.4 2.7-2.4 4.7-1.6z" stroke="#231f20" stroke-width="2.4782"/><path d="m629.4 425c1.9.8 2.9 2.7 2.3 4.4-.7 1.7-2.8 2.4-4.7 1.6s-2.9-2.7-2.3-4.4c.7-1.6 2.8-2.3 4.7-1.6z" stroke="#231f20" stroke-width="2.4782"/><path d="m664.1 441.2c2 .6 3.2 2.4 2.7 4.2-.5 1.7-2.5 2.6-4.5 2.1-2-.6-3.2-2.4-2.7-4.1.5-1.9 2.5-2.8 4.5-2.2z" stroke="#231f20" stroke-width="2.4782"/><path d="m659.3 451.3c2 .6 3.2 2.4 2.7 4.1s-2.5 2.6-4.5 2.1c-2-.6-3.2-2.4-2.7-4.1s2.5-2.7 4.5-2.1z" stroke="#231f20" stroke-width="2.4782"/><path d="m674 420.1c2 .6 3.2 2.4 2.7 4.2-.5 1.7-2.5 2.6-4.5 2.1-2-.6-3.2-2.4-2.7-4.1s2.5-2.8 4.5-2.2z" stroke="#231f20" stroke-width="2.4782"/><path d="m669.2 430.2c2 .6 3.2 2.4 2.7 4.1s-2.5 2.6-4.5 2.1c-2-.6-3.2-2.4-2.7-4.2.5-1.6 2.5-2.5 4.5-2z" stroke="#231f20" stroke-width="2.4782"/><path d="m673.6 449.4c1.8.9 2.7 3 1.9 4.6s-2.9 2.1-4.8 1.2c-1.8-.9-2.7-3-1.9-4.6s2.9-2.1 4.8-1.2z" stroke="#231f20" stroke-width="2.4782"/><path d="m701.1 442.8c1.8.9 2.7 3 1.9 4.6s-2.9 2.1-4.8 1.2c-1.8-.9-2.7-3-1.9-4.6s2.9-2.1 4.8-1.2z" stroke="#231f20" stroke-width="2.4782"/><path d="m677.5 437c1.8.9 2.7 3 1.9 4.6s-2.9 2.1-4.8 1.2c-1.8-.9-2.7-3-1.9-4.6s3-2.1 4.8-1.2z" stroke="#231f20" stroke-width="2.4782"/><path d="m636.4 413.9c1.8.9 2.7 3 1.9 4.6s-2.9 2.1-4.8 1.2c-1.8-.9-2.7-3-1.9-4.6s3-2.1 4.8-1.2z" stroke="#231f20" stroke-width="2.4782"/><path d="m635.6 396.1c1.8.9 2.7 3 1.9 4.6s-2.9 2.1-4.8 1.2c-1.8-.9-2.7-3-1.9-4.6s2.9-2.1 4.8-1.2z" stroke="#231f20" stroke-width="2.4782"/><path d="m639.7 382.9c1.8.9 2.7 3 1.9 4.6s-2.9 2.1-4.8 1.2c-1.8-.9-2.7-3-1.9-4.6s3-2.1 4.8-1.2z" stroke="#231f20" stroke-width="2.4782"/><path d="m653.1 460.5c1.8.9 2.7 3 1.9 4.6s-2.9 2.1-4.8 1.2c-1.8-.9-2.7-3-1.9-4.6.8-1.5 2.9-2.1 4.8-1.2z" stroke="#231f20" stroke-width="2.4782"/></g><path d="m624.6 719.8 1.1 22.3-3.5-16s-13.2 1.3-30.3-4.3c-7.6-2.5-12.3-3.3-16.3-3.1v-.6s-1.8-7.1-.7-7.6l.1-.6c26 3.5 49.6 9.9 49.6 9.9z" fill="#faa41a"/><path d="m606.2 657.4 3.2 22.1s-21.9 10.9-46.7 19.5l-.2-.6c-1.1-.4-.8-7.6-.8-7.6l-.1-.6c3.9-.5 8.4-2.2 15.3-6.2 15.7-8.8 28.9-10.2 28.9-10.2z" fill="#faa41a"/><path d="m601.6 754.6-4.4 21.9.6-16.3s-13.1-2-28.3-11.7c-8.5-5.4-13.1-7.1-17.9-7.3l3-.3s0-7.3 1.2-7.6l.2-.6c24.3 9.8 45.6 21.9 45.6 21.9z" fill="#faa41a"/><path d="m555.7 649.2c.1 0 .2-.1.2-.1 2.1-1.3 17.9-18 31.1-14.2l1.5.5c2.3 10 1.4 19.8-5.5 27.9-5.2 6.2-11.3 10.9-17.6 14.5l-.3-1.4c1.6-3.6-.3-9.6-1.5-13.1-1.9-5.3-5.8-9.2-9.4-13.5.7-.3 1.2-.5 1.5-.6z" fill="#faa41a"/><path d="m588.6 635.3-1.5-.5c-13.1-3.7-29 13-31.1 14.2-.1 0-.1.1-.2.1-9-6.9-31-23.3-39.4-30.8-9.6-8.6-26.3-30-29.6-34.3 5.3 2.1 11.6.6 22 6.3 5.2 2.8 12.4 2.3 19.4.5 11.8-3 23.1-9.7 23.1-9.7l1-1c7.2 7.2 30.8 31.8 36.3 55.2z" fill="#faa41a"/><path d="m575.7 718.1v.6c-4.9.3-8.8 2.2-15.9 4.6-12.3 4.1-13.9 4.6-14 4.7l-.2.7c-12.4-3.9-36.6-3.5-50.8-2.8l-.1-1.4s52.3-17.8 70.7-15.9c3.2.3 6.4.7 9.6 1.2l-.1.6c-1 .6.8 7.7.8 7.7z" fill="#faa41a"/><path d="m537.6 687.8c-9.1 1.8-15.5 1.8-15.5 1.8l-.7-.2c3.7-8.8 1.5-18.7-6.6-29.4l1.2-.2c3.6-1.4 6.5-3.2 10.5-4 4.1-.8 21.8-4.1 27.8-6 3.5 4.2 7.5 8.2 9.4 13.5 1.3 3.6 3.1 9.6 1.5 13.1l.3 1.4c-9.7 5.5-19.8 8.4-27.9 10z" fill="#faa41a"/><path d="m562.6 698.4.2.6c-3 1.1-6.1 2.1-9.2 3-8.8 2.7-26.8 2.3-42.6 1.2 4-4.2 7.1-8.1 8.9-11.1.5-.9 1-1.8 1.4-2.7l.7.2s6.4 0 15.5-1.8c2 .2 4.5.6 7.7 1 7.4.9 11.6 2.1 16.5 1.4l.1.6s-.3 7.3.8 7.6z" fill="#faa41a"/><path d="m509.8 742.9v.1c-5-.5-9.7-.4-16-2.3-11-3.3-11.5-6.3-12.3-11l-.5-.7c1.2-.8 2.4-1.7 3.6-2.6 1.6-.1 5.3-.4 10.3-.6 14.2-.7 38.4-1.1 50.8 2.8.5.2 1 .3 1.4.5 3 1.1 6 2.3 9 3.5l-.2.6c-1.2.3-1.2 7.6-1.2 7.6l-3 .3c-3.8-.2-7.7.5-13.6.9-14.5 1.1-26 .9-28.3.9z" fill="#faa41a"/><path d="m552.2 580.2-1 1s-11.3 6.7-23.1 9.7l-.3-1.4c-.8-2.1-3.4-6.2-11.6-13.6-13.6-12.3-31.5-10.7-31.5-10.7l-.1-.2c4.3-3.4 12.1-6.6 26.2-4.2 20.8 3.5 39.4 17.3 39.4 17.3s.6.8 2 2.1z" fill="#faa41a"/><path d="m522 746.2c11.2 4.9 3 24.9-8.5 40.6-4.1 5.5-6.6 8.7-9 10.4-1.9-.7-4.3-1-6-1.9-3-1.6-4.8-3.4-5.7-6.5-1.3-4.6-.4-8.7 2.5-12.1h.1s15.1-14.3 17.5-20c2.5-5.8-10.4-3.8-23.6-5.5-12.9-1.6-13.9-17.6-14-18.3 1.8-1.1 3.7-2.4 5.6-3.7l.5.7c.8 4.7 1.4 7.7 12.3 11 6.3 1.9 11 1.8 16 2.3 3.8.2 7.6.9 12.3 3z" fill="#faa41a"/><path d="m402.4 726.4c-9.5-7-19.3-15.7-26.4-23.2-4-4.2-7.1-8.1-8.9-11.1-.4-.7-.7-1.4-1.1-2-4.1-8.8-2.1-18.8 5.8-29.5 4.3-5.9 10.4-11.9 18.3-18.1 23.3-18.4 53.7-14.3 53.7-14.3h.3c5.3-.5 31.8-2.1 52.8 14.4 7.6 6 13.6 11.9 17.9 17.5 8.1 10.6 10.3 20.6 6.6 29.4-.4.9-.8 1.8-1.4 2.7-1.8 3-4.9 6.9-8.9 11.1-7.1 7.5-16.9 16.2-26.4 23.2-1.2.9-2.4 1.8-3.6 2.6-1.9 1.3-3.8 2.6-5.6 3.7-6.1 3.9-11.7 6.6-15.6 7.2-8.4 1.3-12.9 1.8-15.5 1.8 0 0-2.2.4-17.1-1.9-4-.6-9.5-3.3-15.6-7.2-1.8-1.1-3.7-2.4-5.6-3.7-1.3-.8-2.5-1.7-3.7-2.6z" fill="#ef3e23"/><path d="m498.5 795.2c1.8.9 4.1 1.2 6 1.9-4.4 3.1-8.2 1.3-19.8 0-17.8-1.9-24.4-12.6-18.1-16.7 6-3.9 26.9-3.9 28.7-3.8-2.9 3.4-3.9 7.5-2.5 12.1.9 3.1 2.7 4.9 5.7 6.5z" fill="#faa41a"/><path d="m472.3 619.6c1.9.5 2.7 3.2 1.9 6s-3 4.6-4.8 4.1c-1.9-.5-2.7-3.2-1.9-6s3-4.6 4.8-4.1z" fill="#231f20"/><path d="m420.3 780.4c6.3 4.1-.3 14.8-18.1 16.7-11.5 1.2-15.4 3.1-19.8 0 1.9-.7 4.3-1 6-1.9 3-1.6 4.8-3.4 5.7-6.5 1.3-4.6.4-8.7-2.5-12.1 1.9-.1 22.7-.1 28.7 3.8z" fill="#faa41a"/><path d="m419.5 623.7c.8 2.8 0 5.5-1.9 6s-4-1.3-4.8-4.1 0-5.5 1.9-6c1.8-.6 4 1.3 4.8 4.1z" fill="#231f20"/><path d="m411.6 732.7c0 .6-1.1 16.7-14 18.3-13.2 1.6-26-.3-23.6 5.5 2.5 5.8 17.5 20 17.5 20s0 0 .1 0c2.9 3.4 3.9 7.5 2.5 12.1-.9 3.1-2.7 4.9-5.7 6.5-1.8.9-4.1 1.2-6 1.9-2.4-1.7-5-4.8-9-10.4-11.5-15.6-19.7-35.6-8.5-40.6 4.9-2.1 8.7-2.8 12.5-3.2 4.9-.5 9.5-.4 15.8-2.3 11-3.3 11.5-6.3 12.3-11l.5-.7c1.9 1.5 3.8 2.8 5.6 3.9z" fill="#faa41a"/><path d="m377.4 742.8c-1.4 0-13.4.2-28.5-.9-7.5-.5-11.7-1.5-16.6-.5v-.6s0-7.3-1.2-7.6l-.2-.6c3-1.2 6-2.4 9-3.5.5-.2.9-.3 1.4-.5 12.4-3.9 36.6-3.5 50.8-2.8 4.9.2 8.7.5 10.3.6 1.2.9 2.4 1.8 3.6 2.6l-.5.7c-.8 4.7-1.4 7.7-12.3 11-6.2 1.8-10.8 1.8-15.8 2.1z" fill="#faa41a"/><path d="m402.5 565-.1.2s-18-1.5-31.5 10.7c-8.1 7.3-10.8 11.5-11.6 13.6l-.3 1.4c-11.8-3-23.1-9.7-23.1-9.7l-2-.1c1.9-1.9 3.1-3 3.1-3s18.6-13.8 39.4-17.3c14-2.4 21.9.8 26.1 4.2z" fill="#faa41a"/><path d="m378.3 590.3c10.4-5.7 16.6-4.1 22-6.2-3.3 4.3-20 25.6-29.6 34.3-8.3 7.5-30.4 23.9-39.4 30.8-.1 0-.2-.1-.2-.1-2.1-1.3-18-17.9-31.1-14.2l-1.4-.2c5.6-22.3 27.1-45.4 35.2-53.5l2 .1s11.3 6.7 23.1 9.7c7 1.7 14.2 2.2 19.4-.7z" fill="#faa41a"/><path d="m392.2 724.4-.1 1.4c-14.2-.7-38.4-1.1-50.8 2.8l-.2-.7s-.9-.4-14-4.7c-7.1-2.3-10.9-4.3-15.9-4.6v-.6s1.8-7.1.7-7.6l-.1-.6c3.2-.4 6.4-.8 9.6-1.2 18.4-2 70.8 15.8 70.8 15.8z" fill="#faa41a"/><path d="m349.4 687.7c-8.4-1.6-19.1-4.8-29.2-10.8l1.6-.7c-1.6-3.6.3-9.6 1.5-13.1 1.9-5.3 5.8-9.2 9.4-13.5 6 2 23.7 5.2 27.8 6 4 .8 7 2.6 10.5 4l.7.8c-7.9 10.7-9.9 20.7-5.8 29.5l-1.1-.5c.2.1-6.3.1-15.4-1.7z" fill="#faa41a"/><path d="m367.1 692c1.8 3 4.9 6.9 8.9 11.1-15.9 1.1-33.9 1.5-42.6-1.2-3.1-1-6.1-2-9.2-3l.2-.6c1.1-.4.8-7.6.8-7.6l.1-.6c4.9.7 9.1-.5 16.5-1.4 3.2-.4 5.7-.7 7.7-1 9.1 1.8 15.5 1.8 15.5 1.8l1.1.5c.2.7.6 1.4 1 2z" fill="#faa41a"/><path d="m332.4 740.8v.6c-3.9.7-8.2 2.7-14.9 6.9-15.2 9.6-28.3 11.7-28.3 11.7l.6 16.3-4.4-21.9s21.3-12 45.6-21.9l.2.6c1.2.4 1.2 7.7 1.2 7.7z" fill="#faa41a"/><path d="m331.3 649.1c.3.2.8.4 1.5.6-3.5 4.2-7.5 8.2-9.4 13.5-1.3 3.6-3.1 9.6-1.5 13.1l-1.6.7c-5.9-3.5-11.5-8-16.3-13.7-7-8.4-7.9-18.4-5.3-28.7l1.4.2c13.1-3.7 29 13 31.1 14.2-.1 0 0 .1.1.1z" fill="#faa41a"/><path d="m325.2 690.1-.1.6s.4 7.3-.8 7.6l-.2.6c-24.7-8.6-46.7-19.5-46.7-19.5l3.2-22.1.3 16.3s13.2 1.4 28.9 10.2c7.1 4.1 11.5 5.8 15.4 6.3z" fill="#faa41a"/><path d="m312 710.4c1.1.6-.7 7.6-.7 7.6v.6c-4-.2-8.6.6-16.3 3.1-17.1 5.6-30.3 4.3-30.3 4.3l-3.5 16 1.1-22.3s23.6-6.4 49.6-10z" fill="#faa41a"/><path d="m405.9 568.7c-.7-1.1-1.8-2.4-3.4-3.7-4.3-3.4-12.1-6.6-26.2-4.2-20.8 3.5-39.4 17.3-39.4 17.3s-1.2 1.1-3.1 3c-8.1 8.1-29.7 31.2-35.2 53.5-2.5 10.2-1.7 20.3 5.3 28.7 4.8 5.7 10.5 10.2 16.3 13.7 10.1 6 20.8 9.1 29.2 10.8 9.1 1.8 15.5 1.8 15.5 1.8" fill="none" stroke="#231f20" stroke-linecap="round" stroke-linejoin="round" stroke-width="7.2844"/><path d="m402.4 565.2s-18-1.5-31.5 10.7c-8.1 7.3-10.8 11.5-11.6 13.6" fill="none" stroke="#231f20" stroke-width="7.2844"/><path d="m335.9 581.1s11.3 6.7 23.1 9.7c7 1.8 14.2 2.3 19.4-.5 10.4-5.7 16.6-4.1 22-6.2 1.9-.7 3.6-1.9 5.4-4" fill="none" stroke="#231f20" stroke-linecap="round" stroke-linejoin="round" stroke-width="7.2844"/><path d="m400.9 583.3s-.2.3-.6.8c-3.3 4.3-20 25.6-29.6 34.3-8.3 7.5-30.4 23.9-39.4 30.8-.7.5-1.3 1-1.8 1.4" fill="none" stroke="#231f20" stroke-width="7.2844"/><path d="m300 634.8c13.1-3.7 29 13 31.1 14.2.1 0 .1.1.2.1.3.2.8.4 1.5.6 6 2 23.7 5.2 27.8 6 4 .8 7 2.6 10.5 4" fill="none" stroke="#231f20" stroke-width="7.2844"/><path d="m419.5 623.7c.8 2.8 0 5.5-1.9 6s-4-1.3-4.8-4.1 0-5.5 1.9-6c1.8-.6 4 1.3 4.8 4.1z" fill="none" stroke="#231f20" stroke-width="7.2844"/><path d="m332.9 649.4c-.1.1-.1.2-.2.2-3.5 4.2-7.5 8.2-9.4 13.5-1.3 3.6-3.1 9.6-1.5 13.1" fill="none" stroke="#231f20" stroke-width="7.2844"/><path d="m411.6 732.7c0 .6-1.1 16.7-14 18.4-13.2 1.6-26-.3-23.6 5.5 2.5 5.8 17.5 20 17.5 20s0 0 .1 0c1.8 0 22.6-.1 28.7 3.8 6.3 4.1-.3 14.8-18.1 16.7-11.5 1.2-15.4 3.1-19.8 0-2.4-1.7-5-4.8-9-10.4-11.5-15.6-19.7-35.6-8.5-40.6 4.9-2.1 8.7-2.8 12.5-3.2 4.9-.5 9.5-.4 15.8-2.3 11-3.3 11.5-6.3 12.3-11" fill="none" stroke="#231f20" stroke-width="7.2844"/><path d="m403.3 726.5s-.3 0-.9-.1c-1.6-.1-5.3-.4-10.3-.6-14.2-.7-38.4-1.1-50.8 2.8-.5.2-1 .3-1.4.5-3 1.1-6 2.3-9 3.5-24.3 9.9-45.6 21.9-45.6 21.9l4.4 21.9-.6-16.3s13.1-2 28.3-11.7c6.7-4.3 11-6.2 14.9-6.9 4.9-1 9.1 0 16.6.5 15.1 1.1 27 .9 28.5.9h.1" fill="none" stroke="#231f20" stroke-width="7.2844"/><path d="m331.2 733.2c1.2.3 1.2 7.6 1.2 7.6" fill="none" stroke="#231f20" stroke-width="7.2844"/><path d="m392.2 724.4s-52.3-17.8-70.7-15.9c-3.2.3-6.4.7-9.6 1.2-25.9 3.6-49.6 10-49.6 10l-1.1 22.3 3.5-16s13.2 1.3 30.3-4.3c7.6-2.5 12.3-3.3 16.3-3.1 4.9.3 8.8 2.2 15.9 4.6 13.1 4.4 14 4.7 14 4.7" fill="none" stroke="#231f20" stroke-width="7.2844"/><path d="m312 710.4c1.1.6-.7 7.6-.7 7.6" fill="none" stroke="#231f20" stroke-width="7.2844"/><path d="m376.7 703.1c-.2 0-.5 0-.7.1-15.9 1.1-33.9 1.5-42.6-1.2-3.1-1-6.1-2-9.2-3-24.7-8.6-46.7-19.5-46.7-19.5l3.2-22.1.3 16.3s13.2 1.4 28.9 10.2c7 3.9 11.4 5.6 15.3 6.2 4.9.7 9.1-.5 16.5-1.4 3.2-.4 5.7-.7 7.7-1 .4-.1.9-.1 1.3-.2" fill="none" stroke="#231f20" stroke-width="7.2844"/><path d="m324.4 698.4c1.1-.4.8-7.6.8-7.6" fill="none" stroke="#231f20" stroke-width="7.2844"/><path d="m380.8 798c.5-.4 1.1-.7 1.7-.9 1.9-.7 4.3-1 6-1.9 3-1.6 4.8-3.4 5.7-6.5 1.3-4.6.4-8.7-2.5-12.1-.2-.3-.4-.5-.7-.8" fill="none" stroke="#231f20" stroke-width="7.2844"/><path d="m413.3 606.1s12.7 15.8 13.1 21.9" fill="none" stroke="#231f20" stroke-linecap="round" stroke-linejoin="round" stroke-width="3.6422"/><path d="m537.6 687.8c-9.1 1.8-15.5 1.8-15.5 1.8" fill="none" stroke="#231f20" stroke-linecap="round" stroke-linejoin="round" stroke-width="7.2844"/><path d="m481.1 568.8c.7-1.1 1.8-2.4 3.4-3.7 4.3-3.4 12.1-6.6 26.2-4.2 20.8 3.5 39.4 17.3 39.4 17.3s.8.7 2.1 2c7.3 7.1 30.9 31.7 36.4 55.2 2.3 10 1.4 19.8-5.5 27.9-5.2 6.2-11.3 10.9-17.6 14.5-9.7 5.5-19.8 8.5-27.9 10" fill="none" stroke="#231f20" stroke-linecap="round" stroke-linejoin="round" stroke-width="7.2844"/><path d="m484.6 565.2s17.9-1.5 31.5 10.7c8.1 7.3 10.8 11.5 11.6 13.6" fill="none" stroke="#231f20" stroke-width="7.2844"/><path d="m551.1 581.2s-11.3 6.7-23.1 9.7c-7 1.8-14.2 2.3-19.4-.5-10.4-5.7-16.7-4.1-22-6.3-1.9-.7-3.6-1.9-5.4-4" fill="none" stroke="#231f20" stroke-linecap="round" stroke-linejoin="round" stroke-width="7.2844"/><path d="m486.1 583.4s.2.3.6.7c3.3 4.3 20 25.6 29.6 34.3 8.3 7.5 30.4 23.9 39.4 30.8.7.5 1.3 1 1.8 1.4" fill="none" stroke="#231f20" stroke-width="7.2844"/><path d="m587 634.8c-13.1-3.7-29 13-31.1 14.2-.1 0-.1.1-.2.1-.3.2-.8.4-1.5.6-6 2-23.7 5.2-27.8 6-4 .8-7 2.6-10.5 4" fill="none" stroke="#231f20" stroke-width="7.2844"/><path d="m371.8 660.6c4.3-5.9 10.4-11.9 18.3-18.1 23.3-18.4 53.7-14.3 53.7-14.3h.3c5.3-.5 31.8-2.1 52.8 14.4 7.6 6 13.6 11.9 17.9 17.5 8.1 10.6 10.3 20.6 6.6 29.4-.4.9-.8 1.8-1.4 2.7-1.8 3-4.9 6.9-8.9 11.1-7.1 7.5-16.9 16.2-26.4 23.2-1.2.9-2.4 1.8-3.6 2.6-1.9 1.3-3.8 2.6-5.6 3.7-6.1 3.9-11.7 6.6-15.6 7.2-8.4 1.3-12.9 1.8-15.5 1.8 0 0-2.2.4-17.1-1.9-4-.6-9.5-3.3-15.6-7.2-1.8-1.1-3.7-2.4-5.6-3.7-1.2-.8-2.4-1.7-3.6-2.6-9.5-7-19.3-15.7-26.4-23.2-4-4.2-7.1-8.1-8.9-11.1-.4-.7-.7-1.4-1.1-2-4.2-8.9-2.2-18.9 5.7-29.5z" fill="none" stroke="#231f20" stroke-width="7.2844"/><path d="m467.5 623.7c-.8 2.8 0 5.5 1.9 6s4-1.3 4.8-4.1 0-5.5-1.9-6c-1.8-.5-4 1.3-4.8 4.1z" fill="none" stroke="#231f20" stroke-width="7.2844"/><path d="m554.1 649.5c.1.1.1.2.2.2 3.5 4.2 7.5 8.2 9.4 13.5 1.3 3.6 3.1 9.6 1.5 13.1" fill="none" stroke="#231f20" stroke-width="7.2844"/><path d="m475.4 732.8c0 .7 1.1 16.8 14 18.4 13.2 1.6 26-.3 23.6 5.5-2.5 5.8-17.5 20-17.5 20s0 0-.1 0c-1.7 0-22.6-.1-28.7 3.8-6.3 4.1.3 14.8 18.1 16.7 11.5 1.2 15.4 3.1 19.8 0 2.4-1.7 5-4.8 9-10.4 11.5-15.6 19.7-35.6 8.5-40.6-4.7-2.1-8.6-2.8-12.2-3.2-5-.5-9.7-.4-16-2.3-11-3.3-11.5-6.3-12.3-11" fill="none" stroke="#231f20" stroke-width="7.2844"/><path d="m483.7 726.5s.3 0 .8-.1c1.6-.1 5.3-.4 10.3-.6 14.2-.7 38.4-1.1 50.8 2.8.5.2 1 .3 1.4.5 3 1.1 6 2.3 9 3.5 24.3 9.8 45.6 21.9 45.6 21.9l-4.4 21.9.6-16.3s-13.1-2-28.3-11.7c-8.5-5.4-13.1-7.1-17.9-7.3-3.8-.2-7.7.5-13.6.9-14.4 1-25.9.9-28.2.9-.3 0-.4 0-.4 0" fill="none" stroke="#231f20" stroke-width="7.2844"/><path d="m555.8 733.3c-1.2.3-1.2 7.6-1.2 7.6" fill="none" stroke="#231f20" stroke-width="7.2844"/><path d="m494.8 724.5s52.3-17.8 70.7-15.9c3.2.3 6.4.7 9.6 1.2 25.9 3.6 49.6 10 49.6 10l1.1 22.3-3.5-16s-13.2 1.3-30.3-4.3c-7.6-2.5-12.3-3.3-16.3-3.1-4.9.3-8.8 2.2-15.9 4.6-12.3 4.1-13.9 4.6-14 4.7" fill="none" stroke="#231f20" stroke-width="7.2844"/><path d="m575 710.4c-1.1.6.7 7.6.7 7.6" fill="none" stroke="#231f20" stroke-width="7.2844"/><path d="m510.3 703.2c.2 0 .5 0 .7.1 15.9 1.1 33.9 1.5 42.6-1.2 3.1-1 6.1-2 9.2-3 24.7-8.6 46.7-19.5 46.7-19.5l-3.2-22.1-.3 16.3s-13.2 1.4-28.9 10.2c-7 3.9-11.4 5.6-15.3 6.2-4.9.7-9.1-.5-16.5-1.4-3.2-.4-5.7-.7-7.7-1-.4-.1-.9-.1-1.3-.2" fill="none" stroke="#231f20" stroke-width="7.2844"/><path d="m562.6 698.4c-1.1-.4-.8-7.6-.8-7.6" fill="none" stroke="#231f20" stroke-width="7.2844"/><path d="m506.2 798c-.5-.4-1.1-.7-1.7-.9-1.9-.7-4.3-1-6-1.9-3-1.6-4.8-3.4-5.7-6.5-1.3-4.6-.4-8.7 2.5-12.1.2-.3.4-.5.7-.8" fill="none" stroke="#231f20" stroke-width="7.2844"/><path d="m473.7 606.2s-12.7 15.8-13.1 21.9" fill="none" stroke="#231f20" stroke-linecap="round" stroke-linejoin="round" stroke-width="3.6422"/></svg>