<svg enable-background="new 0 0 850.4 850.4" height="850.4" viewBox="0 0 850.4 850.4" width="850.4" xmlns="http://www.w3.org/2000/svg"><path d="m448.2 540.5v203.9c0-26.8-46.5-42.7-110.7-45.1h-.3c.2-1.1.3-2.2.3-3.3v-.8-204h.8c64.3 0 110 21.7 110 48.5z" fill="#fff"/><path d="m220.3 463c20.5 0 37.2 7.7 37.2 17.1s-16.7 17.1-37.2 17.1-37.2-7.7-37.2-17.1c.1-9.4 16.7-17.1 37.2-17.1z" fill="#787878"/><path d="m144 520.9c-21.7-7.8-36.5-18.8-40-31.2-.5-1.9-.8-3.9-.8-5.8 0-27 52.4-48.8 117.1-48.8s117.1 21.9 117.1 48.8c0 .5 0 1-.1 1.5-1.9 26.2-53.6 47.3-117.1 47.3-29 0-55.6-4.5-76.2-11.8zm113.5-40.8c0-9.4-16.7-17.1-37.2-17.1s-37.2 7.7-37.2 17.1 16.7 17.1 37.2 17.1 37.2-7.5 37.2-17.1z" fill="#fff"/><path d="m144 520.9c20.5 7.3 47.2 11.8 76.3 11.8 63.6 0 115.3-21.1 117.1-47.3h.1v6 203.8.8c0 1.1-.1 2.3-.3 3.3-4.1 25.3-54.7 45.2-116.3 45.2-64.3 0-116.5-21.8-116.5-48.6l-.4-206.2c3.5 12.4 18.3 23.4 40 31.2z" fill="#fff"/><path d="m257.5 480.1c0 9.4-16.7 17.1-37.2 17.1s-37.2-7.7-37.2-17.1 16.7-17.1 37.2-17.1 37.2 7.7 37.2 17.1z" fill="none" stroke="#000" stroke-width="11.7835"/><path d="m104 489.6c-.5-1.9-.8-3.9-.8-5.8 0-27 52.4-48.8 117.1-48.8s117.1 21.9 117.1 48.8c0 .5 0 1-.1 1.5-1.9 26.3-53.6 47.4-117.1 47.4-29.2 0-55.8-4.4-76.3-11.8-21.6-7.8-36.4-18.8-39.9-31.3z" fill="none" stroke="#000" stroke-width="11.7835"/><path d="m337.5 485.2v6 203.8.8c0 1.1-.1 2.3-.3 3.3-4.1 25.3-54.7 45.2-116.3 45.2-64.3 0-116.5-21.8-116.5-48.6l-.4-206v-.2" fill="none" stroke="#000" stroke-width="11.7835"/><path d="m337.5 699.2c64.3 2.6 110.7 18.3 110.7 45.1v-203.8-.8c0-26.8-45.6-48.5-110-48.5" fill="none" stroke="#000" stroke-width="11.7835"/><path d="m144 520.9v208.5" fill="none" stroke="#000" stroke-dasharray="14.1995" stroke-width="11.7835"/><path d="m700.7 269.5.4 1.8-.4 1.9-.3 1.9-.8 1.5-1.1 1.4-1.5 1.2-1.5.8-1.5.7h-1.8-1.9l-1.9-.7-1.5-.8-1.1-1.2-1.1-1.4-.7-1.5-.8-1.9v-1.9-1.8l.8-1.5.7-1.9 1.1-1.1 1.1-1.1 1.5-1.2 1.9-.3 1.9-.4 1.8.4 1.5.3 1.5 1.2 1.5 1.1 1.1 1.1.8 1.9z" fill="#fff"/><path d="m692.9 294.9v1.1l-.4 1.5-.7 1.1-.7 1.1-1.2.8-1.1.8-1.2.4h-1.1-1.4l-1.1-.4-1.2-.8-1.1-.8-.8-1.1-.7-1.1-.4-1.5v-1.1-1.5l.4-1.5.7-1.1.8-.8 1.1-1.1 1.2-.4 1.1-.3 1.4-.4 1.1.4 1.2.3 1.1.4 1.2 1.1.7.8.7 1.1.4 1.5z" fill="#fff"/><path d="m671.6 287.8v1.9l-.4 1.8-1.1 1.5-1.1 1.5-1.1 1.2-1.6.7-1.8.7h-1.9-1.4l-2-.7-1.5-.7-1.4-1.2-.8-1.5-1.1-1.5-.3-1.8-.4-1.9.4-1.9.3-1.5 1.1-1.9.8-1.1 1.4-1.1 1.5-1.1 2-.4 1.4-.4 1.9.4 1.8.4 1.6 1.1 1.1 1.1 1.1 1.1 1.1 1.9.4 1.5z" fill="#fff"/><path d="m653.3 328.1-2.2.4-2.2.7-2.2.7-1.8 1.5-1.8 1.5-1.5 1.8-4.9 7.5-7.5 11.2-7.5 10-2.6 3.3s-.8 1-1.5 1.5l-1.5.7-1.5.4s-1.3-.4-1.5-1.1 0-1.5 0-1.5l2.2-6.4 1.1-2.6.7-2.2.7-2.2v-2.2-1.8l-.4-1.5-.4-1.1-.7-1.1-1.1-1.1-1.5-.4-1.1.4-1.1.7-.3.4-.1-.1-1.1-3-.7-3.3v-3.7l.7-4.1.4-1.8.7-1.8 1.1-1.5 1.5-1.5 1.5-1.5 1.8-1.1 2.2-1.1 2.2-.7 3.7-.7h3.3l3 .7 3 .7 1.1-3 1.5-3 2.6-3 2.6-2.6 3.3-2.2 3.3-1.8 3-1.5 3.3-.7 6.7-.4h5.3l4.5 1.1 3.3 1.5 3 1.5 2.2 1.8 1.8 1.8 1.5 1.1 1.8 1.1.7.4.7-.4 2.2-1.1 3.7-2.2 1.8-1.1 2.2-.7 2.2-.4 2.2-.4 4.1.4 4.1 1.1 4.1 1.8 1.5 1.1 1.5 1.5 1.5 1.5 1.1 1.5 1.1 1.8.7 2.2.4 1.8v2.2l3 .4 2.6.7 2.2.7 2.2 1.1 1.8 1.1 1.8 1.8 1.8 2.2 1.5 2.2 1.5 3 .7 3 .4 3v3.3l-.7 4.1-1.1 4.1-1.1 2.6-.7.7-1.4.6-.1-.2-1.1-4.5-.7-3.3-.7-1.8-.4-1.5-1.1-.7h-1.1l-1.5.4-1.5 1.1-.4 1.1-.7 1.1v1.5l-.4 1.8.4 1.8.4 2.2.7 2.6 1.5 2.6 1.5 3.7.4 2.6v1.5.4l-.4.7h-.7l-1.5-.4-1.5-.7-1.5-1.5-2.6-3.3-7.5-10.4-7.8-10.8-4.9-7.5-1.5-1.8-1.5-1.8-2.2-1.1-1.8-.7-2.2-.7-2.2-.4-4.1-.4-2.6.4-2.2 1.1-1.9 1.8-1.5 1.8-2.2 3.3-.7 1.5v4.5l1.5 6 1.5 7.1 2.2 7.8 4 13.5-1 .3-1.5 1.1-1.5.4-1.9.5-1.1-.4-1.5-.4-3-1.5-2.2-1.9-1.8-1.8-6.4 3.7-2.6 1.1-1.8.4-1.1-.4 1.1-3 4.5-14.2 1.8-7.5 1.8-7.5 1.1-6 .4-4.5-.7-1.5-2.2-3.3-1.8-1.8-1.8-1.5-2.2-1.1-2.2-.7z" fill="#fff"/><path d="m632.4 428.3-2.7-10.8 1.9-2.3 6.7-7.5 6.7-7.5 6-7.4 2.7-3.7 2.2-3.8 1.1-2.9.7-2 1.2.5 1.9-.4 2.6-1.2 6.3-3.7 1.9 1.9 2.2 1.8 3 1.6 1.5.3 1.1.4 2.3-.4 1.5-.3 1.5-1.2 1-.3.1.3 1.8 5.2 1.2 3 2.3 3.8 2.5 3.7 6 7.5 6.8 7.5 6.7 7.5 6.7 7.4 5.6 7.5 2.6 3.7-3 7.5-4.4 6-3.8 4.5-1.5 1.8-3.3 3.7-3.4 3.4-5.3 6.8-2.6 2.5-2.9 2.7-1.6.8-1.8.7-1.9.7-2.2.4-7.1.7-3.8.8h-3.7-3.7l-3.4-.4-3.4-1.5-1.5-.7-1.4-1.1-7.9-6.4-3.7-3-3.4-3.7-8.2-12-4.5-12.7z" fill="#ffeec8"/><path d="m753.8 420.5 2.1 3.5-.2.1c-.9 5.8-5 12.7-8.8 17.2-4.1 4.9-8.4 5.7-14.5 5.7h-.1l-1-3.4-1.5-3.3-1.9-3.7-2.6-3.7-5.6-7.5-6.7-7.5-6.7-7.5-6.7-7.5-6-7.5-2.6-3.7-2.2-3.7-1.1-3-1.8-5.3-.1-.3-4-13.5-2.2-7.8-1.5-7.1-1.5-6v-4.5l.7-1.5 2.2-3.3 1.5-1.8 1.9-1.8 2.2-1.1 2.6-.4 4.1.4 2.2.4 2.2.7 1.8.7 2.2 1.1 1.5 1.8 1.5 1.8 4.9 7.5 7.8 10.8 7.5 10.4 2.6 3.3 1.5 1.5 1.5.7 1.5.4h.7l.4-.7v-.4-1.4l-.4-2.6-1.5-3.7-1.5-2.6-.7-2.6-.4-2.2-.4-1.8.4-1.8v-1.5l.7-1.1.4-1.1 1.5-1.1 1.5-.4h1.1l1.1.7.4 1.5.7 1.8.7 3.3 1.1 4.5.1.2 2.2 4.6 2.6 4.1 2.2 4.1 2.2 3.7 1.5 4.1 1.5 5.6v3l.4 3-.7 4.9.4 5.6.4 4.9 1.1 4.1 1.1 3.7 1.1 3.3z" fill="#ffeec8"/><path d="m629.7 417.5-4.4 5.2-6 7.5-2.2 3.7-2.2 3.7-1.5 3.7-1 2.8-.2-.1c-5.6-1.9-11.6-3.3-16.6-7.7-4.9-4.2-4.1-9.3-7-14.4l.1-.2 2.2-4.1 1.5-2.6 1.1-3 1.1-3.7.7-4.5.7-4.9v-5.3l-.4-5.3v-3l.4-3 1.1-5.3 1.8-4.5 1.8-3.7 2.6-4.1 2.2-4.1 2.2-4.9 1.5-4.5.7-3 .4-2.2.5-.7.3-.4 1.1-.7 1.1-.4 1.5.4 1.1 1.1.7 1.1.4 1.1.4 1.5v1.8 2.2l-.7 2.2-.7 2.2-1.1 2.6-2.2 6.4s-.2.8 0 1.5 1.5 1.1 1.5 1.1l1.5-.4 1.5-.7c.7-.5 1.5-1.5 1.5-1.5l2.6-3.3 7.5-10 7.5-11.2 4.9-7.5 1.5-1.8 1.8-1.5 1.8-1.5 2.2-.7 2.2-.7 2.2-.4 4.1-.4 2.2.7 2.2 1.1 1.8 1.5 1.8 1.8 2.2 3.3.7 1.5-.4 4.5-1.1 6-1.8 7.5-1.8 7.5-4.5 14.2-1.1 3-.7 1.9-1.1 3-2.2 3.7-2.6 3.7-6 7.5-6.7 7.5-6.7 7.5z" fill="#ffeec8"/><path d="m764.8 245.6c3.3 22.3 5.7 46.6 5.7 70.4 0 66.8-6.7 213.5-12.2 251.3-5.6 37.8-7.2 52.3-37.8 57.8-30.9 5.6-63.6 5.2-94.6-.3-30.6-5.5-32.2-20-37.8-57.8s-12.2-184.6-12.2-251.3c0-23.7 2.4-47.9 5.7-70 .6-4.9 41.8-8.8 91.5-8.8 49.8-.1 91 3.8 91.7 8.7zm-152.5 198.6 1-2.8 1.5-3.7 2.2-3.7 2.2-3.7 6-7.5 4.4-5.2 2.7 10.8 2.2 9.7 4.5 12.7 8.2 12 3.3 3.7 3.7 3 7.8 6.4 1.5 1.1 1.5.7 3.3 1.5 3.3.4h3.7 3.7l3.7-.7 7.1-.7 2.2-.4 1.8-.7 1.8-.7 1.5-.7 3-2.6 2.6-2.6 5.3-6.7 3.3-3.3 3.3-3.7 1.5-1.8 3.7-4.5 4.5-6 3-7.5 1.9 3.7 1.5 3.3 1 3.4h.1c6.1 0 10.4-.7 14.5-5.7 3.7-4.5 8-11.4 8.8-17.2l.2-.1-2.1-3.5-1.1-2.6-1.1-3.3-1.1-3.7-1.1-4.1-.4-4.9-.4-5.6.7-4.9-.4-3v-3l-1.5-5.6-1.5-4.1-2.2-3.7-2.2-4.1-2.6-4.1-2.2-4.6 1.4-.6.7-.7 1.1-2.6 1.1-4.1.7-4.1v-3.3l-.4-3-.7-3-1.3-3.2-1.5-2.2-1.8-2.2-1.8-1.8-1.8-1.1-1.8-1.7-2.2-.7-2.6-.7-3-.4v-2.2l-.4-1.8-.7-2.2-1.1-1.8-1.1-1.5-1.5-1.5-1.5-1.5-1.5-1.1-4.1-1.8-4.1-1.1-4.1-.4-2.2.4-2.2.4-2.2.7-1.8 1.1-3.7 2.2-2.2 1.1-.7.4-.7-.4-1.8-1.1-1.5-1.1-1.8-1.8-2.2-1.8-3-1.5-3.3-1.5-4.5-1.1h-5.3l-6.7.4-3.3.7-3 1.5-3.3 1.8-3.3 2.2-2.6 2.6-2.6 3-1.5 3-1.1 3-3-.7-3-.7h-3.3l-3.7.7-2.2.7-2.2 1.1-1.8 1.1-1.5 1.5-1.5 1.5-1.1 1.5-.7 1.8-.4 1.8-.7 4.1v3.7l.7 3.3 1.1 3 .1.1-.5.7-.4 2.2-.7 3-1.5 4.5-2.2 4.9-2.2 4.1-2.6 4.1-1.8 3.7-1.8 4.5-1.1 5.3-.4 3v3l.4 5.3v5.3l-.7 4.9-.7 4.5-1.1 3.7-1.1 3-1.5 2.6-2.2 4.1-.1.2c3 4.9 2.2 10.1 7 14.4 5 4.3 11 5.7 16.6 7.7zm88.8-172.9-.4-1.8-.4-1.5-.7-1.8-1.1-1.1-1.5-1.1-1.5-1.1-1.5-.4-1.8-.4-1.8.4-1.8.4-1.5 1.1-1.1 1.1-1.1 1.1-.9 1.8-.7 1.5v1.8 1.8l.7 1.8.7 1.5 1.1 1.5 1.1 1.1 1.5.7 1.8.7h1.8 1.8l1.5-.7 1.5-.7 1.5-1.1 1.1-1.5.7-1.5.4-1.8zm-8.2 24.7v-1.1-1.5l-.4-1.5-.7-1.1-.7-.7-1.1-1.1-1.1-.4-1.1-.4-1.1-.4-1.5.4-1.1.4-1.1.4-1.1 1.1-.7.7-.7 1.1-.4 1.5v1.5 1.1l.4 1.5.7 1.1.7 1.1 1.1.7 1.1.7 1.1.4h1.5 1.1l1.1-.4 1.1-.7 1.1-.7.7-1.1.7-1.1zm-21.3-6.3v-1.8-1.9l-.4-1.5-1.1-1.8-1.1-1.1-1.1-1.1-1.5-1.1-1.8-.4-1.8-.4-1.5.4-1.8.4-1.5 1.1-1.5 1.1-.7 1.1-1.1 1.8-.4 1.5-.4 1.8.4 1.8.4 1.8 1.1 1.5.7 1.5 1.5 1.1 1.5.7 1.8.7h1.5 1.8l1.8-.7 1.5-.7 1.1-1.1 1.1-1.5 1.1-1.5z" fill="#a3d9ff"/><path d="m697 150.1c3 3.1 4.9 6.9 4.9 10.8 0 10.8-12.7 19.5-28.4 19.5-15.6 0-28.4-8.7-28.4-19.5 0-3.8 1.6-7.3 4.3-10.4h1.2v6.5h45.1v-6.3z" fill="#0b00ea"/><path d="m650.7 150.7h-1.2c-2.8 3-4.3 6.5-4.3 10.4 0 10.8 12.7 19.5 28.4 19.5 15.6 0 28.4-8.7 28.4-19.5 0-4.1-1.8-7.7-4.9-10.8l-1.3.7v6.3h-45.1zm114.1 94.9c-.6-4.9-41.9-8.8-91.6-8.8s-90.8 3.9-91.5 8.8c6.1-40.3 15.2-73.8 18.7-84.5 5.6-16.7 72.3-14.4 72.3-14.4s67.9-1.8 73.5 14.8c3.4 10.6 12.5 43.9 18.6 84.1z" fill="#0b00ea"/><path d="m581.6 245.6c-3.3 22.2-5.7 46.4-5.7 70 0 66.8 6.7 213.5 12.2 251.3 5.6 37.8 7.2 52.3 37.8 57.8 30.9 5.6 63.6 5.9 94.6.3 30.6-5.5 32.2-20 37.8-57.8s12.2-184.6 12.2-251.3c0-23.8-2.4-48.2-5.7-70.4-6.1-40.2-15.2-73.5-18.7-84.2-5.6-16.7-73.5-14.8-73.5-14.8s-66.8-2.2-72.3 14.4c-3.5 10.9-12.7 44.3-18.7 84.7z" fill="none" stroke="#000" stroke-width="13.3454"/><path d="m581.6 245.7c.6-4.9 41.8-8.9 91.5-8.9 49.8 0 91 3.9 91.6 8.8v.1" fill="none" stroke="#000" stroke-width="13.3454"/><path d="m695.7 150.8v6.3h-45v-6.4-.5" fill="none" stroke="#000" stroke-width="13.3454"/><path d="m697 150.1c3 3.1 4.9 6.9 4.9 10.8 0 10.8-12.7 19.5-28.4 19.5-15.6 0-28.4-8.7-28.4-19.5 0-3.8 1.6-7.3 4.3-10.4" fill="none" stroke="#000" stroke-width="13.3454"/><path d="m639.1 450.7 8.2 12 3.4 3.7 3.7 3 7.9 6.4 1.4 1.1 1.5.7 3.4 1.5 3.4.4h3.7 3.7l3.8-.8 7.1-.7 2.2-.4 1.9-.7 1.8-.7 1.6-.8 2.9-2.7 2.6-2.5 5.3-6.8 3.4-3.4 3.3-3.7 1.5-1.8 3.8-4.5 4.4-6 3-7.5" fill="none" stroke="#000" stroke-linecap="square" stroke-miterlimit="10" stroke-width="6.6727"/><path d="m675.7 411.9 1.5-1.1 1.5-.8 3.4-.8h3.3l3.4.4 3.4.8 2.5 1.1 3.8 1.1" fill="none" stroke="#000" stroke-linecap="square" stroke-miterlimit="10" stroke-width="6.6727"/><path d="m655.5 415.9-2.6-1.1-3.4-.4h-3.7l-4.1.4-3.8 1.1-3.7 1.2-3 2.2-.3.5.1-.3" fill="none" stroke="#000" stroke-linecap="square" stroke-miterlimit="10" stroke-width="6.6727"/><path d="m662.6 454.1 3.4.4 3.7.4 7.1-.8h3.4l3-.4 3.3-1.2 4.2-1.4" fill="none" stroke="#000" stroke-linecap="square" stroke-miterlimit="10" stroke-width="6.6727"/><path d="m639.1 450.7-4.5-12.7-2.2-9.7-2.7-10.8" fill="none" stroke="#000" stroke-linecap="square" stroke-miterlimit="10" stroke-width="6.6727"/><path d="m596.1 393.9v5.2l-.7 4.9-.8 4.5-1.1 3.7-1.1 3-1.5 2.7-2.2 4" fill="none" stroke="#000" stroke-linecap="square" stroke-miterlimit="10" stroke-width="6.6727"/><path d="m617.5 368.5-1.5.7-1.5.4s-1.3-.4-1.5-1.1 0-1.5 0-1.5l2.2-6.4 1.1-2.6.7-2.2.7-2.2v-2.2-1.8l-.4-1.5-.4-1.1-.7-1.1-1.1-1.1-1.5-.4-1.1.4-1.1.7-.3.4-.5.7-.4 2.2-.7 3-1.5 4.5-2.2 4.9-2.2 4.1-2.6 4.1-1.8 3.7-1.8 4.5-1.1 5.3-.4 3v3l.4 5.3" fill="none" stroke="#000" stroke-linecap="square" stroke-miterlimit="10" stroke-width="6.6727"/><path d="m612.2 444.7.2-.6 1-2.8 1.5-3.7 2.2-3.7 2.2-3.7 6-7.5 4.4-5.2 1.9-2.3 6.7-7.5 6.7-7.5 6-7.5 2.6-3.7 2.2-3.7 1.1-3 .7-1.9 1.1-3 4.5-14.2 1.8-7.5 1.8-7.5 1.1-6 .4-4.5-.7-1.5-2.2-3.3-1.8-1.8-1.8-1.5-2.2-1.1-2.2-.7-4.1.4-2.2.4-2.2.7-2.2.7-1.8 1.5-1.8 1.5-1.5 1.8-4.9 7.5-7.5 11.2-7.5 10-2.6 3.3s-.8 1-1.5 1.5" fill="none" stroke="#000" stroke-linecap="square" stroke-miterlimit="10" stroke-width="6.6727"/><path d="m748.6 396.2.4 5.5.4 4.9 1.1 4.2 1.1 3.6 1.1 3.5 1.1 2.6 2.1 3.4.2.3" fill="none" stroke="#000" stroke-linecap="square" stroke-miterlimit="10" stroke-width="6.6727"/><path d="m727.7 371.1 1.5.7 1.4.4h.8l.3-.7v-.4-1.5l-.3-2.6-1.5-3.7-1.5-2.6-.7-2.7-.4-2.2-.4-1.8.4-1.9v-1.6l.7-1.1.4-1.1 1.5-1.1 1.5-.4h1.1l1.2.8.3 1.5.8 1.8.7 3.4 1.1 4.5.2.3 2 4.5 2.7 4.2 2.2 4 2.2 3.8 1.6 4.1 1.5 5.6v3l.4 3-.8 4.9" fill="none" stroke="#000" stroke-linecap="square" stroke-miterlimit="10" stroke-width="6.6727"/><path d="m732.5 447.4-.1-.4-1-3.4-1.5-3.3-1.9-3.8-2.6-3.7-5.6-7.5-6.7-7.4-6.7-7.5-6.8-7.5-6-7.5-2.5-3.7-2.3-3.8-1.2-3-1.8-5.2-.1-.3-4-13.5-2.3-7.9-1.4-7.1-1.5-5.9v-4.5l.7-1.5 2.2-3.4 1.5-1.9 1.9-1.8 2.3-1.1 2.5-.4 4.2.4 2.2.4 2.2.7 2 .7 2.2 1.1 1.4 1.9 1.5 1.9 4.9 7.5 7.9 10.8 7.4 10.5 2.7 3.3 1.5 1.5" fill="none" stroke="#000" stroke-linecap="square" stroke-miterlimit="10" stroke-width="6.6727"/><path d="m671.6 287.8v1.9l-.4 1.8-1.1 1.5-1.1 1.5-1.1 1.2-1.6.7-1.8.7h-1.9-1.4l-2-.7-1.5-.7-1.4-1.2-.8-1.5-1.1-1.5-.3-1.8-.4-1.9.4-1.9.3-1.5 1.1-1.9.8-1.1 1.4-1.1 1.5-1.1 2-.4 1.4-.4 1.9.4 1.8.4 1.6 1.1 1.1 1.1 1.1 1.1 1.1 1.9.4 1.5z" fill="none" stroke="#000" stroke-linecap="square" stroke-miterlimit="10" stroke-width="6.6727"/><path d="m701.1 271.3-.4 1.9-.3 1.9-.8 1.5-1.1 1.4-1.5 1.2-1.5.8-1.5.7h-1.8-1.9l-1.9-.7-1.5-.8-1.1-1.2-1.1-1.4-.7-1.5-.8-1.9v-1.9-1.8l.8-1.5.7-1.9 1.1-1.1 1.1-1.1 1.5-1.2 1.9-.3 1.9-.4 1.8.4 1.5.3 1.5 1.2 1.5 1.1 1.1 1.1.8 1.9.3 1.5z" fill="none" stroke="#000" stroke-linecap="square" stroke-miterlimit="10" stroke-width="6.6727"/><path d="m692.9 294.9v1.1l-.4 1.5-.7 1.1-.7 1.1-1.2.8-1.1.8-1.2.4h-1.1-1.4l-1.1-.4-1.2-.8-1.1-.8-.8-1.1-.7-1.1-.4-1.5v-1.1-1.5l.4-1.5.7-1.1.8-.8 1.1-1.1 1.2-.4 1.1-.3 1.4-.4 1.1.4 1.2.3 1.1.4 1.2 1.1.7.8.7 1.1.4 1.5z" fill="none" stroke="#000" stroke-linecap="square" stroke-miterlimit="10" stroke-width="6.6727"/><path d="m658.9 380.9 1.9-.4 2.6-1.2 6.3-3.7 1.9 1.9 2.2 1.8 3 1.6 1.5.3 1.1.4 2.3-.4 1.5-.3 1.5-1.2" fill="none" stroke="#000" stroke-linecap="square" stroke-miterlimit="10" stroke-width="6.6727"/><path d="m611.1 345.7-1.1-3-.8-3.3v-3.8l.8-4.1.3-1.9.8-1.8 1.1-1.5 1.5-1.5 1.4-1.5 2-1.1 2.2-1.2 2.2-.7 3.8-.8h3.3l3 .8 3 .7 1.1-2.9 1.5-3 2.7-3 2.5-2.6 3.4-2.3 3.4-1.9 2.9-1.4 3.4-.8 6.8-.3h5.2l4.5 1.1 3.4 1.4 2.9 1.5 2.2 2 2 1.8 1.5 1.1 1.8 1.1.7.4.8-.4 2.2-1.1 3.8-2.2 1.8-1.1 2.3-.8 2.2-.4 2.2-.4 4.2.4 4.1 1.2 4.1 1.8 1.5 1.1 1.4 1.5 1.6 1.5 1.1 1.6 1.1 1.8.8 2.2.4 1.9v2.3l2.9.3 2.7.8 2.2.7 2.2 1.1 1.9 1.1 1.9 1.9 1.8 2.3 1.5 2.2 1.6 3 .7 3 .4 2.9v3.4l-.8 4.1-1.1 4.2-1.2 2.5-.7.8" fill="none" stroke="#000" stroke-linecap="square" stroke-miterlimit="10" stroke-width="6.6727"/><path d="m664.5 414.4.7 4.9.8 7.9.7 4.1 1.2 4.1 1.5 3.4.7 1.5 1.1 1.1" fill="none" stroke="#000" stroke-linecap="square" stroke-miterlimit="10" stroke-width="6.6727"/><path d="m493.5 178.5-419.6 146.5-14.4-41.6c-22.5-64.9 44.8-105.7 180.1-152.6s218.8-53.9 241.3 10.9z" fill="#33a02c"/><g fill="none" stroke="#000"><path d="m73.9 325-14.4-41.6c-22.5-64.9 44.8-105.7 180.1-152.6s218.8-53.9 241.3 10.9l12.8 36.9" stroke-linecap="round" stroke-linejoin="round" stroke-width="12.542"/><path d="m96 224.6c30.3-25.7 82.7-48.8 154-73.5 67.6-23.5 122.3-36.9 162.9-36.5" stroke-linecap="round" stroke-linejoin="round" stroke-width="8.3613"/><path d="m70.9 253 22.2 63.8" stroke-linecap="round" stroke-linejoin="round" stroke-width="12.542"/><path d="m87.7 246.8 22.2 63.9" stroke-linecap="round" stroke-linejoin="round" stroke-width="12.542"/><path d="m103.2 241.6 22.1 63.9" stroke-linecap="round" stroke-linejoin="round" stroke-width="12.542"/><path d="m118.3 236.4 22.2 63.8" stroke-linecap="round" stroke-linejoin="round" stroke-width="12.542"/><path d="m133.8 231.2 22.1 63.8" stroke-linecap="round" stroke-linejoin="round" stroke-width="12.542"/><path d="m150.6 225 22.1 63.9" stroke-linecap="round" stroke-linejoin="round" stroke-width="12.542"/><path d="m166 219.8 22.2 63.9" stroke-linecap="round" stroke-linejoin="round" stroke-width="12.542"/><path d="m182.3 214.6 22.1 63.8" stroke-linecap="round" stroke-linejoin="round" stroke-width="12.542"/><path d="m197.8 209.4 22.1 63.8" stroke-linecap="round" stroke-linejoin="round" stroke-width="12.542"/><path d="m214.6 203.2 22.1 63.8" stroke-linecap="round" stroke-linejoin="round" stroke-width="12.542"/><path d="m230 198 22.2 63.8" stroke-linecap="round" stroke-linejoin="round" stroke-width="12.542"/><path d="m245.2 192.8 22.1 63.8" stroke-linecap="round" stroke-linejoin="round" stroke-width="12.542"/><path d="m260.6 187.6 22.2 63.8" stroke-linecap="round" stroke-linejoin="round" stroke-width="12.542"/><path d="m277.4 181.4 22.2 63.8" stroke-linecap="round" stroke-linejoin="round" stroke-width="12.542"/><path d="m292.9 176.2 22.1 63.8" stroke-linecap="round" stroke-linejoin="round" stroke-width="12.542"/><path d="m309.4 170.8 22.2 63.9" stroke-linecap="round" stroke-linejoin="round" stroke-width="12.542"/><path d="m324.9 165.6 22.1 63.9" stroke-linecap="round" stroke-linejoin="round" stroke-width="12.542"/><path d="m341.7 159.5 22.1 63.8" stroke-linecap="round" stroke-linejoin="round" stroke-width="12.542"/><path d="m357.1 154.3 22.2 63.8" stroke-linecap="round" stroke-linejoin="round" stroke-width="12.542"/><path d="m372.3 149 22.1 63.9" stroke-linecap="round" stroke-linejoin="round" stroke-width="12.542"/><path d="m387.7 143.8 22.2 63.9" stroke-linecap="round" stroke-linejoin="round" stroke-width="12.542"/><path d="m404.5 137.7 22.2 63.8" stroke-linecap="round" stroke-linejoin="round" stroke-width="12.542"/><path d="m420 132.5 22.1 63.8" stroke-linecap="round" stroke-linejoin="round" stroke-width="12.542"/><path d="m435.3 126.4 22.2 63.9" stroke-linecap="round" stroke-linejoin="round" stroke-width="12.542"/><path d="m450.8 121.2 22.1 63.9" stroke-linecap="round" stroke-linejoin="round" stroke-width="12.542"/></g></svg>