<svg enable-background="new 0 0 850.4 850.4" height="850.4" viewBox="0 0 850.4 850.4" width="850.4" xmlns="http://www.w3.org/2000/svg"><path d="m284.3 345.2c-9.1 21.6-15.5 37.1-17.9 69.1 0 0 .7 35.9 1.1 47.5.7 16.3 1.4 39.2 11.7 52.4 5.5 7.1 10.4 10.2 13.5 15.9.6 1.2 1.1 2.5 1.6 3.8 3.1 8.2 3.9 17.7-5.4 21.3-5.5 2-9.4 2.5-14.8 4.3-17 5.5-27.5 10-51.9-.5 0 0-20-3-20-20.7 3.3-16.5 9.1-11.2 15.6-23.5 6.8-12.9 3.8-39.9 3.8-54.3 0-18.3.5-35.9-3.8-53.8-3.1-12.4-38.7-70.8-42-76.3 3.3-2.6 6.4-6 8.9-10s7.5-9 15-11.9l38.6 50.5 19.8-34.2c11.6-1.5 23.3-11.6 33.3-5.5 1 .6 1.9 1.3 2.7 2l-2.3 2.5c-1.5.2-5.6 16.9-7.5 21.4z" fill="#9c5b16"/><path d="m199.6 308.7c-7.4 2.9-12.4 8-15 11.9s-5.6 7.2-8.9 10c-17.3 13.9-43.2 11.2-61.6-4.7-20.9-18.1-22.6 8.4-47.9-31.3-3.7-5.8-.9-20.9-2.9-27.7-11.1-36 14.9-40 10.9-48.8-7.1-15.8-8.2-29.3-.5-45.5 6.6-14.1 16-22.1 28.6-30.2 13.2-8.4 13.4-20 18.9-34.1 8.2-20.7 26.7-31.5 48.5-34.9 19.2-3 35.9 6.6 53.5-4.4 13.5-8.6 28.2-17.4 45.3-14.7 19.7 3.2 25.5 24.9 43.2 29.9 20.4 5.8 48.6 6 57.3 30.4 7.3 20.4-3.2 32 17.8 43.9 28.5 16.1 42.8 70 34.1 96.1-5.4 16.1-15.6 12.8-20.5 30.1-4.8 16.9-12.7 30.2-30.2 34.1-6 1.4-12 1.6-18.1 3-8.2 1.8-13 7.1-21 10.3-7.3 3-16.4 3.6-23.9 1-7-2.4-9-7.6-13.4-11.5-.8-.8-1.7-1.4-2.7-2-10-6-21.7 4.1-33.3 5.5-10.5 1.4-10.9-4.1-17.5-11l-.2.2c-17.6-9.7-31-9.4-40.5-5.6z" fill="#33a02c"/><path d="m294.2 533.9c-.5-1.4-1-2.6-1.6-3.8" fill="none" stroke="#231f20" stroke-width="14.7433"/><path d="m202.1 538.4c0 17.7 20 20.7 20 20.7 24.4 10.5 34.9 6 51.9.5 5.5-1.8 9.4-2.1 14.8-4.3 9.3-3.6 8.4-13.1 5.4-21.3" fill="none" stroke="#231f20" stroke-width="14.7433"/><path d="m202.1 538.4c-.1.4-.2.9-.3 1.4z" fill="none" stroke="#231f20" stroke-width="14.7433"/><path d="m175.4 330.2s.1.2.3.4c3.3 5.5 39 63.9 42 76.3 4.3 17.8 3.8 35.4 3.8 53.8 0 14.4 3 41.4-3.8 54.3-6.5 12.3-12.3 7-15.6 23.5" fill="none" stroke="#231f20" stroke-width="14.7433"/><path d="m250 374.5-11.7-15.3-38.7-50.5-1.2-1.5" fill="none" stroke="#231f20" stroke-width="14.7433"/><path d="m292.3 324.9c-.1-.6-.3-.9-.4-.9-1.5 0-5.6 16.7-7.5 21.1-9.1 21.6-15.5 37.1-17.9 69.1 0 0 .7 35.9 1.1 47.5.7 16.3 1.4 39.2 11.7 52.4 5.5 7.1 10.4 10.2 13.5 15.9.6 1.2 1.2 2.4 1.6 3.8.1.3.2.5.3.9" fill="none" stroke="#231f20" stroke-width="14.7433"/><path d="m238.2 359.4.1-.2 19.8-34.1" fill="none" stroke="#231f20" stroke-width="14.7433"/><path d="m240.4 314.2c-17.8-9.6-31.3-9.3-40.7-5.5-7.4 2.9-12.4 8-15 11.9s-5.6 7.2-8.9 10c-17.3 13.9-43.2 11.2-61.6-4.7-20.9-18.1-22.6 8.4-47.9-31.3-3.7-5.8-.9-20.9-2.9-27.7-11.1-36 14.9-40 10.9-48.8-7.1-15.8-8.2-29.3-.5-45.5 6.6-14.1 16-22.1 28.6-30.2 13.2-8.4 13.4-20 18.9-34.1 8.2-20.7 26.7-31.5 48.5-34.9 19.2-3 35.9 6.6 53.5-4.4 13.5-8.6 28.2-17.4 45.3-14.7 19.7 3.2 25.5 24.9 43.2 29.9 20.4 5.8 48.6 6 57.3 30.4 7.3 20.4-3.2 32 17.8 43.9 28.5 16.1 42.8 70 34.1 96.1-5.4 16.1-15.6 12.8-20.5 30.1-4.8 16.9-12.7 30.2-30.2 34.1-6 1.4-12 1.6-18.1 3-8.2 1.8-13 7.1-21 10.3-7.3 3-16.4 3.6-23.9 1-7-2.4-9-7.6-13.4-11.5-.8-.8-1.7-1.4-2.7-2-10-6-21.7 4.1-33.3 5.5-10.5 1.4-10.9-4.1-17.5-11-1.6-1.6-3.6-3.4-6.1-5.1" fill="none" stroke="#231f20" stroke-width="14.7433"/><path d="m687.6 636.7c5.2-8.4 21.6-21.4 31.7-19-10.8 1.2-20.8 13.6-25.4 21.9-7.1 12.5-11.1 32.9-12.7 47.2-4 35.9-5.9 72.3-9.4 108.1l-27.4-2.6.3-1.2 3.8-15.4 14.4-58.3 10-40.4c3.4-12.7 4.4-23.5 14.7-40.3z" fill="#00e800"/><path d="m655.2 557.2 7.8 160.1-14.4 58.4h-.1l-1.8-104.6z" fill="#00e800"/><path d="m644.7 791.1-.3 1.3-25.3 1.2-13.1-53.2c-2.2-27.8-4.2-58.4-7.4-86.1-1.9-17-6.6-34.6-15.1-49.6-2.4-4.4-6.2-11.1-10.8-17.3 2.5-1.9 5.3-3.3 8-4 3.2 2.9 6.3 6.1 9.1 9.4 6.7 7.9 15.7 22.9 22.4 43.5l10.2 48.6v.1l17.8 84.8 2.2 10.6z" fill="#00e800"/><path d="m630.7 576.1 9.6 193.6-17.9-84.7v-.1z" fill="#00e800"/><path d="m619.1 793.5.1.5-27.4 2.6c-3.5-35.8-5.4-72.1-9.4-108.1-1.6-14.3-5.6-34.6-12.6-47.2-3.7-6.6-10.7-15.7-18.8-19.8.2-.6.3-1.1.5-1.7 9.4 2.5 20.4 11.9 24.5 18.6 10.3 16.8 11.3 27.6 14.6 40.2l15.3 61.8z" fill="#00e800"/><path d="m579.9 582.6c-2.8.1-5.8 1-8.9 2.5-5.3-6.8-11.5-12.6-17.9-13.3 8.5-2 18.2 3.2 26.8 10.8z" fill="#00e800"/><path d="m571 585.1c.6.8 1.1 1.5 1.7 2.3-6.4 4.6-11.9 11.9-14.9 17.4-2.5 4.3-4.5 9.6-6.2 15.2-2.6-.7-5-.9-7.2-.4 2.3.2 4.5 1 6.6 2.1-3 10.2-4.9 21.5-5.9 30.3-4 36-5.9 72.3-9.4 108.1l-27.4-2.5.3-1.2 3.8-15.4 14.5-58.4v-.1l10-40.4c3.3-12.6 4.4-23.4 14.6-40.2 3.4-5.6 11.5-13 19.5-16.8z" fill="#00e800"/><path d="m526.9 682.3v.1l-14.5 58.4-1.8-104.6 8.6-113.9z" fill="#00e800"/><path d="m508.6 756.2-.3 1.3-25.3 1.2-13.2-53.1c-2.2-27.9-4.2-58.4-7.4-86.1-1.9-17-6.6-34.6-15.1-49.6-5.6-9.9-17.5-31.5-30.4-32.9 12.1-2.8 26.4 8.7 36.8 20.9 6.7 7.9 15.7 23 22.4 43.6l10.2 48.6 17.8 84.8 2.2 10.5z" fill="#00e800"/><path d="m494.6 541.2 9.6 193.6-17.8-84.8z" fill="#00e800"/><path d="m483 758.6.1.5-27.3 2.6c-3.5-35.8-5.4-72.1-9.4-108.1-1.6-14.3-5.5-34.6-12.7-47.2-4.7-8.3-14.7-20.7-25.5-21.9 10.1-2.4 26.5 10.6 31.7 19 10.3 16.8 11.3 27.6 14.6 40.2l15.3 61.8z" fill="#00e800"/><path d="m486.4 650 8.2-108.8 9.6 193.6" fill="none" stroke="#000" stroke-width="5.8426"/><path d="m512.4 740.8-1.8-104.6 8.6-113.9 7.7 160" fill="none" stroke="#000" stroke-width="5.8426"/><path d="m508.3 757.4-25.3 1.2-.4.1" fill="none" stroke="#000" stroke-width="5.8426"/><path d="m469.8 705.5c-2.2-27.9-4.2-58.4-7.4-86.1-1.9-17-6.6-34.6-15.1-49.6-5.6-9.9-17.5-31.5-30.4-32.9 12.1-2.8 26.4 8.7 36.8 20.9 6.7 7.9 15.7 23 22.4 43.6l10.2 48.6 17.8 84.8 2.2 10.5 2.2 10.8" fill="none" stroke="#000" stroke-width="5.8426"/><path d="m483 758.6.1.5-27.3 2.6c-3.5-35.8-5.4-72.1-9.4-108.1-1.6-14.3-5.5-34.6-12.7-47.2-4.7-8.3-14.7-20.7-25.5-21.9 10.1-2.4 26.5 10.6 31.7 19 10.3 16.8 11.3 27.6 14.6 40.2l15.3 61.8z" fill="none" stroke="#000" stroke-width="5.8426"/><path d="m508.3 757.4 27.4 2.5c3.5-35.8 5.4-72.1 9.4-108.1 1-8.9 2.9-20.1 5.9-30.3.2-.6.3-1.1.5-1.7 1.7-5.6 3.8-10.9 6.2-15.2 3.1-5.5 8.5-12.8 14.9-17.4 2.5-1.9 5.3-3.3 8-4 .8-.3 1.7-.4 2.5-.5-1-.2-2.1-.3-3.3-.2-2.8.1-5.8 1-8.9 2.5-8 3.8-16.2 11.2-19.5 16.7-10.3 16.8-11.3 27.6-14.6 40.2l-10 40.4v.1l-14.5 58.4-3.8 15.4z" fill="none" stroke="#000" stroke-width="5.8426"/><path d="m622.4 684.9 8.3-108.8 9.6 193.6" fill="none" stroke="#000" stroke-width="5.8426"/><path d="m648.5 775.7-1.8-104.6 8.5-113.9 7.8 160.1" fill="none" stroke="#000" stroke-width="5.8426"/><path d="m644.4 792.3-25.3 1.2-.5.1" fill="none" stroke="#000" stroke-width="5.8426"/><path d="m606 740.4c-2.2-27.8-4.2-58.4-7.4-86.1-1.9-17-6.6-34.6-15.1-49.6-2.4-4.4-6.2-11.1-10.8-17.3-.5-.8-1.1-1.5-1.7-2.3-5.3-6.8-11.5-12.6-17.9-13.3 8.5-2 18.2 3.2 26.8 10.8l.8.8c3.2 2.9 6.3 6.1 9.1 9.4 6.7 7.9 15.7 22.9 22.4 43.5l10.2 48.6v.1l17.8 84.8 2.2 10.6 2.3 10.8" fill="none" stroke="#000" stroke-width="5.8426"/><path d="m619.1 793.5.1.5-27.4 2.6c-3.5-35.8-5.4-72.1-9.4-108.1-1.6-14.3-5.6-34.6-12.6-47.2-3.7-6.6-10.7-15.7-18.8-19.8-2.1-1.1-4.4-1.9-6.6-2.1 2.2-.5 4.6-.3 7.2.4 9.4 2.5 20.4 11.9 24.5 18.6 10.3 16.8 11.3 27.6 14.6 40.2l15.3 61.8z" fill="none" stroke="#000" stroke-width="5.8426"/><path d="m644.4 792.3 27.4 2.6c3.5-35.8 5.4-72.1 9.4-108.1 1.6-14.3 5.6-34.6 12.7-47.2 4.7-8.3 14.6-20.8 25.4-21.9-10.1-2.4-26.5 10.6-31.7 19-10.3 16.8-11.3 27.6-14.6 40.2l-10 40.4-14.4 58.3-3.8 15.4z" fill="none" stroke="#000" stroke-width="5.8426"/><path d="m789.9 276.7s-27 28.1-55.9 32.9c-4.5.7-9.1.9-13.6.3-9.8-1.3-18.5-5.9-25.7-11.3.4-.7.6-1.5.7-2.4.2-2.7-.5-5.2 2.6-6.9 1.2-.7 3-.5 4.1-1.2 4.6-3.2-1.8-9.9 1.6-14 1.7-2.1 4.5-3 4.5-6-.1-2.4-2.7-4-3.1-6.3-.9-4.5 3.7-6-.7-10.2-2.7-2.5-2.1-1.7-1.7-4.6.3-1.8.9-2.6-.5-4.5-1.4-2-3.1-2.9-5.8-2.8-1.9.1-3.1 1.4-5.1.3-2-1.2-1.3-2.9-4-3.6-.2-.1-.4-.1-.6-.1v-1.3s-2.3-.6-6.1-1.6l2.8-.7c6.7-8.3 22.4-20.9 37.7-22.7 3.5-.4 7-.3 10.4.6 28.8 7.6 58.4 66.1 58.4 66.1z" fill="#fff400"/><path d="m733.9 309.6c3.3 29-7.7 67-7.7 67s-41.5 5.2-65.4-14.4h-2.3c5.2-4.4 9.4-9.1 11.9-14.2 3.9-8.1 3.1-18.1.2-27.3l-2.6-.4c.1 0 .3-.1.4-.2 3.1-1.2 1.7-1.5 4.2-3.2 3.1-2.1 7.3-.9 10.5-2.6 2.9-1.6 2.6-3.8 3.1-6.4 1.1-5 6.5-5.9 8.4-9.4 7.2 5.4 15.9 10 25.7 11.3 4.5.7 9.1.5 13.6-.2z" fill="#fff400"/><path d="m632.1 306c2.1 1.4 4.2 2.8 6.3 4.1v1.2c-.2 2.7 6 7 9.4 8.8 2.4 1.3 5.2-.7 7.2-1.4 3-1 3.9-.7 6.8.6 2.9 1.2 3.4 2 6.1 1l2.6.4c2.9 9.3 3.8 19.2-.2 27.3-2.5 5.1-6.7 9.8-11.9 14.2-20.8 17.5-57.7 28.9-63.5 30.6.5-4.3 5.4-68.4 37.2-86.8z" fill="#fff400"/><path d="m667 277.4c7.4 3.5 3.7 8.3.6 9.4-1.9.7-14.8-6-25.2-11.9l-2.6.3c-.3-1.8-.2-3.6 1.3-5.2 1.4-1.7 3.9-2 5.6-2.9l2.6.5c.6.1 1.3.1 1.9.2 5.3 3.2 12.2 7.8 15.8 9.6z" fill="#fff400"/><path d="m651.2 267.6c-.7-.1-1.3-.1-1.9-.2l-2.6-.5c.2-.1.5-.3.7-.5 2.2-1.9 1.7-5.6 2.3-8.1l2.1.4c6.9.9 16.8 2.1 21.8 2.1 8.2 0 7 5.9 4.6 8.2-1.5 1.6-15.5-.1-27-1.4z" fill="#fff400"/><path d="m632.1 306c-9.7-6.7-18.3-14.8-24.2-23.5-2.9-4.3-5.1-8.8-6.5-13.3-1.6-5.3-2-10.5-1.2-15.3 1.6-10 8.1-18.8 18.7-24.8 12-6.6 47.1.8 61.4 4.2 3.8.9 6.1 1.6 6.1 1.6v1.3c-2.2-.1-4.1 2.4-6.1 1.5-5.5-2.4-9.8 3.6-12.4 3.8-3.5.3-5.3-3.4-8.8 0-2.7 2.6.1 6.2-1.3 8.9-1.3 2.6-3.4 1-5.7 2.5-1.8 1.1-2.2 3.8-2.5 5.4-.5 2.5-.1 6.2-2.3 8.1-.2.2-.4.3-.7.5-1.7 1-4.1 1.3-5.6 2.9-1.4 1.7-1.6 3.4-1.3 5.2.5 3 2.1 6.1.6 9-1.9 3.7-4.4 4.7-4.1 9.4.2 4.2-3 5.1-.5 8.6 1.8 2.5 2.6 5.1 2.6 8-2-1.2-4.1-2.6-6.2-4z" fill="#f6cc4b"/><path d="m694.6 298.5c-2 3.6-7.3 4.4-8.4 9.4-.5 2.5-.3 4.8-3.1 6.4-3.2 1.7-7.4.5-10.5 2.6-2.5 1.7-1.1 1.9-4.2 3.2-.1.1-.3.1-.4.2-2.7 1-3.2.3-6.1-1s-3.8-1.6-6.8-.6c-2 .7-4.8 2.7-7.2 1.4-3.4-1.8-9.5-6.1-9.4-8.8 0-.4 0-.8 0-1.2 0-2.9-.8-5.5-2.6-8-2.5-3.5.7-4.3.5-8.6-.3-4.8 2.2-5.7 4.1-9.4 1.5-2.9-.1-6-.6-9l2.6-.3c10.3 5.9 23.2 12.6 25.2 11.9 3.1-1.1 6.8-5.8-.6-9.4-3.6-1.7-10.5-6.4-15.8-9.8 11.5 1.3 25.5 3 27 1.5 2.3-2.3 3.6-8.2-4.6-8.2-5 0-14.9-1.2-21.8-2.1l-2.1-.4c.4-1.7.7-4.3 2.5-5.4 2.3-1.5 4.4.1 5.7-2.5 1.4-2.7-1.4-6.2 1.3-8.9 3.5-3.5 5.3.3 8.8 0 2.7-.2 6.9-6.2 12.4-3.8 2 .9 3.8-1.6 6.1-1.5.2 0 .4 0 .6.1 2.8.8 2 2.4 4 3.6 1.9 1.1 3.1-.2 5.1-.3 2.7-.2 4.4.8 5.8 2.8 1.3 1.9.8 2.8.5 4.5-.5 3-1 2.1 1.7 4.6 4.4 4.2-.2 5.8.7 10.2.4 2.2 3.1 3.9 3.1 6.3.1 3-2.8 3.8-4.5 6-3.3 4.2 3.1 10.8-1.6 14-1.1.7-2.9.5-4.1 1.2-3 1.8-2.4 4.2-2.6 6.9-.1.9-.3 1.7-.7 2.4z" fill="#f6cc4b"/><path d="m608 282.5c5.9 8.7 14.5 16.8 24.2 23.5-31.9 18.4-36.8 82.5-37.1 86.8-.5.1-.8.2-.8.2s-26.6-37.6-20.9-68.7c.4-2 .9-4 1.5-5.9 5.7-17 21.4-28.4 32.1-34.9z" fill="#fff400"/><path d="m573.4 324.4c-30 1.9-81.5-35.5-81.5-35.5s17.1-49.3 49.3-59.2c6.1-1.9 12.7-2.2 19.3-1.5l1.5.6c.9 2.9 2 5.5 3.5 7.9 6.3 10.3 19.9 15.2 32.4 16.9l2.5.3c-.8 4.9-.4 10 1.2 15.3 1.4 4.6 3.6 9 6.5 13.3l-1 1.1c-10.7 6.5-26.4 17.9-32.1 34.9-.8 1.9-1.3 3.9-1.6 5.9z" fill="#fff400"/><path d="m634.3 164.8c16.6-25.1 71-43.5 71-43.5s32.2 41.1 23 73.5c-1.2 4.1-4 11.4-7.6 15-15.3 1.9-31 14.4-37.7 22.7l-2.8.7c-14.3-3.4-49.4-10.9-61.4-4.2-10.7 5.9-17.1 14.7-18.7 24.8l-2.5-.3c-12.4-1.7-26.1-6.6-32.4-16.9-1.4-2.3-2.6-5-3.5-7.9-8.9-28.7 6.8-80.5 6.8-80.5s41.9-1.8 65.8 16.6z" fill="#fff400"/><g fill="none"><path d="m597.8 253.5c-12.4-1.7-26.1-6.6-32.4-16.9-1.4-2.3-2.6-5-3.5-7.9-8.9-28.7 6.8-80.5 6.8-80.5s41.7-1.8 65.6 16.6c2.8 2.2 5.4 4.6 7.6 7.4 11.6 14.5 12.4 38.3 11.9 52.7" stroke="#231f20" stroke-width="10.0875"/><path d="m733.9 309.6c3.3 29-7.7 67-7.7 67s-41.5 5.2-65.4-14.4" stroke="#231f20" stroke-width="10.0875"/><path d="m573.4 324.4c-30 1.9-81.5-35.5-81.5-35.5s17.1-49.3 49.3-59.2c6.1-1.9 12.7-2.2 19.3-1.5" stroke="#231f20" stroke-width="10.0875"/><path d="m733.9 309.6c-4.5.7-9.1.9-13.6.3-9.8-1.3-18.5-5.9-25.7-11.3-.4-.3-.9-.6-1.3-1" stroke="#231f20" stroke-width="10.0875"/><path d="m683.2 232.6c6.7-8.3 22.4-20.9 37.7-22.7 3.5-.4 7-.3 10.4.6 29.1 7.7 58.6 66.3 58.6 66.3s-27 28.1-55.9 32.9" stroke="#231f20" stroke-width="10.0875"/><path d="m573.4 324.4c.4-2 .9-4 1.5-5.9 5.7-17 21.4-28.4 32.1-34.9" stroke="#231f20" stroke-width="10.0875"/><path d="m670.6 320.6c2.9 9.3 3.8 19.2-.2 27.3-2.5 5.1-6.7 9.8-11.9 14.2-20.8 17.5-57.7 28.9-63.5 30.6-.5.1-.8.2-.8.2s-26.6-37.6-20.9-68.7" stroke="#231f20" stroke-width="10.0875"/><path d="m634.3 164.9c16.6-25.2 71.1-43.6 71.1-43.6s32.2 41.1 23 73.5c-1.2 4.1-4 11.4-7.6 15" stroke="#231f20" stroke-width="10.0875"/><path d="m568.7 148.2s29.9 25.7 52.8 73.2" stroke="#231f20" stroke-width="6.2419"/><path d="m704.8 121.6s-5.4 39.1-33 84" stroke="#231f20" stroke-width="6.2419"/><path d="m668.4 320.1c-.1.1-.3.1-.4.2-2.7 1-3.2.3-6.1-1s-3.8-1.6-6.8-.6c-2 .7-4.8 2.7-7.2 1.4-3.4-1.8-9.5-6.1-9.4-8.8 0-.4 0-.8 0-1.2 0-2.9-.8-5.5-2.6-8-2.5-3.5.7-4.3.5-8.6-.3-4.8 2.2-5.7 4.1-9.4 1.5-2.9-.1-6-.6-9-.3-1.8-.2-3.6 1.3-5.2 1.4-1.7 3.9-2 5.6-2.9.2-.1.5-.3.7-.5 2.2-1.9 1.7-5.6 2.3-8.1.4-1.7.7-4.3 2.5-5.4 2.3-1.5 4.4.1 5.7-2.5 1.4-2.7-1.4-6.2 1.3-8.9 3.5-3.5 5.3.3 8.8 0 2.7-.2 6.9-6.2 12.4-3.8 2 .9 3.8-1.6 6.1-1.5.2 0 .4 0 .6.1 2.8.8 2 2.4 4 3.6 1.9 1.1 3.1-.2 5.1-.3 2.7-.2 4.4.8 5.8 2.8 1.3 1.9.8 2.8.5 4.5-.5 3-1 2.1 1.7 4.6 4.4 4.2-.2 5.8.7 10.2.4 2.2 3.1 3.9 3.1 6.3.1 3-2.8 3.8-4.5 6-3.3 4.2 3.1 10.8-1.6 14-1.1.7-2.9.5-4.1 1.2-3 1.8-2.4 4.2-2.6 6.9-.1 1-.3 1.7-.7 2.4-2 3.6-7.3 4.4-8.4 9.4-.5 2.5-.3 4.8-3.1 6.4-3.2 1.7-7.4.5-10.5 2.6-2.5 1.6-1.2 1.9-4.2 3.1" stroke="#231f20" stroke-width="10.0875"/><path d="m600.3 253.8c-.8 4.9-.4 10 1.2 15.3 1.4 4.6 3.6 9 6.5 13.3 5.9 8.7 14.5 16.8 24.2 23.5 2.1 1.4 4.2 2.8 6.3 4.1.5.3.9.6 1.4.8" stroke="#231f20" stroke-width="10.0875"/><path d="m686.5 234.8s-2.3-.6-6.1-1.6c-14.3-3.4-49.4-10.9-61.4-4.2-10.7 5.9-17.1 14.7-18.7 24.8" stroke="#231f20" stroke-width="10.0875"/><path d="m494.1 288.9s28-12.8 71.8-15.1" stroke="#231f20" stroke-width="6.2419"/><path d="m595.1 393s0-.1 0-.2c.3-4.3 5.2-68.4 37.1-86.8" stroke="#231f20" stroke-width="6.2419"/><path d="m651.8 258.7c6.9.9 16.8 2.1 21.8 2.1 8.2 0 7 5.9 4.6 8.2-1.5 1.5-15.5-.1-27-1.5-.7-.1-1.3-.1-1.9-.2" stroke="#231f20" stroke-width="6.2419"/><path d="m650.8 267.3c.2.1.3.2.5.3 5.3 3.4 12.2 8.1 15.8 9.8 7.4 3.5 3.7 8.3.6 9.4-1.9.7-14.8-6-25.2-11.9" stroke="#231f20" stroke-width="6.2419"/><path d="m608 390.1s.1 30.4 2 80" stroke="#231f20" stroke-width="16.8125"/></g></svg>