<svg enable-background="new 0 0 850.4 850.4" height="850.4" viewBox="0 0 850.4 850.4" width="850.4" xmlns="http://www.w3.org/2000/svg"><path d="m446.6 180.7c167.5 0 303.3 94.5 303.3 211.1s-135.8 211.1-303.3 211.1c-52.6 0-101.9-9.3-145-25.6-85 32-201 92.4-201 92.4s75.7-42.9 106.9-94.9c8-13.3 12.6-27.2 15.3-40.6-49.3-37.6-79.4-87.6-79.4-142.4-.1-116.5 135.7-211.1 303.2-211.1m0 16.9c-158 0-286.5 87.2-286.5 194.3 0 47.4 25.9 93.3 72.8 129l8.3 6.4-2.1 10.3c-3.4 16.9-9.2 32.4-17.4 46-2.6 4.3-5.4 8.5-8.4 12.7 27.4-12.4 56.3-24.9 82.3-34.6l6-2.3 6 2.3c42.3 16 90.4 24.6 139 24.6 158 0 286.5-87.2 286.5-194.3s-128.6-194.4-286.5-194.4z"/></svg>