<svg enable-background="new 0 0 850.4 850.4" height="850.4" viewBox="0 0 850.4 850.4" width="850.4" xmlns="http://www.w3.org/2000/svg"><g fill="#fff"><path d="m387.4 498 51.7 3c-1 1.4-1.9 2.9-2.8 4.5l-44.4-4.2c-1.5-1.6-3-2.7-4.5-3.3z"/><path d="m267.3 614.6 51.7-3c-1.5.6-3 1.7-4.5 3.3l-44.4 4.2c-.8-1.7-1.8-3.2-2.8-4.5z"/><path d="m543.4 541.4c6.5 9.4 12.1 26.3 3 40.9-9.1 14.5-35.9 13.4-35.9 13.4l-136.1-.5s-26.7 1.4-37.3-13.4c-9.5-13.3-11.5-33.3 2.8-48.5 9.1-9.7 27.7-12.1 27.7-12.1s-4.9-17.6 11-23.3c0 0 4.1-1.8 8.6 0v.1h.2c1.5.6 3 1.7 4.5 3.3l44.4 4.2c.9-1.6 1.8-3.1 2.8-4.5h.7s0-.3-.1-.9c14.2-18.3 36.3-9.2 36.3-9.2 14.3 6.9 17 16.7 17 16.7 5.8-4.1 12.4-1.5 12.4-1.5 16.1 5.9 10.4 23.2 10.4 23.2s17.5-2.6 27.6 12.1z"/><path d="m451.2 729.1c6.5 9.4 12.1 26.3 3 40.9-9 14.5-35.9 13.4-35.9 13.4l-136.1-.4s-26.7 1.4-37.3-13.4c-9.5-13.3-11.5-33.3 2.8-48.5 9.1-9.7 27.7-12.1 27.7-12.1s0 0 0 0l56.7-.2s26.7 1.4 37.3-13.4c3.8-5.3 6.4-11.7 7.3-18.4 4.3.6 7.1 1.8 7.1 1.8 14.3 6.9 17 16.7 17 16.7 5.8-4.1 12.4-1.5 12.4-1.5 16.1 5.9 10.4 23.2 10.4 23.2s17.5-2.8 27.6 11.9z"/><path d="m439.8 501.1h-.7c.2-.3.4-.6.6-.9.1.5.1.9.1.9z"/><path d="m439.7 500.2c-.2.3-.4.6-.6.9l-51.7-3c-.1 0-.1-.1-.2-.1 1.4-15.2 12.6-21 21.4-21.9 6.2-.6 11.9.9 11.9.9 16.2 3.5 18.8 19.2 19.2 23.2z"/><path d="m387.4 498h-.2v-.1s.1.1.2.1z"/><path d="m366.5 646.8c8.6 9.1 11.3 20 10.1 30.1-7.7-1.2-20-.7-29.1 11.1-.4-3.9-3-19.7-19.3-23.2 0 0-5.7-1.5-11.9-.9-8.7.8-19.9 6.7-21.3 21.9-4.5-1.8-8.6 0-8.6 0-15.7 5.7-11.1 22.8-11 23.3l-79.4.3s-26.9 1.1-35.9-13.4-3.5-31.4 3-40.9c10.1-14.7 27.7-12.1 27.7-12.1s-5.7-17.3 10.4-23.2c0 0 6.6-2.6 12.4 1.5 0 0 2.7-9.9 17-16.7 0 0 22.1-9 36.3 9.3-.1.6-.1.9-.1.9h.7c1 1.4 1.9 2.9 2.8 4.5l44.4-4.2c1.5-1.6 3-2.7 4.5-3.3h.2v-.1c4.5-1.8 8.6 0 8.6 0 15.9 5.8 11 23.3 11 23.3s18.4 2.1 27.5 11.8z"/><path d="m347.5 687.9c9.1-11.7 21.5-12.2 29.1-11.1-.8 6.7-3.4 13.1-7.3 18.4-10.7 14.8-37.3 13.4-37.3 13.4l-56.7.2c-.2-.6-4.7-17.6 11-23.3 0 0 4.1-1.8 8.6 0v.1h.2c1.5.6 3.1 1.7 4.5 3.3l44.4 4.2c.9-1.7 1.8-3.1 2.8-4.5h.7c0 .2 0-.1 0-.7z"/><path d="m347.5 688.8h-.7c.2-.3.4-.6.6-.8.1.5.1.8.1.8z"/><path d="m347.5 687.9c-.2.3-.4.6-.6.8l-51.7-3c-.1 0-.1-.1-.2-.1 1.4-15.2 12.6-21 21.3-21.9 6.2-.6 11.9.9 11.9.9 16.3 3.7 18.9 19.4 19.3 23.3z"/><path d="m319.3 611.4c0 .1 0 .1 0 0l-.2.1s.1 0 .2-.1z"/><path d="m319.3 611.4c-.1 0-.1.1-.2.1l-51.7 3c-.2-.3-.4-.6-.6-.9.4-3.9 3-19.7 19.3-23.2 0 0 5.7-1.5 11.9-.9 8.6.9 19.8 6.8 21.3 21.9z"/><path d="m295.1 685.8 51.7 3c-1 1.4-1.9 2.9-2.8 4.5l-44.4-4.2c-1.4-1.7-3-2.7-4.5-3.3z"/><path d="m295.1 685.8h-.2v-.1c.1 0 .1 0 .2.1z"/><path d="m267.3 614.6h-.7s0-.3.1-.9z"/></g><path d="m319.3 611.4c-1.5-15.2-12.6-21-21.4-21.9-6.2-.6-11.9.9-11.9.9-16.3 3.5-18.9 19.3-19.3 23.2" fill="none" stroke="#231f20" stroke-width="11.9568"/><path d="m376.6 676.9c1.3-10.1-1.5-21-10.1-30.1-9.1-9.7-27.7-12.1-27.7-12.1s4.9-17.6-11-23.3c0 0-4.1-1.8-8.6 0-.1 0-.1.1-.2.1-1.5.6-3 1.7-4.5 3.3" fill="none" stroke="#231f20" stroke-width="11.9568"/><path d="m270.2 619.1c-.9-1.6-1.8-3.1-2.8-4.5-.2-.3-.4-.6-.6-.9-14.2-18.3-36.3-9.3-36.3-9.3-14.3 6.9-17 16.7-17 16.7-5.8-4.1-12.4-1.5-12.4-1.5-16.1 5.9-10.4 23.2-10.4 23.2s-17.6-2.7-27.7 12.1c-6.5 9.4-12.1 26.3-3 40.9 9.1 14.5 35.9 13.4 35.9 13.4l79.4-.3" fill="none" stroke="#231f20" stroke-width="11.9568"/><path d="m294.9 685.7c1.4-15.2 12.6-21 21.3-21.9 6.2-.6 11.9.9 11.9.9 16.3 3.5 18.9 19.3 19.3 23.2" fill="none" stroke="#231f20" stroke-width="11.9568"/><path d="m344 693.3c.9-1.7 1.8-3.1 2.8-4.5.2-.3.4-.6.6-.8 9.1-11.7 21.5-12.2 29.1-11.1 4.3.6 7.1 1.8 7.1 1.8 14.3 6.9 17 16.7 17 16.7 5.8-4.1 12.4-1.5 12.4-1.5 16.1 5.9 10.4 23.2 10.4 23.2s17.6-2.7 27.7 12.1c6.5 9.4 12.1 26.3 3 40.9-9 14.5-35.9 13.4-35.9 13.4l-136-.5s-26.7 1.4-37.3-13.4c-9.5-13.3-11.5-33.3 2.8-48.5 9.1-9.7 27.7-12.1 27.7-12.1s0 0 0 0c-.2-.6-4.7-17.6 11-23.3 0 0 4.1-1.8 8.6 0 .1 0 .1.1.2.1 1.5.6 3.1 1.7 4.5 3.3" fill="none" stroke="#231f20" stroke-width="11.9568"/><path d="m387.2 497.9c1.4-15.2 12.6-21 21.4-21.9 6.2-.6 11.9.9 11.9.9 16.3 3.5 18.9 19.3 19.3 23.2" fill="none" stroke="#231f20" stroke-width="11.9568"/><path d="m436.2 505.5c.9-1.6 1.8-3.1 2.8-4.5.2-.3.4-.6.6-.9 14.2-18.3 36.3-9.2 36.3-9.2 14.3 6.9 17 16.7 17 16.7 5.8-4.1 12.4-1.5 12.4-1.5 16.1 5.9 10.4 23.2 10.4 23.2s17.6-2.7 27.7 12.1c6.5 9.4 12.1 26.3 3 40.9-9.1 14.5-35.9 13.4-35.9 13.4l-136.1-.5s-26.7 1.4-37.3-13.4c-9.5-13.3-11.5-33.3 2.8-48.5 9.1-9.7 27.7-12.1 27.7-12.1s-4.9-17.6 11-23.3c0 0 4.1-1.8 8.6 0 .1 0 .1.1.2.1 1.5.6 3 1.7 4.5 3.3" fill="none" stroke="#231f20" stroke-width="11.9568"/><path d="m240.9 160.6c54.8 0 99.3 44.5 99.3 99.3s-44.5 99.3-99.3 99.3-99.3-44.5-99.3-99.3c0-54.9 44.4-99.3 99.3-99.3z" fill="#fbed24"/><path d="m340.2 259.9c0 54.8-44.5 99.3-99.3 99.3s-99.3-44.5-99.3-99.3 44.5-99.3 99.3-99.3 99.3 44.4 99.3 99.3z" fill="none" stroke="#231f20" stroke-width="16.0588"/><path d="m240.1 142.5v-75.6" fill="none" stroke="#231f20" stroke-width="16.0588"/><path d="m179.8 157.2-41.7-63" fill="none" stroke="#231f20" stroke-width="16.0588"/><path d="m136.6 203.6-68.5-32" fill="none" stroke="#231f20" stroke-width="16.0588"/><path d="m302.5 156 41.7-63" fill="none" stroke="#231f20" stroke-width="16.0588"/><path d="m345.7 202.4 68.5-32" fill="none" stroke="#231f20" stroke-width="16.0588"/><path d="m300 363.4 41.7 62.9" fill="none" stroke="#231f20" stroke-width="16.0588"/><path d="m343.3 316.9 68.4 32" fill="none" stroke="#231f20" stroke-width="16.0588"/><path d="m177.3 364.6-41.7 62.9" fill="none" stroke="#231f20" stroke-width="16.0588"/><path d="m134.1 318.1-68.4 32" fill="none" stroke="#231f20" stroke-width="16.0588"/><path d="m122.5 261h-75.5" fill="none" stroke="#231f20" stroke-width="16.0588"/><path d="m433.6 261h-75.6" fill="none" stroke="#231f20" stroke-width="16.0588"/><path d="m240.1 451.2v-75.5" fill="none" stroke="#231f20" stroke-width="16.0588"/><path d="m644.4 220.7 50.2 2.9c-1 1.3-1.9 2.8-2.8 4.4l-43.1-4.1c-1.3-1.5-2.8-2.5-4.3-3.2z" fill="#797878"/><path d="m667.9 148.6c4.4-1.7 8.3 0 8.3 0 15.4 5.6 10.7 22.6 10.7 22.6s18 2.3 26.9 11.7c8.3 8.9 11 19.4 9.8 29.2-7.5-1.1-19.5-.7-28.3 10.7-.4-3.8-2.9-19.1-18.7-22.5 0 0-5.5-1.5-11.6-.9-8.5.8-19.3 6.5-20.7 21.2-4.4-1.7-8.4 0-8.4 0-15.2 5.5-10.8 22.1-10.7 22.6l-77.1.3s-26.1 1.1-34.9-13-3.4-30.5 2.9-39.7c9.8-14.3 26.9-11.7 26.9-11.7s-5.6-16.8 10.1-22.5c0 0 6.4-2.5 12 1.5 0 0 2.7-9.6 16.5-16.2 0 0 21.4-8.8 35.2 9 .4-3.8 2.9-19.1 18.7-22.5 0 0 5.5-1.5 11.6-.9 8.5.7 19.3 6.4 20.8 21.1z" fill="#797878"/><path d="m795.9 262.9c6.3 9.2 11.7 25.6 2.9 39.7s-34.9 13-34.9 13l-132.1-.5s-25.9 1.4-36.2-13c-9.3-12.9-11.2-32.3 2.7-47.1 8.9-9.4 26.9-11.7 26.9-11.7s0 0 0 0l55-.2s25.9 1.4 36.2-13c3.7-5.2 6.2-11.4 7-17.9 4.2.6 6.9 1.7 6.9 1.7 13.8 6.7 16.5 16.2 16.5 16.2 5.6-4 12-1.5 12-1.5 15.6 5.8 10.1 22.5 10.1 22.5s17.2-2.5 27 11.8z" fill="#797878"/><path d="m695.2 222.9c8.8-11.4 20.8-11.9 28.3-10.7-.8 6.5-3.3 12.7-7 17.9-10.4 14.4-36.2 13-36.2 13l-55 .2c-.1-.5-4.5-17.1 10.7-22.6 0 0 4-1.7 8.4 0v.1h.2c1.5.6 3 1.6 4.4 3.2l43.1 4.1c.9-1.6 1.8-3.1 2.8-4.4h.7c-.3 0-.3-.3-.4-.8z" fill="#797878"/><path d="m695.3 223.7h-.7c.2-.3.4-.6.6-.8.1.5.1.8.1.8z" fill="#fff"/><path d="m695.2 222.9c-.2.3-.4.5-.6.8l-50.2-2.9c-.1 0-.1-.1-.2-.1 1.4-14.7 12.3-20.4 20.7-21.2 6.1-.6 11.6.9 11.6.9 15.8 3.3 18.3 18.6 18.7 22.5z" fill="#797878"/><path d="m684.3 340.9-29.2 65.1 21.2 2.2-43.9 100.8 19-89.2-15.1-3.2 22.2-78.2z" fill="#fbed24"/><path d="m644.4 220.7h-.2s0 0 0-.1c.1.1.1.1.2.1z" fill="#fff"/><path d="m564.3 282.6-29.2 65.1 21.2 2.2-43.9 100.9 19-89.2-15-3.2 22.2-78.2z" fill="#fbed24"/><path d="m667.9 148.7c0-.1 0-.1 0 0-1.4-14.8-12.3-20.5-20.7-21.3-6.1-.6-11.6.9-11.6.9-15.8 3.4-18.3 18.7-18.7 22.5-.1.6-.1.9-.1.9" fill="none" stroke="#231f20" stroke-width="7.4662"/><path d="m723.5 212.1c1.2-9.8-1.4-20.3-9.8-29.2-8.9-9.4-26.9-11.7-26.9-11.7s4.8-17-10.7-22.6c0 0-4-1.7-8.3 0-1.5.6-3.1 1.6-4.6 3.3" fill="none" stroke="#231f20" stroke-width="7.4662"/><path d="m620.2 156c-1.1-1.9-2.2-3.7-3.4-5.2-13.8-17.7-35.2-9-35.2-9-13.8 6.7-16.5 16.2-16.5 16.2-5.6-4-12-1.5-12-1.5-15.6 5.8-10.1 22.5-10.1 22.5s-17.1-2.6-26.9 11.7c-6.3 9.2-11.7 25.6-2.9 39.7s34.9 13 34.9 13l77.1-.3" fill="none" stroke="#231f20" stroke-width="7.4662"/><path d="m644.2 220.7c1.4-14.7 12.3-20.4 20.7-21.2 6.1-.6 11.6.9 11.6.9 15.8 3.4 18.3 18.7 18.7 22.5" fill="none" stroke="#231f20" stroke-width="7.4662"/><path d="m691.8 228.1c.9-1.6 1.8-3.1 2.8-4.4.2-.3.4-.6.6-.8 8.8-11.4 20.8-11.9 28.3-10.7 4.2.6 6.9 1.7 6.9 1.7 13.8 6.7 16.5 16.2 16.5 16.2 5.6-4 12-1.5 12-1.5 15.6 5.8 10.1 22.5 10.1 22.5s17.1-2.6 26.9 11.7c6.3 9.2 11.7 25.6 2.9 39.7s-34.9 13-34.9 13l-132.1-.5s-25.9 1.4-36.2-13c-9.3-12.9-11.2-32.3 2.7-47.1 8.9-9.4 26.9-11.7 26.9-11.7s0 0 0 0c-.1-.5-4.5-17.1 10.6-22.6 0 0 4-1.7 8.4 0 .1 0 .1 0 .2.1 1.5.6 3 1.6 4.4 3.2" fill="none" stroke="#231f20" stroke-width="7.4662"/><path d="m611.4 339.3-51.5 158.2" style="fill:none;stroke:#231f20;stroke-width:7.4662;stroke-linecap:round;stroke-linejoin:round;stroke-dasharray:7.1091 21.3274"/><path d="m732.4 340.3-40.1 122.9" style="fill:none;stroke:#231f20;stroke-width:7.4662;stroke-linecap:round;stroke-linejoin:round;stroke-dasharray:7.1091 21.3274"/><path d="m512.4 450.8 43.9-100.9-21.2-2.2 29.2-65.1-25.7-2.4-22.2 78.2 15 3.2z" fill="none" stroke="#231f20" stroke-width="7.4662"/><path d="m632.4 509 43.9-100.8-21.2-2.2 29.2-65.1-25.8-2.5-22.2 78.2 15.1 3.2z" fill="none" stroke="#231f20" stroke-width="7.4662"/></svg>